# File exported by ZBrush version 2021
# www.zbrush.com
#Vertex Count 578
#Face Count 608
#Auto scale x=1.000000 y=1.000000 z=1.000000
#Auto offset x=0.000000 y=0.000000 z=0.000000
v -0.000538 0.25523001 -0.06247
v -0.006059 0.20218199 -0.30627
v -0.017951 0.196029 -0.29367798
v -0.033505 0.18843999 -0.270713
v -0.05033899 0.18254299 -0.24004399
v -0.06552 0.183245 -0.20555
v -0.075947 0.18795399 -0.168509
v -0.08245299 0.19312 -0.128625
v -0.086172 0.195905 -0.08400599
v -0.08696 0.197997 -0.03415999
v -0.084118 0.204518 0.01893799
v -0.07446499 0.21939 0.07139
v -0.060159 0.24631099 0.11883
v -0.04403499 0.28124898 0.15883
v -0.029533 0.31781899 0.18976399
v -0.017298 0.344796 0.21109299
v -0.005481 0.35962998 0.22200299
v 0.006434 0.36060199 0.22215199
v 0.018401 0.347604 0.21154999
v 0.030701 0.32201799 0.190546
v 0.044776 0.286437 0.159893
v 0.060214 0.25176399 0.12009199
v 0.07344599 0.22474899 0.072699
v 0.08208099 0.209303 0.02012199
v 0.083768 0.20223699 -0.033282
v 0.08194199 0.19982799 -0.083489
v 0.07738599 0.197077 -0.128377
v 0.070473 0.192339 -0.16842199
v 0.059994 0.18812599 -0.205593
v 0.04532 0.187654 -0.24021799
v 0.02933299 0.19311299 -0.27100899
v 0.014992 0.199313 -0.29393601
v 0.003911 0.20340499 -0.30638799
v -0.006826 0.145639 -0.28452399
v -0.02064 0.14225 -0.27289
v -0.038927 0.139798 -0.25123301
v -0.059425 0.14091199 -0.22196899
v -0.078713 0.147687 -0.18832199
v -0.09206099 0.15652899 -0.15171
v -0.09993 0.16382199 -0.11182799
v -0.102536 0.167362 -0.067363
v -0.101171 0.16934299 -0.018022
v -0.09473899 0.174555 0.03426399
v -0.081595 0.186899 0.08575099
v -0.064043 0.208938 0.132483
v -0.045983 0.236964 0.172022
v -0.030272 0.26488399 0.202791
v -0.017339 0.28412801 0.22418999
v -0.005307 0.29407501 0.235216
v 0.006651 0.29529398 0.235345
v 0.01875 0.287593 0.224583
v 0.03157899 0.27005699 0.20345899
v 0.046732 0.243088 0.17296199
v 0.063945 0.214955 0.13367399
v 0.08039599 0.19237099 0.087084
v 0.092413 0.17916199 0.035549
v 0.097661 0.17333599 -0.016922
v 0.097905 0.171127 -0.06652399
v 0.09454 0.167783 -0.111125
v 0.08633899 0.161023 -0.151096
v 0.07310599 0.152786 -0.18783299
v 0.054439 0.14631 -0.221676
v 0.034903 0.144911 -0.251203
v 0.017834 0.145941 -0.27295699
v 0.004804 0.14702799 -0.28457298
v -0.008615 0.06818699 -0.26262399
v -0.025966 0.07078599 -0.25295001
v -0.04850599 0.078088 -0.234013
v -0.073572 0.090108 -0.207248
v -0.09749899 0.105733 -0.174804
v -0.11411099 0.121032 -0.1384
v -0.12321999 0.13268099 -0.097955
v -0.12481199 0.13903799 -0.053013
v -0.12108399 0.14237099 -0.003934
v -0.11109399 0.14628799 0.04744099
v -0.094988 0.15409399 0.097694
v -0.074519 0.16708 0.143691
v -0.054007 0.182196 0.182879
v -0.035962 0.19559499 0.213548
v -0.020609 0.203443 0.23473599
v -0.006224 0.207083 0.24555499
v 0.008243 0.20836399 0.245692
v 0.02255499 0.207017 0.23516799
v 0.037571 0.20086699 0.214311
v 0.054933 0.18829299 0.18398599
v 0.074445 0.17323499 0.14509099
v 0.09388899 0.159777 0.099241
v 0.10896199 0.151298 0.048946
v 0.11798699 0.14693099 -0.002557
v 0.120673 0.143489 -0.051796
v 0.118431 0.137344 -0.09674499
v 0.108969 0.12606899 -0.137222
v 0.092505 0.111155 -0.17375899
v 0.069058 0.095586 -0.206441
v 0.044728 0.08308299 -0.233548
v 0.023156 0.07434599 -0.25273001
v 0.006473 0.069507 -0.26257199
v -0.010424 -0.010791 -0.245083
v -0.030985 -0.002861 -0.237535
v -0.057103 0.013826 -0.221382
v -0.08646199 0.036871 -0.196746
v -0.11553899 0.06181199 -0.165073
v -0.136287 0.08344399 -0.128398
v -0.14708299 0.09895099 -0.086882
v -0.1479 0.107887 -0.04095999
v -0.14216199 0.11264599 0.008208
v -0.130067 0.115487 0.058549
v -0.11235699 0.11877799 0.107127
v -0.09007 0.12322799 0.151525
v -0.066688 0.127754 0.189434
v -0.044769 0.130565 0.219099
v -0.025125 0.130767 0.23943999
v -0.007271 0.130379 0.249822
v 0.010168 0.131493 0.250052
v 0.027868 0.133935 0.24011899
v 0.047038 0.13541799 0.22019599
v 0.06820999 0.133595 0.19088199
v 0.09060099 0.129416 0.15321299
v 0.11202199 0.124792 0.108865
v 0.12867499 0.12122099 0.060205
v 0.139795 0.118175 0.00974
v 0.14448499 0.11338199 -0.03947399
v 0.143121 0.10454399 -0.085344
v 0.13215999 0.08912699 -0.126836
v 0.111772 0.06752199 -0.16357199
v 0.083212 0.042389 -0.19543699
v 0.054435 0.018664 -0.220376
v 0.028912 0.00053 -0.23689599
v 0.008681 -0.009556 -0.244861
v -0.011135 -0.06436199 -0.23586499
v -0.033422 -0.05255699 -0.22960199
v -0.062399 -0.029234 -0.21510399
v -0.09527099 0.001364 -0.19160799
v -0.128349 0.032536 -0.16021099
v -0.152123 0.058137 -0.123019
v -0.16419099 0.07595399 -0.080534
v -0.16463699 0.086468 -0.033886
v -0.157725 0.09218499 0.015242
v -0.144878 0.094506 0.064312
v -0.126817 0.09507799 0.110996
v -0.104436 0.094181 0.15332
v -0.07963299 0.092023 0.18945799
v -0.05483299 0.08887299 0.217599
v -0.03113099 0.085629 0.236725
v -0.008887 0.08394099 0.246445
v 0.012888 0.084889 0.246728
v 0.034887 0.08837299 0.23755599
v 0.05804299 0.093144 0.21890699
v 0.082079 0.09743399 0.19111999
v 0.105888 0.10033 0.15515899
v 0.127351 0.101603 0.11277599
v 0.14435799 0.10115599 0.065962
v 0.15626299 0.09883 0.016736
v 0.16220299 0.093041 -0.03239199
v 0.161247 0.08238399 -0.079
v 0.149018 0.064351 -0.12146999
v 0.12551599 0.038392 -0.158721
v 0.09277699 0.00666 -0.19026899
v 0.06030299 -0.02489399 -0.21399399
v 0.031748 -0.04965699 -0.22886399
v 0.009728 -0.06332799 -0.23558999
v -0.01123 -0.090892 -0.232923
v -0.03384799 -0.07734099 -0.22727699
v -0.063909 -0.05090399 -0.213447
v -0.09859599 -0.016612 -0.190182
v -0.134073 0.017663 -0.15859
v -0.159711 0.04512799 -0.120958
v -0.17257599 0.063937 -0.07791999
v -0.172829 0.07512799 -0.03092099
v -0.16538399 0.08141899 0.01803099
v -0.15262599 0.083851 0.06594999
v -0.13508999 0.08375799 0.110898
v -0.11335899 0.08161199 0.15122799
v -0.088096 0.078125 0.185616
v -0.06153599 0.074115 0.21233199
v -0.035147 0.070597 0.23044799
v -0.009949 0.068898 0.239653
v 0.014644 0.069697 0.23997099
v 0.03957499 0.07298 0.231368
v 0.06539499 0.077969 0.21373499
v 0.09116599 0.08328399 0.187334
v 0.115488 0.08778899 0.15304799
v 0.13625399 0.090635 0.11259099
v 0.152686 0.09107899 0.06747499
v 0.164367 0.088725 0.019391
v 0.17082299 0.08228799 -0.02956
v 0.17008 0.07078299 -0.076554
v 0.157084 0.05158599 -0.119599
v 0.131722 0.02359399 -0.15729199
v 0.096537 -0.011373 -0.188967
v 0.06219499 -0.046732 -0.212382
v 0.032455 -0.074634 -0.226535
v 0.010053 -0.089941 -0.232635
v -0.011536 -0.109061 -0.23011499
v -0.03530599 -0.094875 -0.224497
v -0.06706 -0.067239 -0.210647
v -0.10372199 -0.03143899 -0.187221
v -0.140952 0.004102 -0.155394
v -0.16766299 0.03220599 -0.11747399
v -0.180912 0.051146 -0.074092
v -0.181011 0.062245 -0.02684699
v -0.173112 0.068392 0.022045
v -0.15997999 0.07057999 0.069375
v -0.142304 0.070031 0.11336799
v -0.120646 0.06734299 0.15257699
v -0.095096 0.063382 0.18595199
v -0.067368 0.05909299 0.21190199
v -0.03890699 0.055468 0.22954599
v -0.010944 0.053757 0.238532
v 0.016527 0.05457 0.23882399
v 0.044169 0.057895 0.230393
v 0.07200799 0.06302499 0.21317599
v 0.098884 0.068682 0.18749299
v 0.123424 0.07376 0.15418
v 0.143967 0.07723899 0.11484099
v 0.160439 0.07818699 0.07069099
v 0.17241999 0.076043 0.023223
v 0.17934399 0.06966599 -0.025668
v 0.178761 0.05815599 -0.072926
v 0.16534599 0.03875 -0.11633399
v 0.13881799 0.010049 -0.15433
v 0.10179899 -0.026255 -0.18622699
v 0.065497 -0.06318199 -0.209773
v 0.03415 -0.092283 -0.223881
v 0.010688 -0.108158 -0.229872
v -0.000471 0.237001 -0.057323
v -0.015561 0.19577799 -0.280115
v -0.005151 0.20254999 -0.29207101
v -0.029462 0.18746699 -0.258497
v -0.044961 0.18161599 -0.22993899
v -0.05924699 0.18258699 -0.19792699
v -0.069457 0.187022 -0.163201
v -0.075851 0.191455 -0.125422
v -0.079585 0.193452 -0.082762
v -0.080562 0.19506099 -0.034952
v -0.07802099 0.20090599 0.016037
v -0.069011 0.213933 0.06629599
v -0.05483 0.23836 0.11144299
v -0.03869 0.27064099 0.149191
v -0.024196 0.306497 0.17818599
v -0.013161 0.33432099 0.19821
v -0.003888 0.35048899 0.20845399
v 0.004672 0.35157701 0.20857399
v 0.014042 0.33737498 0.19859099
v 0.025055 0.31093001 0.17888799
v 0.03907699 0.27588498 0.150229
v 0.05455 0.243671 0.112801
v 0.06775599 0.218976 0.067858
v 0.075886 0.205335 0.017596
v 0.07740099 0.198935 -0.033634
v 0.07549999 0.19704 -0.081822
v 0.071056 0.19508199 -0.124806
v 0.06437499 0.19097 -0.16279199
v 0.054223 0.18682199 -0.197674
v 0.040502 0.185808 -0.229808
v 0.025837 0.19113099 -0.25850498
v 0.013048 0.19826899 -0.28016498
v 0.003366 0.203462 -0.29210799
v -0.018076 0.144057 -0.25965699
v -0.00587 0.148098 -0.270718
v -0.03479399 0.140752 -0.23926499
v -0.053957 0.14143 -0.21199099
v -0.072267 0.147742 -0.18070399
v -0.085165 0.15572899 -0.14634999
v -0.092817 0.16198 -0.108562
v -0.09550199 0.164681 -0.066068
v -0.09445799 0.16615299 -0.01872799
v -0.08851499 0.17076499 0.031479
v -0.075997 0.181593 0.080834
v -0.058618 0.201973 0.125349
v -0.040415 0.22856199 0.162717
v -0.02482 0.257081 0.191596
v -0.013159 0.27817601 0.211647
v -0.003745 0.289983 0.22197599
v 0.004928 0.29128301 0.222074
v 0.014393 0.281809 0.211961
v 0.025888 0.26237699 0.192184
v 0.04088699 0.23461499 0.16364599
v 0.058263 0.20774599 0.126659
v 0.074648 0.18670399 0.082436
v 0.08617799 0.175014 0.033144
v 0.09106899 0.169808 -0.01720299
v 0.09111099 0.168136 -0.064827
v 0.087778 0.16563299 -0.107522
v 0.07990799 0.15982599 -0.145456
v 0.06722 0.15225 -0.17996299
v 0.049573 0.145996 -0.21143899
v 0.03134499 0.144901 -0.23897799
v 0.015742 0.146979 -0.259532
v 0.004234 0.149176 -0.27069601
v -0.009604 -0.08205299 -0.220612
v -0.00986 -0.101327 -0.21763299
v 0.009 -0.10043299 -0.217387
v 0.008551 -0.081076 -0.220308
v 0.029658 -0.085564 -0.211822
v 0.02859799 -0.066756 -0.21451799
v 0.058788 -0.05824999 -0.19861799
v 0.05638999 -0.040711 -0.20115
v 0.093593 -0.023519 -0.17647199
v 0.089465 -0.007748 -0.179066
v 0.129571 0.010593 -0.14637599
v 0.123493 0.024749 -0.14921599
v 0.15554699 0.03746699 -0.11036899
v 0.148015 0.050691 -0.11354299
v 0.168869 0.055553 -0.069054
v 0.16067199 0.068415 -0.07260599
v 0.16970899 0.066297 -0.023913
v 0.161583 0.079094 -0.0277
v 0.16322499 0.072375 0.02285699
v 0.155558 0.08518099 0.019156
v 0.15181 0.07468099 0.068198
v 0.14447599 0.08765099 0.065107
v 0.136019 0.07428199 0.11024399
v 0.128746 0.087672 0.108106
v 0.11632499 0.07169199 0.147585
v 0.108846 0.085634 0.14658099
v 0.092867 0.067697 0.17912499
v 0.08557099 0.08212599 0.179186
v 0.067357 0.06314399 0.20339299
v 0.061085 0.077822 0.20435899
v 0.04120999 0.058943 0.219641
v 0.036841 0.073674 0.22124199
v 0.015524 0.056159 0.227584
v 0.013701 0.070866 0.229504
v -0.009879 0.055402 0.227298
v -0.009007 0.070123 0.22919699
v -0.035875 0.05668 0.21879699
v -0.03240799 0.07145199 0.220339
v -0.062624 0.059478 0.202094
v -0.05719599 0.074242 0.20295399
v -0.088954 0.06274099 0.177496
v -0.082431 0.07733099 0.17741
v -0.113374 0.065664 0.14580799
v -0.10658799 0.079879 0.144619
v -0.13412599 0.06746699 0.10850399
v -0.127386 0.08122699 0.106172
v -0.15105299 0.06742899 0.06653899
v -0.144149 0.08081699 0.063253
v -0.163552 0.06501399 0.021302
v -0.15624199 0.078206 0.01741999
v -0.170952 0.059092 -0.025457
v -0.16319799 0.07218799 -0.02943
v -0.17055 0.04869899 -0.07053399
v -0.162716 0.061751 -0.07429499
v -0.15736599 0.031034 -0.11174599
v -0.15012699 0.04434299 -0.11515499
v -0.131206 0.004726 -0.147596
v -0.125282 0.018859 -0.150702
v -0.09508 -0.02864399 -0.177552
v -0.090974 -0.013004 -0.180406
v -0.06005999 -0.062265 -0.19953
v -0.05767399 -0.04493999 -0.202296
v -0.0307 -0.088123 -0.212446
v -0.02973 -0.069512 -0.21529899
v -0.00955 -0.055085 -0.22363999
v 0.008388 -0.054037 -0.223333
v 0.028283 -0.04137999 -0.216848
v 0.05517 -0.01849 -0.202717
v 0.086511 0.010646 -0.18032899
v 0.11800599 0.039841 -0.150636
v 0.14050699 0.06364399 -0.11540599
v 0.152271 0.080107 -0.07502199
v 0.153347 0.08988399 -0.030477
v 0.14784599 0.095273 0.016579
v 0.136589 0.097611 0.063662
v 0.120283 0.09836699 0.108327
v 0.099636 0.09775099 0.148698
v 0.07667899 0.095835 0.182997
v 0.05372 0.09270399 0.20964099
v 0.032019 0.089001 0.22766199
v 0.011841 0.086148 0.236587
v -0.007914 0.08523199 0.23632
v -0.028333 0.08637899 0.22686299
v -0.05056399 0.08868599 0.20834699
v -0.074242 0.09080299 0.18129099
v -0.09812299 0.09206 0.146724
v -0.11959999 0.092306 0.106307
v -0.136874 0.09138 0.06168099
v -0.148999 0.08897899 0.014704
v -0.15541 0.08359099 -0.03234399
v -0.15478 0.07389099 -0.076879
v -0.143093 0.05757499 -0.11720799
v -0.120246 0.034056 -0.152318
v -0.08837799 0.005361 -0.181812
v -0.056724 -0.022856 -0.20394
v -0.02957299 -0.04430099 -0.217656
v -0.009096 -0.002278 -0.23261
v 0.007629 -0.001143 -0.232353
v 0.025999 0.007858 -0.224671
v 0.050046 0.024226 -0.208967
v 0.077684 0.04590899 -0.18548299
v 0.104978 0.068889 -0.15557399
v 0.124402 0.08856199 -0.120901
v 0.134874 0.10242199 -0.08145599
v 0.136326 0.110312 -0.03760699
v 0.132053 0.11460299 0.009558
v 0.121569 0.11743599 0.05785999
v 0.10557 0.120875 0.104322
v 0.08479999 0.12566499 0.146547
v 0.062957 0.130638 0.18238699
v 0.042614 0.13401299 0.210361
v 0.024816 0.13438199 0.229469
v 0.009023 0.133199 0.239046
v -0.006217 0.13209599 0.238838
v -0.022165 0.13128499 0.228835
v -0.040447 0.129342 0.20929299
v -0.06150899 0.125127 0.180902
v -0.084284 0.11990399 0.14471699
v -0.105819 0.11530099 0.102329
v -0.12276899 0.112094 0.05585499
v -0.13413 0.10939999 0.007636
v -0.139373 0.105094 -0.03946499
v -0.13840299 0.097065 -0.083304
v -0.128021 0.08309199 -0.12269599
v -0.108189 0.06340599 -0.15725199
v -0.08034899 0.040669 -0.18693399
v -0.052203 0.019694 -0.21009799
v -0.027688 0.004721 -0.225389
v -0.023101 0.07648599 -0.24057699
v -0.007507 0.07479 -0.24983499
v -0.04413 0.082258 -0.22263799
v -0.067946 0.092757 -0.19752
v -0.09071999 0.10683199 -0.16716399
v -0.106608 0.12061099 -0.132907
v -0.115387 0.13083499 -0.094549
v -0.117114 0.13621999 -0.051647
v -0.11384099 0.138988 -0.00462
v -0.104543 0.142477 0.04461399
v -0.089194 0.14948999 0.09270899
v -0.06927499 0.16185499 0.136564
v -0.04900899 0.17699599 0.17381
v -0.031383 0.19188 0.202929
v -0.01719399 0.20205199 0.22307799
v -0.00496 0.20755599 0.23339
v 0.00684 0.20888799 0.23349399
v 0.018979 0.20569199 0.223441
v 0.03279599 0.19711999 0.20363999
v 0.049748 0.18287099 0.174942
v 0.06906999 0.167664 0.138108
v 0.08808899 0.154778 0.094524
v 0.10254 0.147136 0.04648499
v 0.111 0.143248 -0.002837
v 0.113338 0.14040599 -0.050044
v 0.11104399 0.13524399 -0.09302499
v 0.101992 0.12534299 -0.13148699
v 0.08630199 0.111822 -0.16591699
v 0.064037 0.09764199 -0.196527
v 0.040917 0.086565 -0.22198599
v 0.020759 0.07949399 -0.240216
v 0.00574 0.075886 -0.249724
v -0.00542 0.224304 -0.288677
v -0.015771 0.217607 -0.27723199
v -0.028832 0.209279 -0.25649601
v -0.04270299 0.20241199 -0.228826
v -0.055234 0.20194999 -0.19775499
v -0.064253 0.20494599 -0.16404099
v -0.070012 0.20895199 -0.12777599
v -0.07392799 0.21175 -0.087309
v -0.07521399 0.21444599 -0.04241799
v -0.073981 0.22137899 0.005152
v -0.066578 0.23570799 0.05195299
v -0.055048 0.261177 0.094153
v -0.041154 0.29379698 0.12962399
v -0.02796999 0.329452 0.15701499
v -0.016283 0.356588 0.175934
v -0.005119 0.37187001 0.18567399
v 0.005896 0.37262499 0.185824
v 0.017211 0.35885098 0.176367
v 0.029018 0.33297398 0.157716
v 0.041917 0.29827201 0.130527
v 0.055312 0.26603999 0.095191
v 0.06589499 0.24059599 0.05300699
v 0.07244499 0.22594399 0.006103
v 0.072608 0.21859799 -0.04174
v 0.07041899 0.215608 -0.08695399
v 0.0658 0.21276399 -0.127698
v 0.05971 0.209037 -0.16413
v 0.050623 0.20632399 -0.19795399
v 0.038561 0.20687699 -0.229099
v 0.025377 0.213266 -0.256814
v 0.013282 0.220399 -0.277482
v 0.003556 0.22533899 -0.28877899
v -0.004608 0.2134 -0.26760399
v -0.013732 0.20624899 -0.25688201
v -0.025256 0.19739599 -0.237616
v -0.03804599 0.190695 -0.212207
v -0.04981299 0.190256 -0.183768
v -0.058715 0.192642 -0.15267099
v -0.064289 0.19558499 -0.11902199
v -0.068098 0.197209 -0.081197
v -0.06941799 0.19904099 -0.03915499
v -0.06821499 0.20499099 0.005408
v -0.061312 0.217377 0.04908499
v -0.049687 0.24020199 0.08812999
v -0.03581 0.270038 0.12059699
v -0.022655 0.304111 0.14540499
v -0.012282 0.33112001 0.162575
v -0.003548 0.34696298 0.171403
v 0.004293 0.34781301 0.171523
v 0.013136 0.333577 0.162924
v 0.02355399 0.30782899 0.14599199
v 0.03634199 0.27454 0.12141499
v 0.049716 0.24490299 0.089188
v 0.060456 0.221918 0.050308
v 0.06659 0.20913399 0.006652
v 0.06681399 0.20273999 -0.038093
v 0.064672 0.20064599 -0.080435
v 0.06027099 0.19899399 -0.11855
v 0.05449099 0.19625499 -0.15238499
v 0.04565199 0.19402499 -0.183611
v 0.03441999 0.19435499 -0.21213799
v 0.02231499 0.20054699 -0.237635
v 0.011692 0.208385 -0.25692099
v 0.003119 0.21417999 -0.267627
v 0.011354 -0.10867899 -0.23356999
v -0.012093 -0.109607 -0.233831
v -0.011788 -0.091438 -0.23664
v 0.01072 -0.09046199 -0.23633199
v 0.03565499 -0.09263599 -0.22730499
v 0.03396 -0.074987 -0.22995999
v 0.06741 -0.063294 -0.212998
v 0.06410799 -0.046844 -0.215607
v 0.10395599 -0.026052 -0.18929
v 0.09869399 -0.011169 -0.19202999
v 0.141283 0.010716 -0.157102
v 0.134186 0.02425999 -0.16006399
v 0.168225 0.040029 -0.11844
v 0.15996399 0.052864 -0.121705
v 0.181906 0.059969 -0.074023
v 0.173224 0.07259599 -0.077651
v 0.182493 0.07171499 -0.025857
v 0.17397099 0.08433599 -0.02975
v 0.17551499 0.078128 0.023631
v 0.167462 0.09081 0.01979799
v 0.16346399 0.08022099 0.071588
v 0.15570999 0.09311199 0.06837099
v 0.14689 0.07915099 0.11621999
v 0.13917599 0.09254699 0.11396899
v 0.126193 0.07545699 0.156071
v 0.118257 0.089486 0.15493899
v 0.10143099 0.070031 0.189912
v 0.093713 0.084633 0.18975299
v 0.07420399 0.06387999 0.21612
v 0.067592 0.07882399 0.216679
v 0.04574799 0.05818099 0.23381799
v 0.041154 0.073266 0.234793
v 0.01710199 0.054425 0.242575
v 0.015219 0.06955199 0.24372099
v -0.011587 0.05359 0.24226899
v -0.010591 0.06872999 0.24338999
v -0.040537 0.055695 0.23295
v -0.036777 0.07082399 0.23385199
v -0.0696 0.05986699 0.21483999
v -0.06376799 0.07488899 0.21526999
v -0.097672 0.064635 0.188389
v -0.090672 0.079378 0.18805299
v -0.12344499 0.068937 0.154513
v -0.116158 0.083205 0.15316399
v -0.14525799 0.071841 0.114813
v -0.138044 0.085568 0.11234399
v -0.16303999 0.072521 0.070352
v -0.15568499 0.08579199 0.06692799
v -0.176247 0.07039699 0.02253899
v -0.168519 0.083424 0.018525
v -0.184209 0.064222 -0.02696
v -0.17602799 0.07710599 -0.031034
v -0.18411499 0.052889 -0.07513699
v -0.175779 0.06567999 -0.078965
v -0.170595 0.03341199 -0.11955399
v -0.162643 0.04633399 -0.123037
v -0.143452 0.004702 -0.158148
v -0.136572 0.01826299 -0.161345
v -0.105901 -0.03129199 -0.190272
v -0.100775 -0.016465 -0.193232
v -0.068975 -0.06740599 -0.213869
v -0.065824 -0.05107099 -0.21667
v -0.036766 -0.095279 -0.22793799
v -0.035309 -0.07774499 -0.230718
g Group16191
f 483 228 227 484
g Group57741
f 3 2 451 452
g Group16191
f 484 227 229 485
g Group57741
f 4 3 452 453
g Group16191
f 485 229 230 486
g Group57741
f 5 4 453 454
g Group16191
f 486 230 231 487
g Group57741
f 6 5 454 455
g Group16191
f 487 231 232 488
g Group57741
f 7 6 455 456
g Group16191
f 488 232 233 489
g Group57741
f 8 7 456 457
g Group16191
f 489 233 234 490
g Group57741
f 9 8 457 458
g Group16191
f 490 234 235 491
g Group57741
f 10 9 458 459
g Group16191
f 491 235 236 492
g Group57741
f 11 10 459 460
g Group16191
f 492 236 237 493
g Group57741
f 12 11 460 461
g Group16191
f 493 237 238 494
g Group57741
f 13 12 461 462
g Group16191
f 494 238 239 495
g Group57741
f 14 13 462 463
g Group16191
f 495 239 240 496
g Group57741
f 15 14 463 464
g Group16191
f 496 240 241 497
g Group57741
f 16 15 464 465
g Group16191
f 497 241 242 498
g Group57741
f 17 16 465 466
g Group16191
f 498 242 243 499
g Group57741
f 18 17 466 467
g Group16191
f 499 243 244 500
g Group57741
f 19 18 467 468
g Group16191
f 500 244 245 501
g Group57741
f 20 19 468 469
g Group16191
f 501 245 246 502
g Group57741
f 21 20 469 470
g Group16191
f 502 246 247 503
g Group57741
f 22 21 470 471
g Group16191
f 503 247 248 504
g Group57741
f 23 22 471 472
g Group16191
f 504 248 249 505
g Group57741
f 24 23 472 473
g Group16191
f 505 249 250 506
g Group57741
f 25 24 473 474
g Group16191
f 506 250 251 507
g Group57741
f 26 25 474 475
g Group16191
f 507 251 252 508
g Group57741
f 27 26 475 476
g Group16191
f 508 252 253 509
g Group57741
f 28 27 476 477
g Group16191
f 509 253 254 510
g Group57741
f 29 28 477 478
g Group16191
f 510 254 255 511
g Group57741
f 30 29 478 479
g Group16191
f 511 255 256 512
g Group57741
f 31 30 479 480
g Group16191
f 512 256 257 513
g Group57741
f 32 31 480 481
g Group16191
f 513 257 258 514
g Group57741
f 33 32 481 482
g Group16191
f 514 258 228 483
g Group57741
f 2 33 482 451
g Group16191
f 226 514 483
g Group57741
f 482 1 451
g Group16191
f 226 513 514
g Group57741
f 481 1 482
g Group16191
f 226 512 513
g Group57741
f 480 1 481
g Group16191
f 226 511 512
g Group57741
f 479 1 480
g Group16191
f 226 510 511
g Group57741
f 478 1 479
g Group16191
f 226 509 510
g Group57741
f 477 1 478
g Group16191
f 226 508 509
g Group57741
f 476 1 477
g Group16191
f 226 507 508
g Group57741
f 475 1 476
g Group16191
f 226 506 507
g Group57741
f 474 1 475
g Group16191
f 226 505 506
g Group57741
f 473 1 474
g Group16191
f 226 504 505
g Group57741
f 472 1 473
g Group16191
f 226 503 504
g Group57741
f 471 1 472
g Group16191
f 226 502 503
g Group57741
f 470 1 471
g Group16191
f 226 501 502
g Group57741
f 469 1 470
g Group16191
f 226 500 501
g Group57741
f 468 1 469
g Group16191
f 226 499 500
g Group57741
f 467 1 468
g Group16191
f 226 498 499
g Group57741
f 466 1 467
g Group16191
f 226 497 498
g Group57741
f 465 1 466
g Group16191
f 226 496 497
g Group57741
f 464 1 465
g Group16191
f 226 495 496
g Group57741
f 463 1 464
g Group16191
f 226 494 495
g Group57741
f 462 1 463
g Group16191
f 226 493 494
g Group57741
f 461 1 462
g Group16191
f 226 492 493
g Group57741
f 460 1 461
g Group16191
f 226 491 492
g Group57741
f 459 1 460
g Group16191
f 226 490 491
g Group57741
f 458 1 459
g Group16191
f 226 489 490
g Group57741
f 457 1 458
g Group16191
f 226 488 489
g Group57741
f 456 1 457
g Group16191
f 226 487 488
g Group57741
f 455 1 456
g Group16191
f 226 486 487
g Group57741
f 454 1 455
g Group16191
f 226 485 486
g Group57741
f 453 1 454
g Group16191
f 226 484 485
g Group57741
f 452 1 453
g Group16191
f 226 483 484
g Group57741
f 451 1 452
g Group16191
f 228 260 259 227
g Group57741
f 2 3 35 34
g Group16191
f 227 259 261 229
g Group57741
f 3 4 36 35
g Group16191
f 229 261 262 230
g Group57741
f 4 5 37 36
g Group16191
f 230 262 263 231
g Group57741
f 5 6 38 37
g Group16191
f 231 263 264 232
g Group57741
f 6 7 39 38
g Group16191
f 232 264 265 233
g Group57741
f 7 8 40 39
g Group16191
f 233 265 266 234
g Group57741
f 8 9 41 40
g Group16191
f 234 266 267 235
g Group57741
f 9 10 42 41
g Group16191
f 235 267 268 236
g Group57741
f 10 11 43 42
g Group16191
f 236 268 269 237
g Group57741
f 11 12 44 43
g Group16191
f 237 269 270 238
g Group57741
f 12 13 45 44
g Group16191
f 238 270 271 239
g Group57741
f 13 14 46 45
g Group16191
f 239 271 272 240
g Group57741
f 14 15 47 46
g Group16191
f 240 272 273 241
g Group57741
f 15 16 48 47
g Group16191
f 241 273 274 242
g Group57741
f 16 17 49 48
g Group16191
f 242 274 275 243
g Group57741
f 17 18 50 49
g Group16191
f 243 275 276 244
g Group57741
f 18 19 51 50
g Group16191
f 244 276 277 245
g Group57741
f 19 20 52 51
g Group16191
f 245 277 278 246
g Group57741
f 20 21 53 52
g Group16191
f 246 278 279 247
g Group57741
f 21 22 54 53
g Group16191
f 247 279 280 248
g Group57741
f 22 23 55 54
g Group16191
f 248 280 281 249
g Group57741
f 23 24 56 55
g Group16191
f 249 281 282 250
g Group57741
f 24 25 57 56
g Group16191
f 250 282 283 251
g Group57741
f 25 26 58 57
g Group16191
f 251 283 284 252
g Group57741
f 26 27 59 58
g Group16191
f 252 284 285 253
g Group57741
f 27 28 60 59
g Group16191
f 253 285 286 254
g Group57741
f 28 29 61 60
g Group16191
f 254 286 287 255
g Group57741
f 29 30 62 61
g Group16191
f 255 287 288 256
g Group57741
f 30 31 63 62
g Group16191
f 256 288 289 257
g Group57741
f 31 32 64 63
g Group16191
f 257 289 290 258
g Group57741
f 32 33 65 64
g Group16191
f 258 290 260 228
g Group57741
f 33 2 34 65
g Group16191
f 294 293 292 291
g Group16194
f 225 194 292 293
g Group16191
f 296 295 293 294
g Group16194
f 224 225 293 295
g Group16191
f 298 297 295 296
g Group16194
f 223 224 295 297
g Group16191
f 300 299 297 298
g Group16194
f 222 223 297 299
g Group16191
f 302 301 299 300
g Group16194
f 221 222 299 301
g Group16191
f 304 303 301 302
g Group16194
f 220 221 301 303
g Group16191
f 306 305 303 304
g Group16194
f 219 220 303 305
g Group16191
f 308 307 305 306
g Group16194
f 218 219 305 307
g Group16191
f 310 309 307 308
g Group16194
f 217 218 307 309
g Group16191
f 312 311 309 310
g Group16194
f 216 217 309 311
g Group16191
f 314 313 311 312
g Group16194
f 215 216 311 313
g Group16191
f 316 315 313 314
g Group16194
f 214 215 313 315
g Group16191
f 318 317 315 316
g Group16194
f 213 214 315 317
g Group16191
f 320 319 317 318
g Group16194
f 212 213 317 319
g Group16191
f 322 321 319 320
g Group16194
f 211 212 319 321
g Group16191
f 324 323 321 322
g Group16194
f 210 211 321 323
g Group16191
f 326 325 323 324
g Group16194
f 209 210 323 325
g Group16191
f 328 327 325 326
g Group16194
f 208 209 325 327
g Group16191
f 330 329 327 328
g Group16194
f 207 208 327 329
g Group16191
f 332 331 329 330
g Group16194
f 206 207 329 331
g Group16191
f 334 333 331 332
g Group16194
f 205 206 331 333
g Group16191
f 336 335 333 334
g Group16194
f 204 205 333 335
g Group16191
f 338 337 335 336
g Group16194
f 203 204 335 337
g Group16191
f 340 339 337 338
g Group16194
f 202 203 337 339
g Group16191
f 342 341 339 340
g Group16194
f 201 202 339 341
g Group16191
f 344 343 341 342
g Group16194
f 200 201 341 343
g Group16191
f 346 345 343 344
g Group16194
f 199 200 343 345
g Group16191
f 348 347 345 346
g Group16194
f 198 199 345 347
g Group16191
f 350 349 347 348
g Group16194
f 197 198 347 349
g Group16191
f 352 351 349 350
g Group16194
f 196 197 349 351
g Group16191
f 354 353 351 352
g Group16194
f 195 196 351 353
g Group16191
f 291 292 353 354
g Group16194
f 194 195 353 292
g Group16191
f 356 294 291 355
g Group57741
f 161 130 162 193
g Group16191
f 357 296 294 356
g Group57741
f 160 161 193 192
g Group16191
f 358 298 296 357
g Group57741
f 159 160 192 191
g Group16191
f 359 300 298 358
g Group57741
f 158 159 191 190
g Group16191
f 360 302 300 359
g Group57741
f 157 158 190 189
g Group16191
f 361 304 302 360
g Group57741
f 156 157 189 188
g Group16191
f 362 306 304 361
g Group57741
f 155 156 188 187
g Group16191
f 363 308 306 362
g Group57741
f 154 155 187 186
g Group16191
f 364 310 308 363
g Group57741
f 153 154 186 185
g Group16191
f 365 312 310 364
g Group57741
f 152 153 185 184
g Group16191
f 366 314 312 365
g Group57741
f 151 152 184 183
g Group16191
f 367 316 314 366
g Group57741
f 150 151 183 182
g Group16191
f 368 318 316 367
g Group57741
f 149 150 182 181
g Group16191
f 369 320 318 368
g Group57741
f 148 149 181 180
g Group16191
f 370 322 320 369
g Group57741
f 147 148 180 179
g Group16191
f 371 324 322 370
g Group57741
f 146 147 179 178
g Group16191
f 372 326 324 371
g Group57741
f 145 146 178 177
g Group16191
f 373 328 326 372
g Group57741
f 144 145 177 176
g Group16191
f 374 330 328 373
g Group57741
f 143 144 176 175
g Group16191
f 375 332 330 374
g Group57741
f 142 143 175 174
g Group16191
f 376 334 332 375
g Group57741
f 141 142 174 173
g Group16191
f 377 336 334 376
g Group57741
f 140 141 173 172
g Group16191
f 378 338 336 377
g Group57741
f 139 140 172 171
g Group16191
f 379 340 338 378
g Group57741
f 138 139 171 170
g Group16191
f 380 342 340 379
g Group57741
f 137 138 170 169
g Group16191
f 381 344 342 380
g Group57741
f 136 137 169 168
g Group16191
f 382 346 344 381
g Group57741
f 135 136 168 167
g Group16191
f 383 348 346 382
g Group57741
f 134 135 167 166
g Group16191
f 384 350 348 383
g Group57741
f 133 134 166 165
g Group16191
f 385 352 350 384
g Group57741
f 132 133 165 164
g Group16191
f 386 354 352 385
g Group57741
f 131 132 164 163
g Group16191
f 355 291 354 386
g Group57741
f 130 131 163 162
g Group16191
f 388 356 355 387
g Group57741
f 129 98 130 161
g Group16191
f 389 357 356 388
g Group57741
f 128 129 161 160
g Group16191
f 390 358 357 389
g Group57741
f 127 128 160 159
g Group16191
f 391 359 358 390
g Group57741
f 126 127 159 158
g Group16191
f 392 360 359 391
g Group57741
f 125 126 158 157
g Group16191
f 393 361 360 392
g Group57741
f 124 125 157 156
g Group16191
f 394 362 361 393
g Group57741
f 123 124 156 155
g Group16191
f 395 363 362 394
g Group57741
f 122 123 155 154
g Group16191
f 396 364 363 395
g Group57741
f 121 122 154 153
g Group16191
f 397 365 364 396
g Group57741
f 120 121 153 152
g Group16191
f 398 366 365 397
g Group57741
f 119 120 152 151
g Group16191
f 399 367 366 398
g Group57741
f 118 119 151 150
g Group16191
f 400 368 367 399
g Group57741
f 117 118 150 149
g Group16191
f 401 369 368 400
g Group57741
f 116 117 149 148
g Group16191
f 402 370 369 401
g Group57741
f 115 116 148 147
g Group16191
f 403 371 370 402
g Group57741
f 114 115 147 146
g Group16191
f 404 372 371 403
g Group57741
f 113 114 146 145
g Group16191
f 405 373 372 404
g Group57741
f 112 113 145 144
g Group16191
f 406 374 373 405
g Group57741
f 111 112 144 143
g Group16191
f 407 375 374 406
g Group57741
f 110 111 143 142
g Group16191
f 408 376 375 407
g Group57741
f 109 110 142 141
g Group16191
f 409 377 376 408
g Group57741
f 108 109 141 140
g Group16191
f 410 378 377 409
g Group57741
f 107 108 140 139
g Group16191
f 411 379 378 410
g Group57741
f 106 107 139 138
g Group16191
f 412 380 379 411
g Group57741
f 105 106 138 137
g Group16191
f 413 381 380 412
g Group57741
f 104 105 137 136
g Group16191
f 414 382 381 413
g Group57741
f 103 104 136 135
g Group16191
f 415 383 382 414
g Group57741
f 102 103 135 134
g Group16191
f 416 384 383 415
g Group57741
f 101 102 134 133
g Group16191
f 417 385 384 416
g Group57741
f 100 101 133 132
g Group16191
f 418 386 385 417
g Group57741
f 99 100 132 131
g Group16191
f 387 355 386 418
g Group57741
f 98 99 131 130
g Group16191
f 260 420 419 259
g Group57741
f 34 35 67 66
g Group16191
f 259 419 421 261
g Group57741
f 35 36 68 67
g Group16191
f 261 421 422 262
g Group57741
f 36 37 69 68
g Group16191
f 262 422 423 263
g Group57741
f 37 38 70 69
g Group16191
f 263 423 424 264
g Group57741
f 38 39 71 70
g Group16191
f 264 424 425 265
g Group57741
f 39 40 72 71
g Group16191
f 265 425 426 266
g Group57741
f 40 41 73 72
g Group16191
f 266 426 427 267
g Group57741
f 41 42 74 73
g Group16191
f 267 427 428 268
g Group57741
f 42 43 75 74
g Group16191
f 268 428 429 269
g Group57741
f 43 44 76 75
g Group16191
f 269 429 430 270
g Group57741
f 44 45 77 76
g Group16191
f 270 430 431 271
g Group57741
f 45 46 78 77
g Group16191
f 271 431 432 272
g Group57741
f 46 47 79 78
g Group16191
f 272 432 433 273
g Group57741
f 47 48 80 79
g Group16191
f 273 433 434 274
g Group57741
f 48 49 81 80
g Group16191
f 274 434 435 275
g Group57741
f 49 50 82 81
g Group16191
f 275 435 436 276
g Group57741
f 50 51 83 82
g Group16191
f 276 436 437 277
g Group57741
f 51 52 84 83
g Group16191
f 277 437 438 278
g Group57741
f 52 53 85 84
g Group16191
f 278 438 439 279
g Group57741
f 53 54 86 85
g Group16191
f 279 439 440 280
g Group57741
f 54 55 87 86
g Group16191
f 280 440 441 281
g Group57741
f 55 56 88 87
g Group16191
f 281 441 442 282
g Group57741
f 56 57 89 88
g Group16191
f 282 442 443 283
g Group57741
f 57 58 90 89
g Group16191
f 283 443 444 284
g Group57741
f 58 59 91 90
g Group16191
f 284 444 445 285
g Group57741
f 59 60 92 91
g Group16191
f 285 445 446 286
g Group57741
f 60 61 93 92
g Group16191
f 286 446 447 287
g Group57741
f 61 62 94 93
g Group16191
f 287 447 448 288
g Group57741
f 62 63 95 94
g Group16191
f 288 448 449 289
g Group57741
f 63 64 96 95
g Group16191
f 289 449 450 290
g Group57741
f 64 65 97 96
g Group16191
f 290 450 420 260
g Group57741
f 65 34 66 97
g Group16191
f 420 387 418 419
g Group57741
f 66 67 99 98
g Group16191
f 419 418 417 421
g Group57741
f 67 68 100 99
g Group16191
f 421 417 416 422
g Group57741
f 68 69 101 100
g Group16191
f 422 416 415 423
g Group57741
f 69 70 102 101
g Group16191
f 423 415 414 424
g Group57741
f 70 71 103 102
g Group16191
f 424 414 413 425
g Group57741
f 71 72 104 103
g Group16191
f 425 413 412 426
g Group57741
f 72 73 105 104
g Group16191
f 426 412 411 427
g Group57741
f 73 74 106 105
g Group16191
f 427 411 410 428
g Group57741
f 74 75 107 106
g Group16191
f 428 410 409 429
g Group57741
f 75 76 108 107
g Group16191
f 429 409 408 430
g Group57741
f 76 77 109 108
g Group16191
f 430 408 407 431
g Group57741
f 77 78 110 109
g Group16191
f 431 407 406 432
g Group57741
f 78 79 111 110
g Group16191
f 432 406 405 433
g Group57741
f 79 80 112 111
g Group16191
f 433 405 404 434
g Group57741
f 80 81 113 112
g Group16191
f 434 404 403 435
g Group57741
f 81 82 114 113
g Group16191
f 435 403 402 436
g Group57741
f 82 83 115 114
g Group16191
f 436 402 401 437
g Group57741
f 83 84 116 115
g Group16191
f 437 401 400 438
g Group57741
f 84 85 117 116
g Group16191
f 438 400 399 439
g Group57741
f 85 86 118 117
g Group16191
f 439 399 398 440
g Group57741
f 86 87 119 118
g Group16191
f 440 398 397 441
g Group57741
f 87 88 120 119
g Group16191
f 441 397 396 442
g Group57741
f 88 89 121 120
g Group16191
f 442 396 395 443
g Group57741
f 89 90 122 121
g Group16191
f 443 395 394 444
g Group57741
f 90 91 123 122
g Group16191
f 444 394 393 445
g Group57741
f 91 92 124 123
g Group16191
f 445 393 392 446
g Group57741
f 92 93 125 124
g Group16191
f 446 392 391 447
g Group57741
f 93 94 126 125
g Group16191
f 447 391 390 448
g Group57741
f 94 95 127 126
g Group16191
f 448 390 389 449
g Group57741
f 95 96 128 127
g Group16191
f 449 389 388 450
g Group57741
f 96 97 129 128
g Group16191
f 450 388 387 420
g Group57741
f 97 66 98 129
g Group53492
f 518 517 516 515
f 194 225 515 516
f 193 162 517 518
f 520 518 515 519
f 225 224 519 515
f 192 193 518 520
f 522 520 519 521
f 224 223 521 519
f 191 192 520 522
f 524 522 521 523
f 223 222 523 521
f 190 191 522 524
f 526 524 523 525
f 222 221 525 523
f 189 190 524 526
f 528 526 525 527
f 221 220 527 525
f 188 189 526 528
f 530 528 527 529
f 220 219 529 527
f 187 188 528 530
f 532 530 529 531
f 219 218 531 529
f 186 187 530 532
f 534 532 531 533
f 218 217 533 531
f 185 186 532 534
f 536 534 533 535
f 217 216 535 533
f 184 185 534 536
f 538 536 535 537
f 216 215 537 535
f 183 184 536 538
f 540 538 537 539
f 215 214 539 537
f 182 183 538 540
f 542 540 539 541
f 214 213 541 539
f 181 182 540 542
f 544 542 541 543
f 213 212 543 541
f 180 181 542 544
f 546 544 543 545
f 212 211 545 543
f 179 180 544 546
f 548 546 545 547
f 211 210 547 545
f 178 179 546 548
f 550 548 547 549
f 210 209 549 547
f 177 178 548 550
f 552 550 549 551
f 209 208 551 549
f 176 177 550 552
f 554 552 551 553
f 208 207 553 551
f 175 176 552 554
f 556 554 553 555
f 207 206 555 553
f 174 175 554 556
f 558 556 555 557
f 206 205 557 555
f 173 174 556 558
f 560 558 557 559
f 205 204 559 557
f 172 173 558 560
f 562 560 559 561
f 204 203 561 559
f 171 172 560 562
f 564 562 561 563
f 203 202 563 561
f 170 171 562 564
f 566 564 563 565
f 202 201 565 563
f 169 170 564 566
f 568 566 565 567
f 201 200 567 565
f 168 169 566 568
f 570 568 567 569
f 200 199 569 567
f 167 168 568 570
f 572 570 569 571
f 199 198 571 569
f 166 167 570 572
f 574 572 571 573
f 198 197 573 571
f 165 166 572 574
f 576 574 573 575
f 197 196 575 573
f 164 165 574 576
f 578 576 575 577
f 196 195 577 575
f 163 164 576 578
f 517 578 577 516
f 195 194 516 577
f 162 163 578 517

 