# File exported by ZBrush version 2021
# www.zbrush.com
#Vertex Count 642
#Face Count 640
#Auto scale x=1.000000 y=1.000000 z=1.000000
#Auto offset x=0.000000 y=0.000000 z=0.000000
v 0.00412341 0.0063693 -0.22459456
v -0.07356749 0.00164858 -0.21019993
v -0.14007388 -0.00823072 -0.15927209
v -0.18395558 -0.01658572 -0.0843907
v -0.20463126 -0.01473852 -0.00156342
v -0.19373922 -0.00163741 0.08207807
v -0.15230034 0.01979596 0.15746298
v -0.0861229 0.03762075 0.21472285
v -0.00593753 0.04315062 0.24148821
v 0.07426473 0.03388996 0.22776423
v 0.14056611 0.01520694 0.17704002
v 0.183336 -0.00393861 0.10138374
v 0.1952013 -0.01499056 0.01507828
v 0.17840163 -0.0148161 -0.06902794
v 0.14071045 -0.00611112 -0.14485044
v 0.07970977 0.00292759 -0.20075054
v 0.00179095 0.08294041 -0.25455391
v -0.11094085 0.06725236 -0.24114073
v -0.20638239 0.03035581 -0.18847945
v -0.26957359 -0.00651227 -0.10515528
v -0.2912296 -0.01830365 -0.00529062
v -0.26388195 0.00569948 0.09253441
v -0.20189629 0.04717135 0.17373898
v -0.11221929 0.08299092 0.2318751
v -0.00681803 0.09543744 0.25837808
v 0.09920901 0.07810013 0.24475969
v 0.18940234 0.04093727 0.19238971
v 0.25234699 0.00172525 0.11031855
v 0.28162923 -0.01936377 0.00960721
v 0.26299455 -0.00517635 -0.09100178
v 0.20393122 0.03207766 -0.1739173
v 0.11303405 0.06825765 -0.23105543
v -0.00132616 0.17497581 -0.23037274
v -0.14463897 0.14641404 -0.22275818
v -0.26647114 0.07725833 -0.18746851
v -0.35202878 0.00368792 -0.11486411
v -0.38115516 -0.02508284 -0.0113619
v -0.3460347 0.01203786 0.09444934
v -0.25704261 0.08723803 0.16818469
v -0.13924899 0.14942906 0.21518842
v -0.00604569 0.17184707 0.23535555
v 0.12708394 0.14376843 0.22672322
v 0.24466472 0.08011695 0.18414704
v 0.33622187 0.00667044 0.11044558
v 0.37160441 -0.02645103 0.00058281
v 0.34330689 0.00461477 -0.10203491
v 0.25951173 0.0784626 -0.1730137
v 0.14086337 0.14721414 -0.21176822
v -0.00311375 0.26877868 -0.17204155
v -0.17358517 0.22751314 -0.1712927
v -0.32056355 0.1269539 -0.16938424
v -0.43127951 0.0144201 -0.11867728
v -0.4698219 -0.03461276 -0.01837236
v -0.42511177 0.0190369 0.08700887
v -0.30901458 0.13254711 0.1398756
v -0.16493509 0.22294673 0.16269789
v -0.00453805 0.2556504 0.16988539
v 0.15260365 0.21690337 0.17199786
v 0.29695013 0.12530404 0.15140952
v 0.41439297 0.01431811 0.09924896
v 0.45918834 -0.03579001 -0.00863712
v 0.41970989 0.01516767 -0.10556178
v 0.31017208 0.12792149 -0.15384981
v 0.16460825 0.22829109 -0.15903991
v -0.0010764 0.35099381 -0.10276754
v -0.19891062 0.30198541 -0.10929013
v -0.3693434 0.1788409 -0.14842891
v -0.50241255 0.02615985 -0.12261152
v -0.54872089 -0.04541565 -0.02483276
v -0.49659633 0.03046407 0.07851734
v -0.3573361 0.18197895 0.10269232
v -0.19025011 0.3003914 0.09242035
v 0.00054435 0.34205195 0.08170653
v 0.17950813 0.29316797 0.09988577
v 0.34881934 0.17640815 0.1121076
v 0.48336747 0.02710795 0.0874619
v 0.53611517 -0.04613992 -0.01589062
v 0.488168 0.02703113 -0.10770121
v 0.35896953 0.18001419 -0.1306608
v 0.1882853 0.30313694 -0.0955322
v 0.00158868 0.41553953 -0.04295931
v -0.22400009 0.36650255 -0.05847521
v -0.408755 0.22856992 -0.1324011
v -0.54962778 0.0379261 -0.12587693
v -0.59772515 -0.05303575 -0.02920779
v -0.5446279 0.04247622 0.07234009
v -0.39977496 0.23184761 0.07813391
v -0.21771277 0.3784669 0.02623018
v 0.0034619 0.43609532 -0.00638556
v 0.20608729 0.37074184 0.03288628
v 0.39253577 0.22742003 0.08419325
v 0.52878665 0.04011748 0.07932172
v 0.58314806 -0.05355761 -0.02013447
v 0.53369343 0.03893286 -0.10929548
v 0.39994481 0.23005288 -0.11303401
v 0.21291042 0.3680059 -0.04392885
v -0.06735307 0.01343385 -0.19854836
v 0.00352649 0.01707986 -0.21103015
v -0.13129508 0.00542244 -0.15247398
v -0.17614772 -0.00220779 -0.08223615
v -0.19918911 -0.00316938 -0.00229125
v -0.18773432 0.00824977 0.0792296
v -0.14597269 0.02789847 0.15266975
v -0.0813504 0.04439182 0.20816105
v -0.00491172 0.04937273 0.23394449
v 0.07109997 0.04073042 0.22090177
v 0.13504241 0.02338392 0.17211133
v 0.177612 0.00561948 0.09876455
v 0.18987186 -0.00328009 0.01451997
v 0.17070896 -0.00026556 -0.06741205
v 0.1316147 0.00758086 -0.13905207
v 0.07258791 0.01473036 -0.18987213
v -0.10329784 0.0701113 -0.22523328
v 0.00127636 0.08370978 -0.2376737
v -0.19533772 0.03812324 -0.17671617
v -0.25879538 0.00531308 -0.0988264
v -0.28078377 -0.00550001 -0.00569557
v -0.25209111 0.01721749 0.08642593
v -0.1896388 0.05563438 0.16340744
v -0.10347525 0.0883893 0.21889495
v -0.00562792 0.09949112 0.24406717
v 0.09215182 0.08352498 0.23148772
v 0.17762427 0.04963076 0.18217033
v 0.24008625 0.01385791 0.1046442
v 0.27110841 -0.00624222 0.00998185
v 0.2522881 0.00670775 -0.08478925
v 0.19272233 0.03994338 -0.1628016
v 0.10466851 0.07121623 -0.21576677
v -0.13612803 0.14150275 -0.20835162
v -0.0015378 0.16833427 -0.21628646
v -0.25352382 0.07825844 -0.17302668
v -0.33872678 0.01217473 -0.1045968
v -0.36798566 -0.01346229 -0.01122704
v -0.32985872 0.0218506 0.08484018
v -0.24238278 0.09047154 0.15516191
v -0.12983271 0.14840309 0.20118874
v -0.0054861 0.16904355 0.22100469
v 0.11825847 0.14253324 0.21289879
v 0.2296729 0.08341517 0.17186267
v 0.31878593 0.01711331 0.10183221
v 0.35798978 -0.01470586 0.00196778
v 0.33006584 0.0130263 -0.09150438
v 0.24663156 0.07953985 -0.15879146
v 0.1321063 0.1423968 -0.19768829
v -0.16488997 0.21997942 -0.15888783
v -0.0029761 0.26039624 -0.16049125
v -0.30722427 0.1236716 -0.15423785
v -0.41726526 0.02027351 -0.10574989
v -0.4557724 -0.02310201 -0.01799049
v -0.40912908 0.02533544 0.07548794
v -0.29446005 0.13171647 0.12586678
v -0.15618792 0.21811786 0.14917759
v -0.00448733 0.24919068 0.15718533
v 0.14362569 0.21179126 0.15912978
v 0.28152808 0.12436359 0.13835728
v 0.39684313 0.02076134 0.08905024
v 0.44432032 -0.02431844 -0.00693008
v 0.40565729 0.02089211 -0.09227117
v 0.29717871 0.12469007 -0.13877122
v 0.15608555 0.22084565 -0.1468236
v -0.19127713 0.29383465 -0.09590133
v -0.00072415 0.34207552 -0.0912427
v -0.35914185 0.17478305 -0.13228927
v -0.49502164 0.03251585 -0.1091234
v -0.5423094 -0.0318176 -0.02470806
v -0.485376 0.03670465 0.06582839
v -0.34538126 0.17988152 0.08680611
v -0.18276365 0.29424807 0.07780309
v 0.00049636 0.33400654 0.06934243
v 0.17177955 0.28696784 0.08586181
v 0.3358477 0.1739272 0.09712521
v 0.47072681 0.03335253 0.07569435
v 0.52889269 -0.03252957 -0.01483812
v 0.48061874 0.03330287 -0.09396261
v 0.34921178 0.17600597 -0.11453206
v 0.18091605 0.29506248 -0.08220504
v -0.21806804 0.35584735 -0.04002427
v 0.00183622 0.40271082 -0.0319821
v -0.40689295 0.22756493 -0.11780472
v -0.55676877 0.04556021 -0.11740542
v -0.60786777 -0.04072998 -0.02937267
v -0.5463171 0.04897941 0.06371307
v -0.39494884 0.2312626 0.06134579
v -0.21159601 0.37120983 0.00824504
v 0.0033565 0.42144942 -0.01577837
v 0.20047515 0.3649404 0.01570472
v 0.38743498 0.22700887 0.06787787
v 0.52994728 0.04679185 0.07103416
v 0.59308099 -0.04102406 -0.02001568
v 0.54065084 0.04657832 -0.10080502
v 0.39820718 0.22902482 -0.09847059
v 0.20708558 0.3572199 -0.02553772
v 0.14285261 -0.04239947 0.18580359
v 0.07722284 -0.0416629 0.23770827
v 0.13490346 0.03402562 0.17571088
v 0.0739129 0.0396594 0.22097627
v 0.11775565 0.09232189 0.1551557
v 0.06962607 0.11341472 0.1757141
v 0.13522452 0.11324188 0.09804255
v 0.07437942 0.15956506 0.10341172
v 0.14355373 0.12324596 0.0122791
v 0.0781147 0.17605298 0.0122747
v 0.17310312 0.03939776 -0.07886242
v 0.13514889 0.11324174 -0.07349434
v 0.18678218 0.04382149 0.01227083
v 0.1348422 0.03402479 -0.15121184
v 0.11768173 0.09232138 -0.13063532
v 0.0742241 0.15956421 -0.07890545
v -0.00262606 0.19537267 0.01216745
v -0.00296647 0.17626076 -0.08351713
v -0.07981427 0.1599664 0.1031802
v -0.0025716 0.17626486 0.1077513
v -0.0838489 0.1764695 0.0117657
v -0.08069561 0.15995632 -0.07971918
v 0.06938153 0.11341179 -0.15131945
v -0.00350718 0.12362178 -0.16156233
v 0.07353904 0.03965478 -0.19671015
v -0.00412965 0.04430703 -0.21347373
v -0.07683702 0.11377514 -0.1524259
v -0.08218147 0.04003676 -0.19814473
v -0.00462733 -0.04094849 -0.23313263
v -0.08635076 -0.04127257 -0.2151876
v 0.07672599 -0.04166956 -0.21353338
v 0.142772 -0.04240128 -0.16132679
v 0.18667502 -0.04191602 -0.08334524
v 0.20266555 -0.04142126 0.01226805
v 0.17312209 0.03939843 0.10340175
v 0.1866763 -0.04191524 0.10788004
v -0.00272585 0.12363081 0.18553957
v -0.00295024 0.04432142 0.23715306
v -0.00317631 -0.04093068 0.25661355
v -0.07993114 0.0400632 0.22090664
v -0.08369783 -0.04124087 0.23762019
v -0.14999091 -0.04163981 0.18523618
v -0.19517885 -0.04094088 0.10631888
v -0.141459 0.03474461 0.17526586
v -0.18071362 0.0403053 0.10216614
v -0.07522675 0.11379384 0.17562671
v -0.12377744 0.09295129 0.15484218
v -0.14158579 0.11395654 0.09734395
v -0.1506516 0.12399569 0.01099907
v -0.19557531 0.0447862 0.01014319
v -0.15315011 -0.04167735 -0.16413053
v -0.21263931 -0.0403797 0.00963553
v -0.19736522 -0.04096694 -0.08649379
v -0.18261332 0.04028312 -0.08147627
v -0.14299942 0.11394066 -0.07521159
v -0.12592709 0.09292631 -0.13248661
v -0.14419199 0.0347122 -0.15360432
v 0.07278764 -0.04387638 0.22848518
v 0.06813809 0.03444603 0.20932354
v 0.1248693 0.02936746 0.1670847
v 0.13507476 -0.04440212 0.179091
v 0.06404364 0.10442472 0.1665489
v 0.10876642 0.08481577 0.14748679
v 0.06837312 0.14796054 0.09835465
v 0.12499796 0.10471902 0.09353805
v 0.07180395 0.16353705 0.01225349
v 0.13278242 0.11424425 0.01226901
v 0.17363941 0.03893898 0.01226832
v 0.12497673 0.10471875 -0.06900958
v 0.16072206 0.0346776 -0.07433361
v 0.10869757 0.08481442 -0.12299726
v 0.12477299 0.02936557 -0.14261825
v 0.06825364 0.14795926 -0.07389758
v -0.00312782 0.16341029 -0.07815877
v -0.00278673 0.18142411 0.01211958
v -0.07788033 0.16391989 0.0116859
v -0.00268915 0.1634154 0.10229393
v -0.0740914 0.14833016 0.09807843
v -0.07501912 0.1483194 -0.07476795
v -0.00367161 0.11383375 -0.151709
v 0.06375024 0.10442113 -0.1422227
v 0.0676526 0.03444013 -0.18514032
v -0.00429076 0.03868739 -0.20073138
v -0.07655414 0.03479139 -0.18657679
v -0.07147854 0.10475485 -0.1433599
v -0.08198216 -0.04350997 -0.20600417
v -0.0047077 -0.04331258 -0.22297957
v 0.0722289 -0.04388376 -0.20435525
v 0.13496893 -0.04440423 -0.15463301
v 0.17699556 -0.04387473 -0.07988364
v 0.1923919 -0.04340952 0.01226799
v 0.1769993 -0.04387448 0.1044162
v 0.16072851 0.03467777 0.09886641
v -0.00296982 0.03870305 0.22430196
v -0.00277815 0.11384469 0.17557951
v -0.00318388 -0.04329399 0.24640515
v -0.07929398 -0.0434779 0.22838258
v -0.07422655 0.03481911 0.20922504
v -0.16847461 0.03551881 0.09755928
v -0.13155402 0.03003205 0.16657133
v -0.14227093 -0.04368416 0.17848923
v -0.18555946 -0.04295154 0.10282093
v -0.06978881 0.10477465 0.16642846
v -0.13162393 0.1053796 0.09276827
v -0.11497135 0.08539691 0.14710682
v -0.18255941 0.03983375 0.01009176
v -0.14015375 0.11493612 0.01092079
v -0.18771292 -0.04297675 -0.08303994
v -0.17032313 0.03549678 -0.07697979
v -0.20240224 -0.04242231 0.00961668
v -0.13302671 0.10536321 -0.07078849
v -0.13426153 0.0300004 -0.14502874
v -0.11712488 0.08537184 -0.12489426
v -0.14540918 -0.04372085 -0.15743696
v 0.13045534 -0.01145285 0.17390349
v 0.09881977 0.0311138 0.19155062
v 0.07045165 -0.00928173 0.22080606
v 0.10612504 -0.04422862 0.20733863
v 0.10263333 -0.01072961 0.20082549
v 0.11240077 -0.04213057 0.21544794
v 0.14008638 -0.05461717 0.18381774
v 0.07554506 -0.05456052 0.23516969
v 0.11008958 -0.0545904 0.213134
v 0.07631998 -0.00551225 0.23294962
v 0.10695312 0.03600804 0.2018702
v 0.14073829 -0.00805052 0.18276855
v 0.11093315 -0.0071648 0.21151682
v 0.1169587 0.06319563 0.15746398
v 0.09117425 0.09483255 0.15723733
v 0.06544975 0.07252953 0.19122903
v 0.09389128 0.0665088 0.1774702
v 0.07108441 0.07962007 0.20187124
v 0.09886536 0.1030545 0.16563107
v 0.12651081 0.06942492 0.16562917
v 0.10173156 0.07308912 0.18703807
v 0.1170274 0.09496843 0.12633989
v 0.09900712 0.12975359 0.09517522
v 0.06558028 0.12958756 0.13530983
v 0.09399915 0.1154623 0.12950559
v 0.07132972 0.14008829 0.14258454
v 0.10737925 0.13999332 0.09991722
v 0.12665292 0.10298126 0.13272906
v 0.1019538 0.12488026 0.13625998
v 0.13058763 0.11155495 0.05447038
v 0.10446655 0.1424704 0.01226664
v 0.07074251 0.1594862 0.05652562
v 0.10284753 0.13906198 0.05514676
v 0.0769689 0.17176915 0.05912499
v 0.11326482 0.15341278 0.01228147
v 0.14122128 0.12042431 0.05680089
v 0.11153445 0.14982058 0.05759594
v 0.14559075 0.07283084 -0.07090565
v 0.13057822 0.11155491 -0.02993404
v 0.15607765 0.07956291 0.0122688
v 0.17027379 0.03760329 -0.03228277
v 0.1532641 0.07755748 -0.0307599
v 0.18322305 0.04242865 -0.0345733
v 0.16829182 0.08642247 0.01227481
v 0.14116962 0.12042424 -0.03224498
v 0.15710917 0.07939314 -0.07536585
v 0.16528795 0.08432658 -0.03303939
v 0.14551974 0.03124314 -0.11139027
v 0.11687965 0.06319398 -0.13298325
v 0.11698571 0.09496758 -0.10182781
v 0.13381835 0.06667261 -0.10528828
v 0.12657548 0.10298098 -0.1081932
v 0.126446 0.06942438 -0.1411172
v 0.15695861 0.0358759 -0.11804758
v 0.14455358 0.07297597 -0.11171951
v 0.09895586 0.12975305 -0.0706662
v 0.07068686 0.15948566 -0.03203105
v 0.1028243 0.1390618 -0.03061908
v 0.07687845 0.17176884 -0.03458624
v 0.10726878 0.13999305 -0.07537574
v 0.11146332 0.14982053 -0.03303806
v 0.03546115 0.1767397 0.01221273
v 0.03358979 0.15936288 -0.07673107
v -0.00292728 0.1767371 -0.03415178
v 0.03484272 0.17223385 -0.03339386
v -0.00276392 0.19040294 -0.03686671
v 0.03676933 0.17187215 -0.0819866
v 0.03881102 0.19029651 0.01224445
v 0.03813238 0.18552243 -0.0360654
v -0.03930131 0.15955592 0.1009598
v -0.0027086 0.17673958 0.0583642
v -0.04116471 0.17693622 0.01194872
v -0.07659117 0.15986593 0.05611417
v -0.04048988 0.17243015 0.0576158
v -0.08248427 0.17218194 0.05876555
v -0.04418623 0.19051052 0.01201465
v -0.00256244 0.19040493 0.06117557
v -0.04222458 0.17208099 0.10631018
v -0.04348215 0.18573559 0.06038221
v -0.07707222 0.15986037 -0.03275688
v -0.03997813 0.15954807 -0.07716328
v -0.04083458 0.17242619 -0.03374381
v -0.042842 0.17207402 -0.08238597
v -0.08294186 0.17217673 -0.03525124
v -0.04379791 0.18573203 -0.03637966
v 0.03383686 0.15936569 0.10107541
v 0.03496182 0.17223511 0.05779852
v 0.03701058 0.17187421 0.10640261
v 0.03825994 0.18552337 0.06053592
v 0.0653807 0.12958523 -0.11091087
v 0.03134882 0.11114516 -0.14890393
v -0.00337946 0.14217551 -0.11760693
v 0.03219813 0.13877207 -0.11550321
v -0.00321796 0.15371099 -0.12537089
v 0.0343827 0.12069896 -0.15854184
v 0.07112667 0.1400865 -0.11812761
v 0.03527844 0.15001671 -0.12310752
v 0.09103652 0.09483055 -0.13279776
v 0.09390886 0.1154611 -0.10502676
v 0.09874118 0.10305324 -0.14114573
v 0.10182929 0.12487953 -0.11174326
v 0.09858041 0.03111045 -0.16718851
v 0.06505361 0.07252474 -0.16697962
v 0.09369885 0.06650606 -0.15307249
v 0.07077872 0.07961629 -0.17754352
v 0.10678833 0.03600601 -0.17745028
v 0.10159167 0.0730875 -0.16258668
v 0.03271136 0.03731709 -0.19650496
v -0.00398661 0.07918598 -0.17967279
v 0.03173095 0.07716601 -0.17612198
v -0.00382008 0.08686129 -0.19122056
v 0.0358481 0.04280648 -0.20893082
v 0.03480383 0.08466176 -0.18739824
v -0.03879579 0.1113183 -0.14949145
v -0.04138036 0.0374973 -0.19725333
v -0.07336565 0.07286379 -0.16826559
v -0.03979672 0.07734108 -0.17679101
v -0.07881981 0.07998531 -0.17881447
v -0.04421178 0.04300269 -0.20968006
v -0.04151615 0.12088764 -0.1591131
v -0.04255339 0.08485253 -0.18806068
v -0.00455153 -0.00720691 -0.21411906
v -0.04425799 -0.04334355 -0.21878115
v -0.07933395 -0.00892647 -0.19823068
v -0.04284495 -0.00773376 -0.21021784
v -0.04647389 -0.04101689 -0.22867666
v -0.08481795 -0.05417981 -0.2127048
v -0.00472787 -0.05444562 -0.23047822
v -0.04572159 -0.05432395 -0.22606508
v -0.08508747 -0.00512486 -0.21030575
v -0.00441587 -0.00316361 -0.2274563
v -0.04574836 -0.00376427 -0.22321957
v 0.06990791 -0.00928861 -0.19666515
v 0.03475207 -0.0435348 -0.21792344
v 0.03365454 -0.0079191 -0.20940308
v 0.0371203 -0.04122015 -0.22781506
v 0.0750062 -0.05456778 -0.21102528
v 0.03617085 -0.05452249 -0.22519117
v 0.0758783 -0.00551794 -0.20873485
v 0.03681488 -0.00396568 -0.22240021
v 0.13034804 -0.01145491 -0.14944604
v 0.10585264 -0.04423272 -0.18300122
v 0.1023644 -0.01073349 -0.17648524
v 0.11217256 -0.04213409 -0.19107818
v 0.13999131 -0.05461921 -0.15935182
v 0.10983385 -0.05459436 -0.18878439
v 0.14066977 -0.00805185 -0.15828101
v 0.11073592 -0.00716758 -0.1871241
v 0.17028732 -0.00915277 -0.07727814
v 0.15893715 -0.04422062 -0.12001238
v 0.15319576 -0.01065391 -0.11612077
v 0.16784979 -0.04225847 -0.12514677
v 0.18355391 -0.05470272 -0.08229591
v 0.16482977 -0.0546591 -0.12360095
v 0.18307507 -0.0057939 -0.08186147
v 0.16497497 -0.00730785 -0.1229095
v 0.18837159 -0.04355951 -0.03499899
v 0.18475382 -0.00711499 0.01226809
v 0.18099401 -0.0077739 -0.03369268
v 0.19849994 -0.04158446 -0.03674152
v 0.1995259 -0.05475506 0.01226799
v 0.19535383 -0.05473892 -0.03621124
v 0.1983298 -0.00367775 0.01226886
v 0.19437554 -0.00436848 -0.03600141
v 0.17027494 0.03760329 0.05681936
v 0.17029245 -0.0091526 0.1018104
v 0.18837109 -0.04355946 0.059535
v 0.18099403 -0.00777391 0.05822886
v 0.19849973 -0.04158403 0.06127762
v 0.18355619 -0.0547022 0.10682956
v 0.19535331 -0.05473868 0.06074724
v 0.18308121 -0.00579308 0.10639792
v 0.18323621 0.04242909 0.05911445
v 0.19437944 -0.00436798 0.06053897
v 0.14560124 0.07283103 0.09543874
v 0.15326829 0.07755748 0.05529717
v 0.15715475 0.07939351 0.09991039
v 0.16531997 0.08432684 0.05758779
v 0.14554946 0.03124397 0.13590575
v 0.1338469 0.06667339 0.12980724
v 0.15698552 0.03587652 0.14257766
v 0.14460127 0.07297629 0.13625536
v 0.15896669 -0.04421972 0.14452587
v 0.15322729 -0.01065305 0.14063353
v 0.16786921 -0.04225737 0.14966812
v 0.16485457 -0.05465806 0.14811798
v 0.16499416 -0.00730694 0.14743499
v 0.03189573 0.11115186 0.17304408
v -0.00286452 0.07919947 0.20338538
v 0.03356161 0.03732716 0.22042331
v 0.0324402 0.0771745 0.20014354
v 0.03656154 0.0428153 0.23294977
v -0.0028331 0.0868731 0.21504329
v 0.03484204 0.12070433 0.18277135
v 0.035391 0.08466893 0.21151782
v -0.00308972 -0.00718937 0.23758849
v 0.03573265 -0.04352254 0.24174712
v 0.03460073 -0.00790761 0.23325175
v 0.03802802 -0.04120868 0.25169163
v -0.00321242 -0.05442702 0.25391131
v 0.0371337 -0.05451032 0.24902775
v -0.00307635 -0.00314718 0.25101864
v 0.03763977 -0.00395535 0.24633675
v -0.03953664 0.03751928 0.22039654
v -0.07677633 -0.00889596 0.22070311
v -0.04213052 -0.04331791 0.24172221
v -0.04081317 -0.00770941 0.2332254
v -0.04440601 -0.04099194 0.25167274
v -0.08209984 -0.05414731 0.23507288
v -0.0435858 -0.05429815 0.24900567
v -0.08259139 -0.00509525 0.2328712
v -0.04248886 0.04302319 0.2329349
v -0.04381791 -0.0037411 0.24632047
v -0.16678269 -0.04338317 0.14347289
v -0.13743983 -0.01075923 0.17332917
v -0.15271903 0.03201182 0.13503171
v -0.17852945 -0.00826372 0.10031622
v -0.16078312 -0.00984616 0.13964055
v -0.17562297 -0.04137327 0.14865273
v -0.14733061 -0.05387253 0.18322019
v -0.19220151 -0.05374494 0.10521394
v -0.172733 -0.05379043 0.14705966
v -0.19121038 -0.00483623 0.10496251
v -0.16400578 0.03670575 0.14177927
v -0.14762261 -0.00730144 0.18225225
v -0.17243893 -0.00643701 0.14650577
v -0.1051401 0.03164564 0.19129602
v -0.11288433 -0.04365777 0.2070536
v -0.1092056 -0.01017746 0.20054806
v -0.11911345 -0.04152616 0.21518883
v -0.11689309 -0.05399838 0.21285653
v -0.1131721 0.03658378 0.20166666
v -0.1174262 -0.00656803 0.21128301
v -0.07133719 0.07288777 0.19112962
v -0.0374992 0.11133378 0.17300269
v -0.03820817 0.07736004 0.20011377
v -0.04032993 0.12090139 0.18274444
v -0.07687428 0.08000802 0.20180235
v -0.04108668 0.08486978 0.2115008
v -0.09714781 0.09532307 0.15698722
v -0.07126348 0.12994429 0.13513205
v -0.10512373 0.13028125 0.0946768
v -0.12337229 0.09559078 0.12581533
v -0.09997517 0.11596618 0.12916855
v -0.13277602 0.10365492 0.13227433
v -0.11320211 0.14056524 0.09947958
v -0.07679936 0.14047518 0.14244447
v -0.10466832 0.10358603 0.16543409
v -0.107697 0.12542626 0.13597893
v -0.12335545 0.06381923 0.15702879
v -0.09999239 0.06701439 0.17723807
v -0.13274902 0.07010021 0.16526304
v -0.10770454 0.07363686 0.18685823
v -0.1527923 0.07359597 0.09438464
v -0.14060401 0.0673817 0.12909445
v -0.16413392 0.08021968 0.09893076
v -0.15116883 0.07374218 0.13561897
v -0.1642359 0.08037093 0.01048572
v -0.17863223 0.03848718 0.05505638
v -0.13757076 0.11224012 0.05341178
v -0.16094827 0.07835662 0.05386799
v -0.14791727 0.12116606 0.05581225
v -0.19144685 0.04338172 0.05741241
v -0.17625068 0.08729581 0.01055167
v -0.17278234 0.08518999 0.05622629
v -0.11111839 0.14301954 0.01133514
v -0.10919716 0.13960628 0.05443992
v -0.11958926 0.15400911 0.01141927
v -0.11755166 0.15041112 0.05695454
v -0.00271586 0.14218355 0.14162398
v -0.03808323 0.13896147 0.13968728
v -0.00263251 0.15371742 0.14949052
v -0.04094144 0.15022069 0.14738927
v 0.03258863 0.13877676 0.1397558
v 0.03562732 0.15002031 0.1474401
v -0.19433221 -0.00616579 0.0097912
v -0.17962901 0.03847523 -0.03476969
v -0.18055957 -0.00828767 -0.08024314
v -0.19886569 -0.04259917 -0.03800119
v -0.19103585 -0.00684999 -0.03650355
v -0.20896619 -0.04057056 -0.03973127
v -0.2096661 -0.05373094 0.00956581
v -0.19440969 -0.05377103 -0.08551359
v -0.20598824 -0.05374258 -0.03927264
v -0.19329214 -0.0048609 -0.08480834
v -0.19247463 0.04336979 -0.03702083
v -0.20783157 -0.00265657 0.00982709
v -0.2043575 -0.00337348 -0.03878696
v -0.19770193 -0.04258554 0.05737819
v -0.18993967 -0.00683701 0.05621418
v -0.20778282 -0.04055644 0.05914773
v -0.2047939 -0.05372845 0.0585536
v -0.20323044 -0.00336014 0.05857191
v -0.13831841 0.11223136 -0.03153311
v -0.15442463 0.07357665 -0.07314109
v -0.16182516 0.0783462 -0.03282547
v -0.16580168 0.08020062 -0.07755293
v -0.14867311 0.12115765 -0.03377806
v -0.1736813 0.08517979 -0.0350512
v -0.12526714 0.09556869 -0.10370327
v -0.12575703 0.0637912 -0.13510713
v -0.15515776 0.03198313 -0.11401496
v -0.14276923 0.0673563 -0.10755586
v -0.16649597 0.0366764 -0.120646
v -0.13516074 0.07007189 -0.14320682
v -0.13467621 0.10363313 -0.11001432
v -0.15336754 0.07371664 -0.1139447
v -0.09914653 0.0952998 -0.13440248
v -0.10629454 0.13026763 -0.07198531
v -0.07259108 0.12992881 -0.11191408
v -0.10160008 0.11594732 -0.10648495
v -0.07806053 0.14046064 -0.11908501
v -0.11435359 0.14055222 -0.07662893
v -0.10663076 0.10356321 -0.14270892
v -0.10929113 0.12540797 -0.11314516
v -0.1098134 0.13959914 -0.03176241
v -0.11815925 0.15040431 -0.03411125
v -0.16961723 -0.04341628 -0.12310235
v -0.14040835 -0.01079389 -0.15209852
v -0.16345886 -0.00987748 -0.11903435
v -0.17849211 -0.04140741 -0.12823239
v -0.15053458 -0.0539103 -0.16220736
v -0.17563501 -0.05382463 -0.12674896
v -0.15062193 -0.00733714 -0.16092796
v -0.17516821 -0.00646945 -0.1258105
v -0.10778875 0.03161444 -0.16919326
v -0.10232837 0.06698701 -0.15486279
v -0.11579924 0.03655277 -0.17944613
v -0.11000823 0.07360985 -0.16435244
v -0.0390762 0.1389497 -0.11601316
v -0.0418459 0.15021036 -0.12359172
v -0.11594875 -0.04369392 -0.18531385
v -0.11211164 -0.01021171 -0.17867797
v -0.1221734 -0.04156257 -0.19339428
v -0.12000928 -0.05403531 -0.19113937
v -0.12032112 -0.00660239 -0.18931816
g Group65070
f 98 114 113 97
g Group35829
f 1 2 18 17
g Group65070
f 97 113 115 99
g Group35829
f 2 3 19 18
g Group65070
f 99 115 116 100
g Group35829
f 3 4 20 19
g Group65070
f 100 116 117 101
g Group35829
f 4 5 21 20
g Group65070
f 101 117 118 102
g Group35829
f 5 6 22 21
g Group65070
f 102 118 119 103
g Group35829
f 6 7 23 22
g Group65070
f 103 119 120 104
g Group35829
f 7 8 24 23
g Group65070
f 104 120 121 105
g Group35829
f 8 9 25 24
g Group65070
f 105 121 122 106
g Group35829
f 9 10 26 25
g Group65070
f 106 122 123 107
g Group35829
f 10 11 27 26
g Group65070
f 107 123 124 108
g Group35829
f 11 12 28 27
g Group65070
f 108 124 125 109
g Group35829
f 12 13 29 28
g Group65070
f 109 125 126 110
g Group35829
f 13 14 30 29
g Group65070
f 110 126 127 111
g Group35829
f 14 15 31 30
g Group65070
f 111 127 128 112
g Group35829
f 15 16 32 31
g Group65070
f 112 128 114 98
g Group35829
f 16 1 17 32
g Group65070
f 114 130 129 113
g Group35829
f 17 18 34 33
g Group65070
f 113 129 131 115
g Group35829
f 18 19 35 34
g Group65070
f 115 131 132 116
g Group35829
f 19 20 36 35
g Group65070
f 116 132 133 117
g Group35829
f 20 21 37 36
g Group65070
f 117 133 134 118
g Group35829
f 21 22 38 37
g Group65070
f 118 134 135 119
g Group35829
f 22 23 39 38
g Group65070
f 119 135 136 120
g Group35829
f 23 24 40 39
g Group65070
f 120 136 137 121
g Group35829
f 24 25 41 40
g Group65070
f 121 137 138 122
g Group35829
f 25 26 42 41
g Group65070
f 122 138 139 123
g Group35829
f 26 27 43 42
g Group65070
f 123 139 140 124
g Group35829
f 27 28 44 43
g Group65070
f 124 140 141 125
g Group35829
f 28 29 45 44
g Group65070
f 125 141 142 126
g Group35829
f 29 30 46 45
g Group65070
f 126 142 143 127
g Group35829
f 30 31 47 46
g Group65070
f 127 143 144 128
g Group35829
f 31 32 48 47
g Group65070
f 128 144 130 114
g Group35829
f 32 17 33 48
g Group65070
f 130 146 145 129
g Group35829
f 33 34 50 49
g Group65070
f 129 145 147 131
g Group35829
f 34 35 51 50
g Group65070
f 131 147 148 132
g Group35829
f 35 36 52 51
g Group65070
f 132 148 149 133
g Group35829
f 36 37 53 52
g Group65070
f 133 149 150 134
g Group35829
f 37 38 54 53
g Group65070
f 134 150 151 135
g Group35829
f 38 39 55 54
g Group65070
f 135 151 152 136
g Group35829
f 39 40 56 55
g Group65070
f 136 152 153 137
g Group35829
f 40 41 57 56
g Group65070
f 137 153 154 138
g Group35829
f 41 42 58 57
g Group65070
f 138 154 155 139
g Group35829
f 42 43 59 58
g Group65070
f 139 155 156 140
g Group35829
f 43 44 60 59
g Group65070
f 140 156 157 141
g Group35829
f 44 45 61 60
g Group65070
f 141 157 158 142
g Group35829
f 45 46 62 61
g Group65070
f 142 158 159 143
g Group35829
f 46 47 63 62
g Group65070
f 143 159 160 144
g Group35829
f 47 48 64 63
g Group65070
f 144 160 146 130
g Group35829
f 48 33 49 64
g Group65070
f 146 162 161 145
g Group35829
f 49 50 66 65
g Group65070
f 145 161 163 147
g Group35829
f 50 51 67 66
g Group65070
f 147 163 164 148
g Group35829
f 51 52 68 67
g Group65070
f 148 164 165 149
g Group35829
f 52 53 69 68
g Group65070
f 149 165 166 150
g Group35829
f 53 54 70 69
g Group65070
f 150 166 167 151
g Group35829
f 54 55 71 70
g Group65070
f 151 167 168 152
g Group35829
f 55 56 72 71
g Group65070
f 152 168 169 153
g Group35829
f 56 57 73 72
g Group65070
f 153 169 170 154
g Group35829
f 57 58 74 73
g Group65070
f 154 170 171 155
g Group35829
f 58 59 75 74
g Group65070
f 155 171 172 156
g Group35829
f 59 60 76 75
g Group65070
f 156 172 173 157
g Group35829
f 60 61 77 76
g Group65070
f 157 173 174 158
g Group35829
f 61 62 78 77
g Group65070
f 158 174 175 159
g Group35829
f 62 63 79 78
g Group65070
f 159 175 176 160
g Group35829
f 63 64 80 79
g Group65070
f 160 176 162 146
g Group35829
f 64 49 65 80
g Group65070
f 162 178 177 161
g Group65073
f 81 82 177 178
g Group35829
f 65 66 82 81
g Group65070
f 161 177 179 163
g Group65073
f 82 83 179 177
g Group35829
f 66 67 83 82
g Group65070
f 163 179 180 164
g Group65073
f 83 84 180 179
g Group35829
f 67 68 84 83
g Group65070
f 164 180 181 165
g Group65073
f 84 85 181 180
g Group35829
f 68 69 85 84
g Group65070
f 165 181 182 166
g Group65073
f 85 86 182 181
g Group35829
f 69 70 86 85
g Group65070
f 166 182 183 167
g Group65073
f 86 87 183 182
g Group35829
f 70 71 87 86
g Group65070
f 167 183 184 168
g Group65073
f 87 88 184 183
g Group35829
f 71 72 88 87
g Group65070
f 168 184 185 169
g Group65073
f 88 89 185 184
g Group35829
f 72 73 89 88
g Group65070
f 169 185 186 170
g Group65073
f 89 90 186 185
g Group35829
f 73 74 90 89
g Group65070
f 170 186 187 171
g Group65073
f 90 91 187 186
g Group35829
f 74 75 91 90
g Group65070
f 171 187 188 172
g Group65073
f 91 92 188 187
g Group35829
f 75 76 92 91
g Group65070
f 172 188 189 173
g Group65073
f 92 93 189 188
g Group35829
f 76 77 93 92
g Group65070
f 173 189 190 174
g Group65073
f 93 94 190 189
g Group35829
f 77 78 94 93
g Group65070
f 174 190 191 175
g Group65073
f 94 95 191 190
g Group35829
f 78 79 95 94
g Group65070
f 175 191 192 176
g Group65073
f 95 96 192 191
g Group35829
f 79 80 96 95
g Group65070
f 176 192 178 162
g Group65073
f 96 81 178 192
g Group35829
f 80 65 81 96
g Group65073
f 9 8 104 105
f 10 9 105 106
f 8 7 103 104
f 11 10 106 107
f 7 6 102 103
f 12 11 107 108
f 6 5 101 102
f 13 12 108 109
f 5 4 100 101
f 14 13 109 110
f 4 3 99 100
f 15 14 110 111
f 3 2 97 99
f 16 15 111 112
f 2 1 98 97
f 1 16 112 98
g Group47332
f 253 307 311 310
f 307 252 308 311
f 311 308 251 309
f 310 311 309 250
f 194 312 315 314
f 312 193 313 315
f 315 313 253 310
f 314 315 310 250
f 193 312 319 318
f 312 194 316 319
f 319 316 196 317
f 318 319 317 195
f 252 320 323 308
f 320 255 321 323
f 323 321 254 322
f 308 323 322 251
f 195 317 327 326
f 317 196 324 327
f 327 324 198 325
f 326 327 325 197
f 255 328 331 321
f 328 257 329 331
f 331 329 256 330
f 321 331 330 254
f 197 325 335 334
f 325 198 332 335
f 335 332 200 333
f 334 335 333 199
f 257 336 339 329
f 336 259 337 339
f 339 337 258 338
f 329 339 338 256
f 199 333 343 342
f 333 200 340 343
f 343 340 202 341
f 342 343 341 201
f 262 344 348 347
f 344 261 345 348
f 348 345 259 346
f 347 348 346 260
f 203 349 353 352
f 349 205 350 353
f 353 350 201 351
f 352 353 351 204
f 261 344 357 356
f 344 262 354 357
f 357 354 264 355
f 356 357 355 263
f 204 358 361 352
f 358 207 359 361
f 361 359 206 360
f 352 361 360 203
f 258 337 364 363
f 337 259 345 364
f 364 345 261 362
f 363 364 362 265
f 202 365 367 341
f 365 208 366 367
f 367 366 204 351
f 341 367 351 201
f 267 368 371 370
f 368 258 363 371
f 371 363 265 369
f 370 371 369 266
f 209 372 375 374
f 372 210 373 375
f 375 373 208 365
f 374 375 365 202
f 270 376 380 379
f 376 269 377 380
f 380 377 267 378
f 379 380 378 268
f 211 381 385 384
f 381 213 382 385
f 385 382 209 383
f 384 385 383 212
f 271 386 388 387
f 386 268 378 388
f 388 378 267 370
f 387 388 370 266
f 214 389 391 390
f 389 210 372 391
f 391 372 209 382
f 390 391 382 213
f 256 338 393 392
f 338 258 368 393
f 393 368 267 377
f 392 393 377 269
f 200 394 395 340
f 394 212 383 395
f 395 383 209 374
f 340 395 374 202
f 265 396 399 369
f 396 273 397 399
f 399 397 272 398
f 369 399 398 266
f 208 373 403 402
f 373 210 400 403
f 403 400 216 401
f 402 403 401 215
f 263 404 405 356
f 404 273 396 405
f 405 396 265 362
f 356 405 362 261
f 207 358 407 406
f 358 204 366 407
f 407 366 208 402
f 406 407 402 215
f 263 355 410 404
f 355 264 408 410
f 410 408 274 409
f 404 410 409 273
f 207 406 413 359
f 406 215 411 413
f 413 411 217 412
f 359 413 412 206
f 274 414 416 409
f 414 275 415 416
f 416 415 272 397
f 409 416 397 273
f 217 411 419 418
f 411 215 401 419
f 419 401 216 417
f 418 419 417 218
f 277 420 423 422
f 420 272 415 423
f 423 415 275 421
f 422 423 421 276
f 219 424 427 426
f 424 220 425 427
f 427 425 218 417
f 426 427 417 216
f 276 421 431 430
f 421 275 428 431
f 431 428 279 429
f 430 431 429 278
f 221 432 435 434
f 432 222 433 435
f 435 433 278 429
f 434 435 429 279
f 220 436 438 425
f 436 222 432 438
f 438 432 221 437
f 425 438 437 218
f 274 439 441 414
f 439 280 440 441
f 441 440 279 428
f 414 441 428 275
f 223 442 444 443
f 442 221 434 444
f 444 434 279 440
f 443 444 440 280
f 217 418 446 445
f 418 218 437 446
f 446 437 221 442
f 445 446 442 223
f 264 447 449 408
f 447 281 448 449
f 449 448 280 439
f 408 449 439 274
f 224 450 452 451
f 450 223 443 452
f 452 443 280 448
f 451 452 448 281
f 206 412 454 453
f 412 217 445 454
f 454 445 223 450
f 453 454 450 224
f 262 455 457 354
f 455 282 456 457
f 457 456 281 447
f 354 457 447 264
f 225 458 460 459
f 458 224 451 460
f 460 451 281 456
f 459 460 456 282
f 203 360 462 461
f 360 206 453 462
f 462 453 224 458
f 461 462 458 225
f 283 463 465 464
f 463 282 455 465
f 465 455 262 347
f 464 465 347 260
f 226 466 468 467
f 466 225 459 468
f 468 459 282 463
f 467 468 463 283
f 226 469 470 466
f 469 205 349 470
f 470 349 203 461
f 466 470 461 225
f 283 464 474 473
f 464 260 471 474
f 474 471 285 472
f 473 474 472 284
f 228 475 477 476
f 475 226 467 477
f 477 467 283 473
f 476 477 473 284
f 226 475 480 469
f 475 228 478 480
f 480 478 227 479
f 469 480 479 205
f 285 471 482 481
f 471 260 346 482
f 482 346 259 336
f 481 482 336 257
f 227 483 484 479
f 483 199 342 484
f 484 342 201 350
f 479 484 350 205
f 255 320 486 328
f 320 252 485 486
f 486 485 285 481
f 328 486 481 257
f 197 334 488 326
f 334 199 483 488
f 488 483 227 487
f 326 488 487 195
f 252 307 490 485
f 307 253 489 490
f 490 489 284 472
f 485 490 472 285
f 193 491 492 313
f 491 228 476 492
f 492 476 284 489
f 313 492 489 253
f 195 487 493 318
f 487 227 478 493
f 493 478 228 491
f 318 493 491 193
f 251 322 497 496
f 322 254 494 497
f 497 494 287 495
f 496 497 495 286
f 196 498 501 324
f 498 230 499 501
f 501 499 229 500
f 324 501 500 198
f 251 496 504 309
f 496 286 502 504
f 504 502 288 503
f 309 504 503 250
f 231 505 507 506
f 505 194 314 507
f 507 314 250 503
f 506 507 503 288
f 196 316 509 498
f 316 194 505 509
f 509 505 231 508
f 498 509 508 230
f 288 502 513 512
f 502 286 510 513
f 513 510 290 511
f 512 513 511 289
f 233 514 516 515
f 514 231 506 516
f 516 506 288 512
f 515 516 512 289
f 231 514 519 508
f 514 233 517 519
f 519 517 232 518
f 508 519 518 230
f 294 520 524 523
f 520 293 521 524
f 524 521 292 522
f 523 524 522 291
f 235 525 528 527
f 525 234 526 528
f 528 526 293 520
f 527 528 520 294
f 235 529 532 525
f 529 237 530 532
f 532 530 236 531
f 525 532 531 234
f 289 511 535 534
f 511 290 533 535
f 535 533 292 521
f 534 535 521 293
f 234 536 537 526
f 536 233 515 537
f 537 515 289 534
f 526 537 534 293
f 233 536 539 517
f 536 234 531 539
f 539 531 236 538
f 517 539 538 232
f 295 540 542 541
f 540 290 510 542
f 542 510 286 495
f 541 542 495 287
f 238 543 545 544
f 543 229 499 545
f 545 499 230 518
f 544 545 518 232
f 297 546 550 549
f 546 295 547 550
f 550 547 270 548
f 549 550 548 296
f 239 551 555 554
f 551 240 552 555
f 555 552 211 553
f 554 555 553 238
f 295 546 557 540
f 546 297 556 557
f 557 556 292 533
f 540 557 533 290
f 238 544 559 554
f 544 232 538 559
f 559 538 236 558
f 554 559 558 239
f 296 560 561 549
f 560 291 522 561
f 561 522 292 556
f 549 561 556 297
f 240 551 563 562
f 551 239 558 563
f 563 558 236 530
f 562 563 530 237
f 299 564 567 566
f 564 298 565 567
f 567 565 291 560
f 566 567 560 296
f 241 568 571 570
f 568 240 562 571
f 571 562 237 569
f 570 571 569 242
f 296 548 573 566
f 548 270 379 573
f 573 379 268 572
f 566 573 572 299
f 240 568 575 552
f 568 241 574 575
f 575 574 213 381
f 552 575 381 211
f 287 576 577 541
f 576 269 376 577
f 577 376 270 547
f 541 577 547 295
f 229 543 579 578
f 543 238 553 579
f 579 553 211 384
f 578 579 384 212
f 256 392 580 330
f 392 269 576 580
f 580 576 287 494
f 330 580 494 254
f 200 332 581 394
f 332 198 500 581
f 581 500 229 578
f 394 581 578 212
f 302 582 586 585
f 582 298 583 586
f 586 583 301 584
f 585 586 584 300
f 245 587 590 589
f 587 244 588 590
f 590 588 302 585
f 589 590 585 300
f 244 587 594 593
f 587 245 591 594
f 594 591 246 592
f 593 594 592 242
f 302 595 596 582
f 595 294 523 596
f 596 523 291 565
f 582 596 565 298
f 244 597 598 588
f 597 235 527 598
f 598 527 294 595
f 588 598 595 302
f 244 593 599 597
f 593 242 569 599
f 599 569 237 529
f 597 599 529 235
f 299 600 602 564
f 600 303 601 602
f 602 601 301 583
f 564 602 583 298
f 241 570 605 604
f 570 242 592 605
f 605 592 246 603
f 604 605 603 247
f 301 601 609 608
f 601 303 606 609
f 609 606 305 607
f 608 609 607 304
f 246 610 613 603
f 610 249 611 613
f 613 611 248 612
f 603 613 612 247
f 277 614 617 616
f 614 305 606 617
f 617 606 303 615
f 616 617 615 271
f 219 618 621 620
f 618 214 619 621
f 621 619 247 612
f 620 621 612 248
f 268 386 622 572
f 386 271 615 622
f 622 615 303 600
f 572 622 600 299
f 213 574 623 390
f 574 241 604 623
f 623 604 247 619
f 390 623 619 214
f 306 624 626 625
f 624 300 584 626
f 626 584 301 608
f 625 626 608 304
f 243 627 629 628
f 627 245 589 629
f 629 589 300 624
f 628 629 624 306
f 243 630 631 627
f 630 249 610 631
f 631 610 246 591
f 627 631 591 245
f 305 614 633 607
f 614 277 422 633
f 633 422 276 632
f 607 633 632 304
f 248 611 635 620
f 611 249 634 635
f 635 634 220 424
f 620 635 424 219
f 271 387 636 616
f 387 266 398 636
f 636 398 272 420
f 616 636 420 277
f 214 618 637 389
f 618 219 426 637
f 637 426 216 400
f 389 637 400 210
f 276 430 639 632
f 430 278 638 639
f 639 638 306 625
f 632 639 625 304
f 222 640 641 433
f 640 243 628 641
f 641 628 306 638
f 433 641 638 278
f 220 634 642 436
f 634 249 630 642
f 642 630 243 640
f 436 642 640 222

 