# File exported by ZBrush version 2021
# www.zbrush.com
#Vertex Count 1410
#Face Count 1406
#Auto scale x=1.000000 y=1.000000 z=1.000000
#Auto offset x=0.000000 y=0.000000 z=0.000000
v 0.20152099 -0.016154 -0.009101
v 0.193826 -0.019072 -0.05386599
v 0.178571 -0.021841 -0.096028
v 0.15639799 -0.024342 -0.133993
v 0.128215 -0.026457 -0.16629
v 0.09513799 -0.02807099 -0.19163599
v 0.058444 -0.029089 -0.209002
v 0.019502 -0.029441 -0.217656
v -0.020253 -0.02910899 -0.21722599
v -0.059369 -0.028129 -0.207716
v -0.09639199 -0.02659199 -0.18950399
v -0.12991699 -0.02461599 -0.16332399
v -0.158625 -0.022333 -0.130242
v -0.181354 -0.019865 -0.09156599
v -0.19715599 -0.017307 -0.048813
v -0.205365 -0.014745 -0.003623
v -0.205629 -0.012238 0.042291
v -0.197941 -0.009858 0.08720199
v -0.182637 -0.00767 0.129424
v -0.160364 -0.005738 0.167346
v -0.13204899 -0.004111 0.199512
v -0.09882699 -0.002831 0.224656
v -0.061995 -0.001922 0.241778
v -0.022944 -0.001399 0.25018298
v 0.01687699 -0.00129 0.24953599
v 0.056001 -0.001624 0.239873
v 0.09297899 -0.002435 0.221596
v 0.12640599 -0.003743 0.195455
v 0.154982 -0.005541 0.16249999
v 0.17756 -0.007783 0.124034
v 0.193222 -0.010378 0.081532
v 0.20132 -0.013213 0.036595
v 0.34405198 -0.102149 0.05940999
v 0.34399101 -0.107804 -0.018846
v 0.35164499 -0.088558 -0.02055699
v 0.351673 -0.082831 0.058472
v 0.33053699 -0.09625499 0.13612799
v 0.337839 -0.07680899 0.135931
v 0.30415999 -0.090455 0.20844699
v 0.31086599 -0.07084099 0.208936
v 0.26616001 -0.08511699 0.27377501
v 0.27202901 -0.06531199 0.27487099
v 0.218149 -0.08055999 0.32980001
v 0.222965 -0.060564 0.33140799
v 0.161944 -0.077023 0.374473
v 0.16552999 -0.056859 0.37647798
v 0.09954199 -0.074676 0.40594199
v 0.10176199 -0.054389 0.40822699
v 0.03315199 -0.073585 0.42270699
v 0.033916 -0.053234 0.42514801
v -0.034821 -0.07375899 0.42378801
v -0.035551 -0.053413 0.42624801
v -0.101797 -0.075188 0.40893998
v -0.104 -0.054917 0.41128799
v -0.16516099 -0.07780899 0.37876999
v -0.168759 -0.057672 0.38087499
v -0.22240899 -0.081462 0.33463901
v -0.22726699 -0.061503 0.336373
v -0.271241 -0.085928 0.278463
v -0.277177 -0.066169 0.27969801
v -0.30962398 -0.090928 0.212567
v -0.31641599 -0.071364 0.21319499
v -0.33589598 -0.09615299 0.13958999
v -0.34328299 -0.076755 0.13952399
v -0.34890699 -0.10130599 0.06242299
v -0.35660499 -0.082029 0.061595
v -0.34816798 -0.106149 -0.015913
v -0.35588198 -0.086934 -0.017538
v -0.333907 -0.110574 -0.092448
v -0.34133601 -0.091357 -0.09487099
v -0.30695799 -0.114568 -0.164434
v -0.31381899 -0.09530399 -0.16762499
v -0.26862201 -0.11815399 -0.229404
v -0.27464899 -0.098801 -0.23329399
v -0.22047899 -0.12132699 -0.28513199
v -0.225435 -0.10187 -0.289626
v -0.16428799 -0.124031 -0.32957398
v -0.167977 -0.10447199 -0.334542
v -0.10201399 -0.126154 -0.36083701
v -0.104289 -0.106512 -0.366135
v -0.035881 -0.12755499 -0.377361
v -0.036641 -0.10786899 -0.382822
v 0.031661 -0.12811499 -0.378158
v 0.032448 -0.108427 -0.38361999
v 0.09802 -0.127745 -0.36307901
v 0.10031999 -0.108103 -0.36837399
v 0.16064 -0.126431 -0.33285999
v 0.16435299 -0.10687299 -0.33783
v 0.21717 -0.12423799 -0.288957
v 0.22214199 -0.10478399 -0.29345598
v 0.2655 -0.12123999 -0.233271
v 0.27153098 -0.101887 -0.237183
v 0.30375701 -0.117467 -0.16801199
v 0.31060499 -0.098194 -0.17124199
v 0.33033299 -0.11296 -0.09563399
v 0.337729 -0.09372799 -0.09811999
v 0.233695 -0.025326 -0.011958
v 0.23351499 -0.021794 0.040805
v 0.22418099 -0.01838699 0.092641
v 0.206109 -0.015263 0.14161799
v 0.18007099 -0.012566 0.185918
v 0.147126 -0.0104 0.22387999
v 0.108562 -0.008822 0.25404098
v 0.065833 -0.007844 0.27517798
v 0.020529 -0.007442 0.286381
v -0.02567799 -0.007574 0.287126
v -0.07105399 -0.008211 0.27733999
v -0.113879 -0.00933 0.25740501
v -0.15250599 -0.010907 0.228164
v -0.185421 -0.01291 0.190805
v -0.211297 -0.015285 0.146823
v -0.22905699 -0.017963 0.097932
v -0.23794999 -0.020857 0.046016
v -0.237606 -0.023884 -0.006948
v -0.228079 -0.02695 -0.058963
v -0.20981399 -0.029994 -0.108087
v -0.183604 -0.032919 -0.152493
v -0.150525 -0.03562099 -0.19050599
v -0.111863 -0.03795899 -0.22065599
v -0.06908699 -0.03977999 -0.24169799
v -0.023791 -0.04093699 -0.25272399
v 0.022329 -0.04132 -0.253228
v 0.06753999 -0.040879 -0.24317699
v 0.11013799 -0.03963699 -0.22302399
v 0.14851999 -0.037687 -0.193653
v 0.181224 -0.035146 -0.15628099
v 0.206971 -0.032147 -0.11239399
v 0.22471499 -0.028827 -0.06367299
v 0.20384299 -0.057208 0.03991499
v 0.20394 -0.060185 -0.006239
v 0.19573399 -0.054318 0.085316
v 0.17995199 -0.051651 0.12827099
v 0.15715299 -0.049332 0.16716499
v 0.128268 -0.047463 0.200505
v 0.094451 -0.04609299 0.22698
v 0.05700499 -0.045237 0.24550199
v 0.01734999 -0.044876 0.255295
v -0.023039 -0.04497899 0.255923
v -0.062656 -0.045518 0.247335
v -0.10001599 -0.04646899 0.229892
v -0.13369399 -0.04780799 0.204317
v -0.16236999 -0.04950499 0.171661
v -0.18489 -0.05150799 0.13322199
v -0.20032499 -0.053757 0.09049899
v -0.20802299 -0.05618 0.04512599
v -0.207663 -0.05869799 -0.001182
v -0.199285 -0.061257 -0.046689
v -0.183263 -0.0639 -0.09143099
v -0.16029 -0.06638 -0.130933
v -0.131319 -0.068672 -0.16473099
v -0.09750799 -0.07065899 -0.191502
v -0.06015799 -0.072212 -0.21016
v -0.020677 -0.073209 -0.21992799
v 0.019482 -0.07356099 -0.220393
v 0.058841 -0.073223 -0.211538
v 0.09595099 -0.07221499 -0.19374799
v 0.129427 -0.07060699 -0.16777899
v 0.157985 -0.06849599 -0.134691
v 0.180497 -0.06587 -0.093973
v 0.196039 -0.06311299 -0.05143199
v 0.338328 -0.08141899 -0.019586
v 0.33833301 -0.075939 0.05647699
v 0.325006 -0.07021199 0.131044
v 0.299039 -0.064566 0.20133499
v 0.261646 -0.05935699 0.26482701
v 0.214403 -0.0549 0.319267
v 0.15909799 -0.051436 0.362654
v 0.09770499 -0.049134 0.39320498
v 0.032404 -0.048064 0.40948
v -0.034437 -0.048238 0.41054001
v -0.10028 -0.049644 0.396164
v -0.16256199 -0.052214 0.36693501
v -0.21882599 -0.055791 0.32415598
v -0.266817 -0.06015599 0.26966199
v -0.30454701 -0.06503199 0.20570099
v -0.33038601 -0.07011699 0.134828
v -0.34320899 -0.07512199 0.059836
v -0.34252798 -0.079815 -0.01634299
v -0.32854899 -0.084085 -0.09081699
v -0.30207601 -0.08793 -0.160903
v -0.26436999 -0.09136299 -0.22417099
v -0.216977 -0.09438999 -0.278434
v -0.161641 -0.09696199 -0.321684
v -0.10031399 -0.098977 -0.35208499
v -0.03519 -0.100312 -0.368133
v 0.03130599 -0.10085099 -0.368898
v 0.096619 -0.10051299 -0.35423898
v 0.158232 -0.09928199 -0.32486799
v 0.21382899 -0.09720899 -0.28218799
v 0.261334 -0.094351 -0.22804899
v 0.298904 -0.090737 -0.164597
v 0.32496899 -0.0864 -0.09423
v 0.35365399 -0.079023 0.058362
v 0.35363599 -0.08478 -0.020997
v 0.340319 -0.077641 -0.020026
v 0.340314 -0.07213199 0.05636699
v 0.33973398 -0.072962 0.136141
v 0.326902 -0.066366 0.131253
v 0.312606 -0.066949 0.20943999
v 0.30077901 -0.060674 0.201839
v 0.27355 -0.06137 0.275635
v 0.263168 -0.055415 0.26559099
v 0.224214 -0.056575 0.33238899
v 0.215652 -0.050911 0.320248
v 0.166461 -0.05282799 0.37762799
v 0.16002899 -0.047405 0.36380401
v 0.102341 -0.05032699 0.40949401
v 0.09828399 -0.045072 0.394472
v 0.03411899 -0.04915599 0.42647698
v 0.032607 -0.043986 0.41080901
v -0.035734 -0.04933499 0.42758199
v -0.03461999 -0.04416 0.41187399
v -0.104564 -0.050857 0.41256699
v -0.100844 -0.045584 0.39744401
v -0.16968099 -0.053644 0.38204398
v -0.163485 -0.048186 0.36810299
v -0.228512 -0.057519 0.33737701
v -0.220072 -0.05180599 0.32515901
v -0.27869701 -0.06223199 0.280487
v -0.26833799 -0.056219 0.27044999
v -0.31815499 -0.06747499 0.213724
v -0.30628699 -0.061143 0.20623
v -0.34517601 -0.07290899 0.139757
v -0.33227899 -0.066271 0.13506099
v -0.35857901 -0.07821799 0.061507
v -0.345182 -0.07131099 0.059748
v -0.35786101 -0.08314699 -0.017957
v -0.344507 -0.07602799 -0.01676099
v -0.343243 -0.08758299 -0.09561599
v -0.33045598 -0.080311 -0.091562
v -0.315582 -0.091534 -0.168678
v -0.30383899 -0.08416 -0.16195599
v -0.27620101 -0.095025 -0.234623
v -0.26592099 -0.08758699 -0.2255
v -0.22671499 -0.09808199 -0.29118898
v -0.21825699 -0.090602 -0.279998
v -0.168934 -0.10066899 -0.33629199
v -0.16259899 -0.09315899 -0.32343301
v -0.10487999 -0.102697 -0.36801499
v -0.100905 -0.09516199 -0.35396599
v -0.03683599 -0.104047 -0.38477098
v -0.035385 -0.09649 -0.37008199
v 0.03266 -0.10460799 -0.38557198
v 0.031518 -0.09703099 -0.37084999
v 0.10092899 -0.104294 -0.37026199
v 0.09722799 -0.09670399 -0.35612601
v 0.165331 -0.10307999 -0.33959001
v 0.15920899 -0.095489 -0.326628
v 0.223444 -0.10100899 -0.295033
v 0.21513199 -0.093433 -0.28376498
v 0.27310499 -0.098125 -0.238527
v 0.26290899 -0.09059 -0.229392
v 0.312388 -0.094438 -0.172312
v 0.30068698 -0.08698099 -0.16566799
v 0.33965298 -0.08996699 -0.098884
v 0.326893 -0.082639 -0.09499499
v 0.32797086 -0.10235696 -0.01740391
v 0.31497138 -0.10725811 -0.09057782
v 0.28965756 -0.11156492 -0.15954282
v 0.2532016 -0.11520671 -0.22199463
v 0.20713326 -0.11810325 -0.2750957
v 0.15324036 -0.12022934 -0.31694725
v 0.09353839 -0.12150834 -0.34574455
v 0.03026787 -0.12187468 -0.36011159
v -0.03414184 -0.12133847 -0.35935255
v -0.09722618 -0.11998369 -0.34360137
v -0.15664917 -0.11792589 -0.31378021
v -0.21028016 -0.1153039 -0.27135956
v -0.25623014 -0.11223167 -0.21814011
v -0.29280877 -0.10877219 -0.15608334
v -0.31850788 -0.10493273 -0.08721372
v -0.33209592 -0.10072118 -0.01422795
v -0.33279156 -0.09614413 0.06044443
v -0.32038831 -0.0913034 0.13397458
v -0.29535591 -0.08641883 0.20349089
v -0.25878748 -0.08176165 0.26624614
v -0.21226106 -0.07761239 0.31973174
v -0.15770919 -0.07422408 0.36174014
v -0.09731974 -0.07179411 0.39045432
v -0.03347328 -0.07046691 0.40458628
v 0.03134444 -0.07030104 0.40355709
v 0.09467627 -0.07130853 0.3875896
v 0.15422362 -0.07348498 0.35760158
v 0.20786771 -0.0767741 0.31501022
v 0.25369092 -0.08102362 0.26158011
v 0.28995209 -0.08601629 0.19927582
v 0.31511715 -0.09145791 0.13031572
v 0.32801377 -0.09700829 0.05718
v 0.21922525 -0.06538216 -0.00761493
v 0.21069593 -0.06855332 -0.05625623
v 0.19394968 -0.07150133 -0.10205366
v 0.16971924 -0.0742525 -0.14545008
v 0.13900332 -0.07646031 -0.18100443
v 0.10301119 -0.07813216 -0.20893076
v 0.06311702 -0.07917356 -0.22807727
v 0.02081122 -0.07951505 -0.23761157
v -0.02233637 -0.07914035 -0.23711033
v -0.06472618 -0.07809926 -0.22660498
v -0.10479641 -0.07648404 -0.20657126
v -0.14104998 -0.07441879 -0.17787163
v -0.17211341 -0.07203064 -0.14168018
v -0.19676314 -0.06942994 -0.09939859
v -0.21397772 -0.06663949 -0.05168316
v -0.2229978 -0.06387683 -0.00278975
v -0.22339916 -0.06110508 0.0470138
v -0.21512129 -0.05838412 0.09585682
v -0.19850353 -0.05581032 0.14188176
v -0.17425224 -0.05348022 0.18331743
v -0.14337639 -0.05148101 0.21854043
v -0.10712596 -0.04988946 0.24614062
v -0.06692787 -0.0487562 0.26497265
v -0.02432489 -0.04812006 0.27424389
v 0.01907463 -0.04800932 0.27356645
v 0.06164751 -0.04844998 0.26301252
v 0.10181722 -0.04946871 0.24307747
v 0.13807767 -0.05107522 0.21461634
v 0.16905008 -0.05323759 0.17880047
v 0.19350813 -0.05588609 0.13702145
v 0.21044647 -0.05889502 0.09086165
v 0.21914549 -0.06211289 0.04204269
v 0.111064 -0.034568 0.22827699
v 0.11025 0.021746 0.22816999
v 0.143395 0.02020799 0.19906899
v 0.14498199 -0.034788 0.19781899
v 0.07401499 -0.03483299 0.250882
v 0.074189 0.023972 0.249775
v 0.10694 0.07087499 0.22006799
v 0.136396 0.067078 0.19506199
v 0.10678999 0.11063099 0.201945
v 0.128747 0.09761899 0.18813699
v 0.07333599 0.07718899 0.23815199
v 0.074206 0.12264099 0.21537399
v 0.11429599 0.13913799 0.172389
v 0.14267399 0.11007899 0.16448199
v 0.125735 0.15893 0.134293
v 0.15854899 0.12113399 0.12737399
v 0.07917299 0.15872199 0.18219199
v 0.08636499 0.185761 0.141733
v 0.136185 0.17302399 0.089887
v 0.171838 0.129068 0.083365
v 0.143196 0.18063199 0.04142199
v 0.17986799 0.13341699 0.035269
v 0.093387 0.204517 0.09605599
v 0.098497 0.21421599 0.04677499
v 0.195057 0.070436 -0.06494899
v 0.203453 0.01006 -0.06969299
v 0.17439299 0.125615 -0.06001099
v 0.204318 0.07630199 0.02931899
v 0.21619799 0.014296 0.024768
v 0.163753 0.113241 -0.100206
v 0.18079 0.06412299 -0.104446
v 0.18703 0.007541 -0.10999599
v 0.15862199 0.061376 -0.137608
v 0.162207 0.006477 -0.14549499
v 0.151598 0.098837 -0.12691
v 0.141027 0.17024099 -0.05773
v 0.09842299 0.20100599 -0.057145
v 0.050119 0.233884 0.05042
v 0.05096 0.21876899 -0.057312
v -0.096077 0.205123 0.093303
v -0.048856 0.223617 0.09893199
v -0.046815 0.20241099 0.145713
v -0.09098699 0.18625399 0.13918699
v -0.04981499 0.23426899 0.04878199
v -0.098855 0.214927 0.043772
v -0.047106 0.21907199 -0.058919
v -0.094594 0.20171099 -0.06026199
v 0.043691 0.20206099 0.147348
v 0.047375 0.223232 0.100574
v 0.05018499 0.189281 -0.11146
v 0.09507499 0.17473599 -0.107331
v 0.04970699 0.14236399 -0.15925
v 0.09239 0.13233199 -0.150486
v 0.134202 0.150395 -0.10231799
v 0.128572 0.11638899 -0.13863
v 0.12892 0.06710299 -0.16262699
v 0.13077899 0.008749 -0.17485399
v 0.092601 0.075368 -0.181124
v 0.09343399 0.011214 -0.19768899
v 0.050156 0.080723 -0.194175
v 0.050607 0.012442 -0.21314899
v -0.08556699 0.074983 -0.18468
v -0.042722 0.08032099 -0.19610899
v -0.04311 0.14226999 -0.161091
v -0.08600399 0.132427 -0.15389899
v -0.042748 0.011845 -0.21500599
v -0.086144 0.010485 -0.20114299
v -0.085455 -0.05513799 -0.20608499
v -0.042284 -0.056596 -0.220466
v 0.05013899 -0.05593999 -0.21878199
v 0.09264999 -0.054256 -0.20291
v 0.129764 -0.053018 -0.17914299
v 0.160941 -0.052877 -0.14872999
v 0.18552799 -0.052343 -0.11286299
v 0.20164699 -0.05179699 -0.072581
v 0.21491099 -0.049056 0.02085
v 0.21036 -0.045779 0.07007399
v 0.210396 0.01605599 0.074179
v 0.196814 -0.04098499 0.11757099
v 0.19553199 0.018361 0.121232
v 0.181811 0.073344 0.12344799
v 0.196774 0.075415 0.078028
v 0.161761 0.06954 0.162731
v 0.172967 0.01969 0.163202
v 0.17491599 -0.036865 0.16063199
v 0.03610099 0.025846 0.26307699
v 0.036262 0.081904 0.249724
v 0.037234 0.130877 0.22454699
v 0.03565299 -0.03497999 0.26458799
v -0.043896 -0.034965 0.26317
v -0.043779 0.025895 0.26155099
v -0.082105 -0.03465599 0.24832999
v -0.08188 0.024178 0.247104
v -0.17722499 0.021702 0.15933699
v -0.149871 0.021621 0.19555699
v -0.15046499 -0.03326499 0.19391299
v -0.177284 -0.034564 0.155999
v -0.197263 0.02066499 0.11654
v -0.19649699 -0.038447 0.112065
v -0.11821299 -0.033944 0.224867
v -0.117531 0.022368 0.224818
v -0.043044 0.131033 0.22292099
v -0.04311399 0.082001 0.248122
v -0.08066 0.07744 0.235522
v -0.080986 0.12293499 0.21284599
v -0.15159599 0.110918 0.16225199
v -0.121944 0.13967399 0.169822
v -0.11483299 0.111082 0.19926099
v -0.13792599 0.098383 0.18581199
v -0.085141 0.15911799 0.17973299
v -0.132026 0.159617 0.131491
v -0.165992 0.12211299 0.12472099
v -0.11477799 0.07139399 0.21704199
v -0.1448 0.06812299 0.19227799
v -0.16926799 0.070923 0.159997
v -0.18748299 0.074968 0.12011999
v -0.176595 0.130113 0.079727
v -0.200056 0.07683199 0.07359799
v -0.205163 0.077799 0.023631
v -0.181344 0.13471999 0.03040299
v -0.20984199 0.017988 0.068282
v -0.21471099 0.016004 0.017958
v -0.14027099 0.17385099 0.086567
v -0.144428 0.181636 0.03741199
v -0.04453099 0.17142699 0.187717
v 0.039969 0.17116199 0.18934699
v -0.21295699 -0.047515 0.013811
v -0.199697 -0.05088799 -0.07899899
v -0.201065 0.011326 -0.07619199
v -0.208202 -0.043701 0.063522
v -0.19221 0.07195299 -0.07118
v -0.17110699 0.127101 -0.06556399
v -0.18286499 0.008531 -0.11604999
v -0.17628499 0.065412 -0.110352
v -0.15897099 0.11452099 -0.105595
v -0.153023 0.062123 -0.14305
v -0.14604799 0.099793 -0.132146
v -0.156792 0.006875 -0.150955
v -0.089771 0.17522099 -0.110545
v -0.12911599 0.151335 -0.106779
v -0.12257699 0.116951 -0.143203
v -0.13738299 0.17138999 -0.06221
v -0.181793 -0.051734 -0.118772
v -0.155871 -0.052806 -0.153968
v -0.12253899 0.06717699 -0.167342
v -0.124378 0.008444 -0.17950999
v -0.04481999 0.189443 -0.113158
v -0.123581 -0.053566 -0.18351699
v 0.20031599 0.07407099 -0.027493
v 0.20936 0.012176 -0.03242399
v 0.178396 0.13131299 -0.02148599
v 0.203289 0.074771 -0.011739
v 0.18013399 0.13241399 -0.006088
v 0.213494 0.012496 -0.016331
v 0.14424 0.179954 -0.001166
v 0.099752 0.21341499 0.002663
v 0.143647 0.17843799 -0.016208
v 0.09974499 0.21155999 -0.012188
v 0.051019 0.23282 0.00496
v 0.05113999 0.23079599 -0.00986
v -0.09745799 0.21233999 -0.01532
v -0.048783 0.23116099 -0.011455
v -0.098125 0.21417999 -0.000422
v -0.049151 0.233196 0.003358
v 0.20733399 -0.050794 -0.035824
v 0.21185599 -0.050787 -0.01959
v -0.21177999 0.01389 -0.023297
v -0.209994 -0.049644 -0.026671
v -0.20650599 -0.049834 -0.042672
v -0.20825199 0.01347 -0.03928399
v -0.179205 0.133825 -0.011521
v -0.202406 0.07621999 -0.017972
v -0.17663499 0.13281899 -0.027177
v -0.198941 0.07559099 -0.033957
v -0.143086 0.181077 -0.00552
v -0.141585 0.17963199 -0.020749
v 0.116727 -0.03449799 0.235951
v 0.11593099 0.02256299 0.23581999
v 0.15029199 0.020981 0.20563599
v 0.151866 -0.03475499 0.204407
v 0.078102 -0.034703 0.25950801
v 0.07829699 0.024952 0.258376
v 0.112552 0.073252 0.227429
v 0.143157 0.06927 0.201414
v 0.112406 0.114527 0.20862099
v 0.13528899 0.10086099 0.19421899
v 0.07739099 0.079984 0.246369
v 0.078257 0.127267 0.222716
v 0.120189 0.144215 0.177943
v 0.14972999 0.11382 0.16968999
v 0.132036 0.164755 0.13852399
v 0.16615 0.12534999 0.131325
v 0.08341299 0.16481499 0.18823899
v 0.09089999 0.192862 0.146309
v 0.142817 0.17935499 0.09269399
v 0.179863 0.133589 0.08596199
v 0.150009 0.187353 0.04247099
v 0.188179 0.138151 0.036185
v 0.098139 0.212328 0.09901399
v 0.103301 0.222507 0.047809
v 0.171191 0.117426 -0.104652
v 0.188993 0.06640899 -0.108869
v 0.20399799 0.072883 -0.067465
v 0.18247699 0.130189 -0.062564
v 0.19543999 0.008241 -0.114533
v 0.212674 0.010711 -0.072246
v 0.165643 0.063665 -0.14373099
v 0.169427 0.007303 -0.15172399
v 0.15828299 0.10249199 -0.132705
v -0.100768 0.21302899 0.09607599
v -0.05134699 0.23243099 0.101898
v -0.04925699 0.21038499 0.15049299
v -0.09546999 0.193451 0.143634
v -0.103569 0.223286 0.044599
v -0.052248 0.24355499 0.049656
v 0.04608799 0.21001499 0.15219999
v 0.049874 0.232019 0.103625
v 0.052614 0.243146 0.05138599
v 0.053144 0.227495 -0.06074399
v 0.05220799 0.196831 -0.11708799
v 0.098976 0.18174099 -0.112681
v 0.10272 0.20902599 -0.06032799
v 0.051695 0.14808 -0.166737
v 0.0961 0.137594 -0.157637
v 0.140064 0.156313 -0.10718999
v 0.13400499 0.12088199 -0.14517599
v 0.147455 0.17686599 -0.06055599
v 0.134413 0.06978999 -0.170018
v 0.136545 0.009852 -0.18241499
v 0.096454 0.07858499 -0.18930499
v 0.09753999 0.012627 -0.206228
v 0.052253 0.08429999 -0.202846
v 0.052839 0.014062 -0.22233699
v -0.089115 0.07820499 -0.192998
v -0.044491 0.083897 -0.20485399
v -0.04481 0.147992 -0.16864399
v -0.08943299 0.137711 -0.16117499
v -0.089941 0.011889 -0.20982599
v -0.04463899 0.013455 -0.22427299
v -0.08934299 -0.05453399 -0.21478599
v -0.044217 -0.05587299 -0.229796
v 0.052413 -0.05520299 -0.228033
v 0.096845 -0.05363899 -0.21146599
v 0.13562299 -0.052597 -0.18666799
v 0.168199 -0.052676 -0.15492799
v 0.193939 -0.052331 -0.11739999
v 0.21086199 -0.05194199 -0.07512199
v 0.219712 -0.045914 0.071952
v 0.21972599 0.016906 0.076222
v 0.225747 0.015077 0.02507299
v 0.224442 -0.049237 0.02101299
v 0.205649 -0.041037 0.121168
v 0.204326 0.019253 0.12493299
v 0.190173 0.07594999 0.12724499
v 0.20564299 0.078128 0.080356
v 0.21348899 0.07902 0.029944
v 0.16942299 0.071906 0.16790899
v 0.18092 0.020531 0.16847099
v 0.182889 -0.03686099 0.16588099
v 0.03824 0.026999 0.272372
v 0.0384 0.085078 0.258542
v 0.039388 0.136038 0.23236499
v 0.037767 -0.03478299 0.27391201
v -0.08640699 -0.03449999 0.256848
v -0.08616799 0.025161 0.255609
v -0.04621199 0.027065 0.27076399
v -0.046312 -0.03474 0.27241399
v -0.18545599 0.02212099 0.164223
v -0.156946 0.022111 0.201975
v -0.157582 -0.03340499 0.20026899
v -0.18553599 -0.034844 0.160805
v -0.206283 0.021105 0.119727
v -0.20552 -0.0388 0.115146
v -0.12403699 -0.03392399 0.23241999
v -0.12331099 0.02306599 0.2324
v -0.045379 0.136193 0.230672
v -0.045503 0.085178 0.256861
v -0.084812 0.080218 0.24368299
v -0.085051 0.127572 0.220154
v -0.158766 0.114655 0.167344
v -0.12774799 0.14489999 0.175309
v -0.12034499 0.114986 0.205998
v -0.144453 0.10154599 0.191961
v -0.08934599 0.16527399 0.18571299
v -0.13828499 0.16562399 0.135505
v -0.173763 0.12636099 0.12834
v -0.120365 0.07363499 0.224452
v -0.151653 0.070032 0.198651
v -0.177219 0.072916 0.164938
v -0.19616399 0.077205 0.123475
v -0.184749 0.13467699 0.08186399
v -0.20914499 0.07924 0.07543499
v -0.21441499 0.08033499 0.02385
v -0.189676 0.13948799 0.030857
v -0.21925899 0.018466 0.069912
v -0.22426599 0.016563 0.018048
v -0.146877 0.18034 0.08905
v -0.15118199 0.18845799 0.03810599
v -0.046888 0.17820699 0.194092
v 0.042219 0.17793299 0.195785
v -0.21759499 -0.044052 0.06506499
v -0.222485 -0.04779699 0.013869
v -0.191091 0.009293 -0.120893
v -0.184302 0.06775599 -0.11506699
v -0.20102299 0.074478 -0.07405
v -0.210178 0.012054 -0.079103
v -0.166215 0.11875999 -0.110298
v -0.17904299 0.13174499 -0.06843099
v -0.15983399 0.06444799 -0.14939099
v -0.15252099 0.10349199 -0.138152
v -0.163807 0.007736 -0.15740799
v -0.093437 0.18224999 -0.11602299
v -0.13475899 0.15729799 -0.11184699
v -0.12775999 0.121481 -0.149927
v -0.143643 0.17806699 -0.06527499
v -0.098713 0.20975999 -0.063598
v -0.20881499 -0.05095899 -0.081889
v -0.190023 -0.05165899 -0.12361799
v -0.162926 -0.05257299 -0.160393
v -0.127774 0.06988299 -0.174914
v -0.12989099 0.009553 -0.18726
v -0.04661 0.19700099 -0.11885099
v -0.049116 0.22780899 -0.06242499
v -0.12918999 -0.053142 -0.19123399
v 0.218691 0.012848 -0.034315
v 0.20938 0.07660699 -0.029152
v 0.186636 0.135992 -0.02291899
v 0.18843999 0.137171 -0.006757
v 0.212436 0.07741899 -0.012794
v 0.222937 0.013229 -0.01776799
v 0.104427 0.22177599 0.002112
v 0.150994 0.186762 -0.001659
v 0.150307 0.185211 -0.01761299
v 0.10428799 0.21986299 -0.013756
v 0.053417 0.24207499 0.004269
v 0.05345 0.23992499 -0.011616
v -0.05096299 0.240305 -0.013295
v -0.10186299 0.220678 -0.01706999
v -0.051445 0.24246799 0.002578
v -0.102683 0.222588 -0.001174
v 0.21663799 -0.05096999 -0.037788
v 0.221264 -0.050953 -0.021167
v -0.21941 -0.04983799 -0.028061
v -0.22121599 0.014545 -0.02469299
v -0.217562 0.014169 -0.041227
v -0.215809 -0.049981 -0.04458199
v -0.211535 0.078821 -0.019273
v -0.187442 0.13863199 -0.012576
v -0.20794199 0.07817599 -0.03586399
v -0.18476699 0.13756999 -0.028949
v -0.149736 0.187955 -0.006343
v -0.14811299 0.18646499 -0.022444
v 0.03061099 0.246074 0.051688
v 0.028809 0.23481699 0.10413999
v 0.027269 0.225892 0.101093
v 0.02906199 0.23668 0.05074999
v 0.026516 0.212466 0.15294699
v 0.02504899 0.20438699 0.14806799
v 0.03179299 0.149645 -0.168418
v 0.03169599 0.19901199 -0.11806999
v 0.030399 0.19138599 -0.11240399
v 0.03050399 0.143858 -0.16088199
v 0.031761 0.23008799 -0.061122
v 0.03037999 0.221273 -0.05765
v 0.032745 0.014194 -0.22495999
v 0.03232 0.085132 -0.205163
v 0.030956 0.08149799 -0.196417
v 0.031298 0.012543 -0.215673
v 0.03254 -0.055574 -0.230671
v 0.03106899 -0.05632799 -0.22131599
v 0.02248499 0.137288 0.23364199
v 0.021706 0.08572699 0.260113
v 0.020434 0.08247099 0.25121301
v 0.02119 0.13202999 0.22576199
v 0.021397 0.027128 0.27413499
v 0.020135 0.02592499 0.26474699
v 0.021012 -0.035043 0.275709
v 0.019769 -0.035264 0.26629298
v 0.024223 0.179838 0.19678199
v 0.02285699 0.172959 0.190298
v 0.031396 0.244936 0.004302
v 0.02989899 0.235567 0.00503
v 0.03152899 0.242751 -0.011582
v 0.030081 0.233519 -0.009785
v -0.028739 0.212805 0.152012
v -0.029245 0.23518599 0.10319399
v -0.027739 0.22623899 0.100197
v -0.027238 0.20471 0.14717499
v -0.029161 0.24644599 0.050735
v -0.027711 0.23703199 0.049853
v -0.023884 0.149671 -0.16957999
v -0.023486 0.084944 -0.20641399
v -0.022489 0.081308 -0.19762
v -0.022916 0.143877 -0.16200299
v -0.023429 0.013856 -0.22618499
v -0.022367 0.012211 -0.216847
v -0.023234 -0.05597199 -0.231801
v -0.022149 -0.05671799 -0.222394
v -0.028671 0.02729699 0.27326399
v -0.02887 -0.03489499 0.27490401
v -0.02734 -0.03514 0.265533
v -0.027128 0.026067 0.26392099
v -0.028104 0.085919 0.259191
v -0.02658299 0.082644 0.25033599
v -0.027731 0.137519 0.232708
v -0.026248 0.13224999 0.224866
v -0.02805599 0.18012799 0.19585199
v -0.02658 0.17323799 0.18940299
v -0.02669199 0.23038999 -0.06208499
v -0.02508799 0.19921299 -0.11911399
v -0.024057 0.19157899 -0.113406
v -0.025521 0.22156499 -0.05856699
v -0.028346 0.245296 0.003357
v -0.026992 0.23591099 0.00414
v -0.027973 0.243101 -0.01252
v -0.026695 0.23385599 -0.010672
v 0.12176299 -0.034418 0.24278199
v 0.120967 0.022642 0.242651
v 0.156415 0.02102199 0.211502
v 0.15798899 -0.03471399 0.21027299
v 0.08173599 -0.03457099 0.26718699
v 0.081931 0.025084 0.266054
v -0.09280099 -0.05399699 -0.222531
v -0.045936 -0.055231 -0.23809899
v -0.046358 0.014097 -0.23257599
v -0.093399 0.012426 -0.217571
v 0.054861 0.014717 -0.23057
v 0.054435 -0.05454799 -0.236266
v 0.10057599 -0.05308999 -0.21908099
v 0.101271 0.013176 -0.213843
v 0.14175699 0.010226 -0.189114
v 0.140835 -0.052223 -0.193367
v 0.174657 -0.052497 -0.160445
v 0.175885 0.007482 -0.157241
v 0.20292399 0.008252 -0.11857099
v 0.201424 -0.05232 -0.12143799
v 0.21906299 -0.05206999 -0.07738299
v 0.22087499 0.010583 -0.07450799
v 0.22803199 -0.04602399 0.073633
v 0.228046 0.016795 0.077903
v 0.234228 0.014922 0.02522699
v 0.232923 -0.049392 0.021167
v 0.21350899 -0.04107499 0.124375
v 0.21218599 0.019215 0.12814
v 0.188013 0.020543 0.17314599
v 0.18998199 -0.036849 0.17055599
v 0.039646 -0.034598 0.282209
v 0.040119 0.027184 0.28066998
v -0.090232 -0.034343 0.264431
v -0.089993 0.025318 0.26319101
v -0.048351 0.027279 0.27899301
v -0.04845099 -0.034527 0.28064298
v -0.192787 0.021884 0.168511
v -0.163293 0.022007 0.20761199
v -0.163929 -0.033509 0.205907
v -0.19286699 -0.03508099 0.165093
v -0.214284 0.020799 0.122536
v -0.213521 -0.039106 0.11795499
v -0.129231 -0.033877 0.239131
v -0.128506 0.023112 0.239111
v -0.227602 0.01816 0.07137099
v -0.225938 -0.044358 0.066523
v -0.23274399 0.016318 0.01816
v -0.23096199 -0.04804199 0.013982
v -0.19841499 0.00936 -0.125207
v -0.218291 0.011992 -0.08167599
v -0.216928 -0.05102099 -0.084462
v -0.197347 -0.051592 -0.12793199
v -0.170084 0.007944 -0.163127
v -0.16920299 -0.052365 -0.166112
v -0.13488 0.00993 -0.194128
v -0.13417899 -0.052765 -0.19810199
v 0.226971 0.012692 -0.036061
v 0.22491799 -0.051126 -0.03953399
v 0.23131099 0.013087 -0.019165
v 0.22963799 -0.051095 -0.022565
v -0.227796 -0.05000599 -0.029273
v -0.22960099 0.014377 -0.025904
v -0.225841 0.014039 -0.042923
v -0.22408799 -0.05011099 -0.046278
v -0.023541 -0.055294 -0.240233
v -0.02357699 0.015076 -0.234594
v 0.033229 0.015418 -0.233354
v 0.033176 -0.05488999 -0.239084
v 0.021388 -0.03483 0.28416499
v 0.02160199 0.027937 0.28260099
v -0.028284 0.253733 0.002677
v 0.031458 0.25337401 0.003621
v 0.03065099 0.254547 0.05248399
v -0.029121 0.25491899 0.05153099
v -0.02659899 0.238315 -0.065205
v 0.031853 0.238012 -0.06424299
v 0.031603 0.25105801 -0.013212
v -0.027899 0.25140801 -0.01415
v 0.02237799 0.14205199 0.24069599
v -0.02783799 0.14228299 0.23976199
v -0.02812499 0.18635599 0.20163799
v 0.024154 0.186066 0.20256899
v -0.02876799 0.220117 0.15634399
v 0.026487 0.219777 0.157279
v -0.02954 -0.034672 0.28334298
v -0.02917 0.028112 0.28171798
v -0.028238 0.088876 0.26717099
v 0.02157199 0.088684 0.268094
v 0.03193699 0.154852 -0.17517699
v -0.02374099 0.154878 -0.17633999
v -0.02332199 0.088219 -0.214274
v 0.032483 0.088407 -0.213023
v -0.02497 0.20606799 -0.12419299
v 0.031814 0.205867 -0.12314999
v -0.029238 0.243255 0.105873
v 0.02881499 0.242886 0.10681899
v 0.224947 -0.42160919 -0.143434
v 0.209909 -0.42670872 -0.16084499
v 0.191455 -0.43284273 -0.17338299
v 0.16932499 -0.43981972 -0.180947
v 0.142561 -0.44665464 -0.184217
v 0.111174 -0.45316371 -0.18406599
v 0.07540799 -0.4588567 -0.18212799
v 0.036291 -0.46276208 -0.18024499
v -0.004624 -0.46403893 -0.17983199
v -0.04534199 -0.4623644 -0.181315
v -0.08394099 -0.45818719 -0.184033
v -0.11898899 -0.45239478 -0.186407
v -0.14964699 -0.44588726 -0.18655
v -0.17578999 -0.43906378 -0.182953
v -0.197446 -0.43206375 -0.174934
v -0.21561799 -0.42583423 -0.16205999
v -0.23052999 -0.42066219 -0.14448
v 0.222901 -0.39946976 -0.14594
v 0.207975 -0.40443119 -0.16279
v 0.189868 -0.41070854 -0.17471599
v 0.168022 -0.41770783 -0.18169499
v 0.141561 -0.424508 -0.184438
v 0.11041899 -0.43098992 -0.183861
v 0.074894 -0.436643 -0.181618
v 0.03599999 -0.44052729 -0.17956799
v -0.00468 -0.44179254 -0.17910499
v -0.04516499 -0.44012221 -0.18065099
v -0.08353 -0.43596312 -0.183555
v -0.11832799 -0.43019694 -0.18625
v -0.148708 -0.4237082 -0.186835
v -0.174529 -0.41689661 -0.183769
v -0.19588099 -0.40985178 -0.176326
v -0.213694 -0.40347343 -0.164049
v -0.22848899 -0.39841598 -0.14703199
v 0.22134199 -0.37737724 -0.148184
v 0.206741 -0.38249743 -0.164452
v 0.18894499 -0.38889664 -0.17572599
v 0.16732099 -0.39594882 -0.18205599
v 0.14104899 -0.40272659 -0.18426199
v 0.110012 -0.40914312 -0.183308
v 0.07458499 -0.41467711 -0.180845
v 0.035789 -0.41845944 -0.17870199
v -0.004765 -0.41968491 -0.17821599
v -0.04512799 -0.41805464 -0.17979599
v -0.083388 -0.41398936 -0.182815
v -0.118077 -0.40832021 -0.18575599
v -0.14831499 -0.40187341 -0.18674999
v -0.17391499 -0.39505073 -0.184239
v -0.195012 -0.3879356 -0.17744499
v -0.21249499 -0.38142666 -0.16580399
v -0.22696 -0.37621644 -0.14935499
v 0.21956795 -0.35485467 -0.15007022
v 0.2051721 -0.36000374 -0.16576892
v 0.18762768 -0.36647811 -0.17642878
v 0.16623961 -0.37361022 -0.18216896
v 0.14017301 -0.38041368 -0.18393352
v 0.10928898 -0.38677012 -0.18273899
v 0.07403499 -0.39215683 -0.18019899
v 0.03545 -0.39579713 -0.178065
v -0.004844 -0.39696264 -0.17758999
v -0.044953 -0.39539271 -0.179159
v -0.08300682 -0.39145711 -0.18217979
v -0.11751488 -0.38590154 -0.18522372
v -0.14757376 -0.37947374 -0.18649381
v -0.17292925 -0.37259802 -0.1844507
v -0.19375981 -0.36540672 -0.17825357
v -0.21097017 -0.35884344 -0.1672112
v -0.22522601 -0.35362803 -0.15132516
v 0.21586863 -0.33086708 -0.15143278
v 0.20168836 -0.33598029 -0.16663548
v 0.18443128 -0.34244188 -0.17684796
v 0.16339081 -0.34956517 -0.18225561
v 0.13773071 -0.35636481 -0.1838731
v 0.10731716 -0.36263865 -0.18271632
v 0.07262866 -0.36785453 -0.18032439
v 0.03470176 -0.37132856 -0.17833486
v -0.00486767 -0.37242513 -0.17790742
v -0.04425446 -0.37092098 -0.1793999
v -0.08165582 -0.36712503 -0.18225163
v -0.11559521 -0.36169293 -0.1851435
v -0.14517895 -0.35529467 -0.18638946
v -0.17011027 -0.34840828 -0.18451322
v -0.19058866 -0.34125629 -0.17866666
v -0.20750194 -0.33476549 -0.1680704
v -0.22154326 -0.32963371 -0.1526822
v 0.21020303 -0.30554941 -0.15229035
v 0.19624953 -0.31050291 -0.16707445
v 0.1793112 -0.31674104 -0.17701976
v 0.15871299 -0.32364502 -0.18236002
v 0.13365998 -0.33030915 -0.18412727
v 0.10404511 -0.33644244 -0.18329493
v 0.07034712 -0.34147247 -0.18128603
v 0.03355831 -0.34476965 -0.17958498
v -0.00479443 -0.34577629 -0.17922958
v -0.04296753 -0.34430784 -0.1805457
v -0.07924144 -0.34063336 -0.18303448
v -0.11221036 -0.33533808 -0.18550975
v -0.14102023 -0.32905876 -0.18643601
v -0.16536489 -0.32233738 -0.18443569
v -0.18541544 -0.31546866 -0.17868956
v -0.20201683 -0.30929186 -0.16837705
v -0.21583856 -0.30436834 -0.15341907
v 0.20281145 -0.27923613 -0.15274579
v 0.18907532 -0.28387942 -0.16720013
v 0.17247359 -0.28957766 -0.17707601
v 0.15240447 -0.29588335 -0.18262851
v 0.12814438 -0.30204585 -0.18485277
v 0.0996227 -0.30774486 -0.18463105
v 0.06729598 -0.31240519 -0.18323545
v 0.03210379 -0.31541791 -0.18196095
v -0.00453304 -0.31628298 -0.18170313
v -0.04100605 -0.31484103 -0.18274143
v -0.07572089 -0.31134906 -0.18465553
v -0.10737612 -0.30636102 -0.18642805
v -0.13515786 -0.30051657 -0.18672086
v -0.15878057 -0.29435843 -0.18429052
v -0.17836096 -0.28818181 -0.17838802
v -0.19466751 -0.28264278 -0.16819365
v -0.20829005 -0.27807986 -0.15359535
v 0.19427567 -0.2523179 -0.15299445
v 0.18074281 -0.25651341 -0.16720889
v 0.16447325 -0.26135698 -0.17721806
v 0.14497056 -0.26660749 -0.18325418
v 0.12163265 -0.27174213 -0.18622151
v 0.09445428 -0.27648687 -0.18686825
v 0.06382883 -0.28035265 -0.18628493
v 0.03058121 -0.28279566 -0.18554674
v -0.00401936 -0.28340697 -0.18539243
v -0.0384727 -0.28206613 -0.18605883
v -0.07130461 -0.27903193 -0.18722996
v -0.10137478 -0.27478718 -0.18806831
v -0.12796099 -0.26990807 -0.18746013
v -0.15080955 -0.26483678 -0.1843182
v -0.16993598 -0.25978434 -0.17800451
v -0.18598698 -0.2551555 -0.1677517
v -0.19943973 -0.25107714 -0.15343469
v 0.18535605 -0.22521431 -0.15327778
v 0.17202854 -0.22890441 -0.16734671
v 0.15610514 -0.23273824 -0.17768108
v 0.13721518 -0.23661845 -0.1844498
v 0.1148759 -0.24023529 -0.18840403
v 0.0891379 -0.24347513 -0.190116
v 0.06032425 -0.2460601 -0.19047796
v 0.02916705 -0.2476103 -0.19034427
v -0.00321727 -0.24786779 -0.1903131
v -0.03549622 -0.24676102 -0.1905761
v -0.06635337 -0.24451306 -0.19090043
v -0.09477535 -0.24148036 -0.19063508
v -0.12012045 -0.23807525 -0.18888762
v -0.1421675 -0.23451347 -0.18477441
v -0.16085314 -0.23083217 -0.17779721
v -0.17668263 -0.22721302 -0.1673067
v -0.18999153 -0.22365656 -0.15318426
v 0.17662136 -0.19809913 -0.153751
v 0.16351698 -0.20130854 -0.16774573
v 0.14797467 -0.20419558 -0.17853447
v 0.12973664 -0.20671337 -0.1862145
v 0.10842775 -0.20871436 -0.19132082
v 0.08414699 -0.21025691 -0.19423304
v 0.05714385 -0.21132442 -0.19561068
v 0.02802045 -0.21181638 -0.19611176
v -0.00225311 -0.21168275 -0.19621376
v -0.03245183 -0.21093426 -0.196087
v -0.06138495 -0.20969882 -0.19554837
v -0.0881712 -0.20811589 -0.19410371
v -0.11228779 -0.20630827 -0.19106017
v -0.13351674 -0.20425652 -0.18578884
v -0.15175117 -0.20183898 -0.17794984
v -0.16734699 -0.19910347 -0.16707795
v -0.18051183 -0.1960127 -0.15306799
v 0.16845807 -0.17106866 -0.15438999
v 0.15558853 -0.17386931 -0.16835351
v 0.14043653 -0.17602355 -0.1796545
v 0.12281748 -0.17750509 -0.18831649
v 0.10245769 -0.17827113 -0.19462496
v 0.07948348 -0.1784902 -0.19878619
v 0.05413797 -0.17834441 -0.2012138
v 0.0269499 -0.17799311 -0.20237916
v -0.00124092 -0.17755988 -0.20264363
v -0.02940584 -0.17711885 -0.20214377
v -0.0565331 -0.17670136 -0.20074635
v -0.08183033 -0.17625694 -0.19809526
v -0.10482539 -0.17565138 -0.19371399
v -0.12528571 -0.17469546 -0.18721917
v -0.1430792 -0.17318861 -0.17842975
v -0.158424 -0.17110167 -0.16708697
v -0.17143566 -0.16838549 -0.15313361
v 0.16106514 -0.14428409 -0.1550354
v 0.14841149 -0.14676739 -0.16895943
v 0.13360419 -0.14843063 -0.18074061
v 0.11651055 -0.14928171 -0.19032293
v 0.0969557 -0.14937767 -0.19776478
v 0.07510446 -0.14892849 -0.20311625
v 0.05124824 -0.14819212 -0.2065722
v 0.02587742 -0.14743195 -0.20840573
v -0.00033188 -0.14685459 -0.20884895
v -0.02655478 -0.14656394 -0.2080001
v -0.05197481 -0.14653602 -0.20577982
v -0.07592964 -0.1466189 -0.20197765
v -0.09794281 -0.1465875 -0.19634012
v -0.11772698 -0.1461889 -0.18869434
v -0.13511918 -0.14520472 -0.17900674
v -0.15022103 -0.14353467 -0.16720587
v -0.16307881 -0.14110082 -0.1533055
v 0.15464799 -0.11808452 -0.15568842
v 0.14219006 -0.12033266 -0.16949319
v 0.1276604 -0.12171195 -0.18161411
v 0.11097291 -0.12230336 -0.19191034
v 0.09205745 -0.1222385 -0.20026689
v 0.07113841 -0.121694 -0.2066192
v 0.04856155 -0.12090217 -0.21096481
v 0.02480082 -0.12011284 -0.21339364
v 0.00040106 -0.11951868 -0.21400059
v -0.02405166 -0.11922152 -0.2128538
v -0.04795733 -0.11918909 -0.20992235
v -0.07074464 -0.11928328 -0.20514522
v -0.09192272 -0.11929342 -0.19847457
v -0.11114881 -0.11900333 -0.18991677
v -0.12820452 -0.11823257 -0.17953288
v -0.14308469 -0.11681199 -0.16740584
v -0.15578384 -0.11458959 -0.15362551
v 0.14940555 -0.09284608 -0.15650101
v 0.13712166 -0.09493883 -0.17010805
v 0.12280908 -0.09617293 -0.18238781
v 0.106439 -0.09669196 -0.19311584
v 0.08803238 -0.09669657 -0.20205123
v 0.06786894 -0.0963313 -0.20906415
v 0.04633675 -0.09575716 -0.21403914
v 0.02387624 -0.09513954 -0.21692076
v 0.00091391 -0.09460026 -0.21766239
v -0.02212089 -0.09421468 -0.21628716
v -0.0447857 -0.0939792 -0.21283391
v -0.06660515 -0.09383322 -0.20738908
v -0.08709642 -0.09365006 -0.20004347
v -0.10586239 -0.09327923 -0.19091278
v -0.12263684 -0.09257137 -0.18010987
v -0.1373251 -0.09128769 -0.16783663
v -0.14985863 -0.08921294 -0.15426033
v 0.14517603 -0.06860642 -0.15779972
v 0.13310444 -0.07062514 -0.17109604
v 0.1190278 -0.07182411 -0.18329972
v 0.10296665 -0.07238525 -0.1941369
v 0.08502612 -0.07253211 -0.20330523
v 0.06549345 -0.07236927 -0.21061852
v 0.04474478 -0.07200402 -0.21588306
v 0.0231869 -0.0715384 -0.21895997
v 0.00119634 -0.07105391 -0.21976418
v -0.02087334 -0.07060908 -0.21829895
v -0.0426517 -0.07021614 -0.21462155
v -0.06371236 -0.06985417 -0.20887078
v -0.08360531 -0.06946448 -0.20121826
v -0.10193679 -0.06895422 -0.19186249
v -0.11842092 -0.06820806 -0.1809647
v -0.13288436 -0.06696242 -0.16877752
v -0.14520487 -0.06496229 -0.15551635
v 0.14164193 -0.04510929 -0.15966907
v 0.12978643 -0.04709148 -0.17259669
v 0.11596106 -0.04830735 -0.18455591
v 0.1001959 -0.04892575 -0.19524107
v 0.08266578 -0.04918038 -0.20432718
v 0.063655 -0.04915335 -0.21161021
v 0.04352078 -0.0489247 -0.21688751
v 0.02262626 -0.04856341 -0.21999247
v 0.00132048 -0.04812564 -0.22081357
v -0.02006279 -0.0476542 -0.21933774
v -0.04117411 -0.04717627 -0.21564108
v -0.06162871 -0.04669341 -0.20988524
v -0.08101801 -0.04617595 -0.20226664
v -0.0989553 -0.04556097 -0.19299371
v -0.11515427 -0.04475886 -0.18225114
v -0.1293548 -0.04349045 -0.17030954
v -0.14144824 -0.04151629 -0.15741585
v 0.13808988 -0.02181935 -0.16182592
v 0.12657916 -0.02383869 -0.17432932
v 0.11305209 -0.02505711 -0.18592564
v 0.0976325 -0.02570032 -0.19630362
v 0.0805299 -0.02600362 -0.20514695
v 0.06201623 -0.02603624 -0.21223874
v 0.04242369 -0.02586255 -0.21736972
v 0.02209058 -0.02554349 -0.22037914
v 0.00135175 -0.02512928 -0.22117535
v -0.01945987 -0.02466192 -0.21974799
v -0.04000436 -0.02416418 -0.2161619
v -0.05991409 -0.02364214 -0.21056021
v -0.07881033 -0.02307382 -0.20313449
v -0.09632664 -0.02241367 -0.19410619
v -0.11218424 -0.02158843 -0.18367385
v -0.12607941 -0.02030598 -0.17209237
v -0.13780796 -0.01827931 -0.1596118
v -0.00463942 -0.31556916 -0.1724931
v -0.00411682 -0.28244835 -0.1761944
v 0.03062727 -0.28185722 -0.17634582
v 0.03222253 -0.31471979 -0.17275007
v -0.00498854 -0.37219581 -0.1686763
v -0.00490749 -0.34530827 -0.17000851
v 0.03375055 -0.34431228 -0.17036506
v 0.03496157 -0.37110546 -0.16910779
v -0.18374386 -0.22579237 -0.14674615
v -0.17426431 -0.19826577 -0.14667686
v -0.16171219 -0.20107011 -0.16001409
v -0.171119 -0.22904899 -0.16012077
v -0.09545536 -0.14683698 -0.18743374
v -0.08886069 -0.11980515 -0.18973897
v -0.06861866 -0.11928378 -0.19609326
v -0.07438664 -0.14626376 -0.19283813
v -0.20193485 -0.2797521 -0.14711533
v -0.19315962 -0.25302341 -0.14696338
v -0.18045924 -0.25680607 -0.16046711
v -0.18912166 -0.28404051 -0.16085279
v 0.07072588 -0.34104675 -0.17206873
v 0.07313273 -0.36764532 -0.17110808
v -0.16516538 -0.17068518 -0.1467904
v -0.1526947 -0.17314374 -0.16015566
v 0.0887942 -0.24263787 -0.18089141
v 0.08351177 -0.20937177 -0.18502175
v 0.10702187 -0.20831638 -0.18216717
v 0.11385435 -0.23979155 -0.17920139
v -0.15675739 -0.14334887 -0.14700067
v -0.14437079 -0.14556431 -0.16039499
v 0.07845185 -0.17770712 -0.18959575
v 0.07355566 -0.14841264 -0.19396537
v 0.0944988 -0.14943419 -0.18882297
v 0.10056792 -0.17804895 -0.18555529
v 0.10433298 -0.3360778 -0.17406825
v 0.107749 -0.36244067 -0.1734946
v -0.20936347 -0.30566448 -0.14696927
v -0.19638773 -0.31034192 -0.16103588
v 0.14389671 -0.20529542 -0.17030556
v 0.13604797 -0.17726936 -0.17164397
v 0.14990213 -0.17580169 -0.16135983
v 0.15793655 -0.20317344 -0.16060948
v 0.13339375 -0.3300682 -0.17488542
v 0.13758046 -0.35618752 -0.17463095
v -0.14937453 -0.11663679 -0.14734135
v -0.13707768 -0.11868535 -0.16068573
v 0.10198821 -0.09750071 -0.18501259
v 0.09819281 -0.07303305 -0.18615415
v 0.11342459 -0.07264493 -0.17596089
v 0.11746835 -0.09729491 -0.17495016
v -0.14332923 -0.09090161 -0.1479813
v -0.13113002 -0.09284722 -0.16117571
v 0.15726521 -0.32365286 -0.17320564
v 0.16197273 -0.34947788 -0.17309562
v -0.03250034 -0.20964065 -0.18690177
v -0.02929938 -0.1758091 -0.19295421
v -0.001303 -0.17616465 -0.19346441
v -0.00233156 -0.21033033 -0.18703782
v 0.00093592 -0.09422478 -0.20830071
v 0.00124078 -0.07110889 -0.21036481
v 0.02223327 -0.0716053 -0.20960764
v 0.02305796 -0.09480685 -0.20758989
v -0.13855072 -0.0661921 -0.14923895
v -0.12650783 -0.06810509 -0.16215461
v 0.17596185 -0.31718277 -0.1683482
v 0.18100246 -0.3425934 -0.16819165
v -0.17478522 -0.2889409 -0.16983117
v -0.18186475 -0.31599748 -0.17009984
v 0.1288964 -0.14977115 -0.17295548
v 0.14259736 -0.1486793 -0.16209647
v 0.19074535 -0.31148693 -0.15962547
v 0.19604091 -0.3365139 -0.15924565
v -0.00330647 -0.24667772 -0.18112522
v 0.02914612 -0.24644784 -0.18115271
v -0.13473959 -0.04234705 -0.15112292
v -0.12293145 -0.04425595 -0.16366748
v -0.06643015 -0.24349239 -0.18168893
v -0.06126049 -0.20857918 -0.18634264
v -0.03564389 -0.24561439 -0.18138238
v 0.20380178 -0.30681332 -0.14576634
v 0.20931272 -0.33166548 -0.14498697
v -0.13109335 -0.01895654 -0.15330518
v -0.11968544 -0.02092379 -0.16541789
v 0.08902379 -0.12256188 -0.19148849
v 0.08450897 -0.09716442 -0.19342911
v 0.10694468 -0.12313908 -0.18362875
v 0.11976948 -0.17799353 -0.17960448
v 0.12715445 -0.20700366 -0.17732961
v 0.20374299 -0.42646703 -0.15387499
v 0.20184099 -0.40401542 -0.155789
v 0.215973 -0.39929229 -0.13984
v 0.218002 -0.42151734 -0.137354
v 0.02162842 -0.04874972 -0.21068157
v 0.02109818 -0.02566474 -0.21112935
v 0.04042946 -0.02600516 -0.20828563
v 0.04149842 -0.04913853 -0.20774921
v 0.187289 -0.43245804 -0.165055
v 0.185779 -0.41015088 -0.16634599
v -0.01898885 -0.04787572 -0.21004344
v -0.01842636 -0.02479806 -0.21050691
v 0.00137296 -0.02525008 -0.2118735
v 0.0013594 -0.04831424 -0.21145053
v 0.16725 -0.43948531 -0.171901
v 0.16606099 -0.41727221 -0.17262099
v 0.02547806 -0.14625835 -0.19918651
v 0.02418285 -0.11930985 -0.20411481
v 0.04726003 -0.12034287 -0.20174069
v 0.05037635 -0.14725813 -0.1973578
v 0.14205899 -0.44648155 -0.17498
v 0.141164 -0.42430621 -0.175196
v 0.05904552 -0.02622267 -0.20342877
v 0.06063846 -0.04942278 -0.20275937
v 0.111518 -0.45316928 -0.174839
v 0.11083599 -0.43100777 -0.174637
v 0.075955 -0.45900076 -0.17291499
v 0.075482 -0.43680626 -0.172408
v 0.0766192 -0.02626095 -0.19671921
v 0.07870014 -0.04952731 -0.19587813
v -0.13035234 -0.14671559 -0.17129045
v -0.13861274 -0.17460125 -0.17049527
v 0.036605 -0.4629893 -0.171021
v 0.03633 -0.4407643 -0.17034499
v 0.09283117 -0.02604632 -0.18836362
v 0.09534131 -0.04936476 -0.18730352
v -0.004751 -0.46429052 -0.170603
v -0.004809 -0.44205001 -0.16987699
v -0.14757292 -0.20309618 -0.16980078
v -0.04589 -0.46258637 -0.172102
v -0.04573199 -0.44035574 -0.17144
v -0.08465699 -0.45831736 -0.174831
v -0.084291 -0.43611392 -0.17435799
v 0.10741934 -0.02550794 -0.17857724
v 0.11028726 -0.04885052 -0.17723426
v -0.03908209 -0.04745595 -0.20653305
v -0.03797231 -0.02433677 -0.20709198
v -0.119392 -0.45237687 -0.17718
v -0.118809 -0.43018674 -0.177027
v 0.12019473 -0.02442281 -0.16764879
v 0.12338258 -0.04779112 -0.16594183
v -0.149067 -0.44568616 -0.177312
v -0.14823399 -0.42347022 -0.17759099
v -0.17352299 -0.43871247 -0.173949
v -0.172369 -0.41643807 -0.17473599
v -0.15693667 -0.23192744 -0.16946394
v 0.13138185 -0.02247372 -0.15551546
v 0.1349433 -0.04590271 -0.15337009
v -0.19309 -0.43168824 -0.166709
v -0.19159099 -0.40930885 -0.168063
v -0.02622263 -0.14544373 -0.19877791
v -0.02344484 -0.11848349 -0.20357918
v 0.00039263 -0.11865313 -0.20471146
v -0.00036996 -0.14561931 -0.19963207
v -0.20935399 -0.42560815 -0.15518599
v -0.20745499 -0.40307721 -0.15715
v -0.10653663 -0.02208567 -0.17633634
v -0.10944902 -0.04539664 -0.17495434
v -0.22352799 -0.42058527 -0.138464
v -0.221502 -0.39825198 -0.140999
v -0.21491091 -0.33045011 -0.14631308
v -0.20172375 -0.33535397 -0.16079296
v -0.02125847 -0.09394599 -0.20697075
v 0.12675643 -0.07166495 -0.16444999
v 0.13095334 -0.0963848 -0.16341576
v -0.18694198 -0.34147089 -0.17009861
v -0.16622947 -0.26071909 -0.16953334
v -0.05114437 -0.1457095 -0.19656546
v -0.04665262 -0.11875269 -0.20070953
v 0.06391619 -0.27948781 -0.17707279
v 0.06753174 -0.31175997 -0.17401969
v -0.16377115 -0.3224149 -0.17529967
v -0.16852632 -0.34836077 -0.17537459
v 0.11296773 -0.14998804 -0.18182329
v 0.13621455 -0.12208588 -0.16273151
v 0.14288881 -0.09446663 -0.15020526
v 0.14825443 -0.12006053 -0.14938134
v 0.13503728 -0.23678255 -0.17544242
v 0.15231484 -0.23369213 -0.16926707
v 0.16653573 -0.23064787 -0.16007588
v -0.12312832 -0.11970876 -0.17200352
v -0.14073918 -0.32885575 -0.17719017
v -0.14499881 -0.35512983 -0.17714357
v -0.11725633 -0.09385079 -0.17271937
v -0.11259895 -0.33498969 -0.17628364
v -0.11612403 -0.36149662 -0.17592483
v -0.13468909 -0.3002544 -0.17747682
v -0.12723796 -0.26959127 -0.17822873
v -0.10135306 -0.27413046 -0.17883154
v -0.10757581 -0.30585578 -0.17719358
v 0.15475963 -0.14646226 -0.14870269
v -0.11277951 -0.06916976 -0.17366257
v -0.0797957 -0.34021562 -0.17382437
v -0.08234108 -0.36691877 -0.17304649
v 0.06903028 -0.12152776 -0.19754064
v 0.06527554 -0.09646242 -0.20007765
v -0.06396852 -0.09412067 -0.19844241
v -0.06071341 -0.07028407 -0.20000751
v -0.04062183 -0.07047004 -0.20546877
v -0.04305343 -0.09394633 -0.20364688
v 0.13853561 -0.06977788 -0.15151089
v -0.04337583 -0.3438543 -0.1713324
v -0.04474381 -0.37070074 -0.17018136
v -0.13988591 -0.23482799 -0.17580023
v -0.14884673 -0.26505735 -0.17525543
v 0.0427965 -0.07215633 -0.20669315
v -0.08353493 -0.09428978 -0.19146871
v 0.06026337 -0.24500238 -0.18127059
v 0.05690524 -0.21014814 -0.18640975
v 0.200706 -0.38203141 -0.15735499
v 0.21447399 -0.37719205 -0.14201599
v -0.13084314 -0.20472465 -0.17694911
v 0.185054 -0.38831767 -0.167254
v 0.16559599 -0.39553046 -0.172936
v -0.12216313 -0.17537939 -0.17856246
v 0.140832 -0.4025675 -0.17501699
v -0.11412849 -0.14709216 -0.18025532
v 0.11053299 -0.40919569 -0.17409199
v 0.075217 -0.41484665 -0.17163899
v -0.04132754 -0.314148 -0.17353345
v -0.03870538 -0.28113636 -0.17685754
v 0.03613099 -0.41867205 -0.16947899
v 0.06256471 -0.07266346 -0.20170737
v 0.08114894 -0.07299863 -0.1947973
v -0.004895 -0.41990593 -0.168987
v -0.11908523 -0.23774868 -0.17968601
v -0.045712 -0.4182665 -0.170585
v -0.08420199 -0.41415038 -0.17362299
v -0.09450782 -0.24071466 -0.18140269
v -0.11867299 -0.40834674 -0.17654199
v -0.15705353 -0.29451599 -0.17517808
v -0.14802999 -0.4016734 -0.17750099
v -0.17198699 -0.39460533 -0.175153
v -0.0198324 -0.07073 -0.20896752
v -0.19090099 -0.38737002 -0.169082
v -0.09406523 -0.04609994 -0.1850872
v -0.09712142 -0.06975355 -0.18392469
v -0.20634299 -0.38098612 -0.158821
v -0.09150745 -0.02281075 -0.18618026
v -0.220025 -0.37603914 -0.14326199
v 0.0267295 -0.17664615 -0.19319309
v 0.19931687 -0.3599765 -0.15851384
v 0.21282884 -0.35508447 -0.14376224
v 0.1839904 -0.36624977 -0.16784468
v 0.16472137 -0.37337559 -0.17301979
v 0.09434106 -0.27578237 -0.17763687
v 0.0997244 -0.30720943 -0.17540103
v 0.14004489 -0.38028249 -0.17469045
v -0.10290498 -0.17561037 -0.18466655
v 0.10980995 -0.38674199 -0.17352096
v 0.07463199 -0.39217984 -0.17098699
v 0.17040258 -0.20028883 -0.14731356
v 0.17914581 -0.2272901 -0.14678461
v 0.035764 -0.39583021 -0.16883699
v -0.10708175 -0.12002563 -0.18169127
v -0.004971 -0.39699584 -0.168356
v -0.10137625 -0.09426076 -0.18285928
v -0.04550499 -0.39542889 -0.169942
v -0.08378781 -0.39147806 -0.17298077
v -0.07154543 -0.27819019 -0.17801526
v -0.11812382 -0.38586023 -0.17600967
v -0.14739753 -0.37932482 -0.17724666
v -0.17122177 -0.3723644 -0.17532645
v 0.12091753 -0.27133977 -0.1769929
v 0.1276853 -0.30172464 -0.17561364
v -0.18989799 -0.36520871 -0.16976812
v -0.20498646 -0.35885068 -0.16007179
v -0.07700692 -0.04662195 -0.19385322
v -0.07967632 -0.07008217 -0.19275815
v -0.21841266 -0.35386195 -0.14509594
v 0.12262947 -0.12302176 -0.17402744
v -0.05611312 -0.175631 -0.19154004
v -0.1108572 -0.20606306 -0.18191599
v 0.04464985 -0.09560558 -0.20482575
v -0.08082777 -0.17560827 -0.1889043
v 0.02792258 -0.21049906 -0.18692939
v -0.08759085 -0.20733395 -0.18488694
v 0.05363472 -0.17719246 -0.19201231
v 0.18364048 -0.28520128 -0.15975722
v 0.17530606 -0.25807988 -0.15982963
v 0.1880459 -0.25420823 -0.1464591
v 0.19651953 -0.28086051 -0.14619562
v -0.07612405 -0.31071844 -0.17544193
v -0.05855258 -0.04705068 -0.20107123
v 0.16907776 -0.29022896 -0.1684398
v 0.16092108 -0.26216617 -0.16866792
v 0.14312246 -0.26670712 -0.17416724
v 0.16220878 -0.173303 -0.14801025
v 0.15080539 -0.29594466 -0.17349611
v -0.07487464 -0.02338025 -0.19472377
v -0.05691119 -0.0238713 -0.20176786
g Group38012
f 159 3 2 160
f 160 2 1 130
f 130 1 32 129
f 129 32 31 131
f 131 31 30 132
f 132 30 29 133
f 133 29 28 134
f 134 28 27 135
f 135 27 26 136
f 136 26 25 137
f 24 138 137 25
f 23 139 138 24
f 22 140 139 23
f 21 141 140 22
f 20 142 141 21
f 19 143 142 20
f 18 144 143 19
f 17 145 144 18
f 16 146 145 17
f 15 147 146 16
f 14 148 147 15
f 13 149 148 14
f 12 150 149 13
f 11 151 150 12
f 10 152 151 11
f 9 153 152 10
f 8 154 153 9
f 7 155 154 8
f 6 156 155 7
f 5 157 156 6
f 4 158 157 5
f 3 159 158 4
g Group38037
f 36 35 34 33
g Group38027
f 160 130 289 290
g Group38037
f 38 36 33 37
g Group38027
f 159 160 290 291
g Group38037
f 40 38 37 39
g Group38027
f 158 159 291 292
g Group38037
f 42 40 39 41
g Group38027
f 157 158 292 293
g Group38037
f 44 42 41 43
g Group38027
f 156 157 293 294
g Group38037
f 46 44 43 45
g Group38027
f 155 156 294 295
g Group38037
f 48 46 45 47
g Group38027
f 154 155 295 296
g Group38037
f 50 48 47 49
g Group38027
f 153 154 296 297
g Group38037
f 52 50 49 51
g Group38027
f 152 153 297 298
g Group38037
f 54 52 51 53
g Group38027
f 151 152 298 299
g Group38037
f 56 54 53 55
g Group38027
f 150 151 299 300
g Group38037
f 58 56 55 57
g Group38027
f 149 150 300 301
g Group38037
f 60 58 57 59
g Group38027
f 148 149 301 302
g Group38037
f 62 60 59 61
g Group38027
f 147 148 302 303
g Group38037
f 64 62 61 63
g Group38027
f 146 147 303 304
g Group38037
f 66 64 63 65
g Group38027
f 145 146 304 305
g Group38037
f 68 66 65 67
g Group38027
f 144 145 305 306
g Group38037
f 70 68 67 69
g Group38027
f 143 144 306 307
g Group38037
f 72 70 69 71
g Group38027
f 142 143 307 308
g Group38037
f 74 72 71 73
g Group38027
f 141 142 308 309
g Group38037
f 76 74 73 75
g Group38027
f 140 141 309 310
g Group38037
f 78 76 75 77
g Group38027
f 139 140 310 311
g Group38037
f 80 78 77 79
g Group38027
f 138 139 311 312
g Group38037
f 82 80 79 81
g Group38027
f 137 138 312 313
g Group38037
f 84 82 81 83
g Group38027
f 136 137 313 314
g Group38037
f 86 84 83 85
g Group38027
f 135 136 314 315
g Group38037
f 88 86 85 87
g Group38027
f 134 135 315 316
g Group38037
f 90 88 87 89
g Group38027
f 133 134 316 317
g Group38037
f 92 90 89 91
g Group38027
f 132 133 317 318
g Group38037
f 94 92 91 93
g Group38027
f 131 132 318 319
g Group38037
f 96 94 93 95
g Group38027
f 129 131 319 320
g Group38037
f 35 96 95 34
g Group38027
f 130 129 320 289
g Group38047
f 98 97 161 162
f 32 1 97 98
f 99 98 162 163
f 31 32 98 99
f 100 99 163 164
f 30 31 99 100
f 101 100 164 165
f 29 30 100 101
f 102 101 165 166
f 28 29 101 102
f 103 102 166 167
f 27 28 102 103
f 104 103 167 168
f 26 27 103 104
f 105 104 168 169
f 25 26 104 105
f 106 105 169 170
f 24 25 105 106
f 107 106 170 171
f 23 24 106 107
f 108 107 171 172
f 22 23 107 108
f 109 108 172 173
f 21 22 108 109
f 110 109 173 174
f 20 21 109 110
f 111 110 174 175
f 19 20 110 111
f 112 111 175 176
f 18 19 111 112
f 113 112 176 177
f 17 18 112 113
f 114 113 177 178
f 16 17 113 114
f 115 114 178 179
f 15 16 114 115
f 116 115 179 180
f 14 15 115 116
f 117 116 180 181
f 13 14 116 117
f 118 117 181 182
f 12 13 117 118
f 119 118 182 183
f 11 12 118 119
f 120 119 183 184
f 10 11 119 120
f 121 120 184 185
f 9 10 120 121
f 122 121 185 186
f 8 9 121 122
f 123 122 186 187
f 7 8 122 123
f 124 123 187 188
f 6 7 123 124
f 125 124 188 189
f 5 6 124 125
f 126 125 189 190
f 4 5 125 126
f 127 126 190 191
f 3 4 126 127
f 128 127 191 192
f 2 3 127 128
f 97 128 192 161
f 1 2 128 97
g Group21103
f 196 195 194 193
g Group21106
f 35 36 193 194
f 162 161 195 196
g Group21103
f 198 196 193 197
g Group21106
f 36 38 197 193
f 163 162 196 198
g Group21103
f 200 198 197 199
g Group21106
f 38 40 199 197
f 164 163 198 200
g Group21103
f 202 200 199 201
g Group21106
f 40 42 201 199
f 165 164 200 202
g Group21103
f 204 202 201 203
g Group21106
f 42 44 203 201
f 166 165 202 204
g Group21103
f 206 204 203 205
g Group21106
f 44 46 205 203
f 167 166 204 206
g Group21103
f 208 206 205 207
g Group21106
f 46 48 207 205
f 168 167 206 208
g Group21103
f 210 208 207 209
g Group21106
f 48 50 209 207
f 169 168 208 210
g Group21103
f 212 210 209 211
g Group21106
f 50 52 211 209
f 170 169 210 212
g Group21103
f 214 212 211 213
g Group21106
f 52 54 213 211
f 171 170 212 214
g Group21103
f 216 214 213 215
g Group21106
f 54 56 215 213
f 172 171 214 216
g Group21103
f 218 216 215 217
g Group21106
f 56 58 217 215
f 173 172 216 218
g Group21103
f 220 218 217 219
g Group21106
f 58 60 219 217
f 174 173 218 220
g Group21103
f 222 220 219 221
g Group21106
f 60 62 221 219
f 175 174 220 222
g Group21103
f 224 222 221 223
g Group21106
f 62 64 223 221
f 176 175 222 224
g Group21103
f 226 224 223 225
g Group21106
f 64 66 225 223
f 177 176 224 226
g Group21103
f 228 226 225 227
g Group21106
f 66 68 227 225
f 178 177 226 228
g Group21103
f 230 228 227 229
g Group21106
f 68 70 229 227
f 179 178 228 230
g Group21103
f 232 230 229 231
g Group21106
f 70 72 231 229
f 180 179 230 232
g Group21103
f 234 232 231 233
g Group21106
f 72 74 233 231
f 181 180 232 234
g Group21103
f 236 234 233 235
g Group21106
f 74 76 235 233
f 182 181 234 236
g Group21103
f 238 236 235 237
g Group21106
f 76 78 237 235
f 183 182 236 238
g Group21103
f 240 238 237 239
g Group21106
f 78 80 239 237
f 184 183 238 240
g Group21103
f 242 240 239 241
g Group21106
f 80 82 241 239
f 185 184 240 242
g Group21103
f 244 242 241 243
g Group21106
f 82 84 243 241
f 186 185 242 244
g Group21103
f 246 244 243 245
g Group21106
f 84 86 245 243
f 187 186 244 246
g Group21103
f 248 246 245 247
g Group21106
f 86 88 247 245
f 188 187 246 248
g Group21103
f 250 248 247 249
g Group21106
f 88 90 249 247
f 189 188 248 250
g Group21103
f 252 250 249 251
g Group21106
f 90 92 251 249
f 190 189 250 252
g Group21103
f 254 252 251 253
g Group21106
f 92 94 253 251
f 191 190 252 254
g Group21103
f 256 254 253 255
g Group21106
f 94 96 255 253
f 192 191 254 256
g Group21103
f 195 256 255 194
g Group21106
f 96 35 194 255
f 161 192 256 195
g Group38027
f 258 257 34 95
f 259 258 95 93
f 260 259 93 91
f 261 260 91 89
f 262 261 89 87
f 263 262 87 85
f 264 263 85 83
f 265 264 83 81
f 266 265 81 79
f 267 266 79 77
f 268 267 77 75
f 269 268 75 73
f 270 269 73 71
f 271 270 71 69
f 272 271 69 67
f 273 272 67 65
f 274 273 65 63
f 275 274 63 61
f 276 275 61 59
f 277 276 59 57
f 278 277 57 55
f 279 278 55 53
f 280 279 53 51
f 281 280 51 49
f 282 281 49 47
f 283 282 47 45
f 284 283 45 43
f 285 284 43 41
f 286 285 41 39
f 287 286 39 37
f 288 287 37 33
f 257 288 33 34
f 290 289 257 258
f 291 290 258 259
f 292 291 259 260
f 293 292 260 261
f 294 293 261 262
f 295 294 262 263
f 296 295 263 264
f 297 296 264 265
f 298 297 265 266
f 299 298 266 267
f 300 299 267 268
f 301 300 268 269
f 302 301 269 270
f 303 302 270 271
f 304 303 271 272
f 305 304 272 273
f 306 305 273 274
f 307 306 274 275
f 308 307 275 276
f 309 308 276 277
f 310 309 277 278
f 311 310 278 279
f 312 311 279 280
f 313 312 280 281
f 314 313 281 282
f 315 314 282 283
f 316 315 283 284
f 317 316 284 285
f 318 317 285 286
f 319 318 286 287
f 320 319 287 288
f 289 320 288 257
g Group14932
f 321 324 500 497
g Group23375
f 324 321 322 323
g Group14932
f 325 321 497 501
g Group23375
f 321 325 326 322
g Group14929
f 499 504 503 498
g Group23375
f 323 322 327 328
g Group14929
f 504 506 505 503
g Group23375
f 328 327 329 330
g Group14929
f 503 505 508 507
g Group23375
f 327 331 332 329
g Group14929
f 498 503 507 502
g Group23375
f 322 326 331 327
g Group14929
f 506 510 509 505
g Group23375
f 330 329 333 334
g Group14929
f 510 512 511 509
g Group23375
f 334 333 335 336
g Group14929
f 509 511 514 513
g Group23375
f 333 337 338 335
g Group14929
f 505 509 513 508
g Group23375
f 329 332 337 333
g Group14929
f 512 516 515 511
g Group23375
f 336 335 339 340
g Group14929
f 516 518 517 515
g Group23375
f 340 339 341 342
g Group14929
f 515 517 520 519
g Group23375
f 339 343 344 341
g Group14929
f 511 515 519 514
g Group23375
f 335 338 343 339
g Group14929
f 524 523 522 521
g Group23375
f 347 350 351 345
g Group14929
f 523 526 525 522
g Group23375
f 345 351 352 346
g Group14929
f 522 525 528 527
g Group23375
f 351 353 354 352
g Group14929
f 521 522 527 529
g Group23375
f 350 355 353 351
g Group14929
f 533 532 531 530
g Group23375
f 363 360 361 362
g Group14929
f 530 531 535 534
g Group23375
f 360 365 364 361
g Group14929
f 514 519 537 536
g Group23375
f 338 368 369 343
g Group14929
f 519 520 538 537
g Group23375
f 343 369 358 344
g Group14929
f 542 541 540 539
g Group23375
f 357 359 370 371
g Group14929
f 541 544 543 540
g Group23375
f 371 370 372 373
g Group14929
f 529 546 545 521
g Group23375
f 355 350 374 375
g Group14929
f 546 544 541 545
g Group23375
f 375 374 371 373
g Group14929
f 545 541 542 547
g Group23375
f 374 356 357 371
g Group14929
f 521 545 547 524
g Group23375
f 350 347 356 374
g Group14929
f 529 527 548 546
g Group23375
f 355 375 376 353
g Group14929
f 527 528 549 548
g Group23375
f 353 376 377 354
g Group14929
f 548 549 551 550
g Group23375
f 376 378 379 377
g Group14929
f 546 548 550 544
g Group23375
f 375 373 378 376
g Group14929
f 551 553 552 550
g Group23375
f 379 378 380 381
g Group14929
f 550 552 543 544
g Group23375
f 378 373 372 380
g Group14929
f 557 556 555 554
g Group23375
f 385 382 383 384
g Group14929
f 554 555 559 558
g Group23375
f 382 387 386 383
g Group14932
f 389 388 560 561
g Group23375
f 387 388 389 386
g Group14932
f 391 390 562 563
g Group23375
f 379 381 390 391
g Group14932
f 393 392 564 565
g Group23375
f 354 377 392 393
g Group14932
f 392 391 563 564
g Group23375
f 377 379 391 392
g Group14932
f 395 394 566 567
g Group23375
f 346 352 394 395
g Group14932
f 394 393 565 566
g Group23375
f 352 354 393 394
g Group14932
f 397 396 571 568
g Group23375
f 396 397 398 349
g Group14932
f 399 397 568 572
g Group23375
f 397 399 400 398
g Group14929
f 573 569 575 574
g Group23375
f 400 401 402 398
g Group14929
f 569 570 576 575
g Group23375
f 398 402 348 349
g Group14929
f 575 576 518 516
g Group23375
f 402 340 342 348
g Group14929
f 574 575 516 512
g Group23375
f 401 336 340 402
g Group14929
f 506 504 577 510
g Group23375
f 330 334 403 328
g Group14929
f 504 499 578 577
g Group23375
f 328 403 404 323
g Group14929
f 577 578 573 574
g Group23375
f 403 401 400 404
g Group14929
f 510 577 574 512
g Group23375
f 334 336 401 403
g Group14932
f 324 405 579 500
g Group23375
f 323 404 405 324
g Group14932
f 405 399 572 579
g Group23375
f 404 400 399 405
g Group14929
f 502 507 581 580
g Group23375
f 326 406 407 331
g Group14929
f 507 508 582 581
g Group23375
f 331 407 408 332
g Group14932
f 409 325 501 583
g Group23375
f 326 325 409 406
g Group14932
f 412 410 587 584
g Group23375
f 410 412 413 411
g Group14932
f 417 416 590 591
g Group23375
f 417 414 415 416
g Group14932
f 419 417 591 593
g Group23375
f 419 418 414 417
g Group14932
f 420 412 584 594
g Group23375
f 412 420 421 413
g Group14932
f 416 420 594 590
g Group23375
f 420 416 415 421
g Group14929
f 599 598 597 596
g Group23375
f 425 422 423 424
g Group14929
f 598 585 586 597
g Group23375
f 424 423 411 413
g Group14929
f 603 602 601 600
g Group23375
f 429 426 427 428
g Group14929
f 602 599 604 601
g Group23375
f 428 427 430 425
g Group14929
f 601 604 533 605
g Group23375
f 427 431 363 430
g Group14929
f 600 601 605 606
g Group23375
f 426 432 431 427
g Group14929
f 599 602 607 598
g Group23375
f 425 424 433 428
g Group14929
f 602 603 608 607
g Group23375
f 428 433 434 429
g Group14929
f 607 608 589 595
g Group23375
f 433 421 415 434
g Group14929
f 598 607 595 585
g Group23375
f 424 413 421 433
g Group14929
f 606 610 609 600
g Group23375
f 432 426 435 436
g Group14929
f 610 592 588 609
g Group23375
f 436 435 414 418
g Group14929
f 609 588 589 608
g Group23375
f 435 434 415 414
g Group14929
f 600 609 608 603
g Group23375
f 426 429 434 435
g Group14929
f 614 613 612 611
g Group23375
f 440 437 438 439
g Group14929
f 613 616 615 612
g Group23375
f 439 438 441 442
g Group14929
f 612 615 592 610
g Group23375
f 438 436 418 441
g Group14929
f 611 612 610 606
g Group23375
f 437 432 436 438
g Group14929
f 606 605 617 611
g Group23375
f 432 437 443 431
g Group14929
f 605 533 530 617
g Group23375
f 431 443 360 363
g Group14929
f 617 530 534 618
g Group23375
f 443 444 365 360
g Group14929
f 611 617 618 614
g Group23375
f 437 440 444 443
g Group14929
f 619 532 533 604
g Group23375
f 445 430 363 362
g Group14929
f 596 619 604 599
g Group23375
f 422 425 430 445
g Group14929
f 514 536 620 513
g Group23375
f 338 337 446 368
g Group14929
f 513 620 582 508
g Group23375
f 337 332 408 446
g Group14932
f 450 419 593 621
g Group23375
f 450 441 418 419
g Group14932
f 447 450 621 622
g Group23375
f 447 442 441 450
g Group14929
f 626 625 624 623
g Group23375
f 449 453 454 451
g Group14929
f 625 628 627 624
g Group23375
f 451 454 455 452
g Group14929
f 624 627 630 629
g Group23375
f 454 456 457 455
g Group14929
f 623 624 629 631
g Group23375
f 453 458 456 454
g Group14929
f 557 634 633 632
g Group23375
f 385 459 460 461
g Group14929
f 634 630 627 633
g Group23375
f 461 460 455 457
g Group14929
f 633 627 628 635
g Group23375
f 460 462 452 455
g Group14929
f 632 633 635 636
g Group23375
f 459 367 462 460
g Group14932
f 463 448 637 638
g Group23375
f 463 453 449 448
g Group14932
f 464 463 638 639
g Group23375
f 464 458 453 463
g Group14929
f 630 634 640 629
g Group23375
f 457 456 465 461
g Group14929
f 634 557 554 640
g Group23375
f 461 465 382 385
g Group14929
f 640 554 558 641
g Group23375
f 465 466 387 382
g Group14929
f 629 640 641 631
g Group23375
f 456 458 466 465
g Group14929
f 636 643 642 632
g Group23375
f 367 459 467 366
g Group14929
f 632 642 556 557
g Group23375
f 459 385 384 467
g Group14932
f 388 468 644 560
g Group23375
f 387 466 468 388
g Group14932
f 468 464 639 644
g Group23375
f 466 458 464 468
g Group14929
f 526 523 646 645
g Group23375
f 346 470 469 345
g Group14929
f 523 524 647 646
g Group23375
f 345 469 471 347
g Group14929
f 649 648 518 576
g Group23375
f 472 348 342 473
g Group14929
f 650 649 576 570
g Group23375
f 474 349 348 472
g Group14929
f 520 517 652 651
g Group23375
f 344 476 475 341
g Group14929
f 517 518 648 652
g Group23375
f 341 475 473 342
g Group14929
f 653 647 524 547
g Group23375
f 477 356 347 471
g Group14929
f 654 653 547 542
g Group23375
f 478 357 356 477
g Group14929
f 538 520 651 655
g Group23375
f 358 479 476 344
g Group14929
f 656 654 542 539
g Group23375
f 480 359 357 478
g Group14929
f 636 658 657 643
g Group23375
f 367 366 482 481
g Group14929
f 660 534 535 659
g Group23375
f 483 484 364 365
g Group14932
f 485 395 567 661
g Group23375
f 485 470 346 395
g Group14932
f 396 486 662 571
g Group23375
f 396 349 474 486
g Group14932
f 488 447 622 663
g Group23375
f 447 488 487 442
g Group14932
f 448 489 666 637
g Group23375
f 489 448 449 490
g Group14929
f 614 668 667 613
g Group23375
f 440 439 492 491
g Group14929
f 670 628 625 669
g Group23375
f 493 494 451 452
g Group14929
f 669 625 626 665
g Group23375
f 494 490 449 451
g Group14929
f 613 667 664 616
g Group23375
f 439 442 487 492
g Group14929
f 534 660 671 618
g Group23375
f 365 444 495 483
g Group14929
f 658 636 635 672
g Group23375
f 481 496 462 367
g Group14929
f 672 635 628 670
g Group23375
f 496 493 452 462
g Group14929
f 618 671 668 614
g Group23375
f 444 440 491 495
g Group14929
f 646 647 648 649
g Group23375
f 469 472 473 471
g Group14929
f 645 646 649 650
g Group23375
f 470 474 472 469
g Group14929
f 647 653 652 648
g Group23375
f 471 473 475 477
g Group14929
f 651 652 653 654
g Group23375
f 476 478 477 475
g Group14929
f 654 656 655 651
g Group23375
f 478 476 479 480
g Group14929
f 657 658 660 659
g Group23375
f 482 484 483 481
g Group14932
f 486 485 661 662
g Group23375
f 474 470 485 486
g Group14929
f 667 668 670 669
g Group23375
f 492 494 493 491
g Group14929
f 658 672 671 660
g Group23375
f 481 483 495 496
g Group14929
f 668 671 672 670
g Group23375
f 491 493 496 495
g Group14929
f 532 705 706 531
g Group23375
f 362 361 707 708
g Group14929
f 531 706 709 535
g Group23375
f 361 364 710 707
g Group14929
f 537 538 673 674
g Group23375
f 369 675 676 358
g Group14929
f 536 537 674 677
g Group23375
f 368 678 675 369
g Group14929
f 540 543 679 680
g Group23375
f 370 681 682 372
g Group14929
f 539 540 680 683
g Group23375
f 359 684 681 370
g Group14929
f 553 685 686 552
g Group23375
f 381 380 687 688
g Group14929
f 552 686 679 543
g Group23375
f 380 372 682 687
g Group14929
f 556 711 712 555
g Group23375
f 384 383 713 714
g Group14929
f 555 712 715 559
g Group23375
f 383 386 716 713
f 702 704 480 479
f 386 389 718 716
g Group14932
f 390 690 689 562
g Group23375
f 381 688 690 390
g Group14929
f 581 582 691 692
g Group23375
f 407 693 694 408
g Group14929
f 580 581 692 695
g Group23375
f 406 696 693 407
g Group14932
f 721 698 697 720
g Group23375
f 406 409 698 696
g Group14929
f 701 655 656 703
g Group14932
f 410 721 720 587
g Group23375
f 704 684 359 480
g Group14929
f 597 586 719 723
g Group23375
f 423 724 722 411
g Group14929
f 596 597 723 725
g Group23375
f 422 726 724 423
g Group14929
f 703 656 539 683
g Group23375
f 676 702 479 358
g Group14929
f 673 538 655 701
g Group23375
f 700 694 726 728
g Group14929
f 536 677 699 620
g Group23375
f 368 446 700 678
g Group14929
f 620 699 691 582
g Group23375
f 446 408 694 700
g Group14929
f 643 729 730 642
g Group23375
f 366 467 731 732
g Group14929
f 642 730 711 556
g Group23375
f 467 384 714 731
f 710 734 702 676
f 736 732 684 704
g Group14929
f 659 535 709 733
g Group23375
f 484 734 710 364
g Group14929
f 643 657 735 729
g Group23375
f 366 732 736 482
f 734 736 704 702
f 678 700 728 708
f 736 734 484 482
g Group14929
f 735 657 659 733
g Group23375
f 696 698 721 722
g Group14932
f 698 409 583 697
g Group23375
f 696 722 724 693
f 693 724 726 694
f 728 445 362 708
g Group14929
f 727 705 532 619
g Group23375
f 726 422 445 728
g Group14929
f 725 727 619 596
g Group23375
f 688 716 718 690
g Group14932
f 690 718 717 689
g Group23375
f 687 682 714 713
f 721 410 411 722
f 688 687 713 716
g Group14932
f 718 389 561 717
g Group23375
f 684 732 731 681
f 681 731 714 682
f 678 708 707 675
f 675 707 710 676
g Group14929
f 665 664 667 669
g Group23375
f 490 494 492 487
g Group14932
f 489 488 663 666
g Group23375
f 489 490 487 488
g Group21100
f 740 739 738 737
f 497 500 740 737
f 499 498 738 739
f 737 738 742 741
f 501 497 737 741
f 498 502 742 738
f 746 745 744 743
f 561 560 743 744
f 558 559 745 746
f 750 749 748 747
f 553 551 750 747
f 563 562 748 749
f 754 753 752 751
f 549 528 754 751
f 565 564 752 753
f 751 752 749 750
f 551 549 751 750
f 564 563 749 752
f 758 757 756 755
f 525 526 758 755
f 567 566 756 757
f 755 756 753 754
f 528 525 755 754
f 566 565 753 756
f 762 761 760 759
f 568 571 762 759
f 570 569 760 761
f 759 760 764 763
f 572 568 759 763
f 569 573 764 760
f 739 740 766 765
f 578 499 739 765
f 500 579 766 740
f 765 766 763 764
f 573 578 765 764
f 579 572 763 766
f 742 768 767 741
f 583 501 741 767
f 502 580 768 742
f 772 771 770 769
f 584 587 772 769
f 586 585 770 771
f 776 775 774 773
f 589 588 773 774
f 591 590 775 776
f 778 776 773 777
f 588 592 777 773
f 593 591 776 778
f 769 770 780 779
f 594 584 769 779
f 585 595 780 770
f 779 780 774 775
f 590 594 779 775
f 595 589 774 780
f 782 778 777 781
f 592 615 781 777
f 621 593 778 782
f 784 782 781 783
f 615 616 783 781
f 622 621 782 784
f 788 787 786 785
f 626 623 785 786
f 638 637 787 788
f 790 788 785 789
f 623 631 789 785
f 639 638 788 790
f 746 743 792 791
f 641 558 746 791
f 560 644 792 743
f 791 792 790 789
f 631 641 791 789
f 644 639 790 792
f 794 757 758 793
f 526 645 793 758
f 661 567 757 794
f 762 796 795 761
f 650 570 761 795
f 571 662 796 762
f 784 783 798 797
f 663 622 784 797
f 616 664 798 783
f 800 799 786 787
f 637 666 800 787
f 665 626 786 799
f 795 796 794 793
f 645 650 795 793
f 662 661 794 796
f 745 802 801 744
f 717 561 744 801
f 559 715 802 745
f 747 748 804 803
f 685 553 747 803
f 562 689 804 748
f 768 806 805 767
f 697 583 767 805
f 580 695 806 768
f 810 809 808 807
f 733 709 810 807
f 673 701 808 809
f 814 813 812 811
f 729 735 814 811
f 703 683 812 813
f 807 808 813 814
f 735 733 807 814
f 701 703 813 808
f 818 817 816 815
f 691 699 818 815
f 727 725 816 817
f 820 819 817 818
f 699 677 820 818
f 705 727 817 819
f 806 822 821 805
f 720 697 805 821
f 806 824 823 822
f 723 719 822 823
f 695 692 824 806
f 824 815 816 823
f 725 723 823 816
f 692 691 815 824
f 803 804 801 802
f 689 717 801 804
f 828 827 826 825
f 679 686 828 825
f 712 711 826 827
f 821 822 771 772
f 587 720 821 772
f 719 586 771 822
f 803 802 827 828
f 686 685 803 828
f 715 712 827 802
f 812 830 829 811
f 730 729 811 829
f 683 680 830 812
f 830 825 826 829
f 711 730 829 826
f 680 679 825 830
f 820 832 831 819
f 706 705 819 831
f 677 674 832 820
f 832 809 810 831
f 709 706 831 810
f 674 673 809 832
f 800 797 798 799
f 664 665 799 798
f 666 663 797 800
g Group55523
f 1125 1124 1123 1122
f 942 943 960 959
f 1129 1128 1127 1126
f 908 909 926 925
f 1133 1132 1131 1130
f 1002 985 1130 1131
f 984 985 1002 1001
f 1137 1136 1135 1134
f 1031 1032 1049 1048
f 1141 1140 1139 1138
f 968 951 1138 1139
f 950 951 968 967
f 1143 1142 1128 1129
f 907 908 925 924
f 1132 1145 1144 1131
f 1019 1002 1131 1144
f 1001 1002 1019 1018
f 1149 1148 1147 1146
f 973 974 991 990
f 1145 1151 1150 1144
f 1036 1019 1144 1150
f 1018 1019 1036 1035
f 1155 1154 1153 1152
f 1007 1008 1025 1024
f 1157 1156 1142 1143
f 906 907 924 923
f 1159 1141 1138 1158
f 951 934 1158 1138
f 933 934 951 950
f 1163 1162 1161 1160
f 987 988 1005 1004
f 1165 1164 1156 1157
f 905 906 923 922
f 1151 1167 1166 1150
f 1053 1036 1150 1166
f 1035 1036 1053 1052
f 1171 1170 1169 1168
f 1056 1057 1074 1073
f 1167 1173 1172 1166
f 1070 1053 1166 1172
f 1052 1053 1070 1069
f 1175 1174 1164 1165
f 904 905 922 921
f 1179 1178 1177 1176
f 994 995 1012 1011
f 1183 1182 1181 1180
f 1061 1062 1079 1078
f 1173 1185 1184 1172
f 1087 1070 1172 1184
f 1069 1070 1087 1086
f 1187 1186 1174 1175
f 903 904 921 920
f 1189 1188 1141 1159
f 932 933 950 949
f 1162 1191 1190 1161
f 1004 1005 1022 1021
f 1193 1192 1186 1187
f 902 903 920 919
f 1124 1195 1194 1123
f 959 960 977 976
f 1185 1197 1196 1184
f 1104 1087 1184 1196
f 1086 1087 1104 1103
f 1200 1176 1199 1198
f 978 979 996 995
f 1140 1133 1130 1139
f 985 968 1139 1130
f 967 968 985 984
f 1202 1201 1192 1193
f 901 918 1201 1202
f 901 902 919 918
f 1197 1204 1203 1196
f 1121 1104 1196 1203
f 1120 1121 1203 1204
f 1103 1104 1121 1120
f 1207 1168 1206 1205
f 1040 1041 1058 1057
f 1209 1208 1155 1148
f 989 990 1007 1006
f 1213 1212 1211 1210
f 834 833 1213 1210
f 833 850 1212 1213
f 833 834 851 850
f 1217 1216 1215 1214
f 1111 1112 1215 1216
f 1094 1095 1112 1111
f 1210 1211 1219 1218
f 835 834 1210 1218
f 834 835 852 851
f 1223 1222 1221 1220
f 1113 1114 1221 1222
f 1096 1097 1114 1113
f 1218 1219 1225 1224
f 836 835 1218 1224
f 835 836 853 852
f 1229 1228 1227 1226
f 1026 1027 1044 1043
f 1224 1225 1231 1230
f 837 836 1224 1230
f 836 837 854 853
f 1233 1232 1216 1217
f 1110 1111 1216 1232
f 1093 1094 1111 1110
f 1230 1231 1235 1234
f 838 837 1230 1234
f 837 838 855 854
f 1234 1235 1237 1236
f 839 838 1234 1236
f 838 839 856 855
f 1239 1238 1232 1233
f 1109 1110 1232 1238
f 1092 1093 1110 1109
f 1241 1240 1151 1145
f 1017 1018 1035 1034
f 1236 1237 1243 1242
f 840 839 1236 1242
f 839 840 857 856
f 1245 1244 1238 1239
f 1108 1109 1238 1244
f 1091 1092 1109 1108
f 1242 1243 1247 1246
f 841 840 1242 1246
f 840 841 858 857
f 1248 1241 1145 1132
f 1000 1001 1018 1017
f 1246 1247 1250 1249
f 842 841 1246 1249
f 841 842 859 858
f 1249 1250 1252 1251
f 843 842 1249 1251
f 842 843 860 859
f 1254 1253 1244 1245
f 1107 1108 1244 1253
f 1090 1091 1108 1107
f 1220 1221 1256 1255
f 1114 1115 1256 1221
f 1097 1098 1115 1114
f 1251 1252 1258 1257
f 844 843 1251 1257
f 843 844 861 860
f 1260 1259 1253 1254
f 1106 1107 1253 1259
f 1089 1090 1107 1106
f 1257 1258 1262 1261
f 845 844 1257 1261
f 844 845 862 861
f 1261 1262 1264 1263
f 846 845 1261 1263
f 845 846 863 862
f 1265 1248 1132 1133
f 983 984 1001 1000
f 1267 1266 1259 1260
f 1105 1106 1259 1266
f 1088 1105 1266 1267
f 1088 1089 1106 1105
f 1263 1264 1269 1268
f 847 846 1263 1268
f 846 847 864 863
f 1273 1272 1271 1270
f 1028 1029 1046 1045
f 1268 1269 1275 1274
f 848 847 1268 1274
f 847 848 865 864
f 1277 1276 1204 1197
f 1119 1120 1204 1276
f 1102 1103 1120 1119
f 1274 1275 1279 1278
f 849 848 1274 1278
f 866 849 1278 1279
f 848 849 866 865
f 1214 1215 1222 1223
f 1112 1113 1222 1215
f 1095 1096 1113 1112
f 1281 1159 1158 1280
f 934 917 1280 1158
f 916 917 934 933
f 1272 1180 1282 1271
f 1045 1046 1063 1062
f 1160 1161 1208 1209
f 988 989 1006 1005
f 1284 1283 1170 1171
f 1055 1056 1073 1072
f 1285 1189 1159 1281
f 915 916 933 932
f 1286 1265 1133 1140
f 966 967 984 983
f 1270 1271 1288 1287
f 1029 1030 1047 1046
f 1290 1289 1124 1125
f 941 942 959 958
f 1292 1291 1189 1285
f 914 915 932 931
f 1293 1207 1205 1154
f 1023 1024 1041 1040
f 1296 1295 1284 1294
f 1037 1054 1295 1296
f 1037 1038 1055 1054
f 1297 1209 1148 1149
f 972 973 990 989
f 1299 1163 1160 1298
f 970 971 988 987
f 1240 1300 1167 1151
f 1034 1035 1052 1051
f 1302 1301 1291 1292
f 913 914 931 930
f 1300 1303 1173 1167
f 1051 1052 1069 1068
f 1305 1304 1301 1302
f 912 913 930 929
f 1309 1308 1307 1306
f 946 947 964 963
f 1310 1296 1294 1191
f 1020 1037 1296 1310
f 1020 1021 1038 1037
f 1303 1311 1185 1173
f 1068 1069 1086 1085
f 1313 1312 1304 1305
f 911 912 929 928
f 1205 1206 1315 1314
f 1041 1042 1059 1058
f 1319 1318 1317 1316
f 1064 1065 1082 1081
f 1295 1320 1283 1284
f 1054 1071 1320 1295
f 1054 1055 1072 1071
f 1154 1205 1314 1153
f 1024 1025 1042 1041
f 1311 1277 1197 1185
f 1085 1086 1103 1102
f 1322 1321 1312 1313
f 910 911 928 927
f 1324 1323 1265 1286
f 965 966 983 982
f 1126 1127 1321 1322
f 909 910 927 926
f 1325 1217 1214 1182
f 1077 1078 1095 1094
f 1136 1316 1326 1135
f 1048 1049 1066 1065
f 1146 1147 1328 1327
f 974 975 992 991
f 1212 1330 1329 1211
f 850 867 1330 1212
f 850 851 868 867
f 1323 1331 1248 1265
f 982 983 1000 999
f 1211 1329 1332 1219
f 851 852 869 868
f 1188 1286 1140 1141
f 949 950 967 966
f 1219 1332 1333 1225
f 852 853 870 869
f 1331 1334 1241 1248
f 999 1000 1017 1016
f 1225 1333 1335 1231
f 853 854 871 870
f 1334 1336 1240 1241
f 1016 1017 1034 1033
f 1231 1335 1337 1235
f 854 855 872 871
f 1235 1337 1338 1237
f 855 856 873 872
f 1289 1327 1195 1124
f 958 959 976 975
f 1122 1123 1340 1339
f 943 944 961 960
f 1237 1338 1341 1243
f 856 857 874 873
f 1343 1239 1233 1342
f 1075 1076 1093 1092
f 1243 1341 1344 1247
f 857 858 875 874
f 1307 1345 1323 1324
f 964 965 982 981
f 1247 1344 1346 1250
f 858 859 876 875
f 1250 1346 1347 1252
f 859 860 877 876
f 1342 1233 1217 1325
f 1076 1077 1094 1093
f 1308 1348 1345 1307
f 963 964 981 980
f 1252 1347 1349 1258
f 860 861 878 877
f 1291 1350 1188 1189
f 931 932 949 948
f 1258 1349 1351 1262
f 861 862 879 878
f 1262 1351 1352 1264
f 862 863 880 879
f 1353 1220 1255 1318
f 1080 1081 1098 1097
f 1182 1214 1223 1181
f 1078 1079 1096 1095
f 1264 1352 1354 1269
f 863 864 881 880
f 1356 1355 1277 1311
f 1084 1085 1102 1101
f 1269 1354 1357 1275
f 864 865 882 881
f 1355 1358 1276 1277
f 1118 1119 1276 1358
f 1101 1102 1119 1118
f 1275 1357 1359 1279
f 883 866 1279 1359
f 865 866 883 882
f 1360 1226 1273 1178
f 1010 1011 1028 1027
f 1330 1362 1361 1329
f 867 884 1362 1330
f 867 868 885 884
f 1148 1155 1152 1147
f 990 991 1008 1007
f 1329 1361 1363 1332
f 868 869 886 885
f 1178 1273 1270 1177
f 1011 1012 1029 1028
f 1332 1363 1364 1333
f 869 870 887 886
f 1366 1365 1289 1290
f 940 941 958 957
f 1333 1364 1367 1335
f 870 871 888 887
f 1368 1134 1336 1334
f 1015 1016 1033 1032
f 1335 1367 1369 1337
f 871 872 889 888
f 1337 1369 1370 1338
f 872 873 890 889
f 1161 1190 1293 1208
f 1005 1006 1023 1022
f 1372 1371 1163 1299
f 969 986 1371 1372
f 969 970 987 986
f 1338 1370 1373 1341
f 873 874 891 890
f 1336 1374 1300 1240
f 1033 1034 1051 1050
f 1341 1373 1375 1344
f 874 875 892 891
f 1374 1376 1303 1300
f 1050 1051 1068 1067
f 1344 1375 1377 1346
f 875 876 893 892
f 1346 1377 1378 1347
f 876 877 894 893
f 1340 1200 1198 1379
f 961 962 979 978
f 1376 1356 1311 1303
f 1067 1068 1085 1084
f 1347 1378 1380 1349
f 877 878 895 894
f 1301 1306 1350 1291
f 930 931 948 947
f 1349 1380 1381 1351
f 878 879 896 895
f 1351 1381 1382 1352
f 879 880 897 896
f 1365 1146 1327 1289
f 957 958 975 974
f 1384 1383 1365 1366
f 939 940 957 956
f 1352 1382 1385 1354
f 880 881 898 897
f 1383 1149 1146 1365
f 956 957 974 973
f 1354 1385 1386 1357
f 881 882 899 898
f 1388 1387 1355 1356
f 1083 1084 1101 1100
f 1357 1386 1389 1359
f 900 883 1359 1389
f 882 883 900 899
f 1191 1294 1390 1190
f 1021 1022 1039 1038
f 1177 1270 1287 1391
f 1012 1013 1030 1029
f 1345 1392 1331 1323
f 981 982 999 998
f 1298 1160 1209 1297
f 971 972 989 988
f 1123 1194 1200 1340
f 960 961 978 977
f 1164 1384 1366 1156
f 922 923 940 939
f 1392 1368 1334 1331
f 998 999 1016 1015
f 1393 1325 1182 1183
f 1060 1061 1078 1077
f 1394 1137 1134 1368
f 1014 1015 1032 1031
f 1327 1328 1395 1195
f 975 976 993 992
f 1156 1366 1290 1142
f 923 924 941 940
f 1169 1245 1239 1343
f 1074 1075 1092 1091
f 1396 1394 1368 1392
f 997 998 1015 1014
f 1152 1153 1229 1397
f 1008 1009 1026 1025
f 1170 1254 1245 1169
f 1073 1074 1091 1090
f 1390 1171 1168 1207
f 1039 1040 1057 1056
f 1350 1324 1286 1188
f 948 949 966 965
f 1401 1400 1399 1398
f 935 952 1400 1401
f 935 936 953 952
f 1402 1379 1308 1309
f 945 946 963 962
f 1283 1260 1254 1170
f 1072 1073 1090 1089
f 1348 1396 1392 1345
f 980 981 998 997
f 1142 1290 1125 1128
f 924 925 942 941
f 1320 1267 1260 1283
f 1071 1088 1267 1320
f 1071 1072 1089 1088
f 1226 1227 1272 1273
f 1027 1028 1045 1044
f 1287 1288 1136 1137
f 1030 1031 1048 1047
f 1397 1229 1226 1360
f 1009 1010 1027 1026
f 1317 1403 1387 1388
f 1082 1083 1100 1099
f 1194 1179 1176 1200
f 977 978 995 994
f 1379 1198 1348 1308
f 962 963 980 979
f 1128 1125 1122 1127
f 925 926 943 942
f 1294 1284 1171 1390
f 1038 1039 1056 1055
f 1398 1399 1405 1404
f 936 937 954 953
f 1206 1343 1342 1315
f 1058 1059 1076 1075
f 1362 1202 1193 1361
f 884 901 1202 1362
f 884 885 902 901
f 1181 1223 1220 1353
f 1079 1080 1097 1096
f 1361 1193 1187 1363
f 885 886 903 902
f 1198 1199 1396 1348
f 979 980 997 996
f 1363 1187 1175 1364
f 886 887 904 903
f 1153 1314 1228 1229
f 1025 1026 1043 1042
f 1364 1175 1165 1367
f 887 888 905 904
f 1199 1391 1394 1396
f 996 997 1014 1013
f 1367 1165 1157 1369
f 888 889 906 905
f 1369 1157 1143 1370
f 889 890 907 906
f 1314 1315 1393 1228
f 1042 1043 1060 1059
f 1406 1297 1149 1383
f 955 956 973 972
f 1370 1143 1129 1373
f 890 891 908 907
f 1228 1393 1183 1227
f 1043 1044 1061 1060
f 1373 1129 1126 1375
f 891 892 909 908
f 1147 1152 1397 1328
f 991 992 1009 1008
f 1375 1126 1322 1377
f 892 893 910 909
f 1377 1322 1313 1378
f 893 894 911 910
f 1407 1310 1191 1162
f 1003 1020 1310 1407
f 1003 1004 1021 1020
f 1405 1298 1297 1406
f 954 955 972 971
f 1378 1313 1305 1380
f 894 895 912 911
f 1408 1406 1383 1384
f 938 939 956 955
f 1380 1305 1302 1381
f 895 896 913 912
f 1381 1302 1292 1382
f 896 897 914 913
f 1400 1372 1299 1399
f 952 969 1372 1400
f 952 953 970 969
f 1227 1183 1180 1272
f 1044 1045 1062 1061
f 1382 1292 1285 1385
f 897 898 915 914
f 1315 1342 1325 1393
f 1059 1060 1077 1076
f 1385 1285 1281 1386
f 898 899 916 915
f 1387 1409 1358 1355
f 1117 1118 1358 1409
f 1100 1101 1118 1117
f 1386 1281 1280 1389
f 917 900 1389 1280
f 899 900 917 916
f 1328 1397 1360 1395
f 992 993 1010 1009
f 1208 1293 1154 1155
f 1006 1007 1024 1023
f 1304 1309 1306 1301
f 929 930 947 946
f 1255 1256 1410 1403
f 1115 1116 1410 1256
f 1098 1099 1116 1115
f 1168 1169 1343 1206
f 1057 1058 1075 1074
f 1201 1401 1398 1192
f 918 935 1401 1201
f 918 919 936 935
f 1176 1177 1391 1199
f 995 996 1013 1012
f 1180 1181 1353 1282
f 1062 1063 1080 1079
f 1391 1287 1137 1394
f 1013 1014 1031 1030
f 1190 1390 1207 1293
f 1022 1023 1040 1039
f 1371 1407 1162 1163
f 986 1003 1407 1371
f 986 987 1004 1003
f 1306 1307 1324 1350
f 947 948 965 964
f 1339 1340 1379 1402
f 944 945 962 961
f 1399 1299 1298 1405
f 953 954 971 970
f 1134 1135 1374 1336
f 1032 1033 1050 1049
f 1192 1398 1404 1186
f 919 920 937 936
f 1135 1326 1376 1374
f 1049 1050 1067 1066
f 1288 1319 1316 1136
f 1047 1048 1065 1064
f 1127 1122 1339 1321
f 926 927 944 943
f 1271 1282 1319 1288
f 1046 1047 1064 1063
f 1326 1388 1356 1376
f 1066 1067 1084 1083
f 1186 1404 1408 1174
f 920 921 938 937
f 1312 1402 1309 1304
f 928 929 946 945
f 1282 1353 1318 1319
f 1063 1064 1081 1080
f 1321 1339 1402 1312
f 927 928 945 944
f 1316 1317 1388 1326
f 1065 1066 1083 1082
f 1318 1255 1403 1317
f 1081 1082 1099 1098
f 1395 1360 1178 1179
f 993 994 1011 1010
f 1404 1405 1406 1408
f 937 938 955 954
f 1174 1408 1384 1164
f 921 922 939 938
f 1403 1410 1409 1387
f 1116 1117 1409 1410
f 1099 1100 1117 1116
f 1195 1395 1179 1194
f 976 977 994 993

 