# File exported by ZBrush version 2021
# www.zbrush.com
#Vertex Count 1250
#Face Count 1280
#Auto scale x=1.000000 y=1.000000 z=1.000000
#Auto offset x=0.000000 y=0.000000 z=0.000000
v 0.00159171 -0.01992211 -0.21378509
v -0.0821753 -0.01172328 -0.19622398
v -0.15089876 0.00791007 -0.14567166
v -0.19469419 0.02732202 -0.06886272
v -0.20955513 0.03530043 0.02270118
v -0.19469401 0.02732247 0.11426576
v -0.15089878 0.00791123 0.19107477
v -0.08217517 -0.01172179 0.24162644
v 0.00159172 -0.01992044 0.25918811
v 0.08535821 -0.01172185 0.24162641
v 0.15408253 0.00791102 0.19107461
v 0.19787968 0.02732217 0.11426576
v 0.21274028 0.03530022 0.0227012
v 0.19787979 0.02732202 -0.06886259
v 0.15408344 0.00790989 -0.14567165
v 0.08535843 -0.01172325 -0.19622398
v 0.00159171 -0.02652505 -0.28088837
v -0.10578139 -0.01298758 -0.25870728
v -0.19194056 0.01925045 -0.19438569
v -0.24503569 0.05087748 -0.095702
v -0.26259806 0.06380391 0.02270118
v -0.24503481 0.05087822 0.14110496
v -0.19194036 0.01925188 0.23978805
v -0.10578056 -0.01298588 0.30410909
v 0.00159174 -0.02652362 0.32628977
v 0.10896397 -0.012986 0.30410909
v 0.19512516 0.01925161 0.23978802
v 0.24822148 0.05087751 0.14110487
v 0.26578393 0.06380388 0.02270116
v 0.24822156 0.05087727 -0.095702
v 0.19512605 0.01925068 -0.19438573
v 0.1089648 -0.01298699 -0.25870728
v 0.00159172 -0.03577888 -0.35637009
v -0.13214442 -0.01488259 -0.32929366
v -0.2362892 0.03453031 -0.24996389
v -0.29750117 0.08254468 -0.12660984
v -0.31699919 0.10204045 0.02270104
v -0.29750043 0.0825451 0.17201203
v -0.2362888 0.03453141 0.29536593
v -0.13214355 -0.01488203 0.37469452
v 0.00159186 -0.03577793 0.40177166
v 0.13532798 -0.01488212 0.37469452
v 0.23947539 0.03453144 0.29536587
v 0.30068743 0.08254498 0.17201139
v 0.32018533 0.10204054 0.02270095
v 0.30068746 0.08254474 -0.12660984
v 0.23947487 0.03453049 -0.24996389
v 0.13532806 -0.0148825 -0.3292936
v 0.00159176 -0.0470862 -0.43157589
v -0.15820658 -0.01732761 -0.40002852
v -0.27811378 0.05245205 -0.30638551
v -0.34434282 0.1194908 -0.1583537
v -0.3643428 0.14650516 0.02270104
v -0.34434256 0.11949177 0.20375601
v -0.278113 0.05245256 0.35178726
v -0.15820561 -0.01732707 0.4454298
v 0.0015919 -0.0470851 0.47697693
v 0.16139063 -0.01732713 0.4454298
v 0.28129944 0.05245292 0.35178726
v 0.3475264 0.11949165 0.20375593
v 0.36752641 0.14650511 0.02270103
v 0.34752741 0.11949083 -0.15835371
v 0.28129947 0.05245173 -0.30638551
v 0.16139061 -0.01732758 -0.40002852
v 0.00159204 -0.06018969 -0.50650245
v -0.18397319 -0.02030775 -0.47091656
v -0.31746172 0.07238352 -0.36365741
v -0.38574501 0.16038572 -0.19093525
v -0.40490439 0.19556997 0.0227012
v -0.38574382 0.16038586 0.2363384
v -0.31746149 0.0723845 0.40905946
v -0.1839731 -0.02030632 0.51631778
v 0.00159205 -0.06018835 0.55190467
v 0.18715865 -0.02030635 0.51631778
v 0.32064649 0.07238459 0.40905946
v 0.38892772 0.16038583 0.2363384
v 0.40808805 0.19556996 0.0227012
v 0.38892883 0.16038563 -0.19093525
v 0.32064652 0.07238352 -0.36365741
v 0.18715852 -0.02030784 -0.47091656
v -0.11030281 -0.03160533 -0.25571221
v 0.00159172 -0.04558357 -0.27761852
v -0.20005235 0.00166579 -0.19214284
v -0.25532814 0.03428652 -0.09451725
v -0.27360504 0.04761368 0.0227012
v -0.25532814 0.03428652 0.13992048
v -0.20005235 0.00166579 0.23754604
v -0.11030275 -0.0316053 0.30111354
v 0.00159172 -0.04558357 0.32301962
v 0.11348634 -0.03160536 0.30111354
v 0.20323848 0.00166579 0.23754604
v 0.25851467 0.03428655 0.13992033
v 0.27679112 0.04761374 0.02270118
v 0.25851467 0.03428655 -0.09451725
v 0.20323839 0.00166576 -0.19214282
v 0.11348632 -0.03160536 -0.25571221
v -0.13795818 -0.03218934 -0.32665026
v 0.00159178 -0.0538465 -0.35345464
v -0.24653454 0.01897996 -0.24803395
v -0.31026199 0.06864076 -0.12561528
v -0.33053848 0.08878871 0.0227012
v -0.31026202 0.06864076 0.17101848
v -0.24653451 0.01897996 0.29343718
v -0.13795815 -0.03218928 0.37205165
v 0.0015918 -0.0538465 0.39885538
v 0.14114241 -0.03218919 0.37205171
v 0.24972181 0.0189799 0.29343706
v 0.31344771 0.06864097 0.17101772
v 0.33372288 0.08878882 0.02270106
v 0.31344765 0.06864082 -0.12561528
v 0.24972106 0.01897984 -0.24803395
v 0.14114235 -0.03218928 -0.32665026
v -0.16511058 -0.03412211 -0.39689594
v 0.00159213 -0.06495788 -0.42809087
v -0.29003927 0.03809806 -0.30414664
v -0.35889294 0.10736556 -0.15722604
v -0.3796457 0.13524515 0.0227012
v -0.35889294 0.10736556 0.2026292
v -0.29003921 0.03809812 0.34954851
v -0.1651099 -0.0341225 0.4422971
v 0.00159225 -0.06495788 0.47349196
v 0.16829668 -0.03412262 0.4422971
v 0.29322528 0.03809815 0.34954851
v 0.3620769 0.10736556 0.20262911
v 0.38282948 0.13524524 0.02270118
v 0.3620769 0.10736556 -0.15722604
v 0.29322516 0.03809812 -0.3041467
v 0.16829668 -0.03412262 -0.39689594
v -0.19193738 -0.03651863 -0.46731162
v 0.00159204 -0.07783657 -0.50245493
v -0.33091267 0.05935996 -0.36114436
v -0.40177404 0.15018852 -0.18970489
v -0.42159587 0.18644881 0.0227012
v -0.40177407 0.15018855 0.23510794
v -0.33091267 0.05935996 0.40654522
v -0.19193735 -0.03651857 0.51271355
v 0.00159204 -0.07783657 0.54785651
v 0.19512245 -0.03651863 0.51271355
v 0.33409661 0.05935987 0.40654522
v 0.40495801 0.15018858 0.23510794
v 0.42477968 0.18644885 0.0227012
v 0.40495801 0.15018858 -0.18970489
v 0.33409661 0.05935987 -0.36114436
v 0.19512245 -0.03651863 -0.46731162
v -0.08440201 -0.03281015 -0.18959082
v 0.00159172 -0.0409486 -0.20659868
v 0.00159172 -0.02191275 -0.19877454
v -0.07741265 -0.01480809 -0.18229764
v -0.15502572 -0.01330605 -0.14062222
v -0.14258772 0.00225001 -0.13492874
v -0.20011946 0.00601371 -0.06615665
v -0.18448922 0.01919069 -0.06301891
v -0.21544753 0.01396584 0.02270118
v -0.19880561 0.02617836 0.02270106
v -0.20011949 0.00601386 0.11155979
v -0.18448928 0.01919153 0.10842137
v -0.15502573 -0.01330596 0.1860256
v -0.14258778 0.00225102 0.18033205
v -0.08440197 -0.03280997 0.2349939
v -0.07741268 -0.01480698 0.22770091
v 0.00159171 -0.04094845 0.25200122
v 0.00159172 -0.02191159 0.24417781
v 0.08758518 -0.03281012 0.23499387
v 0.08059572 -0.01480689 0.2277008
v 0.15820984 -0.01330575 0.18602551
v 0.14577134 0.00225087 0.18033132
v 0.20330585 0.00601389 0.11155976
v 0.18767502 0.01919075 0.10842127
v 0.21863366 0.0139659 0.0227012
v 0.20199146 0.02617815 0.0227012
v 0.20330585 0.00601389 -0.06615652
v 0.18767504 0.01919066 -0.06301815
v 0.1582098 -0.01330596 -0.14062221
v 0.14577154 0.00224989 -0.13492862
v 0.08758517 -0.0328103 -0.18959082
v 0.08059578 -0.01480788 -0.18229764
v -0.04127729 -0.01770294 -0.20933
v -0.09250108 -0.0122261 -0.22346
v -0.05350467 -0.0228534 -0.27527934
v 0.00159171 -0.02266857 -0.24305827
v -0.04661857 -0.01983949 -0.23809333
v -0.11913041 -0.00265926 -0.17472595
v -0.16894556 0.01271536 -0.16686381
v -0.152418 0.00192138 -0.23142804
v -0.13372728 -0.00070169 -0.19941972
v -0.17623643 0.0184054 -0.10989683
v -0.21695068 0.03728365 -0.08051525
v -0.22287516 0.03637561 -0.14852437
v -0.19680404 0.02600842 -0.12668359
v -0.20582278 0.03315481 -0.02403038
v -0.23306033 0.04735368 0.0227012
v -0.25823721 0.06033566 -0.0377763
v -0.22903432 0.04464882 -0.02999509
v -0.20582276 0.03315502 0.06943306
v -0.2169502 0.03728443 0.12591843
v -0.25823649 0.06033611 0.08317893
v -0.22903391 0.044649 0.07539782
v -0.17623642 0.01840612 0.15530006
v -0.16894538 0.01271656 0.21226652
v -0.22287443 0.0363768 0.19392712
v -0.19680379 0.02600926 0.17208661
v -0.11913032 -0.00265777 0.22012867
v -0.0925006 -0.01222411 0.26886224
v -0.15241742 0.00192317 0.27683025
v -0.13372701 -0.00070011 0.24482213
v -0.04127723 -0.01770163 0.25473278
v 0.00159172 -0.02266708 0.28846067
v -0.0535041 -0.02285129 0.32068079
v -0.04661824 -0.0198378 0.28349566
v 0.04446065 -0.01770151 0.25473278
v 0.09568373 -0.01222423 0.26886224
v 0.05668773 -0.02285141 0.32068079
v 0.04980169 -0.01983794 0.28349566
v 0.12231353 -0.00265762 0.22012858
v 0.17212966 0.01271688 0.21226652
v 0.15560145 0.00192314 0.27683025
v 0.13691046 -0.00070038 0.24482213
v 0.17942103 0.01840624 0.1553
v 0.22013628 0.03728371 0.12591843
v 0.22606048 0.03637644 0.19392702
v 0.19998888 0.02600881 0.17208661
v 0.20900838 0.0331549 0.06943306
v 0.23624585 0.04735359 0.0227012
v 0.2614232 0.06033563 0.08317887
v 0.2322199 0.04464882 0.07539782
v 0.20900838 0.0331549 -0.02403029
v 0.2201364 0.03728351 -0.08051525
v 0.2614232 0.06033563 -0.0377763
v 0.2322199 0.04464882 -0.02999509
v 0.17942161 0.01840543 -0.10989677
v 0.17213057 0.01271554 -0.16686381
v 0.22606091 0.03637573 -0.14852437
v 0.19998952 0.02600836 -0.12668359
v 0.12231417 -0.00265923 -0.17472598
v 0.09568431 -0.0122256 -0.22346
v 0.1556025 0.0019218 -0.23142804
v 0.1369114 -0.0007016 -0.19941972
v 0.04446073 -0.01770306 -0.20932999
v 0.05668815 -0.02285257 -0.27527934
v 0.04980202 -0.01983955 -0.23809333
v 0.00159171 -0.04904776 -0.31603181
v -0.07027522 -0.04795357 -0.34670996
v -0.12425395 -0.0314014 -0.29159212
v -0.05582775 -0.04179129 -0.27208054
v -0.06309682 -0.04425349 -0.30986684
v -0.11899783 -0.01387054 -0.29398411
v -0.06727408 -0.03009468 -0.34955412
v 0.00159171 -0.03089532 -0.31866085
v -0.0603897 -0.02627125 -0.31243383
v -0.19727379 -0.00846845 -0.2934488
v -0.22374911 0.01045229 -0.22031694
v -0.15888845 -0.01621646 -0.22875927
v -0.17834788 -0.01202139 -0.26142746
v -0.21440562 0.02653694 -0.22207918
v -0.18902419 0.00801801 -0.29577755
v -0.17085845 0.00483578 -0.26354306
v -0.28405299 0.04592555 -0.19133393
v -0.28366228 0.05128541 -0.11014397
v -0.23226103 0.01933112 -0.14678411
v -0.25882771 0.03258574 -0.16920368
v -0.271921 0.06599855 -0.11106057
v -0.27231627 0.06057649 -0.19281218
v -0.24807258 0.04792296 -0.17056001
v -0.32559281 0.08339893 -0.05314502
v -0.30312475 0.06791099 0.0227012
v -0.26906722 0.04403856 -0.03717656
v -0.29833149 0.06345722 -0.045194
v -0.2906205 0.08207684 0.02270111
v -0.31224101 0.09682355 -0.05364503
v -0.2860136 0.07776814 -0.04565604
v -0.32559281 0.08339893 0.09854774
v -0.28366228 0.05128541 0.1555472
v -0.26906722 0.04403856 0.08257933
v -0.29833149 0.06345722 0.09059674
v -0.2719202 0.06599924 0.15646317
v -0.31224048 0.09682364 0.09904716
v -0.28601279 0.07776856 0.09105847
v -0.28405299 0.04592555 0.23673729
v -0.22374911 0.01045229 0.26572018
v -0.23226103 0.01933112 0.19218748
v -0.25882774 0.03258571 0.2146071
v -0.21440528 0.02653837 0.26748135
v -0.27231562 0.06057733 0.23821437
v -0.24807195 0.04792404 0.21596241
v -0.19727373 -0.00846845 0.33885103
v -0.12425401 -0.0314014 0.33699351
v -0.1588884 -0.0162164 0.27416175
v -0.17834788 -0.01202139 0.30682992
v -0.11899683 -0.01386916 0.33938515
v -0.1890234 0.00801896 0.34117841
v -0.17085789 0.00483673 0.30894476
v -0.07027518 -0.04795348 0.39211124
v 0.00159171 -0.04904776 0.36143279
v -0.05582776 -0.04179129 0.31748169
v -0.06309682 -0.04425349 0.3552677
v 0.0015918 -0.03089419 0.36406207
v -0.06727343 -0.03009406 0.39495521
v -0.06038908 -0.02627027 0.35783475
v 0.07345867 -0.0479533 0.39211124
v 0.12743756 -0.03140116 0.33699351
v 0.05901121 -0.0417912 0.31748169
v 0.06628022 -0.04425337 0.35526776
v 0.12218072 -0.01386913 0.33938515
v 0.07045737 -0.03009424 0.39495521
v 0.06357278 -0.02627 0.35783475
v 0.2004597 -0.00846857 0.33885103
v 0.22693628 0.0104522 0.26572012
v 0.16207358 -0.01621637 0.27416175
v 0.18153348 -0.0120213 0.30682992
v 0.21759115 0.02653834 0.26748123
v 0.19220905 0.00801899 0.34117841
v 0.17404276 0.00483709 0.30894476
v 0.28724011 0.04592555 0.2367368
v 0.28684875 0.0512855 0.15554672
v 0.23544758 0.0193313 0.19218738
v 0.26201507 0.03258582 0.21460677
v 0.27510726 0.06599858 0.15646272
v 0.27550277 0.06057703 0.23821394
v 0.2512587 0.0479238 0.21596214
v 0.32877773 0.08339884 0.09854728
v 0.30631017 0.06791102 0.02270111
v 0.27225369 0.04403841 0.08257926
v 0.30151724 0.06345734 0.09059643
v 0.29380694 0.08207657 0.02270103
v 0.31542685 0.09682355 0.09904673
v 0.28919971 0.07776838 0.09105812
v 0.32877773 0.08339884 -0.05314502
v 0.28684866 0.0512855 -0.11014397
v 0.27225366 0.04403841 -0.03717656
v 0.30151724 0.06345734 -0.045194
v 0.27510735 0.06599846 -0.11106057
v 0.31542694 0.09682348 -0.05364503
v 0.28919971 0.07776838 -0.04565604
v 0.28723967 0.04592552 -0.19133393
v 0.22693587 0.01045214 -0.22031696
v 0.23544755 0.0193313 -0.14678411
v 0.26201486 0.032586 -0.16920368
v 0.21759133 0.02653718 -0.22207914
v 0.27550208 0.06057655 -0.19281218
v 0.25125867 0.04792308 -0.17056001
v 0.20045916 -0.00846833 -0.2934488
v 0.12743748 -0.03140128 -0.29159212
v 0.16207352 -0.01621637 -0.22875927
v 0.1815332 -0.01202142 -0.26142746
v 0.12218125 -0.01386991 -0.29398411
v 0.19220861 0.00801807 -0.29577755
v 0.1740431 0.0048359 -0.26354295
v 0.07345867 -0.0479533 -0.34670996
v 0.05901121 -0.04179123 -0.27208054
v 0.06628022 -0.04425337 -0.30986684
v 0.07045742 -0.0300948 -0.34955412
v 0.06357314 -0.02627107 -0.31243383
v 0.00159196 -0.05914968 -0.39080941
v -0.08462414 -0.05653816 -0.42028963
v -0.15157908 -0.03309324 -0.36175018
v -0.07745099 -0.05204767 -0.38351875
v -0.14521601 -0.01603192 -0.36464059
v -0.08104186 -0.03896403 -0.42368054
v 0.00159172 -0.04117569 -0.39401054
v -0.07415803 -0.03432536 -0.38663739
v -0.23413842 -0.0005542 -0.35792064
v -0.26864638 0.02821353 -0.27597069
v -0.21587823 -0.00463664 -0.32560896
v -0.25753966 0.04318568 -0.27805984
v -0.22443446 0.01509412 -0.36065405
v -0.20688991 0.01144641 -0.32814377
v -0.33114579 0.0757665 -0.2363566
v -0.33536773 0.08737459 -0.14130316
v -0.30818197 0.06034824 -0.21371105
v -0.32166945 0.1004132 -0.1423683
v -0.31763395 0.08889643 -0.23805142
v -0.29552519 0.07426172 -0.21530249
v -0.37471556 0.127811 -0.06942911
v -0.35607886 0.1112845 0.0227012
v -0.35108616 0.10489811 -0.06121994
v -0.34160521 0.12356446 0.02270103
v -0.3595871 0.13929812 -0.06999222
v -0.33679643 0.11737825 -0.06175378
v -0.37471556 0.127811 0.11483183
v -0.33536768 0.08737456 0.18670649
v -0.35108616 0.10489811 0.10662265
v -0.3216691 0.10041381 0.18777048
v -0.3595868 0.13929864 0.11539443
v -0.33679628 0.11737866 0.10715587
v -0.3311457 0.07576659 0.28175973
v -0.26864638 0.02821347 0.32137322
v -0.30818197 0.06034824 0.25911444
v -0.25753894 0.04318681 0.32346165
v -0.31763383 0.08889757 0.28345406
v -0.29552453 0.07426267 0.26070484
v -0.23413793 -0.00055417 0.4033221
v -0.15157853 -0.03309315 0.40715158
v -0.21587792 -0.00463664 0.3710109
v -0.14521479 -0.01603138 0.41004151
v -0.2244334 0.01509478 0.40605545
v -0.20688913 0.0114471 0.37354517
v -0.08462374 -0.05653813 0.46569079
v 0.00159204 -0.05914959 0.43621045
v -0.07745068 -0.05204755 0.42891967
v 0.00159188 -0.04117486 0.43941193
v -0.08104119 -0.03896367 0.46908164
v -0.07415745 -0.03432476 0.43203836
v 0.08780897 -0.05653807 0.46569079
v 0.15476423 -0.03309324 0.40715158
v 0.08063509 -0.05204784 0.42891967
v 0.14839948 -0.01603141 0.41004151
v 0.08422509 -0.03896356 0.46908164
v 0.07734131 -0.0343245 0.43203836
v 0.23732459 -0.00055423 0.4033221
v 0.27183324 0.02821314 0.32137304
v 0.21906445 -0.00463658 0.3710109
v 0.26072576 0.04318663 0.32346153
v 0.22761896 0.01509484 0.40605545
v 0.21007479 0.01144689 0.37354517
v 0.33433085 0.07576665 0.28175967
v 0.33855262 0.08737455 0.18670596
v 0.31136828 0.06034851 0.25911417
v 0.32485434 0.10041381 0.18777002
v 0.32081899 0.0888976 0.283454
v 0.29871073 0.07426253 0.26070454
v 0.37789946 0.12781105 0.11483175
v 0.359263 0.1112844 0.02270111
v 0.35427027 0.10489824 0.10662235
v 0.34479057 0.12356446 0.02270096
v 0.36277049 0.1392987 0.11539433
v 0.33998104 0.11737863 0.10715552
v 0.37789943 0.12781103 -0.06942912
v 0.33855253 0.08737446 -0.14130316
v 0.35427027 0.10489824 -0.06121994
v 0.32485476 0.10041317 -0.14236831
v 0.36277082 0.13929815 -0.06999223
v 0.33998152 0.11737839 -0.06175378
v 0.33433076 0.07576662 -0.2363566
v 0.27183276 0.02821323 -0.27597069
v 0.31136792 0.06034839 -0.21371105
v 0.26072531 0.04318559 -0.27805984
v 0.32081991 0.08889634 -0.23805142
v 0.29871082 0.07426169 -0.21530249
v 0.23732453 -0.00055414 -0.35792064
v 0.1547641 -0.03309315 -0.36175018
v 0.21906413 -0.00463661 -0.32560896
v 0.14839947 -0.01603168 -0.36464059
v 0.22761903 0.01509415 -0.36065405
v 0.21007457 0.01144632 -0.32814377
v 0.08780897 -0.05653807 -0.42028963
v 0.08063509 -0.05204784 -0.38351875
v 0.08422515 -0.03896424 -0.42368054
v 0.07734134 -0.03432515 -0.38663739
v 0.00159213 -0.07127073 -0.46529275
v -0.0989651 -0.06651261 -0.49373042
v -0.17854769 -0.03528649 -0.43209171
v -0.09179533 -0.06142619 -0.4570201
v -0.09480889 -0.04926607 -0.4976589
v -0.18795524 -0.02841335 -0.46911424
v 0.00159204 -0.06901311 -0.50447887
v -0.09688701 -0.05788931 -0.49569475
v -0.17111128 -0.01877874 -0.4354614
v 0.00159188 -0.05350941 -0.46905982
v -0.08792539 -0.04401233 -0.46068078
v -0.26974058 0.00816827 -0.42295342
v -0.31066709 0.04857969 -0.3325808
v -0.25203129 0.00375121 -0.39039593
v -0.25866499 0.02287307 -0.42606538
v -0.32418716 0.06587186 -0.36240065
v -0.26420316 0.01552051 -0.42450916
v -0.29796794 0.06227785 -0.33495938
v -0.24163578 0.01893514 -0.39332038
v -0.37398931 0.10886889 -0.28237241
v -0.38075026 0.12849308 -0.17340219
v -0.35287588 0.09209106 -0.259292
v -0.35893976 0.12033185 -0.28424787
v -0.39375972 0.15528714 -0.1903201
v -0.36646473 0.11460048 -0.28331023
v -0.36543864 0.13966424 -0.17458346
v -0.33857864 0.10439747 -0.26107984
v -0.41707038 0.17681154 -0.08620911
v -0.40113934 0.16051867 0.0227012
v -0.39638337 0.1519937 -0.07778292
v -0.40052276 0.18621288 -0.08681827
v -0.4132502 0.19100938 0.0227012
v -0.40879628 0.18151222 -0.0865137
v -0.3851149 0.17071923 0.02270111
v -0.38051918 0.16244809 -0.07837034
v -0.41707038 0.17681154 0.13161182
v -0.38075032 0.12849302 0.21880526
v -0.39638337 0.15199367 0.12318568
v -0.40052217 0.186213 0.13222102
v -0.39375925 0.15528711 0.23572316
v -0.40879592 0.18151214 0.13191643
v -0.36543777 0.13966494 0.21998615
v -0.38051897 0.16244842 0.12377276
v -0.37398931 0.10886889 0.3277744
v -0.31066706 0.04857957 0.37798231
v -0.35287585 0.09209106 0.30469459
v -0.35893911 0.12033246 0.3296504
v -0.3241871 0.06587237 0.4078024
v -0.36646437 0.1146007 0.32871246
v -0.29796716 0.06227907 0.38036096
v -0.33857789 0.10439856 0.30648213
v -0.26974058 0.00816827 0.468355
v -0.17854708 -0.03528643 0.47749275
v -0.25203099 0.00375106 0.43579751
v -0.25866514 0.02287417 0.4714663
v -0.18795529 -0.02841279 0.51451563
v -0.26420301 0.01552116 0.46991074
v -0.17111066 -0.01877811 0.48086243
v -0.24163508 0.01893615 0.43872183
v -0.0989651 -0.06651261 0.53913223
v 0.00159221 -0.07127088 0.51069384
v -0.09179497 -0.06142613 0.50242137
v -0.09480891 -0.04926478 0.54306054
v 0.00159204 -0.06901243 0.5498808
v -0.09688694 -0.05788868 0.54109656
v 0.00159196 -0.05350843 0.51446121
v -0.08792508 -0.04401165 0.50608193
v 0.10214955 -0.06651267 0.53913223
v 0.18173362 -0.03528696 0.47749275
v 0.09497999 -0.0614261 0.50242137
v 0.09799326 -0.04926464 0.54306054
v 0.1911406 -0.02841258 0.51451563
v 0.10007139 -0.05788871 0.54109656
v 0.17429579 -0.01877791 0.48086243
v 0.09110909 -0.04401168 0.50608193
v 0.27292585 0.00816807 0.468355
v 0.31385234 0.04857972 0.37798231
v 0.25521716 0.00375118 0.43579751
v 0.2618508 0.0228742 0.4714663
v 0.32737159 0.06587231 0.4078024
v 0.26738819 0.01552098 0.46991074
v 0.30115294 0.06227898 0.38036096
v 0.24482049 0.0189363 0.43872183
v 0.37717327 0.10886889 0.3277744
v 0.38393452 0.12849307 0.21880528
v 0.35606041 0.09209121 0.30469459
v 0.36212384 0.12033239 0.3296504
v 0.39694291 0.15528713 0.23572316
v 0.36964827 0.11460086 0.32871246
v 0.36862149 0.13966487 0.21998614
v 0.34176248 0.10439862 0.30648213
v 0.42025396 0.17681151 0.13161182
v 0.40432289 0.16051872 0.0227012
v 0.39956679 0.1519937 0.12318568
v 0.40370547 0.186213 0.13222102
v 0.41643402 0.19100941 0.0227012
v 0.41198006 0.1815122 0.13191643
v 0.38829836 0.1707192 0.02270111
v 0.38370224 0.16244828 0.12377276
v 0.42025396 0.17681151 -0.08620911
v 0.38393455 0.12849304 -0.17340219
v 0.39956674 0.15199364 -0.07778292
v 0.40370613 0.18621295 -0.08681827
v 0.39694351 0.1552871 -0.19032008
v 0.4119803 0.18151223 -0.0865137
v 0.36862245 0.13966421 -0.17458348
v 0.38370299 0.16244806 -0.07837034
v 0.37717327 0.10886889 -0.28237241
v 0.31385234 0.04857972 -0.3325808
v 0.35606035 0.09209121 -0.259292
v 0.36212435 0.12033191 -0.28424787
v 0.32737168 0.06587168 -0.36240065
v 0.36964866 0.11460039 -0.28331023
v 0.30115318 0.06227758 -0.33495938
v 0.34176304 0.10439741 -0.26107984
v 0.27292585 0.00816807 -0.42295342
v 0.18173362 -0.03528696 -0.43209171
v 0.25521716 0.00375118 -0.39039593
v 0.26185086 0.02287292 -0.42606538
v 0.19114057 -0.02841327 -0.46911406
v 0.26738807 0.01552036 -0.42450922
v 0.17429582 -0.01877904 -0.4354614
v 0.2448205 0.01893526 -0.39332038
v 0.10214955 -0.06651267 -0.49373042
v 0.09498002 -0.06142607 -0.4570201
v 0.09799327 -0.04926589 -0.4976589
v 0.10007145 -0.05788928 -0.49569475
v 0.09110909 -0.04401257 -0.46068078
v 0.00159171 -0.04428345 -0.2372917
v -0.09594174 -0.03367743 -0.21814706
v -0.04241167 -0.03874648 -0.20228399
v -0.04837976 -0.04140997 -0.23244248
v 0.0810057 -0.011617 -0.18498152
v 0.04199674 -0.01999187 -0.19459162
v 0.00159172 -0.0188815 -0.20168224
v 0.04221035 -0.0169172 -0.19744287
v -0.0388132 -0.01999196 -0.19459162
v 0.00159172 -0.03138006 -0.19708651
v -0.07891584 -0.02419645 -0.18073754
v -0.03958215 -0.02943769 -0.19293627
v -0.07782245 -0.01161682 -0.18498152
v -0.03902688 -0.01691708 -0.19744288
v -0.17520569 -0.00834396 -0.162835
v -0.12236609 -0.02380896 -0.16876997
v -0.13868363 -0.02197307 -0.19465784
v 0.0820989 -0.0241971 -0.18073754
v 0.0455951 -0.03874668 -0.20228397
v 0.04276559 -0.02943769 -0.19293627
v -0.11240071 -0.0069403 -0.16214692
v -0.1453282 -0.00694856 -0.13373361
v -0.11456867 -0.01624128 -0.1607425
v -0.14327885 0.00581225 -0.13696742
v -0.11297134 -0.0035758 -0.16455481
v -0.22501793 0.01662215 -0.07836329
v -0.18110325 -0.00286454 -0.1059484
v -0.20410785 0.0051625 -0.12353873
v 0.09912491 -0.03367755 -0.21814706
v 0.05156321 -0.04141009 -0.23244242
v -0.16678462 0.01140075 -0.10143261
v -0.18802064 0.0101833 -0.06237209
v -0.16998241 0.00230514 -0.10049365
v -0.18529373 0.02309718 -0.0641065
v -0.16754974 0.015152 -0.10302346
v -0.24174663 0.02685979 0.0227012
v -0.2115949 0.01182612 -0.02265523
v -0.2375644 0.0241093 -0.02890246
v 0.14646278 0.0058121 -0.13696736
v 0.11558381 -0.00694039 -0.16214692
v 0.11615481 -0.00357571 -0.16455481
v -0.1951994 0.02429682 -0.02104819
v -0.202606 0.01724985 0.02270111
v -0.19893211 0.0153467 -0.02071853
v -0.19962939 0.03021872 0.02270111
v -0.19602045 0.02830177 -0.02160011
v -0.22501796 0.01662206 0.12376653
v -0.21159493 0.01182627 0.06805791
v -0.2375644 0.0241093 0.07430519
v 0.14851196 -0.0069488 -0.13373351
v 0.12554943 -0.02380881 -0.16876997
v 0.11775171 -0.01624113 -0.1607425
v -0.19519932 0.02429726 0.06645043
v -0.18802052 0.01018389 0.10777485
v -0.19893215 0.01534694 0.06612095
v -0.18529379 0.02309781 0.10950926
v -0.19602035 0.02830213 0.0670025
v -0.17520569 -0.00834396 0.20823818
v -0.18110334 -0.00286436 0.15135175
v -0.20410785 0.0051625 0.16894222
v 0.17839095 -0.0083442 -0.16283498
v 0.14186772 -0.02197301 -0.19465784
v -0.16678462 0.01140177 0.14683555
v -0.14532816 -0.00694796 0.17913693
v -0.16998252 0.00230574 0.14589665
v -0.14327888 0.00581332 0.18237069
v -0.16754974 0.01515316 0.14842647
v -0.0959417 -0.03367746 0.26354938
v -0.12236601 -0.02380878 0.21417319
v -0.13868363 -0.02197307 0.24006058
v 0.18847948 0.02309718 -0.06410603
v 0.16996946 0.01140078 -0.10143215
v 0.17073464 0.01515212 -0.10302313
v -0.11240065 -0.00693923 0.20755028
v -0.07891578 -0.02419576 0.2261409
v -0.11456871 -0.01624072 0.20614583
v -0.07782245 -0.01161548 0.2303844
v -0.11297135 -0.00357464 0.20995795
v 0.00159171 -0.04428345 0.2826935
v -0.04241166 -0.03874621 0.24768666
v -0.04837976 -0.04140997 0.27784436
v 0.19120661 0.01018315 -0.06237156
v 0.18428871 -0.00286448 -0.10594831
v 0.17316739 0.00230541 -0.10049334
v -0.03881321 -0.01999074 0.23999494
v 0.00159172 -0.03137937 0.24248945
v -0.03958217 -0.02943709 0.2383393
v 0.00159172 -0.01888019 0.24708554
v -0.03902691 -0.01691583 0.24284599
v 0.09912491 -0.03367755 0.26354938
v 0.04559509 -0.03874656 0.24768666
v 0.05156321 -0.04141009 0.27784436
v 0.22820441 0.01662194 -0.07836329
v 0.20729377 0.00516283 -0.12353873
v 0.04199674 -0.01999062 0.23999494
v 0.08209895 -0.0241965 0.22614082
v 0.04276559 -0.02943712 0.2383393
v 0.08100561 -0.01161566 0.23038435
v 0.04221035 -0.01691598 0.24284598
v 0.17839098 -0.0083442 0.20823819
v 0.12554936 -0.02380857 0.21417312
v 0.14186772 -0.02197301 0.24006058
v 0.20281474 0.0302183 0.0227012
v 0.19838517 0.02429643 -0.0210477
v 0.19920596 0.02830174 -0.02159978
v 0.11558371 -0.00693938 0.20754972
v 0.14851191 -0.00694823 0.1791365
v 0.11775171 -0.0162406 0.20614551
v 0.14646232 0.00581341 0.18237014
v 0.11615452 -0.00357461 0.2099576
v 0.22820441 0.01662194 0.12376654
v 0.18428866 -0.00286445 0.15135166
v 0.2072938 0.00516283 0.16894222
v 0.20579221 0.01724985 0.0227012
v 0.21478134 0.01182579 -0.02265514
v 0.20211814 0.01534643 -0.0207182
v 0.16996932 0.01140144 0.14683504
v 0.19120656 0.01018324 0.10777475
v 0.1731674 0.00230568 0.14589633
v 0.18847937 0.02309721 0.1095092
v 0.17073428 0.0151526 0.14842614
v 0.24493269 0.02685967 0.0227012
v 0.21478134 0.01182579 0.06805791
v 0.24075076 0.02410921 0.07430519
v 0.24075081 0.02410921 -0.02890246
v 0.19838523 0.0242964 0.06645043
v 0.20211814 0.01534643 0.06612092
v 0.19920596 0.02830168 0.0670025
v 0.00998724 0.70877218 0.02106192
v -0.01964547 0.67645353 -0.33252412
v -0.07228676 0.67807847 -0.31954461
v -0.12170074 0.68140238 -0.29385554
v -0.16600702 0.6859675 -0.25640207
v -0.20358355 0.69103509 -0.20851011
v -0.23309485 0.69579607 -0.15184176
v -0.25344505 0.69954985 -0.08840624
v -0.2638252 0.70185297 -0.02050615
v -0.26378884 0.70233017 0.04929212
v -0.25330349 0.70077878 0.11826723
v -0.23274932 0.69718247 0.18364258
v -0.20283579 0.69204109 0.24276778
v -0.16460108 0.68634396 0.29324686
v -0.11941676 0.68133467 0.33306151
v -0.06901565 0.67799276 0.36065059
v -0.01540909 0.67678213 0.37494814
v 0.0392209 0.67760413 0.37544703
v 0.09265302 0.68014961 0.3621574
v 0.14282868 0.68399876 0.33562773
v 0.18787659 0.68868345 0.29688805
v 0.22616921 0.69357281 0.24745644
v 0.25621616 0.69796752 0.18925634
v 0.2766909 0.70122003 0.12454813
v 0.28659266 0.70286363 0.0558449
v 0.28547197 0.70264428 -0.01416785
v 0.27355325 0.70056039 -0.08273485
v 0.25160399 0.69684547 -0.14714923
v 0.22068357 0.69204437 -0.20492042
v 0.18201115 0.6868934 -0.25387358
v 0.13692858 0.68221288 -0.2922492
v 0.08703474 0.67865616 -0.31868219
v 0.03416422 0.6766681 -0.33225607
v -0.0188971 0.00855615 -0.22356157
v -0.0589847 0.01137256 -0.21566645
v -0.096937 0.01719623 -0.19939507
v -0.13134446 0.02522754 -0.1751694
v -0.16100871 0.03415751 -0.14359065
v -0.18492028 0.04255172 -0.10546551
v -0.20206683 0.04918339 -0.06194513
v -0.21154356 0.05335342 -0.01451126
v -0.21274514 0.05436152 0.03497834
v -0.20550133 0.05177721 0.08440135
v -0.1901002 0.04549801 0.13147558
v -0.16710653 0.03637781 0.17402599
v -0.13736777 0.0262109 0.21013526
v -0.10196258 0.01737519 0.23829221
v -0.06232551 0.01171576 0.25742203
v -0.02015199 0.01003089 0.2668834
v 0.02272698 0.01197805 0.26651489
v 0.06446426 0.01686394 0.25647991
v 0.10350152 0.02391064 0.23729194
v 0.13850337 0.03229063 0.20973372
v 0.16839866 0.04092362 0.17490647
v 0.19200694 0.04860597 0.13415172
v 0.2080587 0.05420428 0.08905264
v 0.21548241 0.05693391 0.0413555
v 0.21385669 0.05635494 -0.00704149
v 0.20365038 0.05246415 -0.05416978
v 0.1859415 0.04566761 -0.09811253
v 0.16192707 0.03692081 -0.137186
v 0.13262136 0.02753701 -0.1700308
v 0.09882446 0.01903089 -0.19569262
v 0.06149086 0.01258784 -0.21345081
v 0.02177886 0.00899007 -0.22282698
v -0.01848818 -0.03680301 -0.22190319
v -0.05850118 -0.03300768 -0.21448847
v -0.09647802 -0.02549955 -0.19892375
v -0.13103452 -0.01532283 -0.17553876
v -0.16099253 -0.00408303 -0.14481233
v -0.18535281 0.00647777 -0.10742445
v -0.20305885 0.01484259 -0.06441614
v -0.21312157 0.02013555 -0.01721081
v -0.21483726 0.02146703 0.03233502
v -0.20796458 0.01828971 0.0820285
v -0.1927829 0.01042273 0.12948632
v -0.16983787 -0.00108105 0.17241346
v -0.13997885 -0.01396596 0.20880672
v -0.10428547 -0.02522054 0.23710158
v -0.06423354 -0.03246799 0.25621396
v -0.02158621 -0.03467759 0.26553335
v 0.02174718 -0.03222549 0.26494976
v 0.06386002 -0.02607927 0.2546876
v 0.1032141 -0.01725367 0.23531563
v 0.13851012 -0.00681007 0.20764398
v 0.16872552 0.00393009 0.17278753
v 0.19262953 0.01348727 0.13208578
v 0.20884631 0.02046003 0.08711986
v 0.21619418 0.02386629 0.03963366
v 0.21424025 0.02313271 -0.00846505
v 0.20358546 0.0182366 -0.05518588
v 0.18550507 0.00967651 -0.0986009
v 0.16132609 -0.00136509 -0.13704934
v 0.13210323 -0.01323619 -0.16923955
v 0.09853992 -0.02399266 -0.19432941
v 0.06149318 -0.03210142 -0.21170182
v 0.02202297 -0.03649399 -0.22097343
v 0.01001953 0.69216072 0.02103464
v -0.06798853 0.67815023 -0.30085086
v -0.01874901 0.67794996 -0.31354349
v -0.11423469 0.67862635 -0.27591836
v -0.15575683 0.67929452 -0.23968349
v -0.19097489 0.68004137 -0.19351129
v -0.21851831 0.6807428 -0.13914097
v -0.23729583 0.681279 -0.07864019
v -0.24654991 0.68155533 -0.01431821
v -0.24590675 0.68152302 0.05137013
v -0.23538327 0.68117803 0.11590514
v -0.21539437 0.68056362 0.17681631
v -0.18673221 0.67976838 0.23176202
v -0.15053102 0.67891442 0.27863544
v -0.1082087 0.67813462 0.31564658
v -0.06139804 0.67754119 0.34139436
v -0.01187436 0.67723757 0.35491639
v 0.03851883 0.67727011 0.35570502
v 0.08791557 0.67764824 0.34370869
v 0.13447785 0.67832362 0.3193326
v 0.17643211 0.6792069 0.28343075
v 0.21213048 0.68018227 0.23731589
v 0.24012887 0.68110698 0.18271821
v 0.25926744 0.68185514 0.12173947
v 0.26873251 0.68231874 0.05676027
v 0.2681171 0.68243914 -0.0096606
v 0.25743201 0.68220192 -0.07489694
v 0.23712073 0.68165212 -0.13636539
v 0.20802372 0.68088251 -0.19164225
v 0.17134186 0.6800118 -0.238569
v 0.12856636 0.67917424 -0.27534955
v 0.08140058 0.67849022 -0.30061864
v 0.03167107 0.67806416 -0.31348484
v -0.06360314 0.61077541 -0.27964198
v -0.0169345 0.6101886 -0.29118692
v -0.10748186 0.61218613 -0.25679683
v -0.14692403 0.61421948 -0.22346659
v -0.18044415 0.61652034 -0.1808248
v -0.20676215 0.61866861 -0.13039438
v -0.22483347 0.62031716 -0.07402405
v -0.23390109 0.62124449 -0.01383488
v -0.23356539 0.62132686 0.04785388
v -0.22381933 0.62050896 0.10861486
v -0.20504505 0.61883193 0.1660252
v -0.17796708 0.61652404 0.21779482
v -0.14363119 0.61400359 0.26187968
v -0.10336472 0.61180275 0.2965762
v -0.05873469 0.61035245 0.32058525
v -0.01147803 0.60984164 0.33304238
v 0.03659308 0.61025315 0.33353346
v 0.08365022 0.6114822 0.32205706
v 0.12792104 0.61337125 0.29902976
v 0.16774693 0.61570209 0.26526978
v 0.20161959 0.61815542 0.22201764
v 0.22820586 0.62037044 0.17090272
v 0.24636833 0.6220178 0.11389524
v 0.25527712 0.62286502 0.05322209
v 0.2545214 0.62279945 -0.00872189
v 0.24418564 0.62183821 -0.06947842
v 0.22479751 0.62010991 -0.12663495
v 0.19723139 0.61786669 -0.17794555
v 0.16261075 0.61545431 -0.22144739
v 0.12227601 0.61323589 -0.2555297
v 0.07777025 0.61150687 -0.27897536
v 0.03078121 0.6104533 -0.29098206
v -0.01705948 -0.01326382 -0.21093963
v -0.01700914 -0.036064 -0.21002414
v 0.02104528 -0.035878 -0.20897354
v 0.02107195 -0.01300779 -0.20991756
v 0.05811202 -0.03093964 -0.20029376
v 0.05822765 -0.00809005 -0.20120506
v 0.09295583 -0.02163187 -0.18415004
v 0.0931643 0.00108757 -0.18496607
v 0.12465568 -0.00924852 -0.16076536
v 0.12493737 0.01327144 -0.16144026
v 0.15245986 0.00440159 -0.13057757
v 0.1527687 0.02669733 -0.13109113
v 0.17574143 0.01705497 -0.09426749
v 0.1760113 0.03915685 -0.09461609
v 0.19341096 0.02685299 -0.05302244
v 0.19358936 0.04883414 -0.0532139
v 0.20403645 0.0324656 -0.00845119
v 0.20411251 0.05441656 -0.00849163
v 0.20619687 0.03334039 0.0375403
v 0.2062115 0.05534237 0.03765565
v 0.19921726 0.02949923 0.08298559
v 0.19924223 0.05160263 0.08326683
v 0.18354901 0.02159026 0.12600815
v 0.18364001 0.0438098 0.12646172
v 0.16047059 0.01073124 0.16492371
v 0.16064824 0.03306686 0.16555032
v 0.13143423 -0.001495 0.19822949
v 0.13166113 0.02095115 0.19901029
v 0.09768907 -0.01340556 0.22469145
v 0.09790425 0.00913619 0.22560085
v 0.06016188 -0.0235205 0.24328281
v 0.0603222 -0.00089833 0.24428363
v 0.02002442 -0.03060576 0.25325268
v 0.02011424 -0.00792527 0.25430733
v -0.02131657 -0.03348634 0.25403839
v -0.02128265 -0.01079544 0.25510472
v -0.06206027 -0.03095135 0.24533543
v -0.06205534 -0.00833305 0.24637588
v -0.10036514 -0.02258974 0.22715903
v -0.10036649 -0.00016355 0.22814275
v -0.13450197 -0.00958052 0.20001453
v -0.13448487 0.0125623 0.2009114
v -0.16303163 0.00520837 0.16491028
v -0.16298341 0.02701211 0.16570356
v -0.18488428 0.01832604 0.12338074
v -0.18479704 0.03985565 0.12405319
v -0.19921445 0.02722606 0.07742772
v -0.19910669 0.048597 0.07796684
v -0.20547014 0.03077891 0.0293909
v -0.20537175 0.05215469 0.02978064
v -0.20337747 0.02922296 -0.01830415
v -0.20332928 0.05073827 -0.01808014
v -0.1932232 0.02320271 -0.06345298
v -0.19325326 0.04492425 -0.06340855
v -0.17578752 0.01369801 -0.10424213
v -0.17589691 0.03561967 -0.10438768
v -0.15215291 0.00168922 -0.13934448
v -0.15231838 0.02381071 -0.13968475
v -0.12341427 -0.01114577 -0.16787642
v -0.12359727 0.01116233 -0.16840504
v -0.09056129 -0.02283174 -0.1893365
v -0.0907242 -0.00033253 -0.19003415
v -0.05467219 -0.03154457 -0.20344413
v -0.05478786 -0.00887638 -0.2042752
v -0.01746616 0.00956213 -0.21171373
v 0.02075625 0.00988069 -0.21082681
v 0.05806499 0.01417296 -0.20204208
v 0.09319246 0.02205866 -0.1855369
v 0.12511365 0.03246054 -0.16161444
v 0.15297144 0.04387939 -0.13082192
v 0.17602065 0.0544773 -0.09395346
v 0.19321908 0.06273144 -0.05226382
v 0.20330932 0.06751784 -0.0073618
v 0.20512352 0.06833669 0.03887997
v 0.19813382 0.06515803 0.08452672
v 0.18275369 0.05849078 0.12771633
v 0.16007505 0.04927086 0.16675464
v 0.13139654 0.03885492 0.20012785
v 0.09789662 0.02868747 0.22658914
v 0.06058737 0.02004954 0.24511557
v 0.02070191 0.0139757 0.25496989
v -0.02030921 0.0114848 0.25561472
v -0.06067637 0.01352894 0.24680247
v -0.09861797 0.02043357 0.22859145
v -0.13246539 0.03116351 0.20152381
v -0.16082294 0.04333975 0.16661489
v -0.18263149 0.05418577 0.12536098
v -0.19707261 0.06161388 0.07969716
v -0.20359984 0.06471231 0.03185139
v -0.2019525 0.06360065 -0.01584291
v -0.19235079 0.05873128 -0.06124445
v -0.17547023 0.05086585 -0.10254063
v -0.15227434 0.04085111 -0.13835158
v -0.12380827 0.03012478 -0.16769482
v -0.09108028 0.02039754 -0.18994545
v -0.05520666 0.01320457 -0.2047045
v -0.01798841 0.0546973 -0.214459
v 0.02056977 0.05521762 -0.21380247
v 0.05828922 0.05868017 -0.20487731
v 0.09386458 0.06476065 -0.18788746
v 0.12616072 0.07272994 -0.16324305
v 0.15421195 0.08149418 -0.13161265
v 0.17715083 0.08968314 -0.09392251
v 0.19399279 0.0961036 -0.05149443
v 0.20362305 0.09986588 -0.00596316
v 0.2050852 0.1005426 0.04080382
v 0.19799137 0.09807853 0.08688689
v 0.18274872 0.09283098 0.13042341
v 0.16033078 0.08554741 0.16970281
v 0.13191849 0.07731255 0.20319712
v 0.09861318 0.06930071 0.22964416
v 0.06148805 0.06255015 0.24803811
v 0.0218241 0.05784747 0.25767493
v -0.01888812 0.05592817 0.25808093
v -0.05893654 0.05742198 0.24908407
v -0.0966134 0.06259349 0.23079673
v -0.13031411 0.07069104 0.20378243
v -0.15866723 0.07998016 0.1690437
v -0.18061043 0.08833777 0.12801879
v -0.19532413 0.09415774 0.08255711
v -0.20225387 0.09670597 0.03477961
v -0.20113305 0.09600278 -0.01307616
v -0.19210799 0.09234875 -0.05892266
v -0.17576125 0.08627905 -0.10093668
v -0.15295797 0.078473 -0.13767541
v -0.12469223 0.0701164 -0.16804449
v -0.09198067 0.06262552 -0.19128835
v -0.05597438 0.05723902 -0.20688246
v -0.06066954 0.54365581 -0.26522678
v -0.01565559 0.5423187 -0.27577114
v -0.10306238 0.54651802 -0.24410353
v -0.14125186 0.55051523 -0.21308735
v -0.17381842 0.55497402 -0.17316828
v -0.19954276 0.55914515 -0.12566508
v -0.21738658 0.56239086 -0.07223679
v -0.22656999 0.56431132 -0.01484834
v -0.22664572 0.5646215 0.04426538
v -0.21756713 0.56318193 0.10270679
v -0.19968183 0.56002086 0.15803192
v -0.17365986 0.55555135 0.20792943
v -0.14048375 0.55060994 0.25034952
v -0.10141103 0.54627484 0.28361415
v -0.05798253 0.54343766 0.30648165
v -0.01193867 0.54252272 0.31815916
v 0.03488253 0.54344594 0.31832188
v 0.08063607 0.54590177 0.30703824
v 0.12360166 0.54951137 0.2847678
v 0.16221377 0.55384725 0.252323
v 0.19506691 0.55834049 0.21091139
v 0.2208739 0.56234216 0.16209544
v 0.23846864 0.56526267 0.1077542
v 0.24697953 0.56668293 0.05001417
v 0.24599267 0.56640803 -0.00883597
v 0.23569415 0.5644589 -0.06644247
v 0.21674026 0.5610724 -0.12050205
v 0.19008192 0.55672913 -0.16890858
v 0.15680925 0.55206972 -0.20985105
v 0.1181362 0.54780632 -0.24189092
v 0.07544408 0.54452037 -0.26395821
v 0.03028718 0.54262572 -0.27535998
v -0.01771352 0.70078903 -0.30648231
v -0.06619156 0.70155984 -0.29416751
v -0.11167972 0.70320373 -0.26992142
v -0.15244087 0.70549315 -0.23468802
v -0.18696211 0.70804566 -0.18978709
v -0.21397903 0.7104215 -0.13687789
v -0.23247884 0.71227663 -0.07790958
v -0.24174127 0.71338003 -0.0150747
v -0.24139154 0.71356433 0.0492639
v -0.23143374 0.7127282 0.11264847
v -0.21224233 0.71089482 0.17261813
v -0.18451426 0.70830267 0.22682149
v -0.14925605 0.70543831 0.27313572
v -0.10776799 0.70290672 0.30973672
v -0.06162359 0.70120161 0.33518517
v -0.01261827 0.70054858 0.34847843
v 0.03732359 0.70091885 0.34909796
v 0.08623204 0.70217818 0.33701509
v 0.13221053 0.70414429 0.31269198
v 0.17350903 0.70657843 0.27706486
v 0.20858009 0.70914751 0.23151823
v 0.23606237 0.7114731 0.17782092
v 0.25480464 0.71321541 0.11805734
v 0.26397121 0.71412783 0.05454149
v 0.26316902 0.71407872 -0.01025695
v 0.25250536 0.71307319 -0.07381407
v 0.23253931 0.71122896 -0.13364639
v 0.20415262 0.70881718 -0.18743264
v 0.16846023 0.70621722 -0.2331158
v 0.12678192 0.70383662 -0.26898211
v 0.08067225 0.7020114 -0.29369217
v 0.03188107 0.70095676 -0.3063389
v -0.01567878 0.68568259 -0.27853959
v -0.05968222 0.68583762 -0.26721221
v -0.10101565 0.6862114 -0.24492161
v -0.13813115 0.68673974 -0.21250282
v -0.1696161 0.68733149 -0.17116878
v -0.19424125 0.68788713 -0.12247443
v -0.21103091 0.6883102 -0.06827424
v -0.21930764 0.68852752 -0.01063602
v -0.21873375 0.68849366 0.04822826
v -0.20932593 0.68821048 0.10605867
v -0.19145649 0.68771308 0.16062775
v -0.16583207 0.68707615 0.20983912
v -0.13347029 0.68638724 0.25180432
v -0.09563846 0.68575936 0.28492307
v -0.05379978 0.68528574 0.30794841
v -0.00954101 0.68504279 0.32002347
v 0.03548757 0.68507432 0.32070016
v 0.07961847 0.68538326 0.30993825
v 0.12120718 0.68593591 0.2881
v 0.15867276 0.6866551 0.25595018
v 0.19054462 0.68744629 0.21466165
v 0.21553856 0.68819814 0.16578403
v 0.23262001 0.68880742 0.1111942
v 0.24106706 0.68918746 0.0530248
v 0.24051582 0.68929046 -0.0064369
v 0.23097825 0.68910783 -0.06483361
v 0.21284762 0.68867248 -0.11985598
v 0.18687187 0.68805795 -0.16933621
v 0.15412011 0.6873582 -0.21134427
v 0.11592277 0.68668431 -0.24427609
v 0.0737966 0.68613165 -0.26691079
v 0.02937089 0.68578249 -0.27845501
v 0.00533474 0.7074787 -0.03347727
v 0.01357722 0.70750403 -0.03346816
v 0.00067649 0.70619326 -0.08801642
v 0.01717069 0.70623999 -0.08799824
v -0.00398648 0.70491749 -0.14255559
v 0.0207666 0.70498031 -0.14252835
v -0.00865323 0.70364755 -0.19709469
v 0.02436687 0.70372635 -0.19705973
v -0.01332561 0.70238977 -0.251634
v 0.02797059 0.70247703 -0.25158983
v 0.02169752 0.707448 -0.03135237
v 0.03341985 0.70617741 -0.08376665
v 0.04515193 0.70495677 -0.13617971
v 0.05689451 0.70379275 -0.18859396
v 0.06864839 0.70268017 -0.2410082
v 0.02938019 0.70732259 -0.0272052
v 0.04879324 0.70601588 -0.07547362
v 0.06822323 0.70485621 -0.12374071
v 0.08766997 0.70384126 -0.1720092
v 0.10713379 0.70297169 -0.22027631
v 0.03632543 0.70714515 -0.02118772
v 0.06269177 0.70578402 -0.06343736
v 0.08908263 0.70469111 -0.10568702
v 0.11549732 0.70386546 -0.14793796
v 0.14193239 0.70330947 -0.19018758
v 0.04226048 0.70694398 -0.01353242
v 0.07457088 0.70551425 -0.04812675
v 0.10691579 0.70448809 -0.0827211
v 0.13928897 0.70386439 -0.11731676
v 0.17168569 0.70364135 -0.15191108
v 0.04695383 0.70674783 -0.00453801
v 0.08396738 0.70525032 -0.03013796
v 0.12102312 0.70427537 -0.05573787
v 0.15811096 0.70383304 -0.08133786
v 0.19522558 0.70391845 -0.10693778
v 0.05022185 0.70658832 0.00544608
v 0.09051176 0.70502787 -0.01016974
v 0.13084986 0.70408928 -0.02578557
v 0.17122413 0.70377922 -0.04140143
v 0.2116272 0.70409393 -0.05701728
v 0.05193735 0.70648759 0.01603284
v 0.09394904 0.7048797 0.01100378
v 0.13601149 0.70395261 0.00597341
v 0.17811414 0.70370394 0.00094434
v 0.22024534 0.70413523 -0.00408472
v 0.05203455 0.70646089 0.02681184
v 0.0941443 0.70483064 0.03256047
v 0.13630597 0.70388096 0.0383104
v 0.1785082 0.70361745 0.04405899
v 0.22073993 0.70403605 0.04980893
v 0.05050937 0.70651048 0.03736614
v 0.09109158 0.70488125 0.05367033
v 0.13172237 0.70388728 0.06997459
v 0.17239272 0.70352619 0.08627877
v 0.21309386 0.70380193 0.10258302
v 0.04742253 0.70662874 0.04728918
v 0.0849099 0.70502269 0.07351647
v 0.12244173 0.70396047 0.09974374
v 0.16001033 0.70343822 0.12597101
v 0.19760769 0.70345956 0.15219833
v 0.04289432 0.70679301 0.05619657
v 0.07584299 0.70523059 0.09133123
v 0.10883014 0.70408618 0.1264646
v 0.14184972 0.70336014 0.16159924
v 0.17489606 0.70305305 0.19673386
v 0.0371013 0.70697802 0.06374275
v 0.06424776 0.70546728 0.10642235
v 0.09142448 0.70423847 0.1491032
v 0.11862678 0.70329541 0.19178272
v 0.14585293 0.7026357 0.23446363
v 0.03027123 0.70715349 0.0696343
v 0.05057776 0.7056927 0.11820663
v 0.07090451 0.70439004 0.16677898
v 0.091252 0.70324844 0.21535134
v 0.11161851 0.70226532 0.2639237
v 0.02267012 0.70729148 0.07364502
v 0.03536541 0.70587188 0.12622819
v 0.04807474 0.70451325 0.17881003
v 0.06079581 0.7032178 0.23139318
v 0.07353033 0.70198482 0.28397476
v 0.01459388 0.70736855 0.07562063
v 0.01920542 0.70597189 0.13017927
v 0.02382179 0.70458501 0.18473659
v 0.02844299 0.70320504 0.23929528
v 0.03307 0.70183318 0.2938525
v 0.00635714 0.70737296 0.07548934
v 0.00272309 0.70597809 0.1299169
v -0.00091393 0.70458877 0.18434307
v -0.0045559 0.7032054 0.2387705
v -0.00820178 0.70182663 0.29319655
v -0.00172172 0.7073037 0.07326323
v -0.01344583 0.70588821 0.12546446
v -0.02518277 0.70452678 0.17766577
v -0.03693445 0.70321446 0.22986705
v -0.04869838 0.70195847 0.28206688
v -0.00933495 0.70717114 0.06903682
v -0.02868241 0.70571202 0.1170117
v -0.04805605 0.70439952 0.16498656
v -0.06745394 0.70322996 0.21296018
v -0.08687388 0.70220476 0.26093512
v -0.0161909 0.70699268 0.06298166
v -0.04240943 0.7054792 0.10490008
v -0.06866572 0.70422989 0.14681857
v -0.09495719 0.70324367 0.18873708
v -0.12128088 0.70252454 0.23065546
v -0.02203302 0.7067992 0.05533544
v -0.05410878 0.70522064 0.08960767
v -0.08623529 0.70403951 0.1238812
v -0.11840722 0.70325446 0.15815347
v -0.15061998 0.70286828 0.19242693
v -0.02664283 0.70661753 0.0463969
v -0.06334257 0.70498102 0.07173056
v -0.10010486 0.70386177 0.09706427
v -0.13692209 0.70326274 0.12239793
v -0.17378674 0.7031843 0.14773163
v -0.02984986 0.70647746 0.03650501
v -0.06976714 0.70479279 0.05194682
v -0.10975676 0.70372301 0.0673899
v -0.14980842 0.70326644 0.08283168
v -0.18991194 0.70342713 0.0982748
v -0.03153536 0.70639902 0.02603514
v -0.07314655 0.70468872 0.03100706
v -0.11483334 0.70364588 0.03597898
v -0.15658575 0.7032724 0.0409522
v -0.19839373 0.70356869 0.04592412
v -0.03163937 0.70639592 0.01537824
v -0.07335268 0.70468825 0.00969326
v -0.11514417 0.70364761 0.00400828
v -0.15700146 0.7032811 -0.0016754
v -0.19891324 0.70358753 -0.00736037
v -0.0301557 0.70647019 0.00493174
v -0.07037957 0.70479017 -0.01119842
v -0.11067686 0.70373159 -0.02732859
v -0.15103504 0.70329922 -0.04345877
v -0.19144776 0.70349067 -0.05958895
v -0.0271385 0.70661407 -0.00491078
v -0.06433419 0.70498567 -0.03088479
v -0.10159439 0.70388811 -0.05685747
v -0.13890859 0.70332747 -0.08283149
v -0.17627236 0.70330148 -0.10880422
v -0.02269763 0.70680445 -0.01377918
v -0.05543909 0.70524638 -0.04862162
v -0.08823242 0.70410138 -0.08346272
v -0.12107167 0.70336991 -0.11830517
v -0.15395171 0.70305424 -0.15314625
v -0.01699756 0.70701485 -0.02133448
v -0.04402469 0.70553529 -0.06373091
v -0.07108932 0.7043401 -0.1061273
v -0.09819064 0.7034257 -0.14852373
v -0.12532326 0.70279341 -0.19092142
v -0.01025096 0.70721572 -0.02728184
v -0.0305171 0.70581656 -0.07562559
v -0.05080801 0.70457559 -0.12396806
v -0.07112356 0.70349365 -0.17231185
v -0.09146306 0.70257079 -0.22065557
v -0.00271161 0.70737892 -0.03138484
v -0.01542515 0.70604646 -0.0838316
v -0.02815302 0.70477801 -0.13627842
v -0.04089502 0.70357042 -0.18872517
v -0.05365073 0.70242506 -0.24117197
g Group37115
f 1 177 181 180
f 177 2 178 181
f 181 178 18 179
f 180 181 179 17
f 2 182 185 178
f 182 3 183 185
f 185 183 19 184
f 178 185 184 18
f 3 186 189 183
f 186 4 187 189
f 189 187 20 188
f 183 189 188 19
f 4 190 193 187
f 190 5 191 193
f 193 191 21 192
f 187 193 192 20
f 5 194 197 191
f 194 6 195 197
f 197 195 22 196
f 191 197 196 21
f 6 198 201 195
f 198 7 199 201
f 201 199 23 200
f 195 201 200 22
f 7 202 205 199
f 202 8 203 205
f 205 203 24 204
f 199 205 204 23
f 8 206 209 203
f 206 9 207 209
f 209 207 25 208
f 203 209 208 24
f 9 210 213 207
f 210 10 211 213
f 213 211 26 212
f 207 213 212 25
f 10 214 217 211
f 214 11 215 217
f 217 215 27 216
f 211 217 216 26
f 11 218 221 215
f 218 12 219 221
f 221 219 28 220
f 215 221 220 27
f 12 222 225 219
f 222 13 223 225
f 225 223 29 224
f 219 225 224 28
f 13 226 229 223
f 226 14 227 229
f 229 227 30 228
f 223 229 228 29
f 14 230 233 227
f 230 15 231 233
f 233 231 31 232
f 227 233 232 30
f 15 234 237 231
f 234 16 235 237
f 237 235 32 236
f 231 237 236 31
f 16 238 240 235
f 238 1 180 240
f 240 180 17 239
f 235 240 239 32
g Group31429
f 82 241 245 244
f 241 98 242 245
f 245 242 97 243
f 244 245 243 81
g Group37115
f 17 179 249 248
f 179 18 246 249
f 249 246 34 247
f 248 249 247 33
g Group31429
f 81 243 253 252
f 243 97 250 253
f 253 250 99 251
f 252 253 251 83
g Group37115
f 18 184 256 246
f 184 19 254 256
f 256 254 35 255
f 246 256 255 34
g Group31429
f 83 251 260 259
f 251 99 257 260
f 260 257 100 258
f 259 260 258 84
g Group37115
f 19 188 263 254
f 188 20 261 263
f 263 261 36 262
f 254 263 262 35
g Group31429
f 84 258 267 266
f 258 100 264 267
f 267 264 101 265
f 266 267 265 85
g Group37115
f 20 192 270 261
f 192 21 268 270
f 270 268 37 269
f 261 270 269 36
g Group31429
f 85 265 274 273
f 265 101 271 274
f 274 271 102 272
f 273 274 272 86
g Group37115
f 21 196 277 268
f 196 22 275 277
f 277 275 38 276
f 268 277 276 37
g Group31429
f 86 272 281 280
f 272 102 278 281
f 281 278 103 279
f 280 281 279 87
g Group37115
f 22 200 284 275
f 200 23 282 284
f 284 282 39 283
f 275 284 283 38
g Group31429
f 87 279 288 287
f 279 103 285 288
f 288 285 104 286
f 287 288 286 88
g Group37115
f 23 204 291 282
f 204 24 289 291
f 291 289 40 290
f 282 291 290 39
g Group31429
f 88 286 295 294
f 286 104 292 295
f 295 292 105 293
f 294 295 293 89
g Group37115
f 24 208 298 289
f 208 25 296 298
f 298 296 41 297
f 289 298 297 40
g Group31429
f 89 293 302 301
f 293 105 299 302
f 302 299 106 300
f 301 302 300 90
g Group37115
f 25 212 305 296
f 212 26 303 305
f 305 303 42 304
f 296 305 304 41
g Group31429
f 90 300 309 308
f 300 106 306 309
f 309 306 107 307
f 308 309 307 91
g Group37115
f 26 216 312 303
f 216 27 310 312
f 312 310 43 311
f 303 312 311 42
g Group31429
f 91 307 316 315
f 307 107 313 316
f 316 313 108 314
f 315 316 314 92
g Group37115
f 27 220 319 310
f 220 28 317 319
f 319 317 44 318
f 310 319 318 43
g Group31429
f 92 314 323 322
f 314 108 320 323
f 323 320 109 321
f 322 323 321 93
g Group37115
f 28 224 326 317
f 224 29 324 326
f 326 324 45 325
f 317 326 325 44
g Group31429
f 93 321 330 329
f 321 109 327 330
f 330 327 110 328
f 329 330 328 94
g Group37115
f 29 228 333 324
f 228 30 331 333
f 333 331 46 332
f 324 333 332 45
g Group31429
f 94 328 337 336
f 328 110 334 337
f 337 334 111 335
f 336 337 335 95
g Group37115
f 30 232 340 331
f 232 31 338 340
f 340 338 47 339
f 331 340 339 46
g Group31429
f 95 335 344 343
f 335 111 341 344
f 344 341 112 342
f 343 344 342 96
g Group37115
f 31 236 347 338
f 236 32 345 347
f 347 345 48 346
f 338 347 346 47
g Group31429
f 96 342 350 349
f 342 112 348 350
f 350 348 98 241
f 349 350 241 82
g Group37115
f 32 239 352 345
f 239 17 248 352
f 352 248 33 351
f 345 352 351 48
g Group31429
f 98 353 356 242
f 353 114 354 356
f 356 354 113 355
f 242 356 355 97
g Group37115
f 33 247 360 359
f 247 34 357 360
f 360 357 50 358
f 359 360 358 49
g Group31429
f 97 355 363 250
f 355 113 361 363
f 363 361 115 362
f 250 363 362 99
g Group37115
f 34 255 366 357
f 255 35 364 366
f 366 364 51 365
f 357 366 365 50
g Group31429
f 99 362 369 257
f 362 115 367 369
f 369 367 116 368
f 257 369 368 100
g Group37115
f 35 262 372 364
f 262 36 370 372
f 372 370 52 371
f 364 372 371 51
g Group31429
f 100 368 375 264
f 368 116 373 375
f 375 373 117 374
f 264 375 374 101
g Group37115
f 36 269 378 370
f 269 37 376 378
f 378 376 53 377
f 370 378 377 52
g Group31429
f 101 374 381 271
f 374 117 379 381
f 381 379 118 380
f 271 381 380 102
g Group37115
f 37 276 384 376
f 276 38 382 384
f 384 382 54 383
f 376 384 383 53
g Group31429
f 102 380 387 278
f 380 118 385 387
f 387 385 119 386
f 278 387 386 103
g Group37115
f 38 283 390 382
f 283 39 388 390
f 390 388 55 389
f 382 390 389 54
g Group31429
f 103 386 393 285
f 386 119 391 393
f 393 391 120 392
f 285 393 392 104
g Group37115
f 39 290 396 388
f 290 40 394 396
f 396 394 56 395
f 388 396 395 55
g Group31429
f 104 392 399 292
f 392 120 397 399
f 399 397 121 398
f 292 399 398 105
g Group37115
f 40 297 402 394
f 297 41 400 402
f 402 400 57 401
f 394 402 401 56
g Group31429
f 105 398 405 299
f 398 121 403 405
f 405 403 122 404
f 299 405 404 106
g Group37115
f 41 304 408 400
f 304 42 406 408
f 408 406 58 407
f 400 408 407 57
g Group31429
f 106 404 411 306
f 404 122 409 411
f 411 409 123 410
f 306 411 410 107
g Group37115
f 42 311 414 406
f 311 43 412 414
f 414 412 59 413
f 406 414 413 58
g Group31429
f 107 410 417 313
f 410 123 415 417
f 417 415 124 416
f 313 417 416 108
g Group37115
f 43 318 420 412
f 318 44 418 420
f 420 418 60 419
f 412 420 419 59
g Group31429
f 108 416 423 320
f 416 124 421 423
f 423 421 125 422
f 320 423 422 109
g Group37115
f 44 325 426 418
f 325 45 424 426
f 426 424 61 425
f 418 426 425 60
g Group31429
f 109 422 429 327
f 422 125 427 429
f 429 427 126 428
f 327 429 428 110
g Group37115
f 45 332 432 424
f 332 46 430 432
f 432 430 62 431
f 424 432 431 61
g Group31429
f 110 428 435 334
f 428 126 433 435
f 435 433 127 434
f 334 435 434 111
g Group37115
f 46 339 438 430
f 339 47 436 438
f 438 436 63 437
f 430 438 437 62
g Group31429
f 111 434 441 341
f 434 127 439 441
f 441 439 128 440
f 341 441 440 112
g Group37115
f 47 346 444 436
f 346 48 442 444
f 444 442 64 443
f 436 444 443 63
g Group31429
f 112 440 446 348
f 440 128 445 446
f 446 445 114 353
f 348 446 353 98
g Group37115
f 48 351 448 442
f 351 33 359 448
f 448 359 49 447
f 442 448 447 64
g Group31429
f 114 449 452 354
f 449 130 450 452
f 452 450 129 451
f 354 452 451 113
g Group31432
f 65 453 456 455
f 453 66 454 456
f 456 454 129 450
f 455 456 450 130
g Group37115
f 49 358 459 458
f 358 50 457 459
f 459 457 66 453
f 458 459 453 65
g Group31429
f 113 451 462 361
f 451 129 460 462
f 462 460 131 461
f 361 462 461 115
g Group31432
f 66 463 465 454
f 463 67 464 465
f 465 464 131 460
f 454 465 460 129
g Group37115
f 50 365 467 457
f 365 51 466 467
f 467 466 67 463
f 457 467 463 66
g Group31429
f 115 461 470 367
f 461 131 468 470
f 470 468 132 469
f 367 470 469 116
g Group31432
f 67 471 473 464
f 471 68 472 473
f 473 472 132 468
f 464 473 468 131
g Group37115
f 51 371 475 466
f 371 52 474 475
f 475 474 68 471
f 466 475 471 67
g Group31429
f 116 469 478 373
f 469 132 476 478
f 478 476 133 477
f 373 478 477 117
g Group31432
f 68 479 481 472
f 479 69 480 481
f 481 480 133 476
f 472 481 476 132
g Group37115
f 52 377 483 474
f 377 53 482 483
f 483 482 69 479
f 474 483 479 68
g Group31429
f 117 477 486 379
f 477 133 484 486
f 486 484 134 485
f 379 486 485 118
g Group31432
f 69 487 489 480
f 487 70 488 489
f 489 488 134 484
f 480 489 484 133
g Group37115
f 53 383 491 482
f 383 54 490 491
f 491 490 70 487
f 482 491 487 69
g Group31429
f 118 485 494 385
f 485 134 492 494
f 494 492 135 493
f 385 494 493 119
g Group31432
f 70 495 497 488
f 495 71 496 497
f 497 496 135 492
f 488 497 492 134
g Group37115
f 54 389 499 490
f 389 55 498 499
f 499 498 71 495
f 490 499 495 70
g Group31429
f 119 493 502 391
f 493 135 500 502
f 502 500 136 501
f 391 502 501 120
g Group31432
f 71 503 505 496
f 503 72 504 505
f 505 504 136 500
f 496 505 500 135
g Group37115
f 55 395 507 498
f 395 56 506 507
f 507 506 72 503
f 498 507 503 71
g Group31429
f 120 501 510 397
f 501 136 508 510
f 510 508 137 509
f 397 510 509 121
g Group31432
f 72 511 513 504
f 511 73 512 513
f 513 512 137 508
f 504 513 508 136
g Group37115
f 56 401 515 506
f 401 57 514 515
f 515 514 73 511
f 506 515 511 72
g Group31429
f 121 509 518 403
f 509 137 516 518
f 518 516 138 517
f 403 518 517 122
g Group31432
f 73 519 521 512
f 519 74 520 521
f 521 520 138 516
f 512 521 516 137
g Group37115
f 57 407 523 514
f 407 58 522 523
f 523 522 74 519
f 514 523 519 73
g Group31429
f 122 517 526 409
f 517 138 524 526
f 526 524 139 525
f 409 526 525 123
g Group31432
f 74 527 529 520
f 527 75 528 529
f 529 528 139 524
f 520 529 524 138
g Group37115
f 58 413 531 522
f 413 59 530 531
f 531 530 75 527
f 522 531 527 74
g Group31429
f 123 525 534 415
f 525 139 532 534
f 534 532 140 533
f 415 534 533 124
g Group31432
f 75 535 537 528
f 535 76 536 537
f 537 536 140 532
f 528 537 532 139
g Group37115
f 59 419 539 530
f 419 60 538 539
f 539 538 76 535
f 530 539 535 75
g Group31429
f 124 533 542 421
f 533 140 540 542
f 542 540 141 541
f 421 542 541 125
g Group31432
f 76 543 545 536
f 543 77 544 545
f 545 544 141 540
f 536 545 540 140
g Group37115
f 60 425 547 538
f 425 61 546 547
f 547 546 77 543
f 538 547 543 76
g Group31429
f 125 541 550 427
f 541 141 548 550
f 550 548 142 549
f 427 550 549 126
g Group31432
f 77 551 553 544
f 551 78 552 553
f 553 552 142 548
f 544 553 548 141
g Group37115
f 61 431 555 546
f 431 62 554 555
f 555 554 78 551
f 546 555 551 77
g Group31429
f 126 549 558 433
f 549 142 556 558
f 558 556 143 557
f 433 558 557 127
g Group31432
f 78 559 561 552
f 559 79 560 561
f 561 560 143 556
f 552 561 556 142
g Group37115
f 62 437 563 554
f 437 63 562 563
f 563 562 79 559
f 554 563 559 78
g Group31429
f 127 557 566 439
f 557 143 564 566
f 566 564 144 565
f 439 566 565 128
g Group31432
f 79 567 569 560
f 567 80 568 569
f 569 568 144 564
f 560 569 564 143
g Group37115
f 63 443 571 562
f 443 64 570 571
f 571 570 80 567
f 562 571 567 79
g Group31429
f 128 565 573 445
f 565 144 572 573
f 573 572 130 449
f 445 573 449 114
g Group31432
f 80 574 575 568
f 574 65 455 575
f 575 455 130 572
f 568 575 572 144
g Group37115
f 64 447 576 570
f 447 49 458 576
f 576 458 65 574
f 570 576 574 80
g Group31429
f 146 577 580 579
f 577 82 244 580
f 580 244 81 578
f 579 580 578 145
g Group31432
f 1 238 584 583
f 238 16 581 584
f 584 581 176 582
f 583 584 582 147
g Group31429
f 148 585 588 587
f 585 147 586 588
f 588 586 146 579
f 587 588 579 145
g Group31432
f 2 177 590 589
f 177 1 583 590
f 590 583 147 585
f 589 590 585 148
g Group31429
f 145 578 593 592
f 578 81 252 593
f 593 252 83 591
f 592 593 591 149
f 147 582 596 586
f 582 176 594 596
f 596 594 175 595
f 586 596 595 146
f 150 597 599 598
f 597 148 587 599
f 599 587 145 592
f 598 599 592 149
g Group31432
f 3 182 601 600
f 182 2 589 601
f 601 589 148 597
f 600 601 597 150
g Group31429
f 149 591 604 603
f 591 83 259 604
f 604 259 84 602
f 603 604 602 151
f 175 605 606 595
f 605 96 349 606
f 606 349 82 577
f 595 606 577 146
f 152 607 609 608
f 607 150 598 609
f 609 598 149 603
f 608 609 603 151
g Group31432
f 4 186 611 610
f 186 3 600 611
f 611 600 150 607
f 610 611 607 152
g Group31429
f 151 602 614 613
f 602 84 266 614
f 614 266 85 612
f 613 614 612 153
g Group31432
f 16 234 617 581
f 234 15 615 617
f 617 615 174 616
f 581 617 616 176
g Group31429
f 154 618 620 619
f 618 152 608 620
f 620 608 151 613
f 619 620 613 153
g Group31432
f 5 190 622 621
f 190 4 610 622
f 622 610 152 618
f 621 622 618 154
g Group31429
f 153 612 625 624
f 612 85 273 625
f 625 273 86 623
f 624 625 623 155
f 176 616 628 594
f 616 174 626 628
f 628 626 173 627
f 594 628 627 175
f 156 629 631 630
f 629 154 619 631
f 631 619 153 624
f 630 631 624 155
g Group31432
f 6 194 633 632
f 194 5 621 633
f 633 621 154 629
f 632 633 629 156
g Group31429
f 155 623 636 635
f 623 86 280 636
f 636 280 87 634
f 635 636 634 157
f 173 637 638 627
f 637 95 343 638
f 638 343 96 605
f 627 638 605 175
f 158 639 641 640
f 639 156 630 641
f 641 630 155 635
f 640 641 635 157
g Group31432
f 7 198 643 642
f 198 6 632 643
f 643 632 156 639
f 642 643 639 158
g Group31429
f 157 634 646 645
f 634 87 287 646
f 646 287 88 644
f 645 646 644 159
g Group31432
f 15 230 649 615
f 230 14 647 649
f 649 647 172 648
f 615 649 648 174
g Group31429
f 160 650 652 651
f 650 158 640 652
f 652 640 157 645
f 651 652 645 159
g Group31432
f 8 202 654 653
f 202 7 642 654
f 654 642 158 650
f 653 654 650 160
g Group31429
f 159 644 657 656
f 644 88 294 657
f 657 294 89 655
f 656 657 655 161
f 174 648 660 626
f 648 172 658 660
f 660 658 171 659
f 626 660 659 173
f 162 661 663 662
f 661 160 651 663
f 663 651 159 656
f 662 663 656 161
g Group31432
f 9 206 665 664
f 206 8 653 665
f 665 653 160 661
f 664 665 661 162
g Group31429
f 161 655 668 667
f 655 89 301 668
f 668 301 90 666
f 667 668 666 163
f 171 669 670 659
f 669 94 336 670
f 670 336 95 637
f 659 670 637 173
f 164 671 673 672
f 671 162 662 673
f 673 662 161 667
f 672 673 667 163
g Group31432
f 10 210 675 674
f 210 9 664 675
f 675 664 162 671
f 674 675 671 164
g Group31429
f 163 666 678 677
f 666 90 308 678
f 678 308 91 676
f 677 678 676 165
g Group31432
f 14 226 681 647
f 226 13 679 681
f 681 679 170 680
f 647 681 680 172
g Group31429
f 166 682 684 683
f 682 164 672 684
f 684 672 163 677
f 683 684 677 165
g Group31432
f 11 214 686 685
f 214 10 674 686
f 686 674 164 682
f 685 686 682 166
g Group31429
f 165 676 689 688
f 676 91 315 689
f 689 315 92 687
f 688 689 687 167
f 172 680 692 658
f 680 170 690 692
f 692 690 169 691
f 658 692 691 171
f 168 693 695 694
f 693 166 683 695
f 695 683 165 688
f 694 695 688 167
g Group31432
f 12 218 697 696
f 218 11 685 697
f 697 685 166 693
f 696 697 693 168
g Group31429
f 167 687 700 699
f 687 92 322 700
f 700 322 93 698
f 699 700 698 169
f 169 698 701 691
f 698 93 329 701
f 701 329 94 669
f 691 701 669 171
f 170 702 703 690
f 702 168 694 703
f 703 694 167 699
f 690 703 699 169
g Group31432
f 13 222 704 679
f 222 12 696 704
f 704 696 168 702
f 679 704 702 170
g Group33582
f 1059 804 803 1060
g Group9596
f 707 706 1027 1028
g Group33582
f 1060 803 805 1061
g Group9596
f 708 707 1028 1029
g Group33582
f 1061 805 806 1062
g Group9596
f 709 708 1029 1030
g Group33582
f 1062 806 807 1063
g Group9596
f 710 709 1030 1031
g Group33582
f 1063 807 808 1064
g Group9596
f 711 710 1031 1032
g Group33582
f 1064 808 809 1065
g Group9596
f 712 711 1032 1033
g Group33582
f 1065 809 810 1066
g Group9596
f 713 712 1033 1034
g Group33582
f 1066 810 811 1067
g Group9596
f 714 713 1034 1035
g Group33582
f 1067 811 812 1068
g Group9596
f 715 714 1035 1036
g Group33582
f 1068 812 813 1069
g Group9596
f 716 715 1036 1037
g Group33582
f 1069 813 814 1070
g Group9596
f 717 716 1037 1038
g Group33582
f 1070 814 815 1071
g Group9596
f 718 717 1038 1039
g Group33582
f 1071 815 816 1072
g Group9596
f 719 718 1039 1040
g Group33582
f 1072 816 817 1073
g Group9596
f 720 719 1040 1041
g Group33582
f 1073 817 818 1074
g Group9596
f 721 720 1041 1042
g Group33582
f 1074 818 819 1075
g Group9596
f 722 721 1042 1043
g Group33582
f 1075 819 820 1076
g Group9596
f 723 722 1043 1044
g Group33582
f 1076 820 821 1077
g Group9596
f 724 723 1044 1045
g Group33582
f 1077 821 822 1078
g Group9596
f 725 724 1045 1046
g Group33582
f 1078 822 823 1079
g Group9596
f 726 725 1046 1047
g Group33582
f 1079 823 824 1080
g Group9596
f 727 726 1047 1048
g Group33582
f 1080 824 825 1081
g Group9596
f 728 727 1048 1049
g Group33582
f 1081 825 826 1082
g Group9596
f 729 728 1049 1050
g Group33582
f 1082 826 827 1083
g Group9596
f 730 729 1050 1051
g Group33582
f 1083 827 828 1084
g Group9596
f 731 730 1051 1052
g Group33582
f 1084 828 829 1085
g Group9596
f 732 731 1052 1053
g Group33582
f 1085 829 830 1086
g Group9596
f 733 732 1053 1054
g Group33582
f 1086 830 831 1087
g Group9596
f 734 733 1054 1055
g Group33582
f 1087 831 832 1088
g Group9596
f 735 734 1055 1056
g Group33582
f 1088 832 833 1089
g Group9596
f 736 735 1056 1057
g Group33582
f 1089 833 834 1090
g Group9596
f 737 736 1057 1058
g Group33582
f 1090 834 804 1059
g Group9596
f 706 737 1058 1027
g Group33582
f 802 1090 1059
f 802 1089 1090
f 802 1088 1089
f 802 1087 1088
f 802 1086 1087
f 802 1085 1086
f 802 1084 1085
f 802 1083 1084
f 802 1082 1083
f 802 1081 1082
f 802 1080 1081
f 802 1079 1080
f 802 1078 1079
f 802 1077 1078
f 802 1076 1077
f 802 1075 1076
f 802 1074 1075
f 802 1073 1074
f 802 1072 1073
f 802 1071 1072
f 802 1070 1071
f 802 1069 1070
f 802 1068 1069
f 802 1067 1068
f 802 1066 1067
f 802 1065 1066
f 802 1064 1065
f 802 1063 1064
f 802 1062 1063
f 802 1061 1062
f 802 1060 1061
f 802 1059 1060
f 804 836 835 803
g Group9596
f 721 722 754 753
g Group33582
f 803 835 837 805
f 1010 980 979 1011
f 805 837 838 806
g Group9596
f 720 721 753 752
g Group33582
f 806 838 839 807
f 1009 981 980 1010
f 807 839 840 808
g Group9596
f 719 720 752 751
g Group33582
f 808 840 841 809
f 1008 982 981 1009
f 809 841 842 810
g Group9596
f 718 719 751 750
g Group33582
f 810 842 843 811
f 1007 983 982 1008
f 811 843 844 812
g Group9596
f 717 718 750 749
g Group33582
f 812 844 845 813
f 1006 984 983 1007
f 813 845 846 814
g Group9596
f 716 717 749 748
g Group33582
f 814 846 847 815
f 1005 985 984 1006
f 815 847 848 816
g Group9596
f 715 716 748 747
g Group33582
f 816 848 849 817
f 1004 986 985 1005
f 817 849 850 818
g Group9596
f 714 715 747 746
g Group33582
f 818 850 851 819
f 1003 987 986 1004
f 819 851 852 820
g Group9596
f 713 714 746 745
g Group33582
f 820 852 853 821
f 1002 988 987 1003
f 821 853 854 822
g Group9596
f 712 713 745 744
g Group33582
f 822 854 855 823
f 1001 989 988 1002
f 823 855 856 824
g Group9596
f 711 712 744 743
g Group33582
f 824 856 857 825
f 1000 990 989 1001
f 825 857 858 826
g Group9596
f 710 711 743 742
g Group33582
f 826 858 859 827
f 999 991 990 1000
f 827 859 860 828
g Group9596
f 709 710 742 741
g Group33582
f 828 860 861 829
f 998 992 991 999
f 829 861 862 830
g Group9596
f 708 709 741 740
g Group33582
f 830 862 863 831
f 997 993 992 998
f 831 863 864 832
g Group9596
f 707 708 740 739
g Group33582
f 832 864 865 833
f 995 994 993 997
f 833 865 866 834
g Group9596
f 706 707 739 738
g Group33582
f 834 866 836 804
f 996 963 994 995
f 870 869 868 867
g Group33585
f 801 770 868 869
g Group33582
f 1019 971 970 1020
f 872 871 869 870
g Group33585
f 800 801 869 871
g Group33582
f 850 1010 1011 851
f 874 873 871 872
g Group33585
f 799 800 871 873
g Group9596
f 730 731 763 762
g Group33582
f 876 875 873 874
g Group33585
f 798 799 873 875
g Group33582
f 849 1009 1010 850
f 878 877 875 876
g Group33585
f 797 798 875 877
g Group33582
f 1020 970 969 1021
f 880 879 877 878
g Group33585
f 796 797 877 879
g Group33582
f 848 1008 1009 849
f 882 881 879 880
g Group33585
f 795 796 879 881
g Group9596
f 731 732 764 763
g Group33582
f 884 883 881 882
g Group33585
f 794 795 881 883
g Group33582
f 847 1007 1008 848
f 886 885 883 884
g Group33585
f 793 794 883 885
g Group33582
f 1021 969 968 1022
f 888 887 885 886
g Group33585
f 792 793 885 887
g Group33582
f 846 1006 1007 847
f 890 889 887 888
g Group33585
f 791 792 887 889
g Group9596
f 732 733 765 764
g Group33582
f 892 891 889 890
g Group33585
f 790 791 889 891
g Group33582
f 845 1005 1006 846
f 894 893 891 892
g Group33585
f 789 790 891 893
g Group33582
f 1022 968 967 1023
f 896 895 893 894
g Group33585
f 788 789 893 895
g Group33582
f 844 1004 1005 845
f 898 897 895 896
g Group33585
f 787 788 895 897
g Group9596
f 733 734 766 765
g Group33582
f 900 899 897 898
g Group33585
f 786 787 897 899
g Group33582
f 843 1003 1004 844
f 902 901 899 900
g Group33585
f 785 786 899 901
g Group33582
f 1023 967 966 1024
f 904 903 901 902
g Group33585
f 784 785 901 903
g Group33582
f 842 1002 1003 843
f 906 905 903 904
g Group33585
f 783 784 903 905
g Group9596
f 734 735 767 766
g Group33582
f 908 907 905 906
g Group33585
f 782 783 905 907
g Group33582
f 841 1001 1002 842
f 910 909 907 908
g Group33585
f 781 782 907 909
g Group33582
f 1024 966 965 1025
f 912 911 909 910
g Group33585
f 780 781 909 911
g Group33582
f 840 1000 1001 841
f 914 913 911 912
g Group33585
f 779 780 911 913
g Group9596
f 735 736 768 767
g Group33582
f 916 915 913 914
g Group33585
f 778 779 913 915
g Group33582
f 839 999 1000 840
f 918 917 915 916
g Group33585
f 777 778 915 917
g Group33582
f 1025 965 964 1026
f 920 919 917 918
g Group33585
f 776 777 917 919
g Group33582
f 838 998 999 839
f 922 921 919 920
g Group33585
f 775 776 919 921
g Group9596
f 736 737 769 768
g Group33582
f 924 923 921 922
g Group33585
f 774 775 921 923
g Group33582
f 837 997 998 838
f 926 925 923 924
g Group33585
f 773 774 923 925
g Group33582
f 1026 964 963 996
f 928 927 925 926
g Group33585
f 772 773 925 927
g Group33582
f 835 995 997 837
f 930 929 927 928
g Group33585
f 771 772 927 929
g Group9596
f 737 706 738 769
g Group33582
f 867 868 929 930
g Group33585
f 770 771 929 868
g Group33582
f 836 996 995 835
f 932 870 867 931
g Group9596
f 769 738 770 801
g Group33582
f 933 872 870 932
g Group9596
f 768 769 801 800
g Group33582
f 934 874 872 933
g Group9596
f 767 768 800 799
g Group33582
f 935 876 874 934
g Group9596
f 766 767 799 798
g Group33582
f 936 878 876 935
g Group9596
f 765 766 798 797
g Group33582
f 937 880 878 936
g Group9596
f 764 765 797 796
g Group33582
f 938 882 880 937
g Group9596
f 763 764 796 795
g Group33582
f 939 884 882 938
g Group9596
f 762 763 795 794
g Group33582
f 940 886 884 939
g Group9596
f 761 762 794 793
g Group33582
f 941 888 886 940
g Group9596
f 760 761 793 792
g Group33582
f 942 890 888 941
g Group9596
f 759 760 792 791
g Group33582
f 943 892 890 942
g Group9596
f 758 759 791 790
g Group33582
f 944 894 892 943
g Group9596
f 757 758 790 789
g Group33582
f 945 896 894 944
g Group9596
f 756 757 789 788
g Group33582
f 946 898 896 945
g Group9596
f 755 756 788 787
g Group33582
f 947 900 898 946
g Group9596
f 754 755 787 786
g Group33582
f 948 902 900 947
g Group9596
f 753 754 786 785
g Group33582
f 949 904 902 948
g Group9596
f 752 753 785 784
g Group33582
f 950 906 904 949
g Group9596
f 751 752 784 783
g Group33582
f 951 908 906 950
g Group9596
f 750 751 783 782
g Group33582
f 952 910 908 951
g Group9596
f 749 750 782 781
g Group33582
f 953 912 910 952
g Group9596
f 748 749 781 780
g Group33582
f 954 914 912 953
g Group9596
f 747 748 780 779
g Group33582
f 955 916 914 954
g Group9596
f 746 747 779 778
g Group33582
f 956 918 916 955
g Group9596
f 745 746 778 777
g Group33582
f 957 920 918 956
g Group9596
f 744 745 777 776
g Group33582
f 958 922 920 957
g Group9596
f 743 744 776 775
g Group33582
f 959 924 922 958
g Group9596
f 742 743 775 774
g Group33582
f 960 926 924 959
g Group9596
f 741 742 774 773
g Group33582
f 961 928 926 960
g Group9596
f 740 741 773 772
g Group33582
f 962 930 928 961
g Group9596
f 739 740 772 771
g Group33582
f 931 867 930 962
g Group9596
f 738 739 771 770
g Group33582
f 964 932 931 963
f 1011 979 978 1012
f 965 933 932 964
f 866 1026 996 836
f 966 934 933 965
g Group9596
f 722 723 755 754
g Group33582
f 967 935 934 966
f 865 1025 1026 866
f 968 936 935 967
f 1012 978 977 1013
f 969 937 936 968
f 864 1024 1025 865
f 970 938 937 969
g Group9596
f 723 724 756 755
g Group33582
f 971 939 938 970
f 863 1023 1024 864
f 972 940 939 971
f 1013 977 976 1014
f 973 941 940 972
f 862 1022 1023 863
f 974 942 941 973
g Group9596
f 724 725 757 756
g Group33582
f 975 943 942 974
f 861 1021 1022 862
f 976 944 943 975
f 1014 976 975 1015
f 977 945 944 976
f 860 1020 1021 861
f 978 946 945 977
g Group9596
f 725 726 758 757
g Group33582
f 979 947 946 978
f 859 1019 1020 860
f 980 948 947 979
f 1015 975 974 1016
f 981 949 948 980
f 858 1018 1019 859
f 982 950 949 981
g Group9596
f 726 727 759 758
g Group33582
f 983 951 950 982
f 857 1017 1018 858
f 984 952 951 983
f 1016 974 973 1017
f 985 953 952 984
f 856 1016 1017 857
f 986 954 953 985
g Group9596
f 727 728 760 759
g Group33582
f 987 955 954 986
f 855 1015 1016 856
f 988 956 955 987
f 1017 973 972 1018
f 989 957 956 988
f 854 1014 1015 855
f 990 958 957 989
g Group9596
f 728 729 761 760
g Group33582
f 991 959 958 990
f 853 1013 1014 854
f 992 960 959 991
f 1018 972 971 1019
f 993 961 960 992
f 852 1012 1013 853
f 994 962 961 993
g Group9596
f 729 730 762 761
g Group33582
f 963 931 962 994
f 851 1011 1012 852
g Group9596
f 705 1091 1092
f 1091 1093 1094 1092
f 1093 1095 1096 1094
f 1095 1097 1098 1096
f 1097 1099 1100 1098
f 1099 1027 1058 1100
f 705 1092 1101
f 1092 1094 1102 1101
f 1094 1096 1103 1102
f 1096 1098 1104 1103
f 1098 1100 1105 1104
f 1100 1058 1057 1105
f 705 1101 1106
f 1101 1102 1107 1106
f 1102 1103 1108 1107
f 1103 1104 1109 1108
f 1104 1105 1110 1109
f 1105 1057 1056 1110
f 705 1106 1111
f 1106 1107 1112 1111
f 1107 1108 1113 1112
f 1108 1109 1114 1113
f 1109 1110 1115 1114
f 1110 1056 1055 1115
f 705 1111 1116
f 1111 1112 1117 1116
f 1112 1113 1118 1117
f 1113 1114 1119 1118
f 1114 1115 1120 1119
f 1115 1055 1054 1120
f 705 1116 1121
f 1116 1117 1122 1121
f 1117 1118 1123 1122
f 1118 1119 1124 1123
f 1119 1120 1125 1124
f 1120 1054 1053 1125
f 705 1121 1126
f 1121 1122 1127 1126
f 1122 1123 1128 1127
f 1123 1124 1129 1128
f 1124 1125 1130 1129
f 1125 1053 1052 1130
f 705 1126 1131
f 1126 1127 1132 1131
f 1127 1128 1133 1132
f 1128 1129 1134 1133
f 1129 1130 1135 1134
f 1130 1052 1051 1135
f 705 1131 1136
f 1131 1132 1137 1136
f 1132 1133 1138 1137
f 1133 1134 1139 1138
f 1134 1135 1140 1139
f 1135 1051 1050 1140
f 705 1136 1141
f 1136 1137 1142 1141
f 1137 1138 1143 1142
f 1138 1139 1144 1143
f 1139 1140 1145 1144
f 1140 1050 1049 1145
f 705 1141 1146
f 1141 1142 1147 1146
f 1142 1143 1148 1147
f 1143 1144 1149 1148
f 1144 1145 1150 1149
f 1145 1049 1048 1150
f 705 1146 1151
f 1146 1147 1152 1151
f 1147 1148 1153 1152
f 1148 1149 1154 1153
f 1149 1150 1155 1154
f 1150 1048 1047 1155
f 705 1151 1156
f 1151 1152 1157 1156
f 1152 1153 1158 1157
f 1153 1154 1159 1158
f 1154 1155 1160 1159
f 1155 1047 1046 1160
f 705 1156 1161
f 1156 1157 1162 1161
f 1157 1158 1163 1162
f 1158 1159 1164 1163
f 1159 1160 1165 1164
f 1160 1046 1045 1165
f 705 1161 1166
f 1161 1162 1167 1166
f 1162 1163 1168 1167
f 1163 1164 1169 1168
f 1164 1165 1170 1169
f 1165 1045 1044 1170
f 705 1166 1171
f 1166 1167 1172 1171
f 1167 1168 1173 1172
f 1168 1169 1174 1173
f 1169 1170 1175 1174
f 1170 1044 1043 1175
f 705 1171 1176
f 1171 1172 1177 1176
f 1172 1173 1178 1177
f 1173 1174 1179 1178
f 1174 1175 1180 1179
f 1175 1043 1042 1180
f 705 1176 1181
f 1176 1177 1182 1181
f 1177 1178 1183 1182
f 1178 1179 1184 1183
f 1179 1180 1185 1184
f 1180 1042 1041 1185
f 705 1181 1186
f 1181 1182 1187 1186
f 1182 1183 1188 1187
f 1183 1184 1189 1188
f 1184 1185 1190 1189
f 1185 1041 1040 1190
f 705 1186 1191
f 1186 1187 1192 1191
f 1187 1188 1193 1192
f 1188 1189 1194 1193
f 1189 1190 1195 1194
f 1190 1040 1039 1195
f 705 1191 1196
f 1191 1192 1197 1196
f 1192 1193 1198 1197
f 1193 1194 1199 1198
f 1194 1195 1200 1199
f 1195 1039 1038 1200
f 705 1196 1201
f 1196 1197 1202 1201
f 1197 1198 1203 1202
f 1198 1199 1204 1203
f 1199 1200 1205 1204
f 1200 1038 1037 1205
f 705 1201 1206
f 1201 1202 1207 1206
f 1202 1203 1208 1207
f 1203 1204 1209 1208
f 1204 1205 1210 1209
f 1205 1037 1036 1210
f 705 1206 1211
f 1206 1207 1212 1211
f 1207 1208 1213 1212
f 1208 1209 1214 1213
f 1209 1210 1215 1214
f 1210 1036 1035 1215
f 705 1211 1216
f 1211 1212 1217 1216
f 1212 1213 1218 1217
f 1213 1214 1219 1218
f 1214 1215 1220 1219
f 1215 1035 1034 1220
f 705 1216 1221
f 1216 1217 1222 1221
f 1217 1218 1223 1222
f 1218 1219 1224 1223
f 1219 1220 1225 1224
f 1220 1034 1033 1225
f 705 1221 1226
f 1221 1222 1227 1226
f 1222 1223 1228 1227
f 1223 1224 1229 1228
f 1224 1225 1230 1229
f 1225 1033 1032 1230
f 705 1226 1231
f 1226 1227 1232 1231
f 1227 1228 1233 1232
f 1228 1229 1234 1233
f 1229 1230 1235 1234
f 1230 1032 1031 1235
f 705 1231 1236
f 1231 1232 1237 1236
f 1232 1233 1238 1237
f 1233 1234 1239 1238
f 1234 1235 1240 1239
f 1235 1031 1030 1240
f 705 1236 1241
f 1236 1237 1242 1241
f 1237 1238 1243 1242
f 1238 1239 1244 1243
f 1239 1240 1245 1244
f 1240 1030 1029 1245
f 705 1241 1246
f 1241 1242 1247 1246
f 1242 1243 1248 1247
f 1243 1244 1249 1248
f 1244 1245 1250 1249
f 1245 1029 1028 1250
f 705 1246 1091
f 1246 1247 1093 1091
f 1247 1248 1095 1093
f 1248 1249 1097 1095
f 1249 1250 1099 1097
f 1250 1028 1027 1099

 