# File exported by ZBrush version 2021
# www.zbrush.com
#Vertex Count 1484
#Face Count 1512
#Auto scale x=1.000000 y=1.000000 z=1.000000
#Auto offset x=0.000000 y=0.000000 z=0.000000
v 0.09396748 -0.01431177 0.23939734
v 0.09201536 0.04399505 0.22931647
v 0.14957182 -0.0008615 0.18225462
v 0.1444993 -0.06583727 0.18913164
v 0.08892127 0.1091768 0.18612299
v 0.1418586 0.0665218 0.1616282
v 0.09628506 0.14759352 0.11380386
v 0.16145974 0.07149449 0.10541357
v 0.10309948 0.15935859 -0.01642438
v 0.17796118 0.07934846 -0.01871467
v 0.21244709 -0.03055234 -0.02228924
v 0.16984169 0.06982624 -0.11594611
v 0.20611447 -0.02721654 -0.1159963
v 0.14930672 0.04869275 -0.17707626
v 0.16475436 -0.0220415 -0.18244642
v 0.09810121 0.13602794 -0.12339358
v 0.00022258 0.15987381 -0.12769126
v 0.0000916 0.18774104 -0.01453226
v -0.10281384 0.15940575 -0.01636114
v 0.00011058 0.17326638 0.12161371
v -0.09594839 0.14773596 0.11383584
v -0.09748329 0.13611196 -0.12324748
v 0.00038853 0.09413617 -0.21146611
v 0.09177085 0.07934682 -0.2013826
v 0.09414363 -0.00691508 -0.22193661
v 0.0004483 0.0011145 -0.23583422
v -0.09305275 -0.00677702 -0.22169239
v -0.09078199 0.07947497 -0.201156
v -0.08927758 -0.1223765 -0.19989314
v 0.0003481 -0.11930431 -0.21164158
v 0.09011375 -0.12248149 -0.20007887
v 0.15844912 -0.13043819 -0.16705739
v 0.20472988 -0.14307305 -0.10114495
v 0.21178045 -0.17391486 -0.00478303
v 0.17346784 -0.18321713 0.11765513
v 0.17764367 -0.03497861 0.11247485
v 0.00020564 0.06010839 0.24797819
v 0.00017644 0.12889742 0.19923651
v 0.00020485 0.00026348 0.25906434
v -0.09337313 -0.01395335 0.23950962
v -0.09142838 0.0443197 0.22941175
v -0.17698784 -0.03467679 0.11254001
v -0.14877897 -0.00043077 0.18236376
v -0.14369836 -0.06537726 0.18925602
v -0.17292055 -0.18296046 0.11771155
v -0.08841373 0.10942339 0.18618649
v -0.16090743 0.07174554 0.10546664
v -0.14114761 0.06688579 0.16171349
v -0.21187824 -0.0304446 -0.02214705
v -0.17747274 0.07944019 -0.01859285
v -0.20394769 -0.14294542 -0.10092382
v -0.20509068 -0.02704956 -0.11570701
v -0.21134071 -0.17383071 -0.00467297
v -0.1689094 0.06997639 -0.11568553
v -0.1634674 -0.02183846 -0.18208752
v -0.14805243 0.04889022 -0.17672725
v -0.15747283 -0.13028429 -0.16678537
v 0.00023712 -0.26689732 -0.19756379
v -0.07883025 -0.27282726 -0.18772259
v 0.07939977 -0.27289891 -0.18784926
v 0.1381807 -0.27959176 -0.15452392
v 0.18557827 -0.30643892 -0.07219105
v 0.20431233 -0.4122557 0.03908633
v 0.19017399 -0.55416798 0.12821281
v -0.18504621 -0.30635234 -0.0720408
v -0.20401707 -0.41220045 0.03916056
v -0.18990403 -0.55406093 0.12823194
v -0.13751639 -0.27948698 -0.15433873
v 0.17057338 0.07429545 0.0511354
v 0.10047341 0.15675909 0.05670072
v 0.0000615 0.18457295 0.06199919
v -0.10027082 0.15682172 0.05672502
v 0.19223587 -0.03762221 0.05293889
v 0.18869333 -0.2041717 0.06715934
v -0.19180159 -0.037479 0.05299496
v -0.17021103 0.07441521 0.05118223
v -0.18835766 -0.20406174 0.06720164
v 0.19881887 -0.52747142 0.09520649
v -0.19860564 -0.52740544 0.09523325
v 0.14724721 -0.04382361 0.18753856
v 0.12554651 0.02357857 0.20901528
v 0.0934792 0.00569081 0.2374994
v 0.12536218 -0.03755 0.21764321
v 0.12583987 -0.01642685 0.21585616
v 0.14761135 0.0387831 0.17256423
v 0.12231025 0.08775714 0.17384892
v 0.0897212 0.07915373 0.21228469
v 0.12308612 0.05950826 0.19554124
v 0.15235462 0.06956936 0.13735084
v 0.13433468 0.11565667 0.10808667
v 0.09205864 0.13229556 0.15047466
v 0.12758886 0.10583383 0.14196771
v 0.16663458 0.07242742 0.07826108
v 0.14080989 0.12177305 0.05288577
v 0.09875199 0.15418325 0.08455844
v 0.1381383 0.11976347 0.08015073
v 0.19174581 0.0242976 -0.11416735
v 0.17596034 0.07661574 -0.06726668
v 0.20055663 0.02596207 -0.01903962
v 0.21388667 -0.0285581 -0.07006681
v 0.19925846 0.02640342 -0.06681398
v 0.18935754 -0.0257272 -0.15299204
v 0.15786182 0.02040286 -0.18234252
v 0.16020759 0.05946613 -0.15499925
v 0.1782706 0.02053037 -0.15252675
v 0.14527326 0.12483927 -0.01804112
v 0.13835905 0.1075721 -0.11968004
v 0.10135661 0.15166896 -0.06915722
v 0.14313416 0.1192369 -0.06845618
v 0.05336325 0.18035897 -0.01507213
v 0.05083385 0.15364369 -0.126378
v 0.00014591 0.17850093 -0.07019136
v 0.05243476 0.17152653 -0.06983058
v -0.04986541 0.16675365 0.1191464
v 0.00007953 0.18133604 0.09093351
v -0.05197788 0.17748189 0.0603525
v -0.09849953 0.15427914 0.08458188
v -0.05111094 0.17447988 0.08890551
v -0.10092832 0.15173046 -0.06905616
v -0.05315284 0.18038219 -0.01504091
v -0.05034211 0.15368637 -0.12630367
v -0.05210655 0.17155723 -0.06978002
v 0.05212204 0.1774507 0.06034043
v 0.0501178 0.16668011 0.11912933
v 0.05129498 0.17443126 0.08889342
v 0.09428595 0.11175728 -0.16860635
v 0.04803586 0.08995622 -0.20870001
v 0.00030929 0.13121391 -0.17593038
v 0.04912929 0.12597154 -0.17381548
v 0.12749159 0.06398515 -0.19057703
v 0.13186721 0.08972182 -0.16147752
v 0.13291946 -0.01466764 -0.20533968
v 0.09239459 0.03923092 -0.2183004
v 0.12911416 0.02855245 -0.20374634
v 0.04892921 -0.00124612 -0.23230303
v 0.00043943 0.05025494 -0.23085871
v 0.04825578 0.04703037 -0.22758188
v -0.04719962 0.09002354 -0.20858104
v -0.04797698 -0.00117242 -0.23217266
v -0.09130685 0.03936988 -0.21805463
v -0.04731766 0.04710412 -0.22745046
v 0.00041276 -0.05162774 -0.22613906
v -0.04637471 -0.12018774 -0.2086168
v -0.09247264 -0.0563898 -0.21275721
v -0.04781152 -0.05295786 -0.22267283
v 0.09346777 -0.05651604 -0.21297873
v 0.04711118 -0.12024396 -0.20871624
v 0.04868574 -0.05302489 -0.22279135
v 0.16428607 -0.0678856 -0.17700119
v 0.12685725 -0.12582756 -0.18644909
v 0.13194067 -0.06167101 -0.19755083
v 0.20847751 -0.07719508 -0.11403341
v 0.18503767 -0.13541477 -0.13895264
v 0.19039318 -0.07321976 -0.15015181
v 0.21419061 -0.15609514 -0.05294799
v 0.21478466 -0.08482975 -0.01769796
v 0.21670895 -0.08055446 -0.06692516
v 0.20343104 -0.03406111 0.01830946
v 0.19338618 -0.09639427 0.05674606
v 0.20126478 -0.19123527 0.03450151
v 0.2052709 -0.09069427 0.02299507
v 0.18454885 -0.03941415 0.08282373
v 0.18852227 0.0178513 0.05231317
v 0.17604245 0.01825045 0.10826606
v 0.18274264 0.01581475 0.08034181
v 0.16650967 -0.02173511 0.14791469
v 0.16472628 0.02526314 0.14130026
v 0.16102142 -0.09529382 0.15306522
v 0.17603422 -0.09085268 0.11556521
v 0.16400143 -0.07138764 0.15196107
v 0.04675072 0.12351922 0.19535204
v 0.00019682 0.09670595 0.228519
v 0.0486168 0.05613106 0.2428518
v 0.04727125 0.09204448 0.22391438
v 0.00020629 0.02068298 0.25709155
v 0.05023939 -0.00273106 0.25374019
v 0.04973952 0.01737769 0.25177395
v -0.04815547 0.05630949 0.24290636
v -0.09288524 0.00603771 0.23760573
v -0.04977668 -0.00253259 0.25380492
v -0.04927501 0.01756936 0.25183513
v -0.16027623 -0.09490191 0.15316124
v -0.14644558 -0.04337288 0.18765761
v -0.16574451 -0.02134976 0.14800359
v -0.17539981 -0.09055549 0.11563104
v -0.1632415 -0.07099493 0.15205515
v -0.12482605 0.0239912 0.20912891
v -0.12462911 -0.03710001 0.21777561
v -0.12510888 -0.01598952 0.21598191
v -0.08916061 0.07944449 0.21236506
v -0.0463547 0.12365154 0.19538752
v -0.04683042 0.09220279 0.22395995
v -0.12167599 0.08808469 0.17392882
v -0.09163004 0.1324906 0.15052105
v -0.13388796 0.11585923 0.1081305
v -0.15169586 0.06989201 0.13742229
v -0.12703886 0.10610199 0.14202864
v -0.14685265 0.03918098 0.17265948
v -0.12239658 0.05988385 0.19563913
v -0.17541572 0.01853559 0.10832645
v -0.16399447 0.02562392 0.14138083
v -0.20000097 0.02606711 -0.01890063
v -0.20298612 -0.03395288 0.01839603
v -0.18810349 0.01798922 0.05236721
v -0.17492096 0.07777056 0.01983564
v -0.19533084 0.02236839 0.01999391
v -0.14052736 0.12186623 0.05292207
v -0.16619895 0.07260409 0.07830309
v -0.13779373 0.11990314 0.08018431
v 0.00014566 0.15510229 0.16065765
v -0.04782133 0.14915299 0.1575458
v 0.04815034 0.14905029 0.15752045
v -0.21426095 -0.08473054 -0.01756708
v -0.21310485 -0.02842597 -0.06985193
v -0.20754504 -0.07704297 -0.11376989
v -0.21358816 -0.1559935 -0.05278357
v -0.21599283 -0.08043336 -0.06672834
v -0.20092099 -0.19115191 0.03456768
v -0.19298368 -0.09626141 0.05679715
v -0.20486058 -0.09059426 0.02307509
v -0.17527054 0.07673101 -0.06707845
v -0.19072365 0.02446394 -0.11387895
v -0.19848685 0.02653351 -0.06660208
v -0.15906296 0.05964805 -0.15467864
v -0.15655688 0.0206088 -0.18197852
v -0.18814525 -0.02553213 -0.15264843
v -0.17704594 0.02072712 -0.15218016
v -0.12633326 0.06415987 -0.19026821
v -0.13757699 0.10769318 -0.11946963
v -0.09346772 0.1118654 -0.16841571
v -0.1308742 0.08987312 -0.16121079
v -0.14488546 0.1249102 -0.01794643
v -0.14257255 0.11932774 -0.06830745
v -0.18411611 -0.13526739 -0.13869144
v -0.16312074 -0.06770188 -0.17667645
v -0.18929357 -0.0730428 -0.14984017
v -0.13168977 -0.01448419 -0.20501516
v -0.12787239 0.02873843 -0.20341739
v -0.04845602 0.12602746 -0.17371684
v -0.12592139 -0.12568841 -0.18620298
v -0.1308248 -0.06150491 -0.19725713
v 0.00028004 -0.21334733 -0.20092308
v -0.0415515 -0.26919746 -0.1952096
v -0.08254583 -0.21768462 -0.19052761
v -0.04336725 -0.21492525 -0.19832485
v 0.08321794 -0.21776911 -0.19067689
v 0.04205329 -0.26923582 -0.19527748
v 0.04395964 -0.21497046 -0.1984048
v 0.14440321 -0.2244227 -0.15932774
v 0.11051207 -0.27612173 -0.17572969
v 0.1158574 -0.22060306 -0.17844767
v 0.19081105 -0.24564957 -0.08529473
v 0.16383941 -0.28516909 -0.11942486
v 0.17004381 -0.23007799 -0.12861961
v 0.20580993 -0.31766793 0.02615399
v 0.19970138 -0.34706813 -0.01022764
v 0.20296965 -0.27438947 -0.02660603
v 0.19575005 -0.40385565 0.08501033
v 0.2031985 -0.47561904 0.07360863
v 0.20246499 -0.36422941 0.06155762
v -0.19018358 -0.24554723 -0.08511726
v -0.19929422 -0.34699949 -0.01011547
v -0.20545876 -0.31760186 0.0262421
v -0.20248763 -0.27430817 -0.02647334
v -0.18000581 -0.20891593 0.09615778
v -0.19548931 -0.40377211 0.08504374
v -0.19473242 -0.54933929 0.11632794
v -0.18734462 -0.42249247 0.11918924
v -0.18990485 -0.41995266 0.10795249
v -0.14361926 -0.22429904 -0.15910936
v -0.16321161 -0.28506821 -0.11924716
v -0.16930393 -0.22995901 -0.1284099
v -0.10987476 -0.2760269 -0.17556192
v -0.11510556 -0.22049129 -0.17824994
v 0.17529438 0.07767969 0.01976272
v 0.10236829 0.15978817 0.02427804
v 0.14386117 0.12462461 0.02126635
v 0.00006376 0.18823629 0.02818724
v -0.10215921 0.15983447 0.02431515
v -0.05288468 0.18090242 0.02702053
v 0.05303383 0.18087971 0.02700235
v 0.18041104 -0.2090801 0.09611851
v 0.18498227 -0.09879112 0.0859285
v 0.19576109 0.02226358 0.01990991
v -0.18402728 -0.03920213 0.08287453
v -0.18224239 0.01601707 0.08038988
v -0.14356985 0.12469457 0.02132247
v -0.18449263 -0.09859051 0.08597687
v 0.18769928 -0.42264249 0.11916009
v 0.19496899 -0.54942715 0.11630834
v 0.19021098 -0.42007243 0.10792454
v -0.20297189 -0.47556474 0.07365321
v -0.20219288 -0.36416325 0.061611
v 0.12959814 -0.03705894 0.22214028
v 0.1301355 -0.01554578 0.22029106
v 0.15238459 -0.04318572 0.19105039
v 0.14953765 -0.06557395 0.19272007
v 0.12985333 0.02540084 0.21326924
v 0.15477848 0.00067451 0.18559356
v 0.09644851 0.00670829 0.24285921
v 0.09502614 0.04606669 0.23440916
v 0.09688555 -0.01369435 0.2448256
v 0.12724392 0.06242858 0.19935506
v 0.15264052 0.04140801 0.17559635
v 0.12635281 0.0915291 0.17699231
v 0.14660391 0.0698912 0.16436319
v 0.09266623 0.08244015 0.21675366
v 0.09181997 0.1134254 0.18972785
v 0.13169115 0.11008153 0.1443697
v 0.15734748 0.07310117 0.1395404
v 0.13860252 0.12016915 0.10967842
v 0.16669072 0.07518488 0.1068424
v 0.09499879 0.1371259 0.15319491
v 0.09933851 0.15277856 0.11565365
v 0.14250567 0.1243966 0.08096063
v 0.17196488 0.07619313 0.07899202
v 0.14519356 0.12638762 0.05337737
v 0.17589491 0.0780409 0.05159682
v 0.10187273 0.1595641 0.085529
v 0.10361056 0.1621533 0.05728377
v 0.22002022 -0.02724606 -0.07103174
v 0.20495981 0.02898717 -0.06777225
v 0.19727444 0.02666664 -0.11599294
v 0.21199707 -0.02615676 -0.11802016
v 0.18105354 0.08016067 -0.06827727
v 0.17478606 0.07321057 -0.1177355
v 0.20639327 0.0286611 -0.019303
v 0.1831775 0.08299096 -0.01907563
v 0.21869725 -0.02906738 -0.02242704
v 0.16485591 0.06246667 -0.15789251
v 0.18340767 0.02248586 -0.15552724
v 0.1946316 -0.02510506 -0.15631678
v 0.16222325 0.02194521 -0.18656233
v 0.16901643 -0.02186806 -0.18702186
v 0.15353506 0.05117696 -0.18089048
v 0.10434497 0.15694868 -0.0704454
v 0.14733904 0.1237135 -0.06958816
v 0.14960394 0.12938839 -0.0184655
v 0.10620273 0.16473189 -0.01690072
v 0.14237001 0.11190874 -0.12165182
v 0.1009022 0.14108437 -0.12565042
v 0.00014444 0.18453015 -0.07164993
v 0.05398746 0.17735591 -0.07124186
v 0.054981 0.18632207 -0.01559363
v 0.00009072 0.19392518 -0.01507396
v 0.05228466 0.15915118 -0.12884908
v 0.00022057 0.16554316 -0.1302427
v -0.10161577 0.15966194 0.08555264
v -0.05274014 0.180359 0.09000387
v -0.05147773 0.17238293 0.12119606
v -0.09899519 0.15292403 0.11568617
v 0.0000804 0.18744087 0.09206584
v 0.00011208 0.17911511 0.12372523
v -0.05361205 0.18341095 0.06100768
v 0.00006179 0.19072884 0.06267039
v -0.10340571 0.16221703 0.05730798
v -0.05179723 0.15919354 -0.12877535
v -0.05366237 0.17738632 -0.07119181
v -0.10392023 0.15700967 -0.07034526
v -0.10028915 0.14116774 -0.12550544
v -0.05477237 0.18634526 -0.01556276
v -0.10591887 0.16477896 -0.01683812
v 0.05173409 0.17230787 0.12117873
v 0.05292662 0.18030947 0.08999165
v 0.05375723 0.18337932 0.06099565
v 0.05043452 0.13074314 -0.17758344
v 0.09680773 0.11623192 -0.17211116
v 0.04919217 0.09337128 -0.21380595
v 0.09402234 0.08257666 -0.20624509
v 0.00030689 0.13609632 -0.17979671
v 0.00038601 0.09761956 -0.21666543
v 0.135588 0.09362704 -0.16461205
v 0.13092567 0.06686084 -0.19495418
v 0.13233614 0.02993456 -0.20892523
v 0.13593025 -0.01480074 -0.21078628
v 0.09443295 0.04068792 -0.22400789
v 0.09601594 -0.00714733 -0.22785452
v 0.04927422 0.04858275 -0.23352637
v 0.04982909 -0.00149549 -0.23844108
v 0.00043706 0.05184131 -0.23688504
v 0.00044634 0.00086082 -0.24203868
v -0.09335088 0.04082621 -0.22376331
v -0.04834113 0.04865613 -0.23339657
v -0.04836132 0.09343818 -0.2136877
v -0.09303954 0.08270409 -0.20601983
v -0.04888101 -0.00142207 -0.23831121
v -0.09492959 -0.00700979 -0.22761121
v -0.09419217 -0.05748435 -0.21855884
v -0.04862143 -0.054121 -0.22865361
v 0.00041134 -0.0528205 -0.2321676
v -0.04715829 -0.12114524 -0.214644
v 0.00034721 -0.12028612 -0.21771329
v -0.09097101 -0.12329877 -0.20573218
v 0.04949266 -0.05418784 -0.22877186
v 0.09518411 -0.05760923 -0.21877974
v 0.04789291 -0.12120138 -0.21474333
v 0.09180527 -0.12340363 -0.20591759
v 0.13472954 -0.06265212 -0.20294076
v 0.16827441 -0.06871945 -0.18161433
v 0.12965971 -0.12675301 -0.19182509
v 0.16244524 -0.13145411 -0.17156633
v 0.19547177 -0.07384606 -0.15361748
v 0.21433898 -0.07747691 -0.11622771
v 0.19001323 -0.13648258 -0.14235812
v 0.21042092 -0.14399237 -0.10348518
v 0.22116228 -0.08443505 -0.01781876
v 0.22294555 -0.0804799 -0.06799768
v 0.22034394 -0.15671023 -0.05434677
v 0.21815754 -0.17416863 -0.005241
v 0.20755627 -0.19123221 0.03516352
v 0.21154874 -0.09018106 0.02376712
v 0.20965714 -0.03256395 0.01890665
v 0.19953201 -0.0959123 0.05792866
v 0.19841894 -0.03618479 0.0538512
v 0.19476209 -0.2040992 0.06843311
v 0.18185237 0.0208038 0.10980827
v 0.18867251 0.01843955 0.08122514
v 0.19068594 -0.03806002 0.08404
v 0.18362538 -0.03365542 0.11432894
v 0.19444668 0.02052562 0.05292157
v 0.17025613 0.02777241 0.14358118
v 0.17221927 -0.020365 0.15045361
v 0.16959318 -0.07088007 0.1547371
v 0.16647994 -0.09513702 0.15596835
v 0.1818872 -0.09041145 0.11771816
v 0.17924082 -0.18310621 0.11980572
v 0.05015308 0.05831527 0.2484842
v 0.04882868 0.09554923 0.22882635
v 0.04831831 0.12806782 0.19929532
v 0.00020001 0.10029838 0.23361739
v 0.00017925 0.13360692 0.20332369
v 0.00020868 0.06229484 0.25381857
v 0.05120967 0.01842365 0.25768795
v 0.00020851 0.02168359 0.26320055
v 0.05166683 -0.00210182 0.25971096
v 0.00020567 0.00086234 0.2652097
v -0.05120217 -0.00190261 0.25977587
v -0.05073989 0.01861734 0.25774961
v -0.04968448 0.05849649 0.24853941
v -0.09584702 0.00705896 0.24296639
v -0.09442871 0.04639656 0.23450562
v -0.0962884 -0.01333456 0.24493822
v -0.18124079 -0.09010971 0.11778455
v -0.16882062 -0.07048227 0.15483091
v -0.16573007 -0.09474317 0.15606471
v -0.17868895 -0.18284776 0.11986233
v -0.15157097 -0.04272962 0.1911704
v -0.14873218 -0.06511194 0.19284483
v -0.17143668 -0.01997246 0.15054264
v -0.15396881 0.00111179 0.18570411
v -0.18295379 -0.03334743 0.11439487
v -0.12886129 -0.03660717 0.22227205
v -0.12939444 -0.01510355 0.22041784
v -0.12911877 0.02582032 0.2133844
v -0.04791532 0.12820276 0.19933143
v -0.04837917 0.09571049 0.22887268
v -0.09209436 0.08273655 0.21683536
v -0.09130207 0.11367713 0.18979248
v -0.15667209 0.07343109 0.13961313
v -0.13112823 0.11035571 0.1444318
v -0.12570387 0.09186374 0.1770737
v -0.14587546 0.07026328 0.16444999
v -0.09456143 0.13732516 0.15324214
v -0.13814538 0.12037622 0.10972294
v -0.16612428 0.07544179 0.10689627
v -0.12653902 0.06281166 0.19945459
v -0.15186364 0.04181416 0.17569418
v -0.16950582 0.02814092 0.14366294
v -0.18120944 0.02109539 0.10986943
v -0.18020585 0.08146975 0.02006907
v -0.20122391 0.02507025 0.02035408
v -0.20583804 0.02876649 -0.01916496
v -0.18269018 0.08308279 -0.01895478
v -0.2092093 -0.03245516 0.01899176
v -0.21812811 -0.02895915 -0.02228564
v -0.19402015 0.02066652 0.0529755
v -0.19797636 -0.03603856 0.0539072
v -0.17552626 0.07816314 0.05164351
v -0.17151892 0.07637391 0.07903432
v -0.14215377 0.12453927 0.08099443
v -0.14490693 0.12648257 0.05341352
v -0.04939783 0.15435488 0.16052195
v 0.00014783 0.16050383 0.16372749
v 0.04973235 0.15425008 0.16049617
v -0.2197431 -0.15660858 -0.05418184
v -0.222231 -0.08035886 -0.06780165
v -0.22063788 -0.08433533 -0.01768946
v -0.21771681 -0.17408502 -0.0051313
v -0.21924091 -0.02711416 -0.07081892
v -0.21340942 -0.07732517 -0.11596504
v -0.21097655 -0.02599038 -0.11773219
v -0.20964029 -0.14386495 -0.10326454
v -0.21113462 -0.09007959 0.02384575
v -0.20720841 -0.19114767 0.03523046
v -0.1991222 -0.09577678 0.05797968
v -0.19441998 -0.20398718 0.06847542
v -0.20419168 0.02911686 -0.06756165
v -0.18036751 0.08027543 -0.06809042
v -0.19625769 0.02683218 -0.11570615
v -0.17385949 0.07335986 -0.11747665
v -0.19342355 -0.02491076 -0.15597468
v -0.18218955 0.02268161 -0.15518251
v -0.16371813 0.06264753 -0.15757384
v -0.16092495 0.02215013 -0.18620012
v -0.152288 0.05137338 -0.18054331
v -0.16773486 -0.02166583 -0.18666444
v -0.09599539 0.11633934 -0.1719218
v -0.13460163 0.09377737 -0.16434706
v -0.12977424 0.06703456 -0.19464705
v -0.14159445 0.112029 -0.12144193
v -0.14921774 0.12945935 -0.01837166
v -0.14678132 0.12380378 -0.06944064
v -0.16711184 -0.06853625 -0.18129061
v -0.19437581 -0.07366964 -0.15330684
v -0.1890937 -0.13633459 -0.14209748
v -0.16147108 -0.13130052 -0.17129492
v -0.13110071 0.03011965 -0.20859782
v -0.13470566 -0.014618 -0.21046306
v -0.04976636 0.13079866 -0.17748549
v -0.13361722 -0.0624865 -0.20264788
v -0.12872593 -0.12661413 -0.1915794
v -0.08426643 -0.21822968 -0.19640706
v -0.04413473 -0.21544911 -0.20440369
v 0.00027957 -0.21387618 -0.20704498
v -0.04231242 -0.26957529 -0.20129835
v 0.00023698 -0.26727026 -0.20369479
v -0.08057597 -0.27324858 -0.19361081
v 0.04472619 -0.2154943 -0.20448362
v 0.08493758 -0.21831399 -0.19655625
v 0.04281392 -0.26961374 -0.20136623
v 0.08114522 -0.27332025 -0.19373746
v 0.11883601 -0.22126884 -0.18378384
v 0.14863337 -0.22530742 -0.16364827
v 0.11361309 -0.27670913 -0.18104554
v 0.14256419 -0.28043738 -0.15876163
v 0.17509734 -0.23111766 -0.13191472
v 0.19642756 -0.24664714 -0.08776374
v 0.16893507 -0.28618302 -0.12268497
v 0.19112584 -0.30740052 -0.07469969
v 0.20901416 -0.27515479 -0.02837536
v 0.21208639 -0.31811422 0.02516556
v 0.20557563 -0.34778666 -0.01209278
v 0.21039898 -0.4126985 0.03789805
v 0.20878361 -0.3643766 0.06187041
v 0.2018135 -0.40387171 0.08619655
v 0.20943914 -0.47580131 0.07374025
v 0.20485658 -0.52750182 0.096323
v -0.21173445 -0.31804689 0.02525246
v -0.20853129 -0.2750734 -0.02824293
v -0.19580075 -0.24654489 -0.08758653
v -0.20516841 -0.34771716 -0.01198168
v -0.19059398 -0.30731394 -0.07454949
v -0.21010325 -0.4126431 0.03797227
v -0.19329197 -0.4224666 0.12068267
v -0.19588026 -0.41994133 0.10933601
v -0.18593962 -0.20883235 0.09778034
v -0.20154862 -0.40378701 0.08622992
v -0.20073404 -0.54934537 0.1175168
v -0.20464336 -0.5274353 0.09634976
v -0.19591629 -0.55406123 0.12937915
v -0.1743585 -0.23099869 -0.13170528
v -0.14785045 -0.22518394 -0.16343008
v -0.16830851 -0.28608211 -0.12250734
v -0.14190009 -0.28033265 -0.15857647
v -0.11808517 -0.22115717 -0.18358631
v -0.11297606 -0.2766143 -0.18087777
v 0.14824456 0.12920574 0.02149456
v 0.18058161 0.08137781 0.01999669
v 0.10551556 0.1651773 0.02454406
v -0.10530626 0.16522403 0.02458081
v -0.05452798 0.18686944 0.02731266
v 0.00006347 0.19443228 0.02848443
v 0.05467672 0.18684651 0.02729465
v 0.18635122 -0.20899897 0.097742
v 0.19102962 -0.09836486 0.08744767
v 0.20165847 0.024965 0.02027064
v -0.18815985 0.01864654 0.08127357
v -0.19015097 -0.03784339 0.08409113
v -0.14795203 0.12927645 0.02155018
v -0.19052991 -0.09816066 0.08749526
v 0.1961895 -0.42006242 0.1093081
v 0.19364793 -0.42261725 0.12065357
v 0.20097155 -0.54943323 0.11749829
v 0.1961869 -0.55416876 0.129361
v -0.20850859 -0.36431074 0.06192265
v -0.20921179 -0.4757477 0.07378479
v 0.00137002 0.21795235 -0.00644439
v -0.01871209 0.01725758 -0.24617248
v -0.06473965 0.01738663 -0.2378889
v -0.10846325 0.01725232 -0.22152221
v -0.14796082 0.01747924 -0.19736525
v -0.18098583 0.01885639 -0.16552259
v -0.20470167 0.02213551 -0.12566232
v -0.21665078 0.02740195 -0.07902072
v -0.21871812 0.03392978 -0.02804209
v -0.21313858 0.04043136 0.02342964
v -0.20266325 0.04637448 0.07340876
v -0.18742848 0.05171037 0.12001235
v -0.16589187 0.05705051 0.16226649
v -0.13839125 0.06246236 0.19839228
v -0.10422086 0.06742519 0.22647671
v -0.06401097 0.07101083 0.2450737
v -0.0196588 0.07279752 0.2544243
v 0.02622622 0.07260315 0.25494381
v 0.06925554 0.07044509 0.24658538
v 0.10760678 0.06645139 0.22866724
v 0.14026282 0.06099525 0.2012044
v 0.16709844 0.05485561 0.16566494
v 0.18833963 0.04845869 0.12406064
v 0.20319855 0.04181019 0.07812768
v 0.21273896 0.03460736 0.02888765
v 0.21729423 0.02724478 -0.02192291
v 0.21464936 0.02056125 -0.07246175
v 0.20315377 0.0157947 -0.11928315
v 0.1810379 0.01351466 -0.15988342
v 0.15046364 0.01333425 -0.19292271
v 0.11376178 0.01431872 -0.21845173
v 0.0724416 0.01563266 -0.23612834
v 0.02782446 0.01667255 -0.24560898
v -0.01766204 -0.0210985 -0.24470156
v -0.06393791 -0.0207523 -0.23649703
v -0.10832153 -0.02072333 -0.2206294
v -0.14881832 -0.02032638 -0.19726523
v -0.18296851 -0.01867602 -0.16634279
v -0.20663668 -0.01470753 -0.12683077
v -0.21678893 -0.00838243 -0.08005101
v -0.21597686 -0.00058448 -0.02839339
v -0.20785243 0.00675601 0.02347013
v -0.19623997 0.01305516 0.07372419
v -0.18130351 0.01825519 0.1203667
v -0.16113081 0.02355234 0.16298009
v -0.13551172 0.0291222 0.19945521
v -0.10320352 0.03447032 0.22771674
v -0.06409262 0.03834538 0.24597813
v -0.02013596 0.04029795 0.25511241
v 0.02579943 0.04008057 0.25572618
v 0.0680776 0.03772336 0.24777634
v 0.10485239 0.03337357 0.23022927
v 0.13535814 0.02743745 0.20259207
v 0.16034303 0.02096954 0.16670703
v 0.1804331 0.01435911 0.12478797
v 0.19523717 0.00754132 0.07888224
v 0.20604151 -0.00027093 0.0294603
v 0.21326634 -0.00859342 -0.02167297
v 0.21376712 -0.01649363 -0.07285614
v 0.20454134 -0.02216592 -0.11991064
v 0.18312691 -0.02494247 -0.16032809
v 0.15212701 -0.02522882 -0.1926496
v 0.11508626 -0.02425354 -0.21753615
v 0.07361175 -0.02290584 -0.23477402
v 0.02903387 -0.0218277 -0.24416071
v -0.0169235 -0.04198456 -0.24354606
v -0.06350418 -0.04145859 -0.23542964
v -0.10852987 -0.04129045 -0.21995872
v -0.14985375 -0.04072817 -0.1972083
v -0.18490515 -0.03882587 -0.1669984
v -0.20852781 -0.03428443 -0.1278131
v -0.21758042 -0.02716291 -0.08103431
v -0.21481131 -0.01841572 -0.02900401
v -0.20492188 -0.01045774 0.02302831
v -0.19248439 -0.00386357 0.0733776
v -0.17771835 0.00125564 0.11995293
v -0.15853111 0.00654351 0.16273249
v -0.1340752 0.01221375 0.19931435
v -0.10292547 0.01783704 0.22762791
v -0.06442868 0.02193716 0.2456308
v -0.02059005 0.02402404 0.2546111
v 0.02549618 0.02378553 0.25528666
v 0.06737227 0.02126374 0.24761502
v 0.10315082 0.0166353 0.23034766
v 0.13227857 0.01034551 0.20266202
v 0.15612097 0.00363723 0.1666705
v 0.17540718 -0.00316848 0.12461822
v 0.19022211 -0.01014744 0.07883798
v 0.20196978 -0.0184507 0.02939846
v 0.21105556 -0.02748117 -0.02184007
v 0.21372576 -0.03628271 -0.07336413
v 0.20595994 -0.04261967 -0.12049043
v 0.18509626 -0.0458117 -0.16071091
v 0.15374422 -0.04621739 -0.19248218
v 0.11639394 -0.04528633 -0.21687015
v 0.07467083 -0.04393015 -0.233754
v 0.03000857 -0.04282634 -0.24303105
v -0.01639439 -0.06116255 -0.24237474
v -0.0629907 -0.06051079 -0.23430343
v -0.10827539 -0.06023366 -0.21907407
v -0.14971569 -0.05945513 -0.19647149
v -0.18495954 -0.05728582 -0.16645877
v -0.20833666 -0.05233494 -0.12738019
v -0.21685756 -0.04474329 -0.08068068
v -0.21351686 -0.0354643 -0.02851693
v -0.20296825 -0.02724117 0.02338969
v -0.19034679 -0.02039981 0.07390619
v -0.17582418 -0.01528282 0.12046093
v -0.15704594 -0.00999326 0.16323527
v -0.13330178 -0.00431462 0.19979211
v -0.10279867 0.00140782 0.22816799
v -0.06451682 0.00556105 0.2460397
v -0.02094719 0.0077376 0.25508788
v 0.02504027 0.0074852 0.25577983
v 0.06655541 0.00485807 0.2481191
v 0.10197179 0.00013653 0.23098988
v 0.13039326 -0.0063034 0.20326924
v 0.15357542 -0.01311321 0.16729693
v 0.17255689 -0.02005846 0.12525275
v 0.18727804 -0.02718326 0.0795348
v 0.19931349 -0.03586232 0.02998013
v 0.20914529 -0.04522783 -0.02112365
v 0.2125135 -0.05452876 -0.07274877
v 0.2054754 -0.06125775 -0.11985934
v 0.18515385 -0.06475517 -0.16004493
v 0.15393626 -0.06533618 -0.191714
v 0.11680191 -0.06454336 -0.21603544
v 0.07505644 -0.06318956 -0.23268885
v 0.03051095 -0.06207952 -0.24188686
v -0.08093687 0.17987628 -0.26496174
v -0.0266669 0.18058159 -0.27385115
v -0.13206733 0.17856861 -0.24657523
v -0.1778538 0.17734108 -0.21900533
v -0.2162864 0.17690399 -0.18280464
v -0.24566765 0.17781671 -0.13891415
v -0.26475337 0.1803092 -0.08899293
v -0.27331176 0.1842738 -0.03539421
v -0.27169862 0.18940998 0.01925452
v -0.26041078 0.19540841 0.0725532
v -0.23970863 0.20197457 0.12238456
v -0.20990271 0.20878146 0.16689264
v -0.1718997 0.2153366 0.20444659
v -0.12692536 0.22097639 0.23367543
v -0.07669308 0.22502145 0.25360587
v -0.02325483 0.22698217 0.26378256
v 0.03106123 0.22663627 0.26411157
v 0.08386579 0.22400322 0.25458049
v 0.13307656 0.21932032 0.235254
v 0.17693494 0.2130727 0.2066169
v 0.21388873 0.20590147 0.16964727
v 0.24261845 0.19842843 0.12573385
v 0.26206675 0.19115424 0.07651955
v 0.27183103 0.18451495 0.02387658
v 0.2718606 0.1789641 -0.03013071
v 0.26201218 0.17497573 -0.08324598
v 0.24232167 0.17291694 -0.13303744
v 0.21320858 0.17282903 -0.17726364
v 0.17582657 0.17429848 -0.21427148
v 0.13151942 0.17656274 -0.24300494
v 0.08179303 0.17877398 -0.26276597
v 0.02837021 0.18023435 -0.27311331
v 0.03068325 0.15423834 -0.28296065
v -0.02664575 0.15477642 -0.28370612
v 0.08615809 0.15257732 -0.27234548
v 0.13777759 0.15015426 -0.25221729
v 0.1838417 0.14772112 -0.22293981
v 0.22262093 0.14626959 -0.18498292
v 0.25233072 0.14672696 -0.13910706
v 0.27123397 0.14959672 -0.08698846
v 0.27969133 0.15470388 -0.03111045
v 0.27814567 0.16139656 0.02558179
v 0.26741302 0.16898019 0.08064757
v 0.2475093 0.17697893 0.13200244
v 0.21844048 0.18510331 0.1779257
v 0.18125286 0.19292096 0.21662935
v 0.1368367 0.19976706 0.24643209
v 0.08656164 0.20488429 0.26632085
v 0.03202538 0.20774689 0.27599
v -0.02464189 0.20811349 0.27561709
v -0.08015222 0.20596864 0.26521396
v -0.13189376 0.20155118 0.24469345
v -0.17774845 0.19541536 0.21425946
v -0.2160169 0.18839266 0.17490711
v -0.24603468 0.18121121 0.12826828
v -0.26699331 0.17426636 0.07615429
v -0.2791481 0.16764733 0.02026643
v -0.28216391 0.16157749 -0.03718807
v -0.27479666 0.15652364 -0.09360664
v -0.25609204 0.15311056 -0.1457671
v -0.22553043 0.15163692 -0.19112345
v -0.18501901 0.15183797 -0.22803866
v -0.13681033 0.15299591 -0.25595292
v -0.08326278 0.15422511 -0.27459377
v 0.02292892 0.19920256 -0.23619107
v -0.02358223 0.19933776 -0.23681701
v 0.06826353 0.19826428 -0.22703392
v 0.11061583 0.19676259 -0.2095678
v 0.14842121 0.19518588 -0.1842816
v 0.18039442 0.19412337 -0.15200954
v 0.20550034 0.19408164 -0.11395322
v 0.22295755 0.1953379 -0.07161326
v 0.23217472 0.19794715 -0.0266881
v 0.23278152 0.20176728 0.0190434
v 0.2246536 0.20655614 0.06378608
v 0.20796261 0.21199548 0.10578897
v 0.18325576 0.21769696 0.14340847
v 0.15144589 0.22320172 0.17519162
v 0.1137701 0.22800631 0.19995868
v 0.07171154 0.23162096 0.21684013
v 0.02691071 0.2336616 0.22527834
v -0.01891266 0.23390686 0.22500751
v -0.06399446 0.23234356 0.21603295
v -0.10657399 0.2291675 0.19863633
v -0.14497491 0.22475314 0.1733894
v -0.17768821 0.2195879 0.14117388
v -0.2034917 0.21419183 0.10316326
v -0.22149382 0.20904405 0.06077619
v -0.23110975 0.20452392 0.01562493
v -0.23202459 0.20089849 -0.03052933
v -0.22414331 0.19831855 -0.07581885
v -0.20759558 0.1968453 -0.11833305
v -0.18282711 0.19641478 -0.15625609
v -0.15065068 0.19683224 -0.18802623
v -0.11228597 0.19775874 -0.21247766
v -0.06931448 0.19874773 -0.22886708
v -0.02631926 0.19014312 -0.2652809
v -0.07814528 0.18938429 -0.25656014
v -0.12695565 0.18805855 -0.23851798
v -0.17065823 0.18676933 -0.21143753
v -0.20742881 0.18611155 -0.17598916
v -0.23583789 0.18653368 -0.13334865
v -0.25490206 0.188278 -0.08522225
v -0.26405721 0.19140271 -0.03370602
v -0.2631202 0.19581598 0.01890112
v -0.25219884 0.20130711 0.07030956
v -0.23167789 0.20753826 0.11838425
v -0.20225407 0.21404622 0.16124349
v -0.16498661 0.22025828 0.19732452
v -0.12130602 0.22555063 0.22541885
v -0.072958 0.22934478 0.24466604
v -0.02186175 0.23120223 0.25454163
v 0.03000273 0.23089455 0.25479939
v 0.08068768 0.22843657 0.24544651
v 0.12830823 0.22408625 0.22672836
v 0.17105978 0.21829138 0.19917315
v 0.20727272 0.21161685 0.16363258
v 0.23551797 0.20465104 0.12132393
v 0.25469589 0.1979611 0.07381954
v 0.26411429 0.19204372 0.02299139
v 0.26351594 0.18733532 -0.02907612
v 0.25303575 0.18417055 -0.0801946
v 0.23314441 0.18273535 -0.12820294
v 0.20457817 0.18295505 -0.17110298
v 0.16828969 0.18446002 -0.20721717
v 0.12547072 0.18659868 -0.23529794
v 0.07756704 0.18862988 -0.25455978
v 0.02630601 0.18991747 -0.26460352
v -0.00283318 0.21528084 -0.04488681
v 0.00485151 0.21528236 -0.04481059
v -0.00706034 0.21253363 -0.08339456
v 0.0082715 0.21252748 -0.083238
v -0.01126274 0.20968574 -0.12183082
v 0.01176009 0.20966997 -0.12157861
v -0.01543321 0.20667442 -0.16020642
v 0.01533296 0.20663996 -0.15984313
v -0.01955682 0.20335952 -0.1985365
v 0.01902197 0.20328988 -0.19804841
v 0.01236116 0.21515394 -0.04326177
v 0.02326695 0.21227829 -0.08013445
v 0.03426988 0.20928506 -0.11693736
v 0.04538944 0.20609912 -0.15367983
v 0.05667498 0.20256495 -0.19037775
v 0.01938377 0.21492816 -0.04029263
v 0.03731509 0.21184636 -0.07419376
v 0.0553557 0.20862451 -0.10806062
v 0.07353196 0.2051835 -0.14190346
v 0.09189753 0.20136337 -0.17573687
v 0.02564792 0.21467523 -0.0360121
v 0.04987743 0.21136321 -0.06563127
v 0.07422024 0.20788994 -0.09525775
v 0.09870289 0.20417639 -0.12489979
v 0.12338246 0.20006749 -0.1545706
v 0.0309359 0.21447968 -0.0305874
v 0.06050543 0.21099278 -0.05478064
v 0.09019319 0.20733724 -0.07900998
v 0.12002172 0.20343571 -0.10328324
v 0.15004201 0.19914564 -0.12761187
v 0.0350753 0.21442374 -0.02423705
v 0.06884311 0.21089042 -0.04207126
v 0.10273759 0.20719915 -0.05995208
v 0.13677404 0.20328119 -0.07788583
v 0.17099252 0.19900956 -0.09588179
v 0.03794247 0.21455703 -0.01721373
v 0.07462864 0.21115686 -0.02800669
v 0.11145127 0.20762828 -0.03883766
v 0.14842121 0.20391221 -0.0497097
v 0.18556563 0.19990128 -0.06063086
v 0.039448 0.21490162 -0.00979044
v 0.07767274 0.21184098 -0.0131347
v 0.11604231 0.20868806 -0.01649104
v 0.1545632 0.20540007 -0.0198654
v 0.19325685 0.20188935 -0.02326108
v 0.03954203 0.21545054 -0.00224484
v 0.07786759 0.21293242 0.00198723
v 0.11634022 0.2103585 0.00623502
v 0.15496435 0.20769853 0.01049704
v 0.19376227 0.20488569 0.01476869
v 0.0382082 0.21617636 0.00514596
v 0.07518709 0.21437998 0.01679379
v 0.11229956 0.21255533 0.02848449
v 0.14955517 0.21068315 0.04021612
v 0.18698428 0.20871798 0.05198416
v 0.03547586 0.21703277 0.0121064
v 0.06969341 0.21609099 0.03073078
v 0.10401844 0.21513737 0.04941358
v 0.13846826 0.2141617 0.06815228
v 0.17308445 0.21313577 0.08694408
v 0.03142799 0.21795463 0.01837267
v 0.06156188 0.21793407 0.0432642
v 0.09177091 0.21790936 0.06821444
v 0.12207748 0.21787513 0.09322339
v 0.15253262 0.21781697 0.11828854
v 0.02620244 0.21885941 0.02369909
v 0.05107959 0.21974179 0.05390399
v 0.07599826 0.22062289 0.08415774
v 0.10098556 0.2215016 0.11445659
v 0.1260914 0.22236715 0.14480195
v 0.01999455 0.21965539 0.02787375
v 0.03863916 0.22133398 0.06223579
v 0.05730149 0.22301121 0.09662582
v 0.07600579 0.22468571 0.1310434
v 0.09479224 0.22635453 0.16548782
v 0.0130436 0.22025775 0.03073144
v 0.02472456 0.22253668 0.06793279
v 0.03641122 0.22481335 0.10514555
v 0.04811775 0.22708906 0.14236827
v 0.05986506 0.22936038 0.1796005
v 0.00562602 0.22059661 0.03215825
v 0.00988731 0.22321431 0.07077863
v 0.0141504 0.22583057 0.10940176
v 0.01841456 0.22844523 0.14802815
v 0.02267369 0.23105749 0.18665531
v -0.00195832 0.22063498 0.03209794
v -0.0052825 0.22329109 0.07066471
v -0.00860774 0.22594688 0.10924104
v -0.01194967 0.22860264 0.14782692
v -0.01534889 0.23125742 0.18641878
v -0.00940454 0.22036983 0.03055489
v -0.02018248 0.22276349 0.06759747
v -0.03096798 0.22515679 0.10467084
v -0.04179665 0.22755365 0.14177265
v -0.05273976 0.22995077 0.17889741
v -0.01641333 0.21983525 0.02759106
v -0.03422061 0.22169676 0.06169749
v -0.05205693 0.22356011 0.09586118
v -0.06996879 0.22542834 0.13007792
v -0.08805201 0.22730067 0.16434188
v -0.02271077 0.21909505 0.0233276
v -0.04685135 0.22021742 0.05319466
v -0.0710548 0.22134527 0.08314192
v -0.09537348 0.22247968 0.11316438
v -0.11991457 0.22361956 0.14325322
v -0.02805869 0.21823306 0.01793359
v -0.05759143 0.21849446 0.04241862
v -0.08723176 0.21876309 0.06699436
v -0.1170298 0.21903871 0.09165455
v -0.14708751 0.21931812 0.11638882
v -0.03226471 0.21733838 0.01161987
v -0.06605023 0.21670827 0.02978568
v -0.09999219 0.21608318 0.04803377
v -0.13412876 0.21546338 0.06635688
v -0.16854938 0.21484056 0.08474247
v -0.03519169 0.21649758 0.00462538
v -0.07194064 0.21502685 0.01577356
v -0.10888947 0.21355736 0.02697528
v -0.14606721 0.21208451 0.03822343
v -0.18353888 0.21059417 0.04950198
v -0.03674946 0.2157779 -0.00279327
v -0.07507083 0.2135868 0.00090278
v -0.11362639 0.21138908 0.00460809
v -0.1524335 0.2091737 0.00831184
v -0.19154642 0.20691183 0.01199934
v -0.03689159 0.2152237 -0.01036399
v -0.07534367 0.21248178 -0.01427548
v -0.1140469 0.2097177 -0.01823114
v -0.15301793 0.20691253 -0.02223999
v -0.19230051 0.20401737 -0.02632241
v -0.03560639 0.21485826 -0.01780466
v -0.07273589 0.21175408 -0.02918922
v -0.11011849 0.20860697 -0.04066428
v -0.14777122 0.20538774 -0.05224254
v -0.18573577 0.20202559 -0.06394145
v -0.03291813 0.2146815 -0.02482443
v -0.06730468 0.21140369 -0.04325168
v -0.10192763 0.20806065 -0.06179843
v -0.13680665 0.20461052 -0.080476
v -0.1719838 0.20096148 -0.09930315
v -0.0288969 0.2146741 -0.03113665
v -0.05920323 0.21138559 -0.05589182
v -0.0897121 0.20800986 -0.08076509
v -0.12044479 0.20449708 -0.10576691
v -0.15144242 0.20073938 -0.1309167
v -0.02366343 0.21479232 -0.03648356
v -0.04869324 0.21161276 -0.06659322
v -0.07387615 0.20833075 -0.09678714
v -0.09923175 0.204892 -0.12707868
v -0.12478981 0.20117813 -0.15748193
v -0.01740291 0.21497893 -0.04065159
v -0.03615497 0.21196843 -0.07493097
v -0.05500058 0.2088503 -0.10924043
v -0.0739531 0.20556806 -0.14359171
v -0.09302979 0.20199677 -0.17800071
v -0.01036078 0.21516469 -0.04348502
v -0.02208252 0.21231772 -0.08059638
v -0.03383629 0.20936657 -0.11767865
v -0.04562532 0.20625212 -0.15474362
v -0.05744935 0.2028432 -0.19180615
v 0.03194871 -0.06403672 -0.25016206
v -0.01719952 -0.06308328 -0.25065234
v -0.01785626 -0.04222511 -0.2519496
v 0.03122173 -0.04303499 -0.25143167
v 0.07837516 -0.06517645 -0.240572
v 0.07771289 -0.0441574 -0.24175638
v 0.12153609 -0.0665145 -0.22335758
v 0.12084129 -0.04550821 -0.22429263
v 0.1598314 -0.06724281 -0.19827516
v 0.15937857 -0.04636875 -0.19912132
v 0.192299 -0.06656194 -0.16533508
v 0.19200728 -0.04588502 -0.16606757
v 0.21375623 -0.06298344 -0.12301436
v 0.21404317 -0.04278033 -0.12374422
v 0.22118441 -0.05622595 -0.07357515
v 0.2222711 -0.03679659 -0.07431594
v 0.21769133 -0.04694637 -0.02024034
v 0.21951182 -0.0285168 -0.02106801
v 0.2076575 -0.03762861 0.03185369
v 0.21019475 -0.01998353 0.03120446
v 0.19548426 -0.02892322 0.0820858
v 0.19824992 -0.01197501 0.08136881
v 0.18056727 -0.02164235 0.12858299
v 0.18317784 -0.00502188 0.12796862
v 0.16121433 -0.01442111 0.17154586
v 0.16347307 0.00200493 0.17097151
v 0.13728682 -0.00720517 0.2086793
v 0.13887336 0.0091363 0.20813356
v 0.10730771 -0.00030128 0.23788087
v 0.10825139 0.01593322 0.23726038
v 0.06956964 0.00478396 0.25613126
v 0.07031788 0.02093549 0.25562152
v 0.02578851 0.00758958 0.26420518
v 0.02637358 0.02360458 0.26371228
v -0.02228425 0.00785164 0.26348263
v -0.0215817 0.02385013 0.26301959
v -0.06807105 0.0055273 0.25397917
v -0.06744296 0.02164202 0.25359877
v -0.10864005 0.00105686 0.23501417
v -0.10806058 0.01720349 0.2345402
v -0.14070121 -0.00508572 0.2051703
v -0.1407046 0.01108599 0.20480759
v -0.16513834 -0.0111162 0.16747991
v -0.1658803 0.00498805 0.1670918
v -0.18419949 -0.01660766 0.12383601
v -0.18542929 -0.0005267 0.12342602
v -0.19883565 -0.02180139 0.07655632
v -0.20041163 -0.00561463 0.07610717
v -0.21155068 -0.02860228 0.02537407
v -0.21304653 -0.01189623 0.02506913
v -0.22229285 -0.03674923 -0.02756511
v -0.22319683 -0.01934947 -0.02802226
v -0.22574742 -0.04602917 -0.08149551
v -0.22609607 -0.02759388 -0.08183248
v -0.21677002 -0.05371373 -0.13056132
v -0.21660541 -0.03441453 -0.13097079
v -0.19212545 -0.0588217 -0.17177598
v -0.19179292 -0.03893661 -0.17229275
v -0.15545849 -0.06115632 -0.20303878
v -0.15542095 -0.04097116 -0.20380254
v -0.11266657 -0.06205133 -0.22638869
v -0.11284116 -0.04162099 -0.22735351
v -0.06579141 -0.06239639 -0.24218553
v -0.06633014 -0.04176888 -0.24342741
v -0.01858407 -0.02132507 -0.25310969
v 0.0302263 -0.02201753 -0.25256973
v 0.07665005 -0.02310702 -0.24278822
v 0.11957483 -0.02441719 -0.22494353
v 0.1578363 -0.02523968 -0.19923222
v 0.19005799 -0.02478615 -0.16563399
v 0.2125678 -0.0220945 -0.12325875
v 0.2222858 -0.01690861 -0.0740614
v 0.22174176 -0.00972899 -0.02119214
v 0.21426487 -0.00204593 0.03105658
v 0.20321291 0.00541194 0.08132191
v 0.18811185 0.01221347 0.12816673
v 0.16756866 0.01910602 0.17112954
v 0.14179556 0.02607223 0.20821829
v 0.10982181 0.03256715 0.23721721
v 0.0709923 0.03729119 0.25578668
v 0.02668784 0.03976463 0.26414936
v -0.02111327 0.03998681 0.26352053
v -0.06706117 0.03794049 0.25395709
v -0.10820196 0.03372694 0.23470571
v -0.14197646 0.02783732 0.20510551
v -0.1683467 0.02176349 0.16746388
v -0.18891716 0.01617277 0.12386953
v -0.20411367 0.01099409 0.07636419
v -0.21597184 0.00506561 0.02530419
v -0.22437334 -0.00162953 -0.02769167
v -0.22526057 -0.00873153 -0.08108343
v -0.21463637 -0.01463265 -0.13005901
v -0.18985903 -0.01859115 -0.17156326
v -0.1544476 -0.02046124 -0.2037824
v -0.11266741 -0.02102032 -0.22799363
v -0.06676097 -0.0210535 -0.24449496
v -0.0195837 0.01563863 -0.25453549
v 0.02890382 0.015099 -0.25397816
v 0.07528819 0.01401902 -0.24413007
v 0.11808086 0.01263437 -0.22584483
v 0.15606941 0.01159727 -0.19948028
v 0.18787285 0.0117094 -0.16521513
v 0.21102792 0.01380722 -0.12282101
v 0.222981 0.01825388 -0.07400838
v 0.22557814 0.02456513 -0.02179896
v 0.2207756 0.03165272 0.03026941
v 0.21096193 0.03876203 0.08057011
v 0.19574013 0.04553068 0.12762986
v 0.1739477 0.05223566 0.1704061
v 0.14624086 0.05881675 0.20717199
v 0.11217065 0.06474469 0.23585319
v 0.07197762 0.06907895 0.25464749
v 0.02708029 0.07138248 0.26337906
v -0.02058105 0.07158838 0.26284688
v -0.06677753 0.06968598 0.25310877
v -0.10881082 0.06579203 0.23365835
v -0.14438921 0.06037407 0.20438131
v -0.17273014 0.05451601 0.16706994
v -0.19477048 0.04885562 0.12370248
v -0.21033015 0.04338977 0.07604155
v -0.22107315 0.03752816 0.02504732
v -0.22691676 0.03127822 -0.02768104
v -0.22492116 0.02507533 -0.08036055
v -0.21252791 0.02006118 -0.12904077
v -0.18776339 0.01690225 -0.17073459
v -0.15347984 0.01555963 -0.20383407
v -0.1126561 0.01539368 -0.22885678
v -0.06741366 0.01564868 -0.24586311
v -0.02748259 0.15467342 -0.29209843
v 0.0316349 0.15418577 -0.29134815
v 0.08880756 0.15246528 -0.28041356
v 0.14195759 0.14993922 -0.25970363
v 0.1894069 0.14740379 -0.22958606
v 0.22945588 0.14582152 -0.1904616
v 0.26023897 0.14602702 -0.14302587
v 0.27979174 0.14850191 -0.08913447
v 0.28844478 0.15318098 -0.03155225
v 0.28677859 0.1595743 0.02667847
v 0.2757231 0.16709947 0.08316617
v 0.25528103 0.17530439 0.13591247
v 0.22540776 0.18385206 0.18313327
v 0.18709984 0.19222129 0.2230037
v 0.14118941 0.19959828 0.25378161
v 0.0891742 0.20506982 0.2743341
v 0.03286021 0.20808006 0.28430977
v -0.02554677 0.20845142 0.28393462
v -0.0828204 0.20617361 0.27322718
v -0.13628596 0.20142541 0.25206255
v -0.18361957 0.19477741 0.22068174
v -0.2229821 0.18720351 0.18020448
v -0.25377279 0.17958472 0.13232314
v -0.27525076 0.17240864 0.07887895
v -0.28772872 0.1658146 0.02160953
v -0.29088708 0.1599939 -0.03737874
v -0.28334802 0.15530288 -0.09553705
v -0.26401057 0.15221881 -0.14953249
v -0.23236443 0.15095166 -0.19651122
v -0.19055625 0.15127581 -0.23464143
v -0.14092935 0.15256966 -0.26342892
v -0.08581995 0.15397188 -0.28266924
v -0.0271962 0.18625493 -0.27913013
v 0.02895318 0.1859457 -0.278393
v 0.0834686 0.18445266 -0.26787394
v 0.13421182 0.18218691 -0.24774345
v 0.17941342 0.17988312 -0.2184408
v 0.21757008 0.17835383 -0.1807167
v 0.24741508 0.17825791 -0.13568782
v 0.26783391 0.17993925 -0.0850234
v 0.27831372 0.18342423 -0.03092418
v 0.27863773 0.18854247 0.02418497
v 0.26881808 0.19501757 0.07796832
v 0.2488822 0.20244246 0.12823958
v 0.21930164 0.21030612 0.17298744
v 0.18124517 0.21798539 0.21052412
v 0.13615877 0.22467947 0.23953814
v 0.08570177 0.2296171 0.2591553
v 0.03166512 0.23232741 0.2688837
v -0.02387706 0.23266032 0.26858386
v -0.07855368 0.23060731 0.25825843
v -0.13004109 0.22630544 0.23807182
v -0.1762498 0.22021754 0.20849387
v -0.21535848 0.2131388 0.1704081
v -0.24601402 0.2059168 0.12510386
v -0.26719933 0.19917751 0.07424439
v -0.27853119 0.19332255 0.01981123
v -0.27977457 0.18858404 -0.03596138
v -0.27056446 0.18507541 -0.09058456
v -0.25072863 0.18291857 -0.14143033
v -0.22060011 0.1821765 -0.18617342
v -0.18138279 0.18269541 -0.22313019
v -0.13470019 0.18401333 -0.25129529
v -0.08255446 0.1854438 -0.27006548
v -0.0785562 0.197435 -0.25781589
v -0.02647518 0.19826149 -0.26658055
v -0.12762264 0.19601871 -0.23969058
v -0.17157751 0.19462698 -0.21248549
v -0.20859828 0.19386218 -0.17689234
v -0.23727713 0.19417087 -0.13411797
v -0.25665637 0.19579672 -0.08586737
v -0.26614463 0.19881036 -0.03419753
v -0.26545798 0.20315051 0.01862322
v -0.25458973 0.20863659 0.07027521
v -0.2338922 0.21493074 0.1185569
v -0.20411685 0.22154462 0.16152428
v -0.1664046 0.22787652 0.19760651
v -0.12227737 0.23327153 0.22565245
v -0.07351927 0.23713611 0.24487248
v -0.0220324 0.23902945 0.2547428
v 0.03021473 0.23872263 0.25497517
v 0.08127831 0.23623012 0.24558539
v 0.12929353 0.23181121 0.22686585
v 0.17247273 0.22591698 0.19933439
v 0.20910923 0.21913538 0.16377155
v 0.23769772 0.21208749 0.12134054
v 0.25706884 0.20537447 0.07362638
v 0.26647892 0.19951888 0.02255866
v 0.26568362 0.19494876 -0.02971589
v 0.25491711 0.1919565 -0.08097948
v 0.23473244 0.19067649 -0.12909805
v 0.20589107 0.19100904 -0.17211478
v 0.16931878 0.19258029 -0.20835322
v 0.12618888 0.19475726 -0.2365382
v 0.07797017 0.19680006 -0.25585818
v 0.0264156 0.1980756 -0.26591858
v -0.0235704 0.20789577 -0.23631545
v 0.02280092 0.20779697 -0.23570661
v -0.06914749 0.20726685 -0.22835978
v -0.11197886 0.20622773 -0.21198764
v -0.15023838 0.20523896 -0.18759301
v -0.18235443 0.2047488 -0.15593509
v -0.20710519 0.20510092 -0.11818646
v -0.22366784 0.20649845 -0.0759024
v -0.2315872 0.20901176 -0.03088333
v -0.23072241 0.2125853 0.0149872
v -0.22116288 0.21706946 0.05986337
v -0.20321849 0.22219754 0.10200262
v -0.17746985 0.22758761 0.13980059
v -0.14480632 0.2327564 0.17184269
v -0.10644704 0.23718072 0.19695621
v -0.06390489 0.24036823 0.21425887
v -0.01885805 0.24193993 0.22317948
v 0.02692896 0.2416974 0.22343969
v 0.07169024 0.23965404 0.21503391
v 0.11370244 0.23603411 0.19823013
v 0.1513274 0.23122735 0.17358571
v 0.18308423 0.22573368 0.14196993
v 0.20774205 0.22006484 0.10455927
v 0.22439587 0.21468886 0.06279879
v 0.23250293 0.20999598 0.0183226
v 0.23188717 0.20629634 -0.0271371
v 0.22267122 0.20381207 -0.07180395
v 0.20520956 0.20265974 -0.11391855
v 0.1800964 0.20276781 -0.15179927
v 0.14812016 0.20385317 -0.18394678
v 0.11033128 0.20542 -0.20915538
v 0.06803406 0.20689274 -0.22657695
v 0.00490231 0.22346445 -0.04513089
v -0.00288454 0.22346121 -0.04520098
v 0.00141588 0.22610792 -0.00702387
v 0.00826958 0.22076806 -0.08327806
v -0.00708888 0.22076958 -0.08342632
v 0.01169637 0.21800594 -0.12134991
v -0.01127235 0.21801197 -0.1215908
v 0.0152082 0.21509161 -0.15934762
v -0.01542323 0.21510766 -0.15969608
v 0.01884927 0.21185007 -0.19727575
v -0.01952117 0.2118913 -0.19774597
v 0.01251277 0.22334033 -0.04355688
v 0.02329761 0.22052685 -0.08015971
v 0.03416783 0.21763593 -0.11670518
v 0.04515618 0.21457319 -0.15319111
v 0.05632859 0.21115617 -0.18962548
v 0.01961688 0.22312182 -0.04054684
v 0.03737098 0.22010755 -0.07419747
v 0.05522358 0.21699415 -0.10782411
v 0.07321436 0.21368531 -0.14143078
v 0.09141484 0.2099878 -0.17502394
v 0.02593085 0.2228768 -0.03623203
v 0.0499404 0.2196358 -0.06562928
v 0.07405612 0.21627552 -0.09504246
v 0.09831676 0.21269653 -0.12447588
v 0.12279339 0.20871155 -0.15393799
v 0.03123376 0.22268655 -0.03080572
v 0.06055282 0.21926975 -0.05481496
v 0.08998851 0.21572446 -0.07886704
v 0.11957162 0.21195368 -0.10296789
v 0.14936232 0.20778194 -0.12712682
v 0.03536174 0.22262474 -0.02450129
v 0.06885772 0.21915499 -0.04219787
v 0.10248449 0.21556212 -0.05994591
v 0.13626176 0.21176078 -0.07775104
v 0.17023347 0.20759378 -0.09562218
v 0.03820524 0.22274224 -0.01757323
v 0.07460657 0.21939237 -0.02828132
v 0.11115172 0.21594366 -0.03903063
v 0.14785374 0.21232131 -0.04982389
v 0.1847406 0.20839467 -0.06066957
v 0.03969556 0.22306178 -0.01028246
v 0.07762853 0.22003588 -0.01359954
v 0.1157156 0.21693904 -0.01692931
v 0.15396346 0.21371781 -0.02027844
v 0.19239477 0.21026724 -0.02365062
v 0.03979279 0.2235828 -0.00288545
v 0.07782758 0.2210839 0.0013165
v 0.11601845 0.21854376 0.00553411
v 0.15436986 0.21592362 0.00976623
v 0.19290384 0.21314743 0.01400807
v 0.03848609 0.2242835 0.00436884
v 0.07518285 0.22249358 0.01592905
v 0.11202166 0.22068367 0.02753335
v 0.14901122 0.21883018 0.03918011
v 0.18618319 0.21688151 0.05086394
v 0.03579401 0.22512215 0.0112238
v 0.06974821 0.22417734 0.02970576
v 0.10381625 0.22322528 0.04824809
v 0.13801541 0.22225271 0.06684855
v 0.17238895 0.22122891 0.08550455
v 0.03177976 0.22603468 0.01743062
v 0.06167987 0.22600433 0.04212954
v 0.09165899 0.22597259 0.06688911
v 0.12174034 0.22593185 0.09170967
v 0.1519768 0.22586616 0.11658916
v 0.02656135 0.22693949 0.02274241
v 0.05124365 0.22780755 0.05271107
v 0.07596992 0.22867584 0.08272983
v 0.10076674 0.22954207 0.11279566
v 0.12568847 0.23039415 0.14291
v 0.02031806 0.22774253 0.02693429
v 0.03881556 0.22940322 0.06102497
v 0.05733149 0.23106394 0.09514403
v 0.07589088 0.23272194 0.12929181
v 0.09453562 0.23437327 0.16346751
v 0.01328454 0.22835364 0.02982156
v 0.02487285 0.23061126 0.06672707
v 0.03646699 0.23286949 0.10364373
v 0.04808166 0.23512607 0.14057047
v 0.05973905 0.23737737 0.17750732
v 0.00574883 0.22869898 0.0312714
v 0.00997662 0.2312939 0.06958383
v 0.014206 0.23388922 0.1078983
v 0.01843654 0.23648247 0.14621605
v 0.02266289 0.23907326 0.18453481
v -0.0019683 0.22873823 0.03121362
v -0.00526444 0.23137037 0.06947347
v -0.00856397 0.23400507 0.10774257
v -0.01187958 0.23663874 0.14602145
v -0.01525276 0.23927158 0.18430705
v -0.0095347 0.22846739 0.02965353
v -0.02022678 0.23083664 0.06640353
v -0.03092729 0.23320825 0.10318478
v -0.04167207 0.23558358 0.13999562
v -0.05253282 0.23795911 0.17683117
v -0.0166291 0.227923 0.02666227
v -0.03429647 0.22976101 0.06050224
v -0.05199462 0.2316046 0.09440109
v -0.06977091 0.23345245 0.12835554
v -0.08772205 0.23530493 0.16236013
v -0.02296648 0.22717367 0.02238078
v -0.04692004 0.22827523 0.05201756
v -0.07093974 0.22938419 0.0817375
v -0.09507876 0.23050017 0.11153616
v -0.11944615 0.23162218 0.14140528
v -0.02831081 0.22630906 0.01699855
v -0.05761752 0.22655184 0.04129776
v -0.08703737 0.22680445 0.06569125
v -0.11662048 0.2270648 0.09017331
v -0.14647053 0.22732912 0.11473395
v -0.0324842 0.22541843 0.01074025
v -0.06601221 0.2247731 0.02877105
v -0.09970445 0.22413599 0.04688877
v -0.13359957 0.22350432 0.06508359
v -0.16778752 0.22287073 0.0833458
v -0.03536832 0.22458818 0.00384834
v -0.07183826 0.22310712 0.01491726
v -0.10851582 0.2216306 0.02604296
v -0.14543066 0.22015148 0.03721825
v -0.18264997 0.21865584 0.04842621
v -0.0368927 0.22388376 -0.00343211
v -0.07492032 0.22168846 0.00024382
v -0.11318892 0.21949113 0.00393168
v -0.15171828 0.2172777 0.00761958
v -0.19056457 0.21501773 0.01129095
v -0.03702328 0.2233465 -0.01084935
v -0.07517499 0.22060838 -0.01472053
v -0.1135821 0.21785461 -0.01863393
v -0.15226464 0.21506241 -0.02260069
v -0.19127188 0.21217894 -0.02664455
v -0.03574911 0.2229975 -0.01814889
v -0.07258067 0.21990682 -0.02943421
v -0.10966482 0.21678292 -0.04080889
v -0.14702424 0.21359108 -0.05228863
v -0.18471196 0.21025267 -0.06389557
v -0.03308788 0.22283585 -0.02506321
v -0.06718826 0.21958199 -0.04333719
v -0.10151944 0.21627703 -0.06173074
v -0.13611127 0.21287046 -0.08025825
v -0.17101839 0.20925909 -0.09894343
v -0.02909409 0.22284023 -0.03132351
v -0.05913905 0.21958579 -0.0558793
v -0.08937853 0.21626347 -0.0805549
v -0.1198432 0.21281103 -0.10536287
v -0.15058794 0.20910477 -0.13032601
v -0.02387147 0.2229665 -0.03667169
v -0.04867975 0.21982942 -0.06654596
v -0.07363186 0.21661466 -0.09650845
v -0.09875664 0.21325157 -0.12657213
v -0.12409787 0.20960296 -0.1567512
v -0.01759255 0.2231577 -0.04087819
v -0.0361781 0.22019682 -0.07489672
v -0.05485026 0.2171552 -0.10895176
v -0.07362876 0.21396122 -0.14305135
v -0.09254018 0.21046789 -0.1772073
v -0.01049624 0.22334468 -0.04376197
v -0.02211966 0.22055131 -0.08059719
v -0.03377294 0.21768486 -0.11741217
v -0.04546069 0.21466904 -0.15421165
v -0.05718525 0.21134908 -0.1910021
v 0.03263088 -0.06428462 -0.2551237
v -0.01776356 -0.06333801 -0.25562048
v -0.01809291 -0.04556454 -0.25666847
v 0.03255014 -0.04645995 -0.25615605
v 0.08011244 -0.06543974 -0.24528461
v 0.08032298 -0.04761184 -0.24629128
v 0.12408657 -0.06679646 -0.22771589
v 0.12436154 -0.04889805 -0.22855337
v 0.16308111 -0.06754445 -0.2021638
v 0.16355492 -0.04959539 -0.20298539
v 0.19633017 -0.06688396 -0.16845925
v 0.19680652 -0.04886576 -0.16921643
v 0.21851563 -0.06335314 -0.12487046
v 0.21935735 -0.04547873 -0.12564705
v 0.22622621 -0.05668285 -0.07405405
v 0.22767293 -0.03920763 -0.07484163
v 0.22268684 -0.04752813 -0.01970947
v 0.22475785 -0.03065259 -0.02057215
v 0.21252991 -0.03834737 0.03296769
v 0.21532109 -0.02185958 0.03229818
v 0.20024892 -0.02972524 0.08359818
v 0.20336736 -0.01357791 0.08287318
v 0.18517515 -0.02243212 0.13055367
v 0.18828 -0.006323 0.1299411
v 0.16556973 -0.01510706 0.17405763
v 0.1684443 0.00101935 0.17349751
v 0.14119632 -0.0076878 0.2118757
v 0.14342995 0.00849666 0.21135912
v 0.11032793 -0.00053228 0.2419511
v 0.11181717 0.01563999 0.24137723
v 0.07129231 0.00475299 0.26086482
v 0.07232517 0.02090104 0.26041159
v 0.02628384 0.00765623 0.26918435
v 0.02674993 0.02369827 0.26874616
v -0.0228869 0.00792248 0.268449
v -0.02279848 0.02395268 0.2680228
v -0.06985449 0.00551296 0.25868287
v -0.07032851 0.02164564 0.2583104
v -0.11167752 0.0008604 0.23907829
v -0.11257247 0.01699998 0.23857925
v -0.14462177 -0.00552688 0.20837207
v -0.14626951 0.01060854 0.20795124
v -0.1694884 -0.01175828 0.17001693
v -0.17182393 0.0042706 0.16953697
v -0.18878054 -0.01735189 0.12586812
v -0.19139169 -0.00141538 0.12532588
v -0.2035568 -0.02255423 0.07817352
v -0.20625507 -0.00664556 0.07753908
v -0.21638284 -0.02926914 0.02661365
v -0.21880114 -0.01307207 0.02606127
v -0.2272661 -0.03727792 -0.02692369
v -0.22900362 -0.02072714 -0.02768328
v -0.23078957 -0.04644062 -0.0818969
v -0.23196861 -0.02927743 -0.08255811
v -0.22154133 -0.05405431 -0.13237351
v -0.22221723 -0.03647516 -0.13307352
v -0.1961629 -0.05913698 -0.17487824
v -0.19662086 -0.04138712 -0.175591
v -0.15869636 -0.06146921 -0.20691727
v -0.15929251 -0.04375939 -0.20773987
v -0.11517418 -0.06235444 -0.23074741
v -0.1157167 -0.04466063 -0.23162725
v -0.067445 -0.06267729 -0.24690835
v -0.06801385 -0.04498551 -0.24795317
g Group52479
f 297 296 295 294
f 83 4 297 294
f 4 83 84 80
f 296 299 298 295
f 80 84 81 3
f 295 298 301 300
f 84 82 2 81
f 294 295 300 302
f 1 83 294 302
f 83 1 82 84
f 299 304 303 298
f 3 81 88 85
f 304 306 305 303
f 85 88 86 6
f 303 305 308 307
f 88 87 5 86
f 298 303 307 301
f 81 2 87 88
f 306 310 309 305
f 6 86 92 89
f 310 312 311 309
f 89 92 90 8
f 309 311 314 313
f 92 91 7 90
f 305 309 313 308
f 86 5 91 92
f 312 316 315 311
f 8 90 96 93
f 316 318 317 315
f 93 96 94 69
f 315 317 320 319
f 96 95 70 94
f 311 315 319 314
f 90 7 95 96
f 324 323 322 321
f 13 100 101 97
f 323 326 325 322
f 97 101 98 12
f 322 325 328 327
f 101 99 10 98
f 321 322 327 329
f 100 11 99 101
f 326 323 331 330
f 12 104 105 97
f 323 324 332 331
f 97 105 102 13
f 331 332 334 333
f 105 103 15 102
f 330 331 333 335
f 104 14 103 105
f 339 338 337 336
f 9 108 109 106
f 338 328 325 337
f 106 109 98 10
f 337 325 326 340
f 109 107 12 98
f 336 337 340 341
f 108 16 107 109
f 345 344 343 342
f 18 112 113 110
f 344 339 336 343
f 110 113 108 9
f 343 336 341 346
f 113 111 16 108
f 342 343 346 347
f 112 17 111 113
f 351 350 349 348
f 21 117 118 114
f 350 353 352 349
f 114 118 115 20
f 349 352 355 354
f 118 116 71 115
f 348 349 354 356
f 117 72 116 118
f 360 359 358 357
f 22 121 122 119
f 359 362 361 358
f 119 122 120 19
f 358 361 345 342
f 122 112 18 120
f 357 358 342 347
f 121 17 112 122
f 314 319 364 363
f 7 124 125 95
f 319 320 365 364
f 95 125 123 70
f 364 365 355 352
f 125 115 71 123
f 363 364 352 353
f 124 20 115 125
f 341 367 366 346
f 16 111 129 126
f 367 369 368 366
f 126 129 127 24
f 366 368 371 370
f 129 128 23 127
f 346 366 370 347
f 111 17 128 129
f 335 373 372 330
f 14 104 131 130
f 373 369 367 372
f 130 131 126 24
f 372 367 341 340
f 131 107 16 126
f 330 372 340 326
f 104 12 107 131
f 335 333 374 373
f 14 130 134 103
f 333 334 375 374
f 103 134 132 15
f 374 375 377 376
f 134 133 25 132
f 373 374 376 369
f 130 24 133 134
f 377 379 378 376
f 25 133 137 135
f 379 381 380 378
f 135 137 136 26
f 378 380 371 368
f 137 127 23 136
f 376 378 368 369
f 133 24 127 137
f 385 384 383 382
f 28 140 141 138
f 384 371 380 383
f 138 141 136 23
f 383 380 381 386
f 141 139 26 136
f 382 383 386 387
f 140 27 139 141
f 387 386 389 388
f 27 144 145 139
f 386 381 390 389
f 139 145 142 26
f 389 390 392 391
f 145 143 30 142
f 388 389 391 393
f 144 29 143 145
f 377 395 394 379
f 25 135 148 146
f 395 397 396 394
f 146 148 147 31
f 394 396 392 390
f 148 142 30 147
f 379 394 390 381
f 135 26 142 148
f 334 399 398 375
f 15 132 151 149
f 399 401 400 398
f 149 151 150 32
f 398 400 397 395
f 151 146 31 150
f 375 398 395 377
f 132 25 146 151
f 324 403 402 332
f 13 102 154 152
f 403 405 404 402
f 152 154 153 33
f 402 404 401 399
f 154 149 32 153
f 332 402 399 334
f 102 15 149 154
f 409 408 407 406
f 34 156 157 155
f 408 405 403 407
f 155 157 152 33
f 407 403 324 321
f 157 100 13 152
f 406 407 321 329
f 156 11 100 157
f 409 406 411 410
f 34 160 161 156
f 406 329 412 411
f 156 161 158 11
f 411 412 414 413
f 161 159 73 158
f 410 411 413 415
f 160 74 159 161
f 419 418 417 416
f 36 164 165 162
f 418 414 420 417
f 162 165 163 73
f 417 420 318 316
f 165 93 69 163
f 416 417 316 312
f 164 8 93 165
f 306 304 421 310
f 6 89 167 85
f 304 299 422 421
f 85 167 166 3
f 421 422 419 416
f 167 164 36 166
f 310 421 416 312
f 89 8 164 167
f 299 296 423 422
f 3 166 170 80
f 296 297 424 423
f 4 168 424 297
f 80 170 168 4
f 423 424 426 425
f 168 35 426 424
f 170 169 35 168
f 422 423 425 419
f 166 36 169 170
f 301 307 428 427
f 2 173 174 87
f 307 308 429 428
f 87 174 171 5
f 428 429 431 430
f 174 172 38 171
f 427 428 430 432
f 173 37 172 174
f 301 427 433 300
f 2 82 177 173
f 427 432 434 433
f 173 177 175 37
f 433 434 436 435
f 39 176 435 436
f 177 176 39 175
f 300 433 435 302
f 176 1 302 435
f 82 1 176 177
f 436 434 438 437
f 180 39 436 437
f 39 180 181 175
f 434 432 439 438
f 175 181 178 37
f 438 439 441 440
f 181 179 41 178
f 437 438 440 442
f 40 180 437 442
f 180 40 179 181
f 446 445 444 443
f 45 182 445 446
f 45 185 186 182
f 445 448 447 444
f 182 44 448 445
f 182 186 183 44
f 444 447 450 449
f 186 184 43 183
f 443 444 449 451
f 185 42 184 186
f 442 440 453 452
f 188 40 442 452
f 40 188 189 179
f 440 441 454 453
f 179 189 187 41
f 453 454 450 447
f 189 183 43 187
f 452 453 447 448
f 44 188 452 448
f 188 44 183 189
f 458 457 456 455
f 46 191 192 190
f 457 441 439 456
f 190 192 178 41
f 456 439 432 430
f 192 172 37 178
f 455 456 430 431
f 191 38 172 192
f 462 461 460 459
f 48 196 197 193
f 461 458 463 460
f 193 197 194 46
f 460 463 351 464
f 197 195 21 194
f 459 460 464 465
f 196 47 195 197
f 458 461 466 457
f 46 190 199 193
f 461 462 467 466
f 193 199 198 48
f 466 467 450 454
f 199 187 43 198
f 457 466 454 441
f 190 41 187 199
f 465 469 468 459
f 47 196 201 200
f 469 451 449 468
f 200 201 184 42
f 468 449 450 467
f 201 198 43 184
f 459 468 467 462
f 196 48 198 201
f 473 472 471 470
f 50 205 206 202
f 472 475 474 471
f 202 206 203 49
f 471 474 477 476
f 206 204 75 203
f 470 471 476 478
f 205 76 204 206
f 465 464 480 479
f 47 208 209 195
f 464 351 348 480
f 195 209 117 21
f 480 348 356 481
f 209 207 72 117
f 479 480 481 478
f 208 76 207 209
f 431 483 482 455
f 38 191 211 210
f 483 353 350 482
f 210 211 114 20
f 482 350 351 463
f 211 194 21 114
f 455 482 463 458
f 191 46 194 211
f 314 363 484 313
f 7 91 212 124
f 363 353 483 484
f 124 212 210 20
f 484 483 431 429
f 212 171 38 210
f 313 484 429 308
f 91 5 171 212
f 488 487 486 485
f 53 216 217 213
f 487 475 489 486
f 213 217 214 49
f 486 489 491 490
f 217 215 52 214
f 485 486 490 492
f 216 51 215 217
f 488 494 493 487
f 53 213 220 218
f 494 496 495 493
f 218 220 219 77
f 493 495 477 474
f 220 203 75 219
f 487 493 474 475
f 213 49 203 220
f 473 498 497 472
f 50 202 223 221
f 498 500 499 497
f 221 223 222 54
f 497 499 491 489
f 223 214 52 222
f 472 497 489 475
f 202 49 214 223
f 491 499 502 501
f 52 226 227 222
f 499 500 503 502
f 222 227 224 54
f 502 503 505 504
f 227 225 56 224
f 501 502 504 506
f 226 55 225 227
f 385 509 508 507
f 28 230 231 228
f 509 505 503 508
f 228 231 224 56
f 508 503 500 510
f 231 229 54 224
f 507 508 510 360
f 230 22 229 231
f 362 359 512 511
f 19 232 233 119
f 359 360 510 512
f 119 233 229 22
f 512 510 500 498
f 233 221 54 229
f 511 512 498 473
f 232 50 221 233
f 516 515 514 513
f 57 235 236 234
f 515 492 490 514
f 234 236 215 51
f 514 490 491 501
f 236 226 52 215
f 513 514 501 506
f 235 55 226 236
f 505 509 517 504
f 56 225 238 228
f 509 385 382 517
f 228 238 140 28
f 517 382 387 518
f 238 237 27 140
f 504 517 518 506
f 225 55 237 238
f 360 357 519 507
f 22 230 239 121
f 357 347 370 519
f 121 239 128 17
f 519 370 371 384
f 239 138 23 128
f 507 519 384 385
f 230 28 138 239
f 387 388 520 518
f 27 237 241 144
f 388 393 521 520
f 144 241 240 29
f 520 521 516 513
f 241 235 57 240
f 518 520 513 506
f 237 55 235 241
f 393 391 523 522
f 29 244 245 143
f 391 392 524 523
f 143 245 242 30
f 523 524 526 525
f 58 243 525 526
f 245 243 58 242
f 522 523 525 527
f 243 59 527 525
f 244 59 243 245
f 392 396 528 524
f 30 242 248 147
f 396 397 529 528
f 147 248 246 31
f 528 529 531 530
f 60 247 530 531
f 248 247 60 246
f 524 528 530 526
f 247 58 526 530
f 242 58 247 248
f 397 400 532 529
f 31 246 251 150
f 400 401 533 532
f 150 251 249 32
f 532 533 535 534
f 61 250 534 535
f 251 250 61 249
f 529 532 534 531
f 250 60 531 534
f 246 60 250 251
f 401 404 536 533
f 32 249 254 153
f 404 405 537 536
f 153 254 252 33
f 536 537 539 538
f 62 253 538 539
f 254 253 62 252
f 533 536 538 535
f 253 61 535 538
f 249 61 253 254
f 405 408 540 537
f 33 252 257 155
f 408 409 541 540
f 155 257 255 34
f 540 541 543 542
f 63 256 542 543
f 257 256 63 255
f 537 540 542 539
f 256 62 539 542
f 252 62 256 257
f 409 410 544 541
f 34 255 260 160
f 410 415 545 544
f 160 260 258 74
f 544 545 547 546
f 78 259 546 547
f 260 259 78 258
f 541 544 546 543
f 259 63 543 546
f 255 63 259 260
f 488 485 549 548
f 53 263 264 216
f 485 492 550 549
f 216 264 261 51
f 549 550 552 551
f 65 262 551 552
f 264 262 65 261
f 548 549 551 553
f 262 66 553 551
f 263 66 262 264
f 446 556 555 554
f 268 45 446 554
f 45 268 269 265
f 556 496 557 555
f 265 269 266 77
f 555 557 559 558
f 79 267 558 559
f 269 267 79 266
f 554 555 558 560
f 67 268 554 560
f 267 67 560 558
f 268 67 267 269
f 492 515 561 550
f 51 261 272 234
f 515 516 562 561
f 234 272 270 57
f 561 562 564 563
f 68 271 563 564
f 272 271 68 270
f 550 561 563 552
f 271 65 552 563
f 261 65 271 272
f 516 521 565 562
f 57 270 274 240
f 521 393 522 565
f 240 274 244 29
f 565 522 527 566
f 59 273 566 527
f 274 273 59 244
f 562 565 566 564
f 273 68 564 566
f 270 68 273 274
f 318 568 567 317
f 69 94 277 275
f 568 328 338 567
f 275 277 106 10
f 567 338 339 569
f 277 276 9 106
f 317 567 569 320
f 94 70 276 277
f 356 354 571 570
f 72 279 280 116
f 354 355 572 571
f 116 280 278 71
f 571 572 345 361
f 280 120 18 278
f 570 571 361 362
f 279 19 120 280
f 320 569 573 365
f 70 123 281 276
f 569 339 344 573
f 276 281 110 9
f 573 344 345 572
f 281 278 18 110
f 365 573 572 355
f 123 71 278 281
f 415 413 575 574
f 74 282 283 159
f 413 414 418 575
f 159 283 162 73
f 575 418 419 425
f 283 169 36 162
f 574 575 425 426
f 282 35 169 283
f 414 412 576 420
f 73 163 284 158
f 412 329 327 576
f 158 284 99 11
f 576 327 328 568
f 284 275 10 99
f 420 576 568 318
f 163 69 275 284
f 478 476 577 479
f 76 208 286 204
f 476 477 578 577
f 204 286 285 75
f 577 578 451 469
f 286 200 42 285
f 479 577 469 465
f 208 47 200 286
f 478 481 579 470
f 76 205 287 207
f 481 356 570 579
f 207 287 279 72
f 579 570 362 511
f 287 232 19 279
f 470 579 511 473
f 205 50 232 287
f 496 556 580 495
f 77 219 288 265
f 556 446 443 580
f 265 288 185 45
f 580 443 451 578
f 288 285 42 185
f 495 580 578 477
f 219 75 285 288
f 415 574 581 545
f 74 258 291 282
f 574 426 582 581
f 35 289 582 426
f 282 291 289 35
f 581 582 584 583
f 64 290 583 584
f 289 64 584 582
f 291 290 64 289
f 545 581 583 547
f 290 78 547 583
f 258 78 290 291
f 496 494 585 557
f 77 266 293 218
f 494 488 548 585
f 218 293 263 53
f 585 548 553 586
f 66 292 586 553
f 293 292 66 263
f 557 585 586 559
f 292 79 559 586
f 266 79 292 293
g Group56859
f 684 715 1004 1005
g Group3576
f 683 715 684 652
g Group56859
f 715 714 1008 1004
g Group3576
f 682 714 715 683
g Group56859
f 714 713 1010 1008
g Group3576
f 681 713 714 682
g Group56859
f 713 712 1012 1010
g Group3576
f 680 712 713 681
g Group56859
f 712 711 1014 1012
g Group3576
f 679 711 712 680
g Group56859
f 711 710 1016 1014
g Group3576
f 678 710 711 679
g Group56859
f 710 709 1018 1016
g Group3576
f 677 709 710 678
g Group56859
f 709 708 1020 1018
g Group3576
f 676 708 709 677
g Group56859
f 708 707 1022 1020
g Group3576
f 675 707 708 676
g Group56859
f 707 706 1024 1022
g Group3576
f 674 706 707 675
g Group56859
f 706 705 1026 1024
g Group3576
f 673 705 706 674
g Group56859
f 705 704 1028 1026
g Group3576
f 672 704 705 673
g Group56859
f 704 703 1030 1028
g Group3576
f 671 703 704 672
g Group56859
f 703 702 1032 1030
g Group3576
f 670 702 703 671
g Group56859
f 702 701 1034 1032
g Group3576
f 669 701 702 670
g Group56859
f 701 700 1036 1034
g Group3576
f 668 700 701 669
g Group56859
f 700 699 1038 1036
g Group3576
f 667 699 700 668
g Group56859
f 699 698 1040 1038
g Group3576
f 666 698 699 667
g Group56859
f 698 697 1042 1040
g Group3576
f 665 697 698 666
g Group56859
f 697 696 1044 1042
g Group3576
f 664 696 697 665
g Group56859
f 696 695 1046 1044
g Group3576
f 663 695 696 664
g Group56859
f 695 694 1048 1046
g Group3576
f 662 694 695 663
g Group56859
f 694 693 1050 1048
g Group3576
f 661 693 694 662
g Group56859
f 693 692 1052 1050
g Group3576
f 660 692 693 661
g Group56859
f 692 691 1054 1052
g Group3576
f 659 691 692 660
g Group56859
f 691 690 1056 1054
g Group3576
f 658 690 691 659
g Group56859
f 690 689 1058 1056
g Group3576
f 657 689 690 658
g Group56859
f 689 688 1060 1058
g Group3576
f 656 688 689 657
g Group56859
f 688 687 1062 1060
g Group3576
f 655 687 688 656
g Group56859
f 687 686 1064 1062
g Group3576
f 654 686 687 655
g Group56859
f 686 685 1066 1064
g Group3576
f 653 685 686 654
g Group56859
f 685 684 1005 1066
g Group3576
f 652 684 685 653
g Group56856
f 1069 1068 1006 1007
g Group3576
f 651 683 652 620
g Group56856
f 1070 1069 1007 1009
g Group3576
f 650 682 683 651
g Group56856
f 1071 1070 1009 1011
g Group3576
f 649 681 682 650
g Group56856
f 1072 1071 1011 1013
g Group3576
f 648 680 681 649
g Group56856
f 1073 1072 1013 1015
g Group3576
f 647 679 680 648
g Group56856
f 1074 1073 1015 1017
g Group3576
f 646 678 679 647
g Group56856
f 1075 1074 1017 1019
g Group3576
f 645 677 678 646
g Group56856
f 1076 1075 1019 1021
g Group3576
f 644 676 677 645
g Group56856
f 1077 1076 1021 1023
g Group3576
f 643 675 676 644
g Group56856
f 1078 1077 1023 1025
g Group3576
f 642 674 675 643
g Group56856
f 1079 1078 1025 1027
g Group3576
f 641 673 674 642
g Group56856
f 1080 1079 1027 1029
g Group3576
f 640 672 673 641
g Group56856
f 1081 1080 1029 1031
g Group3576
f 639 671 672 640
g Group56856
f 1082 1081 1031 1033
g Group3576
f 638 670 671 639
g Group56856
f 1083 1082 1033 1035
g Group3576
f 637 669 670 638
g Group56856
f 1084 1083 1035 1037
g Group3576
f 636 668 669 637
g Group56856
f 1085 1084 1037 1039
g Group3576
f 635 667 668 636
g Group56856
f 1086 1085 1039 1041
g Group3576
f 634 666 667 635
g Group56856
f 1087 1086 1041 1043
g Group3576
f 633 665 666 634
g Group56856
f 1088 1087 1043 1045
g Group3576
f 632 664 665 633
g Group56856
f 1089 1088 1045 1047
g Group3576
f 631 663 664 632
g Group56856
f 1090 1089 1047 1049
g Group3576
f 630 662 663 631
g Group56856
f 1091 1090 1049 1051
g Group3576
f 629 661 662 630
g Group56856
f 1092 1091 1051 1053
g Group3576
f 628 660 661 629
g Group56856
f 1093 1092 1053 1055
g Group3576
f 627 659 660 628
g Group56856
f 1094 1093 1055 1057
g Group3576
f 626 658 659 627
g Group56856
f 1095 1094 1057 1059
g Group3576
f 625 657 658 626
g Group56856
f 1096 1095 1059 1061
g Group3576
f 624 656 657 625
g Group56856
f 1097 1096 1061 1063
g Group3576
f 623 655 656 624
g Group56856
f 1098 1097 1063 1065
g Group3576
f 622 654 655 623
g Group56856
f 1099 1098 1065 1067
g Group3576
f 621 653 654 622
g Group56856
f 1068 1099 1067 1006
g Group3576
f 620 652 653 621
g Group56856
f 1101 1100 1068 1069
g Group3576
f 619 651 620 588
g Group56856
f 1102 1101 1069 1070
g Group3576
f 618 650 651 619
g Group56856
f 1103 1102 1070 1071
g Group3576
f 617 649 650 618
g Group56856
f 1104 1103 1071 1072
g Group3576
f 616 648 649 617
g Group56856
f 1105 1104 1072 1073
g Group3576
f 615 647 648 616
g Group56856
f 1106 1105 1073 1074
g Group3576
f 614 646 647 615
g Group56856
f 1107 1106 1074 1075
g Group3576
f 613 645 646 614
g Group56856
f 1108 1107 1075 1076
g Group3576
f 612 644 645 613
g Group56856
f 1109 1108 1076 1077
g Group3576
f 611 643 644 612
g Group56856
f 1110 1109 1077 1078
g Group3576
f 610 642 643 611
g Group56856
f 1111 1110 1078 1079
g Group3576
f 609 641 642 610
g Group56856
f 1112 1111 1079 1080
g Group3576
f 608 640 641 609
g Group56856
f 1113 1112 1080 1081
g Group3576
f 607 639 640 608
g Group56856
f 1114 1113 1081 1082
g Group3576
f 606 638 639 607
g Group56856
f 1115 1114 1082 1083
g Group3576
f 605 637 638 606
g Group56856
f 1116 1115 1083 1084
g Group3576
f 604 636 637 605
g Group56856
f 1117 1116 1084 1085
g Group3576
f 603 635 636 604
g Group56856
f 1118 1117 1085 1086
g Group3576
f 602 634 635 603
g Group56856
f 1119 1118 1086 1087
g Group3576
f 601 633 634 602
g Group56856
f 1120 1119 1087 1088
g Group3576
f 600 632 633 601
g Group56856
f 1121 1120 1088 1089
g Group3576
f 599 631 632 600
g Group56856
f 1122 1121 1089 1090
g Group3576
f 598 630 631 599
g Group56856
f 1123 1122 1090 1091
g Group3576
f 597 629 630 598
g Group56856
f 1124 1123 1091 1092
g Group3576
f 596 628 629 597
g Group56856
f 1125 1124 1092 1093
g Group3576
f 595 627 628 596
g Group56856
f 1126 1125 1093 1094
g Group3576
f 594 626 627 595
g Group56856
f 1127 1126 1094 1095
g Group3576
f 593 625 626 594
g Group56856
f 1128 1127 1095 1096
g Group3576
f 592 624 625 593
g Group56856
f 1129 1128 1096 1097
g Group3576
f 591 623 624 592
g Group56856
f 1130 1129 1097 1098
g Group3576
f 590 622 623 591
g Group56856
f 1131 1130 1098 1099
g Group3576
f 589 621 622 590
g Group56856
f 1100 1131 1099 1068
g Group3576
f 588 620 621 589
g Group56856
f 1133 1132 1100 1101
g Group3576
f 748 619 588 749
g Group56856
f 1134 1133 1101 1102
g Group3576
f 750 618 619 748
g Group56856
f 1135 1134 1102 1103
g Group3576
f 751 617 618 750
g Group56856
f 1136 1135 1103 1104
g Group3576
f 752 616 617 751
g Group56856
f 1137 1136 1104 1105
g Group3576
f 753 615 616 752
g Group56856
f 1138 1137 1105 1106
g Group3576
f 754 614 615 753
g Group56856
f 1139 1138 1106 1107
g Group3576
f 755 613 614 754
g Group56856
f 1140 1139 1107 1108
g Group3576
f 756 612 613 755
g Group56856
f 1141 1140 1108 1109
g Group3576
f 757 611 612 756
g Group56856
f 1142 1141 1109 1110
g Group3576
f 758 610 611 757
g Group56856
f 1143 1142 1110 1111
g Group3576
f 759 609 610 758
g Group56856
f 1144 1143 1111 1112
g Group3576
f 760 608 609 759
g Group56856
f 1145 1144 1112 1113
g Group3576
f 761 607 608 760
g Group56856
f 1146 1145 1113 1114
g Group3576
f 762 606 607 761
g Group56856
f 1147 1146 1114 1115
g Group3576
f 763 605 606 762
g Group56856
f 1148 1147 1115 1116
g Group3576
f 764 604 605 763
g Group56856
f 1149 1148 1116 1117
g Group3576
f 765 603 604 764
g Group56856
f 1150 1149 1117 1118
g Group3576
f 766 602 603 765
g Group56856
f 1151 1150 1118 1119
g Group3576
f 767 601 602 766
g Group56856
f 1152 1151 1119 1120
g Group3576
f 768 600 601 767
g Group56856
f 1153 1152 1120 1121
g Group3576
f 769 599 600 768
g Group56856
f 1154 1153 1121 1122
g Group3576
f 770 598 599 769
g Group56856
f 1155 1154 1122 1123
g Group3576
f 771 597 598 770
g Group56856
f 1156 1155 1123 1124
g Group3576
f 772 596 597 771
g Group56856
f 1157 1156 1124 1125
g Group3576
f 773 595 596 772
g Group56856
f 1158 1157 1125 1126
g Group3576
f 774 594 595 773
g Group56856
f 1159 1158 1126 1127
g Group3576
f 775 593 594 774
g Group56856
f 1160 1159 1127 1128
g Group3576
f 776 592 593 775
g Group56856
f 1161 1160 1128 1129
g Group3576
f 777 591 592 776
g Group56856
f 1162 1161 1129 1130
g Group3576
f 778 590 591 777
g Group56856
f 1163 1162 1130 1131
g Group3576
f 779 589 590 778
g Group56856
f 1132 1163 1131 1100
g Group3576
f 749 588 589 779
g Group56856
f 1132 1133 1165 1164
g Group3576
f 749 717 747 748
g Group56856
f 1166 1165 1133 1134
g Group3576
f 746 750 748 747
g Group56856
f 1167 1166 1134 1135
g Group3576
f 745 751 750 746
g Group56856
f 1168 1167 1135 1136
g Group3576
f 744 752 751 745
g Group56856
f 1169 1168 1136 1137
g Group3576
f 743 753 752 744
g Group56856
f 1170 1169 1137 1138
g Group3576
f 742 754 753 743
g Group56856
f 1171 1170 1138 1139
g Group3576
f 741 755 754 742
g Group56856
f 1172 1171 1139 1140
g Group3576
f 740 756 755 741
g Group56856
f 1173 1172 1140 1141
g Group3576
f 739 757 756 740
g Group56856
f 1174 1173 1141 1142
g Group3576
f 738 758 757 739
g Group56856
f 1175 1174 1142 1143
g Group3576
f 737 759 758 738
g Group56856
f 1176 1175 1143 1144
g Group3576
f 736 760 759 737
g Group56856
f 1177 1176 1144 1145
g Group3576
f 735 761 760 736
g Group56856
f 1178 1177 1145 1146
g Group3576
f 734 762 761 735
g Group56856
f 1179 1178 1146 1147
g Group3576
f 733 763 762 734
g Group56856
f 1180 1179 1147 1148
g Group3576
f 732 764 763 733
g Group56856
f 1181 1180 1148 1149
g Group3576
f 731 765 764 732
g Group56856
f 1182 1181 1149 1150
g Group3576
f 730 766 765 731
g Group56856
f 1183 1182 1150 1151
g Group3576
f 729 767 766 730
g Group56856
f 1184 1183 1151 1152
g Group3576
f 728 768 767 729
g Group56856
f 1185 1184 1152 1153
g Group3576
f 727 769 768 728
g Group56856
f 1186 1185 1153 1154
g Group3576
f 726 770 769 727
g Group56856
f 1187 1186 1154 1155
g Group3576
f 725 771 770 726
g Group56856
f 1188 1187 1155 1156
g Group3576
f 724 772 771 725
g Group56856
f 1189 1188 1156 1157
g Group3576
f 723 773 772 724
g Group56856
f 1190 1189 1157 1158
g Group3576
f 722 774 773 723
g Group56856
f 1191 1190 1158 1159
g Group3576
f 721 775 774 722
g Group56856
f 1192 1191 1159 1160
g Group3576
f 720 776 775 721
g Group56856
f 1193 1192 1160 1161
g Group3576
f 719 777 776 720
g Group56856
f 1194 1193 1161 1162
g Group3576
f 718 778 777 719
g Group56856
f 1195 1194 1162 1163
g Group3576
f 716 779 778 718
g Group56856
f 1164 1195 1163 1132
g Group3576
f 717 749 779 716
g Group56856
f 1195 1164 1197 1196
g Group3576
f 716 813 812 717
g Group56856
f 1194 1195 1196 1198
g Group3576
f 718 814 813 716
g Group56856
f 1193 1194 1198 1199
g Group3576
f 719 815 814 718
g Group56856
f 1192 1193 1199 1200
g Group3576
f 720 816 815 719
g Group56856
f 1191 1192 1200 1201
g Group3576
f 721 817 816 720
g Group56856
f 1190 1191 1201 1202
g Group3576
f 722 818 817 721
g Group56856
f 1189 1190 1202 1203
g Group3576
f 723 819 818 722
g Group56856
f 1188 1189 1203 1204
g Group3576
f 724 820 819 723
g Group56856
f 1187 1188 1204 1205
g Group3576
f 725 821 820 724
g Group56856
f 1186 1187 1205 1206
g Group3576
f 726 822 821 725
g Group56856
f 1185 1186 1206 1207
g Group3576
f 727 823 822 726
g Group56856
f 1184 1185 1207 1208
g Group3576
f 728 824 823 727
g Group56856
f 1183 1184 1208 1209
g Group3576
f 729 825 824 728
g Group56856
f 1182 1183 1209 1210
g Group3576
f 730 826 825 729
g Group56856
f 1181 1182 1210 1211
g Group3576
f 731 827 826 730
g Group56856
f 1180 1181 1211 1212
g Group3576
f 732 828 827 731
g Group56856
f 1179 1180 1212 1213
g Group3576
f 733 829 828 732
g Group56856
f 1178 1179 1213 1214
g Group3576
f 734 830 829 733
g Group56856
f 1177 1178 1214 1215
g Group3576
f 735 831 830 734
g Group56856
f 1176 1177 1215 1216
g Group3576
f 736 832 831 735
g Group56856
f 1175 1176 1216 1217
g Group3576
f 737 833 832 736
g Group56856
f 1174 1175 1217 1218
g Group3576
f 738 834 833 737
g Group56856
f 1173 1174 1218 1219
g Group3576
f 739 835 834 738
g Group56856
f 1172 1173 1219 1220
g Group3576
f 740 836 835 739
g Group56856
f 1171 1172 1220 1221
g Group3576
f 741 837 836 740
g Group56856
f 1170 1171 1221 1222
g Group3576
f 742 838 837 741
g Group56856
f 1169 1170 1222 1223
g Group3576
f 743 839 838 742
g Group56856
f 1168 1169 1223 1224
g Group3576
f 744 840 839 743
g Group56856
f 1167 1168 1224 1225
g Group3576
f 745 841 840 744
g Group56856
f 1166 1167 1225 1226
g Group3576
f 746 842 841 745
g Group56856
f 1165 1166 1226 1227
g Group3576
f 747 843 842 746
g Group56856
f 1164 1165 1227 1197
g Group3576
f 717 812 843 747
g Group56856
f 1197 1227 1229 1228
g Group3576
f 812 781 780 843
g Group56856
f 1228 1230 1196 1197
g Group3576
f 781 812 813 811
g Group56856
f 1230 1231 1198 1196
g Group3576
f 811 813 814 810
g Group56856
f 1231 1232 1199 1198
g Group3576
f 810 814 815 809
g Group56856
f 1232 1233 1200 1199
g Group3576
f 809 815 816 808
g Group56856
f 1233 1234 1201 1200
g Group3576
f 808 816 817 807
g Group56856
f 1234 1235 1202 1201
g Group3576
f 807 817 818 806
g Group56856
f 1235 1236 1203 1202
g Group3576
f 806 818 819 805
g Group56856
f 1236 1237 1204 1203
g Group3576
f 805 819 820 804
g Group56856
f 1237 1238 1205 1204
g Group3576
f 804 820 821 803
g Group56856
f 1238 1239 1206 1205
g Group3576
f 803 821 822 802
g Group56856
f 1239 1240 1207 1206
g Group3576
f 802 822 823 801
g Group56856
f 1240 1241 1208 1207
g Group3576
f 801 823 824 800
g Group56856
f 1241 1242 1209 1208
g Group3576
f 800 824 825 799
g Group56856
f 1242 1243 1210 1209
g Group3576
f 799 825 826 798
g Group56856
f 1243 1244 1211 1210
g Group3576
f 798 826 827 797
g Group56856
f 1244 1245 1212 1211
g Group3576
f 797 827 828 796
g Group56856
f 1245 1246 1213 1212
g Group3576
f 796 828 829 795
g Group56856
f 1246 1247 1214 1213
g Group3576
f 795 829 830 794
g Group56856
f 1247 1248 1215 1214
g Group3576
f 794 830 831 793
g Group56856
f 1248 1249 1216 1215
g Group3576
f 793 831 832 792
g Group56856
f 1249 1250 1217 1216
g Group3576
f 792 832 833 791
g Group56856
f 1250 1251 1218 1217
g Group3576
f 791 833 834 790
g Group56856
f 1251 1252 1219 1218
g Group3576
f 790 834 835 789
g Group56856
f 1252 1253 1220 1219
g Group3576
f 789 835 836 788
g Group56856
f 1253 1254 1221 1220
g Group3576
f 788 836 837 787
g Group56856
f 1254 1255 1222 1221
g Group3576
f 787 837 838 786
g Group56856
f 1255 1256 1223 1222
g Group3576
f 786 838 839 785
g Group56856
f 1256 1257 1224 1223
g Group3576
f 785 839 840 784
g Group56856
f 1257 1258 1225 1224
g Group3576
f 784 840 841 783
g Group56856
f 1258 1259 1226 1225
g Group3576
f 783 841 842 782
g Group56856
f 1259 1229 1227 1226
g Group3576
f 782 842 843 780
g Group56856
f 1262 1261 1260
g Group3576
f 845 844 587
g Group56856
f 1261 1264 1263 1260
g Group3576
f 844 845 847 846
g Group56856
f 1264 1266 1265 1263
g Group3576
f 846 847 849 848
g Group56856
f 1266 1268 1267 1265
g Group3576
f 848 849 851 850
g Group56856
f 1268 1270 1269 1267
g Group3576
f 850 851 853 852
g Group56856
f 1270 1228 1229 1269
g Group3576
f 852 853 780 781
g Group56856
f 1262 1260 1271
g Group3576
f 854 845 587
g Group56856
f 1260 1263 1272 1271
g Group3576
f 845 854 855 847
g Group56856
f 1263 1265 1273 1272
g Group3576
f 847 855 856 849
g Group56856
f 1265 1267 1274 1273
g Group3576
f 849 856 857 851
g Group56856
f 1267 1269 1275 1274
g Group3576
f 851 857 858 853
g Group56856
f 1269 1229 1259 1275
g Group3576
f 853 858 782 780
g Group56856
f 1262 1271 1276
g Group3576
f 859 854 587
g Group56856
f 1271 1272 1277 1276
g Group3576
f 854 859 860 855
g Group56856
f 1272 1273 1278 1277
g Group3576
f 855 860 861 856
g Group56856
f 1273 1274 1279 1278
g Group3576
f 856 861 862 857
g Group56856
f 1274 1275 1280 1279
g Group3576
f 857 862 863 858
g Group56856
f 1275 1259 1258 1280
g Group3576
f 858 863 783 782
g Group56856
f 1262 1276 1281
g Group3576
f 864 859 587
g Group56856
f 1276 1277 1282 1281
g Group3576
f 859 864 865 860
g Group56856
f 1277 1278 1283 1282
g Group3576
f 860 865 866 861
g Group56856
f 1278 1279 1284 1283
g Group3576
f 861 866 867 862
g Group56856
f 1279 1280 1285 1284
g Group3576
f 862 867 868 863
g Group56856
f 1280 1258 1257 1285
g Group3576
f 863 868 784 783
g Group56856
f 1262 1281 1286
g Group3576
f 869 864 587
g Group56856
f 1281 1282 1287 1286
g Group3576
f 864 869 870 865
g Group56856
f 1282 1283 1288 1287
g Group3576
f 865 870 871 866
g Group56856
f 1283 1284 1289 1288
g Group3576
f 866 871 872 867
g Group56856
f 1284 1285 1290 1289
g Group3576
f 867 872 873 868
g Group56856
f 1285 1257 1256 1290
g Group3576
f 868 873 785 784
g Group56856
f 1262 1286 1291
g Group3576
f 874 869 587
g Group56856
f 1286 1287 1292 1291
g Group3576
f 869 874 875 870
g Group56856
f 1287 1288 1293 1292
g Group3576
f 870 875 876 871
g Group56856
f 1288 1289 1294 1293
g Group3576
f 871 876 877 872
g Group56856
f 1289 1290 1295 1294
g Group3576
f 872 877 878 873
g Group56856
f 1290 1256 1255 1295
g Group3576
f 873 878 786 785
g Group56856
f 1262 1291 1296
g Group3576
f 879 874 587
g Group56856
f 1291 1292 1297 1296
g Group3576
f 874 879 880 875
g Group56856
f 1292 1293 1298 1297
g Group3576
f 875 880 881 876
g Group56856
f 1293 1294 1299 1298
g Group3576
f 876 881 882 877
g Group56856
f 1294 1295 1300 1299
g Group3576
f 877 882 883 878
g Group56856
f 1295 1255 1254 1300
g Group3576
f 878 883 787 786
g Group56856
f 1262 1296 1301
g Group3576
f 884 879 587
g Group56856
f 1296 1297 1302 1301
g Group3576
f 879 884 885 880
g Group56856
f 1297 1298 1303 1302
g Group3576
f 880 885 886 881
g Group56856
f 1298 1299 1304 1303
g Group3576
f 881 886 887 882
g Group56856
f 1299 1300 1305 1304
g Group3576
f 882 887 888 883
g Group56856
f 1300 1254 1253 1305
g Group3576
f 883 888 788 787
g Group56856
f 1262 1301 1306
g Group3576
f 889 884 587
g Group56856
f 1301 1302 1307 1306
g Group3576
f 884 889 890 885
g Group56856
f 1302 1303 1308 1307
g Group3576
f 885 890 891 886
g Group56856
f 1303 1304 1309 1308
g Group3576
f 886 891 892 887
g Group56856
f 1304 1305 1310 1309
g Group3576
f 887 892 893 888
g Group56856
f 1305 1253 1252 1310
g Group3576
f 888 893 789 788
g Group56856
f 1262 1306 1311
g Group3576
f 894 889 587
g Group56856
f 1306 1307 1312 1311
g Group3576
f 889 894 895 890
g Group56856
f 1307 1308 1313 1312
g Group3576
f 890 895 896 891
g Group56856
f 1308 1309 1314 1313
g Group3576
f 891 896 897 892
g Group56856
f 1309 1310 1315 1314
g Group3576
f 892 897 898 893
g Group56856
f 1310 1252 1251 1315
g Group3576
f 893 898 790 789
g Group56856
f 1262 1311 1316
g Group3576
f 899 894 587
g Group56856
f 1311 1312 1317 1316
g Group3576
f 894 899 900 895
g Group56856
f 1312 1313 1318 1317
g Group3576
f 895 900 901 896
g Group56856
f 1313 1314 1319 1318
g Group3576
f 896 901 902 897
g Group56856
f 1314 1315 1320 1319
g Group3576
f 897 902 903 898
g Group56856
f 1315 1251 1250 1320
g Group3576
f 898 903 791 790
g Group56856
f 1262 1316 1321
g Group3576
f 904 899 587
g Group56856
f 1316 1317 1322 1321
g Group3576
f 899 904 905 900
g Group56856
f 1317 1318 1323 1322
g Group3576
f 900 905 906 901
g Group56856
f 1318 1319 1324 1323
g Group3576
f 901 906 907 902
g Group56856
f 1319 1320 1325 1324
g Group3576
f 902 907 908 903
g Group56856
f 1320 1250 1249 1325
g Group3576
f 903 908 792 791
g Group56856
f 1262 1321 1326
g Group3576
f 909 904 587
g Group56856
f 1321 1322 1327 1326
g Group3576
f 904 909 910 905
g Group56856
f 1322 1323 1328 1327
g Group3576
f 905 910 911 906
g Group56856
f 1323 1324 1329 1328
g Group3576
f 906 911 912 907
g Group56856
f 1324 1325 1330 1329
g Group3576
f 907 912 913 908
g Group56856
f 1325 1249 1248 1330
g Group3576
f 908 913 793 792
g Group56856
f 1262 1326 1331
g Group3576
f 914 909 587
g Group56856
f 1326 1327 1332 1331
g Group3576
f 909 914 915 910
g Group56856
f 1327 1328 1333 1332
g Group3576
f 910 915 916 911
g Group56856
f 1328 1329 1334 1333
g Group3576
f 911 916 917 912
g Group56856
f 1329 1330 1335 1334
g Group3576
f 912 917 918 913
g Group56856
f 1330 1248 1247 1335
g Group3576
f 913 918 794 793
g Group56856
f 1262 1331 1336
g Group3576
f 919 914 587
g Group56856
f 1331 1332 1337 1336
g Group3576
f 914 919 920 915
g Group56856
f 1332 1333 1338 1337
g Group3576
f 915 920 921 916
g Group56856
f 1333 1334 1339 1338
g Group3576
f 916 921 922 917
g Group56856
f 1334 1335 1340 1339
g Group3576
f 917 922 923 918
g Group56856
f 1335 1247 1246 1340
g Group3576
f 918 923 795 794
g Group56856
f 1262 1336 1341
g Group3576
f 924 919 587
g Group56856
f 1336 1337 1342 1341
g Group3576
f 919 924 925 920
g Group56856
f 1337 1338 1343 1342
g Group3576
f 920 925 926 921
g Group56856
f 1338 1339 1344 1343
g Group3576
f 921 926 927 922
g Group56856
f 1339 1340 1345 1344
g Group3576
f 922 927 928 923
g Group56856
f 1340 1246 1245 1345
g Group3576
f 923 928 796 795
g Group56856
f 1262 1341 1346
g Group3576
f 929 924 587
g Group56856
f 1341 1342 1347 1346
g Group3576
f 924 929 930 925
g Group56856
f 1342 1343 1348 1347
g Group3576
f 925 930 931 926
g Group56856
f 1343 1344 1349 1348
g Group3576
f 926 931 932 927
g Group56856
f 1344 1345 1350 1349
g Group3576
f 927 932 933 928
g Group56856
f 1345 1245 1244 1350
g Group3576
f 928 933 797 796
g Group56856
f 1262 1346 1351
g Group3576
f 934 929 587
g Group56856
f 1346 1347 1352 1351
g Group3576
f 929 934 935 930
g Group56856
f 1347 1348 1353 1352
g Group3576
f 930 935 936 931
g Group56856
f 1348 1349 1354 1353
g Group3576
f 931 936 937 932
g Group56856
f 1349 1350 1355 1354
g Group3576
f 932 937 938 933
g Group56856
f 1350 1244 1243 1355
g Group3576
f 933 938 798 797
g Group56856
f 1262 1351 1356
g Group3576
f 939 934 587
g Group56856
f 1351 1352 1357 1356
g Group3576
f 934 939 940 935
g Group56856
f 1352 1353 1358 1357
g Group3576
f 935 940 941 936
g Group56856
f 1353 1354 1359 1358
g Group3576
f 936 941 942 937
g Group56856
f 1354 1355 1360 1359
g Group3576
f 937 942 943 938
g Group56856
f 1355 1243 1242 1360
g Group3576
f 938 943 799 798
g Group56856
f 1262 1356 1361
g Group3576
f 944 939 587
g Group56856
f 1356 1357 1362 1361
g Group3576
f 939 944 945 940
g Group56856
f 1357 1358 1363 1362
g Group3576
f 940 945 946 941
g Group56856
f 1358 1359 1364 1363
g Group3576
f 941 946 947 942
g Group56856
f 1359 1360 1365 1364
g Group3576
f 942 947 948 943
g Group56856
f 1360 1242 1241 1365
g Group3576
f 943 948 800 799
g Group56856
f 1262 1361 1366
g Group3576
f 949 944 587
g Group56856
f 1361 1362 1367 1366
g Group3576
f 944 949 950 945
g Group56856
f 1362 1363 1368 1367
g Group3576
f 945 950 951 946
g Group56856
f 1363 1364 1369 1368
g Group3576
f 946 951 952 947
g Group56856
f 1364 1365 1370 1369
g Group3576
f 947 952 953 948
g Group56856
f 1365 1241 1240 1370
g Group3576
f 948 953 801 800
g Group56856
f 1262 1366 1371
g Group3576
f 954 949 587
g Group56856
f 1366 1367 1372 1371
g Group3576
f 949 954 955 950
g Group56856
f 1367 1368 1373 1372
g Group3576
f 950 955 956 951
g Group56856
f 1368 1369 1374 1373
g Group3576
f 951 956 957 952
g Group56856
f 1369 1370 1375 1374
g Group3576
f 952 957 958 953
g Group56856
f 1370 1240 1239 1375
g Group3576
f 953 958 802 801
g Group56856
f 1262 1371 1376
g Group3576
f 959 954 587
g Group56856
f 1371 1372 1377 1376
g Group3576
f 954 959 960 955
g Group56856
f 1372 1373 1378 1377
g Group3576
f 955 960 961 956
g Group56856
f 1373 1374 1379 1378
g Group3576
f 956 961 962 957
g Group56856
f 1374 1375 1380 1379
g Group3576
f 957 962 963 958
g Group56856
f 1375 1239 1238 1380
g Group3576
f 958 963 803 802
g Group56856
f 1262 1376 1381
g Group3576
f 964 959 587
g Group56856
f 1376 1377 1382 1381
g Group3576
f 959 964 965 960
g Group56856
f 1377 1378 1383 1382
g Group3576
f 960 965 966 961
g Group56856
f 1378 1379 1384 1383
g Group3576
f 961 966 967 962
g Group56856
f 1379 1380 1385 1384
g Group3576
f 962 967 968 963
g Group56856
f 1380 1238 1237 1385
g Group3576
f 963 968 804 803
g Group56856
f 1262 1381 1386
g Group3576
f 969 964 587
g Group56856
f 1381 1382 1387 1386
g Group3576
f 964 969 970 965
g Group56856
f 1382 1383 1388 1387
g Group3576
f 965 970 971 966
g Group56856
f 1383 1384 1389 1388
g Group3576
f 966 971 972 967
g Group56856
f 1384 1385 1390 1389
g Group3576
f 967 972 973 968
g Group56856
f 1385 1237 1236 1390
g Group3576
f 968 973 805 804
g Group56856
f 1262 1386 1391
g Group3576
f 974 969 587
g Group56856
f 1386 1387 1392 1391
g Group3576
f 969 974 975 970
g Group56856
f 1387 1388 1393 1392
g Group3576
f 970 975 976 971
g Group56856
f 1388 1389 1394 1393
g Group3576
f 971 976 977 972
g Group56856
f 1389 1390 1395 1394
g Group3576
f 972 977 978 973
g Group56856
f 1390 1236 1235 1395
g Group3576
f 973 978 806 805
g Group56856
f 1262 1391 1396
g Group3576
f 979 974 587
g Group56856
f 1391 1392 1397 1396
g Group3576
f 974 979 980 975
g Group56856
f 1392 1393 1398 1397
g Group3576
f 975 980 981 976
g Group56856
f 1393 1394 1399 1398
g Group3576
f 976 981 982 977
g Group56856
f 1394 1395 1400 1399
g Group3576
f 977 982 983 978
g Group56856
f 1395 1235 1234 1400
g Group3576
f 978 983 807 806
g Group56856
f 1262 1396 1401
g Group3576
f 984 979 587
g Group56856
f 1396 1397 1402 1401
g Group3576
f 979 984 985 980
g Group56856
f 1397 1398 1403 1402
g Group3576
f 980 985 986 981
g Group56856
f 1398 1399 1404 1403
g Group3576
f 981 986 987 982
g Group56856
f 1399 1400 1405 1404
g Group3576
f 982 987 988 983
g Group56856
f 1400 1234 1233 1405
g Group3576
f 983 988 808 807
g Group56856
f 1262 1401 1406
g Group3576
f 989 984 587
g Group56856
f 1401 1402 1407 1406
g Group3576
f 984 989 990 985
g Group56856
f 1402 1403 1408 1407
g Group3576
f 985 990 991 986
g Group56856
f 1403 1404 1409 1408
g Group3576
f 986 991 992 987
g Group56856
f 1404 1405 1410 1409
g Group3576
f 987 992 993 988
g Group56856
f 1405 1233 1232 1410
g Group3576
f 988 993 809 808
g Group56856
f 1262 1406 1411
g Group3576
f 994 989 587
g Group56856
f 1406 1407 1412 1411
g Group3576
f 989 994 995 990
g Group56856
f 1407 1408 1413 1412
g Group3576
f 990 995 996 991
g Group56856
f 1408 1409 1414 1413
g Group3576
f 991 996 997 992
g Group56856
f 1409 1410 1415 1414
g Group3576
f 992 997 998 993
g Group56856
f 1410 1232 1231 1415
g Group3576
f 993 998 810 809
g Group56856
f 1262 1411 1416
g Group3576
f 999 994 587
g Group56856
f 1411 1412 1417 1416
g Group3576
f 994 999 1000 995
g Group56856
f 1412 1413 1418 1417
g Group3576
f 995 1000 1001 996
g Group56856
f 1413 1414 1419 1418
g Group3576
f 996 1001 1002 997
g Group56856
f 1414 1415 1420 1419
g Group3576
f 997 1002 1003 998
g Group56856
f 1415 1231 1230 1420
g Group3576
f 998 1003 811 810
g Group56856
f 1262 1416 1261
g Group3576
f 844 999 587
g Group56856
f 1416 1417 1264 1261
g Group3576
f 999 844 846 1000
g Group56856
f 1417 1418 1266 1264
g Group3576
f 1000 846 848 1001
g Group56856
f 1418 1419 1268 1266
g Group3576
f 1001 848 850 1002
g Group56856
f 1419 1420 1270 1268
g Group3576
f 1002 850 852 1003
g Group56856
f 1420 1230 1228 1270
g Group3576
f 1003 852 781 811
g Group56856
f 1424 1423 1422 1421
g Group56859
f 1005 1004 1421 1422
g Group56856
f 1007 1006 1423 1424
f 1426 1424 1421 1425
g Group56859
f 1004 1008 1425 1421
g Group56856
f 1009 1007 1424 1426
f 1428 1426 1425 1427
g Group56859
f 1008 1010 1427 1425
g Group56856
f 1011 1009 1426 1428
f 1430 1428 1427 1429
g Group56859
f 1010 1012 1429 1427
g Group56856
f 1013 1011 1428 1430
f 1432 1430 1429 1431
g Group56859
f 1012 1014 1431 1429
g Group56856
f 1015 1013 1430 1432
f 1434 1432 1431 1433
g Group56859
f 1014 1016 1433 1431
g Group56856
f 1017 1015 1432 1434
f 1436 1434 1433 1435
g Group56859
f 1016 1018 1435 1433
g Group56856
f 1019 1017 1434 1436
f 1438 1436 1435 1437
g Group56859
f 1018 1020 1437 1435
g Group56856
f 1021 1019 1436 1438
f 1440 1438 1437 1439
g Group56859
f 1020 1022 1439 1437
g Group56856
f 1023 1021 1438 1440
f 1442 1440 1439 1441
g Group56859
f 1022 1024 1441 1439
g Group56856
f 1025 1023 1440 1442
f 1444 1442 1441 1443
g Group56859
f 1024 1026 1443 1441
g Group56856
f 1027 1025 1442 1444
f 1446 1444 1443 1445
g Group56859
f 1026 1028 1445 1443
g Group56856
f 1029 1027 1444 1446
f 1448 1446 1445 1447
g Group56859
f 1028 1030 1447 1445
g Group56856
f 1031 1029 1446 1448
f 1450 1448 1447 1449
g Group56859
f 1030 1032 1449 1447
g Group56856
f 1033 1031 1448 1450
f 1452 1450 1449 1451
g Group56859
f 1032 1034 1451 1449
g Group56856
f 1035 1033 1450 1452
f 1454 1452 1451 1453
g Group56859
f 1034 1036 1453 1451
g Group56856
f 1037 1035 1452 1454
f 1456 1454 1453 1455
g Group56859
f 1036 1038 1455 1453
g Group56856
f 1039 1037 1454 1456
f 1458 1456 1455 1457
g Group56859
f 1038 1040 1457 1455
g Group56856
f 1041 1039 1456 1458
f 1460 1458 1457 1459
g Group56859
f 1040 1042 1459 1457
g Group56856
f 1043 1041 1458 1460
f 1462 1460 1459 1461
g Group56859
f 1042 1044 1461 1459
g Group56856
f 1045 1043 1460 1462
f 1464 1462 1461 1463
g Group56859
f 1044 1046 1463 1461
g Group56856
f 1047 1045 1462 1464
f 1466 1464 1463 1465
g Group56859
f 1046 1048 1465 1463
g Group56856
f 1049 1047 1464 1466
f 1468 1466 1465 1467
g Group56859
f 1048 1050 1467 1465
g Group56856
f 1051 1049 1466 1468
f 1470 1468 1467 1469
g Group56859
f 1050 1052 1469 1467
g Group56856
f 1053 1051 1468 1470
f 1472 1470 1469 1471
g Group56859
f 1052 1054 1471 1469
g Group56856
f 1055 1053 1470 1472
f 1474 1472 1471 1473
g Group56859
f 1054 1056 1473 1471
g Group56856
f 1057 1055 1472 1474
f 1476 1474 1473 1475
g Group56859
f 1056 1058 1475 1473
g Group56856
f 1059 1057 1474 1476
f 1478 1476 1475 1477
g Group56859
f 1058 1060 1477 1475
g Group56856
f 1061 1059 1476 1478
f 1480 1478 1477 1479
g Group56859
f 1060 1062 1479 1477
g Group56856
f 1063 1061 1478 1480
f 1482 1480 1479 1481
g Group56859
f 1062 1064 1481 1479
g Group56856
f 1065 1063 1480 1482
f 1484 1482 1481 1483
g Group56859
f 1064 1066 1483 1481
g Group56856
f 1067 1065 1482 1484
f 1423 1484 1483 1422
g Group56859
f 1066 1005 1422 1483
g Group56856
f 1006 1067 1484 1423

 