# File exported by ZBrush version 2021
# www.zbrush.com
#Vertex Count 674
#Face Count 704
#Auto scale x=1.000000 y=1.000000 z=1.000000
#Auto offset x=0.000000 y=0.000000 z=0.000000
v 0.04075941 -0.27003651 -0.32445162
v -0.040392 -0.27158671 -0.32698231
v -0.02665782 -0.10294888 -0.2245683
v 0.01911062 -0.10254708 -0.22419971
v 0.11759556 -0.26319253 -0.30146145
v 0.06355015 -0.09972298 -0.2138516
v 0.18460239 -0.25369501 -0.26146107
v 0.10428722 -0.09507458 -0.19384676
v 0.23852418 -0.24403096 -0.2094891
v 0.13930401 -0.08916764 -0.16506081
v 0.27857172 -0.23533457 -0.15074473
v 0.1672354 -0.08229927 -0.12892395
v 0.30609834 -0.22670993 -0.08973419
v 0.18769282 -0.07416684 -0.08751651
v 0.32340344 -0.21609613 -0.0294549
v 0.20098035 -0.06420173 -0.04317976
v 0.33254939 -0.2015075 0.02887822
v 0.20761334 -0.05203621 0.00188127
v 0.33435866 -0.18227741 0.08574137
v 0.2077752 -0.03801167 0.04601922
v 0.32809066 -0.15951463 0.14260277
v 0.20117148 -0.02324028 0.08819732
v 0.31190016 -0.13546374 0.200596
v 0.18737699 -0.00907004 0.12761113
v 0.28351506 -0.11280423 0.25936299
v 0.1661939 0.00330927 0.16339924
v 0.24130143 -0.09357275 0.31610745
v 0.13805292 0.01331783 0.19432082
v 0.18497741 -0.079085 0.36587667
v 0.10391192 0.02071452 0.21902629
v 0.11642522 -0.06974418 0.40253412
v 0.06522717 0.0255123 0.23620085
v 0.03978504 -0.06561739 0.42086011
v 0.02370341 0.02766564 0.24493207
v -0.03907746 -0.06669712 0.41836506
v -0.01877996 0.02715974 0.24475254
v -0.11391967 -0.07322415 0.39630496
v -0.06028736 0.02393472 0.23574218
v -0.17963555 -0.08531819 0.35896217
v -0.09896653 0.01796613 0.2184523
v -0.23312507 -0.10267279 0.31196087
v -0.13312728 0.0091798 0.1938726
v -0.2736262 -0.12398043 0.26020771
v -0.16154991 -0.00222661 0.16313532
v -0.30208876 -0.14715403 0.20676282
v -0.183541 -0.01569497 0.12736466
v -0.320562 -0.16943249 0.15241876
v -0.19907455 -0.03003175 0.08743998
v -0.3309932 -0.18849313 0.09643253
v -0.20835185 -0.043878 0.04423037
v -0.33435866 -0.20319506 0.03751167
v -0.21141004 -0.05611303 -0.00119431
v -0.3299767 -0.2142356 -0.02497501
v -0.20772349 -0.06641113 -0.04725892
v -0.31566157 -0.22368091 -0.0902464
v -0.19635801 -0.07516835 -0.09190714
v -0.28863892 -0.23369109 -0.15581864
v -0.1765666 -0.0829726 -0.13290256
v -0.24671025 -0.24523331 -0.21755063
v -0.14832411 -0.0901203 -0.16812846
v -0.18955196 -0.25716811 -0.27019524
v -0.1126629 -0.09626685 -0.19591146
v -0.11924739 -0.26689833 -0.3081628
v -0.07136336 -0.10077279 -0.2149882
v -0.00376843 0.16834056 -0.05200611
v -0.07096476 0.06392136 -0.25496763
v -0.02743839 0.06202305 -0.26401776
v -0.11118646 0.06783083 -0.23716586
v -0.14602291 0.07366502 -0.21129244
v -0.17385916 0.08130241 -0.17837244
v -0.19365027 0.09056516 -0.13980966
v -0.20496211 0.10119719 -0.09739416
v -0.20787808 0.11285746 -0.05316786
v -0.20286504 0.12512737 -0.00924105
v -0.19061596 0.13754665 0.03248032
v -0.17194882 0.14962822 0.07043585
v -0.14775799 0.16088196 0.10346999
v -0.11902804 0.17081716 0.13075515
v -0.08682394 0.17896476 0.15169635
v -0.05226739 0.18490892 0.1658732
v -0.01646345 0.18832686 0.17300441
v 0.01954058 0.18901944 0.17295888
v 0.05476117 0.18693077 0.16575315
v 0.08823429 0.18215385 0.15156903
v 0.11896893 0.17492806 0.13074478
v 0.14595316 0.16561943 0.1037766
v 0.1681897 0.15468469 0.07130321
v 0.18477402 0.14263111 0.03411862
v 0.19492897 0.12998485 -0.00677187
v 0.19803002 0.11726468 -0.05005568
v 0.19361145 0.10498268 -0.09404319
v 0.18139594 0.0936197 -0.13672873
v 0.1613671 0.08360213 -0.17595356
v 0.13386926 0.07526655 -0.20970237
v 0.0996977 0.06884558 -0.23630902
v 0.06016303 0.06447003 -0.25461071
v 0.0170595 0.06219473 -0.2639293
v -0.02624795 -0.05780847 -0.22923862
v -0.0261195 -0.07114958 -0.22540682
v 0.0176803 -0.07093804 -0.22531908
v 0.01758783 -0.05759138 -0.22914896
v 0.06044782 -0.06861778 -0.21615421
v 0.06032745 -0.05523203 -0.21997422
v 0.10019393 -0.06430059 -0.19809344
v 0.09996127 -0.05078067 -0.20193064
v 0.1350751 -0.05812295 -0.17167362
v 0.13465918 -0.04433229 -0.17558804
v 0.16361798 -0.0501995 -0.13788431
v 0.16297775 -0.03601798 -0.1419529
v 0.18490985 -0.04058085 -0.09823155
v 0.18398542 -0.02600765 -0.10249564
v 0.19858051 -0.02934462 -0.05464264
v 0.19727428 -0.01454359 -0.05910068
v 0.20463846 -0.01672202 -0.00927139
v 0.20282439 -0.00198597 -0.01389028
v 0.20324403 -0.00320445 0.03578093
v 0.20084708 0.01117101 0.03100861
v 0.19460481 0.0104844 0.07866427
v 0.19167591 0.02433011 0.0736874
v 0.17901867 0.02355228 0.11786612
v 0.17575369 0.03686856 0.11258789
v 0.15696294 0.03528335 0.15219143
v 0.15366873 0.04819696 0.14651718
v 0.12918037 0.04513515 0.18071153
v 0.12619739 0.05780169 0.17460361
v 0.09666355 0.05270062 0.20273044
v 0.0943091 0.06524217 0.1962203
v 0.06061293 0.05768774 0.21774956
v 0.05913154 0.07016725 0.21093222
v 0.02235155 0.0598852 0.22544702
v 0.02188338 0.07233475 0.21845218
v -0.01673249 0.05920462 0.22562345
v -0.01617162 0.0716442 0.21859905
v -0.05523525 0.05568023 0.21819457
v -0.05375529 0.06814594 0.21129557
v -0.09179004 0.04946884 0.20320752
v -0.08960957 0.06203451 0.19657602
v -0.12510892 0.04081597 0.18090894
v -0.12252655 0.05361446 0.17463615
v -0.15406657 0.03008591 0.15177765
v -0.15141756 0.04328559 0.1458961
v -0.17772556 0.017787 0.11657103
v -0.17532376 0.03152852 0.11105135
v -0.19535152 0.0046131 0.07636174
v -0.19340843 0.01890383 0.07114693
v -0.20631726 -0.00866209 0.03256788
v -0.20489971 0.00601115 0.02762009
v -0.21001765 -0.02133087 -0.01304383
v -0.20906291 -0.00657445 -0.0177318
v -0.20585453 -0.03291608 -0.05844855
v -0.20524352 -0.01837349 -0.06286843
v -0.19337715 -0.04319749 -0.10153928
v -0.19301921 -0.02903581 -0.10570851
v -0.17255511 -0.05208923 -0.14035397
v -0.17240145 -0.03830969 -0.1443265
v -0.14397841 -0.05951153 -0.17323446
v -0.14399851 -0.04599535 -0.17709326
v -0.10888344 -0.06529708 -0.19891512
v -0.10901561 -0.05191054 -0.20273417
v -0.06896227 -0.06923862 -0.21649816
v -0.06912522 -0.05589071 -0.22032085
v -0.02637565 -0.04447554 -0.2330608
v 0.01744423 -0.04426382 -0.23295411
v 0.06008481 -0.04190699 -0.22372937
v 0.09949564 -0.03742944 -0.20561599
v 0.13386413 -0.03090149 -0.17921304
v 0.16178911 -0.02245753 -0.14556255
v 0.1823742 -0.01231487 -0.10616499
v 0.19522035 -0.00079345 -0.06292296
v 0.20031878 0.01168819 -0.01796723
v 0.19791324 0.02463553 0.02657367
v 0.18841113 0.03751208 0.06880709
v 0.17233574 0.04977643 0.10721102
v 0.15034177 0.06089492 0.14064571
v 0.12323901 0.07036128 0.16828694
v 0.0919881 0.07771772 0.18954315
v 0.05766724 0.08259047 0.20399597
v 0.02140423 0.08472804 0.21135768
v -0.01565372 0.0840283 0.2114602
v -0.05234477 0.08054898 0.20423832
v -0.08749844 0.07449446 0.18974271
v -0.11996062 0.06619647 0.16816464
v -0.14865388 0.05607239 0.13989099
v -0.17260032 0.04459237 0.1055614
v -0.19090886 0.03226179 0.06615886
v -0.2027378 0.01959361 0.02306748
v -0.20728923 0.00710132 -0.02194382
v -0.20387397 -0.00473901 -0.06684126
v -0.19205685 -0.01551726 -0.10953742
v -0.17183232 -0.02490565 -0.1480906
v -0.14376734 -0.03265829 -0.1808485
v -0.10901739 -0.03859024 -0.20651334
v -0.06923373 -0.04256394 -0.22412937
v -0.0266323 -0.01780029 -0.24072226
v 0.0172913 -0.0176001 -0.24060556
v 0.05994521 -0.01527089 -0.23132631
v 0.09922305 -0.0108297 -0.21311336
v 0.13331948 -0.00434042 -0.18659275
v 0.16087745 0.00406562 -0.15284994
v 0.1810576 0.01416266 -0.11345362
v 0.19350022 0.02562263 -0.07036627
v 0.19822642 0.03802174 -0.02574785
v 0.19550477 0.05086711 0.0183006
v 0.18576952 0.06363816 0.05995979
v 0.16958393 0.07580207 0.09779462
v 0.14764592 0.08683385 0.13073667
v 0.12079715 0.09622751 0.15799549
v 0.09000872 0.10352519 0.17897549
v 0.05632454 0.10835363 0.19324079
v 0.02080276 0.11046509 0.20049086
v -0.01550624 0.10976213 0.20055487
v -0.05153462 0.10630144 0.19338765
v -0.08617783 0.10028724 0.17906728
v -0.1183114 0.09205026 0.1578131
v -0.1468475 0.08200863 0.13001105
v -0.17078304 0.07063154 0.09626051
v -0.18919903 0.05841247 0.05746677
v -0.20123548 0.04585664 0.01492102
v -0.20607943 0.03345979 -0.02968587
v -0.20302602 0.0216955 -0.07435056
v -0.19160324 0.01097875 -0.1169641
v -0.17175518 0.00164323 -0.15553346
v -0.14397773 -0.00605947 -0.18835312
v -0.1093776 -0.0119499 -0.21408823
v -0.06959105 -0.015896 -0.23176017
v -0.07024598 0.02407087 -0.24326795
v -0.02702469 0.02217203 -0.25227499
v -0.11020784 0.02799363 -0.22552621
v -0.14484934 0.03384841 -0.19971394
v -0.17254243 0.0415075 -0.16683235
v -0.19222034 0.05079428 -0.12825611
v -0.20343622 0.06145407 -0.08574035
v -0.20628096 0.07314811 -0.04131718
v -0.2012424 0.08546102 0.00289429
v -0.18903423 0.09792573 0.04493621
v -0.17047886 0.11005298 0.08319124
v -0.14645633 0.1213476 0.11645445
v -0.11791724 0.13132095 0.1438789
v -0.08589292 0.13950416 0.16488173
v -0.05148501 0.14547887 0.17907014
v -0.01579755 0.14891925 0.18619397
v 0.02011056 0.14961978 0.18614795
v 0.05523688 0.14752575 0.17896273
v 0.08859656 0.1427319 0.16480818
v 0.11918257 0.13548189 0.14400324
v 0.14597705 0.12614554 0.11701187
v 0.16799686 0.11517992 0.0844396
v 0.18436914 0.10309267 0.04706469
v 0.19435192 0.09040623 0.00590372
v 0.19734752 0.07764326 -0.03768576
v 0.19289451 0.065319 -0.0819565
v 0.18070763 0.05391955 -0.12484976
v 0.16075177 0.04387128 -0.1641916
v 0.13336107 0.03550823 -0.19797593
v 0.09933648 0.02905933 -0.22457429
v 0.06000388 0.02465516 -0.24285531
v 0.01716519 0.0223567 -0.25216746
v -0.02531717 0.11180627 -0.25277328
v -0.06451317 0.11352479 -0.244688
v -0.10084129 0.1170713 -0.22884231
v -0.13251116 0.1223645 -0.20584783
v -0.1581141 0.12928134 -0.17662391
v -0.17669667 0.13765218 -0.14241731
v -0.18778757 0.14723065 -0.10479253
v -0.19132894 0.15770492 -0.06551648
v -0.18759539 0.16869986 -0.02639736
v -0.17708629 0.17980286 0.01092304
v -0.16046296 0.19058218 0.04506841
v -0.13851398 0.20059678 0.0749695
v -0.11215059 0.20941031 0.09980961
v -0.08238169 0.21661287 0.11896345
v -0.05027643 0.2218444 0.13196727
v -0.01689552 0.22482931 0.13850519
v 0.01673802 0.22540491 0.13842234
v 0.04965059 0.22352436 0.13172993
v 0.08088859 0.21927201 0.11861357
v 0.10948951 0.21284917 0.0994291
v 0.13448572 0.2045727 0.07469949
v 0.15494287 0.19484031 0.04509368
v 0.17001165 0.18410024 0.01142229
v 0.1789844 0.17281904 -0.02532805
v 0.18132081 0.16146385 -0.06395615
v 0.17666725 0.15048798 -0.10298165
v 0.16488251 0.14031392 -0.14069783
v 0.14607739 0.13132163 -0.17527851
v 0.12067364 0.123814 -0.20500704
v 0.08946034 0.11801073 -0.22844754
v 0.05362556 0.11404168 -0.24456849
v 0.01474044 0.11197081 -0.25275665
v 0.04023408 -0.27523624 -0.31888699
v -0.03992729 -0.27680039 -0.32141369
v 0.11611712 -0.26839566 -0.29610496
v 0.18227143 -0.25891727 -0.25650376
v 0.23550285 -0.24929419 -0.20507341
v 0.27504873 -0.24065722 -0.14695206
v 0.3022558 -0.23210775 -0.08658355
v 0.31939411 -0.22159433 -0.02692528
v 0.32849472 -0.20713847 0.03082467
v 0.33036071 -0.18808248 0.08713421
v 0.32425326 -0.16553548 0.14345607
v 0.30834516 -0.1417368 0.20090583
v 0.28038132 -0.11934572 0.25913435
v 0.23873333 -0.10036811 0.31537717
v 0.18309663 -0.08608833 0.36472272
v 0.11531186 -0.0768845 0.40108406
v 0.03948003 -0.07281548 0.41925114
v -0.03855749 -0.07386929 0.41674536
v -0.11258307 -0.08029093 0.39482414
v -0.17753346 -0.09220507 0.35775613
v -0.23035892 -0.10932887 0.31113308
v -0.27032819 -0.13038745 0.2598198
v -0.29839482 -0.15332299 0.20684805
v -0.31659343 -0.17539346 0.15299943
v -0.3268505 -0.19428494 0.09754511
v -0.33013811 -0.20885413 0.03920392
v -0.32579049 -0.21979036 -0.02264137
v -0.31165581 -0.22914892 -0.08721962
v -0.28499603 -0.23908437 -0.15208131
v -0.24363297 -0.25056365 -0.21314296
v -0.1872282 -0.26244503 -0.26522481
v -0.11781412 -0.2721365 -0.30279856
v -0.06501067 0.12085449 -0.24750903
v -0.02546539 0.11912547 -0.25563806
v -0.10167251 0.12441968 -0.23160359
v -0.13363686 0.1297355 -0.2085272
v -0.15947009 0.13667863 -0.17919486
v -0.17819768 0.14507645 -0.14484676
v -0.18934521 0.15468758 -0.10704827
v -0.19286884 0.16519936 -0.06757535
v -0.1890663 0.17623478 -0.02825905
v -0.17845749 0.18737873 0.00923121
v -0.16171579 0.19819882 0.0434958
v -0.13962666 0.2082524 0.07345494
v -0.11309705 0.21710526 0.09829852
v -0.08312834 0.22434353 0.11741456
v -0.05079631 0.22960406 0.13036093
v -0.01716947 0.23260867 0.13684412
v 0.01671777 0.23318702 0.13672408
v 0.04988586 0.23129326 0.13001748
v 0.0813748 0.22701215 0.1169047
v 0.11020822 0.22055152 0.09773096
v 0.13540582 0.21223175 0.07299837
v 0.15602368 0.20245346 0.04335573
v 0.17121666 0.19166833 0.0095998
v 0.18027949 0.18034288 -0.02729173
v 0.1826777 0.16894242 -0.06610567
v 0.17805051 0.15792441 -0.10533812
v 0.16624242 0.14771324 -0.1432496
v 0.14734537 0.13869163 -0.17799013
v 0.12176993 0.13116243 -0.20782765
v 0.09030839 0.12534298 -0.23132732
v 0.05416812 0.12136308 -0.24746933
v 0.01494343 0.11928662 -0.2556492
v -0.00384058 0.17588815 -0.05416807
v -0.07403738 0.06154383 -0.26315468
v -0.0283627 0.05955886 -0.27262121
v -0.11624504 0.0656186 -0.24457857
v -0.15279404 0.07168777 -0.21762785
v -0.18198563 0.07961478 -0.18339973
v -0.20273186 0.08921484 -0.14336237
v -0.2145999 0.10022655 -0.09936109
v -0.21770718 0.1123019 -0.05349317
v -0.21257086 0.12501674 -0.00792463
v -0.19992193 0.13789799 0.03537306
v -0.18059466 0.15044733 0.07478413
v -0.15547442 0.16216123 0.10910204
v -0.1255261 0.1725313 0.13746294
v -0.09180164 0.18106195 0.15924063
v -0.05545274 0.18730634 0.17398122
v -0.01765309 0.19090357 0.18137767
v 0.02043882 0.19163078 0.18127909
v 0.05771227 0.18942531 0.17370465
v 0.09307806 0.18439298 0.15885904
v 0.12544213 0.17680096 0.1371226
v 0.15373046 0.16705352 0.10903206
v 0.17692597 0.15564099 0.07525989
v 0.1941434 0.14309722 0.0366328
v 0.20463281 0.12996316 -0.00581415
v 0.20779028 0.1167719 -0.05072122
v 0.20314417 0.1040471 -0.0963394
v 0.19039443 0.09228315 -0.14059346
v 0.16948756 0.08191475 -0.18125778
v 0.14074532 0.07328476 -0.21625673
v 0.10497103 0.06663207 -0.24387061
v 0.06353488 0.06209272 -0.26288121
v 0.01832511 0.05973188 -0.27255797
v -0.02716989 -0.06028521 -0.23781767
v -0.02704116 -0.07362825 -0.23398175
v 0.0187569 -0.07344265 -0.23387786
v 0.01869973 -0.06007824 -0.23772648
v 0.06340831 -0.07115732 -0.22424712
v 0.06338316 -0.05768991 -0.22813446
v 0.10475729 -0.06700582 -0.20523241
v 0.10473555 -0.05323135 -0.20926049
v 0.14084215 -0.06120923 -0.17738819
v 0.1408215 -0.0468422 -0.18171468
v 0.17017078 -0.05385238 -0.14179703
v 0.17015811 -0.0386386 -0.14657992
v 0.19196741 -0.04475786 -0.10018846
v 0.19186621 -0.02868773 -0.10545921
v 0.20607633 -0.0336865 -0.05476388
v 0.20564493 -0.01708839 -0.06038852
v 0.21265338 -0.02063146 -0.00787796
v 0.2115623 -0.00409412 -0.01361008
v 0.21182999 -0.00608275 0.03834621
v 0.20982867 0.00979449 0.03270772
v 0.20359994 0.00897877 0.08221349
v 0.20068955 0.02385653 0.07669135
v 0.18800582 0.02343019 0.12240245
v 0.1844581 0.03730524 0.11684414
v 0.1653379 0.03628537 0.15784087
v 0.16162046 0.04941804 0.15200069
v 0.13632819 0.04693274 0.18754473
v 0.13292819 0.05962906 0.18124833
v 0.10206521 0.05499924 0.21067199
v 0.09939239 0.06749784 0.2038708
v 0.06391157 0.0602781 0.22653767
v 0.06224346 0.07269355 0.21933075
v 0.02334641 0.0625969 0.23469719
v 0.0228323 0.07497987 0.22726246
v -0.01809 0.06188647 0.23488685
v -0.01742742 0.07425621 0.22744199
v -0.0588327 0.0581554 0.22705242
v -0.0571018 0.07056722 0.21980366
v -0.09733953 0.05151571 0.21133396
v -0.09478691 0.06409554 0.20443251
v -0.13212904 0.04212002 0.18812707
v -0.12915696 0.05512106 0.18160477
v -0.16195339 0.03029429 0.15803149
v -0.15906238 0.04404347 0.15181711
v -0.18587331 0.01661786 0.12186554
v -0.18355912 0.0313932 0.11581203
v -0.20334972 0.00206003 0.08061489
v -0.20191077 0.01787027 0.07462617
v -0.21403156 -0.01226235 0.03556248
v -0.21347694 0.00424261 0.02966316
v -0.21754682 -0.02537813 -0.01163514
v -0.2176139 -0.00878697 -0.01729674
v -0.21331864 -0.03680896 -0.05892688
v -0.21365797 -0.02073388 -0.06417335
v -0.20071996 -0.04657769 -0.10403662
v -0.20108084 -0.03135715 -0.10878467
v -0.17947107 -0.05492665 -0.14477732
v -0.17976474 -0.04055345 -0.14907658
v -0.14998856 -0.06200945 -0.17929732
v -0.1502437 -0.04823032 -0.18330198
v -0.11350974 -0.06768729 -0.20623579
v -0.11374539 -0.0542155 -0.21010071
v -0.0718373 -0.07166615 -0.22465437
v -0.07203809 -0.05829854 -0.22848856
v -0.02729809 -0.04694909 -0.24164542
v 0.01859297 -0.04673775 -0.24154916
v 0.06322819 -0.04431234 -0.23194006
v 0.10443835 -0.03972279 -0.21307313
v 0.14030516 -0.03307025 -0.18559154
v 0.16937308 -0.02449188 -0.1505995
v 0.19075287 -0.01416739 -0.10968035
v 0.20410707 -0.00235688 -0.06483192
v 0.2094841 0.0105638 -0.01827152
v 0.20714874 0.02409074 0.02781762
v 0.19747367 0.03762599 0.07152101
v 0.18092112 0.05054746 0.11130836
v 0.15808375 0.06225788 0.14602616
v 0.12974612 0.07221978 0.17481556
v 0.09689111 0.07995957 0.19702175
v 0.06066978 0.08509075 0.21216353
v 0.02232621 0.08734566 0.2199088
v -0.01684991 0.08661124 0.22005531
v -0.0555502 0.08294953 0.21254178
v -0.09247989 0.07657785 0.19743958
v -0.1264009 0.06783737 0.17499008
v -0.15620164 0.05715927 0.14563027
v -0.1809192 0.04504741 0.11004474
v -0.19971767 0.032071 0.06923994
v -0.21181303 0.01882705 0.02462032
v -0.21643202 0.00589151 -0.02201731
v -0.21285525 -0.00625073 -0.0685897
v -0.20057334 -0.01723571 -0.11293533
v -0.17950545 -0.02679768 -0.15303221
v -0.15019679 -0.03472843 -0.18714749
v -0.11384139 -0.04083847 -0.21391272
v -0.07218525 -0.04495755 -0.23230701
v -0.0275556 -0.02027062 -0.24931401
v 0.01848175 -0.02006797 -0.24921435
v 0.0631759 -0.0176513 -0.23956903
v 0.10430806 -0.01304508 -0.22064313
v 0.13997568 -0.00632228 -0.19311752
v 0.16876076 0.0023769 -0.15813329
v 0.18980604 0.0128235 -0.11730939
v 0.20277495 0.02468255 -0.07266332
v 0.20772311 0.03752244 -0.02641327
v 0.20494937 0.05084075 0.01927156
v 0.19489999 0.06410162 0.06250903
v 0.17811869 0.07675792 0.10180881
v 0.15527176 0.08826695 0.13606104
v 0.12717492 0.09809711 0.16444614
v 0.09480479 0.10575805 0.18633583
v 0.05926076 0.11084203 0.20125427
v 0.02170685 0.11306977 0.2088693
v -0.01666907 0.11233121 0.20898446
v -0.05465954 0.10868951 0.20155254
v -0.09104809 0.10237714 0.18666282
v -0.12464642 0.09375691 0.16455903
v -0.15435506 0.08327889 0.13565716
v -0.17918773 0.07143876 0.10059413
v -0.19824864 0.05874902 0.06032064
v -0.21068368 0.045729 0.01618447
v -0.21565623 0.03288955 -0.03006322
v -0.21241761 0.02071304 -0.07635957
v -0.2004491 0.00961856 -0.12054407
v -0.17966087 -0.00005254 -0.16057607
v -0.15055823 -0.00804565 -0.19469532
v -0.11429217 -0.01417075 -0.2215012
v -0.07258603 -0.01828144 -0.23994323
v -0.07328689 0.02169044 -0.25145378
v -0.02794838 0.01970558 -0.26087361
v -0.11520822 0.02577865 -0.23293873
v -0.15154479 0.03186893 -0.20605409
v -0.18058157 0.0398184 -0.17186826
v -0.20120634 0.04944169 -0.13182234
v -0.21296893 0.06048107 -0.08772474
v -0.21599577 0.07258972 -0.04165901
v -0.21082477 0.08534722 0.00419922
v -0.19821247 0.09827433 0.04782906
v -0.17900236 0.11087124 0.08755299
v -0.15406592 0.12262727 0.12211063
v -0.12433188 0.13303551 0.15061596
v -0.09081563 0.14160221 0.17245486
v -0.05463881 0.14787751 0.18720319
v -0.01697348 0.15149694 0.19458678
v 0.02101062 0.15223383 0.19448605
v 0.05817865 0.15002352 0.18693545
v 0.09341467 0.14497381 0.17212906
v 0.12560772 0.13735741 0.15042164
v 0.15367905 0.12758329 0.12231317
v 0.17663361 0.11614143 0.0884417
v 0.19362136 0.10356243 0.04961612
v 0.20393113 0.09038695 0.00688695
v 0.20698456 0.07715228 -0.03833742
v 0.20231194 0.0643851 -0.08424645
v 0.1895999 0.05258519 -0.12870961
v 0.16877566 0.0421856 -0.1694892
v 0.14014959 0.03352803 -0.20452153
v 0.10453465 0.02684611 -0.23212534
v 0.06331852 0.02227685 -0.2511155
v 0.01839998 0.01989176 -0.26078796
v -0.02876048 0.09284333 -0.28294181
v -0.07483466 0.09482987 -0.27343583
v -0.1174643 0.09890173 -0.25482159
v -0.15448261 0.10496464 -0.22784525
v -0.18420678 0.11289182 -0.19361284
v -0.20554328 0.12249893 -0.15360361
v -0.21801738 0.13352587 -0.10965958
v -0.22167411 0.14562386 -0.06385518
v -0.21694487 0.15837049 -0.01832272
v -0.20449183 0.17129173 0.02500924
v -0.18511007 0.18388763 0.06454667
v -0.15968357 0.19564765 0.09907862
v -0.12920521 0.20605453 0.12770256
v -0.09477518 0.21461024 0.14974024
v -0.05759343 0.22086092 0.16468277
v -0.01888104 0.22445398 0.17217937
v 0.02015727 0.22516727 0.17205277
v 0.05836311 0.2229391 0.16431561
v 0.09460248 0.21787625 0.14918747
v 0.12774108 0.21024543 0.12708488
v 0.15666677 0.20044758 0.09859797
v 0.18032576 0.18897873 0.06446251
v 0.19779823 0.17637744 0.02556321
v 0.20831416 0.16319569 -0.01701845
v 0.21127148 0.14997151 -0.06191892
v 0.20623284 0.13723135 -0.10741987
v 0.19295728 0.12546466 -0.15149933
v 0.17146848 0.11510428 -0.19198697
v 0.14215338 0.10649064 -0.22683937
v 0.10585685 0.09985815 -0.25435012
v 0.06395627 0.09534373 -0.27329182
v 0.01832607 0.09300337 -0.28291988
v -0.07159657 0.08993552 -0.26319026
v -0.02776854 0.08803121 -0.27226966
v -0.11214982 0.09385232 -0.2453632
v -0.14737699 0.09969863 -0.21947452
v -0.17567879 0.1073551 -0.18655967
v -0.19600398 0.11664384 -0.14803049
v -0.20787555 0.12730711 -0.1056697
v -0.21130652 0.13900235 -0.06150026
v -0.20668485 0.15130943 -0.0175928
v -0.19463662 0.16376802 0.024183
v -0.17594303 0.17588815 0.06228658
v -0.15149718 0.18717458 0.09555068
v -0.12230706 0.19713169 0.12310877
v -0.08947699 0.20529028 0.14431569
v -0.05417105 0.21123045 0.1586968
v -0.01753641 0.21463665 0.16593161
v 0.01933386 0.21531143 0.16586354
v 0.05540717 0.21320554 0.15850511
v 0.08967301 0.2084096 0.14405176
v 0.12110101 0.2011595 0.12287607
v 0.14864319 0.19181838 0.09552374
v 0.17127411 0.18084427 0.06268951
v 0.18806035 0.16874963 0.02522745
v 0.19821 0.15606284 -0.01581229
v 0.20110228 0.14331173 -0.0591095
v 0.19630315 0.1310077 -0.10299876
v 0.18359334 0.11962889 -0.14552542
v 0.16302718 0.10960172 -0.18458265
v 0.13501216 0.10126127 -0.21819081
v 0.10038507 0.09483912 -0.24469891
v 0.06046449 0.09046673 -0.26293689
v 0.01703077 0.0881972 -0.27221322
v -0.02708544 -0.11618575 -0.22621774
v 0.0200061 -0.11571154 -0.22576016
v 0.06564433 -0.11265826 -0.21493324
v 0.10734973 -0.10772267 -0.19421231
v 0.14309847 -0.10156817 -0.16465273
v 0.17156709 -0.09453993 -0.12781089
v 0.19243548 -0.08631984 -0.0858227
v 0.20605863 -0.07628359 -0.04101134
v 0.21298636 -0.06399905 0.00449425
v 0.21340231 -0.04977265 0.04914656
v 0.20697525 -0.03472044 0.09201005
v 0.1932123 -0.02022332 0.13233384
v 0.1718173 -0.00751933 0.1692442
v 0.14311018 0.00277471 0.20141568
v 0.10795644 0.01039083 0.22733196
v 0.06780576 0.01533406 0.24545575
v 0.02449575 0.01756061 0.25466281
v -0.01983465 0.01705354 0.25437647
v -0.06297361 0.01374301 0.24473215
v -0.10289645 0.00759963 0.22646066
v -0.13787375 -0.00144519 0.20077338
v -0.16674265 -0.01316339 0.16898015
v -0.18889859 -0.02695571 0.13231441
v -0.20440852 -0.0415777 0.09168335
v -0.21354831 -0.05563325 0.04791906
v -0.21641178 -0.06799706 0.00200083
v -0.21249564 -0.07837736 -0.04459656
v -0.20084866 -0.08723543 -0.08989584
v -0.18067926 -0.09521814 -0.13168928
v -0.15188592 -0.10263858 -0.16782009
v -0.11543293 -0.10910695 -0.19649842
v -0.07306498 -0.11388617 -0.21628493
v 0.06299964 0.0237822 0.23090478
v 0.02308939 0.02588564 0.23924544
v -0.01773402 0.02536542 0.23912337
v -0.05766964 0.02220737 0.23056969
v -0.09503773 0.01646523 0.21399411
v -0.12836572 0.00820669 0.1901541
v -0.15654595 -0.0023317 0.15999177
v -0.17885626 -0.01466281 0.12453606
v -0.19500035 -0.02789824 0.08479067
v -0.20483797 -0.04101821 0.04185095
v -0.20812305 -0.05315953 -0.002975
v -0.20430071 -0.06395594 -0.04802377
v -0.19264851 -0.07351063 -0.09133759
v -0.1727266 -0.08205437 -0.13088947
v -0.1447549 -0.08963409 -0.16479933
v -0.10980367 -0.09590749 -0.19154128
v -0.06956366 -0.10035529 -0.20993724
v -0.02610186 -0.10247943 -0.21919783
v 0.01838299 -0.10208023 -0.21889054
v 0.06164585 -0.09926983 -0.20899623
v 0.1014836 -0.0944636 -0.189868
v 0.13598705 -0.08810932 -0.16231903
v 0.16378408 -0.08050115 -0.1276254
v 0.18428424 -0.0715781 -0.08758544
v 0.19751961 -0.06111565 -0.04427327
v 0.20380532 -0.04903326 0.00024722
v 0.20333647 -0.03571122 0.0442368
v 0.19605684 -0.02201627 0.08636638
v 0.18184213 -0.00896871 0.12554135
v 0.16074705 0.00253647 0.16071918
v 0.13325125 0.01198795 0.1907517
v 0.10024054 0.01911001 0.21449348
g Group6094
f 661 660 611 612
f 2 1 290 291
f 4 1 2 3
f 662 661 612 613
f 1 5 292 290
f 6 5 1 4
f 663 662 613 614
f 5 7 293 292
f 8 7 5 6
f 664 663 614 615
f 7 9 294 293
f 10 9 7 8
f 665 664 615 616
f 9 11 295 294
f 12 11 9 10
f 666 665 616 617
f 11 13 296 295
f 14 13 11 12
f 667 666 617 618
f 13 15 297 296
f 16 15 13 14
f 668 667 618 619
f 15 17 298 297
f 18 17 15 16
f 669 668 619 620
f 17 19 299 298
f 20 19 17 18
f 670 669 620 621
f 19 21 300 299
f 22 21 19 20
f 671 670 621 622
f 21 23 301 300
f 24 23 21 22
f 672 671 622 623
f 23 25 302 301
f 26 25 23 24
f 673 672 623 624
f 25 27 303 302
f 28 27 25 26
f 674 673 624 625
f 27 29 304 303
f 30 29 27 28
f 643 674 625 626
f 29 31 305 304
f 32 31 29 30
f 644 643 626 627
f 31 33 306 305
f 34 33 31 32
f 645 644 627 628
f 33 35 307 306
f 36 35 33 34
f 646 645 628 629
f 35 37 308 307
f 38 37 35 36
f 647 646 629 630
f 37 39 309 308
f 40 39 37 38
f 648 647 630 631
f 39 41 310 309
f 42 41 39 40
f 649 648 631 632
f 41 43 311 310
f 44 43 41 42
f 650 649 632 633
f 43 45 312 311
f 46 45 43 44
f 651 650 633 634
f 45 47 313 312
f 48 47 45 46
f 652 651 634 635
f 47 49 314 313
f 50 49 47 48
f 653 652 635 636
f 49 51 315 314
f 52 51 49 50
f 654 653 636 637
f 51 53 316 315
f 54 53 51 52
f 655 654 637 638
f 53 55 317 316
f 56 55 53 54
f 656 655 638 639
f 55 57 318 317
f 58 57 55 56
f 657 656 639 640
f 57 59 319 318
f 60 59 57 58
f 658 657 640 641
f 59 61 320 319
f 62 61 59 60
f 659 658 641 642
f 61 63 321 320
f 64 63 61 62
f 660 659 642 611
f 63 2 291 321
f 3 2 63 64
g Group5678
f 323 547 548 322
f 610 580 67 97
f 322 548 549 324
f 609 610 97 96
f 324 549 550 325
f 608 609 96 95
f 325 550 551 326
f 607 608 95 94
f 326 551 552 327
f 606 607 94 93
f 327 552 553 328
f 605 606 93 92
f 328 553 554 329
f 604 605 92 91
f 329 554 555 330
f 603 604 91 90
f 330 555 556 331
f 602 603 90 89
f 331 556 557 332
f 601 602 89 88
f 332 557 558 333
f 600 601 88 87
f 333 558 559 334
f 599 600 87 86
f 334 559 560 335
f 598 599 86 85
f 335 560 561 336
f 597 598 85 84
f 336 561 562 337
f 596 597 84 83
f 337 562 563 338
f 595 596 83 82
f 338 563 564 339
f 594 595 82 81
f 339 564 565 340
f 593 594 81 80
f 340 565 566 341
f 592 593 80 79
f 341 566 567 342
f 591 592 79 78
f 342 567 568 343
f 590 591 78 77
f 343 568 569 344
f 589 590 77 76
f 344 569 570 345
f 588 589 76 75
f 345 570 571 346
f 587 588 75 74
f 346 571 572 347
f 586 587 74 73
f 347 572 573 348
f 585 586 73 72
f 348 573 574 349
f 584 585 72 71
f 349 574 575 350
f 583 584 71 70
f 350 575 576 351
f 582 583 70 69
f 351 576 577 352
f 581 582 69 68
f 352 577 578 353
f 579 581 68 66
f 353 578 547 323
f 580 579 66 67
f 354 353 323
f 258 289 65
f 354 352 353
f 289 288 65
f 354 351 352
f 288 287 65
f 354 350 351
f 287 286 65
f 354 349 350
f 286 285 65
f 354 348 349
f 285 284 65
f 354 347 348
f 284 283 65
f 354 346 347
f 283 282 65
f 354 345 346
f 282 281 65
f 354 344 345
f 281 280 65
f 354 343 344
f 280 279 65
f 354 342 343
f 279 278 65
f 354 341 342
f 278 277 65
f 354 340 341
f 277 276 65
f 354 339 340
f 276 275 65
f 354 338 339
f 275 274 65
f 354 337 338
f 274 273 65
f 354 336 337
f 273 272 65
f 354 335 336
f 272 271 65
f 354 334 335
f 271 270 65
f 354 333 334
f 270 269 65
f 354 332 333
f 269 268 65
f 354 331 332
f 268 267 65
f 354 330 331
f 267 266 65
f 354 329 330
f 266 265 65
f 354 328 329
f 265 264 65
f 354 327 328
f 264 263 65
f 354 326 327
f 263 262 65
f 354 325 326
f 262 261 65
f 354 324 325
f 261 260 65
f 354 322 324
f 260 259 65
f 354 323 322
f 259 258 65
f 578 386 356 547
f 258 259 579 580
f 577 385 386 578
f 259 260 581 579
f 576 384 385 577
f 260 261 582 581
f 575 383 384 576
f 261 262 583 582
f 574 382 383 575
f 262 263 584 583
f 573 381 382 574
f 263 264 585 584
f 572 380 381 573
f 264 265 586 585
f 571 379 380 572
f 265 266 587 586
f 570 378 379 571
f 266 267 588 587
f 569 377 378 570
f 267 268 589 588
f 568 376 377 569
f 268 269 590 589
f 567 375 376 568
f 269 270 591 590
f 566 374 375 567
f 270 271 592 591
f 565 373 374 566
f 271 272 593 592
f 564 372 373 565
f 272 273 594 593
f 563 371 372 564
f 273 274 595 594
f 562 370 371 563
f 274 275 596 595
f 561 369 370 562
f 275 276 597 596
f 560 368 369 561
f 276 277 598 597
f 559 367 368 560
f 277 278 599 598
f 558 366 367 559
f 278 279 600 599
f 557 365 366 558
f 279 280 601 600
f 556 364 365 557
f 280 281 602 601
f 555 363 364 556
f 281 282 603 602
f 554 362 363 555
f 282 283 604 603
f 553 361 362 554
f 283 284 605 604
f 552 360 361 553
f 284 285 606 605
f 551 359 360 552
f 285 286 607 606
f 550 358 359 551
f 286 287 608 607
f 549 357 358 550
f 287 288 609 608
f 548 355 357 549
f 288 289 610 609
f 547 356 355 548
f 289 258 580 610
f 390 389 388 387
f 101 98 99 100
f 392 391 389 390
f 103 101 100 102
f 394 393 391 392
f 105 103 102 104
f 396 395 393 394
f 107 105 104 106
f 398 397 395 396
f 109 107 106 108
f 400 399 397 398
f 111 109 108 110
f 402 401 399 400
f 113 111 110 112
f 404 403 401 402
f 115 113 112 114
f 406 405 403 404
f 117 115 114 116
f 408 407 405 406
f 119 117 116 118
f 410 409 407 408
f 121 119 118 120
f 412 411 409 410
f 123 121 120 122
f 414 413 411 412
f 125 123 122 124
f 416 415 413 414
f 127 125 124 126
f 418 417 415 416
f 129 127 126 128
f 420 419 417 418
f 131 129 128 130
f 422 421 419 420
f 133 131 130 132
f 424 423 421 422
f 135 133 132 134
f 426 425 423 424
f 137 135 134 136
f 428 427 425 426
f 139 137 136 138
f 430 429 427 428
f 141 139 138 140
f 432 431 429 430
f 143 141 140 142
f 434 433 431 432
f 145 143 142 144
f 436 435 433 434
f 147 145 144 146
f 438 437 435 436
f 149 147 146 148
f 440 439 437 438
f 151 149 148 150
f 442 441 439 440
f 153 151 150 152
f 444 443 441 442
f 155 153 152 154
f 446 445 443 444
f 157 155 154 156
f 448 447 445 446
f 159 157 156 158
f 450 449 447 448
f 161 159 158 160
f 387 388 449 450
f 98 161 160 99
f 452 390 387 451
f 163 162 98 101
f 453 392 390 452
f 164 163 101 103
f 454 394 392 453
f 165 164 103 105
f 455 396 394 454
f 166 165 105 107
f 456 398 396 455
f 167 166 107 109
f 457 400 398 456
f 168 167 109 111
f 458 402 400 457
f 169 168 111 113
f 459 404 402 458
f 170 169 113 115
f 460 406 404 459
f 171 170 115 117
f 461 408 406 460
f 172 171 117 119
f 462 410 408 461
f 173 172 119 121
f 463 412 410 462
f 174 173 121 123
f 464 414 412 463
f 175 174 123 125
f 465 416 414 464
f 176 175 125 127
f 466 418 416 465
f 177 176 127 129
f 467 420 418 466
f 178 177 129 131
f 468 422 420 467
f 179 178 131 133
f 469 424 422 468
f 180 179 133 135
f 470 426 424 469
f 181 180 135 137
f 471 428 426 470
f 182 181 137 139
f 472 430 428 471
f 183 182 139 141
f 473 432 430 472
f 184 183 141 143
f 474 434 432 473
f 185 184 143 145
f 475 436 434 474
f 186 185 145 147
f 476 438 436 475
f 187 186 147 149
f 477 440 438 476
f 188 187 149 151
f 478 442 440 477
f 189 188 151 153
f 479 444 442 478
f 190 189 153 155
f 480 446 444 479
f 191 190 155 157
f 481 448 446 480
f 192 191 157 159
f 482 450 448 481
f 193 192 159 161
f 451 387 450 482
f 162 193 161 98
f 484 452 451 483
f 195 194 162 163
f 485 453 452 484
f 196 195 163 164
f 486 454 453 485
f 197 196 164 165
f 487 455 454 486
f 198 197 165 166
f 488 456 455 487
f 199 198 166 167
f 489 457 456 488
f 200 199 167 168
f 490 458 457 489
f 201 200 168 169
f 491 459 458 490
f 202 201 169 170
f 492 460 459 491
f 203 202 170 171
f 493 461 460 492
f 204 203 171 172
f 494 462 461 493
f 205 204 172 173
f 495 463 462 494
f 206 205 173 174
f 496 464 463 495
f 207 206 174 175
f 497 465 464 496
f 208 207 175 176
f 498 466 465 497
f 209 208 176 177
f 499 467 466 498
f 210 209 177 178
f 500 468 467 499
f 211 210 178 179
f 501 469 468 500
f 212 211 179 180
f 502 470 469 501
f 213 212 180 181
f 503 471 470 502
f 214 213 181 182
f 504 472 471 503
f 215 214 182 183
f 505 473 472 504
f 216 215 183 184
f 506 474 473 505
f 217 216 184 185
f 507 475 474 506
f 218 217 185 186
f 508 476 475 507
f 219 218 186 187
f 509 477 476 508
f 220 219 187 188
f 510 478 477 509
f 221 220 188 189
f 511 479 478 510
f 222 221 189 190
f 512 480 479 511
f 223 222 190 191
f 513 481 480 512
f 224 223 191 192
f 514 482 481 513
f 225 224 192 193
f 483 451 482 514
f 194 225 193 162
f 356 516 515 355
f 67 66 226 227
f 355 515 517 357
f 66 68 228 226
f 357 517 518 358
f 68 69 229 228
f 358 518 519 359
f 69 70 230 229
f 359 519 520 360
f 70 71 231 230
f 360 520 521 361
f 71 72 232 231
f 361 521 522 362
f 72 73 233 232
f 362 522 523 363
f 73 74 234 233
f 363 523 524 364
f 74 75 235 234
f 364 524 525 365
f 75 76 236 235
f 365 525 526 366
f 76 77 237 236
f 366 526 527 367
f 77 78 238 237
f 367 527 528 368
f 78 79 239 238
f 368 528 529 369
f 79 80 240 239
f 369 529 530 370
f 80 81 241 240
f 370 530 531 371
f 81 82 242 241
f 371 531 532 372
f 82 83 243 242
f 372 532 533 373
f 83 84 244 243
f 373 533 534 374
f 84 85 245 244
f 374 534 535 375
f 85 86 246 245
f 375 535 536 376
f 86 87 247 246
f 376 536 537 377
f 87 88 248 247
f 377 537 538 378
f 88 89 249 248
f 378 538 539 379
f 89 90 250 249
f 379 539 540 380
f 90 91 251 250
f 380 540 541 381
f 91 92 252 251
f 381 541 542 382
f 92 93 253 252
f 382 542 543 383
f 93 94 254 253
f 383 543 544 384
f 94 95 255 254
f 384 544 545 385
f 95 96 256 255
f 385 545 546 386
f 96 97 257 256
f 386 546 516 356
f 97 67 227 257
f 516 483 514 515
f 227 226 225 194
f 515 514 513 517
f 226 228 224 225
f 517 513 512 518
f 228 229 223 224
f 518 512 511 519
f 229 230 222 223
f 519 511 510 520
f 230 231 221 222
f 520 510 509 521
f 231 232 220 221
f 521 509 508 522
f 232 233 219 220
f 522 508 507 523
f 233 234 218 219
f 523 507 506 524
f 234 235 217 218
f 524 506 505 525
f 235 236 216 217
f 525 505 504 526
f 236 237 215 216
f 526 504 503 527
f 237 238 214 215
f 527 503 502 528
f 238 239 213 214
f 528 502 501 529
f 239 240 212 213
f 529 501 500 530
f 240 241 211 212
f 530 500 499 531
f 241 242 210 211
f 531 499 498 532
f 242 243 209 210
f 532 498 497 533
f 243 244 208 209
f 533 497 496 534
f 244 245 207 208
f 534 496 495 535
f 245 246 206 207
f 535 495 494 536
f 246 247 205 206
f 536 494 493 537
f 247 248 204 205
f 537 493 492 538
f 248 249 203 204
f 538 492 491 539
f 249 250 202 203
f 539 491 490 540
f 250 251 201 202
f 540 490 489 541
f 251 252 200 201
f 541 489 488 542
f 252 253 199 200
f 542 488 487 543
f 253 254 198 199
f 543 487 486 544
f 254 255 197 198
f 544 486 485 545
f 255 256 196 197
f 545 485 484 546
f 256 257 195 196
f 546 484 483 516
f 257 227 194 195
g Group32745
f 32 417 419 34
f 34 419 421 36
f 36 421 423 38
f 38 423 425 40
f 40 425 427 42
f 42 427 429 44
f 44 429 431 46
f 46 431 433 48
f 48 433 435 50
f 50 435 437 52
f 52 437 439 54
f 54 439 441 56
f 56 441 443 58
f 58 443 445 60
f 60 445 447 62
f 62 447 449 64
f 64 449 388 3
f 3 388 389 4
f 4 389 391 6
f 6 391 393 8
f 8 393 395 10
f 10 395 397 12
f 12 397 399 14
f 14 399 401 16
f 16 401 403 18
f 18 403 405 20
f 20 405 407 22
f 22 407 409 24
f 411 26 24 409
f 413 28 26 411
f 415 30 28 413
f 417 32 30 415
f 128 643 644 130
f 130 644 645 132
f 132 645 646 134
f 134 646 647 136
f 136 647 648 138
f 138 648 649 140
f 140 649 650 142
f 674 126 124 673
f 673 124 122 672
f 672 122 120 671
f 671 120 118 670
f 670 118 116 669
f 669 116 114 668
f 668 114 112 667
f 667 112 110 666
f 666 110 108 665
f 665 108 106 664
f 664 106 104 663
f 663 104 102 662
f 662 102 100 661
f 661 100 99 660
f 660 99 160 659
f 659 160 158 658
f 658 158 156 657
f 657 156 154 656
f 656 154 152 655
f 655 152 150 654
f 654 150 148 653
f 653 148 146 652
f 652 146 144 651
f 651 144 142 650
f 126 674 643 128
g Group6094
f 612 611 291 290
f 613 612 290 292
f 614 613 292 293
f 615 614 293 294
f 616 615 294 295
f 617 616 295 296
f 618 617 296 297
f 619 618 297 298
f 620 619 298 299
f 621 620 299 300
f 622 621 300 301
f 623 622 301 302
f 624 623 302 303
f 625 624 303 304
f 626 625 304 305
f 627 626 305 306
f 628 627 306 307
f 629 628 307 308
f 630 629 308 309
f 631 630 309 310
f 632 631 310 311
f 633 632 311 312
f 634 633 312 313
f 635 634 313 314
f 636 635 314 315
f 637 636 315 316
f 638 637 316 317
f 639 638 317 318
f 640 639 318 319
f 641 640 319 320
f 642 641 320 321
f 611 642 321 291

 