# File exported by ZBrush version 2021
# www.zbrush.com
#Vertex Count 1506
#Face Count 1536
#Auto scale x=1.000000 y=1.000000 z=1.000000
#Auto offset x=0.000000 y=0.000000 z=0.000000
v 0.00146722 0.42186361 0.00402458
v -0.03877496 0.39269176 -0.37127104
v -0.10108611 0.37495502 -0.38006722
v -0.15895636 0.36439308 -0.36757433
v -0.20968633 0.36572206 -0.32897067
v -0.25139462 0.37829414 -0.26647874
v -0.28495836 0.39465233 -0.18948955
v -0.31445038 0.40512645 -0.10812123
v -0.34424361 0.40131643 -0.03111631
v -0.37481349 0.38365012 0.04040567
v -0.39688745 0.36042553 0.1064568
v -0.39732733 0.34346324 0.16786494
v -0.36527779 0.34156292 0.22322094
v -0.29928174 0.35392588 0.27179262
v -0.20722982 0.36948788 0.3153153
v -0.10411961 0.37732115 0.35341227
v -0.00370003 0.37122565 0.3842068
v 0.08144377 0.36168018 0.39810845
v 0.14903688 0.35890099 0.38880762
v 0.20196072 0.3669404 0.35440412
v 0.24942334 0.37787193 0.30192244
v 0.29740309 0.38169977 0.24034406
v 0.34435603 0.37554913 0.17715229
v 0.37989476 0.3674514 0.11280935
v 0.39420804 0.36544409 0.04765519
v 0.38258212 0.37443047 -0.01889828
v 0.34932535 0.39107924 -0.08447957
v 0.303339 0.40860134 -0.14638583
v 0.25210595 0.42171213 -0.20210354
v 0.19984294 0.42808309 -0.24945725
v 0.14503569 0.42856326 -0.28868803
v 0.08691284 0.42286217 -0.32128331
v 0.02488042 0.41046989 -0.34945324
v -0.0409954 0.24294383 -0.35294705
v -0.10269731 0.23172277 -0.35375973
v -0.16023404 0.22490273 -0.33670914
v -0.21107505 0.22565034 -0.2988688
v -0.2532919 0.23344785 -0.24227397
v -0.28663483 0.24346619 -0.17384836
v -0.31302452 0.24959391 -0.10089999
v -0.33492678 0.24722096 -0.02890709
v -0.35260206 0.23647061 0.04036451
v -0.36144816 0.22182849 0.10604915
v -0.35299485 0.21092906 0.16756984
v -0.32004571 0.20968343 0.22302129
v -0.26218459 0.2179051 0.27098366
v -0.18540948 0.2282042 0.31193909
v -0.10055641 0.23297143 0.34526628
v -0.0162271 0.2289723 0.36937707
v 0.05962958 0.22239704 0.37855133
v 0.12390063 0.22068674 0.36812096
v 0.17761419 0.22625589 0.33716756
v 0.22525402 0.23409628 0.29043448
v 0.27046808 0.23717464 0.23464547
v 0.31150654 0.23417072 0.17449025
v 0.34220433 0.22929036 0.1114005
v 0.35565134 0.2280727 0.04615708
v 0.34882646 0.23338021 -0.02046228
v 0.32440531 0.24309036 -0.08593554
v 0.28793624 0.25308373 -0.14761862
v 0.24387624 0.26049533 -0.20307919
v 0.19506919 0.2641119 -0.25019583
v 0.14155437 0.26438838 -0.28827115
v 0.08364291 0.26107606 -0.31778571
v 0.02201834 0.25373375 -0.33972007
v -0.02014653 0.08980802 -0.25109925
v -0.0611071 0.084753 -0.24819518
v -0.09929693 0.08169572 -0.23370505
v -0.13306522 0.08201645 -0.20656296
v -0.1610599 0.0855313 -0.16794276
v -0.18259446 0.09024234 -0.12131832
v -0.19817827 0.0932048 -0.07089687
v -0.20935533 0.09206207 -0.01973748
v -0.21643975 0.08685302 0.030653
v -0.21751618 0.07993512 0.07945423
v -0.20850567 0.07496848 0.12542331
v -0.18644845 0.07451006 0.16683818
v -0.15152354 0.07858456 0.2022908
v -0.10658729 0.08391376 0.23148541
v -0.05691022 0.08623244 0.25417107
v -0.00712583 0.08417911 0.26920938
v 0.03873697 0.08059343 0.27386534
v 0.07883131 0.07969058 0.26565963
v 0.11340116 0.08240629 0.24446605
v 0.14407074 0.08631375 0.21250484
v 0.1728461 0.08761253 0.17349693
v 0.19872339 0.0857604 0.12999138
v 0.21849721 0.0828013 0.08334607
v 0.22831155 0.08180686 0.03434304
v 0.22665791 0.08386541 -0.01557746
v 0.21436624 0.08810284 -0.06433443
v 0.19390901 0.09258872 -0.10992245
v 0.16751194 0.09591107 -0.15057778
v 0.13659407 0.09762478 -0.18484786
v 0.10148867 0.09814534 -0.21191243
v 0.06284683 0.09730823 -0.23179414
v 0.02175774 0.09447483 -0.24503512
v -0.01931188 0.04819885 -0.24178917
v -0.06016661 0.04725137 -0.23393853
v -0.09835513 0.04643126 -0.21683803
v -0.13227734 0.04620002 -0.1905051
v -0.16052429 0.04650209 -0.15590179
v -0.18197476 0.04686652 -0.11481092
v -0.1958694 0.04693382 -0.06917042
v -0.202139 0.04657798 -0.02063151
v -0.20115806 0.0457676 0.02910319
v -0.19330608 0.04463219 0.07816938
v -0.17822234 0.04379868 0.12453182
v -0.155505 0.04399061 0.16629441
v -0.12579679 0.04528513 0.20181396
v -0.09088717 0.04685205 0.22988167
v -0.05288576 0.04755468 0.24974538
v -0.01332562 0.04713013 0.26081034
v 0.02626034 0.0462511 0.26235085
v 0.06417595 0.04603594 0.25363385
v 0.09908039 0.04669304 0.23476226
v 0.13033109 0.04762077 0.20670941
v 0.15778136 0.04785974 0.17104499
v 0.18071906 0.04727955 0.12915454
v 0.19793884 0.04631436 0.08254169
v 0.20796956 0.04566295 0.03296461
v 0.20990867 0.04554162 -0.0174335
v 0.20345145 0.04583931 -0.06646543
v 0.18883203 0.04629566 -0.11210653
v 0.16650694 0.04683545 -0.15262375
v 0.13732045 0.04744206 -0.18662902
v 0.10251981 0.04808006 -0.21306496
v 0.06370056 0.04858772 -0.23122021
v 0.02253268 0.04868641 -0.24082638
v -0.01968709 -0.0182015 -0.24141763
v -0.06065945 -0.01846899 -0.23264543
v -0.0989234 -0.01896863 -0.21508207
v -0.13286885 -0.01963182 -0.18919773
v -0.16103994 -0.02036645 -0.15574826
v -0.18225804 -0.02106651 -0.11579211
v -0.19573892 -0.02162851 -0.07071496
v -0.2011595 -0.02196358 -0.02221173
v -0.19863489 -0.02202122 0.02776974
v -0.18861447 -0.02179809 0.07714147
v -0.17175827 -0.02133662 0.12381928
v -0.1488358 -0.02071301 0.16586995
v -0.1207042 -0.02001533 0.20163184
v -0.08833799 -0.0193236 0.22978796
v -0.05287654 -0.01869606 0.24937787
v -0.01562464 -0.01816959 0.25977632
v 0.02201672 -0.01776941 0.26065862
v 0.05868546 -0.01752207 0.25196269
v 0.09318468 -0.01745813 0.23388826
v 0.12453314 -0.01761107 0.20693105
v 0.15192078 -0.01798967 0.1719401
v 0.17458495 -0.01856228 0.13017146
v 0.19169442 -0.0192423 0.08329717
v 0.20231832 -0.01989775 0.03334375
v 0.20553155 -0.02038701 -0.01745434
v 0.20061098 -0.02059852 -0.0668459
v 0.18726767 -0.02049092 -0.11275543
v 0.16578961 -0.02010274 -0.15342284
v 0.13706411 -0.0195424 -0.18746544
v 0.10245474 -0.01895265 -0.21386465
v 0.06361657 -0.01847224 -0.23191615
v 0.0223139 -0.01820425 -0.24117285
v -0.01962316 -0.0513512 -0.24162285
v -0.0606144 -0.0516302 -0.23288017
v -0.09888081 -0.05214539 -0.21534265
v -0.13280341 -0.05282695 -0.18947963
v -0.16092434 -0.05358057 -0.15603917
v -0.18207091 -0.05429798 -0.11607904
v -0.19547149 -0.0548721 -0.07098516
v -0.20081403 -0.05521393 -0.02245626
v -0.19822451 -0.05527149 0.02755861
v -0.18816021 -0.05504199 0.07696883
v -0.17128823 -0.05456661 0.12368709
v -0.14838655 -0.05392425 0.16577877
v -0.12032092 -0.05320463 0.20158326
v -0.08807303 -0.05248847 0.22978253
v -0.05278107 -0.0518363 0.24941933
v -0.01574253 -0.051287 0.25986993
v 0.02166031 -0.05086649 0.26080822
v 0.05808972 -0.05060343 0.25216794
v 0.09237454 -0.05052855 0.23414608
v 0.12355347 -0.05067414 0.20723123
v 0.15083241 -0.05104889 0.17226781
v 0.1734558 -0.05162033 0.13050864
v 0.19059492 -0.05230188 0.08362291
v 0.20131583 -0.05296245 0.03363604
v 0.20468393 -0.05345969 -0.01721641
v 0.19995816 -0.05368365 -0.06667851
v 0.18682502 -0.05358932 -0.11266633
v 0.16554397 -0.05321544 -0.15340979
v 0.13697747 -0.05266567 -0.18751868
v 0.10247431 -0.05208398 -0.21396851
v 0.06368783 -0.05160917 -0.23205862
v 0.02239358 -0.05134646 -0.24134846
v -0.03357197 0.43545135 -0.33884918
v -0.08989886 0.41866305 -0.34773924
v -0.14219504 0.408551 -0.33716967
v -0.18797406 0.40985727 -0.30219298
v -0.2255482 0.42187988 -0.24494887
v -0.25622391 0.43703734 -0.17459826
v -0.28387346 0.44672775 -0.09990942
v -0.31215634 0.44307136 -0.02944281
v -0.34143388 0.42659962 0.0359336
v -0.36269685 0.40491572 0.09580374
v -0.3642894 0.38879868 0.15123
v -0.33544692 0.38701173 0.2011934
v -0.2743985 0.39854836 0.24535873
v -0.18918344 0.4126459 0.28536763
v -0.09378772 0.42000725 0.32042112
v -0.00073549 0.41438779 0.34912791
v 0.07755611 0.40606173 0.3620269
v 0.13982577 0.40331664 0.35392299
v 0.18804626 0.41040954 0.32248458
v 0.23176066 0.41983148 0.27463102
v 0.27552589 0.4234015 0.21808354
v 0.31851068 0.41763854 0.16050499
v 0.35081073 0.41045841 0.10178742
v 0.36384192 0.40859708 0.04289812
v 0.35267615 0.41723817 -0.01718319
v 0.32155126 0.43314951 -0.07640336
v 0.2787404 0.45000118 -0.13231785
v 0.23097834 0.46305656 -0.18265737
v 0.18281251 0.46959433 -0.22544567
v 0.13265721 0.47018432 -0.26133579
v 0.08006754 0.46449381 -0.29149484
v 0.02398098 0.45240652 -0.31803894
v -0.00437272 0.42412877 -0.05311959
v 0.00521851 0.4269548 -0.04965098
v -0.01021265 0.4263941 -0.11026433
v 0.00896981 0.43204602 -0.10332713
v -0.01605258 0.42865914 -0.16740849
v 0.01272165 0.437137 -0.15700286
v -0.0218925 0.43092328 -0.22455366
v 0.01647326 0.44222754 -0.21067948
v -0.02773232 0.43318849 -0.28169935
v 0.02022581 0.44731769 -0.26435697
v 0.01456539 0.42896944 -0.0452261
v 0.02766356 0.43607589 -0.09447734
v 0.04076182 0.44318226 -0.14372816
v 0.05386054 0.45028749 -0.19298017
v 0.06696091 0.45739278 -0.24223434
v 0.02332875 0.42991879 -0.04019834
v 0.04519069 0.43797385 -0.08442185
v 0.06705246 0.44602873 -0.1286454
v 0.08891517 0.45408308 -0.17286965
v 0.1107814 0.46213629 -0.2170978
v 0.03168683 0.42982149 -0.0342153
v 0.06190636 0.43777892 -0.07245526
v 0.09212641 0.44573602 -0.11069598
v 0.12234772 0.45369252 -0.14893773
v 0.15257386 0.46164703 -0.18718451
v 0.03971362 0.42873215 -0.02708222
v 0.07795956 0.43560069 -0.05818966
v 0.11620662 0.44246989 -0.08929746
v 0.15445481 0.44933682 -0.12040727
v 0.19270938 0.4562011 -0.15152363
v 0.04767323 0.42655694 -0.01869139
v 0.09387948 0.43124997 -0.04140798
v 0.14008623 0.43594294 -0.06412511
v 0.18629494 0.44063568 -0.08684392
v 0.23250991 0.4453234 -0.10957089
v 0.05480902 0.42374861 -0.00937238
v 0.1081511 0.42563375 -0.02276943
v 0.16149357 0.42751848 -0.03616704
v 0.2148381 0.42940169 -0.04956706
v 0.26818764 0.43128114 -0.06297497
v 0.0599983 0.42109686 0.00049701
v 0.11852931 0.4203298 -0.00303063
v 0.177061 0.41956245 -0.00655878
v 0.23559345 0.41879412 -0.01008919
v 0.29413077 0.41802156 -0.01362684
v 0.0618614 0.41965562 0.0105093
v 0.12225595 0.41744834 0.01699394
v 0.18264988 0.41523999 0.02347818
v 0.24304539 0.41303151 0.02996056
v 0.30344256 0.41081866 0.03643654
v 0.05969173 0.41996556 0.02032242
v 0.11791661 0.41806739 0.03662021
v 0.17614144 0.41616883 0.0529177
v 0.23436647 0.41426959 0.06921388
v 0.2925907 0.4123677 0.08550542
v 0.05431053 0.42116147 0.03010686
v 0.1071539 0.42045909 0.0561891
v 0.15999683 0.41975659 0.08227115
v 0.2128396 0.41905367 0.10835249
v 0.2656801 0.41834822 0.13443151
v 0.04714754 0.42212113 0.03970187
v 0.09282747 0.42237886 0.07537915
v 0.13850738 0.42263627 0.11105636
v 0.18418692 0.42289292 0.14673319
v 0.22986237 0.42314931 0.18240922
v 0.03985336 0.42152541 0.04912589
v 0.07823891 0.42118752 0.09422666
v 0.11662513 0.42084923 0.13932789
v 0.15501019 0.42051073 0.1844286
v 0.19339108 0.42017257 0.22952924
v 0.03256702 0.41995489 0.0571011
v 0.0636667 0.41804629 0.11017706
v 0.0947659 0.41613727 0.16325354
v 0.12586498 0.41422885 0.21632956
v 0.1569603 0.41231957 0.26940602
v 0.0245293 0.41877245 0.06234046
v 0.04759084 0.41568142 0.1206564
v 0.07065234 0.41259062 0.17897228
v 0.09371393 0.40949985 0.23728832
v 0.11677294 0.40640837 0.29560464
v 0.01414973 0.41923022 0.06369131
v 0.02683223 0.41659653 0.12335807
v 0.03951467 0.41396302 0.18302427
v 0.05219639 0.41132953 0.24269115
v 0.06487776 0.4086959 0.3023585
v 0.00109995 0.42061775 0.06154165
v 0.00073267 0.41937199 0.11905871
v 0.00036493 0.41812682 0.17657531
v -0.00000219 0.41688105 0.23409241
v -0.00036946 0.41563466 0.29161003
v -0.01441018 0.42155444 0.05675743
v -0.03028711 0.42124569 0.10948972
v -0.04616458 0.42093697 0.16222252
v -0.06204162 0.42062783 0.21495483
v -0.07791695 0.42031824 0.267688
v -0.03031034 0.4203279 0.05091509
v -0.06208861 0.41879224 0.09780563
v -0.093866 0.41725674 0.14469616
v -0.12564314 0.41572082 0.19158677
v -0.15741747 0.41418448 0.23847673
v -0.04451389 0.41797864 0.04424746
v -0.09049549 0.41409373 0.08446972
v -0.13647666 0.41020932 0.12469212
v -0.1824565 0.40632408 0.16491487
v -0.22843284 0.40243759 0.20513716
v -0.05468966 0.41605663 0.03688707
v -0.11084637 0.41024914 0.069749
v -0.16700272 0.40444177 0.10261096
v -0.2231581 0.39863434 0.13547281
v -0.27930828 0.39282465 0.16833399
v -0.05949644 0.41635459 0.0285601
v -0.12046025 0.41084572 0.05309559
v -0.18142402 0.40533623 0.07763108
v -0.2423861 0.39982691 0.1021657
v -0.30334425 0.394315 0.12669961
v -0.05923037 0.41904103 0.01932335
v -0.11992809 0.4162184 0.0346216
v -0.18062575 0.41339546 0.04992028
v -0.2413219 0.41057196 0.06521786
v -0.30201488 0.40774682 0.08051406
v -0.05568535 0.4226548 0.00934571
v -0.11283824 0.42344602 0.01466682
v -0.16999051 0.42423772 0.01998726
v -0.22714275 0.42502838 0.02530749
v -0.28429171 0.42581671 0.03062438
v -0.05080458 0.42540043 -0.00154981
v -0.10307575 0.42893707 -0.00712424
v -0.15534736 0.43247357 -0.01269883
v -0.20761874 0.43600949 -0.01827434
v -0.259889 0.43954366 -0.02385332
v -0.04608917 0.42600947 -0.01329396
v -0.09364598 0.43015545 -0.03061253
v -0.14120227 0.43430146 -0.0479313
v -0.18875923 0.43844604 -0.06525103
v -0.23631587 0.44258958 -0.08257512
v -0.04147988 0.42439401 -0.02574221
v -0.08442746 0.4269244 -0.05550907
v -0.12737444 0.42945513 -0.08527606
v -0.17032246 0.43198505 -0.1150445
v -0.21327121 0.43451327 -0.14481611
v -0.03636702 0.42186778 -0.0374674
v -0.07420152 0.4218716 -0.07895997
v -0.11203566 0.4218755 -0.12045265
v -0.14987042 0.42187911 -0.16194619
v -0.18770691 0.42188093 -0.20344305
v -0.03010452 0.41986328 -0.04700883
v -0.061677 0.41786336 -0.09804283
v -0.09324926 0.41586309 -0.14907689
v -0.1248213 0.41386264 -0.20011167
v -0.15639568 0.41186085 -0.25114831
v -0.02247506 0.41964572 -0.05283922
v -0.04641799 0.41742706 -0.10970306
v -0.07036098 0.41520893 -0.16656704
v -0.09430348 0.41299068 -0.22343196
v -0.11824769 0.4107716 -0.2802979
v -0.01375959 0.42133095 -0.05460139
v -0.02898691 0.42079794 -0.1132274
v -0.04421376 0.42026507 -0.17185351
v -0.05944145 0.41973152 -0.23047977
v -0.07466947 0.41919815 -0.28910759
v -0.06080083 0.07224578 -0.2434633
v -0.01986097 0.07593017 -0.24801591
v -0.06048998 0.05974263 -0.23871791
v -0.01958298 0.06205866 -0.24491831
v -0.09900269 0.06993238 -0.22811108
v -0.09869269 0.05817447 -0.22249616
v -0.13283167 0.0700645 -0.20125027
v -0.13257335 0.05812243 -0.19590748
v -0.16091394 0.07250303 -0.16398152
v -0.16074007 0.05948842 -0.15997879
v -0.18241563 0.07575919 -0.11921124
v -0.18221236 0.06129499 -0.1170534
v -0.19742249 0.07775105 -0.07038667
v -0.1966535 0.06232149 -0.06982276
v -0.20694145 0.07686662 -0.02009722
v -0.20453429 0.06169932 -0.02040561
v -0.21131222 0.0731227 0.03008472
v -0.2062136 0.05942123 0.029559
v -0.20939 0.0681333 0.07898744
v -0.20131403 0.05636031 0.07855247
v -0.19834159 0.06454809 0.12510141
v -0.18823982 0.05415366 0.12479957
v -0.17606177 0.06431178 0.16664354
v -0.16573995 0.05413509 0.1664596
v -0.14288261 0.06746594 0.20212596
v -0.13430146 0.05636313 0.20196589
v -0.10130256 0.07154645 0.23094964
v -0.09606501 0.05919114 0.23041422
v -0.05553391 0.07333148 0.25269597
v -0.05419105 0.06043789 0.25122129
v -0.00917422 0.07182455 0.2664105
v -0.01124363 0.05947395 0.2636123
v 0.03457948 0.06914211 0.27002754
v 0.03041441 0.05769452 0.26619175
v 0.07393218 0.06846778 0.26165023
v 0.06903629 0.05724888 0.25764459
v 0.10860087 0.0704937 0.24122677
v 0.10381244 0.05858847 0.2379951
v 0.13945813 0.07340111 0.21055844
v 0.13486006 0.06050202 0.20862987
v 0.16779649 0.07433632 0.1726479
v 0.16275565 0.06108318 0.17183254
v 0.19271275 0.07289524 0.12965571
v 0.18669274 0.06006559 0.12937742
v 0.21166677 0.07058707 0.0829919
v 0.20479823 0.0584209 0.08272165
v 0.2215919 0.06969469 0.0337684
v 0.21479968 0.05764212 0.03330441
v 0.2211721 0.07101891 -0.01633289
v 0.21558268 0.05823883 -0.01695908
v 0.21084986 0.07394121 -0.06519077
v 0.20721036 0.05984757 -0.06591077
v 0.19234636 0.07708852 -0.1107917
v 0.19065731 0.06165165 -0.11152977
v 0.16729778 0.07949335 -0.15138284
v 0.16696849 0.0631295 -0.15207533
v 0.13693556 0.08085115 -0.18553869
v 0.13718509 0.06411892 -0.18614213
v 0.10190545 0.08142443 -0.21236583
v 0.1022555 0.06473197 -0.21275866
v 0.0631784 0.08104691 -0.23164781
v 0.06346789 0.06480395 -0.23146373
v 0.02204134 0.07919926 -0.24366022
v 0.02230156 0.0639344 -0.24226316
v -0.09226333 0.19501267 -0.32727804
v -0.03577754 0.20468974 -0.32740593
v -0.08185688 0.1582784 -0.30086422
v -0.03056219 0.16641329 -0.30192458
v -0.07147391 0.12152275 -0.27451029
v -0.02535127 0.12811665 -0.27649509
v -0.14494071 0.18914158 -0.31084531
v -0.12969297 0.15335004 -0.28506696
v -0.114484 0.11753169 -0.25936266
v -0.19150306 0.18979544 -0.27565214
v -0.17198719 0.15389993 -0.25254368
v -0.15251462 0.11796902 -0.22952584
v -0.23017171 0.19653721 -0.22352695
v -0.20710267 0.15957406 -0.20490811
v -0.18407268 0.12256603 -0.18639414
v -0.26058724 0.20524299 -0.16053707
v -0.23457244 0.16695535 -0.14736582
v -0.20857997 0.12861436 -0.13431009
v -0.28431621 0.21059049 -0.09321921
v -0.25560757 0.17151396 -0.08568047
v -0.22689664 0.13237659 -0.07825733
v -0.30358728 0.20853088 -0.02644794
v -0.27220657 0.16976216 -0.02412133
v -0.24079155 0.13092975 -0.02190044
v -0.31866377 0.19916562 0.03807735
v -0.28464269 0.16178177 0.03567897
v -0.25055748 0.12433435 0.03319066
v -0.32560628 0.18644754 0.09950824
v -0.28964752 0.15099246 0.09288267
v -0.25360196 0.11547904 0.08618783
v -0.3170332 0.17701882 0.15710693
v -0.2809374 0.14304406 0.14658708
v -0.24474357 0.10901941 0.13601917
v -0.28680458 0.17595484 0.20901891
v -0.25343072 0.14217369 0.19498337
v -0.21995972 0.10835236 0.18091943
v -0.23465369 0.18312378 0.25382968
v -0.20700861 0.14830285 0.23666116
v -0.17928229 0.11345127 0.21948051
v -0.16579581 0.19216518 0.2918263
v -0.14610229 0.15609872 0.2717134
v -0.12635412 0.12001163 0.25159981
v -0.08967956 0.1963081 0.32247838
v -0.0787686 0.15962728 0.29970133
v -0.06783819 0.12293272 0.27693316
v -0.01391823 0.19278585 0.34430718
v -0.01162806 0.15658929 0.31925809
v -0.00936299 0.12038589 0.29422727
v 0.05451666 0.18695226 0.35233768
v 0.04932581 0.15150205 0.32615482
v 0.04406075 0.11604835 0.29999974
v 0.112823 0.18544195 0.3424505
v 0.10160724 0.15019343 0.31681945
v 0.09026502 0.11494171 0.29122567
v 0.16182455 0.19030082 0.31392833
v 0.14584106 0.15433886 0.29073408
v 0.12968236 0.11837243 0.26758229
v 0.20527844 0.19716651 0.27088946
v 0.18506677 0.16022174 0.25138577
v 0.16464354 0.1232682 0.23192572
v 0.24640999 0.19981315 0.21931001
v 0.22209855 0.16242493 0.20400178
v 0.19755519 0.1250199 0.18872873
v 0.28364831 0.19711414 0.16334703
v 0.255548 0.16001561 0.15220339
v 0.22722145 0.12289068 0.14107815
v 0.31156715 0.19273357 0.10441119
v 0.28073027 0.15611738 0.09738274
v 0.24969491 0.11946306 0.09034864
v 0.32402735 0.19158925 0.0432761
v 0.29226961 0.15503083 0.04031474
v 0.26036149 0.11842422 0.03731813
v 0.31840285 0.19609792 -0.01912335
v 0.28791898 0.15872936 -0.01790241
v 0.25734466 0.12130406 -0.01674421
v 0.29692402 0.20444615 -0.08038353
v 0.26945266 0.16571076 -0.07497608
v 0.24194777 0.12691494 -0.06965317
v 0.26438704 0.21306106 -0.13802683
v 0.24089933 0.17294956 -0.12858903
v 0.21742588 0.13277798 -0.11924753
v 0.22469918 0.21944065 -0.18978862
v 0.20561243 0.17830693 -0.17664508
v 0.18656976 0.13711801 -0.16359886
v 0.18035078 0.22256696 -0.23371121
v 0.16572648 0.1809566 -0.21735428
v 0.1511584 0.13929982 -0.20108604
v 0.13144873 0.22288815 -0.26905942
v 0.12142311 0.18133744 -0.24995014
v 0.11144976 0.13974942 -0.2309156
v 0.07838062 0.2201797 -0.2961899
v 0.07317405 0.17924623 -0.27467373
v 0.06800496 0.13828429 -0.25321868
v 0.02192379 0.21395351 -0.31596681
v 0.02185588 0.17414635 -0.2922776
v 0.02180487 0.1343169 -0.26864087
v -0.10160621 0.32722488 -0.3712584
v -0.03951526 0.34278917 -0.36512762
v -0.10214151 0.27948263 -0.36248368
v -0.04025561 0.29287514 -0.35901522
v -0.15935222 0.31791433 -0.35723409
v -0.15977452 0.27141994 -0.34693908
v -0.2101114 0.31905603 -0.31886977
v -0.21057006 0.27236875 -0.30882686
v -0.25199031 0.33004483 -0.25832849
v -0.25261825 0.28176721 -0.2502498
v -0.28549155 0.34429815 -0.184184
v -0.28604808 0.29390761 -0.17895855
v -0.31397229 0.35333037 -0.10562032
v -0.31349661 0.301492 -0.10320143
v -0.34116488 0.35000333 -0.03029284
v -0.33806291 0.29864433 -0.02954574
v -0.36746823 0.33464291 0.04046492
v -0.36007097 0.28558987 0.04045984
v -0.38515892 0.31427639 0.10637512
v -0.37335488 0.26808345 0.10624643
v -0.38264843 0.29932904 0.16780178
v -0.36788216 0.25515639 0.16770845
v -0.35029897 0.29763886 0.22317405
v -0.33523294 0.2536835 0.22310979
v -0.28700166 0.30861291 0.27153044
v -0.27464476 0.26327601 0.27126234
v -0.20001845 0.3224121 0.31418922
v -0.19275161 0.27531978 0.31306386
v -0.10296385 0.32921645 0.35069102
v -0.10177883 0.28110125 0.34797418
v -0.00787369 0.32381445 0.37925243
v -0.01204771 0.27639797 0.37430754
v 0.07421083 0.31525567 0.39157295
v 0.06694583 0.26882901 0.38505166
v 0.14073343 0.31283304 0.38189172
v 0.1323657 0.26676216 0.37499293
v 0.19395354 0.32005196 0.34863734
v 0.18585339 0.27315753 0.34288767
v 0.24149863 0.32995939 0.29807663
v 0.23346085 0.28203553 0.29424443
v 0.28856283 0.33354726 0.23844234
v 0.27960535 0.28537419 0.23654116
v 0.33353081 0.32845839 0.17628681
v 0.32259994 0.28133595 0.17539988
v 0.36742109 0.3214477 0.11239332
v 0.35487404 0.27539902 0.11192695
v 0.38139736 0.3197169 0.04724244
v 0.36855575 0.27393233 0.04674997
v 0.37131977 0.32748603 -0.01930495
v 0.36007258 0.28047621 -0.01981671
v 0.34096422 0.34182488 -0.08483404
v 0.33265671 0.29250282 -0.08530723
v 0.29812246 0.35683405 -0.14666384
v 0.29298329 0.30500179 -0.1470626
v 0.2492723 0.36803576 -0.20230783
v 0.24652101 0.31430333 -0.20262116
v 0.19816827 0.37347587 -0.24960383
v 0.19656938 0.31882405 -0.24983967
v 0.14380992 0.37387487 -0.28847351
v 0.14264322 0.31915399 -0.28832659
v 0.08577995 0.36895829 -0.32006362
v 0.08468575 0.31503298 -0.31889095
v 0.02390595 0.35824209 -0.34616899
v 0.02294974 0.3059982 -0.3429194
v -0.01949442 0.02594824 -0.24197751
v 0.02251495 0.02626523 -0.2412413
v -0.01959255 0.00386852 -0.24171099
v 0.02241838 0.00402458 -0.24122093
v 0.06382638 0.02608119 -0.23178133
v 0.06373038 0.00379745 -0.23186405
v 0.10270749 0.02553973 -0.21371616
v 0.10259427 0.00328356 -0.2138092
v 0.13742713 0.02486987 -0.18734738
v 0.13725996 0.00265116 -0.18742963
v 0.1663436 0.0242371 -0.15335568
v 0.16607807 0.00205279 -0.15341502
v 0.18816101 0.02372404 -0.11276333
v 0.18771767 0.00160012 -0.112785
v 0.20203518 0.02338376 -0.066947
v 0.20131345 0.00137612 -0.06691914
v 0.20760762 0.02328081 -0.01765696
v 0.20654438 0.00143151 -0.0175727
v 0.20488084 0.02357072 0.03304216
v 0.20355871 0.00182347 0.03318364
v 0.19436658 0.02428202 0.08291132
v 0.1929762 0.00250944 0.08310271
v 0.17702694 0.02521219 0.12974625
v 0.17574475 0.00331794 0.12996469
v 0.1541803 0.02584238 0.17167988
v 0.15298833 0.00392186 0.17181997
v 0.12689887 0.02584718 0.20714531
v 0.12566003 0.00411569 0.2070503
v 0.09587989 0.02530042 0.23480863
v 0.09448672 0.00391999 0.23436011
v 0.06144326 0.02484458 0.25335767
v 0.06003173 0.00366052 0.25266963
v 0.02429701 0.02489334 0.26199743
v 0.02313785 0.0035609 0.26133465
v -0.01430267 0.02531971 0.26060614
v -0.01496995 0.00357362 0.26019531
v -0.05279487 0.02538891 0.24969761
v -0.05283039 0.00334319 0.2495398
v -0.08970445 0.02466194 0.22985985
v -0.08900675 0.00266363 0.22982353
v -0.12358562 0.02332865 0.20168748
v -0.12212356 0.00164859 0.20165599
v -0.15266263 0.02217089 0.16599266
v -0.15072354 0.00071786 0.16592364
v -0.17542558 0.02177578 0.12401889
v -0.17356564 0.00020552 0.12390578
v -0.19116143 0.02212918 0.0774231
v -0.18986481 0.00014978 0.0772629
v -0.19987006 0.02278299 0.02813024
v -0.19923545 0.00036299 0.02792494
v -0.20154596 0.02333724 -0.02178689
v -0.20134373 0.00066894 -0.02202939
v -0.19575133 0.02370609 -0.07037172
v -0.19574414 0.00102146 -0.07057569
v -0.18216058 0.02388913 -0.11582858
v -0.18221545 0.00139645 -0.11584322
v -0.16090039 0.02393375 -0.15649443
v -0.16098091 0.00177135 -0.15615107
v -0.13272415 0.02403513 -0.19062809
v -0.13280868 0.00219209 -0.18993884
v -0.09877497 0.02446225 -0.21671138
v -0.09886013 0.00273915 -0.21591731
v -0.06049092 0.02521185 -0.23387688
v -0.06058221 0.00336569 -0.23327717
v -0.08667516 0.40526625 -0.34104943
v -0.03122677 0.42163336 -0.33173385
v -0.04063962 0.38910552 -0.35653603
v -0.0997679 0.37152642 -0.36492183
v -0.13866901 0.39538505 -0.33088612
v -0.1532399 0.3609085 -0.35359218
v -0.1843751 0.39662024 -0.29609122
v -0.20041525 0.36194342 -0.31790745
v -0.22163546 0.40842708 -0.23916789
v -0.24035942 0.3741635 -0.25819575
v -0.25165706 0.42336329 -0.16974669
v -0.27320021 0.39032298 -0.18296828
v -0.27849039 0.43282198 -0.09683109
v -0.30235192 0.40081787 -0.10247819
v -0.30606186 0.42902544 -0.02878109
v -0.33182904 0.39722773 -0.02581355
v -0.33504957 0.41272082 0.03413345
v -0.36170193 0.37990471 0.04493233
v -0.35662561 0.39159989 0.09225428
v -0.38251838 0.35706064 0.10792253
v -0.35872417 0.37592056 0.14705477
v -0.38318631 0.34025442 0.16270192
v -0.33021208 0.37406358 0.19679251
v -0.35488182 0.33812904 0.21245178
v -0.26972433 0.38534531 0.24033118
v -0.29222378 0.3500761 0.25896835
v -0.18560682 0.39933207 0.27943429
v -0.20202358 0.36539959 0.30182185
v -0.09180256 0.40665596 0.31369701
v -0.10018654 0.37317392 0.33951193
v -0.00039386 0.40109294 0.34199565
v -0.00124691 0.36717015 0.36980673
v 0.07670842 0.39288532 0.35486131
v 0.0813044 0.35785889 0.38315543
v 0.13816103 0.39025187 0.34683215
v 0.1446595 0.35535347 0.37422353
v 0.18544848 0.39725953 0.31570279
v 0.19379927 0.36359709 0.34197941
v 0.22787281 0.40649893 0.26876351
v 0.23954236 0.37454018 0.29137098
v 0.27037137 0.40997916 0.2136514
v 0.28681609 0.37838584 0.23074039
v 0.31247276 0.40427133 0.15752114
v 0.3328053 0.37238648 0.16869919
v 0.34431713 0.39722138 0.09997098
v 0.36666542 0.36455264 0.10714835
v 0.35711804 0.39537957 0.04192091
v 0.37982305 0.36266374 0.04710076
v 0.34580519 0.4037441 -0.0174367
v 0.36913964 0.37147089 -0.01429401
v 0.3147346 0.41924914 -0.07566553
v 0.33755201 0.38775661 -0.07688437
v 0.27236306 0.43576842 -0.13034027
v 0.29291555 0.40494704 -0.13722561
v 0.22548988 0.44857558 -0.17927672
v 0.24285543 0.41782677 -0.19181239
v 0.1786447 0.45496615 -0.22065247
v 0.19190703 0.42407214 -0.23803201
v 0.13014766 0.45555043 -0.25533923
v 0.13860867 0.42453056 -0.27619198
v 0.07933762 0.45002013 -0.28467944
v 0.08190834 0.41890433 -0.30796024
v 0.02492687 0.43820524 -0.31084901
v 0.02120055 0.40667289 -0.33543878
v 0.02092463 -0.05137936 -0.22715763
v -0.01829917 -0.05137085 -0.22740329
v -0.01832786 -0.03481968 -0.22736275
v 0.02089557 -0.03483275 -0.22713233
v 0.05953531 -0.05165314 -0.21853353
v 0.05951103 -0.03510867 -0.21851889
v 0.09588871 -0.05213543 -0.20166973
v 0.0958795 -0.03559057 -0.20166128
v 0.12830781 -0.05272192 -0.17689934
v 0.1283278 -0.03617456 -0.17689704
v 0.15519379 -0.0532719 -0.1448085
v 0.15526114 -0.03672278 -0.14481543
v 0.17521823 -0.05364593 -0.10632386
v 0.17535159 -0.03709498 -0.10634592
v 0.18752001 -0.05373849 -0.0627565
v 0.18773372 -0.03718816 -0.06280133
v 0.19183267 -0.05351382 -0.01581517
v 0.19213101 -0.03696616 -0.01588691
v 0.18846437 -0.05301493 0.03246875
v 0.18883632 -0.03647209 0.03237067
v 0.17815698 -0.05235174 0.07989247
v 0.17857651 -0.03581408 0.07977362
v 0.16185496 -0.05166593 0.12428307
v 0.16228526 -0.03513284 0.12415424
v 0.1405038 -0.05108705 0.1636956
v 0.14090542 -0.0345562 0.16357137
v 0.11493817 -0.05070274 0.19656311
v 0.11527749 -0.03417135 0.1964554
v 0.08589085 -0.05054595 0.22175359
v 0.08614557 -0.03401196 0.22167006
v 0.05408763 -0.05060735 0.23854932
v 0.05425059 -0.0340688 0.23849347
v 0.02036894 -0.05085722 0.24656486
v 0.02044277 -0.03431283 0.24653378
v -0.01425601 -0.05126527 0.24565434
v -0.01426168 -0.03471341 0.24564343
v -0.0486196 -0.05180262 0.23586857
v -0.04869276 -0.03524262 0.23587204
v -0.0814858 -0.05244336 0.21745868
v -0.08161426 -0.03587364 0.21747553
v -0.11165472 -0.05314927 0.1909424
v -0.111826 -0.03656735 0.19097122
v -0.1380395 -0.05386037 0.15716175
v -0.13823911 -0.03726492 0.15720635
v -0.15967288 -0.05449477 0.11733569
v -0.15988352 -0.03788734 0.11740016
v -0.1756875 -0.05496582 0.07304315
v -0.17589072 -0.03834866 0.07313033
v -0.18530136 -0.05519396 0.02615531
v -0.18548026 -0.03857243 0.02626508
v -0.18785049 -0.05513963 -0.02129339
v -0.18799303 -0.03851746 -0.02116615
v -0.18289035 -0.05480492 -0.06726432
v -0.1829929 -0.03818809 -0.06712748
v -0.17031374 -0.0542415 -0.10986904
v -0.17038114 -0.03763429 -0.10973247
v -0.15044862 -0.0535377 -0.14748719
v -0.15048986 -0.03694254 -0.14736177
v -0.12406721 -0.05279929 -0.17883427
v -0.12409445 -0.03621721 -0.17872709
v -0.09230994 -0.05213369 -0.20297347
v -0.09233324 -0.03556353 -0.20289023
v -0.05655648 -0.05163488 -0.21928474
v -0.05658173 -0.03507522 -0.21922414
v -0.01836514 -0.01813189 -0.22727036
v 0.02085608 -0.0182136 -0.2270659
v 0.05947977 -0.01851696 -0.21846574
v 0.09587112 -0.01899709 -0.20161575
v 0.1283672 -0.01956909 -0.1768594
v 0.15538233 -0.02010374 -0.14479491
v 0.17558988 -0.02045552 -0.10635025
v 0.18811164 -0.0205142 -0.06284005
v 0.19265212 -0.0202516 -0.01597415
v 0.18948422 -0.01973858 0.03222561
v 0.17931354 -0.01910595 0.07957841
v 0.16305159 -0.01846923 0.12393929
v 0.14162944 -0.01790275 0.16336824
v 0.11589435 -0.01745845 0.19628256
v 0.08662454 -0.01720632 0.22152587
v 0.0545927 -0.01722688 0.23837651
v 0.02065034 -0.01753215 0.24645181
v -0.01419501 -0.01803539 0.24560152
v -0.04876759 -0.01861373 0.23585881
v -0.08180844 -0.01918187 0.21747539
v -0.11210048 -0.01971909 0.19098684
v -0.13854642 -0.02026215 0.15726439
v -0.1601917 -0.020845 0.1175247
v -0.17618234 -0.02140306 0.07331729
v -0.18573762 -0.02177651 0.02648679
v -0.18819391 -0.02183253 -0.02093293
v -0.18312463 -0.02154715 -0.06689439
v -0.17044583 -0.02097892 -0.1095091
v -0.15050354 -0.02022965 -0.14715722
v -0.12408313 -0.01943313 -0.17854392
v -0.0923298 -0.01875033 -0.20273084
v -0.05660178 -0.01830387 -0.21909578
v 0.00868348 0.41410845 -0.05074047
v -0.00058736 0.4113813 -0.05415703
v 0.00184339 0.40832799 0.00296004
v 0.01243478 0.41919982 -0.10441602
v -0.00642731 0.41364672 -0.11130178
v 0.01618661 0.42429065 -0.15809162
v -0.01226721 0.41591167 -0.16844596
v 0.01993822 0.4293811 -0.21176831
v -0.01810714 0.41817638 -0.22559098
v 0.02369076 0.4344716 -0.26544579
v -0.02394687 0.42044106 -0.28273662
v 0.01713289 0.41591417 -0.04653909
v 0.03023106 0.42302066 -0.09579033
v 0.04332927 0.43012654 -0.14504118
v 0.056428 0.43723234 -0.19429311
v 0.06952837 0.44433733 -0.24354727
v 0.02490155 0.4167459 -0.04198213
v 0.04676301 0.42480099 -0.08620562
v 0.06862471 0.43285539 -0.13042917
v 0.09048743 0.4409098 -0.17465335
v 0.11235335 0.44896331 -0.21888126
v 0.03241103 0.4166612 -0.03662959
v 0.06263056 0.42461863 -0.07486956
v 0.09285052 0.43257647 -0.11311035
v 0.1230719 0.44053268 -0.15135188
v 0.15329769 0.44848746 -0.18959821
v 0.03978469 0.41569048 -0.03023853
v 0.07803059 0.42256009 -0.0613465
v 0.11627759 0.42942851 -0.09245433
v 0.15452583 0.43629542 -0.12356394
v 0.19277992 0.44316047 -0.15467973
v 0.04736126 0.41367319 -0.02246954
v 0.09356749 0.41836637 -0.04518613
v 0.13977424 0.42305988 -0.06790321
v 0.18598273 0.42775166 -0.09062179
v 0.23219738 0.43244001 -0.11334817
v 0.05443194 0.41088828 -0.01322685
v 0.10777398 0.41277319 -0.0266239
v 0.16111642 0.41465798 -0.04002145
v 0.21446077 0.41654154 -0.05342125
v 0.26781043 0.41842111 -0.06682849
v 0.05969081 0.40799477 -0.00241412
v 0.11822176 0.40722727 -0.00594176
v 0.17675338 0.40646019 -0.00946986
v 0.2352861 0.40569236 -0.01300008
v 0.29382327 0.40492057 -0.01653719
v 0.06147878 0.40627151 0.00962876
v 0.1218733 0.40406397 0.01611341
v 0.18226738 0.401856 0.02259768
v 0.24266301 0.39964699 0.0290802
v 0.30306059 0.39743515 0.03555654
v 0.05908312 0.4066295 0.02117698
v 0.11730796 0.40473136 0.03747478
v 0.17553283 0.40283289 0.0537723
v 0.23375788 0.40093365 0.07006853
v 0.29198303 0.3990322 0.08636024
v 0.05366029 0.407857 0.03128398
v 0.10650373 0.40715476 0.05736621
v 0.15934674 0.40645223 0.08344826
v 0.21218982 0.40574893 0.10952962
v 0.26503118 0.40504428 0.13560864
v 0.04707546 0.40872716 0.03992216
v 0.09275529 0.40898501 0.07559943
v 0.13843537 0.40924188 0.11127656
v 0.1841152 0.40949934 0.14695338
v 0.22979156 0.4097552 0.18262979
v 0.04073988 0.40821015 0.04810624
v 0.07912551 0.40787169 0.09320697
v 0.11751168 0.40753343 0.13830831
v 0.15589708 0.40719544 0.18340888
v 0.19427904 0.40685665 0.22850941
v 0.03379523 0.40671372 0.05569665
v 0.06489439 0.40480524 0.10877262
v 0.09599369 0.40289685 0.16184969
v 0.12709282 0.40098804 0.21492564
v 0.15818889 0.39907872 0.26800167
v 0.02478455 0.40540242 0.06141607
v 0.04784653 0.40231129 0.11973202
v 0.07090804 0.39922061 0.17804788
v 0.09396968 0.39612919 0.23636396
v 0.11702927 0.39303839 0.29468008
v 0.01320091 0.40590161 0.06326755
v 0.02588341 0.40326792 0.1229343
v 0.03856587 0.40063414 0.18260049
v 0.05124765 0.39800077 0.24226729
v 0.06392924 0.39536675 0.30193439
v 0.00011905 0.40729016 0.06120715
v -0.00024822 0.40604487 0.11872427
v -0.00061596 0.40479919 0.17624084
v -0.00098308 0.4035533 0.23375791
v -0.00135035 0.40230724 0.29127538
v -0.01429815 0.40816217 0.05670927
v -0.0301751 0.40785366 0.10944152
v -0.04605256 0.40754401 0.16217428
v -0.06192954 0.40723544 0.21490664
v -0.07780507 0.40692576 0.26763984
v -0.02900514 0.4070307 0.05148499
v -0.06078342 0.40549513 0.09837551
v -0.09256078 0.40395936 0.14526607
v -0.12433805 0.40242371 0.19215673
v -0.1561128 0.40088722 0.23904675
v -0.0427777 0.40476262 0.04518697
v -0.08875929 0.40087765 0.08540926
v -0.13474048 0.39699336 0.12563163
v -0.18072053 0.39310833 0.16585448
v -0.22669762 0.38922154 0.20607672
v -0.05341309 0.40271109 0.03683782
v -0.10956976 0.39690369 0.06969977
v -0.16572623 0.3910959 0.10256166
v -0.22188179 0.38528844 0.1354236
v -0.27803257 0.37947958 0.16828499
v -0.05926883 0.40313202 0.02587626
v -0.12023267 0.39762282 0.05041123
v -0.18119645 0.39211353 0.07494669
v -0.24215847 0.38660398 0.09948139
v -0.30311724 0.3810929 0.1240157
v -0.0596806 0.40644794 0.01454452
v -0.12037836 0.40362513 0.02984275
v -0.18107609 0.40080279 0.04514143
v -0.24177244 0.39797928 0.06043921
v -0.30246552 0.39515411 0.07573587
v -0.05620922 0.41001039 0.00471137
v -0.11336202 0.41080176 0.01003249
v -0.17051427 0.41159346 0.01535296
v -0.22766645 0.41238397 0.02067337
v -0.28481572 0.41317296 0.0259909
v -0.05141971 0.41219985 -0.00410539
v -0.10369084 0.4157356 -0.00967981
v -0.15596236 0.41927227 -0.01525436
v -0.20823387 0.42280867 -0.02082965
v -0.26050409 0.4263426 -0.02640787
v -0.04720972 0.41263949 -0.0132209
v -0.09476665 0.41678547 -0.03053946
v -0.14232288 0.42093107 -0.04785818
v -0.1898797 0.42507639 -0.06517772
v -0.23743632 0.42921996 -0.08250092
v -0.04320425 0.41123706 -0.024019
v -0.08615186 0.41376751 -0.05378583
v -0.12909884 0.41629836 -0.08355273
v -0.1720466 0.41882824 -0.11332104
v -0.21499508 0.42135688 -0.14309193
v -0.03818172 0.40876376 -0.03548011
v -0.07601617 0.40876716 -0.07697271
v -0.11385034 0.408771 -0.11846534
v -0.15168511 0.40877494 -0.15995869
v -0.18952123 0.40877693 -0.20145484
v -0.03093382 0.40653213 -0.04580033
v -0.06250628 0.40453249 -0.0968343
v -0.09407856 0.40253174 -0.14786836
v -0.12565068 0.40053156 -0.19890299
v -0.15722456 0.39853012 -0.24993918
v -0.02130951 0.40627008 -0.05283814
v -0.04525239 0.40405124 -0.10970204
v -0.06919542 0.40183308 -0.16656597
v -0.09313794 0.39961499 -0.22343081
v -0.11708191 0.39739602 -0.28029659
v -0.01073938 0.40833044 -0.05541051
v -0.02596667 0.40779736 -0.1140365
v -0.04119355 0.40726465 -0.17266252
v -0.05642115 0.40673112 -0.23128888
v -0.07164915 0.40619745 -0.28991639
v -0.02109015 0.09495272 -0.2378329
v -0.0200607 0.07894903 -0.2342211
v -0.05824719 0.07685392 -0.2304202
v -0.05928144 0.09108576 -0.23562024
v -0.01921658 0.06506378 -0.23118613
v -0.05749312 0.06429696 -0.22586745
v -0.01844437 0.04977195 -0.22779752
v -0.05657876 0.049714 -0.22052489
v -0.093287 0.07514969 -0.21659079
v -0.0941066 0.08868966 -0.22268202
v -0.09288359 0.06332967 -0.21114261
v -0.09200606 0.04925369 -0.20474797
v -0.12416664 0.0744567 -0.19168241
v -0.12477378 0.08874019 -0.19770734
v -0.12408388 0.06251703 -0.1863067
v -0.12349353 0.04856884 -0.18031768
v -0.15016369 0.07527704 -0.15647542
v -0.15059068 0.09145338 -0.1612188
v -0.15017744 0.06229689 -0.15229611
v -0.14990912 0.04794908 -0.14788171
v -0.17051181 0.07723965 -0.11362082
v -0.17092749 0.09552608 -0.1162605
v -0.17036558 0.06276704 -0.1113782
v -0.17010183 0.04754628 -0.10902836
v -0.18495298 0.07899545 -0.06641985
v -0.1861103 0.09842566 -0.06691634
v -0.18410387 0.06351753 -0.06609189
v -0.18318593 0.04743645 -0.06562961
v -0.19429165 0.07922172 -0.01748724
v -0.19750109 0.09791676 -0.01646073
v -0.19172871 0.06400892 -0.01847952
v -0.18901754 0.04768094 -0.01927761
v -0.19905893 0.07783159 0.03130675
v -0.20527443 0.09396574 0.03298416
v -0.19383554 0.06408951 0.02973833
v -0.18795415 0.04821691 0.02830425
v -0.19836659 0.07545989 0.07820984
v -0.20733794 0.08853375 0.07977657
v -0.19027346 0.06358498 0.07678526
v -0.18047814 0.04871672 0.07501777
v -0.18887282 0.07320365 0.12131542
v -0.19951634 0.08440171 0.12226376
v -0.17878632 0.0626664 0.12057033
v -0.16636715 0.04885984 0.1186446
v -0.1678387 0.07219509 0.15913641
v -0.17888651 0.08329225 0.1595923
v -0.1573757 0.0620188 0.15912443
v -0.14515525 0.0486379 0.15760128
v -0.13587018 0.07291758 0.19143936
v -0.14541289 0.08565491 0.19192223
v -0.12693494 0.06197744 0.19161328
v -0.11730852 0.04845424 0.19086687
v -0.0956827 0.07463866 0.21850247
v -0.1016433 0.08949616 0.2194094
v -0.0901386 0.06238019 0.21813617
v -0.08446671 0.04857092 0.21743741
v -0.05147456 0.07543396 0.23939138
v -0.05303011 0.0911761 0.24130721
v -0.05011223 0.06255063 0.23793771
v -0.04874207 0.04866356 0.23631365
v -0.00709387 0.07448085 0.25266283
v -0.00479507 0.08936289 0.25604823
v -0.00944027 0.06216909 0.24986065
v -0.01178377 0.04861177 0.24679639
v 0.03383272 0.0733384 0.25645303
v 0.0383779 0.08667505 0.26090875
v 0.02934012 0.0619314 0.2527104
v 0.02478159 0.04865595 0.24831898
v 0.06968499 0.07377562 0.24925829
v 0.07483463 0.08650016 0.25388434
v 0.0647091 0.06252194 0.24529598
v 0.0594413 0.04906131 0.24037964
v 0.1012717 0.07552369 0.23051084
v 0.10630177 0.08907491 0.23454394
v 0.09655262 0.06357529 0.22710293
v 0.09142262 0.04952501 0.22296008
v 0.13022333 0.07751301 0.20127558
v 0.13530303 0.09251154 0.20393356
v 0.12554362 0.06459745 0.19917985
v 0.12050556 0.04988348 0.19666107
v 0.1575163 0.07814764 0.1646167
v 0.1633529 0.09373509 0.16580702
v 0.1521624 0.06490428 0.1638911
v 0.14641782 0.04991584 0.1628548
v 0.18172207 0.07740443 0.12327953
v 0.18874454 0.09236015 0.12364208
v 0.17529434 0.0646067 0.1233207
v 0.16820384 0.04972322 0.12304732
v 0.2001481 0.07617836 0.07911722
v 0.20797528 0.09012401 0.07942895
v 0.19296047 0.06401591 0.07912502
v 0.18462669 0.0493669 0.07888867
v 0.20971311 0.07562542 0.03306654
v 0.21735255 0.08937563 0.03380495
v 0.20269884 0.06354695 0.03252949
v 0.19431217 0.04889433 0.03205029
v 0.20908923 0.07599593 -0.013892
v 0.21555848 0.09080215 -0.01273084
v 0.20324853 0.06321881 -0.01494561
v 0.19639724 0.04821356 -0.01564913
v 0.19894465 0.07714851 -0.06013855
v 0.20341557 0.09387644 -0.05880518
v 0.19498726 0.06308043 -0.06137878
v 0.19055289 0.04752057 -0.06223065
v 0.18112331 0.07863345 -0.10369242
v 0.18339358 0.09723566 -0.10240681
v 0.17913991 0.06320259 -0.10481773
v 0.1769535 0.04706503 -0.10564958
v 0.15720127 0.07999757 -0.14250345
v 0.15781509 0.09975925 -0.14141701
v 0.15668658 0.06361668 -0.14339925
v 0.15603309 0.04703786 -0.14408792
v 0.12838791 0.08091609 -0.17495814
v 0.12820415 0.10103564 -0.17413383
v 0.12857464 0.0641578 -0.17564131
v 0.12863484 0.04740528 -0.17618167
v 0.09528013 0.08147545 -0.20028266
v 0.09483053 0.10142729 -0.19984656
v 0.09568119 0.06475779 -0.20068641
v 0.09596755 0.04803185 -0.2009975
v 0.0586225 0.08150523 -0.21847993
v 0.0580256 0.10079046 -0.21883721
v 0.05912621 0.06524319 -0.21825465
v 0.05951428 0.04875474 -0.21797332
v 0.01957318 0.0806467 -0.22989065
v 0.01874831 0.09857538 -0.23168644
v 0.02026187 0.06537369 -0.22845591
v 0.02082845 0.04939265 -0.2269224
v -0.04308375 0.24734757 -0.33931753
v -0.03782691 0.21155993 -0.31537771
v -0.09174878 0.20271031 -0.31550887
v -0.10190486 0.23692829 -0.34014016
v -0.03237206 0.17332434 -0.28989386
v -0.08108323 0.16601496 -0.28915751
v -0.02686539 0.13507194 -0.26447439
v -0.07038732 0.12929827 -0.26289734
v -0.14086732 0.19762441 -0.30049926
v -0.15529879 0.23070146 -0.32424044
v -0.1254622 0.16183291 -0.27482506
v -0.11006932 0.12600798 -0.2492623
v -0.1842765 0.19845248 -0.26792258
v -0.20233215 0.23134218 -0.28904745
v -0.16473069 0.16254529 -0.24485233
v -0.14522859 0.12659478 -0.22189679
v -0.22118826 0.20496533 -0.21826826
v -0.24234528 0.23864865 -0.23517255
v -0.19812654 0.16800326 -0.19962592
v -0.1751109 0.13098888 -0.18110197
v -0.25096032 0.2135227 -0.15667066
v -0.27476513 0.2483382 -0.16843958
v -0.22493512 0.17523859 -0.14350645
v -0.19893291 0.13689301 -0.13047842
v -0.27464929 0.21891053 -0.08961448
v -0.30095163 0.25446808 -0.09609799
v -0.24590523 0.17984359 -0.08218853
v -0.21715019 0.14070764 -0.07491985
v -0.29415905 0.21699573 -0.02251293
v -0.32304328 0.25240862 -0.02412923
v -0.26272144 0.1782671 -0.02043624
v -0.23123537 0.13946865 -0.01853339
v -0.30947029 0.20793484 0.04187407
v -0.34094801 0.24230393 0.04463487
v -0.27539613 0.17062869 0.03911873
v -0.24124515 0.13325472 0.03618823
v -0.31650117 0.195928 0.10139925
v -0.34974914 0.22871007 0.10783245
v -0.28055143 0.16052639 0.09443389
v -0.24450738 0.12505827 0.08732724
v -0.30852207 0.18716056 0.15463364
v -0.34187722 0.2186006 0.16393111
v -0.27247497 0.15316124 0.14402838
v -0.23631742 0.11910036 0.1333535
v -0.28019705 0.18546254 0.2017461
v -0.31153887 0.21652472 0.21382416
v -0.24674384 0.15170595 0.18787549
v -0.2131603 0.11790507 0.17400822
v -0.22999876 0.19141182 0.24384892
v -0.25629326 0.22335511 0.25903326
v -0.20219306 0.156662 0.22684145
v -0.17425246 0.12188869 0.20986288
v -0.16215062 0.19975116 0.2808175
v -0.18090786 0.23285968 0.29898515
v -0.14232747 0.16372494 0.26079097
v -0.12240484 0.12768289 0.24079023
v -0.08647603 0.20362754 0.31110736
v -0.09682487 0.23734886 0.3319253
v -0.07551267 0.16695705 0.28835988
v -0.06451257 0.1302725 0.26563203
v -0.01152646 0.200116 0.3326781
v -0.01362248 0.23345959 0.35576108
v -0.00926948 0.16392332 0.30762773
v -0.00705349 0.12772417 0.28259912
v 0.05468304 0.19464166 0.34056603
v 0.05969847 0.22739529 0.36477306
v 0.04940861 0.15919968 0.31439068
v 0.04402099 0.12375477 0.28825125
v 0.10934284 0.19356508 0.33155602
v 0.1199051 0.226272 0.35524511
v 0.09808094 0.15830911 0.3059479
v 0.08665481 0.12304823 0.28039234
v 0.15530079 0.19836349 0.3050284
v 0.17017824 0.23186363 0.32652214
v 0.1393181 0.16239935 0.28183034
v 0.12312369 0.1264304 0.25868463
v 0.19753354 0.2051129 0.26330158
v 0.21631537 0.23953448 0.28131595
v 0.17730535 0.1681678 0.24381917
v 0.15681766 0.1312133 0.22439783
v 0.23841363 0.20784041 0.21217775
v 0.26105877 0.24264793 0.22614833
v 0.21404504 0.17046007 0.19696757
v 0.1893855 0.13306246 0.18182538
v 0.27531853 0.20540681 0.1570432
v 0.3015542 0.23997801 0.16703417
v 0.2471493 0.16832664 0.1460586
v 0.2186944 0.13121962 0.13513486
v 0.30245545 0.20149414 0.10035187
v 0.33119824 0.2356825 0.1065623
v 0.27159681 0.16488193 0.09345436
v 0.240493 0.12822715 0.08658221
v 0.31428554 0.20057003 0.04302014
v 0.34383636 0.23473326 0.04577902
v 0.28255158 0.16399489 0.0400064
v 0.25063407 0.12736517 0.03695022
v 0.30886083 0.20460641 -0.01550065
v 0.33738392 0.23946179 -0.01629941
v 0.2783401 0.16725941 -0.01453628
v 0.24769741 0.12985026 -0.01368298
v 0.28798267 0.21221815 -0.07414974
v 0.31384477 0.24825471 -0.07879407
v 0.2603892 0.17353314 -0.06905778
v 0.23272651 0.13478538 -0.06412065
v 0.25601175 0.22021165 -0.13022956
v 0.27818846 0.2574734 -0.13871601
v 0.2323594 0.18014311 -0.12107806
v 0.20868392 0.14001169 -0.1120952
v 0.21692474 0.2261139 -0.18085955
v 0.23498167 0.26433935 -0.19291202
v 0.19767276 0.18500235 -0.16793978
v 0.17843037 0.14383065 -0.15517696
v 0.17343334 0.2289011 -0.22372312
v 0.18729524 0.26762753 -0.23887455
v 0.15868073 0.18729484 -0.20750939
v 0.14395904 0.14563643 -0.1914249
v 0.12566027 0.22903832 -0.25813731
v 0.13515727 0.26777553 -0.2759509
v 0.11558212 0.18748305 -0.23908978
v 0.10554661 0.14588432 -0.22013811
v 0.07372787 0.2263371 -0.28465166
v 0.07859021 0.26455339 -0.30479899
v 0.06856937 0.1854017 -0.26313924
v 0.06346115 0.14443355 -0.24169622
v 0.01837518 0.22033064 -0.30409187
v 0.01824549 0.25754386 -0.32634577
v 0.01845951 0.18053986 -0.28038191
v 0.01859849 0.14072696 -0.25672876
v -0.04215906 0.34435126 -0.35124343
v -0.10118846 0.3294664 -0.35705763
v -0.04236321 0.29443994 -0.34502023
v -0.1012595 0.28171065 -0.34832119
v -0.15428076 0.32033458 -0.34404796
v -0.15456841 0.27382078 -0.3338553
v -0.20099814 0.32086291 -0.30862474
v -0.2015721 0.27419588 -0.29847791
v -0.24084912 0.3310323 -0.25096035
v -0.24159097 0.28279095 -0.24265904
v -0.27360269 0.34479558 -0.17845012
v -0.27419436 0.29442367 -0.17310334
v -0.3019137 0.35381522 -0.10036303
v -0.30137586 0.30198079 -0.09809548
v -0.32920894 0.3509854 -0.02482395
v -0.32591521 0.29964205 -0.02460624
v -0.35552319 0.33660033 0.0456902
v -0.34784862 0.28759607 0.04483537
v -0.37264266 0.31755414 0.10906043
v -0.36072796 0.2713918 0.10799515
v -0.37019133 0.30345308 0.16410403
v -0.35564199 0.25921872 0.16358326
v -0.341102 0.30081421 0.21324992
v -0.32600572 0.25687518 0.2132973
v -0.28087726 0.31043976 0.25907358
v -0.26833099 0.26515996 0.25893297
v -0.19538834 0.32350248 0.30094024
v -0.18799561 0.2764351 0.29987081
v -0.09916023 0.33007761 0.33711674
v -0.09797772 0.28196942 0.33439818
v -0.00519612 0.32488554 0.36534848
v -0.00949508 0.27748438 0.36037242
v 0.07434587 0.31696718 0.37732514
v 0.06694612 0.27055952 0.37080913
v 0.13648575 0.31530049 0.36838179
v 0.1282126 0.26921182 0.36148843
v 0.18601033 0.32265982 0.33759725
v 0.17814391 0.27574476 0.33165571
v 0.23207955 0.33233356 0.28863149
v 0.22418882 0.28439983 0.28463444
v 0.2787638 0.33586439 0.22947539
v 0.26979225 0.28770074 0.22761529
v 0.32315212 0.33112558 0.16820897
v 0.31211099 0.28403356 0.16753573
v 0.3556931 0.32478091 0.10703752
v 0.34311339 0.2787466 0.10676512
v 0.36862614 0.32336023 0.0469783
v 0.35584941 0.27756601 0.04633778
v 0.35930943 0.33046063 -0.01441634
v 0.34794127 0.28348669 -0.01540938
v 0.33025908 0.34376719 -0.07695248
v 0.32167813 0.29450094 -0.07790641
v 0.28841036 0.35793942 -0.13725519
v 0.28300336 0.3061428 -0.13799203
v 0.24044032 0.36860653 -0.19186888
v 0.23751211 0.31488907 -0.192357
v 0.19041205 0.37378531 -0.23816548
v 0.18875062 0.31913703 -0.23844595
v 0.13733941 0.37414607 -0.27611649
v 0.13623806 0.31942373 -0.27592393
v 0.08049553 0.36941519 -0.30706298
v 0.0796312 0.31548711 -0.30577778
v 0.01969532 0.35913911 -0.33272719
v 0.01915394 0.30689677 -0.3293266
v 0.02094451 0.02636357 -0.22703313
v -0.01830282 0.02618612 -0.22769218
v 0.02091835 0.00408849 -0.22708493
v -0.01832438 0.00407435 -0.22751814
v 0.05959744 0.02613082 -0.21821183
v 0.05956409 0.00380456 -0.2183786
v 0.09602633 0.02561021 -0.20130631
v 0.09598106 0.00329819 -0.20150889
v 0.12863314 0.02499045 -0.17654392
v 0.12853439 0.00270067 -0.17675744
v 0.15588516 0.02441606 -0.14449928
v 0.15566098 0.00214672 -0.14470742
v 0.17653377 0.02397354 -0.10610283
v 0.17607089 0.0017559 -0.10628737
v 0.18973091 0.02372366 -0.06267882
v 0.18890446 0.00162019 -0.0628165
v 0.1950809 0.02370941 -0.01596957
v 0.19382087 0.00177063 -0.01601698
v 0.19256161 0.02402966 0.0319949
v 0.19094726 0.00220599 0.03208485
v 0.18265308 0.02467484 0.07911257
v 0.18087902 0.0028436 0.07934201
v 0.1662479 0.02549403 0.12337636
v 0.16452701 0.00356043 0.12366849
v 0.14459323 0.02608802 0.1630247
v 0.14298634 0.0041443 0.16321119
v 0.11879745 0.02620188 0.19648221
v 0.11723613 0.00445869 0.19639803
v 0.08970417 0.02583477 0.22241057
v 0.08807618 0.00444868 0.22199136
v 0.05769855 0.02544961 0.23967096
v 0.056074 0.00426251 0.23905316
v 0.02326553 0.02537256 0.24769446
v 0.02190375 0.00403653 0.24709637
v -0.01266817 0.02559122 0.24639578
v -0.01345818 0.0038343 0.24601072
v -0.04872211 0.02556364 0.23616249
v -0.04873742 0.00349572 0.23601689
v -0.08344513 0.02496275 0.21748423
v -0.08258976 0.00292879 0.21748554
v -0.11535938 0.02394557 0.19095276
v -0.11367783 0.00221539 0.19097465
v -0.1427043 0.02311104 0.15742343
v -0.14057821 0.0015863 0.1573387
v -0.16409601 0.02281204 0.11802874
v -0.16210553 0.00114882 0.11774431
v -0.17892649 0.02297874 0.07411864
v -0.17751717 0.00089373 0.07365843
v -0.18715687 0.02333469 0.02738684
v -0.18641388 0.00080302 0.02686779
v -0.18870537 0.02366491 -0.02006609
v -0.18842957 0.00088461 -0.02056769
v -0.18315969 0.02393779 -0.06620781
v -0.18313887 0.0011476 -0.06661523
v -0.17026139 0.02413393 -0.10928186
v -0.17036677 0.00154849 -0.1094552
v -0.15019229 0.02427572 -0.14769664
v -0.15037316 0.0020375 -0.14748063
v -0.12375872 0.02450215 -0.17977215
v -0.12395103 0.00259934 -0.17921035
v -0.09210564 0.02497566 -0.20413292
v -0.09223915 0.00320519 -0.2034832
v -0.05650113 0.02562721 -0.22012159
v -0.05655544 0.00374407 -0.21965366
v -0.02018307 -0.01822248 -0.24652391
v -0.02008264 -0.0513323 -0.24662241
v 0.02291908 -0.05132355 -0.24634277
v 0.02281423 -0.018217 -0.24625463
v 0.06516462 -0.0515838 -0.2368233
v 0.06506381 -0.01847946 -0.23674829
v 0.10482163 -0.05205716 -0.21830697
v 0.10473974 -0.01895513 -0.21824556
v 0.14008189 -0.05263954 -0.19127379
v 0.14003773 -0.01954073 -0.19123041
v 0.16927236 -0.05319142 -0.15646405
v 0.16928374 -0.0200962 -0.15644455
v 0.19103333 -0.05356854 -0.11493597
v 0.19111323 -0.02047884 -0.11494319
v 0.20449696 -0.05366614 -0.06810616
v 0.20464918 -0.02058092 -0.06814049
v 0.20940113 -0.05344501 -0.01776377
v 0.20962029 -0.02036426 -0.0178222
v 0.2060576 -0.05294963 0.03398873
v 0.20632959 -0.0198709 0.03391221
v 0.19520592 -0.05228985 0.08487791
v 0.19551029 -0.019213 0.08479074
v 0.17777602 -0.05160996 0.13264514
v 0.17808955 -0.01853315 0.1325549
v 0.15469683 -0.0510401 0.17523658
v 0.15499556 -0.01796245 0.17515045
v 0.12679553 -0.05066774 0.21094583
v 0.12705573 -0.01758845 0.21087001
v 0.0948352 -0.05052593 0.23847734
v 0.09503635 -0.01744325 0.23841668
v 0.05963604 -0.05060336 0.25694096
v 0.05976332 -0.01751699 0.2568992
v 0.02220592 -0.05086786 0.26581198
v 0.02225054 -0.01777602 0.26578968
v -0.01622233 -0.05128955 0.26487395
v -0.01625997 -0.01819039 0.26487064
v -0.05424587 -0.05183901 0.25419765
v -0.05435697 -0.01873227 0.25421264
v -0.09042708 -0.05249057 0.23413527
v -0.09059629 -0.01937549 0.2341666
v -0.12343074 -0.05320634 0.20534887
v -0.12364104 -0.02008306 0.20539447
v -0.15210245 -0.05392637 0.16883546
v -0.15233558 -0.02079555 0.16889576
v -0.17545658 -0.05456876 0.12594878
v -0.17569693 -0.02143162 0.12602251
v -0.19262944 -0.05504364 0.07837832
v -0.19286477 -0.02190171 0.07846558
v -0.20284643 -0.05527276 0.02808073
v -0.20306704 -0.02212896 0.02818118
v -0.20544025 -0.0552141 -0.02283695
v -0.20563878 -0.02207043 -0.02272531
v -0.19995001 -0.05487081 -0.07226654
v -0.20012219 -0.02172944 -0.07214663
v -0.18624487 -0.05429409 -0.11823739
v -0.18638953 -0.02115634 -0.11811135
v -0.16463245 -0.05357435 -0.15902444
v -0.1647526 -0.02044295 -0.15889678
v -0.13588684 -0.05281818 -0.19320543
v -0.13598966 -0.01969322 -0.19308061
v -0.1011936 -0.05213315 -0.21968005
v -0.10128811 -0.01901457 -0.21956311
v -0.06203801 -0.05161451 -0.23765443
v -0.06213241 -0.01850109 -0.23754549
v -0.06176373 0.02514172 -0.238531
v -0.01982997 0.02592227 -0.24687036
v -0.01973259 0.04803017 -0.24706389
v -0.0616418 0.04701615 -0.23904971
v -0.10096814 0.02438962 -0.22086946
v -0.10082877 0.04614719 -0.22156454
v -0.13573135 0.02402086 -0.19408528
v -0.13557931 0.04590983 -0.1946522
v -0.16456021 0.02401021 -0.15914776
v -0.16441358 0.04623083 -0.15934552
v -0.18632322 0.02404357 -0.1176463
v -0.18621936 0.04660623 -0.11747315
v 0.02309329 0.02628609 -0.24612933
v 0.02315265 0.04855964 -0.24607101
v 0.06529454 0.02613074 -0.23643942
v 0.06531415 0.04846032 -0.23625695
v 0.10502641 0.02560541 -0.21794132
v 0.10502846 0.04792271 -0.21771854
v 0.14052817 0.02494641 -0.19097738
v 0.14055898 0.04724433 -0.1907341
v 0.17013715 0.02432012 -0.15628664
v 0.17026032 0.0466009 -0.15604059
v 0.19254893 0.02379949 -0.11494308
v 0.19286797 0.0460295 -0.11472272
v 0.20691193 0.02342933 -0.06834789
v 0.20755404 0.04554653 -0.06818456
v 0.21284955 0.02328014 -0.01824377
v 0.213899 0.04523344 -0.01816341
v 0.21032115 0.02353003 0.03331151
v 0.21170367 0.04536822 0.03329469
v 0.19979317 0.02422798 0.08405066
v 0.20131027 0.04607299 0.08393763
v 0.18221347 0.02515987 0.13171194
v 0.18366999 0.04710714 0.13153006
v 0.15891459 0.02577281 0.17440573
v 0.16029833 0.04772766 0.17426864
v 0.13096635 0.0257194 0.21058037
v 0.13238801 0.04747107 0.21065869
v 0.09903559 0.02510079 0.23890326
v 0.10057953 0.04649162 0.23932699
v 0.06345465 0.02462277 0.25797948
v 0.06497179 0.04581216 0.25864303
v 0.0250585 0.02472947 0.26690328
v 0.02627486 0.04606652 0.26754659
v -0.01473906 0.0252496 0.26553326
v -0.01406081 0.04700436 0.26593202
v -0.05430184 0.02538143 0.25443503
v -0.05429588 0.04744164 0.25458991
v -0.09215359 0.02464753 0.23423932
v -0.09291606 0.04666894 0.23428265
v -0.12686634 0.02324712 0.20554502
v -0.12842002 0.04496221 0.20559696
v -0.1566526 0.02202248 0.16914302
v -0.15869827 0.04352379 0.16925306
v -0.17993667 0.02163836 0.12631851
v -0.1819037 0.04327074 0.12649828
v -0.19595249 0.02209515 0.07884992
v -0.19734078 0.04414856 0.07910667
v -0.20472617 0.02287706 0.02874697
v -0.20542223 0.0453772 0.02907846
v -0.20630787 0.02351326 -0.02195427
v -0.20653234 0.04626401 -0.02156321
v -0.20028086 0.02389894 -0.0713517
v -0.20026992 0.0466613 -0.07098669
g Group32850
f 677 676 675 674
g Group57741
f 3 195 194 2
g Group32850
f 679 677 674 678
g Group57741
f 4 196 195 3
g Group32850
f 681 679 678 680
g Group57741
f 5 197 196 4
g Group32850
f 683 681 680 682
g Group57741
f 6 198 197 5
g Group32850
f 685 683 682 684
g Group57741
f 7 199 198 6
g Group32850
f 687 685 684 686
g Group57741
f 8 200 199 7
g Group32850
f 689 687 686 688
g Group57741
f 9 201 200 8
g Group32850
f 691 689 688 690
g Group57741
f 10 202 201 9
g Group32850
f 693 691 690 692
g Group57741
f 11 203 202 10
g Group32850
f 695 693 692 694
g Group57741
f 12 204 203 11
g Group32850
f 697 695 694 696
g Group57741
f 13 205 204 12
g Group32850
f 699 697 696 698
g Group57741
f 14 206 205 13
g Group32850
f 701 699 698 700
g Group57741
f 15 207 206 14
g Group32850
f 703 701 700 702
g Group57741
f 16 208 207 15
g Group32850
f 705 703 702 704
g Group57741
f 17 209 208 16
g Group32850
f 707 705 704 706
g Group57741
f 18 210 209 17
g Group32850
f 709 707 706 708
g Group57741
f 19 211 210 18
g Group32850
f 711 709 708 710
g Group57741
f 20 212 211 19
g Group32850
f 713 711 710 712
g Group57741
f 21 213 212 20
g Group32850
f 715 713 712 714
g Group57741
f 22 214 213 21
g Group32850
f 717 715 714 716
g Group57741
f 23 215 214 22
g Group32850
f 719 717 716 718
g Group57741
f 24 216 215 23
g Group32850
f 721 719 718 720
g Group57741
f 25 217 216 24
g Group32850
f 723 721 720 722
g Group57741
f 26 218 217 25
g Group32850
f 725 723 722 724
g Group57741
f 27 219 218 26
g Group32850
f 727 725 724 726
g Group57741
f 28 220 219 27
g Group32850
f 729 727 726 728
g Group57741
f 29 221 220 28
g Group32850
f 731 729 728 730
g Group57741
f 30 222 221 29
g Group32850
f 733 731 730 732
g Group57741
f 31 223 222 30
g Group32850
f 735 733 732 734
g Group57741
f 32 224 223 31
g Group32850
f 737 735 734 736
g Group57741
f 33 225 224 32
g Group32850
f 676 737 736 675
g Group57741
f 2 194 225 33
g Group32850
f 741 740 739 738
g Group32853
f 162 193 738 739
g Group32850
f 743 741 738 742
g Group32853
f 193 192 742 738
g Group32850
f 745 743 742 744
g Group32853
f 192 191 744 742
g Group32850
f 747 745 744 746
g Group32853
f 191 190 746 744
g Group32850
f 749 747 746 748
g Group32853
f 190 189 748 746
g Group32850
f 751 749 748 750
g Group32853
f 189 188 750 748
g Group32850
f 753 751 750 752
g Group32853
f 188 187 752 750
g Group32850
f 755 753 752 754
g Group32853
f 187 186 754 752
g Group32850
f 757 755 754 756
g Group32853
f 186 185 756 754
g Group32850
f 759 757 756 758
g Group32853
f 185 184 758 756
g Group32850
f 761 759 758 760
g Group32853
f 184 183 760 758
g Group32850
f 763 761 760 762
g Group32853
f 183 182 762 760
g Group32850
f 765 763 762 764
g Group32853
f 182 181 764 762
g Group32850
f 767 765 764 766
g Group32853
f 181 180 766 764
g Group32850
f 769 767 766 768
g Group32853
f 180 179 768 766
g Group32850
f 771 769 768 770
g Group32853
f 179 178 770 768
g Group32850
f 773 771 770 772
g Group32853
f 178 177 772 770
g Group32850
f 775 773 772 774
g Group32853
f 177 176 774 772
g Group32850
f 777 775 774 776
g Group32853
f 176 175 776 774
g Group32850
f 779 777 776 778
g Group32853
f 175 174 778 776
g Group32850
f 781 779 778 780
g Group32853
f 174 173 780 778
g Group32850
f 783 781 780 782
g Group32853
f 173 172 782 780
g Group32850
f 785 783 782 784
g Group32853
f 172 171 784 782
g Group32850
f 787 785 784 786
g Group32853
f 171 170 786 784
g Group32850
f 789 787 786 788
g Group32853
f 170 169 788 786
g Group32850
f 791 789 788 790
g Group32853
f 169 168 790 788
g Group32850
f 793 791 790 792
g Group32853
f 168 167 792 790
g Group32850
f 795 793 792 794
g Group32853
f 167 166 794 792
g Group32850
f 797 795 794 796
g Group32853
f 166 165 796 794
g Group32850
f 799 797 796 798
g Group32853
f 165 164 798 796
g Group32850
f 801 799 798 800
g Group32853
f 164 163 800 798
g Group32850
f 740 801 800 739
g Group32853
f 163 162 739 800
g Group32850
f 803 802 740 741
g Group57741
f 673 612 130 131
g Group32850
f 804 803 741 743
f 1378 833 802 1318
f 805 804 743 745
g Group57741
f 672 610 612 673
g Group32850
f 806 805 745 747
f 1377 1378 1318 1316
f 807 806 747 749
f 808 807 749 751
f 1002 1377 1316 1001
f 809 808 751 753
g Group57741
f 671 673 131 132
g Group32850
f 810 809 753 755
f 1376 832 833 1378
f 811 810 755 757
g Group57741
f 670 672 673 671
g Group32850
f 812 811 757 759
f 1375 1376 1378 1377
f 813 812 759 761
f 814 813 761 763
f 1006 1375 1377 1002
f 815 814 763 765
g Group57741
f 669 671 132 133
g Group32850
f 816 815 765 767
f 1374 831 832 1376
f 817 816 767 769
g Group57741
f 668 670 671 669
g Group32850
f 818 817 769 771
f 1373 1374 1376 1375
f 819 818 771 773
f 820 819 773 775
f 1010 1373 1375 1006
f 821 820 775 777
g Group57741
f 667 669 133 134
g Group32850
f 822 821 777 779
f 1372 830 831 1374
f 823 822 779 781
g Group57741
f 666 668 669 667
g Group32850
f 824 823 781 783
f 1371 1372 1374 1373
f 825 824 783 785
f 826 825 785 787
f 1014 1371 1373 1010
f 827 826 787 789
g Group57741
f 665 667 134 135
g Group32850
f 828 827 789 791
f 1370 829 830 1372
f 829 828 791 793
g Group57741
f 664 666 667 665
g Group32850
f 830 829 793 795
f 1369 1370 1372 1371
f 831 830 795 797
f 832 831 797 799
f 1018 1369 1371 1014
f 833 832 799 801
g Group57741
f 663 665 135 136
g Group32850
f 802 833 801 740
f 1368 828 829 1370
f 836 835 834
g Group57741
f 227 226 1
g Group32850
f 835 838 837 834
g Group57741
f 226 227 229 228
g Group32850
f 838 840 839 837
g Group57741
f 228 229 231 230
g Group32850
f 840 842 841 839
g Group57741
f 230 231 233 232
g Group32850
f 842 844 843 841
g Group57741
f 232 233 235 234
g Group32850
f 844 675 736 843
g Group57741
f 234 235 225 194
g Group32850
f 836 834 845
g Group57741
f 236 227 1
g Group32850
f 834 837 846 845
g Group57741
f 227 236 237 229
g Group32850
f 837 839 847 846
g Group57741
f 229 237 238 231
g Group32850
f 839 841 848 847
g Group57741
f 231 238 239 233
g Group32850
f 841 843 849 848
g Group57741
f 233 239 240 235
g Group32850
f 843 736 734 849
g Group57741
f 235 240 224 225
g Group32850
f 836 845 850
g Group57741
f 241 236 1
g Group32850
f 845 846 851 850
g Group57741
f 236 241 242 237
g Group32850
f 846 847 852 851
g Group57741
f 237 242 243 238
g Group32850
f 847 848 853 852
g Group57741
f 238 243 244 239
g Group32850
f 848 849 854 853
g Group57741
f 239 244 245 240
g Group32850
f 849 734 732 854
g Group57741
f 240 245 223 224
g Group32850
f 836 850 855
g Group57741
f 246 241 1
g Group32850
f 850 851 856 855
g Group57741
f 241 246 247 242
g Group32850
f 851 852 857 856
g Group57741
f 242 247 248 243
g Group32850
f 852 853 858 857
g Group57741
f 243 248 249 244
g Group32850
f 853 854 859 858
g Group57741
f 244 249 250 245
g Group32850
f 854 732 730 859
g Group57741
f 245 250 222 223
g Group32850
f 836 855 860
g Group57741
f 251 246 1
g Group32850
f 855 856 861 860
g Group57741
f 246 251 252 247
g Group32850
f 856 857 862 861
g Group57741
f 247 252 253 248
g Group32850
f 857 858 863 862
g Group57741
f 248 253 254 249
g Group32850
f 858 859 864 863
g Group57741
f 249 254 255 250
g Group32850
f 859 730 728 864
g Group57741
f 250 255 221 222
g Group32850
f 836 860 865
g Group57741
f 256 251 1
g Group32850
f 860 861 866 865
g Group57741
f 251 256 257 252
g Group32850
f 861 862 867 866
g Group57741
f 252 257 258 253
g Group32850
f 862 863 868 867
g Group57741
f 253 258 259 254
g Group32850
f 863 864 869 868
g Group57741
f 254 259 260 255
g Group32850
f 864 728 726 869
g Group57741
f 255 260 220 221
g Group32850
f 836 865 870
g Group57741
f 261 256 1
g Group32850
f 865 866 871 870
g Group57741
f 256 261 262 257
g Group32850
f 866 867 872 871
g Group57741
f 257 262 263 258
g Group32850
f 867 868 873 872
g Group57741
f 258 263 264 259
g Group32850
f 868 869 874 873
g Group57741
f 259 264 265 260
g Group32850
f 869 726 724 874
g Group57741
f 260 265 219 220
g Group32850
f 836 870 875
g Group57741
f 266 261 1
g Group32850
f 870 871 876 875
g Group57741
f 261 266 267 262
g Group32850
f 871 872 877 876
g Group57741
f 262 267 268 263
g Group32850
f 872 873 878 877
g Group57741
f 263 268 269 264
g Group32850
f 873 874 879 878
g Group57741
f 264 269 270 265
g Group32850
f 874 724 722 879
g Group57741
f 265 270 218 219
g Group32850
f 836 875 880
g Group57741
f 271 266 1
g Group32850
f 875 876 881 880
g Group57741
f 266 271 272 267
g Group32850
f 876 877 882 881
g Group57741
f 267 272 273 268
g Group32850
f 877 878 883 882
g Group57741
f 268 273 274 269
g Group32850
f 878 879 884 883
g Group57741
f 269 274 275 270
g Group32850
f 879 722 720 884
g Group57741
f 270 275 217 218
g Group32850
f 836 880 885
g Group57741
f 276 271 1
g Group32850
f 880 881 886 885
g Group57741
f 271 276 277 272
g Group32850
f 881 882 887 886
g Group57741
f 272 277 278 273
g Group32850
f 882 883 888 887
g Group57741
f 273 278 279 274
g Group32850
f 883 884 889 888
g Group57741
f 274 279 280 275
g Group32850
f 884 720 718 889
g Group57741
f 275 280 216 217
g Group32850
f 836 885 890
g Group57741
f 281 276 1
g Group32850
f 885 886 891 890
g Group57741
f 276 281 282 277
g Group32850
f 886 887 892 891
g Group57741
f 277 282 283 278
g Group32850
f 887 888 893 892
g Group57741
f 278 283 284 279
g Group32850
f 888 889 894 893
g Group57741
f 279 284 285 280
g Group32850
f 889 718 716 894
g Group57741
f 280 285 215 216
g Group32850
f 836 890 895
g Group57741
f 286 281 1
g Group32850
f 890 891 896 895
g Group57741
f 281 286 287 282
g Group32850
f 891 892 897 896
g Group57741
f 282 287 288 283
g Group32850
f 892 893 898 897
g Group57741
f 283 288 289 284
g Group32850
f 893 894 899 898
g Group57741
f 284 289 290 285
g Group32850
f 894 716 714 899
g Group57741
f 285 290 214 215
g Group32850
f 836 895 900
g Group57741
f 291 286 1
g Group32850
f 895 896 901 900
g Group57741
f 286 291 292 287
g Group32850
f 896 897 902 901
g Group57741
f 287 292 293 288
g Group32850
f 897 898 903 902
g Group57741
f 288 293 294 289
g Group32850
f 898 899 904 903
g Group57741
f 289 294 295 290
g Group32850
f 899 714 712 904
g Group57741
f 290 295 213 214
g Group32850
f 836 900 905
g Group57741
f 296 291 1
g Group32850
f 900 901 906 905
g Group57741
f 291 296 297 292
g Group32850
f 901 902 907 906
g Group57741
f 292 297 298 293
g Group32850
f 902 903 908 907
g Group57741
f 293 298 299 294
g Group32850
f 903 904 909 908
g Group57741
f 294 299 300 295
g Group32850
f 904 712 710 909
g Group57741
f 295 300 212 213
g Group32850
f 836 905 910
g Group57741
f 301 296 1
g Group32850
f 905 906 911 910
g Group57741
f 296 301 302 297
g Group32850
f 906 907 912 911
g Group57741
f 297 302 303 298
g Group32850
f 907 908 913 912
g Group57741
f 298 303 304 299
g Group32850
f 908 909 914 913
g Group57741
f 299 304 305 300
g Group32850
f 909 710 708 914
g Group57741
f 300 305 211 212
g Group32850
f 836 910 915
g Group57741
f 306 301 1
g Group32850
f 910 911 916 915
g Group57741
f 301 306 307 302
g Group32850
f 911 912 917 916
g Group57741
f 302 307 308 303
g Group32850
f 912 913 918 917
g Group57741
f 303 308 309 304
g Group32850
f 913 914 919 918
g Group57741
f 304 309 310 305
g Group32850
f 914 708 706 919
g Group57741
f 305 310 210 211
g Group32850
f 836 915 920
g Group57741
f 311 306 1
g Group32850
f 915 916 921 920
g Group57741
f 306 311 312 307
g Group32850
f 916 917 922 921
g Group57741
f 307 312 313 308
g Group32850
f 917 918 923 922
g Group57741
f 308 313 314 309
g Group32850
f 918 919 924 923
g Group57741
f 309 314 315 310
g Group32850
f 919 706 704 924
g Group57741
f 310 315 209 210
g Group32850
f 836 920 925
g Group57741
f 316 311 1
g Group32850
f 920 921 926 925
g Group57741
f 311 316 317 312
g Group32850
f 921 922 927 926
g Group57741
f 312 317 318 313
g Group32850
f 922 923 928 927
g Group57741
f 313 318 319 314
g Group32850
f 923 924 929 928
g Group57741
f 314 319 320 315
g Group32850
f 924 704 702 929
g Group57741
f 315 320 208 209
g Group32850
f 836 925 930
g Group57741
f 321 316 1
g Group32850
f 925 926 931 930
g Group57741
f 316 321 322 317
g Group32850
f 926 927 932 931
g Group57741
f 317 322 323 318
g Group32850
f 927 928 933 932
g Group57741
f 318 323 324 319
g Group32850
f 928 929 934 933
g Group57741
f 319 324 325 320
g Group32850
f 929 702 700 934
g Group57741
f 320 325 207 208
g Group32850
f 836 930 935
g Group57741
f 326 321 1
g Group32850
f 930 931 936 935
g Group57741
f 321 326 327 322
g Group32850
f 931 932 937 936
g Group57741
f 322 327 328 323
g Group32850
f 932 933 938 937
g Group57741
f 323 328 329 324
g Group32850
f 933 934 939 938
g Group57741
f 324 329 330 325
g Group32850
f 934 700 698 939
g Group57741
f 325 330 206 207
g Group32850
f 836 935 940
g Group57741
f 331 326 1
g Group32850
f 935 936 941 940
g Group57741
f 326 331 332 327
g Group32850
f 936 937 942 941
g Group57741
f 327 332 333 328
g Group32850
f 937 938 943 942
g Group57741
f 328 333 334 329
g Group32850
f 938 939 944 943
g Group57741
f 329 334 335 330
g Group32850
f 939 698 696 944
g Group57741
f 330 335 205 206
g Group32850
f 836 940 945
g Group57741
f 336 331 1
g Group32850
f 940 941 946 945
g Group57741
f 331 336 337 332
g Group32850
f 941 942 947 946
g Group57741
f 332 337 338 333
g Group32850
f 942 943 948 947
g Group57741
f 333 338 339 334
g Group32850
f 943 944 949 948
g Group57741
f 334 339 340 335
g Group32850
f 944 696 694 949
g Group57741
f 335 340 204 205
g Group32850
f 836 945 950
g Group57741
f 341 336 1
g Group32850
f 945 946 951 950
g Group57741
f 336 341 342 337
g Group32850
f 946 947 952 951
g Group57741
f 337 342 343 338
g Group32850
f 947 948 953 952
g Group57741
f 338 343 344 339
g Group32850
f 948 949 954 953
g Group57741
f 339 344 345 340
g Group32850
f 949 694 692 954
g Group57741
f 340 345 203 204
g Group32850
f 836 950 955
g Group57741
f 346 341 1
g Group32850
f 950 951 956 955
g Group57741
f 341 346 347 342
g Group32850
f 951 952 957 956
g Group57741
f 342 347 348 343
g Group32850
f 952 953 958 957
g Group57741
f 343 348 349 344
g Group32850
f 953 954 959 958
g Group57741
f 344 349 350 345
g Group32850
f 954 692 690 959
g Group57741
f 345 350 202 203
g Group32850
f 836 955 960
g Group57741
f 351 346 1
g Group32850
f 955 956 961 960
g Group57741
f 346 351 352 347
g Group32850
f 956 957 962 961
g Group57741
f 347 352 353 348
g Group32850
f 957 958 963 962
g Group57741
f 348 353 354 349
g Group32850
f 958 959 964 963
g Group57741
f 349 354 355 350
g Group32850
f 959 690 688 964
g Group57741
f 350 355 201 202
g Group32850
f 836 960 965
g Group57741
f 356 351 1
g Group32850
f 960 961 966 965
g Group57741
f 351 356 357 352
g Group32850
f 961 962 967 966
g Group57741
f 352 357 358 353
g Group32850
f 962 963 968 967
g Group57741
f 353 358 359 354
g Group32850
f 963 964 969 968
g Group57741
f 354 359 360 355
g Group32850
f 964 688 686 969
g Group57741
f 355 360 200 201
g Group32850
f 836 965 970
g Group57741
f 361 356 1
g Group32850
f 965 966 971 970
g Group57741
f 356 361 362 357
g Group32850
f 966 967 972 971
g Group57741
f 357 362 363 358
g Group32850
f 967 968 973 972
g Group57741
f 358 363 364 359
g Group32850
f 968 969 974 973
g Group57741
f 359 364 365 360
g Group32850
f 969 686 684 974
g Group57741
f 360 365 199 200
g Group32850
f 836 970 975
g Group57741
f 366 361 1
g Group32850
f 970 971 976 975
g Group57741
f 361 366 367 362
g Group32850
f 971 972 977 976
g Group57741
f 362 367 368 363
g Group32850
f 972 973 978 977
g Group57741
f 363 368 369 364
g Group32850
f 973 974 979 978
g Group57741
f 364 369 370 365
g Group32850
f 974 684 682 979
g Group57741
f 365 370 198 199
g Group32850
f 836 975 980
g Group57741
f 371 366 1
g Group32850
f 975 976 981 980
g Group57741
f 366 371 372 367
g Group32850
f 976 977 982 981
g Group57741
f 367 372 373 368
g Group32850
f 977 978 983 982
g Group57741
f 368 373 374 369
g Group32850
f 978 979 984 983
g Group57741
f 369 374 375 370
g Group32850
f 979 682 680 984
g Group57741
f 370 375 197 198
g Group32850
f 836 980 985
g Group57741
f 376 371 1
g Group32850
f 980 981 986 985
g Group57741
f 371 376 377 372
g Group32850
f 981 982 987 986
g Group57741
f 372 377 378 373
g Group32850
f 982 983 988 987
g Group57741
f 373 378 379 374
g Group32850
f 983 984 989 988
g Group57741
f 374 379 380 375
g Group32850
f 984 680 678 989
g Group57741
f 375 380 196 197
g Group32850
f 836 985 990
g Group57741
f 381 376 1
g Group32850
f 985 986 991 990
g Group57741
f 376 381 382 377
g Group32850
f 986 987 992 991
g Group57741
f 377 382 383 378
g Group32850
f 987 988 993 992
g Group57741
f 378 383 384 379
g Group32850
f 988 989 994 993
g Group57741
f 379 384 385 380
g Group32850
f 989 678 674 994
g Group57741
f 380 385 195 196
g Group32850
f 836 990 835
g Group57741
f 226 381 1
g Group32850
f 990 991 838 835
g Group57741
f 381 226 228 382
g Group32850
f 991 992 840 838
g Group57741
f 382 228 230 383
g Group32850
f 992 993 842 840
g Group57741
f 383 230 232 384
g Group32850
f 993 994 844 842
g Group57741
f 384 232 234 385
g Group32850
f 994 674 675 844
g Group57741
f 385 234 194 195
g Group32850
f 998 997 996 995
g Group57741
f 67 66 387 386
g Group32850
f 997 1000 999 996
g Group57741
f 386 387 389 388
g Group32850
f 1000 1002 1001 999
g Group57741
f 388 389 98 99
g Group32850
f 1004 1003 997 998
g Group57741
f 68 67 386 390
g Group32850
f 1003 1005 1000 997
g Group57741
f 390 386 388 391
g Group32850
f 1005 1006 1002 1000
g Group57741
f 391 388 99 100
g Group32850
f 1008 1007 1003 1004
g Group57741
f 69 68 390 392
g Group32850
f 1007 1009 1005 1003
g Group57741
f 392 390 391 393
g Group32850
f 1009 1010 1006 1005
g Group57741
f 393 391 100 101
g Group32850
f 1012 1011 1007 1008
g Group57741
f 70 69 392 394
g Group32850
f 1011 1013 1009 1007
g Group57741
f 394 392 393 395
g Group32850
f 1013 1014 1010 1009
g Group57741
f 395 393 101 102
g Group32850
f 1016 1015 1011 1012
g Group57741
f 71 70 394 396
g Group32850
f 1015 1017 1013 1011
g Group57741
f 396 394 395 397
g Group32850
f 1017 1018 1014 1013
g Group57741
f 397 395 102 103
g Group32850
f 1020 1019 1015 1016
g Group57741
f 72 71 396 398
g Group32850
f 1019 1021 1017 1015
g Group57741
f 398 396 397 399
g Group32850
f 1021 1022 1018 1017
g Group57741
f 399 397 103 104
g Group32850
f 1024 1023 1019 1020
g Group57741
f 73 72 398 400
g Group32850
f 1023 1025 1021 1019
g Group57741
f 400 398 399 401
g Group32850
f 1025 1026 1022 1021
g Group57741
f 401 399 104 105
g Group32850
f 1028 1027 1023 1024
g Group57741
f 74 73 400 402
g Group32850
f 1027 1029 1025 1023
g Group57741
f 402 400 401 403
g Group32850
f 1029 1030 1026 1025
g Group57741
f 403 401 105 106
g Group32850
f 1032 1031 1027 1028
g Group57741
f 75 74 402 404
g Group32850
f 1031 1033 1029 1027
g Group57741
f 404 402 403 405
g Group32850
f 1033 1034 1030 1029
g Group57741
f 405 403 106 107
g Group32850
f 1036 1035 1031 1032
g Group57741
f 76 75 404 406
g Group32850
f 1035 1037 1033 1031
g Group57741
f 406 404 405 407
g Group32850
f 1037 1038 1034 1033
g Group57741
f 407 405 107 108
g Group32850
f 1040 1039 1035 1036
g Group57741
f 77 76 406 408
g Group32850
f 1039 1041 1037 1035
g Group57741
f 408 406 407 409
g Group32850
f 1041 1042 1038 1037
g Group57741
f 409 407 108 109
g Group32850
f 1044 1043 1039 1040
g Group57741
f 78 77 408 410
g Group32850
f 1043 1045 1041 1039
g Group57741
f 410 408 409 411
g Group32850
f 1045 1046 1042 1041
g Group57741
f 411 409 109 110
g Group32850
f 1048 1047 1043 1044
g Group57741
f 79 78 410 412
g Group32850
f 1047 1049 1045 1043
g Group57741
f 412 410 411 413
g Group32850
f 1049 1050 1046 1045
g Group57741
f 413 411 110 111
g Group32850
f 1052 1051 1047 1048
g Group57741
f 80 79 412 414
g Group32850
f 1051 1053 1049 1047
g Group57741
f 414 412 413 415
g Group32850
f 1053 1054 1050 1049
g Group57741
f 415 413 111 112
g Group32850
f 1056 1055 1051 1052
g Group57741
f 81 80 414 416
g Group32850
f 1055 1057 1053 1051
g Group57741
f 416 414 415 417
g Group32850
f 1057 1058 1054 1053
g Group57741
f 417 415 112 113
g Group32850
f 1060 1059 1055 1056
g Group57741
f 82 81 416 418
g Group32850
f 1059 1061 1057 1055
g Group57741
f 418 416 417 419
g Group32850
f 1061 1062 1058 1057
g Group57741
f 419 417 113 114
g Group32850
f 1064 1063 1059 1060
g Group57741
f 83 82 418 420
g Group32850
f 1063 1065 1061 1059
g Group57741
f 420 418 419 421
g Group32850
f 1065 1066 1062 1061
g Group57741
f 421 419 114 115
g Group32850
f 1068 1067 1063 1064
g Group57741
f 84 83 420 422
g Group32850
f 1067 1069 1065 1063
g Group57741
f 422 420 421 423
g Group32850
f 1069 1070 1066 1065
g Group57741
f 423 421 115 116
g Group32850
f 1072 1071 1067 1068
g Group57741
f 85 84 422 424
g Group32850
f 1071 1073 1069 1067
g Group57741
f 424 422 423 425
g Group32850
f 1073 1074 1070 1069
g Group57741
f 425 423 116 117
g Group32850
f 1076 1075 1071 1072
g Group57741
f 86 85 424 426
g Group32850
f 1075 1077 1073 1071
g Group57741
f 426 424 425 427
g Group32850
f 1077 1078 1074 1073
g Group57741
f 427 425 117 118
g Group32850
f 1080 1079 1075 1076
g Group57741
f 87 86 426 428
g Group32850
f 1079 1081 1077 1075
g Group57741
f 428 426 427 429
g Group32850
f 1081 1082 1078 1077
g Group57741
f 429 427 118 119
g Group32850
f 1084 1083 1079 1080
g Group57741
f 88 87 428 430
g Group32850
f 1083 1085 1081 1079
g Group57741
f 430 428 429 431
g Group32850
f 1085 1086 1082 1081
g Group57741
f 431 429 119 120
g Group32850
f 1088 1087 1083 1084
g Group57741
f 89 88 430 432
g Group32850
f 1087 1089 1085 1083
g Group57741
f 432 430 431 433
g Group32850
f 1089 1090 1086 1085
g Group57741
f 433 431 120 121
g Group32850
f 1092 1091 1087 1088
g Group57741
f 90 89 432 434
g Group32850
f 1091 1093 1089 1087
g Group57741
f 434 432 433 435
g Group32850
f 1093 1094 1090 1089
g Group57741
f 435 433 121 122
g Group32850
f 1096 1095 1091 1092
g Group57741
f 91 90 434 436
g Group32850
f 1095 1097 1093 1091
g Group57741
f 436 434 435 437
g Group32850
f 1097 1098 1094 1093
g Group57741
f 437 435 122 123
g Group32850
f 1100 1099 1095 1096
g Group57741
f 92 91 436 438
g Group32850
f 1099 1101 1097 1095
g Group57741
f 438 436 437 439
g Group32850
f 1101 1102 1098 1097
g Group57741
f 439 437 123 124
g Group32850
f 1104 1103 1099 1100
g Group57741
f 93 92 438 440
g Group32850
f 1103 1105 1101 1099
g Group57741
f 440 438 439 441
g Group32850
f 1105 1106 1102 1101
g Group57741
f 441 439 124 125
g Group32850
f 1108 1107 1103 1104
g Group57741
f 94 93 440 442
g Group32850
f 1107 1109 1105 1103
g Group57741
f 442 440 441 443
g Group32850
f 1109 1110 1106 1105
g Group57741
f 443 441 125 126
g Group32850
f 1112 1111 1107 1108
g Group57741
f 95 94 442 444
g Group32850
f 1111 1113 1109 1107
g Group57741
f 444 442 443 445
g Group32850
f 1113 1114 1110 1109
g Group57741
f 445 443 126 127
g Group32850
f 1116 1115 1111 1112
g Group57741
f 96 95 444 446
g Group32850
f 1115 1117 1113 1111
g Group57741
f 446 444 445 447
g Group32850
f 1117 1118 1114 1113
g Group57741
f 447 445 127 128
g Group32850
f 1120 1119 1115 1116
g Group57741
f 97 96 446 448
g Group32850
f 1119 1121 1117 1115
g Group57741
f 448 446 447 449
g Group32850
f 1121 1122 1118 1117
g Group57741
f 449 447 128 129
g Group32850
f 995 996 1119 1120
g Group57741
f 66 97 448 387
g Group32850
f 996 999 1121 1119
g Group57741
f 387 448 449 389
g Group32850
f 999 1001 1122 1121
g Group57741
f 389 449 129 98
g Group32850
f 1126 1125 1124 1123
g Group57741
f 35 34 451 450
g Group32850
f 1125 1128 1127 1124
g Group57741
f 450 451 453 452
g Group32850
f 1128 1130 1129 1127
g Group57741
f 452 453 455 454
g Group32850
f 1130 998 995 1129
g Group57741
f 454 455 66 67
g Group32850
f 1132 1131 1125 1126
g Group57741
f 36 35 450 456
g Group32850
f 1131 1133 1128 1125
g Group57741
f 456 450 452 457
g Group32850
f 1133 1134 1130 1128
g Group57741
f 457 452 454 458
g Group32850
f 1134 1004 998 1130
g Group57741
f 458 454 67 68
g Group32850
f 1136 1135 1131 1132
g Group57741
f 37 36 456 459
g Group32850
f 1135 1137 1133 1131
g Group57741
f 459 456 457 460
g Group32850
f 1137 1138 1134 1133
g Group57741
f 460 457 458 461
g Group32850
f 1138 1008 1004 1134
g Group57741
f 461 458 68 69
g Group32850
f 1140 1139 1135 1136
g Group57741
f 38 37 459 462
g Group32850
f 1139 1141 1137 1135
g Group57741
f 462 459 460 463
g Group32850
f 1141 1142 1138 1137
g Group57741
f 463 460 461 464
g Group32850
f 1142 1012 1008 1138
g Group57741
f 464 461 69 70
g Group32850
f 1144 1143 1139 1140
g Group57741
f 39 38 462 465
g Group32850
f 1143 1145 1141 1139
g Group57741
f 465 462 463 466
g Group32850
f 1145 1146 1142 1141
g Group57741
f 466 463 464 467
g Group32850
f 1146 1016 1012 1142
g Group57741
f 467 464 70 71
g Group32850
f 1148 1147 1143 1144
g Group57741
f 40 39 465 468
g Group32850
f 1147 1149 1145 1143
g Group57741
f 468 465 466 469
g Group32850
f 1149 1150 1146 1145
g Group57741
f 469 466 467 470
g Group32850
f 1150 1020 1016 1146
g Group57741
f 470 467 71 72
g Group32850
f 1152 1151 1147 1148
g Group57741
f 41 40 468 471
g Group32850
f 1151 1153 1149 1147
g Group57741
f 471 468 469 472
g Group32850
f 1153 1154 1150 1149
g Group57741
f 472 469 470 473
g Group32850
f 1154 1024 1020 1150
g Group57741
f 473 470 72 73
g Group32850
f 1156 1155 1151 1152
g Group57741
f 42 41 471 474
g Group32850
f 1155 1157 1153 1151
g Group57741
f 474 471 472 475
g Group32850
f 1157 1158 1154 1153
g Group57741
f 475 472 473 476
g Group32850
f 1158 1028 1024 1154
g Group57741
f 476 473 73 74
g Group32850
f 1160 1159 1155 1156
g Group57741
f 43 42 474 477
g Group32850
f 1159 1161 1157 1155
g Group57741
f 477 474 475 478
g Group32850
f 1161 1162 1158 1157
g Group57741
f 478 475 476 479
g Group32850
f 1162 1032 1028 1158
g Group57741
f 479 476 74 75
g Group32850
f 1164 1163 1159 1160
g Group57741
f 44 43 477 480
g Group32850
f 1163 1165 1161 1159
g Group57741
f 480 477 478 481
g Group32850
f 1165 1166 1162 1161
g Group57741
f 481 478 479 482
g Group32850
f 1166 1036 1032 1162
g Group57741
f 482 479 75 76
g Group32850
f 1168 1167 1163 1164
g Group57741
f 45 44 480 483
g Group32850
f 1167 1169 1165 1163
g Group57741
f 483 480 481 484
g Group32850
f 1169 1170 1166 1165
g Group57741
f 484 481 482 485
g Group32850
f 1170 1040 1036 1166
g Group57741
f 485 482 76 77
g Group32850
f 1172 1171 1167 1168
g Group57741
f 46 45 483 486
g Group32850
f 1171 1173 1169 1167
g Group57741
f 486 483 484 487
g Group32850
f 1173 1174 1170 1169
g Group57741
f 487 484 485 488
g Group32850
f 1174 1044 1040 1170
g Group57741
f 488 485 77 78
g Group32850
f 1176 1175 1171 1172
g Group57741
f 47 46 486 489
g Group32850
f 1175 1177 1173 1171
g Group57741
f 489 486 487 490
g Group32850
f 1177 1178 1174 1173
g Group57741
f 490 487 488 491
g Group32850
f 1178 1048 1044 1174
g Group57741
f 491 488 78 79
g Group32850
f 1180 1179 1175 1176
g Group57741
f 48 47 489 492
g Group32850
f 1179 1181 1177 1175
g Group57741
f 492 489 490 493
g Group32850
f 1181 1182 1178 1177
g Group57741
f 493 490 491 494
g Group32850
f 1182 1052 1048 1178
g Group57741
f 494 491 79 80
g Group32850
f 1184 1183 1179 1180
g Group57741
f 49 48 492 495
g Group32850
f 1183 1185 1181 1179
g Group57741
f 495 492 493 496
g Group32850
f 1185 1186 1182 1181
g Group57741
f 496 493 494 497
g Group32850
f 1186 1056 1052 1182
g Group57741
f 497 494 80 81
g Group32850
f 1188 1187 1183 1184
g Group57741
f 50 49 495 498
g Group32850
f 1187 1189 1185 1183
g Group57741
f 498 495 496 499
g Group32850
f 1189 1190 1186 1185
g Group57741
f 499 496 497 500
g Group32850
f 1190 1060 1056 1186
g Group57741
f 500 497 81 82
g Group32850
f 1192 1191 1187 1188
g Group57741
f 51 50 498 501
g Group32850
f 1191 1193 1189 1187
g Group57741
f 501 498 499 502
g Group32850
f 1193 1194 1190 1189
g Group57741
f 502 499 500 503
g Group32850
f 1194 1064 1060 1190
g Group57741
f 503 500 82 83
g Group32850
f 1196 1195 1191 1192
g Group57741
f 52 51 501 504
g Group32850
f 1195 1197 1193 1191
g Group57741
f 504 501 502 505
g Group32850
f 1197 1198 1194 1193
g Group57741
f 505 502 503 506
g Group32850
f 1198 1068 1064 1194
g Group57741
f 506 503 83 84
g Group32850
f 1200 1199 1195 1196
g Group57741
f 53 52 504 507
g Group32850
f 1199 1201 1197 1195
g Group57741
f 507 504 505 508
g Group32850
f 1201 1202 1198 1197
g Group57741
f 508 505 506 509
g Group32850
f 1202 1072 1068 1198
g Group57741
f 509 506 84 85
g Group32850
f 1204 1203 1199 1200
g Group57741
f 54 53 507 510
g Group32850
f 1203 1205 1201 1199
g Group57741
f 510 507 508 511
g Group32850
f 1205 1206 1202 1201
g Group57741
f 511 508 509 512
g Group32850
f 1206 1076 1072 1202
g Group57741
f 512 509 85 86
g Group32850
f 1208 1207 1203 1204
g Group57741
f 55 54 510 513
g Group32850
f 1207 1209 1205 1203
g Group57741
f 513 510 511 514
g Group32850
f 1209 1210 1206 1205
g Group57741
f 514 511 512 515
g Group32850
f 1210 1080 1076 1206
g Group57741
f 515 512 86 87
g Group32850
f 1212 1211 1207 1208
g Group57741
f 56 55 513 516
g Group32850
f 1211 1213 1209 1207
g Group57741
f 516 513 514 517
g Group32850
f 1213 1214 1210 1209
g Group57741
f 517 514 515 518
g Group32850
f 1214 1084 1080 1210
g Group57741
f 518 515 87 88
g Group32850
f 1216 1215 1211 1212
g Group57741
f 57 56 516 519
g Group32850
f 1215 1217 1213 1211
g Group57741
f 519 516 517 520
g Group32850
f 1217 1218 1214 1213
g Group57741
f 520 517 518 521
g Group32850
f 1218 1088 1084 1214
g Group57741
f 521 518 88 89
g Group32850
f 1220 1219 1215 1216
g Group57741
f 58 57 519 522
g Group32850
f 1219 1221 1217 1215
g Group57741
f 522 519 520 523
g Group32850
f 1221 1222 1218 1217
g Group57741
f 523 520 521 524
g Group32850
f 1222 1092 1088 1218
g Group57741
f 524 521 89 90
g Group32850
f 1224 1223 1219 1220
g Group57741
f 59 58 522 525
g Group32850
f 1223 1225 1221 1219
g Group57741
f 525 522 523 526
g Group32850
f 1225 1226 1222 1221
g Group57741
f 526 523 524 527
g Group32850
f 1226 1096 1092 1222
g Group57741
f 527 524 90 91
g Group32850
f 1228 1227 1223 1224
g Group57741
f 60 59 525 528
g Group32850
f 1227 1229 1225 1223
g Group57741
f 528 525 526 529
g Group32850
f 1229 1230 1226 1225
g Group57741
f 529 526 527 530
g Group32850
f 1230 1100 1096 1226
g Group57741
f 530 527 91 92
g Group32850
f 1232 1231 1227 1228
g Group57741
f 61 60 528 531
g Group32850
f 1231 1233 1229 1227
g Group57741
f 531 528 529 532
g Group32850
f 1233 1234 1230 1229
g Group57741
f 532 529 530 533
g Group32850
f 1234 1104 1100 1230
g Group57741
f 533 530 92 93
g Group32850
f 1236 1235 1231 1232
g Group57741
f 62 61 531 534
g Group32850
f 1235 1237 1233 1231
g Group57741
f 534 531 532 535
g Group32850
f 1237 1238 1234 1233
g Group57741
f 535 532 533 536
g Group32850
f 1238 1108 1104 1234
g Group57741
f 536 533 93 94
g Group32850
f 1240 1239 1235 1236
g Group57741
f 63 62 534 537
g Group32850
f 1239 1241 1237 1235
g Group57741
f 537 534 535 538
g Group32850
f 1241 1242 1238 1237
g Group57741
f 538 535 536 539
g Group32850
f 1242 1112 1108 1238
g Group57741
f 539 536 94 95
g Group32850
f 1244 1243 1239 1240
g Group57741
f 64 63 537 540
g Group32850
f 1243 1245 1241 1239
g Group57741
f 540 537 538 541
g Group32850
f 1245 1246 1242 1241
g Group57741
f 541 538 539 542
g Group32850
f 1246 1116 1112 1242
g Group57741
f 542 539 95 96
g Group32850
f 1248 1247 1243 1244
g Group57741
f 65 64 540 543
g Group32850
f 1247 1249 1245 1243
g Group57741
f 543 540 541 544
g Group32850
f 1249 1250 1246 1245
g Group57741
f 544 541 542 545
g Group32850
f 1250 1120 1116 1246
g Group57741
f 545 542 96 97
g Group32850
f 1123 1124 1247 1248
g Group57741
f 34 65 543 451
g Group32850
f 1124 1127 1249 1247
g Group57741
f 451 543 544 453
g Group32850
f 1127 1129 1250 1249
g Group57741
f 453 544 545 455
g Group32850
f 1129 995 1120 1250
g Group57741
f 455 545 97 66
g Group32850
f 677 1252 1251 676
g Group57741
f 3 2 547 546
g Group32850
f 1252 1254 1253 1251
g Group57741
f 546 547 549 548
g Group32850
f 1254 1126 1123 1253
g Group57741
f 548 549 34 35
g Group32850
f 679 1255 1252 677
g Group57741
f 4 3 546 550
g Group32850
f 1255 1256 1254 1252
g Group57741
f 550 546 548 551
g Group32850
f 1256 1132 1126 1254
g Group57741
f 551 548 35 36
g Group32850
f 681 1257 1255 679
g Group57741
f 5 4 550 552
g Group32850
f 1257 1258 1256 1255
g Group57741
f 552 550 551 553
g Group32850
f 1258 1136 1132 1256
g Group57741
f 553 551 36 37
g Group32850
f 683 1259 1257 681
g Group57741
f 6 5 552 554
g Group32850
f 1259 1260 1258 1257
g Group57741
f 554 552 553 555
g Group32850
f 1260 1140 1136 1258
g Group57741
f 555 553 37 38
g Group32850
f 685 1261 1259 683
g Group57741
f 7 6 554 556
g Group32850
f 1261 1262 1260 1259
g Group57741
f 556 554 555 557
g Group32850
f 1262 1144 1140 1260
g Group57741
f 557 555 38 39
g Group32850
f 687 1263 1261 685
g Group57741
f 8 7 556 558
g Group32850
f 1263 1264 1262 1261
g Group57741
f 558 556 557 559
g Group32850
f 1264 1148 1144 1262
g Group57741
f 559 557 39 40
g Group32850
f 689 1265 1263 687
g Group57741
f 9 8 558 560
g Group32850
f 1265 1266 1264 1263
g Group57741
f 560 558 559 561
g Group32850
f 1266 1152 1148 1264
g Group57741
f 561 559 40 41
g Group32850
f 691 1267 1265 689
g Group57741
f 10 9 560 562
g Group32850
f 1267 1268 1266 1265
g Group57741
f 562 560 561 563
g Group32850
f 1268 1156 1152 1266
g Group57741
f 563 561 41 42
g Group32850
f 693 1269 1267 691
g Group57741
f 11 10 562 564
g Group32850
f 1269 1270 1268 1267
g Group57741
f 564 562 563 565
g Group32850
f 1270 1160 1156 1268
g Group57741
f 565 563 42 43
g Group32850
f 695 1271 1269 693
g Group57741
f 12 11 564 566
g Group32850
f 1271 1272 1270 1269
g Group57741
f 566 564 565 567
g Group32850
f 1272 1164 1160 1270
g Group57741
f 567 565 43 44
g Group32850
f 697 1273 1271 695
g Group57741
f 13 12 566 568
g Group32850
f 1273 1274 1272 1271
g Group57741
f 568 566 567 569
g Group32850
f 1274 1168 1164 1272
g Group57741
f 569 567 44 45
g Group32850
f 699 1275 1273 697
g Group57741
f 14 13 568 570
g Group32850
f 1275 1276 1274 1273
g Group57741
f 570 568 569 571
g Group32850
f 1276 1172 1168 1274
g Group57741
f 571 569 45 46
g Group32850
f 701 1277 1275 699
g Group57741
f 15 14 570 572
g Group32850
f 1277 1278 1276 1275
g Group57741
f 572 570 571 573
g Group32850
f 1278 1176 1172 1276
g Group57741
f 573 571 46 47
g Group32850
f 703 1279 1277 701
g Group57741
f 16 15 572 574
g Group32850
f 1279 1280 1278 1277
g Group57741
f 574 572 573 575
g Group32850
f 1280 1180 1176 1278
g Group57741
f 575 573 47 48
g Group32850
f 705 1281 1279 703
g Group57741
f 17 16 574 576
g Group32850
f 1281 1282 1280 1279
g Group57741
f 576 574 575 577
g Group32850
f 1282 1184 1180 1280
g Group57741
f 577 575 48 49
g Group32850
f 707 1283 1281 705
g Group57741
f 18 17 576 578
g Group32850
f 1283 1284 1282 1281
g Group57741
f 578 576 577 579
g Group32850
f 1284 1188 1184 1282
g Group57741
f 579 577 49 50
g Group32850
f 709 1285 1283 707
g Group57741
f 19 18 578 580
g Group32850
f 1285 1286 1284 1283
g Group57741
f 580 578 579 581
g Group32850
f 1286 1192 1188 1284
g Group57741
f 581 579 50 51
g Group32850
f 711 1287 1285 709
g Group57741
f 20 19 580 582
g Group32850
f 1287 1288 1286 1285
g Group57741
f 582 580 581 583
g Group32850
f 1288 1196 1192 1286
g Group57741
f 583 581 51 52
g Group32850
f 713 1289 1287 711
g Group57741
f 21 20 582 584
g Group32850
f 1289 1290 1288 1287
g Group57741
f 584 582 583 585
g Group32850
f 1290 1200 1196 1288
g Group57741
f 585 583 52 53
g Group32850
f 715 1291 1289 713
g Group57741
f 22 21 584 586
g Group32850
f 1291 1292 1290 1289
g Group57741
f 586 584 585 587
g Group32850
f 1292 1204 1200 1290
g Group57741
f 587 585 53 54
g Group32850
f 717 1293 1291 715
g Group57741
f 23 22 586 588
g Group32850
f 1293 1294 1292 1291
g Group57741
f 588 586 587 589
g Group32850
f 1294 1208 1204 1292
g Group57741
f 589 587 54 55
g Group32850
f 719 1295 1293 717
g Group57741
f 24 23 588 590
g Group32850
f 1295 1296 1294 1293
g Group57741
f 590 588 589 591
g Group32850
f 1296 1212 1208 1294
g Group57741
f 591 589 55 56
g Group32850
f 721 1297 1295 719
g Group57741
f 25 24 590 592
g Group32850
f 1297 1298 1296 1295
g Group57741
f 592 590 591 593
g Group32850
f 1298 1216 1212 1296
g Group57741
f 593 591 56 57
g Group32850
f 723 1299 1297 721
g Group57741
f 26 25 592 594
g Group32850
f 1299 1300 1298 1297
g Group57741
f 594 592 593 595
g Group32850
f 1300 1220 1216 1298
g Group57741
f 595 593 57 58
g Group32850
f 725 1301 1299 723
g Group57741
f 27 26 594 596
g Group32850
f 1301 1302 1300 1299
g Group57741
f 596 594 595 597
g Group32850
f 1302 1224 1220 1300
g Group57741
f 597 595 58 59
g Group32850
f 727 1303 1301 725
g Group57741
f 28 27 596 598
g Group32850
f 1303 1304 1302 1301
g Group57741
f 598 596 597 599
g Group32850
f 1304 1228 1224 1302
g Group57741
f 599 597 59 60
g Group32850
f 729 1305 1303 727
g Group57741
f 29 28 598 600
g Group32850
f 1305 1306 1304 1303
g Group57741
f 600 598 599 601
g Group32850
f 1306 1232 1228 1304
g Group57741
f 601 599 60 61
g Group32850
f 731 1307 1305 729
g Group57741
f 30 29 600 602
g Group32850
f 1307 1308 1306 1305
g Group57741
f 602 600 601 603
g Group32850
f 1308 1236 1232 1306
g Group57741
f 603 601 61 62
g Group32850
f 733 1309 1307 731
g Group57741
f 31 30 602 604
g Group32850
f 1309 1310 1308 1307
g Group57741
f 604 602 603 605
g Group32850
f 1310 1240 1236 1308
g Group57741
f 605 603 62 63
g Group32850
f 735 1311 1309 733
g Group57741
f 32 31 604 606
g Group32850
f 1311 1312 1310 1309
g Group57741
f 606 604 605 607
g Group32850
f 1312 1244 1240 1310
g Group57741
f 607 605 63 64
g Group32850
f 737 1313 1311 735
g Group57741
f 33 32 606 608
g Group32850
f 1313 1314 1312 1311
g Group57741
f 608 606 607 609
g Group32850
f 1314 1248 1244 1312
g Group57741
f 609 607 64 65
g Group32850
f 676 1251 1313 737
g Group57741
f 2 33 608 547
g Group32850
f 1251 1253 1314 1313
g Group57741
f 547 608 609 549
g Group32850
f 1253 1123 1248 1314
g Group57741
f 549 609 65 34
g Group32850
f 1001 1316 1315 1122
f 1316 1318 1317 1315
g Group57741
f 610 611 613 612
g Group32850
f 1318 802 803 1317
g Group57741
f 612 613 161 130
g Group32850
f 1122 1315 1319 1118
f 1315 1317 1320 1319
g Group57741
f 611 614 615 613
g Group32850
f 1317 803 804 1320
g Group57741
f 613 615 160 161
g Group32850
f 1118 1319 1321 1114
f 1319 1320 1322 1321
g Group57741
f 614 616 617 615
g Group32850
f 1320 804 805 1322
g Group57741
f 615 617 159 160
g Group32850
f 1114 1321 1323 1110
f 1321 1322 1324 1323
g Group57741
f 616 618 619 617
g Group32850
f 1322 805 806 1324
g Group57741
f 617 619 158 159
g Group32850
f 1110 1323 1325 1106
f 1323 1324 1326 1325
g Group57741
f 618 620 621 619
g Group32850
f 1324 806 807 1326
g Group57741
f 619 621 157 158
g Group32850
f 1106 1325 1327 1102
f 1325 1326 1328 1327
g Group57741
f 620 622 623 621
g Group32850
f 1326 807 808 1328
g Group57741
f 621 623 156 157
g Group32850
f 1102 1327 1329 1098
f 1327 1328 1330 1329
g Group57741
f 622 624 625 623
g Group32850
f 1328 808 809 1330
g Group57741
f 623 625 155 156
g Group32850
f 1098 1329 1331 1094
f 1329 1330 1332 1331
g Group57741
f 624 626 627 625
g Group32850
f 1330 809 810 1332
g Group57741
f 625 627 154 155
g Group32850
f 1094 1331 1333 1090
f 1331 1332 1334 1333
g Group57741
f 626 628 629 627
g Group32850
f 1332 810 811 1334
g Group57741
f 627 629 153 154
g Group32850
f 1090 1333 1335 1086
f 1333 1334 1336 1335
g Group57741
f 628 630 631 629
g Group32850
f 1334 811 812 1336
g Group57741
f 629 631 152 153
g Group32850
f 1086 1335 1337 1082
f 1335 1336 1338 1337
g Group57741
f 630 632 633 631
g Group32850
f 1336 812 813 1338
g Group57741
f 631 633 151 152
g Group32850
f 1082 1337 1339 1078
f 1337 1338 1340 1339
g Group57741
f 632 634 635 633
g Group32850
f 1338 813 814 1340
g Group57741
f 633 635 150 151
g Group32850
f 1078 1339 1341 1074
f 1339 1340 1342 1341
g Group57741
f 634 636 637 635
g Group32850
f 1340 814 815 1342
g Group57741
f 635 637 149 150
g Group32850
f 1074 1341 1343 1070
f 1341 1342 1344 1343
g Group57741
f 636 638 639 637
g Group32850
f 1342 815 816 1344
g Group57741
f 637 639 148 149
g Group32850
f 1070 1343 1345 1066
f 1343 1344 1346 1345
g Group57741
f 638 640 641 639
g Group32850
f 1344 816 817 1346
g Group57741
f 639 641 147 148
g Group32850
f 1066 1345 1347 1062
f 1345 1346 1348 1347
g Group57741
f 640 642 643 641
g Group32850
f 1346 817 818 1348
g Group57741
f 641 643 146 147
g Group32850
f 1062 1347 1349 1058
f 1347 1348 1350 1349
g Group57741
f 642 644 645 643
g Group32850
f 1348 818 819 1350
g Group57741
f 643 645 145 146
g Group32850
f 1058 1349 1351 1054
f 1349 1350 1352 1351
g Group57741
f 644 646 647 645
g Group32850
f 1350 819 820 1352
g Group57741
f 645 647 144 145
g Group32850
f 1054 1351 1353 1050
f 1351 1352 1354 1353
g Group57741
f 646 648 649 647
g Group32850
f 1352 820 821 1354
g Group57741
f 647 649 143 144
g Group32850
f 1050 1353 1355 1046
f 1353 1354 1356 1355
g Group57741
f 648 650 651 649
g Group32850
f 1354 821 822 1356
g Group57741
f 649 651 142 143
g Group32850
f 1046 1355 1357 1042
f 1355 1356 1358 1357
g Group57741
f 650 652 653 651
g Group32850
f 1356 822 823 1358
g Group57741
f 651 653 141 142
g Group32850
f 1042 1357 1359 1038
f 1357 1358 1360 1359
g Group57741
f 652 654 655 653
g Group32850
f 1358 823 824 1360
g Group57741
f 653 655 140 141
g Group32850
f 1038 1359 1361 1034
f 1359 1360 1362 1361
g Group57741
f 654 656 657 655
g Group32850
f 1360 824 825 1362
g Group57741
f 655 657 139 140
g Group32850
f 1034 1361 1363 1030
f 1361 1362 1364 1363
g Group57741
f 656 658 659 657
g Group32850
f 1362 825 826 1364
g Group57741
f 657 659 138 139
g Group32850
f 1030 1363 1365 1026
f 1363 1364 1366 1365
g Group57741
f 658 660 661 659
g Group32850
f 1364 826 827 1366
g Group57741
f 659 661 137 138
g Group32850
f 1026 1365 1367 1022
f 1365 1366 1368 1367
g Group57741
f 660 662 663 661
g Group32850
f 1366 827 828 1368
g Group57741
f 661 663 136 137
g Group32850
f 1022 1367 1369 1018
f 1367 1368 1370 1369
g Group57741
f 662 664 665 663
g Group32850
f 1382 1381 1380 1379
f 130 161 1382 1379
f 193 162 1380 1381
f 1384 1383 1381 1382
f 161 160 1384 1382
f 192 193 1381 1383
f 1386 1385 1383 1384
f 160 159 1386 1384
f 191 192 1383 1385
f 1388 1387 1385 1386
f 159 158 1388 1386
f 190 191 1385 1387
f 1390 1389 1387 1388
f 158 157 1390 1388
f 189 190 1387 1389
f 1392 1391 1389 1390
f 157 156 1392 1390
f 188 189 1389 1391
f 1394 1393 1391 1392
f 156 155 1394 1392
f 187 188 1391 1393
f 1396 1395 1393 1394
f 155 154 1396 1394
f 186 187 1393 1395
f 1398 1397 1395 1396
f 154 153 1398 1396
f 185 186 1395 1397
f 1400 1399 1397 1398
f 153 152 1400 1398
f 184 185 1397 1399
f 1402 1401 1399 1400
f 152 151 1402 1400
f 183 184 1399 1401
f 1404 1403 1401 1402
f 151 150 1404 1402
f 182 183 1401 1403
f 1406 1405 1403 1404
f 150 149 1406 1404
f 181 182 1403 1405
f 1408 1407 1405 1406
f 149 148 1408 1406
f 180 181 1405 1407
f 1410 1409 1407 1408
f 148 147 1410 1408
f 179 180 1407 1409
f 1412 1411 1409 1410
f 147 146 1412 1410
f 178 179 1409 1411
f 1414 1413 1411 1412
f 146 145 1414 1412
f 177 178 1411 1413
f 1416 1415 1413 1414
f 145 144 1416 1414
f 176 177 1413 1415
f 1418 1417 1415 1416
f 144 143 1418 1416
f 175 176 1415 1417
f 1420 1419 1417 1418
f 143 142 1420 1418
f 174 175 1417 1419
f 1422 1421 1419 1420
f 142 141 1422 1420
f 173 174 1419 1421
f 1424 1423 1421 1422
f 141 140 1424 1422
f 172 173 1421 1423
f 1426 1425 1423 1424
f 140 139 1426 1424
f 171 172 1423 1425
f 1428 1427 1425 1426
f 139 138 1428 1426
f 170 171 1425 1427
f 1430 1429 1427 1428
f 138 137 1430 1428
f 169 170 1427 1429
f 1432 1431 1429 1430
f 137 136 1432 1430
f 168 169 1429 1431
f 1434 1433 1431 1432
f 136 135 1434 1432
f 167 168 1431 1433
f 1436 1435 1433 1434
f 135 134 1436 1434
f 166 167 1433 1435
f 1438 1437 1435 1436
f 134 133 1438 1436
f 165 166 1435 1437
f 1440 1439 1437 1438
f 133 132 1440 1438
f 164 165 1437 1439
f 1442 1441 1439 1440
f 132 131 1442 1440
f 163 164 1439 1441
f 1379 1380 1441 1442
f 131 130 1379 1442
f 162 163 1441 1380
f 1446 1445 1444 1443
f 610 672 1443 1444
f 99 98 1445 1446
f 1448 1446 1443 1447
f 672 670 1447 1443
f 100 99 1446 1448
f 1450 1448 1447 1449
f 670 668 1449 1447
f 101 100 1448 1450
f 1452 1450 1449 1451
f 668 666 1451 1449
f 102 101 1450 1452
f 1454 1452 1451 1453
f 666 664 1453 1451
f 103 102 1452 1454
f 1445 1456 1455 1444
f 611 610 1444 1455
f 98 129 1456 1445
f 1456 1458 1457 1455
f 614 611 1455 1457
f 129 128 1458 1456
f 1458 1460 1459 1457
f 616 614 1457 1459
f 128 127 1460 1458
f 1460 1462 1461 1459
f 618 616 1459 1461
f 127 126 1462 1460
f 1462 1464 1463 1461
f 620 618 1461 1463
f 126 125 1464 1462
f 1464 1466 1465 1463
f 622 620 1463 1465
f 125 124 1466 1464
f 1466 1468 1467 1465
f 624 622 1465 1467
f 124 123 1468 1466
f 1468 1470 1469 1467
f 626 624 1467 1469
f 123 122 1470 1468
f 1470 1472 1471 1469
f 628 626 1469 1471
f 122 121 1472 1470
f 1472 1474 1473 1471
f 630 628 1471 1473
f 121 120 1474 1472
f 1474 1476 1475 1473
f 632 630 1473 1475
f 120 119 1476 1474
f 1476 1478 1477 1475
f 634 632 1475 1477
f 119 118 1478 1476
f 1478 1480 1479 1477
f 636 634 1477 1479
f 118 117 1480 1478
f 1480 1482 1481 1479
f 638 636 1479 1481
f 117 116 1482 1480
f 1482 1484 1483 1481
f 640 638 1481 1483
f 116 115 1484 1482
f 1484 1486 1485 1483
f 642 640 1483 1485
f 115 114 1486 1484
f 1486 1488 1487 1485
f 644 642 1485 1487
f 114 113 1488 1486
f 1488 1490 1489 1487
f 646 644 1487 1489
f 113 112 1490 1488
f 1490 1492 1491 1489
f 648 646 1489 1491
f 112 111 1492 1490
f 1492 1494 1493 1491
f 650 648 1491 1493
f 111 110 1494 1492
f 1494 1496 1495 1493
f 652 650 1493 1495
f 110 109 1496 1494
f 1496 1498 1497 1495
f 654 652 1495 1497
f 109 108 1498 1496
f 1498 1500 1499 1497
f 656 654 1497 1499
f 108 107 1500 1498
f 1500 1502 1501 1499
f 658 656 1499 1501
f 107 106 1502 1500
f 1502 1504 1503 1501
f 660 658 1501 1503
f 106 105 1504 1502
f 1504 1506 1505 1503
f 662 660 1503 1505
f 105 104 1506 1504
f 1506 1454 1453 1505
f 664 662 1505 1453
f 104 103 1454 1506

 