# File exported by ZBrush version 2021
# www.zbrush.com
#Vertex Count 514
#Face Count 544
#Auto scale x=1.000000 y=1.000000 z=1.000000
#Auto offset x=0.000000 y=0.000000 z=0.000000
v 0.00224107 0.22329492 -0.01512294
v -0.01978662 0.18087256 -0.24105536
v -0.05813994 0.18180635 -0.23262767
v -0.09425578 0.18370033 -0.21584406
v -0.12677457 0.18647618 -0.1913723
v -0.15443041 0.19003047 -0.16014015
v -0.17607533 0.1942417 -0.12327117
v -0.19077636 0.1989669 -0.08209318
v -0.19789549 0.20403675 -0.03812436
v -0.19717787 0.20925407 0.00693394
v -0.18873392 0.21440242 0.05128665
v -0.17297588 0.21926876 0.09316887
v -0.15056073 0.22365689 0.13093243
v -0.12234558 0.22739857 0.16312064
v -0.08939699 0.23035275 0.1884868
v -0.05297442 0.23240861 0.20602868
v -0.01448433 0.23348459 0.2150453
v 0.02459792 0.23354004 0.21519866
v 0.0627982 0.23257811 0.20653322
v 0.09868203 0.23064218 0.18944089
v 0.13090452 0.22780801 0.16460907
v 0.15827502 0.22417895 0.13296556
v 0.17977874 0.21988365 0.09566788
v 0.19459229 0.21508085 0.05410406
v 0.20207682 0.20996356 0.00990266
v 0.20184311 0.204746 -0.03515527
v 0.19380076 0.1996461 -0.07925005
v 0.1782321 0.19486582 -0.12066258
v 0.15579962 0.19057591 -0.15785972
v 0.12746715 0.18692356 -0.18950164
v 0.09441243 0.18403303 -0.21445182
v 0.05792736 0.18201167 -0.23176994
v 0.01938534 0.18094204 -0.2407646
v -0.01986095 0.13249479 -0.23551093
v -0.05832726 0.13340953 -0.22717803
v -0.09466979 0.13526246 -0.21059516
v -0.12753696 0.13797542 -0.186433
v -0.15560638 0.14145503 -0.15556773
v -0.17761184 0.14560151 -0.11901897
v -0.19249658 0.15029332 -0.07800419
v -0.19955405 0.15537445 -0.03397895
v -0.19853176 0.16064655 0.01136126
v -0.18962478 0.1658786 0.05616462
v -0.17337247 0.17083494 0.0985656
v -0.1505355 0.17529945 0.13682335
v -0.12202167 0.17909485 0.16941095
v -0.08889871 0.18208175 0.19504338
v -0.05240661 0.18414992 0.21270482
v -0.01392517 0.18522395 0.22170588
v 0.02508041 0.18526536 0.22172103
v 0.06315536 0.18428111 0.21282954
v 0.09890471 0.18231794 0.19547833
v 0.13105775 0.17945277 0.17038296
v 0.15849496 0.17578171 0.13846407
v 0.18024043 0.17142826 0.10084295
v 0.19543658 0.16655145 0.0589027
v 0.20333771 0.16135808 0.01432723
v 0.20340396 0.15608654 -0.03099632
v 0.19543874 0.15097306 -0.07515987
v 0.17970058 0.14622317 -0.11642179
v 0.15691401 0.14199715 -0.15330521
v 0.12816649 0.13841971 -0.18457818
v 0.09475684 0.13559326 -0.20921275
v 0.05803848 0.13361394 -0.22632418
v 0.01937994 0.13256388 -0.23522186
v -0.01997122 0.08410415 -0.23001286
v -0.05863365 0.08498768 -0.22183309
v -0.09532656 0.0867774 -0.20556116
v -0.12868043 0.08940296 -0.18183152
v -0.15726378 0.09278998 -0.15142233
v -0.17967963 0.09686195 -0.11523789
v -0.19476296 0.10151804 -0.07439945
v -0.20174941 0.10661219 -0.03030838
v -0.20037509 0.11194773 0.01536865
v -0.19089537 0.11728357 0.06074284
v -0.17397686 0.12235979 0.1038529
v -0.15053691 0.12693348 0.14280115
v -0.12160795 0.13080436 0.17591568
v -0.08825191 0.13383324 0.20187717
v -0.0516756 0.13591717 0.21967557
v -0.01320292 0.13698984 0.22866018
v 0.02572183 0.13701644 0.22852994
v 0.06365937 0.13600662 0.21939083
v 0.09925933 0.13400989 0.20172181
v 0.1313502 0.13109733 0.17625118
v 0.15890362 0.12736181 0.14390395
v 0.18100599 0.12292025 0.10579018
v 0.19670476 0.1179431 0.06333331
v 0.20510524 0.11265861 0.01830305
v 0.20550677 0.10732635 -0.02731857
v 0.19762541 0.10219745 -0.0715558
v 0.18170335 0.09748067 -0.1126552
v 0.1585145 0.09332726 -0.1491806
v 0.12925152 0.0898432 -0.17999669
v 0.09534803 0.08710575 -0.20419341
v 0.05827122 0.08519069 -0.22098615
v 0.01941192 0.08417289 -0.2297254
v -0.0201079 0.03570879 -0.22455698
v -0.05901897 0.03655578 -0.21655893
v -0.09609858 0.03827571 -0.20062996
v -0.12993694 0.04081349 -0.17733021
v -0.15900711 0.04411255 -0.14735403
v -0.18179968 0.04811704 -0.11150342
v -0.19706147 0.05274089 -0.07082334
v -0.20398092 0.05784677 -0.02666748
v -0.20227363 0.06324265 0.0193368
v -0.19223792 0.06867881 0.06527532
v -0.1746575 0.0738749 0.10909645
v -0.15059784 0.07856075 0.14874519
v -0.12122707 0.08251207 0.18239891
v -0.08762499 0.08558558 0.20868745
v -0.05096123 0.08768504 0.22661577
v -0.0124958 0.0887564 0.23558712
v 0.02636009 0.08877047 0.23533305
v 0.0641758 0.08773841 0.22597467
v 0.09965366 0.08570749 0.20799808
v 0.13171689 0.08274366 0.18213464
v 0.15942363 0.07893429 0.14930833
v 0.18189537 0.07439773 0.11065929
v 0.19807848 0.06932085 0.06768036
v 0.20694468 0.06394919 0.02221413
v 0.20765328 0.05856155 -0.02367995
v 0.1998469 0.05341953 -0.06798398
v 0.18375906 0.04873253 -0.10893585
v 0.16020017 0.04464598 -0.14513267
v 0.13044863 0.0412498 -0.17551554
v 0.0960543 0.03860088 -0.19927631
v 0.05858333 0.03675724 -0.21571867
v 0.01947069 0.03577742 -0.22427177
v -0.02022517 0.00343607 -0.22096344
v -0.05936152 0.00425133 -0.2131187
v -0.09674991 0.00591579 -0.1974644
v -0.13095109 0.00838811 -0.17448601
v -0.16036033 0.01162603 -0.14481078
v -0.18339401 0.01558744 -0.10917431
v -0.19876433 0.02019128 -0.06859038
v -0.20563818 0.02530536 -0.02438773
v -0.20371095 0.03074106 0.02183889
v -0.19328515 0.03624781 0.06818354
v -0.17521512 0.04153244 0.11253371
v -0.15068505 0.04630356 0.15270708
v -0.12096894 0.05031741 0.18676465
v -0.08718269 0.05342435 0.21328261
v -0.05045226 0.05553617 0.23130117
v -0.01199084 0.05660664 0.24026538
v 0.02682499 0.05661337 0.23993913
v 0.06456641 0.05556774 0.23044665
v 0.09997723 0.05351152 0.21225284
v 0.13204145 0.05050673 0.18608737
v 0.15989114 0.04663591 0.15287067
v 0.18264517 0.04202448 0.11379547
v 0.19918005 0.03687327 0.07042302
v 0.20836001 0.03144163 0.02465375
v 0.20926238 0.02601908 -0.02141224
v 0.20150119 0.02086921 -0.06575629
v 0.18531218 0.01620033 -0.10661859
v 0.16151572 0.01215663 -0.1426047
v 0.13142387 0.00882171 -0.17268519
v 0.09666261 0.00623894 -0.19612024
v 0.0588778 0.00445203 -0.2122845
v 0.0195365 0.00350373 -0.22067995
v -0.02031043 -0.01270982 -0.21921525
v -0.0596176 -0.01191566 -0.21147511
v -0.09719759 -0.01028571 -0.19598968
v -0.13159883 -0.00784945 -0.17318849
v -0.16117095 -0.004641 -0.14365819
v -0.18431063 -0.00069924 -0.10811597
v -0.19972656 0.0038968 -0.06757287
v -0.20657572 0.00901565 -0.02334171
v -0.20453997 0.0144707 0.02300084
v -0.19391258 0.020014 0.06956424
v -0.17557376 0.0253473 0.11420871
v -0.15077336 0.03016711 0.15467844
v -0.1208467 0.03421919 0.18896889
v -0.08694884 0.03734646 0.21561504
v -0.05017499 0.0394658 0.23368425
v -0.01171451 0.0405362 0.24264763
v 0.02708525 0.04053992 0.24229237
v 0.06479599 0.03948861 0.23274245
v 0.10019184 0.03741756 0.21443378
v 0.13228049 0.03438704 0.18808732
v 0.16023586 0.03047571 0.15461885
v 0.18315105 0.02581908 0.11527846
v 0.19986835 0.02062646 0.07168294
v 0.20919473 0.01516549 0.0257616
v 0.21018439 0.00972693 -0.02038219
v 0.20244382 0.00457331 -0.06474516
v 0.18621154 -0.00008757 -0.10556855
v 0.16230925 -0.00411233 -0.14146098
v 0.13205291 -0.00741736 -0.17139539
v 0.09708908 -0.00996364 -0.19465036
v 0.05910943 -0.01171585 -0.21064344
v 0.01959549 -0.01264213 -0.21893237
v -0.02036371 -0.02885118 -0.21742546
v -0.05976313 -0.02806682 -0.20973391
v -0.09742396 -0.0264509 -0.1943176
v -0.13190008 -0.02402821 -0.17158389
v -0.16152192 -0.0208288 -0.14209727
v -0.18468886 -0.01689244 -0.10657925
v -0.20011454 -0.01229775 -0.06604447
v -0.20695239 -0.00717675 -0.021799
v -0.20488058 -0.00171513 0.02458499
v -0.19418314 0.00384044 0.07122968
v -0.1757435 0.00919215 0.11598517
v -0.15083871 0.01403103 0.1565676
v -0.12082155 0.01809956 0.19095197
v -0.08687673 0.02123527 0.21764679
v -0.05008041 0.02335851 0.23574015
v -0.01161938 0.02442896 0.24470385
v 0.0271775 0.02443269 0.24434348
v 0.0648825 0.02337933 0.23477962
v 0.10028574 0.02130235 0.21642835
v 0.13239477 0.01826003 0.19000475
v 0.16040478 0.01433048 0.15642482
v 0.18338085 0.00965461 0.11697099
v 0.20016208 0.00444615 0.0732865
v 0.2095303 -0.00102471 0.02731224
v 0.21054443 -0.00646717 -0.01885371
v 0.20281106 -0.01162231 -0.06322237
v 0.18656832 -0.01628142 -0.10403684
v 0.16263787 -0.02030143 -0.13990417
v 0.13233041 -0.02359697 -0.16979324
v 0.0972903 -0.02612919 -0.19298058
v 0.05922844 -0.02786711 -0.20890185
v 0.01962128 -0.02878342 -0.21714289
v 0.00223283 0.21154876 -0.01376716
v -0.05464135 0.18310402 -0.22140374
v -0.01865318 0.18222956 -0.22930175
v -0.08858563 0.18488065 -0.20564812
v -0.11923137 0.18749201 -0.18261322
v -0.14537455 0.19084793 -0.15311633
v -0.16589444 0.19483785 -0.11818075
v -0.17986483 0.19932743 -0.07905539
v -0.18663995 0.20415407 -0.03719659
v -0.18594875 0.20912659 0.0057448
v -0.17789092 0.21403443 0.04802068
v -0.16287189 0.2186706 0.08791001
v -0.14155478 0.22284305 0.12381436
v -0.11480063 0.22639156 0.15433798
v -0.08366183 0.22918471 0.17831733
v -0.049352 0.23112177 0.19484567
v -0.01319127 0.23213267 0.20331741
v 0.02346949 0.23218385 0.20345628
v 0.05929977 0.23128096 0.19531597
v 0.09300529 0.22946059 0.17924591
v 0.12335141 0.22678907 0.15584106
v 0.14921547 0.22335796 0.12592701
v 0.16960483 0.2192838 0.09056153
v 0.1836941 0.21471768 0.05105329
v 0.19083012 0.20984415 0.00896551
v 0.19061495 0.20487146 -0.0339751
v 0.18295453 0.20001135 -0.07599441
v 0.16813144 0.19546093 -0.1154153
v 0.14680942 0.19138631 -0.15075326
v 0.11994429 0.18792709 -0.18072924
v 0.08869681 0.18519954 -0.20428779
v 0.05431738 0.18329791 -0.22058641
v 0.01809939 0.18229463 -0.22902913
v -0.05485014 0.13470293 -0.21597281
v -0.01873595 0.13384924 -0.22376915
v -0.0890303 0.13643728 -0.20042643
v -0.12002407 0.13898603 -0.17770044
v -0.14656992 0.14226901 -0.14856089
v -0.16743555 0.1461967 -0.11393257
v -0.18157932 0.15065477 -0.07496126
v -0.18829289 0.15549291 -0.03304604
v -0.18730555 0.16051879 0.01017257
v -0.17879234 0.16550913 0.05289433
v -0.16328164 0.17023386 0.09330204
v -0.14153958 0.17448392 0.12970235
v -0.11448299 0.17808723 0.16062578
v -0.08316755 0.18091286 0.18486882
v -0.04878835 0.18286202 0.20151434
v -0.01263518 0.1838714 0.2099719
v 0.02395333 0.1839095 0.20998066
v 0.05966414 0.18298468 0.20162542
v 0.09324124 0.18113791 0.1853002
v 0.12352555 0.1784341 0.16162565
v 0.14946162 0.17495863 0.13142199
v 0.17009401 0.17082534 0.09572155
v 0.18455956 0.16618458 0.05583516
v 0.19210144 0.16123734 0.01338138
v 0.19217526 0.15621192 -0.02981609
v 0.18458996 0.15133853 -0.07190202
v 0.16960704 0.14681701 -0.11118102
v 0.14794459 0.14280344 -0.14621675
v 0.12067423 0.13941787 -0.17583262
v 0.08907161 0.13675402 -0.19907563
v 0.05444991 0.13489621 -0.21515968
v 0.01810238 0.13391397 -0.22349762
v -0.01921348 -0.0113694 -0.20754168
v -0.01924907 -0.02750252 -0.20571188
v 0.0183525 -0.02743879 -0.20544678
v 0.01834326 -0.01130577 -0.20727604
v 0.05567188 -0.02659118 -0.19776858
v 0.05560935 -0.01045023 -0.19956137
v 0.09163526 -0.02497396 -0.18287037
v 0.09150342 -0.00882085 -0.18460163
v 0.12485751 -0.02260249 -0.1610651
v 0.12464702 -0.00643484 -0.16272683
v 0.15367332 -0.01949548 -0.13282097
v 0.15338882 -0.00331483 -0.13441686
v 0.17647245 -0.01568697 -0.09879364
v 0.17613272 0.00050355 -0.10034063
v 0.19195805 -0.01125613 -0.05996092
v 0.1915929 0.00493929 -0.06148519
v 0.19931294 -0.0063412 -0.0176706
v 0.19895704 0.00985233 -0.0192037
v 0.19829686 -0.00114601 0.02636447
v 0.19798456 0.01503992 0.02479248
v 0.18930126 0.0040779 0.07021286
v 0.18905831 0.02025051 0.06857553
v 0.17326231 0.00904839 0.11183986
v 0.17309598 0.02520496 0.11011748
v 0.15140786 0.0135043 0.14937566
v 0.15130646 0.02964424 0.14756026
v 0.12488781 0.01723981 0.18124713
v 0.12482418 0.0333663 0.1793469
v 0.0946365 0.02012124 0.20625011
v 0.09457925 0.03623873 0.20428517
v 0.0613922 0.02208283 0.22357454
v 0.06132242 0.03819489 0.22156411
v 0.02604739 0.02307608 0.23259767
v 0.02596115 0.03918481 0.23055738
v -0.01033315 0.02307605 0.23296354
v -0.01042946 0.03918298 0.23090514
v -0.04646606 0.02207052 0.22454243
v -0.04656363 0.03817699 0.22248172
v -0.08115529 0.02006457 0.20746095
v -0.08123782 0.03617375 0.20542082
v -0.11329492 0.01708956 0.18215596
v -0.11333483 0.03320675 0.18016763
v -0.14186169 0.01321227 0.14943346
v -0.14182353 0.02934347 0.14753407
v -0.16566507 0.00858892 0.1107164
v -0.16552414 0.02473921 0.10892985
v -0.18335557 0.00347005 0.06796145
v -0.18310855 0.01963937 0.06628795
v -0.19365346 -0.00184279 0.02340053
v -0.19332076 0.01434177 0.02181649
v -0.19568832 -0.00705812 -0.02086147
v -0.1953054 0.00913573 -0.02239534
v -0.18919609 -0.011936 -0.0630002
v -0.18880341 0.00425927 -0.06452424
v -0.17451284 -0.01629664 -0.10149271
v -0.1741475 -0.00010637 -0.10304126
v -0.15249249 -0.02001611 -0.1350969
v -0.15218383 -0.00383598 -0.13669534
v -0.12440769 -0.02302137 -0.16287004
v -0.12417335 -0.00685473 -0.16453407
v -0.09181574 -0.0252822 -0.18417684
v -0.0916595 -0.00912954 -0.18591082
v -0.05631981 -0.02677957 -0.19856022
v -0.05623161 -0.01063949 -0.20035408
v -0.01913913 0.00477365 -0.20930475
v 0.01829511 0.0048374 -0.20903857
v 0.05540701 0.00571259 -0.20122827
v 0.09111848 0.00737451 -0.18610788
v 0.12405809 0.00979718 -0.16405178
v 0.1526218 0.0129496 -0.13558411
v 0.17524209 0.0167898 -0.10139828
v 0.19064821 0.02123546 -0.06249492
v 0.19803579 0.02614412 -0.02023374
v 0.1971632 0.03131376 0.02367343
v 0.18839846 0.03649258 0.06729333
v 0.17262823 0.04140541 0.10861301
v 0.15099765 0.04580141 0.14580677
v 0.12461273 0.04948601 0.17736105
v 0.09438199 0.05233436 0.20212654
v 0.06110206 0.05427574 0.21928662
v 0.02570412 0.05525888 0.22821041
v -0.01070738 0.05525285 0.2285203
v -0.04684367 0.05424674 0.22009319
v -0.08147413 0.05225136 0.20308627
v -0.11346361 0.04930379 0.17796243
v -0.14174847 0.04547749 0.1455595
v -0.16518394 0.04092102 0.10724783
v -0.18249553 0.03587051 0.06490062
v -0.19249609 0.03061131 0.02065355
v -0.19436276 0.02542655 -0.02343656
v -0.18783527 0.02055474 -0.06553675
v -0.17323677 0.0161792 -0.10410493
v -0.15139824 0.01242688 -0.13787005
v -0.12356548 0.00937596 -0.16586685
v -0.09125338 0.00706483 -0.18742291
v -0.05600539 0.00552253 -0.2020235
v -0.01901007 0.03705248 -0.21286876
v 0.01821849 0.03711662 -0.21260117
v 0.05507519 0.03802496 -0.20462702
v 0.090469 0.03974355 -0.18922759
v 0.12304673 0.04223137 -0.16685071
v 0.15128639 0.04544239 -0.13809463
v 0.17368267 0.04932333 -0.10371005
v 0.18899385 0.05378579 -0.06472239
v 0.19642564 0.05868689 -0.02250017
v 0.19573704 0.0638227 0.02124262
v 0.18726909 0.06894402 0.06456712
v 0.17184044 0.07378268 0.1054937
v 0.15048658 0.0781035 0.14225184
v 0.12425613 0.08172419 0.17340277
v 0.09403707 0.08452977 0.19786028
v 0.06070377 0.08644568 0.21480356
v 0.02523712 0.08741539 0.22360006
v -0.01121201 0.08740281 0.22384207
v -0.04735145 0.08639572 0.21540965
v -0.08190933 0.08441396 0.19849658
v -0.11371103 0.08150036 0.17360265
v -0.14164206 0.07773789 0.14160756
v -0.16460956 0.0732666 0.10381732
v -0.18143636 0.06830344 0.06199489
v -0.19105494 0.06311351 0.01815041
v -0.19270813 0.05796714 -0.02572039
v -0.18613393 0.0531042 -0.06777066
v -0.17163674 0.04870981 -0.10642875
v -0.15002527 0.04491666 -0.14039567
v -0.12251488 0.04180772 -0.16867864
v -0.09056009 0.03943232 -0.19055114
v -0.05562425 0.03783413 -0.20542758
v -0.05519217 0.08627504 -0.2106594
v -0.01885828 0.08545436 -0.21829275
v -0.08973486 0.08794362 -0.19543512
v -0.1212119 0.09040522 -0.17313858
v -0.14825384 0.09359895 -0.14443951
v -0.16950815 0.09745658 -0.11015584
v -0.18383804 0.10188116 -0.07134901
v -0.19048035 0.10673183 -0.02936715
v -0.1891523 0.11181954 0.01418112
v -0.18007853 0.1169109 0.05746638
v -0.16390661 0.12175553 0.09858152
v -0.14155779 0.1261149 0.13567462
v -0.11407942 0.12979488 0.16712541
v -0.08252909 0.13266295 0.19169248
v -0.04806429 0.13462819 0.20847226
v -0.0119186 0.13563594 0.21691647
v 0.02459537 0.13566078 0.21679079
v 0.06017721 0.13471192 0.20820315
v 0.09361757 0.13283126 0.1915652
v 0.12385084 0.13007852 0.16750825
v 0.14991308 0.1265354 0.13685575
v 0.17090325 0.12231103 0.10064631
v 0.18586057 0.11757113 0.06024251
v 0.193882 0.11253489 0.01734515
v 0.19427657 0.10745209 -0.02613681
v 0.18677182 0.10256409 -0.06829434
v 0.17161706 0.09807357 -0.1074206
v 0.14957211 0.09412907 -0.14211748
v 0.1218035 0.09083318 -0.17129074
v 0.08971057 0.08825755 -0.1940983
v 0.0547173 0.08646681 -0.20985272
v 0.01814552 0.08551894 -0.21802337
v -0.01762576 0.19955632 -0.22074577
v -0.05221515 0.20040525 -0.21310965
v -0.08473362 0.20212955 -0.19788502
v -0.11395432 0.20465986 -0.17567603
v -0.13876146 0.2078965 -0.14734239
v -0.15816564 0.21172264 -0.11394123
v -0.17136606 0.21600039 -0.07670749
v -0.17781627 0.22057302 -0.03703776
v -0.17728048 0.22526195 0.00353388
v -0.16983 0.22987842 0.04340555
v -0.15579335 0.23423774 0.08101518
v -0.13571916 0.23816916 0.11491671
v -0.11035701 0.24152734 0.14382609
v -0.08067429 0.24418422 0.16662697
v -0.04782161 0.2460346 0.18241484
v -0.01307296 0.24700644 0.19056087
v 0.02223816 0.24706211 0.19075614
v 0.05677054 0.24620302 0.18302205
v 0.089217 0.24446536 0.16769023
v 0.11834045 0.2419177 0.14536811
v 0.14302943 0.23865562 0.11690192
v 0.16234795 0.23479978 0.08335065
v 0.17557066 0.23049208 0.04597102
v 0.18216989 0.2259013 0.00620958
v 0.18184687 0.22121159 -0.03436417
v 0.17455732 0.21661379 -0.07414217
v 0.16056755 0.21228663 -0.11158246
v 0.14045038 0.20839043 -0.14527763
v 0.11503257 0.20506489 -0.17398108
v 0.08533046 0.20243121 -0.19662457
v 0.05248097 0.20059049 -0.21233345
v 0.01772274 0.19961926 -0.22048291
v -0.01632343 0.18931627 -0.2058067
v -0.04828224 0.19010135 -0.19875265
v -0.0783725 0.19169904 -0.18466761
v -0.10548259 0.19404868 -0.16407065
v -0.12857109 0.19706237 -0.13771531
v -0.1466842 0.20063549 -0.10654825
v -0.15903763 0.20464003 -0.07171364
v -0.16507998 0.20892831 -0.03452556
v -0.16456997 0.21332962 0.00354791
v -0.15757121 0.21766221 0.04096715
v -0.14440527 0.22174851 0.07623177
v -0.12561693 0.22542657 0.10796423
v -0.1019431 0.22855836 0.13495743
v -0.07432095 0.23102773 0.1561867
v -0.0438451 0.23274195 0.17084215
v -0.01169498 0.2336388 0.1783815
v 0.02092507 0.23368886 0.17855532
v 0.0528235 0.23289465 0.17139767
v 0.08283758 0.2312885 0.15719993
v 0.10984624 0.2289275 0.13648392
v 0.132815 0.2258953 0.10999057
v 0.15084481 0.22229912 0.07867147
v 0.16322296 0.21826951 0.04368788
v 0.16941697 0.21396607 0.00640806
v 0.16912044 0.20956505 -0.03166818
v 0.16228523 0.20524987 -0.06899377
v 0.14916823 0.20119275 -0.10408581
v 0.13033935 0.19754582 -0.13560757
v 0.1066107 0.19444039 -0.16238847
v 0.07896903 0.19198748 -0.18345235
v 0.04849565 0.19027684 -0.1980222
v 0.01633514 0.18937525 -0.20556335
g Group16191
f 483 228 227 484
g Group57741
f 3 2 451 452
g Group16191
f 484 227 229 485
g Group57741
f 4 3 452 453
g Group16191
f 485 229 230 486
g Group57741
f 5 4 453 454
g Group16191
f 486 230 231 487
g Group57741
f 6 5 454 455
g Group16191
f 487 231 232 488
g Group57741
f 7 6 455 456
g Group16191
f 488 232 233 489
g Group57741
f 8 7 456 457
g Group16191
f 489 233 234 490
g Group57741
f 9 8 457 458
g Group16191
f 490 234 235 491
g Group57741
f 10 9 458 459
g Group16191
f 491 235 236 492
g Group57741
f 11 10 459 460
g Group16191
f 492 236 237 493
g Group57741
f 12 11 460 461
g Group16191
f 493 237 238 494
g Group57741
f 13 12 461 462
g Group16191
f 494 238 239 495
g Group57741
f 14 13 462 463
g Group16191
f 495 239 240 496
g Group57741
f 15 14 463 464
g Group16191
f 496 240 241 497
g Group57741
f 16 15 464 465
g Group16191
f 497 241 242 498
g Group57741
f 17 16 465 466
g Group16191
f 498 242 243 499
g Group57741
f 18 17 466 467
g Group16191
f 499 243 244 500
g Group57741
f 19 18 467 468
g Group16191
f 500 244 245 501
g Group57741
f 20 19 468 469
g Group16191
f 501 245 246 502
g Group57741
f 21 20 469 470
g Group16191
f 502 246 247 503
g Group57741
f 22 21 470 471
g Group16191
f 503 247 248 504
g Group57741
f 23 22 471 472
g Group16191
f 504 248 249 505
g Group57741
f 24 23 472 473
g Group16191
f 505 249 250 506
g Group57741
f 25 24 473 474
g Group16191
f 506 250 251 507
g Group57741
f 26 25 474 475
g Group16191
f 507 251 252 508
g Group57741
f 27 26 475 476
g Group16191
f 508 252 253 509
g Group57741
f 28 27 476 477
g Group16191
f 509 253 254 510
g Group57741
f 29 28 477 478
g Group16191
f 510 254 255 511
g Group57741
f 30 29 478 479
g Group16191
f 511 255 256 512
g Group57741
f 31 30 479 480
g Group16191
f 512 256 257 513
g Group57741
f 32 31 480 481
g Group16191
f 513 257 258 514
g Group57741
f 33 32 481 482
g Group16191
f 514 258 228 483
g Group57741
f 2 33 482 451
g Group16191
f 226 514 483
g Group57741
f 482 1 451
g Group16191
f 226 513 514
g Group57741
f 481 1 482
g Group16191
f 226 512 513
g Group57741
f 480 1 481
g Group16191
f 226 511 512
g Group57741
f 479 1 480
g Group16191
f 226 510 511
g Group57741
f 478 1 479
g Group16191
f 226 509 510
g Group57741
f 477 1 478
g Group16191
f 226 508 509
g Group57741
f 476 1 477
g Group16191
f 226 507 508
g Group57741
f 475 1 476
g Group16191
f 226 506 507
g Group57741
f 474 1 475
g Group16191
f 226 505 506
g Group57741
f 473 1 474
g Group16191
f 226 504 505
g Group57741
f 472 1 473
g Group16191
f 226 503 504
g Group57741
f 471 1 472
g Group16191
f 226 502 503
g Group57741
f 470 1 471
g Group16191
f 226 501 502
g Group57741
f 469 1 470
g Group16191
f 226 500 501
g Group57741
f 468 1 469
g Group16191
f 226 499 500
g Group57741
f 467 1 468
g Group16191
f 226 498 499
g Group57741
f 466 1 467
g Group16191
f 226 497 498
g Group57741
f 465 1 466
g Group16191
f 226 496 497
g Group57741
f 464 1 465
g Group16191
f 226 495 496
g Group57741
f 463 1 464
g Group16191
f 226 494 495
g Group57741
f 462 1 463
g Group16191
f 226 493 494
g Group57741
f 461 1 462
g Group16191
f 226 492 493
g Group57741
f 460 1 461
g Group16191
f 226 491 492
g Group57741
f 459 1 460
g Group16191
f 226 490 491
g Group57741
f 458 1 459
g Group16191
f 226 489 490
g Group57741
f 457 1 458
g Group16191
f 226 488 489
g Group57741
f 456 1 457
g Group16191
f 226 487 488
g Group57741
f 455 1 456
g Group16191
f 226 486 487
g Group57741
f 454 1 455
g Group16191
f 226 485 486
g Group57741
f 453 1 454
g Group16191
f 226 484 485
g Group57741
f 452 1 453
g Group16191
f 226 483 484
g Group57741
f 451 1 452
g Group16191
f 228 260 259 227
g Group57741
f 2 3 35 34
g Group16191
f 227 259 261 229
g Group57741
f 3 4 36 35
g Group16191
f 229 261 262 230
g Group57741
f 4 5 37 36
g Group16191
f 230 262 263 231
g Group57741
f 5 6 38 37
g Group16191
f 231 263 264 232
g Group57741
f 6 7 39 38
g Group16191
f 232 264 265 233
g Group57741
f 7 8 40 39
g Group16191
f 233 265 266 234
g Group57741
f 8 9 41 40
g Group16191
f 234 266 267 235
g Group57741
f 9 10 42 41
g Group16191
f 235 267 268 236
g Group57741
f 10 11 43 42
g Group16191
f 236 268 269 237
g Group57741
f 11 12 44 43
g Group16191
f 237 269 270 238
g Group57741
f 12 13 45 44
g Group16191
f 238 270 271 239
g Group57741
f 13 14 46 45
g Group16191
f 239 271 272 240
g Group57741
f 14 15 47 46
g Group16191
f 240 272 273 241
g Group57741
f 15 16 48 47
g Group16191
f 241 273 274 242
g Group57741
f 16 17 49 48
g Group16191
f 242 274 275 243
g Group57741
f 17 18 50 49
g Group16191
f 243 275 276 244
g Group57741
f 18 19 51 50
g Group16191
f 244 276 277 245
g Group57741
f 19 20 52 51
g Group16191
f 245 277 278 246
g Group57741
f 20 21 53 52
g Group16191
f 246 278 279 247
g Group57741
f 21 22 54 53
g Group16191
f 247 279 280 248
g Group57741
f 22 23 55 54
g Group16191
f 248 280 281 249
g Group57741
f 23 24 56 55
g Group16191
f 249 281 282 250
g Group57741
f 24 25 57 56
g Group16191
f 250 282 283 251
g Group57741
f 25 26 58 57
g Group16191
f 251 283 284 252
g Group57741
f 26 27 59 58
g Group16191
f 252 284 285 253
g Group57741
f 27 28 60 59
g Group16191
f 253 285 286 254
g Group57741
f 28 29 61 60
g Group16191
f 254 286 287 255
g Group57741
f 29 30 62 61
g Group16191
f 255 287 288 256
g Group57741
f 30 31 63 62
g Group16191
f 256 288 289 257
g Group57741
f 31 32 64 63
g Group16191
f 257 289 290 258
g Group57741
f 32 33 65 64
g Group16191
f 258 290 260 228
g Group57741
f 33 2 34 65
g Group16191
f 294 293 292 291
g Group16194
f 225 194 292 293
g Group57741
f 193 162 194 225
g Group16191
f 296 295 293 294
g Group16194
f 224 225 293 295
g Group57741
f 192 193 225 224
g Group16191
f 298 297 295 296
g Group16194
f 223 224 295 297
g Group57741
f 191 192 224 223
g Group16191
f 300 299 297 298
g Group16194
f 222 223 297 299
g Group57741
f 190 191 223 222
g Group16191
f 302 301 299 300
g Group16194
f 221 222 299 301
g Group57741
f 189 190 222 221
g Group16191
f 304 303 301 302
g Group16194
f 220 221 301 303
g Group57741
f 188 189 221 220
g Group16191
f 306 305 303 304
g Group16194
f 219 220 303 305
g Group57741
f 187 188 220 219
g Group16191
f 308 307 305 306
g Group16194
f 218 219 305 307
g Group57741
f 186 187 219 218
g Group16191
f 310 309 307 308
g Group16194
f 217 218 307 309
g Group57741
f 185 186 218 217
g Group16191
f 312 311 309 310
g Group16194
f 216 217 309 311
g Group57741
f 184 185 217 216
g Group16191
f 314 313 311 312
g Group16194
f 215 216 311 313
g Group57741
f 183 184 216 215
g Group16191
f 316 315 313 314
g Group16194
f 214 215 313 315
g Group57741
f 182 183 215 214
g Group16191
f 318 317 315 316
g Group16194
f 213 214 315 317
g Group57741
f 181 182 214 213
g Group16191
f 320 319 317 318
g Group16194
f 212 213 317 319
g Group57741
f 180 181 213 212
g Group16191
f 322 321 319 320
g Group16194
f 211 212 319 321
g Group57741
f 179 180 212 211
g Group16191
f 324 323 321 322
g Group16194
f 210 211 321 323
g Group57741
f 178 179 211 210
g Group16191
f 326 325 323 324
g Group16194
f 209 210 323 325
g Group57741
f 177 178 210 209
g Group16191
f 328 327 325 326
g Group16194
f 208 209 325 327
g Group57741
f 176 177 209 208
g Group16191
f 330 329 327 328
g Group16194
f 207 208 327 329
g Group57741
f 175 176 208 207
g Group16191
f 332 331 329 330
g Group16194
f 206 207 329 331
g Group57741
f 174 175 207 206
g Group16191
f 334 333 331 332
g Group16194
f 205 206 331 333
g Group57741
f 173 174 206 205
g Group16191
f 336 335 333 334
g Group16194
f 204 205 333 335
g Group57741
f 172 173 205 204
g Group16191
f 338 337 335 336
g Group16194
f 203 204 335 337
g Group57741
f 171 172 204 203
g Group16191
f 340 339 337 338
g Group16194
f 202 203 337 339
g Group57741
f 170 171 203 202
g Group16191
f 342 341 339 340
g Group16194
f 201 202 339 341
g Group57741
f 169 170 202 201
g Group16191
f 344 343 341 342
g Group16194
f 200 201 341 343
g Group57741
f 168 169 201 200
g Group16191
f 346 345 343 344
g Group16194
f 199 200 343 345
g Group57741
f 167 168 200 199
g Group16191
f 348 347 345 346
g Group16194
f 198 199 345 347
g Group57741
f 166 167 199 198
g Group16191
f 350 349 347 348
g Group16194
f 197 198 347 349
g Group57741
f 165 166 198 197
g Group16191
f 352 351 349 350
g Group16194
f 196 197 349 351
g Group57741
f 164 165 197 196
g Group16191
f 354 353 351 352
g Group16194
f 195 196 351 353
g Group57741
f 163 164 196 195
g Group16191
f 291 292 353 354
g Group16194
f 194 195 353 292
g Group57741
f 162 163 195 194
g Group16191
f 356 294 291 355
g Group57741
f 161 130 162 193
g Group16191
f 357 296 294 356
g Group57741
f 160 161 193 192
g Group16191
f 358 298 296 357
g Group57741
f 159 160 192 191
g Group16191
f 359 300 298 358
g Group57741
f 158 159 191 190
g Group16191
f 360 302 300 359
g Group57741
f 157 158 190 189
g Group16191
f 361 304 302 360
g Group57741
f 156 157 189 188
g Group16191
f 362 306 304 361
g Group57741
f 155 156 188 187
g Group16191
f 363 308 306 362
g Group57741
f 154 155 187 186
g Group16191
f 364 310 308 363
g Group57741
f 153 154 186 185
g Group16191
f 365 312 310 364
g Group57741
f 152 153 185 184
g Group16191
f 366 314 312 365
g Group57741
f 151 152 184 183
g Group16191
f 367 316 314 366
g Group57741
f 150 151 183 182
g Group16191
f 368 318 316 367
g Group57741
f 149 150 182 181
g Group16191
f 369 320 318 368
g Group57741
f 148 149 181 180
g Group16191
f 370 322 320 369
g Group57741
f 147 148 180 179
g Group16191
f 371 324 322 370
g Group57741
f 146 147 179 178
g Group16191
f 372 326 324 371
g Group57741
f 145 146 178 177
g Group16191
f 373 328 326 372
g Group57741
f 144 145 177 176
g Group16191
f 374 330 328 373
g Group57741
f 143 144 176 175
g Group16191
f 375 332 330 374
g Group57741
f 142 143 175 174
g Group16191
f 376 334 332 375
g Group57741
f 141 142 174 173
g Group16191
f 377 336 334 376
g Group57741
f 140 141 173 172
g Group16191
f 378 338 336 377
g Group57741
f 139 140 172 171
g Group16191
f 379 340 338 378
g Group57741
f 138 139 171 170
g Group16191
f 380 342 340 379
g Group57741
f 137 138 170 169
g Group16191
f 381 344 342 380
g Group57741
f 136 137 169 168
g Group16191
f 382 346 344 381
g Group57741
f 135 136 168 167
g Group16191
f 383 348 346 382
g Group57741
f 134 135 167 166
g Group16191
f 384 350 348 383
g Group57741
f 133 134 166 165
g Group16191
f 385 352 350 384
g Group57741
f 132 133 165 164
g Group16191
f 386 354 352 385
g Group57741
f 131 132 164 163
g Group16191
f 355 291 354 386
g Group57741
f 130 131 163 162
g Group16191
f 388 356 355 387
g Group57741
f 129 98 130 161
g Group16191
f 389 357 356 388
g Group57741
f 128 129 161 160
g Group16191
f 390 358 357 389
g Group57741
f 127 128 160 159
g Group16191
f 391 359 358 390
g Group57741
f 126 127 159 158
g Group16191
f 392 360 359 391
g Group57741
f 125 126 158 157
g Group16191
f 393 361 360 392
g Group57741
f 124 125 157 156
g Group16191
f 394 362 361 393
g Group57741
f 123 124 156 155
g Group16191
f 395 363 362 394
g Group57741
f 122 123 155 154
g Group16191
f 396 364 363 395
g Group57741
f 121 122 154 153
g Group16191
f 397 365 364 396
g Group57741
f 120 121 153 152
g Group16191
f 398 366 365 397
g Group57741
f 119 120 152 151
g Group16191
f 399 367 366 398
g Group57741
f 118 119 151 150
g Group16191
f 400 368 367 399
g Group57741
f 117 118 150 149
g Group16191
f 401 369 368 400
g Group57741
f 116 117 149 148
g Group16191
f 402 370 369 401
g Group57741
f 115 116 148 147
g Group16191
f 403 371 370 402
g Group57741
f 114 115 147 146
g Group16191
f 404 372 371 403
g Group57741
f 113 114 146 145
g Group16191
f 405 373 372 404
g Group57741
f 112 113 145 144
g Group16191
f 406 374 373 405
g Group57741
f 111 112 144 143
g Group16191
f 407 375 374 406
g Group57741
f 110 111 143 142
g Group16191
f 408 376 375 407
g Group57741
f 109 110 142 141
g Group16191
f 409 377 376 408
g Group57741
f 108 109 141 140
g Group16191
f 410 378 377 409
g Group57741
f 107 108 140 139
g Group16191
f 411 379 378 410
g Group57741
f 106 107 139 138
g Group16191
f 412 380 379 411
g Group57741
f 105 106 138 137
g Group16191
f 413 381 380 412
g Group57741
f 104 105 137 136
g Group16191
f 414 382 381 413
g Group57741
f 103 104 136 135
g Group16191
f 415 383 382 414
g Group57741
f 102 103 135 134
g Group16191
f 416 384 383 415
g Group57741
f 101 102 134 133
g Group16191
f 417 385 384 416
g Group57741
f 100 101 133 132
g Group16191
f 418 386 385 417
g Group57741
f 99 100 132 131
g Group16191
f 387 355 386 418
g Group57741
f 98 99 131 130
g Group16191
f 260 420 419 259
g Group57741
f 34 35 67 66
g Group16191
f 259 419 421 261
g Group57741
f 35 36 68 67
g Group16191
f 261 421 422 262
g Group57741
f 36 37 69 68
g Group16191
f 262 422 423 263
g Group57741
f 37 38 70 69
g Group16191
f 263 423 424 264
g Group57741
f 38 39 71 70
g Group16191
f 264 424 425 265
g Group57741
f 39 40 72 71
g Group16191
f 265 425 426 266
g Group57741
f 40 41 73 72
g Group16191
f 266 426 427 267
g Group57741
f 41 42 74 73
g Group16191
f 267 427 428 268
g Group57741
f 42 43 75 74
g Group16191
f 268 428 429 269
g Group57741
f 43 44 76 75
g Group16191
f 269 429 430 270
g Group57741
f 44 45 77 76
g Group16191
f 270 430 431 271
g Group57741
f 45 46 78 77
g Group16191
f 271 431 432 272
g Group57741
f 46 47 79 78
g Group16191
f 272 432 433 273
g Group57741
f 47 48 80 79
g Group16191
f 273 433 434 274
g Group57741
f 48 49 81 80
g Group16191
f 274 434 435 275
g Group57741
f 49 50 82 81
g Group16191
f 275 435 436 276
g Group57741
f 50 51 83 82
g Group16191
f 276 436 437 277
g Group57741
f 51 52 84 83
g Group16191
f 277 437 438 278
g Group57741
f 52 53 85 84
g Group16191
f 278 438 439 279
g Group57741
f 53 54 86 85
g Group16191
f 279 439 440 280
g Group57741
f 54 55 87 86
g Group16191
f 280 440 441 281
g Group57741
f 55 56 88 87
g Group16191
f 281 441 442 282
g Group57741
f 56 57 89 88
g Group16191
f 282 442 443 283
g Group57741
f 57 58 90 89
g Group16191
f 283 443 444 284
g Group57741
f 58 59 91 90
g Group16191
f 284 444 445 285
g Group57741
f 59 60 92 91
g Group16191
f 285 445 446 286
g Group57741
f 60 61 93 92
g Group16191
f 286 446 447 287
g Group57741
f 61 62 94 93
g Group16191
f 287 447 448 288
g Group57741
f 62 63 95 94
g Group16191
f 288 448 449 289
g Group57741
f 63 64 96 95
g Group16191
f 289 449 450 290
g Group57741
f 64 65 97 96
g Group16191
f 290 450 420 260
g Group57741
f 65 34 66 97
g Group16191
f 420 387 418 419
g Group57741
f 66 67 99 98
g Group16191
f 419 418 417 421
g Group57741
f 67 68 100 99
g Group16191
f 421 417 416 422
g Group57741
f 68 69 101 100
g Group16191
f 422 416 415 423
g Group57741
f 69 70 102 101
g Group16191
f 423 415 414 424
g Group57741
f 70 71 103 102
g Group16191
f 424 414 413 425
g Group57741
f 71 72 104 103
g Group16191
f 425 413 412 426
g Group57741
f 72 73 105 104
g Group16191
f 426 412 411 427
g Group57741
f 73 74 106 105
g Group16191
f 427 411 410 428
g Group57741
f 74 75 107 106
g Group16191
f 428 410 409 429
g Group57741
f 75 76 108 107
g Group16191
f 429 409 408 430
g Group57741
f 76 77 109 108
g Group16191
f 430 408 407 431
g Group57741
f 77 78 110 109
g Group16191
f 431 407 406 432
g Group57741
f 78 79 111 110
g Group16191
f 432 406 405 433
g Group57741
f 79 80 112 111
g Group16191
f 433 405 404 434
g Group57741
f 80 81 113 112
g Group16191
f 434 404 403 435
g Group57741
f 81 82 114 113
g Group16191
f 435 403 402 436
g Group57741
f 82 83 115 114
g Group16191
f 436 402 401 437
g Group57741
f 83 84 116 115
g Group16191
f 437 401 400 438
g Group57741
f 84 85 117 116
g Group16191
f 438 400 399 439
g Group57741
f 85 86 118 117
g Group16191
f 439 399 398 440
g Group57741
f 86 87 119 118
g Group16191
f 440 398 397 441
g Group57741
f 87 88 120 119
g Group16191
f 441 397 396 442
g Group57741
f 88 89 121 120
g Group16191
f 442 396 395 443
g Group57741
f 89 90 122 121
g Group16191
f 443 395 394 444
g Group57741
f 90 91 123 122
g Group16191
f 444 394 393 445
g Group57741
f 91 92 124 123
g Group16191
f 445 393 392 446
g Group57741
f 92 93 125 124
g Group16191
f 446 392 391 447
g Group57741
f 93 94 126 125
g Group16191
f 447 391 390 448
g Group57741
f 94 95 127 126
g Group16191
f 448 390 389 449
g Group57741
f 95 96 128 127
g Group16191
f 449 389 388 450
g Group57741
f 96 97 129 128
g Group16191
f 450 388 387 420
g Group57741
f 97 66 98 129

 