# File exported by ZBrush version 2021
# www.zbrush.com
#Vertex Count 216
#Face Count 214
#Auto scale x=1.000000 y=1.000000 z=1.000000
#Auto offset x=0.000000 y=0.000000 z=0.000000
v -0.21869485 0.1251007 0.00907358
v -0.22352188 0.16282299 0.02918686
v -0.21435193 0.19254346 0.06313578
v -0.19622933 0.22701439 0.08900234
v -0.17449693 0.25309521 0.11113391
v -0.14663299 0.27049401 0.130829
v -0.11146 0.28070199 0.145627
v -0.069168 0.28713399 0.15610599
v -0.021996 0.29066899 0.16149699
v 0.02671599 0.291336 0.162081
v 0.07404299 0.288944 0.15777599
v 0.116584 0.283378 0.14823
v 0.15183399 0.27421501 0.13402499
v 0.179176 0.25857698 0.11521299
v 0.19944189 0.23450098 0.09455063
v 0.21768595 0.20021644 0.07730425
v 0.22506851 0.16485019 0.05264036
v 0.21717631 0.14320012 0.03391442
v -0.20267471 0.09176816 -0.00752176
v -0.19904108 0.10724218 0.02822012
v -0.18484053 0.13240611 0.06360022
v -0.16476091 0.15873181 0.09610118
v -0.14235155 0.17907029 0.12393356
v -0.116951 0.19267199 0.146309
v -0.08747699 0.20074099 0.162284
v -0.053141 0.205711 0.17334799
v -0.015603 0.208286 0.17912499
v 0.023018 0.20887699 0.17965899
v 0.060543 0.207367 0.174869
v 0.094832 0.203233 0.16465699
v 0.123943 0.196058 0.14934299
v 0.14858283 0.18357649 0.12783806
v 0.1704216 0.16418328 0.10080223
v 0.18988686 0.13679693 0.07124671
v 0.20009812 0.11177258 0.03945554
v 0.20117539 0.09598598 0.00661832
v -0.19810456 0.06047349 -0.01095747
v -0.19346894 0.07431552 0.02705507
v -0.17764754 0.09557318 0.06666271
v -0.15673886 0.11772535 0.10200772
v -0.13361783 0.13591857 0.13175849
v -0.108579 0.148899 0.15452499
v -0.080301 0.15767599 0.170808
v -0.048191 0.16342799 0.18208099
v -0.013624 0.16645599 0.18802399
v 0.021807 0.16701099 0.18852399
v 0.05626799 0.16503499 0.183504
v 0.088168 0.160198 0.17303399
v 0.115895 0.152408 0.157395
v 0.1401344 0.14041203 0.13539519
v 0.1623788 0.1231815 0.10636914
v 0.18267832 0.10141963 0.07154278
v 0.1981412 0.08006301 0.03200183
v 0.20232115 0.06619487 -0.00601963
v -0.19415807 0.03618827 -0.00732992
v -0.18895697 0.04881021 0.0322913
v -0.17374268 0.0674792 0.07268615
v -0.15377368 0.08654486 0.10806365
v -0.13087059 0.10319928 0.13782578
v -0.10595499 0.11630699 0.16020199
v -0.07771199 0.12674899 0.176602
v -0.04622 0.134183 0.18797899
v -0.012749 0.13827699 0.19402
v 0.02139399 0.13874299 0.19449099
v 0.054721 0.13561199 0.18933199
v 0.08592099 0.129131 0.178724
v 0.113572 0.119791 0.162936
v 0.13776066 0.10775449 0.14117227
v 0.16000358 0.09202142 0.11193206
v 0.17977552 0.073379 0.07669756
v 0.19521746 0.05483738 0.03582314
v 0.20042413 0.0423553 -0.00426585
v -0.1910098 0.02094481 -0.00174078
v -0.18631213 0.03309483 0.03782882
v -0.17229697 0.05055604 0.07767929
v -0.15343706 0.06833777 0.11236127
v -0.13108158 0.08448507 0.14134873
v -0.106172 0.098063 0.16316799
v -0.077549 0.110044 0.17956599
v -0.045906 0.118979 0.19097599
v -0.012511 0.12409099 0.197052
v 0.021426 0.12446899 0.19750699
v 0.05467199 0.120228 0.192294
v 0.08598999 0.112249 0.181639
v 0.11403 0.101443 0.165838
v 0.13824607 0.08906016 0.14458343
v 0.16003544 0.07387849 0.11605911
v 0.17869228 0.05656762 0.08166057
v 0.19283123 0.03921303 0.04160991
v 0.19756101 0.02715327 0.00162899
v -0.18413701 0.01456821 0.0185125
v -0.18036386 0.02035029 0.04085343
v -0.16691567 0.03703607 0.08081964
v -0.1487672 0.05406622 0.11546138
v -0.12715263 0.0697092 0.14420536
v -0.10289099 0.083131 0.165958
v -0.07492499 0.095596 0.18245099
v -0.044216 0.104941 0.19393199
v -0.011902 0.110445 0.20004899
v 0.020903 0.11077199 0.200488
v 0.053064 0.10610599 0.195214
v 0.08345499 0.09770599 0.18447199
v 0.110866 0.086442 0.16856899
v 0.13444207 0.07424898 0.14739388
v 0.15552716 0.05952083 0.11911317
v 0.17348794 0.04289957 0.08478686
v 0.18697619 0.02629612 0.04477114
v 0.1905085 0.01841506 0.02021097
v 0.18829684 0.08145079 0.02912592
v 0.19225624 0.0677486 -0.00732233
v 0.19131161 0.09910834 0.00501124
v 0.19066502 0.11501304 0.03558741
v 0.17366252 0.1022761 0.06653246
v 0.1820718 0.13929779 0.06465119
v 0.15401342 0.12340801 0.10028696
v 0.16310691 0.16566596 0.09354921
v 0.13255517 0.14017972 0.1283472
v 0.14162656 0.18432322 0.12019334
v 0.10972999 0.15168499 0.14909499
v 0.11826799 0.195902 0.14065699
v 0.083848 0.15890899 0.163715
v 0.090939 0.20215199 0.15512299
v 0.05379499 0.16324999 0.17362299
v 0.058386 0.20561799 0.164912
v 0.021112 0.164938 0.178424
v 0.022442 0.20679999 0.16956199
v -0.012601 0.16439999 0.17794999
v -0.014708 0.206236 0.169046
v -0.045449 0.161687 0.172266
v -0.05071499 0.20403699 0.163442
v -0.075823 0.15643499 0.161565
v -0.083414 0.19975499 0.15281599
v -0.102369 0.14820599 0.146263
v -0.111221 0.192597 0.13766199
v -0.12605162 0.13569974 0.12470658
v -0.13541691 0.1798743 0.11627302
v -0.14830313 0.11798759 0.09604742
v -0.15720194 0.16028344 0.08914809
v -0.16852188 0.09656012 0.06186105
v -0.1765625 0.13480235 0.05770789
v -0.18366453 0.07631284 0.02409193
v -0.18997484 0.11056975 0.02408694
v -0.18821045 0.06298178 -0.01265448
v -0.19338071 0.09554336 -0.01059915
v -0.21548101 0.16709503 0.02429276
v -0.21056252 0.12985079 0.00488507
v -0.2069626 0.19583566 0.05665979
v -0.18953426 0.22933423 0.08151722
v -0.16814473 0.25449347 0.10312268
v -0.14130799 0.270774 0.12195099
v -0.107703 0.27985701 0.13603
v -0.06695199 0.28549701 0.146152
v -0.02118399 0.288621 0.151417
v 0.02621 0.28925401 0.151987
v 0.07209199 0.287211 0.147781
v 0.11299999 0.28240099 0.138574
v 0.14656199 0.27436399 0.125106
v 0.17276799 0.25985801 0.107224
v 0.19311107 0.23661807 0.08668596
v 0.21126842 0.20356254 0.06987375
v 0.216755 0.16956403 0.04803936
v 0.20827804 0.14794281 0.03185633
v 0.17780827 0.02999955 0.04182631
v 0.18134972 0.02268688 0.01839653
v 0.18796262 0.03048129 -0.00006201
v 0.18319192 0.04171053 0.03874221
v 0.16465857 0.04534298 0.080032
v 0.16941569 0.05758684 0.07705815
v 0.1472636 0.06087622 0.11306285
v 0.15139152 0.0739539 0.11024398
v 0.12707026 0.07476221 0.14015378
v 0.13059161 0.08858756 0.1375464
v 0.10477899 0.08618699 0.160209
v 0.10778199 0.10057099 0.157607
v 0.078936 0.09668699 0.175226
v 0.08144 0.110922 0.17243799
v 0.050274 0.104418 0.18539799
v 0.051916 0.11844199 0.18248499
v 0.020043 0.10867 0.190393
v 0.020591 0.122372 0.18740999
v -0.010738 0.10835299 0.18998299
v -0.011367 0.122004 0.18698599
v -0.041184 0.103278 0.18418699
v -0.04290299 0.117218 0.18124
v -0.070275 0.09460499 0.17327299
v -0.07286199 0.10875 0.17043699
v -0.096789 0.082897 0.157615
v -0.099899 0.097227 0.15496
v -0.11981743 0.07025815 0.1369372
v -0.12344858 0.08408068 0.13430117
v -0.140511 0.05551154 0.10941749
v -0.14475522 0.06857634 0.10661537
v -0.15803571 0.03962114 0.07616925
v -0.16288451 0.05184788 0.07331582
v -0.17114694 0.0242234 0.03802763
v -0.17653869 0.03585511 0.03520406
v -0.17497025 0.01901442 0.01677998
v -0.18134972 0.02445467 -0.00332252
v 0.19050912 0.04443545 -0.00579261
v 0.18538069 0.05605262 0.03306894
v 0.17048145 0.07325924 0.07225295
v 0.15132544 0.09123623 0.10636728
v 0.12999862 0.10669841 0.13438819
v 0.10724999 0.11855699 0.154822
v 0.081412 0.127617 0.16953299
v 0.052067 0.13376699 0.179507
v 0.020616 0.13666099 0.184392
v -0.011652 0.136206 0.18395
v -0.043308 0.132366 0.178227
v -0.07305599 0.125273 0.16748499
v -0.09959799 0.11511299 0.15211699
v -0.12312139 0.10220915 0.13103294
v -0.14503881 0.08594156 0.10257656
v -0.16427621 0.06772411 0.06848835
v -0.17897434 0.05048707 0.02975844
v -0.18421764 0.03867248 -0.00882584
g Group32850
f 112 111 110 109
g Group32853
f 36 54 110 111
g Group57741
f 35 53 54 36
g Group32850
f 114 112 109 113
g Group57741
f 34 52 53 35
g Group32850
f 116 114 113 115
g Group57741
f 33 51 52 34
g Group32850
f 118 116 115 117
g Group57741
f 32 50 51 33
g Group32850
f 120 118 117 119
g Group57741
f 31 49 50 32
g Group32850
f 122 120 119 121
g Group57741
f 30 48 49 31
g Group32850
f 124 122 121 123
g Group57741
f 29 47 48 30
g Group32850
f 126 124 123 125
g Group57741
f 28 46 47 29
g Group32850
f 128 126 125 127
g Group57741
f 27 45 46 28
g Group32850
f 130 128 127 129
g Group57741
f 26 44 45 27
g Group32850
f 132 130 129 131
g Group57741
f 25 43 44 26
g Group32850
f 134 132 131 133
g Group57741
f 24 42 43 25
g Group32850
f 136 134 133 135
g Group57741
f 23 41 42 24
g Group32850
f 138 136 135 137
g Group57741
f 22 40 41 23
g Group32850
f 140 138 137 139
g Group57741
f 21 39 40 22
g Group32850
f 142 140 139 141
g Group57741
f 20 38 39 21
g Group32850
f 144 142 141 143
g Group32853
f 37 19 144 143
g Group57741
f 19 37 38 20
g Group32850
f 146 145 142 144
g Group32853
f 19 1 146 144
f 1 2 145 146
g Group57741
f 1 19 20 2
g Group32850
f 145 147 140 142
g Group32853
f 2 3 147 145
g Group57741
f 2 20 21 3
g Group32850
f 147 148 138 140
g Group32853
f 3 4 148 147
g Group57741
f 3 21 22 4
g Group32850
f 148 149 136 138
g Group32853
f 4 5 149 148
g Group57741
f 4 22 23 5
g Group32850
f 149 150 134 136
g Group32853
f 5 6 150 149
g Group57741
f 5 23 24 6
g Group32850
f 150 151 132 134
g Group32853
f 6 7 151 150
g Group57741
f 6 24 25 7
g Group32850
f 151 152 130 132
g Group32853
f 7 8 152 151
g Group57741
f 7 25 26 8
g Group32850
f 152 153 128 130
g Group32853
f 8 9 153 152
g Group57741
f 8 26 27 9
g Group32850
f 153 154 126 128
g Group32853
f 9 10 154 153
g Group57741
f 9 27 28 10
g Group32850
f 154 155 124 126
g Group32853
f 10 11 155 154
g Group57741
f 10 28 29 11
g Group32850
f 155 156 122 124
g Group32853
f 11 12 156 155
g Group57741
f 11 29 30 12
g Group32850
f 156 157 120 122
g Group32853
f 12 13 157 156
g Group57741
f 12 30 31 13
g Group32850
f 157 158 118 120
g Group32853
f 13 14 158 157
g Group57741
f 13 31 32 14
g Group32850
f 158 159 116 118
g Group32853
f 14 15 159 158
g Group57741
f 14 32 33 15
g Group32850
f 159 160 114 116
g Group32853
f 15 16 160 159
g Group57741
f 15 33 34 16
g Group32850
f 160 161 112 114
g Group32853
f 16 17 161 160
g Group57741
f 16 34 35 17
g Group32850
f 161 162 111 112
g Group32853
f 18 36 111 162
f 17 18 162 161
g Group57741
f 17 35 36 18
g Group32850
f 166 165 164 163
g Group32853
f 108 107 163 164
f 90 108 164 165
g Group57741
f 89 107 108 90
g Group32850
f 168 166 163 167
g Group32853
f 107 106 167 163
g Group57741
f 88 106 107 89
g Group32850
f 170 168 167 169
g Group32853
f 106 105 169 167
g Group57741
f 87 105 106 88
g Group32850
f 172 170 169 171
g Group32853
f 105 104 171 169
g Group57741
f 86 104 105 87
g Group32850
f 174 172 171 173
g Group32853
f 104 103 173 171
g Group57741
f 85 103 104 86
g Group32850
f 176 174 173 175
g Group32853
f 103 102 175 173
g Group57741
f 84 102 103 85
g Group32850
f 178 176 175 177
g Group32853
f 102 101 177 175
g Group57741
f 83 101 102 84
g Group32850
f 180 178 177 179
g Group32853
f 101 100 179 177
g Group57741
f 82 100 101 83
g Group32850
f 182 180 179 181
g Group32853
f 100 99 181 179
g Group57741
f 81 99 100 82
g Group32850
f 184 182 181 183
g Group32853
f 99 98 183 181
g Group57741
f 80 98 99 81
g Group32850
f 186 184 183 185
g Group32853
f 98 97 185 183
g Group57741
f 79 97 98 80
g Group32850
f 188 186 185 187
g Group32853
f 97 96 187 185
g Group57741
f 78 96 97 79
g Group32850
f 190 188 187 189
g Group32853
f 96 95 189 187
g Group57741
f 77 95 96 78
g Group32850
f 192 190 189 191
g Group32853
f 95 94 191 189
g Group57741
f 76 94 95 77
g Group32850
f 194 192 191 193
g Group32853
f 94 93 193 191
g Group57741
f 75 93 94 76
g Group32850
f 196 194 193 195
g Group32853
f 93 92 195 193
g Group57741
f 74 92 93 75
g Group32850
f 198 196 195 197
g Group32853
f 91 73 198 197
f 92 91 197 195
g Group57741
f 73 91 92 74
g Group32850
f 200 199 165 166
g Group32853
f 72 90 165 199
g Group57741
f 71 89 90 72
g Group32850
f 201 200 166 168
g Group57741
f 70 88 89 71
g Group32850
f 202 201 168 170
g Group57741
f 69 87 88 70
g Group32850
f 203 202 170 172
g Group57741
f 68 86 87 69
g Group32850
f 204 203 172 174
g Group57741
f 67 85 86 68
g Group32850
f 205 204 174 176
g Group57741
f 66 84 85 67
g Group32850
f 206 205 176 178
g Group57741
f 65 83 84 66
g Group32850
f 207 206 178 180
g Group57741
f 64 82 83 65
g Group32850
f 208 207 180 182
g Group57741
f 63 81 82 64
g Group32850
f 209 208 182 184
g Group57741
f 62 80 81 63
g Group32850
f 210 209 184 186
g Group57741
f 61 79 80 62
g Group32850
f 211 210 186 188
g Group57741
f 60 78 79 61
g Group32850
f 212 211 188 190
g Group57741
f 59 77 78 60
g Group32850
f 213 212 190 192
g Group57741
f 58 76 77 59
g Group32850
f 214 213 192 194
g Group57741
f 57 75 76 58
g Group32850
f 215 214 194 196
g Group57741
f 56 74 75 57
g Group32850
f 216 215 196 198
g Group32853
f 73 55 216 198
g Group57741
f 55 73 74 56
g Group32850
f 109 110 199 200
g Group32853
f 54 72 199 110
g Group57741
f 53 71 72 54
g Group32850
f 113 109 200 201
g Group57741
f 52 70 71 53
g Group32850
f 115 113 201 202
g Group57741
f 51 69 70 52
g Group32850
f 117 115 202 203
g Group57741
f 50 68 69 51
g Group32850
f 119 117 203 204
g Group57741
f 49 67 68 50
g Group32850
f 121 119 204 205
g Group57741
f 48 66 67 49
g Group32850
f 123 121 205 206
g Group57741
f 47 65 66 48
g Group32850
f 125 123 206 207
g Group57741
f 46 64 65 47
g Group32850
f 127 125 207 208
g Group57741
f 45 63 64 46
g Group32850
f 129 127 208 209
g Group57741
f 44 62 63 45
g Group32850
f 131 129 209 210
g Group57741
f 43 61 62 44
g Group32850
f 133 131 210 211
g Group57741
f 42 60 61 43
g Group32850
f 135 133 211 212
g Group57741
f 41 59 60 42
g Group32850
f 137 135 212 213
g Group57741
f 40 58 59 41
g Group32850
f 139 137 213 214
g Group57741
f 39 57 58 40
g Group32850
f 141 139 214 215
g Group57741
f 38 56 57 39
g Group32850
f 143 141 215 216
g Group32853
f 55 37 143 216
g Group57741
f 37 55 56 38

 