# File exported by ZBrush version 2021
# www.zbrush.com
#Vertex Count 920
#Face Count 922
#Auto scale x=0.107034 y=0.107034 z=0.107034
#Auto offset x=0.024762 y=-0.029012 z=-1.005673
v -2.5098484 1.53553559 12.85642683
v -0.35328147 1.54937015 12.85642683
v -0.34356041 0.03728454 12.8546323
v -2.51050732 0.023362 12.8546323
v 1.80331652 1.56323326 12.85642683
v 1.82341746 0.05120812 12.8546323
v 2.34245102 1.56668616 12.85642683
v 2.36515367 0.05469006 12.8546323
v 2.88161614 1.570136 12.85642683
v 2.90689183 0.05817025 12.8546323
v 3.4207512 1.57361646 12.85642683
v 3.44862693 0.06165235 12.8546323
v -4.12728489 1.52512371 12.85642683
v -4.13575049 0.0129491 12.8546323
v -3.58811726 1.52860362 12.85642683
v -3.59398365 0.0163996 12.8546323
v -3.04898332 1.53205443 12.85642683
v -3.05224326 0.0198799 12.8546323
v 2.88160723 1.57243867 11.84477559
v 3.42074201 1.57592025 11.84477559
v 3.44861746 0.0639253 11.84297995
v 2.90688209 0.06047351 11.84297995
v -4.1272963 1.52739659 11.84477559
v -4.13576218 0.01522212 11.84297995
v -3.58813118 1.53087705 11.84477559
v -3.59399562 0.01867283 11.84297995
v -0.35326727 1.54895222 12.96656125
v -2.5098317 1.53511598 12.96656125
v -2.51049173 0.02294243 12.96476756
v -0.34354632 0.03686702 12.96476756
v -2.51043103 0.16648536 13.07074741
v -2.50992219 1.39073637 13.07218387
v -0.35236869 1.40456746 13.07218387
v -0.34447406 0.18041369 13.07074741
v 1.8033303 1.56281533 12.96656125
v 1.82343179 0.05078858 12.96476756
v 1.80524581 1.41845632 13.07218387
v 1.82151949 0.19431247 13.07074741
v 2.342468 1.56626669 12.96656125
v 2.36516815 0.05427077 12.96476756
v 2.34461837 1.4218985 13.07218387
v 2.36298464 0.19780197 13.07074741
v 2.88162951 1.56971625 12.96656125
v 2.90690631 0.05775097 12.96476756
v 2.8840224 1.42534047 13.07218387
v 2.9044853 0.20129224 13.07074741
v 3.42076484 1.57319755 12.96656125
v 3.44864364 0.06123285 12.96476756
v 3.42340052 1.42884307 13.07218387
v 3.44598094 0.2047504 13.07074741
v -4.12726985 1.52470452 12.96656125
v -4.13573406 0.01252963 12.96476756
v -4.12807481 1.38031899 13.07218387
v -4.13495472 0.15607794 13.07074741
v -3.58810389 1.52818429 12.96656125
v -3.59396805 0.01598041 12.96476756
v -3.58867246 1.3837911 13.07218387
v -3.59342872 0.15953687 13.07074741
v -3.04896884 1.53163482 12.96656125
v -3.05222989 0.01946044 12.96476756
v -3.04929739 1.38726426 13.07218387
v -3.05193141 0.16299691 13.07074741
v 3.91904509 0.0669721 11.84297995
v 3.88856569 1.57887864 11.84477559
v 3.88857571 1.5766059 12.85642683
v 3.98891471 0.13641861 12.85472168
v 3.96133802 1.50578332 12.856333
v 3.96131686 1.5077871 11.91599759
v 3.98892418 0.13845037 11.91435174
v 3.9190565 0.06466881 12.8546323
v 3.88859075 1.57618602 12.96656125
v 3.98892863 0.13599918 12.96485582
v 3.96135668 1.50536456 12.96646992
v 3.91906987 0.06424924 12.96476756
v 3.74752391 1.4309097 13.07218387
v 3.7722004 0.20683524 13.07074741
v 3.88751487 0.23448593 13.03805054
v 3.864323 1.40542783 13.03912726
v -4.59063269 0.01232529 11.84297995
v -4.57956314 1.52452952 11.84477559
v -4.66706202 1.43478888 12.856333
v -4.67684602 0.09635065 12.85472168
v -4.67686523 0.09829619 11.92995258
v -4.66705422 1.43676266 11.93153883
v -4.57955563 1.52222587 12.85642683
v -4.59062183 0.01002203 12.8546323
v -4.66704893 1.43437011 12.96646992
v -4.67682764 0.09593118 12.96485582
v -4.57953975 1.52180683 12.96656125
v -4.59061014 0.00960253 12.96476756
v -4.44559395 0.15408328 13.07074741
v -4.4366511 1.3783416 13.07218387
v -4.57849255 1.34547739 13.03189402
v -4.58648064 0.18596143 13.03090584
v -5.59591301 4.49853209 11.79508681
v 4.96016973 4.56479484 11.7844068
v -5.63035345 1.80385349 11.80085492
v 5.0304623 1.87222456 11.79694343
v -5.65643466 -0.8941186 11.78770127
v 5.09174242 -0.82466057 11.78645833
v -5.68206814 -3.61182367 11.77636219
v 5.15271124 -3.5416099 11.77603893
v -5.35270429 -3.45266148 11.98819105
v 4.70390565 1.6928683 11.99680589
v 4.7628753 -0.83604197 11.99009444
v -5.32818456 -0.90002982 11.99743098
v -5.30260955 1.63039453 12.00884579
v 4.82091385 -3.38739498 11.98452097
v -5.27288861 4.15887803 12.0060216
v 4.64082628 4.27402265 11.98948188
v -5.37051925 -5.29316106 11.98736882
v -5.70221084 -5.57062534 11.77307385
v 4.86297067 -5.2268145 11.98694142
v 5.19830031 -5.49990287 11.77306104
v 3.97478375 -0.85786956 11.96667482
v 3.92182194 1.66832407 11.95919794
v 4.19681927 1.84298045 11.74572965
v 4.25201359 -0.85049773 11.75248537
v 4.0646886 -5.24443957 11.98524602
v 4.02689604 -3.40695324 11.97271189
v 4.36416751 -6.28328632 11.77280432
v 4.07935834 -5.96211799 11.98724826
v 4.30689188 -3.56424879 11.75844198
v 4.34797751 -5.51960786 11.7706779
v 3.86436616 4.24472744 11.93832852
v 4.13433631 4.53408461 11.72506725
v -4.6121957 -5.2999928 11.98601033
v -4.59918739 -3.46121869 11.97824193
v -4.90072897 -6.34279224 11.772806
v -4.61747876 -6.01798473 11.98733652
v -4.87967857 -3.62225532 11.76333663
v -4.89448335 -5.57879358 11.77136508
v -4.58117195 -0.91058579 11.97756171
v -4.5623535 1.61739068 11.97656184
v -4.84195562 1.78800902 11.76083487
v -4.86095562 -0.90703794 11.76203883
v -4.53594318 4.14743733 11.96175929
v -4.81561463 4.48097802 11.74628959
v -5.36734396 -4.96448161 11.98681473
v -4.60993562 -4.97183848 11.98276347
v -5.69851654 -5.22070838 11.77334477
v -4.89179587 -5.22958217 11.7680528
v 4.05782317 -4.91664666 11.98045077
v 4.34043771 -5.17074617 11.76597009
v 5.19003407 -5.15009449 11.7732927
v 4.85538938 -4.89843521 11.98533233
v -5.14131203 -4.96695747 11.98516555
v -5.12787966 -3.45562294 11.98413143
v -5.44273193 -3.61579753 11.76923476
v -5.45780596 -5.22385973 11.770461
v -5.1053502 -0.90384483 11.98932623
v -5.08183507 1.62560165 11.99566374
v -5.39540708 1.7971987 11.78058692
v -5.41928139 -0.89947545 11.77394592
v -5.05434218 4.15311299 11.98804709
v -5.36314067 4.4925507 11.77799634
v 4.71343377 4.55414295 11.76039132
v 4.40705686 4.2634774 11.96496688
v -4.61591033 -5.80371009 11.9870656
v -5.14420443 -5.29545817 11.98678383
v -5.4611834 -5.57338187 11.77214053
v -4.89883421 -6.11478619 11.77246157
v 4.52749846 -0.84366739 11.97874924
v 4.47022505 1.68392309 11.97862617
v 4.78105724 1.86026346 11.76700002
v 4.84065226 -0.83489906 11.76502061
v 4.61733008 -4.90426122 11.98296617
v 4.58384968 -3.39386336 11.97879351
v 4.90005738 -3.54985665 11.76458792
v 4.93638786 -5.15701699 11.76849022
v 4.07500079 -5.74792632 11.98685845
v 4.62472871 -5.23236041 11.98605933
v 4.94448481 -5.50619276 11.77148732
v 4.35932159 -6.05535656 11.77227223
v 8.49776541 8.44580402 6.12294941
v -9.18252253 8.33152841 6.12510674
v 8.66810323 3.87423174 6.11946505
v -9.29345244 3.75792159 6.12086781
v 8.79052201 -0.6991787 6.13276209
v -9.35645609 -0.81682772 6.13325465
v 8.91849005 -5.27234287 6.14398032
v -9.42502457 -5.39134245 6.14408446
v 8.92046751 -5.27322051 5.9292237
v -9.29492426 3.75884294 5.90471427
v -9.35818629 -0.81680134 5.91768778
v 8.79228174 -0.6990227 5.91768778
v 8.66963519 3.87545659 5.90471427
v -9.42696806 -5.39226464 5.9292237
v 8.49939371 8.44816016 5.90961616
v -9.18402832 8.33339505 5.90961616
v 9.02776549 -8.56214787 5.93260059
v 9.02566552 -8.56054352 6.14722244
v -9.49161783 -8.68236032 5.93260059
v -9.48955238 -8.68069193 6.14719432
v -7.94227551 -0.84604037 5.91768778
v -7.89351226 3.72971758 5.90471427
v -7.89225651 3.72895717 6.12145949
v -7.94081539 -0.8460609 6.13338245
v -8.04691219 -8.7119916 5.93260059
v -7.99572765 -5.4216754 5.9292237
v -8.06791248 -9.99494642 6.14746079
v -8.06965883 -9.9969211 5.93286789
v -7.99408264 -5.4207443 6.14408446
v -8.04518532 -8.71032098 6.14719432
v -7.80455271 8.30472494 5.90961616
v -7.80326744 8.30306378 6.12621019
v 7.65592964 -8.60829994 5.93260059
v 7.56135346 -5.3189488 5.9292237
v 7.69383273 -9.89087664 6.14746079
v 7.69562587 -9.89281679 5.93286789
v 7.55968172 -5.3181068 6.14397336
v 7.65413038 -8.60665939 6.14720769
v 7.44778006 -0.74438666 5.91768778
v 7.33892784 3.83033334 5.90471427
v 7.33763422 3.82949386 6.12123786
v 7.4463049 -0.74452288 6.13319422
v 7.18949453 8.40374832 5.90961616
v 7.18819812 8.40205097 6.12602725
v 9.00762224 -7.97455752 5.93230211
v 7.63821714 -8.0206099 5.93230211
v 9.00555735 -7.9730456 6.14692312
v 7.63644238 -8.01909409 6.14687607
v -8.03696252 -8.12412504 5.93230211
v -8.03523732 -8.12260978 6.14692312
v -9.47702549 -8.09297906 6.14692312
v -9.47908203 -8.09451993 5.93230211
v 8.59894724 -7.98894325 5.93230211
v 8.51486924 -5.2874815 5.9292237
v 8.5128606 -5.28708835 6.14162669
v 8.59695975 -7.98762067 6.14591351
v 8.39105159 -0.71319578 5.91768778
v 8.272517 3.86138215 5.90471427
v 8.27084749 3.85936849 6.11562206
v 8.38919775 -0.71414664 6.12889265
v 8.10846963 8.4343107 5.90961616
v 8.10684022 8.43166332 6.12148566
v -8.7709373 8.32215566 6.12451701
v -8.77233728 8.32420161 5.90961616
v 7.68367925 -9.50946899 5.93280775
v 8.61834428 -8.57657259 5.93260059
v 8.61635903 -8.57497213 6.14694094
v 7.68187386 -9.50765247 6.14735359
v -8.93564958 -0.82621223 5.91768778
v -8.87669107 3.74945961 5.90471427
v -8.87536627 3.74824701 6.11927042
v -8.934043 -0.82658569 6.13170654
v -9.04872179 -8.10405529 5.93230211
v -8.99986442 -5.40177382 5.9292237
v -8.99801114 -5.40100868 6.14318093
v -9.04676159 -8.10260018 6.14656812
v -8.06275749 -9.6134764 5.93280775
v -9.06046237 -8.69189234 5.93260059
v -9.05850161 -8.69027128 6.14709882
v -8.06101949 -9.61160085 6.14738756
v -8.64790595 -5.02724023 8.91821819
v -8.68954734 -7.50239996 8.91818611
v -8.30587488 -7.51021179 8.91697041
v -8.26690538 -5.03539342 8.91516172
v -8.54694966 3.35398809 8.91815443
v -8.59505357 -0.83636642 8.91826013
v -8.21780466 -0.84502449 8.91257358
v -8.17318678 3.34502632 8.91098743
v -8.45419389 7.54104258 8.91772623
v -8.08568345 7.53304197 8.91482168
v -8.69969303 -8.04091744 8.91815763
v -7.43027861 -9.24134961 8.91815763
v -7.4246475 -8.89011285 8.91809231
v -8.31532949 -8.04853659 8.91781801
v 7.84360686 -7.94377573 8.91743255
v 6.96463426 -8.79674174 8.9180118
v 6.97483007 -9.1478649 8.91815763
v 8.2275895 -7.93106842 8.91815763
v 7.55260886 3.44539093 8.90275627
v 7.65191291 -0.74324562 8.90677714
v 8.02941075 -0.7286851 8.91743464
v 7.92675209 3.46026059 8.91523631
v 7.75572207 -4.93203756 8.91205332
v 7.82705043 -7.40577949 8.91565
v 8.21046171 -7.39274529 8.91818611
v 8.13667587 -4.91835237 8.91805054
v 7.4108192 7.6319033 8.90636638
v 7.77922773 7.64512962 8.91160601
v -5.58934746 -3.44977743 11.99032332
v -5.60515044 -4.96185539 11.9876545
v -5.95186426 -5.21788614 11.77328296
v -5.9341991 -3.60899447 11.77619012
v 4.99792024 -0.82905577 11.99755962
v 4.93717082 1.70067262 12.00838331
v 5.2783961 1.87807968 11.79586282
v 5.34174277 -0.81874984 11.78541446
v -5.5351764 1.6342126 12.01576384
v -5.56282966 -0.89674329 12.00170221
v -5.90650184 -0.89135615 11.78742617
v -5.87841644 1.80663159 11.80070512
v -4.73506778 -6.19367411 11.98738386
v 4.19553039 -6.13630938 11.98734627
v 4.48808457 -6.46859404 11.77279263
v -5.02618105 -6.52960741 11.77280349
v 5.10252796 -5.28465592 11.98733847
v 5.45351023 -5.56123088 11.77293352
v -9.90919892 -8.08442937 5.93230211
v -9.85385787 -5.38222419 5.9292237
v -9.85179298 -5.38133765 6.14408446
v -9.90705384 -8.08288349 6.14692312
v -5.50320569 4.16312977 12.01526572
v -5.84135145 4.50231716 11.79996587
v 5.05775749 -3.38109534 11.98837593
v 5.40473751 -3.53559204 11.77541523
v 4.8697172 4.32920332 11.98728362
v 5.206003 4.57218484 11.79114554
v -5.60926073 -5.35157383 11.98754479
v -5.95658043 -5.63261826 11.77303042
v 9.43754923 -7.95885644 5.93230211
v 9.4623513 -8.65550283 5.9326301
v 9.46019508 -8.65381439 6.14725307
v 9.43538411 -7.95737794 6.14692312
v 5.09327661 -4.89260473 11.98691497
v 5.44332722 -5.14398335 11.77303543
v -9.9250509 -8.78572176 5.9326301
v -9.92289691 -8.78403833 6.14725307
v 7.91636916 -10.20199339 5.93286789
v 7.9145248 -10.19995635 6.14746079
v -9.71283725 3.76881349 5.90471427
v -9.59543033 8.34316541 5.90961616
v -9.59384881 8.34147196 6.12610967
v -9.71128468 3.76802162 6.12135842
v -9.78046406 -0.80676869 5.91768778
v -9.7786442 -0.8068099 6.13335321
v -8.2796216 -10.30910816 5.93286789
v -8.27781232 -10.3070455 6.14746079
v 9.34715963 -5.25763026 5.92921619
v 9.34505798 -5.25675875 6.1440413
v 9.0874407 3.89077954 5.90465441
v 9.21439523 -0.68351529 5.91765325
v 9.21258984 -0.68364058 6.13316833
v 9.08583913 3.88987379 6.12095552
v 8.91062588 8.46324811 5.90954794
v 8.90902987 8.46147502 6.12568561
v -8.42325173 8.31515575 6.12593732
v -8.52210527 3.74118334 6.12107441
v -8.52347462 3.74202673 5.90471427
v -8.42464336 8.3168364 5.90961616
v -8.57716788 -0.83377299 6.13307171
v -8.63731922 -5.40840007 6.14391071
v 8.25186977 -7.99922315 6.14664051
v 8.27066094 -8.58668988 6.14713418
v -8.68333318 -8.11009292 6.14685853
v -8.694425 -8.69782138 6.14717567
v -8.69629666 -8.69948755 5.93260059
v -8.68521152 -8.11163658 5.93230211
v 8.27257993 -8.58830314 5.93260059
v 8.25376147 -8.00066322 5.93230211
v -8.63910344 -5.40926044 5.9292237
v -8.57874774 -0.83368493 5.91768778
v -8.05532433 -9.28776063 6.14731238
v -8.0570551 -9.28959386 5.93272004
v 7.67190358 -9.18396261 6.14729929
v 7.67370006 -9.18570117 5.93272004
v 7.77685656 8.42112336 6.12511147
v 7.93566263 3.84878148 6.12002276
v 7.93709547 3.8498671 5.90471427
v 7.77831056 8.42300559 5.90961616
v 8.05052352 -0.72501753 6.13219352
v 8.1704464 -5.29838009 6.14340062
v 8.17229355 -5.29914022 5.9292237
v 8.05216352 -0.72471048 5.91768778
v -9.58783345 8.58613634 6.12614058
v -9.58896391 8.6287996 5.82613458
v -9.17787653 8.62286889 5.81836507
v -9.17686302 8.57638659 6.12601528
v 8.9005097 8.74653229 5.83106069
v 8.89988655 8.70603639 6.12584822
v 8.48903807 8.6908404 6.12538935
v 8.48953592 8.73526227 5.82331875
v -8.76655415 8.6174544 5.81061338
v -8.76558741 8.56714637 6.12599384
v -8.41919212 8.61328118 5.80410241
v -8.41823374 8.55982236 6.12601667
v -7.80076318 8.60673457 5.79273326
v -7.79875397 8.54771814 6.1260615
v 7.18171444 8.70295019 5.79869265
v 7.18044866 8.64661623 6.12586994
v 7.76903137 8.71680411 5.80963217
v 7.76865046 8.66576547 6.12552022
v 8.09891868 8.72506534 5.81589645
v 8.09849601 8.67700208 6.12528633
v 3.84404972 4.57438588 11.92746502
v -4.56334223 4.53452287 11.95098266
v -4.81554391 4.53776026 11.77225024
v 4.13249834 4.58995024 11.74671699
v 4.63303115 4.60397094 11.98446194
v 4.39360862 4.59092533 11.96024988
v 4.71137668 4.60940604 11.77908893
v 4.95822067 4.62085927 11.80714286
v -5.09693026 4.54365867 11.98318864
v -5.36297528 4.54919902 11.80349979
v -5.29637701 4.5541112 12.00288223
v -5.5955644 4.55592745 11.82437757
v -5.51666868 4.55973508 12.01203891
v -5.82264437 4.55524946 11.81526655
v 5.14505701 4.63038906 11.822732
v 4.86295285 4.60689676 11.98139885
v -3.07316475 -9.37946892 12.61987638
v 2.10514461 -9.34614333 12.61884087
v -3.07318006 -9.4014777 12.86690748
v 2.10511788 -9.36804965 12.86740477
v 8.3936895 10.83436034 8.08384437
v 8.80852186 10.84114084 8.08442937
v 8.82788549 10.51203148 8.13398937
v 8.41265107 10.49659047 8.13282982
v -9.11562021 10.38137318 8.12549982
v -9.53376876 10.39128109 8.12554716
v -9.51862846 10.72599149 8.07599453
v -9.10107075 10.72478419 8.0763739
v 8.42046068 10.44417969 7.12770055
v 8.83343697 10.45237577 7.13260216
v 8.84967209 10.16718597 7.28414492
v 8.43628259 10.15184853 7.28356131
v -9.12843778 10.03335794 7.27672151
v -9.5501403 10.04330817 7.27668099
v -9.53744747 10.33310109 7.12218249
v -9.11623221 10.33050717 7.11779362
v 8.461842 9.77807229 6.34487885
v 8.8736433 9.78832212 6.35176181
v 8.88363474 9.59684535 6.58320489
v 8.47160011 9.58157307 6.5828858
v -9.15128912 9.46264589 6.57834087
v -9.57708355 9.47271529 6.57825623
v -9.56931961 9.66735009 6.34243723
v -9.14382812 9.66257322 6.3356261
v 1.99829645 -9.36961447 12.86734992
v 1.99848021 -9.34785962 12.61815536
v -2.97168527 -9.40164254 12.86724244
v -2.97186263 -9.37971394 12.61961743
v 8.04335822 10.8288406 8.08248045
v 8.07175658 10.43763085 7.12312583
v 8.11409239 9.76984503 6.33891946
v 8.0618871 10.48374004 8.13084178
v 8.08712186 10.13921083 7.28260892
v 8.12356816 9.56906066 6.58253608
v -8.76250456 10.37330407 8.12492722
v -8.77224763 10.02539909 7.27656669
v -8.79164913 9.45460629 6.57833085
v -8.74845295 10.72402795 8.07624652
v -8.76061508 10.32870847 7.11385151
v -8.78452336 9.65896245 6.32981261
v -3.19329478 -9.0502738 12.89005229
v -3.07327918 -9.05047371 12.89060582
v -3.19326777 -9.04162108 12.63462102
v -3.07339474 -9.04191567 12.63441191
v 1.99323947 -9.01841112 12.8899373
v 1.99432997 -9.0105965 12.63119875
v -2.97162652 -9.05056616 12.89071775
v -2.97216223 -9.04220803 12.63386868
v 2.10040269 -9.01693874 12.89060499
v 2.22690489 -9.01498968 12.89062615
v 2.22721062 -9.00664994 12.63358217
v 2.10096485 -9.00873599 12.63261321
v -3.19358241 -6.9344656 12.41675231
v -3.07345766 -6.93470784 12.41718054
v -3.19397834 -6.9317525 12.10094027
v -3.07465828 -6.93213508 12.10036168
v 1.9624485 -6.90455254 12.41269548
v 1.96860586 -6.90260125 12.09210323
v -2.970728 -6.93518118 12.41640593
v -2.97395342 -6.9326836 12.09865597
v 2.07117375 -6.90237349 12.41582734
v 2.19835339 -6.90025458 12.41687315
v 2.20050181 -6.89777705 12.09896253
v 2.07485093 -6.90019722 12.09650616
v -2.85881799 -6.9335707 12.09512956
v -8.35683055 10.72351563 8.07547608
v -8.3680744 10.32705789 7.10927526
v -8.39047467 9.65540959 6.32341357
v -8.37022505 10.36474603 8.12356969
v -8.3791278 10.01701256 7.27602151
v -8.39718612 9.44636678 6.57823618
v -2.85639586 -9.04258281 12.63263687
v -2.85594674 -9.3799534 12.61901545
v -2.85567972 -9.40183521 12.86731901
v -2.85559007 -9.05069145 12.89026891
v -2.85467039 -6.93585221 12.41408961
v 7.65806581 10.46944508 8.12814149
v 7.68254434 10.12500719 7.2813011
v 7.71766974 9.55495448 6.58211509
v 1.87897179 -9.37134523 12.86696846
v 1.87911574 -9.34974185 12.61710036
v 1.84973255 -6.90548252 12.08616918
v 7.64013613 10.82284418 8.0805215
v 7.66763737 10.43044049 7.11764006
v 7.70851918 9.76071452 6.3319279
v 1.87500907 -9.01277054 12.62908958
v 1.87405946 -9.02009622 12.88865537
v 1.84450308 -6.9071743 12.40826777
v 1.67766076 -6.90894683 12.08097493
v 7.05869367 10.81523839 8.07960196
v 7.08430487 10.42105381 7.11034696
v 7.12238561 9.74850672 6.32213805
v 1.70226751 -9.01553208 12.62720178
v 1.70625737 -9.35234023 12.6161392
v 1.70654347 -9.37368967 12.86686989
v 1.70237164 -9.02239166 12.8877705
v 1.677116 -6.91023433 12.40473496
v 7.07320136 10.44989545 8.12553797
v 7.09649095 10.10558008 7.27995694
v 7.12973245 9.53561646 6.58166847
v -2.68424375 -6.93483258 12.08983035
v -7.76565949 10.72338086 8.07518191
v -7.77490416 10.3253817 7.10249099
v -7.79434186 9.65095237 6.31388016
v -2.68084598 -9.04313077 12.63072902
v -2.68023899 -9.38034878 12.61805345
v -2.6801833 -9.40201453 12.86733906
v -2.6807179 -9.05078278 12.889506
v -2.68319265 -6.93672372 12.4106434
v -7.77542039 10.35272868 8.12156898
v -7.78299944 10.00532823 7.27520569
v -7.79907863 9.43470082 6.57805909
v -2.44255404 -0.89928291 11.96574539
v -2.44191545 1.62713138 11.95760695
v -0.303769 -0.88708576 11.95815882
v -0.321172 1.63825773 11.94541753
v 1.83535378 -0.87324229 11.95861629
v 1.80007537 1.65204775 11.94623864
v -2.58289597 1.79854258 11.74128524
v -2.58309895 -0.8948369 11.75024256
v -0.32356653 1.81059125 11.72926149
v -0.30506674 -0.88173907 11.74282054
v 1.9363595 1.82545422 11.73098571
v 1.97331715 -0.86687888 11.74386106
v -2.44305871 -4.95845344 11.98028956
v -2.44285879 -3.44857653 11.97226945
v -0.27617804 -4.94485346 11.97871221
v -0.28645107 -3.43552423 11.96844707
v 1.89080231 -4.9309188 11.97877207
v 1.87015926 -3.42161825 11.9686545
v -2.58323872 -3.60869794 11.75745687
v -2.58382483 -5.21526159 11.76561647
v -0.28668823 -3.59469338 11.75378011
v -0.27581998 -5.20076058 11.76409982
v 2.01003898 -3.57984071 11.75422783
v 2.03229292 -5.18591431 11.76424461
v -2.43669795 4.1676644 11.93586018
v -0.33704957 4.18977648 11.9191804
v 1.76330218 4.21554278 11.92047903
v -2.57901149 4.48990137 11.71964831
v -0.34197551 4.50084395 11.70301127
v 1.89580638 4.51565207 11.70526619
v 3.71849211 -8.04496313 6.14692312
v 3.72929658 -8.6325908 6.14722244
v -0.19941698 -8.07084386 6.14692312
v -0.1955483 -8.65849937 6.14722244
v -4.1173483 -8.09672237 6.14692312
v -4.1203582 -8.68440572 6.14719432
v 3.73019955 -8.63424137 5.93260059
v 3.71939341 -8.04648897 5.93230211
v -0.19551605 -8.66014605 5.93260059
v -0.19940904 -8.07237137 5.93230211
v -4.12122414 -8.68608637 5.93260059
v -4.11817721 -8.09825099 5.93230211
v -2.44318749 -5.7897654 11.98697845
v -2.44299286 -5.28616171 11.98550274
v -0.27047234 -5.77581848 11.98689242
v -0.27379363 -5.27231726 11.98506086
v 1.90227768 -5.76188549 11.98687654
v 1.89545833 -5.25837981 11.98506086
v -2.5838886 -5.56404866 11.77087253
v -2.5843057 -6.09993769 11.77237637
v -0.27329625 -5.54931599 11.77045153
v -0.26974819 -6.08509978 11.77229339
v 2.03732345 -5.53446805 11.77047408
v 2.04479058 -6.07021119 11.77228337
v 3.75427378 -9.91884621 5.93286789
v 3.74705001 -9.53547502 5.93280775
v -0.18705367 -9.94487117 5.93286789
v -0.18958189 -9.56149553 5.93280775
v -4.12834517 -9.97089725 5.93286789
v -4.12617977 -9.58747594 5.93280775
v 3.74009966 -9.20990181 6.14731433
v -0.19171561 -9.23586552 6.14731433
v -4.12352543 -9.261827 6.14731433
v 3.74099734 -9.2116593 5.93272004
v -0.19168767 -9.23762413 5.93272004
v -4.12439499 -9.26362236 5.93272004
v -3.82734349 -8.86673304 8.91815763
v -4.12530548 -9.58561152 6.14740204
v -0.23002562 -8.84341226 8.91815763
v -0.18960683 -9.55963111 6.14740204
v 3.36729767 -8.82004749 8.91815763
v 3.74612671 -9.53365181 6.14740204
v 3.37354273 -9.17123023 8.91815763
v 3.75338752 -9.91687265 6.14746079
v -0.22773182 -9.19460113 8.91815763
v -0.18707446 -9.94289538 6.14746079
v -3.82899685 -9.21797537 8.91815763
v -4.12749873 -9.96892591 6.14746079
v 3.59948919 -0.76986268 6.13338245
v 3.67122211 -5.34373026 6.14408446
v -0.24728745 -0.79527237 6.13338245
v -0.21722028 -5.36939715 6.14408446
v -4.09405592 -0.82065031 6.13338245
v -4.10565784 -5.39506906 6.14408446
v 3.67208554 -5.34465244 5.9292237
v 3.6002379 -0.76979983 5.91768778
v -0.21719545 -5.37032602 5.9292237
v -0.24728549 -0.79521195 5.91768778
v -4.1064692 -5.39599792 5.9292237
v -4.09477429 -0.8206256 5.91768778
v 3.44033563 8.37735192 6.12621019
v 3.53016279 3.8043869 6.12145949
v -0.30754809 8.35259274 6.12621019
v -0.27733775 3.77923456 6.12145949
v -4.05543223 8.32782687 6.12621019
v -4.08480652 3.75408083 6.12145949
v 3.5307851 3.80517265 5.90471427
v 3.44095905 8.37900473 5.90961616
v -0.27731074 3.78001084 5.90471427
v -0.30755192 8.35423719 5.90961616
v -4.08543801 3.75487827 5.90471427
v -4.05606206 8.32949248 5.90961616
v -2.4432571 -6.00400552 11.98739806
v -0.26907226 -5.99003243 11.98739806
v 1.90514293 -5.97605321 11.98739806
v 2.04795613 -6.29815041 11.772806
v -0.26828449 -6.31303566 11.772806
v -2.58448919 -6.32789696 11.772806
v -2.64760894 -6.51436131 11.772806
v -2.50243167 -6.17932847 11.98739806
v -0.26903736 -6.49908792 11.772806
v -0.26977288 -6.16498618 11.98739806
v 2.10950939 -6.4838329 11.772806
v 1.96286629 -6.15063497 11.98739806
v 3.86641796 -10.22673866 6.14746079
v 3.86733597 -10.22877348 5.93286789
v -0.18166891 -10.25349981 6.14746079
v -0.1816512 -10.25556693 5.93286789
v -4.22975115 -10.28025094 6.14746079
v -4.23065941 -10.28235703 5.93286789
v 3.43625652 8.70610321 5.74212063
v -0.30976875 8.69250936 5.71941853
v -4.05570956 8.65824321 5.73848062
v -4.0539774 8.57241552 6.12597658
v -0.30917712 8.59715354 6.12591727
v 3.43562392 8.62187041 6.12591114
v 1.89430783 4.57100593 11.72435181
v 1.74107162 4.55874078 11.90557652
v -0.34305659 4.55621897 11.72211387
v -0.36111472 4.54703779 11.90294612
v -2.57953161 4.54582074 11.74148544
v -2.46246049 4.53969429 11.92158276
v 3.36092786 10.42515018 8.12233678
v -0.35122375 10.40078025 8.12087345
v -4.06334597 10.37667762 8.1208431
v 3.37656795 10.08027905 7.27774796
v -0.3433286 10.0551785 7.27632696
v -4.06320202 10.03021271 7.27558437
v 3.3975081 9.51033716 6.58048177
v -0.33471809 9.48507121 6.57950474
v -4.06690858 9.45987711 6.57874405
v 0.60984973 -9.38091902 12.87020418
v 0.60960136 -9.35954507 12.61568423
v -0.48684175 -9.38805369 12.87153344
v -0.48702263 -9.366555 12.61599496
v -1.583522 -9.39509147 12.87066666
v -1.58364618 -9.37346915 12.61690712
v -1.59392998 -6.92914689 12.08378965
v -0.50352785 -6.92311427 12.07936167
v 0.5869805 -6.91644292 12.07810174
v -4.06050424 10.80590518 8.07830528
v -0.3541087 10.85088169 8.07987678
v 3.35258087 10.85120801 8.08016162
v -4.06088013 10.39975226 7.07283229
v -0.34579069 10.44233978 7.06295264
v 3.36955357 10.44703311 7.07689162
v -4.06578369 9.71138771 6.26802351
v -0.3363089 9.74913042 6.25231882
v 3.39332597 9.75978899 6.27262162
v -1.58510408 -9.03651677 12.62849818
v -0.48937943 -9.02975855 12.62678663
v 0.60642586 -9.0228004 12.62624869
v -1.58501331 -9.04324103 12.89209212
v -0.48922599 -9.03601837 12.89235329
v 0.6066028 -9.02904352 12.89080156
v -1.59332146 -6.93016987 12.41108333
v -0.50305565 -6.9237402 12.40945252
v 0.58715279 -6.91715516 12.40703457
v 2.22305411 -8.67979647 12.55035035
v 2.22200913 -8.67229649 12.81416898
v -3.07312632 -8.70761401 12.8144076
v -2.9711206 -8.70778887 12.81403812
v -2.97245932 -8.71528273 12.55040631
v -3.07359744 -8.71487677 12.55150168
v -3.19324995 -8.7074993 12.81398131
v -3.19337831 -8.71454376 12.55186894
v 2.09688477 -8.68202731 12.54870172
v 1.9902659 -8.68419856 12.545745
v -2.85504071 -8.70811409 12.81265818
v 1.98746092 -8.67607265 12.81164049
v 2.09516403 -8.67426393 12.81361406
v -2.85681992 -8.71588304 12.54811088
v -2.6811336 -8.70850835 12.81054262
v -2.6814616 -8.71675845 12.54462735
v 1.86860655 -8.67818209 12.80881269
v 1.87096463 -8.68671564 12.54184715
v 1.69811072 -8.6807788 12.80659577
v 1.69828572 -8.6898035 12.53843045
v -1.58644851 -8.70084131 12.81165636
v -0.49158341 -8.69375007 12.81082467
v 0.60331502 -8.68707649 12.80893659
v -1.58661613 -8.7105248 12.54060421
v -0.49175208 -8.7040645 12.53758178
v 0.60322369 -8.6972077 12.53664762
v 3.60745833 5.8758771 11.71880687
v 3.44590214 5.87149672 11.71326945
v 3.43225399 6.00999804 12.13800053
v 3.5977161 6.01170486 12.14082138
v 3.79857898 5.88052644 11.72186717
v 3.79112772 6.01422138 12.14046999
v -4.15415184 5.82663772 11.71908225
v -4.31075742 5.82839855 11.7212748
v -4.30669419 5.96302625 12.14643384
v -4.14691025 5.96356642 12.14644497
v -3.97709283 5.82440298 11.71457309
v -3.96846657 5.96264758 12.1448693
v -4.49626644 5.83017888 11.72197938
v -4.49336931 5.96337597 12.14428708
v 2.99482451 5.99585343 12.13337179
v 1.32001647 5.98880062 12.14759074
v -0.35548 5.98050097 12.15488412
v -2.03111569 5.97020882 12.15398533
v -3.705826 5.95789855 12.14343562
v -3.70859283 5.82125218 11.70787529
v 3.26316942 5.86636234 11.70573146
v 3.25108385 6.00486143 12.13442707
v 2.99864996 5.86003291 11.699004
v -2.03199082 5.82993831 11.70069648
v -0.3552892 5.83904432 11.69566471
v 1.32158101 5.84900958 11.69472484
v -5.11392272 7.85406663 11.27287225
v -5.49050394 7.85966266 11.27051013
v -5.9747362 7.62858544 10.95820055
v -5.75110273 7.62475415 10.95617311
v 5.25687736 7.92952198 11.26399873
v 5.0270275 7.92590452 11.2629564
v -5.74247118 7.86131713 11.27003817
v -5.96750408 7.86181887 11.26840862
v -6.2327149 7.86310581 11.26426965
v -6.23958561 7.63297807 10.95880726
v -5.49959937 7.62032087 10.95199989
v 5.04105851 7.68992682 10.95279692
v 5.26911189 7.69721352 10.95801232
v 5.53898263 7.70547586 10.96091225
v 5.52770092 7.93405995 11.26165527
v 4.76876981 7.91951717 11.26170664
v -5.11822179 7.61409947 10.94580397
v 4.39934108 7.90870713 11.26439008
v 4.78175389 7.68162716 10.94570777
v 4.40632095 7.67088617 10.9393349
v -0.35625353 7.64099762 10.93529297
v -2.73728463 7.62734863 10.93954387
v 2.02493383 7.65544683 10.93488784
v 2.02126236 7.90847714 11.29100936
v -0.35748764 7.8998868 11.30237698
v -2.73623102 7.88155895 11.29655527
v 1.77680889 2.25954705 12.79438574
v 0.70017509 2.25253141 12.79904845
v -0.37731234 2.24644659 12.80300616
v -1.45509872 2.24081715 12.80520358
v -2.53188851 2.23546461 12.80410292
v 1.77878203 2.23193667 12.28951823
v 0.70016826 2.22466389 12.28593391
v -0.37823995 2.21842927 12.2873183
v 2.1616732 2.26967354 12.80654704
v 2.28979493 2.27108953 12.80760928
v -1.456498 2.21297287 12.29253314
v -2.53467121 2.20792731 12.29974021
v 1.93494935 2.26514851 12.79788124
v 1.9490036 2.23546851 12.29581842
v 2.05014423 2.268546 12.80281125
v 2.06662047 2.23858394 12.30298595
v 2.2958735 2.24361224 12.31127976
v 2.17166436 2.24115197 12.30831608
v -2.6963527 2.2381202 12.80785319
v -2.70726159 2.20944661 12.30614176
v -3.03768239 2.23818717 12.81091934
v -2.91745323 2.23826889 12.81156504
v -3.03877275 2.21164779 12.31325861
v -2.92070092 2.2111874 12.31255974
v -2.81248883 2.23870464 12.81059969
v -2.82108001 2.21050954 12.31044723
v 1.74134644 -1.04971637 12.68702651
v 0.65999682 -1.05723 12.69126683
v -0.42201776 -1.06374543 12.69477792
v -1.50426918 -1.06949878 12.6965588
v -2.58572238 -1.07479368 12.69514406
v 2.01858519 -1.04332986 12.69530806
v 2.12941124 -1.04099266 12.69868411
v 2.13706353 -1.02604351 12.23261291
v 2.03158862 -1.02855348 12.22761497
v -2.87571745 -1.05734499 12.2347502
v -2.97572706 -1.05671461 12.23671819
v -2.97321333 -1.07199079 12.70202118
v -2.86880943 -1.07264943 12.70124657
v -2.76142959 -1.05834653 12.23072483
v -2.75256888 -1.07362076 12.6987501
v -3.09424439 -1.05628095 12.23737363
v -3.09349428 -1.07154348 12.70133734
v -2.58812947 -1.05977366 12.22471727
v 2.26178694 -1.02359855 12.2353945
v 2.25737065 -1.03873523 12.69960908
v 1.91352333 -1.03158413 12.22088821
v 1.90249806 -1.0462192 12.69058995
v 1.74264006 -1.0350923 12.21498311
v -1.50561724 -1.05449937 12.21792675
v -0.42301893 -1.04883665 12.21299312
v 0.65971406 -1.04244638 12.21165217
v 1.71724353 -3.26239675 12.59093757
v 0.6326655 -3.26997804 12.5946199
v -0.45242532 -3.27659426 12.59775288
v -1.53769097 -3.28246316 12.59935918
v -2.62230986 -3.28789185 12.59805554
v 2.23874181 -3.23242884 12.18409357
v 2.23526079 -3.25152434 12.60323085
v 1.99745167 -3.25610073 12.5990387
v 2.10755532 -3.25378135 12.6022914
v 2.11366952 -3.23486405 12.18143311
v 2.00790615 -3.23733463 12.17665874
v -2.91265687 -3.2666109 12.18357596
v -3.01292793 -3.26601198 12.18544538
v -3.01091734 -3.2851885 12.60469209
v -2.90709453 -3.28583253 12.60394838
v -2.79804936 -3.26757012 12.17973798
v -2.79088851 -3.28675499 12.60155605
v -3.13174597 -3.265596 12.18607075
v -3.13115429 -3.28476055 12.60406365
v -2.62427089 -3.26893613 12.17399688
v 1.88953611 -3.24030806 12.17023074
v 1.88068641 -3.25896112 12.59445924
v 1.71820594 -3.24379938 12.16459351
v -1.53882504 -3.2635066 12.1674873
v -0.45329213 -3.25770481 12.16274357
v 0.63236444 -3.25120831 12.16143436
v 1.69727304 -5.0972087 12.50091773
v 0.60998839 -5.10483119 12.50398109
v -0.47766387 -5.11152816 12.50676686
v -1.56543194 -5.11749451 12.50832527
v -2.65269626 -5.12304822 12.50733153
v 2.21962683 -5.06465271 12.14153863
v 2.21699392 -5.08643429 12.51306845
v 1.98016726 -5.09098841 12.50891946
v 2.08956174 -5.08868462 12.51209698
v 2.09426496 -5.06707957 12.13898063
v 1.98826115 -5.06951868 12.13439143
v -2.94329749 -5.09919562 12.14112571
v -3.04378517 -5.0986226 12.14291467
v -3.04221896 -5.12042757 12.51385865
v -2.93896222 -5.12105851 12.51311996
v -2.82842657 -5.10012115 12.13744421
v -2.82282637 -5.12194004 12.51078415
v -3.16285492 -5.09822332 12.14351693
v -3.16238325 -5.12002217 12.51331988
v -2.65424994 -5.10143426 12.13192475
v 1.86963872 -5.07244283 12.12821124
v 1.862801 -5.09382457 12.50442826
v 1.69793809 -5.07592106 12.12279452
v -1.56637041 -5.09587777 12.12565017
v -0.47840366 -5.08995764 12.12106292
v 0.60967786 -5.08337483 12.11977821
v -7.68938609 10.23983467 9.25032861
v -8.0483066 10.24088605 9.24845385
v 8.04222554 10.34569647 9.24506574
v 7.66019864 10.33943721 9.24794306
v 8.0595666 10.03327886 9.17698765
v 7.67733867 10.01961317 9.17502552
v 7.35443178 10.00808253 9.17156154
v 6.98431865 9.99518978 9.16686164
v -8.76428265 9.92556267 9.17061673
v -8.38287445 9.91710152 9.170336
v -8.75121894 10.24303781 9.24159184
v -8.37021892 10.24180489 9.24584827
v 7.33734019 10.33410681 9.24864696
v -8.06077947 9.91011164 9.16910891
v -7.14840277 10.2377631 9.25465376
v -7.70141235 9.90250919 9.16649288
v 6.44833384 9.97782978 9.16252305
v 6.96788474 10.32792884 9.24900785
v 6.43588825 10.31914582 9.25295447
v -7.15650084 9.89184059 9.16261737
v 3.04694209 9.95552251 9.15860062
v -0.35428631 9.93386567 9.15780942
v -3.75542707 9.91272338 9.15955256
v -3.75321377 10.30371149 9.28240071
v -0.35679171 10.3404652 9.29159307
v 3.03985281 10.34384097 9.28064257
v -6.83103622 9.38786602 10.23733103
v -7.14811821 9.38973378 10.2351941
v 7.05960973 9.48241381 10.22673664
v 6.72068991 9.47631381 10.23048935
v 7.07431288 9.20430522 10.04933814
v 6.73557126 9.19279463 10.0468281
v 6.44936405 9.18293517 10.04234923
v 6.12254345 9.1718389 10.03626956
v -7.77744741 9.1111641 10.04490501
v -7.44202699 9.10436132 10.04444976
v -7.76700657 9.39278601 10.22676734
v -7.43172704 9.39100401 10.23213178
v 6.43390857 9.4711204 10.2312073
v -7.15877344 9.09864724 10.04276598
v -6.35417865 9.38342606 10.24204317
v -6.84158231 9.09228272 10.03926644
v 5.64929497 9.15712294 10.03074501
v 6.10786814 9.46433767 10.23166714
v 5.63921945 9.45386899 10.23631662
v -6.36060665 9.08335213 10.03407457
v 2.6465932 9.13762398 10.02642082
v -0.35591881 9.11896591 10.02620496
v -3.35830415 9.10098945 10.02928225
v -3.35658898 9.4295102 10.27470294
v -0.35785677 9.45709051 10.28453365
v 2.64099466 9.46427808 10.27064715
g Group64559
f 4 3 2 1
f 3 6 5 2
f 6 8 7 5
f 8 10 9 7
f 16 18 17 15
f 18 4 1 17
f 22 21 20 19
f 9 10 22 19
f 11 9 19 20
f 10 12 21 22
f 24 26 25 23
f 15 13 23 25
f 16 15 25 26
f 14 16 26 24
f 27 28 1 2
f 29 30 3 4
f 31 32 33 34
f 35 27 2 5
f 30 36 6 3
f 34 33 37 38
f 39 35 5 7
f 36 40 8 6
f 38 37 41 42
f 43 39 7 9
f 40 44 10 8
f 42 41 45 46
f 47 43 9 11
f 44 48 12 10
f 46 45 49 50
f 55 51 13 15
f 52 56 16 14
f 54 53 57 58
f 59 55 15 17
f 56 60 18 16
f 58 57 61 62
f 28 59 17 1
f 60 29 4 18
f 62 61 32 31
f 31 34 30 29
f 28 27 33 32
f 34 38 36 30
f 27 35 37 33
f 38 42 40 36
f 35 39 41 37
f 42 46 44 40
f 39 43 45 41
f 46 50 48 44
f 43 47 49 45
f 54 58 56 52
f 51 55 57 53
f 58 62 60 56
f 55 59 61 57
f 32 61 59 28
f 29 60 62 31
f 21 63 64 20
f 65 11 20 64
f 66 67 68 69
f 12 70 63 21
f 71 47 11 65
f 72 73 67 66
f 48 74 70 12
f 50 49 75 76
f 75 49 47 71
f 74 48 50 76
f 73 72 77 78
f 64 63 69 68
f 65 64 68 67
f 66 69 63 70
f 67 73 71 65
f 70 74 72 66
f 78 77 76 75
f 73 78 75 71
f 74 76 77 72
f 79 24 23 80
f 81 82 83 84
f 13 85 80 23
f 86 14 24 79
f 87 88 82 81
f 51 89 85 13
f 90 52 14 86
f 91 92 53 54
f 93 94 88 87
f 91 54 52 90
f 89 51 53 92
f 84 83 79 80
f 86 79 83 82
f 81 84 80 85
f 85 89 87 81
f 82 88 90 86
f 94 93 92 91
f 89 92 93 87
f 88 94 91 90
g Group2678
f 712 706 499 680
f 711 712 680 679
f 710 711 679 678
f 702 710 678 511
g Group45819
f 709 705 503 686
f 708 709 686 685
f 707 708 685 684
f 701 707 684 515
g Group2678
f 706 704 492 499
g Group45819
f 705 502 493 703
g Group2678
f 704 696 452 492
g Group45819
f 703 493 451 698
g Group2678
f 700 702 511 478
g Group45819
f 697 481 514 701
f 699 455 456 688
g Group2678
f 695 687 457 458
f 691 700 478 454
g Group45819
f 698 451 455 699
g Group10913
f 103 139 147 148
g Group63024
f 206 339 340 197
g Group28780
f 205 196 341 342
g Group63024
f 198 343 344 203
g Group10913
f 107 106 151 152
g Group28780
f 247 252 193 226
g Group63024
f 230 345 346 241
g Group10913
f 106 103 148 151
g Group63024
f 224 347 348 204
g Group28780
f 223 199 349 350
g Group10913
f 109 107 152 155
g Group18588
f 279 272 192 221
g Group28780
f 227 240 351 352
f 195 200 353 354
g Group63024
f 348 253 254 355
g Group28780
f 356 251 252 349
f 238 244 184 190
f 243 248 188 185
g Group63024
f 203 344 347 224
g Group18588
f 256 255 182 225
g Group28780
f 248 247 226 188
f 244 243 185 184
g Group10913
f 111 130 159 160
g Group28780
f 219 191 240 227
g Group10913
f 116 115 163 164
g Group3823
f 117 165 166 118
g Group10913
f 120 143 167 168
g Group28780
f 200 223 350 353
g Group3823
f 123 169 170 144
g Group10913
f 115 120 168 163
g Group3823
f 118 166 169 123
g Group10913
f 125 116 164 158
g Group63024
f 197 340 343 198
g Group3823
f 126 157 165 117
g Group10913
f 171 122 113 172
g Group18588
f 269 278 230 241
f 281 282 175 236
f 282 276 177 175
g Group28780
f 196 195 354 341
g Group10913
f 139 111 160 147
g Group63024
f 241 346 357 242
g Group28780
f 239 358 351 240
g Group10913
f 143 119 172 167
g Group3823
f 144 170 173 124
g Group18588
f 258 257 250 249
f 273 281 236 233
f 275 280 181 179
f 277 274 234 229
f 280 279 221 181
f 278 277 229 230
f 276 275 179 177
f 274 273 233 234
g Group63024
f 236 359 360 233
g Group28780
f 235 232 361 362
g Group18588
f 260 259 178 180
g Group28780
f 191 210 239 240
g Group18588
f 262 261 246 245
f 255 260 180 182
f 261 258 249 246
g Group10913
f 148 147 140 128
g Group3823
f 149 131 142 150
g Group10913
f 152 151 133 134
g Group3823
f 153 135 136 154
g Group10913
f 151 148 128 133
g Group3823
f 154 136 131 149
g Group10913
f 155 152 134 137
g Group3823
f 156 138 135 153
g Group10913
f 159 127 160
g Group3823
f 161 132 162
g Group18588
f 259 263 176 178
g Group63024
f 234 363 364 229
g Group10913
f 164 163 105 104
f 168 167 146 108
f 163 168 108 105
f 158 164 104 110
f 119 171 172
g Group3823
f 124 173 174
g Group10913
f 147 160 127 140
g Group3823
f 150 142 132 161
g Group10913
f 167 172 113 146
g Group18588
f 257 268 253 250
f 141 101 255 256
f 149 150 257 258
f 99 97 259 260
f 153 154 261 262
f 101 99 260 255
f 154 149 258 261
f 97 95 263 259
f 156 153 262 264
f 95 156 264 263
f 129 112 265 266
f 161 162 267 268
f 174 173 269 270
f 114 121 271 272
f 112 141 256 265
f 150 161 268 257
g Group28780
f 231 228 365 366
g Group63024
f 233 360 363 234
g Group18588
f 166 165 273 274
f 98 100 275 276
f 170 169 277 278
f 102 145 279 280
f 169 166 274 277
f 100 102 280 275
f 165 157 281 273
f 96 98 276 282
f 157 96 282 281
f 173 170 278 269
f 145 114 272 279
f 265 256 225 194
f 272 271 209 192
g Group28780
f 183 219 227 228
f 232 231 366 361
g Group63024
f 229 364 345 230
g Group18588
f 270 269 241 242
f 268 267 254 253
g Group28780
f 187 186 231 232
f 228 227 352 365
f 189 187 232 235
f 186 183 228 231
g Group18588
f 264 262 245 237
g Group28780
f 251 202 193 252
g Group18588
f 266 265 194 201
f 263 264 237 176
g Group28707
f 286 285 284 283
g Group10913
f 139 103 283 284
g Group2681
f 101 141 285 286
g Group28707
f 290 289 288 287
g Group10913
f 104 105 287 288
g Group2681
f 100 98 289 290
g Group28707
f 294 293 292 291
g Group10913
f 106 107 291 292
g Group2681
f 97 99 293 294
g Group28707
f 293 286 283 292
g Group10913
f 103 106 292 283
g Group2681
f 99 101 286 293
g Group28707
f 297 300 299 296
g Group10913
f 113 122 296 299
g Group2681
f 121 114 300 297
g Group28707
f 304 303 302 301
g Group28780
f 188 226 301 302
g Group63024
f 225 182 303 304
g Group28707
f 306 294 291 305
g Group10913
f 107 109 305 291
g Group2681
f 95 97 294 306
g Group28707
f 308 290 287 307
g Group10913
f 105 108 307 287
g Group2681
f 102 100 290 308
g Group28707
f 289 310 309 288
g Group10913
f 110 104 288 309
g Group2681
f 98 96 310 289
g Group28707
f 312 298 295 311
g Group10913
f 130 111 311 295
g Group2681
f 112 129 298 312
g Group28707
f 316 315 314 313
g Group28780
f 191 219 313 314
g Group63024
f 221 192 315 316
g Group28707
f 300 318 317 299
g Group10913
f 146 113 299 317
g Group2681
f 114 145 318 300
g Group28707
f 285 312 311 284
g Group10913
f 111 139 284 311
g Group2681
f 141 112 312 285
g Group28707
f 318 308 307 317
g Group10913
f 108 146 317 307
g Group2681
f 145 102 308 318
g Group28707
f 320 304 301 319
g Group28780
f 226 193 319 301
g Group63024
f 194 225 304 320
g Group28707
f 315 322 321 314
g Group28780
f 210 191 314 321
g Group63024
f 192 209 322 315
g Group28707
f 326 325 324 323
g Group28780
f 190 184 323 324
g Group63024
f 178 176 325 326
g Group28707
f 303 328 327 302
g Group28780
f 185 188 302 327
g Group63024
f 182 180 328 303
g Group28707
f 332 316 313 331
g Group28780
f 219 183 331 313
g Group63024
f 181 221 316 332
g Group28707
f 328 326 323 327
g Group28780
f 184 185 327 323
g Group63024
f 180 178 326 328
g Group28707
f 336 335 334 333
g Group28780
f 186 187 333 334
g Group63024
f 177 179 335 336
g Group28707
f 338 336 333 337
g Group28780
f 187 189 337 333
g Group63024
f 175 177 336 338
g Group28707
f 335 332 331 334
g Group28780
f 183 186 334 331
g Group63024
f 179 181 332 335
g Group28707
f 330 320 319 329
g Group28780
f 193 202 329 319
g Group63024
f 201 194 320 330
f 339 237 245 340
g Group28780
f 342 341 244 238
g Group63024
f 343 246 249 344
f 345 222 212 346
f 347 250 253 348
g Group28780
f 350 349 252 247
f 352 351 207 220
f 354 353 248 243
g Group63024
f 204 348 355
g Group28780
f 199 356 349
g Group63024
f 344 249 250 347
g Group28780
f 353 350 247 248
g Group63024
f 340 245 246 343
g Group28780
f 341 354 243 244
g Group63024
f 346 212 357
g Group28780
f 358 207 351
g Group63024
f 359 218 215 360
g Group28780
f 362 361 214 217
g Group63024
f 363 216 211 364
g Group28780
f 366 365 208 213
g Group63024
f 360 215 216 363
g Group28780
f 361 366 213 214
g Group63024
f 364 211 222 345
g Group28780
f 365 352 220 208
g Group63024
f 325 176 370 367
g Group28707
f 324 325 367 368
g Group28780
f 190 324 368 369
f 337 189 374 371
g Group28707
f 338 337 371 372
g Group63024
f 175 338 372 373
g Group28780
f 238 190 369 375
g Group63024
f 176 237 376 370
g Group28780
f 342 238 375 377
g Group63024
f 237 339 378 376
g Group28780
f 205 342 377 379
g Group63024
f 339 206 380 378
g Group28780
f 362 217 381 383
g Group63024
f 218 359 384 382
g Group28780
f 235 362 383 385
g Group63024
f 359 236 386 384
g Group28780
f 189 235 385 374
g Group63024
f 236 175 373 386
g Group28707
f 394 393 392 391
g Group10913
f 158 110 391 392
g Group28713
f 96 157 393 394
g Group28707
f 389 396 395 388
g Group10913
f 155 137 388 395
g Group28713
f 138 156 396 389
g Group28707
f 393 390 387 392
g Group10913
f 125 158 392 387
g Group28713
f 157 126 390 393
g Group28707
f 396 398 397 395
g Group10913
f 109 155 395 397
g Group28713
f 156 95 398 396
g Group28707
f 397 398 400 399
g Group10913
f 305 109 397 399
g Group28707
f 306 305 399 400
g Group28713
f 95 306 400 398
g Group28707
f 394 391 402 401
g Group28713
f 310 96 394 401
g Group28707
f 309 310 401 402
g Group10913
f 110 309 402 391
g Group45819
f 731 739 740 724
g Group54554
f 687 469 468 688
g Group2678
f 738 735 770 771
f 737 738 771 772
f 736 737 772 775
f 732 736 775 776
g Group45819
f 727 765 777 734
g Group2678
f 735 733 778 770
f 868 865 495 668
f 867 868 668 667
g Group54554
f 404 457 456 406
g Group45819
f 734 777 779 715
g Group54554
f 457 687 688 456
g Group2678
f 452 458 404 432
g Group45819
f 920 913 887 894
f 444 472 473 445
f 445 473 474 446
f 446 474 377 375
f 689 448 453 690
f 451 431 406 455
f 686 503 843 844
f 685 686 844 845
f 684 685 845 846
f 515 684 846 847
f 851 467 468 849
g Group2678
f 458 457 404
g Group45819
f 919 920 894 893
f 407 408 416 415
f 415 416 424 423
f 423 424 371 374
f 918 919 893 892
g Group54554
f 408 409 417 416
f 416 417 425 424
f 424 425 372 371
g Group45819
f 455 406 456
f 909 918 892 883
g Group2678
f 409 410 418 417
f 417 418 426 425
f 425 426 373 372
f 450 454 434 403
f 917 914 888 891
f 410 438 439 418
f 418 439 440 426
f 426 440 386 373
g Group45819
f 448 405 433 453
g Group2678
f 916 917 891 890
f 438 483 484 439
f 439 484 485 440
f 440 485 384 386
f 720 741 742 719
f 692 691 454 450
g Group45819
f 693 447 448 689
g Group54554
f 694 449 447 693
g Group2678
f 696 695 458 452
g Group45819
f 716 743 744 715
g Group2678
f 915 916 890 889
f 411 412 420 419
f 419 420 428 427
f 427 428 367 370
g Group45819
f 722 745 746 721
g Group2678
f 454 478 479 434
f 911 915 889 885
g Group54554
f 412 413 421 420
f 420 421 429 428
f 428 429 368 367
g Group45819
f 721 746 747 726
f 453 433 480 481
g Group2678
f 914 910 884 888
g Group45819
f 413 414 422 421
f 421 422 430 429
f 429 430 369 368
g Group2678
f 449 450 403
g Group45819
f 913 912 886 887
f 414 444 445 422
f 422 445 446 430
f 430 446 375 369
g Group54554
f 405 447 449 403
g Group2678
f 694 692 450 449
g Group54554
f 431 486 487 432
f 406 431 432 404
g Group45819
f 690 453 481 697
g Group2678
f 733 714 780 778
g Group45819
f 724 783 769 731
g Group2678
f 723 732 776 784
g Group45819
f 726 785 786 721
g Group2678
f 668 495 706 712
g Group45819
f 912 907 881 886
f 435 407 415 436
f 436 415 423 437
f 437 423 374 385
f 447 405 448
g Group54554
f 726 747 748 725
g Group2678
f 725 748 741 720
f 866 867 667 666
f 719 742 749 723
f 714 750 751 713
f 902 911 885 876
f 441 411 419 442
f 442 419 427 443
f 443 427 370 376
g Group54554
f 433 405 403 434
g Group2678
f 667 668 712 711
f 666 667 711 710
f 507 666 710 702
f 713 751 752 717
g Group45819
f 766 765 727 728
g Group2678
f 862 866 666 507
g Group54554
f 717 752 753 718
g Group45819
f 718 753 743 716
f 767 766 728 729
f 843 503 494 864
f 768 767 729 730
g Group2678
f 865 863 488 495
g Group45819
f 769 768 730 731
f 864 494 463 850
f 779 796 797 773
g Group2678
f 863 853 464 488
f 780 782 798 799
f 852 848 469 470
g Group45819
f 683 502 705 709
g Group2678
f 788 790 800 801
g Group45819
f 786 802 803 789
f 859 482 515 847
g Group2678
f 790 784 804 800
f 858 862 507 471
g Group45819
f 789 803 805 783
f 861 459 460 856
g Group2678
f 787 788 801 806
g Group54554
f 860 461 459 861
f 787 806 807 785
g Group2678
f 860 855 462 461
g Group45819
f 715 744 754 734
f 460 689 690 465
f 785 807 802 786
f 857 465 482 859
g Group2678
f 462 466 691 692
f 784 776 808 804
g Group45819
f 459 693 689 460
f 660 501 502 683
f 662 660 683 682
g Group54554
f 461 694 693 459
g Group2678
f 464 470 695 696
f 461 462 692 694
g Group45819
f 465 690 697 482
f 463 698 699 467
g Group54554
f 469 848 849 468
g Group2678
f 466 471 700 691
f 470 469 687 695
g Group45819
f 467 699 688 468
f 664 662 682 681
g Group54554
f 725 787 785 726
g Group2678
f 910 908 882 884
g Group45819
f 472 508 509 473
f 473 509 510 474
f 474 510 379 377
f 513 664 681 514
f 895 909 883 869
g Group2678
f 475 441 442 476
f 476 442 443 477
f 477 443 376 378
f 478 511 512 479
g Group45819
f 481 480 513 514
g Group54554
f 480 433 434 479
g Group45819
f 682 683 709 708
g Group2678
f 725 720 788 787
f 723 749 755 732
g Group45819
f 783 805 795 769
g Group2678
f 854 858 471 466
f 782 781 809 798
g Group45819
f 856 460 465 857
f 681 682 708 707
f 724 740 745 722
f 482 697 701 515
g Group2678
f 471 507 702 700
f 680 499 500 661
f 908 904 878 882
f 483 504 505 484
f 484 505 506 485
f 485 506 382 384
g Group54554
f 486 501 500 487
f 781 717 718 774
g Group2678
f 855 854 466 462
g Group45819
f 514 681 707 701
f 734 754 756 727
g Group2678
f 679 680 661 663
g Group45819
f 722 789 783 724
f 907 898 872 881
f 489 435 436 490
f 490 436 437 491
f 491 437 385 383
g Group2678
f 492 452 432 487
g Group45819
f 493 486 431 451
g Group2678
f 853 852 470 464
f 719 723 784 790
f 733 757 750 714
f 778 780 799 811
g Group45819
f 850 463 467 851
f 494 703 698 463
g Group2678
f 488 464 696 704
f 678 679 663 665
g Group45819
f 721 786 789 722
f 906 896 870 880
f 496 489 490 497
f 497 490 491 498
f 498 491 383 381
g Group2678
f 499 492 487 500
g Group45819
f 502 501 486 493
g Group54554
f 848 822 823 849
g Group2678
f 720 719 790 788
f 735 758 757 733
g Group45819
f 777 812 796 779
g Group2678
f 917 916 759 760
g Group45819
f 503 705 703 494
g Group2678
f 495 488 704 706
f 511 678 665 512
g Group45819
f 905 906 880 879
g Group2678
f 516 475 476 517
f 517 476 477 518
f 518 477 378 380
g Group54554
f 513 480 479 512
g Group2678
f 770 778 811 813
f 914 917 760 755
g Group10913
f 133 519 520 134
f 519 521 522 520
f 521 523 524 522
f 523 115 116 524
g Group3823
f 135 525 526 136
f 525 527 528 526
f 527 529 530 528
f 529 117 118 530
g Group10913
f 140 531 532 128
f 531 533 534 532
f 533 535 536 534
f 535 143 120 536
g Group3823
f 131 537 538 142
f 537 539 540 538
f 539 541 542 540
f 541 123 144 542
g Group10913
f 128 532 519 133
f 532 534 521 519
f 534 536 523 521
f 536 120 115 523
g Group3823
f 136 526 537 131
f 526 528 539 537
f 528 530 541 539
f 530 118 123 541
g Group10913
f 134 520 543 137
f 520 522 544 543
f 522 524 545 544
f 524 116 125 545
g Group3823
f 138 546 525 135
f 546 547 527 525
f 547 548 529 527
f 548 126 117 529
g Group63024
f 222 549 550 212
f 549 551 552 550
f 551 553 554 552
f 553 224 204 554
g Group28780
f 207 555 556 220
f 555 557 558 556
f 557 559 560 558
f 559 199 223 560
g Group10913
f 159 561 562 127
f 561 563 564 562
f 563 565 566 564
f 565 171 119 566
g Group3823
f 132 567 568 162
f 567 569 570 568
f 569 571 572 570
f 571 124 174 572
g Group28780
f 210 573 574 239
f 573 575 576 574
f 575 577 578 576
f 577 202 251 578
g Group10913
f 127 562 531 140
f 562 564 533 531
f 564 566 535 533
f 566 119 143 535
g Group3823
f 142 538 567 132
f 538 540 569 567
f 540 542 571 569
f 542 144 124 571
g Group63024
f 212 550 579 357
f 550 552 580 579
f 552 554 581 580
f 554 204 355 581
g Group28780
f 358 582 555 207
f 582 583 557 555
f 583 584 559 557
f 584 356 199 559
g Group18588
f 267 585 586 254
f 585 587 588 586
f 587 589 590 588
f 589 270 242 590
f 271 591 592 209
f 591 593 594 592
f 593 595 596 594
f 595 266 201 596
g Group63024
f 216 597 598 211
f 597 599 600 598
f 599 601 602 600
f 601 198 203 602
g Group28780
f 208 603 604 213
f 603 605 606 604
f 605 607 608 606
f 607 200 195 608
g Group63024
f 218 609 610 215
f 609 611 612 610
f 611 613 614 612
f 613 206 197 614
g Group28780
f 214 615 616 217
f 615 617 618 616
f 617 619 620 618
f 619 196 205 620
g Group10913
f 130 621 561 159
f 621 622 563 561
f 622 623 565 563
f 623 122 171 565
g Group63024
f 211 598 549 222
f 598 600 551 549
f 600 602 553 551
f 602 203 224 553
g Group18588
f 121 624 591 271
f 624 625 593 591
f 625 626 595 593
f 626 129 266 595
f 162 568 585 267
f 568 570 587 585
f 570 572 589 587
f 572 174 270 589
g Group28780
f 220 556 603 208
f 556 558 605 603
f 558 560 607 605
f 560 223 200 607
f 213 604 615 214
f 604 606 617 615
f 606 608 619 617
f 608 195 196 619
g Group63024
f 215 610 597 216
f 610 612 599 597
f 612 614 601 599
f 614 197 198 601
g Group28707
f 298 627 628 295
f 627 629 630 628
f 629 631 632 630
f 631 297 296 632
g Group10913
f 122 623 632 296
f 623 622 630 632
f 622 621 628 630
f 621 130 295 628
g Group2681
f 129 626 627 298
f 626 625 629 627
f 625 624 631 629
f 624 121 297 631
g Group28707
f 322 633 634 321
f 633 635 636 634
f 635 637 638 636
f 637 330 329 638
g Group28780
f 202 577 638 329
f 577 575 636 638
f 575 573 634 636
f 573 210 321 634
g Group63024
f 209 592 633 322
f 592 594 635 633
f 594 596 637 635
f 596 201 330 637
f 357 579 590 242
f 579 580 588 590
f 580 581 586 588
f 581 355 254 586
g Group28780
f 239 574 582 358
f 574 576 583 582
f 576 578 584 583
f 578 251 356 584
f 217 616 639 381
f 616 618 640 639
f 618 620 641 640
f 620 205 379 641
g Group63024
f 206 613 642 380
f 613 611 643 642
f 611 609 644 643
f 609 218 382 644
g Group28707
f 390 645 646 387
f 645 647 648 646
f 647 649 650 648
f 649 389 388 650
g Group10913
f 137 543 650 388
f 543 544 648 650
f 544 545 646 648
f 545 125 387 646
g Group28713
f 126 548 645 390
f 548 547 647 645
f 547 546 649 647
f 546 138 389 649
g Group45819
f 677 498 381 639
f 676 677 639 640
f 675 676 640 641
f 510 675 641 379
g Group54554
f 903 905 879 877
g Group2678
f 904 903 877 878
f 901 902 876 875
f 900 901 875 874
f 504 651 654 505
f 651 652 655 654
f 652 653 656 655
f 653 516 517 656
f 505 654 657 506
f 654 655 658 657
f 655 656 659 658
f 656 517 518 659
f 506 657 644 382
f 657 658 643 644
f 658 659 642 643
f 659 518 380 642
g Group54554
f 501 660 661 500
f 660 662 663 661
f 662 664 665 663
f 664 513 512 665
g Group45819
f 765 791 812 777
g Group2678
f 776 775 814 808
f 775 772 815 814
g Group45819
f 773 797 810 774
g Group2678
f 916 915 761 759
f 915 911 758 761
g Group45819
f 913 920 762 756
f 920 919 763 762
f 919 918 764 763
f 918 909 739 764
g Group2678
f 772 771 816 815
f 771 770 813 816
g Group45819
f 847 846 820 821
f 846 845 819 820
f 845 844 818 819
f 844 843 817 818
f 674 497 498 677
f 673 674 677 676
f 672 673 676 675
f 509 672 675 510
f 716 773 774 718
g Group2678
f 713 717 781 782
g Group45819
f 715 779 773 716
g Group2678
f 714 713 782 780
f 899 900 874 873
g Group54554
f 897 899 873 871
g Group45819
f 898 897 871 872
f 896 895 869 870
f 508 669 672 509
f 669 670 673 672
f 670 671 674 673
f 671 496 497 674
f 739 909 895 740
f 764 739 731 730
f 763 764 730 729
f 762 763 729 728
g Group2678
f 741 904 908 742
g Group45819
f 743 898 907 744
f 745 896 906 746
f 746 906 905 747
g Group54554
f 747 905 903 748
g Group2678
f 748 903 904 741
g Group45819
f 756 762 728 727
g Group2678
f 742 908 910 749
f 750 901 900 751
f 751 900 899 752
g Group54554
f 752 899 897 753
g Group45819
f 753 897 898 743
f 744 907 912 754
g Group2678
f 749 910 914 755
g Group45819
f 740 895 896 745
f 754 912 913 756
g Group2678
f 757 902 901 750
f 758 911 902 757
f 761 758 735 738
f 759 761 738 737
f 755 760 736 732
f 760 759 737 736
g Group45819
f 792 791 765 766
f 793 792 766 767
f 794 793 767 768
f 795 794 768 769
f 796 824 825 797
g Group2678
f 799 798 826 827
f 801 800 828 829
g Group45819
f 802 830 831 803
g Group2678
f 800 804 832 828
g Group45819
f 803 831 833 805
g Group2678
f 806 801 829 834
g Group54554
f 806 834 835 807
g Group45819
f 807 835 830 802
g Group2678
f 804 808 836 832
g Group54554
f 809 781 774 810
g Group45819
f 805 833 821 795
g Group2678
f 798 809 822 826
f 811 799 827 837
g Group45819
f 812 838 824 796
g Group2678
f 813 811 837 839
g Group45819
f 791 817 838 812
g Group2678
f 808 814 840 836
f 814 815 841 840
g Group45819
f 797 825 823 810
g Group2678
f 815 816 842 841
f 816 813 839 842
g Group45819
f 818 817 791 792
f 819 818 792 793
f 820 819 793 794
f 821 820 794 795
g Group54554
f 822 809 810 823
g Group45819
f 824 850 851 825
g Group2678
f 827 826 852 853
f 829 828 854 855
g Group45819
f 830 856 857 831
g Group2678
f 828 832 858 854
g Group45819
f 831 857 859 833
g Group2678
f 834 829 855 860
g Group54554
f 834 860 861 835
g Group45819
f 835 861 856 830
g Group2678
f 832 836 862 858
g Group45819
f 833 859 847 821
g Group2678
f 826 822 848 852
f 837 827 853 863
g Group45819
f 838 864 850 824
g Group2678
f 839 837 863 865
g Group45819
f 817 843 864 838
g Group2678
f 836 840 866 862
f 840 841 867 866
g Group45819
f 825 851 849 823
g Group2678
f 841 842 868 867
f 842 839 865 868
g Group45819
f 870 869 472 444
f 872 871 408 407
g Group54554
f 871 873 409 408
g Group2678
f 873 874 410 409
f 874 875 438 410
f 875 876 483 438
f 878 877 412 411
g Group54554
f 877 879 413 412
g Group45819
f 879 880 414 413
f 880 870 444 414
f 881 872 407 435
g Group2678
f 882 878 411 441
g Group45819
f 869 883 508 472
g Group2678
f 884 882 441 475
f 876 885 504 483
g Group45819
f 886 881 435 489
f 887 886 489 496
g Group2678
f 888 884 475 516
f 885 889 651 504
f 889 890 652 651
f 890 891 653 652
f 891 888 516 653
g Group45819
f 883 892 669 508
f 892 893 670 669
f 893 894 671 670
f 894 887 496 671

 