# File exported by ZBrush version 2021
# www.zbrush.com
#Vertex Count 562
#Face Count 560
#Auto scale x=0.107034 y=0.107034 z=0.107034
#Auto offset x=0.024762 y=-0.029012 z=-1.005673
v -7.73197417 -4.23976347 4.73082913
v 4.9785644 -7.66089139 4.42950557
v -5.48682412 -7.66412683 4.42995553
v -10.26123257 4.81377556 4.98636426
v -9.709212 0.26687949 4.95422705
v 7.25461652 -4.23773895 4.72137341
v 9.22185846 0.26900055 4.93754978
v 9.80141534 4.81501794 4.97860979
v -8.13056306 9.92194299 4.72247323
v 7.72331422 9.92194299 4.72247323
v 1.11980735 -7.59749905 4.43997926
v -1.57233788 -7.60041485 4.43952764
v 2.07054754 0.26859076 4.95191379
v 1.61125337 -4.20337507 4.73343976
v -2.45844055 0.26831268 4.95429109
v -2.03236782 -4.20441949 4.73448
v 2.22100119 4.81394596 4.98530286
v -2.58983685 4.81377611 4.98635424
v -2.1894576 9.96355152 4.71860797
v 1.83689715 9.96355152 4.71860797
v 0.8341156 -9.46767446 4.23095761
v -1.2913048 -9.46701289 4.23078554
v 2.21918968 4.90761667 4.43379573
v -2.58773604 4.90746687 4.43473017
v -2.18964847 10.08630443 4.03248484
v 1.83710278 10.08631223 4.03248372
v -1.56438613 -7.54447794 4.01367585
v -5.47720634 -7.61036396 4.00384145
v -7.71961768 -4.18355703 4.29397239
v -2.02500929 -4.14662207 4.29762939
v 9.79596243 4.90865357 4.42731037
v 7.72408549 10.04443974 4.03765207
v -10.25439638 4.90746576 4.43473573
v -8.13132319 10.04443083 4.03765486
v -9.69550398 0.33722037 4.47819086
v -2.45299752 0.33895392 4.47826437
v 1.60497252 -4.1451831 4.29676066
v 2.06536263 0.33931101 4.47613989
v 7.2430792 -4.18107727 4.28494546
v 9.20952815 0.33937652 4.46214342
v -1.28729857 -9.4132645 3.80550455
v 0.83143968 -9.41369329 3.80571839
v 1.1141381 -7.54105316 4.01421323
v 4.96999021 -7.60644134 4.003558
v -2.227327 9.73761871 4.0745049
v 1.87396368 9.73762762 4.07450267
v 1.87378492 9.6170532 4.74988983
v -2.22716078 9.6170532 4.74988983
v 8.30482629 9.73762762 4.07450267
v 8.30410569 9.6170532 4.74988983
v -8.69786426 9.7376176 4.07450323
v -8.69715591 9.6170532 4.74988983
v 8.68954233 8.69815049 4.82253018
v 8.68955514 8.81313612 4.17445047
v -2.32098393 8.81309157 4.1746877
v 1.96544281 8.81309714 4.17468714
v 1.96533923 8.69810594 4.82279692
v -2.32093576 8.69810594 4.82279692
v -9.09236792 8.81309046 4.1746877
v -9.0927182 8.69810706 4.82279748
v -4.75191156 -4.17463646 4.29455433
v -3.5671153 -7.54611515 4.01131804
v -3.58314492 -7.60314687 4.43697994
v -4.7693239 -4.23313165 4.73116326
v -5.19093342 10.08630332 4.03248484
v -5.28416754 9.7376176 4.07450323
v -5.19044783 9.96355152 4.71860797
v -5.28374488 9.6170532 4.74988983
v -5.89117499 0.33499969 4.47807559
v -5.90762227 0.26411948 4.95405052
v -3.25924095 -8.81680314 3.87286907
v -3.26734152 -8.87072082 4.29813559
v -6.21285509 4.90746576 4.43473629
v -6.2206285 4.81377556 4.98636426
v -5.51849077 8.81309046 4.17468937
v -5.51890732 8.69810594 4.82279692
v 4.71372892 10.08631334 4.03248316
v 4.80383897 9.73762762 4.07450267
v 4.71323942 9.96355152 4.71860797
v 4.8034124 9.6170532 4.74988983
v 5.33844552 0.33632526 4.46868725
v 4.20798571 -4.17161737 4.28981366
v 4.22406964 -4.23093005 4.72584845
v 5.35318821 0.265335 4.94381517
v 3.01898617 -7.54019335 4.01192392
v 2.70144142 -8.83808687 3.87088437
v 2.70830684 -8.89258371 4.29604452
v 3.03298989 -7.59837223 4.43734747
v 5.67646933 4.90815461 4.43043054
v 5.68257211 4.81453235 4.98163863
v 5.02835286 8.81310939 4.17462477
v 5.02839741 8.69811931 4.82271116
v -0.16458657 10.08630777 4.03248484
v -2.20791604 9.91884454 4.05295386
v -0.16477932 9.73762205 4.07450378
v 1.85497622 9.91885122 4.05295498
v -0.16467868 9.91884788 4.05295386
v -0.16459448 9.96355152 4.71860797
v -2.18955297 10.02492463 4.37556506
v 1.83700018 10.02492798 4.3755645
v -0.16459052 10.02492686 4.37556617
v 1.8547834 9.79714969 4.73389083
v -0.16478604 9.61705209 4.74989094
v -2.20773672 9.79714969 4.73389083
v -0.16468603 9.79714969 4.73389083
v -3.45190024 -4.16107073 4.29600777
v -4.10808163 -6.09172992 4.14690969
v -2.6261871 -7.54722333 4.01226529
v -1.78359189 -6.03470043 4.15383665
v -3.00615606 -6.06164757 4.1504748
v -6.61660231 -6.18787984 4.57180366
v -5.48387714 -7.63750379 4.21684642
v -6.60610356 -6.13382294 4.14273314
v -7.73340255 -4.21100258 4.51245701
v -6.61600144 -6.16121113 4.35719656
v -1.79140066 -6.09085786 4.5828849
v -2.63919679 -7.60375498 4.4380135
v -4.12470628 -6.14878169 4.57565222
v -3.46507171 -4.21928135 4.7327303
v -3.01935315 -6.11830396 4.57936879
v 6.36464454 10.08631334 4.03248316
v 4.75742016 9.91885233 4.05295498
v 6.48531252 9.73762762 4.07450267
v 8.22563153 9.91885233 4.05295553
v 6.42315198 9.91885233 4.05295498
v 9.3409037 7.01236952 4.91593303
v 8.69000565 8.75564553 4.49846276
v 9.33885663 7.1178727 4.31355042
v 9.80446479 4.86191121 4.70249537
v 9.34212994 7.06515118 4.61456659
v 6.36399133 9.96355152 4.71860797
v 4.713485 10.0249302 4.3755645
v 7.72369902 9.98318691 4.38007964
v 6.3643171 10.0249302 4.3755645
v 8.22485413 9.79714969 4.73389083
v 6.48474506 9.61705209 4.74989094
v 4.75696185 9.79714969 4.73389083
v 6.42254053 9.79714969 4.73389083
v -3.75654444 10.08630332 4.03248484
v -5.23613714 9.91884342 4.05295442
v -3.82322763 9.7376176 4.07450323
v -3.78887489 9.91884342 4.05295442
v -8.61710969 9.79714969 4.73389083
v -8.69750953 9.67733484 4.4122124
v -8.61787317 9.91884231 4.05295498
v -8.13094341 9.98318245 4.38008075
v -8.61749059 9.85799043 4.39343905
v -3.75619946 9.96355152 4.71860797
v -5.19069063 10.02492463 4.37556506
v -3.75637209 10.02492463 4.37556506
v -3.82292747 9.61705209 4.74989094
v -5.23568217 9.79714969 4.73389083
v -3.78855162 9.79714969 4.73389083
v -4.2399528 0.33644597 4.47815188
v -5.36813917 -1.98210964 4.41331501
v -2.25322277 -1.97158346 4.41426058
v -3.87495763 -1.97753993 4.41373211
v -8.80894787 -2.04197572 4.8654134
v -8.79532617 -1.98037373 4.4134726
v -9.71759518 0.30286401 4.71621397
v -8.81465583 -2.01036363 4.63948226
v -2.25966177 -2.03404541 4.86618689
v -5.38581158 -2.04504729 4.86510934
v -4.2512309 0.26563703 4.95414909
v -3.88762568 -2.04030635 4.86558157
v -0.17881272 0.34035529 4.47777376
v -0.19798102 -4.13867965 4.29831156
v 1.85170082 -1.97092538 4.41252425
v -0.18727117 -1.96811344 4.41411746
v 1.85766731 -2.03360965 4.86421055
v -0.19853682 -4.19640886 4.73517498
v -0.17888201 0.26976305 4.95373867
v -0.18748744 -2.03049895 4.86601036
v 7.20914161 0.33739676 4.46468443
v 4.82108759 -1.98052673 4.40514566
v 5.67560283 -4.17916218 4.28668625
v 8.31420015 -1.97837148 4.39913142
v 6.51029 -1.98089747 4.4013979
v 8.32677382 -2.04018425 4.85049473
v 9.22722116 0.30511552 4.69886956
v 7.25581547 -4.20889815 4.50259532
v 8.33068307 -2.00844339 4.62397275
v 5.6917494 -4.23781914 4.72270712
v 4.83735612 -2.04389972 4.85615035
v 7.22514172 0.2665778 4.93975723
v 6.52720728 -2.043856 4.85237585
v -3.26904917 -8.35885646 3.92508829
v -2.26853723 -9.17084265 3.83289385
v -1.41116857 -8.59356449 3.90088041
v -2.41003648 -8.49322465 3.9111191
v -4.36211181 -8.45564344 4.34499711
v -3.2593448 -8.84181682 4.08583729
v -4.35329649 -8.40178812 3.91958414
v -4.35639828 -8.42806925 4.13239755
v -2.27506686 -9.22472246 4.25813698
v -3.28238186 -8.41496154 4.35014709
v -1.4178906 -8.64882869 4.32598097
v -2.42093048 -8.54893881 4.33618235
v -4.47442639 4.90746576 4.43473629
v -6.18558663 2.64006468 4.48797292
v -2.56876779 2.64036929 4.48796456
v -4.44747228 2.64013541 4.4879757
v -10.21875085 2.55905089 4.99722498
v -10.20761337 2.64046146 4.48797904
v -10.26716439 4.86062372 4.71053274
v -10.2277299 2.59989678 4.74257027
v -2.57262108 2.55891529 4.99719881
v -6.19869601 2.55852047 4.99720995
v -4.47922665 4.81377556 4.98636426
v -4.45602365 2.5586104 4.99721496
v -0.21577403 -7.53955517 4.01479962
v -0.21830138 -9.49038379 3.79698214
v 0.95586732 -8.59142498 3.90136879
v -0.21836378 -8.62316236 3.8981094
v -0.21901607 -9.54421349 4.22225645
v 0.8307163 -9.43754645 4.01889042
v -1.28588181 -9.43710986 4.01867658
v -0.21792853 -9.51416901 4.01016977
v 0.96045054 -8.64709793 4.32640253
v -0.2169839 -7.59555333 4.44064974
v -0.21949676 -8.67851009 4.32319047
v -0.16915854 4.90750084 4.43451521
v 2.19157233 2.6406029 4.48626276
v -0.17309828 2.64054471 4.48753911
v 2.19515025 2.55915224 4.99528873
v -0.16919351 4.81381677 4.98610197
v -0.1731322 2.55912718 4.99670987
v 2.12173946 -7.54204106 4.01299646
v 1.7564891 -9.18355497 3.83182354
v 2.712198 -8.36440515 3.92491065
v 1.90045795 -8.49498215 3.91131567
v 1.76170757 -9.23787026 4.25699427
v 2.70170036 -8.86323754 4.0838253
v 1.75534194 -9.20767431 4.04493877
v 2.13255341 -7.5994715 4.43857538
v 2.72356659 -8.42146806 4.3497996
v 1.90926478 -8.55142693 4.33625307
v 7.65982888 4.90845477 4.42855944
v 5.63438689 2.64118261 4.48021454
v 9.72542873 2.64251966 4.47465137
v 7.60862094 2.64189179 4.47682374
v 9.73507046 2.56116395 4.9833616
v 9.74033849 2.6021318 4.72817563
v 5.6456235 2.55968795 4.98872931
v 7.66690007 4.81483919 4.97971296
v 7.62108658 2.56046813 4.98527335
v 3.56340095 -6.08510757 4.14564336
v 4.02317501 -7.53500662 4.01156028
v 6.12005533 -6.12816509 4.13938576
v 4.79976209 -6.10985841 4.14186775
v 6.12964749 -6.18284458 4.56820736
v 4.97625226 -7.63408792 4.21635024
v 6.12923318 -6.15608566 4.35341928
v 4.03633646 -7.59234128 4.43710579
v 3.57833687 -6.14323188 4.57402726
v 4.81400248 -6.16716077 4.57027615
v 1.3455866 -6.0319038 4.15386282
v -0.20870831 -6.02180099 4.15546495
v 1.35164748 -6.08855463 4.58279301
v -0.20963507 -6.0779807 4.58453826
v -2.24924474 9.52881981 4.09855463
v -0.16530339 8.8130938 4.1746877
v 1.89539499 9.5288265 4.09855407
v -0.16489634 9.52882315 4.09855351
v 1.89523294 9.40954514 4.76763017
v -0.16530713 8.69810706 4.82279748
v -2.24909383 9.40954514 4.76763017
v -0.16490239 9.40954514 4.76763017
v 4.85623694 9.52882761 4.09855407
v 6.7867714 8.81312164 4.17454068
v 8.394228 9.52882761 4.09855407
v 6.55548202 9.52882761 4.09855407
v 8.30446599 9.6773393 4.41221073
v 8.22524227 9.85799489 4.39343905
v 8.39357367 9.40954514 4.76763017
v 6.78693957 8.69813824 4.82261371
v 4.85585103 9.40954514 4.76763017
v 6.55496747 9.40954514 4.76763017
v -5.33839318 9.5288187 4.09855463
v -3.98967958 8.81309046 4.1746877
v -3.86201225 9.5288187 4.09855463
v -8.78752659 9.40954514 4.76763017
v -9.09373839 8.75559542 4.4987501
v -8.78816922 9.5288187 4.09855463
v -8.7878479 9.46918081 4.43310242
v -3.98976144 8.69810706 4.82279748
v -5.33801116 9.40954514 4.76763017
v -3.86173994 9.40954514 4.76763017
v 8.39390056 9.46918637 4.43310298
v -2.47712424 7.11742163 4.31631976
v 2.11622669 7.11746395 4.31608086
v -0.16656866 7.11743054 4.31627855
v 2.11675739 7.01194296 4.91857317
v -2.47786711 7.01189841 4.91884938
v -0.16659994 7.0119062 4.91879815
v 5.40786881 7.11766331 4.31484683
v 7.29766513 7.11778694 4.31408502
v 5.41025725 7.01216571 4.91720048
v 7.30051688 7.01229268 4.9164047
v -5.92067652 7.11742052 4.31631976
v -4.27187312 7.11742052 4.31631976
v -9.76867503 7.01189841 4.91884938
v -9.76588955 7.11742052 4.31631976
v -9.77136919 7.06466225 4.61758151
v -5.9239966 7.01189841 4.91884938
v -4.27378097 7.01189841 4.91884938
v -6.20436109 -4.18197217 4.29389889
v -4.56294351 -7.54164567 4.01123117
v -5.33145564 -6.11623016 4.14428069
v -4.57781344 -7.59791782 4.43701948
v -6.22179181 -4.23988876 4.73054457
v -5.34718399 -6.17255131 4.57306052
v -6.81847314 10.08630332 4.03248484
v -6.94183527 9.7376176 4.07450323
v -6.87828422 9.91884342 4.05295442
v -6.81782828 9.96355152 4.71860797
v -6.81815071 10.02492463 4.37556506
v -6.94127338 9.61705209 4.74989094
v -6.8776789 9.79714969 4.73389083
v -7.75181448 0.33558587 4.4781051
v -7.04544953 -1.98271984 4.41325932
v -7.76976533 0.26484766 4.95409674
v -7.06390156 -2.04529942 4.86508206
v -4.04185703 -8.22518436 3.93946121
v -2.26681538 -9.19493192 4.04601298
v -4.05524234 -8.28116136 4.3646158
v -8.18190965 4.90746576 4.43473629
v -8.15020847 2.64022645 4.48797514
v -8.19089426 4.81377556 4.98636426
v -8.16478911 2.55873319 4.99721774
v -7.254068 8.81309046 4.1746877
v -7.01358017 9.5288187 4.09855463
v -7.25471175 8.69810706 4.82279748
v -7.01307119 9.40954514 4.76763017
v -7.79058686 7.11742052 4.31631976
v -7.79447607 7.01189841 4.91884938
v 3.33387909 10.08631334 4.03248316
v 3.39844615 9.73762762 4.07450267
v 3.365186 9.91885233 4.05295498
v 3.33352547 9.96355152 4.71860797
v 3.33370228 10.0249302 4.3755645
v 3.39813904 9.61705209 4.74989094
v 3.36485494 9.79714969 4.73389083
v 3.76354546 0.33725831 4.47276635
v 2.96325141 -4.15854781 4.29353803
v 3.39475241 -1.97635045 4.40917409
v 2.97517074 -4.21743782 4.72989191
v 3.77384346 0.26632651 4.94820946
v 3.40646403 -2.03950138 4.860509
v 3.80683743 -8.41217272 3.91882512
v 3.48524002 -8.22776046 3.93959041
v 3.81445435 -8.46668514 4.34411948
v 3.80967108 -8.4387824 4.13157783
v 3.49680045 -8.28472535 4.36457514
v 4.01462031 4.90785446 4.43231612
v 3.97686145 2.64074546 4.4836009
v 4.01855045 4.81420602 4.9836779
v 3.98437841 2.55923856 4.99236904
v 2.50876737 -6.05639625 4.1500978
v 2.5202025 -6.11391802 4.57875178
v 3.55893175 8.81310048 4.17466932
v 3.43599006 9.52882761 4.09855407
v 3.55884126 8.6981104 4.82277465
v 3.43571162 9.40954514 4.76763017
v 3.82712408 7.11754526 4.31557967
v 3.82852267 7.0120354 4.91800683
v 7.73486434 9.09243976 4.8011941
v 8.81579854 0.18210923 4.92690568
v 4.65974664 -7.43802139 4.48154714
v 1.18737848 -1.34254036 13.54265577
v 1.52933632 5.67845403 14.58818334
v 0.88198152 -6.08642068 11.28271528
v 0.88987452 -8.76993549 4.33906863
v -8.1301532 9.09243976 4.8011941
v -9.23770988 0.18210923 4.92690568
v -5.08894078 -7.43802139 4.48154714
v -1.60930751 -1.34254036 13.54265577
v -1.93145329 5.67845403 14.58818334
v -1.31007355 -6.08642068 11.28271528
v -1.31925898 -8.76993549 4.33906863
v 8.91913324 6.01352751 4.95670013
v 1.36642136 2.90167336 14.39231228
v -9.32610254 6.01352751 4.95670013
v -1.77798473 2.90167336 14.39231228
v 9.15075564 3.00932217 4.99478699
v 1.25666756 0.54630522 14.01386608
v -9.5665486 3.00932217 4.99478699
v -1.67457693 0.54630522 14.01386608
v 7.36830352 -2.80289305 4.82971386
v 1.07018234 -3.26825618 12.70893645
v -7.79452451 -2.80289305 4.82971386
v -1.49530351 -3.26825618 12.70893645
v 5.97741533 -5.3886895 4.65773214
v 0.9685848 -4.87511331 11.94466659
v -6.4057931 -5.3886895 4.65773214
v -1.39563262 -4.87511331 11.94466659
v 0.93074116 -7.15961321 8.86650083
v 3.51505646 -6.45201533 9.24734746
v 5.40253897 3.62780234 11.93546034
v 5.00608402 -0.9622647 11.39747301
v 4.45956091 -3.17595372 10.63300309
v -1.35961322 -7.15961321 8.86650083
v -3.94357512 -6.45201533 9.24734746
v -5.8132215 3.62780234 11.93546034
v -5.42800761 -0.9622647 11.39747301
v -4.88502818 -3.17595372 10.63300309
v 5.36079511 6.23839112 11.76711446
v -5.76267068 6.23839112 11.76711446
v 5.25902133 1.20815281 11.77258631
v -5.67630728 1.20815281 11.77258631
v 3.96129904 -5.03613574 9.90160705
v -4.38879778 -5.03613574 9.90160705
v 6.93965344 -0.57458483 9.2079756
v 4.53778616 -6.78171052 7.40205636
v 0.96109498 -7.80921152 6.96604092
v 7.34112972 4.33882138 9.47116032
v 6.07055645 -3.0637945 8.59105897
v -7.36157147 -0.57458497 9.2079756
v -4.96661054 -6.78171052 7.40205636
v -1.39027465 -7.80921152 6.96604092
v -7.75095745 4.33882138 9.47116032
v -6.49632192 -3.0637945 8.59105897
v 6.93468389 6.81186471 9.10358428
v -7.33615628 6.81186471 9.10358428
v 7.28445774 1.85104399 9.47160986
v -7.70117122 1.85104399 9.47160986
v 5.26852049 -5.16736984 7.97122226
v -5.6963787 -5.16736984 7.97122226
v 0.9278759 -8.45627048 5.05891719
v 4.66462263 -7.22853977 5.30600286
v 8.24072059 -0.04970938 6.23921724
v 8.43699093 5.45001083 6.3183953
v 6.98281119 -2.88622706 5.95760035
v -5.09372879 -7.22853977 5.30600286
v -1.3572234 -8.45627048 5.05891719
v -8.66263416 -0.04970945 6.23921724
v -8.84503834 5.45001083 6.3183953
v -7.40890522 -2.88622706 5.95760035
v 7.48277905 8.21213958 6.05695786
v -7.88083223 8.21213958 6.05695786
v 8.58678733 2.66380897 6.36494052
v -9.00284593 2.66380897 6.36494052
v 5.78664189 -5.32101703 5.62497266
v -6.214881 -5.32101703 5.62497266
v -5.77500656 5.63197507 11.81768477
v -7.43953108 6.23685303 9.20275417
v 7.03598545 6.23685303 9.20275417
v 5.37091742 5.63197507 11.81768477
v -8.12552001 7.57010028 6.13213589
v 1.48803908 5.03464498 14.54821758
v -1.89253627 5.03464498 14.54821758
v 8.04047807 8.37708908 4.8516909
v 7.72495532 7.57010028 6.13213589
v -8.4387217 8.37708908 4.8516909
v 5.10622839 1.2163791 11.59435145
v 7.07958091 1.84305173 9.35047063
v 6.75521333 -0.54743971 9.09738418
v 4.86766345 -0.92733183 11.23414136
v -1.28964559 -8.6019332 4.26482671
v -4.9658827 -7.29464074 4.42418631
v -4.96978138 -7.08417011 5.24862922
v -1.32932288 -8.28605406 4.99020558
v 3.42687264 -6.31391942 9.1336301
v 4.4228473 -6.63679958 7.32456021
v 0.93733622 -7.63799384 6.90085461
v 0.91117378 -6.99266787 8.7902394
v 5.22761974 3.61966836 11.74583462
v 7.11216307 4.30678941 9.34712468
v 5.90361946 -3.00642114 8.49800639
v 4.33204728 -3.11713526 10.48770874
v -6.32933704 -3.00642114 8.49800639
v -7.17711744 -0.54743978 9.09738414
v -5.28957702 -0.92733183 11.23414136
v -4.75747306 -3.11713526 10.48770874
v -1.55201336 -1.29980499 13.33335513
v 1.13009505 -1.29980499 13.33335513
v 1.01647084 -3.20443143 12.51869483
v -1.44155275 -3.20443143 12.51869483
v 0.8442244 -5.94808086 11.14171582
v -7.52215675 4.30678941 9.34712468
v -7.18973955 6.19229975 9.08505421
v -5.57527747 5.61619103 11.62370875
v -5.63842757 3.61966836 11.74583462
v -1.34332952 -4.79852193 11.76595282
v 0.91632347 -4.79852193 11.76595282
v -1.27224062 -5.94808086 11.14171582
v 1.29449186 2.91058725 14.14256029
v 1.19436725 0.56628685 13.78606608
v 5.17100902 5.61619103 11.62370875
v 6.7859411 6.19229975 9.08505421
v 3.83836514 -4.96330883 9.7680008
v -3.85532809 -6.31391942 9.1336301
v -4.26582323 -4.96330883 9.7680008
v -8.46476337 -0.02696695 6.15924898
v -8.78083352 2.64465416 6.27914179
v -7.49636623 1.84305173 9.35047063
v -1.33998382 -6.99266787 8.7902394
v -1.36647586 -7.63799384 6.90085461
v -4.85161572 -6.63679958 7.32456021
v 4.54071531 -7.08417011 5.24862922
v 0.89999397 -8.28605406 4.99020558
v 8.18988187 5.40417117 6.23032173
v 8.36468972 2.64465416 6.27914179
v -8.59812863 5.40417117 6.23032173
v -6.04810495 -5.2445348 5.5779101
v -7.2336463 -2.82778867 5.89487793
v -5.53634416 -5.09330668 7.89127488
v -5.52356947 1.2163791 11.59435145
v -1.70615839 2.91058725 14.14256029
v -1.61232242 0.56628685 13.78606608
v 0.86027178 -8.6019332 4.26482671
v -6.24094884 -5.30843278 4.61207235
v 5.61990928 -5.2445348 5.5779101
v 5.81261117 -5.30843278 4.61207235
v 4.53671918 -7.29464074 4.42418631
v 8.04286594 -0.02696695 6.15924898
v -7.62090169 -2.74148987 4.76722978
v -9.03958905 0.20513578 4.84665119
v 8.61769274 0.20513578 4.84665119
v 7.1947375 -2.74148987 4.76722978
v 6.80760518 -2.82778867 5.89487793
v -7.86060322 7.5115572 6.0441414
v 8.92708652 2.98750495 4.91021226
v 1.40333725 5.0406648 14.2766506
v 8.66973041 5.96536679 4.86733461
v 5.10852828 -5.09330668 7.89127488
v -1.80799663 5.0406648 14.2766506
v 7.45975007 7.5115572 6.0441414
v 7.77365287 8.31804704 4.75466948
v -9.07691355 5.96536679 4.86733461
v -8.17220668 8.31804704 4.75466948
v -9.34297472 2.98750495 4.91021226
v -7.07740743 6.76659529 8.99133746
v -5.55233592 6.22258257 11.57409627
v 5.15027158 6.22258257 11.57409627
v 6.675685 6.76659529 8.99133746
v -7.60814927 8.15327908 5.97047695
v 1.4389218 5.68556642 14.30941764
v -1.84119692 5.68556642 14.30941764
v 7.20979538 8.15327908 5.97047695
v 7.46106318 9.0339546 4.70129586
v -7.85667892 9.0339546 4.70129586
v -6.06962424 6.26109043 12.04874305
v -7.7143619 6.87740324 9.26756364
v -7.80931064 6.30287271 9.36400667
v -6.0743276 5.65578145 12.0930218
v 7.40610971 6.30287271 9.36400667
v 7.31324981 6.87740324 9.26756364
v 5.66802266 6.26109043 12.04874305
v 5.67050019 5.65578145 12.0930218
v -8.27986217 8.29744269 6.18340563
v -8.51504911 7.65579544 6.25633222
v 1.66117213 5.66781773 14.99462026
v 1.61618936 5.02587533 14.94407668
v -2.06305925 5.66781773 14.99462026
v -2.02046812 5.02587533 14.94407668
v 8.43067152 8.46240445 4.9943788
v 8.13563897 9.17714591 4.94733684
v 7.8822517 8.29744269 6.18340563
v 8.11490543 7.65579544 6.25633222
v -8.53045281 9.17714591 4.94733684
v -8.82846353 8.46240445 4.9943788
g Group57531
f 26 93 97 96
f 93 25 94 97
f 97 94 45 95
f 96 97 95 46
g Group57534
f 20 98 101 100
f 98 19 99 101
f 101 99 25 93
f 100 101 93 26
g Group36275
f 20 102 105 98
f 102 47 103 105
f 105 103 48 104
f 98 105 104 19
g Group57531
f 30 106 110 109
f 106 61 107 110
f 110 107 62 108
f 109 110 108 27
g Group57534
f 1 111 115 114
f 111 3 112 115
f 115 112 28 113
f 114 115 113 29
g Group36275
f 16 116 120 119
f 116 12 117 120
f 120 117 63 118
f 119 120 118 64
g Group57531
f 32 121 125 124
f 121 77 122 125
f 125 122 78 123
f 124 125 123 49
g Group57534
f 8 126 130 129
f 126 53 127 130
f 130 127 54 128
f 129 130 128 31
f 10 131 134 133
f 131 79 132 134
f 134 132 77 121
f 133 134 121 32
g Group36275
f 10 135 138 131
f 135 50 136 138
f 138 136 80 137
f 131 138 137 79
g Group57531
f 25 139 142 94
f 139 65 140 142
f 142 140 66 141
f 94 142 141 45
g Group57534
f 9 143 147 146
f 143 52 144 147
f 147 144 51 145
f 146 147 145 34
f 19 148 150 99
f 148 67 149 150
f 150 149 65 139
f 99 150 139 25
g Group36275
f 19 104 153 148
f 104 48 151 153
f 153 151 68 152
f 148 153 152 67
g Group57531
f 36 154 157 156
f 154 69 155 157
f 157 155 61 106
f 156 157 106 30
g Group57534
f 5 158 161 160
f 158 1 114 161
f 161 114 29 159
f 160 161 159 35
g Group36275
f 15 162 165 164
f 162 16 119 165
f 165 119 64 163
f 164 165 163 70
g Group57531
f 38 166 169 168
f 166 36 156 169
f 169 156 30 167
f 168 169 167 37
g Group36275
f 13 170 173 172
f 170 14 171 173
f 173 171 16 162
f 172 173 162 15
g Group57531
f 40 174 178 177
f 174 81 175 178
f 178 175 82 176
f 177 178 176 39
g Group57534
f 6 179 182 181
f 179 7 180 182
f 182 180 40 177
f 181 182 177 39
g Group36275
f 7 179 186 185
f 179 6 183 186
f 186 183 83 184
f 185 186 184 84
g Group57531
f 27 108 190 189
f 108 62 187 190
f 190 187 71 188
f 189 190 188 41
g Group57534
f 3 191 194 112
f 191 72 192 194
f 194 192 71 193
f 112 194 193 28
g Group36275
f 22 195 198 197
f 195 72 196 198
f 198 196 63 117
f 197 198 117 12
g Group57531
f 24 199 202 201
f 199 73 200 202
f 202 200 69 154
f 201 202 154 36
g Group57534
f 4 203 206 205
f 203 5 160 206
f 206 160 35 204
f 205 206 204 33
g Group36275
f 18 207 210 209
f 207 15 164 210
f 210 164 70 208
f 209 210 208 74
g Group57531
f 43 211 214 213
f 211 27 189 214
f 214 189 41 212
f 213 214 212 42
g Group57534
f 22 215 218 217
f 215 21 216 218
f 218 216 42 212
f 217 218 212 41
g Group36275
f 11 219 221 220
f 219 21 215 221
f 221 215 22 197
f 220 221 197 12
g Group57531
f 23 222 224 223
f 222 24 201 224
f 224 201 36 166
f 223 224 166 38
g Group36275
f 17 225 227 226
f 225 13 172 227
f 227 172 15 207
f 226 227 207 18
g Group57531
f 85 228 231 230
f 228 43 213 231
f 231 213 42 229
f 230 231 229 86
g Group57534
f 21 232 234 216
f 232 87 233 234
f 234 233 86 229
f 216 234 229 42
g Group36275
f 21 219 237 232
f 219 11 235 237
f 237 235 88 236
f 232 237 236 87
g Group57531
f 31 238 241 240
f 238 89 239 241
f 241 239 81 174
f 240 241 174 40
g Group57534
f 7 242 243 180
f 242 8 129 243
f 243 129 31 240
f 180 243 240 40
g Group36275
f 8 242 246 245
f 242 7 185 246
f 246 185 84 244
f 245 246 244 90
g Group57531
f 39 176 250 249
f 176 82 247 250
f 250 247 85 248
f 249 250 248 44
g Group57534
f 2 251 253 252
f 251 6 181 253
f 253 181 39 249
f 252 253 249 44
g Group36275
f 6 251 256 183
f 251 2 254 256
f 256 254 88 255
f 183 256 255 83
g Group57531
f 37 167 258 257
f 167 30 109 258
f 258 109 27 211
f 257 258 211 43
g Group36275
f 14 259 260 171
f 259 11 220 260
f 260 220 12 116
f 171 260 116 16
g Group57531
f 46 95 264 263
f 95 45 261 264
f 264 261 55 262
f 263 264 262 56
g Group36275
f 47 265 268 103
f 265 57 266 268
f 268 266 58 267
f 103 268 267 48
g Group57531
f 49 123 272 271
f 123 78 269 272
f 272 269 91 270
f 271 272 270 54
g Group57534
f 50 135 274 273
f 135 10 133 274
f 274 133 32 124
f 273 274 124 49
g Group36275
f 50 275 278 136
f 275 53 276 278
f 278 276 92 277
f 136 278 277 80
g Group57531
f 45 141 281 261
f 141 66 279 281
f 281 279 75 280
f 261 281 280 55
g Group57534
f 52 282 285 144
f 282 60 283 285
f 285 283 59 284
f 144 285 284 51
g Group36275
f 48 267 288 151
f 267 58 286 288
f 288 286 76 287
f 151 288 287 68
g Group57534
f 53 275 289 127
f 275 50 273 289
f 289 273 49 271
f 127 289 271 54
g Group57531
f 56 262 292 291
f 262 55 290 292
f 292 290 24 222
f 291 292 222 23
g Group36275
f 57 293 295 266
f 293 17 226 295
f 295 226 18 294
f 266 295 294 58
g Group57531
f 54 270 297 128
f 270 91 296 297
f 297 296 89 238
f 128 297 238 31
g Group36275
f 53 126 299 276
f 126 8 245 299
f 299 245 90 298
f 276 299 298 92
g Group57531
f 55 280 301 290
f 280 75 300 301
f 301 300 73 199
f 290 301 199 24
g Group57534
f 60 302 304 283
f 302 4 205 304
f 304 205 33 303
f 283 304 303 59
g Group36275
f 58 294 306 286
f 294 18 209 306
f 306 209 74 305
f 286 306 305 76
g Group57531
f 61 307 309 107
f 307 29 113 309
f 309 113 28 308
f 107 309 308 62
g Group36275
f 64 118 312 311
f 118 63 310 312
f 312 310 3 111
f 311 312 111 1
g Group57531
f 65 313 315 140
f 313 34 145 315
f 315 145 51 314
f 140 315 314 66
g Group57534
f 67 316 317 149
f 316 9 146 317
f 317 146 34 313
f 149 317 313 65
g Group36275
f 67 152 319 316
f 152 68 318 319
f 319 318 52 143
f 316 319 143 9
g Group57531
f 69 320 321 155
f 320 35 159 321
f 321 159 29 307
f 155 321 307 61
g Group36275
f 70 163 323 322
f 163 64 311 323
f 323 311 1 158
f 322 323 158 5
g Group57531
f 62 308 324 187
f 308 28 193 324
f 187 324 193 71
g Group57534
f 72 195 325 192
f 195 22 217 325
f 325 217 41 188
f 192 325 188 71
g Group36275
f 72 191 326 196
f 191 3 310 326
f 196 326 310 63
g Group57531
f 73 327 328 200
f 327 33 204 328
f 328 204 35 320
f 200 328 320 69
g Group36275
f 74 208 330 329
f 208 70 322 330
f 330 322 5 203
f 329 330 203 4
g Group57531
f 66 314 332 279
f 314 51 284 332
f 332 284 59 331
f 279 332 331 75
g Group36275
f 68 287 334 318
f 287 76 333 334
f 334 333 60 282
f 318 334 282 52
g Group57531
f 75 331 335 300
f 331 59 303 335
f 335 303 33 327
f 300 335 327 73
g Group36275
f 76 305 336 333
f 305 74 329 336
f 336 329 4 302
f 333 336 302 60
g Group57531
f 77 337 339 122
f 337 26 96 339
f 339 96 46 338
f 122 339 338 78
g Group57534
f 79 340 341 132
f 340 20 100 341
f 341 100 26 337
f 132 341 337 77
g Group36275
f 79 137 343 340
f 137 80 342 343
f 343 342 47 102
f 340 343 102 20
g Group57531
f 81 344 346 175
f 344 38 168 346
f 346 168 37 345
f 175 346 345 82
g Group36275
f 84 184 349 348
f 184 83 347 349
f 349 347 14 170
f 348 349 170 13
g Group57531
f 44 248 351 350
f 248 85 230 351
f 350 351 230 86
g Group57534
f 87 352 353 233
f 352 2 252 353
f 353 252 44 350
f 233 353 350 86
g Group36275
f 88 254 354 236
f 254 2 352 354
f 236 354 352 87
g Group57531
f 89 355 356 239
f 355 23 223 356
f 356 223 38 344
f 239 356 344 81
g Group36275
f 90 244 358 357
f 244 84 348 358
f 358 348 13 225
f 357 358 225 17
g Group57531
f 82 345 359 247
f 345 37 257 359
f 359 257 43 228
f 247 359 228 85
g Group36275
f 83 255 360 347
f 255 88 235 360
f 360 235 11 259
f 347 360 259 14
g Group57531
f 78 338 362 269
f 338 46 263 362
f 362 263 56 361
f 269 362 361 91
g Group36275
f 80 277 364 342
f 277 92 363 364
f 364 363 57 265
f 342 364 265 47
g Group57531
f 91 361 365 296
f 361 56 291 365
f 365 291 23 355
f 296 365 355 89
g Group36275
f 92 298 366 363
f 298 90 357 366
f 366 357 17 293
f 363 366 293 57
g Group57531
f 458 457 456 455
g Group41170
f 400 409 425 413
g Group57531
f 462 461 460 459
g Group57534
f 376 380 459 460
g Group41170
f 435 380 376 434
g Group57531
f 466 465 464 463
g Group41170
f 397 398 414 415
g Group57531
f 455 456 468 467
g Group41170
f 409 399 416 425
g Group57531
f 470 469 457 458
g Group41170
f 401 400 413 417
g Group57531
f 474 473 472 471
g Group41170
f 406 422 418 405
g Group57531
f 478 477 476 475
g Group41170
f 392 377 370 390
g Group57531
f 479 466 463
g Group41170
f 398 397 372
g Group57531
f 483 482 481 480
g Group41170
f 404 421 446 445
g Group57531
f 478 475 473 474
g Group41170
f 392 406 405 377
g Group57531
f 486 479 485 484
g Group41170
f 379 396 394 372
g Group57531
f 488 455 467 487
g Group41170
f 386 382 399 409
g Group57531
f 476 458 455 488
g Group41170
f 370 386 409 400
g Group57531
f 467 468 490 489
g Group41170
f 399 448 447 416
g Group57531
f 485 491 470 477
g Group41170
f 394 390 401 411
g Group57531
f 486 484 493 492
g Group41170
f 379 403 412 396
g Group57531
f 472 496 495 494
g Group41170
f 418 436 442 426
g Group57531
f 499 498 497 492
g Group41170
f 419 403 402 420
g Group57531
f 465 501 500 464
g Group41170
f 415 414 430 429
g Group57531
f 477 470 458 476
g Group41170
f 390 370 400 401
g Group57531
f 456 503 502 468
g Group41170
f 425 416 432 441
g Group57531
f 498 499 461 462
g Group41170
f 420 435 434 419
g Group57531
f 479 463 491 485
g Group41170
f 372 394 411 398
g Group57531
f 497 466 479 486
g Group41170
f 402 379 372 397
g Group57531
f 496 480 504 495
g Group41170
f 426 442 437 421
g Group57531
f 507 471 506 505
g Group41170
f 428 444 438 422
g Group57531
f 510 509 483 508
g Group41170
f 388 410 404 384
g Group57531
f 475 510 508 473
g Group41170
f 377 405 410 388
g Group57531
f 493 474 471 507
g Group41170
f 412 428 422 406
g Group57531
f 484 478 474 493
g Group41170
f 396 412 406 392
g Group57531
f 510 488 487 509
g Group41170
f 388 384 382 386
g Group57531
f 475 476 488 510
g Group41170
f 377 388 386 370
g Group57531
f 484 485 477 478
g Group41170
f 396 392 390 394
g Group57531
f 473 508 496 472
g Group41170
f 405 418 426 410
g Group57531
f 498 465 466 497
g Group41170
f 420 402 397 415
g Group57531
f 462 501 465 498
g Group41170
f 435 420 415 429
g Group57531
f 459 511 501 462
g Group57534
f 380 373 511 459
g Group41170
f 380 435 429 373
g Group57531
f 461 505 512 460
g Group57534
f 395 376 460 512
g Group41170
f 434 376 395 444
g Group57531
f 500 515 514 513
g Group57534
f 369 393 514 515
g Group41170
f 430 443 393 369
g Group57531
f 508 483 480 496
g Group41170
f 410 426 421 404
g Group57531
f 457 516 503 456
g Group41170
f 413 425 441 431
g Group57531
f 506 494 518 517
g Group57534
f 375 391 517 518
g Group41170
f 438 391 375 436
g Group57531
f 521 520 519 516
g Group57534
f 389 368 519 520
g Group41170
f 433 431 368 389
g Group57531
f 480 481 522 504
g Group41170
f 421 437 449 446
g Group57531
f 516 519 523 503
g Group57534
f 368 385 523 519
g Group41170
f 431 441 385 368
g Group57531
f 513 514 520 521
g Group57534
f 393 389 520 514
g Group41170
f 443 433 389 393
g Group57531
f 487 467 489 524
g Group41170
f 382 450 448 399
g Group57531
f 503 523 525 502
g Group57534
f 385 381 525 523
g Group41170
f 441 432 381 385
g Group57531
f 526 513 521 469
g Group41170
f 427 417 433 443
g Group57531
f 509 527 482 483
g Group41170
f 384 404 445 451
g Group57531
f 509 487 524 527
g Group41170
f 384 451 450 382
g Group57531
f 502 525 529 528
g Group57534
f 381 452 529 525
g Group41170
f 432 453 452 381
g Group57531
f 504 522 531 530
g Group57534
f 454 383 530 531
g Group41170
f 437 383 454 449
g Group57531
f 491 526 469 470
g Group41170
f 411 401 417 427
g Group57531
f 505 506 517 512
g Group57534
f 391 395 512 517
g Group41170
f 444 395 391 438
g Group57531
f 497 486 492
g Group41170
f 403 379 402
g Group57531
f 495 504 530 532
g Group57534
f 383 387 532 530
g Group41170
f 442 387 383 437
g Group57531
f 494 495 532 518
g Group57534
f 387 375 518 532
g Group41170
f 436 375 387 442
g Group57531
f 501 511 515 500
g Group57534
f 373 369 515 511
g Group41170
f 429 430 369 373
g Group57531
f 499 507 505 461
g Group41170
f 419 434 444 428
g Group57531
f 464 500 513 526
g Group41170
f 414 427 443 430
g Group57531
f 492 493 507 499
g Group41170
f 403 419 428 412
g Group57531
f 463 464 526 491
g Group41170
f 398 411 427 414
g Group57531
f 471 472 494 506
g Group41170
f 422 438 436 418
g Group57531
f 469 521 516 457
g Group41170
f 417 413 431 433
g Group57531
f 468 502 528 490
g Group41170
f 416 447 453 432
g Group57531
f 482 534 533 481
g Group57534
f 408 424 533 534
g Group57531
f 489 490 536 535
g Group57534
f 423 407 535 536
g Group57531
f 481 533 537 522
g Group57534
f 424 440 537 533
g Group57531
f 524 489 535 538
g Group57534
f 407 371 538 535
g Group57531
f 527 539 534 482
g Group57534
f 378 408 534 539
g Group57531
f 527 524 538 539
g Group57534
f 371 378 539 538
g Group57531
f 528 529 541 540
g Group57534
f 367 439 540 541
f 452 367 541 529
g Group57531
f 522 537 542 531
g Group57534
f 374 454 531 542
f 440 374 542 537
g Group57531
f 490 528 540 536
g Group57534
f 439 423 536 540
g Group26423
f 546 545 544 543
g Group57534
f 424 408 543 544
f 445 446 545 546
g Group26423
f 550 549 548 547
g Group57534
f 447 448 550 547
f 407 423 548 549
g Group26423
f 545 552 551 544
g Group57534
f 440 424 544 551
f 446 449 552 545
g Group26423
f 554 553 549 550
g Group57534
f 448 450 554 550
f 371 407 549 553
g Group26423
f 556 546 543 555
g Group57534
f 408 378 555 543
f 451 445 546 556
g Group26423
f 556 555 553 554
g Group57534
f 450 451 556 554
f 378 371 553 555
g Group26423
f 560 559 558 557
g Group57534
f 452 453 560 557
f 367 452 557 558
f 439 367 558 559
g Group26423
f 552 562 561 551
g Group57534
f 374 440 551 561
f 454 374 561 562
f 449 454 562 552
g Group26423
f 547 548 559 560
g Group57534
f 453 447 547 560
f 423 439 559 548

 