# File exported by ZBrush version 2021
# www.zbrush.com
#Vertex Count 1579
#Face Count 1582
#Auto scale x=1.000000 y=1.000000 z=1.000000
#Auto offset x=-0.000000 y=-0.000000 z=-0.000000
v 0.18651479 1.00403213 0.09538232
v 0.1846638 0.99933409 0.10046681
v 0.1892592 1.00488317 0.09755533
v 0.18774348 1.00069904 0.10240601
v 0.19058385 1.00632047 0.10013607
v 0.18986758 1.00417208 0.10435756
v 0.1915327 1.0107727 0.09943244
v 0.1911838 1.00961029 0.10524646
v 0.19155791 1.01709485 0.09954611
v 0.19122633 1.01633322 0.10588494
v 0.18879887 1.02393329 0.0964683
v 0.19016748 1.02312588 0.10084468
v 0.19021737 1.01751148 0.09460694
v 0.186632 1.02865338 0.10027282
v 0.18829882 1.02699708 0.10249999
v 0.18971982 1.0228573 0.10676098
v 0.18913379 1.0152837 0.11304309
v 0.18763104 1.02225077 0.113538
v 0.18585562 1.00754201 0.11819025
v 0.189181 1.00822591 0.11193462
v 0.1855857 1.0141431 0.11958759
v 0.18439158 1.0207895 0.11970473
v 0.1872406 1.02794265 0.10707508
v 0.18506595 1.02777898 0.11336564
v 0.18437022 1.03122115 0.10589551
v 0.18176934 1.03141498 0.11258972
v 0.18227198 1.02601289 0.11914513
v 0.17904192 1.02915263 0.1188393
v 0.1780439 1.03262198 0.11124905
v 0.17538139 1.03009843 0.11793691
v 0.18102195 1.03228735 0.10423425
v 0.18371599 1.02935528 0.09827753
v 0.18587479 1.02430176 0.09390454
v 0.18722504 1.01751291 0.09170547
v 0.19026309 1.0106858 0.09495378
v 0.1874248 1.01027751 0.09230119
v 0.18786457 1.0024563 0.11047045
v 0.18541121 0.9984616 0.10882229
v 0.18200168 0.996809 0.10715464
v 0.18241524 0.99863004 0.11534979
v 0.17902317 0.99714416 0.11416944
v 0.1763291 1.00007653 0.12012616
v 0.17417064 1.0051316 0.12449925
v 0.17969849 1.00117099 0.12078077
v 0.17798653 1.00591957 0.12477702
v 0.18489906 1.00224351 0.11642757
v 0.18226727 1.00309145 0.12033931
v 0.18197211 1.00706088 0.12265796
v 0.18137231 1.01314055 0.12428992
v 0.17696335 1.01236558 0.12680506
v 0.17353045 1.02540159 0.1230214
v 0.1728205 1.01192021 0.12669831
v 0.17262077 1.01915609 0.12610265
v 0.17652237 1.01916706 0.12629155
v 0.18060699 1.01941347 0.12407019
v 0.17998218 1.02376771 0.12270323
v 0.17707142 1.02494144 0.12349835
v 0.18035712 1.00517582 0.10274136
v 0.18182647 1.00580108 0.10362174
v 0.18283426 1.00840854 0.10070725
v 0.18155089 1.00804698 0.09974607
v 0.18254289 1.00694274 0.103828
v 0.18316492 1.00861418 0.10112383
v 0.18347376 1.01050496 0.10404733
v 0.18371737 1.01159668 0.10035441
v 0.18351498 1.01564359 0.10446148
v 0.18371188 1.01614296 0.10029427
v 0.18325051 1.01627302 0.09870766
v 0.18273884 1.02045142 0.10136663
v 0.18245083 1.02033817 0.09999264
v 0.18157559 1.02299571 0.10276811
v 0.18119806 1.02321457 0.10239993
v 0.18235653 1.02061426 0.10520311
v 0.18073689 1.02021634 0.11037493
v 0.1819027 1.01483285 0.10999453
v 0.17915657 1.01395213 0.11504938
v 0.18193465 1.00937986 0.10913602
v 0.1794075 1.00892531 0.11392522
v 0.17829039 1.01903426 0.11508099
v 0.17903342 1.02384233 0.11025313
v 0.18067473 1.02384924 0.10576061
v 0.17972415 1.02482521 0.10579688
v 0.17795002 1.02499699 0.10999167
v 0.17634975 1.02351546 0.11399417
v 0.17711338 1.02246534 0.11441201
v 0.17463785 1.02394223 0.11353369
v 0.17618909 1.02554833 0.10935493
v 0.17813348 1.02529931 0.10504176
v 0.17984402 1.02349484 0.10151235
v 0.18106427 1.02047574 0.09880306
v 0.18182638 1.01626992 0.09735418
v 0.1820248 1.01178515 0.0978095
v 0.18337774 1.01194906 0.09903346
v 0.18023482 1.00431895 0.10762757
v 0.18105027 1.00559246 0.10816674
v 0.17861914 1.00355756 0.1068407
v 0.17686161 1.00381863 0.11123278
v 0.17845216 1.00449013 0.11181908
v 0.17572546 1.00897824 0.11762306
v 0.17687901 1.00609588 0.11517394
v 0.17533716 1.00563442 0.11484096
v 0.17393106 1.00864243 0.11747158
v 0.17898181 1.00555992 0.11247889
v 0.17691758 1.00895702 0.11687306
v 0.17738035 1.00636875 0.11517635
v 0.1749337 1.01304364 0.11891181
v 0.17637178 1.01329267 0.11812556
v 0.17297056 1.01733338 0.11846523
v 0.17479825 1.01736664 0.11858216
v 0.17298141 1.0128355 0.1188414
v 0.1759389 1.01781106 0.11788528
v 0.17524296 1.02090144 0.11686662
v 0.17579096 1.02075064 0.11682058
v 0.17363038 1.02108216 0.11660721
v 0.19126629 1.00326049 0.09579078
v 0.18948489 0.99833691 0.10148639
v 0.18640524 0.99697184 0.09954715
v 0.18852177 1.0024085 0.09361776
v 0.18251937 1.03427624 0.11335557
v 0.1787939 1.03548145 0.11201494
v 0.175682 1.03258729 0.11971748
v 0.17934265 1.03164219 0.12061985
v 0.18219009 1.03511416 0.10390772
v 0.18553829 1.03404748 0.10556892
v 0.18528211 1.0317254 0.09696956
v 0.18819779 1.03102302 0.09896477
v 0.18782007 1.02584826 0.0919237
v 0.19074404 1.0254805 0.09448752
v 0.19240012 1.01801443 0.09232292
v 0.18940782 1.01801443 0.08942181
v 0.19244635 1.01007556 0.09272635
v 0.18960815 1.00966811 0.09007383
v 0.18677908 0.9957326 0.1089492
v 0.18336924 0.99408054 0.10728158
v 0.18328917 0.99593126 0.11653728
v 0.17989721 0.99444538 0.11535694
v 0.17673012 0.99782955 0.12226336
v 0.18009945 0.99892318 0.12291801
v 0.17808324 1.00449931 0.12761868
v 0.17426729 1.00371182 0.12734089
v 0.17689809 1.01199495 0.12998172
v 0.17638084 1.01990282 0.12937976
v 0.17247918 1.01989209 0.12919072
v 0.17275551 1.01155018 0.12987513
v 0.17703107 1.0266869 0.12609197
v 0.17349034 1.02714681 0.1256151
v 0.15109826 1.04888582 -0.0968591
v 0.15592408 1.04479515 -0.09349268
v 0.15392136 1.05084443 -0.09794092
v 0.15855151 1.04729509 -0.09489199
v 0.15628169 1.05301952 -0.09751805
v 0.1601497 1.05151081 -0.09512842
v 0.15482421 1.05736804 -0.09794291
v 0.15991792 1.05716645 -0.09489516
v 0.15310126 1.06335604 -0.09686368
v 0.15853016 1.06362652 -0.09349862
v 0.14728057 1.06848752 -0.09495897
v 0.151828 1.06886661 -0.09403429
v 0.14820386 1.06252098 -0.09816169
v 0.148156 1.07296884 -0.09041959
v 0.15126675 1.07226514 -0.0909758
v 0.15670515 1.06949627 -0.09070369
v 0.16394399 1.06326139 -0.08827576
v 0.16167014 1.06948506 -0.08560392
v 0.16906271 1.05590462 -0.08417193
v 0.16507157 1.05643165 -0.09004148
v 0.16821157 1.06228947 -0.08214686
v 0.1658497 1.06823527 -0.07998034
v 0.15438437 1.07363593 -0.08760729
v 0.15877138 1.07393372 -0.08260807
v 0.15114875 1.07570362 -0.08523432
v 0.15558193 1.07628703 -0.07961113
v 0.16291226 1.07245767 -0.07760797
v 0.16029359 1.07444167 -0.07451102
v 0.15242572 1.07612979 -0.07693778
v 0.15761263 1.07413184 -0.07171392
v 0.14793165 1.07546818 -0.08306586
v 0.1449563 1.07245647 -0.08884633
v 0.14369338 1.06756138 -0.09372165
v 0.14440693 1.06116998 -0.09709811
v 0.15049383 1.0561577 -0.09915092
v 0.14709478 1.05450761 -0.09815915
v 0.16491304 1.05036437 -0.09062055
v 0.16357459 1.0456146 -0.09003803
v 0.16111165 1.04279613 -0.08826942
v 0.16769655 1.04603231 -0.08416884
v 0.16560517 1.04345941 -0.08214085
v 0.16858036 1.04647135 -0.0763603
v 0.16984319 1.05136799 -0.07148497
v 0.17033067 1.04857862 -0.07870004
v 0.17156426 1.05324959 -0.07444394
v 0.16867731 1.05033373 -0.08512916
v 0.17055559 1.05104947 -0.08078093
v 0.1712335 1.0551033 -0.07870205
v 0.17058296 1.06094312 -0.07636477
v 0.17095233 1.05938112 -0.07148738
v 0.16243818 1.07004332 -0.06834736
v 0.16912978 1.05775749 -0.06810858
v 0.16644172 1.06442165 -0.06704745
v 0.16835089 1.06558013 -0.0702521
v 0.16823734 1.06660163 -0.07479351
v 0.16554077 1.07029426 -0.07423856
v 0.16456528 1.0707035 -0.0711787
v 0.15422053 1.04946017 -0.08773208
v 0.15544357 1.05062067 -0.0884267
v 0.15267817 1.05286932 -0.0903254
v 0.15139408 1.05199635 -0.08978565
v 0.15560917 1.05193686 -0.08874014
v 0.15311934 1.05322885 -0.09036034
v 0.15518152 1.05559945 -0.0888293
v 0.15185377 1.05606699 -0.09072554
v 0.15406242 1.06052672 -0.0878067
v 0.15048416 1.06034231 -0.09000127
v 0.14889833 1.06006097 -0.09039279
v 0.14970593 1.06430923 -0.0879238
v 0.14844818 1.06388461 -0.08839467
v 0.1496312 1.06661534 -0.08580979
v 0.14908711 1.06665051 -0.08564063
v 0.15272964 1.06500935 -0.08563058
v 0.15648831 1.06505501 -0.08170636
v 0.15824919 1.06024742 -0.08377393
v 0.1615428 1.05949485 -0.07903519
v 0.15911655 1.05496871 -0.08513528
v 0.16216073 1.05463504 -0.08064612
v 0.15970896 1.06404388 -0.07744756
v 0.15457026 1.06796503 -0.07972808
v 0.15150861 1.06767308 -0.0833911
v 0.15082977 1.0683279 -0.08240725
v 0.15352825 1.06869971 -0.07875303
v 0.15662108 1.06752896 -0.07561621
v 0.15762141 1.06682813 -0.07622415
v 0.15533921 1.06736207 -0.07433006
v 0.15203934 1.06860625 -0.07749413
v 0.14933963 1.06819093 -0.08136518
v 0.14764772 1.06637513 -0.08489801
v 0.14678014 1.06341409 -0.08780085
v 0.14711552 1.05941975 -0.08987344
v 0.14888785 1.05532574 -0.09055065
v 0.1504828 1.05607664 -0.09104892
v 0.15854345 1.04945218 -0.08529559
v 0.15899659 1.05097889 -0.08550247
v 0.15737274 1.04813802 -0.08445211
v 0.16021966 1.04863178 -0.0806973
v 0.1612354 1.04982066 -0.08163585
v 0.16361649 1.05426383 -0.07564842
v 0.16289921 1.051458 -0.07834049
v 0.16205875 1.05052483 -0.07728029
v 0.16277959 1.05340731 -0.07426199
v 0.1617212 1.05109334 -0.08157342
v 0.16352443 1.05445635 -0.07704075
v 0.16304755 1.05185854 -0.07871861
v 0.16317306 1.05809044 -0.07365498
v 0.16308243 1.05860221 -0.07522922
v 0.16067178 1.06149697 -0.07151192
v 0.16158184 1.06207168 -0.07299401
v 0.16229645 1.05732429 -0.07207246
v 0.16137686 1.06269741 -0.07423914
v 0.15930831 1.06523895 -0.07365603
v 0.15955922 1.06524539 -0.07416799
v 0.15831241 1.06490242 -0.07239276
v 0.15380168 1.04958677 -0.10080107
v 0.15924036 1.04540979 -0.09722127
v 0.15661303 1.04290962 -0.09582196
v 0.15097852 1.04762697 -0.09971916
v 0.15573769 1.07932961 -0.0793859
v 0.15258206 1.07917141 -0.07671295
v 0.15853194 1.07686924 -0.07065602
v 0.16121287 1.07717931 -0.07345319
v 0.14736197 1.07841098 -0.0837534
v 0.15057915 1.07864713 -0.08592204
v 0.14386844 1.07491517 -0.09044312
v 0.14706794 1.07542765 -0.09201632
v 0.14244543 1.06923675 -0.0961161
v 0.14603243 1.0701648 -0.09735317
v 0.14710857 1.06322896 -0.10108277
v 0.14331217 1.06187748 -0.10001926
v 0.14976869 1.05582654 -0.10222736
v 0.14636947 1.05417764 -0.10123556
v 0.16508621 1.04345536 -0.09158157
v 0.16262337 1.04063618 -0.08981278
v 0.16987393 1.04394114 -0.08475235
v 0.16778273 1.04136836 -0.0827244
v 0.17121736 1.04483306 -0.07598812
v 0.17296777 1.04693973 -0.0783279
v 0.17442072 1.05242347 -0.0733211
v 0.17269949 1.05054223 -0.07036199
v 0.17371524 1.05955588 -0.06988469
v 0.17068459 1.06676077 -0.06844708
v 0.16877496 1.06560242 -0.06524234
v 0.17189267 1.05793368 -0.06650587
v 0.1662338 1.07278156 -0.06954311
v 0.1641068 1.07212102 -0.06671192
v -0.18651479 1.00403213 0.09538232
v -0.1846638 0.99933409 0.10046681
v -0.1892592 1.00488317 0.09755533
v -0.18774348 1.00069904 0.10240601
v -0.19058385 1.00632047 0.10013607
v -0.18986758 1.00417208 0.10435756
v -0.1915327 1.0107727 0.09943244
v -0.1911838 1.00961029 0.10524646
v -0.19155791 1.01709485 0.09954611
v -0.19122633 1.01633322 0.10588494
v -0.18879887 1.02393329 0.0964683
v -0.19016748 1.02312588 0.10084468
v -0.19021737 1.01751148 0.09460694
v -0.186632 1.02865338 0.10027282
v -0.18829882 1.02699708 0.10249999
v -0.18971982 1.0228573 0.10676098
v -0.18913379 1.0152837 0.11304309
v -0.18763104 1.02225077 0.113538
v -0.18585562 1.00754201 0.11819025
v -0.189181 1.00822591 0.11193462
v -0.1855857 1.0141431 0.11958759
v -0.18439158 1.0207895 0.11970473
v -0.1872406 1.02794265 0.10707508
v -0.18506595 1.02777898 0.11336564
v -0.18437022 1.03122115 0.10589551
v -0.18176934 1.03141498 0.11258972
v -0.18227198 1.02601289 0.11914513
v -0.17904192 1.02915263 0.1188393
v -0.1780439 1.03262198 0.11124905
v -0.17538139 1.03009843 0.11793691
v -0.18102195 1.03228735 0.10423425
v -0.18371599 1.02935528 0.09827753
v -0.18587479 1.02430176 0.09390454
v -0.18722504 1.01751291 0.09170547
v -0.19026309 1.0106858 0.09495378
v -0.1874248 1.01027751 0.09230119
v -0.18786457 1.0024563 0.11047045
v -0.18541121 0.9984616 0.10882229
v -0.18200168 0.996809 0.10715464
v -0.18241524 0.99863004 0.11534979
v -0.17902317 0.99714416 0.11416944
v -0.1763291 1.00007653 0.12012616
v -0.17417064 1.0051316 0.12449925
v -0.17969849 1.00117099 0.12078077
v -0.17798653 1.00591957 0.12477702
v -0.18489906 1.00224351 0.11642757
v -0.18226727 1.00309145 0.12033931
v -0.18197211 1.00706088 0.12265796
v -0.18137231 1.01314055 0.12428992
v -0.17696335 1.01236558 0.12680506
v -0.17353045 1.02540159 0.1230214
v -0.1728205 1.01192021 0.12669831
v -0.17262077 1.01915609 0.12610265
v -0.17652237 1.01916706 0.12629155
v -0.18060699 1.01941347 0.12407019
v -0.17998218 1.02376771 0.12270323
v -0.17707142 1.02494144 0.12349835
v -0.18035712 1.00517582 0.10274136
v -0.18182647 1.00580108 0.10362174
v -0.18283426 1.00840854 0.10070725
v -0.18155089 1.00804698 0.09974607
v -0.18254289 1.00694274 0.103828
v -0.18316492 1.00861418 0.10112383
v -0.18347376 1.01050496 0.10404733
v -0.18371737 1.01159668 0.10035441
v -0.18351498 1.01564359 0.10446148
v -0.18371188 1.01614296 0.10029427
v -0.18325051 1.01627302 0.09870766
v -0.18273884 1.02045142 0.10136663
v -0.18245083 1.02033817 0.09999264
v -0.18157559 1.02299571 0.10276811
v -0.18119806 1.02321457 0.10239993
v -0.18235653 1.02061426 0.10520311
v -0.18073689 1.02021634 0.11037493
v -0.1819027 1.01483285 0.10999453
v -0.17915657 1.01395213 0.11504938
v -0.18193465 1.00937986 0.10913602
v -0.1794075 1.00892531 0.11392522
v -0.17829039 1.01903426 0.11508099
v -0.17903342 1.02384233 0.11025313
v -0.18067473 1.02384924 0.10576061
v -0.17972415 1.02482521 0.10579688
v -0.17795002 1.02499699 0.10999167
v -0.17634975 1.02351546 0.11399417
v -0.17711338 1.02246534 0.11441201
v -0.17463785 1.02394223 0.11353369
v -0.17618909 1.02554833 0.10935493
v -0.17813348 1.02529931 0.10504176
v -0.17984402 1.02349484 0.10151235
v -0.18106427 1.02047574 0.09880306
v -0.18182638 1.01626992 0.09735418
v -0.1820248 1.01178515 0.0978095
v -0.18337774 1.01194906 0.09903346
v -0.18023482 1.00431895 0.10762757
v -0.18105027 1.00559246 0.10816674
v -0.17861914 1.00355756 0.1068407
v -0.17686161 1.00381863 0.11123278
v -0.17845216 1.00449013 0.11181908
v -0.17572546 1.00897824 0.11762306
v -0.17687901 1.00609588 0.11517394
v -0.17533716 1.00563442 0.11484096
v -0.17393106 1.00864243 0.11747158
v -0.17898181 1.00555992 0.11247889
v -0.17691758 1.00895702 0.11687306
v -0.17738035 1.00636875 0.11517635
v -0.1749337 1.01304364 0.11891181
v -0.17637178 1.01329267 0.11812556
v -0.17297056 1.01733338 0.11846523
v -0.17479825 1.01736664 0.11858216
v -0.17298141 1.0128355 0.1188414
v -0.1759389 1.01781106 0.11788528
v -0.17524296 1.02090144 0.11686662
v -0.17579096 1.02075064 0.11682058
v -0.17363038 1.02108216 0.11660721
v -0.19126629 1.00326049 0.09579078
v -0.18948489 0.99833691 0.10148639
v -0.18640524 0.99697184 0.09954715
v -0.18852177 1.0024085 0.09361776
v -0.18251937 1.03427624 0.11335557
v -0.1787939 1.03548145 0.11201494
v -0.175682 1.03258729 0.11971748
v -0.17934265 1.03164219 0.12061985
v -0.18219009 1.03511416 0.10390772
v -0.18553829 1.03404748 0.10556892
v -0.18528211 1.0317254 0.09696956
v -0.18819779 1.03102302 0.09896477
v -0.18782007 1.02584826 0.0919237
v -0.19074404 1.0254805 0.09448752
v -0.19240012 1.01801443 0.09232292
v -0.18940782 1.01801443 0.08942181
v -0.19244635 1.01007556 0.09272635
v -0.18960815 1.00966811 0.09007383
v -0.18677908 0.9957326 0.1089492
v -0.18336924 0.99408054 0.10728158
v -0.18328917 0.99593126 0.11653728
v -0.17989721 0.99444538 0.11535694
v -0.17673012 0.99782955 0.12226336
v -0.18009945 0.99892318 0.12291801
v -0.17808324 1.00449931 0.12761868
v -0.17426729 1.00371182 0.12734089
v -0.17689809 1.01199495 0.12998172
v -0.17638084 1.01990282 0.12937976
v -0.17247918 1.01989209 0.12919072
v -0.17275551 1.01155018 0.12987513
v -0.17703107 1.0266869 0.12609197
v -0.17349034 1.02714681 0.1256151
v -0.15109826 1.04888582 -0.0968591
v -0.15592408 1.04479515 -0.09349268
v -0.15392136 1.05084443 -0.09794092
v -0.15855151 1.04729509 -0.09489199
v -0.15628169 1.05301952 -0.09751805
v -0.1601497 1.05151081 -0.09512842
v -0.15482421 1.05736804 -0.09794291
v -0.15991792 1.05716645 -0.09489516
v -0.15310126 1.06335604 -0.09686368
v -0.15853016 1.06362652 -0.09349862
v -0.14728057 1.06848752 -0.09495897
v -0.151828 1.06886661 -0.09403429
v -0.14820386 1.06252098 -0.09816169
v -0.148156 1.07296884 -0.09041959
v -0.15126675 1.07226514 -0.0909758
v -0.15670515 1.06949627 -0.09070369
v -0.16394399 1.06326139 -0.08827576
v -0.16167014 1.06948506 -0.08560392
v -0.16906271 1.05590462 -0.08417193
v -0.16507157 1.05643165 -0.09004148
v -0.16821157 1.06228947 -0.08214686
v -0.1658497 1.06823527 -0.07998034
v -0.15438437 1.07363593 -0.08760729
v -0.15877138 1.07393372 -0.08260807
v -0.15114875 1.07570362 -0.08523432
v -0.15558193 1.07628703 -0.07961113
v -0.16291226 1.07245767 -0.07760797
v -0.16029359 1.07444167 -0.07451102
v -0.15242572 1.07612979 -0.07693778
v -0.15761263 1.07413184 -0.07171392
v -0.14793165 1.07546818 -0.08306586
v -0.1449563 1.07245647 -0.08884633
v -0.14369338 1.06756138 -0.09372165
v -0.14440693 1.06116998 -0.09709811
v -0.15049383 1.0561577 -0.09915092
v -0.14709478 1.05450761 -0.09815915
v -0.16491304 1.05036437 -0.09062055
v -0.16357459 1.0456146 -0.09003803
v -0.16111165 1.04279613 -0.08826942
v -0.16769655 1.04603231 -0.08416884
v -0.16560517 1.04345941 -0.08214085
v -0.16858036 1.04647135 -0.0763603
v -0.16984319 1.05136799 -0.07148497
v -0.17033067 1.04857862 -0.07870004
v -0.17156426 1.05324959 -0.07444394
v -0.16867731 1.05033373 -0.08512916
v -0.17055559 1.05104947 -0.08078093
v -0.1712335 1.0551033 -0.07870205
v -0.17058296 1.06094312 -0.07636477
v -0.17095233 1.05938112 -0.07148738
v -0.16243818 1.07004332 -0.06834736
v -0.16912978 1.05775749 -0.06810858
v -0.16644172 1.06442165 -0.06704745
v -0.16835089 1.06558013 -0.0702521
v -0.16823734 1.06660163 -0.07479351
v -0.16554077 1.07029426 -0.07423856
v -0.16456528 1.0707035 -0.0711787
v -0.15422053 1.04946017 -0.08773208
v -0.15544357 1.05062067 -0.0884267
v -0.15267817 1.05286932 -0.0903254
v -0.15139408 1.05199635 -0.08978565
v -0.15560917 1.05193686 -0.08874014
v -0.15311934 1.05322885 -0.09036034
v -0.15518152 1.05559945 -0.0888293
v -0.15185377 1.05606699 -0.09072554
v -0.15406242 1.06052672 -0.0878067
v -0.15048416 1.06034231 -0.09000127
v -0.14889833 1.06006097 -0.09039279
v -0.14970593 1.06430923 -0.0879238
v -0.14844818 1.06388461 -0.08839467
v -0.1496312 1.06661534 -0.08580979
v -0.14908711 1.06665051 -0.08564063
v -0.15272964 1.06500935 -0.08563058
v -0.15648831 1.06505501 -0.08170636
v -0.15824919 1.06024742 -0.08377393
v -0.1615428 1.05949485 -0.07903519
v -0.15911655 1.05496871 -0.08513528
v -0.16216073 1.05463504 -0.08064612
v -0.15970896 1.06404388 -0.07744756
v -0.15457026 1.06796503 -0.07972808
v -0.15150861 1.06767308 -0.0833911
v -0.15082977 1.0683279 -0.08240725
v -0.15352825 1.06869971 -0.07875303
v -0.15662108 1.06752896 -0.07561621
v -0.15762141 1.06682813 -0.07622415
v -0.15533921 1.06736207 -0.07433006
v -0.15203934 1.06860625 -0.07749413
v -0.14933963 1.06819093 -0.08136518
v -0.14764772 1.06637513 -0.08489801
v -0.14678014 1.06341409 -0.08780085
v -0.14711552 1.05941975 -0.08987344
v -0.14888785 1.05532574 -0.09055065
v -0.1504828 1.05607664 -0.09104892
v -0.15854345 1.04945218 -0.08529559
v -0.15899659 1.05097889 -0.08550247
v -0.15737274 1.04813802 -0.08445211
v -0.16021966 1.04863178 -0.0806973
v -0.1612354 1.04982066 -0.08163585
v -0.16361649 1.05426383 -0.07564842
v -0.16289921 1.051458 -0.07834049
v -0.16205875 1.05052483 -0.07728029
v -0.16277959 1.05340731 -0.07426199
v -0.1617212 1.05109334 -0.08157342
v -0.16352443 1.05445635 -0.07704075
v -0.16304755 1.05185854 -0.07871861
v -0.16317306 1.05809044 -0.07365498
v -0.16308243 1.05860221 -0.07522922
v -0.16067178 1.06149697 -0.07151192
v -0.16158184 1.06207168 -0.07299401
v -0.16229645 1.05732429 -0.07207246
v -0.16137686 1.06269741 -0.07423914
v -0.15930831 1.06523895 -0.07365603
v -0.15955922 1.06524539 -0.07416799
v -0.15831241 1.06490242 -0.07239276
v -0.15380168 1.04958677 -0.10080107
v -0.15924036 1.04540979 -0.09722127
v -0.15661303 1.04290962 -0.09582196
v -0.15097852 1.04762697 -0.09971916
v -0.15573769 1.07932961 -0.0793859
v -0.15258206 1.07917141 -0.07671295
v -0.15853194 1.07686924 -0.07065602
v -0.16121287 1.07717931 -0.07345319
v -0.14736197 1.07841098 -0.0837534
v -0.15057915 1.07864713 -0.08592204
v -0.14386844 1.07491517 -0.09044312
v -0.14706794 1.07542765 -0.09201632
v -0.14244543 1.06923675 -0.0961161
v -0.14603243 1.0701648 -0.09735317
v -0.14710857 1.06322896 -0.10108277
v -0.14331217 1.06187748 -0.10001926
v -0.14976869 1.05582654 -0.10222736
v -0.14636947 1.05417764 -0.10123556
v -0.16508621 1.04345536 -0.09158157
v -0.16262337 1.04063618 -0.08981278
v -0.16987393 1.04394114 -0.08475235
v -0.16778273 1.04136836 -0.0827244
v -0.17121736 1.04483306 -0.07598812
v -0.17296777 1.04693973 -0.0783279
v -0.17442072 1.05242347 -0.0733211
v -0.17269949 1.05054223 -0.07036199
v -0.17371524 1.05955588 -0.06988469
v -0.17068459 1.06676077 -0.06844708
v -0.16877496 1.06560242 -0.06524234
v -0.17189267 1.05793368 -0.06650587
v -0.1662338 1.07278156 -0.06954311
v -0.1641068 1.07212102 -0.06671192
v -0.20868156 0.91978389 0.06499108
v -0.2155088 0.91833567 0.01512648
v -0.19052989 1.01058554 0.02014942
v -0.1864179 1.00601673 0.07093422
v -0.18317049 1.00325298 0.02189187
v -0.20651055 0.91689795 0.01638556
v -0.20013882 0.9198392 0.06257064
v -0.1794511 1.00228405 0.06957
v -0.04138616 0.84721368 0.14000929
v -0.0319607 0.87185889 0.15278084
v -0.02191234 0.83383017 0.13081243
v -0.02919736 0.82296627 0.11978776
v -0.02065547 0.8422923 0.12673828
v -0.03038341 0.8806371 0.14798292
v -0.03923222 0.85651224 0.13495209
v -0.02748537 0.83096623 0.11522448
v -0.16624033 1.00592422 0.11412702
v -0.1852231 0.92506516 0.10655508
v -0.17897111 0.92779612 0.10093632
v -0.16060392 1.00730228 0.10988883
v -0.13444629 1.01093781 0.14602817
v -0.15141174 0.93007302 0.13634012
v -0.14776432 0.93680834 0.1285994
v -0.1305813 1.01823604 0.13997201
v -0.16585181 1.09029316 0.02896731
v -0.16719476 1.08655464 0.08145263
v -0.16164396 1.08025109 0.02818363
v -0.16224421 1.07670629 0.07706759
v -0.17983879 1.0170145 -0.03445728
v -0.15005284 1.1008681 -0.02665743
v -0.14730502 1.09054255 -0.02389025
v -0.17326115 1.00823497 -0.02950568
v -0.14998635 1.09347331 0.12699401
v -0.11828294 1.11522734 0.15988922
v -0.14590059 1.08233821 0.11971081
v -0.11607525 1.09883642 0.15107697
v -0.07376097 1.13364255 0.1756653
v -0.09510006 1.02196872 0.1691333
v -0.0729855 1.11387741 0.16884902
v -0.09786731 1.02102756 0.15878398
v -0.04921461 1.05377888 0.18292653
v -0.07193713 1.00436735 0.16692407
v -0.04691973 1.04774689 0.1759772
v -0.00367202 0.80682587 0.08170164
v -0.00948755 0.80503064 0.07693929
v -0.01453721 0.81249439 0.10439068
v -0.0072538 0.81640547 0.11062836
v -0.01426439 0.82099288 0.10144607
v -0.01061124 0.81462949 0.0756859
v -0.00440516 0.81606841 0.08082764
v -0.00721811 0.82461744 0.108057
v -0.08374264 0.90139138 0.15737322
v -0.11602426 0.92087853 0.15074199
v -0.11331491 0.93732994 0.14492747
v -0.08252153 0.9225378 0.15115547
v -0.04939231 0.92743474 0.16685098
v -0.05858166 0.87526851 0.15309943
v -0.05658784 0.88783294 0.14750218
v -0.04577807 0.93637573 0.16204354
v -0.15562972 1.01895296 -0.08283392
v -0.11933065 1.10031783 -0.07498557
v -0.11868044 1.09007608 -0.06889677
v -0.15060943 1.00861799 -0.0754005
v -0.06893096 0.83570718 0.13488517
v -0.09714447 0.84872615 0.13879345
v -0.06632823 0.85140085 0.13126058
v -0.09417647 0.86605417 0.1342103
v -0.04886662 0.8249129 0.12429451
v -0.04659681 0.83736264 0.12117364
v -0.01950564 0.89474397 0.16193281
v -0.01232343 0.84381032 0.13865765
v -0.01867507 0.90255433 0.1572531
v -0.01176047 0.85208958 0.13479335
v -0.00358527 0.82132643 0.00001804
v -0.0041284 0.81809568 0.01458063
v 0.00104476 0.82033151 0.01647737
v 0.00153693 0.82412421 0.00146222
v -0.00147272 0.83071255 0.01779417
v -0.00732395 0.82857406 0.01562458
v -0.00745924 0.83183199 0.00090974
v -0.00146114 0.83468872 0.00255943
v -0.03061986 0.96643978 0.17660073
v -0.02904934 0.97299724 0.17184023
v -0.00346063 0.8231728 -0.01323965
v 0.00172387 0.82646781 -0.01211384
v -0.0080349 0.83366143 -0.01237083
v -0.00172511 0.83719086 -0.011129
v -0.16999769 0.86040401 0.12146809
v -0.20366649 0.85566389 0.09490972
v -0.16407659 0.87174487 0.11620628
v -0.1949598 0.86204713 0.09128618
v -0.0440316 0.83533203 -0.1097428
v -0.02803747 0.85651713 -0.11214403
v -0.04318906 0.88168996 -0.13479441
v -0.06466285 0.84875804 -0.13166348
v -0.04875825 0.88516092 -0.12688759
v -0.03510797 0.86235404 -0.10653395
v -0.05110203 0.84158414 -0.10395327
v -0.06963326 0.85358858 -0.12326961
v -0.06075808 0.91312891 -0.1494309
v -0.08812839 0.86416637 -0.14595201
v -0.09017019 0.86790764 -0.1351571
v -0.06428147 0.91378563 -0.13950541
v -0.08249872 0.82185035 -0.12203925
v -0.05851402 0.81757336 -0.10389549
v -0.08464257 0.82582485 -0.11845361
v -0.06266966 0.8224346 -0.10114869
v -0.00383602 0.82417577 -0.02568752
v 0.00161057 0.82789826 -0.02481535
v -0.00907268 0.83458864 -0.02466532
v -0.00222379 0.83872324 -0.02375669
v -0.13195754 0.85813778 0.13495315
v -0.12812572 0.87391239 0.12960472
v -0.00657686 0.80750942 0.05203165
v -0.00127705 0.80884581 0.05559411
v -0.00865633 0.81771183 0.0523942
v -0.00274481 0.81874084 0.0562423
v -0.00504955 0.8131656 0.03146392
v 0.00018017 0.81482636 0.03404358
v -0.00766751 0.82357597 0.03249754
v -0.00184745 0.82501792 0.03536941
v -0.10873355 0.82690155 -0.1316421
v -0.10827887 0.83011078 -0.12768939
v -0.09460426 1.02970933 -0.1331491
v -0.07935505 0.95518583 -0.15240354
v -0.04162356 0.99724644 -0.15283106
v -0.05059449 1.0348699 -0.14462302
v -0.04296759 0.99349844 -0.14175196
v -0.08087343 0.95075684 -0.14145474
v -0.09784687 0.98932898 -0.12909691
v -0.05394237 1.0289042 -0.13123123
v -0.12433808 1.02206563 -0.11520528
v -0.06960552 1.08993053 -0.11018788
v -0.07099605 1.08260822 -0.10312215
v -0.12058872 1.00455391 -0.10868649
v -0.18792441 0.91583514 -0.08511359
v -0.20792739 0.91917192 -0.0369769
v -0.18116523 0.91553634 -0.07725621
v -0.19972457 0.91772496 -0.03251382
v -0.01151441 0.87259262 -0.11318843
v -0.02012438 0.90710139 -0.13525256
v -0.01607503 0.87933325 -0.10739844
v -0.02367523 0.91108363 -0.12746509
v -0.03045375 0.95028293 -0.14913964
v -0.03274557 0.9508475 -0.13962364
v -0.11289107 0.88307499 -0.15083164
v -0.13576297 0.83468532 -0.1334804
v -0.13242828 0.83693552 -0.12941803
v -0.11168918 0.8863551 -0.13822606
v -0.13563755 0.90183395 -0.14165875
v -0.16070868 0.84064149 -0.12577226
v -0.15489921 0.84158271 -0.12191686
v -0.1319542 0.90498894 -0.12913709
v -0.15775039 0.90841001 -0.12130727
v -0.1528851 0.91035175 -0.11046487
v -0.23500515 0.84390574 0.01096736
v -0.23009306 0.84473085 -0.03567951
v -0.22357504 0.84576946 0.01216221
v -0.21952758 0.84599804 -0.03304711
v -0.21262458 0.84387594 -0.07821582
v -0.1828275 0.84063333 -0.10917494
v -0.20364052 0.84482502 -0.07445409
v -0.17551943 0.84131646 -0.10525547
v -0.22630477 0.84820795 0.0562833
v -0.21549351 0.85152125 0.05522919
v -0.03430699 0.81044244 0.10623572
v -0.03305522 0.81988757 0.10293889
v -0.02019419 0.80804508 0.09590436
v -0.02028009 0.8162648 0.09229045
v -0.02437567 0.80101865 0.08658314
v -0.02552839 0.80974084 0.08328107
v -0.01467233 0.80255526 0.07037454
v -0.01689919 0.81194919 0.06871029
v -0.02020098 0.79697173 0.06364329
v -0.02318443 0.80612117 0.06209779
v -0.03929385 0.81009709 -0.07622937
v -0.0281439 0.82332599 -0.08262859
v -0.04427776 0.81625354 -0.07441152
v -0.03594987 0.83076131 -0.07876297
v -0.02998375 0.80957222 -0.05944141
v -0.01948307 0.81860262 -0.06311558
v -0.03481771 0.81729573 -0.05819112
v -0.02701916 0.82745569 -0.06063965
v -0.02562478 0.81180125 -0.04868204
v -0.01526017 0.81823307 -0.04974767
v -0.02982216 0.82078272 -0.04769564
v -0.02193702 0.82823038 -0.04805785
v -0.02286962 0.81317997 -0.03827791
v -0.01296023 0.81866544 -0.03830817
v -0.0265549 0.82282823 -0.03751713
v -0.01880947 0.82919526 -0.03699247
v -0.02101383 0.8138951 -0.02728145
v -0.01160202 0.81881672 -0.0268115
v -0.02435815 0.82387578 -0.02686089
v -0.01674656 0.8295837 -0.02581999
v -0.02002433 0.81427067 -0.01569573
v -0.01096724 0.81851142 -0.01474429
v -0.02300058 0.82448911 -0.01562346
v -0.01540164 0.82942622 -0.0140342
v -0.01978033 0.81413722 -0.0034484
v -0.01094373 0.81747794 -0.00194797
v -0.02231598 0.82454431 -0.00358337
v -0.01463886 0.82849764 -0.00135011
v -0.01996415 0.81284916 0.00980935
v -0.01133671 0.8151564 0.01197717
v -0.02214601 0.82334375 0.00967151
v -0.01437488 0.82621651 0.01264265
v -0.02004647 0.80948483 0.02471221
v -0.01186341 0.81108993 0.02787942
v -0.02232654 0.81985062 0.02471734
v -0.01458463 0.8220458 0.02857976
v -0.01969923 0.80314803 0.04228994
v -0.01252102 0.8057686 0.04703263
v -0.02265403 0.81304425 0.04215492
v -0.01535552 0.81622332 0.04718851
v -0.00478899 0.82467067 -0.03760715
v -0.01065929 0.83491265 -0.03632905
v -0.00654664 0.82511842 -0.04978167
v -0.01309536 0.83497041 -0.04810695
v -0.00992201 0.82758843 -0.06451667
v -0.01715837 0.83658498 -0.06209198
v -0.01657651 0.83698123 -0.08542742
v -0.02413197 0.84462302 -0.08173888
v -0.00519685 0.8466978 -0.08677866
v -0.01012278 0.85541671 -0.08276241
v -0.00152379 0.83374154 -0.06519711
v -0.00633249 0.8437159 -0.06252031
v 0.00030049 0.82980978 -0.0496815
v -0.00419374 0.84043592 -0.04791601
v 0.00118104 0.82878869 -0.03702044
v -0.00298453 0.83961904 -0.03573352
v 0.1870542 1.01017987 0.01965419
v 0.21623407 0.91849231 0.01779636
v 0.2079221 0.91663831 0.06510261
v 0.18080073 1.00284791 0.06772872
v 0.19901239 0.91634005 0.06258416
v 0.20680207 0.91638642 0.01887313
v 0.17904779 1.00224232 0.02110585
v 0.17335911 0.998878 0.06617688
v 0.02302273 0.83497226 0.12810218
v 0.03254821 0.87236338 0.14885477
v 0.04246423 0.84847974 0.13513207
v 0.03093652 0.82468897 0.11638897
v 0.0403763 0.85752081 0.1300212
v 0.03115508 0.88095498 0.14399957
v 0.0215546 0.84334099 0.12395931
v 0.02898806 0.83260387 0.1117501
v 0.18453335 0.91961205 0.10414452
v 0.16094574 1.00069582 0.10887891
v 0.15521553 1.00209319 0.10459841
v 0.17815645 0.92219108 0.09853557
v 0.15173631 0.92424988 0.13183759
v 0.13124071 1.00518631 0.13989384
v 0.12788751 1.0125482 0.13395369
v 0.14818343 0.93067497 0.12415168
v 0.1546943 1.08304119 0.07375615
v 0.15593588 1.08829963 0.0238374
v 0.15193904 1.07330787 0.07084562
v 0.15366363 1.07862353 0.02456449
v 0.18042878 1.01916861 -0.03189002
v 0.14525364 1.10030448 -0.0284614
v 0.14401042 1.09057176 -0.02431416
v 0.1732151 1.0094639 -0.02735864
v 0.138996 1.08875346 0.11831219
v 0.11255797 1.11043131 0.15230393
v 0.1114186 1.09375309 0.14390288
v 0.13688655 1.07755494 0.11218021
v 0.09469763 1.01846802 0.1641138
v 0.07454644 1.13049197 0.1712121
v 0.07441855 1.1105709 0.16423553
v 0.09776043 1.01640641 0.15310619
v 0.05205569 1.05179989 0.17988072
v 0.04990478 1.04579293 0.17250983
v 0.07358321 1.00152254 0.16128554
v 0.01695577 0.8135696 0.10276919
v 0.01353829 0.80577683 0.07608361
v 0.00740619 0.80723971 0.08122192
v 0.00936493 0.81698083 0.10971908
v 0.00738028 0.81651669 0.08029247
v 0.01395582 0.81544381 0.07472986
v 0.01614745 0.82208955 0.09973354
v 0.00874651 0.82519668 0.10709682
v 0.00064563 0.84716236 0.14053273
v 0.00107943 0.81777775 0.1123935
v 0.00078705 0.82592934 0.10983469
v 0.00054878 0.85533595 0.13658566
v 0.08558431 0.90006417 0.15093578
v 0.05972228 0.87524396 0.1470517
v 0.05011016 0.92662042 0.16199906
v 0.04718909 0.93535196 0.15700241
v 0.05811922 0.88742989 0.14142964
v 0.08459905 0.92024362 0.14469894
v 0.11989363 1.10099351 -0.07392089
v 0.1610938 1.02304649 -0.07717689
v 0.12043534 1.0914849 -0.0664624
v 0.15547737 1.01153206 -0.07043616
v 0.10073188 0.84740269 0.13293437
v 0.07149649 0.83673077 0.12877869
v 0.09698774 0.86395186 0.12800201
v 0.06839062 0.85169911 0.12503907
v 0.05109318 0.82713556 0.11909507
v 0.0483627 0.839091 0.11597168
v 0.02035067 0.89486998 0.15971103
v 0.01328642 0.8443759 0.13713496
v 0.01968137 0.90259206 0.15498249
v 0.01250851 0.85259896 0.13322867
v 0.0055903 0.82037144 0.0163946
v 0.01092412 0.81816041 0.01442001
v 0.01053684 0.82133525 -0.00014259
v 0.00526216 0.82413321 0.0013816
v 0.01381949 0.83183914 0.00069581
v 0.01342986 0.82866978 0.01539082
v 0.00740109 0.83076787 0.01767027
v 0.00765887 0.83469593 0.00244894
v 0.03223076 0.96559423 0.17377767
v 0.03121531 0.97218966 0.16892027
v 0.01053284 0.82314777 -0.01343151
v 0.00520207 0.82645934 -0.01220998
v 0.01463622 0.83360052 -0.01259266
v 0.00816992 0.83716023 -0.01124087
v 0.20932065 0.84966558 0.09662588
v 0.17556127 0.85435795 0.12001988
v 0.19821003 0.85606986 0.09150219
v 0.16764538 0.86547815 0.11360406
v 0.05411832 0.88274896 -0.12963925
v 0.0389253 0.85693568 -0.10913112
v 0.05665496 0.83552897 -0.10648046
v 0.07831103 0.84959554 -0.1259574
v 0.06394044 0.84159672 -0.10044357
v 0.04612023 0.86256104 -0.10325615
v 0.05998382 0.88599079 -0.12158329
v 0.08363319 0.85429865 -0.11746314
v 0.10241759 0.86621123 -0.13790239
v 0.07150042 0.91523265 -0.14218895
v 0.0754885 0.91554486 -0.13222427
v 0.10492777 0.86975985 -0.12714284
v 0.09993879 0.82224655 -0.11707586
v 0.07358408 0.81721228 -0.10115713
v 0.07696373 0.82224649 -0.0980074
v 0.10089089 0.82646852 -0.11308272
v 0.01118723 0.82411569 -0.02592959
v 0.00560979 0.82787185 -0.02493605
v 0.01607952 0.83445221 -0.02490306
v 0.00908323 0.83865147 -0.02387279
v 0.13674902 0.85403746 0.13073872
v 0.11734759 0.91642195 0.14489696
v 0.1315768 0.86926108 0.12467169
v 0.11484914 0.93251669 0.13913786
v 0.012036 0.80790936 0.05161429
v 0.00648612 0.80907064 0.05536273
v 0.01335043 0.81818771 0.05187535
v 0.00714345 0.81900733 0.05595446
v 0.01141772 0.8133431 0.03124122
v 0.00599784 0.81492871 0.03392406
v 0.013283 0.82381153 0.03218498
v 0.0072421 0.82515174 0.03519949
v 0.12794289 0.82868582 -0.12445031
v 0.12594918 0.83209157 -0.12016583
v 0.04896739 0.99928152 -0.14744997
v 0.08972524 0.95861411 -0.1436278
v 0.1038543 1.03362917 -0.12546047
v 0.05763485 1.03691649 -0.14022138
v 0.10799743 0.99297899 -0.12088985
v 0.09187656 0.95369738 -0.13277216
v 0.05063131 0.99544358 -0.13612316
v 0.06100033 1.03159976 -0.12579271
v 0.07459342 1.09099614 -0.10820539
v 0.13259778 1.02678072 -0.10778928
v 0.07738158 1.08456063 -0.09931814
v 0.12893435 1.00824403 -0.1017463
v 0.19565767 0.92101407 -0.07778157
v 0.21166364 0.92237341 -0.03189379
v 0.18882179 0.91974413 -0.07022123
v 0.2031627 0.92000877 -0.02768048
v 0.02109671 0.87292337 -0.11135811
v 0.02908443 0.90784537 -0.1321302
v 0.02561528 0.87953954 -0.10534748
v 0.03272458 0.91169029 -0.1241454
v 0.03862832 0.95163786 -0.14468221
v 0.04114783 0.95201677 -0.13498905
v 0.12710574 0.886958 -0.14098422
v 0.15540404 0.83824163 -0.12460358
v 0.15036165 0.84071677 -0.12039033
v 0.12650437 0.88982981 -0.12860864
v 0.17914272 0.84525531 -0.11629889
v 0.14927782 0.90675461 -0.13161593
v 0.1715247 0.84678429 -0.11240603
v 0.14589552 0.90951108 -0.11939261
v 0.16951046 0.91413724 -0.11200832
v 0.16464047 0.91529947 -0.10156366
v 0.23804909 0.8480432 -0.0276982
v 0.24098588 0.84379035 0.01759728
v 0.22595258 0.84892225 -0.02614118
v 0.22758264 0.84546911 0.01734103
v 0.19830347 0.84622329 -0.09971531
v 0.22404918 0.8492186 -0.06934226
v 0.18950848 0.84691405 -0.0960094
v 0.21373504 0.84978091 -0.06620574
v 0.23178669 0.84447419 0.06083337
v 0.21861185 0.84780263 0.05816286
v 0.03706283 0.81284153 0.10247862
v 0.03529186 0.82198995 0.09924104
v 0.02325174 0.80950117 0.09386052
v 0.02285726 0.81778758 0.09014479
v 0.02828042 0.8031106 0.08416331
v 0.02885509 0.8115108 0.08101306
v 0.0192608 0.80351632 0.06929449
v 0.02085762 0.81301325 0.06751456
v 0.02532287 0.79833108 0.06234666
v 0.02777589 0.80734217 0.06084154
v 0.03954567 0.82317191 -0.08130849
v 0.05203313 0.80950266 -0.07535539
v 0.05659413 0.81575018 -0.07321231
v 0.04744977 0.83040058 -0.07716625
v 0.02960781 0.81832301 -0.06296498
v 0.04072137 0.80896568 -0.05957907
v 0.04533257 0.81670498 -0.05809193
v 0.03713968 0.82697677 -0.06024619
v 0.02422349 0.81797599 -0.0500844
v 0.03486069 0.81132483 -0.04921804
v 0.03890834 0.8202815 -0.04808006
v 0.03080429 0.82780593 -0.04824058
v 0.02104088 0.81848728 -0.03872897
v 0.03111176 0.81286996 -0.03886245
v 0.03463763 0.8224821 -0.03801115
v 0.0266954 0.82889437 -0.03734684
v 0.01913562 0.81871306 -0.02717164
v 0.02866605 0.8137204 -0.02778865
v 0.03181051 0.82366216 -0.02731295
v 0.02397202 0.82939916 -0.02617547
v 0.01823628 0.81846046 -0.01502932
v 0.02737022 0.81419539 -0.01611493
v 0.03010455 0.82437813 -0.01600966
v 0.02224403 0.82933902 -0.01435214
v 0.01809748 0.81747424 -0.00218483
v 0.02696566 0.81414592 -0.00381142
v 0.02922703 0.82451993 -0.00392874
v 0.02125978 0.82849615 -0.00164668
v 0.01834902 0.81522876 0.0117468
v 0.02699105 0.81297487 0.00945789
v 0.02886805 0.82343149 0.00932478
v 0.02077292 0.82632601 0.01233116
v 0.01850088 0.81131237 0.02757834
v 0.02675959 0.80981004 0.02428726
v 0.02868983 0.82012909 0.02428733
v 0.02056085 0.82233339 0.02817825
v 0.0183626 0.80627572 0.04649586
v 0.02579214 0.80384665 0.04161178
v 0.0283152 0.81368148 0.04146653
v 0.02052505 0.81682038 0.04653532
v 0.01269784 0.82456404 -0.03788164
v 0.01833731 0.83469045 -0.03654113
v 0.01529047 0.82497316 -0.04995673
v 0.02169398 0.83466815 -0.04813515
v 0.01960938 0.82746136 -0.06424
v 0.02676902 0.83627247 -0.06157609
v 0.02704608 0.83701926 -0.08411054
v 0.03460547 0.84445619 -0.08013568
v 0.0149498 0.84677767 -0.08594792
v 0.01975827 0.85537666 -0.08173374
v 0.01087811 0.83370548 -0.0649853
v 0.01552665 0.84356975 -0.06215638
v 0.00828582 0.82974958 -0.04974573
v 0.01258312 0.84028166 -0.04788991
v 0.00660922 0.82874333 -0.03715312
v 0.01051385 0.83950197 -0.03582721
v 0.00167983 0.97854661 0.17856183
v 0.00299196 1.05896174 0.18517786
v 0.00263928 1.05265104 0.1763459
v 0.00188099 0.98276013 0.17300078
v 0.00088542 0.90196281 0.1635456
v 0.00097467 0.9092254 0.15873922
v 0.00184576 0.80742138 0.08314994
v 0.0014606 0.81661838 0.08236248
v 0.00257729 0.80927246 0.05671538
v 0.00216613 0.81918311 0.05746069
v 0.00306478 0.81531602 0.03487489
v 0.00266915 0.82564425 0.03630131
v 0.00329433 0.82091945 0.01708999
v 0.0029397 0.83160966 0.01850176
v 0.0033755 0.82478064 0.00191707
v 0.0030748 0.83586275 0.00309438
v 0.00343867 0.82718455 -0.01177886
v 0.00319856 0.83862352 -0.01073007
v 0.0035884 0.82869911 -0.02458212
v 0.00340732 0.84038072 -0.02346532
v 0.00387638 0.82971948 -0.03689836
v 0.00374177 0.84147012 -0.03553202
v 0.00426797 0.83096593 -0.04972012
v 0.00416014 0.84253108 -0.04779864
v 0.00313497 1.0358504 -0.14528439
v 0.00359067 1.09067797 -0.11629106
v 0.00376475 1.08550131 -0.10971217
v 0.00324115 1.03743362 -0.13006928
v 0.00332235 1.00948488 -0.15115225
v 0.0034749 1.00617432 -0.13976313
v 0.00372803 0.96230107 -0.14756771
v 0.00381137 0.96302521 -0.13795492
v 0.00415742 0.91574907 -0.13441678
v 0.00416961 0.92017716 -0.12640368
v 0.00456592 0.87803196 -0.11300776
v 0.00451452 0.88543784 -0.10684099
v 0.00475227 0.84974634 -0.08701673
v 0.00466941 0.85932678 -0.08261126
v 0.00462073 0.83545535 -0.06542152
v 0.00452416 0.84636092 -0.06245981
v 0.00288168 1.13287627 0.17667639
v 0.00299789 1.12235415 0.17059794
v -0.17496892 1.09560024 0.02781821
v -0.17644129 1.08924114 0.08389954
v -0.19061981 1.02151858 0.07742434
v -0.1943525 1.02506601 0.02201738
v -0.18238985 1.03169286 -0.03761054
v -0.15786993 1.10774171 -0.03114377
v -0.13588553 1.03943753 0.15792876
v -0.16951243 1.02538943 0.12415207
v -0.15780551 1.09295225 0.13287703
v -0.12379683 1.11095547 0.16775073
v -0.07595182 1.13436734 0.18595354
v -0.09662502 1.05198395 0.1776112
v -0.0503851 1.07387197 0.18984247
v -0.15587547 1.03343105 -0.09076284
v -0.1247601 1.10765135 -0.08216995
v -0.1222165 1.03523504 -0.12614989
v -0.07225029 1.09988248 -0.1205191
v 0.18099303 1.01812446 0.07159562
v 0.16408474 1.08573639 0.07627676
v 0.16528111 1.09373199 0.02279379
v 0.18725702 1.02388036 0.0188687
v 0.18010269 1.03259253 -0.03741751
v 0.15329736 1.10742855 -0.03279258
v 0.14681758 1.08816695 0.12422426
v 0.16067816 1.02028453 0.11681939
v 0.13063678 1.03402173 0.15084286
v 0.11772514 1.10593783 0.15999263
v 0.09490039 1.04743635 0.17237041
v 0.07698791 1.13103079 0.18144226
v 0.05374918 1.0714339 0.18688146
v 0.12551794 1.10875809 -0.08076011
v 0.15900923 1.03604483 -0.08728009
v 0.07783193 1.101686 -0.11753896
v 0.12824574 1.03861093 -0.12084918
v -0.04995626 1.04079401 -0.15223036
v 0.00304839 1.04206669 -0.15289573
v 0.00367815 1.10128247 -0.12665879
v -0.09154304 1.03727912 -0.14321009
v 0.056465 1.04289364 -0.14848172
v 0.09867185 1.04069411 -0.13728487
v 0.00317713 1.07875287 0.19094267
v 0.00330427 1.14054882 0.1895594
v -0.0703684 0.82980585 0.13990913
v -0.09846381 0.84357059 0.14433796
v -0.08680523 0.88054633 0.15873287
v -0.06099818 0.85459828 0.15384352
v -0.04333876 0.83278745 0.13987831
v -0.0503846 0.81886863 0.12892061
v -0.17269881 0.85921412 0.12721997
v -0.20805539 0.85680466 0.09928964
v -0.19426985 0.9127317 0.10724929
v -0.15813337 0.91059517 0.13759578
v -0.04324061 0.83025872 -0.1106178
v -0.06555118 0.84520947 -0.13209474
v -0.07967273 0.81840854 -0.12791049
v -0.05453865 0.81242471 -0.10832101
v -0.12001805 0.90052312 0.15401105
v -0.13351488 0.85453438 0.14087547
v -0.10767012 0.82497584 -0.13843181
v -0.09121447 0.86142712 -0.14568784
v -0.11848897 0.88067275 -0.14993515
v -0.13672015 0.83450597 -0.14047135
v -0.14327164 0.89936542 -0.14075939
v -0.16339512 0.84225803 -0.13212606
v -0.24091669 0.84710937 0.01080215
v -0.23562786 0.84831076 -0.03787864
v -0.21913723 0.91402214 -0.03890543
v -0.22708867 0.91216707 0.01328779
v -0.21726448 0.8472284 -0.08247724
v -0.1864613 0.84328752 -0.11470206
v -0.16662098 0.90501076 -0.12151296
v -0.19798168 0.9115386 -0.08669111
v -0.21959121 0.91172182 0.06412705
v -0.23191368 0.85069751 0.0584029
v -0.03539002 0.80436235 0.11073501
v -0.03024018 0.81427681 0.12008768
v -0.02388701 0.79414695 0.09065958
v -0.01944831 0.80154335 0.09694133
v -0.01816851 0.78876406 0.06607306
v -0.01234339 0.79561102 0.07101081
v -0.0351044 0.80334252 -0.07922367
v -0.02651571 0.81652945 -0.08368209
v -0.02624952 0.80154097 -0.06137125
v -0.01769993 0.81028193 -0.06414829
v -0.02258343 0.8029558 -0.04985803
v -0.01363096 0.80889296 -0.05052256
v -0.02035561 0.80394482 -0.03892279
v -0.01143552 0.80883461 -0.03869755
v -0.01886774 0.80448466 -0.0274406
v -0.01011831 0.80882763 -0.02672666
v -0.01825117 0.80477106 -0.01543043
v -0.00960297 0.80852931 -0.01422781
v -0.01841523 0.80458778 -0.00291433
v -0.00978172 0.80761945 -0.0011916
v -0.01891709 0.80328524 0.01042243
v -0.0103225 0.80555474 0.0127004
v -0.01889896 0.79998546 0.02530127
v -0.0106062 0.80198234 0.02828353
v -0.01781508 0.79401463 0.04320312
v -0.01041098 0.79757869 0.04715621
v 0.08965492 0.87977606 0.15241426
v 0.10200681 0.84247881 0.13849146
v 0.07291571 0.83100932 0.13382573
v 0.06293061 0.85555833 0.14759892
v 0.05264451 0.82117438 0.12373714
v 0.04504423 0.83472263 0.13469143
v 0.19745704 0.90713852 0.1072551
v 0.21374374 0.85090351 0.10098137
v 0.17826934 0.85330402 0.12574759
v 0.16155558 0.90476101 0.13478823
v 0.09702621 0.81881684 -0.12294627
v 0.0815004 0.84568053 -0.12667718
v 0.05734925 0.83012515 -0.10764671
v 0.06954564 0.81208425 -0.10562385
v 0.13827803 0.85062784 0.13665407
v 0.12330551 0.89658892 0.14893215
v 0.12678739 0.82683622 -0.13120523
v 0.1084968 0.86321741 -0.13783553
v 0.13598951 0.88448131 -0.14006279
v 0.1562307 0.83819299 -0.13151662
v 0.18168516 0.84700107 -0.12259613
v 0.15991392 0.90436887 -0.13046237
v 0.22542609 0.91759985 -0.03199007
v 0.24356356 0.85184627 -0.0298807
v 0.24691379 0.84717375 0.01743012
v 0.23105008 0.91243636 0.01836517
v 0.18093963 0.91103434 -0.11157879
v 0.20184302 0.84904331 -0.10518753
v 0.2286375 0.85278475 -0.07356215
v 0.20797266 0.91713994 -0.0781939
v 0.22267852 0.90844422 0.06688895
v 0.2374309 0.84708476 0.06293728
v 0.03827391 0.80674994 0.10697556
v 0.03266321 0.81637632 0.11641001
v 0.02804705 0.79617482 0.08824487
v 0.02321823 0.80317354 0.09470056
v 0.0235721 0.79003447 0.06483423
v 0.01751502 0.79662179 0.06984963
v 0.03872066 0.81612944 -0.08262397
v 0.047809 0.80279332 -0.0784174
v 0.02820476 0.80983704 -0.06420609
v 0.03698022 0.80098551 -0.06157284
v 0.02278911 0.80853009 -0.05101794
v 0.03184343 0.8025214 -0.0504345
v 0.0196702 0.80858939 -0.03923968
v 0.02865538 0.80366468 -0.03952527
v 0.01781167 0.80867958 -0.02718109
v 0.02661209 0.80432838 -0.02794841
v 0.01703857 0.80845004 -0.01458884
v 0.02572162 0.80470162 -0.01583987
v 0.01710255 0.80760043 -0.00149178
v 0.02575213 0.80459201 -0.00325981
v 0.01751364 0.8056277 0.01241423
v 0.0261154 0.80339378 0.01009525
v 0.01747581 0.80222559 0.02793063
v 0.02579868 0.80028373 0.02491014
v 0.01662037 0.79812079 0.04656801
v 0.02412862 0.7946639 0.04257675
v -0.096065 1.18096399 0.27507498
v -0.031952 1.16723895 0.287739
v 0.03505903 1.16620075 0.28854793
v 0.09994 1.17763996 0.277392
v 0.09969399 1.13802814 0.24133701
v 0.157462 1.15760898 0.215645
v 0.192108 1.13509798 0.16113899
v 0.156449 1.05543601 0.158719
v 0.09695 0.93987399 0.168151
v 0.076663 0.87068897 0.17869299
v -0.074155 0.875876 0.17839899
v -0.09869699 0.943026 0.165592
v -0.033096 1.04081904 0.204015
v 0.03389399 1.03973996 0.204858
v 0.03443864 1.08602285 0.22615103
v 0.099279 1.09337103 0.21177099
v 0.098686 1.044734 0.1894
v 0.03475545 1.12904477 0.25433543
v -0.03218489 1.12957656 0.25345084
v -0.03256899 1.08710002 0.22532199
v -0.096703 1.09660697 0.20937399
v -0.097244 1.04788804 0.186948
v -0.15369999 1.06040298 0.154944
v -0.18634499 1.14454495 0.15905
v -0.152684 1.162781 0.211958
v -0.096307 1.14131295 0.238982
v -0.004666 0.81606197 0.204462
v -0.00018292 1.12800121 0.25561168
v 0.0000309 1.16337323 0.2915498
v -0.00106 1.03954005 0.206477
v -0.00052655 1.08550405 0.22763551
v 0.09292399 0.94036299 0.159115
v 0.094685 1.04792404 0.180919
v 0.14999599 1.05817294 0.15154199
v -0.00028063 1.09027969 0.2190596
v -0.030963 1.09180605 0.21684299
v -0.0305687 1.13553237 0.24579557
v 0.00006949 1.13406455 0.2478699
v 0.151029 1.16236901 0.20959499
v 0.09571287 1.14361989 0.23419612
v 0.09596599 1.18425202 0.27118
v -0.03150299 1.04417097 0.194913
v -0.09292899 1.05093705 0.178569
v -0.09237399 1.10090899 0.201572
v -0.09172 1.18743503 0.26896101
v -0.091968 1.14676499 0.231941
v -0.145952 1.16732204 0.206063
v -0.004537 0.81281697 0.195195
v -0.000827 1.04294705 0.19727
v 0.032643 1.04313898 0.19572
v 0.07341799 0.8693 0.16947199
v -0.030328 1.17429196 0.28108799
v 0.00035245 1.17227113 0.2828992
v 0.03352239 1.13507962 0.24665114
v 0.0338375 1.17330575 0.28186345
v -0.178204 1.14763605 0.15386399
v -0.070995 0.87444102 0.169163
v -0.146988 1.062922 0.147924
v -0.094419 0.94338202 0.15666499
v 0.184184 1.13839495 0.15574699
v 0.09528899 1.09781396 0.203868
v 0.03320057 1.09077823 0.21763709
v 0.097677 0.98383599 0.17705899
v 0.13223199 1.05094897 0.17158199
v 0.13324399 1.14939999 0.226416
v 0.09983699 1.16103303 0.262277
v -0.096166 1.16434097 0.25994399
v -0.129048 1.15378105 0.223288
v -0.003154 0.90975397 0.205307
v 0.05873199 0.94156199 0.18966299
v -0.03204905 1.15144753 0.27336406
v -0.00002969 1.14959633 0.2753728
v 0.03492014 1.1507045 0.27421489
v -0.14876399 1.12444698 0.180148
v -0.05694099 0.94502699 0.18913799
v -0.130031 1.05515599 0.16836099
v -0.098088 0.98698902 0.174545
v 0.15319 1.11760401 0.18236599
v 0.15909199 1.05424404 0.16302399
v 0.134875 1.049757 0.175887
v 0.100207 0.98316299 0.18153899
v 0.09947899 0.93920201 0.17263099
v 0.101856 1.17435896 0.28098401
v 0.10175199 1.15775203 0.265868
v 0.13591699 1.14639103 0.22968499
v 0.160135 1.15460002 0.218913
v -0.131905 1.15085697 0.22647699
v -0.09827599 1.16112804 0.26348701
v -0.09817399 1.17775094 0.27861899
v -0.15554 1.15985703 0.215147
v 0.06078999 0.94125801 0.19444
v -0.003281 0.909563 0.210773
v -0.004793 0.81587201 0.209928
v 0.07872 0.87038397 0.18346999
v -0.033009 1.14800596 0.27715
v -0.03291099 1.16379797 0.29152599
v -0.00014538 1.14607822 0.27920875
v -0.18937499 1.14234995 0.16274799
v 0.03566303 1.14719688 0.27802032
v 0.03579898 1.16271352 0.2923561
v -0.059106 0.94476097 0.19385799
v -0.07632 0.87560898 0.18311899
v -0.10068699 0.986368 0.178991
v -0.13280999 1.05403399 0.1726
v -0.156478 1.05928099 0.15918299
v -0.10129699 0.94240498 0.170038
v 0.15605799 1.11534094 0.18615199
v 0.194975 1.13283395 0.16492499
v -0.151793 1.12225198 0.18384599
v 0.17935399 1.10857296 0.12834
v 0.1869 1.13900697 0.07429199
v 0.175475 1.13949394 0.008382
v 0.14650499 1.12793505 -0.056255
v 0.15693299 1.08477199 -0.066265
v 0.117682 1.07346904 -0.11902999
v 0.09392999 1.03422796 -0.156287
v 0.151323 0.99365097 -0.143102
v 0.22410599 0.92268002 -0.11452899
v 0.24825899 0.87628501 -0.10768099
v 0.264833 0.85820698 0.029167
v 0.235777 0.89079499 0.060504
v 0.21039299 1.00092005 0.031943
v 0.21300099 1.01051795 -0.02902
v 0.19342599 1.05070495 -0.013891
v 0.172261 1.04173994 -0.079225
v 0.189866 1.00318801 -0.09142799
v 0.18188899 1.09530401 -0.000973
v 0.18748299 1.09032905 0.063606
v 0.19416199 1.04218304 0.04858199
v 0.187009 1.00890004 0.09916699
v 0.200074 0.96907699 0.085151
v 0.178302 0.93387699 0.13280199
v 0.139445 0.967601 0.184882
v 0.15759299 1.02141499 0.16313199
v 0.17947299 1.05801594 0.11586
v 0.284639 0.82505899 -0.04581499
v 0.18727199 1.10056805 0.036416
v 0.184953 1.14671003 0.04594
v 0.213859 1.01244902 0.006005
v 0.195717 1.05328905 0.022131
v 0.216872 0.91934698 -0.109471
v 0.18302099 1.00010502 -0.086556
v 0.14591899 0.99037897 -0.13601699
v 0.187828 1.05017399 0.022472
v 0.18589499 1.038612 0.04734899
v 0.17895199 1.08675897 0.06260299
v 0.179084 1.09728705 0.03690899
v 0.112281 1.07014405 -0.111947
v 0.15016099 1.08164596 -0.0614
v 0.13930599 1.12450301 -0.05117699
v 0.202004 0.997509 0.03090599
v 0.19154499 0.96613901 0.081611
v 0.178468 1.00585401 0.095545
v 0.17023 1.105901 0.12557999
v 0.17078399 1.05496704 0.112355
v 0.14930899 1.01948404 0.157863
v 0.27589801 0.82194799 -0.04470299
v 0.20576299 1.00932395 0.006473
v 0.205244 1.007573 -0.02686999
v 0.24069899 0.87298101 -0.103427
v 0.17781299 1.13574302 0.074088
v 0.176173 1.14345002 0.04708699
v 0.17415499 1.09225297 0.00119
v 0.16716599 1.13622701 0.010964
v 0.13225099 0.96631801 0.17796799
v 0.255885 0.85552102 0.02736
v 0.170098 0.93204999 0.12753799
v 0.22684499 0.88833999 0.057718
v 0.09022299 1.03124296 -0.148111
v 0.16560399 1.03879499 -0.074371
v 0.18598499 1.04792201 -0.011832
v 0.208819 0.95862299 -0.104215
v 0.168531 0.997909 -0.12003199
v 0.13520599 1.078516 -0.09547299
v 0.151161 1.10866498 -0.060724
v 0.179407 1.08600199 0.122768
v 0.167361 1.03775596 0.142027
v 0.253039 0.90872001 -0.02267999
v 0.232518 0.93621403 -0.072562
v 0.18716 1.11727404 0.069521
v 0.18598799 1.12610995 0.04168799
v 0.178338 1.11976504 0.004205
v 0.16067999 0.98603898 0.146614
v 0.240528 0.92192202 0.030406
v 0.188023 0.94959199 0.111528
v 0.21983699 0.92574399 0.07150799
v 0.128902 1.03758204 -0.12188199
v 0.154034 0.99589997 -0.145674
v 0.171241 1.00015795 -0.12260399
v 0.21222999 0.960581 -0.10621
v 0.22751699 0.92463797 -0.11652299
v 0.15002499 1.12920904 -0.05852799
v 0.15467999 1.10993897 -0.06299799
v 0.1383 1.07979404 -0.09825299
v 0.120777 1.07474696 -0.12180999
v 0.17135199 1.03732395 0.143702
v 0.183647 1.08575904 0.123851
v 0.183593 1.10833001 0.129423
v 0.161583 1.02098298 0.164807
v 0.236357 0.93795901 -0.07365799
v 0.25714001 0.91030997 -0.022859
v 0.28874099 0.82664901 -0.04599399
v 0.25209799 0.87803 -0.108777
v 0.191522 1.11731195 0.06970699
v 0.191262 1.13904404 0.074477
v 0.190299 1.12651503 0.04105199
v 0.18926399 1.14711499 0.045304
v 0.182364 1.12065696 0.002736
v 0.17949999 1.14038598 0.006913
v 0.244522 0.92332798 0.03164
v 0.26882699 0.859613 0.030401
v 0.223489 0.92683798 0.07361699
v 0.191642 0.95036399 0.113815
v 0.181922 0.93464899 0.13508899
v 0.23942799 0.89188897 0.062613
v 0.131723 1.03947198 -0.12469799
v 0.096752 1.03611803 -0.159103
v 0.164559 0.98611599 0.14867599
v 0.143324 0.96767801 0.18694399
v -0.17935399 1.10857296 0.12834
v -0.1869 1.13900697 0.07429199
v -0.175475 1.13949394 0.008382
v -0.14650499 1.12793505 -0.056255
v -0.15693299 1.08477199 -0.066265
v -0.117682 1.07346904 -0.11902999
v -0.09392999 1.03422796 -0.156287
v -0.151323 0.99365097 -0.143102
v -0.22410599 0.92268002 -0.11452899
v -0.24825899 0.87628501 -0.10768099
v -0.264833 0.85820698 0.029167
v -0.235777 0.89079499 0.060504
v -0.21039299 1.00092005 0.031943
v -0.21300099 1.01051795 -0.02902
v -0.19342599 1.05070495 -0.013891
v -0.172261 1.04173994 -0.079225
v -0.189866 1.00318801 -0.09142799
v -0.18188899 1.09530401 -0.000973
v -0.18748299 1.09032905 0.063606
v -0.19416199 1.04218304 0.04858199
v -0.187009 1.00890004 0.09916699
v -0.200074 0.96907699 0.085151
v -0.178302 0.93387699 0.13280199
v -0.139445 0.967601 0.184882
v -0.15759299 1.02141499 0.16313199
v -0.17947299 1.05801594 0.11586
v -0.284639 0.82505899 -0.04581499
v -0.18727199 1.10056805 0.036416
v -0.184953 1.14671003 0.04594
v -0.213859 1.01244902 0.006005
v -0.195717 1.05328905 0.022131
v -0.216872 0.91934698 -0.109471
v -0.18302099 1.00010502 -0.086556
v -0.14591899 0.99037897 -0.13601699
v -0.187828 1.05017399 0.022472
v -0.18589499 1.038612 0.04734899
v -0.17895199 1.08675897 0.06260299
v -0.179084 1.09728705 0.03690899
v -0.112281 1.07014405 -0.111947
v -0.15016099 1.08164596 -0.0614
v -0.13930599 1.12450301 -0.05117699
v -0.202004 0.997509 0.03090599
v -0.19154499 0.96613901 0.081611
v -0.178468 1.00585401 0.095545
v -0.17023 1.105901 0.12557999
v -0.17078399 1.05496704 0.112355
v -0.14930899 1.01948404 0.157863
v -0.27589801 0.82194799 -0.04470299
v -0.20576299 1.00932395 0.006473
v -0.205244 1.007573 -0.02686999
v -0.24069899 0.87298101 -0.103427
v -0.17781299 1.13574302 0.074088
v -0.176173 1.14345002 0.04708699
v -0.17415499 1.09225297 0.00119
v -0.16716599 1.13622701 0.010964
v -0.13225099 0.96631801 0.17796799
v -0.255885 0.85552102 0.02736
v -0.170098 0.93204999 0.12753799
v -0.22684499 0.88833999 0.057718
v -0.09022299 1.03124296 -0.148111
v -0.16560399 1.03879499 -0.074371
v -0.18598499 1.04792201 -0.011832
v -0.208819 0.95862299 -0.104215
v -0.168531 0.997909 -0.12003199
v -0.13520599 1.078516 -0.09547299
v -0.151161 1.10866498 -0.060724
v -0.179407 1.08600199 0.122768
v -0.167361 1.03775596 0.142027
v -0.253039 0.90872001 -0.02267999
v -0.232518 0.93621403 -0.072562
v -0.18716 1.11727404 0.069521
v -0.18598799 1.12610995 0.04168799
v -0.178338 1.11976504 0.004205
v -0.16067999 0.98603898 0.146614
v -0.240528 0.92192202 0.030406
v -0.188023 0.94959199 0.111528
v -0.21983699 0.92574399 0.07150799
v -0.128902 1.03758204 -0.12188199
v -0.154034 0.99589997 -0.145674
v -0.171241 1.00015795 -0.12260399
v -0.21222999 0.960581 -0.10621
v -0.22751699 0.92463797 -0.11652299
v -0.15002499 1.12920904 -0.05852799
v -0.15467999 1.10993897 -0.06299799
v -0.1383 1.07979404 -0.09825299
v -0.120777 1.07474696 -0.12180999
v -0.17135199 1.03732395 0.143702
v -0.183647 1.08575904 0.123851
v -0.183593 1.10833001 0.129423
v -0.161583 1.02098298 0.164807
v -0.236357 0.93795901 -0.07365799
v -0.25714001 0.91030997 -0.022859
v -0.28874099 0.82664901 -0.04599399
v -0.25209799 0.87803 -0.108777
v -0.191522 1.11731195 0.06970699
v -0.191262 1.13904404 0.074477
v -0.190299 1.12651503 0.04105199
v -0.18926399 1.14711499 0.045304
v -0.182364 1.12065696 0.002736
v -0.17949999 1.14038598 0.006913
v -0.244522 0.92332798 0.03164
v -0.26882699 0.859613 0.030401
v -0.223489 0.92683798 0.07361699
v -0.191642 0.95036399 0.113815
v -0.181922 0.93464899 0.13508899
v -0.23942799 0.89188897 0.062613
v -0.131723 1.03947198 -0.12469799
v -0.096752 1.03611803 -0.159103
v -0.164559 0.98611599 0.14867599
v -0.143324 0.96767801 0.18694399
g Group22835
f 61 60 59 58
f 2 1 61 58
f 60 63 62 59
f 3 4 6 5
f 63 65 64 62
f 5 6 8 7
f 65 67 66 64
f 7 8 10 9
f 70 69 67 68
f 11 13 9 12
f 69 70 72 71
f 12 15 14 11
f 66 67 69 73
f 10 16 12 9
f 75 66 73 74
f 17 18 16 10
f 78 77 75 76
f 19 21 17 20
f 79 76 75 74
f 22 18 17 21
f 64 66 75 77
f 8 20 17 10
f 73 81 80 74
f 16 18 24 23
f 71 81 73 69
f 15 12 16 23
f 71 72 82 81
f 15 23 25 14
f 82 83 80 81
f 25 23 24 26
f 85 80 83 84
f 27 28 26 24
f 84 83 87 86
f 29 30 86 87
f 82 88 87 83
f 31 29 87 88
f 72 89 88 82
f 32 31 88 89
f 70 90 89 72
f 33 32 89 90
f 91 90 70 68
f 34 33 90 91
f 91 68 93 92
f 36 34 91 92
f 93 68 67 65
f 35 7 9 13
f 63 60 93 65
f 5 7 35 3
f 60 61 92 93
f 1 36 92 61
f 59 62 95 94
f 4 38 37 6
f 59 94 96 58
f 39 2 58 96
f 96 94 98 97
f 41 39 96 97
f 102 101 100 99
f 43 42 101 102
f 97 98 100 101
f 42 41 97 101
f 103 98 94 95
f 46 37 38 40
f 105 103 78 104
f 47 48 19 46
f 103 105 100 98
f 46 40 44 47
f 104 99 100 105
f 48 47 44 45
f 107 106 99 104
f 49 48 45 50
f 104 78 76 107
f 48 49 21 19
f 95 77 78 103
f 37 46 19 20
f 64 77 95 62
f 8 6 37 20
f 110 106 109 108
f 53 52 110 108
f 110 102 99 106
f 52 43 102 110
f 107 111 109 106
f 49 50 54 55
f 109 111 113 112
f 54 57 56 55
f 85 113 111 79
f 27 22 55 56
f 76 79 111 107
f 21 49 55 22
f 114 108 109 112
f 51 53 108 114
f 113 85 84 112
f 56 57 28 27
f 79 74 80 85
f 22 27 24 18
f 84 86 114 112
f 30 51 114 86
f 118 117 116 115
f 4 3 115 116
f 1 2 117 118
f 122 121 120 119
f 26 28 122 119
f 30 29 120 121
f 124 119 120 123
f 29 31 123 120
f 25 26 119 124
f 126 124 123 125
f 31 32 125 123
f 14 25 124 126
f 128 126 125 127
f 32 33 127 125
f 11 14 126 128
f 130 129 128 127
f 33 34 130 127
f 13 11 128 129
f 130 132 131 129
f 35 13 129 131
f 34 36 132 130
f 115 131 132 118
f 36 1 118 132
f 3 35 131 115
f 116 117 134 133
f 38 4 116 133
f 2 39 134 117
f 134 136 135 133
f 40 38 133 135
f 39 41 136 134
f 140 139 138 137
f 42 43 140 137
f 45 44 138 139
f 136 137 138 135
f 44 40 135 138
f 41 42 137 136
f 144 143 142 141
f 54 50 141 142
f 52 53 143 144
f 144 141 139 140
f 43 52 144 140
f 50 45 139 141
f 146 145 142 143
f 53 51 146 143
f 57 54 142 145
f 122 145 146 121
f 51 30 121 146
f 28 57 145 122
f 207 206 205 204
f 148 147 207 204
f 206 209 208 205
f 149 150 152 151
f 209 211 210 208
f 151 152 154 153
f 211 213 212 210
f 153 154 156 155
f 216 215 213 214
f 157 159 155 158
f 215 216 218 217
f 158 161 160 157
f 212 213 215 219
f 156 162 158 155
f 221 212 219 220
f 163 164 162 156
f 224 223 221 222
f 165 167 163 166
f 225 222 221 220
f 168 164 163 167
f 210 212 221 223
f 154 166 163 156
f 219 227 226 220
f 162 164 170 169
f 217 227 219 215
f 161 158 162 169
f 217 218 228 227
f 161 169 171 160
f 228 229 226 227
f 171 169 170 172
f 231 226 229 230
f 173 174 172 170
f 230 229 233 232
f 175 176 232 233
f 228 234 233 229
f 177 175 233 234
f 218 235 234 228
f 178 177 234 235
f 216 236 235 218
f 179 178 235 236
f 237 236 216 214
f 180 179 236 237
f 237 214 239 238
f 182 180 237 238
f 239 214 213 211
f 181 153 155 159
f 209 206 239 211
f 151 153 181 149
f 206 207 238 239
f 147 182 238 207
f 205 208 241 240
f 150 184 183 152
f 205 240 242 204
f 185 148 204 242
f 242 240 244 243
f 187 185 242 243
f 248 247 246 245
f 189 188 247 248
f 243 244 246 247
f 188 187 243 247
f 249 244 240 241
f 192 183 184 186
f 251 249 224 250
f 193 194 165 192
f 249 251 246 244
f 192 186 190 193
f 250 245 246 251
f 194 193 190 191
f 253 252 245 250
f 195 194 191 196
f 250 224 222 253
f 194 195 167 165
f 241 223 224 249
f 183 192 165 166
f 210 223 241 208
f 154 152 183 166
f 256 252 255 254
f 199 198 256 254
f 256 248 245 252
f 198 189 248 256
f 253 257 255 252
f 195 196 200 201
f 255 257 259 258
f 200 203 202 201
f 231 259 257 225
f 173 168 201 202
f 222 225 257 253
f 167 195 201 168
f 260 254 255 258
f 197 199 254 260
f 259 231 230 258
f 202 203 174 173
f 225 220 226 231
f 168 173 170 164
f 230 232 260 258
f 176 197 260 232
f 264 263 262 261
f 150 149 261 262
f 147 148 263 264
f 268 267 266 265
f 172 174 268 265
f 176 175 266 267
f 270 265 266 269
f 175 177 269 266
f 171 172 265 270
f 272 270 269 271
f 177 178 271 269
f 160 171 270 272
f 274 272 271 273
f 178 179 273 271
f 157 160 272 274
f 276 275 274 273
f 179 180 276 273
f 159 157 274 275
f 276 278 277 275
f 181 159 275 277
f 180 182 278 276
f 261 277 278 264
f 182 147 264 278
f 149 181 277 261
f 262 263 280 279
f 184 150 262 279
f 148 185 280 263
f 280 282 281 279
f 186 184 279 281
f 185 187 282 280
f 286 285 284 283
f 188 189 286 283
f 191 190 284 285
f 282 283 284 281
f 190 186 281 284
f 187 188 283 282
f 290 289 288 287
f 200 196 287 288
f 198 199 289 290
f 290 287 285 286
f 189 198 290 286
f 196 191 285 287
f 292 291 288 289
f 199 197 292 289
f 203 200 288 291
f 268 291 292 267
f 197 176 267 292
f 174 203 291 268
f 353 350 351 352
f 294 350 353 293
f 352 351 354 355
f 295 297 298 296
f 355 354 356 357
f 297 299 300 298
f 357 356 358 359
f 299 301 302 300
f 362 360 359 361
f 303 304 301 305
f 361 363 364 362
f 304 303 306 307
f 358 365 361 359
f 302 301 304 308
f 367 366 365 358
f 309 302 308 310
f 370 368 367 369
f 311 312 309 313
f 371 366 367 368
f 314 313 309 310
f 356 369 367 358
f 300 302 309 312
f 365 366 372 373
f 308 315 316 310
f 363 361 365 373
f 307 315 308 304
f 363 373 374 364
f 307 306 317 315
f 374 373 372 375
f 317 318 316 315
f 377 376 375 372
f 319 316 318 320
f 376 378 379 375
f 321 379 378 322
f 374 375 379 380
f 323 380 379 321
f 364 374 380 381
f 324 381 380 323
f 362 364 381 382
f 325 382 381 324
f 383 360 362 382
f 326 383 382 325
f 383 384 385 360
f 328 384 383 326
f 385 357 359 360
f 327 305 301 299
f 355 357 385 352
f 297 295 327 299
f 352 385 384 353
f 293 353 384 328
f 351 386 387 354
f 296 298 329 330
f 351 350 388 386
f 331 388 350 294
f 388 389 390 386
f 333 389 388 331
f 394 391 392 393
f 335 394 393 334
f 389 393 392 390
f 334 393 389 333
f 395 387 386 390
f 338 332 330 329
f 397 396 370 395
f 339 338 311 340
f 395 390 392 397
f 338 339 336 332
f 396 397 392 391
f 340 337 336 339
f 399 396 391 398
f 341 342 337 340
f 396 399 368 370
f 340 311 313 341
f 387 395 370 369
f 329 312 311 338
f 356 354 387 369
f 300 312 329 298
f 402 400 401 398
f 345 400 402 344
f 402 398 391 394
f 344 402 394 335
f 399 398 401 403
f 341 347 346 342
f 401 404 405 403
f 346 347 348 349
f 377 371 403 405
f 319 348 347 314
f 368 399 403 371
f 313 314 347 341
f 406 404 401 400
f 343 406 400 345
f 405 404 376 377
f 348 319 320 349
f 371 377 372 366
f 314 310 316 319
f 376 404 406 378
f 322 378 406 343
f 410 407 408 409
f 296 408 407 295
f 293 410 409 294
f 414 411 412 413
f 318 411 414 320
f 322 413 412 321
f 416 415 412 411
f 321 412 415 323
f 317 416 411 318
f 418 417 415 416
f 323 415 417 324
f 306 418 416 317
f 420 419 417 418
f 324 417 419 325
f 303 420 418 306
f 422 419 420 421
f 325 419 422 326
f 305 421 420 303
f 422 421 423 424
f 327 423 421 305
f 326 422 424 328
f 407 410 424 423
f 328 424 410 293
f 295 407 423 327
f 408 425 426 409
f 330 425 408 296
f 294 409 426 331
f 426 425 427 428
f 332 427 425 330
f 331 426 428 333
f 432 429 430 431
f 334 429 432 335
f 337 431 430 336
f 428 427 430 429
f 336 430 427 332
f 333 428 429 334
f 436 433 434 435
f 346 434 433 342
f 344 436 435 345
f 436 432 431 433
f 335 432 436 344
f 342 433 431 337
f 438 435 434 437
f 345 435 438 343
f 349 437 434 346
f 414 413 438 437
f 343 438 413 322
f 320 414 437 349
f 499 496 497 498
f 440 496 499 439
f 498 497 500 501
f 441 443 444 442
f 501 500 502 503
f 443 445 446 444
f 503 502 504 505
f 445 447 448 446
f 508 506 505 507
f 449 450 447 451
f 507 509 510 508
f 450 449 452 453
f 504 511 507 505
f 448 447 450 454
f 513 512 511 504
f 455 448 454 456
f 516 514 513 515
f 457 458 455 459
f 517 512 513 514
f 460 459 455 456
f 502 515 513 504
f 446 448 455 458
f 511 512 518 519
f 454 461 462 456
f 509 507 511 519
f 453 461 454 450
f 509 519 520 510
f 453 452 463 461
f 520 519 518 521
f 463 464 462 461
f 523 522 521 518
f 465 462 464 466
f 522 524 525 521
f 467 525 524 468
f 520 521 525 526
f 469 526 525 467
f 510 520 526 527
f 470 527 526 469
f 508 510 527 528
f 471 528 527 470
f 529 506 508 528
f 472 529 528 471
f 529 530 531 506
f 474 530 529 472
f 531 503 505 506
f 473 451 447 445
f 501 503 531 498
f 443 441 473 445
f 498 531 530 499
f 439 499 530 474
f 497 532 533 500
f 442 444 475 476
f 497 496 534 532
f 477 534 496 440
f 534 535 536 532
f 479 535 534 477
f 540 537 538 539
f 481 540 539 480
f 535 539 538 536
f 480 539 535 479
f 541 533 532 536
f 484 478 476 475
f 543 542 516 541
f 485 484 457 486
f 541 536 538 543
f 484 485 482 478
f 542 543 538 537
f 486 483 482 485
f 545 542 537 544
f 487 488 483 486
f 542 545 514 516
f 486 457 459 487
f 533 541 516 515
f 475 458 457 484
f 502 500 533 515
f 446 458 475 444
f 548 546 547 544
f 491 546 548 490
f 548 544 537 540
f 490 548 540 481
f 545 544 547 549
f 487 493 492 488
f 547 550 551 549
f 492 493 494 495
f 523 517 549 551
f 465 494 493 460
f 514 545 549 517
f 459 460 493 487
f 552 550 547 546
f 489 552 546 491
f 551 550 522 523
f 494 465 466 495
f 517 523 518 512
f 460 456 462 465
f 522 550 552 524
f 468 524 552 489
f 556 553 554 555
f 442 554 553 441
f 439 556 555 440
f 560 557 558 559
f 464 557 560 466
f 468 559 558 467
f 562 561 558 557
f 467 558 561 469
f 463 562 557 464
f 564 563 561 562
f 469 561 563 470
f 452 564 562 463
f 566 565 563 564
f 470 563 565 471
f 449 566 564 452
f 568 565 566 567
f 471 565 568 472
f 451 567 566 449
f 568 567 569 570
f 473 569 567 451
f 472 568 570 474
f 553 556 570 569
f 474 570 556 439
f 441 553 569 473
f 554 571 572 555
f 476 571 554 442
f 440 555 572 477
f 572 571 573 574
f 478 573 571 476
f 477 572 574 479
f 578 575 576 577
f 480 575 578 481
f 483 577 576 482
f 574 573 576 575
f 482 576 573 478
f 479 574 575 480
f 582 579 580 581
f 492 580 579 488
f 490 582 581 491
f 582 578 577 579
f 481 578 582 490
f 488 579 577 483
f 584 581 580 583
f 491 581 584 489
f 495 583 580 492
f 560 559 584 583
f 489 584 559 468
f 466 560 583 495
g Group33418
f 588 587 586 585
f 592 591 590 589
f 596 595 594 593
f 600 599 598 597
f 588 585 602 601
f 592 604 603 591
f 602 606 605 601
f 603 604 608 607
f 612 611 609 610
f 589 611 612 592
f 611 615 614 609
f 615 611 589 616
f 620 619 617 618
f 620 608 604 619
f 623 620 618 621
f 620 623 624 608
f 624 623 627 626
f 631 630 629 628
f 635 634 633 632
f 622 637 636
f 626 639 638 624
f 622 636 641 640
f 626 643 642 639
f 641 593 594 640
f 642 643 598 599
f 615 646 645 614
f 615 616 647 646
f 651 650 648 649
f 642 650 651 639
f 650 653 652 648
f 642 599 653 650
f 655 654 594 595
f 657 597 598 656
f 655 595 630 631
f 657 635 632 597
f 661 660 659 658
f 665 664 663 662
f 594 654 666 640
f 598 643 667 656
f 669 661 658 668
f 671 670 664 665
f 666 625 622 640
f 667 643 626 627
f 675 674 672 673
f 607 674 675 603
f 679 678 677 676
f 683 682 681 680
f 679 685 684 678
f 683 680 687 686
f 691 690 688 689
f 691 682 683 690
f 693 669 668 692
f 695 694 670 671
f 674 697 696 672
f 607 638 697 674
f 699 628 629 698
f 701 700 633 634
f 703 699 698 702
f 705 704 700 701
f 690 707 706 688
f 686 707 690 683
f 660 703 702 659
f 662 663 704 705
f 711 710 709 708
f 715 714 713 712
f 697 651 649 696
f 697 638 639 651
f 646 718 717 645
f 647 719 718 646
f 721 613 644 720
f 723 722 647 616
f 725 724 677 678
f 727 680 681 726
f 725 678 684 728
f 727 729 687 680
f 684 709 710 728
f 687 729 712 713
f 707 732 731 706
f 732 707 686 733
f 732 736 735 731
f 732 733 737 736
f 709 684 685 730
f 713 733 686 687
f 709 730 734 708
f 713 714 737 733
f 734 738 716 708
f 737 714 719 739
f 721 586 587 613
f 723 616 589 590
f 743 742 740 741
f 590 742 743 723
f 747 746 744 745
f 722 746 747 739
f 746 743 741 744
f 746 722 723 743
f 742 749 748 740
f 749 742 590 591
f 619 612 610 617
f 592 612 619 604
f 606 637 622 605
f 607 608 624 638
f 749 675 673 748
f 749 591 603 675
f 653 751 750 652
f 600 751 653 599
f 630 595 596 752
f 632 753 600 597
f 751 755 754 750
f 753 755 751 600
f 629 630 752 756
f 633 757 753 632
f 755 759 758 754
f 757 759 755 753
f 762 691 689 760
f 682 691 762 763
f 766 762 760 764
f 763 762 766 767
f 770 766 764 768
f 767 766 770 771
f 774 770 768 772
f 771 770 774 775
f 778 774 772 776
f 775 774 778 779
f 782 778 776 780
f 779 778 782 783
f 786 782 780 784
f 783 782 786 787
f 790 786 784 788
f 787 786 790 791
f 794 790 788 792
f 791 790 794 795
f 798 794 792 796
f 795 794 798 799
f 759 798 796 758
f 799 798 759 757
f 756 797 698 629
f 757 633 700 799
f 797 793 702 698
f 799 700 704 795
f 793 789 659 702
f 795 704 663 791
f 789 785 658 659
f 791 663 664 787
f 785 781 668 658
f 787 664 670 783
f 781 777 692 668
f 783 670 694 779
f 777 773 800 692
f 779 694 801 775
f 773 769 802 800
f 775 801 803 771
f 769 765 804 802
f 771 803 805 767
f 765 761 806 804
f 767 805 807 763
f 761 676 677 806
f 763 807 681 682
f 724 808 806 677
f 726 681 807 809
f 808 810 804 806
f 809 807 805 811
f 810 812 802 804
f 811 805 803 813
f 812 814 800 802
f 813 803 801 815
f 814 693 692 800
f 815 801 694 695
f 819 818 817 816
f 823 822 821 820
f 827 826 825 824
f 831 830 829 828
f 819 833 832 818
f 823 820 835 834
f 832 833 837 836
f 835 839 838 834
f 843 842 840 841
f 822 823 842 843
f 846 843 841 845
f 846 847 822 843
f 851 850 849 848
f 850 851 834 838
f 850 854 853 849
f 850 838 855 854
f 855 858 857 854
f 862 861 860 859
f 866 865 864 863
f 631 868 867 655
f 635 657 870 869
f 852 873 872 871
f 858 876 875 874
f 872 873 825 826
f 875 828 829 874
f 879 846 845 877
f 846 879 880 847
f 884 883 881 882
f 875 876 883 884
f 886 884 882 885
f 875 884 886 828
f 888 824 825 887
f 890 889 829 830
f 888 862 859 824
f 890 830 865 866
f 894 893 892 891
f 898 897 896 895
f 825 873 899 887
f 829 889 900 874
f 902 901 893 894
f 904 898 895 903
f 899 873 852 856
f 900 857 858 874
f 908 907 905 906
f 839 835 907 908
f 912 911 910 909
f 916 915 914 913
f 912 909 918 917
f 916 920 919 915
f 924 923 922 921
f 923 924 916 913
f 926 925 901 902
f 928 904 903 927
f 931 908 906 929
f 839 908 931 932
f 934 933 860 861
f 936 863 864 935
f 938 937 933 934
f 940 936 935 939
f 942 924 921 941
f 920 916 924 942
f 891 892 937 938
f 897 940 939 896
f 946 945 944 943
f 950 949 948 947
f 883 931 929 881
f 931 883 876 932
f 953 879 877 951
f 880 879 953 954
f 956 955 878 844
f 958 847 880 957
f 960 909 910 959
f 962 961 914 915
f 960 963 918 909
f 962 915 919 964
f 918 963 943 944
f 919 948 949 964
f 967 942 941 966
f 967 968 920 942
f 971 967 966 969
f 967 971 972 968
f 944 965 917 918
f 948 919 920 968
f 944 945 970 965
f 948 968 972 947
f 970 945 952 973
f 972 974 954 947
f 956 844 816 817
f 958 821 822 847
f 978 977 975 976
f 821 958 977 978
f 982 981 979 980
f 957 974 981 982
f 977 982 980 975
f 982 977 958 957
f 984 978 976 983
f 984 820 821 978
f 842 851 848 840
f 823 834 851 842
f 836 837 852 930
f 839 932 855 838
f 907 984 983 905
f 984 907 835 820
f 986 886 885 985
f 831 828 886 986
f 859 987 827 824
f 865 830 831 988
f 990 986 985 989
f 988 831 986 990
f 860 991 987 859
f 864 865 988 992
f 994 990 989 993
f 992 988 990 994
f 923 997 996 922
f 913 998 997 923
f 997 1001 1000 996
f 998 1002 1001 997
f 1001 1005 1004 1000
f 1002 1006 1005 1001
f 1005 1009 1008 1004
f 1006 1010 1009 1005
f 1009 1013 1012 1008
f 1010 1014 1013 1009
f 1013 1017 1016 1012
f 1014 1018 1017 1013
f 1017 1021 1020 1016
f 1018 1022 1021 1017
f 1021 1025 1024 1020
f 1022 1026 1025 1021
f 1025 1029 1028 1024
f 1026 1030 1029 1025
f 1029 1033 1032 1028
f 1030 1034 1033 1029
f 1033 994 993 1032
f 1034 992 994 1033
f 991 860 933 1031
f 992 1034 935 864
f 1031 933 937 1027
f 1034 1030 939 935
f 1027 937 892 1023
f 1030 1026 896 939
f 1023 892 893 1019
f 1026 1022 895 896
f 1019 893 901 1015
f 1022 1018 903 895
f 1015 901 925 1011
f 1018 1014 927 903
f 1011 925 1035 1007
f 1014 1010 1036 927
f 1007 1035 1037 1003
f 1010 1006 1038 1036
f 1003 1037 1039 999
f 1006 1002 1040 1038
f 999 1039 1041 995
f 1002 998 1042 1040
f 995 1041 910 911
f 998 913 914 1042
f 959 910 1041 1043
f 961 1044 1042 914
f 1043 1041 1039 1045
f 1044 1046 1040 1042
f 1045 1039 1037 1047
f 1046 1048 1038 1040
f 1047 1037 1035 1049
f 1048 1050 1036 1038
f 1049 1035 925 926
f 1050 928 927 1036
f 856 1052 1051 899
f 857 900 1054 1053
f 654 1055 1051 666
f 656 667 1054 1056
f 887 1055 867 888
f 889 890 870 1056
f 852 871 930
f 858 855 932 876
f 862 868 1057 861
f 866 863 1058 869
f 861 1057 1059 934
f 863 936 1060 1058
f 934 1059 1061 938
f 936 940 1062 1060
f 938 1061 1063 891
f 940 897 1064 1062
f 891 1063 1065 894
f 897 898 1066 1064
f 894 1065 1067 902
f 898 904 1068 1066
f 693 1069 1067 669
f 695 671 1068 1070
f 926 1069 1071 1049
f 928 1050 1072 1070
f 1049 1071 1073 1047
f 1050 1048 1074 1072
f 718 1077 1076 717
f 718 715 1078 1077
f 711 1075 1079 710
f 715 712 1080 1078
f 710 1079 1081 728
f 712 729 1082 1080
f 728 1081 1083 725
f 729 727 1084 1082
f 725 1083 1085 724
f 727 726 1086 1084
f 724 1085 1087 808
f 726 809 1088 1086
f 808 1087 1089 810
f 809 811 1090 1088
f 719 714 715 718
f 738 720 644 716
f 739 719 647 722
f 736 747 745 735
f 739 747 736 737
f 954 953 950 947
f 973 952 878 955
f 974 957 880 954
f 981 971 969 979
f 974 972 971 981
f 810 1089 1073 812
f 811 813 1074 1090
f 854 1092 1091 853
f 854 857 1053 1092
f 868 862 888 867
f 869 870 890 866
f 1052 625 666 1051
f 1053 1054 667 627
f 1055 887 899 1051
f 1056 1054 900 889
f 1055 654 655 867
f 1056 870 657 656
f 868 631 628 1057
f 869 1058 634 635
f 1057 628 699 1059
f 1058 1060 701 634
f 1059 699 703 1061
f 1060 1062 705 701
f 1061 703 660 1063
f 1062 1064 662 705
f 1063 660 661 1065
f 1064 1066 665 662
f 1065 661 669 1067
f 1066 1068 671 665
f 1069 926 902 1067
f 1070 1068 904 928
f 1069 693 814 1071
f 1070 1072 815 695
f 1071 814 812 1073
f 1072 1074 813 815
f 1077 953 951 1076
f 1077 1078 950 953
f 1075 946 943 1079
f 1078 1080 949 950
f 1079 943 963 1081
f 1080 1082 964 949
f 1081 963 960 1083
f 1082 1084 962 964
f 1083 960 959 1085
f 1084 1086 961 962
f 1085 959 1043 1087
f 1086 1088 1044 961
f 1087 1043 1045 1089
f 1088 1090 1046 1044
f 1089 1045 1047 1073
f 1090 1074 1048 1046
f 1092 623 621 1091
f 1092 1053 627 623
g Group12287
f 1096 1095 1094 1093
g Group12290
f 610 609 1093 1094
f 587 588 1095 1096
g Group12287
f 1098 1097 1096 1093
g Group12290
f 609 614 1098 1093
f 613 587 1096 1097
g Group12287
f 1102 1101 1100 1099
g Group12290
f 601 605 1099 1100
f 618 617 1101 1102
g Group12287
f 1102 1099 1104 1103
g Group12290
f 621 618 1102 1103
f 605 622 1104 1099
g Group12287
f 1104 1105 1103
g Group12290
f 622 625 1105 1104
f 1091 621 1103 1134
g Group12287
f 1098 1107 1106 1097
g Group12290
f 644 613 1097 1106
f 614 645 1107 1098
g Group12287
f 1106 1107 1109 1108
g Group12290
f 716 644 1106 1108
f 645 717 1109 1107
g Group12287
f 1095 1100 1101 1094
g Group12290
f 617 610 1094 1101
f 588 601 1100 1095
g Group12287
f 1113 1112 1111 1110
g Group12290
f 819 816 1113 1110
f 841 840 1111 1112
g Group12287
f 1115 1112 1113 1114
g Group12290
f 816 844 1114 1113
f 845 841 1112 1115
g Group12287
f 1119 1118 1117 1116
g Group12290
f 848 849 1119 1116
f 837 833 1117 1118
g Group12287
f 1119 1121 1120 1118
g Group12290
f 852 837 1118 1120
f 849 853 1121 1119
g Group12287
f 1120 1121 1122
g Group12290
f 625 1052 1133 1105
f 856 852 1120 1122
g Group12287
f 1115 1114 1124 1123
g Group12290
f 877 845 1115 1123
f 844 878 1124 1114
g Group12287
f 1124 1126 1125 1123
g Group12290
f 951 877 1123 1125
f 878 952 1126 1124
g Group12287
f 1110 1111 1116 1117
g Group12290
f 833 819 1110 1117
f 840 848 1116 1111
g Group12287
f 1109 1129 1128 1127
g Group12290
f 1075 711 1127 1128
f 717 1076 1129 1109
g Group12287
f 1108 1109 1127 1130
g Group12290
f 708 716 1108 1130
f 711 708 1130 1127
g Group12287
f 1126 1132 1131 1125
g Group12290
f 945 946 1131 1132
f 952 945 1132 1126
g Group12287
f 1121 1134 1133 1122
g Group12290
f 1052 856 1122 1133
f 853 1091 1134 1121
g Group12287
f 1129 1125 1131 1128
g Group12290
f 946 1075 1128 1131
f 1076 951 1125 1129
g Group12287
f 1134 1103 1105 1133
f 1138 1137 1136 1135
g Group12290
f 649 648 1135 1136
f 641 636 1137 1138
g Group12287
f 1138 1135 1140 1139
g Group12290
f 593 641 1138 1139
f 648 652 1140 1135
g Group12287
f 1144 1143 1142 1141
g Group12290
f 673 672 1141 1142
f 606 602 1143 1144
g Group12287
f 1148 1147 1146 1145
g Group12290
f 679 676 1145 1146
f 689 688 1147 1148
g Group12287
f 1144 1141 1150 1149
g Group12290
f 637 606 1144 1149
f 672 696 1150 1141
g Group12287
f 1152 1146 1147 1151
g Group12290
f 688 706 1151 1147
f 685 679 1146 1152
g Group12287
f 1150 1136 1137 1149
g Group12290
f 636 637 1149 1137
f 696 649 1136 1150
g Group12287
f 1154 1153 1152 1151
g Group12290
f 706 731 1154 1151
f 730 685 1152 1153
g Group12287
f 1154 1156 1155 1153
g Group12290
f 734 730 1153 1155
f 731 735 1156 1154
g Group12287
f 1160 1159 1158 1157
g Group12290
f 741 740 1157 1158
f 586 721 1159 1160
g Group12287
f 1164 1163 1162 1161
g Group12290
f 745 744 1161 1162
f 720 738 1163 1164
g Group12287
f 1161 1158 1159 1164
g Group12290
f 721 720 1164 1159
f 744 741 1158 1161
g Group12287
f 1166 1165 1160 1157
g Group12290
f 740 748 1166 1157
f 585 586 1160 1165
g Group12287
f 1166 1142 1143 1165
g Group12290
f 602 585 1165 1143
f 748 673 1142 1166
g Group12287
f 1168 1139 1140 1167
g Group12290
f 652 750 1167 1140
f 596 593 1139 1168
g Group12287
f 1170 1168 1167 1169
g Group12290
f 750 754 1169 1167
f 752 596 1168 1170
g Group12287
f 1172 1170 1169 1171
g Group12290
f 754 758 1171 1169
f 756 752 1170 1172
g Group12287
f 1145 1174 1173 1148
g Group12290
f 760 689 1148 1173
f 676 761 1174 1145
g Group12287
f 1174 1176 1175 1173
g Group12290
f 764 760 1173 1175
f 761 765 1176 1174
g Group12287
f 1176 1178 1177 1175
g Group12290
f 768 764 1175 1177
f 765 769 1178 1176
g Group12287
f 1178 1180 1179 1177
g Group12290
f 772 768 1177 1179
f 769 773 1180 1178
g Group12287
f 1180 1182 1181 1179
g Group12290
f 776 772 1179 1181
f 773 777 1182 1180
g Group12287
f 1182 1184 1183 1181
g Group12290
f 780 776 1181 1183
f 777 781 1184 1182
g Group12287
f 1184 1186 1185 1183
g Group12290
f 784 780 1183 1185
f 781 785 1186 1184
g Group12287
f 1186 1188 1187 1185
g Group12290
f 788 784 1185 1187
f 785 789 1188 1186
g Group12287
f 1188 1190 1189 1187
g Group12290
f 792 788 1187 1189
f 789 793 1190 1188
g Group12287
f 1190 1192 1191 1189
g Group12290
f 796 792 1189 1191
f 793 797 1192 1190
g Group12287
f 1192 1172 1171 1191
g Group12290
f 758 796 1191 1171
f 797 756 1172 1192
g Group12287
f 1196 1195 1194 1193
g Group12290
f 871 872 1196 1193
f 882 881 1194 1195
g Group12287
f 1196 1198 1197 1195
g Group12290
f 885 882 1195 1197
f 872 826 1198 1196
g Group12287
f 1202 1201 1200 1199
g Group12290
f 832 836 1202 1199
f 906 905 1200 1201
g Group12287
f 1206 1205 1204 1203
g Group12290
f 921 922 1206 1203
f 911 912 1204 1205
g Group12287
f 1202 1208 1207 1201
g Group12290
f 929 906 1201 1207
f 836 930 1208 1202
g Group12287
f 1210 1209 1203 1204
g Group12290
f 912 917 1210 1204
f 941 921 1203 1209
g Group12287
f 1207 1208 1193 1194
g Group12290
f 881 929 1207 1194
f 930 871 1193 1208
g Group12287
f 1212 1209 1210 1211
g Group12290
f 917 965 1211 1210
f 966 941 1209 1212
g Group12287
f 1212 1211 1214 1213
g Group12290
f 969 966 1212 1213
f 965 970 1214 1211
g Group12287
f 1218 1217 1216 1215
g Group12290
f 956 817 1218 1215
f 976 975 1216 1217
g Group12287
f 1222 1221 1220 1219
g Group12290
f 973 955 1222 1219
f 980 979 1220 1221
g Group12287
f 1221 1222 1215 1216
g Group12290
f 975 980 1221 1216
f 955 956 1215 1222
g Group12287
f 1224 1217 1218 1223
g Group12290
f 817 818 1223 1218
f 983 976 1217 1224
g Group12287
f 1224 1223 1199 1200
g Group12290
f 905 983 1224 1200
f 818 832 1199 1223
g Group12287
f 1226 1225 1197 1198
g Group12290
f 826 827 1226 1198
f 985 885 1197 1225
g Group12287
f 1228 1227 1225 1226
g Group12290
f 827 987 1228 1226
f 989 985 1225 1227
g Group12287
f 1230 1229 1227 1228
g Group12290
f 987 991 1230 1228
f 993 989 1227 1229
g Group12287
f 1205 1206 1232 1231
g Group12290
f 995 911 1205 1231
f 922 996 1232 1206
g Group12287
f 1231 1232 1234 1233
g Group12290
f 999 995 1231 1233
f 996 1000 1234 1232
g Group12287
f 1233 1234 1236 1235
g Group12290
f 1003 999 1233 1235
f 1000 1004 1236 1234
g Group12287
f 1235 1236 1238 1237
g Group12290
f 1007 1003 1235 1237
f 1004 1008 1238 1236
g Group12287
f 1237 1238 1240 1239
g Group12290
f 1011 1007 1237 1239
f 1008 1012 1240 1238
g Group12287
f 1239 1240 1242 1241
g Group12290
f 1015 1011 1239 1241
f 1012 1016 1242 1240
g Group12287
f 1241 1242 1244 1243
g Group12290
f 1019 1015 1241 1243
f 1016 1020 1244 1242
g Group12287
f 1243 1244 1246 1245
g Group12290
f 1023 1019 1243 1245
f 1020 1024 1246 1244
g Group12287
f 1245 1246 1248 1247
g Group12290
f 1027 1023 1245 1247
f 1024 1028 1248 1246
g Group12287
f 1247 1248 1250 1249
g Group12290
f 1031 1027 1247 1249
f 1028 1032 1250 1248
g Group12287
f 1249 1250 1229 1230
g Group12290
f 991 1031 1249 1230
f 1032 993 1229 1250
g Group12287
f 1163 1155 1156 1162
g Group12290
f 735 745 1162 1156
f 738 734 1155 1163
g Group12287
f 1219 1220 1213 1214
g Group12290
f 970 973 1219 1214
f 979 969 1213 1220
g Group28156
f 1282 1284 1283
g Group1486
f 1268 1265 1281 1278
g Group28159
f 1259 1258 1284 1282
g Group28156
f 1288 1287 1286 1285
g Group1486
f 1278 1281 1270 1269
g Group28156
f 1289 1291 1290
f 1311 1290 1304 1312
g Group28159
f 1256 1254 1291 1289
g Group28156
f 1286 1294 1293 1292
g Group1486
f 1270 1263 1272 1271
g Group28156
f 1297 1296 1295
g Group28159
f 1251 1275 1297 1295
g Group1486
f 1266 1265 1268 1255
g Group28156
f 1301 1300 1299 1298
g Group28159
f 1277 1260 1301 1298
g Group28156
f 1295 1296 1287 1302
g Group28159
f 1252 1251 1295 1302
g Group28156
f 1282 1283 1300 1301
g Group28159
f 1260 1259 1282 1301
g Group28156
f 1302 1287 1288 1303
g Group28159
f 1279 1252 1302 1303
g Group28156
f 1305 1304 1290 1291
g Group28159
f 1254 1253 1305 1291
g Group28156
f 1286 1287 1296 1294
g Group1486
f 1270 1271 1276 1269
g Group28156
f 1299 1285 1286 1292
g Group1486
f 1280 1263 1270 1281
g Group28156
f 1296 1297 1306 1294
g Group28159
f 1275 1274 1306 1297
g Group1486
f 1276 1271 1324 1318
g Group28156
f 1303 1288 1304 1305
g Group28159
f 1253 1279 1303 1305
g Group28156
f 1298 1299 1292 1307
g Group28159
f 1261 1277 1298 1307
g Group28156
f 1309 1293 1308
f 1304 1288 1285 1312
g Group28159
f 1273 1262 1309 1308
g Group28156
f 1307 1292 1293 1309
g Group28159
f 1262 1261 1307 1309
g Group28156
f 1289 1290 1311 1310
g Group28159
f 1257 1256 1289 1310
g Group28156
f 1310 1311 1283 1284
g Group28159
f 1258 1257 1310 1284
g Group28156
f 1300 1312 1285 1299
g Group1486
f 1264 1280 1281 1265
g Group28156
f 1306 1308 1293 1294
g Group28159
f 1274 1273 1308 1306
g Group28156
f 1300 1283 1311 1312
g Group1486
f 1264 1265 1266 1267
f 1313 1267 1314
f 1315 1255 1316
f 1317 1276 1318
f 1320 1319 1280 1264
f 1317 1321 1269 1276
f 1313 1320 1264 1267
f 1321 1322 1278 1269
f 1323 1316 1255 1268
f 1322 1323 1268 1278
f 1319 1325 1263 1280
f 1326 1272 1327
f 1325 1327 1272 1263
f 1315 1328 1266 1255
f 1328 1314 1267 1266
f 1324 1271 1272 1326
g Group28156
f 1332 1331 1330 1329
g Group28159
f 1258 1259 1332 1329
f 1313 1314 1330 1331
g Group28156
f 1336 1335 1334 1333
g Group28159
f 1254 1256 1336 1333
f 1315 1316 1334 1335
g Group28156
f 1340 1339 1338 1337
g Group28159
f 1317 1318 1337 1338
f 1275 1251 1339 1340
g Group28156
f 1344 1343 1342 1341
g Group28159
f 1319 1320 1341 1342
f 1260 1277 1343 1344
g Group28156
f 1339 1346 1345 1338
g Group28159
f 1321 1317 1338 1345
f 1251 1252 1346 1339
g Group28156
f 1332 1344 1341 1331
g Group28159
f 1320 1313 1331 1341
f 1259 1260 1344 1332
g Group28156
f 1346 1279 1347 1345
g Group28159
f 1322 1321 1345 1347
f 1252 1279 1346
g Group28156
f 1350 1333 1334 1349
g Group28159
f 1316 1323 1349 1334
f 1253 1254 1333 1350
g Group28156
f 1279 1350 1349 1347
g Group28159
f 1323 1322 1347 1349
f 1279 1253 1350
g Group28156
f 1343 1352 1351 1342
g Group28159
f 1325 1319 1342 1351
f 1277 1261 1352 1343
g Group28156
f 1356 1355 1354 1353
g Group28159
f 1326 1327 1353 1354
f 1262 1273 1355 1356
g Group28156
f 1352 1356 1353 1351
g Group28159
f 1327 1325 1351 1353
f 1261 1262 1356 1352
g Group28156
f 1336 1358 1357 1335
g Group28159
f 1328 1315 1335 1357
f 1256 1257 1358 1336
g Group28156
f 1358 1329 1330 1357
g Group28159
f 1314 1328 1357 1330
f 1257 1258 1329 1358
g Group28156
f 1348 1359 1354 1355
g Group28159
f 1273 1274 1348 1355
f 1324 1326 1354 1359
g Group28156
f 1337 1359 1348 1340
g Group28159
f 1274 1275 1340 1348
f 1318 1324 1359 1337
g Group60828
f 1391 1393 1392
f 1377 1374 1390 1387
f 1368 1367 1393 1391
f 1397 1396 1395 1394
f 1387 1390 1379 1378
f 1398 1400 1399
f 1420 1399 1413 1421
f 1365 1363 1400 1398
f 1395 1403 1402 1401
f 1379 1372 1381 1380
f 1406 1405 1404
f 1360 1384 1406 1404
f 1375 1374 1377 1364
f 1410 1409 1408 1407
f 1386 1369 1410 1407
f 1404 1405 1396 1411
f 1361 1360 1404 1411
f 1391 1392 1409 1410
f 1369 1368 1391 1410
f 1411 1396 1397 1412
f 1388 1361 1411 1412
f 1414 1413 1399 1400
f 1363 1362 1414 1400
f 1395 1396 1405 1403
f 1379 1380 1385 1378
f 1408 1394 1395 1401
f 1389 1372 1379 1390
f 1405 1406 1415 1403
f 1384 1383 1415 1406
f 1385 1380 1433 1427
f 1412 1397 1413 1414
f 1362 1388 1412 1414
f 1407 1408 1401 1416
f 1370 1386 1407 1416
f 1418 1402 1417
f 1413 1397 1394 1421
f 1382 1371 1418 1417
f 1416 1401 1402 1418
f 1371 1370 1416 1418
f 1398 1399 1420 1419
f 1366 1365 1398 1419
f 1419 1420 1392 1393
f 1367 1366 1419 1393
f 1409 1421 1394 1408
f 1373 1389 1390 1374
f 1415 1417 1402 1403
f 1383 1382 1417 1415
f 1409 1392 1420 1421
f 1373 1374 1375 1376
f 1422 1376 1423
f 1424 1364 1425
f 1426 1385 1427
f 1429 1428 1389 1373
f 1426 1430 1378 1385
f 1422 1429 1373 1376
f 1430 1431 1387 1378
f 1432 1425 1364 1377
f 1431 1432 1377 1387
f 1428 1434 1372 1389
f 1435 1381 1436
f 1434 1436 1381 1372
f 1424 1437 1375 1364
f 1437 1423 1376 1375
f 1433 1380 1381 1435
f 1441 1440 1439 1438
f 1367 1368 1441 1438
f 1422 1423 1439 1440
f 1445 1444 1443 1442
f 1363 1365 1445 1442
f 1424 1425 1443 1444
f 1449 1448 1447 1446
f 1426 1427 1446 1447
f 1384 1360 1448 1449
f 1453 1452 1451 1450
f 1428 1429 1450 1451
f 1369 1386 1452 1453
f 1448 1455 1454 1447
f 1430 1426 1447 1454
f 1360 1361 1455 1448
f 1441 1453 1450 1440
f 1429 1422 1440 1450
f 1368 1369 1453 1441
f 1455 1457 1456 1454
f 1431 1430 1454 1456
f 1361 1388 1457 1455
f 1459 1442 1443 1458
f 1425 1432 1458 1443
f 1362 1363 1442 1459
f 1457 1459 1458 1456
f 1432 1431 1456 1458
f 1388 1362 1459 1457
f 1452 1461 1460 1451
f 1434 1428 1451 1460
f 1386 1370 1461 1452
f 1465 1464 1463 1462
f 1435 1436 1462 1463
f 1371 1382 1464 1465
f 1461 1465 1462 1460
f 1436 1434 1460 1462
f 1370 1371 1465 1461
f 1445 1467 1466 1444
f 1437 1424 1444 1466
f 1365 1366 1467 1445
f 1467 1438 1439 1466
f 1423 1437 1466 1439
f 1366 1367 1438 1467
f 1469 1468 1463 1464
f 1382 1383 1469 1464
f 1433 1435 1463 1468
f 1446 1468 1469 1449
f 1383 1384 1449 1469
f 1427 1433 1468 1446
f 1502 1503 1501
f 1487 1497 1500 1484
f 1478 1501 1503 1477
f 1507 1504 1505 1506
f 1497 1488 1489 1500
f 1509 1510 1508
f 1530 1531 1523 1509
f 1475 1508 1510 1473
f 1505 1511 1512 1513
f 1489 1490 1491 1482
f 1514 1515 1516
f 1470 1514 1516 1494
f 1485 1474 1487 1484
f 1520 1517 1518 1519
f 1496 1517 1520 1479
f 1514 1521 1506 1515
f 1471 1521 1514 1470
f 1501 1520 1519 1502
f 1479 1520 1501 1478
f 1521 1522 1507 1506
f 1498 1522 1521 1471
f 1524 1510 1509 1523
f 1473 1510 1524 1472
f 1505 1513 1515 1506
f 1489 1488 1495 1490
f 1518 1511 1505 1504
f 1499 1500 1489 1482
f 1515 1513 1525 1516
f 1494 1516 1525 1493
f 1495 1537 1543 1490
f 1522 1524 1523 1507
f 1472 1524 1522 1498
f 1517 1526 1511 1518
f 1480 1526 1517 1496
f 1527 1512 1528
f 1523 1531 1504 1507
f 1492 1527 1528 1481
f 1526 1528 1512 1511
f 1481 1528 1526 1480
f 1508 1529 1530 1509
f 1476 1529 1508 1475
f 1529 1503 1502 1530
f 1477 1503 1529 1476
f 1519 1518 1504 1531
f 1483 1484 1500 1499
f 1525 1513 1512 1527
f 1493 1525 1527 1492
f 1519 1531 1530 1502
f 1483 1486 1485 1484
f 1533 1486 1532
f 1535 1474 1534
f 1537 1495 1536
f 1539 1483 1499 1538
f 1536 1495 1488 1540
f 1532 1486 1483 1539
f 1540 1488 1497 1541
f 1542 1487 1474 1535
f 1541 1497 1487 1542
f 1538 1499 1482 1544
f 1546 1491 1545
f 1544 1482 1491 1546
f 1534 1474 1485 1547
f 1547 1485 1486 1533
f 1543 1545 1491 1490
f 1551 1548 1549 1550
f 1477 1548 1551 1478
f 1532 1550 1549 1533
f 1555 1552 1553 1554
f 1473 1552 1555 1475
f 1534 1554 1553 1535
f 1559 1556 1557 1558
f 1536 1557 1556 1537
f 1494 1559 1558 1470
f 1563 1560 1561 1562
f 1538 1561 1560 1539
f 1479 1563 1562 1496
f 1558 1557 1564 1565
f 1540 1564 1557 1536
f 1470 1558 1565 1471
f 1551 1550 1560 1563
f 1539 1560 1550 1532
f 1478 1551 1563 1479
f 1565 1564 1566 1567
f 1541 1566 1564 1540
f 1471 1565 1567 1498
f 1569 1568 1553 1552
f 1535 1553 1568 1542
f 1472 1569 1552 1473
f 1567 1566 1568 1569
f 1542 1568 1566 1541
f 1498 1567 1569 1472
f 1562 1561 1570 1571
f 1544 1570 1561 1538
f 1496 1562 1571 1480
f 1575 1572 1573 1574
f 1545 1573 1572 1546
f 1481 1575 1574 1492
f 1571 1570 1572 1575
f 1546 1572 1570 1544
f 1480 1571 1575 1481
f 1555 1554 1576 1577
f 1547 1576 1554 1534
f 1475 1555 1577 1476
f 1577 1576 1549 1548
f 1533 1549 1576 1547
f 1476 1577 1548 1477
f 1579 1574 1573 1578
f 1492 1574 1579 1493
f 1543 1578 1573 1545
f 1556 1559 1579 1578
f 1493 1579 1559 1494
f 1537 1556 1578 1543

 