# File exported by ZBrush version 2021
# www.zbrush.com
#Vertex Count 1345
#Face Count 1333
#Auto scale x=1.000000 y=1.000000 z=1.000000
#Auto offset x=-0.000000 y=-0.000000 z=-0.000000
v 0.18982897 0.96891462 0.06957916
v 0.19373682 0.96297848 0.06117301
v 0.19491508 0.97104358 0.06981443
v 0.19886933 0.96585798 0.06206013
v 0.19860886 0.97400718 0.06823135
v 0.20238171 0.97179597 0.06225198
v 0.19794599 0.98060387 0.0705502
v 0.20345003 0.98032856 0.06314504
v 0.19655305 0.99012249 0.07122082
v 0.2024766 0.99058198 0.06325598
v 0.18870422 0.99929207 0.07300266
v 0.1947277 0.99935716 0.0690594
v 0.19010165 0.98932981 0.07580981
v 0.18871375 1.00712227 0.06695209
v 0.19321231 1.00538468 0.0657359
v 0.19998778 1.00042653 0.06154412
v 0.20718318 0.99061787 0.05253629
v 0.20420429 1.00102663 0.05134349
v 0.21015852 0.9799602 0.04225189
v 0.20789119 0.97974652 0.05304776
v 0.20956121 0.99019032 0.04112399
v 0.20665319 1.00005698 0.04064937
v 0.19615854 1.00786685 0.05937255
v 0.19969514 1.00899767 0.04973488
v 0.19087784 1.01217389 0.05837994
v 0.19420808 1.01388454 0.0479054
v 0.20235727 1.00751531 0.03990809
v 0.19750854 1.01178407 0.03753822
v 0.18827058 1.014943 0.04603706
v 0.19212794 1.01256811 0.03519084
v 0.1851212 1.01297152 0.05721412
v 0.18323004 1.00734889 0.06654294
v 0.18273177 0.99887651 0.07320317
v 0.18380571 0.98826056 0.07629194
v 0.19214026 0.97919094 0.0746025
v 0.18638144 0.97758019 0.07488662
v 0.20635251 0.97057497 0.05280497
v 0.20287373 0.96389848 0.05188211
v 0.19769674 0.96061432 0.05033648
v 0.20557658 0.96549123 0.04122091
v 0.20084548 0.96258068 0.03914783
v 0.20263153 0.96820735 0.02981197
v 0.20299866 0.97665089 0.02314642
v 0.20694951 0.97037869 0.03242109
v 0.20756106 0.97833269 0.0265777
v 0.20864164 0.9714632 0.04278877
v 0.20907698 0.97343432 0.03566905
v 0.20996281 0.97994929 0.03309369
v 0.20932531 0.98941731 0.03130528
v 0.20670233 0.98839175 0.02395454
v 0.19591166 1.00659823 0.02677327
v 0.20182953 0.98723614 0.02005693
v 0.19926521 0.99791252 0.02145971
v 0.20404301 0.99841827 0.02498138
v 0.20669277 0.99868631 0.03159951
v 0.20359645 1.00479292 0.0331663
v 0.20063699 1.00642323 0.02955655
v 0.18950411 0.97186386 0.05498707
v 0.19190771 0.97318077 0.05545681
v 0.18963618 0.97645264 0.06021342
v 0.18730807 0.97552371 0.06004634
v 0.1926653 0.97502768 0.05605554
v 0.19037719 0.97690832 0.060074
v 0.19309546 0.98052537 0.05714717
v 0.18955244 0.98123782 0.0618884
v 0.19228912 0.98834562 0.05732774
v 0.18838231 0.98803502 0.06251621
v 0.18628099 0.98778539 0.0639561
v 0.18723662 0.99467778 0.06083304
v 0.18560697 0.99412357 0.06215835
v 0.18661175 0.9987263 0.05835007
v 0.18576268 0.99891638 0.05844119
v 0.19044473 0.99585801 0.05592891
v 0.19360417 0.9964146 0.04816538
v 0.19591563 0.98836737 0.04908265
v 0.19774149 0.98803567 0.04029836
v 0.19645896 0.97997587 0.04946632
v 0.19819571 0.98023235 0.04126175
v 0.19552165 0.99557131 0.04004826
v 0.1906118 1.00163102 0.04709803
v 0.18822817 1.00066983 0.05402249
v 0.18691331 1.0020405 0.05317748
v 0.18881626 1.00317883 0.04650146
v 0.19111675 1.00179636 0.04000999
v 0.19266793 1.00041341 0.04012717
v 0.1885713 1.00212836 0.03895156
v 0.18601477 1.00364971 0.04560659
v 0.1842224 1.0023899 0.05258165
v 0.18326798 0.99896585 0.05820138
v 0.18280735 0.99387377 0.06222365
v 0.18332392 0.98727697 0.06416475
v 0.18508209 0.98069095 0.0632642
v 0.18779942 0.98139309 0.06316237
v 0.19425658 0.97180825 0.04897336
v 0.19541694 0.97394758 0.04928637
v 0.19180363 0.97028696 0.04824253
v 0.19388483 0.97160548 0.04136183
v 0.19613908 0.97293919 0.04229021
v 0.19737702 0.98084157 0.03330561
v 0.19711044 0.9760304 0.03697763
v 0.1950944 0.97508209 0.03582155
v 0.1952095 0.98010611 0.03170942
v 0.19713683 0.97477281 0.04215421
v 0.19807373 0.98075002 0.0353482
v 0.19763255 0.97649836 0.03749638
v 0.19668436 0.98718458 0.03150558
v 0.19756512 0.98751545 0.03385997
v 0.19290792 0.99329018 0.03066871
v 0.1951573 0.99356973 0.03229989
v 0.19437506 0.98663574 0.02967899
v 0.19572459 0.99418515 0.03428725
v 0.19318509 0.99847626 0.03520199
v 0.19382605 0.99830097 0.03576747
v 0.19100311 0.9985094 0.03397441
v 0.19592636 0.96836787 0.07367742
v 0.20057098 0.9622659 0.0645702
v 0.19545316 0.95938521 0.06367494
v 0.19084024 0.96624153 0.07344341
v 0.19511964 1.01845634 0.04807425
v 0.18918235 1.01951384 0.04620596
v 0.19355952 1.01678693 0.03366605
v 0.19894936 1.01600265 0.0360005
v 0.18547837 1.01725566 0.05909358
v 0.19124189 1.01644921 0.06025296
v 0.18321009 1.01072859 0.06991639
v 0.18870142 1.01050281 0.07033083
v 0.18268691 1.0008862 0.07764857
v 0.1886609 1.00130498 0.07745815
v 0.19028563 0.98972201 0.08072929
v 0.18399429 0.98865336 0.08120541
v 0.1926569 0.9779216 0.07931625
v 0.18688212 0.97632569 0.07959342
v 0.20525255 0.95997989 0.05273003
v 0.20007319 0.95670729 0.05118521
v 0.20839351 0.96184271 0.04031995
v 0.20365658 0.958938 0.03825314
v 0.20568245 0.96541404 0.02737996
v 0.2099954 0.96760511 0.0299808
v 0.21070751 0.97692978 0.02310016
v 0.20613685 0.97524774 0.01967128
v 0.20971372 0.98863685 0.02004707
v 0.20660868 1.00028944 0.02123873
v 0.20181794 0.99977999 0.01772532
v 0.20483273 0.98747104 0.01615043
v 0.20261573 1.00970459 0.02662928
v 0.19788312 1.00986635 0.0238551
v -0.18982897 0.96891462 0.06957916
v -0.19373682 0.96297848 0.06117301
v -0.19491508 0.97104358 0.06981443
v -0.19886933 0.96585798 0.06206013
v -0.19860886 0.97400718 0.06823135
v -0.20238171 0.97179597 0.06225198
v -0.19794599 0.98060387 0.0705502
v -0.20345003 0.98032856 0.06314504
v -0.19655305 0.99012249 0.07122082
v -0.2024766 0.99058198 0.06325598
v -0.18870422 0.99929207 0.07300266
v -0.1947277 0.99935716 0.0690594
v -0.19010165 0.98932981 0.07580981
v -0.18871375 1.00712227 0.06695209
v -0.19321231 1.00538468 0.0657359
v -0.19998778 1.00042653 0.06154412
v -0.20718318 0.99061787 0.05253629
v -0.20420429 1.00102663 0.05134349
v -0.21015852 0.9799602 0.04225189
v -0.20789119 0.97974652 0.05304776
v -0.20956121 0.99019032 0.04112399
v -0.20665319 1.00005698 0.04064937
v -0.19615854 1.00786685 0.05937255
v -0.19969514 1.00899767 0.04973488
v -0.19087784 1.01217389 0.05837994
v -0.19420808 1.01388454 0.0479054
v -0.20235727 1.00751531 0.03990809
v -0.19750854 1.01178407 0.03753822
v -0.18827058 1.014943 0.04603706
v -0.19212794 1.01256811 0.03519084
v -0.1851212 1.01297152 0.05721412
v -0.18323004 1.00734889 0.06654294
v -0.18273177 0.99887651 0.07320317
v -0.18380571 0.98826056 0.07629194
v -0.19214026 0.97919094 0.0746025
v -0.18638144 0.97758019 0.07488662
v -0.20635251 0.97057497 0.05280497
v -0.20287373 0.96389848 0.05188211
v -0.19769674 0.96061432 0.05033648
v -0.20557658 0.96549123 0.04122091
v -0.20084548 0.96258068 0.03914783
v -0.20263153 0.96820735 0.02981197
v -0.20299866 0.97665089 0.02314642
v -0.20694951 0.97037869 0.03242109
v -0.20756106 0.97833269 0.0265777
v -0.20864164 0.9714632 0.04278877
v -0.20907698 0.97343432 0.03566905
v -0.20996281 0.97994929 0.03309369
v -0.20932531 0.98941731 0.03130528
v -0.20670233 0.98839175 0.02395454
v -0.19591166 1.00659823 0.02677327
v -0.20182953 0.98723614 0.02005693
v -0.19926521 0.99791252 0.02145971
v -0.20404301 0.99841827 0.02498138
v -0.20669277 0.99868631 0.03159951
v -0.20359645 1.00479292 0.0331663
v -0.20063699 1.00642323 0.02955655
v -0.18950411 0.97186386 0.05498707
v -0.19190771 0.97318077 0.05545681
v -0.18963618 0.97645264 0.06021342
v -0.18730807 0.97552371 0.06004634
v -0.1926653 0.97502768 0.05605554
v -0.19037719 0.97690832 0.060074
v -0.19309546 0.98052537 0.05714717
v -0.18955244 0.98123782 0.0618884
v -0.19228912 0.98834562 0.05732774
v -0.18838231 0.98803502 0.06251621
v -0.18628099 0.98778539 0.0639561
v -0.18723662 0.99467778 0.06083304
v -0.18560697 0.99412357 0.06215835
v -0.18661175 0.9987263 0.05835007
v -0.18576268 0.99891638 0.05844119
v -0.19044473 0.99585801 0.05592891
v -0.19360417 0.9964146 0.04816538
v -0.19591563 0.98836737 0.04908265
v -0.19774149 0.98803567 0.04029836
v -0.19645896 0.97997587 0.04946632
v -0.19819571 0.98023235 0.04126175
v -0.19552165 0.99557131 0.04004826
v -0.1906118 1.00163102 0.04709803
v -0.18822817 1.00066983 0.05402249
v -0.18691331 1.0020405 0.05317748
v -0.18881626 1.00317883 0.04650146
v -0.19111675 1.00179636 0.04000999
v -0.19266793 1.00041341 0.04012717
v -0.1885713 1.00212836 0.03895156
v -0.18601477 1.00364971 0.04560659
v -0.1842224 1.0023899 0.05258165
v -0.18326798 0.99896585 0.05820138
v -0.18280735 0.99387377 0.06222365
v -0.18332392 0.98727697 0.06416475
v -0.18508209 0.98069095 0.0632642
v -0.18779942 0.98139309 0.06316237
v -0.19425658 0.97180825 0.04897336
v -0.19541694 0.97394758 0.04928637
v -0.19180363 0.97028696 0.04824253
v -0.19388483 0.97160548 0.04136183
v -0.19613908 0.97293919 0.04229021
v -0.19737702 0.98084157 0.03330561
v -0.19711044 0.9760304 0.03697763
v -0.1950944 0.97508209 0.03582155
v -0.1952095 0.98010611 0.03170942
v -0.19713683 0.97477281 0.04215421
v -0.19807373 0.98075002 0.0353482
v -0.19763255 0.97649836 0.03749638
v -0.19668436 0.98718458 0.03150558
v -0.19756512 0.98751545 0.03385997
v -0.19290792 0.99329018 0.03066871
v -0.1951573 0.99356973 0.03229989
v -0.19437506 0.98663574 0.02967899
v -0.19572459 0.99418515 0.03428725
v -0.19318509 0.99847626 0.03520199
v -0.19382605 0.99830097 0.03576747
v -0.19100311 0.9985094 0.03397441
v -0.19592636 0.96836787 0.07367742
v -0.20057098 0.9622659 0.0645702
v -0.19545316 0.95938521 0.06367494
v -0.19084024 0.96624153 0.07344341
v -0.19511964 1.01845634 0.04807425
v -0.18918235 1.01951384 0.04620596
v -0.19355952 1.01678693 0.03366605
v -0.19894936 1.01600265 0.0360005
v -0.18547837 1.01725566 0.05909358
v -0.19124189 1.01644921 0.06025296
v -0.18321009 1.01072859 0.06991639
v -0.18870142 1.01050281 0.07033083
v -0.18268691 1.0008862 0.07764857
v -0.1886609 1.00130498 0.07745815
v -0.19028563 0.98972201 0.08072929
v -0.18399429 0.98865336 0.08120541
v -0.1926569 0.9779216 0.07931625
v -0.18688212 0.97632569 0.07959342
v -0.20525255 0.95997989 0.05273003
v -0.20007319 0.95670729 0.05118521
v -0.20839351 0.96184271 0.04031995
v -0.20365658 0.958938 0.03825314
v -0.20568245 0.96541404 0.02737996
v -0.2099954 0.96760511 0.0299808
v -0.21070751 0.97692978 0.02310016
v -0.20613685 0.97524774 0.01967128
v -0.20971372 0.98863685 0.02004707
v -0.20660868 1.00028944 0.02123873
v -0.20181794 0.99977999 0.01772532
v -0.20483273 0.98747104 0.01615043
v -0.20261573 1.00970459 0.02662928
v -0.19788312 1.00986635 0.0238551
v -0.03426573 0.77477508 0.14049248
v -0.01912657 0.76476752 0.14121499
v -0.032219 0.77705901 0.14906518
v -0.0180878 0.76822179 0.15034833
v -0.02796143 0.78115397 0.15480826
v -0.01672074 0.77708953 0.15735931
v -0.03194023 0.79191303 0.15645295
v -0.01762369 0.79070752 0.16150559
v -0.03366209 0.80772423 0.15688544
v -0.01826164 0.80765992 0.16250765
v -0.04020932 0.82437896 0.14766632
v -0.03111537 0.8233689 0.1552415
v -0.04397975 0.80760037 0.14877006
v -0.03064554 0.83757728 0.14672233
v -0.02658492 0.83378756 0.15276257
v -0.01674049 0.82442182 0.16018547
v 0.0009121 0.80737739 0.16482983
v 0.00138003 0.82513755 0.16212156
v 0.01857502 0.79000997 0.16207343
v 0.00044064 0.78943437 0.16355681
v 0.02007312 0.80692374 0.16307513
v 0.01944021 0.82373195 0.16068495
v -0.01513061 0.83760047 0.15497224
v 0.00177743 0.8392995 0.15623861
v -0.01607346 0.84591847 0.14728996
v 0.0020587 0.84866917 0.14797975
v 0.01856858 0.83694827 0.15541936
v 0.02000695 0.84519928 0.14775517
v 0.00218696 0.85189747 0.1380759
v 0.0211571 0.84788429 0.13843037
v -0.01696889 0.84862959 0.1379365
v -0.03260668 0.83924108 0.13801392
v -0.04336601 0.82506495 0.138326
v -0.04773536 0.80727464 0.13889896
v -0.04110303 0.79066503 0.14894479
v -0.04429021 0.7893458 0.13968931
v 0.00009253 0.77483612 0.158827
v -0.00010371 0.76480639 0.15134671
v -0.00012333 0.7607482 0.14173692
v 0.01802509 0.76752245 0.15093992
v 0.01905063 0.7640075 0.14186877
v 0.03464981 0.77342754 0.14162498
v 0.04535493 0.78758817 0.14109803
v 0.03258078 0.77579397 0.15012413
v 0.04210337 0.78904157 0.15024837
v 0.0170055 0.77645373 0.15790735
v 0.02846105 0.78006535 0.15571378
v 0.03295086 0.79067271 0.15745678
v 0.03547354 0.80639869 0.15790133
v 0.04583939 0.80584073 0.15009675
v 0.03625514 0.8378514 0.13894565
v 0.04968018 0.80534899 0.14036856
v 0.04624459 0.82326918 0.13959412
v 0.04295267 0.82274776 0.14884018
v 0.03375655 0.82211434 0.15615898
v 0.02980903 0.83268743 0.1535286
v 0.03410473 0.83628195 0.14759822
v -0.01136644 0.78067743 0.13383114
v -0.01096563 0.78223896 0.13812635
v -0.01956052 0.7877736 0.13760224
v -0.02040377 0.78680604 0.13366094
v -0.01155117 0.78503733 0.14003717
v -0.01898784 0.78835594 0.13880455
v -0.01307139 0.79383593 0.1425479
v -0.02224661 0.79548656 0.13941247
v -0.01374007 0.80677276 0.14325757
v -0.02379499 0.8068071 0.13951735
v -0.02706888 0.80678492 0.13685022
v -0.02168062 0.81803119 0.13853575
v -0.02454926 0.81741106 0.13647869
v -0.01805491 0.82495623 0.13736702
v -0.01860252 0.8254553 0.13612863
v -0.01240711 0.81955826 0.14152753
v 0.00136069 0.82027614 0.14294752
v 0.00101058 0.80654472 0.1450522
v 0.01575705 0.80619174 0.14369389
v 0.0006628 0.79269623 0.14405936
v 0.01445118 0.79328376 0.14297619
v 0.01509652 0.81902134 0.14192321
v 0.00162407 0.82955491 0.139026
v -0.01044929 0.8280552 0.1383261
v -0.00973939 0.83065468 0.13620407
v 0.00171287 0.83253783 0.13631209
v 0.01306246 0.83020108 0.13652068
v 0.01361499 0.82757794 0.13866668
v 0.01352422 0.8314042 0.13212429
v 0.00179451 0.83401435 0.13162589
v -0.01007771 0.8318879 0.13180206
v -0.01941009 0.82612943 0.1321285
v -0.02598359 0.81764507 0.13207362
v -0.02880469 0.80662351 0.13220396
v -0.02654619 0.79553043 0.13294097
v -0.02509308 0.79605668 0.13730934
v 0.00039446 0.77990698 0.13841687
v 0.0004517 0.78310936 0.14089326
v 0.00038267 0.77804124 0.13387246
v 0.01224289 0.78019112 0.1342062
v 0.01184821 0.78178292 0.13848793
v 0.0266317 0.79501938 0.13810098
v 0.02070345 0.78697329 0.13825176
v 0.02157134 0.78597074 0.13432851
v 0.02812267 0.79443079 0.13378495
v 0.01253752 0.78455555 0.14042519
v 0.02373557 0.79456734 0.14012844
v 0.02013197 0.78758031 0.13942469
v 0.02914603 0.80565828 0.13770028
v 0.02584522 0.80583083 0.14026415
v 0.02867232 0.81655252 0.13287577
v 0.02716489 0.81637626 0.1372262
v 0.03093375 0.80542081 0.13309949
v 0.02429486 0.8171119 0.13919621
v 0.02164207 0.82463866 0.1366914
v 0.02105356 0.82416528 0.1379168
v 0.02254407 0.82528191 0.13271169
v -0.03784121 0.77219075 0.15181839
v -0.02124435 0.76179194 0.15332289
v -0.02226333 0.75833314 0.14420837
v -0.03988987 0.76990968 0.14324648
v 0.0022254 0.85590899 0.15058593
v 0.00235386 0.85913568 0.14068232
v 0.02424683 0.85454577 0.14096748
v 0.02312154 0.85185933 0.15030039
v -0.01976843 0.8554095 0.14041145
v -0.01885962 0.85268217 0.14977054
v -0.03794595 0.8445279 0.14038407
v -0.0359895 0.84286308 0.14910742
v -0.05041058 0.82804662 0.14083159
v -0.04726912 0.82736426 0.15017968
v -0.05166433 0.80785614 0.15146666
v -0.05540833 0.80753076 0.14159964
v -0.04830437 0.78814679 0.1516637
v -0.05148848 0.78685575 0.14238354
v -0.00031202 0.75780254 0.15451911
v -0.00033439 0.75376379 0.14490848
v 0.02078799 0.76098012 0.15403942
v 0.02180091 0.75747537 0.14496359
v 0.03994264 0.76833343 0.14457598
v 0.03788457 0.77073407 0.15306845
v 0.04909369 0.78626656 0.15319214
v 0.05233763 0.78481495 0.1440301
v 0.05344462 0.80581635 0.15302431
v 0.05008539 0.82546997 0.15154033
v 0.05335819 0.82598835 0.14227724
v 0.05727985 0.8053106 0.1432815
v 0.03967037 0.8413847 0.15010467
v 0.0418029 0.84293305 0.14144182
v -0.03456765 1.03926432 -0.11583693
v -0.06056628 1.03786456 -0.11264673
v -0.08537197 1.03611433 -0.10563802
v -0.10710976 1.0346502 -0.09367241
v -0.12585642 1.03322875 -0.07688285
v -0.14124314 1.0308392 -0.05551482
v -0.15260084 1.02636444 -0.0308357
v -0.15934786 1.01939046 -0.00405175
v -0.1606775 1.01019728 0.02319527
v -0.1554992 0.99935132 0.04942795
v -0.14287173 0.98734027 0.07351268
v -0.12268028 0.97448998 0.0946462
v -0.09663487 0.96141105 0.11198947
v -0.06115168 0.94878608 0.12529499
v 0.06104711 0.94883209 0.12535905
v 0.09640736 0.96151596 0.11220185
v 0.12223497 0.97466367 0.09499334
v 0.14213255 0.98753362 0.07390022
v 0.15481306 0.99955242 0.04958035
v 0.16001312 1.01041472 0.02292545
v 0.15860015 1.01970112 -0.00493944
v 0.15136697 1.02687454 -0.03252024
v 0.139104 1.03176808 -0.05823369
v 0.12245838 1.03487169 -0.0807769
v 0.10223916 1.03702545 -0.0986576
v 0.07901675 1.03851378 -0.11082103
v 0.05310534 1.0393151 -0.11691787
v 0.02665003 1.03974032 -0.11848836
v -0.03710679 1.01521432 -0.12474253
v -0.0652437 1.01392936 -0.12229803
v -0.09187142 1.01220226 -0.11503022
v -0.11493679 1.01086306 -0.1016215
v -0.13448976 1.00970172 -0.08288947
v -0.15014137 1.00765013 -0.05974694
v -0.16147182 1.00351834 -0.03380915
v -0.16813567 0.99693983 -0.00615313
v -0.16920065 0.98810643 0.02176621
v -0.16341549 0.97742444 0.04853323
v -0.14954617 0.96499472 0.07302051
v -0.12777809 0.95091474 0.09443098
v -0.10024014 0.93585109 0.11191169
v -0.06328923 0.92083448 0.12521943
v 0.06313192 0.92096728 0.12521785
v 0.10001653 0.93608486 0.11211706
v 0.12732669 0.95121198 0.09489675
v 0.14865607 0.96527367 0.07360331
v 0.16243495 0.97763967 0.04884903
v 0.16827225 0.9883055 0.02159598
v 0.16719713 0.99721521 -0.00700526
v 0.16019943 1.00404369 -0.03550128
v 0.14795516 1.00869691 -0.06246566
v 0.13086839 1.01159143 -0.08668214
v 0.10958138 1.0135281 -0.1064528
v 0.08477132 1.01472556 -0.11996273
v 0.05699608 1.01519501 -0.12640292
v 0.02862372 1.01542353 -0.12734542
v -0.03965315 0.9913522 -0.13352552
v -0.06990793 0.99025243 -0.13183857
v -0.09830109 0.98852354 -0.12422879
v -0.12261755 0.98719918 -0.10925937
v -0.1429329 0.98618924 -0.08851483
v -0.15885478 0.98437821 -0.06364682
v -0.17016923 0.98053151 -0.03651176
v -0.17671063 0.97432023 -0.00803315
v -0.17745736 0.96584987 0.02053779
v -0.1710205 0.95534014 0.0478242
v -0.15584397 0.94248861 0.07269237
v -0.132573 0.92726188 0.09432014
v -0.1035948 0.91039145 0.11186463
v -0.06530878 0.89330464 0.12497161
v 0.06480412 0.89365643 0.1247156
v 0.10332714 0.91087484 0.11181447
v 0.13215406 0.92768555 0.09481481
v 0.15482522 0.94279313 0.07341923
v 0.1696105 0.95546054 0.04826086
v 0.17613075 0.96594458 0.02043701
v 0.17548023 0.97451371 -0.00886069
v 0.16882138 0.98105734 -0.03818661
v 0.15666566 0.98550248 -0.06623673
v 0.13919496 0.98815941 -0.09186757
v 0.11690931 0.98976892 -0.11330522
v 0.09060365 0.99063462 -0.12812158
v 0.06100772 0.99083977 -0.13509053
v 0.03071327 0.99100112 -0.13567765
v -0.04157842 0.9673891 -0.13966439
v -0.07344588 0.96640175 -0.1383488
v -0.10327316 0.96468341 -0.13039945
v -0.1286714 0.96335899 -0.11432472
v -0.14966328 0.96240395 -0.09214812
v -0.1658625 0.96068924 -0.06608543
v -0.17721734 0.95699542 -0.03815287
v -0.18362277 0.95099872 -0.00916019
v -0.18398651 0.94273269 0.01980913
v -0.17688882 0.93229818 0.04742004
v -0.16068269 0.91915148 0.07252573
v -0.13639871 0.90324509 0.09427569
v -0.10625033 0.88531976 0.11183563
v -0.0722643 0.86699307 0.1251187
v 0.07132004 0.86777323 0.1247532
v 0.10582846 0.88604331 0.11148578
v 0.13594061 0.90373408 0.09470593
v 0.15962293 0.91946065 0.07330334
v 0.17522841 0.93234932 0.04791199
v 0.18241778 0.94275772 0.01974339
v 0.18218734 0.95113438 -0.0099761
v 0.17580081 0.95751768 -0.03980662
v 0.16369263 0.96184968 -0.06852278
v 0.14590469 0.96435427 -0.0950193
v 0.122815 0.96568489 -0.11751613
v 0.09531625 0.96630054 -0.13321404
v 0.06426789 0.96639019 -0.14073091
v 0.03245585 0.96661222 -0.14135149
v -0.0137096 1.03987669 -0.11685717
v 0.0057707 1.03991758 -0.11773653
v -0.01441766 1.01567113 -0.12499281
v 0.00613068 1.01558482 -0.12585692
v -0.01510765 0.99154341 -0.13290184
v 0.0065709 0.99123996 -0.13362813
v -0.01561463 0.96742856 -0.13846571
v 0.00700536 0.96697038 -0.13905426
v -0.06223149 1.04004907 -0.12322886
v -0.03538115 1.04134643 -0.12636485
v -0.08821402 1.0384581 -0.11591481
v -0.11144749 1.03726339 -0.10302739
v -0.131904 1.03617 -0.0846344
v -0.14886522 1.03401517 -0.06104534
v -0.1614152 1.02957367 -0.0338657
v -0.1689586 1.02243912 -0.00454988
v -0.17062379 1.01293087 0.02514098
v -0.1651189 1.00162291 0.05369354
v -0.15138061 0.98903018 0.07983623
v -0.12946702 0.9755879 0.10260053
v -0.1016142 0.96202689 0.12106487
v -0.06416817 0.94906824 0.13508413
v 0.06392772 0.94913542 0.13511385
v 0.10113321 0.96215641 0.1212988
v 0.12859498 0.97577309 0.10306839
v 0.15003265 0.98920893 0.08043175
v 0.16384334 1.0017879 0.05403099
v 0.16952444 1.0131061 0.0249865
v 0.16801242 1.02272748 -0.00540052
v 0.16014237 1.03009784 -0.03556118
v 0.14672793 1.03500306 -0.06381118
v 0.1284607 1.0379095 -0.08859466
v 0.1064465 1.03974151 -0.10809467
v 0.08164157 1.04091286 -0.12114649
v 0.05454011 1.04147565 -0.12752354
v 0.02730013 1.04177546 -0.12902474
v -0.06758111 1.01303327 -0.13388913
v -0.03829982 1.01420676 -0.13615369
v -0.09560001 1.01141762 -0.1262608
v -0.12031634 1.01029539 -0.11167673
v -0.14169368 1.00943005 -0.09100043
v -0.15898226 1.00758373 -0.06533531
v -0.17152701 1.00343954 -0.03671383
v -0.17896114 0.99664121 -0.00648216
v -0.18028858 0.98742586 0.02385572
v -0.17408913 0.9762116 0.0528979
v -0.15894192 0.96309649 0.07940953
v -0.13528037 0.94829702 0.10242559
v -0.10571869 0.93259716 0.12097637
v -0.06661319 0.91714966 0.13477931
v 0.06590336 0.91745507 0.13452494
v 0.10504548 0.93299597 0.12094039
v 0.1343062 0.94863104 0.10295903
v 0.15736666 0.96335923 0.08022341
v 0.1724208 0.9763816 0.05342713
v 0.17886759 0.98758465 0.02382135
v 0.17778475 0.99690145 -0.00728949
v 0.17020633 1.00399828 -0.03842124
v 0.15681384 1.00872576 -0.06808675
v 0.13802224 1.0114324 -0.09475884
v 0.11477359 1.01299619 -0.11637758
v 0.08817721 1.01383364 -0.13094085
v 0.05898957 1.01407325 -0.13775438
v 0.02957988 1.01422739 -0.13861979
v -0.0751798 0.96810078 -0.14860832
v -0.04237603 0.96911382 -0.14996136
v -0.10632354 0.96652251 -0.14035542
v -0.13347047 0.96551835 -0.12340877
v -0.15643844 0.96493727 -0.09961651
v -0.17436686 0.96349239 -0.07124458
v -0.18683151 0.9598422 -0.04071006
v -0.19369597 0.95366555 -0.00919008
v -0.19400222 0.9450677 0.0221651
v -0.18628294 0.93418055 0.05202244
v -0.16887605 0.92052578 0.07911099
v -0.1430071 0.90414196 0.10239481
v -0.11120832 0.88583743 0.12100013
v -0.07549641 0.86719691 0.13498155
v 0.07448507 0.8679856 0.13469758
v 0.11066467 0.88655048 0.12066593
v 0.1423971 0.90463191 0.10285559
v 0.16761483 0.92084032 0.0799475
v 0.18447141 0.93425107 0.05257218
v 0.19235631 0.94511622 0.02213315
v 0.19227981 0.95383787 -0.00999416
v 0.1854365 0.96039199 -0.04237546
v 0.17219364 0.96469396 -0.07372016
v 0.15265329 0.9669823 -0.10254547
v 0.12756624 0.96802014 -0.12670199
v 0.09830279 0.96837896 -0.14329117
v 0.06594158 0.96830987 -0.15112766
v 0.03321107 0.96847087 -0.1517539
v -0.01395443 1.0418955 -0.1272526
v 0.0059265 1.04191231 -0.12813219
v -0.01477102 1.01455545 -0.13611143
v 0.00636331 1.01439392 -0.1369282
v -0.01582855 0.96922349 -0.14874446
v 0.00719139 0.96880495 -0.14936703
v -0.00025473 0.94030547 0.14301848
v -0.00018279 0.94019603 0.13288983
v -0.00058849 0.90667986 0.14240858
v -0.00024847 0.9105004 0.13275475
v -0.00052439 0.88155889 0.13223685
v -0.00092119 0.85487341 0.14187319
v -0.0008791 0.85480999 0.13166096
v -0.08388158 0.81655734 0.12987582
v -0.08114603 0.8165102 0.11998314
v -0.00137374 0.8033443 0.13964881
v -0.00133199 0.80330985 0.12939266
v 0.0816971 0.81857013 0.13512909
v 0.07897502 0.81843054 0.12483708
v -0.079906 0.83489 0.118624
v -0.0991 0.71486902 0.11698599
v -0.08331887 0.83554434 0.13071602
v -0.10589488 0.71224349 0.13016426
v -0.00097009 0.8155291 0.14752629
v -0.000515 0.815521 0.134808
v -0.001072 0.689686 0.14948199
v -0.000542 0.69040399 0.13481199
v -0.137088 0.57907497 0.12418399
v -0.131334 0.58382201 0.110274
v -0.00106199 0.52999001 0.147319
v -0.000532 0.535878 0.132649
v -0.001044 0.79913598 0.149477
v -0.08603599 0.81981098 0.132437
v -0.000518 0.79922598 0.134808
v -0.08240599 0.81925898 0.11841099
v -0.001143 0.81555402 0.15226
v -0.001147 0.79916501 0.152261
v -0.089382 0.82030898 0.134568
v -0.08667799 0.83607298 0.13480199
v -0.084388 0.81965798 0.115207
v -0.00041599 0.79919999 0.132024
v -0.000413 0.81549501 0.132024
v -0.08188799 0.83529001 0.11541999
v -0.00053431 0.57366228 0.13317787
v -0.12345217 0.61586493 0.11191538
v -0.001063 0.54911297 0.147578
v -0.12902003 0.61219716 0.12581975
v -0.07551147 0.70901358 0.12125231
v -0.09403336 0.60576438 0.11700439
v -0.06360965 0.83075416 0.13473942
v -0.06090458 0.83025431 0.12249729
v -0.10002796 0.57234686 0.11562928
v -0.10453186 0.56732738 0.12972107
v -0.09255 0.71174997 0.13295899
v -0.118339 0.59012198 0.127516
v -0.07651399 0.81749498 0.13434599
v -0.0628068 0.81446397 0.12233536
v -0.06826378 0.81524831 0.1388024
v -0.06620633 0.83116197 0.13898038
v -0.06238813 0.83055216 0.11939378
v -0.06429034 0.81476163 0.11923185
v -0.00114499 0.52998799 0.148502
v -0.001146 0.549111 0.148761
v -0.12205 0.573565 0.127938
v -0.137289 0.57906597 0.125346
v -0.13334099 0.59528797 0.126147
v -0.118542 0.59011197 0.12867799
v -0.10610538 0.71224868 0.13132527
v -0.09436044 0.709149 0.13345456
v -0.08625099 0.81983 0.133597
v -0.076729 0.817514 0.135506
v 0.08251318 0.83489 0.11870594
v 0.10170718 0.71486902 0.11706794
v 0.08592605 0.83554434 0.13079796
v 0.10850206 0.71224349 0.1302462
v 0.00357727 0.8155291 0.14760823
v 0.00312217 0.815521 0.13488994
v 0.00367917 0.689686 0.14956393
v 0.00314917 0.69040399 0.13489393
v 0.13969518 0.57907497 0.12426593
v 0.13394118 0.58382201 0.11035594
v 0.00366917 0.52999001 0.14740094
v 0.00313917 0.535878 0.13273094
v 0.00365117 0.79913598 0.14955894
v 0.08864317 0.81981098 0.13251894
v 0.00312517 0.79922598 0.13488994
v 0.08501318 0.81925898 0.11849293
v 0.00375017 0.81555402 0.15234194
v 0.00375417 0.79916501 0.15234294
v 0.09198918 0.82030898 0.13464994
v 0.08928518 0.83607298 0.13488394
v 0.08699518 0.81965798 0.11528894
v 0.00302317 0.79919999 0.13210594
v 0.00302017 0.81549501 0.13210594
v 0.08449517 0.83529001 0.11550194
v 0.00314148 0.57366228 0.13325981
v 0.12605935 0.61586493 0.11199732
v 0.00367017 0.54911297 0.14765994
v 0.13162721 0.61219716 0.12590169
v 0.07811865 0.70901358 0.12133425
v 0.09664054 0.60576438 0.11708633
v 0.06621683 0.83075416 0.13482137
v 0.06351175 0.83025431 0.12257923
v 0.10263514 0.57234686 0.11571122
v 0.10713904 0.56732738 0.12980301
v 0.09515718 0.71174997 0.13304093
v 0.12094618 0.59012198 0.12759794
v 0.07912118 0.81749498 0.13442793
v 0.06541398 0.81446397 0.1224173
v 0.07087096 0.81524831 0.13888435
v 0.06881351 0.83116197 0.13906233
v 0.06499531 0.83055216 0.11947572
v 0.06689752 0.81476163 0.11931379
v 0.00375217 0.52998799 0.14858394
v 0.00375317 0.549111 0.14884294
v 0.12465719 0.573565 0.12801994
v 0.13989618 0.57906597 0.12542794
v 0.13594818 0.59528797 0.12622894
v 0.12114918 0.59011197 0.12875993
v 0.10871256 0.71224868 0.13140721
v 0.09696762 0.709149 0.1335365
v 0.08885818 0.81983 0.13367894
v 0.07933618 0.817514 0.13558794
v -0.03173005 1.10438764 -0.10904849
v -0.05752081 1.10225105 -0.1041257
v -0.08108628 1.10000813 -0.09668338
v -0.10216255 1.09819102 -0.08563586
v -0.12069188 1.09647381 -0.07059046
v -0.136111 1.09374404 -0.05047173
v -0.14742642 1.08894336 -0.02653311
v -0.15374246 1.0815221 0.00000825
v -0.15434163 1.07179772 0.02717006
v -0.14883771 1.06058824 0.05325657
v -0.13675354 1.04866659 0.07713425
v -0.11812029 1.0364561 0.09791178
v -0.09368982 1.0244106 0.11495939
v -0.06483171 1.01340806 0.1276728
v 0.0648294 1.01340925 0.1276699
v 0.09367992 1.02441501 0.1149462
v 0.1180863 1.03647255 0.09786559
v 0.13665662 1.04871249 0.07700058
v 0.14860063 1.06070423 0.05292692
v 0.15383248 1.07205045 0.02646375
v 0.15276633 1.08200597 -0.0013241
v 0.14573407 1.0897634 -0.028765
v 0.13343159 1.09497666 -0.05380675
v 0.11678867 1.09812676 -0.0750396
v 0.09689222 1.10015642 -0.09091337
v 0.07444997 1.10205876 -0.10218105
v 0.04967868 1.1040728 -0.10899976
v 0.0229909 1.10564887 -0.11241962
v -0.03290826 1.08008599 -0.11169353
v -0.05988628 1.07799482 -0.1068988
v -0.08451452 1.07586479 -0.09944459
v -0.10657833 1.07430779 -0.08829878
v -0.1258852 1.07287156 -0.07284603
v -0.14177143 1.07043218 -0.05234416
v -0.15320862 1.06581342 -0.02795145
v -0.15935558 1.05853176 -0.00097048
v -0.15965187 1.04892504 0.02653947
v -0.15366162 1.03774941 0.05293425
v -0.14100001 1.02564322 0.07698544
v -0.1216491 1.01284539 0.09785968
v -0.09642577 0.99975603 0.11494568
v -0.06669969 0.98734396 0.12767289
v 0.06669746 0.98734581 0.12767013
v 0.09641619 0.99975997 0.1149332
v 0.12161625 1.01285922 0.09781582
v 0.14090627 1.02568495 0.07685814
v 0.15343189 1.03785479 0.05261836
v 0.15915678 1.04915678 0.02586239
v 0.15840232 1.05897569 -0.00225193
v 0.15154746 1.06656575 -0.03010476
v 0.13913217 1.07156372 -0.05554855
v 0.12205345 1.07437908 -0.07709309
v 0.10144158 1.07608056 -0.09333729
v 0.07806994 1.07768678 -0.10472264
v 0.05224476 1.07959413 -0.11164539
v 0.02431919 1.08119261 -0.11500533
v -0.03476947 1.05573022 -0.11880107
v -0.06362876 1.05373191 -0.11402873
v -0.09006806 1.05176842 -0.10624801
v -0.1137974 1.05052077 -0.094408
v -0.13425268 1.04937624 -0.07783998
v -0.15059593 1.04723262 -0.05622748
v -0.16184876 1.04287636 -0.03079439
v -0.16736924 1.03589141 -0.00293494
v -0.16685397 1.02653956 0.02528014
v -0.15988132 1.01550018 0.05225035
v -0.14620991 1.00308895 0.07667134
v -0.12584565 0.98919946 0.09775772
v -0.09967062 0.97417861 0.1149284
v -0.06893864 0.95937645 0.12767307
v 0.06893663 0.9593783 0.12767072
v 0.09966188 0.97418171 0.11491743
v 0.12581536 0.98921048 0.09771869
v 0.14612284 1.00312244 0.07655681
v 0.15966631 1.0155878 0.05196417
v 0.16638764 1.02673113 0.02465872
v 0.16646041 1.03626453 -0.00412127
v 0.16024717 1.04351174 -0.03280253
v 0.14803868 1.04818975 -0.05916514
v 0.13059043 1.05062985 -0.08166035
v 0.10896264 1.05194962 -0.09892636
v 0.08404463 1.05319154 -0.11101282
v 0.05643234 1.05493366 -0.11847195
v 0.02651717 1.05655372 -0.12196627
v -0.03668795 1.0313431 -0.12635189
v -0.06749153 1.0294379 -0.12164215
v -0.09583827 1.02766609 -0.11357545
v -0.12126182 1.02670824 -0.10084612
v -0.14291024 1.02587556 -0.08295276
v -0.15973125 1.02400064 -0.06012453
v -0.17076005 1.01988875 -0.03358183
v -0.17559571 1.01316368 -0.00488326
v -0.17419707 1.00406289 0.02403884
v -0.1662023 0.99315512 0.05156849
v -0.15147347 0.98040938 0.07635974
v -0.13006603 0.96547108 0.09765541
v -0.10292239 0.94857466 0.11491235
v -0.07117858 0.93149805 0.12767338
v 0.07117684 0.93149834 0.12767145
v 0.10291472 0.94857651 0.11490328
v 0.13003905 0.96547842 0.09762241
v 0.15139578 0.98043304 0.07626098
v 0.16600665 0.99321907 0.05131735
v 0.17376399 1.00420963 0.02348482
v 0.17474113 1.0134536 -0.00595525
v 0.16923099 1.02038395 -0.035416
v 0.15728144 1.024755 -0.06271086
v 0.13949979 1.02683115 -0.08618737
v 0.11689619 1.02771961 -0.10465195
v 0.09048969 1.02858698 -0.11765001
v 0.06100699 1.03012645 -0.12573507
v 0.02894635 1.03180396 -0.12935839
v -0.03808249 1.00702035 -0.13090735
v -0.07026639 1.00521922 -0.12615531
v -0.10003466 1.00356102 -0.1178459
v -0.12667468 1.0026915 -0.10445419
v -0.14916524 1.00193929 -0.08564606
v -0.16635233 1.00011396 -0.0620714
v -0.17731568 0.99611157 -0.03488361
v -0.1818052 0.9895215 -0.00579215
v -0.17986333 0.98055917 0.02344439
v -0.17115339 0.96972012 0.05123502
v -0.15567106 0.95677548 0.07620095
v -0.13349041 0.94131583 0.09759807
v -0.1055862 0.92359876 0.1149053
v -0.07300153 0.90561556 0.12767367
v 0.07300004 0.9056155 0.12767222
v 0.10557954 0.92360049 0.114898
v 0.13346655 0.94131994 0.09757058
v 0.15560019 0.95679038 0.07611653
v 0.17097379 0.96976435 0.0510157
v 0.17946167 0.9806658 0.02295114
v 0.18100026 0.98973804 -0.00676174
v 0.17585378 0.99648451 -0.03656374
v 0.1639976 1.00069272 -0.06435157
v 0.14596313 1.00263738 -0.08839491
v 0.12267174 1.00335228 -0.10767602
v 0.09518459 1.00407016 -0.12132467
v 0.06431454 1.00548732 -0.12991327
v 0.03073336 1.00718522 -0.13374617
v -0.01384722 1.10562717 -0.11151476
v -0.01405774 1.08129286 -0.11404258
v 0.00493942 1.08168613 -0.115244
v 0.00463145 1.10607838 -0.1127213
v -0.01423638 1.0568813 -0.12096928
v 0.00534764 1.05716145 -0.12216885
v -0.01438639 1.03241956 -0.12821549
v 0.00583889 1.0325545 -0.12942349
v -0.01454767 1.00802171 -0.13251484
v 0.00628276 1.00803494 -0.13371217
v -0.05886763 1.10348153 -0.11418096
v -0.06123267 1.08008337 -0.11682845
v -0.03349857 1.08210766 -0.12173555
v -0.03232728 1.10552239 -0.11920303
v -0.08361288 1.10144162 -0.10645069
v -0.08702818 1.07813298 -0.10907757
v -0.10627489 1.09994137 -0.09470361
v -0.11068372 1.07688868 -0.0972214
v -0.12663236 1.0986011 -0.07831221
v -0.13185845 1.07582342 -0.08039534
v -0.14369325 1.0961703 -0.0561432
v -0.14943485 1.0736345 -0.05779825
v -0.15614314 1.09148383 -0.02978287
v -0.16203104 1.06902861 -0.03093879
v -0.16302338 1.08398175 -0.00067534
v -0.1687355 1.06153202 -0.00140016
v -0.16362398 1.07402741 0.02903139
v -0.16902117 1.05155682 0.02860273
v -0.15754433 1.0624572 0.05757411
v -0.16244864 1.0398904 0.05738737
v -0.1443253 1.05007374 0.08360617
v -0.14865346 1.02721273 0.08353486
v -0.12424118 1.0373851 0.10598024
v -0.12784782 1.01386022 0.10596786
v -0.09831078 1.02493715 0.12407358
v -0.10111765 1.00032317 0.12407616
v -0.0679657 1.01364207 0.13744288
v -0.06989165 0.98759692 0.13744808
v 0.06796343 1.0136429 0.13744007
v 0.06988858 0.9875983 0.13744553
v 0.09830106 1.02494132 0.12406065
v 0.10110858 1.00032651 0.12406439
v 0.12420765 1.03740036 0.10593474
v 0.12781623 1.01387321 0.10592591
v 0.14422935 1.05011892 0.083474
v 0.14856335 1.02725255 0.08341169
v 0.1573091 1.06257176 0.05724729
v 0.16222365 1.03999245 0.05707907
v 0.16311772 1.07427847 0.02832953
v 0.16853371 1.05178391 0.02793751
v 0.16205143 1.08446359 -0.00200183
v 0.16779367 1.06197154 -0.00266609
v 0.15445694 1.09230232 -0.03200851
v 0.16038692 1.06978035 -0.03307577
v 0.14102299 1.09740591 -0.05947361
v 0.14682003 1.07477498 -0.06099103
v 0.12274217 1.10026395 -0.08276076
v 0.12806545 1.07735586 -0.0846401
v 0.10102217 1.10192287 -0.0999865
v 0.10560084 1.07870292 -0.10227479
v 0.07699571 1.10351359 -0.11196032
v 0.08064677 1.08001124 -0.11438733
v 0.05104306 1.10532486 -0.11906973
v 0.05365205 1.08173763 -0.12161954
v 0.02360194 1.10680115 -0.12258647
v 0.02495602 1.08325564 -0.12508511
v -0.06496605 1.05669796 -0.12369214
v -0.03534513 1.05865645 -0.12857304
v -0.0925403 1.05488181 -0.11562296
v -0.11786234 1.05393159 -0.10306339
v -0.14022094 1.05314791 -0.08508123
v -0.15829971 1.05121338 -0.06131241
v -0.17072638 1.04676532 -0.0333612
v -0.17678473 1.03942561 -0.00298234
v -0.17624874 1.02956199 0.0276393
v -0.16869106 1.01789867 0.05690571
v -0.1538932 1.00480675 0.08334353
v -0.13208225 0.99029141 0.1059313
v -0.10440845 0.97478437 0.12408806
v -0.07217559 0.95964521 0.13745735
v 0.07217378 0.95964682 0.13745524
v 0.10440034 0.97478699 0.12407802
v 0.13205364 0.99030119 0.10589475
v 0.1538095 1.00483787 0.08323438
v 0.16848222 1.01798188 0.05662942
v 0.17579144 1.02974832 0.02703328
v 0.17589134 1.03979396 -0.00414876
v 0.16914916 1.04740238 -0.03534894
v 0.15578134 1.05218923 -0.06423423
v 0.13662852 1.05444729 -0.08888955
v 0.11313568 1.05543243 -0.10759495
v 0.08665503 1.05639243 -0.12042395
v 0.05790847 1.05798506 -0.12820567
v 0.02719941 1.05954337 -0.1318002
v -0.06894493 1.03187477 -0.13143137
v -0.03729958 1.03375983 -0.13626572
v -0.09850198 1.0302217 -0.12307854
v -0.12564033 1.02953982 -0.10961397
v -0.14931124 1.02906036 -0.0902634
v -0.16793103 1.02742683 -0.06519587
v -0.18010437 1.02328562 -0.03604948
v -0.18539586 1.01628911 -0.00482271
v -0.18389491 1.00676071 0.02648564
v -0.17524415 0.99531024 0.05629053
v -0.15932478 0.98196256 0.08307579
v -0.13642369 0.9664703 0.10585396
v -0.10774824 0.94913756 0.124086
v -0.07447552 0.93175274 0.13746361
v 0.07447399 0.9317528 0.13746196
v 0.10774119 0.94913888 0.12407779
v 0.13639825 0.96647644 0.1058233
v 0.15925031 0.98198378 0.08298213
v 0.17505435 0.99537009 0.05604879
v 0.18347129 1.00690221 0.02594612
v 0.18455754 1.01657509 -0.00587623
v 0.17860063 1.02378571 -0.03786636
v 0.16552217 1.02820682 -0.06776758
v 0.14597752 1.03006982 -0.09349339
v 0.1213873 1.03063404 -0.11345186
v 0.09329059 1.03124666 -0.12720257
v 0.06259924 1.03266298 -0.13560755
v 0.02966891 1.03429639 -0.13933219
v -0.07189776 1.0069791 -0.13611616
v -0.03878792 1.0087279 -0.14092657
v -0.10294862 1.00544548 -0.12754277
v -0.13138844 1.00484466 -0.11338935
v -0.155961 1.00443947 -0.09305653
v -0.17496641 1.00288987 -0.0671944
v -0.18705426 0.99894362 -0.03736841
v -0.19195815 0.99219858 -0.00574585
v -0.18987326 0.98291915 0.02587727
v -0.18045957 0.97163337 0.05594416
v -0.16373513 0.95817452 0.08290904
v -0.14000804 0.94223046 0.10579185
v -0.11052504 0.92412555 0.12407994
v -0.07636948 0.90585708 0.13746589
v 0.0763682 0.90585684 0.13746467
v 0.11051907 0.9241265 0.12407378
v 0.13998614 0.94223249 0.1057679
v 0.1636693 0.95818394 0.0828337
v 0.18029069 0.97166556 0.05574459
v 0.18949122 0.98300224 0.02542126
v 0.19118437 0.99237275 -0.00665349
v 0.18563497 0.99924778 -0.03895835
v 0.17266218 1.00336754 -0.06935124
v 0.1528203 1.00500249 -0.09564846
v 0.12746071 1.00534248 -0.11643765
v 0.09819353 1.00578308 -0.1308484
v 0.0660486 1.00708746 -0.13975335
v 0.03153066 1.00878274 -0.14368878
v -0.01419369 1.08330488 -0.12412237
v -0.01399332 1.10673201 -0.12169656
v 0.00478825 1.10719025 -0.12290854
v 0.00510846 1.083714 -0.12533977
v -0.01435288 1.05982065 -0.13077212
v 0.00554074 1.06012344 -0.13200393
v -0.01449914 1.03485465 -0.13816429
v 0.00604088 1.03501522 -0.13940522
v -0.01468263 1.00969076 -0.14250451
v 0.00650029 1.0096625 -0.14367918
v -0.00031932 0.97484916 0.14825762
v -0.00031236 1.00254523 0.14825651
v -0.00026537 1.00254333 0.13801044
v -0.00027236 0.9748463 0.1380115
v -0.00032728 0.94423592 0.1482598
v -0.00027932 0.944233 0.13801363
v -0.00033522 0.91378152 0.14826101
v -0.00028527 0.91377973 0.1380148
v -0.00034318 0.8870241 0.14826217
v -0.00029221 0.88702237 0.13801601
v -0.06993372 1.03305196 -0.13778968
v -0.07281068 1.00828528 -0.14246518
v -0.03908511 1.00997722 -0.14735198
v -0.03763692 1.03482258 -0.14263096
v -0.10041414 1.03152525 -0.12925893
v -0.10477668 1.00685 -0.13368123
v -0.12876629 1.03099143 -0.11527053
v -0.13444243 1.00638794 -0.11900658
v -0.15372045 1.03067207 -0.09492869
v -0.16032519 1.00614142 -0.09770964
v -0.17342303 1.02916789 -0.06842717
v -0.18043962 1.00471687 -0.07043728
v -0.18626014 1.02505636 -0.0376243
v -0.19320671 1.00078535 -0.03896801
v -0.19177542 1.01796865 -0.00477605
v -0.19834077 0.99393141 -0.0057235
v -0.19013477 1.00824427 0.02808084
v -0.1961167 0.98443704 0.02745523
v -0.18097661 0.9965083 0.05937351
v -0.1861943 0.9728502 0.0590174
v -0.16420359 0.98283034 0.08746107
v -0.16861495 0.95905023 0.0872898
v -0.1402722 0.9670279 0.11119016
v -0.14385698 0.9427917 0.11112622
v -0.11058008 0.94945401 0.13003176
v -0.113356 0.92444324 0.1300251
v -0.07612048 0.93187624 0.14386388
v -0.07801546 0.90598207 0.14386595
v -0.00033919 0.91381526 0.15489615
v -0.00034717 0.88705807 0.15489719
v 0.07611515 0.93187606 0.14386452
v 0.07801023 0.90598094 0.1438668
v 0.11057385 0.9494546 0.13002508
v 0.11335019 0.92444413 0.13001917
v 0.14024938 0.96703106 0.11116431
v 0.14383547 0.94279331 0.11110287
v 0.16413599 0.98284256 0.08738026
v 0.16854994 0.95905894 0.08721573
v 0.18080203 0.9965496 0.05916073
v 0.18602678 0.97288125 0.05882016
v 0.18973977 1.00834775 0.0275976
v 0.19573709 0.9845196 0.02700279
v 0.19098149 1.01818335 -0.00573307
v 0.19757102 0.9941048 -0.00662671
v 0.18481662 1.02543473 -0.03929948
v 0.19179447 1.00109243 -0.0405588
v 0.17107924 1.02975642 -0.07080243
v 0.17814564 1.00519621 -0.07259775
v 0.15045827 1.03140926 -0.09790184
v 0.15721444 1.00670528 -0.10029944
v 0.12459474 1.03174257 -0.11881225
v 0.13057281 1.00688242 -0.12205608
v 0.09533114 1.032184 -0.13307149
v 0.10013482 1.00719082 -0.13698011
v 0.06372491 1.03352379 -0.14170537
v 0.06707713 1.00841772 -0.14611309
v 0.03011108 1.03514492 -0.14552322
v 0.03189002 1.01005792 -0.15012756
v 0.00611744 1.03589367 -0.14564585
v 0.006525 1.01089417 -0.15012909
v -0.01472197 1.01090955 -0.14894829
v -0.01453137 1.03580904 -0.14446887
v 0.12562476 1.03805029 0.12658996
v 0.14713965 0.92132973 0.13030241
v 0.13575349 1.04039394 0.13367463
v 0.15811027 0.92017215 0.14053519
v 0.17908473 1.04016745 0.0590545
v 0.16739599 1.03775894 0.05463462
v 0.21064297 0.92222541 0.04523545
v 0.19698979 0.92013371 0.04021681
v 0.17535226 0.78801345 0.15267254
v 0.16290946 0.79082983 0.14343534
v 0.24641336 0.77167534 0.02611044
v 0.23153705 0.7744435 0.02168867
v 0.18475474 1.025123 0.05784348
v 0.14031676 1.02543175 0.13495753
v 0.17124976 1.02244031 0.05275635
v 0.12842695 1.02284991 0.12707376
v 0.18342928 1.0410825 0.06070532
v 0.18730624 1.02567517 0.05881739
v 0.14124546 1.02569377 0.13883601
v 0.13848803 1.04106342 0.13818185
v 0.1248024 1.0222305 0.12798185
v 0.16869707 1.02189314 0.05178405
v 0.16484324 1.03721177 0.05366239
v 0.1219998 1.03743159 0.12749801
v 0.22308971 0.81006771 0.02621902
v 0.1590536 0.82273793 0.14022465
v 0.24212999 0.78970235 0.02840033
v 0.17128802 0.82097107 0.14940829
v 0.15907035 0.92104327 0.10874152
v 0.1743799 0.81970602 0.11293856
v 0.14612479 1.04033815 0.11581462
v 0.13562203 1.03798043 0.1093678
v 0.17933501 0.78690767 0.11429664
v 0.19235985 0.78410416 0.12238147
v 0.16454701 0.92273509 0.12878269
v 0.18106643 0.80253493 0.13732948
v 0.14529524 1.02539956 0.12631823
v 0.13867642 1.02275097 0.10928636
v 0.15226943 1.02568972 0.11968383
v 0.14924429 1.04106724 0.11963865
v 0.13225351 1.03737866 0.10982643
v 0.13530792 1.02214872 0.10974478
v 0.24748979 0.77188909 0.0265595
v 0.24320681 0.78991669 0.02884958
v 0.18433977 0.78636241 0.13904628
v 0.17637826 0.78819549 0.15322513
v 0.1743866 0.80433499 0.15162989
v 0.18209196 0.8027147 0.13788422
v 0.15912909 0.92036491 0.14109833
v 0.1651179 0.92004954 0.13034349
v 0.14133046 1.02563512 0.13552607
v 0.14630864 1.0256015 0.1268868
v 0.17101694 1.06825959 -0.02640317
v 0.20324219 0.95867687 -0.05885648
v 0.18305023 1.07187211 -0.0257491
v 0.21800474 0.96004617 -0.06142669
v 0.18042965 1.04103052 0.05479627
v 0.16848678 1.03845083 0.05123365
v 0.21204467 0.92312502 0.04078518
v 0.19809572 0.92083603 0.03676493
v 0.25265324 0.83948439 -0.1080657
v 0.23699922 0.84016215 -0.1064599
v 0.24780961 0.77257061 0.0216788
v 0.23263742 0.77514213 0.01825549
v 0.18614096 1.02601158 0.05344583
v 0.18912957 1.05792152 -0.02958593
v 0.17234225 1.02313387 0.04934966
v 0.17521406 1.05398953 -0.03062975
v 0.18487079 1.04200875 0.0561212
v 0.18874971 1.02660286 0.05422563
v 0.19192554 1.05942761 -0.03201226
v 0.18765915 1.07379233 -0.02757084
v 0.17269535 1.05410754 -0.03345611
v 0.16973273 1.02254879 0.04856966
v 0.16587729 1.03786552 0.05045354
v 0.16849772 1.06838071 -0.02922899
v 0.2241912 0.81076651 0.02278151
v 0.22874532 0.86913961 -0.0948199
v 0.2435268 0.79059797 0.02396687
v 0.24408659 0.86944294 -0.09612675
v 0.20201031 0.94962054 -0.03597066
v 0.2276553 0.85516983 -0.0666736
v 0.18242313 1.06448996 -0.00647145
v 0.170411 1.06112706 -0.00782124
v 0.23595555 0.82460022 -0.0766104
v 0.25149366 0.82347053 -0.07701247
v 0.21699483 0.95764708 -0.04803464
v 0.24790486 0.84703594 -0.08808066
v 0.18879465 1.05434787 -0.02028308
v 0.17452712 1.04660379 -0.01148728
v 0.19116492 1.05157244 -0.01137167
v 0.18699197 1.06618368 -0.00754046
v 0.16787053 1.06107533 -0.01015846
v 0.17198638 1.04655349 -0.01382431
v 0.24893215 0.77281564 0.02197155
v 0.24464976 0.7908433 0.02425953
v 0.25324884 0.83224266 -0.09335583
v 0.25379121 0.83974093 -0.10789121
v 0.24959635 0.85441345 -0.10204763
v 0.24904361 0.84729039 -0.08790862
v 0.21914093 0.96031689 -0.06126021
v 0.21857614 0.95563423 -0.04988524
v 0.1902631 1.05820405 -0.02942244
v 0.18992801 1.05463182 -0.02011965
v -0.12562476 1.03805029 0.12658996
v -0.14713965 0.92132973 0.13030241
v -0.13575349 1.04039394 0.13367463
v -0.15811027 0.92017215 0.14053519
v -0.17908473 1.04016745 0.0590545
v -0.16739599 1.03775894 0.05463462
v -0.21064297 0.92222541 0.04523545
v -0.19698979 0.92013371 0.04021681
v -0.17535226 0.78801345 0.15267254
v -0.16290946 0.79082983 0.14343534
v -0.24641336 0.77167534 0.02611044
v -0.23153705 0.7744435 0.02168867
v -0.18475474 1.025123 0.05784348
v -0.14031676 1.02543175 0.13495753
v -0.17124976 1.02244031 0.05275635
v -0.12842695 1.02284991 0.12707376
v -0.18342928 1.0410825 0.06070532
v -0.18730624 1.02567517 0.05881739
v -0.14124546 1.02569377 0.13883601
v -0.13848803 1.04106342 0.13818185
v -0.1248024 1.0222305 0.12798185
v -0.16869707 1.02189314 0.05178405
v -0.16484324 1.03721177 0.05366239
v -0.1219998 1.03743159 0.12749801
v -0.22308971 0.81006771 0.02621902
v -0.1590536 0.82273793 0.14022465
v -0.24212999 0.78970235 0.02840033
v -0.17128802 0.82097107 0.14940829
v -0.15907035 0.92104327 0.10874152
v -0.1743799 0.81970602 0.11293856
v -0.14612479 1.04033815 0.11581462
v -0.13562203 1.03798043 0.1093678
v -0.17933501 0.78690767 0.11429664
v -0.19235985 0.78410416 0.12238147
v -0.16454701 0.92273509 0.1287827
v -0.18106643 0.80253493 0.1373295
v -0.14529524 1.02539956 0.12631823
v -0.13867642 1.02275097 0.10928636
v -0.15226943 1.02568972 0.11968383
v -0.14924429 1.04106724 0.11963865
v -0.13225351 1.03737866 0.10982643
v -0.13530792 1.02214872 0.10974478
v -0.24748979 0.77188909 0.0265595
v -0.24320681 0.78991669 0.02884958
v -0.18433977 0.78636241 0.13904629
v -0.17637826 0.78819549 0.15322513
v -0.1743866 0.80433499 0.15162991
v -0.18209196 0.8027147 0.13788424
v -0.15912909 0.92036491 0.14109833
v -0.1651179 0.92004954 0.13034351
v -0.14133046 1.02563512 0.13552607
v -0.14630864 1.0256015 0.12688681
v -0.17101694 1.06825959 -0.02640317
v -0.20324219 0.95867687 -0.05885648
v -0.18305023 1.07187211 -0.0257491
v -0.21800474 0.96004617 -0.06142669
v -0.18042965 1.04103052 0.05479627
v -0.16848678 1.03845083 0.05123365
v -0.21204467 0.92312502 0.04078518
v -0.19809572 0.92083603 0.03676493
v -0.25265324 0.83948439 -0.1080657
v -0.23699922 0.84016215 -0.1064599
v -0.24780961 0.77257061 0.0216788
v -0.23263742 0.77514213 0.01825549
v -0.18614096 1.02601158 0.05344584
v -0.18912957 1.05792152 -0.02958593
v -0.17234225 1.02313387 0.04934966
v -0.17521406 1.05398953 -0.03062975
v -0.18487079 1.04200875 0.0561212
v -0.18874971 1.02660286 0.05422563
v -0.19192554 1.05942761 -0.03201226
v -0.18765915 1.07379233 -0.02757084
v -0.17269535 1.05410754 -0.03345611
v -0.16973273 1.02254879 0.04856966
v -0.16587729 1.03786552 0.05045353
v -0.16849772 1.06838071 -0.02922899
v -0.2241912 0.81076651 0.02278151
v -0.22874532 0.86913961 -0.0948199
v -0.2435268 0.79059797 0.02396687
v -0.24408659 0.86944294 -0.09612675
v -0.20201031 0.94962054 -0.03597066
v -0.2276553 0.85516983 -0.0666736
v -0.18242313 1.06448996 -0.00647145
v -0.170411 1.06112706 -0.00782124
v -0.23595555 0.82460022 -0.0766104
v -0.25149366 0.82347053 -0.07701247
v -0.21699483 0.95764708 -0.04803464
v -0.24790486 0.84703594 -0.08808066
v -0.18879465 1.05434787 -0.02028308
v -0.17452712 1.04660379 -0.01148728
v -0.19116492 1.05157244 -0.01137166
v -0.18699197 1.06618368 -0.00754046
v -0.16787053 1.06107533 -0.01015846
v -0.17198638 1.04655349 -0.01382431
v -0.24893215 0.77281564 0.02197156
v -0.24464976 0.7908433 0.02425953
v -0.25324884 0.83224266 -0.09335583
v -0.25379121 0.83974093 -0.10789121
v -0.24959635 0.85441345 -0.10204763
v -0.24904361 0.84729039 -0.08790862
v -0.21914093 0.96031689 -0.06126021
v -0.21857614 0.95563423 -0.04988524
v -0.1902631 1.05820405 -0.02942244
v -0.18992801 1.05463182 -0.02011965
g Group24073
f 61 58 59 60
f 2 58 61 1
f 60 59 62 63
f 3 5 6 4
f 63 62 64 65
f 5 7 8 6
f 65 64 66 67
f 7 9 10 8
f 70 68 67 69
f 11 12 9 13
f 69 71 72 70
f 12 11 14 15
f 66 73 69 67
f 10 9 12 16
f 75 74 73 66
f 17 10 16 18
f 78 76 75 77
f 19 20 17 21
f 79 74 75 76
f 22 21 17 18
f 64 77 75 66
f 8 10 17 20
f 73 74 80 81
f 16 23 24 18
f 71 69 73 81
f 15 23 16 12
f 71 81 82 72
f 15 14 25 23
f 82 81 80 83
f 25 26 24 23
f 85 84 83 80
f 27 24 26 28
f 84 86 87 83
f 29 87 86 30
f 82 83 87 88
f 31 88 87 29
f 72 82 88 89
f 32 89 88 31
f 70 72 89 90
f 33 90 89 32
f 91 68 70 90
f 34 91 90 33
f 91 92 93 68
f 36 92 91 34
f 93 65 67 68
f 35 13 9 7
f 63 65 93 60
f 5 3 35 7
f 60 93 92 61
f 1 61 92 36
f 59 94 95 62
f 4 6 37 38
f 59 58 96 94
f 39 96 58 2
f 96 97 98 94
f 41 97 96 39
f 102 99 100 101
f 43 102 101 42
f 97 101 100 98
f 42 101 97 41
f 103 95 94 98
f 46 40 38 37
f 105 104 78 103
f 47 46 19 48
f 103 98 100 105
f 46 47 44 40
f 104 105 100 99
f 48 45 44 47
f 107 104 99 106
f 49 50 45 48
f 104 107 76 78
f 48 19 21 49
f 95 103 78 77
f 37 20 19 46
f 64 62 95 77
f 8 20 37 6
f 110 108 109 106
f 53 108 110 52
f 110 106 99 102
f 52 110 102 43
f 107 106 109 111
f 49 55 54 50
f 109 112 113 111
f 54 55 56 57
f 85 79 111 113
f 27 56 55 22
f 76 107 111 79
f 21 22 55 49
f 114 112 109 108
f 51 114 108 53
f 113 112 84 85
f 56 27 28 57
f 79 85 80 74
f 22 18 24 27
f 84 112 114 86
f 30 86 114 51
f 118 115 116 117
f 4 116 115 3
f 1 118 117 2
f 122 119 120 121
f 26 119 122 28
f 30 121 120 29
f 124 123 120 119
f 29 120 123 31
f 25 124 119 26
f 126 125 123 124
f 31 123 125 32
f 14 126 124 25
f 128 127 125 126
f 32 125 127 33
f 11 128 126 14
f 130 127 128 129
f 33 127 130 34
f 13 129 128 11
f 130 129 131 132
f 35 131 129 13
f 34 130 132 36
f 115 118 132 131
f 36 132 118 1
f 3 115 131 35
f 116 133 134 117
f 38 133 116 4
f 2 117 134 39
f 134 133 135 136
f 40 135 133 38
f 39 134 136 41
f 140 137 138 139
f 42 137 140 43
f 45 139 138 44
f 136 135 138 137
f 44 138 135 40
f 41 136 137 42
f 144 141 142 143
f 54 142 141 50
f 52 144 143 53
f 144 140 139 141
f 43 140 144 52
f 50 141 139 45
f 146 143 142 145
f 53 143 146 51
f 57 145 142 54
f 122 121 146 145
f 51 146 121 30
f 28 122 145 57
f 207 206 205 204
f 148 147 207 204
f 206 209 208 205
f 149 150 152 151
f 209 211 210 208
f 151 152 154 153
f 211 213 212 210
f 153 154 156 155
f 216 215 213 214
f 157 159 155 158
f 215 216 218 217
f 158 161 160 157
f 212 213 215 219
f 156 162 158 155
f 221 212 219 220
f 163 164 162 156
f 224 223 221 222
f 165 167 163 166
f 225 222 221 220
f 168 164 163 167
f 210 212 221 223
f 154 166 163 156
f 219 227 226 220
f 162 164 170 169
f 217 227 219 215
f 161 158 162 169
f 217 218 228 227
f 161 169 171 160
f 228 229 226 227
f 171 169 170 172
f 231 226 229 230
f 173 174 172 170
f 230 229 233 232
f 175 176 232 233
f 228 234 233 229
f 177 175 233 234
f 218 235 234 228
f 178 177 234 235
f 216 236 235 218
f 179 178 235 236
f 237 236 216 214
f 180 179 236 237
f 237 214 239 238
f 182 180 237 238
f 239 214 213 211
f 181 153 155 159
f 209 206 239 211
f 151 153 181 149
f 206 207 238 239
f 147 182 238 207
f 205 208 241 240
f 150 184 183 152
f 205 240 242 204
f 185 148 204 242
f 242 240 244 243
f 187 185 242 243
f 248 247 246 245
f 189 188 247 248
f 243 244 246 247
f 188 187 243 247
f 249 244 240 241
f 192 183 184 186
f 251 249 224 250
f 193 194 165 192
f 249 251 246 244
f 192 186 190 193
f 250 245 246 251
f 194 193 190 191
f 253 252 245 250
f 195 194 191 196
f 250 224 222 253
f 194 195 167 165
f 241 223 224 249
f 183 192 165 166
f 210 223 241 208
f 154 152 183 166
f 256 252 255 254
f 199 198 256 254
f 256 248 245 252
f 198 189 248 256
f 253 257 255 252
f 195 196 200 201
f 255 257 259 258
f 200 203 202 201
f 231 259 257 225
f 173 168 201 202
f 222 225 257 253
f 167 195 201 168
f 260 254 255 258
f 197 199 254 260
f 259 231 230 258
f 202 203 174 173
f 225 220 226 231
f 168 173 170 164
f 230 232 260 258
f 176 197 260 232
f 264 263 262 261
f 150 149 261 262
f 147 148 263 264
f 268 267 266 265
f 172 174 268 265
f 176 175 266 267
f 270 265 266 269
f 175 177 269 266
f 171 172 265 270
f 272 270 269 271
f 177 178 271 269
f 160 171 270 272
f 274 272 271 273
f 178 179 273 271
f 157 160 272 274
f 276 275 274 273
f 179 180 276 273
f 159 157 274 275
f 276 278 277 275
f 181 159 275 277
f 180 182 278 276
f 261 277 278 264
f 182 147 264 278
f 149 181 277 261
f 262 263 280 279
f 184 150 262 279
f 148 185 280 263
f 280 282 281 279
f 186 184 279 281
f 185 187 282 280
f 286 285 284 283
f 188 189 286 283
f 191 190 284 285
f 282 283 284 281
f 190 186 281 284
f 187 188 283 282
f 290 289 288 287
f 200 196 287 288
f 198 199 289 290
f 290 287 285 286
f 189 198 290 286
f 196 191 285 287
f 292 291 288 289
f 199 197 292 289
f 203 200 288 291
f 268 291 292 267
f 197 176 267 292
f 174 203 291 268
f 353 350 351 352
f 294 350 353 293
f 352 351 354 355
f 295 297 298 296
f 355 354 356 357
f 297 299 300 298
f 357 356 358 359
f 299 301 302 300
f 362 360 359 361
f 303 304 301 305
f 361 363 364 362
f 304 303 306 307
f 358 365 361 359
f 302 301 304 308
f 367 366 365 358
f 309 302 308 310
f 370 368 367 369
f 311 312 309 313
f 371 366 367 368
f 314 313 309 310
f 356 369 367 358
f 300 302 309 312
f 365 366 372 373
f 308 315 316 310
f 363 361 365 373
f 307 315 308 304
f 363 373 374 364
f 307 306 317 315
f 374 373 372 375
f 317 318 316 315
f 377 376 375 372
f 319 316 318 320
f 376 378 379 375
f 321 379 378 322
f 374 375 379 380
f 323 380 379 321
f 364 374 380 381
f 324 381 380 323
f 362 364 381 382
f 325 382 381 324
f 383 360 362 382
f 326 383 382 325
f 383 384 385 360
f 328 384 383 326
f 385 357 359 360
f 327 305 301 299
f 355 357 385 352
f 297 295 327 299
f 352 385 384 353
f 293 353 384 328
f 351 386 387 354
f 296 298 329 330
f 351 350 388 386
f 331 388 350 294
f 388 389 390 386
f 333 389 388 331
f 394 391 392 393
f 335 394 393 334
f 389 393 392 390
f 334 393 389 333
f 395 387 386 390
f 338 332 330 329
f 397 396 370 395
f 339 338 311 340
f 395 390 392 397
f 338 339 336 332
f 396 397 392 391
f 340 337 336 339
f 399 396 391 398
f 341 342 337 340
f 396 399 368 370
f 340 311 313 341
f 387 395 370 369
f 329 312 311 338
f 356 354 387 369
f 300 312 329 298
f 402 400 401 398
f 345 400 402 344
f 402 398 391 394
f 344 402 394 335
f 399 398 401 403
f 341 347 346 342
f 401 404 405 403
f 346 347 348 349
f 377 371 403 405
f 319 348 347 314
f 368 399 403 371
f 313 314 347 341
f 406 404 401 400
f 343 406 400 345
f 405 404 376 377
f 348 319 320 349
f 371 377 372 366
f 314 310 316 319
f 376 404 406 378
f 322 378 406 343
f 410 407 408 409
f 296 408 407 295
f 293 410 409 294
f 414 411 412 413
f 318 411 414 320
f 322 413 412 321
f 416 415 412 411
f 321 412 415 323
f 317 416 411 318
f 418 417 415 416
f 323 415 417 324
f 306 418 416 317
f 420 419 417 418
f 324 417 419 325
f 303 420 418 306
f 422 419 420 421
f 325 419 422 326
f 305 421 420 303
f 422 421 423 424
f 327 423 421 305
f 326 422 424 328
f 407 410 424 423
f 328 424 410 293
f 295 407 423 327
f 408 425 426 409
f 330 425 408 296
f 294 409 426 331
f 426 425 427 428
f 332 427 425 330
f 331 426 428 333
f 432 429 430 431
f 334 429 432 335
f 337 431 430 336
f 428 427 430 429
f 336 430 427 332
f 333 428 429 334
f 436 433 434 435
f 346 434 433 342
f 344 436 435 345
f 436 432 431 433
f 335 432 436 344
f 342 433 431 337
f 438 435 434 437
f 345 435 438 343
f 349 437 434 346
f 414 413 438 437
f 343 438 413 322
f 320 414 437 349
g Group26947
f 560 588 587 559
f 439 440 468 467
f 559 587 589 561
f 440 441 469 468
f 561 589 590 562
f 441 442 470 469
f 562 590 591 563
f 442 443 471 470
f 563 591 592 564
f 443 444 472 471
f 564 592 593 565
f 444 445 473 472
f 565 593 594 566
f 445 446 474 473
f 566 594 595 567
f 446 447 475 474
f 567 595 596 568
f 447 448 476 475
f 568 596 597 569
f 448 449 477 476
f 569 597 598 570
f 449 450 478 477
f 570 598 599 571
f 450 451 479 478
f 571 599 600 572
f 451 452 480 479
f 572 600 651 649
f 452 650 652 480
f 649 651 601 573
f 650 453 481 652
f 573 601 602 574
f 453 454 482 481
f 574 602 603 575
f 454 455 483 482
f 575 603 604 576
f 455 456 484 483
f 576 604 605 577
f 456 457 485 484
f 577 605 606 578
f 457 458 486 485
f 578 606 607 579
f 458 459 487 486
f 579 607 608 580
f 459 460 488 487
f 580 608 609 581
f 460 461 489 488
f 581 609 610 582
f 461 462 490 489
f 582 610 611 583
f 462 463 491 490
f 583 611 612 584
f 463 464 492 491
f 584 612 613 585
f 464 465 493 492
f 585 613 614 586
f 465 466 494 493
f 588 616 615 587
f 467 468 496 495
f 587 615 617 589
f 468 469 497 496
f 589 617 618 590
f 469 470 498 497
f 590 618 619 591
f 470 471 499 498
f 591 619 620 592
f 471 472 500 499
f 592 620 621 593
f 472 473 501 500
f 593 621 622 594
f 473 474 502 501
f 594 622 623 595
f 474 475 503 502
f 595 623 624 596
f 475 476 504 503
f 596 624 625 597
f 476 477 505 504
f 597 625 626 598
f 477 478 506 505
f 598 626 627 599
f 478 479 507 506
f 599 627 628 600
f 479 480 508 507
f 600 628 654 651
f 480 652 653 508
f 651 654 629 601
f 652 481 509 653
f 601 629 630 602
f 481 482 510 509
f 602 630 631 603
f 482 483 511 510
f 603 631 632 604
f 483 484 512 511
f 604 632 633 605
f 484 485 513 512
f 605 633 634 606
f 485 486 514 513
f 606 634 635 607
f 486 487 515 514
f 607 635 636 608
f 487 488 516 515
f 608 636 637 609
f 488 489 517 516
f 609 637 638 610
f 489 490 518 517
f 610 638 639 611
f 490 491 519 518
f 611 639 640 612
f 491 492 520 519
f 612 640 641 613
f 492 493 521 520
f 613 641 642 614
f 493 494 522 521
f 572 649 650 452
f 523 524 615 616
f 495 496 524 523
f 571 572 452 451
f 524 525 617 615
f 496 497 525 524
f 570 571 451 450
f 525 526 618 617
f 497 498 526 525
f 569 570 450 449
f 526 527 619 618
f 498 499 527 526
f 568 569 449 448
f 527 528 620 619
f 499 500 528 527
f 567 568 448 447
f 528 529 621 620
f 500 501 529 528
f 566 567 447 446
f 529 530 622 621
f 501 502 530 529
f 565 566 446 445
f 530 531 623 622
f 502 503 531 530
f 564 565 445 444
f 531 532 624 623
f 503 504 532 531
f 563 564 444 443
f 532 533 625 624
f 504 505 533 532
f 562 563 443 442
f 533 534 626 625
f 505 506 534 533
f 561 562 442 441
f 534 535 627 626
f 506 507 535 534
f 559 561 441 440
f 507 508 536 535
f 560 559 440 439
f 508 653 655 536
f 643 560 439 551
f 653 509 537 655
f 644 643 551 552
f 509 510 538 537
f 586 644 552 466
f 538 539 631 630
f 510 511 539 538
f 585 586 466 465
f 539 540 632 631
f 511 512 540 539
f 584 585 465 464
f 540 541 633 632
f 512 513 541 540
f 583 584 464 463
f 541 542 634 633
f 513 514 542 541
f 582 583 463 462
f 542 543 635 634
f 514 515 543 542
f 581 582 462 461
f 543 544 636 635
f 515 516 544 543
f 580 581 461 460
f 544 545 637 636
f 516 517 545 544
f 579 580 460 459
f 545 546 638 637
f 517 518 546 545
f 578 579 459 458
f 546 547 639 638
f 518 519 547 546
f 577 578 458 457
f 547 548 640 639
f 519 520 548 547
f 576 577 457 456
f 548 549 641 640
f 520 521 549 548
f 575 576 456 455
f 549 550 642 641
f 521 522 550 549
f 466 552 554 494
f 586 614 646 644
f 551 439 467 553
f 522 556 558 550
f 550 558 648 642
f 574 575 455 454
f 643 645 588 560
f 555 495 523 557
f 557 523 616 647
f 573 574 454 453
f 494 554 556 522
f 614 642 648 646
f 553 467 495 555
f 645 647 616 588
f 556 555 557 558
f 558 557 647 648
f 649 573 453 650
f 554 553 555 556
f 646 648 647 645
f 552 551 553 554
f 644 646 645 643
f 657 659 658 656
f 654 628 656 658
f 536 655 659 657
f 659 661 660 658
f 629 654 658 660
f 655 537 661 659
f 629 660 661 537
f 630 629 537 538
f 656 628 536 657
f 628 627 535 536
g Group55545
f 663 690 691 687
g Group55542
f 664 692 693 662
g Group55545
f 670 689 687 671
f 671 694 695 670
g Group26852
f 668 696 697 688
g Group55545
f 677 699 690 663
f 675 677 663 665
g Group55542
f 681 680 700 701
f 666 692 701 678
f 685 702 703 682
f 676 699 703 683
f 662 693 702 685
f 681 685 682 680
f 677 675 680 682
f 664 662 685 681
g Group55545
f 687 691 694 671
f 689 665 663 687
g Group26852
f 690 669 686 691
g Group55542
f 692 666 667 693
g Group55545
f 694 673 672 695
g Group26852
f 698 696 668 674
f 699 676 669 690
g Group55542
f 701 700 679 678
f 692 664 681 701
f 698 674 679 700
f 702 684 683 703
f 699 677 682 703
f 693 667 684 702
g Group55545
f 691 686 673 694
g Group55542
f 698 700 680 675
g Group55545
f 709 708 707 706
f 670 695 706 707
f 689 670 707 708
f 705 709 706 704
f 695 672 704 706
f 688 697 709 705
f 709 711 710 708
f 665 689 708 710
f 697 696 711 709
f 711 713 712 710
f 675 665 710 712
f 698 675 712 713
f 696 698 713 711
f 715 739 743 742
g Group55542
f 716 714 745 744
g Group55545
f 722 723 739 741
f 723 722 747 746
g Group26852
f 720 740 749 748
g Group55545
f 729 715 742 751
f 727 717 715 729
g Group55542
f 733 753 752 732
f 718 730 753 744
f 737 734 755 754
f 728 735 755 751
f 714 737 754 745
f 733 732 734 737
f 729 734 732 727
f 716 733 737 714
g Group55545
f 739 723 746 743
f 741 739 715 717
g Group26852
f 742 743 738 721
g Group55542
f 744 745 719 718
g Group55545
f 746 747 724 725
g Group26852
f 750 726 720 748
f 751 742 721 728
g Group55542
f 753 730 731 752
f 744 753 733 716
f 750 752 731 726
f 754 755 735 736
f 751 755 734 729
f 745 754 736 719
g Group55545
f 743 746 725 738
g Group55542
f 750 727 732 752
g Group55545
f 761 758 759 760
f 722 759 758 747
f 741 760 759 722
f 757 756 758 761
f 747 758 756 724
f 740 757 761 749
f 761 760 762 763
f 717 762 760 741
f 749 761 763 748
f 763 762 764 765
f 727 764 762 717
f 750 765 764 727
f 748 763 765 750
g Group55542
f 730 678 679 731
f 718 666 678 730
f 719 667 666 718
f 736 684 667 719
f 735 683 684 736
f 728 676 683 735
g Group26852
f 721 669 676 728
f 738 686 669 721
g Group55545
f 725 673 686 738
f 724 672 673 725
f 756 704 672 724
f 757 705 704 756
f 740 688 705 757
g Group26852
f 720 668 688 740
f 726 674 668 720
g Group55542
f 731 679 674 726
g Group13374
f 919 918 917 916
g Group13377
f 767 766 919 916
g Group2588
f 766 767 795 794
g Group13374
f 916 917 921 920
g Group13377
f 768 767 916 920
g Group2588
f 767 768 796 795
g Group13374
f 920 921 923 922
g Group13377
f 769 768 920 922
g Group2588
f 768 769 797 796
g Group13374
f 922 923 925 924
g Group13377
f 770 769 922 924
g Group2588
f 769 770 798 797
g Group13374
f 924 925 927 926
g Group13377
f 771 770 924 926
g Group2588
f 770 771 799 798
g Group13374
f 926 927 929 928
g Group13377
f 772 771 926 928
g Group2588
f 771 772 800 799
g Group13374
f 928 929 931 930
g Group13377
f 773 772 928 930
g Group2588
f 772 773 801 800
g Group13374
f 930 931 933 932
g Group13377
f 774 773 930 932
g Group2588
f 773 774 802 801
g Group13374
f 932 933 935 934
g Group13377
f 775 774 932 934
g Group2588
f 774 775 803 802
g Group13374
f 934 935 937 936
g Group13377
f 776 775 934 936
g Group2588
f 775 776 804 803
g Group13374
f 936 937 939 938
g Group13377
f 777 776 936 938
g Group2588
f 776 777 805 804
g Group13374
f 938 939 941 940
g Group13377
f 778 777 938 940
g Group2588
f 777 778 806 805
g Group13374
f 940 941 943 942
g Group13377
f 779 778 940 942
g Group2588
f 778 779 807 806
g Group13374
f 942 943 1066 1067
g Group13377
f 1068 779 942 1067
g Group2588
f 779 1068 1069 807
g Group13374
f 1067 1066 945 944
g Group13377
f 780 1068 1067 944
g Group2588
f 1068 780 808 1069
g Group13374
f 944 945 947 946
g Group13377
f 781 780 944 946
g Group2588
f 780 781 809 808
g Group13374
f 946 947 949 948
g Group13377
f 782 781 946 948
g Group2588
f 781 782 810 809
g Group13374
f 948 949 951 950
g Group13377
f 783 782 948 950
g Group2588
f 782 783 811 810
g Group13374
f 950 951 953 952
g Group13377
f 784 783 950 952
g Group2588
f 783 784 812 811
g Group13374
f 952 953 955 954
g Group13377
f 785 784 952 954
g Group2588
f 784 785 813 812
g Group13374
f 954 955 957 956
g Group13377
f 786 785 954 956
g Group2588
f 785 786 814 813
g Group13374
f 956 957 959 958
g Group13377
f 787 786 956 958
g Group2588
f 786 787 815 814
g Group13374
f 958 959 961 960
g Group13377
f 788 787 958 960
g Group2588
f 787 788 816 815
g Group13374
f 960 961 963 962
g Group13377
f 789 788 960 962
g Group2588
f 788 789 817 816
g Group13374
f 962 963 965 964
g Group13377
f 790 789 962 964
g Group2588
f 789 790 818 817
g Group13374
f 964 965 967 966
g Group13377
f 791 790 964 966
g Group2588
f 790 791 819 818
g Group13374
f 966 967 969 968
g Group13377
f 792 791 966 968
g Group2588
f 791 792 820 819
g Group13374
f 968 969 971 970
g Group13377
f 793 792 968 970
g Group2588
f 792 793 821 820
g Group13374
f 918 973 972 917
g Group2588
f 794 795 823 822
g Group13374
f 917 972 974 921
g Group2588
f 795 796 824 823
g Group13374
f 921 974 975 923
g Group2588
f 796 797 825 824
g Group13374
f 923 975 976 925
g Group2588
f 797 798 826 825
g Group13374
f 925 976 977 927
g Group2588
f 798 799 827 826
g Group13374
f 927 977 978 929
g Group2588
f 799 800 828 827
g Group13374
f 929 978 979 931
g Group2588
f 800 801 829 828
g Group13374
f 931 979 980 933
g Group2588
f 801 802 830 829
g Group13374
f 933 980 981 935
g Group2588
f 802 803 831 830
g Group13374
f 935 981 982 937
g Group2588
f 803 804 832 831
g Group13374
f 937 982 983 939
g Group2588
f 804 805 833 832
g Group13374
f 939 983 984 941
g Group2588
f 805 806 834 833
g Group13374
f 941 984 985 943
g Group2588
f 806 807 835 834
g Group13374
f 943 985 1070 1066
g Group2588
f 807 1069 1071 835
g Group13374
f 1066 1070 986 945
g Group2588
f 1069 808 836 1071
g Group13374
f 945 986 987 947
g Group2588
f 808 809 837 836
g Group13374
f 947 987 988 949
g Group2588
f 809 810 838 837
g Group13374
f 949 988 989 951
g Group2588
f 810 811 839 838
g Group13374
f 951 989 990 953
g Group2588
f 811 812 840 839
g Group13374
f 953 990 991 955
g Group2588
f 812 813 841 840
g Group13374
f 955 991 992 957
g Group2588
f 813 814 842 841
g Group13374
f 957 992 993 959
g Group2588
f 814 815 843 842
g Group13374
f 959 993 994 961
g Group2588
f 815 816 844 843
g Group13374
f 961 994 995 963
g Group2588
f 816 817 845 844
g Group13374
f 963 995 996 965
g Group2588
f 817 818 846 845
g Group13374
f 965 996 997 967
g Group2588
f 818 819 847 846
g Group13374
f 967 997 998 969
g Group2588
f 819 820 848 847
g Group13374
f 969 998 999 971
g Group2588
f 820 821 849 848
g Group13374
f 973 1001 1000 972
g Group2588
f 822 823 851 850
g Group13374
f 972 1000 1002 974
g Group2588
f 823 824 852 851
g Group13374
f 974 1002 1003 975
g Group2588
f 824 825 853 852
g Group13374
f 975 1003 1004 976
g Group2588
f 825 826 854 853
g Group13374
f 976 1004 1005 977
g Group2588
f 826 827 855 854
g Group13374
f 977 1005 1006 978
g Group2588
f 827 828 856 855
g Group13374
f 978 1006 1007 979
g Group2588
f 828 829 857 856
g Group13374
f 979 1007 1008 980
g Group2588
f 829 830 858 857
g Group13374
f 980 1008 1009 981
g Group2588
f 830 831 859 858
g Group13374
f 981 1009 1010 982
g Group2588
f 831 832 860 859
g Group13374
f 982 1010 1011 983
g Group2588
f 832 833 861 860
g Group13374
f 983 1011 1012 984
g Group2588
f 833 834 862 861
g Group13374
f 984 1012 1013 985
g Group2588
f 834 835 863 862
g Group13374
f 985 1013 1072 1070
g Group2588
f 835 1071 1073 863
g Group13374
f 1070 1072 1014 986
g Group2588
f 1071 836 864 1073
g Group13374
f 986 1014 1015 987
g Group2588
f 836 837 865 864
g Group13374
f 987 1015 1016 988
g Group2588
f 837 838 866 865
g Group13374
f 988 1016 1017 989
g Group2588
f 838 839 867 866
g Group13374
f 989 1017 1018 990
g Group2588
f 839 840 868 867
g Group13374
f 990 1018 1019 991
g Group2588
f 840 841 869 868
g Group13374
f 991 1019 1020 992
g Group2588
f 841 842 870 869
g Group13374
f 992 1020 1021 993
g Group2588
f 842 843 871 870
g Group13374
f 993 1021 1022 994
g Group2588
f 843 844 872 871
g Group13374
f 994 1022 1023 995
g Group2588
f 844 845 873 872
g Group13374
f 995 1023 1024 996
g Group2588
f 845 846 874 873
g Group13374
f 996 1024 1025 997
g Group2588
f 846 847 875 874
g Group13374
f 997 1025 1026 998
g Group2588
f 847 848 876 875
g Group13374
f 998 1026 1027 999
g Group2588
f 848 849 877 876
g Group13377
f 878 879 1028 1029
g Group2588
f 850 851 879 878
g Group13377
f 879 880 1030 1028
g Group2588
f 851 852 880 879
g Group13377
f 880 881 1031 1030
g Group2588
f 852 853 881 880
g Group13377
f 881 882 1032 1031
g Group2588
f 853 854 882 881
g Group13377
f 882 883 1033 1032
g Group2588
f 854 855 883 882
g Group13377
f 883 884 1034 1033
g Group2588
f 855 856 884 883
g Group13377
f 884 885 1035 1034
g Group2588
f 856 857 885 884
g Group13377
f 885 886 1036 1035
g Group2588
f 857 858 886 885
g Group13377
f 886 887 1037 1036
g Group2588
f 858 859 887 886
g Group13377
f 887 888 1038 1037
g Group2588
f 859 860 888 887
g Group13377
f 888 889 1039 1038
g Group2588
f 860 861 889 888
g Group13377
f 889 890 1040 1039
g Group2588
f 861 862 890 889
g Group13377
f 890 891 1041 1040
g Group2588
f 862 863 891 890
g Group13377
f 891 1075 1074 1041
g Group2588
f 863 1073 1075 891
g Group13377
f 1075 892 1042 1074
g Group2588
f 1073 864 892 1075
g Group13377
f 892 893 1043 1042
g Group2588
f 864 865 893 892
g Group13377
f 893 894 1044 1043
g Group2588
f 865 866 894 893
g Group13377
f 894 895 1045 1044
g Group2588
f 866 867 895 894
g Group13377
f 895 896 1046 1045
g Group2588
f 867 868 896 895
g Group13377
f 896 897 1047 1046
g Group2588
f 868 869 897 896
g Group13377
f 897 898 1048 1047
g Group2588
f 869 870 898 897
g Group13377
f 898 899 1049 1048
g Group2588
f 870 871 899 898
g Group13377
f 899 900 1050 1049
g Group2588
f 871 872 900 899
g Group13377
f 900 901 1051 1050
g Group2588
f 872 873 901 900
g Group13377
f 901 902 1052 1051
g Group2588
f 873 874 902 901
g Group13377
f 902 903 1053 1052
g Group2588
f 874 875 903 902
g Group13377
f 903 904 1054 1053
g Group2588
f 875 876 904 903
g Group13377
f 904 905 1055 1054
g Group2588
f 876 877 905 904
f 821 908 911 849
g Group13374
f 971 999 1061 1059
g Group2588
f 907 794 822 910
f 877 913 915 905
g Group13377
f 905 915 1065 1055
g Group13374
f 1056 1060 973 918
g Group2588
f 793 909 908 821
f 912 850 878 914
g Group13377
f 914 878 1029 1064
f 909 793 970 1058
g Group13374
f 970 971 1059 1058
g Group2588
f 849 911 913 877
f 906 766 794 907
g Group13377
f 766 906 1057 919
g Group13374
f 1057 1056 918 919
f 999 1027 1063 1061
g Group2588
f 910 822 850 912
g Group13374
f 1060 1062 1001 973
g Group2588
f 913 912 914 915
g Group13377
f 915 914 1064 1065
g Group2588
f 911 910 912 913
g Group13374
f 1061 1063 1062 1060
g Group2588
f 908 907 910 911
g Group13374
f 1059 1061 1060 1056
g Group2588
f 909 906 907 908
g Group13377
f 906 909 1058 1057
g Group13374
f 1058 1059 1056 1057
g Group29243
f 1079 1078 1077 1076
g Group29246
f 1000 1001 1079 1076
f 1029 1028 1077 1078
g Group29243
f 1076 1077 1081 1080
g Group29246
f 1002 1000 1076 1080
f 1028 1030 1081 1077
g Group29243
f 1080 1081 1083 1082
g Group29246
f 1003 1002 1080 1082
f 1030 1031 1083 1081
g Group29243
f 1082 1083 1085 1084
g Group29246
f 1004 1003 1082 1084
f 1031 1032 1085 1083
g Group29243
f 1084 1085 1087 1086
g Group29246
f 1005 1004 1084 1086
f 1032 1033 1087 1085
g Group29243
f 1086 1087 1089 1088
g Group29246
f 1006 1005 1086 1088
f 1033 1034 1089 1087
g Group29243
f 1088 1089 1091 1090
g Group29246
f 1007 1006 1088 1090
f 1034 1035 1091 1089
g Group29243
f 1090 1091 1093 1092
g Group29246
f 1008 1007 1090 1092
f 1035 1036 1093 1091
g Group29243
f 1092 1093 1095 1094
g Group29246
f 1009 1008 1092 1094
f 1036 1037 1095 1093
g Group29243
f 1094 1095 1097 1096
g Group29246
f 1010 1009 1094 1096
f 1037 1038 1097 1095
g Group29243
f 1096 1097 1099 1098
g Group29246
f 1011 1010 1096 1098
f 1038 1039 1099 1097
g Group29243
f 1098 1099 1101 1100
g Group29246
f 1012 1011 1098 1100
f 1039 1040 1101 1099
g Group29243
f 1100 1101 1103 1102
g Group29246
f 1013 1012 1100 1102
f 1040 1041 1103 1101
g Group29243
f 1102 1103 1105 1104
g Group29246
f 1072 1013 1102 1104
f 1041 1074 1105 1103
g Group29243
f 1104 1105 1107 1106
g Group29246
f 1014 1072 1104 1106
f 1074 1042 1107 1105
g Group29243
f 1106 1107 1109 1108
g Group29246
f 1015 1014 1106 1108
f 1042 1043 1109 1107
g Group29243
f 1108 1109 1111 1110
g Group29246
f 1016 1015 1108 1110
f 1043 1044 1111 1109
g Group29243
f 1110 1111 1113 1112
g Group29246
f 1017 1016 1110 1112
f 1044 1045 1113 1111
g Group29243
f 1112 1113 1115 1114
g Group29246
f 1018 1017 1112 1114
f 1045 1046 1115 1113
g Group29243
f 1114 1115 1117 1116
g Group29246
f 1019 1018 1114 1116
f 1046 1047 1117 1115
g Group29243
f 1116 1117 1119 1118
g Group29246
f 1020 1019 1116 1118
f 1047 1048 1119 1117
g Group29243
f 1118 1119 1121 1120
g Group29246
f 1021 1020 1118 1120
f 1048 1049 1121 1119
g Group29243
f 1120 1121 1123 1122
g Group29246
f 1022 1021 1120 1122
f 1049 1050 1123 1121
g Group29243
f 1122 1123 1125 1124
g Group29246
f 1023 1022 1122 1124
f 1050 1051 1125 1123
g Group29243
f 1124 1125 1127 1126
g Group29246
f 1024 1023 1124 1126
f 1051 1052 1127 1125
g Group29243
f 1126 1127 1129 1128
g Group29246
f 1025 1024 1126 1128
f 1052 1053 1129 1127
g Group29243
f 1128 1129 1131 1130
g Group29246
f 1026 1025 1128 1130
f 1053 1054 1131 1129
g Group29243
f 1130 1131 1133 1132
g Group29246
f 1027 1026 1130 1132
f 1054 1055 1133 1131
g Group29243
f 1132 1133 1135 1134
g Group29246
f 1063 1027 1132 1134
f 1055 1065 1135 1133
g Group29243
f 1137 1136 1078 1079
g Group29246
f 1001 1062 1137 1079
f 1064 1029 1078 1136
g Group29243
f 1134 1135 1136 1137
g Group29246
f 1062 1063 1134 1137
f 1065 1064 1136 1135
g Group38017
f 1139 1166 1167 1163
f 1140 1168 1169 1138
f 1146 1165 1163 1147
f 1147 1170 1171 1146
f 1144 1172 1173 1164
f 1153 1175 1166 1139
f 1151 1153 1139 1141
f 1157 1156 1176 1177
f 1142 1168 1177 1154
f 1161 1178 1179 1158
f 1152 1175 1179 1159
f 1138 1169 1178 1161
f 1157 1161 1158 1156
f 1153 1151 1156 1158
f 1140 1138 1161 1157
f 1163 1167 1170 1147
f 1165 1141 1139 1163
f 1166 1145 1162 1167
f 1168 1142 1143 1169
f 1170 1149 1148 1171
f 1174 1172 1144 1150
f 1175 1152 1145 1166
f 1177 1176 1155 1154
f 1168 1140 1157 1177
f 1174 1150 1155 1176
f 1178 1160 1159 1179
f 1175 1153 1158 1179
f 1169 1143 1160 1178
f 1167 1162 1149 1170
f 1174 1176 1156 1151
f 1185 1184 1183 1182
f 1146 1171 1182 1183
f 1165 1146 1183 1184
f 1181 1185 1182 1180
f 1171 1148 1180 1182
f 1164 1173 1185 1181
f 1185 1187 1186 1184
f 1141 1165 1184 1186
f 1173 1172 1187 1185
f 1187 1189 1188 1186
f 1151 1141 1186 1188
f 1174 1151 1188 1189
f 1172 1174 1189 1187
f 1191 1215 1219 1218
f 1192 1190 1221 1220
f 1198 1199 1215 1217
f 1199 1198 1223 1222
f 1196 1216 1225 1224
f 1205 1191 1218 1227
f 1203 1193 1191 1205
f 1209 1229 1228 1208
f 1194 1206 1229 1220
f 1213 1210 1231 1230
f 1204 1211 1231 1227
f 1190 1213 1230 1221
f 1209 1208 1210 1213
f 1205 1210 1208 1203
f 1192 1209 1213 1190
f 1215 1199 1222 1219
f 1217 1215 1191 1193
f 1218 1219 1214 1197
f 1220 1221 1195 1194
f 1222 1223 1200 1201
f 1226 1202 1196 1224
f 1227 1218 1197 1204
f 1229 1206 1207 1228
f 1220 1229 1209 1192
f 1226 1228 1207 1202
f 1230 1231 1211 1212
f 1227 1231 1210 1205
f 1221 1230 1212 1195
f 1219 1222 1201 1214
f 1226 1203 1208 1228
f 1237 1234 1235 1236
f 1198 1235 1234 1223
f 1217 1236 1235 1198
f 1233 1232 1234 1237
f 1223 1234 1232 1200
f 1216 1233 1237 1225
f 1237 1236 1238 1239
f 1193 1238 1236 1217
f 1225 1237 1239 1224
f 1239 1238 1240 1241
f 1203 1240 1238 1193
f 1226 1241 1240 1203
f 1224 1239 1241 1226
f 1206 1154 1155 1207
f 1194 1142 1154 1206
f 1195 1143 1142 1194
f 1212 1160 1143 1195
f 1211 1159 1160 1212
f 1204 1152 1159 1211
f 1197 1145 1152 1204
f 1214 1162 1145 1197
f 1201 1149 1162 1214
f 1200 1148 1149 1201
f 1232 1180 1148 1200
f 1233 1181 1180 1232
f 1216 1164 1181 1233
f 1196 1144 1164 1216
f 1202 1150 1144 1196
f 1207 1155 1150 1202
f 1243 1267 1271 1270
f 1244 1242 1273 1272
f 1250 1251 1267 1269
f 1251 1250 1275 1274
f 1248 1268 1277 1276
f 1257 1243 1270 1279
f 1255 1245 1243 1257
f 1261 1281 1280 1260
f 1246 1258 1281 1272
f 1265 1262 1283 1282
f 1256 1263 1283 1279
f 1242 1265 1282 1273
f 1261 1260 1262 1265
f 1257 1262 1260 1255
f 1244 1261 1265 1242
f 1267 1251 1274 1271
f 1269 1267 1243 1245
f 1270 1271 1266 1249
f 1272 1273 1247 1246
f 1274 1275 1252 1253
f 1278 1254 1248 1276
f 1279 1270 1249 1256
f 1281 1258 1259 1280
f 1272 1281 1261 1244
f 1278 1280 1259 1254
f 1282 1283 1263 1264
f 1279 1283 1262 1257
f 1273 1282 1264 1247
f 1271 1274 1253 1266
f 1278 1255 1260 1280
f 1289 1286 1287 1288
f 1250 1287 1286 1275
f 1269 1288 1287 1250
f 1285 1284 1286 1289
f 1275 1286 1284 1252
f 1268 1285 1289 1277
f 1289 1288 1290 1291
f 1245 1290 1288 1269
f 1277 1289 1291 1276
f 1291 1290 1292 1293
f 1255 1292 1290 1245
f 1278 1293 1292 1255
f 1276 1291 1293 1278
f 1295 1322 1323 1319
f 1296 1324 1325 1294
f 1302 1321 1319 1303
f 1303 1326 1327 1302
f 1300 1328 1329 1320
f 1309 1331 1322 1295
f 1307 1309 1295 1297
f 1313 1312 1332 1333
f 1298 1324 1333 1310
f 1317 1334 1335 1314
f 1308 1331 1335 1315
f 1294 1325 1334 1317
f 1313 1317 1314 1312
f 1309 1307 1312 1314
f 1296 1294 1317 1313
f 1319 1323 1326 1303
f 1321 1297 1295 1319
f 1322 1301 1318 1323
f 1324 1298 1299 1325
f 1326 1305 1304 1327
f 1330 1328 1300 1306
f 1331 1308 1301 1322
f 1333 1332 1311 1310
f 1324 1296 1313 1333
f 1330 1306 1311 1332
f 1334 1316 1315 1335
f 1331 1309 1314 1335
f 1325 1299 1316 1334
f 1323 1318 1305 1326
f 1330 1332 1312 1307
f 1341 1340 1339 1338
f 1302 1327 1338 1339
f 1321 1302 1339 1340
f 1337 1341 1338 1336
f 1327 1304 1336 1338
f 1320 1329 1341 1337
f 1341 1343 1342 1340
f 1297 1321 1340 1342
f 1329 1328 1343 1341
f 1343 1345 1344 1342
f 1307 1297 1342 1344
f 1330 1307 1344 1345
f 1328 1330 1345 1343
f 1310 1311 1259 1258
f 1298 1310 1258 1246
f 1299 1298 1246 1247
f 1316 1299 1247 1264
f 1315 1316 1264 1263
f 1308 1315 1263 1256
f 1301 1308 1256 1249
f 1318 1301 1249 1266
f 1305 1318 1266 1253
f 1304 1305 1253 1252
f 1336 1304 1252 1284
f 1337 1336 1284 1285
f 1320 1337 1285 1268
f 1300 1320 1268 1248
f 1306 1300 1248 1254
f 1311 1306 1254 1259

 