# File exported by ZBrush version 2021
# www.zbrush.com
#Vertex Count 525
#UV Vertex Count 887
#Face Count 527
#Auto scale x=0.047110 y=0.047110 z=0.047110
#Auto offset x=-0.029091 y=0.022900 z=-0.434581
mtllib base1.mtl
usemtl defaultMat
v 1.79855084 -0.12459333 20.67048024
v 2.57932461 -0.50655979 17.8790778
v 0.9333117 -0.06494685 20.9901641
v 0.03831744 -0.02801636 21.34818897
v -2.5389096 -0.18501233 21.14157971
v 1.55592287 -0.47387515 18.17426714
v 0.34829222 -0.45306533 18.45700679
v -3.07796366 -0.49930988 18.70967612
v 3.15848307 -0.6716811 16.27583549
v 3.62926182 -0.73390095 14.86616822
v 2.31172228 -0.7310093 14.95299471
v 1.97950206 -0.66073278 16.43672881
v 0.54108622 -0.65080754 16.62938657
v 0.67777531 -0.72679931 15.07142876
v -3.51040203 -0.71977342 15.34770697
v -3.37665448 -0.65129469 16.98739753
v 3.93384094 -0.72206694 13.3979102
v 4.04855652 -0.6291794 11.83962597
v 2.64846185 -0.62953204 11.87442944
v 2.53836366 -0.72142516 13.44991425
v 0.78758678 -0.7201703 13.52023098
v 0.88754429 -0.6297128 11.92108037
v -3.13768044 -0.63282238 12.06640778
v -3.43509846 -0.7189629 13.70353755
v 3.97797725 -0.40993762 10.31519313
v 3.7929772 -0.08534018 8.91108458
v 2.54867704 -0.08521184 8.93178978
v 2.63791788 -0.41017002 10.34149501
v 0.98312171 -0.41097023 10.37839558
v 1.07227722 -0.08584022 8.9647859
v -2.10612203 -0.09229743 9.09140714
v -2.65696914 -0.41663759 10.51385686
v 3.61527805 0.2571897 7.64978692
v 3.49037687 0.54817268 6.55209963
v 2.45747749 0.25752648 7.66659464
v 1.13487758 0.25698007 7.69599059
v 1.16207753 0.54731004 6.60599517
v 2.39247766 0.54830324 6.57270488
v -1.45382241 0.54184994 6.70972807
v -1.67922229 0.25115345 7.80531827
v 2.68817704 1.02663546 -0.84495026
v 1.73287744 1.02279775 -0.80760308
v 0.64997748 1.01721627 -0.71427718
v -2.1743227 0.99647721 -0.21081166
v 1.87587686 1.12911707 -5.17725671
v 1.02817752 1.13027253 -5.33381162
v 0.12187763 1.12780852 -5.35185355
v -2.29285163 1.07523197 -4.1833814
v 3.39847813 0.73650839 5.66162384
v 3.28937756 0.85050391 4.62104446
v 2.34107712 0.73493534 5.70460755
v 1.15747777 0.73221173 5.76147317
v 1.11207758 0.83913866 4.82179958
v 2.27217742 0.84543958 4.71257913
v -1.40302221 0.72386884 5.90796837
v -1.52632227 0.82343295 5.08209878
v 3.15097672 0.92083915 3.34342872
v 1.0388779 0.90844276 3.57377338
v 2.17887667 0.91508971 3.44935614
v -1.72502205 0.89240697 3.86977372
v 2.86757869 0.99187311 0.61516483
v 1.92087763 0.98657629 0.71699802
v 0.81437782 0.98016498 0.83631835
v -2.04252294 0.96391285 1.15231538
v 1.80683625 -1.50591739 20.78159123
v 2.57640197 -1.8925144 17.95319776
v 0.91718016 -1.4469436 21.09639137
v 0.01776279 -1.41050009 21.45593197
v -2.55988746 -1.57085713 21.23555466
v 1.54601001 -1.86016054 18.24622739
v 0.33207061 -1.83996363 18.53148481
v -3.10438889 -1.88828369 18.7684693
v 3.62941839 -2.10247221 14.8846011
v 3.16379681 -2.05101885 16.33009667
v 2.3091588 -2.10007969 14.97120872
v 0.67398205 -2.09642465 15.08862806
v 0.53152778 -2.03149899 16.6837806
v 1.97753339 -2.04061216 16.49069014
v -3.52109814 -2.09064468 15.35205297
v -3.40183601 -2.03347857 17.02299176
v 3.99506395 -2.00329217 11.75951142
v 3.90989299 -2.08892352 13.36864203
v 2.61300552 -2.0037157 11.79408463
v 0.90044361 -2.00404134 11.83966898
v 0.79227597 -2.08763031 13.4896976
v 2.5215183 -2.08851992 13.42048413
v -3.0560584 -2.00794278 11.98703718
v -3.40292093 -2.08731717 13.66887198
v 3.76377861 -1.45853358 8.75079666
v 3.92237747 -1.78697794 10.18745092
v 2.52917758 -1.45840248 8.77140255
v 1.07647718 -1.45902781 8.80429871
v 0.99558698 -1.78790692 10.25014981
v 2.60107773 -1.78721121 10.21355099
v -2.06302192 -1.46593018 8.93471243
v -2.57165837 -1.79425402 10.3905859
v 3.4853777 -0.82594866 6.37999589
v 3.6073768 -1.11503327 7.4836126
v 2.45187798 -1.11469617 7.50042095
v 2.38867759 -0.82581748 6.40060051
v 1.15727762 -0.82668083 6.43339293
v 1.13277733 -1.11523808 7.52961763
v -1.46142254 -0.83164275 6.53623386
v -1.67102213 -1.12109902 7.64044459
v 2.69257729 -1.78142002 -0.89304796
v 0.65437765 -1.78437998 -0.76237361
v 1.73727801 -1.78226455 -0.85575834
v -2.16952248 -1.79579299 -0.25876259
v 1.8793773 -1.68540112 -5.13018826
v 1.03227752 -1.67974593 -5.37974643
v 0.12657711 -1.67934185 -5.39764161
v -2.21362274 -1.70912433 -4.08327776
v 3.27097789 -0.53518626 4.36844155
v 3.38297675 -0.63341039 5.41487254
v 2.33027821 -0.63486044 5.45775725
v 2.25977723 -0.53988807 4.45978391
v 1.09797741 -0.5455818 4.56851283
v 1.14647761 -0.63721006 5.51393111
v -1.43692232 -0.64418976 5.65834567
v -1.58722202 -0.55920696 4.82674309
v 3.19527767 -1.86969914 3.63596491
v 1.05997746 -1.8759863 3.86590596
v 2.21007745 -1.87257592 3.74173671
v -1.69662213 -1.88397975 4.16063097
v 2.87307778 -1.81472769 0.5767865
v 1.92597739 -1.8170356 0.67866776
v 0.81927783 -1.81974031 0.79804566
v -2.03682253 -1.82690347 1.11408887
v 2.39308385 0.03382095 21.47308573
v 1.19460757 0.30649291 22.96332681
v 0.56998993 0.40951271 23.5909812
v -0.08921284 0.45240722 24.00229684
v -2.10169126 0.1992934 23.35274415
v -3.2672705 -0.2735835 20.92784225
v -3.83059324 -0.53642629 18.7601986
v -4.15987627 -0.66811478 17.10009636
v -4.30252143 -0.73268816 15.41642068
v -4.16644969 -0.7326778 13.72402261
v -3.78631016 -0.64673703 12.06196056
v -3.24865163 -0.43022764 10.50356815
v -2.72971319 -0.10537799 9.08281381
v -2.395022 0.23796107 7.79640801
v -2.20535078 0.5276548 6.71337568
v -2.1706947 0.70760034 5.93451634
v -2.28664387 0.80403296 5.14653766
v -3.05725845 0.97288226 0.0070776
v -2.83214672 1.06175651 -3.62980016
v -2.37432249 1.0811519 -4.3643119
v 0.07877737 1.12109119 -5.70982276
v 1.02717721 1.12382848 -5.69867876
v 1.90957738 1.12081854 -5.45508227
v 3.26167873 1.10040892 -4.43832179
v 4.28817771 1.01533395 -0.80541742
v 4.35497716 0.98472181 0.46632836
v 4.94657741 0.53371422 6.51456266
v 5.0816781 0.24235199 7.61844443
v 5.23437727 -0.10001136 8.87764563
v 5.39287745 -0.42454209 10.27885432
v 5.52155845 -0.64374307 11.80440118
v 5.5456538 -0.73673637 13.35652889
v 5.36799008 -0.74941475 14.79337546
v 4.95125996 -0.70011217 16.06946029
v 4.37292673 -0.57969257 17.3590032
v 3.46855574 -0.32034031 19.41648222
v -2.50959209 0.87257729 3.94787025
v 4.67677709 0.8425307 4.49269463
v 4.82737664 0.72413698 5.5953153
v -2.89652265 0.94350908 1.25581485
v 4.52517675 0.91346344 3.19388436
v 1.20430709 -0.78290383 23.12319152
v 2.36805952 -1.06968204 21.57910803
v -0.09003175 -0.63563768 24.18534531
v 0.57759718 -0.67862973 23.77007967
v -2.12167719 -0.89467977 23.48909614
v -3.28859503 -1.37630645 21.01278864
v -3.85342211 -1.64284125 18.80788194
v -4.32005538 -1.83863421 15.41639917
v -4.1803335 -1.77505236 17.1259687
v -3.78537643 -1.74898534 12.00002333
v -4.18113122 -1.83697298 13.69457478
v -2.74722247 -1.19953194 8.9588375
v -3.26265184 -1.52854556 10.40661362
v -2.20702212 -0.56756428 6.57832433
v -2.37942193 -0.85534359 7.67186172
v -2.34332224 -0.31682377 4.92370014
v -2.20032219 -0.38780719 5.72862066
v -3.07052294 -0.38816299 -0.0137187
v -2.85082252 -0.298855 -3.66975306
v -2.38382297 -0.27963139 -4.39678232
v 0.07917717 -0.2394577 -5.74728571
v 1.91767759 -0.23974575 -5.49174814
v 1.03147735 -0.23671842 -5.73624293
v 3.27567847 -0.26026579 -4.4701925
v 4.30557692 -0.34552583 -0.82908892
v 4.37287676 -0.37765378 0.45143807
v 5.06697696 -0.84989543 7.48951481
v 4.93427701 -0.56148964 6.37888566
v 5.38777674 -1.52201279 10.17984762
v 5.22127726 -1.1929556 8.75310567
v 5.55505496 -1.8399611 13.33584266
v 5.52489924 -1.74510635 11.74284477
v 4.96495146 -1.80567114 16.11584047
v 5.38262543 -1.85399737 14.81229798
v 3.47561057 -1.42185965 19.503706
v 4.38320469 -1.68472438 17.4224435
v -2.45982241 -0.56699166 4.34693325
v 4.80797713 -0.37296415 5.39029483
v 4.65127672 -0.28164899 4.2687412
v -2.90802217 -0.41892708 1.24362453
v 4.57067697 -0.52698776 3.59493153
v 3.23477699 -0.78517583 4.02131839
v -1.65762226 -0.8125926 4.54507729
v 1.07827758 -0.797315 4.2508669
v 2.23637775 -0.79079283 4.12664736
v 4.54077809 -1.80125824 3.78237408
v 4.5333766 -1.79860762 3.49126505
v -2.44102198 -1.82831229 4.23732786
v -2.38082188 -1.83182183 4.51892312
v 2.35933129 -1.30271867 21.56472762
v 1.17042746 -1.02210118 23.07039672
v 0.55100478 -0.91863476 23.69998688
v -0.10219741 -0.87577164 24.11191488
v -2.09401015 -1.13226033 23.45708878
v -3.25333038 -1.61115178 20.9969507
v -3.81684607 -1.87640208 18.80141038
v -4.14336525 -2.00523791 17.12163914
v -4.2794623 -2.06454761 15.41612968
v -4.13876936 -2.06264789 13.69524155
v -3.74201253 -1.97851329 12.00016124
v -3.21860092 -1.7608921 10.40382699
v -2.70222264 -1.43197851 8.95115387
v -2.33372244 -1.08732187 7.65938419
v -2.16202167 -0.79844183 6.55946253
v -2.15932233 -0.61417816 5.6956277
v -2.30622177 -0.53832094 4.89198569
v 4.88777664 -0.79244654 6.36352345
v 5.02057654 -1.08146647 7.47484214
v 5.17497679 -1.42451233 8.73783455
v 5.34197603 -1.75324088 10.16588157
v 5.47906817 -1.97362847 11.72998768
v 5.50834077 -2.06481663 13.32218215
v 5.33494019 -2.07904758 14.79555669
v 4.9222132 -2.034814 16.09987854
v 4.34539254 -1.9174984 17.41144121
v 3.44082544 -1.65619083 19.49274419
v 4.60427723 -0.50421187 4.24711017
v 4.76047725 -0.60010544 5.36489094
v 3.22797757 -1.82615178 3.92560756
v 4.34037723 -1.73164053 0.43047792
v 4.27327794 -1.70164724 -0.8507772
v 3.25027853 -1.61812247 -4.47330746
v 1.90627723 -1.59653336 -5.48404552
v 1.02877715 -1.59236638 -5.72591879
v 0.08517729 -1.59355631 -5.73674649
v -2.35522283 -1.62866755 -4.39855868
v -2.81752275 -1.64642038 -3.67850833
v -3.03412277 -1.73206217 -0.04171596
v -2.87122282 -1.7610493 1.21635223
v -1.66662235 -1.84568303 4.44979221
v 1.07557737 -1.8348207 4.15510958
v 2.23227672 -1.83021374 4.03095994
v 4.55197713 -0.76150125 3.87376673
v -2.3749222 -0.8008126 4.61107617
v 1.02925635 0.46590862 -5.71684216
v 0.07897094 0.46316912 -5.72793807
v -2.90208326 0.28467344 1.24992023
v -2.11260688 -0.33049016 23.43002841
v 3.46861015 -0.85364227 19.46308128
v -3.84083198 -1.07149959 18.78575717
v 3.26844889 0.44242627 -4.45373461
v 1.91349432 0.46288824 -5.47281296
v -2.75667297 -0.63441959 9.0202212
v 1.2050519 -0.22085071 23.063018
v -4.17622219 -1.26666453 13.70947519
v 4.37621755 -1.11458104 17.39566653
v -3.78582811 -1.17974931 12.03201044
v -2.38747817 -0.29073017 7.73618071
v 5.07456887 -0.28582787 7.55609791
v 0.58086902 -0.1175015 23.70818799
v 4.94062964 0.00410482 6.44895315
v -4.31079592 -1.26747442 15.4165434
v 2.37497391 -0.51134281 21.54318358
v -2.48554039 0.17644255 4.14084747
v -3.27663877 -0.807086 20.97567235
v -2.20702212 -0.00196195 6.64803123
v -0.08533686 -0.07488091 24.12096875
v -2.18503525 0.17789185 5.83495041
v -2.84488425 0.40392869 -3.65464135
v 5.22804298 -0.62852817 8.8174215
v 4.81799572 0.19361006 5.49617322
v -4.16870683 -1.20336664 17.11432242
v -2.37891647 0.42311778 -4.38001319
v 4.36363248 0.32591582 0.45912423
v 4.54717944 0.21690239 3.38782251
v 4.29659138 0.35726108 -0.8168657
v 4.66444506 0.29890922 4.38439842
v -2.31641622 0.26200676 5.03927734
v -3.06422218 0.31471885 -0.00288784
v 5.52357077 -1.1763307 11.77549486
v 5.55169013 -1.27022492 13.34975494
v -3.26853761 -0.96131474 10.45543376
v 4.95914666 -1.23504797 16.10048711
v 5.39041028 -0.95524788 10.23097804
v 5.37799348 -1.28360771 14.80974225
v -2.37591918 -1.30689751 4.58279929
v -2.45599198 -1.19118406 4.29138376
v 0.08143352 -0.90605293 -5.7482498
v 1.03100519 -0.90381413 -5.73731836
v -2.84006632 -0.96330492 -3.67676993
v -2.37453567 -0.94456601 -4.40165339
v 4.29586958 -1.01277244 -0.84013423
v 4.36317004 -1.04403435 0.44092731
v -2.89611208 -1.08143436 1.23112865
v 3.23357029 -1.29383576 3.99315728
v 2.23580018 -1.29888729 4.09849637
v 4.55708732 -1.15460731 3.54111633
v 4.5485155 -1.27054762 3.84612436
v 1.91452974 -0.90726057 -5.4936662
v 1.07796301 -1.30484343 4.22267195
v 3.26817481 -0.92807997 -4.47542289
v -1.66019317 -1.31862176 4.5171145
v -3.05866473 -1.0514107 -0.02674596
v 2.07203989 0.94987848 2.20384454
v 3.01775708 0.95547878 2.09586685
v -2.68763474 0.2370925 2.76739249
v -2.69128804 0.90804437 2.70708928
v -1.85392921 -1.86103765 2.7158047
v 3.03846245 -1.84868016 2.1895489
v 0.95194916 0.94344471 2.32752606
v 0.96362691 -1.85412389 2.42114359
v -1.87110479 0.92772523 2.62254839
v 4.44156326 0.27731631 1.99393497
v 4.45630236 -0.43923252 2.05746827
v 4.446323 -1.0938952 2.04436826
v 4.42776106 0.94827514 1.93444214
v 2.08742693 -1.85121311 2.29753988
v 4.42359028 -1.76837678 2.03180216
v -2.67227316 -1.13041842 2.81662762
v -2.64830686 -1.79739539 2.79951055
v -2.68341082 -0.47944739 2.8317564
v -0.21627058 -1.11638215 7.56610258
v -0.08469382 -0.82800962 6.47147078
v -0.21896975 -1.8797492 4.00254199
v -0.33311678 -1.85737422 2.55926244
v -0.60488561 -1.78849335 -0.58084593
v -1.07930675 -0.06018384 21.48319984
v -0.89965538 0.40395249 24.03055663
v -1.00917568 -0.25153479 -5.38330421
v -1.00712129 0.45110974 -5.36452592
v -0.19793053 -1.8399233 4.2910896
v -1.00519754 1.10904731 -5.34694706
v -1.00387792 -0.91750658 -5.38519697
v -0.91162239 -0.68587062 24.19774945
v -0.90366041 -0.92535406 24.14158412
v -1.20904673 -0.45905698 18.67832794
v -1.27872137 -0.64644663 16.84177026
v -1.31844716 -2.0925425 15.22840245
v -1.23673687 -2.08663807 13.57330287
v -0.34674771 0.93607959 2.46576701
v -0.2421203 0.90098717 3.71084527
v -0.06508223 -0.63994035 5.57593951
v -0.15193103 -0.55181432 4.68680801
v -1.10285299 -1.44338851 21.59061894
v -1.23179589 -1.8467526 18.74845869
v -0.99342916 -1.60370774 -5.37571547
v -0.90529 -0.12419883 24.13265172
v -1.31337998 -0.72226012 15.21822888
v -1.29733961 -2.02780282 16.8881226
v -1.03732287 -2.00472487 11.89620502
v -0.11746157 0.83204715 4.94082385
v -0.04367277 0.72890359 5.82430744
v -0.45466736 -1.46036166 8.84662388
v -0.47562451 -1.8235263 0.96509424
v -1.27098143 -0.71877683 13.60755091
v -1.11677539 -0.63030152 11.97949904
v -0.91215695 1.11614231 -4.99393749
v -0.83754671 -0.41235635 10.42618457
v -0.21994476 0.25572213 7.73269379
v -0.49215499 -0.08725105 9.00729389
v -0.19388343 -1.31127609 4.35852703
v -0.19264225 -0.80445499 4.38659514
v -0.75716979 -1.78915268 10.29750356
v -0.077094 0.54581282 6.64469866
v -0.90686203 -1.68744918 -5.039847
v -0.48078183 0.97283845 0.9781873
v -0.60923304 1.00897151 -0.53281466
v 0.26860073 1.09898824 -4.14726969
v -0.83039668 1.08683492 -3.77977344
v 3.93953566 0.40935123 -3.00377284
v 3.93148891 1.06738844 -2.99073862
v 2.14857071 1.09824888 -3.86804734
v -3.13044722 -1.68253794 -2.16151811
v -2.25467257 -1.73724859 -2.84226842
v 1.23369949 1.10152215 -4.12758551
v -2.25941585 1.05860012 -2.79448386
v -3.15397701 1.02387809 -2.11679284
v 3.91726791 -1.65089291 -3.03200227
v 3.93890622 -0.96107648 -3.02645811
v -3.1668417 -0.3370918 -2.14096346
v -3.15508281 -1.00088767 -2.15164439
v 2.15288999 -1.71291238 -3.91611783
v 3.94812772 -0.29339807 -3.01769524
v 1.2380723 -1.70703357 -4.17559275
v -3.16019807 0.36575152 -2.12848087
v -0.82589821 -1.71491869 -3.82758583
v 0.27302819 -1.70658869 -4.19521873
v 1.49560448 -1.74584429 -2.46294748
v 2.43130609 -1.7482542 -2.35656839
v -0.71630231 1.0466652 -2.10472271
v -2.21551803 1.02655212 -1.46160995
v -3.10462739 0.99756941 -1.02103183
v -3.11068586 0.3394245 -1.03191962
v 0.46534687 1.05680335 -2.37624245
v 1.49121719 1.0609085 -2.41486433
v 0.46975993 -1.7467214 -2.42427246
v 2.42694474 1.06130356 -2.30848018
v 4.10092748 -1.67707807 -1.90674473
v 4.11549893 1.04053367 -1.86336817
v 4.12305795 -0.98774432 -1.89856639
v 4.13252996 -0.32029037 -1.88862941
v -3.10534223 -1.02695145 -1.05544562
v -3.08075535 -1.70808591 -1.06795099
v 4.12373484 0.38248025 -1.87558507
v -0.71188134 -1.75287618 -2.15264644
v -3.11715236 -0.36343745 -1.04355009
v -2.21074501 -1.76744906 -1.50948054
v 1.27550046 0.25157903 22.65876477
v 2.31272813 0.01363116 21.35660011
v 4.72205526 -0.69545785 16.08349277
v 4.15478126 -0.56857602 17.42520293
v 3.26355267 -0.29448098 19.59153961
v 0.59723313 0.34816586 23.21293307
v -0.08272705 0.39134512 23.61913219
v -0.92415812 0.34531075 23.67426257
v -2.08602096 0.150934 23.00245732
v -3.07665606 -0.26036858 20.87459197
v -2.18298055 0.23950558 7.80459014
v -1.98830905 0.52937012 6.7181177
v 3.05545109 1.10115444 -4.40292873
v 3.70110883 1.07137529 -3.10410169
v -1.95620269 0.70960902 5.93520398
v 5.13889988 -0.74718458 14.78908259
v -2.30687525 0.87538132 3.92711317
v -2.49604988 0.91082499 2.68566354
v 4.08143371 1.01679558 -0.81052509
v 4.16278184 0.98564604 0.48555706
v -2.94131118 1.00117463 -1.07190857
v -2.9697538 1.02836453 -2.20435822
v -2.67971324 1.06290643 -3.57757471
v -3.57475581 -0.6449071 12.06177963
v -3.06650463 -0.4286944 10.51495759
v 4.24556661 0.94920602 1.95530043
v 4.34760919 0.91441741 3.21320922
v -2.70678816 0.94626566 1.23714917
v 5.33009379 -0.6418662 11.80659506
v 5.33420763 -0.73484353 13.35504859
v -3.68584593 -0.53165141 18.72527114
v -4.00769521 -0.66585551 17.06344947
v 5.04812592 -0.09811575 8.88196697
v 5.21005102 -0.42265483 10.28355016
v 4.89219666 0.2442699 7.62249501
v -4.12279542 -0.73111527 15.4077856
v -3.9675481 -0.73116927 13.73278674
v 4.49750339 0.84356137 4.50927967
v -2.08175656 0.80704868 5.11576293
v 4.75841495 0.53558231 6.51941475
v 3.89731234 1.04321924 -1.92088728
v 4.64274097 0.72573519 5.60388269
v -2.54899904 -0.1040118 9.09822664
v -2.86930096 0.97620961 -0.0333877
v 0.65203219 -1.09259797 23.0155548
v -0.10614582 -1.02012586 23.44641545
v 4.81481687 -1.76576902 10.173891
v 4.65093701 -1.43714611 8.74264742
v -2.16459384 -1.84898428 4.20884824
v -2.11560796 -1.83697014 4.49325164
v 4.69520238 -2.08799201 14.81925539
v 4.91223004 -2.07385357 13.33549852
v -2.35331995 -1.82102766 2.7684268
v -2.56137345 -1.78550318 1.1783775
v -3.99247153 -2.07402152 15.4000096
v -3.86347676 -2.0717307 13.68843217
v 1.41362707 -1.19971334 22.19785279
v -2.00722271 -1.22142629 22.93931054
v -2.97887029 -1.59555503 21.11071611
v -2.97840659 -1.77328581 10.39890784
v -2.46485922 -1.44458572 8.94504858
v -2.71305856 -1.75572687 -0.12231698
v 4.9274322 -1.98465195 11.73988038
v -0.94309393 -1.05713057 23.46635014
v 4.06284267 -0.77029234 3.92855804
v 4.06021862 -1.27919662 3.90072399
v -2.08763221 -1.09986511 7.65235087
v -2.5932682 -1.66970473 -3.82881815
v -2.80523374 -1.70285409 -2.41431017
v -2.30264059 -1.65854444 -4.28148094
v -0.96128326 -1.63480731 -5.25099584
v 4.2603386 -2.04111207 16.1712163
v 2.81167763 -1.60210867 19.9543609
v 3.67821164 -1.90850891 17.59561951
v 0.10055073 -1.62541358 -5.61081732
v -3.48691398 -1.98942117 11.9957254
v 1.03007668 -1.62481577 -5.59737317
v 1.89628838 -1.62953406 -5.35264051
v 2.74120274 -1.64310663 -4.71723796
v -3.54368535 -1.88036757 18.79965806
v 2.1264268 -1.37841746 21.21823137
v 4.05327766 -1.81050236 3.83556236
v 4.03648196 -1.82500676 3.54499864
v -2.11013845 -1.31125055 4.5584082
v -1.90185895 -0.81077022 6.55083695
v 3.90923191 -1.79819563 2.09038025
v -1.89106352 -0.62532386 5.68178311
v 4.36700427 -0.80488746 6.36964075
v 4.24895105 -0.61247325 5.38345224
v 3.79550509 -1.76249433 0.48480869
v 3.68629445 -1.73126998 -0.86647596
v 4.49579345 -1.09393016 7.47809943
v 4.10916464 -0.51571373 4.2921663
v -2.0392258 -0.54607658 4.86775812
v 3.48092383 -1.70350805 -2.07378319
v 3.26207728 -1.67392421 -3.36031236
v -2.10855693 -0.80518723 4.58656773
v -3.86023971 -2.01538792 17.09566559
v -2.75768198 -1.7301305 -1.23190866
vt 0.9685 0.1445
vt 0.9615 0.1446
vt 0.9641 0.1359
vt 0.971 0.1359
vt 0 0
vt 0.4491 0.1177
vt 0.4504 0.1125
vt 0.4577 0.1092
vt 0.4585 0.114
vt 0.79 0.1458
vt 0.7905 0.1361
vt 0.7961 0.1362
vt 0.7955 0.1461
vt 0.5175 0.022
vt 0.5056 0.022
vt 0.5056 0.0239
vt 0.5176 0.0239
vt 0.8284 0.0073
vt 0.8283 0.0121
vt 0.8285 0.0126
vt 0.8285 0.009
vt 0.6483 0.2839
vt 0.6485 0.2919
vt 0.6594 0.2894
vt 0.6592 0.281
vt 0.6505 0.3465
vt 0.6616 0.3464
vt 0.661 0.334
vt 0.65 0.3345
vt 0.227 0.0504
vt 0.227 0.0556
vt 0.2361 0.0556
vt 0.2361 0.0504
vt 0.9618 0.2977
vt 0.9628 0.2891
vt 0.9517 0.2913
vt 0.9508 0.3007
vt 0.8642 0.1463
vt 0.8521 0.1464
vt 0.8525 0.1359
vt 0.8646 0.136
vt 0.9666 0.0045
vt 0.9661 0.0044
vt 0.9657 0.0051
vt 0.9662 0.0052
vt 0.4256 0.0221
vt 0.4178 0.0221
vt 0.4178 0.024
vt 0.4256 0.024
vt 0.7016 0.3846
vt 0.6881 0.3837
vt 0.6885 0.388
vt 0.7019 0.3888
vt 0.5488 0.0725
vt 0.5318 0.0774
vt 0.5338 0.0712
vt 0.5502 0.0666
vt 0.4864 0.091
vt 0.4901 0.0854
vt 0.5029 0.081
vt 0.4995 0.0871
vt 0.7938 0.3816
vt 0.7777 0.3837
vt 0.7778 0.3885
vt 0.7937 0.3867
vt 0.3002 0.0508
vt 0.3003 0.0559
vt 0.3087 0.0559
vt 0.3087 0.0508
vt 0.8275 0.1044
vt 0.828 0.095
vt 0.8353 0.0951
vt 0.8348 0.1044
vt 0.2642 0.0506
vt 0.2548 0.0505
vt 0.2548 0.0557
vt 0.2642 0.0557
vt 0.8609 0.325
vt 0.8608 0.3372
vt 0.88 0.3315
vt 0.8806 0.3199
vt 0.4772 0.0934
vt 0.4801 0.0889
vt 0.6308 0.3466
vt 0.6403 0.3465
vt 0.6399 0.3349
vt 0.6305 0.3352
vt 0.8659 0.1048
vt 0.8662 0.0954
vt 0.8796 0.0958
vt 0.8794 0.1051
vt 0.5761 0.3626
vt 0.5664 0.3618
vt 0.5668 0.3531
vt 0.5766 0.354
vt 0.4454 0.1322
vt 0.4473 0.1244
vt 0.4577 0.1212
vt 0.4561 0.1298
vt 0.8806 0.3072
vt 0.8607 0.3114
vt 0.7187 0.0222
vt 0.7188 0.0241
vt 0.7309 0.0241
vt 0.7308 0.0222
vt 0.8791 0.1151
vt 0.8655 0.1148
vt 0.7603 0.3431
vt 0.7443 0.3445
vt 0.7449 0.3587
vt 0.7608 0.3575
vt 0.8743 0.0038
vt 0.8745 0.0046
vt 0.8852 0.0046
vt 0.885 0.0038
vt 0.4548 0.139
vt 0.444 0.1406
vt 0.763 0.0222
vt 0.7529 0.0222
vt 0.753 0.0241
vt 0.7631 0.0241
vt 0.4454 0.1672
vt 0.4438 0.1584
vt 0.4546 0.1583
vt 0.4561 0.168
vt 0.0206 0.0218
vt 0.0147 0.0224
vt 0.0143 0.024
vt 0.0202 0.0236
vt 0.7264 0.2828
vt 0.7116 0.2864
vt 0.7121 0.3007
vt 0.727 0.298
vt 0.8783 0.136
vt 0.8778 0.1462
vt 0.7878 0.2069
vt 0.7718 0.2127
vt 0.772 0.2141
vt 0.7879 0.2099
vt 0.8343 0.1146
vt 0.827 0.1146
vt 0.3943 0.0221
vt 0.3942 0.024
vt 0.4021 0.024
vt 0.4022 0.0221
vt 0.1306 0.0221
vt 0.1158 0.022
vt 0.1157 0.0239
vt 0.1305 0.024
vt 0.4515 0.1835
vt 0.4479 0.1757
vt 0.4584 0.1772
vt 0.4617 0.1855
vt 0.3283 0.0219
vt 0.3193 0.0219
vt 0.3193 0.0238
vt 0.3282 0.0239
vt 0.9496 0.3096
vt 0.9602 0.3057
vt 0.6641 0.0222
vt 0.6642 0.0241
vt 0.6786 0.0241
vt 0.6785 0.0222
vt 0.0341 0.0217
vt 0.0339 0.0236
vt 0.0425 0.0236
vt 0.0427 0.0217
vt 0.933 0.2194
vt 0.9252 0.2174
vt 0.9238 0.2182
vt 0.7814 0.0223
vt 0.7725 0.0222
vt 0.7726 0.0241
vt 0.7815 0.0241
vt 0.7901 0.2713
vt 0.7738 0.2736
vt 0.7745 0.2907
vt 0.7908 0.2886
vt 0.9194 0.0038
vt 0.9076 0.0038
vt 0.9077 0.0046
vt 0.9193 0.0046
vt 0.4682 0.2045
vt 0.4768 0.2072
vt 0.4785 0.2098
vt 0.6964 0.2427
vt 0.6827 0.249
vt 0.6834 0.2491
vt 0.6969 0.2432
vt 0.792 0.1042
vt 0.7978 0.1042
vt 0.7972 0.1149
vt 0.7915 0.1149
vt 0.5442 0.1116
vt 0.5249 0.1153
vt 0.526 0.104
vt 0.5449 0.0996
vt 0.6141 0.3466
vt 0.6064 0.3466
vt 0.6061 0.3576
vt 0.6141 0.3571
vt 0.4697 0.1268
vt 0.4711 0.1172
vt 0.488 0.113
vt 0.4865 0.1232
vt 0.7472 0.1844
vt 0.7472 0.1867
vt 0.7361 0.189
vt 0.736 0.1868
vt 0.6141 0.3354
vt 0.6066 0.3354
vt 0.4855 0.1341
vt 0.4685 0.1368
vt 0.2827 0.0507
vt 0.2736 0.0506
vt 0.2736 0.0558
vt 0.2828 0.0558
vt 0.5437 0.1249
vt 0.5242 0.1278
vt 0.7305 0.3858
vt 0.7157 0.3854
vt 0.716 0.3895
vt 0.7308 0.39
vt 0.3781 0.022
vt 0.378 0.0239
vt 0.3862 0.0239
vt 0.3863 0.022
vt 0.9369 0.3046
vt 0.9376 0.2944
vt 0.9203 0.2983
vt 0.9197 0.3093
vt 0.5434 0.1699
vt 0.5242 0.1698
vt 0.5239 0.1555
vt 0.5433 0.1546
vt 0.6997 0.3463
vt 0.6862 0.3464
vt 0.6867 0.3589
vt 0.7002 0.3593
vt 0.4696 0.1687
vt 0.4683 0.158
vt 0.4852 0.1574
vt 0.4862 0.1692
vt 0.8534 0.1147
vt 0.8538 0.1046
vt 0.4745 0.1878
vt 0.4717 0.1788
vt 0.4878 0.1804
vt 0.4901 0.1903
vt 0.9548 0.081
vt 0.9477 0.0795
vt 0.9433 0.0739
vt 0.9504 0.0756
vt 0.6312 0.3573
vt 0.6407 0.3575
vt 0.544 0.1967
vt 0.5258 0.1949
vt 0.5249 0.1832
vt 0.5436 0.1843
vt 0.1614 0.0221
vt 0.1459 0.0221
vt 0.1458 0.024
vt 0.1613 0.024
vt 0.96 0.2621
vt 0.9489 0.262
vt 0.9509 0.2717
vt 0.9621 0.271
vt 0.2181 0.0504
vt 0.218 0.0556
vt 0.9515 0.0096
vt 0.9515 0.0129
vt 0.9558 0.0129
vt 0.9558 0.0096
vt 0.0524 0.0218
vt 0.0523 0.0237
vt 0.0631 0.0238
vt 0.0633 0.0219
vt 0.8543 0.0953
vt 0.6734 0.3464
vt 0.674 0.3584
vt 0.789 0.242
vt 0.7728 0.2449
vt 0.7732 0.2581
vt 0.7895 0.2555
vt 0.5771 0.3441
vt 0.5674 0.3433
vt 0.5679 0.3327
vt 0.5776 0.3336
vt 0.7617 0.385
vt 0.7459 0.3857
vt 0.7461 0.39
vt 0.7619 0.3896
vt 0.8248 0.1647
vt 0.8251 0.1561
vt 0.8325 0.1562
vt 0.8321 0.1648
vt 0.7657 0.1817
vt 0.7657 0.1841
vt 0.7572 0.1851
vt 0.7571 0.1827
vt 0.5809 0.0649
vt 0.5651 0.0684
vt 0.566 0.0626
vt 0.5815 0.0593
vt 0.669 0.2553
vt 0.6705 0.2541
vt 0.651 0.3578
vt 0.6621 0.358
vt 0.824 0.1853
vt 0.8314 0.1856
vt 0.8313 0.1881
vt 0.8239 0.1877
vt 0.7924 0.0941
vt 0.7983 0.0943
vt 0.6144 0.287
vt 0.6079 0.2856
vt 0.6077 0.294
vt 0.6143 0.295
vt 0.8671 0.0746
vt 0.8673 0.07
vt 0.8795 0.0696
vt 0.8796 0.0744
vt 0.8747 0.0095
vt 0.8747 0.0127
vt 0.8853 0.0127
vt 0.8853 0.0095
vt 0.0795 0.0502
vt 0.0795 0.0554
vt 0.0918 0.0553
vt 0.0918 0.0502
vt 0.5788 0.1058
vt 0.562 0.1084
vt 0.5625 0.0958
vt 0.5791 0.0926
vt 0.5777 0.2247
vt 0.5778 0.2272
vt 0.5622 0.2267
vt 0.5344 0.2987
vt 0.5471 0.2993
vt 0.5467 0.3095
vt 0.5339 0.3089
vt 0.5785 0.1205
vt 0.5617 0.1225
vt 0.9289 0.2429
vt 0.9126 0.2414
vt 0.9154 0.2513
vt 0.9322 0.2519
vt 0.5198 0.3082
vt 0.5205 0.2981
vt 0.0751 0.0219
vt 0.075 0.0238
vt 0.0878 0.0239
vt 0.0879 0.022
vt 0.6488 0.3011
vt 0.6491 0.3114
vt 0.6601 0.3099
vt 0.6597 0.2991
vt 0.8255 0.3749
vt 0.8251 0.3805
vt 0.8409 0.3762
vt 0.8416 0.3703
vt 0.5779 0.1698
vt 0.5612 0.1699
vt 0.5613 0.1538
vt 0.5781 0.1532
vt 0.9215 0.342
vt 0.9082 0.3468
vt 0.9049 0.3532
vt 0.9179 0.3479
vt 0.5777 0.1985
vt 0.5613 0.1979
vt 0.5612 0.185
vt 0.5778 0.1853
vt 0.8229 0.268
vt 0.8237 0.2849
vt 0.841 0.2832
vt 0.8402 0.2668
vt 0.9705 0.1102
vt 0.972 0.1187
vt 0.9651 0.1183
vt 0.9635 0.1096
vt 0.5323 0.3408
vt 0.5185 0.3398
vt 0.5188 0.3294
vt 0.5328 0.3303
vt 0.5621 0.2241
vt 0.9406 0.1832
vt 0.9385 0.186
vt 0.9312 0.1876
vt 0.9335 0.1846
vt 0.5456 0.3311
vt 0.5451 0.3417
vt 0.8565 0.2383
vt 0.8576 0.251
vt 0.877 0.2509
vt 0.8754 0.239
vt 0.8216 0.2388
vt 0.8223 0.2523
vt 0.8394 0.2515
vt 0.8386 0.2382
vt 0.7793 0.1454
vt 0.7795 0.1359
vt 0.7851 0.136
vt 0.7847 0.1456
vt 0.6698 0.2083
vt 0.6841 0.2035
vt 0.6842 0.2053
vt 0.6698 0.2101
vt 0.5311 0.0239
vt 0.531 0.022
vt 0.7567 0.2486
vt 0.741 0.2528
vt 0.7413 0.265
vt 0.7571 0.2613
vt 0.9188 0.3198
vt 0.936 0.3144
vt 0.8291 0.0749
vt 0.8293 0.0709
vt 0.8366 0.071
vt 0.8364 0.0751
vt 0.8625 0.187
vt 0.8623 0.1896
vt 0.8507 0.189
vt 0.8508 0.1865
vt 0.6424 0.0583
vt 0.6424 0.054
vt 0.6574 0.0544
vt 0.6574 0.0585
vt 0.7558 0.2185
vt 0.7398 0.2242
vt 0.7404 0.2251
vt 0.7561 0.2194
vt 0.6117 0.0601
vt 0.6119 0.0551
vt 0.6272 0.0542
vt 0.6271 0.0588
vt 0.7803 0.1039
vt 0.7804 0.0936
vt 0.7866 0.0939
vt 0.7863 0.1041
vt 0.0673 0.0503
vt 0.0672 0.0554
vt 0.9196 0.028
vt 0.9313 0.0281
vt 0.9304 0.0276
vt 0.9193 0.0275
vt 0.4108 0.051
vt 0.4109 0.0561
vt 0.4231 0.0562
vt 0.423 0.051
vt 0.7788 0.1617
vt 0.7791 0.154
vt 0.7844 0.1543
vt 0.7841 0.1621
vt 0.7892 0.1626
vt 0.7896 0.1547
vt 0.7951 0.1551
vt 0.7946 0.1632
vt 0.3334 0.0508
vt 0.3334 0.056
vt 0.3416 0.056
vt 0.3416 0.0508
vt 0.6418 0.0996
vt 0.642 0.0853
vt 0.6572 0.0849
vt 0.6571 0.0991
vt 0.6106 0.1019
vt 0.6108 0.0879
vt 0.6265 0.0863
vt 0.6263 0.1006
vt 0.2228 0.0221
vt 0.2227 0.024
vt 0.2377 0.0239
vt 0.2378 0.022
vt 0.6261 0.1165
vt 0.6104 0.1176
vt 0.5464 0.2226
vt 0.5466 0.2252
vt 0.5309 0.2227
vt 0.5304 0.2201
vt 0.657 0.115
vt 0.6417 0.1156
vt 0.6297 0.3037
vt 0.6299 0.3134
vt 0.6391 0.3126
vt 0.6388 0.3027
vt 0.8586 0.2656
vt 0.8595 0.2812
vt 0.8795 0.279
vt 0.8784 0.2645
vt 0.671 0.2773
vt 0.6712 0.2861
vt 0.6838 0.2823
vt 0.6836 0.2728
vt 0.6411 0.1668
vt 0.6413 0.1501
vt 0.6567 0.1488
vt 0.6565 0.1651
vt 0.6097 0.169
vt 0.61 0.1519
vt 0.6257 0.1511
vt 0.6255 0.1681
vt 0.9175 0.2154
vt 0.9011 0.2124
vt 0.8998 0.2132
vt 0.9134 0.2159
vt 0.5315 0.3596
vt 0.5319 0.3507
vt 0.5446 0.3516
vt 0.5441 0.3604
vt 0.6093 0.1979
vt 0.6095 0.1846
vt 0.6253 0.1836
vt 0.625 0.1966
vt 0.9309 0.339
vt 0.9349 0.2621
vt 0.9177 0.2626
vt 0.9193 0.2746
vt 0.9367 0.2728
vt 0.5792 0.3013
vt 0.5694 0.3007
vt 0.5698 0.2911
vt 0.5796 0.2915
vt 0.6406 0.1946
vt 0.6409 0.182
vt 0.6563 0.1798
vt 0.656 0.1919
vt 0.9191 0.0095
vt 0.9191 0.0128
vt 0.9295 0.0128
vt 0.9295 0.0095
vt 0.8744 0.0278
vt 0.8852 0.0279
vt 0.8853 0.0274
vt 0.8745 0.0274
vt 0.7577 0.2764
vt 0.7418 0.2795
vt 0.7424 0.2954
vt 0.7583 0.293
vt 0.6474 0.2596
vt 0.6479 0.2601
vt 0.6588 0.2576
vt 0.6582 0.2574
vt 0.6143 0.304
vt 0.6074 0.3036
vt 0.6072 0.3137
vt 0.6142 0.3138
vt 0.7859 0.1148
vt 0.78 0.1148
vt 0.5181 0.3586
vt 0.5182 0.3497
vt 0.6259 0.2639
vt 0.6282 0.2633
vt 0.6375 0.2621
vt 0.6367 0.2617
vt 0.6994 0.0623
vt 0.6993 0.0584
vt 0.712 0.0601
vt 0.7122 0.0642
vt 0.7243 0.066
vt 0.7241 0.0617
vt 0.6323 0.38
vt 0.6326 0.3843
vt 0.6424 0.3849
vt 0.6421 0.3806
vt 0.672 0.0593
vt 0.672 0.0554
vt 0.6859 0.0567
vt 0.686 0.0606
vt 0.6088 0.2228
vt 0.6243 0.2203
vt 0.6243 0.2225
vt 0.6088 0.2252
vt 0.6347 0.0222
vt 0.6348 0.0241
vt 0.6495 0.0241
vt 0.6494 0.0222
vt 0.798 0.0225
vt 0.7983 0.0243
vt 0.8065 0.0247
vt 0.8061 0.0231
vt 0.6525 0.3812
vt 0.6529 0.3856
vt 0.664 0.3863
vt 0.6636 0.382
vt 0.6144 0.379
vt 0.6059 0.3788
vt 0.6059 0.3831
vt 0.6145 0.3833
vt 0.6997 0.1001
vt 0.6997 0.0871
vt 0.7126 0.0886
vt 0.7127 0.101
vt 0.725 0.1018
vt 0.7249 0.0899
vt 0.8269 0.0044
vt 0.8273 0.0051
vt 0.8277 0.005
vt 0.8274 0.0043
vt 0.6719 0.099
vt 0.672 0.0851
vt 0.6862 0.0859
vt 0.6861 0.0994
vt 0.6144 0.2618
vt 0.6087 0.2607
vt 0.6086 0.2614
vt 0.6146 0.2624
vt 0.5348 0.2892
vt 0.5476 0.2898
vt 0.6861 0.1144
vt 0.6718 0.1146
vt 0.7251 0.1146
vt 0.7127 0.1145
vt 0.6997 0.1144
vt 0.0356 0.051
vt 0.0351 0.056
vt 0.0449 0.0558
vt 0.0453 0.0506
vt 0.9079 0.0095
vt 0.9079 0.0128
vt 0.4875 0.2102
vt 0.5004 0.2135
vt 0.5015 0.2161
vt 0.4889 0.2127
vt 0.6995 0.1572
vt 0.6996 0.1436
vt 0.7127 0.1417
vt 0.7127 0.1542
vt 0.7251 0.1515
vt 0.7251 0.14
vt 0.6714 0.163
vt 0.6716 0.1474
vt 0.6859 0.1456
vt 0.6858 0.1602
vt 0.6709 0.1885
vt 0.6712 0.1769
vt 0.6856 0.1733
vt 0.6853 0.1842
vt 0.7288 0.3455
vt 0.7282 0.3301
vt 0.7133 0.3312
vt 0.7139 0.346
vt 0.9602 0.1605
vt 0.9532 0.1609
vt 0.9578 0.153
vt 0.9648 0.1527
vt 0.7932 0.0728
vt 0.7934 0.0687
vt 0.7994 0.0691
vt 0.7993 0.0732
vt 0.7249 0.1706
vt 0.7124 0.1748
vt 0.7126 0.1654
vt 0.7251 0.1618
vt 0.6992 0.1795
vt 0.6994 0.1694
vt 0.6397 0.2169
vt 0.6549 0.2129
vt 0.655 0.2147
vt 0.6398 0.2189
vt 0.8255 0.3331
vt 0.8259 0.3465
vt 0.8429 0.3422
vt 0.8427 0.3294
vt 0.7145 0.3595
vt 0.7294 0.3594
vt 0.6991 0.3321
vt 0.6856 0.3328
vt 0.9304 0.0047
vt 0.9313 0.0039
vt 0.7928 0.339
vt 0.7765 0.3413
vt 0.777 0.3557
vt 0.7933 0.3533
vt 0.6729 0.3335
vt 0.7883 0.1827
vt 0.7936 0.1833
vt 0.7936 0.1857
vt 0.7882 0.1851
vt 0.6294 0.2872
vt 0.6295 0.2949
vt 0.6385 0.2938
vt 0.6384 0.286
vt 0.8296 0.0097
vt 0.8296 0.013
vt 0.8302 0.0129
vt 0.8302 0.0096
vt 0.7466 0.0687
vt 0.7358 0.0674
vt 0.7356 0.0632
vt 0.7464 0.0644
vt 0.2529 0.022
vt 0.2528 0.0239
vt 0.2679 0.0239
vt 0.268 0.022
vt 0.9608 0.1013
vt 0.9678 0.1021
vt 0.8554 0.0748
vt 0.8557 0.0705
vt 0.829 0.0039
vt 0.8293 0.0048
vt 0.8299 0.0047
vt 0.8298 0.0039
vt 0.9587 0.3126
vt 0.9491 0.3169
vt 0.9576 0.3179
vt 0.1925 0.0222
vt 0.177 0.0222
vt 0.1769 0.0241
vt 0.1924 0.0241
vt 0.8423 0.3151
vt 0.825 0.3182
vt 0.6755 0.3828
vt 0.6758 0.3871
vt 0.3987 0.0509
vt 0.3987 0.0561
vt 0.5211 0.2887
vt 0.7655 0.0705
vt 0.7565 0.0697
vt 0.7563 0.0654
vt 0.7653 0.0663
vt 0.7475 0.1029
vt 0.7367 0.1024
vt 0.7365 0.091
vt 0.7473 0.0918
vt 0.7476 0.1147
vt 0.7367 0.1147
vt 0.7661 0.1035
vt 0.7662 0.1147
vt 0.7574 0.1147
vt 0.7574 0.1032
vt 0.698 0.1986
vt 0.7113 0.194
vt 0.7113 0.196
vt 0.698 0.2005
vt 0.7572 0.0924
vt 0.7661 0.0929
vt 0.6057 0.0222
vt 0.591 0.0222
vt 0.5912 0.0241
vt 0.6058 0.0241
vt 0.724 0.19
vt 0.724 0.1921
vt 0.7662 0.1457
vt 0.7576 0.1464
vt 0.7576 0.1367
vt 0.7662 0.1362
vt 0.8562 0.0095
vt 0.8562 0.0128
vt 0.8649 0.0128
vt 0.8649 0.0095
vt 0.7478 0.1476
vt 0.7369 0.1493
vt 0.7369 0.1386
vt 0.7478 0.1375
vt 0.697 0.2679
vt 0.6971 0.278
vt 0.7478 0.1647
vt 0.7368 0.1672
vt 0.7369 0.1589
vt 0.7478 0.1567
vt 0.852 0.2034
vt 0.852 0.206
vt 0.8682 0.2078
vt 0.8684 0.2064
vt 0.7661 0.1619
vt 0.7576 0.1629
vt 0.7576 0.1552
vt 0.7661 0.1543
vt 0.4416 0.022
vt 0.4417 0.0239
vt 0.4499 0.024
vt 0.4499 0.022
vt 0.1927 0.0503
vt 0.1845 0.0502
vt 0.1845 0.0554
vt 0.1926 0.0554
vt 0.4279 0.2975
vt 0.4314 0.2895
vt 0.4385 0.2892
vt 0.435 0.2973
vt 0.8529 0.0039
vt 0.8553 0.0047
vt 0.8643 0.0046
vt 0.8636 0.0039
vt 0.9079 0.0275
vt 0.9078 0.028
vt 0.4341 0.3489
vt 0.4301 0.3408
vt 0.4371 0.3415
vt 0.4411 0.3499
vt 0.4336 0.024
vt 0.4336 0.022
vt 0.7257 0.2576
vt 0.711 0.2627
vt 0.7112 0.2735
vt 0.726 0.2691
vt 0.9529 0.246
vt 0.9422 0.2445
vt 0.946 0.2528
vt 0.9569 0.2537
vt 0.7921 0.3232
vt 0.7758 0.3253
vt 0.8255 0.1465
vt 0.826 0.1361
vt 0.8333 0.136
vt 0.8329 0.1464
vt 0.1015 0.022
vt 0.1014 0.0239
vt 0.1597 0.0502
vt 0.1512 0.0501
vt 0.1512 0.0553
vt 0.1597 0.0553
vt 0.4545 0.0517
vt 0.4449 0.0514
vt 0.4453 0.0565
vt 0.4551 0.0567
vt 0.7422 0.0222
vt 0.7423 0.0241
vt 0.8581 0.365
vt 0.857 0.3711
vt 0.8736 0.3653
vt 0.8754 0.3589
vt 0.309 0.0219
vt 0.2966 0.0219
vt 0.2965 0.0238
vt 0.3089 0.0238
vt 0.8634 0.1649
vt 0.8514 0.1649
vt 0.8517 0.1562
vt 0.8638 0.1561
vt 0.6975 0.2899
vt 0.6841 0.2934
vt 0.6846 0.3057
vt 0.698 0.3033
vt 0.7596 0.3271
vt 0.7437 0.3287
vt 0.8746 0.1874
vt 0.8743 0.1901
vt 0.5761 0.0221
vt 0.5608 0.0221
vt 0.5609 0.024
vt 0.5762 0.024
vt 0.8199 0.2052
vt 0.8199 0.2063
vt 0.8359 0.2056
vt 0.836 0.2043
vt 0.9524 0.0039
vt 0.952 0.0047
vt 0.9564 0.0047
vt 0.9569 0.0039
vt 0.8527 0.0278
vt 0.8635 0.0278
vt 0.8642 0.0274
vt 0.8552 0.0274
vt 0.6925 0.0222
vt 0.6926 0.0241
vt 0.706 0.0241
vt 0.7059 0.0222
vt 0.6715 0.2965
vt 0.6719 0.308
vt 0.5787 0.3119
vt 0.5689 0.311
vt 0.7238 0.23
vt 0.7101 0.2363
vt 0.7107 0.2371
vt 0.7251 0.231
vt 0.7806 0.0718
vt 0.7805 0.0677
vt 0.7871 0.0682
vt 0.7871 0.0724
vt 0.7782 0.1816
vt 0.7833 0.1821
vt 0.7832 0.1844
vt 0.7782 0.184
vt 0.4271 0.3322
vt 0.4252 0.3233
vt 0.4322 0.3238
vt 0.4341 0.3327
vt 0.4327 0.3059
vt 0.4257 0.3058
vt 0.8772 0.1559
vt 0.8766 0.1647
vt 0.9648 0.0072
vt 0.9648 0.009
vt 0.9648 0.0125
vt 0.965 0.012
g Group1
f 376/1 388/2 387/3 47/4
f 303/5 289/5 157/5 158/5
f 130/6 129/7 428/8 427/9
f 370/10 53/11 58/12 360/13
f 204/14 171/15 219/16 245/17
f 206/18 306/19 305/20 263/21
f 103/22 342/23 341/24 104/25
f 206/5 283/5 325/5 340/5
f 349/5 351/5 149/5 265/5
f 100/26 99/27 102/28 101/29
f 192/30 308/31 307/32 190/33
f 221/34 222/35 472/36 471/37
f 385/38 359/39 329/40 63/41
f 195/5 194/5 295/5 293/5
f 208/42 246/43 262/44 210/45
f 173/46 172/47 222/48 221/49
f 268/5 164/5 129/5 282/5
f 293/5 295/5 153/5 154/5
f 90/50 89/51 474/52 473/53
f 124/5 259/5 476/5 475/5
f 9/54 2/55 430/56 429/57
f 1/58 431/59 430/60 2/61
f 73/62 82/63 478/64 477/65
f 189/66 310/67 309/68 188/69
f 192/5 190/5 265/5 264/5
f 59/70 57/71 324/72 323/73
f 348/74 190/75 307/76 352/77
f 281/5 137/5 138/5 274/5
f 209/5 340/5 325/5 266/5
f 283/5 165/5 326/5 325/5
f 78/78 74/79 66/80 70/81
f 431/58 428/82 129/83 164/59
f 327/5 124/5 475/5 479/5
f 115/84 100/85 101/86 118/87
f 62/88 61/89 41/90 42/91
f 124/92 327/93 344/94 343/95
f 131/96 130/97 427/98 432/99
f 128/5 327/5 479/5 480/5
f 318/5 320/5 251/5 252/5
f 78/78 70/81 71/100 77/101
f 198/102 239/103 238/104 199/105
f 62/88 42/91 43/106 63/107
f 86/108 83/109 81/110 82/111
f 362/112 381/113 213/114 117/115
f 131/96 432/99 433/116 132/117
f 267/5 133/5 134/5 284/5
f 197/118 196/119 237/120 236/121
f 204/5 268/5 282/5 171/5
f 347/122 132/123 433/124 434/125
f 186/126 185/127 235/128 234/129
f 369/130 382/131 93/132 84/133
f 385/38 63/41 43/134 386/135
f 281/5 291/5 136/5 137/5
f 227/136 228/137 482/138 481/139
f 59/70 323/73 329/140 58/141
f 353/142 354/143 222/144 172/145
f 179/146 182/147 230/148 229/149
f 270/5 152/5 390/5 389/5
f 133/150 347/151 434/152 435/153
f 174/154 175/155 224/156 223/157
f 221/34 471/37 483/158 220/159
f 189/5 292/5 349/5 348/5
f 200/160 241/161 240/162 201/163
f 186/164 234/165 233/166 183/167
f 223/168 224/169 485/169 484/170
f 266/5 325/5 326/5 168/5
f 403/5 401/5 408/5 407/5
f 264/5 265/5 149/5 150/5
f 207/171 197/172 236/173 247/174
f 357/175 358/176 85/177 76/178
f 116/179 117/180 213/181 214/182
f 133/183 435/184 436/184 134/185
f 230/186 231/187 487/188 486/189
f 313/5 322/5 257/5 258/5
f 348/5 349/5 265/5 190/5
f 54/190 59/191 58/192 53/193
f 316/5 317/5 215/5 216/5
f 12/194 6/195 2/196 9/197
f 115/198 116/199 113/200 114/201
f 3/202 1/203 2/204 6/205
f 108/5 128/5 480/5 488/5
f 39/206 438/207 437/208 40/209
f 292/5 148/5 351/5 349/5
f 115/198 118/210 117/211 116/199
f 395/5 410/5 409/5 388/5
f 3/202 6/205 7/212 4/213
f 189/214 348/215 352/216 310/217
f 12/194 13/218 7/219 6/195
f 81/220 90/221 473/222 489/223
f 174/224 223/225 354/226 353/227
f 204/5 205/5 275/5 268/5
f 67/228 68/229 71/230 70/231
f 356/232 355/233 7/234 13/235
f 94/236 91/237 89/238 90/239
f 346/240 4/241 7/242 355/243
f 198/5 199/5 289/5 303/5
f 62/88 63/107 329/244 323/245
f 5/246 346/247 355/248 8/249
f 45/250 391/251 440/252 439/253
f 115/84 114/254 97/255 100/85
f 178/5 176/5 269/5 291/5
f 16/256 8/257 355/258 356/259
f 191/5 271/5 270/5 193/5
f 180/260 179/261 229/262 228/263
f 354/264 490/265 472/266 222/267
f 192/30 191/268 318/269 308/31
f 312/5 334/5 337/5 249/5
f 211/270 314/271 492/272 491/273
f 277/5 272/5 141/5 142/5
f 184/5 181/5 272/5 277/5
f 182/5 301/5 272/5 181/5
f 207/5 290/5 280/5 197/5
f 183/274 233/275 232/276 184/277
f 296/5 294/5 169/5 166/5
f 189/5 188/5 288/5 292/5
f 62/88 323/245 324/278 61/89
f 170/5 171/5 282/5 273/5
f 99/279 98/280 89/238 91/237
f 79/281 88/282 358/283 357/284
f 343/285 344/286 330/287 122/288
f 279/5 273/5 130/5 131/5
f 82/289 81/290 489/291 478/292
f 60/293 360/294 359/295 331/296
f 200/5 201/5 299/5 300/5
f 55/297 441/298 438/299 39/300
f 404/5 412/5 411/5 396/5
f 10/301 9/302 429/303 442/304
f 232/305 493/306 487/188 231/187
f 100/26 97/307 98/308 99/27
f 177/5 281/5 274/5 180/5
f 208/5 210/5 294/5 296/5
f 60/309 331/310 444/311 443/312
f 54/190 50/313 57/314 59/191
f 119/315 120/316 362/317 361/318
f 313/5 258/5 339/5 338/5
f 61/319 446/320 445/321 41/322
f 112/5 393/5 495/5 494/5
f 381/323 380/324 319/325 213/326
f 185/5 297/5 283/5 206/5
f 195/327 312/328 311/329 194/330
f 290/5 296/5 166/5 167/5
f 11/331 12/332 9/333 10/334
f 255/335 496/336 494/336 256/337
f 126/338 336/339 330/340 127/341
f 11/331 14/342 13/343 12/332
f 69/344 72/345 364/346 363/347
f 395/5 448/5 447/5 410/5
f 192/5 264/5 271/5 191/5
f 388/5 409/5 413/5 387/5
f 126/338 127/341 106/348 107/349
f 384/5 112/5 496/5 497/5
f 300/5 299/5 159/5 160/5
f 184/350 232/351 231/352 181/353
f 174/5 353/5 366/5 267/5
f 342/354 101/355 102/356 341/357
f 73/358 477/359 498/360 74/361
f 367/362 356/363 13/364 14/365
f 202/5 302/5 275/5 205/5
f 65/366 66/367 500/368 499/369
f 15/370 16/371 356/372 367/373
f 357/374 76/375 77/376 368/377
f 46/378 47/379 387/380 394/381
f 373/382 345/383 106/384 127/385
f 111/335 384/336 497/337 501/386
f 48/387 449/388 448/389 395/390
f 180/5 274/5 276/5 179/5
f 210/5 333/5 332/5 294/5
f 373/382 127/385 330/391 344/392
f 80/393 368/394 364/395 72/396
f 79/397 357/398 368/399 80/400
f 183/5 184/5 277/5 285/5
f 371/401 52/402 53/403 370/404
f 197/5 280/5 278/5 196/5
f 173/5 170/5 273/5 279/5
f 23/405 32/406 451/407 450/408
f 316/5 216/5 337/5 334/5
f 204/14 245/17 244/409 205/410
f 291/5 269/5 135/5 136/5
f 88/411 87/412 369/413 358/414
f 67/228 70/231 66/415 65/416
f 57/417 453/418 452/419 324/420
f 64/421 454/422 444/423 331/424
f 207/5 208/5 296/5 290/5
f 17/425 456/426 455/427 18/428
f 228/429 229/430 502/431 482/432
f 10/433 442/434 456/435 17/436
f 51/437 49/438 50/439 54/440
f 195/327 333/441 334/442 312/328
f 123/443 121/444 248/445 261/446
f 209/447 313/448 338/449 340/450
f 278/5 156/5 157/5 289/5
f 352/5 307/5 254/5 365/5
f 110/5 111/5 501/5 503/5
f 320/5 398/5 397/5 251/5
f 55/451 371/452 370/453 56/454
f 56/455 370/456 360/457 60/458
f 366/5 286/5 132/5 347/5
f 188/459 309/460 400/461 399/462
f 20/463 17/464 18/465 19/466
f 273/5 282/5 129/5 130/5
f 109/5 110/5 503/5 504/5
f 11/467 10/468 17/469 20/470
f 203/5 304/5 302/5 202/5
f 186/5 287/5 297/5 185/5
f 177/471 227/472 226/473 178/474
f 251/5 505/5 504/5 252/5
f 203/5 200/5 300/5 304/5
f 11/467 20/470 21/475 14/476
f 271/5 151/5 152/5 270/5
f 16/477 458/478 457/479 8/480
f 20/463 19/466 22/481 21/482
f 361/483 118/484 101/485 342/486
f 368/487 77/488 71/489 364/490
f 104/491 341/492 372/493 95/494
f 374/495 21/496 22/497 375/498
f 293/5 154/5 335/5 332/5
f 367/499 14/500 21/501 374/502
f 224/503 225/504 506/505 485/506
f 128/507 373/508 344/509 327/510
f 15/511 367/512 374/513 24/514
f 312/5 249/5 250/5 311/5
f 507/366 499/369 245/369 219/515
f 363/516 364/517 71/518 68/519
f 394/5 387/5 413/5 414/5
f 123/520 336/521 328/522 121/523
f 24/524 374/525 375/526 23/527
f 403/5 407/5 415/5 406/5
f 248/5 121/5 509/5 508/5
f 214/528 315/529 314/530 211/531
f 305/5 218/5 476/5 510/5
f 287/5 285/5 143/5 144/5
f 280/5 155/5 156/5 278/5
f 343/532 122/533 260/534 350/535
f 285/5 277/5 142/5 143/5
f 358/536 369/537 84/538 85/539
f 233/540 511/541 493/542 232/543
f 361/544 362/545 117/546 118/547
f 51/437 54/440 53/548 52/549
f 128/507 108/550 345/551 373/508
f 121/5 328/5 512/5 509/5
f 234/552 513/553 511/554 233/555
f 25/556 460/557 459/558 26/559
f 33/560 26/559 459/558 461/561
f 114/562 515/563 514/564 97/565
f 18/566 455/567 460/568 25/569
f 15/570 24/571 463/572 462/573
f 203/574 242/575 241/576 200/577
f 380/5 350/5 260/5 319/5
f 394/5 414/5 416/5 391/5
f 328/5 125/5 516/5 512/5
f 207/578 247/579 246/580 208/581
f 125/5 105/5 517/5 516/5
f 97/582 514/583 518/584 98/585
f 114/586 113/587 519/588 515/589
f 28/590 25/591 26/592 27/593
f 35/594 27/593 26/592 33/595
f 185/596 206/597 263/598 235/599
f 19/600 18/601 25/602 28/603
f 179/5 276/5 301/5 182/5
f 234/604 235/605 520/606 513/607
f 290/5 167/5 155/5 280/5
f 126/338 125/608 328/609 336/339
f 19/600 28/603 29/610 22/611
f 315/5 319/5 260/5 261/5
f 35/594 36/612 30/613 27/593
f 28/590 27/593 30/613 29/614
f 210/615 316/616 334/617 333/618
f 214/528 213/619 319/620 315/529
f 5/621 8/622 457/623 436/624
f 377/625 29/626 30/627 379/628
f 378/629 379/628 30/627 36/630
f 304/5 300/5 160/5 161/5
f 375/631 22/632 29/633 377/634
f 308/5 318/5 252/5 253/5
f 23/635 375/636 377/637 32/638
f 83/639 84/640 93/641 94/642
f 48/643 395/644 388/645 376/646
f 50/647 464/648 453/649 57/650
f 40/651 31/652 379/653 378/654
f 105/5 408/5 521/5 517/5
f 306/5 338/5 339/5 217/5
f 32/655 377/656 379/653 31/652
f 401/5 109/5 505/5 522/5
f 201/5 198/5 303/5 299/5
f 24/657 23/658 450/659 463/660
f 75/661 73/662 74/663 78/664
f 83/639 94/642 90/665 81/666
f 94/236 93/667 92/668 91/237
f 116/179 214/182 211/669 113/670
f 306/5 217/5 218/5 305/5
f 75/671 86/672 82/673 73/674
f 99/279 91/237 92/668 102/675
f 56/676 60/677 443/678 465/679
f 297/5 145/5 165/5 283/5
f 119/680 361/681 342/682 103/683
f 263/684 305/685 510/686 523/687
f 34/688 33/689 461/690 466/691
f 178/692 226/693 225/694 176/695
f 391/5 416/5 467/5 440/5
f 46/378 394/381 391/696 45/697
f 61/319 324/698 452/699 446/320
f 235/700 263/701 523/702 520/703
f 220/704 483/705 507/705 219/706
f 177/707 180/708 228/709 227/710
f 75/661 78/664 77/711 76/712
f 98/713 518/714 474/52 89/51
f 209/447 187/715 322/716 313/448
f 175/5 284/5 269/5 176/5
f 126/338 107/349 105/717 125/608
f 49/718 34/719 466/720 468/721
f 195/5 293/5 332/5 333/5
f 38/722 35/723 33/724 34/725
f 38/722 37/726 36/727 35/723
f 321/5 259/5 350/5 380/5
f 402/5 420/5 419/5 398/5
f 51/728 52/729 37/730 38/731
f 284/5 134/5 135/5 269/5
f 174/5 267/5 284/5 175/5
f 294/5 332/5 335/5 169/5
f 314/5 248/5 508/5 492/5
f 32/732 31/733 469/734 451/735
f 51/728 38/731 34/736 49/737
f 274/5 138/5 139/5 276/5
f 203/738 202/739 243/740 242/741
f 40/742 437/743 469/734 31/733
f 371/744 383/745 37/746 52/747
f 302/5 162/5 163/5 275/5
f 212/748 321/749 380/750 381/751
f 383/752 378/753 36/754 37/755
f 264/5 150/5 151/5 271/5
f 96/756 95/494 372/493 382/757
f 39/758 40/759 378/760 383/761
f 226/762 524/763 506/764 225/765
f 315/5 261/5 248/5 314/5
f 55/766 39/767 383/768 371/769
f 193/5 270/5 389/5 402/5
f 170/770 220/771 219/772 171/773
f 191/774 193/775 320/776 318/777
f 110/778 109/779 401/780 403/781
f 120/782 212/783 381/784 362/785
f 186/5 183/5 285/5 287/5
f 123/443 261/446 260/786 122/787
f 304/5 161/5 162/5 302/5
f 188/5 399/5 404/5 288/5
f 112/788 384/789 405/790 393/791
f 173/5 279/5 286/5 172/5
f 173/46 221/49 220/792 170/793
f 267/5 366/5 347/5 133/5
f 87/794 96/795 382/796 369/797
f 223/798 484/799 490/800 354/801
f 75/671 76/802 85/803 86/672
f 360/804 58/805 329/806 359/807
f 353/5 172/5 286/5 366/5
f 310/5 255/5 256/5 309/5
f 182/808 181/353 231/352 230/809
f 266/5 168/5 146/5 298/5
f 400/5 392/5 422/5 421/5
f 193/810 402/811 398/812 320/813
f 206/814 340/815 338/816 306/817
f 196/5 278/5 289/5 199/5
f 196/818 199/105 238/104 237/819
f 292/5 288/5 147/5 148/5
f 74/820 498/821 500/822 66/823
f 175/824 176/825 225/826 224/827
f 64/828 331/829 359/830 385/831
f 279/5 131/5 132/5 286/5
f 288/5 404/5 396/5 147/5
f 402/5 389/5 423/5 420/5
f 382/832 372/833 92/834 93/835
f 86/108 85/836 84/837 83/109
f 287/5 144/5 145/5 297/5
f 389/5 390/5 418/5 423/5
f 309/5 256/5 392/5 400/5
f 64/421 44/838 470/839 454/422
f 202/840 205/841 244/842 243/843
f 276/5 139/5 140/5 301/5
f 308/5 253/5 254/5 307/5
f 405/5 406/5 415/5 424/5
f 310/5 352/5 365/5 255/5
f 227/844 481/845 524/846 226/847
f 113/848 211/849 491/850 519/851
f 299/5 303/5 158/5 159/5
f 399/5 400/5 421/5 425/5
f 268/5 275/5 163/5 164/5
f 124/852 343/853 350/854 259/855
f 201/856 240/857 239/858 198/859
f 177/5 178/5 291/5 281/5
f 393/5 405/5 424/5 426/5
f 393/5 426/5 525/5 495/5
f 341/860 102/861 92/834 372/833
f 15/335 462/336 458/337 16/386
f 399/5 425/5 412/5 404/5
f 123/520 122/862 330/863 336/521
f 209/5 266/5 298/5 187/5
f 301/5 140/5 141/5 272/5
f 229/864 230/865 486/866 502/867
f 49/868 468/869 464/870 50/871
f 55/872 56/873 465/874 441/875
f 398/5 419/5 417/5 397/5
f 384/876 111/877 406/878 405/879
f 110/778 403/781 406/880 111/881
f 64/828 385/831 386/882 44/883
f 210/884 262/885 317/886 316/887
f 407/5 408/5 105/5 107/5
f 410/5 44/5 386/5 409/5
f 412/5 298/5 146/5 411/5
f 410/5 447/5 470/5 44/5
f 409/5 386/5 43/5 413/5
f 414/5 413/5 43/5 42/5
f 407/5 107/5 106/5 415/5
f 414/5 42/5 41/5 416/5
f 408/5 401/5 522/5 521/5
f 416/5 41/5 445/5 467/5
f 420/5 194/5 311/5 419/5
f 421/5 422/5 257/5 322/5
f 420/5 423/5 295/5 194/5
f 423/5 418/5 153/5 295/5
f 424/5 415/5 106/5 345/5
f 425/5 421/5 322/5 187/5
f 426/5 424/5 345/5 108/5
f 426/5 108/5 488/5 525/5
f 425/5 187/5 298/5 412/5
f 419/5 311/5 250/5 417/5
f 428/5 1/5 427/5
f 429/5 430/5 163/5 162/5
f 431/5 164/5 163/5 430/5
f 428/5 431/5 1/5
f 432/5 427/5 1/5 3/5
f 432/5 3/5 4/5 433/5
f 434/5 433/5 4/5 346/5
f 435/5 434/5 346/5 5/5
f 435/5 5/5 436/5
f 438/5 143/5 142/5 437/5
f 439/5 440/5 390/5 152/5
f 441/5 144/5 143/5 438/5
f 442/5 429/5 162/5 161/5
f 443/5 444/5 326/5 165/5
f 446/5 154/5 153/5 445/5
f 448/5 396/5 411/5 447/5
f 449/5 147/5 396/5 448/5
f 450/5 451/5 140/5 139/5
f 453/5 169/5 335/5 452/5
f 454/5 168/5 326/5 444/5
f 456/5 160/5 159/5 455/5
f 442/5 161/5 160/5 456/5
f 458/5 136/5 135/5 457/5
f 460/5 158/5 157/5 459/5
f 461/5 459/5 157/5 156/5
f 455/5 159/5 158/5 460/5
f 462/5 463/5 138/5 137/5
f 436/5 457/5 135/5 134/5
f 464/5 166/5 169/5 453/5
f 463/5 450/5 139/5 138/5
f 465/5 443/5 165/5 145/5
f 466/5 461/5 156/5 155/5
f 440/5 467/5 418/5 390/5
f 446/5 452/5 335/5 154/5
f 468/5 466/5 155/5 167/5
f 451/5 469/5 141/5 140/5
f 437/5 142/5 141/5 469/5
f 454/5 470/5 146/5 168/5
f 462/5 137/5 136/5 458/5
f 468/5 167/5 166/5 464/5
f 441/5 465/5 145/5 144/5
f 447/5 411/5 146/5 470/5
f 467/5 445/5 153/5 418/5
f 152/5 151/5 45/5 439/5
f 151/5 150/5 46/5 45/5
f 150/5 149/5 47/5 46/5
f 149/5 351/5 376/5 47/5
f 351/5 148/5 48/5 376/5
f 148/5 147/5 449/5 48/5
f 471/5 472/5 68/5 67/5
f 473/5 474/5 238/5 239/5
f 475/5 476/5 218/5 217/5
f 477/5 478/5 241/5 242/5
f 479/5 475/5 217/5 339/5
f 480/5 479/5 339/5 258/5
f 481/5 482/5 88/5 79/5
f 471/5 67/5 65/5 483/5
f 485/5 69/5 484/5
f 486/5 487/5 95/5 96/5
f 488/5 480/5 258/5 257/5
f 489/5 473/5 239/5 240/5
f 490/5 363/5 68/5 472/5
f 491/5 492/5 317/5 262/5
f 478/5 489/5 240/5 241/5
f 493/5 104/5 95/5 487/5
f 494/5 495/5 392/5 256/5
f 496/5 112/5 494/5
f 497/5 496/5 255/5 365/5
f 477/5 242/5 243/5 498/5
f 499/5 500/5 244/5 245/5
f 501/5 497/5 365/5 254/5
f 482/5 502/5 87/5 88/5
f 503/5 501/5 254/5 253/5
f 504/5 503/5 253/5 252/5
f 505/5 109/5 504/5
f 485/5 506/5 72/5 69/5
f 499/5 507/5 65/5
f 508/5 509/5 216/5 215/5
f 510/5 476/5 259/5 321/5
f 511/5 103/5 104/5 493/5
f 509/5 512/5 337/5 216/5
f 513/5 119/5 103/5 511/5
f 515/5 247/5 236/5 514/5
f 512/5 516/5 249/5 337/5
f 516/5 517/5 250/5 249/5
f 514/5 236/5 237/5 518/5
f 515/5 519/5 246/5 247/5
f 513/5 520/5 120/5 119/5
f 517/5 521/5 417/5 250/5
f 522/5 505/5 251/5 397/5
f 523/5 510/5 321/5 212/5
f 520/5 523/5 212/5 120/5
f 483/5 65/5 507/5
f 518/5 237/5 238/5 474/5
f 492/5 508/5 215/5 317/5
f 524/5 80/5 72/5 506/5
f 484/5 69/5 363/5 490/5
f 498/5 243/5 244/5 500/5
f 481/5 79/5 80/5 524/5
f 519/5 491/5 262/5 246/5
f 495/5 525/5 422/5 392/5
f 502/5 486/5 96/5 87/5
f 521/5 522/5 397/5 417/5
f 525/5 488/5 257/5 422/5

 