# File exported by ZBrush version 2021
# www.zbrush.com
#Vertex Count 744
#Face Count 742
#Auto scale x=0.047110 y=0.047110 z=0.047110
#Auto offset x=-0.029091 y=0.022900 z=-0.434581
v -0.35329661 -11.87799038 0.38323044
v 2.61721663 5.29448501 1.69822183
v -2.25519384 -11.5011442 12.10579639
v -1.76192672 5.31504155 1.70016647
v 0.47865936 10.69003901 -2.48343128
v 0.19765028 -11.23756241 21.8383046
v 0.09386977 -11.87791447 0.99136069
v 0.83077806 -11.87757539 0.99821372
v -1.28819181 -4.93114972 20.53979387
v 0.88395697 -4.98975849 18.5306776
v 0.44141181 10.15779939 -0.42244508
v 5.21804337 -6.01583283 12.102479
v 0.43874031 -11.82978071 17.233675
v -0.14571836 -11.90816318 0.21539363
v -0.35409781 -11.87271951 0.61863025
v -0.15582883 -11.91480808 0.47064526
v 4.08771549 -11.36603718 12.45960937
v 3.47948782 -11.52598286 12.30414507
v 1.09350311 -11.86947044 0.26599076
v 0.85489234 -11.9018523 0.15869817
v 0.86926979 -11.91114655 0.38153695
v 1.1317631 -11.87486025 0.50775206
v -3.83243349 -5.82780639 11.80223007
v -4.11367323 -4.89955545 12.07816793
v -4.32338669 -6.12253329 13.88520947
v -3.41610888 -6.40392233 10.99320236
v -4.13083078 -7.06437862 13.88919489
v 3.37382799 6.10135679 1.81012485
v 3.59152052 7.01144654 0.42304289
v 2.97145456 5.92606788 0.40240031
v 2.40160759 4.78546109 0.40473526
v 2.22147481 4.56270328 1.41493308
v 2.47032573 5.33188913 2.9273154
v 3.08254863 5.51888442 2.94376443
v 1.4984773 4.55433327 1.87768089
v 1.5662803 5.17443908 2.33819686
v 1.62698023 5.25302018 3.08997685
v -2.44878026 -11.56975164 12.76149169
v -1.66368643 -11.83591193 12.84382668
v -1.61009739 -11.6150412 11.95237921
v -1.52710606 5.25432462 2.9075262
v -0.66731691 5.26260417 3.07738672
v -0.64134446 5.13358156 2.39105176
v -2.52726458 6.20673131 1.83910961
v -2.1368958 5.48982312 2.95684546
v -2.16472922 5.99370616 0.37374451
v -2.77395135 7.06899475 0.44061733
v -1.38598992 4.56071627 1.41676827
v -1.58925047 4.82376193 0.36521254
v -0.59371347 4.53462568 1.90857802
v 0.45432409 10.84363585 -3.16406013
v 1.67430441 10.77142004 -2.75189427
v 1.2158996 10.63688236 -2.21991781
v 0.4819036 10.48629926 -1.64286434
v -0.25274508 10.628203 -2.1990671
v -0.70714011 10.758568 -2.71453759
v 0.96000437 -11.33862002 21.46334106
v -0.57025294 -11.36996946 21.32989653
v 0.18735477 -11.54122109 20.74426998
v -0.00390761 -11.87191483 1.1262754
v 0.30822332 -11.86030018 1.23915137
v 0.30383612 -11.88425572 1.05101168
v 0.24380359 -11.91708293 0.67270229
v -0.09353101 -11.90208257 0.82321391
v -0.24086901 -11.87465781 0.91477167
v 0.59989352 -11.87960733 1.02069908
v 0.64679175 -11.84576288 1.17238292
v 0.93576202 -11.85452575 1.07256965
v 0.87525828 -11.90782663 0.72089741
v 0.54528966 -11.92800425 0.65961809
v 1.09768033 -11.87891146 0.82453162
v -1.88492597 -4.97435642 19.57111527
v -1.0341377 -4.96646371 19.27338538
v -0.47522565 -4.92569001 20.47963047
v -1.40500433 -4.92260858 21.06848584
v -2.41649266 -5.00637927 19.92352134
v -0.21414233 -4.89105765 21.29245888
v 1.54652099 -4.98100733 19.09302423
v 0.56372942 -4.95111383 19.97020263
v -0.00495449 -4.97746948 18.8829116
v 1.04638978 -4.95514827 17.47985633
v 2.20736626 -4.96656524 17.80396464
v -0.25837006 -4.94221906 17.52451455
v -0.28548879 10.27899666 -0.83811179
v 1.24138613 10.28302763 -0.85029768
v 1.66934454 9.92654568 0.21350973
v 0.43815641 9.86173768 0.39797017
v -0.77392865 9.92064789 0.25093599
v 5.46693542 -5.21133047 12.60128411
v 5.06748431 -3.67103155 10.92089038
v 4.90165413 -4.12818111 10.56101387
v 5.38503186 -7.12336095 14.6074246
v 5.55838627 -6.06431769 14.67149118
v 4.57642989 -4.40793486 10.0260009
v 4.83819611 -6.38792877 11.02429497
v -0.4276595 -11.80651092 17.61087165
v 0.27904166 -11.74076034 18.82404251
v 1.19273948 -11.79433704 17.79431992
v 1.80088326 -11.84244549 16.32173994
v 0.61559698 -11.86363528 16.03496679
v -0.63033616 -11.85502424 16.04626641
v -1.77126083 -11.80596688 16.12650621
v -1.45103071 -11.7462134 17.96714294
v 0.8244754 -11.8986589 14.4898724
v -0.574208 -11.88922294 14.39249783
v -1.76925768 -11.83825005 14.37109169
v -2.62739352 -11.62831834 14.34380611
v -2.64366416 -11.64003927 16.18009177
v -0.46518982 -11.89060962 12.93453358
v 0.98067692 -11.91591134 13.06915476
v 1.03225854 -11.70029883 12.02988488
v -0.42878601 -11.69047066 11.94092523
v -1.87320789 -6.54897076 9.97695999
v -2.83269139 -6.48327521 10.37725056
v -1.62950417 -4.5771691 9.34180162
v -2.4995444 -4.39317868 9.55400312
v -3.10968001 -4.1428133 9.90430197
v -3.48694308 -3.8218095 10.29625353
v -2.02572202 -2.75653791 8.73453867
v -2.56457254 -2.56829353 8.90926014
v -2.92619315 -2.3449909 9.15333172
v -3.13686501 -2.0885808 9.4514165
v -3.69909777 -3.48401981 10.63103012
v -2.06536004 -1.14904512 8.05166723
v -2.45674984 -0.98375131 8.21566918
v -2.68915679 -0.76652177 8.48929867
v -2.20763069 0.3352901 7.38135619
v -2.42810858 0.52454665 7.65483575
v -2.28802421 0.91280774 8.30715989
v -2.58289978 -0.35073614 9.15910615
v -2.36294443 1.8297842 6.84577704
v -2.18316021 2.22806957 7.5031304
v -1.80575844 2.29560126 7.62177764
v -1.91639846 0.9577908 8.45066223
v -2.22264371 3.54411647 6.72079615
v -1.82544389 3.61934223 6.79663111
v -1.37033085 3.64507286 6.78772212
v -1.36348004 2.29652455 7.6421191
v -2.35905263 4.78847894 5.93508821
v -1.96938621 4.8812551 5.98137413
v -1.53016219 4.92731707 5.95778676
v -1.01733377 4.95420474 5.93551838
v -0.87321717 3.66361994 6.77275718
v -2.21002827 6.05237787 5.16969769
v -1.77233184 6.10609502 5.13190958
v -1.22127992 6.12820461 5.10857336
v -0.46646421 6.14627185 5.08280414
v -0.35955673 4.97315257 5.91385098
v -2.01584419 7.23811006 4.17746716
v -1.42404783 7.2557971 4.15009491
v -0.60547726 7.2703034 4.12482861
v 0.40566361 7.26674689 4.11421949
v 0.4238924 6.15330517 5.06415174
v -1.62336599 8.38933863 2.90212121
v -0.7729674 8.38429422 2.90050174
v 0.40016871 8.36975819 2.90658172
v 1.6224688 8.37281242 2.88538751
v 1.44016459 7.26154876 4.10580898
v -0.86937741 9.30864103 1.54295934
v 0.41430636 9.28227652 1.57633186
v 1.75188513 9.31418519 1.50229919
v 2.64831524 9.33124026 1.44774005
v 2.49488035 8.37066788 2.87165236
v 2.55021728 10.00132799 0.00799361
v 3.17832888 10.05705365 -0.14125152
v 3.29981494 9.3320715 1.42624851
v 2.075901 10.41674291 -1.29992334
v 2.63643632 10.51792452 -1.61937946
v 3.06423547 10.60443724 -1.89951783
v 3.69945013 10.1002923 -0.25492837
v 1.91937748 10.85426617 -3.13162513
v 2.11779409 10.90924473 -3.50246914
v 3.4423108 10.67695418 -2.15605239
v 0.43358741 10.92340499 -3.61070557
v 0.42873208 10.9653797 -4.01555597
v -0.97107838 10.84960007 -3.09783636
v -1.20658779 10.908726 -3.48247119
v -1.22349531 10.17327547 -3.65291307
v 0.43386513 10.25663782 -4.12665178
v -2.46379138 10.66572415 -2.15432917
v -2.53256835 9.91498796 -2.41554249
v -2.33553169 9.42746412 -2.41779204
v -1.09588673 9.66653558 -3.53796089
v -3.31405364 9.42783357 -0.7012069
v -3.11312203 8.98221547 -0.82918508
v -2.86974821 8.4416963 -0.9235902
v -2.09288917 8.77368372 -2.3425726
v -3.560321 8.60963559 1.04244936
v -3.38291159 8.20297277 0.83787329
v -3.12999744 7.72470586 0.63291197
v -2.52696536 7.62077875 -0.94124371
v -3.25772763 7.17321792 2.28353334
v -2.98780586 6.75529977 2.05876828
v -2.925162 6.13436999 3.38614547
v -2.58009481 5.77145887 3.17454558
v -2.6260195 5.19363995 4.24513138
v -2.28434751 4.98652966 4.01019622
v -1.83214161 4.89765352 3.88403646
v -2.03845465 4.02886665 4.7820156
v -1.58394512 4.00157221 4.70694989
v -1.06389614 4.00914925 4.68043039
v -1.31216649 4.87256562 3.84548353
v -0.39082346 4.02466266 4.67159193
v -0.58389083 4.85034595 3.8730949
v 0.52959706 4.04764652 4.67065219
v 0.48997321 4.81683742 3.95724105
v 0.47882059 5.2473533 3.21203384
v 1.60958102 4.87054444 3.89510328
v 0.46959909 5.20716001 2.47836916
v 0.45650935 4.55372945 1.97663698
v 1.17485602 -5.21267476 -0.00934359
v 1.29329591 -5.19918221 0.36815796
v 0.8847739 -5.22182541 -0.25227269
v 0.86423128 -7.04742793 -0.09430327
v 1.13263523 -7.04114299 0.12415217
v 0.49491774 -5.22557614 -0.34428339
v 0.50588777 -7.04955412 -0.17582663
v 0.09559576 -5.22386747 -0.28400612
v 0.13513438 -7.047922 -0.13274739
v -0.18053195 -7.04216528 0.04320575
v -0.37012457 -7.03309497 0.34329083
v -0.40491888 -7.02298275 0.70342671
v -0.28729805 -7.01405098 1.03428241
v 0.51799261 -11.92404919 0.10512843
v 0.54457782 -11.93757938 0.32196441
v 0.17528859 -11.91960577 0.11893443
v 0.20192512 -11.92408968 0.30878089
v 1.24955758 -7.03101559 0.46364927
v 1.22895047 -7.02027014 0.83008717
v 1.27584305 -5.18555745 0.77547679
v 1.05391772 -7.01170338 1.12839274
v 1.10845907 -5.17495212 1.11916174
v 0.76698868 -5.16991626 1.28459528
v -1.5050281 4.93573263 -0.55821317
v -1.07080562 4.98103358 -1.25815044
v -1.49815483 6.44592676 -1.65448912
v -2.04247044 6.34333887 -0.80656813
v -1.83476408 7.75385068 -2.07626048
v -0.61377784 6.48027476 -2.22621604
v -0.77376891 7.72239053 -2.78155592
v -0.91122559 8.86538509 -3.28076336
v 0.42866234 7.6784326 -3.06406023
v 0.43436378 8.8386252 -3.62102971
v 0.43269718 9.7264782 -3.95100734
v 1.8023691 8.87234249 -3.2346337
v 1.97772285 9.677517 -3.48813934
v 2.10627655 10.1715725 -3.61531348
v 3.25396331 9.47959912 -2.38895277
v 3.45386472 9.94130376 -2.39319377
v 4.2360016 9.39243924 -0.69297669
v 4.1704718 10.12944091 -0.35799703
v 4.30868112 9.26623552 1.43770818
v 3.83562183 9.31315277 1.43256635
v 4.11058674 8.19066099 2.96779968
v 3.64750619 8.29013645 2.94559646
v 3.13033113 8.3442825 2.89640245
v 3.38934773 7.18828788 4.13325999
v 2.91606813 7.22869118 4.11703901
v 2.29749576 7.2468356 4.10878223
v 2.69960729 6.10139159 5.07131664
v 2.10638361 6.12593229 5.06253227
v 1.32788375 6.14509141 5.05822169
v 1.92645018 4.96817902 5.88475868
v 1.23840699 4.97944953 5.8870601
v 0.42980957 4.98442119 5.89512267
v 1.16074901 3.67979442 6.73526892
v 0.43487469 3.67891636 6.74617822
v -0.27540394 3.67380964 6.75902646
v 0.45364365 2.25699392 7.65719411
v -0.23843078 2.27012462 7.65730102
v -0.8599288 2.28724421 7.65154873
v -0.31530005 0.85650197 8.5779787
v -0.95557858 0.91019128 8.5465641
v -1.47858515 0.94582679 8.51411708
v -1.22694222 -0.44855255 9.46655224
v -1.76870573 -0.39401915 9.41616134
v -2.20431647 -0.34612202 9.32748068
v -2.21184954 -1.69615669 10.38898794
v -2.66954725 -1.63633284 10.28316554
v -3.05777086 -1.62569714 10.10108812
v -3.18687571 -2.85958887 11.40938527
v -3.5883695 -2.92100641 11.23142549
v -4.01340195 -4.07367859 12.6104278
v -4.23145632 -4.92819228 14.2955395
v -4.16778132 -5.40326801 16.28524361
v -4.28595663 -6.71520328 16.12378474
v -3.97013863 -6.85772255 18.42232477
v -3.82452654 -7.61504544 18.41518012
v -4.14205132 -7.54427323 16.06055572
v -2.31864932 -11.58337039 18.20935908
v -1.53619219 -11.47444062 20.00109913
v -0.71864928 -11.65823809 19.54954087
v 1.17881764 -11.63359175 19.75134358
v 1.97660377 -11.40743242 20.35295989
v 2.93017494 -11.48234567 18.76506967
v 2.12553783 -11.70654392 18.36278133
v 3.67189822 -11.54001407 16.86535762
v 2.86220723 -11.76768407 16.64243471
v 4.0792373 -11.57125724 14.95352484
v 3.28562621 -11.80988145 14.85220406
v 2.17411299 -11.88320812 14.67520458
v 3.44589768 -11.79142705 13.24667298
v 2.34447184 -11.882034 13.14999554
v 2.40149768 -11.59401589 12.17258318
v 0.94221912 -6.56717527 9.75799529
v -0.60400929 -6.56955324 9.82030196
v 0.90350671 -4.79228027 9.22967783
v -0.48173375 -4.71367323 9.25085686
v 0.86333092 -3.09645285 8.62108577
v -0.29948553 -3.03893089 8.62631932
v -1.27330168 -2.91085276 8.64695811
v -0.09776489 -1.46536352 7.94741243
v -0.91650105 -1.36801156 7.9349893
v -1.56592786 -1.27472567 7.9603467
v -0.72699668 0.09573652 7.19128516
v -1.33992336 0.15126837 7.20061864
v -1.81721558 0.22002636 7.24807235
v -1.26067564 1.5639353 6.38253896
v -1.72806678 1.5890463 6.42629572
v -2.1411912 1.6583923 6.55594145
v -1.8227202 2.89221586 5.5842352
v -2.23726514 2.9506902 5.74205785
v -2.43141838 3.12681985 6.06064161
v -2.40216349 4.14193903 4.98540331
v -2.58120187 4.34043132 5.31292675
v -2.79494313 5.43322508 4.55645408
v -2.59411147 5.93910337 5.15480835
v -2.919163 7.07447882 4.24528194
v -2.4932158 7.19540153 4.21792677
v -3.25111943 8.22405755 3.02177239
v -2.78974184 8.31781045 2.99616512
v -2.26351008 8.36970569 2.93385718
v -2.95591237 9.36177933 1.4436648
v -2.41613271 9.3609076 1.4542831
v -1.76831826 9.3410697 1.48544087
v -2.25083961 10.07986101 -0.13860659
v -1.64048179 10.01002316 0.02400298
v -1.64803732 10.5186381 -1.61229174
v -1.1092458 10.41360013 -1.28894698
v -2.07463405 10.61168438 -1.89176967
v -2.75727269 10.13595169 -0.26723889
v -3.21621916 10.14705014 -0.39009295
v -3.43391295 9.30913889 1.42116109
v -3.41807312 7.55400018 2.54608652
v -3.10238923 6.45955627 3.68391901
v -1.35312317 2.8912815 5.52800787
v -0.70158868 1.54761564 6.36970401
v -0.82784553 2.89622943 5.50881586
v -0.04411607 1.5277529 6.37061497
v -0.18440493 2.89368193 5.50609818
v 0.67640711 1.52255778 6.3696534
v 0.59849297 2.89711192 5.50478742
v 1.40004983 1.5463188 6.35568609
v 1.37446857 2.91282017 5.49660845
v 1.46637569 4.05582707 4.67652721
v 2.00351042 2.9299075 5.48580607
v 2.13298993 4.05713814 4.67438362
v 2.35342164 4.91660072 3.83516445
v 2.65376736 4.05863995 4.68745991
v 2.85789253 4.94954496 3.85526489
v 3.11221677 4.09200425 4.7475104
v 3.30129397 5.03895249 3.97050807
v 3.55099322 5.78163118 3.10268782
v 3.64923573 5.22921331 4.16643704
v 3.88569073 6.13823522 3.27691016
v 4.1149182 7.10135383 2.18402625
v 3.84008297 6.63521905 1.97361755
v 4.24099856 8.12566131 0.79999156
v 3.98185387 7.66401107 0.59401111
v 4.02839535 8.9707362 -0.83033895
v 3.75057675 8.44711457 -0.93076143
v 3.35615297 7.56319828 -0.92968789
v 2.83012443 6.28294963 -0.78376836
v 2.99473384 8.80712077 -2.30838908
v 2.67048256 7.71911679 -2.04417468
v 2.29069508 6.41303565 -1.65618956
v 1.85072854 4.9572868 -1.27176792
v 2.28354014 4.91288795 -0.54990262
v 1.62901975 7.72271252 -2.76983751
v 1.42555708 6.46513016 -2.22953848
v 1.16792649 4.99991119 -1.72531067
v 0.41432913 6.46143701 -2.46455936
v 0.39824029 4.9920131 -1.95304899
v -0.37275495 5.00293884 -1.71012559
v -0.45867619 -5.19159916 0.67713433
v -0.42660162 -5.20501105 0.27516671
v -0.34108304 -5.1793848 1.04619186
v -0.04241056 -5.17185045 1.259403
v -0.011509 -7.00844546 1.2352077
v 0.35696731 -5.16909197 1.32061906
v 0.35343792 -7.00661027 1.30158583
v 0.73159383 -7.00751489 1.27319192
v -0.23604712 -5.21669055 -0.06925205
v 4.41474138 8.53395309 1.01749177
v 4.25854137 7.49835296 2.45145492
v 4.02102233 6.47215779 3.56137809
v 3.82520027 7.06934648 4.12382625
v 3.558408 5.96898073 5.01236468
v 3.15681046 6.06406591 5.07443602
v 3.35139893 4.83860351 5.83049307
v 2.93031711 4.91559298 5.88874347
v 2.47127511 4.95179704 5.88629401
v 2.79951482 3.66038574 6.70265047
v 2.34012932 3.67378086 6.71764704
v 1.81182941 3.67762047 6.72636119
v 2.31715748 2.31147557 7.58764219
v 1.78912034 2.29120369 7.61432806
v 1.15740332 2.26614489 7.64127014
v 1.86159577 0.86837093 8.53824216
v 1.16619583 0.81214677 8.58706356
v 0.41624095 0.80350703 8.60377829
v 1.20946805 -0.6064476 9.54266682
v 0.30085662 -0.60063857 9.55362672
v -0.52629438 -0.52298672 9.51304565
v 0.04846303 -1.88714816 10.50859294
v -0.88534566 -1.83316501 10.49243997
v -1.63668678 -1.75728513 10.44739206
v -1.23591274 -2.93595237 11.60742019
v -2.05031159 -2.89800516 11.57245476
v -2.68027373 -2.87506527 11.51001398
v -2.40497733 -3.81164193 12.8853244
v -3.07444637 -3.82008217 12.84248176
v -3.61703859 -3.8817613 12.76119183
v -3.31961552 -4.49774188 14.41588782
v -3.86559599 -4.62845197 14.38546071
v -3.30206069 -4.87927124 16.23414546
v -3.82920024 -5.05276609 16.28398599
v -3.04168558 -5.03155827 18.14756862
v -3.56194237 -5.20265206 18.30294182
v -3.88850962 -5.55356644 18.40040496
v -2.85225981 -5.12758066 20.20887492
v -3.15134537 -5.41762121 20.41013233
v -1.80732446 -5.20197644 21.83004276
v -1.85783334 -6.35031779 22.06088591
v -3.24169612 -6.65552888 20.5677576
v -1.7367977 -7.31526843 22.05965612
v -3.11562651 -7.46498803 20.56104945
v 4.16349921 -11.42184319 13.22792379
v 4.32352839 -6.52589707 10.35817115
v 3.52133094 -6.59671989 9.98468917
v 2.39982522 -6.61272989 9.81024605
v 3.27673556 -4.72483652 9.36238663
v 2.23390869 -4.78838025 9.25419322
v 2.89653735 -2.94880029 8.63459255
v 1.98240667 -3.04463605 8.60647193
v 2.50146673 -1.36265955 7.90506006
v 1.70088764 -1.45264971 7.92548123
v 0.81046163 -1.52508979 7.95885248
v 1.50520294 0.05613033 7.18405004
v 0.75036046 0.00979927 7.20791639
v -0.00266011 0.03699158 7.20233933
v 2.21470165 0.12128801 7.16279131
v 2.04349763 1.57821181 6.33987282
v 2.78614295 0.18917881 7.16647118
v 2.56280631 1.60508683 6.33976275
v 2.52489183 2.93686933 5.49234532
v 3.02326202 1.65038493 6.38936605
v 2.9908449 2.95459781 5.54735741
v 3.42105459 1.76438756 6.55346732
v 3.38853862 3.03938574 5.71655495
v 3.47831307 4.20684161 4.93363902
v 3.56811724 3.245481 6.0579543
v 3.63934113 4.42310128 5.25998866
v 3.7899312 5.48459652 4.46772091
v 3.23207576 3.61193346 6.63604397
v 3.22107963 2.30208832 7.46521703
v 2.78336153 2.32218338 7.5508498
v 3.37768246 0.96779389 8.33273553
v 2.94081901 0.95424884 8.43613759
v 2.45063933 0.9176747 8.49021974
v 3.25459987 -0.41999547 9.35415263
v 2.72015877 -0.47275512 9.42110516
v 2.03446148 -0.53915124 9.48323407
v 3.08384089 -1.83681657 10.41808088
v 2.30073945 -1.87952873 10.47114707
v 1.30282755 -1.89909035 10.4985073
v 2.59066076 -3.03339179 11.61245826
v 1.36666268 -3.00637412 11.61352863
v -0.09990089 -2.97287192 11.61711425
v 1.38713683 -3.8881212 12.94146442
v -0.21941621 -3.84874683 12.91970655
v -1.5115955 -3.82332333 12.90767438
v -0.28998694 -4.44591528 14.40577117
v -1.65980665 -4.43850778 14.40778539
v -2.62066639 -4.45189404 14.41768442
v -1.63632019 -4.78411079 16.05704602
v -2.6024391 -4.80843419 16.15295928
v -1.44961715 -4.94012609 17.72911971
v -2.36675588 -4.96254471 17.94214992
v -0.31207977 -4.78548576 15.98349034
v 1.23185915 -4.80690265 16.02223116
v 1.35460283 -4.47709582 14.45011056
v 2.82960396 -4.52478517 14.55484868
v 2.63228911 -4.84049057 16.22366064
v 2.78878455 -3.93387193 12.98339357
v 3.7821862 -3.98184975 13.02180291
v 3.89936958 -4.58691946 14.66883929
v 3.46316594 -3.04156475 11.60404586
v 4.13501547 -3.04831687 11.56754321
v 4.52843531 -4.04483996 13.03140334
v 3.68286129 -1.79031525 10.35398899
v 4.17168577 -1.74856592 10.23167454
v 4.68538876 -3.09522654 11.46021647
v 3.70840468 -0.37809162 9.23507649
v 3.78581166 0.67460256 7.7479377
v 4.1183115 -0.657726 8.62849296
v 3.60167638 1.97846964 6.8908357
v 3.61827091 0.44546136 7.41431879
v 3.24702172 0.28707814 7.23505014
v 3.6140179 -1.11371405 8.05123579
v 3.94987877 -0.90586915 8.29282566
v 4.10947399 -2.60116788 8.98322258
v 4.41920379 -2.34707897 9.28232713
v 4.58537179 -2.07179412 9.62516755
v 5.12175435 -4.20517469 12.97534429
v 5.27390632 -4.89127116 14.78858789
v 4.68456447 -4.67927051 14.75504837
v 4.9743463 -5.19036083 16.83040232
v 4.44198964 -4.97288561 16.68069222
v 3.68342874 -4.88761691 16.46991535
v 3.79148298 -5.04460452 18.59149638
v 3.12453235 -4.9849143 18.22392801
v 2.75246614 -4.99632811 20.29136933
v 2.21867205 -4.9698083 19.72512331
v 1.3298748 -4.94450688 21.39270422
v 1.03743046 -4.91631098 20.80374258
v -0.15701481 -4.92762452 21.85701963
v -0.16199579 -5.12048914 22.24152288
v -1.61791514 -4.98567406 21.52019972
v 1.50842441 -5.1391602 21.80608975
v 3.08940561 -5.18444185 20.66988559
v 3.23275344 -6.43269959 20.87572813
v 1.66540427 -6.30051079 22.11678807
v 4.24225112 -5.24716288 18.86233417
v 4.43620509 -6.4868235 19.04965526
v 4.30891012 -7.39490473 19.06643452
v 3.16161431 -7.34378633 20.88671018
v 5.2125068 -6.40937792 16.90272316
v 5.05489038 -7.32924777 16.88725972
v 1.69408585 -7.30145864 22.14373205
v -0.06458927 -7.24693049 22.57615144
v -0.10262015 -6.23222725 22.54187429
v 3.61302091 -2.80245913 8.75255847
v 4.04767593 -4.60322552 9.60804353
v 3.13815126 -1.25952232 7.93292954
v -0.52185681 -11.89267697 13.67371016
v -1.71291712 -11.83993531 13.6046017
v -2.54731884 -11.57716831 13.52051439
v 0.9026297 -11.90729018 13.77902648
v 3.36783658 -11.80872251 14.07238379
v 2.26331223 -11.8925378 13.9375159
v 4.13994538 -11.48339327 14.10009954
v 4.3069617 -7.59225642 10.78131084
v 4.76287482 -7.4685572 11.51014936
v 5.11851161 -8.03120305 14.67806523
v 4.7726138 -8.18869105 16.88278846
v 4.02750211 -8.22917533 19.00492366
v 2.91974658 -8.17320042 20.77776776
v 1.54425547 -8.12546836 22.00486228
v -0.01106468 -8.06144227 22.42555315
v -1.49869919 -8.14285745 21.91070767
v -2.79325471 -8.28334036 20.44676024
v -3.51716775 -8.42500498 18.37316999
v -3.83622217 -8.38024364 16.08495282
v -3.82906803 -8.00751194 13.97147041
v -3.29989212 -7.47867067 11.38105842
v -2.7223041 -7.55342704 10.73147031
v -1.83100197 -7.6154269 10.36367546
v -0.57098028 -7.64059578 10.24360992
v 0.96433681 -7.64699016 10.21111103
v 2.41862629 -7.68796914 10.27535664
v 3.53904265 -7.66707795 10.43412441
v 5.03047873 -7.55568924 12.71648807
v -3.63648555 -7.34870042 12.53708721
v 4.82119038 -9.04395976 14.75687027
v 4.80021315 -8.58282383 13.1045706
v 4.59902596 -8.69451999 12.08816059
v -3.05567946 -8.7136013 11.82793034
v -3.32649638 -8.64605158 12.84224516
v -3.49243158 -9.05963891 14.06325401
v 4.22336086 -8.81889421 11.34552112
v 4.4577156 -9.14745417 16.87780352
v 3.7135737 -9.15985769 18.93630484
v 2.64992744 -9.09846576 20.65623394
v 1.37711002 -9.04470244 21.8499395
v 0.04864553 -8.97008208 22.25755059
v -1.23308451 -9.0660858 21.74454727
v -2.43362807 -9.19626608 20.31926221
v -3.17429001 -9.3285656 18.3263065
v -3.49504867 -9.31282319 16.11217008
v -2.56771343 -8.77241914 11.16325203
v -1.74860625 -8.82577697 10.82333868
v -0.52582689 -8.84352031 10.72155989
v 0.98901052 -8.85159237 10.71659014
v 2.38853699 -8.92018335 10.82283386
v 3.49021239 -8.89986214 10.98827815
v 4.4518039 -10.30219181 14.85477624
v 4.48146871 -10.10363879 13.65475727
v 4.41540878 -10.13410069 12.70829961
v -2.78000223 -10.19897384 12.3202778
v -2.95911526 -10.17300978 13.19615683
v -3.06692088 -10.35998357 14.23862264
v 4.1555929 -10.23040489 11.9531649
v 4.06649091 -10.3386078 16.87160651
v 3.32355349 -10.31612496 18.8510548
v 2.31470866 -10.24800021 20.50524597
v 1.16945115 -10.18674556 21.65746773
v 0.12282852 -10.09896256 22.04882843
v -0.90308932 -10.21308982 21.53811008
v -1.98683349 -10.33047121 20.16086262
v -2.74830359 -10.45113646 18.26808267
v -3.07118148 -10.47144439 16.14598543
v -2.40139235 -10.23485465 11.66599448
v -1.66413558 -10.28279103 11.36219283
v -0.46474621 -10.3198042 11.3102356
v 1.00863125 -10.34336183 11.3539525
v 2.39113511 -10.35115934 11.4547596
v 3.4777589 -10.31716813 11.61064142
v -0.13796355 -10.48131748 0.1800012
v -0.33580441 -10.46227919 0.38966025
v -0.35463821 -10.45611065 0.66466692
v -0.24194064 -10.45456582 0.9620552
v 0.00323878 -10.45101247 1.16363904
v 0.32557951 -10.44457696 1.2566423
v 0.66863403 -10.43731781 1.21123634
v 0.96414217 -10.44349458 1.09906637
v 1.13272119 -10.46029281 0.84506982
v 1.16205618 -10.46212547 0.52263096
v 1.08915105 -10.46199325 0.25204178
v 0.84558409 -10.48141364 0.104573
v 0.5131614 -10.49315924 0.0417381
v 0.17166297 -10.48970331 0.06265144
v 0.15373901 -8.80087758 -0.03322702
v -0.15885111 -8.79378226 0.11287786
v 0.50959231 -8.80343837 -0.06501739
v -0.26419684 -8.7663613 0.99749571
v -0.37931002 -8.77153096 0.68368623
v -0.00399775 -8.76180085 1.19875692
v 0.33924919 -8.75762248 1.27869496
v 0.69952737 -8.75436898 1.24163688
v 1.00819356 -8.75957091 1.1134569
v 1.17993933 -8.77232931 0.83771831
v 1.20499165 -8.77853518 0.49368922
v 1.110488 -8.78343662 0.18928912
v 0.85473396 -8.79641327 0.00698713
v -0.35264487 -8.77963339 0.3669073
v 1.40401042 -1.12793829 1.16582722
v 0.96350624 -1.10609605 1.4108572
v 1.53514886 -1.123079 0.6428964
v 1.51267797 -1.13206889 0.09074865
v -0.18333661 -1.11029078 1.40208864
v 0.39076051 -1.09591773 1.4590694
v -0.60334237 -1.13373431 1.11648835
v -0.02764252 -1.16110671 -0.7468387
v 0.45103952 -1.1677864 -0.88367526
v -0.43470041 -1.15615981 -0.43752325
v -0.67542455 -1.14165438 0.03231543
v 1.31083912 -1.15043298 -0.40194737
v 0.92634629 -1.15955264 -0.7257185
v -0.7132076 -1.12771561 0.57938967
v 1.64286355 1.20410972 1.21169941
v 1.12376981 1.24184168 1.51892852
v 1.75300334 1.22691518 0.55719215
v -0.30103573 1.2347935 1.52000775
v -0.82070736 1.19599875 1.17621525
v -0.10922471 1.19705299 -1.05328337
v 0.42561278 1.18651614 -1.24161474
v -0.5823974 1.196833 -0.69578483
v 1.41957523 1.20423386 -0.67397572
v 1.69832526 1.22491772 -0.10332613
v 0.41689578 1.26098515 1.57520772
v -0.87812098 1.21157004 -0.14462584
v 0.96069276 1.19785292 -1.04340396
v -0.92732289 1.22350448 0.51023947
v 1.40098111 -3.22505066 0.71149498
v 1.39916727 -3.23643853 0.23428326
v -0.11041971 -3.2117868 1.32826157
v 0.37327551 -3.20342311 1.38743368
v 0.86182591 -3.208762 1.34552793
v -0.33191499 -3.25712349 -0.24697587
v -0.54668076 -3.24408041 0.15796941
v 1.24048 -3.25228184 -0.19880922
v 0.90483629 -3.26141763 -0.48075305
v 0.4737425 -3.26733218 -0.60458765
v -0.58151033 -3.23041422 0.62996403
v -0.46764639 -3.22699909 1.08011601
v 1.25108889 -3.22190819 1.1416819
v 0.03612238 -3.26322435 -0.50736427
v 1.50814527 3.12220404 -0.89555372
v 1.84954256 3.14477797 -0.26140752
v -0.7027027 3.11343991 -0.90614861
v -0.17567654 3.11786879 -1.30289595
v -1.10172837 3.13866731 0.45391219
v -0.99775982 3.09366052 1.22486585
v -1.04322509 3.12836594 -0.28875067
v 0.98866935 3.11805477 -1.30217099
v 0.40490172 3.10418994 -1.53317039
v 0.43818393 3.18077675 1.66980705
v 1.25431095 3.15433096 1.60695697
v -0.3969066 3.14495889 1.61605765
v 1.93045442 3.14108007 0.48738276
v 1.83741913 3.10365634 1.24906368
v -2.63299842 -0.54677284 8.84330269
v -3.09506238 -1.84393988 9.79477756
v -2.35407212 0.72974836 7.9995993
v -2.26792568 2.04028399 7.19319817
v -1.21455927 10.56197417 -3.56283245
v 0.4311522 10.63121674 -4.06793579
v -2.49621879 10.31176314 -2.27748752
v -3.26234692 9.80795159 -0.5367792
v 3.44775818 10.33010367 -2.26785925
v 2.1123638 10.56144531 -3.55567387
v 4.20136766 9.78195589 -0.51593482
v -4.06067789 -4.46306714 12.3594741
v -3.64057661 -3.18645851 10.94834803
v -4.27480062 -5.49130595 14.10207454
v -4.2234994 -6.02182615 16.20911955
v -3.92699677 -6.16845672 18.41073922
v 5.28450121 -4.67956182 12.79897994
v 5.40803533 -5.44434441 14.73337907
v -0.13400106 -5.64465734 22.38313309
v 1.58243809 -5.68671934 21.95257863
v -1.8311383 -5.74340214 21.93888143
v -2.32107727 3.34736765 6.40954303
v -2.46379265 4.57723077 5.64174861
v -2.68880063 5.70058987 4.87269277
v -3.32983528 7.90813579 2.7974938
v -3.49351333 8.97933395 1.24260413
v -3.0055511 6.78455213 3.98060763
v 4.18034489 7.86424872 2.72435058
v 4.35868676 8.92097601 1.23958217
v 3.91752728 6.78778095 3.85864048
v -3.19394382 -6.00127593 20.48445093
v 5.0866352 -5.7651094 16.86450108
v 4.33369754 -5.83164441 18.95065236
v 3.15699186 -5.77297649 20.76693753
v 3.48715943 4.6427008 5.56150881
v 3.6675674 5.74060096 4.75557297
v 3.39051425 3.43915663 6.36348359
v 3.57010932 0.82955855 8.05701212
v 3.90166974 -0.50993506 8.94908208
v 3.40052525 2.14950681 7.19440518
v 4.86554179 -3.36671022 11.20593272
v 4.36673225 -1.90096302 9.94571555
g Group1
f 1 14 619 620
f 1 620 621 15
f 1 15 16 14
f 65 64 16 15
f 67 66 62 61
f 70 63 62 66
f 19 20 21 22
f 27 23 24 25
f 71 22 21 69
f 2 28 29 30
f 2 30 31 32
f 2 33 34 28
f 2 32 35 36
f 2 36 37 33
f 80 79 74 73
f 3 38 39 40
f 123 24 23 118
f 4 41 42 43
f 4 44 45 41
f 4 46 47 44
f 4 48 49 46
f 4 43 50 48
f 5 51 52 53
f 5 53 54 55
f 5 55 56 51
f 160 159 88 87
f 167 85 54 53
f 6 57 59 58
f 7 60 61 62
f 7 62 63 64
f 7 64 65 60
f 8 66 67 68
f 8 69 70 66
f 8 68 71 69
f 9 72 73 74
f 9 75 76 72
f 9 74 77 75
f 10 78 79 80
f 10 81 82 78
f 10 80 83 81
f 11 84 54 85
f 11 85 86 87
f 11 87 88 84
f 12 89 90 91
f 12 92 93 89
f 12 91 94 95
f 13 96 97 98
f 13 98 99 100
f 13 100 101 96
f 101 102 103 96
f 101 100 104 105
f 101 105 106 102
f 106 107 108 102
f 106 105 546 547
f 106 547 548 107
f 109 546 549 110
f 109 110 111 112
f 109 112 40 39
f 176 174 51 56
f 701 702 32 31
f 632 633 634 619
f 347 318 316 315
f 396 395 366 365
f 431 429 428 76
f 494 82 81 491
f 509 457 455 454
f 544 543 444 442
f 114 113 115 116
f 114 116 117 26
f 117 118 23 26
f 117 116 119 120
f 117 120 121 118
f 121 122 123 118
f 121 120 124 125
f 121 125 126 122
f 126 703 704 122
f 126 125 127 128
f 126 128 705 703
f 682 211 212 676
f 129 705 706 132
f 688 680 393 218
f 132 133 134 129
f 688 218 216 684
f 132 135 136 133
f 136 137 138 133
f 136 135 139 140
f 136 140 141 137
f 141 142 143 137
f 141 140 144 145
f 141 145 146 142
f 146 147 148 142
f 146 145 149 150
f 146 150 151 147
f 151 152 153 147
f 151 150 154 155
f 151 155 156 152
f 156 157 158 152
f 156 155 159 160
f 156 160 161 157
f 161 162 163 157
f 161 160 87 86
f 161 86 164 162
f 164 165 166 162
f 164 86 85 167
f 164 167 168 165
f 168 169 170 165
f 168 167 53 52
f 168 52 171 169
f 171 172 173 169
f 171 52 51 174
f 171 174 175 172
f 677 388 387 686
f 175 174 176 177
f 687 675 230 232
f 177 707 708 175
f 687 232 233 679
f 177 180 709 707
f 181 182 183 178
f 181 709 710 184
f 181 184 185 182
f 185 186 187 182
f 185 184 188 189
f 185 189 190 186
f 190 47 191 186
f 190 189 192 193
f 190 193 44 47
f 193 192 194 195
f 193 195 45 44
f 195 194 196 197
f 195 197 198 45
f 198 197 199 200
f 198 200 201 202
f 198 202 41 45
f 202 201 203 204
f 202 204 42 41
f 204 203 205 206
f 204 206 207 42
f 207 206 208 37
f 207 37 36 209
f 207 209 43 42
f 209 210 50 43
f 209 36 35 210
f 210 698 700 50
f 210 35 699 698
f 605 295 294 606
f 699 35 32 702
f 604 297 295 605
f 702 661 662 699
f 597 299 297 604
f 702 701 663 661
f 646 634 220 221
f 230 675 676 212
f 646 221 222 637
f 578 600 613 591
f 645 635 631 630
f 590 612 602 580
f 674 693 694 665
f 589 611 612 590
f 674 672 695 693
f 213 214 215 211
f 673 696 697 667
f 213 216 217 214
f 631 635 633 632
f 217 216 218 219
f 630 631 224 20
f 618 18 17 603
f 629 630 20 19
f 617 304 18 618
f 628 629 19 22
f 616 111 304 617
f 627 628 22 71
f 615 112 111 616
f 626 627 71 68
f 614 40 112 615
f 223 636 637 222
f 613 3 40 614
f 223 389 638 636
f 600 38 3 613
f 389 391 639 638
f 612 108 107 602
f 391 392 640 639
f 611 290 108 612
f 392 231 641 640
f 610 291 290 611
f 231 229 642 641
f 609 58 291 610
f 229 228 643 642
f 608 6 58 609
f 228 215 644 643
f 607 57 6 608
f 215 214 645 644
f 606 294 57 607
f 214 217 635 645
f 224 225 21 20
f 224 631 632 226
f 224 226 227 225
f 227 63 70 225
f 227 226 14 16
f 227 16 64 63
f 226 632 619 14
f 225 70 69 21
f 625 626 68 67
f 624 625 67 61
f 623 624 61 60
f 228 229 230 212
f 228 212 211 215
f 230 229 231 232
f 673 669 689 696
f 668 691 695 672
f 671 698 699 662
f 588 610 611 589
f 587 609 610 588
f 586 608 609 587
f 644 645 630 629
f 643 644 629 628
f 642 643 628 627
f 390 388 677 678
f 390 678 679 233
f 700 664 665 694
f 603 17 438 599
f 601 579 580 602
f 600 578 579 601
f 694 693 49 48
f 694 48 50 700
f 598 576 577 599
f 693 695 234 49
f 234 695 691 235
f 234 235 236 237
f 234 237 46 49
f 237 236 238 191
f 237 191 47 46
f 238 236 239 240
f 238 240 241 187
f 238 187 186 191
f 241 240 242 243
f 241 243 244 183
f 241 183 182 187
f 244 243 245 246
f 244 246 247 179
f 244 179 178 183
f 247 246 248 249
f 247 249 711 712
f 247 712 708 179
f 173 711 713 251
f 685 660 653 686
f 685 681 657 660
f 683 659 655 684
f 251 252 253 170
f 251 170 169 173
f 253 252 254 255
f 253 255 256 166
f 253 166 165 170
f 256 255 257 258
f 256 258 259 163
f 256 163 162 166
f 259 258 260 261
f 259 261 262 158
f 259 158 157 163
f 262 261 263 264
f 262 264 265 153
f 262 153 152 158
f 265 264 266 267
f 265 267 268 148
f 265 148 147 153
f 268 267 269 270
f 268 270 271 143
f 268 143 142 148
f 271 270 272 273
f 271 273 274 138
f 271 138 137 143
f 274 273 275 276
f 274 276 277 134
f 274 134 133 138
f 277 276 278 279
f 277 279 280 130
f 277 130 129 134
f 280 279 281 282
f 683 682 658 659
f 680 656 657 681
f 678 652 648 679
f 282 283 714 715
f 282 715 704 280
f 678 677 651 652
f 283 284 716 714
f 675 649 650 676
f 284 285 717 716
f 286 717 718 287
f 286 287 288 289
f 286 289 27 25
f 544 439 95 94
f 544 442 440 439
f 545 454 452 446
f 545 510 509 454
f 545 446 444 543
f 512 510 545 543
f 512 543 544 94
f 513 512 94 91
f 516 515 719 720
f 529 431 76 75
f 290 291 292 103
f 290 103 102 108
f 292 291 58 59
f 292 59 293 97
f 292 97 96 103
f 293 59 57 294
f 293 294 295 296
f 293 296 98 97
f 296 295 297 298
f 296 298 99 98
f 298 297 299 300
f 298 300 301 99
f 301 104 100 99
f 301 300 550 551
f 301 551 549 104
f 303 302 18 304
f 303 304 111 110
f 529 433 432 431
f 660 674 665 653
f 534 521 519 518
f 534 531 523 521
f 542 721 722 533
f 542 434 723 721
f 542 541 436 434
f 540 541 542 533
f 306 305 307 308
f 306 308 115 113
f 308 307 309 310
f 308 310 311 115
f 311 119 116 115
f 311 310 312 313
f 311 313 314 119
f 314 124 120 119
f 314 313 315 316
f 314 316 317 124
f 317 127 125 124
f 317 316 318 319
f 317 319 320 127
f 320 131 128 127
f 320 319 321 322
f 320 322 323 131
f 323 724 706 131
f 323 322 324 325
f 323 325 725 724
f 660 657 672 674
f 139 725 726 327
f 658 682 676 650
f 327 144 140 139
f 659 673 667 655
f 327 328 329 144
f 329 149 145 144
f 329 328 330 331
f 329 331 332 149
f 332 154 150 149
f 332 331 333 334
f 332 334 335 154
f 335 334 336 337
f 335 337 88 159
f 335 159 155 154
f 337 336 338 339
f 337 339 84 88
f 339 338 56 55
f 339 55 54 84
f 338 340 176 56
f 338 336 341 340
f 341 342 180 340
f 341 336 334 333
f 341 333 343 342
f 659 658 669 673
f 343 333 331 330
f 656 668 672 657
f 330 727 728 343
f 654 656 680 688
f 330 328 729 727
f 345 729 726 326
f 345 326 196 194
f 345 194 192 344
f 344 192 189 188
f 343 728 710 342
f 654 688 684 655
f 340 180 177 176
f 326 325 324 196
f 324 322 321 199
f 324 199 197 196
f 321 319 318 346
f 321 346 200 199
f 346 318 347 348
f 346 348 201 200
f 348 347 349 350
f 348 350 203 201
f 350 349 351 352
f 350 352 205 203
f 352 351 353 354
f 352 354 355 205
f 355 354 356 357
f 355 357 358 208
f 355 208 206 205
f 358 357 359 360
f 358 360 34 33
f 358 33 37 208
f 360 359 361 362
f 360 362 363 34
f 363 362 364 365
f 363 365 366 367
f 363 367 28 34
f 367 366 368 369
f 367 369 29 28
f 369 368 370 371
f 369 371 372 29
f 372 373 30 29
f 372 371 374 375
f 372 375 376 373
f 376 377 378 373
f 376 375 379 380
f 376 380 381 377
f 381 696 689 377
f 381 380 382 383
f 381 383 697 696
f 597 575 576 598
f 697 383 384 692
f 596 618 603 581
f 692 666 667 697
f 595 617 618 596
f 692 691 668 666
f 641 642 627 626
f 393 680 681 386
f 640 641 626 625
f 585 607 608 586
f 639 640 625 624
f 584 606 607 585
f 671 664 700 698
f 583 605 606 584
f 663 701 690 670
f 387 223 222 385
f 669 658 650 670
f 387 388 389 223
f 622 623 60 65
f 389 388 390 391
f 622 65 15 621
f 391 390 233 392
f 620 646 637 621
f 392 233 232 231
f 620 619 634 646
f 666 668 656 654
f 666 654 655 667
f 582 604 605 583
f 575 597 604 582
f 638 639 624 623
f 636 638 623 622
f 386 221 220 393
f 664 651 653 665
f 386 385 222 221
f 393 220 219 218
f 661 663 649 647
f 661 647 648 662
f 581 603 599 577
f 579 574 565 580
f 578 566 574 579
f 636 622 621 637
f 635 217 219 633
f 633 219 220 634
f 213 211 682 683
f 213 683 684 216
f 689 669 670 690
f 594 616 617 595
f 593 615 616 594
f 592 614 615 593
f 690 701 31 378
f 690 378 377 689
f 385 386 681 685
f 385 685 686 387
f 591 613 614 592
f 692 384 235 691
f 384 383 382 239
f 384 239 236 235
f 382 380 379 242
f 382 242 240 239
f 379 375 374 245
f 379 245 243 242
f 378 31 30 373
f 374 371 370 248
f 374 248 246 245
f 370 368 394 250
f 370 250 249 248
f 394 368 366 395
f 394 395 730 731
f 394 731 713 250
f 254 730 732 397
f 651 677 686 653
f 652 671 662 648
f 652 651 664 671
f 397 398 399 257
f 397 257 255 254
f 399 398 400 401
f 399 401 402 260
f 399 260 258 257
f 402 401 403 404
f 402 404 405 263
f 402 263 261 260
f 405 404 406 407
f 405 407 408 266
f 405 266 264 263
f 408 407 409 410
f 408 410 411 269
f 408 269 267 266
f 411 410 412 413
f 411 413 414 272
f 411 272 270 269
f 414 413 415 416
f 414 416 417 275
f 414 275 273 272
f 417 416 418 419
f 417 419 420 278
f 417 278 276 275
f 420 419 421 422
f 420 422 423 281
f 420 281 279 278
f 423 422 424 425
f 423 425 284 283
f 423 283 282 281
f 425 424 426 427
f 425 427 285 284
f 427 426 428 429
f 427 429 430 285
f 430 429 431 432
f 649 663 670 650
f 647 649 675 687
f 647 687 679 648
f 432 433 723 733
f 432 733 718 430
f 435 434 436 437
f 435 437 288 287
f 537 540 533 532
f 576 573 554 577
f 575 555 573 576
f 538 734 720 93
f 539 538 93 92
f 535 538 539 536
f 535 735 734 538
f 535 536 537 532
f 531 534 735 736
f 574 23 27 565
f 531 736 722 530
f 566 26 23 574
f 530 525 523 531
f 573 12 95 554
f 527 525 530 528
f 438 302 550 552
f 527 529 75 77
f 438 17 18 302
f 527 528 433 529
f 526 77 74 79
f 526 525 527 77
f 524 526 79 78
f 524 523 525 526
f 522 524 78 82
f 522 521 523 524
f 441 440 442 443
f 441 443 307 305
f 443 442 444 445
f 443 445 309 307
f 445 444 446 447
f 445 447 448 309
f 448 312 310 309
f 448 447 449 450
f 448 450 451 312
f 451 315 313 312
f 451 450 351 349
f 451 349 347 315
f 450 449 353 351
f 449 447 446 452
f 449 452 453 353
f 453 452 454 455
f 453 455 456 356
f 453 356 354 353
f 456 455 457 458
f 456 458 361 359
f 456 359 357 356
f 458 457 459 460
f 458 460 461 361
f 461 460 462 463
f 461 463 464 364
f 461 364 362 361
f 464 463 737 738
f 464 738 732 396
f 464 396 365 364
f 400 737 739 465
f 555 92 12 573
f 572 596 581 553
f 571 595 596 572
f 465 466 467 403
f 465 403 401 400
f 467 466 468 469
f 467 469 470 406
f 467 406 404 403
f 470 469 471 472
f 470 472 473 409
f 470 409 407 406
f 473 472 474 475
f 473 475 476 412
f 473 412 410 409
f 476 475 477 478
f 476 478 479 415
f 476 415 413 412
f 479 478 480 481
f 479 481 482 418
f 479 418 416 415
f 482 481 483 484
f 482 484 485 421
f 482 421 419 418
f 485 484 486 487
f 485 487 426 424
f 485 424 422 421
f 487 486 488 489
f 487 489 428 426
f 489 488 73 72
f 489 72 76 428
f 488 83 80 73
f 488 486 490 83
f 490 491 81 83
f 490 486 484 483
f 490 483 492 491
f 492 493 494 491
f 492 483 481 480
f 492 480 495 493
f 495 496 497 493
f 495 480 478 477
f 495 477 498 496
f 498 499 500 496
f 498 477 475 474
f 498 474 501 499
f 501 502 503 499
f 501 474 472 471
f 501 471 504 502
f 570 594 595 571
f 504 471 469 468
f 569 593 594 570
f 468 740 741 504
f 568 592 593 569
f 468 466 742 740
f 507 459 508 505
f 507 742 739 462
f 507 462 460 459
f 508 509 510 511
f 508 511 506 505
f 508 459 457 509
f 511 510 512 513
f 511 513 514 506
f 514 513 91 90
f 514 90 743 744
f 514 744 741 506
f 503 743 719 515
f 567 591 592 568
f 566 578 591 567
f 564 590 580 565
f 515 516 517 500
f 515 500 499 503
f 517 516 518 519
f 517 519 520 497
f 517 497 496 500
f 520 519 521 522
f 520 522 82 494
f 520 494 493 497
f 439 553 554 95
f 92 555 556 539
f 539 556 557 536
f 536 557 558 537
f 537 558 559 540
f 540 559 560 541
f 541 560 561 436
f 436 561 562 437
f 437 562 563 288
f 288 563 564 289
f 289 564 565 27
f 26 566 567 114
f 114 567 568 113
f 113 568 569 306
f 306 569 570 305
f 305 570 571 441
f 441 571 572 440
f 440 572 553 439
f 547 546 109 39
f 547 39 38 548
f 546 105 104 549
f 551 550 302 303
f 551 303 110 549
f 552 550 300 299
f 299 597 598 552
f 552 598 599 438
f 38 600 601 548
f 548 601 602 107
f 553 581 577 554
f 555 575 582 556
f 556 582 583 557
f 557 583 584 558
f 558 584 585 559
f 559 585 586 560
f 560 586 587 561
f 561 587 588 562
f 562 588 589 563
f 563 589 590 564
f 703 130 280 704
f 703 705 129 130
f 705 128 131 706
f 707 178 179 708
f 707 709 181 178
f 709 180 342 710
f 712 711 173 172
f 712 172 175 708
f 711 249 250 713
f 715 714 24 123
f 715 123 122 704
f 714 716 25 24
f 716 717 286 25
f 717 285 430 718
f 720 719 89 93
f 721 528 530 722
f 721 723 433 528
f 724 135 132 706
f 724 725 139 135
f 725 325 326 726
f 727 344 188 728
f 727 729 345 344
f 729 328 327 726
f 728 188 184 710
f 731 730 254 252
f 731 252 251 713
f 730 395 396 732
f 733 723 434 435
f 733 435 287 718
f 734 518 516 720
f 735 534 518 734
f 736 735 535 532
f 736 532 533 722
f 738 737 400 398
f 738 398 397 732
f 737 463 462 739
f 740 505 506 741
f 740 742 507 505
f 742 466 465 739
f 744 743 503 502
f 744 502 504 741
f 743 90 89 719

 