# File exported by ZBrush version 2021
# www.zbrush.com
#Vertex Count 1268
#Face Count 1233
#Auto scale x=0.047110 y=0.047110 z=0.047110
#Auto offset x=-0.029091 y=0.022900 z=-0.434581
v 2.03883754 1.98433818 20.69077299
v -1.17179491 -1.30652245 23.52162223
v -3.53800011 -2.33196727 -4.62391586
v 1.62329577 -3.0768139 -4.36428153
v 0.53399233 -3.14083904 20.02596436
v -0.02754637 0.60335969 -3.92770086
v 2.47556071 1.17556746 19.67645563
v -1.42159696 -0.63312274 23.98546698
v 0.29982496 -0.43811102 24.16291308
v -0.0366837 -1.48179405 23.41066433
v -0.88917673 -2.23550634 22.48347965
v -2.04809178 -1.81377863 22.80020292
v -2.87889538 -1.05615944 23.23722769
v -3.84260232 -2.86664385 -3.49874056
v -2.66685994 -3.0854145 -3.84407535
v -2.54360037 -2.49617514 -5.00102521
v -2.53285208 -1.46737592 -5.56004939
v -3.81127059 -1.52163876 -4.6842197
v -4.45313237 -1.96537469 -3.40257932
v 2.12795138 -3.41567617 -3.32938296
v 2.97383316 -3.10714706 -3.67541868
v 1.90549296 -2.31363782 -5.203458
v 0.38422082 -2.21884475 -5.66768358
v 0.47273255 -3.01270619 -4.63457781
v 0.60937332 -3.42120452 18.52344501
v -1.2551484 -3.48951653 18.68984581
v -0.80307757 -3.06067895 20.68251621
v 1.70355724 -2.8204106 20.78458725
v 2.32520155 -3.23174933 18.87124317
v 0.48889746 -2.42538584 22.0639376
v 0.44215306 0.43573385 -3.19674943
v 0.92843351 0.28247213 -2.0709934
v -4.67953684 0.07842845 -1.77190214
v -4.30188029 0.23122753 -3.25937114
v -3.52510854 0.50959697 -4.53452731
v -4.60710372 -0.05177029 -3.37013294
v -3.74836484 0.24381972 -4.70749709
v -2.40300739 0.53738817 -5.63602542
v -2.28944347 0.82824637 -5.40851737
v -0.77301564 0.93280538 -5.62814061
v 0.84932118 0.73126029 -5.32697947
v 2.15828296 0.28327491 -4.5155061
v 3.13383704 -0.05059609 -3.23281939
v 1.36479728 0.20011508 -0.46499925
v 1.79022606 0.1385565 1.61443944
v 2.2059807 0.03615606 3.94903424
v -3.81618373 0.49775806 4.45719149
v -4.23716876 0.36974035 2.24067868
v -4.66387856 0.09544394 0.11514955
v -4.17276278 -0.26307893 2.29151114
v -4.76297541 -0.43948232 0.1437908
v -4.92687361 -0.32625916 -1.80485334
v -4.64258629 -1.13512213 0.15575339
v -4.92861771 -0.9347933 -1.82342667
v -4.68073309 -0.54849655 -3.41378405
v -3.80828153 -0.20864641 -4.79249409
v -4.83783995 -1.67987672 -1.8501429
v -4.64009003 -1.13173397 -3.41015542
v -3.81431564 -0.72103891 -4.79519279
v -2.48209964 -0.58597632 -5.70030203
v -2.42952246 0.04109233 -5.68874431
v -0.96939929 -0.43757225 -6.09596446
v -0.83975846 0.17896119 -6.05392143
v -0.79012764 0.64968221 -5.93023802
v 0.87195971 -0.07531009 -5.85068396
v 0.92596192 0.38662864 -5.63335456
v 2.3502749 -0.6576066 -5.04917794
v 2.3195171 -0.1479307 -4.80404801
v 3.44606405 -1.25000183 -3.53609217
v 3.35235765 -0.59203722 -3.39320156
v 4.10647037 -1.54642982 -1.45995252
v 4.03017298 -0.79138352 -1.40809398
v 3.85123297 -0.20438566 -1.34315566
v 4.45474963 -0.7777043 0.99365769
v 4.36437959 -0.24829316 1.01843878
v 4.80022676 -0.33136342 3.53424053
v 2.51769736 -0.12708952 6.38555618
v 2.79005656 -0.28950035 8.84813569
v -4.01264409 -0.09511945 8.68229111
v -3.73345969 0.28873565 6.6202345
v -4.13997163 -0.76473982 8.53762553
v -3.77338949 -0.32772391 6.5037046
v -3.79338776 -0.14870675 4.44111981
v -3.49205802 -0.96862731 6.43111396
v -3.58227371 -0.84385961 4.42161529
v -4.01420061 -0.96499168 2.34354365
v -3.37186723 -1.58930282 4.40821004
v -3.88894707 -1.77877857 2.34172744
v -4.52180338 -1.96450676 0.15880698
v -3.51168938 -2.54977113 2.34230754
v -4.21763229 -2.80657218 0.08864397
v -4.51882792 -2.53496957 -1.86634142
v -3.53365854 -3.38250798 -0.08377606
v -3.81270946 -3.19854604 -1.95131059
v -2.38994217 -3.64283122 -0.26872362
v -2.57681601 -3.47582218 -2.14814355
v -0.61165047 -3.77969309 -0.57612922
v -0.85822456 -3.55581147 -2.54745991
v -1.11871212 -3.0755539 -4.32701342
v -1.09173731 -2.35814215 -5.43093568
v 0.81599262 -3.55239982 -2.95482302
v 1.18460962 -3.82834243 -0.94130381
v 2.54499812 -3.70241453 -1.28482808
v 1.33530422 -3.60649146 1.48910935
v 2.6157077 -3.52867138 1.28322442
v 3.47887514 -3.31621747 1.18732129
v 3.41105498 -3.4834783 -1.42458476
v 4.0564331 -2.8749873 1.11828558
v 3.97865699 -3.03995113 -1.47125467
v 3.48261953 -2.60712054 -3.82763138
v 2.17649791 -1.78542908 -5.52992847
v 4.1454908 -2.34294347 -1.47993023
v 3.54504008 -1.93273188 -3.71326246
v 2.3369821 -1.1766459 -5.34321594
v 0.64349848 -0.63686045 -6.07226196
v 0.40692123 -1.40291704 -6.04750048
v -1.11371184 -1.37160263 -5.96197462
v 4.35549906 -2.22710422 1.032024
v 4.43675134 -1.48380866 0.99117028
v 4.59218148 -2.1404335 3.51931419
v 4.76408785 -1.47198074 3.49877346
v 4.85442373 -0.82254085 3.50544682
v 5.16889586 -1.70582481 5.93086556
v 5.31729205 -1.06582926 5.96588539
v 5.23944603 -0.57121721 6.03195449
v 5.85330264 -1.42760514 8.45109177
v 5.77926048 -0.8758141 8.50458782
v 6.3725558 -1.02918431 11.11257187
v 2.99300335 -0.31930056 13.72750638
v 2.93606213 -0.37125202 11.31165913
v -5.27628808 -0.43973364 13.39631129
v -4.65674592 -0.35725943 10.84905935
v -5.71089502 -1.00660663 13.33927961
v -4.8802385 -1.05465775 10.70049473
v -5.73835141 -1.79748403 13.32906586
v -4.8263961 -1.83006619 10.6367269
v -3.88708816 -1.43928155 8.45974535
v -4.69527513 -2.60462871 10.58070897
v -3.71268679 -2.19276049 8.35635089
v -3.27560952 -1.70871946 6.35722174
v -3.36804059 -2.8981845 8.26768272
v -2.958278 -2.40412821 6.2976688
v -3.03004087 -2.28423269 4.38583791
v -2.36831272 -2.86707323 6.29830172
v -2.45397017 -2.79179101 4.33779652
v -2.88708163 -3.11919141 2.24527647
v -1.54345309 -3.09522148 4.26377334
v -1.88583155 -3.38454529 2.0273271
v -0.0788604 -3.28463555 4.14237269
v -0.29918686 -3.55105458 1.75855477
v 1.46140783 -3.35159694 3.97514602
v -0.05911311 -3.34059781 6.47029887
v 1.51644111 -3.41226547 6.42620937
v 2.84246105 -3.39221375 6.27538176
v 2.68820978 -3.30436401 3.81295364
v 3.86275622 -3.25602307 6.06978499
v 3.58032971 -3.11002668 3.67773528
v 4.54547298 -2.93462516 5.94601427
v 4.20253103 -2.7151411 3.5802753
v 4.99580209 -2.38031232 5.9188277
v 5.01770672 -3.29472214 8.50778999
v 5.55353765 -2.79093383 8.41346212
v 5.78824603 -2.11798356 8.41104936
v 6.29356224 -3.11017803 11.04527567
v 6.5249178 -2.41266081 11.01251188
v 6.48073277 -1.64038097 11.07145783
v 6.92865228 -2.45218527 13.9854235
v 7.01688822 -1.70702859 13.94085005
v 6.88326403 -0.98161377 13.91813062
v 6.93549455 -1.55949543 16.88719457
v 6.62516694 -0.88187107 16.71573608
v 5.96255598 -0.00251899 19.25216523
v 2.79096309 0.4227065 18.05291931
v 2.95108305 -0.07234135 16.0138137
v -4.80929801 0.00641795 18.50713895
v -5.27432953 -0.35253293 16.12606022
v -5.26605377 -0.4747575 18.8086455
v -5.75292033 -0.86220567 16.23129683
v -5.32815295 -1.15967441 19.06628775
v -5.78188865 -1.61904418 16.30588366
v -5.13336837 -1.89583812 19.25869184
v -5.62877385 -2.38972361 16.42935578
v -5.50687186 -2.58115869 13.34336087
v -5.21648273 -3.09686689 16.47113438
v -5.0956625 -3.25817014 13.44632832
v -4.37645794 -3.32229334 10.63404085
v -4.32999711 -3.67126182 13.54766554
v -3.67973938 -3.69800811 10.88881787
v -2.71389075 -3.34061963 8.35921628
v -2.6150441 -3.8814276 11.11941952
v -1.8163478 -3.55228975 8.64605387
v -1.54540025 -3.14044873 6.36860486
v -0.31236769 -3.64238239 8.90828778
v -0.82286344 -3.85462058 11.41734931
v 1.18674356 -3.82631429 11.52758778
v 1.42365103 -3.67170876 8.97613312
v 3.05349223 -3.8109293 11.52157043
v 2.98263683 -3.65842497 8.87753473
v 4.53084206 -3.75190111 11.39359115
v 4.19699446 -3.5752619 8.67975021
v 5.63995675 -3.59726838 11.1882724
v 4.77704869 -3.77090081 14.15410547
v 5.94298694 -3.58045307 14.10586196
v 6.65622412 -3.14560036 14.04411609
v 5.80848374 -3.33119918 17.05266353
v 6.45954804 -2.86080189 17.05649649
v 6.80935409 -2.24867783 16.99900332
v 5.91365329 -2.01467988 20.02512046
v 6.178834 -1.27182683 19.87095554
v 6.22133756 -0.56150975 19.62410808
v 4.99398746 0.21572551 22.23313072
v 4.93384778 1.03141211 21.72761239
v 4.71601102 1.51693454 21.18640494
v 3.27681558 2.27567479 22.93793273
v 3.12054218 2.7281516 22.17569385
v 1.22345767 3.31635127 22.53563046
v -0.69576332 3.2661938 22.41406375
v -2.64132478 2.63374806 21.83146486
v -4.1248283 1.49350533 20.479113
v -3.2068569 1.98764244 22.64207788
v -4.59746849 0.82290551 21.02629478
v -3.44654958 1.04977858 23.20892487
v -4.62482176 0.0511414 21.43675008
v -3.33455325 -0.07267283 23.40434839
v -4.3706076 -0.81461862 21.66241344
v -3.80612624 -1.73471769 21.71467812
v -4.69099239 -2.63163025 19.3657086
v -3.07173154 -2.44060952 21.57010984
v -3.97401714 -3.17726642 19.31955806
v -4.44237332 -3.55043526 16.49517342
v -2.91005599 -3.44439081 19.05782727
v -3.26866983 -3.76287367 16.4781057
v -3.17229635 -3.87406184 13.72071029
v -1.36254758 -3.75332321 16.39108879
v -1.28003735 -3.88719697 13.92651012
v 0.7400532 -3.68071265 16.40519022
v 0.91056721 -3.82889216 14.02229306
v 2.69863956 -3.57169115 16.58315885
v 2.94455519 -3.77696245 14.09809007
v 4.4280878 -3.45761893 16.83943405
v 3.88067701 -2.94454459 19.39314284
v 5.17863611 -2.60710663 19.90487463
v 3.12159642 -2.29574075 21.69341116
v 4.12883491 -1.56138922 22.30216453
v 4.75020435 -0.74053005 22.48829632
v 2.52606864 -0.74592569 23.71210635
v 2.98654539 0.24777817 23.97405223
v 3.2390126 1.32549123 23.67970046
v 0.57757378 0.55804949 24.54546411
v 0.86118508 1.76259776 24.39382455
v 1.10427066 2.8208218 23.58430088
v -1.47941576 1.63665721 24.24244942
v -1.17446198 2.7431431 23.54335606
v -1.54502132 0.39861851 24.36413886
v 1.76848163 -1.61629124 23.01524103
v -2.10382187 -2.86355784 21.19356984
v -0.4225183 3.1827935 22.21089081
v -2.19075781 2.60983743 21.67999737
v -3.48468468 1.52318707 20.38092742
v 1.3243712 3.21066203 22.33629365
v -4.03529266 0.07916191 18.44305086
v 3.05379493 2.6420934 22.03793368
v 4.53842511 1.43202785 21.02244474
v 5.6535464 0.11589005 19.07162695
v -4.13418897 0.12040603 -1.79107897
v -3.84470511 0.26558771 -3.24369516
v -3.18309209 0.52884537 -4.45703682
v -2.0691291 0.8192337 -5.25149434
v -0.69581258 0.91834921 -5.44796924
v 0.77745432 0.74270738 -5.1673134
v 2.00258144 0.33360436 -4.37047222
v 2.93713345 0.03431198 -3.1141323
v -3.2417695 0.4251766 4.40238943
v -3.62056095 0.33130943 2.18187792
v -4.06958847 0.13232758 0.04980447
v 4.1626202 -0.09592049 1.07265252
v 3.63468357 -0.0703756 -1.25477738
v 4.60423263 -0.18864871 3.57484185
v -3.34327563 -0.09295862 8.71545175
v -3.12627771 0.2545881 6.60185397
v 5.56386116 -0.6920037 8.55773672
v 5.03514958 -0.43802384 6.07587983
v 6.12580893 -0.85386784 11.17040143
v -4.39669217 -0.40724347 13.43261214
v -3.88576411 -0.34739647 10.8977343
v 6.31049711 -0.70563184 16.64611648
v 6.60724267 -0.94754969 13.94319828
v -4.42878873 -0.30799561 16.10184278
v -1.52304046 2.57180197 21.45788799
v -2.52774346 1.55858899 20.2337819
v -3.33816101 0.15039557 -1.8276297
v -3.18232253 0.29462774 -3.22918949
v -2.68545667 0.53804244 -4.3538992
v 0.67807952 0.71802419 -4.96027903
v 1.7860023 0.35126863 -4.18874084
v 2.66948747 0.07601956 -2.95393611
v -2.39348287 0.3471234 4.3308448
v -2.75786291 0.29156703 2.09445234
v -3.19720111 0.1516099 -0.0394158
v 3.86387403 -0.04604477 1.15248555
v 4.30388154 -0.14238195 3.63097808
v -2.36164347 -0.09056876 8.76371539
v -2.24791159 0.18216234 6.56307915
v 5.23870905 -0.60343172 8.62488722
v 5.7640754 -0.76613153 11.23487098
v -2.98558129 -0.29697262 13.49266769
v -2.68278897 -0.27191306 11.0580257
v 5.92605965 -0.60386839 16.57750462
v 5.30629166 0.16011086 18.9105508
v -2.78286098 0.44692568 18.22511225
v -2.98279245 -0.08765813 15.95465741
v -0.01751236 3.05723283 21.91170972
v 1.47306693 3.05879284 22.03714039
v 2.95248997 2.52977065 21.82115717
v 4.30232406 1.35042194 20.82519806
v -1.74616265 0.78425729 -5.03579326
v -0.57953027 0.86875999 -5.20652488
v 3.33923834 -0.01659813 -1.13177781
v 4.73171833 -0.37128655 6.12906527
v 6.16283665 -0.85682729 13.95508717
v -0.65462026 2.46678393 21.15917123
v -1.20640323 1.49012026 19.88756019
v -2.37330431 0.18740957 -1.86792294
v -2.37735141 0.32857791 -3.21161442
v -2.07791348 0.54825097 -4.22845967
v 0.55829257 0.68825926 -4.70649125
v 1.52245024 0.3724037 -3.96673394
v 2.345119 0.12560776 -2.76023961
v -1.38339575 0.27399212 4.25162825
v -1.73926708 0.25919862 2.00038883
v -2.13689644 0.182588 -0.1056149
v 3.50803418 -0.004887 1.24741068
v 3.94377381 -0.10284215 3.69821592
v -1.20367844 -0.09916097 8.80965823
v -1.19882682 0.11839403 6.53058532
v 4.84806572 -0.52204763 8.69931372
v 5.31932651 -0.67586856 11.29262669
v -1.47298342 -0.20036288 13.53676415
v -1.33320618 -0.22486013 11.15110535
v 5.44843199 -0.47876222 16.47447074
v 4.9200791 0.19333852 18.72549445
v -1.39620335 0.59161321 18.03867175
v -1.48523622 0.04891407 15.88136173
v 0.49292305 2.88158934 21.5449979
v 1.6605362 2.85571226 21.66307135
v 2.83107034 2.33714421 21.4843613
v 3.99878969 1.26078698 20.48038707
v -1.35179074 0.74285652 -4.77584009
v -0.4374029 0.80923117 -4.91237174
v 2.98982134 0.03628804 -0.98812744
v 4.3653965 -0.30968344 6.19184229
v 5.57262466 -0.70451505 13.93340901
v 0.19200091 2.27300487 20.89495683
v 0.0110472 1.39289972 19.69170145
v -1.45638304 0.22022263 -1.90945481
v -1.62462472 0.35962054 -3.19598145
v -1.51387558 0.55732863 -4.11290525
v 0.44714488 0.66080818 -4.46977498
v 1.27535322 0.39204083 -3.75863679
v 2.03598907 0.17242186 -2.57743659
v -0.3199237 0.20569356 4.17108543
v -0.68377195 0.22699033 1.8980951
v -1.10232239 0.19931625 -0.18947068
v 3.13116365 0.03690531 1.34545645
v 3.56140023 -0.0634263 3.76757236
v 0.0579057 -0.13291337 8.84105959
v -0.06845125 0.05522543 6.49955407
v 4.40564577 -0.44515208 8.76589001
v 4.81566963 -0.58530403 11.33387168
v 0.05115979 -0.17553268 13.58388605
v 0.08201481 -0.22726415 11.21569146
v 4.88061965 -0.34036561 16.33467421
v 4.49925571 0.23007389 18.53196053
v 0.00997703 0.59883513 17.94482901
v 0.02622039 0.08250773 15.86641514
v 0.96206153 2.62907847 21.2699305
v 1.83249112 2.60508308 21.34963764
v 2.73602945 2.16537574 21.20475685
v 3.70613109 1.18918432 20.19352788
v -0.98624781 0.7052725 -4.53694513
v -0.30534101 0.75457864 -4.63964752
v 2.63347256 0.08797558 -0.84654823
v 3.961489 -0.25091948 6.25564792
v 4.96321021 -0.57231205 13.89101806
v 1.21473576 2.01718041 20.62817911
v 1.28918642 1.26552078 19.58234024
v -0.36964862 0.25866122 -1.95534535
v -0.72494893 0.39698109 -3.17561785
v -0.84425186 0.56781756 -3.97646469
v 0.31620915 0.62856162 -4.18881802
v 0.98225591 0.41512432 -3.51160398
v 1.65073112 0.22679478 -2.3587572
v 0.90591083 0.12541924 4.07183106
v 0.52073472 0.18819037 1.77216151
v 0.07619839 0.20878787 -0.30082207
v 2.63405867 0.08411696 1.46210654
v 3.05926223 -0.02159935 3.84652101
v 1.43783296 -0.19867032 8.85606146
v 1.20529427 -0.02737434 6.45426546
v 3.78505317 -0.36971892 8.81839441
v 4.04643286 -0.47560101 11.33816787
v 1.57215697 -0.22161565 13.64621803
v 1.54454687 -0.27984399 11.26845432
v 4.08564212 -0.20175068 16.16824368
v 3.82830985 0.31994892 18.26623736
v 1.4459259 0.52687172 17.9420525
v 1.53962914 0.03219776 15.90918819
v 1.54198101 2.31738316 20.97018386
v 2.02576125 2.31924998 21.04641926
v 2.57642822 1.96648318 20.83256919
v 3.27906007 1.14576348 19.89475166
v -0.55235263 0.66132257 -4.25512529
v -0.14869248 0.6904072 -4.31672851
v 2.17239863 0.14472184 -0.68034354
v 3.41388621 -0.1934687 6.32015828
v 4.14449002 -0.44185734 13.81724033
v -0.16173919 -2.93628085 20.27085643
v -0.24548166 -3.06364714 19.43838496
v 0.53664398 -3.03428946 19.35142182
v 0.49810307 -2.91714878 20.13457909
v -0.35983982 -3.26843956 18.62516686
v 0.5806571 -3.22606347 18.58258802
v -1.01098225 -3.09845963 19.6280119
v -0.94673774 -3.31321417 18.93954632
v -0.72431364 -3.02967713 20.27062616
v -0.13329721 -3.45188656 20.37651182
v -0.70515784 -3.41462288 20.34713232
v 0.53676782 -3.441397 20.24397825
v 1.37151541 -3.4950531 9.11296059
v 0.47347689 -3.48598721 9.10030766
v 0.47435336 -4.01943417 9.06402884
v 1.37283866 -4.02554831 9.07826739
v -0.1906297 -3.58056947 9.32983897
v -0.18814411 -3.95560671 9.30445767
v -0.98395351 -3.62481681 19.73276013
v -0.92580211 -3.68737937 19.0156533
v 0.25275955 -3.36352347 1.24811793
v -0.34600859 -3.41030092 1.62029737
v -0.35516533 -3.784493 1.66075509
v 0.23983964 -3.93481325 1.31017725
v 0.90239219 -3.45041038 1.45022809
v 0.89308291 -3.83369428 1.49217559
v -0.33015531 -3.7905268 18.73184202
v 0.6157133 -3.74130021 18.69028104
v 1.28416954 -3.52865367 10.24824859
v 0.36320556 -3.53028769 10.22195905
v 1.19273988 -3.63857378 11.3789724
v 0.17787204 -3.64574248 11.33554033
v 0.57876237 -3.62879653 19.47392289
v -0.212412 -3.65934004 19.55788052
v 1.28004052 -2.93949607 19.50604158
v 1.11880147 -2.81574007 20.32276811
v 1.98766553 -2.85653575 19.75883174
v 1.66486276 -2.81603012 20.37245302
v 1.48278234 -3.13403726 18.71672399
v 2.01049788 -3.09050129 19.08415129
v 1.52498003 -3.65417481 18.82839864
v 2.04327005 -3.45839577 19.16500978
v -0.46063521 -3.70203243 11.01412218
v -0.50675349 -3.56525913 10.15952641
v 2.03263689 -3.37662063 19.87467906
v 1.6977768 -3.20266146 20.45427181
v -0.22224982 -3.61229974 3.26929041
v 0.41323765 -3.70361458 3.48529071
v 0.3275933 -3.83564524 2.3992845
v -0.44077034 -3.76770584 2.49068981
v 1.00430817 -3.65707436 3.12556856
v 1.09807539 -3.82449776 2.30183591
v 1.16461309 -3.32907931 20.43420174
v 1.33007304 -3.53215894 19.63451319
v 1.94233295 -3.60942676 14.18378515
v 1.82037545 -3.4961339 15.26147891
v 0.79946025 -3.53455715 15.20811983
v 0.87223078 -3.64199966 14.13468445
v 1.76420142 -3.45278234 16.34916406
v 0.72815562 -3.50417117 16.28643228
v 2.73977669 -3.49344596 15.32553031
v 2.46949433 -3.51552899 16.148154
v 2.61614736 -3.64057661 14.48651105
v -0.46027874 -4.09303951 10.98695094
v 0.18087162 -4.18337855 11.29902819
v 0.36543558 -4.1369696 10.17951274
v -0.50470076 -4.09865231 10.12056971
v 1.19632913 -4.16901586 11.34429118
v 1.28700709 -4.13552124 10.20901647
v 0.88816804 -4.17144064 14.17045107
v 1.9598862 -4.1438223 14.22165677
v 2.63060558 -4.0264697 14.51461016
v 2.75838417 -4.03034473 15.36657762
v 2.48163531 -3.89820843 16.17534722
v 1.78345812 -3.98593861 16.38702935
v 0.74637025 -4.03358589 16.32228715
v 0.81903649 -4.14102871 15.24886727
v 1.8412018 -4.10234135 15.30581893
v -0.23415167 -3.6699868 14.09389715
v -0.25871839 -3.5691854 15.17265718
v -1.2331783 -3.63193331 15.14741808
v -0.97714239 -3.75099807 14.32681968
v -0.341452 -3.54391277 16.25294652
v -1.04894053 -3.6554144 15.98953553
v -0.42835876 -3.24126943 2.43312578
v -0.21352064 -3.23257299 3.22828107
v -0.96483709 -4.13549467 14.35116111
v -0.21849751 -4.20314371 14.12810788
v -0.32507849 -4.0770431 16.28715725
v -1.03823999 -4.04154408 16.01347526
v 1.11053157 -3.29811418 2.24493486
v 0.34190416 -3.23041169 2.33347699
v 1.01281823 -3.28338235 3.08470028
v 0.42737799 -3.12997862 3.42283728
v -1.21709365 -4.17304841 15.17967468
v -0.2404242 -4.17594669 15.21031371
v 0.60006642 -3.50820435 -1.85378545
v -0.22181245 -3.46140002 -1.67540941
v -0.37597468 -3.37398519 -2.59599853
v 0.29839309 -3.48946623 -2.53198635
v -1.04693754 -3.48406409 -1.5087328
v -0.97588588 -3.4826673 -2.24996535
v -0.07214156 -3.60544703 -0.76106412
v -0.76629483 -3.6473765 -0.85100367
v 0.53748045 -3.67539053 -1.12323446
v 0.57880641 -4.04236141 -1.91820503
v 0.52310826 -4.05263968 -1.16788825
v 0.28290317 -3.87243351 -2.5771709
v 2.17722019 -4.16290203 11.34633371
v 2.16912821 -4.1302763 10.20209576
v 2.81078834 -4.0626007 11.05828349
v 2.98080701 -4.08550232 10.18663612
v -0.09462408 -4.15251938 -0.82618146
v -0.7811451 -4.03121425 -0.89726934
v 2.8241958 -3.96195713 9.33136122
v 2.23721279 -4.02831501 9.06030137
v -1.06797171 -4.01861684 -1.57180113
v -0.99123655 -3.85659621 -2.29492975
v 2.17395832 -3.6253444 11.37998157
v 2.80908031 -3.68221604 11.08152576
v -0.39684041 -3.92208426 -2.66153782
v -0.24572133 -4.06560463 -1.74748226
v 2.23419605 -3.48946623 9.09399265
v 2.16557185 -3.52325121 10.23898367
v 2.97752632 -3.55521776 10.2179964
v 2.82132282 -3.58004251 9.35448218
v -0.58825186 -2.29806178 22.61245039
v -2.64874209 -3.28856909 -3.77697605
v -1.71118441 -1.6591825 22.74834311
v -0.57398959 -2.06976756 22.44162009
v 0.33915975 -1.30992579 23.3674105
v -0.77669835 -1.14573362 23.46222175
v -2.42203366 -2.4393636 -4.77097408
v -2.58076347 -3.03362301 -3.66107117
v -3.70766421 -2.78335204 -3.30635229
v -3.38642888 -2.26080253 -4.39577395
v 1.85656639 -2.25928617 -5.11433261
v 2.93964553 -3.09036875 -3.60327371
v 2.09005288 -3.3825703 -3.29623185
v 1.58520843 -3.10700883 -4.18885218
v 0.46424629 -3.00547851 -4.51647525
v 0.35566086 -2.20165509 -5.52076706
v -1.89713338 -2.71739713 21.15524401
v -2.85720236 -2.2964314 21.53491415
v -3.87591633 -3.04372858 19.30239165
v -2.81120333 -3.3101919 19.03902305
v 4.84000157 -2.79560421 19.66177347
v 3.43448514 -3.04623259 19.12028134
v 4.11612237 -3.46360971 16.75737867
v 5.64467347 -3.31041204 16.99999272
v 4.11467117 -3.72795221 11.59294947
v 5.44533665 -3.68229638 11.35987829
v 5.87175767 -3.57774962 14.17599397
v 4.38129042 -3.65154601 14.21500206
v 2.21579764 -2.63277637 21.01898944
v 3.60576934 -2.07088649 21.79378429
v 0.8399469 -2.22707606 22.06755105
v 2.12185954 -1.41752392 23.01904932
v -4.32817109 -3.54662665 13.54766143
v -3.67788774 -3.57340204 10.88995546
v -2.61318835 -3.75682121 11.12057434
v -3.17047824 -3.74944154 13.72070048
v -3.24050429 -3.63530447 16.47197954
v -4.41472462 -3.42317825 16.48969758
v -2.52213857 -3.40448568 -2.01344772
v -2.39984056 -3.56104502 -0.22499723
v -3.494411 -3.27746717 -0.02896009
v -3.7306487 -3.10798004 -1.82645305
v -1.03658557 -2.33799111 -5.23903073
v -1.09065729 -3.05973036 -4.16287356
v 3.3955887 -3.43129428 -1.39206246
v 3.50677561 -3.27994445 1.23336808
v 2.70900387 -3.47633364 1.28854022
v 2.5568171 -3.65369656 -1.27917701
v 3.0307592 -3.23691108 6.1965628
v 3.98521522 -3.12406454 6.03528516
v 4.70758755 -3.57487032 8.56215761
v 3.56417515 -3.61744188 8.85314091
v -1.94472579 -3.285853 2.07064293
v -1.60940943 -2.91080895 4.30960947
v -2.44161916 -2.63641497 4.36107675
v -2.87163021 -3.00452422 2.26844315
v 3.59793673 -2.92710411 3.69238076
v 2.74507888 -3.11310748 3.83383408
v -1.84102593 -3.48427443 8.57998505
v -2.7115441 -3.21633904 8.36150315
v -2.36521801 -2.74276749 6.29981998
v -1.54231187 -3.01615848 6.3701326
v -1.71844579 -1.79732137 22.85179324
v -0.7756846 -1.27517506 23.57343396
v 0.35926359 -1.44388772 23.47342774
v -0.76626747 -1.42310707 23.57118188
v -1.64089377 -1.92153159 22.89168793
v 0.2738531 -1.59012126 23.47430327
v -2.45526258 -2.58722175 -4.84861767
v -3.43452089 -2.40178251 -4.47335933
v -3.75061566 -2.93658846 -3.36674343
v -3.39739733 -2.55897619 -4.47070871
v -2.4979787 -2.73126323 -4.81411911
v -3.68576306 -3.06131029 -3.43844684
v 2.9829253 -3.24918428 -3.66915588
v 1.88973125 -2.39627772 -5.2155547
v 1.88792421 -2.55867665 -5.19975346
v 2.90989816 -3.38429984 -3.67409147
v 0.36364613 -2.33879468 -5.62790149
v 0.37820719 -2.49712942 -5.6089739
v -3.91009732 -3.20873796 19.34684301
v -2.88372438 -2.44961768 21.61372932
v -2.81118942 -2.58895256 21.62596646
v -3.82631366 -3.34119088 19.34891227
v 4.8583092 -2.96162386 19.70792148
v 5.65997432 -3.48106237 17.02514831
v 5.56497012 -3.60168176 17.02420257
v 4.77229212 -3.08644897 19.69856649
v 5.88494878 -3.74965599 14.18502411
v 5.45346881 -3.85485212 11.35680303
v 5.3512453 -3.97010542 11.37421568
v 5.78533287 -3.86628268 14.19418678
v 3.62613231 -2.22750956 21.86749433
v 3.54939684 -2.36453037 21.86376068
v 2.1456846 -1.56020957 23.11358476
v 2.0692017 -1.70409669 23.11617085
v -3.70818643 -3.74314394 10.87130685
v -4.35779542 -3.71681676 13.54782654
v -4.26789098 -3.84626543 13.56422749
v -3.61982523 -3.87135397 10.88265992
v -4.44679334 -3.5926475 16.50608399
v -4.35709544 -3.72207087 16.51470325
v -3.77174534 -3.27213493 -1.85029599
v -3.53737731 -3.44633639 -0.02009853
v -3.69548432 -3.40734949 -1.88099006
v -3.45774608 -3.58248089 -0.03312011
v -1.05051841 -2.48280547 -5.33034746
v -1.0666902 -2.63673 -5.30257098
v 3.54913747 -3.44690574 1.24774533
v 3.43870526 -3.60004046 -1.40602156
v 3.35903829 -3.73664834 -1.40057988
v 3.46804017 -3.58177237 1.26458721
v 4.71457469 -3.74666218 8.54262644
v 4.00155513 -3.29512638 6.01306992
v 3.90284101 -3.41864942 6.01721792
v 4.61107142 -3.86180826 8.55767551
v -2.9152013 -3.1685121 2.30050554
v -2.49291089 -2.80287206 4.37579782
v -2.83823555 -3.30677045 2.29908787
v -2.41955954 -2.94454997 4.37872584
v 3.63189599 -3.09816468 3.69594233
v 3.54572519 -3.23153741 3.7161579
v -2.74964408 -3.38091666 8.32447962
v -2.67023458 -3.51953497 8.3266327
v -2.4152167 -2.90781989 6.27494336
v -2.34143644 -3.04910067 6.26801822
v 1.62176233 -3.25411988 -4.29737708
v 2.13649394 -3.5534645 -3.36641574
v 0.47312397 -3.15314008 -4.63110986
v -1.93462385 -2.88048939 21.23912256
v -2.84777336 -3.48739318 19.08619904
v 4.1365448 -3.64637414 16.78447446
v 3.45908151 -3.22407265 19.16983467
v 4.12515346 -3.91329293 11.58985587
v 4.39751804 -3.83631074 14.22528445
v 2.24012673 -2.80026778 21.09779702
v 0.85019307 -2.38159003 22.17034833
v -0.61379492 -2.21838389 22.55878892
v -3.20236571 -3.93254599 13.72088109
v -2.64577074 -3.93939807 11.10053132
v -3.27461759 -3.81743756 16.48913456
v -2.44556346 -3.74269574 -0.21478569
v -2.57257628 -3.58489048 -2.03749309
v -2.64072381 -3.20287211 -3.74754087
v -1.10900319 -3.21269491 -4.2692438
v 2.60327319 -3.83501041 -1.29431655
v 2.75454362 -3.65600399 1.30407703
v 3.04862875 -3.42089011 6.17265375
v 3.57138813 -3.80224456 8.8323144
v -1.66448019 -3.08980336 4.32556096
v -1.99130555 -3.46237613 2.10553118
v 2.78162772 -3.29713142 3.83774043
v -1.88201931 -3.66136944 8.54013919
v -1.59607677 -3.19362183 6.3433879
v 1.66140098 -3.2671269 -4.42612767
v 2.249037 -3.61167346 -3.43511554
v 0.46934747 -3.16947745 -4.76868405
v -2.96053609 -3.55771593 19.1344726
v -2.03318267 -2.93043035 21.31714318
v 3.56103996 -3.30248422 19.23112854
v 4.24354259 -3.73400151 16.81442522
v 4.50541539 -3.92959045 14.22790376
v 4.22816266 -4.00862261 11.57106603
v 2.33354483 -2.85637238 21.18482595
v 0.93802146 -2.41793358 22.27664772
v -3.31567375 -4.01308185 13.7065516
v -2.75835792 -4.01974984 11.06925952
v -3.39035041 -3.89667215 16.49999831
v -2.68959012 -3.6546733 -2.03643158
v -2.56426889 -3.81392754 -0.19278997
v -1.11216527 -3.24120142 -4.401475
v 2.72239678 -3.9054872 -1.31488954
v 2.87458986 -3.72790793 1.30567752
v 3.67189538 -3.89673952 8.79673555
v 3.15490884 -3.50706851 6.1436032
v -2.10899659 -3.5280916 2.14366216
v -1.78725439 -3.15303506 4.33967694
v 2.89623639 -3.37321753 3.82390722
v -1.99569267 -3.72717443 8.49592158
v -1.71796342 -3.25621222 6.32129539
v -2.44073351 -2.93873189 20.05107883
v -2.96794075 -2.79642359 20.21132943
v -3.31325909 -3.09168726 19.37773824
v -2.75808116 -3.21062028 19.23605781
v -3.41041194 -2.60298883 20.33151326
v -3.77383041 -2.92484396 19.47997946
v -2.64210352 -2.58335542 21.07733221
v -3.0779994 -2.35848139 21.22005454
v -2.13271522 -2.75233393 20.8938232
v -2.77571506 -3.06528053 21.2742221
v -3.2844834 -2.80393374 21.44497776
v -2.2066337 -3.25586903 21.06343258
v -3.432228 -3.57861882 19.57059274
v -2.8213146 -3.71639639 19.4024333
v -3.96690822 -3.37788553 19.70207999
v -3.11700433 -3.36186256 20.439422
v -2.52205633 -3.52815265 20.24775364
v -3.64399996 -3.12794969 20.59263042
v 5.3623526 -2.02740381 20.14239304
v 4.8972825 -1.5616327 21.04743523
v 4.53698625 -1.89961604 20.95092352
v 4.98081976 -2.33165381 20.06748105
v 4.48598267 -1.14901654 22.00145886
v 4.12829277 -1.53778256 21.88037799
v 5.19875615 -1.28655565 21.11544421
v 4.82102622 -1.04602789 21.81946052
v 5.4800155 -1.72207189 20.42830458
v 5.63941461 -2.38554682 20.4354543
v 5.73041315 -2.00566239 20.68026033
v 5.19951655 -2.74094954 20.34449941
v 5.49557382 -1.60838389 21.40715295
v 5.08070547 -1.32816747 22.07291808
v 4.77416653 -1.49825289 22.29623954
v 4.3647136 -1.93469217 22.16034429
v 4.80323733 -2.37015614 21.27595291
v 5.22544961 -1.97467053 21.38947413
v 4.09124417 -2.1949327 20.77150622
v 4.51167472 -2.57766386 19.91864015
v 3.54367523 -2.45472423 20.52544636
v 3.94220051 -2.781929 19.70716867
v 3.69528442 -1.88910054 21.66543477
v 3.16060926 -2.20950526 21.37913861
v 3.86725373 -2.33236534 21.91644668
v 3.27999886 -2.68531671 21.59737138
v 4.66175933 -3.03154869 20.16380044
v 4.03975697 -3.26556752 19.91807839
v 4.28102104 -2.71807513 21.06158284
v 3.67187861 -3.01473544 20.77666323
v 4.69404377 -3.4575253 15.50638427
v 5.2750428 -3.35788283 15.52874501
v 5.22372513 -3.30327909 16.62821372
v 4.62705359 -3.40856093 16.56700841
v 5.74241622 -3.21905324 15.53298663
v 5.70083247 -3.16018035 16.66122692
v 5.34734908 -3.49903282 14.43809135
v 5.81659059 -3.36138842 14.41421774
v 4.7719192 -3.59487997 14.45398685
v 5.48090938 -4.01727318 14.49178193
v 6.02154147 -3.85812459 14.47060954
v 4.850184 -4.1236352 14.50449637
v 5.35627452 -3.82175636 16.68173728
v 4.70691035 -3.937053 16.61747206
v 5.90841025 -3.65625671 16.71770981
v 5.43220817 -3.96200963 15.59129081
v 4.78764137 -4.07401165 15.56528878
v 5.98355599 -3.79793304 15.59885045
v 4.0726506 -3.65591447 14.46110463
v 3.99215871 -3.52957569 15.46492767
v 3.39351376 -3.62120684 15.42806759
v 3.61058348 -3.70100539 14.7078186
v 3.90888556 -3.49334031 16.47590107
v 3.48397901 -3.58931905 16.17510114
v 4.12109434 -4.18841157 14.50845522
v 3.64577632 -4.15992404 14.74716229
v 3.9612135 -4.02560145 16.52339716
v 3.52244306 -4.04866027 16.21423101
v 3.4343466 -4.1512276 15.47313511
v 4.05181318 -4.15085879 15.52037183
v 2.51033761 -2.49330611 21.03740082
v 2.8888912 -2.67709472 20.22838323
v 3.27122935 -2.94763914 19.44787026
v 2.33585717 -2.87972615 19.98950219
v 2.76276592 -3.02390586 19.48664524
v 2.19980298 -2.72202765 20.64610338
v 2.59783467 -2.98677455 21.22853526
v 2.2679165 -3.15253752 20.7994282
v 2.40648736 -3.38046846 20.16274652
v 2.81953571 -3.45792131 19.63639203
v 3.34162738 -3.44640376 19.63271027
v 2.98228668 -3.25663322 20.44898701
v -2.33816776 -3.74614914 14.13630677
v -2.38403869 -3.66189703 15.1341131
v -3.13775003 -3.60152139 15.09292852
v -3.10212511 -3.68843487 14.03872217
v -2.42593811 -3.66793115 16.13572835
v -3.181899 -3.60365549 16.15039343
v -1.74418702 -3.74432945 15.16896212
v -1.94268262 -3.74285452 15.88726964
v -1.87370622 -3.79867065 14.43654115
v -2.38048913 -4.28083347 14.15566453
v -1.90459861 -4.26030476 14.45338398
v -3.16897833 -4.22074661 14.05757226
v -1.77870566 -4.2772235 15.18812503
v -1.97407319 -4.20430296 15.90362568
v -2.46902873 -4.20259049 16.15492985
v -3.24941076 -4.13588942 16.16909707
v -3.21731926 -4.22240847 15.11477305
v -2.43458331 -4.28597276 15.15660289
v 6.44015359 -2.86307089 15.50901971
v 6.11904384 -3.02195632 15.52002263
v 6.2118472 -3.1634212 14.38669936
v 6.44028644 -3.02232529 14.6690683
v 6.081944 -2.95061745 16.66291408
v 6.3367022 -2.85898599 16.36492608
v 6.72570328 -3.2953209 15.56659069
v 6.58254065 -3.23394353 16.41354821
v 6.68228371 -3.40170917 14.71980333
v 6.35465937 -3.41269849 16.72142068
v 6.47847689 -3.62950917 14.44477294
v 6.43184494 -3.56283498 15.5878741
v 5.22181403 -3.29165716 9.84987971
v 5.53952289 -3.07176427 9.78644779
v 5.82152492 -3.18323949 10.82446646
v 5.47059726 -3.40263246 10.90090224
v 5.83428586 -2.8923495 9.72531259
v 5.98392163 -3.03444761 10.50556268
v 5.31903488 -3.02401166 8.72951609
v 5.60091545 -2.91016464 8.95564217
v 5.01392216 -3.25990222 8.78480083
v 5.62452432 -3.45604943 8.62734434
v 5.86607053 -3.262036 8.86661918
v 5.2718494 -3.7249331 8.69788375
v 6.14009065 -3.29953722 9.62059001
v 6.24242233 -3.39193097 10.41584446
v 6.11345539 -3.6252125 10.72482952
v 5.70859265 -3.87896929 10.81738142
v 5.88636392 -3.58183531 9.66900607
v 5.51043691 -3.8415484 9.75057138
v -4.26987008 -3.38887548 15.01747376
v -3.76143164 -3.51465978 15.05374931
v -3.81058928 -3.51381684 16.15233616
v -4.32620748 -3.38376308 16.14573428
v -3.72963368 -3.6032076 13.95812305
v -4.24094447 -3.47953083 13.89193281
v -3.84265768 -4.12848476 13.97566617
v -4.41616285 -3.98947013 13.90736492
v -3.92443439 -4.03896241 16.16973094
v -4.5039759 -3.89299006 16.16103577
v -3.89538922 -4.12693013 15.0740351
v -4.4761817 -3.98314596 15.03539297
v 4.68998275 -3.43425551 8.85296165
v 4.86868236 -3.4548111 9.92474853
v 4.43648628 -3.56586516 10.01835269
v 4.29279764 -3.55392756 8.94445887
v 5.07599445 -3.55980353 10.98554482
v 4.59628741 -3.6657708 11.08429974
v 4.87189347 -3.93642102 8.78741931
v 4.39290128 -4.08123222 8.89858906
v 5.23937644 -4.06816131 10.92295157
v 4.68689626 -4.19426255 11.03980426
v 4.54909877 -4.18148073 9.9652007
v 5.0703206 -4.04423234 9.84974026
v -4.7603425 -3.18964305 16.12952501
v -4.69173127 -3.20587636 14.98445613
v -4.67231816 -3.29719152 13.84084446
v -5.04397982 -3.06612475 14.95902978
v -4.94779834 -3.18392397 14.11267291
v -5.01352045 -3.09919804 15.81996158
v -4.99417408 -3.67533707 16.14292867
v -5.22641086 -3.49990139 15.8299536
v -5.29180971 -3.52662427 14.97143962
v -5.15849929 -3.58573501 14.12433881
v -4.90292187 -3.78472959 13.85409187
v -4.96101728 -3.77284481 15.00003217
v -4.16757098 -2.68149608 19.53545905
v -3.7939318 -2.33729382 20.40173637
v -4.12405177 -2.11299973 20.46122036
v -4.3254066 -2.44470991 19.80408588
v -3.47141354 -2.05549596 21.30894081
v -3.80912511 -1.96041316 21.13157315
v -4.4231367 -3.0913183 19.77546993
v -4.55843098 -2.77476046 20.01237218
v -3.73480935 -2.45933625 21.55040162
v -4.04820163 -2.29017349 21.33982212
v -4.39995706 -2.48990616 20.70239397
v -4.09513533 -2.81265627 20.68210248
v 3.76788961 -3.6099806 9.07104015
v 3.88248215 -3.61870298 10.13588408
v 3.38411196 -3.68379597 10.23363807
v 3.43663822 -3.67530987 9.41980615
v 3.99400307 -3.71729153 11.19579995
v 3.58429172 -3.75373883 10.99230643
v 3.81065886 -4.1447709 9.03685982
v 3.45863205 -4.13225288 9.39394164
v 4.03496687 -4.25297791 11.16164742
v 3.60617548 -4.21502912 10.96496645
v 3.40574394 -4.21328945 10.20369831
v 3.93309098 -4.24277966 10.09561758
v -2.09505774 -3.2958738 19.06936728
v -1.81524406 -3.04124718 19.86273419
v -1.53074023 -2.87511445 20.67848144
v -1.27980487 -3.15127231 19.71365985
v -1.21556321 -3.01773937 20.35598375
v -1.61654997 -3.32162088 19.1721051
v -2.12813231 -3.80963341 19.2193551
v -1.63813672 -3.76504446 19.2965236
v -1.30449139 -3.66421554 19.85622973
v -1.2400193 -3.46039797 20.4802732
v -1.5693384 -3.38805816 20.83002611
v -1.85805475 -3.64126173 20.03933513
v -0.8183906 -3.69909334 10.21589425
v -1.42131893 -3.62855678 10.06915099
v -1.12841108 -3.59261556 9.0865926
v -0.75993017 -3.66930485 9.44633157
v -2.10844623 -3.58041796 9.90084446
v -1.80220399 -3.53638918 8.91551585
v -1.71165507 -3.75439801 11.04320974
v -2.42475419 -3.71342314 10.87287619
v -1.18669944 -3.78450691 10.90088515
v -0.83799855 -4.23082562 10.15991332
v -1.20357358 -4.24566466 10.85157823
v -0.78021802 -4.13083426 9.39662373
v -1.73817314 -4.28855095 10.98127915
v -2.47729405 -4.24429918 10.79650288
v -1.16067622 -4.12657081 9.02306177
v -1.86515955 -4.06596142 8.83604618
v -1.45659907 -4.25191102 9.99559056
v -2.17692018 -4.1995524 9.80953073
v -3.7300414 -3.04673267 9.50387317
v -3.4157271 -3.18535271 9.59598664
v -3.82912686 -3.35089601 10.5215979
v -3.96633508 -3.22094663 10.20048838
v -3.05406853 -3.36776541 9.683513
v -3.44343051 -3.52281376 10.63831316
v -3.05057465 -3.0918481 8.64024251
v -2.69230748 -3.29678159 8.70642145
v -3.38402529 -3.01967862 8.8215251
v -3.94615367 -3.49429429 9.34417805
v -3.57260843 -3.40471374 8.68504501
v -4.14607343 -3.61284441 10.06459227
v -3.26525533 -3.5615802 8.48359058
v -2.86477687 -3.79163196 8.571717
v -4.02762326 -3.83064891 10.36995985
v -3.59561981 -4.02586841 10.51001591
v -3.65549727 -3.74018809 9.41637376
v -3.24321501 -3.95122464 9.53001882
v -2.30177739 -3.44005714 8.79339685
v -2.63683929 -3.49596405 9.77809165
v -2.98981881 -3.63900522 10.74536108
v -2.41584076 -3.95725908 8.68813054
v -3.08758244 -4.1601173 10.6451714
v -2.76117903 -4.10236919 9.65787299
v 0.26848813 -1.69429572 22.6254669
v 0.22671293 -1.33188301 23.0890662
v -0.86931494 -1.44638873 23.0801553
v -0.78809523 -1.81636504 22.60333327
v 0.19865953 -0.98768094 23.43325344
v -0.92653467 -1.09741696 23.43248672
v 1.32559498 -1.28357702 23.15807976
v 1.32554912 -0.93597545 23.50287178
v 1.32893261 -1.6447775 22.69973237
v 1.34189298 -1.67634883 23.52515724
v 1.33546554 -1.27617165 23.92252897
v 1.35039979 -2.07281008 23.02316379
v -0.85283475 -1.83981987 23.44648377
v -0.76668277 -2.2433962 22.92801852
v -0.9168327 -1.43576837 23.85411764
v 0.24568441 -1.78903644 23.51826942
v 0.29346746 -2.19219177 23.00461957
v 0.21003628 -1.38303556 23.92432051
v 1.33749731 -2.03407085 22.11568354
v 0.3267373 -2.08830594 22.04162051
v 0.38197701 -2.45042899 21.5579018
v 1.10410792 -2.32564595 21.74566572
v -0.67878306 -2.22305158 22.00845169
v -0.36328238 -2.47264471 21.66433277
v 1.36292493 -2.47923346 22.41452176
v 1.12750598 -2.71225024 21.99738234
v -0.65361188 -2.66618463 22.31060603
v -0.33964599 -2.85801162 21.91910742
v 0.40937334 -2.89680416 21.84878056
v 0.35612238 -2.60625688 22.39305236
v 0.16647999 -0.34083606 23.8745192
v 0.18065428 -0.63422856 23.66905622
v 1.32163312 -0.57103264 23.75380903
v 1.02026409 -0.37419881 23.90300294
v -0.96082447 -0.7328167 23.66715334
v -0.68082709 -0.49381743 23.83018867
v 0.16558141 -0.58652848 24.3342267
v -0.68026826 -0.70767546 24.22724283
v 1.01935258 -0.59398655 24.29894371
v -0.95842831 -1.01066152 24.12987078
v 1.32506375 -0.85522814 24.21306865
v 0.18411899 -0.96246035 24.20503834
v -1.92136474 -3.01333801 2.82560114
v -2.39152179 -2.9016001 2.97153648
v -2.68090001 -2.96268695 2.1193511
v -2.18626567 -3.0768237 1.9968418
v -2.76724256 -2.74113363 3.08770263
v -3.07241855 -2.80058709 2.21837551
v -2.1160084 -2.94903625 3.83554718
v -2.48636278 -2.78609281 3.97217973
v -1.66114714 -3.06072181 3.66342067
v -2.24025294 -3.51800722 3.91186166
v -2.68422562 -3.32386094 4.07076607
v -1.72702678 -3.64445133 3.72240489
v -2.80432753 -3.53194765 2.19487798
v -2.25469661 -3.65994639 2.05622773
v -3.27346688 -3.33724879 2.3172209
v -2.53299568 -3.57796155 3.06052017
v -1.99794602 -3.70674978 2.89528021
v -2.99352715 -3.3812064 3.20236824
v -1.1008878 -3.12963637 3.44917205
v -1.34535713 -3.08984243 2.6489072
v -0.83791837 -3.19446572 2.49999861
v -0.79328719 -3.21096315 3.12515547
v -1.57935888 -3.16334212 1.85386263
v -1.13556997 -3.24440557 1.95889807
v -1.13313665 -3.71800258 3.49994061
v -0.81267358 -3.70487853 3.16417083
v -1.6188234 -3.75105089 1.90537767
v -1.16282108 -3.73884886 1.99841066
v -0.86138601 -3.77851044 2.54691207
v -1.38623458 -3.78936849 2.70979431
v -3.35627917 -2.30158413 3.27016151
v -3.07477785 -2.50582365 3.18034785
v -2.8066318 -2.54638131 4.08159661
v -3.09357544 -2.40191203 3.92745003
v -3.39006067 -2.55007115 2.30175051
v -3.52600969 -2.39722126 2.59122931
v -3.60773042 -2.77876596 3.37764704
v -3.74721382 -2.80111453 2.69392727
v -3.3180669 -2.80646385 4.01132036
v -3.64991578 -3.04327611 2.41961647
v -3.06325303 -3.04343442 4.19250738
v -3.36841067 -3.09482357 3.31337675
v 2.74090589 -3.15058719 2.1832513
v 3.23952343 -3.05302647 2.16401817
v 3.29790889 -2.96827397 3.03422525
v 2.77741393 -3.05421229 3.02400106
v 3.63855607 -2.8848131 2.13066906
v 3.7146387 -2.8189031 3.0317758
v 3.1920343 -3.25971686 1.30501519
v 3.58529409 -3.07229187 1.23943414
v 2.70541983 -3.36613233 1.35465581
v 3.31921318 -3.87198626 1.37540087
v 3.80838021 -3.66234429 1.29847467
v 2.74719811 -3.975846 1.42614224
v 3.40487315 -3.56475715 3.09254081
v 2.8173782 -3.65881308 3.08482997
v 3.91502564 -3.3860025 3.08090465
v 3.37151455 -3.77787878 2.24173703
v 2.78558941 -3.87644044 2.26269845
v 3.87699334 -3.58246729 2.19698203
v 2.09574823 -3.38165428 1.37734108
v 2.12955425 -3.1801821 2.18769663
v 1.58488976 -3.23584135 2.19023212
v 1.70026151 -3.38112732 1.58785352
v 2.1478652 -3.09716864 3.00984903
v 1.73574994 -3.18724452 2.80127679
v 2.08644244 -3.98807239 1.4400659
v 1.68160216 -3.88816802 1.64135494
v 2.15302063 -3.7027438 3.07110431
v 1.73169146 -3.69236146 2.85406147
v 1.56794698 -3.83577619 2.24958199
v 2.12551774 -3.90421598 2.26139212
v 4.26364587 -2.39859132 2.02640603
v 3.96345514 -2.62786671 2.07930648
v 3.92157786 -2.7903357 1.16359222
v 4.16402712 -2.59244787 1.34926601
v 4.05261785 -2.56498737 2.99990129
v 4.25968955 -2.42800215 2.73654787
v 4.52344278 -2.91395981 2.06563585
v 4.4897277 -2.85650918 2.75266162
v 4.40246914 -3.02764867 1.39882186
v 4.32265666 -3.0843087 3.03234957
v 4.20647565 -3.33036983 1.21422225
v 4.27730764 -3.26522465 2.12993144
v -2.60788774 -3.22572059 -0.41568378
v -3.09884315 -3.11226943 -0.39038965
v -3.17024797 -3.20242486 -1.28507037
v -2.66232226 -3.31732548 -1.28383679
v -3.49128687 -2.95056463 -0.37538043
v -3.57361491 -3.03982397 -1.2906392
v -3.04411131 -3.13018959 0.5158665
v -3.43639656 -2.9652963 0.55197631
v -2.56115805 -3.2444584 0.4636227
v -3.18427064 -3.69721102 0.57785624
v -3.65333407 -3.50090344 0.61645978
v -2.64051884 -3.82644777 0.52331924
v -3.30946029 -3.76976117 -1.22370375
v -2.74443204 -3.89876101 -1.22543773
v -3.79370185 -3.57429781 -1.22673077
v -3.25899253 -3.78631237 -0.31692443
v -2.70054117 -3.91702373 -0.34533921
v -3.73989772 -3.58805478 -0.29897802
v -1.96575346 -3.31669383 0.39339073
v -2.00757555 -3.30443897 -0.45195617
v -1.48069727 -3.41087975 -0.47824033
v -1.58889115 -3.40671625 0.15073239
v -2.04181158 -3.40489782 -1.28669933
v -1.63845998 -3.47976774 -1.08189806
v -2.0105885 -3.90347867 0.45273238
v -1.61857574 -3.89931549 0.19757943
v -2.09423978 -3.99139389 -1.23223445
v -1.67568365 -3.9737641 -1.03811853
v -1.51660844 -3.9933439 -0.42413224
v -2.06385317 -4.00201503 -0.38386621
v -4.10635239 -2.50914452 -0.35765479
v -3.81175454 -2.71435825 -0.36887027
v -3.77335343 -2.72426771 0.5714726
v -4.01338866 -2.58665003 0.34694793
v -3.90159635 -2.78880733 -1.29604293
v -4.1042436 -2.62760292 -1.05396659
v -4.37731924 -2.98421834 -0.29968527
v -4.34457141 -3.02941444 -0.99562256
v -4.25226338 -2.98972597 0.38626822
v -4.18326785 -3.27961328 -1.22957371
v -4.05020636 -3.21910606 0.63214715
v -4.13007893 -3.30064365 -0.29282655
v 2.42485224 -3.39686024 -1.225637
v 2.90197761 -3.32599567 -1.34657363
v 3.12825682 -3.36816142 -0.4728442
v 2.62436967 -3.43483561 -0.37675192
v 3.28495786 -3.18495196 -1.45182479
v 3.53062234 -3.23341688 -0.56102827
v 2.680925 -3.3985202 -2.2245915
v 3.05662869 -3.25125702 -2.34898976
v 2.21940666 -3.4713351 -2.07697659
v 2.76598431 -3.99352862 -2.25849035
v 3.23246702 -3.82739605 -2.40297513
v 2.23168017 -4.06484013 -2.09722379
v 3.20580931 -3.96008556 -0.50294362
v 2.63669505 -4.02697167 -0.3962868
v 3.69918159 -3.80518081 -0.61000023
v 2.99173719 -4.03340054 -1.38310982
v 2.43561604 -4.10178877 -1.2487227
v 3.47670466 -3.87261887 -1.5095767
v 1.64743018 -3.47404898 -1.90130178
v 1.83808685 -3.40711195 -1.08824184
v 1.31373551 -3.44748489 -0.97322703
v 1.31160821 -3.5006659 -1.59792398
v 2.00642104 -3.45199126 -0.27463153
v 1.56533352 -3.4925233 -0.40881368
v 1.61945711 -4.06452477 -1.91539499
v 1.27923726 -3.99537361 -1.60643254
v 1.98529231 -4.04265146 -0.2887203
v 1.54074237 -3.98857436 -0.41714131
v 1.27607581 -4.03258447 -0.98399462
v 1.80697589 -4.10953662 -1.10517608
v 3.90257911 -2.73923644 -1.63842471
v 3.60502445 -2.94985295 -1.54746476
v 3.38635613 -3.00395646 -2.45876089
v 3.66937033 -2.84986808 -2.30236034
v 3.86546757 -2.99186055 -0.64912757
v 4.0275388 -2.84069671 -0.94155939
v 4.12748082 -3.25929555 -1.70183971
v 4.22605987 -3.27597738 -1.01027373
v 3.87784957 -3.28820503 -2.34707676
v 4.10057195 -3.52180254 -0.7192229
v 3.62819967 -3.53998587 -2.52415342
v 3.87310471 -3.58781787 -1.62407846
v -2.23529457 -2.94373849 -3.43329869
v -2.63533716 -2.78042656 -3.73060853
v -2.04040498 -2.69461982 -4.39719984
v -1.67845367 -2.85845919 -4.08507689
v -2.93354878 -2.57848087 -3.95402867
v -2.33471057 -2.49217279 -4.63872771
v -3.24549144 -2.97127854 -3.09440636
v -3.55627959 -2.76535233 -3.30936097
v -2.79954281 -3.13717388 -2.80390337
v -3.36147129 -3.51761184 -3.27872131
v -3.73104787 -3.27189201 -3.54163634
v -2.87075026 -3.70501138 -2.94768849
v -2.1483251 -3.24224427 -4.58593291
v -1.74766525 -3.4204204 -4.2359143
v -2.50508919 -3.00814684 -4.88312508
v -2.76528654 -3.43101403 -3.94928033
v -2.31764854 -3.61493486 -3.6071111
v -3.13197243 -3.18985371 -4.23158474
v -2.14510672 -3.27157507 -2.42007701
v -1.70078863 -3.08030256 -3.06030002
v -1.22185496 -3.23196663 -2.7482922
v -1.63749415 -3.34971398 -2.34753983
v -1.25342518 -3.0005573 -3.71652291
v -1.05738172 -3.15530454 -3.3311492
v -2.19770952 -3.84702867 -2.54358709
v -1.67880619 -3.83719892 -2.45574463
v -1.31242396 -3.56459995 -3.8566465
v -1.1071128 -3.62739974 -3.44386954
v -1.28052146 -3.79954081 -2.88129644
v -1.76810855 -3.75806112 -3.21762671
v -3.40272482 -2.07557774 -4.27067223
v -3.17561943 -2.30967564 -4.11530915
v -3.81649308 -2.48872003 -3.47858951
v -3.8327751 -2.28398059 -3.76312197
v -2.57761689 -2.21084908 -4.80656579
v -2.90408324 -2.0780022 -4.7578766
v -3.61414379 -2.53763221 -4.54025999
v -3.09447184 -2.46753246 -4.98480771
v -4.01084211 -2.66339073 -4.00023804
v -2.80065683 -2.69293329 -5.08954709
v -4.03317944 -2.95037991 -3.74759148
v -3.42885937 -2.87471923 -4.43628733
v 1.22709911 -2.90750327 -3.90513452
v 1.51123808 -2.74332103 -4.27437677
v 2.23109217 -3.01547258 -3.79770403
v 1.91029634 -3.16784849 -3.42557583
v 1.75334668 -2.55012397 -4.5495922
v 2.49254967 -2.82443651 -4.08240603
v 0.7845985 -2.5720762 -4.79520165
v 1.01654223 -2.37329276 -5.06925687
v 0.52989811 -2.75098964 -4.42215237
v 0.77214762 -3.09295216 -5.06804227
v 1.05112184 -2.85975034 -5.39161793
v 0.49013175 -3.2887845 -4.66727597
v 2.21898123 -3.54667916 -4.05271907
v 1.86873615 -3.71136116 -3.64224986
v 2.53428619 -3.32689144 -4.40032998
v 1.49369116 -3.36895155 -4.58461203
v 1.17761094 -3.54986813 -4.1783914
v 1.79273102 -3.14128408 -4.92348284
v 0.26197924 -2.94107743 -3.92394444
v 0.90342231 -3.06649371 -3.43417295
v 0.61431168 -3.24746296 -3.03888756
v 0.22925237 -3.13709401 -3.51110295
v 1.52367085 -3.30051175 -2.97590273
v 1.13246925 -3.38052065 -2.81519919
v 0.21998093 -3.48564434 -4.17227409
v 0.20642422 -3.5906374 -3.71043218
v 1.48556106 -3.84721466 -3.189062
v 1.1082012 -3.84044102 -3.00552137
v 0.59202939 -3.78797075 -3.2823259
v 0.85644401 -3.71552624 -3.71171384
v 2.16044648 -2.05989748 -4.94935771
v 1.96442373 -2.2889872 -4.75154295
v 1.23450756 -2.10448738 -5.2835523
v 1.56651128 -1.99430378 -5.30935126
v 2.71457238 -2.55183675 -4.28816506
v 2.67454579 -2.33139002 -4.56428512
v 2.23816186 -2.50914452 -5.29981914
v 2.7382287 -2.70703219 -4.87121943
v 1.64483697 -2.36609781 -5.60481009
v 2.79712752 -3.02058562 -4.65654444
v 1.31228383 -2.55044027 -5.64062827
v 2.05257601 -2.83655931 -5.1745656
g Group42066
f 252 250 249 254
f 257 217 218 258
f 1 385 386 7
f 2 8 9 10
f 2 10 11 12
f 2 12 13 8
f 3 14 15 16
f 3 16 17 18
f 3 18 19 14
f 4 20 21 22
f 4 22 23 24
f 231 229 228 256
f 260 216 217 257
f 219 175 261 259
f 5 25 26 27
f 5 28 29 25
f 5 27 30 28
f 262 215 216 260
f 219 218 220 221
f 219 221 177 175
f 213 263 264 172
f 213 215 262 263
f 253 220 218 217
f 253 252 222 220
f 234 232 231 26
f 236 234 26 25
f 238 236 25 29
f 213 212 214 215
f 210 172 171 170
f 210 212 213 172
f 210 209 211 212
f 242 244 245 208
f 242 241 243 244
f 240 205 203 202
f 31 32 387 388
f 31 388 389 6
f 35 34 36 37
f 35 37 38 39
f 35 39 268 267
f 240 241 242 205
f 268 39 40 269
f 240 238 29 241
f 269 40 41 270
f 239 202 199 197
f 6 390 391 31
f 239 238 240 202
f 31 391 392 32
f 237 239 197 195
f 237 236 238 239
f 207 170 168 167
f 207 209 210 170
f 207 206 208 209
f 251 216 215 214
f 251 253 217 216
f 251 250 252 253
f 243 241 29 28
f 255 30 11 10
f 248 214 212 211
f 255 243 28 30
f 204 167 165 164
f 204 206 207 167
f 235 237 195 194
f 235 234 236 237
f 45 46 393 394
f 45 394 395 44
f 49 33 265 275
f 49 48 50 51
f 49 51 52 33
f 52 36 34 33
f 52 51 53 54
f 52 54 55 36
f 55 56 37 36
f 55 54 57 58
f 55 58 59 56
f 59 58 19 18
f 59 18 17 60
f 59 60 61 56
f 61 38 37 56
f 61 60 62 63
f 61 63 64 38
f 64 40 39 38
f 64 63 65 66
f 64 66 41 40
f 66 65 67 68
f 66 68 42 41
f 68 67 69 70
f 68 70 43 42
f 70 69 71 72
f 70 72 73 43
f 73 72 74 75
f 73 75 276 277
f 73 277 272 43
f 45 396 397 46
f 233 235 194 190
f 233 232 234 235
f 233 190 188 187
f 204 203 205 206
f 201 164 162 161
f 201 203 204 164
f 248 250 251 214
f 248 247 249 250
f 246 255 10 9
f 246 244 243 255
f 201 199 202 203
f 230 232 233 187
f 200 161 158 156
f 200 199 201 161
f 230 229 231 232
f 230 187 185 184
f 77 78 398 399
f 77 399 393 46
f 80 79 81 82
f 80 82 83 47
f 83 50 48 47
f 83 82 84 85
f 83 85 86 50
f 86 53 51 50
f 86 85 87 88
f 86 88 89 53
f 89 57 54 53
f 89 88 90 91
f 89 91 92 57
f 92 19 58 57
f 92 91 93 94
f 92 94 14 19
f 94 93 95 96
f 94 96 15 14
f 96 95 97 98
f 96 98 99 15
f 99 100 16 15
f 99 98 101 24
f 99 24 23 100
f 101 98 97 102
f 101 102 103 20
f 101 20 4 24
f 103 102 104 105
f 103 105 106 107
f 103 107 21 20
f 107 106 108 109
f 107 109 110 21
f 110 111 22 21
f 110 109 112 113
f 110 113 114 111
f 114 115 116 111
f 114 113 69 67
f 114 67 65 115
f 116 115 62 117
f 116 117 100 23
f 116 23 22 111
f 117 62 60 17
f 117 17 16 100
f 115 65 63 62
f 113 112 71 69
f 112 109 108 118
f 112 118 119 71
f 119 118 120 121
f 119 121 122 74
f 119 74 72 71
f 122 121 123 124
f 122 124 125 76
f 122 76 75 74
f 125 124 126 127
f 125 127 281 282
f 125 282 278 76
f 78 400 401 130
f 227 229 230 184
f 227 226 228 229
f 227 184 182 181
f 198 200 156 154
f 198 197 199 200
f 245 211 209 208
f 245 247 248 211
f 249 247 246 9
f 254 8 13 224
f 228 226 13 12
f 256 11 30 27
f 196 198 154 153
f 196 195 197 198
f 225 226 227 181
f 225 224 13 226
f 130 129 402 403
f 130 403 398 78
f 132 131 133 134
f 132 134 81 79
f 134 133 135 136
f 134 136 137 81
f 137 84 82 81
f 137 136 138 139
f 137 139 140 84
f 140 87 85 84
f 140 139 141 142
f 140 142 143 87
f 143 90 88 87
f 143 142 144 145
f 143 145 146 90
f 146 93 91 90
f 146 145 147 148
f 146 148 95 93
f 148 147 149 150
f 148 150 97 95
f 150 149 151 104
f 150 104 102 97
f 151 149 152 153
f 151 153 154 155
f 151 155 105 104
f 155 154 156 157
f 155 157 106 105
f 157 156 158 159
f 157 159 108 106
f 159 158 160 120
f 159 120 118 108
f 160 158 161 162
f 160 162 163 123
f 160 123 121 120
f 163 162 164 165
f 163 165 166 126
f 163 126 124 123
f 166 165 167 168
f 166 168 169 128
f 166 128 127 126
f 169 168 170 171
f 169 171 286 287
f 169 287 283 128
f 174 404 405 173
f 223 225 181 179
f 223 222 224 225
f 193 196 153 152
f 193 194 195 196
f 245 244 246 247
f 242 208 206 205
f 254 249 9 8
f 252 254 224 222
f 256 228 12 11
f 231 256 27 26
f 193 191 190 194
f 192 152 149 147
f 221 223 179 177
f 221 220 222 223
f 174 173 406 407
f 174 407 402 129
f 176 175 177 178
f 176 178 133 131
f 178 177 179 180
f 178 180 135 133
f 180 179 181 182
f 180 182 183 135
f 183 138 136 135
f 183 182 184 185
f 183 185 186 138
f 186 141 139 138
f 186 185 187 188
f 186 188 189 141
f 189 144 142 141
f 189 188 190 191
f 189 191 192 144
f 192 147 145 144
f 192 191 193 152
f 312 257 258 289
f 258 218 219 259
f 313 260 257 312
f 259 261 310 290
f 314 262 260 313
f 263 315 309 264
f 263 262 314 315
f 266 265 33 34
f 266 34 35 267
f 268 316 293 267
f 316 268 269 317
f 317 269 270 294
f 270 41 42 271
f 271 42 43 272
f 274 273 47 48
f 274 48 49 275
f 275 265 291 299
f 277 276 300 318
f 277 318 296 272
f 276 75 76 278
f 280 279 79 80
f 280 80 47 273
f 282 281 304 319
f 282 319 301 278
f 281 127 128 283
f 285 284 131 132
f 285 132 79 279
f 287 286 308 320
f 287 320 305 283
f 286 171 172 264
f 288 261 175 176
f 288 176 131 284
f 289 258 259 290
f 292 291 265 266
f 292 266 267 293
f 294 270 271 295
f 295 271 272 296
f 298 297 273 274
f 298 274 275 299
f 300 276 278 301
f 303 302 279 280
f 303 280 273 297
f 304 281 283 305
f 307 306 284 285
f 307 285 279 302
f 308 286 264 309
f 311 310 261 288
f 311 288 284 306
f 344 312 289 321
f 345 313 312 344
f 290 310 342 322
f 346 314 313 345
f 315 347 341 309
f 315 314 346 347
f 316 348 325 293
f 348 316 317 349
f 349 317 294 326
f 299 291 323 331
f 318 300 332 350
f 318 350 328 296
f 319 304 336 351
f 319 351 333 301
f 320 308 340 352
f 320 352 337 305
f 321 289 290 322
f 324 323 291 292
f 324 292 293 325
f 326 294 295 327
f 327 295 296 328
f 330 329 297 298
f 330 298 299 331
f 332 300 301 333
f 335 334 302 303
f 335 303 297 329
f 336 304 305 337
f 339 338 306 307
f 339 307 302 334
f 340 308 309 341
f 343 342 310 311
f 343 311 306 338
f 376 344 321 353
f 377 345 344 376
f 322 342 374 354
f 378 346 345 377
f 347 379 373 341
f 347 346 378 379
f 348 380 357 325
f 380 348 349 381
f 381 349 326 358
f 331 323 355 363
f 350 332 364 382
f 350 382 360 328
f 351 336 368 383
f 351 383 365 333
f 352 340 372 384
f 352 384 369 337
f 353 321 322 354
f 356 355 323 324
f 356 324 325 357
f 358 326 327 359
f 359 327 328 360
f 362 361 329 330
f 362 330 331 363
f 364 332 333 365
f 367 366 334 335
f 367 335 329 361
f 368 336 337 369
f 371 370 338 339
f 371 339 334 366
f 372 340 341 373
f 375 374 342 343
f 375 343 338 370
f 408 376 353 385
f 409 377 376 408
f 354 374 406 386
f 410 378 377 409
f 379 411 405 373
f 379 378 410 411
f 380 412 389 357
f 412 380 381 413
f 413 381 358 390
f 363 355 387 395
f 382 364 396 414
f 382 414 392 360
f 383 368 400 415
f 383 415 397 365
f 384 372 404 416
f 384 416 401 369
f 385 353 354 386
f 388 387 355 356
f 388 356 357 389
f 390 358 359 391
f 391 359 360 392
f 394 393 361 362
f 394 362 363 395
f 396 364 365 397
f 399 398 366 367
f 399 367 361 393
f 400 368 369 401
f 403 402 370 371
f 403 371 366 398
f 404 372 373 405
f 407 406 374 375
f 407 375 370 402
f 1 408 385
f 1 409 408
f 386 406 173 7
f 1 410 409
f 411 7 173 405
f 411 410 1 7
f 412 6 389
f 6 412 413
f 6 413 390
f 395 387 32 44
f 414 396 45 44
f 414 44 32 392
f 415 400 78 77
f 415 77 46 397
f 416 404 174 129
f 416 129 130 401
g Group20607
f 420 419 418 417
f 419 422 421 418
f 418 421 424 423
f 417 418 423 425
f 427 426 417 425
f 426 428 420 417
f 432 431 430 429
f 431 434 433 430
f 436 435 423 424
f 435 427 425 423
f 440 439 438 437
f 442 440 437 441
f 444 443 421 422
f 443 436 424 421
f 430 446 445 429
f 446 448 447 445
f 428 426 450 449
f 426 427 435 450
f 450 435 436 443
f 449 450 443 444
f 420 452 451 419
f 452 454 453 451
f 451 453 456 455
f 419 451 455 422
f 458 457 455 456
f 457 444 422 455
f 460 459 448 446
f 433 460 446 430
f 462 461 453 454
f 461 458 456 453
f 466 465 464 463
f 465 468 467 464
f 428 469 452 420
f 469 462 454 452
f 440 442 468 465
f 439 440 465 466
f 428 449 470 469
f 449 444 457 470
f 470 457 458 461
f 469 470 461 462
f 474 473 472 471
f 473 476 475 472
f 472 475 478 477
f 471 472 477 479
f 483 482 481 480
f 482 485 484 481
f 487 486 474 471
f 488 487 471 479
f 431 432 485 482
f 434 431 482 483
f 489 488 479 477
f 490 489 477 478
f 434 483 460 433
f 483 480 459 460
f 491 490 478 475
f 492 491 475 476
f 486 487 494 493
f 487 488 489 494
f 494 489 490 491
f 493 494 491 492
f 498 497 496 495
f 497 500 499 496
f 496 499 476 473
f 495 496 473 474
f 466 463 502 501
f 439 466 501 438
f 504 503 498 495
f 486 504 495 474
f 480 481 448 459
f 481 484 447 448
f 505 492 476 499
f 506 505 499 500
f 437 508 507 441
f 508 510 509 507
f 511 506 500 497
f 503 511 497 498
f 503 504 512 511
f 504 486 493 512
f 512 493 492 505
f 511 512 505 506
f 516 515 514 513
f 515 518 517 514
f 514 517 520 519
f 513 514 519 521
f 523 522 513 521
f 522 524 516 513
f 485 526 525 484
f 526 528 527 525
f 530 529 519 520
f 529 523 521 519
f 532 531 528 526
f 432 532 526 485
f 534 533 517 518
f 533 530 520 517
f 484 525 535 447
f 525 527 536 535
f 524 537 515 516
f 537 534 518 515
f 467 468 507 509
f 468 442 441 507
f 524 522 538 537
f 522 523 529 538
f 538 529 530 533
f 537 538 533 534
f 429 445 540 539
f 445 447 535 540
f 540 535 536 541
f 539 540 541 542
f 464 467 509 510
f 463 464 510 502
f 532 432 429 539
f 531 532 539 542
f 501 502 510 508
f 438 501 508 437
f 528 531 542 541
f 527 528 541 536
g Group11534
f 548 547 546 545
f 552 551 550 549
f 556 555 554 553
f 556 553 558 557
f 562 561 560 559
f 566 565 564 563
f 570 569 568 567
f 570 565 566 569
f 572 563 564 571
f 574 573 546 547
f 574 572 571 573
f 578 577 576 575
f 580 579 578 575
f 580 561 562 579
f 584 583 582 581
f 584 581 550 551
f 586 585 549 550
f 586 557 558 585
f 590 589 588 587
f 590 587 554 555
f 594 593 592 591
f 594 567 568 593
f 598 597 596 595
f 598 595 582 583
f 600 591 592 599
f 600 599 588 589
f 559 560 545 546
f 602 576 577 601
f 602 601 604 603
f 604 596 597 603
f 605 606 548 545
f 606 607 547 548
f 608 609 543 610
f 611 612 552 549
f 612 613 551 552
f 614 615 544 616
f 617 618 553 554
f 618 621 558 553
f 623 624 560 561
f 627 628 566 563
f 631 632 568 569
f 628 631 569 566
f 635 627 563 572
f 607 637 574 547
f 637 635 572 574
f 639 640 575 576
f 640 643 580 575
f 643 623 561 580
f 645 646 583 584
f 613 645 584 551
f 649 611 549 585
f 621 649 585 558
f 651 652 587 588
f 652 617 554 587
f 655 656 592 593
f 632 655 593 568
f 659 660 597 598
f 646 659 598 583
f 656 663 599 592
f 663 651 588 599
f 624 605 545 560
f 665 639 576 602
f 667 665 602 603
f 660 667 603 597
f 609 608 606 605
f 607 606 608 610
f 615 614 612 611
f 613 612 614 616
f 618 617 620 619
f 619 622 621 618
f 624 623 626 625
f 630 629 628 627
f 632 631 634 633
f 629 634 631 628
f 627 635 636 630
f 610 638 637 607
f 635 637 638 636
f 640 639 642 641
f 641 644 643 640
f 623 643 644 626
f 646 645 647 648
f 616 647 645 613
f 611 649 650 615
f 622 650 649 621
f 652 651 654 653
f 617 652 653 620
f 656 655 658 657
f 633 658 655 632
f 660 659 661 662
f 648 661 659 646
f 657 664 663 656
f 651 663 664 654
f 605 624 625 609
f 639 665 666 642
f 665 667 668 666
f 662 668 667 660
f 669 670 555 556
f 671 669 556 557
f 672 673 562 559
f 674 675 564 565
f 676 677 570 567
f 677 674 565 570
f 675 678 571 564
f 679 680 546 573
f 678 679 573 571
f 681 682 577 578
f 683 681 578 579
f 673 683 579 562
f 684 685 581 582
f 685 686 550 581
f 686 687 586 550
f 687 671 557 586
f 688 689 589 590
f 670 688 590 555
f 690 691 594 591
f 691 676 567 594
f 692 693 595 596
f 693 684 582 595
f 694 690 591 600
f 689 694 600 589
f 680 672 559 546
f 682 695 601 577
f 695 696 604 601
f 696 692 596 604
f 697 619 620 698
f 697 699 622 619
f 700 701 625 626
f 629 630 702 703
f 704 705 633 634
f 704 634 629 703
f 636 706 702 630
f 638 610 543 707
f 638 707 706 636
f 708 641 642 709
f 644 641 708 710
f 644 710 700 626
f 647 711 712 648
f 647 616 544 711
f 713 544 615 650
f 713 650 622 699
f 714 653 654 715
f 714 698 620 653
f 716 717 657 658
f 716 658 633 705
f 661 718 719 662
f 661 648 712 718
f 720 664 657 717
f 720 715 654 664
f 701 543 609 625
f 666 721 709 642
f 666 668 722 721
f 722 668 662 719
f 701 700 673 672
f 705 704 677 676
f 702 706 678 675
f 706 707 679 678
f 700 710 683 673
f 544 713 687 686
f 698 714 688 670
f 717 716 691 690
f 715 720 694 689
f 543 701 672 680
f 709 721 695 682
f 721 722 696 695
f 670 669 697 698
f 669 671 699 697
f 675 674 703 702
f 674 677 704 703
f 680 679 707 543
f 682 681 708 709
f 681 683 710 708
f 685 684 712 711
f 686 685 711 544
f 671 687 713 699
f 689 688 714 715
f 676 691 716 705
f 693 692 719 718
f 684 693 718 712
f 690 694 720 717
f 692 696 722 719
g Group46938
f 726 725 724 723
f 725 728 727 724
f 724 727 730 729
f 723 724 729 731
f 1238 1251 1245 1235
f 1251 1252 1248 1245
f 732 734 731 729
f 733 732 729 730
f 1170 1169 1165 1166
f 1169 1156 1146 1165
f 735 737 728 725
f 736 735 725 726
f 736 739 738 735
f 739 734 732 738
f 738 732 733 740
f 735 738 740 737
f 744 743 742 741
f 743 746 745 742
f 742 745 748 747
f 741 742 747 749
f 1199 1224 1219 1190
f 1224 1222 1220 1219
f 750 752 744 741
f 751 750 741 749
f 1168 1167 1172 1171
f 1167 1154 1159 1172
f 753 751 749 747
f 754 753 747 748
f 1222 1221 1215 1220
f 1221 1223 1218 1215
f 755 754 748 745
f 756 755 745 746
f 752 750 758 757
f 750 751 753 758
f 758 753 754 755
f 757 758 755 756
f 744 760 759 743
f 760 762 761 759
f 759 761 764 763
f 743 759 763 746
f 1152 1154 1151 1149
f 1153 1152 1149 1150
f 765 756 746 763
f 766 765 763 764
f 1215 1216 1219 1220
f 1216 1189 1190 1219
f 767 768 762 760
f 752 767 760 744
f 752 757 769 767
f 757 756 765 769
f 769 765 766 770
f 767 769 770 768
f 774 773 772 771
f 773 776 775 772
f 772 775 778 777
f 771 772 777 779
f 1210 1213 1205 1206
f 1213 1212 1208 1205
f 780 782 779 777
f 781 780 777 778
f 1143 1144 1149 1151
f 1144 1147 1150 1149
f 783 785 776 773
f 784 783 773 774
f 784 787 786 783
f 787 782 780 786
f 786 780 781 788
f 783 786 788 785
f 792 791 790 789
f 791 794 793 790
f 790 793 774 771
f 789 790 771 779
f 1212 1211 1207 1208
f 1211 1198 1188 1207
f 795 796 792 789
f 782 795 789 779
f 1145 1148 1147 1144
f 1146 1145 1144 1143
f 797 784 774 793
f 798 797 793 794
f 1196 1209 1203 1193
f 1209 1210 1206 1203
f 799 798 794 791
f 796 799 791 792
f 796 795 800 799
f 795 782 787 800
f 800 787 784 797
f 799 800 797 798
f 764 761 802 801
f 761 762 803 802
f 802 803 805 804
f 801 802 804 806
f 1217 1192 1189 1216
f 1218 1217 1216 1215
f 807 766 764 801
f 808 807 801 806
f 1213 1214 1211 1212
f 1214 1201 1198 1211
f 809 808 806 804
f 810 809 804 805
f 1209 1196 1201 1214
f 1210 1209 1214 1213
f 811 810 805 803
f 768 811 803 762
f 766 807 812 770
f 807 808 809 812
f 812 809 810 811
f 770 812 811 768
f 816 815 814 813
f 815 818 817 814
f 814 817 820 819
f 813 814 819 821
f 1257 1258 1261 1262
f 1258 1231 1232 1261
f 822 824 816 813
f 823 822 813 821
f 1259 1234 1231 1258
f 1260 1259 1258 1257
f 825 823 821 819
f 826 825 819 820
f 1255 1256 1253 1254
f 1256 1243 1240 1253
f 827 826 820 817
f 828 827 817 818
f 824 822 830 829
f 822 823 825 830
f 830 825 826 827
f 829 830 827 828
f 834 833 832 831
f 833 778 775 832
f 832 775 776 835
f 831 832 835 836
f 1141 1142 1118 1111
f 1142 1140 1115 1118
f 837 839 834 831
f 838 837 831 836
f 1203 1204 1185 1193
f 1204 1207 1188 1185
f 840 838 836 835
f 785 840 835 776
f 1205 1208 1207 1204
f 1206 1205 1204 1203
f 841 781 778 833
f 839 841 833 834
f 839 837 842 841
f 837 838 840 842
f 842 840 785 788
f 841 842 788 781
f 846 845 844 843
f 845 848 847 844
f 844 847 850 849
f 843 844 849 851
f 1197 1200 1202 1199
f 1200 1194 1195 1202
f 852 854 851 849
f 853 852 849 850
f 1201 1196 1194 1200
f 1198 1201 1200 1197
f 855 853 850 847
f 856 855 847 848
f 1198 1197 1187 1188
f 1197 1199 1190 1187
f 857 856 848 845
f 858 857 845 846
f 858 860 859 857
f 860 854 852 859
f 859 852 853 855
f 857 859 855 856
f 864 863 862 861
f 863 818 815 862
f 862 815 816 865
f 861 862 865 866
f 1251 1238 1243 1256
f 1252 1251 1256 1255
f 867 868 866 865
f 824 867 865 816
f 1252 1255 1247 1248
f 1255 1254 1250 1247
f 869 828 818 863
f 870 869 863 864
f 870 872 871 869
f 872 868 867 871
f 871 867 824 829
f 869 871 829 828
f 876 875 874 873
f 875 878 877 874
f 874 877 846 843
f 873 874 843 851
f 1137 1138 1140 1142
f 1139 1137 1142 1141
f 879 880 876 873
f 854 879 873 851
f 1195 1194 1191 1192
f 1194 1196 1193 1191
f 881 858 846 877
f 882 881 877 878
f 880 879 884 883
f 879 854 860 884
f 884 860 858 881
f 883 884 881 882
f 864 861 886 885
f 861 866 887 886
f 886 887 889 888
f 885 886 888 890
f 1167 1168 1164 1161
f 1154 1167 1161 1151
f 891 870 864 885
f 892 891 885 890
f 1254 1253 1249 1250
f 1253 1240 1230 1249
f 893 892 890 888
f 894 893 888 889
f 1161 1162 1143 1151
f 1162 1165 1146 1143
f 895 894 889 887
f 868 895 887 866
f 870 891 896 872
f 891 892 893 896
f 896 893 894 895
f 872 896 895 868
f 900 899 898 897
f 899 902 901 898
f 898 901 730 727
f 897 898 727 728
f 1245 1246 1227 1235
f 1246 1249 1230 1227
f 903 904 900 897
f 737 903 897 728
f 1247 1250 1249 1246
f 1248 1247 1246 1245
f 905 733 730 901
f 906 905 901 902
f 1239 1242 1244 1241
f 1242 1236 1237 1244
f 907 906 902 899
f 904 907 899 900
f 904 903 908 907
f 903 737 740 908
f 908 740 733 905
f 907 908 905 906
f 912 911 910 909
f 911 914 913 910
f 910 913 878 875
f 909 910 875 876
f 1139 1141 1133 1134
f 1141 1111 1108 1133
f 915 916 912 909
f 880 915 909 876
f 1185 1186 1191 1193
f 1186 1189 1192 1191
f 917 882 878 913
f 918 917 913 914
f 1187 1190 1189 1186
f 1188 1187 1186 1185
f 919 918 914 911
f 916 919 911 912
f 916 915 920 919
f 915 880 883 920
f 920 883 882 917
f 919 920 917 918
f 726 723 922 921
f 723 731 923 922
f 922 923 925 924
f 921 922 924 926
f 1243 1238 1236 1242
f 1240 1243 1242 1239
f 927 736 726 921
f 928 927 921 926
f 1240 1239 1229 1230
f 1239 1241 1232 1229
f 929 928 926 924
f 930 929 924 925
f 1163 1166 1165 1162
f 1164 1163 1162 1161
f 931 930 925 923
f 734 931 923 731
f 736 927 932 739
f 927 928 929 932
f 932 929 930 931
f 739 932 931 734
f 936 935 934 933
f 935 938 937 934
f 934 937 940 939
f 933 934 939 941
f 1267 1268 1244 1237
f 1268 1266 1241 1244
f 942 944 936 933
f 943 942 933 941
f 1263 1264 1266 1268
f 1265 1263 1268 1267
f 945 943 941 939
f 946 945 939 940
f 1265 1267 1259 1260
f 1267 1237 1234 1259
f 947 948 938 935
f 944 947 935 936
f 944 942 949 947
f 942 943 945 949
f 949 945 946 950
f 947 949 950 948
f 954 953 952 951
f 953 956 955 952
f 952 955 958 957
f 951 952 957 959
f 1155 1158 1160 1157
f 1158 1152 1153 1160
f 960 962 954 951
f 961 960 951 959
f 1241 1266 1261 1232
f 1266 1264 1262 1261
f 963 961 959 957
f 964 963 957 958
f 1159 1154 1152 1158
f 1156 1159 1158 1155
f 965 966 956 953
f 962 965 953 954
f 962 960 967 965
f 960 961 963 967
f 967 963 964 968
f 965 967 968 966
f 958 955 970 969
f 955 956 971 970
f 970 971 940 937
f 969 970 937 938
f 1264 1263 1257 1262
f 1263 1265 1260 1257
f 972 964 958 969
f 948 972 969 938
f 1168 1171 1163 1164
f 1171 1170 1166 1163
f 973 946 940 971
f 966 973 971 956
f 964 972 974 968
f 972 948 950 974
f 974 950 946 973
f 968 974 973 966
f 978 977 976 975
f 977 980 979 976
f 976 979 982 981
f 975 976 981 983
f 1237 1236 1233 1234
f 1236 1238 1235 1233
f 984 986 983 981
f 985 984 981 982
f 1155 1157 1148 1145
f 1156 1155 1145 1146
f 987 989 980 977
f 988 987 977 978
f 988 991 990 987
f 991 986 984 990
f 990 984 985 992
f 987 990 992 989
f 996 995 994 993
f 995 998 997 994
f 994 997 978 975
f 993 994 975 983
f 1227 1228 1233 1235
f 1228 1231 1234 1233
f 999 1000 996 993
f 986 999 993 983
f 1229 1232 1231 1228
f 1230 1229 1228 1227
f 1001 988 978 997
f 1002 1001 997 998
f 1225 1226 1202 1195
f 1226 1224 1199 1202
f 1003 1002 998 995
f 1000 1003 995 996
f 1000 999 1004 1003
f 999 986 991 1004
f 1004 991 988 1001
f 1003 1004 1001 1002
f 1008 1007 1006 1005
f 1007 982 979 1006
f 1006 979 980 1009
f 1005 1006 1009 1010
f 1221 1222 1224 1226
f 1223 1221 1226 1225
f 1011 1013 1008 1005
f 1012 1011 1005 1010
f 1223 1225 1217 1218
f 1225 1195 1192 1217
f 1014 1012 1010 1009
f 989 1014 1009 980
f 1115 1140 1135 1106
f 1140 1138 1136 1135
f 1015 985 982 1007
f 1013 1015 1007 1008
f 1013 1011 1016 1015
f 1011 1012 1014 1016
f 1016 1014 989 992
f 1015 1016 992 985
f 1020 1019 1018 1017
f 1019 1022 1021 1018
f 1018 1021 1024 1023
f 1017 1018 1023 1025
f 1126 1129 1121 1122
f 1129 1128 1124 1121
f 1026 1028 1025 1023
f 1027 1026 1023 1024
f 1126 1125 1130 1129
f 1125 1112 1117 1130
f 1029 1031 1022 1019
f 1030 1029 1019 1020
f 1030 1033 1032 1029
f 1033 1028 1026 1032
f 1032 1026 1027 1034
f 1029 1032 1034 1031
f 1038 1037 1036 1035
f 1037 1040 1039 1036
f 1036 1039 1020 1017
f 1035 1036 1017 1025
f 1128 1127 1123 1124
f 1127 1114 1104 1123
f 1041 1042 1038 1035
f 1028 1041 1035 1025
f 1130 1117 1114 1127
f 1129 1130 1127 1128
f 1043 1030 1020 1039
f 1044 1043 1039 1040
f 1112 1125 1119 1109
f 1125 1126 1122 1119
f 1045 1044 1040 1037
f 1042 1045 1037 1038
f 1042 1041 1046 1045
f 1041 1028 1033 1046
f 1046 1033 1030 1043
f 1045 1046 1043 1044
f 1050 1049 1048 1047
f 1049 1024 1021 1048
f 1048 1021 1022 1051
f 1047 1048 1051 1052
f 1134 1133 1132 1131
f 1133 1108 1105 1132
f 1053 1055 1050 1047
f 1054 1053 1047 1052
f 1119 1120 1101 1109
f 1120 1123 1104 1101
f 1056 1054 1052 1051
f 1031 1056 1051 1022
f 1121 1124 1123 1120
f 1122 1121 1120 1119
f 1057 1027 1024 1049
f 1055 1057 1049 1050
f 1055 1053 1058 1057
f 1053 1054 1056 1058
f 1058 1056 1031 1034
f 1057 1058 1034 1027
f 1062 1061 1060 1059
f 1061 1064 1063 1060
f 1060 1063 1066 1065
f 1059 1060 1065 1067
f 1183 1184 1160 1153
f 1184 1182 1157 1160
f 1068 1070 1067 1065
f 1069 1068 1065 1066
f 1179 1180 1182 1184
f 1181 1179 1184 1183
f 1071 1073 1064 1061
f 1072 1071 1061 1062
f 1072 1075 1074 1071
f 1075 1070 1068 1074
f 1074 1068 1069 1076
f 1071 1074 1076 1073
f 1080 1079 1078 1077
f 1079 1082 1081 1078
f 1078 1081 1062 1059
f 1077 1078 1059 1067
f 1173 1174 1177 1178
f 1174 1147 1148 1177
f 1083 1084 1080 1077
f 1070 1083 1077 1067
f 1183 1153 1150 1175
f 1181 1183 1175 1176
f 1085 1072 1062 1081
f 1086 1085 1081 1082
f 1175 1150 1147 1174
f 1176 1175 1174 1173
f 1087 1086 1082 1079
f 1084 1087 1079 1080
f 1084 1083 1088 1087
f 1083 1070 1075 1088
f 1088 1075 1072 1085
f 1087 1088 1085 1086
f 1092 1091 1090 1089
f 1091 1066 1063 1090
f 1090 1063 1064 1093
f 1089 1090 1093 1094
f 1182 1180 1178 1177
f 1157 1182 1177 1148
f 1095 1097 1092 1089
f 1096 1095 1089 1094
f 1171 1172 1169 1170
f 1172 1159 1156 1169
f 1098 1096 1094 1093
f 1073 1098 1093 1064
f 1179 1181 1176 1173
f 1180 1179 1173 1178
f 1099 1069 1066 1091
f 1097 1099 1091 1092
f 1097 1095 1100 1099
f 1095 1096 1098 1100
f 1100 1098 1073 1076
f 1099 1100 1076 1069
f 1104 1103 1102 1101
f 1103 1106 1105 1102
f 1102 1105 1108 1107
f 1101 1102 1107 1109
f 1138 1137 1131 1136
f 1137 1139 1134 1131
f 1110 1112 1109 1107
f 1111 1110 1107 1108
f 1131 1132 1135 1136
f 1132 1105 1106 1135
f 1113 1115 1106 1103
f 1114 1113 1103 1104
f 1114 1117 1116 1113
f 1117 1112 1110 1116
f 1116 1110 1111 1118
f 1113 1116 1118 1115

 