# File exported by ZBrush version 2021
# www.zbrush.com
#Vertex Count 1084
#UV Vertex Count 524
#Face Count 1086
#Auto scale x=0.047110 y=0.047110 z=0.047110
#Auto offset x=-0.029091 y=0.022900 z=-0.434581
mtllib base8.mtl
usemtl defaultMat
v 2.36038822 0.34467094 21.64488012
v 1.20613002 0.46911198 21.82795389
v 0.07749946 0.51301281 21.90417032
v -2.65401297 0.13324842 21.25297791
v 3.51453516 -0.91901108 16.67367724
v 3.80147816 -1.06290057 14.96832214
v 2.34441333 -1.04681545 15.02623599
v 2.11524722 -0.88797209 16.76358833
v 0.51481005 -0.88219172 16.81447646
v 0.63795302 -1.04464324 15.07153061
v -3.27638857 -1.08855118 15.14565437
v -3.28141368 -0.95832583 16.82227143
v 4.00090987 -1.03559459 13.27843552
v 4.06281294 -0.79991825 11.63327544
v 2.62733865 -0.79146497 11.66765887
v 2.51666969 -1.01668369 13.32233081
v 0.76477902 -1.01340545 13.36540246
v 0.90155082 -0.79179393 11.70775473
v -2.80053443 -0.81925711 11.81840518
v -3.12958213 -1.05415914 13.46363358
v 3.99515157 -0.29267125 10.08836957
v 3.85416416 0.43269362 8.67740292
v 2.57356805 0.43796165 8.7012389
v 2.62711407 -0.28472595 10.11780222
v 1.01294744 -0.28507301 10.15506969
v 1.11628734 0.43689152 8.734161
v -1.86244298 0.41863078 8.843817
v -2.33416811 -0.30957129 10.26828474
v 3.70227567 1.21547686 7.4096919
v 3.57659607 1.89999403 6.30324934
v 2.50584484 1.21766362 7.42991127
v 1.19083929 1.21556938 7.45980572
v 1.22580883 1.89208075 6.3631559
v 2.45001938 1.89679873 6.32814746
v -1.32466631 1.88345279 6.46469936
v -1.50413834 1.20252978 7.55983787
v 2.77215538 3.05138249 -1.09096964
v 1.79437912 3.04362578 -1.05736622
v 0.71025309 3.03042044 -0.96377526
v -2.05183965 2.98015638 -0.46072979
v 1.94558139 3.29448808 -5.42584446
v 1.09788063 3.29720354 -5.5823437
v 0.19036329 3.29011835 -5.58807259
v -2.17140986 3.17036405 -4.40117261
v 3.46835521 2.36806822 5.39479298
v 3.35936376 2.63705437 4.35656532
v 2.40976347 2.36278722 5.43203642
v 1.22468231 2.34953918 5.48441813
v 1.1801881 2.60837706 4.54562481
v 2.34011287 2.6238465 4.44084589
v -1.33312932 2.33824684 5.64035308
v -1.45631614 2.5731858 4.81713474
v 3.22831902 2.79944191 3.08352237
v 1.10207884 2.770008 3.31056482
v 2.24139685 2.78588959 3.18804856
v -1.65492293 2.73593392 3.60956372
v 2.95327092 2.96911518 0.36365317
v 1.97998015 2.95792058 0.46429389
v 0.87188324 2.94292907 0.58252487
v -1.94000907 2.90365212 0.90219355
v 2.26565003 -2.73238563 22.06781801
v 3.52312785 -1.34326787 5.92655878
v 3.63278354 -1.76556595 6.82554059
v 2.47841661 -1.75963147 6.81394365
v 2.4401969 -1.35303753 5.93783056
v 1.2271358 -1.35651971 5.9738575
v 1.197737 -1.75650339 6.83601909
v -1.22325507 -1.3592861 6.1092688
v -1.3629447 -1.77983075 6.98242509
v 1.97149152 -3.31461097 -5.20087697
v 1.1127653 -3.31823454 -5.43274241
v 0.1853109 -3.31943807 -5.41450057
v -1.98214129 -3.36260176 -4.25608432
v 3.35029661 -0.75517313 4.02224832
v 3.43215114 -0.91092969 4.94871562
v 2.39129658 -0.92971913 4.98926094
v 2.33941416 -0.79484325 4.12265719
v 1.18531095 -0.81849427 4.23777543
v 1.22120978 -0.93972989 5.05345468
v -1.20431183 -0.94003449 5.22769695
v -1.31618654 -0.82041209 4.48568282
v 3.28130804 -3.74079349 3.1549797
v 1.14890421 -3.77523765 3.35217387
v 2.292105 -3.76552366 3.22729926
v -1.4166824 -3.78063663 3.66823354
v 2.90318494 0.62503049 22.4546037
v 1.66118178 1.23560213 23.78882633
v 0.79996886 1.49539034 24.25475109
v -0.05713495 1.58763891 24.41592655
v -2.40380542 0.88791768 23.16989179
v -3.50991555 -0.05607474 20.97203993
v -4.38476533 -1.02938516 16.81235849
v -4.3953792 -1.14659361 15.16182885
v -4.14678164 -1.10945898 13.47495724
v -3.70361237 -0.86863291 11.82295869
v -3.17060571 -0.35636471 10.27105998
v -2.67363168 0.37639418 8.84808077
v -2.32864862 1.1648005 7.56398208
v -2.13758819 1.85231005 6.47426437
v -2.1008559 2.29986186 5.67559495
v -2.21672473 2.52740976 4.88904723
v -2.98188466 2.92234437 -0.23524292
v -2.74695329 3.12825018 -3.8584178
v -2.2556509 3.17552485 -4.62098057
v 0.14846984 3.27554468 -5.95853957
v 1.09686972 3.28200359 -5.94739684
v 1.9792816 3.27490195 -5.70379908
v 3.3313839 3.2267315 -4.68696016
v 4.35803961 3.02600042 -1.05417851
v 4.4236042 2.95140537 0.22026849
v 5.01632416 1.88954606 6.25826406
v 5.13944456 1.18038951 7.37925278
v 5.28427664 0.3891 8.64512165
v 5.43517446 -0.34242387 10.05128302
v 5.5628958 -0.8511944 11.59081996
v 5.62103486 -1.09083489 13.22161101
v 5.52111278 -1.12546472 14.87092731
v 5.27520949 -1.01144761 16.47876741
v 3.92166295 -0.07279619 20.64180925
v -2.43961474 2.68914508 3.69305448
v 4.74661842 2.61823908 4.23686796
v 4.89716483 2.33887344 5.33866402
v -2.82654404 2.85652041 1.00644583
v 4.59506869 2.7856144 2.93983468
v 1.68295166 -1.18906602 23.86768452
v 2.88360988 -1.78402541 22.52756094
v -0.07221408 -0.86203 24.51469919
v 0.79766451 -0.93036613 24.37501716
v -2.39061115 -1.55525563 23.20805567
v -3.4896285 -2.506006 21.05550602
v -4.37657466 -3.65257178 15.15522824
v -4.36862849 -3.51486443 16.83567383
v -3.68850509 -3.3427996 11.7568336
v -4.13853466 -3.61430036 13.44494512
v -2.65750338 -2.06745934 8.66356719
v -3.159215 -2.80975498 10.14802562
v -2.14743914 -0.62029543 6.26726352
v -2.29263054 -1.30367833 7.33950359
v -2.24718504 -0.10784619 4.62670597
v -2.13083227 -0.20691261 5.39917441
v -2.96047473 -0.26966685 -0.11395455
v -2.73419995 -0.05849715 -3.80065704
v -2.18507258 -0.01000146 -4.63462336
v 0.13636088 0.07403377 -5.94083418
v 2.02947607 0.07126951 -5.63944909
v 1.09683255 0.08053483 -5.94444509
v 3.2599272 0.02642341 -4.67270753
v 4.37786296 -0.17899219 -1.00128123
v 4.45866926 -0.25921382 0.25294641
v 5.07588311 -1.29713109 7.1439719
v 4.99898221 -0.61726683 6.02978054
v 5.36646391 -2.79274071 9.92496163
v 5.21783936 -2.05590937 8.45656065
v 5.56937306 -3.57015012 13.19145846
v 5.50273683 -3.3151335 11.52024133
v 5.20992229 -3.48660843 16.51403269
v 5.44579149 -3.58199726 14.87149919
v 3.85907128 -2.50516084 20.7390358
v -2.37017955 -0.67395718 4.00167311
v 4.87692934 -0.18624352 5.01578708
v 4.73699395 -0.03089594 3.94421568
v -2.80492376 -0.35096702 1.11816855
v 4.65305973 -0.57897069 3.20091072
v 3.31718789 -1.30674821 3.63267346
v -1.3746011 -1.3802245 4.17716224
v 1.16669713 -1.36526779 3.88205008
v 2.31790332 -1.34183272 3.74782618
v -2.17317705 -1.66417622 7.03037476
v -2.06910127 -1.19317646 6.19961765
v -2.05857786 -0.78080824 5.33422502
v -2.17198332 -0.67985959 4.6016187
v 4.8856378 -1.18499417 5.96176776
v 4.96436978 -1.66913412 6.84535193
v 4.66555528 -0.5856042 3.90638265
v 4.77369714 -0.75057519 4.94940737
v 4.60950572 -1.1720697 3.49164272
v -2.24131983 -1.26153101 4.2710499
v 1.09575704 1.69629144 -5.94283068
v 0.13975715 1.68246471 -5.9418552
v -2.81333806 1.23111031 1.07851741
v -2.39572324 -0.41753151 23.19356645
v 3.9415755 -1.4001807 20.66485384
v 3.33995129 1.67414515 -4.67714337
v 2.00496146 1.69644184 -5.67216117
v -2.70619383 -0.93556955 8.74418971
v 1.67174979 -0.06322142 23.83860993
v -4.1611048 -2.41040683 13.45798061
v -3.72232297 -2.18120704 11.78532872
v -2.34292338 -0.14495421 7.4440146
v 5.14665374 -0.12381701 7.25471345
v 0.79634039 0.2112601 24.32577761
v 5.01468065 0.57909108 6.13058764
v -4.40171191 -2.44804865 15.16042193
v 2.89486553 -0.69774425 22.50158359
v -2.4040629 1.03265629 3.84711439
v -3.51155179 -1.36144819 21.0318187
v -2.15217357 0.54493872 6.35251799
v -0.06852709 0.29312728 24.46678558
v -2.11887253 1.00430224 5.51380459
v -2.74859111 1.52943327 -3.82732899
v 5.29696482 -0.91880366 8.54168544
v 4.89318827 1.08702249 5.16391282
v -4.39586125 -2.3422389 16.81877945
v -2.22388646 1.58055735 -4.62728639
v 4.44438659 1.35605972 0.23802512
v 4.62821695 1.12616185 3.06586696
v 4.36808698 1.43516653 -1.0187361
v 4.74339466 1.3013516 4.06397757
v -2.23741918 1.21929654 4.73233543
v -2.96853255 1.2982338 -0.15247016
v 5.58417162 -2.16841004 11.54943611
v 5.64283132 -2.40447235 13.20222289
v -3.20056816 -1.67090225 10.20107789
v 5.30128774 -2.32996918 16.47968089
v 5.45248447 -1.65644245 9.98018122
v 5.54605012 -2.44970877 14.86495931
v -2.24004197 -2.32933088 4.21311169
v -2.36768423 -2.11019617 3.88739244
v 0.13209035 -1.40654947 -5.91596009
v 1.0952183 -1.40404782 -5.92364246
v -2.71459959 -1.51658376 -3.7742938
v -2.15293586 -1.4731343 -4.62587441
v 4.37229254 -1.6723854 -0.96794097
v 4.45881286 -1.76071354 0.26384306
v -2.78319595 -1.80017253 1.14412249
v 3.31269449 -2.33439632 3.57043321
v 2.3164556 -2.33786822 3.68001963
v 4.64418521 -2.04072144 3.08922911
v 4.60475738 -2.29192139 3.43412234
v 2.04227069 -1.41670691 -5.60114224
v 1.1662445 -2.34629043 3.81469711
v 3.22624091 -1.46148817 -4.65730104
v -1.36734685 -2.3812179 4.12289473
v -2.93942475 -1.71674044 -0.07444449
v 2.13050316 2.87168019 1.93501211
v 3.1000587 2.88366713 1.82842552
v -2.60478196 1.15022525 2.52499858
v -2.62129425 2.77282468 2.45528282
v 1.00926773 2.85646601 2.05733985
v -1.77421684 2.81872154 2.35786649
v 4.52433539 1.24226189 1.71472274
v 4.54453673 -0.39838852 1.76647311
v 4.5455859 -1.87907516 1.75520512
v 4.49711244 2.86607372 1.67957766
v -2.57086856 -1.93217519 2.58721353
v -2.59082919 -0.48729321 2.58812764
v -0.13153232 -1.76520758 6.89311372
v -0.0355826 -1.36059899 6.03233753
v -0.13258814 -3.78271664 3.5033453
v -1.24251335 0.4050979 21.74174482
v -1.06933956 1.43623405 24.18295279
v -0.96635787 0.04582913 -5.53589268
v -0.95982811 1.64638322 -5.54859542
v -0.94490556 3.24201622 -5.56252035
v -0.96878044 -1.42753049 -5.504981
v -1.09904929 -1.02143378 24.25181073
v -1.37506085 -0.90743762 16.83495772
v -0.2896999 2.83907218 2.19768422
v -0.17905782 2.75294123 3.44828893
v -0.01236124 -0.94539077 5.13546262
v -0.0662675 -0.82956567 4.36241281
v -1.09020213 0.13440269 24.21674156
v -1.33239724 -1.05807228 15.11196681
v -0.04737312 2.59351144 4.67208378
v 0.01658033 2.34295944 5.55127704
v -1.2117962 -1.02352596 13.41330341
v -1.02746196 -0.79954612 11.75897814
v -0.85832926 3.25856141 -5.2069095
v -0.74586164 -0.29190384 10.20555232
v -0.18114036 1.21206189 7.50165643
v -0.43543083 0.43198898 8.78096882
v -0.10453062 -2.36183784 3.96743613
v -0.10162379 -1.38010857 4.02968081
v -0.03263636 1.88878218 6.40669378
v -0.87431696 -3.33902388 -5.00897707
v -0.42484669 2.92543529 0.72738668
v -0.55926931 3.01050694 -0.77554511
v -0.66142275 3.09779397 -2.31649656
v -2.10392625 3.05072552 -1.703382
v -3.03179541 2.97811021 -1.25290233
v -3.02889839 1.35679845 -1.15611798
v 0.52995358 3.12244032 -2.59922103
v 1.5610473 3.13344735 -2.66055981
v 2.49683921 3.13447186 -2.55621265
v 4.18529187 3.08545024 -2.11165354
v 4.21309967 -1.60330541 -1.97623528
v 4.21691492 -0.11892605 -2.02551026
v -3.00740717 -1.65769485 -1.06067791
v 4.203776 1.49940328 -2.05861708
v -3.02556961 -0.21126947 -1.10941707
v 1.77233769 1.0487517 23.33354961
v 2.75402172 0.56256108 22.26042389
v 4.86293513 -0.98124429 16.52144683
v 3.53422757 0.01788038 20.83299303
v 0.87505331 1.28940009 23.76930157
v -0.03573269 1.37462135 23.92825026
v -1.10469815 1.2280874 23.69447688
v -2.39821255 0.72697739 22.72637902
v -3.28116032 -0.01677802 20.96612126
v -2.09388458 1.18101926 7.57128679
v -1.90596314 1.86135791 6.4780037
v 3.12515768 3.228499 -4.65156203
v -1.88637338 2.30460167 5.6726799
v 5.10130693 -1.09963951 14.89255739
v -2.23689032 2.69576468 3.66998206
v -2.42363605 2.77959072 2.43095468
v 4.15132818 3.02943863 -1.05933109
v 4.20426089 2.9559459 0.24235784
v -2.8417364 2.99408764 -1.31900781
v -2.60718902 3.1360151 -3.80486387
v -3.46690306 -0.84671769 11.82937331
v -2.95019962 -0.33464196 10.28141322
v 4.2920208 2.87033179 1.69983308
v 4.41754921 2.78786363 2.95654624
v -2.62945487 2.86332314 0.98859241
v 5.21100405 -0.82764958 11.60107198
v 5.25788082 -1.06964724 13.23355083
v -4.14074436 -1.00538684 16.80899049
v 4.9583499 0.40935376 8.65273886
v 5.09643048 -0.31925554 10.06060447
v 4.84347837 1.19530731 7.3848659
v -4.15162519 -1.12850194 15.16231596
v -3.91070715 -1.09175937 13.48181596
v 4.56738014 2.62068157 4.24972189
v -2.01184074 2.5345114 4.85515028
v 4.80681092 1.88961865 6.26307504
v 3.96713786 3.09179655 -2.16903727
v 4.71255921 2.34264946 5.34281993
v -2.453837 0.39598205 8.85896729
v -2.77962583 2.93455937 -0.27871121
v 0.91430733 -2.05858925 23.52418935
v -0.04052947 -1.99174695 23.67141711
v -2.00315363 -3.72524592 3.76180931
v 1.86417237 -2.32080461 23.01594069
v -2.29458086 -2.52671579 22.63964361
v -1.11671387 -2.12470437 23.42349612
v 4.13495379 -1.2444636 3.53802668
v 4.13059672 -2.33270094 3.48793564
v -1.94005557 -1.761089 7.04571926
v -2.42139252 -3.31878554 -3.93472026
v -2.02959532 -3.290001 -4.48436921
v -0.91932169 -3.24566889 -5.28378637
v 0.15413961 -3.22131955 -5.69294735
v 1.09389188 -3.21834219 -5.70940397
v 1.96087085 -3.2291528 -5.44288435
v 2.6604548 -3.25093312 -4.89422986
v 2.58508481 -2.66408011 22.26133485
v 4.08661918 -3.6729455 3.06624969
v -1.95760961 -2.37441753 4.20419542
v -1.80137416 -1.3196121 6.16116024
v -1.7833172 -0.89853282 5.28562978
v 4.37840479 -1.30151466 5.93805324
v 4.27136051 -0.85883068 4.93321929
v 4.49666455 -1.75262251 6.86312691
v 4.18055776 -0.65938813 3.92096107
v -1.89473912 -0.78044892 4.55325309
v -1.95807331 -1.35406346 4.25313037
v 2.74199492 -0.19837877 19.90117515
v 4.03880426 -0.39127146 19.40101943
v 1.52462735 -0.09804723 20.10870422
v 0.22761574 -0.06847158 20.17817706
v 4.5039003 -1.79900347 19.24333721
v 4.40218699 -2.91762292 19.31251526
v -1.31062103 -0.14047433 20.08552805
v -2.90413923 -0.31174829 19.79920722
v -3.67497902 -0.43819492 19.58091119
v -3.90341162 -2.94833754 19.61722026
v -3.94607744 -1.8075843 19.58003566
v -3.92968218 -0.48649027 19.55190492
v 4.46966554 -0.46900646 19.23565231
v 4.45685146 -0.70185113 18.0015561
v 3.13140657 -0.58760699 18.31417248
v 1.82873724 -0.52677667 18.46623841
v 0.37813049 -0.51071447 18.52543013
v -1.34815958 -0.55419138 18.49287747
v -4.19196081 -2.09202677 18.24607619
v -4.15410437 -3.23998808 18.27288479
v -3.10481717 -0.65307101 18.35437715
v 4.81483807 -3.2147028 17.95088179
v 4.91534626 -2.07947633 17.9030403
v -4.17442243 -0.77034533 18.22889081
v -3.92393748 -0.73450042 18.24262596
v 4.88181938 -0.75309897 17.89863609
v 3.67578401 -2.99757899 19.85315779
v 3.38721711 -2.71929637 20.81006738
v 2.62516185 -2.89760029 20.30848639
v 2.38240735 -2.58628391 21.31133206
v 1.48944558 -2.81153039 20.51973645
v 1.2976983 -2.47548875 21.53783299
v 0.22160926 -2.78190859 20.59040365
v 0.12781223 -2.43776658 21.60697182
v -1.28469397 -2.85867285 20.47511998
v -1.2492212 -2.53372128 21.4604627
v -3.55672368 -3.07391023 19.9302839
v -3.3551136 -2.80893291 20.83532609
v -2.83377789 -3.02068526 20.15482629
v -2.68706792 -2.73942306 21.07365423
v 4.2124367 -3.43637284 17.90508108
v 4.48050557 -3.65094598 16.89887375
v 3.15232654 -3.43364346 18.11190163
v 3.38204555 -3.66658907 17.11238854
v 1.90991377 -3.40713251 18.23663138
v 2.07668496 -3.65650944 17.23750923
v 0.43107814 -3.39814918 18.28808
v 0.50459132 -3.65240572 17.29116817
v -1.36573734 -3.42758056 18.25924073
v -1.40198774 -3.66971763 17.2607765
v -3.92503158 -3.46813854 18.10239989
v -4.09621772 -3.67292431 17.08318489
v -3.21420115 -3.47857402 18.15354738
v -3.37234991 -3.69628425 17.14430986
v 4.95065361 -3.79326788 13.50597646
v 4.85026529 -3.82053322 14.60702036
v 3.90572727 -3.85560081 13.62426121
v 3.8055376 -3.87975846 14.59110904
v 2.49898865 -3.87715592 13.6992605
v 2.41501331 -3.89872464 14.61027955
v 0.76227532 -3.88415729 13.75242474
v 0.69202675 -3.90432795 14.64750464
v -1.2244836 -3.87872099 13.78233311
v -1.31121505 -3.89857186 14.71834517
v -3.90040895 -3.79806462 13.71043992
v -4.06162997 -3.8273834 14.92280231
v -3.13092895 -3.85174254 13.76717966
v -3.25790128 -3.87329481 14.83514077
v 4.86457991 -3.13686121 10.18063205
v 4.94518346 -3.48353871 11.2520997
v 3.95068535 -3.20258776 10.22870824
v 3.99946341 -3.52480774 11.23697915
v 2.64280904 -3.22086407 10.26743325
v 2.64598931 -3.53343966 11.2512887
v 1.04292729 -3.22641298 10.30925612
v 0.97277741 -3.53578473 11.2855532
v -0.72971752 -3.2233809 10.35359677
v -0.91161797 -3.53865138 11.3502739
v -3.00862999 -3.14517778 10.38706545
v -3.37307993 -3.49940416 11.49451702
v -2.38233413 -3.2042202 10.39486359
v -2.70187218 -3.53629524 11.44593917
v -2.32504023 -2.15753364 8.3677503
v -2.06592053 -1.62354676 7.44963214
v -1.73050137 -2.19530388 8.28999854
v -1.50172574 -1.68677767 7.41599266
v -0.3785191 -2.19946643 8.19827757
v -0.23028495 -1.71806006 7.36361728
v 1.10645466 -2.19660468 8.13961724
v 1.15377979 -1.72562634 7.32107007
v 2.54070414 -2.1930469 8.11689591
v 2.50443619 -1.71361742 7.28885965
v 4.71298748 -2.14095334 8.17564734
v 4.61009531 -1.60323772 7.26343836
v 3.843376 -2.18032487 8.12692842
v 3.75497558 -1.67569693 7.26778373
v 2.04310652 -2.32444621 -5.57856198
v 3.20579918 -2.36996414 -4.64535743
v -2.71696617 -2.7257866 1.15411894
v -2.87594997 -2.65101283 -0.04342779
v 4.64056353 -2.85989125 3.05093998
v 4.60563765 -2.98227087 3.40277163
v 4.41015625 -2.66131135 0.28363099
v 4.50060664 -2.76094971 1.74813132
v -2.51160283 -2.82624197 2.58302504
v -0.96542162 -2.33988054 -5.48259432
v 0.13250258 -2.31548234 -5.89637839
v 4.30636483 -2.582905 -0.92432339
v -1.9538698 -3.05685928 4.18529661
v -2.23316965 -3.02983496 4.18997569
v 1.16935732 -3.03634796 3.79398684
v -0.10198113 -3.04999486 3.94803726
v 2.31909294 -3.0282778 3.65785246
v 1.09408902 -2.3114781 -5.90610914
v -2.35300207 -2.92584016 3.8514857
v -1.36236934 -3.06562246 4.10423664
v 4.12924104 -3.01036587 3.46264467
v 3.31429119 -3.02261154 3.54654283
v -2.69718868 -2.43502518 -3.75542062
v -2.13496983 -2.38837963 -4.61153829
v -2.94357591 -2.59345561 -1.03069363
v 4.1324569 -2.52210378 -1.93806001
v 3.98291823 -2.90403232 1.66296984
v 3.88504674 -2.83829186 0.49557818
v 3.1420236 -3.00752009 1.76356438
v 3.02055051 -2.95942523 0.63737881
v 2.17348497 -3.04259874 1.84299761
v 2.05678553 -2.99394404 0.77720317
v 1.04407373 -3.05919992 1.96209842
v 0.9378879 -3.01016185 0.93191593
v -2.23120319 -2.98607726 2.35732245
v -2.36801319 -2.93038543 1.31381158
v -1.59759518 -3.06538808 2.26938383
v -1.69993288 -3.01321544 1.2494774
v -0.37183364 -3.02438474 1.10435559
v -0.26783591 -3.07397761 2.1136608
v 3.70148365 -2.75702913 -1.07292391
v 3.54729152 -2.71202867 -1.91354145
v 2.76794128 -2.86118177 -1.11687487
v 2.60296748 -2.81004788 -2.04738832
v 1.78519051 -2.88885356 -1.09448819
v 1.63261153 -2.83488907 -2.08592417
v 0.68021733 -2.89882533 -0.99315919
v 0.56270816 -2.84480359 -1.98557128
v -2.59617123 -2.83338346 -0.28688322
v -2.63157569 -2.794376 -1.00169432
v -1.94320184 -2.90410222 -0.45751678
v -1.98122623 -2.86171031 -1.24109853
v -0.70525329 -2.85832619 -1.68266161
v -0.63177953 -2.90794657 -0.76791714
v 0.28070997 3.24755089 -4.82363351
v -0.80634435 3.2173278 -4.43816743
v 3.81826406 1.60236788 -3.62721407
v 3.81339267 3.17067213 -3.64510924
v -2.13334593 3.10178445 -2.61821061
v -0.74576991 3.16655228 -3.53212447
v 3.57173986 3.1798949 -3.75305973
v 2.12714402 3.24599689 -4.55403183
v -3.0510238 1.40083735 -1.88627232
v -3.05567124 3.01615769 -1.93506399
v -2.85444862 3.03535762 -2.04318655
v 0.38446086 3.1967061 -3.92039805
v 1.2283595 3.25415878 -4.81640535
v -2.15389362 3.14131223 -3.51502764
v -2.77656781 3.08566975 -2.92250316
v 3.70362692 -2.44635801 -3.6264056
v 3.78900949 -1.51297079 -3.6180805
v -2.96969085 -0.1173987 -2.76729064
v -2.95212907 -1.56887106 -2.74352488
v 1.37001281 3.20462285 -3.93298565
v 2.29694412 3.19703885 -3.67575396
v 3.84401367 3.13347582 -2.9112415
v 4.07997777 -0.07605696 -2.7654738
v 4.06730951 -1.55920831 -2.73807182
v 3.80684741 -0.02835638 -3.63191307
v -2.9775842 1.45901911 -2.78050958
v -3.02804215 -1.61559948 -1.83039672
v -2.97290956 -2.55160569 -1.79502264
v -2.97856917 3.06684465 -2.81910617
v 4.07925343 1.54517963 -2.77402663
v 4.07325316 3.12401203 -2.79777974
v -2.90562047 -2.5098445 -2.73708495
v -3.04563146 -0.16846178 -1.86611874
v 3.97232745 -2.48305773 -2.72664568
v -2.7043501 -2.72999659 -2.10086254
v -2.67847776 -2.70695137 -2.73654976
v -2.09784026 -2.78267942 -2.52579061
v -2.10578327 -2.76879245 -3.14094469
v -0.864525 -2.76959048 -3.22709177
v -0.90970449 -2.76956549 -3.85685653
v 0.27612681 -2.76892435 -3.58086173
v 0.21775855 -2.76436294 -4.21033043
v 1.27462975 -2.80905975 -3.63168913
v 1.19796821 -2.81150161 -4.2113717
v 2.19388953 -2.82589973 -3.48144004
v 2.09781354 -2.83191835 -4.01649097
v 3.10995615 -2.68727542 -3.68092868
v 3.23938806 -2.68884112 -3.12491191
v 5.47298851 -0.83143557 10.01900617
v 5.31696436 -0.08814097 8.59905841
v 0.14291654 2.78058233 -5.95003354
v -0.95438263 2.73429863 -5.56561506
v 2.91326552 0.14745692 22.4874132
v 3.96535043 -0.57403316 20.63637642
v 4.43830313 2.4535751 0.22797997
v 4.36559451 2.5369327 -1.03383136
v -4.17039968 -1.55933436 13.46615389
v -4.41382695 -1.59150777 15.16049532
v -2.61727593 2.27379658 2.47870065
v -2.4265394 2.1952044 3.74045062
v -3.53449358 -0.53320102 20.99846263
v -2.40554066 0.44615825 23.19859441
v -4.4096546 -1.49859433 16.81489904
v -2.82421035 2.35470156 1.04254678
v 1.09729459 2.81584888 -5.94715771
v -2.24990367 2.65993512 -4.62692581
v -2.35600916 0.6984927 7.50721514
v -2.71242532 -0.10709334 8.79748175
v 4.74706726 2.24087795 4.16802962
v 4.61125203 2.27657246 2.97123283
v 0.7973864 1.07664553 24.29508607
v 1.66343908 0.7981997 23.82776705
v 4.89727554 1.97060635 5.26782444
v 5.65858258 -1.56733319 13.21274314
v 5.60283225 -1.34055557 11.57192148
v -4.20552958 -1.25454442 18.23554203
v 5.16281652 0.72647186 7.32439568
v -1.07978263 1.01325093 24.20354286
v -0.06313799 1.17069434 24.43909007
v 3.33431666 2.76999661 -4.67843262
v 1.98091846 2.81819933 -5.70130408
v 4.51362378 2.36060125 1.6826401
v -2.10075373 1.93215716 5.61004997
v -2.15504591 1.41667908 6.41784663
v 5.02118827 1.47430256 6.20448746
v 5.56943063 -1.61856561 14.86705829
v -2.21968184 2.15115728 4.8319061
v -3.9620245 -0.97415356 19.562162
v -3.73605843 -1.34736676 11.80402984
v 4.9314714 -1.24574653 17.89323616
v 5.31812393 -1.49121988 16.47650774
v -2.98336907 2.3970397 -0.18793724
v -2.7566037 2.60937088 -3.84311632
v -3.20883664 -0.84443453 10.23584468
v 4.52217124 -0.97068522 19.22607844
v -3.03782288 2.46277826 -1.20404551
v 4.19226857 2.62302443 -2.08976409
v 3.8173569 2.71388885 -3.62983053
v -3.06324069 2.49894405 -1.89798186
v -2.98872567 2.5470484 -2.78925474
v 4.07813846 2.66722907 -2.77811833
v -3.17211669 2.90791589 -1.93254748
v -3.09408374 2.95931168 -2.83033493
v -3.21078223 2.79391926 -1.92955652
v -3.13244151 2.84542513 -2.83357767
v -3.17027707 2.67959178 -1.91847452
v -3.09282991 2.73097872 -2.81977041
v 5.54283965 -0.61078542 10.0280031
v 5.38899862 0.12114678 8.61408661
v 5.57344072 -0.51261644 10.03298488
v 5.41985084 0.21807351 8.62237945
v 5.54189453 -0.42142832 10.04093737
v 5.3886937 0.30922846 8.63282125
v 0.1264876 2.93366044 -6.06295252
v -1.00193598 2.90390421 -5.66577184
v 0.12125527 3.04847503 -6.10517014
v -1.01869704 3.01866566 -5.70447217
v 0.12836248 3.16238151 -6.06948229
v -0.99972944 3.13258353 -5.67211309
v 2.9744237 0.36024239 22.52710546
v 4.03062276 -0.35020556 20.65609603
v 3.00082521 0.46018369 22.54408462
v 4.05967047 -0.2512289 20.66438318
v 2.97674948 0.55278272 22.52191809
v 4.03077522 -0.15973881 20.64917532
v 4.54460821 2.6107525 0.21829223
v 4.47519357 2.68381949 -1.05655585
v 4.58220875 2.72550888 0.21395065
v 4.51490259 2.79846042 -1.06806739
v 4.54197815 2.83975191 0.21470852
v 4.47605392 2.9125317 -1.06694388
v -4.24769596 -1.3801032 13.45400531
v -4.49536328 -1.41829428 15.15555593
v -4.27871898 -1.28514518 13.4498086
v -4.52800798 -1.32405862 15.15369986
v -4.24705735 -1.19309881 13.45754538
v -4.49613284 -1.23175074 15.15608352
v -2.73480061 2.42373569 2.48659874
v -2.554937 2.32733722 3.75233666
v -2.77773434 2.54041678 2.48786838
v -2.60004627 2.44834155 3.74831012
v -2.73979092 2.65676924 2.4780731
v -2.56145664 2.56894417 3.72855129
v -3.60516046 -0.32593666 21.01283545
v -2.46425255 0.62987657 23.2560958
v -3.63600508 -0.22985232 21.0179798
v -2.48819575 0.72804665 23.28102303
v -3.60725565 -0.13907425 21.00278966
v -2.46548771 0.81958259 23.25964852
v -4.48513182 -1.30029278 16.82021167
v -4.51673336 -1.20384924 16.82258647
v -4.48488384 -1.11173107 16.81961955
v -2.93815542 2.51334313 1.04002331
v -2.98013076 2.62803214 1.03548309
v -2.94340321 2.74250354 1.02389881
v 1.11394369 2.94087468 -6.06632305
v 1.11923323 3.05550044 -6.10520557
v 1.11353455 3.16920986 -6.0654121
v -2.3289567 2.8410826 -4.70280189
v -2.36063889 2.95557203 -4.73158042
v -2.33505819 3.06932763 -4.70476929
v -2.42920932 0.89622681 7.51892405
v -2.77648969 0.11038136 8.80150322
v -2.45970759 0.99270894 7.52765402
v -2.80408967 0.2089363 8.80575118
v -2.42878199 1.0840872 7.54314782
v -2.77201558 0.29925289 8.82231092
v 4.84269046 2.33532262 4.18450649
v 4.72656258 2.42329097 2.95847949
v 4.87473451 2.42970307 4.20032102
v 4.76588413 2.54418395 2.94911438
v 4.84282521 2.52400349 4.21712905
v 4.72194487 2.66497984 2.94229994
v 0.82276357 1.23795859 24.36774725
v 1.70420249 0.9807133 23.89039762
v 0.8326788 1.33346192 24.39506319
v 1.71956408 1.07825425 23.9161776
v 0.8230756 1.42348703 24.36172484
v 1.70010542 1.16915536 23.8886491
v 4.99089971 2.06294633 5.28640504
v 5.02226845 2.15510949 5.30297458
v 4.99110183 2.24707971 5.3196444
v 5.73186751 -1.36086429 13.21700944
v 5.67298893 -1.12047322 11.57645726
v 5.76300756 -1.26372354 13.21919193
v 5.70365959 -1.02213897 11.57907499
v 5.73076235 -1.17178946 13.2203205
v 5.67167058 -0.93061023 11.58391063
v -4.27644919 -1.04220501 18.24418976
v -4.30683992 -0.94407684 18.24788418
v -4.27512167 -0.85210338 18.24149865
v 5.23964372 0.91057527 7.34290131
v 5.27088372 1.00591207 7.35382833
v 5.23988696 1.09753214 7.36582887
v -1.10691164 1.17184758 24.28275784
v -0.0622068 1.32113447 24.52227529
v -1.11539204 1.26983341 24.31504101
v -0.0605893 1.41805832 24.55470522
v -1.10137981 1.3614965 24.28566783
v -0.05874351 1.50938676 24.5222019
v 3.42501281 2.88531318 -4.75880147
v 2.03239887 2.93370883 -5.8102718
v 3.45481933 2.99987472 -4.78611742
v 2.04932046 3.04833427 -5.84643665
v 3.42363879 3.11368062 -4.76178737
v 2.03162519 3.16206014 -5.81071209
v 4.62154928 2.51907327 1.67684543
v 4.6593453 2.63585812 1.67485588
v 4.61790104 2.75210524 1.67565107
v -2.19704624 2.02473785 5.64195231
v -2.23661166 1.57849363 6.43606885
v -2.22894826 2.11688504 5.66288652
v -2.26792251 1.67368651 6.44856789
v -2.19678877 2.20859826 5.67365981
v -2.23626088 1.76633726 6.46100873
v 5.10893679 1.60792154 6.21974149
v 5.14143347 1.70595861 6.22905409
v 5.11024439 1.79780057 6.24261148
v 5.64213608 -1.39885745 14.87560987
v 5.67362533 -1.2984723 14.879322
v 5.64090313 -1.20660725 14.87638671
v -2.31667464 2.24608399 4.86968315
v -2.34822399 2.34044799 4.89149573
v -2.31478315 2.43421798 4.89769749
v -4.03190853 -0.7589452 19.5726873
v -4.0621952 -0.66084147 19.57699156
v -4.03095551 -0.5691492 19.56814772
v -3.80564135 -1.13757178 11.79181168
v -3.83538239 -1.04021815 11.78770986
v -3.80445711 -0.94874445 11.79986476
v 4.99885252 -1.02644829 17.90982816
v 5.38969322 -1.2824203 16.4916574
v 5.02812923 -0.92752406 17.9170462
v 5.42026899 -1.18489066 16.49814794
v 4.99664662 -0.83565411 17.90760645
v 5.38854378 -1.09295586 16.49108172
v -3.09368203 2.58193031 -0.20232082
v -3.13626119 2.69752554 -0.21246023
v -3.09845631 2.81166166 -0.22192909
v -2.85257263 2.79330215 -3.89327315
v -2.8892812 2.90803577 -3.91416435
v -2.85348042 3.02175942 -3.9014983
v -3.27246388 -0.62318201 10.22976786
v -3.30016129 -0.52435149 10.22876834
v -3.26862712 -0.43379712 10.24418876
v 4.58756598 -0.7450625 19.24323979
v 4.61646155 -0.64554627 19.25071087
v 4.58544549 -0.55390275 19.23958586
v -3.14590148 2.64061089 -1.22312998
v -3.18663595 2.75504718 -1.23484268
v -3.14793151 2.86919658 -1.24313426
v 4.30509013 2.74363021 -2.12271403
v 4.34222951 2.85807884 -2.13501317
v 4.3023927 2.97201347 -2.13073422
v 3.92601559 2.82901279 -3.68166757
v 3.96166486 2.9435098 -3.70028138
v 3.92416522 3.05739636 -3.68755966
v 4.19097521 2.78225621 -2.81696922
v 4.22793555 2.89672128 -2.83179625
v 4.18874717 3.01063978 -2.82477685
v 3.86358525 -3.34498019 9.52623297
v 4.73733429 -3.31482985 9.52696995
v 4.65802727 -2.90909918 8.75564811
v 3.8004739 -2.94602283 8.75464164
v 5.16653213 -2.64344686 8.67711762
v 5.26627708 -3.13948368 9.6194412
v -2.88740014 -3.28156804 9.70726152
v -2.72725709 -3.33910106 9.75259789
v -2.45228712 -2.92466414 8.95756533
v -2.64931492 -2.92366779 9.02831793
v 2.59093942 -3.34763777 9.53436512
v 2.56142944 -2.95611733 8.77035052
v 1.0996331 -2.95861961 8.80219972
v 1.05505942 -3.34784779 9.56504653
v -2.12075011 -3.36835626 9.71779062
v -0.60936589 -3.35654455 9.62702868
v -0.46161749 -2.96102604 8.85268741
v -1.87102271 -2.9579288 8.92085012
v -3.0122659 -3.1599058 9.8491659
v -2.67928307 -2.66300705 8.8962645
v 5.12570434 -3.25794778 9.47597428
v 5.0516138 -2.9041076 8.81201082
v 4.81253032 -3.29282274 9.84953154
v 3.91126068 -3.33496635 9.87736369
v 2.61853783 -3.34261298 9.89842886
v 1.04755006 -3.34446082 9.93379535
v -0.67185301 -3.34993824 9.98912437
v -2.87170613 -3.31270872 10.06968807
v -2.25102781 -3.35291307 10.06068545
v -2.37823547 -2.58212706 8.64120392
v -1.78498776 -2.60787588 8.57734609
v -0.40974345 -2.60795432 8.49598911
v 1.10798082 -2.60418746 8.44108394
v 2.54947539 -2.60315126 8.41388945
v 4.68639777 -2.56699021 8.44172413
v 3.81351413 -2.59621615 8.41140331
v 2.53479244 -4.18619175 12.82026019
v 3.93601615 -4.1932839 12.81753113
v 3.96944624 -4.09515969 11.9359928
v 2.59819953 -4.10241726 11.97902269
v 5.45441961 -3.83882851 11.7970446
v 5.50702463 -3.98830139 12.92405699
v -4.05221647 -4.017549 13.22811168
v -3.72371122 -3.85710198 12.02221579
v 4.92362043 -4.18340449 12.82688864
v 4.90476623 -4.06646118 11.90478759
v -2.96972154 -4.21385057 13.02499061
v -1.13500094 -4.19298152 12.91747156
v -1.02705757 -4.10465638 12.08347993
v -2.81184669 -4.11198828 12.10394348
v -3.90415714 -4.18415792 13.06156538
v -3.72576181 -4.21002362 13.098917
v -3.47080909 -4.08436932 12.11349204
v -3.67249319 -4.06704603 12.17134643
v 0.80723482 -4.18394632 12.85250667
v 0.87872409 -4.09776002 12.04853981
v 5.36343563 -4.1532434 12.76555112
v 5.33031995 -4.04700632 11.94964318
v 4.9694553 -4.04339319 13.16558992
v 3.93036571 -4.0604375 13.20774049
v 2.52203419 -4.06413097 13.24563488
v 0.78378189 -4.06572546 13.28772218
v -1.18554145 -4.07077967 13.3377449
v -3.82328442 -4.05802284 13.39873828
v -3.05414508 -4.07732398 13.39069153
v 4.93947608 -3.83896231 11.56027393
v 3.99181868 -3.86704118 11.56562198
v 2.62600211 -3.87431963 11.59754836
v 0.93116495 -3.87639236 11.63766447
v -0.97381441 -3.88145258 11.68937245
v -3.4256024 -3.85723008 11.78142934
v -2.75464326 -3.88479528 11.74994199
v 3.64878563 -4.2348452 15.44091836
v 3.50892394 -4.18363159 16.28331353
v 4.54635452 -4.17043194 16.21222881
v 4.68197364 -4.22028513 15.3591641
v -1.35502098 -4.24694032 15.58734271
v -1.38432205 -4.1955072 16.44222426
v 0.54582176 -4.18094998 16.38705086
v 0.6025575 -4.23468451 15.56474474
v -3.24471397 -4.26940322 15.56390717
v -3.27450341 -4.2194096 16.50198027
v -4.34168926 -3.98635012 16.61035334
v -4.35362971 -4.06717318 15.36590262
v 2.28341536 -4.23423726 15.51486626
v 2.17847228 -4.18110212 16.33966484
v 5.34032715 -4.01965052 15.20919209
v 5.19368708 -3.96167752 16.29842903
v -4.23740188 -4.24438016 15.54030842
v -4.23446563 -4.18474593 16.45793188
v -4.01862918 -4.2020765 16.51265107
v -4.01675286 -4.26093072 15.51883649
v 5.07408682 -4.15356002 16.13629326
v 5.1796875 -4.19549613 15.38120917
v 4.53408354 -3.97016235 16.5707623
v 3.4551796 -3.9812007 16.69602596
v 2.13442627 -3.97644824 16.77749682
v 0.52723242 -3.97547118 16.82739301
v -1.3971997 -3.99245161 16.85261883
v -4.07138159 -3.99903609 16.83773233
v -3.33097523 -4.01950059 16.85358039
v 4.78633029 -4.06931329 14.97334377
v 3.7397965 -4.0938173 14.99910982
v 2.35570836 -4.09979701 15.04781293
v 0.6467075 -4.10213386 15.09180818
v -1.33909053 -4.10803101 15.13450152
v -4.05475606 -4.09674152 15.18622595
v -3.25686665 -4.11488404 15.17008183
v 1.74970667 -3.64797368 18.94361461
v 1.59596464 -3.44108165 19.7884896
v 2.75987365 -3.51021035 19.60722382
v 2.95624955 -3.70077165 18.78351078
v 0.34041196 -3.62935576 19.00773054
v 0.2619858 -3.41800511 19.85256061
v -3.00645066 -3.78394041 18.77380154
v -2.89986376 -3.6099436 19.55484907
v -1.32056702 -3.48063631 19.77666112
v -1.33679211 -3.67936931 18.95471053
v -3.90163304 -3.46842606 19.39806515
v -4.05496735 -3.64870086 18.51981512
v -3.93381278 -3.794442 18.66559927
v -3.82868498 -3.66561802 19.29430378
v -3.59799841 -3.65557951 19.40136736
v -3.72081926 -3.81046339 18.66150251
v 3.78342421 -3.58954236 19.26223949
v 3.99066133 -3.75468047 18.49778017
v 4.66973745 -3.62241195 18.21387653
v 4.41331106 -3.44134513 19.08717325
v 4.33256107 -3.63417179 19.00207504
v 4.51135778 -3.76387667 18.37614387
v 3.73650031 -3.35351595 19.56020724
v 2.68941299 -3.25555052 19.96307822
v 1.53983648 -3.177299 20.16038816
v 0.23904892 -3.15095885 20.22820104
v -1.30570789 -3.22092828 20.13548371
v -3.58455489 -3.4246013 19.68051886
v -2.86765207 -3.36711825 19.87201199
v 4.11059022 -3.65004452 18.19002094
v 3.05619535 -3.61149317 18.43454357
v 1.83110508 -3.56883367 18.57755311
v 0.38745396 -3.55413348 18.6365057
v -1.34654627 -3.59726332 18.59775729
v -3.82149256 -3.6996842 18.37167387
v -3.09758395 -3.68482743 18.45294735
v 3.65807609 -2.82476452 21.08781196
v 2.84541975 -2.24904664 22.53001292
v 0.82122736 -1.73332153 24.11064587
v -0.06670502 -1.6672839 24.24948527
v 0.79642294 -1.39211892 24.34384738
v -0.07248538 -1.32020367 24.48301573
v -1.09567402 -1.48063622 24.21678205
v -2.36193194 -2.01336959 23.19111447
v -3.34131044 -2.83005279 21.35876995
v 1.72026153 -2.00259061 23.58784474
v -2.29355604 -2.30412199 23.04062499
v -3.01349632 -3.00071988 21.51655971
v -3.14338181 -2.94302523 21.58718389
v -1.09324892 -1.81891334 23.98116905
v 2.73552209 -2.51071117 22.45693422
v 3.42798796 -2.92040385 21.361103
v 3.08475058 -2.92221248 21.50285998
v 1.68459217 -1.66055834 23.83115529
v 1.13820122 -2.57721566 22.34533486
v 0.03451757 -2.53546885 22.42590361
v -2.49089445 -2.90857095 21.75247383
v -1.21394738 -2.64838072 22.23743498
v 3.27001317 -2.87053929 21.12248133
v 2.30078389 -2.70864739 21.64833669
v 1.21600106 -2.58582164 21.88654084
v 0.07798368 -2.5464082 21.95612502
v -1.24443284 -2.65253283 21.78972422
v -3.25867496 -2.97711797 21.09869279
v -2.61730567 -2.88424028 21.35702902
v -1.95941981 -3.68522471 4.0329362
v -1.38151296 -3.71892271 3.95436585
v -1.5228725 -3.72190292 2.79933469
v -2.1221605 -3.65626019 2.86788076
v -0.205382 -3.72731803 2.65150342
v 1.09031663 -3.72206233 2.49028241
v 2.31249138 -3.69355519 3.50539684
v 3.30104789 -3.67562681 3.39532902
v 3.18637279 -3.69932013 2.19318386
v 2.22242783 -3.72093534 2.32707248
v 4.10580804 -3.63888819 3.3088144
v -0.10919459 -3.71262574 3.7964306
v 1.16584667 -3.70240219 3.64149073
v 3.99481154 -3.61113701 2.08184196
v -2.20017542 -3.66619528 3.80439195
v -2.15181488 -3.65396636 4.06041315
v -2.3181619 -3.61256322 2.93796216
v 4.42889595 -3.60290016 3.27662865
v 4.41875337 -3.61226178 3.03203327
v 4.34153048 -3.55932338 2.06881217
v 4.61751389 -3.36315023 3.02167181
v 4.58592722 -3.38853419 3.36996846
v 4.4760963 -3.30887608 1.89089667
v -1.95323482 -3.45877059 4.15566723
v -2.2163983 -3.44375283 4.15777159
v 1.17097996 -3.45130045 3.76305238
v -0.10129468 -3.46312703 3.91791001
v 2.32008882 -3.44235667 3.62674721
v -2.32462935 -3.42315263 3.83345009
v -2.43404686 -3.36447649 2.7903327
v -1.36373308 -3.47367859 4.07554857
v 4.13526409 -3.41064031 3.43426848
v 3.31413999 -3.43163525 3.51593797
v 3.9934603 -3.36479342 1.81112943
v 3.15878672 -3.46272027 1.92501883
v 2.1952577 -3.47452818 2.05455891
v 1.06720388 -3.4770235 2.19827571
v -2.18517791 -3.40791852 2.58023525
v -1.56093454 -3.47738187 2.50301045
v -0.23643744 -3.48340966 2.35440487
v -1.82236373 -3.5555173 0.05351723
v -2.47860165 -3.49293734 0.18627222
v -2.405683 -3.52856068 0.79524954
v -1.75409885 -3.59439287 0.70176929
v 1.97101027 -3.59148414 0.23144475
v 1.87398252 -3.5472852 -0.50501097
v 0.77293126 -3.55190164 -0.37690627
v 0.86039962 -3.59560367 0.35857587
v -0.43210269 -3.60181935 0.52789678
v -0.50940443 -3.55976526 -0.18007837
v 2.94013896 -3.57356841 0.13646459
v 3.79846474 -3.48831426 0.07290789
v 3.72865979 -3.44579963 -0.61978666
v 2.84889276 -3.52914679 -0.5833985
v -2.70388766 -3.44569619 0.27170066
v -2.63849007 -3.47631814 0.79127677
v 4.1961553 -3.43230297 0.02231266
v 4.14975742 -3.39093019 -0.60865025
v -2.70805116 -3.24428095 0.92071817
v -2.80751271 -3.19855458 0.159141
v 4.28342652 -3.14218966 -0.75523149
v 4.36056813 -3.20228316 0.14664576
v 3.85647254 -3.27055531 0.31890765
v 2.98442489 -3.35998751 0.41100249
v 2.01774185 -3.37864529 0.52386391
v 0.90237242 -3.38355526 0.66199795
v -2.39594023 -3.31213748 1.05818228
v -1.72759359 -3.3821474 0.98264401
v -0.40002962 -3.39091374 0.83065462
v 3.73005342 -3.19491551 -0.88272446
v 2.81188971 -3.27872099 -0.87063535
v 1.83117372 -3.29645548 -0.80808765
v 0.72842645 -3.30079231 -0.68906718
v -2.54912556 -3.2432033 -0.07532255
v -1.88287886 -3.3056637 -0.22755865
v -0.56747817 -3.30871318 -0.48565891
v 4.04793846 -3.06122489 -2.0715678
v 3.49637493 -3.12230051 -2.10430645
v 2.54355862 -3.19439898 -2.30346108
v 1.57581281 -3.20696128 -2.38706128
v 0.52583942 -3.20975898 -2.31083727
v -2.90465543 -3.11866967 -1.19706469
v -2.61420463 -3.17640987 -1.2202358
v -1.95332654 -3.23221145 -1.50887324
v -0.69617491 -3.22328601 -2.00417877
v 1.41078002 -3.39022673 -3.24849031
v 1.51797645 -3.4216872 -2.67745547
v 2.47978952 -3.40724226 -2.56646593
v 2.36692146 -3.37274402 -3.0844289
v 0.3909894 -3.39503233 -3.19493638
v 0.48100063 -3.42486573 -2.61500962
v -0.7474218 -3.41292687 -2.83432794
v -0.70014673 -3.43964057 -2.30553096
v -1.96456037 -3.43232542 -2.14456426
v -1.93933898 -3.45166294 -1.75616289
v -2.60378244 -3.38424512 -1.7137985
v -2.58825069 -3.39908797 -1.42720628
v 3.42482524 -3.34207779 -2.33295066
v 3.34872364 -3.3161966 -2.7641352
v -2.8335859 -3.34027265 -1.53858676
v -2.82288504 -3.35191261 -1.3211612
v 3.89104986 -3.29171093 -2.21644606
v 3.84557969 -3.27428579 -2.53886911
v -2.92569308 -3.09712879 -1.59844398
v 3.95653 -3.03520737 -2.59874278
v -2.66007113 -3.14039527 -1.90107657
v -2.02218639 -3.1880609 -2.36027926
v -0.79863303 -3.16729053 -3.08134937
v 0.32969725 -3.15416395 -3.44672007
v 1.33754871 -3.15865925 -3.50201999
v 2.27875969 -3.14903984 -3.33766631
v 3.30843926 -3.07845583 -2.98273615
v -2.0815769 -3.21352805 -4.55483398
v -2.57973897 -3.25072499 -3.83975085
v 3.02236388 -3.18195783 -4.74591148
v 2.01488975 -3.15334662 -5.51088195
v -0.94316747 -3.1675926 -5.39021354
v 0.14236384 -3.14419755 -5.80196947
v 1.09381795 -3.14149284 -5.815029
v 2.0391336 -2.92166148 -5.55846155
v 3.16982444 -2.96385253 -4.67310101
v -0.95926414 -2.9310851 -5.45657902
v 0.13487789 -2.90933103 -5.87133856
v 1.09370186 -2.90744713 -5.88281911
v -2.66782783 -3.01932104 -3.77466324
v -2.11951842 -2.97647556 -4.59270433
v -2.55285193 -3.32145925 -3.28916691
v -1.99153692 -3.37206492 -3.72942935
v 2.09335967 -3.32875478 -4.65415066
v 2.98975713 -3.24888917 -4.23211613
v 1.18944218 -3.3346899 -4.90891139
v -0.84618701 -3.35172251 -4.49590036
v 0.23821688 -3.33330006 -4.89834559
v -2.7488799 -3.27457647 -3.17023057
v 3.41825278 -3.20010921 -4.08647748
v 3.58892683 -3.00882895 -3.88428381
v -2.84180377 -3.06905118 -2.9740125
v -2.62134296 -3.12788579 -2.99186466
v -2.03348221 -3.18055376 -3.43628965
v -0.86283531 -3.16973967 -4.18968848
v 0.2430923 -3.15476619 -4.57621481
v 1.20970354 -3.17129809 -4.57803292
v 2.11927819 -3.17167133 -4.33848131
v 3.08786363 -3.07539022 -3.93935979
vt 0 0
vt 0.4491 0.1177
vt 0.4504 0.1125
vt 0.4577 0.1092
vt 0.4585 0.114
vt 0.79 0.1458
vt 0.7905 0.1361
vt 0.7961 0.1362
vt 0.7955 0.1461
vt 0.8284 0.0073
vt 0.8283 0.0121
vt 0.8285 0.0126
vt 0.8285 0.009
vt 0.6483 0.2839
vt 0.6485 0.2919
vt 0.6594 0.2894
vt 0.6592 0.281
vt 0.6505 0.3465
vt 0.6616 0.3464
vt 0.661 0.334
vt 0.65 0.3345
vt 0.227 0.0504
vt 0.227 0.0556
vt 0.2361 0.0556
vt 0.2361 0.0504
vt 0.8642 0.1463
vt 0.8521 0.1464
vt 0.8525 0.1359
vt 0.8646 0.136
vt 0.9666 0.0045
vt 0.9661 0.0044
vt 0.9657 0.0051
vt 0.9662 0.0052
vt 0.5488 0.0725
vt 0.5318 0.0774
vt 0.5338 0.0712
vt 0.5502 0.0666
vt 0.4864 0.091
vt 0.4901 0.0854
vt 0.5029 0.081
vt 0.4995 0.0871
vt 0.3002 0.0508
vt 0.3003 0.0559
vt 0.3087 0.0559
vt 0.3087 0.0508
vt 0.8275 0.1044
vt 0.828 0.095
vt 0.8353 0.0951
vt 0.8348 0.1044
vt 0.2642 0.0506
vt 0.2548 0.0505
vt 0.2548 0.0557
vt 0.2642 0.0557
vt 0.4772 0.0934
vt 0.4801 0.0889
vt 0.6308 0.3466
vt 0.6403 0.3465
vt 0.6399 0.3349
vt 0.6305 0.3352
vt 0.8659 0.1048
vt 0.8662 0.0954
vt 0.8796 0.0958
vt 0.8794 0.1051
vt 0.4454 0.1322
vt 0.4473 0.1244
vt 0.4577 0.1212
vt 0.4561 0.1298
vt 0.8791 0.1151
vt 0.8655 0.1148
vt 0.8743 0.0038
vt 0.8745 0.0046
vt 0.8852 0.0046
vt 0.885 0.0038
vt 0.4548 0.139
vt 0.444 0.1406
vt 0.763 0.0222
vt 0.7529 0.0222
vt 0.753 0.0241
vt 0.7631 0.0241
vt 0.4454 0.1672
vt 0.4438 0.1584
vt 0.4546 0.1583
vt 0.4561 0.168
vt 0.0206 0.0218
vt 0.0147 0.0224
vt 0.0143 0.024
vt 0.0202 0.0236
vt 0.8783 0.136
vt 0.8778 0.1462
vt 0.8343 0.1146
vt 0.827 0.1146
vt 0.4515 0.1835
vt 0.4479 0.1757
vt 0.4584 0.1772
vt 0.4617 0.1855
vt 0.0341 0.0217
vt 0.0339 0.0236
vt 0.0425 0.0236
vt 0.0427 0.0217
vt 0.7814 0.0223
vt 0.7725 0.0222
vt 0.7726 0.0241
vt 0.7815 0.0241
vt 0.9194 0.0038
vt 0.9076 0.0038
vt 0.9077 0.0046
vt 0.9193 0.0046
vt 0.4682 0.2045
vt 0.4768 0.2072
vt 0.4785 0.2098
vt 0.792 0.1042
vt 0.7978 0.1042
vt 0.7972 0.1149
vt 0.7915 0.1149
vt 0.5442 0.1116
vt 0.5249 0.1153
vt 0.526 0.104
vt 0.5449 0.0996
vt 0.6141 0.3466
vt 0.6064 0.3466
vt 0.6061 0.3576
vt 0.6141 0.3571
vt 0.4697 0.1268
vt 0.4711 0.1172
vt 0.488 0.113
vt 0.4865 0.1232
vt 0.7472 0.1844
vt 0.7472 0.1867
vt 0.7361 0.189
vt 0.736 0.1868
vt 0.6141 0.3354
vt 0.6066 0.3354
vt 0.4855 0.1341
vt 0.4685 0.1368
vt 0.2827 0.0507
vt 0.2736 0.0506
vt 0.2736 0.0558
vt 0.2828 0.0558
vt 0.5437 0.1249
vt 0.5242 0.1278
vt 0.5434 0.1699
vt 0.5242 0.1698
vt 0.5239 0.1555
vt 0.5433 0.1546
vt 0.4696 0.1687
vt 0.4683 0.158
vt 0.4852 0.1574
vt 0.4862 0.1692
vt 0.8534 0.1147
vt 0.8538 0.1046
vt 0.4745 0.1878
vt 0.4717 0.1788
vt 0.4878 0.1804
vt 0.4901 0.1903
vt 0.6312 0.3573
vt 0.6407 0.3575
vt 0.544 0.1967
vt 0.5258 0.1949
vt 0.5249 0.1832
vt 0.5436 0.1843
vt 0.2181 0.0504
vt 0.218 0.0556
vt 0.9515 0.0096
vt 0.9515 0.0129
vt 0.9558 0.0129
vt 0.9558 0.0096
vt 0.0524 0.0218
vt 0.0523 0.0237
vt 0.0631 0.0238
vt 0.0633 0.0219
vt 0.8543 0.0953
vt 0.8248 0.1647
vt 0.8251 0.1561
vt 0.8325 0.1562
vt 0.8321 0.1648
vt 0.7657 0.1817
vt 0.7657 0.1841
vt 0.7572 0.1851
vt 0.7571 0.1827
vt 0.5809 0.0649
vt 0.5651 0.0684
vt 0.566 0.0626
vt 0.5815 0.0593
vt 0.651 0.3578
vt 0.6621 0.358
vt 0.824 0.1853
vt 0.8314 0.1856
vt 0.8313 0.1881
vt 0.8239 0.1877
vt 0.7924 0.0941
vt 0.7983 0.0943
vt 0.6144 0.287
vt 0.6079 0.2856
vt 0.6077 0.294
vt 0.6143 0.295
vt 0.8671 0.0746
vt 0.8673 0.07
vt 0.8795 0.0696
vt 0.8796 0.0744
vt 0.8747 0.0095
vt 0.8747 0.0127
vt 0.8853 0.0127
vt 0.8853 0.0095
vt 0.0795 0.0502
vt 0.0795 0.0554
vt 0.0918 0.0553
vt 0.0918 0.0502
vt 0.5788 0.1058
vt 0.562 0.1084
vt 0.5625 0.0958
vt 0.5791 0.0926
vt 0.5785 0.1205
vt 0.5617 0.1225
vt 0.6488 0.3011
vt 0.6491 0.3114
vt 0.6601 0.3099
vt 0.6597 0.2991
vt 0.5779 0.1698
vt 0.5612 0.1699
vt 0.5613 0.1538
vt 0.5781 0.1532
vt 0.5777 0.1985
vt 0.5613 0.1979
vt 0.5612 0.185
vt 0.5778 0.1853
vt 0.5777 0.2247
vt 0.5778 0.2272
vt 0.5622 0.2267
vt 0.5621 0.2241
vt 0.7793 0.1454
vt 0.7795 0.1359
vt 0.7851 0.136
vt 0.7847 0.1456
vt 0.6698 0.2083
vt 0.6841 0.2035
vt 0.6842 0.2053
vt 0.6698 0.2101
vt 0.8291 0.0749
vt 0.8293 0.0709
vt 0.8366 0.071
vt 0.8364 0.0751
vt 0.8625 0.187
vt 0.8623 0.1896
vt 0.8507 0.189
vt 0.8508 0.1865
vt 0.6424 0.0583
vt 0.6424 0.054
vt 0.6574 0.0544
vt 0.6574 0.0585
vt 0.6117 0.0601
vt 0.6119 0.0551
vt 0.6272 0.0542
vt 0.6271 0.0588
vt 0.7803 0.1039
vt 0.7804 0.0936
vt 0.7866 0.0939
vt 0.7863 0.1041
vt 0.0673 0.0503
vt 0.0672 0.0554
vt 0.4108 0.051
vt 0.4109 0.0561
vt 0.4231 0.0562
vt 0.423 0.051
vt 0.7788 0.1617
vt 0.7791 0.154
vt 0.7844 0.1543
vt 0.7841 0.1621
vt 0.7892 0.1626
vt 0.7896 0.1547
vt 0.7951 0.1551
vt 0.7946 0.1632
vt 0.6418 0.0996
vt 0.642 0.0853
vt 0.6572 0.0849
vt 0.6571 0.0991
vt 0.6106 0.1019
vt 0.6108 0.0879
vt 0.6265 0.0863
vt 0.6263 0.1006
vt 0.6261 0.1165
vt 0.6104 0.1176
vt 0.5464 0.2226
vt 0.5466 0.2252
vt 0.5309 0.2227
vt 0.5304 0.2201
vt 0.657 0.115
vt 0.6417 0.1156
vt 0.6297 0.3037
vt 0.6299 0.3134
vt 0.6391 0.3126
vt 0.6388 0.3027
vt 0.6411 0.1668
vt 0.6413 0.1501
vt 0.6567 0.1488
vt 0.6565 0.1651
vt 0.6097 0.169
vt 0.61 0.1519
vt 0.6257 0.1511
vt 0.6255 0.1681
vt 0.6093 0.1979
vt 0.6095 0.1846
vt 0.6253 0.1836
vt 0.625 0.1966
vt 0.6406 0.1946
vt 0.6409 0.182
vt 0.6563 0.1798
vt 0.656 0.1919
vt 0.9191 0.0095
vt 0.9191 0.0128
vt 0.9295 0.0128
vt 0.9295 0.0095
vt 0.6474 0.2596
vt 0.6479 0.2601
vt 0.6588 0.2576
vt 0.6582 0.2574
vt 0.6143 0.304
vt 0.6074 0.3036
vt 0.6072 0.3137
vt 0.6142 0.3138
vt 0.7859 0.1148
vt 0.78 0.1148
vt 0.6259 0.2639
vt 0.6282 0.2633
vt 0.6375 0.2621
vt 0.6367 0.2617
vt 0.6994 0.0623
vt 0.6993 0.0584
vt 0.712 0.0601
vt 0.7122 0.0642
vt 0.7243 0.066
vt 0.7241 0.0617
vt 0.6323 0.38
vt 0.6326 0.3843
vt 0.6424 0.3849
vt 0.6421 0.3806
vt 0.672 0.0593
vt 0.672 0.0554
vt 0.6859 0.0567
vt 0.686 0.0606
vt 0.6088 0.2228
vt 0.6243 0.2203
vt 0.6243 0.2225
vt 0.6088 0.2252
vt 0.798 0.0225
vt 0.7983 0.0243
vt 0.8065 0.0247
vt 0.8061 0.0231
vt 0.6525 0.3812
vt 0.6529 0.3856
vt 0.664 0.3863
vt 0.6636 0.382
vt 0.6144 0.379
vt 0.6059 0.3788
vt 0.6059 0.3831
vt 0.6145 0.3833
vt 0.6997 0.1001
vt 0.6997 0.0871
vt 0.7126 0.0886
vt 0.7127 0.101
vt 0.725 0.1018
vt 0.7249 0.0899
vt 0.8269 0.0044
vt 0.8273 0.0051
vt 0.8277 0.005
vt 0.8274 0.0043
vt 0.6719 0.099
vt 0.672 0.0851
vt 0.6862 0.0859
vt 0.6861 0.0994
vt 0.6144 0.2618
vt 0.6087 0.2607
vt 0.6086 0.2614
vt 0.6146 0.2624
vt 0.6861 0.1144
vt 0.6718 0.1146
vt 0.7251 0.1146
vt 0.7127 0.1145
vt 0.6997 0.1144
vt 0.0356 0.051
vt 0.0351 0.056
vt 0.0449 0.0558
vt 0.0453 0.0506
vt 0.9079 0.0095
vt 0.9079 0.0128
vt 0.4875 0.2102
vt 0.5004 0.2135
vt 0.5015 0.2161
vt 0.4889 0.2127
vt 0.6995 0.1572
vt 0.6996 0.1436
vt 0.7127 0.1417
vt 0.7127 0.1542
vt 0.7251 0.1515
vt 0.7251 0.14
vt 0.6714 0.163
vt 0.6716 0.1474
vt 0.6859 0.1456
vt 0.6858 0.1602
vt 0.6709 0.1885
vt 0.6712 0.1769
vt 0.6856 0.1733
vt 0.6853 0.1842
vt 0.7932 0.0728
vt 0.7934 0.0687
vt 0.7994 0.0691
vt 0.7993 0.0732
vt 0.7249 0.1706
vt 0.7124 0.1748
vt 0.7126 0.1654
vt 0.7251 0.1618
vt 0.6992 0.1795
vt 0.6994 0.1694
vt 0.6397 0.2169
vt 0.6549 0.2129
vt 0.655 0.2147
vt 0.6398 0.2189
vt 0.9304 0.0047
vt 0.9313 0.0039
vt 0.7883 0.1827
vt 0.7936 0.1833
vt 0.7936 0.1857
vt 0.7882 0.1851
vt 0.6294 0.2872
vt 0.6295 0.2949
vt 0.6385 0.2938
vt 0.6384 0.286
vt 0.8296 0.0097
vt 0.8296 0.013
vt 0.8302 0.0129
vt 0.8302 0.0096
vt 0.7466 0.0687
vt 0.7358 0.0674
vt 0.7356 0.0632
vt 0.7464 0.0644
vt 0.8554 0.0748
vt 0.8557 0.0705
vt 0.829 0.0039
vt 0.8293 0.0048
vt 0.8299 0.0047
vt 0.8298 0.0039
vt 0.3987 0.0509
vt 0.3987 0.0561
vt 0.7655 0.0705
vt 0.7565 0.0697
vt 0.7563 0.0654
vt 0.7653 0.0663
vt 0.7475 0.1029
vt 0.7367 0.1024
vt 0.7365 0.091
vt 0.7473 0.0918
vt 0.7476 0.1147
vt 0.7367 0.1147
vt 0.7661 0.1035
vt 0.7662 0.1147
vt 0.7574 0.1147
vt 0.7574 0.1032
vt 0.698 0.1986
vt 0.7113 0.194
vt 0.7113 0.196
vt 0.698 0.2005
vt 0.7572 0.0924
vt 0.7661 0.0929
vt 0.724 0.19
vt 0.724 0.1921
vt 0.7662 0.1457
vt 0.7576 0.1464
vt 0.7576 0.1367
vt 0.7662 0.1362
vt 0.8562 0.0095
vt 0.8562 0.0128
vt 0.8649 0.0128
vt 0.8649 0.0095
vt 0.7478 0.1476
vt 0.7369 0.1493
vt 0.7369 0.1386
vt 0.7478 0.1375
vt 0.7478 0.1647
vt 0.7368 0.1672
vt 0.7369 0.1589
vt 0.7478 0.1567
vt 0.7661 0.1619
vt 0.7576 0.1629
vt 0.7576 0.1552
vt 0.7661 0.1543
vt 0.1927 0.0503
vt 0.1845 0.0502
vt 0.1845 0.0554
vt 0.1926 0.0554
vt 0.8529 0.0039
vt 0.8553 0.0047
vt 0.8643 0.0046
vt 0.8636 0.0039
vt 0.8255 0.1465
vt 0.826 0.1361
vt 0.8333 0.136
vt 0.8329 0.1464
vt 0.4545 0.0517
vt 0.4449 0.0514
vt 0.4453 0.0565
vt 0.4551 0.0567
vt 0.8634 0.1649
vt 0.8514 0.1649
vt 0.8517 0.1562
vt 0.8638 0.1561
vt 0.8746 0.1874
vt 0.8743 0.1901
vt 0.9524 0.0039
vt 0.952 0.0047
vt 0.9564 0.0047
vt 0.9569 0.0039
vt 0.7806 0.0718
vt 0.7805 0.0677
vt 0.7871 0.0682
vt 0.7871 0.0724
vt 0.7782 0.1816
vt 0.7833 0.1821
vt 0.7832 0.1844
vt 0.7782 0.184
vt 0.8772 0.1559
vt 0.8766 0.1647
vt 0.9648 0.0072
vt 0.9648 0.009
vt 0.9648 0.0125
vt 0.965 0.012
g Group1
f 215/1 201/1 557/1 556/1
f 87/2 86/3 292/4 291/5
f 264/6 49/7 54/8 259/9
f 159/10 218/11 217/12 177/13
f 68/14 248/15 247/16 69/17
f 159/1 195/1 237/1 246/1
f 253/1 559/1 558/1 179/1
f 65/18 64/19 67/20 66/21
f 146/22 220/23 219/24 144/25
f 276/26 258/27 239/28 59/29
f 149/1 148/1 207/1 205/1
f 161/30 174/31 176/32 163/33
f 182/1 561/1 560/1 194/1
f 205/1 207/1 563/1 562/1
f 5/34 372/35 371/36 293/37
f 1/38 294/39 359/40 358/41
f 143/42 222/43 221/44 142/45
f 146/1 144/1 179/1 178/1
f 55/46 53/47 236/48 235/49
f 252/50 144/51 219/52 255/53
f 193/1 565/1 564/1 187/1
f 162/1 246/1 237/1 180/1
f 195/1 567/1 566/1 237/1
f 294/38 292/54 86/55 119/39
f 76/56 65/57 66/58 79/59
f 58/60 57/61 37/62 38/63
f 88/64 87/65 291/66 295/67
f 230/1 232/1 455/1 454/1
f 58/60 38/63 39/68 59/69
f 261/70 273/71 166/72 78/73
f 88/64 295/67 296/74 89/75
f 181/1 569/1 568/1 196/1
f 151/76 150/77 173/78 172/79
f 158/1 182/1 194/1 126/1
f 251/80 89/81 296/82 297/83
f 140/84 139/85 171/86 170/87
f 276/26 59/29 39/88 277/89
f 193/1 203/1 570/1 565/1
f 55/46 235/49 239/90 54/91
f 90/92 251/93 297/94 298/95
f 143/1 204/1 253/1 252/1
f 140/96 170/97 169/98 137/99
f 180/1 237/1 566/1 571/1
f 178/1 179/1 558/1 572/1
f 160/100 151/101 172/102 175/103
f 77/104 78/105 166/106 167/107
f 90/108 298/109 299/109 91/110
f 225/1 234/1 457/1 456/1
f 252/1 253/1 179/1 144/1
f 50/111 55/112 54/113 49/114
f 228/1 229/1 459/1 458/1
f 8/115 373/116 372/117 5/118
f 76/119 77/120 74/121 75/122
f 2/123 1/124 358/125 360/126
f 35/127 301/128 300/129 36/130
f 204/1 573/1 559/1 253/1
f 76/119 79/131 78/132 77/120
f 2/123 360/126 361/133 3/134
f 143/135 252/136 255/137 222/138
f 8/115 9/139 374/140 373/116
f 158/1 363/1 362/1 182/1
f 257/141 375/142 374/143 9/144
f 250/145 3/146 361/147 364/148
f 152/1 153/1 201/1 215/1
f 58/60 59/69 239/149 235/150
f 4/151 250/152 364/153 365/154
f 76/56 75/155 62/156 65/57
f 132/1 377/1 376/1 203/1
f 12/157 378/158 375/159 257/160
f 145/1 184/1 183/1 147/1
f 146/22 145/161 230/162 220/23
f 224/1 243/1 461/1 460/1
f 164/163 226/164 338/165 337/166
f 189/1 185/1 575/1 574/1
f 138/1 135/1 185/1 189/1
f 136/1 213/1 185/1 135/1
f 160/1 202/1 192/1 151/1
f 137/167 169/168 168/169 138/170
f 208/1 206/1 577/1 576/1
f 143/1 142/1 200/1 204/1
f 58/60 235/150 236/171 57/61
f 125/1 126/1 194/1 186/1
f 191/1 186/1 579/1 578/1
f 56/172 259/173 258/174 240/175
f 154/1 155/1 211/1 212/1
f 51/176 303/177 301/178 35/179
f 6/180 5/181 293/182 304/183
f 65/18 62/184 63/185 64/19
f 131/1 193/1 187/1 134/1
f 161/1 163/1 206/1 208/1
f 56/186 240/187 306/188 305/189
f 50/111 46/190 53/191 55/112
f 80/192 81/193 261/194 260/195
f 225/1 456/1 462/1 245/1
f 57/196 308/197 307/198 37/199
f 273/200 272/201 231/202 166/203
f 139/1 209/1 195/1 159/1
f 149/204 224/205 223/206 148/207
f 202/1 208/1 576/1 580/1
f 7/208 8/209 5/210 6/211
f 7/208 10/212 9/213 8/209
f 146/1 178/1 184/1 145/1
f 275/1 73/1 341/1 342/1
f 212/1 211/1 582/1 581/1
f 129/1 256/1 262/1 181/1
f 248/214 66/215 67/216 247/217
f 263/218 257/219 9/220 10/221
f 156/1 214/1 380/1 379/1
f 11/222 12/223 257/224 263/225
f 72/226 275/227 342/228 343/229
f 134/1 187/1 188/1 133/1
f 163/1 242/1 241/1 206/1
f 137/1 138/1 189/1 197/1
f 265/230 48/231 49/232 264/233
f 151/1 192/1 190/1 150/1
f 128/1 125/1 186/1 191/1
f 19/234 28/235 312/236 311/237
f 228/1 458/1 461/1 243/1
f 203/1 376/1 583/1 570/1
f 53/238 314/239 313/240 236/241
f 60/242 315/243 306/244 240/245
f 160/1 161/1 208/1 202/1
f 13/246 317/247 316/248 14/249
f 6/250 304/251 317/252 13/253
f 47/254 45/255 46/256 50/257
f 149/204 242/258 243/259 224/205
f 162/260 225/261 245/262 246/263
f 190/1 584/1 557/1 201/1
f 255/1 219/1 464/1 463/1
f 71/1 72/1 343/1 344/1
f 51/264 265/265 264/266 52/267
f 52/268 264/269 259/270 56/271
f 262/1 198/1 586/1 585/1
f 16/272 13/273 14/274 15/275
f 186/1 194/1 560/1 579/1
f 70/1 71/1 344/1 345/1
f 7/276 6/277 13/278 16/279
f 157/1 216/1 214/1 156/1
f 140/1 199/1 209/1 139/1
f 157/1 154/1 212/1 216/1
f 7/276 16/279 17/280 10/281
f 184/1 588/1 587/1 183/1
f 12/282 318/283 382/284 378/285
f 16/272 15/275 18/286 17/287
f 260/288 79/289 66/290 248/291
f 266/292 17/293 18/294 267/295
f 205/1 562/1 589/1 241/1
f 263/296 10/297 17/298 266/299
f 11/300 263/301 266/302 20/303
f 224/1 460/1 465/1 223/1
f 20/304 266/305 267/306 19/307
f 167/308 227/309 226/310 164/311
f 217/1 467/1 466/1 349/1
f 199/1 197/1 591/1 590/1
f 192/1 592/1 584/1 190/1
f 197/1 189/1 574/1 591/1
f 169/312 350/313 339/314 168/315
f 260/316 261/317 78/318 79/319
f 47/254 50/257 49/320 48/321
f 170/322 351/323 350/324 169/325
f 21/326 320/327 319/328 22/329
f 29/330 22/329 319/328 321/331
f 75/332 353/333 352/334 62/335
f 14/336 316/337 320/338 21/339
f 11/340 20/341 323/342 322/343
f 272/1 469/1 468/1 231/1
f 160/344 175/345 174/346 161/347
f 62/348 352/349 354/350 63/351
f 75/352 74/353 355/354 353/355
f 24/356 21/357 22/358 23/359
f 31/360 23/359 22/358 29/361
f 139/362 159/363 177/364 171/365
f 15/366 14/367 21/368 24/369
f 133/1 188/1 213/1 136/1
f 170/370 171/371 356/372 351/373
f 202/1 580/1 592/1 192/1
f 15/366 24/369 25/374 18/375
f 227/1 231/1 468/1 470/1
f 31/360 32/376 26/377 23/359
f 24/356 23/359 26/377 25/378
f 163/379 228/380 243/381 242/382
f 167/308 166/383 231/384 227/309
f 4/385 365/386 366/387 299/388
f 269/389 25/390 26/391 271/392
f 270/393 271/392 26/391 32/394
f 216/1 212/1 581/1 593/1
f 267/395 18/396 25/397 269/398
f 220/1 230/1 454/1 471/1
f 19/399 267/400 269/401 28/402
f 46/403 324/404 314/405 53/406
f 36/407 27/408 271/409 270/410
f 218/1 245/1 462/1 472/1
f 28/411 269/412 271/409 27/408
f 155/1 152/1 215/1 211/1
f 20/413 19/414 311/415 323/416
f 77/104 167/107 164/417 74/418
f 218/1 472/1 467/1 217/1
f 52/419 56/420 305/421 325/422
f 209/1 594/1 567/1 195/1
f 80/423 260/424 248/425 68/426
f 177/427 217/428 349/429 357/430
f 30/431 29/432 321/433 326/434
f 57/196 236/435 313/436 308/197
f 171/437 177/438 357/439 356/440
f 162/260 141/441 234/442 225/261
f 130/1 196/1 368/1 367/1
f 45/443 30/444 326/445 328/446
f 149/1 205/1 241/1 242/1
f 34/447 31/448 29/449 30/450
f 34/447 33/451 32/452 31/448
f 233/1 473/1 469/1 272/1
f 47/453 48/454 33/455 34/456
f 196/1 568/1 595/1 368/1
f 129/1 181/1 196/1 130/1
f 206/1 241/1 589/1 577/1
f 226/1 475/1 474/1 338/1
f 28/457 27/458 329/459 312/460
f 47/453 34/456 30/461 45/462
f 187/1 564/1 596/1 188/1
f 36/463 300/464 329/459 27/458
f 265/465 274/466 33/467 48/468
f 214/1 598/1 597/1 380/1
f 165/469 233/470 272/471 273/472
f 274/473 270/474 32/475 33/476
f 178/1 572/1 588/1 184/1
f 35/477 36/478 270/479 274/480
f 227/1 470/1 475/1 226/1
f 51/481 35/482 274/483 265/484
f 145/485 147/486 232/487 230/488
f 81/489 165/490 273/491 261/492
f 140/1 137/1 197/1 199/1
f 216/1 593/1 598/1 214/1
f 128/1 191/1 198/1 127/1
f 181/1 262/1 585/1 569/1
f 259/493 54/494 239/495 258/496
f 256/1 127/1 198/1 262/1
f 222/1 477/1 476/1 221/1
f 180/1 571/1 599/1 210/1
f 159/497 246/498 245/499 218/500
f 150/1 190/1 201/1 153/1
f 204/1 200/1 600/1 573/1
f 60/501 240/502 258/503 276/504
f 191/1 578/1 586/1 198/1
f 199/1 590/1 594/1 209/1
f 60/242 40/505 330/506 315/243
f 188/1 596/1 601/1 213/1
f 220/1 471/1 464/1 219/1
f 222/1 255/1 463/1 477/1
f 74/507 164/508 337/509 355/510
f 211/1 215/1 556/1 582/1
f 182/1 362/1 602/1 561/1
f 131/1 132/1 203/1 193/1
f 11/226 322/227 318/228 12/229
f 162/1 180/1 210/1 141/1
f 213/1 601/1 575/1 185/1
f 45/511 328/512 324/513 46/514
f 51/515 52/516 325/517 303/518
f 60/501 276/504 277/519 40/520
f 163/521 176/522 229/523 228/524
f 279/1 40/1 277/1 278/1
f 281/1 210/1 599/1 603/1
f 279/1 309/1 330/1 40/1
f 278/1 277/1 39/1 282/1
f 283/1 282/1 39/1 38/1
f 283/1 38/1 37/1 284/1
f 284/1 37/1 307/1 327/1
f 287/1 148/1 223/1 286/1
f 288/1 478/1 457/1 234/1
f 287/1 289/1 207/1 148/1
f 289/1 604/1 563/1 207/1
f 290/1 288/1 234/1 141/1
f 290/1 141/1 210/1 281/1
f 286/1 223/1 465/1 479/1
f 292/1 1/1 291/1
f 293/1 371/1 383/1 118/1
f 294/1 119/1 370/1 359/1
f 292/1 294/1 1/1
f 295/1 291/1 1/1 2/1
f 295/1 2/1 3/1 296/1
f 297/1 296/1 3/1 250/1
f 298/1 297/1 250/1 4/1
f 298/1 4/1 299/1
f 301/1 99/1 98/1 300/1
f 303/1 100/1 99/1 301/1
f 304/1 293/1 118/1 117/1
f 305/1 306/1 238/1 120/1
f 308/1 110/1 109/1 307/1
f 311/1 312/1 96/1 95/1
f 314/1 124/1 244/1 313/1
f 315/1 123/1 238/1 306/1
f 317/1 116/1 115/1 316/1
f 304/1 117/1 116/1 317/1
f 318/1 92/1 381/1 382/1
f 320/1 114/1 113/1 319/1
f 321/1 319/1 113/1 112/1
f 316/1 115/1 114/1 320/1
f 322/1 323/1 94/1 93/1
f 299/1 366/1 369/1 91/1
f 324/1 121/1 124/1 314/1
f 323/1 311/1 95/1 94/1
f 325/1 305/1 120/1 101/1
f 326/1 321/1 112/1 111/1
f 308/1 313/1 244/1 110/1
f 328/1 326/1 111/1 122/1
f 312/1 329/1 97/1 96/1
f 300/1 98/1 97/1 329/1
f 315/1 330/1 102/1 123/1
f 322/1 93/1 92/1 318/1
f 328/1 122/1 121/1 324/1
f 303/1 325/1 101/1 100/1
f 309/1 280/1 102/1 330/1
f 327/1 307/1 109/1 285/1
f 108/1 107/1 41/1 302/1
f 107/1 106/1 42/1 41/1
f 106/1 105/1 43/1 42/1
f 105/1 254/1 268/1 43/1
f 254/1 104/1 44/1 268/1
f 104/1 103/1 310/1 44/1
f 337/1 338/1 229/1 176/1
f 341/1 73/1 340/1
f 346/1 70/1 345/1
f 349/1 466/1 473/1 233/1
f 350/1 68/1 69/1 339/1
f 351/1 80/1 68/1 350/1
f 353/1 175/1 172/1 352/1
f 352/1 172/1 173/1 354/1
f 353/1 355/1 174/1 175/1
f 351/1 356/1 81/1 80/1
f 357/1 349/1 233/1 165/1
f 356/1 357/1 165/1 81/1
f 334/1 61/1 347/1
f 338/1 474/1 459/1 229/1
f 355/1 337/1 176/1 174/1
f 372/1 358/1 359/1 371/1
f 373/1 360/1 358/1 372/1
f 373/1 374/1 361/1 360/1
f 375/1 364/1 361/1 374/1
f 377/1 367/1 368/1 376/1
f 378/1 365/1 364/1 375/1
f 379/1 380/1 362/1 363/1
f 376/1 368/1 595/1 583/1
f 378/1 382/1 366/1 365/1
f 380/1 597/1 602/1 362/1
f 371/1 359/1 370/1 383/1
f 382/1 381/1 369/1 366/1
f 158/1 385/1 384/1 363/1
f 385/1 387/1 386/1 384/1
f 387/1 389/1 388/1 386/1
f 389/1 391/1 390/1 388/1
f 391/1 393/1 392/1 390/1
f 367/1 394/1 395/1 130/1
f 394/1 396/1 397/1 395/1
f 396/1 392/1 393/1 397/1
f 379/1 398/1 399/1 156/1
f 398/1 400/1 401/1 399/1
f 400/1 402/1 403/1 401/1
f 402/1 404/1 405/1 403/1
f 404/1 406/1 407/1 405/1
f 132/1 409/1 408/1 377/1
f 409/1 411/1 410/1 408/1
f 411/1 407/1 406/1 410/1
f 157/1 413/1 412/1 154/1
f 413/1 415/1 414/1 412/1
f 415/1 417/1 416/1 414/1
f 417/1 419/1 418/1 416/1
f 419/1 421/1 420/1 418/1
f 134/1 422/1 423/1 131/1
f 422/1 424/1 425/1 423/1
f 425/1 424/1 420/1 421/1
f 155/1 427/1 426/1 152/1
f 427/1 429/1 428/1 426/1
f 429/1 431/1 430/1 428/1
f 431/1 433/1 432/1 430/1
f 433/1 435/1 434/1 432/1
f 136/1 436/1 437/1 133/1
f 436/1 438/1 439/1 437/1
f 439/1 438/1 434/1 435/1
f 168/1 339/1 441/1 138/1
f 138/1 441/1 440/1 135/1
f 339/1 69/1 443/1 441/1
f 441/1 443/1 442/1 440/1
f 69/1 247/1 445/1 443/1
f 443/1 445/1 444/1 442/1
f 247/1 67/1 447/1 445/1
f 445/1 447/1 446/1 444/1
f 67/1 64/1 449/1 447/1
f 447/1 449/1 448/1 446/1
f 153/1 450/1 451/1 150/1
f 150/1 451/1 354/1 173/1
f 450/1 452/1 453/1 451/1
f 451/1 453/1 63/1 354/1
f 449/1 453/1 452/1 448/1
f 63/1 453/1 449/1 64/1
f 461/1 480/1 481/1 460/1
f 480/1 482/1 483/1 481/1
f 482/1 484/1 485/1 483/1
f 484/1 486/1 487/1 485/1
f 456/1 489/1 488/1 462/1
f 491/1 490/1 488/1 489/1
f 491/1 492/1 493/1 490/1
f 492/1 487/1 486/1 493/1
f 465/1 494/1 495/1 479/1
f 494/1 496/1 497/1 495/1
f 496/1 498/1 499/1 497/1
f 498/1 500/1 501/1 499/1
f 478/1 503/1 502/1 457/1
f 503/1 505/1 504/1 502/1
f 505/1 506/1 507/1 504/1
f 506/1 501/1 500/1 507/1
f 268/1 509/1 508/1 43/1
f 183/1 587/1 605/1 510/1
f 512/1 279/1 278/1 513/1
f 41/1 515/1 514/1 302/1
f 516/1 281/1 603/1 606/1
f 512/1 518/1 309/1 279/1
f 513/1 278/1 282/1 519/1
f 42/1 43/1 508/1 520/1
f 44/1 310/1 522/1 521/1
f 232/1 524/1 523/1 455/1
f 142/1 221/1 526/1 525/1
f 527/1 519/1 282/1 283/1
f 527/1 283/1 284/1 528/1
f 44/1 521/1 509/1 268/1
f 528/1 284/1 327/1 529/1
f 42/1 520/1 515/1 41/1
f 530/1 287/1 286/1 531/1
f 147/1 183/1 510/1 532/1
f 142/1 525/1 533/1 200/1
f 534/1 535/1 478/1 288/1
f 147/1 532/1 524/1 232/1
f 200/1 533/1 607/1 600/1
f 530/1 537/1 289/1 287/1
f 537/1 608/1 604/1 289/1
f 221/1 476/1 539/1 526/1
f 540/1 534/1 288/1 290/1
f 540/1 290/1 281/1 516/1
f 531/1 286/1 479/1 541/1
f 302/1 514/1 511/1 108/1
f 518/1 517/1 280/1 309/1
f 310/1 103/1 536/1 522/1
f 529/1 327/1 285/1 538/1
f 519/1 508/1 509/1 513/1
f 537/1 510/1 605/1 608/1
f 512/1 521/1 522/1 518/1
f 540/1 525/1 526/1 534/1
f 508/1 519/1 527/1 520/1
f 513/1 509/1 521/1 512/1
f 515/1 528/1 529/1 514/1
f 528/1 515/1 520/1 527/1
f 531/1 524/1 532/1 530/1
f 510/1 537/1 530/1 532/1
f 534/1 526/1 539/1 535/1
f 525/1 540/1 516/1 533/1
f 524/1 531/1 541/1 523/1
f 538/1 511/1 514/1 529/1
f 536/1 517/1 518/1 522/1
f 539/1 543/1 542/1 535/1
f 543/1 545/1 544/1 542/1
f 545/1 547/1 546/1 544/1
f 547/1 549/1 548/1 546/1
f 551/1 550/1 548/1 549/1
f 553/1 552/1 550/1 551/1
f 552/1 553/1 554/1 555/1
f 523/1 541/1 555/1 554/1
f 606/1 607/1 533/1 516/1
f 517/1 536/1 610/1 609/1
f 609/1 610/1 612/1 611/1
f 611/1 612/1 614/1 613/1
f 613/1 614/1 607/1 606/1
f 556/1 557/1 616/1 615/1
f 615/1 616/1 618/1 617/1
f 617/1 618/1 620/1 619/1
f 619/1 620/1 113/1 114/1
f 558/1 559/1 622/1 621/1
f 621/1 622/1 624/1 623/1
f 623/1 624/1 626/1 625/1
f 625/1 626/1 254/1 105/1
f 560/1 561/1 628/1 627/1
f 627/1 628/1 630/1 629/1
f 629/1 630/1 632/1 631/1
f 631/1 632/1 119/1 86/1
f 562/1 563/1 634/1 633/1
f 633/1 634/1 636/1 635/1
f 635/1 636/1 638/1 637/1
f 637/1 638/1 109/1 110/1
f 564/1 565/1 640/1 639/1
f 639/1 640/1 642/1 641/1
f 641/1 642/1 644/1 643/1
f 643/1 644/1 93/1 94/1
f 566/1 567/1 646/1 645/1
f 645/1 646/1 648/1 647/1
f 647/1 648/1 650/1 649/1
f 649/1 650/1 120/1 238/1
f 568/1 569/1 652/1 651/1
f 651/1 652/1 654/1 653/1
f 653/1 654/1 656/1 655/1
f 655/1 656/1 90/1 91/1
f 565/1 570/1 657/1 640/1
f 640/1 657/1 658/1 642/1
f 642/1 658/1 659/1 644/1
f 644/1 659/1 92/1 93/1
f 571/1 566/1 645/1 660/1
f 660/1 645/1 647/1 661/1
f 661/1 647/1 649/1 662/1
f 662/1 649/1 238/1 123/1
f 572/1 558/1 621/1 663/1
f 663/1 621/1 623/1 664/1
f 664/1 623/1 625/1 665/1
f 665/1 625/1 105/1 106/1
f 559/1 573/1 666/1 622/1
f 622/1 666/1 667/1 624/1
f 624/1 667/1 668/1 626/1
f 626/1 668/1 104/1 254/1
f 574/1 575/1 670/1 669/1
f 669/1 670/1 672/1 671/1
f 671/1 672/1 674/1 673/1
f 673/1 674/1 97/1 98/1
f 576/1 577/1 676/1 675/1
f 675/1 676/1 678/1 677/1
f 677/1 678/1 680/1 679/1
f 679/1 680/1 124/1 121/1
f 578/1 579/1 682/1 681/1
f 681/1 682/1 684/1 683/1
f 683/1 684/1 686/1 685/1
f 685/1 686/1 87/1 88/1
f 580/1 576/1 675/1 687/1
f 687/1 675/1 677/1 688/1
f 688/1 677/1 679/1 689/1
f 689/1 679/1 121/1 122/1
f 581/1 582/1 691/1 690/1
f 690/1 691/1 693/1 692/1
f 692/1 693/1 695/1 694/1
f 694/1 695/1 115/1 116/1
f 570/1 583/1 696/1 657/1
f 657/1 696/1 697/1 658/1
f 658/1 697/1 698/1 659/1
f 659/1 698/1 381/1 92/1
f 557/1 584/1 699/1 616/1
f 616/1 699/1 700/1 618/1
f 618/1 700/1 701/1 620/1
f 620/1 701/1 112/1 113/1
f 585/1 586/1 703/1 702/1
f 702/1 703/1 705/1 704/1
f 704/1 705/1 707/1 706/1
f 706/1 707/1 89/1 251/1
f 579/1 560/1 627/1 682/1
f 682/1 627/1 629/1 684/1
f 684/1 629/1 631/1 686/1
f 686/1 631/1 86/1 87/1
f 587/1 588/1 709/1 708/1
f 708/1 709/1 711/1 710/1
f 710/1 711/1 713/1 712/1
f 712/1 713/1 107/1 108/1
f 589/1 562/1 633/1 714/1
f 714/1 633/1 635/1 715/1
f 715/1 635/1 637/1 716/1
f 716/1 637/1 110/1 244/1
f 590/1 591/1 718/1 717/1
f 717/1 718/1 720/1 719/1
f 719/1 720/1 722/1 721/1
f 721/1 722/1 99/1 100/1
f 584/1 592/1 723/1 699/1
f 699/1 723/1 724/1 700/1
f 700/1 724/1 725/1 701/1
f 701/1 725/1 111/1 112/1
f 591/1 574/1 669/1 718/1
f 718/1 669/1 671/1 720/1
f 720/1 671/1 673/1 722/1
f 722/1 673/1 98/1 99/1
f 592/1 580/1 687/1 723/1
f 723/1 687/1 688/1 724/1
f 724/1 688/1 689/1 725/1
f 725/1 689/1 122/1 111/1
f 593/1 581/1 690/1 726/1
f 726/1 690/1 692/1 727/1
f 727/1 692/1 694/1 728/1
f 728/1 694/1 116/1 117/1
f 567/1 594/1 729/1 646/1
f 646/1 729/1 730/1 648/1
f 648/1 730/1 731/1 650/1
f 650/1 731/1 101/1 120/1
f 595/1 568/1 651/1 732/1
f 732/1 651/1 653/1 733/1
f 733/1 653/1 655/1 734/1
f 734/1 655/1 91/1 369/1
f 577/1 589/1 714/1 676/1
f 676/1 714/1 715/1 678/1
f 678/1 715/1 716/1 680/1
f 680/1 716/1 244/1 124/1
f 596/1 564/1 639/1 735/1
f 735/1 639/1 641/1 736/1
f 736/1 641/1 643/1 737/1
f 737/1 643/1 94/1 95/1
f 597/1 598/1 739/1 738/1
f 738/1 739/1 741/1 740/1
f 740/1 741/1 743/1 742/1
f 742/1 743/1 118/1 383/1
f 588/1 572/1 663/1 709/1
f 709/1 663/1 664/1 711/1
f 711/1 664/1 665/1 713/1
f 713/1 665/1 106/1 107/1
f 598/1 593/1 726/1 739/1
f 739/1 726/1 727/1 741/1
f 741/1 727/1 728/1 743/1
f 743/1 728/1 117/1 118/1
f 569/1 585/1 702/1 652/1
f 652/1 702/1 704/1 654/1
f 654/1 704/1 706/1 656/1
f 656/1 706/1 251/1 90/1
f 599/1 571/1 660/1 744/1
f 744/1 660/1 661/1 745/1
f 745/1 661/1 662/1 746/1
f 746/1 662/1 123/1 102/1
f 573/1 600/1 747/1 666/1
f 666/1 747/1 748/1 667/1
f 667/1 748/1 749/1 668/1
f 668/1 749/1 103/1 104/1
f 586/1 578/1 681/1 703/1
f 703/1 681/1 683/1 705/1
f 705/1 683/1 685/1 707/1
f 707/1 685/1 88/1 89/1
f 594/1 590/1 717/1 729/1
f 729/1 717/1 719/1 730/1
f 730/1 719/1 721/1 731/1
f 731/1 721/1 100/1 101/1
f 601/1 596/1 735/1 750/1
f 750/1 735/1 736/1 751/1
f 751/1 736/1 737/1 752/1
f 752/1 737/1 95/1 96/1
f 582/1 556/1 615/1 691/1
f 691/1 615/1 617/1 693/1
f 693/1 617/1 619/1 695/1
f 695/1 619/1 114/1 115/1
f 561/1 602/1 753/1 628/1
f 628/1 753/1 754/1 630/1
f 630/1 754/1 755/1 632/1
f 632/1 755/1 370/1 119/1
f 575/1 601/1 750/1 670/1
f 670/1 750/1 751/1 672/1
f 672/1 751/1 752/1 674/1
f 674/1 752/1 96/1 97/1
f 603/1 599/1 744/1 756/1
f 756/1 744/1 745/1 757/1
f 757/1 745/1 746/1 758/1
f 758/1 746/1 102/1 280/1
f 563/1 604/1 759/1 634/1
f 634/1 759/1 760/1 636/1
f 636/1 760/1 761/1 638/1
f 638/1 761/1 285/1 109/1
f 583/1 595/1 732/1 696/1
f 696/1 732/1 733/1 697/1
f 697/1 733/1 734/1 698/1
f 698/1 734/1 369/1 381/1
f 602/1 597/1 738/1 753/1
f 753/1 738/1 740/1 754/1
f 754/1 740/1 742/1 755/1
f 755/1 742/1 383/1 370/1
f 605/1 587/1 708/1 762/1
f 762/1 708/1 710/1 763/1
f 763/1 710/1 712/1 764/1
f 764/1 712/1 108/1 511/1
f 606/1 603/1 756/1 613/1
f 613/1 756/1 757/1 611/1
f 611/1 757/1 758/1 609/1
f 609/1 758/1 280/1 517/1
f 600/1 607/1 614/1 747/1
f 747/1 614/1 612/1 748/1
f 748/1 612/1 610/1 749/1
f 749/1 610/1 536/1 103/1
f 604/1 608/1 765/1 759/1
f 759/1 765/1 766/1 760/1
f 760/1 766/1 767/1 761/1
f 761/1 767/1 538/1 285/1
f 608/1 605/1 762/1 765/1
f 765/1 762/1 763/1 766/1
f 766/1 763/1 764/1 767/1
f 767/1 764/1 511/1 538/1
f 768/1 771/1 770/1 769/1
f 152/1 773/1 772/1 153/1
f 774/1 777/1 776/1 775/1
f 778/1 779/1 771/1 768/1
f 778/1 781/1 780/1 779/1
f 782/1 785/1 784/1 783/1
f 136/1 135/1 787/1 786/1
f 783/1 784/1 780/1 781/1
f 769/1 770/1 789/1 788/1
f 775/1 776/1 785/1 782/1
f 152/1 426/1 790/1 773/1
f 426/1 428/1 791/1 790/1
f 428/1 430/1 792/1 791/1
f 430/1 432/1 793/1 792/1
f 432/1 434/1 794/1 793/1
f 786/1 795/1 436/1 136/1
f 795/1 796/1 438/1 436/1
f 794/1 434/1 438/1 796/1
f 135/1 440/1 797/1 787/1
f 440/1 442/1 798/1 797/1
f 442/1 444/1 799/1 798/1
f 444/1 446/1 800/1 799/1
f 446/1 448/1 801/1 800/1
f 772/1 802/1 450/1 153/1
f 802/1 803/1 452/1 450/1
f 801/1 448/1 452/1 803/1
f 791/1 768/1 769/1 790/1
f 789/1 772/1 773/1 788/1
f 786/1 774/1 775/1 795/1
f 803/1 771/1 779/1 801/1
f 793/1 781/1 778/1 792/1
f 801/1 779/1 780/1 800/1
f 796/1 782/1 783/1 794/1
f 774/1 786/1 787/1 777/1
f 800/1 780/1 784/1 799/1
f 772/1 789/1 770/1 802/1
f 798/1 785/1 776/1 797/1
f 788/1 773/1 790/1 769/1
f 768/1 791/1 792/1 778/1
f 781/1 793/1 794/1 783/1
f 782/1 796/1 795/1 775/1
f 777/1 787/1 797/1 776/1
f 785/1 798/1 799/1 784/1
f 771/1 803/1 802/1 770/1
f 804/1 807/1 806/1 805/1
f 154/1 809/1 808/1 155/1
f 134/1 133/1 811/1 810/1
f 805/1 806/1 813/1 812/1
f 814/1 817/1 816/1 815/1
f 818/1 821/1 820/1 819/1
f 815/1 816/1 823/1 822/1
f 804/1 822/1 823/1 807/1
f 812/1 813/1 825/1 824/1
f 819/1 820/1 817/1 814/1
f 154/1 412/1 826/1 809/1
f 412/1 414/1 827/1 826/1
f 414/1 416/1 828/1 827/1
f 416/1 418/1 829/1 828/1
f 418/1 420/1 830/1 829/1
f 810/1 831/1 422/1 134/1
f 831/1 832/1 424/1 422/1
f 830/1 420/1 424/1 832/1
f 808/1 833/1 427/1 155/1
f 833/1 834/1 429/1 427/1
f 834/1 835/1 431/1 429/1
f 835/1 836/1 433/1 431/1
f 836/1 837/1 435/1 433/1
f 133/1 437/1 838/1 811/1
f 437/1 439/1 839/1 838/1
f 839/1 439/1 435/1 837/1
f 834/1 806/1 807/1 835/1
f 825/1 808/1 809/1 824/1
f 818/1 810/1 811/1 821/1
f 827/1 805/1 812/1 826/1
f 832/1 814/1 815/1 830/1
f 810/1 818/1 819/1 831/1
f 836/1 823/1 816/1 837/1
f 829/1 822/1 804/1 828/1
f 835/1 807/1 823/1 836/1
f 808/1 825/1 813/1 833/1
f 839/1 817/1 820/1 838/1
f 824/1 809/1 826/1 812/1
f 805/1 827/1 828/1 804/1
f 822/1 829/1 830/1 815/1
f 814/1 832/1 831/1 819/1
f 806/1 834/1 833/1 813/1
f 821/1 811/1 838/1 820/1
f 817/1 839/1 837/1 816/1
f 840/1 843/1 842/1 841/1
f 844/1 847/1 846/1 845/1
f 848/1 844/1 845/1 849/1
f 131/1 851/1 850/1 132/1
f 852/1 840/1 841/1 853/1
f 852/1 853/1 846/1 847/1
f 157/1 156/1 855/1 854/1
f 856/1 859/1 858/1 857/1
f 843/1 861/1 860/1 842/1
f 859/1 848/1 849/1 858/1
f 156/1 399/1 862/1 855/1
f 399/1 401/1 863/1 862/1
f 401/1 403/1 864/1 863/1
f 403/1 405/1 865/1 864/1
f 405/1 407/1 866/1 865/1
f 850/1 867/1 409/1 132/1
f 867/1 868/1 411/1 409/1
f 866/1 407/1 411/1 868/1
f 854/1 869/1 413/1 157/1
f 869/1 870/1 415/1 413/1
f 870/1 871/1 417/1 415/1
f 871/1 872/1 419/1 417/1
f 872/1 873/1 421/1 419/1
f 131/1 423/1 874/1 851/1
f 423/1 425/1 875/1 874/1
f 875/1 425/1 421/1 873/1
f 863/1 841/1 842/1 862/1
f 872/1 847/1 844/1 873/1
f 868/1 849/1 845/1 866/1
f 857/1 850/1 851/1 856/1
f 870/1 840/1 852/1 871/1
f 865/1 846/1 853/1 864/1
f 871/1 852/1 847/1 872/1
f 861/1 854/1 855/1 860/1
f 850/1 857/1 858/1 867/1
f 854/1 861/1 843/1 869/1
f 875/1 848/1 859/1 874/1
f 860/1 855/1 862/1 842/1
f 841/1 863/1 864/1 853/1
f 846/1 865/1 866/1 845/1
f 849/1 868/1 867/1 858/1
f 840/1 870/1 869/1 843/1
f 856/1 851/1 874/1 859/1
f 848/1 875/1 873/1 844/1
f 876/1 879/1 878/1 877/1
f 876/1 877/1 881/1 880/1
f 882/1 885/1 884/1 883/1
f 885/1 880/1 881/1 884/1
f 377/1 887/1 886/1 367/1
f 888/1 891/1 890/1 889/1
f 879/1 893/1 892/1 878/1
f 379/1 363/1 895/1 894/1
f 891/1 882/1 883/1 890/1
f 893/1 897/1 896/1 892/1
f 363/1 384/1 898/1 895/1
f 384/1 386/1 899/1 898/1
f 386/1 388/1 900/1 899/1
f 388/1 390/1 901/1 900/1
f 390/1 392/1 902/1 901/1
f 886/1 903/1 394/1 367/1
f 903/1 904/1 396/1 394/1
f 904/1 902/1 392/1 396/1
f 894/1 905/1 398/1 379/1
f 905/1 906/1 400/1 398/1
f 906/1 907/1 402/1 400/1
f 907/1 908/1 404/1 402/1
f 908/1 909/1 406/1 404/1
f 377/1 408/1 910/1 887/1
f 408/1 410/1 911/1 910/1
f 911/1 410/1 406/1 909/1
f 900/1 877/1 878/1 899/1
f 907/1 876/1 880/1 908/1
f 908/1 880/1 885/1 909/1
f 889/1 886/1 887/1 888/1
f 911/1 882/1 891/1 910/1
f 895/1 896/1 897/1 894/1
f 898/1 892/1 896/1 895/1
f 892/1 898/1 899/1 878/1
f 877/1 900/1 901/1 881/1
f 881/1 901/1 902/1 884/1
f 890/1 903/1 886/1 889/1
f 883/1 904/1 903/1 890/1
f 884/1 902/1 904/1 883/1
f 893/1 905/1 894/1 897/1
f 879/1 906/1 905/1 893/1
f 876/1 907/1 906/1 879/1
f 888/1 887/1 910/1 891/1
f 882/1 911/1 909/1 885/1
f 158/1 126/1 913/1 912/1
f 914/1 915/1 332/1 331/1
f 128/1 127/1 917/1 916/1
f 256/1 918/1 917/1 127/1
f 129/1 130/1 920/1 919/1
f 914/1 331/1 334/1 921/1
f 922/1 924/1 923/1 335/1
f 129/1 919/1 918/1 256/1
f 925/1 336/1 332/1 915/1
f 347/1 928/1 927/1 926/1
f 921/1 334/1 347/1 926/1
f 125/1 929/1 913/1 126/1
f 128/1 916/1 929/1 125/1
f 922/1 335/1 336/1 925/1
f 331/1 332/1 931/1 930/1
f 331/1 930/1 61/1 334/1
f 923/1 932/1 335/1
f 336/1 933/1 931/1 332/1
f 928/1 347/1 61/1
f 335/1 932/1 933/1 336/1
f 912/1 934/1 385/1 158/1
f 934/1 935/1 387/1 385/1
f 935/1 936/1 389/1 387/1
f 936/1 937/1 391/1 389/1
f 937/1 938/1 393/1 391/1
f 130/1 395/1 939/1 920/1
f 395/1 397/1 940/1 939/1
f 397/1 393/1 938/1 940/1
f 914/1 916/1 917/1 915/1
f 915/1 917/1 918/1 925/1
f 922/1 919/1 920/1 924/1
f 912/1 927/1 928/1 934/1
f 913/1 926/1 927/1 912/1
f 926/1 913/1 929/1 921/1
f 921/1 929/1 916/1 914/1
f 919/1 922/1 925/1 918/1
f 936/1 930/1 931/1 937/1
f 935/1 61/1 930/1 936/1
f 940/1 932/1 923/1 939/1
f 937/1 931/1 933/1 938/1
f 61/1 935/1 934/1 928/1
f 924/1 920/1 939/1 923/1
f 932/1 940/1 938/1 933/1
f 85/1 942/1 941/1 333/1
f 943/1 85/1 333/1 944/1
f 85/1 943/1 945/1 249/1
f 249/1 945/1 946/1 83/1
f 84/1 82/1 948/1 947/1
f 84/1 950/1 949/1 82/1
f 948/1 82/1 348/1 951/1
f 249/1 83/1 953/1 952/1
f 82/1 949/1 954/1 348/1
f 84/1 947/1 953/1 83/1
f 85/1 249/1 952/1 942/1
f 84/1 83/1 946/1 950/1
f 333/1 941/1 956/1 955/1
f 944/1 333/1 955/1 957/1
f 951/1 348/1 959/1 958/1
f 348/1 954/1 960/1 959/1
f 458/1 459/1 962/1 961/1
f 458/1 961/1 963/1 461/1
f 467/1 965/1 964/1 466/1
f 469/1 967/1 966/1 468/1
f 470/1 468/1 966/1 968/1
f 472/1 462/1 970/1 969/1
f 472/1 969/1 965/1 467/1
f 473/1 971/1 967/1 469/1
f 475/1 973/1 972/1 474/1
f 470/1 968/1 973/1 475/1
f 466/1 964/1 971/1 473/1
f 474/1 972/1 962/1 459/1
f 963/1 974/1 480/1 461/1
f 974/1 975/1 482/1 480/1
f 975/1 976/1 484/1 482/1
f 976/1 977/1 486/1 484/1
f 462/1 488/1 978/1 970/1
f 978/1 488/1 490/1 979/1
f 979/1 490/1 493/1 980/1
f 980/1 493/1 486/1 977/1
f 979/1 943/1 944/1 978/1
f 977/1 946/1 945/1 980/1
f 975/1 949/1 950/1 976/1
f 973/1 948/1 951/1 972/1
f 966/1 953/1 947/1 968/1
f 971/1 942/1 952/1 967/1
f 965/1 956/1 941/1 964/1
f 969/1 955/1 956/1 965/1
f 962/1 958/1 959/1 961/1
f 963/1 960/1 954/1 974/1
f 961/1 959/1 960/1 963/1
f 953/1 966/1 967/1 952/1
f 955/1 969/1 970/1 957/1
f 948/1 973/1 968/1 947/1
f 942/1 971/1 964/1 941/1
f 958/1 962/1 972/1 951/1
f 949/1 975/1 974/1 954/1
f 946/1 977/1 976/1 950/1
f 957/1 970/1 978/1 944/1
f 943/1 979/1 980/1 945/1
f 981/1 984/1 983/1 982/1
f 985/1 988/1 987/1 986/1
f 989/1 990/1 987/1 988/1
f 984/1 981/1 990/1 989/1
f 991/1 994/1 993/1 992/1
f 985/1 986/1 994/1 991/1
f 982/1 983/1 996/1 995/1
f 992/1 993/1 998/1 997/1
f 456/1 457/1 1000/1 999/1
f 460/1 1002/1 1001/1 465/1
f 460/1 481/1 1003/1 1002/1
f 481/1 483/1 1004/1 1003/1
f 483/1 485/1 1005/1 1004/1
f 485/1 487/1 1006/1 1005/1
f 999/1 1007/1 489/1 456/1
f 1008/1 491/1 489/1 1007/1
f 1009/1 492/1 491/1 1008/1
f 1006/1 487/1 492/1 1009/1
f 1001/1 1010/1 494/1 465/1
f 1010/1 1011/1 496/1 494/1
f 1011/1 1012/1 498/1 496/1
f 1012/1 1013/1 500/1 498/1
f 457/1 502/1 1014/1 1000/1
f 502/1 504/1 1015/1 1014/1
f 1015/1 504/1 507/1 1016/1
f 1016/1 507/1 500/1 1013/1
f 1015/1 981/1 982/1 1014/1
f 1013/1 987/1 990/1 1016/1
f 1008/1 984/1 989/1 1009/1
f 1004/1 991/1 992/1 1003/1
f 1011/1 994/1 986/1 1012/1
f 999/1 996/1 983/1 1007/1
f 1000/1 995/1 996/1 999/1
f 1001/1 998/1 993/1 1010/1
f 1002/1 997/1 998/1 1001/1
f 997/1 1002/1 1003/1 992/1
f 991/1 1004/1 1005/1 985/1
f 985/1 1005/1 1006/1 988/1
f 984/1 1008/1 1007/1 983/1
f 988/1 1006/1 1009/1 989/1
f 994/1 1011/1 1010/1 993/1
f 987/1 1013/1 1012/1 986/1
f 995/1 1000/1 1014/1 982/1
f 981/1 1015/1 1016/1 990/1
f 479/1 495/1 1018/1 1017/1
f 495/1 497/1 1019/1 1018/1
f 497/1 499/1 1020/1 1019/1
f 499/1 501/1 1021/1 1020/1
f 1022/1 1023/1 503/1 478/1
f 1023/1 1024/1 505/1 503/1
f 1025/1 506/1 505/1 1024/1
f 1021/1 501/1 506/1 1025/1
f 1026/1 1029/1 1028/1 1027/1
f 1026/1 1027/1 1031/1 1030/1
f 1032/1 1030/1 1031/1 1033/1
f 1034/1 1032/1 1033/1 1035/1
f 1034/1 1035/1 1037/1 1036/1
f 1028/1 1029/1 1039/1 1038/1
f 1036/1 1037/1 1041/1 1040/1
f 1038/1 1039/1 1043/1 1042/1
f 535/1 1044/1 1022/1 478/1
f 541/1 479/1 1017/1 1045/1
f 535/1 542/1 1046/1 1044/1
f 542/1 544/1 1047/1 1046/1
f 544/1 546/1 1048/1 1047/1
f 546/1 548/1 1049/1 1048/1
f 1049/1 548/1 550/1 1050/1
f 1050/1 550/1 552/1 1051/1
f 1051/1 552/1 555/1 1052/1
f 1052/1 555/1 541/1 1045/1
f 1042/1 1017/1 1018/1 1038/1
f 1027/1 1020/1 1021/1 1031/1
f 1035/1 1024/1 1023/1 1037/1
f 1033/1 1025/1 1024/1 1035/1
f 1031/1 1021/1 1025/1 1033/1
f 1020/1 1027/1 1028/1 1019/1
f 1050/1 1026/1 1030/1 1049/1
f 1049/1 1030/1 1032/1 1048/1
f 1048/1 1032/1 1034/1 1047/1
f 1047/1 1034/1 1036/1 1046/1
f 1019/1 1028/1 1038/1 1018/1
f 1022/1 1041/1 1037/1 1023/1
f 1046/1 1036/1 1040/1 1044/1
f 1017/1 1042/1 1043/1 1045/1
f 1041/1 1022/1 1044/1 1040/1
f 1026/1 1050/1 1051/1 1029/1
f 1029/1 1051/1 1052/1 1039/1
f 1039/1 1052/1 1045/1 1043/1
f 1053/1 341/1 340/1 1054/1
f 1055/1 346/1 345/1 1056/1
f 342/1 341/1 1053/1 1057/1
f 343/1 342/1 1057/1 1058/1
f 344/1 343/1 1058/1 1059/1
f 345/1 344/1 1059/1 1056/1
f 454/1 455/1 1061/1 1060/1
f 463/1 464/1 1063/1 1062/1
f 471/1 454/1 1060/1 1064/1
f 477/1 1066/1 1065/1 476/1
f 471/1 1064/1 1063/1 464/1
f 477/1 463/1 1062/1 1066/1
f 73/1 1068/1 1067/1 340/1
f 1069/1 70/1 346/1 1070/1
f 71/1 70/1 1069/1 1071/1
f 73/1 275/1 1072/1 1068/1
f 275/1 72/1 1073/1 1072/1
f 71/1 1071/1 1073/1 72/1
f 340/1 1067/1 1074/1 1054/1
f 1070/1 346/1 1055/1 1075/1
f 455/1 523/1 1076/1 1061/1
f 476/1 1065/1 1077/1 539/1
f 1077/1 1078/1 543/1 539/1
f 1078/1 1079/1 545/1 543/1
f 1079/1 1080/1 547/1 545/1
f 1080/1 1081/1 549/1 547/1
f 1082/1 551/1 549/1 1081/1
f 1083/1 553/1 551/1 1082/1
f 1084/1 554/1 553/1 1083/1
f 1076/1 523/1 554/1 1084/1
f 1066/1 1053/1 1054/1 1065/1
f 1061/1 1055/1 1056/1 1060/1
f 1063/1 1058/1 1057/1 1062/1
f 1064/1 1059/1 1058/1 1063/1
f 1060/1 1056/1 1059/1 1064/1
f 1053/1 1066/1 1062/1 1057/1
f 1078/1 1067/1 1068/1 1079/1
f 1083/1 1069/1 1070/1 1084/1
f 1079/1 1068/1 1072/1 1080/1
f 1080/1 1072/1 1073/1 1081/1
f 1065/1 1054/1 1074/1 1077/1
f 1084/1 1070/1 1075/1 1076/1
f 1055/1 1061/1 1076/1 1075/1
f 1067/1 1078/1 1077/1 1074/1
f 1071/1 1082/1 1081/1 1073/1
f 1069/1 1083/1 1082/1 1071/1

 