# File exported by ZBrush version 2021
# www.zbrush.com
#Vertex Count 1503
#Face Count 1499
#Auto scale x=0.047110 y=0.047110 z=0.047110
#Auto offset x=-0.029091 y=0.022900 z=-0.434581
v -1.26186937 1.05724333 0.54850013
v -0.98522188 -3.44343747 22.46406876
v -1.02268389 -3.00033336 22.39103561
v -0.33974729 -3.86880393 19.2560216
v -0.43958523 -4.02544488 20.66176798
v 0.33851252 -4.45153314 0.13437256
v 0.7077558 3.09589805 -3.74181199
v 1.20511188 -4.67849715 -2.03387079
v 1.74087991 -4.67848481 -1.67305485
v 1.79490568 3.09398378 -3.74205491
v 3.06167278 -4.44724755 0.09325884
v 4.04003405 1.08985404 0.49102721
v -1.50312364 1.29283024 0.71092057
v -1.60531836 1.57412501 -0.33542374
v -1.40321184 1.27010844 -0.46095626
v -1.17088965 0.78227889 -0.6601577
v -1.1127109 0.65005023 0.03803672
v -0.92763667 0.64463694 0.37198586
v -0.95828629 1.00277197 0.80567805
v -1.14994073 0.8474897 1.64450849
v -1.38373847 0.95834718 1.74276555
v -0.88017316 0.82165105 1.62428532
v -1.42828551 -3.59109794 22.0691857
v -0.78741234 -3.70372307 21.75167801
v -0.3982172 -3.51670563 22.27514718
v -1.09643156 -3.27570536 22.85060141
v -1.79998939 -3.47069364 22.37201946
v -0.20674179 -3.34325887 22.68826954
v -1.48078504 -3.14344949 22.01591012
v -1.84411558 -3.02856659 22.31204584
v -1.08683176 -2.84031936 22.77102964
v -0.21955586 -2.90725924 22.61236183
v -0.43549116 -3.06936148 22.21394124
v -0.88231564 -3.24336873 21.73548581
v -1.11853973 -3.81645101 19.53284259
v -0.58997302 -3.60309342 20.51160746
v 0.27394467 -3.76329151 19.80843441
v -0.17824682 -3.99498646 18.3979087
v -1.30133721 -3.99428553 18.39327422
v 0.86708299 -3.93316405 18.83287369
v -1.20705845 -3.96482031 20.87149219
v -1.35479261 -4.21123316 19.79506364
v -0.23430508 -4.21562155 19.80457298
v 0.76925507 -4.14151044 20.15027532
v 0.09844684 -3.88744938 21.16673215
v 0.22216797 -4.50105326 0.04068102
v 0.45968181 -4.59268788 0.07176224
v 0.48289221 -4.43734979 0.18238359
v 0.23593721 -4.07950742 0.15581602
v 0.11669287 -4.10867406 0.03185806
v 0.48853838 -4.02394149 0.1884389
v 0.47354212 3.15331025 -4.08873335
v -0.1051123 3.04251334 -3.458212
v 0.47696484 2.99256274 -3.20901061
v 1.27566312 2.97546908 -3.13702506
v 1.25759639 3.10050121 -3.77859173
v 1.26262696 3.17822988 -4.26627055
v 1.11280425 -4.67464078 -2.21267067
v 1.51764354 -4.6746898 -2.3085738
v 1.48873161 -4.6784032 -2.0313024
v 1.05819457 -4.6783061 -1.76074169
v 0.80658596 -4.67054465 -1.9047963
v 1.3983172 -4.67848007 -1.69452551
v 1.89932283 -4.67839625 -1.91566448
v 2.26148875 -4.67740495 -1.5220188
v 1.88474837 -4.67846109 -1.32058806
v 1.37657325 -4.67847153 -1.24479548
v 2.04214433 3.14731345 -4.06435523
v 2.03809992 2.99210821 -3.22429438
v 2.56526715 3.03472817 -3.44857867
v 2.91609533 -4.41221602 0.17384467
v 2.938188 -4.59701491 0.03644572
v 3.1642866 -4.46553051 -0.00991737
v 3.22907689 -4.02998636 -0.0667501
v 3.13731653 -4.01373565 0.1237764
v 3.75674972 1.02137044 0.75331406
v 3.74315058 0.69262259 0.38411103
v 3.92010832 0.71483712 0.04259339
v 3.95866378 0.92358925 1.46861353
v 3.69346631 0.88291424 1.47469984
v 4.26078333 1.34551465 0.59851653
v 4.17751967 1.0521333 1.5301168
v 4.13522107 0.62755743 2.48941004
v 3.89510708 0.53816556 2.43304861
v 4.41096979 1.55913825 0.6793301
v 4.33712311 1.21912763 1.61440401
v 4.31261277 0.77900666 2.57816219
v 4.34060434 0.23271771 3.60196422
v 4.14898722 0.09570659 3.52504623
v 4.39471686 1.39916347 1.70763755
v 4.36653931 0.959276 2.6830863
v 4.40093538 0.40765276 3.70749562
v 4.49278098 -0.23180988 4.76902597
v 4.42767692 -0.40017508 4.66382922
v 4.20042824 1.05654557 2.74897985
v 4.2380291 0.50321208 3.78170542
v 4.32338796 -0.14233822 4.84846015
v 4.42157417 -0.87316522 5.91310451
v 4.60727199 -0.948027 5.83352515
v 3.97387986 0.51287301 3.81289924
v 4.05821516 -0.13764942 4.88362737
v 4.15267721 -0.87572791 5.94905553
v 4.28035048 -1.66553332 6.98773519
v 4.55631807 -1.65542522 6.95033676
v 3.76182323 -0.15220609 4.90877221
v 3.86279734 -0.89396943 5.97575215
v 3.9907597 -1.68703514 7.01749489
v 4.15167263 -2.46921566 8.07071628
v 4.45021416 -2.44707381 8.03417693
v 3.54392131 -0.91423403 6.00309277
v 3.67411994 -1.71052429 7.0482693
v 3.8229988 -2.49324522 8.10833106
v 3.97791463 -3.17275088 9.23942376
v 4.33171748 -3.15121727 9.19334534
v 3.28790422 -1.73726883 7.08331443
v 3.41281426 -2.52279964 8.15407419
v 3.53772873 -3.20009845 9.29647917
v 3.63079968 -3.70036456 10.52970681
v 4.1167768 -3.68261141 10.47151461
v 2.84571897 -2.55818543 8.20920584
v 2.88747922 -3.23448472 9.36840715
v 2.8764192 -3.72177165 10.60051065
v 2.77877877 -3.98958495 11.8585662
v 3.6403552 -3.98420621 11.82666892
v 1.89084772 -3.25562358 9.4146355
v 1.7189495 -3.72887677 10.6247825
v 1.48923223 -3.98394684 11.81090184
v 1.20696467 -4.10982698 12.94861667
v 2.59223168 -4.12047628 13.09211458
v 0.58668845 -3.63202125 10.3067782
v 0.22956211 -3.92170248 11.43023345
v -0.16096876 -4.07387817 12.55203443
v -0.54139929 -4.161683 13.67218052
v 0.89838392 -4.18204438 14.04128612
v -0.61967943 -3.8569065 11.09921328
v -1.11889225 -4.03855027 12.21344576
v -1.58877001 -4.14257892 13.3800998
v -1.94684802 -4.20183516 14.60946665
v -0.86383625 -4.20634881 14.81043686
v -1.6768342 -4.01105403 11.98836439
v -2.20983026 -4.12880707 13.19354163
v -2.59576763 -4.19850291 14.50074564
v -2.77730733 -4.19663007 15.8625031
v -2.15420645 -4.19604112 15.89148913
v -2.64781912 -4.11807332 13.05690877
v -3.06102625 -4.19594243 14.42812496
v -3.23302878 -4.19679645 15.85089477
v -3.22419063 -4.11412618 17.25948155
v -2.79181047 -4.11674359 17.22851041
v -3.44679598 -4.19382953 14.36854229
v -3.61512306 -4.19699477 15.84440929
v -3.58956386 -4.11184879 17.28837142
v -3.452838 -3.95224662 18.69460491
v -3.10269604 -3.9600533 18.63862556
v -3.96096963 -4.19880055 15.84114251
v -3.92771351 -4.11129178 17.31807356
v -3.77827226 -3.94629822 18.74765781
v -3.52172948 -3.68684893 20.15297022
v -3.2042901 -3.70177306 20.07883128
v -4.23483887 -4.14260991 17.35119051
v -4.07393985 -3.97064819 18.80099033
v -3.81514942 -3.70280927 20.22469767
v -3.39742168 -3.30433523 21.62783897
v -3.11043155 -3.30961528 21.52414719
v -4.13986946 -4.16431812 18.84733002
v -3.89680373 -3.89675818 20.28725738
v -3.49539217 -3.48034436 21.7167556
v -2.7465266 -2.93084566 23.07506029
v -2.64016711 -2.79138535 22.92865239
v -3.64778074 -4.0412069 20.26144957
v -3.26997552 -3.64691154 21.67314371
v -2.56708399 -3.1404579 22.98503028
v -1.31604594 -2.77734086 23.76457853
v -1.36574366 -2.52845578 23.91337262
v -2.97675675 -3.72561853 21.56957339
v -2.32633739 -3.26710887 22.80252838
v -1.25057387 -2.95333418 23.49455427
v -2.07677858 -3.36980999 22.59978561
v -1.18106987 -3.10794984 23.20062761
v -0.05977885 -3.19521536 22.99908932
v 0.06852898 -3.05354979 23.27040157
v 0.19526741 -2.89230095 23.51239883
v 1.2850544 -3.42290275 22.40814129
v 1.49215219 -3.28929944 22.61028435
v 1.63771872 -3.077301 22.71332834
v 0.28196723 -2.66180225 23.63622521
v 1.52875377 -2.95013256 22.56375488
v 0.21604513 -2.55378755 23.45329821
v -1.32638621 -2.4237262 23.70911919
v 0.08254296 -2.64956606 23.19090571
v -1.2489536 -2.54147545 23.4196233
v -2.39166349 -2.85173569 22.73701566
v -1.17230147 -2.6813169 23.12246529
v -2.12845557 -2.93577746 22.53821276
v -2.80303037 -3.34344043 21.416222
v -2.47089935 -3.38394274 21.28883278
v -2.86393076 -3.7201876 19.99571185
v -2.06082235 -3.43335373 21.12981323
v -2.45690672 -3.74237153 19.89396344
v -2.68929217 -3.96909103 18.57415917
v -1.90973047 -3.77116208 19.75687952
v -2.15100356 -3.98049408 18.49260355
v -2.21703312 -4.11966528 17.19609312
v -1.26045376 -4.12145334 17.18189617
v -1.10801411 -4.19364259 15.98143564
v 0.05377083 -4.11219831 17.29654343
v 0.31182198 -4.1857271 16.19614226
v 0.59521492 -4.20984079 15.11706878
v 1.6754034 -4.1642324 16.58151977
v 2.01902146 -4.20692163 15.43920842
v 2.33184217 -4.19153696 14.28282411
v 3.02206402 -4.2025576 15.65351777
v 3.34087109 -4.19546323 14.41292722
v 3.54339562 -4.12286627 13.13097812
v 3.93843492 -4.19726142 14.47993036
v 4.11722468 -4.1231152 13.13815062
v 4.17259293 -3.97866901 11.79110126
v 4.56296993 -4.1230589 13.13990294
v 4.58453675 -3.97406585 11.76099425
v 4.4970846 -3.66852422 10.4254558
v 4.9347502 -3.97012566 11.73413758
v 4.82649669 -3.65676058 10.38533464
v 4.64603305 -3.13211066 9.15208928
v 5.1394338 -3.64994299 10.34460301
v 4.94473715 -3.11995449 9.10777077
v 4.73781855 -2.43231984 7.99240403
v 5.19494438 -3.17208126 9.03666138
v 4.96823785 -2.48299004 7.91577641
v 4.76333726 -1.71350244 6.87345484
v 4.89283306 -2.65866294 7.81304935
v 4.6909848 -1.87570178 6.76735345
v 4.5396995 -1.10970001 5.72760912
v 4.45611005 -1.98443702 6.72913833
v 4.31843971 -1.22142795 5.67835438
v 4.21960128 -0.52227093 4.60273715
v 4.04809029 -1.28022808 5.67202136
v 3.95423617 -0.58586788 4.58232294
v 3.89531394 0.02276537 3.48578541
v 3.65486277 -0.62220756 4.58069556
v 3.60364758 -0.01360341 3.46652508
v 3.61808809 0.4992658 2.39897516
v 3.25862989 -0.03673122 3.45523811
v 3.28197354 0.47665842 2.37388788
v 3.34834028 0.85496126 1.47161082
v 2.83079895 0.45727726 2.35856173
v 2.86167615 0.82164789 1.48273458
v 2.88530448 0.98742272 0.85393833
v 3.39535622 1.01507948 0.8153892
v 2.89949969 0.73533317 0.49317491
v 3.39946184 0.72111313 0.47199777
v 2.86220169 0.08972727 0.31260563
v 3.32760091 0.0326105 0.29039355
v 3.64335249 -0.02074541 0.17133196
v 3.74516354 -0.0080205 -0.20722225
v 3.18035291 -0.99301583 0.191223
v 3.47941127 -1.05041308 0.06462517
v 3.55482745 -1.05356275 -0.30336388
v 3.52430482 -1.02853202 -0.83609124
v 3.71936775 0.07103304 -0.82416724
v 3.30999547 -2.21795309 0.03551452
v 3.39195343 -2.23083833 -0.28254417
v 3.37652479 -2.23272904 -0.71749778
v 3.29814802 -2.24178938 -1.27942626
v 3.4129876 -1.01388117 -1.5438665
v 3.28382644 -3.30390632 -0.1665678
v 3.28791941 -3.31611467 -0.4990999
v 3.24266923 -3.32678769 -0.93989057
v 3.10430144 -3.36611525 -1.57509701
v 3.11040862 -2.28939665 -1.97253327
v 3.24235356 -4.03351915 -0.33428568
v 3.21536688 -4.03337998 -0.71088514
v 3.10402372 -4.06732311 -1.31880095
v 2.79980503 -4.17738682 -2.05252002
v 2.78724242 -3.46149491 -2.28771297
v 3.15143852 -4.45294955 -0.61604605
v 3.04542713 -4.47132392 -1.19701409
v 2.73869335 -4.54093688 -1.90167375
v 2.16373334 -4.60454134 -2.40901146
v 2.22195986 -4.29299691 -2.59622501
v 2.82451559 -4.64087383 -1.08747006
v 2.54180678 -4.6589398 -1.72755263
v 2.04613687 -4.67238079 -2.18068609
v 1.52660947 -4.62379725 -2.54948298
v 1.01164561 -4.61997979 -2.41613967
v 0.94552693 -4.32984877 -2.59898317
v 1.53470082 -4.33975949 -2.75591511
v 0.90913839 -3.6088359 -2.80401344
v 1.54368826 -3.60538061 -2.96647184
v 2.23132955 -3.5576049 -2.80550386
v 1.52243933 -2.50646796 -3.25927246
v 2.20433734 -2.46066757 -3.11095661
v 2.75605745 -2.3794825 -2.65008259
v 2.17875078 -1.24708014 -3.47111211
v 2.76239616 -1.16071608 -3.03087117
v 3.17007368 -1.06083757 -2.34232968
v 2.82320245 0.06222815 -3.40060179
v 3.28976788 0.15156862 -2.64961699
v 3.58456564 0.14849779 -1.69149659
v 3.46510551 1.18719888 -2.87555617
v 3.79124575 1.04689864 -1.72562192
v 3.93208102 0.86785868 -0.69091313
v 3.99140433 1.5843144 -1.66492966
v 4.11272938 1.33407839 -0.51782631
v 4.1538507 1.91465247 -1.60925523
v 4.28092362 1.63917735 -0.42664053
v 4.28909499 2.16568177 -1.572726
v 4.41414357 1.87148973 -0.36863431
v 4.39222123 2.38711948 -1.54052127
v 4.4989141 2.07651083 -0.31933719
v 4.48200769 1.75273353 0.75183123
v 4.41557389 2.2145571 -0.28369425
v 4.35402445 1.87080905 0.79137609
v 4.24174314 1.5023245 1.76223401
v 4.11194242 1.89615237 0.79778502
v 3.98968047 1.52078206 1.7773919
v 3.93645044 1.06884676 2.7730695
v 3.71272664 1.52042843 1.78218452
v 3.64588735 1.06321767 2.78694256
v 3.67582861 0.50284105 3.83389355
v 3.32428289 1.0565685 2.79980851
v 3.34221538 0.49048736 3.85538698
v 3.4293449 -0.16925578 4.93466131
v 2.94347169 0.47658053 3.87914705
v 3.03460086 -0.18800912 4.96302644
v 3.16090453 -0.93654677 6.03307389
v 2.52337753 -0.20794152 4.99353673
v 2.653449 -0.95998381 6.06476494
v 2.76937824 -1.76696101 7.12237029
v 1.90382217 -0.97876439 6.09010652
v 1.98472217 -1.78765926 7.15003859
v 1.9819134 -2.58156245 8.24679279
v 1.1452377 -1.75623785 7.10744457
v 1.07837508 -2.50875578 8.1313554
v 0.88857116 -3.15332859 9.20052353
v 0.4760542 -2.43922537 8.02428866
v 0.22561228 -3.05753363 9.01095668
v -0.16229059 -3.53695568 10.03071066
v -0.19945448 -2.98862413 8.8818259
v -0.60425221 -3.46856966 9.85207082
v -1.11256856 -3.80614047 10.88116144
v -0.94124799 -3.41249416 9.71451941
v -1.47640203 -3.76291384 10.71289825
v -2.07458723 -3.98780448 11.81789594
v -1.78053484 -3.72259024 10.5704492
v -2.40561246 -3.96617124 11.67270897
v -3.01305697 -4.10858771 12.94033838
v -2.7081723 -3.94500011 11.53513731
v -3.34737808 -4.10079241 12.83039518
v -3.79352124 -4.19350437 14.31611693
v -3.65647401 -4.12023462 12.72415272
v -4.10628376 -4.22375118 14.27153715
v -4.26928239 -4.23259249 15.84403352
v -4.19860064 -4.41783325 14.26377634
v -4.33291944 -4.43466849 15.86262076
v -4.29689693 -4.34182369 17.38490716
v -4.06602278 -4.56727323 15.89193195
v -4.03463538 -4.47359118 17.39258574
v -3.88925547 -4.30409472 18.83959197
v -3.6964636 -4.5108169 17.38874961
v -3.56295201 -4.34762248 18.80653576
v -3.33266556 -4.0960311 20.19748041
v -3.2009006 -4.36563531 18.76639941
v -2.9980332 -4.12594991 20.11953824
v -2.67031967 -3.78116043 21.44429454
v -2.61994332 -4.15159039 20.02843026
v -2.32651199 -3.83306989 21.29813462
v -2.14308902 -4.17933462 19.91964473
v -1.88739093 -3.89300398 21.11180673
v -2.78588737 -4.37807615 18.719064
v -2.26019522 -4.39035567 18.66520136
v -1.36124472 -4.4026469 18.62519786
v -2.30599656 -4.53266713 17.37044958
v -1.32470348 -4.53594119 17.39916358
v 0.01529049 -4.53186499 17.50551231
v -0.08458715 -4.39956674 18.69307526
v 1.33949129 -4.51326699 17.70847523
v 1.13175286 -4.36181437 18.9476905
v 2.28584315 -4.48185334 17.9864349
v 1.90001095 -4.30712997 19.27185448
v 1.34944867 -4.0523705 20.51980351
v 0.52839029 -3.7466217 21.61583969
v 2.35261412 -4.25642815 19.53537681
v 1.71413884 -3.97647576 20.79808201
v 0.82790951 -3.63194691 21.93413182
v 2.00359456 -3.9053436 21.02225749
v 1.06872814 -3.52870839 22.18429983
v 2.25925248 -3.83047589 21.21703954
v 2.69637325 -4.20822322 19.74788639
v 2.98987163 -4.15593514 19.92882511
v 3.26268173 -4.07713989 20.08952486
v 2.50085642 -3.72745562 21.38968036
v 3.46529086 -3.91194579 20.18797613
v 2.67006963 -3.53848216 21.4791461
v 3.38317412 -3.7337548 20.12199528
v 2.56473275 -3.38638491 21.37497606
v 3.11115035 -3.7251115 19.98520806
v 2.30967153 -3.40656569 21.2125455
v 1.30196919 -3.00887291 22.35454434
v 2.03414834 -3.45712676 21.04022098
v 1.06075007 -3.09382595 22.13695051
v -0.06189263 -2.77370053 22.9179411
v 0.80188238 -3.18179082 21.90138558
v 1.74124192 -3.51120322 20.85183838
v 1.39437472 -3.57322459 20.62254638
v 0.49171564 -3.28348199 21.61206177
v 0.9284625 -3.65240635 20.30411761
v 0.04439813 -3.41170847 21.20799833
v -1.48095837 -3.49332165 20.92342665
v 2.11881386 -3.82338532 19.48676859
v 1.63244152 -3.86913099 19.23094382
v 2.68916659 -4.00754844 18.28226824
v 2.16681413 -4.03347835 18.06954168
v 1.30437009 -4.07154228 17.72027967
v 2.61945352 -4.14517893 16.86768562
v 3.18206711 -4.13249201 17.03537946
v 3.61803305 -4.19924211 15.77486054
v 3.61282986 -4.12227193 17.16132887
v 4.06347148 -4.1963492 15.86369493
v 4.38536884 -4.19833179 14.52690518
v 4.44499136 -4.19372325 15.94043009
v 4.76628015 -4.19942904 14.56696435
v 4.93954029 -4.12324805 13.14225244
v 5.11668211 -4.20748908 14.60375927
v 5.28316578 -4.12761841 13.14412369
v 5.26492647 -3.97199153 11.70662679
v 5.56791901 -4.18857921 13.13850867
v 5.54245028 -4.03666732 11.67107684
v 5.40608753 -3.70703856 10.28807203
v 5.45207486 -4.25935016 11.63123276
v 5.3253233 -3.9269566 10.22472978
v 5.11740708 -3.37194314 8.94842354
v 5.04114131 -4.03079135 10.2266915
v 4.85324771 -3.48066858 8.9401035
v 4.6436127 -2.77119098 7.78726242
v 4.54907346 -3.53782836 8.96358205
v 4.35669405 -2.83484858 7.80013026
v 4.17979768 -2.04532824 6.73265309
v 4.04686999 -2.88261163 7.82480634
v 3.88296356 -2.09013686 6.74962276
v 3.75248786 -1.31889884 5.68166355
v 3.53899204 -2.13132982 6.77393826
v 3.41138837 -1.35129351 5.69889385
v 3.3077086 -0.64922729 4.58741542
v 2.98331308 -1.38145429 5.72243377
v 2.87927764 -0.67277867 4.60038037
v 2.82224959 -0.05547045 3.44976101
v 2.3004921 -0.6934237 4.62219992
v 2.22082228 -0.07358308 3.45830436
v 2.18333497 0.43593423 2.36290647
v 1.39531596 -0.09013708 3.49387076
v 1.30919173 0.41880736 2.38989156
v 1.27701856 0.7694936 1.52694111
v 2.17406823 0.78777245 1.50594997
v 1.27389221 0.93303517 0.90416412
v 2.1769817 0.95117848 0.88708818
v 1.2735941 0.71446807 0.50303977
v 2.18627848 0.72529687 0.50115777
v 1.28203852 0.10971538 0.31417892
v 2.17642548 0.11613562 0.31589897
v 1.32467802 -0.84188006 0.21883248
v 2.123114 -0.84738311 0.21928163
v 2.74507097 -0.91502582 0.21457251
v 2.07595872 -2.0634842 0.17029828
v 2.62295405 -2.12047318 0.16791588
v 3.02678817 -2.17748905 0.14847715
v 2.57030364 -3.21749829 0.16900839
v 2.92778811 -3.25636879 0.15946363
v 3.18834415 -3.28649857 0.07912198
v 2.90091784 -3.97150474 0.18190344
v 2.576454 -3.92334188 0.18785564
v 2.60173358 -4.36185833 0.18899939
v 2.11771723 -3.8909265 0.18729831
v 2.14119168 -4.32508081 0.19834362
v 2.14448819 -4.59187561 0.11627432
v 2.61494415 -4.60635787 0.07856022
v 2.13431936 -4.6684017 -0.12387256
v 2.61384831 -4.66956411 -0.16794055
v 2.94596289 -4.63712943 -0.20960401
v 3.17330108 -4.46088022 -0.25494735
v 2.58824562 -4.6755027 -0.50188463
v 2.9261835 -4.63799199 -0.56003128
v 2.49368646 -4.6756191 -0.96437244
v 2.10659158 -4.67798126 -0.43494728
v 2.03061144 -4.67843515 -0.83417697
v 1.42889091 -4.6778813 -0.3845412
v 1.40498044 -4.67846583 -0.75587485
v 0.84627316 -4.67684541 -0.37777105
v 0.86374318 -4.67696086 -0.75542443
v 0.92351824 -4.67736763 -1.28252729
v 0.48144338 -4.65401781 -0.79158548
v 0.58166753 -4.65962745 -1.37270218
v 0.21230588 -4.52016873 -0.84470987
v 0.32861935 -4.54642537 -1.46685552
v 0.60794687 -4.59380664 -2.05670029
v 0.20726282 -4.18808451 -1.55967913
v 0.49718365 -4.27264122 -2.18776875
v 0.11043758 -3.50023762 -1.73187207
v 0.42059779 -3.56873119 -2.3716143
v -0.04177171 -2.42622595 -2.01948785
v 0.31433944 -2.48514596 -2.66787654
v 0.85382984 -2.51601462 -3.1022064
v 0.15484639 -1.26791567 -3.00388418
v 0.75448232 -1.30439096 -3.455135
v 1.46938943 -1.29532381 -3.61337517
v 0.61231344 -0.08739734 -3.83994696
v 1.40051171 -0.07865939 -4.01094301
v 2.17809335 -0.02820879 -3.86292322
v 1.33396768 1.08181835 -4.44287403
v 2.22455022 1.12378262 -4.27124284
v 2.94933421 1.18608312 -3.74439049
v 2.32619837 2.02740998 -4.64319771
v 3.13055334 1.98825354 -3.97821954
v 3.6710499 1.83156151 -2.92679223
v 3.30026219 2.40624317 -4.05958032
v 3.84098886 2.18339997 -2.90185995
v 3.43941283 2.67437436 -4.09443946
v 3.98064622 2.44024261 -2.88137868
v 3.55225021 2.90728929 -4.11703617
v 4.09306544 2.67039368 -2.86509792
v 3.55561314 3.09468028 -4.07638235
v 4.08699938 2.85159936 -2.82565111
v 4.35860263 2.54935456 -1.50491565
v 3.87782364 2.88038422 -2.75606188
v 4.14021487 2.57992748 -1.47215044
v 4.18625343 2.24427948 -0.26876094
v 3.87112813 2.57571938 -1.43947758
v 3.9155352 2.24564591 -0.26092231
v 3.83806053 1.89894532 0.796213
v 3.58981944 2.24324042 -0.2501408
v 3.51554638 1.89926526 0.79542477
v 3.40039746 1.51872403 1.78572269
v 3.06436752 1.89761812 0.80111823
v 2.98129523 1.5160549 1.79192033
v 2.92327146 1.04929147 2.81369738
v 2.36227845 1.50959963 1.80710479
v 2.36118768 1.03887845 2.83399836
v 2.41672862 0.46053589 3.90679638
v 1.53182199 1.02219551 2.86709379
v 1.64650816 0.44084895 3.94099888
v 1.779758 -0.2278884 5.02398471
v 0.84361617 0.41825904 3.98087617
v 0.99784214 -0.24496482 5.05114219
v 1.10702333 -0.97946548 6.09196575
v 0.46553396 -0.26141523 5.07712903
v 0.57220089 -0.97790776 6.09088336
v 0.58479518 -1.72357607 7.06413507
v 0.19060321 -0.97721237 6.09079733
v 0.19531794 -1.69879403 7.03157418
v 0.06537592 -2.38814842 7.94750036
v -0.10806863 -1.68053621 7.00755412
v -0.24446585 -2.35034212 7.89083211
v -0.52261641 -2.93505565 8.78455443
v -0.51263103 -2.31772256 7.84379023
v -0.79924113 -2.88844648 8.70114528
v -1.22768047 -3.36194543 9.59553057
v -1.06153256 -2.84416181 8.61992873
v -1.49763483 -3.31125341 9.47957255
v -2.06392781 -3.68170805 10.43342791
v -1.75564937 -3.27531852 9.35674505
v -2.3323617 -3.65670966 10.29375157
v -2.98832523 -3.94601576 11.3968331
v -2.45965287 -3.82237853 10.17222724
v -3.12175078 -4.12206887 11.30399304
v -3.78170478 -4.30255085 12.6745374
v -2.94041478 -4.32654181 11.37888352
v -3.55668921 -4.4803433 12.76299982
v -3.94418089 -4.5672027 14.32337925
v -3.24504957 -4.54616632 12.89183898
v -3.60828332 -4.61256279 14.40411122
v -3.7262543 -4.60313506 15.92415186
v -3.23802068 -4.62803888 14.49343777
v -3.35182088 -4.61252072 15.95941334
v -3.31489564 -4.52263652 17.38257538
v -2.90222559 -4.61530008 15.99950035
v -2.87540814 -4.52821833 17.37456531
v -2.29645369 -4.61621989 16.05260133
v -2.79770699 -4.63478214 14.59510395
v -2.20101742 -4.63862713 14.72060042
v -1.17641089 -4.64156147 14.8916243
v -1.26647712 -4.61619617 16.14690524
v 0.21612698 -4.64214758 15.06840364
v 0.10578713 -4.61329029 16.28824976
v 1.63057588 -4.64014254 15.25277931
v 1.48818741 -4.60479027 16.47289239
v 2.84313493 -4.63573422 15.45093568
v 2.59208064 -4.58958431 16.70519306
v 3.54948192 -4.63083879 15.61434804
v 3.22387117 -4.57340952 16.91081166
v 2.82419596 -4.45099385 18.22639011
v 3.66834234 -4.5562178 17.08305521
v 3.22085996 -4.42001384 18.42739322
v 4.04124486 -4.53436283 17.22942136
v 3.55779374 -4.38430606 18.59903832
v 4.37026409 -4.49118713 17.35831618
v 3.86327179 -4.32656111 18.75098153
v 4.63567855 -4.36554295 17.45826167
v 4.10279999 -4.18444639 18.85838292
v 4.64041234 -4.15121463 17.4582933
v 4.05977896 -3.98022364 18.82696135
v 4.34893893 -4.10722824 17.37240939
v 3.77204362 -3.95185599 18.71181813
v 3.99564722 -4.11299096 17.27134672
v 3.44160987 -3.96775054 18.58303211
v 2.81075339 -3.75416774 19.83754696
v 3.08854147 -3.98669995 18.44326784
v 2.49003395 -3.78694719 19.67682697
v 4.79510612 -4.19763529 16.01170333
v 5.08428254 -4.26301896 16.07014983
v 5.40332115 -4.27930509 14.62963794
v 5.05823624 -4.48014214 16.05450674
v 5.34625752 -4.4992867 14.60237387
v 5.47616704 -4.41432671 13.10505265
v 5.04441821 -4.589553 14.54212569
v 5.17026704 -4.50843483 13.07528851
v 5.15479665 -4.35521945 11.62723089
v 4.81353901 -4.53105588 13.0509939
v 4.81690131 -4.38453158 11.63768914
v 4.71926104 -4.07480431 10.25304398
v 4.43452362 -4.40064723 11.65194809
v 4.35925927 -4.10628882 10.28805052
v 4.21242942 -3.58199947 8.99785983
v 3.91640567 -4.14144339 10.33086027
v 3.80641059 -3.62994756 9.04067717
v 3.67610569 -2.92984392 7.85833638
v 3.27921474 -3.68429889 9.08483309
v 3.19997399 -2.98158069 7.89579301
v 3.09917653 -2.17311553 6.80480629
v 2.49349652 -3.029339 7.92112383
v 2.4692416 -2.2087425 6.83385557
v 2.39426746 -1.40622763 5.75055692
v 1.58456254 -2.20794605 6.83476653
v 1.57957333 -1.41092062 5.77596745
v 1.50296304 -0.70637245 4.65938168
v 0.88715575 -1.39309646 5.79148782
v 0.8085784 -0.7081651 4.70695779
v 0.66538908 -0.10159718 3.55743442
v 0.32302355 -0.70760342 4.75300427
v 0.15816331 -0.11110755 3.627915
v -0.02340137 0.40502484 2.50625003
v 0.5199771 0.41109818 2.44189877
v -0.13965451 0.78966441 1.56548835
v 0.44690473 0.7753615 1.54703396
v -0.17757294 0.96963825 0.89417969
v 0.43044961 0.94710576 0.90832857
v -0.18889517 0.71363176 0.49652393
v 0.41981541 0.72282622 0.50477058
v -0.11196896 0.0282144 0.30439692
v 0.45474391 0.08512668 0.31261511
v 0.0946376 -1.01723904 0.20573816
v 0.59505993 -0.91547734 0.21474141
v 0.32351113 -2.21691751 0.16382229
v 0.76935071 -2.13087133 0.16822017
v 1.39531374 -2.05867291 0.17005346
v 0.86461554 -3.23845401 0.16905837
v 1.45100683 -3.18038549 0.16815817
v 2.08516362 -3.18058982 0.16855924
v 1.47022636 -3.896359 0.18732551
v 0.88018711 -3.95529642 0.18908669
v 0.86997538 -4.37423654 0.19579611
v 1.46898084 -4.3242812 0.20165531
v 0.85577736 -4.60664856 0.1116487
v 1.45800773 -4.58861073 0.13148851
v 0.8456627 -4.66964825 -0.10349757
v 1.44365215 -4.66727218 -0.09530405
v 0.45782984 -4.650993 -0.12191654
v 0.4577714 -4.65417628 -0.38884103
v 0.20080327 -4.51853502 -0.14484093
v 0.19284698 -4.51682793 -0.41489809
v 0.0792062 -4.11828462 -0.17801608
v 0.06871299 -4.12459739 -0.46826666
v 0.08972842 -4.13860267 -0.91962313
v -0.05570795 -3.43019544 -0.59083479
v -0.02247753 -3.45144184 -1.07955236
v -0.26592433 -2.36356027 -0.75929282
v -0.21100935 -2.38003002 -1.32694512
v -0.54896637 -1.16692558 -0.84333459
v -0.47488104 -1.15947427 -1.5214735
v -0.26104298 -1.20145356 -2.31086637
v -0.78552574 0.01649007 -1.63390157
v -0.53189248 0.01476218 -2.57922561
v -0.05582562 -0.04677495 -3.35050696
v -0.83265809 1.07891374 -2.80522552
v -0.31259803 1.09083236 -3.69042157
v 0.43259762 1.07078127 -4.24669518
v -0.5903752 1.93858602 -3.95315568
v 0.23179917 2.00031687 -4.63744858
v 1.2832007 2.02456546 -4.87259598
v 0.07886372 2.52736074 -4.89592904
v 1.27510144 2.55359366 -5.15764338
v 2.44866797 2.51839291 -4.85399229
v 1.28420805 2.84887536 -5.33433288
v 2.55003003 2.80594827 -4.97735055
v 1.29307118 3.08000634 -5.46387297
v 2.62841281 3.03847225 -5.06167951
v 1.29323526 3.25655731 -5.44518324
v 2.6292303 3.22110352 -5.02769843
v 1.28448877 3.26931825 -5.20291522
v 2.51347423 3.23813676 -4.8320864
v 3.37086044 3.11687844 -3.94694095
v 2.38246334 3.2181581 -4.6136398
v 3.15044501 3.09654932 -3.80146171
v 3.62076465 2.86882714 -2.67958735
v 2.90511028 3.06988686 -3.64489921
v 3.32123752 2.85114927 -2.59150323
v 3.54498156 2.56660574 -1.39888576
v 2.90718396 2.82712445 -2.47469372
v 3.08654212 2.55316349 -1.34059234
v 3.12281719 2.23788288 -0.22863914
v 2.39357539 2.53584968 -1.26547918
v 2.41936169 2.22937211 -0.19631801
v 2.3939714 1.89201465 0.81727563
v 1.38240359 2.2230587 -0.17102767
v 1.4089854 1.88372323 0.8405372
v 1.45361032 1.49742939 1.83587573
v 0.39388709 1.87523776 0.86290047
v 0.51893132 1.4822878 1.87138582
v 0.67449873 1.00134054 2.90888631
v -0.11934737 1.46697129 1.90709835
v 0.09149442 0.98011991 2.9509287
v 0.29403673 0.39518085 4.02120293
v -0.31270858 0.96221209 2.98605417
v -0.10286038 0.37542914 4.05552942
v 0.07522995 -0.27576267 5.09970738
v -0.42122194 0.359417 4.08337043
v -0.23990128 -0.28753405 5.11827755
v -0.11434171 -0.97761257 6.09182911
v -0.51637037 -0.29905397 5.13471962
v -0.38717395 -0.97987098 6.09483272
v -0.3774432 -1.66714204 6.98941286
v -0.64751285 -0.98694036 6.09701775
v -0.63441378 -1.65951613 6.97076552
v -0.76896522 -2.29014803 7.79773269
v -0.85998748 -1.685329 6.93058616
v -1.00167803 -2.2945176 7.73448849
v -1.30347163 -2.82540693 8.52757072
v -1.07194352 -2.42840401 7.62163593
v -1.38704937 -2.96458161 8.40868879
v -1.86645829 -3.43267526 9.22136032
v -1.22301579 -3.14687253 8.3786539
v -1.69662909 -3.647943 9.22413936
v -2.29116384 -4.04237596 10.2113723
v -1.45161018 -3.7862295 9.30478972
v -2.0390765 -4.17364748 10.32698808
v -2.668029 -4.42443418 11.5176799
v -1.75796091 -4.26570943 10.46287827
v -2.3602976 -4.47911795 11.67246604
v -2.9009395 -4.57608797 13.02979019
v -1.98764892 -4.51375441 11.86263892
v -2.49085808 -4.59315917 13.19101753
v -1.50696356 -4.54009583 12.10267005
v -1.94904506 -4.60583882 13.39092117
v -0.71954806 -4.5621953 12.41355689
v -1.01407933 -4.61686325 13.64852483
v 0.5752325 -4.57045303 12.67026478
v 0.36788736 -4.62127726 13.8635971
v 1.97640751 -4.56413171 12.8401525
v 1.79249411 -4.62056526 14.04649627
v 3.19769518 -4.5533075 12.9592394
v 3.04456884 -4.61829484 14.21201901
v 3.91796125 -4.54494507 13.00370404
v 3.78261321 -4.61697617 14.3213334
v 4.41258103 -4.53879203 13.02795564
v 4.28391331 -4.61557242 14.40565098
v 4.0333727 -4.62435394 15.74981312
v 4.68766235 -4.61055363 14.47679769
v 4.42701585 -4.61282406 15.86469445
v 4.77236202 -4.58306594 15.96803703
v 3.95955196 -4.41767067 11.67033669
v 3.29426698 -4.43920522 11.67787989
v 3.32439233 -4.18264283 10.37107316
v 2.16560396 -4.46366084 11.61479005
v 2.34160993 -4.22557308 10.36466232
v 2.45674399 -3.73716012 9.10163322
v 1.09885737 -4.23768528 10.26217376
v 1.36458678 -3.74429117 9.03316623
v 1.50630517 -3.0336578 7.89220423
v 0.51587923 -3.66285037 8.84672952
v 0.74357287 -2.9659259 7.79703049
v 0.86673533 -2.16329336 6.80310774
v 0.25021521 -2.8870734 7.70794622
v 0.39155088 -2.11778508 6.77344039
v 0.41302067 -1.37530393 5.80343079
v 0.0366903 -2.07762485 6.75124603
v 0.05617845 -1.36063663 5.81367839
v -0.04887359 -0.70600237 4.79323551
v -0.23578095 -1.34775139 5.82501027
v -0.35116315 -0.70307459 4.828862
v -0.53528261 -0.11685454 3.75061154
v -0.22523698 -0.11661858 3.6926572
v -0.72632406 0.4053772 2.64069091
v -0.41593429 0.4017855 2.57311906
v -0.56346381 0.80605414 1.59044721
v -0.62478425 0.99302382 0.86633679
v -0.62129194 0.68472537 0.47123675
v -0.76290769 -0.11484281 0.12410789
v -0.50030596 -0.04940474 0.27051769
v -0.49094102 -1.17584027 -0.00485905
v -0.2596038 -1.11191334 0.16516025
v -0.21034986 -2.33991455 -0.03062637
v -0.00300432 -2.28977274 0.12857219
v 0.00096614 -3.39613401 0.0013873
v 0.16949028 -3.35815991 0.1389172
v 0.45609484 -3.30372255 0.16888693
v -0.26793871 -2.35626553 -0.34193073
v -0.04942016 -3.41604372 -0.25147244
v -0.55521541 -1.18341036 -0.35664705
v -0.86218689 -0.11327268 -0.23717047
v -0.86964279 -0.04837272 -0.80283575
v -1.09607461 0.94897685 -1.67380892
v -1.36285613 1.51656573 -1.60831897
v -1.12584634 1.77524325 -2.87921264
v -1.56862244 1.85634086 -1.53294771
v -1.35231802 2.15808401 -2.85768883
v -0.82046776 2.41143466 -4.07675179
v -1.53154854 2.42315053 -2.82890524
v -0.99038727 2.69241408 -4.1320922
v -0.0137202 2.82596868 -5.06360264
v -1.12802456 2.92627254 -4.17018776
v -0.08005934 3.05890765 -5.19322116
v -1.1585396 3.11477281 -4.14758094
v -0.08337926 3.24144687 -5.19215079
v -0.96719117 3.13482802 -4.00969045
v 0.02478623 3.25172957 -4.96531584
v -0.73671763 3.11370244 -3.8575233
v 0.14269972 3.23076405 -4.71900673
v 1.27539655 3.25017653 -4.93218498
v 0.27999405 3.20081077 -4.44379763
v 1.2685839 3.22288936 -4.63892635
v 2.24060831 3.19013553 -4.37359097
v -0.47857214 3.08460033 -3.68714214
v -0.85068183 2.84820701 -2.53371843
v -0.38487063 2.82344901 -2.42238982
v -1.18504834 2.86643399 -2.61832827
v -1.33735703 2.56272122 -1.34486813
v -0.97874636 2.55634739 -1.32043307
v -1.46626957 2.87619131 -2.69084521
v -1.63084308 2.56196209 -1.36347624
v -1.57638895 2.21357023 -0.14918188
v -1.27718952 2.21937914 -0.1582427
v -1.68552432 2.83873215 -2.75891873
v -1.85961065 2.51622054 -1.3873584
v -1.82381113 2.17599468 -0.14806596
v -1.64910706 1.80707838 0.95760165
v -1.3937773 1.83805458 0.94867684
v -1.8740869 2.33645435 -1.43118917
v -1.89230754 2.02193208 -0.18712751
v -1.77297583 1.68372139 0.91821811
v -1.60660919 1.30308684 1.96363692
v -1.42757082 1.4041424 1.99862891
v -1.77337152 1.80918132 -0.25410218
v -1.67960217 1.49284568 0.8252781
v -1.55621577 1.1196479 1.85648478
v -1.39331107 0.64663582 2.92312501
v -1.40517592 0.82281062 3.03128679
v -1.22783515 0.50278357 2.80603462
v -1.04015774 -0.04917364 3.88991907
v -1.20098749 0.08020358 4.00078366
v -0.99310969 0.42690741 2.71263598
v -0.80308342 -0.10419534 3.81062818
v -0.61830651 -0.69350215 4.86757119
v -0.86019639 -0.65075227 4.9270596
v -0.74495717 -1.28573144 5.88281911
v -0.91300179 -1.17257571 5.97125622
v -1.02425575 -0.53361261 5.02723852
v -0.50109467 -1.33062104 5.84268529
v -0.50864356 -2.00051962 6.7340113
v -0.7488061 -1.93584352 6.75475763
v -0.24892983 -2.04105973 6.73731034
v -0.41047221 -2.74219483 7.60145009
v -0.667504 -2.66922716 7.57382101
v -0.12068153 -2.8115908 7.64374679
v -0.42061194 -3.46650199 8.5543091
v -0.72456099 -3.37383463 8.47314633
v -0.0231511 -3.56245288 8.67805577
v -0.4365356 -4.0762669 9.71318082
v -0.86102036 -3.98740467 9.5288431
v 0.13251357 -4.16505479 9.96540669
v -0.31867406 -4.44442644 11.17774125
v -0.964715 -4.39277792 10.87544267
v 0.82279117 -4.47436043 11.46985865
v -1.40900303 -4.33523066 10.6416946
v -1.18290997 -3.89530224 9.40127358
v -0.9860332 -3.2738515 8.41489593
v -0.90545938 -2.57438016 7.56845587
v -0.9167707 -1.81659436 6.82615802
v -0.87171268 -1.02849865 6.07496635
v -0.7761619 -0.31790655 5.14712503
v -0.99330216 -0.379575 5.12861497
v -0.97004723 0.32104238 4.1245063
v -1.18382978 0.24595801 4.10455579
v -1.19817286 0.9084301 3.057044
v -0.70393059 0.34454434 4.10739967
v -0.92416065 0.93319317 3.04065316
v -1.15792391 1.43079379 1.98623299
v -0.63371032 0.94731009 3.015211
v -0.86788035 1.44206462 1.96354203
v -1.10297208 1.84738616 0.92970877
v -0.54576047 1.45335301 1.93792716
v -0.76615961 1.85621798 0.90888463
v -0.92252157 2.22201142 -0.16596682
v -0.30164746 1.86634047 0.88562559
v -0.43030806 2.22358503 -0.16990353
v -0.47615273 2.54639017 -1.283709
v 0.31212872 2.22280534 -0.16803608
v 0.2794576 2.53315288 -1.23688031
v 0.32613897 2.79394362 -2.29479816
v 1.35819082 2.52521873 -1.21430385
v 1.32393557 2.77914126 -2.23977153
v 2.27055495 2.79711266 -2.33035065
v -1.73853231 2.11031368 -1.47900916
v -1.67538585 2.65450767 -2.80300887
v 1.11675005 3.2963084 -3.09920026
v 0.59013159 3.52336919 -4.38840661
v 1.9480253 3.30801257 -3.04536292
v -0.23561339 -3.61216215 19.14707412
v 0.97922936 3.20060991 -2.66048011
v 1.55995099 3.20177011 -2.59128561
v 1.53538064 3.30755361 -3.0977402
v 0.89196506 3.36993904 -3.51515923
v 0.41633384 3.24789092 -2.94335134
v 1.53945937 3.40028802 -3.58662098
v 0.22510497 3.69930748 -5.37128722
v 1.60091803 3.52824944 -4.29824501
v 1.75653715 3.70629746 -5.34434325
v -1.21996552 3.50138359 -3.87086623
v -0.24394363 3.3513246 -3.40895726
v 2.11571314 3.22284698 -2.62655469
v 2.61316605 3.27074541 -2.8245605
v 2.17156453 3.36900279 -3.34586362
v -1.05322027 -2.60057987 22.56732784
v -0.11271781 -2.76587265 22.16819873
v -0.74923517 -3.0678448 21.36184315
v -1.69455683 -2.83114483 21.97485143
v -0.87389011 -3.56739512 19.3664943
v -0.44996686 -3.42589751 20.07718144
v 0.25595809 -3.53470582 19.57213377
v 0.70422851 -3.64234159 18.92342118
v -0.11920859 -3.69198095 18.58873759
v -1.01942707 -3.68384468 18.5978933
v -1.02547795 -3.77527624 17.79641638
v -2.07359531 -3.75361737 17.86533695
v -1.98568674 -3.64075469 18.79510646
v -1.7524952 -3.48758233 19.71423552
v 0.02218064 -3.77222866 17.88395393
v 0.17467766 -3.83637526 17.14185977
v -0.9469193 -3.84105276 16.99278037
v 1.01718899 -3.73804988 18.1941759
v 1.25659964 -3.81559319 17.43447251
v 1.46580848 -3.87305853 16.65748695
v 0.34221295 -3.88074343 16.38022124
v 1.94122684 -3.67404181 18.64369464
v 2.26630446 -3.77624128 17.82186234
v 2.52984182 -3.85356887 16.9955746
v 2.76083173 -3.90430865 16.16698227
v 1.6653191 -3.90720821 15.86906892
v 3.2230211 -3.70581194 18.23438057
v 3.54186977 -3.8046839 17.35435037
v 3.81410309 -3.87415072 16.47854283
v 4.04706926 -3.90727368 15.59250604
v 2.96851769 -3.92273806 15.33016795
v 4.53492079 -3.713333 17.70411025
v 4.85200591 -3.80139213 16.79127751
v 5.12140831 -3.84979 15.85423999
v 5.32183321 -3.84747877 14.88389322
v 4.23827013 -3.89790857 14.68904854
v 4.38942258 -3.85109855 13.76727866
v 3.31656509 -3.85099638 13.61286322
v 3.15381269 -3.90419415 14.48022073
v 5.46661595 -3.80780328 13.8923051
v 5.52854812 -3.73123418 12.88184664
v 4.49312638 -3.76460511 12.82973758
v 4.54856421 -3.62238918 11.89215318
v 3.56066957 -3.61484313 11.83691462
v 3.45321757 -3.75930451 12.72810367
v 5.5213149 -3.59863576 11.89156327
v 5.46066123 -3.40733842 10.93167996
v 4.56210832 -3.42195131 10.97481898
v 4.52936398 -3.11557749 10.09781367
v 3.68423531 -3.11895561 10.10755676
v 3.63777543 -3.405458 10.95769495
v 5.339364 -3.09866381 10.03568547
v 5.18286729 -2.68821373 9.20973647
v 4.46541569 -2.70708549 9.27477035
v 4.38366333 -2.22697263 8.4972068
v 3.6914717 -2.2375321 8.52806036
v 3.69843164 -2.71514742 9.29767078
v 5.00942685 -2.21162766 8.43123149
v 4.83964984 -1.68309795 7.69692353
v 4.28940307 -1.70119983 7.75321095
v 4.18867125 -1.16347519 7.02438967
v 3.59788074 -1.1788053 7.0581514
v 3.65881339 -1.71437054 7.78672755
v 4.69839578 -1.13918397 6.97544301
v 4.58461582 -0.61316651 6.25953181
v 4.09325586 -0.64058122 6.30015273
v 4.01339815 -0.14533911 5.57624696
v 3.45572965 -0.15899734 5.6032349
v 3.52479003 -0.65625661 6.33142057
v 4.49963337 -0.11871523 5.5410538
v 4.43416873 0.33534909 4.8269044
v 3.94901906 0.31698216 4.85495196
v 3.90101246 0.74965166 4.13965912
v 3.34766023 0.74563698 4.14960369
v 3.39570669 0.30825124 4.8751612
v 4.38068818 0.76267972 4.1277288
v 4.3583926 1.15456303 3.43452468
v 3.87605044 1.15138814 3.4244441
v 3.87837084 1.52502779 2.6961085
v 3.29949357 1.52756186 2.68606271
v 3.31527584 1.15238339 3.42299227
v 4.37357642 1.52142716 2.72631799
v 4.43294147 1.87019747 1.9745013
v 3.88533521 1.86707635 1.93615144
v 3.90038238 2.18455859 1.13691078
v 3.26597065 2.17832836 1.13926977
v 3.27412732 1.86565425 1.92614171
v 4.48452547 2.19282391 1.15388867
v 4.50996447 2.48821916 0.29381848
v 3.89966817 2.47368756 0.30384403
v 3.85707794 2.73053336 -0.55490274
v 3.20157606 2.71147514 -0.50196877
v 3.25085721 2.4614112 0.32668808
v 4.49359957 2.75019983 -0.60070535
v 4.39880603 2.98224303 -1.50300012
v 3.74546213 2.95758055 -1.42287166
v 3.53741179 3.16175396 -2.28845692
v 2.91081512 3.11885692 -2.11934351
v 3.09632079 2.93016307 -1.32724877
v 4.23471045 3.20864813 -2.446024
v 3.90258955 3.4316381 -3.48147167
v 3.16851368 3.33817303 -3.11984094
v 2.55407665 3.46363755 -3.81221096
v 3.25292457 3.59252257 -4.39985426
v 2.28078356 3.08107925 -1.99270582
v 2.4030784 2.89984604 -1.25091152
v 2.48104588 2.68669532 -0.45945825
v 1.65302416 2.87260032 -1.22534726
v 1.69612609 2.65951886 -0.44645755
v 1.73167114 2.41612227 0.3526357
v 2.52504524 2.44198069 0.34739898
v 1.76597525 2.14046165 1.14789916
v 2.54939015 2.1640566 1.14661876
v 1.81151073 1.83415615 1.92609553
v 2.57580827 1.85524519 1.92599241
v 1.87365364 1.49838004 2.68257072
v 2.61930961 1.51799274 2.68273836
v 1.9415403 1.12894532 3.4230182
v 2.66321755 1.14552419 3.42250453
v 2.00395957 0.72116919 4.15571625
v 2.70863711 0.73708217 4.15412683
v 2.05991187 0.28166809 4.88707887
v 2.75891525 0.29721795 4.8851665
v 2.10469851 -0.18595359 5.61908454
v 2.81059761 -0.17206906 5.61755268
v 2.13667139 -0.67682941 6.34712376
v 2.86147182 -0.66836221 6.3479569
v 2.1510121 -1.18492711 7.06616526
v 2.90573972 -1.18624135 7.07355584
v 2.13687777 -1.69841842 7.77583596
v 2.92833247 -1.71322425 7.79634206
v 2.08032039 -2.19742691 8.48522326
v 2.91360318 -2.2260019 8.52634434
v 1.98157827 -2.6569315 9.20991755
v 2.864078 -2.6949532 9.27825678
v 1.84227533 -3.03533358 9.96192214
v 2.78290511 -3.08168085 10.06355368
v 1.67616127 -3.33387637 10.74481403
v 2.67366552 -3.37376157 10.88168871
v 1.49235098 -3.55580704 11.55316454
v 2.54082054 -3.58826671 11.72421262
v 1.29975317 -3.70818168 12.37703304
v 2.38903438 -3.73497478 12.57727037
v 1.10447404 -3.80677909 13.20239971
v 2.22258408 -3.82980565 13.42470393
v 0.90961669 -3.86728568 14.01636681
v 2.04512074 -3.88723777 14.25531681
v 0.71545813 -3.89862184 14.81671611
v 1.85878873 -3.91310821 15.06896792
v 0.52440231 -3.90244753 15.60463501
v -0.44636085 -3.88670701 14.57597457
v -0.64122237 -3.89669397 15.38402237
v -0.81269208 -3.88152502 16.18887678
v -1.80164634 -3.88478863 15.19475665
v -1.9576841 -3.87268118 16.06592592
v -2.05495999 -3.8300337 16.95465002
v -3.07886006 -3.84166354 15.97352996
v -3.13344451 -3.7965587 16.9624703
v -3.10140236 -3.70751238 17.98247099
v -4.2125648 -3.74387397 16.97249648
v -4.12931696 -3.64338634 18.07844624
v -3.99061926 -3.48817635 19.23246271
v -2.97615071 -3.57068467 19.03650401
v -3.77836525 -3.25041565 20.4463579
v -2.73111188 -3.37533518 20.10086369
v -3.39611155 -2.86682699 21.71268668
v -2.31702669 -3.1159444 21.11302892
v -1.33108237 -3.29592599 20.57091811
v 0.14432413 -3.24018451 20.81021541
v 0.91209048 -3.39898201 20.18506867
v 0.83724707 -2.98157879 21.58481667
v 1.65200598 -3.2050331 20.8503682
v 2.31412714 -3.40778093 20.00946725
v 1.50591573 -3.54704765 19.44589589
v 1.61339469 -2.61764617 22.40981896
v 2.47109134 -2.95510928 21.49708935
v 3.16812858 -3.23065872 20.53720777
v 3.73001641 -3.44334828 19.57371908
v 2.82735852 -3.5751281 19.12389669
v 4.17407449 -3.59872179 18.62544711
v 0.45312056 -2.2556452 23.1971508
v -1.30007864 -2.11202504 23.48195275
v -2.57548184 -2.3869539 22.886579
v -4.2076349 -3.78677797 15.88021418
v -2.9454712 -3.84896192 15.01182268
v -4.10313527 -3.78055787 14.8131248
v -2.74175801 -3.82472676 14.07289715
v -3.89430683 -3.73523067 13.76465461
v -2.47652891 -3.77468159 13.16395305
v -3.55864776 -3.66414026 12.77778162
v -2.17036005 -3.69488777 12.29593922
v -3.17501687 -3.57550798 11.86762608
v -1.83380236 -3.56144135 11.48311951
v -2.74876097 -3.42072247 11.07080198
v -1.48940335 -3.37106192 10.73003223
v -2.33680703 -3.21951188 10.36055022
v -1.1519752 -3.12577795 10.03590175
v -1.94188886 -2.97771989 9.72964495
v -0.83958402 -2.82740533 9.39079035
v -1.5907061 -2.68869499 9.1603817
v -0.56836975 -2.47034534 8.77832642
v -1.29828441 -2.35285483 8.61675364
v -0.35116196 -2.0623977 8.18362411
v -1.06174923 -1.98030547 8.08669955
v -0.19707279 -1.62274762 7.58711302
v -0.89548223 -1.57267421 7.5513339
v -0.10701122 -1.16272745 6.96724728
v -0.80916894 -1.13339523 6.9775847
v -0.07408849 -0.69665668 6.31627218
v -0.78144132 -0.68045745 6.36194003
v -0.09394458 -0.23470095 5.640398
v -0.81728322 -0.22819735 5.71605425
v -0.16137173 0.21530174 4.94651952
v -0.91384695 0.21511726 5.03881079
v -0.26517667 0.64720097 4.23991902
v -1.04929574 0.64939596 4.34132931
v -0.39121884 1.05301895 3.5148328
v -1.20595598 1.06347245 3.61853914
v -0.52824724 1.42723095 2.76342858
v -1.37189845 1.44472394 2.8633475
v -0.66091912 1.77227474 1.98380884
v -1.53766063 1.80269267 2.07344032
v -0.77462499 2.09382052 1.16557291
v -1.67958303 2.13270368 1.23382356
v -0.85543635 2.3923426 0.31201287
v -1.78226597 2.440223 0.35135783
v -0.89016312 2.66763615 -0.57536377
v -1.85138961 2.73590609 -0.58118944
v -0.84560485 2.91547111 -1.49183462
v -1.81581926 2.99672308 -1.57813352
v -0.66983089 3.14574997 -2.43566443
v -1.66868702 3.26080874 -2.6515477
v 0.03003567 2.86952016 -1.36538672
v 0.14655925 3.07499389 -2.18693624
v 0.85808224 2.85823414 -1.26397927
v 0.8887857 3.04765485 -2.01208635
v 1.60392497 3.05497569 -1.95424588
v 0.00456627 2.63810798 -0.52365325
v 0.8656345 2.63916159 -0.47067879
v 0.0313271 2.37886934 0.31801061
v 0.89474188 2.3910505 0.33932566
v 0.09402271 2.09198581 1.14236069
v 0.9420219 2.11235605 1.14280794
v 0.18364608 1.77945815 1.94142105
v 1.00891536 1.80495503 1.92763339
v 0.2908103 1.4418149 2.71029596
v 1.09269329 1.46971459 2.68823382
v 0.40252699 1.07252726 3.45596055
v 1.1819023 1.10217104 3.43010593
v 0.50499047 0.66836363 4.18413768
v 1.26355622 0.69669214 4.16126801
v 0.58698314 0.23487292 4.90146086
v 1.32981217 0.25990413 4.88763272
v 0.63824701 -0.22186545 5.61285052
v 1.37368888 -0.20324262 5.61249784
v 0.6528974 -0.6945601 6.31310788
v 1.39259045 -0.6858344 6.33061147
v 0.62628186 -1.1758787 6.99477958
v 1.38217166 -1.18113472 7.03533708
v 0.55136723 -1.65658289 7.65303757
v 1.33433088 -1.67896245 7.72356322
v 0.42108055 -2.12199365 8.29701004
v 1.23824907 -2.1628061 8.40444701
v 0.23401361 -2.55568094 8.94461084
v 1.09243997 -2.61195935 9.09446308
v -0.00366065 -2.9234429 9.61230753
v 0.90004194 -2.98604942 9.80745104
v -0.2723615 -3.22782654 10.31312032
v 0.68027231 -3.28955406 10.55203181
v -0.55699327 -3.46794971 11.05308125
v 0.44646611 -3.52083054 11.32754593
v -0.84302366 -3.64324843 11.83397932
v 0.21050662 -3.68254341 12.12924394
v -1.11825933 -3.75986594 12.64902881
v -0.01926535 -3.78751939 12.94569972
v -1.37266011 -3.82959562 13.48534906
v -0.23840405 -3.85139366 13.76283017
v -1.60223599 -3.86970224 14.33538359
v 1.53609129 2.93923686 -3.16985227
v 1.56031031 2.83443169 -2.66920754
v 0.97700713 2.83266925 -2.73702042
v 1.1153393 2.92767883 -3.17083661
v 0.40829445 2.87928064 -3.01754595
v 0.88833182 3.00081572 -3.5842525
v 1.54090155 3.03146456 -3.65539289
v -0.2618698 2.9828769 -3.48103897
v -1.24367276 3.13354794 -3.94200662
v 0.21319643 3.32999817 -5.43664053
v 0.58149283 3.15398998 -4.45494163
v 1.60317185 3.15909765 -4.36479774
v 2.17394661 3.00079263 -3.41702679
v 2.61465331 2.9035702 -2.90094646
v 2.11656937 2.85569328 -2.70397306
v 1.94936216 2.93997923 -3.11808735
v -1.70278988 -3.18077074 22.11346309
v -0.74842385 -3.42485751 21.47999379
v -0.10523914 -3.11273898 22.3139133
v -1.05441479 -2.94252167 22.72416869
v 0.25975855 -3.90311682 19.64403898
v -0.44946655 -3.79176164 20.16193046
v -0.87667911 -3.93663421 19.43386309
v -0.23512597 -3.98222932 19.20926883
v -0.11867783 -4.06367993 18.63898552
v 0.70902644 -4.01309988 18.98047406
v -1.02335445 -4.05550412 18.648455
v -1.99442714 -4.01171321 18.85043991
v -2.08229681 -4.12652874 17.90424225
v -1.02880483 -4.1484204 17.83339982
v -1.75967306 -3.85533543 19.78967131
v 0.0225177 -4.1452599 17.92208112
v -0.94981822 -4.2152151 17.01731538
v 0.17477286 -4.21038136 17.16852793
v 1.02083569 -4.11045358 18.23793139
v 1.25941517 -4.18920391 17.46593962
v 0.34236155 -4.25539257 16.39540063
v 1.46833448 -4.24749922 16.67705157
v 2.27443282 -4.14904479 17.8609726
v 1.9499742 -4.04513444 18.6972783
v 2.53765324 -4.2275756 17.02161964
v 1.66773859 -4.28213063 15.87636351
v 2.7683667 -4.27909507 16.18008418
v 3.55904187 -4.17772147 17.3888812
v 3.24001876 -4.07726452 18.28300649
v 3.83076531 -4.24831655 16.49945743
v 2.97557156 -4.29783382 15.32956255
v 4.06325829 -4.28206199 15.59825327
v 4.87408134 -4.17493262 16.81661024
v 4.55754849 -4.08555229 17.74333944
v 5.1432364 -4.22413296 15.86346403
v 4.25374368 -4.27243467 14.67985803
v 5.34343419 -4.2217708 14.87757221
v 3.16009432 -4.27881356 14.46566509
v 3.32141402 -4.22427339 13.58280019
v 4.4029787 -4.22460962 13.74239287
v 5.48640767 -4.18143044 13.87029229
v 4.50409578 -4.13577808 12.78274663
v 5.5448643 -4.10290817 12.83750599
v 3.45706255 -4.1298455 12.67648899
v 3.56358082 -3.98012748 11.75669569
v 4.55582401 -3.98876035 11.81671328
v 5.53239437 -3.96593211 11.81881638
v 4.56577111 -3.77902917 10.86124414
v 5.46543424 -3.76529339 10.81899694
v 3.64015593 -3.76158347 10.84218908
v 3.68782472 -3.45920962 9.95031207
v 4.53126243 -3.45544086 9.9394038
v 5.33880351 -3.43861132 9.87678011
v 4.46565482 -3.02845493 9.08187175
v 5.17830936 -3.00996669 9.01726076
v 3.70336533 -3.03630747 9.10479521
v 3.69604038 -2.54491604 8.31419645
v 4.3818275 -2.53504311 8.28377322
v 5.00198804 -2.52004006 8.21819763
v 4.28776146 -2.00288968 7.53082876
v 4.83338767 -1.98472612 7.47441956
v 3.66273239 -2.01571941 7.56440071
v 3.6020376 -1.48142753 6.8370912
v 4.18975554 -1.46623043 6.80317812
v 4.69729568 -1.441776 6.75395042
v 4.0975171 -0.9487469 6.08615305
v 4.58888971 -0.92114897 6.04538884
v 3.52978003 -0.96431582 6.11743385
v 3.46144715 -0.47408411 5.39907161
v 4.0192757 -0.46069757 5.37254073
v 4.50643263 -0.43400584 5.33768886
v 3.9553698 -0.00525023 4.66190325
v 4.44151266 0.01338282 4.63410019
v 3.40197708 -0.01399712 4.68185376
v 3.35444367 0.41631955 3.96811998
v 3.90825707 0.4206839 3.95797993
v 4.38936691 0.43424896 3.94603474
v 3.88433505 0.81526331 3.25617775
v 4.36857567 0.81899569 3.26634436
v 3.32271276 0.81575381 3.25498085
v 3.30741191 1.18334346 2.53386583
v 3.88773595 1.18147174 2.54348081
v 4.38536377 1.17860113 2.5735176
v 3.89516781 1.51672452 1.79988928
v 4.44561131 1.52034682 1.83864022
v 3.28170278 1.51503704 1.78926845
v 3.27223899 1.82302464 1.01559395
v 3.90865751 1.82912265 1.01502777
v 4.49534493 1.83751086 1.03319749
v 3.90535277 2.11425925 0.19485986
v 4.51755321 2.12882153 0.1860622
v 3.25534286 2.10223308 0.21570171
v 3.20425262 2.34944397 -0.60163528
v 3.86046112 2.36819126 -0.65264993
v 4.49837955 2.38783148 -0.69745175
v 3.74780087 2.59333305 -1.51251199
v 4.40248843 2.61811825 -1.59249495
v 3.09768754 2.56599243 -1.41779563
v 2.91180879 2.75305004 -2.20235412
v 3.54066086 2.79612326 -2.37162189
v 4.2398295 2.84325086 -2.52987218
v 3.17347885 2.97117084 -3.19653561
v 3.90984175 3.06484941 -3.55879895
v 2.55977501 3.09534357 -3.88241003
v 3.26064252 3.22418304 -4.46955736
v 1.75904251 3.33701884 -5.40961558
v 2.40517597 2.5358307 -1.34318729
v 2.28181028 2.7153274 -2.07705756
v 2.48480546 2.32488809 -0.56102764
v 1.69918711 2.29762275 -0.54953698
v 1.65457136 2.50849103 -1.31898314
v 2.53054781 2.08305103 0.23478302
v 1.73623761 2.05704142 0.23867481
v 2.55633237 1.80891404 1.02168974
v 1.77164348 1.78503457 1.02192697
v 2.5839371 1.50477443 1.78825438
v 1.81790338 1.48338616 1.78747944
v 2.62804195 1.17362852 2.53058386
v 1.88031704 1.1536078 2.53020873
v 2.67158472 0.80870096 3.25492961
v 1.94775961 0.79159181 3.25587093
v 2.71617857 0.40780119 3.97287212
v 2.00926366 0.39152083 3.97484332
v 2.76565836 -0.02478983 4.69197356
v 2.0641981 -0.04058462 4.69422596
v 2.81637742 -0.48677418 5.41335175
v 2.10792338 -0.50069733 5.4150348
v 2.86625812 -0.97599002 6.13386359
v 2.13914171 -0.98421936 6.13282612
v 2.90983537 -1.48826553 6.85216257
v 2.15346029 -1.48635498 6.84409874
v 2.93256888 -2.01392629 7.57348936
v 2.14044583 -1.99811619 7.55173292
v 2.91873393 -2.53275908 8.31174336
v 2.08581204 -2.50283458 8.26879887
v 2.86923011 -3.0163886 9.08556785
v 1.98801662 -2.97750987 9.01562595
v 2.78659858 -3.4220753 9.90609628
v 1.84800904 -3.37456245 9.80157278
v 2.67654847 -3.7292304 10.76289266
v 1.68072307 -3.68814577 10.62090873
v 2.5432855 -3.95323475 11.63982086
v 1.49553181 -3.9202399 11.46385379
v 2.390778 -4.10539969 12.52171487
v 1.30159231 -4.07836367 12.31707239
v 2.22416291 -4.20291755 13.39036479
v 1.10559811 -4.17972272 13.16419439
v 2.04714793 -4.26166644 14.23635886
v 0.91043329 -4.24152963 13.99390548
v 1.86109166 -4.28808599 15.06336809
v 0.71600482 -4.27344906 14.80738263
v 0.52472055 -4.27739557 15.60780057
v -0.64315395 -4.27163411 15.38394836
v -0.44773455 -4.26140897 14.56332813
v -0.81509061 -4.25630068 16.20118603
v -1.96543194 -4.24745494 16.07606723
v -1.80901194 -4.25964906 15.1911704
v -2.06324713 -4.20417612 16.97884848
v -3.14884594 -4.17046769 16.98699835
v -3.09429186 -4.21630825 15.98115476
v -3.1170018 -4.07993601 18.0240307
v -4.14838371 -4.01549176 18.12118324
v -4.2314519 -4.11761342 16.99725037
v -2.99131872 -3.94070946 19.09657885
v -4.00907682 -3.85769189 19.29432339
v -2.74456425 -3.740945 20.1855697
v -3.79528052 -3.61475141 20.53532008
v -2.32846991 -3.47420966 21.22625788
v -3.41197036 -3.22163269 21.8348202
v -1.33526532 -3.65894592 20.66783847
v 0.15000217 -3.60144263 20.91387176
v 0.92075057 -3.76418823 20.27233546
v 0.84959363 -3.3349616 21.712755
v 1.66759206 -3.56491151 20.95702058
v 1.51534662 -3.91565002 19.51556547
v 2.33052809 -3.7729008 20.09474766
v 2.49015209 -3.31135779 21.613661
v 1.62897365 -2.96531954 22.55067005
v 3.18813302 -3.59349678 20.63038817
v 2.84385563 -3.94408442 19.18962197
v 3.75067481 -3.81087142 19.64563315
v 4.19613601 -3.9691875 18.6790624
v 0.46376891 -2.59427563 23.35891333
v -1.30267723 -2.44823559 23.64912279
v -2.58997928 -2.73029661 23.03794654
v -4.22699329 -4.16123575 15.88639222
v -4.12383162 -4.15480815 14.8016936
v -2.96147614 -4.22352565 15.0033116
v -3.91648854 -4.10849914 13.73652133
v -2.75844174 -4.19860064 14.04895996
v -3.58127546 -4.03586802 12.733818
v -2.49315001 -4.14731208 13.12462233
v -3.194312 -3.944346 11.80042113
v -2.18455068 -4.06510297 12.23472189
v -2.76362026 -3.78301175 10.97315348
v -1.8447474 -3.92607822 11.39304284
v -2.34838309 -3.57238639 10.232415
v -1.49773937 -3.72693688 10.60913972
v -1.95004142 -3.31707908 9.56901974
v -1.15743538 -3.46870947 9.88226537
v -1.59760784 -3.01063725 8.9674471
v -0.84355853 -3.15340134 9.2044209
v -1.30645974 -2.65749563 8.39796793
v -0.57291115 -2.7784941 8.56432456
v -1.07347443 -2.27307272 7.85245441
v -0.35850233 -2.35797293 7.95276886
v -0.91361953 -1.86206453 7.31310919
v -0.20960259 -1.91479607 7.35166465
v -0.83438115 -1.42725902 6.74517949
v -0.12524729 -1.45894407 6.73678117
v -0.81190638 -0.9830609 6.14140236
v -0.09662984 -1.00117163 6.09673181
v -0.84998818 -0.54103858 5.51033411
v -0.11842004 -0.54887519 5.43448271
v -0.94637494 -0.10688225 4.84736447
v -0.18587503 -0.10782899 4.75416162
v -1.08166795 0.31983529 4.16268505
v -0.28937141 0.3162885 4.06029358
v -1.23858155 0.72633316 3.45401402
v -0.41533664 0.71430683 3.3489925
v -1.40460721 1.10065642 2.71339068
v -0.55226082 1.0814089 2.61189277
v -1.57002161 1.45241264 1.93826181
v -0.68460232 1.42026406 1.8466003
v -1.71041485 1.77737371 1.11259719
v -0.79728764 1.73701563 1.04187305
v -1.81175002 2.0816468 0.24070737
v -0.87721098 2.03227678 0.19950951
v -1.8801256 2.37443889 -0.68107736
v -0.9115623 2.30495624 -0.67684143
v -1.84332878 2.63302246 -1.66873288
v -0.86637822 2.55065394 -1.58352966
v -1.69507557 2.89521347 -2.73360941
v -0.68985169 2.77921464 -2.51812595
v 0.13751163 2.70794267 -2.27044029
v 0.02078645 2.50421715 -1.45858609
v 0.88651656 2.68119259 -2.09689104
v 0.85629574 2.49361276 -1.35789476
v 1.60447952 2.68907012 -2.03953894
v 0.86476664 2.27674611 -0.57442814
v -0.00443235 2.27493369 -0.62699204
v 0.89480238 2.03128675 0.22465246
v 0.02260113 2.01820634 0.20354618
v 0.94267091 1.75611355 1.01625882
v 0.08521698 1.73465617 1.0160684
v 1.00974732 1.45329181 1.78852893
v 0.17452986 1.42669466 1.80230647
v 1.09350698 1.12404072 2.53565927
v 0.28151017 1.09511432 2.5575639
v 1.18233738 0.76384482 3.26316299
v 0.39291932 0.73311375 3.28905304
v 1.26317531 0.36615845 3.98071549
v 0.49483927 0.33681927 4.00373572
v 1.32848212 -0.06297873 4.69492309
v 0.57624549 -0.08878884 4.70854943
v 1.37180198 -0.51829504 5.40817355
v 0.62752294 -0.53712036 5.40756309
v 1.39087838 -0.99307102 6.1154073
v 0.6433735 -1.00124375 6.09594801
v 1.38179099 -1.48177736 6.81162736
v 0.61948743 -1.47520102 6.76813204
v 1.33639594 -1.97718798 7.49704536
v 0.54834569 -1.95261787 7.42270129
v 1.24314557 -2.46602037 8.184725
v 0.42166595 -2.42214642 8.07242574
v 1.09872425 -2.93009475 8.89605515
v 0.23632428 -2.86974394 8.73949435
v 0.90581368 -3.32276622 9.64160717
v -0.00168245 -3.25592597 9.43782072
v 0.68466505 -3.64168146 10.42118112
v -0.27197743 -3.57637212 10.17236025
v 0.44905913 -3.88392006 11.23108515
v -0.55872788 -3.82840632 10.94591867
v 0.2116448 -4.05206369 12.06292244
v -0.84646741 -4.01119542 11.75765251
v -0.0191966 -4.16017613 12.90271728
v -1.12324838 -4.13178349 12.59852658
v -0.23911273 -4.22541588 13.73676995
v -1.37893367 -4.20324587 13.45398697
v -1.60918137 -4.24419923 14.31835129
g Group16176
f 1 13 14 15
f 1 15 16 17
f 1 17 18 19
f 1 20 21 13
f 1 19 22 20
f 2 23 24 25
f 2 26 27 23
f 2 25 28 26
f 3 29 30 31
f 3 31 32 33
f 3 33 34 29
f 4 35 36 37
f 4 38 39 35
f 4 37 40 38
f 5 41 42 43
f 5 43 44 45
f 5 45 24 41
f 6 46 47 48
f 6 49 50 46
f 6 48 51 49
f 7 52 53 54
f 7 54 55 56
f 7 56 57 52
f 8 58 59 60
f 8 61 62 58
f 8 60 63 61
f 9 63 60 64
f 9 64 65 66
f 9 66 67 63
f 10 68 57 56
f 10 56 55 69
f 10 69 70 68
f 11 71 72 73
f 11 73 74 75
f 12 76 77 78
f 12 79 80 76
f 12 81 82 79
f 82 83 84 79
f 82 81 85 86
f 82 86 87 83
f 87 88 89 83
f 87 86 90 91
f 87 91 92 88
f 92 93 94 88
f 92 91 95 96
f 92 96 97 93
f 97 98 99 93
f 97 96 100 101
f 97 101 102 98
f 102 103 104 98
f 102 101 105 106
f 102 106 107 103
f 107 108 109 103
f 107 106 110 111
f 107 111 112 108
f 112 113 114 108
f 112 111 115 116
f 112 116 117 113
f 117 118 119 113
f 117 116 120 121
f 117 121 122 118
f 122 123 124 118
f 122 121 125 126
f 122 126 127 123
f 127 128 129 123
f 127 126 130 131
f 127 131 132 128
f 132 133 134 128
f 132 131 135 136
f 132 136 137 133
f 137 138 139 133
f 137 136 140 141
f 137 141 142 138
f 142 143 144 138
f 142 141 145 146
f 142 146 147 143
f 147 148 149 143
f 147 146 150 151
f 147 151 152 148
f 152 153 154 148
f 152 151 155 156
f 152 156 157 153
f 157 158 159 153
f 157 156 160 161
f 157 161 162 158
f 162 163 164 158
f 162 161 165 166
f 162 166 167 163
f 167 168 169 163
f 167 166 170 171
f 167 171 172 168
f 172 173 174 168
f 172 171 175 176
f 172 176 177 173
f 177 176 178 179
f 177 179 180 181
f 177 181 182 173
f 182 181 183 184
f 182 184 185 186
f 182 186 174 173
f 186 185 187 188
f 186 188 189 174
f 189 169 168 174
f 189 188 190 191
f 189 191 192 169
f 192 191 193 194
f 192 194 195 164
f 192 164 163 169
f 195 194 30 196
f 195 196 197 159
f 195 159 158 164
f 197 196 198 199
f 197 199 200 154
f 197 154 153 159
f 200 199 201 202
f 200 202 203 149
f 200 149 148 154
f 203 202 39 204
f 203 204 205 144
f 203 144 143 149
f 205 204 206 207
f 205 207 208 139
f 205 139 138 144
f 208 207 209 210
f 208 210 211 134
f 208 134 133 139
f 211 210 212 213
f 211 213 214 129
f 211 129 128 134
f 214 213 215 216
f 214 216 217 124
f 214 124 123 129
f 217 216 218 219
f 217 219 220 119
f 217 119 118 124
f 220 219 221 222
f 220 222 223 114
f 220 114 113 119
f 223 222 224 225
f 223 225 226 109
f 223 109 108 114
f 226 225 227 228
f 226 228 229 104
f 226 104 103 109
f 229 228 230 231
f 229 231 232 99
f 229 99 98 104
f 232 231 233 234
f 232 234 235 94
f 232 94 93 99
f 235 234 236 237
f 235 237 238 89
f 235 89 88 94
f 238 237 239 240
f 238 240 241 84
f 238 84 83 89
f 241 240 242 243
f 241 243 244 80
f 241 80 79 84
f 244 243 245 246
f 244 246 247 248
f 244 248 76 80
f 248 247 249 250
f 248 250 77 76
f 250 249 251 252
f 250 252 253 77
f 253 254 78 77
f 253 252 255 256
f 253 256 257 254
f 257 258 259 254
f 257 256 260 261
f 257 261 262 258
f 262 263 264 258
f 262 261 265 266
f 262 266 267 263
f 267 268 269 263
f 267 266 270 271
f 267 271 272 268
f 272 273 274 268
f 272 271 275 276
f 272 276 277 273
f 277 278 279 273
f 277 276 280 281
f 277 281 282 278
f 282 59 283 278
f 282 281 65 64
f 282 64 60 59
f 283 284 285 286
f 283 286 279 278
f 283 59 58 284
f 286 285 287 288
f 286 288 289 279
f 289 288 290 291
f 289 291 292 274
f 289 274 273 279
f 292 291 293 294
f 292 294 295 269
f 292 269 268 274
f 295 294 296 297
f 295 297 298 264
f 295 264 263 269
f 298 297 299 300
f 298 300 301 259
f 298 259 258 264
f 301 300 302 303
f 301 303 12 78
f 301 78 254 259
f 303 302 304 305
f 303 305 81 12
f 305 304 306 307
f 305 307 85 81
f 307 306 308 309
f 307 309 310 85
f 310 90 86 85
f 310 309 311 312
f 310 312 313 90
f 313 95 91 90
f 313 312 314 315
f 313 315 316 95
f 316 100 96 95
f 316 315 317 318
f 316 318 319 100
f 319 105 101 100
f 319 318 320 321
f 319 321 322 105
f 322 110 106 105
f 322 321 323 324
f 322 324 325 110
f 325 115 111 110
f 325 324 326 327
f 325 327 328 115
f 328 120 116 115
f 328 327 329 330
f 328 330 331 120
f 331 125 121 120
f 331 330 332 333
f 331 333 334 125
f 334 130 126 125
f 334 333 335 336
f 334 336 337 130
f 337 135 131 130
f 337 336 338 339
f 337 339 340 135
f 340 140 136 135
f 340 339 341 342
f 340 342 343 140
f 343 145 141 140
f 343 342 344 345
f 343 345 346 145
f 346 150 146 145
f 346 345 347 348
f 346 348 349 150
f 349 155 151 150
f 349 348 350 351
f 349 351 352 155
f 352 160 156 155
f 352 351 353 354
f 352 354 355 160
f 355 165 161 160
f 355 354 356 357
f 355 357 358 165
f 358 170 166 165
f 358 357 359 360
f 358 360 361 170
f 361 175 171 170
f 361 360 362 363
f 361 363 364 175
f 364 178 176 175
f 364 363 365 366
f 364 366 27 178
f 366 365 367 368
f 366 368 23 27
f 368 367 42 41
f 368 41 24 23
f 367 365 369 370
f 367 370 371 42
f 371 370 372 373
f 371 373 374 375
f 371 375 43 42
f 375 374 376 377
f 375 377 44 43
f 377 376 378 379
f 377 379 380 44
f 380 381 45 44
f 380 379 382 383
f 380 383 384 381
f 384 28 25 381
f 384 383 385 386
f 384 386 180 28
f 386 385 387 183
f 386 183 181 180
f 387 385 388 389
f 387 389 390 391
f 387 391 184 183
f 391 390 392 393
f 391 393 185 184
f 393 392 394 395
f 393 395 187 185
f 395 394 396 397
f 395 397 398 187
f 398 190 188 187
f 398 397 399 400
f 398 400 401 190
f 401 193 191 190
f 401 400 402 32
f 401 32 31 193
f 402 400 399 403
f 402 403 404 405
f 402 405 33 32
f 405 404 406 407
f 405 407 34 33
f 407 406 37 36
f 407 36 408 34
f 408 36 35 201
f 408 201 199 198
f 408 198 29 34
f 406 404 409 410
f 406 410 40 37
f 410 409 411 412
f 410 412 413 40
f 413 412 414 209
f 413 209 207 206
f 413 206 38 40
f 414 412 411 415
f 414 415 416 212
f 414 212 210 209
f 416 415 417 418
f 416 418 419 215
f 416 215 213 212
f 419 418 420 421
f 419 421 422 218
f 419 218 216 215
f 422 421 423 424
f 422 424 425 221
f 422 221 219 218
f 425 424 426 427
f 425 427 428 224
f 425 224 222 221
f 428 427 429 430
f 428 430 431 227
f 428 227 225 224
f 431 430 432 433
f 431 433 434 230
f 431 230 228 227
f 434 433 435 436
f 434 436 437 233
f 434 233 231 230
f 437 436 438 439
f 437 439 440 236
f 437 236 234 233
f 440 439 441 442
f 440 442 443 239
f 440 239 237 236
f 443 442 444 445
f 443 445 446 242
f 443 242 240 239
f 446 445 447 448
f 446 448 449 245
f 446 245 243 242
f 449 448 450 451
f 449 451 452 453
f 449 453 246 245
f 453 452 454 455
f 453 455 247 246
f 455 454 456 457
f 455 457 249 247
f 457 456 458 459
f 457 459 251 249
f 459 458 460 461
f 459 461 462 251
f 462 255 252 251
f 462 461 463 464
f 462 464 465 255
f 465 260 256 255
f 465 464 466 467
f 465 467 468 260
f 468 265 261 260
f 468 467 469 75
f 468 75 74 265
f 469 467 466 470
f 469 470 471 71
f 469 71 11 75
f 471 470 472 473
f 471 473 474 475
f 471 475 72 71
f 475 474 476 477
f 475 477 478 72
f 478 479 73 72
f 478 477 480 481
f 478 481 275 479
f 481 280 276 275
f 481 480 482 280
f 482 65 281 280
f 482 480 483 484
f 482 484 66 65
f 484 483 485 486
f 484 486 67 66
f 486 485 487 488
f 486 488 489 67
f 489 488 490 491
f 489 491 62 61
f 489 61 63 67
f 491 490 492 493
f 491 493 494 62
f 494 493 495 496
f 494 496 285 284
f 494 284 58 62
f 496 495 497 498
f 496 498 287 285
f 498 497 499 500
f 498 500 501 287
f 501 500 502 503
f 501 503 504 290
f 501 290 288 287
f 504 503 505 506
f 504 506 507 293
f 504 293 291 290
f 507 506 508 509
f 507 509 510 296
f 507 296 294 293
f 510 509 511 512
f 510 512 513 299
f 510 299 297 296
f 513 512 514 515
f 513 515 304 302
f 513 302 300 299
f 515 514 516 517
f 515 517 306 304
f 517 516 518 519
f 517 519 308 306
f 519 518 520 521
f 519 521 522 308
f 522 521 523 524
f 522 524 525 311
f 522 311 309 308
f 525 314 312 311
f 525 524 526 527
f 525 527 528 314
f 528 317 315 314
f 528 527 529 530
f 528 530 531 317
f 531 320 318 317
f 531 530 532 533
f 531 533 534 320
f 534 323 321 320
f 534 533 535 536
f 534 536 537 323
f 537 326 324 323
f 537 536 538 539
f 537 539 540 326
f 540 329 327 326
f 540 539 541 542
f 540 542 543 329
f 543 332 330 329
f 543 542 544 545
f 543 545 546 332
f 546 335 333 332
f 546 545 547 548
f 546 548 549 335
f 549 338 336 335
f 549 548 550 551
f 549 551 552 338
f 552 341 339 338
f 552 551 553 554
f 552 554 555 341
f 555 344 342 341
f 555 554 556 557
f 555 557 558 344
f 558 347 345 344
f 558 557 559 560
f 558 560 561 347
f 561 350 348 347
f 561 560 562 563
f 561 563 564 350
f 564 353 351 350
f 564 563 565 566
f 564 566 567 353
f 567 356 354 353
f 567 566 568 569
f 567 569 570 356
f 570 359 357 356
f 570 569 571 572
f 570 572 573 359
f 573 362 360 359
f 573 572 574 575
f 573 575 369 362
f 575 574 576 372
f 575 372 370 369
f 576 574 577 578
f 576 578 579 580
f 576 580 373 372
f 580 579 581 582
f 580 582 374 373
f 582 581 583 584
f 582 584 376 374
f 584 583 585 586
f 584 586 378 376
f 586 585 587 588
f 586 588 589 378
f 589 382 379 378
f 589 588 590 591
f 589 591 388 382
f 591 590 592 593
f 591 593 389 388
f 593 592 594 595
f 593 595 390 389
f 595 594 596 597
f 595 597 392 390
f 597 596 598 599
f 597 599 394 392
f 599 598 600 601
f 599 601 396 394
f 601 600 602 603
f 601 603 604 396
f 604 399 397 396
f 604 603 605 606
f 604 606 403 399
f 606 605 411 409
f 606 409 404 403
f 605 603 602 417
f 605 417 415 411
f 602 600 607 420
f 602 420 418 417
f 607 600 598 608
f 607 608 609 423
f 607 423 421 420
f 609 608 610 611
f 609 611 612 426
f 609 426 424 423
f 612 611 613 614
f 612 614 615 429
f 612 429 427 426
f 615 614 616 617
f 615 617 618 432
f 615 432 430 429
f 618 617 619 620
f 618 620 621 435
f 618 435 433 432
f 621 620 622 623
f 621 623 624 438
f 621 438 436 435
f 624 623 625 626
f 624 626 627 441
f 624 441 439 438
f 627 626 628 629
f 627 629 630 444
f 627 444 442 441
f 630 629 631 632
f 630 632 633 447
f 630 447 445 444
f 633 632 634 635
f 633 635 636 450
f 633 450 448 447
f 636 635 637 638
f 636 638 639 640
f 636 640 451 450
f 640 639 641 642
f 640 642 452 451
f 642 641 643 644
f 642 644 454 452
f 644 643 645 646
f 644 646 456 454
f 646 645 647 648
f 646 648 458 456
f 648 647 649 650
f 648 650 460 458
f 650 649 651 652
f 650 652 653 460
f 653 463 461 460
f 653 652 654 655
f 653 655 656 463
f 656 466 464 463
f 656 655 657 472
f 656 472 470 466
f 657 655 654 658
f 657 658 659 660
f 657 660 473 472
f 660 659 661 662
f 660 662 474 473
f 662 661 663 664
f 662 664 476 474
f 664 663 487 485
f 664 485 483 476
f 663 661 47 665
f 663 665 666 487
f 666 665 667 668
f 666 668 492 490
f 666 490 488 487
f 668 667 669 670
f 668 670 671 492
f 671 670 672 673
f 671 673 497 495
f 671 495 493 492
f 673 672 674 675
f 673 675 499 497
f 675 674 676 677
f 675 677 678 499
f 678 677 679 680
f 678 680 681 502
f 678 502 500 499
f 681 680 682 683
f 681 683 684 505
f 681 505 503 502
f 684 683 685 686
f 684 686 687 508
f 684 508 506 505
f 687 686 688 689
f 687 689 690 511
f 687 511 509 508
f 690 689 691 692
f 690 692 516 514
f 690 514 512 511
f 692 691 693 694
f 692 694 518 516
f 694 693 695 696
f 694 696 520 518
f 696 695 697 698
f 696 698 699 520
f 699 698 700 701
f 699 701 702 523
f 699 523 521 520
f 702 701 703 704
f 702 704 705 526
f 702 526 524 523
f 705 529 527 526
f 705 704 706 707
f 705 707 708 529
f 708 532 530 529
f 708 707 709 710
f 708 710 711 532
f 711 535 533 532
f 711 710 712 713
f 711 713 714 535
f 714 538 536 535
f 714 713 715 716
f 714 716 717 538
f 717 541 539 538
f 717 716 718 719
f 717 719 720 541
f 720 544 542 541
f 720 719 721 722
f 720 722 723 544
f 723 547 545 544
f 723 722 724 725
f 723 725 726 547
f 726 550 548 547
f 726 725 727 728
f 726 728 729 550
f 729 553 551 550
f 729 728 730 731
f 729 731 732 553
f 732 556 554 553
f 732 731 733 734
f 732 734 735 556
f 735 559 557 556
f 735 734 736 737
f 735 737 738 559
f 738 562 560 559
f 738 737 739 740
f 738 740 741 562
f 741 565 563 562
f 741 740 742 743
f 741 743 744 565
f 744 568 566 565
f 744 743 745 746
f 744 746 747 568
f 747 571 569 568
f 747 746 748 749
f 747 749 577 571
f 749 748 750 751
f 749 751 578 577
f 751 750 752 753
f 751 753 579 578
f 753 752 754 755
f 753 755 581 579
f 755 754 756 757
f 755 757 583 581
f 757 756 758 759
f 757 759 585 583
f 759 758 760 761
f 759 761 587 585
f 761 760 762 763
f 761 763 764 587
f 764 590 588 587
f 764 763 765 766
f 764 766 592 590
f 766 765 613 767
f 766 767 594 592
f 767 613 611 610
f 767 610 596 594
f 765 763 762 616
f 765 616 614 613
f 762 760 768 619
f 762 619 617 616
f 768 760 758 769
f 768 769 770 622
f 768 622 620 619
f 770 769 771 772
f 770 772 773 625
f 770 625 623 622
f 773 772 774 775
f 773 775 776 628
f 773 628 626 625
f 776 775 777 778
f 776 778 779 631
f 776 631 629 628
f 779 778 780 781
f 779 781 782 634
f 779 634 632 631
f 782 781 783 784
f 782 784 785 637
f 782 637 635 634
f 785 784 786 787
f 785 787 788 789
f 785 789 638 637
f 789 788 790 791
f 789 791 639 638
f 791 790 22 792
f 791 792 641 639
f 792 22 19 793
f 792 793 643 641
f 793 19 18 794
f 793 794 645 643
f 794 18 795 796
f 794 796 647 645
f 796 795 797 798
f 796 798 649 647
f 798 797 799 800
f 798 800 651 649
f 800 799 801 802
f 800 802 803 651
f 803 654 652 651
f 803 802 49 51
f 803 51 658 654
f 802 801 50 49
f 801 799 804 805
f 801 805 669 50
f 805 804 674 672
f 805 672 670 669
f 804 799 797 806
f 804 806 676 674
f 806 797 795 807
f 806 807 808 676
f 808 807 17 16
f 808 16 809 679
f 808 679 677 676
f 809 16 15 810
f 809 810 811 682
f 809 682 680 679
f 811 810 812 813
f 811 813 814 685
f 811 685 683 682
f 814 813 815 816
f 814 816 817 688
f 814 688 686 685
f 817 816 818 819
f 817 819 693 691
f 817 691 689 688
f 819 818 820 821
f 819 821 695 693
f 821 820 822 823
f 821 823 697 695
f 823 822 824 825
f 823 825 826 697
f 826 825 827 828
f 826 828 829 700
f 826 700 698 697
f 829 828 57 68
f 829 68 70 703
f 829 703 701 700
f 828 827 52 57
f 827 830 53 52
f 827 825 824 830
f 830 831 832 53
f 830 824 833 831
f 833 834 835 831
f 833 824 822 836
f 833 836 837 834
f 837 838 839 834
f 837 836 840 841
f 837 841 842 838
f 842 843 844 838
f 842 841 845 846
f 842 846 847 843
f 847 848 849 843
f 847 846 850 851
f 847 851 852 848
f 852 853 854 848
f 852 851 13 21
f 852 21 855 853
f 855 856 857 853
f 855 21 20 858
f 855 858 859 856
f 859 860 861 856
f 859 858 790 788
f 859 788 787 860
f 861 862 863 864
f 861 864 857 856
f 861 860 865 862
f 865 866 867 862
f 865 860 787 786
f 865 786 868 866
f 868 869 870 866
f 868 786 784 783
f 868 783 871 869
f 871 872 873 869
f 871 783 781 780
f 871 780 874 872
f 874 875 876 872
f 874 780 778 777
f 874 777 877 875
f 877 878 879 875
f 877 777 775 774
f 877 774 880 878
f 880 754 752 878
f 880 774 772 771
f 880 771 756 754
f 879 750 748 881
f 879 881 876 875
f 879 878 752 750
f 881 748 746 745
f 881 745 882 876
f 882 745 743 742
f 882 742 883 873
f 882 873 872 876
f 883 742 740 739
f 883 739 884 870
f 883 870 869 873
f 884 739 737 736
f 884 736 885 867
f 884 867 866 870
f 885 736 734 733
f 885 733 886 863
f 885 863 862 867
f 886 733 731 730
f 886 730 887 888
f 886 888 864 863
f 888 887 889 890
f 888 890 857 864
f 890 889 891 854
f 890 854 853 857
f 891 889 892 893
f 891 893 894 849
f 891 849 848 854
f 894 893 895 896
f 894 896 897 844
f 894 844 843 849
f 897 896 898 899
f 897 899 900 839
f 897 839 838 844
f 900 899 901 902
f 900 902 903 835
f 900 835 834 839
f 903 902 904 905
f 903 905 906 832
f 903 832 831 835
f 906 905 907 908
f 906 908 55 54
f 906 54 53 832
f 908 907 709 909
f 908 909 69 55
f 909 709 707 706
f 909 706 70 69
f 907 712 710 709
f 907 905 904 712
f 904 715 713 712
f 904 902 901 715
f 901 718 716 715
f 901 899 898 718
f 898 721 719 718
f 898 896 895 721
f 895 724 722 721
f 895 893 892 724
f 892 727 725 724
f 892 889 887 727
f 887 730 728 727
f 858 20 22 790
f 851 850 14 13
f 850 846 845 910
f 850 910 812 14
f 910 845 911 815
f 910 815 813 812
f 911 845 841 840
f 911 840 820 818
f 911 818 816 815
f 840 836 822 820
f 812 810 15 14
f 807 795 18 17
f 771 769 758 756
f 706 704 703 70
f 669 667 46 50
f 667 665 47 46
f 661 659 48 47
f 659 658 51 48
f 610 608 598 596
f 577 574 572 571
f 483 480 477 476
f 479 275 271 270
f 479 270 74 73
f 388 385 383 382
f 381 25 24 45
f 369 365 363 362
f 270 266 265 74
f 206 204 39 38
f 202 201 35 39
f 198 196 30 29
f 194 193 31 30
f 180 179 26 28
f 179 178 27 26
g Group32638
f 1211 1210 1209 1208
f 912 918 917 916
f 1211 1213 1212 1210
f 912 916 920 919
f 1211 1208 1214 1213
f 912 919 921 918
f 1218 1217 1216 1215
f 922 925 1216 1217
f 913 926 925 922
f 1218 1213 1214 1219
f 913 923 921 919
f 1223 1222 1221 1220
f 914 929 928 927
f 1223 1208 1209 1222
f 914 927 917 918
f 1223 1220 1214 1208
f 914 918 921 929
f 1227 1226 1225 1224
f 930 933 932 931
f 1231 1230 1229 1228
f 915 936 935 934
f 1231 1228 1233 1232
f 915 938 937 936
f 1231 1232 1234 1230
f 915 934 939 938
f 1234 1237 1236 1235
f 939 942 941 940
f 1234 1235 1238 1230
f 939 934 943 942
f 1234 1232 1239 1237
f 939 940 944 938
f 1239 1241 1240 1237
f 944 940 946 945
f 1239 1232 1233 1242
f 944 947 937 938
f 1239 1242 1243 1241
f 944 945 948 947
f 1243 1245 1244 1241
f 948 945 950 949
f 1243 1242 1247 1246
f 948 952 951 947
f 1243 1246 1248 1245
f 948 949 953 952
f 1248 1250 1249 1245
f 953 949 955 954
f 1248 1246 1252 1251
f 953 957 956 952
f 1248 1251 1253 1250
f 953 954 958 957
f 1253 1255 1254 1250
f 958 954 960 959
f 1253 1251 1257 1256
f 961 962 1256 1257
f 958 962 961 957
f 1253 1256 1258 1255
f 962 963 1258 1256
f 958 959 963 962
f 1258 1260 1259 1255
f 963 964 1260 1258
f 963 959 965 964
f 1259 1263 1262 1261
f 965 968 967 966
f 1259 1261 1254 1255
f 965 959 960 968
f 1259 1260 1264 1263
f 964 969 1264 1260
f 965 966 969 964
f 1264 1266 1265 1263
f 969 970 1266 1264
f 969 966 971 970
f 1265 1269 1268 1267
f 971 974 973 972
f 1265 1267 1262 1263
f 971 966 967 974
f 1265 1266 1270 1269
f 970 975 1270 1266
f 971 972 975 970
f 1270 1272 1271 1269
f 975 976 1272 1270
f 975 972 977 976
f 1271 1275 1274 1273
f 977 980 979 978
f 1271 1273 1268 1269
f 977 972 973 980
f 1271 1272 1276 1275
f 976 981 1276 1272
f 977 978 981 976
f 1276 1278 1277 1275
f 981 982 1278 1276
f 981 978 983 982
f 1277 1281 1280 1279
f 983 986 985 984
f 1277 1279 1274 1275
f 983 978 979 986
f 1277 1278 1282 1281
f 982 987 1282 1278
f 983 984 987 982
f 1282 1284 1283 1281
f 987 988 1284 1282
f 987 984 989 988
f 1283 1287 1286 1285
f 989 992 991 990
f 1283 1285 1280 1281
f 989 984 985 992
f 1283 1284 1288 1287
f 988 993 1288 1284
f 989 990 993 988
f 1288 1290 1289 1287
f 993 994 1290 1288
f 993 990 995 994
f 1289 1293 1292 1291
f 995 998 997 996
f 1289 1291 1286 1287
f 995 990 991 998
f 1289 1290 1294 1293
f 994 999 1294 1290
f 995 996 999 994
f 1294 1296 1295 1293
f 999 1000 1296 1294
f 999 996 1001 1000
f 1295 1299 1298 1297
f 1001 1004 1003 1002
f 1295 1297 1292 1293
f 1001 996 997 1004
f 1295 1296 1300 1299
f 1000 1005 1300 1296
f 1001 1002 1005 1000
f 1300 1302 1301 1299
f 1005 1006 1302 1300
f 1005 1002 1007 1006
f 1301 1305 1304 1303
f 1007 1010 1009 1008
f 1301 1303 1298 1299
f 1007 1002 1003 1010
f 1301 1302 1306 1305
f 1006 1011 1306 1302
f 1007 1008 1011 1006
f 1306 1308 1307 1305
f 1011 1012 1308 1306
f 1011 1008 1013 1012
f 1307 1311 1310 1309
f 1013 1016 1015 1014
f 1307 1309 1304 1305
f 1013 1008 1009 1016
f 1307 1308 1312 1311
f 1012 1017 1312 1308
f 1013 1014 1017 1012
f 1312 1314 1313 1311
f 1017 1018 1314 1312
f 1017 1014 1019 1018
f 1313 1317 1316 1315
f 1019 1022 1021 1020
f 1313 1315 1310 1311
f 1019 1014 1015 1022
f 1313 1314 1318 1317
f 1018 1023 1318 1314
f 1019 1020 1023 1018
f 1318 1320 1319 1317
f 1023 1024 1320 1318
f 1023 1020 1025 1024
f 1319 1323 1322 1321
f 1025 1028 1027 1026
f 1319 1321 1316 1317
f 1025 1020 1021 1028
f 1319 1320 1324 1323
f 1024 1029 1324 1320
f 1025 1026 1029 1024
f 1324 1326 1325 1323
f 1029 1030 1326 1324
f 1029 1026 1031 1030
f 1325 1327 1220 1221
f 1031 928 929 1032
f 1325 1221 1322 1323
f 1031 1026 1027 928
f 1325 1326 1328 1327
f 1030 1033 1328 1326
f 1031 1032 1033 1030
f 1328 1329 1219 1327
f 1033 924 1329 1328
f 1033 1032 923 924
f 1327 1219 1214 1220
f 1032 929 921 923
f 1321 1322 1331 1330
f 1028 1035 1034 1027
f 1321 1330 1332 1316
f 1028 1021 1036 1035
f 1332 1330 1334 1333
f 1036 1038 1037 1035
f 1332 1333 1336 1335
f 1036 1040 1039 1038
f 1332 1335 1315 1316
f 1036 1021 1022 1040
f 1335 1336 1338 1337
f 1040 1042 1041 1039
f 1335 1337 1310 1315
f 1040 1022 1015 1042
f 1337 1338 1340 1339
f 1042 1044 1043 1041
f 1337 1339 1309 1310
f 1042 1015 1016 1044
f 1339 1340 1342 1341
f 1044 1046 1045 1043
f 1339 1341 1304 1309
f 1044 1016 1009 1046
f 1341 1342 1344 1343
f 1046 1048 1047 1045
f 1341 1343 1303 1304
f 1046 1009 1010 1048
f 1343 1344 1346 1345
f 1048 1050 1049 1047
f 1343 1345 1298 1303
f 1048 1010 1003 1050
f 1345 1346 1348 1347
f 1050 1052 1051 1049
f 1345 1347 1297 1298
f 1050 1003 1004 1052
f 1347 1348 1350 1349
f 1052 1054 1053 1051
f 1347 1349 1292 1297
f 1052 1004 997 1054
f 1349 1350 1352 1351
f 1054 1056 1055 1053
f 1349 1351 1291 1292
f 1054 997 998 1056
f 1351 1352 1354 1353
f 1056 1058 1057 1055
f 1351 1353 1286 1291
f 1056 998 991 1058
f 1353 1354 1356 1355
f 1058 1060 1059 1057
f 1353 1355 1285 1286
f 1058 991 992 1060
f 1355 1356 1358 1357
f 1060 1062 1061 1059
f 1355 1357 1280 1285
f 1060 992 985 1062
f 1357 1358 1360 1359
f 1062 1064 1063 1061
f 1357 1359 1279 1280
f 1062 985 986 1064
f 1359 1360 1362 1361
f 1064 1066 1065 1063
f 1359 1361 1274 1279
f 1064 986 979 1066
f 1361 1362 1364 1363
f 1066 1068 1067 1065
f 1361 1363 1273 1274
f 1066 979 980 1068
f 1363 1364 1366 1365
f 1068 1070 1069 1067
f 1363 1365 1268 1273
f 1068 980 973 1070
f 1365 1366 1368 1367
f 1070 1072 1071 1069
f 1365 1367 1267 1268
f 1070 973 974 1072
f 1367 1368 1370 1369
f 1072 1074 1073 1071
f 1367 1369 1262 1267
f 1072 974 967 1074
f 1369 1370 1372 1371
f 1074 1076 1075 1073
f 1369 1371 1261 1262
f 1074 967 968 1076
f 1371 1372 1374 1373
f 1076 1078 1077 1075
f 1371 1373 1254 1261
f 1076 968 960 1078
f 1373 1374 1375 1249
f 1078 955 1079 1077
f 1373 1249 1250 1254
f 1078 960 954 955
f 1375 1374 1377 1376
f 1079 1081 1080 1077
f 1375 1376 1378 1244
f 1079 950 1082 1081
f 1375 1244 1245 1249
f 1079 955 949 950
f 1378 1376 1380 1379
f 1082 1084 1083 1081
f 1378 1379 1381 1240
f 1082 946 1085 1084
f 1378 1240 1241 1244
f 1082 950 945 946
f 1381 1379 1383 1382
f 1085 1087 1086 1084
f 1381 1382 1384 1236
f 1085 941 1088 1087
f 1381 1236 1237 1240
f 1085 946 940 941
f 1384 1382 1386 1385
f 1089 1090 1385 1386
f 1088 1090 1089 1087
f 1384 1385 1388 1387
f 1090 1091 1388 1385
f 1088 1092 1091 1090
f 1384 1387 1235 1236
f 1088 941 942 1092
f 1387 1388 1390 1389
f 1091 1093 1390 1388
f 1092 1094 1093 1091
f 1387 1389 1238 1235
f 1092 942 943 1094
f 1389 1390 1392 1391
f 1093 1095 1392 1390
f 1094 1096 1095 1093
f 1389 1391 1393 1238
f 1094 943 1097 1096
f 1393 1391 1224 1225
f 1097 932 933 1096
f 1393 1225 1394 1229
f 1097 935 1098 932
f 1393 1229 1230 1238
f 1097 943 934 935
f 1394 1395 1228 1229
f 1098 935 936 1099
f 1394 1225 1226 1396
f 1098 1100 931 932
f 1394 1396 1397 1395
f 1098 1099 1101 1100
f 1397 1399 1398 1395
f 1101 1099 1103 1102
f 1397 1396 1401 1400
f 1104 1105 1400 1401
f 1101 1105 1104 1100
f 1397 1400 1402 1399
f 1105 1106 1402 1400
f 1101 1102 1106 1105
f 1402 1404 1403 1399
f 1106 1107 1404 1402
f 1106 1102 1108 1107
f 1403 1252 1246 1247
f 1108 951 952 956
f 1403 1247 1398 1399
f 1108 1102 1103 951
f 1403 1404 1405 1252
f 1107 1109 1405 1404
f 1108 956 1109 1107
f 1405 1257 1251 1252
f 1109 961 1257 1405
f 1109 956 957 961
f 1401 1396 1226 1406
f 1110 1104 1401 1406
f 1104 1110 931 1100
f 1406 1226 1227 1407
f 1111 1110 1406 1407
f 1110 1111 930 931
f 1407 1227 1224 1408
f 1112 1111 1407 1408
f 1111 1112 933 930
f 1408 1224 1391 1392
f 1095 1112 1408 1392
f 1112 1095 1096 933
f 1398 1247 1242 1233
f 1103 937 947 951
f 1398 1233 1228 1395
f 1103 1099 936 937
f 1386 1382 1383 1409
f 1113 1089 1386 1409
f 1089 1113 1086 1087
f 1409 1383 1411 1410
f 1115 1113 1409 1410
f 1113 1115 1114 1086
f 1410 1411 1413 1412
f 1117 1115 1410 1412
f 1115 1117 1116 1114
f 1412 1413 1415 1414
f 1119 1117 1412 1414
f 1117 1119 1118 1116
f 1414 1415 1417 1416
f 1121 1119 1414 1416
f 1119 1121 1120 1118
f 1416 1417 1419 1418
f 1123 1121 1416 1418
f 1121 1123 1122 1120
f 1418 1419 1421 1420
f 1125 1123 1418 1420
f 1123 1125 1124 1122
f 1420 1421 1423 1422
f 1127 1125 1420 1422
f 1125 1127 1126 1124
f 1422 1423 1425 1424
f 1129 1127 1422 1424
f 1127 1129 1128 1126
f 1424 1425 1427 1426
f 1131 1129 1424 1426
f 1129 1131 1130 1128
f 1426 1427 1429 1428
f 1133 1131 1426 1428
f 1131 1133 1132 1130
f 1428 1429 1431 1430
f 1135 1133 1428 1430
f 1133 1135 1134 1132
f 1430 1431 1433 1432
f 1137 1135 1430 1432
f 1135 1137 1136 1134
f 1432 1433 1435 1434
f 1139 1137 1432 1434
f 1137 1139 1138 1136
f 1434 1435 1437 1436
f 1141 1139 1434 1436
f 1139 1141 1140 1138
f 1436 1437 1439 1438
f 1143 1141 1436 1438
f 1141 1143 1142 1140
f 1438 1439 1441 1440
f 1145 1143 1438 1440
f 1143 1145 1144 1142
f 1440 1441 1443 1442
f 1147 1145 1440 1442
f 1145 1147 1146 1144
f 1442 1443 1445 1444
f 1149 1147 1442 1444
f 1147 1149 1148 1146
f 1444 1445 1447 1446
f 1151 1149 1444 1446
f 1149 1151 1150 1148
f 1446 1447 1449 1448
f 1153 1151 1446 1448
f 1151 1153 1152 1150
f 1448 1449 1451 1450
f 1155 1153 1448 1450
f 1153 1155 1154 1152
f 1450 1451 1453 1452
f 1157 1155 1450 1452
f 1155 1157 1156 1154
f 1452 1453 1455 1454
f 1159 1157 1452 1454
f 1157 1159 1158 1156
f 1454 1455 1457 1456
f 1161 1159 1454 1456
f 1159 1161 1160 1158
f 1456 1457 1215 1216
f 925 1161 1456 1216
f 1161 925 926 1160
f 1457 1455 1459 1458
f 1160 1163 1162 1158
f 1457 1458 1212 1215
f 1160 926 920 1163
f 1458 1459 1461 1460
f 1163 1165 1164 1162
f 1458 1460 1210 1212
f 1163 920 916 1165
f 1460 1461 1334 1462
f 1165 1166 1037 1164
f 1460 1462 1209 1210
f 1165 916 917 1166
f 1462 1334 1330 1331
f 1166 1034 1035 1037
f 1462 1331 1222 1209
f 1166 917 927 1034
f 1461 1459 1464 1463
f 1164 1168 1167 1162
f 1461 1463 1333 1334
f 1164 1037 1038 1168
f 1463 1464 1466 1465
f 1168 1170 1169 1167
f 1463 1465 1336 1333
f 1168 1038 1039 1170
f 1465 1466 1468 1467
f 1170 1172 1171 1169
f 1465 1467 1338 1336
f 1170 1039 1041 1172
f 1467 1468 1470 1469
f 1172 1174 1173 1171
f 1467 1469 1340 1338
f 1172 1041 1043 1174
f 1469 1470 1472 1471
f 1174 1176 1175 1173
f 1469 1471 1342 1340
f 1174 1043 1045 1176
f 1471 1472 1474 1473
f 1176 1178 1177 1175
f 1471 1473 1344 1342
f 1176 1045 1047 1178
f 1473 1474 1476 1475
f 1178 1180 1179 1177
f 1473 1475 1346 1344
f 1178 1047 1049 1180
f 1475 1476 1478 1477
f 1180 1182 1181 1179
f 1475 1477 1348 1346
f 1180 1049 1051 1182
f 1477 1478 1480 1479
f 1182 1184 1183 1181
f 1477 1479 1350 1348
f 1182 1051 1053 1184
f 1479 1480 1482 1481
f 1184 1186 1185 1183
f 1479 1481 1352 1350
f 1184 1053 1055 1186
f 1481 1482 1484 1483
f 1186 1188 1187 1185
f 1481 1483 1354 1352
f 1186 1055 1057 1188
f 1483 1484 1486 1485
f 1188 1190 1189 1187
f 1483 1485 1356 1354
f 1188 1057 1059 1190
f 1485 1486 1488 1487
f 1190 1192 1191 1189
f 1485 1487 1358 1356
f 1190 1059 1061 1192
f 1487 1488 1490 1489
f 1192 1194 1193 1191
f 1487 1489 1360 1358
f 1192 1061 1063 1194
f 1489 1490 1492 1491
f 1194 1196 1195 1193
f 1489 1491 1362 1360
f 1194 1063 1065 1196
f 1491 1492 1494 1493
f 1196 1198 1197 1195
f 1491 1493 1364 1362
f 1196 1065 1067 1198
f 1493 1494 1496 1495
f 1198 1200 1199 1197
f 1493 1495 1366 1364
f 1198 1067 1069 1200
f 1495 1496 1498 1497
f 1200 1202 1201 1199
f 1495 1497 1368 1366
f 1200 1069 1071 1202
f 1497 1498 1500 1499
f 1202 1204 1203 1201
f 1497 1499 1370 1368
f 1202 1071 1073 1204
f 1499 1500 1502 1501
f 1204 1206 1205 1203
f 1499 1501 1372 1370
f 1204 1073 1075 1206
f 1501 1502 1503 1377
f 1206 1080 1207 1205
f 1501 1377 1374 1372
f 1206 1075 1077 1080
f 1503 1502 1415 1413
f 1207 1116 1118 1205
f 1503 1413 1411 1380
f 1207 1083 1114 1116
f 1503 1380 1376 1377
f 1207 1080 1081 1083
f 1502 1500 1417 1415
f 1205 1118 1120 1203
f 1500 1498 1419 1417
f 1203 1120 1122 1201
f 1498 1496 1421 1419
f 1201 1122 1124 1199
f 1496 1494 1423 1421
f 1199 1124 1126 1197
f 1494 1492 1425 1423
f 1197 1126 1128 1195
f 1492 1490 1427 1425
f 1195 1128 1130 1193
f 1490 1488 1429 1427
f 1193 1130 1132 1191
f 1488 1486 1431 1429
f 1191 1132 1134 1189
f 1486 1484 1433 1431
f 1189 1134 1136 1187
f 1484 1482 1435 1433
f 1187 1136 1138 1185
f 1482 1480 1437 1435
f 1185 1138 1140 1183
f 1480 1478 1439 1437
f 1183 1140 1142 1181
f 1478 1476 1441 1439
f 1181 1142 1144 1179
f 1476 1474 1443 1441
f 1179 1144 1146 1177
f 1474 1472 1445 1443
f 1177 1146 1148 1175
f 1472 1470 1447 1445
f 1175 1148 1150 1173
f 1470 1468 1449 1447
f 1173 1150 1152 1171
f 1468 1466 1451 1449
f 1171 1152 1154 1169
f 1466 1464 1453 1451
f 1169 1154 1156 1167
f 1464 1459 1455 1453
f 1167 1156 1158 1162
f 1411 1383 1379 1380
f 1114 1083 1084 1086
f 1331 1322 1221 1222
f 1034 927 928 1027
f 1218 1215 1212 1213
f 913 919 920 926
f 1329 1217 1218 1219
f 924 922 1217 1329
f 924 923 913 922

 