# File exported by ZBrush version 2021
# www.zbrush.com
#Vertex Count 1406
#Face Count 1404
#Auto scale x=0.047110 y=0.047110 z=0.047110
#Auto offset x=-0.029091 y=0.022900 z=-0.434581
v 0.00655123 -1.42116995 -5.93584038
v 0.19682782 -1.42753808 -4.45009586
v -0.94869487 -1.40584443 -4.24402558
v -1.17879296 -1.39529477 -5.63849638
v 1.88741101 -0.80657066 23.86089033
v 2.83217123 -0.88472761 23.06654288
v 3.22756195 -0.82537774 23.9157411
v 1.65325878 -0.67027371 25.36951875
v -0.44901724 -1.2938946 2.38234963
v 0.84674843 -1.31539721 2.28581009
v 0.86296567 -1.29414922 3.64653007
v -0.45137338 -1.26871939 3.72475059
v 0.69347007 -1.35487881 -0.41841411
v 0.7877593 -1.33594458 0.92753197
v -0.48064511 -1.31853873 1.03381428
v -0.54054701 -1.34042343 -0.30593353
v 4.71254276 -1.23632741 17.74629181
v 4.2479528 -1.14051 19.73901661
v 2.84059818 -1.07941951 20.07272283
v 3.18264611 -1.18529853 17.9650547
v 3.60369977 -1.00731218 21.74528489
v 2.45134216 -0.93669085 22.2856535
v 2.05261887 -1.35653465 0.84260392
v 3.27997071 -1.38092416 0.77550589
v 3.4215107 -1.35579166 2.15119018
v 2.15026183 -1.33556249 2.20894841
v 4.637676 -1.05725867 21.70813697
v 1.74400317 -1.39714134 -1.84603982
v 2.8927735 -1.4210001 -1.93037384
v 3.10262123 -1.40121691 -0.59608163
v 1.91619452 -1.37527783 -0.51236313
v 0.71575816 -0.78649015 24.24258986
v 0.48631822 -0.64301849 25.92863023
v 0.56275575 -1.37723069 -1.7465498
v -0.66336494 -0.65299533 26.08819255
v -0.56805685 -0.79973567 24.31514349
v -1.87331085 -0.84904544 23.98668032
v -1.94051484 -0.69835669 25.76291392
v -0.63320179 -1.36277532 -1.62141898
v -3.07062701 -0.95012709 23.11133141
v -3.44341122 -0.85174129 24.49627137
v -4.72444525 -1.16063289 21.68117908
v -3.76813791 -1.0941507 21.52185209
v 2.20039953 -1.31299868 3.57554784
v 1.38045255 -1.05539059 20.18785594
v 1.66905148 -1.15982632 18.02650609
v 1.04600393 -0.9249522 22.3493342
v -1.88555874 -1.22732732 7.71489113
v -2.98385207 -1.23108437 7.51427709
v -2.91348535 -1.20508172 6.2489929
v -1.80935465 -1.210537 6.37134404
v -0.76748223 -1.38831111 -2.92225771
v -1.9122832 -1.37816473 -2.74272147
v -2.05862056 -1.38748334 -3.96423641
v -0.36154184 -0.93662695 22.32785215
v -0.09873341 -1.05840496 20.13402492
v 0.15957489 -1.1551988 17.93973147
v -1.5300956 -1.08580852 19.9340264
v -1.30647176 -1.17084284 17.74134609
v -1.72627318 -0.97619364 22.08813859
v -2.84345835 -1.13490605 19.63509076
v -2.91095936 -1.03908864 21.68570095
v 3.08553374 -1.46041843 -5.51387418
v 3.43293083 -1.46780506 -4.4990014
v 2.39156765 -1.46018469 -4.52243567
v 2.17970333 -1.4558333 -5.83613781
v -2.69945594 -1.20641905 17.46387036
v -1.71695473 -1.30622726 1.16558999
v -1.69636466 -1.27181853 2.50820288
v -2.86082182 -1.20308647 5.11058126
v -1.7407711 -1.21437913 5.09107389
v 5.00228789 -1.29684507 15.83599056
v 3.42306027 -1.25700226 15.98228523
v -2.85782864 -1.2633492 2.68139218
v -2.88644238 -1.30185437 1.32657378
v 3.51843202 -1.32739016 3.516346
v 4.02129371 -1.45337088 -2.03907587
v 4.25058508 -1.43791789 -0.69552926
v 1.88826013 -1.2331435 16.00584729
v 0.37610895 -1.22327295 15.90355546
v -3.00788067 -1.37884384 -2.60268898
v -3.04591898 -1.37332498 -3.76264625
v 0.39381205 -1.40580173 -3.07572676
v -1.09144488 -1.22887689 15.71149615
v -2.50886111 -1.2511013 15.45562836
v 1.31781242 -1.44672693 -4.5363606
v 1.12745098 -1.44288511 -5.98973465
v -3.02256948 -1.35954871 -4.73349342
v -2.33138401 -1.37317631 -5.13077405
v 0.83222934 -1.27574544 5.00962676
v -0.4950581 -1.24919083 5.06016758
v -3.48352954 -1.30421051 11.81473164
v -3.25899316 -1.28886379 10.33278616
v -2.049493 -1.27415348 10.57256353
v -2.16747125 -1.28353567 12.07183017
v 4.45455289 -1.41429257 0.72615373
v 4.63674196 -1.37962922 2.11947762
v -2.92834401 -1.34519961 -0.07294837
v -1.7569459 -1.33585981 -0.18158714
v 3.58043535 -1.31771096 12.34813874
v 5.11850433 -1.35555823 12.17781515
v 5.12440529 -1.33520158 13.98058184
v 3.54974161 -1.29922241 14.11486236
v 3.56330532 -1.30179079 4.85823771
v 2.19940175 -1.29285428 4.93970603
v -1.69940022 -1.23615756 3.81914559
v 2.07049174 -1.29542266 12.41341075
v 2.01997211 -1.27672186 14.14366683
v 0.52244615 -1.26400711 14.06096746
v -4.03648639 -1.20419006 19.30338042
v -4.05168476 -1.26235158 17.1167706
v 0.59574212 -1.28151923 12.37533006
v -0.81711036 -1.27657352 12.25750047
v -0.92388088 -1.26290352 13.89754276
v -2.32208691 -1.27587291 13.67372787
v 1.53876168 -1.42492732 -3.17424003
v 3.53880985 -1.30215169 9.0865
v 4.98885133 -1.32265668 8.84689246
v 5.05142781 -1.35052742 10.45615603
v 3.5601638 -1.31607631 10.67156501
v 4.95686264 -1.2927907 7.37078423
v 3.54358571 -1.28852409 7.59725243
v -3.92398461 -1.28907603 15.13780056
v -3.71759708 -1.3024914 13.38971415
v 2.64964245 -1.44358541 -3.22930209
v 2.07756033 -1.28799333 9.2287829
v 2.07526776 -1.29627193 10.78300543
v 2.10806318 -1.2802031 7.74242217
v 0.62450437 -1.28243209 10.79546556
v 0.64719576 -1.27462066 9.27915398
v 0.69582625 -1.26676654 7.81204604
v -0.7074954 -1.2615023 9.24527609
v -0.75470374 -1.2740899 10.72444094
v -0.64680812 -1.24800216 7.80688792
v 4.78974447 -1.33938343 3.4891338
v -1.96082878 -1.25152578 9.12167272
v -2.83859741 -1.22127771 3.95414792
v 4.93754632 -1.28313238 6.03402976
v 3.56241398 -1.28703809 6.19881298
v 3.74468782 -1.46447249 -3.28943766
v 4.89218464 -1.30219408 4.78489933
v 2.1586252 -1.28069147 6.31783155
v 0.76651132 -1.26595996 6.39097888
v -3.08828748 -1.26065334 8.89448283
v -0.56903327 -1.24188897 6.41250268
v -2.97113731 -1.37092645 -1.39083268
v -1.81875819 -1.35903946 -1.48743547
v 6.28807691 -1.30652427 17.39144452
v 5.67999441 -1.22896198 19.30425025
v -3.92005771 -1.27135167 7.1934985
v -3.83856819 -1.23779221 6.02008363
v 3.59805344 -1.44375526 -6.15494235
v 4.47928211 -1.46699849 -4.66974946
v -3.80430844 -1.24331107 5.10907407
v 6.63502801 -1.34424438 15.57626008
v -3.91878427 -1.30692755 2.91030145
v -3.97978999 -1.31938769 1.52294241
v 5.15998149 -1.49839285 -2.21307174
v 5.37481748 -1.49087875 -0.83904298
v -4.08397078 -1.39323563 -2.5289258
v -4.02897229 -1.35869975 -3.76850418
v -3.63457919 -1.32851525 -5.25543801
v -4.82087851 -1.33787624 11.4815353
v -4.41455603 -1.33953209 10.01149808
v 5.57649273 -1.46394205 0.70305917
v 5.7823922 -1.41138448 2.1184161
v -4.05431703 -1.37527783 -0.01260088
v 6.66977644 -1.41191523 11.89293097
v 6.745068 -1.37909878 13.73634673
v -5.29956294 -1.30834997 18.90070871
v -5.476403 -1.33987148 16.68767176
v 6.3854654 -1.3552609 8.5095994
v 6.51893903 -1.40758504 10.12932775
v 6.29949735 -1.29484952 7.06531013
v -5.42698695 -1.33554129 14.7565255
v -5.18425903 -1.33106244 13.04231707
v 5.99351321 -1.35148266 3.51866007
v -3.83001377 -1.26035633 4.14124064
v 6.23946806 -1.26593877 5.82290843
v 4.85890132 -1.48945665 -3.40147226
v 6.15526119 -1.29336384 4.74526876
v -4.08751559 -1.30387112 8.56219928
v -4.10241663 -1.40440082 -1.37013632
v 2.14866987 -1.42842974 -7.23353758
v 1.01339963 -1.41361347 -7.59318193
v -0.13396983 -1.38682511 -7.59872229
v -1.45662975 -1.35577046 -7.17002769
v -2.92966015 -1.33254843 -6.20783964
v -1.05737586 -1.40459187 -4.92640169
v -0.37570005 -1.41662752 -4.36064531
v 0.09725315 -1.42832346 -5.17269688
v -0.57996503 -1.40824295 -5.81911437
v -0.47869225 -1.41647886 -5.07023488
v 2.41924719 -0.73270153 24.75551348
v 3.02333936 -0.85645358 23.47439437
v 2.37961693 -0.83594859 23.55061965
v 1.75794913 -0.73991862 24.61244448
v 2.3924378 -0.78729673 24.12686211
v 0.20018166 -1.28249566 3.6844194
v 0.86069441 -1.30467769 2.9660638
v 0.19534194 -1.30484755 2.33115089
v -0.44528138 -1.28100967 3.05466413
v 0.20315341 -1.29349099 3.00805053
v -0.50696628 -1.32968272 0.3617117
v 0.15180589 -1.32673225 0.97771221
v 0.74496617 -1.34534796 0.25245741
v 0.07613252 -1.3466641 -0.36434904
v 0.11801288 -1.33672996 0.30452661
v 3.02285114 -1.13679533 19.00467758
v 3.54606933 -1.10559202 19.92683114
v 4.50369281 -1.19357682 18.72779587
v 3.94307319 -1.20779876 17.87488362
v 3.76067157 -1.1612908 18.88837605
v 3.08854795 -0.98056653 21.87616863
v 3.94071705 -1.07576842 20.78763895
v 2.63905025 -1.01289462 21.16244054
v 3.30053959 -1.04040446 20.98672525
v 2.79150081 -1.34547543 2.1773415
v 3.35581389 -1.36895208 1.46393161
v 2.67214268 -1.36803955 0.80700653
v 2.10687436 -1.34636709 1.52510719
v 2.73724516 -1.35719256 1.49197253
v 3.97164423 -0.94053267 22.87698869
v 3.25829824 -0.94303747 22.4892389
v 4.12061356 -1.03263573 21.70618475
v 3.60098273 -0.94244314 22.66185569
v 2.5143855 -1.38729229 -0.55413792
v 3.00183659 -1.41085372 -1.26835438
v 2.32211364 -1.40837042 -1.88802717
v 1.83440784 -1.38548778 -1.1812818
v 2.42243126 -1.39729001 -1.22433003
v 1.03619719 -0.64590539 25.73013984
v 1.32528429 -0.79120244 24.08899302
v 0.59319491 -0.71510463 25.10893931
v 1.16962851 -0.71922258 24.9234591
v 1.15663774 -1.38667645 -1.79932057
v 0.63280402 -1.36530131 -1.08393632
v 1.30802695 -1.36443085 -0.46744744
v 1.23683239 -1.37476827 -1.13488011
v -0.07816469 -0.64507763 26.05486684
v 0.08141798 -0.78914362 24.32219073
v -0.62343743 -0.72703401 25.2288701
v -0.00559046 -0.71748196 25.21568785
v -1.27535338 -0.66766294 26.00746691
v -1.22288089 -0.81886094 24.21060149
v -1.91200722 -0.77551601 24.89372027
v -1.25690736 -0.74452494 25.13360463
v -0.03484091 -1.36899479 -1.68662679
v -0.58227879 -1.35124923 -0.9665524
v 0.02537937 -1.35723495 -1.02740914
v 1.42294852 -1.34585752 0.88261628
v 0.82210418 -1.32588329 1.60581132
v 1.50021389 -1.32558597 2.24509744
v 1.46680301 -1.33596577 1.56297564
v -2.68506414 -0.75437431 25.30619864
v -2.50930678 -0.89283635 23.62431829
v -3.24398584 -0.90249436 23.80020313
v -2.59444738 -0.82561117 24.47512966
v -4.14981625 -1.00650561 23.19655742
v -3.49770909 -1.02096098 22.42636542
v -4.23130545 -1.12554506 21.59147549
v -3.80031765 -1.01391375 22.79344036
v 2.18174112 -1.32426983 2.89257708
v 1.53162952 -1.30423202 3.61008372
v 1.52211994 -1.31484526 2.92751593
v 1.5320328 -1.1113655 19.09520925
v 2.11653252 -1.06330829 20.15610162
v 2.42538173 -1.16961179 18.01546838
v 2.27972379 -1.12055696 19.07239051
v 1.74355734 -0.92877314 22.30554265
v 1.21679434 -0.99226247 21.28736007
v 1.93884349 -0.99788729 21.25596508
v -2.38298635 -1.20308647 6.32311698
v -2.94591972 -1.21626809 6.86473863
v -2.45530591 -1.22475894 7.63030248
v -1.84737177 -1.21707498 7.03459504
v -2.41796822 -1.21210776 6.9648652
v -1.97660029 -1.38491464 -3.35831838
v -1.34448888 -1.38209164 -2.83170389
v -0.85207072 -1.39941272 -3.57784546
v -1.51527933 -1.39608015 -4.10507611
v -1.42124476 -1.39134635 -3.46789087
v 0.63925696 -1.05377744 20.18038485
v -0.23299266 -1.00001001 21.24569155
v 0.34180652 -0.92743581 22.36155995
v 0.49028763 -0.99292039 21.28627705
v 0.91176598 -1.15498656 17.99969687
v 0.03346677 -1.11024073 19.02480016
v 0.78077569 -1.10794816 19.07818581
v -1.41978011 -1.13163706 18.82734914
v -0.8250279 -1.06916686 20.05022228
v -0.58130236 -1.16048423 17.85214964
v -0.70225236 -1.1182005 18.93961717
v -1.05629332 -0.95290803 22.2358775
v -1.6328543 -1.03348469 21.03365706
v -0.94515006 -1.01365881 21.15959635
v 1.98898103 -1.36589565 0.16288097
v 1.37000901 -1.35509105 0.20546171
v -2.35515799 -1.00633575 21.89083624
v -2.20451194 -1.10796935 19.79168047
v -2.88189995 -1.08835571 20.71338867
v -2.28271127 -1.05914795 20.87604949
v 2.26928024 -1.46111873 -5.17182641
v 2.91378806 -1.46493967 -4.49662406
v 3.24726037 -1.46536415 -5.07713282
v 2.69445202 -1.45980259 -5.67050627
v 2.77035894 -1.46485459 -5.09328706
v -2.78062693 -1.17417573 18.54068164
v -2.01170932 -1.18616868 17.61112026
v -2.11262143 -1.15035905 18.69268684
v 3.19546698 -1.39147382 0.08705866
v 2.59772175 -1.37782502 0.12399339
v -1.08112865 -1.28251685 2.44053234
v -0.46105281 -1.30650308 1.70803925
v -1.10507233 -1.31172493 1.09634806
v -1.70417624 -1.28952171 1.83947526
v -1.08995889 -1.29756656 1.76942738
v -2.32155615 -1.20323514 5.10300326
v -2.88442595 -1.2011972 5.67181639
v -1.77290846 -1.20990028 5.72622055
v -2.3500848 -1.20041181 5.7070317
v 3.31667168 -1.22516223 16.95773967
v 4.87887555 -1.27012062 16.78285246
v 4.20575416 -1.27536334 15.92427269
v 4.09176639 -1.24547617 16.8871604
v -2.31157963 -1.30193945 1.24168749
v -2.87098938 -1.28258075 2.01268606
v -2.28990717 -1.26286082 2.58771835
v -2.29882217 -1.28268671 1.91967014
v 2.86360797 -1.32064025 3.54351644
v 3.47619067 -1.34167599 2.83609228
v 2.83399677 -1.33307919 2.86154331
v 3.68077433 -1.41766752 -0.64146481
v 4.14065168 -1.44636635 -1.37979433
v 3.45755377 -1.43568922 -1.97821913
v 3.57340931 -1.42685866 -1.3177698
v 1.78866423 -1.20032705 16.99558662
v 2.65193486 -1.24312002 16.01017748
v 2.55021633 -1.21034595 16.99431318
v 1.12834248 -1.22641447 15.96859436
v 0.27506961 -1.19279144 16.89713724
v 1.02868289 -1.19440458 16.96147521
v -2.56110017 -1.38018117 -3.84224585
v -3.0314848 -1.37754921 -3.18922648
v -2.46483676 -1.37680621 -2.66490456
v -2.5092005 -1.38026625 -3.26290488
v -0.18659098 -1.39648343 -3.00476603
v 0.29710299 -1.41894128 -3.75368854
v -0.27744141 -1.40887967 -3.67459756
v -1.19528612 -1.20306528 16.69957995
v -0.36419515 -1.22405833 15.81661067
v -0.4671237 -1.19565714 16.80849453
v -2.60671647 -1.2316787 16.43174071
v -1.80459998 -1.23789817 15.59080054
v -1.9070827 -1.21507943 16.57355652
v 0.57608615 -1.43292979 -5.99049884
v 0.76235088 -1.43770565 -4.50783258
v 1.21473537 -1.44842517 -5.24605645
v 0.66273374 -1.43912775 -5.23003
v -2.75097319 -1.36525893 -4.90396567
v -3.03742845 -1.36657475 -4.31931713
v -2.16320464 -1.38381106 -4.55756684
v -2.61972823 -1.37559635 -4.39524509
v 0.16093337 -1.26385844 5.0374975
v 0.853074 -1.28419389 4.32695333
v -0.46837602 -1.25778764 4.39201342
v 0.18570501 -1.27228571 4.35998202
v -2.10417297 -1.28086132 11.31384399
v -2.66334929 -1.27793204 10.46434955
v -3.36714356 -1.29860688 11.06646752
v -2.82577637 -1.2920477 11.95361817
v -2.74016891 -1.28697452 11.20110878
v 4.03778703 -1.36689327 2.13144969
v 4.54873597 -1.39809658 1.42659392
v 3.87446829 -1.39582521 0.7478262
v 3.96047904 -1.38217641 1.44145258
v -2.34891733 -1.33813087 -0.12259786
v -2.90633184 -1.32416387 0.62458371
v -1.73453044 -1.32178653 0.48960258
v -2.32853981 -1.32097964 0.5571466
v 4.33077965 -1.3157793 14.06149822
v 5.13355404 -1.348065 13.07124901
v 4.3467634 -1.33428905 12.27724127
v 3.57459798 -1.31121536 13.21981504
v 4.34933178 -1.32777225 13.15946755
v 5.08248246 -1.31832649 14.90190795
v 3.50007093 -1.28143446 15.03491472
v 4.28425081 -1.29856418 14.98254819
v 2.88370983 -1.29833075 4.89945993
v 3.54730038 -1.31374136 4.18951009
v 2.20589719 -1.30227916 4.25722333
v 2.87988889 -1.30875326 4.22202954
v -1.13043843 -1.23121184 5.07740389
v -1.08607453 -1.25226878 3.76849849
v -1.71559621 -1.22316698 4.45756157
v -1.10365023 -1.24014836 4.42353493
v -1.69383882 -1.25318163 3.16865222
v -1.07915461 -1.26689401 3.10713694
v 2.780378 -1.28648646 14.14322116
v 2.82168515 -1.30510217 12.39403085
v 2.05353156 -1.28877871 13.26420029
v 2.80981951 -1.29854299 13.25549721
v 1.96518586 -1.25838197 15.05590776
v 2.72826626 -1.26825253 15.06025946
v 1.26616777 -1.26910149 14.11475609
v 0.4587659 -1.24683469 14.95913479
v 1.20751828 -1.2511013 15.0205438
v -3.37255614 -1.23155155 17.30084895
v -4.06834793 -1.23868355 18.1877657
v -3.44249837 -1.16579116 19.4755082
v -3.42400981 -1.20291662 18.37532528
v 1.32706729 -1.28748408 12.4060877
v 0.56683129 -1.27529976 13.20177248
v 1.30460945 -1.2809249 13.24496874
v -0.20749933 -1.26184201 13.98760789
v -0.11894131 -1.27776218 12.3252561
v -0.86353323 -1.27205228 13.05991396
v -0.15576968 -1.27222182 13.13930196
v -1.00038214 -1.24866039 14.77849529
v -0.27729282 -1.24594335 14.87734827
v -1.62703811 -1.26753072 13.79257659
v -2.41280994 -1.26572653 14.53733813
v -1.7104169 -1.25524045 14.66480453
v 0.96986358 -1.41537528 -3.13178708
v 1.42778828 -1.4378967 -3.84795576
v 0.86651054 -1.42872675 -3.81089388
v -1.49897722 -1.27846248 12.17282705
v -2.24017292 -1.28188014 12.85505449
v -1.55690499 -1.27521499 12.96486074
v 1.51367164 -1.28536137 4.97674672
v 1.52840307 -1.29414922 4.29245983
v 4.3072818 -1.33070154 10.57801881
v 5.01714655 -1.33832191 9.63610298
v 4.26869154 -1.3111094 8.9796021
v 3.54732157 -1.30989954 9.8674109
v 4.28556663 -1.32204116 9.76541636
v 3.53813043 -1.29448893 8.32993617
v 4.9695989 -1.30646069 8.09130509
v 4.25703798 -1.29107127 7.49470614
v 4.25988249 -1.30005017 8.22259251
v 5.0881076 -1.35632241 11.30495002
v 3.57338812 -1.3189844 11.49883519
v 4.33018531 -1.33503204 11.41624194
v -3.01439715 -1.28816318 13.54048767
v -3.82725434 -1.29714208 14.23668243
v -3.20974696 -1.26848596 15.30561903
v -3.11333521 -1.2802458 14.39558589
v 2.09781053 -1.43418203 -3.20457351
v 2.52011676 -1.45360463 -3.87542353
v 1.86021961 -1.45415626 -4.53848363
v 1.97804928 -1.44609022 -3.86682641
v 2.81523224 -1.3049747 10.74008498
v 2.80689022 -1.29467998 9.16953905
v 2.07431252 -1.29266323 9.99725495
v 2.8089492 -1.30043227 9.94478238
v 2.08921373 -1.28351447 8.47752578
v 2.82559086 -1.28493689 7.6796548
v 2.81291849 -1.28909723 8.41480072
v 2.0758409 -1.29756656 11.58771149
v 2.82147291 -1.30688517 11.55631713
v 1.34319963 -1.28873632 10.80077234
v 0.6133391 -1.28359956 11.57550614
v 1.3381689 -1.28975514 11.59320932
v 1.39607548 -1.27413229 7.78655263
v 0.6679343 -1.27022658 8.53982629
v 1.35561729 -1.2812858 9.26499574
v 1.37215292 -1.27718904 8.51902405
v 0.63420499 -1.27907832 10.03089933
v 1.34742378 -1.28553122 10.02546524
v -3.94190003 -1.15558089 20.44977271
v -3.361582 -1.07012209 21.52420792
v -3.41808767 -1.1189223 20.57176327
v -0.07515048 -1.27742247 10.76992977
v -0.04139997 -1.2679979 9.27284964
v -0.73124811 -1.26852834 9.97980656
v -0.05931539 -1.27332572 10.01576462
v -0.679561 -1.25432791 8.52106184
v 0.01353485 -1.25810615 7.81936925
v -0.01709535 -1.2626062 8.5409513
v -0.78206491 -1.27704038 11.48181128
v -0.09353291 -1.27920548 11.53806217
v -1.41307259 -1.27296481 10.65876532
v -1.45191747 -1.27759233 11.40702945
v -1.78488022 -1.38338658 -5.39235048
v -1.63054054 -1.39359653 -4.74512579
v 4.16204833 -1.33352486 3.49647773
v 4.71825267 -1.35973975 2.81019591
v 4.10571251 -1.35035757 2.81794344
v -1.92268435 -1.23908684 8.41189271
v -1.3483734 -1.25532553 9.19528709
v -1.28129687 -1.23643369 7.7728401
v -1.31606635 -1.24547617 8.47867206
v -2.00243325 -1.26379487 9.84240578
v -1.37966164 -1.26502592 9.92228207
v -3.60165645 -1.30520845 12.58562362
v -2.91781555 -1.29228113 12.72981677
v -2.84498673 -1.24110359 3.3310581
v -2.28665937 -1.22348519 3.88019401
v -2.28460055 -1.24197374 3.24239388
v 3.55309537 -1.28584943 6.88819409
v 4.94792612 -1.28461837 6.68679482
v 4.2573353 -1.28671989 6.12254531
v 4.25775978 -1.28640137 6.79647344
v 3.19671938 -1.45354074 -3.25494416
v 3.59578239 -1.46735939 -3.90070501
v 3.05664403 -1.46071544 -3.88174959
v 1.65975414 -1.45035683 -5.94046726
v 1.75056219 -1.45568464 -5.22476545
v 4.35523305 -1.42741061 0.0126167
v 3.78119807 -1.40749996 0.05031498
v 3.56706237 -1.29262084 5.52505487
v 4.92043748 -1.2895429 5.40705511
v 4.23489865 -1.30321289 4.8184376
v 4.25096717 -1.29266323 5.46750919
v 2.13251627 -1.27912071 7.02309014
v 2.86142169 -1.28495808 6.26397903
v 2.84312418 -1.28338732 6.9636128
v 1.45835479 -1.27438691 6.36045467
v 0.72985272 -1.26519577 7.09598285
v 1.42606885 -1.2730499 7.06736911
v 0.80200245 -1.26956867 5.69654561
v 2.18227187 -1.28546733 5.62494785
v 1.48892131 -1.27863233 5.66479035
v -2.54174114 -1.25226878 9.02239522
v -3.16540442 -1.27561828 9.60869926
v -2.59744024 -1.26591758 9.73852208
v 2.87625915 -1.29015842 5.57799422
v -3.02957433 -1.24585826 8.19402131
v -2.49550932 -1.23834416 8.31828269
v -0.52982749 -1.24382064 5.73237644
v 0.08914452 -1.25530434 6.40880921
v 0.12743757 -1.25814854 5.71936436
v -0.60904571 -1.2435657 7.10409144
v 0.05002363 -1.25547388 7.10878253
v -1.20328859 -1.2252258 6.40053092
v -1.2429614 -1.22919541 7.0801476
v -1.16469834 -1.22607508 5.73462631
v 0.17793601 -1.31599154 1.65382615
v -1.15279015 -1.33670877 -0.24386598
v -1.12585345 -1.32469431 0.42390577
v -1.78466798 -1.34808619 -0.84091107
v -2.39869428 -1.36241441 -1.43097282
v -2.95046247 -1.36058903 -0.74551782
v -2.37222445 -1.35173728 -0.78593378
v -4.00125021 -1.27829294 16.09722855
v -3.29870851 -1.25279953 16.27413188
v 4.84816061 -1.31949397 4.14646217
v 4.20520221 -1.31730768 4.16236115
v -2.84466821 -1.20917847 4.5425535
v -2.29965026 -1.21074924 4.49710706
v -1.2289517 -1.35929408 -1.55302664
v -1.18675289 -1.348065 -0.90276606
v -1.86046878 -1.36931299 -2.12024687
v -0.6947381 -1.37561754 -2.27172195
v -1.28097851 -1.37103241 -2.19473248
v -2.98903121 -1.3768274 -2.00655737
v -2.42879369 -1.37082017 -2.05578174
v 0.48268846 -1.39130397 -2.40859141
v -0.10565333 -1.38264359 -2.34393524
v 1.64472563 -1.41081134 -2.50861155
v 1.06703964 -1.40079243 -2.46310184
v 2.77449808 -1.43231394 -2.58245949
v 2.21309309 -1.42112757 -2.54652238
v 3.88777738 -1.45961154 -2.67224912
v 3.33104229 -1.44490155 -2.62215428
v 2.66783368 -0.90741888 22.73495969
v 2.06862381 -0.86727937 23.14363862
v 2.39664084 -0.87264957 23.10647047
v 6.02819776 -1.27663709 18.3030696
v 4.96151135 -1.1828785 19.52804427
v 5.49704116 -1.27007791 17.58097783
v 5.26248556 -1.23324978 18.52724508
v 5.21177488 -1.15462566 20.47819572
v 4.57747686 -1.11437987 20.62476683
v 2.97335032 -0.94095714 22.40341952
v 0.87285734 -0.85641119 23.32926686
v 1.52789358 -0.86046557 23.23412791
v -0.47697291 -0.86974148 23.35019601
v 0.20137033 -0.85931928 23.37275982
v -1.80886644 -0.91533658 23.06301926
v -1.15240806 -0.88816645 23.24958122
v -2.94632301 -0.99156186 22.46527451
v -2.43000355 -0.95199518 22.78660441
v -3.28597224 -1.02730761 22.16875796
v -3.87200049 -1.25195026 6.57422931
v -3.39008946 -1.21873052 6.14226492
v -3.46446816 -1.24866039 7.36225116
v -3.42239667 -1.23157274 6.72808077
v 4.12014669 -1.45475091 -5.41918185
v 3.95423838 -1.46816597 -4.56730898
v 3.30743816 -1.45445359 -5.79185916
v 3.69098428 -1.46130978 -5.2103319
v -3.8151975 -1.23726146 5.54874376
v -3.34659587 -1.21930366 5.11123917
v -3.36410799 -1.21597109 5.61524715
v 6.49115306 -1.32751763 16.48448933
v 5.81503881 -1.32002472 15.71794873
v 5.68160756 -1.29796985 16.64568504
v -3.95085773 -1.31255269 2.23760422
v -3.43901714 -1.30890192 1.42209419
v -3.39620297 -1.28096728 2.7915802
v -3.41770557 -1.29461608 2.12119704
v 5.2744997 -1.4968009 -1.55398187
v 4.81373069 -1.46319906 -0.76351863
v 4.58866355 -1.47500096 -2.12045942
v 4.70696032 -1.47050092 -1.4615391
v -4.08104149 -1.37733665 -3.11571761
v -3.53606592 -1.36615027 -3.74882759
v -3.5468914 -1.38504211 -2.56049033
v -3.55570076 -1.37695487 -3.14484154
v -3.86907121 -1.34078433 -4.53549014
v -3.2886681 -1.34681276 -4.96059913
v -3.45372745 -1.35449671 -4.39038414
v -4.61567964 -1.34201539 10.74106141
v -3.84077599 -1.31153388 10.1769181
v -4.15047416 -1.32032173 11.65245322
v -3.99239847 -1.31851754 10.90824332
v 5.67842365 -1.43984955 1.42099029
v 5.21461908 -1.39484878 2.11671819
v 5.01905702 -1.43785431 0.71269566
v 5.11803747 -1.41796485 1.42145715
v -4.01670321 -1.34515691 0.75413075
v -3.49475862 -1.35867856 -0.03877371
v -3.46622997 -1.33324873 0.68994081
v 6.72413821 -1.39782076 12.81032985
v 5.93167973 -1.35651346 13.87030874
v 5.89357784 -1.38217641 12.04688871
v 5.92686117 -1.37186018 12.95254895
v 6.71762173 -1.36135322 14.6592009
v 5.89648594 -1.33938343 14.79239872
v -5.42327229 -1.33286663 17.73703741
v -4.75758054 -1.2996045 16.90745315
v -4.66048937 -1.25356372 19.10826372
v -4.73928303 -1.28357837 17.96955507
v 6.44712935 -1.38536063 9.29929816
v 5.7874442 -1.37710322 10.30298375
v 5.69171155 -1.33779147 8.68652436
v 5.73565081 -1.36016423 9.47698728
v 6.33725953 -1.32346325 7.76379762
v 5.63401721 -1.29374593 7.22436226
v 5.65876762 -1.31433569 7.9348427
v 6.59720194 -1.41579975 10.99673768
v 5.84354658 -1.38417196 11.16181807
v -5.32575664 -1.33222991 13.87485148
v -4.44531367 -1.31696797 13.2193058
v -4.66834318 -1.31191597 14.95049592
v -4.56980872 -1.31471779 14.05886594
v -5.08716786 -1.25606853 20.23317586
v -4.50455758 -1.20312886 20.34049754
v 5.89039394 -1.38183701 2.82828086
v 5.39668099 -1.34532677 3.49953448
v 5.30948157 -1.37041689 2.81592732
v -5.01319276 -1.33360963 12.24642005
v -4.30345516 -1.3193453 12.41984246
v -3.8726796 -1.28461837 3.55300491
v -3.34604392 -1.23660354 4.04359752
v -3.36860804 -1.25844586 3.43742518
v 6.26901521 -1.27432334 6.41768215
v 5.59440814 -1.27538485 5.93214122
v 5.61448865 -1.27996966 6.55760868
v 4.70269371 -1.479204 -4.00828226
v 4.29885485 -1.47676277 -3.34063703
v 4.14523681 -1.47353648 -3.94700041
v 5.47545346 -1.48045624 -0.06849103
v 4.91772043 -1.4526282 -0.02718373
v 6.20440142 -1.27370781 5.28292128
v 5.52881761 -1.29837345 4.76246268
v 5.56791711 -1.28245328 5.34549775
v -4.23419235 -1.3240152 9.28269885
v -3.59772955 -1.279821 8.73521853
v -3.70694114 -1.29714208 9.45143028
v -3.98736766 -1.28748408 7.86144058
v -3.51993351 -1.26421935 8.03549995
v -4.0856475 -1.39508221 -0.72083162
v -3.53816744 -1.38606093 -1.37431785
v -3.52025203 -1.37619068 -0.72739048
v -5.47748539 -1.33940462 15.69234905
v -4.73251161 -1.30794668 15.89877928
v 6.08338761 -1.32064025 4.15741543
v 5.47076237 -1.32032173 4.14775712
v -3.80821416 -1.24878754 4.64976986
v -3.33961221 -1.22486522 4.59430419
v -4.09649449 -1.4030423 -1.95994313
v -3.5440472 -1.38854454 -1.97783704
v 5.0162764 -1.49590955 -2.81595452
v 4.44952209 -1.47716606 -2.73928262
v 2.88579 -1.43534951 -6.77537997
v 2.14990108 -1.44377646 -6.52825732
v 2.75626431 -1.44897711 -6.22813239
v 1.55122181 -1.42189175 -7.48214558
v 1.06506555 -1.4300005 -6.7802194
v 1.59881216 -1.43785431 -6.70061854
v 0.45500877 -1.40145034 -7.6386929
v -0.06706316 -1.4059292 -6.75398269
v 0.51104739 -1.41902605 -6.80225309
v -0.76332173 -1.3710536 -7.45353153
v -1.31349781 -1.3775704 -6.39387148
v -0.67283213 -1.39164368 -6.62303568
v -2.23720093 -1.34256734 -6.71513812
v -2.60380838 -1.35475165 -5.67649199
v -1.99602273 -1.3649616 -6.05120755
v -3.35839809 -1.32681702 -5.76706605
v -3.01991633 -1.34781038 -5.35108557
v -1.03279531 -0.23043416 -4.92171154
v -0.45385692 -0.24232115 -5.06709336
v -0.55056599 -0.2342763 -5.80425571
v -1.14894802 -0.22137049 -5.62238516
v -0.92931497 -0.23160164 -4.25147642
v -0.3551526 -0.24242743 -4.37000662
v 0.21726919 -0.25333799 -4.46075148
v 0.12089974 -0.25414457 -5.17078641
v 0.03372148 -0.24713972 -5.92216976
v 2.43820277 0.43714701 24.65347659
v 2.41048053 0.38270032 24.02643837
v 1.7551047 0.42986619 24.50764816
v 1.64950165 0.49932005 25.26259941
v 3.26309546 0.34440723 23.81767318
v 3.05719598 0.31350108 23.37774855
v 2.86224945 0.28552422 22.97229591
v 2.39627994 0.33434578 23.45350697
v 1.88741101 0.36359623 23.7609132
v 0.22164188 -0.10842289 3.66597387
v 0.2230004 -0.11941838 2.98820376
v -0.42280219 -0.10704317 3.03218509
v -0.42547677 -0.09477409 3.70445784
v 0.88109332 -0.12001271 3.62874181
v 0.87850365 -0.13056237 2.94725705
v 0.86411191 -0.14128189 2.26674903
v 0.21332101 -0.13075342 2.31094291
v -0.43035891 -0.11986421 2.3594246
v -0.49732931 -0.15548264 0.34186494
v 0.13121593 -0.16255122 0.28614433
v 0.08831668 -0.17248536 -0.38338986
v -0.53269312 -0.16620215 -0.32561075
v -0.46852461 -0.14438103 1.01286362
v 0.16636742 -0.15257454 0.95877767
v 0.80408266 -0.16178703 0.90951028
v 0.76080132 -0.17119041 0.23469065
v 0.70890192 -0.18072126 -0.43730564
v 3.04819589 0.03608877 18.9503582
v 3.79597164 0.01148702 18.83738924
v 3.97591084 -0.03463884 17.83160258
v 3.20769368 -0.01207471 17.91848348
v 2.86517874 0.0930825 20.01033771
v 3.58285507 0.06678267 19.86786336
v 4.29626495 0.03169484 19.68550443
v 4.5486512 -0.02088376 18.68258285
v 4.75242796 -0.06318868 17.7086144
v 3.12389041 0.19078935 21.79890334
v 3.33789848 0.13152425 20.91983977
v 2.66212378 0.15920394 21.09190366
v 2.47059475 0.23470742 22.2030389
v 3.64893398 0.16387384 21.67060823
v 3.98966592 0.0959694 20.72521208
v 2.80907651 -0.17140265 2.15518066
v 2.75730447 -0.18316233 1.47068216
v 2.12529918 -0.17227296 1.50557863
v 2.16722201 -0.16144732 2.1888252
v 3.44063598 -0.18180381 2.12586694
v 3.37861145 -0.19500694 1.43988182
v 3.30576112 -0.20702108 0.75313313
v 2.69421859 -0.19400932 0.78688332
v 2.07223236 -0.18244068 0.82392432
v 3.29697327 0.22746914 22.40153055
v 3.64570769 0.22770257 22.57227862
v 4.17276784 0.13827432 21.63150935
v 4.01855548 0.22942199 22.78598952
v 4.69201658 0.11352391 21.63286693
v 2.53841427 -0.21330445 -0.57421812
v 2.44609912 -0.22332335 -1.24617203
v 1.85495537 -0.21145755 -1.20310292
v 1.93693302 -0.20122641 -0.5318493
v 3.13127736 -0.22735653 -0.61694752
v 3.02991957 -0.23699334 -1.29004772
v 2.91888244 -0.24711852 -1.95382962
v 2.3445079 -0.23442496 -1.9125432
v 1.76382889 -0.22317469 -1.87113025
v 1.01259302 0.52317896 25.62090642
v 1.14963293 0.45022267 24.81726219
v 0.5693785 0.45453167 25.00571312
v 0.45865977 0.52619317 25.82188169
v 1.31329118 0.37892192 23.98935498
v 0.69979564 0.38388898 24.14666648
v 1.25479023 -0.20069565 -1.15648932
v 1.32613333 -0.19031569 -0.48653064
v 1.17427718 -0.21266741 -1.82443124
v 0.57791165 -0.20317926 -1.77121639
v 0.64798115 -0.19118599 -1.1051843
v -0.02683844 0.45249389 25.11588026
v -0.10134434 0.52453748 25.95144961
v 0.06424553 0.38149046 24.22968469
v -0.58656659 0.37100437 24.2242506
v -0.6420321 0.44309051 25.13031381
v -0.68170491 0.51681098 25.98585834
v -1.29150698 0.50210083 25.90439002
v -1.27488636 0.42555719 25.03455997
v -1.93391328 0.39445999 24.79410374
v -1.96048923 0.47127961 25.6591361
v -1.24381036 0.35185791 24.12002743
v -1.8991438 0.32158848 23.89595696
v 0.03711774 -0.1830774 -1.04825415
v -0.57523147 -0.17704898 -0.98705707
v -0.02297515 -0.19487947 -1.71040141
v -0.62589977 -0.18859642 -1.64391953
v 1.48429387 -0.16185061 1.54429604
v 1.51719534 -0.1514708 2.22599336
v 1.44082147 -0.17172117 0.86463697
v 0.83895821 -0.15174678 1.58708933
v -2.71601283 0.41517722 25.20397071
v -2.62605398 0.34425872 24.3767214
v -3.29635205 0.26697209 23.70517172
v -3.49756043 0.31736441 24.39754554
v -2.54316356 0.27764922 23.53433889
v -3.11995797 0.22001861 23.02372934
v -3.87533307 0.15500106 22.70747167
v -4.22795168 0.16192099 23.10710813
v -3.56374561 0.14888771 22.34606489
v -3.84342914 0.07614367 21.45730093
v -4.31875981 0.04383646 21.52552374
v -4.81512622 0.00843027 21.61374197
v 2.19700322 -0.15013347 2.87239061
v 1.53842205 -0.1407089 2.90851813
v 1.5472099 -0.13007416 3.59195575
v 2.21387847 -0.13884082 3.55614643
v 1.54147872 0.06170949 19.04002004
v 2.29611082 0.05243342 19.01684007
v 2.44297879 0.00369679 17.96743204
v 1.68068377 0.013546 17.97851277
v 1.38677814 0.11734469 20.12521651
v 2.13058476 0.10932103 20.09269675
v 1.74877919 0.24285855 22.22460572
v 1.94932942 0.17429619 21.18445272
v 1.21923541 0.18004864 21.21701424
v 1.04373268 0.24682784 22.27073158
v -2.37931407 -0.02867399 6.33394245
v -2.4204939 -0.03780155 6.9840754
v -1.8321734 -0.04283235 7.05000565
v -1.78851011 -0.03631572 6.37904919
v -2.93611305 -0.03083924 6.26179274
v -2.97483046 -0.04232279 6.88709035
v -3.01781481 -0.05730892 7.5381148
v -2.46328719 -0.05053766 7.65242077
v -1.87619775 -0.05308485 7.7338679
v -1.96670854 -0.2105874 -3.36808329
v -1.40901821 -0.21708269 -3.48217639
v -1.49734272 -0.22179497 -4.10991555
v -2.04159649 -0.21317698 -3.96550921
v -1.90878077 -0.20385837 -2.75747385
v -1.33701716 -0.20787036 -2.85099965
v -0.75621076 -0.2141746 -2.94480001
v -0.8372758 -0.22523382 -3.59531552
v 0.48595737 0.17949669 21.21775692
v 0.33327337 0.24445051 22.28514362
v 0.63893856 0.11904292 20.11933707
v -0.10590804 0.11450034 20.0750154
v -0.24403054 0.17247065 21.17923118
v -0.37606087 0.2353443 22.25345257
v 0.91785803 0.01847052 17.95272204
v 0.78400215 0.06523311 19.02431242
v 0.15955366 0.01834321 17.8943913
v 0.03007047 0.06302547 18.97277334
v -1.43839598 0.04167136 18.78007699
v -0.71288703 0.05510792 18.88981966
v -0.58813736 0.01312136 17.80891099
v -1.32084237 0.00278394 17.70061193
v -1.55297809 0.08713916 19.87972853
v -0.8395894 0.10378082 19.99341929
v -1.07728652 0.21908457 22.16328085
v -0.96338383 0.15886423 21.09527925
v -1.65953637 0.13899596 20.97159078
v -1.75535379 0.19573507 22.01726263
v 1.3880942 -0.18095469 0.18765257
v 2.00940125 -0.19182287 0.14451957
v -2.39340885 0.16542341 21.82172146
v -2.31894538 0.11320555 20.81655033
v -2.9287473 0.08378524 20.65694625
v -2.9603539 0.13239456 21.6187092
v -2.23667049 0.0648934 19.74020528
v -2.88574208 0.03776565 19.58682099
v 2.27955409 -0.28674879 -5.16955409
v 2.7753472 -0.29044226 -5.08848937
v 2.69460068 -0.28547535 -5.65456458
v 2.18621997 -0.28150574 -5.82178903
v 2.40443091 -0.28587864 -4.5314579
v 2.92323398 -0.29056973 -4.5020164
v 3.43777027 -0.29339274 -4.4973465
v 3.24568945 -0.29099421 -5.0670301
v 3.08092742 -0.28613326 -5.49697726
v -2.81773151 -0.00105803 18.49975707
v -2.14004618 0.02290699 18.64832279
v -2.03429463 -0.01258412 17.57329419
v -2.73091419 -0.03291941 17.4295464
v 2.62119857 -0.20381598 0.1045711
v 3.22331653 -0.21759225 0.06602323
v -1.06293726 -0.10857155 2.41336189
v -1.07656487 -0.12351514 1.74355188
v -1.6935415 -0.11555521 1.80937584
v -1.68103898 -0.09793696 2.47627777
v -0.44591818 -0.13240911 1.68583603
v -1.09590239 -0.13760977 1.07219198
v -1.71109617 -0.13217568 1.13725239
v -2.31039096 -0.02886504 5.09330256
v -2.34165785 -0.02597829 5.70694693
v -1.74803058 -0.03574258 5.72437397
v -1.71385559 -0.04030636 5.08048184
v -2.87971366 -0.02871653 5.10083817
v -2.90378465 -0.02680606 5.67171043
v 3.34065791 -0.0516414 16.91864017
v 4.12165388 -0.07199788 16.85107527
v 4.23298818 -0.10165162 15.89464014
v 3.44577274 -0.083248 15.95040313
v 4.91324158 -0.09662082 16.75156438
v 5.03219657 -0.12311185 15.80952105
v -2.29706036 -0.10872005 1.88674741
v -2.28623489 -0.08895806 2.55237589
v -2.31268353 -0.1279728 1.20942329
v -2.90161956 -0.1279728 1.29331133
v -2.88954152 -0.10863528 1.98197049
v -2.88187876 -0.08955239 2.64643182
v 2.87545258 -0.14650374 3.52182247
v 2.84874931 -0.15898506 2.83912816
v 3.52915153 -0.15329635 3.4911923
v 3.49119799 -0.1676456 2.81028068
v 3.71596812 -0.24399819 -0.66324292
v 3.60749952 -0.25314695 -1.33903929
v 4.29484286 -0.26454557 -0.71798678
v 4.18276556 -0.27288775 -1.40010795
v 4.05918336 -0.27972274 -2.0580528
v 3.48873589 -0.26189241 -1.99991247
v 1.80165496 -0.02669994 16.9547253
v 2.56815294 -0.03678274 16.9536853
v 2.66963803 -0.06932322 15.97695742
v 1.90193012 -0.05930432 15.97226664
v 1.13804311 -0.05251171 15.93545907
v 1.03694011 -0.02071406 16.92135658
v 0.38099109 -0.04930645 15.87152407
v 0.27782908 -0.01901583 16.85839832
v -2.54420357 -0.2058748 -3.83814909
v -2.50177117 -0.2058748 -3.26606665
v -3.02897999 -0.1990825 -3.75024969
v -3.02732446 -0.20313656 -3.18268912
v -3.01622285 -0.20443151 -2.60222211
v -2.46632275 -0.20241507 -2.67335238
v -0.26048123 -0.23476467 -3.69427415
v -0.17215672 -0.22243169 -3.0296009
v 0.41015664 -0.23181419 -3.10192046
v 0.31501837 -0.24484715 -3.77472397
v -1.20572966 -0.02920475 16.66510732
v -0.47060485 -0.0218178 16.77166608
v -0.36493807 -0.05004944 15.78619305
v -1.09855585 -0.05482546 15.68311553
v -2.63271912 -0.05788206 16.40342398
v -1.92510423 -0.04121905 16.54186484
v -1.81865207 -0.06384675 15.56484027
v -2.53015148 -0.07711345 15.43253379
v 0.59947803 -0.25881447 -5.97778472
v 0.68402417 -0.26490647 -5.22894698
v 1.23262951 -0.27414031 -5.24524925
v 1.14566352 -0.26866383 -5.9773381
v 0.78170967 -0.26350556 -4.51918787
v 1.33526081 -0.27248446 -4.54778041
v -2.7175624 -0.19148316 -4.88437385
v -2.5939802 -0.20152342 -4.38284853
v -2.13902737 -0.20967455 -4.54867239
v -2.30026578 -0.19931594 -5.11245504
v -2.98862793 -0.18581564 -4.71213916
v -3.00987591 -0.19260825 -4.30121067
v 0.18379458 -0.08972225 5.02616246
v 0.20822659 -0.09819158 4.3442956
v -0.44020812 -0.08382114 4.37558368
v -0.46593495 -0.07518179 5.04917225
v 0.85020839 -0.10154551 4.997655
v 0.87130779 -0.11003619 4.31135167
v -2.1137889 -0.10651257 11.32059422
v -2.75831775 -0.11273204 11.20945096
v -2.84443478 -0.11778388 11.95491311
v -2.17933705 -0.10918707 12.07174508
v -2.05630681 -0.09982608 10.58557545
v -2.68064918 -0.10373179 10.47899597
v -3.29454786 -0.11500326 10.34528867
v -3.3978373 -0.12457649 11.07217758
v -3.50904414 -0.13007416 11.81441328
v 4.05996874 -0.19307527 2.1015407
v 3.98801008 -0.20842231 1.41324213
v 4.66427331 -0.20608736 2.08303126
v 4.58401485 -0.22470306 1.39224908
v 4.49579661 -0.24098414 0.69599043
v 3.90628713 -0.22213468 0.72216325
v -2.35995536 -0.16405825 -0.14923755
v -2.33463181 -0.14699195 0.5261976
v -1.73363894 -0.14767121 0.46340888
v -1.76008742 -0.16168091 -0.20495752
v -2.95082305 -0.17138146 -0.10332424
v -2.92401382 -0.15040945 0.58917736
v 4.35637933 -0.14179145 14.04343414
v 4.37592908 -0.15372083 13.14721966
v 3.59614329 -0.13705782 13.20790686
v 3.57111675 -0.12514963 14.09652215
v 5.15265812 -0.16127763 13.96192343
v 5.1646302 -0.17414089 13.05728201
v 5.15335873 -0.1816765 12.17087419
v 4.3747828 -0.16021627 12.27178599
v 3.60232006 -0.14351072 12.3428318
v 4.30997765 -0.12468261 14.95888048
v 3.52182816 -0.107489 15.00999445
v 5.11022605 -0.14446595 14.87944979
v 2.89058722 -0.12406708 4.88320036
v 2.88899526 -0.13455301 4.20230993
v 2.21769926 -0.12805772 4.23969033
v 2.20973917 -0.11859061 4.92533543
v 3.56668028 -0.12754832 4.83936706
v 3.55396552 -0.13958381 4.16654268
v -1.09821614 -0.05728773 5.06647214
v -1.07246811 -0.06628782 4.40585326
v -1.68853204 -0.04922152 4.43883958
v -1.05784289 -0.07842959 3.74521288
v -1.67456488 -0.06229718 3.79269758
v -1.0556566 -0.09303363 3.08039097
v -1.67346099 -0.07936348 3.13715158
v 2.79735937 -0.11234995 14.1244144
v 2.82675833 -0.12432171 13.24346156
v 2.06730767 -0.11451504 13.25203717
v 2.03379076 -0.10254313 14.12460545
v 2.83864532 -0.13083835 12.3884481
v 2.08420427 -0.12111661 12.40755218
v 2.74554479 -0.09426468 15.03438396
v 1.97902571 -0.08435174 15.02967167
v 1.21804675 -0.07702853 14.99454114
v 1.27707834 -0.09490156 14.09584305
v 0.52966325 -0.08976463 14.04260637
v 0.46509148 -0.07271953 14.93391783
v -3.41360881 -0.05822161 17.27115251
v -3.4725554 -0.03005386 18.33887892
v -4.10305367 -0.08925523 17.09384558
v -4.13056351 -0.06626663 18.1579421
v -4.10825401 -0.03255851 19.26502359
v -3.49775148 0.00651995 19.43125042
v 1.31568979 -0.10663988 13.2328907
v 1.33821137 -0.11313533 12.40018675
v 0.60389319 -0.10714929 12.36976882
v 0.57457905 -0.10097236 13.19009772
v -0.20482475 -0.087557 13.97024442
v -0.15213994 -0.09787322 13.1284341
v -0.86493414 -0.09768218 13.05019207
v -0.92659793 -0.08859716 13.88151663
v -0.11446246 -0.10337105 12.32048024
v -0.8173226 -0.10216103 12.25393447
v -0.27601923 -0.07178564 14.85340475
v -1.00494576 -0.07446014 14.75622818
v -1.72141224 -0.08106171 14.64453329
v -2.4305767 -0.09159018 14.51927437
v -1.63584731 -0.09324587 13.77812122
v -2.33743394 -0.10163043 13.66099192
v 0.88446838 -0.25465413 -3.83252396
v 1.44517294 -0.26380289 -3.86937328
v 0.98722705 -0.24140862 -3.1585109
v 1.55665582 -0.25096066 -3.20064629
v -1.56412208 -0.10084505 12.95651856
v -2.25375782 -0.10757393 12.8482622
v -1.50470848 -0.1040715 12.17083149
v 1.54321934 -0.11994913 4.27624265
v 1.52763888 -0.11111874 4.96377703
v 4.33504626 -0.15665011 10.58670054
v 4.31014719 -0.14796838 9.77968072
v 3.5655555 -0.1356781 9.87785444
v 3.58077506 -0.14185503 10.67801807
v 5.08923269 -0.17675181 10.46736376
v 5.05127915 -0.16454646 9.65565285
v 5.01566087 -0.14877495 8.87100603
v 4.28798667 -0.13697289 8.99662595
v 3.55351985 -0.12790906 9.09864171
v 3.54863771 -0.12018256 8.34120764
v 4.27259725 -0.12582889 8.23897954
v 4.26293893 -0.11672268 7.50655059
v 3.54993265 -0.11415414 7.6047455
v 4.98674981 -0.13240911 8.11550355
v 4.96342182 -0.11852688 7.3897822
v 4.35890501 -0.16095911 11.4179612
v 3.59512416 -0.14478431 11.49981162
v 5.12576381 -0.18250426 11.3066269
v -3.13657844 -0.10617286 14.38019648
v -3.23742666 -0.09456185 15.28615436
v -3.03492365 -0.11398429 13.52961949
v -3.7401185 -0.1283337 13.38082002
v -3.85310865 -0.12306946 14.22502919
v -3.95618554 -0.11519431 15.12355743
v 1.99458498 -0.2719749 -3.8870774
v 1.87535424 -0.2798926 -4.54916076
v 2.11627789 -0.26019418 -3.22974871
v 2.6692134 -0.26955518 -3.25207846
v 2.53603677 -0.27944693 -3.89327568
v 2.83106749 -0.13068984 10.7448822
v 2.82327726 -0.12614725 9.9527212
v 2.0866028 -0.11833583 10.00377151
v 2.08827984 -0.12194437 10.78680502
v 2.81911676 -0.12037361 9.17862409
v 2.08887418 -0.11366593 9.23623349
v 2.09946622 -0.10916588 8.48414854
v 2.8227465 -0.11476983 8.42297305
v 2.83312647 -0.11056679 7.68474918
v 2.11736044 -0.10583331 7.74645535
v 2.83813592 -0.13260015 11.55646579
v 2.08931985 -0.12323916 11.58728701
v 1.34935544 -0.11540654 11.59257244
v 1.35438616 -0.11438773 10.80421103
v 0.63380168 -0.10806214 10.79926516
v 0.62197838 -0.10922962 11.57518778
v 1.40751672 -0.0997837 7.79056446
v 1.38344557 -0.10286148 8.52528599
v 0.70955995 -0.09246049 7.81697056
v 0.6803944 -0.09589918 8.54680987
v 0.65842471 -0.1002931 9.28666825
v 1.36684622 -0.10695824 9.27195811
v 1.35863151 -0.11120367 10.03149366
v 0.6443726 -0.10472957 10.0373735
v -3.47820173 0.05277297 20.51880272
v -3.42273638 0.10091527 21.45897734
v -4.01912292 0.015329 20.40099369
v -0.06823063 -0.10305253 10.77489684
v -0.05048499 -0.09897712 10.02368224
v -0.72454043 -0.09417975 9.99041987
v -0.75120131 -0.09969877 10.73150937
v -0.03025594 -0.09369154 9.28204082
v -0.69686081 -0.08721744 9.25748147
v -0.66468099 -0.08008528 8.53309741
v -0.00336167 -0.08832118 8.54980289
v 0.02990065 -0.08384233 7.82631036
v -0.62753419 -0.07380208 7.8171828
v -0.08803517 -0.10481434 11.53867785
v -0.78079132 -0.10262805 11.48395518
v -1.45573825 -0.10320119 11.41125368
v -1.41411259 -0.09859503 10.66874184
v -1.60653312 -0.21943883 -4.73858843
v -1.75497185 -0.2094835 -5.375136
v 4.17240694 -0.15953701 3.46637831
v 4.12207836 -0.17645465 2.78733478
v 4.80086727 -0.16560782 3.45209279
v 4.73769646 -0.18607042 2.77304926
v -1.91837536 -0.06484437 8.43188829
v -1.30316038 -0.07125489 8.49488925
v -1.26280832 -0.06225479 7.78755025
v -1.96080759 -0.07728331 9.14145606
v -1.34071048 -0.08106171 9.21150433
v -1.37679609 -0.09069868 9.9365464
v -2.00608418 -0.08950985 9.86006642
v -2.9370259 -0.11803866 12.72438268
v -3.62407191 -0.13102939 12.58029549
v -2.27768047 -0.06807098 3.20690277
v -2.27600343 -0.04941257 3.85130414
v -2.86973682 -0.06739172 3.29301948
v -2.8598242 -0.04726866 3.92336909
v 3.55617332 -0.1114371 6.88974366
v 4.25795083 -0.11198905 6.80069751
v 4.25415108 -0.1123286 6.11715361
v 3.56375099 -0.11264712 6.19306069
v 4.94493326 -0.11022724 6.69602835
v 4.92841875 -0.1087414 6.02984823
v 3.07163016 -0.28647297 -3.89512163
v 3.21788244 -0.27946812 -3.27362377
v 3.76807971 -0.2903363 -3.30149514
v 3.60962223 -0.29303183 -3.90641492
v 1.76459308 -0.2813574 -5.22355591
v 1.67202323 -0.27607197 -5.92749883
v 3.81564886 -0.23383063 0.02711414
v 4.39940574 -0.25410218 -0.01302536
v 3.56852717 -0.11829344 5.51202159
v 4.24759222 -0.11835702 5.45245917
v 4.23441028 -0.12901296 4.7958099
v 4.91069439 -0.11530042 5.38903373
v 4.88709026 -0.1281213 4.75656141
v 2.14124054 -0.10475076 7.02313252
v 2.84896155 -0.10899603 6.96395235
v 2.86651607 -0.11056679 6.25843898
v 2.16728574 -0.10632153 6.31286432
v 1.47064507 -0.10005967 6.3564003
v 1.43780726 -0.09870115 7.06783613
v 0.782771 -0.09167511 6.38824065
v 0.74488127 -0.09088972 7.09759599
v 1.50199697 -0.10432613 5.65598131
v 2.1915054 -0.11113993 5.61484386
v 0.81928101 -0.09530484 5.68903151
v -2.61344519 -0.09175987 9.75779594
v -2.55587832 -0.07811107 9.04389792
v -3.12539206 -0.08694147 8.91547609
v -3.20299705 -0.10188506 9.62701796
v 2.88171444 -0.11580983 5.56651051
v -2.50716288 -0.06416511 8.34042218
v -3.06563859 -0.07212519 8.21613961
v -0.50104398 -0.06976905 5.72760026
v 0.14978934 -0.0839698 5.71318759
v -0.54211777 -0.067795 6.41403106
v 0.11013776 -0.0810829 6.40785398
v -0.58552651 -0.06940815 7.11092644
v 0.06891543 -0.08123141 7.11241227
v -1.21880532 -0.05508009 7.09122802
v -1.17442023 -0.05117438 6.40505216
v -1.13313412 -0.05208723 5.73120897
v 0.19411081 -0.14187638 1.63402177
v -1.12041936 -0.15051557 0.4015115
v -1.15011549 -0.16248749 -0.26490204
v -1.78974116 -0.17386507 -0.86160742
v -2.38574578 -0.17760093 -0.80722415
v -1.82327943 -0.18479683 -1.50658194
v -2.41138785 -0.18819313 -1.44786847
v -2.99508083 -0.19683232 -1.40488413
v -2.97563735 -0.18664356 -0.76750911
v -3.33252259 -0.07910885 16.25018836
v -4.042239 -0.10470822 16.07956745
v 4.20965987 -0.14323474 4.13466027
v 4.8507078 -0.14559104 4.11182033
v -2.28744475 -0.03650676 4.47815132
v -2.86368721 -0.03489346 4.52361928
v -1.18537318 -0.17384372 -0.92318596
v -1.22718989 -0.1850728 -1.57395579
v -1.861997 -0.19502813 -2.13778019
v -1.27711519 -0.19681113 -2.21580966
v -0.68599271 -0.20148103 -2.2955168
v -2.43732692 -0.19649261 -2.06860214
v -3.00726515 -0.20254223 -2.01305171
v -0.09289611 -0.20859184 -2.36972533
v 0.49816275 -0.21731612 -2.43561256
v 1.08438191 -0.22684697 -2.49063287
v 1.66353254 -0.23686587 -2.53588827
v 2.23361927 -0.24720329 -2.57278061
v 2.79763535 -0.25838999 -2.60687051
v 3.35778794 -0.27099847 -2.64355029
v 3.91938398 -0.28572997 -2.68897523
v 2.69326335 0.26323623 22.64438563
v 2.41307026 0.29792077 23.01279664
v 2.0753103 0.30341844 23.0503684
v 5.31527625 -0.06059911 18.48982261
v 5.54272103 -0.09691799 17.55136679
v 5.01839911 -0.01080112 19.48058107
v 5.73998132 -0.05692682 19.25969578
v 6.0840879 -0.10402896 18.26991344
v 6.33619801 -0.13336434 17.36641797
v 4.63425866 0.05718809 20.56569278
v 5.27110356 0.01687857 20.42028945
v 3.00620933 0.22980409 22.31675117
v 1.52513415 0.31042329 23.14293896
v 0.86443031 0.3147111 23.24168503
v 0.18852818 0.31197286 23.28808671
v -0.49410286 0.30163544 23.26743338
v -1.17448381 0.28321062 23.16800662
v -1.83767122 0.2559554 22.98220885
v -2.46693828 0.21912696 22.70666447
v -2.99522949 0.17922072 22.3866934
v -3.3450251 0.14313527 22.09244791
v -3.43729771 -0.04527342 6.15531939
v -3.47603663 -0.05862506 6.75338313
v -3.89452192 -0.06473825 6.03290467
v -3.93461936 -0.07951214 6.60110243
v -3.98639124 -0.09908324 7.21899174
v -3.52233204 -0.07590359 7.38717143
v 3.68518929 -0.28702492 -5.19339197
v 3.29928703 -0.28027469 -5.76969895
v 3.95629752 -0.29379602 -4.55629277
v 4.48089525 -0.29269244 -4.65393557
v 4.11326931 -0.28052932 -5.39888911
v 3.58822559 -0.26966145 -6.13006574
v -3.39537488 -0.04593133 5.09937337
v -3.40997892 -0.04240772 5.61174472
v -3.86376427 -0.0704907 5.0956587
v -3.87038703 -0.06414392 5.54269415
v 5.71943363 -0.12442799 16.62112599
v 5.84660302 -0.14624895 15.69561836
v 6.53048663 -0.15395426 16.4637721
v 6.66735672 -0.17044757 15.55622227
v -3.45512836 -0.12094675 2.09954545
v -3.44727423 -0.10795602 2.76194765
v -3.46705773 -0.13516869 1.39224908
v -4.01188464 -0.14567597 1.49583585
v -3.9940967 -0.13901067 2.22206614
v -3.97879205 -0.13425584 2.88448984
v 4.86567274 -0.29014525 -0.78553017
v 4.75582411 -0.29725606 -1.47956079
v 5.4293064 -0.31793091 -0.86037574
v 5.32559248 -0.32361962 -1.57038915
v 5.20544913 -0.32491457 -2.22481038
v 4.63222072 -0.30148029 -2.13497901
v -3.52003979 -0.19203511 -3.72598671
v -3.55451178 -0.20264851 -3.12567357
v -4.01368884 -0.1847119 -3.74027222
v -4.08089283 -0.20320046 -3.0896732
v -4.09995453 -0.21905674 -2.51018294
v -3.56102857 -0.21073575 -2.54826332
v -3.25264622 -0.1732282 -4.93561497
v -3.42592028 -0.18067888 -4.36535823
v -3.59770836 -0.15499442 -5.22845861
v -3.84149748 -0.16703008 -4.50708864
v -4.03226248 -0.14476312 10.90601449
v -4.17968223 -0.1462915 11.64636107
v -3.89182606 -0.13822529 10.18362578
v -4.47006408 -0.16641439 10.01474573
v -4.65760247 -0.16834606 10.73378074
v -4.85051106 -0.16388839 11.47160133
v 5.24732957 -0.2217314 2.07199355
v 5.16049106 -0.24505939 1.37936415
v 5.81694928 -0.23850053 2.06925499
v 5.72338173 -0.26719903 1.37482204
v 5.62907149 -0.29129153 0.66563607
v 5.06877008 -0.26501275 0.67762966
v -3.5271506 -0.18520011 -0.07288511
v -3.49439772 -0.15981299 0.65126578
v -4.09004159 -0.20194789 -0.04853799
v -4.04839457 -0.17186967 0.71413927
v 5.9612914 -0.18265292 13.84984613
v 5.96086692 -0.19806338 12.93497325
v 6.77512502 -0.20528047 13.71467427
v 6.75903468 -0.22408754 12.79050397
v 6.71169927 -0.23830948 11.88066188
v 5.93373886 -0.20848588 12.03667844
v 5.92514237 -0.16552289 14.77100207
v 6.74668114 -0.18749252 14.63829263
v -4.81777937 -0.12678413 16.89412287
v -4.81325813 -0.11164934 17.94902889
v -5.54012545 -0.16719977 16.67986034
v -5.50172624 -0.16115016 17.72175364
v -5.38958536 -0.13767334 18.87396338
v -4.74579951 -0.08263247 19.0775064
v 5.83463126 -0.2037097 10.3168236
v 5.77948411 -0.18683461 9.50324478
v 6.56975631 -0.23433987 10.14452612
v 6.49501639 -0.21230651 9.32924911
v 6.42443775 -0.18212217 8.54833824
v 5.72686296 -0.16435542 8.72004139
v 5.68175622 -0.14064517 7.96969702
v 5.6430385 -0.11969435 7.25374003
v 6.36328369 -0.15002735 7.80461655
v 6.31032251 -0.12098914 7.10065275
v 5.88888675 -0.21062979 11.16237002
v 6.64525978 -0.24236385 10.99646171
v -4.59676661 -0.14062398 14.05222199
v -4.70370715 -0.13805544 14.94349107
v -4.46787779 -0.14281026 13.21230095
v -5.20669568 -0.15688354 13.03618237
v -5.35318203 -0.1581573 13.87100935
v -5.46368825 -0.16170211 14.75363892
v -4.59528062 -0.03304672 20.29581528
v -5.1819032 -0.08624102 20.19023327
v 5.40918351 -0.17186967 3.45355728
v 5.33219404 -0.19708695 2.77071431
v 6.00667396 -0.17823781 3.46775803
v 5.91438016 -0.20871931 2.77873765
v -4.32659242 -0.14518776 12.41262537
v -5.0360754 -0.15945208 12.23775967
v -3.42541072 -0.08600743 3.39838894
v -3.39981135 -0.06378317 4.01137539
v -3.94073255 -0.11283816 3.51382
v -3.89539238 -0.08819387 4.10842386
v 5.61007337 -0.10564226 6.57471752
v 5.58073815 -0.10099356 5.93010359
v 6.26485519 -0.10008086 6.43941819
v 6.22456638 -0.09154763 5.82216543
v 4.15869457 -0.29918773 -3.94201168
v 4.32436913 -0.30260538 -3.34307763
v 4.88524368 -0.31532014 -3.39835225
v 4.71625742 -0.30489763 -3.99739258
v 4.97036277 -0.27972274 -0.0545022
v 5.53091881 -0.30767857 -0.096277
v 5.55282502 -0.10831677 5.32295482
v 5.52007214 -0.1245553 4.72565543
v 6.18754689 -0.09965623 5.2576613
v 6.14534824 -0.11971554 4.7034734
v -3.76404115 -0.12421559 9.46745647
v -3.65567851 -0.10697959 8.7547047
v -4.15240582 -0.13141149 8.58098497
v -4.29759659 -0.15140707 9.29760003
v -3.57800994 -0.09142032 8.05632337
v -4.05291613 -0.11508819 7.88154228
v -3.55533986 -0.20252104 -0.75008207
v -3.57168451 -0.21215816 -1.38488871
v -4.13911793 -0.23058282 -1.37883909
v -4.12402552 -0.22151916 -0.74388379
v -4.77927388 -0.13446824 15.88984308
v -5.52660412 -0.16601111 15.68840095
v 5.47231194 -0.14671598 4.10354172
v 6.08476732 -0.14726793 4.10772357
v -3.3903017 -0.0516414 4.57541235
v -3.87023869 -0.07615822 4.63098398
v -3.57053823 -0.21440803 -1.97618087
v -4.12570256 -0.22899087 -1.95380812
v 4.48535291 -0.30332687 -2.74900452
v 5.05357171 -0.32209156 -2.82149363
v 2.87872142 -0.26127689 -6.7485486
v 2.75140336 -0.27481941 -6.20393393
v 2.14828778 -0.25429323 -7.207874
v 2.15174782 -0.26959756 -6.50520515
v 1.55986108 -0.24775524 -7.45835072
v 1.60868264 -0.26367542 -6.67935031
v 1.0316971 -0.23956172 -7.5703423
v 1.08336302 -0.25590638 -6.75982038
v 0.48135117 -0.22756877 -7.61561921
v 0.53645581 -0.2450809 -6.78157824
v -0.10212972 -0.21309221 -7.57469464
v -0.03664519 -0.2321112 -6.7323311
v -0.72842495 -0.19744785 -7.42835632
v -0.6395273 -0.21793165 -6.6001948
v -1.42115999 -0.1821859 -7.14383399
v -1.27953506 -0.20390075 -6.36997034
v -2.20145519 -0.16900412 -6.68854082
v -1.96174148 -0.19131346 -6.02675478
v -2.89132452 -0.1590488 -6.18196477
v -2.56736202 -0.18116709 -5.65220876
v -3.31779108 -0.15338128 -5.74170106
v -2.98115621 -0.17428955 -5.32707815
g Group59899
f 707 706 705 704
g Group29823
f 4 189 193 192
g Group59899
f 704 705 709 708
g Group29823
f 189 3 190 193
g Group59899
f 705 711 710 709
g Group29823
f 193 190 2 191
g Group59899
f 706 712 711 705
g Group29823
f 192 193 191 1
g Group59899
f 716 715 714 713
g Group59902
f 194 8 716 713
g Group29823
f 8 194 198 197
g Group59899
f 713 714 718 717
g Group59902
f 7 194 713 717
g Group29823
f 194 7 195 198
g Group59899
f 714 720 719 718
g Group29823
f 198 195 6 196
g Group59899
f 715 721 720 714
g Group29823
f 197 198 196 5
g Group59899
f 725 724 723 722
g Group29823
f 12 199 203 202
g Group59899
f 722 723 727 726
g Group29823
f 199 11 200 203
g Group59899
f 723 729 728 727
g Group29823
f 203 200 10 201
g Group59899
f 724 730 729 723
g Group29823
f 202 203 201 9
g Group59899
f 734 733 732 731
g Group29823
f 16 204 208 207
g Group59899
f 731 732 736 735
g Group29823
f 204 15 205 208
g Group59899
f 732 738 737 736
g Group29823
f 208 205 14 206
g Group59899
f 733 739 738 732
g Group29823
f 207 208 206 13
g Group59899
f 743 742 741 740
g Group29823
f 20 209 213 212
g Group59899
f 740 741 745 744
g Group29823
f 209 19 210 213
g Group59899
f 741 747 746 745
g Group29823
f 213 210 18 211
g Group59899
f 742 748 747 741
g Group29823
f 212 213 211 17
g Group59899
f 752 751 750 749
g Group29823
f 22 214 217 216
g Group59899
f 749 750 754 753
g Group29823
f 214 21 215 217
g Group59899
f 750 745 746 754
g Group29823
f 217 215 18 210
g Group59899
f 751 744 745 750
g Group29823
f 216 217 210 19
g Group59899
f 758 757 756 755
g Group29823
f 26 218 222 221
g Group59899
f 755 756 760 759
g Group29823
f 218 25 219 222
g Group59899
f 756 762 761 760
g Group29823
f 222 219 24 220
g Group59899
f 757 763 762 756
g Group29823
f 221 222 220 23
g Group59899
f 753 766 765 764
g Group29823
f 21 224 226 225
g Group59899
f 764 765 718 719
g Group29823
f 224 6 195 226
g Group59899
f 765 767 717 718
g Group59902
f 223 7 717 767
g Group29823
f 226 195 7 223
g Group59899
f 766 768 767 765
g Group59902
f 27 223 767 768
g Group29823
f 225 226 223 27
g Group59899
f 772 771 770 769
g Group29823
f 31 227 231 230
g Group59899
f 769 770 774 773
g Group29823
f 227 30 228 231
g Group59899
f 770 776 775 774
g Group29823
f 231 228 29 229
g Group59899
f 771 777 776 770
g Group29823
f 230 231 229 28
g Group59899
f 781 780 779 778
g Group59902
f 232 33 781 778
g Group29823
f 33 232 235 234
g Group59899
f 778 779 715 716
g Group59902
f 8 232 778 716
g Group29823
f 232 8 197 235
g Group59899
f 779 782 721 715
g Group29823
f 235 197 5 233
g Group59899
f 780 783 782 779
g Group29823
f 234 235 233 32
g Group59899
f 772 785 784 771
g Group29823
f 31 230 239 238
g Group59899
f 771 784 786 777
g Group29823
f 230 28 236 239
g Group59899
f 784 788 787 786
g Group29823
f 239 236 34 237
g Group59899
f 785 739 788 784
g Group29823
f 238 239 237 13
g Group59899
f 781 790 789 780
g Group59902
f 33 240 790 781
g Group29823
f 33 234 243 240
g Group59899
f 780 789 791 783
g Group29823
f 234 32 241 243
g Group59899
f 789 793 792 791
g Group29823
f 243 241 36 242
g Group59899
f 790 794 793 789
g Group59902
f 240 35 794 790
g Group29823
f 240 243 242 35
g Group59899
f 798 797 796 795
g Group59902
f 244 38 798 795
g Group29823
f 38 244 247 246
g Group59899
f 795 796 793 794
g Group59902
f 35 244 795 794
g Group29823
f 244 35 242 247
g Group59899
f 796 799 792 793
g Group29823
f 247 242 36 245
g Group59899
f 797 800 799 796
g Group29823
f 246 247 245 37
g Group59899
f 734 802 801 733
g Group29823
f 16 207 250 249
g Group59899
f 733 801 788 739
g Group29823
f 207 13 237 250
g Group59899
f 801 803 787 788
g Group29823
f 250 237 34 248
g Group59899
f 802 804 803 801
g Group29823
f 249 250 248 39
g Group59899
f 758 806 805 757
g Group29823
f 26 221 254 253
g Group59899
f 757 805 807 763
g Group29823
f 221 23 251 254
g Group59899
f 805 808 737 807
g Group29823
f 254 251 14 252
g Group59899
f 806 728 808 805
g Group29823
f 253 254 252 10
g Group59899
f 812 811 810 809
g Group59902
f 255 41 812 809
g Group29823
f 41 255 258 257
g Group59899
f 809 810 797 798
g Group59902
f 38 255 809 798
g Group29823
f 255 38 246 258
g Group59899
f 810 813 800 797
g Group29823
f 258 246 37 256
g Group59899
f 811 814 813 810
g Group29823
f 257 258 256 40
g Group59899
f 812 816 815 811
g Group59902
f 41 259 816 812
g Group29823
f 41 257 262 259
g Group59899
f 811 815 817 814
g Group29823
f 257 40 260 262
g Group59899
f 815 819 818 817
g Group29823
f 262 260 43 261
g Group59899
f 816 820 819 815
g Group59902
f 259 42 820 816
g Group29823
f 259 262 261 42
g Group59899
f 824 823 822 821
g Group29823
f 44 263 265 264
g Group59899
f 821 822 806 758
g Group29823
f 263 26 253 265
g Group59899
f 822 727 728 806
g Group29823
f 265 253 10 200
g Group59899
f 823 726 727 822
g Group29823
f 264 265 200 11
g Group59899
f 828 827 826 825
g Group29823
f 46 266 269 268
g Group59899
f 825 826 830 829
g Group29823
f 266 45 267 269
g Group59899
f 826 740 744 830
g Group29823
f 269 267 19 209
g Group59899
f 827 743 740 826
g Group29823
f 268 269 209 20
g Group59899
f 834 833 832 831
g Group29823
f 47 270 272 271
g Group59899
f 831 832 751 752
g Group29823
f 270 22 216 272
g Group59899
f 832 830 744 751
g Group29823
f 272 216 19 267
g Group59899
f 833 829 830 832
g Group29823
f 271 272 267 45
g Group59899
f 838 837 836 835
g Group29823
f 51 273 277 276
g Group59899
f 835 836 840 839
g Group29823
f 273 50 274 277
g Group59899
f 836 842 841 840
g Group29823
f 277 274 49 275
g Group59899
f 837 843 842 836
g Group29823
f 276 277 275 48
g Group59899
f 847 846 845 844
g Group29823
f 54 278 282 281
g Group59899
f 844 845 849 848
g Group29823
f 278 53 279 282
g Group59899
f 845 851 850 849
g Group29823
f 282 279 52 280
g Group59899
f 846 708 851 845
g Group29823
f 281 282 280 3
g Group59899
f 834 853 852 833
g Group29823
f 47 271 286 285
g Group59899
f 833 852 854 829
g Group29823
f 271 45 283 286
g Group59899
f 852 856 855 854
g Group29823
f 286 283 56 284
g Group59899
f 853 857 856 852
g Group29823
f 285 286 284 55
g Group59899
f 828 825 859 858
g Group29823
f 46 287 289 266
g Group59899
f 858 859 861 860
g Group29823
f 287 57 288 289
g Group59899
f 859 854 855 861
g Group29823
f 289 288 56 283
g Group59899
f 825 829 854 859
g Group29823
f 266 289 283 45
g Group59899
f 865 864 863 862
g Group29823
f 59 290 293 292
g Group59899
f 862 863 867 866
g Group29823
f 290 58 291 293
g Group59899
f 863 861 855 867
g Group29823
f 293 291 56 288
g Group59899
f 864 860 861 863
g Group29823
f 292 293 288 57
g Group59899
f 871 870 869 868
g Group29823
f 60 294 296 295
g Group59899
f 868 869 856 857
g Group29823
f 294 55 284 296
g Group59899
f 869 867 855 856
g Group29823
f 296 284 56 291
g Group59899
f 870 866 867 869
g Group29823
f 295 296 291 58
g Group59899
f 772 873 872 785
g Group29823
f 31 238 298 297
g Group59899
f 785 872 738 739
g Group29823
f 238 13 206 298
g Group59899
f 872 807 737 738
g Group29823
f 298 206 14 251
g Group59899
f 873 763 807 872
g Group29823
f 297 298 251 23
g Group59899
f 877 876 875 874
g Group29823
f 62 299 302 301
g Group59899
f 874 875 870 871
g Group29823
f 299 60 295 302
g Group59899
f 875 878 866 870
g Group29823
f 302 295 58 300
g Group59899
f 876 879 878 875
g Group29823
f 301 302 300 61
g Group59899
f 883 882 881 880
g Group29823
f 66 303 307 306
g Group59899
f 880 881 885 884
g Group29823
f 303 65 304 307
g Group59899
f 881 887 886 885
g Group29823
f 307 304 64 305
g Group59899
f 882 888 887 881
g Group29823
f 306 307 305 63
g Group59899
f 892 891 890 889
g Group29823
f 67 308 310 309
g Group59899
f 889 890 878 879
g Group29823
f 308 61 300 310
g Group59899
f 890 862 866 878
g Group29823
f 310 300 58 290
g Group59899
f 891 865 862 890
g Group29823
f 309 310 290 59
g Group59899
f 772 769 893 873
g Group29823
f 31 297 312 227
g Group59899
f 873 893 762 763
g Group29823
f 297 23 220 312
g Group59899
f 893 894 761 762
g Group29823
f 312 220 24 311
g Group59899
f 769 773 894 893
g Group29823
f 227 312 311 30
g Group59899
f 898 897 896 895
g Group29823
f 69 313 317 316
g Group59899
f 895 896 899 730
g Group29823
f 313 9 314 317
g Group59899
f 896 900 735 899
g Group29823
f 317 314 15 315
g Group59899
f 897 901 900 896
g Group29823
f 316 317 315 68
g Group59899
f 905 904 903 902
g Group29823
f 71 318 321 320
g Group59899
f 902 903 907 906
g Group29823
f 318 70 319 321
g Group59899
f 903 835 839 907
g Group29823
f 321 319 50 273
g Group59899
f 904 838 835 903
g Group29823
f 320 321 273 51
g Group59899
f 911 910 909 908
g Group29823
f 73 322 325 324
g Group59899
f 908 909 742 743
g Group29823
f 322 20 212 325
g Group59899
f 909 912 748 742
g Group29823
f 325 212 17 323
g Group59899
f 910 913 912 909
g Group29823
f 324 325 323 72
g Group59899
f 898 915 914 897
g Group29823
f 69 316 329 328
g Group59899
f 897 914 916 901
g Group29823
f 316 68 326 329
g Group59899
f 914 918 917 916
g Group29823
f 329 326 75 327
g Group59899
f 915 919 918 914
g Group29823
f 328 329 327 74
g Group59899
f 824 821 921 920
g Group29823
f 44 330 332 263
g Group59899
f 920 921 923 922
g Group29823
f 330 76 331 332
g Group59899
f 921 755 759 923
g Group29823
f 332 331 25 218
g Group59899
f 821 758 755 921
g Group29823
f 263 332 218 26
g Group59899
f 773 774 925 924
g Group29823
f 30 333 336 228
g Group59899
f 924 925 927 926
g Group29823
f 333 78 334 336
g Group59899
f 925 929 928 927
g Group29823
f 336 334 77 335
g Group59899
f 774 775 929 925
g Group29823
f 228 336 335 29
g Group59899
f 933 932 931 930
g Group29823
f 79 337 339 338
g Group59899
f 930 931 827 828
g Group29823
f 337 46 268 339
g Group59899
f 931 908 743 827
g Group29823
f 339 268 20 322
g Group59899
f 932 911 908 931
g Group29823
f 338 339 322 73
g Group59899
f 933 930 935 934
g Group29823
f 79 340 342 337
g Group59899
f 934 935 937 936
g Group29823
f 340 80 341 342
g Group59899
f 935 858 860 937
g Group29823
f 342 341 57 287
g Group59899
f 930 828 858 935
g Group29823
f 337 342 287 46
g Group59899
f 847 844 939 938
g Group29823
f 54 343 346 278
g Group59899
f 938 939 941 940
g Group29823
f 343 82 344 346
g Group59899
f 939 943 942 941
g Group29823
f 346 344 81 345
g Group59899
f 844 848 943 939
g Group29823
f 278 346 345 53
g Group59899
f 708 709 944 851
g Group29823
f 3 280 349 190
g Group59899
f 851 944 945 850
g Group29823
f 280 52 347 349
g Group59899
f 944 947 946 945
g Group29823
f 349 347 83 348
g Group59899
f 709 710 947 944
g Group29823
f 190 349 348 2
g Group59899
f 951 950 949 948
g Group29823
f 84 350 352 351
g Group59899
f 948 949 864 865
g Group29823
f 350 59 292 352
g Group59899
f 949 937 860 864
g Group29823
f 352 292 57 341
g Group59899
f 950 936 937 949
g Group29823
f 351 352 341 80
g Group59899
f 955 954 953 952
g Group29823
f 85 353 355 354
g Group59899
f 952 953 891 892
g Group29823
f 353 67 309 355
g Group59899
f 953 948 865 891
g Group29823
f 355 309 59 350
g Group59899
f 954 951 948 953
g Group29823
f 354 355 350 84
g Group59899
f 959 958 957 956
g Group29823
f 87 356 359 358
g Group59899
f 956 957 711 712
g Group29823
f 356 1 191 359
g Group59899
f 957 960 710 711
g Group29823
f 359 191 2 357
g Group59899
f 958 961 960 957
g Group29823
f 358 359 357 86
g Group59899
f 965 964 963 962
g Group29823
f 89 360 363 362
g Group59899
f 962 963 967 966
g Group29823
f 360 88 361 363
g Group59899
f 963 938 940 967
g Group29823
f 363 361 82 343
g Group59899
f 964 847 938 963
g Group29823
f 362 363 343 54
g Group59899
f 971 970 969 968
g Group29823
f 91 364 367 366
g Group59899
f 968 969 973 972
g Group29823
f 364 90 365 367
g Group59899
f 969 722 726 973
g Group29823
f 367 365 11 199
g Group59899
f 970 725 722 969
g Group29823
f 366 367 199 12
g Group59899
f 977 976 975 974
g Group29823
f 95 368 372 371
g Group59899
f 974 975 979 978
g Group29823
f 368 94 369 372
g Group59899
f 975 981 980 979
g Group29823
f 372 369 93 370
g Group59899
f 976 982 981 975
g Group29823
f 371 372 370 92
g Group59899
f 759 760 984 983
g Group29823
f 25 373 376 219
g Group59899
f 983 984 986 985
g Group29823
f 373 97 374 376
g Group59899
f 984 988 987 986
g Group29823
f 376 374 96 375
g Group59899
f 760 761 988 984
g Group29823
f 219 376 375 24
g Group59899
f 992 991 990 989
g Group29823
f 99 377 380 379
g Group59899
f 989 990 994 993
g Group29823
f 377 98 378 380
g Group59899
f 990 916 917 994
g Group29823
f 380 378 75 326
g Group59899
f 991 901 916 990
g Group29823
f 379 380 326 68
g Group59899
f 998 997 996 995
g Group29823
f 103 381 385 384
g Group59899
f 995 996 1000 999
g Group29823
f 381 102 382 385
g Group59899
f 996 1002 1001 1000
g Group29823
f 385 382 101 383
g Group59899
f 997 1003 1002 996
g Group29823
f 384 385 383 100
g Group59899
f 911 1005 1004 910
g Group29823
f 73 324 388 387
g Group59899
f 910 1004 1006 913
g Group29823
f 324 72 386 388
g Group59899
f 1004 995 999 1006
g Group29823
f 388 386 102 381
g Group59899
f 1005 998 995 1004
g Group29823
f 387 388 381 103
g Group59899
f 1010 1009 1008 1007
g Group29823
f 105 389 392 391
g Group59899
f 1007 1008 1012 1011
g Group29823
f 389 104 390 392
g Group59899
f 1008 920 922 1012
g Group29823
f 392 390 76 330
g Group59899
f 1009 824 920 1008
g Group29823
f 391 392 330 44
g Group59899
f 905 1015 1014 1013
g Group29823
f 71 393 396 395
g Group59899
f 1013 1014 970 971
g Group29823
f 393 91 366 396
g Group59899
f 1014 1016 725 970
g Group29823
f 396 366 12 394
g Group59899
f 1015 1017 1016 1014
g Group29823
f 395 396 394 106
g Group59899
f 1017 1019 1018 1016
g Group29823
f 106 394 398 397
g Group59899
f 1016 1018 724 725
g Group29823
f 394 12 202 398
g Group59899
f 1018 895 730 724
g Group29823
f 398 202 9 313
g Group59899
f 1019 898 895 1018
g Group29823
f 397 398 313 69
g Group59899
f 1023 1022 1021 1020
g Group29823
f 108 399 402 401
g Group59899
f 1020 1021 997 998
g Group29823
f 399 103 384 402
g Group59899
f 1021 1024 1003 997
g Group29823
f 402 384 100 400
g Group59899
f 1022 1025 1024 1021
g Group29823
f 401 402 400 107
g Group59899
f 933 1027 1026 932
g Group29823
f 79 338 404 403
g Group59899
f 932 1026 1005 911
g Group29823
f 338 73 387 404
g Group59899
f 1026 1020 998 1005
g Group29823
f 404 387 103 399
g Group59899
f 1027 1023 1020 1026
g Group29823
f 403 404 399 108
g Group59899
f 933 934 1028 1027
g Group29823
f 79 403 407 340
g Group59899
f 1027 1028 1029 1023
g Group29823
f 403 108 405 407
g Group59899
f 1028 1031 1030 1029
g Group29823
f 407 405 109 406
g Group59899
f 934 936 1031 1028
g Group29823
f 340 407 406 80
g Group59899
f 892 889 1033 1032
g Group29823
f 67 408 411 308
g Group59899
f 1032 1033 1035 1034
g Group29823
f 408 111 409 411
g Group59899
f 1033 1037 1036 1035
g Group29823
f 411 409 110 410
g Group59899
f 889 879 1037 1033
g Group29823
f 308 411 410 61
g Group59899
f 1023 1029 1038 1022
g Group29823
f 108 401 414 405
g Group59899
f 1022 1038 1039 1025
g Group29823
f 401 107 412 414
g Group59899
f 1038 1041 1040 1039
g Group29823
f 414 412 112 413
g Group59899
f 1029 1030 1041 1038
g Group29823
f 405 414 413 109
g Group59899
f 1045 1044 1043 1042
g Group29823
f 114 415 418 417
g Group59899
f 1042 1043 1041 1030
g Group29823
f 415 109 413 418
g Group59899
f 1043 1046 1040 1041
g Group29823
f 418 413 112 416
g Group59899
f 1044 1047 1046 1043
g Group29823
f 417 418 416 113
g Group59899
f 951 1049 1048 950
g Group29823
f 84 351 420 419
g Group59899
f 950 1048 1031 936
g Group29823
f 351 80 406 420
g Group59899
f 1048 1042 1030 1031
g Group29823
f 420 406 109 415
g Group59899
f 1049 1045 1042 1048
g Group29823
f 419 420 415 114
g Group59899
f 955 1051 1050 954
g Group29823
f 85 354 423 422
g Group59899
f 954 1050 1049 951
g Group29823
f 354 84 419 423
g Group59899
f 1050 1052 1045 1049
g Group29823
f 423 419 114 421
g Group59899
f 1051 1053 1052 1050
g Group29823
f 422 423 421 115
g Group59899
f 961 1055 1054 960
g Group29823
f 86 357 426 425
g Group59899
f 960 1054 947 710
g Group29823
f 357 2 348 426
g Group59899
f 1054 1056 946 947
g Group29823
f 426 348 83 424
g Group59899
f 1055 1057 1056 1054
g Group29823
f 425 426 424 116
g Group59899
f 1053 1059 1058 1052
g Group29823
f 115 421 429 428
g Group59899
f 1052 1058 1044 1045
g Group29823
f 421 114 417 429
g Group59899
f 1058 1060 1047 1044
g Group29823
f 429 417 113 427
g Group59899
f 1059 977 1060 1058
g Group29823
f 428 429 427 95
g Group59899
f 1010 1062 1061 1009
g Group29823
f 105 391 431 430
g Group59899
f 1009 1061 823 824
g Group29823
f 391 44 264 431
g Group59899
f 1061 973 726 823
g Group29823
f 431 264 11 365
g Group59899
f 1062 972 973 1061
g Group29823
f 430 431 365 90
g Group59899
f 1066 1065 1064 1063
g Group29823
f 120 432 436 435
g Group59899
f 1063 1064 1068 1067
g Group29823
f 432 119 433 436
g Group59899
f 1064 1070 1069 1068
g Group29823
f 436 433 118 434
g Group59899
f 1065 1071 1070 1064
g Group29823
f 435 436 434 117
g Group59899
f 1075 1074 1073 1072
g Group29823
f 122 437 440 439
g Group59899
f 1072 1073 1070 1071
g Group29823
f 437 117 434 440
g Group59899
f 1073 1076 1069 1070
g Group29823
f 440 434 118 438
g Group59899
f 1074 1077 1076 1073
g Group29823
f 439 440 438 121
g Group59899
f 1003 1079 1078 1002
g Group29823
f 100 383 443 442
g Group59899
f 1002 1078 1080 1001
g Group29823
f 383 101 441 443
g Group59899
f 1078 1063 1067 1080
g Group29823
f 443 441 119 432
g Group59899
f 1079 1066 1063 1078
g Group29823
f 442 443 432 120
g Group59899
f 955 1082 1081 1051
g Group29823
f 85 422 447 446
g Group59899
f 1051 1081 1083 1053
g Group29823
f 422 115 444 447
g Group59899
f 1081 1085 1084 1083
g Group29823
f 447 444 124 445
g Group59899
f 1082 1086 1085 1081
g Group29823
f 446 447 445 123
g Group59899
f 961 1088 1087 1055
g Group29823
f 86 425 451 450
g Group59899
f 1055 1087 1089 1057
g Group29823
f 425 116 448 451
g Group59899
f 1087 1091 1090 1089
g Group29823
f 451 448 125 449
g Group59899
f 1088 884 1091 1087
g Group29823
f 450 451 449 65
g Group59899
f 1095 1094 1093 1092
g Group29823
f 127 452 455 454
g Group59899
f 1092 1093 1065 1066
g Group29823
f 452 120 435 455
g Group59899
f 1093 1096 1071 1065
g Group29823
f 455 435 117 453
g Group59899
f 1094 1097 1096 1093
g Group29823
f 454 455 453 126
g Group59899
f 1101 1100 1099 1098
g Group29823
f 128 456 458 457
g Group59899
f 1098 1099 1096 1097
g Group29823
f 456 126 453 458
g Group59899
f 1099 1072 1071 1096
g Group29823
f 458 453 117 437
g Group59899
f 1100 1075 1072 1099
g Group29823
f 457 458 437 122
g Group59899
f 1025 1103 1102 1024
g Group29823
f 107 400 460 459
g Group59899
f 1024 1102 1079 1003
g Group29823
f 400 100 442 460
g Group59899
f 1102 1092 1066 1079
g Group29823
f 460 442 120 452
g Group59899
f 1103 1095 1092 1102
g Group29823
f 459 460 452 127
g Group59899
f 1025 1039 1104 1103
g Group29823
f 107 459 463 412
g Group59899
f 1103 1104 1105 1095
g Group29823
f 459 127 461 463
g Group59899
f 1104 1107 1106 1105
g Group29823
f 463 461 129 462
g Group59899
f 1039 1040 1107 1104
g Group29823
f 412 463 462 112
g Group59899
f 1101 1098 1109 1108
g Group29823
f 128 464 467 456
g Group59899
f 1108 1109 1111 1110
g Group29823
f 464 131 465 467
g Group59899
f 1109 1113 1112 1111
g Group29823
f 467 465 130 466
g Group59899
f 1098 1097 1113 1109
g Group29823
f 456 467 466 126
g Group59899
f 1095 1105 1114 1094
g Group29823
f 127 454 469 461
g Group59899
f 1094 1114 1113 1097
g Group29823
f 454 126 466 469
g Group59899
f 1114 1115 1112 1113
g Group29823
f 469 466 130 468
g Group59899
f 1105 1106 1115 1114
g Group29823
f 461 469 468 129
g Group59899
f 877 1117 1116 876
g Group29823
f 62 301 472 471
g Group59899
f 876 1116 1037 879
g Group29823
f 301 61 410 472
g Group59899
f 1116 1118 1036 1037
g Group29823
f 472 410 110 470
g Group59899
f 1117 818 1118 1116
g Group29823
f 471 472 470 43
g Group59899
f 1122 1121 1120 1119
g Group29823
f 133 473 476 475
g Group59899
f 1119 1120 1115 1106
g Group29823
f 473 129 468 476
g Group59899
f 1120 1123 1112 1115
g Group29823
f 476 468 130 474
g Group59899
f 1121 1124 1123 1120
g Group29823
f 475 476 474 132
g Group59899
f 1128 1127 1126 1125
g Group29823
f 134 477 479 478
g Group59899
f 1125 1126 1123 1124
g Group29823
f 477 132 474 479
g Group59899
f 1126 1111 1112 1123
g Group29823
f 479 474 130 465
g Group59899
f 1127 1110 1111 1126
g Group29823
f 478 479 465 131
g Group59899
f 1047 1130 1129 1046
g Group29823
f 113 416 481 480
g Group59899
f 1046 1129 1107 1040
g Group29823
f 416 112 462 481
g Group59899
f 1129 1119 1106 1107
g Group29823
f 481 462 129 473
g Group59899
f 1130 1122 1119 1129
g Group29823
f 480 481 473 133
g Group59899
f 977 974 1131 1060
g Group29823
f 95 427 483 368
g Group59899
f 1060 1131 1130 1047
g Group29823
f 427 113 480 483
g Group59899
f 1131 1132 1122 1130
g Group29823
f 483 480 133 482
g Group59899
f 974 978 1132 1131
g Group29823
f 368 483 482 94
g Group59899
f 965 1134 1133 964
g Group29823
f 89 362 485 484
g Group59899
f 964 1133 846 847
g Group29823
f 362 54 281 485
g Group59899
f 1133 704 708 846
g Group29823
f 485 281 3 189
g Group59899
f 1134 707 704 1133
g Group29823
f 484 485 189 4
g Group59899
f 922 923 1136 1135
g Group29823
f 76 486 488 331
g Group59899
f 1135 1136 1138 1137
g Group29823
f 486 135 487 488
g Group59899
f 1136 983 985 1138
g Group29823
f 488 487 97 373
g Group59899
f 923 759 983 1136
g Group29823
f 331 488 373 25
g Group59899
f 843 1141 1140 1139
g Group29823
f 48 489 492 491
g Group59899
f 1139 1140 1143 1142
g Group29823
f 489 136 490 492
g Group59899
f 1140 1125 1124 1143
g Group29823
f 492 490 132 477
g Group59899
f 1141 1128 1125 1140
g Group29823
f 491 492 477 134
g Group59899
f 978 1145 1144 1132
g Group29823
f 94 482 494 493
g Group59899
f 1132 1144 1121 1122
g Group29823
f 482 133 475 494
g Group59899
f 1144 1143 1124 1121
g Group29823
f 494 475 132 490
g Group59899
f 1145 1142 1143 1144
g Group29823
f 493 494 490 136
g Group59899
f 1053 1083 1146 1059
g Group29823
f 115 428 496 444
g Group59899
f 1059 1146 976 977
g Group29823
f 428 95 371 496
g Group59899
f 1146 1147 982 976
g Group29823
f 496 371 92 495
g Group59899
f 1083 1084 1147 1146
g Group29823
f 444 496 495 124
g Group59899
f 1017 1149 1148 1019
g Group29823
f 106 397 499 498
g Group59899
f 1019 1148 915 898
g Group29823
f 397 69 328 499
g Group59899
f 1148 1150 919 915
g Group29823
f 499 328 74 497
g Group59899
f 1149 1151 1150 1148
g Group29823
f 498 499 497 137
g Group59899
f 1155 1154 1153 1152
g Group29823
f 139 500 503 502
g Group59899
f 1152 1153 1074 1075
g Group29823
f 500 122 439 503
g Group59899
f 1153 1156 1077 1074
g Group29823
f 503 439 121 501
g Group59899
f 1154 1157 1156 1153
g Group29823
f 502 503 501 138
g Group59899
f 884 885 1158 1091
g Group29823
f 65 449 506 304
g Group59899
f 1091 1158 1159 1090
g Group29823
f 449 125 504 506
g Group59899
f 1158 1161 1160 1159
g Group29823
f 506 504 140 505
g Group59899
f 885 886 1161 1158
g Group29823
f 304 506 505 64
g Group59899
f 959 1163 1162 958
g Group29823
f 87 358 508 507
g Group59899
f 958 1162 1088 961
g Group29823
f 358 86 450 508
g Group59899
f 1162 880 884 1088
g Group29823
f 508 450 65 303
g Group59899
f 1163 883 880 1162
g Group29823
f 507 508 303 66
g Group59899
f 773 924 1164 894
g Group29823
f 30 311 510 333
g Group59899
f 894 1164 988 761
g Group29823
f 311 24 375 510
g Group59899
f 1164 1165 987 988
g Group29823
f 510 375 96 509
g Group59899
f 924 926 1165 1164
g Group29823
f 333 510 509 78
g Group59899
f 1011 1168 1167 1166
g Group29823
f 104 511 514 513
g Group59899
f 1166 1167 1154 1155
g Group29823
f 511 139 502 514
g Group59899
f 1167 1169 1157 1154
g Group29823
f 514 502 138 512
g Group59899
f 1168 1170 1169 1167
g Group29823
f 513 514 512 141
g Group59899
f 1174 1173 1172 1171
g Group29823
f 142 515 517 516
g Group59899
f 1171 1172 1100 1101
g Group29823
f 515 128 457 517
g Group59899
f 1172 1152 1075 1100
g Group29823
f 517 457 122 500
g Group59899
f 1173 1155 1152 1172
g Group29823
f 516 517 500 139
g Group59899
f 1174 1171 1176 1175
g Group29823
f 142 518 520 515
g Group59899
f 1175 1176 1178 1177
g Group29823
f 518 143 519 520
g Group59899
f 1176 1108 1110 1178
g Group29823
f 520 519 131 464
g Group59899
f 1171 1101 1108 1176
g Group29823
f 515 520 464 128
g Group59899
f 1010 1180 1179 1062
g Group29823
f 105 430 523 522
g Group59899
f 1062 1179 1181 972
g Group29823
f 430 90 521 523
g Group59899
f 1179 1175 1177 1181
g Group29823
f 523 521 143 518
g Group59899
f 1180 1174 1175 1179
g Group29823
f 522 523 518 142
g Group59899
f 978 979 1182 1145
g Group29823
f 94 493 526 369
g Group59899
f 1145 1182 1183 1142
g Group29823
f 493 136 524 526
g Group59899
f 1182 1185 1184 1183
g Group29823
f 526 524 144 525
g Group59899
f 979 980 1185 1182
g Group29823
f 369 526 525 93
g Group59899
f 1010 1007 1186 1180
g Group29823
f 105 522 527 389
g Group59899
f 1180 1186 1173 1174
g Group29823
f 522 142 516 527
g Group59899
f 1186 1166 1155 1173
g Group29823
f 527 516 139 511
g Group59899
f 1007 1011 1166 1186
g Group29823
f 389 527 511 104
g Group59899
f 843 1139 1187 842
g Group29823
f 48 275 529 489
g Group59899
f 842 1187 1188 841
g Group29823
f 275 49 528 529
g Group59899
f 1187 1183 1184 1188
g Group29823
f 529 528 144 524
g Group59899
f 1139 1142 1183 1187
g Group29823
f 489 529 524 136
g Group59899
f 971 968 1190 1189
g Group29823
f 91 530 532 364
g Group59899
f 1189 1190 1192 1191
g Group29823
f 530 145 531 532
g Group59899
f 1190 1181 1177 1192
g Group29823
f 532 531 143 521
g Group59899
f 968 972 1181 1190
g Group29823
f 364 532 521 90
g Group59899
f 1191 1192 1194 1193
g Group29823
f 145 533 534 531
g Group59899
f 1193 1194 1127 1128
g Group29823
f 533 134 478 534
g Group59899
f 1194 1178 1110 1127
g Group29823
f 534 478 131 519
g Group59899
f 1192 1177 1178 1194
g Group29823
f 531 534 519 143
g Group59899
f 838 1196 1195 837
g Group29823
f 51 276 536 535
g Group59899
f 837 1195 1141 843
g Group29823
f 276 48 491 536
g Group59899
f 1195 1193 1128 1141
g Group29823
f 536 491 134 533
g Group59899
f 1196 1191 1193 1195
g Group29823
f 535 536 533 145
g Group59899
f 905 1013 1197 904
g Group29823
f 71 320 537 393
g Group59899
f 904 1197 1196 838
g Group29823
f 320 51 535 537
g Group59899
f 1197 1189 1191 1196
g Group29823
f 537 535 145 530
g Group59899
f 1013 971 1189 1197
g Group29823
f 393 537 530 91
g Group59899
f 730 899 1198 729
g Group29823
f 9 201 538 314
g Group59899
f 729 1198 808 728
g Group29823
f 201 10 252 538
g Group59899
f 1198 736 737 808
g Group29823
f 538 252 14 205
g Group59899
f 899 735 736 1198
g Group29823
f 314 538 205 15
g Group59899
f 992 1200 1199 991
g Group29823
f 99 379 540 539
g Group59899
f 991 1199 900 901
g Group29823
f 379 68 315 540
g Group59899
f 1199 731 735 900
g Group29823
f 540 315 15 204
g Group59899
f 1200 734 731 1199
g Group29823
f 539 540 204 16
g Group59899
f 992 989 1202 1201
g Group29823
f 99 541 544 377
g Group59899
f 1201 1202 1204 1203
g Group29823
f 541 147 542 544
g Group59899
f 1202 1206 1205 1204
g Group29823
f 544 542 146 543
g Group59899
f 989 993 1206 1202
g Group29823
f 377 544 543 98
g Group59899
f 955 952 1207 1082
g Group29823
f 85 446 546 353
g Group59899
f 1082 1207 1208 1086
g Group29823
f 446 123 545 546
g Group59899
f 1207 1032 1034 1208
g Group29823
f 546 545 111 408
g Group59899
f 952 892 1032 1207
g Group29823
f 353 546 408 67
g Group59899
f 1011 1012 1209 1168
g Group29823
f 104 513 548 390
g Group59899
f 1168 1209 1210 1170
g Group29823
f 513 141 547 548
g Group59899
f 1209 1135 1137 1210
g Group29823
f 548 547 135 486
g Group59899
f 1012 922 1135 1209
g Group29823
f 390 548 486 76
g Group59899
f 905 902 1211 1015
g Group29823
f 71 395 550 318
g Group59899
f 1015 1211 1149 1017
g Group29823
f 395 106 498 550
g Group59899
f 1211 1212 1151 1149
g Group29823
f 550 498 137 549
g Group59899
f 902 906 1212 1211
g Group29823
f 318 550 549 70
g Group59899
f 992 1201 1213 1200
g Group29823
f 99 539 552 541
g Group59899
f 1200 1213 802 734
g Group29823
f 539 16 249 552
g Group59899
f 1213 1214 804 802
g Group29823
f 552 249 39 551
g Group59899
f 1201 1203 1214 1213
g Group29823
f 541 552 551 147
g Group59899
f 848 849 1216 1215
g Group29823
f 53 553 555 279
g Group59899
f 1215 1216 1214 1203
g Group29823
f 553 147 551 555
g Group59899
f 1216 1217 804 1214
g Group29823
f 555 551 39 554
g Group59899
f 849 850 1217 1216
g Group29823
f 279 555 554 52
g Group59899
f 848 1215 1218 943
g Group29823
f 53 345 557 553
g Group59899
f 943 1218 1219 942
g Group29823
f 345 81 556 557
g Group59899
f 1218 1204 1205 1219
g Group29823
f 557 556 146 542
g Group59899
f 1215 1203 1204 1218
g Group29823
f 553 557 542 147
g Group59899
f 850 945 1220 1217
g Group29823
f 52 554 559 347
g Group59899
f 1217 1220 803 804
g Group29823
f 554 39 248 559
g Group59899
f 1220 1221 787 803
g Group29823
f 559 248 34 558
g Group59899
f 945 946 1221 1220
g Group29823
f 347 559 558 83
g Group59899
f 1057 1223 1222 1056
g Group29823
f 116 424 561 560
g Group59899
f 1056 1222 1221 946
g Group29823
f 424 83 558 561
g Group59899
f 1222 786 787 1221
g Group29823
f 561 558 34 236
g Group59899
f 1223 777 786 1222
g Group29823
f 560 561 236 28
g Group59899
f 1057 1089 1224 1223
g Group29823
f 116 560 563 448
g Group59899
f 1223 1224 776 777
g Group29823
f 560 28 229 563
g Group59899
f 1224 1225 775 776
g Group29823
f 563 229 29 562
g Group59899
f 1089 1090 1225 1224
g Group29823
f 448 563 562 125
g Group59899
f 1090 1159 1226 1225
g Group29823
f 125 562 565 504
g Group59899
f 1225 1226 929 775
g Group29823
f 562 29 335 565
g Group59899
f 1226 1227 928 929
g Group29823
f 565 335 77 564
g Group59899
f 1159 1160 1227 1226
g Group29823
f 504 565 564 140
g Group59899
f 719 720 1229 1228
g Group29823
f 6 566 568 196
g Group59899
f 1228 1229 1230 752
g Group29823
f 566 22 567 568
g Group59899
f 720 721 1230 1229
g Group29823
f 196 568 567 5
g Group59899
f 748 1232 1231 747
g Group29823
f 17 211 572 571
g Group59899
f 747 1231 1233 746
g Group29823
f 211 18 570 572
g Group59899
f 1231 1235 1234 1233
g Group59902
f 569 149 1234 1235
g Group29823
f 572 570 149 569
g Group59899
f 1232 1236 1235 1231
g Group59902
f 148 569 1235 1236
g Group29823
f 571 572 569 148
g Group59899
f 753 754 1237 766
g Group29823
f 21 225 574 215
g Group59899
f 766 1237 1238 768
g Group59902
f 573 27 768 1238
g Group29823
f 225 27 573 574
g Group59899
f 1237 1233 1234 1238
g Group59902
f 149 573 1238 1234
g Group29823
f 574 573 149 570
g Group59899
f 754 746 1233 1237
g Group29823
f 215 574 570 18
g Group59899
f 719 1228 1239 764
g Group29823
f 6 224 575 566
g Group59899
f 764 1239 749 753
g Group29823
f 224 21 214 575
g Group59899
f 1228 752 749 1239
g Group29823
f 566 575 214 22
g Group59899
f 783 1241 1240 782
g Group29823
f 32 233 577 576
g Group59899
f 782 1240 1230 721
g Group29823
f 233 5 567 577
g Group59899
f 1240 831 752 1230
g Group29823
f 577 567 22 270
g Group59899
f 1241 834 831 1240
g Group29823
f 576 577 270 47
g Group59899
f 783 791 1242 1241
g Group29823
f 32 576 579 241
g Group59899
f 1241 1242 853 834
g Group29823
f 576 47 285 579
g Group59899
f 1242 1243 857 853
g Group29823
f 579 285 55 578
g Group59899
f 791 792 1243 1242
g Group29823
f 241 579 578 36
g Group59899
f 800 1245 1244 799
g Group29823
f 37 245 581 580
g Group59899
f 799 1244 1243 792
g Group29823
f 245 36 578 581
g Group59899
f 1244 868 857 1243
g Group29823
f 581 578 55 294
g Group59899
f 1245 871 868 1244
g Group29823
f 580 581 294 60
g Group59899
f 814 1247 1246 813
g Group29823
f 40 256 583 582
g Group59899
f 813 1246 1245 800
g Group29823
f 256 37 580 583
g Group59899
f 1246 874 871 1245
g Group29823
f 583 580 60 299
g Group59899
f 1247 877 874 1246
g Group29823
f 582 583 299 62
g Group59899
f 814 817 1248 1247
g Group29823
f 40 582 584 260
g Group59899
f 1247 1248 1117 877
g Group29823
f 582 62 471 584
g Group59899
f 817 818 1117 1248
g Group29823
f 260 584 471 43
g Group59899
f 839 840 1250 1249
g Group29823
f 50 586 588 274
g Group59899
f 1249 1250 1252 1251
g Group59902
f 585 151 1251 1252
g Group29823
f 586 151 585 588
g Group59899
f 1250 1254 1253 1252
g Group59902
f 150 585 1252 1253
g Group29823
f 588 585 150 587
g Group59899
f 840 841 1254 1250
g Group29823
f 274 588 587 49
g Group59899
f 888 1256 1255 887
g Group29823
f 63 305 592 591
g Group59899
f 887 1255 1257 886
g Group29823
f 305 64 590 592
g Group59899
f 1255 1259 1258 1257
g Group59902
f 589 153 1258 1259
g Group29823
f 592 590 153 589
g Group59899
f 1256 1260 1259 1255
g Group59902
f 152 589 1259 1260
g Group29823
f 591 592 589 152
g Group59899
f 906 907 1262 1261
g Group29823
f 70 594 595 319
g Group59899
f 1261 1262 1264 1263
g Group59902
f 593 154 1263 1264
g Group29823
f 594 154 593 595
g Group59899
f 1262 1249 1251 1264
g Group59902
f 151 593 1264 1251
g Group29823
f 595 593 151 586
g Group59899
f 907 839 1249 1262
g Group29823
f 319 595 586 50
g Group59899
f 913 1266 1265 912
g Group29823
f 72 323 598 597
g Group59899
f 912 1265 1232 748
g Group29823
f 323 17 571 598
g Group59899
f 1265 1267 1236 1232
g Group59902
f 596 148 1236 1267
g Group29823
f 598 571 148 596
g Group59899
f 1266 1268 1267 1265
g Group59902
f 155 596 1267 1268
g Group29823
f 597 598 596 155
g Group59899
f 919 1270 1269 918
g Group29823
f 74 327 602 601
g Group59899
f 918 1269 1271 917
g Group29823
f 327 75 600 602
g Group59899
f 1269 1273 1272 1271
g Group59902
f 599 157 1272 1273
g Group29823
f 602 600 157 599
g Group59899
f 1270 1274 1273 1269
g Group59902
f 156 599 1273 1274
g Group29823
f 601 602 599 156
g Group59899
f 926 927 1276 1275
g Group29823
f 78 604 606 334
g Group59899
f 1275 1276 1278 1277
g Group59902
f 603 159 1277 1278
g Group29823
f 604 159 603 606
g Group59899
f 1276 1280 1279 1278
g Group59902
f 158 603 1278 1279
g Group29823
f 606 603 158 605
g Group59899
f 927 928 1280 1276
g Group29823
f 334 606 605 77
g Group59899
f 940 941 1282 1281
g Group29823
f 82 608 610 344
g Group59899
f 1281 1282 1284 1283
g Group59902
f 607 161 1283 1284
g Group29823
f 608 161 607 610
g Group59899
f 1282 1286 1285 1284
g Group59902
f 160 607 1284 1285
g Group29823
f 610 607 160 609
g Group59899
f 941 942 1286 1282
g Group29823
f 344 610 609 81
g Group59899
f 966 967 1288 1287
g Group29823
f 88 612 613 361
g Group59899
f 1287 1288 1290 1289
g Group59902
f 611 162 1289 1290
g Group29823
f 612 162 611 613
g Group59899
f 1288 1281 1283 1290
g Group59902
f 161 611 1290 1283
g Group29823
f 613 611 161 608
g Group59899
f 967 940 1281 1288
g Group29823
f 361 613 608 82
g Group59899
f 982 1292 1291 981
g Group29823
f 92 370 617 616
g Group59899
f 981 1291 1293 980
g Group29823
f 370 93 615 617
g Group59899
f 1291 1295 1294 1293
g Group59902
f 614 164 1294 1295
g Group29823
f 617 615 164 614
g Group59899
f 1292 1296 1295 1291
g Group59902
f 163 614 1295 1296
g Group29823
f 616 617 614 163
g Group59899
f 985 986 1298 1297
g Group29823
f 97 619 621 374
g Group59899
f 1297 1298 1300 1299
g Group59902
f 618 166 1299 1300
g Group29823
f 619 166 618 621
g Group59899
f 1298 1302 1301 1300
g Group59902
f 165 618 1300 1301
g Group29823
f 621 618 165 620
g Group59899
f 986 987 1302 1298
g Group29823
f 374 621 620 96
g Group59899
f 993 994 1304 1303
g Group29823
f 98 623 624 378
g Group59899
f 1303 1304 1306 1305
g Group59902
f 622 167 1305 1306
g Group29823
f 623 167 622 624
g Group59899
f 1304 1271 1272 1306
g Group59902
f 157 622 1306 1272
g Group29823
f 624 622 157 600
g Group59899
f 994 917 1271 1304
g Group29823
f 378 624 600 75
g Group59899
f 999 1000 1308 1307
g Group29823
f 102 626 628 382
g Group59899
f 1307 1308 1310 1309
g Group59902
f 625 169 1309 1310
g Group29823
f 626 169 625 628
g Group59899
f 1308 1312 1311 1310
g Group59902
f 168 625 1310 1311
g Group29823
f 628 625 168 627
g Group59899
f 1000 1001 1312 1308
g Group29823
f 382 628 627 101
g Group59899
f 913 1006 1313 1266
g Group29823
f 72 597 630 386
g Group59899
f 1266 1313 1314 1268
g Group59902
f 629 155 1268 1314
g Group29823
f 597 155 629 630
g Group59899
f 1313 1307 1309 1314
g Group59902
f 169 629 1314 1309
g Group29823
f 630 629 169 626
g Group59899
f 1006 999 1307 1313
g Group29823
f 386 630 626 102
g Group59899
f 1034 1035 1316 1315
g Group29823
f 111 632 634 409
g Group59899
f 1315 1316 1318 1317
g Group59902
f 631 171 1317 1318
g Group29823
f 632 171 631 634
g Group59899
f 1316 1320 1319 1318
g Group59902
f 170 631 1318 1319
g Group29823
f 634 631 170 633
g Group59899
f 1035 1036 1320 1316
g Group29823
f 409 634 633 110
g Group59899
f 1067 1068 1322 1321
g Group29823
f 119 636 638 433
g Group59899
f 1321 1322 1324 1323
g Group59902
f 635 173 1323 1324
g Group29823
f 636 173 635 638
g Group59899
f 1322 1326 1325 1324
g Group59902
f 172 635 1324 1325
g Group29823
f 638 635 172 637
g Group59899
f 1068 1069 1326 1322
g Group29823
f 433 638 637 118
g Group59899
f 1077 1328 1327 1076
g Group29823
f 121 438 641 640
g Group59899
f 1076 1327 1326 1069
g Group29823
f 438 118 637 641
g Group59899
f 1327 1329 1325 1326
g Group59902
f 639 172 1325 1329
g Group29823
f 641 637 172 639
g Group59899
f 1328 1330 1329 1327
g Group59902
f 174 639 1329 1330
g Group29823
f 640 641 639 174
g Group59899
f 1001 1080 1331 1312
g Group29823
f 101 627 643 441
g Group59899
f 1312 1331 1332 1311
g Group59902
f 642 168 1311 1332
g Group29823
f 627 168 642 643
g Group59899
f 1331 1321 1323 1332
g Group59902
f 173 642 1332 1323
g Group29823
f 643 642 173 636
g Group59899
f 1080 1067 1321 1331
g Group29823
f 441 643 636 119
g Group59899
f 1086 1334 1333 1085
g Group29823
f 123 445 647 646
g Group59899
f 1085 1333 1335 1084
g Group29823
f 445 124 645 647
g Group59899
f 1333 1337 1336 1335
g Group59902
f 644 176 1336 1337
g Group29823
f 647 645 176 644
g Group59899
f 1334 1338 1337 1333
g Group59902
f 175 644 1337 1338
g Group29823
f 646 647 644 175
g Group59899
f 818 819 1339 1118
g Group29823
f 43 470 649 261
g Group59899
f 1118 1339 1320 1036
g Group29823
f 470 110 633 649
g Group59899
f 1339 1340 1319 1320
g Group59902
f 648 170 1319 1340
g Group29823
f 649 633 170 648
g Group59899
f 819 820 1340 1339
g Group59902
f 42 648 1340 820
g Group29823
f 261 649 648 42
g Group59899
f 1137 1138 1342 1341
g Group29823
f 135 651 652 487
g Group59899
f 1341 1342 1344 1343
g Group59902
f 650 177 1343 1344
g Group29823
f 651 177 650 652
g Group59899
f 1342 1297 1299 1344
g Group59902
f 166 650 1344 1299
g Group29823
f 652 650 166 619
g Group59899
f 1138 985 1297 1342
g Group29823
f 487 652 619 97
g Group59899
f 1084 1335 1345 1147
g Group29823
f 124 495 654 645
g Group59899
f 1147 1345 1292 982
g Group29823
f 495 92 616 654
g Group59899
f 1345 1346 1296 1292
g Group59902
f 653 163 1296 1346
g Group29823
f 654 616 163 653
g Group59899
f 1335 1336 1346 1345
g Group59902
f 176 653 1346 1336
g Group29823
f 645 654 653 176
g Group59899
f 1151 1348 1347 1150
g Group29823
f 137 497 657 656
g Group59899
f 1150 1347 1270 919
g Group29823
f 497 74 601 657
g Group59899
f 1347 1349 1274 1270
g Group59902
f 655 156 1274 1349
g Group29823
f 657 601 156 655
g Group59899
f 1348 1350 1349 1347
g Group59902
f 178 655 1349 1350
g Group29823
f 656 657 655 178
g Group59899
f 1157 1352 1351 1156
g Group29823
f 138 501 660 659
g Group59899
f 1156 1351 1328 1077
g Group29823
f 501 121 640 660
g Group59899
f 1351 1353 1330 1328
g Group59902
f 658 174 1330 1353
g Group29823
f 660 640 174 658
g Group59899
f 1352 1354 1353 1351
g Group59902
f 179 658 1353 1354
g Group29823
f 659 660 658 179
g Group59899
f 886 1257 1355 1161
g Group29823
f 64 505 663 590
g Group59899
f 1161 1355 1356 1160
g Group29823
f 505 140 662 663
g Group59899
f 1355 1358 1357 1356
g Group59902
f 661 180 1357 1358
g Group29823
f 663 662 180 661
g Group59899
f 1257 1258 1358 1355
g Group59902
f 153 661 1358 1258
g Group29823
f 590 663 661 153
g Group59899
f 926 1275 1359 1165
g Group29823
f 78 509 665 604
g Group59899
f 1165 1359 1302 987
g Group29823
f 509 96 620 665
g Group59899
f 1359 1360 1301 1302
g Group59902
f 664 165 1301 1360
g Group29823
f 665 620 165 664
g Group59899
f 1275 1277 1360 1359
g Group59902
f 159 664 1360 1277
g Group29823
f 604 665 664 159
g Group59899
f 1170 1362 1361 1169
g Group29823
f 141 512 668 667
g Group59899
f 1169 1361 1352 1157
g Group29823
f 512 138 659 668
g Group59899
f 1361 1363 1354 1352
g Group59902
f 666 179 1354 1363
g Group29823
f 668 659 179 666
g Group59899
f 1362 1364 1363 1361
g Group59902
f 181 666 1363 1364
g Group29823
f 667 668 666 181
g Group59899
f 980 1293 1365 1185
g Group29823
f 93 525 671 615
g Group59899
f 1185 1365 1366 1184
g Group29823
f 525 144 670 671
g Group59899
f 1365 1368 1367 1366
g Group59902
f 669 182 1367 1368
g Group29823
f 671 670 182 669
g Group59899
f 1293 1294 1368 1365
g Group59902
f 164 669 1368 1294
g Group29823
f 615 671 669 164
g Group59899
f 841 1188 1369 1254
g Group29823
f 49 587 673 528
g Group59899
f 1254 1369 1370 1253
g Group59902
f 672 150 1253 1370
g Group29823
f 587 150 672 673
g Group59899
f 1369 1366 1367 1370
g Group59902
f 182 672 1370 1367
g Group29823
f 673 672 182 670
g Group59899
f 1188 1184 1366 1369
g Group29823
f 528 673 670 144
g Group59899
f 993 1303 1371 1206
g Group29823
f 98 543 676 623
g Group59899
f 1206 1371 1372 1205
g Group29823
f 543 146 675 676
g Group59899
f 1371 1374 1373 1372
g Group59902
f 674 183 1373 1374
g Group29823
f 676 675 183 674
g Group59899
f 1303 1305 1374 1371
g Group59902
f 167 674 1374 1305
g Group29823
f 623 676 674 167
g Group59899
f 1086 1208 1375 1334
g Group29823
f 123 646 678 545
g Group59899
f 1334 1375 1376 1338
g Group59902
f 677 175 1338 1376
g Group29823
f 646 175 677 678
g Group59899
f 1375 1315 1317 1376
g Group59902
f 171 677 1376 1317
g Group29823
f 678 677 171 632
g Group59899
f 1208 1034 1315 1375
g Group29823
f 545 678 632 111
g Group59899
f 1170 1210 1377 1362
g Group29823
f 141 667 680 547
g Group59899
f 1362 1377 1378 1364
g Group59902
f 679 181 1364 1378
g Group29823
f 667 181 679 680
g Group59899
f 1377 1341 1343 1378
g Group59902
f 177 679 1378 1343
g Group29823
f 680 679 177 651
g Group59899
f 1210 1137 1341 1377
g Group29823
f 547 680 651 135
g Group59899
f 906 1261 1379 1212
g Group29823
f 70 549 682 594
g Group59899
f 1212 1379 1348 1151
g Group29823
f 549 137 656 682
g Group59899
f 1379 1380 1350 1348
g Group59902
f 681 178 1350 1380
g Group29823
f 682 656 178 681
g Group59899
f 1261 1263 1380 1379
g Group59902
f 154 681 1380 1263
g Group29823
f 594 682 681 154
g Group59899
f 942 1219 1381 1286
g Group29823
f 81 609 684 556
g Group59899
f 1286 1381 1382 1285
g Group59902
f 683 160 1285 1382
g Group29823
f 609 160 683 684
g Group59899
f 1381 1372 1373 1382
g Group59902
f 183 683 1382 1373
g Group29823
f 684 683 183 675
g Group59899
f 1219 1205 1372 1381
g Group29823
f 556 684 675 146
g Group59899
f 1160 1356 1383 1227
g Group29823
f 140 564 686 662
g Group59899
f 1227 1383 1280 928
g Group29823
f 564 77 605 686
g Group59899
f 1383 1384 1279 1280
g Group59902
f 685 158 1279 1384
g Group29823
f 686 605 158 685
g Group59899
f 1356 1357 1384 1383
g Group59902
f 180 685 1384 1357
g Group29823
f 662 686 685 180
g Group59899
f 1260 1256 1386 1385
g Group59902
f 687 152 1260 1385
g Group29823
f 152 687 689 591
g Group59899
f 1385 1386 1388 1387
g Group59902
f 184 687 1385 1387
g Group29823
f 687 184 688 689
g Group59899
f 1386 882 883 1388
g Group29823
f 689 688 66 306
g Group59899
f 1256 888 882 1386
g Group29823
f 591 689 306 63
g Group59899
f 1387 1388 1390 1389
g Group59902
f 690 184 1387 1389
g Group29823
f 184 690 692 688
g Group59899
f 1389 1390 1392 1391
g Group59902
f 185 690 1389 1391
g Group29823
f 690 185 691 692
g Group59899
f 1390 1163 959 1392
g Group29823
f 692 691 87 507
g Group59899
f 1388 883 1163 1390
g Group29823
f 688 692 507 66
g Group59899
f 1391 1392 1394 1393
g Group59902
f 693 185 1391 1393
g Group29823
f 185 693 695 691
g Group59899
f 1393 1394 1396 1395
g Group59902
f 186 693 1393 1395
g Group29823
f 693 186 694 695
g Group59899
f 1394 956 712 1396
g Group29823
f 695 694 1 356
g Group59899
f 1392 959 956 1394
g Group29823
f 691 695 356 87
g Group59899
f 1395 1396 1398 1397
g Group59902
f 696 186 1395 1397
g Group29823
f 186 696 698 694
g Group59899
f 1397 1398 1400 1399
g Group59902
f 187 696 1397 1399
g Group29823
f 696 187 697 698
g Group59899
f 1398 706 707 1400
g Group29823
f 698 697 4 192
g Group59899
f 1396 712 706 1398
g Group29823
f 694 698 192 1
g Group59899
f 1399 1400 1402 1401
g Group59902
f 699 187 1399 1401
g Group29823
f 187 699 701 697
g Group59899
f 1401 1402 1404 1403
g Group59902
f 188 699 1401 1403
g Group29823
f 699 188 700 701
g Group59899
f 1402 1134 965 1404
g Group29823
f 701 700 89 484
g Group59899
f 1400 707 1134 1402
g Group29823
f 697 701 484 4
g Group59899
f 1403 1404 1406 1405
g Group59902
f 702 188 1403 1405
g Group29823
f 188 702 703 700
g Group59899
f 1405 1406 1287 1289
g Group59902
f 162 702 1405 1289
g Group29823
f 702 162 612 703
g Group59899
f 1406 962 966 1287
g Group29823
f 703 612 88 360
g Group59899
f 1404 965 962 1406
g Group29823
f 700 703 360 89

 