# File exported by ZBrush version 2021
# www.zbrush.com
#Vertex Count 1560
#Face Count 1626
#Auto scale x=0.047110 y=0.047110 z=0.047110
#Auto offset x=-0.029091 y=0.022900 z=-0.434581
v -1.7621842 -6.75137192 26.25035235
v -1.77262505 6.81448643 26.68087139
v -11.87235766 -6.91131443 23.39559691
v -12.01238382 6.65180979 23.80361034
v -20.26478784 -7.12656826 15.94489123
v -20.52671347 6.42918357 16.33218554
v -25.52073256 -7.30059766 5.05406894
v -26.00314304 6.26627033 5.42113091
v -27.61106917 -7.29764908 -6.25556473
v -27.45818085 6.00192814 -6.52880516
v -24.71390379 6.32552974 5.08195771
v -24.37532018 -7.22407569 4.70594815
v -26.43335337 -7.19840958 -7.23577321
v -26.63078478 6.14470299 -7.2723657
v -1.56258137 6.83121824 25.44110703
v -1.55214004 -6.73464707 25.01035519
v -11.21195197 -6.88670731 22.28296113
v -11.34591271 6.67662567 22.69241944
v -19.44201612 6.47207238 15.58733449
v -19.1926376 -7.08466251 15.19748192
v -24.73713816 -7.21714358 1.750725
v -25.08615472 6.33152432 2.12547156
v -26.34876377 6.27046135 2.67366489
v -25.98387891 -7.27663959 2.30202063
v -28.46441223 -7.43656123 -0.02037941
v -28.33369803 5.89745572 -0.85052859
v -27.21597356 5.9563324 -0.96120751
v -27.39865258 -7.44479903 -0.62979512
v -26.00880614 -7.80341792 5.36656355
v -26.51056425 6.04378898 5.31532464
v -27.44803384 6.16545121 5.49764972
v -26.99767373 -7.54486282 5.55849128
v -1.55853411 -0.41023736 25.21116218
v -11.28350608 -0.56337485 22.47384632
v -11.94722789 -0.58808034 23.58592541
v -1.76865876 -0.4270446 26.45108596
v -19.32432855 -0.7641635 15.37915699
v -24.55291052 -0.90655786 4.88116337
v -25.76784635 -0.9750466 5.22511465
v -20.40311735 -0.80651381 16.12544406
v -27.23079173 -1.15238354 5.53004993
v -26.26628455 -1.3471206 5.34259947
v -27.73043188 -7.49172198 2.77261402
v -27.89021561 6.0312678 2.32749569
v -26.8628982 5.99987217 2.18095431
v -26.70352946 -7.62519055 2.3721887
v -27.80814379 -2.45663328 2.60685153
v -28.07387138 -1.20041703 1.31839102
v -27.99203742 -2.10508551 1.70317388
v -27.83922501 0.08364575 2.52325196
v -28.00879642 -0.3082767 1.66426858
v -27.57486384 -1.17233105 3.81162264
v -27.6381675 -2.06454935 3.46582478
v -27.65718112 -0.26782152 3.42692645
v -24.95243943 0.36975956 1.9605808
v -25.12103917 -0.91891919 0.67051916
v -25.08809809 0.00211432 1.04575346
v -24.76336096 -0.90298498 3.18669226
v -24.83369921 -0.01402282 2.83202273
v -24.88598539 -2.17018166 1.89028621
v -25.03653813 -1.79441913 1.03030078
v -24.78343736 -1.81032918 2.80230857
v -26.37029516 -0.97817599 1.21937609
v -26.20897293 0.30963364 2.51003807
v -26.33993512 -0.05785051 1.59520567
v -25.98881324 -0.96712519 3.73256455
v -26.06894677 -0.07514542 3.38078793
v -26.13945202 -2.23020446 2.44038684
v -26.28781847 -1.85414983 1.57950122
v -26.01650369 -1.87149052 3.34767351
v -26.81158876 -0.00172764 2.26513462
v -27.0138634 -1.2414724 1.03077587
v -26.9572021 -0.36973584 1.4021576
v -26.78082131 -2.54304083 2.30090724
v -26.94255094 -2.16696327 1.39231551
v -26.57976887 -1.30305608 3.53518122
v -26.65156463 -0.37772724 3.17364285
v -26.63489166 -2.17495436 3.16380392
v -28.44506965 -1.12704928 2.76183568
v -28.24894395 -1.16325987 3.82774398
v -28.24465488 -1.37372297 3.79878263
v -28.2480583 -1.57481321 3.73004804
v -28.25906565 -1.75858735 3.62401308
v -28.27719615 -1.91817466 3.4848947
v -28.30180454 -2.04731794 3.31789609
v -28.33199505 -2.14108619 3.1296514
v -28.36647716 -2.19591276 2.92715598
v -28.40410965 -2.20965535 2.71835537
v -28.44329076 -2.1817922 2.5111717
v -28.48254779 -2.11333374 2.31373397
v -28.52034223 -2.00701601 2.13343355
v -28.55514823 -1.86688515 1.97729236
v -28.58574108 -1.69831459 1.85141507
v -28.61083784 -1.50778666 1.76031975
v -28.62945671 -1.30261824 1.70782923
v -28.64094991 -1.09076357 1.69576036
v -28.64483664 -0.88021945 1.72472172
v -28.64102329 -0.67928527 1.79362331
v -28.62969457 -0.495433 1.8995735
v -28.61132368 -0.33592674 2.03869504
v -28.58655082 -0.2068676 2.20561331
v -28.55644128 -0.11309611 2.39394088
v -28.52195917 -0.0582723 2.59635722
v -28.48465057 -0.04452964 2.80515403
v -28.44588445 -0.07247368 3.01234403
v -28.40702723 -0.14085156 3.20977606
v -28.36955163 -0.24708808 3.39007522
v -28.33498601 -0.38721934 3.54621577
v -28.30463609 -0.55578697 3.67217341
v -28.27946341 -0.74623689 3.76318523
v -28.26068512 -0.95132422 3.81567385
v -27.66017967 -1.1382576 3.7234392
v -27.65540476 -1.34872078 3.69447532
v -27.65840838 -1.54973013 3.62573693
v -27.66900074 -1.73358509 3.51970703
v -27.6867289 -1.89317263 3.38058739
v -27.71109184 -2.02239657 3.21359258
v -27.74104196 -2.11624563 3.02534915
v -27.77544056 -2.17115065 2.82293723
v -27.81307559 -2.18497674 2.61406134
v -27.85233514 -2.15719456 2.40687958
v -27.89166808 -2.08889489 2.20952851
v -27.92971556 -1.98266082 2.02915217
v -27.9648404 -1.84252996 1.87300909
v -27.99575461 -1.67396233 1.74705209
v -28.02125118 -1.48359326 1.65604407
v -28.04027998 -1.27850866 1.60347447
v -28.05225649 -1.06657021 1.59148595
v -28.05663159 -0.85610707 1.6204454
v -28.05323323 -0.6550921 1.689347
v -28.04230685 -0.47132096 1.79529656
v -28.02425986 -0.31173334 1.9344181
v -27.99973497 -0.18251209 2.10133004
v -27.96978232 -0.088741 2.28966203
v -27.9354571 -0.03383922 2.49198981
v -27.898232 -0.02009395 2.70086886
v -27.85929381 -0.047798 2.90796776
v -27.82028224 -0.11609498 3.1053979
v -27.78264469 -0.22240947 3.28578056
v -27.74783615 -0.3624596 3.44191605
v -27.71700291 -0.53086267 3.56795213
v -27.69150634 -0.72123431 3.65887855
v -27.67232572 -0.9264 3.71145321
v -27.36570897 -1.12519448 3.67114416
v -27.36085815 -1.33573574 3.64226567
v -27.36360619 -1.53674794 3.57344632
v -27.37397334 -1.7206029 3.46741705
v -27.39161547 -1.88019044 3.32829804
v -27.41589744 -2.00941137 3.16138231
v -27.44568308 -2.10334441 2.97306106
v -27.48000577 -2.15824912 2.77064978
v -27.51764332 -2.17215349 2.56185676
v -27.55681178 -2.14436847 2.35475597
v -27.59639017 -2.07607449 2.15724359
v -27.63452622 -1.96992155 1.97686789
v -27.66981047 -1.82994947 1.82081337
v -27.70088916 -1.66138176 1.69485384
v -27.72655021 -1.47101269 1.60384834
v -27.74581687 -1.26584712 1.55127432
v -27.75803124 -1.05407338 1.53920862
v -27.76257082 -0.84352634 1.56825221
v -27.75941538 -0.64243602 1.636983
v -27.74865348 -0.45866227 1.74301859
v -27.73075325 -0.29907489 1.88213824
v -27.70639031 -0.16993437 2.04905777
v -27.67653381 -0.07607914 2.23746062
v -27.6422845 -0.02117744 2.43978903
v -27.60498097 -0.00727054 2.64866428
v -27.56604531 -0.03505809 2.85568664
v -27.52702614 -0.10335183 3.05319648
v -27.48922917 -0.20950802 3.23349185
v -27.45426881 -0.34955822 3.38962924
v -27.42334448 -0.51796438 3.51558181
v -27.39761005 -0.70833032 3.60667207
v -27.37817638 -0.91341781 3.65915943
v -27.07148878 -1.11196675 3.61892439
v -27.06631153 -1.32242997 3.58996367
v -27.06890269 -1.52343932 3.52122529
v -27.0791003 -1.7073751 3.41519855
v -27.09658048 -1.86696248 3.27607828
v -27.12061953 -1.99618373 3.10916444
v -27.15040517 -2.09011393 2.92092354
v -27.18480884 -2.14510213 2.71843571
v -27.2222895 -2.15900666 2.50964143
v -27.26161991 -2.13130261 2.30254253
v -27.30112492 -2.06308961 2.10503332
v -27.33940267 -1.95693635 1.92465824
v -27.37477549 -1.81688346 1.76860183
v -27.40610216 -1.64848031 1.64256892
v -27.4320036 -1.45810863 1.55163807
v -27.45143473 -1.25302395 1.49907164
v -27.46389202 -1.04116619 1.48708374
v -27.46859102 -0.83070578 1.51596476
v -27.4656785 -0.62969114 1.58486382
v -27.45515193 -0.44583894 1.69081401
v -27.43734532 -0.28624871 1.8300121
v -27.4131418 -0.15702999 1.99684686
v -27.38335616 -0.06309711 2.18517
v -27.34920047 -0.00811207 2.38757622
v -27.31197032 0.00571164 2.59637557
v -27.27303972 -0.02198955 2.80355291
v -27.23385861 -0.09020517 3.00097925
v -27.1959832 -0.19636158 3.18127651
v -27.16086089 -0.33624937 3.33740694
v -27.12968098 -0.50473666 3.46336521
v -27.10378967 -0.69510557 3.55437197
v -27.08418899 -0.90010935 3.60693714
v -26.7773521 -1.09833187 3.56677359
v -26.77200278 -1.30879208 3.53789004
v -26.77435354 -1.50980713 3.46899288
v -26.78430824 -1.69374013 3.36304585
v -26.80163153 -1.85332744 3.22392621
v -26.82558707 -1.98263235 3.05693645
v -26.85521077 -2.07656255 2.86869113
v -26.88953852 -2.1316292 2.66628617
v -26.92700907 -2.14553341 2.45749252
v -26.966342 -2.11783221 2.25031518
v -27.00601402 -2.04969702 2.05289073
v -27.04437021 -1.94362505 1.87251756
v -27.07991257 -1.80357215 1.71645861
v -27.11131262 -1.63524982 1.59042823
v -27.13745698 -1.44479994 1.49941704
v -27.15712598 -1.23979346 1.44693285
v -27.16975533 -1.02793867 1.43486335
v -27.17476811 -0.81747545 1.4638266
v -27.17202007 -0.61638521 1.53256245
v -27.16174148 -0.43261099 1.63859551
v -27.14409429 -0.27302123 1.7777936
v -27.1199768 -0.14371861 1.94470681
v -27.09035311 -0.04978573 2.13302868
v -27.05619489 0.00519717 2.33535519
v -27.01896221 0.01910408 2.54423045
v -26.98003161 -0.00851946 2.75132555
v -26.94077205 -0.07673231 2.9488354
v -26.90272457 -0.18288802 3.12912887
v -26.86743272 -0.32277936 3.28518085
v -26.83619715 -0.49109846 3.41129284
v -26.81013123 -0.68147061 3.50222053
v -26.79029522 -0.88647431 3.55478696
v -26.48320782 -1.08437598 3.51452852
v -26.47762317 -1.29483639 3.4856475
v -26.47980946 -1.49584851 3.41682878
v -26.48960474 -1.67978436 3.31079952
v -26.50676608 -1.83945264 3.17168557
v -26.53055968 -1.96875755 3.00469139
v -26.5601024 -2.06268759 2.81645049
v -26.59434665 -2.11775408 2.6140449
v -26.63182225 -2.13173927 2.40525631
v -26.67123869 -2.1041192 2.19807833
v -26.71089806 -2.03598401 2.00065389
v -26.74934788 -1.92990919 1.82035916
v -26.78503447 -1.79002078 1.66423063
v -26.81668503 -1.62161486 1.53827552
v -26.84298881 -1.43132668 1.44727192
v -26.8628982 -1.22624208 1.39470233
v -26.87569456 -1.01446546 1.38271634
v -26.88095785 -0.80400509 1.41159861
v -26.87844513 -0.60299032 1.48049894
v -26.86824752 -0.41905692 1.58644787
v -26.85084325 -0.25938887 1.72556308
v -26.82688518 -0.13016747 1.89247629
v -26.79734246 -0.03623443 2.0807988
v -26.76326775 0.01875092 2.28320628
v -26.72603 0.03273627 2.49199677
v -26.68702096 0.00519702 2.69917032
v -26.64768043 -0.06301954 2.89659793
v -26.60955957 -0.16909395 3.07689013
v -26.57419181 -0.30889879 3.23309963
v -26.54270319 -0.47730748 3.3589725
v -26.51639435 -0.66759565 3.44997736
v -26.49631796 -0.87259928 3.50254316
v -26.18906354 -1.07009663 3.46227396
v -26.18332201 -1.28055989 3.43331008
v -26.18517934 -1.481572 3.36449199
v -26.19489111 -1.66550509 3.25854496
v -26.21180954 -1.82517329 3.11942848
v -26.23552722 -1.95447836 2.95243683
v -26.2649915 -2.04857019 2.76420162
v -26.29906874 -2.10363937 2.56171633
v -26.33662026 -2.11762471 2.35292268
v -26.37604176 -2.09008261 2.14583074
v -26.41577957 -2.02195011 1.94832785
v -26.45438627 -1.91595611 1.76803818
v -26.49025253 -1.77606785 1.61190332
v -26.52205239 -1.60774567 1.48587167
v -26.5485257 -1.41737384 1.39494525
v -26.56868054 -1.21236713 1.34246106
v -26.58171476 -1.00059335 1.33039472
v -26.58713747 -0.79013037 1.35935608
v -26.58486767 -0.58911805 1.42817607
v -26.57483201 -0.40518505 1.53412183
v -26.55758968 -0.24559774 1.67324337
v -26.53371259 -0.11629267 1.84023375
v -26.50433434 -0.0222785 2.02855436
v -26.4702571 0.03278467 2.23087898
v -26.43302695 0.04677254 2.43974854
v -26.39400778 0.0192306 2.64684301
v -26.35466979 -0.04890205 2.84434653
v -26.31647048 -0.1548955 3.02463936
v -26.28085474 -0.29478392 3.18077043
v -26.24919911 -0.46302805 3.30671604
v -26.22273339 -0.65339735 3.39772533
v -26.20241913 -0.85832 3.45028734
v -25.89516725 -1.05549663 3.40992325
v -25.88909423 -1.26595704 3.38104287
v -25.89079973 -1.46696923 3.31222415
v -25.90018255 -1.65090501 3.20619551
v -25.91702 -1.81057321 3.0670803
v -25.9405808 -1.93995625 2.90017152
v -25.96995398 -2.03404823 2.71193568
v -26.00403122 -2.08911757 2.50944912
v -26.04151189 -2.10318342 2.30066306
v -26.0809258 -2.07564416 2.09348888
v -26.12083314 -2.00759279 1.89598662
v -26.15952082 -1.90167692 1.71577856
v -26.19554143 -1.76179135 1.55957032
v -26.22743492 -1.59346632 1.43361648
v -26.25422454 -1.40317823 1.34261162
v -26.27453879 -1.19825257 1.29012869
v -26.28773243 -0.98639766 1.27806236
v -26.2934765 -0.77593183 1.30710658
v -26.29137372 -0.57492244 1.37584243
v -26.28157844 -0.39106741 1.48187423
v -26.26441456 -0.2313992 1.62099008
v -26.24078798 -0.10201648 1.78790012
v -26.2114072 -0.00799899 1.97629601
v -26.17749191 0.04706702 2.1787054
v -26.14025669 0.06113302 2.38749145
v -26.10116161 0.03358839 2.59450179
v -26.0617477 -0.0344636 2.79200531
v -26.02337886 -0.14045452 2.97237532
v -25.98760117 -0.28026188 3.12850512
v -25.95587216 -0.44850601 3.254452
v -25.92915593 -0.63879687 3.34537715
v -25.90860634 -0.84372008 3.39794042
v -25.60118239 -1.04056735 3.35772626
v -25.59495501 -1.2510276 3.32884651
v -25.59641507 -1.45212362 3.25994808
v -25.60571944 -1.63597573 3.15399789
v -25.6223165 -1.79572783 3.01480297
v -25.64570523 -1.92511087 2.84789356
v -25.67500756 -2.0192027 2.65966151
v -25.70907974 -2.07435285 2.45717748
v -25.74656041 -2.08841886 2.24838889
v -25.78605529 -2.06095488 2.04138109
v -25.82596011 -1.99290335 1.8438763
v -25.86465284 -1.88699033 1.66359169
v -25.90082781 -1.74726654 1.50738472
v -25.93296928 -1.57894144 1.38143531
v -25.95991578 -1.3886505 1.29050952
v -25.98047296 -1.18372745 1.23794625
v -25.99391458 -0.97195371 1.22588118
v -25.9999041 -0.76149065 1.2548419
v -25.99796326 -0.56047822 1.32366253
v -25.9883274 -0.37662635 1.42961145
v -25.97141404 -0.21687401 1.56880574
v -25.94793928 -0.08756949 1.73579802
v -25.91864201 0.00652217 1.92403386
v -25.88472165 0.06167042 2.12643566
v -25.8474915 0.07581661 2.33522235
v -25.80840654 0.04827751 2.54239336
v -25.7688155 -0.0197767 2.73981528
v -25.73045425 -0.1256898 2.92010305
v -25.69451208 -0.26541651 3.07622779
v -25.66253762 -0.43365795 3.2022588
v -25.63566703 -0.62394842 3.29318206
v -25.61494537 -0.8287878 3.34582251
v -25.30728103 -1.02531711 3.30543691
v -25.30081833 -1.23577768 3.2765559
v -25.30218982 -1.43687077 3.2077397
v -25.3112538 -1.62080662 3.10171044
v -25.32768639 -1.78055572 2.96259839
v -25.35091316 -1.90994176 2.79560864
v -25.38013452 -2.00403074 2.60745314
v -25.41413332 -2.05926171 2.40497353
v -25.45160386 -2.07333056 2.19610587
v -25.4910203 -2.04594724 1.98909996
v -25.53109466 -1.97797684 1.79160024
v -25.57002779 -1.87214764 1.61123655
v -25.60628373 -1.73233735 1.45518457
v -25.63857702 -1.56409314 1.32923769
v -25.66570065 -1.37380773 1.23815375
v -25.68650328 -1.16896289 1.18567398
v -25.70018023 -0.95710529 1.17368483
v -25.70632158 -0.74664251 1.20264618
v -25.70463631 -0.54563 1.27146743
v -25.6951624 -0.36169723 1.37741193
v -25.67840845 -0.20210652 1.51661571
v -25.6550096 -0.07264275 1.68351943
v -25.62579331 0.02144899 1.8717559
v -25.59203743 0.07651801 2.0742412
v -25.55480475 0.0906623 2.28294565
v -25.51563376 0.06328183 2.49003
v -25.47605031 -0.0046884 2.68753099
v -25.43752204 -0.11059881 2.8678991
v -25.40150396 -0.25032536 3.02402574
v -25.36928658 -0.41848892 3.14997135
v -25.34225152 -0.60869588 3.24097368
v -25.321292 -0.81361873 3.29353569
v -25.01354922 -1.00982197 3.25321715
v -25.00683347 -1.22028515 3.22425579
v -25.00796457 -1.42129718 3.15543644
v -25.0167831 -1.60523027 3.04948941
v -25.03306386 -1.76498221 2.91029639
v -25.0562046 -1.89444623 2.74339077
v -25.08534498 -1.9885409 2.55507396
v -25.11926028 -2.04376886 2.35267596
v -25.15673082 -2.05799681 2.1438937
v -25.19615739 -2.03053853 1.93672205
v -25.23621909 -1.96264594 1.73930709
v -25.27531923 -1.85681089 1.55910409
v -25.31174217 -1.71708719 1.40289775
v -25.34427839 -1.54892687 1.27686989
v -25.37155385 -1.35871675 1.18594917
v -25.39252095 -1.15379086 1.1334694
v -25.40644336 -0.94201716 1.1214018
v -25.41274665 -0.73163483 1.15036569
v -25.41129924 -0.53062276 1.21918441
v -25.40215175 -0.34668991 1.32513207
v -25.38547372 -0.18693812 1.46432636
v -25.36224694 -0.05755469 1.63123514
v -25.3331015 0.03662079 1.81954879
v -25.29935827 0.09176509 2.02187024
v -25.26220909 0.10591508 2.23073538
v -25.22303051 0.0785346 2.43782352
v -25.18337115 0.01064534 2.63531882
v -25.14467588 -0.09527076 2.81552435
v -25.10848826 -0.23491634 2.97164845
v -25.07611905 -0.40307673 3.09767504
v -25.04883853 -0.59320335 3.18867484
v -25.02771707 -0.798126 3.24123748
v -24.71981234 -0.99392742 3.20082468
v -24.71284861 -1.20430693 3.17193924
v -24.71374185 -1.40540002 3.10312495
v -24.72240855 -1.58941669 2.99710137
v -24.73859569 -1.74916587 2.85798869
v -24.76157701 -1.87863265 2.69100147
v -24.79056304 -1.9728056 2.50276753
v -24.82446821 -2.02803373 2.300367
v -24.86186538 -2.04226168 2.091586
v -24.90144376 -2.01496503 1.88442194
v -24.94159656 -1.94699147 1.68700319
v -24.98068405 -1.84124308 1.50663887
v -25.01727147 -1.70151661 1.35051287
v -25.04997722 -1.53343411 1.22457169
v -25.07741463 -1.34322691 1.13356999
v -25.09869298 -1.13830117 1.08108706
v -25.11278492 -0.92652439 1.0691017
v -25.11942223 -0.7161421 1.09806811
v -25.11812412 -0.51513299 1.16680397
v -25.10907026 -0.33119722 1.27283197
v -25.09263008 -0.17144796 1.41194781
v -25.06947922 -0.042065 1.57885659
v -25.04049572 0.05211095 1.76716898
v -25.00683347 0.10734224 1.96964921
v -24.96960078 0.12156671 2.1783505
v -24.93042979 0.09418592 2.38543801
v -24.89068186 0.02629982 2.58301745
v -24.85191068 -0.07953531 2.76321855
v -24.81556618 -0.21910007 2.91933823
v -24.78302237 -0.38726354 3.04528384
v -24.75559003 -0.57738684 3.13636462
v -24.73421805 -0.78223184 3.18884375
v -24.132498 -0.96124052 3.09624978
v -24.12513952 -1.17170081 3.06736624
v -24.12562283 -1.37271309 2.99854878
v -24.13388214 -1.55672976 2.89252521
v -24.14965681 -1.71647901 2.75341062
v -24.17240534 -1.84602669 2.5864272
v -24.2012193 -1.94028046 2.39819579
v -24.23497265 -1.9955894 2.19580032
v -24.27236728 -2.00989816 1.98702122
v -24.3119482 -1.98259867 1.77993687
v -24.35225282 -1.91479275 1.5823625
v -24.39167432 -1.80911948 1.40216519
v -24.42850467 -1.66947675 1.24596138
v -24.46153178 -1.50139425 1.12001956
v -24.48945503 -1.3112651 1.02910073
v -24.5110674 -1.10642318 0.97653873
v -24.52563759 -0.89473014 0.96447682
v -24.53267723 -0.68434786 0.9934426
v -24.53178146 -0.48333598 1.06226132
v -24.52320585 -0.29932208 1.16820392
v -24.50710475 -0.13956974 1.30739695
v -24.48418922 -0.01010604 1.47430446
v -24.45537779 0.08406959 1.66261811
v -24.42178639 0.13938138 1.86509392
v -24.38462962 0.15368762 2.07379584
v -24.34537765 0.1263878 2.28087766
v -24.30555381 0.05858251 2.4784533
v -24.26654477 -0.04709122 2.65865124
v -24.22987384 -0.18665574 2.81477155
v -24.1970112 -0.3547354 2.94079497
v -24.1691664 -0.54478381 3.03171001
v -24.14731111 -0.74962569 3.08427011
v -24.32910955 -0.92802303 2.03044585
v -27.86593112 -1.46451472 4.1810164
v -27.87240901 -1.16591397 4.22202385
v -27.87030623 -1.74971789 4.08341092
v -27.88551914 -2.01053615 3.93303057
v -27.91085377 -2.23704847 3.73560232
v -27.94549783 -2.42032167 3.49875068
v -27.98815068 -2.5533917 3.23162313
v -28.03720551 -2.63120577 2.94432871
v -28.09062533 -2.65077719 2.64810253
v -28.14630735 -2.61130318 2.35425178
v -28.20216397 -2.51433221 2.07401219
v -28.25607216 -2.36353054 1.81828168
v -28.30576972 -2.16479406 1.59674544
v -28.34947017 -1.92559545 1.41800375
v -28.38541487 -1.65533254 1.2888755
v -28.41204507 -1.36427878 1.21432979
v -28.42863707 -1.06366769 1.19735822
v -28.43430775 -0.76498885 1.23828153
v -28.42920641 -0.47978295 1.33596672
v -28.41325967 -0.2190459 1.48635119
v -28.38728232 0.0073047 1.68378449
v -28.35230172 0.19057569 1.92055579
v -28.30957801 0.32356727 2.18776811
v -28.26092804 0.40129815 2.47498535
v -28.20807251 0.42095023 2.77120774
v -28.15303069 0.38131617 3.06514515
v -28.09791043 0.28442443 3.34530061
v -28.04480944 0.13370595 3.6011083
v -27.99568123 -0.06502988 3.82264644
v -27.95237805 -0.30406749 4.00137863
v -27.91643589 -0.57432993 4.13051037
v -27.88949191 -0.8653056 4.20497162
v -27.57114664 -1.45185611 4.12873686
v -27.57794337 -1.15317161 4.16982243
v -27.57526871 -1.73705928 4.03113074
v -27.59016279 -1.99787722 3.88075071
v -27.615338 -2.2243062 3.68340027
v -27.64981505 -2.40757924 3.4465499
v -27.69239199 -2.5408109 3.17942614
v -27.74128741 -2.61862244 2.89221396
v -27.79462372 -2.63835849 2.59590934
v -27.85046769 -2.59880351 2.30205669
v -27.90648372 -2.50191066 2.0219025
v -27.96055133 -2.35119281 1.76609418
v -28.01048928 -2.15245602 1.54455541
v -28.05436939 -1.91333838 1.36582005
v -28.09046845 -1.64315645 1.23669306
v -28.11749592 -1.35210277 1.16214672
v -28.13433844 -1.05149452 1.14509291
v -28.14040134 -0.75289061 1.18618323
v -28.13546701 -0.46768767 1.28379061
v -28.11976824 -0.20695102 1.43417064
v -28.0941072 0.01948111 1.63160205
v -28.05930372 0.20275415 1.86845559
v -28.01680775 0.33582386 2.13558188
v -27.96816032 0.41363303 2.42271561
v -27.91530226 0.43320761 2.7190253
v -27.86026297 0.39373281 3.01287289
v -27.80506932 0.29692094 3.29302707
v -27.75172795 0.14620325 3.5488354
v -27.70234669 -0.05245192 3.77036848
v -27.65880059 -0.29148669 3.94918227
v -27.62263069 -0.56158742 4.078308
v -27.59534004 -0.85264414 4.15277274
v -24.62753783 -1.3065525 3.60616852
v -24.33363901 -1.29025086 3.55384438
v -24.34383915 -0.99172808 3.59493469
v -24.63741662 -1.00794878 3.64725947
v -24.62867146 -1.59175559 3.50856431
v -24.3343703 -1.57553493 3.45624016
v -24.64089595 -1.85273564 3.35818933
v -24.34626583 -1.83659563 3.30586898
v -24.66372292 -2.07940991 3.16076804
v -24.36892832 -2.06327022 3.10844706
v -24.69625913 -2.26316816 2.92393411
v -24.40130512 -2.2469475 2.87160681
v -24.73738108 -2.39672371 2.65681985
v -24.44226512 -2.38058371 2.6045014
v -24.78554015 -2.47518225 2.36963108
v -24.49026224 -2.45912322 2.31731326
v -24.83871957 -2.49540083 2.0734245
v -24.54344166 -2.4793418 2.02110858
v -24.89488996 -2.45657366 1.77959969
v -24.59969556 -2.44059861 1.72720406
v -24.95195359 -2.36025 1.49938225
v -24.6568351 -2.34427178 1.44706822
v -25.00756476 -2.21001736 1.24358973
v -24.71261075 -2.19428191 1.1912852
v -25.05960549 -2.01192535 1.02215724
v -24.76489946 -1.9961899 0.96985018
v -25.10598567 -1.77337643 0.84336115
v -24.81152003 -1.75764097 0.79105409
v -25.1450023 -1.50351815 0.71424428
v -24.85077705 -1.48786359 0.66194165
v -25.17510931 -1.21286578 0.639796
v -24.88112951 -1.19713333 0.5874048
v -25.1951022 -0.91241952 0.62274789
v -24.90144376 -0.896765 0.57044335
v -25.20424463 -0.6138188 0.6637547
v -24.91100118 -0.59824245 0.61153114
v -25.20230126 -0.32861563 0.76136081
v -24.90937665 -0.31304205 0.70905881
v -25.18935307 -0.06771363 0.91181929
v -24.89666885 -0.05205908 0.85951539
v -25.16604026 0.15895802 1.10915897
v -24.8735939 0.17461566 1.05693731
v -25.13310677 0.34255179 1.34592142
v -24.84082489 0.35828693 1.29361309
v -25.09197976 0.47610972 1.61311286
v -24.79986742 0.49184802 1.56088424
v -25.04422557 0.55449044 1.9003845
v -24.75219166 0.57030671 1.84807681
v -24.99153704 0.57462836 2.19659424
v -24.69958158 0.59044463 2.14428401
v -24.93600685 0.53580167 2.49042095
v -24.64405139 0.55169828 2.43810693
v -24.87975802 0.43947738 2.77063586
v -24.58763555 0.45545259 2.71824213
v -24.82488067 0.28940352 3.02634361
v -24.53259879 0.30546255 2.97402326
v -24.77339916 0.09131389 3.24785644
v -24.48096039 0.10737323 3.19554052
v -24.72734035 -0.14723811 3.42657219
v -24.4345701 -0.13109479 3.37433218
v -24.68832625 -0.41701479 3.55568779
v -24.39532066 -0.40079397 3.50336175
v -24.65796367 -0.70766423 3.63021579
v -24.36464178 -0.69136283 3.57789101
v -28.02264038 -1.17226945 4.24856928
v -28.01624094 -1.47094833 4.20764565
v -28.20710083 -1.17096335 4.05544054
v -28.20192358 -1.42642984 4.02036631
v -28.02076534 -1.75615435 4.10995857
v -28.20596467 -1.67039838 3.93686005
v -28.03615033 -2.01697229 3.95957884
v -28.21916337 -1.89344086 3.80815343
v -28.06164943 -2.2433233 3.76214649
v -28.24117554 -2.08711885 3.63929495
v -28.09637699 -2.42659349 3.52537456
v -28.2709713 -2.24383507 3.43673944
v -28.13910829 -2.55974702 3.25816919
v -28.30762958 -2.35764793 3.20821479
v -28.18808215 -2.63755856 2.97095575
v -28.34947017 -2.42419781 2.96256043
v -28.24150703 -2.65705201 2.67464416
v -28.3951317 -2.44080515 2.70915284
v -28.29718904 -2.61749703 2.38079215
v -28.44280745 -2.40704532 2.45778352
v -28.3530406 -2.52052321 2.10063291
v -28.49047561 -2.32403834 2.21804276
v -28.40686022 -2.36972439 1.84482142
v -28.536375 -2.19501873 1.99928556
v -28.45648187 -2.17090694 1.62328391
v -28.57870397 -2.02487971 1.80977312
v -28.50002544 -1.93170817 1.44454223
v -28.61577217 -1.82024655 1.65687025
v -28.53580566 -1.66144558 1.31541081
v -28.64620813 -1.5890928 1.54644437
v -28.56227391 -1.37039174 1.240867
v -28.66878965 -1.34017988 1.48269852
v -28.57862552 -1.0697026 1.2238094
v -28.68270952 -1.08297626 1.46814541
v -28.58429115 -0.77109888 1.26489971
v -28.68741358 -0.82750982 1.50321711
v -28.57894942 -0.48589282 1.36258743
v -28.68279556 -0.58362221 1.58672685
v -28.56284073 -0.22515585 1.51296937
v -28.66903257 -0.36050144 1.71534902
v -28.53677734 0.0011923 1.71032233
v -28.64669397 -0.16690166 1.88429226
v -28.50172335 0.18446819 1.94725621
v -28.61658444 -0.01026593 2.08684904
v -28.45899459 0.31737674 2.21438819
v -28.58000207 0.1035466 2.31537432
v -28.41026618 0.39518528 2.50152066
v -28.53831331 0.17001519 2.56103311
v -28.35748909 0.41467825 2.79783225
v -28.49306424 0.18662285 2.81443943
v -28.30245486 0.37512296 3.09168426
v -28.44595024 0.15278188 3.06581192
v -28.24741557 0.27814961 3.37184287
v -28.39885143 0.06977237 3.30547107
v -28.19439303 0.12735063 3.62765563
v -28.35352644 -0.05916309 3.52430861
v -28.14533567 -0.07138544 3.84919187
v -28.3115897 -0.22922169 3.71381726
v -28.10212106 -0.31042266 4.02792596
v -28.27476694 -0.43377696 3.86663662
v -28.06643193 -0.58068557 4.15705675
v -28.24424748 -0.66492755 3.97714063
v -28.03955122 -0.87165835 4.23159771
v -28.22143063 -0.91384336 4.04080867
v -24.19401265 -0.98335024 3.56831778
v -24.18365814 -1.2818731 3.52722556
v -24.0743058 -1.23236042 3.32535516
v -24.08352667 -0.96948145 3.36162438
v -24.18430087 -1.56707627 3.42961945
v -24.07486755 -1.48337659 3.23950477
v -24.19604458 -1.82805893 3.27916477
v -24.08507023 -1.71310801 3.10714326
v -24.21853753 -2.05481132 3.08182699
v -24.10481514 -1.91270847 2.93339285
v -24.25084348 -2.23856957 2.84499116
v -24.13315338 -2.07449456 2.72485856
v -24.29171491 -2.37220879 2.57780161
v -24.16908795 -2.19210305 2.48974849
v -24.3397095 -2.4507483 2.29061537
v -24.21126003 -2.26125168 2.23697414
v -24.39281048 -2.47104485 1.99449357
v -24.25804001 -2.27916962 1.97624414
v -24.44914788 -2.43230134 1.70058968
v -24.30758068 -2.24509934 1.7175739
v -24.50637346 -2.33605865 1.42037666
v -24.35792097 -2.1603927 1.47088902
v -24.56221995 -2.18606893 1.16459174
v -24.40713522 -2.02835683 1.24578678
v -24.61451373 -1.9878958 0.94315355
v -24.4531915 -1.85403754 1.05078331
v -24.66137469 -1.74942784 0.76436
v -24.49455131 -1.64413248 0.89348383
v -24.70071015 -1.47964761 0.6353298
v -24.52935732 -1.40669346 0.77984557
v -24.73130806 -1.18899817 0.56079737
v -24.55639238 -1.15088079 0.71423163
v -24.75178174 -0.88863261 0.54375369
v -24.57452541 -0.88648633 0.69918256
v -24.7614176 -0.59011014 0.58484654
v -24.58326044 -0.62369118 0.73537587
v -24.75996007 -0.30490949 0.68237104
v -24.58213693 -0.37259419 0.82122246
v -24.74741675 -0.04392724 0.83282256
v -24.57128647 -0.14286048 0.95366178
v -24.7244253 0.18274782 1.03024764
v -24.55113163 0.05666271 1.12749886
v -24.69180305 0.36642525 1.26708663
v -24.52256059 0.21844501 1.33595027
v -24.65092909 0.50006146 1.53419458
v -24.48653998 0.335973 1.57106541
v -24.6032584 0.57843871 1.82138714
v -24.44461336 0.40512179 1.82383723
v -24.55064326 0.59873842 2.11758992
v -24.39831416 0.42295844 2.08457103
v -24.49511559 0.55999238 2.41141094
v -24.3493403 0.38881098 2.34332414
v -24.43870481 0.46374969 2.69162648
v -24.29964527 0.30417883 2.58984517
v -24.38358202 0.3137595 2.94740951
v -24.25100036 0.1721466 2.81502965
v -24.33177914 0.11575116 3.16892108
v -24.20526798 -0.00209202 3.01002995
v -24.28532053 -0.12272003 3.34763492
v -24.16422701 -0.21199732 3.16732881
v -24.24589903 -0.39241905 3.47666576
v -24.12942606 -0.44935513 3.2809658
v -24.21506326 -0.68298459 3.5512722
v -24.10223411 -0.70508719 3.34657594
v -27.82748636 5.9993876 -2.40583071
v -27.92954349 -1.15687837 -2.23324809
v -28.25000166 -1.21007614 0.43818812
v -28.96115504 -1.19183162 -1.87994752
v -28.91979523 5.88221623 -2.30622051
v -28.00807019 -7.46164597 -2.07587332
v -28.94415817 -7.41913925 -1.51447813
v -27.17412538 -1.2184736 0.1050405
v -30.41195185 5.85866429 -7.9769931
v -28.90950905 6.09663439 -6.87828985
v -29.09267898 -1.05155897 -6.92514827
v -30.43518116 -1.07320443 -8.01948148
v -29.27788337 -7.45323483 -6.90716454
v -30.2694155 -7.32500488 -8.06718001
v -29.36529439 6.1077012 -6.03855289
v -29.56424658 -1.04951067 -6.1715217
v -30.93556525 -1.09142393 -7.24569754
v -30.88869165 5.8312155 -7.19632387
v -29.58101318 -7.50280334 -6.29444725
v -30.80071634 -7.35166924 -7.29625292
v -27.60944211 -1.04087508 -6.69967216
v -26.4019432 -1.03513991 -7.32413062
v -28.21414047 6.06695692 -7.00132421
v -27.60011243 5.98708087 -8.23137174
v -28.3569248 -1.0721254 -6.96873486
v -27.53561441 -1.05528119 -8.22372479
v -27.50249366 -7.24972029 -7.98296997
v -28.47963021 -7.38575218 -6.91131697
v 2.99718377 -6.75137192 26.25035235
v 3.00762462 6.81448643 26.68087139
v 13.10735723 -6.91131443 23.39559691
v 13.2473834 6.65180979 23.80361034
v 21.49978741 -7.12656826 15.94489123
v 21.76171304 6.42918357 16.33218491
v 26.75573214 -7.30059766 5.05406863
v 27.23814262 6.26627033 5.42113028
v 28.84606875 -7.29764908 -6.25556473
v 28.69318043 6.00192814 -6.52880769
v 25.94890337 6.32552974 5.08195771
v 25.61031976 -7.22407569 4.70594815
v 27.66835295 -7.19840958 -7.23577321
v 27.86578435 6.14470299 -7.2723657
v 2.79758094 6.83121824 25.44110703
v 2.78713962 -6.73464707 25.01035519
v 12.44695155 -6.88670731 22.28296113
v 12.58091228 6.67662567 22.69241944
v 20.67701569 6.47207238 15.58733449
v 20.42763718 -7.08466251 15.19748192
v 25.97213774 -7.21714358 1.75072437
v 26.3211543 6.33152432 2.12547156
v 27.58376335 6.27046135 2.67366362
v 27.21887849 -7.27663959 2.30202063
v 29.6994118 -7.43656123 -0.02037941
v 29.5686976 5.89745572 -0.85052859
v 28.45097314 5.9563324 -0.96120751
v 28.63365216 -7.44479903 -0.62979512
v 27.24380571 -7.80341792 5.36656323
v 27.74556383 6.04378898 5.31532433
v 28.68303342 6.16545121 5.49764972
v 28.23267331 -7.54486282 5.55849128
v 2.79353369 -0.41023736 25.21116218
v 12.51850566 -0.56337485 22.47384632
v 13.18222747 -0.58808034 23.58592541
v 3.00365834 -0.4270446 26.45108596
v 20.55932812 -0.7641635 15.37915699
v 25.78791009 -0.90655786 4.88116337
v 27.00284592 -0.9750466 5.22511465
v 21.63811693 -0.80651381 16.12544343
v 28.46579131 -1.15238354 5.53004898
v 27.50128412 -1.34712052 5.34259884
v 28.96543146 -7.49172198 2.77261402
v 29.12521519 6.0312678 2.32749569
v 28.09789778 5.99987217 2.18095368
v 27.93852903 -7.62519055 2.3721887
v 29.04314336 -2.45663328 2.60685153
v 29.30887096 -1.20041703 1.31839102
v 29.22703699 -2.10508551 1.70317324
v 29.07422458 0.08364575 2.52325069
v 29.243796 -0.3082767 1.66426858
v 28.80986342 -1.17233097 3.81162137
v 28.87316708 -2.06454935 3.46582478
v 28.89218069 -0.26782152 3.42692581
v 26.18743901 0.36975956 1.9605808
v 26.35603875 -0.91891923 0.67051853
v 26.32309766 0.00211432 1.04575346
v 25.99836054 -0.90298498 3.18669226
v 26.06869878 -0.01402282 2.83202273
v 26.12098497 -2.17018166 1.89028557
v 26.27153771 -1.79441913 1.03030015
v 26.01843694 -1.81032918 2.80230857
v 27.60529474 -0.97817599 1.21937546
v 27.44397251 0.30963364 2.51003807
v 27.57493469 -0.05785051 1.59520567
v 27.22381282 -0.96712519 3.73256392
v 27.30394634 -0.07514542 3.38078793
v 27.37445159 -2.23020446 2.44038621
v 27.52281804 -1.85414967 1.57950122
v 27.25150327 -1.87149052 3.34767225
v 28.04658833 -0.00172764 2.26513462
v 28.24886297 -1.24147224 1.03077587
v 28.19220168 -0.36973584 1.4021576
v 28.01582089 -2.54304083 2.30090661
v 28.17755052 -2.16696327 1.39231551
v 27.81476844 -1.30305592 3.53518059
v 27.88656421 -0.37772724 3.17364285
v 27.86989124 -2.17495436 3.16380392
v 29.68006923 -1.12704924 2.76183504
v 29.48394352 -1.16325979 3.82774398
v 29.47965445 -1.37372289 3.79878263
v 29.48305787 -1.57481313 3.73004741
v 29.49406523 -1.7585872 3.62401308
v 29.51219573 -1.91817466 3.4848947
v 29.53680412 -2.04731794 3.31789609
v 29.56699463 -2.14108619 3.12965077
v 29.60147674 -2.19591276 2.92715598
v 29.63910923 -2.20965535 2.71835474
v 29.67829034 -2.1817922 2.5111717
v 29.71754736 -2.11333374 2.31373397
v 29.7553418 -2.00701601 2.13343292
v 29.79014781 -1.86688515 1.97729236
v 29.82074066 -1.69831451 1.85141444
v 29.84583742 -1.50778658 1.76031911
v 29.86445629 -1.30261816 1.70782923
v 29.87594948 -1.09076357 1.69576036
v 29.87983622 -0.88021945 1.72472108
v 29.87602287 -0.67928527 1.79362331
v 29.86469415 -0.495433 1.89957287
v 29.84632326 -0.33592674 2.03869441
v 29.82155039 -0.2068676 2.20561331
v 29.79144086 -0.11309611 2.39394088
v 29.75695874 -0.0582723 2.59635659
v 29.71965015 -0.04452964 2.80515403
v 29.68088403 -0.07247368 3.01234339
v 29.64202681 -0.14085156 3.20977606
v 29.6045512 -0.24708808 3.39007459
v 29.56998559 -0.38721934 3.54621577
v 29.53963566 -0.55578697 3.67217278
v 29.51446299 -0.74623689 3.76318523
v 29.4956847 -0.95132422 3.81567259
v 28.89517925 -1.13825752 3.72343857
v 28.89040434 -1.3487207 3.69447532
v 28.89340795 -1.54973005 3.6257363
v 28.90400031 -1.73358501 3.5197064
v 28.92172848 -1.89317247 3.38058739
v 28.94609141 -2.02239657 3.21359258
v 28.97604153 -2.11624563 3.02534915
v 29.01044014 -2.17115065 2.82293723
v 29.04807516 -2.18497674 2.61406134
v 29.08733472 -2.15719456 2.40687894
v 29.12666765 -2.08889489 2.20952851
v 29.16471514 -1.98266082 2.02915217
v 29.19983998 -1.84252996 1.87300909
v 29.23075419 -1.67396217 1.74705146
v 29.25625076 -1.48359318 1.65604407
v 29.27527956 -1.27850858 1.60347384
v 29.28725606 -1.06657024 1.59148468
v 29.29163117 -0.85610707 1.62044477
v 29.28823281 -0.6550921 1.689347
v 29.27730643 -0.47132096 1.79529656
v 29.25925943 -0.31173334 1.9344181
v 29.23473455 -0.18251209 2.10133004
v 29.2047819 -0.088741 2.2896614
v 29.17045667 -0.03383922 2.49198855
v 29.13323158 -0.02009395 2.70086886
v 29.09429339 -0.047798 2.90796713
v 29.05528181 -0.11609498 3.1053979
v 29.01764426 -0.22240947 3.28577993
v 28.98283573 -0.3624596 3.44191542
v 28.95200249 -0.53086275 3.5679515
v 28.92650592 -0.72123431 3.65887855
v 28.90732529 -0.9264 3.71145257
v 28.60070855 -1.1251944 3.67114416
v 28.59585772 -1.33573558 3.64226504
v 28.59860576 -1.53674786 3.57344632
v 28.60897292 -1.72060274 3.46741642
v 28.62661505 -1.88019028 3.32829804
v 28.65089701 -2.00941137 3.16138231
v 28.68068265 -2.10334441 2.97306106
v 28.71500535 -2.15824912 2.77064915
v 28.7526429 -2.17215349 2.56185613
v 28.79181136 -2.14436847 2.35475597
v 28.83138975 -2.07607449 2.15724359
v 28.86952579 -1.96992155 1.97686789
v 28.90481005 -1.82994947 1.8208121
v 28.93588874 -1.66138168 1.69485384
v 28.96154979 -1.47101269 1.60384708
v 28.98081645 -1.26584704 1.55127432
v 28.99303081 -1.05407338 1.53920798
v 28.9975704 -0.84352634 1.56825158
v 28.99441495 -0.64243602 1.636983
v 28.98365305 -0.45866227 1.74301859
v 28.96575282 -0.29907489 1.88213824
v 28.94138988 -0.16993445 2.0490565
v 28.91153339 -0.07607914 2.23746062
v 28.87728408 -0.02117744 2.43978903
v 28.83998054 -0.00727054 2.64866428
v 28.80104488 -0.03505809 2.85568664
v 28.76202572 -0.10335191 3.05319585
v 28.72422875 -0.20950802 3.23349185
v 28.68926839 -0.34955822 3.38962924
v 28.65834405 -0.51796438 3.51558118
v 28.63260962 -0.70833032 3.60667144
v 28.61317596 -0.91341781 3.65915943
v 28.30648836 -1.11196671 3.61892439
v 28.30131111 -1.32242981 3.58996367
v 28.30390226 -1.52343924 3.52122529
v 28.31409988 -1.70737502 3.41519855
v 28.33158006 -1.86696248 3.27607765
v 28.3556191 -1.99618373 3.10916444
v 28.38540475 -2.09011393 2.92092354
v 28.41980841 -2.14510213 2.71843381
v 28.45728908 -2.15900666 2.5096408
v 28.49661949 -2.13130261 2.30254127
v 28.53612449 -2.06308961 2.10503332
v 28.57440224 -1.95693635 1.92465824
v 28.60977506 -1.8168833 1.76860183
v 28.64110173 -1.64848023 1.64256892
v 28.66700317 -1.45810847 1.55163807
v 28.68643431 -1.25302379 1.499071
v 28.6988916 -1.04116619 1.48708374
v 28.7035906 -0.83070578 1.51596476
v 28.70067808 -0.62969114 1.58486382
v 28.69015151 -0.44583894 1.69081338
v 28.6723449 -0.28624871 1.83001147
v 28.64814138 -0.15702999 1.99684623
v 28.61835574 -0.06309711 2.18516937
v 28.58420005 -0.00811207 2.38757622
v 28.5469699 0.00571164 2.59637557
v 28.5080393 -0.02198955 2.80355164
v 28.46885819 -0.09020517 3.00097925
v 28.43098277 -0.19636158 3.18127651
v 28.39586046 -0.33624937 3.33740694
v 28.36468056 -0.50473666 3.46336458
v 28.33878924 -0.69510557 3.55437197
v 28.31918856 -0.90010935 3.60693714
v 28.01235167 -1.09833183 3.56677295
v 28.00700235 -1.308792 3.53789004
v 28.00935312 -1.50980697 3.46899288
v 28.01930781 -1.69374005 3.36304522
v 28.03663111 -1.85332744 3.22392621
v 28.06058665 -1.98263235 3.05693645
v 28.09021034 -2.07656255 2.86869113
v 28.1245381 -2.1316292 2.66628617
v 28.16200864 -2.14553341 2.45749252
v 28.20134158 -2.11783221 2.25031518
v 28.24101359 -2.04969702 2.05289073
v 28.27936979 -1.94362505 1.87251692
v 28.31491215 -1.803572 1.71645861
v 28.3463122 -1.63524974 1.59042823
v 28.37245656 -1.44479986 1.49941704
v 28.39212556 -1.2397933 1.44693221
v 28.40475491 -1.02793867 1.43486335
v 28.40976768 -0.81747545 1.46382597
v 28.40701964 -0.61638521 1.53256245
v 28.39674105 -0.43261099 1.63859551
v 28.37909386 -0.27302123 1.7777936
v 28.35497638 -0.14371861 1.94470681
v 28.32535268 -0.04978573 2.13302868
v 28.29119447 0.00519717 2.33535519
v 28.25396178 0.01910408 2.54422982
v 28.21503118 -0.00851946 2.75132492
v 28.17577163 -0.07673231 2.9488354
v 28.13772415 -0.18288802 3.12912887
v 28.1024323 -0.32277936 3.28518022
v 28.07119672 -0.49109846 3.41129221
v 28.04513081 -0.68147061 3.5022199
v 28.0252948 -0.88647431 3.55478696
v 27.7182074 -1.0843759 3.51452789
v 27.71262275 -1.29483631 3.48564687
v 27.71480903 -1.49584843 3.41682752
v 27.72460431 -1.67978428 3.31079952
v 27.74176566 -1.83945248 3.17168493
v 27.76555925 -1.96875755 3.00469012
v 27.79510197 -2.06268759 2.81645049
v 27.82934622 -2.11775408 2.61404426
v 27.86682183 -2.13173927 2.40525567
v 27.90623827 -2.1041192 2.19807833
v 27.94589763 -2.03598401 2.00065389
v 27.98434745 -1.92990904 1.82035916
v 28.02003405 -1.79002062 1.66423063
v 28.05168461 -1.62161478 1.53827426
v 28.07798839 -1.4313266 1.44727192
v 28.09789778 -1.22624208 1.3947017
v 28.11069414 -1.01446546 1.38271634
v 28.11595742 -0.80400509 1.41159861
v 28.11344471 -0.60299032 1.48049894
v 28.10324709 -0.41905692 1.58644724
v 28.08584283 -0.25938895 1.72556182
v 28.06188476 -0.13016747 1.89247629
v 28.03234204 -0.03623443 2.0807988
v 27.99826732 0.01875092 2.28320628
v 27.96102958 0.03273627 2.49199551
v 27.92202054 0.00519702 2.69917032
v 27.88268001 -0.06301954 2.89659793
v 27.84455914 -0.16909395 3.07689013
v 27.80919138 -0.30889879 3.233099
v 27.77770277 -0.47730748 3.35897186
v 27.75139393 -0.66759565 3.44997736
v 27.73131753 -0.87259928 3.50254316
v 27.42406312 -1.07009663 3.46227396
v 27.41832158 -1.28055981 3.43331008
v 27.42017892 -1.481572 3.36449199
v 27.42989069 -1.66550501 3.25854496
v 27.44680912 -1.82517329 3.11942848
v 27.4705268 -1.95447836 2.95243683
v 27.49999107 -2.04857034 2.76420099
v 27.53406832 -2.10363937 2.56171633
v 27.57161983 -2.11762471 2.35292268
v 27.61104134 -2.09008261 2.1458301
v 27.65077914 -2.02195011 1.94832721
v 27.68938585 -1.91595611 1.76803818
v 27.7252521 -1.77606785 1.61190332
v 27.75705196 -1.60774559 1.48587167
v 27.78352528 -1.41737376 1.39494525
v 27.80368012 -1.21236713 1.34246106
v 27.81671434 -1.00059335 1.33039472
v 27.82213704 -0.79013037 1.35935608
v 27.81986725 -0.58911805 1.42817543
v 27.80983158 -0.40518505 1.53412056
v 27.79258926 -0.24559774 1.67324274
v 27.76871216 -0.11629267 1.84023312
v 27.73933392 -0.0222785 2.02855436
v 27.70525668 0.03278467 2.23087835
v 27.66802652 0.04677254 2.43974854
v 27.62900736 0.0192306 2.64684238
v 27.58966936 -0.04890205 2.84434653
v 27.55147005 -0.1548955 3.0246381
v 27.51585431 -0.29478392 3.18076979
v 27.48419869 -0.46302805 3.30671604
v 27.45773296 -0.65339735 3.3977247
v 27.43741871 -0.85832 3.45028734
v 27.13016682 -1.05549663 3.40992325
v 27.1240938 -1.26595696 3.38104097
v 27.12579931 -1.46696907 3.31222415
v 27.13518213 -1.65090493 3.20619551
v 27.15201958 -1.81057321 3.0670803
v 27.17558037 -1.93995625 2.90017152
v 27.20495356 -2.03404823 2.71193505
v 27.2390308 -2.08911757 2.50944912
v 27.27651147 -2.10318342 2.30066306
v 27.31592538 -2.07564416 2.09348825
v 27.35583272 -2.00759279 1.89598662
v 27.3945204 -1.90167692 1.71577793
v 27.43054101 -1.76179127 1.55957032
v 27.46243449 -1.59346624 1.43361648
v 27.48922411 -1.40317815 1.34261162
v 27.50953837 -1.19825249 1.29012869
v 27.52273201 -0.98639766 1.27806109
v 27.52847608 -0.77593183 1.30710595
v 27.52637329 -0.57492244 1.37584243
v 27.51657801 -0.39106748 1.4818736
v 27.49941414 -0.23139928 1.62098881
v 27.47578755 -0.10201648 1.78789949
v 27.44640678 -0.00799915 1.97629538
v 27.41249148 0.04706702 2.1787054
v 27.37525627 0.06113287 2.38748956
v 27.33616119 0.03358839 2.59450179
v 27.29674728 -0.0344636 2.79200468
v 27.25837843 -0.14045452 2.97237469
v 27.22260075 -0.28026188 3.12850512
v 27.19087174 -0.44850601 3.25445136
v 27.1641555 -0.63879687 3.34537715
v 27.14360592 -0.84372008 3.39794042
v 26.83618196 -1.04056735 3.35772626
v 26.82995459 -1.25102753 3.32884588
v 26.83141464 -1.45212354 3.25994808
v 26.84071902 -1.63597573 3.15399663
v 26.85731608 -1.79572768 3.01480297
v 26.8807048 -1.92511087 2.84789292
v 26.91000713 -2.01920286 2.65966088
v 26.94407932 -2.07435285 2.45717748
v 26.98155998 -2.08841886 2.24838889
v 27.02105487 -2.06095488 2.04138109
v 27.06095968 -1.99290335 1.8438763
v 27.09965242 -1.88699017 1.66359043
v 27.13582739 -1.74726647 1.50738472
v 27.16796885 -1.57894136 1.38143531
v 27.19491536 -1.38865042 1.29050889
v 27.21547254 -1.18372745 1.23794562
v 27.22891416 -0.97195375 1.22588055
v 27.23490368 -0.76149065 1.2548419
v 27.23296284 -0.56047822 1.32366253
v 27.22332698 -0.37662635 1.42961082
v 27.20641361 -0.21687401 1.56880574
v 27.18293885 -0.08756949 1.73579676
v 27.15364158 0.00652217 1.92403323
v 27.11972123 0.06167042 2.12643502
v 27.08249107 0.07581661 2.33522235
v 27.04340612 0.04827751 2.54239336
v 27.00381508 -0.0197767 2.73981401
v 26.96545382 -0.1256898 2.92010305
v 26.92951166 -0.26541651 3.07622715
v 26.8975372 -0.43365795 3.20225817
v 26.87066661 -0.62394842 3.29318143
v 26.84994495 -0.8287878 3.34582251
v 26.54228061 -1.02531711 3.30543691
v 26.5358179 -1.23577768 3.2765559
v 26.53718939 -1.43687077 3.20773907
v 26.54625338 -1.62080662 3.10170981
v 26.56268596 -1.78055572 2.96259839
v 26.58591274 -1.9099416 2.795608
v 26.6151341 -2.00403074 2.60745314
v 26.6491329 -2.05926171 2.40497353
v 26.68660344 -2.07333056 2.19610523
v 26.72601988 -2.04594724 1.98909996
v 26.76609423 -1.97797684 1.7915996
v 26.80502736 -1.87214748 1.61123529
v 26.8412833 -1.73233727 1.45518457
v 26.8735766 -1.56409298 1.32923769
v 26.90070023 -1.37380766 1.23815248
v 26.92150286 -1.16896289 1.18567398
v 26.93517981 -0.95710529 1.17368483
v 26.94132115 -0.74664251 1.20264555
v 26.93963589 -0.54563 1.27146743
v 26.93016198 -0.36169723 1.3774113
v 26.91340803 -0.20210652 1.51661571
v 26.89000918 -0.07264275 1.6835188
v 26.86079288 0.02144899 1.87175527
v 26.82703701 0.07651801 2.07423993
v 26.78980432 0.0906623 2.28294502
v 26.75063333 0.06328183 2.49003
v 26.71104988 -0.0046884 2.68753036
v 26.67252162 -0.11059881 2.8678991
v 26.63650354 -0.25032536 3.02402574
v 26.60428616 -0.41848892 3.14997072
v 26.57725109 -0.60869588 3.24097368
v 26.55629158 -0.81361873 3.29353569
v 26.24854879 -1.00982197 3.25321715
v 26.24183304 -1.22028515 3.22425579
v 26.24296414 -1.42129718 3.1554358
v 26.25178268 -1.60523011 3.04948941
v 26.26806343 -1.76498213 2.91029639
v 26.29120418 -1.89444623 2.74339014
v 26.32034456 -1.9885409 2.55507396
v 26.35425986 -2.04376886 2.35267469
v 26.3917304 -2.05799681 2.1438937
v 26.43115696 -2.03053853 1.93672205
v 26.47121866 -1.96264594 1.73930646
v 26.5103188 -1.85681089 1.55910409
v 26.54674175 -1.71708711 1.40289775
v 26.57927796 -1.54892672 1.27686989
v 26.60655342 -1.35871659 1.18594853
v 26.62752053 -1.15379086 1.1334694
v 26.64144293 -0.94201716 1.12140117
v 26.64774622 -0.73163483 1.15036505
v 26.64629882 -0.53062276 1.21918441
v 26.63715133 -0.34668991 1.32513207
v 26.62047329 -0.18693812 1.46432573
v 26.59724652 -0.05755469 1.63123451
v 26.56810107 0.03662079 1.81954879
v 26.53435785 0.09176509 2.02187024
v 26.49720867 0.10591508 2.23073538
v 26.45803008 0.0785346 2.43782289
v 26.41837072 0.01064534 2.63531819
v 26.37967545 -0.09527084 2.81552372
v 26.34348783 -0.23491634 2.97164845
v 26.31111863 -0.40307673 3.09767504
v 26.28383811 -0.59320335 3.18867484
v 26.26271664 -0.798126 3.24123748
v 25.95481191 -0.99392742 3.20082405
v 25.94784818 -1.20430693 3.17193924
v 25.94874142 -1.40539994 3.10312495
v 25.95740813 -1.58941669 2.99710074
v 25.97359526 -1.74916587 2.85798806
v 25.99657659 -1.87863265 2.69100147
v 26.02556262 -1.9728056 2.5027669
v 26.05946779 -2.02803373 2.300367
v 26.09686495 -2.04226168 2.09158537
v 26.13644334 -2.01496503 1.88442131
v 26.17659614 -1.94699147 1.68700256
v 26.21568362 -1.84124308 1.50663887
v 26.25227105 -1.70151653 1.35051287
v 26.2849768 -1.53343403 1.22457169
v 26.31241421 -1.34322683 1.13356935
v 26.33369256 -1.13830117 1.08108643
v 26.3477845 -0.92652439 1.0691017
v 26.3544218 -0.7161421 1.09806811
v 26.35312369 -0.51513299 1.16680397
v 26.34406983 -0.33119722 1.27283133
v 26.32762966 -0.17144796 1.41194718
v 26.30447879 -0.042065 1.57885659
v 26.27549529 0.05211095 1.76716834
v 26.24183304 0.10734224 1.96964921
v 26.20460036 0.12156655 2.17834987
v 26.16542937 0.09418592 2.38543801
v 26.12568144 0.02629982 2.58301682
v 26.08691026 -0.07953531 2.76321855
v 26.05056575 -0.21910007 2.91933823
v 26.01802195 -0.38726354 3.04528321
v 25.9905896 -0.57738684 3.13636462
v 25.96921763 -0.78223184 3.18884375
v 25.36749757 -0.96124052 3.09624915
v 25.3601391 -1.17170081 3.06736624
v 25.36062241 -1.37271301 2.99854878
v 25.36888172 -1.55672968 2.89252521
v 25.38465639 -1.71647901 2.75341062
v 25.40740492 -1.84602669 2.5864272
v 25.43621888 -1.94028046 2.39819579
v 25.46997222 -1.9955894 2.19580032
v 25.50736686 -2.00989816 1.98702059
v 25.54694777 -1.98259867 1.77993624
v 25.5872524 -1.91479275 1.58236123
v 25.6266739 -1.80911948 1.40216519
v 25.66350424 -1.66947667 1.24596074
v 25.69653136 -1.50139425 1.12001956
v 25.72445461 -1.3112651 1.0291001
v 25.74606697 -1.10642318 0.97653873
v 25.76063717 -0.89473014 0.96447555
v 25.76767681 -0.68434786 0.99344197
v 25.76678104 -0.48333598 1.06226006
v 25.75820543 -0.29932208 1.16820392
v 25.74210433 -0.13956974 1.30739695
v 25.71918879 -0.01010604 1.47430383
v 25.69037736 0.08406959 1.66261811
v 25.65678596 0.13938138 1.86509392
v 25.61962919 0.15368762 2.07379584
v 25.58037723 0.1263878 2.28087766
v 25.54055339 0.05858251 2.4784533
v 25.50154435 -0.04709122 2.65865061
v 25.46487342 -0.18665574 2.81477092
v 25.43201078 -0.3547354 2.94079434
v 25.40416597 -0.54478381 3.03170937
v 25.38231069 -0.74962569 3.08427011
v 25.56410912 -0.92802303 2.03044522
v 29.10093069 -1.46451464 4.18101608
v 29.10740858 -1.16591389 4.22202321
v 29.1053058 -1.74971782 4.0834106
v 29.12051872 -2.01053615 3.93302993
v 29.14585334 -2.23704847 3.73560232
v 29.1804974 -2.42032167 3.49875068
v 29.22315026 -2.5533917 3.23162313
v 29.27220509 -2.63120577 2.94432808
v 29.32562491 -2.65077719 2.6481019
v 29.38130693 -2.61130318 2.35425115
v 29.43716354 -2.51433221 2.07401219
v 29.49107173 -2.36353054 1.81828168
v 29.54076929 -2.16479406 1.59674417
v 29.58446975 -1.92559529 1.41800375
v 29.62041444 -1.65533246 1.28887487
v 29.64704464 -1.36427863 1.21432979
v 29.66363664 -1.06366769 1.19735759
v 29.66930733 -0.76498885 1.23828153
v 29.66420599 -0.47978295 1.33596672
v 29.64825925 -0.2190459 1.48635055
v 29.6222819 0.0073047 1.68378386
v 29.58730129 0.19057569 1.92055516
v 29.54457758 0.32356727 2.18776811
v 29.49592762 0.40129815 2.47498472
v 29.44307209 0.42095023 2.77120711
v 29.38803027 0.38131617 3.06514515
v 29.33291 0.28442443 3.34529997
v 29.27980902 0.13370595 3.6011083
v 29.2306808 -0.06502988 3.82264644
v 29.18737763 -0.30406749 4.00137831
v 29.15143546 -0.57432993 4.13051037
v 29.12449149 -0.8653056 4.20497131
v 28.80614622 -1.45185603 4.12873654
v 28.81294294 -1.15317153 4.1698218
v 28.81026828 -1.73705912 4.03113043
v 28.82516237 -1.99787722 3.88075071
v 28.85033758 -2.2243062 3.68340027
v 28.88481463 -2.40757924 3.44654926
v 28.92739157 -2.5408109 3.17942614
v 28.97628698 -2.61862244 2.89221396
v 29.0296233 -2.63835849 2.59590934
v 29.08546726 -2.59880351 2.30205669
v 29.1414833 -2.50191066 2.02190187
v 29.1955509 -2.35119281 1.76609418
v 29.24548886 -2.15245602 1.54455477
v 29.28936897 -1.91333823 1.36582005
v 29.32546802 -1.64315637 1.23669243
v 29.3524955 -1.35210269 1.16214672
v 29.36933801 -1.05149452 1.14509291
v 29.37540091 -0.75289061 1.18618323
v 29.37046658 -0.46768767 1.28379061
v 29.35476782 -0.20695102 1.43417064
v 29.32910677 0.01948111 1.63160205
v 29.2943033 0.20275415 1.86845559
v 29.25180733 0.33582386 2.13558188
v 29.20315989 0.41363303 2.42271498
v 29.15030183 0.43320761 2.71902467
v 29.09526254 0.39373281 3.01287099
v 29.0400689 0.29692094 3.29302707
v 28.98672752 0.14620325 3.54883477
v 28.93734626 -0.05245192 3.77036848
v 28.89380017 -0.29148669 3.94918133
v 28.85763026 -0.56158742 4.07830768
v 28.83033962 -0.85264414 4.15277274
v 25.86253741 -1.30655242 3.60616852
v 25.56863858 -1.29025078 3.55384438
v 25.57883873 -0.99172812 3.59493406
v 25.87241619 -1.00794878 3.64725947
v 25.86367104 -1.59175559 3.50856431
v 25.56936988 -1.57553493 3.4562389
v 25.87589553 -1.85273564 3.35818933
v 25.58126541 -1.83659563 3.30586898
v 25.8987225 -2.07940991 3.16076804
v 25.6039279 -2.06327022 3.10844643
v 25.93125871 -2.26316816 2.92393411
v 25.6363047 -2.2469475 2.87160554
v 25.97238066 -2.39672371 2.65681985
v 25.6772647 -2.38058371 2.60450076
v 26.02053972 -2.47518225 2.36963108
v 25.72526181 -2.45912322 2.31731263
v 26.07371915 -2.49540083 2.0734245
v 25.77844124 -2.4793418 2.02110795
v 26.12988954 -2.45657366 1.77959969
v 25.83469513 -2.44059861 1.72720406
v 26.18695317 -2.36025 1.49938225
v 25.89183468 -2.34427178 1.44706759
v 26.24256433 -2.21001736 1.24358973
v 25.94761032 -2.19428191 1.1912852
v 26.29460507 -2.01192535 1.02215724
v 25.99989904 -1.9961899 0.96984891
v 26.34098524 -1.77337627 0.84336115
v 26.0465196 -1.75764097 0.79105283
v 26.38000188 -1.50351807 0.71424365
v 26.08577663 -1.48786351 0.66194165
v 26.41010888 -1.21286578 0.63979536
v 26.11612908 -1.19713333 0.5874048
v 26.43010178 -0.91241952 0.62274789
v 26.13644334 -0.896765 0.57044335
v 26.4392442 -0.6138188 0.6637547
v 26.14600076 -0.59824245 0.61153114
v 26.43730084 -0.32861563 0.76136081
v 26.14437623 -0.31304205 0.70905881
v 26.42435265 -0.06771363 0.91181866
v 26.13166843 -0.05205908 0.85951476
v 26.40103984 0.15895802 1.10915897
v 26.10859348 0.17461566 1.05693731
v 26.36810635 0.34255179 1.34592078
v 26.07582446 0.35828693 1.29361309
v 26.32697934 0.47610972 1.61311223
v 26.03486699 0.49184802 1.56088424
v 26.27922514 0.55449044 1.90038387
v 25.98719124 0.57030671 1.84807618
v 26.22653662 0.57462836 2.19659424
v 25.93458116 0.59044463 2.14428275
v 26.17100643 0.53580167 2.49042095
v 25.87905097 0.55169828 2.43810693
v 26.11475759 0.43947738 2.77063586
v 25.82263513 0.45545259 2.71824213
v 26.05988025 0.28940352 3.02634361
v 25.76759837 0.30546255 2.97402326
v 26.00839874 0.09131389 3.24785644
v 25.71595997 0.10737323 3.19553926
v 25.96233993 -0.14723811 3.42657219
v 25.66956967 -0.13109479 3.37433218
v 25.92332583 -0.41701479 3.55568716
v 25.63032024 -0.40079397 3.50336175
v 25.89296325 -0.70766423 3.63021579
v 25.59964136 -0.69136283 3.57789038
v 29.25763996 -1.17226937 4.24856833
v 29.25124051 -1.47094825 4.20764533
v 29.4421004 -1.17096319 4.05543991
v 29.43692315 -1.42642976 4.02036631
v 29.25576491 -1.75615427 4.10995825
v 29.44096424 -1.67039822 3.93685942
v 29.2711499 -2.01697244 3.95957821
v 29.45416294 -1.89344086 3.80815343
v 29.296649 -2.2433233 3.76214586
v 29.47617512 -2.08711885 3.63929495
v 29.33137657 -2.42659349 3.52537392
v 29.50597088 -2.24383507 3.43673944
v 29.37410786 -2.55974702 3.25816793
v 29.54262916 -2.35764793 3.20821416
v 29.42308172 -2.63755856 2.97095575
v 29.58446975 -2.42419781 2.9625598
v 29.4765066 -2.65705201 2.67464353
v 29.63013128 -2.44080515 2.70915221
v 29.53218862 -2.61749703 2.38079089
v 29.67780703 -2.40704532 2.45778352
v 29.58804018 -2.52052321 2.10063291
v 29.72547519 -2.32403834 2.21804213
v 29.6418598 -2.36972439 1.84482078
v 29.77137458 -2.19501873 1.99928493
v 29.69148145 -2.17090694 1.62328391
v 29.81370354 -2.02487971 1.80977249
v 29.73502501 -1.93170817 1.44454223
v 29.85077175 -1.82024655 1.65686898
v 29.77080523 -1.66144542 1.31541081
v 29.88120771 -1.58909272 1.54644437
v 29.79727349 -1.37039166 1.24086636
v 29.90378923 -1.3401798 1.48269852
v 29.8136251 -1.0697026 1.2238094
v 29.9177091 -1.08297626 1.46814414
v 29.81929072 -0.77109888 1.26489971
v 29.92241316 -0.82750982 1.50321711
v 29.81394899 -0.48589282 1.36258743
v 29.91779513 -0.58362221 1.58672622
v 29.7978403 -0.22515585 1.51296937
v 29.90403215 -0.36050144 1.71534902
v 29.77177692 0.0011923 1.7103217
v 29.88169355 -0.16690166 1.88429163
v 29.73672293 0.18446819 1.94725558
v 29.85158401 -0.01026609 2.08684778
v 29.69399416 0.31737674 2.21438819
v 29.81500165 0.1035466 2.31537432
v 29.64526575 0.39518528 2.50152066
v 29.77331289 0.17001519 2.56103248
v 29.59248866 0.41467825 2.79783161
v 29.72806381 0.18662285 2.8144388
v 29.53745444 0.37512296 3.09168363
v 29.68094982 0.15278188 3.06581129
v 29.48241515 0.27814961 3.37184287
v 29.633851 0.06977237 3.30547107
v 29.42939261 0.12735063 3.62765563
v 29.58852602 -0.05916309 3.52430861
v 29.38033524 -0.07138544 3.84919187
v 29.54658927 -0.22922169 3.71381726
v 29.33712063 -0.31042266 4.02792596
v 29.50976652 -0.43377696 3.86663599
v 29.30143151 -0.58068565 4.15705643
v 29.47924705 -0.66492755 3.97714
v 29.27455079 -0.87165835 4.23159676
v 29.4564302 -0.91384336 4.04080804
v 25.42901222 -0.98335024 3.56831715
v 25.41865772 -1.28187302 3.52722556
v 25.30930537 -1.2323605 3.32535389
v 25.31852624 -0.96948145 3.36162438
v 25.41930045 -1.56707619 3.42961945
v 25.30986713 -1.48337651 3.23950414
v 25.43104415 -1.82805893 3.27916477
v 25.3200698 -1.71310793 3.10714326
v 25.45353711 -2.05481132 3.08182635
v 25.33981472 -1.91270847 2.93339285
v 25.48584305 -2.23856957 2.84499116
v 25.36815295 -2.07449456 2.72485856
v 25.52671449 -2.37220879 2.57780161
v 25.40408753 -2.19210305 2.48974785
v 25.57470907 -2.4507483 2.29061411
v 25.4462596 -2.26125168 2.23697414
v 25.62781006 -2.47104485 1.99449357
v 25.49303958 -2.27916962 1.97624414
v 25.68414746 -2.43230134 1.70058968
v 25.54258026 -2.24509934 1.7175739
v 25.74137303 -2.33605865 1.42037666
v 25.59292055 -2.16039286 1.47088839
v 25.79721953 -2.18606893 1.16459048
v 25.6421348 -2.02835683 1.24578678
v 25.84951331 -1.9878958 0.94315355
v 25.68819108 -1.85403754 1.05078205
v 25.89637426 -1.74942784 0.76435937
v 25.72955089 -1.6441324 0.89348383
v 25.93570973 -1.47964746 0.6353298
v 25.76435689 -1.40669338 0.77984557
v 25.96630764 -1.18899817 0.56079737
v 25.79139196 -1.15088079 0.71423163
v 25.98678131 -0.88863261 0.54375306
v 25.80952499 -0.88648633 0.69918256
v 25.99641717 -0.59011014 0.5848459
v 25.81826002 -0.62369118 0.73537524
v 25.99495965 -0.30490949 0.68237104
v 25.81713651 -0.37259427 0.82122119
v 25.98241633 -0.04392724 0.83282193
v 25.80628605 -0.14286048 0.95366178
v 25.95942488 0.18274782 1.03024764
v 25.7861312 0.05666271 1.1274976
v 25.92680263 0.36642525 1.267086
v 25.75756017 0.21844501 1.33594964
v 25.88592866 0.50006146 1.53419395
v 25.72153956 0.335973 1.57106541
v 25.83825797 0.57843871 1.82138714
v 25.67961293 0.40512179 1.82383723
v 25.78564283 0.59873842 2.11758866
v 25.63331373 0.42295844 2.0845704
v 25.73011517 0.55999238 2.41141094
v 25.58433988 0.38881098 2.34332414
v 25.67370439 0.46374969 2.69162585
v 25.53464484 0.30417868 2.58984454
v 25.6185816 0.3137595 2.94740951
v 25.48599994 0.1721466 2.81502902
v 25.56677872 0.11575116 3.16892108
v 25.44026756 -0.00209202 3.01002995
v 25.5203201 -0.12272003 3.34763492
v 25.39922658 -0.21199732 3.16732817
v 25.4808986 -0.39241905 3.47666513
v 25.36442564 -0.44935513 3.28096516
v 25.45006283 -0.68298459 3.55127157
v 25.33723368 -0.70508723 3.34657467
v 29.06248594 5.9993876 -2.40583071
v 29.16454307 -1.15687829 -2.23324809
v 29.48500124 -1.21007606 0.43818812
v 30.19615461 -1.19183154 -1.87994752
v 30.15479481 5.88221623 -2.30622051
v 29.24306977 -7.46164597 -2.07587332
v 30.17915775 -7.41913925 -1.51447813
v 28.40912496 -1.21847352 0.1050405
v 31.64695143 5.85866429 -7.9769931
v 30.14450863 6.09663439 -6.87829238
v 30.32767855 -1.05155897 -6.92514827
v 31.67018073 -1.07320443 -8.01948148
v 30.51288294 -7.45323483 -6.90716454
v 31.50441508 -7.32500488 -8.06718001
v 30.60029397 6.1077012 -6.03855289
v 30.79924616 -1.04951067 -6.1715217
v 32.17056483 -1.09142393 -7.24569754
v 32.12369122 5.8312155 -7.19632387
v 30.81601276 -7.50280334 -6.29444725
v 32.03571591 -7.35166924 -7.29625545
v 28.84444168 -1.04087508 -6.69967216
v 27.63694277 -1.03513991 -7.32413315
v 29.44914005 6.06695692 -7.00132674
v 28.835112 5.98708087 -8.23137174
v 29.59192438 -1.0721254 -6.96873739
v 28.77061398 -1.05528119 -8.22372479
v 28.73749324 -7.24972029 -7.98296997
v 29.71462978 -7.38575218 -6.9113195
g Group23484
f 8 11 22 23
f 18 15 33 34
f 2 15 18 4
f 3 17 16 1
f 4 35 36 2
g Group41479
f 736 735 737 738
g Group23484
f 44 31 30 45
f 61 56 63 69
f 11 19 37 38
f 6 19 11 8
f 7 12 20 5
f 8 39 40 6
f 19 18 34 37
f 4 18 19 6
f 5 20 17 3
f 6 40 35 4
g Group41479
f 732 731 733 734
g Group23484
f 41 42 30 31
g Group41479
f 730 729 731 732
f 728 727 729 730
g Group23484
f 24 21 12 7
f 32 29 42 41
g Group41479
f 726 725 727 728
g Group23484
f 34 33 16 17
f 35 3 1 36
g Group41479
f 734 733 735 736
g Group23484
f 38 37 20 12
f 39 7 5 40
f 37 34 17 20
f 40 5 3 35
g Group41479
f 724 723 725 726
f 722 721 723 724
g Group23484
f 46 29 32 43
f 43 47 49 25
f 51 50 44 26
f 41 52 53 32
f 53 47 43 32
f 44 50 54 31
f 54 52 41 31
f 22 55 57 14
f 38 58 59 11
f 59 55 22 11
f 61 60 21 13
f 21 60 62 12
f 62 58 38 12
f 65 64 23 10
f 23 64 67 8
f 67 66 39 8
f 24 68 69 9
g Group41479
f 720 719 721 722
g Group23484
f 39 66 70 7
f 70 68 24 7
f 45 71 73 27
f 75 74 46 28
f 42 76 77 30
f 77 71 45 30
f 46 74 78 29
f 78 76 42 29
f 49 47 74 75
f 48 49 75 72
f 53 52 76 78
f 47 53 78 74
f 54 50 71 77
f 52 54 77 76
f 51 48 72 73
f 50 51 73 71
f 65 63 56 57
f 64 65 57 55
f 62 60 68 70
f 58 62 70 66
f 59 58 66 67
f 55 59 67 64
g Group41479
f 718 717 719 720
g Group23484
f 60 61 69 68
g Group41479
f 740 739 741 742
f 689 692 752 751
f 750 749 751 752
f 748 747 749 750
f 746 745 747 748
f 738 737 739 740
f 744 743 745 746
f 742 741 743 744
f 81 80 79
f 82 81 79
f 83 82 79
f 84 83 79
f 85 84 79
f 86 85 79
f 87 86 79
f 88 87 79
f 89 88 79
f 90 89 79
f 91 90 79
f 92 91 79
f 93 92 79
f 94 93 79
f 95 94 79
f 96 95 79
f 97 96 79
f 98 97 79
f 99 98 79
f 100 99 79
f 101 100 79
f 102 101 79
f 103 102 79
f 104 103 79
f 105 104 79
f 106 105 79
f 107 106 79
f 108 107 79
f 109 108 79
f 110 109 79
f 111 110 79
f 80 111 79
f 112 113 145 144
f 113 114 146 145
f 114 115 147 146
f 115 116 148 147
f 116 117 149 148
f 117 118 150 149
f 118 119 151 150
f 119 120 152 151
f 120 121 153 152
f 121 122 154 153
f 122 123 155 154
f 123 124 156 155
f 124 125 157 156
f 125 126 158 157
f 126 127 159 158
f 127 128 160 159
f 128 129 161 160
f 129 130 162 161
f 130 131 163 162
f 131 132 164 163
f 132 133 165 164
f 133 134 166 165
f 134 135 167 166
f 135 136 168 167
f 136 137 169 168
f 137 138 170 169
f 138 139 171 170
f 139 140 172 171
f 140 141 173 172
f 141 142 174 173
f 142 143 175 174
f 143 112 144 175
f 144 145 177 176
f 145 146 178 177
f 146 147 179 178
f 147 148 180 179
f 148 149 181 180
f 149 150 182 181
f 150 151 183 182
f 151 152 184 183
f 152 153 185 184
f 153 154 186 185
f 154 155 187 186
f 155 156 188 187
f 156 157 189 188
f 157 158 190 189
f 158 159 191 190
f 159 160 192 191
f 160 161 193 192
f 161 162 194 193
f 162 163 195 194
f 163 164 196 195
f 164 165 197 196
f 165 166 198 197
f 166 167 199 198
f 167 168 200 199
f 168 169 201 200
f 169 170 202 201
f 170 171 203 202
f 171 172 204 203
f 172 173 205 204
f 173 174 206 205
f 174 175 207 206
f 175 144 176 207
f 176 177 209 208
f 177 178 210 209
f 178 179 211 210
f 179 180 212 211
f 180 181 213 212
f 181 182 214 213
f 182 183 215 214
f 183 184 216 215
f 184 185 217 216
f 185 186 218 217
f 186 187 219 218
f 187 188 220 219
f 188 189 221 220
f 189 190 222 221
f 190 191 223 222
f 191 192 224 223
f 192 193 225 224
f 193 194 226 225
f 194 195 227 226
f 195 196 228 227
f 196 197 229 228
f 197 198 230 229
f 198 199 231 230
f 199 200 232 231
f 200 201 233 232
f 201 202 234 233
f 202 203 235 234
f 203 204 236 235
f 204 205 237 236
f 205 206 238 237
f 206 207 239 238
f 207 176 208 239
f 208 209 241 240
f 209 210 242 241
f 210 211 243 242
f 211 212 244 243
f 212 213 245 244
f 213 214 246 245
f 214 215 247 246
f 215 216 248 247
f 216 217 249 248
f 217 218 250 249
f 218 219 251 250
f 219 220 252 251
f 220 221 253 252
f 221 222 254 253
f 222 223 255 254
f 223 224 256 255
f 224 225 257 256
f 225 226 258 257
f 226 227 259 258
f 227 228 260 259
f 228 229 261 260
f 229 230 262 261
f 230 231 263 262
f 231 232 264 263
f 232 233 265 264
f 233 234 266 265
f 234 235 267 266
f 235 236 268 267
f 236 237 269 268
f 237 238 270 269
f 238 239 271 270
f 239 208 240 271
f 240 241 273 272
f 241 242 274 273
f 242 243 275 274
f 243 244 276 275
f 244 245 277 276
f 245 246 278 277
f 246 247 279 278
f 247 248 280 279
f 248 249 281 280
f 249 250 282 281
f 250 251 283 282
f 251 252 284 283
f 252 253 285 284
f 253 254 286 285
f 254 255 287 286
f 255 256 288 287
f 256 257 289 288
f 257 258 290 289
f 258 259 291 290
f 259 260 292 291
f 260 261 293 292
f 261 262 294 293
f 262 263 295 294
f 263 264 296 295
f 264 265 297 296
f 265 266 298 297
f 266 267 299 298
f 267 268 300 299
f 268 269 301 300
f 269 270 302 301
f 270 271 303 302
f 271 240 272 303
f 272 273 305 304
f 273 274 306 305
f 274 275 307 306
f 275 276 308 307
f 276 277 309 308
f 277 278 310 309
f 278 279 311 310
f 279 280 312 311
f 280 281 313 312
f 281 282 314 313
f 282 283 315 314
f 283 284 316 315
f 284 285 317 316
f 285 286 318 317
f 286 287 319 318
f 287 288 320 319
f 288 289 321 320
f 289 290 322 321
f 290 291 323 322
f 291 292 324 323
f 292 293 325 324
f 293 294 326 325
f 294 295 327 326
f 295 296 328 327
f 296 297 329 328
f 297 298 330 329
f 298 299 331 330
f 299 300 332 331
f 300 301 333 332
f 301 302 334 333
f 302 303 335 334
f 303 272 304 335
f 304 305 337 336
f 305 306 338 337
f 306 307 339 338
f 307 308 340 339
f 308 309 341 340
f 309 310 342 341
f 310 311 343 342
f 311 312 344 343
f 312 313 345 344
f 313 314 346 345
f 314 315 347 346
f 315 316 348 347
f 316 317 349 348
f 317 318 350 349
f 318 319 351 350
f 319 320 352 351
f 320 321 353 352
f 321 322 354 353
f 322 323 355 354
f 323 324 356 355
f 324 325 357 356
f 325 326 358 357
f 326 327 359 358
f 327 328 360 359
f 328 329 361 360
f 329 330 362 361
f 330 331 363 362
f 331 332 364 363
f 332 333 365 364
f 333 334 366 365
f 334 335 367 366
f 335 304 336 367
f 336 337 369 368
f 337 338 370 369
f 338 339 371 370
f 339 340 372 371
f 340 341 373 372
f 341 342 374 373
f 342 343 375 374
f 343 344 376 375
f 344 345 377 376
f 345 346 378 377
f 346 347 379 378
f 347 348 380 379
f 348 349 381 380
f 349 350 382 381
f 350 351 383 382
f 351 352 384 383
f 352 353 385 384
f 353 354 386 385
f 354 355 387 386
f 355 356 388 387
f 356 357 389 388
f 357 358 390 389
f 358 359 391 390
f 359 360 392 391
f 360 361 393 392
f 361 362 394 393
f 362 363 395 394
f 363 364 396 395
f 364 365 397 396
f 365 366 398 397
f 366 367 399 398
f 367 336 368 399
f 368 369 401 400
f 369 370 402 401
f 370 371 403 402
f 371 372 404 403
f 372 373 405 404
f 373 374 406 405
f 374 375 407 406
f 375 376 408 407
f 376 377 409 408
f 377 378 410 409
f 378 379 411 410
f 379 380 412 411
f 380 381 413 412
f 381 382 414 413
f 382 383 415 414
f 383 384 416 415
f 384 385 417 416
f 385 386 418 417
f 386 387 419 418
f 387 388 420 419
f 388 389 421 420
f 389 390 422 421
f 390 391 423 422
f 391 392 424 423
f 392 393 425 424
f 393 394 426 425
f 394 395 427 426
f 395 396 428 427
f 396 397 429 428
f 397 398 430 429
f 398 399 431 430
f 399 368 400 431
f 400 401 433 432
f 401 402 434 433
f 402 403 435 434
f 403 404 436 435
f 404 405 437 436
f 405 406 438 437
f 406 407 439 438
f 407 408 440 439
f 408 409 441 440
f 409 410 442 441
f 410 411 443 442
f 411 412 444 443
f 412 413 445 444
f 413 414 446 445
f 414 415 447 446
f 415 416 448 447
f 416 417 449 448
f 417 418 450 449
f 418 419 451 450
f 419 420 452 451
f 420 421 453 452
f 421 422 454 453
f 422 423 455 454
f 423 424 456 455
f 424 425 457 456
f 425 426 458 457
f 426 427 459 458
f 427 428 460 459
f 428 429 461 460
f 429 430 462 461
f 430 431 463 462
f 431 400 432 463
f 465 496 464
f 466 496 465
f 467 496 466
f 468 496 467
f 469 496 468
f 470 496 469
f 471 496 470
f 472 496 471
f 473 496 472
f 474 496 473
f 475 496 474
f 476 496 475
f 477 496 476
f 478 496 477
f 479 496 478
f 480 496 479
f 481 496 480
f 482 496 481
f 483 496 482
f 484 496 483
f 485 496 484
f 486 496 485
f 487 496 486
f 488 496 487
f 489 496 488
f 490 496 489
f 491 496 490
f 492 496 491
f 493 496 492
f 494 496 493
f 495 496 494
f 464 496 495
f 498 497 529 530
f 112 530 529 113
f 497 499 531 529
f 113 529 531 114
f 499 500 532 531
f 114 531 532 115
f 500 501 533 532
f 115 532 533 116
f 501 502 534 533
f 116 533 534 117
f 502 503 535 534
f 117 534 535 118
f 503 504 536 535
f 118 535 536 119
f 504 505 537 536
f 119 536 537 120
f 505 506 538 537
f 120 537 538 121
f 506 507 539 538
f 121 538 539 122
f 507 508 540 539
f 122 539 540 123
f 508 509 541 540
f 123 540 541 124
f 509 510 542 541
f 124 541 542 125
f 510 511 543 542
f 125 542 543 126
f 511 512 544 543
f 126 543 544 127
f 512 513 545 544
f 127 544 545 128
f 513 514 546 545
f 128 545 546 129
f 514 515 547 546
f 129 546 547 130
f 515 516 548 547
f 130 547 548 131
f 516 517 549 548
f 131 548 549 132
f 517 518 550 549
f 132 549 550 133
f 518 519 551 550
f 133 550 551 134
f 519 520 552 551
f 134 551 552 135
f 520 521 553 552
f 135 552 553 136
f 521 522 554 553
f 136 553 554 137
f 522 523 555 554
f 137 554 555 138
f 523 524 556 555
f 138 555 556 139
f 524 525 557 556
f 139 556 557 140
f 525 526 558 557
f 140 557 558 141
f 526 527 559 558
f 141 558 559 142
f 527 528 560 559
f 142 559 560 143
f 528 498 530 560
f 143 560 530 112
f 564 561 562 563
f 433 561 564 432
f 561 565 566 562
f 434 565 561 433
f 565 567 568 566
f 435 567 565 434
f 567 569 570 568
f 436 569 567 435
f 569 571 572 570
f 437 571 569 436
f 571 573 574 572
f 438 573 571 437
f 573 575 576 574
f 439 575 573 438
f 575 577 578 576
f 440 577 575 439
f 577 579 580 578
f 441 579 577 440
f 579 581 582 580
f 442 581 579 441
f 581 583 584 582
f 443 583 581 442
f 583 585 586 584
f 444 585 583 443
f 585 587 588 586
f 445 587 585 444
f 587 589 590 588
f 446 589 587 445
f 589 591 592 590
f 447 591 589 446
f 591 593 594 592
f 448 593 591 447
f 593 595 596 594
f 449 595 593 448
f 595 597 598 596
f 450 597 595 449
f 597 599 600 598
f 451 599 597 450
f 599 601 602 600
f 452 601 599 451
f 601 603 604 602
f 453 603 601 452
f 603 605 606 604
f 454 605 603 453
f 605 607 608 606
f 455 607 605 454
f 607 609 610 608
f 456 609 607 455
f 609 611 612 610
f 457 611 609 456
f 611 613 614 612
f 458 613 611 457
f 613 615 616 614
f 459 615 613 458
f 615 617 618 616
f 460 617 615 459
f 617 619 620 618
f 461 619 617 460
f 619 621 622 620
f 462 621 619 461
f 621 623 624 622
f 463 623 621 462
f 623 564 563 624
f 432 564 623 463
f 625 626 497 498
f 81 628 627 80
f 626 629 499 497
f 82 630 628 81
f 629 631 500 499
f 83 632 630 82
f 631 633 501 500
f 84 634 632 83
f 633 635 502 501
f 85 636 634 84
f 635 637 503 502
f 86 638 636 85
f 637 639 504 503
f 87 640 638 86
f 639 641 505 504
f 88 642 640 87
f 641 643 506 505
f 89 644 642 88
f 643 645 507 506
f 90 646 644 89
f 645 647 508 507
f 91 648 646 90
f 647 649 509 508
f 92 650 648 91
f 649 651 510 509
f 93 652 650 92
f 651 653 511 510
f 94 654 652 93
f 653 655 512 511
f 95 656 654 94
f 655 657 513 512
f 96 658 656 95
f 657 659 514 513
f 97 660 658 96
f 659 661 515 514
f 98 662 660 97
f 661 663 516 515
f 99 664 662 98
f 663 665 517 516
f 100 666 664 99
f 665 667 518 517
f 101 668 666 100
f 667 669 519 518
f 102 670 668 101
f 669 671 520 519
f 103 672 670 102
f 671 673 521 520
f 104 674 672 103
f 673 675 522 521
f 105 676 674 104
f 675 677 523 522
f 106 678 676 105
f 677 679 524 523
f 107 680 678 106
f 679 681 525 524
f 108 682 680 107
f 681 683 526 525
f 109 684 682 108
f 683 685 527 526
f 110 686 684 109
f 685 687 528 527
f 111 688 686 110
f 687 625 498 528
f 80 627 688 111
f 628 626 625 627
f 626 628 630 629
f 629 630 632 631
f 631 632 634 633
f 633 634 636 635
f 635 636 638 637
f 637 638 640 639
f 639 640 642 641
f 641 642 644 643
f 643 644 646 645
f 645 646 648 647
f 647 648 650 649
f 649 650 652 651
f 651 652 654 653
f 653 654 656 655
f 655 656 658 657
f 657 658 660 659
f 659 660 662 661
f 661 662 664 663
f 663 664 666 665
f 665 666 668 667
f 667 668 670 669
f 669 670 672 671
f 671 672 674 673
f 673 674 676 675
f 675 676 678 677
f 677 678 680 679
f 679 680 682 681
f 681 682 684 683
f 683 684 686 685
f 685 686 688 687
f 627 625 687 688
f 563 562 690 689
f 464 692 691 465
f 562 566 693 690
f 465 691 694 466
f 566 568 695 693
f 466 694 696 467
f 568 570 697 695
f 467 696 698 468
f 570 572 699 697
f 468 698 700 469
f 572 574 701 699
f 469 700 702 470
f 574 576 703 701
f 470 702 704 471
f 576 578 705 703
f 471 704 706 472
f 578 580 707 705
f 472 706 708 473
f 580 582 709 707
f 473 708 710 474
f 582 584 711 709
f 474 710 712 475
f 584 586 713 711
f 475 712 714 476
f 586 588 715 713
f 476 714 716 477
f 588 590 717 715
f 477 716 718 478
f 590 592 719 717
f 478 718 720 479
f 592 594 721 719
f 479 720 722 480
f 594 596 723 721
f 480 722 724 481
f 596 598 725 723
f 481 724 726 482
f 598 600 727 725
f 482 726 728 483
f 600 602 729 727
f 483 728 730 484
f 602 604 731 729
f 484 730 732 485
f 604 606 733 731
f 485 732 734 486
f 606 608 735 733
f 486 734 736 487
f 608 610 737 735
f 487 736 738 488
f 610 612 739 737
f 488 738 740 489
f 612 614 741 739
f 489 740 742 490
f 614 616 743 741
f 490 742 744 491
f 616 618 745 743
f 491 744 746 492
f 618 620 747 745
f 492 746 748 493
f 620 622 749 747
f 493 748 750 494
f 622 624 751 749
f 494 750 752 495
f 624 563 689 751
f 495 752 692 464
f 690 691 692 689
f 691 690 693 694
f 694 693 695 696
f 696 695 697 698
f 698 697 699 700
f 700 699 701 702
f 702 701 703 704
f 704 703 705 706
f 706 705 707 708
f 708 707 709 710
f 710 709 711 712
f 712 711 713 714
f 714 713 715 716
f 716 715 717 718
g Group23484
f 28 46 43 25
f 26 44 45 27
f 49 48 755 25
f 755 48 51 26
f 73 72 760 27
f 760 72 75 28
f 27 760 754 753
f 759 758 28 25
f 25 755 756 759
f 757 756 755 26
f 758 754 760 28
f 26 27 753 757
f 767 753 754 768
f 769 756 757 770
f 768 754 758 771
f 772 759 756 769
f 758 759 772 771
f 767 770 757 753
f 770 767 762 761
f 767 768 763 762
f 772 769 764 766
f 761 764 769 770
f 765 763 768 771
f 766 765 771 772
f 9 13 21 24
f 23 22 14 10
f 69 63 773 9
f 57 56 774 14
f 774 56 61 13
f 773 63 65 10
f 775 776 761 762
f 762 763 777 775
f 761 776 778 764
f 765 766 779 780
f 763 765 780 777
f 764 778 779 766
f 780 779 13 9
f 779 778 774 13
f 775 777 773 10
f 10 14 776 775
f 14 774 778 776
f 9 773 777 780
f 788 803 802 791
f 798 814 813 795
f 782 784 798 795
f 783 781 796 797
f 784 782 816 815
g Group41479
f 1516 1518 1517 1515
g Group23484
f 824 825 810 811
f 841 849 843 836
f 791 818 817 799
f 786 788 791 799
f 787 785 800 792
f 788 786 820 819
f 799 817 814 798
f 784 786 799 798
f 785 783 797 800
f 786 784 815 820
g Group41479
f 1512 1514 1513 1511
g Group23484
f 821 811 810 822
g Group41479
f 1510 1512 1511 1509
f 1508 1510 1509 1507
g Group23484
f 804 787 792 801
f 812 821 822 809
g Group41479
f 1506 1508 1507 1505
g Group23484
f 814 797 796 813
f 815 816 781 783
g Group41479
f 1514 1516 1515 1513
g Group23484
f 818 792 800 817
f 819 820 785 787
f 817 800 797 814
f 820 815 783 785
g Group41479
f 1504 1506 1505 1503
f 1502 1504 1503 1501
g Group23484
f 826 823 812 809
f 823 805 829 827
f 831 806 824 830
f 821 812 833 832
f 833 812 823 827
f 824 811 834 830
f 834 811 821 832
f 802 794 837 835
f 818 791 839 838
f 839 791 802 835
f 841 793 801 840
f 801 792 842 840
f 842 792 818 838
f 845 790 803 844
f 803 788 847 844
f 847 788 819 846
f 804 789 849 848
g Group41479
f 1500 1502 1501 1499
g Group23484
f 819 787 850 846
f 850 787 804 848
f 825 807 853 851
f 855 808 826 854
f 822 810 857 856
f 857 810 825 851
f 826 809 858 854
f 858 809 822 856
f 829 855 854 827
f 828 852 855 829
f 833 858 856 832
f 827 854 858 833
f 834 857 851 830
f 832 856 857 834
f 831 853 852 828
f 830 851 853 831
f 845 837 836 843
f 844 835 837 845
f 842 850 848 840
f 838 846 850 842
f 839 847 846 838
f 835 844 847 839
g Group41479
f 1498 1500 1499 1497
g Group23484
f 840 848 849 841
g Group41479
f 1520 1522 1521 1519
f 1469 1531 1532 1472
f 1530 1532 1531 1529
f 1528 1530 1529 1527
f 1526 1528 1527 1525
f 1518 1520 1519 1517
f 1524 1526 1525 1523
f 1522 1524 1523 1521
f 859 860 861
f 859 861 862
f 859 862 863
f 859 863 864
f 859 864 865
f 859 865 866
f 859 866 867
f 859 867 868
f 859 868 869
f 859 869 870
f 859 870 871
f 859 871 872
f 859 872 873
f 859 873 874
f 859 874 875
f 859 875 876
f 859 876 877
f 859 877 878
f 859 878 879
f 859 879 880
f 859 880 881
f 859 881 882
f 859 882 883
f 859 883 884
f 859 884 885
f 859 885 886
f 859 886 887
f 859 887 888
f 859 888 889
f 859 889 890
f 859 890 891
f 859 891 860
f 892 924 925 893
f 893 925 926 894
f 894 926 927 895
f 895 927 928 896
f 896 928 929 897
f 897 929 930 898
f 898 930 931 899
f 899 931 932 900
f 900 932 933 901
f 901 933 934 902
f 902 934 935 903
f 903 935 936 904
f 904 936 937 905
f 905 937 938 906
f 906 938 939 907
f 907 939 940 908
f 908 940 941 909
f 909 941 942 910
f 910 942 943 911
f 911 943 944 912
f 912 944 945 913
f 913 945 946 914
f 914 946 947 915
f 915 947 948 916
f 916 948 949 917
f 917 949 950 918
f 918 950 951 919
f 919 951 952 920
f 920 952 953 921
f 921 953 954 922
f 922 954 955 923
f 923 955 924 892
f 924 956 957 925
f 925 957 958 926
f 926 958 959 927
f 927 959 960 928
f 928 960 961 929
f 929 961 962 930
f 930 962 963 931
f 931 963 964 932
f 932 964 965 933
f 933 965 966 934
f 934 966 967 935
f 935 967 968 936
f 936 968 969 937
f 937 969 970 938
f 938 970 971 939
f 939 971 972 940
f 940 972 973 941
f 941 973 974 942
f 942 974 975 943
f 943 975 976 944
f 944 976 977 945
f 945 977 978 946
f 946 978 979 947
f 947 979 980 948
f 948 980 981 949
f 949 981 982 950
f 950 982 983 951
f 951 983 984 952
f 952 984 985 953
f 953 985 986 954
f 954 986 987 955
f 955 987 956 924
f 956 988 989 957
f 957 989 990 958
f 958 990 991 959
f 959 991 992 960
f 960 992 993 961
f 961 993 994 962
f 962 994 995 963
f 963 995 996 964
f 964 996 997 965
f 965 997 998 966
f 966 998 999 967
f 967 999 1000 968
f 968 1000 1001 969
f 969 1001 1002 970
f 970 1002 1003 971
f 971 1003 1004 972
f 972 1004 1005 973
f 973 1005 1006 974
f 974 1006 1007 975
f 975 1007 1008 976
f 976 1008 1009 977
f 977 1009 1010 978
f 978 1010 1011 979
f 979 1011 1012 980
f 980 1012 1013 981
f 981 1013 1014 982
f 982 1014 1015 983
f 983 1015 1016 984
f 984 1016 1017 985
f 985 1017 1018 986
f 986 1018 1019 987
f 987 1019 988 956
f 988 1020 1021 989
f 989 1021 1022 990
f 990 1022 1023 991
f 991 1023 1024 992
f 992 1024 1025 993
f 993 1025 1026 994
f 994 1026 1027 995
f 995 1027 1028 996
f 996 1028 1029 997
f 997 1029 1030 998
f 998 1030 1031 999
f 999 1031 1032 1000
f 1000 1032 1033 1001
f 1001 1033 1034 1002
f 1002 1034 1035 1003
f 1003 1035 1036 1004
f 1004 1036 1037 1005
f 1005 1037 1038 1006
f 1006 1038 1039 1007
f 1007 1039 1040 1008
f 1008 1040 1041 1009
f 1009 1041 1042 1010
f 1010 1042 1043 1011
f 1011 1043 1044 1012
f 1012 1044 1045 1013
f 1013 1045 1046 1014
f 1014 1046 1047 1015
f 1015 1047 1048 1016
f 1016 1048 1049 1017
f 1017 1049 1050 1018
f 1018 1050 1051 1019
f 1019 1051 1020 988
f 1020 1052 1053 1021
f 1021 1053 1054 1022
f 1022 1054 1055 1023
f 1023 1055 1056 1024
f 1024 1056 1057 1025
f 1025 1057 1058 1026
f 1026 1058 1059 1027
f 1027 1059 1060 1028
f 1028 1060 1061 1029
f 1029 1061 1062 1030
f 1030 1062 1063 1031
f 1031 1063 1064 1032
f 1032 1064 1065 1033
f 1033 1065 1066 1034
f 1034 1066 1067 1035
f 1035 1067 1068 1036
f 1036 1068 1069 1037
f 1037 1069 1070 1038
f 1038 1070 1071 1039
f 1039 1071 1072 1040
f 1040 1072 1073 1041
f 1041 1073 1074 1042
f 1042 1074 1075 1043
f 1043 1075 1076 1044
f 1044 1076 1077 1045
f 1045 1077 1078 1046
f 1046 1078 1079 1047
f 1047 1079 1080 1048
f 1048 1080 1081 1049
f 1049 1081 1082 1050
f 1050 1082 1083 1051
f 1051 1083 1052 1020
f 1052 1084 1085 1053
f 1053 1085 1086 1054
f 1054 1086 1087 1055
f 1055 1087 1088 1056
f 1056 1088 1089 1057
f 1057 1089 1090 1058
f 1058 1090 1091 1059
f 1059 1091 1092 1060
f 1060 1092 1093 1061
f 1061 1093 1094 1062
f 1062 1094 1095 1063
f 1063 1095 1096 1064
f 1064 1096 1097 1065
f 1065 1097 1098 1066
f 1066 1098 1099 1067
f 1067 1099 1100 1068
f 1068 1100 1101 1069
f 1069 1101 1102 1070
f 1070 1102 1103 1071
f 1071 1103 1104 1072
f 1072 1104 1105 1073
f 1073 1105 1106 1074
f 1074 1106 1107 1075
f 1075 1107 1108 1076
f 1076 1108 1109 1077
f 1077 1109 1110 1078
f 1078 1110 1111 1079
f 1079 1111 1112 1080
f 1080 1112 1113 1081
f 1081 1113 1114 1082
f 1082 1114 1115 1083
f 1083 1115 1084 1052
f 1084 1116 1117 1085
f 1085 1117 1118 1086
f 1086 1118 1119 1087
f 1087 1119 1120 1088
f 1088 1120 1121 1089
f 1089 1121 1122 1090
f 1090 1122 1123 1091
f 1091 1123 1124 1092
f 1092 1124 1125 1093
f 1093 1125 1126 1094
f 1094 1126 1127 1095
f 1095 1127 1128 1096
f 1096 1128 1129 1097
f 1097 1129 1130 1098
f 1098 1130 1131 1099
f 1099 1131 1132 1100
f 1100 1132 1133 1101
f 1101 1133 1134 1102
f 1102 1134 1135 1103
f 1103 1135 1136 1104
f 1104 1136 1137 1105
f 1105 1137 1138 1106
f 1106 1138 1139 1107
f 1107 1139 1140 1108
f 1108 1140 1141 1109
f 1109 1141 1142 1110
f 1110 1142 1143 1111
f 1111 1143 1144 1112
f 1112 1144 1145 1113
f 1113 1145 1146 1114
f 1114 1146 1147 1115
f 1115 1147 1116 1084
f 1116 1148 1149 1117
f 1117 1149 1150 1118
f 1118 1150 1151 1119
f 1119 1151 1152 1120
f 1120 1152 1153 1121
f 1121 1153 1154 1122
f 1122 1154 1155 1123
f 1123 1155 1156 1124
f 1124 1156 1157 1125
f 1125 1157 1158 1126
f 1126 1158 1159 1127
f 1127 1159 1160 1128
f 1128 1160 1161 1129
f 1129 1161 1162 1130
f 1130 1162 1163 1131
f 1131 1163 1164 1132
f 1132 1164 1165 1133
f 1133 1165 1166 1134
f 1134 1166 1167 1135
f 1135 1167 1168 1136
f 1136 1168 1169 1137
f 1137 1169 1170 1138
f 1138 1170 1171 1139
f 1139 1171 1172 1140
f 1140 1172 1173 1141
f 1141 1173 1174 1142
f 1142 1174 1175 1143
f 1143 1175 1176 1144
f 1144 1176 1177 1145
f 1145 1177 1178 1146
f 1146 1178 1179 1147
f 1147 1179 1148 1116
f 1148 1180 1181 1149
f 1149 1181 1182 1150
f 1150 1182 1183 1151
f 1151 1183 1184 1152
f 1152 1184 1185 1153
f 1153 1185 1186 1154
f 1154 1186 1187 1155
f 1155 1187 1188 1156
f 1156 1188 1189 1157
f 1157 1189 1190 1158
f 1158 1190 1191 1159
f 1159 1191 1192 1160
f 1160 1192 1193 1161
f 1161 1193 1194 1162
f 1162 1194 1195 1163
f 1163 1195 1196 1164
f 1164 1196 1197 1165
f 1165 1197 1198 1166
f 1166 1198 1199 1167
f 1167 1199 1200 1168
f 1168 1200 1201 1169
f 1169 1201 1202 1170
f 1170 1202 1203 1171
f 1171 1203 1204 1172
f 1172 1204 1205 1173
f 1173 1205 1206 1174
f 1174 1206 1207 1175
f 1175 1207 1208 1176
f 1176 1208 1209 1177
f 1177 1209 1210 1178
f 1178 1210 1211 1179
f 1179 1211 1180 1148
f 1180 1212 1213 1181
f 1181 1213 1214 1182
f 1182 1214 1215 1183
f 1183 1215 1216 1184
f 1184 1216 1217 1185
f 1185 1217 1218 1186
f 1186 1218 1219 1187
f 1187 1219 1220 1188
f 1188 1220 1221 1189
f 1189 1221 1222 1190
f 1190 1222 1223 1191
f 1191 1223 1224 1192
f 1192 1224 1225 1193
f 1193 1225 1226 1194
f 1194 1226 1227 1195
f 1195 1227 1228 1196
f 1196 1228 1229 1197
f 1197 1229 1230 1198
f 1198 1230 1231 1199
f 1199 1231 1232 1200
f 1200 1232 1233 1201
f 1201 1233 1234 1202
f 1202 1234 1235 1203
f 1203 1235 1236 1204
f 1204 1236 1237 1205
f 1205 1237 1238 1206
f 1206 1238 1239 1207
f 1207 1239 1240 1208
f 1208 1240 1241 1209
f 1209 1241 1242 1210
f 1210 1242 1243 1211
f 1211 1243 1212 1180
f 1244 1276 1245
f 1245 1276 1246
f 1246 1276 1247
f 1247 1276 1248
f 1248 1276 1249
f 1249 1276 1250
f 1250 1276 1251
f 1251 1276 1252
f 1252 1276 1253
f 1253 1276 1254
f 1254 1276 1255
f 1255 1276 1256
f 1256 1276 1257
f 1257 1276 1258
f 1258 1276 1259
f 1259 1276 1260
f 1260 1276 1261
f 1261 1276 1262
f 1262 1276 1263
f 1263 1276 1264
f 1264 1276 1265
f 1265 1276 1266
f 1266 1276 1267
f 1267 1276 1268
f 1268 1276 1269
f 1269 1276 1270
f 1270 1276 1271
f 1271 1276 1272
f 1272 1276 1273
f 1273 1276 1274
f 1274 1276 1275
f 1275 1276 1244
f 1278 1310 1309 1277
f 892 893 1309 1310
f 1277 1309 1311 1279
f 893 894 1311 1309
f 1279 1311 1312 1280
f 894 895 1312 1311
f 1280 1312 1313 1281
f 895 896 1313 1312
f 1281 1313 1314 1282
f 896 897 1314 1313
f 1282 1314 1315 1283
f 897 898 1315 1314
f 1283 1315 1316 1284
f 898 899 1316 1315
f 1284 1316 1317 1285
f 899 900 1317 1316
f 1285 1317 1318 1286
f 900 901 1318 1317
f 1286 1318 1319 1287
f 901 902 1319 1318
f 1287 1319 1320 1288
f 902 903 1320 1319
f 1288 1320 1321 1289
f 903 904 1321 1320
f 1289 1321 1322 1290
f 904 905 1322 1321
f 1290 1322 1323 1291
f 905 906 1323 1322
f 1291 1323 1324 1292
f 906 907 1324 1323
f 1292 1324 1325 1293
f 907 908 1325 1324
f 1293 1325 1326 1294
f 908 909 1326 1325
f 1294 1326 1327 1295
f 909 910 1327 1326
f 1295 1327 1328 1296
f 910 911 1328 1327
f 1296 1328 1329 1297
f 911 912 1329 1328
f 1297 1329 1330 1298
f 912 913 1330 1329
f 1298 1330 1331 1299
f 913 914 1331 1330
f 1299 1331 1332 1300
f 914 915 1332 1331
f 1300 1332 1333 1301
f 915 916 1333 1332
f 1301 1333 1334 1302
f 916 917 1334 1333
f 1302 1334 1335 1303
f 917 918 1335 1334
f 1303 1335 1336 1304
f 918 919 1336 1335
f 1304 1336 1337 1305
f 919 920 1337 1336
f 1305 1337 1338 1306
f 920 921 1338 1337
f 1306 1338 1339 1307
f 921 922 1339 1338
f 1307 1339 1340 1308
f 922 923 1340 1339
f 1308 1340 1310 1278
f 923 892 1310 1340
f 1344 1343 1342 1341
f 1213 1212 1344 1341
f 1341 1342 1346 1345
f 1214 1213 1341 1345
f 1345 1346 1348 1347
f 1215 1214 1345 1347
f 1347 1348 1350 1349
f 1216 1215 1347 1349
f 1349 1350 1352 1351
f 1217 1216 1349 1351
f 1351 1352 1354 1353
f 1218 1217 1351 1353
f 1353 1354 1356 1355
f 1219 1218 1353 1355
f 1355 1356 1358 1357
f 1220 1219 1355 1357
f 1357 1358 1360 1359
f 1221 1220 1357 1359
f 1359 1360 1362 1361
f 1222 1221 1359 1361
f 1361 1362 1364 1363
f 1223 1222 1361 1363
f 1363 1364 1366 1365
f 1224 1223 1363 1365
f 1365 1366 1368 1367
f 1225 1224 1365 1367
f 1367 1368 1370 1369
f 1226 1225 1367 1369
f 1369 1370 1372 1371
f 1227 1226 1369 1371
f 1371 1372 1374 1373
f 1228 1227 1371 1373
f 1373 1374 1376 1375
f 1229 1228 1373 1375
f 1375 1376 1378 1377
f 1230 1229 1375 1377
f 1377 1378 1380 1379
f 1231 1230 1377 1379
f 1379 1380 1382 1381
f 1232 1231 1379 1381
f 1381 1382 1384 1383
f 1233 1232 1381 1383
f 1383 1384 1386 1385
f 1234 1233 1383 1385
f 1385 1386 1388 1387
f 1235 1234 1385 1387
f 1387 1388 1390 1389
f 1236 1235 1387 1389
f 1389 1390 1392 1391
f 1237 1236 1389 1391
f 1391 1392 1394 1393
f 1238 1237 1391 1393
f 1393 1394 1396 1395
f 1239 1238 1393 1395
f 1395 1396 1398 1397
f 1240 1239 1395 1397
f 1397 1398 1400 1399
f 1241 1240 1397 1399
f 1399 1400 1402 1401
f 1242 1241 1399 1401
f 1401 1402 1404 1403
f 1243 1242 1401 1403
f 1403 1404 1343 1344
f 1212 1243 1403 1344
f 1405 1278 1277 1406
f 861 860 1407 1408
f 1406 1277 1279 1409
f 862 861 1408 1410
f 1409 1279 1280 1411
f 863 862 1410 1412
f 1411 1280 1281 1413
f 864 863 1412 1414
f 1413 1281 1282 1415
f 865 864 1414 1416
f 1415 1282 1283 1417
f 866 865 1416 1418
f 1417 1283 1284 1419
f 867 866 1418 1420
f 1419 1284 1285 1421
f 868 867 1420 1422
f 1421 1285 1286 1423
f 869 868 1422 1424
f 1423 1286 1287 1425
f 870 869 1424 1426
f 1425 1287 1288 1427
f 871 870 1426 1428
f 1427 1288 1289 1429
f 872 871 1428 1430
f 1429 1289 1290 1431
f 873 872 1430 1432
f 1431 1290 1291 1433
f 874 873 1432 1434
f 1433 1291 1292 1435
f 875 874 1434 1436
f 1435 1292 1293 1437
f 876 875 1436 1438
f 1437 1293 1294 1439
f 877 876 1438 1440
f 1439 1294 1295 1441
f 878 877 1440 1442
f 1441 1295 1296 1443
f 879 878 1442 1444
f 1443 1296 1297 1445
f 880 879 1444 1446
f 1445 1297 1298 1447
f 881 880 1446 1448
f 1447 1298 1299 1449
f 882 881 1448 1450
f 1449 1299 1300 1451
f 883 882 1450 1452
f 1451 1300 1301 1453
f 884 883 1452 1454
f 1453 1301 1302 1455
f 885 884 1454 1456
f 1455 1302 1303 1457
f 886 885 1456 1458
f 1457 1303 1304 1459
f 887 886 1458 1460
f 1459 1304 1305 1461
f 888 887 1460 1462
f 1461 1305 1306 1463
f 889 888 1462 1464
f 1463 1306 1307 1465
f 890 889 1464 1466
f 1465 1307 1308 1467
f 891 890 1466 1468
f 1467 1308 1278 1405
f 860 891 1468 1407
f 1408 1407 1405 1406
f 1406 1409 1410 1408
f 1409 1411 1412 1410
f 1411 1413 1414 1412
f 1413 1415 1416 1414
f 1415 1417 1418 1416
f 1417 1419 1420 1418
f 1419 1421 1422 1420
f 1421 1423 1424 1422
f 1423 1425 1426 1424
f 1425 1427 1428 1426
f 1427 1429 1430 1428
f 1429 1431 1432 1430
f 1431 1433 1434 1432
f 1433 1435 1436 1434
f 1435 1437 1438 1436
f 1437 1439 1440 1438
f 1439 1441 1442 1440
f 1441 1443 1444 1442
f 1443 1445 1446 1444
f 1445 1447 1448 1446
f 1447 1449 1450 1448
f 1449 1451 1452 1450
f 1451 1453 1454 1452
f 1453 1455 1456 1454
f 1455 1457 1458 1456
f 1457 1459 1460 1458
f 1459 1461 1462 1460
f 1461 1463 1464 1462
f 1463 1465 1466 1464
f 1465 1467 1468 1466
f 1407 1468 1467 1405
f 1343 1469 1470 1342
f 1244 1245 1471 1472
f 1342 1470 1473 1346
f 1245 1246 1474 1471
f 1346 1473 1475 1348
f 1246 1247 1476 1474
f 1348 1475 1477 1350
f 1247 1248 1478 1476
f 1350 1477 1479 1352
f 1248 1249 1480 1478
f 1352 1479 1481 1354
f 1249 1250 1482 1480
f 1354 1481 1483 1356
f 1250 1251 1484 1482
f 1356 1483 1485 1358
f 1251 1252 1486 1484
f 1358 1485 1487 1360
f 1252 1253 1488 1486
f 1360 1487 1489 1362
f 1253 1254 1490 1488
f 1362 1489 1491 1364
f 1254 1255 1492 1490
f 1364 1491 1493 1366
f 1255 1256 1494 1492
f 1366 1493 1495 1368
f 1256 1257 1496 1494
f 1368 1495 1497 1370
f 1257 1258 1498 1496
f 1370 1497 1499 1372
f 1258 1259 1500 1498
f 1372 1499 1501 1374
f 1259 1260 1502 1500
f 1374 1501 1503 1376
f 1260 1261 1504 1502
f 1376 1503 1505 1378
f 1261 1262 1506 1504
f 1378 1505 1507 1380
f 1262 1263 1508 1506
f 1380 1507 1509 1382
f 1263 1264 1510 1508
f 1382 1509 1511 1384
f 1264 1265 1512 1510
f 1384 1511 1513 1386
f 1265 1266 1514 1512
f 1386 1513 1515 1388
f 1266 1267 1516 1514
f 1388 1515 1517 1390
f 1267 1268 1518 1516
f 1390 1517 1519 1392
f 1268 1269 1520 1518
f 1392 1519 1521 1394
f 1269 1270 1522 1520
f 1394 1521 1523 1396
f 1270 1271 1524 1522
f 1396 1523 1525 1398
f 1271 1272 1526 1524
f 1398 1525 1527 1400
f 1272 1273 1528 1526
f 1400 1527 1529 1402
f 1273 1274 1530 1528
f 1402 1529 1531 1404
f 1274 1275 1532 1530
f 1404 1531 1469 1343
f 1275 1244 1472 1532
f 1470 1469 1472 1471
f 1471 1474 1473 1470
f 1474 1476 1475 1473
f 1476 1478 1477 1475
f 1478 1480 1479 1477
f 1480 1482 1481 1479
f 1482 1484 1483 1481
f 1484 1486 1485 1483
f 1486 1488 1487 1485
f 1488 1490 1489 1487
f 1490 1492 1491 1489
f 1492 1494 1493 1491
f 1494 1496 1495 1493
f 1496 1498 1497 1495
g Group23484
f 808 805 823 826
f 806 807 825 824
f 829 805 1535 828
f 1535 806 831 828
f 853 807 1540 852
f 1540 808 855 852
f 807 1533 1534 1540
f 1539 805 808 1538
f 805 1539 1536 1535
f 1537 806 1535 1536
f 1538 808 1540 1534
f 806 1537 1533 807
f 1547 1548 1534 1533
f 1549 1550 1537 1536
f 1548 1551 1538 1534
f 1552 1549 1536 1539
f 1538 1551 1552 1539
f 1547 1533 1537 1550
f 1550 1541 1542 1547
f 1547 1542 1543 1548
f 1552 1546 1544 1549
f 1541 1550 1549 1544
f 1545 1551 1548 1543
f 1546 1552 1551 1545
f 789 804 801 793
f 803 790 794 802
f 849 789 1553 843
f 837 794 1554 836
f 1554 793 841 836
f 1553 790 845 843
f 1555 1542 1541 1556
f 1542 1555 1557 1543
f 1541 1544 1558 1556
f 1545 1560 1559 1546
f 1543 1557 1560 1545
f 1544 1546 1559 1558
f 1560 789 793 1559
f 1559 793 1554 1558
f 1555 790 1553 1557
f 790 1555 1556 794
f 794 1556 1558 1554
f 789 1560 1557 1553
f 1 781 816 36
f 36 816 782 2
f 2 782 795 15
f 15 795 813 33
f 33 813 796 16
f 781 1 16 796

 