# File exported by ZBrush version 2021
# www.zbrush.com
#Vertex Count 948
#Face Count 1010
#Auto scale x=0.047110 y=0.047110 z=0.047110
#Auto offset x=-0.029091 y=0.022900 z=-0.434581
v 7.38572371 5.03819906 19.72429586
v 6.69536158 5.05592279 19.41295861
v 6.18347037 5.12410448 19.65915638
v 4.59745647 5.13830776 20.19340516
v 0.91995184 5.17185678 20.8311686
v 8.96361052 5.02820767 19.41389676
v 6.59800218 5.08555914 18.43733969
v 7.578966 5.09443334 17.62875227
v 8.80727513 5.08437111 17.34529841
v 9.90626116 5.05881823 17.71414402
v 9.90557731 5.03752976 18.61479148
v 6.33844313 4.8200615 19.89992765
v 6.05048005 4.84306591 19.43993864
v 4.71388041 4.83408417 20.41994658
v 4.48612817 4.8570307 19.99191368
v 0.8940803 4.89055884 20.62298415
v 0.92957066 4.86562845 21.06133106
v 8.64508559 5.04294171 19.01244599
v 7.89502629 5.04704796 19.19435513
v 9.1699718 5.04815565 18.57314574
v 9.20138007 5.06032763 18.08011949
v 8.58341279 5.07407986 17.87494371
v 7.88854018 5.07914451 18.0348236
v 7.3170992 5.07377874 18.50685554
v 7.34210866 5.06122783 18.93920788
v 9.88525356 4.397073 18.59794897
v 4.74131338 4.40623409 20.49316698
v 0.916133 4.43517647 21.12980058
v 8.92473559 3.74566614 19.38586913
v 7.34630157 3.75578152 19.69331902
v 7.36698148 4.39698191 19.70835797
v 8.94459184 4.3869377 19.39920701
v 9.86576043 3.75627274 18.5835091
v 9.86588758 3.77901273 17.67769956
v 9.88579381 4.41918102 17.69456864
v 8.77173593 3.80274211 17.31356371
v 8.78981392 4.44373627 17.32820475
v 7.54463508 3.8120294 17.59784945
v 7.56212791 4.45322094 17.61263156
v 6.56182279 3.80323017 18.40469403
v 6.57997037 4.44439228 18.42068442
v 8.60727534 3.76044984 18.98375222
v 7.85681749 3.76457443 19.1642361
v 7.30459826 3.77883022 18.90802481
v 6.65677701 3.77354827 19.38063938
v 7.28063639 3.79137101 18.47558834
v 7.85317874 3.79673867 18.00457806
v 8.547928 3.79182269 17.84519603
v 9.16398861 3.77861418 18.04928245
v 9.13244432 3.76598135 18.5441401
v 6.14009824 3.7042475 19.62225138
v 6.3126853 3.989262 19.87857718
v 6.02512013 4.0012287 19.41786763
v 6.03772924 4.42216597 19.42879401
v 4.68682762 3.9848306 20.39613401
v 6.37683981 4.40159013 19.96953207
v 4.5522425 3.69886086 20.15273995
v 4.45936165 3.99517814 19.96739512
v 0.866192 4.01808355 20.59355529
v 0.87405275 4.4543979 20.60876442
v 0.90152422 4.01066846 21.03260946
v 0.87307104 3.72212844 20.78241994
v 4.46849965 4.42610331 19.98094682
v 2.97732942 4.84532811 20.82147074
v 2.98471241 4.41599742 20.89296286
v 2.9496377 3.99290392 20.79539723
v 2.86583839 3.7056114 20.54717259
v 2.81408833 4.0017952 20.35888994
v 2.8225311 4.43566548 20.37326655
v 2.84154472 4.86945446 20.38567956
v 2.91215577 5.15073152 20.59163723
v -4.61784189 4.54454906 19.77976722
v -4.58532149 5.11323441 19.86802404
v -3.53173288 5.10383894 20.1482573
v -3.55334335 4.53868733 20.06810607
v -3.70119012 5.06434342 20.70226744
v -4.69194067 5.07817346 20.30906206
v -4.75878439 4.52428162 20.36747441
v -3.74723026 4.51375821 20.76552682
v -3.55672495 5.48833902 20.35694657
v -4.88627736 5.18734045 19.9638171
v -3.13568931 4.96324026 20.30501338
v -3.15993269 4.52846378 20.29078606
v -3.28123972 4.93578514 20.77604833
v -3.31636266 4.50898361 20.83576258
v -3.15050717 5.24066032 20.5010075
v -1.31841838 4.92533322 20.58033002
v -1.33807978 4.49483948 20.56399739
v -1.40851909 4.90108351 21.01973592
v -1.44552198 4.47628861 21.08623298
v -1.3492018 5.20317649 20.78992392
v -3.57364116 3.9681921 20.11316662
v -4.62100081 3.97064123 19.83234694
v -3.74346214 3.96821108 20.66845716
v -4.72895763 3.97521719 20.27518599
v -3.6267412 3.56841488 20.29608351
v -4.92518266 3.88428097 19.92246868
v -3.16795224 4.09321158 20.2770041
v -3.31354914 4.08714962 20.74854007
v -3.20329248 3.80159551 20.45377078
v -1.34571882 4.06414964 20.54847829
v -1.43597816 4.05717831 20.98843076
v -1.39509265 3.77218279 20.73693048
v -4.90968317 4.51432471 19.9427551
v -4.069913 4.56015198 19.2564619
v -4.32655162 8.93780524 19.60782606
v -3.91775186 10.11890105 19.85560471
v -3.87011375 10.04489496 20.20397728
v -4.30924636 8.89595516 19.95330445
v -3.25073322 9.50797847 20.40286115
v -3.52420771 8.83587906 20.27610833
v -2.4397419 9.04218277 20.49415638
v -2.53654966 8.73188489 20.45659853
v -2.25010357 9.02839068 20.25517159
v -2.33820983 8.73791363 20.22873623
v -2.09887679 9.05989322 19.94123685
v -2.19414669 8.74974716 19.90581089
v -2.57750934 9.43791352 19.72121697
v -2.65814547 8.83392114 19.64415475
v -3.57005365 10.12537641 19.65333197
v -3.93419045 8.91576966 19.43883664
v -2.16928304 10.08932797 20.28069725
v -2.29443758 10.07964846 20.56981484
v -2.26656557 9.59334998 20.69137017
v -2.0942711 9.16403795 20.58501005
v -1.87881579 9.17177473 20.31649139
v -1.7597387 9.18143716 20.02596436
v -1.79038184 9.61790523 19.90224425
v -1.95543692 10.09702299 20.01261383
v 4.05160632 9.99810992 20.36673299
v 4.08825194 9.98705765 20.69484571
v 4.15567355 9.50151956 20.8112959
v 4.22221078 9.07469937 20.65486371
v 4.25037916 9.08504692 20.32118786
v 4.21019252 9.09610867 19.99348255
v 4.14123969 9.53181129 19.87584179
v 4.07980633 10.00844924 20.0333532
v 8.66942006 9.97252288 19.23219322
v 9.45275573 9.97006774 18.93827352
v 9.60737043 9.9596911 19.27158499
v 8.81746768 9.96160979 19.56926364
v 9.65280423 9.47482926 19.40277681
v 8.87093051 9.47675112 19.69607402
v 9.56987712 9.0483064 19.25927889
v 8.80613327 9.05069322 19.54372278
v 9.41148702 9.05860207 18.92783931
v 8.66506583 9.06154875 19.20435727
v 8.12640652 9.10195965 17.95109118
v 9.07790732 9.09124393 17.77459209
v 9.05130559 9.53051571 17.63492714
v 8.07061 9.54136175 17.82315286
v 9.1112248 10.00299237 17.78690324
v 8.1357615 10.01303437 17.97651817
v 8.40529865 9.9926967 18.60625889
v 9.22795714 9.98891055 18.29880963
v 6.58303598 9.97984657 19.8830029
v 7.88987434 9.97447511 19.50488708
v 8.03068051 9.96317423 19.84487191
v 6.70844072 9.96802062 20.2282934
v 8.09194022 9.47817006 19.96863503
v 6.7752933 9.48285324 20.35084572
v 8.04528107 9.05231333 19.80955413
v 6.75166039 9.05707622 20.1851041
v 7.9217634 9.06352311 19.46380119
v 6.65494182 9.06872061 19.83172508
v 6.84162208 9.09197712 18.94924038
v 7.39536526 9.10096076 18.36544523
v 7.30055401 9.54052924 18.25509843
v 6.77124651 9.53160126 18.82650651
v 7.38294657 10.01173499 18.40411646
v 6.80034957 10.00304741 18.99245626
v 6.49313944 9.99160229 19.52343573
v 7.61886132 9.9953682 18.88052541
v 10.15144359 9.96054891 18.9260737
v 10.24799199 9.47714587 18.9535206
v 10.08226745 9.04872582 18.93215368
v 10.16896869 9.06415256 18.14593839
v 10.35282183 9.49459948 18.07781047
v 10.23079774 9.97653361 18.14060995
v 6.46741514 9.51606318 19.35667561
v 6.53527293 9.08056553 19.48059499
v 9.95370664 9.51219733 17.74341978
v 9.8453361 9.07551796 17.87624435
v 9.90812545 9.9875669 17.88150954
v 8.50239615 5.83640857 18.96987537
v 7.80001197 5.84315215 19.04721783
v 8.98383558 5.83944065 18.65767271
v 9.20850575 9.07576405 18.34097032
v 9.11233123 5.8492568 18.25434752
v 8.69028975 5.86225181 18.0262366
v 8.1354724 5.86832799 18.09461566
v 7.61301034 5.86499858 18.43595238
v 7.54985661 5.85456627 18.79372484
v 8.58997355 5.83846391 19.1964073
v 8.63360758 5.46497181 19.30609746
v 7.44484774 5.47637517 19.4149646
v 7.57411137 5.84484311 19.29022853
v 9.30580189 5.84068815 18.72958931
v 9.47095012 5.4691799 18.75842794
v 9.47342488 5.84790366 18.11293089
v 9.66596877 5.48396961 18.03817136
v 8.84235378 5.85966065 17.76765619
v 8.94625496 5.50443316 17.64047257
v 8.03299269 5.86626443 17.8725474
v 7.98413966 5.51525769 17.75986754
v 7.2893961 5.86432992 18.362422
v 7.11568427 5.51143548 18.33063606
v 7.16368265 5.85535956 18.9026021
v 6.96628161 5.49554441 18.96038311
v 7.32777759 9.07891127 19.18339396
v 9.58294676 9.0716268 18.25959309
v 8.54861944 7.30217854 19.01425651
v 7.84558557 7.31022023 19.09222145
v 7.59463566 7.32444376 18.83920419
v 7.65687907 7.3378101 18.48117678
v 8.17953534 7.34235538 18.13997101
v 8.73601517 7.33468439 18.07306087
v 9.15979696 7.31818032 18.30194736
v 9.03102422 7.30577807 18.70355059
v 7.8966679 9.073047 19.13417591
v 8.5995316 9.06636288 19.05425115
v 9.08099823 9.06790771 18.74250713
v 8.78401355 9.08787024 18.11356476
v 8.22767985 9.09444555 18.18197988
v 7.70600918 9.09243196 18.52427816
v 7.64487599 9.08330282 18.88210566
v 10.24368267 9.05333056 18.60417888
v 10.42532106 9.48266979 18.57185206
v 10.32508014 9.96537886 18.59252374
v 1.66312665 10.02489447 20.54712451
v 1.6487838 10.01394659 20.86683115
v 1.7074567 9.52819658 20.98496787
v 1.8127334 9.10072037 20.84005292
v 1.9039558 9.11057258 20.52114337
v 1.91389674 9.1214667 20.20153036
v 1.85347587 9.55749954 20.08221446
v 1.75412511 10.03477072 20.22871725
v -0.27824893 10.05359962 20.51720602
v -0.33213466 10.0429168 20.8258547
v -0.28067853 9.55690679 20.94522754
v -0.14586931 9.12879798 20.8136707
v -0.00623149 9.13789422 20.51244756
v 0.04260972 9.14854479 20.20343577
v -0.01083287 9.58484458 20.08285086
v -0.13909117 10.06273066 20.21657753
v -4.45423184 4.5516197 19.40366625
v -2.32955862 4.53284647 19.75398408
v -2.8003788 4.54860122 19.49387403
v -4.36255831 6.49400991 19.81970999
v -4.37592972 6.51932998 19.46790554
v -3.9907616 6.51516237 19.31627041
v -2.72919761 6.47529868 19.55337952
v -2.2651963 6.42952264 19.81830118
v -2.43669242 6.41849695 20.13918699
v -2.61035395 6.41174514 20.36837524
v -3.58461783 6.46401235 20.17838455
v 8.62203152 5.07888388 19.29746934
v 7.43320398 5.09030685 19.40561152
v 9.4589869 5.08343548 18.74888823
v 9.6535197 5.0986446 18.02707101
v 8.93481554 5.11885322 17.63014907
v 7.97361941 5.12920772 17.75066375
v 7.10485911 5.12538298 18.32112735
v 6.95501236 5.10950203 18.95084467
v 7.77989825 5.07795458 19.03967653
v 8.48259683 5.07008749 18.96304512
v 8.96390848 5.07475422 18.64981764
v 9.09231936 5.08807122 18.24496534
v 8.67105598 5.10392687 18.01721753
v 8.11682633 5.11054393 18.08655879
v 7.59384174 5.10561846 18.42788475
v 7.53005223 5.09216798 18.78575021
v -4.50630421 0.15978559 19.2360401
v -4.50237699 0.17660797 19.5883791
v -4.14368376 -0.97773937 19.73572896
v -4.17771451 -1.02506513 19.37756934
v -3.75436765 0.21381599 19.92988409
v -3.52590025 -0.46462941 19.99684802
v -2.79458381 0.2946876 20.13269518
v -2.71464925 -0.01898831 20.14287382
v -2.61098055 0.30423909 19.92097067
v -2.53402461 0.01060244 19.9185364
v -2.49877958 0.31823329 19.6300122
v -2.40637381 0.00300954 19.62730401
v -2.98454888 0.2655998 19.38424144
v -2.88872957 -0.34745724 19.36781391
v -4.1243007 0.19610372 19.07709647
v -3.83673522 -1.01801015 19.1814993
v -2.63223834 -1.05985916 20.13395407
v -2.50117621 -1.05021654 19.84658374
v -2.57905797 -0.58597037 20.29515737
v -2.38111699 -0.15442741 20.22627286
v -2.1660384 -0.14623183 19.9639082
v -2.05358249 -0.13535061 19.6844056
v -2.0975015 -0.5605698 19.51904607
v -2.2840195 -1.04243216 19.58265149
v -0.68729288 -1.09667824 20.42736706
v -0.62689905 -1.08593903 20.11938768
v -0.60794252 -0.62271368 20.5822076
v -0.44352669 -0.19023693 20.48331097
v -0.29864875 -0.18113702 20.1838237
v -0.24430944 -0.17045226 19.87529395
v -0.32160066 -0.59471897 19.72335075
v -0.48144385 -1.07685864 19.82088221
v 8.33842646 -1.17217503 18.98063411
v 8.47920353 -1.18337406 19.32051962
v 9.27236168 -1.18461334 19.03160194
v 9.1244273 -1.1737756 18.69439362
v 8.55899608 -0.70773858 19.46974769
v 9.34326737 -0.70880462 19.18348252
v 8.52302355 -0.27257967 19.33547065
v 9.28798896 -0.27376982 19.05566945
v 8.38794689 -0.26151971 18.99360444
v 9.1348672 -0.26295506 18.7203735
v 7.87147878 -0.22023578 17.73102891
v 7.7950555 -0.65034208 17.58217915
v 8.77235209 -0.65852854 17.39725184
v 8.81895494 -0.22818301 17.55578049
v 7.83173781 -1.13091948 17.71467098
v 8.80507176 -1.13894876 17.53154786
v 8.08770492 -1.15165415 18.34952885
v 8.91203855 -1.15392521 18.04812162
v 6.24053274 -1.16380691 19.59782455
v 6.35845564 -1.17579314 19.94540699
v 7.68743269 -1.18139116 19.58348083
v 7.5540704 -1.16992635 19.24096747
v 6.45275828 -0.70065487 20.09367476
v 7.7756174 -0.70593522 19.73107993
v 6.45916152 -0.26542489 19.94947592
v 7.75834155 -0.27079006 19.59148394
v 6.36882785 -0.25367199 19.59450653
v 7.64110819 -0.25942051 19.24386038
v 6.57111704 -0.23031915 18.71406515
v 6.47816312 -0.6599846 18.5680463
v 7.01809271 -0.6512586 18.0042529
v 7.13477696 -0.22145611 18.13754687
v 6.47662336 -1.14062339 18.71023345
v 7.07111968 -1.13206632 18.13105569
v 6.15843371 -1.15195258 19.23654428
v 7.29663881 -1.14869719 18.61171385
v 6.16457695 -0.66698764 19.09426161
v 6.25552614 -0.24165192 19.24153618
v 9.89617172 -0.25116748 17.92880699
v 9.57852738 -0.24037162 17.65659518
v 9.66578847 -0.67273823 17.50617149
v 10.05716436 -0.68242309 17.84443247
v 9.59409329 -1.15140688 17.62882692
v 9.91005173 -1.16193606 17.89143007
v 7.62193199 -0.24981738 18.91361768
v 7.67474387 1.51301238 18.95513184
v 8.3778467 1.50763048 18.88222016
v 8.32504557 -0.25658607 18.84233749
v 8.86067786 1.50805433 18.57074753
v 8.809042 -0.25396839 18.53235717
v 8.99084486 1.51280441 18.1649305
v 8.94092336 -0.24477897 18.12738088
v 8.57161089 1.51987348 17.93577515
v 8.52279328 -0.23335846 17.89758976
v 8.01750775 1.52425744 18.00301552
v 7.96859589 -0.22789577 17.96357567
v 7.49243809 1.52442761 18.3417731
v 7.44232048 -0.230193 18.30075173
v 7.42647875 1.51949739 18.69966196
v 7.37487957 -0.23938082 18.65798522
v 3.70147542 -1.1441238 20.04015119
v 3.73115162 -1.15530816 20.36913816
v 3.82671252 -0.68053381 20.51499064
v 3.92356266 -0.24655991 20.38461551
v 3.95764149 -0.23613098 20.05109022
v 3.92334758 -0.22503427 19.72266943
v 3.83047051 -0.65004777 19.57868568
v 3.73673722 -1.13371497 19.70696624
v 8.5045255 2.97146879 19.13191877
v 7.488595 2.98489302 19.22169575
v 7.38068753 3.34868125 19.36361024
v 8.56971749 3.33718205 19.25846789
v 9.22067267 2.9767267 18.66435177
v 9.40721502 3.34219704 18.70992474
v 9.38846141 2.99652033 18.04236237
v 9.60118228 3.35886305 17.98325922
v 8.76241511 3.01958199 17.69932395
v 8.8861118 3.37806835 17.58834327
v 7.95554838 3.02985078 17.80581375
v 7.92654211 3.38759034 17.70976195
v 7.20960481 3.02516 18.29297763
v 7.05603518 3.38385733 18.27806584
v 7.08072138 3.00701463 18.83245997
v 6.90409513 3.36793431 18.90748583
v 7.71613784 2.9946029 18.97980792
v 8.41870738 2.98807218 18.90531409
v 8.90054978 2.98985107 18.5930507
v 9.02946928 2.99767768 18.18718939
v 8.60994557 3.00785315 17.95936441
v 8.05629222 3.01310505 18.02788897
v 7.53236378 3.01169972 18.36751385
v 7.4673913 3.00385793 18.72522812
v -4.44291862 4.5392203 19.75774999
v -4.47368734 2.57827322 19.68402983
v -4.48052075 2.57751757 19.32937295
v -3.65762219 4.52909638 20.12527092
v -3.7082557 2.58913886 20.04383802
v -2.67926852 4.51561175 20.30609008
v -2.73393552 2.61697987 20.23036456
v -2.5248787 4.52279879 20.07458522
v -2.55790487 2.62426244 20.00053485
v -2.8475181 2.61804835 19.41479
v -2.38335611 2.63424339 19.67905248
v -4.09860138 2.59850081 19.17883729
v 9.81860531 -1.1815573 18.68615518
v 9.99623171 -1.17473827 18.34905946
v 9.94065723 -0.70341153 18.73148586
v 9.80057413 -0.27077077 18.72557858
v 9.96459506 -0.26392267 18.39302814
v 7.05264947 -0.24370518 18.95503506
v 9.3132426 -0.24719025 18.04489786
v 10.12187051 -0.69540904 18.34486781
v 1.29063754 -1.12688033 20.50104673
v 1.31178755 -1.11584182 20.18135527
v 1.37748365 -0.65252953 20.65193095
v 1.51288594 -0.21930331 20.53672193
v 1.60973585 -0.20950197 20.21890805
v 1.62536605 -0.19852443 19.89916599
v 1.54095564 -0.6231253 19.75072426
v 1.4094355 -1.10605414 19.86421196
v 7.39233381 3.7347638 19.37290829
v 8.58129229 3.72327219 19.26713207
v 9.41844442 3.72830837 18.71815937
v 9.61207196 3.74482604 17.99178106
v 8.89648528 3.76412813 17.59691319
v 7.93698201 3.7736865 17.71887908
v 7.06687299 3.76991142 18.2876435
v 6.91539854 3.75399757 18.91710334
v 7.74102078 3.7591201 19.00851813
v 8.44390979 3.75383689 18.93325125
v 8.92551876 3.75433127 18.62027365
v 9.0538436 3.75905241 18.21394548
v 8.63366894 3.76607846 17.98636152
v 8.07974231 3.7703729 18.05543392
v 7.55604477 3.77051429 18.39584387
v 7.49163088 3.76556794 18.75390543
v -23.22525434 0.03481379 4.74248687
v -23.62386218 8.59644891 4.99185273
v -18.71056873 -0.27005903 9.15489071
v -18.99757974 8.53136383 9.52200965
v -13.53225367 8.42315144 14.74998941
v -13.20052245 -0.22350627 14.15899583
v -7.99032528 8.49816085 18.34281563
v -7.79736198 0.02604444 17.66415862
v -2.46164969 8.73577162 19.37198279
v -2.79493681 0.44474469 18.95540323
v -0.76984786 8.96086058 21.28644912
v -0.76649647 0.60718577 20.77176179
v 3.98845891 9.04828109 21.97701242
v 2.24282923 0.72071537 21.4302064
v 9.44054642 7.23250833 20.5252882
v 6.710689 -0.54666889 21.03892414
v 14.33685693 4.17284059 17.69612612
v 12.6157398 -3.22145904 18.80655663
v 20.8221761 -5.50835722 9.97959052
v 18.16904624 -11.09757609 13.09839541
v -2.59163893 4.13468209 19.09279396
v 3.01309683 4.43115056 21.68783663
v 13.4225091 0.07713227 18.3431604
v 19.43370873 -8.60752522 11.75099654
v -1.47680689 4.37301878 20.2984368
v -0.72102535 3.43310195 20.93136586
v -1.2152953 3.71712073 20.50078736
v 0.5963596 4.48461941 21.30656853
v 0.20110681 3.73334329 21.17289879
v -0.74023334 5.60482274 21.07088595
v -1.3259271 5.25298033 20.50866204
v 0.20569549 5.26877841 21.27500147
v -7.87421607 2.46290984 17.78188161
v -8.72116474 2.77723869 17.58512836
v -6.66185684 3.84859153 18.2294475
v -6.96432432 3.00734675 18.08837753
v -7.91660386 4.98758042 17.96473524
v -8.83621244 4.54941444 17.67405448
v -7.05531527 4.60754369 18.16486408
v 6.57549784 3.33612939 21.15799585
v 7.56657513 1.86964853 20.90779368
v 6.59877966 2.43093602 21.13193879
v 9.11429674 2.32612104 20.39735115
v 8.43354769 1.91784713 20.62254259
v 8.30443082 3.96829806 20.7730055
v 7.28783356 3.88054384 21.01873134
v 9.28559897 3.31854831 20.38361473
v -18.76704277 8.54548044 9.39348604
v -23.29234605 8.61959472 4.90610483
v -12.97326871 -0.26792303 13.85431392
v -18.48914636 -0.25366651 9.0261614
v 17.87166934 -11.08625434 12.98848637
v 19.12838124 -8.59911408 11.65417391
v 13.20234056 0.07868991 18.14355093
v 12.42440292 -3.21742238 18.58209269
v -22.88055469 0.04708537 4.64876243
v -13.41287324 8.43794747 14.47677239
v 20.50625118 -5.50299177 9.90016038
v 14.11384545 4.17693387 17.50508973
v -2.5449706 0.46825504 18.66228757
v -0.81597309 3.72878472 20.3364982
v -1.07484814 4.38133186 20.14233611
v -2.3395285 4.15660348 18.80351822
v -0.36195256 0.66529146 20.54762554
v -0.38866793 3.45167179 20.70205109
v 2.37076581 0.73816369 21.14020949
v 0.41456053 3.75089116 20.90650443
v 3.12092934 4.45319057 21.39459445
v 0.79793139 4.49990666 21.03551312
v -2.20863622 8.76029334 19.08563096
v -0.91716308 5.26372009 20.35475016
v -0.40094018 5.62395086 20.83799821
v -0.42926885 8.98000262 21.05347915
v 4.06851146 9.06958032 21.68007329
v 0.40329169 5.28726001 21.00498101
v -8.68366762 2.76709991 17.33766222
v -7.76098268 0.12074796 17.1386455
v -7.81941148 2.50704584 17.50251502
v -6.91903603 3.03353508 17.80476236
v -6.62097845 3.87347731 17.94522566
v -8.77637167 4.5706678 17.38969979
v -7.86393748 5.00035148 17.68020278
v -7.91752873 8.67629586 18.04185819
v -7.0098568 4.63078344 17.88222818
v 6.60160677 2.44678154 20.84142694
v 6.56371681 3.36308918 20.87087098
v 6.67908651 -0.53902905 20.75378059
v 7.52410763 1.87710522 20.62413422
v 8.32150677 1.91784491 20.35942386
v 8.96937799 2.31887074 20.14711482
v 7.24111114 3.90246492 20.73774022
v 8.19097033 3.98422614 20.5102929
v 9.31352285 7.24812485 20.26805778
v 9.12909783 3.32372936 20.13835195
v 8.90924369 8.49398691 19.94763883
v 15.54911683 8.55234992 13.98463084
v 8.7177183 0.27388845 19.60604654
v 15.37899125 0.40398713 13.75601004
v 10.51148775 0.38060663 17.53284914
v 10.73858776 8.54188724 17.88083581
v 18.67566657 0.4395419 9.21784014
v 19.08720995 8.86981523 9.61152077
v 24.34690097 0.89790322 -3.52751277
v 24.85886176 9.02421169 -3.12076328
v 6.34935117 8.57812104 19.77169263
v 6.01804759 0.35916388 19.4550845
v 7.75711999 8.5852891 18.05118407
v 7.32011799 0.40706151 17.78389647
v 11.26682805 8.55285917 16.30718303
v 11.05478217 0.40443754 15.95504456
v 15.85725183 8.51837516 12.74884841
v 15.59328035 0.31555879 12.54302485
v 8.76928521 2.49662871 19.69863608
v 10.56110497 2.59164209 17.60851266
v 15.43982269 2.6067579 13.78917823
v 18.82084848 2.67421684 9.34155181
v 24.42385628 3.09689947 -3.45253752
v 6.10738553 2.58157859 19.54132204
v 7.43794474 2.61853166 17.85710232
v 11.09476226 2.61470565 16.02192118
v 15.68549286 2.5399923 12.43200021
v 8.85935825 6.36323751 19.8592384
v 10.67748367 6.42558846 17.78935459
v 15.49324756 6.43041652 13.9069784
v 19.00702202 6.73357797 9.52354771
v 24.762574 6.93000036 -3.19479847
v 6.26323698 6.44761392 19.69021545
v 7.64344377 6.46538637 17.98262408
v 11.20467067 6.43842974 16.21044233
v 15.65826548 6.44653659 12.55134141
v 10.10767608 0.3553525 18.03123736
v 10.15976996 2.56914913 18.1131833
v 10.48417117 8.55478292 17.76577925
v 10.44743698 6.43862269 17.65698803
v 8.72821197 6.3793424 19.610545
v 8.77748885 8.51009813 19.69940217
v 15.34989515 8.56436185 13.85017857
v 15.29033146 6.44163136 13.7691904
v 18.88346766 8.88194672 9.49100137
v 18.80274075 6.74590367 9.40305087
v 24.60890631 9.02864056 -3.11694107
v 24.51228959 6.93589562 -3.19141656
v 6.54872404 0.35438786 19.26387098
v 6.63807654 2.5768916 19.34791907
v 8.6335886 2.51262006 19.45414065
v 8.58274855 0.28991071 19.36119685
v 7.56182679 0.39060307 17.92357217
v 7.6808384 2.60206839 17.99539957
v 11.19885955 0.39391208 16.13402853
v 11.23547354 2.6035838 16.20236964
v 15.7695536 0.30984058 12.68892477
v 15.87943355 2.5363118 12.5960727
v 9.86092352 2.57846047 18.05626453
v 9.8085184 0.36472789 17.97235055
v 15.23851087 2.61722121 13.64960912
v 15.18519607 0.41625392 13.62432226
v 10.25908537 0.39250746 17.41752309
v 10.33225137 2.60401176 17.47689763
v 18.6139052 2.68677566 9.22062152
v 18.46753273 0.45242201 9.09679215
v 24.17145896 3.10631518 -3.45108885
v 24.09359017 0.90739943 -3.52676502
v 15.84931642 6.4326686 12.70425883
v 11.34696157 6.42218757 16.39013039
v 6.80002821 6.44252587 19.5011218
v 6.88614809 8.57315128 19.58054744
v 7.88360268 6.44916824 18.12035579
v 7.99875034 8.5690191 18.18807504
v 11.41405328 8.53474638 16.48475629
v 16.04982103 8.49782873 12.90335969
v 23.74492281 6.1456152 -1.18776728
v 23.54730162 5.93968347 -0.8189843
v 24.03441111 6.19039045 -0.99380192
v 23.87403272 6.00945363 -0.64052856
v 24.20890673 6.29896027 -0.80644857
v 24.15090938 6.22881434 -0.50450805
v 24.36705581 6.56206381 -0.88803139
v 24.37731669 6.57181607 -0.4805038
v 24.48270892 6.96999121 -0.95318416
v 24.50735273 7.01241506 -0.51374411
v 24.31847164 7.40776751 -1.29916547
v 24.47655745 7.39580493 -0.96105062
v 24.31417244 6.94867997 -1.32498467
v 24.24515508 7.79474046 -1.13430571
v 24.3922133 7.69452042 -0.92866813
v 24.49476893 7.46592492 -0.55879264
v 24.37469516 7.0729555 -0.0491396
v 24.36623089 7.54964532 -0.1255167
v 23.99325879 6.69262935 0.33125803
v 24.24189336 6.60311744 -0.0426092
v 24.10076393 7.14033631 0.34559985
v 24.11069079 7.58676983 0.25296096
v 24.36165588 7.83318142 -0.6449897
v 24.22785456 7.94010899 -0.25214363
v 24.14463139 8.06953457 -0.82093905
v 23.98256774 8.21108911 -0.41273267
v 24.00349183 7.94587456 0.11194603
v 23.76054819 8.19040984 -0.00919493
v 23.64883243 8.32433832 -0.59254409
v 23.43284035 8.29179198 -0.15443377
v 23.83943927 8.16386441 -1.01375243
v 23.96943736 7.85485894 -1.33743373
v 24.02993478 7.43870387 -1.5377707
v 24.00924855 6.95240349 -1.58394465
v 24.20104723 6.51364981 -1.22086208
v 23.90563015 6.49217282 -1.45488661
v 24.00336025 6.23086019 -0.10244112
v 23.69041744 5.98690374 -0.21798099
v 23.33136015 5.90713903 -0.38086006
v 23.48995712 6.13029411 0.17122125
v 23.14070776 6.06763191 0.04032676
v 23.01070461 6.37664054 0.36401186
v 22.95021478 6.7927836 0.56436084
v 23.3452446 6.40723149 0.46274401
v 23.31610928 6.792058 0.64944831
v 23.79278075 6.3415176 0.25242894
v 23.60942611 6.48754973 0.46054317
v 23.67788677 6.77889789 0.56848227
v 23.74850083 7.20099631 0.59861269
v 23.35878491 7.24928822 0.69428302
v 23.2352141 8.08588049 0.21433085
v 22.9709086 7.27908271 0.61053732
v 23.07451688 7.73931844 0.48148497
v 23.43354128 7.68618646 0.57117528
v 23.78738842 7.61264596 0.49547696
v 23.79271749 7.8831529 0.33833183
v 23.55598352 8.01157707 0.32224022
v 23.8017587 7.01767582 -1.14543452
v 23.80332504 7.53537941 -1.05419306
v 23.76649469 7.84396483 -0.92217316
v 23.67260325 6.5401187 -0.96700914
v 23.56086977 6.27827973 -0.78505445
v 23.51275878 7.8357536 -0.4019151
v 23.25648233 7.51224942 0.06591885
v 23.15995165 6.97095341 0.16563028
v 23.43048958 6.82482512 -0.41728364
v 23.30850788 1.95935481 -1.32302549
v 23.11456593 1.7527911 -0.95265087
v 23.59998762 2.00364517 -1.13194419
v 23.44314677 1.82208554 -0.77740181
v 23.7764342 2.11177374 -0.9461907
v 23.72151637 2.04108629 -0.6437966
v 23.93381656 2.37500222 -1.02886983
v 23.94827035 2.38395613 -0.62146749
v 24.04899648 2.78300775 -1.09440849
v 24.07812674 2.82458454 -0.65516707
v 23.88139879 3.22149352 -1.43785431
v 24.04289815 3.20882557 -1.10141017
v 23.87663147 2.76246607 -1.46452373
v 23.80989149 3.6081995 -1.27152437
v 23.95903478 3.50751323 -1.06761064
v 24.06527218 3.27817948 -0.69923443
v 23.95023649 2.88427285 -0.1891316
v 23.94120287 3.36110343 -0.26451046
v 23.57256793 2.50336091 0.19441387
v 23.81733854 2.41444555 -0.18214636
v 23.68040708 2.95099132 0.20853364
v 23.68955963 3.39760514 0.11666084
v 23.93142278 3.64564126 -0.78334642
v 23.8017005 3.75187075 -0.38894983
v 23.71270543 3.88241446 -0.95661858
v 23.55485495 4.02322981 -0.54651059
v 23.58107522 3.75701321 -0.02257139
v 23.337003 4.00186511 -0.14075809
v 23.21936857 4.13697276 -0.72268262
v 23.007868 4.10366382 -0.28244991
v 23.40559272 3.97723552 -1.1461152
v 23.53215703 3.66880604 -1.47169876
v 23.59044032 3.25301313 -1.67345972
v 23.56909365 2.76679689 -1.7203308
v 23.76443492 2.32727143 -1.36008168
v 23.46661394 2.30637518 -1.5911184
v 23.5780716 2.04241904 -0.24024937
v 23.26385852 1.79880135 -0.35305132
v 22.9031185 1.71950493 -0.51239286
v 23.06744181 1.94151294 0.03844855
v 22.71685639 1.87922382 -0.08896976
v 22.59027184 2.18766848 0.23660113
v 22.53199361 2.60344368 0.43837601
v 22.92584172 2.21793965 0.33197287
v 22.89875351 2.60241759 0.51971528
v 23.37115869 2.15246393 0.11698031
v 23.19000804 2.29818609 0.32723338
v 23.25967572 2.58927488 0.43503521
v 23.33076044 3.01130465 0.46525229
v 22.94206175 3.05955038 0.56499155
v 22.81392605 3.89712066 0.08792913
v 22.5533833 3.08965454 0.48527112
v 22.6558453 3.55010599 0.35605557
v 23.0157604 3.496677 0.44194644
v 23.3687725 3.42314219 0.36251891
v 23.37258585 3.69392526 0.20581407
v 23.13576078 3.82249145 0.19240914
v 23.36610796 2.8313101 -1.27960781
v 23.36882311 3.34885174 -1.18737316
v 23.33348065 3.65717684 -1.05439992
v 23.23860993 2.35347526 -1.10079402
v 23.12860726 2.09132442 -0.91822949
v 23.08505358 3.64807047 -0.53161713
v 22.833466 3.32375751 -0.0617892
v 22.7377324 2.78228847 0.03784821
v 23.00224033 2.63720746 -0.54807123
v -21.90504521 5.50052429 6.18626807
v -21.61006083 5.29725329 6.48478303
v -22.12182931 5.55802062 6.45667285
v -21.86648658 5.38046254 6.75084132
v -22.22961786 5.67576196 6.68438601
v -22.08499897 5.61076039 6.95699447
v -22.39942714 5.94146362 6.64611064
v -22.28646134 5.96061641 7.03746422
v -22.52073828 6.35099404 6.60644463
v -22.41124929 6.403978 7.03153828
v -22.4589883 6.77597019 6.21414641
v -22.5082987 6.77616819 6.58426229
v -22.47226797 6.31649802 6.20202124
v -22.3314017 7.16426401 6.337678
v -22.4118996 7.07297258 6.58086851
v -22.40327844 6.85578551 6.97116612
v -22.14379594 6.47104187 7.43290966
v -22.14868472 6.94543027 7.3432241
v -21.67369598 6.08839469 7.69263794
v -22.02502029 5.99776243 7.41342665
v -21.76250127 6.53925519 7.72509903
v -21.79047007 6.98359794 7.62631706
v -22.29454605 7.21700504 6.83800262
v -22.0466529 7.32877838 7.16922634
v -22.13557206 7.44296004 6.59804188
v -21.85534259 7.588853 6.93439318
v -21.72315315 7.3361805 7.44889958
v -21.52278139 7.57078639 7.25317463
v -21.58882044 7.6883253 6.65940012
v -21.25184618 7.65935952 7.0133227
v -21.90058154 7.52405259 6.31982046
v -22.12830214 7.21178098 6.05948615
v -22.25493477 6.79316443 5.8991451
v -22.25927951 6.30556025 5.86353536
v -22.3422218 5.8807916 6.28046507
v -22.13133359 5.84552506 5.96934164
v -21.82337825 5.61752042 7.29600984
v -21.56480923 5.36205117 7.09932475
v -21.27309416 5.2682951 6.83872743
v -21.25368074 5.5082579 7.40597233
v -20.96134824 5.4325406 7.17829174
v -20.73360487 5.7448312 7.43864092
v -20.60693429 6.1634313 7.59901472
v -21.0222733 5.7873297 7.63221106
v -20.93029233 6.17522372 7.78994056
v -21.51360101 5.72993268 7.56789712
v -21.27313212 5.87520126 7.70693136
v -21.29985341 6.1707689 7.82163414
v -21.34931312 6.59530475 7.85883946
v -20.94790915 6.63440426 7.83170681
v -20.95685927 7.45609232 7.3118628
v -20.60263763 6.65105319 7.63461085
v -20.73057848 7.1110694 7.52880932
v -21.0470487 7.07042191 7.72360197
v -21.40876294 7.00548486 7.75978705
v -21.45541134 7.27244541 7.60341117
v -21.23184063 7.39356866 7.51319944
v -21.92822138 6.37461304 6.21743058
v -21.8914543 6.8940525 6.28934623
v -21.81020486 7.20429788 6.39488776
v -21.76143849 5.89760944 6.36318658
v -21.60569079 5.63679594 6.51102133
v -21.41198923 7.20039217 6.81505483
v -21.03379433 6.88014655 7.19399019
v -20.9230958 6.33861773 7.27636504
v -21.35938168 6.18740012 6.80611531
v -21.6609983 0.96990015 6.09855182
v -21.36603417 0.76664758 6.39704368
v -21.87780265 1.02741689 6.36895943
v -21.62245486 0.84985581 6.66309675
v -21.98554818 1.14513372 6.5966348
v -21.84096471 1.08013926 6.86927979
v -22.15538529 1.41083648 6.55839754
v -22.04243974 1.42999734 6.94974243
v -22.27670149 1.82039253 6.51872426
v -22.16717454 1.87335228 6.94381633
v -22.21493127 2.24536788 6.12642952
v -22.26426698 2.24556936 6.49654476
v -22.22820082 1.7858927 6.11428853
v -22.08733202 2.63363703 6.2499475
v -22.16785523 2.54235857 6.49311857
v -22.15924166 2.32517782 6.88345176
v -21.89972879 1.94041394 7.34518534
v -21.90465553 2.41480234 7.25549266
v -21.42964401 1.55776976 7.60489717
v -21.78100374 1.46715807 7.32569347
v -21.5184822 2.0086252 7.63735889
v -21.54642569 2.45297033 7.53858008
v -22.05050673 2.68640052 6.75028905
v -21.80258574 2.79817354 7.08150249
v -21.89152009 2.91235141 6.5103185
v -21.61129821 3.05824437 6.84664561
v -21.47909865 2.80555384 7.36118854
v -21.27872689 3.04016669 7.16543086
v -21.34479124 3.15771698 6.57168797
v -21.00781192 3.12873823 6.92560517
v -21.65652704 2.99344396 6.23208776
v -21.88426536 2.68116001 5.9717661
v -22.01089798 2.26256275 5.8114067
v -22.01523007 1.77495921 5.77581974
v -22.09815465 1.35019024 6.19274565
v -21.88729175 1.31492149 5.88161842
v -21.57931869 1.08691352 7.20827903
v -21.32081293 0.8314453 7.01159758
v -21.02903966 0.73768813 6.75098113
v -21.00966419 0.97762823 7.31823662
v -20.71728868 0.90193561 7.090566
v -20.48954531 1.21422272 7.35089414
v -20.36292154 1.63282013 7.51128122
v -20.77823146 1.25672075 7.54446238
v -20.68623024 1.64461793 7.70219156
v -21.26954398 1.1993114 7.48016853
v -21.02908015 1.34459247 7.61919075
v -21.05579638 1.64014635 7.73390934
v -21.1052409 2.06467809 7.77111609
v -20.70385971 2.1037738 7.74398091
v -20.71279465 2.92548432 7.22413531
v -20.35858566 2.12042653 7.54688494
v -20.48652525 2.58046298 7.44106902
v -20.80302204 2.53981802 7.63587891
v -21.16470085 2.47487654 7.67206684
v -21.21137455 2.74183234 7.51567261
v -20.98777601 2.86296193 7.42547274
v -21.68418712 1.84398274 6.12970357
v -21.64739473 2.36343058 6.20162333
v -21.56612505 2.67367469 6.30716264
v -21.5174093 1.36700192 6.27544565
v -21.361654 1.10617133 6.42327312
v -21.16793473 2.6697829 6.72730852
v -20.78972718 2.34951894 7.10626318
v -20.6790666 1.80799075 7.18864593
v -21.11532212 1.65679418 6.71838513
v -23.24030025 6.80442546 4.83319915
v -23.57322331 6.7842858 4.9201857
v -18.99472542 6.72289261 9.40939062
v -18.75112892 6.74074856 9.27654347
v -9.14129575 4.00538524 17.35621403
v -13.31381973 6.51668948 14.37919664
v -9.17403123 4.01384098 17.49642049
v -13.45164442 6.49556359 14.59509826
v -22.99431504 1.62155689 4.67605402
v -23.33508747 1.60805075 4.76782117
v -18.82610797 1.40629468 9.18447941
v -18.58674867 1.42580442 9.05114486
v -9.02119605 3.22345428 17.30246779
v -13.07516895 1.39945874 13.99873828
v -9.09042027 3.35075431 17.52595056
v -13.21484466 1.37874072 14.21716684
v 21.37754508 6.92348452 3.72169447
v 21.48930639 9.04520283 3.81004176
v 21.71558591 9.03569602 3.87776417
v 21.6042282 6.91341532 3.78974774
v 20.99000658 0.61136216 3.40752567
v 21.10404907 2.86330258 3.51019769
v 21.2216 0.59992455 3.47834659
v 21.33310194 2.85256725 3.57983438
v 3.81879893 1.3394682 21.32229133
v 4.30196252 4.03497446 21.49613917
v 7.02034352 0.32754747 20.99148119
v 11.10263505 -1.36207383 19.46357471
v 11.86381241 0.8908098 19.08635972
v 5.18216352 7.178609 21.63030867
v 9.02950217 6.05152638 20.61491082
v 12.50933034 3.86376016 18.66845043
v 5.07956804 1.83446723 21.23596206
v 7.26806904 1.02691681 20.9535286
v 9.89215783 0.12542715 19.98918589
v 10.61686037 1.54174821 19.68091741
v 6.1371212 5.68287942 21.35294744
v 5.33305059 3.71803706 21.34278652
v 11.04731109 3.61649708 19.44630582
v 8.70066956 5.10674766 20.68660917
v -11.81048116 5.54341943 15.70822747
v -11.63245685 2.13532836 15.48662354
v -11.48195978 0.92776762 15.47347545
v -7.82684776 0.96097866 17.70932482
v -4.39457452 1.42791954 18.62275726
v -4.15322916 4.02491918 18.76155934
v -11.73055766 6.93694322 15.87184353
v -7.96204019 7.15128293 18.19776024
v -4.22406811 7.15192629 18.90885542
v -10.28767349 4.659939 16.74108146
v -10.16418365 2.8373556 16.66453418
v -9.88733104 1.99601767 16.69315962
v -7.85420609 1.82849068 17.75123183
v -5.87885519 2.34019337 18.31410036
v -5.60220565 3.92307397 18.45421257
v -10.05879016 5.55791244 16.91279488
v -5.85938989 5.68229615 18.47912777
v -7.93579777 5.90153413 18.06316627
v -2.37071663 1.32355783 19.37042342
v -2.29224496 4.19868889 19.41657522
v -0.75428495 1.36609998 20.81462467
v 1.69451436 1.52977203 21.36110174
v 2.36406999 4.44551041 21.58544422
v -2.15664578 7.800451 19.67724259
v -0.76189505 8.05957987 21.22855804
v 2.97257902 8.03327673 21.78848558
v -1.91332036 2.27109693 19.81789947
v -0.74111851 2.18436311 20.8608391
v 1.1033195 2.40209865 21.28660094
v 1.66428709 4.46099251 21.47504554
v -1.82778944 6.79198462 20.0063776
v -1.96943792 4.26770119 19.76567781
v 1.87725404 6.93889418 21.58521142
v -0.75331975 7.08781669 21.16614003
g Group12869
f 1 31 32 6
f 6 32 26 11
f 11 26 35 10
f 10 35 37 9
f 9 37 39 8
f 8 39 41 7
f 18 19 1 6
f 19 25 2 1
f 25 24 7 2
f 24 23 8 7
f 23 22 9 8
f 22 21 10 9
f 21 20 11 10
f 20 18 6 11
f 2 3 12 1
f 2 7 13 3
f 41 54 13 7
f 14 27 56 12
f 3 4 14 12
f 13 15 4 3
f 14 64 65 27
f 4 71 64 14
f 15 70 71 4
f 15 13 54 63
f 16 70 69 60
f 31 1 12 56
f 30 29 32 31
f 29 33 26 32
f 35 26 33 34
f 34 36 37 35
f 36 38 39 37
f 38 40 41 39
f 42 29 30 43
f 43 30 45 44
f 44 45 40 46
f 46 40 38 47
f 47 38 36 48
f 48 36 34 49
f 49 34 33 50
f 50 33 29 42
f 45 30 52 51
f 45 51 53 40
f 41 40 53 54
f 55 52 56 27
f 51 52 55 57
f 53 51 57 58
f 55 27 65 66
f 57 55 66 67
f 58 57 67 68
f 58 63 54 53
f 59 60 69 68
f 31 56 52 30
f 20 21 49 50
f 21 22 48 49
f 22 23 47 48
f 23 24 46 47
f 24 25 44 46
f 25 19 43 44
f 19 18 42 43
f 18 20 50 42
f 17 28 65 64
f 71 5 17 64
f 16 5 71 70
f 15 63 69 70
f 28 61 66 65
f 61 62 67 66
f 62 59 68 67
f 63 58 68 69
f 73 74 75 72
f 77 78 79 76
f 80 81 77 76
f 73 81 80 74
f 82 83 75
f 74 82 75
f 84 76 79 85
f 86 80 76 84
f 82 74 80 86
f 82 87 88 83
f 84 85 90 89
f 91 86 84 89
f 87 82 86 91
f 93 72 75 92
f 95 94 79 78
f 96 94 95 97
f 93 92 96 97
f 83 98 75
f 92 75 98
f 99 85 79 94
f 100 99 94 96
f 98 100 96 92
f 98 83 88 101
f 99 102 90 85
f 103 102 99 100
f 101 103 100 98
f 95 78 104 97
f 93 97 104 72
f 77 81 104 78
f 104 81 73 72
f 59 62 103 101
f 62 61 102 103
f 61 28 90 102
f 28 17 89 90
f 17 5 91 89
f 5 16 87 91
f 16 60 88 87
f 60 59 101 88
f 108 107 106 109
f 110 108 109 111
f 112 110 111 113
f 114 112 113 115
f 116 114 115 117
f 118 116 117 119
f 120 118 119 121
f 107 120 121 106
f 123 122 107 108
f 124 123 108 110
f 125 124 110 112
f 126 125 112 114
f 127 126 114 116
f 128 127 116 118
f 129 128 118 120
f 122 129 120 107
f 123 239 238 122
f 124 240 239 123
f 125 241 240 124
f 126 242 241 125
f 126 127 243 242
f 127 128 244 243
f 128 129 245 244
f 129 122 238 245
f 139 138 141 140
f 140 141 143 142
f 142 143 145 144
f 144 145 147 146
f 148 151 150 149
f 150 151 153 152
f 155 154 138 139
f 157 156 159 158
f 158 159 161 160
f 160 161 163 162
f 162 163 165 164
f 167 166 169 168
f 169 171 170 168
f 172 156 157 173
f 154 153 170 173
f 172 171 169 180
f 180 169 166 181
f 177 183 182 178
f 178 182 184 179
f 155 179 184 152
f 213 212 221 220
f 221 212 219 222
f 222 219 218 188
f 188 218 217 223
f 223 217 216 224
f 216 215 225 224
f 215 214 226 225
f 214 213 220 226
f 156 130 131 159
f 159 131 132 161
f 161 132 133 163
f 133 134 165 163
f 134 135 181 165
f 135 136 180 181
f 136 137 172 180
f 172 137 130 156
f 194 197 196 195
f 199 198 194 195
f 201 200 198 199
f 203 202 200 201
f 205 204 202 203
f 206 204 205 207
f 208 206 207 209
f 197 208 209 196
f 186 197 194 185
f 185 194 198 187
f 187 198 200 189
f 189 200 202 190
f 190 202 204 191
f 191 204 206 192
f 192 206 208 193
f 193 208 197 186
f 246 397 249 250
f 397 400 256 249
f 400 402 255 256
f 404 254 255 402
f 248 252 253 247
f 105 251 252 248
f 246 250 251 105
f 139 140 174 229
f 140 142 175 174
f 142 144 176 175
f 144 146 227 176
f 149 150 182 183
f 182 150 152 184
f 179 155 139 229
f 154 155 152 153
f 138 157 158 141
f 141 158 160 143
f 143 160 162 145
f 145 162 164 147
f 148 167 168 151
f 168 170 153 151
f 173 157 138 154
f 173 170 171 172
f 164 165 181 210
f 183 177 211 149
f 146 211 177 227
f 210 181 166 167
f 186 185 212 213
f 212 185 187 219
f 219 187 189 218
f 218 189 190 217
f 217 190 191 216
f 191 192 215 216
f 192 193 214 215
f 193 186 213 214
f 221 147 164 220
f 222 146 147 221
f 188 211 146 222
f 223 149 211 188
f 224 148 149 223
f 225 167 148 224
f 226 210 167 225
f 220 164 210 226
f 179 229 228 178
f 177 178 228 227
f 174 175 228 229
f 228 175 176 227
f 231 131 130 230
f 232 132 131 231
f 233 133 132 232
f 234 134 133 233
f 135 134 234 235
f 136 135 235 236
f 137 136 236 237
f 130 137 237 230
f 239 231 230 238
f 240 232 231 239
f 241 233 232 240
f 242 234 233 241
f 235 234 242 243
f 236 235 243 244
f 237 236 244 245
f 230 237 245 238
f 253 254 404 247
f 109 106 250 249
f 111 109 249 256
f 113 111 256 255
f 115 113 255 254
f 252 119 117 253
f 251 121 119 252
f 250 106 121 251
f 117 115 254 253
f 195 196 258 257
f 199 195 257 259
f 201 199 259 260
f 203 201 260 261
f 205 203 261 262
f 207 205 262 263
f 209 207 263 264
f 196 209 264 258
f 257 258 265 266
f 259 257 266 267
f 260 259 267 268
f 261 260 268 269
f 262 261 269 270
f 263 262 270 271
f 264 263 271 272
f 258 264 272 265
f 275 274 273 276
f 278 277 274 275
f 280 279 277 278
f 282 281 279 280
f 284 283 281 282
f 286 285 283 284
f 288 287 285 286
f 276 273 287 288
f 289 275 276 290
f 291 278 275 289
f 292 280 278 291
f 293 282 280 292
f 294 284 282 293
f 295 286 284 294
f 296 288 286 295
f 290 276 288 296
f 289 290 298 297
f 291 289 297 299
f 292 291 299 300
f 293 292 300 301
f 293 301 302 294
f 294 302 303 295
f 295 303 304 296
f 296 304 298 290
f 308 307 306 305
f 307 310 309 306
f 310 312 311 309
f 312 314 313 311
f 315 318 317 316
f 317 320 319 316
f 322 308 305 321
f 326 325 324 323
f 325 328 327 324
f 328 330 329 327
f 330 332 331 329
f 336 335 334 333
f 334 335 338 337
f 339 340 326 323
f 321 340 338 319
f 339 341 334 337
f 341 342 333 334
f 343 346 345 344
f 346 348 347 345
f 322 320 347 348
f 350 349 352 351
f 352 354 353 351
f 354 356 355 353
f 356 358 357 355
f 358 360 359 357
f 359 360 362 361
f 361 362 364 363
f 363 364 349 350
f 323 324 366 365
f 324 327 367 366
f 327 329 368 367
f 368 329 331 369
f 369 331 342 370
f 370 342 341 371
f 371 341 339 372
f 339 323 365 372
f 373 376 375 374
f 378 376 373 377
f 380 378 377 379
f 382 380 379 381
f 384 382 381 383
f 385 386 384 383
f 387 388 386 385
f 374 375 388 387
f 389 390 373 374
f 390 391 377 373
f 391 392 379 377
f 392 393 381 379
f 393 394 383 381
f 394 395 385 383
f 395 396 387 385
f 396 389 374 387
f 246 399 398 397
f 397 398 401 400
f 400 401 403 402
f 404 402 403 405
f 248 247 407 406
f 105 248 406 408
f 246 105 408 399
f 308 410 409 307
f 307 409 411 310
f 310 411 412 312
f 312 412 413 314
f 318 344 345 317
f 345 347 320 317
f 348 410 308 322
f 321 319 320 322
f 305 306 325 326
f 306 309 328 325
f 309 311 330 328
f 311 313 332 330
f 315 316 335 336
f 335 316 319 338
f 340 321 305 326
f 340 339 337 338
f 332 414 342 331
f 344 318 415 343
f 314 413 343 415
f 414 336 333 342
f 389 350 351 390
f 351 353 391 390
f 353 355 392 391
f 355 357 393 392
f 357 359 394 393
f 394 359 361 395
f 395 361 363 396
f 396 363 350 389
f 352 349 332 313
f 354 352 313 314
f 356 354 314 415
f 358 356 415 318
f 360 358 318 315
f 362 360 315 336
f 364 362 336 414
f 349 364 414 332
f 348 346 416 410
f 343 413 416 346
f 409 410 416 411
f 416 413 412 411
f 417 418 365 366
f 419 417 366 367
f 420 419 367 368
f 421 420 368 369
f 370 422 421 369
f 371 423 422 370
f 372 424 423 371
f 365 418 424 372
f 297 298 418 417
f 299 297 417 419
f 300 299 419 420
f 301 300 420 421
f 422 302 301 421
f 423 303 302 422
f 424 304 303 423
f 418 298 304 424
f 407 247 404 405
f 274 398 399 273
f 277 401 398 274
f 279 403 401 277
f 281 405 403 279
f 406 407 283 285
f 408 406 285 287
f 399 408 287 273
f 283 407 405 281
f 376 426 425 375
f 378 427 426 376
f 380 428 427 378
f 382 429 428 380
f 384 430 429 382
f 386 431 430 384
f 388 432 431 386
f 375 425 432 388
f 426 434 433 425
f 427 435 434 426
f 428 436 435 427
f 429 437 436 428
f 430 438 437 429
f 431 439 438 430
f 432 440 439 431
f 425 433 440 432
f 268 267 435 436
f 267 266 434 435
f 266 265 433 434
f 265 272 440 433
f 272 271 439 440
f 271 270 438 439
f 270 269 437 438
f 269 268 436 437
g Group45730
f 879 887 888 880
g Group45733
f 884 876 875 883
f 876 442 489 875
g Group31379
f 866 874 869
g Group52755
f 876 884 885 877
g Group45733
f 446 443 491 490
g Group45730
f 875 878 886 883
f 495 494 493 492
g Group45733
f 460 458 495 492
f 464 460 492 493
g Group52755
f 458 460 464 463
f 884 441 443 885
g Group45733
f 441 884 883 496
g Group20638
f 572 554 539 571
g Group45730
f 883 886 491 496
f 878 488 497 880
g Group52755
f 877 882 445 444
f 881 924 925 889
g Group45730
f 494 499 498 493
g Group45733
f 459 464 493 498
f 457 459 498 499
g Group52755
f 463 464 459 457
g Group45730
f 503 502 501 500
g Group45733
f 465 467 501 502
g Group52755
f 461 450 933 934
g Group45730
f 501 505 504 500
g Group45733
f 452 450 500 504
f 467 466 505 501
g Group52755
f 467 941 942 466
g Group45730
f 504 505 507 506
g Group45733
f 454 452 504 506
f 466 469 507 505
g Group52755
f 452 454 936 935
g Group45730
f 507 509 508 506
g Group45733
f 469 468 509 507
g Group52755
f 469 943 944 468
g Group45730
f 513 512 511 510
g Group45733
f 449 451 513 510
f 470 471 511 512
g Group52755
f 451 449 938 939
g Group45730
f 511 502 503 510
g Group45733
f 471 465 502 511
g Group52755
f 471 945 946 465
g Group45730
f 508 509 515 514
g Group45733
f 468 472 515 509
g Group52755
f 462 453 940 937
g Group45730
f 515 512 513 514
g Group45733
f 451 453 514 513
f 472 470 512 515
g Group52755
f 472 947 948 470
f 890 446 917 916
g Group45733
f 889 474 516 887
g Group45730
f 888 887 516 490
f 516 518 517 490
g Group45733
f 448 446 490 517
f 474 473 518 516
g Group52755
f 474 926 927 473
g Group45730
f 517 518 519 500
g Group45733
f 450 448 517 500
f 473 476 519 518
g Group52755
f 448 450 919 918
g Group45730
f 519 520 503 500
g Group45733
f 476 475 520 519
g Group52755
f 476 928 929 475
g Group45730
f 523 522 521 497
g Group45733
f 445 447 523 497
f 477 478 521 522
g Group52755
f 447 445 921 922
g Group45730
f 521 879 880 497
g Group45733
f 478 881 879 521
g Group52755
f 478 930 924 881
g Group45730
f 503 520 524 510
g Group45733
f 475 479 524 520
g Group52755
f 461 449 923 920
g Group45730
f 524 522 523 510
g Group45733
f 447 449 510 523
f 479 477 522 524
g Group52755
f 479 931 932 477
g Group45730
f 508 526 525 506
g Group45733
f 480 482 525 526
g Group52755
f 462 454 899 900
g Group45730
f 525 528 527 506
g Group45733
f 456 454 506 527
f 482 481 528 525
g Group52755
f 482 907 908 481
g Group45730
f 527 528 529 495
g Group45733
f 458 456 527 495
f 481 484 529 528
g Group52755
f 456 458 902 901
g Group45730
f 529 530 494 495
g Group45733
f 484 483 530 529
g Group52755
f 484 909 910 483
g Group45730
f 533 532 531 514
g Group45733
f 453 455 533 514
f 485 486 531 532
g Group52755
f 455 453 904 905
g Group45730
f 531 526 508 514
g Group45733
f 486 480 526 531
g Group52755
f 486 911 912 480
g Group45730
f 494 530 534 499
g Group45733
f 483 487 534 530
g Group52755
f 463 457 906 903
g Group45730
f 534 532 533 499
g Group45733
f 455 457 499 533
f 487 485 532 534
g Group52755
f 487 913 914 485
g Group14710
f 571 539 597 594
f 554 572 593 598
g Group14707
f 593 594 597 598
g Group20638
f 569 570 551 549
g Group45733
f 443 441 496 491
g Group14710
f 549 551 610 609
g Group14707
f 576 575 574 573
g Group14710
f 540 535 576 573
f 562 563 574 575
g Group20638
f 535 540 563 562
g Group14707
f 573 574 578 577
g Group14710
f 536 540 573 577
g Group20638
f 540 536 564 563
g Group14707
f 577 578 580 579
g Group14710
f 542 536 577 579
g Group20638
f 536 542 565 564
g Group14707
f 579 580 891 892
g Group14710
f 893 542 579 892
g Group20638
f 542 893 894 565
f 894 566 557 898
g Group14710
f 544 893 892 581
f 566 544 581 582
g Group14707
f 891 896 601 582
f 586 585 584 583
g Group14710
f 546 537 586 583
f 553 558 584 585
g Group20638
f 537 546 558 553
g Group14707
f 583 584 588 587
g Group14710
f 548 546 583 587
f 558 559 588 584
g Group20638
f 546 548 559 558
g Group14707
f 587 588 590 589
g Group14710
f 550 548 587 589
f 559 560 590 588
g Group20638
f 548 550 560 559
g Group14707
f 589 590 592 591
g Group14710
f 552 550 589 591
f 561 552 591 592
g Group20638
f 550 552 561 560
g Group14707
f 585 586 594 593
g Group14710
f 572 553 585 593
f 537 571 594 586
g Group20638
f 553 572 571 537
g Group14707
f 598 597 596 595
g Group14710
f 539 538 596 597
g Group20638
f 554 555 538 539
g Group14707
f 595 596 600 599
g Group14710
f 538 541 600 596
g Group20638
f 555 556 541 538
g Group14707
f 599 600 895 896
g Group14710
f 541 897 895 600
g Group20638
f 556 898 897 541
f 898 557 543 897
g Group14710
f 543 557 601 602
f 897 543 602 895
g Group14707
f 896 895 602 601
f 590 604 603 592
g Group14710
f 570 561 592 603
f 560 569 604 590
g Group20638
f 560 561 570 569
g Group14707
f 574 598 595 578
g Group14710
f 563 554 598 574
g Group20638
f 563 564 555 554
g Group14707
f 578 595 599 580
g Group20638
f 564 565 556 555
g Group14707
f 580 599 896 891
g Group20638
f 565 894 898 556
f 893 544 566 894
g Group14710
f 557 566 582 601
g Group14707
f 892 891 582 581
f 575 576 606 605
g Group14710
f 567 562 575 605
f 535 545 606 576
g Group20638
f 562 567 545 535
g Group14707
f 605 606 608 607
g Group14710
f 568 567 605 607
f 545 547 608 606
g Group20638
f 567 568 547 545
g Group14707
f 607 608 609 604
g Group14710
f 569 568 607 604
f 547 549 609 608
g Group20638
f 568 569 549 547
g Group14707
f 604 609 610 603
g Group14710
f 551 570 603 610
g Group52755
f 885 890 882 877
g Group45733
f 881 889 887 879
f 444 445 497 488
g Group45730
f 886 878 880 888
g Group52755
f 443 446 890 885
g Group45730
f 491 886 888 490
f 489 488 878 875
g Group45733
f 442 444 488 489
g Group52755
f 442 876 877 444
g Group31379
f 866 867 874
f 867 871 874
f 871 872 874
g Group2399
f 611 613 614 612
f 613 615 616 614
f 615 617 618 616
f 617 619 620 618
f 621 622 619 623
f 622 621 624 625
f 620 619 622 626
f 627 620 626 628
f 629 630 627 631
f 632 631 627 628
f 618 620 627 630
f 626 633 634 628
f 625 633 626 622
f 625 624 635 633
f 635 636 634 633
f 637 634 636 638
f 638 636 639 640
f 635 641 639 636
f 624 642 641 635
f 621 643 642 624
f 644 643 621 623
f 644 623 645 646
f 645 623 619 617
f 615 613 645 617
f 613 611 646 645
f 614 616 647 648
f 614 648 649 612
f 649 648 650 651
f 653 652 654 655
f 651 650 654 652
f 656 650 648 647
f 657 656 629 658
f 656 657 654 650
f 658 655 654 657
f 659 660 655 658
f 658 629 631 659
f 647 630 629 656
f 618 630 647 616
f 662 660 664 663
f 662 653 655 660
f 659 665 664 660
f 664 665 666 667
f 637 666 665 632
f 631 632 665 659
f 661 663 664 667
f 666 637 638 667
f 632 628 634 637
f 638 640 661 667
f 643 644 668
f 668 644 646
f 642 643 669
f 669 643 668
f 641 642 670
f 670 642 669
f 639 641 670
f 668 646 671
f 671 646 611
f 671 611 672
f 672 611 612
f 672 612 649
f 640 639 673
f 673 639 670
f 661 640 673
f 663 661 674
f 674 661 673
f 662 663 674
f 653 662 675
f 675 662 674
f 652 653 675
f 651 652 675
f 673 670 669
f 672 649 651
f 672 651 676
f 676 651 675
f 671 672 676
f 676 675 674
f 676 674 673
f 676 673 669
f 676 669 668
f 671 676 668
f 677 679 680 678
f 679 681 682 680
f 681 683 684 682
f 683 685 686 684
f 687 688 685 689
f 688 687 690 691
f 686 685 688 692
f 693 686 692 694
f 695 696 693 697
f 698 697 693 694
f 684 686 693 696
f 692 699 700 694
f 691 699 692 688
f 691 690 701 699
f 701 702 700 699
f 703 700 702 704
f 704 702 705 706
f 701 707 705 702
f 690 708 707 701
f 687 709 708 690
f 710 709 687 689
f 710 689 711 712
f 711 689 685 683
f 681 679 711 683
f 679 677 712 711
f 680 682 713 714
f 680 714 715 678
f 715 714 716 717
f 719 718 720 721
f 717 716 720 718
f 722 716 714 713
f 723 722 695 724
f 722 723 720 716
f 724 721 720 723
f 725 726 721 724
f 724 695 697 725
f 713 696 695 722
f 684 696 713 682
f 728 726 730 729
f 728 719 721 726
f 725 731 730 726
f 730 731 732 733
f 703 732 731 698
f 697 698 731 725
f 727 729 730 733
f 732 703 704 733
f 698 694 700 703
f 704 706 727 733
f 709 710 734
f 734 710 712
f 708 709 735
f 735 709 734
f 707 708 736
f 736 708 735
f 705 707 736
f 734 712 737
f 737 712 677
f 737 677 738
f 738 677 678
f 738 678 715
f 706 705 739
f 739 705 736
f 727 706 739
f 729 727 740
f 740 727 739
f 728 729 740
f 719 728 741
f 741 728 740
f 718 719 741
f 717 718 741
f 739 736 735
f 738 715 717
f 738 717 742
f 742 717 741
f 737 738 742
f 742 741 740
f 742 740 739
f 742 739 735
f 742 735 734
f 737 742 734
g Group31379
f 743 744 746 745
f 745 746 748 747
f 747 748 750 749
f 749 750 752 751
f 753 755 751 754
f 754 757 756 753
f 752 758 754 751
f 759 760 758 752
f 761 763 759 762
f 764 760 759 763
f 750 762 759 752
f 758 760 766 765
f 757 754 758 765
f 757 765 767 756
f 767 765 766 768
f 769 770 768 766
f 770 772 771 768
f 767 768 771 773
f 756 767 773 774
f 753 756 774 775
f 776 755 753 775
f 776 778 777 755
f 777 749 751 755
f 747 749 777 745
f 745 777 778 743
f 746 780 779 748
f 746 744 781 780
f 781 783 782 780
f 785 787 786 784
f 783 784 786 782
f 788 779 780 782
f 789 790 761 788
f 788 782 786 789
f 790 789 786 787
f 791 790 787 792
f 790 791 763 761
f 779 788 761 762
f 750 748 779 762
f 794 795 796 792
f 794 792 787 785
f 791 792 796 797
f 796 799 798 797
f 769 764 797 798
f 763 791 797 764
f 793 799 796 795
f 798 799 770 769
f 764 769 766 760
f 770 799 793 772
f 800 776 775
f 778 776 800
f 801 775 774
f 800 775 801
f 802 774 773
f 801 774 802
f 802 773 771
f 803 778 800
f 743 778 803
f 804 743 803
f 744 743 804
f 781 744 804
f 805 771 772
f 802 771 805
f 805 772 793
f 806 793 795
f 805 793 806
f 806 795 794
f 807 794 785
f 806 794 807
f 807 785 784
f 807 784 783
f 801 802 805
f 783 781 804
f 808 783 804
f 807 783 808
f 808 804 803
f 806 807 808
f 805 806 808
f 801 805 808
f 800 801 808
f 800 808 803
f 809 810 812 811
f 811 812 814 813
f 813 814 816 815
f 815 816 818 817
f 819 821 817 820
f 820 823 822 819
f 818 824 820 817
f 825 826 824 818
f 827 829 825 828
f 830 826 825 829
f 816 828 825 818
f 824 826 832 831
f 823 820 824 831
f 823 831 833 822
f 833 831 832 834
f 835 836 834 832
f 836 838 837 834
f 833 834 837 839
f 822 833 839 840
f 819 822 840 841
f 842 821 819 841
f 842 844 843 821
f 843 815 817 821
f 813 815 843 811
f 811 843 844 809
f 812 846 845 814
f 812 810 847 846
f 847 849 848 846
f 851 853 852 850
f 849 850 852 848
f 854 845 846 848
f 855 856 827 854
f 854 848 852 855
f 856 855 852 853
f 857 856 853 858
f 856 857 829 827
f 845 854 827 828
f 816 814 845 828
f 860 861 862 858
f 860 858 853 851
f 857 858 862 863
f 862 865 864 863
f 835 830 863 864
f 829 857 863 830
f 859 865 862 861
f 864 865 836 835
f 830 835 832 826
f 836 865 859 838
f 866 842 841
f 844 842 866
f 867 841 840
f 866 841 867
f 868 840 839
f 867 840 868
f 868 839 837
f 869 844 866
f 809 844 869
f 870 809 869
f 810 809 870
f 847 810 870
f 871 837 838
f 868 837 871
f 871 838 859
f 872 859 861
f 871 859 872
f 872 861 860
f 873 860 851
f 872 860 873
f 873 851 850
f 873 850 849
f 867 868 871
f 849 847 870
f 874 849 870
f 873 849 874
f 874 870 869
f 872 873 874
g Group52755
f 900 899 907 912
f 899 454 456 901
f 901 902 909 908
f 902 458 463 903
f 905 904 911 914
f 904 453 462 900
f 903 906 913 910
f 906 457 455 905
f 907 899 901 908
f 909 902 903 910
f 911 904 900 912
f 913 906 905 914
f 912 907 482 480
f 908 909 484 481
f 914 911 486 485
f 910 913 487 483
f 915 882 890 916
f 916 917 926 925
f 917 446 448 918
f 918 919 928 927
f 919 450 461 920
f 922 921 930 932
f 921 445 882 915
f 920 923 931 929
f 923 449 447 922
f 924 915 916 925
f 926 917 918 927
f 928 919 920 929
f 930 921 915 924
f 931 923 922 932
f 925 926 474 889
f 927 928 476 473
f 932 930 478 477
f 929 931 479 475
f 934 933 941 946
f 933 450 452 935
f 935 936 943 942
f 936 454 462 937
f 939 938 945 948
f 938 449 461 934
f 937 940 947 944
f 940 453 451 939
f 941 933 935 942
f 943 936 937 944
f 945 938 934 946
f 947 940 939 948
f 946 941 467 465
f 942 943 469 466
f 948 945 471 470
f 944 947 472 468

 