# File exported by ZBrush version 2021
# www.zbrush.com
#Vertex Count 1240
#Face Count 1282
#Auto scale x=0.047110 y=0.047110 z=0.047110
#Auto offset x=-0.029091 y=0.022900 z=-0.434581
v 12.00175604 7.42943745 43.06444166
v 5.50412002 7.42944124 46.05057933
v 18.59561149 -7.68303671 38.96247987
v -11.83792236 6.85318233 40.63225719
v 12.01797227 -7.80058511 43.26954278
v 5.62897565 -7.86131786 46.72227578
v 18.79136522 7.54923792 39.17800888
v -35.28742936 -7.16169184 17.52257181
v -37.4400777 -7.05364392 7.54401164
v -34.86813782 -7.03934702 -2.86105557
v -31.85608605 -6.85522565 -10.66439758
v -23.4761663 -6.83745068 -17.77138794
v -15.91243915 -6.75963755 -22.21792033
v -6.69574177 -6.55671512 -24.18968625
v 2.31329399 -6.36497465 -25.92907559
v 11.33483197 -6.29710104 -24.14125643
v 19.36329837 -6.1683593 -20.53822374
v 26.45530229 -5.97940672 -15.14129887
v 26.83314039 8.32343306 -16.15552387
v 19.44402401 8.14676759 -22.22993226
v 11.13823055 8.05211575 -26.33796708
v 2.10106893 8.04045049 -28.41727609
v -6.89219517 7.92197722 -26.49260645
v -15.77026212 7.80254366 -24.50032384
v -23.56109244 7.74655925 -19.11506424
v -32.43232472 7.7054993 -11.29313878
v -35.63091947 7.4106465 -2.96312535
v -37.98641179 7.40939647 7.44538545
v -35.61657195 7.11868219 17.14685926
v -18.2902802 6.88620312 37.75803771
v -15.23861715 6.80875691 38.41813469
v -13.90619239 6.78484566 38.68848537
v -12.89779497 6.77498712 38.94671278
v -12.3152897 6.80698815 39.69797847
v -12.76926705 -7.46296685 38.77217667
v -12.01365789 -7.51132582 39.38060235
v -13.76815513 -7.39494774 38.5124057
v -14.97007699 -7.33008028 38.26536023
v -18.34589516 -7.01557493 37.36040155
v -11.47074114 -7.54198193 40.36179264
v -8.98243562 7.15350085 45.40412642
v -7.24789205 7.20657526 46.04155837
v 0.07941207 7.34754275 46.82867006
v 0.10409878 -7.75681254 46.87042715
v -6.89799048 -7.66093724 46.12831148
v -8.86834189 -7.61917256 45.2151441
v 30.73480887 7.80975411 30.49300581
v 33.57734742 7.3986118 27.04705689
v 35.66482717 2.7471203 24.34237467
v 33.90472377 -6.6561229 26.52142168
v 35.72557763 -2.08121758 24.21274982
v 30.755695 -7.25237976 30.42700725
v -10.62400629 6.98085623 42.66085141
v -10.36442383 -7.57479269 42.42504863
v 23.45670732 -7.50173171 35.76806791
v 23.52000339 7.56534408 36.09130449
v -27.46390973 7.0830209 29.56230891
v -27.58018786 -7.06260669 29.11275854
v -22.99548663 6.98715193 33.55439582
v -23.0822195 -7.0397076 33.13012946
v -31.90316715 6.97383303 23.267298
v -31.84916281 -7.22865449 23.03144208
v 30.74160053 2.91623118 30.47156552
v 33.68371133 2.83238458 26.87627846
v 12.00701932 2.4813674 43.13109307
v 18.7277693 2.60042931 39.10798441
v 21.02176595 -7.59254742 37.36815984
v 5.54468464 2.46163736 46.26880578
v -23.02365533 2.42998015 33.41656859
v -27.50169405 2.48726709 29.41624135
v -31.8856313 2.35959857 23.19068177
v -37.80891255 2.71051674 7.47742143
v -35.5096311 2.47914316 17.26892826
v 23.49943609 2.67021877 35.98628676
v 0.08743577 2.44029416 46.84224326
v -7.1342228 2.37627819 46.06974478
v -8.94537374 2.35402215 45.34274082
v -11.71862797 2.17635589 40.54437803
v -12.21728631 2.15512879 39.59486868
v -32.24510864 2.97487759 -11.08886384
v -35.38309969 2.71599417 -2.92996412
v -10.53967226 2.25188815 42.58423518
v -15.1513744 2.2151935 38.36849532
v -18.30834491 2.36965701 37.62885189
v -13.86134059 2.17798074 38.63126991
v -12.85604168 2.1492389 38.88999582
v -23.53350068 3.00838043 -18.67852279
v -6.82836645 3.21801355 -25.7444203
v -15.81645125 3.07145477 -23.7588003
v 19.4178088 3.49594665 -21.68032633
v 26.71038438 3.6766026 -15.82602954
v 11.20210102 3.39021155 -25.62427822
v 2.17001338 3.36027535 -27.60887086
v -23.05532613 -2.68971443 33.26170654
v -27.54412423 -2.67578333 29.25216349
v -31.86591422 -2.82419612 23.10459542
v -11.58460144 -3.07778827 40.44566866
v -12.10720394 -3.07094489 39.47902832
v -15.0533495 -2.94537568 38.31272727
v -18.32863766 -2.70437588 37.48371173
v -13.81096994 -2.99752316 38.56700469
v -35.38951179 -2.73307517 17.40604697
v 19.38832428 -1.72897022 -21.06284678
v 26.57247618 -1.54383376 -15.45582573
v 30.74922217 -2.58133962 30.44748852
v 33.80319803 -2.29748943 26.6844317
v 12.01294178 -3.0774843 43.20593547
v 18.6563202 -2.959219 39.02932359
v 21.06196936 -2.89430362 37.45167907
v 5.59025824 -3.11937977 46.51396861
v -37.60950995 -2.56838526 7.51343493
v 23.47634343 -2.82914816 35.86829807
v 0.09643594 -3.07267349 46.85746884
v -7.00650146 -3.05025107 46.10141559
v -8.90372673 -3.03788551 45.27374876
v -32.03478978 -2.33967463 -10.85938839
v -35.10468707 -2.55814684 -2.89271499
v -10.44491667 -3.06082429 42.49818046
v -12.80913011 -3.04750461 38.8263126
v -23.50250803 -2.31467529 -18.18808326
v -6.75666241 -2.06660406 -24.90386601
v -15.86835028 -2.24363928 -22.92574114
v 11.27386896 -1.8471502 -24.82249512
v 2.24746987 -1.89759708 -26.70072132
v -3.09065438 2.41213306 46.50227804
v -3.14516449 7.28551189 46.48228008
v -3.02941523 -3.06280609 46.52475075
v -2.97736722 -7.7146101 46.54383016
v 9.58617242 7.42944124 44.17456979
v 9.60457621 2.4740396 44.29756619
v 9.62523018 -3.09306097 44.43575274
v 9.70402384 -7.81651287 44.5322733
v 21.10928326 2.63526789 37.5499684
v 21.15141864 7.55728721 37.63744521
v 33.92531638 8.36001163 -7.9223473
v 33.81425599 3.42279616 -7.71362387
v 37.67570082 8.33198969 1.31958727
v 37.63176251 3.19349562 1.56153583
v 37.28204755 -1.67222914 1.61137573
v 33.4538677 -1.26266962 -7.40816859
v 33.04251664 -5.9348396 -7.10546261
v 37.34033844 -6.21895896 1.65177713
v 39.21402253 8.5207139 11.51397077
v 39.2269277 3.36611272 11.53642514
v 26.67207373 8.34761254 32.12498617
v 26.54917096 3.45636194 32.05097122
v 12.90425261 8.22670374 40.80452351
v 12.68748622 2.5747768 40.97881164
v 1.55770666 6.89531645 42.95994267
v 1.51378843 1.75684326 43.20189185
v 3.4694939 7.18708719 41.53126431
v 3.42557551 2.04861463 41.77321602
v 13.12462992 7.76228585 40.54293569
v 13.09181283 2.66510762 40.3581134
v 17.22555297 8.0795405 37.93968685
v 17.59759387 2.96883652 37.74573984
v 36.9936853 8.5666677 22.2462282
v 37.04112572 3.24872849 22.2622496
v 5.29021807 7.3421909 40.79680318
v 5.31414072 2.18924335 40.86769812
v 9.38560139 2.29335962 40.00097164
v 9.23960342 7.64500694 39.88725684
v 39.01803599 -1.43102058 11.34771722
v 36.9007124 -1.5519792 22.11884025
v 38.87938385 -5.98512865 11.08958865
v 36.77244006 -6.11055426 22.09647508
v 26.60972911 -2.48012813 31.99122786
v 27.04235093 -7.13920521 31.92455115
v 13.11480174 -2.9619283 41.38931755
v 13.39667093 -7.73598587 41.51776702
v 1.52334047 -3.16729528 44.12110442
v 1.63979035 -7.95405163 44.25859763
v 2.74924886 -3.48032728 42.01912785
v 2.70223166 -8.30879834 42.15273433
v 6.57437307 -3.73133286 41.27377325
v 6.82285328 -8.50764931 41.3855877
v 9.81924235 -3.63952333 40.67599054
v 10.06772256 -8.41583914 40.78780499
v 13.51942567 -2.77684996 40.72257314
v 13.63676657 -8.05808629 41.11848102
v 18.08799544 -2.69666946 37.60429157
v 18.60928211 -7.42847588 37.70440534
v 34.00224132 7.39634327 27.38772557
v 34.10909614 2.82999617 27.21632466
v 31.12247009 2.91215751 30.86600069
v 31.11606305 7.80568898 30.88676536
v 19.07809535 7.54310037 39.64115523
v 19.01386303 2.59574201 39.57145971
v 12.27182331 2.48349486 43.60764309
v 12.25615871 7.43354686 43.54655102
v 36.09403292 2.74433114 24.67750678
v 9.84078766 2.48953688 44.78803354
v 9.8187331 7.44357367 44.66677807
v -27.98963098 -7.07100391 29.4771196
v -27.95350156 -2.68418039 29.61656503
v -23.41804748 -2.6997656 33.66775636
v -23.4449206 -7.04975845 33.53619953
v -32.30356654 -7.23435681 23.33187952
v -32.32061148 -2.82990682 23.40463053
v -36.126225 7.10900711 17.35680805
v -36.01983578 2.46941209 17.47836654
v -38.36777225 2.68998961 7.47761881
v -38.54533223 7.38887219 7.44785262
v 23.8138921 2.66176873 36.43124441
v 23.8354159 7.55688234 36.53562953
v 5.65771686 7.44549932 46.58003043
v 5.69639189 2.47774004 46.80037231
v 0.10575447 2.44954382 47.38919731
v 0.08393335 7.35488478 47.37681594
v -3.20321973 7.28708455 47.0237254
v -3.14862453 2.41375031 47.043736
v -7.26720806 2.3746293 46.60321166
v -7.37684445 7.20497603 46.57540734
v -9.26721416 2.34673958 45.81600381
v -9.35513507 7.14520232 45.84417757
v -12.54432739 -3.08578204 39.81571664
v -12.06197005 -3.0934758 40.70728937
v -11.94851335 -7.5576655 40.62263145
v -12.44432749 -7.52626419 39.72770338
v -36.15231369 7.38390623 -3.1227775
v -35.90415484 2.68927667 -3.09055379
v -32.70358129 2.94081806 -11.41033671
v -32.89116175 7.6715005 -11.61372095
v -11.01018468 2.23857938 42.85810315
v -11.09301184 6.96836478 42.93731307
v -18.61086869 -7.02693908 37.85374853
v -18.63135249 -2.71543905 37.95292098
v -15.17249586 -2.95434888 38.84421283
v -15.09416906 -7.33967186 38.79571216
v -13.93417004 -3.0053047 39.0975717
v -13.89169431 -7.40273133 39.0428892
v -13.14933193 2.13824958 39.37694589
v -13.98386127 2.17020095 39.16197863
v -14.02837399 6.77706713 39.21928012
v -13.20248353 6.76391397 39.43056055
v -23.86206634 2.96235736 -19.11205809
v -23.89293247 7.70082307 -19.54589705
v -12.77075241 6.79246477 40.00207744
v -12.66682656 2.14050008 39.91005598
v -15.98713606 7.73077319 -25.00541959
v -16.02946249 2.99957708 -24.26495883
v -6.9395097 3.13198224 -26.27054895
v -7.00484593 7.83597185 -27.01842386
v -35.79920796 -7.17151748 17.73056964
v -35.90077925 -2.74287013 17.61449016
v 21.44933705 7.54663917 38.09316729
v 21.40739145 2.62455502 38.00556902
v -12.19527414 2.16065808 40.80753472
v -12.31422945 6.83747851 40.89615023
v 26.95037502 -1.59032907 -15.84900328
v 19.67363358 -1.7853708 -21.52755188
v 19.64561417 -6.22494721 -21.00472543
v 26.83388434 -6.0267687 -15.53429929
v 2.1056539 7.95017249 -28.96676056
v 2.17419507 3.27009161 -28.15787709
v 11.37951423 3.31464133 -26.1375194
v 11.31855121 7.97671539 -26.85025429
v 19.70899754 3.4399186 -22.1414205
v 19.7380987 8.09092489 -22.68918935
v 34.22951404 -2.29981821 27.0232924
v 31.1293073 -2.58540522 30.84330277
v 18.94903731 -2.9639509 39.48856802
v 12.29128861 -3.07525136 43.67440331
v 36.15528947 -2.08397717 24.547243
v -27.91096511 2.47887303 29.78074791
v -27.87312006 7.07462495 29.92685722
v -23.35831425 6.97711879 33.96033684
v -23.38644246 2.41994828 33.8225501
v -32.34090044 2.35387095 23.4899122
v -32.35873488 6.96809782 23.56614254
v -38.16819758 -2.58896221 7.50921655
v 23.78886112 -2.83761528 36.31448551
v 5.73808129 -3.10303543 47.04997097
v 0.10059636 -3.06350069 47.40379028
v -3.08700329 -3.06118725 47.0662492
v -7.14708622 -3.05200102 46.63412334
v -9.23966162 -3.04530124 45.7376846
v -35.62504382 -2.58486102 -3.05512783
v -32.49248306 -2.37383569 -11.18270341
v -18.60706799 2.35851144 38.1031979
v -18.54795219 6.87476433 38.25793596
v -15.35302908 6.79920582 38.95047553
v -15.26404666 2.20624718 38.90122585
v -13.08026017 -3.05827363 39.31870055
v -23.82436806 -2.36127972 -18.62702103
v -16.0735716 -2.31577065 -23.43392906
v -6.86487669 -2.15271176 -25.43059437
v -10.9213718 -3.07405352 42.76155729
v 27.21256761 8.28548553 -16.54715026
v 27.08873363 3.63483445 -16.21853906
v 2.25088737 -1.98763311 -27.24874574
v 11.44540272 -1.92303529 -25.3375911
v 34.33149019 -6.65831551 26.8597067
v 31.13537526 -7.25645248 30.82352496
v 18.89221281 -7.68922487 39.41916351
v 12.29302955 -7.79631248 43.74009316
v 9.95819245 -7.80197052 45.01366654
v 9.8758543 -3.0773116 44.91901091
v -37.99865906 -7.07424412 7.53760698
v 23.76827358 -7.51020737 36.21487024
v 5.77478258 -7.84475622 47.26059349
v 0.08747824 -7.74958438 47.41626022
v -3.03487051 -7.71301213 47.08535138
v -7.04211973 -7.66273637 46.6606422
v -9.25868093 -7.62756472 45.63653337
v -35.38815042 -7.06606072 -3.02438442
v -32.31339471 -6.88944839 -10.98862609
v -10.84234534 -7.58718672 42.68579634
v -13.02963394 -7.47364145 39.26700648
v -23.79459001 -6.88434452 -18.21301808
v -16.11371048 -6.83187235 -22.72708247
v -6.80251246 -6.64284955 -24.71671573
v 21.36082023 -2.905004 37.90678626
v 21.32078636 -7.60318533 37.82314303
v 2.3163294 -6.45495912 -26.47663441
v 11.50341526 -6.37315425 -24.65724313
v 34.28256188 3.38766404 -8.00326651
v 34.3948723 8.33586883 -8.21148386
v 38.15888561 3.16927692 1.41182888
v 38.20392719 8.3214821 1.17273845
v 33.91899031 -1.30480026 -7.69943577
v 37.80732851 -1.69881506 1.45405726
v 33.50604508 -5.973068 -7.39799627
v 37.86504246 -6.23418074 1.48963252
v 39.7803318 3.35239339 11.54741209
v 39.76719383 8.52057093 11.52739215
v 12.94808591 2.58736725 41.46129044
v 13.14209871 8.232048 41.29878144
v 27.00847359 8.34252512 32.55630482
v 26.88788362 3.45794883 32.48045531
v 1.0423211 1.74542218 42.87359695
v 1.08623924 6.88389537 42.6316503
v 3.15056189 2.0321308 41.29952033
v 3.19447996 7.17060526 41.05760404
v 17.24546363 2.75468912 37.02980649
v 16.90086772 8.12924692 37.21724525
v 12.77434562 7.7293764 39.90018732
v 12.90102632 2.44819573 39.81019019
v 5.11944913 7.32820777 40.27723593
v 5.14337146 2.17528078 40.34812328
v 9.3029444 2.27367069 39.46140897
v 9.18097535 7.63731571 39.34168946
v 37.49257897 8.56582127 22.5240563
v 37.54061151 3.23911888 22.53939447
v 39.57133382 -1.45018769 11.35503964
v 37.40197961 -1.56390019 22.39201995
v 39.4328082 -5.99616889 11.09567922
v 37.2749826 -6.11604655 22.36643861
v 26.95458058 -2.46757152 32.41531456
v 27.39099805 -7.12237155 32.34511043
v 13.38351018 -2.93733588 41.86701131
v 13.61396997 -7.71480747 41.989532
v 1.0649488 -7.96999711 44.17740133
v 0.94849884 -3.18324202 44.03991571
v 2.34600433 -8.32504873 41.66687488
v 2.3930217 -3.49659761 41.53327346
v 6.72247193 -8.52437543 40.85060762
v 6.47399171 -3.74805866 40.73880076
v 9.94501083 -8.44018057 40.25716965
v 9.70381128 -3.6682038 40.1440242
v 13.16287983 -8.08026294 40.26243041
v 12.99939156 -3.04659555 40.02518782
v 18.09472384 -7.47417411 36.87292263
v 17.67640904 -2.74090036 36.86919025
v 0.67008883 7.27342278 45.52204678
v 0.62564 2.11652809 45.7593248
v 1.44176611 2.08853526 44.90540734
v 1.48608755 7.2472392 44.66842791
v 0.29119134 2.04289555 45.44500544
v 0.33510949 7.18138993 45.20305879
v 1.10668058 1.98864291 44.59433958
v 1.15059872 7.12713887 44.35238786
v 1.89294062 -3.08657675 45.94540219
v 2.14148457 -7.862931 46.05738618
v 2.54269148 -7.86812976 45.33883131
v 2.29378663 -3.09192591 45.22579213
v 1.44076841 -7.89767754 45.6817875
v 1.22854335 -3.11853619 45.56197437
v 1.83072505 -7.91026768 44.96519371
v 1.64093663 -3.12936135 44.84044372
v 15.33833617 4.61073709 38.62907856
v 15.33505167 4.78333743 38.62239065
v 15.38369405 4.76952953 38.58933317
v 15.42533979 4.73151621 38.56233606
v 15.45379443 4.67520664 38.5453822
v 15.46465249 4.60903032 38.54121712
v 15.45629196 4.54310703 38.55049619
v 15.4300312 4.48753319 38.57174165
v 15.38977466 4.45071613 38.60167911
v 15.34167633 4.43819748 38.63579178
v 15.29296563 4.45197502 38.66872021
v 15.25114782 4.48998518 38.69565406
v 15.222678 4.54636622 38.71240548
v 15.21171872 4.61253686 38.71644404
v 15.22007925 4.67853289 38.7073168
v 15.24652473 4.73405359 38.68624341
v 15.28690779 4.77072705 38.65638945
v 15.32851305 5.12850869 38.6091464
v 15.47416689 5.08700338 38.50977152
v 15.59871444 4.97311525 38.42816023
v 15.68361529 4.80389144 38.3769267
v 15.71603763 4.60541118 38.36422143
v 15.69124199 4.40772673 38.392046
v 15.61278614 4.24092423 38.45621253
v 15.4924644 4.13055275 38.54658669
v 15.34831363 4.09302717 38.64909423
v 15.20209298 4.13454165 38.7479529
v 15.07629793 4.2483855 38.82822054
v 14.99028117 4.41745875 38.87805727
v 14.95731984 4.61604276 38.89002366
v 14.98274303 4.81364497 38.86260143
v 15.06230721 4.98050788 38.7997659
v 15.18381572 5.09097868 38.71090747
v 15.3218555 5.47356513 38.59579081
v 15.56440693 5.40447945 38.42994671
v 15.77141853 5.21457859 38.2931519
v 15.91223925 4.93270688 38.20692258
v 15.96599055 4.6018844 38.18538107
v 15.9249015 4.27242107 38.2321155
v 15.79487557 3.99446013 38.33987115
v 15.59496688 3.81039665 38.49125134
v 15.35480165 3.74803178 38.66241692
v 15.11090909 3.81702383 38.82688953
v 14.90057505 4.00683739 38.95989883
v 14.75665708 4.28859682 39.0421073
v 14.70150393 4.61938609 39.06176112
v 14.74409858 4.94897625 39.01632732
v 14.87737863 5.22694984 38.91243564
v 15.08053892 5.41126478 38.76501556
v 15.08054905 4.82326596 38.14092655
v 15.03259495 4.83713523 38.17354627
v 15.03587185 4.66457126 38.1801861
v 15.12161026 4.78548007 38.11417489
v 15.14969293 4.72909016 38.09762084
v 15.16042446 4.66288221 38.0936253
v 15.15220058 4.59696968 38.10270194
v 15.1262536 4.54141987 38.12364121
v 15.08657905 4.50458257 38.15323707
v 15.03909814 4.49205317 38.1868892
v 14.99110862 4.50589523 38.2194659
v 14.94988292 4.54372699 38.24595693
v 14.92171169 4.6001365 38.26249073
v 14.91098016 4.66634573 38.26648374
v 14.91927742 4.73215514 38.25743747
v 14.94526996 4.78783273 38.2364982
v 14.98508874 4.82464252 38.20710477
v 15.16974402 5.14088247 38.06222019
v 15.02600825 5.1822524 38.16018309
v 15.29266704 5.02689059 37.98169698
v 15.37636593 4.8578708 37.93136934
v 15.40840872 4.65946613 37.91886145
v 15.38390913 4.46178991 37.94642538
v 15.30654896 4.29490074 38.00985556
v 15.18793019 4.18441792 38.09916946
v 15.04562411 4.14695276 38.20025997
v 14.90148094 4.18821135 38.29782306
v 14.77730789 4.30217192 38.37688622
v 14.69250067 4.4711955 38.42593346
v 14.66003531 4.66970044 38.43770247
v 14.68504857 4.86737888 38.41047256
v 14.76351707 5.03416556 38.34845688
v 14.8833884 5.14481222 38.2606334
v 15.01945951 5.52737337 38.14683256
v 14.78145779 5.46491993 38.31390392
v 14.58114676 5.28052401 38.45941605
v 14.44962788 5.00253144 38.56205012
v 14.40774174 4.6729843 38.60710182
v 14.4620877 4.34225133 38.58800469
v 14.60411037 4.06052733 38.50705131
v 14.81156732 3.87080993 38.3758867
v 15.05225889 3.80187322 38.21362568
v 15.2889878 3.86424948 38.04465144
v 15.48617376 4.04845119 37.89517919
v 15.61441826 4.3264387 37.78882287
v 15.65496075 4.65603487 37.74247812
v 15.60186735 4.98678081 37.76345788
v 15.46295457 5.26862595 37.84833848
v 15.25856956 5.45845596 37.98321017
v 14.72576565 5.63953702 38.34282922
v 15.01589414 5.71566361 38.1395753
v 15.16093055 5.84613742 38.35349749
v 14.82513294 5.75871501 38.58833112
v 14.48132399 5.41512748 38.51960729
v 14.54193022 5.50073684 38.79228849
v 14.32077101 5.07620605 38.64413966
v 14.35572378 5.11139036 38.93577881
v 14.26951471 4.67480937 38.69894109
v 14.29623347 4.65025538 38.99874846
v 14.33583717 4.27183338 38.67565864
v 14.37309768 4.18700402 38.97207018
v 14.50929279 3.9286349 38.57766791
v 14.57415013 3.79261693 38.85912969
v 14.76246188 3.69751467 38.41838014
v 14.86748214 3.5269586 38.67530944
v 15.05579136 3.61358678 38.22089053
v 15.20699948 3.43037795 38.44691575
v 15.34406505 3.6897023 38.01488098
v 15.54040584 3.51766055 38.20828395
v 15.58396206 3.91400524 37.83220449
v 15.81743685 3.77554573 37.9966189
v 15.73974013 4.25261068 37.70204445
v 15.99729445 4.16458571 37.84570937
v 15.78888353 4.65402382 37.64544389
v 16.05397345 4.62584057 37.78023967
v 15.7242438 5.05709628 37.67133014
v 15.9794929 5.08914159 37.8106731
v 15.55548465 5.40033461 37.77522942
v 15.78468808 5.48360586 37.93146297
v 15.30711577 5.63170788 37.94004111
v 15.49770744 5.74946504 38.12264928
v 15.31595961 5.78300077 38.58383202
v 14.98771532 5.6982682 38.81333404
v 14.71103351 5.44801036 39.01261772
v 14.52901746 5.07017732 39.15282608
v 14.47100239 4.62238084 39.2141889
v 14.54601939 4.17303259 39.18805973
v 14.7424032 3.79023516 39.07744723
v 15.02892836 3.53233038 38.89751625
v 15.36071778 3.43857115 38.67436053
v 15.68664927 3.52318194 38.44125265
v 15.95757689 3.77328384 38.23464339
v 16.13344147 4.15091952 38.08741057
v 16.18891853 4.59858219 38.02358059
v 16.11615867 5.04818285 38.05332574
v 15.92556953 5.43113622 38.17141059
v 15.6449934 5.68914095 38.35815347
v 14.92153709 5.74138033 38.73457454
v 15.25876693 5.82873315 38.49866042
v 14.63692999 5.48342873 38.93926321
v 14.44993153 5.0940329 39.08331022
v 14.39012239 4.63276002 39.14649495
v 14.46732062 4.16972659 39.11958388
v 14.66925112 3.77532178 39.00600319
v 14.96387618 3.50952365 38.82130995
v 15.30491936 3.41306161 38.59207615
v 15.63983639 3.50017436 38.35246761
v 15.91813767 3.7579346 38.13984859
v 16.09884043 4.14709288 37.98842032
v 16.15574465 4.60831168 37.92273553
v 16.08087694 5.07153489 37.95330307
v 15.88525226 5.4661396 38.07467494
v 15.59704689 5.73207342 38.26671401
v 15.56609472 -4.66520008 38.73175312
v 15.56275456 -4.49257443 38.72502978
v 15.61109582 -4.50632319 38.69160791
v 15.65264034 -4.54436434 38.66418063
v 15.68088749 -4.60076563 38.64711544
v 15.69166457 -4.66688755 38.64281878
v 15.68336983 -4.7327675 38.6521105
v 15.65732669 -4.78838816 38.6736343
v 15.61730042 -4.82533554 38.70384758
v 15.56934632 -4.8377672 38.73832969
v 15.52097217 -4.82376604 38.77170095
v 15.47937197 -4.78585963 38.79902702
v 15.45092999 -4.72949155 38.81594291
v 15.44016303 -4.66337184 38.82020162
v 15.44847042 -4.59746659 38.81096303
v 15.47476407 -4.5419636 38.78960371
v 15.51488903 -4.50513388 38.75951948
v 15.55624125 -4.14738166 38.71179818
v 15.70108028 -4.18895751 38.61128967
v 15.82500282 -4.30293579 38.5286485
v 15.90943301 -4.4720318 38.47676971
v 15.94170606 -4.67053516 38.4637532
v 15.91700657 -4.86824207 38.4918637
v 15.83906693 -5.03502591 38.5565844
v 15.71933224 -5.14550081 38.64800868
v 15.57595832 -5.18291411 38.75162202
v 15.43051704 -5.14143221 38.85164216
v 15.30539002 -5.02747322 38.93299788
v 15.21979837 -4.8583772 38.98353301
v 15.18717359 -4.65976282 38.99568664
v 15.21239941 -4.46216979 38.96812271
v 15.29149293 -4.29530276 38.90465458
v 15.41237642 -4.1849354 38.81483206
v 15.5496925 -3.80225532 38.6984932
v 15.79080665 -3.87141597 38.53079177
v 15.99671498 -4.06141456 38.39223325
v 16.1366703 -4.3432964 38.30485259
v 16.19022423 -4.67415367 38.28281005
v 16.14939834 -5.00373593 38.32998731
v 16.02013154 -5.28160988 38.43878296
v 15.82129575 -5.46575782 38.5917978
v 15.58247923 -5.52795916 38.76487892
v 15.33988985 -5.45891839 38.93136322
v 15.13066413 -5.26901311 39.06616659
v 14.98741167 -4.98720466 39.14943278
v 14.93263554 -4.65640969 39.16954966
v 14.97494426 -4.32682079 39.1237439
v 15.10755122 -4.04882569 39.01882486
v 15.30958041 -3.86459425 38.86977013
v 15.30480803 -4.4525567 38.24532685
v 15.25713734 -4.43872571 38.27840205
v 15.26041677 -4.61124634 38.2850596
v 15.34573007 -4.49048525 38.2183348
v 15.37362295 -4.54679292 38.20141891
v 15.38429376 -4.6130518 38.19730949
v 15.37616097 -4.6787872 38.20652277
v 15.35030761 -4.73442303 38.22778847
v 15.31087599 -4.77126382 38.25769557
v 15.26370632 -4.78368536 38.29166654
v 15.2159496 -4.76990625 38.32458485
v 15.1749314 -4.73196346 38.35147568
v 15.14685885 -4.67577188 38.36822963
v 15.13620829 -4.60947124 38.37233145
v 15.14443217 -4.54360458 38.36319155
v 15.17031843 -4.48789062 38.34212576
v 15.20992212 -4.4510628 38.31235024
v 15.39361079 -4.13496328 38.16593475
v 15.25062402 -4.09349024 38.26514515
v 15.51579492 -4.24895548 38.08441202
v 15.59907123 -4.41797938 38.03336827
v 15.63085338 -4.6164451 38.0205795
v 15.60659166 -4.8141014 38.04849516
v 15.52968696 -4.98097095 38.11250228
v 15.41170586 -5.09152873 38.20267906
v 15.27021458 -5.12886959 38.30503225
v 15.12677233 -5.08749144 38.40372897
v 15.0033407 -4.97365011 38.48391816
v 14.91893582 -4.80465342 38.53360813
v 14.88671085 -4.60606719 38.54560741
v 14.911466 -4.40835902 38.51816747
v 14.98953722 -4.24156759 38.45553438
v 15.10870762 -4.13092314 38.36674174
v 15.24404997 -3.74837117 38.25175413
v 15.00733118 -3.81080689 38.42077392
v 14.80811582 -3.99511867 38.56793842
v 14.67733583 -4.2732074 38.67169852
v 14.6356496 -4.60267452 38.71705641
v 14.6897172 -4.93351851 38.69754176
v 14.83104148 -5.21523397 38.61539908
v 15.03735974 -5.40501432 38.48255173
v 15.27676838 -5.47403516 38.31836
v 15.5122169 -5.41157033 38.14747023
v 15.70836032 -5.22739013 37.99629754
v 15.83583558 -4.94942951 37.88888096
v 15.87610477 -4.61994816 37.84213894
v 15.82321634 -4.28916015 37.86373106
v 15.68508293 -4.00730426 37.94977313
v 15.48198337 -3.81740941 38.086282
v 14.95191232 -3.63611105 38.45017241
v 15.24052256 -3.56014798 38.24449181
v 15.38713037 -3.42973079 38.45749799
v 15.05313947 -3.5170134 38.69508219
v 14.70882951 -3.86056297 38.6289318
v 14.77133608 -3.77491565 38.90121826
v 14.54905084 -4.19938444 38.75476228
v 14.58611904 -4.16423177 39.04622937
v 14.4980577 -4.60084471 38.80994833
v 14.52696528 -4.6255502 39.10971016
v 14.56413977 -5.00379697 38.78629391
v 14.60348282 -5.08873293 39.08242458
v 14.73670468 -5.34711754 38.68682035
v 14.80345731 -5.4832709 38.96781147
v 14.98857819 -5.57826086 38.52550065
v 15.09525841 -5.74896939 38.78167083
v 15.28028567 -5.66229851 38.32560967
v 15.43309049 -5.84553518 38.55055439
v 15.56702592 -5.58634304 38.11716332
v 15.76461674 -5.75838858 38.30916949
v 15.80547806 -5.36201574 37.93253081
v 16.04002828 -5.50050499 38.09514102
v 15.96035529 -5.02338753 37.80108531
v 16.21881298 -5.11147608 37.94274867
v 16.00923806 -4.62198293 37.7440976
v 16.27520604 -4.65012127 37.87686903
v 15.94499055 -4.2188722 37.77051524
v 16.20110759 -4.18682468 37.9078794
v 15.77715753 -3.87549343 37.87583662
v 16.00735795 -3.79229746 38.03026344
v 15.53019557 -3.64410023 38.04265493
v 15.72191328 -3.52644176 38.22377269
v 15.54371311 -3.49274788 38.68662804
v 15.21730337 -3.57748361 38.91876423
v 14.9420133 -3.82776201 39.120343
v 14.76102966 -4.20552167 39.26206203
v 14.70325751 -4.65329158 39.3239031
v 14.77796833 -5.10276857 39.29710336
v 14.97336021 -5.48562324 39.18487139
v 15.25836206 -5.74367606 39.00264531
v 15.58845104 -5.83744035 38.7767947
v 15.91253531 -5.75291211 38.54108554
v 16.18189407 -5.50278965 38.33218371
v 16.356706 -5.12517865 38.18349843
v 16.41181361 -4.67744069 38.11924586
v 16.33941813 -4.22792353 38.14962615
v 16.15000817 -3.84485219 38.2691584
v 15.87106669 -3.58671271 38.45832291
v 15.15044953 -3.53438224 38.84050575
v 15.48601687 -3.44705092 38.60193216
v 14.86746443 -3.79237401 39.04751988
v 14.68144777 -4.18160915 39.1931307
v 14.62193722 -4.6430054 39.25674813
v 14.69873311 -5.10600878 39.22928289
v 14.89967928 -5.50054168 39.11405996
v 15.19273547 -5.76638536 38.92698811
v 15.53197193 -5.86298753 38.69492024
v 15.86502404 -5.77592538 38.45252064
v 16.14176404 -5.51811581 38.23767484
v 16.32134836 -5.12901035 38.08482195
v 16.37798435 -4.66776498 38.01857034
v 16.30351898 -4.20435167 38.04976796
v 16.10897479 -3.80980801 38.1727593
v 15.82227755 -3.54387387 38.36713142
v 27.07957349 1.23836061 31.25926174
v 26.92039959 7.74279145 31.36957312
v 26.89834946 8.1896912 31.42722634
v 26.93377542 8.61974338 31.517851
v 24.57772134 1.17380629 33.18240806
v 24.4194584 7.67829343 33.27803538
v 24.3953738 8.12516155 33.33414757
v 24.42660938 8.55538453 33.42621458
v 28.67199064 1.14924898 33.13543071
v 28.49539223 7.7655754 33.21898283
v 28.28233544 8.6883002 33.0993772
v 28.40289505 8.2350921 33.1882002
v 26.0507024 1.08395909 35.15503938
v 25.87592589 7.70029422 35.22278647
v 25.6702124 8.62292665 35.09250497
v 25.78542775 8.16978181 35.18778309
v 27.14372485 0.11112016 31.19931342
v 27.19019864 -6.40810196 30.9620101
v 27.23303369 -6.86731729 30.93893768
v 27.30161329 -7.31718144 30.98344281
v 24.64344662 0.04666919 33.12637684
v 24.69793681 -6.47245574 32.89649779
v 24.7415411 -6.93174699 32.87543705
v 24.8073676 -7.38150486 32.9236113
v 28.72829261 0.08153751 33.08373917
v 28.75148143 -6.53052522 32.82182745
v 28.64900931 -7.40464813 32.56263848
v 28.72469435 -6.97748443 32.70904891
v 26.10824934 0.016321 35.1069537
v 26.14023392 -6.59587599 34.852112
v 26.05033801 -7.46996601 34.5885049
v 26.11859878 -7.04277574 34.7385971
v 26.78496109 7.73607697 31.20825342
v 26.75713147 8.25224965 31.26139236
v 26.78604411 8.76015797 31.34697642
v 26.55575513 7.72655624 31.1650717
v 26.71398265 1.23982778 31.05610904
v 28.41583564 8.84793084 33.2593912
v 28.80946867 1.14127418 33.53364127
v 28.63197955 7.77536435 33.61696313
v 28.53832343 8.31425394 33.34736651
v 28.63236923 7.77273398 33.37709648
v 26.53286996 8.29842359 31.22572601
v 26.57624145 8.84955791 31.33012125
v 28.38677117 8.95134049 33.46853342
v 28.52844971 8.37449705 33.57797433
v 26.94379085 1.24109964 31.09827099
v 28.80960025 1.14686073 33.29332421
v 27.09327828 -6.92981121 30.77125902
v 27.05446155 -6.40119389 30.80126734
v 27.15697922 -7.45767573 30.80760858
v 26.77809857 0.1025474 30.99632014
v 26.82481529 -6.39903797 30.76020865
v 28.78723635 -7.56396373 32.71551162
v 28.88932384 -6.54549901 33.2195294
v 28.86582631 0.08432058 33.48211674
v 28.86293656 -7.0558125 32.86437909
v 28.88914165 -6.53653878 32.97895171
v 26.86935585 -6.98365235 30.73561797
v 26.94815836 -7.55482637 30.78914913
v 28.76024683 -7.67348435 32.92130102
v 28.85452543 -7.12232094 33.09320296
v 27.00783592 0.10865703 31.03821387
v 28.86583643 0.08496529 33.24144036
v 26.00373769 7.70686953 35.39111545
v 26.17894943 1.08094773 35.32306218
v 25.91198446 8.24833129 35.35677757
v 25.79523062 8.78188167 35.26230919
v 24.29257273 8.69529809 33.24742229
v 24.26741018 8.18719873 33.16112465
v 24.29665684 7.67103111 33.11009608
v 24.45425681 1.17597866 33.01481543
v 26.26823297 -6.60262084 35.01989947
v 26.23629394 0.01906565 35.27506254
v 26.24695209 -7.12193505 34.9049068
v 24.67493018 -7.52263809 32.74113471
v 26.17878748 -7.63002303 34.75259542
v 24.61374448 -6.99494184 32.70119953
v 24.57399656 -6.46639537 32.72940872
v 24.5198252 0.0434663 32.95887531
v 24.46929766 1.18160854 32.78120147
v 24.31185963 7.66836657 32.87695025
v 26.24477593 7.71607395 35.44455045
v 26.42058484 1.0819852 35.37532559
v 24.2872892 8.24028453 32.93612172
v 24.32607557 8.79143023 33.0421415
v 26.00831776 8.89200074 35.28427076
v 26.14371072 8.31512187 35.40056406
v 24.53482557 0.04429336 32.72504373
v 24.58869833 -6.45718716 32.49556955
v 26.50977729 -6.60478942 35.07126205
v 26.47810142 0.02501025 35.32720196
v 24.6339221 -7.04180153 32.47291464
v 24.7095464 -7.61297428 32.53064378
v 26.3940761 -7.73293291 34.76756035
v 26.48023204 -7.18165563 34.94375643
v 1.83664735 0.69813354 45.34431727
v 1.00232993 0.66832244 44.25362788
v 0.17049605 0.78548194 44.47480733
v -2.30050997 0.78932217 44.74631695
v -7.78783682 0.76387637 44.38092853
v 4.20334488 0.72929969 45.68685088
v 1.29706332 0.62761516 42.0913462
v 3.01069893 0.62244756 40.96788779
v 4.83906499 0.6476245 41.17145801
v 6.22839808 0.69475669 42.69176056
v 5.86796804 0.7275121 44.61326463
v 0.2960735 0.28598207 45.1179631
v 0.09845246 0.27034419 43.95483268
v -2.22912413 0.28709735 45.33437523
v -2.34697523 0.27590022 44.28189273
v -7.70441565 0.25207879 43.95149758
v -7.88286886 0.2557604 44.92290777
v 3.91933116 0.70502911 44.62039537
v 2.7837849 0.69102953 44.52474781
v 4.84326772 0.7038572 44.03133757
v 5.08939179 0.68651683 43.0007888
v 4.30720746 0.66056763 42.15222066
v 3.26885866 0.64662767 42.03710147
v 2.26886636 0.64900026 42.68452354
v 2.11671297 0.66636436 43.6290429
v 5.88826079 -0.38987103 44.63377626
v -2.20310028 -0.44871726 45.55645298
v -7.92041911 -0.48599336 45.1188943
v 4.24070408 -1.50560219 45.73045771
v 1.86952754 -1.53668357 45.38897423
v 1.85466888 -0.41928533 45.36615232
v 4.22285224 -0.38822926 45.70747891
v 5.90810755 -1.50728042 44.65604148
v 6.26877166 -1.54004136 42.73423881
v 6.24928548 -0.42267697 42.71287696
v 4.87644508 -1.58713812 41.2146372
v 4.85895446 -0.46975443 41.19214424
v 3.04430077 -1.61237849 41.01211204
v 3.02823225 -0.49488476 40.98878152
v 1.32775723 -1.60726204 42.13613474
v 1.31255886 -0.48989132 42.11303448
v 3.95588347 -1.52974253 44.66417174
v 2.81817212 -1.54379691 44.56895688
v 2.14950839 -1.56847679 43.67351513
v 1.03321481 -1.5665112 44.29846196
v 2.30168298 -1.585865 42.72886925
v 3.30341573 -1.58822178 42.08119161
v 4.34380248 -1.57420939 42.19572374
v 5.12764265 -1.54831103 43.04390978
v 4.88134841 -1.53101091 44.07453447
v 0.20312158 -1.68907482 44.52474528
v 0.31541108 -1.16196057 45.14718952
v 0.11747165 -1.19676302 43.98441082
v 0.10789838 -0.46319324 43.96939022
v -2.21233412 -1.19307579 45.36456827
v 0.34209311 -0.43356725 45.33607315
v -2.27251176 -1.71956036 44.79753782
v -2.33043953 -1.22625893 44.31254631
v -7.69448183 -1.26882172 43.98241938
v -7.70834287 -0.50843472 43.96545793
v -7.87291353 -1.2346654 44.9531919
v -7.77121635 -1.76349527 44.43229111
v -2.34527699 -0.47515057 44.29758137
v -4.86822467 0.27394641 45.32484312
v -4.87334056 -0.46501502 45.53454709
v -4.85457619 -1.2118903 45.35529426
v -4.83661776 -1.73961659 44.80903608
v -4.82988935 -1.24556426 44.33965223
v -4.84455697 -0.48952837 44.32374344
v -4.84343219 0.26686612 44.30875067
v -4.85935237 0.779364 44.75743564
v -15.3593969 -0.56150455 40.67072978
v -15.37334334 0.44004593 40.79650459
v -13.82117894 0.44234403 41.44339527
v -13.78424485 -0.5522267 41.32752202
v -14.37460329 0.42983376 42.5844452
v -15.76342744 0.42264704 41.69402129
v -15.87527099 -0.53868631 41.86243883
v -14.4509766 -0.52447912 42.76469249
v -13.99141839 1.13496394 41.84116301
v -15.92776468 0.5853395 40.99244305
v -13.29428864 0.21723973 41.8615709
v -13.30352216 -0.54244056 41.87274779
v -13.76743396 0.2171771 42.83365671
v -13.83336421 -0.52076054 42.99896689
v -13.43567997 0.72144683 42.24589196
v -10.81619339 0.23065874 43.00696051
v -10.82167049 -0.5201307 43.01890918
v -11.18522055 0.23320877 43.93042925
v -11.26091571 -0.49937374 44.11524395
v -10.98367214 0.735454 43.41530796
v -13.81899265 -1.54165696 41.48136178
v -15.3737887 -1.55770682 40.83374234
v -14.37258654 -1.4851951 42.6209972
v -15.76378803 -1.5058988 41.72991538
v -13.9877885 -2.21855074 41.90533967
v -15.92901724 -1.69324496 41.03458476
v -13.29182653 -1.30214568 41.89085804
v -13.76509838 -1.26462279 42.86219738
v -13.43158321 -1.79116508 42.29443058
v -10.8103772 -1.27092418 43.03673856
v -11.1795524 -1.23823796 43.95962277
v -10.9741413 -1.75961913 43.46490936
v -15.92840108 -0.5921227 41.01421989
v -14.18753145 -0.59733937 39.58131572
v -14.89803323 7.0606861 39.75092256
v -14.36282289 9.1271532 40.11043786
v -14.48339009 9.03626157 40.86550677
v -15.05553579 7.02369886 40.48056829
v -13.6602388 8.13317541 41.49153156
v -14.00621253 6.9526521 41.27384916
v -12.50240456 7.34775783 41.94847331
v -12.61787801 6.80286861 41.88417266
v -12.09293993 7.30232657 41.49050421
v -12.20106881 6.79294808 41.44814235
v -11.70092384 7.32667053 40.85456015
v -11.81329879 6.7818471 40.79251664
v -12.28245237 7.94889336 40.20161163
v -12.35313728 6.89089706 40.10258848
v -13.72249613 9.11923929 39.73977857
v -14.18910284 7.00286334 39.43825304
v -12.01028357 9.14977014 41.42626682
v -12.35247937 9.16091667 42.01108616
v -12.37145629 8.33014628 42.34630178
v -12.05398908 7.57730793 42.22695172
v -11.59483322 7.5675329 41.71465691
v -11.26384468 7.55623075 41.12450596
v -11.24904928 8.30041504 40.79108948
v -11.555394 9.13999764 40.9141618
v -3.38133355 9.23298193 44.27766439
v -3.49328338 9.24723961 45.00989115
v -3.43401828 8.41720051 45.35379625
v -3.24284999 7.66266299 45.09866608
v -3.03968907 7.64948959 44.38873996
v -2.93512587 7.63530023 43.65554404
v -2.99309634 8.37850777 43.31406056
v -3.1774717 9.21984269 43.56834811
v 3.56231845 9.29849718 44.60491676
v 4.78410889 9.31019407 44.50254332
v 4.86116194 9.32708593 45.31900543
v 3.62404566 9.31537259 45.42269215
v 4.90030414 8.4973062 45.67407476
v 3.67401334 8.48566245 45.77698971
v 4.87033188 7.73989032 45.35149356
v 3.67492619 7.72857805 45.4520046
v 4.78593428 7.72286814 44.53574757
v 3.62268714 7.71168999 44.63356118
v 3.41332794 7.64926059 41.5995023
v 4.80314908 7.67026059 41.8439313
v 4.80077175 8.4211543 41.48932503
v 3.36828478 8.39963303 41.24641934
v 4.79332122 9.2574056 41.8131259
v 3.36586474 9.23609309 41.56997729
v 3.46539714 9.26740584 43.09323031
v 4.73940513 9.27984921 42.9849205
v 0.36283163 9.26855971 44.6675954
v 2.35373099 9.28732029 44.67449081
v 2.39979296 9.30424251 45.49336694
v 0.37811489 9.28527318 45.48791134
v 2.4596312 8.47451592 45.84790489
v 0.44207108 8.45567057 45.84436988
v 2.49011271 7.71768457 45.52188737
v 0.50938112 7.69909985 45.51949612
v 2.46933175 7.70106093 44.70183712
v 0.5361905 7.68280518 44.6990157
v 1.19621502 7.65277662 42.91380542
v 2.22248587 7.64468305 42.01033969
v 2.11758328 8.39471515 41.66741133
v 1.13149464 8.40300735 42.55982922
v 2.13980769 9.23136752 41.99003555
v 1.0715079 9.23898663 42.88388819
v 0.40369312 9.25224733 43.83832429
v 2.25407128 9.25603537 43.16261965
v 5.76977297 9.33073354 44.9478274
v 5.92430354 8.49841453 45.11075645
v 5.7265552 7.74300274 44.99027782
v 6.16645832 7.7166939 43.35515974
v 6.42500014 8.47065955 43.29715985
v 6.20120676 9.3043374 43.31672257
v 0.47009041 8.40892222 43.51529014
v 0.53035315 7.66603099 43.86985339
v 6.00456232 8.45241392 42.31461073
v 5.8249837 7.69693128 42.56276958
v 5.85777928 9.28502013 42.54564113
v 3.68817171 2.07440125 44.35538895
v 2.6674198 2.05810119 44.06674328
v 4.49682586 2.07803494 44.00482377
v 4.74755626 7.69508533 43.14355542
v 4.84396833 2.06919521 43.22702151
v 4.34721982 2.0503369 42.46156014
v 3.54380871 2.03705691 42.24417633
v 2.66901175 2.03371422 42.63696166
v 2.42630518 2.04359774 43.36422119
v 3.71557559 2.10160206 44.89577148
v 3.7535927 1.46356818 45.19633292
v 2.02983191 1.43532942 44.6702397
v 2.24473148 2.07138941 44.44468514
v 4.92066047 2.10291408 44.37052342
v 5.1658932 1.46744353 44.58166721
v 5.40855723 2.07563799 43.16267025
v 5.73258394 1.44668423 43.17201765
v 4.66731931 2.0332657 42.00943632
v 4.88599712 1.41030335 41.84573296
v 3.4956876 2.0094468 41.70349773
v 3.49507208 1.38681879 41.46749758
v 2.25025049 2.00994435 42.27455409
v 2.04137935 1.38459755 42.13482904
v 1.83917335 2.03548646 43.35607575
v 1.55774905 1.405258 43.39685609
v 1.76555899 7.67442694 43.72124655
v 5.3027421 7.70313462 43.21467809
v 3.64635516 4.63001514 44.3295204
v 2.62732251 4.61582135 44.04013586
v 2.38682342 4.60603366 43.33675342
v 2.62931776 4.60140551 42.60901564
v 3.50267126 4.60740705 42.21636189
v 4.30476624 4.61891922 42.43450736
v 4.8005807 4.63250951 43.20093282
v 4.45384184 4.63581994 43.97922851
v 2.57935007 7.68770029 43.97994462
v 3.59549582 7.70423409 44.26953666
v 4.40111473 7.70636597 43.92024176
v 4.25350361 7.67420553 42.37787643
v 3.45372239 7.66080439 42.15975373
v 2.58225816 7.65925704 42.55113721
v 2.33989114 7.67129048 43.27767051
v 6.08628494 7.73572777 44.39157403
v 6.32795136 8.48980096 44.40864935
v 6.14966831 9.32379132 44.34977393
v -6.7882902 9.20034703 43.49811867
v -6.97695368 9.21349512 44.18760654
v -6.9380876 8.3831802 44.5293709
v -6.69701521 7.62925631 44.31374067
v -6.4032796 7.6172798 43.66089336
v -6.22363772 7.60404821 42.96933814
v -6.26254618 8.34770617 42.63011686
v -6.49508534 9.18836546 42.84611653
v -9.47905697 9.17508326 42.61342111
v -9.72439566 9.18752663 43.26312056
v -9.70172558 8.35698777 43.60227605
v -9.42531073 7.60342319 43.42301057
v -9.06532604 7.59228805 42.82343379
v -8.82996419 7.57988391 42.17062444
v -8.85382294 8.32376707 41.83395383
v -9.12064305 9.16400758 42.0147401
v -14.89958312 -0.5901182 39.89362592
v -11.79540488 -0.57437081 40.93628531
v -12.33965896 -0.58727306 40.24736425
v -15.0558116 2.84315249 40.55870783
v -14.89884044 2.85235533 39.82936576
v -14.18825388 2.82234986 39.51693916
v -12.34570795 2.77760181 40.18223616
v -11.80347061 2.73554519 40.8716304
v -12.22855809 2.74737113 41.51622599
v -12.6091531 2.75656005 41.96298783
v -13.98954967 2.81844952 41.36196617
v 3.76458803 0.79076562 45.2095139
v 2.03978724 0.76255327 44.68367626
v 5.17754676 0.79470202 44.59467612
v 5.744513 0.77396043 43.18488233
v 4.89731097 0.73760423 41.85872164
v 3.50545188 0.71403932 41.4807646
v 2.0510587 0.71186284 42.14819475
v 1.56727989 0.73250447 43.41031037
v 2.68656642 0.72570174 44.11735433
v 3.70912268 0.73991972 44.4059089
v 4.51902909 0.74587856 44.05485281
v 4.86655364 0.74237171 43.27624082
v 4.36878632 0.72895523 42.51007093
v 3.56384652 0.71739973 42.29289967
v 2.68773374 0.71126487 42.68621387
v 2.44483612 0.71596197 43.41420722
v -14.90108999 -8.24089816 40.03643303
v -15.0565973 -8.176638 40.76491476
v -14.47415656 -10.17596152 41.22896194
v -14.3565816 -10.29502817 40.47673975
v -13.99203328 -8.07994664 41.56072099
v -13.63801407 -9.25226124 41.82521374
v -12.58605917 -7.90948577 42.17061938
v -12.46636118 -8.45159153 42.25644636
v -12.16644879 -7.91640016 41.7351154
v -12.05445595 -8.42383529 41.79777633
v -11.7774047 -7.93050476 41.08005904
v -11.66061543 -8.47257129 41.16374781
v -12.32607311 -8.06542326 40.39212485
v -12.24997562 -9.11897739 40.53253564
v -14.18587655 -8.19756462 39.72433791
v -13.70948468 -10.30293322 40.10858559
v -12.30537676 -10.26098889 42.39061712
v -11.96171584 -10.27219235 41.80619759
v -12.32690182 -9.41802184 42.69351161
v -12.00996474 -8.67033671 42.54555256
v -11.54773061 -8.68001053 42.03410038
v -11.21557427 -8.69127978 41.44431888
v -11.19776514 -9.44765439 41.14005037
v -11.50302684 -10.28213439 41.29507184
v -9.63063707 -10.23427012 43.65312749
v -9.38517122 -10.24662619 43.00337236
v -9.61414375 -9.39089821 43.95901294
v -9.34250508 -8.64400257 43.74997194
v -8.98069532 -8.65511367 43.15063049
v -8.74529045 -8.66749504 42.49772498
v -8.76324825 -9.42402401 42.19110571
v -9.02442234 -10.25776133 42.40491909
v 3.87649548 -10.12195338 44.98602924
v 3.94134333 -10.10523233 45.80354905
v 5.19828518 -10.09333679 45.69433588
v 5.11802672 -10.11032607 44.87820273
v 3.96539313 -9.26113291 46.12499662
v 5.20940798 -9.24955242 46.01698287
v 3.94077019 -8.51791905 45.77057761
v 5.15207454 -8.5063588 45.66555735
v 3.88596275 -8.53465781 44.95226323
v 5.06495989 -8.52346447 44.85007452
v 3.66705119 -8.59717831 41.91892806
v 3.6443596 -9.36182615 41.59568642
v 5.09983549 -9.34011003 41.83257981
v 5.07714421 -8.5760986 42.15802039
v 3.66872792 -10.18451562 41.95172744
v 5.12116824 -10.16288934 42.18848925
v 3.77401261 -10.15312316 43.47471982
v 5.06912023 -10.14056593 43.36068619
v 0.62459992 -10.15226282 45.05943435
v 0.64306717 -10.1354861 45.8795681
v 2.69754056 -10.11647627 45.87895574
v 2.64835826 -10.1333074 45.06023144
v 0.68594523 -9.29127788 46.202124
v 2.73328646 -9.27244645 46.2000946
v 0.7324318 -8.54750858 45.8469914
v 2.74003653 -8.52881759 45.84433446
v 0.75730956 -8.56390827 45.02646291
v 2.71694181 -8.54546147 45.02431205
v 1.42160068 -8.5938217 43.23972678
v 1.37613296 -9.35866564 42.91621185
v 2.37502136 -9.36699074 42.0210611
v 2.46009822 -8.60184568 42.3335459
v 1.33926213 -10.18187513 43.27380402
v 2.42288768 -10.18928927 42.37656061
v 0.66346607 -10.16868402 44.2299102
v 2.54254282 -10.1646948 43.54870947
v 0.70719317 -9.33807051 43.87304679
v 0.74903111 -8.58064197 44.19728036
v 6.46218981 -8.5294464 43.66340608
v 6.11466493 -8.5492647 42.87242789
v 6.32374832 -9.30886687 42.65220241
v 6.75208297 -9.27816268 43.63244885
v 6.20504858 -10.13523938 42.91553623
v 6.55575673 -10.11579179 43.68479324
v 2.82676909 -8.5588082 44.30209312
v 2.78115279 -5.48672461 44.24050256
v 3.80929148 -5.46794759 44.52773371
v 3.85760364 -8.54217444 44.58828427
v 4.62329496 -5.46952562 44.17567558
v 4.67366593 -8.54006407 44.23601105
v 4.97230519 -5.48860187 43.3968232
v 5.0232705 -8.551203 43.45795828
v 4.47145993 -5.51706663 42.63182489
v 4.52087598 -8.57219035 42.6941594
v 3.66219025 -5.53233648 42.41567846
v 3.70924984 -8.58566107 42.47894163
v 2.78144995 -5.52955681 42.80991626
v 2.82632326 -8.58731471 42.87326293
v 2.53770322 -5.51012599 43.53782611
v 2.58230055 -8.57535085 43.60050476
v -3.18216279 -10.18817209 44.67502979
v -3.29286038 -10.17393085 45.40751466
v -3.24883603 -9.33016166 45.71724889
v -3.07186881 -8.58430603 45.4311792
v -2.86836786 -8.59742123 44.72105571
v -2.76503603 -8.61165614 43.98772315
v -2.80925143 -9.36869752 43.67689325
v -2.97811021 -10.20127084 43.96550348
v 3.7966403 -2.89434648 44.99369389
v 2.31908883 -2.91264241 44.54392338
v 2.08463935 -2.2725456 44.74419139
v 3.81400377 -2.24424753 45.26905735
v 5.0064166 -2.88928246 44.46714773
v 5.23035864 -2.24035384 44.65319728
v 5.49533217 -2.8976199 43.25826215
v 5.79828075 -2.26104228 43.24288981
v 4.74987002 -2.91826422 42.10549128
v 4.94844644 -2.29734093 41.91747812
v 3.57288931 -2.93365095 41.80069645
v 3.55276641 -2.32110004 41.54037131
v 2.32244275 -2.93807224 42.37309899
v 2.09470095 -2.32321405 42.20873012
v 1.91070737 -2.92831365 43.45521277
v 1.61028527 -2.30256784 43.4710836
v 2.74305074 -2.90588269 44.16522745
v 3.76828151 -2.88918125 44.45273189
v 4.58014108 -2.88845154 44.10140253
v 4.92825965 -2.90207598 43.32326372
v 4.42909143 -2.92514524 42.55845773
v 3.62198684 -2.93861802 42.34196716
v 2.74366627 -2.93867574 42.73553692
v 2.50049267 -2.92428885 43.4629002
v -15.05610893 -0.57648083 40.62269724
v -15.05632149 -3.99626338 40.68666893
v -14.90028405 -4.03254715 39.95792151
v -13.97590182 -0.56328518 41.43410102
v -13.98307558 -3.94546445 41.49106596
v -12.60191482 -0.55332261 42.02727076
v -12.59484607 -3.86330627 42.0917865
v -12.25129144 -0.56211746 41.57195608
v -12.21323257 -3.87110725 41.64536373
v -12.33356697 -3.9520426 40.31245439
v -11.78731764 -3.88426578 41.00096805
v -14.18681027 -4.01713559 39.64564926
v 6.12071455 -10.08972208 45.31852717
v 6.50549235 -10.09650109 44.71828742
v 6.24728961 -9.24824672 45.44886687
v 6.01914453 -8.50325903 45.3007813
v 6.38282237 -8.51042266 44.70033658
v 2.00106967 -8.57211824 44.04570786
v 5.58631015 -8.54315625 43.52682129
v 6.65558645 -9.25675528 44.7445912
v -6.83573252 -10.207917 44.58373962
v -6.6475359 -10.22115492 43.89399871
v -6.80709759 -9.36429331 44.89159881
v -6.57494052 -8.617924 44.64528211
v -6.27999473 -8.629879 43.99247782
v -6.10081971 -8.64309415 43.30073787
v -6.13038837 -9.39998497 42.99200569
v -6.3529722 -10.23311119 43.2419991
v 2.07464164 -1.59968358 44.73084086
v 3.80305082 -1.57136147 45.25585612
v 5.2186842 -1.56761059 44.6402744
v 5.78635105 -1.58814982 43.2299897
v 4.93708989 -1.62459902 41.90446161
v 3.54225914 -1.64829883 41.52714477
v 2.08506399 -1.65048322 42.19521765
v 1.60075442 -1.62977239 43.45761161
v 2.72156933 -1.57264076 44.16295007
v 3.74609948 -1.55372085 44.45094035
v 4.55770443 -1.55532767 44.09955532
v 4.90592928 -1.57437244 43.32112298
v 4.40712164 -1.60291256 42.55562112
v 3.60061139 -1.61819878 42.3387434
v 2.72265188 -1.61541215 42.73225243
v 2.47932962 -1.59581456 43.46006866
g Group48036
f 186 185 184 183
g Group48039
f 48 47 186 183
g Group42959
f 47 48 64 63
g Group48036
f 190 189 188 187
g Group48039
f 7 1 190 187
g Group42959
f 1 7 66 65
g Group48036
f 183 184 191
g Group48039
f 49 48 183 191
g Group42959
f 49 64 48
g Group48036
f 190 193 192 189
g Group48039
f 130 65 189 192
f 1 129 193 190
g Group42959
f 1 65 130 129
g Group48036
f 197 196 195 194
g Group48039
f 58 60 197 194
g Group42959
f 60 58 95 94
g Group48036
f 194 195 199 198
g Group48039
f 62 58 194 198
g Group42959
f 58 62 96 95
g Group48036
f 203 202 201 200
g Group48039
f 29 28 203 200
g Group42959
f 28 29 73 72
g Group48036
f 205 204 185 186
g Group48039
f 47 56 205 186
g Group42959
f 56 47 63 74
g Group48036
f 209 208 207 206
g Group48039
f 2 43 209 206
g Group42959
f 43 2 68 75
g Group48036
f 213 212 211 210
g Group48039
f 126 42 213 210
g Group42959
f 42 126 125 76
g Group48036
f 215 214 212 213
g Group48039
f 42 41 215 213
g Group42959
f 41 42 76 77
g Group48036
f 219 218 217 216
g Group48039
f 36 40 218 219
g Group42959
f 36 98 97 40
g Group48036
f 223 222 221 220
g Group48039
f 27 26 223 220
g Group42959
f 26 27 81 80
g Group48036
f 215 225 224 214
g Group48039
f 82 77 214 224
f 41 53 225 215
g Group42959
f 41 77 82 53
g Group48036
f 229 228 227 226
g Group48039
f 39 38 229 226
f 99 100 227 228
g Group42959
f 38 39 100 99
g Group48036
f 231 230 228 229
g Group48039
f 38 37 231 229
g Group42959
f 37 38 99 101
g Group48036
f 235 234 233 232
g Group48039
f 33 32 234 235
g Group42959
f 33 86 85 32
g Group48036
f 237 236 222 223
g Group48039
f 26 25 237 223
g Group42959
f 25 26 80 87
g Group48036
f 235 232 239 238
g Group48039
f 34 33 235 238
g Group42959
f 33 34 79 86
g Group48036
f 243 242 241 240
g Group48039
f 24 23 243 240
g Group42959
f 23 24 89 88
g Group48036
f 240 241 236 237
g Group48039
f 25 24 240 237
g Group42959
f 24 25 87 89
g Group48036
f 198 199 245 244
g Group48039
f 8 62 198 244
g Group42959
f 62 8 102 96
g Group48036
f 226 227 196 197
g Group48039
f 60 39 226 197
g Group42959
f 39 60 94 100
g Group48036
f 187 188 247 246
g Group48039
f 134 7 187 246
f 66 133 247 188
g Group42959
f 7 134 133 66
g Group48036
f 220 221 202 203
g Group48039
f 28 27 220 203
g Group42959
f 27 28 72 81
g Group48036
f 225 249 248 224
g Group48039
f 53 4 249 225
g Group42959
f 53 82 78 4
g Group48036
f 253 252 251 250
g Group48039
f 18 17 252 253
g Group42959
f 18 104 103 17
g Group48036
f 257 256 255 254
g Group48039
f 22 21 257 254
g Group42959
f 21 22 93 92
g Group48036
f 259 258 256 257
g Group48039
f 21 20 259 257
g Group42959
f 20 21 92 90
g Group48036
f 254 255 242 243
g Group48039
f 23 22 254 243
g Group42959
f 22 23 88 93
g Group48036
f 185 261 260 184
g Group42959
f 63 64 106 105
g Group48036
f 189 263 262 188
g Group48039
f 108 66 188 262
f 65 107 263 189
g Group42959
f 65 66 108 107
g Group48036
f 184 260 264 191
g Group48039
f 51 49 191 264
g Group42959
f 64 49 51 106
g Group48036
f 268 267 266 265
g Group48039
f 59 57 266 267
g Group42959
f 69 70 57 59
g Group48036
f 265 266 270 269
g Group48039
f 57 61 270 266
g Group42959
f 70 71 61 57
g Group48036
f 202 271 245 201
g Group42959
f 72 73 102 111
g Group48036
f 204 272 261 185
g Group42959
f 74 63 105 112
g Group48036
f 208 274 273 207
g Group48039
f 75 113 274 208
g Group42959
f 75 68 110 113
g Group48036
f 212 276 275 211
g Group48039
f 127 125 211 275
g Group42959
f 76 125 127 114
g Group48036
f 214 277 276 212
g Group48039
f 77 115 277 214
g Group42959
f 77 76 114 115
g Group48036
f 239 248 249 238
g Group48039
f 4 34 238 249
g Group42959
f 79 34 4 78
g Group48036
f 222 279 278 221
g Group42959
f 80 81 117 116
g Group48036
f 283 282 281 280
g Group48039
f 84 83 283 280
f 31 30 281 282
g Group42959
f 83 84 30 31
g Group48036
f 233 234 282 283
g Group48039
f 32 31 282 234
g Group42959
f 85 83 31 32
g Group48036
f 232 233 230 284
g Group42959
f 86 119 101 85
g Group48036
f 236 285 279 222
g Group42959
f 87 80 116 120
g Group48036
f 232 284 216 239
g Group42959
f 86 79 98 119
g Group48036
f 242 287 286 241
g Group42959
f 88 89 122 121
g Group48036
f 241 286 285 236
g Group42959
f 89 87 120 122
g Group48036
f 269 270 200 201
g Group48039
f 61 29 200 270
g Group42959
f 71 73 29 61
g Group48036
f 280 281 267 268
g Group48039
f 30 59 267 281
g Group42959
f 84 69 59 30
g Group48036
f 221 278 271 202
g Group42959
f 81 72 111 117
g Group48036
f 224 248 217 288
g Group48039
f 118 82 224 288
g Group42959
f 82 118 97 78
g Group48036
f 290 258 259 289
g Group48039
f 20 19 289 259
g Group42959
f 91 19 20 90
g Group48036
f 256 292 291 255
g Group42959
f 92 93 124 123
g Group48036
f 258 251 292 256
g Group42959
f 90 92 123 103
g Group48036
f 255 291 287 242
g Group42959
f 93 88 121 124
g Group48036
f 196 268 265 195
g Group42959
f 94 95 70 69
g Group48036
f 195 265 269 199
g Group42959
f 95 96 71 70
g Group48036
f 216 217 248 239
g Group42959
f 98 79 78 97
g Group48036
f 230 233 283 228
g Group48039
f 83 99 228 283
g Group42959
f 101 99 83 85
g Group48036
f 199 269 201 245
g Group42959
f 96 102 73 71
g Group48036
f 227 280 268 196
g Group48039
f 100 84 280 227
g Group42959
f 100 94 69 84
g Group48036
f 250 251 258 290
g Group42959
f 104 91 90 103
g Group48036
f 261 294 293 260
g Group48039
f 52 50 293 294
g Group42959
f 105 106 50 52
g Group48036
f 263 296 295 262
g Group48039
f 5 3 295 296
g Group42959
f 107 108 3 5
g Group48036
f 260 293 264
g Group48039
f 50 51 264 293
g Group42959
f 51 50 106
g Group48036
f 263 298 297 296
g Group48039
f 132 5 296 297
f 107 131 298 263
g Group42959
f 107 5 132 131
g Group48036
f 271 299 244 245
g Group48039
f 9 8 244 299
g Group42959
f 111 102 8 9
g Group48036
f 272 300 294 261
g Group48039
f 55 52 294 300
g Group42959
f 112 105 52 55
g Group48036
f 274 302 301 273
g Group48039
f 44 6 301 302
g Group42959
f 113 110 6 44
g Group48036
f 276 304 303 275
g Group48039
f 45 128 303 304
g Group42959
f 114 127 128 45
g Group48036
f 277 305 304 276
g Group48039
f 46 45 304 305
g Group42959
f 115 114 45 46
g Group48036
f 279 307 306 278
g Group48039
f 11 10 306 307
g Group42959
f 116 117 10 11
g Group48036
f 277 288 308 305
g Group48039
f 54 46 305 308
f 115 118 288 277
g Group42959
f 115 46 54 118
g Group48036
f 284 230 231 309
g Group48039
f 37 35 309 231
g Group42959
f 119 35 37 101
g Group48036
f 285 310 307 279
g Group48039
f 12 11 307 310
g Group42959
f 120 116 11 12
g Group48036
f 284 309 219 216
g Group48039
f 35 36 219 309
g Group42959
f 119 98 36 35
g Group48036
f 287 312 311 286
g Group48039
f 14 13 311 312
g Group42959
f 121 122 13 14
g Group48036
f 286 311 310 285
g Group48039
f 13 12 310 311
g Group42959
f 122 120 12 13
g Group48036
f 262 295 314 313
g Group48039
f 109 108 262 313
f 3 67 314 295
g Group42959
f 108 109 67 3
g Group48036
f 278 306 299 271
g Group48039
f 10 9 299 306
g Group42959
f 117 111 9 10
g Group48036
f 288 217 218 308
g Group48039
f 40 54 308 218
g Group42959
f 118 54 40 97
g Group48036
f 292 316 315 291
g Group48039
f 16 15 315 316
g Group42959
f 123 124 15 16
g Group48036
f 251 252 316 292
g Group48039
f 17 16 316 252
g Group42959
f 103 123 16 17
g Group48036
f 291 315 312 287
g Group48039
f 15 14 312 315
g Group42959
f 124 121 14 15
g Group48036
f 210 211 208 209
g Group48039
f 43 126 210 209
f 125 75 208 211
g Group42959
f 126 43 75 125
g Group48036
f 275 303 302 274
g Group48039
f 113 127 275 274
f 128 44 302 303
g Group42959
f 127 113 44 128
g Group48036
f 193 206 207 192
g Group48039
f 129 2 206 193
g Group42959
f 129 130 68 2
g Group48036
f 192 207 273 298
g Group48039
f 131 130 192 298
g Group42959
f 130 131 110 68
g Group48036
f 298 273 301 297
g Group48039
f 6 132 297 301
g Group42959
f 131 132 6 110
g Group48036
f 246 247 204 205
g Group48039
f 56 134 246 205
g Group42959
f 134 56 74 133
g Group48036
f 247 313 272 204
g Group48039
f 133 109 313 247
g Group42959
f 133 74 112 109
g Group48036
f 313 314 300 272
g Group48039
f 67 55 300 314
g Group42959
f 109 112 55 67
g Group48036
f 290 289 318 317
g Group48039
f 19 135 318 289
g Group42959
f 91 136 135 19
g Group48036
f 317 318 320 319
g Group48039
f 135 137 320 318
g Group42959
f 136 138 137 135
g Group48036
f 317 319 322 321
g Group42959
f 136 140 139 138
g Group48036
f 290 317 321 250
g Group42959
f 91 104 140 136
g Group48036
f 253 250 321 323
g Group48039
f 141 18 253 323
g Group42959
f 18 141 140 104
g Group48036
f 323 321 322 324
g Group48039
f 142 141 323 324
g Group42959
f 141 142 139 140
g Group48036
f 319 320 326 325
g Group48039
f 137 143 326 320
g Group42959
f 138 144 143 137
g Group48036
f 330 329 328 327
g Group48039
f 145 147 328 329
g Group42959
f 146 148 147 145
g Group48036
f 331 332 334 333
g Group48039
f 152 150 331 333
f 149 151 334 332
g Group42959
f 150 152 151 149
g Group48036
f 338 337 336 335
g Group48039
f 155 156 335 336
f 153 155 336 337
g Group42959
f 154 156 155 153
g Group48036
f 342 341 340 339
g Group48039
f 159 162 342 339
f 161 160 340 341
g Group42959
f 162 159 160 161
g Group48036
f 344 343 329 330
g Group48039
f 157 145 329 343
g Group42959
f 158 146 145 157
g Group48036
f 343 344 325 326
g Group48039
f 143 157 343 326
g Group42959
f 157 143 144 158
g Group48036
f 341 342 337 338
g Group48039
f 162 153 337 342
g Group42959
f 161 154 153 162
g Group48036
f 333 334 339 340
g Group48039
f 160 152 333 340
f 151 159 339 334
g Group42959
f 152 160 159 151
g Group48036
f 319 325 345 322
g Group42959
f 138 139 163 144
g Group48036
f 325 344 346 345
g Group42959
f 144 163 164 158
g Group48036
f 322 345 347 324
g Group48039
f 165 142 324 347
g Group42959
f 139 142 165 163
g Group48036
f 345 346 348 347
g Group48039
f 166 165 347 348
g Group42959
f 163 165 166 164
g Group48036
f 344 330 349 346
g Group42959
f 158 164 167 146
g Group48036
f 346 349 350 348
g Group48039
f 168 166 348 350
g Group42959
f 164 166 168 167
g Group48036
f 330 327 351 349
g Group48039
f 148 169 351 327
g Group42959
f 146 167 169 148
g Group48036
f 349 351 352 350
g Group48039
f 170 168 350 352
g Group42959
f 167 168 170 169
g Group48036
f 353 354 356 355
g Group48039
f 174 172 353 355
f 171 173 356 354
g Group42959
f 172 174 173 171
g Group48036
f 355 356 358 357
g Group48039
f 176 174 355 357
f 173 175 358 356
g Group42959
f 174 176 175 173
g Group48036
f 357 358 360 359
g Group48039
f 178 176 357 359
f 175 177 360 358
g Group42959
f 176 178 177 175
g Group48036
f 359 360 362 361
g Group48039
f 180 178 359 361
g Group42959
f 178 180 179 177
g Group48036
f 361 362 364 363
g Group48039
f 182 180 361 363
f 181 182 363 364
g Group42959
f 180 182 181 179
g Group48036
f 338 335 364 362
g Group48039
f 156 181 364 335
g Group42959
f 154 179 181 156
g Group48036
f 341 338 362 360
g Group48039
f 177 161 341 360
g Group42959
f 161 177 179 154
g Group48036
f 327 328 365 366
g Group48039
f 367 148 327 366
f 147 368 365 328
g Group42959
f 148 367 368 147
g Group48036
f 369 370 332 331
g Group48039
f 150 371 369 331
f 372 149 332 370
g Group42959
f 371 150 149 372
g Group9817
f 372 370 365 368
g Group48036
f 366 365 370 369
g Group48039
f 367 366 369 371
g Group42959
f 368 367 371 372
g Group48036
f 352 351 373 374
g Group48039
f 375 170 352 374
f 169 376 373 351
g Group42959
f 170 375 376 169
g Group48036
f 377 378 354 353
g Group48039
f 172 379 377 353
f 380 171 354 378
g Group42959
f 379 172 171 380
g Group48039
f 380 378 373 376
g Group48036
f 374 373 378 377
g Group48039
f 375 374 377 379
g Group42959
f 376 375 379 380
g Group2952
f 432 431 430
f 383 382 381
f 432 430 433
f 384 383 381
f 432 433 434
f 385 384 381
f 432 434 435
f 386 385 381
f 432 435 436
f 387 386 381
f 432 436 437
f 388 387 381
f 432 437 438
f 389 388 381
f 432 438 439
f 390 389 381
f 432 439 440
f 391 390 381
f 432 440 441
f 392 391 381
f 432 441 442
f 393 392 381
f 432 442 443
f 394 393 381
f 432 443 444
f 395 394 381
f 432 444 445
f 396 395 381
f 432 445 446
f 397 396 381
f 432 446 431
f 382 397 381
f 431 448 447 430
f 382 383 399 398
f 430 447 449 433
f 383 384 400 399
f 433 449 450 434
f 384 385 401 400
f 434 450 451 435
f 385 386 402 401
f 435 451 452 436
f 386 387 403 402
f 436 452 453 437
f 387 388 404 403
f 437 453 454 438
f 388 389 405 404
f 438 454 455 439
f 389 390 406 405
f 439 455 456 440
f 390 391 407 406
f 440 456 457 441
f 391 392 408 407
f 441 457 458 442
f 392 393 409 408
f 442 458 459 443
f 393 394 410 409
f 443 459 460 444
f 394 395 411 410
f 444 460 461 445
f 395 396 412 411
f 445 461 462 446
f 396 397 413 412
f 446 462 448 431
f 397 382 398 413
f 448 463 478 447
f 398 399 415 414
f 447 478 477 449
f 399 400 416 415
f 449 477 476 450
f 400 401 417 416
f 450 476 475 451
f 401 402 418 417
f 451 475 474 452
f 402 403 419 418
f 452 474 473 453
f 403 404 420 419
f 453 473 472 454
f 404 405 421 420
f 454 472 471 455
f 405 406 422 421
f 455 471 470 456
f 406 407 423 422
f 456 470 469 457
f 407 408 424 423
f 457 469 468 458
f 408 409 425 424
f 458 468 467 459
f 409 410 426 425
f 459 467 466 460
f 410 411 427 426
f 460 466 465 461
f 411 412 428 427
f 461 465 464 462
f 412 413 429 428
f 462 464 463 448
f 413 398 414 429
f 464 479 480 463
f 465 483 479 464
f 466 485 483 465
f 467 487 485 466
f 468 489 487 467
f 469 491 489 468
f 470 493 491 469
f 471 495 493 470
f 472 497 495 471
f 473 499 497 472
f 474 501 499 473
f 475 503 501 474
f 476 505 503 475
f 477 507 505 476
f 478 509 507 477
f 463 480 509 478
f 480 479 482 481
f 479 483 484 482
f 483 485 486 484
f 485 487 488 486
f 487 489 490 488
f 489 491 492 490
f 491 493 494 492
f 493 495 496 494
f 495 497 498 496
f 497 499 500 498
f 499 501 502 500
f 501 503 504 502
f 503 505 506 504
f 505 507 508 506
f 507 509 510 508
f 481 510 509 480
f 429 414 511 512
f 428 429 512 513
f 427 428 513 514
f 426 427 514 515
f 425 426 515 516
f 424 425 516 517
f 423 424 517 518
f 422 423 518 519
f 421 422 519 520
f 420 421 520 521
f 419 420 521 522
f 418 419 522 523
f 417 418 523 524
f 416 417 524 525
f 415 416 525 526
f 414 415 526 511
f 527 528 481 482
f 529 527 482 484
f 530 529 484 486
f 531 530 486 488
f 532 531 488 490
f 533 532 490 492
f 534 533 492 494
f 535 534 494 496
f 536 535 496 498
f 537 536 498 500
f 538 537 500 502
f 539 538 502 504
f 540 539 504 506
f 541 540 506 508
f 542 541 508 510
f 528 542 510 481
f 528 527 512 511
f 513 512 527 529
f 514 513 529 530
f 515 514 530 531
f 516 515 531 532
f 517 516 532 533
f 518 517 533 534
f 519 518 534 535
f 520 519 535 536
f 521 520 536 537
f 522 521 537 538
f 523 522 538 539
f 524 523 539 540
f 525 524 540 541
f 526 525 541 542
f 511 526 542 528
f 594 593 592
f 545 544 543
f 594 592 595
f 546 545 543
f 594 595 596
f 547 546 543
f 594 596 597
f 548 547 543
f 594 597 598
f 549 548 543
f 594 598 599
f 550 549 543
f 594 599 600
f 551 550 543
f 594 600 601
f 552 551 543
f 594 601 602
f 553 552 543
f 594 602 603
f 554 553 543
f 594 603 604
f 555 554 543
f 594 604 605
f 556 555 543
f 594 605 606
f 557 556 543
f 594 606 607
f 558 557 543
f 594 607 608
f 559 558 543
f 594 608 593
f 544 559 543
f 593 610 609 592
f 544 545 561 560
f 592 609 611 595
f 545 546 562 561
f 595 611 612 596
f 546 547 563 562
f 596 612 613 597
f 547 548 564 563
f 597 613 614 598
f 548 549 565 564
f 598 614 615 599
f 549 550 566 565
f 599 615 616 600
f 550 551 567 566
f 600 616 617 601
f 551 552 568 567
f 601 617 618 602
f 552 553 569 568
f 602 618 619 603
f 553 554 570 569
f 603 619 620 604
f 554 555 571 570
f 604 620 621 605
f 555 556 572 571
f 605 621 622 606
f 556 557 573 572
f 606 622 623 607
f 557 558 574 573
f 607 623 624 608
f 558 559 575 574
f 608 624 610 593
f 559 544 560 575
f 610 625 640 609
f 560 561 577 576
f 609 640 639 611
f 561 562 578 577
f 611 639 638 612
f 562 563 579 578
f 612 638 637 613
f 563 564 580 579
f 613 637 636 614
f 564 565 581 580
f 614 636 635 615
f 565 566 582 581
f 615 635 634 616
f 566 567 583 582
f 616 634 633 617
f 567 568 584 583
f 617 633 632 618
f 568 569 585 584
f 618 632 631 619
f 569 570 586 585
f 619 631 630 620
f 570 571 587 586
f 620 630 629 621
f 571 572 588 587
f 621 629 628 622
f 572 573 589 588
f 622 628 627 623
f 573 574 590 589
f 623 627 626 624
f 574 575 591 590
f 624 626 625 610
f 575 560 576 591
f 626 641 642 625
f 627 645 641 626
f 628 647 645 627
f 629 649 647 628
f 630 651 649 629
f 631 653 651 630
f 632 655 653 631
f 633 657 655 632
f 634 659 657 633
f 635 661 659 634
f 636 663 661 635
f 637 665 663 636
f 638 667 665 637
f 639 669 667 638
f 640 671 669 639
f 625 642 671 640
f 642 641 644 643
f 641 645 646 644
f 645 647 648 646
f 647 649 650 648
f 649 651 652 650
f 651 653 654 652
f 653 655 656 654
f 655 657 658 656
f 657 659 660 658
f 659 661 662 660
f 661 663 664 662
f 663 665 666 664
f 665 667 668 666
f 667 669 670 668
f 669 671 672 670
f 643 672 671 642
f 591 576 673 674
f 590 591 674 675
f 589 590 675 676
f 588 589 676 677
f 587 588 677 678
f 586 587 678 679
f 585 586 679 680
f 584 585 680 681
f 583 584 681 682
f 582 583 682 683
f 581 582 683 684
f 580 581 684 685
f 579 580 685 686
f 578 579 686 687
f 577 578 687 688
f 576 577 688 673
f 689 690 643 644
f 691 689 644 646
f 692 691 646 648
f 693 692 648 650
f 694 693 650 652
f 695 694 652 654
f 696 695 654 656
f 697 696 656 658
f 698 697 658 660
f 699 698 660 662
f 700 699 662 664
f 701 700 664 666
f 702 701 666 668
f 703 702 668 670
f 704 703 670 672
f 690 704 672 643
f 690 689 674 673
f 675 674 689 691
f 676 675 691 692
f 677 676 692 693
f 678 677 693 694
f 679 678 694 695
f 680 679 695 696
f 681 680 696 697
f 682 681 697 698
f 683 682 698 699
f 684 683 699 700
f 685 684 700 701
f 686 685 701 702
f 687 686 702 703
f 688 687 703 704
f 673 688 704 690
g Group6664
f 747 789 790 748
f 740 786 789 747
f 797 798 780 782
f 798 799 781 780
f 787 788 743 744
f 785 786 740 741
f 787 792 771 769
f 788 787 769 770
f 776 784 725 709
f 717 733 778 770
f 770 778 796 788
f 777 779 800 795
f 778 777 795 796
f 772 771 792 791
f 784 783 726 725
f 735 781 779 736
f 773 772 791 790
f 774 773 790 789
f 726 783 782 727
f 727 782 780 728
f 728 780 781 735
f 736 779 777 734
f 741 756 793 785
f 788 796 760 743
f 766 759 795 800
f 765 766 800 799
f 764 765 799 798
f 763 764 798 797
f 777 778 733 734
f 776 709 710 775
f 719 720 771 772
f 710 711 774 775
f 711 712 773 774
f 712 719 772 773
f 720 718 769 771
f 769 718 717 770
f 751 767 756 741
f 743 760 768 752
f 760 759 762 768
f 758 761 766 765
f 755 758 765 764
f 753 755 764 763
f 754 753 763 757
f 759 766 761 762
f 767 754 757 756
f 741 740 737 751
f 746 745 750 744
f 749 750 745 742
f 752 746 744 743
f 748 749 742 739
f 747 748 739 738
f 740 747 738 737
f 705 721 767 751
f 752 768 729 713
f 762 730 729 768
f 767 721 722 754
f 732 730 762 761
f 731 732 761 758
f 724 731 758 755
f 723 724 755 753
f 757 763 797 794
f 795 759 760 796
f 793 756 757 794
f 750 792 787 744
f 749 791 792 750
f 748 790 791 749
f 775 774 789 786
f 776 775 786 785
f 785 793 784 776
f 793 794 783 784
f 799 800 779 781
f 794 797 782 783
f 722 723 753 754
f 746 752 713 714
f 751 737 706 705
f 716 745 746 714
f 710 709 705 706
f 711 710 706 707
f 717 718 714 713
f 718 720 716 714
f 719 712 708 715
f 712 711 707 708
f 720 719 715 716
f 726 722 721 725
f 727 723 722 726
f 733 729 730 734
f 734 730 732 736
f 735 731 724 728
f 728 724 723 727
f 736 732 731 735
f 713 729 733 717
f 709 725 721 705
f 706 737 738 707
f 707 738 739 708
f 708 739 742 715
f 715 742 745 716
g Group60102
f 801 831 832 806
f 806 832 826 811
f 811 826 835 810
f 810 835 837 809
f 809 837 839 808
f 808 839 841 807
f 818 819 801 806
f 819 825 802 801
f 825 824 807 802
f 824 823 808 807
f 823 822 809 808
f 822 821 810 809
f 821 820 811 810
f 820 818 806 811
f 802 803 812 801
f 802 807 813 803
f 841 854 813 807
f 814 827 856 812
f 803 804 814 812
f 813 815 804 803
f 814 864 865 827
f 804 871 864 814
f 815 870 871 804
f 815 813 854 863
f 816 870 869 860
f 831 801 812 856
f 830 829 832 831
f 829 833 826 832
f 835 826 833 834
f 834 836 837 835
f 836 838 839 837
f 838 840 841 839
f 842 829 830 843
f 843 830 845 844
f 844 845 840 846
f 846 840 838 847
f 847 838 836 848
f 848 836 834 849
f 849 834 833 850
f 850 833 829 842
f 845 830 852 851
f 845 851 853 840
f 841 840 853 854
f 855 852 856 827
f 851 852 855 857
f 853 851 857 858
f 855 827 865 866
f 857 855 866 867
f 858 857 867 868
f 858 863 854 853
f 859 860 869 868
f 831 856 852 830
f 820 821 849 850
f 821 822 848 849
f 822 823 847 848
f 823 824 846 847
f 824 825 844 846
f 825 819 843 844
f 819 818 842 843
f 818 820 850 842
f 817 828 865 864
f 871 805 817 864
f 816 805 871 870
f 815 863 869 870
f 828 861 866 865
f 861 862 867 866
f 862 859 868 867
f 863 858 868 869
f 873 874 875 872
f 877 878 879 876
f 880 881 877 876
f 873 881 880 874
f 882 883 875
f 874 882 875
f 884 876 879 885
f 886 880 876 884
f 882 874 880 886
f 882 887 888 883
f 884 885 890 889
f 891 886 884 889
f 887 882 886 891
f 893 872 875 892
f 895 894 879 878
f 896 894 895 897
f 893 892 896 897
f 883 898 875
f 892 875 898
f 899 885 879 894
f 900 899 894 896
f 898 900 896 892
f 898 883 888 901
f 899 902 890 885
f 903 902 899 900
f 901 903 900 898
f 895 878 904 897
f 893 897 904 872
f 877 881 904 878
f 904 881 873 872
f 859 862 903 901
f 862 861 902 903
f 861 828 890 902
f 828 817 889 890
f 817 805 891 889
f 805 816 887 891
f 816 860 888 887
f 860 859 901 888
f 908 907 906 909
f 910 908 909 911
f 912 910 911 913
f 914 912 913 915
f 916 914 915 917
f 918 916 917 919
f 920 918 919 921
f 907 920 921 906
f 923 922 907 908
f 924 923 908 910
f 925 924 910 912
f 926 925 912 914
f 927 926 914 916
f 928 927 916 918
f 929 928 918 920
f 922 929 920 907
f 923 1039 1038 922
f 924 1040 1039 923
f 925 1041 1040 924
f 926 1042 1041 925
f 926 927 1043 1042
f 927 928 1044 1043
f 928 929 1045 1044
f 929 922 1038 1045
f 939 938 941 940
f 940 941 943 942
f 942 943 945 944
f 944 945 947 946
f 948 951 950 949
f 950 951 953 952
f 955 954 938 939
f 957 956 959 958
f 958 959 961 960
f 960 961 963 962
f 962 963 965 964
f 967 966 969 968
f 969 971 970 968
f 972 956 957 973
f 954 953 970 973
f 972 971 969 980
f 980 969 966 981
f 977 983 982 978
f 978 982 984 979
f 955 979 984 952
f 1013 1012 1021 1020
f 1021 1012 1019 1022
f 1022 1019 1018 988
f 988 1018 1017 1023
f 1023 1017 1016 1024
f 1016 1015 1025 1024
f 1015 1014 1026 1025
f 1014 1013 1020 1026
f 956 930 931 959
f 959 931 932 961
f 961 932 933 963
f 933 934 965 963
f 934 935 981 965
f 935 936 980 981
f 936 937 972 980
f 972 937 930 956
f 994 997 996 995
f 999 998 994 995
f 1001 1000 998 999
f 1003 1002 1000 1001
f 1005 1004 1002 1003
f 1006 1004 1005 1007
f 1008 1006 1007 1009
f 997 1008 1009 996
f 986 997 994 985
f 985 994 998 987
f 987 998 1000 989
f 989 1000 1002 990
f 990 1002 1004 991
f 991 1004 1006 992
f 992 1006 1008 993
f 993 1008 997 986
f 1046 1197 1049 1050
f 1197 1200 1056 1049
f 1200 1202 1055 1056
f 1204 1054 1055 1202
f 1048 1052 1053 1047
f 905 1051 1052 1048
f 1046 1050 1051 905
f 939 940 974 1029
f 940 942 975 974
f 942 944 976 975
f 944 946 1027 976
f 949 950 982 983
f 982 950 952 984
f 979 955 939 1029
f 954 955 952 953
f 938 957 958 941
f 941 958 960 943
f 943 960 962 945
f 945 962 964 947
f 948 967 968 951
f 968 970 953 951
f 973 957 938 954
f 973 970 971 972
f 964 965 981 1010
f 983 977 1011 949
f 946 1011 977 1027
f 1010 981 966 967
f 986 985 1012 1013
f 1012 985 987 1019
f 1019 987 989 1018
f 1018 989 990 1017
f 1017 990 991 1016
f 991 992 1015 1016
f 992 993 1014 1015
f 993 986 1013 1014
f 1021 947 964 1020
f 1022 946 947 1021
f 988 1011 946 1022
f 1023 949 1011 988
f 1024 948 949 1023
f 1025 967 948 1024
f 1026 1010 967 1025
f 1020 964 1010 1026
f 979 1029 1028 978
f 977 978 1028 1027
f 974 975 1028 1029
f 1028 975 976 1027
f 1031 931 930 1030
f 1032 932 931 1031
f 1033 933 932 1032
f 1034 934 933 1033
f 935 934 1034 1035
f 936 935 1035 1036
f 937 936 1036 1037
f 930 937 1037 1030
f 1039 1031 1030 1038
f 1040 1032 1031 1039
f 1041 1033 1032 1040
f 1042 1034 1033 1041
f 1035 1034 1042 1043
f 1036 1035 1043 1044
f 1037 1036 1044 1045
f 1030 1037 1045 1038
f 1053 1054 1204 1047
f 909 906 1050 1049
f 911 909 1049 1056
f 913 911 1056 1055
f 915 913 1055 1054
f 1052 919 917 1053
f 1051 921 919 1052
f 1050 906 921 1051
f 917 915 1054 1053
f 995 996 1058 1057
f 999 995 1057 1059
f 1001 999 1059 1060
f 1003 1001 1060 1061
f 1005 1003 1061 1062
f 1007 1005 1062 1063
f 1009 1007 1063 1064
f 996 1009 1064 1058
f 1057 1058 1065 1066
f 1059 1057 1066 1067
f 1060 1059 1067 1068
f 1061 1060 1068 1069
f 1062 1061 1069 1070
f 1063 1062 1070 1071
f 1064 1063 1071 1072
f 1058 1064 1072 1065
f 1075 1074 1073 1076
f 1078 1077 1074 1075
f 1080 1079 1077 1078
f 1082 1081 1079 1080
f 1084 1083 1081 1082
f 1086 1085 1083 1084
f 1088 1087 1085 1086
f 1076 1073 1087 1088
f 1089 1075 1076 1090
f 1091 1078 1075 1089
f 1092 1080 1078 1091
f 1093 1082 1080 1092
f 1094 1084 1082 1093
f 1095 1086 1084 1094
f 1096 1088 1086 1095
f 1090 1076 1088 1096
f 1089 1090 1098 1097
f 1091 1089 1097 1099
f 1092 1091 1099 1100
f 1093 1092 1100 1101
f 1093 1101 1102 1094
f 1094 1102 1103 1095
f 1095 1103 1104 1096
f 1096 1104 1098 1090
f 1108 1107 1106 1105
f 1107 1110 1109 1106
f 1110 1112 1111 1109
f 1112 1114 1113 1111
f 1115 1118 1117 1116
f 1117 1120 1119 1116
f 1122 1108 1105 1121
f 1126 1125 1124 1123
f 1125 1128 1127 1124
f 1128 1130 1129 1127
f 1130 1132 1131 1129
f 1136 1135 1134 1133
f 1134 1135 1138 1137
f 1139 1140 1126 1123
f 1121 1140 1138 1119
f 1139 1141 1134 1137
f 1141 1142 1133 1134
f 1143 1146 1145 1144
f 1146 1148 1147 1145
f 1122 1120 1147 1148
f 1150 1149 1152 1151
f 1152 1154 1153 1151
f 1154 1156 1155 1153
f 1156 1158 1157 1155
f 1158 1160 1159 1157
f 1159 1160 1162 1161
f 1161 1162 1164 1163
f 1163 1164 1149 1150
f 1123 1124 1166 1165
f 1124 1127 1167 1166
f 1127 1129 1168 1167
f 1168 1129 1131 1169
f 1169 1131 1142 1170
f 1170 1142 1141 1171
f 1171 1141 1139 1172
f 1139 1123 1165 1172
f 1173 1176 1175 1174
f 1178 1176 1173 1177
f 1180 1178 1177 1179
f 1182 1180 1179 1181
f 1184 1182 1181 1183
f 1185 1186 1184 1183
f 1187 1188 1186 1185
f 1174 1175 1188 1187
f 1189 1190 1173 1174
f 1190 1191 1177 1173
f 1191 1192 1179 1177
f 1192 1193 1181 1179
f 1193 1194 1183 1181
f 1194 1195 1185 1183
f 1195 1196 1187 1185
f 1196 1189 1174 1187
f 1046 1199 1198 1197
f 1197 1198 1201 1200
f 1200 1201 1203 1202
f 1204 1202 1203 1205
f 1048 1047 1207 1206
f 905 1048 1206 1208
f 1046 905 1208 1199
f 1108 1210 1209 1107
f 1107 1209 1211 1110
f 1110 1211 1212 1112
f 1112 1212 1213 1114
f 1118 1144 1145 1117
f 1145 1147 1120 1117
f 1148 1210 1108 1122
f 1121 1119 1120 1122
f 1105 1106 1125 1126
f 1106 1109 1128 1125
f 1109 1111 1130 1128
f 1111 1113 1132 1130
f 1115 1116 1135 1136
f 1135 1116 1119 1138
f 1140 1121 1105 1126
f 1140 1139 1137 1138
f 1132 1214 1142 1131
f 1144 1118 1215 1143
f 1114 1213 1143 1215
f 1214 1136 1133 1142
f 1189 1150 1151 1190
f 1151 1153 1191 1190
f 1153 1155 1192 1191
f 1155 1157 1193 1192
f 1157 1159 1194 1193
f 1194 1159 1161 1195
f 1195 1161 1163 1196
f 1196 1163 1150 1189
f 1152 1149 1132 1113
f 1154 1152 1113 1114
f 1156 1154 1114 1215
f 1158 1156 1215 1118
f 1160 1158 1118 1115
f 1162 1160 1115 1136
f 1164 1162 1136 1214
f 1149 1164 1214 1132
f 1148 1146 1216 1210
f 1143 1213 1216 1146
f 1209 1210 1216 1211
f 1216 1213 1212 1211
f 1217 1218 1165 1166
f 1219 1217 1166 1167
f 1220 1219 1167 1168
f 1221 1220 1168 1169
f 1170 1222 1221 1169
f 1171 1223 1222 1170
f 1172 1224 1223 1171
f 1165 1218 1224 1172
f 1097 1098 1218 1217
f 1099 1097 1217 1219
f 1100 1099 1219 1220
f 1101 1100 1220 1221
f 1222 1102 1101 1221
f 1223 1103 1102 1222
f 1224 1104 1103 1223
f 1218 1098 1104 1224
f 1207 1047 1204 1205
f 1074 1198 1199 1073
f 1077 1201 1198 1074
f 1079 1203 1201 1077
f 1081 1205 1203 1079
f 1206 1207 1083 1085
f 1208 1206 1085 1087
f 1199 1208 1087 1073
f 1083 1207 1205 1081
f 1176 1226 1225 1175
f 1178 1227 1226 1176
f 1180 1228 1227 1178
f 1182 1229 1228 1180
f 1184 1230 1229 1182
f 1186 1231 1230 1184
f 1188 1232 1231 1186
f 1175 1225 1232 1188
f 1226 1234 1233 1225
f 1227 1235 1234 1226
f 1228 1236 1235 1227
f 1229 1237 1236 1228
f 1230 1238 1237 1229
f 1231 1239 1238 1230
f 1232 1240 1239 1231
f 1225 1233 1240 1232
f 1068 1067 1235 1236
f 1067 1066 1234 1235
f 1066 1065 1233 1234
f 1065 1072 1240 1233
f 1072 1071 1239 1240
f 1071 1070 1238 1239
f 1070 1069 1237 1238
f 1069 1068 1236 1237

 