# File exported by ZBrush version 2021
# www.zbrush.com
#Vertex Count 802
#Face Count 802
#Auto scale x=0.047110 y=0.047110 z=0.047110
#Auto offset x=-0.029091 y=0.022900 z=-0.434581
v -2.51998328 8.48594775 17.71080069
v -3.24852795 7.45526171 17.83794889
v 1.10641575 24.55067109 14.34542716
v 4.91152279 8.53659485 17.36168481
v 3.64706652 9.11820814 17.58348295
v 5.21623286 8.79477609 18.14208582
v 4.06977604 9.13754566 18.40517038
v -5.1781664 -27.43624965 11.9240707
v -4.07155271 -28.52942646 11.03477599
v -3.89203799 -29.75181186 10.80726763
v -4.5912895 -30.81599505 11.29934623
v -9.93943251 27.94733238 6.78344016
v -8.99492707 28.2970853 6.50742876
v -11.02254834 28.01606381 6.13152421
v -8.56215658 28.79712272 5.60202283
v -7.22569895 29.33469142 9.16106957
v -7.96818912 28.2711459 9.70213942
v -3.45909701 8.30048969 16.64247962
v -2.70215116 8.17629196 17.05786609
v -4.11956754 8.01600911 17.24652957
v -3.27032757 8.30467122 18.49158442
v -2.95933445 12.35019313 16.86812022
v -2.77022562 12.38496244 18.02234607
v -3.73506619 12.23885819 18.92040745
v 0.99397767 25.61374848 14.46465798
v 1.69949116 26.00708039 14.41131502
v 2.01296773 25.15096398 14.62264827
v 1.12195375 23.82904682 15.94182752
v 0.1983142 23.10729349 14.85822268
v 0.28286035 24.89974332 14.0029973
v 4.2530902 8.5447036 17.40494497
v 4.39376004 11.72357875 15.5675358
v 5.55747405 11.63347155 15.71155941
v 4.72614981 8.82370771 18.5146366
v 5.99022366 12.07447794 16.81138111
v 3.67064946 12.18502718 16.2927691
v 4.03449716 12.46598414 17.37382643
v 5.19948492 12.46872333 17.64457376
v 8.13505931 26.97064626 14.22742772
v 7.30664284 28.0500702 13.88501905
v 8.01033083 28.83762472 14.50481868
v 7.93225897 28.93297622 15.62204623
v 8.22794744 26.52730555 15.33329872
v 3.31491051 25.1902539 14.83109525
v 2.63724653 25.08607375 16.69380615
v 7.13094906 28.34838968 16.26052578
v 6.54636442 27.28813624 15.94902342
v 7.42010018 26.66451535 16.08258182
v 5.8884202 26.02542091 15.65961799
v 6.77200501 25.36717874 15.69317713
v 7.455931 25.21457889 14.81146041
v 5.77695875 23.70444359 15.20207527
v 6.44277828 23.50238657 14.18813685
v 6.28204943 24.38015582 13.24509621
v 7.26002924 25.72954076 13.74685401
v 5.52941226 25.45709489 13.41425201
v 6.26375192 26.82898037 13.80662868
v 4.9574576 23.99338278 12.51215777
v 4.66253301 25.13947838 12.90979836
v 4.14765716 25.2513232 13.97412894
v 4.95936808 25.59275607 14.42207692
v 5.58653346 26.69788408 14.83869412
v 3.8368339 24.28782059 14.60893589
v 5.06567158 24.72600429 15.24401898
v 4.13886931 23.16233531 14.21736611
v 2.48165445 24.57741516 13.83341671
v 2.26722174 23.55645164 13.18982159
v 2.67352303 23.43248862 12.04213372
v 4.69838503 23.02332131 13.20001067
v 3.26080336 24.37750141 11.51647463
v -0.17147698 25.4726317 11.68446311
v 0.5225528 26.34689885 11.2216775
v 1.09166321 27.14024804 11.93077823
v 3.41828473 25.43489293 12.21407046
v 0.98342801 27.05774098 13.14605219
v 3.01782082 25.47534938 13.34464949
v 0.29347373 26.16112258 13.614378
v -3.44918439 29.42959504 12.5296272
v -3.92525773 28.43788324 13.06785286
v -4.13136945 27.36202467 12.42916107
v -0.28928546 25.39273604 12.88657632
v -3.81842347 27.33757317 11.14850882
v -8.50089561 28.36810929 10.95120647
v -3.31388505 28.42236667 10.61964447
v -7.32903079 30.59653629 9.81481102
v -3.14300952 29.44814812 11.33691752
v -7.91696951 30.63139037 11.0830456
v -11.78599043 30.54216756 6.61369683
v -8.45322049 29.5288105 11.62456113
v 6.92169614 30.18864431 15.51253763
v 6.08349389 29.47368518 16.10268352
v 5.99253773 27.91402692 15.47568767
v 5.53367887 31.71246921 15.21731603
v 4.71659777 30.67248701 15.78823068
v 4.63502317 29.41983266 14.99585696
v 5.12967015 29.21395469 14.02360857
v 6.2961224 28.12122071 14.56387154
v 3.21476258 30.70460318 14.63075702
v 3.4517806 29.48380941 14.31142204
v 4.23426225 29.20546258 13.34108348
v 4.80899753 30.2273826 12.70351679
v 5.70627352 29.99384455 13.4724983
v 2.28507342 29.24471201 13.36173713
v 3.38472527 29.07294419 12.58356449
v 3.80246756 30.06567574 11.91487956
v 3.11877531 31.15274157 11.91810586
v 4.49358945 31.42786211 13.02839213
v 3.06086873 28.69060698 11.86894474
v 3.36489938 29.62250457 11.11579848
v 2.49307442 30.46849674 10.7089666
v 1.2051838 30.36964313 10.92395109
v 2.07607497 31.29547023 12.65225416
v 3.7807739 28.74630671 10.12024273
v 2.92145145 29.17470526 9.32440941
v 1.76754411 28.81506091 9.33145669
v 1.32120928 28.05282836 10.17772475
v 0.77810163 29.46177699 11.68045128
v 3.82346092 26.82634873 8.32412007
v 2.66422561 26.41548351 8.27841892
v 2.02143722 26.07802087 9.33135056
v 2.59122694 26.19013897 10.50400109
v 2.02317784 27.58185035 11.11840941
v 3.76880214 22.93378726 8.82763979
v 3.00113661 23.23125904 9.86167968
v 3.45343613 23.8197475 10.88160379
v 4.6130537 24.18416929 10.93138042
v 3.81061869 26.64747041 10.57377338
v 3.70715971 20.40464067 12.30150362
v 4.0843165 21.2366864 13.22214999
v 5.33762876 21.53564354 13.32076954
v 6.19245085 21.00361648 12.53629265
v 5.43289423 24.00788212 9.97388425
v 4.13833856 16.90120806 15.61665453
v 5.42773627 16.95106884 15.83616074
v 6.29253488 16.53409137 14.95529297
v 5.87598126 16.04056979 13.7993265
v 5.80143302 20.1870443 11.62997403
v 4.57130041 19.90929339 11.5172812
v 5.05064306 23.34528762 8.87512402
v 4.56735231 15.97644374 13.5619479
v 3.74237469 16.39698784 14.45901165
v 4.44355787 26.95165035 9.44317307
v 3.34299349 27.89299149 11.13441435
v 1.68724334 28.58655335 12.18836481
v 1.6687336 30.3713208 13.36751093
v 3.72435332 31.64715386 13.96841872
v 6.01219345 31.29474906 13.93598436
v 7.12112152 30.05357778 14.32778788
v 6.60730656 29.07581116 13.71163903
v 4.10346296 25.74987526 13.98026333
v 4.36007312 26.2596776 14.82723192
v 3.43000186 27.70923198 14.98696315
v 1.7516241 26.65194926 16.49856229
v 6.94612803 27.95092053 12.08348341
v 6.17691277 29.61399222 12.19524251
v 5.43384947 29.78085609 11.5002361
v 2.79031261 27.80038044 14.38563057
v 9.82311643 31.25361193 9.81041705
v 9.0564278 31.45776921 8.90861984
v 8.51053969 30.78273766 8.05318185
v 5.0425767 29.22919544 10.69417152
v 12.24286006 31.7115785 7.61058287
v 11.03295661 31.74131606 7.08623976
v 10.18679491 30.94491012 6.68267671
v 10.05387291 29.86576452 6.58671063
v 8.52688435 29.55249782 7.75566768
v 11.12302142 31.73802651 4.3543145
v 10.15510322 30.96276227 4.57301382
v 10.07456863 29.68310827 4.96341612
v 10.90911948 28.7898857 5.29939308
v 10.70914246 28.93193621 6.85805214
v 9.75805665 29.38913859 2.70796797
v 9.74587265 28.57441236 3.63404875
v 10.62971177 27.81916632 4.16053577
v 11.85167269 27.70161033 3.95213149
v 12.11269749 28.7170145 5.33416271
v 9.29837003 26.08479229 2.53004552
v 10.21137546 25.84998144 3.13288528
v 11.24881142 25.6830113 2.92694279
v 11.88094339 25.67976476 2.03202357
v 12.63723197 28.23741786 3.16947967
v 9.96079373 23.98625204 3.60562574
v 11.13153378 23.77440733 3.36109362
v 11.68799337 23.28570368 2.43656273
v 10.91444792 22.52436438 3.88356897
v 11.49037218 21.79117099 3.23042181
v 10.22960908 20.36685635 2.37700031
v 10.4108641 22.74176843 0.85455449
v 9.86478495 22.71366552 4.12856827
v 8.85356357 22.18167894 3.90341573
v 8.93844923 23.72968206 2.97219882
v 8.71497405 23.26609035 1.93045355
v 8.56543159 21.31346457 3.33653458
v 9.32643182 22.89627876 1.06803196
v 9.16043905 20.53777396 2.66704277
v 9.02063936 26.24140287 1.40903972
v 9.64232826 26.23460868 0.36693323
v 10.85896075 26.04142585 0.11919633
v 10.55701011 29.74986596 1.91858775
v 11.70246993 29.5716253 1.73499714
v 12.34258287 31.60646208 4.35777454
v 13.02099001 29.46920632 4.96959321
v 12.97908869 29.47691147 7.8410629
v 11.95027073 28.67887087 7.36220862
v 10.52612563 29.11159897 9.94023987
v 10.05329977 28.40181709 9.07412481
v 9.23106007 28.56675023 8.162818
v 6.58111286 27.37425169 11.33640811
v 5.86946478 27.49395095 10.59207089
v 5.22485085 28.27286659 10.3152953
v 3.34382125 25.91077491 13.27770043
v 2.68220476 26.63161223 13.19323925
v 2.48029592 27.37767029 13.6854662
v 1.43846581 26.4914317 14.89390485
v 1.44888815 26.76597783 15.65855648
v 0.52749864 26.01474252 14.90638617
v 0.15832304 25.97876239 15.72280968
v 0.13117402 25.40063097 16.38113599
v -1.03453545 25.33215512 15.11733764
v -1.25709778 24.49403763 15.76742805
v -2.23316743 23.81660724 13.83341671
v -0.30894141 23.1397715 13.13416519
v -0.63644896 23.1982294 11.27898975
v -0.37538114 24.4886453 11.67028355
v -0.03813055 24.54960831 12.90933149
v -1.27212645 25.24907365 11.98480029
v -0.9942895 25.29903944 13.28776204
v -0.37015937 25.461637 14.40689974
v -1.97640877 24.90280007 13.6998368
v -2.44318486 24.91033568 11.86739518
v -2.89858368 23.69705728 11.5108283
v -2.35390511 25.61374848 10.55872368
v -2.45311899 24.75601767 9.64646164
v -2.13231921 26.10860866 8.47086056
v 0.06507389 25.86554102 8.31429205
v -0.41040531 24.29938717 9.58910697
v -0.00542013 26.25734455 9.63803465
v -0.11569312 25.13224136 10.46040138
v -1.01831811 26.57929062 10.20816388
v -1.14255838 25.87216315 11.02216735
v -1.99992797 26.50902828 9.65376365
v -0.98293311 27.75111305 10.47884739
v -2.13096069 27.77611619 9.75624641
v -2.03170442 27.90018802 8.51206174
v -2.16159086 29.09879755 10.08097321
v -2.09462061 29.73048543 8.9266838
v 0.0836261 30.16745959 9.06886057
v 0.05688037 27.92449276 8.55982187
v 0.10064993 29.64644746 10.25055373
v 0.12187668 27.78800413 9.78324684
v -1.02128994 29.04040291 10.80363789
v -0.44101421 30.87337498 11.20070549
v -1.37789935 29.88713903 11.39684069
v -2.48735787 29.91562403 10.65394692
v -2.07010364 30.20055249 12.34890293
v -3.16353601 30.21318185 11.61131578
v -3.5921041 31.35694187 11.15895252
v -2.59877694 30.89006061 9.77269714
v -2.00725118 32.38060282 12.1406258
v -0.65052223 31.85432741 10.36040212
v -1.51476929 31.34019551 12.60109781
v -3.3837422 31.85252321 14.23005968
v -2.53925722 30.93926474 14.17185609
v -2.76281748 29.87194129 13.40402086
v -3.35464041 29.44239646 15.70589189
v -3.43534454 28.82709561 14.50641095
v -4.59411283 28.75286558 13.89592961
v -3.92657387 29.87907203 12.66637014
v -5.74396579 29.28109448 14.45011752
v -4.70979851 30.93455055 12.81455408
v -4.45711526 30.01745089 16.35086704
v -4.64546022 26.56786827 17.36862577
v -3.51076293 26.33327251 16.72982802
v -4.60374964 21.89475903 18.38761556
v -3.47176938 21.82046573 17.664845
v -3.56911549 21.60316542 16.32378136
v -3.56109183 25.94248621 15.42493493
v -4.78757304 21.47629494 15.74919443
v -4.78734025 25.81947715 14.82020556
v -5.90925826 21.56415132 16.50140713
v -5.90081043 26.05641104 15.53259695
v -5.72925579 16.79556279 16.95094674
v -4.30421903 17.03217657 18.97035362
v -3.16527663 17.07435497 18.11659241
v -3.29618188 16.97524705 16.72099747
v -4.01937723 12.22287476 16.36521582
v -4.57821384 16.83873691 16.12461092
v -5.0829857 12.04170387 17.03799782
v 7.41360457 18.78465706 10.6069721
v 7.98311863 17.71896827 10.70104905
v 7.98513475 16.58318922 8.77028513
v 3.60331831 14.76501129 9.93864784
v 3.18973636 15.27954805 8.96780002
v 7.38246515 17.21561852 7.86742662
v 2.69719089 16.32426467 8.73755348
v 6.93458043 18.28126429 7.76649331
v 2.42635879 17.25932403 9.38445988
v 6.67196336 19.18121526 8.51775046
v 2.53053958 17.53368038 10.49941611
v 6.85544706 19.39535127 9.69454024
v 2.93718042 17.01222417 11.42674905
v -2.09009938 15.38788949 10.84899941
v -1.85431241 14.9320662 11.78013202
v -1.41188329 14.01063444 12.08276192
v 3.39024413 15.99590778 11.59995938
v -0.89388696 12.84271645 10.59500018
v -1.09700565 13.27775863 9.65079191
v -1.53083797 14.21905928 9.32152257
v -1.95898157 15.09680703 9.82005402
v -9.1413919 29.13586069 4.63176936
v -8.59868771 26.24736708 5.98582388
v -8.07033229 26.08721138 4.93450538
v -8.45566172 25.96140114 3.86253354
v -9.48360921 25.95479926 3.36695219
v -10.30589129 29.00266161 3.93546832
v -8.27778165 23.91968413 5.4214896
v -8.73933573 23.08305201 4.33565641
v -9.98594047 22.75147008 3.83926881
v -8.76461721 21.83961093 6.76792343
v -9.94635259 21.34855146 6.78165716
v -11.60382255 22.79997328 7.9173943
v -11.64075665 23.89104984 5.34078547
v -8.92222541 19.77197731 9.30976295
v -10.04182998 20.79362151 10.95318036
v -9.48647492 21.77321256 11.38607863
v -11.08213227 23.9192818 8.47315305
v -7.05032337 17.98277401 13.46700063
v -6.54115743 18.86009665 13.8485515
v -5.7126562 19.52205348 13.51051541
v -8.4463643 22.33204949 11.17882063
v -3.53220196 15.45222683 14.91536539
v -3.05220171 16.2405468 15.24238495
v -2.45823457 16.92012047 14.86098274
v -2.07655654 17.14338372 13.92212332
v -5.02520659 19.58229533 12.57806682
v 0.51463523 13.98057678 15.5198183
v 0.88209149 14.81523391 14.97416362
v 0.83683606 15.09962972 14.00582031
v 0.48341069 14.77038211 13.19761182
v -2.16974199 16.70711049 12.93688372
v 4.73922547 13.00894392 13.02879574
v 4.43899425 13.52823535 12.14393718
v 3.81333574 13.28446679 11.29940981
v 3.24169928 12.42145118 11.01199963
v 0.01217684 14.04752552 12.92249192
v 8.10298616 12.01062897 9.62101077
v 7.36879516 11.76588367 8.74116202
v 6.70028009 10.82078358 8.44006054
v 6.53581507 9.71022212 8.92702343
v 3.06084754 11.46563221 11.43816918
v 9.34129048 10.8368948 7.16647687
v 8.33760534 10.03647686 7.18715171
v 8.13900741 8.97100063 7.72348794
v 8.56226919 9.53832777 6.18319013
v 8.3610181 8.4362135 6.81001596
v 10.50474986 7.31363694 7.30979987
v 10.05784188 8.32596158 9.03218075
v 7.40723676 7.59697187 5.48510609
v 9.25572603 5.8982585 5.00519029
v 10.06365806 6.29541135 3.99543403
v 11.49988152 7.91702834 6.82275207
v 6.43227069 4.12448764 2.57158625
v 6.97408354 4.26744973 1.27318812
v 6.87034874 5.29885758 0.2679531
v 10.14370429 7.36625778 3.20473735
v 3.25560302 2.79548085 1.84883657
v 3.37215886 2.81087027 0.44767975
v 3.01363929 3.66246638 -0.4758959
v 2.45081188 4.84507191 -0.52085397
v 6.21482425 6.56660403 0.26799549
v -0.2294473 1.2844123 1.24459558
v -0.82778686 1.95290634 0.38408446
v -1.38460688 3.05546628 0.33532695
v -1.5905489 3.98014583 1.15888247
v 2.01659763 5.7280627 0.35171399
v -4.50440829 -0.11837865 2.34687939
v -5.22408034 0.97549935 2.3626509
v -5.20637685 2.02609621 3.17098717
v -4.49946257 2.3395304 4.2322183
v -1.30398767 4.17589893 2.40054086
v -7.81718217 -1.15662145 5.58007455
v -7.70726997 -0.05824328 6.19894045
v -6.86253036 0.46911412 6.98776888
v -5.7450273 0.10061771 7.524466
v -3.57911321 1.79374809 4.91595324
v -9.19987131 -0.98156439 9.39513695
v -8.11093929 -0.34486807 9.77104145
v -6.78290925 -0.67791575 9.79810554
v -7.37284258 -1.34016913 12.41283793
v -6.23710528 -1.38247405 11.80577393
v -5.92375633 -3.60971206 10.68164781
v -6.29896027 -2.97938365 9.06563411
v -4.17068151 -2.76234018 13.75721262
v -4.48993172 -4.58924144 12.16749892
v -5.32853694 -5.46338017 12.60080048
v -7.07261136 -4.34190751 10.86663885
v -1.63992225 -6.54456465 12.77851101
v -2.40143189 -7.52952844 13.29260148
v -2.83295044 -7.80980661 14.51432834
v -6.04031217 -5.62466128 13.6603552
v 2.02309291 -9.13227541 13.60834958
v 1.32294982 -10.03405145 14.10393029
v 1.01894036 -10.42016595 15.29114246
v 1.3218248 -10.02638869 16.52723961
v -2.69985891 -7.25398405 15.67175961
v 3.86884379 -12.45235147 13.34023453
v 3.93821288 -13.03727583 14.55550848
v 4.66679962 -12.84704095 15.61419242
v 5.56679266 -12.09981762 15.95303477
v 2.08808927 -9.06167527 17.04589401
v 6.58357496 -15.85924454 12.64370005
v 7.43262388 -15.82492058 13.62184972
v 8.45244175 -15.14596182 13.91443936
v 9.10510054 -14.19831485 13.39283448
v 6.21870845 -11.19320152 15.47152765
v 9.01522678 -13.48946923 12.33005347
v 1.0802432 -20.73229031 7.53155562
v 1.81959212 -21.42485518 8.46377086
v 2.77649396 -22.42331942 8.42779153
v -2.571628 -24.1786226 7.75396961
v -1.79443178 -24.92160114 8.76423551
v -0.90129509 -25.89871237 8.73594025
v -0.23424451 -26.58875188 7.739599
v 3.28275196 -23.23212192 7.47248173
v 3.20090155 -23.14829904 6.14814468
v -0.27187953 -26.50066017 6.41543197
v -0.88915332 -25.76791214 5.58264293
v 2.43000972 -22.41361776 5.27147996
v -1.70963089 -24.8771947 5.56322033
v 1.61613372 -21.49087146 5.348533
v 6.40011214 -15.14906159 11.53250076
v 7.07514432 -14.11739817 10.9602064
v 4.59732457 -11.40306996 12.74826294
v 6.27580877 -10.57531204 14.3884327
v 3.07464485 -7.72855021 15.24769126
v 2.81913843 -8.09335347 16.50346563
v -0.92281905 -5.0082151 14.51969885
v -1.3798734 -5.32780502 15.66006335
v -2.10559475 -6.23785934 16.12216969
v -4.89725182 -2.87445986 14.88214532
v -5.82188899 -3.79275009 15.34117404
v -6.28828314 -4.95913876 14.79479756
v -8.32768544 -2.11723803 12.59918733
v -8.66854454 -3.24166133 12.22387712
v -8.19357477 -4.14354332 11.50409942
v -9.44947693 -2.18834758 9.0065813
v -8.75154123 -3.26554127 8.81800287
v -7.45936289 -3.59846179 8.83447479
v -7.12924482 -2.20172041 5.4455394
v -6.02396752 -2.64756703 5.91397118
v -5.1135311 -2.18633099 6.75060235
v -3.56166497 -0.59067383 3.07862916
v -2.92910757 -0.242449 4.100082
v 0.08090905 1.4277353 2.44898017
v -0.67769252 3.49415922 3.31273909
v 2.28399087 4.87143578 2.76649039
v 1.955974 5.75941467 1.73472133
v 5.05877269 6.01995173 3.31392775
v 4.97717721 6.96483926 2.43269941
v 5.43552651 7.22257451 1.21591826
v 7.5636139 8.72307205 4.66021324
v 8.4307269 9.07479932 3.67147121
v 9.47304531 8.50163449 3.07077535
v 9.67249157 10.16863467 5.80556616
v 10.94894079 9.92758379 5.83950771
v 11.66387968 8.98473388 6.19951359
v 10.50515346 10.96406514 7.77636387
v 11.11262011 10.30964391 8.64046231
v 10.94416524 9.21606287 9.14765427
v 8.51202505 11.43400315 10.5466881
v 8.35796135 10.37871568 11.00312685
v 7.73735483 9.43883775 10.73133952
v 4.54115861 12.05450403 13.44218664
v 3.9697132 11.21405222 13.14677399
v -0.04908353 13.13337507 15.15240428
v -0.34797742 13.28756656 13.29913946
v -3.33396556 15.11461617 13.06742838
v -2.71435667 15.83233473 12.56569146
v -6.35667612 17.32574265 11.61628284
v -5.49769274 17.99480998 11.18049767
v -4.92781809 18.95334663 11.59091675
v -7.83970359 20.35376013 9.03107697
v -7.24408123 21.36890873 9.51052555
v -7.51748171 22.18212683 10.41826623
v -8.22102103 22.87764217 7.2114563
v -8.56986173 23.92450206 7.95660017
v -9.78101774 24.4206148 8.52923416
v -8.80293102 24.71746916 6.33697802
v -9.87749338 24.97359126 6.7085946
v -11.03967932 24.64139444 6.34793096
v -9.73482798 26.30446614 6.33033407
v -10.73603077 26.23359144 5.8100874
v -11.07922482 26.1113238 4.73234176
v -11.36892693 28.40653127 4.72011506
v -1.27057688 5.96151408 3.9613862
v -1.98517543 5.02259139 3.94790726
v -2.45195152 4.295936 4.76405464
v 1.81464625 2.13927725 3.53557786
v 1.3343274 1.40714538 4.33550775
v 1.92114079 1.88952328 6.42065382
v -1.81517036 4.84031724 6.84733262
v 4.84472239 -1.35765998 3.84637993
v 5.22347114 -0.77441255 6.10129733
v 6.03783552 0.2731487 6.20339811
v 2.67912681 2.84912081 6.48660525
v 6.85205123 -1.90921585 6.03375394
v 7.51455907 -0.97693695 6.10957562
v 8.34760305 -0.45783683 5.39557172
v 6.64226692 1.02228313 5.31520698
v 7.65575936 -2.62661621 7.44083259
v 8.46505023 -1.59100564 7.61047675
v 9.55493811 -1.27977901 7.13864851
v 10.38683581 -1.80989585 6.46056021
v 8.93539311 -0.64594829 4.17819624
v 9.09198281 -2.42861309 9.19208185
v 10.45353024 -2.20910735 9.38293156
v 11.536307 -2.85036736 8.99267778
v 11.62533117 -3.93912984 8.27619009
v 10.52213451 -2.85955866 5.90647827
v 9.27510593 -3.76751163 10.94999629
v 10.13168982 -4.65071434 10.82671142
v 10.37229535 -5.54915749 10.02724832
v 9.86155866 -5.97309837 8.9939726
v 10.65771029 -4.75003418 7.70092397
v 7.07491089 -7.22384225 12.51869544
v 7.46467615 -8.10379717 11.58064306
v 7.2616 -8.23839557 10.27564377
v 6.64721264 -7.54829281 9.35204663
v 8.72722194 -5.79156689 8.36169143
v 3.6051864 -10.58715696 11.96183288
v 3.55262882 -10.7281662 10.66903901
v 2.9731811 -10.07085839 9.67987255
v -0.36311205 -13.62396136 11.2012149
v -0.86968834 -12.96786372 10.17857379
v -2.11631427 -10.94121919 10.87657298
v 1.70560443 -8.13245297 10.49843969
v -2.11175033 -10.79435075 12.1995727
v -0.89462979 -12.59285083 13.35052956
v -1.62094564 -11.47547557 13.21482694
v -0.36593522 -13.47074661 12.5062992
v 3.11922098 -9.76128737 12.81899055
v 6.29245011 -6.12832923 12.50655383
v 2.37197583 -8.70680647 12.77222797
v 5.62627 -5.47197697 11.56860757
v 1.78066231 -8.023496 11.82035678
v 5.48791391 -5.5889576 10.254884
v 8.24408017 -3.42616415 10.34027922
v 7.48603042 -3.9288987 9.35809626
v 8.27604767 -3.26242094 8.54969677
v 9.32796019 -4.7779685 7.56167639
v 8.78793065 -4.25050505 6.07332062
v 9.89443837 -3.86082424 5.77251627
v 7.19032044 -3.2144273 3.89307831
v 8.09965359 -2.67781526 3.00270121
v 8.88020326 -1.56483305 3.16608384
v 5.40920533 -0.59186252 3.04379659
v 6.1646225 0.39649738 3.12422427
v 6.68170614 1.05824127 4.05323433
v 2.54427331 3.07998294 3.57246957
v 3.11385079 3.69464612 4.43896705
v 3.17935655 3.60506905 5.65521712
v -0.70242166 6.59260668 4.79517286
v -0.62296993 6.55049281 6.00008821
v -1.0860527 5.81867977 6.86091784
v -5.44579371 -19.94539371 6.40252616
v -4.32132787 -19.497063 7.28356362
v -3.40537228 -18.2906838 7.27594325
v -1.58061476 -21.36949579 5.09126493
v -0.80931965 -20.28873705 5.07332833
v -0.58038911 -19.309313 4.18180494
v -3.34177699 -17.05099914 6.42835896
v -1.7940285 -19.6398777 2.26736455
v -5.17538609 -17.102177 4.44660862
v -5.99193676 -18.24436689 4.47067961
v -6.11182516 -19.39814739 5.25572964
v -2.48529873 -20.67279241 2.32336034
v -2.73010698 -21.58902287 3.12838492
v -2.37549281 -21.88914908 4.26168099
v 0.50816107 -23.56525499 2.19020491
v 0.52314716 -23.64625645 3.33776563
v 1.02753716 -23.00147361 4.1937979
v 3.05127431 -25.31342744 3.5648492
v 3.37640428 -24.56781473 4.52898947
v 4.24871762 -23.49841127 4.72578258
v 1.73211665 -21.97566939 4.23313115
v 5.3392631 -22.5939612 3.89766344
v 2.22031065 -21.17764904 3.39758236
v 5.20840024 -23.75043661 1.62328075
v 1.68117246 -21.81670046 1.38322748
v 4.23182102 -24.78560088 1.63569881
v 0.98293979 -22.82074808 1.39212193
v 3.39206983 -25.39101029 2.401114
v 6.56224221 -27.06930249 2.66528096
v 5.34113119 -27.49082334 3.22377818
v 4.64311072 -27.26374041 4.49027206
v 6.84370905 -30.9026849 5.05626187
v 6.0241864 -30.48430431 6.20065987
v 6.16498371 -29.34593663 7.30317711
v 4.95091962 -26.38418973 5.70586422
v 7.37064174 -28.2537973 7.63346536
v 6.16090783 -25.48863158 6.03931518
v 8.83704938 -28.13110708 6.99084666
v 7.39664439 -25.15611593 5.30516688
v 9.21138285 -29.7867292 4.86142162
v 7.5744612 -26.25982184 3.00471796
v 8.13276674 -30.59859099 4.53973018
v 10.57131713 -31.84409183 7.14720293
v 9.6834869 -33.03130179 7.07486218
v 8.28239461 -33.3528025 7.31654994
v 10.52292021 -32.83376664 10.99202524
v 9.04836144 -33.23480369 10.57347622
v 7.71748719 -32.58532944 10.14172415
v 7.04576671 -32.51366778 7.80968974
v 7.20885138 -31.19953926 9.99061092
v 6.96518973 -30.77557909 8.4376832
v 8.06524486 -29.74491392 10.22852036
v 8.12349084 -29.53572362 8.61874734
v 9.81074138 -29.36283229 10.72197852
v 9.5546623 -29.47611945 8.29620686
v 11.32002772 -31.62685479 11.21586132
v 8.337754 -31.31004802 14.23965442
v 7.95594819 -32.58456525 13.79168493
v 4.48599027 -30.96003953 15.74233824
v 4.23604525 -32.24379029 15.23777831
v 3.86355836 -32.83971061 13.99529184
v 7.22659726 -33.1542906 12.71478825
v 3.55725634 -32.35034905 12.57904325
v 6.33112514 -32.66770998 11.62228992
v 3.52410017 -30.90119954 11.90282272
v 5.91569693 -31.13526645 11.05407112
v 3.80785926 -29.41594086 12.52075457
v 6.51174377 -29.60636552 11.61239832
v 4.2218445 -28.95731638 13.97941437
v 7.49982756 -29.23559995 12.7839451
v 0.16329007 -28.54568697 14.46187704
v 0.07142071 -30.46573099 16.23405626
v -3.90371274 -29.81795466 15.70527636
v -3.85554925 -31.12274084 15.25841077
v -0.10257491 -31.71214531 15.73696805
v -3.32534757 -31.77703555 14.10475837
v -0.21947062 -32.31889079 14.49711353
v -2.69756634 -31.35018563 12.88886889
v -0.18134738 -31.87690639 13.08186256
v -2.27704312 -30.11816436 12.32149905
v -0.02849362 -30.48328708 12.4071489
v -2.25929756 -28.77302548 12.81215524
v 0.10920431 -29.03806227 13.02665183
v -2.68359902 -28.13635012 14.0913642
v -6.71247864 -29.12812771 13.25899964
v -6.56036779 -30.38954999 12.88526019
v -5.72982893 -31.07973626 12.0996794
v 8.65140027 -19.35749737 7.78960923
v 8.82231787 -18.14740351 7.10876134
v 8.15658311 -16.71463978 7.18004074
v 6.81496784 -17.20062701 9.32527971
v 7.2059648 -18.40431004 9.50768117
v 6.86351343 -16.34491295 8.62169785
v 7.68762058 -19.37551906 8.67544402
v 9.86287448 -18.70038124 9.47601085
v 10.2514302 -17.64018979 8.71887391
v 9.74880162 -16.4164038 8.51683776
v 7.57643494 -18.0052695 10.30120075
v 7.22311602 -16.85696483 9.84777614
v 7.55412607 -15.95289686 9.25743901
v 8.44949127 -18.77505663 10.09139556
v 7.35402127 -18.75208922 5.99155498
v 7.54788541 -19.91113427 6.88029774
v 6.54048497 -17.34702732 6.09690324
v 6.95402423 -19.90353414 7.90958288
v 5.64976785 -16.95963939 7.97381505
v 6.52764243 -18.88991518 8.85190195
v 5.91796798 -17.76179826 8.7559146
v 8.71652394 -17.66604442 11.97448406
v 10.03640285 -17.26449749 12.00375571
v 10.69407125 -16.23633744 11.49187272
v 10.33187939 -15.17086121 10.73592449
v 7.92071201 -15.16171245 10.19050324
v 7.29647559 -16.13962837 10.68754876
v 7.64835153 -17.21699254 11.43494257
v 8.794914 -18.30242245 11.09987847
v 10.11683116 -17.88361801 11.13933887
v 7.76717843 -17.79990014 10.70438162
v 7.91200861 -15.75875754 9.57885447
v 7.43366389 -16.68243884 10.11285579
v 10.72748236 -16.81018106 10.63061861
v 10.29615484 -15.72891244 9.90789028
v -3.35996822 -15.33812741 11.19773367
v -3.60515856 -14.71208743 10.18833815
v -4.85552004 -12.52535046 10.81429367
v -5.02645915 -12.54899602 12.15221578
v -4.64272199 -13.3324968 13.09028951
v -4.05072921 -14.43183013 13.16059233
v -3.56132526 -15.24027205 12.38753557
v -5.62509588 -18.36344873 8.63683253
v -6.86074767 -18.63788984 8.06632116
v -4.77063438 -17.1851737 8.62082759
v -4.75921456 -16.0512621 8.00372349
v -6.92799374 -15.67119722 6.47819949
v -7.77271247 -16.79474926 6.53273112
v -7.73102307 -18.0044838 7.20861194
v -4.16174499 -15.04626051 9.88396775
v -6.05188064 -13.47078963 9.80910099
v -7.0021175 -13.86509701 10.89540109
v -6.85936796 -14.8546668 11.6200187
v -5.96665527 -15.80036154 11.94754736
v -4.74562934 -16.15000817 11.57266178
v -4.0467596 -15.78877219 10.76871991
v -6.51848735 -16.75851609 10.89480676
v -7.52049608 -15.91330962 10.6274347
v -4.72230071 -15.64886621 8.93793397
v -4.6362267 -16.49279988 9.81786765
v -6.59626188 -14.28630029 8.75387686
v -7.57731995 -14.8771471 9.77751559
v -5.28334544 -16.99419615 10.57003753
v -6.26856353 -31.00236596 10.91968448
v -4.94271977 -30.68164968 10.55494528
v -7.43520682 -30.37052878 11.15460098
v -7.98109556 -29.21481757 11.09503871
v -6.33024835 -27.36221192 10.40349242
v -4.56696357 -28.30667308 10.64783357
v -4.37017047 -29.69743048 10.42658714
v -4.50540622 -30.12716509 9.17242589
v -4.25144922 -29.05470488 9.61772063
v -4.81707844 -27.52947812 9.65996185
v -6.25003259 -26.97204305 8.82218451
v -5.3207679 -30.64443977 8.61541477
v -6.70122837 -30.24408088 8.04244114
v -7.38956932 -28.92751303 7.89438451
v -4.33533726 -26.95102787 9.10895791
v -3.47444404 -28.12890055 9.16830789
v -5.02648003 -26.26374906 8.05375499
v -3.08291665 -29.11218603 8.36977883
v -3.4799629 -29.44011908 7.27290768
v -4.51175285 -28.96092477 6.36905148
v -5.33932035 -27.78782953 6.37682052
v -6.26830859 11.99362578 11.56085972
v -3.85438177 11.3103577 10.63193475
v -3.17752421 11.98751227 9.44325797
v -3.65446802 12.93335504 9.05249475
v -4.65819617 13.43986782 9.14035227
v -6.57641512 13.04243916 10.86566242
v -5.76366389 13.61517951 9.78297087
v -4.59003726 9.89338762 8.25078169
v -4.7012229 10.78771345 7.61158049
v -5.50580149 11.50770307 7.55274003
v -6.68397087 11.87989326 8.08710221
v -7.68041835 11.37408014 9.14476743
v -7.72382717 10.01921999 9.63045669
v -5.32427065 9.38993158 9.35951846
v -4.48076177 7.01644097 7.2430417
v -4.88477049 7.28527783 4.16749792
v -4.17628545 8.22836117 4.22230536
v -5.39714185 6.48789514 4.97105769
v -3.52776581 8.88312147 6.20872592
v -3.82451579 8.10681723 7.14215094
v -3.57936783 8.83222006 5.05099764
v -4.55677481 9.23111321 7.67400847
v -4.49451685 10.04666562 6.84236555
v -4.9910528 10.47801464 6.05058665
v -5.91085053 10.29745991 5.53634752
v -6.89596234 9.4106273 5.82407591
v -7.37710951 8.44362195 6.51572824
v -5.27009993 8.28316892 8.09572028
v 11.6765938 21.61751547 3.85147431
v 10.46724262 19.99765965 3.74930964
v 11.17063265 22.50101614 4.45768904
v 10.08590367 22.7344884 4.89300703
v 9.1088791 22.02046299 4.95804593
v 8.9447753 21.0032774 4.64006915
v 9.49989693 20.1762824 4.15991992
v 10.6877882 19.27410339 5.77841722
v 9.70424715 19.54119995 5.9516062
v 9.14918878 20.31003311 6.28866586
v 9.10512205 21.22505403 6.79706777
v 11.84961292 20.87022761 6.64026567
v 11.17186497 21.76245066 7.00593891
v 9.91035855 22.09484232 6.91411198
v 10.08719861 19.06056203 9.86061833
v 9.19232115 19.94979412 9.88156914
v 9.86839334 17.92924032 7.77139681
v 8.85434927 18.43980812 7.17689922
v 8.17787411 19.18276515 7.31735651
v 7.86989473 19.88070084 8.0511016
v 8.24374046 20.26384272 9.0915732
v 10.70285942 18.90518251 6.54162493
v 9.69339985 19.33145802 6.3769268
v 9.10811491 20.06454513 6.64905352
v 8.9633695 20.8330177 7.18659977
v 11.18283816 20.02633696 8.42885289
v 10.38309964 20.9698024 8.48540094
v 9.47926447 21.3875023 7.76895574
v -8.65918386 29.64627792 8.34095285
v -9.41481389 28.85747085 8.61736762
v -9.19985043 30.94904989 8.4590585
v -10.42051325 31.41123974 8.69744057
v -11.4798532 31.19877761 8.72058009
v -11.36771359 29.5773466 9.07853563
v -10.60988145 31.07452864 7.34156746
v -9.58433027 30.47898283 7.29417702
v -9.25414831 29.13660211 7.26305848
v -11.77479456 29.36757177 7.93323168
v -10.03885926 28.56023439 7.44354963
g Group23726
f 41 39 40
f 47 48 46
f 42 43 39 41
f 46 48 43 42
f 97 149 40 57
f 62 92 97 57
f 62 49 47 92
f 576 574 573 572
f 644 642 11 10
f 646 644 10 9
f 651 11 642 640
f 650 651 640 638
f 649 650 638 637
f 648 637 636 635
f 648 8 649 637
f 18 19 2 20
f 20 2 21
f 1 19 22 23
f 1 23 24 21
f 1 21 2 19
f 3 25 26 27
f 29 30 25 3
f 3 27 28 29
f 4 31 32 33
f 4 6 34 31
f 4 33 35 6
f 5 31 34 7
f 5 36 32 31
f 5 7 37 36
f 6 35 38 34
f 7 34 38 37
f 44 45 28 27
f 48 47 49 50
f 48 50 51 43
f 51 50 52 53
f 51 53 54 55
f 51 55 39 43
f 55 54 56 57
f 55 57 40 39
f 56 54 58 59
f 56 59 60 61
f 56 61 62 57
f 61 60 63 64
f 61 64 49 62
f 64 63 65 52
f 64 52 50 49
f 65 63 66 67
f 65 67 68 69
f 65 69 53 52
f 69 68 70 58
f 69 58 54 53
f 70 68 71 72
f 70 72 73 74
f 70 74 59 58
f 74 73 75 76
f 74 76 60 59
f 76 75 77 66
f 76 66 63 60
f 77 75 78 79
f 77 79 80 81
f 77 81 67 66
f 81 80 82 71
f 81 71 68 67
f 82 80 83 17
f 82 17 16 84
f 82 84 72 71
f 84 16 85 86
f 84 86 73 72
f 86 85 87 78
f 86 78 75 73
f 87 89 79 78
f 89 83 80 79
f 46 42 90 91
f 46 91 92 47
f 91 90 93 94
f 91 94 95 92
f 95 96 97 92
f 95 94 98 99
f 95 99 100 96
f 100 101 102 96
f 100 99 103 104
f 100 104 105 101
f 105 106 107 101
f 105 104 108 109
f 105 109 110 106
f 110 111 112 106
f 110 109 113 114
f 110 114 115 111
f 115 116 117 111
f 115 114 118 119
f 115 119 120 116
f 120 121 122 116
f 120 119 123 124
f 120 124 125 121
f 125 126 127 121
f 125 124 128 129
f 125 129 130 126
f 130 131 132 126
f 130 129 133 134
f 130 134 135 131
f 135 136 137 131
f 135 134 38 35
f 135 35 33 136
f 137 138 123 139
f 137 139 132 131
f 137 136 140 138
f 140 141 128 138
f 140 136 33 32
f 140 32 36 141
f 141 133 129 128
f 141 36 37 133
f 139 123 119 118
f 139 118 142 132
f 142 118 114 113
f 142 113 143 127
f 142 127 126 132
f 143 113 109 108
f 143 108 144 122
f 143 122 121 127
f 144 108 104 103
f 144 103 145 117
f 144 117 116 122
f 145 103 99 98
f 145 98 146 112
f 145 112 111 117
f 146 98 94 93
f 146 93 147 107
f 146 107 106 112
f 147 93 90 148
f 147 148 149 102
f 147 102 101 107
f 148 90 42 41
f 148 41 40 149
f 138 128 124 123
f 134 133 37 38
f 102 149 97 96
f 45 153 218 28
f 45 44 150 151
f 45 151 152 153
f 315 494 88
f 152 151 154 155
f 155 156 157 152
f 155 158 159 156
f 159 160 161 156
f 159 158 162 163
f 159 163 164 160
f 164 165 166 160
f 164 163 167 168
f 164 168 169 165
f 169 170 171 165
f 169 168 172 173
f 169 173 174 170
f 174 175 176 170
f 174 173 177 178
f 174 178 179 175
f 179 180 181 175
f 179 178 182 183
f 179 183 184 180
f 184 188 198 180
f 184 183 185 186
f 184 186 187 188
f 190 189 182 191
f 190 191 192 193
f 193 192 194 195
f 195 194 188 187
f 194 192 196 197
f 194 197 198 188
f 198 197 199 200
f 200 201 202 181
f 200 181 180 198
f 202 201 162 203
f 202 203 204 176
f 202 176 175 181
f 204 203 205 206
f 204 206 207 171
f 204 171 170 176
f 207 206 208 209
f 207 209 210 166
f 207 166 165 171
f 210 209 211 212
f 210 212 213 161
f 210 161 160 166
f 213 212 26 214
f 213 214 215 157
f 213 157 156 161
f 215 214 216 217
f 215 217 218 153
f 215 153 152 157
f 218 217 219 220
f 783 784 791 788
f 784 779 790 791
f 779 778 789 790
f 220 221 222 29
f 220 29 28 218
f 222 221 231 223
f 222 223 224 225
f 222 225 30 29
f 225 224 226 227
f 225 227 228 30
f 228 227 229 219
f 228 219 217 216
f 228 216 25 30
f 229 227 226 230
f 229 230 231 221
f 229 221 220 219
f 231 230 232 233
f 778 780 785 789
f 781 782 787 786
f 780 781 786 785
f 233 234 235 236
f 233 236 223 231
f 236 235 237 238
f 236 238 224 223
f 238 237 239 240
f 238 240 226 224
f 240 239 241 232
f 240 232 230 226
f 241 239 242 243
f 241 243 244 234
f 241 234 233 232
f 244 243 245 246
f 788 787 782 783
f 774 788 791 777
f 244 246 247 248
f 244 248 235 234
f 248 247 249 250
f 248 250 237 235
f 250 249 251 242
f 250 242 239 237
f 251 249 252 253
f 251 253 254 245
f 251 245 243 242
f 254 253 255 256
f 254 256 257 258
f 254 258 246 245
f 777 791 790 776
f 776 790 789 775
f 258 257 259 260
f 258 260 247 246
f 260 259 261 252
f 260 252 249 247
f 261 259 262 263
f 261 263 264 255
f 261 255 253 252
f 264 263 265 266
f 264 266 267 268
f 264 268 256 255
f 268 267 269 270
f 268 270 257 256
f 775 789 785 771
f 773 787 788 774
f 270 269 271 262
f 270 262 259 257
f 271 269 281 272
f 271 272 273 265
f 271 265 263 262
f 273 272 274 275
f 273 275 276 277
f 273 277 266 265
f 277 276 278 279
f 277 279 267 266
f 279 278 280 281
f 279 281 269 267
f 772 786 787 773
f 771 785 786 772
f 300 289 779 784
f 280 282 283 274
f 280 274 272 281
f 283 282 288 24
f 283 24 23 284
f 283 284 275 274
f 284 23 22 285
f 284 285 276 275
f 285 22 286 287
f 285 287 278 276
f 287 286 288 282
f 287 282 280 278
f 288 286 18 20
f 298 300 784 783
f 296 298 783 782
f 286 22 19 18
f 288 20 21 24
f 216 214 26 25
f 212 211 27 26
f 211 150 44 27
f 211 209 208 150
f 208 154 151 150
f 208 206 205 154
f 205 158 155 154
f 205 203 162 158
f 294 296 782 781
f 291 294 781 780
f 201 167 163 162
f 201 200 199 167
f 199 172 168 167
f 199 197 196 172
f 196 177 173 172
f 196 192 191 177
f 191 182 178 177
f 189 185 183 182
f 778 290 291 780
f 291 292 293 294
f 294 293 295 296
f 296 295 297 298
f 298 297 299 300
f 300 299 301 289
f 301 299 302 303
f 301 303 304 305
f 301 305 290 289
f 305 304 306 292
f 305 292 291 290
f 778 779 289 290
f 306 307 293 292
f 307 308 295 293
f 308 309 297 295
f 309 302 299 297
f 15 13 311 312
f 15 312 313 310
f 313 314 315 310
f 313 312 316 317
f 313 317 318 314
f 766 767 777 776
f 318 317 319 320
f 764 766 776 775
f 320 321 322 318
f 765 764 775 771
f 320 323 324 321
f 324 325 326 321
f 324 323 479 327
f 324 327 328 325
f 328 329 330 325
f 328 327 331 332
f 328 332 333 329
f 333 334 335 329
f 333 332 336 337
f 333 337 338 334
f 338 339 340 334
f 338 337 341 342
f 338 342 343 339
f 343 344 345 339
f 343 342 346 347
f 343 347 348 344
f 348 349 350 344
f 348 347 351 352
f 348 352 353 349
f 768 769 773 774
f 353 352 354 355
f 771 772 770 765
f 355 356 357 353
f 772 773 769 770
f 355 358 359 356
f 359 360 361 356
f 359 358 458 362
f 359 362 363 360
f 363 364 365 360
f 363 362 366 367
f 363 367 368 364
f 368 369 370 364
f 368 367 371 372
f 368 372 373 369
f 373 374 375 369
f 373 372 376 377
f 373 377 378 374
f 378 379 380 374
f 378 377 381 382
f 378 382 383 379
f 383 384 385 379
f 383 382 386 387
f 383 387 388 384
f 774 777 767 768
f 388 387 389 390
f 195 187 765 770
f 390 391 392 388
f 193 195 770 769
f 390 393 394 391
f 394 395 396 391
f 394 393 437 397
f 394 397 398 395
f 398 399 400 395
f 398 397 401 402
f 398 402 403 399
f 403 404 405 399
f 403 402 406 407
f 403 407 408 404
f 408 409 410 404
f 408 407 411 412
f 408 412 413 409
f 413 414 415 409
f 672 418 419 671
f 655 672 671 656
f 670 417 418 672
f 418 417 420 421
f 418 421 422 419
f 422 423 424 419
f 422 421 729 730
f 422 730 732 423
f 657 670 672 655
f 671 419 424 669
f 424 423 426 425
f 426 427 428 425
f 426 423 732 733
f 426 733 734 427
f 190 193 769 768
f 429 430 428 427
f 767 189 190 768
f 656 671 669 658
f 668 430 417 670
f 429 420 417 430
f 654 668 670 657
f 421 420 731 729
f 416 432 433 434
f 766 185 189 767
f 764 186 185 766
f 434 435 436 415
f 434 415 414 416
f 436 435 437 438
f 436 438 439 410
f 436 410 409 415
f 439 438 440 441
f 439 441 442 405
f 439 405 404 410
f 442 441 443 444
f 442 444 445 400
f 442 400 399 405
f 445 444 446 447
f 445 447 448 396
f 445 396 395 400
f 448 447 449 450
f 448 450 451 392
f 448 392 391 396
f 451 450 452 453
f 451 453 385 384
f 451 384 388 392
f 385 453 454 455
f 187 186 764 765
f 750 755 757 763
f 753 750 763 762
f 455 456 457 380
f 455 380 379 385
f 457 456 458 459
f 457 459 460 375
f 457 375 374 380
f 460 459 461 462
f 460 462 463 370
f 460 370 369 375
f 463 462 464 465
f 463 465 466 365
f 463 365 364 370
f 466 465 467 468
f 466 468 469 361
f 466 361 360 365
f 469 468 470 471
f 469 471 472 357
f 469 357 356 361
f 472 471 473 474
f 472 474 350 349
f 472 349 353 357
f 350 474 475 476
f 752 751 761 760
f 754 756 759 758
f 760 759 756 752
f 476 477 478 345
f 476 345 344 350
f 478 477 479 480
f 478 480 481 340
f 478 340 339 345
f 481 480 482 483
f 481 483 484 335
f 481 335 334 340
f 484 483 485 486
f 484 486 487 330
f 484 330 329 335
f 487 486 488 489
f 487 489 490 326
f 487 326 325 330
f 490 489 491 492
f 490 492 493 322
f 490 322 321 326
f 493 492 14 494
f 493 494 315 314
f 493 314 318 322
f 758 757 755 754
f 492 491 12 14
f 491 311 13 12
f 491 489 488 311
f 488 316 312 311
f 488 486 485 316
f 485 319 317 316
f 485 483 482 319
f 482 323 320 319
f 482 480 479 323
f 762 761 751 753
f 749 763 757 743
f 477 331 327 479
f 477 476 475 331
f 475 336 332 331
f 475 474 473 336
f 473 341 337 336
f 473 471 470 341
f 470 346 342 341
f 470 468 467 346
f 467 351 347 346
f 467 465 464 351
f 464 354 352 351
f 464 462 461 354
f 461 358 355 354
f 461 459 458 358
f 748 762 763 749
f 747 761 762 748
f 456 366 362 458
f 456 455 454 366
f 454 371 367 366
f 454 453 452 371
f 452 376 372 371
f 452 450 449 376
f 449 381 377 376
f 449 447 446 381
f 446 386 382 381
f 446 444 443 386
f 443 389 387 386
f 443 441 440 389
f 440 393 390 389
f 440 438 437 393
f 746 760 761 747
f 745 759 760 746
f 435 401 397 437
f 435 434 433 401
f 433 406 402 401
f 433 432 431 406
f 431 411 407 406
f 497 496 498 499
f 497 499 500 501
f 744 758 759 745
f 500 499 502 503
f 743 757 758 744
f 503 504 505 500
f 756 562 495 752
f 503 506 507 504
f 507 508 509 504
f 507 506 510 511
f 507 511 512 508
f 512 513 514 508
f 512 511 515 516
f 512 516 517 513
f 517 518 519 513
f 517 516 520 521
f 517 521 522 518
f 522 523 524 518
f 522 521 525 526
f 522 526 527 523
f 527 528 529 523
f 527 526 530 531
f 527 531 532 528
f 532 536 546 528
f 532 531 533 534
f 532 534 535 536
f 754 563 562 756
f 540 533 531 530
f 540 530 541 538
f 541 530 526 525
f 541 525 542 543
f 541 543 539 538
f 543 542 544 545
f 543 545 537 539
f 545 544 546 536
f 545 536 535 537
f 546 544 547 548
f 564 755 750 501
f 564 563 754 755
f 497 501 750 753
f 548 549 550 529
f 548 529 528 546
f 550 549 510 551
f 550 551 552 524
f 550 524 523 529
f 552 551 553 554
f 552 554 555 519
f 552 519 518 524
f 555 554 556 557
f 555 557 558 514
f 555 514 513 519
f 558 557 559 560
f 558 560 561 509
f 558 509 508 514
f 561 560 562 563
f 561 563 564 505
f 561 505 504 509
f 564 501 500 505
f 562 560 559 495
f 559 498 496 495
f 559 557 556 498
f 556 502 499 498
f 556 554 553 502
f 553 506 503 502
f 553 551 510 506
f 751 496 497 753
f 751 752 495 496
f 549 515 511 510
f 549 548 547 515
f 547 520 516 515
f 547 544 542 520
f 542 525 521 520
f 567 566 568 569
f 567 569 570 571
f 571 570 572 573
f 745 746 742 740
f 575 574 576 577
f 575 577 578 565
f 578 577 579 580
f 578 580 581 568
f 578 568 566 565
f 581 580 582 583
f 581 583 584 585
f 581 585 569 568
f 585 584 586 587
f 585 587 570 569
f 587 586 588 589
f 587 589 572 570
f 736 741 747 748
f 746 747 741 742
f 589 588 590 591
f 589 591 576 572
f 591 590 592 579
f 591 579 577 576
f 592 590 593 594
f 592 594 595 582
f 592 582 580 579
f 595 594 596 597
f 595 597 598 599
f 595 599 583 582
f 599 598 600 601
f 599 601 584 583
f 601 600 602 603
f 601 603 586 584
f 603 602 604 605
f 603 605 588 586
f 744 745 740 739
f 743 744 739 738
f 605 604 606 593
f 605 593 590 588
f 606 604 607 608
f 606 608 609 596
f 606 596 594 593
f 609 608 610 611
f 609 611 612 613
f 609 613 597 596
f 613 612 614 615
f 613 615 598 597
f 615 614 616 617
f 615 617 600 598
f 617 616 618 619
f 617 619 602 600
f 619 618 620 607
f 619 607 604 602
f 749 743 738 737
f 748 749 737 736
f 309 740 742 302
f 620 621 622 610
f 620 610 608 607
f 622 621 623 624
f 622 624 625 626
f 622 626 611 610
f 626 625 627 628
f 626 628 612 611
f 628 627 629 630
f 628 630 614 612
f 630 629 631 632
f 630 632 616 614
f 632 631 633 634
f 632 634 618 616
f 634 633 623 621
f 634 621 620 618
f 623 633 635 636
f 741 303 302 742
f 736 304 303 741
f 308 739 740 309
f 636 637 638 639
f 636 639 624 623
f 639 638 640 641
f 639 641 625 624
f 641 640 642 643
f 641 643 627 625
f 643 642 644 645
f 643 645 629 627
f 645 644 646 647
f 645 647 631 629
f 647 646 648 635
f 647 635 633 631
f 648 646 9 8
f 665 658 652 659
f 662 656 658 665
f 661 654 657 664
f 655 663 664 657
f 659 652 653 660
f 660 653 654 661
f 307 738 739 308
f 656 662 663 655
f 428 666 667 425
f 666 653 652 667
f 430 668 666 428
f 668 654 653 666
f 306 737 738 307
f 306 304 736 737
f 658 669 667 652
f 669 424 425 667
f 413 412 673 674
f 413 674 675 414
f 675 676 416 414
f 677 678 431 432
f 677 432 416 676
f 724 723 730 729
f 431 678 679 411
f 679 673 412 411
f 680 665 659 681
f 682 662 665 680
f 686 661 664 683
f 663 684 683 664
f 681 659 660 685
f 685 660 661 686
f 722 726 733 732
f 662 682 684 663
f 680 681 674 673
f 681 685 675 674
f 685 686 676 675
f 686 683 677 676
f 726 727 734 733
f 673 679 682 680
f 678 677 683 684
f 679 678 684 682
f 534 533 687 688
f 535 534 688 689
f 727 728 735 734
f 689 690 537 535
f 691 692 538 539
f 691 539 537 690
f 693 687 533 540
f 693 540 538 692
f 694 695 565 566
f 694 566 567 696
f 567 571 697 696
f 571 573 698 697
f 723 722 732 730
f 698 573 574 699
f 700 699 574 575
f 700 575 565 695
f 701 702 689 688
f 729 731 725 724
f 702 703 690 689
f 704 705 692 691
f 703 704 691 690
f 706 707 687 693
f 705 706 693 692
f 688 687 707 701
f 708 709 700 695
f 696 697 710 711
f 697 698 712 710
f 731 735 728 725
f 698 699 713 712
f 699 700 709 713
f 695 694 714 708
f 694 696 711 714
f 710 712 702 701
f 716 722 723 721
f 712 713 703 702
f 709 708 705 704
f 713 709 704 703
f 708 714 706 705
f 711 710 701 707
f 707 706 714 711
f 734 735 429 427
f 735 731 420 429
f 651 715 716 11
f 650 717 715 651
f 649 718 717 650
f 724 720 721 723
f 649 8 719 718
f 720 719 8 9
f 720 9 10 721
f 721 10 11 716
f 728 718 719 725
f 725 719 720 724
f 727 717 718 728
f 726 715 717 727
f 722 716 715 726
f 792 16 17 793
f 87 85 794 795
f 87 795 796 89
f 89 796 797 83
f 797 793 17 83
f 85 16 792 794
f 798 310 315 88
f 799 15 310 798
f 800 13 15 799
f 88 494 14 801
f 801 14 12 802
f 802 12 13 800
f 799 798 795 794
f 798 88 796 795
f 88 801 797 796
f 800 799 794 792
f 793 797 801 802
f 792 793 802 800

 