# File exported by ZBrush version 2021
# www.zbrush.com
#Vertex Count 668
#Face Count 668
#Auto scale x=0.047110 y=0.047110 z=0.047110
#Auto offset x=-0.029091 y=0.022900 z=-0.434581
v -1.97294889 -14.36274571 7.53460542
v 1.77028219 -15.78045215 21.2082539
v 4.87972514 -12.47991161 6.49544087
v -1.64890131 -15.60471282 20.9217591
v -1.74936759 -12.43955764 9.00552453
v -1.63900971 -11.29482468 8.13209468
v -1.99477001 -12.5088116 6.76340868
v -1.97405263 -13.59781953 5.19140052
v -1.80848403 -15.19582132 5.48182697
v -1.53321562 -16.88137459 7.12374858
v -1.47352588 -16.98252203 5.54930805
v 0.92505405 -15.60411058 21.43865422
v 0.90775426 -16.38696483 22.14109281
v 1.90704616 -16.46837621 21.67646869
v 2.25773328 -15.51473214 20.49895533
v 1.26132837 -14.97715332 20.3543415
v 2.98073759 -16.34708785 20.69850723
v 4.96501409 -13.27747649 8.03914613
v 5.45450312 -14.9330227 7.01149525
v 5.38347818 -14.66177245 5.35984432
v 5.37046641 -14.82866414 3.82116108
v 5.10243613 -12.92100656 3.9472329
v 4.89751308 -11.23180063 4.00288455
v 4.60265238 -10.68791978 5.66047977
v -1.79980229 -15.33050576 20.10797419
v -2.59491393 -16.12318566 20.00936097
v -2.01202736 -16.30298885 21.405369
v -1.04483049 -16.32686595 22.14125729
v -0.81116639 -15.54862467 21.4199063
v -0.84616929 -14.91874857 20.17112096
v 0.02692918 -15.47554977 21.44048878
v 0.18598126 -14.82343249 20.24269153
v 0.73779178 -14.00731073 17.75255588
v -0.69779438 -14.13927623 17.60266485
v 2.22521399 -14.30124372 17.85597754
v 3.58043567 -14.98699794 17.94758591
v 4.18900653 -14.28706321 15.05000744
v 2.68148296 -13.56607534 15.29902284
v 4.70401016 -16.01386241 17.951305
v 5.36072333 -15.35601878 14.65785345
v 6.12802811 -16.70452946 14.0121565
v 5.83798534 -15.86832245 10.4568266
v 5.21861019 -14.43667463 11.31172855
v 6.48281151 -18.16087296 13.5387363
v 5.98260328 -17.47568302 9.88941943
v 5.55649762 -16.87542935 6.66637097
v 5.49532205 -16.78486541 5.32345775
v 5.46696293 -16.83824221 3.84176254
v 5.39549264 -16.90458112 2.24724198
v 5.26600949 -14.98123237 2.25009819
v 5.04174893 -13.13553732 2.37813078
v 5.11302818 -16.91889068 0.68220846
v 4.95575937 -15.01794505 0.72928071
v 4.7415601 -13.22463108 0.85664209
v 4.5803005 -11.55120994 0.98659843
v 4.87482181 -11.47225307 2.44992401
v 4.4348336 -15.03878057 -0.52810301
v 4.22158956 -13.24566398 -0.36460967
v 4.06998828 -11.54986122 -0.16637928
v 3.52477927 -13.25104366 -1.24434633
v 3.38283599 -11.53342991 -0.9931282
v 3.3863808 -8.27623619 -0.83396758
v 4.07805433 -8.25372868 -0.0462119
v 2.53157959 -11.53085393 -1.50746379
v 2.51557464 -8.29698188 -1.3318959
v 1.52702367 -8.32291116 -1.47682287
v 1.50486299 -5.12354969 -1.71371373
v 2.48846809 -5.06675049 -1.54374757
v 0.53335728 -8.36548873 -1.25469451
v 0.51113288 -5.1587128 -1.51240571
v -0.40632991 -5.1742784 -0.95732457
v -0.60821747 -1.90513253 -1.25948903
v 0.35859746 -1.86746635 -1.78847263
v -1.21961158 -5.16114232 -0.11379134
v -1.46976883 -1.90721001 -0.41128211
v -2.15777023 -1.8566578 0.74694624
v -2.60968782 1.31560581 0.53635346
v -1.91003286 1.26111483 -0.69022612
v -2.57285937 -1.74376633 2.0942246
v -2.9915357 1.4212389 1.91344276
v -2.99289423 1.55671537 3.33903274
v -3.38928257 4.6897082 3.18684724
v -3.40095732 4.55405461 1.71731769
v -2.64870256 1.68035972 4.71076007
v -3.00993917 4.81434811 4.60109775
v -2.27829568 4.90830345 5.85504705
v -2.63029877 8.05385289 5.83003696
v -3.38206548 7.96446686 4.49942335
v -1.24909547 4.96659813 6.82359153
v -1.52988289 8.10609669 6.87961421
v -0.16986392 8.1319646 7.49781493
v -0.33010463 11.25176189 7.66071488
v -1.77278067 11.23266224 6.93809108
v 1.30384565 8.14045734 7.61564752
v 1.25926948 11.26223912 7.79914909
v 2.77500796 11.26653578 7.32608411
v 2.82881778 14.38540694 7.51582254
v 1.21076636 14.37320902 7.97603866
v 4.0511812 11.26209362 6.35868211
v 4.15931041 14.38500081 6.49353292
v 5.15435667 14.36113383 5.11294878
v 5.22962671 17.47968363 5.48485241
v 4.31059349 17.49629967 6.70007197
v 5.77791367 14.31317214 3.48412356
v 6.01111106 17.43391708 3.50441061
v 6.27115911 17.37938135 1.66561287
v 6.06823162 17.31755545 -0.14453918
v 5.34399658 17.25368877 -1.80444721
v 4.14854851 17.19029781 -3.20095374
v 2.54514346 17.12730034 -4.18356106
v 0.69591185 17.06622345 -4.64408083
v -1.17221228 17.01599577 -4.54610274
v -2.83571019 16.98823953 -3.83327676
v -4.13071154 16.98990708 -2.62507945
v -4.94955445 17.02116922 -1.07648358
v -5.24602925 17.075085 0.66986062
v -5.07804061 17.14351657 2.48445231
v -4.50133066 17.22049971 4.26471276
v -3.59320799 17.2980813 5.89806429
v -2.28173452 17.36894587 7.21972462
v -0.63604575 17.42780231 8.0483742
v 1.1719214 17.47350559 8.24413671
v 2.89525743 17.49697149 7.75095144
v -0.47506212 14.34992152 7.80455376
v -2.01090227 14.31336193 7.03283149
v -3.24581091 14.263925 5.80230349
v -2.94477312 11.187961 5.80526599
v -3.74720812 11.10243641 4.37787118
v -4.20131168 10.95995699 2.81116063
v -3.7863924 7.83219835 3.02393654
v -3.84408674 7.67489507 1.48896512
v -3.50632678 7.54421819 -0.00838709
v -3.05791162 4.43940165 0.28910493
v -2.3511033 4.37902759 -0.98805596
v -1.33663459 4.37797999 -2.0007045
v -0.96346844 1.26299683 -1.6207383
v 0.13926138 1.30353172 -2.17681453
v 1.30501313 1.36279208 -2.34565972
v 1.39236121 -1.81781608 -1.96254062
v 2.41020503 -1.76363176 -1.77417826
v 3.31750008 -1.71303605 -1.23360974
v 3.35572944 -4.99221047 -1.03269773
v 4.04109872 -4.91862917 -0.22853729
v 4.54058515 -4.84045546 0.82995116
v 4.58165902 -8.21260421 1.00884088
v 4.85497473 -8.11573065 2.31030461
v 4.82984223 -7.8913597 3.78532772
v 4.41685461 -7.5311808 5.28273972
v 3.69210968 -7.12318192 6.59347699
v 3.76695525 -9.91277637 7.39557513
v 2.68787212 -9.3052686 8.46707196
v 2.7251464 -10.31717762 9.21004868
v 3.93657822 -11.10289948 8.01848236
v 2.69071648 -11.17810373 10.20422527
v 3.94606637 -11.96718409 9.34739505
v 2.68485791 -12.5587369 12.68504215
v 4.10579791 -13.29741118 12.10271781
v 1.2376394 -12.23176161 12.89545622
v 1.06016253 -13.24520344 15.34554914
v -0.46173168 -13.3564903 15.17251357
v -1.76392908 -13.91263359 14.78854551
v -1.94928103 -14.70097001 17.38126588
v -2.89839263 -15.64830193 17.08618218
v -3.41948826 -16.89343966 16.68746743
v -3.05508861 -17.17627166 19.94097875
v -3.24780615 -18.26586159 19.97065305
v -2.6079045 -18.16916643 21.59641615
v -2.40363968 -17.18299121 21.48939432
v -1.80727417 -18.17101618 22.58945641
v -1.38046789 -17.19244994 22.45690512
v -0.23199457 -18.19034104 23.09709271
v -0.16171278 -17.21623215 22.75172502
v -0.06188338 -16.30749048 22.27864675
v 0.95228796 -17.28583404 22.52156003
v 0.97500058 -18.25235291 22.83108677
v 1.85584727 -18.31637269 22.42678547
v 2.05692818 -17.33720041 22.0044726
v 3.30478533 -17.34172861 20.979344
v 3.45178029 -18.399067 21.18315967
v 5.40417422 -17.24694139 17.90858572
v 5.77201271 -18.46917118 18.01340734
v -3.58414401 -18.29000312 16.41552321
v -3.09960101 -16.30931112 13.51800168
v -3.06326094 -17.9901793 12.92774983
v -2.37203308 -15.38421152 10.63268011
v -2.10372698 -17.28989284 9.98222707
v -2.15135972 -13.88001766 11.50347915
v -1.34455214 -12.84104005 12.24784911
v -0.97561006 -11.40528662 9.95761741
v -0.1519485 -12.30310064 12.74450873
v 0.12249213 -10.90837553 10.47804548
v 0.19498147 -10.01738164 9.59522265
v -0.88176653 -10.46359058 9.06233927
v 1.38361574 -10.82149589 10.57863386
v 1.44043977 -9.97559735 9.65671674
v 1.48964335 -8.99540342 8.93734628
v 0.2621217 -9.02177109 8.86881674
v -0.83084361 -9.36176035 8.36112185
v 1.61643073 -6.64326391 7.94796833
v 0.42034589 -6.66999849 7.88682107
v 2.75189205 -6.81013663 7.49641813
v 3.55634349 -4.19519374 6.10523151
v 2.65390938 -4.0415134 6.90335783
v 4.27266114 -4.40609271 4.95834199
v 4.70466807 -4.60052398 3.56368457
v 4.71042036 -1.39030666 3.50036889
v 4.27790419 -1.28424774 4.85366618
v 4.77724227 -4.74136051 2.12506796
v 4.8026721 -1.48965568 2.08313248
v 4.56115403 -1.57491735 0.7338418
v 4.80303268 1.62524957 0.66885351
v 5.02771804 1.70158683 2.07317779
v 4.04712715 -1.64665634 -0.38758404
v 4.26414942 1.55853538 -0.56310638
v 3.46315803 1.49435065 -1.50574816
v 3.6026177 4.65563095 -1.79874363
v 4.48677533 4.72401002 -0.74265211
v 2.44696974 1.42770477 -2.11207359
v 2.48494447 4.57564894 -2.51455805
v 1.2017663 4.49425084 -2.79690548
v 1.08595319 7.6158944 -3.23764997
v 2.50203196 7.71352771 -2.91517758
v -0.10813647 4.4239787 -2.6168834
v -0.36890712 7.52188339 -3.07925797
v -1.70283844 7.46822887 -2.41533246
v -2.06048802 10.56787892 -2.93843219
v -0.62880747 10.6411145 -3.63307707
v -2.77045905 7.47370661 -1.34471567
v -3.21248489 10.56217787 -1.82242841
v -3.96335993 10.6428858 -0.39628301
v -4.43013618 13.77983811 -0.78160991
v -3.67210762 13.72183063 -2.28446897
v -4.29254428 10.78652921 1.18752119
v -4.7490258 13.90082282 0.88375877
v -4.61270734 14.05983857 2.60042045
v -4.11336926 14.18672171 4.26922388
v -2.45159093 13.74505235 -3.44676182
v -0.90188959 13.83014803 -4.14860576
v 0.8169892 13.93824529 -4.27326718
v 0.95390166 10.75084135 -3.78730398
v 2.49226768 10.8595788 -3.384526
v 3.85676543 10.93684409 -2.53282772
v 3.74265051 7.80085776 -2.12578597
v 4.68356875 7.87515106 -0.96052682
v 5.28292729 7.93892791 0.43648135
v 5.04764988 4.79061145 0.58067513
v 5.24106803 4.85790433 2.03390368
v 5.10303046 4.92182984 3.50847005
v 4.9064496 1.77899381 3.51174948
v 4.43018489 1.84443031 4.87923614
v 3.65377405 1.88504886 6.05078212
v 3.53925584 -1.19289218 5.96313324
v 2.58940124 -1.13441602 6.73657225
v 1.48002765 -1.12119162 7.13143221
v 1.5779042 -3.9740823 7.31562949
v 0.44545713 -4.01291421 7.30183899
v -0.61148638 -4.15149171 6.85277746
v -0.67610065 -6.86944411 7.39218088
v -1.55628899 -7.24488211 6.52279034
v -2.14995881 -7.75234444 5.34225818
v -2.07591982 -10.97120853 6.13599579
v -1.6306038 -10.01490182 7.44796791
v -2.13329564 -11.91436399 4.61229235
v -1.9644794 -12.2709655 3.12520418
v -1.80133067 -14.06880261 3.3049827
v -1.56879151 -12.13661634 1.55663313
v -1.4603441 -13.84599483 1.49389628
v -1.37049122 -15.55793916 1.3661003
v -1.64856175 -15.62902388 3.31559973
v -1.23128633 -17.25409744 1.32572609
v -1.42657241 -17.22581867 3.45480415
v -0.85784405 -15.35787991 -0.11772173
v -0.76871296 -17.16050838 -0.21341294
v -0.14744846 -15.26484248 -1.16354098
v -0.06498251 -17.11890185 -1.23492429
v 0.73997841 -15.22058028 -1.83312705
v 0.82499159 -17.10003879 -1.87307741
v 1.74544693 -15.17657111 -2.10152172
v 1.8400333 -17.07361735 -2.15602709
v 2.7667719 -15.12632192 -1.95421298
v 2.87816994 -17.02710433 -2.00724565
v 3.6826636 -15.07084107 -1.41432135
v 3.80885688 -16.97340111 -1.46227672
v 4.56994188 -16.9333179 -0.58092564
v 2.64399644 -13.27494606 -1.78565627
v 1.6523464 -13.31906657 -1.93528034
v 1.57064465 -11.56292834 -1.65645779
v 0.67375097 -13.38483739 -1.66226765
v 0.6151227 -11.63414085 -1.40912133
v -0.24057018 -11.75623515 -0.7831832
v -0.38898763 -8.42560026 -0.68570867
v -1.20645099 -8.50515052 0.18743748
v -1.88358422 -8.56846493 1.34823549
v -1.88971876 -5.10102668 1.00822725
v -2.30869242 -4.97827099 2.31338857
v -2.37833732 -4.79726015 3.66718531
v -2.6118953 -1.59586896 3.49256253
v -2.28812353 -1.44806814 4.80132306
v -1.64902862 -1.31961218 5.88165195
v -1.95407824 1.77688265 5.88874789
v -0.99764342 1.84021572 6.76252097
v 0.16980655 1.88131885 7.22565341
v 0.00491717 4.999667 7.37191059
v 1.3563818 5.01541068 7.43656028
v 2.66541428 5.01574469 7.02199826
v 2.72429728 8.1413879 7.16562554
v 3.91072392 8.13276674 6.22301998
v 4.78953254 8.10892001 4.95884523
v 4.97187028 11.24179455 5.02651577
v 5.5400255 11.19652903 3.49171357
v 5.72229965 11.1332861 1.86185751
v 5.99204936 14.24672949 1.7543258
v 5.79094694 14.17375707 0.03265008
v 5.10194776 14.11695408 -1.56471467
v 3.9779491 14.07207318 -2.90228506
v 2.50319944 14.01979712 -3.84322386
v 4.88777 11.00245296 -1.27435402
v 5.52790507 11.06360703 0.23144918
v 5.48046339 8.00555592 1.96373877
v 5.30591589 8.06654867 3.49908533
v 4.60619719 4.9721113 4.91279654
v 3.77103081 5.0034987 6.12985635
v 2.61495822 1.90147749 6.8738771
v 1.41558324 1.9001876 7.27239306
v 0.31705653 -1.14980283 7.1069203
v -0.76304544 -1.2168168 6.67471378
v -1.48104014 -4.34830537 6.05552762
v -2.08534439 -4.57668104 4.96529781
v -2.39081865 -8.23113894 4.00179552
v -2.29413076 -8.51148164 2.66599896
v -0.96667354 -11.91823681 0.19149945
v -0.19062369 -13.47395645 -0.99676632
v -0.90422454 -13.61505805 0.03841502
v -2.68100945 -14.92272639 14.2323301
v -0.50972539 -13.20248226 15.22397168
v -1.87012646 -13.78374129 14.82118104
v -1.4601956 -12.7219367 12.28986778
v -0.20380546 -12.15599434 12.81350016
v -2.16150609 -12.50665315 6.7786061
v -1.79736122 -11.2588939 8.18124496
v -1.91103048 -12.38971332 9.02946742
v -2.14129811 -14.36576072 7.52847325
v -1.97362815 -15.21687447 5.47705396
v -2.14000348 -13.61158757 5.18713043
v -2.24080932 -10.96716871 6.16660509
v -2.31138827 -7.74444698 5.38825815
v -1.69829601 -7.22062419 6.61114442
v -1.78180195 -9.98419511 7.51742351
v -1.69761675 -16.90547436 7.10685925
v -1.63743895 -17.01076284 5.54619594
v 1.98760164 -16.38589066 21.7992905
v 0.95434701 -16.29768761 22.27720441
v 0.96400525 -15.47866092 21.54523322
v 1.83897202 -15.66982067 21.31468361
v 1.30212623 -14.83142484 20.42871577
v 2.33760949 -15.39285798 20.58451661
v 3.08704124 -16.26101162 20.79743929
v 5.5490044 -14.64006519 5.35985159
v 5.61932872 -14.90284484 7.00764395
v 5.1190566 -13.21169807 8.05760709
v 5.0407725 -12.43656415 6.51789808
v 5.26734682 -12.89679418 3.94715161
v 5.53614098 -14.81111438 3.81613818
v 4.76323256 -10.6615344 5.70346285
v 5.06393064 -11.21764669 4.01314986
v -2.12518721 -16.21085985 21.49587727
v -2.7322085 -16.03479283 20.05568041
v -1.89432508 -15.19862504 20.1595468
v -1.73372339 -15.48054736 21.00101204
v -0.85355624 -15.41366567 21.51446578
v -1.10220647 -16.22827297 22.27028117
v -0.88815586 -14.76628029 20.23014821
v -2.04906789 -14.5682884 17.41510843
v -0.74383524 -13.98329699 17.64730978
v 0.18668172 -14.66894873 20.3093227
v 0.02803296 -15.34108168 21.54318358
v 0.74171873 -13.84742452 17.80370084
v 5.12005422 11.23114019 5.10432225
v 5.30145823 14.34934584 5.19268535
v 5.93991626 14.30078065 3.52507217
v 5.70245258 11.18451456 3.53090354
v 2.27382315 -14.15043287 17.91188919
v 5.20897306 4.77694589 0.53647112
v 5.44454779 7.92430268 0.39323321
v 4.82695533 7.85860271 -1.04645502
v 4.6299076 4.70887617 -0.82944761
v 5.19472993 1.68985403 2.06755898
v 4.96993861 -1.49616702 2.07455244
v 4.87499135 -1.39527468 3.53228325
v 5.07012892 1.7687913 3.54645996
v 2.56806833 7.69164332 -3.06879972
v 2.54953739 4.55535872 -2.66921514
v 3.71367619 4.63837029 -1.92415406
v 3.85443048 7.78200356 -2.25040184
v 4.42929355 -1.28723104 4.92625239
v 4.58013064 1.8357054 4.9539362
v 2.73775504 -13.41721039 15.35309677
v 4.28817803 -14.15861627 15.09507938
v 3.67039484 -14.85823217 18.00852299
v 0.28262672 -1.14945726 7.2727296
v 0.13457013 1.87249605 7.39063179
v 1.43971805 1.89231735 7.43952657
v 1.50698562 -1.11916562 7.29869494
v 5.49719013 -15.26156685 14.69014801
v 4.82956641 -15.92006206 18.01640021
v -1.00781099 -15.35961831 -0.19318471
v -0.26937488 -15.26183887 -1.28001648
v -0.31227414 -13.46506454 -1.11287806
v -1.05213251 -13.61358534 -0.04034763
v 6.286868 -16.65018604 14.02964047
v 5.55015068 -17.18978034 17.97404151
v -1.62062728 -13.85356965 1.44716375
v -1.53272741 -15.56792422 1.32673509
v 5.36365261 -14.35227608 11.32941939
v 6.00024288 -15.82451066 10.45246288
v 0.59839602 -13.36957386 -1.81329358
v 0.54324892 -11.62210994 -1.56206026
v -0.35746588 -11.75196886 -0.9043033
v 6.14694051 -17.45255493 9.87545733
v 6.6465756 -18.12575445 13.54875521
v 5.72208741 -16.86291766 6.65504763
v 0.37772257 -6.61922107 8.04398953
v 0.21376716 -8.94026102 9.01198736
v -0.94400346 -9.30051962 8.47345963
v -0.77854098 -6.82876246 7.52162576
v 5.66137902 -16.77601146 5.3189033
v 5.63297752 -16.82928704 3.8353884
v 5.43058047 -14.96459608 2.22849089
v 5.56050929 -16.89347761 2.22647287
v 5.20593782 -13.11525975 2.35676386
v 5.11468402 -14.99995119 0.6803505
v 5.27252597 -16.90570336 0.63362745
v 4.89980565 -13.203521 0.80699577
v 5.04075131 -11.46250081 2.43121088
v 4.73954367 -11.5411768 0.93532884
v 4.36385136 -13.22243973 -0.45084911
v 4.57747749 -15.02060453 -0.61554693
v 4.21235604 -11.53688394 -0.25503528
v 3.49221744 -11.5168379 -1.12097859
v 3.63413953 -13.22669084 -1.37065127
v 4.21919103 -8.25407978 -0.1372389
v 3.49455239 -8.27657906 -0.9635393
v 2.5724836 -8.29769989 -1.49162333
v 2.58825496 -11.51218066 -1.66645044
v 3.46392222 -4.99901194 -1.1618399
v 2.54669303 -5.07664666 -1.70219523
v 1.52122876 -8.32479379 -1.64639682
v 1.56141105 -11.54565819 -1.82530045
v 1.50299498 -5.1362404 -1.88236155
v 4.93837471 8.09870658 5.03554812
v 5.46870355 8.05529017 3.53688863
v 0.45144326 -5.17316849 -1.66960335
v 0.46810625 -8.3694634 -1.41069272
v 3.4262872 -1.7242849 -1.36194344
v 4.18206558 -4.92262756 -0.31963578
v 4.18883668 -1.65602098 -0.47741035
v 3.89412464 4.99504645 6.24413859
v 4.03303236 8.12336305 6.3381088
v 4.75548503 4.9627696 4.98872165
v 4.70014684 -4.84200946 0.77844245
v 4.72137363 -1.58274839 0.68464083
v 3.79115371 -15.0546514 -1.54264683
v 0.30408716 -1.88712349 -1.94695825
v -0.70789829 -1.92718108 -1.39300758
v -0.50970412 -5.18918039 -1.08875045
v 1.37803315 5.0068667 7.60407082
v 2.7452481 5.00751765 7.17086083
v 2.69564116 1.89387973 7.02213222
v -1.60139588 -1.93010277 -0.51274902
v -1.35236372 -5.17541171 -0.21506467
v -2.03758419 -8.58007642 1.28357173
v -2.04253022 -5.11342356 0.94062629
v -2.47375145 -4.98745833 2.28458473
v -2.45870175 -8.52144899 2.63632656
v -2.31047542 -1.87850961 0.68137342
v -2.29986218 -11.92597485 4.61301447
v -2.55819144 -8.23482008 4.00903696
v -2.04168126 1.23365323 -0.79080991
v -2.76319958 1.28946335 0.47415117
v -2.12854097 -12.28724246 3.09845758
v -3.1564252 1.39804597 1.89272427
v -2.73779125 -1.7629128 2.0692822
v 3.77748372 1.87725942 6.16460415
v -3.15795326 1.53720547 3.36114297
v -2.77790957 -1.61122991 3.51188865
v 5.26622173 4.91129125 3.54497776
v -3.56612263 4.53030529 1.70054793
v -3.55387474 4.66992976 3.21127977
v -3.16376945 4.79818692 4.66614677
v -2.80280865 1.6644242 4.77568289
v 0.83293048 13.91574854 -4.43949085
v 0.96842072 10.7241112 -3.953224
v 2.55913197 10.83684799 -3.53735359
v 2.56989387 13.99980043 -3.99648162
v -2.40903139 4.89518319 5.9598886
v -2.08383752 1.7640458 5.99490779
v 4.71256427 -16.92051774 -0.66943993
v -3.53566232 7.94837209 4.56448723
v -2.76198972 8.04071428 5.93368731
v 3.96805735 10.9169853 -2.65769664
v 4.08832817 14.0533784 -3.02801685
v -1.62429956 8.09527785 7.0188996
v -1.34119838 4.95589317 6.96469946
v -3.07714317 11.17506216 5.90799969
v -1.86927751 11.2216106 7.07567049
v -0.21208391 8.12232684 7.66124437
v -0.03350327 4.99046574 7.53621825
v -0.3753813 11.24170345 7.82339199
v 2.80323961 8.13247005 7.31488887
v 1.27690888 11.25268044 7.96742912
v 1.32343795 8.13133705 7.7836341
v 2.85240072 11.25699734 7.4760607
v -1.10986923 -11.92272452 0.10434463
v 1.2264529 14.36135018 8.14434581
v 2.90476709 14.37380367 7.66653106
v -2.48347335 4.35028227 -1.08746563
v -1.43325874 4.34932387 -2.13573813
v -1.79865601 7.43657261 -2.55033067
v -2.90299895 7.44234578 -1.44332256
v 4.27930509 14.37322168 6.61078637
v 4.17255592 11.2522237 6.47479164
v 3.91658248 -16.96283026 -1.59161437
v 2.82270443 -15.11313966 -2.11381706
v 2.93378411 -17.01933593 -2.16719133
v 4.42963294 17.48257337 6.81791911
v 5.37607004 17.46674303 5.56570995
v 1.73464249 -15.16699598 -2.27088564
v 1.82935624 -17.06953072 -2.32551753
v 6.17281665 17.42141804 3.54637013
v 6.43810775 17.36487948 1.66764986
v 6.15897648 14.23237185 1.75562328
v 6.23002198 17.30107859 -0.18724517
v 5.95273667 14.15739408 -0.00998063
v 5.48627957 17.23610105 -1.89228588
v 5.24452808 14.09930689 -1.65197388
v 4.2584392 17.17243048 -3.3272068
v 2.61130729 17.10930648 -4.33732744
v 0.7121715 17.0465709 -4.81044367
v -1.21082373 16.99241093 -4.70886985
v -0.94185956 13.80351783 -4.31062133
v -2.92728218 16.96099823 -3.97242487
v -2.54382115 13.71492004 -3.58480413
v -4.26356996 16.9605301 -2.72490728
v -3.80502961 13.69055204 -2.38361864
v -5.10675968 16.99204655 -1.12875459
v -4.58706559 13.75035232 -0.83417002
v -5.41157603 17.04854084 0.6637275
v -4.91467886 13.87509852 0.87646924
v -5.2403611 17.12062254 2.51780332
v -4.77547381 14.03845141 2.632641
v -4.65339912 17.2004891 4.33132843
v -4.26594729 14.16875063 4.33547327
v -3.72585386 17.27976987 5.99930441
v -3.37843558 14.24811363 5.90407437
v -2.37956837 17.35206287 7.35582483
v -2.10858793 14.29921685 7.1693353
v -0.68308423 17.41239201 8.21004144
v -0.52184582 14.33717829 7.96660927
v 1.18673767 17.45933141 8.41230192
v 2.97054883 17.48353114 7.90186057
v 0.66534519 -15.21451611 -1.98508418
v 0.7513135 -17.09926448 -2.02539386
v -0.18627214 -17.12020755 -1.35220446
v -0.91933798 -17.16583745 -0.28777519
v -1.72589077 -12.14913815 1.50067466
v -3.66185528 7.51538778 -0.0649459
v -3.21267593 4.41231281 0.23003341
v -1.34274795 -8.5149692 0.09057722
v -3.95043294 7.81228706 3.05106523
v -4.36477908 10.94009315 2.84099182
v -3.90048645 11.08661619 4.44336082
v -4.00946461 7.65031325 1.47586953
v -4.45817677 10.76162729 1.17760319
v -1.39407415 -17.26768835 1.28984528
v 5.03090195 10.98472607 -1.36054538
v -1.59116458 -17.24879367 3.44333626
v -1.81351483 -15.64772879 3.30046146
v -1.06055946 1.2361672 -1.75559481
v 5.68963154 11.04782982 0.18868245
v 5.88922678 11.11957625 1.8619486
v 0.08925115 1.27881563 -2.33589987
v 1.39456877 -1.834388 -2.13072789
v 1.31072311 1.3408612 -2.51299677
v -2.54562535 -4.80180606 3.68146829
v -1.61538424 -4.33941978 6.15736935
v -2.24314427 -4.57517828 5.02365164
v 2.47034044 -1.77726427 -1.93147458
v -0.85279205 -1.22009505 6.81795327
v -1.08743258 1.82967191 6.90525517
v -1.96596523 -14.08396871 3.28325646
v -3.34517345 10.52892175 -1.92076835
v -4.11958873 10.61300526 -0.4503639
v 2.50920667 1.40879158 -2.26784407
v 4.7408383 -8.21256372 0.95653255
v 5.02156214 -8.11358359 2.29490824
v 4.94429686 -4.74032051 2.11313258
v 4.99583531 -7.88439281 3.80639478
v -2.44329114 -1.45941971 4.86504298
v 4.57348669 -7.5165366 5.34055931
v -3.04226758 -15.56025324 17.1056886
v -2.83031848 -14.84120493 14.23663436
v 3.90864359 -9.86891397 7.47678883
v 3.82813082 -7.09730705 6.68923352
v -3.58352848 -16.85461027 16.69282118
v -3.26412961 -16.27927244 13.49590442
v 1.60694242 -3.9493768 7.48153812
v 2.67305585 -1.13306928 6.88354649
v 2.7431042 -4.0203176 7.04602655
v 4.07622894 -11.03165534 8.08138455
v 2.82436012 -10.2217597 9.31128753
v 2.78939976 -9.24006522 8.58857087
v 4.0752737 -11.87021945 9.39751827
v 2.7777462 -11.05711396 10.28647707
v -0.70558461 -4.1349674 6.99267284
v 1.6465303 -6.59250673 8.10861177
v 0.40811927 -3.99026057 7.46617686
v 4.21868179 -13.17916312 12.14519417
v 2.75439686 -12.41869302 12.74929282
v 1.0682924 -13.08705436 15.4030866
v 1.25186134 -12.08047378 12.97107578
v 4.42615202 -4.39772332 5.02569148
v 3.68644216 -4.18073109 6.21123895
v 3.66481208 -1.19359928 6.07532314
v 5.40810144 4.84584938 2.03097724
v 4.40653838 1.54392565 -0.65124554
v 4.96367676 1.61203854 0.6224999
v 1.09752174 7.5900404 -3.40403305
v -3.21189055 -17.13051904 19.98351014
v -3.40853531 -18.23792949 20.01058317
v -3.75068904 -18.27274688 16.41476472
v -2.53617959 -17.12714092 21.58048459
v -2.74630297 -18.12600623 21.68380693
v -1.45699034 -17.12857567 22.59717927
v -1.89247835 -18.1180822 22.72933329
v -0.16302884 -17.15288421 22.91009172
v -0.23590028 -18.1375437 23.25994332
v -0.0598244 -16.20996661 22.41848314
v 1.00427227 -17.2273015 22.6697949
v 1.02819484 -18.20240358 22.9816142
v 2.14298148 -17.28372872 22.13822837
v 1.94266467 -18.27393238 22.56355498
v 3.42170207 -17.28828602 21.08800554
v 3.57050154 -18.35913941 21.29492351
v 5.92331699 -18.42704212 18.07821724
v -1.77936088 -1.32690962 5.98805888
v 1.64154196 -13.29860934 -2.10372572
v 2.70041718 -13.25138147 -1.94397488
v -3.2268343 -17.98290939 12.89508267
v -2.26583554 -17.29812685 9.94371241
v -2.53783512 -15.36927568 10.60516901
v -2.30775837 -13.81187836 11.5072071
v -1.09934076 -11.30520701 10.02362183
v 0.06706909 -10.77727924 10.57502342
v -1.00354454 -10.38522899 9.15403043
v 0.14163864 -9.9095273 9.7182102
v 1.21019333 4.47060623 -2.96384272
v -0.15583302 4.39721724 -2.77645458
v 1.46949918 -9.86309336 9.78348031
v 1.4060312 -10.68559875 10.68086622
v 1.52097405 -8.91276162 9.08551121
v 2.84734872 -6.77015843 7.63108011
v 3.57266663 1.47799983 -1.63272746
v 5.64745409 7.99276651 1.96268548
v 4.86998205 -4.5963959 3.59136743
v -0.41435357 7.4921939 -3.23917835
v -0.67151567 10.6102433 -3.79359715
v -2.15439528 10.53445579 -3.07438437
v -0.49777475 -8.4323565 -0.81359955
g Group55845
f 338 335 336 337
g ZBrush_defualt_group
f 190 188 161 160
g Group55845
f 342 339 340 341
g ZBrush_defualt_group
f 1 5 6 7
g Group55845
f 342 343 344 339
g ZBrush_defualt_group
f 1 7 8 9
g Group55845
f 348 345 346 347
g ZBrush_defualt_group
f 262 259 260 261
g Group55845
f 342 349 350 343
g Group55848
f 11 350 349 10
g ZBrush_defualt_group
f 1 9 11 10
g Group55845
f 354 351 352 353
g ZBrush_defualt_group
f 2 12 13 14
g Group55845
f 354 353 355 356
g ZBrush_defualt_group
f 2 15 16 12
g Group55845
f 354 356 357 351
g ZBrush_defualt_group
f 2 14 17 15
g Group55845
f 361 358 359 360
g ZBrush_defualt_group
f 3 18 19 20
g Group55845
f 361 362 363 358
g ZBrush_defualt_group
f 3 20 21 22
g Group55845
f 361 364 365 362
g ZBrush_defualt_group
f 3 22 23 24
g Group55845
f 369 366 367 368
g ZBrush_defualt_group
f 4 25 26 27
g Group55845
f 369 370 371 366
g ZBrush_defualt_group
f 4 27 28 29
g Group55845
f 369 368 372 370
g ZBrush_defualt_group
f 4 29 30 25
g Group55845
f 372 368 373 374
g ZBrush_defualt_group
f 30 34 162 25
g Group55845
f 372 375 376 370
g ZBrush_defualt_group
f 30 29 31 32
g Group55845
f 372 374 377 375
g ZBrush_defualt_group
f 30 32 33 34
g Group55845
f 381 378 379 380
g ZBrush_defualt_group
f 310 104 101 309
g Group55845
f 377 382 355 375
g ZBrush_defualt_group
f 33 32 16 35
g Group55845
f 386 383 384 385
g ZBrush_defualt_group
f 217 244 245 246
g Group55845
f 390 387 388 389
g ZBrush_defualt_group
f 249 206 209 212
g Group55845
f 394 391 392 393
g ZBrush_defualt_group
f 243 216 219 222
g Group55845
f 390 389 395 396
g ZBrush_defualt_group
f 249 250 207 206
g Group55845
f 399 382 397 398
g ZBrush_defualt_group
f 36 37 38 35
g Group55845
f 403 400 401 402
g ZBrush_defualt_group
f 254 324 302 325
g Group55845
f 399 398 404 405
g ZBrush_defualt_group
f 36 39 40 37
g Group55845
f 409 406 407 408
g ZBrush_defualt_group
f 333 332 274 272
g Group55845
f 404 410 411 405
g ZBrush_defualt_group
f 40 39 180 41
g Group55845
f 409 412 413 406
g ZBrush_defualt_group
f 333 272 268 267
g Group55845
f 410 404 414 415
g ZBrush_defualt_group
f 41 42 43 40
g Group55845
f 408 416 417 418
g ZBrush_defualt_group
f 332 290 289 288
g Group55845
f 410 415 419 420
g Group55848
f 44 420 419 45
g ZBrush_defualt_group
f 41 44 45 42
g Group55845
f 419 415 359 421
g Group55848
f 45 419 421 46
g ZBrush_defualt_group
f 45 46 19 42
g Group55845
f 425 422 423 424
g ZBrush_defualt_group
f 258 198 197 200
g Group55845
f 359 415 414 360
g ZBrush_defualt_group
f 19 18 43 42
g Group55845
f 425 424 348 347
g ZBrush_defualt_group
f 258 259 262 198
g Group55845
f 421 359 358 426
g Group55848
f 46 421 426 47
g ZBrush_defualt_group
f 46 47 20 19
g Group55845
f 426 358 363 427
g Group55848
f 47 426 427 48
g ZBrush_defualt_group
f 47 48 21 20
g Group55845
f 427 363 428 429
g Group55848
f 48 427 429 49
g ZBrush_defualt_group
f 48 49 50 21
g Group55845
f 428 363 362 430
g ZBrush_defualt_group
f 50 51 22 21
g Group55845
f 428 431 432 429
g Group55848
f 49 429 432 52
g ZBrush_defualt_group
f 50 49 52 53
g Group55845
f 428 430 433 431
g ZBrush_defualt_group
f 50 53 54 51
g Group55845
f 433 430 434 435
g ZBrush_defualt_group
f 54 55 56 51
g Group55845
f 433 436 437 431
g ZBrush_defualt_group
f 54 53 57 58
g Group55845
f 433 435 438 436
g ZBrush_defualt_group
f 54 58 59 55
g Group55845
f 375 355 353 376
g ZBrush_defualt_group
f 32 31 12 16
g Group55845
f 438 439 440 436
g ZBrush_defualt_group
f 59 58 60 61
g Group55845
f 399 356 355 382
g ZBrush_defualt_group
f 36 35 16 15
g Group55845
f 439 438 441 442
g ZBrush_defualt_group
f 61 62 63 59
g Group55845
f 434 430 362 365
g ZBrush_defualt_group
f 56 23 22 51
g Group55845
f 439 442 443 444
g ZBrush_defualt_group
f 61 64 65 62
g Group55845
f 443 442 445 446
g ZBrush_defualt_group
f 65 68 142 62
g Group55845
f 443 447 448 444
g ZBrush_defualt_group
f 65 64 287 66
g Group55845
f 443 446 449 447
g ZBrush_defualt_group
f 65 66 67 68
g Group55845
f 451 450 378 381
g ZBrush_defualt_group
f 320 310 309 308
g Group55845
f 449 452 453 447
g ZBrush_defualt_group
f 67 66 69 70
g Group55845
f 456 454 445 455
g ZBrush_defualt_group
f 213 143 142 141
g Group55845
f 459 457 458 450
g ZBrush_defualt_group
f 321 308 307 322
g Group55845
f 456 455 460 461
g ZBrush_defualt_group
f 213 210 144 143
g Group55845
f 462 437 436 440
g ZBrush_defualt_group
f 282 60 58 57
g Group55845
f 465 452 463 464
g ZBrush_defualt_group
f 71 72 73 70
g Group55845
f 468 402 466 467
g ZBrush_defualt_group
f 323 305 304 324
g Group55845
f 465 464 469 470
g ZBrush_defualt_group
f 71 74 75 72
g Group55845
f 474 471 472 473
g ZBrush_defualt_group
f 330 295 294 293
g Group55845
f 469 475 472 470
g ZBrush_defualt_group
f 75 74 294 76
g Group55845
f 477 346 345 476
g ZBrush_defualt_group
f 329 263 261 260
g Group55845
f 475 469 478 479
g ZBrush_defualt_group
f 76 77 78 75
g Group55845
f 477 476 480 474
g ZBrush_defualt_group
f 329 330 264 263
g Group55845
f 475 479 481 482
g ZBrush_defualt_group
f 76 79 80 77
g Group55845
f 483 468 467 457
g ZBrush_defualt_group
f 251 322 305 323
g Group55845
f 481 484 485 482
g ZBrush_defualt_group
f 80 79 297 81
g Group55845
f 459 486 390 396
g ZBrush_defualt_group
f 321 250 249 248
g Group55845
f 484 481 487 488
g ZBrush_defualt_group
f 81 82 83 80
g Group55845
f 459 396 483 457
g ZBrush_defualt_group
f 321 322 251 250
g Group55845
f 484 488 489 490
g ZBrush_defualt_group
f 81 84 85 82
g Group55845
f 494 491 492 493
g ZBrush_defualt_group
f 316 241 240 239
g Group55845
f 489 495 496 490
g ZBrush_defualt_group
f 85 84 300 86
g Group55845
f 497 432 431 437
g Group55848
f 52 432 497 284
g ZBrush_defualt_group
f 284 57 53 52
g Group55845
f 495 489 498 499
g ZBrush_defualt_group
f 86 87 88 85
g Group55845
f 501 494 493 500
g ZBrush_defualt_group
f 315 242 241 316
g Group55845
f 495 499 502 503
g ZBrush_defualt_group
f 86 89 90 87
g Group55845
f 502 499 504 505
g ZBrush_defualt_group
f 90 93 127 87
g Group55845
f 502 506 507 503
g ZBrush_defualt_group
f 90 89 303 91
g Group55845
f 502 505 508 506
g ZBrush_defualt_group
f 90 91 92 93
g Group55845
f 509 458 457 467
g ZBrush_defualt_group
f 306 305 322 307
g Group55845
f 508 510 511 506
g ZBrush_defualt_group
f 92 91 94 95
g Group55845
f 509 511 510 512
g ZBrush_defualt_group
f 306 96 95 94
g Group55845
f 473 472 475 482
g ZBrush_defualt_group
f 295 79 76 294
g Group55845
f 466 511 509 467
g ZBrush_defualt_group
f 304 305 306 94
g Group55845
f 513 409 408 418
g ZBrush_defualt_group
f 331 290 332 333
g Group55845
f 512 510 514 515
g ZBrush_defualt_group
f 96 97 98 95
g Group55845
f 519 516 517 518
g ZBrush_defualt_group
f 228 225 135 134
g Group55845
f 512 515 520 521
g ZBrush_defualt_group
f 96 99 100 97
g Group55845
f 522 497 437 462
g Group55848
f 284 497 522 283
g ZBrush_defualt_group
f 283 282 57 284
g Group55845
f 520 379 378 521
g ZBrush_defualt_group
f 100 99 309 101
g Group55845
f 524 522 462 523
g Group55848
f 283 522 524 281
g ZBrush_defualt_group
f 281 280 282 283
g Group55845
f 379 520 525 526
g Group55848
f 102 526 525 103
g ZBrush_defualt_group
f 101 102 103 100
g Group55845
f 528 524 523 527
g Group55848
f 281 524 528 279
g ZBrush_defualt_group
f 279 278 280 281
g Group55845
f 379 526 529 380
g Group55848
f 105 529 526 102
g ZBrush_defualt_group
f 101 104 105 102
g Group55845
f 529 530 531 380
g Group55848
f 106 530 529 105
g ZBrush_defualt_group
f 105 104 312 106
g Group55845
f 530 532 533 531
g Group55848
f 107 532 530 106
g ZBrush_defualt_group
f 106 312 313 107
g Group55845
f 532 534 535 533
g Group55848
f 108 534 532 107
g ZBrush_defualt_group
f 107 313 314 108
g Group55845
f 534 536 501 535
g Group55848
f 109 536 534 108
g ZBrush_defualt_group
f 108 314 315 109
g Group55845
f 536 537 494 501
g Group55848
f 110 537 536 109
g ZBrush_defualt_group
f 109 315 316 110
g Group55845
f 537 538 491 494
g Group55848
f 111 538 537 110
g ZBrush_defualt_group
f 110 316 239 111
g Group55845
f 538 539 540 491
g Group55848
f 112 539 538 111
g ZBrush_defualt_group
f 111 239 238 112
g Group55845
f 539 541 542 540
g Group55848
f 113 541 539 112
g ZBrush_defualt_group
f 112 238 237 113
g Group55845
f 541 543 544 542
g Group55848
f 114 543 541 113
g ZBrush_defualt_group
f 113 237 232 114
g Group55845
f 543 545 546 544
g Group55848
f 115 545 543 114
g ZBrush_defualt_group
f 114 232 231 115
g Group55845
f 545 547 548 546
g Group55848
f 116 547 545 115
g ZBrush_defualt_group
f 115 231 234 116
g Group55845
f 547 549 550 548
g Group55848
f 117 549 547 116
g ZBrush_defualt_group
f 116 234 235 117
g Group55845
f 549 551 552 550
g Group55848
f 118 551 549 117
g ZBrush_defualt_group
f 117 235 236 118
g Group55845
f 551 553 554 552
g Group55848
f 119 553 551 118
g ZBrush_defualt_group
f 118 236 126 119
g Group55845
f 553 555 556 554
g Group55848
f 120 555 553 119
g ZBrush_defualt_group
f 119 126 125 120
g Group55845
f 555 557 558 556
g Group55848
f 121 557 555 120
g ZBrush_defualt_group
f 120 125 124 121
g Group55845
f 557 559 514 558
g Group55848
f 122 559 557 121
g ZBrush_defualt_group
f 121 124 98 122
g Group55845
f 559 560 515 514
g Group55848
f 123 560 559 122
g ZBrush_defualt_group
f 122 98 97 123
g Group55845
f 560 525 520 515
g Group55848
f 103 525 560 123
g ZBrush_defualt_group
f 123 97 100 103
g Group55845
f 562 528 527 561
g Group55848
f 279 528 562 277
g ZBrush_defualt_group
f 277 276 278 279
g Group55845
f 563 562 561 407
g Group55848
f 277 562 563 275
g ZBrush_defualt_group
f 275 274 276 277
g Group55845
f 564 563 407 406
g Group55848
f 275 563 564 273
g ZBrush_defualt_group
f 273 272 274 275
g Group55845
f 558 508 505 556
g ZBrush_defualt_group
f 124 125 93 92
g Group55845
f 558 514 510 508
g ZBrush_defualt_group
f 124 92 95 98
g Group55845
f 505 504 554 556
g ZBrush_defualt_group
f 93 125 126 127
g Group55845
f 513 565 412 409
g ZBrush_defualt_group
f 331 333 267 266
g Group55845
f 519 566 567 516
g ZBrush_defualt_group
f 228 134 133 132
g Group55845
f 470 472 471 568
g ZBrush_defualt_group
f 74 292 293 294
g Group55845
f 509 512 521 458
g ZBrush_defualt_group
f 306 307 99 96
g Group55845
f 466 507 506 511
g ZBrush_defualt_group
f 304 94 91 303
g Group55845
f 507 466 402 401
g ZBrush_defualt_group
f 303 302 324 304
g Group55845
f 571 498 569 570
g ZBrush_defualt_group
f 128 129 130 88
g Group55845
f 571 504 499 498
g ZBrush_defualt_group
f 128 88 87 127
g Group55845
f 569 572 573 570
g ZBrush_defualt_group
f 130 129 233 131
g Group55845
f 569 488 487 572
g ZBrush_defualt_group
f 130 131 83 82
g Group55845
f 569 498 489 488
g ZBrush_defualt_group
f 130 82 85 88
g Group55845
f 487 567 566 572
g ZBrush_defualt_group
f 83 131 132 133
g Group55845
f 574 564 406 413
g Group55848
f 273 564 574 270
g ZBrush_defualt_group
f 270 268 272 273
g Group55845
f 535 501 500 575
g ZBrush_defualt_group
f 314 317 242 315
g Group55845
f 577 343 350 576
g Group55848
f 271 576 350 11
g ZBrush_defualt_group
f 269 271 11 9
g Group55845
f 567 479 478 516
g ZBrush_defualt_group
f 133 134 78 77
g Group55845
f 567 487 481 479
g ZBrush_defualt_group
f 133 77 80 83
g Group55845
f 478 578 517 516
g ZBrush_defualt_group
f 78 134 135 136
g Group55845
f 533 535 575 579
g ZBrush_defualt_group
f 313 318 317 314
g Group55845
f 577 576 574 413
g Group55848
f 270 574 576 271
g ZBrush_defualt_group
f 269 268 270 271
g Group55845
f 531 533 579 580
g ZBrush_defualt_group
f 312 311 318 313
g Group55845
f 578 464 463 581
g ZBrush_defualt_group
f 136 137 73 72
g Group55845
f 578 478 469 464
g ZBrush_defualt_group
f 136 72 75 78
g Group55845
f 463 582 583 581
g ZBrush_defualt_group
f 73 137 138 139
g Group55845
f 477 474 473 584
g ZBrush_defualt_group
f 329 296 295 330
g Group55845
f 586 585 347 346
g ZBrush_defualt_group
f 328 260 259 327
g Group55845
f 586 346 477 584
g ZBrush_defualt_group
f 328 296 329 260
g Group55845
f 582 449 446 587
g ZBrush_defualt_group
f 139 140 68 67
g Group55845
f 582 463 452 449
g ZBrush_defualt_group
f 139 67 70 73
g Group55845
f 446 445 454 587
g ZBrush_defualt_group
f 68 140 141 142
g Group55845
f 486 459 450 451
g ZBrush_defualt_group
f 248 320 308 321
g Group55845
f 400 588 589 401
g ZBrush_defualt_group
f 325 302 301 326
g Group55845
f 590 344 343 577
g ZBrush_defualt_group
f 265 269 9 8
g Group55845
f 592 566 519 591
g ZBrush_defualt_group
f 230 229 228 132
g Group55845
f 592 573 572 566
g ZBrush_defualt_group
f 230 132 131 233
g Group55845
f 593 583 582 587
g ZBrush_defualt_group
f 218 140 139 138
g Group55845
f 455 441 594 460
g ZBrush_defualt_group
f 143 144 145 63
g Group55845
f 455 445 442 441
g ZBrush_defualt_group
f 143 63 62 142
g Group55845
f 594 595 596 460
g ZBrush_defualt_group
f 145 144 208 146
g Group55845
f 594 435 434 595
g ZBrush_defualt_group
f 145 146 56 55
g Group55845
f 594 441 438 435
g ZBrush_defualt_group
f 145 55 59 63
g Group55845
f 434 365 597 595
g ZBrush_defualt_group
f 56 146 147 23
g Group55845
f 590 577 413 412
g ZBrush_defualt_group
f 265 267 268 269
g Group55845
f 485 598 586 584
g ZBrush_defualt_group
f 297 296 328 298
g Group55845
f 365 364 599 597
g ZBrush_defualt_group
f 23 147 148 24
g Group55845
f 601 336 373 600
g ZBrush_defualt_group
f 334 163 162 161
g Group55845
f 364 602 603 599
g ZBrush_defualt_group
f 24 148 149 150
g Group55845
f 601 600 604 605
g ZBrush_defualt_group
f 334 183 164 163
g Group55845
f 608 606 403 607
g ZBrush_defualt_group
f 203 253 254 255
g Group55845
f 602 609 610 611
g ZBrush_defualt_group
f 150 151 152 153
g Group55845
f 602 364 361 609
g ZBrush_defualt_group
f 150 153 3 24
g Group55845
f 609 612 613 610
g ZBrush_defualt_group
f 153 152 154 155
g Group55845
f 609 361 360 612
g ZBrush_defualt_group
f 153 155 18 3
g Group55845
f 425 347 585 614
g ZBrush_defualt_group
f 258 257 327 259
g Group55845
f 616 606 615 422
g ZBrush_defualt_group
f 256 200 199 255
g Group55845
f 612 617 618 613
g ZBrush_defualt_group
f 155 154 156 157
g Group55845
f 612 360 414 617
g ZBrush_defualt_group
f 155 157 43 18
g Group55845
f 617 398 397 618
g ZBrush_defualt_group
f 157 156 38 37
g Group55845
f 617 414 404 398
g ZBrush_defualt_group
f 157 37 40 43
g Group55845
f 397 619 620 618
g ZBrush_defualt_group
f 38 156 158 159
g Group55845
f 623 395 621 622
g ZBrush_defualt_group
f 252 202 204 207
g Group55845
f 623 622 608 607
g ZBrush_defualt_group
f 252 253 203 202
g Group55845
f 400 616 614 588
g ZBrush_defualt_group
f 325 326 257 256
g Group55845
f 619 377 374 335
g ZBrush_defualt_group
f 159 160 34 33
g Group55845
f 619 397 382 377
g ZBrush_defualt_group
f 159 33 35 38
g Group55845
f 374 373 336 335
g ZBrush_defualt_group
f 34 160 161 162
g Group55845
f 468 483 623 607
g ZBrush_defualt_group
f 323 253 252 251
g Group55845
f 387 390 486 624
g ZBrush_defualt_group
f 212 247 248 249
g Group55845
f 383 386 625 626
g ZBrush_defualt_group
f 246 211 214 217
g Group55845
f 394 393 386 385
g ZBrush_defualt_group
f 243 244 217 216
g Group55845
f 394 385 575 500
g ZBrush_defualt_group
f 243 242 317 244
g Group55845
f 493 492 627 391
g ZBrush_defualt_group
f 241 222 221 240
g Group55845
f 600 367 628 604
g ZBrush_defualt_group
f 163 164 165 26
g Group55845
f 600 373 368 367
g ZBrush_defualt_group
f 163 26 25 162
g Group55845
f 628 629 630 604
g Group55848
f 182 630 629 166
g ZBrush_defualt_group
f 165 164 182 166
g Group55845
f 628 631 632 629
g Group55848
f 166 629 632 167
g ZBrush_defualt_group
f 165 166 167 168
g Group55845
f 628 367 366 631
g ZBrush_defualt_group
f 165 168 27 26
g Group55845
f 631 633 634 632
g Group55848
f 167 632 634 169
g ZBrush_defualt_group
f 168 167 169 170
g Group55845
f 631 366 371 633
g ZBrush_defualt_group
f 168 170 28 27
g Group55845
f 633 635 636 634
g Group55848
f 169 634 636 171
g ZBrush_defualt_group
f 170 169 171 172
g Group55845
f 633 371 637 635
g ZBrush_defualt_group
f 170 172 173 28
g Group55845
f 637 371 370 376
g ZBrush_defualt_group
f 173 31 29 28
g Group55845
f 637 352 638 635
g ZBrush_defualt_group
f 173 172 174 13
g Group55845
f 637 376 353 352
g ZBrush_defualt_group
f 173 13 12 31
g Group55845
f 638 639 636 635
g Group55848
f 171 636 639 175
g ZBrush_defualt_group
f 174 172 171 175
g Group55845
f 638 640 641 639
g Group55848
f 175 639 641 176
g ZBrush_defualt_group
f 174 175 176 177
g Group55845
f 638 352 351 640
g ZBrush_defualt_group
f 174 177 14 13
g Group55845
f 640 351 357 642
g ZBrush_defualt_group
f 177 178 17 14
g Group55845
f 640 642 643 641
g Group55848
f 176 641 643 179
g ZBrush_defualt_group
f 177 176 179 178
g Group55845
f 643 642 411 644
g Group55848
f 179 643 644 181
g ZBrush_defualt_group
f 179 181 180 178
g Group55845
f 493 391 394 500
g ZBrush_defualt_group
f 241 242 243 222
g Group55845
f 411 642 357 405
g ZBrush_defualt_group
f 180 39 17 178
g Group55845
f 468 607 403 402
g ZBrush_defualt_group
f 323 324 254 253
g Group55845
f 383 626 387 624
g ZBrush_defualt_group
f 246 247 212 211
g Group55845
f 644 411 410 420
g Group55848
f 181 644 420 44
g ZBrush_defualt_group
f 181 44 41 180
g Group55845
f 598 490 496 645
g ZBrush_defualt_group
f 298 299 300 84
g Group55845
f 405 357 356 399
g ZBrush_defualt_group
f 39 36 15 17
g Group55845
f 598 485 484 490
g ZBrush_defualt_group
f 298 84 81 297
g Group55845
f 647 646 527 523
g ZBrush_defualt_group
f 285 280 278 286
g Group55845
f 647 440 439 444
g ZBrush_defualt_group
f 285 64 61 60
g Group55845
f 630 648 605 604
g Group55848
f 184 648 630 182
g ZBrush_defualt_group
f 182 164 183 184
g Group55845
f 400 403 606 616
g ZBrush_defualt_group
f 325 256 255 254
g Group55845
f 648 649 650 605
g Group55848
f 186 649 648 184
g ZBrush_defualt_group
f 184 183 185 186
g Group55845
f 649 349 342 650
g Group55848
f 10 349 649 186
g ZBrush_defualt_group
f 186 185 1 10
g Group55845
f 650 651 601 605
g ZBrush_defualt_group
f 185 183 334 187
g Group55845
f 650 342 341 651
g ZBrush_defualt_group
f 185 187 5 1
g Group55845
f 651 337 336 601
g ZBrush_defualt_group
f 187 334 161 188
g Group55845
f 651 341 652 337
g ZBrush_defualt_group
f 187 188 189 5
g Group55845
f 616 422 425 614
g ZBrush_defualt_group
f 256 257 258 200
g Group55845
f 652 653 338 337
g ZBrush_defualt_group
f 189 188 190 191
g Group55845
f 462 440 647 523
g ZBrush_defualt_group
f 282 280 285 60
g Group55845
f 653 652 654 655
g ZBrush_defualt_group
f 191 192 193 189
g Group55845
f 657 581 583 656
g ZBrush_defualt_group
f 223 220 138 137
g Group55845
f 653 655 658 659
g ZBrush_defualt_group
f 191 194 195 192
g Group55845
f 658 655 423 660
g ZBrush_defualt_group
f 195 196 197 192
g Group55845
f 658 610 613 659
g ZBrush_defualt_group
f 195 194 154 152
g Group55845
f 658 660 611 610
g ZBrush_defualt_group
f 195 152 151 196
g Group55845
f 614 585 645 588
g ZBrush_defualt_group
f 257 326 299 327
g Group55845
f 423 655 654 424
g ZBrush_defualt_group
f 197 198 193 192
g Group55845
f 395 623 483 396
g ZBrush_defualt_group
f 207 250 251 252
g Group55845
f 660 423 422 615
g ZBrush_defualt_group
f 196 199 200 197
g Group55845
f 338 620 619 335
g ZBrush_defualt_group
f 190 160 159 158
g Group55845
f 660 615 661 611
g ZBrush_defualt_group
f 196 151 201 199
g Group55845
f 661 615 606 608
g ZBrush_defualt_group
f 201 203 255 199
g Group55845
f 661 603 602 611
g ZBrush_defualt_group
f 201 151 150 149
g Group55845
f 661 608 622 603
g ZBrush_defualt_group
f 201 149 202 203
g Group55845
f 593 587 454 662
g ZBrush_defualt_group
f 218 215 141 140
g Group55845
f 622 621 599 603
g ZBrush_defualt_group
f 202 149 148 204
g Group55845
f 663 384 383 624
g ZBrush_defualt_group
f 319 247 246 245
g Group55845
f 585 586 598 645
g ZBrush_defualt_group
f 327 299 298 328
g Group55845
f 663 624 486 451
g ZBrush_defualt_group
f 319 320 248 247
g Group55845
f 521 378 450 458
g ZBrush_defualt_group
f 99 307 308 309
g Group55845
f 664 621 395 389
g ZBrush_defualt_group
f 205 206 207 204
g Group55845
f 408 407 561 416
g ZBrush_defualt_group
f 332 288 276 274
g Group55845
f 664 389 388 596
g ZBrush_defualt_group
f 205 208 209 206
g Group55845
f 474 480 565 471
g ZBrush_defualt_group
f 330 293 266 264
g Group55845
f 388 461 460 596
g ZBrush_defualt_group
f 209 208 144 210
g Group55845
f 565 513 568 471
g ZBrush_defualt_group
f 266 293 292 331
g Group55845
f 461 388 387 626
g ZBrush_defualt_group
f 210 211 212 209
g Group55845
f 416 561 527 646
g ZBrush_defualt_group
f 288 286 278 276
g Group55845
f 461 626 625 456
g ZBrush_defualt_group
f 210 213 214 211
g Group55845
f 663 451 381 580
g ZBrush_defualt_group
f 319 311 310 320
g Group55845
f 625 662 454 456
g ZBrush_defualt_group
f 214 213 141 215
g Group55845
f 579 575 385 384
g ZBrush_defualt_group
f 318 245 244 317
g Group55845
f 662 625 386 393
g ZBrush_defualt_group
f 215 216 217 214
g Group55845
f 579 384 663 580
g ZBrush_defualt_group
f 318 311 319 245
g Group55845
f 662 393 392 593
g ZBrush_defualt_group
f 215 218 219 216
g Group55845
f 590 412 565 480
g ZBrush_defualt_group
f 265 264 266 267
g Group55845
f 392 656 583 593
g ZBrush_defualt_group
f 219 218 138 220
g Group55845
f 381 380 531 580
g ZBrush_defualt_group
f 310 311 312 104
g Group55845
f 656 392 391 627
g ZBrush_defualt_group
f 220 221 222 219
g Group55845
f 473 482 485 584
g ZBrush_defualt_group
f 295 296 297 79
g Group55845
f 656 627 665 657
g ZBrush_defualt_group
f 220 223 224 221
g Group55845
f 665 627 492 666
g ZBrush_defualt_group
f 224 227 240 221
g Group55845
f 665 518 517 657
g ZBrush_defualt_group
f 224 223 135 225
g Group55845
f 665 666 667 518
g ZBrush_defualt_group
f 224 225 226 227
g Group55845
f 589 503 507 401
g ZBrush_defualt_group
f 301 302 303 89
g Group55845
f 667 591 519 518
g ZBrush_defualt_group
f 226 225 228 229
g Group55845
f 668 465 470 568
g ZBrush_defualt_group
f 291 292 74 71
g Group55845
f 668 568 513 418
g ZBrush_defualt_group
f 291 290 331 292
g Group55845
f 589 496 495 503
g ZBrush_defualt_group
f 301 89 86 300
g Group55845
f 668 453 452 465
g ZBrush_defualt_group
f 291 71 70 69
g Group55845
f 592 591 544 546
g ZBrush_defualt_group
f 230 231 232 229
g Group55845
f 417 453 668 418
g ZBrush_defualt_group
f 289 290 291 69
g Group55845
f 592 546 548 573
g ZBrush_defualt_group
f 230 233 234 231
g Group55845
f 476 344 590 480
g ZBrush_defualt_group
f 263 264 265 8
g Group55845
f 548 550 570 573
g ZBrush_defualt_group
f 234 233 129 235
g Group55845
f 659 620 338 653
g ZBrush_defualt_group
f 194 191 190 158
g Group55845
f 550 552 571 570
g ZBrush_defualt_group
f 235 129 128 236
g Group55845
f 345 339 344 476
g ZBrush_defualt_group
f 261 263 8 7
g Group55845
f 552 554 504 571
g ZBrush_defualt_group
f 236 128 127 126
g Group55845
f 659 613 618 620
g ZBrush_defualt_group
f 194 158 156 154
g Group55845
f 664 597 599 621
g ZBrush_defualt_group
f 205 204 148 147
g Group55845
f 417 448 447 453
g ZBrush_defualt_group
f 289 69 66 287
g Group55845
f 664 596 595 597
g ZBrush_defualt_group
f 205 147 146 208
g Group55845
f 496 589 588 645
g ZBrush_defualt_group
f 300 299 326 301
g Group55845
f 348 424 654 340
g ZBrush_defualt_group
f 262 6 193 198
g Group55845
f 544 591 667 542
g ZBrush_defualt_group
f 232 237 226 229
g Group55845
f 348 340 339 345
g ZBrush_defualt_group
f 262 261 7 6
g Group55845
f 654 652 341 340
g ZBrush_defualt_group
f 193 6 5 189
g Group55845
f 542 667 666 540
g ZBrush_defualt_group
f 237 238 227 226
g Group55845
f 666 492 491 540
g ZBrush_defualt_group
f 227 238 239 240
g Group55845
f 448 417 416 646
g ZBrush_defualt_group
f 287 286 288 289
g Group55845
f 657 517 578 581
g ZBrush_defualt_group
f 223 137 136 135
g Group55845
f 647 444 448 646
g ZBrush_defualt_group
f 285 286 287 64

 