# File exported by ZBrush version 2021
# www.zbrush.com
#Vertex Count 1402
#Face Count 1401
#Auto scale x=0.047110 y=0.047110 z=0.047110
#Auto offset x=-0.029091 y=0.022900 z=-0.434581
v 5.78034983 12.90897186 1.18914256
v -0.16963531 12.99763544 -4.55579174
v -5.07982709 12.69396411 1.79268452
v -2.34764168 -10.50086502 20.78414696
v -3.54307299 -8.66980342 3.73512281
v 2.67422332 -9.58153479 19.640683
v 4.94280612 -8.88538178 3.60616852
v 5.47997027 12.93790221 3.40181893
v 5.31550557 13.70493245 3.3350606
v 5.53503233 13.72059578 1.10102934
v 5.12936714 13.81023611 -0.68055167
v 5.31074932 12.90644396 -0.78885072
v 1.40445459 12.95670834 -4.6283226
v 1.42765606 13.78977509 -4.4331205
v 0.08710041 13.88215334 -4.37530027
v -1.49063994 13.81832335 -3.6723556
v -1.56752376 12.91518911 -3.9344824
v -4.55070717 12.82160132 -0.39492164
v -4.65535514 12.65155418 3.81701624
v -1.45737117 -10.26049355 21.18577866
v -1.37764315 -11.02440124 21.8114998
v -2.49620772 -11.15700631 21.02460319
v -2.75642752 -10.16140714 19.64707423
v -1.76305862 -9.5810888 19.91208888
v -3.23116291 -11.03146999 19.55590615
v -4.84465439 13.64074061 1.78695311
v -4.32822961 13.56268963 3.80935348
v -3.15507111 -9.01628766 0.37773182
v -3.46687016 -5.32956177 0.44744063
v -3.97835018 -5.05582189 2.29826168
v -2.85925517 -12.57293638 2.24583316
v -2.5901852 -12.57268081 0.05489189
v -3.42012688 -9.99220833 7.15965548
v -3.10803049 -12.63060731 6.50362047
v -3.60685964 -4.23290309 4.2543086
v -3.6371501 -6.40323215 5.83603913
v -3.454132 -7.74822238 8.44124145
v 3.20945502 -9.13379873 18.16243044
v 4.50759852 -9.96138711 18.21012707
v 3.20589028 -10.26013234 20.2716687
v 1.56141089 -10.23126397 21.23024963
v 1.2901328 -9.43942165 20.04310167
v 1.4078142 -8.65702477 18.26240883
v 5.14936288 -5.35743251 1.96391843
v 4.53656715 -5.66420171 0.16009054
v 4.25811531 -9.53538741 0.08993575
v 3.87488834 -12.90337202 -0.07505812
v 4.29660119 -12.8106547 2.09329467
v 5.18428243 -10.4783436 6.79754586
v 5.1179701 -8.13098343 8.11288234
v 5.0266736 -6.64504723 5.62992583
v 4.827822 -4.33343311 4.14568818
v 4.95327228 -12.78974579 6.22501838
v 5.57334931 -12.87889775 10.17949732
v 5.59198589 -11.42698755 10.37234264
v 5.96156532 -11.8588882 14.18776424
v 5.77937625 -10.40634223 14.4840053
v 5.45895856 -9.36797192 11.07135978
v 5.99762895 -12.92124442 14.15751554
v 5.53681945 -12.81797775 18.13748867
v 5.45479981 -11.97241069 18.06816259
v 3.93929432 -11.82709087 20.67100783
v 3.67037333 -11.06498674 20.54871995
v 5.17668736 -10.98152318 18.13135492
v 3.99826336 -12.55155935 20.8443888
v 2.29846696 -12.3059461 22.05240645
v 2.11447433 -11.65403 21.9809738
v 0.10092634 -12.15659279 22.47735856
v 0.18390248 -11.57376995 22.36821244
v 0.10801565 -10.91109321 22.07184645
v 1.87941012 -10.97218338 21.76195533
v -0.06886585 -10.15128165 21.39401372
v -0.34432641 -9.36347219 20.07663866
v -2.00621165 -8.83872579 18.0067985
v -0.48066575 -8.53609573 18.20579877
v -2.04204185 -7.77063815 15.41238085
v -0.48970996 -7.40999555 15.71919244
v 1.52110042 -7.53629479 15.80021161
v -0.41719927 -6.01155641 12.83284273
v 1.43941938 -6.10926311 12.92190929
v 3.34339425 -6.71704859 12.54954861
v 3.64761752 -8.13575961 15.56446956
v 4.7202245 -7.76773006 11.88771955
v 5.04041065 -9.04819126 15.04978413
v 3.08627437 -5.39491918 10.02407548
v 4.3992555 -6.443223 9.19977634
v 2.91213031 -4.19475851 8.19882999
v 4.21339256 -5.11234844 7.21297471
v 2.8179466 -2.66997758 7.29132301
v 3.99879001 -3.31287225 5.93784195
v 2.92700937 -0.73078663 7.04980527
v 4.16045289 -1.01119196 5.76178695
v 4.87199501 -1.38461297 3.78982176
v 5.06309877 -1.64109581 1.61202035
v 4.55624501 -1.83678526 -0.07539846
v 3.65260246 -1.95573994 -1.40300402
v 3.64022552 -5.61847913 -1.17734192
v 3.43358368 -9.47259869 -1.5279653
v 2.33968412 -2.01258516 -2.28665146
v 2.46772493 -5.5080153 -2.10654588
v 2.39368562 -9.25510987 -2.47486958
v 2.20109429 -12.86204258 -2.58989515
v 3.15672316 -12.92996933 -1.66585579
v 1.12672519 -5.40795214 -2.52031476
v 1.14644353 -9.06708279 -2.91865818
v 1.09452362 -12.76308522 -3.03720862
v -0.17509185 -8.96063094 -2.87009172
v -0.06439269 -12.6796419 -2.99808444
v -1.40513875 -8.94555973 -2.34296608
v -1.11653991 -12.62347657 -2.46886109
v -2.40479071 -9.00921891 -1.31505971
v -1.98929876 -12.58919437 -1.50009393
v -1.47597233 -5.29547187 -1.97260032
v -2.69001397 -5.31604044 -1.01177237
v -1.38240478 -1.90392536 -2.25479087
v -2.70818432 -1.79991427 -1.35377712
v -3.57241074 -1.67563177 0.16476424
v -4.01897837 -1.52279912 1.9408264
v -3.74415421 -1.32861678 3.89670188
v -2.92696588 -1.01450334 5.75181232
v -2.71637563 -3.33887491 5.85707582
v -2.89954113 -5.07494717 7.19425478
v -1.74164346 -0.70149371 7.01110968
v -1.60313903 -2.67379837 7.17160525
v -1.62858958 -4.19049221 8.06370154
v -1.72778148 -5.2540371 9.90019739
v -2.86814645 -6.22305952 9.24709301
v -0.24534897 -2.35278619 7.86389415
v -0.21435742 -3.79242683 8.61650961
v -0.28557285 -4.81827312 10.36185759
v -1.92075364 -6.43178231 12.46360301
v 1.37820032 -3.81320795 8.709355
v 1.40409764 -4.85132333 10.46584709
v 1.31226976 -2.3761145 7.87858263
v -0.27453553 -0.57039731 7.69565073
v 1.33984333 -0.58145646 7.71125207
v 1.02468767 -2.03729303 -2.72023105
v -0.0633122 -2.00175953 -2.69598704
v -0.16483794 -5.33319166 -2.4822559
v 1.30473462 12.90326069 8.28528689
v 3.00964517 12.90309115 7.37238789
v 4.54979368 12.99844265 5.71903667
v 2.88884407 13.60673675 7.23524182
v 4.41470691 13.69036985 5.68348039
v 1.27431661 13.5895425 8.12706277
v -0.49556964 12.78920934 8.40390265
v -0.46837832 13.54498677 8.28736761
v -2.18403036 12.71878 7.62836275
v -2.12187804 13.53503207 7.50240338
v -3.64457943 12.66857888 6.02200802
v -3.43676949 13.56600195 5.87393035
v -3.27126794 12.87112428 -2.53542647
v -3.1183695 13.69794847 -2.36000597
v -4.35221678 13.69828755 -0.31979963
v 4.15940941 12.93556663 -2.76803206
v 2.80087635 12.91741842 -4.05638945
v 4.01090885 13.84137806 -2.64476869
v 2.71217006 13.74403006 -3.8950027
v -3.11603107 -8.6418903 14.94547682
v -2.99242768 -7.38798338 11.96424374
v -3.67318969 -9.96263967 14.38557964
v -3.52108042 -8.85286264 11.31099078
v -3.86552608 -11.52887767 13.94022092
v -3.55771814 -10.94494967 10.53122641
v -3.95883901 -12.86877351 13.76318981
v -3.4487403 -12.74858588 10.19444272
v -3.86567348 -11.797161 17.15668807
v -4.02094705 -12.77270084 17.30567827
v -3.43058797 -11.84708629 19.57619763
v -3.49473553 -12.5328595 19.78245706
v -2.57132878 -11.79805171 21.20741
v -2.52219013 -12.30195562 21.42874002
v -1.37146638 -11.66542703 22.08426451
v -1.3798927 -12.18575847 22.17335194
v -3.62646918 -10.67415996 17.33877244
v -3.06510751 -9.59323041 17.67502427
v 4.25856351 2.53284733 5.7515558
v 5.02518888 2.2563262 3.69351565
v 5.24384454 2.07995332 1.50830769
v 4.7463736 1.95015181 -0.25100747
v 3.78032191 1.87411758 -1.7420583
v -2.85008459 1.92695097 -1.64972053
v -3.81891659 1.99965263 0.02483549
v -4.28630646 2.07373401 1.90397644
v -3.97376378 2.20132803 3.87674884
v -3.10779769 2.43611706 5.81990829
v -0.33023455 2.79616501 7.87412529
v 1.33099182 2.81688256 7.85589104
v 2.94783272 2.70818021 7.13118834
v 2.45590025 1.82068985 -2.72774262
v 1.12037888 1.79999382 -3.19681396
v -0.09009928 1.82523244 -3.1612134
v -1.42903815 1.86817408 -2.67544125
v -1.85312627 2.68088261 7.16665954
v 4.34771515 5.74233177 5.7418978
v 2.96676774 5.83048674 7.2050782
v 2.5615237 5.24643222 -3.1321135
v 3.89638937 5.29353483 -2.05362455
v 1.20736321 5.23743213 -3.63306315
v -2.97903635 5.28372817 -1.92036348
v -1.47145077 5.26012372 -3.05993944
v -1.95442048 5.75419757 7.30800833
v -3.27213429 5.56935503 5.88178416
v -0.38086046 5.85564044 8.03631909
v 5.16443536 5.54059295 3.60504374
v 5.40809543 5.42002512 1.41221477
v 4.91915866 5.33643377 -0.41341146
v -4.0429646 5.31671416 -0.10345898
v -4.52924663 5.32756083 1.86997195
v -4.18244482 5.40200343 3.85847157
v 1.32294689 5.90497109 7.98736943
v -0.11444577 5.26088791 -3.58666147
v 4.44699261 9.30676978 5.73066777
v 2.98784539 9.30477453 7.28724745
v 2.67910024 9.01558167 -3.58602633
v 4.0255967 9.04854679 -2.40443898
v 1.30417856 9.02999434 -4.12189711
v -3.12257348 9.01091177 -2.2225039
v -1.51863847 9.02061215 -3.48952981
v -2.06721927 9.17541917 7.46538309
v -3.45508755 9.0567188 5.9506652
v -0.43721723 9.26162065 8.21689502
v 5.31943342 9.17450632 3.5052349
v 5.59096423 9.09923628 1.30268277
v 5.11151593 9.05582746 -0.59774791
v -4.29237917 9.00335465 -0.24663363
v -4.79971909 8.94617019 1.83199848
v -4.41474961 8.96321514 3.8381162
v 1.31398934 9.34274927 8.1337068
v -0.14155264 9.06168603 -4.06269274
v -2.97536344 -12.10639167 2.44519465
v -2.71410615 -12.00348432 0.04060827
v -3.26379275 -12.16561628 6.66067798
v 4.00443507 -12.28556858 0.01105922
v 4.43028674 -12.21494693 2.41485927
v 5.07670581 -12.28548255 6.42403984
v 5.58264577 -12.32411456 10.27573889
v 5.97963003 -12.39106456 14.17260858
v 5.49589424 -12.39598877 18.10288826
v 3.96884337 -12.19000453 20.75786722
v 2.20664129 -11.98060421 22.01676414
v 0.14234087 -11.86572288 22.42289241
v 2.19194711 -12.22528372 -2.5489731
v 3.23437085 -12.24043844 -1.55479667
v 1.07431438 -12.20654086 -2.98337888
v -0.06203781 -12.18389102 -2.92895195
v -1.13496504 -12.14256411 -2.40713515
v -2.07412132 -12.05251891 -1.43974707
v -3.91226842 -12.20008827 13.85153551
v -3.50312357 -12.24046122 10.30486504
v -1.37569156 -11.92609378 22.12890755
v -2.546709 -12.05048191 21.31827808
v -3.46272564 -12.19061942 19.6795301
v -3.9434711 -12.2858444 17.23132171
v 5.15152892 13.62040611 1.12187373
v 4.94348428 13.61104606 3.24221612
v 5.09587284 12.89708392 3.30394143
v 5.38069313 12.86791823 1.21094281
v 4.94019504 12.87345733 -0.64117571
v 4.77054929 13.71934322 -0.54068934
v -3.97191815 13.44912665 3.68838078
v -4.27830399 12.60534354 3.69192718
v -3.30976932 12.62746199 5.80494209
v -3.11371952 13.46396507 5.66938908
v -1.94401885 12.69065432 7.30571608
v -1.88411798 13.45729993 7.18988125
v -0.42083027 12.76320668 8.00498831
v -0.39491247 13.47224462 7.89651971
v 0.17553246 13.77860832 -4.00003308
v 1.35675923 13.70223501 -4.04878932
v 1.33412963 12.93809453 -4.22821928
v -0.07816991 12.96923394 -4.16129205
v -1.35748546 12.87855361 -3.592923
v -1.28834949 13.70711874 -3.35221246
v 1.19516197 12.86770567 7.89838733
v 1.16533834 13.50378638 7.75149801
v 2.7692737 12.86276122 7.0555147
v 2.65596551 13.51773155 6.92775129
v 4.08702975 13.60399883 5.47253019
v 4.21281911 12.95946903 5.50379739
v -2.20894683 -11.29854567 20.78075239
v -1.22752849 -11.20760976 21.48613893
v -1.31738201 -10.54017708 20.92880887
v -2.09347212 -10.72226019 20.55971718
v -1.616212 -9.90997582 19.73875218
v -2.46700028 -10.39978337 19.49441048
v -2.87761056 -11.15369398 19.42485161
v -4.45748028 13.53420462 1.78495787
v -4.67445985 12.65416558 1.79614425
v -3.58134536 -5.03516824 2.31365237
v -3.094828 -5.30171253 0.57944851
v -2.77630022 -8.97678455 0.48745298
v -3.15146177 -8.63452423 3.74985368
v -2.33520843 -11.94583363 0.13988446
v -2.59043919 -12.03721489 2.47756449
v -2.8762979 -12.10571352 6.68530108
v -3.02853685 -9.97272215 7.16971597
v -3.24602599 -6.45252042 5.7740361
v -3.22163649 -4.25521228 4.1528439
v -3.06103385 -7.80474956 8.41192687
v 3.00724949 -10.53361822 20.05460372
v 4.23784913 -10.21706323 18.05614877
v 3.05511644 -9.46434192 18.00834713
v 2.54159928 -9.90961524 19.46490445
v 1.22685571 -9.78380437 19.86074148
v 1.46584968 -10.52633692 20.97710078
v 1.34844283 -9.01276404 18.10424963
v 3.88647801 -9.50645579 0.22457718
v 4.17378254 -5.6451824 0.31890892
v 4.75301787 -5.34868736 2.00119287
v 4.55151311 -8.86748787 3.64838804
v 4.04629527 -12.16886282 2.47809335
v 3.63014304 -12.24731614 0.13319781
v 4.63593222 -6.70932194 5.58980783
v 4.72867327 -8.21285472 8.10496496
v 4.7936467 -10.47972331 6.83624208
v 4.43941398 -4.36414805 4.06659782
v 4.68999667 -12.2526022 6.47948463
v 5.19347452 -12.31702684 10.32184373
v 5.18441085 -12.86613934 10.22802123
v 4.56870672 -12.74323656 6.28396496
v 5.07422315 -9.46797118 11.07494713
v 5.39912127 -10.52228254 14.44443956
v 5.5684678 -11.89346647 14.17638682
v 5.20200775 -11.44526481 10.40976447
v 5.58583095 -12.40694298 14.1683853
v 5.1185891 -12.43999288 17.97947687
v 5.1589611 -12.86189582 18.01566891
v 5.60389471 -12.9375682 14.15471435
v 4.82901414 -11.12329597 17.98890207
v 3.40922201 -11.24214501 20.30074961
v 3.65078024 -11.93326753 20.41429108
v 5.08224934 -12.03884955 17.93897867
v 3.67334531 -12.27041133 20.50019524
v 2.04584856 -12.06257988 21.65836982
v 2.13754897 -12.38794455 21.69398936
v 3.70200112 -12.63194591 20.58743799
v 0.18324394 -11.68888408 21.98356495
v 0.1412996 -11.93638755 22.02977559
v 1.95786186 -11.77345091 21.63030993
v 1.74358003 -11.17746733 21.44387449
v 0.11258085 -11.12166132 21.72971138
v -0.05500481 -10.45486694 21.13307369
v -0.31908794 -9.7133105 19.89379263
v -0.44373197 -8.89618669 18.04653378
v -1.83295878 -9.17094538 17.8638788
v -0.44069657 -7.76792111 15.55481219
v -1.84607761 -8.09375138 15.27568093
v 1.45459672 -7.88950806 15.63623623
v 1.36686638 -6.46041724 12.75164928
v -0.3542199 -6.36695534 12.66483259
v 3.46882429 -8.46178092 15.42381901
v 3.14137992 -7.0330937 12.41407973
v 4.73423547 -9.29355146 14.95581298
v 4.39609246 -7.99615096 11.82064303
v 4.06495463 -6.64912248 9.11503958
v 2.87022836 -5.69417397 9.8706485
v 3.87213049 -5.27874512 7.08296112
v 2.67712857 -4.43982138 7.97310487
v 3.64944038 -3.38548883 5.74756532
v 2.57343599 -2.77774573 6.97865302
v 3.82275683 -1.00851742 5.549668
v 2.69710327 -0.73641172 6.72151195
v 4.48795957 -1.37962471 3.69653129
v 4.641112 2.27027265 3.60300485
v 3.92025097 2.54239937 5.53907596
v 4.66535127 -1.63118287 1.64961425
v 4.84722182 2.10033099 1.54184469
v 4.19842668 -1.81850894 0.09316331
v 4.38585689 1.97623955 -0.08910957
v 3.36644358 -1.93075594 -1.12741536
v 3.49045089 1.9092266 -1.47167219
v 3.34406987 -5.61308774 -0.91171301
v 3.12171978 -9.4647025 -1.28088568
v 2.27876254 -5.51451058 -1.75574916
v 2.15997866 -1.98240066 -1.93456423
v 2.18986552 -9.26672073 -2.131506
v 2.91346448 -12.22713093 -1.31888318
v 1.9788296 -12.23549399 -2.21123212
v 1.0849719 -9.09015648 -2.52509221
v 1.06879615 -5.41792898 -2.12594286
v 1.00849136 -12.22933746 -2.58926001
v 0.03206175 -12.72623463 -2.61246022
v 0.03276047 -12.20840831 -2.54086182
v 1.025833 -12.80358469 -2.64502553
v -0.87988342 -12.64790783 -2.14897353
v -0.90140596 -12.14918623 -2.08368095
v -1.65381002 -12.55873563 -1.28508745
v -1.74153861 -12.02371507 -1.22149279
v -2.2141108 -12.50059404 0.15204885
v -2.37914864 -5.30190358 -0.75947248
v -1.27639765 -5.29581126 -1.62860033
v -1.18444309 -8.95301057 -2.01095778
v -2.07983059 -8.99406293 -1.08400844
v -2.40945934 -1.7701544 -1.08782685
v -1.19849612 -1.87098143 -1.90618297
v -3.20603673 -1.65096621 0.31035671
v -3.45288134 2.02949742 0.17144962
v -2.55333524 1.96123223 -1.38304972
v -3.61989323 -1.5031219 1.95816867
v -3.88809337 2.10268729 1.91983272
v -3.36665803 -1.31337603 3.77893586
v -3.596353 2.22601487 3.76275885
v -2.59931054 -0.9996234 5.52948343
v -2.77871931 2.45821401 5.5988949
v -2.37330968 -3.40569681 5.65501848
v -2.56139939 -5.23832948 7.05439166
v -1.34826949 -2.76732338 6.86655563
v -1.50492293 -0.69446766 6.68988574
v -1.38550123 -4.43018457 7.84226438
v -2.52800884 -6.41764483 9.15569087
v -1.5078092 -5.55469279 9.75481526
v -0.11607774 -4.07576144 8.32954514
v -0.14450083 -2.46732575 7.48270401
v -0.208626 -5.16552154 10.18058121
v -1.70880455 -6.74555574 12.33089357
v 1.33041932 -5.1958759 10.27860587
v 1.29968263 -4.09853781 8.42141407
v 1.23288164 -2.49838056 7.49611891
v 1.26087978 -0.59183634 7.31868451
v -0.18464049 -0.57544929 7.30359305
v 1.24578769 2.83290869 7.46553112
v -0.24666495 2.81730704 7.48215222
v 2.71796885 2.71839016 6.8049967
v 3.50108532 -12.85731068 0.04468225
v 2.83275908 -12.92345348 -1.43316543
v 2.74957513 9.31479376 6.96901589
v 4.11016638 9.31621585 5.51757303
v -3.11233886 -12.21980788 10.34160801
v -3.52110162 -12.22379836 13.87537307
v -3.47463604 -11.56324338 13.95193774
v -3.16636029 -10.95057481 10.55480974
v -3.13165486 -8.92609506 11.30095084
v -3.28926338 -10.05650455 14.36617887
v -2.75239497 -9.82576958 17.57364529
v -2.65294924 -7.59156941 11.89247675
v -2.78572131 -8.85804179 14.86714939
v -3.25234826 -10.78872119 17.28010009
v 3.84731429 12.90983979 -2.51846882
v 3.7223527 9.08363431 -2.15173549
v 2.47379257 9.06143108 -3.2484979
v 2.58398281 12.89754951 -3.71695182
v -3.4793458 -11.85899448 17.11686802
v 1.2396486 9.08127848 -3.73049339
v 0.96745987 -2.00224774 -2.32812893
v 0.01028238 -1.96611974 -2.30785643
v -0.01510474 1.8725892 -2.77469593
v 1.06000893 1.84968553 -2.80626173
v -0.08661773 -5.34123652 -2.09145062
v -0.08812492 -8.98217625 -2.48127915
v -1.24419735 1.90918422 -2.32838197
v -3.06415196 -11.92418331 19.44794744
v -2.27392089 -11.8923632 20.95514933
v -1.31993458 9.06168603 -3.1502187
v -2.82389057 9.04495928 -1.96124377
v -2.96687576 12.8351644 -2.27302006
v -1.21273183 -11.77759068 21.73236833
v 0.10071505 -12.22730047 22.08413672
v -1.2192075 -12.00923851 21.76996033
v -1.22546904 -12.26918155 21.81436551
v -2.82707543 13.59457299 -2.1110222
v -2.25127199 -12.132035 21.05909922
v -2.22947333 -12.38461198 21.16646266
v -3.0952278 -12.26003153 19.54890003
v -3.12791584 -12.6028865 19.64987478
v -3.12541578 9.07879487 5.73145568
v -1.8330456 9.19757938 7.1426099
v -3.55521144 -12.34005624 17.19623356
v -3.63245616 -12.82708222 17.27143908
v -0.36126808 9.28286864 7.82161042
v 2.50009477 13.65976182 -3.56940523
v 3.70734443 13.75636335 -2.40562955
v -4.18023798 12.78793653 -0.24467951
v -3.99533091 13.60236417 -0.17690206
v -3.56792778 -12.89275942 13.79103967
v 4.78125078 5.55449637 3.51107196
v 4.01018862 5.75184111 5.52909849
v 5.01121998 5.44052979 1.44108187
v 4.55641549 5.3628609 -0.25695018
v 3.5994708 5.32885578 -1.79234418
v -3.67733326 5.3467927 0.0446424
v -2.68133303 5.31796672 -1.65653623
v -4.13033229 5.35662024 1.88304729
v -3.80626415 5.42662637 3.74155515
v -2.94273739 5.59145197 5.66170481
v 1.22908209 5.92091277 7.59875029
v -0.30113268 5.87684604 7.64268986
v 2.73261479 5.84061161 6.88289934
v 2.27054783 1.86554196 -2.38053784
v -0.03446313 5.30892425 -3.2007804
v 1.14478831 5.28818551 -3.2421516
v -1.27949774 5.30132475 -2.71672388
v -1.62101206 2.70295836 6.8431008
v 2.36587909 5.29204884 -2.78978992
v -1.7212446 5.77631602 6.98487391
v 4.93722369 9.18832498 3.40776163
v 5.19383258 9.11969857 1.32683947
v 4.7466918 9.08231848 -0.44633673
v -3.92708723 9.03353947 -0.09730309
v -4.4000608 8.97527199 1.84220749
v -4.039843 8.9877318 3.71822652
v 1.21167644 9.35860555 7.747019
v -0.05637061 9.10997667 -3.67744808
v -2.47963532 -12.48255211 2.28140905
v -2.72715904 -12.54328232 6.53244708
v 3.91511389 -12.75075193 2.15829182
v 1.98485739 -12.88832358 -2.25561832
v -3.05874096 -12.71422017 10.23606815
v -3.88756103 -5.80961136 2.59795708
v -3.40183664 -6.09852398 0.4329008
v -3.61317748 -4.68558171 4.58421949
v 4.47848945 -6.47163778 0.14545835
v 5.1062808 -6.09327778 2.30645204
v 4.86929726 -4.81558043 4.45526489
v 4.04355165 -3.68819986 6.20380361
v 2.83759061 -2.98801019 7.4806074
v 3.59712541 -6.42235585 -1.25047376
v 2.45228142 -6.28956923 -2.18336707
v 1.13083713 -6.17115859 -2.60339876
v -2.63052208 -6.08634884 -1.07502985
v -1.46119749 -6.0567922 -2.04985042
v -2.75457936 -3.70097788 6.13597871
v -1.60844739 -2.99014428 7.35767521
v -0.23888484 -2.65306058 8.02087116
v 1.32602128 -2.67585766 8.05186176
v -0.16697741 -6.08978832 -2.56314855
v -3.0645951 -8.71377273 2.99446214
v -3.46869587 -5.09688501 1.91210797
v -3.77509531 -5.87650759 2.09665191
v -3.45323497 -8.75002994 2.95773744
v -2.53134204 -12.01605547 1.93628745
v -2.91487139 -12.08256518 1.88842761
v -3.7873217 2.08574056 1.51500446
v -3.52406664 -1.53735437 1.57662729
v -3.91557696 -1.55818665 1.5295892
v -4.17808585 2.05658088 1.46887164
v -3.85991993 -5.11920463 1.86971638
v -4.35047173 13.54998689 1.33070154
v -4.56002546 12.68513799 1.32360306
v -4.73063467 13.65406583 1.29914713
v -4.95731274 12.72351949 1.28615719
v -4.02544298 5.35434476 1.45737528
v -4.41665154 5.32504938 1.41303526
v -4.29054777 8.98876358 1.39312398
v -4.68224755 8.95941065 1.35070265
v -2.41815515 -12.48672984 1.78836762
v -2.79695229 -12.57287565 1.73853341
v 5.08187642 13.63849359 0.81792215
v 5.30015854 12.8689304 0.87233453
v 5.46086619 13.73698535 0.77531801
v 5.69449628 12.90850879 0.82752195
v 4.64712145 -5.40289319 1.69363417
v 4.42992868 -8.98430561 3.02243979
v 4.81762976 -9.00421753 2.96332209
v 4.99150606 -6.16245013 1.91137414
v 3.97021296 -12.18320527 2.04939495
v 4.35243187 -12.22785717 1.97539138
v 4.76287451 2.0776443 1.24367008
v 4.57998609 -1.6654302 1.36506092
v 4.97043584 -1.67687216 1.30352223
v 5.15289472 2.05622267 1.18666654
v 5.03733018 -5.41351686 1.63413817
v 4.92807272 5.42633031 1.13064545
v 5.31870782 5.40474261 1.07844909
v 5.11208686 9.11286452 1.00266284
v 5.50331123 9.09130023 0.95524266
v 3.83941905 -12.77023367 1.77187557
v 4.21950196 -12.82760602 1.69687185
v 0.12778618 -12.56045885 -1.97266485
v 0.29957741 -12.5654691 -0.77391172
v -0.53451226 -12.49196023 -0.58310307
v -0.72540599 -12.47847559 -1.72271825
v 2.29248947 -12.29850159 21.125261
v 3.09120111 -12.36294394 20.61557379
v 3.6016128 -12.51676346 21.43294938
v 2.13857411 -12.36721783 22.45806406
v 0.53307751 -12.5615773 2.39053935
v -0.43614749 -12.51832473 2.56060167
v 4.5793984 -12.54712098 16.72458435
v 4.27056532 -12.51511615 18.25945645
v 3.12102075 -12.47953837 18.53660133
v 3.34540467 -12.52338812 16.96016951
v 3.73774338 -12.44168826 19.73674492
v 2.79369453 -12.39542196 20.11733171
v 4.86733902 -12.70431608 19.79995243
v 2.55396864 -12.64464359 2.13241442
v 1.52814623 -12.60569021 2.24524167
v 1.21578004 -12.26506455 21.34239683
v 1.01077412 -12.31615131 22.80378221
v -0.09261832 -12.2968391 22.86922787
v 0.07284937 -12.25499092 21.33580634
v -1.04280804 -12.2726204 21.06689293
v -1.25492383 -12.31240122 22.62029092
v -2.03049741 -12.33107323 20.45470451
v -2.54649392 -12.42637918 21.71920505
v -3.56665529 -12.66962142 19.77997155
v -2.5349732 -12.41735063 19.4555501
v 1.85910693 -12.44909988 18.65177555
v 2.06063557 -12.4963657 17.09429473
v 1.55005529 -12.36857667 20.13907312
v -1.8200204 -12.54306218 8.68332499
v -2.7327633 -12.53171322 8.62906444
v -1.35646791 -12.43037473 -0.32129701
v 0.32460838 -12.35637749 20.08653136
v 0.60524177 -12.43250535 18.62886318
v 0.80117864 -12.47978129 17.10109335
v -0.60546571 -12.43319362 18.47623802
v -0.43335596 -12.47804542 16.99608701
v -0.838566 -12.36437616 19.8818389
v -1.74295755 -12.45479334 18.24874263
v -1.85874793 -12.39485767 19.5754771
v 2.59572398 -12.69476879 -1.60984355
v 2.91502765 -12.69575818 -0.76634512
v 2.02866032 -12.67884482 -0.82439625
v 1.81062904 -12.67833367 -1.87628473
v -1.6494327 -12.49493854 16.82243907
v -2.65802464 -12.50749198 6.8076954
v -1.75880877 -12.52502277 6.75102019
v 4.69761799 -12.55865213 15.201034
v 3.42775326 -12.54403386 15.40704482
v 3.54659755 -12.66815124 2.03462612
v 2.13006745 -12.5215156 15.54402625
v 0.87456051 -12.50758308 15.57671429
v -2.08833725 -12.38882261 -0.12272754
v -0.3613916 -12.50683913 15.51566334
v -1.60693372 -12.52157886 15.39270173
v 1.14572204 -12.63225209 -0.84970114
v 0.96237815 -12.63233813 -2.01297706
v -2.05446434 -12.37175235 -0.95727206
v -1.55046031 -12.40868139 -1.28997117
v 0.42999041 -12.57162309 6.48145489
v -0.70759496 -12.54717665 6.63889703
v -2.80482445 -12.56439366 12.52392109
v -2.78419863 -12.5648542 11.21563516
v -1.75243842 -12.56424943 11.31721294
v -1.68537091 -12.5593986 12.62425531
v -2.28158523 -12.46765043 2.85874212
v -1.38793233 -12.48665139 2.7301402
v 3.31967403 -12.58249886 12.43834525
v 4.5871842 -12.6009406 12.22741656
v 4.6813037 -12.57492783 13.69881072
v 3.40345959 -12.56130654 13.8957664
v 2.86330938 -12.61672034 6.12235363
v 1.63094651 -12.59536101 6.30074042
v 2.00587147 -12.55912279 12.59808091
v 2.09667817 -12.54010917 14.0387073
v 0.8399318 -12.52841101 14.09561183
v -2.72485002 -12.48475864 18.05245181
v -2.78172071 -12.517973 16.64184639
v 0.74115394 -12.54711339 12.6797058
v -0.48234532 -12.54762959 12.6844766
v -0.39019148 -12.52939029 14.07164238
v -1.62695998 -12.54338354 13.98796341
v 3.1067928 -12.60928848 9.67673557
v 4.33510351 -12.62323871 9.42807467
v 4.4624668 -12.62077155 10.80226861
v 3.21386681 -12.6007154 11.0368375
v 4.20181966 -12.61630282 7.95594344
v 2.99935851 -12.61108002 8.18205991
v -2.80098231 -12.53595674 15.25315445
v -2.80986917 -12.55206796 13.87804203
v 1.7934484 -12.58589216 9.88373151
v 1.89664264 -12.57574009 11.22176306
v 1.70599657 -12.59056839 8.39082762
v 0.62277034 -12.56164815 11.33159002
v 0.51875773 -12.56939885 10.02304631
v 0.44832699 -12.57165852 8.55667426
v -0.6866545 -12.56005651 10.08382129
v -0.5939314 -12.5584168 11.36240128
v -0.73598222 -12.5554562 8.660014
v -1.80352945 -12.55712881 10.0588074
v 4.01262131 -12.6200352 5.96582624
v -2.75917493 -12.55152392 9.96029776
v 6.15805414 -12.8432238 16.42352632
v 5.73492774 -12.81759818 17.97694517
v -3.64687579 -12.81889629 8.46620869
v 3.1315935 -12.86459831 -2.1432497
v 3.96882217 -12.89817959 -0.90645226
v -3.56767537 -12.79046949 6.81735198
v 6.31482667 -12.84429417 14.93930132
v 4.69982452 -12.93522755 1.89191454
v -3.03191845 -12.60164153 -0.11900465
v -2.70288087 -12.58325546 -1.3683043
v -4.13687913 -12.84721682 12.36894042
v -3.93467819 -12.85859867 11.03899105
v -3.33155185 -12.72838802 2.94454886
v 6.127603 -12.90891619 11.93284305
v 6.28220822 -12.86628357 13.43967266
v -4.0249505 -12.79032525 17.93112296
v -4.21786762 -12.81794232 16.46248222
v 5.74058925 -12.91916947 9.07389185
v 5.92807134 -12.93358784 10.46527727
v 5.56338892 -12.88788076 7.65548955
v -4.30232311 -12.82054107 15.09939439
v -4.27229645 -12.82864349 13.73556262
v 5.31609705 -12.87834358 5.81443783
v -3.75135612 -12.84156385 9.75851814
v 1.78160347 -12.82667988 -3.04341449
v 0.83540803 -12.77612957 -3.36410293
v -0.03797251 -12.69918944 -3.3816236
v -1.03707189 -12.62338801 -3.02003083
v -2.17397192 -12.58736993 -2.16889177
v -0.62760899 -14.67625154 -0.56976647
v 0.22751279 -14.74184271 -0.75709135
v 0.05703168 -14.73783704 -1.98678842
v -0.82612152 -14.66903983 -1.7419381
v 3.63761791 -14.11760187 21.60812569
v 3.36363892 -14.5097723 21.06955874
v 2.58416405 -14.4365595 21.64930078
v 2.24973508 -13.99798358 22.66164819
v 0.46048908 -14.72044037 2.37718693
v -0.49491568 -14.68094295 2.56818346
v 3.36434617 -14.62728021 18.80427862
v 4.44313308 -14.67532035 18.48682596
v 4.68853408 -14.71157376 16.86495718
v 3.51571466 -14.6753001 17.12521337
v 3.96999882 -14.59580678 20.08514722
v 3.08721869 -14.53617477 20.52426971
v 4.82762779 -14.26352139 19.94302206
v 2.47120252 -14.79331663 2.09357302
v 1.45001965 -14.75947977 2.21473423
v 1.48752815 -14.39213534 21.89344637
v 1.13399225 -13.9536404 23.02208077
v 0.2750791 -14.37124668 21.87896475
v 0.00687421 -13.93581608 23.07782225
v -0.90238903 -14.38307642 21.5773671
v -1.15851461 -13.94701069 22.80420858
v -1.89430009 -14.44406221 20.90131453
v -2.39381435 -14.03862475 21.86927575
v -2.3523761 -14.54329791 19.80173891
v -3.3399845 -14.22559031 19.91094892
v 2.15770682 -14.59366857 18.93860247
v 2.30600558 -14.64677208 17.27046929
v 1.86545704 -14.50268458 20.56315982
v -2.65270822 -14.67503694 8.61703725
v -1.80918954 -14.67051507 8.66247191
v -1.45559734 -14.62918056 -0.31165545
v 0.92876492 -14.57305066 18.91919221
v 0.6186777 -14.48303583 20.50935917
v 1.10939272 -14.62807224 17.27985338
v -0.27408179 -14.57032539 18.7588657
v -0.08000415 -14.62384896 17.17103242
v -0.57374872 -14.48607234 20.2864894
v -1.4184431 -14.5896047 18.50902475
v -1.61050431 -14.51479773 19.94645965
v 2.02578797 -14.83645279 -0.80834702
v 2.93525809 -14.85381405 -0.75955978
v 2.63459733 -14.85435303 -1.61606334
v 1.82601782 -14.84039267 -1.883356
v -1.28472133 -14.63842421 16.9821975
v -2.61169508 -14.65591198 6.82126417
v -1.79147055 -14.65901175 6.7463582
v 4.75092963 -14.7253747 15.29198699
v 3.52316391 -14.69727685 15.50665186
v 3.46365905 -14.82366149 2.00649664
v 2.30466018 -14.6731543 15.64607642
v 1.13350957 -14.65717213 15.67893463
v -2.18393673 -14.62222695 -0.11829234
v -0.03065041 -14.65374088 15.6154918
v -1.24620825 -14.66592741 15.48306323
v 1.10932756 -14.79947315 -0.83109998
v 0.9366589 -14.80197574 -2.02224221
v -2.19658855 -14.62901609 -0.97951514
v -1.6757564 -14.63047361 -1.31507046
v 0.32565677 -14.71079185 6.41702614
v -0.79045327 -14.68290656 6.60570717
v -1.59348799 -14.6930308 11.32268024
v -2.61120513 -14.70935963 11.22267022
v -2.58506868 -14.7121431 12.54648394
v -1.44227212 -14.69272967 12.65079758
v -2.27087489 -14.64162267 2.90488633
v -1.41753246 -14.6509068 2.75929892
v 4.676593 -14.74166305 13.75800149
v 4.52410227 -14.76600827 12.24828814
v 3.271372 -14.7317539 12.45338009
v 3.42398483 -14.71325649 13.95229042
v 2.75174117 -14.76106382 6.02425377
v 1.51484671 -14.73759412 6.21067055
v 2.02234074 -14.70458219 12.6152761
v 2.19149717 -14.68933131 14.09417835
v 1.02587997 -14.67438409 14.15174427
v -2.49410114 -14.67089716 16.77003902
v -2.4771495 -14.62712586 18.27692272
v 0.84301891 -14.68805851 12.70241985
v -0.29521385 -14.68394657 12.71085344
v -0.11904545 -14.67168412 14.1272915
v -1.3106612 -14.68283065 14.03890563
v 4.35632935 -14.78335434 10.77171546
v 4.22182457 -14.78381235 9.3500274
v 2.98230297 -14.75388753 9.59957316
v 3.11299962 -14.74711611 11.00437988
v 4.11056017 -14.77554545 7.85877889
v 2.87664631 -14.75507177 8.0776691
v -2.54775976 -14.70423552 13.91656587
v -2.51149686 -14.69133794 15.32140192
v 1.70047186 -14.72595669 9.82379146
v 1.84723908 -14.71778342 11.19948346
v 1.59261001 -14.73048616 8.30304763
v 0.64459764 -14.69845603 11.32252715
v 0.36304895 -14.70653568 8.49409114
v 0.47603416 -14.70400778 9.98386054
v -0.6717155 -14.68943253 10.0607147
v -0.4969639 -14.69009297 11.36275997
v -0.7835596 -14.68536867 8.62101073
v -1.72580079 -14.6837998 10.04641432
v 3.94020527 -14.7777039 5.89362655
v -2.63477573 -14.69424793 9.95282565
v 5.64544904 -14.34376626 18.08205463
v 6.0513347 -14.35125632 16.49287643
v -3.49720807 -14.28096615 8.47480771
v 3.92715492 -14.52536732 -0.90357137
v 3.13265849 -14.54065109 -2.12981567
v -3.42798638 -14.26523702 6.82964004
v 6.20057289 -14.33841694 14.99451141
v 4.57434356 -14.47975639 1.90153521
v -3.00851075 -14.3314279 -0.12609111
v -2.69456589 -14.36722077 -1.34765033
v -3.75675668 -14.31916799 11.05666607
v -3.94742173 -14.31615425 12.39200082
v -3.22918127 -14.29324631 2.97266189
v 6.15435593 -14.34720257 13.49099887
v 5.97948959 -14.37864058 11.97184261
v -3.97194124 -14.32366202 16.510888
v -3.77264934 -14.3123662 18.02112578
v 5.76762337 -14.39772505 10.477779
v 5.59115623 -14.3849211 9.06024258
v 5.44248549 -14.36085675 7.63511345
v -4.06794211 -14.30896025 13.75860214
v -4.07596957 -14.31331258 15.12706649
v 5.21376696 -14.36567721 5.80842364
v -3.58852576 -14.30026824 9.77012346
v 1.80216065 -14.54579038 -3.01225989
v 0.82594234 -14.51567326 -3.33088224
v -0.08029641 -14.45151937 -3.34897731
v -1.07688845 -14.39684447 -2.98722639
v -2.15566903 -14.36974361 -2.13273452
v 3.32497907 -12.20240361 20.97787635
v 2.14634979 -12.10338299 21.76752859
v 4.33323447 -12.32468897 19.68674118
v 1.06877369 -12.06729659 22.06251424
v -0.01882953 -12.05799728 22.09807431
v -1.13155514 -12.07654024 21.83960651
v -2.26307896 -12.15742024 21.06355277
v -3.06273081 -12.30353208 19.55431578
v 5.05814356 -12.40344847 18.06868639
v 5.44093814 -12.42272272 16.53870876
v -3.27591918 -12.38791671 8.55066853
v 3.51232389 -12.57420412 -0.83813013
v 2.87516712 -12.57497084 -1.89531733
v -3.1980681 -12.36479368 6.81551347
v 5.58582873 -12.42180671 15.04119017
v 4.21219631 -12.54728546 1.95546048
v -2.60093318 -12.24743254 -0.09726134
v -2.32040133 -12.23801682 -1.11942491
v -3.44954845 -12.42362355 11.12058193
v -3.56155205 -12.42118422 12.43744822
v -2.88151627 -12.33095177 2.90964037
v 5.56666867 -12.43562789 13.54372693
v 5.44871414 -12.46656235 12.05862799
v -3.57816588 -12.40004251 16.52141267
v -3.42777097 -12.38075814 17.94573427
v 5.29184893 -12.48770405 10.61874743
v 5.13421258 -12.48266091 9.24214112
v 4.97362987 -12.46608409 7.79910876
v -3.63250614 -12.40990864 13.79495266
v -3.64056871 -12.40282345 15.15776246
v 4.75025021 -12.46937871 5.87600309
v -3.34406766 -12.40822338 9.85703046
v 1.78745034 -12.56083589 -2.55125428
v 0.8873447 -12.51872201 -2.80196253
v 0.0348389 -12.4452258 -2.79393982
v -0.88996116 -12.35628639 -2.46463528
v -1.82666498 -12.27668426 -1.74425218
v -0.63666475 -14.6820285 4.4808516
v 0.40057825 -14.7151037 4.28230523
v 0.49069556 -12.56643572 4.32301409
v -0.56377742 -12.53314038 4.493022
v 1.48958333 -14.74744001 4.09176101
v 2.61686569 -14.77591236 3.93690212
v 2.71659166 -12.62980517 4.00740294
v 1.58871924 -12.59981962 4.15493309
v -1.60119867 -14.655082 4.65782547
v -1.5681162 -12.50640896 4.64193123
v -3.04111465 -12.3486521 4.78767078
v -3.4529582 -12.7608964 4.81779329
v 5.00568182 -12.90888329 3.75274849
v 4.48219652 -12.50721616 3.80675094
v 3.70428799 -14.79976415 3.83576543
v 3.78468531 -12.64339356 3.88392576
v -2.43988234 -14.64789053 4.78326974
v -2.46963445 -12.48825315 4.74724976
v 4.89059711 -14.4201674 3.7596711
v -3.32680035 -14.26771684 4.84311399
v 1.29450823 -14.77984464 0.63001464
v 2.25573567 -14.81562486 0.57320089
v 2.29898633 -12.66225788 0.58103002
v 1.35070898 -12.61862828 0.63176316
v 0.3681393 -14.73160207 0.7492173
v 0.43835766 -12.56277419 0.7434106
v -0.52662271 -14.67891355 0.93215126
v -0.45398715 -12.5043998 0.91834589
v 3.2052776 -14.84067101 0.5386688
v 3.23969392 -12.6838829 0.5474848
v 4.37415241 -12.92336745 0.43632636
v 3.88947909 -12.56389264 0.4892964
v -2.16894238 -12.42831243 1.27748415
v -2.74977029 -12.28880753 1.33324651
v -3.1990401 -12.67016799 1.36157589
v -3.1419654 -14.31902122 1.37231312
v -2.20867006 -14.62744469 1.30507339
v -1.39576384 -14.63842421 1.14259602
v -1.3358266 -12.45834858 1.12103363
v 4.28353217 -14.50539467 0.44162065
v 2.36624726 -14.34203797 22.39289168
v 3.55916744 -14.46006209 21.47422821
v 0.85710105 -14.77898177 -2.91058106
v -0.04390889 -14.71372715 -2.91068354
v 4.55648097 -14.60150024 20.00255919
v 1.25678337 -14.29097904 22.72973562
v 0.0918361 -14.26911111 22.76002356
v -1.08229439 -14.28246669 22.46331975
v -2.22009177 -14.37351647 21.5912022
v -2.98965528 -14.54984413 19.8925755
v 1.8075182 -14.81809962 -2.64690943
v 4.79599683 -14.7558309 5.83014165
v 5.00157621 -14.75644073 7.70157967
v 2.9546636 -14.83414758 -1.94716195
v -3.5403784 -14.69376715 13.81375499
v -3.475163 -14.70312719 12.4474298
v -3.45659853 -14.6820361 16.6037407
v -3.53150609 -14.68820021 15.19417971
v -2.90740696 -14.63489173 2.96400151
v -2.83568394 -14.63494487 1.3610793
v -1.98937088 -14.64986173 -1.87979822
v -2.52013131 -14.66164846 -1.21566522
v -3.26084132 -14.68705646 9.83565785
v -3.2089502 -14.66641072 8.52811287
v -3.36035506 -14.7043671 11.11590808
v 4.49656618 -14.7902371 3.78262902
v -3.31837087 -14.65032227 18.12159253
v 5.59827084 -14.71683198 16.62893046
v 5.24978598 -14.691925 18.23509731
v -3.15092627 -14.64553724 6.83390761
v 3.60383768 -14.84055208 -0.85000732
v 5.71602262 -14.71890946 15.10247835
v -1.00174872 -14.66192427 -2.58657649
v 3.92653781 -14.83715878 0.47663794
v 4.20128258 -14.82585537 1.93706745
v -2.74105677 -14.64506911 -0.1155405
v -3.02661911 -14.63596463 4.83429229
v 5.48723924 -14.76539844 12.07041534
v 5.65763937 -14.73426155 13.58859581
v 5.13043244 -14.77647664 9.15093762
v 5.28895666 -14.7847233 10.57620718
v 2.13856367 -11.48421566 21.87939239
v 3.42623596 -11.60437545 21.03795752
v 3.56035801 -11.60564826 21.25379144
v 2.12229525 -11.46330928 22.22623278
v -3.55298846 -11.75946018 19.66391484
v -4.00898604 -11.87337236 17.88506731
v -3.69145683 -11.83476059 17.89726523
v -3.27911447 -11.73572732 19.55666528
v -4.26538838 -11.90155624 15.09696645
v -4.23181723 -11.91098207 13.73388684
v -3.91507909 -11.87877482 13.7643519
v -3.9318808 -11.86762323 15.12792937
v 1.79923168 -11.90846683 -2.69253174
v 0.91592744 -11.86072782 -2.96247503
v 0.88573566 -11.85939935 -3.30916739
v 1.79685213 -11.9087553 -2.98922542
v 5.33468873 -11.85658804 17.99844494
v 5.66927553 -11.89533392 17.94485368
v 4.8082637 -11.7853515 19.70182758
v 4.54185099 -11.75761297 19.65677904
v 6.08910637 -11.92083555 16.41734385
v 5.73823912 -11.88337766 16.48073292
v 1.05413455 -11.44408563 22.1746665
v 1.00750133 -11.41684307 22.55699991
v -0.07683764 -11.40111901 22.62230767
v -0.02899519 -11.4326304 22.22078098
v -1.16086822 -11.45089248 21.98041204
v -1.23132571 -11.41786789 22.38440716
v -2.36928947 -11.54539123 21.19071552
v -2.53031437 -11.52766813 21.51820954
v 5.57956846 -11.97249672 10.55165398
v 5.88566773 -12.01356047 10.48146029
v 6.07219933 -11.98819802 11.92953263
v 5.74686439 -11.94798702 11.99065885
v 5.51029742 -11.97045973 7.68849705
v 5.69817109 -12.00053637 9.10830532
v 5.40717087 -11.96359216 9.18156605
v 5.22940625 -11.93917355 7.74926238
v 2.95830489 -11.93890532 -1.96102742
v 3.10591537 -11.94559071 -2.10941412
v -4.19266395 -11.89856781 16.44929491
v -3.86119178 -11.86094291 16.48244601
v 3.92400454 -11.97790424 -0.89564355
v 3.67417624 -11.96264831 -0.8526921
v -4.10617969 -11.93018801 12.36845521
v -3.82292668 -11.89588809 12.40268997
v 6.24165561 -11.92272072 14.93420694
v 5.89008934 -11.88761359 14.98870535
v -1.90396047 -11.63744558 -1.87106826
v -2.41689785 -11.61176176 -1.19071965
v -2.6628334 -11.63551234 -1.35385114
v -2.12635595 -11.65003445 -2.14370644
v 5.87052598 -11.90881603 13.48372738
v 6.21300613 -11.94531489 13.4301143
v -3.92183501 -11.94160529 11.04666298
v -3.68134146 -11.90383868 11.08628027
v -2.74876603 -11.63880695 -0.08680751
v -2.98825754 -11.6560265 -0.10687
v 4.078698 -11.97868108 0.4695711
v 4.34026115 -12.00243419 0.44050346
v 4.67505956 -12.01421838 1.88975735
v 4.4170096 -11.98434671 1.92207911
v -3.5703554 -11.87311678 6.81994994
v -3.4417443 -11.84053755 4.81325623
v -3.23262802 -11.80732319 4.80345874
v -3.38318804 -11.83668371 6.8230932
v 4.70250298 -11.96001919 3.77457468
v 4.9653054 -11.98958975 3.7474852
v 5.25938231 -11.9608593 5.81950975
v 4.98739381 -11.93264505 5.84953452
v -3.30334899 -11.79993687 2.94582356
v -3.15550919 -11.72886734 1.37404267
v -2.91883119 -11.70664008 1.36305493
v -3.07168504 -11.77136077 2.93323849
v -0.88491612 -11.70080238 -2.63503921
v -0.97378625 -11.69929678 -2.97707938
v -3.46516402 -11.86564697 8.52291838
v -3.65128379 -11.90265191 8.4853841
v -3.54774637 -11.88793496 9.82178368
v -3.75148802 -11.92531188 9.77613631
v 0.0733311 -11.78591072 -2.96462969
v 0.03269057 -11.78286409 -3.32853907
v 4.62900423 -9.87874531 0.93791431
v 4.55547228 -10.87741071 1.17412196
v 4.24645352 -10.57878379 -0.19315182
v 4.282229 -8.74538597 -0.32008493
v 3.4076446 -10.33601601 -1.73730742
v 3.46402407 -8.4358643 -1.63879668
v 2.08827178 -10.19669899 -2.79356911
v 2.11926728 -8.23721702 -2.61190732
v -1.14027656 -8.23421847 -2.55717421
v -1.03862778 -10.17227089 -2.74129937
v -2.28011379 -10.2659403 -1.64282006
v -2.43470382 -8.42026296 -1.5302895
v -3.02548105 -10.46431935 -0.06228769
v -3.18332426 -8.71919543 -0.17016859
v -3.27441832 -10.74089867 1.35600896
v -3.41590265 -9.82399638 1.12293967
v 3.45813324 -6.80765428 -1.5158433
v 2.1057605 -6.43012488 -2.40632794
v 0.51220149 -10.14370112 -3.13627858
v 0.48496083 -8.18163559 -2.93849292
v 0.46972324 -6.35245347 -2.69378304
v -1.15673999 -6.44434967 -2.33478395
v -2.47340415 -6.8245784 -1.38440033
v 2.95119028 -5.64744681 -1.95048946
v 2.0300179 -5.32001447 -2.40995025
v 0.4621734 -5.18360776 -2.64617434
v -1.10320156 -5.33228324 -2.34496765
v -2.00002935 -5.67763163 -1.84438871
v 4.59909966 -9.79912356 1.10880028
v 4.530967 -10.90700847 1.58056589
v 4.3372259 -8.34502455 -0.03872373
v -3.26183325 -8.35193957 0.10679282
v -3.27379805 -10.75860722 1.76019006
v -3.40501928 -9.75860259 1.29548054
v 4.35940192 -11.91417674 1.65229334
v 3.68172861 -6.62042871 -1.18150258
v -2.69417715 -6.64722276 -1.05288483
v -3.01695921 -11.72206302 1.80545811
v 2.97784958 -5.56071679 -1.85672327
v 1.98791351 -5.01599932 -2.37530492
v 0.46564198 -4.83885592 -2.60190834
v -1.07205913 -5.02773923 -2.30799054
v -2.04851246 -5.57982467 -1.74374482
v 4.51649012 -10.05180808 0.5364648
v 3.94068163 -9.52158647 -0.98575137
v 2.82960364 -9.29461424 -2.28209037
v -1.79210379 -9.26791888 -2.20377622
v -2.82221922 -9.4621493 -0.86407775
v -3.30256741 -9.96775746 0.70206724
v 4.37641018 -11.45977174 0.62127708
v 3.82801695 -11.27977624 -1.00869095
v 3.83608774 -7.88836937 -1.16086126
v 2.75023367 -11.12845425 -2.37551874
v 2.84677827 -7.37562731 -2.09518174
v 1.30456509 -11.04047198 -3.09880045
v 1.3170249 -7.23108686 -2.73463297
v -0.24512139 -11.02816019 -3.07706662
v -0.36391096 -7.23517983 -2.70283564
v -1.62359215 -11.06971548 -2.30840679
v -1.87063429 -7.38419786 -1.99976065
v -2.60051471 -11.15998968 -0.90684321
v -3.05965824 -11.29829516 0.76616799
v 2.70277586 -5.88702025 -2.09363944
v 1.29993915 -5.6802639 -2.5914134
v -0.36916001 -5.68742786 -2.55495376
v -1.7510451 -5.91178932 -1.99624968
v -0.32072165 -9.18597674 -2.94707233
v 1.32009905 -9.19159682 -2.97765758
v -2.80731881 -7.88829283 -1.02576753
v 4.63631969 -10.36144426 1.33408978
v 4.56509802 -9.22860366 0.5474595
v -3.39545586 -10.27255483 1.52446889
v -3.41368916 -9.21057754 0.72036918
v 4.48769767 -11.52700136 1.54802842
v 4.0528788 -7.50741062 -0.74287036
v -3.16412529 -11.34842289 1.71534396
v 3.32214942 -6.00803722 -1.64124107
v 2.58090929 -5.3025093 -2.168578
v 1.28326238 -4.97284765 -2.59291774
v -0.36331947 -4.97609893 -2.55687815
v -2.36016064 -6.03749011 -1.51997169
v -1.65287186 -5.32197365 -2.07832024
v -3.0228279 -7.52474277 -0.60326804
v 4.19987629 -12.16522027 0.69208155
v 3.67198584 -12.0700712 -0.96688136
v 2.64138298 -11.962103 -2.31963556
v 1.27122578 -11.89147882 -3.033165
v -0.17971557 -11.87202617 -3.00858951
v -1.46936887 -11.88659636 -2.25173032
v -2.38985582 -11.92712493 -0.87200557
v -2.82512162 -11.98228947 0.81503051
v 4.29869796 -12.16993572 1.58643079
v -2.91939168 -11.97458686 1.7266771
v 4.29805302 -9.71215157 -0.21552584
v 4.54292548 -9.47322814 0.48277296
v 4.61151488 -10.29647558 1.0736261
v 4.45758687 -10.74927754 0.5836003
v 3.44872511 -9.38906048 -1.69042369
v 3.93521211 -8.60610881 -1.01652894
v 3.89592662 -10.44145695 -0.99958648
v 2.10912628 -9.23049326 -2.71973762
v 2.84684849 -8.31220239 -2.18977791
v 2.79645633 -10.25547066 -2.34704639
v -1.84834155 -8.30450231 -2.10764155
v -1.09724794 -9.21648229 -2.66445034
v -1.71293563 -10.21015263 -2.27246336
v -2.37378382 -9.34615395 -1.58942681
v -2.87011291 -8.58290228 -0.88685981
v -2.72116288 -10.34694681 -0.88754239
v -3.13303996 -9.63804805 -0.07351076
v -3.37069849 -9.42869454 0.65437504
v -3.19633381 -10.62085781 0.74048606
v -3.37004754 -10.20821496 1.2594302
v 4.1697927 -11.37067039 -0.18376647
v 4.47346023 -11.51886477 1.24629286
v 3.34962384 -11.19760319 -1.75872874
v 3.45087914 -7.56634993 -1.60043923
v 3.96258341 -7.66948312 -0.91448573
v 2.05766153 -11.07542095 -2.82770709
v 2.12045658 -7.27897137 -2.49309118
v 2.81847641 -6.5512842 -2.03254484
v 1.31512012 -10.1591557 -3.05804415
v 0.52555012 -11.02511799 -3.18247024
v 1.31983874 -8.19555356 -2.86505111
v 0.47584434 -7.21727453 -2.80408177
v 1.31056979 -6.36919982 -2.63091335
v -0.28482123 -10.14946543 -3.03057258
v -0.97247233 -11.04379696 -2.78267183
v -0.34848896 -8.19467361 -2.83610683
v -1.16034316 -7.28635958 -2.42988368
v -0.36918753 -6.37656083 -2.5943993
v -2.17287055 -11.10764782 -1.67298653
v -2.45043674 -7.57066746 -1.47816399
v -1.85498787 -6.57009159 -1.92827865
v -2.89441385 -11.22632352 -0.0638167
v -3.13697888 -11.34722094 1.41415561
v 2.06747199 -5.76097215 -2.39123522
v 2.60625719 -5.48293688 -2.15978224
v 3.14925587 -6.01796914 -1.79340696
v 0.46472122 -5.65650858 -2.64925767
v 1.28981302 -5.21516027 -2.5919334
v -0.36695569 -5.22017273 -2.55680603
v -1.12948794 -5.77662536 -2.3219762
v -1.66630969 -5.5059802 -2.06997363
v -2.18635993 -6.04714558 -1.67633175
v 0.49800454 -9.17697602 -3.05154095
v -2.93160478 -7.67617293 -0.77147049
v 4.64316829 -9.83520996 1.04889435
v 4.59189048 -10.35413069 1.42632063
v 4.57837642 -10.91969792 1.47879154
v 4.36370966 -8.43889069 -0.11661403
v 4.52476714 -9.14535455 0.59529846
v -3.30395566 -10.77694585 1.6633513
v -3.36362879 -10.26338646 1.6136569
v -3.43668187 -9.79092435 1.2374952
v -3.38637163 -9.1353056 0.76405635
v -3.28044579 -8.43829667 0.03491797
v 4.44115871 -11.49210173 1.63871698
v 3.66699299 -6.66395393 -1.27912071
v 4.03669831 -7.44626161 -0.66088456
v -3.13987464 -11.30835107 1.80384623
v 2.99388014 -5.58645976 -1.90909929
v 3.33302235 -5.99519341 -1.56142386
v 2.00974982 -5.0965007 -2.41627252
v 2.55100187 -5.24253473 -2.1290983
v 0.46311851 -4.93367255 -2.6456632
v 1.2744663 -4.88182919 -2.54993719
v -1.09191823 -5.10560074 -2.35065984
v -0.35226499 -4.88691313 -2.513036
v -2.67635536 -6.69154949 -1.14594567
v -2.3804613 -6.01611434 -1.44004566
v -2.05143289 -5.61373205 -1.79995697
v -1.63241574 -5.25982039 -2.03606466
v -3.01208118 -7.4664658 -0.52828962
v 4.29600938 -12.18587487 1.34986572
v 3.99919867 -12.12285335 -0.1398212
v 3.21416604 -12.01409313 -1.71081513
v 1.98275113 -11.92014728 -2.76545861
v 0.54005041 -11.87611154 -3.11512296
v -0.85879074 -11.87614444 -2.71757916
v -1.98674398 -11.90349454 -1.62747303
v -2.66713418 -11.95495455 -0.03372551
v -2.90068867 -11.99612331 1.49435556
v 4.0806904 -9.68981866 -0.12666425
v 4.29150301 -10.02000189 0.60112603
v 4.23199372 -10.7114325 0.64278
v 4.02747871 -10.54846676 -0.11046004
v 4.3178498 -9.4506365 0.54903089
v 4.0677517 -8.73591649 -0.22436146
v 4.38283809 -10.25976289 1.11989304
v 4.4003866 -9.84896852 0.98860316
v 4.32661963 -10.83515197 1.21387748
v 3.26967409 -9.38579434 -1.53850073
v 3.73784903 -9.50831945 -0.86698521
v 3.69052912 -10.41985471 -0.88648657
v 3.22527587 -10.32383833 -1.58986078
v 3.7363371 -8.60196967 -0.89101729
v 3.28927603 -8.44011731 -1.48205199
v 2.00946167 -9.24581751 -2.50866089
v 2.68513215 -9.30151914 -2.09780326
v 2.64841124 -10.25269605 -2.16557944
v 1.98530717 -10.20221595 -2.58371079
v 2.70674578 -8.32608558 -2.00253526
v 2.02296623 -8.25933421 -2.39976655
v -1.701274 -8.31788257 -1.9258292
v -1.64147103 -9.27215229 -2.02462208
v -2.18916649 -9.33969251 -1.44529882
v -2.2536139 -8.42349684 -1.38140431
v -0.99108488 -9.22994542 -2.4563494
v -1.03681726 -8.25587512 -2.34820912
v -1.55899465 -10.20434594 -2.09636597
v -0.92915176 -10.17611904 -2.53471668
v -2.09275537 -10.24982654 -1.50321774
v -2.66580317 -8.57678877 -0.77160967
v -2.61482806 -9.44542319 -0.75589066
v -2.91237418 -9.61203591 0.00210721
v -2.96470022 -8.70587085 -0.08633116
v -2.51192672 -10.32099414 -0.78503611
v -2.80397106 -10.42923183 0.00687453
v -3.14361018 -9.40052142 0.70677447
v -3.07586878 -9.93209617 0.75195838
v -3.14139099 -10.16680201 1.293751
v -3.18682827 -9.7885622 1.16105168
v -2.96984363 -10.5774357 0.78474068
v -3.04665755 -10.69152058 1.38514618
v 3.95204166 -11.32508983 -0.10633165
v 4.15272371 -11.40801315 0.67492969
v 4.24650951 -11.46427717 1.27902329
v 3.6227814 -11.24198053 -0.90057218
v 3.1662752 -11.16826164 -1.61559774
v 3.28006781 -7.5757669 -1.43955602
v 3.64339488 -7.8923453 -1.02571755
v 3.76367076 -7.67362606 -0.79020956
v 3.28841948 -6.81628936 -1.35499489
v 2.6001788 -11.1076086 -2.19734641
v 1.95197735 -11.06228678 -2.61991232
v 2.71125563 -7.39200676 -1.90489752
v 2.6887108 -6.56151218 -1.8381879
v 2.02786229 -7.30229178 -2.27940052
v 2.01778392 -6.44524734 -2.18991708
v 1.26442146 -10.17061473 -2.83020462
v 1.25152452 -11.03290347 -2.87172258
v 0.52903009 -11.01918857 -2.94931935
v 0.51607305 -10.15729837 -2.90299864
v 1.27260834 -7.25934033 -2.50660365
v 1.26873616 -6.38835831 -2.40139361
v 1.27331781 -8.22278095 -2.63737226
v 0.48039468 -7.24741254 -2.57201642
v 0.48918316 -8.21035529 -2.70628334
v 0.47471798 -6.37314539 -2.46063974
v -0.22686595 -10.16038991 -2.80437909
v -0.18518288 -11.0189583 -2.85179547
v -0.86023846 -11.0272796 -2.5786803
v -0.29417875 -8.22148727 -2.61000444
v -0.31076189 -7.26402668 -2.47665986
v -1.05944449 -7.31092116 -2.21994817
v -0.3176728 -6.39587557 -2.36677992
v -1.05968677 -6.45966444 -2.12211559
v -1.98518951 -11.07205865 -1.53802121
v -1.46786152 -11.04384693 -2.13618222
v -1.72737155 -7.40205318 -1.81530906
v -2.2729201 -7.58090683 -1.32497139
v -1.71734094 -6.58023227 -1.73919006
v -2.2984812 -6.83101327 -1.22886202
v -2.39234829 -11.11514927 -0.80950912
v -2.67511514 -11.1731365 -0.00027771
v -2.83614985 -11.23828864 0.80470447
v -2.91245168 -11.28296837 1.43785811
v 1.98510885 -5.76386 -2.17187514
v 2.58280078 -5.88812731 -1.89225171
v 2.49016759 -5.48685904 -1.95590584
v 1.950498 -5.32098331 -2.18938569
v 2.99838999 -6.02447866 -1.61436289
v 2.81062197 -5.65664997 -1.76290141
v 0.46980643 -5.66292796 -2.41513382
v 1.2607457 -5.68579099 -2.36054115
v 1.25211822 -5.21570463 -2.36058038
v 0.46720578 -5.18452567 -2.41179746
v -0.319675 -5.22093597 -2.32714207
v -0.32022094 -5.69220783 -2.32585155
v -1.03813403 -5.77765461 -2.10601955
v -1.01486408 -5.33184801 -2.12760155
v -1.54344708 -5.50437844 -1.8699245
v -1.62361176 -5.9094841 -1.79930412
v -2.03210186 -6.04610052 -1.49969033
v -1.85648272 -5.67660016 -1.65859094
v -0.26486029 -9.2057128 -2.72078521
v 0.50215887 -9.19918746 -2.81876203
v 1.27172016 -9.21225458 -2.74982311
v -2.60867565 -7.89217766 -0.90017427
v -2.72782581 -7.67842311 -0.65565354
v 4.41083093 -10.33032635 1.35720838
v 4.35346808 -10.87999238 1.4927228
v 4.41798792 -9.8153961 1.08337583
v 4.45270789 -10.33892979 1.43040411
v 4.45962418 -9.79264441 1.12182755
v 4.39279785 -10.88505513 1.57759264
v 4.34285294 -9.22011345 0.59955907
v 4.14863644 -8.44223718 -0.04019644
v 4.38642529 -9.14676906 0.62045216
v 4.20185161 -8.35337369 0.00129874
v -3.170365 -10.23358311 1.54419229
v -3.21075977 -9.7621028 1.26451319
v -3.08061428 -10.72763734 1.67832383
v -3.21756819 -10.24043171 1.61993426
v -3.12947933 -10.72786192 1.76354288
v -3.25784087 -9.74401848 1.30699777
v -3.18873463 -9.19319921 0.76206047
v -3.060969 -8.43518804 0.10201854
v -3.2391135 -9.12959379 0.78515694
v -3.11694265 -8.35538221 0.14364277
v 4.27028223 -11.47893213 1.55362002
v 4.30646162 -11.46615095 1.63008569
v 4.25004452 -11.88634711 1.64375379
v 3.84971187 -7.52043788 -0.63913239
v 3.48059551 -6.68332434 -1.14799278
v 3.90631718 -7.46030484 -0.60454843
v 3.55806228 -6.64024764 -1.10996238
v -2.94831983 -11.28814056 1.72645506
v -2.99936389 -11.27177629 1.80556566
v -2.90097113 -11.68471647 1.80650128
v 3.15134664 -6.03482494 -1.49099452
v 2.84129136 -5.61914622 -1.74104739
v 3.21711999 -6.02344372 -1.47790083
v 2.87408346 -5.59486836 -1.75898937
v 2.45881561 -5.32974364 -1.97654399
v 1.92859306 -5.11361271 -2.20289816
v 2.46807887 -5.2729242 -2.01127155
v 1.93290016 -5.03727451 -2.23929201
v 1.24545466 -4.98427411 -2.36725311
v 0.46821953 -4.94509426 -2.41664702
v 1.2488527 -4.8972379 -2.40327625
v 0.46913049 -4.85422825 -2.45185536
v -0.31550549 -4.99158229 -2.33281781
v -1.00138102 -5.12582074 -2.14015373
v -0.31939349 -4.9070898 -2.36627889
v -1.00943363 -5.0537577 -2.17146774
v -2.19135246 -6.0473904 -1.36416642
v -1.89946975 -5.62941215 -1.62777921
v -2.48898841 -6.7008545 -1.01348104
v -2.2625694 -6.02987416 -1.34469732
v -2.56567391 -6.65767595 -0.97367808
v -1.94237961 -5.60063584 -1.63596387
v -1.52527831 -5.34264944 -1.88776147
v -1.54377904 -5.28648412 -1.9144815
v -2.81605479 -7.53196334 -0.50375715
v -2.87366658 -7.47542793 -0.47022964
v 4.08385501 -12.09083335 0.71745097
v 3.88499739 -12.05150421 -0.10050408
v 4.18027815 -12.11275316 1.36304481
v 3.56242125 -12.00271633 -0.91039593
v 3.11434992 -11.95070343 -1.63440513
v 2.55794473 -11.90221795 -2.2227114
v 1.92259437 -11.86299635 -2.65048872
v 1.24027045 -11.83574872 -2.90577958
v 0.54180906 -11.81976149 -2.98351552
v -0.14516514 -11.81292428 -2.8819746
v -0.79497404 -11.8129635 -2.6041794
v -1.38241743 -11.81879234 -2.15715313
v -1.88370489 -11.83092573 -1.55428932
v -2.27710954 -11.85021264 -0.81996547
v -2.54916826 -11.87508672 -0.00035868
v -2.70449939 -11.90148033 0.83397201
v -2.77992632 -11.91728537 1.50337652
v 4.20077112 -12.11403735 1.58972287
v -2.81577771 -11.91197906 1.73053347
g Group21500
f 258 257 256 255
g Group21503
f 9 10 255 256
g Group43611
f 1 10 9 8
g Group21500
f 258 255 548 549
g Group21503
f 10 550 548 255
g Group43611
f 1 551 550 10
g Group21500
f 264 263 262 261
g Group21503
f 27 151 264 261
g Group43611
f 151 27 19 150
g Group21500
f 266 265 263 264
g Group21503
f 151 149 266 264
g Group43611
f 149 151 150 148
g Group21500
f 268 267 265 266
g Group21503
f 149 147 268 266
g Group43611
f 147 149 148 146
g Group21500
f 272 271 270 269
g Group21503
f 14 15 269 270
g Group43611
f 2 15 14 13
g Group21500
f 272 269 274 273
g Group21503
f 15 16 274 269
g Group43611
f 2 17 16 15
g Group21500
f 276 275 267 268
g Group21503
f 147 145 276 268
g Group43611
f 145 147 146 140
g Group21500
f 278 277 275 276
g Group21503
f 145 143 278 276
g Group43611
f 143 145 140 141
g Group21500
f 280 279 256 257
g Group21503
f 144 9 256 279
g Group43611
f 142 8 9 144
g Group21500
f 284 283 282 281
g Group43611
f 4 22 21 20
g Group21500
f 284 286 285 283
g Group43611
f 4 20 24 23
g Group21500
f 284 281 287 286
g Group43611
f 4 23 25 22
g Group21500
f 289 288 261 262
g Group21503
f 26 27 261 288
g Group43611
f 3 19 27 26
g Group21500
f 293 527 528 290
g Group43611
f 5 509 529 530
g Group21500
f 293 295 531 527
g Group43611
f 5 530 532 231
g Group21500
f 293 297 296 295
g Group43611
f 5 231 233 33
g Group21500
f 293 290 299 298
g Group43611
f 5 36 511 509
g Group21500
f 293 298 300 297
g Group43611
f 5 33 37 36
g Group21500
f 304 303 302 301
g Group43611
f 6 40 39 38
g Group21500
f 304 301 306 305
g Group43611
f 6 42 41 40
g Group21500
f 304 305 307 303
g Group43611
f 6 38 43 42
g Group21500
f 311 310 552 553
g Group43611
f 7 554 555 513
g Group21500
f 311 553 556 312
g Group43611
f 7 235 557 554
g Group21500
f 311 316 315 314
g Group43611
f 7 51 50 49
g Group21500
f 311 314 317 310
g Group43611
f 7 513 514 51
g Group21500
f 311 312 318 316
g Group43611
f 7 49 236 235
g Group21500
f 321 320 319 318
g Group21503
f 53 54 320 321
g Group43611
f 53 236 237 54
g Group21500
f 325 324 323 322
g Group43611
f 55 58 57 56
g Group21500
f 325 322 315 316
g Group43611
f 55 49 50 58
g Group21500
f 325 319 326 324
g Group43611
f 55 56 238 237
g Group21500
f 329 328 327 326
g Group21503
f 59 60 328 329
g Group43611
f 59 238 239 60
g Group21500
f 333 332 331 330
g Group43611
f 61 64 63 62
g Group21500
f 333 330 323 324
g Group43611
f 61 56 57 64
g Group21500
f 333 327 334 332
g Group43611
f 61 62 240 239
g Group21500
f 337 336 335 334
g Group21503
f 65 66 336 337
g Group43611
f 65 240 241 66
g Group21500
f 340 335 339 338
g Group43611
f 67 69 242 241
g Group21500
f 340 338 342 341
g Group43611
f 67 71 70 69
g Group21500
f 340 341 331 332
g Group43611
f 67 62 63 71
g Group21500
f 341 342 343 306
g Group43611
f 71 41 72 70
g Group21500
f 341 306 301 331
g Group43611
f 71 63 40 41
g Group21500
f 343 342 282 283
g Group43611
f 72 20 21 70
g Group21500
f 343 283 285 344
g Group43611
f 72 73 24 20
g Group21500
f 343 344 305 306
g Group43611
f 72 41 42 73
g Group21500
f 344 285 346 345
g Group43611
f 73 75 74 24
g Group21500
f 344 345 307 305
g Group43611
f 73 42 43 75
g Group21500
f 345 346 348 347
g Group43611
f 75 77 76 74
g Group21500
f 345 347 349 307
g Group43611
f 75 43 78 77
g Group21500
f 349 347 351 350
g Group43611
f 78 80 79 77
g Group21500
f 349 350 353 352
g Group43611
f 78 82 81 80
g Group21500
f 349 352 303 307
g Group43611
f 78 43 38 82
g Group21500
f 352 353 355 354
g Group43611
f 82 84 83 81
g Group21500
f 352 354 302 303
g Group43611
f 82 38 39 84
g Group21500
f 354 355 322 323
g Group43611
f 84 57 58 83
g Group21500
f 354 323 330 302
g Group43611
f 84 39 64 57
g Group21500
f 355 353 357 356
g Group43611
f 83 86 85 81
g Group21500
f 355 356 315 322
g Group43611
f 83 58 50 86
g Group21500
f 356 357 359 358
g Group43611
f 86 88 87 85
g Group21500
f 356 358 314 315
g Group43611
f 86 50 51 88
g Group21500
f 358 359 361 360
g Group43611
f 88 515 516 87
g Group21500
f 358 360 317 314
g Group43611
f 88 51 514 515
g Group21500
f 360 361 363 362
g Group43611
f 90 92 91 89
g Group21500
f 360 362 364 317
g Group43611
f 90 52 93 92
g Group21500
f 364 362 366 365
g Group43611
f 93 178 177 92
g Group21500
f 364 365 368 367
g Group43611
f 93 94 179 178
g Group21500
f 364 367 310 317
g Group43611
f 93 52 44 94
g Group21500
f 367 368 558 559
g Group43611
f 94 560 561 179
g Group21500
f 367 559 552 310
g Group43611
f 94 44 562 560
g Group21500
f 369 370 372 371
g Group43611
f 95 96 181 180
g Group21500
f 369 371 373 309
g Group43611
f 95 45 97 96
g Group21500
f 373 374 308 309
g Group43611
f 97 45 512 517
g Group21500
f 373 371 376 375
g Group43611
f 97 100 99 96
g Group21500
f 373 375 377 374
g Group43611
f 97 517 518 100
g Group21500
f 377 379 378 374
g Group43611
f 101 98 244 243
g Group21500
f 377 375 381 380
g Group43611
f 101 105 519 518
g Group21500
f 377 380 382 379
g Group43611
f 101 243 245 105
g Group21500
f 385 382 384 383
g Group21503
f 108 106 385 383
g Group43611
f 106 108 246 245
g Group21500
f 383 384 387 386
g Group21503
f 110 108 383 386
g Group43611
f 108 110 247 246
g Group21500
f 386 387 389 388
g Group21503
f 112 110 386 388
g Group43611
f 110 112 248 247
g Group21500
f 388 389 294 390
g Group21503
f 32 112 388 390
g Group43611
f 112 32 232 248
g Group21500
f 394 393 392 391
g Group43611
f 111 520 521 109
g Group21500
f 394 391 291 292
g Group43611
f 111 28 510 520
g Group21500
f 391 392 396 395
g Group43611
f 114 116 115 113
g Group21500
f 391 395 397 291
g Group43611
f 114 29 117 116
g Group21500
f 397 395 399 398
g Group43611
f 117 183 182 116
g Group21500
f 397 398 533 534
g Group43611
f 117 535 536 183
g Group21500
f 397 534 528 291
g Group43611
f 117 29 537 535
g Group21500
f 400 401 403 402
g Group43611
f 118 119 185 184
g Group21500
f 400 402 299 290
g Group43611
f 118 30 35 119
g Group21500
f 402 403 405 404
g Group43611
f 119 120 186 185
g Group21500
f 402 404 406 299
g Group43611
f 119 35 121 120
g Group21500
f 406 407 298 299
g Group43611
f 121 35 511 522
g Group21500
f 406 404 409 408
g Group43611
f 121 124 123 120
g Group21500
f 406 408 410 407
g Group43611
f 121 522 523 124
g Group21500
f 410 412 411 407
g Group43611
f 125 122 127 126
g Group21500
f 410 408 414 413
g Group43611
f 125 129 524 523
g Group21500
f 410 413 415 412
g Group43611
f 125 126 130 129
g Group21500
f 415 351 416 412
g Group43611
f 130 126 131 79
g Group21500
f 415 413 418 417
g Group43611
f 130 133 132 129
g Group21500
f 415 417 350 351
g Group43611
f 130 79 80 133
g Group21500
f 417 418 359 357
g Group43611
f 133 85 87 132
g Group21500
f 417 357 353 350
g Group43611
f 133 80 81 85
g Group21500
f 418 413 414 419
g Group43611
f 132 525 524 129
g Group21500
f 418 419 361 359
g Group43611
f 132 87 516 525
g Group21500
f 419 414 421 420
g Group43611
f 134 136 135 128
g Group21500
f 419 420 363 361
g Group43611
f 134 89 91 136
g Group21500
f 420 421 423 422
g Group43611
f 136 188 187 135
g Group21500
f 420 422 424 363
g Group43611
f 136 91 189 188
g Group21500
f 330 331 301 302
g Group43611
f 64 39 40 63
g Group21500
f 426 425 313 378
g Group21503
f 103 47 425 426
g Group43611
f 103 244 234 47
g Group21500
f 277 280 428 427
g Group43611
f 141 214 213 142
g Group21500
f 432 431 430 429
g Group43611
f 164 250 249 163
g Group21500
f 433 432 297 300
g Group43611
f 162 37 33 164
g Group21500
f 411 300 298 407
g Group43611
f 127 122 36 37
g Group21500
f 433 434 431 432
g Group43611
f 162 164 163 161
g Group21500
f 435 346 285 286
g Group43611
f 176 23 24 74
g Group21500
f 436 433 300 411
g Group43611
f 160 127 37 162
g Group21500
f 435 437 348 346
g Group43611
f 176 74 76 159
g Group21500
f 436 437 434 433
g Group43611
f 160 162 161 159
g Group21500
f 438 435 286 287
g Group43611
f 175 25 23 176
g Group21500
f 416 351 347 348
g Group43611
f 131 76 77 79
g Group21500
f 438 434 437 435
g Group43611
f 175 176 159 161
g Group21500
f 442 441 440 439
g Group43611
f 156 155 216 215
g Group21500
f 438 443 431 434
g Group43611
f 175 161 163 167
g Group21500
f 442 271 444 441
g Group43611
f 156 215 217 13
g Group21500
f 445 381 375 376
g Group43611
f 137 99 100 104
g Group21500
f 445 448 447 446
g Group43611
f 137 138 192 191
g Group21500
f 445 446 449 381
g Group43611
f 137 104 139 138
g Group21500
f 449 450 380 381
g Group43611
f 139 104 519 526
g Group21500
f 449 446 396 392
g Group43611
f 139 113 115 138
g Group21500
f 449 392 393 450
g Group43611
f 139 526 521 113
g Group21500
f 446 447 451 396
g Group43611
f 138 115 193 192
g Group21500
f 452 443 438 287
g Group43611
f 169 25 175 167
g Group21500
f 453 452 287 281
g Group43611
f 171 22 25 169
g Group21500
f 273 456 455 454
g Group43611
f 17 219 218 152
g Group21500
f 416 436 411 412
g Group43611
f 131 126 127 160
g Group21500
f 416 348 437 436
g Group43611
f 131 160 159 76
g Group21500
f 457 282 342 338
g Group43611
f 173 69 70 21
g Group21500
f 421 414 408 409
g Group43611
f 135 123 124 128
g Group21500
f 457 453 281 282
g Group43611
f 173 21 22 171
g Group21500
f 280 277 278 279
g Group21503
f 143 144 279 278
g Group43611
f 142 144 143 141
g Group21500
f 460 459 339 458
g Group21503
f 68 174 460 458
g Group43611
f 174 68 242 251
g Group21500
f 456 273 274 461
g Group21503
f 16 153 461 274
g Group43611
f 152 153 16 17
g Group21500
f 463 462 459 460
g Group21503
f 174 172 463 460
g Group43611
f 172 174 251 252
g Group21500
f 432 429 296 297
g Group43611
f 164 33 233 250
g Group21500
f 465 464 462 463
g Group21503
f 172 170 465 463
g Group43611
f 170 172 252 253
g Group21500
f 265 467 466 263
g Group43611
f 148 150 221 220
g Group21500
f 469 468 464 465
g Group21503
f 170 168 469 465
g Group43611
f 168 170 253 254
g Group21500
f 265 267 470 467
g Group43611
f 148 220 222 146
g Group21500
f 442 439 472 471
g Group21503
f 157 158 471 472
g Group43611
f 156 158 157 155
g Group21500
f 456 461 474 473
g Group21503
f 153 154 474 461
g Group43611
f 152 18 154 153
g Group21500
f 475 430 468 469
g Group21503
f 168 165 475 469
g Group43611
f 165 168 254 249
g Group21500
f 442 471 270 271
g Group21503
f 158 14 270 471
g Group43611
f 156 13 14 158
g Group21500
f 474 538 539 473
g Group21503
f 154 540 538 474
g Group43611
f 154 18 541 540
g Group21500
f 472 439 259 260
g Group21503
f 11 157 472 260
g Group43611
f 157 11 12 155
g Group21500
f 365 366 477 476
g Group43611
f 178 205 195 177
g Group21500
f 365 476 478 368
g Group43611
f 178 179 206 205
g Group21500
f 368 478 563 558
g Group43611
f 179 561 564 206
g Group21500
f 370 479 480 372
g Group43611
f 180 181 198 207
g Group21500
f 398 399 482 481
g Group43611
f 183 208 200 182
g Group21500
f 398 481 542 533
g Group43611
f 183 536 543 208
g Group21500
f 401 483 484 403
g Group43611
f 184 185 210 209
g Group21500
f 403 484 485 405
g Group43611
f 185 186 203 210
g Group21500
f 422 423 487 486
g Group43611
f 188 211 204 187
g Group21500
f 422 486 488 424
g Group43611
f 188 189 196 211
g Group21500
f 424 366 362 363
g Group43611
f 189 91 92 177
g Group21500
f 489 376 371 372
g Group43611
f 190 181 96 99
g Group21500
f 489 448 445 376
g Group43611
f 190 99 137 191
g Group21500
f 448 491 490 447
g Group43611
f 191 192 212 199
g Group21500
f 447 490 492 451
g Group43611
f 192 193 201 212
g Group21500
f 451 399 395 396
g Group43611
f 193 115 116 182
g Group21500
f 493 409 404 405
g Group43611
f 194 186 120 123
g Group21500
f 493 423 421 409
g Group43611
f 194 123 135 187
g Group21500
f 488 477 366 424
g Group43611
f 196 189 177 195
g Group21500
f 494 489 372 480
g Group43611
f 197 198 181 190
g Group21500
f 494 491 448 489
g Group43611
f 197 190 191 199
g Group21500
f 492 482 399 451
g Group43611
f 201 193 182 200
g Group21500
f 495 493 405 485
g Group43611
f 202 203 186 194
g Group21500
f 495 487 423 493
g Group43611
f 202 194 187 204
g Group21500
f 476 477 428 496
g Group43611
f 205 223 213 195
g Group21500
f 476 496 497 478
g Group43611
f 205 206 224 223
g Group21500
f 478 497 565 563
g Group43611
f 206 564 566 224
g Group21500
f 479 498 440 480
g Group43611
f 207 198 216 225
g Group21500
f 481 482 455 499
g Group43611
f 208 226 218 200
g Group21500
f 481 499 544 542
g Group43611
f 208 543 545 226
g Group21500
f 483 500 501 484
g Group43611
f 209 210 228 227
g Group21500
f 484 501 466 485
g Group43611
f 210 203 221 228
g Group21500
f 486 487 470 502
g Group43611
f 211 229 222 204
g Group21500
f 486 502 427 488
g Group43611
f 211 196 214 229
g Group21500
f 491 444 503 490
g Group43611
f 199 212 230 217
g Group21500
f 490 503 454 492
g Group43611
f 212 201 219 230
g Group21500
f 427 428 477 488
g Group43611
f 214 196 195 213
g Group21500
f 441 494 480 440
g Group43611
f 215 216 198 197
g Group21500
f 441 444 491 494
g Group43611
f 215 197 199 217
g Group21500
f 454 455 482 492
g Group43611
f 219 201 200 218
g Group21500
f 467 495 485 466
g Group43611
f 220 221 203 202
g Group21500
f 467 470 487 495
g Group43611
f 220 202 204 222
g Group21500
f 496 428 280 257
g Group43611
f 223 8 142 213
g Group21500
f 496 257 258 497
g Group43611
f 223 224 1 8
g Group21500
f 497 258 549 565
g Group43611
f 224 566 551 1
g Group21500
f 498 259 439 440
g Group43611
f 225 216 155 12
g Group21500
f 499 455 456 473
g Group43611
f 226 18 152 218
g Group21500
f 499 473 539 544
g Group43611
f 226 545 541 18
g Group21500
f 500 289 262 501
g Group43611
f 227 228 19 3
g Group21500
f 501 262 263 466
g Group43611
f 228 221 150 19
g Group21500
f 502 470 267 275
g Group43611
f 229 140 146 222
g Group21500
f 502 275 277 427
g Group43611
f 229 214 141 140
g Group21500
f 444 271 272 503
g Group43611
f 217 230 2 13
g Group21500
f 503 272 273 454
g Group43611
f 230 219 17 2
g Group21500
f 295 504 546 531
g Group21503
f 31 547 546 504
g Group43611
f 231 532 547 31
g Group21500
f 295 296 505 504
g Group21503
f 34 31 504 505
g Group43611
f 231 31 34 233
g Group21500
f 312 556 567 506
g Group21503
f 47 568 567 425
g Group43611
f 235 48 568 557
g Group21500
f 312 506 321 318
g Group21503
f 48 53 321 506
g Group43611
f 235 236 53 48
g Group21500
f 318 319 325 316
g Group43611
f 236 49 55 237
g Group21500
f 319 320 329 326
g Group21503
f 54 59 329 320
g Group43611
f 237 238 59 54
g Group21500
f 326 327 333 324
g Group43611
f 238 56 61 239
g Group21500
f 327 328 337 334
g Group21503
f 60 65 337 328
g Group43611
f 239 240 65 60
g Group21500
f 334 335 340 332
g Group43611
f 240 62 67 241
g Group21500
f 335 336 458 339
g Group21503
f 66 68 458 336
g Group43611
f 241 242 68 66
g Group21500
f 379 507 426 378
g Group21503
f 102 103 426 507
g Group43611
f 243 244 103 102
g Group21500
f 379 382 385 507
g Group21503
f 106 102 507 385
g Group43611
f 243 102 106 245
g Group21500
f 382 380 450 384
g Group43611
f 245 246 107 105
g Group21500
f 384 450 393 387
g Group43611
f 246 247 109 107
g Group21500
f 387 393 394 389
g Group43611
f 247 248 111 109
g Group21500
f 389 394 292 294
g Group43611
f 248 232 28 111
g Group21500
f 378 313 308 374
g Group43611
f 244 98 46 234
g Group21500
f 429 430 475 508
g Group21503
f 165 166 508 475
g Group43611
f 250 166 165 249
g Group21500
f 459 457 338 339
g Group43611
f 251 242 69 173
g Group21500
f 462 453 457 459
g Group43611
f 252 251 173 171
g Group21500
f 429 508 505 296
g Group21503
f 166 34 505 508
g Group43611
f 250 233 34 166
g Group21500
f 464 452 453 462
g Group43611
f 253 252 171 169
g Group21500
f 468 443 452 464
g Group43611
f 254 253 169 167
g Group21500
f 430 431 443 468
g Group43611
f 249 254 167 163
f 509 30 537 529
f 509 511 35 30
f 513 555 562 44
f 513 44 52 514
f 515 90 89 516
f 515 514 52 90
f 517 512 46 98
f 517 98 101 518
f 518 519 104 100
f 520 114 113 521
f 520 510 29 114
f 522 511 36 122
f 522 122 125 523
f 523 524 128 124
f 525 134 128 524
f 525 516 89 134
f 526 519 105 107
f 526 107 109 521
g Group21500
f 527 292 291 528
g Group43611
f 530 529 510 28
g Group21500
f 527 531 294 292
g Group43611
f 530 28 232 532
g Group21500
f 534 533 401 400
g Group43611
f 535 118 184 536
g Group21500
f 534 400 290 528
g Group43611
f 535 537 30 118
g Group21500
f 538 288 289 539
g Group21503
f 540 26 288 538
g Group43611
f 540 541 3 26
g Group21500
f 533 542 483 401
g Group43611
f 536 184 209 543
g Group21500
f 542 544 500 483
g Group43611
f 543 209 227 545
g Group21500
f 544 539 289 500
g Group43611
f 545 227 3 541
g Group21500
f 531 546 390 294
g Group21503
f 547 32 390 546
g Group43611
f 532 232 32 547
f 529 537 29 510
g Group21500
f 549 548 260 259
g Group21503
f 550 11 260 548
g Group43611
f 551 12 11 550
g Group21500
f 553 552 309 308
g Group43611
f 554 46 512 555
g Group21500
f 553 308 313 556
g Group43611
f 554 557 234 46
g Group21500
f 559 558 370 369
g Group43611
f 560 95 180 561
g Group21500
f 559 369 309 552
g Group43611
f 560 562 45 95
g Group21500
f 558 563 479 370
g Group43611
f 561 180 207 564
g Group21500
f 563 565 498 479
g Group43611
f 564 207 225 566
g Group21500
f 565 549 259 498
g Group43611
f 566 225 12 551
g Group21500
f 556 313 425 567
g Group21503
f 568 48 506 567
g Group43611
f 557 568 47 234
f 555 512 45 562
g Group26878
f 706 705 704 703
f 572 571 570 569
f 710 914 915 707
f 575 576 710 707
f 833 916 917 834
f 716 715 714 713
f 582 581 580 579
f 718 713 714 717
f 584 583 580 581
f 717 918 915 708
f 585 575 707 719
f 583 574 837 839
f 721 894 895 720
f 587 586 896 897
f 723 919 914 710
f 576 589 723 710
f 721 711 898 894
f 587 897 899 577
f 723 725 920 919
f 589 590 725 723
f 727 921 920 725
f 590 593 727 725
f 712 900 898 711
f 578 577 899 901
f 843 594 597 844
f 843 842 592 594
f 729 922 921 727
f 593 595 729 727
f 729 731 923 922
f 595 596 731 729
f 733 716 713 732
f 599 598 581 582
f 734 732 713 718
f 600 584 581 598
f 752 736 735 751
f 618 617 602 601
f 672 658 864 867
f 696 693 827 830
f 734 739 738 732
f 600 598 605 604
f 733 732 738 740
f 599 606 605 598
f 742 740 738 741
f 608 607 605 606
f 743 741 738 739
f 609 604 605 607
f 699 698 832 833
f 832 924 916 833
f 745 744 741 743
f 611 609 607 610
f 749 748 747 746
f 615 614 613 612
f 750 742 741 744
f 616 610 607 608
f 698 677 812 832
f 842 841 591 592
f 840 588 591 841
f 873 854 629 630
f 872 873 630 572
f 754 753 715 716
f 620 582 579 619
f 840 838 573 588
f 720 895 902 755
f 586 621 903 896
f 756 754 716 733
f 622 599 582 620
f 756 733 740 757
f 622 623 606 599
f 806 925 926 792
f 759 757 740 742
f 625 608 606 623
f 760 759 742 750
f 626 616 608 625
f 762 761 704 705
f 628 569 570 627
f 764 737 758 763
f 630 629 624 603
f 766 874 875 765
f 632 631 876 877
f 770 769 768 767
f 636 635 634 633
f 838 837 574 573
f 812 927 924 832
f 690 694 829 823
f 776 775 774 773
f 642 641 640 639
f 754 776 773 753
f 620 619 641 642
f 778 878 879 777
f 644 643 880 881
f 752 882 874 766
f 618 632 877 883
f 780 779 775 776
f 646 642 639 645
f 756 780 776 754
f 622 620 642 646
f 756 757 781 780
f 622 646 647 623
f 750 744 783 782
f 616 649 648 610
f 780 781 784 779
f 646 645 650 647
f 786 785 784 781
f 652 647 650 651
f 759 786 781 757
f 625 623 647 652
f 760 787 786 759
f 626 625 652 653
f 661 633 856 865
f 695 684 819 828
f 787 770 785 786
f 653 652 651 636
f 778 765 875 878
f 644 881 876 631
f 791 790 789 788
f 657 656 655 654
f 793 792 789 790
f 659 654 655 658
f 775 791 788 774
f 639 640 656 657
f 760 795 794 787
f 626 653 661 660
f 794 928 929 769
f 700 699 833 834
f 797 796 790 791
f 663 657 654 662
f 798 793 790 796
f 664 662 654 659
f 779 797 791 775
f 645 639 657 663
f 779 784 799 797
f 645 663 665 650
f 798 796 801 800
f 664 667 666 662
f 797 799 801 796
f 663 662 666 665
f 745 730 783 744
f 611 610 648 597
f 803 802 801 799
f 669 665 666 668
f 804 800 801 802
f 670 668 666 667
f 785 803 799 784
f 651 650 665 669
f 770 767 803 785
f 636 651 669 635
f 764 706 703 737
f 630 603 571 572
f 795 782 930 931
f 683 702 836 817
f 736 804 802 805
f 601 671 668 670
f 767 805 802 803
f 635 669 668 671
f 787 794 769 770
f 653 636 633 661
f 777 806 792 793
f 643 659 658 672
f 597 648 861 844
f 762 749 746 761
f 628 627 614 615
f 637 906 907 857
f 686 908 909 820
f 871 872 572 569
f 870 871 569 628
f 778 777 793 798
f 644 664 659 643
f 778 798 800 765
f 644 631 667 664
f 869 870 628 615
f 849 869 615 612
f 767 768 807 805
f 635 671 673 634
f 771 932 933 910
f 602 847 868 673
f 736 805 807 735
f 601 602 673 671
f 766 765 800 804
f 632 670 667 631
f 752 766 804 736
f 618 601 670 632
f 836 934 935 817
f 697 676 810 831
f 735 807 936 937
f 772 771 910 911
f 638 912 906 637
f 760 750 782 795
f 626 660 649 616
f 777 879 888 806
f 643 672 889 880
f 752 751 890 882
f 618 883 891 617
f 772 911 900 712
f 638 578 901 912
f 634 673 868 855
f 685 697 831 818
f 768 938 936 807
f 596 689 824 731
f 660 866 860 649
f 806 888 939 925
f 681 886 892 815
f 730 923 940 783
f 660 661 865 866
f 694 695 828 829
f 709 718 708
f 574 584 573
f 715 941 942 714
f 674 675 808 809
f 579 580 845 846
f 717 714 942 918
f 675 585 719 808
f 583 839 845 580
f 718 717 708
f 574 583 584
f 722 734 718 709
f 588 573 584 600
f 722 724 739 734
f 588 600 604 591
f 726 743 739 724
f 592 591 604 609
f 728 745 743 726
f 594 592 609 611
f 730 745 728
f 594 611 597
f 751 735 937 943
f 676 679 813 810
f 617 850 847 602
f 748 927 944 747
f 677 678 811 812
f 612 613 848 849
f 617 891 884 850
f 753 945 941 715
f 680 674 809 814
f 619 579 846 851
f 702 701 835 836
f 835 946 934 836
f 755 902 947 948
f 678 904 913 811
f 621 852 905 903
f 795 931 928 794
f 640 859 862 656
f 692 687 822 825
f 763 758 949 935
f 682 683 817 816
f 629 854 853 624
f 769 929 938 768
f 684 685 818 819
f 633 634 855 856
f 701 700 834 835
f 834 917 946 835
f 679 885 893 813
f 751 943 950 890
f 672 867 887 889
f 773 774 951 952
f 687 688 821 822
f 641 858 859 640
f 753 773 952 945
f 688 680 814 821
f 619 851 858 641
f 782 783 940 930
f 689 690 823 824
f 649 860 861 648
f 788 789 953 954
f 691 692 825 826
f 656 862 863 655
f 792 926 953 789
f 693 691 826 827
f 658 655 863 864
f 774 788 954 951
f 874 712 711 875
f 877 876 577 578
f 878 721 720 879
f 881 880 586 587
f 882 772 712 874
f 883 877 578 638
f 878 875 711 721
f 881 587 577 876
f 879 720 755 888
f 880 889 621 586
f 882 890 771 772
f 883 638 637 891
f 888 755 948 939
f 886 696 830 892
f 891 637 857 884
f 885 686 820 893
f 890 950 932 771
f 889 887 852 621
f 894 761 746 895
f 897 896 614 627
f 894 898 704 761
f 897 627 570 899
f 900 703 704 898
f 901 899 570 571
f 895 746 747 902
f 896 903 613 614
f 906 624 853 907
f 908 682 816 909
f 910 933 949 758
f 911 910 758 737
f 912 603 624 906
f 911 737 703 900
f 912 901 571 603
f 902 747 944 947
f 904 681 815 913
f 903 905 848 613
f 914 709 708 915
f 916 762 705 917
f 918 719 707 915
f 919 722 709 914
f 919 920 724 722
f 921 726 724 920
f 922 728 726 921
f 922 923 730 728
f 924 749 762 916
f 925 830 827 926
f 927 748 749 924
f 928 828 819 929
f 931 930 823 829
f 932 820 909 933
f 934 764 763 935
f 937 936 831 810
f 938 818 831 936
f 925 939 892 830
f 923 731 824 940
f 941 809 808 942
f 918 942 808 719
f 943 937 810 813
f 927 812 811 944
f 945 814 809 941
f 946 706 764 934
f 948 947 913 815
f 931 829 828 928
f 935 949 816 817
f 929 819 818 938
f 917 705 706 946
f 943 813 893 950
f 952 951 822 821
f 945 952 821 814
f 930 940 824 823
f 954 953 826 825
f 926 827 826 953
f 951 954 825 822
f 939 948 815 892
f 950 893 820 932
f 933 909 816 949
f 947 944 811 913
f 958 957 956 955
f 837 838 955 956
f 576 575 957 958
f 962 961 960 959
f 689 596 959 960
f 844 861 961 962
f 966 965 964 963
f 695 694 963 964
f 866 865 965 966
f 970 969 968 967
f 870 869 967 968
f 698 699 969 970
f 974 973 972 971
f 845 839 974 971
f 585 675 972 973
f 976 971 972 975
f 675 674 975 972
f 846 845 971 976
f 978 958 955 977
f 838 840 977 955
f 589 576 958 978
f 978 977 980 979
f 590 589 978 979
f 840 841 980 977
f 982 979 980 981
f 841 842 981 980
f 593 590 979 982
f 984 982 981 983
f 842 843 983 981
f 595 593 982 984
f 984 983 962 959
f 596 595 984 959
f 843 844 962 983
f 988 987 986 985
f 862 859 988 985
f 687 692 986 987
f 992 991 990 989
f 691 693 989 990
f 864 863 991 992
f 994 970 967 993
f 869 849 993 967
f 677 698 970 994
f 974 956 957 973
f 575 585 973 957
f 839 837 956 974
f 985 986 990 991
f 863 862 985 991
f 692 691 990 986
f 996 995 960 961
f 861 860 996 961
f 690 689 960 995
f 993 998 997 994
f 678 677 994 997
f 849 848 998 993
f 965 1000 999 964
f 684 695 964 999
f 865 856 1000 965
f 1002 976 975 1001
f 674 680 1001 975
f 851 846 976 1002
f 1006 1005 1004 1003
f 854 873 1003 1004
f 702 683 1005 1006
f 1002 1001 1008 1007
f 858 851 1002 1007
f 680 688 1008 1001
f 1007 1008 987 988
f 859 858 1007 988
f 688 687 987 1008
f 1000 1010 1009 999
f 685 684 999 1009
f 856 855 1010 1000
f 1004 1005 1012 1011
f 853 854 1004 1011
f 683 682 1012 1005
f 1016 1015 1014 1013
f 905 852 1016 1013
f 681 904 1014 1015
f 1020 1019 1018 1017
f 885 679 1017 1018
f 850 884 1019 1020
f 1024 1023 1022 1021
f 887 867 1024 1021
f 696 886 1022 1023
f 966 963 995 996
f 860 866 966 996
f 694 690 995 963
f 1028 1027 1026 1025
f 908 686 1025 1026
f 857 907 1027 1028
f 1030 1006 1003 1029
f 873 872 1029 1003
f 701 702 1006 1030
f 1020 1017 1032 1031
f 847 850 1020 1031
f 679 676 1032 1017
f 1024 992 989 1023
f 693 696 1023 989
f 867 864 992 1024
f 1031 1032 1034 1033
f 868 847 1031 1033
f 676 697 1034 1032
f 1010 1033 1034 1009
f 697 685 1009 1034
f 855 868 1033 1010
f 1036 1030 1029 1035
f 872 871 1035 1029
f 700 701 1030 1036
f 969 1036 1035 968
f 871 870 968 1035
f 699 700 1036 969
f 1019 1028 1025 1018
f 686 885 1018 1025
f 884 857 1028 1019
f 1021 1022 1015 1016
f 852 887 1021 1016
f 886 681 1015 1022
f 1013 1014 997 998
f 848 905 1013 998
f 904 678 997 1014
f 1027 1011 1012 1026
f 682 908 1026 1012
f 907 853 1011 1027
g Group12307
f 1223 1222 1221 1220
f 1039 1130 1080 1133
f 1225 1220 1221 1224
f 1040 1131 1080 1130
f 1227 1224 1221 1226
f 1037 1132 1080 1131
f 1228 1226 1221 1222
f 1038 1133 1080 1132
f 1232 1231 1230 1229
f 1041 1134 1081 1136
f 1234 1229 1230 1233
f 1042 1135 1081 1134
f 1225 1233 1230 1220
f 1040 1130 1081 1135
f 1223 1220 1230 1231
f 1039 1136 1081 1130
f 1238 1237 1236 1235
f 1043 1137 1082 1139
f 1240 1235 1236 1239
f 1044 1138 1082 1137
f 1234 1239 1236 1229
f 1042 1134 1082 1138
f 1232 1229 1236 1237
f 1041 1139 1082 1134
f 1244 1243 1242 1241
f 1048 1140 1083 1143
f 1246 1241 1242 1245
f 1045 1141 1083 1140
f 1248 1245 1242 1247
f 1046 1142 1083 1141
f 1249 1247 1242 1243
f 1047 1143 1083 1142
f 1253 1252 1251 1250
f 1050 1144 1084 1146
f 1244 1250 1251 1243
f 1048 1143 1084 1144
f 1249 1243 1251 1254
f 1047 1145 1084 1143
f 1255 1254 1251 1252
f 1049 1146 1084 1145
f 1259 1258 1257 1256
f 1052 1147 1085 1149
f 1253 1256 1257 1252
f 1050 1146 1085 1147
f 1255 1252 1257 1260
f 1049 1148 1085 1146
f 1261 1260 1257 1258
f 1051 1149 1085 1148
f 1385 1384 1263 1262
f 1212 1150 1086 1120
f 1223 1262 1263 1222
f 1039 1133 1086 1150
f 1228 1222 1263 1264
f 1038 1151 1086 1133
f 1386 1264 1263 1384
f 1211 1120 1086 1151
f 1232 1266 1265 1231
f 1041 1136 1087 1152
f 1223 1231 1265 1262
f 1039 1150 1087 1136
f 1385 1262 1265 1387
f 1212 1121 1087 1150
f 1388 1387 1265 1266
f 1213 1152 1087 1121
f 1234 1233 1268 1267
f 1042 1153 1088 1135
f 1270 1267 1268 1269
f 1053 1154 1088 1153
f 1225 1269 1268 1233
f 1040 1135 1088 1154
f 1238 1272 1271 1237
f 1043 1139 1089 1155
f 1232 1237 1271 1266
f 1041 1152 1089 1139
f 1388 1266 1271 1389
f 1213 1122 1089 1152
f 1390 1389 1271 1272
f 1214 1155 1089 1122
f 1270 1274 1273 1267
f 1053 1153 1090 1157
f 1234 1267 1273 1239
f 1042 1138 1090 1153
f 1240 1239 1273 1275
f 1044 1156 1090 1138
f 1276 1275 1273 1274
f 1054 1157 1090 1156
f 1280 1279 1278 1277
f 1055 1158 1091 1159
f 1238 1277 1278 1272
f 1043 1155 1091 1158
f 1390 1272 1278 1391
f 1214 1123 1091 1155
f 1392 1391 1278 1279
f 1215 1159 1091 1123
f 1276 1282 1281 1275
f 1054 1156 1092 1162
f 1240 1275 1281 1283
f 1044 1160 1092 1156
f 1285 1283 1281 1284
f 1056 1161 1092 1160
f 1286 1284 1281 1282
f 1057 1162 1092 1161
f 1248 1289 1288 1287
f 1046 1163 1093 1164
f 1280 1287 1288 1279
f 1055 1159 1093 1163
f 1392 1279 1288 1393
f 1215 1124 1093 1159
f 1394 1393 1288 1289
f 1216 1164 1093 1124
f 1285 1284 1291 1290
f 1056 1165 1094 1161
f 1246 1290 1291 1292
f 1045 1166 1094 1165
f 1294 1292 1291 1293
f 1058 1167 1094 1166
f 1286 1293 1291 1284
f 1057 1161 1094 1167
f 1396 1395 1296 1295
f 1217 1168 1095 1125
f 1249 1295 1296 1247
f 1047 1142 1095 1168
f 1248 1247 1296 1289
f 1046 1164 1095 1142
f 1394 1289 1296 1395
f 1216 1125 1095 1164
f 1246 1292 1297 1241
f 1045 1140 1096 1166
f 1244 1241 1297 1298
f 1048 1169 1096 1140
f 1300 1298 1297 1299
f 1059 1170 1096 1169
f 1294 1299 1297 1292
f 1058 1166 1096 1170
f 1255 1302 1301 1254
f 1049 1145 1097 1171
f 1249 1254 1301 1295
f 1047 1168 1097 1145
f 1396 1295 1301 1397
f 1217 1126 1097 1168
f 1398 1397 1301 1302
f 1218 1171 1097 1126
f 1261 1304 1303 1260
f 1051 1148 1098 1172
f 1255 1260 1303 1302
f 1049 1171 1098 1148
f 1398 1302 1303 1399
f 1218 1127 1098 1171
f 1400 1399 1303 1304
f 1219 1172 1098 1127
f 1276 1274 1306 1305
f 1054 1173 1099 1157
f 1308 1305 1306 1307
f 1061 1174 1099 1173
f 1310 1307 1306 1309
f 1060 1175 1099 1174
f 1270 1309 1306 1274
f 1053 1157 1099 1175
f 1286 1282 1312 1311
f 1057 1176 1100 1162
f 1314 1311 1312 1313
f 1062 1177 1100 1176
f 1308 1313 1312 1305
f 1061 1173 1100 1177
f 1276 1305 1312 1282
f 1054 1162 1100 1173
f 1318 1317 1316 1315
f 1063 1178 1101 1179
f 1314 1315 1316 1311
f 1062 1176 1101 1178
f 1286 1311 1316 1293
f 1057 1167 1101 1176
f 1294 1293 1316 1317
f 1058 1179 1101 1167
f 1322 1321 1320 1319
f 1064 1180 1102 1181
f 1318 1319 1320 1317
f 1063 1179 1102 1180
f 1294 1317 1320 1299
f 1058 1170 1102 1179
f 1300 1299 1320 1321
f 1059 1181 1102 1170
f 1248 1287 1323 1245
f 1046 1141 1103 1163
f 1246 1245 1323 1290
f 1045 1165 1103 1141
f 1285 1290 1323 1324
f 1056 1182 1103 1165
f 1280 1324 1323 1287
f 1055 1163 1103 1182
f 1238 1235 1325 1277
f 1043 1158 1104 1137
f 1280 1277 1325 1324
f 1055 1182 1104 1158
f 1285 1324 1325 1283
f 1056 1160 1104 1182
f 1240 1283 1325 1235
f 1044 1137 1104 1160
f 1300 1327 1326 1298
f 1059 1169 1105 1183
f 1244 1298 1326 1250
f 1048 1144 1105 1169
f 1253 1250 1326 1327
f 1050 1183 1105 1144
f 1228 1329 1328 1226
f 1038 1132 1106 1186
f 1227 1226 1328 1330
f 1037 1184 1106 1132
f 1332 1330 1328 1331
f 1185 1065 1332 1331
f 1065 1185 1106 1184
f 1333 1331 1328 1329
f 1066 1185 1331 1333
f 1066 1186 1106 1185
f 1227 1330 1334 1224
f 1037 1131 1107 1184
f 1225 1224 1334 1335
f 1040 1187 1107 1131
f 1337 1335 1334 1336
f 1188 1067 1337 1336
f 1067 1188 1107 1187
f 1332 1336 1334 1330
f 1065 1188 1336 1332
f 1065 1184 1107 1188
f 1259 1339 1338 1258
f 1052 1149 1108 1191
f 1261 1258 1338 1340
f 1051 1189 1108 1149
f 1342 1340 1338 1341
f 1190 1069 1342 1341
f 1069 1190 1108 1189
f 1343 1341 1338 1339
f 1070 1190 1341 1343
f 1070 1191 1108 1190
f 1253 1345 1344 1256
f 1050 1147 1109 1193
f 1259 1256 1344 1339
f 1052 1191 1109 1147
f 1343 1339 1344 1346
f 1192 1070 1343 1346
f 1070 1192 1109 1191
f 1347 1346 1344 1345
f 1068 1192 1346 1347
f 1068 1193 1109 1192
f 1386 1401 1348 1264
f 1211 1151 1110 1128
f 1228 1264 1348 1329
f 1038 1186 1110 1151
f 1333 1329 1348 1349
f 1194 1066 1333 1349
f 1066 1194 1110 1186
f 1350 1349 1348 1401
f 1128 1071 1350 1401
f 1071 1194 1349 1350
f 1071 1128 1110 1194
f 1225 1335 1351 1269
f 1040 1154 1111 1187
f 1270 1269 1351 1352
f 1053 1195 1111 1154
f 1354 1352 1351 1353
f 1196 1072 1354 1353
f 1072 1196 1111 1195
f 1337 1353 1351 1335
f 1067 1196 1353 1337
f 1067 1187 1111 1196
f 1261 1340 1355 1304
f 1051 1172 1112 1189
f 1400 1304 1355 1402
f 1219 1129 1112 1172
f 1357 1402 1355 1356
f 1197 1074 1357 1356
f 1074 1129 1402 1357
f 1074 1197 1112 1129
f 1342 1356 1355 1340
f 1069 1197 1356 1342
f 1069 1189 1112 1197
f 1270 1352 1358 1309
f 1053 1175 1113 1195
f 1310 1309 1358 1359
f 1060 1198 1113 1175
f 1361 1359 1358 1360
f 1199 1075 1361 1360
f 1075 1199 1113 1198
f 1354 1360 1358 1352
f 1072 1199 1360 1354
f 1072 1195 1113 1199
f 1310 1359 1362 1307
f 1060 1174 1114 1198
f 1308 1307 1362 1363
f 1061 1200 1114 1174
f 1365 1363 1362 1364
f 1201 1076 1365 1364
f 1076 1201 1114 1200
f 1361 1364 1362 1359
f 1075 1201 1364 1361
f 1075 1198 1114 1201
f 1308 1363 1366 1313
f 1061 1177 1115 1200
f 1314 1313 1366 1367
f 1062 1202 1115 1177
f 1369 1367 1366 1368
f 1203 1077 1369 1368
f 1077 1203 1115 1202
f 1365 1368 1366 1363
f 1076 1203 1368 1365
f 1076 1200 1115 1203
f 1314 1367 1370 1315
f 1062 1178 1116 1202
f 1318 1315 1370 1371
f 1063 1204 1116 1178
f 1373 1371 1370 1372
f 1205 1078 1373 1372
f 1078 1205 1116 1204
f 1369 1372 1370 1367
f 1077 1205 1372 1369
f 1077 1202 1116 1205
f 1322 1375 1374 1321
f 1064 1181 1117 1208
f 1300 1321 1374 1376
f 1059 1206 1117 1181
f 1378 1376 1374 1377
f 1207 1073 1378 1377
f 1073 1207 1117 1206
f 1379 1377 1374 1375
f 1079 1207 1377 1379
f 1079 1208 1117 1207
f 1318 1371 1380 1319
f 1063 1180 1118 1204
f 1322 1319 1380 1375
f 1064 1208 1118 1180
f 1379 1375 1380 1381
f 1209 1079 1379 1381
f 1079 1209 1118 1208
f 1373 1381 1380 1371
f 1078 1209 1381 1373
f 1078 1204 1118 1209
f 1300 1376 1382 1327
f 1059 1183 1119 1206
f 1253 1327 1382 1345
f 1050 1193 1119 1183
f 1347 1345 1382 1383
f 1210 1068 1347 1383
f 1068 1210 1119 1193
f 1378 1383 1382 1376
f 1073 1210 1383 1378
f 1073 1206 1119 1210
f 1218 1126 1397 1398
f 1212 1120 1384 1385
f 1125 1216 1394 1395
f 1120 1211 1386 1384
f 1126 1217 1396 1397
f 1129 1219 1400 1402
f 1213 1121 1387 1388
f 1217 1125 1395 1396
f 1124 1215 1392 1393
f 1121 1212 1385 1387
f 1219 1127 1399 1400
f 1211 1128 1401 1386
f 1214 1122 1389 1390
f 1216 1124 1393 1394
f 1122 1213 1388 1389
f 1123 1214 1390 1391
f 1127 1218 1398 1399
f 1215 1123 1391 1392

 