# File exported by ZBrush version 2021
# www.zbrush.com
#Vertex Count 1565
#Face Count 1562
#Auto scale x=0.047110 y=0.047110 z=0.047110
#Auto offset x=-0.029091 y=0.022900 z=-0.434581
v -0.44636875 -2.80040648 25.48011986
v -0.71556311 -2.92634498 25.65422327
v -0.43011448 -2.93266899 25.75431047
v -0.69065257 -2.87156854 25.48024512
v -0.73454289 -2.77935872 25.37283867
v -0.51521539 -2.88936629 25.47040429
v -0.54958126 -3.01002837 25.78854586
v -0.60733008 -2.95730426 25.6195653
v -0.44989039 -2.81024256 25.44700545
v -0.47467836 -2.85962002 25.47356353
v -0.46934818 -2.82335365 25.50560125
v -0.44553601 -2.72481191 25.48974813
v -0.44407239 -2.71919294 25.44351726
v -0.47116345 -2.73668324 25.52849022
v -0.70903754 -2.94879223 25.68576756
v -0.6791132 -2.97395257 25.65838962
v -0.69246784 -2.93111009 25.62962248
v -0.72606754 -2.8612221 25.66860115
v -0.72617477 -2.87608171 25.71339475
v -0.70253411 -2.8524129 25.6322111
v -0.45426131 -2.95530127 25.78038018
v -0.4446944 -2.88559943 25.81169799
v -0.42050203 -2.87014422 25.7701813
v -0.42693769 -2.85906222 25.72240939
v -0.44466736 -2.93463908 25.71912616
v -0.47664419 -2.97779185 25.74209863
v -0.71503678 -2.8336694 25.49791129
v -0.67178176 -2.84076709 25.52614578
v -0.65361837 -2.88119459 25.49292129
v -0.64422741 -2.875711 25.446116
v -0.6941818 -2.86185581 25.44408787
v -0.7365541 -2.82228106 25.4554558
v -0.69552578 -2.78677397 25.35719684
v -0.7033523 -2.70093339 25.34595543
v -0.74790005 -2.70684098 25.37575372
v -0.7677174 -2.72069665 25.42086488
v -0.74101113 -2.80315025 25.40765986
v -0.69470481 -2.83427749 25.39637795
v -0.49366241 -2.86324391 25.43832356
v -0.5323066 -2.8564105 25.41405171
v -0.54809052 -2.88887712 25.46487531
v -0.55517698 -2.89003653 25.51057227
v -0.51070902 -2.88372739 25.50120464
v -0.54899578 -2.97943378 25.81719281
v -0.49740364 -2.97204225 25.80711666
v -0.51597555 -3.00224336 25.77049507
v -0.58385588 -3.01201428 25.76836445
v -0.60264737 -2.98000835 25.80200899
v -0.5485902 -3.00594838 25.73681257
v -0.60530764 -2.91637953 25.60062
v -0.6518704 -2.92469799 25.60841371
v -0.63997186 -2.97031144 25.63453656
v -0.57955012 -2.9645125 25.63959615
v -0.55876323 -2.91592674 25.61426532
v -0.61573521 -2.99033723 25.66878967
v -0.65623095 -2.99596648 25.69887896
v -0.62339022 -3.00721802 25.7371681
v -0.58404289 -3.00061534 25.7034603
v -0.54438827 -2.97126573 25.66921731
v -0.51374039 -2.9203387 25.64157368
v -0.50882891 -2.97750497 25.70371587
v -0.47453935 -2.92788933 25.67796499
v -0.45494808 -2.84814755 25.67559019
v -0.4980523 -2.83953256 25.63677472
v -0.49737391 -2.72561738 25.6554771
v -0.55299077 -2.72113077 25.62892155
v -0.55068571 -2.83519667 25.61026472
v -0.45264777 -2.73437312 25.69575895
v -0.4608023 -2.58230308 25.72949711
v -0.50535574 -2.57371197 25.68850928
v -0.42576358 -2.74622453 25.74559189
v -0.43477695 -2.59414405 25.78046621
v -0.44723068 -2.39841356 25.82240169
v -0.47263845 -2.38669216 25.77098977
v -0.42310853 -2.75960985 25.79819311
v -0.43375363 -2.60773544 25.83429216
v -0.44697874 -2.41177547 25.87656293
v -0.45958374 -2.18125685 25.92148557
v -0.45932659 -2.16805942 25.86713582
v -0.46037426 -2.62073692 25.88047623
v -0.47413575 -2.42424605 25.92258757
v -0.48726241 -2.19337965 25.96742166
v -0.49786039 -1.9451713 26.01142196
v -0.46954294 -1.93322785 25.96541376
v -0.52268623 -2.43316421 25.95089671
v -0.53595887 -2.20190402 25.99542714
v -0.54704538 -1.95341796 26.03921363
v -0.55510004 -1.69876951 26.08061772
v -0.50507661 -1.69079606 26.05308542
v -0.59502684 -2.20570077 26.00238834
v -0.60625734 -1.9569392 26.04595721
v -0.61477784 -1.70198821 26.08694885
v -0.62042843 -1.44586105 26.12569093
v -0.55997791 -1.4429721 26.12000633
v -0.6663971 -1.95597685 26.03383774
v -0.67512817 -1.70079939 26.07460796
v -0.68117257 -1.44445074 26.11297048
v -0.68492029 -1.18938098 26.14975907
v -0.62367078 -1.19095277 26.16292361
v -0.72998069 -1.6957262 26.04641016
v -0.7364513 -1.43931524 26.08471448
v -0.74080711 -1.18429569 26.12146132
v -0.74443274 -0.93256246 26.15862569
v -0.68727999 -0.93738244 26.18699049
v -0.78056121 -1.43072674 26.04262844
v -0.78595845 -1.17587127 26.07932088
v -0.79182445 -0.92455587 26.1163157
v -0.79193436 -0.67612993 26.14789668
v -0.74435825 -0.68324511 26.18961707
v -0.81249898 -1.16437563 26.02550378
v -0.82040023 -0.9131435 26.06049451
v -0.82121265 -0.66570831 26.09288649
v -0.82217279 -0.42383731 26.12061363
v -0.79220607 -0.43214806 26.17466226
v -0.82367096 -0.89983931 25.99912283
v -0.82468408 -0.65320704 26.03186021
v -0.82455898 -0.41241997 26.06018453
v -0.82351661 -0.20289255 26.06912453
v -0.82191595 -0.20339308 26.12923859
v -0.78866268 -0.64153258 25.98183749
v -0.78962298 -0.39987376 26.01050595
v -0.78684536 -0.19997883 26.02042522
v -0.78301034 -0.06585385 25.99310801
v -0.82327274 -0.04795979 26.03542305
v -0.73442079 -0.38988477 25.9841541
v -0.72974773 -0.19778954 25.99474519
v -0.72529766 -0.07748507 25.9750433
v -0.72264451 0.00340824 25.93804468
v -0.78043168 0.01770732 25.95075248
v -0.66481922 -0.19571065 25.99144172
v -0.66313633 -0.08066522 25.97488135
v -0.66149076 0.00096547 25.93958697
v -0.66170648 0.06111784 25.89698979
v -0.72135099 0.06227346 25.8950616
v -0.6016662 -0.07520235 25.98724881
v -0.60145807 0.00903112 25.94991491
v -0.60341678 0.07057159 25.9045507
v -0.60577039 0.11477734 25.85563124
v -0.66272284 0.10451251 25.85015034
v -0.54574751 0.02755827 25.96751149
v -0.54880829 0.09083579 25.91709149
v -0.55196777 0.13399315 25.86328831
v -0.55435609 0.1557441 25.80482409
v -0.60739176 0.13988889 25.80175215
v -0.50090939 0.12060578 25.93494238
v -0.50374299 0.16246503 25.87348593
v -0.50532127 0.17995288 25.80682566
v -0.50104042 0.17108951 25.74260219
v -0.55131025 0.15123243 25.74396482
v -0.46902381 0.20291041 25.88541815
v -0.4670606 0.21705359 25.80805924
v -0.46174354 0.20362762 25.73386969
v -0.45380583 0.16629293 25.66795969
v -0.49332507 0.13793358 25.68673545
v -0.46239283 0.26435571 25.80548833
v -0.45573062 0.24730032 25.71779643
v -0.44821739 0.20426782 25.63903692
v -0.44401696 0.1400986 25.57873688
v -0.44537224 0.11126704 25.62002584
v -0.49530821 0.27525623 25.70525184
v -0.48714609 0.2303441 25.61681852
v -0.47982865 0.16259784 25.54452805
v -0.47487756 0.07634108 25.49827314
v -0.43990612 0.06401047 25.54120181
v -0.53776227 0.24471098 25.60241028
v -0.53088632 0.17455414 25.52266265
v -0.52520836 0.08319553 25.46802443
v -0.52504024 -0.02630927 25.44637537
v -0.47335717 -0.02702921 25.48049437
v -0.59565153 0.17793415 25.50866686
v -0.58954554 0.08435332 25.44852497
v -0.58745833 -0.0266381 25.42598267
v -0.58859971 -0.1716929 25.43893086
v -0.52656933 -0.16965682 25.46068746
v -0.66075409 0.0808437 25.44501906
v -0.65450394 -0.02928683 25.41984639
v -0.65347168 -0.17377234 25.43171915
v -0.65224751 -0.39879019 25.45881115
v -0.58761229 -0.39727233 25.46614179
v -0.7185604 -0.03385515 25.43077783
v -0.71611996 -0.17618954 25.43996201
v -0.71496957 -0.3983763 25.46856974
v -0.7197905 -0.63257932 25.48314246
v -0.65587535 -0.63304456 25.47278922
v -0.77059829 -0.17950786 25.46844701
v -0.77045769 -0.39551759 25.49750009
v -0.77615811 -0.63088641 25.5139972
v -0.78086423 -0.87582403 25.52127597
v -0.7254109 -0.87590563 25.48893966
v -0.80638879 -0.38958464 25.54587424
v -0.8105768 -0.62803395 25.56584057
v -0.81478695 -0.87576792 25.57406698
v -0.81226175 -1.12955934 25.57310795
v -0.78115617 -1.12764871 25.52245895
v -0.80783176 -0.62404321 25.62825984
v -0.81318535 -0.8754836 25.6361244
v -0.81116544 -1.13165264 25.63160253
v -0.81081039 -1.39118021 25.62205144
v -0.81165018 -1.38713723 25.56502956
v -0.77843533 -0.87488591 25.68852193
v -0.77962795 -1.13330888 25.68275382
v -0.78091499 -1.39462365 25.67269285
v -0.78024807 -1.65691706 25.65666387
v -0.80924943 -1.65204378 25.60639823
v -0.72915086 -1.1344656 25.71917171
v -0.7316261 -1.39706867 25.70919298
v -0.73166152 -1.66034081 25.69315894
v -0.72841277 -1.9216007 25.6704724
v -0.77658607 -1.91748022 25.63413422
v -0.67226998 -1.39857356 25.7297995
v -0.67264685 -1.66225444 25.71359845
v -0.6696483 -1.92372436 25.69068165
v -0.66307014 -2.17784711 25.66183353
v -0.72183746 -2.17572092 25.64186974
v -0.60998307 -1.66266263 25.71738017
v -0.60728572 -1.92385246 25.69398259
v -0.60087773 -2.17760561 25.66469291
v -0.59107115 -2.41206647 25.63195553
v -0.65334445 -2.41270983 25.62953138
v -0.54773302 -1.92182385 25.67928967
v -0.54201007 -2.17490612 25.64960904
v -0.5330469 -2.40879068 25.61663886
v -0.52281331 -2.60371396 25.5848719
v -0.5796273 -2.60752336 25.60016199
v -0.49421697 -2.16969455 25.61644655
v -0.4865512 -2.40286379 25.5840318
v -0.47792364 -2.59683879 25.55353004
v -0.51429961 -2.74589115 25.55777483
v -0.45950142 -2.39475235 25.53727712
v -0.45146582 -2.58757016 25.50937791
v -0.45851725 -2.38603583 25.48369789
v -0.44963933 -2.57878974 25.45796599
v -0.48461258 -2.37807558 25.43350689
v -0.47444738 -2.56993404 25.40799387
v -0.4678255 -2.71081834 25.39551002
v -0.47304869 -2.80633511 25.40525089
v -0.52217153 -2.56302155 25.36880391
v -0.51506752 -2.70222264 25.35697037
v -0.51765488 -2.79701745 25.37143302
v -0.57711387 -2.69738573 25.334838
v -0.57592726 -2.7901097 25.3519247
v -0.58316594 -2.84884911 25.39849339
v -0.59399205 -2.88329026 25.4550813
v -0.63805807 -2.78782821 25.34804682
v -0.63894696 -2.8433293 25.39260003
v -0.64307693 -2.69736154 25.33146115
v -0.58412624 -2.5597301 25.34619455
v -0.65027868 -2.56038437 25.34269371
v -0.71133651 -2.5646426 25.35880999
v -0.65764206 -2.37034956 25.36994133
v -0.71832254 -2.37406944 25.38590958
v -0.76610299 -2.38071766 25.42081807
v -0.75822814 -2.57201753 25.39316178
v -0.79182002 -2.38956719 25.47039417
v -0.78215743 -2.58266018 25.44197496
v -0.78965572 -2.39862754 25.52516524
v -0.77902318 -2.59327848 25.49587176
v -0.76377563 -2.73411723 25.47266523
v -0.74988675 -2.60142993 25.54395238
v -0.73590331 -2.74347696 25.51906058
v -0.70129934 -2.6064813 25.57901017
v -0.68823135 -2.74906778 25.55242678
v -0.64174838 -2.60845076 25.59817561
v -0.62978919 -2.75141301 25.57083563
v -0.61753964 -2.84472135 25.54302245
v -0.60493116 -2.88776294 25.50578977
v -0.56920107 -2.75052467 25.57266765
v -0.56122841 -2.84468672 25.54560728
v -0.50994902 -2.83856736 25.53208216
v -0.71253261 -2.41071285 25.60987377
v -0.76080222 -2.40596925 25.57409481
v -0.76988123 -2.17120078 25.60574791
v -0.79844278 -2.16446147 25.556292
v -0.80517529 -1.91150351 25.58426206
v -0.79976065 -2.1564095 25.50105155
v -0.80598202 -1.90448996 25.52857246
v -0.8099317 -1.64636519 25.55016964
v -0.7781437 -1.89796067 25.47902419
v -0.78128206 -1.64117078 25.50050118
v -0.78206855 -1.38348369 25.51504859
v -0.73135487 -1.63755946 25.46703883
v -0.73102528 -1.38105361 25.48208727
v -0.72847872 -1.12645601 25.49003913
v -0.66969464 -1.38008137 25.4685748
v -0.66621214 -1.12606775 25.47749075
v -0.66131339 -0.8760097 25.47797027
v -0.60228647 -1.12634926 25.48259462
v -0.5963769 -0.87601116 25.4842685
v -0.59069933 -0.63246452 25.47980736
v -0.53504768 -0.87597162 25.50590111
v -0.52861059 -0.6310175 25.50183218
v -0.52571689 -0.39418665 25.48758588
v -0.47543417 -0.62884208 25.5385398
v -0.47266288 -0.3896695 25.52306119
v -0.47329833 -0.16776562 25.49540617
v -0.43724673 -0.38300223 25.57457813
v -0.43674918 -0.16422826 25.54409029
v -0.43823889 -0.02707381 25.53068916
v -0.43293259 -0.15740072 25.60118049
v -0.43755987 -0.0312283 25.58863844
v -0.43991024 0.04690666 25.59407379
v -0.47484379 -0.04321781 25.63081431
v -0.47968371 0.02944933 25.63044107
v -0.48641772 0.08833004 25.64773653
v -0.53212551 0.01362179 25.6485412
v -0.53798527 0.07220949 25.65956121
v -0.54432106 0.12014473 25.69259085
v -0.59391036 0.06127077 25.66112754
v -0.59847209 0.1079682 25.69365743
v -0.60438672 0.13903503 25.74278438
v -0.65381052 0.10339683 25.68926081
v -0.65818215 0.1315422 25.73954037
v -0.66219477 0.1309555 25.79747194
v -0.71209121 0.13093458 25.73422648
v -0.71696228 0.13032799 25.79309051
v -0.72029785 0.10534454 25.84712395
v -0.76955117 0.1399867 25.78955044
v -0.77511415 0.11748165 25.84941272
v -0.77839295 0.07576406 25.90298437
v -0.81775957 0.14877325 25.85969764
v -0.82049212 0.10761173 25.9245942
v -0.822265 0.04535048 25.98328616
v -0.82461402 0.15072267 25.9565965
v -0.82522196 0.0811821 26.02804686
v -0.82484192 -0.025538 26.09060278
v -0.79472574 0.11375694 26.0676088
v -0.79562562 -0.00099556 26.13802422
v -0.79217966 -0.20104214 26.18329354
v -0.74757331 0.01741945 26.17245446
v -0.74435856 -0.19689661 26.22386133
v -0.74394658 -0.43690257 26.21585632
v -0.68684705 -0.19330908 26.25113299
v -0.68524395 -0.43896836 26.24413763
v -0.68691308 -0.6874263 26.2178756
v -0.62322487 -0.43886796 26.2574793
v -0.62472027 -0.6886359 26.23175372
v -0.62505848 -0.93910452 26.20114063
v -0.56183145 -0.68654789 26.22861473
v -0.5616321 -0.93695014 26.19763726
v -0.56221014 -1.18839704 26.15804495
v -0.50485456 -0.92987866 26.17122974
v -0.50913478 -1.18100495 26.13118828
v -0.50868942 -1.43527755 26.09278274
v -0.47743123 -1.16932395 26.08326708
v -0.47858621 -1.42353313 26.04588889
v -0.47598217 -1.67897462 26.00680394
v -0.47761065 -1.41029719 25.9896312
v -0.47510284 -1.66579751 25.95155083
v -0.4689048 -1.92006837 25.91075277
v -0.50012527 -1.65395805 25.89911788
v -0.49380229 -1.90831438 25.85878415
v -0.48434246 -2.15636348 25.81546706
v -0.53723389 -1.89959232 25.81708527
v -0.52783312 -2.1477556 25.77397061
v -0.51655691 -2.3781477 25.72968437
v -0.58267148 -2.14295633 25.74634216
v -0.57177863 -2.37352888 25.70233046
v -0.5611393 -2.56923248 25.66154759
v -0.6316073 -2.37327331 25.69135095
v -0.62097414 -2.56941562 25.6512437
v -0.61224607 -2.72171388 25.61899722
v -0.6777561 -2.57448865 25.65961182
v -0.66795987 -2.72754714 25.62765507
v -0.65992332 -2.84318443 25.6074939
v -0.60670254 -2.83629804 25.59948004
v -0.71211509 -2.7373372 25.65461549
v -0.72328407 -2.58390341 25.68728708
v -0.74903194 -2.59610829 25.73084836
v -0.73688258 -2.7491244 25.69604109
v -0.75011592 -2.60917652 25.78239819
v -0.73816298 -2.76249422 25.74547043
v -0.72749628 -2.62070703 25.83262461
v -0.71680666 -2.77417071 25.79472137
v -0.70569579 -2.88903923 25.76106924
v -0.67611512 -2.78264637 25.83702629
v -0.66663077 -2.89780984 25.80343868
v -0.65144228 -2.97546355 25.77077215
v -0.68779011 -2.96553495 25.729654
v -0.61277825 -2.9024421 25.83468944
v -0.62102103 -2.78740389 25.86736103
v -0.55837947 -2.78792705 25.88092538
v -0.55125672 -2.90275841 25.8490534
v -0.49734805 -2.78336802 25.87334549
v -0.49166654 -2.8974967 25.84087254
v -0.44882058 -2.77327193 25.84391031
v -0.50901284 -2.63019265 25.9093041
v -0.56923769 -2.63457456 25.91663981
v -0.58208189 -2.43725749 25.95806161
v -0.6308783 -2.63406025 25.90391303
v -0.64271619 -2.4366513 25.94582574
v -0.65518344 -2.20493848 25.99032581
v -0.69730933 -2.43182641 25.91726862
v -0.70964365 -2.20007152 25.9621027
v -0.72097854 -1.95101057 26.0056779
v -0.75234902 -2.19150049 25.92028489
v -0.76403389 -1.94241298 25.96375634
v -0.77345862 -1.68710741 26.00439624
v -0.78866411 -1.93084181 25.91181176
v -0.79842728 -1.67552613 25.95203161
v -0.80605683 -1.41915162 25.98969826
v -0.79759398 -1.66246099 25.89683417
v -0.80522479 -1.40604433 25.93351269
v -0.81239222 -1.15122184 25.96771519
v -0.77533034 -1.3941159 25.88652648
v -0.78074245 -1.13922114 25.91960167
v -0.78718412 -0.88752025 25.94896473
v -0.7277876 -1.1312703 25.8920757
v -0.73080039 -0.87961777 25.92136032
v -0.73339091 -0.63368781 25.95310957
v -0.66681794 -0.87690222 25.91724078
v -0.66954629 -0.63108042 25.9485839
v -0.67142592 -0.38419139 25.97935008
v -0.60289203 -0.63293275 25.96284918
v -0.60203461 -0.384478 25.99421633
v -0.59941222 -0.19136538 26.00544257
v -0.53768083 -0.39142556 26.02759645
v -0.54056361 -0.18698122 26.03487142
v -0.54439523 -0.06152156 26.01069194
v -0.49316739 -0.18633995 26.07734335
v -0.49636949 -0.0421319 26.04546884
v -0.49805855 0.05659004 25.99262343
v -0.46643179 -0.01992473 26.095341
v -0.46794917 0.09213137 26.02977008
v -0.4688848 0.16173366 25.96072235
v -0.46927227 0.12975216 26.07238372
v -0.46878453 0.20600417 25.99048016
v -0.46640063 0.25204953 25.89879651
v -0.50996808 0.2369493 26.01190528
v -0.50770912 0.28401134 25.90780989
v -0.50271596 0.29486513 25.80304267
v -0.5626449 0.2969347 25.9119737
v -0.555754 0.30919762 25.80173191
v -0.54628997 0.28987117 25.69747205
v -0.61586861 0.31170084 25.80012383
v -0.60781142 0.29382718 25.69262248
v -0.6014213 0.24916058 25.5935171
v -0.67595096 0.28637681 25.69114598
v -0.67297707 0.24240719 25.59228604
v -0.6676344 0.1726713 25.50679561
v -0.73383832 0.22703082 25.59785298
v -0.73042746 0.16078763 25.51516752
v -0.72436029 0.07304299 25.45588977
v -0.77879924 0.14062089 25.53384839
v -0.7764703 0.05861664 25.48113963
v -0.77478203 -0.04074111 25.45865047
v -0.81165223 0.04030248 25.52112415
v -0.81019154 -0.04942494 25.50591249
v -0.80675364 -0.17858119 25.51459312
v -0.80350489 -0.058924 25.56388328
v -0.80546012 -0.17493924 25.57643925
v -0.80470922 -0.38030151 25.60721556
v -0.76827409 -0.17278717 25.62590022
v -0.76968196 -0.37021084 25.65863001
v -0.7730721 -0.62000492 25.6809471
v -0.71721453 -0.36150369 25.69387252
v -0.72006774 -0.61695726 25.7169209
v -0.72574301 -0.87432882 25.72454001
v -0.65923663 -0.61541106 25.73838776
v -0.66486405 -0.87430502 25.74525154
v -0.6692594 -1.13534943 25.73997181
v -0.60044464 -0.87484534 25.75127396
v -0.60578692 -1.13599619 25.7450896
v -0.60930199 -1.39915967 25.73413412
v -0.54403022 -1.13617111 25.73266774
v -0.54854252 -1.39859824 25.72063936
v -0.5498328 -1.66136025 25.70317309
v -0.49798809 -1.39657991 25.68789565
v -0.50026065 -1.65810676 25.67004476
v -0.49898809 -1.91748812 25.64600825
v -0.47142376 -1.65308568 25.62094691
v -0.47079946 -1.91119021 25.597252
v -0.46657879 -2.16241752 25.5683634
v -0.47073177 -1.90410012 25.5418749
v -0.46622943 -2.15438642 25.51369102
v -0.49854961 -1.89779256 25.49159408
v -0.49334389 -2.14725189 25.46353292
v -0.54656128 -1.89331307 25.45455497
v -0.54108188 -2.14224133 25.4261307
v -0.53228185 -2.37241818 25.39526583
v -0.60061884 -2.13979203 25.40501683
v -0.59286245 -2.36979366 25.37341308
v -0.66419349 -2.1400261 25.40158431
v -0.60573069 -1.89099631 25.43376753
v -0.66880954 -1.89093415 25.4301895
v -0.72907384 -1.89325361 25.44507853
v -0.72445661 -2.14304268 25.4170199
v -0.77284894 -2.148745 25.45147797
v -0.67068957 -1.63592418 25.45275204
v -0.60756351 -1.63619011 25.45665649
v -0.6062518 -1.38044259 25.47303088
v -0.54830221 -1.6382373 25.47747051
v -0.54665008 -1.38204332 25.49402961
v -0.54212844 -1.12727476 25.50382363
v -0.4975285 -1.38488989 25.5310295
v -0.49193524 -1.12896857 25.54088424
v -0.48281115 -0.8762113 25.54307812
v -0.46133108 -1.13129735 25.59235943
v -0.44968337 -0.87654634 25.59578309
v -0.44051619 -0.62608332 25.59147125
v -0.44896797 -0.87682335 25.65673472
v -0.43954206 -0.622964 25.65373617
v -0.43352779 -0.37479454 25.63559555
v -0.47445324 -0.62000524 25.70567316
v -0.46938369 -0.36679089 25.68541963
v -0.46871328 -0.15576587 25.65033907
v -0.52562951 -0.36014674 25.7144803
v -0.52568447 -0.15555485 25.67799789
v -0.52870327 -0.05472322 25.6539095
v -0.58972868 -0.15674471 25.6858245
v -0.58982531 -0.06395168 25.66045065
v -0.59079438 0.00324392 25.6516511
v -0.65237727 -0.06969701 25.65411953
v -0.65079599 -0.00156546 25.64501759
v -0.65161791 0.05680438 25.65594396
v -0.70831937 -0.00113307 25.63031708
v -0.70758626 0.05821552 25.64569447
v -0.70852125 0.10472087 25.68195927
v -0.75999723 0.06538485 25.62985528
v -0.76058508 0.11279337 25.67083046
v -0.76366967 0.13990826 25.72764105
v -0.80428347 0.13257659 25.6528075
v -0.80834924 0.16222227 25.718801
v -0.81303131 0.16849843 25.78959219
v -0.8188486 0.20546123 25.70719394
v -0.82216441 0.21469911 25.79239464
v -0.82487228 0.19618398 25.87721198
v -0.78763612 0.25606144 25.7944873
v -0.79084343 0.23820755 25.89198967
v -0.79330095 0.18989042 25.98489172
v -0.74163472 0.26670094 25.90193171
v -0.74473481 0.21769948 26.00377249
v -0.74605727 0.1381797 26.09479064
v -0.68703161 0.23732056 26.01578948
v -0.68820462 0.1546332 26.1130097
v -0.69017535 0.02923954 26.19624046
v -0.6268996 0.16350448 26.12144741
v -0.62819953 0.03507004 26.20870914
v -0.62482726 -0.19111073 26.26460498
v -0.56578041 0.03319028 26.20802213
v -0.56250715 -0.19036485 26.26237187
v -0.56144113 -0.43662454 26.2549261
v -0.50567845 -0.1902117 26.2392906
v -0.50554165 -0.43129532 26.23101484
v -0.50501137 -0.68035032 26.20360527
v -0.46790473 -0.42241244 26.18407038
v -0.46757159 -0.66972993 26.15493253
v -0.46934019 -0.91807522 26.12088818
v -0.46753663 -0.65753434 26.09473497
v -0.46902239 -0.90456678 26.05951903
v -0.47630061 -1.15602933 26.0254342
v -0.49752692 -0.89263724 26.00331701
v -0.5024936 -1.14406548 25.97126031
v -0.50305132 -1.39836876 25.93650618
v -0.54780854 -1.13513419 25.9286606
v -0.5472781 -1.3894222 25.89422656
v -0.54378129 -1.64510496 25.85714317
v -0.60277041 -1.3841068 25.86577952
v -0.59880713 -1.6399455 25.82899345
v -0.59203492 -1.89461671 25.78921137
v -0.65924248 -1.63886508 25.81669432
v -0.65210557 -1.89376554 25.77726776
v -0.64254341 -2.14235393 25.73479709
v -0.7110512 -1.89746392 25.78396832
v -0.70086102 -2.14633635 25.74192783
v -0.68920889 -2.37769285 25.69906621
v -0.74877005 -2.1549156 25.76961069
v -0.73601006 -2.3865941 25.72685282
v -0.77605831 -2.1669201 25.81496477
v -0.76254964 -2.39868195 25.77155405
v -0.7766245 -2.1799404 25.86877681
v -0.76325341 -2.41169308 25.82447032
v -0.73960674 -2.42324937 25.8754293
v -0.68581843 -2.62925149 25.87463601
v -0.78798168 -1.91780142 25.85731398
v -0.75991657 -1.90584358 25.81153352
v -0.76871628 -1.65053944 25.85056154
v -0.71887496 -1.64232576 25.82303936
v -0.72425259 -1.38604345 25.85900051
v -0.66374173 -1.38280664 25.85305401
v -0.66598915 -1.12826701 25.88674409
v -0.60414918 -1.12973821 25.89990484
v -0.60329271 -0.87848686 25.93087092
v -0.54522165 -0.88390111 25.96020488
v -0.54113233 -0.63830486 25.99460222
v -0.49421697 -0.64655257 26.03881382
v -0.49139689 -0.40091025 26.07108814
v -0.46554796 -0.41168019 26.12522154
v -0.46537968 -0.1882475 26.13293807
v -0.46707001 -0.18967061 26.19263081
v -0.46850571 0.00295941 26.14968063
v -0.50867139 0.02195112 26.19005737
v -0.51039975 0.15586007 26.10422659
v -0.56670441 0.165171 26.11924593
v -0.56562471 0.24856917 26.02081111
v -0.62523949 0.24785045 26.02158036
v -0.62218629 0.29693328 25.91194966
v -0.68393745 0.28636448 25.90848425
v -0.68001031 0.30221032 25.79811087
v -0.73849984 0.28310687 25.79592079
v -0.73601812 0.26906728 25.69350181
v -0.78431509 0.24287714 25.6993142
v -0.78134532 0.20395025 25.60983202
v -0.8171344 0.17063783 25.62756018
v -0.81493135 0.11342071 25.56245612
v -0.80076887 0.08348716 25.60124628
v -0.80299786 0.01851263 25.57193383
v -0.76119191 0.00551284 25.60756222
v -0.76389171 -0.06673139 25.6072029
v -0.7111521 -0.07088327 25.6362775
v -0.71548277 -0.16894254 25.65892481
v -0.65473452 -0.16306858 25.67855711
v -0.65520218 -0.35634916 25.71568732
v -0.58903842 -0.35636216 25.72349368
v -0.59465423 -0.61570186 25.74568678
v -0.53054843 -0.61734879 25.7364988
v -0.53702979 -0.87573202 25.74029824
v -0.48230451 -0.87657513 25.70852748
v -0.49192203 -1.13550363 25.70042632
v -0.46088802 -1.13375479 25.65038715
v -0.46824167 -1.39309243 25.63855741
v -0.46832636 -1.38881308 25.58191636
v -0.47143135 -1.64725526 25.56498655
v -0.49984614 -1.64200985 25.51445268
v 3.14714123 -2.35113287 26.9912357
v 3.5373422 -2.4607846 23.98556567
v 1.47634438 -2.35705154 27.16390689
v -0.20346101 -2.38782405 27.21826423
v -3.39612958 -2.52686651 26.54695494
v 1.78285161 -2.45776122 24.29373609
v 0.00938776 -2.48324656 24.3989474
v -3.40838602 -2.60134406 24.040505
v 3.88007761 -2.5283011 21.14741867
v 4.13020545 -2.56579015 18.4841184
v 2.28638576 -2.55896955 18.75184756
v 2.05634634 -2.52323219 21.44619995
v 0.24143321 -2.54203531 21.57828185
v 0.47303254 -2.57063434 18.89011319
v -3.11454919 -2.64006653 18.79873129
v -3.31679631 -2.63621095 21.39194763
v 4.29030296 -2.58501079 15.96317292
v 4.37116429 -2.59193514 13.57695427
v 2.61282207 -2.57372446 13.81864662
v 2.4716338 -2.57391709 16.21492055
v 0.69374458 -2.57836321 16.35376564
v 0.89650164 -2.57108412 13.95402819
v -2.46329384 -2.49168474 13.90600387
v -2.82150754 -2.62720564 16.30298063
v 4.39163354 -2.58272961 11.31796922
v 4.36718583 -2.55859932 9.19463921
v 2.76878185 -2.54058996 9.4237512
v 2.71170162 -2.56166651 11.55830067
v 1.0735679 -2.55306701 11.69109472
v 1.21166822 -2.52801928 9.55045594
v -1.70040765 -2.20069369 9.45219336
v -2.06727177 -2.35589371 11.61276745
v 4.30984986 -2.53021379 7.2029566
v 4.2259653 -2.51145796 5.32747385
v 2.78444424 -2.51740446 7.40610929
v 1.29981943 -2.50209269 7.52381363
v 1.33159067 -2.48171106 5.59276305
v 2.75913555 -2.49945299 5.4847047
v -1.26730757 -1.96423995 5.59290475
v -1.41478885 -2.03390068 7.44359818
v 3.32013173 -2.57541431 -5.75163931
v 1.94928514 -2.56681656 -5.63202735
v 0.59489711 -2.56479158 -5.50037942
v -2.07405363 -2.57901052 -5.18426852
v 2.66837424 -2.58721495 -11.25180681
v 1.37004728 -2.59283076 -11.47262188
v -0.00707076 -2.58998466 -11.42473104
v -2.84894843 -2.57394492 -10.35584759
v 4.1169612 -2.51057357 3.52808148
v 3.98312794 -2.52175458 1.72192813
v 2.69349204 -2.49505843 3.63601299
v 1.30612264 -2.47372994 3.73374246
v 1.22809503 -2.47901173 1.90478238
v 2.59120622 -2.50091842 1.80522911
v -1.22800484 -1.97514372 3.85546479
v -1.3086503 -2.11285328 2.13133646
v 3.83219753 -2.5372838 -0.12278448
v 1.10766337 -2.49335751 0.07294964
v 2.45956794 -2.51303346 -0.03564294
v -1.47407941 -2.30349666 0.35216061
v 3.50588901 -2.56112626 -3.88692305
v 2.13641139 -2.54375758 -3.76176819
v 0.783806 -2.53632603 -3.63188903
v -1.87554632 -2.53541192 -3.34413534
v 4.0998027 -2.23340751 29.29515289
v 2.09009115 -2.07947301 31.35688556
v 0.88459543 -2.09008024 31.97786722
v -0.39065099 -2.11135622 32.22447239
v -3.9290151 -2.31627515 30.58252469
v -5.81195896 -2.73084033 26.7055772
v -6.62244673 -2.83736003 23.33774885
v -6.95327648 -2.80860079 20.84344369
v -6.95388189 -2.74667178 18.38278814
v -6.57988434 -2.52088775 15.92085661
v -5.92086785 -2.09705994 13.47078077
v -5.08112837 -1.64504098 11.11563574
v -4.24591106 -1.41056201 8.79772249
v -3.79759902 -1.07295878 6.78354834
v -3.51077273 -1.0720332 5.16246068
v -3.45491485 -1.21716102 3.96764268
v -3.62866305 -1.53331763 2.71590655
v -4.79823752 -2.66811171 -5.09878821
v -4.47527138 -2.51305972 -10.69125045
v -3.79597638 -2.50070381 -11.81970519
v -0.13622538 -2.51116459 -13.82232206
v 1.27778958 -2.5231558 -13.76105033
v 2.59598129 -2.52057192 -13.33801376
v 4.62215089 -2.53962239 -11.75012228
v 6.18330843 -2.65341373 -6.18859575
v 6.29654561 -2.66490661 -4.27572169
v 7.21297914 -2.48095684 4.79987376
v 7.41560993 -2.5360314 6.46196428
v 7.64459828 -2.62547072 8.35534449
v 7.88231027 -2.69834761 10.45657869
v 8.08898279 -2.69682271 12.76656487
v 8.18888146 -2.65093075 15.21721228
v 8.06934036 -2.62731255 17.67362115
v 7.6799983 -2.63072356 20.109996
v 7.03374845 -2.60977971 22.6040595
v 5.78954034 -2.47611519 26.11019587
v -3.96247175 -2.0847499 0.92492816
v 6.80603164 -2.56435651 1.75751603
v 7.03384334 -2.50694558 3.41514035
v -4.55361779 -2.62628694 -3.19839801
v 6.57350956 -2.61428718 -0.19027156
v 2.30666491 -2.52807416 -1.89222641
v 3.67372298 -2.5508589 -1.99503887
v -4.24047951 -2.50613948 -1.01306732
v 0.95657434 -2.51384352 -1.77246642
v -1.67233763 -2.44669535 -1.47738209
v 6.41812244 -2.66042206 -2.07652491
v -1.87374734 -2.44576257 26.99169117
v -1.88571831 -2.1571264 31.91988504
v -1.7524245 -2.49697111 -13.29873143
v -1.74443389 -2.53223418 24.29620199
v -1.55527034 -2.58059061 21.54942108
v -0.37136092 -2.49992618 -1.63495676
v -0.20313435 -2.4279071 0.19784766
v -1.32255736 -2.59856834 18.89977435
v -0.06844255 -2.34041636 2.01583707
v 0.00192668 -2.28860906 3.81150055
v -1.06281501 -2.59676035 16.37999097
v -0.79052998 -2.58099833 13.98371672
v -1.44652181 -2.58089205 -11.04476738
v -0.52419856 -2.5537118 11.71827402
v -0.11616702 -2.45635351 7.55805408
v -0.28938336 -2.50829556 9.57314919
v -0.01269653 -2.31729254 5.63911602
v -0.55265913 -2.536079 -3.48953614
v -0.74561144 -2.56741959 -5.34396115
v 0.18788687 -2.61885381 -9.33725255
v -1.17528785 -2.61334017 -9.0782989
v 5.62972877 -2.58598833 -9.52621715
v 2.88023603 -2.60973606 -9.40455681
v 1.54501254 -2.61760141 -9.43552037
v -2.48934077 -2.60645947 -8.71279282
v -4.95200074 -2.58863199 -8.37571735
v -0.94932305 -2.59965611 -7.19817868
v -2.26687808 -2.60276869 -6.97258743
v -4.87359297 -2.65003214 -6.68334206
v 0.39408207 -2.60006398 -7.38921317
v 1.74761029 -2.59885364 -7.51116577
v 3.10721965 -2.59743803 -7.5809081
v 5.91312348 -2.62863359 -7.7963283
v 2.50754355 -2.23857985 29.13216437
v 3.58557275 -2.30420629 27.99557938
v 5.7253931 -2.56337992 20.67924563
v 5.22380167 -2.50800788 23.37868354
v 4.47103102 -2.40663523 26.18050881
v 1.13067988 -2.23305894 29.67431947
v -0.36655153 -2.26103707 29.80012844
v -1.94957883 -2.32545617 29.41516465
v -3.50573687 -2.44363844 28.34889513
v -4.48166925 -2.60085284 26.41134436
v -2.67691016 -1.55189538 7.198767
v -2.44398764 -1.49868108 5.43739902
v 3.83117903 -2.58357952 -10.78229897
v 4.20568552 -2.60098395 -9.3423134
v -2.39372895 -1.57029047 3.84528552
v 6.03651653 -2.59122963 18.1029357
v -2.71438229 -2.16451714 0.57027002
v -2.95995631 -2.42452613 -1.28546006
v 4.7201081 -2.60053306 -5.90692394
v 4.89303518 -2.59783009 -4.03584746
v -3.55294766 -2.61665835 -6.79025381
v -3.66437084 -2.60085584 -8.42909668
v -3.66290699 -2.56964193 -9.82860555
v -4.15550781 -2.32906962 13.72763385
v -3.5980196 -2.03859746 11.39593242
v 5.04950469 -2.58937293 -2.07330874
v 5.21186344 -2.56942131 -0.17737019
v -3.19991531 -2.55614417 -3.22552543
v 6.18846543 -2.63044712 13.22808985
v 6.17690898 -2.61349722 15.62340128
v -4.9438515 -2.69058173 23.76308558
v -5.06698771 -2.70921373 21.15679263
v 5.99735946 -2.58505049 8.84843025
v 6.11530893 -2.62314114 10.95946166
v 5.86075569 -2.53787149 6.89815432
v -4.95098224 -2.69192824 18.61676015
v -4.62999015 -2.66727509 16.14009523
v 5.39157111 -2.54245931 1.68272234
v -2.48918294 -1.83674003 2.33362755
v 5.71628799 -2.51136734 5.11275742
v 4.48564233 -2.60473862 -7.6555468
v 5.56478635 -2.5173004 3.43336385
v -3.03213101 -1.7640182 9.17650674
v -3.40657107 -2.60777498 -5.07464541
v -0.01929552 -4.10088098 -11.45942065
v 0.18457593 -4.13020039 -9.34062687
v -1.18315115 -4.12467584 -9.0846275
v -1.46915647 -4.09162785 -11.08181407
v 2.52097805 -3.74730017 29.22298388
v 3.56456073 -3.81318739 28.07798902
v 4.07166121 -3.74202613 29.3833572
v 2.11333074 -3.58728996 31.46022815
v -0.23195337 -3.98652851 0.22505416
v 1.08875322 -4.00438762 0.08961376
v 1.20342314 -3.99004644 1.91517231
v -0.12409634 -3.96471118 2.02881689
v 0.78068601 -4.04744725 -3.61105604
v 0.9456552 -4.02493974 -1.75344774
v -0.3761976 -4.01644194 -1.60910214
v -0.54673769 -4.04713094 -3.46463042
v 5.68776409 -4.07421156 20.69323003
v 5.17547497 -4.01839922 23.40860077
v 3.52661352 -3.97154713 24.02795283
v 3.86858537 -4.03936317 21.17296458
v 4.42875425 -3.91639903 26.23987765
v 3.14153792 -3.86098587 27.05894989
v 2.28810519 -4.03913733 -1.87763091
v 3.6426522 -4.06174542 -1.98168582
v 3.80351421 -4.04820701 -0.10694781
v 2.43741122 -4.02408572 -0.02185085
v 5.72711189 -3.98524875 26.1655717
v 1.94517842 -4.077918 -5.61036564
v 3.30408725 -4.08652208 -5.73615943
v 3.47921137 -4.07212585 -3.87455939
v 2.12447315 -4.054881 -3.74520402
v 1.16636695 -3.7412651 29.76482268
v 0.93021501 -3.59720733 32.07971685
v 0.59677541 -4.07583925 -5.47572548
v -0.3547093 -3.61910437 32.32077027
v -0.32990963 -3.76937876 29.88680817
v -1.90306818 -3.83357566 29.50185071
v -1.84420494 -3.66470074 32.0173368
v -0.73682422 -4.07846457 -5.31959315
v -3.42302991 -3.950599 28.43250419
v -3.84057798 -3.82259172 30.67444999
v -5.68009911 -4.23576849 26.75852383
v -4.37047064 -4.10737532 26.46665947
v 2.56911244 -4.01194727 1.81514142
v 1.7977823 -3.96830692 24.33880803
v 2.06532366 -4.03422704 21.47378159
v 1.49824695 -3.86673499 27.23092268
v -1.508565 -3.96636228 7.44184254
v -2.75971518 -3.96763825 7.20596559
v -2.60181377 -3.91399955 5.44388324
v -1.38310096 -3.92290032 5.59137638
v -0.94566231 -4.11082112 -7.18094648
v -2.25662669 -4.1140044 -6.96382077
v -2.49761874 -4.11773108 -8.72577391
v -0.16748745 -3.89728989 27.28349228
v 0.04093623 -3.99357764 24.44239354
v 0.26616868 -4.05290411 21.60370124
v -1.69674486 -4.04225544 24.33576646
v -1.51617763 -4.09123436 21.57019967
v -1.82230221 -3.95491147 27.05476963
v -3.34032199 -4.11084643 24.07275907
v -3.32058436 -4.03520315 26.60663882
v 3.85062978 -4.09434932 -10.8170202
v 4.21268911 -4.11218755 -9.36004283
v 2.88714441 -4.12104341 -9.41066273
v 2.68394079 -4.09805576 -11.2859296
v -3.26245447 -4.14651215 21.40441503
v -1.67373348 -4.01390013 -1.43992167
v -1.51726176 -3.96823986 0.39504057
v -2.55985678 -3.89553946 3.91685356
v -1.35145546 -3.91179555 3.86760514
v 6.01066634 -4.10223666 18.1136141
v 4.11829885 -4.07694821 18.49867404
v -2.76360824 -3.9586293 0.63032398
v -2.94539339 -4.01472821 -1.23211615
v 3.96198908 -4.03281569 1.73639014
v 4.68196952 -4.11139933 -5.9016227
v 4.84053833 -4.10825464 -4.02796518
v 2.28982414 -4.07015465 18.7660888
v 0.49031902 -4.08178006 18.90158614
v -3.52996317 -4.12788568 -6.79964169
v -3.67353984 -4.11195349 -8.4586356
v 0.39611952 -4.11120765 -7.36901784
v -1.29285475 -4.10952238 18.90675896
v -3.0738631 -4.15079742 18.79906088
v 1.54892846 -4.12891873 -9.43866948
v 1.37412222 -4.10377515 -11.5061399
v -3.69525089 -4.08005305 -9.87058279
v -2.87826974 -4.08452747 -10.39461244
v 1.27979522 -3.98477746 3.73388163
v -0.06707984 -3.95606598 3.81198006
v -4.11773235 -4.14313593 13.71881057
v -3.56380635 -4.08599069 11.39639312
v -2.06666763 -4.07420207 11.60665125
v -2.43891445 -4.11347617 13.89322269
v 4.99541652 -4.0996784 -2.05609298
v 5.17015855 -4.07994297 -0.15169143
v -3.15919444 -4.08163583 -3.19100537
v -1.85708481 -4.05668393 -3.31495954
v 4.3483389 -4.10306031 13.5759421
v 6.14994413 -4.14125898 13.23405502
v 6.15045401 -4.12447214 15.63627418
v 4.27441726 -4.096194 15.97060162
v 4.10438657 -4.02177544 3.53455431
v 2.67397676 -4.00619688 3.63802784
v -1.39963192 -3.92618798 2.1652081
v 2.60387638 -4.08495638 13.81393876
v 2.46908709 -4.08518032 16.21900213
v 0.70374081 -4.0896092 16.35444253
v -4.84277365 -4.19866738 23.77867426
v -4.99335422 -4.2188469 21.15163057
v 0.89943045 -4.0823279 13.94566102
v -0.77661849 -4.09218074 13.97111837
v -1.04129438 -4.1078852 16.37669003
v -2.7899272 -4.13811619 16.29583281
v 1.74952068 -4.11000949 -7.49231283
v 4.34359499 -4.06953217 9.17354038
v 5.95973076 -4.09558227 8.81492322
v 6.06822466 -4.13368668 10.94467449
v 4.36466995 -4.09372241 11.3054988
v 5.8470974 -4.04881937 6.86486246
v 4.29469641 -4.04129198 7.18306777
v -4.90265617 -4.20240419 18.60601786
v -4.59185094 -4.1780014 16.13122356
v 3.1040359 -4.1086652 -7.5681674
v 2.75264137 -4.05163383 9.40599453
v 2.69772592 -4.0728154 11.5455429
v 2.76808108 -4.02846273 7.38930885
v 1.06927033 -4.06423472 11.67521535
v 1.20008041 -4.03909051 9.53018434
v 1.28148223 -4.01308406 7.50449826
v -0.30291354 -4.02967227 9.54830891
v -0.51964609 -4.06482811 11.69663351
v -0.15099682 -3.99403186 7.52804387
v 5.37017858 -4.05338362 1.70979663
v -1.73879136 -4.01919884 9.44963994
v -2.61508648 -3.90483688 2.36450317
v 5.72112775 -4.02274966 5.10301845
v 4.21625574 -4.02267564 5.31958525
v 4.46982085 -4.11601799 -7.65699926
v 5.56443557 -4.02856331 3.45081556
v 2.74204047 -4.01059349 5.47589344
v 1.30784183 -3.9927483 5.58112056
v -3.0798735 -4.02560081 9.21263983
v -0.0733515 -3.96680511 5.62581231
v -3.36295633 -4.11843707 -5.06145051
v -2.05269209 -4.09000521 -5.16343805
v 7.6281056 -4.14110652 20.11488605
v 6.96434773 -4.11936511 22.62440286
v -3.84640461 -4.02199939 6.77654697
v -3.64160934 -3.95448573 5.09755652
v 4.64539064 -4.05013139 -11.79191099
v 5.63733681 -4.0970594 -9.5532421
v -3.60296152 -3.96418042 3.9300453
v 8.0375696 -4.13824019 17.68098532
v -3.98647759 -4.0466413 0.9594767
v -4.21186893 -4.04117495 -0.9356287
v 6.13151251 -4.16383924 -6.18956111
v 6.22790971 -4.17459608 -4.27028128
v -4.84258387 -4.16102161 -6.70498099
v -4.96260069 -4.09943168 -8.41722139
v -4.51407862 -4.02306027 -10.73955502
v -5.87340149 -4.18054637 13.45056773
v -5.03127075 -4.16053197 11.08930129
v 6.34900956 -4.16998185 -2.05579566
v 6.52301871 -4.12437598 -0.1571369
v -4.49666487 -4.13608426 -3.16111977
v 8.04221672 -4.2073885 12.77749884
v 8.15863718 -4.16179845 15.23368282
v -6.50029549 -4.34380881 23.34148882
v -6.86840474 -4.31754805 20.82597237
v 7.59754565 -4.13549088 8.31276834
v 7.82274594 -4.20842281 10.44011021
v 7.40268452 -4.04673809 6.41845519
v -6.90291405 -4.25701457 18.364979
v -6.53983592 -4.20593603 15.90955067
v 6.78409791 -4.07508898 1.79347528
v -3.71747214 -3.97176411 2.66930876
v 7.22762334 -3.99231243 4.7883211
v 5.88934254 -4.13977109 -7.80758616
v 7.04157949 -4.01806837 3.44052495
v -4.27958154 -4.07845635 8.81947692
v -4.74052168 -4.17831897 -5.09068199
v 2.61635549 -4.0309242 -13.38631959
v 1.2821191 -4.0337083 -13.80863246
v -0.1533207 -4.02157048 -13.87127062
v -1.78276367 -4.00705469 -13.35006365
v -3.83631105 -4.01057451 -11.8704301
v -0.72475204 0.03307519 25.62651764
v -0.72038104 0.08399953 25.67637083
v -0.4682102 -0.54346999 26.05950764
v -0.78415647 -0.45343591 26.04675303
v 6.35603908 -3.26602332 4.34014064
v 5.99324056 -3.2356522 4.45082367
v 5.58977873 -2.91482031 4.0044667
v -2.94017186 -2.58946893 7.3747812
v -3.42328706 -2.6376068 7.26229144
v -3.38859334 -1.49240808 5.62598785
v -2.93287158 -1.43454167 5.79274924
v 6.36359177 -2.80995994 3.0304935
v 5.91809008 -2.71813744 3.16828467
v 5.72258717 -3.20646532 4.14565528
v -0.39474388 -0.10572067 25.68466177
v 0.0087837 0.11717539 25.43038308
v -0.13473109 0.21998461 25.42548418
v -0.16909127 0.31650145 25.48037923
v -0.70862595 0.0854312 25.65876286
v -0.97601872 -0.07811562 25.59649794
v -0.66857888 -0.25265537 25.74913195
v -1.31730135 0.40978678 25.2137584
v -1.44203916 0.27261248 25.2004066
v -1.27229077 0.50762672 25.30438812
v -0.13717398 0.37111674 25.54664855
v -0.41395906 0.0401862 25.82624541
v -0.68685448 -0.1047117 25.92934887
v -0.98871656 0.07185143 25.79471251
v 0.0081862 0.3870241 25.65404361
v -1.33549401 0.57907029 25.39719528
v -1.47848156 0.54976305 25.5318734
v -0.4848124 -0.52166037 26.09278021
v -0.30465582 -0.42730384 26.06503662
v -0.31314579 -0.45255172 26.00279068
v -0.50768081 -0.51923016 25.98448938
v -0.58291851 -0.54920725 26.03352017
v -0.35579256 -0.42907644 25.92652112
v -0.70931185 -0.40963621 26.06305657
v -0.65286082 -0.47806919 26.07524183
v -0.76260056 -0.52264504 26.04031943
v -0.87465082 -0.41060678 26.02553668
v -0.80101812 -0.340607 26.03489672
v -0.89557617 -0.48709666 25.99601041
v 6.4192314 -3.1395112 5.0526538
v 6.5788399 -2.98465753 4.9106248
v 6.46338164 -3.21638364 4.20125285
v 6.07670855 -3.11864436 5.08567459
v 5.83939732 -3.1839809 4.41647346
v 5.92294122 -2.98462432 5.03776098
v 5.69180834 -2.50402135 4.86429935
v 5.79752731 -2.76695884 4.97518324
v 6.04476698 -3.16456084 3.52938275
v 5.65910607 -2.8326411 3.71666841
v 5.73461239 -2.28981576 4.48067099
v -2.9210586 -2.2645784 7.88715413
v -2.75260848 -1.98597568 7.64214598
v -2.7709392 -2.26637199 7.10728974
v -3.19315433 -2.31986124 6.95183746
v -3.17391171 -2.59316588 7.31993122
v -3.21987499 -2.36250967 7.92223003
v -3.51520794 -2.30988172 7.77370044
v -3.60907788 -2.32099519 6.92543215
v -3.66415069 -2.05261207 7.44359012
v -3.62663112 -1.85764878 5.94508687
v -3.22054651 -1.93327276 6.00990436
v -3.16301854 -1.5182204 5.68093194
v -3.48243703 -1.24768317 6.33976528
v -3.65067048 -1.5164151 6.58438486
v -3.18687287 -1.14482682 6.33354708
v -2.76853751 -1.79438592 6.18728088
v -2.74132499 -1.41562658 6.85396344
v -2.9011024 -1.18950394 6.51632384
v 6.49334061 -2.32257702 3.71670321
v 6.25239727 -2.24030371 3.69349351
v 6.13256517 -2.79699167 3.08887549
v 6.50284363 -2.98967204 3.26778544
v 6.63857566 -2.49050714 3.9694415
v 6.11504513 -3.0818545 3.23002706
v 5.97753421 -2.17468803 3.81016638
v 5.8540586 -2.23155761 4.10519314
v 5.78739359 -2.79986829 3.39261957
v 6.56413307 -3.17278409 3.98499381
v 6.57710023 -3.10649421 3.60138222
v 6.6887559 -2.84193266 4.68246991
v 6.70905118 -2.65663149 4.3217786
v 6.82145269 -2.39891047 5.42713403
v 6.84641534 -2.11916495 5.09758056
v 6.78346657 -1.87003837 4.77279473
v 6.95141599 -1.49855677 5.94776565
v 6.89812396 -1.1640836 5.70787464
v 6.75249922 -0.84573513 5.49706899
v 6.62472601 -1.64248059 4.49465824
v 6.52004103 -0.61439376 5.40204739
v 6.38234475 -1.49566885 4.4163074
v 6.14836704 -0.64200221 5.51279274
v 6.05850973 -1.45717182 4.55066795
v 5.99418947 -0.90006345 5.7700548
v 5.92114304 -1.58309363 4.87334594
v 5.93797416 -1.20559776 6.04558368
v 5.8164375 -1.73866349 5.25431798
v 5.90048338 -1.5604672 6.31197077
v 5.77931552 -2.0568344 5.62482038
v 5.94590009 -1.93936271 6.55091286
v 5.81117548 -2.43501253 5.82495681
v 6.09736568 -2.29374788 6.72723561
v 5.90656051 -2.76065191 5.91374122
v 6.30063351 -2.51431054 6.79952624
v 6.11607059 -2.95513553 5.93455872
v 6.69757001 -2.47848019 6.66630691
v 6.52001256 -2.94285521 5.8405126
v 6.86361022 -2.17329598 6.44415799
v 6.70548961 -2.66763995 5.65666705
v 6.92590867 -1.8312664 6.20483191
v 7.05634578 -1.49490118 7.54831258
v 7.10291384 -1.14008283 7.33095375
v 7.08486432 -0.77915415 7.12007756
v 7.25713633 -0.41395916 8.60657832
v 7.2082504 -0.04399746 8.43162702
v 7.11839309 0.32169365 8.26288962
v 7.01553065 -0.41430609 6.92101514
v 6.97485026 0.67511797 8.1096007
v 6.87859477 -0.05244058 6.74633479
v 6.77063795 0.96802669 7.99349702
v 6.65860272 0.22575841 6.63655591
v 6.38426535 0.89794465 8.06230538
v 6.26563962 0.16439009 6.73191468
v 6.30987146 0.53853706 8.24975671
v 6.14919323 -0.17281113 6.95596032
v 6.30436969 0.17200703 8.43923744
v 6.11503501 -0.53080918 7.18146838
v 6.35195877 -0.19701592 8.62380222
v 6.1308274 -0.89783596 7.39740241
v 6.46001554 -0.55900307 8.79615011
v 6.20904222 -1.26786442 7.59550185
v 6.62564519 -0.90100793 8.95550329
v 6.35376676 -1.62461815 7.7784034
v 6.84075731 -1.19640939 9.08822652
v 6.57788593 -1.90847712 7.89509145
v 7.23030559 -1.14358763 8.98819803
v 6.96484749 -1.84167056 7.76730954
v 7.26544498 -0.78243975 8.78978597
v 7.42127429 -0.48177824 10.19639305
v 7.42901866 -0.13602315 10.03037877
v 7.39476176 0.2207522 9.87419687
v 7.5784074 0.42731148 11.3125356
v 7.50748084 0.78246124 11.18029002
v 7.40279206 1.13262661 11.05200945
v 7.32386049 0.57858492 9.72314895
v 7.26230156 1.47240411 10.92857829
v 7.206283 0.92799773 9.57994833
v 7.09481585 1.79948125 10.81052903
v 7.05044104 1.26488959 9.44601637
v 6.88040908 2.08892431 10.70767545
v 6.84932786 1.56019296 9.33498487
v 6.49713246 2.05126003 10.71967647
v 6.46590004 1.50773471 9.37596981
v 6.47657971 1.69315181 10.85353188
v 6.42713582 1.14586754 9.53687267
v 6.50951256 1.33684573 10.99244956
v 6.44429211 0.78721591 9.70094439
v 6.61267739 0.98837432 11.12882163
v 6.51543313 0.43042209 9.86118577
v 6.77584873 0.65997345 11.25710204
v 6.65158901 0.08912645 10.00921121
v 6.97199025 0.35106422 11.37768695
v 6.83165094 -0.23282613 10.14635546
v 7.20128477 0.06309952 11.48649335
v 7.04437434 -0.5215301 10.26836824
v 7.57796774 0.0903205 11.44579683
v 7.25891269 0.55125348 12.75323048
v 7.64268907 0.58210656 12.74933299
v 7.65224396 0.90156237 12.64973385
v 7.56782896 0.97094158 14.10471504
v 7.60400835 1.27516771 14.03918271
v 7.50549319 1.65086697 13.93992707
v 7.56569138 1.26376419 12.53614621
v 7.33610143 2.00030089 13.83565709
v 7.43238096 1.61385997 12.42416728
v 7.12836044 2.32670304 13.73002921
v 7.26440561 1.94996772 12.31401278
v 6.89581748 2.63383377 13.62451172
v 7.05619333 2.26456527 12.20774091
v 6.63285374 2.91199398 13.52007188
v 6.81962636 2.55088389 12.10801019
v 6.24141459 2.85505593 13.45892478
v 6.42916269 2.51077727 12.08568172
v 6.1800815 2.51261278 13.52220598
v 6.39671378 2.1597941 12.1873324
v 6.24265893 2.13281976 13.62048234
v 6.45438091 1.79295038 12.30572058
v 6.38991326 1.77571944 13.73156771
v 6.57680354 1.44003317 12.42658573
v 6.60587434 1.45685354 13.84533122
v 6.76944991 1.11886916 12.54268894
v 6.87329858 1.17683995 13.95759609
v 6.98973929 0.81683953 12.65489529
v 7.17443506 0.92754984 14.06379426
v 6.58765274 1.41061175 15.265842
v 6.91980844 1.1837526 15.39005807
v 7.31824105 1.24592453 15.47874
v 6.51294951 1.34037156 16.70038905
v 6.90972027 1.41178001 16.83477427
v 7.00963919 1.70459408 16.84494405
v 7.38831993 1.54331787 15.44928268
v 6.89366472 2.10508535 16.77049007
v 7.27701789 1.93022534 15.36229613
v 6.68324337 2.45977749 16.66620553
v 7.08519137 2.28229122 15.25943939
v 6.4356855 2.78430775 16.55092313
v 6.85446463 2.60704795 15.15033945
v 6.14788689 3.06830945 16.42414311
v 6.59903649 2.90983775 15.0377741
v 5.8329112 3.31911196 16.28824027
v 6.29917409 3.16688345 14.91730116
v 5.44275783 3.25013319 16.14195256
v 5.90402123 3.09926257 14.81000479
v 5.33435914 2.92263379 16.12476654
v 5.81407946 2.76371736 14.83345361
v 5.3996457 2.5065891 16.18452381
v 5.87288624 2.36303046 14.91496811
v 5.58813901 2.13210618 16.29041137
v 6.04889537 1.99943992 15.02593234
v 5.85346427 1.81609681 16.41632346
v 6.29746036 1.68444667 15.14379577
v 6.16260448 1.54927655 16.55359146
v 5.30428787 1.85853522 17.65438232
v 5.62209827 1.59381852 17.80427335
v 5.98551643 1.40547356 17.97504229
v 5.0001481 1.57032321 19.01606197
v 5.36088179 1.39536562 19.20613806
v 5.73631884 1.46567698 19.41197743
v 6.37533547 1.48281112 18.15066143
v 5.86815466 1.73762768 19.49640382
v 6.49581853 1.76765893 18.19937149
v 5.75595115 2.15544746 19.459638
v 6.38198607 2.18132375 18.14174358
v 5.51604782 2.50609978 19.3564289
v 6.15483797 2.53687482 18.03707821
v 5.23748147 2.81657321 19.23139866
v 5.88631805 2.8538274 17.91437281
v 4.93384019 3.09353843 19.09099293
v 5.58804697 3.13526452 17.77826437
v 4.59199359 3.30879384 18.92646275
v 5.25708689 3.37160912 17.62684686
v 4.22248755 3.24137476 18.71873441
v 4.87539463 3.30326897 17.44638512
v 4.09643945 2.93235442 18.62092713
v 4.75651745 2.98121125 17.38900582
v 4.16632412 2.50555353 18.62383902
v 4.8234646 2.55469028 17.4221797
v 4.38347924 2.12958461 18.71887295
v 5.02572944 2.17451311 17.52152991
v 4.66810785 1.81614853 18.8520404
v 3.67949709 1.99493212 19.88729956
v 3.97581342 1.7032403 20.02307841
v 4.30408871 1.46300706 20.18569116
v 3.25390463 1.49867357 21.17310376
v 3.57881462 1.27325297 21.33491183
v 3.9289278 1.13502625 21.53665255
v 4.66148162 1.30228897 20.38504189
v 4.27911183 1.16450159 21.76996666
v 5.02388539 1.35914969 20.6118566
v 4.42059869 1.39712584 21.90981823
v 5.16671369 1.61252881 20.73050953
v 4.29724708 1.79726918 21.91641378
v 5.04947116 2.02616058 20.71533709
v 4.04177783 2.12019926 21.82671399
v 4.79924811 2.36511079 20.61694528
v 3.74660398 2.39539935 21.70193996
v 4.51580089 2.66732016 20.49585429
v 3.43086505 2.63629493 21.55699464
v 4.19970043 2.92005371 20.34823305
v 3.08662499 2.82026226 21.38782809
v 3.8561284 3.12229229 20.18071634
v 2.74684702 2.77564769 21.15634348
v 3.50233408 3.06609818 19.95530602
v 2.61609422 2.51851089 21.0024974
v 3.37489583 2.7798327 19.825907
v 2.70363351 2.11168438 20.95416373
v 3.44784136 2.35887455 19.79909778
v 2.95463925 1.77224327 21.03927966
v 1.94520625 1.77757567 22.07685036
v 2.21365263 1.46850552 22.16532543
v 2.51116285 1.20643518 22.29485034
v 1.47279332 1.08789754 23.25636403
v 1.76533189 0.86824014 23.40062993
v 2.06823697 0.68704893 23.57471815
v 2.83614906 1.0139536 22.46857545
v 2.3815818 0.57296595 23.79031675
v 3.17302685 0.89010207 22.67314645
v 2.68802284 0.5670208 24.03603248
v 3.50656622 0.89978237 22.90752966
v 2.83968375 0.7258096 24.21545358
v 3.65366935 1.09919131 23.06486268
v 2.71858121 1.08735366 24.24380447
v 3.52906297 1.48103713 23.08955204
v 2.44956485 1.35871936 24.13320082
v 3.26137556 1.77666139 22.99185357
v 2.16456933 1.59242695 24.00046481
v 2.96690675 2.03600726 22.86640392
v 1.86798572 1.79673668 23.84602534
v 2.65173306 2.25795422 22.71624466
v 1.53918039 1.9173586 23.67182198
v 2.30930225 2.42154909 22.5496351
v 1.23369545 1.90571532 23.44733399
v 1.984295 2.39015251 22.31755078
v 1.09742717 1.71971511 23.26235987
v 1.84969707 2.16571498 22.14555775
v 1.19779176 1.35956768 23.17305482
v 0.45501927 1.24136723 24.25947539
v 0.55709446 0.94324338 24.15449056
v 0.79905664 0.72563286 24.21702497
v 0.17294447 0.54666162 24.93594549
v 0.35058352 0.39753683 24.94951489
v 0.52943667 0.27710225 25.01914841
v 1.0486542 0.54138988 24.33993787
v 0.69341112 0.17735429 25.13341358
v 1.29729707 0.39070737 24.51325938
v 0.84162886 0.11492683 25.28798843
v 1.53765256 0.29175049 24.72683111
v 0.98003597 0.09182926 25.47247798
v 1.76516077 0.25809812 24.98877445
v 1.06958256 0.160986 25.65682455
v 1.89825294 0.3819627 25.21167839
v 1.02833429 0.37767418 25.70239119
v 1.79302502 0.69754063 25.24843788
v 0.90737244 0.55832586 25.62084316
v 1.58448663 0.93203439 25.12492401
v 0.75817525 0.70830664 25.51207534
v 1.36145135 1.13153632 24.98257238
v 0.58794083 0.83081056 25.39048712
v 1.1202637 1.28964744 24.8161855
v 0.38447794 0.8999478 25.26655067
v 0.84721893 1.40118085 24.63680109
v 0.17894099 0.86207998 25.13991551
v 0.57901721 1.38488048 24.43754019
v 0.09214066 0.73683102 25.01805021
v 0.1296806 0.33814822 25.74371178
v 0.2241264 0.26501551 25.81426131
v -0.184597 -0.06732937 25.97771796
v -0.26614076 -0.01082966 25.92516987
v -0.44465518 -0.24285885 26.04175038
v -0.53075798 -0.18671044 25.99953276
v -0.60334047 -0.33748299 26.0629427
v -0.69241802 -0.27200261 26.02619459
v -0.84198761 -0.17649731 25.96968259
v -0.95136652 -0.23593776 25.98407186
v -1.22145926 -0.03895847 25.87805335
v -1.12046887 0.02868296 25.85683952
v -1.73927325 0.36655857 25.65487739
v -1.61501068 0.4735959 25.61435895
v -2.69223062 1.0801954 25.04447545
v -2.4615257 1.27126864 24.9601313
v -2.20156147 1.40854929 24.83999427
v -3.26809131 1.81147958 23.83301262
v -2.96553653 1.98551498 23.71989627
v -2.64180873 2.06718416 23.56157512
v -1.92954497 1.43333924 24.70285785
v -2.42527609 1.93739087 23.39270716
v -1.78176621 1.2907662 24.52837235
v -2.45058794 1.62521858 23.29434572
v -1.83309005 1.07354671 24.39766321
v -2.6895664 1.33578927 23.33147972
v -2.05264971 0.87556936 24.38098391
v -2.97590653 1.11080707 23.42620241
v -2.29655143 0.71781448 24.45173208
v -1.57589441 0.17188422 25.23889438
v -2.52778142 0.6056052 24.58609642
v -1.70257733 0.10685853 25.32290831
v -1.21720736 -0.20201462 25.64393077
v -1.11169857 -0.15457631 25.60149553
v -0.9462489 -0.37999811 25.79195941
v -0.83173432 -0.3318109 25.76446127
v -0.79022475 -0.47429203 25.87611251
v -0.67939352 -0.41981631 25.84075993
v -0.51725736 -0.33765482 25.81194091
v -0.25280368 -0.19188313 25.72539403
v -0.57878878 -0.47806894 25.90588676
v -0.42452683 -0.39062907 25.86341989
v -0.1700227 -0.24548389 25.77274462
v 0.20836707 -0.03173051 25.54171802
v 0.11685735 0.0320491 25.47434796
v -0.1058802 -0.2793108 25.83323065
v 0.28645126 -0.07190434 25.63355096
v -0.05820872 -0.29340693 25.90862215
v 0.35193607 -0.08494208 25.74106875
v -0.04141915 -0.26725227 25.98349113
v 0.39031765 -0.04678943 25.84947219
v -0.07075639 -0.19794624 26.01518091
v 0.36543807 0.06390756 25.8933814
v -0.12217219 -0.127692 26.00588666
v 0.30277008 0.17085462 25.86673602
v -0.33531422 -0.36382217 26.0815312
v -0.38169676 -0.29996208 26.06912832
v -0.50596115 -0.46273326 26.0954283
v -0.54068144 -0.40043087 26.08500042
v -0.62233519 -0.53201097 26.06666875
v -0.67697198 -0.53484441 25.95281098
v -0.7347507 -0.56199602 26.00473152
v -0.86278043 -0.51100786 25.9308937
v -1.02567248 -0.41043791 25.8512283
v -1.06192367 -0.38786533 25.93135929
v -1.29766825 -0.22672545 25.72017756
v -1.3353901 -0.20235816 25.81350978
v -1.29990879 -0.12359907 25.86981934
v -1.02854403 -0.31149244 25.9773637
v -1.86821852 0.12551069 25.57477044
v -1.83789817 0.23842778 25.65297577
v -2.89152411 0.64668943 24.97076668
v -2.88061101 0.85400729 25.0826039
v -3.83004066 1.00288757 23.91058283
v -3.77095395 1.31428872 23.95207801
v -3.53727705 1.57833485 23.90588889
v -4.40851875 1.48157453 22.58845943
v -4.1997871 1.81855591 22.5553817
v -3.93810502 2.10975667 22.4936254
v -4.64417667 1.88437576 21.13636198
v -4.41177351 2.22478097 21.09306513
v -4.11718609 2.50238006 21.03032955
v -3.63406108 2.34842231 22.41127902
v -3.75418134 2.66389871 20.94842979
v -3.2776541 2.46203716 22.28584961
v -3.53516066 2.48824225 20.87086085
v -3.04965136 2.29089973 22.15977874
v -3.54319192 2.09422476 20.84378909
v -3.04964851 1.9289576 22.10459522
v -3.72738192 1.71690903 20.88160631
v -3.26595784 1.58814721 22.14488212
v -3.97204404 1.37605578 20.93960872
v -3.54552054 1.30329102 22.22385165
v -4.28378806 1.09915319 21.02041914
v -3.86779461 1.07933015 22.3328548
v -3.28465421 0.95523966 23.56212676
v -4.22524223 0.9605651 22.47928674
v -3.60037574 0.87526998 23.73396417
v -2.75547419 0.549456 24.77497372
v -1.8100638 0.08096678 25.44363492
v -4.46443926 1.11687708 22.58470174
v -4.65709038 0.93978856 21.12346819
v -4.86375657 1.11751143 21.17257743
v -4.82906697 1.51419963 21.16595784
v -5.09661773 1.0434737 19.7363312
v -5.06909935 1.46997649 19.71205303
v -4.92179062 1.87527525 19.68335927
v -5.13787506 1.35100789 18.25934954
v -5.02144258 1.78009945 18.21866789
v -4.8523336 2.19001355 18.17837845
v -4.72246899 2.2563281 19.64859818
v -4.61644984 2.5671153 18.1397477
v -4.45991138 2.59317236 19.60630844
v -4.24888463 2.7895141 18.11255512
v -4.08398406 2.78367894 19.55625978
v -4.05095726 2.57687864 18.11263166
v -3.86157546 2.58434308 19.51532255
v -4.05723715 2.13069753 18.14184922
v -3.86785597 2.15317324 19.51405924
v -4.17239619 1.69658765 18.18966098
v -4.0102851 1.73968745 19.55073017
v -4.34851413 1.28280406 18.23990195
v -4.22180971 1.35554162 19.59898855
v -4.59407613 0.90450731 18.2915897
v -4.50846709 1.02555782 19.65773807
v -4.97106244 0.68861131 18.3299655
v -4.89759153 0.84425661 19.7259982
v -5.15681277 0.9076316 18.30734476
v -4.90580845 0.47809713 16.96013662
v -5.09274492 0.70680649 16.90640493
v -5.09219581 1.15621382 16.8298393
v -4.91853396 0.41113795 15.54571657
v -4.92909153 0.86313058 15.43637308
v -4.85981354 1.31505291 15.34569844
v -4.99951454 1.59953349 16.7661934
v -4.73383629 1.75610358 15.26402579
v -4.85380694 2.02832583 16.70853196
v -4.54207177 2.17599689 15.19518049
v -4.64064166 2.43187544 16.66031153
v -4.18060552 2.42448818 15.18157693
v -4.27510712 2.67316545 16.6420969
v -3.98173367 2.18832449 15.25531163
v -4.08540743 2.44285147 16.68028925
v -3.96692815 1.73596487 15.35948736
v -4.08252432 1.99267229 16.74716397
v -4.04076123 1.28378428 15.45571945
v -4.17786855 1.54713011 16.81608834
v -4.17047401 0.84180083 15.54414328
v -4.32486035 1.11561076 16.881856
v -4.36790257 0.42475378 15.62086769
v -4.54340215 0.71544165 16.94122232
v -4.72849899 0.18112138 15.63018598
v -4.10470319 0.04515572 14.32864348
v -4.46975853 -0.20189515 14.33103821
v -4.67315637 0.02658299 14.22224762
v -4.15739234 -0.63757072 13.04454005
v -4.3795672 -0.41150591 12.92057987
v -4.41726517 0.04353055 12.76575166
v -4.69440087 0.48180056 14.08526081
v -4.37341985 0.50480474 12.62920672
v -4.63679858 0.93954548 13.96840638
v -4.27608133 0.95960891 12.50395192
v -4.52979288 1.38935317 13.8614067
v -4.10292904 1.39435882 12.39781289
v -4.34670773 1.81696491 13.77260204
v -3.74958546 1.63281871 12.38469517
v -3.99214859 2.06553353 13.75918699
v -3.50894925 1.40376189 12.50679232
v -3.77597274 1.82947249 13.86359299
v -3.45513721 0.95584649 12.66491894
v -3.74152036 1.37957798 13.9995806
v -3.49479373 0.49656568 12.8074341
v -3.7983088 0.92379943 14.12217593
v -3.6013256 0.04194544 12.9364061
v -3.91049428 0.47234523 14.23476848
v -3.79474312 -0.3889269 13.0427485
v -3.2885479 -0.4198158 11.62867513
v -3.47856927 -0.85630705 11.74256674
v -3.83966007 -1.10160628 11.7514759
v -3.20951986 -1.32581109 10.41836508
v -3.56698741 -1.55543861 10.43930372
v -3.84424362 -1.34647993 10.30541328
v -4.09003368 -0.87616971 11.62294514
v -3.92127832 -0.91019563 10.10743925
v -4.14729943 -0.42043909 11.4578162
v -3.90597684 -0.46915963 9.91249818
v -4.11768965 0.04327447 11.30631423
v -3.82981767 -0.02805056 9.74149691
v -4.02699887 0.50059119 11.16623018
v -3.66286239 0.4011672 9.61015133
v -3.85836941 0.93842103 11.04607529
v -3.31227033 0.62014811 9.59304407
v -3.50601364 1.16749762 11.03021616
v -3.02306955 0.40947088 9.72845182
v -3.24067383 0.94380087 11.15943789
v -2.92616057 -0.01361997 9.91952422
v -3.16821382 0.49950912 11.33158813
v -2.93441166 -0.45697627 10.10521754
v -3.18947667 0.03855352 11.48840889
v -3.02335865 -0.89968234 10.27901113
v -2.7795572 -0.91862633 8.88295755
v -2.85640401 -1.3353897 9.08441059
v -3.02979036 -1.7392292 9.23357702
v -2.78461204 -1.65890179 8.3111835
v -2.95134527 -2.01167595 8.48016731
v -3.27454294 -2.17662206 8.49969587
v -3.37330388 -1.94478841 9.26235667
v -3.57820447 -2.05108179 8.36795226
v -3.66616902 -1.76655566 9.12792667
v -3.70850842 -1.7178199 8.11614082
v -3.77430076 -1.36425261 8.91594048
v -3.73075055 -1.37245657 7.76942371
v -3.78433358 -0.95599325 8.67747714
v -3.66556109 -1.05140675 7.42183067
v -3.71577422 -0.55840229 8.44357522
v -3.50335131 -0.74927761 7.17218994
v -3.54982543 -0.17402435 8.25643972
v -3.17897952 -0.60406839 7.14293474
v -3.20771029 0.02121876 8.23388224
v -2.8818699 -0.70042478 7.34090433
v -2.90981655 -0.15527237 8.3882375
v -2.74627229 -0.96130386 7.68139447
v -2.78890775 -0.51829254 8.64507622
v -2.71680232 -1.29054139 8.03164374
v -2.69468007 -1.69180602 7.26560693
v -2.72094969 -2.04078075 6.65674554
v -3.22058446 -2.14254103 6.47635165
v -3.68823529 -2.11245237 6.41993075
v -3.7066318 -1.78422871 7.00924745
g Group48475
f 1 9 10 11
f 1 12 13 9
f 1 11 14 12
f 2 15 16 17
f 2 18 19 15
f 2 17 20 18
f 3 21 22 23
f 3 23 24 25
f 3 25 26 21
f 4 27 28 29
f 4 29 30 31
f 4 31 32 27
f 5 33 34 35
f 5 35 36 37
f 5 37 38 33
f 6 39 40 41
f 6 41 42 43
f 6 43 10 39
f 7 44 45 46
f 7 47 48 44
f 7 46 49 47
f 8 50 51 52
f 8 53 54 50
f 8 52 55 53
f 55 56 57 58
f 55 58 59 53
f 55 52 16 56
f 59 60 54 53
f 59 58 49 61
f 59 61 62 60
f 62 63 64 60
f 62 61 26 25
f 62 25 24 63
f 64 65 66 67
f 64 67 54 60
f 64 63 68 65
f 68 69 70 65
f 68 63 24 71
f 68 71 72 69
f 72 73 74 69
f 72 71 75 76
f 72 76 77 73
f 77 78 79 73
f 77 76 80 81
f 77 81 82 78
f 82 83 84 78
f 82 81 85 86
f 82 86 87 83
f 87 88 89 83
f 87 86 90 91
f 87 91 92 88
f 92 93 94 88
f 92 91 95 96
f 92 96 97 93
f 97 98 99 93
f 97 96 100 101
f 97 101 102 98
f 102 103 104 98
f 102 101 105 106
f 102 106 107 103
f 107 108 109 103
f 107 106 110 111
f 107 111 112 108
f 112 113 114 108
f 112 111 115 116
f 112 116 117 113
f 117 118 119 113
f 117 116 120 121
f 117 121 122 118
f 122 123 124 118
f 122 121 125 126
f 122 126 127 123
f 127 128 129 123
f 127 126 130 131
f 127 131 132 128
f 132 133 134 128
f 132 131 135 136
f 132 136 137 133
f 137 138 139 133
f 137 136 140 141
f 137 141 142 138
f 142 143 144 138
f 142 141 145 146
f 142 146 147 143
f 147 148 149 143
f 147 146 150 151
f 147 151 152 148
f 152 153 154 148
f 152 151 155 156
f 152 156 157 153
f 157 158 159 153
f 157 156 160 161
f 157 161 162 158
f 162 163 164 158
f 162 161 165 166
f 162 166 167 163
f 167 168 169 163
f 167 166 170 171
f 167 171 172 168
f 172 173 174 168
f 172 171 175 176
f 172 176 177 173
f 177 178 179 173
f 177 176 180 181
f 177 181 182 178
f 182 183 184 178
f 182 181 185 186
f 182 186 187 183
f 187 188 189 183
f 187 186 190 191
f 187 191 192 188
f 192 193 194 188
f 192 191 195 196
f 192 196 197 193
f 197 198 199 193
f 197 196 200 201
f 197 201 202 198
f 202 203 204 198
f 202 201 205 206
f 202 206 207 203
f 207 208 209 203
f 207 206 210 211
f 207 211 212 208
f 212 213 214 208
f 212 211 215 216
f 212 216 217 213
f 217 218 219 213
f 217 216 220 221
f 217 221 222 218
f 222 223 224 218
f 222 221 225 226
f 222 226 227 223
f 227 14 228 223
f 227 226 229 230
f 227 230 12 14
f 230 229 231 232
f 230 232 13 12
f 232 231 233 234
f 232 234 235 13
f 235 236 9 13
f 235 234 237 238
f 235 238 239 236
f 239 40 39 236
f 239 238 240 241
f 239 241 242 40
f 242 243 41 40
f 242 241 244 245
f 242 245 30 243
f 245 244 33 38
f 245 38 31 30
f 244 241 240 246
f 244 246 34 33
f 246 240 247 248
f 246 248 249 34
f 249 248 250 251
f 249 251 252 253
f 249 253 35 34
f 253 252 254 255
f 253 255 36 35
f 255 254 256 257
f 255 257 258 36
f 258 32 37 36
f 258 257 259 260
f 258 260 27 32
f 260 259 261 262
f 260 262 28 27
f 262 261 263 264
f 262 264 265 28
f 265 266 29 28
f 265 264 267 268
f 265 268 42 266
f 268 267 228 269
f 268 269 43 42
f 269 228 14 11
f 269 11 10 43
f 267 264 263 224
f 267 224 223 228
f 266 243 30 29
f 266 42 41 243
f 263 261 270 219
f 263 219 218 224
f 270 261 259 271
f 270 271 272 214
f 270 214 213 219
f 272 271 256 273
f 272 273 274 209
f 272 209 208 214
f 274 273 275 276
f 274 276 277 204
f 274 204 203 209
f 277 276 278 279
f 277 279 280 199
f 277 199 198 204
f 280 279 281 282
f 280 282 283 194
f 280 194 193 199
f 283 282 284 285
f 283 285 286 189
f 283 189 188 194
f 286 285 287 288
f 286 288 289 184
f 286 184 183 189
f 289 288 290 291
f 289 291 292 179
f 289 179 178 184
f 292 291 293 294
f 292 294 295 174
f 292 174 173 179
f 295 294 296 297
f 295 297 298 169
f 295 169 168 174
f 298 297 299 300
f 298 300 301 164
f 298 164 163 169
f 301 300 302 303
f 301 303 304 159
f 301 159 158 164
f 304 303 305 306
f 304 306 307 154
f 304 154 153 159
f 307 306 308 309
f 307 309 310 149
f 307 149 148 154
f 310 309 311 312
f 310 312 313 144
f 310 144 143 149
f 313 312 314 315
f 313 315 316 139
f 313 139 138 144
f 316 315 317 318
f 316 318 319 134
f 316 134 133 139
f 319 318 320 321
f 319 321 322 129
f 319 129 128 134
f 322 321 323 324
f 322 324 325 124
f 322 124 123 129
f 325 324 326 327
f 325 327 328 119
f 325 119 118 124
f 328 327 329 330
f 328 330 331 114
f 328 114 113 119
f 331 330 332 333
f 331 333 334 109
f 331 109 108 114
f 334 333 335 336
f 334 336 337 104
f 334 104 103 109
f 337 336 338 339
f 337 339 340 99
f 337 99 98 104
f 340 339 341 342
f 340 342 343 94
f 340 94 93 99
f 343 342 344 345
f 343 345 346 89
f 343 89 88 94
f 346 345 347 348
f 346 348 349 84
f 346 84 83 89
f 349 348 350 351
f 349 351 352 79
f 349 79 78 84
f 352 351 353 354
f 352 354 355 74
f 352 74 73 79
f 355 354 356 357
f 355 357 358 70
f 355 70 69 74
f 358 357 359 360
f 358 360 361 66
f 358 66 65 70
f 361 360 362 363
f 361 363 364 365
f 361 365 67 66
f 365 364 51 50
f 365 50 54 67
f 364 363 366 20
f 364 20 17 51
f 366 367 368 369
f 366 369 18 20
f 366 363 362 367
f 369 368 370 371
f 369 371 19 18
f 371 370 372 373
f 371 373 374 19
f 374 373 375 376
f 374 376 377 378
f 374 378 15 19
f 378 377 57 56
f 378 56 16 15
f 377 376 379 48
f 377 48 47 57
f 379 380 381 382
f 379 382 44 48
f 379 376 375 380
f 382 381 383 384
f 382 384 45 44
f 384 383 385 22
f 384 22 21 45
f 385 80 76 75
f 385 75 23 22
f 385 383 386 80
f 386 85 81 80
f 386 383 381 387
f 386 387 388 85
f 388 90 86 85
f 388 387 389 390
f 388 390 391 90
f 391 95 91 90
f 391 390 392 393
f 391 393 394 95
f 394 100 96 95
f 394 393 395 396
f 394 396 397 100
f 397 105 101 100
f 397 396 398 399
f 397 399 400 105
f 400 110 106 105
f 400 399 401 402
f 400 402 403 110
f 403 115 111 110
f 403 402 404 405
f 403 405 406 115
f 406 120 116 115
f 406 405 407 408
f 406 408 409 120
f 409 125 121 120
f 409 408 410 411
f 409 411 412 125
f 412 130 126 125
f 412 411 413 414
f 412 414 415 130
f 415 135 131 130
f 415 414 416 417
f 415 417 418 135
f 418 140 136 135
f 418 417 419 420
f 418 420 421 140
f 421 145 141 140
f 421 420 422 423
f 421 423 424 145
f 424 150 146 145
f 424 423 425 426
f 424 426 427 150
f 427 155 151 150
f 427 426 428 429
f 427 429 430 155
f 430 160 156 155
f 430 429 431 432
f 430 432 433 160
f 433 165 161 160
f 433 432 434 435
f 433 435 436 165
f 436 170 166 165
f 436 435 437 438
f 436 438 439 170
f 439 175 171 170
f 439 438 440 441
f 439 441 442 175
f 442 180 176 175
f 442 441 443 444
f 442 444 445 180
f 445 185 181 180
f 445 444 446 447
f 445 447 448 185
f 448 190 186 185
f 448 447 449 450
f 448 450 451 190
f 451 195 191 190
f 451 450 452 453
f 451 453 454 195
f 454 200 196 195
f 454 453 455 456
f 454 456 457 200
f 457 205 201 200
f 457 456 458 459
f 457 459 460 205
f 460 210 206 205
f 460 459 461 462
f 460 462 463 210
f 463 215 211 210
f 463 462 464 465
f 463 465 466 215
f 466 220 216 215
f 466 465 467 468
f 466 468 469 220
f 469 225 221 220
f 469 468 470 471
f 469 471 472 225
f 472 229 226 225
f 472 471 473 474
f 472 474 231 229
f 474 473 475 476
f 474 476 233 231
f 476 475 477 478
f 476 478 479 233
f 479 237 234 233
f 479 478 480 481
f 479 481 247 237
f 481 480 482 250
f 481 250 248 247
f 482 480 483 484
f 482 484 485 486
f 482 486 251 250
f 486 485 278 487
f 486 487 252 251
f 487 278 276 275
f 487 275 254 252
f 485 484 488 281
f 485 281 279 278
f 488 484 483 489
f 488 489 490 284
f 488 284 282 281
f 490 489 491 492
f 490 492 493 287
f 490 287 285 284
f 493 492 494 495
f 493 495 496 290
f 493 290 288 287
f 496 495 497 498
f 496 498 499 293
f 496 293 291 290
f 499 498 500 501
f 499 501 502 296
f 499 296 294 293
f 502 501 503 504
f 502 504 505 299
f 502 299 297 296
f 505 504 506 507
f 505 507 508 302
f 505 302 300 299
f 508 507 509 510
f 508 510 511 305
f 508 305 303 302
f 511 510 512 513
f 511 513 514 308
f 511 308 306 305
f 514 513 515 516
f 514 516 517 311
f 514 311 309 308
f 517 516 518 519
f 517 519 520 314
f 517 314 312 311
f 520 519 521 522
f 520 522 523 317
f 520 317 315 314
f 523 522 524 525
f 523 525 526 320
f 523 320 318 317
f 526 525 527 528
f 526 528 529 323
f 526 323 321 320
f 529 528 530 531
f 529 531 532 326
f 529 326 324 323
f 532 531 533 534
f 532 534 535 329
f 532 329 327 326
f 535 534 536 537
f 535 537 538 332
f 535 332 330 329
f 538 537 539 540
f 538 540 541 335
f 538 335 333 332
f 541 540 542 543
f 541 543 544 338
f 541 338 336 335
f 544 543 545 546
f 544 546 547 341
f 544 341 339 338
f 547 546 548 549
f 547 549 550 344
f 547 344 342 341
f 550 549 551 552
f 550 552 553 347
f 550 347 345 344
f 553 552 554 555
f 553 555 556 350
f 553 350 348 347
f 556 555 557 558
f 556 558 559 353
f 556 353 351 350
f 559 558 560 561
f 559 561 562 356
f 559 356 354 353
f 562 561 563 564
f 562 564 565 359
f 562 359 357 356
f 565 564 566 567
f 565 567 367 362
f 565 362 360 359
f 567 566 568 569
f 567 569 368 367
f 569 568 570 571
f 569 571 370 368
f 571 570 395 572
f 571 572 372 370
f 572 395 393 392
f 572 392 573 372
f 573 392 390 389
f 573 389 380 375
f 573 375 373 372
f 570 398 396 395
f 570 568 574 398
f 574 401 399 398
f 574 568 566 575
f 574 575 576 401
f 576 404 402 401
f 576 575 563 577
f 576 577 578 404
f 578 407 405 404
f 578 577 560 579
f 578 579 580 407
f 580 410 408 407
f 580 579 557 581
f 580 581 582 410
f 582 413 411 410
f 582 581 554 583
f 582 583 584 413
f 584 416 414 413
f 584 583 551 585
f 584 585 586 416
f 586 419 417 416
f 586 585 548 587
f 586 587 588 419
f 588 422 420 419
f 588 587 545 589
f 588 589 590 422
f 590 425 423 422
f 590 589 542 591
f 590 591 592 425
f 592 428 426 425
f 592 591 539 593
f 592 593 594 428
f 594 431 429 428
f 594 593 536 595
f 594 595 596 431
f 596 434 432 431
f 596 595 533 597
f 596 597 598 434
f 598 437 435 434
f 598 597 530 599
f 598 599 600 437
f 600 440 438 437
f 600 599 527 601
f 600 601 602 440
f 602 443 441 440
f 602 601 524 603
f 602 603 604 443
f 604 446 444 443
f 604 603 521 605
f 604 605 606 446
f 606 449 447 446
f 606 605 518 607
f 606 607 608 449
f 608 452 450 449
f 608 607 515 609
f 608 609 610 452
f 610 455 453 452
f 610 609 512 611
f 610 611 612 455
f 612 458 456 455
f 612 611 509 613
f 612 613 614 458
f 614 461 459 458
f 614 613 506 615
f 614 615 616 461
f 616 464 462 461
f 616 615 503 617
f 616 617 618 464
f 618 467 465 464
f 618 617 500 619
f 618 619 620 467
f 620 470 468 467
f 620 619 497 621
f 620 621 622 470
f 622 473 471 470
f 622 621 494 623
f 622 623 475 473
f 623 494 492 491
f 623 491 477 475
f 621 497 495 494
f 619 500 498 497
f 617 503 501 500
f 615 506 504 503
f 613 509 507 506
f 611 512 510 509
f 609 515 513 512
f 607 518 516 515
f 605 521 519 518
f 603 524 522 521
f 601 527 525 524
f 599 530 528 527
f 597 533 531 530
f 595 536 534 533
f 593 539 537 536
f 591 542 540 539
f 589 545 543 542
f 587 548 546 545
f 585 551 549 548
f 583 554 552 551
f 581 557 555 554
f 579 560 558 557
f 577 563 561 560
f 575 566 564 563
f 491 489 483 477
f 483 480 478 477
f 389 387 381 380
f 275 273 256 254
f 271 259 257 256
f 247 240 238 237
f 236 39 10 9
f 75 71 24 23
f 61 49 46 26
f 58 57 47 49
f 52 51 17 16
f 46 45 21 26
f 38 37 32 31
g Group31300
f 815 812 813 814
g Group36618
f 747 755 754 670
g Group31300
f 819 816 817 818
g Group31303
f 689 819 818 688
g Group36618
f 689 688 769 768
g Group31300
f 823 820 821 822
g Group36618
f 743 676 681 741
g Group31300
f 827 824 825 826
g Group36618
f 752 740 732 686
g Group31300
f 831 828 829 830
g Group36618
f 632 625 771 770
g Group31300
f 833 830 829 832
g Group36618
f 624 772 771 625
g Group31300
f 837 834 835 836
g Group36618
f 682 680 730 729
g Group31300
f 832 838 818 817
g Group31303
f 688 818 838 723
g Group36618
f 772 769 688 723
g Group31300
f 842 839 840 841
g Group36618
f 685 684 664 665
g Group31300
f 844 843 816 819
g Group31303
f 690 844 819 689
g Group36618
f 690 689 768 773
g Group31300
f 842 824 845 839
g Group36618
f 685 665 666 686
g Group31300
f 844 846 847 843
g Group31303
f 691 846 844 690
g Group36618
f 690 773 774 691
g Group31300
f 849 848 847 846
g Group31303
f 736 849 846 691
g Group36618
f 736 691 774 775
g Group31300
f 827 850 845 824
g Group36618
f 752 686 666 753
g Group31300
f 837 821 825 834
g Group36618
f 682 729 732 681
g Group31300
f 852 851 848 849
g Group31303
f 692 852 849 736
g Group36618
f 692 736 775 776
g Group31300
f 852 853 854 851
g Group31303
f 693 853 852 692
g Group36618
f 692 776 777 693
g Group31300
f 855 822 821 837
g Group36618
f 677 682 681 676
g Group31300
f 857 831 830 856
g Group36618
f 635 629 625 632
g Group31300
f 858 856 830 833
g Group36618
f 626 624 625 629
g Group31300
f 862 859 860 861
g Group36618
f 662 779 778 663
g Group31300
f 865 814 863 864
g Group36618
f 759 762 761 755
g Group31300
f 858 866 867 856
g Group36618
f 626 629 630 627
g Group31300
f 857 856 867 868
g Group36618
f 635 636 630 629
g Group31300
f 870 868 867 869
g Group36618
f 739 738 630 636
g Group31300
f 871 869 867 866
g Group36618
f 735 627 630 738
g Group31300
f 842 834 825 824
g Group36618
f 685 686 732 729
g Group31300
f 873 872 869 871
g Group36618
f 628 735 738 631
g Group31300
f 877 874 875 876
g Group36618
f 668 757 781 780
g Group31300
f 878 870 869 872
g Group36618
f 639 631 738 739
g Group31300
f 842 841 835 834
g Group36618
f 685 729 730 684
g Group31300
f 880 879 826 820
g Group36618
f 683 741 740 733
g Group31300
f 882 862 861 881
g Group36618
f 678 782 779 662
g Group31300
f 884 883 828 831
g Group36618
f 633 632 770 783
g Group31300
f 880 885 886 879
g Group36618
f 683 733 785 784
g Group31300
f 855 837 836 887
g Group36618
f 677 673 680 682
g Group31300
f 841 840 888 889
g Group36618
f 684 787 786 664
g Group31300
f 890 884 831 857
g Group36618
f 634 635 632 633
g Group31300
f 890 857 868 891
g Group36618
f 634 637 636 635
g Group31300
f 865 864 892 893
g Group36618
f 759 789 788 762
g Group31300
f 814 813 894 863
g Group36618
f 755 761 764 754
g Group31300
f 895 891 868 870
g Group36618
f 742 739 636 637
g Group31300
f 896 895 870 878
g Group36618
f 638 639 739 742
g Group31300
f 898 897 813 812
g Group36618
f 669 670 754 758
g Group31300
f 900 865 893 899
g Group36618
f 671 790 789 759
g Group31300
f 902 823 822 901
g Group36618
f 744 675 676 743
g Group31300
f 906 903 904 905
g Group36618
f 646 655 792 791
g Group31300
f 836 835 907 908
g Group36618
f 680 794 793 730
g Group31300
f 910 879 886 909
g Group36618
f 687 795 785 733
g Group31300
f 914 911 912 913
g Group36618
f 640 797 796 641
g Group31300
f 884 914 913 883
g Group36618
f 633 783 797 640
g Group31300
f 916 855 887 915
g Group36618
f 674 672 673 677
g Group31300
f 882 917 823 902
g Group36618
f 678 744 743 679
g Group31300
f 917 880 820 823
g Group36618
f 679 743 741 683
g Group31300
f 919 918 911 914
g Group36618
f 643 640 641 642
g Group31300
f 890 919 914 884
g Group36618
f 634 633 640 643
g Group31300
f 890 891 920 919
g Group36618
f 634 643 644 637
g Group31300
f 878 872 921 922
g Group36618
f 639 799 798 631
g Group31300
f 919 920 923 918
g Group36618
f 643 642 645 644
g Group31300
f 925 924 923 920
g Group36618
f 745 644 645 746
g Group31300
f 895 925 920 891
g Group36618
f 742 637 644 745
g Group31300
f 896 926 925 895
g Group36618
f 638 742 745 647
g Group31300
f 897 927 894 813
g Group36618
f 758 754 764 765
g Group31300
f 926 906 924 925
g Group36618
f 647 745 746 646
g Group31300
f 916 901 822 855
g Group36618
f 674 677 676 675
g Group31300
f 931 928 929 930
g Group36618
f 648 801 800 649
g Group31300
f 933 932 929 928
g Group36618
f 656 649 800 802
g Group31300
f 911 931 930 912
g Group36618
f 641 796 801 648
g Group31300
f 896 934 935 926
g Group36618
f 638 647 804 803
g Group31300
f 897 876 936 927
g Group36618
f 758 765 766 757
g Group31300
f 938 937 928 931
g Group36618
f 651 648 649 650
g Group31300
f 939 933 928 937
g Group36618
f 658 650 649 656
g Group31300
f 918 938 931 911
g Group36618
f 642 641 648 651
g Group31300
f 918 923 940 938
g Group36618
f 642 651 652 645
g Group31300
f 939 937 941 942
g Group36618
f 658 659 653 650
g Group31300
f 938 940 941 937
g Group36618
f 651 650 653 652
g Group31300
f 873 854 921 872
g Group36618
f 628 631 798 777
g Group31300
f 944 943 941 940
g Group36618
f 748 652 653 750
g Group31300
f 945 942 941 943
g Group36618
f 749 750 653 659
g Group31300
f 924 944 940 923
g Group36618
f 746 645 652 748
g Group31300
f 906 905 944 924
g Group36618
f 646 746 748 655
g Group31300
f 900 815 814 865
g Group36618
f 671 759 755 747
g Group31300
f 887 836 908 946
g Group36618
f 673 805 794 680
g Group31300
f 859 945 943 947
g Group36618
f 663 654 750 749
g Group31300
f 905 947 943 944
g Group36618
f 655 748 750 654
g Group31300
f 926 935 903 906
g Group36618
f 647 646 791 804
g Group31300
f 917 948 885 880
g Group36618
f 679 683 784 806
g Group31300
f 950 949 932 933
g Group36618
f 657 656 802 807
g Group31300
f 876 875 951 936
g Group36618
f 757 766 808 781
g Group31300
f 898 877 876 897
g Group36618
f 669 758 757 668
g Group31300
f 841 889 907 835
g Group36618
f 684 730 793 787
g Group31300
f 915 952 949 950
g Group36618
f 672 657 807 809
g Group31300
f 953 950 933 939
g Group36618
f 661 658 656 657
g Group31300
f 953 939 942 954
g Group36618
f 661 660 659 658
g Group31300
f 916 953 954 901
g Group36618
f 674 675 660 661
g Group31300
f 905 904 955 947
g Group36618
f 655 654 810 792
g Group31300
f 916 915 950 953
g Group36618
f 674 661 657 672
g Group31300
f 859 947 955 860
g Group36618
f 663 778 810 654
g Group31300
f 902 901 954 956
g Group36618
f 744 751 660 675
g Group31300
f 956 954 942 945
g Group36618
f 751 749 659 660
g Group31300
f 862 956 945 859
g Group36618
f 662 663 749 751
g Group31300
f 882 902 956 862
g Group36618
f 678 662 751 744
g Group31300
f 820 826 825 821
g Group36618
f 741 681 732 740
g Group31300
f 910 827 826 879
g Group36618
f 687 733 740 752
g Group31300
f 910 909 957 958
g Group36618
f 687 667 811 795
g Group31300
f 896 878 922 934
g Group36618
f 638 803 799 639
g Group31300
f 915 887 946 952
g Group36618
f 672 809 805 673
g Group31300
f 882 881 948 917
g Group36618
f 678 679 806 782
g Group31300
f 910 958 850 827
g Group36618
f 687 752 753 667
g Group31300
f 864 863 850 958
g Group36618
f 762 667 753 761
g Group31300
f 864 958 957 892
g Group36618
f 762 788 811 667
g Group31300
f 863 894 845 850
g Group36618
f 761 753 666 764
g Group31300
f 927 839 845 894
g Group36618
f 765 764 666 665
g Group31300
f 927 936 840 839
g Group36618
f 765 665 664 766
g Group31300
f 936 951 888 840
g Group36618
f 766 664 786 808
g Group31300
f 816 833 817
g Group36618
f 769 624 768
g Group31300
f 828 959 960 829
g Group31303
f 722 960 959 721
g Group36618
f 770 771 722 721
g Group31300
f 832 829 960 838
g Group31303
f 723 838 960 722
g Group36618
f 772 723 722 771
g Group31300
f 833 832 817
g Group36618
f 769 772 624
g Group31300
f 843 858 833 816
g Group36618
f 773 768 624 626
g Group31300
f 843 847 866 858
g Group36618
f 773 626 627 774
g Group31300
f 848 871 866 847
g Group36618
f 775 774 627 735
g Group31300
f 851 873 871 848
g Group36618
f 776 775 735 628
g Group31300
f 854 873 851
g Group36618
f 776 628 777
g Group31300
f 861 860 961 962
g Group31303
f 702 962 961 701
g Group36618
f 779 702 701 778
g Group31300
f 874 963 964 875
g Group31303
f 756 964 963 711
g Group36618
f 780 781 756 711
g Group31300
f 881 861 962 965
g Group31303
f 703 965 962 702
g Group36618
f 782 703 702 779
g Group31300
f 883 966 959 828
g Group31303
f 721 959 966 720
g Group36618
f 783 770 721 720
g Group31300
f 885 967 968 886
g Group31303
f 731 968 967 724
g Group36618
f 784 785 731 724
g Group31300
f 889 888 969 970
g Group31303
f 713 970 969 712
g Group36618
f 787 713 712 786
g Group31300
f 893 892 971 972
g Group31303
f 760 972 971 763
g Group36618
f 789 760 763 788
g Group31300
f 899 893 972 973
g Group31303
f 706 973 972 760
g Group36618
f 790 706 760 789
g Group31300
f 903 974 975 904
g Group31303
f 699 975 974 698
g Group36618
f 791 792 699 698
g Group31300
f 908 907 976 977
g Group31303
f 728 977 976 734
g Group36618
f 794 728 734 793
g Group31300
f 909 886 968 978
g Group31303
f 727 978 968 731
g Group36618
f 795 727 731 785
g Group31300
f 913 912 979 980
g Group31303
f 719 980 979 718
g Group36618
f 797 719 718 796
g Group31300
f 883 913 980 966
g Group31303
f 720 966 980 719
g Group36618
f 783 720 719 797
g Group31300
f 922 921 981 982
g Group31303
f 695 982 981 694
g Group36618
f 799 695 694 798
g Group31300
f 930 929 983 984
g Group31303
f 717 984 983 716
g Group36618
f 801 717 716 800
g Group31300
f 932 985 983 929
g Group31303
f 716 983 985 715
g Group36618
f 802 800 716 715
g Group31300
f 912 930 984 979
g Group31303
f 718 979 984 717
g Group36618
f 796 718 717 801
g Group31300
f 934 986 987 935
g Group31303
f 697 987 986 696
g Group36618
f 803 804 697 696
g Group31300
f 854 853 981 921
g Group31303
f 694 981 853 693
g Group36618
f 777 798 694 693
g Group31300
f 946 908 977 988
g Group31303
f 725 988 977 728
g Group36618
f 805 725 728 794
g Group31300
f 935 987 974 903
g Group31303
f 698 974 987 697
g Group36618
f 804 791 698 697
g Group31300
f 948 989 967 885
g Group31303
f 724 967 989 704
g Group36618
f 806 784 724 704
g Group31300
f 949 990 985 932
g Group31303
f 715 985 990 714
g Group36618
f 807 802 715 714
g Group31300
f 875 964 991 951
g Group31303
f 767 991 964 756
g Group36618
f 781 808 767 756
g Group31300
f 889 970 976 907
g Group31303
f 734 976 970 713
g Group36618
f 787 793 734 713
g Group31300
f 952 992 990 949
g Group31303
f 714 990 992 726
g Group36618
f 809 807 714 726
g Group31300
f 904 975 993 955
g Group31303
f 700 993 975 699
g Group36618
f 792 810 700 699
g Group31300
f 860 955 993 961
g Group31303
f 701 961 993 700
g Group36618
f 778 701 700 810
g Group31300
f 909 978 994 957
g Group31303
f 705 994 978 727
g Group36618
f 795 811 705 727
g Group31300
f 934 922 982 986
g Group31303
f 696 986 982 695
g Group36618
f 803 696 695 799
g Group31300
f 952 946 988 992
g Group31303
f 726 992 988 725
g Group36618
f 809 726 725 805
g Group31300
f 881 965 989 948
g Group31303
f 704 989 965 703
g Group36618
f 782 806 704 703
g Group31300
f 892 957 994 971
g Group31303
f 763 971 994 705
g Group36618
f 788 763 705 811
g Group31300
f 951 991 969 888
g Group31303
f 712 969 991 767
g Group36618
f 808 786 712 767
g Group31300
f 963 874 877 995
g Group31303
f 711 963 995 710
g Group36618
f 711 710 668 780
g Group31300
f 995 877 898 996
g Group31303
f 710 995 996 709
g Group36618
f 710 709 669 668
g Group31300
f 996 898 812 997
g Group31303
f 709 996 997 708
g Group36618
f 709 708 670 669
g Group31300
f 997 812 815 998
g Group31303
f 708 997 998 737
g Group36618
f 708 737 747 670
g Group31300
f 998 815 900 999
g Group31303
f 737 998 999 707
g Group36618
f 737 707 671 747
g Group31300
f 999 900 899 973
g Group31303
f 707 999 973 706
g Group36618
f 707 706 790 671
g Group10304
f 1000 1014 1015 1016
f 1000 1016 1017 1018
f 1000 1019 1020 1014
f 1000 1021 1022 1019
f 1000 1018 1023 1021
f 1001 1018 1017 1024
f 1001 1025 1026 1027
f 1001 1024 1028 1025
f 1001 1029 1023 1018
f 1001 1027 1030 1029
f 1002 1031 1032 1033
f 1002 1034 1035 1031
f 1002 1033 1036 1034
f 1003 1037 1038 1039
f 1003 1040 1041 1037
f 1003 1039 1042 1040
f 1004 1043 1044 1045
f 1004 1005 1046 1043
f 1004 1045 1047 1005
f 1005 1047 1048 1046
f 1006 1049 1050 1013
f 1006 1013 1051 1052
f 1006 1052 1053 1049
f 1007 1054 1055 1056
f 1007 1056 1057 1058
f 1007 1058 1059 1054
f 1008 1060 1059 1058
f 1008 1061 1062 1060
f 1008 1058 1057 1061
f 1009 1063 1064 1065
f 1009 1066 1067 1063
f 1009 1065 1068 1066
f 1010 1069 1070 1071
f 1010 1071 1068 1065
f 1010 1065 1064 1069
f 1011 1072 1073 1074
f 1011 1075 1076 1072
f 1011 1074 1077 1075
f 1012 1074 1073 1078
f 1012 1078 1079 1080
f 1012 1080 1077 1074
f 1013 1047 1045 1081
f 1013 1050 1048 1047
f 1013 1081 1082 1051
f 1082 1081 1083 1084
f 1082 1084 1076 1075
f 1082 1075 1077 1051
f 1084 1083 1085 1086
f 1084 1086 1087 1076
f 1087 1086 1088 1089
f 1087 1089 1090 1091
f 1087 1091 1072 1076
f 1091 1090 1092 1093
f 1091 1093 1073 1072
f 1093 1092 1094 1095
f 1093 1095 1078 1073
f 1095 1094 1096 1097
f 1095 1097 1079 1078
f 1097 1096 1098 1099
f 1097 1099 1053 1079
f 1099 1098 1100 1101
f 1099 1101 1049 1053
f 1101 1100 1102 1103
f 1101 1103 1050 1049
f 1103 1102 1104 1105
f 1103 1105 1048 1050
f 1105 1104 1106 1107
f 1105 1107 1046 1048
f 1107 1106 1108 1109
f 1107 1109 1043 1046
f 1109 1108 1110 1111
f 1109 1111 1044 1043
f 1111 1110 1112 1085
f 1111 1085 1083 1044
f 1112 1110 1113 1114
f 1112 1114 1115 1088
f 1112 1088 1086 1085
f 1115 1114 1116 1117
f 1115 1117 1118 1119
f 1115 1119 1089 1088
f 1119 1118 1120 1121
f 1119 1121 1090 1089
f 1121 1120 1122 1123
f 1121 1123 1092 1090
f 1123 1122 1124 1125
f 1123 1125 1094 1092
f 1125 1124 1126 1127
f 1125 1127 1096 1094
f 1127 1126 1128 1129
f 1127 1129 1098 1096
f 1129 1128 1130 1131
f 1129 1131 1100 1098
f 1131 1130 1132 1133
f 1131 1133 1102 1100
f 1133 1132 1134 1135
f 1133 1135 1104 1102
f 1135 1134 1136 1137
f 1135 1137 1106 1104
f 1137 1136 1138 1139
f 1137 1139 1108 1106
f 1139 1138 1140 1113
f 1139 1113 1110 1108
f 1140 1138 1141 1142
f 1140 1142 1143 1116
f 1140 1116 1114 1113
f 1143 1142 1144 1145
f 1143 1145 1146 1147
f 1143 1147 1117 1116
f 1147 1146 1148 1149
f 1147 1149 1118 1117
f 1149 1148 1150 1151
f 1149 1151 1120 1118
f 1151 1150 1152 1153
f 1151 1153 1122 1120
f 1153 1152 1154 1155
f 1153 1155 1124 1122
f 1155 1154 1156 1157
f 1155 1157 1126 1124
f 1157 1156 1158 1159
f 1157 1159 1128 1126
f 1159 1158 1160 1161
f 1159 1161 1130 1128
f 1161 1160 1162 1163
f 1161 1163 1132 1130
f 1163 1162 1164 1165
f 1163 1165 1134 1132
f 1165 1164 1166 1167
f 1165 1167 1136 1134
f 1167 1166 1168 1141
f 1167 1141 1138 1136
f 1168 1166 1169 1170
f 1168 1170 1171 1144
f 1168 1144 1142 1141
f 1171 1170 1172 1173
f 1171 1173 1174 1175
f 1171 1175 1145 1144
f 1175 1174 1176 1177
f 1175 1177 1146 1145
f 1177 1176 1178 1179
f 1177 1179 1148 1146
f 1179 1178 1180 1181
f 1179 1181 1150 1148
f 1181 1180 1182 1183
f 1181 1183 1152 1150
f 1183 1182 1184 1185
f 1183 1185 1154 1152
f 1185 1184 1186 1187
f 1185 1187 1156 1154
f 1187 1186 1188 1189
f 1187 1189 1158 1156
f 1189 1188 1190 1191
f 1189 1191 1160 1158
f 1191 1190 1192 1193
f 1191 1193 1162 1160
f 1193 1192 1194 1195
f 1193 1195 1164 1162
f 1195 1194 1196 1169
f 1195 1169 1166 1164
f 1196 1194 1197 1198
f 1196 1198 1199 1172
f 1196 1172 1170 1169
f 1199 1198 1200 1201
f 1199 1201 1202 1203
f 1199 1203 1173 1172
f 1203 1202 1204 1205
f 1203 1205 1174 1173
f 1205 1204 1206 1207
f 1205 1207 1176 1174
f 1207 1206 1208 1209
f 1207 1209 1178 1176
f 1209 1208 1210 1211
f 1209 1211 1180 1178
f 1211 1210 1212 1213
f 1211 1213 1182 1180
f 1213 1212 1214 1215
f 1213 1215 1184 1182
f 1215 1214 1216 1217
f 1215 1217 1186 1184
f 1217 1216 1218 1219
f 1217 1219 1188 1186
f 1219 1218 1220 1221
f 1219 1221 1190 1188
f 1221 1220 1222 1223
f 1221 1223 1192 1190
f 1223 1222 1224 1197
f 1223 1197 1194 1192
f 1224 1222 1225 1226
f 1224 1226 1227 1200
f 1224 1200 1198 1197
f 1227 1226 1228 1229
f 1227 1229 1230 1231
f 1227 1231 1201 1200
f 1231 1230 1232 1233
f 1231 1233 1202 1201
f 1233 1232 1234 1235
f 1233 1235 1204 1202
f 1235 1234 1236 1237
f 1235 1237 1206 1204
f 1237 1236 1238 1239
f 1237 1239 1208 1206
f 1239 1238 1240 1241
f 1239 1241 1210 1208
f 1241 1240 1242 1243
f 1241 1243 1212 1210
f 1243 1242 1244 1245
f 1243 1245 1214 1212
f 1245 1244 1246 1247
f 1245 1247 1216 1214
f 1247 1246 1248 1249
f 1247 1249 1218 1216
f 1249 1248 1250 1251
f 1249 1251 1220 1218
f 1251 1250 1252 1225
f 1251 1225 1222 1220
f 1252 1250 1253 1254
f 1252 1254 1255 1228
f 1252 1228 1226 1225
f 1255 1254 1256 1257
f 1255 1257 1258 1259
f 1255 1259 1229 1228
f 1259 1258 1260 1261
f 1259 1261 1230 1229
f 1261 1260 1262 1263
f 1261 1263 1232 1230
f 1263 1262 1264 1265
f 1263 1265 1234 1232
f 1265 1264 1266 1267
f 1265 1267 1236 1234
f 1267 1266 1268 1269
f 1267 1269 1238 1236
f 1269 1268 1270 1271
f 1269 1271 1240 1238
f 1271 1270 1272 1273
f 1271 1273 1242 1240
f 1273 1272 1274 1275
f 1273 1275 1244 1242
f 1275 1274 1276 1277
f 1275 1277 1246 1244
f 1277 1276 1278 1279
f 1277 1279 1248 1246
f 1279 1278 1280 1253
f 1279 1253 1250 1248
f 1280 1278 1281 1282
f 1280 1282 1283 1256
f 1280 1256 1254 1253
f 1283 1282 1284 1285
f 1283 1285 1286 1287
f 1283 1287 1257 1256
f 1287 1286 1288 1289
f 1287 1289 1258 1257
f 1289 1288 1290 1291
f 1289 1291 1260 1258
f 1291 1290 1292 1293
f 1291 1293 1262 1260
f 1293 1292 1294 1295
f 1293 1295 1264 1262
f 1295 1294 1296 1297
f 1295 1297 1266 1264
f 1297 1296 1298 1299
f 1297 1299 1268 1266
f 1299 1298 1300 1301
f 1299 1301 1270 1268
f 1301 1300 1302 1303
f 1301 1303 1272 1270
f 1303 1302 1304 1305
f 1303 1305 1274 1272
f 1305 1304 1306 1307
f 1305 1307 1276 1274
f 1307 1306 1308 1281
f 1307 1281 1278 1276
f 1308 1306 1309 1310
f 1308 1310 1311 1284
f 1308 1284 1282 1281
f 1311 1310 1312 1313
f 1311 1313 1314 1315
f 1311 1315 1285 1284
f 1315 1314 1316 1317
f 1315 1317 1286 1285
f 1317 1316 1318 1319
f 1317 1319 1288 1286
f 1319 1318 1320 1321
f 1319 1321 1290 1288
f 1321 1320 1322 1323
f 1321 1323 1292 1290
f 1323 1322 1324 1325
f 1323 1325 1294 1292
f 1325 1324 1326 1327
f 1325 1327 1296 1294
f 1327 1326 1328 1329
f 1327 1329 1298 1296
f 1329 1328 1330 1331
f 1329 1331 1300 1298
f 1331 1330 1332 1333
f 1331 1333 1302 1300
f 1333 1332 1334 1335
f 1333 1335 1304 1302
f 1335 1334 1336 1309
f 1335 1309 1306 1304
f 1336 1334 1024 1017
f 1336 1017 1016 1312
f 1336 1312 1310 1309
f 1334 1332 1028 1024
f 1332 1330 1337 1028
f 1337 1330 1328 1338
f 1337 1338 1339 1340
f 1337 1340 1025 1028
f 1340 1339 1341 1342
f 1340 1342 1026 1025
f 1342 1341 1343 1344
f 1342 1344 1345 1026
f 1345 1346 1347 1348
f 1345 1348 1027 1026
f 1345 1344 1041 1346
f 1348 1347 1349 1350
f 1348 1350 1030 1027
f 1350 1349 1351 1352
f 1350 1352 1353 1030
f 1353 1352 1354 1355
f 1353 1355 1356 1357
f 1353 1357 1029 1030
f 1357 1356 1358 1359
f 1357 1359 1023 1029
f 1359 1358 1360 1361
f 1359 1361 1021 1023
f 1361 1360 1362 1363
f 1361 1363 1022 1021
f 1363 1362 1364 1365
f 1363 1365 1366 1022
f 1366 1365 1367 1368
f 1366 1368 1369 1370
f 1366 1370 1019 1022
f 1370 1369 1371 1372
f 1370 1372 1020 1019
f 1372 1371 1373 1374
f 1372 1374 1375 1020
f 1375 1376 1014 1020
f 1375 1374 1377 1378
f 1375 1378 1379 1376
f 1379 1380 1381 1376
f 1379 1378 1036 1382
f 1379 1382 1383 1380
f 1383 1318 1316 1380
f 1383 1382 1384 1385
f 1383 1385 1320 1318
f 1385 1384 1386 1387
f 1385 1387 1322 1320
f 1387 1386 1388 1389
f 1387 1389 1324 1322
f 1389 1388 1390 1391
f 1389 1391 1326 1324
f 1391 1390 1339 1338
f 1391 1338 1328 1326
f 1390 1388 1392 1393
f 1390 1393 1341 1339
f 1393 1392 1394 1395
f 1393 1395 1343 1341
f 1395 1394 1396 1038
f 1395 1038 1037 1343
f 1396 1394 1031 1035
f 1396 1035 1397 1398
f 1396 1398 1039 1038
f 1398 1397 1373 1399
f 1398 1399 1042 1039
f 1399 1373 1371 1400
f 1399 1400 1401 1042
f 1401 1400 1402 1403
f 1401 1403 1404 1405
f 1401 1405 1040 1042
f 1405 1404 1347 1346
f 1405 1346 1041 1040
f 1404 1403 1406 1407
f 1404 1407 1349 1347
f 1407 1406 1408 1409
f 1407 1409 1351 1349
f 1409 1408 1410 1411
f 1409 1411 1412 1351
f 1412 1411 1413 1414
f 1412 1414 1415 1354
f 1412 1354 1352 1351
f 1415 1414 1416 1417
f 1415 1417 1418 1419
f 1415 1419 1355 1354
f 1419 1418 1420 1421
f 1419 1421 1356 1355
f 1421 1420 1422 1423
f 1421 1423 1358 1356
f 1423 1422 1424 1425
f 1423 1425 1360 1358
f 1425 1424 1426 1427
f 1425 1427 1362 1360
f 1427 1426 1428 1429
f 1427 1429 1364 1362
f 1429 1428 1430 1431
f 1429 1431 1432 1364
f 1432 1431 1433 1434
f 1432 1434 1435 1367
f 1432 1367 1365 1364
f 1435 1434 1410 1408
f 1435 1408 1406 1436
f 1435 1436 1368 1367
f 1436 1406 1403 1402
f 1436 1402 1369 1368
f 1434 1433 1437 1410
f 1437 1433 1438 1439
f 1437 1439 1440 1413
f 1437 1413 1411 1410
f 1440 1439 1441 1442
f 1440 1442 1443 1416
f 1440 1416 1414 1413
f 1443 1442 1444 1445
f 1443 1445 1446 1447
f 1443 1447 1417 1416
f 1447 1446 1448 1449
f 1447 1449 1418 1417
f 1449 1448 1450 1451
f 1449 1451 1420 1418
f 1451 1450 1452 1453
f 1451 1453 1422 1420
f 1453 1452 1454 1455
f 1453 1455 1424 1422
f 1455 1454 1456 1457
f 1455 1457 1426 1424
f 1457 1456 1458 1459
f 1457 1459 1428 1426
f 1459 1458 1460 1461
f 1459 1461 1430 1428
f 1461 1460 1462 1463
f 1461 1463 1438 1430
f 1463 1462 1464 1441
f 1463 1441 1439 1438
f 1464 1462 1465 1466
f 1464 1466 1467 1444
f 1464 1444 1442 1441
f 1467 1466 1468 1469
f 1467 1469 1470 1471
f 1467 1471 1445 1444
f 1471 1470 1472 1473
f 1471 1473 1446 1445
f 1473 1472 1474 1475
f 1473 1475 1448 1446
f 1475 1474 1476 1477
f 1475 1477 1450 1448
f 1477 1476 1478 1479
f 1477 1479 1452 1450
f 1479 1478 1480 1481
f 1479 1481 1454 1452
f 1481 1480 1482 1483
f 1481 1483 1456 1454
f 1483 1482 1484 1485
f 1483 1485 1458 1456
f 1485 1484 1486 1487
f 1485 1487 1460 1458
f 1487 1486 1488 1465
f 1487 1465 1462 1460
f 1488 1486 1489 1490
f 1488 1490 1491 1468
f 1488 1468 1466 1465
f 1491 1490 1492 1493
f 1491 1493 1494 1495
f 1491 1495 1469 1468
f 1495 1494 1496 1497
f 1495 1497 1470 1469
f 1497 1496 1498 1499
f 1497 1499 1472 1470
f 1499 1498 1500 1501
f 1499 1501 1474 1472
f 1501 1500 1502 1503
f 1501 1503 1476 1474
f 1503 1502 1504 1505
f 1503 1505 1478 1476
f 1505 1504 1506 1507
f 1505 1507 1480 1478
f 1507 1506 1508 1509
f 1507 1509 1482 1480
f 1509 1508 1510 1511
f 1509 1511 1484 1482
f 1511 1510 1512 1489
f 1511 1489 1486 1484
f 1512 1510 1513 1514
f 1512 1514 1515 1492
f 1512 1492 1490 1489
f 1515 1514 1516 1517
f 1515 1517 1518 1519
f 1515 1519 1493 1492
f 1519 1518 1520 1521
f 1519 1521 1494 1493
f 1521 1520 1522 1523
f 1521 1523 1496 1494
f 1523 1522 1524 1525
f 1523 1525 1498 1496
f 1525 1524 1526 1527
f 1525 1527 1500 1498
f 1527 1526 1528 1529
f 1527 1529 1502 1500
f 1529 1528 1530 1531
f 1529 1531 1504 1502
f 1531 1530 1532 1533
f 1531 1533 1506 1504
f 1533 1532 1534 1535
f 1533 1535 1508 1506
f 1535 1534 1536 1513
f 1535 1513 1510 1508
f 1536 1534 1537 1538
f 1536 1538 1539 1516
f 1536 1516 1514 1513
f 1539 1538 1540 1541
f 1539 1541 1542 1543
f 1539 1543 1517 1516
f 1543 1542 1544 1545
f 1543 1545 1518 1517
f 1545 1544 1546 1547
f 1545 1547 1520 1518
f 1547 1546 1548 1549
f 1547 1549 1522 1520
f 1549 1548 1550 1551
f 1549 1551 1524 1522
f 1551 1550 1552 1553
f 1551 1553 1526 1524
f 1553 1552 1554 1555
f 1553 1555 1528 1526
f 1555 1554 1556 1557
f 1555 1557 1530 1528
f 1557 1556 1558 1559
f 1557 1559 1532 1530
f 1559 1558 1560 1537
f 1559 1537 1534 1532
f 1560 1558 1070 1561
f 1560 1561 1055 1540
f 1560 1540 1538 1537
f 1561 1070 1069 1562
f 1561 1562 1056 1055
f 1562 1069 1064 1563
f 1562 1563 1057 1056
f 1563 1064 1063 1564
f 1563 1564 1061 1057
f 1564 1063 1067 1565
f 1564 1565 1062 1061
f 1565 1067 1550 1548
f 1565 1548 1546 1062
f 1558 1556 1071 1070
f 1556 1554 1068 1071
f 1554 1552 1066 1068
f 1552 1550 1067 1066
f 1546 1544 1060 1062
f 1544 1542 1059 1060
f 1542 1541 1054 1059
f 1541 1540 1055 1054
f 1438 1433 1431 1430
f 1402 1400 1371 1369
f 1397 1377 1374 1373
f 1397 1035 1034 1377
f 1394 1392 1032 1031
f 1392 1388 1386 1032
f 1386 1384 1033 1032
f 1384 1382 1036 1033
f 1381 1314 1313 1015
f 1381 1015 1014 1376
f 1381 1380 1316 1314
f 1378 1377 1034 1036
f 1344 1343 1037 1041
f 1313 1312 1016 1015
f 1083 1081 1045 1044
f 1080 1079 1053 1052
f 1080 1052 1051 1077

 