# File exported by ZBrush version 2021
# www.zbrush.com
#Vertex Count 1044
#Face Count 1043
#Auto scale x=0.047110 y=0.047110 z=0.047110
#Auto offset x=-0.029091 y=0.022900 z=-0.434581
v 2.08430438 -4.0323988 19.95643965
v 2.52514819 -4.53491605 17.89796679
v 1.09875192 -3.79467828 20.09415807
v 0.2045162 -3.70233292 20.16031099
v -1.65835624 -3.97816261 19.82228849
v 1.41721616 -4.37289479 18.13248349
v 0.33055987 -4.29621371 18.2492582
v -1.85670714 -4.44736332 18.14962965
v 2.85569407 -4.78691798 15.96911816
v 3.07248197 -4.79887108 14.16606774
v 1.85570019 -4.78309166 14.35453037
v 1.6614262 -4.72071477 16.19040199
v 0.47638008 -4.68585341 16.31979721
v 0.64295258 -4.76854108 14.47254943
v -1.81166319 -4.7888041 14.49868872
v -1.9171579 -4.75760268 16.32308803
v 3.1683182 -4.61181221 12.47016093
v 3.19198591 -4.34581006 10.86535782
v 2.03716303 -4.36203768 11.02513317
v 1.97220273 -4.62467752 12.63975037
v 0.7895148 -4.62427076 12.74099176
v 0.90008296 -4.3647019 11.11559035
v -1.35778453 -4.34532706 11.09470422
v -1.59080542 -4.6107741 12.74461375
v 2.2862409 -3.0560206 -0.13528857
v 1.37950768 -3.07300782 -0.05551184
v 0.47806398 -3.08281195 0.03222054
v -1.31473756 -3.07924516 0.24260772
v 1.97807585 -3.14939441 -3.79865674
v 1.12874834 -3.1867125 -3.94576557
v 0.2121775 -3.1973425 -3.91384172
v -1.72177931 -3.15313059 -3.20187101
v 2.38742313 -3.04836432 1.10717195
v 1.47995957 -3.05324614 1.19083162
v 0.58036105 -3.05823108 1.27747846
v -1.1991882 -3.06246733 1.46882799
v 2.49116473 -3.82750928 21.53025437
v 1.12967183 -3.28073996 22.93831735
v 0.53596573 -2.92958234 23.35227096
v 0.10140107 -2.78700139 23.50166603
v -1.79718362 -3.43088403 22.50601183
v -3.26210211 -4.17669032 19.99000827
v -4.05603235 -4.69558954 17.76772515
v -4.43770152 -4.92035682 16.04338742
v -4.44338802 -4.84309438 14.27989894
v -4.14187293 -4.60102342 12.51358714
v -3.69290107 -4.33755644 10.80209544
v -3.14264419 -3.11600513 0.29843524
v -2.81677944 -3.06451081 -3.42473067
v -2.32706046 -3.090228 -4.1762165
v 0.16177853 -3.11544622 -5.51001149
v 1.10275739 -3.11399724 -5.46925645
v 1.96059029 -3.07586341 -5.18754668
v 3.27462581 -3.06391758 -4.13017793
v 4.1842196 -3.06233543 -0.4272706
v 4.23900395 -3.08791045 0.84672789
v 5.63329572 -4.32288124 10.32373127
v 5.72958032 -4.57483098 11.97362213
v 5.66537804 -4.80494157 13.62394111
v 5.37962244 -4.91720106 15.26078241
v 4.82943324 -4.80216569 16.95364797
v 3.813888 -4.43078428 19.33933144
v -2.99054283 -3.10798479 1.56495507
v 1.59470599 -3.08920144 2.43685373
v 2.50072737 -3.09220062 2.36792747
v -2.7734285 -3.11475557 3.03034358
v 0.69780091 -3.08879989 2.51692526
v -1.05986738 -3.08754559 2.71395433
v 4.32114631 -3.15345258 2.31185703
v -0.71019276 -3.76174795 20.05934447
v -0.5606378 -2.93286272 23.32561925
v -0.93228585 -3.09713748 -5.16122773
v -0.76587841 -4.33363713 18.2464197
v -0.71461578 -4.70061307 16.36062246
v -0.18734062 -3.08794856 2.60849504
v -0.57697818 -4.77063912 14.51991994
v -0.39356842 -4.61907611 12.77536285
v -0.22806007 -4.35852292 11.13884433
v -0.76129075 -3.18225832 -3.66073588
v -0.31213884 -3.06036423 1.37232008
v -0.42006751 -3.08332516 0.13638551
v 0.29694711 -3.19962178 -2.52391176
v -0.62269285 -3.18770696 -2.35139493
v 3.90085937 -3.07881388 -2.64944872
v 2.07843348 -3.14881779 -2.56865222
v 1.20037734 -3.18562189 -2.58933086
v -1.51793201 -3.15914478 -2.10792749
v -3.17713642 -3.1094004 -1.88324593
v -0.51622044 -3.14145837 -1.0990923
v -1.40873307 -3.12428832 -0.94884575
v -3.16312039 -3.1246168 -0.7567586
v 0.38696064 -3.14681623 -1.22632464
v 1.28806529 -3.13348183 -1.30754371
v 2.18493008 -3.10397897 -1.35398462
v 4.04272452 -3.07126625 -1.49775328
v 1.49316214 -3.45377901 21.4342652
v 2.18978992 -3.84668105 20.65274701
v 4.07763143 -4.85932675 15.64634907
v 3.62498666 -4.68623804 17.47854051
v 2.95889622 -4.36743634 19.38850584
v 0.77767825 -3.25411007 21.80027863
v 0.1264139 -3.13329474 21.89204705
v -0.6443155 -3.24392859 21.67055762
v -1.5646696 -3.53142702 21.01326689
v -2.38219685 -4.12200402 19.78455036
v 2.73650706 -3.12212734 -3.4859695
v 2.95315626 -3.11618305 -2.52712034
v 4.32464684 -4.80617326 13.91006394
v -1.92100083 -3.09338012 2.84257587
v 3.21270155 -3.04947929 -0.23906133
v 3.30679259 -3.05694737 1.00742131
v -2.27738283 -3.11572504 -0.82759534
v -2.31440011 -3.13606381 -1.91893758
v -2.28347736 -3.12943742 -2.85073396
v -2.50292315 -4.3328663 10.98246671
v 3.41253528 -3.10780639 2.31513267
v -2.08634675 -3.07514192 1.54772287
v 4.38233992 -4.32610974 10.63330339
v 4.40462791 -4.59263158 12.24419043
v -2.90582133 -4.57244321 18.02326841
v -3.13505259 -4.83655386 16.22301412
v -3.07899987 -4.81668464 14.41576952
v -2.82364006 -4.60325715 12.65328088
v 3.0952501 -3.0804449 -1.40374797
v -2.21084212 -3.08654655 0.31526004
v 4.0637473 -3.67276395 6.77098968
v 3.01353269 -3.68825363 6.85272021
v 1.98847179 -3.70690761 6.96367938
v 0.98024359 -3.70618802 7.0395814
v -0.00213038 -3.69959911 7.07695531
v -0.95977513 -3.70085768 7.07476887
v -1.88035808 -3.69302918 7.03480996
v 4.8776233 -3.64704755 6.69898009
v -2.7426949 -3.66084406 6.96601022
v 4.21815071 -3.97472819 8.60957391
v 3.10217572 -3.99892285 8.79458686
v 2.01492027 -4.01941234 8.92923034
v 0.94640812 -4.02621286 9.01083763
v -0.10582635 -4.02004495 9.03906042
v -1.14420695 -4.00110724 9.0141126
v -2.17126436 -3.9746197 8.93661752
v 5.30387795 -3.92598618 8.36492026
v -3.194832 -3.9505854 8.80837594
v 1.48164064 -4.78999529 21.42941184
v 2.16837636 -5.17118495 20.63917507
v 2.4674518 -5.13047704 21.51507055
v 1.13625777 -4.5884665 22.93514799
v 0.96721035 -4.97636241 6.96441763
v -0.00720356 -4.96923104 6.99896237
v 0.6885915 -4.3518407 2.49330627
v -0.1908009 -4.35275892 2.59015325
v 4.04899808 -6.1482886 15.57473297
v 3.58860388 -5.99160337 17.42196082
v 2.50776781 -5.8593241 17.85443398
v 2.8434321 -6.08540499 15.90818867
v 2.92635526 -5.68534025 19.35610374
v 2.06305324 -5.37867923 19.9363759
v 1.5795712 -4.3522677 2.40999326
v 2.47657161 -4.35686992 2.34018135
v 3.76802435 -5.72609561 19.29868079
v 0.75989953 -4.59991699 21.79744835
v 0.54906176 -4.25145112 23.35201665
v 0.09122592 -4.12652463 23.50212404
v 0.07316611 -4.48784412 21.8885209
v -0.7220138 -4.60502718 21.66948345
v -0.58690108 -4.27502962 23.32745761
v -1.62116262 -4.88704598 21.00981159
v -1.79865475 -4.74704227 22.49711738
v -3.22451706 -5.4840917 19.95287934
v -2.40819603 -5.46441037 19.75891082
v 1.97340073 -4.97760707 6.89030494
v 1.40233283 -5.71024977 18.09464666
v 1.65724333 -6.02627653 16.13325233
v 1.07079088 -5.1525664 20.07682339
v 0.1449671 -5.07054043 20.14449329
v 0.30458623 -5.64308278 18.2137285
v 0.4722182 -5.99638588 16.26325358
v -0.80190503 -5.68453084 18.21150931
v -0.72003374 -6.0127533 16.30294963
v -0.79988765 -5.13816827 20.04518421
v -1.89299092 -5.79574842 18.11052698
v -1.75083603 -5.35373113 19.80691236
v -1.91773215 -6.0670613 16.26031006
v -1.05555364 -4.35558541 2.70386046
v 4.30273905 -6.08348187 13.83378837
v 3.05949598 -6.07932121 14.09345939
v -1.90564067 -4.36233279 2.84537831
v 2.99682714 -4.95938579 6.78034245
v 1.85334452 -6.06626295 14.28253944
v 0.6499722 -6.05287826 14.39970258
v -0.56129073 -6.05419472 14.44532173
v -1.78702159 -6.06976886 14.42033567
v 3.3710325 -4.37352644 2.29020797
v 3.17207525 -5.61508615 10.77752817
v 4.3561886 -5.59688606 10.5453227
v 4.38229753 -5.86524846 12.16882486
v 3.15246034 -5.8829975 12.39101016
v -0.95996618 -4.96959479 6.99158776
v 2.02658 -5.63010106 10.93532994
v 1.96591193 -5.89487089 12.55800687
v 0.79249727 -5.89337478 12.65678678
v -2.89888227 -5.89744054 17.96627437
v -3.11454982 -6.13429914 16.14402814
v 0.8976629 -5.63148932 11.02323013
v -0.2228432 -5.62401602 11.04334876
v -0.3815277 -5.88695129 12.68859803
v -1.57030012 -5.87747042 12.6555377
v -1.34495337 -5.60983931 10.99552624
v 3.08201013 -5.26731266 8.70243753
v 4.19900425 -5.24432438 8.51321562
v -3.04717281 -6.0941862 14.32800929
v -2.79692256 -5.87121204 12.56268752
v 2.00076206 -5.28717555 8.83631255
v 0.93768392 -5.29304488 8.91474223
v -0.10647944 -5.28603022 8.94005914
v 4.05103254 -4.94556334 6.70044299
v -1.13785495 -5.26660857 8.91357088
v -2.48106849 -5.59884113 10.87953532
v -1.8881907 -4.9621876 6.94172098
v -2.16148996 -5.24142609 8.83143033
v 5.34099803 -6.19601306 15.18026933
v 4.77907682 -6.08740972 16.88578132
v 3.31156402 -4.35759172 -4.19840833
v 3.92079311 -4.36374698 -2.70685142
v 5.64074213 -6.07997659 13.54442786
v -2.75297033 -4.38583032 3.04097769
v 4.152805 -4.3398547 -0.46551925
v 4.19049727 -4.36112672 0.81313902
v -3.13237382 -4.4045289 -0.81021384
v -3.17276859 -4.39359651 -1.95125365
v -2.82716463 -4.35770179 -3.49769549
v 4.2685549 -4.42363267 2.28943619
v -2.9486956 -4.38179208 1.55469925
v 5.60635934 -5.59520206 10.23472022
v 5.70606128 -5.84895505 11.90056178
v -3.99743686 -5.98871806 17.69286314
v -4.38915941 -6.20139022 15.94980785
v 5.29001691 -5.19695228 8.26469508
v -4.40707135 -6.11644382 14.18403471
v -4.11291474 -5.8714227 12.42245861
v 4.87125549 -4.92158755 6.62988808
v -3.66549435 -5.60632771 10.69719616
v -2.75729862 -4.93130439 6.86648636
v 4.03524838 -4.35104235 -1.54362484
v -3.18364562 -5.21959864 8.69914268
v -3.09533914 -4.39412854 0.26682769
v 2.00079021 -4.37957922 -5.26052416
v 1.13429124 -4.42415141 -5.54172531
v 0.17765605 -4.42621781 -5.58343685
v -0.92731214 -4.40612592 -5.23640667
v -2.33351621 -4.39203714 -4.25095515
v 0.23928662 -6.3510358 -4.05677028
v 0.332732 -6.33004212 -2.62601444
v -0.59242129 -6.32356296 -2.45774619
v -0.7522546 -6.33573115 -3.80660734
v 0.589578 -6.20919658 1.22233289
v 0.67722583 -6.21937079 2.45848381
v -0.19397935 -6.21867366 2.56203136
v -0.28792243 -6.2109742 1.32454944
v 1.40335915 -6.25223279 -0.122558
v 2.28963388 -6.23948704 -0.2100791
v 2.3543394 -6.19997318 1.03673249
v 1.47382771 -6.20472595 1.1279847
v 0.51457221 -6.25900168 -0.02930549
v -0.37064426 -6.25912884 0.07671428
v -0.47154222 -6.29290939 -1.18060238
v -1.3529919 -6.28617845 -1.04001825
v -1.48714716 -6.31072422 -2.22619453
v 1.55918949 -6.22030894 2.37006062
v 2.80705628 -6.28412122 -3.63477878
v 3.005262 -6.28278705 -2.65227267
v 2.12939436 -6.29864143 -2.68281491
v 2.04558349 -6.30861194 -3.94562892
v 2.44052269 -6.22417923 2.29720333
v 3.18209938 -6.23694017 -0.31973637
v 3.22393158 -6.2065061 0.92897305
v -2.2086786 -6.28314321 -0.93451721
v -2.28868434 -6.29548156 -2.05758973
v 0.42795722 -6.29761218 -1.30359119
v 1.24669026 -6.32399061 -2.6935591
v 1.17971289 -6.34391771 -4.08900538
v -2.29359431 -6.30977847 -3.01929321
v -1.72225977 -6.31686429 -3.35378765
v -1.04670158 -6.218983 2.68488859
v -1.87550836 -6.2231329 2.83811726
v -2.00198078 -6.22335178 1.5175817
v -1.15228438 -6.2127183 1.42927111
v 1.3247805 -6.28876645 -1.38949914
v 2.21269044 -6.27075298 -1.44689679
v 3.10636658 -6.25646556 -1.5069615
v 3.30584494 -6.23898412 2.24584581
v -2.11513794 -6.25729365 0.24617942
v -1.24565519 -6.2557406 0.17993541
v 3.35110066 -6.2329092 -4.2984057
v 3.94549987 -6.24673608 -2.79097543
v 4.1082423 -6.24862567 -0.49427374
v 4.12173991 -6.23561043 0.76389187
v -3.08498085 -6.2875917 -0.88857354
v -3.16845295 -6.27512492 -2.05090182
v -2.85509736 -6.27502813 -3.58299108
v -2.70692987 -6.24580172 3.04015657
v -2.88397996 -6.25607271 1.5396875
v 4.02494828 -6.23613296 -1.61088862
v 4.18511948 -6.24086422 2.23541413
v -3.02335138 -6.27434049 0.22044373
v 2.03398766 -6.24658488 -5.36755611
v 1.14809629 -6.28676109 -5.64797536
v 0.16831213 -6.28829199 -5.69109887
v -0.95077978 -6.26843764 -5.34663708
v -2.36567602 -6.27025196 -4.36053524
v 0.77066726 -4.52953193 3.99082359
v -0.13062192 -4.52948417 4.06970708
v -0.12591018 -3.25415024 4.10688663
v 0.77988596 -3.25501944 4.02948091
v 1.68950744 -4.52789127 3.91214
v 1.70244148 -3.25336897 3.95201951
v 2.62037998 -4.52763506 3.83942949
v 2.63882583 -3.2523859 3.87847649
v -1.01292451 -4.52697304 4.15052888
v -1.01216902 -3.25037611 4.18682784
v 3.55999394 -4.53573053 3.80274084
v 3.58927603 -3.26018879 3.83736213
v -1.86630188 -4.52237842 4.24680272
v -1.86616176 -3.24594312 4.28096221
v 4.38794101 -4.56618041 3.80415156
v 4.42381834 -3.28928647 3.83536309
v -2.66956086 -4.52274628 4.38659451
v -2.66928156 -3.24554933 4.41883213
v 1.84368399 -3.47817737 5.50162565
v 0.88947801 -3.48196668 5.57662842
v 2.81516867 -3.4692437 5.42291486
v -0.96090022 -4.74534404 5.62991254
v -0.05265009 -4.75289862 5.58310979
v 3.80917508 -3.46562519 5.3925428
v -1.83230071 -4.73239743 5.67871212
v 4.57051502 -4.7489268 5.34782417
v 4.59059522 -3.47250384 5.38876993
v -2.62662681 -4.71340184 5.75726982
v 0.87680563 -4.75543854 5.52266614
v -0.04396836 -3.47978356 5.63944339
v 1.82937728 -4.7518893 5.44847786
v 2.79873925 -4.74338232 5.37231046
v -0.95357701 -3.47283406 5.69280817
v 3.78971042 -4.74092939 5.34788363
v -1.8176331 -3.45965687 5.7502248
v -2.60556987 -3.43977658 5.83306303
v 4.31793773 0.09114688 4.30685415
v 4.13186414 1.51474003 4.67575385
v 4.20210339 0.37477882 2.81098413
v 4.13439014 1.83566697 3.07474749
v 4.09824111 2.22125134 1.64663278
v 4.0806439 0.64578045 1.4210352
v 3.53602923 3.21009933 -1.2206122
v 3.90887702 2.63400553 0.23027822
v 3.59387223 1.36534623 -1.38618175
v 3.90424982 0.96787518 0.02943074
v 2.27212492 4.34415959 -3.78482543
v 2.97161002 3.84392985 -2.61440358
v 2.42710147 2.17701444 -4.09025667
v 3.10209079 1.7921525 -2.77519569
v 4.06750466 -0.91945865 1.32313746
v 3.9337549 -0.70468655 -0.10015867
v 3.69007174 -0.45168478 -1.53481137
v 3.26160994 -0.17671354 -2.92673403
v 2.61185908 0.06253314 -4.21211944
v 4.19505615 -1.16626214 2.72465487
v 4.35803518 -1.43851633 4.10759831
v 1.57363751 2.42487913 -4.92478601
v 1.7105076 0.20653556 -5.08889045
v 0.66001702 2.49010907 -5.26719563
v 0.68164708 0.20424299 -5.4077165
v 1.50095712 4.66595699 -4.56940796
v 0.69724874 4.76799388 -4.90655303
v -0.35570415 0.07499327 -5.25291011
v -0.26801644 2.4235633 -5.13283002
v -1.16013424 2.27943342 -4.58222963
v -1.3195471 -0.10950955 -4.69262957
v -0.12970298 4.70395323 -4.78284305
v -0.94593512 4.52794061 -4.25421181
v -2.1230645 -0.30789492 -3.80443876
v -1.95344152 2.06444908 -3.69119462
v -2.58073437 1.7207034 -2.53645888
v -2.70217267 -0.52979934 -2.65868224
v -1.6981475 4.2535849 -3.39181236
v -2.3396411 3.82690641 -2.25998077
v -3.19433604 0.65361339 0.43698427
v -3.00724364 1.2214289 -1.13717015
v -3.10575691 2.6142429 0.70295542
v -2.84042247 3.26475842 -0.86971301
v -3.08427549 2.09892107 2.64639133
v -2.92057466 1.54823591 4.6992517
v -2.94698092 -0.17531263 4.34625098
v -3.11804718 0.21080217 2.35679486
v -3.06737889 -1.11453265 0.31285044
v -3.03343734 -0.816891 -1.27584507
v -2.63318567 -1.60945545 4.07516395
v -2.87103145 -1.41958211 2.16471404
v 0.69620863 -2.00737201 23.35758612
v 0.69981718 -1.11066932 23.74546243
v 1.06309178 -1.31894613 23.38329145
v 1.12048891 -2.10985473 22.99358944
v 1.43126975 -1.49809995 22.7925079
v 1.57739472 -2.24411405 22.41032125
v -1.56231757 -2.46228246 22.62923218
v -1.89697839 -2.75421403 22.09888152
v -2.27326487 -3.06257503 21.38905915
v -2.15847085 -2.2342435 21.88230491
v -1.83459296 -1.86506798 22.59253088
v -1.53262129 -1.46723603 23.1241341
v -2.50552822 -1.64110443 20.30086981
v -2.99928355 -2.2534325 19.81473517
v -1.98874159 -1.16515824 21.86114296
v -2.38224303 -1.87746438 21.3419578
v -2.63936275 -2.62209877 20.81296598
v -3.29045078 -2.92383701 19.33123218
v -3.41505179 -3.63533642 18.93270025
v -2.78871417 -3.37157275 20.36036897
v 2.71924513 -2.0805195 20.33517226
v 3.01251404 -2.81553811 20.0585031
v 2.19432888 -2.46733445 21.45689986
v 1.96102584 -1.75666296 21.7912855
v 1.61441413 -1.00875959 20.74741783
v 2.2608748 -1.47404984 20.54714349
v 1.62211944 -1.14497177 22.05923101
v 1.14392322 -0.63200608 22.3055882
v -1.68804351 -0.77225113 22.89414244
v -1.55191641 -0.8230469 23.31649074
v -2.86738036 1.53335574 8.76413184
v -3.1923408 0.36488707 8.24554118
v -3.12511561 -0.89120581 7.83064309
v -2.7613103 -2.10541841 7.61466097
v 4.87335701 -0.74771296 7.48551737
v 4.88358815 -2.10452691 7.13033021
v 3.62091521 2.11488363 8.96540388
v 4.42235227 0.65287039 8.11567593
v -3.75334251 -0.90988541 13.69266463
v -3.28578088 0.26062119 11.15914594
v -4.26703 -2.34175701 12.81402585
v -4.23126275 -1.53289046 13.24000436
v -3.68320954 -1.56732038 10.24062212
v -3.69772849 -0.5730595 10.65458617
v -3.97412215 -3.25563244 12.46881506
v -3.32674847 -2.63228753 9.94011493
v 5.12128527 -2.23768234 12.96760119
v 5.31427894 -3.25902859 12.54323614
v 5.11175474 -1.52896356 10.0846054
v 5.21101101 -2.69711403 9.65932755
v 3.65209701 0.58286458 11.28650654
v 4.56438032 -0.39700481 10.67481534
v 4.49734618 -1.30381134 13.48207406
v 3.48669826 -0.58320587 14.00875212
v -3.14165131 -1.83921368 18.35312459
v -3.72850733 -1.61696955 16.1790176
v -4.00768161 -3.06217175 17.50683573
v -3.71918872 -2.40571321 17.92476906
v -4.49458074 -2.89615732 15.32865286
v -4.32903334 -2.19607787 15.76647534
v -4.02387759 -3.77509341 17.14398533
v -4.34505947 -3.69349762 14.95824598
v 4.71538759 -2.5655719 15.95934186
v 4.99645083 -3.5010559 15.60460021
v 3.97913777 -3.19539059 18.04856318
v 3.6521821 -2.3895596 18.33675906
v 3.00521202 -1.20264492 16.49780064
v 4.03120697 -1.77181895 16.23577758
v 3.06848895 -1.72677579 18.55280491
v 2.2260204 -1.24354861 18.75140221
v 4.04716953 -3.66184864 1.38722113
v 4.04897372 -3.64198037 -0.23233799
v 3.86273028 -3.5632079 -1.8219451
v 3.50705491 -3.5064688 -3.15307429
v 2.81317359 -3.43622956 -4.39157091
v 4.16223969 -3.90705986 4.29925497
v 4.06686795 -3.74620354 2.85596308
v 4.39002387 -4.97693049 17.65934955
v 5.07751587 -5.21908528 15.19679238
v 1.79388632 -3.42638019 -5.07454167
v 0.62787972 -3.51521426 -5.31085812
v -0.52912672 -3.70428071 -5.12385081
v -1.55214985 -3.88884744 -4.57541519
v -2.31871164 -3.99502378 -3.72916872
v -2.79714112 -3.98411322 -2.61436057
v -2.96542677 -3.93815721 -1.24024704
v -2.84031651 -3.86439435 0.33861967
v -2.50206818 -3.91947761 2.09364703
v -2.10300518 -4.00525493 3.99223114
v -2.40597463 -4.56886772 21.00725333
v -2.00884329 -4.37472776 21.57872088
v -1.77208022 -4.2722025 21.92669111
v 0.58228467 -3.74800805 22.9191266
v 1.04190749 -3.65255122 22.65504378
v 1.48053706 -3.68282081 22.22388581
v -2.05329212 -4.32609741 7.16970585
v 4.67998124 -4.30673839 6.87289213
v -2.70331895 -4.71998095 9.50301374
v 5.33325587 -5.06506396 12.02313813
v 5.09265066 -4.71172353 9.29301752
v -3.61016817 -5.18463448 18.70485187
v -2.92925655 -4.8271546 20.23869725
v 2.32969194 -3.97749046 21.39396311
v 3.31505885 -4.53802499 19.96194332
v -4.15212938 -5.39314472 14.48217232
v -4.13113633 -5.43973745 16.76971576
v -1.98364721 -1.45940342 22.38631384
v -1.78454035 -1.26541213 22.89694363
v 1.21949047 -0.88241796 23.07758313
v 1.00906968 -0.81602085 23.56119303
v 0.73363139 -0.52468345 23.82716355
v 0.86956749 -0.39284416 23.35308576
v -3.65260057 -5.16449008 12.08025933
v -1.16934673 -1.11474488 23.5598557
v -1.18583988 -0.39670749 23.7404952
v -2.04369769 2.43848586 9.42683094
v -2.37489879 0.94467434 11.67181446
v -1.19817255 -2.20558737 23.05090105
v -1.26667133 -0.21723546 23.33179476
v -2.71773194 -1.19445108 16.51473994
v -2.28141601 -1.37848705 18.70992537
v -2.77328237 -0.47240201 14.12505365
v -1.82018013 -1.11733446 20.70076058
v -1.4598347 -0.56229728 22.28620767
v -1.53535952 -4.21387145 22.25714826
v 0.92167916 3.37522226 10.12875706
v 0.73127522 1.58684704 12.02999464
v 0.27492134 -3.85278318 23.0482479
v -0.16504551 0.17132025 23.698084
v -0.19397753 -0.09082994 24.14059852
v 1.17281282 -0.96499018 18.92652285
v 1.66194083 -0.85507797 16.69160088
v -0.22250634 -0.82370481 24.00640246
v 0.81223403 -0.70797674 20.93576248
v -0.25402801 -1.92017259 23.54784124
v 0.24528879 -1.92770804 23.5472896
v -0.00586608 -0.90141608 19.00134754
v 0.1725447 -0.76153162 16.77705968
v -0.08249464 -0.60857181 21.02122128
v 0.43219032 -0.02566389 14.57295893
v 0.542718 -0.25005192 22.52348062
v 2.10557989 -0.15767304 14.41201785
v 2.3294797 1.2583845 11.76020255
v 0.26872314 -0.91780312 23.95955542
v 0.31179221 -0.24281364 24.05231577
v 2.40084404 3.02574516 9.68963932
v -0.38499707 -3.98209647 23.02441129
v 0.3930482 -0.0166638 23.58938197
v -0.13388466 -0.07505875 22.62543274
v -1.10156975 -4.1188818 22.64954643
v -0.82352056 -0.17611921 22.55128747
v -0.74156403 0.11031454 23.615873
v -1.19806643 -1.05017316 18.93410084
v -0.98813393 -0.74926253 20.94851962
v -0.96425382 1.43724132 11.9859491
v -1.30273559 -0.16720388 14.45307052
v -1.34119838 -0.89394405 16.7192597
v -0.7253043 3.0949232 9.9391385
v -0.75784494 -2.01495 23.36915396
v -0.71681362 -0.13672238 24.03711803
v -0.72303309 -0.88642995 23.86893834
v 4.59445886 -1.73685827 5.47044069
v 4.39726215 -4.07530312 5.36284256
v 1.0830449 5.37883611 8.27631993
v -0.41189139 5.2672475 8.21890149
v -1.82954112 4.14078611 7.66755794
v -1.94335888 -4.12996221 5.39988325
v -2.85770117 -0.42568213 5.98935003
v -2.93500884 1.16432858 6.28111159
v -2.58383351 -1.82533144 5.77988423
v 4.54956405 -0.29662346 5.77880185
v 4.32326586 1.18901541 6.28839226
v 3.60469771 3.37229266 7.30545086
v -2.68387516 2.82143732 6.98010849
v 2.37613601 4.63526293 7.87084649
v -0.30815627 -3.04094495 23.12300933
v 0.22994184 -2.96800986 23.15830877
v 4.15345184 -4.05689965 17.83016151
v 5.03164494 -4.44095533 15.37199779
v 1.11919408 -2.92907989 22.68713844
v 1.61267352 -3.00114484 22.16226488
v -3.99180382 -4.56133211 16.88998626
v -3.47972979 -4.38674222 18.69627625
v -1.30256573 -3.2959418 22.54950479
v -0.86030647 -3.15722513 22.88520625
v 4.76412422 -3.31137392 7.04062599
v 4.48838879 -3.01352004 5.42380557
v -1.96721779 -3.6239378 21.69824807
v -1.64291543 -3.44616369 22.16373
v -2.94519791 -2.64470527 0.34294986
v -2.6524808 -2.76111276 2.14875148
v -2.78971179 -2.55812122 -2.65093534
v -3.01267773 -2.6060089 -1.25177313
v -3.68582031 -4.21272516 12.22967464
v -4.14610127 -4.53416198 14.68304131
v -2.32870935 -3.29322476 7.37518069
v -2.94366954 -3.72888278 9.71801951
v 3.18406852 -3.62896829 19.87803314
v 0.66959029 -2.93627579 23.00449937
v 5.31173175 -4.26241703 12.2477596
v 4.26818229 -2.76682267 4.13990552
v 2.3108001 -3.22510823 21.26554147
v -2.33626615 -2.88032207 4.01948636
v 3.95903607 -2.26701773 -0.1701648
v 3.78262048 -2.15097098 -1.64731283
v 4.03596164 -2.36846028 1.31882815
v 3.39803436 -2.0140585 -3.04568808
v 2.70468364 -1.89688682 -4.299595
v 4.12666349 -2.54128851 2.75492382
v -2.25836383 -3.05858439 5.60453016
v 1.77919735 -1.85006066 -5.04688285
v 0.66751006 -1.90431615 -5.33051447
v -2.35632515 -3.84945061 21.06303783
v 5.11839869 -3.79148045 9.46639761
v -2.24562788 -2.45417386 -3.76221861
v -0.44504755 -2.08189921 -5.16732352
v -2.87633807 -4.11537937 20.11543389
v -1.45028266 -2.28839302 -4.62088315
v 0.42724449 -0.23606341 14.47542241
v 0.17536787 -0.98865788 16.73314162
v 1.61829865 -1.07774658 16.64471083
v 2.04353417 -0.36183189 14.32097629
v 0.00005614 -1.1319173 19.00937089
v 1.13277919 -1.19243465 18.92662913
v -0.76378844 -0.39184654 22.61110421
v -0.64914276 -0.12169386 23.58299265
v -0.1880553 -0.07667189 23.66015165
v -0.14394611 -0.29834288 22.68603517
v 4.50666479 -2.65323834 15.89856989
v 4.77297565 -3.52283464 15.54820082
v 5.08486043 -3.27471501 12.53279276
v 4.90273493 -2.3136103 12.93947582
v -1.88549469 2.29420731 9.33175635
v -2.24868432 0.76951131 11.5836598
v -0.90373632 1.25106145 11.86162406
v -0.64457898 2.92994894 9.7924617
v -3.2027418 -3.61945895 18.84866355
v -2.5839186 -3.3534239 20.25977569
v -2.42983338 -2.61621885 20.7193339
v -3.07682497 -2.92963184 19.24585815
v -2.8769963 2.60214367 0.71216744
v -2.61650162 3.24092054 -0.82592273
v -2.78149708 1.20788606 -1.09643662
v -2.96470528 0.65533249 0.44311866
v 0.23435703 -3.82557035 22.81993391
v 0.19067236 -2.91271421 22.93394225
v -0.26360132 -2.98734737 22.89949176
v -0.33159054 -3.95806786 22.79857965
v -0.93355992 -0.96917171 20.99498456
v -0.08022343 -0.83385118 21.07199554
v 1.04509148 5.21798011 8.10317326
v 0.8930655 3.20653332 9.96416489
v 2.27762274 2.87730659 9.55907358
v 2.23973294 4.49682207 7.74391053
v -3.45928838 -1.54912883 10.29606636
v -3.11469342 -2.57807442 10.00629996
v -3.75665388 -3.20746895 12.52254011
v -4.03765355 -2.33243856 12.85223402
v 4.85204545 -5.23294632 15.15325577
v 4.80634406 -4.44849062 15.3237704
v 3.94109946 -4.07812644 17.74652777
v 4.17688611 -5.00705142 17.58095949
v 1.44065193 -2.97979073 22.01140596
v 0.97147712 -2.88677513 22.51518083
v 0.89711981 -3.62794947 22.47818221
v 1.31329142 -3.67566729 22.06748779
v -1.09246338 -0.38511782 23.29989115
v -0.99804687 -0.44194169 23.56957759
v -0.59352867 -0.22984394 23.80629766
v 3.90524744 1.48498033 4.6888507
v 4.10017278 1.13214915 6.2890293
v 4.32352049 -0.3269563 5.80518659
v 4.09045088 0.0720216 4.32735914
v -3.26289856 -4.3965277 18.619648
v -3.76370112 -4.55927298 16.84927361
v -3.90492291 -5.46444548 16.73626226
v -3.39475904 -5.21692018 18.63395503
v -1.25741645 -0.37437711 14.36071283
v 0.71637404 1.3995424 11.8910866
v 4.20715538 0.57248446 8.09481004
v 4.64661283 -0.78972087 7.50010006
v -0.97998279 -4.10168819 22.45462141
v -0.7526019 -3.10969836 22.6845068
v -1.15261998 -3.25603541 22.37671846
v -1.37333573 -4.20340656 22.09448743
v 4.26463748 -2.99575313 5.46727797
v 4.53924782 -3.29755527 7.07968311
v 4.45504126 -4.29635858 6.91256478
v 4.17378697 -4.0570907 5.40763078
v -1.29946659 -1.11637922 16.67466221
v 0.76020727 -0.9307513 20.97112644
v -1.65932381 4.01771316 7.56700689
v -0.3223994 5.11698323 8.06042266
v -1.71568082 -2.70360947 21.96778522
v -1.40513338 -2.39745595 22.47482939
v -1.37711413 -1.4048933 22.96695038
v -1.6487528 -1.81639493 22.46529855
v -2.80544092 -0.816891 -1.24621252
v -2.36691751 1.6965682 -2.45535115
v -2.48544771 -0.54041258 -2.58143846
v -2.63301581 -1.40334373 16.4655997
v -2.18634159 -1.58909881 18.69347444
v -1.15030622 -1.2759833 18.93669073
v -2.78873537 -2.32783224 19.74621504
v -3.51222805 -2.49369817 17.85854149
v -3.78535239 -3.06601372 17.44103264
v -0.19992102 -0.20740729 23.8793599
v 0.18931384 -0.33536238 23.82512655
v 0.27477276 -0.22685108 23.54979346
v 2.23661261 1.08228775 11.63844589
v 0.55195164 -0.57904522 23.65289186
v 0.80856181 -0.84019812 23.42650859
v 1.01051309 -0.96165761 22.99970295
v 0.69510484 -0.5457619 23.30600466
v -2.16500852 -1.92798401 21.27405256
v -1.46819807 -3.41317738 22.01686156
v -1.78023135 -3.59880498 21.56736433
v -1.82001027 -4.36833844 21.44991715
v -1.59018815 -4.26379675 21.78827049
v -2.64585804 -1.38428204 2.14359384
v -2.88945643 0.22665845 2.3430401
v -2.83870305 -1.09759366 0.3072038
v 3.45226866 -2.47998563 18.2575833
v 3.76943854 -3.22447151 17.96028169
v -0.67616438 -1.93382139 23.16994113
v -0.64674407 -0.81943819 23.66119166
v -1.04746276 -1.04900569 23.37562805
v -1.07429334 -2.13091166 22.87206575
v 0.8927471 -1.27795734 23.22808146
v 1.22863919 -1.50017996 22.67792642
v -2.69215376 1.55020964 4.68753456
v -2.85598175 2.09561001 2.63323122
v -2.71870836 -0.15149627 4.33534042
v 2.91236612 -1.89228066 18.50158466
v 2.0895324 -1.62737086 20.50301287
v 2.51693301 -2.15992869 20.2514759
v 0.20977644 -1.84286476 23.33487302
v 0.59438391 -1.92896044 23.1655053
v 0.59003243 -1.05017316 23.54981497
v 0.22293702 -0.85442006 23.74015486
v -2.27901748 -3.88759519 2.05437736
v -2.42868742 -2.72729853 2.11506456
v -2.71773194 -2.62587701 0.3226356
v -2.61365711 -3.84505652 0.31229818
v 2.90559485 -1.4056363 16.44613504
v 3.36322235 -0.76584061 13.93443732
v -3.47202433 -0.63251565 10.67623744
v -2.9639199 0.33088163 8.2670014
v -2.90036699 -0.86698616 7.87619565
v -2.12754335 3.7934953 -2.17868199
v -2.67714644 -0.66917424 14.04927404
v 0.99911435 -0.81597815 22.30756193
v 0.46413657 -0.46499387 22.56459625
v -3.80216422 -3.74548206 17.09051554
v -1.79388015 -1.2964032 21.8446914
v -2.3306622 -1.79614456 20.27484565
v -2.73596555 -3.92939055 -1.23116281
v -2.78332247 -2.60004405 -1.23638435
v -2.5695268 -2.56124155 -2.58152323
v -2.57540656 -3.98390098 -2.54938556
v -1.70727491 -1.31994375 20.72086228
v -1.32774062 -0.75166137 22.32067966
v -1.5074464 4.21539824 -3.26890958
v -1.76242206 2.03592043 -3.56548939
v -3.91472958 -4.51768986 14.69734833
v -3.4649559 -4.18447233 12.28864242
v -3.43114182 -5.15882256 12.13986414
v -3.92285952 -5.40454334 14.49972683
v -1.76543627 -1.48294397 22.30851716
v -1.5770913 -1.2529735 22.78707381
v -1.34601694 -0.83145266 23.18658248
v -1.47717697 -0.8668163 22.84716762
v 4.98197427 -2.70263304 9.67611791
v 4.88692072 -1.5866367 10.07849221
v -0.20302016 -0.75796561 23.78466758
v -0.22422568 -1.83562648 23.33542465
v 0.96763507 -2.04925245 22.83201164
v 1.39488705 -2.21331403 22.2739389
v -2.62923757 -0.39961558 6.00499407
v -2.70516584 1.15142277 6.2908123
v -2.48731548 -4.69111258 9.57329552
v -2.72947027 -3.68547396 9.78738852
v -2.11034974 -3.23625223 7.41912011
v -1.83291608 -4.27576851 7.21211689
v -2.40964691 -1.56173763 4.0624707
v 3.49351207 0.43181493 11.20410417
v 3.43320696 1.99692657 8.88909367
v -2.36135595 -1.77143686 5.79393632
v -2.54430953 -2.04836095 7.66259087
v -4.0091037 -1.61529282 13.24102318
v 3.87175156 -1.93129539 16.17872028
v -4.11761469 -3.65057717 14.96257617
v -4.26006753 -2.89320684 15.31392135
v 4.3687335 -1.73460841 5.50971036
v 4.13116353 -1.43505629 4.13897179
v 3.40637623 3.2683453 7.23648505
v 1.42751262 -1.2669405 22.00811641
v 1.75412859 -1.80300107 21.69504328
v -1.95486378 -2.20872905 21.77927103
v 3.97383115 0.36707336 2.82533291
v 3.90615998 1.82235819 3.0826013
v 2.98182013 -3.65367631 19.77283322
v 3.11378674 -4.57302805 19.85825027
v 3.852966 0.64316969 1.44236796
v 3.87039304 2.21730324 1.66686227
v 1.50093593 -1.21228173 20.7489247
v -4.11385764 -2.28790481 15.72654839
v -3.57975024 -1.78952181 16.12718183
v -3.59002409 -1.07275816 13.64825819
v 3.68353407 2.62854993 0.26995087
v 3.67835461 0.96159213 0.06568605
v 3.37288035 1.35110309 -1.32755306
v 3.31620514 3.19738457 -1.15763244
v 4.31895686 -1.44356833 13.43104486
v 0.5639023 -2.88494959 22.80505375
v 0.4767028 -3.72062537 22.71696204
v 5.08237681 -4.2621409 12.24504287
v -2.98620789 -2.00805127 18.30810262
v 2.13035149 -1.45379979 18.73066411
v 2.76176245 3.8229368 -2.52480501
v 2.8908847 1.77060719 -2.6887399
v 2.2391598 2.1505873 -3.95797234
v 2.08454414 4.31518495 -3.65336855
v 4.04264798 -2.74903473 4.1745053
v 3.93676895 -3.88676711 4.33366338
v 2.14508284 -3.99718888 21.25834494
v 2.12230663 -3.23177337 21.13380751
v 4.3648066 -0.50744746 10.63539716
v 3.83974168 -0.91803655 1.34317527
v 3.7067773 -0.71071497 -0.0717363
v -2.1133426 -2.83128827 3.99870524
v 3.46706374 -0.46662853 -1.48441921
v 3.55833873 -2.16710339 -1.60290639
v 3.7311668 -2.27567811 -0.15040217
v 3.82097731 -3.65433422 -0.21682079
v 3.63817239 -3.58131436 -1.7796832
v 3.80754075 -2.36727161 1.3312247
v 3.81857846 -3.66365283 1.39437401
v 3.04876935 -0.19687882 -2.84320721
v 2.42580669 0.04385354 -4.07435801
v 2.52491429 -1.91248848 -4.15153852
v 3.18496002 -2.03371437 -2.96124904
v 3.29410819 -3.52752573 -3.06797607
v 2.63752219 -3.4540175 -4.23784628
v 3.89900678 -2.52986855 2.77415569
v 3.83891391 -3.73444402 2.87131012
v -2.07738462 -3.02956737 21.27515709
v 3.96742063 -1.16176209 2.74660315
v -0.79289023 4.488905 -4.08560828
v -1.00880877 2.25098954 -4.40944331
v 1.59168031 0.19534886 -4.88640831
v 1.44568274 2.39719943 -4.73030761
v 1.9981301 -2.46994538 21.33743593
v 2.80873712 -2.84266586 19.95667751
v -1.72164551 -4.07235264 5.40313073
v -2.03705374 -2.99978631 5.61172606
v -1.88035792 -3.95740995 3.9661861
v 0.66339208 0.19974295 -5.17364959
v 0.63592466 2.46325746 -5.03338303
v 4.65682279 -2.1032957 7.16435669
v 0.65549572 -1.90009208 -5.0976356
v 1.67393394 -1.85402995 -4.83754452
v 1.6966041 -3.43293937 -4.86227438
v 0.61932534 -3.51368589 -5.0783411
v 1.36947865 4.63167605 -4.37911109
v -2.16016876 -3.83972871 20.94401926
v -2.21121915 -4.57708243 20.88713149
v 4.8909751 -3.7847938 9.49201829
v 5.103943 -5.06920342 12.02203455
v 4.86541811 -4.71028024 9.32020898
v 0.67001482 4.73033798 -4.67390822
v -1.93221489 -0.32111893 -3.67548574
v -2.05373811 -2.46028722 -3.63354266
v -3.09607739 0.12544933 11.12507708
v -2.65655636 1.4348216 8.73263136
v -0.45542744 -3.70304966 -4.90383535
v -0.37090252 -2.07886381 -4.94718028
v -0.27829021 0.06994128 -5.0330857
v -0.18572035 2.39666931 -4.91559551
v -2.46653468 2.74283471 6.94569976
v -1.17280661 -0.11948607 -4.51373101
v -2.66995054 -4.12178989 20.01420294
v -2.72448216 -4.85349696 20.13899468
v -1.30674742 -2.29111007 -4.43894934
v -0.04547522 4.66525669 -4.56809214
v -2.12578154 -3.9996086 -3.60155302
v -1.40931506 -3.89207405 -4.39278045
v -2.63655556 1.30185453 8.81981655
v -2.95163722 0.1805329 8.28509307
v -2.89164145 -1.03271346 7.82626308
v -2.55080481 -2.22290671 7.5785616
v 4.61047266 -0.87599171 7.47400552
v 4.61781058 -2.21830719 7.09659331
v 3.46220975 1.91734326 8.94815162
v 4.19677115 0.49434033 8.11724424
v -3.02509642 0.05278993 11.17015345
v -3.41480634 -1.69780392 10.22049472
v -3.42456809 -0.73636511 10.66247509
v -3.0810065 -2.74597734 9.8987926
v 4.83524595 -1.65356132 10.05689748
v 4.92483567 -2.80862546 9.61990632
v 3.50072853 0.38374467 11.22569661
v 4.33401321 -0.55158959 10.64568682
v -1.88689575 -4.433235 7.11937474
v 4.42687351 -4.4138763 6.82256118
v -2.49642185 -4.82711854 9.45268266
v 4.81383697 -4.81886144 9.24268643
v -1.84660315 2.17050144 9.45083585
v -2.14886598 0.69357925 11.64542924
v 0.96009728 3.10407354 10.0548438
v 0.79678646 1.30928512 11.9079851
v 2.28493109 1.01014325 11.65449765
v 2.33811779 2.78490209 9.63095823
v -0.80197794 1.15687347 11.89796272
v -0.59121372 2.81221519 9.90034716
v 4.34667894 -1.85291071 5.44239566
v 4.16177251 -4.18244103 5.31251144
v 1.09601357 5.11494118 8.25116813
v -0.31035323 4.98347924 8.22722833
v -1.65362767 3.8572051 7.73831687
v -1.7838187 -4.23709981 5.34955213
v -2.64104928 -0.57811614 6.00058291
v -2.71129706 0.96009839 6.35075017
v -2.38438725 -1.9466565 5.74906049
v 4.30564967 -0.42858378 5.78319656
v 4.09984224 1.02712984 6.31893229
v 3.4382074 3.17617486 7.32903601
v -2.46821963 2.56821952 7.07760231
v 2.30135813 4.40222843 7.85811687
v 4.50577313 -3.41938293 6.9924742
v 4.24723163 -3.12185721 5.3764727
v -2.14516176 -3.40081055 7.32546526
v -2.7218075 -3.83632181 9.66810314
v -2.07918881 -3.16634605 5.55505686
v 4.83799304 -3.8991741 9.41745629
v -0.75281683 1.04152812 11.81161653
v -2.05211484 0.58956728 11.58934156
v -1.73991582 2.07842874 9.39028966
v -0.53544322 2.70409452 9.80563474
v 2.25444894 2.68856245 9.5478322
v 0.94059638 2.99247829 9.94762081
v 1.06997501 5.00898023 8.13793767
v 2.20900867 4.31323304 7.77729064
v 4.46256928 -0.90203244 7.48287419
v 4.05561325 0.44430503 8.10436374
v 3.95587873 0.98651888 6.31267138
v 4.15815305 -0.45035993 5.79820989
v 4.27989943 -4.40750816 6.84688695
v 4.35884175 -3.41093858 7.01647972
v 4.1007456 -3.11193605 5.40248674
v 4.01524441 -4.17363198 5.33853529
v -1.53935285 3.77896117 7.67458414
v -0.24877603 4.88534237 8.12458224
v 2.21079009 0.90854445 11.56916379
v 0.78346471 1.19431981 11.80671557
v -2.74474739 -1.01791921 7.85419645
v -2.80255149 0.15951479 8.29790889
v -3.27664067 -0.7651484 10.67825704
v -3.26901586 -1.68410554 10.25506895
v -2.49366748 -0.56233132 6.02189067
v -2.56192667 0.94654116 6.36090635
v -2.00198726 -3.36584671 7.35259079
v -2.5817535 -3.80455453 9.7087088
v -2.35515799 -4.8017526 9.49301346
v -1.74255394 -4.40232901 7.14544113
v 3.33766631 1.84262216 8.90036755
v 3.38414517 0.30124291 11.17356747
v -2.40843705 -2.18788467 7.6081864
v -2.24040603 -1.91221187 5.76776476
v 3.30715981 3.11085034 7.28591581
v -2.94180145 -2.71068359 9.93891472
v 4.68760035 -1.68358775 10.05953893
v 4.19735283 -0.61020403 10.62619906
v 4.46977656 -2.21755961 7.11746743
v 4.77631455 -2.80855398 9.63695238
v -1.93550507 -3.12876259 5.56815276
v 4.19934585 -1.85150206 5.46704074
v -2.89214121 -0.02054258 11.15231743
v -2.49768042 1.24050862 8.79983208
v -2.32547198 2.51918177 7.05600402
v 4.66652349 -4.81495573 9.26527166
v 4.69065837 -3.89216071 9.43937333
v -1.63951928 -4.20133287 5.36080209
v 1.00538799 4.00232374 9.0413482
v 2.23169283 3.50218257 8.66116131
v 2.31970894 3.59484423 8.74313559
v 1.02816289 4.11109757 9.15157964
v 4.00566707 0.71584075 7.2071008
v 4.3101203 -0.67583901 6.63920985
v 4.45781998 -0.65193394 6.62726403
v 4.14822999 0.7611564 7.21666628
v 4.2295895 -3.26120096 6.20820687
v 4.14736269 -4.29038519 6.0915185
v 4.29411346 -4.29797552 6.06634203
v 4.37629789 -3.27038482 6.18319551
v -1.63947579 2.93003972 8.53108019
v -0.39188291 3.79644325 8.96377911
v -0.45056135 3.89956411 9.06246468
v -1.74996287 3.01518696 8.59322206
v -2.68204882 0.55365034 7.32787596
v -2.61900896 -0.789765 6.93659465
v -2.7661472 -0.80505533 6.9119793
v -2.8312772 0.57093212 7.31639194
v -2.32428869 -2.04983034 6.68652027
v -2.46746429 -2.08456312 6.66236435
v 3.32238887 2.47773909 8.09186494
v 3.4501896 2.54775438 8.13731337
v -1.96869366 -3.24711724 6.45896067
v -2.11212325 -3.28339279 6.43886118
v 4.33434723 -2.03424133 6.29094894
v 4.48203047 -2.03532009 6.2681865
v -2.41144004 1.88085626 7.9265391
v -2.55225443 1.93603852 7.94733169
v -1.69095508 -4.30167184 6.25171026
v -1.8352757 -4.33501242 6.23306387
v -1.87553382 1.43167311 10.34554907
v -0.62986945 1.98188224 10.67702535
v -0.68276887 2.09314126 10.76810344
v -1.97790489 1.52893224 10.40415847
v 0.872339 2.21136528 10.75520428
v 2.23548372 1.91532967 10.42589064
v 2.31501374 2.0139538 10.50997574
v 0.88915571 2.32442439 10.85984102
v -3.00849398 -0.24215521 9.3319226
v -2.97248761 -1.30730791 8.89712604
v -3.11890215 -1.32162617 8.86630774
v -3.15707647 -0.21776396 9.31781848
v -2.0086668 -4.57583714 8.16521716
v -2.25383532 -3.55641972 8.37607912
v -2.15167159 -4.60433638 8.13295447
v -2.39565429 -3.58999499 8.34309794
v 3.35785658 1.17305317 9.88783653
v 3.47894219 1.25115413 9.93750812
v -2.64012852 -2.41498643 8.62064563
v -2.78112226 -2.45012645 8.58646077
v 4.11718451 -0.01376954 9.19983905
v 4.56032184 -1.24153693 8.60216712
v 4.70811325 -1.21376487 8.59600356
v 4.25638861 0.0399925 9.2155896
v 4.60293547 -2.47428521 8.2119217
v 4.75118109 -2.47473911 8.19271055
v -2.66903263 0.69271305 9.82174241
v -2.80533622 0.75926578 9.84079367
v 4.50298144 -3.61997958 8.06897519
v 4.44784726 -4.58450164 7.89742371
v 4.59496906 -4.58980035 7.8738539
v 4.65008806 -3.62780239 8.04587683
g Group60229
f 79 83 82 31
g Group58059
f 147 144 145 146
g Group58062
f 38 147 146 37
g Group60229
f 38 37 97 96
f 80 75 67 35
g Group58059
f 155 152 153 154
g Group60229
f 9 2 99 98
g Group58059
f 157 154 153 156
g Group60229
f 1 100 99 2
g Group58062
f 251 310 300 231
g Group58059
f 310 283 282 300
f 156 160 146 145
g Group58062
f 37 146 160 62
g Group60229
f 100 97 37 62
f 34 33 25 26
g Group58059
f 162 161 144 147
g Group58062
f 39 162 147 38
g Group60229
f 39 38 96 101
f 34 26 27 35
g Group58059
f 162 163 164 161
g Group58062
f 40 163 162 39
g Group60229
f 39 101 102 40
g Group58059
f 166 165 164 163
g Group58062
f 71 166 163 40
g Group60229
f 71 40 102 103
f 80 35 27 81
g Group58062
f 250 309 310 251
g Group58059
f 309 255 283 310
f 168 167 165 166
g Group58062
f 41 168 166 71
g Group60229
f 41 71 103 104
g Group58059
f 168 169 170 167
g Group58062
f 42 169 168 41
g Group60229
f 41 104 105 42
g Group58059
f 173 155 154 172
g Group60229
f 12 6 2 9
g Group58059
f 174 172 154 157
g Group60229
f 3 1 2 6
f 87 90 89 83
g Group58059
f 174 175 176 172
g Group60229
f 3 6 7 4
g Group58059
f 173 172 176 177
g Group60229
f 12 13 7 6
g Group58059
f 179 177 176 178
g Group60229
f 74 73 7 13
g Group58059
f 180 178 176 175
g Group60229
f 70 4 7 73
f 34 35 67 64
g Group58059
f 182 181 178 180
g Group60229
f 5 70 73 8
f 29 85 107 106
g Group58059
f 183 179 178 181
g Group60229
f 16 8 73 74
f 34 64 65 33
g Group58062
f 249 308 309 250
g Group58059
f 308 252 255 309
f 186 185 152 155
g Group60229
f 10 9 98 108
g Group58062
f 248 307 308 249
g Group58059
f 307 281 252 308
g Group60229
f 33 111 110 25
g Group58059
f 189 186 155 173
g Group60229
f 11 12 9 10
g Group58059
f 189 173 177 190
g Group60229
f 11 14 13 12
f 87 113 112 90
f 83 89 92 82
g Group58059
f 191 190 177 179
g Group60229
f 76 74 13 14
g Group58059
f 192 191 179 183
g Group60229
f 15 16 74 76
f 30 31 82 86
f 32 114 113 87
g Group58062
f 247 306 307 248
g Group58059
f 306 273 281 307
g Group60229
f 36 117 109 68
g Group58059
f 197 194 195 196
g Group60229
f 17 119 118 18
g Group58059
f 186 197 196 185
g Group60229
f 10 108 119 17
g Group58059
f 200 199 194 197
g Group60229
f 20 17 18 19
g Group58059
f 189 200 197 186
g Group60229
f 11 10 17 20
g Group58059
f 189 190 201 200
g Group60229
f 11 20 21 14
g Group58059
f 183 181 202 203
g Group60229
f 16 121 120 8
g Group58059
f 200 201 204 199
g Group60229
f 20 19 22 21
g Group58059
f 206 205 204 201
g Group60229
f 77 21 22 78
g Group58059
f 191 206 201 190
g Group60229
f 76 14 21 77
g Group58059
f 192 207 206 191
g Group60229
f 15 76 77 24
f 86 82 92 93
g Group58059
f 207 208 205 206
g Group60229
f 24 77 78 23
g Group58059
f 194 209 210 195
g Group60229
f 18 118 135 136
g Group58059
f 192 211 212 207
g Group60229
f 15 24 123 122
f 86 93 94 85
g Group58059
f 199 213 209 194
g Group60229
f 19 18 136 137
g Group58059
f 199 204 214 213
g Group60229
f 19 137 138 22
g Group58059
f 182 170 202 181
g Group60229
f 5 8 120 105
g Group58059
f 205 215 214 204
g Group60229
f 78 22 138 139
f 32 87 83 79
g Group58059
f 208 217 215 205
g Group60229
f 23 78 139 140
g Group58059
f 207 212 218 208
g Group60229
f 24 23 115 123
f 85 94 124 107
f 30 86 85 29
f 33 65 116 111
g Group58059
f 208 218 220 217
g Group60229
f 23 140 141 115
g Group58062
f 223 294 306 247
g Group58059
f 294 270 273 306
g Group60229
f 36 68 75 80
f 36 28 125 117
g Group58059
f 192 183 203 211
g Group60229
f 15 122 121 16
f 36 80 81 28
f 90 28 81 89
f 90 112 125 28
f 89 81 27 92
f 93 92 27 26
f 93 26 25 94
f 94 25 110 124
g Group58059
f 144 157 145
g Group60229
f 97 1 96
g Group58059
f 152 221 222 153
g Group58062
f 61 222 221 60
g Group60229
f 98 99 61 60
g Group58059
f 156 153 222 160
g Group58062
f 62 160 222 61
g Group60229
f 100 62 61 99
g Group58059
f 157 156 145
g Group60229
f 97 100 1
g Group58059
f 161 174 157 144
g Group60229
f 101 96 1 3
g Group58059
f 161 164 175 174
g Group60229
f 101 3 4 102
g Group58059
f 165 180 175 164
g Group60229
f 103 102 4 70
g Group58059
f 167 182 180 165
g Group60229
f 104 103 70 5
g Group58059
f 170 182 167
g Group60229
f 104 5 105
g Group58062
f 84 224 223 54
g Group60229
f 106 107 84 54
g Group58059
f 185 225 221 152
g Group58062
f 60 221 225 59
g Group60229
f 108 98 60 59
g Group58062
f 227 296 303 244
g Group58059
f 290 303 296 275
g Group58062
f 229 298 305 246
f 56 228 227 55
g Group60229
f 111 56 55 110
g Group58062
f 88 230 229 91
g Group60229
f 113 88 91 112
g Group58062
f 49 231 230 88
g Group60229
f 114 49 88 113
g Group58059
f 277 292 305 298
g Group58062
f 246 305 302 233
g Group58059
f 286 302 305 292
g Group58062
f 63 233 226 66
g Group60229
f 117 63 66 109
g Group58059
f 196 195 234 235
g Group58062
f 58 235 234 57
g Group60229
f 119 58 57 118
g Group58059
f 185 196 235 225
g Group58062
f 59 225 235 58
g Group60229
f 108 59 58 119
g Group58059
f 203 202 236 237
g Group58062
f 44 237 236 43
g Group60229
f 121 44 43 120
g Group58059
f 195 210 238 234
g Group58062
f 57 234 238 142
g Group60229
f 118 57 142 135
g Group58059
f 211 239 240 212
g Group58062
f 46 240 239 45
g Group60229
f 122 123 46 45
g Group58059
f 170 169 236 202
g Group58062
f 43 236 169 42
g Group60229
f 105 120 43 42
g Group58059
f 212 240 242 218
g Group58062
f 47 242 240 46
g Group60229
f 123 115 47 46
g Group58062
f 95 244 224 84
g Group60229
f 107 124 95 84
g Group58062
f 69 232 228 56
g Group60229
f 111 116 69 56
g Group58059
f 218 242 245 220
g Group58062
f 143 245 242 47
g Group60229
f 115 141 143 47
g Group58062
f 48 246 233 63
g Group60229
f 117 125 48 63
g Group58059
f 211 203 237 239
g Group58062
f 45 239 237 44
g Group60229
f 122 45 44 121
g Group58062
f 91 229 246 48
g Group60229
f 112 91 48 125
g Group58062
f 55 227 244 95
g Group60229
f 124 110 55 95
g Group58062
f 54 223 247 53
g Group60229
f 54 53 29 106
g Group58062
f 53 247 248 52
g Group60229
f 53 52 30 29
g Group58062
f 52 248 249 51
g Group60229
f 52 51 31 30
g Group58062
f 51 249 250 72
g Group60229
f 51 72 79 31
g Group58062
f 72 250 251 50
g Group60229
f 72 50 32 79
g Group58062
f 50 251 231 49
g Group60229
f 50 49 114 32
g Group58059
f 209 188 216 210
g Group60229
f 136 135 126 127
g Group58059
f 213 171 188 209
g Group60229
f 137 136 127 128
g Group58059
f 213 214 148 171
g Group60229
f 137 128 129 138
g Group58059
f 215 149 148 214
g Group60229
f 139 138 129 130
g Group58059
f 217 198 149 215
g Group60229
f 140 139 130 131
g Group58059
f 217 220 219 198
g Group60229
f 140 131 132 141
g Group58059
f 210 216 241 238
g Group58062
f 142 238 241 133
g Group60229
f 135 142 133 126
g Group58059
f 220 245 243 219
g Group58062
f 134 243 245 143
g Group60229
f 141 132 134 143
g Group58062
f 66 226 327 328
g Group58059
f 255 252 253 254
f 259 256 257 258
f 151 258 257 150
f 263 260 261 262
f 263 256 264 260
f 259 265 264 256
f 268 254 266 267
f 263 269 257 256
f 150 257 269 158
f 273 270 271 272
f 263 262 274 269
f 158 269 274 159
f 262 261 275 276
f 268 267 277 278
f 254 253 279 266
f 281 280 253 252
f 283 268 278 282
f 287 284 285 286
f 187 285 284 184
f 280 288 279 253
f 280 272 289 288
f 283 255 254 268
f 272 271 290 289
f 281 273 272 280
f 262 276 291 274
f 159 274 291 193
f 287 259 258 284
f 184 284 258 151
f 287 286 292 293
f 287 293 265 259
f 267 266 265 293
f 267 293 292 277
f 266 279 264 265
f 288 260 264 279
f 288 289 261 260
f 289 290 275 261
f 270 294 295 271
g Group58062
f 224 295 294 223
g Group58059
f 276 275 296 297
g Group58062
f 228 297 296 227
g Group58059
f 278 277 298 299
g Group58062
f 230 299 298 229
g Group58059
f 282 278 299 300
g Group58062
f 231 300 299 230
g Group58059
f 286 285 301 302
f 226 301 285 187
g Group58062
f 233 302 301 226
g Group58059
f 271 295 303 290
g Group58062
f 244 303 295 224
g Group58059
f 276 297 304 291
g Group58062
f 232 304 297 228
g Group58059
f 193 291 304 232
f 312 151 150 311
g Group60229
f 313 314 67 75
g Group58059
f 315 311 150 158
g Group60229
f 316 64 67 314
g Group58059
f 315 158 159 317
g Group60229
f 316 318 65 64
g Group58059
f 319 184 151 312
g Group60229
f 320 313 75 68
g Group58059
f 317 159 193 321
g Group60229
f 318 322 116 65
g Group58059
f 319 323 187 184
g Group60229
f 320 68 109 324
g Group58059
f 321 193 232 325
g Group58062
f 326 325 232 69
g Group60229
f 322 326 69 116
g Group58059
f 323 327 226 187
g Group60229
f 324 109 66 328
g Group58059
f 333 312 311 339
g Group60229
f 340 330 314 313
g Group58059
f 341 339 311 315
g Group60229
f 329 316 314 330
g Group58059
f 341 315 317 342
g Group60229
f 329 331 318 316
g Group58059
f 332 319 312 333
g Group60229
f 343 340 313 320
g Group58059
f 342 317 321 344
g Group60229
f 331 334 322 318
g Group58059
f 332 335 323 319
g Group60229
f 343 320 324 345
g Group58059
f 344 321 325 336
g Group58062
f 337 336 325 326
g Group60229
f 334 337 326 322
g Group58059
f 335 338 327 323
g Group60229
f 345 324 328 346
g Group58062
f 328 327 338 346
g Group58059
f 149 333 339 148
g Group60229
f 130 129 330 340
g Group58059
f 171 148 339 341
g Group60229
f 128 329 330 129
g Group58059
f 171 341 342 188
g Group60229
f 128 127 331 329
g Group58059
f 198 332 333 149
g Group60229
f 131 130 340 343
g Group58059
f 188 342 344 216
g Group60229
f 127 126 334 331
g Group58059
f 198 219 335 332
g Group60229
f 131 343 345 132
g Group58059
f 216 344 336 241
g Group58062
f 133 241 336 337
g Group60229
f 126 133 337 334
g Group58059
f 219 243 338 335
g Group58062
f 346 338 243 134
g Group60229
f 132 345 346 134
g Group18133
f 619 618 617 616
g Group60220
f 539 537 535 529
g Group18133
f 618 621 620 617
g Group60220
f 529 535 534 528
g Group18133
f 625 624 623 622
g Group60220
f 546 548 549 526
g Group18133
f 629 628 627 626
g Group60220
f 444 460 461 445
g Group18133
f 633 632 631 630
g Group60220
f 555 513 514 552
g Group18133
f 637 636 635 634
g Group60220
f 415 416 417 414
g Group18133
f 641 640 639 638
g Group18136
f 389 388 638 639
g Group60220
f 386 388 389 387
g Group18133
f 645 644 643 642
g Group18136
f 525 544 645 642
g Group60220
f 544 525 574 573
g Group18133
f 647 625 622 646
g Group60220
f 536 551 548 546
g Group18133
f 651 650 649 648
g Group18136
f 561 572 651 648
g Group60220
f 572 561 523 543
g Group18133
f 655 654 653 652
g Group60220
f 438 440 443 442
g Group18133
f 659 658 657 656
g Group18136
f 476 475 659 656
g Group60220
f 475 476 576 575
g Group18133
f 663 662 661 660
g Group18136
f 492 491 662 663
g Group60220
f 492 578 577 491
g Group18133
f 623 666 665 664
g Group60220
f 549 516 512 557
g Group18133
f 670 669 668 667
g Group18136
f 569 348 667 668
g Group60220
f 347 348 569 568
g Group18133
f 674 673 672 671
g Group18136
f 498 503 673 674
g Group60220
f 498 580 579 503
g Group18133
f 676 616 675 632
g Group60220
f 524 552 553 537
g Group18133
f 669 678 677 668
g Group60220
f 568 569 435 432
g Group18133
f 682 681 680 679
g Group18136
f 547 522 682 679
g Group60220
f 522 547 582 581
g Group18133
f 686 685 684 683
g Group18136
f 560 494 685 686
g Group60220
f 560 584 583 494
g Group18133
f 616 617 687 675
g Group60220
f 537 553 554 535
g Group18133
f 647 620 621 688
g Group60220
f 536 531 528 534
g Group18133
f 690 633 630 689
g Group18136
f 563 562 690 689
g Group60220
f 562 563 513 555
g Group18133
f 694 693 692 691
g Group60220
f 408 405 404 409
g Group18133
f 697 696 640 695
g Group60220
f 383 395 387 382
g Group18133
f 687 700 699 698
g Group60220
f 554 517 518 550
g Group18133
f 637 703 702 701
g Group60220
f 415 411 455 454
g Group18133
f 706 705 704 624
g Group60220
f 545 526 527 542
g Group18133
f 707 619 616 676
g Group60220
f 540 524 537 539
g Group18133
f 711 710 709 708
g Group60220
f 509 508 507 506
g Group18133
f 636 637 701 712
g Group60220
f 414 413 411 415
g Group18133
f 716 715 714 713
g Group18136
f 489 488 715 716
g Group60220
f 489 586 585 488
g Group18133
f 719 641 718 717
g Group60220
f 394 397 393 386
g Group18133
f 721 720 626 627
g Group60220
f 462 461 460 463
g Group18133
f 725 724 723 722
g Group60220
f 515 556 558 511
g Group18133
f 727 726 709 710
g Group60220
f 402 506 507 400
g Group18133
f 650 707 676 649
g Group60220
f 543 523 524 540
g Group18133
f 730 718 729 728
g Group18136
f 390 391 728 729
g Group60220
f 392 391 390 393
g Group18133
f 733 732 731 720
g Group60220
f 418 463 466 423
g Group18133
f 737 736 735 734
g Group60220
f 541 533 398 399
g Group18133
f 741 740 739 738
g Group18136
f 485 484 741 738
g Group60220
f 484 485 588 587
g Group18133
f 619 743 742 618
g Group60220
f 539 529 464 451
g Group18133
f 652 746 745 744
g Group60220
f 440 441 429 430
g Group18133
f 648 649 633 690
g Group18136
f 562 561 648 690
g Group60220
f 561 562 555 523
g Group18133
f 640 696 747 639
g Group18136
f 385 389 639 747
g Group60220
f 387 389 385 382
g Group18133
f 675 687 698 748
g Group60220
f 553 519 517 554
g Group18133
f 617 620 700 687
g Group60220
f 535 554 550 534
g Group18133
f 711 706 750 749
g Group60220
f 509 425 538 545
g Group18133
f 624 704 666 623
g Group60220
f 526 549 557 527
g Group18133
f 703 637 634 751
g Group60220
f 454 458 416 415
g Group18133
f 649 676 632 633
g Group60220
f 523 555 552 524
g Group18133
f 753 752 712 701
g Group60220
f 410 411 413 412
g Group18133
f 757 756 755 754
g Group18136
f 483 482 757 754
g Group60220
f 482 483 590 589
g Group18133
f 632 675 748 631
g Group60220
f 552 514 519 553
g Group18133
f 759 758 646 622
g Group60220
f 521 548 551 520
g Group18133
f 747 696 761 760
g Group18136
f 384 385 747 760
g Group60220
f 385 384 381 382
g Group18133
f 758 699 700 646
g Group60220
f 520 551 550 518
g Group18133
f 765 764 763 762
g Group18136
f 502 510 764 765
g Group60220
f 502 592 591 510
g Group18133
f 769 768 767 766
g Group60220
f 426 504 505 427
g Group18133
f 622 623 664 759
g Group60220
f 548 521 516 549
g Group18133
f 629 771 770 628
g Group60220
f 444 445 447 446
g Group18133
f 723 666 704 772
g Group60220
f 558 530 527 557
g Group18133
f 706 711 708 705
g Group60220
f 545 542 508 509
g Group18133
f 722 723 772 773
g Group60220
f 556 532 530 558
g Group18133
f 726 727 775 774
g Group60220
f 400 401 403 402
g Group18133
f 730 728 777 776
g Group18136
f 391 566 777 728
g Group60220
f 392 565 566 391
g Group18133
f 745 746 776 777
g Group60220
f 429 566 565 430
g Group18133
f 646 700 620 647
g Group60220
f 551 536 534 550
g Group18133
f 781 780 779 778
g Group18136
f 495 493 781 778
g Group60220
f 493 495 594 593
g Group18133
f 730 782 717 718
g Group60220
f 392 393 397 396
g Group18133
f 650 784 783 707
g Group60220
f 543 540 448 434
g Group18133
f 724 665 666 723
g Group60220
f 511 558 557 512
g Group18133
f 673 765 762 672
g Group18136
f 503 502 765 673
g Group60220
f 503 579 592 502
g Group18133
f 746 786 785 776
g Group60220
f 430 565 567 431
g Group18133
f 655 652 744 787
g Group60220
f 438 439 441 440
g Group18133
f 654 763 779 653
g Group60220
f 442 443 594 591
g Group18133
f 773 772 737 734
g Group60220
f 532 533 541 530
g Group18133
f 720 731 788 626
g Group60220
f 463 460 465 466
g Group18133
f 790 703 751 789
g Group60220
f 456 459 458 454
g Group18133
f 679 680 644 645
g Group18136
f 544 547 679 645
g Group60220
f 547 544 573 582
g Group18133
f 669 670 792 791
g Group60220
f 568 559 367 347
g Group18133
f 782 730 776 785
g Group60220
f 396 567 565 392
g Group18133
f 688 750 625 647
g Group60220
f 531 536 546 538
g Group18133
f 784 650 651 793
g Group18136
f 572 570 793 651
g Group60220
f 434 570 572 543
g Group18133
f 732 733 795 794
g Group60220
f 423 424 421 418
g Group18133
f 750 706 624 625
g Group60220
f 538 546 526 545
g Group18133
f 796 766 767 694
g Group60220
f 407 408 505 504
g Group18133
f 670 667 798 797
g Group18136
f 348 350 798 667
g Group60220
f 347 349 350 348
g Group18133
f 800 799 658 659
g Group18136
f 475 501 800 659
g Group60220
f 501 475 575 595
g Group18133
f 736 737 705 708
g Group60220
f 399 508 542 541
g Group18133
f 802 801 797 798
g Group18136
f 350 351 802 798
g Group60220
f 351 350 349 352
g Group18133
f 803 732 794 749
g Group60220
f 422 425 424 423
g Group18133
f 752 769 766 712
g Group60220
f 412 413 504 426
g Group18133
f 806 805 804 787
g Group60220
f 436 439 457 453
g Group18133
f 743 619 707 783
g Group60220
f 451 448 540 539
g Group18133
f 810 809 808 807
g Group18136
f 354 353 810 807
g Group60220
f 353 354 356 355
g Group18133
f 688 803 749 750
g Group60220
f 531 538 425 422
g Group18133
f 743 811 788 742
g Group60220
f 451 464 465 450
g Group18133
f 801 802 807 808
g Group18136
f 351 354 807 802
g Group60220
f 352 356 354 351
g Group18133
f 813 642 643 812
g Group18136
f 490 525 642 813
g Group60220
f 490 596 574 525
g Group18133
f 628 814 657 627
g Group60220
f 445 461 576 597
g Group18133
f 719 740 755 695
g Group60220
f 394 395 590 587
g Group18133
f 815 753 701 702
g Group60220
f 452 455 411 410
g Group18133
f 803 688 621 816
g Group60220
f 422 467 528 531
g Group18133
f 786 746 652 653
g Group60220
f 431 443 440 430
g Group18133
f 820 819 818 817
g Group18136
f 358 357 820 817
g Group60220
f 357 358 360 359
g Group18133
f 822 686 683 821
g Group18136
f 473 560 686 822
g Group60220
f 473 598 584 560
g Group18133
f 816 621 618 742
g Group60220
f 467 464 529 528
g Group18133
f 663 660 824 823
g Group18136
f 500 492 663 823
g Group60220
f 492 500 599 578
g Group18133
f 809 810 817 818
g Group18136
f 353 358 817 810
g Group60220
f 355 360 358 353
g Group18133
f 811 743 783 825
g Group60220
f 450 449 448 451
g Group18133
f 801 808 827 826
g Group60220
f 352 361 362 356
g Group18133
f 796 636 712 766
g Group60220
f 407 504 413 414
g Group18133
f 782 828 739 717
g Group60220
f 396 397 588 600
g Group18133
f 726 736 708 709
g Group60220
f 400 507 508 399
g Group18133
f 808 809 829 827
g Group60220
f 356 362 363 355
g Group18133
f 772 704 705 737
g Group60220
f 530 541 542 527
g Group18133
f 833 832 831 830
g Group18136
f 470 469 832 833
g Group60220
f 470 602 601 469
g Group18133
f 832 835 834 831
g Group18136
f 469 468 835 832
g Group60220
f 469 601 603 468
g Group18133
f 809 818 836 829
g Group60220
f 355 363 364 360
g Group18133
f 811 629 626 788
g Group60220
f 450 465 460 444
g Group18133
f 641 719 695 640
g Group60220
f 386 387 395 394
g Group18133
f 818 819 837 836
g Group60220
f 360 364 365 359
g Group18133
f 629 811 825 771
g Group60220
f 444 446 449 450
g Group18133
f 841 840 839 838
g Group18136
f 472 471 840 841
g Group60220
f 472 605 604 471
g Group18133
f 840 833 830 839
g Group18136
f 471 470 833 840
g Group60220
f 471 604 602 470
g Group18133
f 835 843 842 834
g Group18136
f 468 474 843 835
g Group60220
f 468 603 606 474
g Group18133
f 796 694 691 844
g Group60220
f 407 406 405 408
g Group18133
f 843 822 821 842
g Group18136
f 474 473 822 843
g Group60220
f 474 606 598 473
g Group18133
f 753 758 759 752
g Group60220
f 410 412 521 520
g Group18133
f 670 797 845 792
g Group60220
f 347 367 366 349
g Group18133
f 797 801 826 845
g Group60220
f 349 366 361 352
g Group18133
f 710 711 749 794
g Group60220
f 506 424 425 509
g Group18133
f 847 846 760 761
g Group18136
f 379 384 760 846
g Group60220
f 376 381 384 379
g Group18133
f 677 678 771 825
g Group60220
f 435 449 446 432
g Group18133
f 819 849 848 837
g Group60220
f 359 365 369 368
g Group18133
f 851 799 824 850
g Group60220
f 419 420 599 595
g Group18133
f 768 693 694 767
g Group60220
f 427 505 408 409
g Group18133
f 854 828 853 852
g Group18136
f 564 486 854 852
g Group60220
f 486 564 607 600
g Group18133
f 727 710 794 795
g Group60220
f 402 421 424 506
g Group18133
f 849 856 855 848
g Group60220
f 368 369 371 370
g Group18133
f 775 727 795 850
g Group60220
f 403 420 421 402
g Group18133
f 771 678 857 770
g Group60220
f 446 447 433 432
g Group18133
f 861 860 859 858
g Group18136
f 478 477 860 861
g Group60220
f 478 609 608 477
g Group18133
f 786 780 853 785
g Group60220
f 431 567 607 593
g Group18133
f 860 841 838 859
g Group18136
f 477 472 841 860
g Group60220
f 477 608 605 472
g Group18133
f 636 796 844 635
g Group60220
f 414 417 406 407
g Group18133
f 678 669 791 857
g Group60220
f 432 433 559 568
g Group18133
f 819 820 862 849
g Group18136
f 357 372 862 820
g Group60220
f 359 368 372 357
g Group18133
f 682 716 713 681
g Group18136
f 522 489 716 682
g Group60220
f 522 581 586 489
g Group18133
f 736 726 774 735
g Group60220
f 399 398 401 400
g Group18133
f 715 864 863 714
g Group18136
f 488 487 864 715
g Group60220
f 488 585 610 487
g Group18133
f 784 677 825 783
g Group60220
f 434 448 449 435
g Group18133
f 662 813 812 661
g Group18136
f 491 490 813 662
g Group60220
f 491 577 596 490
g Group18133
f 867 866 814 865
g Group18136
f 497 496 866 867
g Group60220
f 497 611 597 496
g Group18133
f 664 769 752 759
g Group60220
f 516 521 412 426
g Group18133
f 753 815 699 758
g Group60220
f 410 520 518 452
g Group18133
f 868 856 849 862
g Group18136
f 372 373 868 862
g Group60220
f 373 372 368 370
g Group18133
f 697 756 870 869
g Group60220
f 383 380 612 589
g Group18133
f 872 871 744 745
g Group60220
f 428 429 441 437
g Group18133
f 851 733 720 721
g Group60220
f 419 462 463 418
g Group18133
f 861 858 874 873
g Group18136
f 479 478 861 873
g Group60220
f 478 479 613 609
g Group18133
f 806 871 631 748
g Group60220
f 436 519 514 437
g Group18133
f 855 856 876 875
g Group60220
f 371 374 375 370
g Group18133
f 805 815 702 804
g Group60220
f 453 457 455 452
g Group18133
f 732 803 816 731
g Group60220
f 423 466 467 422
g Group18133
f 871 806 787 744
g Group60220
f 437 441 439 436
g Group18133
f 847 878 875 876
g Group60220
f 376 375 374 377
g Group18133
f 864 880 879 863
g Group18136
f 487 499 880 864
g Group60220
f 487 610 614 499
g Group18133
f 878 881 874 875
g Group60220
f 377 374 613 615
g Group18133
f 856 868 882 876
g Group18136
f 373 378 882 868
g Group60220
f 370 375 378 373
g Group18133
f 733 851 850 795
g Group60220
f 418 421 420 419
g Group18133
f 685 867 865 684
g Group18136
f 494 497 867 685
g Group60220
f 494 583 611 497
g Group18133
f 846 847 876 882
g Group18136
f 378 379 846 882
g Group60220
f 379 378 375 376
g Group18133
f 805 806 748 698
g Group60220
f 453 517 519 436
g Group18133
f 872 877 689 630
g Group18136
f 571 563 689 877
g Group60220
f 428 513 563 571
g Group18133
f 880 674 671 879
g Group18136
f 499 498 674 880
g Group60220
f 499 614 580 498
g Group18133
f 731 816 742 788
g Group60220
f 466 465 464 467
g Group18133
f 884 881 870 883
g Group18136
f 481 480 884 883
g Group60220
f 480 481 612 615
g Group18133
f 655 790 789 654
g Group60220
f 438 442 459 456
g Group18133
f 878 847 761 869
g Group60220
f 377 380 381 376
g Group18133
f 790 655 787 804
g Group60220
f 456 457 439 438
g Group18133
f 696 697 869 761
g Group60220
f 382 381 380 383
g Group18133
f 815 805 698 699
g Group60220
f 452 518 517 453
g Group18133
f 718 641 638 729
g Group18136
f 388 390 729 638
g Group60220
f 393 390 388 386
g Group18133
f 703 790 804 702
g Group60220
f 454 455 457 456
g Group18133
f 724 693 768 665
g Group60220
f 511 512 427 409
g Group18133
f 871 872 630 631
g Group60220
f 437 514 513 428
g Group18133
f 693 724 725 692
g Group60220
f 409 404 515 511
g Group18133
f 769 664 665 768
g Group60220
f 426 427 512 516
g Group18133
f 644 773 734 643
g Group60220
f 573 574 533 532
g Group18133
f 658 721 627 657
g Group60220
f 575 576 461 462
g Group18133
f 660 661 774 775
g Group60220
f 578 403 401 577
g Group18133
f 671 672 751 634
g Group60220
f 580 416 458 579
g Group18133
f 681 725 722 680
g Group60220
f 581 582 556 515
g Group18133
f 683 684 857 791
g Group60220
f 584 559 433 583
g Group18133
f 713 714 691 692
g Group60220
f 586 404 405 585
g Group18133
f 740 719 717 739
g Group60220
f 587 588 397 394
g Group18133
f 756 697 695 755
g Group60220
f 589 590 395 383
g Group18133
f 762 763 654 789
g Group60220
f 592 459 442 591
g Group18133
f 780 786 653 779
g Group60220
f 593 594 443 431
g Group18133
f 672 762 789 751
g Group60220
f 579 458 459 592
g Group18133
f 763 764 778 779
g Group18136
f 510 495 778 764
g Group60220
f 591 594 495 510
g Group18133
f 680 722 773 644
g Group60220
f 582 573 532 556
g Group18133
f 799 851 721 658
g Group60220
f 595 575 462 419
g Group18133
f 812 643 734 735
g Group60220
f 596 398 533 574
g Group18133
f 814 866 656 657
g Group18136
f 496 476 656 866
g Group60220
f 597 576 476 496
g Group18133
f 740 741 754 755
g Group18136
f 484 483 754 741
g Group60220
f 587 590 483 484
g Group18133
f 821 683 791 792
g Group60220
f 598 367 559 584
g Group18133
f 660 775 850 824
g Group60220
f 578 599 420 403
g Group18133
f 828 854 738 739
g Group18136
f 486 485 738 854
g Group60220
f 600 588 485 486
g Group18133
f 830 831 827 829
g Group60220
f 602 363 362 601
g Group18133
f 831 834 826 827
g Group60220
f 601 362 361 603
g Group18133
f 838 839 836 837
g Group60220
f 605 365 364 604
g Group18133
f 839 830 829 836
g Group60220
f 604 364 363 602
g Group18133
f 834 842 845 826
g Group60220
f 603 361 366 606
g Group18133
f 842 821 792 845
g Group60220
f 606 366 367 598
g Group18133
f 799 800 823 824
g Group18136
f 501 500 823 800
g Group60220
f 595 599 500 501
g Group18133
f 828 782 785 853
g Group60220
f 600 607 567 396
g Group18133
f 858 859 848 855
g Group60220
f 609 371 369 608
g Group18133
f 780 781 852 853
g Group18136
f 493 564 852 781
g Group60220
f 593 607 564 493
g Group18133
f 859 838 837 848
g Group60220
f 608 369 365 605
g Group18133
f 681 713 692 725
g Group60220
f 581 515 404 586
g Group18133
f 714 863 844 691
g Group60220
f 585 405 406 610
g Group18133
f 661 812 735 774
g Group60220
f 577 401 398 596
g Group18133
f 865 814 628 770
g Group60220
f 611 447 445 597
g Group18133
f 756 757 883 870
g Group18136
f 482 481 883 757
g Group60220
f 589 612 481 482
g Group18133
f 858 855 875 874
g Group60220
f 609 613 374 371
g Group18133
f 863 879 635 844
g Group60220
f 610 406 417 614
g Group18133
f 881 884 873 874
g Group18136
f 480 479 873 884
g Group60220
f 615 613 479 480
g Group18133
f 684 865 770 857
g Group60220
f 583 433 447 611
g Group18133
f 879 671 634 635
g Group60220
f 614 417 416 580
g Group18133
f 881 878 869 870
g Group60220
f 615 612 380 377
g Group18136
f 429 428 872 745
f 566 429 745 777
f 428 571 877 872
f 677 784 434 435
f 668 677 435 569
f 784 793 570 434
g Group41005
f 936 935 1013 1014
f 906 911 933 934
f 912 1015 1016 905
f 940 939 981 982
f 926 915 939 940
f 926 983 984 915
f 944 943 985 986
f 922 923 943 944
f 922 987 988 923
f 948 947 989 990
f 902 991 990 945
f 914 928 947 948
f 914 991 992 928
f 950 949 993 994
f 916 917 949 950
f 916 995 996 917
f 937 938 1017 1018
f 908 909 951 952
f 910 1019 1020 907
f 956 955 1021 1022
f 894 895 955 956
f 894 1023 1024 895
f 939 950 994 981
f 915 916 950 939
f 915 984 995 916
f 938 936 1014 1017
f 911 908 952 933
f 907 1020 1015 912
f 954 997 998 953
f 920 919 957 958
f 886 887 999 1000
f 962 1025 1026 959
f 903 930 960 961
f 901 1027 1025 962
f 901 929 1028 1027
f 937 1018 1029 963
f 909 899 964 951
f 910 891 1030 1019
f 953 998 1001 965
f 919 921 966 957
f 887 888 1002 999
f 963 1003 982 937
f 924 926 940 967
f 891 910 983 1004
f 965 1031 1022 953
f 896 894 956 968
f 888 887 1023 1032
f 963 942 985 1003
f 923 924 967 943
f 891 1004 988 892
f 942 1033 1034 941
f 900 897 969 970
f 892 889 1035 1036
f 969 972 1037 1034
f 897 898 972 969
f 897 1035 1038 898
f 965 1001 1005 959
f 921 931 973 966
f 888 929 1006 1002
f 941 971 1007 986
f 913 922 944 974
f 889 987 1008 890
f 963 1029 1033 942
f 899 900 970 964
f 891 892 1036 1030
f 976 954 1021 1039
f 895 893 975 955
f 885 1040 1024 886
f 976 1009 997 954
f 925 920 958 977
f 885 886 1000 1010
f 945 946 1041 1042
f 904 1043 1042 978
f 932 904 978 979
f 902 1043 1044 927
f 976 935 993 1009
f 917 925 977 949
f 885 1010 996 905
f 975 934 1013 1039
f 893 906 934 975
f 893 1040 1016 906
f 947 974 1007 989
f 928 913 974 947
f 928 992 1008 913
f 959 1026 1031 965
f 930 896 968 960
f 929 888 1032 1028
f 959 1005 1011 962
f 918 1012 1011 980
f 931 918 980 973
f 929 901 1012 1006
f 946 971 1037 1041
f 898 932 979 972
f 927 1044 1038 890
f 982 981 938 937
f 983 910 907 984
f 986 985 942 941
f 987 889 892 988
f 990 989 946 945
f 991 914 948 990
f 991 902 927 992
f 994 993 935 936
f 995 912 905 996
f 981 994 936 938
f 984 907 912 995
f 997 958 957 998
f 1000 999 919 920
f 998 957 966 1001
f 999 1002 921 919
f 1003 967 940 982
f 1004 983 926 924
f 1003 985 943 967
f 1004 924 923 988
f 1001 966 973 1005
f 1002 1006 931 921
f 986 1007 974 944
f 987 922 913 1008
f 1009 977 958 997
f 1010 1000 920 925
f 1009 993 949 977
f 1010 925 917 996
f 989 1007 971 946
f 992 927 890 1008
f 1005 973 980 1011
f 1012 901 962 1011
f 1006 1012 918 931
f 1014 1013 934 933
f 1015 911 906 1016
f 1018 1017 952 951
f 1019 909 908 1020
f 1022 1021 954 953
f 1023 887 886 1024
f 1017 1014 933 952
f 1020 908 911 1015
f 1025 961 960 1026
f 1027 903 961 1025
f 1027 1028 930 903
f 1018 951 964 1029
f 1019 1030 899 909
f 1031 968 956 1022
f 1032 1023 894 896
f 1033 970 969 1034
f 1036 1035 897 900
f 1034 1037 971 941
f 1035 889 890 1038
f 1029 964 970 1033
f 1030 1036 900 899
f 1039 1021 955 975
f 1040 893 895 1024
f 1042 1041 979 978
f 1043 902 945 1042
f 1043 904 932 1044
f 1039 1013 935 976
f 1040 885 905 1016
f 1026 960 968 1031
f 1028 1032 896 930
f 1041 1037 972 979
f 1044 932 898 1038

 