# File exported by ZBrush version 2021
# www.zbrush.com
#Vertex Count 1490
#Face Count 1485
#Auto scale x=0.047110 y=0.047110 z=0.047110
#Auto offset x=-0.029091 y=0.022900 z=-0.434581
v 0.18581639 -6.35594356 -3.0393152
v 0.3261642 -6.35520088 -1.78253625
v -0.61539771 -6.34906586 -1.63077397
v -0.81228784 -6.34615777 -2.81545097
v 1.93457554 -5.73062475 21.08379238
v 2.65299258 -5.78551696 20.40532958
v 3.00208695 -5.72557276 21.17885795
v 1.65394555 -5.60252132 22.40919648
v 0.03941992 -6.16781083 3.8890252
v 0.94861237 -6.18101396 3.80885499
v 1.02755274 -6.1539713 4.89135245
v 0.11366996 -6.13599199 4.9585324
v 0.73653473 -6.24516089 1.61459126
v 0.85010164 -6.21236594 2.71602864
v -0.05987999 -6.2053187 2.80155956
v -0.1772821 -6.24354774 1.70142788
v 4.11463448 -6.03026132 16.02813022
v 3.76196841 -5.96704812 17.63796175
v 2.62686894 -5.92987996 18.0048621
v 2.8622863 -6.00243296 16.31232992
v 3.24791401 -5.87193132 19.31614515
v 2.36177758 -5.82714278 19.80141122
v 1.77426239 -6.22302156 2.64250586
v 2.70675115 -6.2390904 2.58098868
v 2.81749097 -6.212111 3.6926591
v 1.87704726 -6.19521471 3.74292348
v 4.14172237 -5.91854492 19.27266611
v 1.53818735 -6.28462161 0.42919056
v 2.4736787 -6.29156257 0.35466573
v 2.5942372 -6.26413781 1.45853738
v 1.66161614 -6.25140155 1.53510047
v 1.00204277 -5.72141211 21.40507041
v 0.83947248 -5.60320042 22.77665984
v 0.60992801 -6.28194695 0.50902043
v -0.04508688 -5.6154907 22.91980096
v -0.02801458 -5.73898813 21.47765315
v -1.11099812 -5.78547458 21.24990471
v -1.07047635 -5.64879553 22.74024195
v -0.30814053 -6.28220189 0.60163148
v -2.15736094 -5.87373551 20.61674159
v -2.44480591 -5.76692245 21.9452075
v -3.71115873 -6.07988929 19.62644114
v -2.80959303 -5.99708428 19.45226055
v 1.96771201 -6.16953026 4.83221829
v 1.43671783 -5.9247432 18.1891821
v 1.62089653 -5.99612904 16.49068318
v 1.23051348 -5.82932907 19.90344747
v -0.8394197 -6.08523861 8.16866368
v -1.70072648 -6.08835926 8.02879139
v -1.59202477 -6.0694671 6.9833566
v -0.75304979 -6.07398834 7.07090838
v -0.45190691 -6.32159872 -0.5019403
v -1.35439312 -6.32164111 -0.37314922
v -1.52029511 -6.34100013 -1.41802084
v 0.08379888 -5.84919734 19.93488548
v 0.22728078 -5.94059948 18.25083086
v 0.38233394 -6.00733693 16.567889
v -0.96896326 -5.97407448 18.18801304
v -0.84465752 -6.0332118 16.54834526
v -1.05539834 -5.88980371 19.79972975
v -2.10042415 -6.02232274 18.03261834
v -2.08683639 -5.94762584 19.5346588
v 2.84992596 -6.34543596 -2.65840516
v 3.0991729 -6.34337746 -1.79420911
v 2.18664919 -6.34976679 -1.82415416
v 2.04676188 -6.35239843 -2.9364458
v -2.04681866 -6.07165339 16.45050129
v -0.95311774 -6.20198613 2.90185805
v -0.84540226 -6.15399218 3.98968174
v -1.56313964 -6.07178118 6.07762361
v -0.73126583 -6.08309471 6.04854618
v 4.33692478 -6.07364926 14.49855841
v 3.03419299 -6.05310157 14.72670254
v -1.70340035 -6.1453318 4.12911832
v -1.82853813 -6.20056403 3.02511508
v 2.92658711 -6.18419787 4.78569357
v 3.42223156 -6.30973292 0.25674711
v 3.53139286 -6.28969448 1.36786843
v 1.77544576 -6.04601195 14.88522991
v 0.53664207 -6.05246454 14.96568227
v -2.23097545 -6.32932474 -0.2756671
v -2.32981546 -6.33458929 -1.25964149
v 0.4717937 -6.32365786 -0.61347008
v -0.69091922 -6.07091071 14.968987
v -1.91698995 -6.09946087 14.90546952
v 1.26540319 -6.35528565 -1.84069303
v 1.14506425 -6.35832089 -3.06699047
v -2.3447611 -6.32684176 -2.09725036
v -1.78234046 -6.33484423 -2.40797905
v 1.08012831 -6.13304152 5.96986797
v 0.15292102 -6.11315174 6.01593848
v -2.63560507 -6.14299685 11.89262795
v -2.25427213 -6.12714057 10.51486476
v -1.22362278 -6.11727001 10.63946181
v -1.47988231 -6.12155781 11.99581523
v 3.63801234 -6.26509305 2.53718448
v 3.75830847 -6.23369869 3.66639708
v -1.97572429 -6.26392589 1.86399382
v -1.07935214 -6.24847258 1.79026354
v 3.19255557 -6.1176521 11.80756879
v 4.43280609 -6.14639268 11.60514249
v 4.43315751 -6.1121965 13.02959946
v 3.1416676 -6.09014195 13.2276252
v 3.0246158 -6.15961731 5.8519729
v 2.0399019 -6.14823989 5.91320604
v -0.76442452 -6.10899172 5.03907933
v 1.99164415 -6.10330269 11.9485551
v 1.89885304 -6.08042005 13.37484347
v 0.68356457 -6.08207558 13.45520157
v -3.13473313 -6.08368936 17.85896787
v -3.23839518 -6.12230049 16.30121123
v 0.81828003 -6.10028832 12.02664815
v -0.335535 -6.10661438 12.04182786
v -0.51774162 -6.09404766 13.46855115
v -1.72152484 -6.11497744 13.42085674
v 1.40349342 -6.32403995 -0.68659685
v 3.18929053 -6.13745648 9.19650126
v 4.30186036 -6.15825911 8.98404964
v 4.37654904 -6.16326809 10.24739291
v 3.20379888 -6.13316867 10.46103398
v 4.22432274 -6.14575628 7.82719617
v 3.15562796 -6.13768991 8.01583909
v -3.17595661 -6.13571555 14.79142703
v -2.96199425 -6.14314551 13.32358116
v 2.33596044 -6.32386978 -0.73159288
v 2.09405601 -6.12329811 9.33420216
v 2.05625145 -6.1169303 10.60320983
v 2.10468491 -6.12716144 8.1380381
v 0.93520005 -6.10996783 10.68003751
v 1.02525152 -6.11374639 9.40774454
v 1.08128965 -6.11580489 8.20621836
v -0.0094301 -6.10729317 9.41841242
v -0.15863191 -6.11015888 10.69274451
v 0.09515128 -6.10287821 8.22001993
v 3.89600411 -6.19816519 4.77009792
v -0.99791371 -6.10124356 9.35980513
v -1.60116372 -6.09285899 5.15708668
v 4.13760252 -6.14524639 6.78213842
v 3.10162773 -6.143124 6.91056891
v 3.27618582 -6.32962207 -0.78421562
v 4.02973395 -6.16494513 5.80237244
v 2.08675763 -6.13357228 7.00316225
v 1.09943589 -6.12066584 7.0654142
v -1.92113257 -6.10778154 9.2193098
v 0.1486034 -6.10294147 7.09169741
v -2.11600587 -6.30637884 0.75506385
v -1.21400194 -6.28840017 0.69433869
v 5.45039466 -6.08039917 15.68571933
v 4.99345164 -6.04187218 17.17376907
v -2.44881695 -6.12871133 7.77459321
v -2.30783428 -6.09977907 6.77832506
v 3.39705034 -6.32529188 -3.23692374
v 4.0799202 -6.33514093 -1.90891077
v -2.28122781 -6.11741867 6.08602526
v 5.73227301 -6.10179582 14.24230378
v -2.5452461 -6.20083985 4.32506689
v -2.70040896 -6.2153588 3.20116313
v 4.42011727 -6.34745271 0.08643934
v 4.48647769 -6.33624483 1.22473237
v -3.13460186 -6.35050947 -0.21924747
v -3.21722342 -6.32584414 -1.23519252
v -2.9084536 -6.29716683 -2.61306752
v -3.84423129 -6.17050637 11.73387489
v -3.26449652 -6.17978291 10.33339702
v 4.56984478 -6.31196159 2.53795879
v 4.68963576 -6.26337363 3.66354529
v -2.89646698 -6.29994713 1.88217493
v 5.73547242 -6.19485349 11.33495217
v 5.81561764 -6.14093771 12.79116757
v -4.27579349 -6.18464386 17.60093657
v -4.52920266 -6.19122423 16.10892291
v 5.4293548 -6.18967434 8.68659454
v 5.58438639 -6.21792718 9.94880544
v 5.29520934 -6.14864286 7.56244358
v -4.55296083 -6.17443359 14.64894825
v -4.30301139 -6.16388361 13.1923574
v 4.86936526 -6.21183518 4.81990588
v -2.36005848 -6.13454839 5.33842332
v 5.17469402 -6.12796801 6.59525256
v 4.25340524 -6.34690108 -0.87331444
v 5.04662095 -6.15804655 5.79618018
v -2.74702351 -6.14679628 8.98659857
v -3.06433985 -6.34658225 0.73824031
v 2.00023479 -6.32775461 -4.18262986
v 1.08172813 -6.33365557 -4.43304838
v 0.09355161 -6.32616234 -4.47030131
v -1.02817918 -6.31149473 -4.16133127
v -2.44186999 -6.29967132 -3.28382518
v -0.60799021 -4.97302067 -1.64323379
v 0.32927623 -4.97917656 -1.79737973
v 0.19727823 -4.97991956 -3.02879369
v -0.79102958 -4.97026124 -2.80301393
v 3.0285174 -4.35322104 21.08985022
v 2.67276042 -4.41276196 20.32104363
v 1.92197386 -4.35820914 20.99272489
v 1.63200842 -4.23110333 22.30801234
v 1.05073939 -4.77841385 4.8653539
v 0.96640793 -4.80552041 3.77779528
v 0.05679888 -4.79248713 3.85143319
v 0.14450549 -4.76066829 4.92805849
v -0.05617624 -4.82995261 2.76283393
v 0.8603582 -4.83685119 2.68306226
v 0.73944949 -4.86966765 1.58013319
v -0.18293641 -4.86816046 1.66368279
v 2.63699428 -4.55500225 17.95295927
v 3.80750848 -4.59231907 17.59619581
v 4.15005 -4.65491674 15.99925932
v 2.8731132 -4.627046 16.27405723
v 3.28771381 -4.49815718 19.2505173
v 2.36708072 -4.45338984 19.72905749
v 2.84446926 -4.83672372 3.6622611
v 2.73600873 -4.86368192 2.55261122
v 1.79175103 -4.84746443 2.61310737
v 1.89788871 -4.81969996 3.71416393
v 4.20050131 -4.54528035 19.21024051
v 2.61935215 -4.88862307 1.43094941
v 2.48877839 -4.91598456 0.32454987
v 1.54204443 -4.90914956 0.39407078
v 1.67285874 -4.87582354 1.50409769
v 0.96851186 -4.34946368 21.31427368
v 0.7965617 -4.23235589 22.67670549
v 0.60815284 -4.90655967 0.47150434
v -0.0624441 -4.36686953 21.38991316
v -0.07885905 -4.24403064 22.82426474
v -1.1547419 -4.41356853 21.16216473
v -1.10946452 -4.27752652 22.64379731
v -0.31644665 -4.90681461 0.56433933
v -2.23524902 -4.50280589 20.53154974
v -2.52804268 -4.39669312 21.85323917
v -2.91430584 -4.62621792 19.39000828
v -3.83533146 -4.71046718 19.56605885
v 1.98846641 -4.79393074 4.80661323
v 1.42269184 -4.55005653 18.13512462
v 1.61245906 -4.62080534 16.45076825
v 1.20995654 -4.4557463 19.83164095
v -1.62717776 -4.69316729 6.98632037
v -1.74247613 -4.71254719 8.04210238
v -0.82905318 -4.70919342 8.18067181
v -0.72859211 -4.69798585 7.07257024
v -1.36401443 -4.94585054 -0.39780822
v -0.45532606 -4.9459992 -0.53347067
v -1.51251516 -4.96491224 -1.42504024
v 0.19760707 -4.56608267 18.19809553
v 0.04998326 -4.47576292 19.8644941
v 0.35905954 -4.63211919 16.52972892
v -1.01380241 -4.59979079 18.13841037
v -0.88143204 -4.65812184 16.51396436
v -1.10378798 -4.51664542 19.73109701
v -2.16448409 -4.64846384 17.9889647
v -2.15799607 -4.57516784 19.4688399
v 2.18011848 -4.97374247 -1.83676834
v 3.09257687 -4.96726838 -1.79741768
v 2.83164854 -4.96951825 -2.64788365
v 2.03214409 -4.97641713 -2.92638736
v -2.09792567 -4.69679719 16.42284373
v -0.95831223 -4.82693825 2.85527797
v -0.83420339 -4.77894461 3.94289037
v -1.59559646 -4.69535358 6.06036548
v -0.69911542 -4.70743162 6.03113874
v 4.36122952 -4.69809181 14.47235363
v 3.04539265 -4.67748055 14.69732176
v -1.86345041 -4.825686 2.97775943
v -1.74460216 -4.77000809 4.08342515
v 2.94646455 -4.80868312 4.75639029
v 3.58079183 -4.91466842 1.34390783
v 3.45810762 -4.93426056 0.23490195
v 1.77222429 -4.67032735 14.85613445
v 0.52040257 -4.67682264 14.93881421
v -2.32122435 -4.95843814 -1.25329771
v -2.2526049 -4.95330106 -0.28565343
v 0.46988703 -4.94814311 -0.6474208
v -0.71886136 -4.69535358 14.94576149
v -1.9552114 -4.72403089 14.8876452
v 1.26174328 -4.97926133 -1.85572375
v 1.14122907 -4.982233 -3.05743811
v -2.314365 -4.95117835 -2.08082537
v -1.75479235 -4.95907486 -2.39415786
v 1.10487108 -4.75733572 5.95215815
v 0.19055003 -4.73767969 5.99817109
v -1.23666269 -4.7412672 10.64529618
v -2.294597 -4.75143477 10.51743259
v -2.66775476 -4.76726986 11.88743615
v -1.50179817 -4.74566097 11.99239662
v 3.7975598 -4.85879947 3.62801179
v 3.68892324 -4.89030011 2.50567182
v -2.01580766 -4.88930248 1.81767691
v -1.09723513 -4.87331873 1.74842042
v 4.45800945 -4.73670326 13.00161738
v 4.46905476 -4.77096333 11.5827498
v 3.21401089 -4.74186154 11.79082149
v 3.15659221 -4.71441527 13.20400526
v 3.03649457 -4.78384794 5.82916522
v 2.05826773 -4.77247052 5.89400359
v -0.73812549 -4.7337104 5.00243086
v 2.0000594 -4.72736346 11.93477156
v 1.9012639 -4.70456591 13.35394121
v 0.67416276 -4.70620056 13.43709448
v -3.3076697 -4.74780487 16.28786197
v -3.2298474 -4.71087046 17.82881532
v 0.81554061 -4.72428583 12.01582805
v -0.34864015 -4.73063246 12.03444502
v -0.53796977 -4.71823622 13.45363366
v -1.75069385 -4.73927165 13.40948943
v 1.40169635 -4.9484825 -0.71943166
v 4.42086185 -4.78779604 10.24178533
v 4.33729834 -4.7825957 8.9936224
v 3.21151304 -4.76155995 9.19601035
v 3.229177 -4.75733572 10.45357642
v 4.23720861 -4.76971077 7.83658026
v 3.16991601 -4.7617083 8.01436623
v -2.99307072 -4.76746091 13.31623565
v -3.22018244 -4.76030739 14.7836485
v 2.3389193 -4.9481643 -0.75947944
v 2.10926514 -4.74733801 9.33101121
v 2.06940065 -4.74096988 10.59595968
v 2.1200914 -4.75120134 8.13407308
v 0.93925442 -4.73392264 10.67531747
v 1.09851549 -4.7398663 8.20425443
v 1.03614354 -4.73774359 9.4065739
v -0.00086105 -4.73126917 9.42349147
v -0.16262033 -4.7340925 10.69291453
v 0.11796548 -4.72698137 8.22447665
v 3.91612321 -4.82290506 4.73057963
v -1.00036822 -4.72521956 9.3713415
v -1.64212388 -4.71683499 5.11924986
v 4.13315371 -4.76911675 6.7724336
v 3.11078818 -4.76714239 6.89937209
v 3.2910448 -4.95366197 -0.80060392
v 4.03012806 -4.78926084 5.77065198
v 2.10284371 -4.75765424 6.99272108
v 1.12172404 -4.74481201 7.05725737
v -1.96509476 -4.73211845 9.22833504
v 0.18287971 -4.7272575 7.0877694
v -1.23412025 -4.91301257 0.65990086
v -2.15703198 -4.93116142 0.72681417
v 5.05878218 -4.66775897 17.1397437
v 5.49919961 -4.7053301 15.66423349
v -2.38442901 -4.72562285 6.77974084
v -2.52595983 -4.75474615 7.78616722
v 4.07275435 -4.95905367 -1.90462676
v 3.37522289 -4.94952282 -3.22066575
v -2.36360961 -4.74383559 6.0681826
v 5.76212254 -4.72630227 14.2187958
v -2.75962503 -4.84124496 3.15749051
v -2.63203116 -4.82793587 4.28516967
v 4.55106269 -4.96183429 1.20276954
v 4.46881279 -4.97232038 0.06969045
v -3.20729561 -4.94981983 -1.2191977
v -3.16381499 -4.97457024 -0.21930693
v -2.87198606 -4.92177923 -2.59154625
v -3.32702207 -4.80501084 10.33005504
v -3.88291074 -4.79497074 11.72475508
v 4.73712648 -4.88896278 3.61911734
v 4.63486818 -4.93786926 2.50361206
v -2.95145249 -4.92593989 1.83387922
v 5.84401977 -4.76559282 12.76024039
v 5.77943382 -4.81972115 11.30851855
v -4.6090202 -4.81721635 16.10556124
v -4.39073998 -4.81316198 17.58041228
v 5.64040211 -4.84285842 9.94457568
v 5.4736246 -4.81435064 8.70351233
v 5.30739302 -4.77266156 7.58013505
v -4.33216031 -4.78815694 13.1871637
v -4.59845693 -4.79902512 14.64798542
v 4.88998791 -4.83687238 4.7731939
v -2.45775853 -4.76223906 5.30226448
v 5.16097626 -4.75181686 6.58703911
v 4.27575902 -4.97096185 -0.88173696
v 5.03938804 -4.7825957 5.7580397
v -2.82208448 -4.77268275 8.99090353
v -3.11868991 -4.97172604 0.71410764
v 1.98110224 -4.95204882 -4.16108329
v 1.07765181 -4.95777992 -4.4120914
v 0.10959372 -4.95041416 -4.44824865
v -0.99966713 -4.93600118 -4.13733271
v -2.40395598 -4.92436912 -3.26029728
v 0.58790969 5.24793529 6.84906944
v 0.26154844 5.28820196 6.87103891
v 0.56776551 4.93494694 6.96418199
v 0.24030045 4.97572348 6.98680969
v 0.50988016 4.2199024 8.01201926
v 0.17657773 4.26362942 8.02050994
v 0.21166556 4.6405104 7.44227208
v 0.54447977 4.59801443 7.42210664
v 0.24949163 5.17578527 7.09699771
v 0.57593781 5.13428692 7.07305403
v 0.24620148 4.9939571 7.16952951
v 0.5745793 4.95247962 7.14598912
v 0.19750731 4.4085235 8.06657207
v 0.53021539 4.36301316 8.05712615
v 0.55744931 4.66808381 7.58315401
v 0.22365867 4.7104735 7.60314959
v -0.1335875 5.02486308 7.99166277
v 0.88039307 4.91087563 7.92887405
v -0.09966714 5.30189346 7.51000668
v 0.91280632 5.1810922 7.44284522
v 0.84972043 4.55611311 8.30917253
v -0.15946292 4.65063526 8.37249192
v 0.92946933 5.26224169 6.97566569
v -0.0789923 5.38612121 7.04131996
v 0.91932293 5.05676669 6.84771092
v -0.08682499 5.18126174 6.91342892
v 0.87824918 4.34855747 7.72070336
v -0.15396517 4.48782641 7.76084319
v 0.82919415 4.14756132 8.19940898
v -0.16383565 4.26384198 8.23891194
v -0.11548111 4.85908224 7.22276619
v 0.90034622 4.7313609 7.15503176
v -0.17926745 4.29470558 8.60653803
v 0.83641124 4.23465478 8.54186012
v -0.14078339 4.97788826 7.85538701
v 0.86963111 4.86328528 7.79136724
v -0.11414378 5.20168227 7.46823235
v 0.89580369 5.080838 7.40177151
v 0.84069905 4.51646134 8.15436583
v -0.16612814 4.61181157 8.22021114
v 0.91214829 5.14067624 7.10090342
v -0.09463641 5.26527757 7.1681498
v 0.91594788 5.01849527 7.01777957
v -0.0913675 5.14456108 7.08638447
v 0.89194043 4.43728558 7.80346647
v -0.14018906 4.57668167 7.8433939
v 0.84623924 4.27967675 8.22490239
v -0.14498627 4.39370722 8.26355623
v -0.10987725 4.89890355 7.35832031
v 0.90928268 4.77167058 7.29079795
v -0.18419206 4.24887704 8.44776197
v 0.83118947 4.18738327 8.38270195
v 0.82779318 4.00472702 8.74614637
v -0.20189515 4.04459071 8.77775304
v 0.83157155 3.94497354 8.57866729
v -0.19979371 3.98560143 8.60723857
v 0.47723342 1.93097925 12.40041607
v -0.57344823 2.10569692 12.40716629
v 0.4854694 1.84233654 12.22896771
v -0.56735616 2.01938916 12.23253402
v 0.22444405 0.74775788 15.00415296
v 0.34477851 1.33378613 13.6545988
v 0.69635716 2.98607631 10.3442871
v 0.55526295 2.26918519 11.73355669
v -0.82564327 0.92820696 15.00171174
v -0.70129689 1.53726588 13.65621195
v -0.35837881 3.08875023 10.32450376
v -0.50008858 2.42310024 11.731158
v 0.22730968 0.65355392 14.83264071
v 0.35053095 1.24030334 13.48622807
v 0.70760733 2.90303723 10.1730509
v 0.56615228 2.18147621 11.55903038
v -0.82260787 0.84037019 14.82737679
v -0.69616004 1.4466273 13.48472088
v -0.35014283 3.0073458 10.14980767
v -0.49217096 2.33719608 11.55310808
v -0.09639822 -0.70699588 18.59172855
v -1.08477943 -0.56409736 18.58459591
v -0.1093253 -0.81045518 18.52857861
v -1.09740925 -0.65904463 18.52276243
v 0.40954131 1.63081193 13.01769002
v -0.63625815 1.82569456 13.02397306
v 0.4160367 1.53890054 12.84900108
v -0.63103637 1.73669126 12.85195156
v 0.09466374 0.13901716 16.54404733
v 0.28685072 1.03968929 14.31451706
v 0.77060833 3.52723126 9.45743354
v 0.63380193 2.6323753 11.01360898
v -0.95510523 0.31345901 16.53952609
v -0.76259977 1.23597315 14.30621758
v -0.2719647 3.5870056 9.45042871
v -0.42284441 2.76599759 10.99505685
v 0.09116131 0.05075654 16.39365591
v 0.29243335 0.94429667 14.14461827
v 0.7809033 3.45126028 9.28878701
v 0.64530682 2.54445376 10.83859446
v -0.9596902 0.22749033 16.3862057
v -0.75663508 1.14556863 14.13334681
v -0.26574523 3.51145974 9.27749437
v -0.41384432 2.68019908 10.81670959
v -0.02571315 -0.51667687 18.08508798
v 0.0325967 -0.19245943 17.32593496
v 0.15690054 0.44576485 15.75585578
v -1.07690427 -0.33542184 18.0621212
v -1.01558019 -0.00165236 17.29655672
v -0.89288949 0.61466634 15.76292452
v -0.0417606 -0.60841903 18.00281372
v 0.02408479 -0.28074156 17.22192371
v 0.15666707 0.35482957 15.58304858
v -1.09481968 -0.42223917 17.98039794
v -1.02615104 -0.08989179 17.19027441
v -0.89431175 0.52954725 15.58767609
v 0.21117735 4.99457262 7.99087739
v 0.54082876 4.95740446 7.9700115
v 0.24615902 5.27542394 7.4973555
v 0.57496138 5.23613276 7.47500377
v 0.50949808 4.593769 8.35077692
v 0.18158726 4.62488755 8.3720249
v 0.59126352 5.31999992 6.98774373
v 0.26424421 5.36039437 7.01003172
v 0.57907937 5.1063953 6.8506614
v 0.25267566 5.14674736 6.87292819
v 0.19294357 4.43161806 7.74040178
v 0.52826253 4.38716923 7.72713507
v 0.16821439 4.21228202 8.22494478
v 0.49092468 4.17517776 8.21248464
v 0.55691864 4.7730503 7.16122987
v 0.22703374 4.81439999 7.18383638
v 0.16176149 4.28012274 8.60384226
v 0.49160393 4.2601697 8.58214853
v 0.53004557 4.89824564 7.79773522
v 0.20162531 4.93568962 7.81930156
v 0.55660024 5.11295416 7.4210241
v 0.2283498 5.15239338 7.44382165
v 0.17311777 4.57704226 8.18096297
v 0.50017954 4.54573267 8.15886587
v 0.2460529 5.21293191 7.16356483
v 0.57300852 5.17187955 7.13976965
v 0.25002231 5.10047284 7.0905448
v 0.57689301 5.05897449 7.06664351
v 0.54518025 4.49529812 7.83025467
v 0.2097127 4.54085084 7.84388212
v 0.51196038 4.33096089 8.24294512
v 0.18973831 4.36836248 8.25623302
v 0.23660698 4.86273301 7.35938166
v 0.56765938 4.82132007 7.3366053
v 0.48595762 4.20404612 8.38754171
v 0.15624252 4.22459318 8.40940522
v 0.92696456 5.19325469 6.84537597
v -0.07950178 5.31692229 6.90975664
v 0.90945249 4.89037032 6.95887537
v -0.09934878 5.01628747 7.02644011
v 0.85929368 4.18472948 8.00388947
v 0.89045455 4.55802295 7.41578105
v -0.13405452 4.6897354 7.47629856
v -0.16672247 4.32283063 8.03040169
v 0.91497145 5.10026028 7.02671592
v -0.09079436 5.2256258 7.09430201
v 0.91431342 4.90554782 7.09788937
v -0.09739592 5.0323348 7.1668762
v 0.90159861 4.61590833 7.54360851
v 0.87517129 4.30277131 8.04052672
v -0.14867974 4.44180682 8.0675485
v -0.12530905 4.74630433 7.60302228
v 0.1424876 4.03658824 8.78611634
v 0.47693625 4.02351226 8.77524824
v 0.48107547 3.9527002 8.57142901
v 0.1461386 3.96651885 8.58157539
v 0.12302265 2.00007252 12.41884105
v -0.21819734 2.0576182 12.4215369
v -0.20977031 1.95352218 12.21328128
v 0.13231999 1.89512754 12.21158305
v -0.12940581 0.82351629 15.02372391
v -0.47037111 0.87997958 15.02298123
v -0.00762796 1.41370456 13.6728748
v -0.34725593 1.48065393 13.67376646
v -0.00249112 3.06261979 10.34974238
v 0.34044826 3.02952751 10.3557708
v -0.14360656 2.38153863 11.74850028
v 0.19941775 2.33123123 11.74883983
v -0.46623188 0.77329367 14.81455576
v -0.12524539 0.71328589 14.81610501
v -0.34027235 1.37135725 13.46905565
v -0.00041087 1.30315596 13.46909804
v 0.35269609 2.93088646 10.14772743
v 0.00897134 2.96504088 10.14093489
v 0.21121981 2.2271776 11.53759135
v -0.13271719 2.27824918 11.53619028
v -0.40104456 -0.66341752 18.67988289
v -0.75975541 -0.61251579 18.67614735
v -0.77567543 -0.73433618 18.59809637
v -0.41630658 -0.79107528 18.6026815
v -0.15927187 -0.74030071 18.71393103
v -1.03555458 -0.62041199 18.70333867
v -0.16585216 -0.85159263 18.66684993
v -1.04166777 -0.7238501 18.65629995
v 0.05719849 1.706719 13.03613619
v -0.28228092 1.77109936 13.03872576
v -0.27514868 1.66375617 12.83359047
v 0.06492503 1.59839907 12.83201971
v -0.25778522 0.21294987 16.56094425
v -0.59892029 0.26692954 16.55947913
v -0.06695672 1.1187379 14.33118023
v -0.40773097 1.18243947 14.32867543
v 0.07812808 3.57339951 9.47167667
v 0.41707682 3.55418915 9.47345971
v -0.06606522 2.73082468 11.01861843
v 0.27748972 2.68752213 11.02420118
v -0.60407841 0.16361922 16.37635602
v -0.26266736 0.1090449 16.3786062
v -0.39989828 1.07301563 14.1222452
v -0.05923022 1.00655464 14.12562015
v 0.42758406 3.46346579 9.26787867
v 0.08755276 3.48352511 9.2651404
v 0.29020454 2.58374431 10.81220955
v -0.05394472 2.62798122 10.80571426
v -0.37173045 -0.43932682 18.11187633
v -0.71329 -0.37885154 18.10378909
v -0.31915176 -0.11483325 17.3293523
v -0.65975615 -0.05140781 17.31937546
v -0.53719293 0.57004798 15.78120052
v -0.19618517 0.51882773 15.77875929
v -0.73421962 -0.48551594 18.00525431
v -0.39176849 -0.54883542 18.01274754
v -0.67157949 -0.1563104 17.19314012
v -0.33031702 -0.21901435 17.20381725
v -0.19690689 0.4125663 15.56961265
v -0.53827548 0.4665251 15.57139533
v -0.40552341 -0.75314294 18.8540483
v -0.78777466 -0.7012224 18.84562135
v -0.7924871 -0.81102832 18.80329555
v -0.40966263 -0.86685458 18.81322937
v 1.38921945 4.11519085 7.82331339
v 1.40259236 4.81006979 6.98356204
v 0.27829633 5.15101366 7.40400018
v 3.92628319 1.02018224 2.56239068
v 2.33934995 4.1691914 6.21795565
v 4.0770779 0.17860503 3.2911476
v 4.10558536 -0.25062095 1.06575648
v 4.31103916 -1.70745504 -0.6191376
v 4.32636469 -1.94763577 -0.73855978
v 0.2373287 4.48782641 8.23090946
v 3.04997921 2.7196383 6.18000211
v 2.33803397 3.47669043 7.08260607
v 3.05038249 3.39957318 5.29372177
v 4.23859212 -0.93777324 1.91433854
v 4.41203604 -2.41621621 0.10000305
v 4.40736614 -2.51995133 -0.16089458
v 1.35440759 4.05131975 7.61749884
v 1.36722855 4.74511566 6.77500926
v 0.23779568 4.42308483 8.02435192
v 0.28039777 5.09321305 7.18763597
v 3.80796522 0.98893655 2.48262091
v 2.96702505 2.6769089 6.03714629
v 2.27741034 3.42506658 6.89965265
v 2.27670989 4.10340982 6.02818858
v 2.96783162 3.34909624 5.14205659
v 3.95727394 0.15156237 3.22137554
v 3.98854115 -0.27002204 1.02644441
v 4.11900073 -0.95320504 1.8774677
v 4.19155372 -1.71583961 -0.64233844
v 4.29142552 -2.42347601 0.09490867
v 4.21290767 -1.94648949 -0.73297703
v 4.29312375 -2.52041851 -0.14947477
v 4.32630111 -1.70592666 0.97855737
v 4.21651637 -1.00406438 0.18495261
v 4.20649747 -1.71571245 0.95597206
v 4.09845304 -1.0172887 0.15098987
v 4.21560352 -0.40544884 2.57362008
v 4.03330818 0.35224032 1.78307207
v 4.0960757 -0.42671802 2.52174192
v 3.91798339 0.32780779 1.72431622
v 3.7771652 1.77487792 3.40309743
v 3.51512095 2.57735499 4.32268292
v 3.55008132 1.84932051 5.16491772
v 3.85623468 0.98021227 4.18543041
v 3.42131997 2.53441366 4.19702039
v 3.67355723 1.73953546 3.30038112
v 3.74509142 0.94661012 4.09230885
v 3.45048534 1.80811886 5.04868008
v -2.39154045 -1.50546128 0.74572088
v -2.26785229 -0.1214987 0.53264702
v -2.17388145 -0.95732299 -0.01659516
v -1.79596032 0.50553983 -0.55775011
v -1.81784518 -0.40389927 -0.89245331
v -1.26522804 1.05234079 -1.50516364
v -1.36200069 0.02513598 -1.66355816
v -0.09493358 1.82620444 -3.01334544
v -0.17776035 0.77316651 -3.1730773
v 0.53240174 0.99965606 -3.58114008
v 4.37658731 -2.84200367 3.86403661
v 4.38495068 -3.04936779 2.84954656
v 4.15215689 -0.94371657 2.19257845
v 4.20908704 -1.60781668 1.42028557
v 3.60030394 0.80746896 -0.36518091
v 3.71494962 -0.16518334 -0.58708533
v 3.12904884 1.42648321 -1.43681304
v 3.27744503 0.41358543 -1.59792398
v 2.51449194 1.85163395 -2.30946704
v 1.28353148 1.08229154 -3.58029112
v 4.22305436 -4.0182629 3.5742491
v 4.31398964 -1.83262919 3.03982318
v -0.77391362 0.43759284 -2.4834414
v -1.92862753 -4.94788817 3.70247968
v 3.78737515 -4.9819148 5.2684406
v 3.89614107 -0.01179874 0.95102571
v 3.93035844 -0.08231411 2.76300473
v 3.88947593 0.07026359 2.82632421
v 0.59635794 2.04982828 -3.39963011
v 1.25546973 2.11802958 -3.38615053
v 3.98654591 -0.78914362 0.32736307
v 2.68313849 0.79178222 -2.5078094
v 1.89668739 2.06139676 -3.00020621
v 2.02224364 1.00992959 -3.20684836
v 4.23878317 -3.88880062 4.58392059
v 4.33842153 -2.25744022 2.13216707
v -0.66735534 1.48472982 -2.33718912
v 3.78028553 -5.04459724 4.15970357
v 3.82116804 0.54395992 1.95933899
v 3.80463265 0.59751511 2.14057314
v -2.15055314 -0.16586244 0.55236663
v -1.70727506 0.44655055 -0.48980311
v -1.20071989 0.98080629 -1.36614964
v -0.06275384 1.74717735 -2.82253869
v 0.60051838 1.97736005 -3.16895903
v 1.22658013 2.04413925 -3.14268056
v 3.49898854 0.74971073 -0.30275341
v 3.04446019 1.35331469 -1.30970723
v 2.43775725 1.74486327 -2.11827693
v 1.829059 1.9753433 -2.76463116
v -0.62050791 1.39642618 -2.1784125
v 3.78009448 -0.06055656 0.93103028
v 3.82023431 -0.10462329 2.69792345
v 3.7118081 0.51816982 1.891392
v 3.78353302 0.04873979 2.7634931
v 3.70051544 0.57259485 2.07073719
v 4.10397221 -1.19699416 0.88583878
v 4.03018784 -0.48991003 1.57802155
v 3.87949941 0.22916737 2.36094919
v 3.84942087 0.33553445 2.48538034
v 3.91314364 -0.55579788 1.51132712
v 3.76381341 0.2060513 2.29032753
v 3.73953018 0.31246139 2.41594736
v -1.95477885 4.19026985 5.73271204
v -2.0454807 3.43054306 6.73523033
v -0.33668508 4.44460863 8.25292164
v -0.27400248 5.21021487 7.28676493
v -1.2655464 4.87780423 6.72162392
v -1.34943444 4.11499981 7.70372199
v -2.47646881 2.5202553 5.53886941
v -2.39207121 3.27781668 4.53195735
v 0.85148224 5.08007381 7.17364762
v 0.82059733 4.2874034 8.14337033
v 4.41742743 -2.59517899 -0.03255772
v 4.30766389 -1.81598753 -0.81612239
v -1.87029648 4.14730702 5.62229059
v -1.96380029 3.40142039 6.62497842
v -0.31766584 4.38907971 8.08306523
v -0.25281815 5.16137259 7.10423615
v -1.20496516 4.82860073 6.5629327
v -1.29481804 4.0676005 7.55379743
v -2.38088483 2.50408082 5.48826501
v -2.29909799 3.25257822 4.47010267
v 0.83624143 5.029087 6.99230751
v 0.80478339 4.23115267 7.96767655
v 4.31613354 -2.59880889 -0.02686932
v 4.20719777 -1.81885324 -0.82195945
v -2.19697602 -4.34585529 3.24527667
v -2.57307161 -2.27278726 2.97953895
v -2.51094112 -2.66906932 1.86379771
v -2.24144604 -0.04934899 0.47987689
v -2.58608369 2.30452765 3.31012452
v -2.54237786 -1.343756 1.99854478
v -2.39907606 -1.62019204 0.76588648
v -2.4402347 -3.23142955 3.79318153
v -2.41996314 -3.50179478 2.62135909
v -2.17152531 -4.1845106 4.46589963
v -2.4747282 -2.25907456 2.97406248
v -2.41302187 -2.65253378 1.86101677
v -2.04458935 -0.97903815 -0.08778995
v -2.58988313 1.53822112 4.27392509
v -2.35422395 -0.84431196 1.47335239
v -2.36233238 -1.96741928 1.14053815
v -2.34182739 -3.21168875 3.79757561
v -2.32329645 -3.48156561 2.62963738
v -2.55059257 -0.22871474 2.05670598
v -2.28392081 0.466143 1.17948962
v -2.13571568 -0.97394346 -0.12782382
v -2.1478361 -0.05478276 0.51838238
v -2.45059331 -0.8409155 1.44660705
v -2.46110059 -1.97272589 1.14132384
v -2.44515922 -1.34188792 2.00633533
v -2.30202727 -1.61997981 0.77696658
v -2.38162751 0.47828462 1.16244467
v -2.45303454 -0.23835186 2.07381482
v -2.68780238 1.55248513 4.27812813
v -2.48827072 2.29620698 3.28567112
v -2.26916843 -4.20382692 4.45520131
v -2.09884484 -4.32730316 3.25690904
v -2.53694377 1.38993121 2.22467311
v -2.58096812 0.64635802 3.1514333
v -2.67909929 0.66068593 3.14306961
v -2.43717794 1.37935973 2.22131966
v -2.04777326 3.48830129 6.67316342
v -0.28022187 5.15952538 7.37075909
v -1.34818203 4.17324578 7.64600646
v -2.40726958 3.22661795 4.60941368
v 0.82431201 4.34853659 8.08964544
v 4.32464558 -1.86703792 -0.75329065
v -1.87084843 4.08959117 5.68488826
v -0.3110007 4.4389835 7.99650253
v -1.2062601 4.76821023 6.61975689
v -2.3669599 2.5561709 5.41108449
v 0.8328876 4.96742369 7.04429179
v 4.2993856 -2.53971364 -0.07522386
v -1.97021081 4.13958036 5.81454126
v 0.23376262 4.42841264 8.28486787
v -0.33350101 4.50319431 8.1981142
v 0.28177753 5.2022978 7.32011214
v -1.27709368 4.82700846 6.80551196
v -2.4804381 2.57678185 5.47136841
v 0.85084544 5.02828042 7.25825731
v 1.40057576 4.86241481 6.89789084
v 1.38518643 4.05240214 7.87744173
v 3.04329271 2.65969378 6.24234516
v 2.33240883 3.41485695 7.13979084
v 2.33366123 4.22117584 6.13086219
v 3.04390824 3.45172778 5.20798683
v 3.50518682 2.63375501 4.24259463
v 3.76268832 1.83660512 3.32978024
v 3.85417586 0.91288081 4.24524778
v 3.54575113 1.78623447 5.22689986
v 4.08011314 0.1086628 3.34833269
v 4.08497409 -0.19502813 0.99233301
v 4.00938585 0.41271496 1.71211134
v 4.24035393 -0.99601952 1.98287954
v 4.32630111 -1.76521327 1.04351087
v 4.29390913 -1.64995175 -0.68241469
v 4.19834634 -0.94656109 0.11670829
v 4.40396968 -2.56875186 -0.1447201
v 4.41925313 -2.5362536 -0.08093376
v 4.4114629 -2.47637297 0.1577189
v 4.31369231 -1.92935946 -0.79154183
v -1.95085195 3.45159999 6.54361638
v 0.23403856 4.37224668 8.11095716
v 0.28370915 5.15407042 7.13652201
v -0.2554078 5.1006215 7.156284
v -1.28335569 4.116804 7.46895416
v -2.29672065 3.19743138 4.53737024
v 1.37039134 4.80758618 6.72094481
v 0.80575982 4.28315798 7.88121997
v 1.35574492 3.99820991 7.70372199
v 2.2815283 3.37250901 6.98549371
v 2.97356288 2.62449998 6.12203195
v 2.97473035 3.40912553 5.07880101
v 2.28048829 4.16518005 5.96856258
v 3.67644413 1.80665437 3.24241096
v 3.42679644 2.59752058 4.13578156
v 3.46122605 1.7515708 5.12917198
v 3.7599077 0.88503157 4.16679383
v 4.13937824 -1.0086492 1.95159146
v 4.11984968 -0.48687446 2.59319103
v 3.80442041 1.05957907 2.42569076
v 4.30961675 -2.48293184 0.1547893
v 4.22530423 -1.77268499 1.02495842
v 3.98643963 -0.21143636 0.95873149
v 4.09909007 -0.95785375 0.08694859
v 4.30360983 -2.5689641 -0.13232355
v 4.21405395 -1.9274066 -0.78277517
v 4.20571209 -1.86962749 -0.75940416
v 4.19301821 -1.65740259 -0.70332297
v 4.22103761 -0.46927757 2.63679089
v 3.9125493 0.39187058 1.66174005
v 3.9043134 1.0860701 2.494147
v 3.97911626 0.08665063 3.28983178
v -2.24380249 -0.11438757 0.43561911
v -2.57245608 1.59118166 4.20243361
v -2.5479603 -0.17666673 1.99003306
v -2.12654573 -0.1771551 0.44498042
v -2.04556578 -4.88168211 4.89281219
v -2.21045528 -4.33730087 3.34007528
v -2.52422902 -2.64206889 1.94842843
v -2.15817352 -1.02401742 -0.05824217
v -2.25354558 -0.04404206 0.52530246
v -1.81493709 -0.47666451 -0.91348937
v -0.65098949 1.56955158 -2.30986938
v -1.25172774 1.13682285 -1.48121948
v -1.36597014 -0.05622637 -1.66756889
v -0.77705514 0.35586958 -2.48110582
v 0.60349013 2.13375871 -3.36840466
v -0.08389571 1.91066562 -2.984138
v -0.18030762 0.68728323 -3.1698295
v 0.52940877 0.91283842 -3.57863496
v 1.25130931 2.20075046 -3.35378006
v 1.28446544 0.99549541 -3.58033287
v -2.44755807 -0.79266724 1.44605479
v -2.60168535 2.25211874 3.38059751
v 4.36796931 -2.82684785 3.95486561
v 4.30305788 -1.79887869 3.11935953
v 4.33326357 -2.29505405 2.05188742
v 4.3773515 -3.06624304 2.75842023
v 4.20634881 -1.66122321 1.35395235
v 4.10229517 -1.25638673 0.82869607
v 3.58557243 0.88806682 -0.34399682
v 3.85687171 0.11231421 0.87705061
v 2.68965512 0.70583505 -2.5070237
v 3.28321851 0.3317774 -1.6026369
v 3.11011446 1.50935276 -1.4134433
v 2.49103632 1.93286884 -2.27544041
v 2.02742294 0.92277287 -3.20680661
v 1.88085223 2.14420241 -2.96620108
v 4.21292918 -4.02656238 3.48403499
v 4.23092936 -3.87876053 4.67562005
v 4.15578679 -0.98033278 2.32450283
v 3.7179001 -0.2446561 -0.60287835
v 3.98646082 -0.85475535 0.28217093
v -1.78732113 0.58172273 -0.52525185
v -2.4118759 -1.56296457 0.81347683
v -2.37848598 -1.56464161 0.69834246
v -2.43040684 -3.48517431 2.71002331
v 3.77183707 -5.04650771 4.060936
v 3.80408071 0.59558377 1.88880274
v 3.92870291 -0.13531704 2.82719467
v 3.78917934 0.63756986 2.10654651
v 3.83575088 0.34602053 2.500239
v 3.88472094 0.04479169 2.88053731
v -1.81739935 -4.91700337 3.61188412
v -2.28169214 -1.5654058 0.71184291
v -1.70901568 0.58764456 -0.4435501
v -2.06517911 -1.03002465 -0.02050087
v -1.19027635 1.13763005 -1.35076085
v -0.602826 1.55560578 -2.16408396
v -0.74324091 0.36495507 -2.35225907
v -1.31415556 -0.05830638 -1.55907942
v -0.04831966 1.90741782 -2.8084012
v 0.61002797 2.13772831 -3.15919412
v 0.53505509 0.90770166 -3.37668421
v -0.16107614 0.69329046 -3.00880333
v 1.22481832 2.20410391 -3.13404042
v 1.26249581 0.98320513 -3.36458498
v -2.15980818 -0.05085586 0.56191835
v 4.2056482 -1.81350392 3.11957208
v 4.26960439 -2.8323879 3.96267703
v 4.28006928 -3.08150515 2.75487511
v 4.23608732 -2.31672652 2.04653873
v 3.88705589 -0.86844653 0.30123263
v 4.00259324 -1.27109673 0.83432121
v 3.62106355 -0.25870819 -0.55721935
v 3.20181408 0.32606749 -1.4897951
v 2.6240007 0.70906197 -2.33941716
v 2.4165942 1.90444584 -2.10235676
v 3.02934675 1.50931037 -1.29344798
v 1.976033 0.92179613 -3.010543
v 1.81664133 2.13590261 -2.75410333
v 4.11471292 -4.02066142 3.4876225
v 4.130251 -3.86714967 4.68319804
v 4.05824963 -0.99476696 2.29824524
v 4.1075806 -1.67913863 1.34807228
v 3.49370311 0.90103652 -0.27422476
v 3.7570208 0.10465144 0.88322801
v -1.74401859 -0.48141918 -0.85617713
v -2.35108242 -0.79648787 1.47358582
v 3.6949115 -4.92617332 5.35124625
v 3.71195644 0.57333816 1.83144812
v 3.83583597 -0.15420888 2.7725147
v 3.69792555 0.6151332 2.04430942
v 3.79130206 0.02568761 2.82602688
v 3.74282036 0.32608837 2.44161093
v -2.28752952 0.41504991 1.24412492
v -2.15152957 -0.9073765 -0.08806577
v -2.47583209 -1.92700332 1.20460093
v -2.43210476 -0.18810805 2.0103043
v -2.68899105 1.60752632 4.20895009
v -2.4032364 0.42954798 1.22364112
v -2.48557518 2.24152701 3.35359661
v -1.90873807 -4.9517303 3.59874425
v -1.96876736 -4.84141481 4.88606196
v -2.56084523 0.69787496 3.08478126
v -2.67744376 0.71417723 3.0759507
v -2.55606905 1.33919871 2.28966962
v -2.43826065 1.3260386 2.28710124
v 3.77854491 -4.96854182 5.3632392
v 3.67824833 -5.01258736 4.05607505
v -4.50215874 -3.35921447 16.52337249
v -4.36705045 -1.98979203 17.0915916
v -0.98528957 -0.50657288 18.14488447
v -3.96622564 -5.24782237 15.6840676
v -4.52051982 -3.40595617 16.83485397
v -4.3773243 -2.07684311 17.38413855
v -3.63443053 -0.94004461 17.94414263
v -1.00823579 -0.62281083 18.40586688
v 0.35097672 -0.8319366 18.38873717
v 1.91683156 -1.13668905 18.2704404
v 3.28389793 -1.6418857 18.05734502
v 4.35336528 -2.64450996 17.61090391
v 4.76947323 -4.0440957 17.0067692
v -3.99462714 -5.24069005 15.98981704
v -2.36734199 -0.45726342 18.32327379
v -4.50695579 -2.66323194 16.80632532
v -4.0849684 -1.35042114 17.38592186
v -3.00822006 -0.4713367 17.91633642
v -0.34984574 -0.60810052 18.14412028
v 1.18102757 -0.86959281 18.07080309
v 2.64214954 -1.24076388 17.9246786
v 3.92842709 -1.991681 17.59065355
v 4.68643414 -3.32953953 17.00190825
v 4.8044124 -4.60233797 16.43443245
v -4.38645186 -4.05023008 16.23082554
v -1.65125761 -0.40039685 18.13155419
v -4.52024401 -2.72918354 17.11001626
v -4.0981924 -1.45526016 17.6658597
v -3.03021105 -0.58999406 18.17634209
v -0.37030819 -0.72297963 18.41085499
v 1.16154135 -0.97033507 18.33526674
v 2.6121349 -1.33632667 18.18508724
v 3.88860546 -2.06741822 17.86681346
v 4.64525431 -3.37498629 17.29549584
v 4.74128397 -4.6011705 16.74947994
v -4.41186018 -4.08060563 16.5492695
v -1.67104095 -0.5197972 18.38807862
v -3.61583601 -0.82667236 17.67524252
v 0.36899822 -0.72707639 18.12068538
v 1.94277064 -1.03526738 18.0093302
v 3.31798846 -1.55370954 17.79130998
v 4.39170059 -2.58155107 17.32640246
v 4.82313438 -4.01909035 16.70076545
v -2.34758031 -0.33597347 18.06778936
v 4.67590599 -4.99823794 16.23901906
v 4.60955095 -4.97896432 16.55799377
v -4.20419921 -4.74892996 15.91000425
v -4.23508369 -4.75442763 16.22333232
v -4.09273712 -5.05678156 15.76787024
v -3.84266495 -5.38065929 15.62675472
v -3.86949537 -5.37779358 15.93352393
v -4.12321863 -5.05064686 16.07483049
v 4.75240709 -4.8518797 16.31394939
v 4.68751685 -4.83842195 16.63114079
v 4.58713549 -5.09320672 16.18688596
v 4.51946463 -5.07138559 16.50743144
v -4.12803719 -1.85440793 12.85600593
v -3.71299044 -0.09337302 13.57633558
v -2.60482687 1.04486908 14.19672986
v 0.10816391 0.81767923 14.35089984
v 1.70829997 0.4589471 14.19999885
v 3.23789953 -0.03988172 13.95625212
v 4.61192829 -1.04121103 13.44719214
v 5.45783537 -2.83949887 12.67281893
v 5.51005324 -5.14120036 11.7371015
v -3.94321585 -3.72853864 12.14909134
v -1.23185947 1.09719259 14.40035796
v -4.0975133 -2.79670573 12.50149804
v -4.00025228 -0.94842918 13.21308221
v -3.23122838 0.5943951 13.92120667
v -0.54646899 0.95344543 14.38524468
v 0.85920878 0.65234375 14.29129503
v 2.50362376 0.23757344 14.09445954
v 3.94946252 -0.45588339 13.74589498
v 5.12279246 -1.83413638 13.08686806
v 5.63993967 -3.77336956 12.2907588
v -3.70515782 -4.69161772 11.7579462
v -1.93361579 1.19846592 14.35374404
v 5.6401731 -4.58879545 11.96342104
v -3.44532138 -5.37312368 11.48460929
v 5.42306606 -5.26531299 11.67974687
v 5.58606628 -4.9409684 11.82234806
v -3.57189643 -5.12143805 11.5806603
v -3.33430527 -5.53625137 11.42602346
v -3.99159158 -3.76235304 12.44993808
v -4.13879909 -2.84877494 12.80145312
v 5.59725297 -4.59565164 12.27023294
v 3.93071966 -0.54002606 14.01076255
v -4.03538249 -1.03910951 13.5001957
v 5.42557118 -2.88568815 12.96540857
v -1.25877514 0.98980638 14.65836966
v -0.5703279 0.848224 14.64293722
v 5.5443133 -4.93746598 12.13051801
v 5.09468828 -1.89686152 13.37198567
v 4.58847282 -1.11688436 13.7228001
v -3.26882102 0.47928287 14.19131696
v 3.21909278 -0.12931013 14.21428469
v 2.48471073 0.14364467 14.35051775
v -3.76463516 -4.70223096 12.06153133
v -3.63502486 -5.12052551 11.88643188
v -3.50602977 -5.36940901 11.78855533
v -3.38762704 -5.53378895 11.72661557
v 1.68834685 0.36219564 14.45660932
v -4.16499311 -1.92681227 13.15048454
v 5.59980016 -3.80219554 12.59147808
v -3.74960697 -0.19959175 13.85478805
v 0.83868252 0.55240838 14.5493703
v 0.08714944 0.71405071 14.60950524
v -2.64256849 0.92835499 14.45996277
v 5.46796087 -5.13330385 12.04601445
v 5.37984828 -5.25627052 11.9890843
v -1.96738765 1.08615487 14.61332618
v -4.43391505 -3.3612309 16.53016605
v -4.45216954 -3.40773886 16.83929044
v -2.34307995 -0.41126503 18.03516268
v -1.96375807 1.01022692 14.58197421
v -4.3015235 -2.01411797 17.09053009
v -4.31207316 -2.10148724 17.37974446
v 0.82664694 0.47735026 14.51960997
v 0.35893673 -0.80253748 18.09084153
v 5.45454519 -5.09352492 11.725066
v 5.37358643 -5.20978375 11.66843302
v 5.33242779 -5.1984699 11.9762
v 5.41427821 -5.08306035 12.03213222
v 5.52249218 -4.91161167 11.80956957
v 5.48184279 -4.90545609 12.11546831
v 0.09510949 0.74351245 14.31967534
v 0.07498651 0.63941643 14.57885419
v -0.99339816 -0.58133367 18.11255575
v -1.01534676 -0.69697698 18.37192565
v -2.57508836 0.97490534 14.17191587
v -2.613721 0.85781937 14.43527594
v 4.75610056 -4.01938767 16.68318911
v 5.53248989 -3.80501886 12.57566418
v 4.62131079 -3.34807047 16.98416301
v 4.58013064 -3.3947059 17.2791088
v 3.88293794 -2.04820818 17.56620078
v 3.8446874 -2.12540988 17.84185081
v -3.65183638 -0.13066865 13.57342749
v -3.6890893 -0.23828797 13.85083996
v -3.50645425 -5.10282234 11.5980875
v -3.63854848 -4.68353016 11.77518235
v -3.69755864 -4.69299743 12.075647
v -3.56937044 -5.0993623 11.90039889
v 2.61930976 -1.31272223 17.89625496
v 2.5907596 -1.40830653 18.15517887
v -3.79029874 -5.32801694 15.63233811
v -3.90855249 -5.20292756 15.69085926
v -3.93837609 -5.1931209 15.99486904
v -3.81889097 -5.32271032 15.93751441
v -4.0274224 -5.0310971 15.77661539
v -4.05824362 -5.02290359 16.0818986
v -4.0604938 -1.86476655 12.86487856
v -4.09740702 -1.93774371 13.15825358
v 4.29477928 -2.68250588 17.59103564
v 4.33230834 -2.6173819 17.30585413
v 5.03389481 -1.93022961 13.35339116
v 1.16807922 -0.9446503 18.04163804
v 1.14935723 -1.0452654 18.30531599
v 0.34204025 -0.90727022 18.35827653
v 1.69278324 0.38482334 14.17032392
v 1.67374281 0.28751962 14.42754992
v 4.70226923 -4.04356494 16.98985141
v -3.27729035 -5.49311868 11.43999077
v -3.38437923 -5.33788718 11.50018976
v -3.44587364 -5.33060652 11.80063321
v -3.33194913 -5.48698398 11.73722897
v -4.13671908 -4.73806179 15.91951422
v -4.1674976 -4.7430502 16.2313563
v 2.46668935 0.06973347 14.32226523
v 1.92704175 -1.10958218 17.98016451
v 4.62644755 -4.94285768 16.22244098
v 4.54423655 -5.03105472 16.17153956
v 4.47909138 -5.00719565 16.49119306
v 4.56246985 -4.92112132 16.54060848
v 4.69248407 -4.8145632 16.29586444
v 4.62895204 -4.79838808 16.61237642
v -2.3622688 -0.53159942 18.28869552
v -0.36007689 -0.6828183 18.11261964
v -0.37949941 -0.79727325 18.37795376
v -3.57253315 -0.88767777 17.65622384
v -3.22305605 0.41997475 14.17548187
v 3.21092029 -0.11022724 13.92910286
v 3.19342951 -0.20044039 14.18726259
v -2.98111351 -0.542064 17.88965371
v -3.00397464 -0.66025481 18.14743134
v 3.8939551 -0.60470405 13.9857999
v 3.28440749 -1.62004338 17.76441662
v 4.56270328 -1.09459637 13.42649611
v 4.54035172 -1.17107627 13.70049092
v -4.02563972 -1.3911765 17.37762207
v -4.03958521 -1.49658866 17.65420645
v 5.57364853 -4.57376662 11.95036689
v 5.53132273 -4.57862757 12.25482201
v -4.43920016 -2.67492773 16.81014627
v -4.45246687 -2.74096441 17.1109715
v -0.55716732 0.87900283 14.35340465
v -0.58024077 0.77333605 14.61169153
v 1.90229126 -1.21070685 18.23972546
v 4.7397771 -4.581387 16.41630511
v 4.67717943 -4.57826698 16.73097051
v -1.24245168 1.02298406 14.36783883
v -1.26853957 0.91521576 14.62635977
v -3.59238023 -1.00130495 17.92244866
v 5.39209618 -2.85832698 12.65936117
v 5.36008629 -2.90377358 12.94912781
v 3.25210028 -1.70894103 18.02930411
v -3.93427933 -0.9702076 13.21737002
v -3.96962242 -1.06197096 13.50348557
v -4.02979974 -2.79874352 12.5134486
v -4.07091599 -2.85091884 12.81196039
v -1.65913277 -0.47481793 18.09829111
v -1.67787595 -0.59351767 18.353055
v -3.87584231 -3.72597026 12.16354703
v -3.92392072 -3.75965718 12.46231376
v -4.3183562 -4.04753423 16.23925312
v -4.34363737 -4.07801605 16.55593464
v 3.91127586 -0.51962734 13.7217389
v 5.06140465 -1.86718658 13.07082073
v -3.18421117 0.53638193 13.90588083
v 2.48447729 0.16431952 14.06559086
v 5.5723539 -3.77786992 12.27742852
v 0.84626047 0.577774 14.26091948
v -1.93032577 1.12277076 14.32167058
v 3.99164029 -1.20132467 0.90158878
v 4.09851693 -1.61709291 1.4245525
v -2.10173174 -4.3141848 3.36346716
v -2.07114396 -0.94957514 0.03615282
v 3.67652922 -5.00348099 4.16980756
v -1.82786424 -4.90897971 3.72455575
v -2.41503862 -2.61772192 1.95853242
v -2.28332648 -1.49465699 0.77312476
v -2.05059658 -0.89869461 -0.03325865
v -0.73131153 0.46900808 -2.33236993
v -1.30205633 0.04602275 -1.5372798
v 0.54140189 1.01466338 -3.35153051
v -0.15180008 0.79944498 -2.9869822
v 1.25825043 1.0885961 -3.3370957
v 4.27550566 -3.06036328 2.86092398
v 4.22965561 -2.27344517 2.1403821
v 3.87389547 -0.7898863 0.3573347
v 3.60620489 -0.1584755 -0.53026146
v 3.18400479 0.42804048 -1.46899373
v 2.603899 0.81188392 -2.31360555
v 1.96009164 1.02657157 -2.98139882
v 4.11252663 -4.00722486 3.59271614
v -1.73845718 -0.38846747 -0.81809612
v -2.36619571 -1.91261152 1.21629656
v -2.32155583 -3.45753701 2.73250235
v -2.30330103 -1.551757 0.83805738
v -2.43783617 1.3467767 2.26150156
v -2.56867784 0.67781564 3.11072065
v 3.74082481 0.31776769 2.4259457
v 3.69951782 0.58915206 2.06046303
v 4.29719931 -2.53931035 -0.14280963
v -1.87063603 4.11204933 5.66051994
v -1.95588275 3.43207143 6.57528687
v -0.31359036 4.41956121 8.0301893
v 0.23633104 4.40330133 8.05806004
v 0.2816926 5.11690226 7.16774651
v -0.25441018 5.12424682 7.13603379
v -1.2057507 4.79170839 6.59763843
v -1.28781319 4.09765753 7.50196166
v -2.37237279 2.53589966 5.44112033
v -2.2976547 3.21889129 4.51119773
v 1.36845976 4.7694204 6.75397351
v 0.83418245 4.9914311 7.02406261
v 0.80537774 4.26292913 7.91486435
v 1.35493827 4.0306449 7.65105846
v 2.2790023 3.40462517 6.93306344
v 2.96957224 2.65650987 6.07017499
v 2.97050613 3.37246662 5.11743365
v 2.27817453 4.12743875 6.00498774
v 3.67468233 1.7656659 3.27783882
v 3.42344268 2.55897271 4.17318315
v 3.45466719 1.78610668 5.07998967
v 3.75086522 0.92264509 4.12130436
v 4.12693962 -0.97479273 1.90631456
v 4.10533073 -0.4501311 2.54954877
v 3.80658551 1.01642519 2.46046007
v 4.29849394 -2.44661295 0.11819428
v 4.21382052 -1.73789416 0.98282367
v 3.98773458 -0.24722449 1.00010205
v 4.09870798 -0.99415144 0.1260696
v 4.30590208 -2.56272343 -0.05641647
v 4.21335366 -1.93906016 -0.75235692
v 4.20628523 -1.8498655 -0.78375128
v 4.19212687 -1.69310595 -0.66607004
v 3.91588187 0.35272806 1.69996909
v 3.96576479 0.1263024 3.24801523
v 4.12311868 -3.87829366 4.58396297
v -1.70795433 0.50146395 -0.47180293
v -1.19664433 1.0418332 -1.36016392
v -0.61363045 1.45836594 -2.17283038
v -0.05714998 1.80954159 -2.81704008
v 0.60421184 2.03976668 -3.1651596
v 1.22590087 2.10637634 -3.13932648
v -2.5792275 1.57057071 4.23024045
v -2.15414065 -0.12111661 0.55608129
v 4.20252786 -1.85504465 3.03095025
v 4.26402195 -2.85248976 3.86282644
v 2.42952119 1.8069517 -2.11207865
v 3.03858043 1.41400189 -1.30338243
v 1.82421924 2.0378347 -2.7605344
v 4.04517397 -0.99156186 2.19446742
v 3.49692972 0.80859374 -0.2916518
v 3.77111558 0.00371814 0.91243545
v 3.6887556 -4.93135247 5.24562185
v 3.71187168 0.53965124 1.86806401
v 3.82630512 -0.12391842 2.72696198
v 3.78654739 0.03978208 2.78781935
v -2.28612861 0.43493969 1.21897122
v -2.13484553 -0.12954356 0.47355146
v -2.44025589 -0.2076578 2.03501264
v -2.48661519 2.26279587 3.32716947
v -4.28772603 -3.97827142 15.2855983
v -4.18902172 -3.90629156 14.34037137
v -4.0903174 -3.8343117 13.39516532
v -4.21975785 -3.97555437 15.29502287
v -4.12113862 -3.90359602 14.35079356
v -4.02254026 -3.83161617 13.40654275
v -4.09430788 -4.73725521 14.94788072
v -3.98441687 -4.72558046 13.9857572
v -3.87452618 -4.71390571 13.02363367
v -4.02691284 -4.72681183 14.95853698
v -3.91712811 -4.71554036 13.99758061
v -3.80734337 -4.7042689 13.03660305
v 2.78638539 -0.96290574 16.99706881
v 2.93062108 -0.6850476 16.06948117
v 3.07485693 -0.40716827 15.14187202
v 2.76282365 -1.03465217 16.96900702
v 2.90635888 -0.75658179 16.04175909
v 3.04989428 -0.47851141 15.11451052
v 4.09344374 -1.772982 16.62369058
v 4.25846039 -1.55428299 15.65672698
v 4.42347705 -1.33558368 14.68976338
v 4.04727549 -1.82891453 16.59976794
v 4.21163423 -1.60964238 15.63333509
v 4.37599298 -1.39036992 14.66692376
v 5.00262792 -4.60068213 15.39338811
v 4.95038886 -4.87327635 15.26808649
v 5.20082193 -4.5990054 14.35234313
v 5.14837063 -4.89467268 14.22224446
v 5.39903745 -4.59732868 13.31127728
v 5.34633121 -4.91606933 13.17638124
v 4.88982881 -4.83729686 15.25076509
v 4.9376741 -4.5807079 15.37593956
v 5.08717387 -4.86000964 14.20566637
v 5.1355496 -4.58000728 14.335574
v 5.28451892 -4.88274331 13.16056734
v 5.3334466 -4.57932818 13.29518725
v -0.88155445 -0.16787888 17.2693869
v -0.77781933 0.17081512 16.39391085
v -0.67408421 0.50953031 15.51841328
v -0.89010887 -0.24266086 17.23733463
v -0.78681942 0.09601194 16.36211288
v -0.68353014 0.43468475 15.48689177
v -1.55314762 -0.0528511 17.26325252
v -1.45501629 0.29471552 16.39495085
v -1.35690631 0.64226126 15.52664918
v -1.56148965 -0.12729338 17.23030827
v -1.46382549 0.22020966 16.36232544
v -1.36618238 0.56771302 15.49434261
v 4.8712343 -3.21856613 15.99278903
v 5.05601294 -3.10761392 14.98364766
v 5.2407919 -2.99666171 13.97452812
v 4.80600435 -3.23699079 15.97540437
v 4.99069822 -3.12591143 14.9666451
v 5.17539242 -3.0148531 13.95788645
v -4.28411765 -1.75211611 16.19374215
v -4.20120572 -1.51444018 15.29589334
v -4.1182941 -1.27678576 14.39804452
v -4.21854799 -1.77608114 16.19378517
v -4.1355728 -1.5380443 15.29701874
v -4.05259729 -1.30000779 14.400252
v -4.41132942 -3.2315994 15.59289826
v -4.32047891 -3.10400538 14.6624234
v -4.2296496 -2.97639016 13.73192766
v -4.34317019 -3.23365822 15.60062491
v -4.25242596 -3.10606451 14.6710629
v -4.16168173 -2.97849167 13.74152209
v 4.87390896 -5.03200996 15.19075731
v 4.78530831 -5.13396207 15.13743555
v 5.07193311 -5.06578165 14.14251675
v 4.98350264 -5.17473862 14.08798513
v 5.2699364 -5.09953215 13.094255
v 5.18167546 -5.21549397 13.03853471
v 4.74128397 -5.07291397 15.12270467
v 4.93833201 -5.11475171 14.07386947
v 5.13538006 -5.15661096 13.02503458
v 4.82338901 -4.97790281 15.17485865
v 5.02035228 -5.01294826 14.127276
v 5.21731524 -5.0480149 13.07971455
v -0.24059153 -0.27755765 17.26047158
v -0.13135866 0.05296434 16.376802
v -0.02210461 0.38350689 15.49315331
v -0.25131104 -0.35225455 17.2291835
v -0.1425452 -0.02169049 16.34572585
v -0.03377932 0.30885237 15.4622897
v -2.91681761 -0.12141362 17.05223715
v -2.82539396 0.22850946 16.18813852
v -2.73399182 0.57843254 15.3240614
v -2.88926538 -0.19207765 17.02606433
v -2.79741726 0.15788781 16.16245407
v -2.70556913 0.50785327 15.29886532
v -4.00112243 -1.06271395 16.50314363
v -3.91727677 -0.77500645 15.6203654
v -3.83345231 -0.48729926 14.73758716
v -3.94149642 -1.10295974 16.49592622
v -3.85735376 -0.81474299 15.61423101
v -3.77323197 -0.52652623 14.73253517
v -3.97830368 -5.07272292 14.79751018
v -3.86387024 -5.08864278 13.82715106
v -3.74945799 -5.10458415 12.85679131
v -3.91290419 -5.04816356 14.80757241
v -3.79838567 -5.0652297 13.8385073
v -3.68388865 -5.08229616 12.86946369
v -4.4214758 -2.4791324 15.89236529
v -4.33597461 -2.29503286 14.97840462
v -4.25047311 -2.11091181 14.0644449
v -4.35374136 -2.4906373 15.89716234
v -4.26830343 -2.30634671 14.98419992
v -4.18284463 -2.12203493 14.071216
v 1.30785733 -0.56165645 17.16724374
v 1.43468717 -0.2536989 16.26370589
v 1.56151701 0.05425865 15.36014654
v 1.2945057 -0.63660798 17.13812044
v 1.42091106 -0.32856565 16.2346041
v 1.54733753 -0.02052301 15.33106625
v -3.72891061 -5.41893103 14.65172539
v -3.85117667 -5.2782188 14.71018392
v -3.6151354 -5.45722396 13.67669574
v -3.7361277 -5.30861553 13.73630055
v -3.50138106 -5.49549601 12.7016449
v -3.62107874 -5.33901227 12.76241719
v -3.44653123 -5.44724744 12.7110059
v -3.56113453 -5.4075109 13.68478298
v -3.67571632 -5.36777467 14.6585607
v 3.7775261 -0.79345262 14.9559047
v 3.62435374 -1.04687855 15.90102567
v 3.47116018 -1.30028361 16.84616814
v 3.7415678 -0.8585339 14.93045368
v 3.58918114 -1.11238431 15.87510778
v 3.43679416 -1.36621385 16.81976188
v -3.79286681 -5.23485268 14.71829267
v -3.67720231 -5.26677779 13.74574632
v -3.56153782 -5.2986814 12.77320028
v -2.05857786 0.65484887 15.44526626
v -2.15341885 0.29949169 16.30855769
v -2.24823865 -0.05588666 17.17187125
v -2.06244087 0.73060665 15.47695732
v -2.15749442 0.37507994 16.34056757
v -2.25252645 0.01955323 17.20417846
v 0.70970878 0.15737856 15.4124283
v 0.59279185 -0.16259345 16.30522512
v 0.47585369 -0.48256546 17.19804345
v 0.72127737 0.23254232 15.44220951
v 0.60385098 -0.08732341 16.33502784
v 0.4864246 -0.40721065 17.22784617
v 5.33839264 -3.85859493 13.60255079
v 5.14429507 -3.91219251 14.62943677
v 4.95019781 -3.96579009 15.65632338
v 5.40563902 -3.85643015 13.61878917
v 5.21147787 -3.91064326 14.64612113
v 5.01729553 -3.96485636 15.67343222
v 4.85849803 -2.102018 14.34149615
v 4.68310157 -2.27380607 15.32962265
v 4.5077048 -2.44559414 16.31772795
v 4.91895212 -2.06803406 14.36057904
v 4.74319444 -2.23920629 15.34919359
v 4.56745827 -2.41037884 16.33780814
v 2.33177211 -0.22508516 15.23675539
v 2.19685487 -0.51992467 16.15122531
v 2.06195883 -0.81476418 17.06569459
v 2.3492205 -0.15106736 15.26522078
v 2.21375132 -0.44580091 16.17992413
v 2.07826094 -0.74053414 17.09462685
v -3.31042533 0.09306146 15.04567219
v -3.3977946 -0.23385182 15.91586282
v -3.48516388 -0.56076479 16.78603257
v -3.35557445 0.15279343 15.06229329
v -3.4423282 -0.17369506 15.93326899
v -3.52908195 -0.50018387 16.80424531
v 3.97581279 -0.59245395 0.51473477
v 3.91617445 -0.09820582 0.98608096
v 4.22871018 -0.57198343 0.58109139
v 4.19196397 -0.51623752 0.53108258
v 4.21338213 -0.54127514 0.55708334
v 4.16707597 -0.05418875 1.07445481
v 4.13014852 -0.0005725 1.02255009
v 4.15160463 -0.02424084 1.04979771
v 4.16821687 -1.56565916 1.4614189
v 4.11183203 -1.06853235 1.93470846
v 4.40136018 -1.42691149 1.4467962
v 4.3860821 -1.49811166 1.48785299
v 4.3969449 -1.46327592 1.46711616
v 4.34223773 -0.90648705 1.94205555
v 4.32764034 -0.97950533 1.9812974
v 4.33817039 -0.94346037 1.96173594
v 3.95042629 -0.59245395 0.50352751
v 4.21167187 -0.49993336 0.5230567
v 4.26738616 -0.5330794 0.60737808
v 4.23418823 -0.52964309 0.5540405
v 4.25047627 -0.56455505 0.58247932
v 3.93175555 -0.56896938 0.51835138
v 4.22289368 -0.46412783 0.54124098
v 4.24897826 -0.49529224 0.575217
v 4.14627017 -1.58187824 1.46773105
v 4.40969002 -1.50055035 1.49943159
v 4.44042394 -1.38952508 1.47454865
v 4.41970703 -1.46099853 1.47365667
v 4.42327746 -1.42041367 1.44885281
v 4.12992616 -1.56885414 1.49446689
v 4.42352766 -1.47698766 1.53094614
v 4.43607034 -1.43393943 1.50276985
v 4.18886546 -0.04454814 1.07794174
v 4.17242877 -0.01047058 1.0487672
v 4.14990134 0.01781419 1.01651313
v 3.89130385 -0.10061542 0.97262352
v 4.36417114 -0.89766504 1.94631553
v 4.36095307 -0.93880502 1.97054056
v 4.0903892 -1.08687383 1.93904435
v 4.35127957 -0.97954772 1.9951635
v 4.21131667 -0.06099559 1.05713911
v 3.87818422 -0.12550025 0.94131963
v 4.16667363 0.00553372 0.98884166
v 4.19275663 -0.02412096 1.02420499
v 4.38666378 -0.9150459 1.92600253
v 4.0793382 -1.12268504 1.91929311
v 4.37042667 -1.00456287 1.98042313
v 4.38263756 -0.96013714 1.95355824
g Group12424
f 192 191 190 189
g Group15642
f 4 3 2 1
g Group12424
f 196 195 194 193
g Group12427
f 7 8 196 193
g Group15642
f 8 7 6 5
g Group12424
f 200 199 198 197
g Group15642
f 12 11 10 9
g Group12424
f 204 203 202 201
g Group15642
f 16 15 14 13
g Group12424
f 208 207 206 205
g Group15642
f 20 19 18 17
g Group12424
f 210 205 206 209
g Group15642
f 22 21 18 19
g Group12424
f 214 213 212 211
g Group15642
f 26 25 24 23
g Group12424
f 209 215 193 194
g Group12427
f 27 7 193 215
g Group15642
f 21 6 7 27
g Group12424
f 219 218 217 216
g Group15642
f 31 30 29 28
g Group12424
f 221 220 195 196
g Group12427
f 8 33 221 196
g Group15642
f 33 8 5 32
g Group12424
f 219 203 222 218
g Group15642
f 31 28 34 13
g Group12424
f 221 224 223 220
g Group12427
f 33 35 224 221
g Group15642
f 33 32 36 35
g Group12424
f 226 225 223 224
g Group12427
f 35 38 226 224
g Group15642
f 38 35 36 37
g Group12424
f 204 227 222 203
g Group15642
f 16 13 34 39
g Group12424
f 214 198 202 213
g Group15642
f 26 23 14 10
g Group12424
f 229 228 225 226
g Group12427
f 38 41 229 226
g Group15642
f 41 38 37 40
g Group12424
f 229 231 230 228
g Group12427
f 41 42 231 229
g Group15642
f 41 40 43 42
g Group12424
f 232 197 198 214
g Group15642
f 44 26 10 11
g Group12424
f 234 208 205 233
g Group15642
f 46 45 19 20
g Group12424
f 235 233 205 210
g Group15642
f 47 22 19 45
g Group12424
f 239 238 237 236
g Group15642
f 51 50 49 48
g Group12424
f 242 189 241 240
g Group15642
f 54 53 52 3
g Group12424
f 235 244 243 233
g Group15642
f 47 45 56 55
g Group12424
f 234 233 243 245
g Group15642
f 46 57 56 45
g Group12424
f 247 245 243 246
g Group15642
f 59 58 56 57
g Group12424
f 248 246 243 244
g Group15642
f 60 55 56 58
g Group12424
f 219 213 202 203
g Group15642
f 31 13 14 23
g Group12424
f 250 249 246 248
g Group15642
f 62 60 58 61
g Group12424
f 254 253 252 251
g Group15642
f 66 65 64 63
g Group12424
f 255 247 246 249
g Group15642
f 67 61 58 59
g Group12424
f 219 216 212 213
g Group15642
f 31 23 24 30
g Group12424
f 257 256 201 199
g Group15642
f 69 9 15 68
g Group12424
f 259 239 236 258
g Group15642
f 71 70 50 51
g Group12424
f 261 260 207 208
g Group15642
f 73 20 17 72
g Group12424
f 257 263 262 256
g Group15642
f 69 68 75 74
g Group12424
f 232 214 211 264
g Group15642
f 44 76 25 26
g Group12424
f 216 217 266 265
g Group15642
f 30 78 77 29
g Group12424
f 267 261 208 234
g Group15642
f 79 46 20 73
g Group12424
f 267 234 245 268
g Group15642
f 79 80 57 46
g Group12424
f 242 240 270 269
g Group15642
f 54 82 81 53
g Group12424
f 189 190 271 241
g Group15642
f 3 52 83 2
g Group12424
f 272 268 245 247
g Group15642
f 84 59 57 80
g Group12424
f 273 272 247 255
g Group15642
f 85 67 59 84
g Group12424
f 275 274 190 191
g Group15642
f 87 1 2 86
g Group12424
f 277 242 269 276
g Group15642
f 89 88 82 54
g Group12424
f 279 200 197 278
g Group15642
f 91 90 11 12
g Group12424
f 283 282 281 280
g Group15642
f 95 94 93 92
g Group12424
f 211 212 285 284
g Group15642
f 25 97 96 24
g Group12424
f 287 256 262 286
g Group15642
f 99 98 75 68
g Group12424
f 291 290 289 288
g Group15642
f 103 102 101 100
g Group12424
f 261 291 288 260
g Group15642
f 73 72 102 103
g Group12424
f 293 232 264 292
g Group15642
f 105 104 76 44
g Group12424
f 259 294 200 279
g Group15642
f 71 91 12 106
g Group12424
f 294 257 199 200
g Group15642
f 106 12 9 69
g Group12424
f 296 295 290 291
g Group15642
f 108 103 100 107
g Group12424
f 267 296 291 261
g Group15642
f 79 73 103 108
g Group12424
f 267 268 297 296
g Group15642
f 79 108 109 80
g Group12424
f 255 249 299 298
g Group15642
f 67 111 110 61
g Group12424
f 296 297 300 295
g Group15642
f 108 107 112 109
g Group12424
f 302 301 300 297
g Group15642
f 114 109 112 113
g Group12424
f 272 302 297 268
g Group15642
f 84 80 109 114
g Group12424
f 273 303 302 272
g Group15642
f 85 84 114 115
g Group12424
f 274 304 271 190
g Group15642
f 86 2 83 116
g Group12424
f 303 283 301 302
g Group15642
f 115 114 113 95
g Group12424
f 293 278 197 232
g Group15642
f 105 44 11 90
g Group12424
f 308 307 306 305
g Group15642
f 120 119 118 117
g Group12424
f 310 309 306 307
g Group15642
f 122 117 118 121
g Group12424
f 290 308 305 289
g Group15642
f 100 101 119 120
g Group12424
f 273 312 311 303
g Group15642
f 85 115 124 123
g Group12424
f 274 251 313 304
g Group15642
f 86 116 125 65
g Group12424
f 315 314 307 308
g Group15642
f 127 120 117 126
g Group12424
f 316 310 307 314
g Group15642
f 128 126 117 122
g Group12424
f 295 315 308 290
g Group15642
f 107 100 120 127
g Group12424
f 295 300 317 315
g Group15642
f 107 127 129 112
g Group12424
f 316 314 319 318
g Group15642
f 128 131 130 126
g Group12424
f 315 317 319 314
g Group15642
f 127 126 130 129
g Group12424
f 250 230 299 249
g Group15642
f 62 61 110 43
g Group12424
f 321 320 319 317
g Group15642
f 133 129 130 132
g Group12424
f 322 318 319 320
g Group15642
f 134 132 130 131
g Group12424
f 301 321 317 300
g Group15642
f 113 112 129 133
g Group12424
f 283 280 321 301
g Group15642
f 95 113 133 94
g Group12424
f 277 192 189 242
g Group15642
f 89 54 3 4
g Group12424
f 264 211 284 323
g Group15642
f 76 135 97 25
g Group12424
f 238 322 320 324
g Group15642
f 48 136 132 134
g Group12424
f 280 324 320 321
g Group15642
f 94 133 132 136
g Group12424
f 303 311 282 283
g Group15642
f 115 95 92 124
g Group12424
f 294 325 263 257
g Group15642
f 106 69 74 137
g Group12424
f 327 326 309 310
g Group15642
f 139 122 121 138
g Group12424
f 251 252 328 313
g Group15642
f 65 125 140 64
g Group12424
f 275 254 251 274
g Group15642
f 87 86 65 66
g Group12424
f 216 265 285 212
g Group15642
f 30 24 96 78
g Group12424
f 292 329 326 327
g Group15642
f 104 139 138 141
g Group12424
f 330 327 310 316
g Group15642
f 142 128 122 139
g Group12424
f 330 316 318 331
g Group15642
f 142 143 131 128
g Group12424
f 293 330 331 278
g Group15642
f 105 90 143 142
g Group12424
f 280 281 332 324
g Group15642
f 94 136 144 93
g Group12424
f 293 292 327 330
g Group15642
f 105 142 139 104
g Group12424
f 238 324 332 237
g Group15642
f 48 49 144 136
g Group12424
f 279 278 331 333
g Group15642
f 91 145 143 90
g Group12424
f 333 331 318 322
g Group15642
f 145 134 131 143
g Group12424
f 239 333 322 238
g Group15642
f 51 48 134 145
g Group12424
f 259 279 333 239
g Group15642
f 71 51 145 91
g Group12424
f 199 201 202 198
g Group15642
f 9 10 14 15
g Group12424
f 287 204 201 256
g Group15642
f 99 68 15 16
g Group12424
f 287 286 335 334
g Group15642
f 99 147 146 98
g Group12424
f 273 255 298 312
g Group15642
f 85 123 111 67
g Group12424
f 292 264 323 329
g Group15642
f 104 141 135 76
g Group12424
f 259 258 325 294
g Group15642
f 71 106 137 70
g Group12424
f 287 334 227 204
g Group15642
f 99 16 39 147
g Group12424
f 240 241 227 334
g Group15642
f 53 147 39 52
g Group12424
f 240 334 335 270
g Group15642
f 53 81 146 147
g Group12424
f 241 271 222 227
g Group15642
f 52 39 34 83
g Group12424
f 304 218 222 271
g Group15642
f 116 83 34 28
g Group12424
f 304 313 217 218
g Group15642
f 116 28 29 125
g Group12424
f 313 328 266 217
g Group15642
f 125 29 77 140
g Group12424
f 195 210 194
g Group15642
f 6 22 5
g Group12424
f 207 337 336 206
g Group12427
f 148 149 336 337
g Group15642
f 17 18 149 148
g Group12424
f 209 206 336 215
g Group12427
f 149 27 215 336
g Group15642
f 21 27 149 18
g Group12424
f 210 209 194
g Group15642
f 6 21 22
g Group12424
f 220 235 210 195
g Group15642
f 32 5 22 47
g Group12424
f 220 223 244 235
g Group15642
f 32 47 55 36
g Group12424
f 225 248 244 223
g Group15642
f 37 36 55 60
g Group12424
f 228 250 248 225
g Group15642
f 40 37 60 62
g Group12424
f 230 250 228
g Group15642
f 40 62 43
g Group12424
f 236 237 339 338
g Group12427
f 150 151 338 339
g Group15642
f 50 151 150 49
g Group12424
f 253 341 340 252
g Group12427
f 152 153 340 341
g Group15642
f 63 64 153 152
g Group12424
f 258 236 338 342
g Group12427
f 151 154 342 338
g Group15642
f 70 154 151 50
g Group12424
f 260 343 337 207
g Group12427
f 155 148 337 343
g Group15642
f 72 17 148 155
g Group12424
f 263 345 344 262
g Group12427
f 156 157 344 345
g Group15642
f 74 75 157 156
g Group12424
f 265 266 347 346
g Group12427
f 158 159 346 347
g Group15642
f 78 159 158 77
g Group12424
f 269 270 349 348
g Group12427
f 160 161 348 349
g Group15642
f 82 161 160 81
g Group12424
f 276 269 348 350
g Group12427
f 161 162 350 348
g Group15642
f 88 162 161 82
g Group12424
f 282 352 351 281
g Group12427
f 163 164 351 352
g Group15642
f 92 93 164 163
g Group12424
f 284 285 354 353
g Group12427
f 165 166 353 354
g Group15642
f 97 166 165 96
g Group12424
f 286 262 344 355
g Group12427
f 157 167 355 344
g Group15642
f 98 167 157 75
g Group12424
f 288 289 357 356
g Group12427
f 168 169 356 357
g Group15642
f 102 169 168 101
g Group12424
f 260 288 356 343
g Group12427
f 169 155 343 356
g Group15642
f 72 155 169 102
g Group12424
f 298 299 359 358
g Group12427
f 170 171 358 359
g Group15642
f 111 171 170 110
g Group12424
f 305 306 361 360
g Group12427
f 172 173 360 361
g Group15642
f 119 173 172 118
g Group12424
f 309 362 361 306
g Group12427
f 174 172 361 362
g Group15642
f 121 118 172 174
g Group12424
f 289 305 360 357
g Group12427
f 173 168 357 360
g Group15642
f 101 168 173 119
g Group12424
f 312 364 363 311
g Group12427
f 175 176 363 364
g Group15642
f 123 124 176 175
g Group12424
f 230 231 359 299
g Group12427
f 42 170 359 231
g Group15642
f 43 110 170 42
g Group12424
f 323 284 353 365
g Group12427
f 166 177 365 353
g Group15642
f 135 177 166 97
g Group12424
f 311 363 352 282
g Group12427
f 176 163 352 363
g Group15642
f 124 92 163 176
g Group12424
f 325 366 345 263
g Group12427
f 178 156 345 366
g Group15642
f 137 74 156 178
g Group12424
f 326 367 362 309
g Group12427
f 179 174 362 367
g Group15642
f 138 121 174 179
g Group12424
f 252 340 368 328
g Group12427
f 153 180 368 340
g Group15642
f 64 140 180 153
g Group12424
f 265 346 354 285
g Group12427
f 159 165 354 346
g Group15642
f 78 96 165 159
g Group12424
f 329 369 367 326
g Group12427
f 181 179 367 369
g Group15642
f 141 138 179 181
g Group12424
f 281 351 370 332
g Group12427
f 164 182 370 351
g Group15642
f 93 144 182 164
g Group12424
f 237 332 370 339
g Group12427
f 182 150 339 370
g Group15642
f 49 150 182 144
g Group12424
f 286 355 371 335
g Group12427
f 167 183 371 355
g Group15642
f 98 146 183 167
g Group12424
f 312 298 358 364
g Group12427
f 171 175 364 358
g Group15642
f 123 175 171 111
g Group12424
f 329 323 365 369
g Group12427
f 177 181 369 365
g Group15642
f 141 181 177 135
g Group12424
f 258 342 366 325
g Group12427
f 154 178 366 342
g Group15642
f 70 137 178 154
g Group12424
f 270 335 371 349
g Group12427
f 183 160 349 371
g Group15642
f 81 160 183 146
g Group12424
f 328 368 347 266
g Group12427
f 180 158 347 368
g Group15642
f 140 77 158 180
g Group12424
f 341 253 254 372
g Group12427
f 184 152 341 372
g Group15642
f 152 184 66 63
g Group12424
f 372 254 275 373
g Group12427
f 185 184 372 373
g Group15642
f 184 185 87 66
g Group12424
f 373 275 191 374
g Group12427
f 186 185 373 374
g Group15642
f 185 186 1 87
g Group12424
f 374 191 192 375
g Group12427
f 187 186 374 375
g Group15642
f 186 187 4 1
g Group12424
f 375 192 277 376
g Group12427
f 188 187 375 376
g Group15642
f 187 188 89 4
g Group12424
f 376 277 276 350
g Group12427
f 162 188 376 350
g Group15642
f 188 162 88 89
g Group17373
f 650 651 652 649
g Group2869
f 492 491 489 490
g Group17373
f 807 809 614 652
g Group15274
f 974 996 1172 1137
f 1324 1325 1422 1423
g Group17373
f 911 1254 1255 912
f 905 1251 1252 907
f 855 697 1187 1192
g Group15274
f 1176 1073 1072 1175
g Group17373
f 861 661 663 864
g Group2869
f 593 477 478 595
f 494 493 490 489
f 491 492 495 496
g Group17373
f 1246 846 637 1247
g Group2869
f 583 468 444 555
f 496 495 377 378
f 378 377 497 498
g Group17373
f 864 663 679 865
f 680 1189 953 856
g Group2869
f 498 497 379 380
f 554 439 463 582
f 381 382 499 500
f 500 499 383 384
g Group17373
f 771 777 778 762
g Group15274
f 979 999 969 990
g Group2869
f 502 501 382 381
f 584 464 439 554
f 380 379 503 504
g Group17373
f 859 659 946 764
f 1273 1211 777 771
g Group2869
f 504 503 384 383
f 553 443 468 583
f 493 494 505 506
f 506 505 541 542
g Group17373
f 1212 1213 712 719
g Group2869
f 510 509 507 508
g Group15274
f 1067 1019 1031 1066
g Group17373
f 874 667 678 875
g Group15274
f 1174 1170 1169 1173
f 1039 1043 1123 1124
g Group2869
f 587 474 450 559
f 552 442 466 580
g Group17373
f 1243 1247 637 644
g Group2869
f 596 481 480 594
g Group15274
f 995 964 1073 1176
g Group2869
f 512 511 508 507
f 579 462 438 551
g Group17373
f 938 1273 771
g Group2869
f 509 510 513 514
f 514 513 385 386
f 594 480 454 566
g Group15274
f 1278 1279 1285 1284
g Group2869
f 386 385 515 516
f 516 515 387 388
f 581 467 443 553
f 389 390 517 518
f 560 446 470 588
g Group15274
f 989 978 998 968
g Group2869
f 518 517 391 392
g Group17373
f 882 688 674 883
f 612 614 645 646
g Group2869
f 520 519 390 389
g Group17373
f 746 858 947 767
g Group2869
f 388 387 521 522
f 522 521 392 391
g Group17373
f 1229 631 630 1230
g Group2869
f 511 512 523 524
g Group17373
f 871 676 690 886
g Group2869
f 576 459 446 560
f 524 523 543 544
f 386 533 417 514
f 514 417 414 509
f 393 395 413 411
g Group15274
f 1407 1408 1321 1322
g Group2869
f 513 418 534 385
g Group15274
f 1130 1158 1105 1104
f 1027 1025 1173 1169
g Group2869
f 396 394 412 414
f 385 534 420 515
f 510 413 418 513
g Group15274
f 1061 1043 1039 1060
g Group17373
f 920 1198 1199 921
g Group2869
f 586 469 484 602
g Group15274
f 986 975 961 965
f 1078 1413 1388 1121
f 1016 1027 1169 1112
g Group2869
f 507 412 415 512
f 515 420 536 387
g Group15274
f 1316 1157 1162 1322
g Group2869
f 394 397 415 412
f 511 416 411 508
f 388 535 419 516
f 398 393 411 416
g Group17373
f 753 774 856 953
f 869 666 676 871
g Group15274
f 994 983 1012 1013
g Group2869
f 399 396 414 417
f 525 399 417 533
g Group15274
f 1003 985 996 974
g Group2869
f 603 485 469 586
f 400 526 534 418
f 395 400 418 413
f 516 419 533 386
g Group17373
f 756 1192 1187 906
g Group2869
f 401 525 533 419
f 527 401 419 535
f 390 538 421 517
g Group15274
f 1089 1139 1138 1088
g Group2869
f 402 528 536 420
f 526 402 420 534
g Group17373
f 909 1193 1194 910
g Group2869
f 517 421 537 391
f 403 530 537 421
f 529 403 421 538
f 508 411 413 510
f 585 473 488 604
f 404 532 539 422
f 531 404 422 540
g Group15274
f 1070 1040 1081 1082
f 961 1329 1365 976
g Group2869
f 405 529 538 423
f 392 540 422 518
g Group17373
f 759 1207 1190 755
g Group2869
f 532 406 424 539
f 509 414 412 507
f 601 487 473 585
f 407 531 540 425
f 528 407 425 536
g Group17373
f 1219 628 823 1220
g Group2869
f 506 410 397 493
f 408 527 535 426
f 530 408 426 537
f 542 429 410 506
f 518 422 539 389
f 409 398 416 427
f 430 409 427 432
f 505 409 430 541
f 410 429 431 428
f 397 410 428 415
g Group15274
f 1010 1009 963 973
f 1044 1025 1027 1045
f 1410 1411 1360 1361
g Group2869
f 598 597 578 577
g Group15274
f 1013 1012 1004 1005
g Group17373
f 1209 758 768 1207
f 745 754 768 749
g Group15274
f 1024 1041 1084 1080
g Group2869
f 596 595 577 578
g Group17373
f 785 817 624 617
g Group15274
f 1045 1027 1016 1063
f 1409 1074 1171 1320
f 998 979 990 968
g Group17373
f 863 907 908 862
g Group15274
f 1163 1145 1144 1140
f 1362 1144 1074 1409
g Group2869
f 594 593 595 596
g Group15274
f 1073 1155 1154 1072
f 1111 1128 1127 1110
g Group2869
f 545 433 440 556
g Group15274
f 1150 1368 1332 1076
g Group17373
f 1238 1249 634 647
f 749 768 758 766
g Group2869
f 566 565 593 594
g Group17373
f 781 794 618 611
g Group15274
f 1103 1102 1101 1100
g Group17373
f 912 1255 1256 915
g Group15274
f 1178 1116 1165 1164
g Group2869
f 573 457 433 545
g Group17373
f 788 824 820 786
g Group15274
f 1413 1414 1387 1388
g Group2869
f 568 567 599 600
g Group17373
f 691 889 958 681
g Group15274
f 1034 1022 1148 1178
g Group17373
f 852 660 661 946
f 890 669 683 899
g Group2869
f 600 599 601 602
g Group15274
f 992 981 1001 971
g Group17373
f 1240 840 841 1241
g Group2869
f 558 445 485 603
f 588 470 445 558
g Group15274
f 1008 1371 1281 1006
g Group17373
f 868 869 913 914
f 948 938 697 945
f 705 1203 1202 704
f 666 685 686 676
f 649 612 850 806
g Group15274
f 1042 1039 1124 1100
g Group2869
f 602 601 585 586
g Group15274
f 1371 1372 1282 1281
g Group17373
f 696 900 901 716
g Group15274
f 1162 1157 1156 1161
g Group17373
f 930 1263 1261 927
g Group15274
f 1144 1145 1137 1074
g Group17373
f 943 902 901 944
g Group15274
f 1313 1051 1067 1355
f 1411 1412 1359 1360
g Group2869
f 557 449 474 587
g Group17373
f 865 679 665 868
g Group15274
f 1412 1003 977 1359
f 980 1287 1400 1000
f 1311 1312 1354 1353
g Group2869
f 577 461 479 598
g Group17373
f 854 950 658 872
f 955 956 950 854
g Group2869
f 604 603 586 585
g Group17373
f 1258 1271 945 697
f 1235 1230 630 656
f 902 943 941 899
f 752 896 858 746
g Group15274
f 1170 1113 1112 1169
f 1093 1153 1152 1181
f 1439 1438 1369 1368
g Group2869
f 491 395 393 489
f 543 431 471 589
g Group17373
f 1253 707 700 1254
f 884 928 935 880
f 1241 1237 636 643
f 875 918 919 874
f 907 1252 1253 908
g Group15274
f 966 988 1145 1163
g Group17373
f 692 678 667 668
g Group2869
f 556 440 464 584
g Group17373
f 765 1272 1251 905
g Group15274
f 1139 1119 1079 1138
g Group2869
f 590 475 432 544
g Group17373
f 805 804 621 650
f 899 683 684 902
g Group15274
f 1056 1021 1033 1047
g Group17373
f 910 937 861 864
g Group2869
f 604 488 449 557
g Group17373
f 629 634 655 654
g Group15274
f 1009 1010 1109 1106
g Group2869
f 565 453 477 593
f 607 608 605 606
g Group15274
f 1414 1415 1386 1387
g Group17373
f 672 671 682 687
g Group15274
f 1372 1373 1283 1282
g Group17373
f 1242 842 843 1243
g Group15274
f 1175 1278 1284 1127
g Group17373
f 769 1209 1207 759
f 1270 711 709 1269
g Group15274
f 984 1275 1335 960
g Group17373
f 677 691 681 694
g Group15274
f 1373 1059 1058 1283
f 1275 1276 1336 1335
g Group17373
f 674 673 671 672
g Group15274
f 977 1003 974 988
f 996 985 962 967
g Group17373
f 870 686 685 866
g Group15274
f 1036 1042 1100 1101
f 1276 1277 1337 1336
g Group17373
f 1234 1233 654 653
f 887 930 927 885
f 750 895 904 769
g Group15274
f 1277 1044 1045 1337
f 1108 1111 1110 1107
f 1127 1284 1374 1110
f 1140 1439 1368 1150
f 1177 1146 1149 1148
g Group17373
f 748 776 956 873
f 900 696 695 898
g Group15274
f 1022 1033 1177 1148
f 1318 1317 1412 1411
g Group17373
f 808 801 830 835
f 888 897 959 931
f 688 675 673 674
g Group15274
f 1072 1338 1278 1175
g Group17373
f 767 750 769 759
f 1251 698 699 1252
g Group15274
f 1284 1285 1375 1374
f 989 968 1119 1139
g Group17373
f 862 693 662 863
g Group15274
f 1033 1022 1054 1047
g Group17373
f 752 746 755 761
f 744 752 761 775
g Group15274
f 1338 1339 1279 1278
f 1001 982 993 971
f 1285 1286 1376 1375
g Group17373
f 876 877 920 921
f 889 691 667 874
f 1224 825 951 1274
g Group2869
f 542 541 581 582
g Group15274
f 1115 1114 1095 1094
g Group17373
f 958 889 932 939
g Group15274
f 965 987 1151 1077
f 1301 1303 1304 1302
g Group2869
f 544 543 589 590
f 608 571 569 605
f 463 471 431 429
g Group17373
f 939 932 1250 1267
g Group2869
f 494 398 409 505
f 475 467 430 432
f 504 407 528 380
f 519 423 538 390
g Group15274
f 1077 1151 1150 1076
f 1102 1174 1173 1101
g Group2869
f 477 453 455 483
f 478 477 483 484
g Group17373
f 913 1195 1196 914
g Group15274
f 1005 1015 1133 1134
f 1054 1022 1034 1053
f 1043 1061 1126 1123
g Group17373
f 662 660 893 863
f 683 715 716 684
g Group15274
f 1136 1134 1131 1135
f 995 984 960 964
g Group17373
f 690 689 675 688
g Group15274
f 1339 1340 1280 1279
g Group17373
f 868 665 666 869
f 744 857 896 752
f 1259 1264 1185 1199
g Group2869
f 574 573 545 546
g Group15274
f 1303 1046 1052 1304
g Group2869
f 559 450 460 575
f 546 545 556 555
f 574 458 442 552
f 576 575 547 548
f 548 547 564 563
f 550 441 482 597
f 383 531 407 504
f 389 539 424 520
f 433 457 459 435
f 440 433 435 448
f 452 436 434 444
f 436 460 458 434
f 503 408 530 384
f 379 527 408 503
g Group17373
f 865 868 914 909
g Group15274
f 1013 1005 1134 1136
f 1340 1170 1174 1280
f 1180 1129 1143 1142
f 1091 1364 1407 1075
g Group17373
f 615 622 641 642
g Group15274
f 1287 1288 1399 1400
f 1286 1102 1103 1376
g Group17373
f 1226 790 628 1219
g Group15274
f 1023 1034 1178 1164
f 1011 1007 1128 1111
g Group17373
f 878 876 921 934
g Group15274
f 993 972 1122 1095
g Group17373
f 676 686 689 690
f 1248 1242 635 648
f 1270 943 944 1212
g Group2869
f 597 598 549 550
g Group15274
f 1046 1038 1041 1052
f 1050 1319 1410 1071
g Group2869
f 550 549 579 580
g Group15274
f 1420 1419 1328 1327
g Group2869
f 595 478 461 577
g Group15274
f 1182 1078 1121 1120
g Group17373
f 885 675 689 887
g Group2869
f 551 438 457 573
f 582 581 553 554
f 554 553 583 584
f 580 466 441 550
f 549 437 462 579
f 584 583 555 556
g Group17373
f 1206 1194 699 698
g Group2869
f 568 455 571 608
g Group15274
f 1394 1060 1059 1373
g Group2869
f 603 604 557 558
f 558 557 587 588
f 598 479 437 549
g Group15274
f 1087 1078 1182 1086
g Group17373
f 682 671 880 881
g Group15274
f 1092 1421 1326 1094
g Group17373
f 697 938 1191 1187
g Group2869
f 590 589 561 562
f 548 435 459 576
f 607 572 456 567
f 562 561 591 592
f 592 591 563 564
f 566 454 570 606
g Group15274
f 1368 1369 1333 1332
g Group17373
f 891 672 687 892
g Group2869
f 600 483 455 568
f 437 479 485 445
f 462 437 445 470
f 381 529 405 502
g Group17373
f 1262 704 703 1265
f 886 690 688 882
g Group2869
f 472 447 439 464
f 447 471 463 439
f 387 536 425 521
f 501 406 532 382
g Group17373
f 1218 627 827 1227
g Group2869
f 448 472 464 440
f 606 570 572 607
f 474 449 441 466
f 449 488 482 441
f 602 484 483 600
f 500 403 529 381
g Group15274
f 971 993 1095 1114
f 1128 1176 1175 1127
g Group2869
f 384 530 403 500
f 521 425 540 392
f 499 404 531 383
f 391 537 426 522
f 443 467 475 451
f 468 443 451 476
g Group17373
f 1256 702 706 1263
g Group2869
f 382 532 404 499
f 444 468 476 452
g Group17373
f 878 670 692 876
g Group15274
f 1006 1281 1275 984
g Group17373
f 662 693 679 663
f 693 664 665 679
g Group15274
f 976 1365 1442 997
f 1421 1420 1327 1326
g Group17373
f 670 878 879 713
f 694 1188 959 897
g Group15274
f 966 997 977 988
g Group17373
f 924 1201 1202 925
g Group15274
f 1060 1039 1042 1059
g Group17373
f 1222 824 787 1217
g Group15274
f 1083 1082 1081 1080
g Group2869
f 524 427 416 511
g Group17373
f 897 888 677 694
g Group15274
f 1365 1366 1441 1442
f 1055 1029 1018 1068
f 982 1323 1424 1002
g Group17373
f 898 695 682 881
g Group15274
f 1143 1146 1177 1142
f 1040 1024 1080 1081
g Group2869
f 493 397 394 490
f 567 456 486 599
g Group17373
f 876 692 668 877
g Group15274
f 1010 973 1108 1109
g Group17373
f 877 888 931 920
f 866 912 915 870
g Group2869
f 489 393 398 494
g Group17373
f 1257 853 789 1223
g Group15274
f 1325 1049 1064 1422
g Group17373
f 916 1197 1195 913
g Group15274
f 1312 1313 1355 1354
g Group2869
f 450 474 466 442
g Group15274
f 1366 1367 1440 1441
g Group17373
f 747 765 905 893
f 871 886 929 916
f 659 657 872 658
g Group15274
f 1085 1083 1080 1084
f 1281 1282 1276 1275
f 1031 1019 1086 1182
g Group17373
f 884 673 675 885
g Group15274
f 993 982 1002 972
f 1090 1091 1075 1183
f 1037 1018 1090 1183
g Group2869
f 465 482 488 473
g Group15274
f 1095 1122 1092 1094
g Group17373
f 886 882 926 929
g Group15274
f 1007 995 1176 1128
g Group17373
f 1198 1205 1250 1260
f 1236 1235 656 655
f 670 669 678 692
g Group15274
f 990 969 1158 1118
g Group2869
f 490 394 396 492
g Group17373
f 1272 855 698 1251
f 895 859 906 904
g Group2869
f 582 463 429 542
g Group17373
f 621 619 651 650
g Group2869
f 473 487 481 465
g Group17373
f 893 905 907 863
g Group15274
f 1282 1283 1277 1276
g Group17373
f 660 662 663 661
f 859 895 657 659
g Group2869
f 486 456 454 480
g Group17373
f 882 883 925 926
f 875 678 669 890
g Group2869
f 606 605 565 566
g Group17373
f 928 1262 1265 935
f 745 749 947 858
f 1220 823 788 1221
g Group2869
f 563 448 435 548
f 608 607 567 568
g Group17373
f 1186 753 953 1189
f 929 1204 1197 916
g Group2869
f 498 402 526 378
g Group15274
f 973 1011 1111 1108
g Group2869
f 453 569 571 455
g Group17373
f 766 872 657 894
f 749 766 894 947
g Group2869
f 456 572 570 454
f 522 426 535 388
f 380 528 402 498
g Group15274
f 1149 1116 1178 1148
f 1059 1042 1036 1058
f 1052 1041 1024 1069
g Group17373
f 946 661 861 764
g Group2869
f 599 486 487 601
f 492 396 399 495
g Group17373
f 925 883 891 924
f 756 764 861 937
g Group2869
f 487 486 480 481
f 541 430 467 581
g Group17373
f 954 957 951 853
f 665 664 685 666
g Group15274
f 1390 1392 1372 1371
g Group17373
f 835 830 1230 1235
f 867 911 912 866
g Group15274
f 1317 985 1003 1412
g Group2869
f 552 551 573 574
f 605 569 453 565
f 547 436 452 564
g Group15274
f 965 961 976 987
g Group2869
f 564 452 476 592
f 560 559 575 576
g Group17373
f 877 668 677 888
g Group2869
f 578 465 481 596
f 512 415 428 523
f 497 401 527 379
f 457 438 446 459
g Group15274
f 1020 1031 1182 1120
f 1319 1318 1411 1410
g Group2869
f 460 450 442 458
f 377 525 401 497
f 523 428 431 543
g Group15274
f 968 990 1118 1119
f 1369 1370 1334 1333
f 1005 1004 1014 1015
g Group17373
f 674 672 891 883
g Group2869
f 495 399 525 377
f 544 432 427 524
g Group17373
f 1223 789 820 1216
f 887 689 686 870
g Group2869
f 469 485 479 461
f 461 478 484 469
g Group15274
f 996 967 1089 1172
g Group17373
f 783 797 780 792
g Group15274
f 1031 1020 1062 1066
g Group17373
f 941 1269 1264 933
g Group15274
f 1071 1410 1361 1068
f 1007 1006 984 995
f 1363 1362 1409 1408
g Group17373
f 867 664 693 862
f 746 767 759 755
g Group15274
f 1364 1363 1408 1407
f 1050 1026 1030 1051
f 1125 1103 1100 1124
g Group17373
f 873 949 797 783
g Group2869
f 580 579 551 552
f 591 472 448 563
g Group15274
f 1141 1091 1090 1179
g Group17373
f 750 894 657 895
g Group2869
f 575 460 436 547
f 562 451 475 590
g Group15274
f 1408 1409 1320 1321
g Group17373
f 1269 709 1264
f 880 671 673 884
g Group2869
f 546 434 458 574
g Group17373
f 857 744 952 680
f 747 852 658 860
g Group2869
f 592 476 451 562
g Group17373
f 866 685 664 867
g Group15274
f 1295 1054 1053 1428
g Group2869
f 588 587 559 560
f 561 447 472 591
g Group17373
f 951 957 1210 1274
g Group2869
f 589 471 447 561
f 597 482 465 578
g Group17373
f 767 947 894 750
g Group15274
f 1034 1023 1049 1053
g Group2869
f 555 444 434 546
g Group15274
f 1419 1093 1165 1328
f 970 992 1097 1166
g Group2869
f 496 400 395 491
g Group15274
f 1438 1437 1370 1369
g Group17373
f 892 879 923 922
g Group15274
f 1153 1085 1084 1152
g Group17373
f 702 701 1195 1197
g Group2869
f 378 526 400 496
g Group15274
f 1367 1065 1055 1440
g Group2869
f 438 462 470 446
g Group15274
f 1323 1324 1423 1424
f 1097 1114 1115 1096
g Group2869
f 519 502 405 423
f 520 501 502 519
f 424 406 501 520
g Group17373
f 891 892 922 924
f 757 777 1211 1257
f 782 796 792 780
g Group15274
f 1058 1036 1025 1044
f 963 1390 1371 1008
f 1115 1427 1296 1096
f 1405 1406 1395 1396
f 1404 1405 1396 1397
f 1427 1426 1297 1296
f 1099 1141 1179 1098
g Group17373
f 794 781 796 782
f 774 753 760 751
f 922 1200 1201 924
g Group15274
f 1364 1091 1141 1437
f 1107 1404 1397 1106
f 1382 1113 1170 1340
f 1363 1364 1437 1438
f 991 970 1166 1105
g Group17373
f 609 610 798 784
f 784 798 611 618
f 898 940 942 900
g Group15274
f 1406 1125 1126 1395
g Group17373
f 834 831 804 805
f 620 619 621 613
f 1190 754 760 1208
f 940 1268 1213 942
f 1236 1249 851 836
f 899 941 933 890
f 609 620 613 610
g Group15274
f 1362 1363 1438 1439
f 1144 1362 1439 1140
f 1381 1382 1340 1339
f 1380 1381 1339 1338
f 1440 1055 1068 1361
f 1154 1380 1338 1072
f 1337 1045 1063 1379
f 1441 1440 1361 1360
f 1442 1441 1360 1359
f 1336 1337 1379 1378
f 1335 1336 1378 1377
f 997 1442 1359 977
f 1413 1078 1087 1358
f 960 1335 1377 975
f 1403 1147 1096 1296
f 1414 1413 1358 1357
f 1415 1414 1357 1356
f 1079 1415 1356 1138
f 1402 1403 1296 1297
f 1401 1402 1297 1298
f 988 974 1137 1145
g Group17373
f 691 677 668 667
f 751 745 858 896
f 627 787 823 628
g Group15274
f 1355 1067 1066 1416
f 1354 1355 1416 1417
f 1146 1401 1298 1149
f 1293 981 1000 1400
g Group17373
f 772 778 777 757
f 1231 633 632 1232
f 789 853 951 825
f 820 789 825 786
g Group15274
f 1353 1354 1417 1418
f 978 1353 1418 998
f 1294 1293 1400 1399
f 1295 1294 1399 1398
f 1352 1083 1085 1309
f 1054 1295 1398 1047
f 1389 1009 1106 1397
f 1351 1352 1309 1307
f 1350 1351 1307 1305
f 1391 1389 1397 1396
f 1393 1391 1396 1395
f 1131 1350 1305 1135
f 1304 1052 1069 1345
f 1302 1304 1345 1343
f 1061 1393 1395 1126
f 1393 1061 1060 1394
f 1069 1024 1040 1070
f 1079 1119 1118 1117
f 1375 1376 1406 1405
g Group17373
f 636 647 648 635
g Group15274
f 1287 980 999 1436
f 1288 1287 1436 1435
g Group17373
f 638 643 644 637
f 948 954 1211 1273
g Group15274
f 1289 1288 1435 1434
f 1056 1289 1434 1057
g Group17373
f 791 638 637 846
f 640 791 846 639
g Group15274
f 1356 1357 1315 1314
f 1357 1358 1316 1315
g Group17373
f 935 1265 1266 936
g Group15274
f 1018 1029 1179 1090
f 1135 1305 1306 1159
g Group17373
f 1200 922 923 1184
f 1192 1206 698 855
f 880 935 936 881
f 952 903 1189 680
f 713 687 682 714
g Group15274
f 1331 1048 1065 1367
g Group17373
f 915 1256 1263 930
g Group15274
f 981 1293 1430 1001
f 1293 1294 1429 1430
f 983 1299 1300 1012
f 1299 1301 1302 1300
g Group17373
f 1228 625 631 1229
f 1257 1211 954 853
f 919 1260 1250 932
g Group15274
f 967 962 978 989
g Group17373
f 926 1203 1204 929
g Group15274
f 1038 1035 1181 1152
g Group17373
f 921 1199 1185 934
f 874 919 932 889
f 885 927 928 884
f 944 942 1213 1212
g Group15274
f 986 965 1077 1155
f 1151 1163 1140 1150
g Group17373
f 901 900 942 944
f 927 1261 1262 928
g Group15274
f 1168 1099 1098 1167
f 1017 1028 1167 1098
f 1172 1089 1088 1171
g Group17373
f 923 934 1185 1184
g Group15274
f 1300 1302 1343 1341
f 1391 1393 1394 1392
g Group17373
f 931 1205 1198 920
f 890 933 918 875
f 774 751 896 857
f 901 902 684 716
g Group15274
f 1433 1130 1104 1290
f 1432 1433 1290 1291
f 1012 1300 1341 1004
f 1389 1391 1392 1390
f 1009 1389 1390 963
f 1349 1082 1083 1352
f 1138 1356 1314 1088
g Group17373
f 879 892 687 713
f 933 1264 1259 918
f 658 852 946 659
g Group15274
f 1037 1026 1050 1071
f 1026 1037 1183 1161
f 1431 1432 1291 1292
f 1129 1431 1292 1143
g Group17373
f 1255 701 702 1256
g Group15274
f 1126 1125 1124 1123
f 1117 1118 1158 1130
f 1051 1030 1019 1067
f 1032 1020 1120 1180
f 1120 1121 1129 1180
g Group17373
f 903 775 1186 1189
f 702 1197 1204 706
f 879 878 934 923
g Group15274
f 985 1317 1311 962
f 1329 1330 1366 1365
g Group17373
f 1234 1231 831 834
g Group15274
f 1048 1028 1017 1065
g Group17373
f 1185 1264 717 1184
g Group15274
f 1305 1307 1308 1306
g Group17373
f 718 709 711 719
f 773 779 776 748
g Group15274
f 1019 1030 1156 1086
f 1122 1160 1159 1092
f 1011 1008 1006 1007
f 1157 1087 1086 1156
f 1294 1295 1428 1429
g Group17373
f 706 1204 1203 705
g Group15274
f 972 1002 983 994
f 1183 1075 1162 1161
f 1018 1037 1071 1068
g Group17373
f 701 700 1196 1195
f 717 1264 709 718
f 1267 681 958 939
f 681 1267 1188 694
f 1202 1201 703 704
g Group15274
f 973 963 1008 1011
f 964 960 975 986
g Group17373
f 1205 931 959 1188
f 954 948 945 957
f 914 1196 1193 909
f 720 792 796 724
g Group15274
f 1348 1349 1352 1351
f 1347 1348 1351 1350
g Group17373
f 725 782 780 721
g Group15274
f 1437 1141 1099 1370
g Group17373
f 1240 638 791 1244
f 653 633 1231 1234
f 793 618 794 722
f 949 955 778 772
g Group15274
f 1132 1347 1350 1131
f 1346 1070 1082 1349
g Group17373
f 1274 1210 779 773
f 723 781 611 795
g Group15274
f 1021 1032 1180 1142
g Group17373
f 845 844 1214 1245
g Group15274
f 1030 1026 1161 1156
g Group17373
f 724 796 781 723
g Group15274
f 1436 999 979 1383
f 1435 1436 1383 1384
g Group17373
f 722 794 782 725
f 1245 1214 640 639
f 819 816 844 845
f 1244 791 640 1214
f 721 780 797 726
f 726 797 949 772
g Group15274
f 1344 1346 1349 1348
g Group17373
f 748 873 783 727
f 727 783 792 720
g Group15274
f 1342 1344 1348 1347
g Group17373
f 795 611 798 728
f 728 798 610 799
f 1245 639 846 1246
f 918 1259 1260 919
f 800 609 784 729
f 729 784 618 793
g Group15274
f 1014 1342 1347 1132
f 1345 1069 1070 1346
g Group17373
f 801 619 620 802
g Group15274
f 1113 1168 1167 1112
f 1402 1401 1292 1291
f 1288 1289 1398 1399
g Group17373
f 1263 706 705 1261
f 803 613 621 804
g Group15274
f 1343 1345 1346 1344
f 1341 1343 1344 1342
g Group17373
f 881 936 940 898
f 802 620 609 800
g Group15274
f 1289 1056 1047 1398
g Group17373
f 1237 837 838 1238
f 799 610 613 803
f 936 1266 1268 940
g Group15274
f 1004 1341 1342 1014
g Group17373
f 1233 1239 629 654
f 910 1194 1206 937
f 669 714 715 683
f 806 805 650 649
g Group15274
f 1028 1016 1112 1167
f 1434 1435 1384 1385
g Group17373
f 808 807 652 651
g Group15274
f 1155 1077 1076 1154
g Group17373
f 614 809 848 645
g Group15274
f 1057 1434 1385 1062
g Group17373
f 654 655 656 653
f 904 1191 1209 769
f 615 810 811 646
f 632 631 625 626
g Group15274
f 1386 1117 1130 1433
f 1376 1103 1125 1406
g Group17373
f 622 812 813 641
g Group15274
f 1387 1386 1433 1432
f 1063 1016 1028 1048
g Group17373
f 955 949 873 956
f 938 948 1273
g Group15274
f 1065 1017 1029 1055
f 1388 1387 1432 1431
g Group17373
f 616 814 815 642
g Group15274
f 1121 1388 1431 1129
g Group17373
f 816 624 817 730
f 730 817 623 818
f 633 630 631 632
g Group15274
f 1323 982 1001 1430
g Group17373
f 790 827 627 628
g Group15274
f 1324 1323 1430 1429
g Group17373
f 624 816 819 617
g Group15274
f 1325 1324 1429 1428
g Group17373
f 814 616 785 731
f 731 785 617 819
f 626 625 827 790
f 724 736 732 720
f 736 1221 1215 732
f 862 908 911 867
f 908 1253 1254 911
g Group15274
f 1134 1133 1132 1131
f 1015 1014 1132 1133
g Group17373
f 733 1216 1222 737
f 721 733 737 725
g Group15274
f 1035 1023 1164 1181
g Group17373
f 761 1208 1186 775
f 734 1217 1218 821
f 722 734 821 793
f 795 822 735 723
f 822 1219 1220 735
f 755 1190 1208 761
g Group15274
f 1049 1023 1035 1064
g Group17373
f 723 735 736 724
f 735 1220 1221 736
f 1207 768 754 1190
f 864 865 909 910
f 766 758 938 872
g Group15274
f 967 989 1139 1089
g Group17373
f 737 1222 1217 734
f 725 737 734 722
f 772 757 738 726
f 757 1257 1223 738
f 738 1223 1216 733
f 726 738 733 721
f 720 732 739 727
f 732 1215 1224 739
f 739 1224 1274 773
f 727 739 773 748
f 799 826 740 728
f 826 1225 1226 740
f 740 1226 1219 822
f 728 740 822 795
f 793 821 741 729
f 821 1218 1227 741
f 741 1227 1228 828
f 729 741 828 800
f 1261 705 704 1262
f 1208 760 753 1186
f 829 1229 1230 830
f 802 829 830 801
f 804 831 832 803
f 831 1231 1232 832
f 937 1206 1192 756
f 1265 703 708 1266
f 800 828 829 802
f 828 1228 1229 829
f 1271 1210 957 945
g Group15274
f 992 971 1114 1097
g Group17373
f 1201 1200 708 703
g Group15274
f 1165 1093 1181 1164
g Group17373
f 832 1232 1225 826
f 803 832 826 799
f 872 762 854
f 805 806 833 834
f 834 833 1233 1234
f 762 778 955 854
f 807 808 835 836
f 938 771 762 872
f 870 915 930 887
f 836 835 1235 1236
f 636 1237 1238 647
f 837 812 848 838
g Group15274
f 1064 1035 1038 1046
f 1029 1017 1098 1179
g Group17373
f 629 1239 1248 648
f 839 850 811 849
g Group15274
f 1358 1087 1157 1316
f 994 1013 1136 1160
f 1317 1318 1312 1311
f 1426 1425 1298 1297
g Group17373
f 840 818 813 841
f 638 1240 1241 643
f 635 1242 1243 644
f 842 810 815 843
g Group15274
f 1425 1116 1149 1298
f 1110 1374 1404 1107
g Group17373
f 818 840 742 730
f 840 1240 1244 742
f 742 1244 1214 844
f 730 742 844 816
f 819 845 743 731
f 845 1245 1246 743
f 743 1246 1247 847
f 731 743 847 814
f 833 839 1239 1233
f 763 779 1210 1271
f 1239 839 849 1248
g Group15274
f 962 1311 1353 978
f 1049 1325 1428 1053
f 1427 1115 1094 1326
g Group17373
f 950 956 776 770
f 641 623 616 642
g Group15274
f 1426 1427 1326 1327
f 1425 1426 1327 1328
g Group17373
f 643 636 635 644
g Group15274
f 1374 1375 1405 1404
f 999 980 991 969
f 1041 1038 1152 1084
g Group17373
f 859 764 756 906
f 952 744 775 903
f 715 695 696 716
f 717 708 1200 1184
f 917 763 1271 1258
g Group15274
f 1147 1403 1290 1104
f 1403 1402 1291 1290
g Group17373
f 806 850 839 833
f 658 950 770 860
f 813 818 623 641
f 616 623 817 785
g Group15274
f 1334 1168 1113 1382
g Group17373
f 815 810 615 642
g Group15274
f 1319 1050 1051 1313
f 1280 1174 1102 1286
g Group17373
f 813 812 837 841
f 841 837 1237 1241
f 1221 788 786 1215
f 815 814 847 843
g Group15274
f 1032 1021 1056 1057
f 1318 1319 1313 1312
g Group17373
f 843 847 1247 1243
g Group15274
f 1116 1425 1328 1165
f 1401 1146 1143 1292
g Group17373
f 645 622 615 646
f 1193 707 699 1194
g Group15274
f 1283 1058 1044 1277
g Group17373
f 1225 626 790 1226
g Group15274
f 1160 1136 1135 1159
f 1279 1280 1286 1285
f 964 986 1155 1073
g Group17373
f 1196 700 707 1193
f 1254 700 701 1255
g Group15274
f 1025 1036 1101 1173
g Group17373
f 1260 1259 1199 1198
f 1267 1250 1205 1188
g Group15274
f 1109 1108 1107 1106
g Group17373
f 925 1202 1203 926
f 1268 710 712 1213
f 712 710 718 719
f 848 812 622 645
f 669 670 713 714
f 869 871 916 913
f 823 787 824 788
g Group15274
f 1075 1407 1322 1162
f 1000 981 992 970
f 1088 1314 1320 1171
g Group17373
f 1217 787 627 1218
g Group15274
f 987 966 1163 1151
f 1314 1315 1321 1320
f 1330 1331 1367 1366
g Group17373
f 811 810 842 849
f 849 842 1242 1248
f 1266 708 710 1268
g Group15274
f 1105 1166 1147 1104
g Group17373
f 1191 904 906 1187
f 1216 820 824 1222
g Group15274
f 987 976 997 966
g Group17373
f 836 851 809 807
f 714 682 695 715
g Group15274
f 1309 1085 1153 1310
f 1307 1309 1310 1308
f 1333 1334 1382 1381
g Group17373
f 1215 786 825 1224
f 1232 632 626 1225
f 917 1258 1272 765
f 860 917 765 747
g Group15274
f 1315 1316 1322 1321
g Group17373
f 751 760 754 745
f 710 708 717 718
f 1227 827 625 1228
g Group15274
f 1383 979 998 1418
g Group17373
f 647 634 629 648
g Group15274
f 1074 1137 1172 1171
f 991 980 1000 970
f 972 994 1160 1122
f 969 991 1105 1158
g Group17373
f 856 774 857 680
f 651 619 801 808
g Group15274
f 1332 1333 1381 1380
g Group17373
f 811 850 612 646
f 1191 938 758 1209
f 943 1270 1269 941
f 848 809 851 838
f 838 851 1249 1238
g Group15274
f 1020 1032 1057 1062
f 1310 1153 1093 1419
f 1308 1310 1419 1420
f 1076 1332 1380 1154
f 1379 1063 1048 1331
f 1384 1383 1418 1417
f 1385 1384 1417 1416
g Group17373
f 893 660 852 747
f 652 614 612 649
g Group15274
f 1306 1308 1420 1421
f 1159 1306 1421 1092
f 1378 1379 1331 1330
f 1377 1378 1330 1329
f 1062 1385 1416 1066
f 1415 1079 1117 1386
g Group17373
f 656 630 633 653
f 711 1270 1212 719
g Group15274
f 975 1377 1329 961
f 1422 1064 1046 1303
g Group17373
f 1252 699 707 1253
g Group15274
f 1392 1394 1373 1372
f 1147 1166 1097 1096
f 1033 1021 1142 1177
f 1423 1422 1303 1301
g Group17373
f 860 770 763 917
f 770 776 779 763
g Group15274
f 1424 1423 1301 1299
g Group17373
f 655 634 1249 1236
f 1258 697 855 1272
g Group15274
f 1002 1424 1299 983
f 1370 1099 1168 1334
g Group30627
f 1488 1489 1482 1481
f 1458 1455 1454 1457
f 1483 1486 1476 1475
f 1446 1460 1462 1447
f 1443 1459 1460 1446
f 1479 1480 1490 1487
f 1475 1479 1487 1483
f 1477 1476 1486 1485
f 1457 1482 1480 1458
f 1478 1477 1485 1484
f 1452 1481 1482 1457
f 1458 1480 1479 1456
f 1450 1449 1446 1447
f 1474 1469 1487 1490
f 1473 1474 1490 1489
f 1472 1473 1489 1488
f 1479 1475 1448 1456
f 1447 1462 1463 1445
f 1449 1450 1476 1477
f 1444 1449 1477 1478
f 1450 1448 1475 1476
f 1457 1454 1451 1452
f 1461 1469 1471 1463
f 1468 1470 1474 1473
f 1467 1468 1473 1472
f 1469 1474 1470 1471
f 1448 1445 1453 1456
f 1463 1462 1466 1461
f 1465 1466 1462 1460
f 1456 1453 1455 1458
f 1464 1465 1460 1459
f 1449 1444 1443 1446
f 1448 1450 1447 1445
f 1471 1453 1445 1463
f 1455 1453 1471 1470
f 1454 1455 1470 1468
f 1451 1454 1468 1467
f 1487 1469 1461 1483
f 1466 1486 1483 1461
f 1465 1485 1486 1466
f 1464 1484 1485 1465
f 1489 1490 1480 1482
f 1467 1481 1452 1451
f 1481 1467 1472 1488
f 1459 1478 1484 1464
f 1443 1444 1478 1459

 