# File exported by ZBrush version 2021
# www.zbrush.com
#Vertex Count 1392
#Face Count 1389
#Auto scale x=0.047110 y=0.047110 z=0.047110
#Auto offset x=-0.029091 y=0.022900 z=-0.434581
v 3.84867155 5.03315466 6.47904497
v -3.05532868 5.01142842 6.34977406
v 5.05570961 -0.2786343 5.04277913
v 4.61086045 3.19039047 4.7035123
v 5.12172462 0.07898419 3.28932253
v 4.70752714 2.40628619 3.63699543
v 4.7274166 2.46556774 1.84235868
v 5.17086454 0.34862845 1.7585339
v 4.33920059 2.86780832 -1.07697765
v 4.59237189 2.62617386 0.36550734
v 4.86226995 0.82364147 -1.24853166
v 5.10230233 0.62918624 0.31645251
v 3.3129295 3.79101327 -3.99015809
v 3.91952632 3.2737136 -2.50891267
v 3.58405892 1.41693402 -4.38461477
v 4.35200011 1.03640069 -2.83809701
v 5.21938893 -1.43006297 1.7683412
v 5.26823152 -1.14286021 0.28495187
v 5.04377991 -0.97887115 -1.34409445
v 4.45781556 -0.91107242 -3.00527844
v 3.58650015 -0.81810379 -4.56773788
v 5.03390967 -1.73854978 3.23557629
v 4.87916655 -2.08285856 4.86952658
v 2.57109725 2.15621497 -5.53724772
v 2.50157965 -0.58442296 -5.83735242
v 1.31513167 3.05515567 -6.18746591
v 1.14030815 -0.44282532 -6.65681054
v 2.48101093 4.7790357 -4.9195493
v 1.38897953 5.87279482 -5.4001657
v -0.34443925 -0.18975328 -6.96880191
v -0.09218056 3.5562856 -6.47668092
v -1.49601172 3.36136754 -6.20005352
v -1.82521726 -0.09469054 -6.45074153
v 0.10741455 6.4932919 -5.53856481
v -1.19860367 6.26790625 -5.39171788
v -2.71788693 -0.22597866 -5.38365088
v -2.66310068 2.51520267 -5.55363476
v -3.48425767 1.51610551 -4.13076373
v -3.44326888 -0.7065489 -3.79775844
v -2.32960733 5.32563265 -4.87172552
v -3.19081906 4.13638886 -3.68631849
v -3.94056902 0.40237153 0.14561967
v -3.91777147 0.82537275 -2.14474645
v -3.91375948 2.79402965 0.40089281
v -3.73802331 3.28329853 -1.81490419
v -3.72452317 2.59409723 3.0027613
v -3.35178134 3.3131604 4.66630176
v -3.20875567 -0.08409865 5.10907059
v -3.6425029 0.21520574 2.64124887
v -3.56859138 -1.48412868 0.18454964
v -3.73040293 -1.12445587 -1.95088294
v -2.57222898 -1.86669647 4.86526028
v -3.12416702 -1.65037314 2.48523168
v 1.47337706 -3.39688713 25.28197488
v 1.54522961 -2.84251688 25.11859288
v 2.1883789 -2.91579247 24.5973062
v 2.21228019 -3.49162753 24.67049624
v 2.79550647 -2.91740356 23.78576578
v 2.95634143 -3.57235381 23.77780506
v -2.39572862 -3.30780412 23.91195811
v -2.9105197 -3.41158606 23.12487046
v -3.38542588 -3.49106388 22.17788141
v -3.30571937 -2.9112619 22.31184341
v -2.90599846 -2.89960296 23.13951656
v -2.43512545 -2.81609828 23.79219686
v -3.18587303 -1.62069259 20.61124171
v -3.83872318 -2.07909329 20.24463489
v -2.90171065 -1.92750766 21.91002193
v -3.43409862 -2.31277368 21.53256718
v -3.73087011 -2.85443755 21.21717998
v -4.1816411 -2.72224353 19.84474413
v -4.32258676 -3.48973414 19.50800266
v -3.8717095 -3.52233583 20.98069272
v 4.38401031 -2.80991629 20.88073584
v 4.7985048 -3.7085546 20.727139
v 3.83137166 -3.64750207 22.46401815
v 3.52799892 -2.88202441 22.54707811
v 2.75150331 -1.57359394 21.34683267
v 3.68940719 -2.07957644 21.10034896
v 3.00788004 -2.27886455 22.70734009
v 2.24881147 -1.87450932 22.91943785
v -2.670976 -2.18116355 22.89264949
v -2.50542859 -2.44375974 23.51909434
v -2.91402212 2.46021146 9.90194314
v -3.32584226 0.99892698 9.30048317
v -3.24051093 -0.6757809 8.84761043
v -2.58069863 -2.16873947 8.61235438
v 5.29799154 -1.07123584 8.39378253
v 5.18996862 -2.65686144 8.08109134
v 3.93266587 2.3320843 9.81765166
v 4.78504705 0.73280701 9.01216022
v -3.55405124 0.08695843 14.74015618
v -3.1960833 1.20900751 12.27551837
v -4.43943992 -1.94981858 13.81715335
v -4.20940588 -0.83032646 14.24935133
v -3.7948475 -1.30445343 11.33729598
v -3.73331102 0.06021709 11.75633321
v -4.10870601 -3.08270156 13.5245637
v -3.26390282 -2.61689083 11.09945019
v 5.86703842 -2.2819047 13.79407998
v 6.06990234 -3.50544113 13.45177727
v 5.57899121 -1.72431337 11.04419692
v 5.63165474 -3.11189872 10.69382817
v 3.9724236 1.01507632 12.26377972
v 4.93768865 -0.24969901 11.60689686
v 5.09542464 -1.05377788 14.27669131
v 4.00557977 -0.04205409 14.8118172
v -3.476234 -1.2307547 18.99376322
v -3.57353741 -0.70749562 16.97964177
v -4.49195511 -2.56357018 18.10179385
v -4.14154397 -1.80276416 18.54201581
v -4.64939377 -2.34046096 16.10151256
v -4.28648012 -1.4204982 16.52507103
v -4.59116868 -3.43661545 17.74204323
v -4.61303219 -3.35214446 15.77192461
v 5.84107784 -2.59010976 16.44727499
v 6.15606143 -3.71868327 16.13594217
v 5.75358141 -3.75368063 18.60641767
v 5.31909086 -2.69399212 18.85298741
v 3.85395698 -0.72799401 17.27825984
v 5.00247293 -1.53696618 16.84512814
v 4.45123518 -1.81142272 19.14946158
v 3.32330931 -1.2020607 19.44816442
v 5.04740981 -4.19705993 1.82769107
v 5.07935612 -3.96311701 0.22456199
v 4.7177159 -3.84703152 -1.31976947
v 3.95064486 -3.91311865 -2.77876865
v 2.91817581 -4.06138167 -3.87561837
v 4.57360752 -4.75978549 4.91382674
v 4.80030931 -4.47431488 3.34241086
v 6.09151154 -5.67741306 18.43087255
v 6.42481415 -5.66269326 15.86201093
v 1.79498357 -4.29324964 -4.85701615
v 0.6382531 -4.28012147 -5.1971952
v -0.55452041 -4.19691886 -5.34363852
v -1.74629628 -3.98943502 -4.85780058
v -2.66121172 -3.90437982 -4.05523937
v -3.24314289 -3.90721864 -2.71364435
v -3.34520129 -4.10694957 -1.2772735
v -2.99808002 -4.33525375 0.48643638
v -2.40547171 -4.5078212 2.50805042
v -1.71507162 -4.62080502 4.80705606
v -3.36477223 -4.74552939 22.40568678
v -2.95155118 -4.60834109 23.106764
v -2.36792146 -4.41662465 24.20926036
v 1.19373592 -4.6619839 25.72671871
v 2.16498701 -4.87377674 24.92878312
v 2.78128453 -5.03206752 24.29815801
v -1.66461572 -4.67702539 8.42831857
v 4.88003701 -5.11663941 7.86338964
v -2.50468559 -4.92288946 10.82764167
v 6.16028598 -5.54056701 13.1108334
v 5.51023796 -5.34969573 10.34829917
v -4.63005626 -5.14744798 19.18620463
v -4.07973168 -4.97236371 20.89160402
v 4.05089875 -5.31729648 22.74864803
v 5.22683945 -5.56013953 20.75764328
v -4.53251942 -5.28769651 15.37405059
v -4.85225832 -5.28487729 17.33862884
v -3.11172808 -2.46443933 22.53313293
v -2.87477395 -2.57114121 23.12349138
v 2.46483613 -2.43371174 23.86978098
v 2.1192434 -2.55102512 24.50443958
v 1.63051871 -2.42561706 24.78359235
v 1.86564745 -2.14232072 24.07860942
v -3.79716094 -5.17684678 13.236538
v -1.79467201 6.29106344 7.84935875
v -1.82865611 -2.74453421 24.38351054
v -1.88819702 -2.33911209 23.99782052
v -1.91653463 3.38788609 10.63112438
v -2.18810972 1.89106131 12.85407459
v -1.80587974 -3.23764934 24.57945532
v -1.98586133 -2.00664309 23.31230289
v -2.51540511 -0.26649237 17.3904431
v -2.48284327 -0.87178685 19.39032142
v -2.52597596 0.60699607 15.22414754
v -2.27832351 -1.32346207 20.98020434
v -2.11413462 -1.68730305 22.29675195
v -2.01301027 -4.34681242 24.82292529
v 1.47590306 6.74998778 8.69711288
v 1.36633056 3.92268334 11.16192055
v 1.18925707 2.31293499 13.31320926
v 2.62034328 6.23440025 7.84611126
v 0.64540651 -4.55262428 25.92603781
v -0.05390874 -1.91121757 24.04180311
v -0.12835094 -2.28571046 24.80842848
v 1.98054776 -0.83425289 19.69331206
v 2.40593193 -0.25720994 17.62160255
v -0.18048388 -2.72699567 25.27494915
v 1.58454159 -1.27239657 21.55082294
v -0.23442101 -3.24959042 25.52631658
v 0.67406262 -3.30611285 25.62981858
v 0.42418131 -0.65677231 19.78895962
v 0.68081273 0.00760167 17.77702446
v 0.20679817 -1.13573216 21.61501224
v 0.97117343 0.99038933 15.63603126
v 1.25009293 -1.63778807 23.07768308
v 2.68107303 0.57803985 15.29506589
v 2.72293212 1.81420168 12.88290025
v 0.75996728 -2.75657587 25.4476292
v 0.85268571 -2.3163177 25.01103714
v 2.72310197 3.3417947 10.61857947
v -0.3836875 -4.42530275 26.00659265
v 1.00617634 -1.96963277 24.24706492
v 0.05920864 -1.54753759 22.94688411
v -1.38669385 -4.35762525 25.49887032
v -1.10229788 -1.56574084 22.65382791
v -1.08962551 -1.92118492 23.71283006
v -1.14521833 -0.6829294 19.67278588
v -1.12029822 -1.16726537 21.3079881
v -0.68077703 2.24711039 13.22664656
v -0.97716627 0.89675567 15.52399666
v -1.05882548 -0.0301138 17.67169739
v -0.43966249 3.85855002 11.11925473
v -1.08582591 -3.22146031 25.13629574
v -1.07555223 -2.28796586 24.4509274
v -0.30194328 6.69747259 8.68110778
v -1.06850483 -2.71620261 24.89645566
v 4.93059903 -2.34760973 6.20710898
v 4.58912441 -4.94942825 6.1524502
v 1.45507963 5.41787805 9.68659775
v -0.32331866 5.35104508 9.67780989
v -1.79738906 4.86177525 9.00655643
v -1.46731305 -4.60793844 6.50753124
v -3.05435226 -0.30612036 6.84365686
v -3.20871329 1.74654395 7.266621
v -2.37331316 -1.95694711 6.60385822
v 5.12170343 -0.61128458 6.45497367
v 4.69090667 1.54409471 6.99990685
v 3.90999579 3.64236752 7.91178672
v -2.86439415 3.70561488 7.96912016
v 2.66678735 4.8271818 8.97660536
v -0.30438435 -3.82788252 25.71156272
v 0.60356858 -3.91996471 25.73111279
v 5.92916891 -4.81248224 18.5111307
v 6.28478039 -4.79462123 15.99132454
v 2.18292361 -4.16768106 24.76340588
v 2.97120025 -4.30913723 23.88400323
v -4.63740082 -4.35363793 17.4870459
v -4.41725821 -4.31364835 19.28178893
v -1.8471657 -3.79006626 24.6987282
v -1.16438614 -3.78223301 25.2939691
v 4.96935914 -4.03355331 7.99045307
v 4.69258339 -3.80039641 6.21627892
v -2.91380988 -4.00727547 23.11780171
v -2.38307744 -3.86688587 24.00399729
v -3.21314944 -3.12021544 0.35317468
v -2.66900195 -3.25174507 2.50482413
v -3.31805203 -2.60871535 -3.18888993
v -3.49015862 -2.87942693 -1.5882451
v -3.87185816 -4.21902782 13.38555002
v -4.50825706 -4.36735126 15.54704884
v -1.98675299 -3.55072752 8.54175423
v -2.76925583 -3.87979326 10.97576188
v 5.02047311 -4.65934625 20.68557676
v 1.37218913 -4.02803603 25.41619245
v 6.08662908 -4.63832411 13.27623215
v 4.68086626 -3.57029973 4.93670938
v 3.97480094 -4.48404057 22.49770571
v -2.02608593 -3.39668501 4.85006191
v 5.19408657 -2.69218017 0.25447036
v 4.87751102 -2.56328819 -1.33303522
v 5.1476637 -2.95191714 1.81977336
v 4.14484839 -2.59099556 -2.84868938
v 3.13394569 -2.65589466 -4.08754659
v 4.90519071 -3.24947022 3.3300143
v -1.78380384 -3.42368845 6.57828005
v 2.00222022 -2.71976672 -5.21171478
v 0.95071083 -2.66978844 -5.87256709
v -3.40896643 -4.13270425 22.1611768
v 5.52066015 -4.36340474 10.52133964
v -2.69455893 -2.40612535 -4.62651461
v -0.47383755 -2.50503431 -6.15273835
v -3.95757158 -4.25098394 20.8580025
v -1.78168128 -2.46341292 -5.54005017
v 2.32698961 -0.48015759 17.53107025
v 0.66081713 -0.22452878 17.67838404
v 0.93916349 0.76802485 15.512215
v 2.57288025 0.37126145 15.19035434
v 1.91888413 -1.065356 19.6145184
v 0.41237924 -0.89476217 19.70971998
v -0.03452868 -2.14119326 23.94093275
v -1.03660107 -2.14548217 23.60937107
v -1.05944117 -1.79883765 22.5715954
v 0.06553415 -1.78482265 22.86630776
v 5.80847362 -3.52918158 13.47342854
v 5.89631007 -3.75968091 16.11596762
v 5.59868962 -2.69165669 16.41125312
v 5.6146098 -2.36448356 13.79100203
v -0.6284744 2.04081412 13.0839179
v -2.05077276 1.69843819 12.74465044
v -1.75196381 3.22303107 10.50603515
v -0.3763431 3.67239008 10.94795487
v -3.48661381 -2.89422692 21.12751814
v -3.6249272 -3.53423579 20.89270728
v -4.06686826 -3.50322606 19.44914053
v -3.93038026 -2.76789225 19.77739115
v -3.65483588 0.82871537 -2.1157503
v -3.47757102 3.26334391 -1.7840621
v -3.6511636 2.79129078 0.39314465
v -3.67778178 0.42359555 0.13252282
v -0.252485 -3.91295797 25.46337983
v 0.54744507 -3.98385701 25.4773035
v 0.58306356 -4.63457908 25.68260959
v -0.34074578 -4.52739404 25.76310117
v -1.08206886 -1.40271793 21.23082909
v 0.20342313 -1.3750104 21.54003953
v 2.55532574 3.18918219 10.48977551
v 1.29893568 3.73551756 10.98325494
v 1.37068211 5.25676711 9.48250254
v 2.47946136 4.70418951 8.84071185
v -3.86048041 -3.04067736 13.60153198
v -3.02743675 -2.54864952 11.18798694
v -3.53624179 -1.28175986 11.40407518
v -4.17380848 -1.95509452 13.86376727
v 5.6771227 -4.84969405 18.44314132
v 6.02320333 -4.82339597 15.98075369
v 6.16389437 -5.69690493 15.85449683
v 5.83942231 -5.71865046 18.36659784
v 1.98305256 -4.91286075 24.74394058
v 1.99946079 -4.19639475 24.57731078
v 2.76659556 -4.34260369 23.72325288
v 2.58020346 -5.07342701 24.13539091
v -0.9961005 -2.48117287 24.29809475
v -1.76024225 -2.50954496 23.84413891
v -1.88934331 -2.21785171 23.20748506
v 4.85728185 -0.6245142 6.46437704
v 4.43610071 1.48584051 6.97490182
v 4.35299805 3.14647367 4.68156402
v 4.79188204 -0.28626644 5.03857673
v -4.59252751 -5.32879441 17.33949867
v -4.37414671 -4.37685585 17.4802536
v -4.16094506 -4.34365066 19.22836152
v -4.37718196 -5.19647972 19.13555816
v -0.93396985 0.67686824 15.405636
v 1.14066902 2.10476699 13.16279633
v 5.0345252 -1.10160114 8.40927807
v 4.53675788 0.65135601 8.98785564
v -1.65665564 -3.85454309 24.52757653
v -1.02736755 -3.86855722 25.08547973
v -1.24961151 -4.46144798 25.29997633
v -1.81921019 -4.42818206 24.66504064
v 4.623257 -5.10673248 7.91575617
v 4.71270629 -4.01345667 8.0409727
v 4.43281052 -3.77309121 6.24340667
v 4.32841749 -4.93054083 6.17798599
v -1.02244286 -0.26059276 17.57662297
v 1.53177185 -1.50670119 21.47614628
v -1.61507252 4.73123217 8.86238432
v -0.25099909 5.1917067 9.47849071
v -2.23510574 -2.86722427 23.6257366
v -2.1860082 -3.32977328 23.75458334
v -2.68275671 -3.41641885 22.99451684
v -2.67961519 -2.92294092 23.00621373
v -3.23346338 1.50486932 -4.04339445
v -3.46914407 -1.09314422 -1.93250067
v -3.19379073 -0.67982832 -3.71229963
v -1.11083111 -0.91840212 19.59322803
v -2.39602595 -1.09650692 19.31224956
v -2.41994828 -0.48656102 17.30502668
v -4.23373149 -2.60944047 18.06547528
v -3.91484218 -1.92738699 18.48822718
v -3.61715816 -2.20248776 20.16711404
v 0.82120645 -2.51906948 24.84515002
v -0.08846589 -2.4886234 24.65504293
v 0.97223479 -2.19974921 24.14464594
v 2.58260214 1.63223023 12.76424289
v 2.28810218 -2.58642483 23.7462418
v 1.94751906 -2.67903097 24.34553644
v 1.51167015 -2.594439 24.61609208
v 1.76106322 -2.35040838 23.97251879
v -3.21410467 -2.42962399 21.44076207
v -2.7215804 -4.62988672 22.98322482
v -2.68426389 -4.02058583 22.99158787
v -2.1638053 -3.89872116 23.861757
v -2.14484956 -4.45987659 24.07742138
v -3.38400378 0.25161185 2.60272187
v -2.87471038 -1.58682348 2.43921209
v -3.31155675 -1.43870153 0.1570186
v 5.09185864 -2.802768 18.77209224
v 5.50563163 -3.80472533 18.53104135
v -1.66773606 -2.84110775 24.19599334
v -0.95712815 -2.84569841 24.69545889
v -0.95647008 -3.30087708 24.92141831
v -1.6277237 -3.29097078 24.39280858
v 2.00185948 -2.97853691 24.41993601
v 2.58591352 -2.99263233 23.64494759
v -3.46498373 2.60106381 2.96489285
v -3.09088338 3.31356306 4.63316647
v -2.94987414 -0.03740261 5.07810071
v 3.5184045 -2.24966676 21.00506072
v 4.27409811 -1.98245934 19.06916042
v 4.16968357 -2.91581271 20.77190729
v 1.38456434 6.6032351 8.48251033
v 2.42622468 6.12608728 7.7073307
v 1.40993035 -2.92549823 24.90367244
v 1.33417202 -3.42938697 25.05924301
v 0.62914682 -3.36724604 25.36983252
v 0.72250206 -2.88500462 25.20887088
v -2.95770676 -3.08010408 0.3085348
v -2.42013932 -3.19735737 2.44460379
v -2.15665179 -4.46136669 2.44171721
v -2.74344391 -4.30110313 0.43409136
v 3.83678456 -0.22471002 14.73941287
v 3.71541016 -0.93066499 17.20375399
v -2.98186283 -0.63262912 8.89554049
v -3.06256697 0.96668873 9.31328293
v -3.47542712 -0.0033929 11.77522505
v -2.94291167 4.09927796 -3.60453133
v -2.41368642 0.39798243 15.12533695
v 1.20653564 -1.87277787 22.99784941
v 2.14091586 -2.08887955 22.8331731
v -4.32914594 -3.44305917 17.72083762
v -2.75002428 -2.11759372 21.82277917
v -3.03422936 -1.81327523 20.53053757
v 3.61044367 4.95168444 6.39925337
v 3.67529153 3.54893535 7.83441532
v -0.22656712 6.55305486 8.47009274
v -3.06651506 -2.57112144 -3.11480919
v -3.22809318 -2.84724877 -1.58605882
v -3.08271105 -4.0785582 -1.2829834
v -2.98978054 -3.87032915 -2.64501921
v -2.19341634 -1.54796033 20.90054148
v -2.02759312 -1.90978804 22.21326688
v -2.45371997 2.48656932 -5.38634705
v -2.12396248 5.26907067 -4.70828026
v -3.55362644 -5.17002032 13.33630383
v -3.626392 -4.19544868 13.47926592
v -4.2477412 -4.36982759 15.59404454
v -4.27559074 -5.30835648 15.42926132
v -2.32340905 -2.57263147 23.37129217
v -2.65514059 -2.65102153 22.99260637
v -2.88942037 -2.56949011 22.42839988
v -2.51466211 -2.36001324 22.78914876
v 5.31926072 -1.7803725 11.0563175
v 5.37190306 -3.11316757 10.73517801
v -0.12128243 -2.86754627 25.05949732
v -0.17201438 -3.332713 25.28295162
v 2.74645132 -3.6080151 23.62412345
v 2.02605794 -3.5175024 24.48626986
v -2.94501319 1.73565015 7.25651701
v -2.79364534 -0.2550952 6.85202023
v -1.74060741 -3.47954665 8.60121038
v -2.53141005 -3.82832471 11.07525173
v -2.2657998 -4.88815367 10.93137678
v -1.41435235 -4.62130858 8.48760486
v -2.32585028 -1.78754104 4.82972614
v 3.71086741 2.21187105 9.74223303
v 3.77331674 0.86310796 12.18867953
v -2.34030566 -2.08390568 8.67100395
v -2.12659476 -1.86885097 6.61071441
v -3.96058595 -0.92438246 14.24625219
v 4.80807835 -1.69982755 16.79078724
v -4.35052108 -3.33812938 15.79939175
v -4.38350771 -2.37223583 16.10178838
v 4.61778053 -2.05782949 4.8676161
v 4.67110198 -2.32012346 6.23391821
v 3.31556178 -2.97823484 22.42600103
v 2.8340118 -2.44351808 22.6038596
v -3.06566611 -2.939513 22.20772651
v 4.44890023 2.36704119 3.62731592
v 4.85902246 0.06436564 3.27616178
v 4.78714857 -4.70348478 20.57437087
v 4.99336656 -5.60963403 20.64906777
v 4.90918119 0.32114249 1.7528455
v 4.4702545 2.41675709 1.84170077
v 2.64106051 -1.78810477 21.26551364
v -3.40028454 -0.89099677 16.91547334
v -4.05052361 -1.53511352 16.4924665
v -3.35855276 -0.07989012 14.68322603
v 4.60780369 0.78270472 -1.19512576
v 4.84276258 0.59104782 0.33513211
v 4.33777849 2.56945026 0.38586398
v 4.08842781 2.80961517 -1.02926015
v 4.88010059 -1.19577821 14.24073301
v 1.23279312 -4.06828846 25.1941185
v 1.05489174 -4.71969438 25.50910209
v 5.82638903 -4.65390932 13.31015251
v -3.31766994 -1.42285411 18.92411831
v 3.20509778 -1.41345065 19.36858506
v 3.35877955 1.38791842 -4.24920916
v 4.10731965 1.00120247 -2.74741668
v 3.6749942 3.22226656 -2.43011901
v 3.08421144 3.74683394 -3.86691497
v 4.41954382 -3.54494835 4.92741196
v 4.31209403 -4.73888417 4.90089943
v 3.7558258 -4.52697083 22.36000753
v 3.83436484 -5.36687194 22.60957077
v 4.70266619 -0.36155541 11.57800715
v 5.00527474 -1.14519619 0.30329176
v 4.95725991 -1.42664002 1.75297265
v -1.77741467 -3.32945065 4.80293842
v 4.78736081 -0.9768776 -1.27737977
v 4.81805487 -3.94062437 0.25202913
v 4.93223337 -2.6736951 0.27809568
v 4.6278842 -2.53541982 -1.25226783
v 4.47063659 -3.81859902 -1.23182705
v 4.78640557 -4.17740643 1.80720727
v 4.88646872 -2.93578789 1.79948061
v 4.21799572 -0.8946413 -2.89095128
v 3.37206745 -0.78707383 -4.41063893
v 3.73294348 -3.87560509 -2.63476592
v 3.92167022 -2.54669603 -2.71519424
v 2.94131292 -2.59484165 -3.92004632
v 2.73008563 -4.01309482 -3.69990308
v 4.54144897 -4.45448014 3.3073012
v 4.6459059 -3.22997803 3.29770709
v -1.60791901 6.17836081 7.69629266
v -3.1464762 -3.49750761 22.06992206
v 4.77309648 -1.72378981 3.21260888
v -1.09028358 6.1982955 -5.1571626
v -1.37726928 3.31551686 -5.96241997
v 2.39177357 2.12454116 -5.34302363
v 2.33163832 -0.55001018 -5.6300941
v 3.61046486 -3.6974802 22.33186034
v 4.56855553 -3.76332535 20.61370381
v -1.53148149 -3.34870086 6.57806781
v -1.21133977 -4.54638235 6.50434702
v -1.46472348 -4.56408205 4.75515703
v 1.20916776 3.0140372 -5.94715771
v 1.04417222 -0.41235915 -6.40436136
v 4.93140561 -2.63837652 8.12254715
v 1.65089639 -4.22355823 -4.64536375
v 1.85278403 -2.64365167 -5.00734368
v 0.87609881 -2.58227651 -5.63480576
v 0.57259876 -4.18809874 -4.95971095
v 2.29642301 4.73264225 -4.73460048
v -3.1296223 -4.77158582 22.29267543
v -3.17182094 -4.14845045 22.0497571
v 5.90151041 -5.56454912 13.148532
v 5.26381656 -4.35996083 10.57553156
v 5.25449795 -5.35638112 10.4060147
v 1.27802733 5.81506316 -5.16641636
v -2.48110266 -2.35054945 -4.4791578
v -2.50432469 -0.19986203 -5.22502355
v -2.97526127 1.06775235 12.22901041
v -2.67326825 2.35427424 9.85142343
v -0.43666947 -2.41248826 -5.90200859
v -0.51259759 -4.09512995 -5.09787599
v -0.0942608 3.50594405 -6.21109123
v -0.32474084 -0.16174394 -6.69291719
v -2.61470376 3.63407121 7.90293529
v -1.6824886 -0.06915787 -6.21936952
v -3.83568762 -5.01110579 20.80364136
v -3.711129 -4.27528836 20.76997531
v -1.63521661 -2.38699596 -5.3323465
v 0.09822337 6.42313775 -5.28004387
v -2.80512905 4.95583181 6.27395207
v -2.4482435 -3.84497776 -3.9070121
v -1.60191193 -3.90691657 -4.65294238
v -2.30850105 1.90129799 -3.40678362
v -2.95493278 2.02203741 -3.83085261
v -2.29568508 3.08437955 -3.1333319
v -3.00009012 3.25008132 -3.53637938
v -1.62798481 3.80651719 -3.7817497
v -2.36471699 4.08286435 -4.46559978
v 2.60100166 2.69462377 -2.96661734
v 3.15908879 2.2716492 -2.06044658
v 3.89761947 2.42633096 -2.46436832
v 3.37951512 2.86404084 -3.53450939
v 3.25723499 1.16965212 -2.39078227
v 3.99566208 1.32217606 -2.82550688
v 2.68915378 1.31713229 -3.34564095
v 3.47881282 1.45277133 -3.94824285
v -0.79750747 4.45185577 -4.07508677
v -1.42389648 4.93723128 -5.32225896
v 1.92875967 1.64720007 -4.21925651
v 2.62521087 1.81417575 -5.0289434
v 0.96633008 2.20356936 -4.72858945
v 1.38888037 2.40184656 -5.71275932
v 1.81300764 3.39425232 -3.71671396
v 2.66702742 3.63534148 -4.63711203
v 0.85704151 4.27019999 -3.99635763
v 1.49124669 4.55945706 -5.30513683
v -0.03377865 2.52086861 -4.81479094
v -0.0643711 2.80716288 -5.96496305
v -0.93639542 2.52803604 -4.58719939
v -1.32165416 2.74110864 -5.46151208
v 0.00390966 4.78216015 -4.05477631
v 0.03483154 5.13057099 -5.53901902
v -1.70078389 2.2589085 -4.08352068
v -2.28208024 2.41709142 -4.70303595
v -2.55769927 0.58686685 -3.86628616
v -2.92904589 0.85488123 -3.1162452
v -2.96172001 3.52255693 -2.13199437
v -2.54255056 4.76705003 -2.83663696
v -1.85763233 6.35992328 -3.65315346
v 2.81849238 4.44170117 -2.64064283
v 3.3648861 3.57787393 -1.76037605
v 3.68336801 2.91875433 -1.12784427
v 3.97405225 0.334433 -1.92400982
v 3.68419862 -0.03077207 -2.93609028
v 3.09669071 -0.13166489 -4.05089969
v -0.96759256 7.53322159 -4.21004576
v 2.24404905 -0.11265471 -5.02679759
v 1.1194291 -0.09657907 -5.65854368
v 2.18044206 5.73315581 -3.3475995
v 1.36992994 7.06778647 -3.94027581
v -0.14319916 -0.03035925 -5.89488291
v -1.19009986 0.25726838 -5.48745527
v 0.19497677 7.80494377 -4.30549595
v -1.96508939 0.45961798 -4.71799456
v -2.38072794 1.00186987 -3.68588958
v -2.7456264 1.63917372 -2.81251567
v -2.72380433 1.02043355 -3.13856988
v -3.06355541 1.50783624 -2.56258932
v -2.74881284 2.58078719 -2.48980542
v -2.31026507 4.19030844 -2.93360034
v -2.72643439 3.40614469 -2.3358695
v -3.07813889 2.45395119 -2.17677531
v -1.55381835 5.42574388 -3.56096752
v 2.59553863 3.81507129 -2.70034317
v 3.17439407 3.15255112 -1.8429818
v 3.55101662 2.07753882 -1.36111536
v 3.48516071 2.77399311 -1.26305377
v 3.83663179 2.08621391 -1.08196891
v 3.64950933 1.13552253 -1.65230157
v 3.43975507 0.23236227 -2.70727906
v 3.74384424 0.40390544 -1.92844313
v 3.94217046 1.13814911 -1.40660229
v 2.85663159 0.23238022 -3.73261642
v -0.75537272 6.62810666 -3.84238376
v 2.03858908 0.29176314 -4.63049244
v 0.9987323 0.42051816 -5.17457446
v 1.72798937 4.85149792 -3.2932586
v 0.89588172 6.10589574 -3.55244252
v -0.130317 0.54124382 -5.37975023
v -1.04539857 0.98363151 -4.9911148
v 0.06192552 6.82447149 -3.80846467
v -1.80270295 1.05171641 -4.39325364
v -2.88463186 1.07383866 -4.03455694
v -3.21252822 1.08428125 -3.39489189
v -3.30217741 1.72366685 -3.08408602
v -3.34723322 2.68710303 -2.74498494
v -3.31987552 3.52660624 -2.54956016
v -3.03760337 4.38863625 -3.29902798
v -2.52383585 5.89843373 -4.4251155
v 3.34461043 3.98312572 -3.20176727
v 3.78658756 3.28065487 -2.15561716
v 4.14437963 2.19884917 -1.63695453
v 4.03674323 2.88450913 -1.50394271
v 4.24207937 1.25922555 -1.95798332
v 4.32848297 0.52345185 -2.25468839
v 4.08374146 0.36086994 -3.09640667
v 3.48616529 0.36553707 -4.24049184
v -1.31820962 6.98263828 -5.12511349
v 2.60163442 0.43243552 -5.32428709
v 1.34052307 0.53675912 -6.03986112
v 2.79675334 5.19882606 -4.37573551
v 1.63353727 6.4416826 -5.13044257
v -0.14008049 0.65867606 -6.30092514
v -1.36116343 1.03283152 -5.7156984
v 0.14492685 7.19472654 -5.32890006
v -2.24788186 1.12044609 -4.89251043
v -3.13796954 0.88013615 -3.22041904
v -2.75936725 0.61028238 -4.01099741
v -2.90491417 4.8455122 -2.99820084
v -3.23014251 3.57323092 -2.20867639
v -2.32755263 6.47676632 -4.05957399
v 3.61401822 3.62824458 -1.88383172
v 3.19980967 4.50425804 -2.88865745
v 3.91864541 2.96486565 -1.22698508
v 3.94736543 0.01828529 -3.0994533
v 4.23272438 0.38259372 -2.06610082
v 3.35379335 -0.08103751 -4.26578851
v -1.19660163 7.65732759 -4.77336028
v 2.48148174 -0.05725835 -5.33324733
v 1.27116426 -0.04764285 -6.06612694
v 2.70109534 5.81752337 -3.9232802
v 1.64770497 7.16915786 -4.66759481
v -0.14766291 0.02895218 -6.32507932
v -1.41617821 0.16555136 -5.94072157
v 0.20760098 7.91424677 -4.94617697
v -2.15393885 0.46878698 -4.94649327
v -3.29289011 1.53956762 -2.65961976
v -3.32840337 2.49480776 -2.26703054
v 4.07458574 2.13364626 -1.18646031
v 4.18063431 1.18631861 -1.52380655
v 4.63466543 -4.26010897 2.36876757
v -2.42086397 -4.15976841 2.96280272
v -2.2533732 -4.63384589 10.70833304
v 5.31117443 -5.12552247 10.3512075
v 4.8055552 -2.87947801 2.28680455
v 4.6695407 -2.88386625 3.68180547
v 4.49182479 -4.47333276 3.57124232
v -2.0641837 -4.1855854 4.16768833
v -2.3313606 -3.09376221 4.21593912
v -2.67868905 -3.11158052 2.95909754
v -2.58221467 -3.68896848 10.63291244
v -2.18069304 -3.43251173 9.09793659
v -1.86251431 -4.30836893 9.03286274
v 4.84487074 -4.94298895 8.53316644
v 4.99187582 -3.77810399 8.56906559
v 5.37324039 -4.09955852 10.51227439
v 5.25444513 -2.7170639 8.66314872
v 5.55636446 -3.12870518 10.58868297
v 5.36861952 -1.59509987 8.99944704
v 5.58288269 -2.15886101 10.79276766
v 5.1982254 -0.50267415 9.46482736
v 5.36188068 -1.19789886 11.10936788
v 4.80378643 0.49487599 10.07736538
v 4.94928812 -0.22419694 11.52629395
v 4.23055644 1.45175094 10.84680189
v 4.30883137 0.66044704 12.04097257
v 3.33646246 2.28047437 11.58506814
v 3.40551809 1.45955192 12.59710922
v 2.13550328 2.90960621 12.05499271
v 2.2049777 2.08191835 13.07796697
v 0.96402004 3.29857598 12.26981289
v 0.92237417 2.42007448 13.31303593
v -0.33340675 3.34995343 12.16170931
v -0.41666646 2.42114675 13.24873844
v -1.59112568 3.12461902 11.85138802
v -1.75571121 2.16900343 12.97755462
v -2.61623435 2.5785019 11.36068628
v -2.80542985 1.64455783 12.53923617
v -3.20388428 1.7112744 10.77006721
v -3.44616812 0.86743167 12.09109019
v -3.45705021 0.68945853 10.2182511
v -3.74787521 0.01174959 11.55305984
v -3.42650639 -0.38567186 9.77551525
v -3.75491453 -0.94490461 11.13330776
v -3.14008877 -1.4368049 9.44779791
v -3.47836209 -1.88719656 10.85708665
v -2.67535142 -2.44089878 9.21732903
v -3.04582662 -2.78396409 10.68738017
v -2.48773142 -2.09602579 7.57887205
v -1.97783925 -3.23173194 7.44101256
v -2.95331457 -0.94849477 7.85365067
v -2.96655977 -0.51636256 6.23490792
v -2.53611569 -1.83584252 5.94331716
v -3.21888655 0.23594614 8.25732221
v -3.17555364 0.84003396 6.72426062
v -3.28489681 1.39900295 5.24613679
v -3.15662447 -0.17923341 4.63225615
v -3.25566249 1.44451186 8.79331097
v -3.19067578 2.21733551 7.37288465
v -3.24709795 2.99331396 6.02774544
v -3.38410279 3.67886923 4.97956846
v -3.48500288 1.84125684 4.1211285
v -2.96012458 3.54264598 8.10189365
v -3.02205295 4.51126669 6.84301223
v -3.18595527 5.50235758 5.75726065
v -2.3467399 5.80059102 7.53828371
v -2.38201624 6.86523475 6.46733258
v -1.30614138 6.64643643 8.05042527
v -1.31176083 7.81396979 7.01578243
v -0.18875378 6.99362855 8.36469513
v -0.17049968 8.1933502 7.36125133
v 0.95645687 6.87569426 8.50555286
v 0.92353781 8.12634263 7.46048008
v 1.9122594 6.43931982 8.51350693
v 1.82810606 7.73657419 7.5065509
v 2.86870805 5.65827862 8.11298688
v 2.77704132 6.94989267 7.07317059
v 3.76876134 4.62361474 7.2608162
v 3.6614036 5.74727369 6.20125357
v 4.33365832 3.41803105 6.04310196
v 4.28375548 4.3870503 4.94809376
v 4.78189129 2.04311854 4.81410709
v 4.74664119 2.72609563 3.5151238
v 4.9858863 0.43438845 3.93843366
v 5.00758344 0.87386069 2.53177253
v 4.92778583 -1.22160286 3.61379459
v 4.99958793 -1.13704442 2.1416549
v 5.06035199 -0.14756529 5.56753787
v 4.94694875 -1.49371093 5.19961049
v 4.65127008 -3.08291001 5.14344389
v 5.06445855 -2.11325467 6.90966618
v 4.77152825 -3.44884373 6.72812648
v 4.57059916 -4.8404988 6.73311743
v 4.40031954 -4.66285247 5.04341617
v 5.2169594 -0.87308935 7.26688701
v 4.82203934 1.17575946 6.23240406
v 4.94608239 0.30666608 7.82969892
v 4.42852303 2.35087746 7.28103114
v 4.58217459 1.39826042 8.65059148
v 3.92645051 3.46821192 8.39793053
v 4.06584692 2.41122811 9.62375731
v 3.02844133 4.43126886 9.27175714
v 3.16749724 3.27978693 10.4435765
v 2.0053774 5.16250496 9.68431317
v 2.06595674 3.97471459 10.91845928
v 1.00831233 5.61323388 9.75672312
v 1.00605938 4.38063662 11.02869443
v -0.22805098 5.74255065 9.60042829
v -0.39483371 4.55357762 10.77248977
v -1.34885418 5.44957227 9.28184429
v -1.42690516 4.22411081 10.53740927
v -2.36740588 4.71101881 8.77996914
v -2.41257778 3.59699889 10.06409978
v -3.00981929 2.6032966 9.43222907
v -3.43222705 0.04416253 3.37709224
v -3.08047574 -1.63599637 3.05629373
v -2.77270828 -1.6884778 4.32968619
v -2.04919441 -3.12404145 5.80943897
v -1.74291832 -4.16207268 5.75476501
v -1.65227595 -4.17663402 7.38194199
v 4.78649287 -4.49484897 3.58571319
v 4.96653804 -2.90906707 3.69005213
v 5.10123576 -2.90246488 2.31359606
v 4.92817868 -4.28101123 2.40047697
v -2.83872329 -3.15082474 2.99639665
v -2.58658408 -3.16012785 4.25972244
v -2.22832799 -4.22260964 4.19990318
v -2.56600413 -4.19031065 3.00124495
v -2.04932631 -4.34538716 8.98217388
v -2.43941231 -3.50065989 9.02734024
v -2.78800629 -3.74040317 10.54520108
v -2.52067946 -4.67390347 10.59364909
v 5.66513797 -4.11106246 10.44558542
v 5.28166903 -3.79290002 8.50513961
v 5.13450991 -4.94891236 8.46925279
v 5.60199594 -5.12591595 10.28217313
v 5.85089526 -3.13507774 10.53439949
v 5.54607891 -2.72579988 8.60927074
v 5.88093141 -2.12428685 10.76420089
v 5.66645031 -1.5622551 8.97038827
v 5.65083474 -1.11679706 11.11420827
v 5.48658639 -0.42254415 9.46747695
v 5.22064149 -0.10624316 11.5667496
v 5.07735076 0.60680945 10.1140968
v 4.55193221 0.8104619 12.12628461
v 4.47801689 1.5953265 10.93135654
v 3.59865252 1.64268563 12.72839087
v 3.53265617 2.45809666 11.71892371
v 2.33192109 2.29135236 13.24057118
v 2.26466997 3.11389665 12.22154565
v 0.9606471 2.6486646 13.4958595
v 1.00229901 3.5263649 12.45261938
v -0.4711126 2.64787289 13.42633005
v -0.39438756 3.57970374 12.33558466
v -1.88957263 2.38471937 13.13024557
v -1.73449169 3.34189402 11.99723258
v -3.02303191 1.82522517 12.64103393
v -2.84016152 2.75877323 11.45515814
v -3.72146072 0.98664525 12.12637381
v -3.48299246 1.82452123 10.80394439
v -3.99094189 0.05042098 11.54202133
v -3.74726411 0.73155161 10.20278411
v -3.96481619 -0.95576172 11.08708716
v -3.71077094 -0.40338698 9.7279128
v -3.66970909 -1.92982442 10.79498795
v -3.41139912 -1.49663001 9.38443455
v -3.23313664 -2.83844621 10.61547686
v -2.93778503 -2.51696432 9.14794381
v -2.24215803 -3.30433871 7.4108385
v -2.76338651 -2.1755577 7.54459902
v -3.23809279 -1.0097355 7.8200153
v -2.8164217 -1.9139343 5.95083315
v -3.2552573 -0.57484254 6.2383591
v -3.51291854 0.21407994 8.23300561
v -3.47107099 0.81607051 6.73045985
v -3.43031722 -0.22948927 4.66225751
v -3.56590438 1.37790014 5.27465058
v -3.48705727 2.2329805 7.39610636
v -3.55092268 1.47411247 8.79344145
v -3.53543363 3.00139962 6.06740544
v -3.65648002 1.83068851 4.14470131
v -3.58981722 3.68535693 5.01258736
v -3.31394325 4.5639957 6.92225093
v -3.24626986 3.61105793 8.16672253
v -3.47515952 5.54725429 5.8427321
v -2.62563488 6.96821991 6.61284914
v -2.5935592 5.91242445 7.6746648
v -1.4895672 7.95530989 7.21331726
v -1.48313913 6.80051532 8.23825054
v -0.24509861 8.35705293 7.60320652
v -0.26383871 7.16982589 8.59373661
v 0.96261201 8.28570884 7.71073444
v 0.99701082 7.04462359 8.74606112
v 1.97721993 7.87626888 7.73393275
v 2.06048786 6.583537 8.73530207
v 3.00309643 7.06044381 7.24141733
v 3.0910953 5.77295625 8.28332802
v 3.92814273 5.83515158 6.31250279
v 4.03475969 4.71158531 7.37528222
v 4.56884526 4.45491854 5.00926111
v 4.61728678 3.48521322 6.10706006
v 5.04108754 2.77414873 3.54500686
v 5.07517585 2.09287936 4.84546286
v 5.30650864 0.89310664 2.54412923
v 5.28445155 0.45484718 3.94203888
v 5.29696229 -1.14708748 2.15586767
v 5.22379124 -1.2328166 3.60992177
v 5.23974652 -1.50715263 5.16694902
v 5.35921709 -0.12257927 5.55590139
v 4.94498925 -3.10842919 5.11516386
v 5.06292322 -3.47185036 6.67514316
v 5.35589749 -2.12722373 6.86119398
v 4.69384703 -4.68413652 5.02166842
v 4.86161045 -4.85744189 6.68341575
v 5.51583874 -0.84378682 7.24348437
v 5.23496054 0.38086679 7.83928544
v 5.11298769 1.23672358 6.25735248
v 4.86031772 1.49423409 8.69083458
v 4.70999842 2.42728651 7.33838767
v 4.32175267 2.5367929 9.71515684
v 4.18882403 3.56903642 8.50750951
v 3.37106983 3.43936665 10.58978181
v 3.24118023 4.56342446 9.43786038
v 2.20070444 4.16192655 11.10078752
v 2.14759856 5.3245762 9.89057655
v 1.04464727 4.59387623 11.22666434
v 1.04828428 5.80264636 9.97856222
v -0.46567693 4.77165097 10.95830478
v -0.30297736 5.93883134 9.80880869
v -1.58623563 4.4254163 10.6908013
v -1.51919311 5.62475111 9.45457819
v -2.64903594 3.75782104 10.16681767
v -2.6121999 4.84140532 8.903242
v -3.29110584 2.69629037 9.47738096
v -3.59189122 0.01744159 3.40193406
v -3.03923581 -1.75799096 4.36620529
v -3.23672636 -1.6743086 3.08601104
v -2.31534427 -3.19689145 5.8231561
v -1.90615039 -4.20080148 5.76562877
v -1.81952048 -4.21464576 7.36385988
v 2.63262898 -3.86823649 22.60136713
v 2.89386364 -4.2505952 20.79737096
v 1.48089575 -3.44633481 22.58280519
v 0.27278867 -3.31153144 22.54210962
v -1.89497097 -3.73684508 22.05228246
v 1.58615505 -3.95024632 20.80091103
v 0.26780116 -3.83392107 20.73715063
v -2.09265479 -4.03230043 20.41092435
v 3.2444769 -4.41440326 18.98429437
v 3.59018224 -4.40603514 17.11359808
v 2.00689186 -4.25964527 17.15239267
v 1.75902441 -4.21509902 18.99213489
v 0.29937949 -4.12612356 18.93375797
v 0.42853862 -4.18878133 17.12087685
v -2.37896771 -4.15523642 16.90983998
v -2.2960618 -4.1746916 18.66789183
v 3.82561906 -4.34295858 15.25892888
v 3.90910128 -4.22768125 13.50021025
v 2.48027932 -4.10998166 13.64780809
v 2.27407445 -4.20443074 15.34917271
v 0.68896667 -4.13465932 15.35823607
v 0.99223361 -4.0412904 13.69809492
v -1.75790287 -3.98702669 13.56846754
v -2.17295658 -4.07492925 15.19789817
v 3.83874817 -4.15766974 11.90961185
v 3.69319081 -4.13851442 10.44936121
v 2.58818474 -4.04916129 10.64036723
v 2.59013395 -4.03539831 12.0882773
v 1.26537532 -3.96128056 12.16570327
v 1.42960157 -3.9758324 10.73592164
v -0.82008962 -3.88846155 10.65195073
v -1.25744223 -3.92775052 12.06484271
v 3.54499326 -4.10598485 9.0589345
v 3.42594938 -4.05735418 7.7043353
v 2.54080821 -4.06726364 9.24312332
v 1.50444776 -4.01457765 9.35117131
v 1.50538157 -4.0587592 7.97418686
v 2.47416581 -4.0762166 7.86007415
v -0.38797254 -3.90507695 8.01860801
v -0.52561496 -3.88013455 9.30916799
v 3.32069917 -3.17422453 0.6402325
v 2.18393705 -3.60211984 0.54936997
v 1.02566394 -3.79372177 0.47686631
v -1.37373443 -3.30010594 0.52305481
v 2.78111056 -2.61389971 -3.58395265
v 1.5789 -2.95407275 -4.12845471
v 0.27054497 -3.07717496 -4.38211724
v -2.20028234 -2.65426158 -3.54741836
v 3.33343196 -3.9779336 6.38766909
v 3.26433679 -3.87616652 5.12339407
v 2.39512037 -4.05134347 6.50221703
v 1.44656451 -4.07726736 6.61357284
v 1.34385769 -4.06516307 5.29561168
v 2.30878731 -3.99752543 5.19880834
v -0.40335278 -3.92737064 6.76435016
v -0.5442816 -3.92059953 5.52161064
v 3.23348362 -3.73985977 3.9385102
v 1.22767035 -4.02669902 4.04786635
v 2.23643026 -3.91689974 3.98158501
v -0.76728153 -3.85788451 4.27738292
v 3.31625258 -3.37432965 1.76548688
v 2.21263666 -3.72048651 1.72868753
v 1.0931953 -3.89049063 1.69891897
v -1.20173539 -3.532876 1.78355348
v 3.40577968 -3.97995573 24.07446079
v 2.32493696 -3.16018605 25.09691978
v 1.38000941 -2.50082796 25.52972
v 0.37188828 -2.27677378 25.70762158
v -2.18789938 -3.30587499 24.66482302
v -3.44316608 -4.14883761 22.52210281
v -4.34154787 -4.5300725 20.36084722
v -4.90209252 -4.63170736 18.55645884
v -5.04606995 -4.56925013 16.79139202
v -4.73658117 -4.52940604 15.03309534
v -4.11969248 -4.5124484 13.33356527
v -3.3164411 -4.44783967 11.76074596
v -2.61043398 -4.25656669 10.30162048
v -2.08533332 -4.15762736 9.05109445
v -1.83816181 -4.05632366 7.93180698
v -1.83770633 -4.00980938 6.8769715
v -2.05127727 -3.99660372 5.80392201
v -3.8495243 -2.75729752 0.70383285
v -3.74237248 -2.32256453 -3.66635596
v -2.93905214 -2.73334308 -4.84855567
v -0.1103298 -3.06554433 -6.3034872
v 1.36492333 -3.00845729 -5.91501245
v 2.7809649 -2.74592847 -5.03679025
v 4.22635593 -2.37861077 -3.65971106
v 5.66755706 -2.52104479 0.56708611
v 5.45930302 -3.15500405 1.67430109
v 5.02938527 -4.43646351 7.46357004
v 5.23359727 -4.5575507 8.63028861
v 5.59224494 -4.65213612 9.87874713
v 6.04471258 -4.77547318 11.28927039
v 6.42698905 -4.96127064 12.95491427
v 6.67414459 -5.10790501 14.86935655
v 6.63599589 -5.15828263 16.88983633
v 6.08407968 -5.21632553 18.83512198
v 5.34575459 -5.08787385 20.6369192
v 4.47886301 -4.6533406 22.47348321
v -2.4339836 -3.95517527 4.62369445
v 4.92165682 -4.1831875 5.17962266
v 4.93564723 -4.30803871 6.33309508
v -3.45791246 -3.3245024 2.0423882
v 4.99389131 -4.01847261 4.00835944
v 2.21019623 -3.82562886 2.84676752
v 3.25927246 -3.56426404 2.834426
v -2.91457692 -3.78159344 3.38531992
v 1.1463414 -3.96822594 2.86835142
v -1.00533023 -3.73006354 3.02605704
v 5.21220284 -3.65555073 2.84384804
v -0.88292752 -3.43395439 22.35082335
v -0.83838586 -2.60270369 25.51962107
v -1.54374266 -3.05485976 -5.83274198
v -0.96854812 -3.87093202 20.59802403
v -1.05368903 -4.11617582 18.81848316
v 0.07149322 -3.92220382 2.92101211
v 0.21953068 -3.98493403 4.14222782
v -1.04413003 -4.15608253 17.03215064
v 0.38505622 -4.02084899 5.40206922
v 0.50476028 -4.01955278 6.70161932
v -0.81461568 -4.0933517 15.30052212
v -0.44938035 -4.00296584 13.66641905
v -1.01509814 -2.99806673 -4.10431825
v -0.04602014 -3.92233066 12.15299072
v 0.4659805 -3.94240485 9.37349283
v 0.27073376 -3.91524484 10.7375495
v 0.53974433 -3.9872481 8.0280465
v -0.04701198 -3.80639984 1.71143319
v -0.16286215 -3.66653435 0.46604811
v 0.63128992 -3.35359977 -2.51912293
v -0.60384244 -3.21565488 -2.41534765
v 5.27965355 -1.94856444 -1.87834576
v 3.02145735 -2.76810417 -2.02287103
v 1.85868245 -3.18979203 -2.34224365
v -1.7989089 -2.81342299 -2.15004516
v -4.00643537 -2.20796123 -2.05659907
v -0.31507556 -3.50412151 -0.84473897
v -1.54476559 -3.06619228 -0.75990139
v -3.99258635 -2.38234552 -0.62331407
v 0.90310636 -3.66550732 -0.84455931
v 2.08477504 -3.46382764 -0.74056641
v 3.22748256 -2.98591009 -0.58677725
v 5.56798575 -2.10596198 -0.51026603
v 2.3865873 -3.30088404 23.83584417
v 3.04627719 -3.91491335 23.27721347
v 4.7175821 -4.74483257 18.93673438
v 4.17192047 -4.6406657 20.70547602
v 3.5724139 -4.40114224 22.33778533
v 1.43141019 -2.82891932 24.13387012
v 0.32896499 -2.64077963 24.20031151
v -0.83675058 -2.89176402 23.95682509
v -1.89840539 -3.36545007 23.31501297
v -2.62720438 -3.9576709 22.05885145
v -1.41612855 -3.91797706 9.16832323
v -1.21653173 -3.89885369 7.95814554
v 3.75100439 -2.30554377 -2.96643388
v 4.12592492 -2.2901969 -1.75927911
v -1.21682131 -3.89525163 6.81631213
v 5.13584281 -4.69745193 17.02960946
v -1.68650233 -3.79221079 4.47017985
v -2.03640469 -3.58862982 3.2087329
v 4.47037627 -2.70154544 0.68370584
v 4.41955331 -3.02668632 1.75930125
v -2.76292692 -2.59642633 -0.66559242
v -2.88613651 -2.38457798 -1.93883685
v -2.95677651 -2.34033317 -3.01573416
v -2.98317043 -4.10228284 13.44707764
v -2.36425772 -4.051996 11.91785598
v 4.28915762 -3.40383283 2.82533291
v 4.19429101 -3.67750881 3.93449821
v -2.35948091 -3.26488368 1.90701991
v 5.24538715 -4.49146231 13.26103694
v 5.31082934 -4.62603826 15.09845371
v -3.16802562 -4.1892289 20.31700001
v -3.51985159 -4.29885674 18.55796128
v 4.73054041 -4.2918288 10.17688236
v 5.01294604 -4.37068161 11.63105025
v 4.491691 -4.203163 8.8288644
v -3.66807538 -4.23061464 16.80594007
v -3.45974575 -4.12074071 15.08112029
v 4.18229648 -3.8470932 5.10151854
v -1.38857 -3.87582302 5.67174333
v 4.33007808 -4.09953796 7.54737047
v 4.36736264 -2.44394082 -0.47542207
v 4.23126338 -3.97759611 6.3113894
v -1.80715761 -3.96915999 10.48660884
v -2.60058588 -2.91102372 0.61512877
v -2.2270865 -8.97749117 -3.47293654
v -0.25085098 -8.92323252 -3.70363166
v -0.29871841 -8.94267757 -5.66587432
v -2.33686871 -8.77098629 -5.4751574
v 3.14890177 -7.07482675 23.92762398
v 2.94532744 -7.83356668 23.44634839
v 2.22501013 -7.51633796 24.12607514
v 2.32406871 -6.36229493 24.92240897
v 0.87660322 -8.23726194 5.7719096
v 0.69874114 -8.50236136 4.52999595
v -0.60620618 -8.20801401 4.59162637
v -0.27212451 -7.86282283 5.81909729
v -1.03370626 -8.65038557 3.26852053
v 0.47688826 -8.76516252 3.1594459
v 0.24009157 -8.96212832 1.65122867
v -1.49152591 -9.00079323 1.81758897
v 3.5002139 -8.94136491 20.65723852
v 4.6163461 -8.86060575 20.45049768
v 5.4340965 -9.13249366 18.44117771
v 4.23040493 -9.24593518 18.57978874
v 3.69945899 -8.29650047 22.30430527
v 2.73079558 -8.26679327 22.67901198
v 3.36869218 -8.66542136 4.55911419
v 3.55104414 -9.04017298 3.18265939
v 2.00430719 -8.87806632 3.09770731
v 2.04654569 -8.62634716 4.49023474
v 4.26491045 -7.72243038 22.36948145
v 3.68711083 -9.20736074 1.65691833
v 3.79596405 -9.00895448 -0.01361305
v 1.89690786 -9.10270106 -0.1025145
v 1.95351079 -9.05089249 1.56866467
v 1.34666718 -7.37902947 24.57189946
v 1.31351315 -5.6741738 25.60248366
v 0.02484696 -9.05801438 -0.0062938
v 0.35135653 -7.29346059 24.81918911
v 0.34957281 -5.39052668 26.08619098
v -0.75608393 -7.3793521 24.82838974
v -0.88313328 -5.720114 25.83392525
v -1.89829912 -9.20843237 0.18202364
v -1.84816822 -7.65548417 24.3699095
v -2.14376528 -6.59962482 25.11747317
v -2.85246161 -8.16858619 23.27050278
v -3.68062914 -7.76738023 23.39472265
v 2.0800006 -8.35378678 5.75926095
v 2.10938644 -8.74256771 20.85815685
v 2.59811492 -9.09568419 18.79802847
v 1.66152639 -8.28094468 22.91179976
v -1.69967572 -6.74853278 8.22881
v -1.85765826 -7.49493182 9.20574079
v -1.04727346 -7.85769365 9.18395841
v -0.94060715 -7.34896548 8.14909874
v -4.0837734 -8.85906661 -1.26037152
v -2.15509463 -9.17866191 -1.61411997
v -4.0823959 -8.62765475 -3.05331605
v 0.67397411 -8.6335595 21.04968477
v 0.50323995 -8.20790204 23.13014386
v 0.87959171 -8.95138287 19.00447894
v -0.80921069 -8.62673368 21.22183343
v -0.82490613 -8.9326204 19.1757584
v -0.74500224 -8.18459809 23.27984258
v -2.28930587 -8.70606948 21.34489942
v -1.93774466 -8.23791036 23.24785041
v 3.64783261 -8.65564885 -4.01050271
v 5.05586902 -8.02990747 -3.55056874
v 4.66934302 -8.13131175 -4.99750412
v 3.43278913 -8.55976659 -5.76047176
v -2.57854144 -9.01900027 19.3006387
v -2.42836795 -8.38039167 3.37882622
v -1.76346902 -7.66281734 4.61681865
v -1.7890521 -6.39267395 7.05969986
v -1.02167678 -7.13572334 7.01435906
v 5.93035632 -9.26479318 16.45620929
v 4.67759568 -9.32925261 16.57523672
v -3.36514104 -7.85311042 3.49487091
v -2.63998777 -7.03153306 4.62848834
v 3.24779666 -8.36667487 5.82114504
v 4.97603947 -8.83438864 1.8101103
v 5.1962912 -8.44312346 0.19478268
v 3.05468169 -9.26810993 16.75123479
v 1.06234159 -9.12404394 16.98823383
v -5.12206749 -8.18813436 -2.5049943
v -5.17544429 -8.52077969 -0.79291965
v -0.14086555 -9.04491942 -1.80414988
v -0.82842026 -9.1138672 17.13994614
v -2.80163832 -9.22009637 17.21892958
v 1.68580156 -8.97465267 -3.89487238
v 1.57843646 -8.82311243 -5.97671308
v -4.87049383 -8.05004966 -3.80090376
v -3.97374354 -8.4165426 -4.62595792
v 0.98733661 -8.07914449 6.91295668
v -0.07374364 -7.72055723 6.96868678
v -1.77369684 -8.89503092 11.687765
v -2.97293739 -8.88697088 11.67359999
v -3.71951831 -9.11071682 13.3426204
v -2.2770409 -9.14362817 13.29839299
v 4.43636672 -8.44344419 4.61582356
v 4.69611144 -8.71489814 3.24969733
v -4.19246373 -8.44041717 2.20908063
v -3.23690444 -8.92127776 2.02654457
v 5.94371633 -9.25288373 14.50667222
v 5.55387926 -9.10792702 12.70811742
v 4.32854433 -9.16588263 12.81579589
v 4.67471416 -9.28441726 14.61663408
v 3.16896473 -8.1830773 6.94487231
v 2.09619881 -8.17507356 6.90602205
v -1.29200753 -7.22742787 5.85681898
v 2.79973797 -9.10293007 13.00476049
v 3.08023914 -9.22365415 14.77062314
v 1.13661089 -9.13313576 15.04105606
v -4.28951599 -9.05451543 19.31666642
v -3.70745577 -8.78158308 21.40674556
v 1.11361319 -9.03480341 13.25045502
v -0.5619144 -9.04840509 13.33737578
v -0.72266285 -9.13462808 15.17076442
v -2.65497738 -9.22232757 15.18358482
v 1.80216342 -9.08917404 -1.92055706
v 4.99940858 -8.83387117 11.158145
v 4.50624664 -8.50572935 9.89380387
v 3.44401852 -8.6331869 9.98150131
v 3.84231417 -8.95447568 11.24911001
v 4.17704331 -8.1825516 8.87659487
v 3.21881364 -8.32568703 8.93939972
v -4.31817496 -9.19629708 15.23393017
v -4.5460651 -9.19724346 17.24278264
v 3.77006577 -8.84403082 -1.91280257
v 2.27709293 -8.59854474 10.15143893
v 2.49694929 -8.88970185 11.46945663
v 2.16136043 -8.31087708 9.02250982
v 1.07013949 -8.83776043 11.65782516
v 1.04861549 -8.26083032 9.09034594
v 1.04772707 -8.55435022 10.28110403
v -0.18857997 -8.50512205 10.31508528
v -0.37414439 -8.84829206 11.70190976
v -0.04767005 -8.1050997 9.13685865
v 4.24127248 -8.20377239 5.88048036
v -1.33989015 -8.44189747 10.32330426
v -2.10786739 -6.4668983 5.95505865
v 4.05849382 -8.03824206 7.93471665
v 3.147161 -8.16502145 7.96441736
v 5.22300775 -8.25304357 -1.59091597
v 4.09814622 -8.04682147 6.9674067
v 2.11573306 -8.15564369 7.9744747
v 1.03911026 -8.08430719 7.9985982
v -2.29735263 -8.35732874 10.27851193
v -0.00243877 -7.80627793 8.06273342
v -3.80427681 -9.02301922 0.48158556
v -4.90956993 -8.72803611 0.84394442
v 5.49376963 -8.4052879 20.28836824
v 6.44563956 -8.76533585 18.36313369
v -2.18262724 -6.06764899 8.2195129
v -2.36553368 -6.86928723 9.18027427
v 5.91042131 -6.64026029 -3.18424154
v 5.0503353 -6.99197871 -5.47080633
v -2.26174986 -5.66049938 7.04751586
v 6.93868921 -8.90640519 16.41013151
v -3.83652171 -6.90937866 3.52944095
v -3.1137385 -6.18750767 4.57655072
v 5.75899241 -7.8313108 1.92258519
v 6.07465131 -7.37415587 0.38638272
v -5.51820437 -6.66465233 -2.43670823
v -5.63071722 -6.92217059 -0.67603928
v -5.01563652 -7.10694481 -4.22871904
v -3.70059357 -8.386459 11.68500731
v -4.66336046 -8.68135229 13.33663405
v 5.1141947 -7.73766417 4.58049755
v 5.41437405 -7.86681268 3.26112916
v -4.63450854 -7.31649506 2.23199553
v 6.88294014 -8.86829697 14.45300568
v 6.4335378 -8.66759373 12.63555904
v -5.43596554 -8.75081437 19.14368209
v -4.7089426 -8.53526005 21.14599404
v 5.82343729 -8.31833868 11.08549948
v 5.27643864 -7.97393382 9.80954955
v 4.8832282 -7.65058527 8.78488971
v -5.44034697 -8.81709444 15.1930309
v -5.72963283 -8.83360294 17.14696807
v 4.88239569 -7.58125793 5.80833697
v -2.57662053 -5.69431979 5.96541062
v 4.72486182 -7.5084133 7.84209105
v 6.13778037 -6.92406841 -1.29300009
v 4.74293981 -7.49010187 6.88354871
v -2.88533627 -7.85046296 10.24716675
v -5.41772749 -7.4222852 0.93436159
v 3.38668382 -7.54282709 -7.00071691
v 1.52218454 -7.83562771 -7.56600262
v -0.40201782 -7.89506235 -7.43896387
v -2.29405232 -7.81388186 -6.80258204
v -3.98522344 -7.46408087 -5.63161109
v 2.39176898 -3.93061021 25.29399313
v 3.45848845 -4.80793285 24.19374379
v 4.62562137 -5.52309537 22.55716692
v 1.41031237 -3.23815416 25.81750912
v 0.40336017 -2.9702379 26.05659639
v -0.83285325 -3.32023959 25.93172494
v -2.24064958 -4.09052142 25.11166711
v -3.63080221 -5.0785622 22.88718251
v 5.80309488 -5.9619936 20.56912024
v 6.54342533 -6.19250969 18.80466387
v -2.15890671 -4.53527157 8.00494814
v -2.37631045 -4.87724184 9.0661818
v 5.6969062 -2.83480098 -2.25556265
v 4.63727208 -3.2215261 -4.42784709
v -2.19108993 -4.34529765 6.94028813
v 6.97947715 -6.25874231 16.82118778
v -3.47330346 -4.50933408 3.49315971
v -2.90345443 -4.44900714 4.66227142
v 5.84102122 -4.36885211 1.75014743
v 6.03147719 -3.64649243 0.57331982
v -4.72118227 -3.13847088 -2.23731575
v -4.75482301 -3.27800204 -0.65355266
v -4.31149622 -3.44905154 -4.04913978
v -3.62296801 -5.56830585 11.73798351
v -4.50610399 -5.71337642 13.34603015
v 5.33749054 -5.09151102 4.19676166
v 5.597073 -4.84249404 2.99484487
v -4.06479932 -4.28133323 2.13920545
v 6.96206149 -6.24589787 14.75309488
v 6.6488378 -6.09763011 12.82944089
v -5.30898877 -5.91649275 18.8067559
v -4.64399005 -5.65433874 20.65909206
v 6.19882563 -5.86436028 11.165014
v 5.75222858 -5.6346979 9.77351502
v 5.40334455 -5.48527468 8.61659664
v -5.20447839 -5.78212429 15.11123615
v -5.53385632 -5.85236164 16.9452109
v 5.19441015 -5.18698936 5.37496583
v -2.45238422 -4.33823175 5.88909456
v 5.21343199 -5.35472242 7.54307507
v 5.98264503 -3.03255896 -0.66445753
v 5.15310506 -5.25817023 6.4888567
v -2.85770623 -5.26522126 10.30036452
v -4.55355769 -3.76711213 0.78750707
v 2.87608171 -3.68679421 -6.09617195
v 1.30040918 -3.94839658 -7.05580807
v -0.30332244 -4.02532595 -7.38317431
v -1.90528973 -4.10583619 -6.82202077
v -3.54364107 -3.82658789 -5.53443642
v 2.34454317 -5.13854088 25.31685806
v 3.38268606 -5.89934089 24.18941423
v 4.58459052 -6.58540572 22.54730838
v 1.35948236 -4.5838083 25.92586321
v 0.3590113 -4.38554249 26.19903532
v -0.84868137 -4.66695081 26.08252187
v -2.23253514 -5.33850492 25.27268062
v -3.72655099 -6.27570819 23.25338192
v 5.84333339 -7.07859266 20.49475229
v 6.66893065 -7.33020617 18.66282909
v -2.28614063 -5.24835186 8.13395019
v -2.47935856 -5.82515197 9.14687866
v 6.07489044 -4.82285698 -2.78115611
v 4.98062017 -5.25286804 -5.07607257
v -2.34820058 -4.95101198 7.00165063
v 7.12789294 -7.47943676 16.65750213
v -3.79868426 -5.693542 3.55879768
v -3.14797674 -5.2883522 4.6310175
v 5.98713591 -6.14906544 1.8528998
v 6.3253039 -5.55743324 0.47286887
v -5.22302262 -5.08790832 -2.38006465
v -5.29394792 -5.26995632 -0.61405145
v -4.77190465 -5.38057641 -4.31826701
v -3.79895058 -7.01078737 11.7235623
v -4.77632024 -7.21162915 13.36309692
v 5.38538138 -6.52732233 4.42855688
v 5.6662542 -6.46612778 3.15367147
v -4.47173733 -5.81246695 2.24327237
v 7.07607994 -7.55773256 14.59662727
v 6.69028744 -7.42848031 12.70657322
v -5.61012715 -7.35781754 19.03198151
v -4.88131646 -6.98288879 20.97474369
v 6.13557005 -7.15012906 11.11253044
v 5.63012605 -6.88295975 9.78064323
v 5.26307546 -6.65386892 8.68529738
v -5.54400712 -7.33668469 15.18720839
v -5.89289336 -7.40346516 17.08817426
v 5.15906738 -6.46313872 5.6077302
v -2.64558602 -4.97457056 5.9591883
v 5.08036418 -6.50464213 7.69324192
v 6.37760021 -5.01706842 -0.97845426
v 5.05803507 -6.4472565 6.69220962
v -2.96785756 -6.48410266 10.30829124
v -5.07823166 -5.64328426 0.93890117
v 3.08694414 -5.58263945 -6.78731345
v 1.40225921 -5.91395916 -7.62058644
v -0.3562236 -5.95812584 -7.74953567
v -2.1372507 -5.98836506 -7.15212872
v -3.83368605 -5.71382557 -5.88909583
g Group36600
f 279 278 277 276
g Group58702
f 198 188 194 196
g Group36600
f 276 277 281 280
g Group58702
f 188 187 193 194
g Group36600
f 285 284 283 282
g Group58702
f 205 185 208 207
g Group36600
f 289 288 287 286
g Group58702
f 100 101 117 116
g Group36600
f 293 292 291 290
g Group58702
f 214 211 171 170
g Group36600
f 297 296 295 294
g Group58702
f 71 70 73 72
g Group36600
f 301 300 299 298
g Group36603
f 44 45 299 300
g Group58702
f 42 43 45 44
g Group36600
f 305 304 303 302
g Group36603
f 203 184 304 305
g Group58702
f 203 233 234 184
g Group36600
f 307 306 284 285
g Group58702
f 195 205 207 210
g Group36600
f 311 310 309 308
g Group58702
f 232 202 181 221
g Group36600
f 315 314 313 312
g Group58702
f 94 98 99 96
g Group36600
f 319 318 317 316
g Group36603
f 131 132 318 319
g Group58702
f 131 235 236 132
g Group36600
f 323 322 321 320
g Group36603
f 147 148 323 320
g Group58702
f 148 147 237 238
g Group36600
f 283 326 325 324
g Group58702
f 208 216 169 173
g Group36600
f 330 329 328 327
g Group58702
f 3 228 229 4
g Group36600
f 334 333 332 331
g Group36603
f 159 154 334 331
g Group58702
f 154 159 239 240
g Group36600
f 336 290 335 278
g Group58702
f 182 196 212 211
g Group36600
f 327 328 338 337
g Group58702
f 228 88 91 229
g Group36600
f 342 341 340 339
g Group36603
f 179 206 341 342
g Group58702
f 179 241 242 206
g Group36600
f 346 345 344 343
g Group36603
f 150 220 346 343
g Group58702
f 220 150 243 244
g Group36600
f 278 335 347 277
g Group58702
f 196 194 213 212
g Group36600
f 307 348 280 281
g Group58702
f 195 193 187 190
g Group36600
f 350 349 292 293
g Group58702
f 222 214 170 223
g Group36600
f 354 353 352 351
g Group58702
f 64 65 60 61
g Group36600
f 357 356 298 355
g Group58702
f 39 38 43 51
g Group36600
f 347 360 359 358
g Group58702
f 213 209 175 174
g Group36600
f 297 363 362 361
g Group58702
f 71 110 111 67
g Group36600
f 366 282 365 364
g Group58702
f 204 201 186 185
g Group36600
f 367 336 278 279
g Group58702
f 199 198 196 182
g Group36600
f 371 370 369 368
g Group58702
f 165 162 163 164
g Group36600
f 294 372 363 297
g Group58702
f 70 71 67 69
g Group36600
f 376 375 374 373
g Group36603
f 144 145 376 373
g Group58702
f 145 144 245 246
g Group36600
f 379 378 377 301
g Group58702
f 50 42 49 53
g Group36600
f 381 287 288 380
g Group58702
f 118 119 116 117
g Group36600
f 385 384 383 382
g Group58702
f 172 168 218 215
g Group36600
f 387 368 369 386
g Group58702
f 58 56 163 162
g Group36600
f 308 309 336 367
g Group58702
f 202 199 182 181
g Group36600
f 390 389 388 377
g Group36603
f 47 46 388 389
g Group58702
f 48 49 46 47
g Group36600
f 393 380 392 391
g Group58702
f 74 79 122 119
g Group36600
f 395 394 310 311
g Group36603
f 183 180 394 395
g Group58702
f 183 232 221 180
g Group36600
f 399 398 397 396
g Group58702
f 200 55 54 192
g Group36600
f 403 402 401 400
g Group36603
f 140 141 402 403
g Group58702
f 140 247 248 141
g Group36600
f 279 276 405 404
g Group58702
f 198 107 120 188
g Group36600
f 314 408 407 406
g Group58702
f 96 86 85 97
g Group36600
f 310 350 293 309
g Group58702
f 221 181 214 222
g Group36600
f 298 299 409 355
g Group36603
f 45 41 409 299
g Group58702
f 43 38 41 45
g Group36600
f 335 410 360 347
g Group58702
f 212 213 174 176
g Group36600
f 277 347 358 281
g Group58702
f 194 193 209 213
g Group36600
f 371 412 411 366
g Group58702
f 165 204 197 81
g Group36600
f 282 283 324 365
g Group58702
f 185 186 216 208
g Group36600
f 361 413 296 297
g Group58702
f 110 71 72 114
g Group36600
f 309 293 290 336
g Group58702
f 181 182 211 214
g Group36600
f 415 363 372 414
g Group58702
f 66 68 69 67
g Group36600
f 395 311 417 416
g Group36603
f 1 183 395 416
g Group58702
f 183 1 230 232
g Group36600
f 394 418 350 310
g Group36603
f 180 217 418 394
g Group58702
f 180 221 222 217
g Group36600
f 422 421 420 419
g Group36603
f 138 139 421 422
g Group58702
f 138 249 250 139
g Group36600
f 290 291 410 335
g Group58702
f 211 212 176 171
g Group36600
f 424 284 306 423
g Group58702
f 178 177 210 207
g Group36600
f 409 426 425 355
g Group36603
f 41 40 426 409
g Group58702
f 41 38 37 40
g Group36600
f 423 306 358 359
g Group58702
f 177 175 209 210
g Group36600
f 430 429 428 427
g Group36603
f 166 158 430 427
g Group58702
f 158 166 251 252
g Group36600
f 434 433 432 431
g Group58702
f 82 83 161 160
g Group36600
f 284 424 326 283
g Group58702
f 207 208 173 178
g Group36600
f 289 286 436 435
g Group58702
f 100 102 103 101
g Group36600
f 383 437 365 324
g Group58702
f 218 216 186 189
g Group36600
f 366 364 370 371
g Group58702
f 204 165 164 201
g Group36600
f 384 438 437 383
g Group58702
f 215 218 189 191
g Group36600
f 386 440 439 387
g Group58702
f 56 58 59 57
g Group36600
f 390 442 441 389
g Group58702
f 48 47 226 225
g Group36600
f 407 441 442 406
g Group58702
f 85 86 225 226
g Group36600
f 306 307 281 358
g Group58702
f 210 209 193 195
g Group36600
f 446 445 444 443
g Group36603
f 149 151 445 446
g Group58702
f 149 253 254 151
g Group36600
f 390 377 378 447
g Group58702
f 48 52 53 49
g Group36600
f 308 367 449 448
g Group58702
f 202 90 104 199
g Group36600
f 382 383 324 325
g Group58702
f 168 169 216 218
g Group36600
f 331 332 429 430
g Group36603
f 158 159 331 430
g Group58702
f 159 158 252 239
g Group36600
f 406 442 451 450
g Group58702
f 86 87 227 225
g Group36600
f 315 452 408 314
g Group58702
f 94 96 97 95
g Group36600
f 312 313 444 428
g Group58702
f 98 251 254 99
g Group36600
f 438 398 399 437
g Group58702
f 191 189 200 192
g Group36600
f 380 288 453 392
g Group58702
f 119 122 121 116
g Group36600
f 455 454 413 361
g Group58702
f 112 110 114 115
g Group36600
f 341 305 302 340
g Group36603
f 206 203 305 341
g Group58702
f 206 242 233 203
g Group36600
f 327 457 456 330
g Group58702
f 228 3 23 219
g Group36600
f 447 451 442 390
g Group58702
f 52 48 225 227
g Group36600
f 348 307 285 411
g Group58702
f 190 197 205 195
g Group36600
f 448 417 311 308
g Group58702
f 90 202 232 230
g Group36600
f 391 459 458 393
g Group58702
f 79 74 77 80
g Group36600
f 411 285 282 366
g Group58702
f 197 204 185 205
g Group36600
f 460 354 432 433
g Group58702
f 63 160 161 64
g Group36600
f 330 462 461 329
g Group36603
f 6 4 329 461
g Group58702
f 3 4 6 5
g Group36600
f 464 319 316 463
g Group36603
f 157 131 319 464
g Group58702
f 157 255 235 131
g Group36600
f 396 370 364 399
g Group58702
f 55 200 201 164
g Group36600
f 466 461 462 465
g Group36603
f 7 6 461 466
g Group58702
f 7 8 5 6
g Group36600
f 467 412 459 391
g Group58702
f 78 79 80 81
g Group36600
f 414 372 433 434
g Group58702
f 68 82 160 69
g Group36600
f 470 452 469 468
g Group58702
f 92 109 113 95
g Group36600
f 404 449 367 279
g Group58702
f 107 198 199 104
g Group36600
f 474 473 472 471
g Group36603
f 9 10 473 474
g Group58702
f 9 11 12 10
g Group36600
f 348 411 412 467
g Group58702
f 190 78 81 197
g Group36600
f 404 405 453 475
g Group58702
f 107 106 121 120
g Group36600
f 465 472 473 466
g Group36603
f 10 7 466 473
g Group58702
f 8 7 10 12
g Group36600
f 477 476 303 304
g Group36603
f 184 146 477 304
g Group58702
f 146 184 234 256
g Group36600
f 286 287 317 478
g Group58702
f 101 257 236 117
g Group36600
f 379 356 420 400
g Group58702
f 50 247 250 51
g Group36600
f 479 362 363 415
g Group58702
f 108 66 67 111
g Group36600
f 467 480 280 348
g Group58702
f 78 190 187 123
g Group36600
f 450 313 314 406
g Group58702
f 87 86 96 99
g Group36600
f 484 483 482 481
g Group36603
f 13 14 483 484
g Group58702
f 13 15 16 14
g Group36600
f 486 485 345 346
g Group36603
f 220 129 486 346
g Group58702
f 129 220 244 258
g Group36600
f 480 405 276 280
g Group58702
f 123 187 188 120
g Group36600
f 323 488 487 322
g Group36603
f 148 156 488 323
g Group58702
f 148 238 259 156
g Group36600
f 471 482 483 474
g Group36603
f 14 9 474 483
g Group58702
f 11 9 14 16
g Group36600
f 417 328 329 416
g Group36603
f 4 1 416 329
g Group58702
f 230 1 4 229
g Group36600
f 475 489 449 404
g Group58702
f 106 107 104 105
g Group36600
f 465 491 490 472
g Group58702
f 8 12 18 17
g Group36600
f 460 433 372 294
g Group58702
f 63 70 69 160
g Group36600
f 447 378 401 492
g Group58702
f 52 260 248 53
g Group36600
f 386 369 370 396
g Group58702
f 56 55 164 163
g Group36600
f 472 490 493 471
g Group58702
f 12 11 19 18
g Group36600
f 437 399 364 365
g Group58702
f 189 186 201 200
g Group36600
f 497 496 495 494
g Group36603
f 125 126 497 494
g Group58702
f 126 125 261 262
g Group36600
f 494 495 499 498
g Group36603
f 124 125 494 498
g Group58702
f 125 124 263 261
g Group36600
f 471 493 500 482
g Group58702
f 11 16 20 19
g Group36600
f 475 453 288 289
g Group58702
f 106 100 116 121
g Group36600
f 301 298 356 379
g Group58702
f 42 50 51 43
g Group36600
f 482 500 501 481
g Group58702
f 16 15 21 20
g Group36600
f 289 435 489 475
g Group58702
f 100 106 105 102
g Group36600
f 505 504 503 502
g Group36603
f 127 128 505 502
g Group58702
f 128 127 264 265
g Group36600
f 502 503 496 497
g Group36603
f 126 127 502 497
g Group58702
f 127 126 262 264
g Group36600
f 448 338 328 417
g Group58702
f 90 230 229 91
g Group36600
f 498 499 507 506
g Group36603
f 130 124 498 506
g Group58702
f 124 130 266 263
g Group36600
f 418 508 349 350
g Group36603
f 217 167 508 418
g Group58702
f 217 222 223 167
g Group36600
f 460 509 353 354
g Group58702
f 63 64 61 62
g Group36600
f 506 507 485 486
g Group36603
f 129 130 506 486
g Group58702
f 130 129 258 266
g Group36600
f 415 414 424 423
g Group58702
f 66 177 178 68
g Group36600
f 330 456 510 462
g Group58702
f 3 5 22 23
g Group36600
f 462 510 491 465
g Group58702
f 5 8 17 22
g Group36600
f 368 459 412 371
g Group58702
f 162 165 81 80
g Group36600
f 512 425 426 511
g Group36603
f 40 35 511 426
g Group58702
f 32 35 40 37
g Group36600
f 338 489 435 337
g Group58702
f 91 88 102 105
g Group36600
f 481 501 514 513
g Group58702
f 15 24 25 21
g Group36600
f 516 515 487 463
g Group58702
f 75 255 259 76
g Group36600
f 431 432 354 351
g Group58702
f 83 65 64 161
g Group36600
f 519 518 517 492
g Group36603
f 142 224 518 519
g Group58702
f 142 260 267 224
g Group36600
f 387 458 459 368
g Group58702
f 58 162 80 77
g Group36600
f 513 514 521 520
g Group58702
f 24 26 27 25
g Group36600
f 439 515 458 387
g Group58702
f 59 58 77 76
g Group36600
f 435 436 522 337
g Group58702
f 102 88 89 103
g Group36600
f 526 525 524 523
g Group36603
f 133 134 526 523
g Group58702
f 134 133 268 269
g Group36600
f 450 451 517 443
g Group58702
f 87 253 267 227
g Group36600
f 523 524 504 505
g Group36603
f 128 133 523 505
g Group58702
f 133 128 265 268
g Group36600
f 294 295 509 460
g Group58702
f 70 63 62 73
g Group36600
f 337 522 457 327
g Group58702
f 88 228 219 89
g Group36600
f 481 513 527 484
g Group36603
f 28 13 484 527
g Group58702
f 15 13 28 24
g Group36600
f 342 339 375 376
g Group36603
f 145 179 342 376
g Group58702
f 179 145 246 241
g Group36600
f 396 397 440 386
g Group58702
f 55 56 57 54
g Group36600
f 373 374 529 528
g Group36603
f 143 144 373 528
g Group58702
f 144 143 270 245
g Group36600
f 448 449 489 338
g Group58702
f 90 91 105 104
g Group36600
f 320 321 476 477
g Group36603
f 146 147 320 477
g Group58702
f 147 146 256 237
g Group36600
f 532 531 478 530
g Group36603
f 152 153 532 530
g Group58702
f 153 152 257 271
g Group36600
f 326 424 414 434
g Group58702
f 173 82 68 178
g Group36600
f 415 423 359 479
g Group58702
f 66 108 175 177
g Group36600
f 533 527 513 520
g Group36603
f 29 28 527 533
g Group58702
f 29 26 24 28
g Group36600
f 357 535 534 419
g Group58702
f 39 249 272 36
g Group36600
f 537 407 408 536
g Group58702
f 84 93 97 85
g Group36600
f 516 381 380 393
g Group58702
f 75 74 119 118
g Group36600
f 526 539 538 525
g Group36603
f 134 135 539 526
g Group58702
f 134 269 273 135
g Group36600
f 470 410 291 536
g Group58702
f 92 93 171 176
g Group36600
f 521 541 540 520
g Group58702
f 27 26 31 30
g Group36600
f 468 469 362 479
g Group58702
f 109 108 111 113
g Group36600
f 391 392 480 467
g Group58702
f 79 78 123 122
g Group36600
f 536 408 452 470
g Group58702
f 93 92 95 97
g Group36600
f 537 542 441 407
g Group58702
f 84 85 226 231
g Group36600
f 512 540 541 543
g Group58702
f 32 33 30 31
g Group36600
f 528 529 545 544
g Group36603
f 155 143 528 544
g Group58702
f 143 155 274 270
g Group36600
f 543 541 538 546
g Group58702
f 33 275 273 30
g Group36600
f 520 540 547 533
g Group36603
f 34 29 533 547
g Group58702
f 26 29 34 31
g Group36600
f 389 441 542 548
g Group36603
f 2 47 389 548
g Group58702
f 47 2 231 226
g Group36600
f 393 458 515 516
g Group58702
f 74 75 76 77
g Group36600
f 343 344 531 532
g Group36603
f 153 150 343 532
g Group58702
f 150 153 271 243
g Group36600
f 511 547 540 512
g Group36603
f 35 34 547 511
g Group58702
f 35 32 31 34
g Group36600
f 468 360 410 470
g Group58702
f 109 92 176 174
g Group36600
f 537 292 349 542
g Group58702
f 84 231 223 170
g Group36600
f 544 545 333 334
g Group36603
f 154 155 544 334
g Group58702
f 155 154 240 274
g Group36600
f 392 453 405 480
g Group58702
f 122 123 120 121
g Group36600
f 550 549 534 546
g Group36603
f 136 137 549 550
g Group58702
f 136 275 272 137
g Group36600
f 315 312 454 455
g Group58702
f 94 112 115 98
g Group36600
f 543 535 425 512
g Group58702
f 33 32 37 36
g Group36600
f 455 469 452 315
g Group58702
f 112 94 95 113
g Group36600
f 355 425 535 357
g Group58702
f 38 39 36 37
g Group36600
f 479 359 360 468
g Group58702
f 108 109 174 175
g Group36600
f 377 388 300 301
g Group36603
f 46 44 300 388
g Group58702
f 49 42 44 46
g Group36600
f 361 362 469 455
g Group58702
f 110 112 113 111
g Group36600
f 542 349 508 548
g Group36603
f 167 2 548 508
g Group58702
f 231 2 167 223
g Group36600
f 382 325 431 351
g Group58702
f 168 65 83 169
g Group36600
f 536 291 292 537
g Group58702
f 93 84 170 171
g Group36600
f 351 352 385 382
g Group58702
f 65 168 172 60
g Group36600
f 434 431 325 326
g Group58702
f 82 173 169 83
g Group36600
f 302 303 398 438
g Group58702
f 233 191 192 234
g Group36600
f 316 317 287 381
g Group58702
f 235 118 117 236
g Group36600
f 322 439 440 321
g Group58702
f 238 237 57 59
g Group36600
f 333 296 413 332
g Group58702
f 240 239 114 72
g Group36600
f 339 340 384 385
g Group58702
f 241 172 215 242
g Group36600
f 345 457 522 344
g Group58702
f 244 243 89 219
g Group36600
f 375 352 353 374
g Group58702
f 246 245 61 60
g Group36600
f 400 401 378 379
g Group58702
f 247 50 53 248
g Group36600
f 419 420 356 357
g Group58702
f 249 39 51 250
g Group36600
f 429 454 312 428
g Group58702
f 252 251 98 115
g Group36600
f 443 444 313 450
g Group58702
f 253 87 99 254
g Group36600
f 332 413 454 429
g Group58702
f 239 252 115 114
g Group36600
f 428 444 445 427
g Group36603
f 151 166 427 445
g Group58702
f 251 166 151 254
g Group36600
f 340 302 438 384
g Group58702
f 242 215 191 233
g Group36600
f 463 316 381 516
g Group58702
f 255 75 118 235
g Group36600
f 476 397 398 303
g Group58702
f 256 234 192 54
g Group36600
f 478 317 318 530
g Group36603
f 132 152 530 318
g Group58702
f 257 152 132 236
g Group36600
f 400 420 421 403
g Group36603
f 139 140 403 421
g Group58702
f 247 140 139 250
g Group36600
f 485 456 457 345
g Group58702
f 258 244 219 23
g Group36600
f 322 487 515 439
g Group58702
f 238 59 76 259
g Group36600
f 492 401 402 519
g Group36603
f 141 142 519 402
g Group58702
f 260 142 141 248
g Group36600
f 496 493 490 495
g Group58702
f 262 261 18 19
g Group36600
f 495 490 491 499
g Group58702
f 261 263 17 18
g Group36600
f 504 501 500 503
g Group58702
f 265 264 20 21
g Group36600
f 503 500 493 496
g Group58702
f 264 262 19 20
g Group36600
f 499 491 510 507
g Group58702
f 263 266 22 17
g Group36600
f 507 510 456 485
g Group58702
f 266 258 23 22
g Group36600
f 463 487 488 464
g Group36603
f 156 157 464 488
g Group58702
f 255 157 156 259
g Group36600
f 492 517 451 447
g Group58702
f 260 52 227 267
g Group36600
f 525 521 514 524
g Group58702
f 269 268 25 27
g Group36600
f 443 517 518 446
g Group36603
f 224 149 446 518
g Group58702
f 253 149 224 267
g Group36600
f 524 514 501 504
g Group58702
f 268 265 21 25
g Group36600
f 339 385 352 375
g Group58702
f 241 246 60 172
g Group36600
f 374 353 509 529
g Group58702
f 245 270 62 61
g Group36600
f 321 440 397 476
g Group58702
f 237 256 54 57
g Group36600
f 531 436 286 478
g Group58702
f 271 257 101 103
g Group36600
f 419 534 549 422
g Group36603
f 137 138 422 549
g Group58702
f 249 138 137 272
g Group36600
f 525 538 541 521
g Group58702
f 269 27 30 273
g Group36600
f 529 509 295 545
g Group58702
f 270 274 73 62
g Group36600
f 546 538 539 550
g Group36603
f 135 136 550 539
g Group58702
f 275 136 135 273
g Group36600
f 344 522 436 531
g Group58702
f 243 271 103 89
g Group36600
f 545 295 296 333
g Group58702
f 274 240 72 73
g Group36600
f 546 534 535 543
g Group58702
f 275 33 36 272
g Group10635
f 551 581 555 553
f 582 552 554 556
f 558 557 563 561
f 560 559 562 564
f 581 577 565 555
f 578 582 556 566
f 557 571 567 563
f 571 573 569 567
f 564 568 572 560
f 568 570 574 572
f 573 579 575 569
f 570 576 580 574
f 577 575 579 565
f 576 578 566 580
f 603 551 604 605
f 607 553 608 609
f 608 553 555 611
f 612 557 558 613
f 614 615 613 558
f 617 561 618 619
f 561 563 621 618
f 565 622 611 555
f 563 567 623 621
f 567 569 624 623
f 557 612 625 571
f 626 573 571 625
f 624 569 575 627
f 577 628 627 575
f 573 626 629 579
f 622 565 579 629
f 628 577 581 630
f 551 603 630 581
f 604 551 553 607
f 561 617 614 558
f 609 608 586 585
f 608 611 587 586
f 613 615 590 589
f 619 618 592 591
f 618 621 593 592
f 611 622 594 587
f 621 623 595 593
f 623 624 596 595
f 624 627 599 596
f 627 628 600 599
f 622 629 601 594
f 628 630 602 600
f 584 583 603 605
f 605 604 606 584
f 585 610 607 609
f 589 588 612 613
f 615 614 616 590
f 591 620 617 619
f 588 597 625 612
f 597 598 626 625
f 598 601 629 626
f 583 602 630 603
f 604 607 610 606
f 614 617 620 616
f 631 632 633 552
f 634 635 636 554
f 636 637 556 554
f 638 639 559 560
f 640 559 639 641
f 642 643 644 562
f 562 644 645 564
f 566 556 637 646
f 564 645 647 568
f 568 647 648 570
f 560 572 649 638
f 650 649 572 574
f 648 651 576 570
f 578 576 651 652
f 574 580 653 650
f 646 653 580 566
f 652 654 582 578
f 552 582 654 631
f 552 633 634 554
f 642 562 559 640
f 655 656 583 584
f 657 658 585 586
f 659 657 586 587
f 660 661 588 589
f 662 660 589 590
f 663 664 591 592
f 665 663 592 593
f 666 659 587 594
f 667 665 593 595
f 668 667 595 596
f 661 669 597 588
f 669 670 598 597
f 671 668 596 599
f 672 671 599 600
f 670 673 601 598
f 673 666 594 601
f 674 672 600 602
f 656 674 602 583
f 675 655 584 606
f 658 676 610 585
f 677 662 590 616
f 664 678 620 591
f 675 606 610 676
f 677 616 620 678
f 655 675 633 632
f 656 655 632 631
f 661 660 639 638
f 662 677 640 641
f 664 663 644 643
f 663 665 645 644
f 665 667 647 645
f 667 668 648 647
f 668 671 651 648
f 671 672 652 651
f 672 674 654 652
f 674 656 631 654
f 675 676 634 633
f 677 678 642 640
f 636 635 658 657
f 637 636 657 659
f 641 639 660 662
f 646 637 659 666
f 638 649 669 661
f 649 650 670 669
f 650 653 673 670
f 653 646 666 673
f 635 634 676 658
f 643 642 678 664
g Group40021
f 802 801 800 799
f 685 679 802 799
f 679 683 801 802
f 679 685 684 683
f 806 805 804 803
f 688 680 806 803
f 680 686 805 806
f 680 688 687 686
f 810 809 808 807
f 691 681 810 807
f 681 689 809 810
f 681 691 690 689
f 814 813 812 811
f 694 682 814 811
f 682 692 813 814
f 682 694 693 692
f 811 812 816 815
f 696 694 811 815
f 694 696 695 693
f 815 816 818 817
f 698 696 815 817
f 696 698 697 695
f 817 818 820 819
f 700 698 817 819
f 698 700 699 697
f 819 820 822 821
f 702 700 819 821
f 700 702 701 699
f 821 822 824 823
f 704 702 821 823
f 702 704 703 701
f 823 824 826 825
f 706 704 823 825
f 704 706 705 703
f 825 826 828 827
f 708 706 825 827
f 706 708 707 705
f 827 828 830 829
f 710 708 827 829
f 708 710 709 707
f 829 830 832 831
f 712 710 829 831
f 710 712 711 709
f 831 832 834 833
f 714 712 831 833
f 712 714 713 711
f 833 834 836 835
f 716 714 833 835
f 714 716 715 713
f 835 836 838 837
f 718 716 835 837
f 716 718 717 715
f 837 838 840 839
f 720 718 837 839
f 718 720 719 717
f 839 840 842 841
f 722 720 839 841
f 720 722 721 719
f 841 842 844 843
f 724 722 841 843
f 722 724 723 721
f 843 844 846 845
f 726 724 843 845
f 724 726 725 723
f 845 846 808 809
f 689 726 845 809
f 726 689 690 725
f 846 848 847 808
f 725 690 728 727
f 846 844 849 848
f 725 727 729 723
f 849 851 850 848
f 729 727 731 730
f 849 844 842 852
f 729 732 721 723
f 849 852 853 851
f 729 730 733 732
f 853 855 854 851
f 733 730 735 734
f 853 852 857 856
f 733 737 736 732
f 853 856 858 855
f 733 734 738 737
f 858 860 859 855
f 739 740 859 860
f 738 734 740 739
f 858 856 862 861
f 738 742 741 737
f 858 861 863 860
f 743 739 860 863
f 738 739 743 742
f 863 861 865 864
f 745 743 863 864
f 743 745 744 742
f 864 865 867 866
f 747 745 864 866
f 745 747 746 744
f 866 867 869 868
f 749 747 866 868
f 747 749 748 746
f 868 869 871 870
f 751 749 868 870
f 749 751 750 748
f 870 871 873 872
f 753 751 870 872
f 751 753 752 750
f 872 873 875 874
f 755 753 872 874
f 753 755 754 752
f 874 875 877 876
f 757 755 874 876
f 755 757 756 754
f 876 877 879 878
f 759 757 876 878
f 757 759 758 756
f 878 879 881 880
f 761 759 878 880
f 759 761 760 758
f 880 881 883 882
f 763 761 880 882
f 761 763 762 760
f 882 883 885 884
f 765 763 882 884
f 763 765 764 762
f 884 885 800 801
f 683 765 884 801
f 765 683 684 764
f 885 883 887 886
f 764 767 766 762
f 885 886 888 800
f 764 684 768 767
f 888 886 890 889
f 768 770 769 767
f 888 889 892 891
f 771 772 891 892
f 768 772 771 770
f 888 891 799 800
f 772 685 799 891
f 768 684 685 772
f 892 889 812 813
f 692 771 892 813
f 771 692 693 770
f 889 890 816 812
f 770 693 695 769
f 890 886 887 893
f 769 773 766 767
f 890 893 818 816
f 769 695 697 773
f 893 887 895 894
f 773 775 774 766
f 893 894 820 818
f 773 697 699 775
f 894 895 897 896
f 775 777 776 774
f 894 896 822 820
f 775 699 701 777
f 896 897 899 898
f 777 779 778 776
f 896 898 824 822
f 777 701 703 779
f 898 899 901 900
f 779 781 780 778
f 898 900 826 824
f 779 703 705 781
f 900 901 903 902
f 781 783 782 780
f 900 902 828 826
f 781 705 707 783
f 902 903 905 904
f 783 785 784 782
f 902 904 830 828
f 783 707 709 785
f 904 905 907 906
f 785 787 786 784
f 904 906 832 830
f 785 709 711 787
f 906 907 909 908
f 787 789 788 786
f 906 908 834 832
f 787 711 713 789
f 908 909 911 910
f 789 791 790 788
f 908 910 836 834
f 789 713 715 791
f 910 911 862 912
f 791 792 741 790
f 910 912 838 836
f 791 715 717 792
f 912 862 856 857
f 792 736 737 741
f 912 857 840 838
f 792 717 719 736
f 911 865 861 862
f 790 741 742 744
f 911 909 867 865
f 790 744 746 788
f 909 907 869 867
f 788 746 748 786
f 907 905 871 869
f 786 748 750 784
f 905 903 873 871
f 784 750 752 782
f 903 901 875 873
f 782 752 754 780
f 901 899 877 875
f 780 754 756 778
f 899 897 879 877
f 778 756 758 776
f 897 895 881 879
f 776 758 760 774
f 895 887 883 881
f 774 760 762 766
f 859 913 854 855
f 740 793 913 859
f 740 734 735 793
f 913 915 914 854
f 793 794 915 913
f 793 735 795 794
f 914 915 803 804
f 794 688 803 915
f 795 687 688 794
f 914 804 916 850
f 795 731 796 687
f 914 850 851 854
f 795 735 730 731
f 916 804 805 917
f 686 797 917 805
f 796 797 686 687
f 916 917 918 847
f 797 798 918 917
f 796 728 798 797
f 916 847 848 850
f 796 731 727 728
f 918 807 808 847
f 798 691 807 918
f 798 728 690 691
f 857 852 842 840
f 736 719 721 732
g Group34568
f 1110 1107 1108 1109
f 1042 965 1049 1050
f 1114 1111 1112 1113
f 983 1296 1295 984
f 984 1063 1064 983
f 1118 1115 1116 1117
f 1038 1036 976 971
f 1122 1119 1120 1121
f 1047 981 1027 1035
f 1126 1123 1124 1125
f 927 1065 1066 920
f 1128 1127 1124 1123
f 919 920 1066 1067
f 1132 1129 1130 1131
f 977 1024 1025 975
f 1127 1112 1111 1133
f 1018 1297 1296 983
f 1067 1018 983 1064
f 1137 1134 1135 1136
f 980 960 959 979
f 1139 1114 1113 1138
f 984 1295 1298 985
f 985 1068 1063 984
f 1137 1136 1140 1121
f 980 981 961 960
f 1139 1138 1141 1142
f 985 1298 1299 986
f 985 986 1069 1068
f 1144 1142 1141 1143
f 986 1299 1300 1031
f 1031 1070 1069 986
f 1122 1121 1140 1145
f 1047 1048 961 981
f 1132 1131 1120 1116
f 977 976 1027 1024
f 1147 1144 1143 1146
f 1031 1300 1301 987
f 987 1071 1070 1031
f 1147 1146 1148 1149
f 987 1301 1302 988
f 987 988 1072 1071
f 1150 1132 1116 1115
f 972 971 976 977
f 1152 1151 1123 1126
f 930 927 920 924
f 1153 1128 1123 1151
f 921 924 920 919
f 1157 1154 1155 1156
f 957 958 1073 1074
f 1160 1158 1159 1107
f 1054 1050 1056 1057
f 1153 1151 1161 1162
f 921 922 925 924
f 1152 1163 1161 1151
f 930 924 925 931
f 1165 1164 1161 1163
f 1034 931 925 1033
f 1166 1162 1161 1164
f 1030 1033 925 922
f 1137 1121 1120 1131
f 980 1024 1027 981
f 1168 1166 1164 1167
f 923 926 1033 1030
f 1172 1169 1170 1171
f 963 1075 1076 1052
f 1173 1167 1164 1165
f 934 1034 1033 926
f 1137 1131 1130 1134
f 980 979 1025 1024
f 1175 1117 1119 1174
f 978 1028 1035 1036
f 1177 1176 1154 1157
f 973 957 1074 1077
f 1179 1126 1125 1178
f 928 1078 1065 927
f 1175 1174 1180 1181
f 978 1079 1080 1028
f 1150 1182 1129 1132
f 972 977 975 968
f 1134 1183 1184 1135
f 979 959 1081 1082
f 1185 1152 1126 1179
f 929 928 927 930
f 1185 1186 1163 1152
f 929 930 931 932
f 1160 1187 1188 1158
f 1054 1057 1083 1084
f 1107 1159 1189 1108
f 1050 1049 1059 1056
f 1190 1165 1163 1186
f 1037 932 931 1034
f 1191 1173 1165 1190
f 933 1037 1034 934
f 1193 1109 1108 1192
f 964 1053 1049 965
f 1195 1194 1187 1160
f 966 1054 1084 1085
f 1197 1196 1115 1118
f 1039 1038 971 970
f 1201 1198 1199 1200
f 941 1086 1087 950
f 1129 1202 1203 1130
f 975 1025 1088 1089
f 1205 1204 1180 1174
f 982 1028 1080 1090
f 1209 1206 1207 1208
f 935 936 1091 1092
f 1179 1178 1206 1209
f 928 935 1092 1078
f 1211 1210 1182 1150
f 969 972 968 967
f 1177 1197 1118 1212
f 973 974 1038 1039
f 1212 1118 1117 1175
f 974 978 1036 1038
f 1214 1209 1208 1213
f 938 937 936 935
f 1185 1179 1209 1214
f 929 938 935 928
f 1185 1214 1215 1186
f 929 932 939 938
f 1173 1216 1217 1167
f 934 926 1093 1094
f 1214 1213 1218 1215
f 938 939 940 937
f 1220 1215 1218 1219
f 1040 1041 940 939
f 1190 1186 1215 1220
f 1037 1040 939 932
f 1191 1190 1220 1221
f 933 942 1040 1037
f 1192 1108 1189 1222
f 1053 1060 1059 1049
f 1221 1220 1219 1201
f 942 941 1041 1040
f 1211 1150 1115 1196
f 969 970 971 972
f 1226 1223 1224 1225
f 943 944 1095 1096
f 1228 1225 1224 1227
f 951 1097 1095 944
f 1208 1207 1223 1226
f 936 943 1096 1091
f 1191 1221 1229 1230
f 933 1098 1099 942
f 1192 1222 1231 1169
f 1053 1052 1061 1060
f 1233 1226 1225 1232
f 946 945 944 943
f 1234 1232 1225 1228
f 953 951 944 945
f 1213 1208 1226 1233
f 937 946 943 936
f 1213 1233 1235 1218
f 937 940 947 946
f 1234 1236 1237 1232
f 953 945 948 954
f 1233 1232 1237 1235
f 946 947 948 945
f 1168 1167 1217 1148
f 923 1072 1093 926
f 1239 1235 1237 1238
f 1043 1045 948 947
f 1240 1238 1237 1236
f 1044 954 948 1045
f 1219 1218 1235 1239
f 1041 1043 947 940
f 1201 1219 1239 1198
f 941 950 1043 1041
f 1195 1160 1107 1110
f 966 1042 1050 1054
f 1182 1241 1202 1129
f 968 975 1089 1100
f 1156 1242 1238 1240
f 958 1044 1045 949
f 1198 1239 1238 1242
f 950 949 1045 1043
f 1221 1201 1200 1229
f 942 1099 1086 941
f 1212 1175 1181 1243
f 974 1101 1079 978
f 1245 1228 1227 1244
f 952 1102 1097 951
f 1169 1231 1246 1170
f 1052 1076 1103 1061
f 1193 1192 1169 1172
f 964 963 1052 1053
f 1134 1130 1203 1183
f 979 1082 1088 1025
f 1210 1245 1244 1247
f 967 1104 1102 952
f 1248 1234 1228 1245
f 956 952 951 953
f 1248 1249 1236 1234
f 956 953 954 955
f 1211 1196 1249 1248
f 969 956 955 970
f 1198 1242 1250 1199
f 950 1087 1105 949
f 1211 1248 1245 1210
f 969 967 952 956
f 1156 1155 1250 1242
f 958 949 1105 1073
f 1197 1251 1249 1196
f 1039 970 955 1046
f 1251 1240 1236 1249
f 1046 955 954 1044
f 1157 1156 1240 1251
f 957 1046 1044 958
f 1177 1157 1251 1197
f 973 1039 1046 957
f 1117 1116 1120 1119
f 1036 1035 1027 976
f 1205 1174 1119 1122
f 982 1047 1035 1028
f 1205 1252 1253 1204
f 982 1090 1106 962
f 1191 1230 1216 1173
f 933 934 1094 1098
f 1210 1247 1241 1182
f 967 968 1100 1104
f 1177 1212 1243 1176
f 973 1077 1101 974
f 1205 1122 1145 1252
f 982 962 1048 1047
f 1158 1252 1145 1159
f 1057 1056 1048 962
f 1158 1188 1253 1252
f 1057 962 1106 1083
f 1159 1145 1140 1189
f 1056 1059 961 1048
f 1222 1189 1140 1136
f 1060 960 961 1059
f 1222 1136 1135 1231
f 1060 1061 959 960
f 1231 1135 1184 1246
f 1061 1103 1081 959
f 1112 1128 1113
f 1063 919 1064
f 1125 1124 1254 1255
f 1016 1304 1303 1017
f 1065 1016 1017 1066
f 1127 1133 1254 1124
f 1017 1303 1297 1018
f 1067 1066 1017 1018
f 1112 1127 1128
f 919 1067 1064
f 1138 1113 1128 1153
f 1068 921 919 1063
f 1138 1153 1162 1141
f 1068 1069 922 921
f 1143 1141 1162 1166
f 1070 1030 922 1069
f 1146 1143 1166 1168
f 1071 923 1030 1070
f 1146 1168 1148
f 1072 923 1071
f 1154 1256 1257 1155
f 996 1306 1305 997
f 1074 1073 996 997
f 1171 1170 1258 1259
f 1006 1308 1307 1051
f 1075 1006 1051 1076
f 1176 1260 1256 1154
f 997 1305 1309 998
f 1077 1074 997 998
f 1178 1125 1255 1261
f 1015 1310 1304 1016
f 1078 1015 1016 1065
f 1181 1180 1262 1263
f 1019 1312 1311 1026
f 1079 1019 1026 1080
f 1183 1264 1265 1184
f 1007 1314 1313 1008
f 1082 1081 1007 1008
f 1187 1266 1267 1188
f 1058 1316 1315 1055
f 1084 1083 1058 1055
f 1194 1268 1266 1187
f 1055 1315 1317 1001
f 1085 1084 1055 1001
f 1200 1199 1269 1270
f 993 1319 1318 994
f 1086 993 994 1087
f 1202 1271 1272 1203
f 1029 1321 1320 1023
f 1089 1088 1029 1023
f 1204 1273 1262 1180
f 1026 1311 1322 1022
f 1090 1080 1026 1022
f 1206 1274 1275 1207
f 1013 1324 1323 1014
f 1092 1091 1013 1014
f 1178 1261 1274 1206
f 1014 1323 1310 1015
f 1078 1092 1014 1015
f 1216 1276 1277 1217
f 989 1326 1325 990
f 1094 1093 989 990
f 1223 1278 1279 1224
f 1011 1328 1327 1012
f 1096 1095 1011 1012
f 1227 1224 1279 1280
f 1010 1329 1328 1011
f 1097 1010 1011 1095
f 1207 1275 1278 1223
f 1012 1327 1324 1013
f 1091 1096 1012 1013
f 1230 1229 1281 1282
f 991 1331 1330 992
f 1098 991 992 1099
f 1148 1217 1277 1149
f 988 1302 1326 989
f 1072 988 989 1093
f 1241 1283 1271 1202
f 1023 1320 1332 1020
f 1100 1089 1023 1020
f 1229 1200 1270 1281
f 992 1330 1319 993
f 1099 992 993 1086
f 1243 1181 1263 1284
f 999 1333 1312 1019
f 1101 999 1019 1079
f 1244 1227 1280 1285
f 1009 1334 1329 1010
f 1102 1009 1010 1097
f 1170 1246 1286 1258
f 1051 1307 1335 1062
f 1076 1051 1062 1103
f 1183 1203 1272 1264
f 1008 1313 1321 1029
f 1082 1008 1029 1088
f 1247 1244 1285 1287
f 1021 1336 1334 1009
f 1104 1021 1009 1102
f 1199 1250 1288 1269
f 994 1318 1337 995
f 1087 994 995 1105
f 1155 1257 1288 1250
f 995 1337 1306 996
f 1073 1105 995 996
f 1204 1253 1289 1273
f 1022 1322 1338 1000
f 1090 1022 1000 1106
f 1230 1282 1276 1216
f 990 1325 1331 991
f 1098 1094 990 991
f 1247 1287 1283 1241
f 1020 1332 1336 1021
f 1104 1100 1020 1021
f 1176 1243 1284 1260
f 998 1309 1333 999
f 1077 998 999 1101
f 1188 1267 1289 1253
f 1000 1338 1316 1058
f 1083 1106 1000 1058
f 1246 1184 1265 1286
f 1062 1335 1314 1007
f 1103 1062 1007 1081
f 1259 1290 1172 1171
f 1005 1339 1308 1006
f 1006 1075 963 1005
f 1290 1291 1193 1172
f 1004 1340 1339 1005
f 1005 963 964 1004
f 1291 1292 1109 1193
f 1003 1341 1340 1004
f 1004 964 965 1003
f 1292 1293 1110 1109
f 1032 1342 1341 1003
f 1003 965 1042 1032
f 1293 1294 1195 1110
f 1002 1343 1342 1032
f 1032 1042 966 1002
f 1294 1268 1194 1195
f 1001 1317 1343 1002
f 1002 966 1085 1001
f 1296 1345 1344 1295
f 1297 1346 1345 1296
f 1295 1344 1347 1298
f 1298 1347 1348 1299
f 1299 1348 1349 1300
f 1300 1349 1350 1301
f 1301 1350 1351 1302
f 1304 1353 1352 1303
f 1303 1352 1346 1297
f 1306 1355 1354 1305
f 1308 1357 1356 1307
f 1305 1354 1358 1309
f 1310 1359 1353 1304
f 1312 1361 1360 1311
f 1314 1363 1362 1313
f 1316 1365 1364 1315
f 1315 1364 1366 1317
f 1319 1368 1367 1318
f 1321 1370 1369 1320
f 1311 1360 1371 1322
f 1324 1373 1372 1323
f 1323 1372 1359 1310
f 1326 1375 1374 1325
f 1328 1377 1376 1327
f 1329 1378 1377 1328
f 1327 1376 1373 1324
f 1331 1380 1379 1330
f 1302 1351 1375 1326
f 1320 1369 1381 1332
f 1330 1379 1368 1319
f 1333 1382 1361 1312
f 1334 1383 1378 1329
f 1307 1356 1384 1335
f 1313 1362 1370 1321
f 1336 1385 1383 1334
f 1318 1367 1386 1337
f 1337 1386 1355 1306
f 1322 1371 1387 1338
f 1325 1374 1380 1331
f 1332 1381 1385 1336
f 1309 1358 1382 1333
f 1338 1387 1365 1316
f 1335 1384 1363 1314
f 1339 1388 1357 1308
f 1340 1389 1388 1339
f 1341 1390 1389 1340
f 1342 1391 1390 1341
f 1343 1392 1391 1342
f 1317 1366 1392 1343
f 1345 1111 1114 1344
f 1346 1133 1111 1345
f 1344 1114 1139 1347
f 1347 1139 1142 1348
f 1348 1142 1144 1349
f 1349 1144 1147 1350
f 1350 1147 1149 1351
f 1353 1255 1254 1352
f 1352 1254 1133 1346
f 1355 1257 1256 1354
f 1357 1259 1258 1356
f 1354 1256 1260 1358
f 1359 1261 1255 1353
f 1361 1263 1262 1360
f 1363 1265 1264 1362
f 1365 1267 1266 1364
f 1364 1266 1268 1366
f 1368 1270 1269 1367
f 1370 1272 1271 1369
f 1360 1262 1273 1371
f 1373 1275 1274 1372
f 1372 1274 1261 1359
f 1375 1277 1276 1374
f 1377 1279 1278 1376
f 1378 1280 1279 1377
f 1376 1278 1275 1373
f 1380 1282 1281 1379
f 1351 1149 1277 1375
f 1369 1271 1283 1381
f 1379 1281 1270 1368
f 1382 1284 1263 1361
f 1383 1285 1280 1378
f 1356 1258 1286 1384
f 1362 1264 1272 1370
f 1385 1287 1285 1383
f 1367 1269 1288 1386
f 1386 1288 1257 1355
f 1371 1273 1289 1387
f 1374 1276 1282 1380
f 1381 1283 1287 1385
f 1358 1260 1284 1382
f 1387 1289 1267 1365
f 1384 1286 1265 1363
f 1388 1290 1259 1357
f 1389 1291 1290 1388
f 1390 1292 1291 1389
f 1391 1293 1292 1390
f 1392 1294 1293 1391
f 1366 1268 1294 1392

 