# File exported by ZBrush version 2021
# www.zbrush.com
#Vertex Count 906
#Face Count 920
#Auto scale x=1.000000 y=1.000000 z=1.000000
#Auto offset x=0.000000 y=0.000000 z=0.000000
v -0.33294212 2.70013594 -1.0914849
v -0.00000194 2.70013594 -1.16227304
v -0.00000097 3.40662574 -0.23233622
v -0.61519712 2.70013594 -0.88990068
v -0.80379188 2.70013594 -0.58820712
v -0.8700174 2.70013594 -0.23233622
v -0.8037908 2.70013594 0.12353587
v -0.6151961 2.70013594 0.4252299
v -0.33294212 2.70013594 0.62681329
v 0 2.70013594 0.69760179
v 0.33294111 2.70013594 0.62681329
v 0.61519515 2.70013594 0.42523074
v 0.8037908 2.70013594 0.12353587
v 0.87001645 2.70013594 -0.23233717
v 0.8037908 2.70013594 -0.58820712
v 0.61519712 2.70013594 -0.88990068
v 0.33294013 2.70013594 -1.0914849
v -0.73121416 1.46880412 -2.11922454
v 0 1.46880412 -2.27468848
v -1.35110676 1.46880412 -1.67649567
v -1.7653054 1.46880412 -1.01391029
v -1.91075408 1.46880412 -0.23233622
v -1.7653054 1.46880412 0.5492376
v -1.35110676 1.46880412 1.2118237
v -0.73121321 1.46880412 1.6545484
v 0 1.46880412 1.81001305
v 0.73121517 1.46880412 1.6545484
v 1.35110676 1.46880412 1.2118237
v 1.76530635 1.46880412 0.54923665
v 1.91075587 1.46880412 -0.23233622
v 1.76530635 1.46880412 -1.01391029
v 1.35110676 1.46880412 -1.67649567
v 0.73121321 1.46880412 -2.11922454
v -0.77571511 1.19696831 -2.23405718
v 0 1.19696831 -2.398983
v -1.43333208 1.19696736 -1.76438462
v -1.87274086 1.19696831 -1.06147575
v -2.02703785 1.19696831 -0.23233622
v -1.87274086 1.19696831 0.5968039
v -1.43333208 1.19696736 1.29971337
v -0.77571511 1.19696831 1.76938319
v 0 1.19696831 1.93430686
v 0.77571511 1.19696831 1.76938223
v 1.43333506 1.19696831 1.29971194
v 1.87274181 1.19696831 0.5968039
v 2.02703857 1.19696831 -0.23233622
v 1.87274181 1.19696831 -1.06147575
v 1.43333208 1.19696831 -1.76438772
v 0.77571511 1.19696831 -2.23405718
v -0.82030147 0.92500042 -2.34911251
v 0 0.92500042 -2.52351808
v -1.51571929 0.92500042 -1.85244643
v -1.98038077 0.92500042 -1.10913193
v -2.14355039 0.92500042 -0.23233622
v -1.98038077 0.92500042 0.64446198
v -1.51571929 0.92500042 1.38777184
v -0.82029956 0.92500042 1.88443446
v 0 0.92500042 2.05884385
v 0.82030147 0.92500042 1.88443732
v 1.51571929 0.92500042 1.38777184
v 1.98037982 0.92500042 0.64446103
v 2.14354944 0.92500042 -0.23233622
v 1.98037982 0.92500042 -1.10913288
v 1.51571929 0.92500042 -1.85244643
v 0.82030147 0.92500042 -2.34911251
v -0.23518559 2.3658638 -0.83922469
v -0.00000097 2.3658638 -0.88922959
v 0 2.86379909 -0.23233622
v -0.43456447 2.3658638 -0.69682914
v -0.56778574 2.3658638 -0.48371788
v -0.61456704 2.3658638 -0.23233622
v -0.56778574 2.3658638 0.01904535
v -0.43456447 2.3658638 0.2321583
v -0.23518462 2.3658638 0.37455463
v 0 2.3658638 0.42455792
v 0.23518462 2.3658638 0.37455368
v 0.43456447 2.3658638 0.23215842
v 0.56778472 2.3658638 0.01904535
v 0.61456704 2.3658638 -0.23233717
v 0.56778472 2.3658638 -0.48371788
v 0.43456447 2.3658638 -0.69682914
v 0.23518264 2.3658638 -0.83922469
v -0.36502638 2.19560504 -1.17427504
v -0.00000194 2.19560504 -1.25188469
v -0.67447757 2.19560504 -0.95326542
v -0.88124662 2.19560504 -0.62250179
v -0.95385694 2.19560504 -0.23233622
v -0.88124662 2.19560504 0.15783071
v -0.67447757 2.19560504 0.48859548
v -0.36502438 2.19560504 0.70960319
v 0 2.19560504 0.78721571
v 0.36502537 2.19560504 0.70960283
v 0.67447757 2.19560504 0.48859345
v 0.88124764 2.19560599 0.15782845
v 0.95385515 2.19560694 -0.23233717
v 0.88124662 2.19560504 -0.62250077
v 0.67447757 2.19560599 -0.95326638
v 0.36502346 2.19560599 -1.17427587
v -0.42105436 2.08138346 -1.31885325
v -0.00000097 2.08138251 -1.40837597
v -0.77800244 2.08138346 -1.06392133
v -1.01651012 2.08138346 -0.68238878
v -1.10026264 2.08138346 -0.23233622
v -1.01651012 2.08138346 0.21771729
v -0.77800244 2.08138346 0.59925115
v -0.42105335 2.08138346 0.85417974
v 0 2.08138346 0.94370341
v 0.42105436 2.08138346 0.85417974
v 0.77800244 2.08138346 0.59925043
v 1.01651012 2.08138346 0.21771621
v 1.10026264 2.08138346 -0.23233622
v 1.01651012 2.08138346 -0.68238878
v 0.77800428 2.08138346 -1.06392133
v 0.42105335 2.08138346 -1.31885325
v -0.45108884 1.99333453 -1.39636373
v 0 1.99333453 -1.4922707
v -0.83350414 1.99333453 -1.12324416
v -1.08902549 1.99333453 -0.7144916
v -1.17875313 1.99333453 -0.23233622
v -1.08902442 1.99333453 0.24982035
v -0.83350312 1.99333453 0.65857207
v -0.45108884 1.99333453 0.93169212
v 0 1.99333453 1.02759861
v 0.45108884 1.99333453 0.93169212
v 0.83350515 1.99333453 0.65857243
v 1.08902549 1.99333453 0.24982035
v 1.17875313 1.99333453 -0.23233622
v 1.08902549 1.99333453 -0.7144916
v 0.83350414 1.99333453 -1.12324416
v 0.45108884 1.99333453 -1.39636373
v -0.46948164 1.92018127 -1.44382381
v 0 1.92018127 -1.54364323
v -0.86748838 1.92018222 -1.15956926
v -1.13342678 1.92018222 -0.73415088
v -1.22681319 1.92018222 -0.23233622
v -1.13342678 1.92018222 0.26947855
v -0.86748838 1.92018222 0.69489717
v -0.46948066 1.92018127 0.97915172
v 0 1.92018127 1.07896614
v 0.46948066 1.92018222 0.97915267
v 0.86748838 1.92018127 0.69489717
v 1.13342773 1.92018127 0.26947855
v 1.22681403 1.92018127 -0.23233622
v 1.13342773 1.92018127 -0.73415088
v 0.86748838 1.92018127 -1.15956926
v 0.46948066 1.92018127 -1.44382381
v -0.48427441 1.84660434 -1.48199927
v 0 1.84660434 -1.58496165
v -0.89482361 1.84660339 -1.18878722
v -1.16914188 1.84660339 -0.74996328
v -1.2654705 1.84660244 -0.23233622
v -1.16914188 1.84660339 0.28529238
v -0.89482361 1.84660244 0.72411644
v -0.48427441 1.84660339 1.01732599
v 0 1.84660434 1.12029004
v 0.48427441 1.84660339 1.01732778
v 0.89482462 1.84660434 0.72411608
v 1.16914272 1.84660434 0.28529334
v 1.2654705 1.84660434 -0.23233622
v 1.16914272 1.84660434 -0.74996328
v 0.89482265 1.8466053 -1.18878722
v 0.48427441 1.84660434 -1.48199927
v -0.49855065 1.76596522 -1.51883626
v 0 1.76596331 -1.62483453
v -0.92119973 1.76596331 -1.21697914
v -1.20360529 1.76596331 -0.76522326
v -1.3027749 1.76596331 -0.23233622
v -1.20360529 1.76596331 0.30055296
v -0.92119973 1.76596331 0.75230908
v -0.49855065 1.76596522 1.05416023
v 0 1.76596331 1.16016173
v 0.49855065 1.76596522 1.05416023
v 0.92120176 1.76596522 0.75230658
v 1.20360624 1.76596331 0.30054903
v 1.3027749 1.76596331 -0.23233622
v 1.20360624 1.76596331 -0.76522123
v 0.92119878 1.76596522 -1.21698021
v 0.4985497 1.76596522 -1.51883721
v -0.5130493 1.67947745 -1.55625391
v 0 1.67947745 -1.66533398
v -0.94799345 1.6794784 -1.24561917
v -1.23861336 1.67947745 -0.78072023
v -1.34066534 1.67947745 -0.23233622
v -1.23861336 1.67947745 0.31604909
v -0.94799447 1.6794784 0.78094673
v -0.5130493 1.67947745 1.09157967
v 0 1.67947745 1.20066094
v 0.5130493 1.67947745 1.09157967
v 0.94799345 1.6794784 0.7809472
v 1.23861432 1.67947745 0.31604838
v 1.34066641 1.67947745 -0.23233622
v 1.23861336 1.6794784 -0.78072112
v 0.94799345 1.67947745 -1.24562013
v 0.5130493 1.6794765 -1.55625462
v -0.52774798 1.590245 -1.59417998
v 0 1.59024405 -1.70638513
v -0.9751504 1.590245 -1.27464664
v -1.2740941 1.590245 -0.79642999
v -1.3790704 1.590245 -0.23233622
v -1.2740941 1.590245 0.33175873
v -0.9751504 1.590245 0.80997383
v -0.52774798 1.59024405 1.12950778
v 0 1.59024405 1.2417128
v 0.52774798 1.59024405 1.12950682
v 0.9751504 1.59024405 0.80997383
v 1.27409601 1.590245 0.33175873
v 1.3790704 1.59024596 -0.23233622
v 1.27409517 1.59024596 -0.79643172
v 0.97514939 1.590245 -1.27464783
v 0.52774798 1.59024405 -1.59417998
v -0.54254275 1.49998068 -1.63235759
v 0 1.49998068 -1.74771058
v -1.00248837 1.49998068 -1.3038671
v -1.30981433 1.49998068 -0.81224417
v -1.41773366 1.49998068 -0.23233622
v -1.30981433 1.49998068 0.34757268
v -1.00248837 1.49998068 0.83919441
v -0.54254275 1.49998068 1.16768527
v 0 1.49998068 1.28303885
v 0.54254275 1.49998068 1.16768717
v 1.00248837 1.49998068 0.83919441
v 1.30981433 1.49998068 0.34757268
v 1.41773366 1.49998068 -0.23233622
v 1.30981326 1.49998068 -0.81224417
v 1.00248837 1.49998068 -1.3038671
v 0.54254275 1.49998068 -1.63235831
v -0.55736076 1.40947985 -1.67059862
v 0 1.40947985 -1.78910017
v -1.02986943 1.40947985 -1.33313441
v -1.3455888 1.40947985 -0.82808309
v -1.45645546 1.40947985 -0.23233622
v -1.3455888 1.40948081 0.36341202
v -1.02986943 1.40947985 0.86846029
v -0.55736076 1.40947985 1.20592665
v 0 1.40947985 1.32442927
v 0.55736076 1.40947985 1.20592665
v 1.02987039 1.40947985 0.86846029
v 1.34558975 1.40947985 0.36341202
v 1.45645546 1.40947985 -0.23233622
v 1.34558975 1.40947985 -0.82808309
v 1.02986943 1.40947985 -1.33313536
v 0.55736076 1.40947985 -1.67059767
v -0.57219559 1.31886911 -1.70887637
v 0 1.31887006 -1.83053195
v -1.05727827 1.31886911 -1.362432
v -1.38139951 1.31887006 -0.84393948
v -1.49521791 1.31887006 -0.23233622
v -1.38139951 1.31887006 0.37926769
v -1.05727934 1.31886911 0.89775764
v -0.57219559 1.31886911 1.2442038
v 0 1.31887006 1.36585927
v 0.57219559 1.31887006 1.2442038
v 1.05727934 1.31886911 0.89775669
v 1.38140046 1.31886911 0.37926673
v 1.49521791 1.31886911 -0.23233622
v 1.38140046 1.31886911 -0.84393948
v 1.05727934 1.31886911 -1.362432
v 0.57219559 1.31886911 -1.70887637
v -0.58702361 1.22828412 -1.74714028
v 0 1.22828412 -1.87194895
v -1.08467662 1.22828412 -1.39171731
v -1.4172002 1.22828412 -0.85978889
v -1.53396678 1.22828412 -0.23233622
v -1.4171983 1.22828412 0.39511787
v -1.08467865 1.22828698 0.92704486
v -0.58702361 1.22828412 1.28246665
v 0 1.22828412 1.40727829
v 0.58702361 1.22828412 1.28246665
v 1.08467865 1.22828698 0.92704391
v 1.41719925 1.22828412 0.39511787
v 1.53396678 1.22828412 -0.23233622
v 1.41719925 1.22828412 -0.85978889
v 1.08467865 1.22828412 -1.39171731
v 0.58702361 1.22828412 -1.74714028
v -0.60185897 1.13766026 -1.78542411
v 0 1.13766026 -1.9133917
v -1.11209249 1.13766026 -1.42101991
v -1.45301771 1.13766026 -0.87564593
v -1.57273602 1.13766026 -0.23233622
v -1.45301771 1.13766026 0.4109745
v -1.11209249 1.13766026 0.95634818
v -0.60185897 1.13766026 1.3207519
v 0 1.13766026 1.44871592
v 0.60185897 1.13766026 1.3207519
v 1.11209249 1.13765835 0.95634818
v 1.45301675 1.13765835 0.4109745
v 1.57273602 1.13765835 -0.23233622
v 1.45301675 1.13765835 -0.87564593
v 1.11209249 1.13765835 -1.42101991
v 0.60185897 1.13765835 -1.78542411
v -0.61669862 1.0470221 -1.82371366
v 0 1.0470221 -1.95482921
v -1.13950741 1.0470221 -1.45032358
v -1.48883819 1.04702401 -0.89150577
v -1.61150586 1.0470221 -0.23233622
v -1.48883819 1.04702401 0.42683279
v -1.13950741 1.0470221 0.98564827
v -0.61669862 1.0470221 1.35904097
v 0 1.0470221 1.49015736
v 0.61669862 1.0470221 1.35904049
v 1.13950943 1.0470221 0.98564827
v 1.48884105 1.0470221 0.42683601
v 1.61150682 1.0470221 -0.23233622
v 1.48884105 1.0470221 -0.89150691
v 1.13950741 1.0470221 -1.45032572
v 0.61669862 1.0470221 -1.82371425
v -0.63153779 0.95637822 -1.86201369
v 0 0.95637822 -1.99628746
v -1.16693031 0.95637822 -1.47963547
v -1.52466857 0.95637822 -0.90736931
v -1.65029013 0.95637822 -0.23233622
v -1.52466857 0.95637822 0.44269716
v -1.16693031 0.95637822 1.01496386
v -0.63153779 0.95637822 1.39733862
v 0 0.95637822 1.53161454
v 0.6315388 0.95637822 1.39733958
v 1.16693115 0.95637917 1.01496386
v 1.52466952 0.95637917 0.44269716
v 1.65028917 0.95637822 -0.23233622
v 1.52466952 0.95637822 -0.90736931
v 1.16693031 0.95637822 -1.47963643
v 0.63153779 0.95637822 -1.86201369
v -0.64642798 0.86551499 -1.90043342
v 0 0.86551499 -2.03786873
v -1.19444227 0.86551499 -1.50904059
v -1.56061255 0.86551499 -0.92328357
v -1.68919456 0.86551499 -0.23233622
v -1.56061255 0.86551499 0.45861148
v -1.19444227 0.86551499 1.044366
v -0.64642703 0.86551499 1.4357593
v 0 0.86551499 1.57319569
v 0.64642798 0.86551499 1.4357593
v 1.19444131 0.86551499 1.044366
v 1.56061255 0.86551499 0.45861089
v 1.68919563 0.86551499 -0.23233622
v 1.56061255 0.86551499 -0.92328357
v 1.19444131 0.86551499 -1.50903964
v 0.64642798 0.86551499 -1.90043151
v -0.66145211 0.77407765 -1.93920052
v 0 0.7740786 -2.07983136
v -1.2222023 0.7740786 -1.53871154
v -1.59688115 0.7740786 -0.93934297
v -1.72845387 0.7740786 -0.23233622
v -1.59688115 0.7740786 0.47467029
v -1.2222011 0.77408051 1.07403695
v -0.66144907 0.7740786 1.47452569
v 0 0.7740786 1.61515688
v 0.6614511 0.77408051 1.47452664
v 1.2222011 0.77408051 1.07403695
v 1.59688222 0.77407765 0.47466933
v 1.72845482 0.77407765 -0.23233622
v 1.59688115 0.7740786 -0.93934202
v 1.2222011 0.7740786 -1.53871154
v 0.6614511 0.7740786 -1.93919611
v -0.67689931 0.68090057 -1.97906327
v 0 0.68090057 -2.12298178
v -1.2507472 0.68090248 -1.56922388
v -1.63417851 0.68090057 -0.95585364
v -1.76882267 0.68090057 -0.23233622
v -1.63417851 0.68090057 0.49118268
v -1.25074613 0.68090248 1.10455155
v -0.67689931 0.68090248 1.51438975
v 0 0.68090248 1.65830779
v 0.67689931 0.68090248 1.5143888
v 1.25074613 0.68090248 1.10454869
v 1.63417851 0.68090248 0.49118268
v 1.76882565 0.68090057 -0.23233622
v 1.63417851 0.68090248 -0.95585364
v 1.25074613 0.68090057 -1.56922388
v 0.67689931 0.68090057 -1.97906327
v -0.69335097 0.58404827 -2.02151918
v 0 0.58405017 -2.16893267
v -1.28114736 0.58404827 -1.60171711
v -1.67389977 0.58404827 -0.97343933
v -1.8118155 0.58404827 -0.23233622
v -1.67389977 0.58404731 0.50876832
v -1.28114819 0.58404731 1.13704419
v -0.69335186 0.58404731 1.55684733
v 0 0.58404731 1.70426011
v 0.69335097 0.58404731 1.55684733
v 1.28114736 0.58404731 1.13704419
v 1.67389977 0.58404827 0.50876832
v 1.8118155 0.58405017 -0.23233622
v 1.67389977 0.58404827 -0.97344028
v 1.2811464 0.58404731 -1.60171914
v 0.69335097 0.58404827 -2.02151918
v -0.7117213 0.48123264 -2.06891965
v 0 0.48123264 -2.22024154
v -1.31508886 0.48123168 -1.63799655
v -1.71824312 0.48123264 -0.99307429
v -1.85981333 0.48123264 -0.23233622
v -1.71824312 0.48123264 0.52840399
v -1.31508886 0.48123168 1.17332482
v -0.7117213 0.48123168 1.6042478
v 0 0.48123168 1.75556683
v 0.7117213 0.48122978 1.6042478
v 1.31508994 0.48122978 1.17332482
v 1.7182461 0.48123168 0.52840054
v 1.85981416 0.48123264 -0.23233622
v 1.7182461 0.48123264 -0.99307429
v 1.3150866 0.48123264 -1.63799655
v 0.7117213 0.48123264 -2.06891965
v -0.73086392 0.38133144 -2.11831903
v 0 0.38133144 -2.27370405
v -1.35045909 0.38133144 -1.6758039
v -1.76445817 0.38133144 -1.01353526
v -1.90983402 0.38133144 -0.23233622
v -1.76445722 0.38133144 0.54886436
v -1.35045909 0.38133144 1.21113085
v -0.73086291 0.38133144 1.65364241
v 0 0.38133144 1.80903077
v 0.73086392 0.38133144 1.65364241
v 1.35046005 0.38133144 1.21113276
v 1.76445901 0.38133144 0.54886233
v 1.90983498 0.38133144 -0.23233622
v 1.76445901 0.38133144 -1.01353526
v 1.35046005 0.38132953 -1.6758039
v 0.73086392 0.38133144 -2.11832094
v -0.76168954 0.20848751 -2.19786
v 0 0.20848751 -2.35980892
v -1.40741682 0.20848751 -1.73668384
v -1.83887839 0.20848751 -1.04648375
v -1.99038887 0.20848751 -0.23233622
v -1.83887839 0.20848751 0.58181202
v -1.40741682 0.20848751 1.27201294
v -0.76168859 0.20848751 1.73318886
v 0 0.20848751 1.8951323
v 0.76168954 0.20848751 1.73318886
v 1.40741777 0.20848846 1.27201104
v 1.83887839 0.20848751 0.58181166
v 1.99038887 0.20848751 -0.23233622
v 1.83887839 0.20848751 -1.04648375
v 1.40741777 0.20848751 -1.73668384
v 0.76168954 0.20848751 -2.19786
v 2.47423148 -0.26996326 -0.23233622
v 2.28589224 -0.26996326 0.77971899
v 2.28589224 -0.26996326 -1.24439382
v 1.74954378 -0.26996326 -2.10237455
v 0 -0.26996326 -2.87696957
v 0.94684749 -0.26996326 -2.67566347
v -0.94684666 -0.26996326 2.2109878
v -1.74954283 -0.26996326 1.63769984
v 0 -0.26996326 2.41229653
v 0.94684749 -0.26996326 2.21098828
v 1.74954378 -0.26996326 1.63769888
v -0.94684749 -0.26996326 -2.67566442
v -1.74954283 -0.26996326 -2.1023755
v -2.28589224 -0.26996326 -1.24439489
v -2.47423028 -0.26996326 -0.23233622
v -2.28589224 -0.26996326 0.7797234
v 1.99463939 -0.27749061 0.65077185
v 2.15898227 -0.27749061 -0.23233622
v 1.99463939 -0.27748966 -1.11544525
v 1.52663087 -0.27748966 -1.8641082
v 0.82620686 -0.27749061 -2.36435008
v 0 -0.27749061 -2.5400114
v -1.52663087 -0.27748966 1.39943528
v -0.8262059 -0.27748966 1.89967608
v 0 -0.27749061 2.07533717
v 0.82620686 -0.27749061 1.89967703
v 1.52663087 -0.27748966 1.39943432
v -0.82620686 -0.27749061 -2.36435103
v -1.52663087 -0.27748966 -1.86410915
v -1.99463939 -0.27749061 -1.11544525
v -2.15898227 -0.27749061 -0.23233622
v -1.99464035 -0.27749061 0.65077292
v -0.00000097 2.00481009 -1.878322
v -1.08889246 2.00480914 -1.39622211
v -0.58930552 2.00480914 -1.75302648
v -1.42270565 2.00480914 -0.86222642
v -1.53992712 2.00481009 -0.23233622
v -1.08889246 2.00480914 0.93154704
v -1.42270565 2.00480914 0.39755368
v -0.58930456 2.00480914 1.28835463
v 0.58930355 2.00480914 1.28835368
v 1.42270672 2.00481009 0.39755368
v 1.08889246 2.00481009 0.93154704
v 1.53992712 2.00481009 -0.23233622
v 1.08889246 2.00481009 -1.39622211
v 1.42270672 2.00480914 -0.86222744
v 0.58930355 2.00481009 -1.75302648
v 0 2.00481009 1.41364836
v -0.00000097 2.25875639 -1.61680769
v -0.91589081 2.25875544 -1.21130418
v -0.49567613 2.25875544 -1.51141977
v -1.19666767 2.25875544 -0.76214879
v -1.29526424 2.25875639 -0.23233622
v -0.9158898 2.25875544 0.74663245
v -1.19666683 2.25875544 0.29747748
v -0.49567613 2.25875544 1.04674446
v 0.4956752 2.25875544 1.04674446
v 1.19666683 2.25875639 0.29747748
v 0.9158898 2.25875639 0.74663341
v 1.29526424 2.25875639 -0.23233622
v 0.91589081 2.25875639 -1.21130514
v 1.19666683 2.25875544 -0.76215064
v 0.4956752 2.25875639 -1.51141977
v 0 2.25875639 1.15213513
v -0.00000194 2.48168826 -1.38723087
v -0.76401627 2.48168826 -1.04897022
v -0.41348284 2.48168826 -1.29931974
v -0.99823379 2.48168826 -0.67429471
v -1.08048033 2.48168826 -0.23233622
v -0.76401531 2.48168826 0.58429837
v -0.99823278 2.48168826 0.20962178
v -0.41348284 2.48168826 0.83464884
v 0.41348183 2.48168826 0.83464884
v 0.99823379 2.48168826 0.20962178
v 0.76401531 2.48168826 0.58429908
v 1.08048033 2.48168826 -0.23233717
v 0.76401531 2.48168826 -1.04897022
v 0.99823379 2.48168826 -0.67429471
v 0.41348084 2.48168826 -1.29931974
v 0 2.48168826 0.92255747
v -1.61597168 0.61926555 1.49493002
v -0.87455833 0.61926555 -2.4891169
v 2.11136651 0.61926555 -1.16712641
v 0 0.61926555 -2.67505765
v -1.61597168 0.61926555 -1.95960116
v -2.11136651 0.61926555 -1.16712558
v -2.28532886 0.61926555 -0.23233622
v -2.11136651 0.61926555 0.70245385
v -0.87455737 0.61926555 2.02444386
v 0.87455833 0.61926555 2.02444481
v 2.11136651 0.61926555 0.70245325
v 1.61597168 0.61926555 1.49492907
v 2.28532981 0.61926555 -0.23233622
v 1.61597168 0.61926555 -1.95960116
v 0.87455833 0.61926555 -2.4891169
v 0 0.61926555 2.21038651
v -0.65790474 1.74570536 -1.93004536
v 0 1.74570536 -2.06992507
v -0.65790373 1.74570536 1.46537375
v -1.21564674 1.74570536 1.06703078
v 1.58831906 1.74570536 -0.93555164
v 1.71918499 1.74570536 -0.23233622
v 0.65790373 1.74570536 1.46537375
v 0 1.74570536 1.60525107
v -1.71918499 1.74570536 -0.23233622
v -1.58831822 1.74570536 -0.93555069
v 0.65790373 1.74570536 -1.93004536
v 1.21564674 1.74570536 -1.53170692
v 1.58831906 1.74570536 0.47087836
v 1.21564674 1.74570536 1.06703424
v -1.58831822 1.74570536 0.47087931
v -1.21564674 1.74570536 -1.53170585
v -1.38600921 -0.26996326 1.89733624
v -1.2094146 -0.27748966 1.6259911
v -0.48736551 2.70013594 0.51652443
v -0.15078769 3.08666324 0.15676593
v -0.27257713 1.13766026 1.39076209
v -0.26585808 1.22828412 1.35075306
v -0.32233277 0.48123168 1.68703484
v -0.31401321 0.58404731 1.63749718
v -0.70888966 1.84660339 0.85691046
v -0.68723368 1.92018222 0.82363438
v -0.66031092 1.99333453 0.78226709
v -0.61634326 2.08138346 0.71470606
v -1.06984901 0.38133144 1.41154027
v -1.04182863 0.48123168 1.36848616
v -0.53432923 2.19560504 0.58868813
v -0.34426707 2.3658638 0.29664778
v -0.15078668 2.70013594 0.66554272
v -0.10651294 2.63828826 0.04251915
v -0.10651294 2.3658638 0.40191292
v -0.39607954 0.61926555 2.12617516
v -0.33116 1.46880412 1.73960518
v -0.35131445 1.19696831 1.85961413
v -1.01494085 0.58404731 1.32716965
v -1.20076966 0.92500042 1.61270642
v -1.2801907 0.61926555 1.73474192
v -0.99085509 0.68090248 1.29016327
v -0.25914278 1.31886911 1.31076312
v -0.96824085 0.77407956 1.25541567
v -0.86263334 2.00480914 1.09314346
v -0.96304971 1.74570536 1.24743819
v -0.94625043 0.86551499 1.22162556
v -1.13550365 1.19696736 1.51242327
v -0.92445588 0.95637822 1.18813729
v -0.90273124 1.0470221 1.15475726
v -0.88101118 1.13766026 1.12138438
v -0.60526168 2.48168826 0.69767987
v -0.72557902 2.25875544 0.88255357
v -0.25242367 1.40947985 1.27075982
v -0.24571341 1.49998068 1.23079657
v -0.85929465 1.22828602 1.08801031
v -0.77252513 1.59024405 0.95468699
v -0.75101143 1.6794784 0.92163157
v -1.07036292 1.46880412 1.41232991
v -0.18726243 2.48168826 0.882743
v -0.22448787 2.25875639 1.10440611
v -0.26689121 2.00481009 1.35690379
v -0.29795897 1.74570536 1.54190182
v -0.23901265 1.59024405 1.19089627
v -0.29276055 0.86551499 1.51095128
v -0.28601819 0.95637822 1.47080111
v -0.23235571 1.67947745 1.15126061
v -0.22578914 1.76596427 1.11215543
v -0.3715066 0.92500042 1.97985625
v -0.20429468 1.99333453 0.98416149
v -0.19069141 2.08138346 0.90315985
v -0.72978597 1.76596427 0.88901639
v -0.37418103 -0.27749061 1.9957807
v -0.42881849 -0.26996326 2.32112526
v -0.33100181 0.38133144 1.73865771
v -0.83758831 1.31886911 1.05466222
v -0.79418295 1.49998068 0.9879626
v -1.11497283 0.20848751 1.48087573
v -0.29956513 0.7740786 1.55146527
v -0.81587451 1.40947985 1.02129519
v -0.21932353 1.84660434 1.07365644
v -0.2792972 1.0470221 1.43077635
v -0.21262386 1.92018127 1.03376066
v -0.16531635 2.19560504 0.75206458
v -0.306562 0.68090248 1.59312939
v -0.34496232 0.20848751 1.82178902
v 0.35502103 0.38133144 1.73354983
v 0.34572276 0.48122978 1.68206286
v 0.31400543 0.86551499 1.50643563
v 0.30677363 0.95637822 1.46638941
v 0.40133419 -0.27749061 1.99000954
v 0.36999458 0.20848751 1.81646609
v 0.45993667 -0.26996326 2.31451058
v 0.52415871 2.19560504 0.59594965
v 0.33771401 2.3658638 0.30132854
v 0.33679926 0.58404731 1.63265347
v 0.20452967 2.08138346 0.90021657
v 0.17731346 2.19560504 0.74951481
v 0.60461306 2.08138346 0.72308456
v 0.29956513 1.0470221 1.42646622
v 0.42482128 0.61926555 2.12006497
v 0.20085111 2.48168826 0.87985658
v 0.24077722 2.25875639 1.10094261
v 0.64774364 1.99333453 0.79124307
v 0.67415398 1.92018222 0.83297503
v 1.25582528 0.61926555 1.75214362
v 0.29235652 1.13766026 1.38655781
v 1.17791664 0.92500042 1.62903046
v 0.69539707 1.84660434 0.86654496
v 0.99562203 0.58404731 1.34096646
v 0.97199648 0.68090248 1.30363011
v 1.09375119 0.20848846 1.49603104
v 1.04948782 0.38133144 1.42608523
v 0.11424196 2.3658638 0.40026855
v 0.11424196 2.62192416 0.06246399
v 0.28625804 2.00481009 1.35278534
v 0.31958049 1.74570536 1.53730511
v 0.59374147 2.48168826 0.70590734
v 0.71176797 2.25875639 0.89241397
v 0.28514996 1.22828412 1.34665083
v 0.71589607 1.76596522 0.8989377
v 0.35519209 1.46880412 1.73449635
v 0.37680792 1.19696831 1.85419297
v 0.27794727 1.31887006 1.30676436
v 0.73671674 1.6794784 0.93183839
v 0.47808858 2.70013594 0.52315115
v 0.75782173 1.59024405 0.96518766
v 1.02199959 0.48122978 1.3826487
v 0.27074071 1.40947985 1.26686596
v 0.84621477 2.00481009 1.10486984
v 0.94471985 1.74570536 1.26053023
v 0.77906733 1.49998068 0.99875867
v 0.16172812 2.70013594 0.66321611
v 0.16172716 3.06344509 0.18500053
v 0.80034637 1.40947985 1.03238523
v 0.32880702 0.68090248 1.58839821
v 0.32130333 0.77407956 1.54684615
v 0.26354292 1.49998068 1.22700667
v 0.21911861 1.99333453 0.98101186
v 0.82164686 1.31886911 1.06604623
v 1.35962998 -0.26996326 1.91617751
v 0.94981318 0.77408051 1.26857924
v 0.92824029 0.86551499 1.2344892
v 0.25635662 1.59024405 1.18720889
v 0.84294003 1.22828602 1.09969019
v 1.04999089 1.46880412 1.42688059
v 1.11389267 1.19696831 1.52785611
v 1.18639624 -0.27749061 1.64243102
v 0.22805275 1.92018222 1.03048002
v 0.86424315 1.13766026 1.13336062
v 0.24921712 1.67947745 1.14767527
v 0.88555133 1.0470221 1.16702675
v 0.23523898 1.84660434 1.0702753
v 0.24217365 1.76596427 1.1086719
v 0.90686219 0.95637917 1.20070481
v 0.39846655 0.92500042 1.97412467
v 0.00139742 -3.40662574 2.58330607
v 0.42490679 -3.40409088 2.37223506
v 0.48057943 -3.39805793 2.75460219
v 0.00036513 -3.40029907 2.99000191
v -0.44707819 -3.39853477 2.77877783
v -0.38924482 -3.40459251 2.39174485
v 0.00343868 -1.95843315 2.23181176
v 0.41224443 -1.94886398 2.07644772
v 0.46939125 -1.9526081 2.41884589
v 0.00081184 -1.95196533 2.59862351
v -0.43521711 -1.95809173 2.42652487
v -0.3792366 -1.95238494 2.08257412
v 1.64644944 -2.71071434 2.0357511
v 1.58864605 -2.68966102 1.73563647
v 1.58426404 -1.68544769 1.49188923
v 1.6429907 -1.65113067 1.76432871
v -1.53232884 -2.7109375 1.7419002
v -1.58708775 -2.73986625 2.03895068
v -1.58394241 -1.70123672 1.76459765
v -1.5290631 -1.72731781 1.4955933
v 0.00099247 -0.76241207 2.12047648
v 0.40423286 -0.7648611 2.01494479
v 0.46255475 -0.75768184 2.34460854
v 0.00023403 -0.75518703 2.46604847
v -0.43066451 -0.75920963 2.35153126
v -0.37563964 -0.76584339 2.02081942
v -2.24430871 0.58691978 -1.21951508
v -2.42808222 0.58662986 -0.23233622
v -2.35504317 0.63407516 -0.23233622
v -2.17637634 0.63422489 -1.1924355
v -0.93190336 0.58842945 2.15613913
v -0.42482924 0.58748817 2.2641642
v -0.41011294 0.6342535 2.19217705
v -0.90279531 0.63500785 2.08854603
v 0 0.58876705 2.35419869
v 0.45373126 0.58748626 2.25801968
v 0.43885389 0.6342535 2.18606734
v 0 0.63518714 2.28050398
v 0.93190336 0.58842945 -2.62081575
v 0 0.58876705 -2.81887078
v 0 0.63518714 -2.74517869
v 0.90279626 0.63500785 -2.55321908
v 1.71975946 0.58765125 -2.05833911
v 1.66689658 0.63459968 -2.00747585
v 2.24430966 0.58691978 -1.21951603
v 2.17637705 0.63422489 -1.19243657
v 1.71975946 0.58765125 1.59366488
v 2.24430966 0.58691978 0.75484347
v 2.17637705 0.63422489 0.72776389
v 1.66689658 0.63459968 1.542804
v 0.93190443 0.58842945 2.15614008
v 1.33707416 0.58693027 1.86716866
v 1.2950778 0.63398647 1.80710196
v 0.90279626 0.63500785 2.08854699
v -2.24430871 0.58691978 0.75484335
v -1.71975946 0.58765125 1.59366583
v -1.66689658 0.63459968 1.54280495
v -2.17637634 0.63422489 0.72776484
v -1.71975946 0.58765125 -2.05833911
v -1.66689658 0.63459968 -2.00747585
v -0.93190336 0.58842945 -2.62081575
v -0.90279626 0.63500785 -2.55321908
v 2.42808318 0.58662986 -0.23233622
v 2.35504412 0.63407516 -0.23233622
v -1.36157429 0.58692932 1.84966969
v -1.31944191 0.63398647 1.78969931
v -2.34766697 -0.2557497 -1.26844537
v -2.54050731 -0.25588417 -0.23233622
v -0.97360169 -0.25504875 2.2717235
v -0.44235181 -0.25551128 2.38477873
v 0 -0.25488853 2.47868514
v 0.47346994 -0.25551128 2.37816309
v 0.97360277 -0.25504875 -2.7364006
v 0 -0.25488853 -2.94335913
v 1.7978686 -0.25541114 -2.14780759
v 2.34766697 -0.2557497 -1.26844441
v 1.7978686 -0.25541114 1.68312954
v 2.34766697 -0.2557497 0.8037678
v 0.97360277 -0.25504875 2.27172541
v 1.39748477 -0.25576591 1.96917986
v -2.34766697 -0.2557497 0.8037709
v -1.79786777 -0.25541114 1.68313002
v -1.79786777 -0.25541114 -2.14780855
v -0.97360277 -0.25504875 -2.73640108
v 2.54050922 -0.25588417 -0.23233622
v -1.42386293 -0.25576591 1.9503386
v -2.58809852 -0.16662788 -0.23233622
v -2.39216041 -0.16639995 -1.28497433
v -0.45257261 -0.166049 2.42936587
v -0.9931674 -0.16518592 2.31423306
v 0.4834879 -0.16604805 2.4227941
v 0 -0.1649084 2.52532887
v 0 -0.1649084 -2.99000191
v 0.9931674 -0.16518592 -2.77891016
v 1.83293926 -0.1658144 -2.17931509
v 2.39216136 -0.16639995 -1.28497314
v 2.39216136 -0.16639995 0.82030057
v 1.83293926 -0.1658144 1.71463704
v 1.4250251 -0.16649055 2.00615143
v 0.99316835 -0.16518592 2.31423401
v -1.83293831 -0.1658144 1.71463799
v -2.39216041 -0.16639995 0.82029974
v -1.83293831 -0.1658144 -2.1793127
v -0.9931674 -0.16518592 -2.77891111
v 2.58809948 -0.16662788 -0.23233622
v -1.45123148 -0.16648864 1.98743128
v -1.07094264 -1.81594276 2.06020212
v -1.01557159 -1.82782745 1.7577281
v -1.07798028 -3.03401565 2.36934399
v -1.02184844 -3.02071189 2.03210902
v 1.01909256 -1.81247139 1.7737751
v 1.07705748 -1.79650878 2.07995009
v 1.02746748 -3.03417205 2.04261708
v 1.08424353 -3.04216575 2.3823955
v -0.84843373 -1.86569595 2.18841791
v -0.79284942 -1.87142372 1.87142682
v -0.85715961 -3.16160011 2.51264905
v -0.8004322 -3.15507316 2.15798425
v 0.7955594 -1.86271286 1.88526487
v 0.85322302 -1.85400772 2.20478272
v 0.80551362 -3.17043304 2.16403222
v 0.86188322 -3.17325782 2.51949834
v -1.34002077 -1.75577735 1.90515184
v -1.28490769 -1.77510833 1.62023329
v -1.34501683 -2.87972831 2.19604635
v -1.28960514 -2.85822868 1.87988901
v 1.28896093 -1.7518177 1.63917517
v 1.34728956 -1.72709083 1.92924141
v 1.29542923 -2.86966896 1.89603424
v 1.35269594 -2.88389778 2.2168734
v -0.44109612 -2.67205429 2.60112071
v -0.85275876 -2.50801658 2.34912467
v -0.38419723 -2.67217826 2.235816
v -0.79660785 -2.50767135 2.01346039
v -1.58550143 -2.21603775 1.90058207
v -1.53068172 -2.21485137 1.61767649
v 0.4185206 -2.67015457 2.22305607
v 0.80049324 -2.51089096 2.02343726
v 0.47493672 -2.66905212 2.58526516
v 0.85751551 -2.50790023 2.36077308
v 1.58643603 -2.18318939 1.6127038
v 1.64470505 -2.17631721 1.89886045
v 0.00242692 -2.6762371 2.4060316
v 0.00059043 -2.66983985 2.79261207
v -1.07443082 -2.41968536 2.21342968
v -1.34249711 -2.31286811 2.049335
v -1.01868271 -2.41908645 1.89372634
v -1.28723597 -2.31196212 1.74893283
v 1.02324366 -2.41801452 1.90702796
v 1.29216694 -2.30588531 1.76648855
v 1.08061933 -2.41392517 2.22985863
v 1.34996926 -2.30046844 2.07180762
v -0.43832635 -2.33568763 2.51886391
v -0.85072112 -2.20540237 2.27341127
v -1.58476698 -1.9735012 1.83651614
v -1.52991914 -1.98516082 1.56015992
v 0.41556373 -2.33033561 2.15398502
v 0.79816877 -2.2055149 1.95834064
v 1.58541274 -1.9486885 1.5557847
v 1.64389741 -1.92888832 1.83547902
v -0.38186013 -2.33306503 2.16361951
v 0.00290359 -2.33806037 2.32395196
v 0.00069474 -2.33162879 2.70121884
v 0.4723241 -2.33151626 2.50686049
v -1.0727874 -2.13524627 2.14124012
v -1.3413304 -2.05040741 1.98140645
v 1.02128791 -2.13272666 1.84424901
v 1.29065656 -2.04484939 1.70650768
v -0.79483717 -2.20791816 1.94654464
v 0.85549318 -2.19983291 2.28728175
v -1.01721704 -2.14052772 1.82965397
v -1.28613901 -2.05903434 1.68829894
v 1.07894122 -2.12304306 2.15923261
v 1.34870684 -2.03033256 2.00464081
v -0.38694039 -3.07021331 2.32055664
v -0.7986862 -2.8595047 2.09200286
v 0.47800329 -3.06523513 2.67729234
v 0.85988915 -2.86949348 2.4470334
v -1.02040314 -2.74604225 1.96893119
v -1.28852355 -2.60883522 1.82010173
v 1.08258891 -2.75534629 2.31275582
v 1.35145103 -2.61753654 2.15064454
v -1.53157687 -2.4844532 1.68518662
v 1.645653 -2.46673965 1.97325444
v -0.44434711 -3.06686401 2.6976695
v -0.85515046 -2.86321067 2.43799305
v -1.58636355 -2.50071525 1.97577929
v 0.42199122 -3.0690155 2.3041284
v 0.80322158 -2.86932182 2.09984445
v 1.58763706 -2.45843505 1.67951226
v 0.00186743 -3.07317161 2.5023725
v 0.00046799 -3.06681251 2.89988493
v -1.07635974 -2.75354766 2.29816222
v -1.34386646 -2.62093162 2.12906622
v 1.02553916 -2.75286865 1.98071479
v 1.29393982 -2.61227798 1.83689093
v -0.37812587 -1.58598899 2.06350469
v 0.00268331 -1.58910751 2.19743204
v -0.4338113 -1.58788299 2.40336728
v 0.00063342 -1.58240699 2.55768513
v 0.46728017 -1.58362197 2.39592194
v 0.40977051 -1.58325195 2.05745601
v -0.37716803 -1.27001762 2.04705953
v 0.00203189 -1.27061271 2.16778397
v -0.43259894 -1.26862716 2.38339686
v 0.00047955 -1.26371002 2.52238082
v 0.46545964 -1.265419 2.37615275
v 0.40763706 -1.26795768 2.04107809
v -0.37637698 -1.00907135 2.03347849
v 0.00149391 -1.00758171 2.14329886
v -0.43159773 -1.00496673 2.36690425
v 0.00035248 -1.00051307 2.49322485
v 0.46395614 -1.00262832 2.35982632
v 0.40587514 -1.00756835 2.02755236
v 0.00047627 -0.51019954 2.09699916
v 0.40272525 -0.51137638 2.00197577
v 0.46119308 -0.50401592 2.32895445
v 0.00011231 -0.5028181 2.43809175
v -0.42970436 -0.50474834 2.33571696
v -0.37488099 -0.51184749 2.00779652
g Group56449
f 68 67 66
f 1 2 3
f 68 66 69
f 4 1 3
f 68 69 70
f 5 4 3
f 84 100 99 83
f 395 411 617 618
f 707 712 895 896
f 442 547 548 457
f 68 72 73
f 8 7 3
f 342 358 359 343
f 549 8 3 550
f 467 469 531 532
f 266 282 551 552
f 378 394 553 554
f 509 508 492 493
f 142 158 159 143
f 222 238 239 223
f 68 77 78
f 13 12 3
f 148 164 163 147
f 375 391 392 376
f 29 30 46 45
f 373 389 390 374
f 68 80 81
f 16 15 3
f 68 81 82
f 17 16 3
f 68 82 67
f 2 17 3
f 408 424 425 409
f 137 153 555 556
f 66 83 85 69
f 100 116 115 99
f 69 85 86 70
f 121 137 556 557
f 382 398 399 383
f 315 331 619 620
f 71 87 88 72
f 105 121 557 558
f 72 88 89 73
f 393 409 559 560
f 427 459 621 622
f 435 437 453 452
f 89 105 558 561
f 712 711 897 895
f 254 270 271 255
f 76 92 624 625
f 73 89 561 562
f 77 93 94 78
f 10 563 550 3
f 371 387 389 373
f 68 564 565 75
f 366 382 383 367
f 80 96 97 81
f 68 73 562 564
f 81 97 98 82
f 379 395 618 626
f 82 98 84 67
f 512 511 495 496
f 25 567 568 41
f 407 423 424 408
f 83 99 101 85
f 377 393 560 569
f 85 101 102 86
f 56 570 571 515
f 91 107 627 628
f 361 377 569 572
f 87 103 104 88
f 250 266 552 573
f 88 104 105 89
f 345 361 572 574
f 472 575 576 534
f 65 51 518 529
f 414 430 431 415
f 329 345 574 577
f 510 512 496 494
f 508 510 494 492
f 92 108 629 624
f 40 578 570 56
f 93 109 110 94
f 313 329 577 579
f 370 386 372 356
f 260 276 275 259
f 297 313 579 580
f 96 112 113 97
f 405 421 422 406
f 97 113 114 98
f 281 297 580 581
f 98 114 100 84
f 711 710 898 897
f 299 315 620 630
f 478 480 535 536
f 99 115 117 101
f 710 709 899 898
f 101 117 118 102
f 422 464 465 423
f 504 582 583 488
f 448 449 465 464
f 103 119 120 104
f 64 65 529 528
f 104 120 121 105
f 403 419 421 405
f 369 385 386 370
f 206 222 223 207
f 514 632 633 498
f 63 64 528 517
f 338 354 340 324
f 108 124 634 629
f 406 422 423 407
f 109 125 126 110
f 424 466 457 425
f 439 446 462 456
f 15 14 3
f 191 207 208 192
f 112 128 129 113
f 390 406 407 391
f 113 129 130 114
f 234 250 573 584
f 114 130 116 100
f 68 79 80
f 143 159 160 144
f 115 131 133 117
f 294 310 311 295
f 117 133 134 118
f 368 384 385 369
f 61 62 527 525
f 119 135 136 120
f 420 456 462 419
f 120 136 137 121
f 278 294 295 279
f 270 286 287 271
f 709 708 900 899
f 708 707 896 900
f 495 497 481 479
f 497 483 467 481
f 124 140 635 634
f 262 278 279 263
f 125 141 142 126
f 356 372 371 355
f 283 299 630 637
f 21 22 38 37
f 128 144 145 129
f 246 262 263 247
f 129 145 146 130
f 436 435 452 451
f 130 146 132 116
f 60 61 525 526
f 423 465 466 424
f 131 147 149 133
f 150 166 167 151
f 133 149 150 134
f 402 418 404 388
f 365 381 382 366
f 134 150 151 135
f 135 151 152 136
f 136 152 153 137
f 401 417 418 402
f 415 431 432 416
f 437 438 454 453
f 118 134 135 119
f 70 71 68
f 59 638 636 524
f 140 156 639 635
f 218 234 584 585
f 141 157 158 142
f 400 416 417 401
f 364 380 640 641
f 102 118 119 103
f 698 697 801 802
f 265 281 581 586
f 144 160 161 145
f 185 201 587 588
f 145 161 162 146
f 24 589 578 40
f 146 162 148 132
f 86 102 103 87
f 440 439 456 455
f 506 590 591 490
f 147 163 165 149
f 412 428 642 643
f 149 165 166 150
f 421 463 464 422
f 75 644 645 68
f 399 415 416 400
f 151 167 168 152
f 286 302 303 287
f 152 168 169 153
f 697 839 840 801
f 416 432 433 417
f 482 646 647 538
f 507 648 649 491
f 383 399 400 384
f 474 592 593 533
f 267 283 637 650
f 156 172 651 639
f 486 487 471 470
f 157 173 174 158
f 62 63 517 527
f 276 292 291 275
f 367 383 384 368
f 372 388 387 371
f 160 176 177 161
f 470 471 539 540
f 161 177 178 162
f 202 218 585 594
f 162 178 164 148
f 351 367 368 352
f 438 440 455 454
f 419 462 463 421
f 163 179 181 165
f 1 4 500 501
f 165 181 182 166
f 4 5 502 500
f 314 330 595 596
f 319 335 336 320
f 167 183 184 168
f 6 7 505 503
f 168 184 185 169
f 7 8 504 505
f 78 94 95 79
f 244 260 259 243
f 26 652 653 42
f 251 267 650 654
f 186 202 594 597
f 55 56 515 522
f 172 188 655 651
f 11 656 648 507
f 173 189 190 174
f 12 13 508 509
f 360 376 377 361
f 54 55 522 521
f 359 375 376 360
f 492 494 478 476
f 176 192 193 177
f 15 16 511 512
f 177 193 194 178
f 16 17 513 511
f 178 194 180 164
f 17 2 499 513
f 94 110 111 95
f 228 244 243 227
f 179 195 197 181
f 271 287 288 272
f 181 197 198 182
f 481 467 532 541
f 489 488 472 473
f 479 481 541 542
f 183 199 200 184
f 30 31 47 46
f 184 200 201 185
f 255 271 272 256
f 53 54 521 520
f 480 479 542 535
f 397 413 414 398
f 430 451 452 431
f 398 414 415 399
f 404 420 419 403
f 188 204 657 655
f 239 255 256 240
f 189 205 206 190
f 691 692 804 803
f 302 318 319 303
f 376 392 393 377
f 166 182 183 167
f 192 208 209 193
f 223 239 240 224
f 193 209 210 194
f 127 143 144 128
f 194 210 196 180
f 477 476 543 544
f 9 563 590 506
f 170 186 597 598
f 195 211 213 197
f 337 353 354 338
f 197 213 214 198
f 67 84 83 66
f 41 568 599 57
f 396 412 643 658
f 199 215 216 200
f 336 352 353 337
f 200 216 217 201
f 106 122 600 601
f 153 169 602 555
f 14 15 512 510
f 235 251 654 659
f 126 142 143 127
f 475 660 661 537
f 204 220 662 657
f 450 442 457 466
f 205 221 222 206
f 7 6 3
f 292 308 307 291
f 52 53 520 519
f 357 373 374 358
f 212 228 227 211
f 208 224 225 209
f 340 356 355 339
f 209 225 226 210
f 394 410 605 553
f 210 226 212 196
f 333 349 350 334
f 663 10 3 664
f 5 6 503 502
f 211 227 229 213
f 78 79 68
f 213 229 230 214
f 310 326 327 311
f 413 429 430 414
f 111 127 128 112
f 215 231 232 216
f 37 38 54 53
f 216 232 233 217
f 473 472 534 545
f 350 366 367 351
f 249 265 586 606
f 50 52 519 516
f 95 111 112 96
f 355 371 373 357
f 201 217 607 587
f 220 236 665 662
f 471 473 545 539
f 221 237 238 222
f 68 645 625 77
f 8 549 582 504
f 79 95 96 80
f 468 470 540 546
f 198 214 215 199
f 224 240 241 225
f 469 468 546 531
f 225 241 242 226
f 409 425 608 559
f 226 242 228 212
f 347 363 666 667
f 219 235 659 668
f 331 347 667 619
f 227 243 245 229
f 159 175 176 160
f 229 245 246 230
f 491 649 660 475
f 330 346 609 595
f 692 861 862 804
f 231 247 248 232
f 335 351 352 336
f 232 248 249 233
f 233 249 606 610
f 107 123 669 627
f 196 212 211 195
f 154 170 598 611
f 158 174 175 159
f 411 427 622 617
f 236 252 670 665
f 496 495 479 480
f 237 253 254 238
f 392 408 409 393
f 354 370 356 340
f 190 206 207 191
f 429 461 451 430
f 282 298 612 551
f 240 256 257 241
f 180 196 195 179
f 241 257 258 242
f 308 324 323 307
f 242 258 244 228
f 706 705 841 842
f 14 13 3
f 70 86 87 71
f 243 259 261 245
f 18 20 36 34
f 245 261 262 246
f 20 21 37 36
f 45 46 62 61
f 391 407 408 392
f 247 263 264 248
f 22 23 39 38
f 248 264 265 249
f 23 24 40 39
f 174 190 191 175
f 138 154 611 613
f 332 348 672 673
f 203 219 668 674
f 353 369 370 354
f 513 499 483 497
f 252 268 675 670
f 27 676 677 43
f 253 269 270 254
f 28 29 45 44
f 2 1 501 499
f 352 368 369 353
f 490 591 592 474
f 207 223 224 208
f 256 272 273 257
f 31 32 48 47
f 257 273 274 258
f 32 33 49 48
f 258 274 260 244
f 33 19 35 49
f 13 14 510 508
f 374 390 391 375
f 259 275 277 261
f 35 34 50 51
f 261 277 278 262
f 428 460 678 642
f 123 139 679 669
f 298 314 596 612
f 263 279 280 264
f 6 5 3
f 264 280 281 265
f 389 405 406 390
f 303 319 320 304
f 110 126 127 111
f 444 671 678 460
f 487 489 473 471
f 417 433 434 418
f 431 452 453 432
f 268 284 680 675
f 19 18 34 35
f 269 285 286 270
f 349 365 366 350
f 74 90 614 565
f 12 656 664 3
f 445 436 451 461
f 164 180 179 163
f 272 288 289 273
f 387 403 405 389
f 273 289 290 274
f 132 148 147 131
f 274 290 276 260
f 695 694 805 806
f 187 203 674 681
f 485 484 468 469
f 275 291 293 277
f 318 334 335 319
f 277 293 294 278
f 363 379 626 666
f 386 402 388 372
f 499 501 485 483
f 279 295 296 280
f 476 478 536 543
f 280 296 297 281
f 214 230 231 215
f 498 633 646 482
f 425 457 548 608
f 694 843 844 805
f 388 404 403 387
f 182 198 199 183
f 488 583 575 472
f 284 300 682 680
f 446 447 463 462
f 285 301 302 286
f 348 364 641 672
f 324 340 339 323
f 385 401 402 386
f 494 496 480 478
f 433 454 455 434
f 288 304 305 289
f 505 504 488 489
f 289 305 306 290
f 358 374 375 359
f 290 306 292 276
f 511 513 497 495
f 238 254 255 239
f 688 689 808 807
f 291 307 309 293
f 447 448 464 463
f 293 309 310 294
f 493 492 476 477
f 384 400 401 385
f 346 362 615 609
f 295 311 312 296
f 230 246 247 231
f 296 312 313 297
f 426 458 603 616
f 51 50 516 518
f 287 303 304 288
f 10 663 632 514
f 139 155 683 679
f 171 187 681 684
f 434 455 456 420
f 300 316 685 682
f 689 863 864 808
f 301 317 318 302
f 501 500 484 485
f 483 485 469 467
f 58 686 631 530
f 175 191 192 176
f 169 185 588 602
f 304 320 321 305
f 702 701 845 846
f 305 321 322 306
f 344 360 361 345
f 306 322 308 292
f 122 138 613 600
f 334 350 351 335
f 75 91 628 644
f 307 323 325 309
f 34 36 52 50
f 309 325 326 310
f 36 37 53 52
f 381 397 398 382
f 68 71 72
f 311 327 328 312
f 38 39 55 54
f 312 328 329 313
f 39 40 56 55
f 410 426 616 605
f 432 453 454 433
f 42 653 686 58
f 155 171 684 683
f 484 486 470 468
f 90 106 601 614
f 316 332 673 685
f 43 677 638 59
f 317 333 334 318
f 44 45 61 60
f 343 359 360 344
f 46 47 63 62
f 503 505 489 487
f 380 396 658 640
f 320 336 337 321
f 47 48 64 63
f 321 337 338 322
f 48 49 65 64
f 322 338 324 308
f 49 35 51 65
f 500 502 486 484
f 326 342 343 327
f 323 339 341 325
f 362 378 554 615
f 325 341 342 326
f 502 503 487 486
f 116 132 131 115
f 449 450 466 465
f 327 343 344 328
f 328 344 345 329
f 217 233 610 607
f 57 599 566 523
f 341 357 358 342
f 418 434 420 404
f 339 355 357 341
f 532 531 18 19
f 534 576 589 24
f 536 535 31 30
f 538 647 652 26
f 533 593 567 25
f 540 539 22 21
f 541 532 19 33
f 542 541 33 32
f 535 542 32 31
f 544 543 29 28
f 537 661 676 27
f 545 534 24 23
f 539 545 23 22
f 546 540 21 20
f 531 546 20 18
f 543 536 30 29
f 693 698 847 848
f 547 441 458 548
f 9 549 550
f 552 551 283 267
f 554 553 395 379
f 556 555 154 138
f 557 556 138 122
f 558 557 122 106
f 560 559 410 394
f 561 558 106 90
f 562 561 90 74
f 563 9 550
f 564 74 565
f 562 74 564
f 567 26 42 568
f 569 560 394 378
f 570 57 523 571
f 572 569 378 362
f 573 552 267 251
f 574 572 362 346
f 575 474 533 576
f 577 574 346 330
f 578 41 57 570
f 579 577 330 314
f 580 579 314 298
f 581 580 298 282
f 582 506 490 583
f 584 573 251 235
f 585 584 235 219
f 586 581 282 266
f 588 587 202 186
f 589 25 41 578
f 590 514 498 591
f 592 482 538 593
f 594 585 219 203
f 596 595 331 315
f 597 594 203 187
f 563 10 514 590
f 598 597 187 171
f 568 42 58 599
f 601 600 123 107
f 555 602 170 154
f 603 458 441 604
f 553 605 411 395
f 606 586 266 250
f 587 607 218 202
f 549 9 506 582
f 559 608 426 410
f 595 609 347 331
f 610 606 250 234
f 611 598 171 155
f 551 612 299 283
f 613 611 155 139
f 591 498 482 592
f 612 596 315 299
f 565 614 91 75
f 697 696 849 839
f 608 548 458 426
f 583 490 474 575
f 609 615 363 347
f 616 603 459 427
f 602 588 186 170
f 600 613 139 123
f 605 616 427 411
f 614 601 107 91
f 615 554 379 363
f 607 610 234 218
f 599 58 530 566
f 576 533 25 589
f 593 538 26 567
f 618 617 412 396
f 620 619 332 316
f 622 621 460 428
f 696 695 850 849
f 625 624 93 77
f 626 618 396 380
f 628 627 108 92
f 624 629 109 93
f 623 444 460 621
f 630 620 316 300
f 632 507 491 633
f 629 634 125 109
f 634 635 141 125
f 637 630 300 284
f 638 60 526 636
f 635 639 157 141
f 641 640 381 365
f 643 642 429 413
f 644 76 645
f 646 475 537 647
f 648 509 493 649
f 650 637 284 268
f 639 651 173 157
f 652 27 43 653
f 654 650 268 252
f 651 655 189 173
f 656 12 509 648
f 655 657 205 189
f 658 643 413 397
f 659 654 252 236
f 660 477 544 661
f 657 662 221 205
f 11 663 664
f 662 665 237 221
f 645 76 625
f 667 666 364 348
f 668 659 236 220
f 619 667 348 332
f 649 493 477 660
f 627 669 124 108
f 617 622 428 412
f 665 670 253 237
f 694 693 848 843
f 673 672 349 333
f 674 668 220 204
f 670 675 269 253
f 676 28 44 677
f 642 678 461 429
f 669 679 140 124
f 671 445 461 678
f 675 680 285 269
f 656 11 664
f 681 674 204 188
f 666 626 380 364
f 633 491 475 646
f 680 682 301 285
f 672 641 365 349
f 663 11 507 632
f 679 683 156 140
f 684 681 188 172
f 682 685 317 301
f 686 59 524 631
f 644 628 92 76
f 653 43 59 686
f 683 684 172 156
f 685 673 333 317
f 677 44 60 638
f 640 658 397 381
f 647 537 27 652
f 661 544 28 676
f 690 689 688 687
f 621 459 901 902
f 623 621 902 903
f 443 623 903 904
f 687 692 691 690
f 604 443 904 905
f 603 604 905 906
f 459 603 906 901
f 520 521 715 716
f 523 566 719 720
f 530 631 723 724
f 529 518 727 728
f 528 529 728 730
f 517 528 730 732
f 526 525 735 736
f 524 636 739 740
f 522 515 743 744
f 521 522 744 715
f 519 520 716 746
f 516 519 746 748
f 527 517 732 750
f 515 571 752 743
f 525 527 750 735
f 518 516 748 727
f 566 530 724 719
f 571 523 720 752
f 631 524 740 723
f 636 526 736 739
f 714 713 716 715
f 718 717 720 719
f 722 721 724 723
f 726 725 728 727
f 725 729 730 728
f 729 731 732 730
f 734 733 736 735
f 738 737 740 739
f 742 741 744 743
f 715 744 741 714
f 713 745 746 716
f 745 747 748 746
f 731 749 750 732
f 743 752 751 742
f 735 750 749 734
f 727 748 747 726
f 719 724 721 718
f 717 751 752 720
f 723 740 737 722
f 733 738 739 736
f 449 448 753 754
f 604 441 755 756
f 623 443 757 758
f 439 440 759 760
f 440 438 761 759
f 438 437 762 761
f 436 445 763 764
f 671 444 765 766
f 442 450 767 768
f 450 449 754 767
f 448 447 769 753
f 447 446 770 769
f 437 435 771 762
f 547 442 768 772
f 435 436 764 771
f 446 439 760 770
f 443 604 756 757
f 441 547 772 755
f 444 623 758 765
f 445 671 766 763
f 713 714 773 774
f 717 718 775 776
f 721 722 777 778
f 725 726 779 780
f 729 725 780 781
f 731 729 781 782
f 733 734 783 784
f 737 738 785 786
f 741 742 787 788
f 714 741 788 773
f 745 713 774 789
f 747 745 789 790
f 749 731 782 791
f 742 751 792 787
f 734 749 791 783
f 726 747 790 779
f 718 721 778 775
f 751 717 776 792
f 722 737 786 777
f 738 733 784 785
f 774 773 754 753
f 776 775 756 755
f 778 777 758 757
f 780 779 760 759
f 784 783 764 763
f 786 785 766 765
f 788 787 768 767
f 773 788 767 754
f 787 792 772 768
f 783 791 771 764
f 779 790 770 760
f 775 778 757 756
f 777 786 765 758
f 759 761 781 780
f 761 762 782 781
f 753 769 789 774
f 769 770 790 789
f 762 771 791 782
f 755 772 792 776
f 763 766 785 784
f 794 793 809 810
f 793 851 852 809
f 795 796 812 811
f 796 865 866 812
f 798 797 813 814
f 797 853 854 813
f 799 800 816 815
f 800 867 868 816
f 802 801 793 794
f 801 840 851 793
f 803 804 796 795
f 804 862 865 796
f 806 805 797 798
f 805 844 853 797
f 807 808 800 799
f 808 864 867 800
f 810 809 705 706
f 809 852 841 705
f 811 812 703 704
f 812 866 869 703
f 814 813 701 702
f 813 854 845 701
f 815 816 699 700
f 816 868 870 699
f 817 871 872 818
f 819 847 855 820
f 822 821 873 869
f 823 874 875 824
f 825 850 856 826
f 828 827 876 870
f 829 819 861 877
f 817 830 878 871
f 830 825 863 878
f 823 829 877 874
f 831 879 880 832
f 833 857 858 834
f 835 881 882 836
f 837 859 860 838
f 818 872 879 831
f 820 855 857 833
f 824 875 881 835
f 826 856 859 837
f 832 880 873 821
f 834 858 842 822
f 836 882 876 827
f 838 860 846 828
f 839 817 818 840
f 842 841 821 822
f 843 823 824 844
f 846 845 827 828
f 848 847 819 829
f 839 849 830 817
f 849 850 825 830
f 843 848 829 823
f 851 831 832 852
f 853 835 836 854
f 840 818 831 851
f 844 824 835 853
f 852 832 821 841
f 854 836 827 845
f 847 698 802 855
f 850 695 806 856
f 857 794 810 858
f 859 798 814 860
f 855 802 794 857
f 856 806 798 859
f 858 810 706 842
f 860 814 702 846
f 861 819 820 862
f 863 825 826 864
f 865 833 834 866
f 867 837 838 868
f 862 820 833 865
f 864 826 837 867
f 866 834 822 869
f 868 838 828 870
f 871 691 803 872
f 869 873 704 703
f 874 688 807 875
f 870 876 700 699
f 877 861 692 687
f 871 878 690 691
f 878 863 689 690
f 874 877 687 688
f 879 795 811 880
f 881 799 815 882
f 872 803 795 879
f 875 807 799 881
f 880 811 704 873
f 882 815 700 876
f 884 883 698 693
f 883 885 697 698
f 885 886 696 697
f 886 887 695 696
f 887 888 694 695
f 888 884 693 694
f 890 889 883 884
f 889 891 885 883
f 891 892 886 885
f 892 893 887 886
f 893 894 888 887
f 894 890 884 888
f 896 895 889 890
f 895 897 891 889
f 897 898 892 891
f 898 899 893 892
f 899 900 894 893
f 900 896 890 894
f 902 901 707 708
f 903 902 708 709
f 904 903 709 710
f 905 904 710 711
f 906 905 711 712
f 901 906 712 707

 