# File exported by ZBrush version 2021
# www.zbrush.com
#Vertex Count 745
#Face Count 756
#Auto scale x=1.000000 y=1.000000 z=1.000000
#Auto offset x=0.000000 y=0.000000 z=0.000000
v 1.26562619 0.32317596 1.34486413
v 0.70174092 0.36862599 1.71374559
v 1.24616313 0.92543351 1.2697153
v 0.6976006 1.01038587 1.59620904
v 1.11840236 1.34121167 1.1201539
v 0.67622274 1.52099287 1.26971554
v 1.2997303 1.47486627 0.71767759
v 0.74282139 1.84444963 0.76092696
v 1.39218533 1.54108226 0.12040108
v 0.79305231 1.95936572 0.12040084
v 1.60391867 0.92906987 -0.52012699
v 1.2997303 1.4748665 -0.47687524
v 1.73595726 0.94970595 0.12040114
v 1.24616313 0.92543411 -1.02891373
v 1.11840236 1.34121406 -0.87935376
v 0.74282139 1.84444963 -0.52012676
v 0.00000155 2.11948442 0.12034165
v 0.00004124 1.98117578 -0.55792892
v -0.74281829 1.84444963 0.76092481
v 0.00032112 1.98246681 0.80396986
v -0.79304981 1.95936572 0.12040084
v -0.74281829 1.84444963 -0.52012676
v 0.67622274 1.52099311 -1.02891361
v 0.00000155 1.6202861 -1.11644053
v 0.70689606 1.00864327 -1.34895014
v -0.02469256 1.12396407 -1.6448996
v -0.67622005 1.52099311 -1.02891361
v -0.69759732 1.01038587 -1.35540938
v -0.02139614 0.37719047 -1.57356452
v -0.70173895 0.36862587 -1.47294616
v 0.70173335 0.36848437 -1.4698584
v 1.26562762 0.32317578 -1.1040622
v 1.64487004 0.27777493 -0.55767369
v 1.78662645 0.25770682 0.12040191
v 1.60391867 0.92906951 0.76092672
v 1.64487004 0.27777493 0.7984755
v 0.00000155 1.613222 1.34486341
v 0.01039938 1.06220173 1.70480322
v 0.00734451 0.39479541 1.80631589
v -0.69759702 1.01038587 1.59620904
v -0.70173698 0.36862599 1.71374559
v -1.26562297 0.32317596 1.34486413
v -1.64486682 0.27777493 0.7984755
v -1.24616003 0.92543351 1.2697153
v -1.60391545 0.92906951 0.76092672
v -0.67621958 1.52099287 1.26971554
v -1.11839914 1.34121167 1.1201539
v -1.29972767 1.47486627 0.71767759
v -1.39218294 1.54108226 0.12040108
v -1.73595297 0.94970595 0.12040191
v -1.26562321 0.32317578 -1.1040622
v -1.78662216 0.25770682 0.12040191
v -1.64486682 0.27777493 -0.55767369
v -1.60391545 0.92906987 -0.52012699
v -1.29972767 1.4748665 -0.47687488
v -1.11839938 1.34121406 -0.87935364
v -1.24616038 0.92543411 -1.02891373
v 0.77982252 0.40061456 1.89041543
v 0.77950227 1.07715642 1.76591253
v 1.39500474 0.97760963 1.40078127
v 1.40909493 0.34280687 1.4803276
v 0.83567237 2.00911331 0.83226966
v 1.4615643 1.58994591 0.78484606
v 0.89347785 2.13677263 0.12040138
v 1.56684815 1.66276061 0.12040114
v 1.94545245 0.99641335 0.1204015
v 1.46156287 1.58994591 -0.5440464
v 1.79711926 0.97539019 -0.59146982
v 1.25466001 1.4421221 -0.99201303
v 1.39500474 0.97760927 -1.15998089
v 0.83567237 2.00911283 -0.59146952
v 0.75955677 1.64780294 -1.15997719
v 0.78335076 1.06953775 -1.49776077
v 0.77969372 0.39857649 -1.63336706
v 1.40909624 0.34281283 -1.23952579
v 1.83142244 0.28807306 -0.63096809
v 1.98822283 0.26490682 0.12040233
v 1.83142221 0.28807312 0.8717668
v 1.79711926 0.97539019 0.8322699
v 0.00569121 0.39925628 1.91209483
v -1.79711484 0.97539019 0.8322699
v -1.39500093 0.97760629 1.40078127
v -1.40909111 0.34281265 1.4803276
v -1.83141934 0.28807312 0.87176799
v -1.46155941 1.58994591 0.78484606
v -1.94544816 0.99641335 0.1204015
v -1.56684458 1.66276061 0.12040114
v -1.83141934 0.28807306 -0.63096809
v -1.79711484 0.97539019 -0.59146982
v -1.98821914 0.26490682 0.12040233
v -1.46155941 1.58994591 -0.54404616
v -1.39500188 0.97760665 -1.15998089
v -1.25465738 1.4421221 -0.99201196
v -1.40909135 0.34281283 -1.23952579
v -0.3755373 2.05020284 0.12040072
v -0.35147038 1.92228305 0.78079509
v -0.35147038 1.92228567 -0.53999465
v -0.34537842 1.06026732 -1.46281528
v -0.31945601 1.57449424 -1.06948614
v -0.33487379 0.38364559 -1.49643456
v -0.36110979 0.42111855 1.95111298
v -0.32602894 0.38929289 1.78508544
v -0.32222601 1.04243302 1.65936875
v -0.31944507 1.57404291 1.30948066
v 0.35412666 1.92180049 -0.53986144
v 0.37837258 2.04963254 0.12040072
v 0.35412666 1.9218012 0.78066182
v 0.32192015 1.57410681 -1.0691142
v 0.322631 1.05564498 -1.42924523
v 0.32280382 0.37530607 -1.49498653
v 0.33360323 1.04387104 1.65961504
v 0.32186278 1.57371532 1.30921113
v 0.36972999 0.42333841 1.93721175
v 0.33352103 0.38791889 1.78148126
v 0.02262789 2.4428749 -0.73079019
v 0.42444837 2.17664051 -0.6542263
v 0.45292758 2.32921218 0.11946731
v 0.02192247 2.61834716 0.11834508
v -0.38213211 0.42932611 2.03989458
v -0.38517865 1.15294218 1.91703462
v -0.00303556 1.24845051 2.11339283
v -0.01409918 0.43482637 2.07759308
v -0.41903093 2.18319606 0.91411435
v 0.01247445 2.44524478 0.99771547
v -0.44954186 2.32912874 0.1184439
v -0.41936162 2.17463541 -0.65526342
v -0.37719139 1.18526029 -1.79426455
v -0.01315788 1.28909373 -2.03827667
v 0.00805487 2.03346109 -1.49642443
v -0.38221955 1.79447305 -1.30220127
v -0.39539459 0.436342 -1.85737466
v -0.01151996 0.41765749 -2.11762642
v 0.42438828 2.18168449 0.90352213
v 0.38504344 1.79735004 -1.3003838
v 0.3594143 1.17316973 -1.71275699
v 0.36995545 0.40423899 -1.80532968
v 0.39282766 1.1544677 1.9219892
v 0.38880628 0.43712848 2.0196166
v -0.78165996 0.40233314 -1.66078257
v -0.77954286 1.08159315 -1.5368582
v -0.76082944 1.65216004 -1.16472089
v -0.83707565 2.01372623 -0.59360492
v -0.89502054 2.14184761 0.12022805
v -0.83708697 2.01389694 0.83491897
v -0.78071123 1.07916188 1.77063584
v -0.78085839 0.40107274 1.89606547
v -0.00419401 -2.469347 -2.26463031
v -0.40892106 -2.4554882 -2.10249161
v -0.33974924 -2.47964763 -1.94810557
v 0.00024697 -2.50197458 -2.00362491
v 0.78028887 -2.4608345 -2.01041913
v 0.42310601 -2.48001098 -2.08352756
v 0.3468011 -2.49725961 -1.94099164
v 0.72201961 -2.4841752 -1.91505992
v 1.38112437 -2.51351785 -1.61667728
v 1.26926791 -2.53315162 -1.48120689
v 1.80454516 -2.58246564 -0.83622974
v 1.65933942 -2.59261035 -0.76293504
v 1.9650011 -2.61144971 0.12040269
v 1.80810117 -2.61834716 0.12040221
v 1.80454516 -2.58246564 1.07702994
v 1.65933966 -2.59260845 1.00373542
v 1.44091475 -2.51872539 1.78065705
v 1.3288927 -2.53763961 1.64519023
v -1.80453991 -2.58246564 1.07702994
v -1.44090986 -2.51872539 1.78065633
v -1.32888829 -2.53763961 1.64518952
v -1.65933466 -2.59260845 1.00373518
v -1.80453991 -2.58246564 -0.83622914
v -1.96499407 -2.61144971 0.12040269
v -1.80809629 -2.61834716 0.12040221
v -1.65933466 -2.59261035 -0.76293468
v -1.38125109 -2.51367855 -1.61509537
v -1.2693957 -2.53331422 -1.47963261
v -0.70511776 -2.45219039 -2.09209871
v -0.68857532 -2.48115682 -1.93456661
v 0.00269278 -2.44434166 -2.39479088
v -0.48075357 -2.43855857 -2.19924187
v 0.50080251 -2.46009111 -2.160254
v -0.48274314 -2.18539142 -2.16548824
v -0.72549194 -2.19890451 -2.04867458
v 0.7802366 -2.21306943 -1.97775054
v 0.48946461 -2.21190547 -2.12949943
v 0.3447037 -2.24835205 -1.90234601
v 0.72026181 -2.23700189 -1.87648165
v -1.26906943 -2.28580522 -1.44708538
v -0.70188075 -2.22896337 -1.88920998
v -1.38366329 -2.26617145 -1.58255684
v -1.65808153 -2.34389352 -0.74514925
v -1.80686879 -2.33373403 -0.81844401
v -1.65808153 -2.343894 0.98595047
v -1.80623614 -2.36914777 0.12040221
v -1.96700882 -2.36222028 0.12040221
v -1.80686879 -2.33373451 1.0592463
v -1.3234061 -2.28976106 1.61916756
v -1.43815279 -2.27077627 1.75463438
v 1.65808463 -2.343894 0.9859507
v 1.32341051 -2.28976106 1.61916852
v 1.43815732 -2.27077627 1.75463438
v 1.80687356 -2.33373451 1.0592463
v 1.80624043 -2.36914777 0.12040221
v 1.96701252 -2.36222028 0.12040221
v 1.65808463 -2.34389352 -0.74514973
v 1.80687356 -2.33373403 -0.81844484
v 1.26895201 -2.28566885 -1.4485315
v 1.38354718 -2.26603031 -1.58399486
v -0.34526047 -2.22897195 -1.9063574
v -0.00163049 -2.25249481 -1.96636271
v 0.00146152 -2.19635915 -2.37077736
v 0.56102478 -2.24430942 -2.17797589
v 0.81650322 -2.24581146 -2.0440483
v 0.81653696 -2.4117093 -2.06592273
v 0.56841117 -2.41057682 -2.1981883
v 0.50633788 -2.20744037 -2.16137838
v 0.51767569 -2.45562982 -2.19213247
v 0.79877942 -2.45665645 -2.04148006
v 0.79872822 -2.20889616 -2.00881004
v 1.87488615 -2.37351322 1.08510041
v 1.52107942 -2.31221437 1.75539112
v 1.52254378 -2.47805786 1.77259874
v 1.87332809 -2.53986692 1.09699702
v 1.83942687 -2.58174371 1.08871555
v 1.47314 -2.51721572 1.79738879
v 1.47038376 -2.26927328 1.77136564
v 1.84175527 -2.33301973 1.07093012
v 2.03895044 -2.40369844 0.12040209
v 2.03760385 -2.57035732 0.12040168
v 2.00186085 -2.61154556 0.12040269
v 2.00387144 -2.36231899 0.12040221
v 1.8747698 -2.37354946 -0.84498614
v 1.87321269 -2.53990793 -0.85688215
v 1.83936762 -2.58176183 -0.84826511
v 1.84169578 -2.33303737 -0.8304786
v 1.43721437 -2.30140113 -1.63879609
v 1.43559241 -2.46703243 -1.66066265
v 1.40869855 -2.51068401 -1.64186549
v 1.41112113 -2.26319503 -1.60918426
v -0.75850123 -2.23886489 -2.11774301
v -0.56059217 -2.22676754 -2.21285104
v -0.55868428 -2.38386917 -2.23423409
v -0.74575406 -2.39571237 -2.1446824
v -0.72338205 -2.44819355 -2.12334632
v -0.49651727 -2.43426609 -2.23168683
v -0.49844607 -2.18111419 -2.19796228
v -0.74368965 -2.19493913 -2.07995367
v -1.43773615 -2.30824041 -1.63731837
v -1.43625032 -2.46082162 -1.6573801
v -1.40906488 -2.51092624 -1.63984227
v -1.41147685 -2.26341772 -1.60729861
v -1.87469995 -2.38011646 -0.84548109
v -1.87326431 -2.53334188 -0.85643839
v -1.83936083 -2.58176374 -0.84827661
v -1.84169077 -2.33303737 -0.83049112
v -1.87482011 -2.38006639 1.08556926
v -2.0388925 -2.41029119 0.12040209
v -2.03765273 -2.56377649 0.1204018
v -1.87338602 -2.53330946 1.09652638
v -1.83942198 -2.58174371 1.08871555
v -2.00185442 -2.61154556 0.12040269
v -2.00386738 -2.36231899 0.12040221
v -1.84175133 -2.33301973 1.07093012
v -1.52421951 -2.31929445 1.750283
v -1.5254774 -2.47204399 1.76608324
v -1.47037804 -2.26927328 1.7713654
v -1.47313523 -2.51721572 1.79738879
v 0.00109966 -2.4439063 -2.39803028
v -0.00013159 -2.19591426 -2.37401342
v -0.00462062 -2.43908453 -2.39850068
v -0.00607694 -2.20060491 -2.3756206
v 0.006173 -2.43940734 -2.39863467
v 0.00533701 -2.19960498 -2.37567353
v 1.40765512 0.40771567 -1.23139441
v 0.78006815 0.46718078 -1.61950278
v 1.82791602 0.35835522 -0.62692892
v 1.40765416 0.40771585 1.47219371
v 0.36887773 0.48286116 -1.79586434
v -0.78144395 0.47178584 -1.64811182
v -1.40765047 0.40771567 -1.23139441
v -0.01168744 0.50676202 -2.10951519
v -0.39353352 0.51291632 -1.85092103
v -0.01350035 0.5165382 2.03893899
v 0.38891041 0.51000887 2.00400638
v 0.77978986 0.46979439 1.87768626
v 1.82791602 0.35835862 0.86772942
v -0.38148552 0.50258135 2.01794743
v -0.78084313 0.47040832 1.88324213
v -1.40764987 0.40771585 1.47219371
v -1.82791233 0.35835522 -0.62692892
v -1.82791233 0.35835862 0.86772918
v -1.98384404 0.33971148 0.12040191
v 1.98384761 0.33971148 0.12040191
v 1.39890813 0.80179429 -1.18200945
v 0.78233796 0.88370621 -1.53531932
v 1.80662035 0.78503108 -0.60240936
v 1.39890766 0.80179095 1.42281377
v 1.80662024 0.78503108 0.84320771
v 0.77959084 0.88978004 1.80039763
v 1.95729649 0.79381644 0.12040132
v -0.78075164 0.89136612 1.805377
v -1.3989036 0.80179095 1.42281377
v 0.36233377 0.960204 -1.73839545
v -0.78012889 0.89346003 -1.57118046
v -1.3989042 0.80179429 -1.18200945
v -0.005668 1.01579332 2.07476091
v -0.38173633 0.9474895 1.93430662
v -0.01270424 1.04773604 -2.06025266
v -0.38223275 0.97783446 -1.81174314
v 0.39227861 0.95356416 1.94503831
v -1.95729363 0.79381644 0.12040132
v -1.80661606 0.78503108 -0.60240936
v -1.80661606 0.78503108 0.84320771
v 1.40294826 0.61971867 1.44562983
v 0.77968287 0.69572937 1.83610653
v 1.81645798 0.58789372 -0.61373817
v 1.96956527 0.5840044 0.12040144
v 1.81645786 0.58789372 0.8545376
v -0.78079342 0.69686675 1.84135127
v -1.40294504 0.61971867 1.44562983
v -0.00969568 0.78069341 2.01731348
v -0.38096407 0.73976218 1.96247935
v -1.9695605 0.5840044 0.12040144
v -1.81645524 0.58789372 -0.61373817
v -1.81645512 0.58789372 0.85453784
v -1.40294575 0.61971867 -1.20482873
v 1.40294969 0.61971867 -1.20482873
v 0.78128939 0.69125652 -1.57421791
v 0.36535725 0.73966097 -1.76494765
v -0.78073608 0.69863092 -1.60672771
v -0.01223445 0.79778492 -2.08301305
v -0.38745418 0.76302993 -1.82984554
v 0.3910098 0.74701678 1.96860909
v 1.41773712 -0.43442142 1.56190037
v 1.82412087 -0.491602 0.92752075
v -1.28280675 -0.45386761 1.42643654
v -1.64879632 -0.50186318 0.85422539
v -0.42137008 -0.34331166 -1.94900167
v -0.76495671 -0.37122136 -1.77613663
v 0.77985537 -0.37808263 -1.73578059
v 0.40549519 -0.37375104 -1.90172982
v 0.32931634 -0.4049192 -1.61612534
v 0.70724374 -0.4063366 -1.59077501
v -1.26664841 -0.45268422 -1.20607101
v -0.70178109 -0.40384358 -1.59673094
v -1.40152955 -0.43305593 -1.34153485
v -1.64879632 -0.50186318 -0.61342454
v -1.82411801 -0.49160206 -0.68671882
v -1.79245603 -0.52346473 0.12040203
v -1.98191094 -0.51635134 0.12040203
v -1.82411801 -0.491602 0.92752122
v -1.41773378 -0.43441772 1.56190037
v 1.64880013 -0.50186002 0.85422563
v 1.28280997 -0.45386761 1.42643678
v 1.79245972 -0.52346473 0.12040203
v 1.98191416 -0.51635134 0.12040203
v 1.64880013 -0.50186002 -0.61342483
v 1.82412183 -0.49160206 -0.68671894
v 1.26661598 -0.45264416 -1.20650076
v 1.40149819 -0.4330101 -1.34196698
v -0.33796277 -0.3932898 -1.61833095
v -0.01551825 -0.40482085 -1.69037759
v -0.00765953 -0.3596965 -2.19290804
v 1.42010426 -0.64721775 1.58423566
v 1.82212364 -0.70506298 0.94278526
v -1.28751075 -0.66660314 1.44876873
v -1.64987194 -0.71531426 0.86948812
v -0.42848208 -0.55676931 -1.97408688
v -0.7603833 -0.58301276 -1.80771696
v 0.77989995 -0.5907163 -1.76382005
v 0.41522499 -0.58675122 -1.92812538
v 0.33109942 -0.61853343 -1.64929366
v 0.70875191 -0.61846602 -1.62388229
v -1.26692831 -0.66510576 -1.23399758
v -0.70179265 -0.61533337 -1.63062238
v -1.39945972 -0.64546901 -1.36946821
v -1.64987194 -0.71531438 -0.62868869
v -1.82211971 -0.70506286 -0.70198297
v -1.79405236 -0.73734062 0.12040191
v -1.98018455 -0.7302398 0.12040203
v -1.82211971 -0.70506298 0.94278526
v -1.42010021 -0.64721489 1.58423543
v 1.64987599 -0.71531128 0.86948883
v 1.28751444 -0.66659998 1.44876873
v 1.79405677 -0.73734062 0.12040191
v 1.9801892 -0.7302398 0.12040203
v 1.64987599 -0.7153114 -0.62868875
v 1.82212376 -0.70506286 -0.70198297
v 1.26688671 -0.66504776 -1.23454642
v 1.39941811 -0.64541965 -1.3700124
v -0.33880826 -0.60601282 -1.65171051
v -0.01390898 -0.61893039 -1.72235715
v -0.00660261 -0.57252705 -2.21352291
v 1.42254269 -0.86657488 1.6072576
v 1.82006299 -0.92511427 0.95851874
v -1.29236018 -0.88590443 1.47179079
v -1.65098154 -0.93534827 0.88522267
v -0.43581336 -0.77681136 -1.9999485
v -0.75566929 -0.8013339 -1.84027183
v 0.77994489 -0.80991327 -1.79272389
v 0.42525574 -0.8063234 -1.95533156
v 0.33293744 -0.83873629 -1.68348765
v 0.71030718 -0.83714973 -1.65801262
v -1.26721763 -0.8840754 -1.26278734
v -0.70180487 -0.83335006 -1.66556215
v -1.39732492 -0.86444413 -1.39825248
v -1.65098154 -0.93534827 -0.64442348
v -1.82006037 -0.92511427 -0.717718
v -1.79569864 -0.95780682 0.12040203
v -1.97840416 -0.95073974 0.12040203
v -1.82006037 -0.92511427 0.95851874
v -1.42253804 -0.86657488 1.6072576
v 1.65098536 -0.93534827 0.88522291
v 1.29236424 -0.88590443 1.47179174
v 1.79570233 -0.95780682 0.12040203
v 1.97840797 -0.95073974 0.12040203
v 1.65098536 -0.93534827 -0.6444236
v 1.82006335 -0.92511427 -0.71771812
v 1.26716554 -0.88401079 -1.26345765
v 1.39727366 -0.86437702 -1.3989259
v -0.33968013 -0.82528066 -1.68611538
v -0.01225004 -0.83963966 -1.75532496
v -0.00551307 -0.7919209 -2.23476696
v 2.07989907 0.6861906 0.77255916
v -2.0798974 0.25439316 0.81349968
v -2.16534543 0.21769207 0.42643708
v -2.16534543 0.00179337 0.44690901
v -2.0798974 0.03848871 0.8339684
v -1.91522765 0.07302567 1.19822764
v -1.91522765 0.28892713 1.17775559
v -1.91522765 0.7207247 1.13681542
v -2.0798974 0.6861906 0.77255916
v -1.67760849 0.7517848 1.46439325
v -1.37609136 0.77818191 1.74281191
v -1.02216017 0.79891669 1.96147275
v -0.62929678 0.81319272 2.11204314
v -0.21246412 0.82046902 2.18879222
v 0.21246241 0.82046902 2.18879222
v 0.62929678 0.81319272 2.11204552
v 1.02216017 0.79891669 1.96147275
v 1.37609136 0.77818191 1.74281191
v 1.67760849 0.7517848 1.46439325
v 1.91522765 0.7207247 1.13681542
v 1.67760956 0.31998765 1.50533473
v 1.91522765 0.28892713 1.17775559
v 2.07989907 0.25439316 0.81349968
v 1.91522765 0.07302898 1.19822621
v 2.07989907 0.03848871 0.8339684
v 2.16534686 0.00179337 0.44690901
v 2.16534686 0.21769207 0.42643857
v 2.07989907 -0.1774069 0.85443639
v 2.16534686 -0.21410524 0.46737909
v 2.07989907 -0.82511174 0.91584968
v 1.91522765 -1.87007963 1.38246333
v 1.91522765 -2.0859766 1.40293312
v 1.91522765 -2.30188179 1.42340493
v 1.67760849 -2.05490827 1.73050928
v 1.67760849 -2.27081966 1.75098013
v 1.67760849 -2.4867053 1.77145028
v 1.37609136 -2.24441909 2.02940154
v 1.37609136 -2.46030569 2.04987168
v 1.02216017 -2.22369146 2.24806237
v 1.02216017 -2.43957805 2.26853299
v 0.62929678 -2.20941209 2.39863467
v -0.62929678 -2.20941209 2.39863467
v -1.02216184 -2.22369146 2.24806237
v -1.02216017 -2.43957805 2.26853108
v -1.37609314 -2.24441909 2.02940154
v -1.37609136 -2.46030569 2.04987049
v -1.67760956 -2.27081966 1.75098013
v -1.67760956 -2.4867053 1.77144908
v -1.91522765 -2.30188179 1.42340374
v -1.91522765 -2.0859766 1.40293312
v -1.67760956 -2.05490827 1.73050928
v -1.67760956 -1.83901727 1.71003985
v -1.91522765 -1.87007963 1.38246333
v -1.37609314 -2.02851152 2.00893092
v -1.37609314 -1.81262338 1.98845934
v -1.37609314 -1.59670794 1.9679892
v -1.67760956 -1.6231085 1.6895678
v -1.02216017 -2.00777959 2.22759246
v -1.02216017 -1.79189074 2.20712089
v -1.02216184 -1.57597649 2.18665099
v -1.02216184 -1.36007487 2.16617822
v -1.37609314 -1.38080978 1.94751763
v -0.62929678 -1.77761471 2.35769438
v -0.62929678 -1.56170404 2.33722281
v -0.62929678 -1.34579634 2.31675124
v -0.62929678 -1.12989783 2.29627966
v -1.02216184 -1.14417338 2.14570784
v -0.62929678 -0.91399836 2.27580952
v 0.62929499 -1.12989783 2.29627966
v 0.62929678 -0.91399836 2.27580952
v 0.62929678 -0.69810605 2.2553389
v 1.02216017 -0.92827487 2.12523865
v 1.02216184 -0.71238213 2.10476946
v 1.37609314 -0.73311382 1.88610696
v 1.37609314 -0.08541204 1.8246932
v 1.02216184 -0.06467741 2.04335379
v 1.67760956 -0.11180919 1.54627513
v 1.67760956 0.10408929 1.5258044
v 1.37609136 0.13048622 1.80422568
v 1.91522765 -0.14286962 1.21869564
v 1.67760956 -0.75951361 1.60768675
v 1.91522944 -0.79057455 1.28010833
v 1.67760956 -0.97540295 1.62815547
v 1.91522944 -1.00646424 1.30057847
v 1.67760956 -1.19130206 1.64862704
v 1.91522944 -1.22236311 1.32104933
v 1.67760956 -1.40720701 1.6690967
v 1.91522944 -1.4382683 1.34151864
v 1.67760849 -1.6231085 1.68956923
v 1.91522944 -1.65416991 1.36199069
v 1.67760849 -1.83901727 1.7100408
v 1.37609136 -1.59670794 1.9679892
v 1.37609136 -1.81262338 1.98845934
v 1.37609136 -2.02851152 2.00893187
v 1.02216017 -1.79189074 2.20712089
v 1.02216017 -2.00777959 2.22759246
v 0.62929678 -1.77761471 2.35769438
v 0.62929678 -1.99350845 2.37816262
v -0.62929678 -1.99350845 2.37816262
v 0.62929499 -1.56170404 2.33722281
v 0.62929499 -1.34579634 2.31675291
v 1.02216017 -1.57597649 2.18665099
v 1.02216017 -1.36007487 2.16618013
v 1.02216017 -1.14417338 2.14570784
v 1.37609136 -1.38080692 1.94751906
v 1.37609136 -1.16490531 1.92704796
v 1.37609314 -0.94900655 1.90657663
v 1.37609136 0.34638762 1.78375506
v 1.02216017 0.36711955 2.00241446
v 1.02216184 0.15121808 2.0228846
v 0.62929678 0.38139569 2.15298676
v 0.62929678 0.16549414 2.17345643
v 0.62929678 -0.05040143 2.19392728
v 0.21246241 0.17277318 2.25020527
v 0.21246412 -0.04312193 2.27067422
v -0.21246241 -0.04312807 2.27067709
v -0.62929499 -0.69810605 2.25534057
v -1.02216017 -0.71238213 2.10476946
v -1.02216017 -0.92827487 2.12523865
v -1.37609136 -0.73311382 1.88610696
v -1.37609136 -0.94900655 1.90657663
v -1.37609136 -1.16490531 1.92704796
v -1.67760956 -0.97540295 1.62815547
v -1.67760956 -1.19130206 1.64862704
v -1.67760956 -1.40720701 1.6690967
v -1.91522765 -1.22236311 1.32104933
v -1.91522765 -1.4382683 1.34151864
v -1.91522765 -1.65416991 1.36199069
v -2.07989907 -0.82511174 0.91584968
v -2.0798974 -0.1774069 0.85443639
v -2.16534543 -0.21410524 0.46737909
v -1.91522765 -0.14286962 1.21869564
v -1.67760849 -0.11181223 1.54627513
v -1.67760849 0.1040861 1.5258044
v -1.67760849 0.31998765 1.50533473
v -1.37609136 -0.08541505 1.8246932
v -1.37609136 0.13048622 1.80422568
v -1.37609136 0.34638762 1.78375506
v -1.02216017 0.15121808 2.0228846
v -1.02216017 0.36711955 2.00241446
v -0.62929678 0.16549414 2.17345643
v -0.62929678 0.38139569 2.15298676
v -0.21246241 0.17277318 2.25020527
v -0.21246241 0.38867211 2.22973489
v 0.21246241 0.38867211 2.22973489
v -0.62929499 -0.05040447 2.19392728
v -1.02216017 -0.06467741 2.04335379
v -1.67760849 -0.75951361 1.60768675
v -1.91522765 -0.79057455 1.28011035
v -1.91522765 -1.00646424 1.30057847
v 2.07989907 -0.60014444 0.89451956
v 2.16534686 -0.63684278 0.50746232
v 1.02216184 -0.48741501 2.0834372
v 1.37609314 -0.50814956 1.86477494
v 1.67760956 -0.53455007 1.58635687
v 1.91522944 -0.56560754 1.25877738
v -1.67760849 -0.53455007 1.58635687
v -1.91522765 -0.56560754 1.25877857
v -2.0798974 -0.60014444 0.89451956
v -2.16534543 -0.63684278 0.50746232
v -1.37609136 -0.50814956 1.86477494
v -1.02216017 -0.48741501 2.0834372
v -1.88473451 0.03239244 0.76966452
v -1.96563375 -0.00235053 0.40321105
v -1.96563375 0.21354782 0.38273996
v -1.88473451 0.24829363 0.74919462
v -1.73729014 0.27921968 1.07534718
v -1.73729014 0.06331494 1.09581685
v -1.88473451 0.68009424 0.70825326
v -1.73729014 0.71101367 1.03440797
v -1.25150382 -0.74853336 1.72350001
v -1.25150382 -0.96442341 1.74397087
v -1.5236988 -0.98825645 1.49262452
v -1.52369689 -0.77236306 1.47215545
v -1.74097299 -1.01673209 1.19229364
v -1.73527312 -0.79994094 1.181342
v -1.5236988 -1.20415508 1.51309633
v -1.74945485 -1.23366653 1.20187199
v -1.88719403 -0.83183741 0.84491872
v -1.88473451 -0.60624051 0.83021736
v -1.73729014 -0.57531505 1.15637064
v -1.52369689 -0.54739958 1.45082497
v -1.2463833 -0.52317279 1.7063229
v -0.93071186 -0.0820367 1.86027407
v -0.93071186 0.13385897 1.83980512
v -0.57349646 0.14684081 1.97671246
v -0.57349491 -0.06905791 1.9971826
v 0.19371357 0.15347147 2.04663777
v 0.19371357 -0.0624241 2.06710958
v -0.19371199 -0.06242723 2.06710958
v -0.19371357 0.15347147 2.04663777
v 0.19371357 0.80116987 1.98522687
v 0.57349646 0.79453933 1.91530013
v 0.57349646 0.36274206 1.95624041
v 0.19371357 0.36937266 2.02616858
v 0.57349646 0.14684081 1.97671246
v -0.19371357 0.80116987 1.98522687
v -0.19371357 0.36937266 2.02616763
v -0.57349646 0.79453933 1.91530013
v -0.57349646 0.36274206 1.95624041
v 1.73729014 0.27921968 1.07534718
v 1.5236988 0.30713862 1.36980271
v 1.52369689 0.73893535 1.32886147
v 1.73729014 0.71101367 1.03440547
v 1.88473451 0.68009424 0.70825326
v 1.88473451 0.24829363 0.74919462
v 1.88473451 0.03239595 0.76966333
v 1.73729014 0.06331807 1.09581685
v 1.96563375 0.21354782 0.38274288
v 1.96563375 -0.00235053 0.40321105
v 1.96563375 -0.21824908 0.42368388
v 1.88473451 -0.18350279 0.79013145
v -1.88473451 -0.18350279 0.79013145
v -1.73729014 -0.15257763 1.11628723
v 1.96563375 -0.64098662 0.46376484
v 1.88473451 -0.60624051 0.83021736
v 1.52106118 -2.28337717 1.61853766
v 1.52369689 -2.06776189 1.59498
v 1.74945485 -2.09727335 1.28375613
v 1.74945485 -2.3131833 1.30422568
v 1.25150382 -2.47572422 1.8872621
v 1.25150382 -2.2598381 1.86679482
v 1.52369689 -2.49955701 1.63592028
v 0.93071186 -2.45693302 2.08545136
v 0.93071186 -2.24105262 2.06498217
v -1.25150382 -2.47572422 1.8872621
v -1.25150501 -2.2598381 1.86679482
v -0.93071407 -2.24105262 2.06498217
v -0.93071186 -2.45693302 2.08545136
v -1.5236988 -2.49955701 1.63592028
v -1.52106118 -2.28337717 1.61853766
v -1.74945485 -2.09727335 1.28375411
v -1.5236988 -2.06776189 1.5949788
v -1.74945485 -2.3131833 1.30422568
v -1.74945485 -1.8813771 1.26328551
v -1.5236988 -1.85186898 1.57450938
v -1.25150501 -2.043931 1.84632134
v -1.25150501 -1.82804262 1.82585215
v -1.5236988 -1.63595879 1.55403757
v -1.25150501 -1.61212766 1.80537915
v -0.93071186 -1.80925071 2.0240395
v -0.93071186 -2.02514028 2.0445106
v -0.93071186 -1.5933355 2.00357008
v -1.25150501 -1.39622628 1.78491044
v -0.93071407 -1.37743496 1.98309683
v -0.55583214 -1.57971417 2.14724707
v -0.55583083 -1.79562437 2.16771864
v -0.55583214 -1.36381089 2.12677598
v -0.93071186 -1.16153252 1.96262621
v -0.55583214 -1.1479088 2.1063044
v 0.93071407 -0.72974187 1.92168688
v 0.93071186 -0.94563055 1.94215464
v 0.55583083 -0.93200945 2.08583545
v 0.55583214 -0.71612066 2.06536603
v 1.5236988 0.0912365 1.39027261
v 1.25150382 0.76276516 1.58020615
v 1.25150382 0.33096855 1.62114739
v 0.93071407 -0.50477737 1.90035581
v 1.2463833 -0.52317279 1.70632123
v 1.25150501 -0.74853336 1.72350001
v -1.52369689 -0.1246618 1.41074311
v -1.2463833 -0.10043799 1.66623997
v 1.5236988 -0.12465886 1.41074311
v 1.5236988 -0.54739958 1.45082497
v 1.2463833 -0.100435 1.66623997
v 1.25150382 0.11506682 1.64161706
v -0.93071186 -0.72974187 1.92168688
v -0.93071186 -0.50477737 1.90035581
v 1.73729014 -0.15257763 1.11628723
v -1.96563375 -0.21824908 0.42368388
v -1.96563375 -0.64098662 0.46376484
v 1.73729121 -0.57531803 1.1563692
v 0.93071186 0.78155708 1.77839279
v 0.93071186 0.34976035 1.8193326
v 1.7409743 -1.01673209 1.19229364
v 1.5236988 -0.98825645 1.49262452
v 1.5236988 -0.77236306 1.47215545
v 1.73527312 -0.79994094 1.181342
v 1.74945485 -1.23366653 1.20187199
v 1.5236988 -1.20415508 1.51309633
v 1.74945485 -1.44956839 1.22234165
v 1.5236988 -1.42005646 1.53356695
v 1.74945485 -1.66547048 1.2428137
v 1.52369689 -1.63595879 1.55403852
v 1.74945485 -1.8813771 1.26328551
v 1.52369689 -1.85186898 1.57451057
v 1.25150382 -1.82804262 1.8258531
v 1.25150382 -1.61212766 1.80538058
v 1.25150382 -2.043931 1.84632134
v 0.93071186 -2.02514028 2.0445106
v 0.93071186 -1.80925071 2.0240395
v 0.55583214 -2.01151895 2.18818879
v 0.55583083 -1.79562437 2.16771864
v 0.55583083 -2.22742509 2.20866131
v -0.55583214 -2.01151895 2.18818879
v -0.55583214 -2.22742509 2.20866131
v 0.93071186 -1.37743496 1.98309683
v 0.93071186 -1.5933355 2.00357008
v 0.55583083 -1.57971417 2.14724707
v 0.55583083 -1.36381089 2.12677598
v 0.55583083 -1.1479088 2.1063044
v 0.93071186 -1.16153252 1.96262717
v 1.25150382 -1.18032145 1.76443934
v 1.25150382 -1.39622628 1.78491044
v 1.25150501 -0.96442341 1.74397087
v 0.93071186 0.13385897 1.83980512
v 0.93071407 -0.0820367 1.86027216
v 0.57349646 -0.06905499 1.99718165
v -1.52369689 0.73893535 1.32886147
v -1.52369689 0.30713474 1.36980271
v -1.25150382 0.11506682 1.64161706
v -0.55583083 -0.93200945 2.08583545
v -0.93071186 -0.94563055 1.94215464
v -0.55583083 -0.71612066 2.06536722
v -1.25150382 -1.18032145 1.76443934
v -1.5236988 -1.42005646 1.53356695
v -1.74945485 -1.44956839 1.22234165
v -1.74945485 -1.66547048 1.2428137
v 1.88719403 -0.83183741 0.84491562
v -1.52369689 0.0912365 1.39027261
v -1.25150382 0.33096855 1.62114739
v -1.25150382 0.76276516 1.58020615
v -0.93071186 0.34976035 1.81933188
v -0.93071186 0.78155708 1.77839112
g Group19293
f 187 186 174 176
f 2 1 61 58
f 1 2 4 3
f 60 63 62 59
f 3 4 6 5
f 265 264 262 263
f 5 6 8 7
f 63 65 64 62
f 7 8 10 9
f 68 67 65 66
f 11 13 9 12
f 67 68 70 69
f 12 15 14 11
f 64 65 67 71
f 10 16 12 9
f 17 18 105 106
f 19 21 95 96
f 22 97 95 21
f 213 212 216 215
f 182 206 237 217
f 69 72 71 67
f 15 12 16 23
f 69 70 73 72
f 15 23 25 14
f 25 23 108 109
f 27 28 98 99
f 28 30 100 98
f 25 109 110 31
f 70 292 293 73
f 14 25 31 32
f 68 294 292 70
f 11 14 32 33
f 185 184 153 154
f 34 13 11 33
f 211 210 214 217
f 34 36 35 13
f 79 66 65 63
f 35 7 9 13
f 63 60 79
f 5 7 35 3
f 60 295 296 79
f 3 35 36 1
f 155 151 216 236
f 39 114 113 80
f 154 153 152 151
f 41 102 101 146
f 39 102 103 38
f 275 312 313 283
f 291 274 314 315
f 220 219 224 223
f 42 41 146 83
f 41 42 44 40
f 46 104 103 40
f 250 255 260 253
f 47 48 19 46
f 144 85 82 145
f 46 40 44 47
f 291 315 316 284
f 286 317 318 287
f 87 86 81 85
f 49 48 45 50
f 85 144 143 87
f 48 49 21 19
f 37 104 96 20
f 73 293 301 135
f 219 218 225 224
f 52 53 54 50
f 222 228 227 221
f 52 50 45 43
f 87 91 89 86
f 49 50 54 55
f 89 91 93 92
f 54 57 56 55
f 141 93 91 142
f 27 22 55 56
f 143 142 91 87
f 21 49 55 22
f 218 226 229 225
f 51 57 54 53
f 93 141 140 92
f 56 57 28 27
f 22 27 99 97
f 140 302 303 92
f 28 57 51 30
f 96 95 17 20
f 97 18 17 95
f 99 98 26 24
f 98 100 29 26
f 102 39 80 101
f 102 41 40 103
f 104 37 38 103
f 104 46 19 96
f 97 99 24 18
f 106 105 16 10
f 107 20 17 106
f 105 18 24 108
f 109 108 24 26
f 109 26 29 110
f 111 38 37 112
f 114 2 58 113
f 111 114 39 38
f 281 319 320 285
f 118 117 116 115
f 228 232 231 227
f 101 80 122 119
f 177 178 243 266
f 123 124 118 125
f 126 125 118 115
f 130 129 128 127
f 127 128 306 307
f 123 120 121 124
f 126 115 129 130
f 133 117 118 124
f 116 134 129 115
f 135 128 129 134
f 135 301 306 128
f 137 133 124 121
f 137 121 304 308
f 80 113 138 122
f 290 321 322 288
f 73 135 134 72
f 113 58 138
f 71 72 134 116
f 59 62 133 137
f 117 64 71 116
f 59 137 308 297
f 290 289 323 321
f 144 145 120 123
f 62 64 117 133
f 146 101 119
f 278 288 322 324
f 226 230 233 229
f 140 127 307 302
f 180 209 267 244
f 141 130 127 140
f 144 123 125 143
f 142 126 130 141
f 142 143 125 126
f 150 149 148 147
f 211 234 235 212
f 4 2 114 111
f 206 204 233 237
f 156 154 151 155
f 157 155 236 232
f 234 230 231 235
f 158 156 155 157
f 204 202 229 233
f 159 157 232 228
f 160 158 157 159
f 230 226 227 231
f 202 200 225 229
f 162 160 159 161
f 161 159 228 222
f 226 218 221 227
f 164 162 161 163
f 289 287 318 323
f 199 163 223 224
f 163 161 222 223
f 285 320 317 286
f 277 280 131 139
f 183 182 217 214
f 151 179 215 216
f 172 171 170 169
f 210 211 212 213
f 184 208 150 153
f 171 168 165 170
f 207 187 176 149
f 208 207 149 150
f 174 172 169 173
f 205 185 154 156
f 203 205 156 158
f 176 174 173 175
f 4 111 112 6
f 201 203 158 160
f 149 176 175 148
f 197 201 160 162
f 153 150 147 152
f 199 198 164 163
f 147 148 178 177
f 198 197 162 164
f 152 147 177 179
f 195 196 166 167
f 151 152 179
f 8 107 106 10
f 148 175 178
f 16 105 108 23
f 168 167 166 165
f 283 282 138 58
f 189 192 171 172
f 192 191 168 171
f 282 281 122 138
f 186 189 172 174
f 276 136 132 279
f 8 6 112 107
f 239 269 268 240
f 266 243 240 268
f 280 279 132 131
f 107 112 37 20
f 277 139 94 278
f 273 74 136 276
f 48 47 44 45
f 85 81 82
f 275 61 78 284
f 274 76 75 272
f 43 45 44 42
f 232 236 235 231
f 272 75 74 273
f 190 188 249 253
f 254 255 256 257
f 170 165 258 259
f 194 193 260 261
f 255 250 251 256
f 230 234 237 233
f 119 285 286 146
f 217 237 234 211
f 212 235 236 216
f 84 83 287 289
f 238 239 240 241
f 254 262 264 261
f 258 265 263 257
f 169 170 259 252
f 165 166 265 258
f 193 190 253 260
f 262 254 257 263
f 221 220 223 222
f 200 199 224 225
f 166 196 264 265
f 218 219 220 221
f 238 246 249 245
f 191 195 167 168
f 242 248 247 241
f 239 238 245 244
f 241 240 243 242
f 196 194 261 264
f 94 88 288 278
f 90 84 289 290
f 90 290 288 88
f 178 175 242 243
f 421 399 183 209
f 248 252 251 247
f 246 250 253 249
f 396 421 209 180
f 181 180 244 245
f 246 238 241 247
f 122 281 285 119
f 175 173 248 242
f 400 420 208 184
f 419 403 187 207
f 420 419 207 208
f 398 418 206 182
f 417 401 185 205
f 418 416 204 206
f 415 417 205 203
f 416 414 202 204
f 413 415 203 201
f 414 393 200 202
f 411 413 201 197
f 257 256 259 258
f 392 412 198 199
f 412 411 197 198
f 410 409 194 196
f 255 254 261 260
f 394 410 196 195
f 408 406 190 193
f 405 407 192 189
f 409 408 193 194
f 407 395 191 192
f 406 404 188 190
f 402 405 189 186
f 404 397 181 188
f 403 402 186 187
f 401 400 184 185
f 399 398 182 183
f 397 396 180 181
f 395 394 195 191
f 393 392 199 200
f 146 286 287 83
f 252 259 256 251
f 188 181 245 249
f 77 291 284 78
f 77 76 274 291
f 250 246 247 251
f 173 169 252 248
f 61 275 283 58
f 267 214 210 271
f 215 266 270 213
f 266 267 271 270
f 271 210 213 270
f 209 183 214 267
f 179 177 266 215
f 244 267 269 239
f 267 266 268 269
f 292 325 326 293
f 294 314 325 292
f 295 312 316 296
f 295 60 59 297
f 298 294 68 66
f 298 66 79 296
f 299 145 82 300
f 293 326 327 301
f 302 328 324 303
f 304 121 120 305
f 307 306 329 330
f 301 327 329 306
f 308 304 319 331
f 309 86 89 310
f 297 308 331 313
f 309 311 81 86
f 303 310 89 92
f 302 307 330 328
f 311 300 82 81
f 305 120 145 299
f 312 295 297 313
f 315 314 294 298
f 315 298 296 316
f 317 299 300 318
f 319 304 305 320
f 321 309 310 322
f 321 323 311 309
f 324 322 310 303
f 323 318 300 311
f 320 305 299 317
f 325 272 273 326
f 314 274 272 325
f 312 275 284 316
f 326 273 276 327
f 328 277 278 324
f 330 329 279 280
f 327 276 279 329
f 331 319 281 282
f 313 331 282 283
f 328 330 280 277
f 78 61 332 333
f 43 42 334 335
f 139 131 336 337
f 136 74 338 339
f 31 110 340 341
f 30 51 342 343
f 94 139 337 344
f 51 53 345 342
f 88 94 344 346
f 52 43 335 347
f 84 90 348 349
f 53 52 347 345
f 90 88 346 348
f 42 83 350 334
f 83 84 349 350
f 1 36 351 352
f 61 1 352 332
f 36 34 353 351
f 77 78 333 354
f 34 33 355 353
f 76 77 354 356
f 33 32 357 355
f 75 76 356 358
f 32 31 341 357
f 74 75 358 338
f 29 100 359 360
f 100 30 343 359
f 110 29 360 340
f 131 132 361 336
f 132 136 339 361
f 391 369 399 421
f 366 391 421 396
f 370 390 420 400
f 389 373 403 419
f 390 389 419 420
f 368 388 418 398
f 387 371 401 417
f 388 386 416 418
f 385 387 417 415
f 386 384 414 416
f 383 385 415 413
f 384 363 393 414
f 381 383 413 411
f 362 382 412 392
f 382 381 411 412
f 380 379 409 410
f 364 380 410 394
f 378 376 406 408
f 375 377 407 405
f 379 378 408 409
f 377 365 395 407
f 376 374 404 406
f 372 375 405 402
f 374 367 397 404
f 373 372 402 403
f 371 370 400 401
f 369 368 398 399
f 367 366 396 397
f 365 364 394 395
f 363 362 392 393
f 333 332 362 363
f 335 334 364 365
f 337 336 366 367
f 339 338 368 369
f 341 340 370 371
f 343 342 372 373
f 344 337 367 374
f 342 345 375 372
f 346 344 374 376
f 347 335 365 377
f 349 348 378 379
f 345 347 377 375
f 348 346 376 378
f 334 350 380 364
f 350 349 379 380
f 352 351 381 382
f 332 352 382 362
f 351 353 383 381
f 354 333 363 384
f 353 355 385 383
f 356 354 384 386
f 355 357 387 385
f 358 356 386 388
f 357 341 371 387
f 338 358 388 368
f 360 359 389 390
f 359 343 373 389
f 340 360 390 370
f 336 361 391 366
f 361 339 369 391
g Group47253
f 587 586 585 584
f 424 425 585 586
f 423 426 425 424
f 587 584 589 588
f 423 428 427 426
f 587 588 591 590
f 429 430 590 591
f 423 430 429 428
f 595 594 593 592
f 569 541 542 544
f 595 597 596 594
f 569 544 571 570
f 596 599 598 594
f 571 547 599 596
f 571 544 545 547
f 597 602 601 600
f 570 550 580 579
f 592 604 603 595
f 541 569 578 582
f 608 607 606 605
f 568 567 608 605
f 567 568 560 562
f 612 611 610 609
f 537 536 610 611
f 564 535 536 537
f 612 607 608 611
f 567 537 611 608
f 564 537 567 562
f 616 615 614 613
f 437 436 613 614
f 566 436 437 532
f 616 609 617 615
f 566 532 533 535
f 619 616 613 618
f 436 435 618 613
f 565 435 436 566
f 619 612 609 616
f 565 566 535 564
f 621 619 618 620
f 435 434 620 618
f 563 434 435 565
f 625 624 623 622
f 441 440 624 625
f 441 443 442 440
f 625 622 627 626
f 422 441 625 626
f 441 422 444 443
f 627 622 629 628
f 444 446 445 443
f 627 628 631 630
f 447 448 630 631
f 444 448 447 446
f 631 628 633 632
f 450 447 631 632
f 447 450 449 446
f 602 635 634 601
f 579 580 551 553
f 632 633 637 636
f 573 450 632 636
f 450 573 572 449
f 621 607 612 619
f 563 565 564 562
f 641 640 639 638
f 454 453 640 641
f 454 456 455 453
f 644 638 643 642
f 459 457 644 642
f 457 459 458 456
f 642 643 646 645
f 461 459 642 645
f 459 461 460 458
f 650 649 648 647
f 467 465 650 647
f 465 467 466 464
f 647 648 652 651
f 469 467 647 651
f 467 469 468 466
f 655 652 654 653
f 471 470 655 653
f 470 471 472 468
f 654 657 656 653
f 474 471 653 656
f 472 471 474 473
f 654 652 648 658
f 472 475 466 468
f 654 658 659 657
f 472 473 476 475
f 659 661 660 657
f 476 473 478 477
f 659 658 663 662
f 476 480 479 475
f 659 662 664 661
f 476 477 481 480
f 664 666 665 661
f 481 477 483 482
f 664 662 668 667
f 484 485 667 668
f 481 485 484 480
f 664 667 669 666
f 485 486 669 667
f 481 482 486 485
f 669 671 670 666
f 486 487 671 669
f 486 482 488 487
f 663 658 648 649
f 479 464 466 475
f 675 674 673 672
f 492 491 674 675
f 492 494 493 491
f 676 629 622 623
f 499 442 443 445
f 678 623 624 677
f 440 439 677 624
f 529 439 440 442
f 672 681 680 679
f 575 574 679 680
f 494 574 575 495
f 604 683 682 603
f 582 557 683 604
f 582 578 554 557
f 686 680 685 684
f 496 575 680 686
f 496 498 576 575
f 684 676 687 686
f 498 496 500 499
f 689 604 592 688
f 583 582 604 689
f 583 539 541 582
f 684 690 629 676
f 498 499 445 501
f 692 601 634 691
f 552 581 692 691
f 581 552 551 580
f 690 633 628 629
f 501 445 446 449
f 690 684 685 693
f 501 577 576 498
f 690 693 637 633
f 501 449 572 577
f 695 678 677 694
f 439 438 694 677
f 530 438 439 529
f 615 695 694 614
f 438 437 614 694
f 532 437 438 530
f 699 698 697 696
f 503 505 504 502
f 696 697 701 700
f 507 505 696 700
f 505 507 506 504
f 700 701 703 702
f 509 507 700 702
f 507 509 508 506
f 702 703 705 704
f 511 509 702 704
f 509 511 510 508
f 704 705 707 706
f 452 511 704 706
f 511 452 512 510
f 707 705 709 708
f 512 514 513 510
f 707 708 710 639
f 512 455 515 514
f 707 639 640 706
f 453 452 706 640
f 512 452 453 455
f 710 708 712 711
f 515 517 516 514
f 710 711 646 643
f 515 458 460 517
f 710 643 638 639
f 515 455 456 458
f 711 712 714 713
f 518 519 713 714
f 517 519 518 516
f 711 713 715 646
f 519 462 715 713
f 517 460 462 519
f 716 668 662 663
f 520 484 668 716
f 520 479 480 484
f 716 663 649 717
f 463 520 716 717
f 520 463 464 479
f 721 720 719 718
f 522 521 720 721
f 522 524 523 521
f 723 673 674 722
f 491 490 722 674
f 525 490 491 493
f 723 722 721 718
f 490 522 721 722
f 525 524 522 490
f 723 718 725 724
f 525 527 526 524
f 723 724 726 673
f 525 493 528 527
f 726 681 672 673
f 528 493 494 495
f 726 724 701 697
f 528 504 506 527
f 726 697 698 681
f 528 495 502 504
f 724 725 703 701
f 527 506 508 526
f 725 718 719 709
f 526 513 523 524
f 725 709 705 703
f 526 508 510 513
f 719 720 714 712
f 521 518 714 720
f 523 516 518 521
f 719 712 708 709
f 523 513 514 516
f 687 678 695 727
f 500 531 530 529
f 687 727 728 686
f 497 496 686 728
f 500 496 497 531
f 687 676 623 678
f 500 529 442 499
f 727 695 615 617
f 531 533 532 530
f 727 617 729 728
f 534 497 728 729
f 531 497 534 533
f 729 617 609 610
f 536 534 729 610
f 534 536 535 533
f 602 603 682 635
f 579 553 554 578
f 731 730 591 588
f 431 429 591 730
f 556 428 429 431
f 605 606 732 683
f 557 568 605 683
f 568 557 558 560
f 735 688 734 733
f 489 538 735 733
f 538 489 540 539
f 734 688 592 593
f 540 542 541 539
f 734 593 736 670
f 540 488 543 542
f 734 670 671 733
f 487 489 733 671
f 540 489 487 488
f 736 593 594 598
f 543 545 544 542
f 736 598 737 665
f 543 483 546 545
f 736 665 666 670
f 543 488 482 483
f 737 598 599 738
f 547 548 738 599
f 546 548 547 545
f 737 738 739 660
f 548 549 739 738
f 546 478 549 548
f 737 660 661 665
f 546 483 477 478
f 739 656 657 660
f 549 474 656 739
f 549 478 473 474
f 597 595 603 602
f 570 579 578 569
f 693 699 740 637
f 577 572 451 503
f 691 634 584 585
f 425 552 691 585
f 552 425 426 551
f 693 685 698 699
f 577 503 502 576
f 634 635 589 584
f 551 426 427 553
f 680 681 698 685
f 575 576 502 495
f 635 682 741 589
f 553 427 555 554
f 741 731 588 589
f 555 427 428 556
f 741 682 683 732
f 555 558 557 554
f 741 732 742 731
f 555 556 559 558
f 742 743 730 731
f 432 431 730 743
f 559 556 431 432
f 742 732 606 744
f 559 561 560 558
f 742 744 745 743
f 433 432 743 745
f 559 432 433 561
f 744 606 607 621
f 561 563 562 560
f 744 621 620 745
f 434 433 745 620
f 561 433 434 563
f 740 636 637
f 451 573 636 740
f 572 573 451
f 630 626 627
f 448 422 626 630
f 444 422 448
f 590 586 587
f 430 424 586 590
f 423 424 430
f 692 600 601
f 581 550 600 692
f 580 550 581
f 679 675 672
f 574 492 675 679
f 494 492 574
f 688 735 689
f 538 583 689 735
f 583 538 539
f 715 645 646
f 462 461 645 715
f 460 461 462
f 649 650 717
f 465 463 717 650
f 463 465 464
f 644 641 638
f 457 454 641 644
f 457 456 454
f 652 655 651
f 470 469 651 655
f 468 469 470
f 597 600 596
f 550 571 596 600
f 570 571 550
f 699 696 740
f 505 451 740 696
f 503 451 505

 