# File exported by ZBrush version 2021
# www.zbrush.com
#Vertex Count 1078
#Face Count 1098
#Auto scale x=1.000000 y=1.000000 z=1.000000
#Auto offset x=0.000000 y=0.000000 z=0.000000
v 0.00000023 3.44900846 0.54025375
v -0.77014195 2.12008762 -1.06413018
v 0.00000083 2.12741756 -1.2407552
v -1.42907607 2.09940862 -0.55463588
v -1.74581778 2.1015973 0.18602395
v -1.82442629 2.11986804 1.00592732
v -1.65878808 2.13488364 1.77037417
v -1.26213944 2.12670183 2.38674879
v -0.68524813 2.10449886 2.78302478
v 0.00000083 2.08899354 2.92379713
v 0.68525028 2.10449457 2.78304386
v 1.2621417 2.12670421 2.38674783
v 1.6587913 2.13487863 1.77037465
v 1.82442915 2.11986756 1.0059278
v 1.7458198 2.10159826 0.18602407
v 1.42907762 2.09940862 -0.55463576
v 0.77014267 2.1200838 -1.06412982
v -0.81301319 1.78259849 -1.16796779
v 0.00000083 1.79388713 -1.36191499
v -1.50498879 1.75131607 -0.60854637
v -1.8534919 1.74345862 0.19147217
v -1.9519236 1.75393104 1.06616652
v -1.78658711 1.75868082 1.87430894
v -1.36441063 1.73099052 2.53004455
v -0.74296969 1.68549192 2.95439577
v 0.00000107 1.65835881 3.10736417
v 0.74297243 1.68549644 2.95439481
v 1.3644129 1.73098313 2.53002882
v 1.78658866 1.75867986 1.87429797
v 1.95192658 1.7539277 1.06616771
v 1.85349392 1.74345958 0.19147151
v 1.50499105 1.75131988 -0.60854667
v 0.81301564 1.78260135 -1.16796851
v -0.84775722 1.12739205 -1.32342088
v 0.00000071 1.13324892 -1.54941487
v -1.55871415 1.1030159 -0.668971
v -1.96615314 1.09404075 0.23114186
v -2.10411119 1.10860168 1.15658617
v -1.9699136 1.12024712 1.96439588
v -1.5457884 1.10957884 2.5917778
v -0.79195964 1.13150119 3.0760889
v 0.00000107 1.10047352 3.24147224
v 0.79196238 1.13150537 3.07608938
v 1.54579269 1.10958814 2.59177637
v 1.9699186 1.12024676 1.96439492
v 2.10411477 1.10860073 1.15657818
v 1.96615505 1.09403789 0.2311424
v 1.55871677 1.10300612 -0.66897082
v 0.84775972 1.12740087 -1.32342064
v -1.47858393 2.5299797 1.61569321
v -1.64150202 2.50277233 0.92019808
v 1.4785856 2.52998065 1.61569178
v 1.11757898 2.54185414 2.17167377
v 0.70217263 2.46245431 -0.92179125
v 1.27389276 2.44216942 -0.43892255
v 0.00000083 2.53630757 2.64991426
v -0.60337245 2.54087138 2.52632379
v 1.5441389 2.45685648 0.20350205
v 1.64150381 2.50277185 0.92019701
v 0.00000083 2.46392798 -1.0762
v -1.54413735 2.45685958 0.20350146
v -1.11757755 2.54185414 2.17167329
v -1.27389121 2.44216942 -0.43892243
v -0.70217156 2.46245431 -0.92179113
v 0.60337483 2.54086494 2.52629375
v -1.30354368 2.81247949 1.45937216
v -1.43287551 2.77336859 0.8364017
v 1.30354499 2.81248092 1.45937168
v 0.973836 2.82963967 1.94625437
v 0.61495685 2.70954537 -0.73465502
v 1.12493562 2.71180176 -0.34198686
v 0.00000083 2.84774208 2.38394546
v -0.52390396 2.8407495 2.26379776
v 1.35382425 2.73421883 0.21283972
v 1.43287766 2.77336835 0.83640217
v 0.00000083 2.70707821 -0.87746191
v -1.35382318 2.7342205 0.21283841
v -0.97383445 2.82963895 1.94625556
v -1.12493574 2.71180224 -0.34198686
v -0.6149553 2.70954442 -0.73465538
v 0.52390551 2.84074235 2.26379823
v -1.09980762 3.03686094 1.28552317
v -1.21086061 3.00742602 0.75650489
v 1.09980893 3.03687048 1.2855215
v 0.83430612 3.05797195 1.72293913
v 0.5241487 2.93247175 -0.55503153
v 0.95938414 2.94306397 -0.23378905
v 0.00000083 3.07435321 2.09491157
v -0.44858825 3.07095766 2.00036907
v 1.15548694 2.9711368 0.2297399
v 1.21086204 3.00742316 0.75650036
v 0.00000059 2.92395806 -0.69505292
v -1.15548658 2.97113609 0.22973954
v -0.83430463 3.05797386 1.72293984
v -0.95938247 2.94306445 -0.23378935
v -0.52414715 2.93247199 -0.55503165
v 0.44858896 3.07095718 2.00036907
v -0.87411153 3.25796198 1.09247911
v -0.97626876 3.22101736 0.68108344
v 0.87411296 3.25796103 1.09247922
v 0.65340739 3.29100823 1.42628991
v 0.41595351 3.15099525 -0.34868454
v 0.76958835 3.15095281 -0.10127055
v 0.00000107 3.31914496 1.70575797
v -0.3467195 3.31490492 1.63388025
v 0.93903845 3.17798638 0.26310473
v 0.97626912 3.22101736 0.68108344
v 0.00000083 3.16156005 -0.44239738
v -0.9390372 3.17798638 0.26310473
v -0.65340596 3.29100799 1.42628943
v -0.76958721 3.15094614 -0.10126853
v -0.41595053 3.15099525 -0.34868454
v 0.34672093 3.31490492 1.63388025
v 1.32815051 1.61106681 -0.43752974
v 0.71929681 1.63845098 -0.9567492
v 0.68154978 2.00271296 -0.85724014
v 1.26303541 1.97927069 -0.3946295
v -1.44194221 2.34230566 0.91398108
v -1.60678517 1.98675417 1.00375843
v -1.46076118 1.99947094 1.68312823
v -1.30079829 2.36105012 1.53332269
v 1.63663256 1.60326516 0.29123145
v 1.53754007 1.9749813 0.27235698
v 0.00000083 3.06437277 1.4949969
v 0.00000083 2.85155725 1.94660317
v 0.39289033 2.84920978 1.86305511
v 0.26618135 3.06218433 1.437312
v 0.98462504 2.36939811 2.03220224
v 1.11166739 1.99419403 2.23145771
v 1.46076512 1.99947762 1.68312823
v 1.3008002 2.36104941 1.53331935
v -0.66076326 1.57119643 2.75179863
v 0.00000095 1.54972302 2.88841867
v 0.00000095 1.96516132 2.70925664
v -0.60329592 1.97735214 2.58425951
v 1.38191533 1.11080348 -0.51118624
v 0.75164806 1.13147115 -1.11176872
v 0.00000023 3.07203078 0.68407642
v -0.46616971 2.95333671 0.2455188
v -0.56149876 2.96639061 0.45795261
v -0.77210956 2.77414107 -0.0532487
v -0.93420577 2.78554081 0.32610368
v 1.73065042 1.10234987 0.31037998
v 0.56149923 2.96639561 0.45795095
v 0.46617138 2.95333814 0.24551856
v 0.93420708 2.78554081 0.32610368
v 0.77211052 2.77414107 -0.0532487
v 0.00000071 1.13648736 -1.32179331
v -0.75164574 1.13147425 -1.11176753
v -0.71929407 1.63845396 -0.956748
v 0.00000083 1.64764058 -1.13799715
v 1.12283611 2.3068428 -0.29550069
v 0.61838877 2.33552575 -0.72954994
v 1.41551947 1.12300312 2.46685218
v 1.72879135 1.13053047 1.85400855
v 1.58431005 1.6198554 1.78861439
v 1.21677553 1.60116601 2.36998748
v 0.72294884 2.84012889 1.60679543
v 0.47243392 3.04083704 1.24792504
v 0.00000083 2.96631741 0.00950849
v 0.00000083 2.77414846 -0.48070418
v -0.42380225 2.77466416 -0.33225357
v -0.25153911 2.96110892 0.08007556
v 0.73223757 1.18856906 2.92669057
v 0.660766 1.57119536 2.75180673
v -0.47243261 3.04083704 1.24792456
v -0.72294807 2.84012913 1.60679638
v -0.3928889 2.84920907 1.86306226
v -0.26617884 3.06219148 1.437312
v -0.59279942 3.01599812 0.98691225
v -0.9382177 2.82718062 1.21330475
v 0.59279978 3.01599836 0.98691272
v 0.93821895 2.8271656 1.21330559
v 1.00414896 2.80655407 0.75765788
v 0.62899684 2.9939568 0.7061733
v -1.00414776 2.80655407 0.75765788
v -0.62899643 2.9939568 0.70617306
v -1.21677291 1.60116469 2.36997461
v -1.11166322 1.99420094 2.23145341
v 0.25153935 2.96110892 0.08007556
v 0.42380356 2.77466416 -0.33225369
v -0.53194892 2.36875391 2.35116958
v 0.00000083 2.36513996 2.46274185
v 1.72699952 1.61245739 1.07491064
v 1.60678887 1.98675417 1.00375795
v 1.44194579 2.34230566 0.91398012
v 1.35550499 2.30973577 0.27795922
v -1.58430695 1.61985635 1.78861439
v -1.72699546 1.61245644 1.07491064
v 0.00000083 2.01116657 -1.01908469
v 0.00000083 2.3347969 -0.85343843
v -0.73223549 1.18856942 2.92669105
v 0.00000095 1.1647861 3.08035326
v -1.41551649 1.12300324 2.46685266
v -1.355502 2.30973577 0.27796018
v -1.53753805 1.97497654 0.27235758
v -1.3281486 1.61106741 -0.43752729
v -1.63662958 1.60326254 0.29123228
v -1.26303362 1.97926068 -0.39462575
v -1.72878837 1.13053 1.85400664
v -1.84156227 1.11712396 1.13530302
v -0.98462277 2.36939549 2.03219986
v -0.68154811 2.00272679 -0.8572396
v -1.73064672 1.10234808 0.31038081
v -0.61838829 2.33552622 -0.72955077
v -1.12283325 2.3068428 -0.29549968
v -1.38191318 1.110803 -0.51118612
v 1.84156763 1.11712396 1.1352992
v 0.53195083 2.36875295 2.35118675
v 0.6032983 1.97735238 2.58424186
v -1.24745452 2.59408474 0.82960832
v -1.13994455 2.61974406 1.38137757
v 0.85558909 2.63052034 1.8218106
v 1.13994574 2.61974358 1.38137614
v 0.97348427 2.56294322 -0.20263403
v 0.53029763 2.5703206 -0.547118
v -0.46133482 2.63782215 2.10982418
v 0.00000083 2.64264464 2.21982002
v 1.24745631 2.59408783 0.8296082
v 1.17135977 2.57019329 0.2836495
v 0.00000083 2.57376003 -0.68375968
v -1.1713581 2.57019329 0.2836495
v -0.85558801 2.63052296 1.82181203
v -0.53029751 2.57031917 -0.54711824
v -0.97348266 2.56294083 -0.20263332
v 0.46133625 2.63782215 2.10982418
v 0.93661832 -1.11886358 -2.18963861
v 1.60412287 -0.98115754 -1.01159119
v 1.76308035 -0.86910629 -1.13870096
v 1.01841056 -0.9996612 -2.3307867
v 1.99352967 -0.97161936 0.36237227
v 2.19759893 -0.86225295 0.29097551
v -0.93661606 -1.11886215 -2.18965053
v 0.00000095 -1.15437936 -2.6189289
v 0.00000083 -1.03424763 -2.77593421
v -1.01840865 -0.99966764 -2.33076715
v -1.99352538 -0.97161817 0.36237227
v -2.19759678 -0.86225295 0.29097408
v -1.60411989 -0.98115754 -1.01159048
v -1.76307833 -0.86910224 -1.13870084
v 0.78489011 0.51130294 -1.37635862
v 1.41928041 0.52138114 -0.63474571
v 1.57701504 0.61682939 -0.76321089
v 0.8692258 0.61120772 -1.53686559
v 1.79195046 0.52397441 0.32367849
v 2.00138592 0.61720442 0.25285983
v -0.78488773 0.51130294 -1.37635886
v 0.00000083 0.50600051 -1.64021968
v 0.00000083 0.60654687 -1.80955338
v -0.86922442 0.61120414 -1.53686451
v -1.79194772 0.52397847 0.32368028
v -2.00138402 0.61720538 0.25285959
v -1.41927838 0.52138233 -0.63474518
v -1.57701289 0.61683082 -0.76321011
v 0.83821159 -0.2496469 -1.703709
v 1.47644484 -0.1543405 -0.80568885
v 1.63747537 -0.04422187 -0.92822051
v 0.92316556 -0.13467574 -1.84455239
v 1.86156475 -0.13463997 0.33155489
v 2.07081246 -0.02743935 0.26072037
v -0.83820951 -0.24964976 -1.70370948
v 0.00000083 -0.28832149 -2.01433348
v 0.00000083 -0.17356658 -2.16166114
v -0.92316383 -0.13466906 -1.84455204
v -1.86155939 -0.13463878 0.33155536
v -2.07081103 -0.02744126 0.26072031
v -1.47644114 -0.15433979 -0.80568856
v -1.63747525 -0.04421997 -0.92822057
v 1.97596883 -2.25880098 -1.39993381
v 1.89451026 -2.31531477 -1.31964516
v -1.89450681 -2.31530475 -1.31964564
v -1.9759643 -2.25880479 -1.39993679
v 1.12871241 -2.2096405 -3.09311533
v 1.08745336 -2.26928663 -2.99895811
v -1.08744955 -2.2692914 -2.99895715
v -1.12870955 -2.20963668 -3.0931158
v 0.00000107 -2.25811052 -3.72264003
v 0.00000023 -2.1990838 -3.82916307
v 1.55262029 1.39432203 -0.64540576
v 0.84152072 1.42752289 -1.24969399
v 1.93462586 1.384184 0.20234441
v 0.00000083 1.43865382 -1.45828723
v -0.84151887 1.42751908 -1.24969363
v 1.45018935 1.36384654 2.62971067
v 1.89161658 1.39798867 1.95164191
v 0.78728365 1.30627787 3.07633781
v -0.78728032 1.30627858 3.07631921
v 0.00000107 1.27155911 3.23875665
v -1.45018565 1.36383545 2.6297059
v -1.89161431 1.39797878 1.95163285
v -2.05458998 1.39366662 1.11771202
v -1.93462193 1.38418483 0.20234334
v -1.55261802 1.39432776 -0.64540606
v 2.05459189 1.39366638 1.11770665
v 0.1248815 3.45410728 0.90299749
v 0.00000035 3.45524644 0.93179905
v -0.30759322 3.42571401 0.41577696
v -0.24327409 3.41712141 0.30112457
v 0.24327385 3.41712188 0.30112457
v 0.30759573 3.42571401 0.4157772
v 0.22394299 3.44785237 0.8142457
v -0.13313543 3.41318559 0.21371257
v 0.00000035 3.41145944 0.18388533
v -0.12488067 3.45410728 0.90299749
v -0.22394299 3.44785189 0.8142457
v -0.29611349 3.44188022 0.69545102
v 0.3253256 3.43399763 0.55563283
v 0.29611432 3.4418931 0.69545137
v -0.32532584 3.43399715 0.55563259
v 0.13313603 3.41318559 0.21371257
v 0.21421778 3.42377233 1.19257116
v 0.00000083 3.42559504 1.24074006
v -0.50705969 3.38234257 0.35537219
v -0.39906251 3.36960792 0.15957403
v 0.39906048 3.36960792 0.15957403
v 0.50706112 3.38234257 0.35537219
v 0.3838799 3.41756367 1.0365225
v -0.22499775 3.36033415 0.00174784
v 0.00000023 3.35700869 -0.04837864
v -0.21421706 3.42377233 1.19257116
v -0.38387894 3.41756391 1.03652095
v -0.49744677 3.40827131 0.82613384
v 0.55068075 3.39616894 0.58763492
v 0.49744808 3.40827131 0.82613384
v -0.55068075 3.3961811 0.5876404
v 0.22499823 3.36033368 0.00174796
v 0.27521717 3.39261674 1.39108979
v 0.00000083 3.39523744 1.45067727
v -0.65066129 3.33866858 0.32299983
v -0.51476657 3.32150101 0.07424664
v 0.51476597 3.32150101 0.07424664
v 0.650662 3.33867001 0.32299983
v 0.49872481 3.38545227 1.20116603
v -0.28521549 3.31082677 -0.11384701
v 0.00000083 3.30646157 -0.18078702
v -0.27521669 3.39261674 1.39108979
v -0.49872446 3.38545227 1.20116555
v -0.64383125 3.37366676 0.92914784
v 0.70186096 3.35762381 0.62004268
v 0.64383232 3.37366581 0.92914736
v -0.70185953 3.35762381 0.62004268
v 0.28521609 3.3108263 -0.11384838
v 0.30472862 3.37210083 1.48846709
v 0.00000083 3.37531924 1.55237615
v -0.77783531 3.28635954 0.29539215
v -0.62470001 3.26364755 -0.00007426
v 0.62470036 3.26364898 -0.00007742
v 0.7778359 3.28635954 0.29539215
v 0.56536626 3.35976028 1.29387652
v -0.33942985 3.25784921 -0.20802199
v 0.00000071 3.25661039 -0.28582698
v -0.30472707 3.3721013 1.48846709
v -0.56536591 3.35976028 1.29387652
v -0.74669277 3.34003472 0.99758422
v 0.8223598 3.31669855 0.6437031
v 0.74669462 3.34003281 0.99758291
v -0.82235854 3.31670427 0.64370167
v 0.33943116 3.2578454 -0.20802208
v 1.91424679 0.54211044 1.14418053
v 2.1484301 0.63487553 1.17285752
v -2.14842557 0.63487386 1.17285537
v -1.91424679 0.54211139 1.14418053
v 1.90920686 0.48303961 1.13704621
v 2.14477562 0.57721519 1.16598022
v -2.14477133 0.5772171 1.16598045
v -1.90920662 0.483042 1.13704669
v -1.09666466 -1.85636711 -2.87188386
v -1.91435802 -1.85427045 -1.32249903
v -1.81036019 -1.92684888 -1.22861003
v -1.04360103 -1.93357992 -2.76363658
v -2.40976738 -2.01269531 0.27467376
v -2.27851724 -2.08465385 0.32292115
v 1.04360365 -1.93357944 -2.76363611
v 1.81036305 -1.92685413 -1.22860705
v 1.91435992 -1.85426664 -1.32249629
v 1.09666657 -1.85635852 -2.87187862
v 2.2785201 -2.08465671 0.32292342
v 2.40977215 -2.01268386 0.27467513
v 0.00000095 -1.93259239 -3.40679454
v 0.00000083 -1.85517263 -3.52896499
v -1.05735611 -1.42932415 -2.5966773
v -1.83933413 -1.36077833 -1.22896266
v -1.70780146 -1.45310449 -1.11846089
v -0.98984539 -1.52753305 -2.47193479
v -2.30495047 -1.43587112 0.28380596
v -2.13725733 -1.52656793 0.34364819
v 0.98984801 -1.52753686 -2.4719491
v 1.70780384 -1.45310115 -1.11846089
v 1.83933699 -1.36078023 -1.22896146
v 1.05735802 -1.42932176 -2.59667968
v 2.13726067 -1.52656602 0.34364938
v 2.30495262 -1.43587303 0.28380572
v 0.00000095 -1.54469633 -3.00844287
v 0.00000083 -1.44562101 -3.14847326
v 0.88598781 -0.66965985 -1.91109514
v 1.53734815 -0.5419662 -0.89992982
v 1.69710719 -0.43090486 -1.02455306
v 0.96932858 -0.55295205 -2.05168485
v 1.92553663 -0.52463913 0.34458291
v 2.13216924 -0.41635799 0.27354764
v -0.88598573 -0.66966104 -1.91109573
v 0.00000083 -0.71716499 -2.26262712
v 0.00000083 -0.60032677 -2.41384792
v -0.96932679 -0.55294346 -2.05168604
v -1.92553031 -0.52463913 0.34458315
v -1.53734469 -0.54196429 -0.89993
v -1.69710493 -0.43090391 -1.02455353
v -2.13216733 -0.41635608 0.27354741
v 0.80497926 0.15958571 -1.53608059
v 1.43555247 0.20684981 -0.71740448
v 1.59703016 0.30900502 -0.84290087
v 0.89069014 0.26601362 -1.68666005
v 1.81748902 0.21582984 0.32530701
v 2.02858281 0.31544041 0.25448328
v -0.80497574 0.15959262 -1.53608095
v 0.00000083 0.14171218 -1.82619762
v 0.00000083 0.24802684 -1.98404729
v -0.89068818 0.26601648 -1.68665993
v -1.81748628 0.2158308 0.32530748
v -1.43554854 0.206851 -0.71740436
v -1.59702897 0.30900621 -0.84290134
v -2.02858042 0.31543874 0.25448221
v -1.90780377 0.51523518 1.13888084
v -2.14335012 0.60860562 1.16768384
v 1.90780496 0.51523542 1.13888037
v 2.14335298 0.60860514 1.1676836
v 0.88704603 1.99433159 -0.71866428
v 0.92745596 1.62888121 -0.80117464
v 1.05009961 1.77153945 -1.00051879
v 1.00031662 2.11232495 -0.91165125
v 1.47489464 1.97427225 0.06707882
v 1.56158864 1.60418689 0.06651067
v 1.76911997 1.74386024 -0.05464786
v 1.67227327 2.09866571 -0.04108059
v 0.95794117 1.12428367 -0.93226254
v 1.07775449 1.4159367 -1.06879055
v -0.53770196 2.96193671 0.39340424
v -0.16995704 3.03556132 0.55118739
v -0.89882934 3.16860222 0.15303146
v -0.73916631 3.27864432 0.20640337
v -0.89879328 2.78068685 0.21050328
v -1.11133718 2.96100616 0.08924019
v 1.6396296 1.10436856 0.05812984
v 1.83709132 1.38590121 -0.05888301
v 0.16995775 3.03555989 0.55118858
v 0.53770291 2.96193528 0.39340436
v 0.89882987 3.16860175 0.15303134
v 0.73916667 3.27864527 0.20640301
v 0.89879429 2.78069806 0.21050083
v 1.11133861 2.96100592 0.08923983
v 0.80152869 2.32577967 -0.59956908
v 0.90590614 2.455024 -0.77727609
v -0.5509994 2.77392888 -0.24878129
v -0.32691657 2.95880293 0.12975871
v -0.5401895 3.15048837 -0.2746258
v -0.67847824 2.93489718 -0.45889949
v 0.55100143 2.7739284 -0.24877908
v 0.32691717 2.95880341 0.12975823
v 0.54019177 3.1504879 -0.27462568
v 0.67847979 2.93489837 -0.45889821
v -1.47489249 1.97426414 0.06708431
v -1.56158649 1.60418796 0.06651103
v -1.7691183 1.74386167 -0.05464446
v -1.67227137 2.09866523 -0.04107958
v -0.88704365 1.99433136 -0.71866112
v -0.92745363 1.62889456 -0.80117529
v -1.05009496 1.77153658 -1.00051927
v -1.00031447 2.11232113 -0.91165208
v -0.80152732 2.32578253 -0.59956848
v -0.90590471 2.4550271 -0.7772817
v -0.43830061 3.2592864 -0.1457445
v -1.63962781 1.1043719 0.05813241
v -1.83708894 1.38590359 -0.05888128
v -0.95793783 1.12428236 -0.93226349
v -1.07775282 1.41593861 -1.06879162
v 1.3051927 2.30675888 0.10200005
v 1.48397159 2.45012092 0.00717246
v 0.43829786 3.25928688 -0.14574188
v -1.3051908 2.30675458 0.10200262
v -1.48397028 2.45012092 0.00717353
v 0.69113963 2.56728625 -0.44400054
v 0.79681718 2.70917248 -0.61715757
v -0.6911382 2.56728696 -0.44400107
v -0.79681515 2.70917081 -0.61715954
v 1.12873673 2.56620383 0.1350488
v 1.30361568 2.72538137 0.04398238
v -1.12873566 2.56620383 0.13505226
v -1.30361449 2.72538018 0.0439822
v 0.98378717 0.51526904 -1.15701925
v 1.07632792 1.11894702 -1.12803089
v 1.08925151 0.61361885 -1.30804514
v 1.68893849 0.52376127 0.03132242
v 1.85712826 1.09622001 -0.04531651
v 1.88294339 0.61755251 -0.05729532
v -1.6889373 0.52376365 0.03132474
v -1.85712683 1.09622502 -0.04531562
v -1.88294184 0.61755394 -0.05729389
v -0.9837836 0.51527285 -1.15702033
v -1.07632434 1.118945 -1.12803089
v -1.08924937 0.6136198 -1.30804503
v -1.24168229 -0.95540571 -1.98139786
v -1.29244363 -1.40332508 -2.194839
v -1.13667011 -1.07271409 -1.84398126
v -1.20569479 -1.50017595 -2.07369613
v -2.06530523 -0.86163783 -0.14182627
v -2.16382312 -1.41154241 -0.17252802
v -1.87475943 -0.97174048 -0.05338472
v -2.00699448 -1.50268125 -0.09721672
v 0.99766886 0.17576098 -1.2948662
v 1.10608315 0.28070306 -1.43798124
v 1.70772481 0.21512961 0.00854849
v 1.90465998 0.31536436 -0.07906633
v -1.70772254 0.21513176 0.00854986
v -1.90465879 0.31536626 -0.07906621
v -0.99766373 0.17576026 -1.29485917
v -1.10608053 0.28070402 -1.43798315
v 1.03052258 -0.21836996 -1.43929898
v 1.08115923 -0.6286695 -1.61257982
v 1.13851308 -0.10514879 -1.57455611
v 1.18752348 -0.51363754 -1.74865114
v 1.74800109 -0.13709497 -0.013727
v 1.80741095 -0.52693295 -0.0325973
v 1.94341349 -0.02923536 -0.1005612
v 2.00015091 -0.41795134 -0.12009376
v -1.74799692 -0.13709425 -0.0137254
v -1.80740833 -0.5269382 -0.03259462
v -1.94341206 -0.0292356 -0.10056006
v -2.00014948 -0.41795229 -0.12009257
v -1.03052032 -0.21836948 -1.43930757
v -1.08115613 -0.62867093 -1.61258518
v -1.1385113 -0.10514926 -1.57455122
v -1.18752193 -0.51362848 -1.74864983
v 1.13667273 -1.0727148 -1.84396088
v 1.20569896 -1.50017166 -2.07371282
v 1.24168539 -0.95541095 -1.98139536
v 1.29244685 -1.4033246 -2.19486188
v 1.8747642 -0.97173905 -0.05338746
v 2.00699639 -1.50267982 -0.09721881
v 2.06530642 -0.86163783 -0.14182877
v 2.16382622 -1.41154003 -0.17252898
v 2.33884978 -2.41679 -0.23395192
v 2.24338841 -2.47344446 -0.18267923
v -2.33884763 -2.41679573 -0.23395222
v -2.24338698 -2.47341632 -0.18268084
v 1.38300907 -2.22223186 -2.58843946
v 1.32967627 -2.28101682 -2.49832916
v -1.38300502 -2.22222805 -2.58844137
v -1.32967102 -2.28102064 -2.49835968
v -0.08071637 3.43925333 0.46855032
v -0.28910672 3.4229896 0.38138008
v 0.08071661 3.4392538 0.46855032
v 0.28910732 3.42299389 0.38137841
v -0.1691184 3.4144144 0.23992562
v 0.169119 3.41441488 0.2399255
v -0.47775876 3.3781383 0.29660213
v 0.4777596 3.3781383 0.29660213
v -0.2837342 3.36300849 0.04905951
v 0.28373563 3.36300754 0.04905951
v -0.61463272 3.33291935 0.24825125
v 0.61463207 3.33291554 0.24825143
v -0.36334359 3.31386041 -0.05748099
v 0.36334431 3.31386041 -0.05748075
v -1.34253466 -1.85103225 -2.41419315
v -1.27415418 -1.92709732 -2.30987644
v -2.26055693 -1.96431255 -0.20546734
v -2.13749384 -2.03644371 -0.14330554
v 1.27415788 -1.92709732 -2.30989313
v 1.3425374 -1.8510375 -2.41418218
v 2.13749599 -2.03644371 -0.14330565
v 2.26055955 -1.96431112 -0.2054696
v -2.00839352 1.32961201 0.53812944
v 2.00839304 1.32961118 0.53812778
v -1.97590494 1.06522619 -0.03362488
v -2.06905627 1.04801058 0.52764976
v -2.07648563 1.02399122 1.0896269
v 2.07646632 1.02398574 1.08963275
v 2.06905269 1.04800319 0.52765119
v 1.97590518 1.06522882 -0.03362417
v -2.03075003 0.78087973 -0.03005969
v -2.11895012 0.77699422 0.5436486
v -2.11454105 0.76358103 1.12339222
v 2.11448621 0.76356554 1.12341046
v 2.11893868 0.77699017 0.54365217
v 2.03075122 0.7808783 -0.03005904
v -2.08325004 0.49688816 -0.01294857
v -2.15816283 0.50427293 0.56868636
v -2.14206552 0.5168569 1.18881416
v -2.01636147 0.48109388 1.7474066
v -1.81978666 0.4103291 2.17749023
v -1.55831933 0.35911393 2.51921796
v -1.23433256 0.38407373 2.84865427
v -0.85299289 0.48833823 3.17211151
v -0.43431162 0.61303925 3.44331932
v -0.00017464 0.67415189 3.54570341
v 0.43394458 0.63256621 3.44355344
v 0.8521986 0.51574754 3.17344331
v 1.23341393 0.40916562 2.85099887
v 1.55748784 0.37214922 2.52145814
v 1.81922924 0.41590213 2.17878675
v 2.01606464 0.48128151 1.74762284
v 2.14194345 0.51680326 1.18883824
v 2.15814495 0.50426745 0.56869137
v 2.08324933 0.49688506 -0.01294684
v -2.12910175 0.20700717 0.00464969
v -2.19274544 0.22170925 0.58838129
v -2.15671324 0.23797035 1.20077967
v -2.04844307 0.18964767 1.72303617
v -1.8577696 0.1157422 2.14230966
v -1.5967524 0.05681538 2.48187112
v -1.26864385 0.05615353 2.82911109
v -0.877626 0.11930108 3.19000148
v -0.44611525 0.19975853 3.50973272
v -0.00005483 0.24328064 3.62923097
v 0.44606602 0.21885061 3.50981521
v 0.87738263 0.14596176 3.19117307
v 1.268399 0.07998848 2.83088302
v 1.59652733 0.06911802 2.48375082
v 1.85758769 0.1205275 2.14334869
v 2.0483036 0.18974041 1.7232095
v 2.15659737 0.23789382 1.20082593
v 2.19272255 0.22169804 0.58838117
v 2.12910246 0.20700597 0.00465077
v -2.16697764 -0.09900546 0.00974822
v -2.22393751 -0.08334732 0.58516299
v -2.16996431 -0.06613564 1.18226897
v -2.05065202 -0.11303186 1.69360697
v -1.8650769 -0.18502402 2.10392284
v -1.60844934 -0.24957394 2.44284391
v -1.28250551 -0.28853225 2.81043338
v -0.88819932 -0.2906692 3.21031284
v -0.45083367 -0.28640627 3.58519983
v 0.00020301 -0.27247524 3.72430181
v 0.45137202 -0.26914143 3.5855441
v 0.88895601 -0.26687359 3.21163463
v 1.28330779 -0.26802587 2.81186771
v 1.60908389 -0.23941898 2.44423246
v 1.86538589 -0.181355 2.10460472
v 2.05072259 -0.11303067 1.69371998
v 2.16990184 -0.0661714 1.18231868
v 2.22391605 -0.08335948 0.58516967
v 2.16697764 -0.09900474 0.00974857
v -2.20193433 -0.42579937 -0.00344187
v -2.25681948 -0.41234064 0.55841553
v -2.17298603 -0.39852714 1.13629245
v -2.03136587 -0.44002151 1.64249503
v -1.83835506 -0.50067901 2.05520153
v -1.5847907 -0.56266236 2.39441108
v -1.2655282 -0.63413214 2.76223945
v -0.87451732 -0.70221138 3.16020202
v -0.44336009 -0.77524972 3.53836441
v 0.00037324 -0.79357314 3.67948913
v 0.44420802 -0.76167154 3.5395317
v 0.87583094 -0.68329501 3.16217374
v 1.266945 -0.61864399 2.7638669
v 1.58605253 -0.55508065 2.39547443
v 1.83905816 -0.49828887 2.05556821
v 2.03162288 -0.44006848 1.64256417
v 2.17298841 -0.3985393 1.13635075
v 2.25680303 -0.41234517 0.5584222
v 2.20193719 -0.42580103 -0.00344038
v -2.23861026 -0.77065587 -0.0355497
v -2.29078483 -0.76206111 0.50980126
v -2.16982173 -0.7591114 1.06175851
v -2.00026822 -0.79438066 1.56580555
v -1.79362177 -0.83726382 1.9898554
v -1.53957617 -0.89288806 2.33054542
v -1.23030042 -0.98188328 2.67083215
v -0.84719312 -1.10379552 3.01473283
v -0.42938053 -1.23331928 3.33212232
v 0.00043058 -1.28002262 3.45430898
v 0.43038308 -1.22380161 3.33418369
v 0.84867566 -1.09047126 3.01744985
v 1.23180759 -0.97194099 2.67282152
v 1.54087793 -0.88801288 2.33145427
v 1.79431939 -0.83609938 1.99004995
v 2.00053906 -0.79439163 1.56584632
v 2.16984701 -0.75910878 1.06180822
v 2.29077243 -0.76206111 0.50980627
v 2.23861169 -0.77065968 -0.03554981
v -2.28667354 -1.12447857 -0.08712673
v -2.33221888 -1.12075591 0.44346547
v -2.1801145 -1.12901496 0.96958696
v -1.99049341 -1.15927457 1.47263896
v -1.77350091 -1.18853759 1.90975558
v -1.51726937 -1.24622106 2.25250005
v -1.21422731 -1.35002708 2.55021476
v -0.83509534 -1.51630878 2.81177949
v -0.4232074 -1.67950248 3.03390073
v 0.00024521 -1.74766016 3.1206603
v 0.42377972 -1.67378759 3.03579998
v 0.83591622 -1.50828695 2.81422281
v 1.21509993 -1.34441661 2.55199146
v 1.51804554 -1.24350261 2.2532072
v 1.7739247 -1.18807745 1.90988767
v 1.99066722 -1.15925407 1.47267115
v 2.18012905 -1.12900614 0.96962022
v 2.33221292 -1.12075471 0.44346869
v 2.28667378 -1.12448024 -0.08712619
v -2.34657669 -1.47020435 -0.15418499
v -2.38685798 -1.47153949 0.36675322
v -2.22455215 -1.48553419 0.8744086
v -2.03296828 -1.5125122 1.37732136
v -1.81694161 -1.53995227 1.82561981
v -1.56303107 -1.61535978 2.17500972
v -1.25934982 -1.74494504 2.44733524
v -0.87116092 -1.94950962 2.65415287
v -0.44404947 -2.13193082 2.81021356
v 0.00007259 -2.21610927 2.86920261
v 0.44422555 -2.12901258 2.81142234
v 0.87140214 -1.94556284 2.65568542
v 1.25959944 -1.74221038 2.4484148
v 1.56324005 -1.61415576 2.17540645
v 1.81705689 -1.53977823 1.82571256
v 2.03300738 -1.51248884 1.37733876
v 2.22454857 -1.48553133 0.87442982
v 2.38685441 -1.4715352 0.36675345
v 2.34657692 -1.47020673 -0.15418452
v -2.41737055 -1.79378271 -0.22491771
v -2.45507407 -1.79877138 0.29043316
v -2.31264591 -1.80939483 0.79074943
v -2.14165806 -1.83411073 1.29389441
v -1.93685376 -1.87165212 1.75034177
v -1.68472671 -1.9777069 2.11088085
v -1.36684358 -2.14544916 2.38470172
v -0.9527325 -2.38544607 2.58022594
v -0.48890292 -2.57980155 2.71857166
v -0.00006043 -2.67404937 2.76784229
v 0.48875653 -2.57856035 2.7189517
v 0.95257622 -2.38384056 2.58069944
v 1.36669075 -2.14433145 2.38504838
v 1.68461549 -1.97724485 2.11102533
v 1.93679237 -1.87158489 1.75039947
v 2.14163327 -1.83409071 1.29390084
v 2.31263732 -1.80939436 0.7907561
v 2.45507311 -1.79876995 0.2904334
v 2.41737318 -1.79377365 -0.22491878
v -2.48893141 -2.09739065 -0.28828698
v -2.53028535 -2.10383319 0.22314494
v -2.42522406 -2.1051836 0.72503244
v -2.2844758 -2.1273241 1.22934937
v -2.09366798 -2.17873287 1.69134795
v -1.842188 -2.31442499 2.06525421
v -1.50081443 -2.51906776 2.35846328
v -1.05408 -2.78611326 2.57509374
v -0.54302549 -2.99165821 2.7275958
v -0.00006175 -3.09101104 2.7790246
v 0.54287588 -2.99137258 2.72756052
v 1.05390715 -2.78571605 2.57505416
v 1.50064146 -2.51874256 2.35846281
v 1.84206438 -2.31429767 2.06526136
v 2.09360337 -2.178689 1.69136369
v 2.28445053 -2.12732601 1.2293508
v 2.42521643 -2.10519123 0.72503078
v 2.5302844 -2.10383319 0.22314137
v 2.48893427 -2.09738969 -0.28828707
v -2.60552334 -2.39628982 0.17093598
v -2.52955651 -2.39033556 0.67646229
v -2.40967798 -2.41080045 1.18184709
v -2.22491431 -2.47139978 1.64635074
v -1.96894264 -2.62509298 2.02894926
v -1.60404062 -2.85228252 2.33622074
v -1.13093972 -3.13226747 2.57243013
v -0.58237469 -3.34472894 2.74129676
v -0.00002872 -3.44415664 2.79857921
v 0.58230912 -3.34468746 2.74124765
v 1.13086342 -3.13220691 2.572371
v 1.60396719 -2.85224342 2.33618211
v 1.96888494 -2.62508297 2.02893209
v 2.22488355 -2.47139453 1.64635479
v 2.40966463 -2.41080427 1.18184757
v 2.52955436 -2.3903346 0.67645967
v 2.60552358 -2.39628934 0.17093777
v -2.14171814 1.3577485 0.54219937
v -2.20095324 1.07652461 0.53291702
v -2.10777282 1.09381997 -0.03732025
v -2.20822525 1.05078578 1.10208916
v 2.14171791 1.35774779 0.5422008
v 2.20094895 1.07652616 0.53291761
v 2.2082057 1.05078148 1.10209357
v 2.1077733 1.09382164 -0.03732138
v -2.24920082 0.80579543 0.54997742
v -2.16170406 0.80946779 -0.03356158
v -2.24540329 0.79031419 1.13670158
v 2.24919271 0.8057909 0.54998171
v 2.24534773 0.7902956 1.13671934
v 2.16170477 0.80946922 -0.03356134
v -2.28720188 0.53363347 0.57624781
v -2.21397066 0.52575635 -0.01655393
v -2.27194595 0.54279351 1.20990717
v 2.28718423 0.53362941 0.57624828
v 2.27182936 0.54273796 1.20993149
v 2.21396946 0.52575492 -0.01655447
v -2.32100176 0.25141334 0.59618294
v -2.25973486 0.23603248 0.00055426
v -2.28432226 0.26386714 1.22760391
v -2.14307308 0.50205111 1.78831446
v -2.1737132 0.21108937 1.7666701
v -1.93931233 0.42562246 2.23483562
v -1.9760766 0.13144445 2.2019658
v -1.66708087 0.36718964 2.59125471
v -1.70479261 0.06530427 2.55363941
v -1.32640254 0.38477301 2.93532228
v -1.36036789 0.05788922 2.91300916
v -0.92044591 0.48230624 3.27181196
v -0.94531405 0.11522698 3.28427553
v -0.46993541 0.6028366 3.55280542
v -0.48211371 0.19219327 3.61250925
v -0.00018644 0.66240429 3.65885114
v -0.00005996 0.23417925 3.73562002
v 0.46952271 0.62230157 3.55312299
v 0.48202967 0.21115708 3.61278486
v 0.91961658 0.50962352 3.27330732
v 0.94503146 0.14171314 3.28570604
v 1.32558453 0.4098227 2.93770504
v 1.36020112 0.08161664 2.91487646
v 1.66639018 0.38023328 2.59337472
v 1.70467913 0.07754826 2.55543851
v 1.9388473 0.43122649 2.23595619
v 1.97597003 0.1362555 2.2028532
v 2.14280915 0.50225281 1.78844201
v 2.17358803 0.21121001 1.76676738
v 2.28421092 0.26381111 1.22764945
v 2.32098007 0.25140428 0.59619104
v 2.25973439 0.23602938 0.00055509
v -2.35217213 -0.05387187 0.59198975
v -2.29773569 -0.07015132 0.00478392
v -2.29804682 -0.04017353 1.20943629
v -2.17558002 -0.09156131 1.73872554
v -1.98240208 -0.16974782 2.16526174
v -1.71546459 -0.24129176 2.51497316
v -1.37322568 -0.28704142 2.89339399
v -0.95533055 -0.294178 3.30264997
v -0.48650276 -0.29313612 3.68593788
v 0.00019609 -0.28058219 3.82916307
v 0.48700261 -0.27602005 3.6864686
v 0.95602983 -0.27065706 3.30422735
v 1.37406873 -0.26671242 2.8949294
v 1.71617853 -0.23122429 2.51630878
v 1.98276853 -0.16607189 2.16584491
v 2.17565131 -0.09154963 1.7387911
v 2.29798007 -0.04020285 1.20951211
v 2.35214638 -0.05388283 0.59199738
v 2.29773569 -0.07015276 0.00478506
v -2.38569927 -0.38345456 0.56322825
v -2.3328216 -0.39729142 -0.00938916
v -2.30295634 -0.3729043 1.16143047
v -2.15778827 -0.41899919 1.68620622
v -1.95627808 -0.48639345 2.11615085
v -1.69086372 -0.55485439 2.46748924
v -1.35447812 -0.63293981 2.84774112
v -0.93988966 -0.70587492 3.25677347
v -0.47803938 -0.78340148 3.64471721
v 0.00037705 -0.80349373 3.79083967
v 0.47887694 -0.76991128 3.64596223
v 0.94119334 -0.68715858 3.25881481
v 1.35595405 -0.61761093 2.84934902
v 1.69222426 -0.54736805 2.46846914
v 1.95703554 -0.48403787 2.11641168
v 2.15805411 -0.41903185 1.68624293
v 2.30295825 -0.37290048 1.16148757
v 2.38567924 -0.38346028 0.56323468
v 2.33282232 -0.39728903 -0.00938749
v -2.42024278 -0.73420596 0.51306188
v -2.36960029 -0.74254608 -0.04231017
v -2.30076909 -0.73427939 1.08511292
v -2.12636828 -0.77443981 1.60843265
v -1.91022658 -0.82402181 2.05113601
v -1.64262247 -0.88525843 2.40638113
v -1.31606078 -0.98045945 2.76163148
v -0.90963155 -1.10775995 3.11901617
v -0.46252667 -1.24377775 3.44708299
v 0.00044095 -1.2928276 3.5748167
v 0.46353495 -1.23436355 3.44907712
v 0.91113442 -1.09462928 3.1216402
v 1.3176316 -0.97070384 2.7634983
v 1.64401948 -0.88052773 2.40715646
v 1.91097533 -0.82290864 2.05122661
v 2.12665653 -0.77445602 1.60845434
v 2.30079627 -0.73427271 1.08516454
v 2.42022967 -0.73419642 0.51306593
v 2.3696022 -0.74254894 -0.04230952
v -2.46197271 -1.09358596 0.44607663
v -2.41775965 -1.09648227 -0.09437769
v -2.31063246 -1.10529327 0.99221003
v -2.11454606 -1.14058208 1.51532065
v -1.88677632 -1.17544889 1.97276437
v -1.61532318 -1.23736476 2.33245182
v -1.29506015 -1.34614563 2.64703559
v -0.8932408 -1.5182867 2.92288017
v -0.45413458 -1.68992996 3.15523052
v 0.00025773 -1.76100969 3.24750757
v 0.45473539 -1.68428134 3.15705919
v 0.89411258 -1.51042366 2.92522001
v 1.2960267 -1.34068822 2.64867782
v 1.61620366 -1.23474836 2.33304119
v 1.88725364 -1.17504739 1.97283017
v 2.11474013 -1.14056158 1.51533973
v 2.31065201 -1.1052854 0.9922415
v 2.46196675 -1.09358763 0.44607853
v 2.41776418 -1.09646797 -0.09437865
v -2.51716542 -1.4446125 0.36956286
v -2.47800827 -1.44209766 -0.16159999
v -2.35399532 -1.46242523 0.89746129
v -2.15467262 -1.4942193 1.42116081
v -1.92669546 -1.52560377 1.8909167
v -1.6566081 -1.60356712 2.25841045
v -1.3358426 -1.73636961 2.5476489
v -0.92573601 -1.94737196 2.76684522
v -0.47312128 -2.13900184 2.930655
v 0.00008177 -2.22674608 2.99360942
v 0.47332418 -2.13613414 2.93182802
v 0.92602008 -1.94351196 2.7683134
v 1.33616495 -1.73376321 2.54864215
v 1.65688681 -1.60245323 2.2587533
v 1.92684733 -1.52546167 1.89097297
v 2.15472698 -1.49420261 1.4211744
v 2.3539927 -1.46242475 0.8974775
v 2.51716399 -1.4446125 0.36956381
v 2.47800636 -1.44209861 -0.16159987
v -2.58627462 -1.77137517 0.29352152
v -2.54931592 -1.76533222 -0.23243248
v -2.44182539 -1.78607177 0.81465959
v -2.26257991 -1.81508207 1.33937323
v -2.04486227 -1.85489273 1.8177644
v -1.77601647 -1.96229124 2.19661235
v -1.44071424 -2.13206768 2.4861598
v -1.00498127 -2.37928247 2.69191408
v -0.51665842 -2.58320426 2.83636713
v -0.00005483 -2.6818819 2.88822698
v 0.51653087 -2.58195495 2.83676385
v 1.00485849 -2.37770891 2.6923933
v 1.44060897 -2.13099145 2.48650169
v 1.77594983 -1.96191167 2.19673633
v 2.0448296 -1.85481071 1.81781041
v 2.26256465 -1.81507635 1.33938086
v 2.44181847 -1.78606653 0.81466591
v 2.58627486 -1.77137708 0.29352271
v 2.54931902 -1.76533222 -0.23243093
v -2.66287827 -2.07599973 0.2265861
v -2.62150716 -2.06857538 -0.2958129
v -2.55493998 -2.08130645 0.74990236
v -2.40622139 -2.10798263 1.27583539
v -2.20260572 -2.16210317 1.759081
v -1.93469131 -2.30068874 2.15084362
v -1.5751065 -2.508358 2.45865249
v -1.10618186 -2.78252792 2.68451356
v -0.57043898 -2.99569749 2.84225034
v -0.0000602 -3.09872007 2.89536714
v 0.57029485 -2.995368 2.84222888
v 1.10602521 -2.78212118 2.68448066
v 1.57495307 -2.50805759 2.45865202
v 1.93458378 -2.30055332 2.15085554
v 2.20255184 -2.16206693 1.75909841
v 2.40620565 -2.10798645 1.27583682
v 2.55493664 -2.08128547 0.74989855
v 2.66288018 -2.07599878 0.22658538
v 2.62151145 -2.06857442 -0.29581302
v -2.73952007 -2.36803484 0.17437028
v -2.66125297 -2.36575174 0.7015661
v -2.53429818 -2.39105176 1.22832155
v -2.33748006 -2.45626354 1.71316683
v -2.06528019 -2.61519146 2.11333084
v -1.68089234 -2.84770155 2.43488788
v -1.1845994 -3.13443279 2.68124437
v -0.61020755 -3.35306739 2.85628128
v -0.00002837 -3.45524644 2.91556644
v 0.61014282 -3.35301542 2.85623645
v 1.18452143 -3.13439464 2.68120002
v 1.68081843 -2.8476324 2.4348464
v 2.06522679 -2.61516761 2.11332988
v 2.33745217 -2.45626306 1.71316874
v 2.53428745 -2.3910489 1.22831928
v 2.66124939 -2.36574792 0.7015661
v 2.73952007 -2.36803436 0.17436933
v -2.19882965 1.06978952 0.7690128
v -2.13741159 1.34717655 0.7750436
v -2.00437307 1.31953549 0.76779568
v -2.06705975 1.04182434 0.76059758
v 2.19881534 1.06978619 0.76901614
v 2.13740825 1.34717166 0.77504515
v 2.00436902 1.31953418 0.76780116
v 2.06704711 1.04182136 0.76060736
v -2.23977851 0.80481004 0.79526126
v -2.10938787 0.77666568 0.78582441
v 2.23974633 0.80479788 0.79527008
v 2.10935282 0.776654 0.7858318
v -2.27415776 0.54516768 0.84079802
v -2.14474034 0.5170114 0.82741439
v 2.27411079 0.54514217 0.84078776
v 2.14469218 0.51698374 0.82741344
v -2.29861998 0.26682519 0.86075365
v -2.17027592 0.23870158 0.84518086
v 2.29856181 0.26680231 0.86076068
v 2.17021369 0.23866987 0.84518635
v -2.32540035 -0.03783178 0.84999716
v -2.19670343 -0.06593775 0.83486807
v 2.32534432 -0.03785777 0.85001862
v 2.19664669 -0.06595778 0.83489131
v -2.35121631 -0.36985659 0.81172668
v -2.22136712 -0.39757061 0.79857444
v 2.35117244 -0.36987447 0.81175482
v 2.22131967 -0.39758849 0.79860127
v -2.37477612 -0.72641325 0.74866116
v -2.24424886 -0.75320339 0.73710739
v 2.37475132 -0.72642684 0.74868691
v 2.24421858 -0.75321483 0.73713195
v -2.40541577 -1.09140443 0.66963768
v -2.27492928 -1.11727285 0.65877115
v 2.40539908 -1.09140873 0.66965329
v 2.27491045 -1.11727953 0.65878522
v -2.45592618 -1.44554805 0.58518588
v -2.32550811 -1.47093629 0.57406556
v 2.45591878 -1.44555139 0.58519065
v 2.32549834 -1.47093582 0.57407236
v -2.53090071 -1.77132892 0.5063728
v -2.39997863 -1.79689025 0.49483025
v 2.53089928 -1.77132844 0.50637424
v 2.39997458 -1.79688549 0.49483335
v -2.62083029 -2.0717802 0.4405266
v -2.48895859 -2.0977745 0.42840373
v 2.62082862 -2.07179832 0.44052827
v 2.48895573 -2.09775877 0.42840111
v -2.70866322 -2.36012172 0.38985335
v -2.57542491 -2.38672924 0.37760722
v 2.70866394 -2.36012172 0.38985335
v 2.57542491 -2.38673257 0.37760531
v -2.16543149 1.08093977 0.27992737
v -2.10945844 1.36877155 0.29668021
v -1.97641611 1.34040832 0.29617106
v -2.03355288 1.05222797 0.27843922
v 2.1654303 1.08093833 0.27992737
v 2.10945868 1.36876952 0.29668557
v 1.97641849 1.3404113 0.29617118
v 2.03355312 1.05222749 0.27843993
v -2.21783256 0.80280542 0.29003441
v -2.08743691 0.77387118 0.28787177
v 2.21783113 0.80279779 0.29003453
v 2.08743476 0.77386999 0.28787308
v -2.26249384 0.52389979 0.31115305
v -2.13298225 0.49440622 0.30837428
v 2.26249003 0.5238974 0.31115281
v 2.1329782 0.49440527 0.3083713
v -2.30051899 0.23680114 0.32938969
v -2.17159986 0.20701861 0.326756
v 2.3005166 0.23680162 0.32938683
v 2.17159581 0.20701479 0.32675695
v -2.33304381 -0.06982469 0.32951748
v -2.20419669 -0.09932947 0.32788431
v 2.33304095 -0.06982111 0.32951629
v 2.20419311 -0.09933233 0.32788467
v -2.3663907 -0.3981812 0.3089962
v -2.23727011 -0.42703509 0.30896389
v 2.36638784 -0.39818167 0.30899918
v 2.23726677 -0.42704153 0.30896627
v -2.40248656 -0.74499654 0.26924663
v -2.27307748 -0.77291846 0.27044683
v 2.40248441 -0.74499607 0.26924997
v 2.27307581 -0.77292251 0.27044951
v -2.4489243 -1.10019135 0.21141743
v -2.31931018 -1.12762665 0.21320271
v 2.44892501 -1.10018992 0.2114188
v 2.31930899 -1.12761688 0.21320337
v -2.50753808 -1.4475727 0.14065682
v -2.37734675 -1.47491216 0.14238631
v 2.50753951 -1.44757127 0.14065891
v 2.37734651 -1.47491216 0.14238655
v -2.57736277 -1.7723155 0.06724822
v -2.44626808 -1.80011844 0.06882602
v 2.57736659 -1.77231645 0.06724894
v 2.44626808 -1.80013084 0.0688284
v -2.65082335 -2.07629489 0.00231826
v -2.51867318 -2.10463619 0.0035845
v 2.65082526 -2.07629299 0.00231969
v 2.51867437 -2.10463857 0.00358557
v -2.72499632 -2.3662796 -0.04848474
v -2.59141111 -2.39489364 -0.04713302
v 2.72499823 -2.36628055 -0.0484848
v 2.59141635 -2.39490222 -0.04713124
g Group2237
f 117 427 428 114
f 16 32 429 430
f 121 120 119 118
f 50 51 6 7
f 123 431 432 122
f 15 31 433 434
f 127 126 125 124
f 113 104 88 97
f 131 130 129 128
f 52 53 12 13
f 135 134 133 132
f 9 25 26 10
f 114 428 435 136
f 32 279 436 429
f 138 127 124
f 104 113 343 344
f 138 140 437 438
f 111 439 440 346
f 140 142 441 437
f 109 439 442 93
f 122 432 443 143
f 31 281 444 433
f 138 445 446 144
f 106 447 448 348
f 145 147 449 446
f 103 447 450 87
f 151 150 149 148
f 19 282 283 18
f 153 116 427 451
f 54 452 430 17
f 157 156 155 154
f 28 284 285 29
f 159 158 126 127
f 101 113 97 85
f 163 162 161 160
f 112 108 92 96
f 165 157 154 164
f 27 286 284 28
f 169 168 167 166
f 105 110 94 89
f 139 141 453 454
f 111 455 456 95
f 166 167 171 170
f 110 98 82 94
f 175 174 173 172
f 107 100 84 91
f 113 101 349 343
f 177 176 142 140
f 99 109 93 83
f 179 135 132 178
f 8 24 25 9
f 160 161 181 180
f 108 102 86 92
f 144 146 174 175
f 106 107 91 90
f 183 134 135 182
f 56 57 9 10
f 115 151 148 137
f 33 280 282 19
f 124 125 168 169
f 104 105 89 88
f 138 163 160
f 108 112 350 351
f 185 123 122 184
f 14 30 31 15
f 187 123 185 186
f 58 59 14 15
f 120 179 178 188
f 7 23 24 8
f 119 120 188 189
f 6 22 23 7
f 191 190 116 153
f 60 54 17 3
f 132 133 193 192
f 42 41 192 193
f 25 287 288 26
f 178 132 192 194
f 24 289 287 25
f 118 119 196 195
f 51 61 5 6
f 186 185 130 131
f 59 52 13 14
f 180 181 457 458
f 102 459 460 86
f 199 461 462 197
f 4 20 463 464
f 188 178 194 200
f 23 290 289 24
f 189 188 200 201
f 22 291 290 23
f 202 179 120 121
f 62 50 7 8
f 203 465 466 150
f 2 18 467 468
f 198 189 201 204
f 21 292 291 22
f 172 173 158 159
f 100 101 85 84
f 116 190 151 115
f 17 33 19 3
f 206 199 465 469
f 63 470 468 4
f 130 185 184 156
f 13 29 30 14
f 129 130 156 157
f 12 28 29 13
f 110 105 352 353
f 138 438 454 163
f 112 455 471 350
f 182 135 179 202
f 57 62 8 9
f 170 171 176 177
f 98 99 83 82
f 138 166 170
f 98 110 353 354
f 138 175 172
f 100 107 355 356
f 197 462 472 207
f 20 293 473 463
f 205 203 190 191
f 64 60 3 2
f 138 177 140
f 109 99 357 345
f 190 203 150 151
f 3 19 18 2
f 150 466 474 149
f 18 283 475 467
f 138 160 180
f 102 108 351 358
f 196 119 189 198
f 5 21 22 6
f 133 165 164 193
f 43 42 193 164
f 26 288 286 27
f 184 122 143 208
f 30 294 281 31
f 138 144 175
f 107 106 348 355
f 128 129 210 209
f 53 65 11 12
f 152 117 431 476
f 55 477 434 16
f 210 129 157 165
f 11 27 28 12
f 134 210 165 133
f 10 26 27 11
f 156 184 208 155
f 29 285 294 30
f 138 124 169
f 105 104 344 352
f 138 180 458 445
f 103 459 478 347
f 138 172 159
f 101 100 356 349
f 138 170 177
f 99 98 354 357
f 195 196 461 479
f 61 480 464 5
f 209 210 134 183
f 65 56 10 11
f 212 121 118 211
f 66 67 51 50
f 214 131 128 213
f 68 69 53 52
f 216 153 451 481
f 70 482 452 54
f 218 183 182 217
f 72 73 57 56
f 220 187 186 219
f 74 75 59 58
f 221 191 153 216
f 76 70 54 60
f 211 118 195 222
f 67 77 61 51
f 219 186 131 214
f 75 68 52 59
f 223 202 121 212
f 78 66 50 62
f 225 206 469 483
f 79 484 470 63
f 217 182 202 223
f 73 78 62 57
f 224 205 191 221
f 80 76 60 64
f 213 128 209 226
f 69 81 65 53
f 215 152 476 485
f 71 486 477 55
f 222 195 479 487
f 77 488 480 61
f 226 209 183 218
f 81 72 56 65
f 171 212 211 176
f 82 83 67 66
f 173 214 213 158
f 84 85 69 68
f 181 216 481 457
f 86 460 482 70
f 125 218 217 168
f 88 89 73 72
f 146 220 219 174
f 90 91 75 74
f 161 221 216 181
f 92 86 70 76
f 176 211 222 142
f 83 93 77 67
f 174 219 214 173
f 91 84 68 75
f 167 223 212 171
f 94 82 66 78
f 141 225 483 453
f 95 456 484 79
f 168 217 223 167
f 89 94 78 73
f 162 224 221 161
f 96 92 76 80
f 158 213 226 126
f 85 97 81 69
f 147 215 485 449
f 87 450 486 71
f 142 222 487 441
f 93 442 488 77
f 126 226 218 125
f 97 88 72 81
f 136 435 489 242
f 49 490 491 244
f 143 443 492 245
f 48 493 494 243
f 148 149 247 248
f 34 35 249 250
f 137 148 248 241
f 35 49 244 249
f 207 472 495 253
f 37 496 497 252
f 149 474 498 247
f 36 499 500 254
f 240 501 502 382
f 233 503 504 384
f 238 505 506 385
f 239 507 508 383
f 242 489 509 410
f 244 491 510 412
f 245 492 511 413
f 243 494 512 411
f 248 247 415 416
f 250 249 417 418
f 241 248 416 409
f 249 244 412 417
f 253 495 513 420
f 252 497 514 422
f 247 498 515 415
f 254 500 516 421
f 256 517 518 396
f 258 519 520 398
f 259 521 522 399
f 257 523 524 397
f 262 261 401 402
f 264 263 403 404
f 255 262 402 395
f 263 258 398 403
f 267 525 526 406
f 266 527 528 408
f 261 529 530 401
f 268 531 532 407
f 228 533 534 388
f 230 535 536 390
f 231 537 538 391
f 229 539 540 389
f 234 233 384 393
f 236 235 394 381
f 227 234 393 387
f 235 230 390 394
f 270 269 541 542
f 251 362 423 419
f 362 361 424 423
f 361 252 422 424
f 266 265 366 365
f 274 273 545 546
f 360 359 425 426
f 359 245 413 425
f 271 272 547 548
f 246 360 426 414
f 364 363 259 260
f 275 276 278 277
f 204 201 362 251
f 201 38 361 362
f 277 278 273 274
f 38 37 252 361
f 46 208 359 360
f 279 48 490 436
f 281 47 493 444
f 282 35 34 283
f 284 44 45 285
f 286 43 44 284
f 280 49 35 282
f 287 41 42 288
f 289 40 41 287
f 290 39 40 289
f 291 38 39 290
f 292 37 38 291
f 293 36 496 473
f 283 34 499 475
f 288 42 43 286
f 294 46 47 281
f 285 45 46 294
f 43 164 154 44
f 40 194 192 41
f 44 154 155 45
f 39 200 194 40
f 45 155 208 46
f 38 201 200 39
f 260 259 399 400
f 238 237 405 408
f 232 231 391 392
f 208 143 245 359
f 47 46 360 246
f 159 127 138
f 138 169 166
f 295 1 296
f 297 1 549 550
f 551 1 300 552
f 301 1 295
f 302 1 303
f 304 1 305
f 549 1 302 553
f 305 1 306
f 307 1 308
f 309 1 297
f 303 1 310
f 300 1 307
f 296 1 304
f 310 1 551 554
f 308 1 301
f 306 1 309
f 312 311 295 296
f 314 555 550 298
f 316 556 552 300
f 311 317 301 295
f 319 318 302 303
f 321 320 304 305
f 318 557 553 302
f 322 321 305 306
f 324 323 307 308
f 313 325 309 297
f 326 319 303 310
f 323 316 300 307
f 320 312 296 304
f 315 558 554 299
f 317 324 308 301
f 325 322 306 309
f 328 327 311 312
f 330 559 555 314
f 332 560 556 316
f 327 333 317 311
f 335 334 318 319
f 337 336 320 321
f 334 561 557 318
f 338 337 321 322
f 340 339 323 324
f 329 341 325 313
f 342 335 319 326
f 339 332 316 323
f 336 328 312 320
f 331 562 558 315
f 333 340 324 317
f 341 338 322 325
f 344 343 327 328
f 346 440 559 330
f 348 448 560 332
f 343 349 333 327
f 351 350 334 335
f 353 352 336 337
f 350 471 561 334
f 354 353 337 338
f 356 355 339 340
f 345 357 341 329
f 358 351 335 342
f 355 348 332 339
f 352 344 328 336
f 347 478 562 331
f 349 356 340 333
f 357 354 338 341
f 368 563 547 272
f 370 564 548 275
f 369 566 544 271
f 374 567 546 270
f 376 568 545 273
f 375 570 541 269
f 379 370 275 277
f 367 380 278 276
f 373 379 277 274
f 380 376 273 278
f 371 372 386 385
f 382 502 563 368
f 384 504 564 370
f 385 506 565 371
f 383 508 566 369
f 388 534 567 374
f 390 536 568 376
f 391 538 569 377
f 389 540 570 375
f 393 384 370 379
f 381 394 380 367
f 387 393 379 373
f 394 390 376 380
f 392 391 377 378
f 385 386 237 238
f 396 518 533 228
f 398 520 535 230
f 399 522 537 231
f 397 524 539 229
f 402 401 233 234
f 404 403 235 236
f 395 402 234 227
f 403 398 230 235
f 406 526 507 239
f 408 528 505 238
f 401 530 503 233
f 407 532 501 240
f 400 399 231 232
f 408 405 265 266
f 410 509 517 256
f 412 510 519 258
f 413 511 521 259
f 411 512 523 257
f 416 415 261 262
f 418 417 263 264
f 409 416 262 255
f 417 412 258 263
f 420 513 525 267
f 422 514 527 266
f 415 515 529 261
f 421 516 531 268
f 419 423 366 265
f 423 424 365 366
f 424 422 266 365
f 426 425 363 364
f 425 413 259 363
f 414 426 364 260
f 427 116 115 428
f 430 429 33 17
f 431 117 114 432
f 434 433 32 16
f 428 115 137 435
f 429 436 280 33
f 437 139 438
f 439 109 345 440
f 437 441 141 139
f 439 111 95 442
f 432 114 136 443
f 433 444 279 32
f 445 145 446
f 447 103 347 448
f 446 449 146 144
f 447 106 90 450
f 451 427 117 152
f 452 55 16 430
f 454 453 162 163
f 455 112 96 456
f 458 457 147 145
f 459 103 87 460
f 461 196 198 462
f 464 463 21 5
f 465 199 197 466
f 468 467 20 4
f 469 465 203 205
f 470 64 2 468
f 438 139 454
f 455 111 346 471
f 462 198 204 472
f 463 473 292 21
f 466 197 207 474
f 467 475 293 20
f 476 431 123 187
f 477 58 15 434
f 458 145 445
f 459 102 358 478
f 479 461 199 206
f 480 63 4 464
f 481 451 152 215
f 482 71 55 452
f 483 469 205 224
f 484 80 64 470
f 485 476 187 220
f 486 74 58 477
f 487 479 206 225
f 488 79 63 480
f 457 481 215 147
f 460 87 71 482
f 453 483 224 162
f 456 96 80 484
f 449 485 220 146
f 450 90 74 486
f 441 487 225 141
f 442 95 79 488
f 435 137 241 489
f 490 48 243 491
f 443 136 242 492
f 493 47 246 494
f 472 204 251 495
f 496 36 254 497
f 474 207 253 498
f 499 34 250 500
f 501 236 381 502
f 503 239 383 504
f 505 240 382 506
f 507 237 386 508
f 489 241 409 509
f 491 243 411 510
f 492 242 410 511
f 494 246 414 512
f 495 251 419 513
f 497 254 421 514
f 498 253 420 515
f 500 250 418 516
f 517 255 395 518
f 519 257 397 520
f 521 256 396 522
f 523 260 400 524
f 525 265 405 526
f 527 268 407 528
f 529 267 406 530
f 531 264 404 532
f 533 227 387 534
f 535 229 389 536
f 537 228 388 538
f 539 232 392 540
f 544 543 272 271
f 546 545 269 270
f 548 547 276 275
f 436 490 49 280
f 444 493 48 279
f 473 496 37 292
f 475 499 36 293
f 549 298 550
f 299 551 552
f 298 549 553
f 551 299 554
f 555 313 297 550
f 556 315 299 552
f 557 314 298 553
f 558 326 310 554
f 559 329 313 555
f 560 331 315 556
f 561 330 314 557
f 562 342 326 558
f 440 345 329 559
f 448 347 331 560
f 471 346 330 561
f 478 358 342 562
f 563 367 276 547
f 564 369 271 548
f 565 368 272 543
f 567 373 274 546
f 568 375 269 545
f 569 374 270 542
f 502 381 367 563
f 504 383 369 564
f 506 382 368 565
f 508 386 372 566
f 534 387 373 567
f 536 389 375 568
f 538 388 374 569
f 540 392 378 570
f 518 395 227 533
f 520 397 229 535
f 522 396 228 537
f 524 400 232 539
f 526 405 237 507
f 528 407 240 505
f 530 406 239 503
f 532 404 236 501
f 509 409 255 517
f 510 411 257 519
f 511 410 256 521
f 512 414 260 523
f 513 419 265 525
f 514 421 268 527
f 515 420 267 529
f 516 418 264 531
f 377 542 541 378
f 371 543 544 372
f 378 541 570 570
f 565 565 543 371
f 542 377 569 569
f 566 566 372 544
g Group52743
f 571 1029 1028 773
f 773 774 975 976
f 571 977 978 574
f 572 981 980 777
f 777 778 1031 1032
f 572 1033 1034 577
f 775 782 1035 1027
f 573 579 782 775
f 573 1030 1036 579
f 774 781 983 975
f 581 575 776 783
f 574 978 984 580
f 779 785 985 979
f 576 582 785 779
f 576 982 986 582
f 778 784 1037 1031
f 584 578 780 786
f 577 1034 1038 583
f 782 788 1039 1035
f 579 585 788 782
f 579 1036 1040 585
f 781 787 987 983
f 587 581 783 789
f 580 984 988 586
f 785 791 989 985
f 582 601 791 785
f 582 986 990 601
f 784 790 1041 1037
f 603 584 786 792
f 583 1038 1042 602
f 788 794 1043 1039
f 585 604 794 788
f 585 1040 1044 604
f 787 793 991 987
f 586 988 992 605
f 789 795 797 796
f 588 587 789 796
f 587 588 607 606
f 796 797 799 798
f 589 588 796 798
f 588 589 608 607
f 798 799 801 800
f 590 589 798 800
f 589 590 609 608
f 800 801 803 802
f 591 590 800 802
f 590 591 610 609
f 802 803 805 804
f 592 591 802 804
f 591 592 611 610
f 804 805 807 806
f 593 592 804 806
f 592 593 612 611
f 806 807 809 808
f 594 593 806 808
f 593 594 613 612
f 808 809 811 810
f 595 594 808 810
f 594 595 614 613
f 810 811 813 812
f 596 595 810 812
f 595 596 615 614
f 812 813 815 814
f 597 596 812 814
f 596 597 616 615
f 814 815 817 816
f 598 597 814 816
f 597 598 617 616
f 816 817 819 818
f 599 598 816 818
f 598 599 618 617
f 818 819 821 820
f 600 599 818 820
f 599 600 619 618
f 820 821 822 791
f 601 600 820 791
f 600 601 620 619
f 791 822 993 989
f 601 990 994 620
f 790 823 1045 1041
f 622 603 792 824
f 602 1042 1046 621
f 794 826 1047 1043
f 604 623 826 794
f 604 1044 1048 623
f 793 825 995 991
f 605 992 996 624
f 795 827 828 797
f 606 607 626 625
f 797 828 829 799
f 607 608 627 626
f 799 829 830 801
f 608 609 628 627
f 801 830 831 803
f 609 610 629 628
f 803 831 832 805
f 610 611 630 629
f 805 832 833 807
f 611 612 631 630
f 807 833 834 809
f 612 613 632 631
f 809 834 835 811
f 613 614 633 632
f 811 835 836 813
f 614 615 634 633
f 813 836 837 815
f 615 616 635 634
f 815 837 838 817
f 616 617 636 635
f 817 838 839 819
f 617 618 637 636
f 819 839 840 821
f 618 619 638 637
f 821 840 841 822
f 619 620 639 638
f 822 841 997 993
f 620 994 998 639
f 823 842 1049 1045
f 641 622 824 843
f 621 1046 1050 640
f 826 845 1051 1047
f 623 642 845 826
f 623 1048 1052 642
f 825 844 999 995
f 624 996 1000 643
f 827 846 847 828
f 625 626 645 644
f 828 847 848 829
f 626 627 646 645
f 829 848 849 830
f 627 628 647 646
f 830 849 850 831
f 628 629 648 647
f 831 850 851 832
f 629 630 649 648
f 832 851 852 833
f 630 631 650 649
f 833 852 853 834
f 631 632 651 650
f 834 853 854 835
f 632 633 652 651
f 835 854 855 836
f 633 634 653 652
f 836 855 856 837
f 634 635 654 653
f 837 856 857 838
f 635 636 655 654
f 838 857 858 839
f 636 637 656 655
f 839 858 859 840
f 637 638 657 656
f 840 859 860 841
f 638 639 658 657
f 841 860 1001 997
f 639 998 1002 658
f 842 861 1053 1049
f 660 641 843 862
f 640 1050 1054 659
f 845 864 1055 1051
f 642 661 864 845
f 642 1052 1056 661
f 844 863 1003 999
f 643 1000 1004 662
f 846 865 866 847
f 644 645 664 663
f 847 866 867 848
f 645 646 665 664
f 848 867 868 849
f 646 647 666 665
f 849 868 869 850
f 647 648 667 666
f 850 869 870 851
f 648 649 668 667
f 851 870 871 852
f 649 650 669 668
f 852 871 872 853
f 650 651 670 669
f 853 872 873 854
f 651 652 671 670
f 854 873 874 855
f 652 653 672 671
f 855 874 875 856
f 653 654 673 672
f 856 875 876 857
f 654 655 674 673
f 857 876 877 858
f 655 656 675 674
f 858 877 878 859
f 656 657 676 675
f 859 878 879 860
f 657 658 677 676
f 860 879 1005 1001
f 658 1002 1006 677
f 861 880 1057 1053
f 679 660 862 881
f 659 1054 1058 678
f 864 883 1059 1055
f 661 680 883 864
f 661 1056 1060 680
f 863 882 1007 1003
f 662 1004 1008 681
f 865 884 885 866
f 663 664 683 682
f 866 885 886 867
f 664 665 684 683
f 867 886 887 868
f 665 666 685 684
f 868 887 888 869
f 666 667 686 685
f 869 888 889 870
f 667 668 687 686
f 870 889 890 871
f 668 669 688 687
f 871 890 891 872
f 669 670 689 688
f 872 891 892 873
f 670 671 690 689
f 873 892 893 874
f 671 672 691 690
f 874 893 894 875
f 672 673 692 691
f 875 894 895 876
f 673 674 693 692
f 876 895 896 877
f 674 675 694 693
f 877 896 897 878
f 675 676 695 694
f 878 897 898 879
f 676 677 696 695
f 879 898 1009 1005
f 677 1006 1010 696
f 880 899 1061 1057
f 698 679 881 900
f 678 1058 1062 697
f 883 902 1063 1059
f 680 699 902 883
f 680 1060 1064 699
f 882 901 1011 1007
f 681 1008 1012 700
f 884 903 904 885
f 682 683 702 701
f 885 904 905 886
f 683 684 703 702
f 886 905 906 887
f 684 685 704 703
f 887 906 907 888
f 685 686 705 704
f 888 907 908 889
f 686 687 706 705
f 889 908 909 890
f 687 688 707 706
f 890 909 910 891
f 688 689 708 707
f 891 910 911 892
f 689 690 709 708
f 892 911 912 893
f 690 691 710 709
f 893 912 913 894
f 691 692 711 710
f 894 913 914 895
f 692 693 712 711
f 895 914 915 896
f 693 694 713 712
f 896 915 916 897
f 694 695 714 713
f 897 916 917 898
f 695 696 715 714
f 898 917 1013 1009
f 696 1010 1014 715
f 899 918 1065 1061
f 717 698 900 919
f 697 1062 1066 716
f 902 921 1067 1063
f 699 718 921 902
f 699 1064 1068 718
f 901 920 1015 1011
f 700 1012 1016 719
f 903 922 923 904
f 701 702 721 720
f 904 923 924 905
f 702 703 722 721
f 905 924 925 906
f 703 704 723 722
f 906 925 926 907
f 704 705 724 723
f 907 926 927 908
f 705 706 725 724
f 908 927 928 909
f 706 707 726 725
f 909 928 929 910
f 707 708 727 726
f 910 929 930 911
f 708 709 728 727
f 911 930 931 912
f 709 710 729 728
f 912 931 932 913
f 710 711 730 729
f 913 932 933 914
f 711 712 731 730
f 914 933 934 915
f 712 713 732 731
f 915 934 935 916
f 713 714 733 732
f 916 935 936 917
f 714 715 734 733
f 917 936 1017 1013
f 715 1014 1018 734
f 918 937 1069 1065
f 736 717 919 938
f 716 1066 1070 735
f 921 940 1071 1067
f 718 737 940 921
f 718 1068 1072 737
f 920 939 1019 1015
f 719 1016 1020 738
f 922 941 942 923
f 720 721 740 739
f 923 942 943 924
f 721 722 741 740
f 924 943 944 925
f 722 723 742 741
f 925 944 945 926
f 723 724 743 742
f 926 945 946 927
f 724 725 744 743
f 927 946 947 928
f 725 726 745 744
f 928 947 948 929
f 726 727 746 745
f 929 948 949 930
f 727 728 747 746
f 930 949 950 931
f 728 729 748 747
f 931 950 951 932
f 729 730 749 748
f 932 951 952 933
f 730 731 750 749
f 933 952 953 934
f 731 732 751 750
f 934 953 954 935
f 732 733 752 751
f 935 954 955 936
f 733 734 753 752
f 936 955 1021 1017
f 734 1018 1022 753
f 937 956 1073 1069
f 755 736 938 957
f 735 1070 1074 754
f 939 958 1023 1019
f 756 1024 1023 958
f 738 1020 1024 756
f 941 959 960 942
f 757 758 960 959
f 739 740 758 757
f 942 960 961 943
f 758 759 961 960
f 740 741 759 758
f 943 961 962 944
f 759 760 962 961
f 741 742 760 759
f 944 962 963 945
f 760 761 963 962
f 742 743 761 760
f 945 963 964 946
f 761 762 964 963
f 743 744 762 761
f 946 964 965 947
f 762 763 965 964
f 744 745 763 762
f 947 965 966 948
f 763 764 966 965
f 745 746 764 763
f 948 966 967 949
f 764 765 967 966
f 746 747 765 764
f 949 967 968 950
f 765 766 968 967
f 747 748 766 765
f 950 968 969 951
f 766 767 969 968
f 748 749 767 766
f 951 969 970 952
f 767 768 970 969
f 749 750 768 767
f 952 970 971 953
f 768 769 971 970
f 750 751 769 768
f 953 971 972 954
f 769 770 972 971
f 751 752 770 769
f 954 972 973 955
f 770 771 973 972
f 752 753 771 770
f 955 973 1025 1021
f 771 1026 1025 973
f 753 1022 1026 771
f 956 974 1077 1073
f 772 1078 1077 974
f 754 1074 1078 772
f 977 571 773 976
f 980 979 778 777
f 981 572 577 982
f 975 983 783 776
f 978 575 581 984
f 979 985 784 778
f 982 577 583 986
f 983 987 789 783
f 984 581 587 988
f 985 989 790 784
f 986 583 602 990
f 987 991 795 789
f 988 587 606 992
f 989 993 823 790
f 990 602 621 994
f 991 995 827 795
f 992 606 625 996
f 993 997 842 823
f 994 621 640 998
f 995 999 846 827
f 996 625 644 1000
f 997 1001 861 842
f 998 640 659 1002
f 999 1003 865 846
f 1000 644 663 1004
f 1001 1005 880 861
f 1002 659 678 1006
f 1003 1007 884 865
f 1004 663 682 1008
f 1005 1009 899 880
f 1006 678 697 1010
f 1007 1011 903 884
f 1008 682 701 1012
f 1009 1013 918 899
f 1010 697 716 1014
f 1011 1015 922 903
f 1012 701 720 1016
f 1013 1017 937 918
f 1014 716 735 1018
f 1015 1019 941 922
f 1016 720 739 1020
f 1017 1021 956 937
f 1018 735 754 1022
f 1019 1023 959 941
f 1024 757 959 1023
f 1020 739 757 1024
f 1021 1025 974 956
f 1026 772 974 1025
f 1022 754 772 1026
f 1028 1027 774 773
f 1029 571 574 1030
f 1033 572 777 1032
f 1027 1035 781 774
f 1030 574 580 1036
f 1031 1037 786 780
f 1034 578 584 1038
f 1035 1039 787 781
f 1036 580 586 1040
f 1037 1041 792 786
f 1038 584 603 1042
f 1039 1043 793 787
f 1040 586 605 1044
f 1041 1045 824 792
f 1042 603 622 1046
f 1043 1047 825 793
f 1044 605 624 1048
f 1045 1049 843 824
f 1046 622 641 1050
f 1047 1051 844 825
f 1048 624 643 1052
f 1049 1053 862 843
f 1050 641 660 1054
f 1051 1055 863 844
f 1052 643 662 1056
f 1053 1057 881 862
f 1054 660 679 1058
f 1055 1059 882 863
f 1056 662 681 1060
f 1057 1061 900 881
f 1058 679 698 1062
f 1059 1063 901 882
f 1060 681 700 1064
f 1061 1065 919 900
f 1062 698 717 1066
f 1063 1067 920 901
f 1064 700 719 1068
f 1065 1069 938 919
f 1066 717 736 1070
f 1067 1071 939 920
f 1068 719 738 1072
f 1069 1073 957 938
f 1070 736 755 1074
f 1071 1075 958 939
f 1076 756 958 1075
f 1072 738 756 1076
f 981 576 779 980
f 976 776 575 977
f 1032 780 578 1033
f 1029 573 775 1028
f 1031 780 1032
f 1028 775 1027
f 980 779 979
f 975 776 976
f 982 576 981
f 977 575 978
f 1033 578 1034
f 1030 573 1029
f 957 1077 1078 755
f 737 1076 1075 940
f 1073 1073 1077 957
f 940 1075 1071 1071
f 755 1078 1074 1074
f 1072 1072 1076 737

 