# File exported by ZBrush version 2021
# www.zbrush.com
#Vertex Count 722
#Face Count 728
#Auto scale x=1.000000 y=1.000000 z=1.000000
#Auto offset x=0.000000 y=0.000000 z=0.000000
v 0.74741292 1.92756807 0.05362004
v -0.06640207 2.11122942 0.19218301
v -0.04636907 2.08405256 0.46802103
v -0.51988112 2.00949621 -0.56062996
v -0.56776917 2.02617692 -0.30706697
v -0.34337103 2.11226892 -0.31046396
v -0.33356607 2.06752824 -0.61318898
v 0.62508893 1.99787199 -0.14788794
v 0.48107492 2.0652585 0.10285401
v 0.6541019 1.95888912 0.28840905
v 0.92035692 1.79632103 0.01956903
v 0.83679693 1.83462107 -0.34843596
v -0.16757309 2.10500001 0.24281901
v -0.11213809 2.09509611 0.36242997
v -0.0061661 2.10399389 0.26711303
v 0.0754739 2.11577415 0.15777605
v -0.03363108 2.1233344 0.08299303
v -0.17773211 2.11890125 0.09063404
v -0.08403611 2.04974889 0.63873398
v 0.09604793 2.04197406 0.63023698
v 0.05452293 2.08851003 0.40366303
v -0.23706507 2.06171941 0.54058408
v -0.34091603 2.07315588 0.37546408
v -0.55160701 1.95465195 0.55028998
v -0.38246715 1.9356209 0.77745306
v -0.14609307 1.92348611 0.906852
v -0.53761804 1.74488008 1.01525998
v -0.21432101 1.73400294 1.18783903
v 0.14733892 1.73120605 1.20086503
v 0.12188088 1.91890728 0.91175901
v 0.48623591 1.73722612 1.04722404
v 0.36934691 1.92463409 0.78354501
v 0.26375889 2.04560184 0.52310097
v 0.55026292 1.93966114 0.55758798
v 0.39164093 2.05796098 0.33771204
v 0.26652193 2.11138105 0.135522
v 0.16906893 2.09684038 0.30184102
v 0.14526093 2.13350725 -0.01006197
v 0.36567091 2.10719013 -0.09747695
v 0.22559791 2.13091898 -0.25664097
v 0.05504792 2.14457845 -0.34244197
v 0.00582492 2.14295148 -0.09017795
v -0.13214707 2.14304494 -0.34022697
v -0.15940105 2.13736629 -0.09270596
v -0.37056911 2.10450887 -0.05039995
v -0.38214314 2.08725309 0.17227006
v -0.62985312 2.00432395 -0.02805298
v -0.63730704 1.97569406 0.26760906
v -0.90576803 1.82105004 -0.06555295
v -0.89985108 1.78948605 0.33722508
v -0.77513802 1.76383197 0.71589899
v -1.14360904 1.55346906 0.39519298
v -0.97915506 1.52914726 0.86864304
v -0.6739701 1.51187193 1.24154007
v -1.16060197 1.25668203 1.00481808
v -0.79223907 1.24110591 1.450356
v -0.30703806 1.23236405 1.70589208
v -0.26519811 1.50284016 1.45501399
v 0.22519391 1.23275911 1.72262597
v 0.18673092 1.50212395 1.46974492
v 0.72098189 1.24070823 1.49616813
v 0.60877591 1.50839507 1.28109204
v 1.10866391 1.25150001 1.06987702
v 0.93409693 1.51938116 0.92700898
v 0.7435019 1.74994409 0.76191699
v 1.12139594 1.53705894 0.46809208
v 0.8885259 1.77014505 0.40208303
v 1.15558993 1.56757009 -0.02959597
v 1.33677196 1.26499497 0.51472008
v 1.38398492 1.28605496 -0.08504498
v 1.26482093 1.31321108 -0.65961796
v 1.05579495 1.60442197 -0.50968599
v 1.01365089 1.34218823 -1.15931391
v 0.84662294 1.64228999 -0.92884099
v 0.67107892 1.87222302 -0.67449796
v 0.55418288 1.67337024 -1.25255096
v 0.43779292 1.90514719 -0.93400597
v 0.32598692 2.06221532 -0.58467197
v 0.49932092 2.03117179 -0.38359198
v 0.15709191 1.92540705 -1.07469999
v 0.1085819 2.07806539 -0.69037395
v -0.13569808 1.92785513 -1.08161902
v -0.11913508 2.08079004 -0.68565297
v -0.40984308 1.91455614 -0.96786093
v -0.15382707 1.69688808 -1.45149898
v -0.50261712 1.67869508 -1.30955505
v -0.81161201 1.64794194 -1.01425695
v -0.6456331 1.88327109 -0.75628596
v -1.03986203 1.61559402 -0.59912896
v -0.81076514 1.85481894 -0.43962097
v -1.15890395 1.58330214 -0.11375594
v -1.24484407 1.32371795 -0.74799698
v -1.38829124 1.29858911 -0.16576898
v -1.36395013 1.27659499 0.44095408
v -1.59802424 0.96848714 -0.23261997
v -1.56447398 0.96207892 0.46491098
v -1.32505691 0.94611394 1.11685502
v -1.72518003 0.60842311 0.48226499
v -1.45041811 0.5850929 1.20836007
v -0.97794306 0.54793584 1.78951406
v -0.90004813 0.92821514 1.63597297
v -0.38610708 0.51521909 2.12985491
v -0.35231208 0.91478502 1.93741512
v 0.2583549 0.51505076 2.16096091
v 0.2461059 0.91505491 1.96178102
v 0.86783194 0.54895579 1.87356901
v 0.8072769 0.92889201 1.70210003
v 1.37138795 0.58470475 1.32090306
v 1.25757491 0.9440931 1.20719504
v 1.68518292 0.60662591 0.59926807
v 1.52985596 0.95558202 0.56058204
v 1.77163696 0.59310281 -0.18245095
v 1.59516787 0.95933902 -0.14022594
v 1.62610495 0.57511985 -0.92112594
v 1.45935189 0.96603906 -0.80510598
v 1.29578197 0.56082093 -1.55195593
v 1.16513097 0.97655999 -1.37641894
v 0.84012293 0.56387174 -2.01923298
v 0.75917989 0.99246799 -1.80534899
v 0.66448789 1.36855924 -1.54060196
v 0.28993392 1.00666201 -2.04447603
v 0.25566291 1.38713395 -1.75620293
v 0.20768094 1.69399011 -1.43427395
v -0.17189705 1.39089715 -1.77931702
v -0.19970405 1.01072013 -2.06729984
v -0.67748808 1.00445711 -1.867823
v -0.58891606 1.37761008 -1.60675895
v -1.10573303 0.98998892 -1.46313691
v -0.96382415 1.35210597 -1.24778997
v -1.4312731 0.97736299 -0.89791196
v -1.23199904 0.57379519 -1.64092695
v -1.59264695 0.58482873 -1.02353
v -1.77375018 0.59810578 -0.29091396
v -1.71542513 0.13010346 -1.10868895
v -1.8969382 0.17036855 -0.32766497
v -1.82755792 0.19672429 0.49705708
v -1.96002996 -0.39508175 -0.32983097
v -1.89083111 -0.42699456 0.52536904
v -1.55832612 -0.47253346 1.29671108
v -1.52466094 0.15376842 1.27012801
v -1.03318107 -0.66032862 1.97409009
v -1.02290308 0.08470666 1.89305591
v -0.39902102 -0.70894885 2.35316014
v -0.40302407 0.02563834 2.26251006
v 0.25517189 -0.70611167 2.39080691
v 0.26226794 0.02575755 2.29815793
v 0.87833994 -0.64796853 2.09715294
v 0.8999089 0.08624351 1.98986005
v 1.44824397 -0.45344471 1.4389441
v 1.43576395 0.15262734 1.39900803
v 1.84013593 -0.41449475 0.66328299
v 1.78326988 0.19651067 0.62783098
v 1.95828294 -0.3951838 -0.23160895
v 1.89414989 0.16891658 -0.21468895
v 1.85864186 -0.49056363 -1.04319
v 1.75148487 0.12475431 -0.99969595
v 1.49626386 -0.56295657 -1.737149
v 1.4018619 0.07995021 -1.670758
v 0.97013092 -0.5849359 -2.24572181
v 0.90811193 0.07041347 -2.16301202
v 0.36825892 -0.58852553 -2.52441501
v 0.34326893 0.07384622 -2.43326902
v 0.31790691 0.5731672 -2.27631187
v -0.24358904 0.07692134 -2.45647692
v -0.22497403 0.577021 -2.29867601
v -0.8183391 0.08118665 -2.22713995
v -0.75601804 0.57636201 -2.08044385
v -1.33410918 0.08960044 -1.76476895
v -0.87106609 -0.57663273 -2.31306099
v -1.42110908 -0.55713582 -1.83656895
v -1.8180412 -0.48967766 -1.15622699
v -0.25766813 -0.58635354 -2.54868602
v -0.36119115 2.2071352 -0.65322697
v -0.37078905 2.25487852 -0.31599396
v -0.61665511 2.16051054 -0.31760695
v -0.56321704 2.14414453 -0.594733
v 0.71312594 2.08489847 0.331362
v 0.52198588 2.20147848 0.12996304
v 0.67978292 2.12880182 -0.14776194
v 0.81226289 2.0527215 0.07241201
v 0.90383589 1.95789015 -0.36574795
v 0.99736785 1.9141401 0.03427201
v -0.00661307 2.24626684 0.30123305
v -0.11528909 2.23668813 0.39978206
v -0.17359304 2.24725389 0.27671605
v -0.06846708 2.25384521 0.22511804
v -0.03619307 2.26626825 0.116328
v 0.07528692 2.25831317 0.19267404
v -0.1858021 2.26176023 0.122298
v 0.05842292 2.22928237 0.446177
v 0.10547989 2.17717886 0.69838297
v -0.08757907 2.18564939 0.706694
v -0.04582107 2.22451305 0.51252901
v -0.25344812 2.19894123 0.60018003
v -0.41660201 2.05968618 0.86341798
v -0.60021507 2.08105897 0.61490202
v -0.36505401 2.21178722 0.42232108
v -0.15802705 2.0465002 1.00471508
v -0.23243713 1.84560906 1.30322194
v -0.58449006 1.85708725 1.11641705
v 0.13443893 2.04210996 1.00906002
v 0.16171592 1.84304606 1.31658005
v 0.40286791 2.04875707 0.86953699
v 0.53004789 1.84976708 1.14963698
v 0.28346091 2.18109655 0.58516705
v 0.42034292 2.19427728 0.38759899
v 0.5984469 2.06498098 0.62522208
v 0.17547392 2.23786306 0.34370005
v 0.27928692 2.25330305 0.16922205
v 0.1496399 2.27734422 0.016487
v 0.24080789 2.27562427 -0.25619497
v 0.3921509 2.24902486 -0.08677494
v 0.00491988 2.28735017 -0.06560599
v 0.05876189 2.29066324 -0.34692397
v -0.16866803 2.28153944 -0.07014596
v -0.14112711 2.28879118 -0.34556597
v -0.3983941 2.24593687 -0.03066498
v -0.40930008 2.22724914 0.20637202
v -0.6913191 2.10515832 0.30724203
v -0.68270707 2.13677358 -0.01284998
v -0.97508013 1.9065541 0.38042902
v -0.9791181 1.94217789 -0.05627799
v -0.84186112 1.8778311 0.79151403
v -1.06023812 1.63196694 0.95006406
v -1.23498094 1.65911614 0.43930304
v -0.73111712 1.61345613 1.35179591
v -0.85789716 1.33324325 1.56634306
v -1.25362193 1.34931218 1.08923506
v -0.28765106 1.60437619 1.58126902
v -0.33279705 1.32517111 1.83926701
v 0.20355594 1.60395014 1.59672308
v 0.24437093 1.325971 1.85695314
v 0.66162192 1.61047613 1.39342808
v 0.78162992 1.33353793 1.61464214
v 1.01287996 1.62204015 1.01191699
v 1.19898486 1.34444415 1.15802705
v 0.80842894 1.86338102 0.84082508
v 0.9648419 1.88491308 0.45081603
v 1.21264195 1.64154207 0.51701498
v 1.24558091 1.67628324 -0.02036494
v 1.48529589 1.38595998 -0.08135598
v 1.44075489 1.35954892 0.56272697
v 1.13382089 1.71974122 -0.53875899
v 1.35140395 1.42144525 -0.69890999
v 0.90603393 1.76549112 -0.99080193
v 1.07828891 1.46102798 -1.23579597
v 0.72307992 2.00127887 -0.71807694
v 0.47089189 2.03972578 -0.99857997
v 0.59139794 1.80390012 -1.33963394
v 0.5409379 2.16719722 -0.40283095
v 0.3522239 2.20251703 -0.61929595
v 0.11674189 2.22057247 -0.73436594
v 0.16837793 2.063416 -1.15139997
v -0.12797808 2.22309398 -0.73045194
v -0.14538806 2.06600713 -1.15931093
v -0.44033801 2.04945182 -1.03710997
v -0.53646409 1.81046402 -1.40074205
v -0.16410005 1.83259403 -1.55392193
v -0.69577205 2.01315116 -0.80665993
v -0.8680911 1.77284109 -1.08210599
v -0.87533104 1.98006928 -0.46210098
v -1.11561811 1.73266112 -0.63415998
v -1.24736821 1.69384896 -0.11014497
v -1.48830592 1.39992106 -0.16756296
v -1.32883393 1.43396222 -0.79320997
v -1.46839606 1.37176215 0.48424601
v -1.68118107 1.04551494 0.50632906
v -1.70895206 1.05900299 -0.24053296
v -1.42942798 1.02777493 1.20309901
v -1.56740105 0.6508702 1.29601502
v -1.85596597 0.67497193 0.52088606
v -0.97386515 1.010661 1.75660514
v -1.05986309 0.61634719 1.91510295
v -0.38153004 0.99894511 2.07705092
v -0.41885507 0.58649575 2.27664113
v 0.26720392 0.9997071 2.10283207
v 0.28115594 0.58684575 2.30970096
v 0.87494492 1.01222407 1.82621312
v 0.94200789 0.6184901 2.003973
v 1.35864186 1.02652895 1.29838204
v 1.48415589 0.65172183 1.41524004
v 1.6460179 1.03864896 0.60756897
v 1.81528794 0.67318189 0.64478302
v 1.70783591 1.04822814 -0.14225399
v 1.89809393 0.66462218 -0.19086498
v 1.55438089 1.06481897 -0.85468596
v 1.73166489 0.65710818 -0.98141896
v 1.23479592 1.08899295 -1.466717
v 1.37234687 0.65772092 -1.65633392
v 0.80093991 1.11788404 -1.92575895
v 0.88534992 0.67546403 -2.15603399
v 0.7041949 1.49750411 -1.64494895
v 0.27012288 1.52269804 -1.87602293
v 0.30510491 1.140221 -2.18148493
v 0.22106194 1.82911217 -1.535501
v -0.18243908 1.52739703 -1.90048193
v -0.21066105 1.14546811 -2.20556306
v -0.62470901 1.50850021 -1.71504294
v -0.71491301 1.13284194 -1.99167799
v -1.02487504 1.47341406 -1.32979393
v -1.17109096 1.10617411 -1.55834794
v -1.52291715 1.07916796 -0.95313698
v -1.69398105 0.67056405 -1.08961594
v -1.30349719 0.67512118 -1.75023698
v -1.89795625 0.67130601 -0.30597496
v -2.03519392 0.21780765 -0.34914597
v -1.82783496 0.18775022 -1.1847279
v -1.97294604 0.24017036 0.53306901
v -2.02469825 -0.40427088 0.55455803
v -2.0733819 -0.37452864 -0.34925296
v -1.65559303 0.19722735 1.35913014
v -1.70007121 -0.44432663 1.3857851
v -1.11376214 0.13274228 2.02368903
v -1.11842608 -0.63134264 2.09496212
v -0.43976914 0.07773864 2.41663599
v -0.43674409 -0.66977858 2.51251292
v 0.28776991 0.07833755 2.45468497
v 0.2810859 -0.66657185 2.55276107
v 0.98188793 0.13561332 2.12652301
v 0.95352691 -0.61772751 2.22516512
v 1.5619229 0.19730746 1.49634504
v 1.58410596 -0.42434144 1.53815293
v 1.92805993 0.24006831 0.67204201
v 1.97326886 -0.39167761 0.70041298
v 2.03487587 0.21510732 -0.22869697
v 2.0733819 -0.37497353 -0.24480795
v 1.86841595 0.17933356 -1.06919598
v 1.95378196 -0.46554446 -1.09901297
v 1.48729085 0.14637935 -1.78779697
v 1.56668889 -0.53186249 -1.83005595
v 0.95916092 0.14946353 -2.31528282
v 1.0129019 -0.54706978 -2.3661251
v 0.36199691 0.1612643 -2.60486602
v 0.3841989 -0.5462377 -2.66003608
v 0.3343209 0.69427096 -2.43081283
v -0.23677611 0.69936597 -2.45443701
v -0.25668406 0.16534125 -2.62954902
v -0.796332 0.69159686 -2.22056293
v -0.86351001 0.1634792 -2.3833518
v -1.41381394 0.15980231 -1.88765001
v -1.48668611 -0.52423548 -1.93443393
v -0.90856206 -0.53707385 -2.43684196
v -1.90960609 -0.46345973 -1.21756994
v -0.26830208 -0.54350256 -2.68553495
v -1.99372112 -1.27797162 0.78184604
v -1.75206315 -1.27289807 1.38522696
v -1.63557612 -1.29149282 1.32219791
v -1.87094605 -1.29480874 0.74698007
v -0.41312801 -1.48529088 2.56621098
v 0.26929187 -1.47563302 2.59802699
v 0.25080788 -1.50731885 2.45561599
v -0.38487911 -1.51650655 2.42577314
v 1.63315689 -1.34205186 1.54440093
v 1.92827689 -1.35355222 0.95088207
v 1.80630087 -1.3704189 0.90698504
v 1.5207349 -1.3607496 1.47253894
v -0.43518507 -1.86576783 2.60142898
v 0.2742449 -1.85789907 2.63512611
v 0.2555989 -1.88970792 2.4914
v -0.4056741 -1.89713895 2.45978212
v -0.30208003 -2.26606893 2.66204595
v 0.12494492 -2.26254701 2.68553495
v 0.12117791 -2.2840867 2.58990192
v -0.29035508 -2.28748273 2.56710696
v 0.47298389 -1.48884999 2.51091003
v 0.48035591 -1.85373818 2.5402801
v 0.44681993 -1.87948262 2.41464996
v 0.44061991 -1.51541268 2.38592004
v 0.63206994 -1.51559388 2.38309812
v 0.6297599 -1.92323529 2.43931293
v 0.58184194 -1.94419038 2.318192
v 0.58651393 -1.53923833 2.26185607
v 0.80047893 -1.59830892 2.27120113
v 0.80109393 -2.01138067 2.31353592
v 0.73987591 -2.02701711 2.19784092
v 0.74259591 -1.61929166 2.15474414
v 0.96508389 -1.67771661 2.16067695
v 0.97696197 -2.09748411 2.17731213
v 0.90378093 -2.10776662 2.06784391
v 0.89592194 -1.69560468 2.04966402
v 1.11161792 -1.73283803 2.05259013
v 1.14218187 -2.16376066 2.03420114
v 1.05854892 -2.1690936 1.93160104
v 1.03260195 -1.74755036 1.94743299
v 1.23540496 -1.75394856 1.95172214
v 1.29412186 -2.19367265 1.88401699
v 1.20106291 -2.19471216 1.78913807
v 1.14777994 -1.76599919 1.85282611
v 1.33378791 -1.73997056 1.86141991
v 1.43164193 -2.17862558 1.72544813
v 1.33019793 -2.17639303 1.63916111
v 1.23905086 -1.75040566 1.76893401
v 1.40856587 -1.70148503 1.78473401
v 1.55599296 -2.11758184 1.55897903
v 1.44726193 -2.11412286 1.482198
v 1.30798196 -1.71165216 1.69842314
v 1.46484494 -1.64885556 1.72107911
v 1.66630697 -2.00843668 1.38881111
v 1.55195689 -2.00676202 1.32185196
v 1.35973095 -1.6601156 1.64010691
v 1.51328086 -1.58617532 1.66420006
v 1.40511488 -1.59964788 1.58705997
v -1.6643151 -1.4568361 1.49035692
v -1.54817998 -1.47235238 1.42618107
v -1.63510906 -1.50542295 1.53352904
v -1.84498703 -1.77090299 1.06929802
v -1.72365796 -1.77268731 1.02378106
v -1.51963007 -1.51869428 1.46774101
v -1.60799825 -1.54833066 1.57534003
v -1.79342496 -1.88607919 1.18745899
v -1.67351615 -1.883695 1.13549602
v -1.49417412 -1.55952203 1.50686192
v -1.57786119 -1.58915936 1.61978006
v -1.73368203 -1.97930085 1.31166696
v -1.61612904 -1.9743427 1.25242698
v -1.46660316 -1.59885156 1.54759311
v -1.54042518 -1.6287359 1.67018008
v -1.66571509 -2.05147218 1.43712997
v -1.5514239 -2.04563283 1.37033104
v -1.4324702 -1.6376928 1.59357094
v -1.49280512 -1.66529023 1.72821998
v -1.58994615 -2.10458517 1.56063294
v -1.47972524 -2.09935426 1.48646998
v -1.3886789 -1.67421662 1.64672803
v -1.43312394 -1.69469296 1.79388999
v -1.50618922 -2.13892889 1.68052506
v -1.40082609 -2.13552045 1.59942698
v -1.33332908 -1.70423257 1.70731592
v -1.36033093 -1.71159398 1.86625695
v -1.41404807 -2.15340662 1.79641294
v -1.31415712 -2.15247297 1.70883703
v -1.26544797 -1.72233808 1.77453613
v -1.27343714 -1.71062696 1.94401693
v -1.31235826 -2.14540338 1.90826892
v -1.2184931 -2.14726305 1.81460309
v -1.18427002 -1.72323072 1.84723115
v -1.17242705 -1.69033944 2.02622509
v -1.20060908 -2.1155467 2.01677703
v -1.11340713 -2.12055063 1.91740393
v -1.08984804 -1.7051357 1.92447114
v -1.05812704 -1.65296399 2.11211395
v -1.07903111 -2.0679059 2.12284207
v -0.99923908 -2.07649374 2.01811599
v -0.98287105 -1.66996514 2.00553107
v -0.93295013 -1.60464704 2.20086407
v -0.94951713 -2.01159429 2.22748804
v -0.87795603 -2.02403211 2.11771702
v -0.86559903 -1.62375867 2.08969402
v -0.80016207 -1.5519098 2.29011011
v -0.81515801 -1.95665109 2.33030509
v -0.75267207 -1.97287023 2.21574306
v -0.741315 -1.5730499 2.174685
v -0.66936814 -1.50210797 2.38089108
v -0.68841612 -1.90657937 2.42769813
v -0.63574707 -1.92640912 2.30876302
v -0.61951208 -1.52499425 2.26161599
v -0.55515205 -1.4940685 2.48904705
v -0.58892715 -1.86100232 2.50727295
v -0.54709112 -1.88467061 2.38449692
v -0.51534009 -1.51940381 2.36654901
v 1.4817059 -0.85878884 1.45695996
v 1.60241186 -0.83731401 1.53976798
v 1.93355095 -0.81853663 0.858922
v 1.81221187 -0.83714091 0.81840598
v -1.86961305 -0.78432595 0.66872501
v -1.99145495 -0.76599478 0.70162105
v -1.71421802 -0.79405868 1.38465404
v -1.58947122 -0.81488597 1.31052994
v 0.22500491 -1.31974256 2.4736371
v -0.35877907 -1.32948529 2.44087791
v 0.24260491 -1.28754556 2.61509895
v -0.38597106 -1.29767644 2.58047699
v 0.23534292 -1.30990922 2.490309
v 0.25069594 -1.28928792 2.58389806
v -0.39651715 -1.30141675 2.53783893
v -0.37429404 -1.32173478 2.44586205
v 1.84940791 -0.82687366 0.71064806
v 1.969051 -0.8098706 0.74687397
v 1.84790694 -1.37533891 0.88412702
v 1.9709059 -1.35848557 0.92705297
v -2.01818609 -0.76133084 0.59618401
v -1.89801609 -0.77797782 0.56763005
v -2.03489017 -1.28918397 0.757375
v -1.91075122 -1.30601155 0.72357904
v 0.13328695 -2.28735876 2.57962298
v 0.14004391 -2.26715517 2.67172312
v -0.28255009 -2.27018785 2.65599393
v -0.26950109 -2.29066324 2.56287312
v -0.08633309 2.23144149 0.44703507
v -0.18429708 2.19307851 0.64497399
v -0.17324507 2.05645418 0.58184504
v -0.08471608 2.09034299 0.40668106
v -0.30891108 2.05353021 0.92305505
v -0.28398001 1.93000996 0.83202707
v -0.43804514 1.85115802 1.19550502
v -0.40307104 1.73937594 1.08825302
v 0.20358192 2.26693105 0.080572
v 0.11698293 2.24946546 0.25600004
v 0.11443889 2.10759306 0.21817505
v 0.19573092 2.12393617 0.05101305
v -0.63990914 1.32752907 1.68249011
v -0.54683101 1.60794723 1.44923901
v -0.50402212 1.50663006 1.33207798
v -0.59072208 1.23543393 1.55894899
v 0.01910889 2.09731721 0.32433104
v 0.02046293 2.23893499 0.36197197
v 0.7213549 1.78595912 -1.19271302
v 0.5752899 2.02241087 -0.88059395
v 0.53446394 1.8903321 -0.82488894
v 0.67511993 1.65877807 -1.11626291
v 0.43052992 2.18701124 -0.52837097
v 0.3979659 2.04861307 -0.50023394
v 0.3037309 2.26404237 -0.18507397
v 0.28386491 2.12060022 -0.18984198
v -0.794474 0.60034787 2.06913995
v -0.72827112 1.00278794 1.89312291
v -0.672845 0.92001903 1.76419305
v -0.73280704 0.5311979 1.93427991
v -0.52472508 -1.86318814 2.54682397
v -0.49579811 -1.49054181 2.52147412
v 1.08574891 0.664173 -1.94472491
v 0.97959494 1.10254395 -1.73189699
v 0.9266079 0.98303091 -1.62428593
v 1.02794194 0.5592879 -1.821738
v 0.8584299 1.47968113 -1.47240197
v 0.80864793 1.35534012 -1.37987196
v -0.83647811 -0.65135884 2.27263808
v -0.83508408 0.1058315 2.19101309
v -0.76649105 0.05661761 2.05009698
v -0.77071607 -0.6840527 2.13520908
v 1.2409929 -0.54510283 -2.13905692
v 1.17648494 0.14387738 -2.09199595
v 1.18707597 -0.57965588 -2.03041195
v 1.11162293 0.07072866 -1.95476591
v -0.4608041 -1.51830422 2.391438
v -0.48802101 -1.89003694 2.41611695
v -0.39210808 -1.29986703 2.55569696
v -0.36780011 -1.32498109 2.44377708
v -0.29072511 -2.26846647 2.65852809
v -0.27823007 -2.28933572 2.5646491
v 0.25385493 -1.74772489 2.47680711
v -0.3978331 -1.75581395 2.44586706
v 1.69938397 -0.43382573 0.95303797
v -1.76851809 -0.79897201 0.90789699
v -1.78564202 -1.2960962 0.96126997
v -1.8916651 -0.78007876 0.95620799
v -1.90626895 -1.27883565 1.00668108
v -1.290542 1.26657211 0.65085399
v -1.47837507 0.95269405 0.70781397
v -1.59090912 1.03498995 0.76601898
v -1.3910712 1.36040008 0.70951998
v -0.59057807 2.01743984 -0.20350897
v -0.84560716 1.84112513 -0.30070397
v 1.81404793 -0.82913959 1.11301207
v 1.82118296 -1.35196816 1.17227697
v 1.6926769 -0.84844481 1.05666303
v 1.70254695 -1.3692888 1.11789
v -0.91337311 1.96463215 -0.31136697
v -0.6409111 2.15095186 -0.20448195
v -1.08350312 1.601704 -0.41874295
v -1.16389405 1.7160052 -0.43937796
v -0.60596215 1.96720612 0.37255907
v -0.85445416 1.77874219 0.47792708
v -0.92668616 1.89445006 0.53320503
v -0.65804803 2.09540605 0.42147803
v -0.17399406 2.11356115 0.14707005
v -0.36700713 2.08168649 0.247653
v -0.39306807 2.22113037 0.28649401
v -0.18131113 2.25618791 0.17956
v 0.12679588 2.09358835 0.33968305
v 0.07926791 2.10363721 0.25759702
v 0.08137393 2.2454133 0.295354
v 0.13227891 2.23451137 0.38178598
v 0.20185792 2.04399395 0.56301403
v 0.21778488 2.17934846 0.62736201
v -1.17180311 1.64684402 0.62930405
v -1.08400905 1.54255402 0.57127308
v -1.76891124 0.66618096 -0.79768198
v -1.59116208 1.06770193 -0.68785196
v -1.49246919 0.970667 -0.65029197
v -1.65920507 0.58577477 -0.75067096
v -1.38729107 1.4181801 -0.56047797
v -1.29744994 1.31171119 -0.53145694
v -1.9088 -0.42460179 0.86469805
v -1.85981214 0.21871745 0.84124898
v -1.71922314 0.17590844 0.78534901
v -1.77164924 -0.44872689 0.81309008
v -1.75285708 0.66117799 0.80998599
v -1.62669694 0.59548795 0.75297498
v -1.97031819 -0.43540263 -0.89374995
v -1.90417516 0.19384133 -0.87325698
v -1.87072503 -0.45897269 -0.84812498
v -1.78227913 0.14071834 -0.81764495
v 1.14027595 1.63230025 0.70122599
v 1.35354888 1.35110008 0.78454101
v 1.25429594 1.25750815 0.72150802
v 1.05340194 1.52877199 0.63885808
v 0.3507519 2.25008821 0.008318
v 0.48473793 2.19826555 0.22564405
v 0.44826591 2.06210422 0.19005304
v 0.32926595 2.10831308 -0.01094895
v -0.57623112 -1.72474992 2.499336
v -0.5138421 -1.72482049 2.53619194
v -0.68122613 -1.75640332 2.40883493
v -0.80949306 -1.80635964 2.31391811
v -0.94326412 -1.86045682 2.21616411
v -1.07114803 -1.91376817 2.11740493
v -1.18999207 -1.95755612 2.01881408
v -1.2977091 -1.98382222 1.92007803
v -1.39385116 -1.98917901 1.82092905
v -1.47875702 -1.97378766 1.721313
v -1.55354702 -1.94132173 1.62175512
v -1.61890018 -1.89448583 1.52287697
v -1.67568004 -1.83468091 1.42572093
v -1.72473704 -1.76133668 1.33163499
v -1.76769006 -1.67355477 1.24227702
v -1.80752503 -1.57095277 1.15899002
v 1.8339709 -0.40932345 1.01344597
v 0.3703939 -1.51262319 2.41194391
v 0.4445469 -1.74430692 2.40281391
v 0.37612292 -1.88348996 2.44328308
v 0.37402692 -1.74578893 2.43042612
v 0.58367192 -1.79385221 2.29578495
v 0.74097293 -1.8756212 2.180372
v 0.90090292 -1.95467603 2.05965709
v 1.04887688 -2.01246023 1.93606114
v 1.18113994 -2.03536939 1.81143593
v 1.29612088 -2.01807165 1.68619704
v 1.39530789 -1.96468198 1.56174302
v 1.48057389 -1.87844789 1.43990397
v 1.55558395 -1.75999295 1.32355213
v 1.66987586 -1.75307309 1.38879799
v 1.59149193 -1.87535321 1.51208114
v 1.50098991 -1.96308744 1.64203214
v 1.3950479 -2.01559114 1.77473211
v 1.27215886 -2.03022909 1.90774512
v 1.1307789 -2.00363111 2.03954911
v 0.97257697 -1.94155728 2.16964697
v 0.80094093 -1.85799157 2.29630708
v 0.63070493 -1.77189576 2.41692805
v 0.4776439 -1.71826016 2.52819514
v 0.27244192 -1.71596467 2.62003803
v 0.40417492 -1.85554826 2.57565903
v 0.3976449 -1.48420178 2.54342794
v 0.40177992 -1.71767175 2.56246304
v -0.42687106 -1.72449815 2.58705592
v 0.61609292 1.95114529 0.38837409
v 0.67120194 2.07677888 0.44051802
v -1.68765413 -1.58096826 1.10963797
v -0.3533771 2.1088891 -0.21395796
v -0.38094413 2.25095701 -0.21010196
v -1.64848792 -1.67951428 1.18917
v -1.60707795 -1.7639507 1.27351307
v -1.56047809 -1.83515298 1.36168408
v -1.50698792 -1.89414918 1.45247292
v -1.44561898 -1.94135892 1.54492712
v 1.57249987 0.59432876 0.86855304
v 1.65875697 0.17542159 0.91571199
v 1.79724586 0.21876847 0.97991204
v 1.69670188 0.66050803 0.93241798
v 0.64413893 0.53373086 1.98237991
v 0.66617292 0.06092155 2.10652804
v 0.72753793 0.11100757 2.25100207
v 0.69954991 0.60368287 2.11997914
v 0.6496979 -0.67215466 2.20818305
v 0.70694893 -0.63892483 2.34917807
v -1.37549102 -1.97520387 1.63824391
v -1.2958461 -1.99259221 1.73187995
v -1.20561206 -1.9896816 1.82531809
v -1.10452806 -1.96620595 1.91862201
v -0.99306106 -1.92548883 2.012048
v -0.87328505 -1.87537992 2.10591912
v -0.74837315 -1.82441175 2.19907403
v -0.62961304 -1.77736985 2.28979992
v 1.43176686 0.94798791 0.80168497
v 1.54275596 1.03037202 0.86525297
v 0.53859692 1.23597204 1.58170199
v 0.6010459 0.92150104 1.80035305
v 0.65168792 1.00495994 1.93108511
v 0.5840739 1.32864701 1.70632696
v -0.53515505 -1.74904 2.37668013
v -0.47777903 -1.75200974 2.40574502
v 0.83565288 1.76156508 0.53584301
v 0.90791189 1.8756541 0.59582698
v 0.36131691 1.73412215 1.10494399
v 0.4533559 1.50475704 1.35219407
v 0.4930129 1.60651409 1.47016692
v 0.39434191 1.84624302 1.21243202
v 0.04507792 2.25371027 0.23296803
v -0.04809707 2.26156091 0.156668
v -0.04571807 2.11874342 0.12348103
v 0.04535991 2.11127138 0.19836002
v 0.30390095 2.04569721 0.92175602
v 0.27806991 1.92200815 0.83149504
v -0.14215707 2.14049196 -0.24837997
v -0.15123307 2.28554582 -0.24335497
v 0.03699094 2.14351034 -0.24881598
v 0.03903693 2.28885698 -0.24249896
v 0.26701492 2.26456785 -0.08641696
v 0.20739692 2.27569723 -0.15493696
v 0.1961199 2.13142013 -0.16509598
v 0.25151693 2.12139225 -0.10041296
v 0.23151195 -1.31355512 2.48413109
v 0.24769991 -1.28865182 2.59546303
v 0.12880092 -2.2861495 2.58343601
v 0.13444989 -2.26545095 2.67684197
v 0.23994588 -1.42856538 2.46288394
v -0.37387001 -1.43798863 2.43182206
v -0.40167415 -1.4065231 2.57190394
v 0.25805795 -1.39666593 2.60489606
v 0.37941691 -1.40529763 2.5415101
v 0.35426592 -1.42933976 2.42970395
v 0.31193995 -1.42912709 2.44206905
v 0.3345099 -1.40219724 2.56508612
v -0.45597112 -1.43651425 2.39970994
v -0.48833906 -1.41330659 2.50939297
v -0.45211005 -1.41053712 2.53561592
v -0.42163205 -1.43717324 2.41318893
v 1.65604591 -1.85450208 1.16021907
v 1.77418589 -1.85131967 1.218037
v -1.89843308 -1.63769185 0.95697808
v -1.77622807 -1.64468133 0.91673505
g Group36951
f 176 175 174 173
f 4 7 6 5
f 180 179 178 177
f 1 10 9 8
f 180 182 181 179
f 1 8 12 11
f 186 185 184 183
f 2 15 14 13
f 470 469 707 708
f 714 644 365 711
f 143 145 469 470
f 360 359 363 364
f 364 363 362 361
f 352 351 541 542
f 193 489 490 192
f 3 19 491 492
f 194 197 196 195
f 22 25 24 23
f 194 195 493 490
f 22 491 494 25
f 194 184 185 197
f 22 23 13 14
f 198 493 495 199
f 26 28 496 494
f 172 161 162 164
f 344 337 333 334
f 144 102 104 146
f 315 317 277 275
f 572 689 183 506
f 465 544 545 348
f 467 546 547 346
f 676 660 283 282
f 205 203 207 206
f 33 35 34 32
f 205 206 209 208
f 33 37 36 35
f 462 322 320
f 208 209 497 498
f 37 499 500 36
f 94 548 549 96
f 266 267 550 551
f 468 467 346 347
f 90 5 552 553
f 463 554 555 354
f 210 213 187 188
f 38 16 17 42
f 461 556 557 356
f 213 215 189 187
f 42 17 18 44
f 261 558 559 175
f 462 461 356 353
f 215 217 218 189
f 44 18 46 45
f 218 217 220 219
f 46 48 47 45
f 90 553 560 89
f 261 262 561 558
f 48 562 563 50
f 219 221 564 565
f 219 220 222 221
f 48 50 49 47
f 46 18 566 567
f 218 568 569 189
f 46 567 562 48
f 218 219 565 568
f 223 224 226 200
f 51 27 54 53
f 223 200 195 196
f 51 24 25 27
f 226 224 228 227
f 54 56 55 53
f 226 227 501 502
f 54 503 504 56
f 226 502 495 200
f 54 27 496 503
f 144 146 145 143
f 315 316 318 317
f 124 125 121 122
f 296 293 294 297
f 37 570 571 499
f 208 498 572 573
f 33 574 570 37
f 205 208 573 575
f 233 234 236 235
f 62 64 63 61
f 233 235 237 204
f 62 31 65 64
f 266 551 576 225
f 94 52 577 548
f 302 303 578 579
f 130 580 581 132
f 237 207 203 204
f 65 31 32 34
f 238 239 240 182
f 67 11 68 66
f 238 182 180 177
f 67 10 1 11
f 240 239 242 241
f 68 70 69 66
f 240 241 244 243
f 68 72 71 70
f 240 243 181 182
f 68 11 12 72
f 243 244 246 245
f 72 74 73 71
f 243 245 247 181
f 72 12 75 74
f 247 245 507 508
f 75 509 510 74
f 247 508 511 250
f 75 79 512 509
f 247 250 179 181
f 75 12 8 79
f 250 511 513 212
f 79 39 514 512
f 250 212 178 179
f 79 8 9 39
f 251 248 253 252
f 78 81 80 77
f 251 252 214 211
f 78 40 41 81
f 252 253 255 254
f 81 83 82 80
f 252 254 216 214
f 81 41 43 83
f 254 255 256 173
f 83 7 84 82
f 254 173 174 216
f 83 43 6 7
f 256 255 258 257
f 84 86 85 82
f 256 257 260 259
f 84 88 87 86
f 256 259 176 173
f 84 7 4 88
f 259 260 262 261
f 88 90 89 87
f 259 261 175 176
f 88 4 5 90
f 302 579 582 265
f 130 92 583 580
f 308 309 584 585
f 136 586 587 138
f 308 585 588 271
f 136 98 589 586
f 263 264 266 225
f 91 52 94 93
f 263 225 221 222
f 91 49 50 52
f 266 264 268 267
f 94 96 95 93
f 343 590 591 307
f 171 592 590 343
f 171 134 593 592
f 242 239 594 595
f 69 596 597 66
f 212 598 599 178
f 269 270 273 272
f 97 101 100 99
f 269 272 227 228
f 97 55 56 101
f 272 273 515 516
f 101 517 518 100
f 272 516 501 227
f 101 56 504 517
f 103 57 59 105
f 274 276 232 230
f 103 105 104 102
f 274 275 277 276
f 39 9 600 601
f 457 602 603 520
f 453 604 602 457
f 449 605 604 453
f 278 279 281 280
f 107 109 108 106
f 278 280 236 234
f 107 61 63 109
f 445 606 605 449
f 441 607 606 445
f 437 608 607 441
f 433 609 608 437
f 282 283 285 284
f 111 113 112 110
f 282 284 241 242
f 111 69 70 113
f 284 285 287 286
f 113 115 114 112
f 284 286 244 241
f 113 70 71 115
f 286 287 289 288
f 115 117 116 114
f 286 288 246 244
f 115 71 73 117
f 288 289 521 522
f 117 523 524 116
f 288 522 525 246
f 117 73 526 523
f 292 290 294 293
f 120 122 121 119
f 292 293 295 249
f 120 76 123 122
f 292 249 507 525
f 120 526 510 76
f 295 293 296 258
f 123 85 124 122
f 295 258 255 253
f 123 80 82 85
f 295 253 248 249
f 123 76 77 80
f 58 28 29 60
f 229 231 202 199
f 296 297 299 298
f 124 127 126 125
f 296 298 257 258
f 124 85 86 127
f 298 299 301 300
f 127 129 128 126
f 298 300 260 257
f 127 86 87 129
f 300 301 302 265
f 129 92 130 128
f 300 265 262 260
f 129 87 89 92
f 302 301 304 303
f 130 132 131 128
f 429 610 609 433
f 425 611 610 429
f 421 612 611 425
f 417 613 612 421
f 413 614 613 417
f 409 615 614 413
f 305 306 308 271
f 133 98 136 135
f 305 271 267 268
f 133 95 96 98
f 308 306 310 309
f 136 138 137 135
f 405 616 615 409
f 403 617 616 405
f 656 424 428 667
f 346 547 617 403
f 311 312 314 313
f 140 142 141 139
f 311 313 273 270
f 140 99 100 142
f 313 314 527 528
f 142 529 530 141
f 313 528 515 273
f 142 100 518 529
f 58 60 59 57
f 229 230 232 231
f 26 19 20 30
f 198 201 191 192
f 697 695 43 41
f 571 505 15 692
f 359 541 622 621
f 367 620 623 371
f 371 623 624 375
f 319 320 322 321
f 148 150 149 147
f 319 321 281 279
f 148 106 108 150
f 375 624 625 379
f 379 625 626 383
f 383 626 627 387
f 387 627 628 391
f 323 324 326 325
f 152 154 153 151
f 323 325 285 283
f 152 110 112 154
f 325 326 328 327
f 153 155 328 326
f 154 156 155 153
f 325 327 287 285
f 154 112 114 156
f 327 328 330 329
f 155 157 330 328
f 156 158 157 155
f 327 329 289 287
f 156 114 116 158
f 329 330 531 532
f 157 533 531 330
f 158 534 533 157
f 329 532 521 289
f 158 116 524 534
f 331 332 334 333
f 159 161 334 332
f 160 162 161 159
f 331 333 335 291
f 160 118 163 162
f 335 333 337 336
f 163 165 164 162
f 335 336 297 294
f 163 121 125 165
f 335 294 290 291
f 163 118 119 121
f 336 337 339 338
f 165 167 166 164
f 336 338 299 297
f 165 125 126 167
f 338 339 340 304
f 167 131 168 166
f 338 304 301 299
f 167 126 128 131
f 340 339 342 341
f 169 170 341 342
f 168 170 169 166
f 340 341 343 307
f 170 171 343 341
f 168 134 171 170
f 340 307 303 304
f 168 131 132 134
f 391 628 629 395
f 395 629 630 399
f 399 630 631 719
f 342 339 337 344
f 172 169 342 344
f 169 172 164 166
f 26 30 29 28
f 161 172 344 334
f 198 199 202 201
f 401 632 555 353
f 658 152 151 543
f 397 633 632 401
f 393 634 633 397
f 389 635 634 393
f 385 636 635 389
f 381 637 636 385
f 377 638 637 381
f 373 639 638 377
f 369 640 639 373
f 696 216 174 651
f 678 677 61 107
f 683 647 10 67
f 695 650 6 43
f 365 641 640 369
f 690 689 188 187
f 350 642 645 644
f 3 492 505 21
f 350 349 646 642
f 193 190 506 489
f 358 357 361 362
f 3 21 20 19
f 564 221 225 576
f 659 323 283 660
f 719 631 557 355
f 694 574 33 32
f 35 600 647 34
f 206 207 648 599
f 348 545 649 722
f 663 666 320 319
f 47 552 650 45
f 220 217 651 559
f 722 649 652 407
f 407 652 653 411
f 366 367 371 370
f 370 371 375 374
f 374 375 379 378
f 378 379 383 382
f 382 383 387 386
f 386 387 391 390
f 390 391 395 394
f 394 395 399 398
f 398 399 719 720
f 658 657 110 152
f 411 653 654 415
f 415 654 655 419
f 419 655 656 423
f 150 108 657 658
f 321 659 660 281
f 150 658 543 149
f 321 322 618 659
f 146 104 661 662
f 317 663 664 277
f 146 662 665 145
f 317 318 666 663
f 368 365 369 372
f 372 369 373 376
f 376 373 377 380
f 380 377 381 384
f 384 381 385 388
f 388 385 389 392
f 392 389 393 396
f 396 393 397 400
f 400 397 401 402
f 655 420 424 656
f 402 401 353 356
f 423 656 667 427
f 427 667 668 431
f 431 668 669 435
f 435 669 670 439
f 133 135 593 581
f 305 578 591 306
f 439 670 671 443
f 443 671 672 447
f 447 672 673 451
f 451 673 674 455
f 109 63 596 675
f 280 676 595 236
f 109 675 657 108
f 280 281 660 676
f 105 59 677 678
f 276 679 680 232
f 105 678 661 104
f 662 148 147 665
f 721 722 407 406
f 406 407 411 410
f 410 411 415 414
f 414 415 419 418
f 418 419 423 422
f 422 423 427 426
f 426 427 431 430
f 430 431 435 434
f 434 435 439 438
f 438 439 443 442
f 442 443 447 446
f 446 447 451 450
f 450 451 455 454
f 454 455 459 458
f 276 277 664 679
f 97 99 589 549
f 269 550 588 270
f 455 674 681 459
f 459 681 682 536
f 91 93 583 560
f 263 561 582 264
f 65 34 647 683
f 237 684 648 207
f 65 683 597 64
f 237 235 594 684
f 60 29 685 686
f 231 687 688 202
f 60 686 677 59
f 231 232 680 687
f 51 53 577 563
f 223 564 576 224
f 347 346 403 404
f 663 319 279 664
f 404 403 405 408
f 408 405 409 412
f 412 409 413 416
f 416 413 417 420
f 420 417 421 424
f 424 421 425 428
f 428 425 429 432
f 432 429 433 436
f 436 433 437 440
f 440 437 441 444
f 444 441 445 448
f 448 445 449 452
f 452 449 453 456
f 456 453 457 460
f 186 183 689 690
f 2 691 692 15
f 186 690 569 185
f 2 13 566 691
f 201 202 688 693
f 30 694 685 29
f 201 693 575 191
f 30 20 574 694
f 44 45 650 695
f 215 696 651 217
f 42 44 695 697
f 213 698 696 215
f 210 497 699 700
f 38 701 702 500
f 210 700 698 213
f 38 42 697 701
f 193 192 191 190
f 318 316 472 471
f 713 703 473 712
f 561 262 265 582
f 718 535 460 715
f 717 537 475 716
f 560 583 92 89
f 708 352 535 718
f 709 472 537 717
f 471 472 709 710
f 147 320 474 473
f 675 111 110 657
f 318 471 704 666
f 314 141 476 475
f 676 282 242 595
f 143 470 538 530
f 473 474 711 712
f 351 707 713 619
f 471 710 714 704
f 475 476 715 716
f 349 709 717 520
f 470 708 718 538
f 584 309 466 546
f 464 151 153 477
f 587 139 468 544
f 477 478 480 479
f 355 464 477 479
f 463 354 480 478
f 693 203 205 575
f 681 460 535 682
f 694 32 31 685
f 481 482 484 483
f 345 466 481 483
f 465 348 484 482
f 367 366 486 485
f 363 359 621 705
f 362 363 705 706
f 358 362 706 643
f 458 459 488 487
f 361 357 519 539
f 364 361 539 540
f 360 364 540 536
f 674 456 460 681
f 550 267 271 588
f 708 707 351 352
f 549 589 98 96
f 679 664 279 278
f 675 596 69 111
f 678 107 106 661
f 679 278 234 680
f 710 709 349 350
f 673 452 456 674
f 712 711 365 368
f 707 469 703 713
f 672 448 452 673
f 469 145 665 703
f 324 463 478 326
f 153 326 478 477
f 149 461 147
f 320 147 461 462
f 324 618 554 463
f 149 543 556 461
f 537 527 314 475
f 603 519 357 646
f 671 444 448 672
f 703 665 147 473
f 682 535 352 542
f 619 713 712 368
f 670 440 444 671
f 543 151 464 556
f 472 316 527 537
f 643 706 486 366
f 666 704 474 320
f 706 705 485 486
f 578 303 307 591
f 710 350 644 714
f 618 322 462 554
f 701 697 41 40
f 700 211 214 698
f 701 40 514 702
f 700 699 513 211
f 698 214 216 696
f 138 587 544 465
f 312 467 314
f 693 688 204 203
f 141 314 467 468
f 312 584 546 467
f 310 137 482 481
f 691 566 18 17
f 138 465 482 137
f 468 139 141
f 466 309 310 481
f 563 577 52 50
f 687 680 234 233
f 686 62 61 677
f 687 233 204 688
f 686 685 31 62
f 684 594 239 238
f 489 184 194 490
f 492 491 22 14
f 490 493 198 192
f 491 19 26 494
f 493 195 200 495
f 494 496 27 25
f 498 497 210 188
f 499 16 38 500
f 502 501 230 229
f 503 58 57 504
f 502 229 199 495
f 503 496 28 58
f 499 571 692 16
f 498 188 689 572
f 508 507 249 248
f 509 77 76 510
f 508 248 251 511
f 509 512 78 77
f 511 251 211 513
f 512 514 40 78
f 516 515 275 274
f 517 103 102 518
f 516 274 230 501
f 517 504 57 103
f 520 603 646 349
f 522 521 291 290
f 523 119 118 524
f 522 290 292 525
f 523 526 120 119
f 525 507 245 246
f 526 73 74 510
f 528 527 316 315
f 529 144 143 530
f 528 315 275 515
f 529 518 102 144
f 532 531 332 331
f 533 159 332 531
f 534 160 159 533
f 532 331 291 521
f 534 524 118 160
f 492 14 15 505
f 489 506 183 184
f 536 682 542 360
f 497 209 598 699
f 500 702 601 36
f 683 67 66 597
f 716 715 460 457
f 581 593 134 132
f 530 538 476 141
f 520 717 716 457
f 538 718 715 476
f 539 519 458 487
f 540 539 487 488
f 536 540 488 459
f 669 436 440 670
f 684 238 177 648
f 668 432 436 669
f 702 514 39 601
f 699 598 212 513
f 667 428 432 668
f 542 541 359 360
f 705 621 367 485
f 544 468 347 545
f 546 466 345 547
f 548 55 97 549
f 551 550 269 228
f 553 552 47 49
f 554 462 353 555
f 556 464 355 557
f 558 222 220 559
f 553 49 91 560
f 558 561 263 222
f 562 24 51 563
f 565 564 223 196
f 567 566 13 23
f 568 197 185 569
f 567 23 24 562
f 568 565 196 197
f 570 21 505 571
f 573 572 506 190
f 574 20 21 570
f 575 573 190 191
f 551 228 224 576
f 548 577 53 55
f 579 578 305 268
f 580 95 133 581
f 579 268 264 582
f 580 583 93 95
f 585 584 312 311
f 586 140 139 587
f 585 311 270 588
f 586 589 99 140
f 590 310 306 591
f 592 137 310 590
f 592 593 135 137
f 595 594 235 236
f 596 63 64 597
f 598 209 206 599
f 601 600 35 36
f 602 458 519 603
f 604 454 458 602
f 605 450 454 604
f 606 446 450 605
f 607 442 446 606
f 608 438 442 607
f 609 434 438 608
f 610 430 434 609
f 611 426 430 610
f 612 422 426 611
f 613 418 422 612
f 614 414 418 613
f 615 410 414 614
f 616 406 410 615
f 617 721 406 616
f 662 661 106 148
f 547 345 721 617
f 690 187 189 569
f 704 714 711 474
f 541 351 619 622
f 622 619 368 620
f 621 622 620 367
f 620 368 372 623
f 623 372 376 624
f 624 376 380 625
f 625 380 384 626
f 626 384 388 627
f 627 388 392 628
f 628 392 396 629
f 629 396 400 630
f 630 400 402 631
f 632 720 354 555
f 654 416 420 655
f 633 398 720 632
f 634 394 398 633
f 635 390 394 634
f 636 386 390 635
f 637 382 386 636
f 638 378 382 637
f 639 374 378 638
f 640 370 374 639
f 641 366 370 640
f 642 358 643 645
f 645 643 366 641
f 644 645 641 365
f 642 646 357 358
f 653 412 416 654
f 631 402 356 557
f 691 17 16 692
f 600 9 10 647
f 599 648 177 178
f 545 347 404 649
f 659 618 324 323
f 552 5 6 650
f 559 651 174 175
f 649 404 408 652
f 652 408 412 653
f 720 719 479 480
f 354 720 480
f 719 355 479
f 348 722 484
f 483 484 722 721
f 721 345 483

 