# File exported by ZBrush version 2021
# www.zbrush.com
#Vertex Count 197
#Face Count 201
#Auto scale x=1.000000 y=1.000000 z=1.000000
#Auto offset x=0.000000 y=0.000000 z=0.000000
v 0.00000193 1.00574827 0.0000016
v 1.30619168 0.30642604 0.5578165
v -0.55099368 0.26599359 1.32136094
v -1.30617725 0.30642986 0.55781602
v -0.55099362 0.26598453 -1.32135653
v 0.55101627 0.26598501 -1.32133698
v 1.30619871 0.30642843 -0.55778646
v -1.30617344 0.3064289 -0.55779081
v 0.55100041 0.26599121 1.32136535
v -0.59433317 -0.91745376 1.3175745
v -1.41039061 -0.87879467 0.55560529
v -0.59432518 -0.91745853 -1.31757128
v 1.41039395 -0.87879371 -0.55556732
v 1.41039359 -0.87879562 0.55560374
v 0.59432053 -0.91745376 1.31756305
v 0.59434682 -0.91745662 -1.31754684
v -1.41037929 -0.87879371 -0.5555765
v -0.65727466 0.3163352 -1.59470796
v -1.55907928 0.36921024 -0.67267274
v -0.039778 1.27698397 0.04161004
v -0.03979396 1.27707767 -0.04131765
v 0.03952009 1.27717018 -0.04133452
v 0.03950449 1.27707624 0.04162649
v -0.65727329 0.31634426 1.59471225
v -1.55908286 0.36921024 0.67270207
v -1.65642845 -1.16721725 0.64078253
v -0.69531643 -1.22335529 1.52167999
v 0.65728294 0.31634187 1.59471941
v 1.55910122 0.36920642 0.67270481
v 0.65730118 0.31633615 -1.59468567
v 1.5591098 0.36921024 -0.67266887
v 0.69529777 -1.22335624 1.52166152
v 1.65642511 -1.16721916 -0.64074093
v 1.65642726 -1.16722106 0.64078301
v -1.65641343 -1.16721725 -0.64075243
v -0.69530749 -1.22335529 -1.52167928
v 0.69533222 -1.22335338 -1.52164888
v -2.59742403 -1.14183712 1.01001226
v -2.61138486 -0.95600318 1.02731728
v -1.08830046 -1.09387493 2.44358634
v -1.08237016 -1.27716255 2.40252542
v 1.08828675 -1.09388351 2.44356226
v 1.08235251 -1.27717018 2.40249896
v 2.61138391 -0.95602512 1.02732789
v 2.61138486 -0.9560213 -1.02726888
v 2.59741973 -1.14185428 -1.00996327
v 2.59742069 -1.14185905 1.01002335
v -2.59740304 -1.14183807 -1.00997769
v -1.08236622 -1.27715587 -2.4025278
v -1.0882982 -1.09387207 -2.44358634
v -2.61136531 -0.95600318 -1.02728235
v 1.08240783 -1.27715683 -2.40248179
v 1.08834123 -1.09387397 -2.44354128
v -1.45818674 -1.15995597 0.5636906
v -0.61380904 -1.20056629 1.33769846
v -0.59682697 -1.13411998 1.30439126
v -1.416857 -1.0956974 0.54985278
v 0.61379033 -1.20056438 1.33768177
v 0.59680903 -1.13411903 1.304376
v 1.45818603 -1.15995407 0.56368899
v 1.45818436 -1.15995311 -0.56365078
v 1.41685736 -1.09569644 0.5498507
v 1.41685617 -1.09569454 -0.54981398
v -0.61379903 -1.20056724 -1.33769667
v -1.45817339 -1.15995502 -0.56366181
v -1.41684424 -1.0956974 -0.54982411
v -0.59681737 -1.13412284 -1.30438923
v 0.61382067 -1.20056438 -1.33767008
v 0.59683787 -1.13411998 -1.30436408
v -0.63490724 -0.79205703 -1.42384648
v -1.50844371 -0.74668407 -0.60006678
v -1.50845491 -0.74668502 0.60009557
v -0.63491427 -0.79205417 1.42385029
v 1.50845873 -0.74668693 0.60009479
v 1.5084604 -0.74668407 -0.60005712
v 0.6349309 -0.79205703 -1.42382073
v 0.63490295 -0.79205608 1.42383909
v -0.69209098 -0.97091388 1.53818321
v -1.64773595 -0.91751956 0.64761483
v 0.69207763 -0.97091484 1.53816938
v 1.64773881 -0.91752052 -0.64757555
v 1.64773702 -0.91752433 0.64761567
v -1.64772427 -0.91751766 -0.6475858
v -0.69208377 -0.97091674 -1.53817796
v 0.69211047 -0.97091579 -1.53815102
v -1.43155217 -0.40170764 -0.58520102
v -0.60361295 -0.44331359 -1.38690865
v -1.43156039 -0.40170764 0.58522963
v -0.60361754 -0.44330596 1.38691258
v 1.43156945 -0.40171051 0.58522915
v 1.43157339 -0.40170764 -0.58519351
v 0.60363698 -0.44331264 -1.38688516
v 0.60361433 -0.44330692 1.38690817
v -0.65168237 0.03923702 -1.55199277
v -1.54641974 0.09023666 -0.65452134
v -0.64609086 -0.23786211 -1.50927686
v -1.53376138 -0.18873739 -0.63636982
v -0.64049863 -0.51496028 -1.46656179
v -1.52110207 -0.46771049 -0.6182183
v -1.54642546 0.09023666 0.65455067
v -1.53376829 -0.18873739 0.63639849
v -1.52111196 -0.46771049 0.61824703
v -0.64050424 -0.51495552 1.4665662
v -0.64609324 -0.23785543 1.50928139
v -0.65168321 0.03924417 1.55199742
v 1.52112317 -0.46771144 -0.61821043
v 1.52111947 -0.46771431 0.61824691
v 1.5337851 -0.18873739 -0.63636267
v 1.53377997 -0.18874025 0.63639998
v 1.54644763 0.09023666 -0.65451574
v 1.54644072 0.09023237 0.6545521
v 0.64052379 -0.51495933 -1.46653747
v 0.64611637 -0.23786115 -1.50925338
v 0.65170848 0.03923749 -1.55196952
v 0.6404978 -0.51495647 1.46655941
v 0.64609336 -0.23785734 1.50927972
v 0.65168815 0.03924226 1.55199992
v -0.16263087 1.21251416 0.0780707
v -0.07545374 1.20770788 0.16748683
v -0.30227649 1.12818384 0.1375342
v -0.13363525 1.11857152 0.31020945
v -0.4419215 1.04385352 0.19699707
v -0.19181737 1.02943515 0.45293182
v -0.58156651 0.95952296 0.25645995
v -0.24999952 0.94029855 0.59565424
v -0.72121155 0.87519264 0.31592345
v -0.30818164 0.85116219 0.73837685
v -0.86085712 0.79086232 0.37538632
v -0.36636319 0.76202654 0.88109922
v -1.00050211 0.70653152 0.43484979
v -0.42454534 0.67289018 1.02382159
v -1.14014709 0.62220144 0.49431282
v -0.48272746 0.58375358 1.16654491
v -1.2797929 0.53787088 0.55377572
v -0.54090976 0.49461698 1.30926728
v -1.41943776 0.4535408 0.61323922
v -0.59909111 0.40548038 1.45198988
v 0.59907466 0.40548706 1.45199847
v 0.54086625 0.49463176 1.30927693
v 0.4826579 0.58377742 1.16655612
v 0.42444962 0.67292261 1.02383446
v 0.36624172 0.76206779 0.88111358
v 0.30803361 0.85121297 0.73839271
v 0.24982535 0.94035768 0.59567105
v 0.19161713 1.02950334 0.4529502
v 0.13340887 1.11864876 0.31022945
v 0.07520037 1.20779347 0.16750782
v 0.16237837 1.21262836 0.07809157
v 0.30205112 1.12828612 0.1375532
v 0.44172322 1.04394388 0.19701382
v 0.5813952 0.9596014 0.25647521
v 0.72106742 0.87525916 0.31593686
v 0.86074006 0.79091763 0.37539821
v 1.0004121 0.70657539 0.43485969
v 1.14008414 0.62223339 0.49432116
v 1.2797569 0.53789043 0.55378186
v 1.41942918 0.45354843 0.61324346
v 0.07522137 1.20790934 -0.1672348
v -0.07547375 1.20782327 -0.16721555
v 0.13342899 1.118752 -0.30998003
v -0.13365337 1.11867475 -0.30996507
v 0.19163736 1.02959466 -0.45272469
v -0.19183361 1.02952575 -0.45271432
v 0.24984487 0.94043731 -0.59546995
v -0.250014 0.94037723 -0.59546291
v 0.30805325 0.85127997 -0.7382152
v -0.30819428 0.85122823 -0.73821246
v 0.36626088 0.76212263 -0.88096058
v -0.36637386 0.76207971 -0.88096183
v 0.42446923 0.67296552 -1.023705
v -0.42455411 0.67293024 -1.0237112
v 0.48267674 0.58380842 -1.16645038
v -0.4827345 0.58378219 -1.16646051
v 0.54088509 0.49465084 -1.30919575
v -0.54091477 0.49463272 -1.30920994
v 0.59909367 0.40549373 -1.45194089
v -0.59909427 0.40548372 -1.45195865
v 0.16239874 1.2127161 -0.07781817
v 0.30206948 1.12836504 -0.1373028
v 0.44174099 1.04401516 -0.19678817
v 0.5814116 0.95966458 -0.25627353
v 0.7210831 0.87531375 -0.31575816
v 0.86075389 0.79096317 -0.37524354
v 1.00042533 0.70661258 -0.43472805
v 1.14009594 0.622262 -0.4942134
v 1.27976763 0.53791141 -0.55369889
v 1.41943919 0.45356082 -0.61318355
v -0.16265049 1.21260118 -0.07779679
v -0.30229336 1.12826228 -0.1372848
v -0.44193625 1.04392361 -0.19677217
v -0.58157908 0.95958399 -0.25625944
v -0.72122204 0.87524509 -0.31574744
v -0.86086487 0.79090571 -0.37523481
v -1.00050771 0.70656681 -0.43472278
v -1.14015066 0.62222719 -0.49421012
v -1.27979362 0.53788852 -0.55369752
v -1.41943633 0.45354843 -0.6131854
g Group10
f 8 86 87 5
g Group15
f 23 22 21 20
g Group10
f 1 3 4
f 8 4 88 86
f 9 3 1
f 2 9 1
f 1 5 6
f 10 11 88 89
f 14 90 91 13
f 16 13 91 92
f 5 87 92 6
f 1 7 2
f 1 4 8
f 15 93 90 14
f 10 89 93 15
f 7 1 6
f 1 8 5
g Group20
f 41 40 39 38
g Group10
f 26 27 41 38
g Group20
f 41 43 42 40
g Group10
f 27 32 43 41
g Group20
f 47 46 45 44
g Group10
f 34 33 46 47
g Group20
f 51 50 49 48
g Group10
f 36 35 48 49
g Group20
f 50 53 52 49
g Group10
f 37 36 49 52
g Group20
f 43 47 44 42
g Group10
f 32 34 47 43
g Group20
f 51 48 38 39
g Group10
f 35 26 38 48
g Group20
f 52 53 45 46
g Group10
f 33 37 52 46
f 54 55 27 26
f 56 57 11 10
f 55 58 32 27
f 56 10 15 59
f 60 61 33 34
f 62 14 13 63
f 64 65 35 36
f 17 66 67 12
f 68 64 36 37
f 12 67 69 16
f 58 60 34 32
f 59 15 14 62
f 65 54 26 35
f 17 11 57 66
f 61 68 37 33
f 69 63 13 16
f 55 54 57 56
f 58 55 56 59
f 62 63 61 60
f 67 66 65 64
f 69 67 64 68
f 59 62 60 58
f 54 65 66 57
f 63 69 68 61
g Group15
f 78 79 39 40
f 80 78 40 42
f 81 82 44 45
f 83 84 50 51
f 84 85 53 50
f 82 80 42 44
f 79 83 51 39
f 85 81 45 53
f 83 79 72 71
f 79 78 73 72
f 81 85 76 75
f 78 80 77 73
f 75 74 82 81
f 71 70 84 83
f 70 76 85 84
f 74 77 80 82
g Group10
f 86 17 12 87
f 86 88 11 17
f 87 12 16 92
f 89 88 4 3
f 90 2 7 91
f 92 91 7 6
f 93 9 2 90
f 89 3 9 93
g Group15
f 18 94 95 19
f 94 96 97 95
f 96 98 99 97
f 98 70 71 99
f 19 95 100 25
f 95 97 101 100
f 97 99 102 101
f 99 71 72 102
f 73 103 102 72
f 103 104 101 102
f 104 105 100 101
f 105 24 25 100
f 75 106 107 74
f 106 108 109 107
f 108 110 111 109
f 110 31 29 111
f 76 112 106 75
f 112 113 108 106
f 113 114 110 108
f 114 30 31 110
f 30 114 94 18
f 114 113 96 94
f 113 112 98 96
f 112 76 70 98
f 74 107 115 77
f 107 109 116 115
f 109 111 117 116
f 111 29 28 117
f 77 115 103 73
f 115 116 104 103
f 116 117 105 104
f 117 28 24 105
f 20 118 119
f 118 120 121 119
f 120 122 123 121
f 122 124 125 123
f 124 126 127 125
f 126 128 129 127
f 128 130 131 129
f 130 132 133 131
f 132 134 135 133
f 134 136 137 135
f 136 25 24 137
f 28 138 137 24
f 138 139 135 137
f 139 140 133 135
f 140 141 131 133
f 141 142 129 131
f 142 143 127 129
f 143 144 125 127
f 144 145 123 125
f 145 146 121 123
f 146 147 119 121
f 147 23 20 119
f 23 147 148
f 147 146 149 148
f 146 145 150 149
f 145 144 151 150
f 144 143 152 151
f 143 142 153 152
f 142 141 154 153
f 141 140 155 154
f 140 139 156 155
f 139 138 157 156
f 138 28 29 157
f 22 158 159 21
f 158 160 161 159
f 160 162 163 161
f 162 164 165 163
f 164 166 167 165
f 166 168 169 167
f 168 170 171 169
f 170 172 173 171
f 172 174 175 173
f 174 176 177 175
f 176 30 18 177
f 23 148 178 22
f 148 149 179 178
f 149 150 180 179
f 150 151 181 180
f 151 152 182 181
f 152 153 183 182
f 153 154 184 183
f 154 155 185 184
f 155 156 186 185
f 156 157 187 186
f 157 29 31 187
f 21 188 118 20
f 188 189 120 118
f 189 190 122 120
f 190 191 124 122
f 191 192 126 124
f 192 193 128 126
f 193 194 130 128
f 194 195 132 130
f 195 196 134 132
f 196 197 136 134
f 197 19 25 136
f 22 178 158
f 178 179 160 158
f 179 180 162 160
f 180 181 164 162
f 181 182 166 164
f 182 183 168 166
f 183 184 170 168
f 184 185 172 170
f 185 186 174 172
f 186 187 176 174
f 187 31 30 176
f 21 159 188
f 159 161 189 188
f 161 163 190 189
f 163 165 191 190
f 165 167 192 191
f 167 169 193 192
f 169 171 194 193
f 171 173 195 194
f 173 175 196 195
f 175 177 197 196
f 177 18 19 197

 