# File exported by ZBrush version 2021
# www.zbrush.com
#Vertex Count 754
#Face Count 768
#Auto scale x=1.000000 y=1.000000 z=1.000000
#Auto offset x=0.000000 y=0.000000 z=0.000000
v -0.27706599 2.97251462 -0.72009241
v -0.000001 2.97251462 -0.7790004
v -0.000001 3.39250946 -0.00513142
v -0.51195001 2.97251462 -0.55233937
v -0.668895 2.97251462 -0.30127841
v -0.72400599 2.97251462 -0.00513142
v -0.66889399 2.97251462 0.29101562
v -0.51195001 2.97251462 0.54207658
v -0.27706599 2.97251462 0.70983064
v 0 2.97251462 0.76873755
v 0.277065 2.97251462 0.70983064
v 0.511949 2.97251462 0.54207754
v 0.66889399 2.97251462 0.29101562
v 0.72400498 2.97251462 -0.00513142
v 0.66889399 2.97251462 -0.30127841
v 0.511949 2.97251462 -0.55233937
v 0.27706399 2.97251462 -0.72009241
v -0.70896899 1.62819051 -1.83461535
v 0 1.62819051 -1.98535144
v -1.31000399 1.62819051 -1.40535736
v -1.71160197 1.62819051 -0.76292842
v -1.85262501 1.62819051 -0.00513142
v -1.71160197 1.62819051 0.75266563
v -1.31000399 1.62819051 1.39509356
v -0.70896899 1.62819051 1.82435071
v 0 1.62819051 1.97508561
v 0.70897001 1.62819051 1.82435071
v 1.31000495 1.62819051 1.39509356
v 1.71160304 1.62819051 0.75266563
v 1.85262596 1.62819051 -0.00513142
v 1.71160304 1.62819051 -0.76292842
v 1.31000399 1.62819051 -1.40535843
v 0.70896899 1.62819051 -1.83461642
v -0.75962102 1.34653246 -1.96531939
v 0 1.34653246 -2.12682342
v -1.40359497 1.34653246 -1.50539445
v -1.83388495 1.34653246 -0.81706738
v -1.98498296 1.34653246 -0.00513142
v -1.83388495 1.34653246 0.80680561
v -1.40359497 1.34653246 1.49513065
v -0.75962001 1.34653246 1.95505464
v 0 1.34653246 2.1165595
v 0.75962102 1.34653246 1.95505464
v 1.40359604 1.34653246 1.4951297
v 1.83388602 1.34653246 0.80680453
v 1.98498296 1.34653246 -0.00513142
v 1.83388602 1.34653246 -0.81706839
v 1.40359497 1.34653246 -1.50539541
v 0.75962001 1.34653246 -1.96532034
v -0.806162 1.05890345 -2.08541941
v 0 1.05890345 -2.25681829
v -1.48959302 1.05890345 -1.59731435
v -1.94624602 1.05890345 -0.86681437
v -2.10660195 1.05890345 -0.00513142
v -1.94624602 1.05890345 0.8565526
v -1.48959195 1.05890345 1.58705055
v -0.80616098 1.05890345 2.07515478
v 0 1.05890345 2.24655437
v 0.806162 1.05890345 2.07515573
v 1.48959302 1.05890345 1.58705055
v 1.94624698 1.05890345 0.85655164
v 2.10660195 1.05890345 -0.00513142
v 1.94624602 1.05890345 -0.86681544
v 1.48959302 1.05890345 -1.59731543
v 0.806162 1.05890345 -2.08541941
v -0.90748202 0.52819955 -2.34225654
v 0 0.52822452 -2.53508949
v -1.67633903 0.52814054 -1.79343438
v -2.18965005 0.52808451 -0.97271537
v -2.36980009 0.5280615 -0.00513142
v -2.18951296 0.52808052 0.96245265
v -1.675179 0.52811455 1.78316748
v -0.90490698 0.52813452 2.33198452
v 0 0.52817153 2.5248208
v 0.904908 0.52813452 2.33198452
v 1.67517995 0.52811455 1.78316652
v 2.18951296 0.52808052 0.96245157
v 2.36980199 0.5280615 -0.00513142
v 2.18965101 0.5280835 -0.97271639
v 1.67633998 0.52814054 -1.79343438
v 0.90748202 0.52819955 -2.34225535
v -0.21351699 2.60243368 -0.55610442
v -0.000001 2.60243368 -0.60150039
v 0 2.90105342 -0.00513142
v -0.394526 2.60243368 -0.42682838
v -0.515473 2.60243368 -0.23335239
v -0.557944 2.60243368 -0.00513142
v -0.515473 2.60243368 0.22308957
v -0.394526 2.60243368 0.41656661
v -0.21351599 2.60243368 0.54584264
v 0 2.60243368 0.59123861
v 0.21351599 2.60243368 0.54584264
v 0.394526 2.60243368 0.41656559
v 0.51547199 2.60243463 0.22308957
v 0.55794298 2.60243463 -0.00513142
v 0.51547199 2.60243463 -0.23335239
v 0.39452499 2.60243463 -0.42682838
v 0.21351499 2.60243463 -0.55610442
v -0.33608299 2.39779329 -0.87238341
v -0.000001 2.39779329 -0.94383841
v -0.62099802 2.39779329 -0.66889739
v -0.81137198 2.39779472 -0.3643594
v -0.878223 2.39779329 -0.00513142
v -0.81137198 2.39779329 0.3540976
v -0.62099701 2.39779472 0.65863561
v -0.33608099 2.39779472 0.86212158
v 0 2.39779472 0.93357658
v 0.33608201 2.39779329 0.86212062
v 0.62099802 2.39779472 0.65863561
v 0.81137198 2.39779472 0.35409659
v 0.878223 2.39779472 -0.00513142
v 0.81137198 2.39779472 -0.3643594
v 0.62099701 2.39779472 -0.66889739
v 0.33608099 2.39779472 -0.87238341
v -0.40351098 2.26724672 -1.04638242
v -0.000001 2.26724672 -1.13217341
v -0.74558997 2.26724672 -0.80207037
v -0.974159 2.26724672 -0.43643242
v -1.05442297 2.26724672 -0.00513142
v -0.974159 2.26724672 0.42616957
v -0.74558901 2.26724672 0.7918086
v -0.40351 2.26724672 1.03611958
v 0 2.26724672 1.12191057
v 0.40351098 2.26724672 1.03611958
v 0.74558997 2.26724672 0.79180765
v 0.97416001 2.26724672 0.42616957
v 1.05442297 2.26724672 -0.00513142
v 0.97416001 2.26724672 -0.43643242
v 0.74558997 2.26724672 -0.80207037
v 0.40351 2.26724672 -1.04638242
v -0.43816301 2.17223167 -1.13580238
v 0 2.17223167 -1.22896039
v -0.809619 2.17223167 -0.87050938
v -1.05781805 2.17223167 -0.47347039
v -1.14497304 2.17223167 -0.00513142
v -1.05781698 2.17223167 0.46320855
v -0.80961799 2.17223167 0.86024653
v -0.43816199 2.17223167 1.12553954
v 0 2.17223167 1.21869754
v 0.43816301 2.17223167 1.12553954
v 0.809619 2.17223167 0.86024761
v 1.05781805 2.17223167 0.46320855
v 1.14497399 2.17223167 -0.00513142
v 1.05781805 2.17223167 -0.47347039
v 0.809619 2.17223167 -0.87050938
v 0.43816301 2.17223167 -1.13580238
v -0.45875901 2.09215736 -1.18895041
v 0 2.09215736 -1.28648841
v -0.84767597 2.09215736 -0.91118741
v -1.10754096 2.09215736 -0.49548539
v -1.198794 2.09215736 -0.00513142
v -1.10754096 2.09215736 0.48522257
v -0.84767502 2.09215736 0.90092456
v -0.45875799 2.09215736 1.17868757
v 0 2.09215736 1.27622461
v 0.45875901 2.09215736 1.17868757
v 0.84767597 2.09215736 0.90092456
v 1.10754203 2.09215736 0.48522257
v 1.198794 2.09215736 -0.00513142
v 1.10754203 2.09215736 -0.49548539
v 0.84767597 2.09215736 -0.91118741
v 0.45875799 2.09215736 -1.18895041
v -0.474294 2.0141654 -1.22903847
v 0 2.0141654 -1.3298794
v -0.87638002 2.0141654 -0.94186937
v -1.14504599 2.01416444 -0.51209038
v -1.23938894 2.01416444 -0.00513142
v -1.14504599 2.01416444 0.50182855
v -0.87638002 2.01416444 0.93160665
v -0.474294 2.01416444 1.21877563
v 0 2.0141654 1.31961464
v 0.474294 2.0141654 1.21877455
v 0.87638098 2.0141654 0.93160665
v 1.14504694 2.0141654 0.50182759
v 1.23938894 2.0141654 -0.00513142
v 1.14504599 2.0141654 -0.51209038
v 0.87638002 2.0141654 -0.94186937
v 0.47429299 2.0141654 -1.22903847
v -0.48855599 1.93137049 -1.26584148
v 0 1.93137049 -1.36971437
v -0.90273302 1.93137049 -0.9700374
v -1.17947804 1.93136954 -0.52733439
v -1.27665805 1.93136954 -0.00513142
v -1.17947804 1.93136954 0.51707255
v -0.90273302 1.93136954 0.95977461
v -0.48855599 1.93137049 1.25557756
v 0 1.93137049 1.35944962
v 0.48855599 1.93137049 1.25557756
v 0.90273398 1.93137049 0.95977354
v 1.179479 1.93137049 0.5170716
v 1.27665805 1.93137049 -0.00513142
v 1.17947804 1.93137049 -0.52733439
v 0.90273302 1.93137049 -0.9700374
v 0.48855501 1.93137049 -1.26584243
v -0.50277298 1.84325254 -1.30252838
v 0 1.84325254 -1.40942442
v -0.929003 1.84325254 -0.99811637
v -1.21380102 1.84325254 -0.54253041
v -1.31380903 1.84325146 -0.00513142
v -1.21380102 1.84325146 0.53226864
v -0.929003 1.84325254 0.98785364
v -0.50277298 1.84325254 1.29226458
v 0 1.84325254 1.39915955
v 0.50277298 1.84325254 1.29226458
v 0.929003 1.84325254 0.98785364
v 1.21380198 1.84325254 0.53226864
v 1.31380903 1.84325254 -0.00513142
v 1.21380102 1.84325254 -0.54253143
v 0.929003 1.84325254 -0.99811637
v 0.50277197 1.84325254 -1.30252933
v -0.51714497 1.75194549 -1.33961534
v 0 1.75194549 -1.44956731
v -0.95555901 1.75194656 -1.02650141
v -1.24849796 1.75194549 -0.55789238
v -1.35136497 1.75194549 -0.00513142
v -1.24849796 1.75194549 0.54763054
v -0.95555901 1.75194656 1.01623857
v -0.51714497 1.75194656 1.32935261
v 0 1.75194656 1.43930363
v 0.51714497 1.75194656 1.32935261
v 0.95556002 1.75194656 1.01623857
v 1.24849903 1.75194656 0.54763054
v 1.35136604 1.75194656 -0.00513142
v 1.24849903 1.75194656 -0.55789339
v 0.95555901 1.75194656 -1.02650237
v 0.51714497 1.75194549 -1.33961641
v -0.53162002 1.65926754 -1.37696743
v 0 1.65926754 -1.48999643
v -0.98230499 1.65926754 -1.05508947
v -1.28344297 1.65926647 -0.57336437
v -1.389189 1.65926647 -0.00513142
v -1.28344297 1.65926647 0.56310164
v -0.98230499 1.65926754 1.04482555
v -0.53162002 1.65926754 1.36670362
v 0 1.65926754 1.47973263
v 0.53162002 1.65926754 1.36670362
v 0.98230499 1.65926754 1.04482555
v 1.28344404 1.65926754 0.56310164
v 1.38918995 1.65926754 -0.00513142
v 1.28344404 1.65926754 -0.57336437
v 0.98230499 1.65926754 -1.05508947
v 0.53162002 1.65926754 -1.37696743
v -0.546135 1.56613349 -1.41442441
v 0 1.56613349 -1.53053939
v -1.00912594 1.56613349 -1.0837574
v -1.31848597 1.56613349 -0.5888794
v -1.42711997 1.56613349 -0.00513142
v -1.31848597 1.56613349 0.57861661
v -1.00912594 1.56613349 1.07349455
v -0.546135 1.56613349 1.40416061
v 0 1.56613349 1.52027571
v 0.546135 1.56613349 1.40416061
v 1.00912594 1.56613457 1.0734936
v 1.31848704 1.56613349 0.57861661
v 1.42711997 1.56613349 -0.00513142
v 1.31848704 1.56613349 -0.5888794
v 1.00912594 1.56613457 -1.0837574
v 0.546135 1.56613457 -1.41442441
v -0.56066399 1.47286546 -1.45191741
v 0 1.47286546 -1.57112145
v -1.03597295 1.47286653 -1.11245346
v -1.35356295 1.47286653 -0.60440939
v -1.46508705 1.47286653 -0.00513142
v -1.35356402 1.47286653 0.59414756
v -1.03597295 1.47286653 1.10219061
v -0.56066501 1.47286653 1.4416536
v 0 1.47286546 1.5608567
v 0.56066501 1.47286653 1.44165265
v 1.03597295 1.47286653 1.10218954
v 1.35356402 1.47286653 0.5941466
v 1.46508705 1.47286546 -0.00513142
v 1.35356402 1.47286546 -0.60440939
v 1.03597295 1.47286653 -1.11245346
v 0.56066501 1.47286653 -1.45191741
v -0.57519698 1.37957155 -1.48941838
v 0 1.37957155 -1.61171245
v -1.06282496 1.37957251 -1.14115548
v -1.38864803 1.37957155 -0.61994338
v -1.50306201 1.37957155 -0.00513142
v -1.38864803 1.37957251 0.60968065
v -1.06282496 1.37957251 1.13089156
v -0.57519698 1.37957251 1.47915351
v 0 1.37957251 1.6014477
v 0.57519698 1.37957251 1.47915351
v 1.06282603 1.37957251 1.13089156
v 1.38864803 1.37957251 0.60967958
v 1.50306201 1.37957251 -0.00513142
v 1.38864803 1.37957155 -0.61994338
v 1.06282603 1.37957251 -1.14115548
v 0.57519698 1.37957251 -1.48941838
v -0.589733 1.28625655 -1.52692842
v 0 1.28625655 -1.65231239
v -1.08968401 1.28625655 -1.16986346
v -1.42374098 1.28625655 -0.63547939
v -1.54104602 1.28625655 -0.00513142
v -1.42374098 1.28625655 0.62521755
v -1.08968401 1.28625655 1.15960061
v -0.589733 1.28625655 1.51666367
v 0 1.28625655 1.64204752
v 0.589733 1.28625655 1.51666367
v 1.08968496 1.28625655 1.15959954
v 1.42374098 1.28625655 0.62521755
v 1.54104697 1.28625655 -0.00513142
v 1.42374098 1.28625655 -0.6354804
v 1.08968496 1.28625655 -1.16986441
v 0.589733 1.28625655 -1.52692842
v -0.60427302 1.19292044 -1.56444943
v 0 1.19292044 -1.69292545
v -1.11655104 1.19292044 -1.19858145
v -1.45884394 1.19292044 -0.65102142
v -1.579041 1.19292044 -0.00513142
v -1.45884394 1.19292044 0.64075863
v -1.11655104 1.19292044 1.18831753
v -0.60427302 1.19292044 1.55418455
v 0 1.19292044 1.6826595
v 0.60427397 1.19292044 1.55418455
v 1.11655199 1.19292044 1.18831753
v 1.45884501 1.19292044 0.64075958
v 1.57904195 1.19292044 -0.00513142
v 1.45884501 1.19291949 -0.65102243
v 1.11655104 1.19291949 -1.19858241
v 0.60427302 1.19292044 -1.56444943
v -0.61882901 1.0995115 -1.60201144
v 0 1.0995115 -1.73358142
v -1.14344704 1.0995115 -1.22732949
v -1.49398505 1.0995115 -0.66658037
v -1.61707794 1.0995115 -0.00513142
v -1.49398505 1.0995115 0.65631759
v -1.14344704 1.0995115 1.21706557
v -0.61882901 1.0995115 1.59174668
v 0 1.0995115 1.72331655
v 0.61883002 1.0995115 1.59174668
v 1.14344799 1.0995115 1.21706557
v 1.49398601 1.0995115 0.65631759
v 1.61707902 1.0995115 -0.00513142
v 1.49398601 1.0995115 -0.66658037
v 1.14344704 1.0995115 -1.22733044
v 0.61882901 1.0995115 -1.60201144
v -0.63344997 1.00580859 -1.63973844
v 0 1.00580859 -1.7744174
v -1.17046201 1.00580859 -1.25620532
v -1.52928197 1.00580859 -0.6822074
v -1.65528297 1.00580859 -0.00513142
v -1.52928197 1.00580859 0.67194461
v -1.17046201 1.00580954 1.24594163
v -0.63344901 1.00580859 1.62947356
v 0 1.00580859 1.76415169
v 0.63344997 1.00580954 1.62947356
v 1.17046201 1.00580954 1.24594056
v 1.52928197 1.00580859 0.67194354
v 1.65528297 1.00580859 -0.00513142
v 1.52928197 1.00580859 -0.6822074
v 1.17046201 1.00580859 -1.25620436
v 0.63344997 1.00580859 -1.63973736
v -0.648265 0.91126549 -1.67796742
v 0 0.91126549 -1.81579637
v -1.19783604 0.91126549 -1.2854644
v -1.56504702 0.91126549 -0.69804239
v -1.69399499 0.91126549 -0.00513142
v -1.56504702 0.91126549 0.68777954
v -1.19783496 0.9112665 1.27519965
v -0.64826399 0.91126549 1.6677016
v 0 0.91126549 1.80552971
v 0.64826399 0.9112665 1.6677016
v 1.19783604 0.9112665 1.27519965
v 1.56504797 0.91126549 0.68777859
v 1.69399595 0.91126549 -0.00513142
v 1.56504797 0.91126549 -0.69804239
v 1.19783604 0.91126549 -1.28546333
v 0.64826399 0.91126549 -1.67796635
v -0.663585 0.81468552 -1.71750342
v 0 0.81468552 -1.85859036
v -1.22614598 0.81468552 -1.31572437
v -1.60203599 0.81468552 -0.71441841
v -1.73403096 0.81468552 -0.00513142
v -1.60203599 0.81468552 0.70415556
v -1.22614502 0.81468552 1.30545961
v -0.663585 0.81468552 1.7072376
v 0 0.81468552 1.8483237
v 0.663585 0.81468653 1.70723664
v 1.22614598 0.81468653 1.30545854
v 1.60203695 0.81468552 0.70415461
v 1.73403203 0.81468552 -0.00513142
v 1.60203695 0.81468552 -0.71441841
v 1.22614502 0.81468552 -1.31572437
v 0.663585 0.81468552 -1.71750342
v -0.67993402 0.71449947 -1.7596904
v 0 0.71449947 -1.90425241
v -1.25635397 0.71449947 -1.34801244
v -1.641505 0.71449852 -0.7318924
v -1.77675199 0.71449852 -0.00513142
v -1.641505 0.71449852 0.72162962
v -1.25635397 0.71449852 1.33774757
v -0.67993402 0.71449852 1.74942457
v 0 0.71449852 1.89398562
v 0.67993402 0.71449947 1.74942457
v 1.25635397 0.71449947 1.33774757
v 1.64150595 0.71449947 0.72162962
v 1.77675294 0.71449947 -0.00513142
v 1.641505 0.71449947 -0.73189342
v 1.25635302 0.71449852 -1.34801244
v 0.67993301 0.71449947 -1.7596904
v -0.69792997 0.59816348 -1.80612945
v 0 0.59816348 -1.95451736
v -1.28960704 0.59816348 -1.38355541
v -1.68495094 0.59816348 -0.75112938
v -1.82377803 0.59816348 -0.00513142
v -1.68495094 0.59816348 0.74086654
v -1.28960704 0.59816348 1.37329161
v -0.69792997 0.59816348 1.7958647
v 0 0.59816348 1.94425261
v 0.69793099 0.59816253 1.7958647
v 1.28960704 0.59816253 1.37329161
v 1.68495297 0.59816348 0.74086558
v 1.82377898 0.59816348 -0.00513142
v 1.68495202 0.59816348 -0.75112938
v 1.28960704 0.59816348 -1.38355636
v 0.69792997 0.59816348 -1.80612945
v -0.72010797 0.37664049 -1.86335837
v 0 0.37664049 -2.01646041
v -1.330585 0.37664049 -1.42735648
v -1.73849201 0.37664049 -0.77483439
v -1.88172996 0.37664049 -0.00513142
v -1.73820304 0.37664753 0.76464462
v -1.32814395 0.37670153 1.41770565
v -0.71468901 0.37679052 1.85459864
v 0 0.3767625 2.00742054
v 0.71468901 0.37678951 1.85459864
v 1.32814598 0.37670153 1.41770458
v 1.738204 0.37664753 0.76464355
v 1.88173103 0.37664049 -0.00513142
v 1.73849296 0.37664049 -0.77483439
v 1.33058595 0.37664049 -1.42735648
v 0.72010797 0.37664049 -1.86335837
v -0.75699102 -0.06237849 -1.9585334
v 0 -0.06237849 -2.11947822
v -1.398736 -0.06237849 -1.50020039
v -1.82753598 -0.06237849 -0.81425738
v -1.97811102 -0.06237849 -0.00513142
v -1.82475101 -0.06232547 0.80460655
v -1.37106394 -0.06570348 1.49728167
v -0.68638002 -0.07881748 1.96939361
v -0.000005 -0.07316547 2.11869859
v 0.686369 -0.07881349 1.96939361
v 1.37106204 -0.06570249 1.49728047
v 1.82475101 -0.06232547 0.8046056
v 1.97811102 -0.06237849 -0.00513142
v 1.82753694 -0.06237849 -0.81425738
v 1.398736 -0.06237849 -1.50020039
v 0.75699102 -0.06237849 -1.9585334
v -0.45810601 -0.71718549 2.5144124
v -0.000046 -0.62746751 2.63788175
v 0.457942 -0.7171235 2.51441574
v 1.98027896 -0.44900846 0.87672054
v 2.15288591 -0.44908446 -0.00513142
v 1.98903298 -0.44908148 -0.88556039
v 1.52238798 -0.44907546 -1.63199842
v 0.82393699 -0.4490695 -2.13079834
v 0 -0.44906646 -2.30596542
v -1.42567801 -0.46711051 1.64533054
v -0.41551899 -0.70434451 2.2958126
v -0.000046 -0.53544247 2.28031873
v 0.415353 -0.70428848 2.29581356
v 1.42566394 -0.4671055 1.64532959
v -0.82393699 -0.4490695 -2.13079834
v -1.52238702 -0.44907546 -1.63199842
v -1.98903203 -0.44908148 -0.88556039
v -2.15288496 -0.44908446 -0.00513142
v -1.98027801 -0.44900947 0.87672162
v -0.000001 2.17647266 -1.60057437
v -1.05545699 2.17647266 -1.13327932
v -0.57121002 2.17647266 -1.4791274
v -1.37902104 2.17647266 -0.61568039
v -1.49264097 2.17647266 -0.00513142
v -1.05545699 2.17647266 1.12301564
v -1.37901997 2.17647266 0.6054176
v -0.57120901 2.17647266 1.4688636
v 0.57120901 2.17647266 1.4688636
v 1.37902104 2.17647266 0.6054176
v 1.05545699 2.17647266 1.12301564
v 1.49264204 2.17647266 -0.00513142
v 1.05545699 2.17647266 -1.13327932
v 1.37902104 2.17647266 -0.61568141
v 0.57120901 2.17647266 -1.4791274
v 0 2.17647266 1.5903095
v -0.000001 2.43182134 -1.36850738
v -0.90193498 2.43182134 -0.96918344
v -0.48812401 2.43182134 -1.2647264
v -1.17843401 2.43182134 -0.52687239
v -1.27552795 2.43182134 -0.00513142
v -0.90193402 2.43182134 0.95892059
v -1.17843401 2.43182134 0.51660955
v -0.48812401 2.43182134 1.2544626
v 0.488123 2.43182134 1.2544626
v 1.17843401 2.43182134 0.51660955
v 0.90193402 2.43182134 0.95892059
v 1.27552795 2.43182134 -0.00513142
v 0.90193498 2.43182134 -0.96918344
v 1.17843401 2.43182134 -0.52687239
v 0.488123 2.43182134 -1.2647264
v 0 2.43182134 1.35824358
v -0.000001 2.67706155 -1.12603545
v -0.74152898 2.67706155 -0.79772937
v -0.401313 2.67706155 -1.0407114
v -0.96885401 2.67706155 -0.43408238
v -1.04867994 2.67706155 -0.00513142
v -0.74152898 2.67706155 0.78746759
v -0.96885299 2.67706155 0.4238196
v -0.401313 2.67706155 1.03044855
v 0.40131199 2.67706155 1.03044855
v 0.96885401 2.67706155 0.4238196
v 0.74152797 2.67706155 0.78746759
v 1.04867994 2.67706155 -0.00513142
v 0.74152898 2.67706155 -0.79773038
v 0.96885401 2.67706155 -0.43408238
v 0.40131199 2.67706155 -1.0407114
v 0 2.67706155 1.1157726
v -1.58140695 0.7697345 1.68481862
v -0.855879 0.76974052 -2.21322155
v 2.06614494 0.76972854 -0.91970139
v 0 0.7697435 -2.39517927
v -1.58140695 0.7697345 -1.69508242
v -2.06614494 0.76972854 -0.91970139
v -2.23635196 0.76972651 -0.00513142
v -2.06614399 0.76972854 0.90943861
v -0.85587799 0.76974052 2.20295763
v 0.855879 0.76974052 2.20295858
v 2.06614494 0.76972854 0.90943753
v 1.58140802 0.7697345 1.68481862
v 2.23635292 0.76972651 -0.00513142
v 1.58140695 0.7697345 -1.69508338
v 0.855879 0.76974052 -2.21322155
v 0 0.7697435 2.38491678
v -0.64452701 1.90744149 -1.66832244
v 0 1.90744149 -1.80535745
v -0.64452701 1.90744149 1.65805757
v -1.19092905 1.90744149 1.26781857
v 1.55602502 1.90744149 -0.6940484
v 1.68422901 1.90744149 -0.00513142
v 0.64452701 1.90744149 1.65805757
v 0 1.90744149 1.79509151
v -1.68422901 1.90744149 -0.00513142
v -1.55602395 1.90744149 -0.69404739
v 0.644526 1.90744149 -1.66832244
v 1.19093 1.90744149 -1.27808237
v 1.55602502 1.90744149 0.6837846
v 1.19093 1.90744149 1.26781857
v -1.55602395 1.90744149 0.6837846
v -1.19093 1.90744149 -1.27808237
v -1.73133695 -0.31744247 1.89544665
v -0.83694899 -0.32666647 2.48771762
v -0.928357 0.23355051 2.44923543
v -1.75330698 0.2337965 1.87202966
v -2.32529211 -0.31466049 1.02148056
v -2.30409407 0.23388251 1.01008355
v -0.000005 -0.32438248 2.69236278
v 0.83693701 -0.32666248 2.48771762
v 0.928357 0.23355051 2.44923543
v 0 0.2337585 2.65229272
v -2.33120107 -0.31453847 -1.03168642
v -2.52250003 -0.3146075 -0.00513142
v -2.49478697 0.23384951 -0.00513142
v -2.30559802 0.23391751 -1.02035045
v 0 -0.3141185 -2.69224262
v -0.967103 -0.31419348 -2.48694658
v -0.95649802 0.23426251 -2.45957946
v 0 0.2343375 -2.66262149
v -1.78557598 -0.3143695 -1.90327239
v -1.76598095 0.23408651 -1.88232743
v 2.32529211 -0.31465947 1.0214796
v 2.52250003 -0.31460648 -0.00513142
v 2.49478793 0.23384951 -0.00513142
v 2.30409407 0.23388251 1.0100826
v 1.73133504 -0.31744146 1.8954457
v 1.75330805 0.2337965 1.8720287
v 1.78557705 -0.3143695 -1.90327239
v 0.967103 -0.31419348 -2.48694658
v 0.95649802 0.23426251 -2.45957946
v 1.76598203 0.23408651 -1.88232743
v 2.33120203 -0.31453847 -1.03168535
v 2.30559897 0.23391751 -1.02035045
v -0.763525 -2.98265028 2.30972766
v -0.00674 -3.34772253 2.33969259
v 0.64983499 -3.02485036 2.3141098
v -0.001465 -1.7747904 2.64826345
v -0.42498999 -1.76124656 2.2833786
v -0.00144 -1.77623736 2.3630886
v 0.422506 -1.76131737 2.28336048
v -0.000158 -0.82601344 2.61610651
v -0.000322 -1.04942953 2.62034368
v -0.000538 -1.28126144 2.62832975
v -0.000867 -1.51729047 2.63748979
v -0.41113799 -0.8234955 2.29339647
v -0.403411 -1.04471254 2.28900575
v -0.397051 -1.27879345 2.28478765
v -0.397794 -1.51549744 2.28199863
v -0.000159 -0.81444048 2.33357667
v -0.000323 -1.04775345 2.34295368
v -0.000536 -1.28089749 2.34898138
v -0.000857 -1.51809549 2.35594844
v 0.410813 -0.82338845 2.29339981
v 0.40276399 -1.04451751 2.28901243
v 0.395976 -1.27853751 2.28479576
v 0.396115 -1.51528143 2.28200054
v -0.002464 -2.07620668 2.65995454
v -0.003491 -2.39282655 2.67115259
v -0.004353 -2.72506856 2.67410659
v -0.005229 -3.08269453 2.66511678
v 0.50189197 -2.02364158 2.29202365
v 0.61531001 -2.28620767 2.30431652
v 0.73497301 -2.52530145 2.3111267
v 0.80983501 -2.7389884 2.30727338
v -0.002413 -2.07813358 2.3682847
v -0.003399 -2.39648628 2.37331962
v -0.004191 -2.7226367 2.37268447
v -0.005007 -3.05714225 2.35924959
v -0.505207 -2.02292871 2.29211139
v -0.61914598 -2.28485536 2.30466175
v -0.73888897 -2.52433967 2.31216859
v -0.81411999 -2.73995447 2.30937957
v -0.000001 0.16603452 2.81622552
v 0.97919601 0.1617515 2.59855842
v 0.96094501 0.23514951 2.52374267
v 0 0.23799651 2.73482036
v -1.86254704 0.15830951 1.98592364
v -0.97919702 0.16175252 2.59855842
v -0.96094399 0.23515051 2.52374267
v -1.81140697 0.2340255 1.92930257
v -2.45309996 0.16292652 1.07093262
v -2.37972211 0.2364865 1.04077065
v -2.4555881 0.16597451 -1.07902038
v -2.65578103 0.16551652 -0.00485342
v -2.57597398 0.23779051 -0.00498741
v -2.38127088 0.23806051 -1.04985642
v 0 0.1669135 -2.8245635
v -1.02145803 0.16674351 -2.60773658
v -0.98941397 0.23863351 -2.53442239
v 0 0.23875951 -2.74451351
v -1.88331294 0.16634851 -1.9931494
v -1.82529902 0.23833951 -1.93817937
v 2.45310211 0.16292652 1.07093155
v 2.65578198 0.16551652 -0.00485342
v 2.57597494 0.23779051 -0.00498741
v 2.37972307 0.2364865 1.04076957
v 1.86254704 0.1583085 1.98592269
v 1.81140899 0.2340255 1.92930257
v 1.88331401 0.1663475 -1.99314844
v 1.02145898 0.16674351 -2.60773658
v 0.98941397 0.23863351 -2.53442239
v 1.82529997 0.23833851 -1.93817937
v 2.45559001 0.16597351 -1.07902038
v 2.38127303 0.23805952 -1.04985642
v -0.000005 -0.31846547 2.80758237
v 0.88264101 -0.32441949 2.59221077
v -1.81274998 -0.3171215 1.97570169
v -0.88265198 -0.32442247 2.59221077
v -2.43123793 -0.3110125 1.06446957
v -2.43733501 -0.30872845 -1.07306838
v -2.63638401 -0.30907851 -0.00493037
v 0 -0.30793047 -2.8068223
v -1.01317894 -0.30807548 -2.59171247
v -1.86869502 -0.30841046 -1.98153543
v 2.43123889 -0.31101149 1.06446862
v 2.63638401 -0.30907851 -0.00493037
v 1.81274795 -0.3171215 1.97570049
v 1.86869597 -0.30841147 -1.98153436
v 1.01317894 -0.30807548 -2.59171247
v 2.43733501 -0.30872947 -1.07306742
v 0.90696001 -0.28090751 2.62896537
v -0.000005 -0.27303147 2.84774637
v -0.90697002 -0.28091049 2.62896537
v -1.84532702 -0.27374947 2.00427866
v -2.46968889 -0.26634848 1.07985162
v -2.67746996 -0.26370948 -0.00485342
v -2.47562599 -0.26325446 -1.08789134
v -1.02975797 -0.26250147 -2.6291542
v 0 -0.26233446 -2.84774637
v -1.89864802 -0.26288849 -2.00954151
v 2.67746996 -0.26370948 -0.00485342
v 2.46969103 -0.26634848 1.07985055
v 1.84532499 -0.27374947 2.0042777
v 1.02975797 -0.26250147 -2.6291542
v 1.89864897 -0.2628895 -2.00954055
v 2.47562694 -0.26325547 -1.08789134
v -1.50168895 -0.51131349 1.72902548
v -0.437238 -0.71089351 2.40729856
v 2.27060604 -0.4954735 -0.00513142
v 2.0979011 -0.49546051 -0.93291044
v -2.09789991 -0.49546051 -0.93291044
v -2.27060389 -0.4954735 -0.00513142
v 0 -0.49566149 -2.43115234
v -0.869259 -0.49539548 -2.24564647
v 2.08830595 -0.49548649 0.92364561
v 1.60591805 -0.4954285 -1.71969139
v 0.869259 -0.49539548 -2.24564647
v -2.08830595 -0.49548649 0.92364764
v 0.43707299 -0.7108345 2.40730047
v 1.50167596 -0.51130849 1.72902452
v -1.60591697 -0.4954285 -1.71969234
v -1.64172899 -0.45266348 1.84623754
v -2.25530099 -0.43314546 0.99376261
v -2.45016694 -0.43209648 -0.00513142
v -2.26405596 -0.43217545 -1.00388836
v -0.93862801 -0.43255746 -2.41827249
v 0 -0.43263751 -2.61754417
v -1.73358297 -0.43236547 -1.85132038
v 2.45016789 -0.43209546 -0.00513142
v 2.25530099 -0.43314546 0.99376058
v 1.64172005 -0.45266151 1.84623563
v 0.93862801 -0.43255746 -2.41827154
v 1.73358404 -0.43236649 -1.85131943
v 2.26405596 -0.43217545 -1.00388741
v -0.79083198 -2.9785366 2.49916744
v -0.006878 -3.39250946 2.5328536
v 0.67324799 -3.0309906 2.50214767
v -0.33059299 -0.83224046 2.54550266
v -0.324191 -1.05167245 2.55334043
v -0.31939899 -1.28265345 2.56274175
v -0.32161399 -1.51685249 2.57304239
v -0.349886 -1.76428353 2.58468437
v -0.433272 -0.8291465 2.40846443
v -0.426317 -1.04870045 2.41071844
v -0.42077198 -1.28103852 2.41351842
v -0.42334398 -1.51612651 2.42332983
v -0.45233801 -1.7608484 2.43713235
v 0.43294999 -0.82903254 2.40846777
v 0.42567101 -1.04849243 2.41072559
v 0.41969698 -1.28076243 2.41352653
v 0.42165499 -1.51588249 2.42333078
v 0.44981598 -1.76087343 2.43710851
v 0.33027198 -0.83215153 2.54550552
v 0.32354599 -1.05151248 2.55334472
v 0.318322 -1.28244149 2.56274747
v 0.31991601 -1.51665854 2.57304239
v 0.347332 -1.76427257 2.58465242
v 0.427459 -2.03520345 2.59801673
v 0.54220598 -2.30491733 2.61281538
v 0.66492199 -2.55094242 2.62135744
v 0.74438899 -2.77679634 2.6204977
v 0.64035201 -2.98623371 2.62723445
v -0.006316 -3.29442071 2.65962743
v 0.530487 -2.02344226 2.45515966
v 0.644939 -2.28543472 2.47462272
v 0.76553201 -2.5216856 2.48685169
v 0.84047198 -2.7330594 2.48859453
v -0.53389698 -2.02281761 2.45526361
v -0.648952 -2.28424644 2.47501468
v -0.76972299 -2.52100229 2.48799276
v -0.84510302 -2.73440361 2.49083948
v -0.430956 -2.03480148 2.59813261
v -0.54638302 -2.30412769 2.61316967
v -0.66934299 -2.55069541 2.62234783
v -0.74925798 -2.77848959 2.6224575
v -0.72633802 -2.91715431 2.62464475
g Group10419
f 84 83 82
g Group10
f 1 2 3
g Group10419
f 84 82 85
g Group10
f 4 1 3
g Group10419
f 84 85 86
g Group10
f 5 4 3
g Group10419
f 100 116 115 99
g Group10
f 536 541 26 25
g Group10419
f 84 88 89
g Group10
f 8 7 3
g Group10419
f 358 374 375 359
g Group10
f 9 8 3
f 470 472 534 535
g Group44703
f 452 451 551 556
f 74 75 558 559
g Group10
f 512 511 495 496
g Group10419
f 158 174 175 159
f 238 254 255 239
f 84 93 94
g Group10
f 13 12 3
g Group10419
f 164 180 179 163
f 391 407 408 392
g Group10
f 29 30 46 45
g Group10419
f 389 405 406 390
f 84 96 97
g Group10
f 16 15 3
g Group10419
f 84 97 98
g Group10
f 17 16 3
g Group10419
f 84 98 83
g Group10
f 2 17 3
g Group10419
f 424 440 441 425
f 153 169 170 154
f 82 99 101 85
f 116 132 131 115
f 85 101 102 86
f 137 153 154 138
f 398 414 415 399
g Group10
f 57 58 533 526
g Group10419
f 87 103 104 88
f 121 137 138 122
f 88 104 105 89
g Group10
f 523 524 70 69
g Group10419
f 409 425 426 410
f 105 121 122 106
f 378 394 395 379
f 270 286 287 271
f 92 108 109 93
f 89 105 106 90
f 93 109 110 94
g Group10
f 10 9 3
g Group10419
f 387 403 405 389
f 84 90 91
f 106 122 123 107
f 382 398 399 383
f 96 112 113 97
f 84 89 90
f 97 113 114 98
f 426 442 443 427
f 98 114 100 83
g Group10
f 515 514 498 499
g Group10419
f 138 154 155 139
f 423 439 440 424
f 99 115 117 101
f 393 409 410 394
f 101 117 118 102
g Group10
f 56 57 526 518
g Group10419
f 347 363 364 348
f 377 393 394 378
f 103 119 120 104
f 442 461 462 443
f 104 120 121 105
f 361 377 378 362
g Group10
f 475 477 536 537
f 65 51 521 532
g Group10419
f 430 446 447 431
f 345 361 362 346
g Group10
f 513 515 499 497
f 511 513 497 495
g Group10419
f 108 124 125 109
g Group10
f 40 41 57 56
g Group10419
f 109 125 126 110
f 329 345 346 330
f 386 402 388 372
f 276 292 291 275
f 362 378 379 363
f 313 329 330 314
f 112 128 129 113
f 421 437 438 422
f 113 129 130 114
f 297 313 314 298
f 114 130 116 100
g Group10
f 481 483 538 539
g Group10419
f 115 131 133 117
f 117 133 134 118
f 438 467 468 439
g Group10
f 507 509 493 491
g Group10419
f 119 135 136 120
g Group10
f 64 65 532 531
g Group10419
f 120 136 137 121
f 419 435 437 421
f 385 401 402 386
f 222 238 239 223
f 90 106 107 91
g Group10
f 63 64 531 520
g Group10419
f 354 370 356 340
f 124 140 141 125
f 422 438 439 423
f 125 141 142 126
f 440 469 460 441
g Group10
f 15 14 3
f 532 521 67 81
g Group10419
f 207 223 224 208
f 128 144 145 129
f 406 422 423 407
f 129 145 146 130
f 235 251 252 236
f 130 146 132 116
g Group10
f 531 532 81 80
g Group10419
f 84 95 96
f 159 175 176 160
f 131 147 149 133
f 310 326 327 311
f 133 149 150 134
f 384 400 401 385
g Group10
f 61 62 530 528
f 520 531 80 79
g Group10419
f 135 151 152 136
f 436 459 465 435
f 136 152 153 137
f 294 310 311 295
f 286 302 303 287
g Group10
f 529 528 77 76
f 498 500 484 482
f 500 486 470 484
g Group10419
f 140 156 157 141
f 278 294 295 279
f 141 157 158 142
g Group10
f 527 529 76 75
g Group10419
f 372 388 387 371
f 314 330 331 315
g Group10
f 525 518 72 71
f 21 22 38 37
g Group10419
f 144 160 161 145
f 262 278 279 263
f 145 161 162 146
f 146 162 148 132
g Group10
f 524 525 71 70
f 60 61 528 529
g Group10419
f 439 468 469 440
f 147 163 165 149
f 166 182 183 167
f 149 165 166 150
f 418 434 420 404
f 381 397 398 382
f 150 166 167 151
f 151 167 168 152
g Group10
f 522 523 69 68
g Group10419
f 152 168 169 153
g Group10
f 519 522 68 66
g Group10419
f 417 433 434 418
f 431 447 448 432
f 134 150 151 135
f 86 87 84
g Group10
f 59 60 529 527
g Group10419
f 156 172 173 157
f 363 379 380 364
f 157 173 174 158
f 416 432 433 417
f 380 396 397 381
f 118 134 135 119
f 281 297 298 282
f 160 176 177 161
f 201 217 218 202
f 161 177 178 162
g Group10
f 24 25 41 40
g Group10419
f 162 178 164 148
f 102 118 119 103
f 123 139 140 124
f 163 179 181 165
f 428 444 445 429
f 165 181 182 166
f 437 466 467 438
g Group10
f 493 501 485 477
g Group10419
f 415 431 432 416
f 167 183 184 168
f 302 318 319 303
f 168 184 185 169
f 432 448 449 433
f 154 170 171 155
g Group10
f 510 512 496 494
g Group10419
f 399 415 416 400
f 427 443 444 428
f 298 314 315 299
f 172 188 189 173
g Group10
f 489 490 474 473
g Group10419
f 173 189 190 174
g Group10
f 62 63 520 530
g Group10419
f 292 308 307 291
f 383 399 400 384
g Group10
f 530 520 79 78
g Group10419
f 388 404 403 387
f 176 192 193 177
g Group10
f 473 474 542 543
g Group10419
f 177 193 194 178
f 170 186 187 171
f 178 194 180 164
f 367 383 384 368
f 435 465 466 437
f 179 195 197 181
g Group10
f 1 4 503 504
g Group10419
f 181 197 198 182
g Group10
f 4 5 505 503
g Group10419
f 251 267 268 252
f 335 351 352 336
f 183 199 200 184
g Group10
f 6 7 508 506
g Group10419
f 184 200 201 185
g Group10
f 7 8 507 508
g Group10419
f 94 110 111 95
f 260 276 275 259
f 267 283 284 268
f 346 362 363 347
g Group10
f 26 27 43 42
f 55 56 518 525
g Group10419
f 188 204 205 189
g Group10
f 11 12 512 510
g Group10419
f 189 205 206 190
g Group10
f 12 13 511 512
g Group10419
f 376 392 393 377
g Group10
f 54 55 525 524
g Group10419
f 375 391 392 376
g Group10
f 495 497 481 479
g Group10419
f 192 208 209 193
g Group10
f 15 16 514 515
g Group10419
f 193 209 210 194
g Group10
f 16 17 516 514
g Group10419
f 194 210 196 180
g Group10
f 17 2 502 516
g Group10419
f 110 126 127 111
f 244 260 259 243
f 195 211 213 197
f 287 303 304 288
f 197 213 214 198
g Group10
f 484 470 535 544
f 492 491 475 476
f 482 484 544 545
g Group10419
f 199 215 216 200
g Group10
f 30 31 47 46
g Group10419
f 200 216 217 201
f 271 287 288 272
g Group10
f 53 54 524 523
f 483 482 545 538
g Group10419
f 413 429 430 414
f 446 454 455 447
f 414 430 431 415
f 420 436 435 419
f 204 220 221 205
f 255 271 272 256
f 205 221 222 206
f 318 334 335 319
f 392 408 409 393
g Group10
f 518 526 73 72
g Group10419
f 182 198 199 183
f 208 224 225 209
f 239 255 256 240
f 209 225 226 210
f 143 159 160 144
f 210 226 212 196
g Group10
f 480 479 546 547
g Group10419
f 219 235 236 220
f 283 299 300 284
f 211 227 229 213
f 353 369 370 354
f 213 229 230 214
f 83 100 99 82
g Group10
f 485 478 540 541
g Group10419
f 412 428 429 413
f 215 231 232 216
f 352 368 369 353
f 216 232 233 217
f 299 315 316 300
f 169 185 186 170
f 139 155 156 140
g Group10
f 14 15 515 513
g Group10419
f 203 219 220 204
f 142 158 159 143
g Group10
f 478 480 547 540
g Group10419
f 220 236 237 221
f 221 237 238 222
g Group10
f 7 6 3
g Group10419
f 308 324 323 307
g Group10
f 52 53 523 522
g Group10419
f 373 389 390 374
f 228 244 243 227
f 224 240 241 225
f 356 372 371 355
f 225 241 242 226
g Group10
f 517 510 494 501
g Group10419
f 226 242 228 212
f 349 365 366 350
f 410 426 427 411
g Group10
f 5 6 506 505
g Group10419
f 227 243 245 229
f 94 95 84
f 229 245 246 230
f 326 342 343 327
f 429 445 446 430
f 127 143 144 128
f 231 247 248 232
g Group10
f 37 38 54 53
g Group10419
f 232 248 249 233
g Group10
f 476 475 537 548
g Group10419
f 366 382 383 367
f 265 281 282 266
g Group10
f 50 52 522 519
g Group10419
f 111 127 128 112
f 371 387 389 373
f 217 233 234 218
f 236 252 253 237
g Group10
f 474 476 548 542
g Group10419
f 237 253 254 238
g Group10
f 533 527 75 74
f 8 9 509 507
g Group10419
f 95 111 112 96
g Group10
f 471 473 543 549
g Group10419
f 214 230 231 215
f 240 256 257 241
g Group10
f 472 471 549 534
g Group10419
f 241 257 258 242
f 425 441 442 426
f 242 258 244 228
f 379 395 396 380
f 122 138 139 123
g Group10
f 41 42 58 57
g Group10419
f 243 259 261 245
f 175 191 192 176
f 245 261 262 246
g Group10
f 494 496 480 478
g Group10419
f 315 331 332 316
f 247 263 264 248
f 351 367 368 352
f 248 264 265 249
f 249 265 266 250
f 186 202 203 187
f 212 228 227 211
g Group10
f 528 530 78 77
f 12 11 3
g Group10419
f 174 190 191 175
g Group10
f 9 10 517 509
g Group10419
f 252 268 269 253
g Group10
f 499 498 482 483
g Group10419
f 253 269 270 254
f 408 424 425 409
f 370 386 372 356
f 206 222 223 207
f 445 464 454 446
f 202 218 219 203
f 256 272 273 257
f 196 212 211 195
f 257 273 274 258
f 324 340 339 323
f 258 274 260 244
g Group10
f 14 13 3
g Group10419
f 86 102 103 87
f 259 275 277 261
g Group10
f 18 20 36 34
g Group10419
f 261 277 278 262
g Group10
f 20 21 37 36
f 45 46 62 61
g Group10419
f 407 423 424 408
f 263 279 280 264
g Group10
f 22 23 39 38
g Group10419
f 264 280 281 265
g Group10
f 23 24 40 39
g Group10419
f 190 206 207 191
f 330 346 347 331
f 348 364 365 349
f 218 234 235 219
f 369 385 386 370
g Group10
f 516 502 486 500
g Group10419
f 268 284 285 269
g Group10
f 27 28 44 43
g Group10419
f 269 285 286 270
g Group10
f 28 29 45 44
f 2 1 504 502
g Group10419
f 368 384 385 369
f 223 239 240 224
f 272 288 289 273
g Group10
f 31 32 48 47
g Group10419
f 273 289 290 274
g Group10
f 32 33 49 48
g Group10419
f 274 290 276 260
g Group10
f 33 19 35 49
f 13 14 513 511
g Group10419
f 390 406 407 391
f 275 291 293 277
g Group10
f 35 34 50 51
g Group10419
f 277 293 294 278
f 444 463 464 445
g Group10
f 477 485 541 536
f 509 517 501 493
g Group10419
f 279 295 296 280
g Group10
f 6 5 3
g Group10419
f 280 296 297 281
f 405 421 422 406
f 319 335 336 320
f 126 142 143 127
g Group10
f 490 492 476 474
g Group10419
f 433 449 450 434
f 447 455 456 448
f 284 300 301 285
g Group10
f 19 18 34 35
g Group10419
f 285 301 302 286
f 365 381 382 366
g Group10
f 501 494 478 485
g Group10419
f 234 250 251 235
f 180 196 195 179
f 288 304 305 289
f 403 419 421 405
f 289 305 306 290
f 148 164 163 147
f 290 306 292 276
f 250 266 267 251
f 91 92 84
g Group10
f 488 487 471 472
g Group10419
f 291 307 309 293
f 334 350 351 335
f 293 309 310 294
f 402 418 404 388
g Group10
f 502 504 488 486
g Group10419
f 295 311 312 296
g Group10
f 479 481 539 546
g Group10419
f 296 312 313 297
f 230 246 247 231
f 107 123 124 108
f 441 460 461 442
f 404 420 419 403
f 198 214 215 199
g Group10
f 491 493 477 475
g Group10419
f 300 316 317 301
f 301 317 318 302
f 364 380 381 365
f 340 356 355 339
f 401 417 418 402
g Group10
f 497 499 483 481
g Group10419
f 449 457 458 450
f 304 320 321 305
g Group10
f 508 507 491 492
g Group10419
f 305 321 322 306
f 374 390 391 375
f 306 322 308 292
g Group10
f 514 516 500 498
g Group10419
f 254 270 271 255
f 307 323 325 309
f 309 325 326 310
g Group10
f 496 495 479 480
g Group10419
f 400 416 417 401
g Group10
f 10 11 510 517
g Group10419
f 311 327 328 312
f 246 262 263 247
f 312 328 329 313
f 266 282 283 267
g Group10
f 51 50 519 521
g Group10419
f 303 319 320 304
f 155 171 172 156
f 395 411 412 396
g Group10
f 25 26 42 41
g Group10419
f 450 458 459 436
f 316 332 333 317
f 317 333 334 318
g Group10
f 504 503 487 488
f 486 488 472 470
f 526 533 74 73
g Group10419
f 191 207 208 192
f 185 201 202 186
f 320 336 337 321
f 321 337 338 322
f 360 376 377 361
f 322 338 324 308
f 187 203 204 188
f 350 366 367 351
g Group10
f 11 10 3
g Group10419
f 323 339 341 325
g Group10
f 34 36 52 50
g Group10419
f 325 341 342 326
g Group10
f 36 37 53 52
g Group10419
f 397 413 414 398
f 84 87 88
f 327 343 344 328
g Group10
f 38 39 55 54
g Group10419
f 328 344 345 329
g Group10
f 39 40 56 55
g Group10419
f 394 410 411 395
f 448 456 457 449
f 282 298 299 283
f 84 92 93
g Group10
f 487 489 473 471
f 58 59 527 533
g Group10419
f 332 348 349 333
g Group10
f 43 44 60 59
g Group10419
f 333 349 350 334
g Group10
f 44 45 61 60
g Group10419
f 359 375 376 360
g Group10
f 46 47 63 62
f 506 508 492 490
g Group10419
f 396 412 413 397
f 336 352 353 337
g Group10
f 47 48 64 63
g Group10419
f 337 353 354 338
g Group10
f 48 49 65 64
g Group10419
f 338 354 340 324
g Group10
f 49 35 51 65
f 503 505 489 487
g Group10419
f 342 358 359 343
f 339 355 357 341
f 91 107 108 92
f 341 357 358 342
g Group10
f 505 506 490 489
g Group10419
f 132 148 147 131
f 343 359 360 344
g Group10
f 521 519 66 67
g Group10419
f 344 360 361 345
f 233 249 250 234
g Group10
f 42 43 59 58
g Group10419
f 357 373 374 358
f 434 450 436 420
f 355 371 373 357
g Group10
f 535 534 18 19
f 537 536 25 24
f 539 538 31 30
g Group10419
f 171 187 188 172
f 443 462 463 444
g Group10
f 543 542 22 21
f 544 535 19 33
f 545 544 33 32
f 538 545 32 31
f 547 546 29 28
f 540 547 28 27
f 548 537 24 23
f 542 548 23 22
f 549 543 21 20
f 534 549 20 18
f 546 539 30 29
g Group44703
f 72 73 552 553
f 71 72 553 555
g Group10419
f 331 347 348 332
g Group44703
f 453 452 556 557
g Group10
f 541 540 27 26
g Group44703
f 69 70 562 563
g Group10419
f 411 427 428 412
g Group44703
f 73 74 559 552
f 67 66 566 567
f 70 71 555 562
f 68 69 563 569
f 66 68 569 566
f 77 78 572 573
f 76 77 573 575
f 75 76 575 558
f 80 81 578 579
f 81 67 567 578
f 79 80 579 581
f 78 79 581 572
g Group44700
f 461 593 597 462
g Group44697
f 593 594 598 597
g Group44700
f 594 595 599 598
g Group44697
f 595 596 600 599
g Group44700
f 596 586 587 600
f 462 597 601 463
g Group44697
f 597 598 602 601
g Group44700
f 598 599 603 602
g Group44697
f 599 600 604 603
g Group44700
f 600 587 588 604
f 587 613 609 588
g Group44697
f 613 614 610 609
g Group44700
f 614 615 611 610
g Group44697
f 615 616 612 611
g Group44700
f 616 583 584 612
f 586 617 613 587
g Group44697
f 617 618 614 613
g Group44700
f 618 619 615 614
g Group44697
f 619 620 616 615
g Group44700
f 620 582 583 616
g Group44703
f 559 558 623 624
f 553 552 627 628
f 555 553 628 630
f 563 562 633 634
f 552 559 624 627
f 567 566 637 638
f 562 555 630 633
f 569 563 634 640
f 566 569 640 637
f 573 572 643 644
f 575 573 644 646
f 558 575 646 623
f 579 578 649 650
f 578 567 638 649
f 581 579 650 652
f 572 581 652 643
g Group18800
f 622 621 624 623
f 626 625 628 627
f 625 629 630 628
f 632 631 634 633
f 621 626 627 624
f 636 635 638 637
f 629 632 633 630
f 631 639 640 634
f 637 640 639 636
f 642 641 644 643
f 641 645 646 644
f 623 646 645 622
f 648 647 650 649
f 635 648 649 638
f 647 651 652 650
f 643 652 651 642
g Group44703
f 557 556 653 654
f 551 550 655 656
f 550 554 657 655
f 561 560 658 659
f 556 551 656 653
f 565 564 660 661
f 554 561 659 657
f 560 568 662 658
f 568 565 661 662
f 571 570 663 664
f 570 574 665 663
f 574 557 654 665
f 577 576 666 667
f 564 577 667 660
f 576 580 668 666
f 580 571 664 668
g Group44700
f 621 622 669 670
f 625 626 671 672
f 629 625 672 673
f 631 632 674 675
f 626 621 670 671
f 635 636 676 677
f 632 629 673 674
f 639 631 675 678
f 636 639 678 676
f 641 642 679 680
f 645 641 680 681
f 622 645 681 669
f 647 648 682 683
f 648 635 677 682
f 651 647 683 684
f 642 651 684 679
g Group18801
f 670 669 654 653
f 672 671 656 655
f 675 674 659 658
f 677 676 661 660
f 676 678 662 661
f 680 679 664 663
f 669 681 665 654
f 683 682 667 666
f 679 684 668 664
f 655 657 673 672
f 653 656 671 670
f 657 659 674 673
f 658 662 678 675
f 663 665 681 680
f 660 667 682 677
f 666 668 684 683
g Group10422
f 685 686 461 460
f 687 688 456 455
f 689 690 468 467
f 691 692 465 459
f 693 687 455 454
f 688 694 457 456
f 695 691 459 458
f 694 695 458 457
f 696 685 460 469
f 697 698 464 463
f 698 693 454 464
f 692 699 466 465
f 699 689 467 466
f 690 696 469 468
g Group44703
f 451 700 550 551
f 700 701 554 550
f 702 703 560 561
f 704 705 564 565
f 701 702 561 554
f 703 706 568 560
f 706 704 565 568
f 707 708 570 571
f 708 709 574 570
f 709 453 557 574
f 710 711 576 577
f 705 710 577 564
f 711 712 580 576
f 712 707 571 580
g Group44697
f 583 582 713 714
f 714 715 584 583
g Group44700
f 452 589 716 451
g Group44697
f 589 590 717 716
g Group44700
f 590 591 718 717
g Group44697
f 591 592 719 718
g Group44700
f 592 585 720 719
f 686 721 593 461
g Group44697
f 721 722 594 593
g Group44700
f 722 723 595 594
g Group44697
f 723 724 596 595
g Group44700
f 724 725 586 596
f 463 601 726 697
g Group44697
f 601 602 727 726
g Group44700
f 602 603 728 727
g Group44697
f 603 604 729 728
g Group44700
f 604 588 730 729
f 453 731 589 452
g Group44697
f 731 732 590 589
g Group44700
f 732 733 591 590
g Group44697
f 733 734 592 591
g Group44700
f 734 735 585 592
f 735 736 605 585
g Group44697
f 736 737 606 605
g Group44700
f 737 738 607 606
g Group44697
f 738 739 608 607
g Group44700
f 739 740 741 608
f 588 609 742 730
g Group44697
f 609 610 743 742
g Group44700
f 610 611 744 743
g Group44697
f 611 612 745 744
g Group44700
f 612 584 715 745
f 725 746 617 586
g Group44697
f 746 747 618 617
g Group44700
f 747 748 619 618
g Group44697
f 748 749 620 619
g Group44700
f 749 713 582 620
f 585 605 750 720
g Group44697
f 605 606 751 750
g Group44700
f 606 607 752 751
g Group44697
f 607 608 753 752
g Group44700
f 608 741 754 753
g Group18802
f 707 712 688 687
f 703 702 690 689
f 705 704 692 691
f 712 711 694 688
f 711 710 695 694
f 453 709 698 697
f 704 706 699 692
f 706 703 689 699
f 702 701 696 690
f 686 685 700 451
f 685 696 701 700
f 687 693 708 707
f 693 698 709 708
f 691 695 710 705
f 741 740 715 714
f 725 724 719 720
f 451 716 721 686
f 716 717 722 721
f 717 718 723 722
f 718 719 724 723
f 735 734 729 730
f 697 726 731 453
f 726 727 732 731
f 727 728 733 732
f 728 729 734 733
f 730 742 736 735
f 742 743 737 736
f 743 744 738 737
f 744 745 739 738
f 740 739 745 715
f 720 750 746 725
f 750 751 747 746
f 751 752 748 747
f 752 753 749 748
f 713 749 753 754
f 714 713 754 741

 