# File exported by ZBrush version 2021
# www.zbrush.com
#Vertex Count 434
#Face Count 448
#Auto scale x=1.000000 y=1.000000 z=1.000000
#Auto offset x=0.000000 y=0.000000 z=0.000000
v -0.000002 1.29872643 -0.00736542
v -0.68730098 -0.29473745 -1.64584207
v 0 -0.29710066 -1.78750598
v -1.26382803 -0.2900325 -1.2492975
v -1.64327096 -0.28673183 -0.67047363
v -1.77508604 -0.28577578 -0.00000406
v -1.64327096 -0.28673279 0.67046666
v -1.26382803 -0.29003346 1.24928939
v -0.68730098 -0.29473745 1.64583432
v 0 -0.29710161 1.78749609
v 0.687303 -0.29473745 1.64583432
v 1.26382899 -0.29003346 1.24928939
v 1.64327204 -0.28673279 0.67046666
v 1.77508604 -0.28577578 -0.00000406
v 1.64327204 -0.28673183 -0.67047363
v 1.26382803 -0.29003346 -1.24929833
v 0.68730098 -0.29473745 -1.6458441
v -0.70317202 -0.57714188 -1.69087517
v 0 -0.58008778 -1.83726882
v -1.29208195 -0.57127678 -1.28201043
v -1.678797 -0.56716883 -0.6872195
v -1.81291699 -0.5659815 -0.00000406
v -1.678797 -0.56716883 0.68721306
v -1.29208195 -0.57127678 1.28200173
v -0.70317202 -0.57714188 1.69086527
v 0 -0.58008778 1.83726024
v 0.70317298 -0.57714188 1.69086527
v 1.29208302 -0.57127583 1.28200173
v 1.67879796 -0.56716883 0.68721234
v 1.81291699 -0.56598055 -0.00000406
v 1.67879796 -0.56716787 -0.68722051
v 1.29208195 -0.57127583 -1.2820115
v 0.70317202 -0.57714188 -1.69087624
v -0.71026897 -0.86116087 -1.71639239
v 0 -0.86472857 -1.86581718
v -1.30420398 -0.85404074 -1.29993891
v -1.69334697 -0.84903872 -0.6960473
v -1.82809197 -0.84758389 -0.00000406
v -1.69334697 -0.84903872 0.69604003
v -1.30420303 -0.85404169 1.29992985
v -0.71026802 -0.86116182 1.71638238
v 0 -0.86473047 1.86580824
v 0.71026897 -0.86116278 1.71638321
v 1.30420398 -0.85404074 1.29992985
v 1.69334805 -0.84903872 0.69603914
v 1.82809197 -0.84758389 -0.00000406
v 1.69334697 -0.84903872 -0.69604826
v 1.30420398 -0.85404074 -1.29993999
v 0.71026897 -0.86116087 -1.71639239
v -0.72474199 -1.39216768 -1.7654674
v 0 -1.39715969 -1.9213643
v -1.32816696 -1.38227188 -1.33334708
v -1.72109198 -1.37543165 -0.71187388
v -1.85654401 -1.37349045 -0.00000406
v -1.72098696 -1.37540161 0.71186924
v -1.32726204 -1.38208353 1.33338272
v -0.72268998 -1.39197075 1.76551735
v 0 -1.39720642 1.9213351
v 0.722691 -1.39197075 1.76551735
v 1.32726299 -1.38208353 1.33338272
v 1.72098803 -1.37540161 0.71186924
v 1.85654497 -1.37349045 -0.00000406
v 1.72109305 -1.37543261 -0.7118749
v 1.32816803 -1.38227188 -1.33334708
v 0.72474199 -1.39216673 -1.76546633
v -0.000001 0.27859532 -1.55608797
v -1.10980999 0.28230941 -1.09190189
v -0.602517 0.27981221 -1.43442046
v -1.44547796 0.28415715 -0.58770018
v -1.56253397 0.28473031 -0.00000314
v -1.10980999 0.28230845 1.09189391
v -1.44547796 0.28415715 0.58769375
v -0.60251599 0.27981126 1.434412
v 0.60251599 0.27981126 1.434412
v 1.44547903 0.28415715 0.58769375
v 1.10980999 0.28230845 1.09189391
v 1.56253504 0.28473126 -0.00000314
v 1.10980999 0.28230941 -1.09190189
v 1.44547903 0.28415811 -0.58770114
v 0.60251599 0.27981221 -1.43442046
v 0 0.27859437 1.5560801
v -0.000001 0.5544914 -1.37636387
v -0.98502498 0.55687511 -0.96776229
v -0.53431701 0.55526435 -1.2695012
v -1.284042 0.55813252 -0.52165025
v -1.38851499 0.55854928 -0.00000314
v -0.98502302 0.55687511 0.96775502
v -1.284042 0.55813157 0.52164292
v -0.53431701 0.5552634 1.26949369
v 0.53431499 0.5552634 1.26949369
v 1.284042 0.55813157 0.52164292
v 0.98502302 0.55687511 0.96775502
v 1.38851499 0.55854928 -0.00000314
v 0.98502397 0.55687511 -0.96776229
v 1.284042 0.55813252 -0.52165025
v 0.53431499 0.55526435 -1.2695012
v 0 0.55449044 1.37635552
v -1.31300699 -1.13899672 1.31496858
v -0.715658 -1.14756453 -1.73840546
v 1.70335805 -1.13296949 -0.7031964
v 0 -1.15186464 -1.89069867
v -1.31300699 -1.13899576 -1.31497764
v -1.70335698 -1.13297045 -0.7031964
v -1.83826303 -1.13122189 -0.00000406
v -1.70335602 -1.13297045 0.70318806
v -0.715658 -1.14756548 1.73839664
v 0.71565902 -1.14756548 1.73839747
v 1.70335805 -1.13296949 0.70318722
v 1.31300795 -1.13899672 1.31496858
v 1.83826398 -1.13122189 -0.00000406
v 1.31300699 -1.13899481 -1.3149786
v 0.71565902 -1.14756453 -1.73840546
v 0 -1.15186655 1.89069044
v -0.65283697 -0.00511658 -1.55822968
v 0 -0.00687849 -1.69139695
v -0.65283697 -0.00511753 1.55821991
v -1.20146298 -0.00158989 1.18442654
v 1.56350505 0.00093734 -0.63656795
v 1.68951404 0.00169026 -0.00000406
v 0.65283697 -0.00511753 1.55821991
v 0 -0.00687944 1.69138622
v -1.68951404 0.00169026 -0.00000406
v -1.56350505 0.00093734 -0.63656693
v 0.65283602 -0.00511658 -1.55822968
v 1.20146405 -0.00158846 -1.18443465
v 1.56350505 0.00093734 0.63655954
v 1.20146405 -0.00158989 1.18442654
v -1.56350505 0.00093734 0.63655954
v -1.20146405 -0.00158846 -1.18443465
v -0.000002 1.24388015 -0.28463572
v -0.10915199 1.24393212 -0.26320338
v -0.201536 1.24406039 -0.20234081
v -0.26312398 1.24418056 -0.1116181
v -0.26312398 1.24418056 0.10180734
v -0.201536 1.24406039 0.19253003
v -0.10915199 1.24393212 0.25339257
v 0.201533 1.24406039 0.19253093
v 0.263121 1.24418056 0.10180734
v 0.263121 1.24418056 -0.1116181
v 0.201533 1.24406039 -0.20234176
v 0.109149 1.24393212 -0.26320338
v -0.000001 1.24388015 0.27482405
v 0.284713 1.24422156 -0.00490583
v -0.28471601 1.24422156 -0.00490583
v 0.109149 1.24393212 0.25339257
v -0.000001 0.99627053 -0.89859074
v -0.34963899 0.9965595 -0.82949817
v -0.64522802 0.99717938 -0.63368147
v -0.84196001 0.99770724 -0.34261211
v -0.841959 0.99770724 0.34073934
v -0.64522802 0.99717938 0.63180881
v -0.34963899 0.99655854 0.82762545
v 0.645226 0.99717843 0.63180881
v 0.841959 0.99770724 0.34073934
v 0.841959 0.99770724 -0.34261211
v 0.64522701 0.99717938 -0.63368147
v 0.349637 0.9965595 -0.82949817
v 0 0.99627053 0.89671731
v 0.91084998 0.99789226 -0.00093681
v -0.910851 0.99789226 -0.00093681
v 0.34963798 0.9965595 0.82762545
v -0.72746098 -0.26954948 1.725515
v 0 -0.27097475 1.87518858
v 0 0.03262412 1.77443122
v -0.69066602 0.03347623 1.63394892
v 0 0.03262412 -1.774441
v -0.69066602 0.03347718 -1.63395774
v -0.637492 0.33032739 -1.50500822
v -0.000001 0.3299154 -1.63325142
v 0.11948999 1.33781826 0.27475905
v -0.000002 1.39720642 -0.00743773
v -0.000001 1.33783328 0.29795169
v 1.77053201 -0.55714952 0.71852976
v 1.91082596 -0.55657255 -0.00000406
v 1.87139201 -0.26491749 -0.00000406
v 1.733343 -0.2652508 0.70145988
v 0 -0.85494244 1.95621943
v -0.75221902 -0.8522917 1.7980684
v -1.81308996 -1.36718857 -0.74263644
v -1.95447599 -1.36588871 -0.00000131
v -0.311789 1.3377043 -0.00491133
v -0.288212 1.33770644 -0.12053464
v -1.37778699 -0.84713947 1.35964429
v -1.26915097 0.03504312 1.2407974
v -0.63749098 0.33032643 1.50499975
v -1.17283594 0.3310641 1.14477014
v 0 -0.85494053 -1.9562298
v 0.75221997 -0.85229075 -1.79807841
v 0.311787 1.3377043 -0.00491133
v 0.28808599 1.3377434 0.11066808
v 0.22063 1.33778631 0.20888942
v -0.74457901 -0.56352961 1.77226066
v -1.36508595 -0.55960667 1.34178233
v 1.78168404 0.03603923 -0.00000406
v 1.64953196 0.03590238 -0.66638487
v 1.52603101 0.3313893 -0.61580014
v 1.64900505 0.33139312 -0.00000314
v -0.288089 1.33774244 0.11066808
v 1.37778794 -0.84713852 -1.3596543
v 1.78544497 -0.84381353 -0.72722804
v 0.76702201 -1.38007271 -1.84668493
v 0 -1.38406288 -2.01147413
v 1.40195798 -1.37228786 -1.39244806
v 1.92625594 -0.8429805 -0.00000406
v 1.78544604 -0.84381353 0.72721916
v 1.81309104 -1.36718952 -0.74263727
v 1.40104401 -1.37235176 1.39252817
v 1.81298804 -1.36725151 0.74265611
v 1.17283594 0.33106648 -1.14477849
v 0.63749098 0.33032739 -1.50500822
v 0.76497501 -1.38008987 1.84675574
v -1.81298697 -1.36725246 0.74265676
v -1.40104305 -1.37235176 1.39252901
v -1.77053105 -0.55714952 -0.71853756
v -1.91082501 -0.55657351 -0.00000406
v -1.87139201 -0.26491749 -0.00000406
v -1.73334205 -0.26524984 -0.70146721
v 1.37778794 -0.84713852 1.35964429
v -1.40195703 -1.37228786 -1.39244806
v -0.76702201 -1.38007366 -1.84668576
v 0.75221997 -0.85229265 1.79806935
v -1.33512604 -0.26685488 1.30818367
v 0 0.32991445 1.63324356
v 0.28821 1.33770644 -0.12053464
v -1.52603101 0.3313893 -0.61579918
v -1.64900302 0.33139312 -0.00000314
v 1.95447802 -1.36588871 -0.00000131
v -1.64953196 0.03590142 -0.66638398
v -1.78168404 0.03603923 -0.00000406
v 0 -0.56556952 1.92713093
v 0.74457997 -0.56352961 1.77226066
v 0.72746199 -0.26954948 1.725515
v -1.78544497 -0.84381353 0.72722011
v -1.92625594 -0.8429805 -0.00000406
v 1.52603101 0.3313893 0.61579179
v -0.119493 1.33781826 0.27475905
v -0.000002 1.33775031 -0.30807453
v 0.11961399 1.3377403 -0.28483706
v 0.220805 1.33772337 -0.2188604
v 0.69066399 0.03347718 -1.63395774
v -1.52602994 0.3313893 0.61579179
v 1.26915204 0.03504455 -1.24080646
v 1.77053201 -0.55714857 -0.71853858
v 1.733343 -0.26524984 -0.70146721
v -1.78544497 -0.84381353 -0.72722631
v -0.76497399 -1.38008987 1.84675574
v 1.26915204 0.03504312 1.2407974
v 1.64953196 0.03590142 0.66637659
v 1.17283594 0.3310641 1.14477014
v 0.69066602 0.03347623 1.63394892
v 0.63749098 0.33032643 1.50499975
v -1.37778794 -0.84713852 -1.35965359
v -1.64953196 0.03590142 0.66637659
v -0.75221997 -0.85229075 -1.79807841
v 0 -1.38418972 2.0114603
v -0.220633 1.33778631 0.20888851
v -1.26915204 0.03504455 -1.24080646
v -1.17283594 0.33106553 -1.14477849
v -0.74457997 -0.56352865 -1.77226996
v -1.36508595 -0.55960667 -1.34179127
v -1.33512604 -0.26685345 -1.30819213
v -0.72746098 -0.26954948 -1.72552287
v -1.77053105 -0.55714952 0.71853065
v -1.73334205 -0.2652508 0.70145988
v 1.36508703 -0.55960571 1.34178233
v 1.33512699 -0.26685488 1.30818367
v -0.22080799 1.33772337 -0.2188604
v 1.36508595 -0.55960571 -1.34179234
v 1.33512604 -0.26685488 -1.30819284
v 0.74457901 -0.56352865 -1.77227091
v 0.72746098 -0.26954948 -1.72552466
v 0 -0.56556952 -1.92714011
v 0 -0.2709738 -1.87519872
v -0.119617 1.3377403 -0.28483706
v 0 1.20780646 0.6251313
v 0.24675199 1.20781457 0.57681483
v -0.59419399 1.20770537 -0.24205842
v -0.64272397 1.20770442 -0.00289477
v 0.594087 1.20775926 0.23623228
v 0.64272302 1.20770442 -0.00289477
v 0.455302 1.20780646 0.43986511
v -0.59408897 1.2077583 0.23623228
v 0.59419298 1.20770537 -0.24205842
v -0.246755 1.20781314 0.57681483
v 0.24685999 1.20769727 -0.58282494
v -0.000001 1.20768249 -0.63118082
v 0.455453 1.20771348 -0.44578206
v -0.45530399 1.20780646 0.4398643
v -0.455455 1.20771348 -0.44578206
v -0.24686199 1.20769727 -0.58282494
v 0 -0.84687483 2.03693008
v -0.789806 -0.84506571 1.87091398
v -1.89513504 -1.35984051 -0.77007174
v -2.04181289 -1.35911285 0.00000143
v -1.44357299 -0.8417145 1.41278958
v 0 -0.84687387 -2.03694009
v 0.78980702 -0.84506475 -1.87092387
v 1.44357395 -0.84171354 -1.41279935
v 1.86764395 -0.83992064 -0.75493913
v 0.804726 -1.36928856 -1.91911709
v 0 -1.37238276 -2.09183311
v 1.46776294 -1.36338484 -1.44515717
v 2.01381897 -0.83965647 -0.00000406
v 1.86764502 -0.83992064 0.7549299
v 1.89513599 -1.35984146 -0.77007275
v 1.46684205 -1.36367571 1.44527542
v 1.89503395 -1.35998642 0.77011334
v 0.80268299 -1.36949551 1.91920614
v -1.895033 -1.35998785 0.770114
v -1.46684002 -1.36367476 1.44527649
v 1.44357395 -0.84171354 1.41278958
v -1.46776199 -1.36338484 -1.44515717
v -0.804726 -1.36928951 -1.91911828
v 0.78980702 -0.84506666 1.87091481
v 2.04181504 -1.35911285 0.00000143
v -1.86764395 -0.83992159 0.75493073
v -2.01381897 -0.83965647 -0.00000406
v -1.86764395 -0.83992064 -0.75493729
v -0.80268198 -1.36949551 1.91920614
v -1.44357395 -0.84171354 -1.41279852
v -0.78980702 -0.84506475 -1.87092387
v 0 -1.3725816 2.09183311
v 0 1.13648974 0.80457979
v 0.31655162 1.13651073 0.74248409
v -0.76201695 1.13640391 -0.30871102
v -0.82423269 1.13640296 -0.00178871
v 0.76192015 1.13646638 0.30510062
v 0.82423174 1.13640296 -0.00178871
v 0.58401268 1.13651645 0.5665484
v -0.76192098 1.1364659 0.30510062
v 0.76201593 1.13640391 -0.30871102
v -0.31655407 1.13650977 0.74248409
v 0.31665056 1.13637292 -0.74626278
v -0.000001 1.13634383 -0.80839532
v 0.58415067 1.13640773 -0.57024169
v -0.58401465 1.13651692 0.56654804
v -0.5841521 1.13640773 -0.57024169
v -0.31665256 1.13637292 -0.74626278
v -0.000001 0.96893203 -1.06632244
v -0.41769427 0.96900641 -0.98392605
v -0.77014905 0.96911513 -0.75089001
v -1.00414872 0.96913421 -0.40545404
v -1.00407707 0.96919381 0.40400612
v -0.77004599 0.96922099 0.74937957
v -0.41761967 0.96913993 0.9823507
v 0.7700445 0.96922004 0.74937957
v 1.00407707 0.96919381 0.40400612
v 1.00414812 0.96913421 -0.40545404
v 0.77014803 0.96911513 -0.75089001
v 0.41769227 0.96900641 -0.98392605
v 0 0.96907365 1.06471836
v 1.08593535 0.96912753 -0.00071206
v -1.08593583 0.96912753 -0.00071206
v 0.41761767 0.96914041 0.9823507
v -0.000001 0.72634685 -1.32914447
v -0.52004784 0.72649705 -1.2258594
v -0.95818644 0.72673356 -0.93440449
v -1.24846863 0.72679317 -0.50373172
v -1.24843442 0.72683227 0.50328379
v -0.95813554 0.72680461 0.93392527
v -0.52001059 0.72658717 1.22534668
v 0.95813459 0.72680413 0.93392527
v 1.24843442 0.72683227 0.50328379
v 1.24846863 0.72679317 -0.50373172
v 0.95818597 0.72673356 -0.93440449
v 0.52004635 0.72649705 -1.2258594
v 0 0.72644269 1.32861733
v 1.34980464 0.72677409 -0.00021865
v -1.34980464 0.72677409 -0.00021865
v 0.5200091 0.72658717 1.22534668
v 0 1.05949723 0.92421442
v 0.3630307 1.05953919 0.85279589
v -0.87337046 1.05947864 -0.35320198
v -0.94458681 1.05947482 -0.00129357
v 0.87328523 1.05953967 0.35058608
v 0.94458609 1.05947482 -0.00129357
v 0.66956651 1.05957877 0.65063029
v -0.87328565 1.05953967 0.35058608
v 0.87336963 1.05947864 -0.35320198
v -0.36303293 1.05953824 0.85279589
v 0.36311844 1.0594033 -0.85556125
v -0.000001 1.05935323 -0.92701292
v 0.66968864 1.05947196 -0.65331971
v -0.66956824 1.05957973 0.65063005
v -0.66968989 1.05947196 -0.65331971
v -0.36312043 1.0594033 -0.85556125
v -0.0000005 1.27294719 0.46122098
v 0.18299631 1.27294385 0.425491
v -0.44090321 1.27283322 -0.18117746
v -0.47693228 1.27283179 -0.00390503
v 0.44078671 1.27287852 0.17332716
v 0.47693079 1.27283179 -0.00390503
v 0.3377361 1.27292382 0.32415098
v -0.44078919 1.27287757 0.17332716
v 0.44090169 1.27283322 -0.18117746
v -0.18299931 1.2729429 0.425491
v 0.18311232 1.2728461 -0.43353906
v -0.0000015 1.27284371 -0.46931111
v 0.33789911 1.27284562 -0.3320989
v -0.33773857 1.27292382 0.32415011
v -0.33790162 1.27284562 -0.3320989
v -0.18311482 1.2728461 -0.43353906
v -0.000001 0.86281192 -1.18129539
v -0.46246942 0.86291921 -1.08976113
v -0.85240709 0.86308372 -0.83116948
v -1.11102783 0.86312091 -0.44844618
v -1.11097264 0.86317145 0.4474357
v -0.85232687 0.86317479 0.83011013
v -0.46241116 0.86303365 1.0886507
v 0.85232555 0.86317384 0.83011013
v 1.11097264 0.86317145 0.4474357
v 1.11102747 0.86312091 -0.44844618
v 0.85240632 0.86308372 -0.83116948
v 0.46246764 0.86291921 -1.08976113
v 0 0.86293351 1.18016243
v 1.20136642 0.86310851 -0.00049622
v -1.20136678 0.86310851 -0.00049622
v 0.46240937 0.86303412 1.0886507
v -0.000001 0.50648534 -1.49780261
v -0.58518254 0.50678098 -1.38067567
v -1.0772314 0.50729548 -1.0510782
v -1.40240514 0.50750148 -0.56588447
v -1.40238928 0.50751912 0.56568086
v -1.07720863 0.50732648 1.05086016
v -0.58516538 0.50682056 1.38044261
v 1.07720828 0.507326 1.05086016
v 1.40238988 0.50751912 0.56568086
v 1.40240514 0.50750148 -0.565885
v 1.07723116 0.50729596 -1.0510782
v 0.58518129 0.50678098 -1.38067567
v 0 0.50652778 1.49756348
v 1.51574158 0.50749528 -0.00009913
v -1.51574051 0.50749528 -0.00009913
v 0.58516472 0.50682056 1.38044261
g Group40144
f 168 169 419 420
g Group10
f 84 147 146 82
g Group40144
f 258 168 420 421
g Group10
f 83 148 147 84
g Group40144
f 225 258 421 422
g Group10
f 85 149 148 83
g Group40144
f 165 164 163 162
g Group10
f 116 9 10 121
g Group40144
f 186 241 423 424
g Group10
f 87 151 150 88
g Group40144
f 185 186 424 425
g Group10
f 89 152 151 87
g Group40144
f 169 168 167 166
g Group10
f 66 115 114 68
g Group40144
f 172 171 170
g Group10
f 145 1 142
g Group40144
f 235 249 426 427
g Group10
f 91 154 153 92
g Group40144
f 176 175 174 173
g Group10
f 13 29 30 14
g Group40144
f 209 196 428 429
g Group10
f 94 156 155 95
g Group40144
f 210 209 429 430
g Group10
f 96 157 156 94
g Group40144
f 169 210 430 419
g Group10
f 82 146 157 96
f 41 106 113 42
g Group40147
f 54 53 179 180
g Group10
f 103 53 54 104
g Group40144
f 223 185 425 431
g Group10
f 97 158 152 89
g Group40144
f 182 171 181
g Group10
f 144 1 133
f 40 98 106 41
g Group40144
f 186 185 165 184
g Group10
f 71 117 116 73
f 49 112 101 35
g Group40144
f 190 171 189
g Group10
f 143 1 138
g Group40144
f 170 171 191
g Group10
f 137 1 145
g Group40144
f 193 192 178 183
g Group10
f 24 40 41 25
g Group40144
f 197 196 195 194
g Group10
f 77 119 118 79
g Group40144
f 181 171 198
g Group10
f 134 1 144
f 48 111 112 49
f 47 100 111 48
g Group40144
f 196 197 432 428
g Group10
f 95 155 159 93
g Group40147
f 51 65 201 202
g Group10
f 112 65 51 101
g Group40147
f 65 64 203 201
g Group10
f 111 64 65 112
f 45 108 110 46
g Group40147
f 64 63 206 203
g Group10
f 100 63 64 111
g Group40147
f 61 60 207 208
g Group10
f 109 60 61 108
g Group40144
f 418 415 351 354
g Group10
f 94 78 80 96
g Group40144
f 417 406 342 353
g Group10
f 96 80 66 82
g Group40147
f 60 59 211 207
g Group10
f 107 59 60 109
g Group40147
f 56 55 212 213
g Group10
f 105 55 56 98
g Group40144
f 217 216 215 214
g Group10
f 5 21 22 6
g Group40147
f 55 54 180 212
g Group10
f 104 54 55 105
f 44 109 108 45
g Group40147
f 53 52 219 179
g Group10
f 102 52 53 103
g Group40147
f 52 50 220 219
g Group10
f 99 50 52 102
f 43 107 109 44
g Group40144
f 222 162 192 193
g Group10
f 8 24 25 9
g Group40144
f 416 411 347 352
g Group10
f 89 73 81 97
g Group40144
f 189 171 224
g Group10
f 139 1 143
g Group40144
f 410 418 354 346
g Group10
f 85 69 70 86
f 46 110 100 47
g Group40147
f 63 62 227 206
g Group10
f 110 62 63 100
g Group40144
f 225 226 229 228
g Group10
f 69 123 122 70
g Group40144
f 354 351 371 372
g Group10
f 161 145 142 158
g Group40144
f 353 342 373 374
g Group10
f 160 144 133 149
g Group40144
f 352 347 375 376
g Group10
f 159 143 138 154
g Group40144
f 346 354 372 377
g Group10
f 153 137 145 161
g Group40144
f 163 232 231 230
g Group10
f 10 26 27 11
f 39 105 98 40
g Group40144
f 343 353 374 378
g Group10
f 150 134 144 160
g Group40144
f 348 352 376 379
g Group10
f 155 139 143 159
f 38 104 105 39
g Group40144
f 407 417 353 343
g Group10
f 91 75 77 93
g Group40144
f 351 345 380 371
g Group10
f 158 142 136 152
g Group40144
f 339 350 381 382
g Group10
f 146 130 141 157
g Group40144
f 350 349 383 381
g Group10
f 157 141 140 156
g Group40144
f 210 169 166 240
g Group10
f 80 124 115 66
g Group40144
f 412 416 352 348
g Group10
f 88 72 71 87
g Group40144
f 209 210 240 242
g Group10
f 78 125 124 80
g Group40144
f 175 244 243 174
g Group10
f 14 30 31 15
f 37 103 104 38
g Group40144
f 196 209 242 195
g Group10
f 79 118 125 78
g Group40147
f 57 56 213 246
g Group10
f 98 56 57 106
g Group40144
f 249 235 248 247
g Group10
f 76 127 126 75
g Group40144
f 223 251 250 164
g Group10
f 81 121 120 74
g Group40144
f 349 348 379 383
g Group10
f 156 140 139 155
g Group40144
f 251 249 247 250
g Group10
f 74 120 127 76
g Group40144
f 241 226 433 423
g Group10
f 88 150 160 86
f 36 102 103 37
g Group40144
f 236 171 172
g Group10
f 142 1 136
g Group40144
f 347 346 377 375
g Group10
f 154 138 137 153
g Group40144
f 214 215 234 245
g Group10
f 21 37 38 22
g Group40144
f 241 186 184 253
g Group10
f 72 128 117 71
f 34 99 102 36
g Group40144
f 226 241 253 229
g Group10
f 70 122 128 72
g Group40147
f 59 58 255 211
g Group10
f 113 58 59 107
g Group40144
f 345 344 384 380
g Group10
f 152 136 135 151
g Group40144
f 258 225 228 257
g Group10
f 67 129 123 69
g Group40144
f 168 258 257 167
g Group10
f 68 114 129 67
g Group40144
f 192 230 177 178
g Group10
f 25 41 42 26
g Group40144
f 415 409 345 351
g Group10
f 90 74 76 92
g Group40147
f 62 61 208 227
g Group10
f 108 61 62 110
g Group40144
f 249 251 434 426
g Group10
f 92 153 161 90
g Group40144
f 344 343 378 384
g Group10
f 151 135 134 150
g Group40144
f 403 414 350 339
g Group10
f 95 79 78 94
g Group40144
f 197 235 427 432
g Group10
f 93 159 154 91
g Group40144
f 262 261 260 259
g Group10
f 2 18 20 4
g Group40144
f 261 217 214 260
g Group10
f 4 20 21 5
g Group40144
f 173 174 204 205
g Group10
f 29 45 46 30
g Group40144
f 216 264 263 215
g Group10
f 6 22 23 7
g Group40144
f 264 222 193 263
g Group10
f 7 23 24 8
g Group40144
f 238 171 237
g Group10
f 130 1 141
g Group40144
f 232 266 265 231
g Group10
f 11 27 28 12
g Group40144
f 266 176 173 265
g Group10
f 12 28 29 13
g Group40144
f 342 341 385 373
g Group10
f 149 133 132 148
g Group40144
f 244 269 268 243
g Group10
f 15 31 32 16
g Group40144
f 269 271 270 268
g Group10
f 16 32 33 17
g Group40144
f 271 273 272 270
g Group10
f 17 33 19 3
g Group40144
f 341 340 386 385
g Group10
f 148 132 131 147
g Group40144
f 272 259 254 187
g Group10
f 19 35 34 18
g Group40144
f 185 223 164 165
g Group10
f 73 116 121 81
g Group40144
f 239 171 238
g Group10
f 141 1 140
g Group40144
f 226 225 422 433
g Group10
f 86 160 149 85
g Group40144
f 414 413 349 350
g Group10
f 86 70 72 88
g Group40144
f 273 262 259 272
g Group10
f 3 19 18 2
g Group40144
f 413 412 348 349
g Group10
f 97 81 74 90
g Group40144
f 411 410 346 347
g Group10
f 84 68 67 83
g Group40144
f 224 171 239
g Group10
f 140 1 139
g Group40144
f 235 197 194 248
g Group10
f 75 126 119 77
g Group40144
f 409 408 344 345
g Group10
f 87 71 73 89
g Group40144
f 408 407 343 344
g Group10
f 93 77 79 95
g Group40144
f 191 171 190
g Group10
f 138 1 137
g Group40144
f 256 171 236
g Group10
f 136 1 135
g Group40144
f 406 405 341 342
g Group10
f 92 76 75 91
g Group40144
f 340 339 382 386
g Group10
f 147 131 130 146
f 35 101 99 34
g Group40144
f 162 163 230 192
g Group10
f 9 25 26 10
g Group40144
f 198 171 256
g Group10
f 135 1 134
g Group40144
f 405 404 340 341
g Group10
f 82 66 68 84
g Group40147
f 58 57 246 255
g Group10
f 106 57 58 113
g Group40144
f 251 223 431 434
g Group10
f 90 161 158 97
g Group40144
f 259 260 252 254
g Group10
f 18 34 36 20
g Group40144
f 260 214 245 252
g Group10
f 20 36 37 21
g Group40144
f 215 263 233 234
g Group10
f 22 38 39 23
g Group40144
f 263 193 183 233
g Group10
f 23 39 40 24
g Group40144
f 404 403 339 340
g Group10
f 83 67 69 85
f 42 113 107 43
g Group40144
f 231 265 218 221
g Group10
f 27 43 44 28
g Group40144
f 265 173 205 218
g Group10
f 28 44 45 29
g Group40144
f 174 243 200 204
g Group10
f 30 46 47 31
g Group40144
f 267 171 182
g Group10
f 133 1 132
g Group40144
f 243 268 199 200
g Group10
f 31 47 48 32
g Group40144
f 268 270 188 199
g Group10
f 32 48 49 33
g Group40144
f 270 272 187 188
g Group10
f 33 49 35 19
g Group40144
f 274 171 267
g Group10
f 132 1 131
g Group40144
f 237 171 274
g Group10
f 131 1 130
g Group40147
f 50 51 202 220
g Group10
f 101 51 50 99
g Group40144
f 230 231 221 177
g Group10
f 26 42 43 27
g Group40144
f 166 167 262 273
g Group10
f 115 3 2 114
g Group40144
f 184 165 162 222
g Group10
f 117 8 9 116
g Group40144
f 194 195 244 175
g Group10
f 119 14 15 118
g Group40144
f 228 229 216 217
g Group10
f 123 5 6 122
g Group40144
f 240 166 273 271
g Group10
f 124 17 3 115
g Group40144
f 242 240 271 269
g Group10
f 125 16 17 124
g Group40144
f 195 242 269 244
g Group10
f 118 15 16 125
g Group40144
f 247 248 176 266
g Group10
f 127 12 13 126
g Group40144
f 250 247 266 232
g Group10
f 120 11 12 127
g Group40144
f 253 184 222 264
g Group10
f 128 7 8 117
g Group40144
f 229 253 264 216
g Group10
f 122 6 7 128
g Group40144
f 257 228 217 261
g Group10
f 129 4 5 123
g Group40144
f 167 257 261 262
g Group10
f 114 2 4 129
g Group40144
f 248 194 175 176
g Group10
f 126 13 14 119
g Group40144
f 164 250 232 163
g Group10
f 121 10 11 120
g Group40144
f 402 398 237 274
f 401 402 274 267
f 389 401 267 182
f 400 394 198 256
f 396 400 256 236
f 391 393 191 190
f 399 395 224 239
f 397 399 239 238
f 398 397 238 237
f 387 396 236 172
f 395 392 189 224
f 394 390 181 198
f 393 388 170 191
f 392 391 190 189
f 390 389 182 181
f 388 387 172 170
f 276 275 387 388
f 278 277 389 390
f 280 279 391 392
f 281 276 388 393
f 282 278 390 394
f 283 280 392 395
f 275 284 396 387
f 286 285 397 398
f 285 287 399 397
f 287 283 395 399
f 279 281 393 391
f 284 288 400 396
f 288 282 394 400
f 277 289 401 389
f 289 290 402 401
f 290 286 398 402
f 356 355 403 404
g Group40147
f 178 177 291 292
g Group40144
f 318 317 294 293
g Group40147
f 180 179 293 294
g Group40144
f 357 356 404 405
g Group40147
f 183 178 292 295
g Group40144
f 358 357 405 406
g Group40147
f 188 187 296 297
g Group40144
f 360 359 407 408
g Group40147
f 199 188 297 298
g Group40144
f 361 360 408 409
g Group40147
f 200 199 298 299
g Group40144
f 297 296 301 300
g Group40147
f 202 201 300 301
g Group40144
f 298 297 300 302
g Group40147
f 201 203 302 300
g Group40144
f 363 362 410 411
g Group40147
f 205 204 303 304
g Group40144
f 299 298 302 305
g Group40147
f 203 206 305 302
g Group40144
f 311 304 307 306
g Group40147
f 208 207 306 307
g Group40144
f 314 311 306 308
g Group40147
f 207 211 308 306
g Group40144
f 316 295 310 309
g Group40147
f 213 212 309 310
g Group40144
f 317 316 309 294
g Group40147
f 212 180 294 309
g Group40144
f 365 364 412 413
g Group40147
f 218 205 304 311
g Group40144
f 320 318 293 312
g Group40147
f 179 219 312 293
g Group40144
f 321 320 312 313
g Group40147
f 219 220 313 312
g Group40144
f 366 365 413 414
g Group40147
f 221 218 311 314
g Group40144
f 355 366 414 403
g Group40147
f 204 200 299 303
g Group40144
f 303 299 305 315
g Group40147
f 206 227 315 305
g Group40144
f 367 361 409 415
g Group40147
f 233 183 295 316
g Group40144
f 364 368 416 412
g Group40147
f 234 233 316 317
g Group40144
f 359 369 417 407
g Group40147
f 245 234 317 318
g Group40144
f 295 292 319 310
g Group40147
f 246 213 310 319
g Group40144
f 362 370 418 410
g Group40147
f 252 245 318 320
g Group40144
f 368 363 411 416
g Group40147
f 254 252 320 321
g Group40144
f 291 314 308 322
g Group40147
f 211 255 322 308
g Group40144
f 304 303 315 307
g Group40147
f 227 208 307 315
g Group40144
f 369 358 406 417
g Group40147
f 187 254 321 296
g Group40144
f 292 291 322 319
g Group40147
f 255 246 319 322
g Group40144
f 370 367 415 418
g Group40147
f 177 221 314 291
g Group40144
f 296 321 313 301
g Group40147
f 220 202 301 313
g Group40144
f 324 323 275 276
f 326 325 277 278
f 328 327 279 280
f 329 324 276 281
f 330 326 278 282
f 331 328 280 283
f 323 332 284 275
f 334 333 285 286
f 333 335 287 285
f 335 331 283 287
f 327 329 281 279
f 332 336 288 284
f 336 330 282 288
f 325 337 289 277
f 337 338 290 289
f 338 334 286 290
f 386 382 334 338
f 385 386 338 337
f 373 385 337 325
f 384 378 330 336
f 380 384 336 332
f 375 377 329 327
f 383 379 331 335
f 381 383 335 333
f 382 381 333 334
f 371 380 332 323
f 379 376 328 331
f 378 374 326 330
f 377 372 324 329
f 376 375 327 328
f 374 373 325 326
f 372 371 323 324
f 420 419 355 356
f 421 420 356 357
f 422 421 357 358
f 424 423 359 360
f 425 424 360 361
f 427 426 362 363
f 429 428 364 365
f 430 429 365 366
f 419 430 366 355
f 431 425 361 367
f 428 432 368 364
f 423 433 369 359
f 426 434 370 362
f 432 427 363 368
f 433 422 358 369
f 434 431 367 370

 