# File exported by ZBrush version 2021
# www.zbrush.com
#Vertex Count 632
#Face Count 634
#Auto scale x=1.000000 y=1.000000 z=1.000000
#Auto offset x=0.000000 y=0.000000 z=0.000000
v -1.21574795 1.59309697 0.86017298
v -1.51172995 1.59005701 0.34634101
v -1.10435605 1.86497294 0.68402499
v -1.33022904 1.92619502 0.231564
v -0.93839901 2.08495807 0.59383899
v -1.05316197 2.2177999 0.167187
v -1.04473304 2.36371302 -0.51709199
v -1.35474002 2.04428911 -0.488931
v -0.97066897 1.862697 -1.44955503
v -1.57577705 1.67571497 -0.447261
v -1.33908402 1.76560604 -0.94610202
v -1.15257895 2.10293006 -0.94780302
v -0.88617897 2.36435294 -0.94872802
v -0.67126101 2.30811691 -1.35385394
v -0.83101302 2.12727308 -1.38338398
v -1.28473794 2.22752094 0.238371
v -1.20166099 2.50620889 -0.51907098
v -1.10400402 2.48869299 -1.00930297
v -0.270756 2.78029203 -0.53252703
v -0.29725199 2.58983397 0.246133
v -0.227889 2.69020891 -1.02266299
v -0.154778 2.21904897 -1.77475094
v -0.172459 2.49036097 -1.50770902
v -0.159105 1.96413004 -1.99864995
v -0.369116 1.74436402 1.559749
v -0.34116798 2.02170896 1.16320896
v -0.31534698 2.32719111 0.77828097
v -0.36988401 0.25931799 -1.79243195
v -1.25875902 -0.46860799 0.15129999
v -1.02202105 -0.44255599 0.626971
v -0.98145598 -0.37568101 0.554771
v -1.14869105 -0.42029899 0.110701
v -1.25486397 -0.205996 -1.00381398
v -1.36379098 -0.403308 -0.558981
v -1.23005497 -0.33431398 -0.537849
v -1.13890194 -0.14179399 -0.95067298
v -1.05518198 0.033619 -1.46135795
v -0.96179801 0.06419999 -1.37552905
v -1.30995798 1.87514197 0.73809802
v -1.08324003 2.19053888 -1.46193802
v -1.54376101 1.99706697 -0.497307
v -1.32729005 2.08658599 -1.05979502
v -1.54358303 1.87625694 0.30932399
v -1.09834301 1.22954595 1.19899404
v -1.41638398 1.03696203 0.46110698
v -1.04543995 1.18410503 -1.40929305
v -1.13173198 1.17469894 -1.49377
v -1.36442399 1.10461401 -0.901196
v -1.46777498 1.09788 -0.95410102
v -1.55318105 1.03442299 -0.39456901
v -1.667279 1.03241503 -0.41413599
v -1.52691304 1.04466795 0.49826699
v -1.18480896 1.22757303 1.27327394
v -0.31266799 1.24517703 -1.86772394
v -1.04331505 0.512353 0.928523
v -1.28981995 0.43767398 0.33245199
v -1.00698101 0.668958 -1.37672901
v -1.09652197 0.65000402 -1.46282005
v -1.26287698 0.56491297 -0.90905201
v -1.37473595 0.533903 -0.96134698
v -1.40515494 0.46182099 -0.44164401
v -1.52986204 0.429977 -0.460904
v -1.38267898 0.42260301 0.36823299
v -1.06178903 0.489093 0.97233897
v -0.34540799 0.75196701 -1.80743801
v -0.203694 0.440402 1.82851302
v -0.30274501 -0.49277401 1.25918102
v -0.19841399 1.32357597 2.2372241
v -0.25687101 1.66387999 -1.898198
v -1.61362099 1.47585701 0.461802
v -1.31101894 1.52627897 1.09710705
v -1.21694099 1.449072 1.02794504
v -1.46981799 1.56595695 -0.986045
v -1.70225405 1.49633002 -0.430541
v -1.61612701 1.405321 -0.40223398
v -1.39329695 1.47939503 -0.91750997
v -1.50591003 1.37870097 0.44339299
v -1.11780095 1.64531695 -1.51482105
v -1.03844404 1.56897401 -1.44026804
v -0.40078398 1.65528404 1.66451001
v -0.69298797 1.72375702 -1.85859501
v -0.54051101 1.91600501 -1.71193397
v -0.61267298 1.62118899 -1.71998894
v -0.87325102 1.666175 1.45506298
v -0.82786798 1.56970095 1.37658
v -0.69392103 2.31126308 -1.70809304
v -0.793823 1.67764198 1.25039899
v -0.84380501 1.99294996 1.05545795
v -0.66722798 0.70983398 -1.62980401
v -0.68216502 0.193764 -1.63165605
v -0.71666598 0.68486702 -1.76441299
v -0.72391098 0.15294599 -1.77238202
v -0.47834599 2.18299508 -1.56776595
v -0.43900299 2.41829705 -1.40504396
v -0.65503698 1.20443201 -1.67959499
v -0.66419601 2.59104704 -0.53069299
v -0.55986601 2.53387904 -0.97727197
v -0.70604199 2.70489192 -1.12602198
v -0.749107 2.7387309 -0.52186399
v -0.689713 2.4208951 0.18404799
v -0.823951 2.41736102 0.419934
v -0.71038597 1.21142494 -1.80396401
v -0.72738701 1.94222497 0.94759297
v -0.65714997 2.22157001 0.65425199
v -0.69061702 -0.494008 1.09017896
v -0.63534098 -0.41969901 0.93154299
v -0.58769601 0.489629 1.39093494
v -0.64578002 0.47601398 1.55029594
v -0.657386 1.26774394 1.86137902
v -0.589459 1.28840994 1.74334502
v -0.05911099 1.96809101 -2.0043919
v -0.058938 1.68206298 -1.94292402
v -0.04858399 2.3415091 0.80155897
v -0.051426 2.59674596 0.253003
v -0.06319399 -0.49369901 1.31035101
v -0.061322 0.454189 1.88671195
v -0.055824 2.69326806 -1.03054297
v -0.055032 2.78439998 -0.53586101
v -0.060679 1.26367604 -1.92109096
v -0.061824 0.76768398 -1.866925
v -0.059634 1.35055697 2.31623506
v -0.05015 1.69199705 1.71516394
v -0.057153 0.195342 -1.99095904
v -0.05002399 1.77685201 1.58194196
v -0.047928 2.03976702 1.19575095
v -0.05739099 2.21460104 -1.78383398
v -0.05547399 2.48762607 -1.51819896
v -0.062476 0.27808499 -1.84686005
v -0.34214299 1.78028094 -2.1726849
v -0.06185999 1.80148804 -2.23753404
v -0.050693 2.15627598 1.38308703
v -0.061078 2.44695901 -2.01677894
v -0.352871 1.24204301 -2.06481099
v -0.06024599 1.25657105 -2.15134692
v -0.05239 2.65550708 0.627855
v -0.35297 0.718768 -1.98040902
v -0.060297 0.749664 -2.0464971
v -0.058448 2.92673802 -1.25414705
v -0.055803 3.01922798 -0.51859498
v -0.321933 0.20107999 -1.97427105
v -0.239324 1.29509198 2.40431809
v -0.059424 1.32367396 2.48886609
v -0.060938 0.40255698 2.15983295
v -0.29204499 0.42842599 2.00595498
v -0.05192299 1.78094601 1.90926396
v -0.420623 1.76923298 1.81068205
v -0.06253899 -0.70472401 1.55548
v -0.30156999 2.91709303 -1.24219596
v -0.31939798 3.01336097 -0.51484102
v -0.392367 2.140661 1.31215703
v -0.30245101 2.43024992 -1.99068999
v -0.36880499 2.6474781 0.59858399
v -0.354198 -0.61781501 1.43269097
v -0.05869299 -0.91593599 -2.44507598
v -0.53297299 -0.89715802 -2.39345097
v -1.11003994 -0.88055801 -2.18869304
v -1.69597101 -0.95666599 -1.91750204
v -1.01678705 -0.79293501 -2.05733299
v -0.49097999 -0.78585702 -2.24180603
v -2.05135607 -1.907853 0.078156
v -1.70640194 -2.16714811 0.503546
v -1.501464 -2.07911396 0.441069
v -1.84541702 -1.789806 0.032843
v -2.09285306 -1.25841498 -1.34416294
v -1.87342298 -1.17523002 -1.27908003
v -1.53512704 -0.88343298 -1.80062604
v -0.06045699 -0.79640698 -2.28425288
v -2.24996089 -1.54449105 -0.75562202
v -2.02445507 -1.44925403 -0.74901801
v -0.060649 -0.25281998 -2.09790611
v -0.42052298 -0.241951 -2.0461049
v -0.81905198 -0.27957698 -1.86477005
v -1.19315397 -0.392885 -1.56151902
v -0.75977301 -0.235143 -1.72697305
v -0.40325701 -0.174536 -1.87365794
v -1.45889699 -1.03836405 0.049878
v -1.19944298 -1.10170102 0.458411
v -1.10276305 -1.03226494 0.37708801
v -1.31642103 -0.97988301 0.008232
v -1.452829 -0.61377298 -1.11738801
v -1.30096697 -0.56258797 -1.06106197
v -1.11841297 -0.371715 -1.50489103
v -0.062847 -0.159308 -1.92384004
v -1.57386398 -0.83859801 -0.64975601
v -1.40106594 -0.78415697 -0.62629401
v -0.059627 -0.56403398 -2.23816394
v -0.489616 -0.58873397 -2.21551394
v -0.962255 -0.600434 -2.02567911
v -1.41653204 -0.71723699 -1.71562397
v -0.88266599 -0.56377899 -1.89440095
v -0.453336 -0.51552403 -2.0341351
v -1.71773004 -1.48875999 0.031725
v -1.41701102 -1.62681901 0.41938
v -1.28240001 -1.56577801 0.32740199
v -1.57254898 -1.45198404 -0.010987
v -1.73949396 -0.96119099 -1.23569595
v -1.58377504 -0.93765097 -1.18009603
v -1.31340205 -0.66724699 -1.64863598
v -0.061565 -0.50418299 -2.07907605
v -1.88200795 -1.21191096 -0.724792
v -1.71046304 -1.19029104 -0.70408201
v -0.063173 -1.28298497 0.974424
v -0.06269899 -1.42976605 1.16699194
v -0.39572998 -1.23843896 0.90619999
v -0.42924299 -1.35360395 1.08018398
v -0.75940501 -1.13498401 0.693915
v -0.82526099 -1.21298205 0.82811099
v -0.06329099 -2.2385509 0.83799797
v -0.062655 -2.12381506 0.963916
v -0.45792499 -1.98578405 0.774818
v -0.49006 -2.03345894 0.90180397
v -0.88655102 -1.79228901 0.598742
v -0.96633297 -1.83014094 0.72215598
v -0.06315 -2.84986496 0.92130899
v -0.062054 -2.98594093 1.00691998
v -0.49549001 -2.70352697 0.84839302
v -0.50956398 -2.84995293 0.94747197
v -1.01541805 -2.40040111 0.66946399
v -1.09847402 -2.49188303 0.77347701
v -1.60700297 1.93103504 -0.08368799
v -1.74146699 1.46599805 0.002346
v -1.62493598 1.61875701 -0.057819
v -1.64324104 1.37096297 0.004739
v -1.56197404 1.00866901 0.006879
v -1.40793597 0.420506 -0.07749
v -0.05349899 2.73595809 -0.15460699
v -1.22907102 -0.42074298 -0.22639499
v -1.52638804 0.39421701 -0.070357
v -1.36305797 -0.47771599 -0.219502
v -1.40671896 1.98523497 -0.132393
v -1.67962002 1.01073503 0.014501
v -1.08891701 2.30675196 -0.17728799
v -0.69494402 2.53783702 -0.18021899
v -0.79650598 2.63902998 -0.070265
v -1.26218295 2.413028 -0.149385
v -1.57378494 -0.96790701 -0.29707598
v -1.40514004 -0.91249001 -0.30676001
v -1.70486199 -1.34937703 -0.34354099
v -2.0078721 -1.63046801 -0.34260699
v -2.21971607 -1.73218905 -0.32801398
v -0.28615 2.73150897 -0.154538
v -0.34627598 2.90841102 0.023979
v -1.869246 -1.37452495 -0.33182299
v -0.054143 2.91330289 0.031217
v -0.05886099 -0.79177302 -2.38448405
v -0.527188 -0.77784401 -2.3216989
v -1.05704903 -0.77324998 -2.13108611
v -2.08208394 -1.58958005 -0.33075898
v -1.91661095 -1.735924 0.06109999
v -1.94802498 -1.14098894 -1.304865
v -2.10406208 -1.41018796 -0.754749
v -1.579566 -0.87918502 -1.82268297
v -1.58218503 -1.92931401 0.469507
v -0.062293 -2.63425993 0.96694797
v -0.51665097 -2.51576995 0.908822
v -1.05634295 -2.2267971 0.75273597
v -0.54449701 -0.87497502 -2.43234205
v -0.058944 -0.89478397 -2.48886609
v -0.059138 -0.79818701 -2.43307709
v -0.53849601 -0.78603798 -2.37003898
v -1.12697804 -0.85468202 -2.22324204
v -1.08857405 -0.78656399 -2.17675399
v -1.07644605 -2.28429794 0.79790902
v -2.08494091 -1.87533795 0.10374599
v -2.25246501 -1.70222199 -0.3116
v -2.15182805 -1.61312305 -0.31435298
v -1.98938202 -1.78301596 0.090713
v -2.28296709 -1.51198005 -0.74574101
v -2.12544894 -1.22512304 -1.34507703
v -2.01418089 -1.14825201 -1.31652605
v -2.17027592 -1.42019605 -0.74891698
v -1.71894896 -0.928999 -1.92929494
v -1.63293397 -0.88184398 -1.85807597
v -1.73650705 -2.11031103 0.56330502
v -1.63611197 -1.98749697 0.51365298
v -0.06143099 -3.01922798 1.05409598
v -0.06131099 -2.72259903 1.01429998
v -0.517542 -2.87327909 0.99383902
v -0.524535 -2.59593701 0.95550197
v -1.11140799 -2.4794321 0.83719897
v 1.21574902 1.59309697 0.86017298
v 1.51173102 1.59005701 0.34634101
v 1.10435605 1.86497294 0.68402499
v 1.33022904 1.92619502 0.231564
v 0.93839901 2.08495807 0.59383899
v 1.05316305 2.2177999 0.167187
v 1.04473304 2.36371302 -0.51709199
v 1.35474097 2.04428911 -0.488931
v 0.97066897 1.862697 -1.44955503
v 1.57577705 1.67571497 -0.447261
v 1.33908402 1.76560604 -0.94610202
v 1.15258002 2.10293006 -0.94780302
v 0.88617897 2.36435294 -0.94872802
v 0.67126202 2.30811691 -1.35385394
v 0.83101397 2.12727308 -1.38338398
v 1.28473794 2.22752094 0.238371
v 1.20166194 2.50620889 -0.51907098
v 1.10400497 2.48869299 -1.00930297
v 0.270756 2.78029203 -0.53252703
v 0.29725301 2.58983397 0.246133
v 0.22789 2.69020891 -1.02266299
v 0.154778 2.21904897 -1.77475094
v 0.172459 2.49036097 -1.50770902
v 0.159105 1.96413004 -1.99864995
v 0.36911699 1.74436402 1.559749
v 0.341169 2.02170896 1.16320896
v 0.31534799 2.32719111 0.77828097
v 0.36988499 0.25931799 -1.79243195
v 1.25875997 -0.46860799 0.15129999
v 1.02202105 -0.44255599 0.626971
v 0.98145699 -0.37568101 0.554771
v 1.14869201 -0.42029899 0.110701
v 1.25486505 -0.205996 -1.00381398
v 1.36379098 -0.403308 -0.558981
v 1.23005604 -0.33431398 -0.537849
v 1.13890302 -0.14179399 -0.95067298
v 1.05518198 0.033619 -1.46135795
v 0.96179902 0.06419999 -1.37552905
v 1.30995798 1.87514197 0.73809802
v 1.08324098 2.19053888 -1.46193802
v 1.54376101 1.99706697 -0.497307
v 1.32729005 2.08658599 -1.05979502
v 1.54358303 1.87625694 0.30932399
v 1.09834396 1.22954595 1.19899404
v 1.41638398 1.03696203 0.46110698
v 1.04543995 1.18410503 -1.40929305
v 1.13173294 1.17469894 -1.49377
v 1.36442399 1.10461401 -0.901196
v 1.46777594 1.09788 -0.95410102
v 1.55318105 1.03442299 -0.39456901
v 1.667279 1.03241503 -0.41413599
v 1.52691304 1.04466795 0.49826699
v 1.18481004 1.22757303 1.27327394
v 0.31266799 1.24517703 -1.86772394
v 1.043316 0.512353 0.928523
v 1.28981995 0.43767398 0.33245199
v 1.00698196 0.668958 -1.37672901
v 1.09652304 0.65000402 -1.46282005
v 1.26287794 0.56491297 -0.90905201
v 1.37473702 0.533903 -0.96134698
v 1.40515494 0.46182099 -0.44164401
v 1.52986204 0.429977 -0.460904
v 1.38267898 0.42260301 0.36823299
v 1.06178998 0.489093 0.97233897
v 0.345409 0.75196701 -1.80743801
v 0.203694 0.440402 1.82851302
v 0.30274599 -0.49277401 1.25918102
v 0.19841399 1.32357597 2.2372241
v 0.25687199 1.66387999 -1.898198
v 1.61362195 1.47585701 0.461802
v 1.31101894 1.52627897 1.09710705
v 1.21694195 1.449072 1.02794504
v 1.46981799 1.56595695 -0.986045
v 1.70225405 1.49633002 -0.430541
v 1.61612701 1.405321 -0.40223398
v 1.39329695 1.47939503 -0.91750997
v 1.50591099 1.37870097 0.44339299
v 1.11780095 1.64531695 -1.51482105
v 1.03844499 1.56897401 -1.44026804
v 0.40078499 1.65528404 1.66451001
v 0.69298899 1.72375702 -1.85859501
v 0.54051202 1.91600501 -1.71193397
v 0.61267298 1.62118899 -1.71998894
v 0.87325102 1.666175 1.45506298
v 0.82786798 1.56970095 1.37658
v 0.69392198 2.31126308 -1.70809304
v 0.79382401 1.67764198 1.25039899
v 0.84380602 1.99294996 1.05545795
v 0.66722899 0.70983398 -1.62980401
v 0.68216502 0.193764 -1.63165605
v 0.71666598 0.68486702 -1.76441299
v 0.723912 0.15294599 -1.77238202
v 0.47834599 2.18299508 -1.56776595
v 0.439004 2.41829705 -1.40504396
v 0.65503799 1.20443201 -1.67959499
v 0.66419601 2.59104704 -0.53069299
v 0.55986702 2.53387904 -0.97727197
v 0.706043 2.70489192 -1.12602198
v 0.749107 2.7387309 -0.52186399
v 0.68971401 2.4208951 0.18404799
v 0.82395201 2.41736102 0.419934
v 0.71038699 1.21142494 -1.80396401
v 0.72738701 1.94222497 0.94759297
v 0.65714997 2.22157001 0.65425199
v 0.69061797 -0.494008 1.09017896
v 0.635342 -0.41969901 0.93154299
v 0.58769702 0.489629 1.39093494
v 0.64578002 0.47601398 1.55029594
v 0.657386 1.26774394 1.86137902
v 0.58946001 1.28840994 1.74334502
v 0.05911099 1.96809101 -2.0043919
v 0.05893899 1.68206298 -1.94292402
v 0.04858399 2.3415091 0.80155897
v 0.05142699 2.59674596 0.253003
v 0.06319499 -0.49369901 1.31035101
v 0.06132299 0.454189 1.88671195
v 0.055824 2.69326806 -1.03054297
v 0.05503299 2.78439998 -0.53586101
v 0.060679 1.26367604 -1.92109096
v 0.061825 0.76768398 -1.866925
v 0.05963499 1.35055697 2.31623506
v 0.050151 1.69199705 1.71516394
v 0.057154 0.195342 -1.99095904
v 0.05002399 1.77685201 1.58194196
v 0.047929 2.03976702 1.19575095
v 0.05739099 2.21460104 -1.78383398
v 0.055475 2.48762607 -1.51819896
v 0.062476 0.27808499 -1.84686005
v 0.34214401 1.78028094 -2.1726849
v 0.06185999 1.80148804 -2.23753404
v 0.050693 2.15627598 1.38308703
v 0.061078 2.44695901 -2.01677894
v 0.352871 1.24204301 -2.06481099
v 0.06024599 1.25657105 -2.15134692
v 0.05239 2.65550708 0.627855
v 0.35297098 0.718768 -1.98040902
v 0.060297 0.749664 -2.0464971
v 0.058449 2.92673802 -1.25414705
v 0.05580399 3.01922798 -0.51859498
v 0.32193401 0.20107999 -1.97427105
v 0.239325 1.29509198 2.40431809
v 0.059425 1.32367396 2.48886609
v 0.060938 0.40255698 2.15983295
v 0.29204499 0.42842599 2.00595498
v 0.05192299 1.78094601 1.90926396
v 0.42062398 1.76923298 1.81068205
v 0.06254 -0.70472401 1.55548
v 0.30157101 2.91709303 -1.24219596
v 0.31939899 3.01336097 -0.51484102
v 0.39236798 2.140661 1.31215703
v 0.30245101 2.43024992 -1.99068999
v 0.368806 2.6474781 0.59858399
v 0.354198 -0.61781501 1.43269097
v 0.058694 -0.91593599 -2.44507598
v 0.532974 -0.89715802 -2.39345097
v 1.11004102 -0.88055801 -2.18869304
v 1.69597101 -0.95666599 -1.91750204
v 1.016788 -0.79293501 -2.05733299
v 0.49097999 -0.78585702 -2.24180603
v 2.05135607 -1.907853 0.078156
v 1.70640194 -2.16714811 0.503546
v 1.501464 -2.07911396 0.441069
v 1.84541702 -1.789806 0.032843
v 2.09285306 -1.25841498 -1.34416294
v 1.87342298 -1.17523002 -1.27908003
v 1.53512704 -0.88343298 -1.80062604
v 0.06045699 -0.79640698 -2.28425288
v 2.24996089 -1.54449105 -0.75562202
v 2.02445507 -1.44925403 -0.74901801
v 0.06064999 -0.25281998 -2.09790611
v 0.42052298 -0.241951 -2.0461049
v 0.81905198 -0.27957698 -1.86477005
v 1.19315505 -0.392885 -1.56151902
v 0.75977402 -0.235143 -1.72697305
v 0.40325701 -0.174536 -1.87365794
v 1.45889699 -1.03836405 0.049878
v 1.19944298 -1.10170102 0.458411
v 1.10276401 -1.03226494 0.37708801
v 1.31642103 -0.97988301 0.008232
v 1.452829 -0.61377298 -1.11738801
v 1.30096697 -0.56258797 -1.06106197
v 1.11841404 -0.371715 -1.50489103
v 0.062848 -0.159308 -1.92384004
v 1.57386505 -0.83859801 -0.64975601
v 1.40106701 -0.78415697 -0.62629401
v 0.059627 -0.56403398 -2.23816394
v 0.48961699 -0.58873397 -2.21551394
v 0.962255 -0.600434 -2.02567911
v 1.41653204 -0.71723699 -1.71562397
v 0.882667 -0.56377899 -1.89440095
v 0.453336 -0.51552403 -2.0341351
v 1.71773004 -1.48875999 0.031725
v 1.41701102 -1.62681901 0.41938
v 1.28240096 -1.56577801 0.32740199
v 1.57254898 -1.45198404 -0.010987
v 1.73949396 -0.96119099 -1.23569595
v 1.58377504 -0.93765097 -1.18009603
v 1.31340205 -0.66724699 -1.64863598
v 0.06156599 -0.50418299 -2.07907605
v 1.88200795 -1.21191096 -0.724792
v 1.71046304 -1.19029104 -0.70408201
v 0.063173 -1.28298497 0.974424
v 0.0627 -1.42976605 1.16699194
v 0.39572998 -1.23843896 0.90619999
v 0.42924299 -1.35360395 1.08018398
v 0.75940597 -1.13498401 0.693915
v 0.82526201 -1.21298205 0.82811099
v 0.06329199 -2.2385509 0.83799797
v 0.062656 -2.12381506 0.963916
v 0.457926 -1.98578405 0.774818
v 0.49006101 -2.03345894 0.90180397
v 0.88655197 -1.79228901 0.598742
v 0.96633398 -1.83014094 0.72215598
v 0.06315 -2.84986496 0.92130899
v 0.062054 -2.98594093 1.00691998
v 0.49549099 -2.70352697 0.84839302
v 0.50956398 -2.84995293 0.94747197
v 1.01541805 -2.40040111 0.66946399
v 1.09847497 -2.49188303 0.77347701
v 1.60700404 1.93103504 -0.08368799
v 1.74146699 1.46599805 0.002346
v 1.62493598 1.61875701 -0.057819
v 1.64324104 1.37096297 0.004739
v 1.56197404 1.00866901 0.006879
v 1.40793705 0.420506 -0.07749
v 0.0535 2.73595809 -0.15460699
v 1.22907102 -0.42074298 -0.22639499
v 1.52638804 0.39421701 -0.070357
v 1.36305797 -0.47771599 -0.219502
v 1.40671896 1.98523497 -0.132393
v 1.67962002 1.01073503 0.014501
v 1.08891797 2.30675196 -0.17728799
v 0.69494402 2.53783702 -0.18021899
v 0.796507 2.63902998 -0.070265
v 1.26218295 2.413028 -0.149385
v 1.57378494 -0.96790701 -0.29707598
v 1.40514099 -0.91249001 -0.30676001
v 1.70486199 -1.34937703 -0.34354099
v 2.0078721 -1.63046801 -0.34260699
v 2.21971702 -1.73218905 -0.32801398
v 0.28615 2.73150897 -0.154538
v 0.34627598 2.90841102 0.023979
v 1.869246 -1.37452495 -0.33182299
v 0.054143 2.91330289 0.031217
v 0.05886099 -0.79177302 -2.38448405
v 0.52718901 -0.77784401 -2.3216989
v 1.05704999 -0.77324998 -2.13108611
v 2.08208394 -1.58958005 -0.33075898
v 1.91661095 -1.735924 0.06109999
v 1.94802498 -1.14098894 -1.304865
v 2.10406303 -1.41018796 -0.754749
v 1.579566 -0.87918502 -1.82268297
v 1.58218503 -1.92931401 0.469507
v 0.06229399 -2.63425993 0.96694797
v 0.51665198 -2.51576995 0.908822
v 1.05634403 -2.2267971 0.75273597
v 0.54449802 -0.87497502 -2.43234205
v 0.058944 -0.89478397 -2.48886609
v 0.05913899 -0.79818701 -2.43307709
v 0.53849697 -0.78603798 -2.37003898
v 1.12697899 -0.85468202 -2.22324204
v 1.08857405 -0.78656399 -2.17675399
v 1.07644605 -2.28429794 0.79790902
v 2.08494091 -1.87533795 0.10374599
v 2.25246596 -1.70222199 -0.3116
v 2.151829 -1.61312305 -0.31435298
v 1.98938202 -1.78301596 0.090713
v 2.28296804 -1.51198005 -0.74574101
v 2.12544894 -1.22512304 -1.34507703
v 2.01418089 -1.14825201 -1.31652605
v 2.17027711 -1.42019605 -0.74891698
v 1.71895003 -0.928999 -1.92929494
v 1.63293397 -0.88184398 -1.85807597
v 1.73650705 -2.11031103 0.56330502
v 1.63611304 -1.98749697 0.51365298
v 0.061432 -3.01922798 1.05409598
v 0.061312 -2.72259903 1.01429998
v 0.51754301 -2.87327909 0.99383902
v 0.52453601 -2.59593701 0.95550197
v 1.11140894 -2.4794321 0.83719897
v -1.47413694 0.81705099 0.45068699
v -1.13979494 0.95735901 1.16316103
v -1.62355101 0.78514802 -0.016549
v -0.71268397 1.01875495 -1.78949201
v -1.11884903 0.98271 -1.482445
v -1.43373203 0.89151799 -0.95675301
v -1.616997 0.81198 -0.431248
v -0.65313899 0.978046 1.74755203
v -0.352907 1.05057394 -2.03392791
v -0.25861498 0.97797399 2.25855493
v -0.06026399 1.07109105 -2.11298203
v -0.059978 0.986633 2.3684709
v 1.13979601 0.95735901 1.16316103
v 1.47413694 0.81705099 0.45068699
v 1.62355101 0.78514802 -0.016549
v 1.11884903 0.98271 -1.482445
v 0.71268397 1.01875495 -1.78949201
v 1.61699795 0.81198 -0.431248
v 1.43373203 0.89151799 -0.95675301
v 0.65314 0.978046 1.74755203
v 0.35290798 1.05057394 -2.03392791
v 0.25861498 0.97797399 2.25855493
v 0.060265 1.07109105 -2.11298203
v 0.059978 0.986633 2.3684709
v -1.20757794 0.93017 1.21035397
v -1.55027794 0.791857 0.48359999
v -1.60305297 1.01947403 0.53118002
v -1.25259101 1.20038294 1.32046794
v -1.70756304 0.762829 -0.004357
v -1.76363098 0.98841601 0.026693
v -1.18294096 0.97462797 -1.54209399
v -0.76283597 1.01170003 -1.85952198
v -0.76053798 1.20437002 -1.87399399
v -1.19582498 1.16661596 -1.55341804
v -1.70108604 0.79449397 -0.44848701
v -1.51060295 0.87946599 -0.99534702
v -1.54464697 1.08582699 -0.99269497
v -1.75136804 1.01492905 -0.43137499
v -0.72133797 1.243878 1.91454505
v -0.71709102 0.95418 1.80071795
v -0.38971298 1.03865397 -2.11267304
v -0.38967698 1.23012304 -2.14355611
v -0.29265299 1.26910805 2.47028207
v -0.311944 0.95199102 2.32451891
v -0.07162199 1.05451703 -2.19779205
v -0.071603 1.23999702 -2.23615789
v 1.60305297 1.01947403 0.53118002
v 1.55027794 0.791857 0.48359999
v 1.20757794 0.93017 1.21035397
v 1.25259196 1.20038294 1.32046794
v 1.76363098 0.98841601 0.026693
v 1.70756304 0.762829 -0.004357
v 0.76053899 1.20437002 -1.87399399
v 0.76283699 1.01170003 -1.85952198
v 1.18294203 0.97462797 -1.54209399
v 1.19582605 1.16661596 -1.55341804
v 1.54464697 1.08582699 -0.99269497
v 1.51060295 0.87946498 -0.99534702
v 1.70108604 0.79449397 -0.44848701
v 1.75136804 1.01492905 -0.43137499
v 0.71709197 0.95418 1.80071795
v 0.72133797 1.243878 1.91454505
v 0.38967698 1.23012304 -2.14355611
v 0.389714 1.03865397 -2.11267304
v 0.31194499 0.95199102 2.32451891
v 0.292654 1.26910805 2.47028207
v 0.071603 1.23999702 -2.23615789
v 0.07162199 1.05451703 -2.19779205
v 0.078238 0.95636397 2.44941592
v -0.078238 0.95636397 2.44941592
v -0.077684 1.29340505 2.5698111
v 0.077684 1.29340505 2.5698111
g Group10
f 146 80 122 145
g Group15
f 40 86 81 78
f 42 40 78 73
f 43 220 221 70
g Group20
f 11 10 75 76
g Group15
f 41 42 73 74
g Group20
f 10 222 223 75
g Group15
f 39 43 70 71
g Group20
f 9 11 76 79
f 24 82 83 69
g Group10
f 80 146 84 85
g Group20
f 2 1 72 77
g Group15
f 146 150 88 84
g Group20
f 45 44 55 56
g Group15
f 187 186 245 246
g Group20
f 183 175 191 199
f 174 182 198 190
f 76 75 50 48
g Group15
f 74 73 49 51
g Group25
f 72 71 53 44
g Group15
f 172 171 187 188
f 71 70 52 53
g Group20
f 25 80 85 87
g Group30
f 68 141 142 121
g Group20
f 19 21 117 118
g Group15
f 180 173 189 196
g Group20
f 179 178 194 195
g Group15
f 177 176 192 193
g Group20
f 50 224 225 61
f 56 55 31 32
f 6 5 3 4
f 175 174 190 191
f 65 89 90 28
g Group15
f 58 91 92 37
g Group20
f 57 59 36 38
f 77 72 44 45
f 66 67 106 107
g Group15
f 153 144 108 105
f 16 43 39
f 140 123 170 171
g Group20
f 22 93 82 24
g Group15
f 173 172 188 189
g Group20
f 14 15 93 94
g Group15
f 18 98 86 40
g Group20
f 9 15 12 11
f 69 83 95 54
f 19 96 97 21
g Group15
f 149 148 98 99
g Group20
f 23 21 97 94
f 12 15 14 13
g Group15
f 42 18 40
g Group20
f 7 8 12 13
g Group15
f 60 58 37 33
g Group20
f 61 225 227 35
g Group15
f 63 228 229 29
f 17 18 42 41
g Group20
f 10 8 230 222
f 59 61 35 36
g Group15
f 62 60 33 34
f 64 63 29 30
g Group20
f 10 11 12 8
f 54 95 89 65
f 6 232 233 100
g Group15
f 16 101 234 235
f 78 81 102 47
g Group20
f 79 76 48 46
g Group15
f 73 78 47 49
g Group20
f 7 232 230 8
g Group15
f 17 41 220 235
g Group20
f 48 50 61 59
f 25 87 103 26
f 75 223 224 50
f 5 6 100 104
f 46 48 59 57
g Group15
f 70 221 231 52
g Group20
f 166 165 164 157
f 2 4 3 1
f 27 26 103 104
g Group15
f 152 101 88 150
f 37 92 172 173
g Group20
f 28 90 174 175
g Group15
f 30 29 176 177
g Group20
f 32 31 178 179
g Group15
f 33 37 173 180
g Group20
f 38 36 181 182
g Group15
f 34 33 180 184
g Group20
f 36 35 185 181
g Group15
f 29 229 236 176
g Group20
f 35 227 237 185
g Group30
f 44 53 109 110
g Group20
f 55 44 110 107
g Group15
f 171 170 186 187
f 86 151 129 81
g Group20
f 82 9 79 83
g Group10
f 85 84 71 72
g Group15
f 84 88 39 71
g Group20
f 185 237 238 201
f 87 85 72 1
f 165 169 168 164
f 89 57 38 90
g Group15
f 91 136 140 92
g Group20
f 93 15 9 82
f 169 239 240 168
f 94 93 22 23
g Group15
f 98 148 151 86
g Group20
f 83 79 46 95
f 96 7 13 97
g Group15
f 99 98 18 17
g Group20
f 94 97 13 14
f 163 162 161 160
f 95 46 57 89
f 100 233 241 20
g Group15
f 101 152 242 234
f 81 129 133 102
f 176 236 243 192
g Group20
f 87 1 3 103
f 104 100 20 27
f 104 103 3 5
g Group15
f 101 16 39 88
f 92 140 171 172
g Group20
f 90 38 182 174
f 107 106 31 55
g Group15
f 105 108 64 30
g Group30
f 110 109 141 68
g Group20
f 107 110 68 66
f 111 24 69 112
f 114 113 27 20
f 116 115 67 66
f 119 54 65 120
f 125 124 25 26
f 125 26 27 113
f 126 22 24 111
f 126 127 23 22
f 117 21 23 127
f 114 20 241 226
f 122 80 25 124
f 120 65 28 128
f 116 66 68 121
f 128 28 175 183
f 112 69 54 119
g Group15
f 151 132 130 129
g Group20
f 199 191 159 167
f 181 185 201 197
g Group15
f 184 180 196 200
g Group20
f 190 198 166 158
g Group15
f 129 130 134 133
f 188 187 246 247
f 144 143 572 570
f 146 145 131 150
g Group20
f 201 238 239 169
g Group15
f 149 139 138 148
f 192 243 248 249
g Group20
f 197 201 169 165
g Group15
f 200 196 250 251
f 131 135 152 150
g Group20
f 198 197 165 166
g Group15
f 132 151 148 138
f 196 189 252 250
g Group20
f 195 194 162 163
g Group15
f 135 244 242 152
f 193 192 249 253
g Group20
f 191 190 158 159
g Group15
f 147 143 144 153
g Group20
f 182 181 197 198
g Group15
f 189 188 247 252
g Group20
f 167 159 155 154
f 158 166 157 156
f 159 158 156 155
g Group15
f 147 153 205 203
g Group20
f 67 115 202 204
f 106 67 204 206
g Group15
f 153 105 207 205
g Group20
f 31 106 206 178
g Group15
f 105 30 177 207
f 203 205 211 209
g Group20
f 204 202 208 210
f 206 204 210 212
g Group15
f 205 207 213 211
g Group20
f 178 206 212 194
g Group15
f 207 177 193 213
f 209 211 255 254
g Group20
f 210 208 214 216
f 212 210 216 218
g Group15
f 211 213 256 255
g Group20
f 194 212 218 162
g Group15
f 213 193 253 256
f 220 41 74 221
g Group20
f 222 2 77 223
f 224 45 56 225
f 225 56 32 227
g Group15
f 228 62 34 229
g Group20
f 222 230 4 2
f 232 7 96 233
g Group15
f 235 234 99 17
g Group20
f 232 6 4 230
g Group15
f 235 220 43 16
g Group20
f 223 77 45 224
g Group15
f 221 74 51 231
f 229 34 184 236
g Group20
f 227 32 179 237
f 237 179 195 238
f 239 163 160 240
f 233 96 19 241
g Group15
f 234 242 149 99
f 236 184 200 243
g Group20
f 226 241 19 118
f 238 195 163 239
g Group15
f 243 200 251 248
f 244 139 149 242
g Group20
f 161 162 218 219
f 219 218 216 217
f 217 216 214 215
g Group15
f 260 259 258 257
g Group20
f 154 155 257 258
g Group15
f 246 245 259 260
f 262 260 257 261
g Group20
f 155 156 261 257
g Group15
f 247 246 260 262
f 267 266 265 264
g Group20
f 240 160 264 265
g Group15
f 249 248 266 267
f 271 270 269 268
g Group20
f 164 168 268 269
g Group15
f 251 250 270 271
f 270 273 272 269
g Group20
f 157 164 269 272
g Group15
f 250 252 273 270
f 275 267 264 274
g Group20
f 160 161 274 264
g Group15
f 253 249 267 275
f 273 262 261 272
g Group20
f 156 157 272 261
g Group15
f 252 247 262 273
f 277 279 278 276
g Group20
f 217 215 276 278
g Group15
f 254 255 279 277
f 279 263 280 278
g Group20
f 219 217 278 280
g Group15
f 255 256 263 279
f 263 275 274 280
g Group20
f 161 219 280 274
g Group15
f 256 253 275 263
f 266 271 268 265
g Group20
f 168 240 265 268
g Group15
f 248 251 271 266
f 137 123 140 136
g Group10
f 426 425 402 360
g Group15
f 320 358 361 366
f 322 353 358 320
f 323 350 501 500
g Group20
f 291 356 355 290
g Group15
f 321 354 353 322
g Group20
f 290 355 503 502
g Group15
f 319 351 350 323
g Group20
f 289 359 356 291
f 304 349 363 362
g Group10
f 360 365 364 426
g Group20
f 282 357 352 281
g Group15
f 426 364 368 430
g Group20
f 325 336 335 324
g Group15
f 467 526 525 466
g Group20
f 463 479 471 455
f 454 470 478 462
f 356 328 330 355
g Group15
f 354 331 329 353
g Group35
f 352 324 333 351
g Group15
f 452 468 467 451
f 351 333 332 350
g Group20
f 305 367 365 360
g Group30
f 348 401 422 421
g Group20
f 299 398 397 301
g Group15
f 460 476 469 453
g Group20
f 459 475 474 458
g Group15
f 457 473 472 456
g Group20
f 330 341 505 504
f 336 312 311 335
f 286 284 283 285
f 455 471 470 454
f 345 308 370 369
g Group15
f 338 317 372 371
g Group20
f 337 318 316 339
f 357 325 324 352
f 346 387 386 347
g Group15
f 433 385 388 424
f 319 323 296
f 420 451 450 403
g Group20
f 302 304 362 373
g Group15
f 453 469 468 452
g Group20
f 294 374 373 295
g Group15
f 298 320 366 378
g Group20
f 289 291 292 295
f 349 334 375 363
f 299 301 377 376
g Group15
f 429 379 378 428
g Group20
f 303 374 377 301
f 292 293 294 295
g Group15
f 320 298 322
g Group20
f 287 293 292 288
g Group15
f 340 313 317 338
g Group20
f 341 315 507 505
g Group15
f 343 309 509 508
f 297 321 322 298
g Group20
f 290 502 510 288
f 339 316 315 341
g Group15
f 342 314 313 340
f 344 310 309 343
g Group20
f 290 288 292 291
f 334 345 369 375
f 286 380 513 512
g Group15
f 296 515 514 381
f 358 327 382 361
g Group20
f 359 326 328 356
g Group15
f 353 329 327 358
g Group20
f 287 288 510 512
g Group15
f 297 515 500 321
g Group20
f 328 339 341 330
f 305 306 383 367
f 355 330 504 503
f 285 384 380 286
f 326 337 339 328
g Group15
f 350 332 511 501
g Group20
f 446 437 444 445
f 282 281 283 284
f 307 384 383 306
g Group15
f 432 430 368 381
f 317 453 452 372
g Group20
f 308 455 454 370
g Group15
f 310 457 456 309
g Group20
f 312 459 458 311
g Group15
f 313 460 453 317
g Group20
f 318 462 461 316
g Group15
f 314 464 460 313
g Group20
f 316 461 465 315
g Group15
f 309 456 516 509
g Group20
f 315 465 517 507
g Group30
f 324 390 389 333
g Group20
f 335 387 390 324
g Group15
f 451 467 466 450
f 366 361 409 431
g Group20
f 362 363 359 289
g Group10
f 365 352 351 364
g Group15
f 364 351 319 368
g Group20
f 465 481 518 517
f 367 281 352 365
f 445 444 448 449
f 369 370 318 337
g Group15
f 371 372 420 416
g Group20
f 373 362 289 295
f 449 448 520 519
f 374 303 302 373
g Group15
f 378 366 431 428
g Group20
f 363 375 326 359
f 376 377 293 287
g Group15
f 379 297 298 378
g Group20
f 374 294 293 377
f 443 440 441 442
f 375 369 337 326
f 380 300 521 513
g Group15
f 381 514 522 432
f 361 382 413 409
f 456 472 523 516
g Group20
f 367 383 283 281
f 384 307 300 380
f 384 285 283 383
g Group15
f 381 368 319 296
f 372 452 451 420
g Group20
f 370 454 462 318
f 387 335 311 386
g Group15
f 385 310 344 388
g Group30
f 390 348 421 389
g Group20
f 387 346 348 390
f 391 392 349 304
f 394 300 307 393
f 396 346 347 395
f 399 400 345 334
f 405 306 305 404
f 405 393 307 306
f 406 391 304 302
f 406 302 303 407
f 397 407 303 301
f 394 506 521 300
f 402 404 305 360
f 400 408 308 345
f 396 401 348 346
f 408 463 455 308
f 392 399 334 349
g Group15
f 431 409 410 412
g Group20
f 479 447 439 471
f 461 477 481 465
g Group15
f 464 480 476 460
g Group20
f 470 438 446 478
g Group15
f 409 413 414 410
f 468 527 526 467
f 424 582 584 423
f 426 430 411 425
g Group20
f 481 449 519 518
g Group15
f 429 428 418 419
f 472 529 528 523
g Group20
f 477 445 449 481
g Group15
f 480 531 530 476
f 411 430 432 415
g Group20
f 478 446 445 477
g Group15
f 412 418 428 431
f 476 530 532 469
g Group20
f 475 443 442 474
g Group15
f 415 432 522 524
f 473 533 529 472
g Group20
f 471 439 438 470
g Group15
f 427 433 424 423
g Group20
f 462 478 477 461
g Group15
f 469 532 527 468
g Group20
f 447 434 435 439
f 438 436 437 446
f 439 435 436 438
g Group15
f 427 483 485 433
g Group20
f 347 484 482 395
f 386 486 484 347
g Group15
f 433 485 487 385
g Group20
f 311 458 486 386
g Group15
f 385 487 457 310
f 483 489 491 485
g Group20
f 484 490 488 482
f 486 492 490 484
g Group15
f 485 491 493 487
g Group20
f 458 474 492 486
g Group15
f 487 493 473 457
f 489 534 535 491
g Group20
f 490 496 494 488
f 492 498 496 490
g Group15
f 491 535 536 493
g Group20
f 474 442 498 492
g Group15
f 493 536 533 473
f 500 501 354 321
g Group20
f 502 503 357 282
f 504 505 336 325
f 505 507 312 336
g Group15
f 508 509 314 342
g Group20
f 502 282 284 510
f 512 513 376 287
g Group15
f 515 297 379 514
g Group20
f 512 510 284 286
g Group15
f 515 296 323 500
g Group20
f 503 504 325 357
g Group15
f 501 511 331 354
f 509 516 464 314
g Group20
f 507 517 459 312
f 517 518 475 459
f 519 520 440 443
f 513 521 299 376
g Group15
f 514 379 429 522
f 516 523 480 464
g Group20
f 506 398 299 521
f 518 519 443 475
g Group15
f 523 528 531 480
f 524 522 429 419
g Group20
f 441 499 498 442
f 499 497 496 498
f 497 495 494 496
g Group15
f 540 537 538 539
g Group20
f 434 538 537 435
g Group15
f 526 540 539 525
f 542 541 537 540
g Group20
f 435 537 541 436
g Group15
f 527 542 540 526
f 547 544 545 546
g Group20
f 520 545 544 440
g Group15
f 529 547 546 528
f 551 548 549 550
g Group20
f 444 549 548 448
g Group15
f 531 551 550 530
f 550 549 552 553
g Group20
f 437 552 549 444
g Group15
f 530 550 553 532
f 555 554 544 547
g Group20
f 440 544 554 441
g Group15
f 533 555 547 529
f 553 552 541 542
g Group20
f 436 541 552 437
g Group15
f 532 553 542 527
f 557 556 558 559
g Group20
f 497 558 556 495
g Group15
f 534 557 559 535
f 559 558 560 543
g Group20
f 499 560 558 497
g Group15
f 535 559 543 536
f 543 560 554 555
g Group20
f 441 554 560 499
g Group15
f 536 543 555 533
f 546 545 548 551
g Group20
f 448 548 545 520
g Group15
f 528 546 551 531
f 417 416 420 403
g Group30
f 401 121 142 422
g Group15
f 423 143 147 427
f 427 147 203 483
f 483 203 209 489
f 489 209 254 534
f 534 254 277 557
f 557 277 276 556
g Group20
f 556 276 215 495
f 495 215 214 494
f 494 214 208 488
f 488 208 202 482
f 482 202 115 395
f 395 115 116 396
f 396 116 121 401
g Group10
f 425 145 122 402
g Group15
f 411 131 145 425
f 415 135 131 411
f 524 244 135 415
f 419 139 244 524
f 418 138 139 419
f 412 132 138 418
f 410 130 132 412
f 414 134 130 410
f 417 137 571 583
f 403 123 137 417
f 450 170 123 403
f 466 186 170 450
f 525 245 186 466
f 245 525 539 259
f 538 258 259 539
g Group20
f 258 538 434 154
f 154 434 447 167
f 167 447 479 199
f 199 479 463 183
f 183 463 408 128
f 128 408 400 120
f 120 400 399 119
f 119 399 392 112
f 112 392 391 111
f 111 391 406 126
f 126 406 407 127
f 127 407 397 117
f 117 397 398 118
f 118 398 506 226
f 226 506 394 114
f 114 394 393 113
f 113 393 405 125
f 124 404 402 122
f 125 405 404 124
g Group15
f 562 561 63 64
f 561 563 228 63
f 565 564 91 58
f 567 566 60 62
f 566 565 58 60
f 562 64 108 568
f 564 569 136 91
f 568 108 144 570
f 569 571 137 136
f 563 567 62 228
f 573 344 343 574
f 574 343 508 575
f 576 338 371 577
f 578 342 340 579
f 579 340 338 576
f 573 580 388 344
f 577 371 416 581
f 580 582 424 388
f 581 416 417 583
f 575 508 342 578
f 584 572 143 423
g Group40144
f 588 587 586 585
g Group40147
f 561 562 585 586
f 53 52 587 588
g Group40144
f 587 590 589 586
g Group40147
f 563 561 586 589
f 52 231 590 587
g Group40144
f 594 593 592 591
g Group40147
f 564 565 591 592
f 47 102 593 594
g Group40144
f 598 597 596 595
g Group40147
f 566 567 595 596
f 51 49 597 598
g Group40144
f 597 594 591 596
g Group40147
f 565 566 596 591
f 49 47 594 597
g Group40144
f 588 585 600 599
g Group40147
f 109 53 588 599
f 562 568 600 585
g Group40144
f 593 602 601 592
g Group40147
f 569 564 592 601
f 102 133 602 593
g Group40144
f 599 600 604 603
g Group40147
f 141 109 599 603
f 568 570 604 600
g Group40144
f 602 606 605 601
g Group40147
f 571 569 601 605
f 133 134 606 602
g Group40144
f 590 598 595 589
g Group40147
f 567 563 589 595
f 231 51 598 590
g Group40144
f 610 609 608 607
g Group40147
f 332 333 610 607
f 573 574 608 609
g Group40144
f 607 608 612 611
g Group40147
f 511 332 607 611
f 574 575 612 608
g Group40144
f 616 615 614 613
g Group40147
f 382 327 616 613
f 576 577 614 615
g Group40144
f 620 619 618 617
g Group40147
f 329 331 620 617
f 578 579 618 619
g Group40144
f 617 618 615 616
g Group40147
f 327 329 617 616
f 579 576 615 618
g Group40144
f 610 622 621 609
g Group40147
f 580 573 609 621
f 333 389 622 610
g Group40144
f 613 614 624 623
g Group40147
f 413 382 613 623
f 577 581 624 614
g Group40144
f 622 626 625 621
g Group40147
f 582 580 621 625
f 389 421 626 622
g Group40144
f 623 624 628 627
g Group40147
f 414 413 623 627
f 581 583 628 624
g Group40144
f 611 612 619 620
g Group40147
f 331 511 611 620
f 575 578 619 612
g Group40144
f 632 631 630 629
g Group40147
f 572 584 629 630
f 422 142 631 632
g Group40144
f 604 630 631 603
g Group40147
f 142 141 603 631
f 570 572 630 604
g Group40144
f 625 626 632 629
g Group40147
f 584 582 625 629
f 421 422 632 626
g Group40144
f 628 605 606 627
g Group40147
f 134 414 627 606
f 583 571 605 628

 