# File exported by ZBrush version 2021
# www.zbrush.com
#Vertex Count 1054
#Face Count 1088
#Auto scale x=1.000000 y=1.000000 z=1.000000
#Auto offset x=0.000000 y=0.000000 z=0.000000
v 0.98394405 0.00873103 0.37013575
v 1.04262197 0.01149401 0.17633581
v 1.04278302 0.13238599 0.17641881
v 0.98408705 0.13241601 0.37020874
v 0.88674604 0.00463998 0.55261874
v 0.88572806 0.13119101 0.55449974
v 0.753228 -0.00145497 0.71602082
v 0.75331604 0.12808898 0.71605384
v 0.59186601 -0.00918999 0.84862679
v 0.59192401 0.123362 0.84864485
v 0.40771603 -0.017064 0.94715762
v 0.40775001 0.11815604 0.94716578
v 0.20573999 -0.02299699 1.00817978
v 0.20787698 0.11409097 1.00783073
v 0 -0.02520701 1.02831375
v 0 0.11255601 1.02831375
v -0.20574903 -0.02300798 1.00817978
v -0.20788501 0.114082 1.00783073
v -0.40775701 -0.01714497 0.94715875
v -0.40778198 0.11809098 0.94716674
v -0.591968 -0.00943499 0.84862864
v -0.592004 0.12316504 0.84864783
v -0.753421 -0.00195998 0.71602582
v -0.75346899 0.12768504 0.71606075
v -0.88705402 0.003829 0.55262982
v -0.88597506 0.13053605 0.55450975
v -0.98436999 0.00762301 0.3701438
v -0.98443299 0.13152203 0.37021672
v -1.04313397 0.01017299 0.17633581
v -1.04320001 0.13131299 0.1764208
v 0.98379701 -0.112855 0.37005379
v 1.04245495 -0.10733999 0.17624279
v 0.88663107 -0.11979399 0.55254876
v 0 -0.16116699 1.02831375
v 0.20572897 -0.15825299 1.00817775
v -0.20574 -0.15826599 1.00817775
v -0.98431003 -0.11418999 0.37006178
v -0.88700199 -0.12077598 0.55256474
v -1.043069 -0.10892699 0.17624279
v 0.98367804 -0.20600999 0.36998873
v 1.04232108 -0.19838199 0.17616981
v 0.88540297 -0.21515199 0.55432677
v 0.75308299 -0.226656 0.71593785
v 0.75315505 -0.12891998 0.71596777
v 0.59177404 -0.23991599 0.8485797
v 0.59182101 -0.13973398 0.84859681
v 0.40766501 -0.25276601 0.94713878
v 0.40769201 -0.15037199 0.94714576
v 0.20784099 -0.262216 1.0078237
v 0 -0.265697 1.02831375
v -0.20785501 -0.26223099 1.0078237
v -0.40772199 -0.25287899 0.94713968
v -0.40774101 -0.15046998 0.94714671
v -0.59191501 -0.24025799 0.84858381
v -0.59194201 -0.14003197 0.84860074
v -0.753349 -0.227356 0.71594679
v -0.753385 -0.12952999 0.71597874
v -0.88582599 -0.216277 0.55433976
v -0.984263 -0.20753598 0.3699958
v -1.04301798 -0.200192 0.17616781
v 0.94669997 0.008778 0.35474973
v 1.00423812 0.01155099 0.16471481
v 1.00440001 0.13244095 0.16479581
v 0.94684499 0.132456 0.35481581
v 0.852512 0.00469002 0.53139877
v 0.85219407 0.131242 0.53215277
v 0.72470307 -0.00140598 0.68755376
v 0.72479105 0.128138 0.68758678
v 0.56946104 -0.00917497 0.81513077
v 0.56951904 0.12337699 0.81514883
v 0.39229503 -0.01703602 0.90992468
v 0.39232903 0.118184 0.90993285
v 0.199201 -0.022989 0.96843677
v 0.20002999 0.11410298 0.96830374
v 0 -0.02521699 0.98801678
v 0 0.11253601 0.98801678
v -0.19921101 -0.023 0.96843677
v -0.20003901 0.11409398 0.96830374
v -0.39234 -0.01711902 0.90992468
v -0.39236396 0.11811703 0.90993285
v -0.56956899 -0.009424 0.8151288
v -0.56960499 0.123176 0.81514769
v -0.72490501 -0.00191998 0.68754875
v -0.72495299 0.127725 0.6875838
v -0.85282993 0.00386101 0.53139376
v -0.85245108 0.130571 0.53214883
v -0.94713306 0.00764498 0.35473972
v -0.94719797 0.13153803 0.35480874
v -1.00475502 0.010201 0.16469979
v -1.00482094 0.13134098 0.1647838
v 0.94655108 -0.11279198 0.35467273
v 1.00407004 -0.10727998 0.1646268
v 0.85239297 -0.11975699 0.53133678
v 0 -0.161153 0.98801678
v 0.19918899 -0.15826 0.96843481
v -0.19920101 -0.15827398 0.96843481
v -0.94707202 -0.11415399 0.35466074
v -0.85277605 -0.12075899 0.53133285
v -1.00468897 -0.10889799 0.16460779
v 0.94643199 -0.20593799 0.35460776
v 1.00393497 -0.19832098 0.16455581
v 0.851861 -0.215121 0.53199183
v 0.72454899 -0.226655 0.68747878
v 0.72462105 -0.128919 0.68750882
v 0.569359 -0.23989899 0.81508976
v 0.56940597 -0.13971699 0.81510675
v 0.39223903 -0.25278601 0.90990781
v 0.392266 -0.15039199 0.90991479
v 0.19999298 -0.26222699 0.96829778
v 0 -0.26566898 0.98801678
v -0.20000803 -0.262243 0.96829682
v -0.39230099 -0.2529 0.90990668
v -0.39232 -0.15049099 0.90991377
v -0.56950998 -0.24024599 0.81508779
v -0.56953698 -0.14001999 0.81510478
v -0.72482901 -0.227365 0.68747484
v -0.72486501 -0.12953899 0.68750679
v -0.85229796 -0.21626499 0.53198385
v -0.94702601 -0.20749199 0.35459277
v -1.00463795 -0.200163 0.16453379
v -0.00050922 -0.12714438 1.05824923
v 0.20550844 -0.12686216 1.03807938
v 0.2049088 0.03576222 1.04222035
v -0.00114753 0.04481491 1.06304037
v -0.20625653 -0.12681804 1.03812491
v -0.20646016 0.03580808 1.04226601
v -0.00024296 -1.77529966 1.04575693
v 0.20555657 -1.74144065 1.0213592
v 0.20588366 -0.37267428 1.03296566
v 0.00002547 -0.3759976 1.05325579
v -0.20593045 -1.74144113 1.02140426
v -0.20585332 -0.37263476 1.03301107
v -0.00038495 -0.25855189 1.05641579
v 0.20554949 -0.25668752 1.03618717
v -0.20619253 -0.25664529 1.03623282
v -0.0005257 0.95425593 0.83748251
v -0.16690525 0.91200649 0.82262104
v 0.16585874 0.91196429 0.82258409
v -0.00022869 -0.13053627 1.01485014
v 0.20124572 -0.12649798 0.9948526
v 0.20079781 0.03052702 0.99900823
v -0.00053475 0.03233501 1.01990544
v -0.20200327 -0.12645509 0.99489712
v -0.20221719 0.03057169 0.99905312
v -0.00022789 -1.76598429 1.0012145
v 0.20128481 -1.74107396 0.97813355
v 0.20161491 -0.37230756 0.98973888
v 0.00002069 -0.37562778 1.0096085
v -0.20166918 -1.74107539 0.97817772
v -0.20159409 -0.37226921 0.98978334
v -0.00017575 -0.26100215 1.01295459
v 0.20135507 -0.25726133 0.9930225
v -0.20186491 -0.2572202 0.99306708
v -0.00053228 0.93406558 0.79549074
v -0.16305387 0.90483927 0.78036803
v 0.16174213 0.90479838 0.78033202
v 0 1.22876799 0
v 0 1.25496113 -0.72281897
v -0.14861999 1.25475704 -0.70854198
v -0.29152903 1.25418102 -0.66628992
v -0.42323395 1.25333905 -0.59777492
v -0.53867602 1.25238204 -0.50577199
v -0.63341498 1.25147604 -0.39399999
v -0.70381301 1.25076603 -0.26696199
v -0.74716401 1.25035798 -0.12974
v -0.76180201 1.25028514 0.01222699
v -0.74716401 1.25051617 0.15339201
v -0.70381301 1.25097096 0.288329
v -0.63341498 1.25154304 0.41195502
v -0.53867501 1.25212407 0.51971203
v -0.42323395 1.25263202 0.60771107
v -0.29152903 1.25301706 0.67284005
v -0.14861999 1.25325095 0.71283304
v 0 1.25333094 0.72631806
v 0.14861999 1.25325095 0.71283304
v 0.291529 1.25301706 0.67284005
v 0.42323499 1.25263202 0.60771107
v 0.53867602 1.25212407 0.51971203
v 0.63341504 1.25154304 0.41195502
v 0.70381307 1.25097096 0.288329
v 0.74716407 1.25051617 0.15339201
v 0.76180207 1.25028514 0.01222699
v 0.74716407 1.25035798 -0.12974
v 0.70381307 1.25076603 -0.26696199
v 0.63341504 1.25147604 -0.39399999
v 0.53867501 1.25238204 -0.50577199
v 0.42323499 1.25334 -0.59777492
v 0.291529 1.25418102 -0.66628992
v 0.14861999 1.25475704 -0.70854198
v 0 0.14404204 -1.00000011
v -0.195093 0.14379 -0.98079299
v -0.38269001 0.14293 -0.92391204
v -0.55557698 0.14128303 -0.83154898
v -0.70711201 0.13884699 -0.70725393
v -0.83147198 0.13597503 -0.55579996
v -0.92387998 0.13332998 -0.382995
v -0.98078507 0.131592 -0.19546198
v -1 0.13105401 -0.000394
v -0.98078507 0.13135802 0.19471901
v -0.92387998 0.13156598 0.38237202
v -0.83147198 0.13057503 0.55534005
v -0.70711201 0.12771502 0.70695906
v -0.55557698 0.12318304 0.83139002
v -0.38269001 0.11809995 0.92384702
v -0.195093 0.11408501 0.98077791
v 0 0.11255702 0.99999994
v 0.195084 0.11409398 0.98077791
v 0.38265201 0.11816698 0.92384803
v 0.55548608 0.123387 0.83139407
v 0.70694297 0.12813299 0.70696705
v 0.831209 0.13125598 0.55535304
v 0.92352408 0.132499 0.38238903
v 0.98036104 0.132476 0.19473999
v 0.99955004 0.13223898 -0.000372
v 0.98036104 0.13270998 -0.19544097
v 0.92352408 0.13426399 -0.38297799
v 0.831209 0.13665601 -0.55578798
v 0.70694297 0.13926604 -0.70724701
v 0.55548608 0.14148598 -0.83154505
v 0.38265201 0.14299601 -0.92391097
v 0.195084 0.14379897 -0.98079299
v 0 -1.25018596 -1.00000011
v -0.19493499 -1.25549101 -0.98082405
v -0.382384 -1.27182602 -0.924048
v -0.55512398 -1.29980695 -0.83188301
v -0.706519 -1.33899605 -0.70789301
v -0.83076 -1.38686096 -0.55682694
v -0.92308098 -1.43875801 -0.38443103
v -0.97993505 -1.48933899 -0.19723698
v -0.99913191 -1.53489303 -0.002344
v -0.97993505 -1.57535803 0.192813
v -0.92308199 -1.614596 0.380721
v -0.83076298 -1.65822601 0.55408304
v -0.70652502 -1.70981001 0.70613306
v -0.55513399 -1.76736795 0.83093702
v -0.38239401 -1.82247805 0.923657
v -0.19494 -1.862921 0.98073303
v 0 -1.87785589 0.99999994
v 0.19487899 -1.86285901 0.98073399
v 0.382137 -1.82202601 0.92366504
v 0.55452299 -1.76600205 0.830962
v 0.70541101 -1.707044 0.70618408
v 0.82906204 -1.65382504 0.55416405
v 0.92083704 -1.60870695 0.380829
v 0.97733098 -1.56850504 0.19293901
v 0.99645304 -1.52783894 -0.00221399
v 0.97748005 -1.48287904 -0.19711798
v 0.92108303 -1.43351399 -0.38433504
v 0.82932305 -1.38314104 -0.55675894
v 0.70561897 -1.33676302 -0.70785194
v 0.55464905 -1.29874599 -0.83186405
v 0.382189 -1.27148401 -0.92404204
v 0.19489 -1.25544691 -0.98082298
v 0 1.24911296 -0.56140995
v -0.115433 1.24895417 -0.55032098
v -0.22642901 1.24850809 -0.51750397
v -0.32872402 1.24785506 -0.46428901
v -0.41838696 1.24711012 -0.39283099
v -0.49197 1.24640607 -0.30601799
v -0.54664802 1.24585497 -0.20734798
v -0.58031898 1.24553716 -0.100768
v -0.59168797 1.24548101 0.009497
v -0.58031898 1.24566102 0.11913901
v -0.54664802 1.24601411 0.22394397
v -0.49197 1.2464571 0.319963
v -0.41838598 1.24690902 0.403658
v -0.32872402 1.24730396 0.47200599
v -0.22642901 1.24760198 0.52259105
v -0.115432 1.24778413 0.55365407
v 0 1.24784612 0.56412804
v 0.115433 1.24778413 0.55365407
v 0.22642898 1.24760198 0.52259105
v 0.32872399 1.24730396 0.47200599
v 0.41838699 1.24691009 0.403658
v 0.49197098 1.2464571 0.319963
v 0.54664802 1.24601411 0.22394397
v 0.58031898 1.24566102 0.11913901
v 0.59168797 1.24548101 0.009497
v 0.58031898 1.24553716 -0.10076899
v 0.54664802 1.24585497 -0.20734798
v 0.49197 1.24640607 -0.30601799
v 0.41838601 1.24711012 -0.39283099
v 0.32872399 1.24785506 -0.46428901
v 0.22642898 1.24850809 -0.51750397
v 0.115433 1.24895501 -0.55032098
v 0 1.24131715 -0.346264
v -0.07119599 1.24121999 -0.33942499
v -0.139656 1.24094605 -0.319184
v -0.20274899 1.24054098 -0.28636199
v -0.25805103 1.24008202 -0.24228799
v -0.30343499 1.23964703 -0.18874397
v -0.33715903 1.239308 -0.12788698
v -0.35792601 1.23911202 -0.06215199
v -0.364939 1.23907506 0.00585699
v -0.35792601 1.23918712 0.073482
v -0.33715903 1.23940515 0.138123
v -0.30343499 1.23967814 0.197346
v -0.25805103 1.23995697 0.24896597
v -0.20274899 1.24020004 0.29112201
v -0.139656 1.24038517 0.32232201
v -0.07119599 1.24049699 0.34147998
v 0 1.24053502 0.34793999
v 0.07119599 1.24049699 0.34147998
v 0.139656 1.24038517 0.32232201
v 0.20274898 1.24020004 0.29112201
v 0.258051 1.23995697 0.24896597
v 0.30343499 1.23967814 0.197346
v 0.337159 1.23940515 0.138123
v 0.35792601 1.23918712 0.073482
v 0.364939 1.23907601 0.00585699
v 0.35792601 1.23911202 -0.06215199
v 0.337159 1.239308 -0.12788698
v 0.30343499 1.23964703 -0.18874397
v 0.258051 1.24008202 -0.24228799
v 0.20274898 1.24054098 -0.28636199
v 0.139656 1.24094605 -0.319184
v 0.07119599 1.24121999 -0.33942499
v 0 1.23565506 -0.18998298
v -0.03906299 1.23560106 -0.18623098
v -0.07662399 1.23544907 -0.175125
v -0.11124099 1.2352271 -0.157117
v -0.14158299 1.23497617 -0.13293501
v -0.16648399 1.23473799 -0.10355799
v -0.184988 1.23455095 -0.07016699
v -0.196382 1.23444306 -0.0341
v -0.20022901 1.23442494 0.003214
v -0.196382 1.23448395 0.040317
v -0.184988 1.23460412 0.075783
v -0.16648399 1.23475396 0.108277
v -0.14158299 1.23490798 0.136599
v -0.11124099 1.23503994 0.15972802
v -0.07662399 1.23514103 0.17684701
v -0.03906299 1.23520207 0.18735802
v 0 1.23522412 0.190903
v 0.03906299 1.23520207 0.18735802
v 0.07662399 1.23514103 0.17684701
v 0.11124099 1.23503994 0.15972802
v 0.14158301 1.23490798 0.136599
v 0.16648401 1.23475396 0.108277
v 0.184988 1.23460412 0.075783
v 0.19638198 1.23448395 0.040317
v 0.20022898 1.23442494 0.003214
v 0.19638198 1.23444306 -0.0341
v 0.184988 1.23455095 -0.07016699
v 0.16648401 1.23473799 -0.10355799
v 0.14158301 1.23497712 -0.13293501
v 0.11124099 1.2352271 -0.157117
v 0.07662399 1.23544907 -0.175125
v 0.03906299 1.23560106 -0.18623098
v 0.19504399 -0.131969 -0.98079699
v 0 -0.13080699 -1.00000011
v 0.38256201 -0.135543 -0.92392903
v 0.55533403 -0.14168499 -0.83158797
v 0.70671498 -0.15027698 -0.70732796
v 0.83089703 -0.160648 -0.55591797
v 0.92313307 -0.17160399 -0.38315799
v 0.979909 -0.181858 -0.19566199
v 0.99907106 -0.19066599 -0.00061299
v 0.97989404 -0.198282 0.19450601
v 0.92310798 -0.205917 0.38218802
v 0.83087104 -0.21507899 0.55520004
v 0.70669305 -0.22660699 0.70686703
v 0.55532103 -0.23988799 0.831339
v 0.382557 -0.252754 0.92382502
v 0.19504301 -0.262212 0.98077201
v 0 -0.26569598 0.99999994
v -0.195059 -0.26222801 0.98077201
v -0.382622 -0.25286901 0.92382299
v -0.55547797 -0.24023799 0.83133304
v -0.70698201 -0.22732399 0.70685404
v -0.831317 -0.21623499 0.55518007
v -0.92370694 -0.20748898 0.38215902
v -0.98060101 -0.20014399 0.19447201
v -0.99981206 -0.19261699 -0.00064799
v -0.98060101 -0.183679 -0.19569602
v -0.92370694 -0.17310999 -0.38318499
v -0.831317 -0.16173499 -0.55593693
v -0.70698201 -0.15094 -0.70734
v -0.55547702 -0.14200399 -0.83159405
v -0.38262102 -0.13564699 -0.923931
v -0.195058 -0.13198298 -0.98079699
v 0.19506999 0.042822 -0.98079401
v 0 0.04339903 -1.00000011
v 0.38262 0.04101601 -0.92391699
v 0.55543202 0.037833 -0.83156001
v 0.70686203 0.033315 -0.70727402
v 0.83109897 0.02790901 -0.55583196
v 0.92338699 0.02242699 -0.38303896
v 0.98020303 0.01772299 -0.19551602
v 0.99938303 0.01421901 -0.00045299
v 0.98019808 0.01158699 0.19466102
v 0.92337906 0.00881701 0.382321
v 0.83109104 0.00471001 0.55530208
v 0.70685499 -0.00141099 0.70693403
v 0.55542808 -0.00916498 0.83137601
v 0.38261801 -0.017053 0.92383998
v 0.195069 -0.02299499 0.98077601
v 0 -0.025206 0.99999994
v -0.19507999 -0.02300596 0.98077601
v -0.38266503 -0.017136 0.92383897
v -0.55554097 -0.00941699 0.83137106
v -0.70706397 -0.00192999 0.70692408
v -0.83141493 0.00387001 0.55528605
v -0.92381697 0.00766801 0.382301
v -0.98071807 0.010219 0.19463601
v -0.99993091 0.01277601 -0.00047999
v -0.98071807 0.016368 -0.19554102
v -0.92381697 0.02130001 -0.38305899
v -0.83141493 0.02709001 -0.55584693
v -0.70706397 0.03281399 -0.70728296
v -0.55554002 0.03759101 -0.831564
v -0.38266503 0.040937 -0.92391902
v -0.19507999 0.04281199 -0.98079401
v 0.19505499 -0.05622401 -0.98079597
v 0 -0.05531698 -1.00000011
v 0.38258698 -0.05902698 -0.92392408
v 0.55537706 -0.06387698 -0.83157497
v 0.706779 -0.07068799 -0.70730394
v 0.83098608 -0.07888898 -0.55587893
v 0.92324602 -0.08745299 -0.38310399
v 0.98004001 -0.09528699 -0.19559598
v 0.99921 -0.10178798 -0.00053999
v 0.98002898 -0.107242 0.19457599
v 0.92322903 -0.112764 0.38224804
v 0.83096808 -0.11971899 0.55524605
v 0.70676499 -0.12887099 0.70689708
v 0.555368 -0.139706 0.83135598
v 0.382584 -0.15036 0.92383205
v 0.19505499 -0.15825 0.98077398
v 0 -0.16116599 0.99999994
v -0.195068 -0.15826398 0.98077398
v -0.38264101 -0.15046 0.92382997
v -0.55550497 -0.14001198 0.83135002
v -0.70701801 -0.12949799 0.70688605
v -0.83135998 -0.12073299 0.55522805
v -0.92375499 -0.11414398 0.38222301
v -0.98065197 -0.10887998 0.19454601
v -0.99986404 -0.10350999 -0.00057199
v -0.98065197 -0.09689699 -0.19562602
v -0.92375499 -0.088788 -0.38312903
v -0.83135998 -0.07985499 -0.55589699
v -0.707017 -0.07127898 -0.70731496
v -0.55550402 -0.064162 -0.83158105
v -0.38264003 -0.05911999 -0.92392498
v -0.195068 -0.05623599 -0.98079597
v -0.11585299 1.15047407 -0.55384498
v -0.133607 1.15303814 -0.63367694
v 0 1.15322208 -0.64654594
v 0 1.15063417 -0.564978
v -0.22728501 1.15002596 -0.52088499
v -0.262019 1.15252196 -0.59560495
v -0.33003303 1.14936816 -0.46740999
v -0.38025203 1.15176916 -0.533912
v -0.42015001 1.14861917 -0.39555099
v -0.48372697 1.15091598 -0.45116096
v -0.49414902 1.14790999 -0.30819103
v -0.56846302 1.15011203 -0.35078802
v -0.54915899 1.14735305 -0.20884499
v -0.63123399 1.14948594 -0.23694503
v -0.58303701 1.14703297 -0.101503
v -0.669712 1.14912712 -0.11429099
v -0.59446901 1.14697504 0.009552
v -0.68254798 1.14906394 0.012262
v -0.58301901 1.14715611 0.11995101
v -0.669389 1.149266 0.13781499
v -0.54914498 1.14751315 0.22543299
v -0.63081699 1.14966404 0.25769797
v -0.49417099 1.14795899 0.32202503
v -0.56826198 1.15016603 0.36760401
v -0.42022404 1.14841496 0.40617904
v -0.48394095 1.15068304 0.46364802
v -0.33015003 1.14881217 0.47488105
v -0.38083604 1.15113997 0.54239803
v -0.22740401 1.14911317 0.52571803
v -0.26271203 1.15148997 0.60094708
v -0.11592799 1.14929604 0.55693405
v -0.13406899 1.15170598 0.63704007
v 0 1.14935815 0.56745803
v 0 1.15178 0.64923608
v 0.115928 1.14929604 0.55693304
v 0.13406999 1.15170598 0.63703906
v 0.22740398 1.14911317 0.52571803
v 0.26271399 1.15149104 0.60094606
v 0.33015 1.14881217 0.47488105
v 0.380838 1.15113997 0.54239708
v 0.42022502 1.14841496 0.40617904
v 0.48393902 1.15068304 0.46364706
v 0.49417099 1.14795899 0.32202503
v 0.56825697 1.15016603 0.36760503
v 0.54914504 1.14751315 0.22543299
v 0.63080704 1.14966297 0.25769999
v 0.58301907 1.14715611 0.11995101
v 0.66937702 1.14926517 0.13781699
v 0.59446907 1.14697504 0.009552
v 0.68253505 1.14906311 0.012262
v 0.58303707 1.14703297 -0.101503
v 0.66969806 1.14912712 -0.114293
v 0.54915899 1.14735305 -0.20884499
v 0.63122308 1.14948499 -0.236947
v 0.49414902 1.14790999 -0.30819103
v 0.56845504 1.15011203 -0.35078901
v 0.42014899 1.14861917 -0.39555099
v 0.48372402 1.15091598 -0.45116096
v 0.330033 1.149369 -0.46740999
v 0.380252 1.15176916 -0.53391099
v 0.22728498 1.15002596 -0.520886
v 0.26201996 1.15252304 -0.59560495
v 0.11585299 1.15047407 -0.55384498
v 0.13360799 1.15303909 -0.63367694
v -0.175849 0.13167896 -0.88367807
v 0 0.13188397 -0.90099698
v -0.34492799 0.130957 -0.83239197
v -0.50072497 0.12953099 -0.74912595
v -0.637254 0.12737903 -0.637093
v -0.74927002 0.12482303 -0.50060802
v -0.83247697 0.12248998 -0.34492102
v -0.88369303 0.12101301 -0.17602199
v -0.90097594 0.12064403 -0.000401
v -0.883699 0.12099498 0.175206
v -0.83255201 0.12111601 0.34408304
v -0.749493 0.11992403 0.49978804
v -0.637658 0.11678803 0.63637805
v -0.50125402 0.11196702 0.74861007
v -0.34543499 0.10663399 0.83212202
v -0.176162 0.10245201 0.88361293
v 0 0.10086599 0.90101194
v 0.176153 0.10246098 0.88361293
v 0.34539398 0.10670101 0.83212399
v 0.50115507 0.11217403 0.74861705
v 0.63747501 0.117219 0.63639503
v 0.74921304 0.12062698 0.49981707
v 0.83218097 0.12208399 0.34411999
v 0.88326406 0.12215599 0.17524001
v 0.90051806 0.12187701 -0.00037899
v 0.88325798 0.122175 -0.17601499
v 0.83210605 0.12345898 -0.34492498
v 0.74898898 0.125528 -0.50061398
v 0.63706898 0.12781 -0.63709598
v 0.500624 0.12974 -0.74912697
v 0.34488499 0.13102504 -0.83239197
v 0.175839 0.13168799 -0.88367807
v 0 0.04339903 -0.90097999
v 0.175757 0.042824 -0.88367497
v 0.34473198 0.04102301 -0.83243107
v 0.50041997 0.037851 -0.74922591
v 0.63683599 0.03335201 -0.637263
v 0.74875205 0.02797102 -0.50083798
v 0.83189201 0.02252003 -0.34517297
v 0.88308203 0.017845 -0.17622
v 0.90036398 0.01435998 -0.00045099
v 0.88307499 0.01173099 0.175379
v 0.83187198 0.008946 0.34448999
v 0.74700099 0.004817 0.50311303
v 0.63678902 -0.00134497 0.63696205
v 0.500373 -0.00912699 0.74907004
v 0.34469801 -0.017037 0.83236694
v 0.178947 -0.022991 0.883129
v 0 -0.025204 0.90097898
v -0.17896001 -0.02300298 0.883129
v -0.34475302 -0.017122 0.83236306
v -0.500503 -0.00938898 0.74905514
v -0.63702201 -0.00188499 0.63693004
v -0.74735099 0.00393199 0.50305807
v -0.83232599 0.00773599 0.34442701
v -0.88359898 0.01028502 0.17532602
v -0.90091103 0.01283302 -0.00047699
v -0.88360095 0.01641103 -0.17621699
v -0.83233898 0.02132901 -0.34515199
v -0.74909597 0.02710801 -0.500813
v -0.637066 0.03282502 -0.63724494
v -0.50054901 0.03759703 -0.74921792
v -0.34478801 0.04094001 -0.83242899
v -0.17577099 0.042813 -0.88367497
v -0.071616 1.14274013 -0.342949
v 0 1.142838 -0.34983202
v -0.140512 1.14246416 -0.322566
v -0.20405803 1.14205503 -0.28948399
v -0.25981402 1.14159095 -0.245009
v -0.30561399 1.14115011 -0.19091799
v -0.33967003 1.14080607 -0.12938398
v -0.36064502 1.14060795 -0.062886
v -0.36772 1.14057004 0.005913
v -0.36062702 1.14068198 0.074294
v -0.33965703 1.14090299 0.139613
v -0.30563601 1.14118003 0.19940701
v -0.259889 1.14146304 0.251488
v -0.20417502 1.14170801 0.293996
v -0.140631 1.14189517 0.32544899
v -0.07169199 1.14200902 0.34476
v 0 1.14204704 0.351271
v 0.07169199 1.14200902 0.34476
v 0.140631 1.141896 0.32544899
v 0.20417499 1.14170801 0.293996
v 0.25988897 1.14146304 0.251488
v 0.30563598 1.14118003 0.19940701
v 0.339657 1.14090299 0.139613
v 0.36062699 1.14068317 0.074294
v 0.36772 1.14057004 0.005913
v 0.36064499 1.14060795 -0.062886
v 0.33967 1.14080607 -0.12938398
v 0.30561399 1.14115095 -0.19091799
v 0.25981399 1.14159095 -0.245009
v 0.204058 1.14205503 -0.28948399
v 0.140512 1.14246416 -0.322566
v 0.071617 1.14274013 -0.342949
v -0.039483 1.13712096 -0.18975499
v 0 1.13717496 -0.19355198
v -0.07748 1.13696694 -0.17850798
v -0.112551 1.13674104 -0.16023901
v -0.14334799 1.13648617 -0.13565599
v -0.16866299 1.13624215 -0.105732
v -0.187498 1.13604915 -0.07166499
v -0.19910101 1.135939 -0.034834
v -0.20301102 1.13592016 0.003268
v -0.19908203 1.13598001 0.041128
v -0.18748499 1.13610196 0.07727299
v -0.168685 1.13625598 0.11033901
v -0.14342199 1.13641297 0.13912001
v -0.112668 1.13654804 0.16260302
v -0.0776 1.13665199 0.17997402
v -0.03955899 1.1367141 0.190638
v 0 1.13673615 0.19423401
v 0.039559 1.1367141 0.190638
v 0.0776 1.13665199 0.17997402
v 0.112668 1.13654804 0.16260302
v 0.14342199 1.13641297 0.13912001
v 0.168685 1.13625598 0.11033901
v 0.18748499 1.13610315 0.07727299
v 0.199082 1.13598001 0.041128
v 0.203011 1.13592016 0.003268
v 0.199101 1.135939 -0.034835
v 0.18749801 1.13604998 -0.07166499
v 0.16866299 1.13624215 -0.105732
v 0.14334699 1.13648617 -0.13565599
v 0.112551 1.13674104 -0.16023901
v 0.07748 1.13696694 -0.17850798
v 0.039483 1.13712096 -0.18975499
v 0 1.13017296 -0.00006599
v -0.000001 -0.13080699 -0.90097999
v -0.000001 -1.25018596 -0.90097999
v 0.17558099 -1.25544595 -0.88370406
v 0.175733 -0.131968 -0.88367807
v 0.34430301 -1.27148008 -0.83255499
v 0.344675 -0.13553799 -0.83244299
v 0.49962702 -1.29873204 -0.74953591
v 0.50031501 -0.141669 -0.74925792
v 0.63556808 -1.33672797 -0.63786399
v 0.63667404 -0.15024098 -0.637331
v 0.74694299 -1.38307094 -0.50181299
v 0.74853199 -0.16058099 -0.500952
v 0.82956206 -1.43340003 -0.34653303
v 0.83162397 -0.17149798 -0.34532895
v 0.880351 -1.48272204 -0.17787101
v 0.88278406 -0.18171498 -0.17639398
v 0.89743703 -1.52764904 -0.002206
v 0.90005397 -0.19049499 -0.00060699
v 0.88019502 -1.56830596 0.17374
v 0.88276404 -0.198105 0.17527201
v 0.82927203 -1.60852599 0.34314599
v 0.83156806 -0.20575599 0.34444099
v 0.74657404 -1.65368199 0.49938607
v 0.74843007 -0.21495199 0.50034999
v 0.63520008 -1.70694899 0.63635504
v 0.63654297 -0.22652199 0.63697904
v 0.49933901 -1.76594996 0.74874007
v 0.50019002 -0.23984099 0.74908202
v 0.34412899 -1.82200396 0.83222502
v 0.34458601 -0.252734 0.83237099
v 0.17551 -1.86285293 0.88362306
v 0.17568999 -0.26220598 0.883659
v -0.000001 -1.87785506 0.90097701
v 0 -0.265695 0.90097802
v -0.17557899 -1.86291503 0.88362097
v -0.175711 -0.262223 0.88365799
v -0.34441801 -1.822461 0.83220499
v -0.34467202 -0.252853 0.83236098
v -0.500014 -1.76733303 0.74867504
v -0.500391 -0.240206 0.74904799
v -0.63640499 -1.70975494 0.63621807
v -0.63689398 -0.227272 0.63690608
v -0.74836099 -1.65815401 0.49917602
v -0.74893802 -0.216168 0.50023901
v -0.83157002 -1.61451804 0.34290301
v -0.83220392 -0.20741498 0.344318
v -0.88281208 -1.57528901 0.17352899
v -0.88348001 -0.200075 0.175177
v -0.90011203 -1.53484296 -0.00233399
v -0.900792 -0.19256399 -0.00064099
v -0.88281899 -1.48931205 -0.17790401
v -0.88348496 -0.18364499 -0.17636698
v -0.83161091 -1.43874895 -0.34650301
v -0.83223402 -0.17309199 -0.34526601
v -0.74845999 -1.38686299 -0.50176501
v -0.749008 -0.16172899 -0.50088799
v -0.63654798 -1.33900201 -0.63782793
v -0.63699799 -0.15093798 -0.63728702
v -0.50015997 -1.29981195 -0.74951899
v -0.50050002 -0.14200399 -0.74923801
v -0.34452602 -1.27182805 -0.83255106
v -0.34475499 -0.13564699 -0.83243703
v -0.17563499 -1.25549304 -0.88370406
v -0.17575401 -0.13198298 -0.88367706
v 0 -0.05531698 -0.90097999
v 0.17574299 -0.05622199 -0.88367706
v 0.34469899 -0.05902099 -0.83243799
v 0.50036299 -0.063859 -0.74924302
v 0.63674998 -0.070652 -0.637295
v 0.74863702 -0.07882498 -0.50089001
v 0.83174902 -0.08735698 -0.34524402
v 0.882918 -0.09515899 -0.17630398
v 0.900191 -0.10164 -0.000537
v 0.882905 -0.10708998 0.17530199
v 0.831716 -0.11262698 0.34443104
v 0.746867 -0.11960499 0.50307905
v 0.178928 -0.15824599 0.88312798
v 0 -0.16116498 0.90097898
v -0.17894299 -0.15826 0.88312697
v -0.747289 -0.12066799 0.50301003
v -0.83226198 -0.11407399 0.34435501
v -0.883533 -0.10881198 0.17523899
v -0.90084397 -0.10345298 -0.00056899
v -0.88353496 -0.09685599 -0.176301
v -0.83227706 -0.088761 -0.34522
v -0.74904102 -0.079839 -0.50086098
v -0.637021 -0.07126899 -0.63727492
v -0.50051397 -0.06415599 -0.749233
v -0.34476399 -0.05911698 -0.83243507
v -0.175759 -0.05623599 -0.88367706
v 0.63667404 -0.12879699 0.63695108
v 0.50029099 -0.13966499 0.74906408
v 0.344648 -0.150342 0.83236503
v -0.34471702 -0.15044599 0.83235901
v -0.50045198 -0.139982 0.74904412
v -0.63696199 -0.12944997 0.63690608
v -0.158819 1.01094913 -0.76828903
v 0 1.01116395 -0.78364801
v -0.311535 1.010311 -0.72282701
v -0.45227697 1.009292 -0.64907801
v -0.57564002 1.00801003 -0.54998791
v -0.67688 1.00667297 -0.429508
v -0.75210797 1.0055381 -0.29242599
v -0.79843306 1.00483799 -0.14416301
v -0.81407606 1.00466311 0.009457
v -0.79843306 1.00491106 0.16246101
v -0.75210797 1.00531101 0.30896702
v -0.67688 1.00554013 0.44342199
v -0.575639 1.00536596 0.56080406
v -0.45227697 1.00476801 0.65679907
v -0.311535 1.00395309 0.72792506
v -0.158819 1.00325512 0.77163499
v 0 1.00298214 0.78637898
v 0.158817 1.00325703 0.77163499
v 0.311526 1.003968 0.72792506
v 0.45225799 1.00481295 0.65679907
v 0.57560306 1.00545799 0.56080603
v 0.67682206 1.00568997 0.44342401
v 0.75203007 1.00551605 0.30897098
v 0.79834008 1.00515604 0.16246601
v 0.813977 1.00492405 0.009462
v 0.79834008 1.00508415 -0.144158
v 0.75203007 1.00574314 -0.29242199
v 0.67682206 1.00682306 -0.42950499
v 0.57560199 1.00810301 -0.54998695
v 0.45225799 1.00933706 -0.64907693
v 0.311526 1.01032495 -0.72282594
v 0.158817 1.01095104 -0.76828903
v -0.162864 1.02425313 -0.78875702
v 0 1.02448713 -0.80450004
v 0 1.01493096 -0.79875892
v -0.16171699 1.01470196 -0.78312307
v -0.319485 1.02355814 -0.74215495
v -0.31723001 1.01402306 -0.73683697
v -0.463858 1.02244913 -0.66654694
v -0.460572 1.01294004 -0.66174602
v -0.59044498 1.02105116 -0.56492894
v -0.586241 1.01157403 -0.56082993
v -0.69438302 1.0195831 -0.44132199
v -0.68940699 1.01014316 -0.438093
v -0.77166402 1.01832008 -0.30061
v -0.76609897 1.00891602 -0.29839101
v -0.81928998 1.01751196 -0.14832699
v -0.81335198 1.00813806 -0.14722901
v -0.83538895 1.01726901 0.00954899
v -0.82932007 1.00791394 0.00946
v -0.81930297 1.01749801 0.16685101
v -0.81336301 1.00814902 0.16556599
v -0.77163702 1.01793599 0.317478
v -0.76608502 1.00857603 0.31505
v -0.69425302 1.01824796 0.45565602
v -0.68932098 1.00886416 0.45219999
v -0.59018999 1.01818597 0.57618707
v -0.586066 1.00876998 0.57186907
v -0.463521 1.01770496 0.67464608
v -0.46033999 1.00825595 0.66965806
v -0.31916499 1.01698994 0.74751704
v -0.31700903 1.00751316 0.74205708
v -0.162668 1.01635694 0.79225707
v -0.16158199 1.00686204 0.78652107
v 0 1.01610696 0.80734199
v 0 1.00660502 0.80151414
v 0.16266599 1.01635909 0.79225707
v 0.16157999 1.00686395 0.78652107
v 0.31915599 1.01700401 0.74751704
v 0.317 1.00752711 0.74205708
v 0.463501 1.01775014 0.67464703
v 0.46031999 1.00830113 0.66965907
v 0.59015303 1.01827812 0.57618808
v 0.58602905 1.00886201 0.57187104
v 0.69419705 1.01839709 0.45565801
v 0.68926399 1.00901305 0.45220303
v 0.77156102 1.01813805 0.31748101
v 0.76600605 1.00877904 0.31505298
v 0.81921106 1.01774001 0.16685602
v 0.81326997 1.00839209 0.165571
v 0.83529198 1.01752603 0.009553
v 0.82922202 1.00817215 0.009465
v 0.81919908 1.01775598 -0.14832198
v 0.81326007 1.00838208 -0.147224
v 0.77158802 1.01852297 -0.30060499
v 0.76602208 1.00911903 -0.29838702
v 0.69432598 1.01973104 -0.44132
v 0.68934899 1.01029205 -0.43809002
v 0.59040898 1.021142 -0.56492596
v 0.58620303 1.01166617 -0.56082791
v 0.46383902 1.02249395 -0.66654598
v 0.46055302 1.01298499 -0.66174495
v 0.31947699 1.02357208 -0.74215495
v 0.31722199 1.01403796 -0.73683697
v 0.162862 1.02425515 -0.78875702
v 0.161715 1.0147041 -0.78312307
v -0.15105499 1.25791001 -0.72100597
v 0 1.25812602 -0.73551493
v -0.29631403 1.25730001 -0.67806291
v -0.43020299 1.25640416 -0.608419
v -0.54758298 1.2553761 -0.51488101
v -0.64394098 1.25439214 -0.40121302
v -0.71557098 1.25360417 -0.27197399
v -0.75970101 1.25313103 -0.132317
v -0.77461201 1.25301706 0.012229
v -0.75971001 1.253237 0.156001
v -0.715559 1.25371408 0.29344001
v -0.64386999 1.25433695 0.41933304
v -0.54743599 1.25498497 0.52901005
v -0.43000799 1.25556302 0.61851704
v -0.29612803 1.25600695 0.68471407
v -0.15094099 1.25628101 0.72533905
v 0 1.25637495 0.73903304
v 0.15094101 1.25628101 0.72533905
v 0.296128 1.25600802 0.68471407
v 0.430009 1.25556302 0.61851704
v 0.54743701 1.25498497 0.52901005
v 0.643871 1.25433599 0.41933202
v 0.71555906 1.25371301 0.29344001
v 0.75971108 1.2532351 0.156001
v 0.77461308 1.25301504 0.012229
v 0.75970202 1.25313007 -0.132317
v 0.71557098 1.25360298 -0.27197399
v 0.64394104 1.25439095 -0.40121302
v 0.54758197 1.2553761 -0.51488101
v 0.430204 1.25640511 -0.608419
v 0.296314 1.25730001 -0.67806291
v 0.15105499 1.25791001 -0.72100597
v 0 1.25057196 -0.74808996
v -0.15340599 1.25034499 -0.73335194
v -0.30093303 1.24970102 -0.68972897
v -0.436926 1.24875116 -0.61897397
v -0.55616897 1.24765396 -0.52392697
v -0.65407699 1.24659299 -0.40839499
v -0.726879 1.24572897 -0.27699598
v -0.77174699 1.24519205 -0.134952
v -0.786915 1.24503612 0.012117
v -0.771761 1.24524605 0.15844202
v -0.726852 1.2457441 0.298339
v -0.653939 1.24641609 0.42647102
v -0.555893 1.24713003 0.53806108
v -0.43656101 1.24777901 0.62908303
v -0.30058601 1.24828314 0.69636207
v -0.15319399 1.24859714 0.73763203
v 0 1.24870502 0.75154006
v 0.15319299 1.24859714 0.73763203
v 0.30058598 1.24828398 0.69636207
v 0.436562 1.24777901 0.62908303
v 0.55589306 1.24713003 0.53806203
v 0.653939 1.24641513 0.42647102
v 0.72685098 1.24574101 0.29833999
v 0.77175998 1.24524104 0.15844202
v 0.78691399 1.24503195 0.012117
v 0.77174598 1.24518895 -0.13495299
v 0.72687703 1.24572598 -0.276997
v 0.65407598 1.24659097 -0.40839603
v 0.556167 1.24765396 -0.52392697
v 0.43692603 1.24875211 -0.61897492
v 0.300933 1.24970102 -0.68972897
v 0.15340599 1.25034499 -0.73335194
v 0 -1.18425595 -1.00000011
v 0.19489899 -1.18927598 -0.98082101
v 0.382211 -1.20457887 -0.92403501
v 0.55468899 -1.23059701 -0.83184802
v 0.70568406 -1.26688098 -0.70782095
v 0.82941597 -1.31113803 -0.55670899
v 0.92120403 -1.35918998 -0.38426595
v 0.97762304 -1.40625095 -0.19703203
v 0.99660706 -1.44908201 -0.00211999
v 0.97748202 -1.48780095 0.19303101
v 0.92097103 -1.52608501 0.38090899
v 0.82916903 -1.569085 0.55422508
v 0.70548701 -1.61984896 0.70622408
v 0.55457007 -1.67611694 0.83098405
v 0.382162 -1.72959899 0.92367398
v 0.19488899 -1.76858401 0.98073595
v 0 -1.78290307 0.99999994
v -0.194947 -1.76864302 0.980735
v -0.38240703 -1.73003101 0.92366701
v -0.55515402 -1.677423 0.83096003
v -0.70655202 -1.62249398 0.70617508
v -0.83079594 -1.57329499 0.55414807
v -0.923119 -1.53172004 0.38080599
v -0.97997403 -1.49435997 0.19291099
v -0.99917197 -1.45583498 -0.00224399
v -0.97997403 -1.41243803 -0.19714599
v -0.92311799 -1.36421394 -0.38435798
v -0.83079296 -1.31470298 -0.55677497
v -0.706546 -1.26902198 -0.707861
v -0.55514502 -1.23161399 -0.83186608
v -0.38239803 -1.20490694 -0.92404097
v -0.19494199 -1.18931794 -0.98082208
v 0.19980199 -1.20125603 -1.00549817
v 0 -1.19623589 -1.02515912
v 0 -1.18425595 -1.01317906
v 0.19746799 -1.18927598 -0.993748
v 0.391833 -1.21656 -0.94728201
v 0.387254 -1.20457983 -0.93621307
v 0.56866401 -1.24258101 -0.852768
v 0.56201297 -1.23059904 -0.84280502
v 0.72347599 -1.27886998 -0.72560399
v 0.71500998 -1.26688599 -0.71713393
v 0.85033804 -1.32313597 -0.57066899
v 0.84038406 -1.31114804 -0.56401795
v 0.94444406 -1.37119901 -0.39386901
v 0.93338805 -1.359205 -0.38929098
v 1.00228107 -1.41827094 -0.20192599
v 0.99055099 -1.40627205 -0.19958901
v 1.02174115 -1.46110999 -0.002136
v 1.00978398 -1.44910705 -0.002121
v 1.00214195 -1.49983203 0.19788
v 0.99041104 -1.48782801 0.195578
v 0.94422805 -1.53811097 0.39044302
v 0.93316298 -1.52610898 0.38590902
v 0.85013401 -1.58110201 0.56810104
v 0.84015899 -1.56910395 0.56149804
v 0.72334307 -1.63185298 0.72393405
v 0.71484601 -1.61986196 0.71550506
v 0.56861001 -1.68810999 0.85185706
v 0.56192797 -1.67612397 0.84192001
v 0.39183202 -1.74158394 0.94690001
v 0.38722899 -1.72960197 0.93584197
v 0.199817 -1.78056502 1.00540888
v 0.19747097 -1.76858496 0.99366098
v 0 -1.79488289 1.02515983
v 0 -1.78290307 1.01317989
v -0.19987101 -1.78062415 1.00540792
v -0.197527 -1.76864397 0.99365985
v -0.392066 -1.742015 0.94689697
v -0.38746804 -1.73003304 0.93583607
v -0.56917202 -1.68941199 0.851848
v -0.56249898 -1.677428 0.84190404
v -0.724379 -1.63448798 0.72391903
v -0.71589297 -1.62250101 0.71547305
v -0.85173702 -1.585294 0.56807404
v -0.84176802 -1.57330501 0.56144708
v -0.94636899 -1.54372 0.39039203
v -0.93529993 -1.53173005 0.38583299
v -1.00464594 -1.50635802 0.19779101
v -0.99290102 -1.49436903 0.19547501
v -1.02432501 -1.46782803 -0.00226299
v -1.01235103 -1.45584201 -0.00224599
v -1.00464296 -1.424425 -0.20207402
v -0.99290001 -1.41244196 -0.19971999
v -0.94635099 -1.37619602 -0.39401102
v -0.93529099 -1.36421501 -0.38940802
v -0.85169392 -1.32668304 -0.57077997
v -0.84174501 -1.31470298 -0.564107
v -0.72431397 -1.28100001 -0.72567391
v -0.71585601 -1.26902103 -0.71718901
v -0.56910002 -1.24359297 -0.85280007
v -0.56245702 -1.23161399 -0.84283
v -0.39201 -1.21688699 -0.94729107
v -0.38743498 -1.20490694 -0.93621903
v -0.19984301 -1.20129799 -1.00549912
v -0.19751001 -1.18931794 -0.99374896
v 0.19739198 -1.25544691 -0.99340802
v 0 -1.25018596 -1.01283097
v 0.38709801 -1.27148497 -0.93589699
v 0.56177997 -1.29874801 -0.84253203
v 0.71469897 -1.33676803 -0.71691894
v 0.84000098 -1.38314998 -0.563874
v 0.93294507 -1.43352901 -0.38922703
v 0.990067 -1.48289895 -0.19960698
v 1.00928294 -1.52786397 -0.00221499
v 0.98991906 -1.56853103 0.19541901
v 0.93270802 -1.60872995 0.385697
v 0.83976203 -1.65384304 0.56124508
v 0.71452301 -1.70705604 0.71521908
v 0.56168597 -1.76600897 0.84160804
v 0.38707 -1.82202899 0.93551099
v 0.19739298 -1.86285984 0.99331694
v 0 -1.87785685 1.01283204
v -0.197452 -1.86292195 0.99331605
v -0.38732102 -1.82248008 0.93550491
v -0.562285 -1.76737296 0.841591
v -0.71561902 -1.70981705 0.71518504
v -0.84144502 -1.65823495 0.56119006
v -0.934942 -1.61460602 0.38561603
v -0.99252092 -1.57536697 0.19530901
v -1.01196301 -1.53489995 -0.002346
v -0.99251896 -1.48934304 -0.19974303
v -0.934933 -1.43875896 -0.389348
v -0.84142297 -1.38686096 -0.56396597
v -0.71558302 -1.33899605 -0.71697491
v -0.56224399 -1.29980695 -0.84255802
v -0.38728803 -1.27182495 -0.93590503
v -0.19743502 -1.25549101 -0.99340897
v 0 -1.23663198 -1.02515912
v 0.199797 -1.24189305 -1.00549912
v 0.39181903 -1.25793099 -0.94728601
v 0.56863898 -1.28519594 -0.85277807
v 0.72343504 -1.32321798 -0.72562396
v 0.85027802 -1.36960494 -0.570701
v 0.94436401 -1.41998899 -0.39391401
v 1.00218498 -1.469365 -0.201983
v 1.02163696 -1.51433301 -0.00219999
v 1.002038 -1.55500197 0.19781699
v 0.94413507 -1.59519898 0.39038801
v 0.85005897 -1.64030695 0.56805908
v 0.72328901 -1.69351398 0.72390508
v 0.56857597 -1.75246095 0.85184007
v 0.39181399 -1.80847799 0.94689297
v 0.19980898 -1.84930682 1.00540685
v 0 -1.86430287 1.02515983
v -0.19986601 -1.84936797 1.0054059
v -0.39205703 -1.80892801 0.94688892
v -0.56915801 -1.75382304 0.85183095
v -0.72435998 -1.69626998 0.72388905
v -0.85171401 -1.64469003 0.56802904
v -0.946343 -1.60106205 0.39033302
v -1.004619 -1.56182205 0.19772401
v -1.02429795 -1.52135205 -0.00233099
v -1.00461697 -1.47579205 -0.20213499
v -0.94632697 -1.42520594 -0.39405998
v -0.851673 -1.37330699 -0.57081395
v -0.72429597 -1.325441 -0.72569501
v -0.56908798 -1.28625202 -0.85281097
v -0.39200201 -1.25827097 -0.94729602
v -0.19983799 -1.24193704 -1.00550115
g Group37994
f 64 63 62 61
f 3 2 62 63
f 4 3 63 64
f 4 1 2 3
f 66 64 61 65
f 6 4 64 66
f 6 5 1 4
f 68 66 65 67
f 5 7 67 65
f 8 6 66 68
f 8 7 5 6
f 70 68 67 69
f 7 9 69 67
f 10 8 68 70
f 10 9 7 8
f 72 70 69 71
f 9 11 71 69
f 12 10 70 72
f 12 11 9 10
f 74 72 71 73
f 11 13 73 71
f 14 12 72 74
f 14 13 11 12
f 76 74 73 75
f 16 14 74 76
f 16 15 13 14
f 78 76 75 77
f 18 16 76 78
f 18 17 15 16
f 80 78 77 79
f 17 19 79 77
f 20 18 78 80
f 20 19 17 18
f 82 80 79 81
f 19 21 81 79
f 22 20 80 82
f 22 21 19 20
f 84 82 81 83
f 21 23 83 81
f 24 22 82 84
f 24 23 21 22
f 86 84 83 85
f 23 25 85 83
f 26 24 84 86
f 26 25 23 24
f 88 86 85 87
f 28 26 86 88
f 28 27 25 26
f 90 88 87 89
f 29 30 90 89
f 30 28 88 90
f 30 29 27 28
f 61 62 92 91
f 2 32 92 62
f 1 31 32 2
f 65 61 91 93
f 33 5 65 93
f 5 33 31 1
f 75 73 95 94
f 13 35 95 73
f 15 34 35 13
f 77 75 94 96
f 36 17 77 96
f 17 36 34 15
f 87 85 98 97
f 25 38 98 85
f 27 37 38 25
f 89 87 97 99
f 39 29 89 99
f 29 39 37 27
f 91 92 101 100
f 41 40 100 101
f 32 41 101 92
f 31 40 41 32
f 93 91 100 102
f 40 42 102 100
f 33 42 40 31
f 104 93 102 103
f 42 43 103 102
f 44 33 93 104
f 44 43 42 33
f 106 104 103 105
f 43 45 105 103
f 46 44 104 106
f 46 45 43 44
f 108 106 105 107
f 45 47 107 105
f 48 46 106 108
f 48 47 45 46
f 95 108 107 109
f 47 49 109 107
f 35 48 108 95
f 35 49 47 48
f 94 95 109 110
f 49 50 110 109
f 34 50 49 35
f 96 94 110 111
f 50 51 111 110
f 36 51 50 34
f 113 96 111 112
f 51 52 112 111
f 53 36 96 113
f 53 52 51 36
f 115 113 112 114
f 52 54 114 112
f 55 53 113 115
f 55 54 52 53
f 117 115 114 116
f 54 56 116 114
f 57 55 115 117
f 57 56 54 55
f 98 117 116 118
f 56 58 118 116
f 38 57 117 98
f 38 58 56 57
f 97 98 118 119
f 58 59 119 118
f 37 59 58 38
f 99 97 119 120
f 60 39 99 120
f 59 60 120 119
f 39 60 59 37
g Group25826
f 142 141 140 139
f 123 122 140 141
f 124 121 122 123
f 144 142 139 143
f 125 126 144 143
f 126 125 121 124
f 148 147 146 145
f 128 127 145 146
f 129 128 146 147
f 130 127 128 129
f 150 148 145 149
f 131 132 150 149
f 127 131 149 145
f 132 131 127 130
f 139 140 152 151
f 122 134 152 140
f 121 133 134 122
f 143 139 151 153
f 135 125 143 153
f 125 135 133 121
f 151 152 147 148
f 134 129 147 152
f 133 130 129 134
f 153 151 148 150
f 132 135 153 150
f 135 132 130 133
f 155 154 142 144
f 126 137 155 144
f 137 136 154 155
f 137 126 124 136
f 154 156 141 142
f 138 123 141 156
f 136 138 156 154
f 136 124 123 138
g Group16416
f 449 448 447 446
g Group16421
f 254 255 159 158
g Group16416
f 446 447 451 450
g Group16421
f 255 256 160 159
g Group16416
f 450 451 453 452
g Group16421
f 256 257 161 160
g Group16416
f 452 453 455 454
g Group16421
f 257 258 162 161
g Group16416
f 454 455 457 456
g Group16421
f 258 259 163 162
g Group16416
f 456 457 459 458
g Group16421
f 259 260 164 163
g Group16416
f 458 459 461 460
g Group16421
f 260 261 165 164
g Group16416
f 460 461 463 462
g Group16421
f 261 262 166 165
g Group16416
f 462 463 465 464
g Group16421
f 262 263 167 166
g Group16416
f 464 465 467 466
g Group16421
f 263 264 168 167
g Group16416
f 466 467 469 468
g Group16421
f 264 265 169 168
g Group16416
f 468 469 471 470
g Group16421
f 265 266 170 169
g Group16416
f 470 471 473 472
g Group16421
f 266 267 171 170
g Group16416
f 472 473 475 474
g Group16421
f 267 268 172 171
g Group16416
f 474 475 477 476
g Group16421
f 268 269 173 172
g Group16416
f 476 477 479 478
g Group16421
f 269 270 174 173
g Group16416
f 478 479 481 480
g Group16421
f 270 271 175 174
g Group16416
f 480 481 483 482
g Group16421
f 271 272 176 175
g Group16416
f 482 483 485 484
g Group16421
f 272 273 177 176
g Group16416
f 484 485 487 486
g Group16421
f 273 274 178 177
g Group16416
f 486 487 489 488
g Group16421
f 274 275 179 178
g Group16416
f 488 489 491 490
g Group16421
f 275 276 180 179
g Group16416
f 490 491 493 492
g Group16421
f 276 277 181 180
g Group16416
f 492 493 495 494
g Group16421
f 277 278 182 181
g Group16416
f 494 495 497 496
g Group16421
f 278 279 183 182
g Group16416
f 496 497 499 498
g Group16421
f 279 280 184 183
g Group16416
f 498 499 501 500
g Group16421
f 280 281 185 184
g Group16416
f 500 501 503 502
g Group16421
f 281 282 186 185
g Group16416
f 502 503 505 504
g Group16421
f 282 283 187 186
g Group16416
f 504 505 507 506
g Group16421
f 283 284 188 187
g Group16416
f 506 507 509 508
g Group16421
f 284 285 189 188
g Group16416
f 508 509 448 449
g Group16421
f 285 254 158 189
g Group16426
f 448 511 510 447
f 447 510 512 451
f 451 512 513 453
f 453 513 514 455
f 455 514 515 457
f 457 515 516 459
f 459 516 517 461
f 461 517 518 463
f 463 518 519 465
f 465 519 520 467
f 467 520 521 469
f 469 521 522 471
f 471 522 523 473
f 473 523 524 475
f 475 524 525 477
f 477 525 526 479
f 479 526 527 481
f 481 527 528 483
f 483 528 529 485
f 485 529 530 487
f 487 530 531 489
f 489 531 532 491
f 491 532 533 493
f 493 533 534 495
f 495 534 535 497
f 497 535 536 499
f 499 536 537 501
f 501 537 538 503
f 503 538 539 505
f 505 539 540 507
f 507 540 541 509
f 509 541 511 448
f 541 543 542 511
g Group16431
f 221 190 383 382
g Group16426
f 540 544 543 541
g Group16431
f 220 221 382 384
g Group16426
f 539 545 544 540
g Group16431
f 219 220 384 385
g Group16426
f 538 546 545 539
g Group16431
f 218 219 385 386
g Group16426
f 537 547 546 538
g Group16431
f 217 218 386 387
g Group16426
f 536 548 547 537
g Group16431
f 216 217 387 388
g Group16426
f 535 549 548 536
g Group16431
f 215 216 388 389
g Group16426
f 534 550 549 535
g Group16431
f 214 215 389 390
g Group16426
f 533 551 550 534
g Group16431
f 213 214 390 391
g Group16426
f 532 552 551 533
g Group16431
f 212 213 391 392
g Group16426
f 531 553 552 532
g Group16431
f 211 212 392 393
g Group16426
f 530 554 553 531
g Group16436
f 394 393 553 554
g Group16431
f 210 211 393 394
g Group16426
f 529 555 554 530
g Group16436
f 395 394 554 555
g Group16431
f 209 210 394 395
g Group16426
f 528 556 555 529
g Group16436
f 396 395 555 556
g Group16431
f 208 209 395 396
g Group16426
f 527 557 556 528
g Group16436
f 397 396 556 557
g Group16431
f 207 208 396 397
g Group16426
f 526 558 557 527
g Group16431
f 206 207 397 398
g Group16426
f 525 559 558 526
g Group16431
f 205 206 398 399
g Group16426
f 524 560 559 525
g Group16441
f 400 399 559 560
g Group16431
f 204 205 399 400
g Group16426
f 523 561 560 524
g Group16441
f 401 400 560 561
g Group16431
f 203 204 400 401
g Group16426
f 522 562 561 523
g Group16441
f 402 401 561 562
g Group16431
f 202 203 401 402
g Group16426
f 521 563 562 522
g Group16441
f 403 402 562 563
g Group16431
f 201 202 402 403
g Group16426
f 520 564 563 521
g Group16431
f 200 201 403 404
g Group16426
f 519 565 564 520
g Group16431
f 199 200 404 405
g Group16426
f 518 566 565 519
g Group16431
f 198 199 405 406
g Group16426
f 517 567 566 518
g Group16431
f 197 198 406 407
g Group16426
f 516 568 567 517
g Group16431
f 196 197 407 408
g Group16426
f 515 569 568 516
g Group16431
f 195 196 408 409
g Group16426
f 514 570 569 515
g Group16431
f 194 195 409 410
g Group16426
f 513 571 570 514
g Group16431
f 193 194 410 411
g Group16426
f 512 572 571 513
g Group16431
f 192 193 411 412
g Group16426
f 510 573 572 512
g Group16431
f 191 192 412 413
g Group16426
f 511 542 573 510
g Group16431
f 190 191 413 383
g Group16416
f 575 449 446 574
g Group16421
f 286 287 255 254
g Group16416
f 574 446 450 576
g Group16421
f 287 288 256 255
g Group16416
f 576 450 452 577
g Group16421
f 288 289 257 256
g Group16416
f 577 452 454 578
g Group16421
f 289 290 258 257
g Group16416
f 578 454 456 579
g Group16421
f 290 291 259 258
g Group16416
f 579 456 458 580
g Group16421
f 291 292 260 259
g Group16416
f 580 458 460 581
g Group16421
f 292 293 261 260
g Group16416
f 581 460 462 582
g Group16421
f 293 294 262 261
g Group16416
f 582 462 464 583
g Group16421
f 294 295 263 262
g Group16416
f 583 464 466 584
g Group16421
f 295 296 264 263
g Group16416
f 584 466 468 585
g Group16421
f 296 297 265 264
g Group16416
f 585 468 470 586
g Group16421
f 297 298 266 265
g Group16416
f 586 470 472 587
g Group16421
f 298 299 267 266
g Group16416
f 587 472 474 588
g Group16421
f 299 300 268 267
g Group16416
f 588 474 476 589
g Group16421
f 300 301 269 268
g Group16416
f 589 476 478 590
g Group16421
f 301 302 270 269
g Group16416
f 590 478 480 591
g Group16421
f 302 303 271 270
g Group16416
f 591 480 482 592
g Group16421
f 303 304 272 271
g Group16416
f 592 482 484 593
g Group16421
f 304 305 273 272
g Group16416
f 593 484 486 594
g Group16421
f 305 306 274 273
g Group16416
f 594 486 488 595
g Group16421
f 306 307 275 274
g Group16416
f 595 488 490 596
g Group16421
f 307 308 276 275
g Group16416
f 596 490 492 597
g Group16421
f 308 309 277 276
g Group16416
f 597 492 494 598
g Group16421
f 309 310 278 277
g Group16416
f 598 494 496 599
g Group16421
f 310 311 279 278
g Group16416
f 599 496 498 600
g Group16421
f 311 312 280 279
g Group16416
f 600 498 500 601
g Group16421
f 312 313 281 280
g Group16416
f 601 500 502 602
g Group16421
f 313 314 282 281
g Group16416
f 602 502 504 603
g Group16421
f 314 315 283 282
g Group16416
f 603 504 506 604
g Group16421
f 315 316 284 283
g Group16416
f 604 506 508 605
g Group16421
f 316 317 285 284
g Group16416
f 605 508 449 575
g Group16421
f 317 286 254 285
g Group16416
f 607 575 574 606
g Group16421
f 318 319 287 286
g Group16416
f 606 574 576 608
g Group16421
f 319 320 288 287
g Group16416
f 608 576 577 609
g Group16421
f 320 321 289 288
g Group16416
f 609 577 578 610
g Group16421
f 321 322 290 289
g Group16416
f 610 578 579 611
g Group16421
f 322 323 291 290
g Group16416
f 611 579 580 612
g Group16421
f 323 324 292 291
g Group16416
f 612 580 581 613
g Group16421
f 324 325 293 292
g Group16416
f 613 581 582 614
g Group16421
f 325 326 294 293
g Group16416
f 614 582 583 615
g Group16421
f 326 327 295 294
g Group16416
f 615 583 584 616
g Group16421
f 327 328 296 295
g Group16416
f 616 584 585 617
g Group16421
f 328 329 297 296
g Group16416
f 617 585 586 618
g Group16421
f 329 330 298 297
g Group16416
f 618 586 587 619
g Group16421
f 330 331 299 298
g Group16416
f 619 587 588 620
g Group16421
f 331 332 300 299
g Group16416
f 620 588 589 621
g Group16421
f 332 333 301 300
g Group16416
f 621 589 590 622
g Group16421
f 333 334 302 301
g Group16416
f 622 590 591 623
g Group16421
f 334 335 303 302
g Group16416
f 623 591 592 624
g Group16421
f 335 336 304 303
g Group16416
f 624 592 593 625
g Group16421
f 336 337 305 304
g Group16416
f 625 593 594 626
g Group16421
f 337 338 306 305
g Group16416
f 626 594 595 627
g Group16421
f 338 339 307 306
g Group16416
f 627 595 596 628
g Group16421
f 339 340 308 307
g Group16416
f 628 596 597 629
g Group16421
f 340 341 309 308
g Group16416
f 629 597 598 630
g Group16421
f 341 342 310 309
g Group16416
f 630 598 599 631
g Group16421
f 342 343 311 310
g Group16416
f 631 599 600 632
g Group16421
f 343 344 312 311
g Group16416
f 632 600 601 633
g Group16421
f 344 345 313 312
g Group16416
f 633 601 602 634
g Group16421
f 345 346 314 313
g Group16416
f 634 602 603 635
g Group16421
f 346 347 315 314
g Group16416
f 635 603 604 636
g Group16421
f 347 348 316 315
g Group16416
f 636 604 605 637
g Group16421
f 348 349 317 316
g Group16416
f 637 605 575 607
g Group16421
f 349 318 286 317
g Group16416
f 638 607 606
g Group16421
f 319 318 157
g Group16416
f 638 606 608
g Group16421
f 320 319 157
g Group16416
f 638 608 609
g Group16421
f 321 320 157
g Group16416
f 638 609 610
g Group16421
f 322 321 157
g Group16416
f 638 610 611
g Group16421
f 323 322 157
g Group16416
f 638 611 612
g Group16421
f 324 323 157
g Group16416
f 638 612 613
g Group16421
f 325 324 157
g Group16416
f 638 613 614
g Group16421
f 326 325 157
g Group16416
f 638 614 615
g Group16421
f 327 326 157
g Group16416
f 638 615 616
g Group16421
f 328 327 157
g Group16416
f 638 616 617
g Group16421
f 329 328 157
g Group16416
f 638 617 618
g Group16421
f 330 329 157
g Group16416
f 638 618 619
g Group16421
f 331 330 157
g Group16416
f 638 619 620
g Group16421
f 332 331 157
g Group16416
f 638 620 621
g Group16421
f 333 332 157
g Group16416
f 638 621 622
g Group16421
f 334 333 157
g Group16416
f 638 622 623
g Group16421
f 335 334 157
g Group16416
f 638 623 624
g Group16421
f 336 335 157
g Group16416
f 638 624 625
g Group16421
f 337 336 157
g Group16416
f 638 625 626
g Group16421
f 338 337 157
g Group16416
f 638 626 627
g Group16421
f 339 338 157
g Group16416
f 638 627 628
g Group16421
f 340 339 157
g Group16416
f 638 628 629
g Group16421
f 341 340 157
g Group16416
f 638 629 630
g Group16421
f 342 341 157
g Group16416
f 638 630 631
g Group16421
f 343 342 157
g Group16416
f 638 631 632
g Group16421
f 344 343 157
g Group16416
f 638 632 633
g Group16421
f 345 344 157
g Group16416
f 638 633 634
g Group16421
f 346 345 157
g Group16416
f 638 634 635
g Group16421
f 347 346 157
g Group16416
f 638 635 636
g Group16421
f 348 347 157
g Group16416
f 638 636 637
g Group16421
f 349 348 157
g Group16416
f 638 637 607
g Group16421
f 318 349 157
g Group16426
f 642 641 640 639
g Group16446
f 253 222 640 641
g Group16431
f 350 351 895 896
g Group16426
f 644 643 641 642
g Group16446
f 252 253 641 643
g Group16431
f 352 350 896 897
g Group16426
f 646 645 643 644
g Group16446
f 251 252 643 645
g Group16431
f 353 352 897 898
g Group16426
f 648 647 645 646
g Group16446
f 250 251 645 647
g Group16431
f 354 353 898 899
g Group16426
f 650 649 647 648
g Group16446
f 249 250 647 649
g Group16431
f 355 354 899 900
g Group16426
f 652 651 649 650
g Group16446
f 248 249 649 651
g Group16431
f 356 355 900 901
g Group16426
f 654 653 651 652
g Group16446
f 247 248 651 653
g Group16431
f 357 356 901 902
g Group16426
f 656 655 653 654
g Group16446
f 246 247 653 655
g Group16431
f 358 357 902 903
g Group16426
f 658 657 655 656
g Group16446
f 245 246 655 657
g Group16431
f 359 358 903 904
g Group16426
f 660 659 657 658
g Group16446
f 244 245 657 659
g Group16431
f 360 359 904 905
g Group16426
f 662 661 659 660
g Group16446
f 243 244 659 661
g Group16431
f 361 360 905 906
g Group16426
f 664 663 661 662
g Group16446
f 242 243 661 663
g Group16431
f 362 361 906 907
g Group16426
f 666 665 663 664
g Group16446
f 241 242 663 665
g Group16431
f 363 362 907 908
g Group16426
f 668 667 665 666
g Group16446
f 240 241 665 667
g Group16431
f 364 363 908 909
g Group16426
f 670 669 667 668
g Group16446
f 239 240 667 669
g Group16431
f 365 364 909 910
g Group16426
f 672 671 669 670
g Group16446
f 238 239 669 671
g Group16431
f 366 365 910 911
g Group16426
f 674 673 671 672
g Group16446
f 237 238 671 673
g Group16431
f 367 366 911 912
g Group16426
f 676 675 673 674
g Group16446
f 236 237 673 675
g Group16431
f 368 367 912 913
g Group16426
f 678 677 675 676
g Group16446
f 235 236 675 677
g Group16431
f 369 368 913 914
g Group16426
f 680 679 677 678
g Group16446
f 234 235 677 679
g Group16431
f 370 369 914 915
g Group16426
f 682 681 679 680
g Group16446
f 233 234 679 681
g Group16431
f 371 370 915 916
g Group16426
f 684 683 681 682
g Group16446
f 232 233 681 683
g Group16431
f 372 371 916 917
g Group16426
f 686 685 683 684
g Group16446
f 231 232 683 685
g Group16431
f 373 372 917 918
g Group16426
f 688 687 685 686
g Group16446
f 230 231 685 687
g Group16431
f 374 373 918 919
g Group16426
f 690 689 687 688
g Group16446
f 229 230 687 689
g Group16431
f 375 374 919 920
g Group16426
f 692 691 689 690
g Group16446
f 228 229 689 691
g Group16431
f 376 375 920 921
g Group16426
f 694 693 691 692
g Group16446
f 227 228 691 693
g Group16431
f 377 376 921 922
g Group16426
f 696 695 693 694
g Group16446
f 226 227 693 695
g Group16431
f 378 377 922 923
g Group16426
f 698 697 695 696
g Group16446
f 225 226 695 697
g Group16431
f 379 378 923 924
g Group16426
f 700 699 697 698
g Group16446
f 224 225 697 699
g Group16431
f 380 379 924 925
g Group16426
f 702 701 699 700
g Group16446
f 223 224 699 701
g Group16431
f 381 380 925 926
g Group16426
f 639 640 701 702
g Group16446
f 222 223 701 640
g Group16431
f 351 381 926 895
g Group16426
f 543 704 703 542
g Group16431
f 382 383 415 414
g Group16426
f 544 705 704 543
g Group16431
f 384 382 414 416
g Group16426
f 545 706 705 544
g Group16431
f 385 384 416 417
g Group16426
f 546 707 706 545
g Group16431
f 386 385 417 418
g Group16426
f 547 708 707 546
g Group16431
f 387 386 418 419
g Group16426
f 548 709 708 547
g Group16431
f 388 387 419 420
g Group16426
f 549 710 709 548
g Group16431
f 389 388 420 421
g Group16426
f 550 711 710 549
g Group16431
f 390 389 421 422
g Group16426
f 551 712 711 550
g Group16431
f 391 390 422 423
g Group16426
f 552 713 712 551
g Group16431
f 392 391 423 424
g Group16426
f 553 714 713 552
g Group16451
f 393 425 714 553
g Group16431
f 393 392 424 425
g Group16426
f 558 716 715 557
g Group16456
f 429 397 557 715
g Group16431
f 398 397 429 430
g Group16426
f 559 717 716 558
g Group16461
f 399 431 717 559
g Group16431
f 399 398 430 431
g Group16426
f 564 719 718 563
g Group16466
f 435 403 563 718
g Group16431
f 404 403 435 436
g Group16426
f 565 720 719 564
g Group16431
f 405 404 436 437
g Group16426
f 566 721 720 565
g Group16431
f 406 405 437 438
g Group16426
f 567 722 721 566
g Group16431
f 407 406 438 439
g Group16426
f 568 723 722 567
g Group16431
f 408 407 439 440
g Group16426
f 569 724 723 568
g Group16431
f 409 408 440 441
g Group16426
f 570 725 724 569
g Group16431
f 410 409 441 442
g Group16426
f 571 726 725 570
g Group16431
f 411 410 442 443
g Group16426
f 572 727 726 571
g Group16431
f 412 411 443 444
g Group16426
f 573 728 727 572
g Group16431
f 413 412 444 445
g Group16426
f 542 703 728 573
g Group16431
f 383 413 445 415
g Group16426
f 704 642 639 703
g Group16431
f 414 415 351 350
g Group16426
f 705 644 642 704
g Group16431
f 416 414 350 352
g Group16426
f 706 646 644 705
g Group16431
f 417 416 352 353
g Group16426
f 707 648 646 706
g Group16431
f 418 417 353 354
g Group16426
f 708 650 648 707
g Group16431
f 419 418 354 355
g Group16426
f 709 652 650 708
g Group16431
f 420 419 355 356
g Group16426
f 710 654 652 709
g Group16431
f 421 420 356 357
g Group16426
f 711 656 654 710
g Group16431
f 422 421 357 358
g Group16426
f 712 658 656 711
g Group16431
f 423 422 358 359
g Group16426
f 713 660 658 712
g Group16431
f 424 423 359 360
g Group16426
f 714 662 660 713
g Group16431
f 425 424 360 361
g Group16426
f 729 664 662 714
g Group16471
f 425 426 729 714
g Group16431
f 426 425 361 362
g Group16426
f 730 666 664 729
g Group16471
f 426 427 730 729
g Group16431
f 427 426 362 363
g Group16426
f 731 668 666 730
g Group16471
f 427 428 731 730
g Group16431
f 428 427 363 364
g Group16426
f 715 670 668 731
g Group16471
f 428 429 715 731
g Group16431
f 429 428 364 365
g Group16426
f 716 672 670 715
g Group16431
f 430 429 365 366
g Group16426
f 717 674 672 716
g Group16431
f 431 430 366 367
g Group16426
f 732 676 674 717
g Group16476
f 431 432 732 717
g Group16431
f 432 431 367 368
g Group16426
f 733 678 676 732
g Group16476
f 432 433 733 732
g Group16431
f 433 432 368 369
g Group16426
f 734 680 678 733
g Group16476
f 433 434 734 733
g Group16431
f 434 433 369 370
g Group16426
f 718 682 680 734
g Group16476
f 434 435 718 734
g Group16431
f 435 434 370 371
g Group16426
f 719 684 682 718
g Group16431
f 436 435 371 372
g Group16426
f 720 686 684 719
g Group16431
f 437 436 372 373
g Group16426
f 721 688 686 720
g Group16431
f 438 437 373 374
g Group16426
f 722 690 688 721
g Group16431
f 439 438 374 375
g Group16426
f 723 692 690 722
g Group16431
f 440 439 375 376
g Group16426
f 724 694 692 723
g Group16431
f 441 440 376 377
g Group16426
f 725 696 694 724
g Group16431
f 442 441 377 378
g Group16426
f 726 698 696 725
g Group16431
f 443 442 378 379
g Group16426
f 727 700 698 726
g Group16431
f 444 443 379 380
g Group16426
f 728 702 700 727
g Group16431
f 445 444 380 381
g Group16426
f 703 639 702 728
g Group16431
f 415 445 381 351
f 736 735 191 190
f 735 737 192 191
f 737 738 193 192
f 738 739 194 193
f 739 740 195 194
f 740 741 196 195
f 741 742 197 196
f 742 743 198 197
f 743 744 199 198
f 744 745 200 199
f 745 746 201 200
f 746 747 202 201
f 747 748 203 202
f 748 749 204 203
f 749 750 205 204
f 750 751 206 205
f 751 752 207 206
f 752 753 208 207
f 753 754 209 208
f 754 755 210 209
f 755 756 211 210
f 756 757 212 211
f 757 758 213 212
f 758 759 214 213
f 759 760 215 214
f 760 761 216 215
f 761 762 217 216
f 762 763 218 217
f 763 764 219 218
f 764 765 220 219
f 765 766 221 220
f 766 736 190 221
g Group16481
f 735 736 769 770
f 737 735 770 772
f 738 737 772 774
f 739 738 774 776
f 740 739 776 778
f 741 740 778 780
f 742 741 780 782
f 743 742 782 784
f 744 743 784 786
f 745 744 786 788
f 746 745 788 790
f 747 746 790 792
f 748 747 792 794
f 749 748 794 796
f 750 749 796 798
f 751 750 798 800
f 752 751 800 802
f 753 752 802 804
f 754 753 804 806
f 755 754 806 808
f 756 755 808 810
f 757 756 810 812
f 758 757 812 814
f 759 758 814 816
f 760 759 816 818
f 761 760 818 820
f 762 761 820 822
f 763 762 822 824
f 764 763 824 826
f 765 764 826 828
f 766 765 828 830
f 736 766 830 769
g Group16486
f 768 767 770 769
f 767 771 772 770
f 771 773 774 772
f 773 775 776 774
f 775 777 778 776
f 777 779 780 778
f 779 781 782 780
f 781 783 784 782
f 783 785 786 784
f 785 787 788 786
f 787 789 790 788
f 789 791 792 790
f 791 793 794 792
f 793 795 796 794
f 795 797 798 796
f 797 799 800 798
f 799 801 802 800
f 801 803 804 802
f 803 805 806 804
f 805 807 808 806
f 807 809 810 808
f 809 811 812 810
f 811 813 814 812
f 813 815 816 814
f 815 817 818 816
f 817 819 820 818
f 819 821 822 820
f 821 823 824 822
f 823 825 826 824
f 825 827 828 826
f 827 829 830 828
f 769 830 829 768
g Group16421
f 158 159 831 832
f 159 160 833 831
f 160 161 834 833
f 161 162 835 834
f 162 163 836 835
f 163 164 837 836
f 164 165 838 837
f 165 166 839 838
f 166 167 840 839
f 167 168 841 840
f 168 169 842 841
f 169 170 843 842
f 170 171 844 843
f 171 172 845 844
f 172 173 846 845
f 173 174 847 846
f 174 175 848 847
f 175 176 849 848
f 176 177 850 849
f 177 178 851 850
f 178 179 852 851
f 179 180 853 852
f 180 181 854 853
f 181 182 855 854
f 182 183 856 855
f 183 184 857 856
f 184 185 858 857
f 185 186 859 858
f 186 187 860 859
f 187 188 861 860
f 188 189 862 861
f 189 158 832 862
g Group16486
f 863 864 767 768
f 864 865 771 767
f 865 866 773 771
f 866 867 775 773
f 867 868 777 775
f 868 869 779 777
f 869 870 781 779
f 870 871 783 781
f 871 872 785 783
f 872 873 787 785
f 873 874 789 787
f 874 875 791 789
f 875 876 793 791
f 876 877 795 793
f 877 878 797 795
f 878 879 799 797
f 879 880 801 799
f 880 881 803 801
f 881 882 805 803
f 882 883 807 805
f 883 884 809 807
f 884 885 811 809
f 885 886 813 811
f 886 887 815 813
f 887 888 817 815
f 888 889 819 817
f 889 890 821 819
f 890 891 823 821
f 891 892 825 823
f 892 893 827 825
f 893 894 829 827
f 894 863 768 829
f 864 863 832 831
f 863 894 862 832
f 831 833 865 864
f 833 834 866 865
f 834 835 867 866
f 835 836 868 867
f 836 837 869 868
f 837 838 870 869
f 838 839 871 870
f 839 840 872 871
f 840 841 873 872
f 841 842 874 873
f 842 843 875 874
f 843 844 876 875
f 844 845 877 876
f 845 846 878 877
f 846 847 879 878
f 847 848 880 879
f 848 849 881 880
f 849 850 882 881
f 850 851 883 882
f 851 852 884 883
f 852 853 885 884
f 853 854 886 885
f 854 855 887 886
f 855 856 888 887
f 856 857 889 888
f 857 858 890 889
f 858 859 891 890
f 859 860 892 891
f 860 861 893 892
f 861 862 894 893
g Group16491
f 896 895 929 930
f 897 896 930 932
f 898 897 932 934
f 899 898 934 936
f 900 899 936 938
f 901 900 938 940
f 902 901 940 942
f 903 902 942 944
f 904 903 944 946
f 905 904 946 948
f 906 905 948 950
f 907 906 950 952
f 908 907 952 954
f 909 908 954 956
f 910 909 956 958
f 911 910 958 960
f 912 911 960 962
f 913 912 962 964
f 914 913 964 966
f 915 914 966 968
f 916 915 968 970
f 917 916 970 972
f 918 917 972 974
f 919 918 974 976
f 920 919 976 978
f 921 920 978 980
f 922 921 980 982
f 923 922 982 984
f 924 923 984 986
f 925 924 986 988
f 926 925 988 990
f 895 926 990 929
f 928 927 930 929
f 927 931 932 930
f 931 933 934 932
f 933 935 936 934
f 935 937 938 936
f 937 939 940 938
f 939 941 942 940
f 941 943 944 942
f 943 945 946 944
f 945 947 948 946
f 947 949 950 948
f 949 951 952 950
f 951 953 954 952
f 953 955 956 954
f 955 957 958 956
f 957 959 960 958
f 959 961 962 960
f 961 963 964 962
f 963 965 966 964
f 965 967 968 966
f 967 969 970 968
f 969 971 972 970
f 971 973 974 972
f 973 975 976 974
f 975 977 978 976
f 977 979 980 978
f 979 981 982 980
f 981 983 984 982
f 983 985 986 984
f 985 987 988 986
f 987 989 990 988
f 929 990 989 928
g Group16446
f 222 253 991 992
f 253 252 993 991
f 252 251 994 993
f 251 250 995 994
f 250 249 996 995
f 249 248 997 996
f 248 247 998 997
f 247 246 999 998
f 246 245 1000 999
f 245 244 1001 1000
f 244 243 1002 1001
f 243 242 1003 1002
f 242 241 1004 1003
f 241 240 1005 1004
f 240 239 1006 1005
f 239 238 1007 1006
f 238 237 1008 1007
f 237 236 1009 1008
f 236 235 1010 1009
f 235 234 1011 1010
f 234 233 1012 1011
f 233 232 1013 1012
f 232 231 1014 1013
f 231 230 1015 1014
f 230 229 1016 1015
f 229 228 1017 1016
f 228 227 1018 1017
f 227 226 1019 1018
f 226 225 1020 1019
f 225 224 1021 1020
f 224 223 1022 1021
f 223 222 992 1022
g Group16491
f 927 928 1023 1024
f 931 927 1024 1025
f 933 931 1025 1026
f 935 933 1026 1027
f 937 935 1027 1028
f 939 937 1028 1029
f 941 939 1029 1030
f 943 941 1030 1031
f 945 943 1031 1032
f 947 945 1032 1033
f 949 947 1033 1034
f 951 949 1034 1035
f 953 951 1035 1036
f 955 953 1036 1037
f 957 955 1037 1038
f 959 957 1038 1039
f 961 959 1039 1040
f 963 961 1040 1041
f 965 963 1041 1042
f 967 965 1042 1043
f 969 967 1043 1044
f 971 969 1044 1045
f 973 971 1045 1046
f 975 973 1046 1047
f 977 975 1047 1048
f 979 977 1048 1049
f 981 979 1049 1050
f 983 981 1050 1051
f 985 983 1051 1052
f 987 985 1052 1053
f 989 987 1053 1054
f 928 989 1054 1023
f 1024 1023 992 991
f 1023 1054 1022 992
f 991 993 1025 1024
f 993 994 1026 1025
f 994 995 1027 1026
f 995 996 1028 1027
f 996 997 1029 1028
f 997 998 1030 1029
f 998 999 1031 1030
f 999 1000 1032 1031
f 1000 1001 1033 1032
f 1001 1002 1034 1033
f 1002 1003 1035 1034
f 1003 1004 1036 1035
f 1004 1005 1037 1036
f 1005 1006 1038 1037
f 1006 1007 1039 1038
f 1007 1008 1040 1039
f 1008 1009 1041 1040
f 1009 1010 1042 1041
f 1010 1011 1043 1042
f 1011 1012 1044 1043
f 1012 1013 1045 1044
f 1013 1014 1046 1045
f 1014 1015 1047 1046
f 1015 1016 1048 1047
f 1016 1017 1049 1048
f 1017 1018 1050 1049
f 1018 1019 1051 1050
f 1019 1020 1052 1051
f 1020 1021 1053 1052
f 1021 1022 1054 1053

 