# File exported by ZBrush version 2021
# www.zbrush.com
#Vertex Count 126
#Face Count 128
#Auto scale x=1.000000 y=1.000000 z=1.000000
#Auto offset x=0.000000 y=0.000000 z=0.000000
v -0.52669394 1.33731472 0.08405318
v -0.00000072 1.29739713 0.14830042
v 0.52669251 1.33731472 0.08405318
v -1.16629231 0.78481555 -0.06713514
v -0.51261979 0.78476721 0.16983507
v -0.00000071 0.78576868 0.22310696
v 0.51261818 0.78476721 0.16983507
v 1.16629064 0.78481566 -0.06713579
v -1.1567831 0.26603427 -0.01839502
v -0.5215798 0.27299436 0.20593914
v -0.00000069 0.27002343 0.26007068
v 0.52157825 0.27299436 0.20593914
v 1.15678143 0.26603427 -0.01839502
v -1.13553786 -0.21400696 -0.00225378
v -0.53053981 -0.2399798 0.20430065
v -0.00000068 -0.24704366 0.25898957
v 0.53053832 -0.2399798 0.20430065
v 1.13553726 -0.21400684 -0.00225445
v -0.66653001 -1.14211452 0.0806456
v -0.00000066 -1.43407189 0.11083049
v 0.66652852 -1.14211452 0.0806456
v -1.18654322 1.32361471 -0.1631364
v -0.52399796 1.22915482 0.10443808
v -0.00000071 1.19715881 0.16599802
v 0.52399635 1.22915482 0.10443808
v 1.18654227 1.32361471 -0.16313706
v 1.06833851 1.30816018 -0.09837822
v 1.07285213 1.43498098 -0.12652073
v 1.04230094 0.2666839 0.03653891
v 1.04893422 0.78528732 -0.00879833
v 1.0260967 -0.22020608 0.04786363
v 0.98458111 -0.71163976 0.03326395
v -1.06269669 1.30740416 -0.09548966
v -1.06719887 1.434044 -0.12353994
v -1.03685188 0.26672092 0.03898184
v -1.04334092 0.78530347 -0.00620663
v -1.02089393 -0.22048384 0.05009585
v -0.98281967 -0.71682274 0.03344906
v -1.07890474 -0.53832435 0.00809349
v -0.97521901 -0.59332615 0.04804471
v -0.63803982 -0.95810711 0.11630941
v -0.00436332 -1.28017199 0.14174576
v 0.63803827 -0.95810711 0.11630874
v 0.97284436 -0.58654552 0.0495654
v 1.07375812 -0.53246235 0.01085618
v -1.01940345 1.41389763 -0.22296764
v -1.01500546 1.28918147 -0.19533674
v -1.13308262 1.30565369 -0.26006865
v -0.00000074 1.27749276 0.03795123
v -0.00000074 1.17886018 0.05537216
v -0.5008642 1.21095156 -0.00376234
v -0.5036152 1.31738817 -0.02385576
v 0.50361341 1.31739246 -0.0238571
v 0.50086259 1.21095538 -0.00376302
v 1.02479243 1.41483366 -0.22582052
v 1.02038645 1.28993797 -0.19809876
v -0.9967553 0.77408874 -0.10758651
v -0.99109351 0.26225841 -0.0632873
v -1.10575282 0.26142901 -0.11813236
v -1.11416018 0.77380985 -0.16580213
v -0.00000073 0.77384382 0.11161473
v -0.00000072 0.26613014 0.14801026
v -0.49854996 0.2688975 0.09627793
v -0.4898397 0.77313113 0.06066259
v 0.48983815 0.77313423 0.06066192
v 0.49854847 0.26889762 0.09627793
v 1.00209617 0.77407574 -0.11006243
v 0.9963029 0.26221436 -0.06562252
v -0.97663956 -0.21764606 -0.05289088
v -1.08632409 -0.21154958 -0.10297463
v -0.00000071 -0.24268204 0.14694599
v -0.50753945 -0.23603147 0.09462732
v 0.50753903 -0.23603242 0.09462732
v 0.98161709 -0.21738404 -0.05502615
v -0.93352109 -0.58458763 -0.05567376
v -1.03270053 -0.53068804 -0.09378655
v -0.00000069 -1.17235505 0.04746377
v -0.61106455 -0.94297134 0.00853106
v 0.61106288 -0.94297134 0.00853106
v 0.93123823 -0.57790523 -0.05419953
v 1.13307964 1.30565917 -0.26007068
v 1.11415791 0.77381366 -0.16580416
v 1.10575103 0.26142901 -0.11813236
v 1.08632338 -0.21154946 -0.10297597
v 1.02776467 -0.52490139 -0.09112484
v -0.94096946 -0.70620954 -0.0700338
v -0.00000069 -1.41075933 0.00115245
v -0.63851994 -1.12414276 -0.02642996
v 0.63851839 -1.12414276 -0.02643062
v 0.94264882 -0.70111191 -0.07019402
v -1.20211672 1.32885992 -0.134901
v -1.07655537 1.31268537 -0.06638251
v -1.08111524 1.4399265 -0.0945755
v -0.53063982 1.23445987 0.13597874
v -0.00000071 1.20248794 0.19822461
v -0.00000071 1.30319273 0.18044623
v -0.53339856 1.34311592 0.11549285
v 0.53063929 1.23445773 0.13597805
v 0.53339803 1.34311378 0.11549285
v 1.08227455 1.31344163 -0.06930743
v 1.08684551 1.44086277 -0.09759332
v -1.17164981 0.26738193 0.01065759
v -1.05018329 0.26802679 0.06877225
v -1.05691528 0.78850007 0.02333337
v -1.18147528 0.78802061 -0.03839014
v -1.14987552 -0.21471637 0.02708695
v -1.03378653 -0.22129291 0.08009697
v -1.09236431 -0.54054397 0.03777283
v -0.98736596 -0.59586769 0.0782599
v -0.99501097 -0.71991026 0.06359423
v -0.67468953 -1.14734828 0.11183822
v -0.64589798 -0.96251475 0.14770533
v 1.20211672 1.32885658 -0.13490302
v 1.05570197 0.26799151 0.06629836
v 1.17164897 0.2673819 0.01065692
v 1.18147468 0.78801941 -0.03839083
v 1.06258261 0.78848326 0.02070733
v 1.03905499 -0.22101098 0.07783646
v 1.1498748 -0.21471613 0.0270856
v 0.98496449 -0.58905845 0.07979337
v 1.08715641 -0.5346601 0.04056446
v 0.99679637 -0.71470296 0.06340307
v -0.00000065 -1.44086277 0.14278043
v -0.00441652 -1.28624737 0.17383909
v 0.67468804 -1.14734828 0.11183822
v 0.64589643 -0.96251475 0.14770533
g Group56227
f 46 48 47
g Group56230
f 38 19 88 86
f 34 22 48 46
g Group56227
f 52 51 50 49
g Group56230
f 2 1 52 49
g Group56227
f 49 50 54 53
g Group56230
f 3 2 49 53
g Group56227
f 53 54 56 55
g Group56230
f 28 3 53 55
g Group56227
f 60 59 58 57
g Group56230
f 4 9 59 60
g Group56227
f 64 63 62 61
g Group25685
f 5 6 11 10
g Group56227
f 61 62 66 65
g Group25685
f 6 7 12 11
g Group56227
f 65 66 68 67
g Group25685
f 7 30 29 12
g Group56227
f 59 70 69 58
g Group56230
f 9 14 70 59
g Group56227
f 63 72 71 62
g Group25685
f 10 11 16 15
g Group56227
f 62 71 73 66
g Group25685
f 11 12 17 16
g Group56227
f 66 73 74 68
g Group25685
f 12 29 31 17
g Group56227
f 70 76 75 69
g Group56230
f 14 39 76 70
g Group56227
f 72 78 77 71
g Group25685
f 15 16 42 41
g Group56227
f 71 77 79 73
g Group25685
f 16 17 43 42
g Group56227
f 73 79 80 74
g Group25685
f 17 31 44 43
g Group56227
f 48 60 57 47
g Group56230
f 22 4 60 48
g Group56227
f 51 64 61 50
g Group25685
f 23 24 6 5
g Group56227
f 50 61 65 54
g Group25685
f 24 25 7 6
g Group56227
f 54 65 67 56
g Group25685
f 25 27 30 7
g Group56227
f 55 56 81
g Group56230
f 26 28 55 81
g Group56227
f 67 68 83 82
g Group56230
f 13 8 82 83
g Group56227
f 68 74 84 83
g Group56230
f 18 13 83 84
g Group56227
f 74 80 85 84
g Group56230
f 45 18 84 85
g Group56227
f 56 67 82 81
g Group56230
f 8 26 81 82
g Group56227
f 46 47 51 52
g Group56230
f 1 34 46 52
g Group56227
f 57 58 63 64
g Group25685
f 36 5 10 35
g Group56227
f 58 69 72 63
g Group25685
f 35 10 15 37
g Group56227
f 69 75 78 72
g Group25685
f 37 15 41 40
g Group56227
f 47 57 64 51
g Group25685
f 33 23 5 36
g Group56227
f 76 86 75
g Group56230
f 39 38 86 76
g Group56227
f 78 88 87 77
g Group56230
f 19 20 87 88
g Group56227
f 77 87 89 79
g Group56230
f 20 21 89 87
g Group56227
f 79 89 90 80
g Group56230
f 21 32 90 89
g Group56227
f 80 90 85
g Group56230
f 32 45 85 90
g Group56227
f 75 86 88 78
f 93 92 91
g Group56230
f 22 34 93 91
g Group56227
f 97 96 95 94
g Group56230
f 24 23 94 95
f 1 2 96 97
g Group56227
f 96 99 98 95
g Group56230
f 25 24 95 98
f 2 3 99 96
g Group56227
f 99 101 100 98
g Group56230
f 27 25 98 100
f 3 28 101 99
g Group56227
f 105 104 103 102
g Group56230
f 9 4 105 102
f 36 35 103 104
g Group56227
f 102 103 107 106
g Group56230
f 14 9 102 106
f 35 37 107 103
g Group56227
f 106 107 109 108
g Group56230
f 39 14 106 108
f 37 40 109 107
g Group56227
f 91 92 104 105
g Group56230
f 4 22 91 105
f 33 36 104 92
g Group56227
f 109 112 111 110
g Group56230
f 19 38 110 111
f 40 41 112 109
g Group56227
f 101 113 100
g Group56230
f 28 26 113 101
g Group56227
f 117 116 115 114
g Group56230
f 29 30 117 114
f 8 13 115 116
g Group56227
f 114 115 119 118
g Group56230
f 31 29 114 118
f 13 18 119 115
g Group56227
f 118 119 121 120
g Group56230
f 44 31 118 120
f 18 45 121 119
g Group56227
f 100 113 116 117
g Group56230
f 30 27 100 117
f 26 8 116 113
g Group56227
f 93 97 94 92
g Group56230
f 23 33 92 94
f 34 1 97 93
g Group56227
f 120 121 122
g Group56230
f 45 32 122 121
g Group56227
f 108 109 110
g Group56230
f 38 39 108 110
g Group56227
f 112 124 123 111
g Group56230
f 20 19 111 123
f 41 42 124 112
g Group56227
f 124 126 125 123
g Group56230
f 21 20 123 125
f 42 43 126 124
g Group56227
f 126 120 122 125
g Group56230
f 32 21 125 122
f 43 44 120 126

 