# File exported by ZBrush version 2021
# www.zbrush.com
#Vertex Count 932
#Face Count 930
#Auto scale x=1.000000 y=1.000000 z=1.000000
#Auto offset x=0.000000 y=0.000000 z=0.000000
v 0.00126247 -1.55022001 0.04627251
v 0.02397147 -2.01486086 0.04627251
v 0.01945647 1.65157997 0.04627251
v -0.15146851 1.59390902 0.04627251
v 0.07664047 -1.58821201 0.04627251
v 0.11564547 -1.48323202 0.04627251
v -0.00289852 -1.45813298 0.04627251
v -0.07533152 -1.59107601 0.04627251
v 0.00563047 -1.68206 0.04627251
v -0.11789152 -1.48561501 0.04627251
v 0.03581347 -2.10726404 0.04627251
v 0.19146247 -2.05262398 0.04627251
v 0.11589347 -1.9333179 0.04627251
v -0.07399252 -1.94363594 0.04627251
v -0.13494652 -2.07707691 0.04627251
v 0.01543347 -1.84489703 0.04627251
v -0.06653752 1.57300102 0.04627251
v -0.03244552 1.49585497 0.04627251
v 0.07503148 1.55920004 0.04627251
v 0.16925248 1.69792699 0.04627251
v 0.03707747 1.76036298 0.04627251
v -0.10667552 1.74723696 0.04627251
v -0.15665751 1.48247599 0.04627251
v -0.22076152 1.67175006 0.04627251
v -0.29275852 1.57475507 0.04627251
v -0.33023652 1.45882797 0.04627251
v -0.16483351 1.40515005 0.04627251
v -0.30476653 1.82873606 0.04627251
v -0.4209015 1.69489002 0.04627251
v -0.48531952 1.53457903 0.04627251
v -0.51080155 1.37674105 0.04627251
v -0.3455125 1.33640599 0.04627251
v -0.54765951 1.81761205 0.04627251
v -0.63787257 1.61191606 0.04627251
v -0.66834652 1.41667807 0.04627251
v -0.66612255 1.243662 0.04627251
v -0.50717949 1.22818398 0.04627251
v -0.78212952 1.68168997 0.04627251
v -0.82306146 1.44730699 0.04627251
v -0.82226848 1.25326204 0.04627251
v -0.81200456 1.085626 0.04627251
v -0.65618455 1.08619701 0.04627251
v -0.97826147 1.465047 0.04627251
v -0.97709751 1.25247407 0.04627251
v -0.96662449 1.07944202 0.04627251
v -0.95666456 0.92255502 0.04627251
v -0.80213952 0.93069601 0.04627251
v -0.79296553 0.78104603 0.04627251
v -0.63817048 0.789043 0.04627251
v -0.64674651 0.936194 0.04627251
v -0.94710552 0.77197003 0.04627251
v -0.93771147 0.62399101 0.04627251
v -0.78422248 0.63349402 0.04627251
v -0.77575147 0.48659703 0.04627251
v -0.62275147 0.49628502 0.04627251
v -0.63023555 0.64268201 0.04627251
v -0.92837655 0.476938 0.04627251
v -0.91905152 0.33004599 0.04627251
v -0.76746749 0.33972302 0.04627251
v -0.75930154 0.19262401 0.04627251
v -0.60867857 0.20244301 0.04627251
v -0.61560249 0.34955701 0.04627251
v -0.90971553 0.18299302 0.04627251
v -0.90036356 0.03567002 0.04627251
v -0.75121355 0.04522401 0.04627251
v -0.74316954 -0.10248097 0.04627251
v -0.5952475 -0.09285497 0.04627251
v -0.60191452 0.05495601 0.04627251
v -0.89099252 -0.11194497 0.04627251
v -0.88160347 -0.25984597 0.04627251
v -0.73514354 -0.25046998 0.04627251
v -0.72710847 -0.39874497 0.04627251
v -0.58201646 -0.38928198 0.04627251
v -0.58862948 -0.24094098 0.04627251
v -0.87219548 -0.40804398 0.04627251
v -0.86276555 -0.55658799 0.04627251
v -0.7190355 -0.54733896 0.04627251
v -0.71088051 -0.69638097 0.04627251
v -0.56859552 -0.68678599 0.04627251
v -0.57535851 -0.53787499 0.04627251
v -0.85330355 -0.70562899 0.04627251
v -0.8437885 -0.85551798 0.04627251
v -0.70257854 -0.84618699 0.04627251
v -0.69402146 -0.99744701 0.04627251
v -0.55433154 -0.98652303 0.04627251
v -0.56163346 -0.83619695 0.04627251
v -0.83416557 -1.00710701 0.04627251
v -0.82431948 -1.16220295 0.04627251
v -0.68499648 -1.15179193 0.04627251
v -0.67511355 -1.312927 0.04627251
v -0.53742349 -1.29559302 0.04627251
v -0.54642558 -1.13880693 0.04627251
v -0.81398248 -1.32503199 0.04627251
v -0.80186653 -1.50863897 0.04627251
v -0.66159355 -1.488855 0.04627251
v -0.62398147 -1.68428802 0.04627251
v -0.49013653 -1.63728296 0.04627251
v -0.52436447 -1.46174192 0.04627251
v -0.75964856 -1.72592997 0.04627251
v -0.66317546 -1.95770907 0.04627251
v -0.5384885 -1.88693296 0.04627251
v -0.39922252 -2.08081388 0.04627251
v -0.29342451 -1.969208 0.04627251
v -0.41526553 -1.81226897 0.04627251
v -0.50592255 -2.18435192 0.04627251
v -0.25059652 -2.3763659 0.04627251
v -0.18566252 -2.21585488 0.04627251
v 0.06459047 -2.24460291 0.04627251
v 0.14385947 -2.41452193 0.04627251
v 0.35818147 -2.3128519 0.04627251
v 0.26714447 -2.17698407 0.04627251
v 0.54828345 -2.1246829 0.04627251
v 0.43816646 -2.03436803 0.04627251
v 0.32702946 -1.93812394 0.04627251
v 0.55346453 -1.85368394 0.04627251
v 0.42938247 -1.78676998 0.04627251
v 0.30675849 -1.71871292 0.04627251
v 0.21971347 -1.84454703 0.04627251
v 0.18683847 -1.65148699 0.04627251
v 0.11054047 -1.75794494 0.04627251
v -0.09014052 -1.76485693 0.04627251
v -0.17850352 -1.66064 0.04627251
v -0.29439953 -1.73545992 0.04627251
v -0.19296851 -1.86228895 0.04627251
v -0.23416751 -1.53409302 0.04627251
v -0.35922852 -1.586169 0.04627251
v -0.25964751 -1.39702093 0.04627251
v -0.39020252 -1.43004202 0.04627251
v -0.26783251 -1.25454103 0.04627251
v -0.40167653 -1.27519393 0.04627251
v -0.2726705 -1.10983395 0.04627251
v -0.40898951 -1.12433695 0.04627251
v -0.27689451 -0.96321892 0.04627251
v -0.4153065 -0.974877 0.04627251
v -0.2807995 -0.81543296 0.04627251
v -0.42106452 -0.82582896 0.04627251
v -0.28450751 -0.66710895 0.04627251
v -0.42649152 -0.67697399 0.04627251
v -0.28809553 -0.51857495 0.04627251
v -0.43173551 -0.52825999 0.04627251
v -0.29162353 -0.36999699 0.04627251
v -0.43687951 -0.37968498 0.04627251
v -0.29513251 -0.22148099 0.04627251
v -0.44198751 -0.23127296 0.04627251
v -0.2986755 -0.07311298 0.04627251
v -0.44711652 -0.08306497 0.04627251
v -0.30229651 0.07503701 0.04627251
v -0.45231851 0.06488601 0.04627251
v -0.3060505 0.22285102 0.04627251
v -0.45765453 0.21249702 0.04627251
v -0.31002453 0.370137 0.04627251
v -0.4631915 0.35965701 0.04627251
v -0.31429851 0.51666802 0.04627251
v -0.46903652 0.50621104 0.04627251
v -0.31900551 0.66194903 0.04627251
v -0.47530251 0.651968 0.04627251
v -0.3243215 0.80524402 0.04627251
v -0.48215752 0.79672801 0.04627251
v -0.33047652 0.94556999 0.04627251
v -0.48981252 0.94044202 0.04627251
v -0.33762651 1.08180201 0.04627251
v -0.49851453 1.08370399 0.04627251
v -0.34426751 1.212749 0.04627251
v -0.17291152 1.08509802 0.04627251
v -0.17649951 1.205796 0.04627251
v -0.17251351 1.31297898 0.04627251
v -0.00352052 1.21319198 0.04627251
v -0.00171952 1.32080102 0.04627251
v -0.00877052 1.41590297 0.04627251
v 0.16524048 1.36535799 0.04627251
v 0.13526947 1.47933602 0.04627251
v 0.32620647 1.43817102 0.04627251
v 0.26967048 1.58480703 0.04627251
v 0.47841846 1.52392005 0.04627251
v 0.39537146 1.70526301 0.04627251
v 0.25177449 1.84683501 0.04627251
v 0.51732647 1.83715105 0.04627251
v 0.32545048 2.00511217 0.04627251
v 0.08462747 2.09075212 0.04627251
v 0.06388247 1.93201196 0.04627251
v -0.16152451 2.07693195 0.04627251
v -0.13735352 1.91541802 0.04627251
v -0.3813385 1.98102998 0.04627251
v -0.18767352 2.23499894 0.04627251
v -0.45424053 2.12508392 0.04627251
v -0.66237056 1.92923796 0.04627251
v -0.53431451 2.25988292 0.04627251
v -0.78131747 2.02958917 0.04627251
v -0.92724251 1.74013197 0.04627251
v -0.21957552 2.38845109 0.04627251
v 0.09988047 2.24985694 0.04627251
v 0.06770047 2.41452193 0.04627251
v 0.39154848 2.15233492 0.04627251
v 0.46314847 2.29686093 0.04627251
v 0.62922143 1.95908105 0.04627251
v 0.74651742 2.06972789 0.04627251
v 0.77637648 1.69602 0.04627251
v 0.9209795 1.76255106 0.04627251
v 0.82323551 1.40570998 0.04627251
v 0.97826147 1.42326307 0.04627251
v 0.81582343 1.17566597 0.04627251
v 0.97107648 1.17374002 0.04627251
v 0.80387747 0.98939204 0.04627251
v 0.95910143 0.98343902 0.04627251
v 0.79357552 0.82119303 0.04627251
v 0.94841742 0.81365203 0.04627251
v 0.78417646 0.66156303 0.04627251
v 0.93831443 0.653104 0.04627251
v 0.77533447 0.50646001 0.04627251
v 0.92852652 0.49755403 0.04627251
v 0.76684248 0.35384902 0.04627251
v 0.91890943 0.34471502 0.04627251
v 0.75857746 0.20271202 0.04627251
v 0.90939343 0.19348502 0.04627251
v 0.75046253 0.05248701 0.04627251
v 0.89993953 0.04324502 0.04627251
v 0.74243748 -0.09717898 0.04627251
v 0.89052343 -0.10639798 0.04627251
v 0.73446047 -0.24649998 0.04627251
v 0.8811295 -0.25567498 0.04627251
v 0.72650349 -0.39562198 0.04627251
v 0.87174952 -0.40474799 0.04627251
v 0.7185285 -0.544685 0.04627251
v 0.86237144 -0.55377095 0.04627251
v 0.71049344 -0.693861 0.04627251
v 0.85298442 -0.70294696 0.04627251
v 0.70234942 -0.84346395 0.04627251
v 0.84356653 -0.852629 0.04627251
v 0.69400453 -0.99412393 0.04627251
v 0.83406746 -1.00357198 0.04627251
v 0.68529152 -1.1473 0.04627251
v 0.82438445 -1.157462 0.04627251
v 0.67578148 -1.30627799 0.04627251
v 0.81427252 -1.31816303 0.04627251
v 0.66212153 -1.47710895 0.04627251
v 0.80153453 -1.49619102 0.04627251
v 0.62900149 -1.66396796 0.04627251
v 0.76347148 -1.70317196 0.04627251
v 0.68109142 -1.91951799 0.04627251
v 0.52523851 -1.45149302 0.04627251
v 0.49538949 -1.62060296 0.04627251
v 0.39102447 -1.42222392 0.04627251
v 0.36397847 -1.57412493 0.04627251
v 0.25941446 -1.39244294 0.04627251
v 0.23659147 -1.52741503 0.04627251
v 0.13019548 -1.36572301 0.04627251
v 0.26770547 -1.25166595 0.04627251
v 0.13407348 -1.23522996 0.04627251
v -0.00066652 -1.22633302 0.04627251
v -0.00190752 -1.35064494 0.04627251
v -0.13518652 -1.23638594 0.04627251
v -0.13241952 -1.36779797 0.04627251
v -0.00041252 -1.08896601 0.04627251
v -0.13675952 -1.09673094 0.04627251
v -0.00037552 -0.94516396 0.04627251
v -0.13866552 -0.95224297 0.04627251
v -0.00039052 -0.79870599 0.04627251
v -0.14058552 -0.805332 0.04627251
v -0.00044952 -0.65082395 0.04627251
v -0.14246651 -0.65734899 0.04627251
v -0.00053952 -0.50228595 0.04627251
v -0.14431051 -0.50890898 0.04627251
v -0.00064152 -0.35367298 0.04627251
v -0.14615252 -0.36025697 0.04627251
v -0.00076352 -0.20478299 0.04627251
v -0.14797352 -0.21158596 0.04627251
v -0.00090952 -0.05593998 0.04627251
v -0.14983251 -0.06301598 0.04627251
v -0.00106552 0.09286002 0.04627251
v -0.15177352 0.08541201 0.04627251
v -0.00125452 0.24146102 0.04627251
v -0.15377752 0.23355801 0.04627251
v -0.00146152 0.389968 0.04627251
v -0.15597152 0.38110101 0.04627251
v -0.00169352 0.53717005 0.04627251
v -0.15845452 0.52793598 0.04627251
v -0.00199452 0.683052 0.04627251
v -0.16110351 0.67323499 0.04627251
v -0.00233052 0.82654899 0.04627251
v -0.16426052 0.81586903 0.04627251
v -0.00278752 0.96542304 0.04627251
v -0.16819651 0.95399004 0.04627251
v -0.00363852 1.09535801 0.04627251
v 0.16364048 0.96889799 0.04627251
v 0.16783447 1.10641801 0.04627251
v 0.17036348 1.23808598 0.04627251
v 0.33616447 1.124704 0.04627251
v 0.34056249 1.27948796 0.04627251
v 0.49959448 1.14671897 0.04627251
v 0.50449442 1.32877898 0.04627251
v 0.65890145 1.16541206 0.04627251
v 0.66273546 1.37417697 0.04627251
v 0.62560749 1.611588 0.04627251
v 0.6474775 0.98831003 0.04627251
v 0.48916149 0.982472 0.04627251
v 0.48074346 0.82587701 0.04627251
v 0.63787746 0.82489001 0.04627251
v 0.32798749 0.97480899 0.04627251
v 0.32159647 0.82571899 0.04627251
v 0.31635546 0.67642003 0.04627251
v 0.47359147 0.67247504 0.04627251
v 0.16026948 0.82630002 0.04627251
v 0.15759447 0.68061101 0.04627251
v 0.15536747 0.533149 0.04627251
v 0.31183049 0.52691602 0.04627251
v 0.30778947 0.37741601 0.04627251
v 0.46149048 0.36998203 0.04627251
v 0.46727547 0.52075004 0.04627251
v 0.15329948 0.384779 0.04627251
v 0.15146148 0.23615002 0.04627251
v 0.30406346 0.22802202 0.04627251
v 0.30054748 0.07872702 0.04627251
v 0.45088148 0.07016001 0.04627251
v 0.45606449 0.21985401 0.04627251
v 0.14977048 0.08724202 0.04627251
v 0.14812548 -0.06171998 0.04627251
v 0.29715746 -0.07045498 0.04627251
v 0.29382649 -0.21952599 0.04627251
v 0.44087848 -0.22843897 0.04627251
v 0.44584047 -0.07924297 0.04627251
v 0.14652048 -0.21065399 0.04627251
v 0.14493048 -0.35956499 0.04627251
v 0.29051849 -0.36849498 0.04627251
v 0.28717547 -0.51733195 0.04627251
v 0.43094846 -0.52641296 0.04627251
v 0.43592846 -0.37748497 0.04627251
v 0.14328947 -0.508358 0.04627251
v 0.14160448 -0.656856 0.04627251
v 0.28374949 -0.66595596 0.04627251
v 0.28020048 -0.814206 0.04627251
v 0.42063948 -0.823973 0.04627251
v 0.42587947 -0.67523998 0.04627251
v 0.13985148 -0.804816 0.04627251
v 0.13800248 -0.95161593 0.04627251
v 0.27645048 -0.96173393 0.04627251
v 0.27239748 -1.107867 0.04627251
v 0.40912148 -1.12131202 0.04627251
v 0.41510647 -0.97263193 0.04627251
v 0.13605047 -1.09590697 0.04627251
v 0.54676151 -1.13490593 0.04627251
v 0.55429351 -0.98363792 0.04627251
v 0.56134045 -0.83382999 0.04627251
v 0.56811046 -0.68458998 0.04627251
v 0.5747205 -0.53554999 0.04627251
v 0.58124053 -0.38652998 0.04627251
v 0.58772945 -0.23742497 0.04627251
v 0.5942415 -0.08813798 0.04627251
v 0.60081946 0.06143901 0.04627251
v 0.60752642 0.21146701 0.04627251
v 0.61444842 0.36221 0.04627251
v 0.62169051 0.51408004 0.04627251
v 0.62941551 0.667822 0.04627251
v 0.53822743 -1.28966403 0.04627251
v 0.40213948 -1.27070403 0.04627251
v -0.00289852 -1.45813298 -0.07084345
v 0.11564547 -1.48323202 -0.07084345
v 0.07664047 -1.58821201 -0.07084345
v 0.00126247 -1.55022001 -0.07084345
v 0.00563047 -1.68206 -0.07084345
v -0.07533152 -1.59107601 -0.07084345
v -0.11789152 -1.48561501 -0.07084345
v 0.11589347 -1.9333179 -0.07084345
v 0.19146247 -2.05262398 -0.07084345
v 0.03581347 -2.10726404 -0.07084345
v 0.02397147 -2.01486086 -0.07084345
v -0.13494652 -2.07707691 -0.07084345
v -0.07399252 -1.94363594 -0.07084345
v 0.01543347 -1.84489703 -0.07084345
v 0.07503148 1.55920004 -0.07084345
v -0.03244552 1.49585497 -0.07084345
v -0.06653752 1.57300102 -0.07084345
v 0.01945647 1.65157997 -0.07084345
v 0.03707747 1.76036298 -0.07084345
v 0.16925248 1.69792699 -0.07084345
v -0.10667552 1.74723696 -0.07084345
v -0.15665751 1.48247599 -0.07084345
v -0.15146851 1.59390902 -0.07084345
v -0.22076152 1.67175006 -0.07084345
v -0.29275852 1.57475507 -0.07084345
v -0.16483351 1.40515005 -0.07084345
v -0.33023652 1.45882797 -0.07084345
v -0.4209015 1.69489002 -0.07084345
v -0.30476653 1.82873606 -0.07084345
v -0.48531952 1.53457903 -0.07084345
v -0.3455125 1.33640599 -0.07084345
v -0.51080155 1.37674105 -0.07084345
v -0.63787257 1.61191606 -0.07084345
v -0.54765951 1.81761205 -0.07084345
v -0.66834652 1.41667807 -0.07084345
v -0.50717949 1.22818398 -0.07084345
v -0.66612255 1.243662 -0.07084345
v -0.82306146 1.44730699 -0.07084345
v -0.78212952 1.68168997 -0.07084345
v -0.82226848 1.25326204 -0.07084345
v -0.65618455 1.08619701 -0.07084345
v -0.81200456 1.085626 -0.07084345
v -0.97709751 1.25247407 -0.07084345
v -0.97826147 1.465047 -0.07084345
v -0.96662449 1.07944202 -0.07084345
v -0.80213952 0.93069601 -0.07084345
v -0.95666456 0.92255502 -0.07084345
v -0.64674651 0.936194 -0.07084345
v -0.63817048 0.789043 -0.07084345
v -0.79296553 0.78104603 -0.07084345
v -0.94710552 0.77197003 -0.07084345
v -0.78422248 0.63349402 -0.07084345
v -0.93771147 0.62399101 -0.07084345
v -0.63023555 0.64268201 -0.07084345
v -0.62275147 0.49628502 -0.07084345
v -0.77575147 0.48659703 -0.07084345
v -0.92837655 0.476938 -0.07084345
v -0.76746749 0.33972302 -0.07084345
v -0.91905152 0.33004599 -0.07084345
v -0.61560249 0.34955701 -0.07084345
v -0.60867857 0.20244301 -0.07084345
v -0.75930154 0.19262401 -0.07084345
v -0.90971553 0.18299302 -0.07084345
v -0.75121355 0.04522401 -0.07084345
v -0.90036356 0.03567002 -0.07084345
v -0.60191452 0.05495601 -0.07084345
v -0.5952475 -0.09285497 -0.07084345
v -0.74316954 -0.10248097 -0.07084345
v -0.89099252 -0.11194497 -0.07084345
v -0.73514354 -0.25046998 -0.07084345
v -0.88160347 -0.25984597 -0.07084345
v -0.58862948 -0.24094098 -0.07084345
v -0.58201646 -0.38928198 -0.07084345
v -0.72710847 -0.39874497 -0.07084345
v -0.87219548 -0.40804398 -0.07084345
v -0.7190355 -0.54733896 -0.07084345
v -0.86276555 -0.55658799 -0.07084345
v -0.57535851 -0.53787499 -0.07084345
v -0.56859552 -0.68678599 -0.07084345
v -0.71088051 -0.69638097 -0.07084345
v -0.85330355 -0.70562899 -0.07084345
v -0.70257854 -0.84618699 -0.07084345
v -0.8437885 -0.85551798 -0.07084345
v -0.56163346 -0.83619695 -0.07084345
v -0.55433154 -0.98652303 -0.07084345
v -0.69402146 -0.99744701 -0.07084345
v -0.83416557 -1.00710701 -0.07084345
v -0.68499648 -1.15179193 -0.07084345
v -0.82431948 -1.16220295 -0.07084345
v -0.54642558 -1.13880693 -0.07084345
v -0.53742349 -1.29559302 -0.07084345
v -0.67511355 -1.312927 -0.07084345
v -0.81398248 -1.32503199 -0.07084345
v -0.66159355 -1.488855 -0.07084345
v -0.80186653 -1.50863897 -0.07084345
v -0.52436447 -1.46174192 -0.07084345
v -0.49013653 -1.63728296 -0.07084345
v -0.62398147 -1.68428802 -0.07084345
v -0.75964856 -1.72592997 -0.07084345
v -0.5384885 -1.88693296 -0.07084345
v -0.66317546 -1.95770907 -0.07084345
v -0.41526553 -1.81226897 -0.07084345
v -0.29342451 -1.969208 -0.07084345
v -0.39922252 -2.08081388 -0.07084345
v -0.50592255 -2.18435192 -0.07084345
v -0.18566252 -2.21585488 -0.07084345
v -0.25059652 -2.3763659 -0.07084345
v 0.06459047 -2.24460291 -0.07084345
v 0.14385947 -2.41452193 -0.07084345
v 0.26714447 -2.17698407 -0.07084345
v 0.35818147 -2.3128519 -0.07084345
v 0.43816646 -2.03436803 -0.07084345
v 0.54828345 -2.1246829 -0.07084345
v 0.32702946 -1.93812394 -0.07084345
v 0.42938247 -1.78676998 -0.07084345
v 0.55346453 -1.85368394 -0.07084345
v 0.21971347 -1.84454703 -0.07084345
v 0.30675849 -1.71871292 -0.07084345
v 0.11054047 -1.75794494 -0.07084345
v 0.18683847 -1.65148699 -0.07084345
v -0.09014052 -1.76485693 -0.07084345
v -0.17850352 -1.66064 -0.07084345
v -0.19296851 -1.86228895 -0.07084345
v -0.29439953 -1.73545992 -0.07084345
v -0.35922852 -1.586169 -0.07084345
v -0.23416751 -1.53409302 -0.07084345
v -0.39020252 -1.43004202 -0.07084345
v -0.25964751 -1.39702093 -0.07084345
v -0.40167653 -1.27519393 -0.07084345
v -0.26783251 -1.25454103 -0.07084345
v -0.40898951 -1.12433695 -0.07084345
v -0.2726705 -1.10983395 -0.07084345
v -0.4153065 -0.974877 -0.07084345
v -0.27689451 -0.96321892 -0.07084345
v -0.42106452 -0.82582896 -0.07084345
v -0.2807995 -0.81543296 -0.07084345
v -0.42649152 -0.67697399 -0.07084345
v -0.28450751 -0.66710895 -0.07084345
v -0.43173551 -0.52825999 -0.07084345
v -0.28809553 -0.51857495 -0.07084345
v -0.43687951 -0.37968498 -0.07084345
v -0.29162353 -0.36999699 -0.07084345
v -0.44198751 -0.23127296 -0.07084345
v -0.29513251 -0.22148099 -0.07084345
v -0.44711652 -0.08306497 -0.07084345
v -0.2986755 -0.07311298 -0.07084345
v -0.45231851 0.06488601 -0.07084345
v -0.30229651 0.07503701 -0.07084345
v -0.45765453 0.21249702 -0.07084345
v -0.3060505 0.22285102 -0.07084345
v -0.4631915 0.35965701 -0.07084345
v -0.31002453 0.370137 -0.07084345
v -0.46903652 0.50621104 -0.07084345
v -0.31429851 0.51666802 -0.07084345
v -0.47530251 0.651968 -0.07084345
v -0.31900551 0.66194903 -0.07084345
v -0.48215752 0.79672801 -0.07084345
v -0.3243215 0.80524402 -0.07084345
v -0.48981252 0.94044202 -0.07084345
v -0.33047652 0.94556999 -0.07084345
v -0.49851453 1.08370399 -0.07084345
v -0.33762651 1.08180201 -0.07084345
v -0.34426751 1.212749 -0.07084345
v -0.17649951 1.205796 -0.07084345
v -0.17291152 1.08509802 -0.07084345
v -0.17251351 1.31297898 -0.07084345
v -0.00171952 1.32080102 -0.07084345
v -0.00352052 1.21319198 -0.07084345
v -0.00877052 1.41590297 -0.07084345
v 0.13526947 1.47933602 -0.07084345
v 0.16524048 1.36535799 -0.07084345
v 0.26967048 1.58480703 -0.07084345
v 0.32620647 1.43817102 -0.07084345
v 0.39537146 1.70526301 -0.07084345
v 0.47841846 1.52392005 -0.07084345
v 0.25177449 1.84683501 -0.07084345
v 0.32545048 2.00511217 -0.07084345
v 0.51732647 1.83715105 -0.07084345
v 0.06388247 1.93201196 -0.07084345
v 0.08462747 2.09075212 -0.07084345
v -0.13735352 1.91541802 -0.07084345
v -0.16152451 2.07693195 -0.07084345
v -0.3813385 1.98102998 -0.07084345
v -0.45424053 2.12508392 -0.07084345
v -0.18767352 2.23499798 -0.07084345
v -0.66237056 1.92923796 -0.07084345
v -0.78131747 2.02958917 -0.07084345
v -0.53431451 2.25988197 -0.07084345
v -0.92724251 1.74013197 -0.07084345
v -0.21957552 2.3884499 -0.07084345
v 0.06770047 2.41452193 -0.07084345
v 0.09988047 2.24985694 -0.07084345
v 0.46314847 2.29685998 -0.07084345
v 0.39154848 2.15233492 -0.07084345
v 0.74651742 2.06972789 -0.07084345
v 0.62922143 1.95908105 -0.07084345
v 0.9209795 1.76255106 -0.07084345
v 0.77637648 1.69602 -0.07084345
v 0.97826147 1.42326307 -0.07084345
v 0.82323551 1.40570998 -0.07084345
v 0.97107648 1.17374002 -0.07084345
v 0.81582343 1.17566597 -0.07084345
v 0.95910143 0.98343902 -0.07084345
v 0.80387747 0.98939204 -0.07084345
v 0.94841742 0.81365203 -0.07084345
v 0.79357552 0.82119303 -0.07084345
v 0.93831443 0.653104 -0.07084345
v 0.78417646 0.66156303 -0.07084345
v 0.92852652 0.49755403 -0.07084345
v 0.77533447 0.50646001 -0.07084345
v 0.91890943 0.34471502 -0.07084345
v 0.76684248 0.35384902 -0.07084345
v 0.90939343 0.19348502 -0.07084345
v 0.75857746 0.20271202 -0.07084345
v 0.89993953 0.04324502 -0.07084345
v 0.75046253 0.05248701 -0.07084345
v 0.89052343 -0.10639798 -0.07084345
v 0.74243748 -0.09717898 -0.07084345
v 0.8811295 -0.25567498 -0.07084345
v 0.73446047 -0.24649998 -0.07084345
v 0.87174952 -0.40474799 -0.07084345
v 0.72650349 -0.39562198 -0.07084345
v 0.86237144 -0.55377095 -0.07084345
v 0.7185285 -0.544685 -0.07084345
v 0.85298442 -0.70294696 -0.07084345
v 0.71049344 -0.693861 -0.07084345
v 0.84356653 -0.852629 -0.07084345
v 0.70234942 -0.84346395 -0.07084345
v 0.83406746 -1.00357198 -0.07084345
v 0.69400453 -0.99412393 -0.07084345
v 0.82438445 -1.157462 -0.07084345
v 0.68529152 -1.1473 -0.07084345
v 0.81427252 -1.31816303 -0.07084345
v 0.67578148 -1.30627799 -0.07084345
v 0.80153453 -1.49619102 -0.07084345
v 0.66212153 -1.47710895 -0.07084345
v 0.76347053 -1.70317196 -0.07084345
v 0.62900149 -1.66396796 -0.07084345
v 0.68109142 -1.91951799 -0.07084345
v 0.49538949 -1.62060296 -0.07084345
v 0.52523851 -1.45149302 -0.07084345
v 0.36397847 -1.57412493 -0.07084345
v 0.39102447 -1.42222392 -0.07084345
v 0.23659147 -1.52741503 -0.07084345
v 0.25941446 -1.39244294 -0.07084345
v 0.13019548 -1.36572301 -0.07084345
v 0.13407348 -1.23522996 -0.07084345
v 0.26770547 -1.25166595 -0.07084345
v -0.00190752 -1.35064494 -0.07084345
v -0.00066652 -1.22633302 -0.07084345
v -0.13241952 -1.36779797 -0.07084345
v -0.13518652 -1.23638594 -0.07084345
v -0.13675952 -1.09673094 -0.07084345
v -0.00041252 -1.08896601 -0.07084345
v -0.13866552 -0.95224297 -0.07084345
v -0.00037552 -0.94516396 -0.07084345
v -0.14058552 -0.805332 -0.07084345
v -0.00039052 -0.79870599 -0.07084345
v -0.14246651 -0.65734899 -0.07084345
v -0.00044952 -0.65082395 -0.07084345
v -0.14431051 -0.50890898 -0.07084345
v -0.00053952 -0.50228595 -0.07084345
v -0.14615252 -0.36025697 -0.07084345
v -0.00064152 -0.35367298 -0.07084345
v -0.14797352 -0.21158596 -0.07084345
v -0.00076352 -0.20478299 -0.07084345
v -0.14983251 -0.06301598 -0.07084345
v -0.00090952 -0.05593998 -0.07084345
v -0.15177352 0.08541201 -0.07084345
v -0.00106552 0.09286002 -0.07084345
v -0.15377752 0.23355801 -0.07084345
v -0.00125452 0.24146102 -0.07084345
v -0.15597152 0.38110101 -0.07084345
v -0.00146152 0.389968 -0.07084345
v -0.15845452 0.52793598 -0.07084345
v -0.00169352 0.53717005 -0.07084345
v -0.16110351 0.67323499 -0.07084345
v -0.00199452 0.683052 -0.07084345
v -0.16426052 0.81586903 -0.07084345
v -0.00233052 0.82654899 -0.07084345
v -0.16819651 0.95399004 -0.07084345
v -0.00278752 0.96542304 -0.07084345
v -0.00363852 1.09535801 -0.07084345
v 0.16783447 1.10641801 -0.07084345
v 0.16364048 0.96889799 -0.07084345
v 0.17036348 1.23808598 -0.07084345
v 0.34056249 1.27948796 -0.07084345
v 0.33616447 1.124704 -0.07084345
v 0.50449442 1.32877898 -0.07084345
v 0.49959448 1.14671897 -0.07084345
v 0.66273546 1.37417697 -0.07084345
v 0.65890145 1.16541206 -0.07084345
v 0.62560749 1.611588 -0.07084345
v 0.6474775 0.98831003 -0.07084345
v 0.48916149 0.982472 -0.07084345
v 0.63787746 0.82489001 -0.07084345
v 0.48074346 0.82587701 -0.07084345
v 0.32798749 0.97480899 -0.07084345
v 0.32159647 0.82571899 -0.07084345
v 0.47359147 0.67247504 -0.07084345
v 0.31635546 0.67642003 -0.07084345
v 0.16026948 0.82630002 -0.07084345
v 0.15759447 0.68061101 -0.07084345
v 0.31183049 0.52691602 -0.07084345
v 0.15536747 0.533149 -0.07084345
v 0.46727547 0.52075004 -0.07084345
v 0.46149048 0.36998203 -0.07084345
v 0.30778947 0.37741601 -0.07084345
v 0.15329948 0.384779 -0.07084345
v 0.30406346 0.22802202 -0.07084345
v 0.15146148 0.23615002 -0.07084345
v 0.45606449 0.21985401 -0.07084345
v 0.45088148 0.07016001 -0.07084345
v 0.30054748 0.07872702 -0.07084345
v 0.14977048 0.08724202 -0.07084345
v 0.29715746 -0.07045498 -0.07084345
v 0.14812548 -0.06171998 -0.07084345
v 0.44584047 -0.07924297 -0.07084345
v 0.44087848 -0.22843897 -0.07084345
v 0.29382649 -0.21952599 -0.07084345
v 0.14652048 -0.21065399 -0.07084345
v 0.29051849 -0.36849498 -0.07084345
v 0.14493048 -0.35956499 -0.07084345
v 0.43592846 -0.37748497 -0.07084345
v 0.43094846 -0.52641296 -0.07084345
v 0.28717547 -0.51733195 -0.07084345
v 0.14328947 -0.508358 -0.07084345
v 0.28374949 -0.66595596 -0.07084345
v 0.14160448 -0.656856 -0.07084345
v 0.42587947 -0.67523998 -0.07084345
v 0.42063948 -0.823973 -0.07084345
v 0.28020048 -0.814206 -0.07084345
v 0.13985148 -0.804816 -0.07084345
v 0.27645048 -0.96173393 -0.07084345
v 0.13800248 -0.95161593 -0.07084345
v 0.41510647 -0.97263193 -0.07084345
v 0.40912148 -1.12131202 -0.07084345
v 0.27239748 -1.107867 -0.07084345
v 0.13605047 -1.09590697 -0.07084345
v 0.55429351 -0.98363792 -0.07084345
v 0.54676151 -1.13490593 -0.07084345
v 0.56134045 -0.83382999 -0.07084345
v 0.56811046 -0.68458998 -0.07084345
v 0.5747205 -0.53554999 -0.07084345
v 0.58124053 -0.38652998 -0.07084345
v 0.58772945 -0.23742497 -0.07084345
v 0.5942415 -0.08813798 -0.07084345
v 0.60081946 0.06143901 -0.07084345
v 0.60752642 0.21146701 -0.07084345
v 0.61444842 0.36221 -0.07084345
v 0.62169051 0.51408004 -0.07084345
v 0.62941551 0.667822 -0.07084345
v 0.53822743 -1.28966403 -0.07084345
v 0.40213948 -1.27070403 -0.07084345
v -0.82306146 1.44730699 0.0861535
v -0.97826147 1.465047 0.0861535
v -0.97709751 1.25247407 0.0861535
v -0.82226848 1.25326204 0.0861535
v -0.96662449 1.07944202 0.0861535
v -0.81200456 1.085626 0.0861535
v -0.95666456 0.92255502 0.0861535
v -0.80213952 0.93069601 0.0861535
v -0.94710552 0.77197003 0.0861535
v -0.79296553 0.78104603 0.0861535
v -0.93771147 0.62399101 0.0861535
v -0.78422248 0.63349402 0.0861535
v -0.92837655 0.476938 0.0861535
v -0.77575147 0.48659703 0.0861535
v -0.91905152 0.33004599 0.0861535
v -0.76746749 0.33972302 0.0861535
v -0.90971553 0.18299302 0.0861535
v -0.75930154 0.19262401 0.0861535
v -0.90036356 0.03567002 0.0861535
v -0.75121355 0.04522401 0.0861535
v -0.89099252 -0.11194497 0.0861535
v -0.74316954 -0.10248097 0.0861535
v -0.88160347 -0.25984597 0.0861535
v -0.73514354 -0.25046998 0.0861535
v -0.87219548 -0.40804398 0.0861535
v -0.72710847 -0.39874497 0.0861535
v -0.86276555 -0.55658799 0.0861535
v -0.7190355 -0.54733896 0.0861535
v -0.85330355 -0.70562899 0.0861535
v -0.71088051 -0.69638097 0.0861535
v -0.8437885 -0.85551798 0.0861535
v -0.70257854 -0.84618699 0.0861535
v -0.83416557 -1.00710701 0.0861535
v -0.69402146 -0.99744701 0.0861535
v -0.82431948 -1.16220295 0.0861535
v -0.68499648 -1.15179193 0.0861535
v -0.81398248 -1.32503199 0.0861535
v -0.67511355 -1.312927 0.0861535
v -0.80186653 -1.50863897 0.0861535
v -0.66159355 -1.488855 0.0861535
v -0.75964856 -1.72592997 0.0861535
v -0.62398147 -1.68428802 0.0861535
v -0.66317546 -1.95770907 0.0861535
v -0.5384885 -1.88693296 0.0861535
v -0.50592255 -2.18435192 0.0861535
v -0.39922252 -2.08081388 0.0861535
v -0.25059652 -2.3763659 0.0861535
v -0.18566252 -2.21585488 0.0861535
v 0.14385947 -2.41452193 0.0861535
v 0.06459047 -2.24460291 0.0861535
v 0.35818147 -2.3128519 0.0861535
v 0.26714447 -2.17698407 0.0861535
v 0.54828345 -2.1246829 0.0861535
v 0.43816646 -2.03436803 0.0861535
v -0.45424053 2.12508392 0.0861535
v -0.53431451 2.25988292 0.0861535
v -0.78131747 2.02958917 0.0861535
v -0.66237056 1.92923796 0.0861535
v -0.92724251 1.74013197 0.0861535
v -0.78212952 1.68168997 0.0861535
v -0.18767352 2.23499894 0.0861535
v -0.21957552 2.38845109 0.0861535
v 0.09988047 2.24985694 0.0861535
v 0.06770047 2.41452193 0.0861535
v 0.39154848 2.15233492 0.0861535
v 0.46314847 2.29686093 0.0861535
v 0.62922143 1.95908105 0.0861535
v 0.74651742 2.06972789 0.0861535
v 0.77637648 1.69602 0.0861535
v 0.9209795 1.76255106 0.0861535
v 0.82323551 1.40570998 0.0861535
v 0.97826147 1.42326307 0.0861535
v 0.81582343 1.17566597 0.0861535
v 0.97107648 1.17374002 0.0861535
v 0.80387747 0.98939204 0.0861535
v 0.95910143 0.98343902 0.0861535
v 0.79357552 0.82119303 0.0861535
v 0.94841742 0.81365203 0.0861535
v 0.78417646 0.66156303 0.0861535
v 0.93831443 0.653104 0.0861535
v 0.77533447 0.50646001 0.0861535
v 0.92852652 0.49755403 0.0861535
v 0.76684248 0.35384902 0.0861535
v 0.91890943 0.34471502 0.0861535
v 0.75857746 0.20271202 0.0861535
v 0.90939343 0.19348502 0.0861535
v 0.75046253 0.05248701 0.0861535
v 0.89993953 0.04324502 0.0861535
v 0.74243748 -0.09717898 0.0861535
v 0.89052343 -0.10639798 0.0861535
v 0.73446047 -0.24649998 0.0861535
v 0.8811295 -0.25567498 0.0861535
v 0.72650349 -0.39562198 0.0861535
v 0.87174952 -0.40474799 0.0861535
v 0.7185285 -0.544685 0.0861535
v 0.86237144 -0.55377095 0.0861535
v 0.71049344 -0.693861 0.0861535
v 0.85298442 -0.70294696 0.0861535
v 0.70234942 -0.84346395 0.0861535
v 0.84356653 -0.852629 0.0861535
v 0.69400453 -0.99412393 0.0861535
v 0.83406746 -1.00357198 0.0861535
v 0.68529152 -1.1473 0.0861535
v 0.82438445 -1.157462 0.0861535
v 0.67578148 -1.30627799 0.0861535
v 0.81427252 -1.31816303 0.0861535
v 0.66212153 -1.47710895 0.0861535
v 0.80153453 -1.49619102 0.0861535
v 0.62900149 -1.66396796 0.0861535
v 0.76347148 -1.70317196 0.0861535
v 0.55346453 -1.85368394 0.0861535
v 0.68109142 -1.91951799 0.0861535
v -0.97709751 1.25247407 -0.0861535
v -0.97826147 1.465047 -0.0861535
v -0.82306146 1.44730699 -0.0861535
v -0.82226848 1.25326204 -0.0861535
v -0.81200456 1.085626 -0.0861535
v -0.96662449 1.07944202 -0.0861535
v -0.80213952 0.93069601 -0.0861535
v -0.95666456 0.92255502 -0.0861535
v -0.79296553 0.78104603 -0.0861535
v -0.94710552 0.77197003 -0.0861535
v -0.78422248 0.63349402 -0.0861535
v -0.93771147 0.62399101 -0.0861535
v -0.77575147 0.48659703 -0.0861535
v -0.92837655 0.476938 -0.0861535
v -0.76746749 0.33972302 -0.0861535
v -0.91905152 0.33004599 -0.0861535
v -0.75930154 0.19262401 -0.0861535
v -0.90971553 0.18299302 -0.0861535
v -0.75121355 0.04522401 -0.0861535
v -0.90036356 0.03567002 -0.0861535
v -0.74316954 -0.10248097 -0.0861535
v -0.89099252 -0.11194497 -0.0861535
v -0.73514354 -0.25046998 -0.0861535
v -0.88160347 -0.25984597 -0.0861535
v -0.72710847 -0.39874497 -0.0861535
v -0.87219548 -0.40804398 -0.0861535
v -0.7190355 -0.54733896 -0.0861535
v -0.86276555 -0.55658799 -0.0861535
v -0.71088051 -0.69638097 -0.0861535
v -0.85330355 -0.70562899 -0.0861535
v -0.70257854 -0.84618699 -0.0861535
v -0.8437885 -0.85551798 -0.0861535
v -0.69402146 -0.99744701 -0.0861535
v -0.83416557 -1.00710701 -0.0861535
v -0.68499648 -1.15179193 -0.0861535
v -0.82431948 -1.16220295 -0.0861535
v -0.67511355 -1.312927 -0.0861535
v -0.81398248 -1.32503199 -0.0861535
v -0.66159355 -1.488855 -0.0861535
v -0.80186653 -1.50863897 -0.0861535
v -0.62398147 -1.68428802 -0.0861535
v -0.75964856 -1.72592997 -0.0861535
v -0.5384885 -1.88693296 -0.0861535
v -0.66317546 -1.95770907 -0.0861535
v -0.39922252 -2.08081388 -0.0861535
v -0.50592255 -2.18435192 -0.0861535
v -0.18566252 -2.21585488 -0.0861535
v -0.25059652 -2.3763659 -0.0861535
v 0.06459047 -2.24460291 -0.0861535
v 0.14385947 -2.41452193 -0.0861535
v 0.26714447 -2.17698407 -0.0861535
v 0.35818147 -2.3128519 -0.0861535
v 0.43816646 -2.03436803 -0.0861535
v 0.54828345 -2.1246829 -0.0861535
v -0.78131747 2.02958917 -0.0861535
v -0.53431451 2.25988197 -0.0861535
v -0.45424053 2.12508392 -0.0861535
v -0.66237056 1.92923796 -0.0861535
v -0.78212952 1.68168997 -0.0861535
v -0.92724251 1.74013197 -0.0861535
v -0.21957552 2.3884499 -0.0861535
v -0.18767352 2.23499798 -0.0861535
v 0.06770047 2.41452193 -0.0861535
v 0.09988047 2.24985694 -0.0861535
v 0.46314847 2.29685998 -0.0861535
v 0.39154848 2.15233492 -0.0861535
v 0.74651742 2.06972789 -0.0861535
v 0.62922143 1.95908105 -0.0861535
v 0.9209795 1.76255106 -0.0861535
v 0.77637648 1.69602 -0.0861535
v 0.97826147 1.42326307 -0.0861535
v 0.82323551 1.40570998 -0.0861535
v 0.97107648 1.17374002 -0.0861535
v 0.81582343 1.17566597 -0.0861535
v 0.95910143 0.98343902 -0.0861535
v 0.80387747 0.98939204 -0.0861535
v 0.94841742 0.81365203 -0.0861535
v 0.79357552 0.82119303 -0.0861535
v 0.93831443 0.653104 -0.0861535
v 0.78417646 0.66156303 -0.0861535
v 0.92852652 0.49755403 -0.0861535
v 0.77533447 0.50646001 -0.0861535
v 0.91890943 0.34471502 -0.0861535
v 0.76684248 0.35384902 -0.0861535
v 0.90939343 0.19348502 -0.0861535
v 0.75857746 0.20271202 -0.0861535
v 0.89993953 0.04324502 -0.0861535
v 0.75046253 0.05248701 -0.0861535
v 0.89052343 -0.10639798 -0.0861535
v 0.74243748 -0.09717898 -0.0861535
v 0.8811295 -0.25567498 -0.0861535
v 0.73446047 -0.24649998 -0.0861535
v 0.87174952 -0.40474799 -0.0861535
v 0.72650349 -0.39562198 -0.0861535
v 0.86237144 -0.55377095 -0.0861535
v 0.7185285 -0.544685 -0.0861535
v 0.85298442 -0.70294696 -0.0861535
v 0.71049344 -0.693861 -0.0861535
v 0.84356653 -0.852629 -0.0861535
v 0.70234942 -0.84346395 -0.0861535
v 0.83406746 -1.00357198 -0.0861535
v 0.69400453 -0.99412393 -0.0861535
v 0.82438445 -1.157462 -0.0861535
v 0.68529152 -1.1473 -0.0861535
v 0.81427252 -1.31816303 -0.0861535
v 0.67578148 -1.30627799 -0.0861535
v 0.80153453 -1.49619102 -0.0861535
v 0.66212153 -1.47710895 -0.0861535
v 0.76347053 -1.70317196 -0.0861535
v 0.62900149 -1.66396796 -0.0861535
v 0.68109142 -1.91951799 -0.0861535
v 0.55346453 -1.85368394 -0.0861535
g Group16141
f 358 357 356 355
g Group65433
f 1 7 6 5
g Group16141
f 358 360 359 357
g Group65433
f 1 5 9 8
g Group16141
f 358 355 361 360
g Group65433
f 1 8 10 7
g Group16141
f 365 364 363 362
g Group65433
f 2 13 12 11
g Group16141
f 365 367 366 364
g Group65433
f 2 11 15 14
g Group16141
f 365 362 368 367
g Group65433
f 2 14 16 13
g Group16141
f 372 371 370 369
g Group65433
f 3 19 18 17
g Group16141
f 372 369 374 373
g Group65433
f 3 21 20 19
g Group16141
f 372 373 375 371
g Group65433
f 3 17 22 21
g Group16141
f 377 376 370 371
g Group65433
f 4 17 18 23
g Group16141
f 377 371 375 378
g Group65433
f 4 24 22 17
g Group16141
f 377 378 379 376
g Group65433
f 4 23 25 24
g Group16141
f 379 381 380 376
g Group65433
f 25 23 27 26
g Group16141
f 379 378 383 382
g Group65433
f 25 29 28 24
g Group16141
f 379 382 384 381
g Group65433
f 25 26 30 29
g Group16141
f 384 386 385 381
g Group65433
f 30 26 32 31
g Group16141
f 384 382 388 387
g Group65433
f 30 34 33 29
g Group16141
f 384 387 389 386
g Group65433
f 30 31 35 34
g Group16141
f 389 391 390 386
g Group65433
f 35 31 37 36
g Group16141
f 389 387 393 392
g Group65433
f 35 39 38 34
g Group16141
f 389 392 394 391
g Group65433
f 35 36 40 39
g Group16141
f 394 396 395 391
g Group65433
f 40 36 42 41
g Group16144
f 43 44 397 398
f 44 45 399 397
f 45 46 401 399
g Group16141
f 400 404 403 402
g Group65433
f 47 50 49 48
g Group16141
f 400 402 395 396
g Group65433
f 47 41 42 50
g Group16144
f 46 51 405 401
f 51 52 407 405
g Group16141
f 406 410 409 408
g Group65433
f 53 56 55 54
g Group16141
f 406 408 403 404
g Group65433
f 53 48 49 56
g Group16144
f 52 57 411 407
f 57 58 413 411
g Group16141
f 412 416 415 414
g Group65433
f 59 62 61 60
g Group16141
f 412 414 409 410
g Group65433
f 59 54 55 62
g Group16144
f 58 63 417 413
f 63 64 419 417
g Group16141
f 418 422 421 420
g Group65433
f 65 68 67 66
g Group16141
f 418 420 415 416
g Group65433
f 65 60 61 68
g Group16144
f 64 69 423 419
f 69 70 425 423
g Group16141
f 424 428 427 426
g Group65433
f 71 74 73 72
g Group16141
f 424 426 421 422
g Group65433
f 71 66 67 74
g Group16144
f 70 75 429 425
f 75 76 431 429
g Group16141
f 430 434 433 432
g Group65433
f 77 80 79 78
g Group16141
f 430 432 427 428
g Group65433
f 77 72 73 80
g Group16144
f 76 81 435 431
f 81 82 437 435
g Group16141
f 436 440 439 438
g Group65433
f 83 86 85 84
g Group16141
f 436 438 433 434
g Group65433
f 83 78 79 86
g Group16144
f 82 87 441 437
f 87 88 443 441
g Group16141
f 442 446 445 444
g Group65433
f 89 92 91 90
g Group16141
f 442 444 439 440
g Group65433
f 89 84 85 92
g Group16144
f 88 93 447 443
f 93 94 449 447
g Group16141
f 448 452 451 450
g Group65433
f 95 98 97 96
g Group16141
f 448 450 445 446
g Group65433
f 95 90 91 98
g Group16144
f 94 99 453 449
f 99 100 455 453
g Group16141
f 454 458 457 456
g Group65433
f 101 104 103 102
g Group16141
f 454 456 451 452
g Group65433
f 101 96 97 104
g Group16144
f 100 105 459 455
f 105 106 461 459
g Group16141
f 460 462 364 366
g Group65433
f 107 15 11 108
g Group16141
f 460 366 457 458
g Group65433
f 107 102 103 15
g Group16144
f 106 109 463 461
f 109 110 465 463
f 110 112 467 465
g Group16141
f 464 466 468 363
g Group65433
f 111 12 114 113
g Group16141
f 464 363 364 462
g Group65433
f 111 108 11 12
g Group16141
f 468 466 470 469
g Group65433
f 114 116 115 113
g Group16141
f 468 469 472 471
g Group65433
f 114 118 117 116
g Group16141
f 468 471 362 363
g Group65433
f 114 12 13 118
g Group16141
f 471 472 474 473
g Group65433
f 118 120 119 117
g Group16141
f 471 473 368 362
g Group65433
f 118 13 16 120
g Group16141
f 473 474 357 359
g Group65433
f 120 9 5 119
g Group16141
f 473 359 475 368
g Group65433
f 120 16 121 9
g Group16141
f 475 359 360 476
g Group65433
f 121 122 8 9
g Group16141
f 475 476 478 477
g Group65433
f 121 124 123 122
g Group16141
f 475 477 367 368
g Group65433
f 121 16 14 124
g Group16141
f 477 478 456 457
g Group65433
f 124 103 104 123
g Group16141
f 477 457 366 367
g Group65433
f 124 14 15 103
g Group16141
f 478 476 480 479
g Group65433
f 123 126 125 122
g Group16141
f 478 479 451 456
g Group65433
f 123 104 97 126
g Group16141
f 479 480 482 481
g Group65433
f 126 128 127 125
g Group16141
f 479 481 450 451
g Group65433
f 126 97 98 128
g Group16141
f 481 482 484 483
g Group65433
f 128 130 129 127
g Group16141
f 481 483 445 450
g Group65433
f 128 98 91 130
g Group16141
f 483 484 486 485
g Group65433
f 130 132 131 129
g Group16141
f 483 485 444 445
g Group65433
f 130 91 92 132
g Group16141
f 485 486 488 487
g Group65433
f 132 134 133 131
g Group16141
f 485 487 439 444
g Group65433
f 132 92 85 134
g Group16141
f 487 488 490 489
g Group65433
f 134 136 135 133
g Group16141
f 487 489 438 439
g Group65433
f 134 85 86 136
g Group16141
f 489 490 492 491
g Group65433
f 136 138 137 135
g Group16141
f 489 491 433 438
g Group65433
f 136 86 79 138
g Group16141
f 491 492 494 493
g Group65433
f 138 140 139 137
g Group16141
f 491 493 432 433
g Group65433
f 138 79 80 140
g Group16141
f 493 494 496 495
g Group65433
f 140 142 141 139
g Group16141
f 493 495 427 432
g Group65433
f 140 80 73 142
g Group16141
f 495 496 498 497
g Group65433
f 142 144 143 141
g Group16141
f 495 497 426 427
g Group65433
f 142 73 74 144
g Group16141
f 497 498 500 499
g Group65433
f 144 146 145 143
g Group16141
f 497 499 421 426
g Group65433
f 144 74 67 146
g Group16141
f 499 500 502 501
g Group65433
f 146 148 147 145
g Group16141
f 499 501 420 421
g Group65433
f 146 67 68 148
g Group16141
f 501 502 504 503
g Group65433
f 148 150 149 147
g Group16141
f 501 503 415 420
g Group65433
f 148 68 61 150
g Group16141
f 503 504 506 505
g Group65433
f 150 152 151 149
g Group16141
f 503 505 414 415
g Group65433
f 150 61 62 152
g Group16141
f 505 506 508 507
g Group65433
f 152 154 153 151
g Group16141
f 505 507 409 414
g Group65433
f 152 62 55 154
g Group16141
f 507 508 510 509
g Group65433
f 154 156 155 153
g Group16141
f 507 509 408 409
g Group65433
f 154 55 56 156
g Group16141
f 509 510 512 511
g Group65433
f 156 158 157 155
g Group16141
f 509 511 403 408
g Group65433
f 156 56 49 158
g Group16141
f 511 512 514 513
g Group65433
f 158 160 159 157
g Group16141
f 511 513 402 403
g Group65433
f 158 49 50 160
g Group16141
f 513 514 516 515
g Group65433
f 160 162 161 159
g Group16141
f 513 515 395 402
g Group65433
f 160 50 42 162
g Group16141
f 515 516 517 390
g Group65433
f 162 37 163 161
g Group16141
f 515 390 391 395
g Group65433
f 162 42 36 37
g Group16141
f 517 516 519 518
g Group65433
f 163 165 164 161
g Group16141
f 517 518 520 385
g Group65433
f 163 32 166 165
g Group16141
f 517 385 386 390
g Group65433
f 163 37 31 32
g Group16141
f 520 518 522 521
g Group65433
f 166 168 167 165
g Group16141
f 520 521 523 380
g Group65433
f 166 27 169 168
g Group16141
f 520 380 381 385
g Group65433
f 166 32 26 27
g Group16141
f 523 521 525 524
g Group65433
f 169 171 170 168
g Group16141
f 523 524 369 370
g Group65433
f 169 18 19 171
g Group16141
f 523 370 376 380
g Group65433
f 169 27 23 18
g Group16141
f 524 525 527 526
g Group65433
f 171 173 172 170
g Group16141
f 524 526 374 369
g Group65433
f 171 19 20 173
g Group16141
f 526 527 529 528
g Group65433
f 173 175 174 172
g Group16141
f 526 528 530 374
g Group65433
f 173 20 176 175
g Group16141
f 530 528 532 531
g Group65433
f 176 178 177 175
g Group16141
f 530 531 534 533
g Group65433
f 176 180 179 178
g Group16141
f 530 533 373 374
g Group65433
f 176 20 21 180
g Group16141
f 533 534 536 535
g Group65433
f 180 182 181 179
g Group16141
f 533 535 375 373
g Group65433
f 180 21 22 182
g Group16141
f 535 383 378 375
g Group65433
f 182 22 24 28
g Group16141
f 535 536 537 383
g Group65433
f 182 28 183 181
g Group16141
f 537 388 382 383
g Group65433
f 183 28 29 33
g Group16141
f 537 536 539 538
g Group65433
f 183 185 184 181
g Group16141
f 537 538 540 388
g Group65433
f 183 33 186 185
g Group16141
f 540 393 387 388
g Group65433
f 186 33 34 38
g Group16144
f 187 188 541 542
f 188 189 543 541
f 189 43 398 543
f 190 187 542 544
f 192 190 544 545
f 194 192 545 547
f 196 194 547 549
f 198 196 549 551
f 200 198 551 553
f 202 200 553 555
f 204 202 555 557
f 206 204 557 559
f 208 206 559 561
f 210 208 561 563
f 212 210 563 565
f 214 212 565 567
f 216 214 567 569
f 218 216 569 571
f 220 218 571 573
f 222 220 573 575
f 224 222 575 577
f 226 224 577 579
f 228 226 579 581
f 230 228 581 583
f 232 230 583 585
f 234 232 585 587
f 236 234 587 589
f 238 236 589 591
f 239 238 591 593
f 112 239 593 467
g Group16141
f 592 590 595 594
g Group65433
f 237 241 240 235
g Group16141
f 592 594 469 470
g Group65433
f 237 115 116 241
g Group16141
f 594 595 597 596
g Group65433
f 241 243 242 240
g Group16141
f 594 596 472 469
g Group65433
f 241 116 117 243
g Group16141
f 596 597 599 598
g Group65433
f 243 245 244 242
g Group16141
f 596 598 474 472
g Group65433
f 243 117 119 245
g Group16141
f 598 599 600 356
g Group65433
f 245 6 246 244
g Group16141
f 598 356 357 474
g Group65433
f 245 119 5 6
g Group16141
f 600 599 602 601
g Group65433
f 246 248 247 244
g Group16141
f 600 601 604 603
g Group65433
f 246 250 249 248
g Group16141
f 600 603 355 356
g Group65433
f 246 6 7 250
g Group16141
f 603 604 606 605
g Group65433
f 250 252 251 249
g Group16141
f 603 605 361 355
g Group65433
f 250 7 10 252
g Group16141
f 605 606 484 482
g Group65433
f 252 127 129 251
g Group16141
f 605 482 480 361
g Group65433
f 252 10 125 127
g Group16141
f 606 604 608 607
g Group65433
f 251 254 253 249
g Group16141
f 606 607 486 484
g Group65433
f 251 129 131 254
g Group16141
f 607 608 610 609
g Group65433
f 254 256 255 253
g Group16141
f 607 609 488 486
g Group65433
f 254 131 133 256
g Group16141
f 609 610 612 611
g Group65433
f 256 258 257 255
g Group16141
f 609 611 490 488
g Group65433
f 256 133 135 258
g Group16141
f 611 612 614 613
g Group65433
f 258 260 259 257
g Group16141
f 611 613 492 490
g Group65433
f 258 135 137 260
g Group16141
f 613 614 616 615
g Group65433
f 260 262 261 259
g Group16141
f 613 615 494 492
g Group65433
f 260 137 139 262
g Group16141
f 615 616 618 617
g Group65433
f 262 264 263 261
g Group16141
f 615 617 496 494
g Group65433
f 262 139 141 264
g Group16141
f 617 618 620 619
g Group65433
f 264 266 265 263
g Group16141
f 617 619 498 496
g Group65433
f 264 141 143 266
g Group16141
f 619 620 622 621
g Group65433
f 266 268 267 265
g Group16141
f 619 621 500 498
g Group65433
f 266 143 145 268
g Group16141
f 621 622 624 623
g Group65433
f 268 270 269 267
g Group16141
f 621 623 502 500
g Group65433
f 268 145 147 270
g Group16141
f 623 624 626 625
g Group65433
f 270 272 271 269
g Group16141
f 623 625 504 502
g Group65433
f 270 147 149 272
g Group16141
f 625 626 628 627
g Group65433
f 272 274 273 271
g Group16141
f 625 627 506 504
g Group65433
f 272 149 151 274
g Group16141
f 627 628 630 629
g Group65433
f 274 276 275 273
g Group16141
f 627 629 508 506
g Group65433
f 274 151 153 276
g Group16141
f 629 630 632 631
g Group65433
f 276 278 277 275
g Group16141
f 629 631 510 508
g Group65433
f 276 153 155 278
g Group16141
f 631 632 634 633
g Group65433
f 278 280 279 277
g Group16141
f 631 633 512 510
g Group65433
f 278 155 157 280
g Group16141
f 633 634 636 635
g Group65433
f 280 282 281 279
g Group16141
f 633 635 514 512
g Group65433
f 280 157 159 282
g Group16141
f 635 636 637 519
g Group65433
f 282 164 283 281
g Group16141
f 635 519 516 514
g Group65433
f 282 159 161 164
g Group16141
f 637 636 639 638
g Group65433
f 283 285 284 281
g Group16141
f 637 638 640 522
g Group65433
f 283 167 286 285
g Group16141
f 637 522 518 519
g Group65433
f 283 164 165 167
g Group16141
f 640 638 642 641
g Group65433
f 286 288 287 285
g Group16141
f 640 641 527 525
g Group65433
f 286 170 172 288
g Group16141
f 640 525 521 522
g Group65433
f 286 167 168 170
g Group16141
f 641 642 644 643
g Group65433
f 288 290 289 287
g Group16141
f 641 643 529 527
g Group65433
f 288 172 174 290
g Group16141
f 643 644 646 645
g Group65433
f 290 292 291 289
g Group16141
f 643 645 647 529
g Group65433
f 290 174 293 292
g Group16141
f 647 645 554 552
g Group65433
f 293 197 199 292
g Group16141
f 647 552 550 532
g Group65433
f 293 177 195 197
g Group16141
f 647 532 528 529
g Group65433
f 293 174 175 177
g Group16141
f 645 646 556 554
g Group65433
f 292 199 201 291
g Group16141
f 646 648 558 556
g Group65433
f 291 201 203 294
g Group16141
f 646 644 649 648
g Group65433
f 291 294 295 289
g Group16141
f 649 651 650 648
g Group65433
f 295 294 297 296
g Group16141
f 649 644 642 652
g Group65433
f 295 298 287 289
g Group16141
f 649 652 653 651
g Group65433
f 295 296 299 298
g Group16141
f 653 655 654 651
g Group65433
f 299 296 301 300
g Group16141
f 653 652 639 656
g Group65433
f 299 302 284 298
g Group16141
f 653 656 657 655
g Group65433
f 299 300 303 302
g Group16141
f 657 659 658 655
g Group65433
f 303 300 305 304
g Group16141
f 657 656 634 632
g Group65433
f 303 277 279 302
g Group16141
f 657 632 630 659
g Group65433
f 303 304 275 277
g Group16141
f 658 662 661 660
g Group65433
f 305 308 307 306
g Group16141
f 658 660 654 655
g Group65433
f 305 300 301 308
g Group16141
f 658 659 663 662
g Group65433
f 305 306 309 304
g Group16141
f 663 665 664 662
g Group65433
f 309 306 311 310
g Group16141
f 663 659 630 628
g Group65433
f 309 273 275 304
g Group16141
f 663 628 626 665
g Group65433
f 309 310 271 273
g Group16141
f 664 668 667 666
g Group65433
f 311 314 313 312
g Group16141
f 664 666 661 662
g Group65433
f 311 306 307 314
g Group16141
f 664 665 669 668
g Group65433
f 311 312 315 310
g Group16141
f 669 671 670 668
g Group65433
f 315 312 317 316
g Group16141
f 669 665 626 624
g Group65433
f 315 269 271 310
g Group16141
f 669 624 622 671
g Group65433
f 315 316 267 269
g Group16141
f 670 674 673 672
g Group65433
f 317 320 319 318
g Group16141
f 670 672 667 668
g Group65433
f 317 312 313 320
g Group16141
f 670 671 675 674
g Group65433
f 317 318 321 316
g Group16141
f 675 677 676 674
g Group65433
f 321 318 323 322
g Group16141
f 675 671 622 620
g Group65433
f 321 265 267 316
g Group16141
f 675 620 618 677
g Group65433
f 321 322 263 265
g Group16141
f 676 680 679 678
g Group65433
f 323 326 325 324
g Group16141
f 676 678 673 674
g Group65433
f 323 318 319 326
g Group16141
f 676 677 681 680
g Group65433
f 323 324 327 322
g Group16141
f 681 683 682 680
g Group65433
f 327 324 329 328
g Group16141
f 681 677 618 616
g Group65433
f 327 261 263 322
g Group16141
f 681 616 614 683
g Group65433
f 327 328 259 261
g Group16141
f 682 686 685 684
g Group65433
f 329 332 331 330
g Group16141
f 682 684 679 680
g Group65433
f 329 324 325 332
g Group16141
f 682 683 687 686
g Group65433
f 329 330 333 328
g Group16141
f 687 689 688 686
g Group65433
f 333 330 335 334
g Group16141
f 687 683 614 612
g Group65433
f 333 257 259 328
g Group16141
f 687 612 610 689
g Group65433
f 333 334 255 257
g Group16141
f 688 692 691 690
g Group65433
f 335 338 337 336
g Group16141
f 688 690 685 686
g Group65433
f 335 330 331 338
g Group16141
f 688 689 693 692
g Group65433
f 335 336 339 334
g Group16141
f 693 601 602 692
g Group65433
f 339 336 247 248
g Group16141
f 693 689 610 608
g Group65433
f 339 253 255 334
g Group16141
f 693 608 604 601
g Group65433
f 339 248 249 253
g Group16141
f 690 691 695 694
g Group65433
f 338 341 340 337
g Group16141
f 690 694 696 685
g Group65433
f 338 331 342 341
g Group16141
f 696 694 584 582
g Group65433
f 342 227 229 341
g Group16141
f 696 582 580 697
g Group65433
f 342 343 225 227
g Group16141
f 696 697 684 685
g Group65433
f 342 331 332 343
g Group16141
f 697 580 578 698
g Group65433
f 343 344 223 225
g Group16141
f 697 698 679 684
g Group65433
f 343 332 325 344
g Group16141
f 698 578 576 699
g Group65433
f 344 345 221 223
g Group16141
f 698 699 678 679
g Group65433
f 344 325 326 345
g Group16141
f 699 576 574 700
g Group65433
f 345 346 219 221
g Group16141
f 699 700 673 678
g Group65433
f 345 326 319 346
g Group16141
f 700 574 572 701
g Group65433
f 346 347 217 219
g Group16141
f 700 701 672 673
g Group65433
f 346 319 320 347
g Group16141
f 701 572 570 702
g Group65433
f 347 348 215 217
g Group16141
f 701 702 667 672
g Group65433
f 347 320 313 348
g Group16141
f 702 570 568 703
g Group65433
f 348 349 213 215
g Group16141
f 702 703 666 667
g Group65433
f 348 313 314 349
g Group16141
f 703 568 566 704
g Group65433
f 349 350 211 213
g Group16141
f 703 704 661 666
g Group65433
f 349 314 307 350
g Group16141
f 704 566 564 705
g Group65433
f 350 351 209 211
g Group16141
f 704 705 660 661
g Group65433
f 350 307 308 351
g Group16141
f 705 564 562 706
g Group65433
f 351 352 207 209
g Group16141
f 705 706 654 660
g Group65433
f 351 308 301 352
g Group16141
f 706 562 560 650
g Group65433
f 352 297 205 207
g Group16141
f 706 650 651 654
g Group65433
f 352 301 296 297
g Group16141
f 694 695 586 584
g Group65433
f 341 229 231 340
g Group16141
f 695 707 588 586
g Group65433
f 340 231 233 353
g Group16141
f 695 691 708 707
g Group65433
f 340 353 354 337
g Group16141
f 708 597 595 707
g Group65433
f 354 353 240 242
g Group16141
f 708 691 692 602
g Group65433
f 354 247 336 337
g Group16141
f 708 602 599 597
g Group65433
f 354 242 244 247
g Group16141
f 707 595 590 588
g Group65433
f 353 233 235 240
g Group16141
f 656 639 636 634
g Group65433
f 302 279 281 284
g Group16141
f 652 642 638 639
g Group65433
f 298 284 285 287
g Group16141
f 650 560 558 648
g Group65433
f 297 294 203 205
g Group16141
f 550 548 531 532
g Group65433
f 195 177 178 193
g Group16141
f 548 546 534 531
g Group65433
f 193 178 179 191
g Group16141
f 546 539 536 534
g Group65433
f 191 179 181 184
g Group16141
f 480 476 360 361
g Group65433
f 125 10 8 122
g Group16141
f 712 711 710 709
g Group16144
f 39 40 712 709
f 44 43 710 711
g Group16141
f 712 714 713 711
g Group16144
f 45 44 711 713
f 40 41 714 712
g Group16141
f 713 714 716 715
g Group16144
f 46 45 713 715
f 41 47 716 714
g Group16141
f 716 718 717 715
g Group16144
f 51 46 715 717
f 47 48 718 716
g Group16141
f 717 718 720 719
g Group16144
f 52 51 717 719
f 48 53 720 718
g Group16141
f 720 722 721 719
g Group16144
f 57 52 719 721
f 53 54 722 720
g Group16141
f 721 722 724 723
g Group16144
f 58 57 721 723
f 54 59 724 722
g Group16141
f 724 726 725 723
g Group16144
f 63 58 723 725
f 59 60 726 724
g Group16141
f 725 726 728 727
g Group16144
f 64 63 725 727
f 60 65 728 726
g Group16141
f 728 730 729 727
g Group16144
f 69 64 727 729
f 65 66 730 728
g Group16141
f 729 730 732 731
g Group16144
f 70 69 729 731
f 66 71 732 730
g Group16141
f 732 734 733 731
g Group16144
f 75 70 731 733
f 71 72 734 732
g Group16141
f 733 734 736 735
g Group16144
f 76 75 733 735
f 72 77 736 734
g Group16141
f 736 738 737 735
g Group16144
f 81 76 735 737
f 77 78 738 736
g Group16141
f 737 738 740 739
g Group16144
f 82 81 737 739
f 78 83 740 738
g Group16141
f 740 742 741 739
g Group16144
f 87 82 739 741
f 83 84 742 740
g Group16141
f 741 742 744 743
g Group16144
f 88 87 741 743
f 84 89 744 742
g Group16141
f 744 746 745 743
g Group16144
f 93 88 743 745
f 89 90 746 744
g Group16141
f 745 746 748 747
g Group16144
f 94 93 745 747
f 90 95 748 746
g Group16141
f 748 750 749 747
g Group16144
f 99 94 747 749
f 95 96 750 748
g Group16141
f 749 750 752 751
g Group16144
f 100 99 749 751
f 96 101 752 750
g Group16141
f 752 754 753 751
g Group16144
f 105 100 751 753
f 101 102 754 752
g Group16141
f 753 754 756 755
g Group16144
f 106 105 753 755
f 102 107 756 754
g Group16141
f 756 758 757 755
g Group16144
f 109 106 755 757
f 107 108 758 756
g Group16141
f 757 758 760 759
g Group16144
f 110 109 757 759
f 108 111 760 758
g Group16141
f 760 762 761 759
g Group16144
f 112 110 759 761
f 111 113 762 760
g Group16141
f 766 765 764 763
g Group16144
f 185 186 766 763
f 188 187 764 765
g Group16141
f 766 768 767 765
g Group16144
f 189 188 765 767
f 186 38 768 766
g Group16141
f 767 768 709 710
g Group16144
f 43 189 767 710
f 38 39 709 768
g Group16141
f 764 770 769 763
g Group16144
f 184 185 763 769
f 187 190 770 764
g Group16141
f 770 772 771 769
g Group16144
f 191 184 769 771
f 190 192 772 770
g Group16141
f 772 774 773 771
g Group16144
f 193 191 771 773
f 192 194 774 772
g Group16141
f 774 776 775 773
g Group16144
f 195 193 773 775
f 194 196 776 774
g Group16141
f 776 778 777 775
g Group16144
f 197 195 775 777
f 196 198 778 776
g Group16141
f 778 780 779 777
g Group16144
f 199 197 777 779
f 198 200 780 778
g Group16141
f 780 782 781 779
g Group16144
f 201 199 779 781
f 200 202 782 780
g Group16141
f 782 784 783 781
g Group16144
f 203 201 781 783
f 202 204 784 782
g Group16141
f 784 786 785 783
g Group16144
f 205 203 783 785
f 204 206 786 784
g Group16141
f 786 788 787 785
g Group16144
f 207 205 785 787
f 206 208 788 786
g Group16141
f 788 790 789 787
g Group16144
f 209 207 787 789
f 208 210 790 788
g Group16141
f 790 792 791 789
g Group16144
f 211 209 789 791
f 210 212 792 790
g Group16141
f 792 794 793 791
g Group16144
f 213 211 791 793
f 212 214 794 792
g Group16141
f 794 796 795 793
g Group16144
f 215 213 793 795
f 214 216 796 794
g Group16141
f 796 798 797 795
g Group16144
f 217 215 795 797
f 216 218 798 796
g Group16141
f 798 800 799 797
g Group16144
f 219 217 797 799
f 218 220 800 798
g Group16141
f 800 802 801 799
g Group16144
f 221 219 799 801
f 220 222 802 800
g Group16141
f 802 804 803 801
g Group16144
f 223 221 801 803
f 222 224 804 802
g Group16141
f 804 806 805 803
g Group16144
f 225 223 803 805
f 224 226 806 804
g Group16141
f 806 808 807 805
g Group16144
f 227 225 805 807
f 226 228 808 806
g Group16141
f 808 810 809 807
g Group16144
f 229 227 807 809
f 228 230 810 808
g Group16141
f 810 812 811 809
g Group16144
f 231 229 809 811
f 230 232 812 810
g Group16141
f 812 814 813 811
g Group16144
f 233 231 811 813
f 232 234 814 812
g Group16141
f 814 816 815 813
g Group16144
f 235 233 813 815
f 234 236 816 814
g Group16141
f 816 818 817 815
g Group16144
f 237 235 815 817
f 236 238 818 816
g Group16141
f 818 820 819 817
g Group16144
f 115 237 817 819
f 238 239 820 818
g Group16141
f 820 761 762 819
g Group16144
f 113 115 819 762
f 239 112 761 820
g Group16141
f 824 823 822 821
g Group16144
f 398 397 821 822
f 394 392 823 824
g Group16141
f 824 821 826 825
g Group16144
f 396 394 824 825
f 397 399 826 821
g Group16141
f 826 828 827 825
g Group16144
f 400 396 825 827
f 399 401 828 826
g Group16141
f 827 828 830 829
g Group16144
f 404 400 827 829
f 401 405 830 828
g Group16141
f 830 832 831 829
g Group16144
f 406 404 829 831
f 405 407 832 830
g Group16141
f 831 832 834 833
g Group16144
f 410 406 831 833
f 407 411 834 832
g Group16141
f 834 836 835 833
g Group16144
f 412 410 833 835
f 411 413 836 834
g Group16141
f 835 836 838 837
g Group16144
f 416 412 835 837
f 413 417 838 836
g Group16141
f 838 840 839 837
g Group16144
f 418 416 837 839
f 417 419 840 838
g Group16141
f 839 840 842 841
g Group16144
f 422 418 839 841
f 419 423 842 840
g Group16141
f 842 844 843 841
g Group16144
f 424 422 841 843
f 423 425 844 842
g Group16141
f 843 844 846 845
g Group16144
f 428 424 843 845
f 425 429 846 844
g Group16141
f 846 848 847 845
g Group16144
f 430 428 845 847
f 429 431 848 846
g Group16141
f 847 848 850 849
g Group16144
f 434 430 847 849
f 431 435 850 848
g Group16141
f 850 852 851 849
g Group16144
f 436 434 849 851
f 435 437 852 850
g Group16141
f 851 852 854 853
g Group16144
f 440 436 851 853
f 437 441 854 852
g Group16141
f 854 856 855 853
g Group16144
f 442 440 853 855
f 441 443 856 854
g Group16141
f 855 856 858 857
g Group16144
f 446 442 855 857
f 443 447 858 856
g Group16141
f 858 860 859 857
g Group16144
f 448 446 857 859
f 447 449 860 858
g Group16141
f 859 860 862 861
g Group16144
f 452 448 859 861
f 449 453 862 860
g Group16141
f 862 864 863 861
g Group16144
f 454 452 861 863
f 453 455 864 862
g Group16141
f 863 864 866 865
g Group16144
f 458 454 863 865
f 455 459 866 864
g Group16141
f 866 868 867 865
g Group16144
f 460 458 865 867
f 459 461 868 866
g Group16141
f 867 868 870 869
g Group16144
f 462 460 867 869
f 461 463 870 868
g Group16141
f 870 872 871 869
g Group16144
f 464 462 869 871
f 463 465 872 870
g Group16141
f 871 872 874 873
g Group16144
f 466 464 871 873
f 465 467 874 872
g Group16141
f 878 877 876 875
g Group16144
f 542 541 875 876
f 540 538 877 878
g Group16141
f 878 875 880 879
g Group16144
f 393 540 878 879
f 541 543 880 875
g Group16141
f 880 822 823 879
g Group16144
f 392 393 879 823
f 543 398 822 880
g Group16141
f 876 877 882 881
g Group16144
f 544 542 876 881
f 538 539 882 877
g Group16141
f 881 882 884 883
g Group16144
f 545 544 881 883
f 539 546 884 882
g Group16141
f 883 884 886 885
g Group16144
f 547 545 883 885
f 546 548 886 884
g Group16141
f 885 886 888 887
g Group16144
f 549 547 885 887
f 548 550 888 886
g Group16141
f 887 888 890 889
g Group16144
f 551 549 887 889
f 550 552 890 888
g Group16141
f 889 890 892 891
g Group16144
f 553 551 889 891
f 552 554 892 890
g Group16141
f 891 892 894 893
g Group16144
f 555 553 891 893
f 554 556 894 892
g Group16141
f 893 894 896 895
g Group16144
f 557 555 893 895
f 556 558 896 894
g Group16141
f 895 896 898 897
g Group16144
f 559 557 895 897
f 558 560 898 896
g Group16141
f 897 898 900 899
g Group16144
f 561 559 897 899
f 560 562 900 898
g Group16141
f 899 900 902 901
g Group16144
f 563 561 899 901
f 562 564 902 900
g Group16141
f 901 902 904 903
g Group16144
f 565 563 901 903
f 564 566 904 902
g Group16141
f 903 904 906 905
g Group16144
f 567 565 903 905
f 566 568 906 904
g Group16141
f 905 906 908 907
g Group16144
f 569 567 905 907
f 568 570 908 906
g Group16141
f 907 908 910 909
g Group16144
f 571 569 907 909
f 570 572 910 908
g Group16141
f 909 910 912 911
g Group16144
f 573 571 909 911
f 572 574 912 910
g Group16141
f 911 912 914 913
g Group16144
f 575 573 911 913
f 574 576 914 912
g Group16141
f 913 914 916 915
g Group16144
f 577 575 913 915
f 576 578 916 914
g Group16141
f 915 916 918 917
g Group16144
f 579 577 915 917
f 578 580 918 916
g Group16141
f 917 918 920 919
g Group16144
f 581 579 917 919
f 580 582 920 918
g Group16141
f 919 920 922 921
g Group16144
f 583 581 919 921
f 582 584 922 920
g Group16141
f 921 922 924 923
g Group16144
f 585 583 921 923
f 584 586 924 922
g Group16141
f 923 924 926 925
g Group16144
f 587 585 923 925
f 586 588 926 924
g Group16141
f 925 926 928 927
g Group16144
f 589 587 925 927
f 588 590 928 926
g Group16141
f 927 928 930 929
g Group16144
f 591 589 927 929
f 590 592 930 928
g Group16141
f 929 930 932 931
g Group16144
f 593 591 929 931
f 592 470 932 930
g Group16141
f 931 932 873 874
g Group16144
f 467 593 931 874
f 470 466 873 932

 