# File exported by ZBrush version 2021
# www.zbrush.com
#Vertex Count 416
#Face Count 414
#Auto scale x=1.000000 y=1.000000 z=1.000000
#Auto offset x=0.000000 y=0.000000 z=0.000000
v 0.74406075 -1.74667072 -0.1995567
v 0.53258156 -1.87309694 -0.13117191
v 0.34249642 -1.96654105 -0.08585628
v 0.16745951 -2.02612638 -0.06089052
v 0.00050163 -2.04643535 -0.05287286
v -0.1664492 -2.02624487 -0.06084045
v -0.34180972 -1.96394252 -0.0848138
v -0.53196328 -1.870296 -0.12994143
v -0.74243396 -1.74754238 -0.19922602
v 0.80745178 -1.5908575 -0.16965779
v 0.58439707 -1.69994258 -0.08774623
v 0.37842789 -1.7821815 -0.03196463
v 0.18589973 -1.83523631 -0.00046113
v 0.00044517 -1.85373973 0.00969162
v -0.18495175 -1.83622908 -0.00069931
v -0.37723285 -1.78165054 -0.03155282
v -0.58218282 -1.70034241 -0.08705827
v -0.80359709 -1.59521699 -0.16943255
v 0.85511064 -1.4447391 -0.13778683
v 0.625512 -1.53176331 -0.04606989
v 0.40796428 -1.59831714 0.01775661
v 0.2013742 -1.64182639 0.05444267
v 0.00037469 -1.65738773 0.06633666
v -0.20052298 -1.64353179 0.05402192
v -0.40636339 -1.59945058 0.01775822
v -0.62199538 -1.534482 -0.04560664
v -0.84953612 -1.45134663 -0.13735589
v 0.88765567 -1.30300498 -0.10255524
v 0.65569639 -1.36540651 -0.00519529
v 0.43059492 -1.41364169 0.06368801
v 0.21351473 -1.44577384 0.10378733
v 0.00029126 -1.45766377 0.11686351
v -0.21279694 -1.44803476 0.1032665
v -0.42869955 -1.41608262 0.06344392
v -0.65118157 -1.36972188 -0.00477293
v -0.8808406 -1.31090378 -0.10179218
v 0.90594655 -1.16049456 -0.06353256
v 0.67495411 -1.19774007 0.03522113
v 0.44597092 -1.22683548 0.10593619
v 0.22202962 -1.24694895 0.14747443
v 0.00019191 -1.25486969 0.16108706
v -0.22148612 -1.24962091 0.14692226
v -0.4439046 -1.23027324 0.10556665
v -0.66974645 -1.20309686 0.03568711
v -0.89832145 -1.16899251 -0.06244221
v 0.91081512 -1.01253294 -0.02114877
v 0.68340069 -1.02591538 0.07495936
v 0.45386651 -1.03670859 0.14434316
v 0.22670659 -1.0452702 0.18534687
v 0.00007732 -1.04931998 0.19883611
v -0.22637742 -1.04821395 0.18481263
v -0.45175245 -1.04088711 0.14392903
v -0.67777782 -1.03191447 0.07548722
v -0.9027462 -1.0211761 -0.01980993
v 0.90288394 -0.8552013 0.02343812
v 0.68114566 -0.84759211 0.11331465
v 0.45414662 -0.84233403 0.17851164
v 0.2274058 -0.84073424 0.2171885
v -0.00005364 -0.84134459 0.22994807
v -0.22733333 -0.84382212 0.21670952
v -0.45210951 -0.84703612 0.17811361
v -0.67537224 -0.8539775 0.11388513
v -0.89469033 -0.8637309 0.02491471
v 0.88249844 -0.68555712 0.06847789
v 0.66828256 -0.66109603 0.14918777
v 0.44675701 -0.643112 0.20786693
v 0.22406268 -0.63343423 0.24275162
v -0.00020179 -0.63128 0.25428661
v -0.22428914 -0.63654547 0.24235037
v -0.44492036 -0.64816677 0.20752146
v -0.66260117 -0.66772091 0.14976915
v -0.87446022 -0.69387477 0.06996747
v 0.84973704 -0.50182902 0.11177554
v 0.64486509 -0.46552878 0.18120995
v 0.43172964 -0.43883863 0.23171237
v 0.21668806 -0.4235742 0.26176551
v -0.00036786 -0.41948169 0.27171823
v -0.21725596 -0.42660287 0.26145574
v -0.43021455 -0.4440979 0.23144617
v -0.6395145 -0.47233724 0.18177494
v -0.84211981 -0.50995248 0.1131809
v -1.4888587 1.12635421 -0.10639485
v -1.18410873 1.51382899 -0.06895813
v -0.82271993 1.80300808 -0.05482098
v -0.42330187 1.98454618 -0.05268779
v -0.00378926 2.04647755 -0.05288228
v 0.416381 1.98554444 -0.05229744
v 0.81709247 1.80038595 -0.05288061
v 1.18043828 1.51034355 -0.06697621
v 1.48889386 1.12673187 -0.10625532
v -1.48112964 0.93790668 -0.08382758
v -1.18122458 1.31390404 -0.02821275
v -0.82198691 1.59972453 -0.0002397
v -0.42344176 1.78040361 0.0104756
v -0.00337663 1.84268856 0.01307353
v 0.41734969 1.78232908 0.01057353
v 0.81645697 1.59973335 0.00095656
v 1.17653274 1.31546807 -0.02693447
v 1.47999632 0.94459325 -0.08372125
v -1.45289671 0.78048902 -0.0614632
v -1.15831041 1.13279819 0.00827696
v -0.80560904 1.40395784 0.0481843
v -0.41496574 1.57623148 0.06677618
v -0.00298831 1.63610982 0.07206049
v 0.40962699 1.5788629 0.06669601
v 0.80025053 1.40600752 0.04892364
v 1.15285563 1.13802409 0.00932088
v 1.45067739 0.79150801 -0.06092861
v -1.40690648 0.64633864 -0.03692379
v -1.1184839 0.96603959 0.0423471
v -0.77613931 1.21390676 0.09136942
v -0.3993048 1.37186741 0.11640253
v -0.00262317 1.42713499 0.12397614
v 0.39464977 1.37500405 0.11623331
v 0.77099889 1.21746039 0.09185674
v 1.11245214 0.97372514 0.04342213
v 1.40365064 0.66003328 -0.03578349
v -1.34492731 0.52762079 -0.00913223
v -1.06421876 0.80885547 0.07503989
v -0.73582208 1.02752471 0.12989714
v -0.37778139 1.16706514 0.15946587
v -0.00228079 1.21616101 0.16873851
v 0.37374991 1.17051911 0.15927872
v 0.73095125 1.03210902 0.13027182
v 1.05780375 0.81799107 0.07626149
v 1.34072065 0.54266542 -0.00739511
v -1.26833796 0.41691774 0.02193209
v -0.99768209 0.65657848 0.10668215
v -0.68670666 0.84276944 0.16400381
v -0.35162252 0.96157449 0.19601455
v -0.00196045 1.00358748 0.20628622
v 0.34815958 0.96517902 0.19585421
v 0.68215268 0.84798735 0.16435107
v 0.99108052 0.6663686 0.10807266
v 1.2633301 0.43229907 0.02414968
v -1.17853438 0.3075568 0.05548152
v -0.9209308 0.50498551 0.13700905
v -0.63070553 0.65779596 0.19362685
v -0.3219707 0.75519144 0.22601518
v -0.00166279 0.78981047 0.23657658
v 0.31902921 0.7587977 0.22591283
v 0.62652027 0.66332024 0.19399288
v 0.91434717 0.51483911 0.1385279
v 1.17294681 0.32252651 0.05801472
v -1.07722234 0.19383367 0.09011837
v -0.83606517 0.35050541 0.16528222
v -0.5696479 0.47108775 0.21845898
v -0.28988426 0.54779982 0.24938848
v -0.00138552 0.57523137 0.25959041
v 0.28742271 0.55128097 0.24935755
v 0.56587743 0.47666198 0.21886256
v 0.82971 0.36001592 0.16685923
v 1.07133674 0.20788139 0.09278306
v -0.96657002 0.07120049 0.12400063
v -0.74528199 0.19040116 0.19042745
v -0.50529325 0.28154403 0.23801663
v -0.25634193 0.3393982 0.26601412
v -0.00112977 0.36024683 0.27532884
v 0.25432416 0.34265154 0.26605603
v 0.50198143 0.28697735 0.23846122
v 0.73936611 0.19931995 0.19198694
v 0.96069932 0.08402144 0.12663063
v 0.51305168 -1.82180571 -0.21151843
v 0.56203013 -1.65195131 -0.16917279
v 0.77579313 -1.54126 -0.24596065
v 0.71582651 -1.69485306 -0.27532884
v 0.33031454 -1.91507697 -0.16929882
v 0.36425629 -1.73484134 -0.11694255
v 0.16163563 -1.97426867 -0.14609
v 0.17905041 -1.78801012 -0.08748891
v 0.00049265 -1.99439811 -0.13864168
v 0.00043811 -1.806499 -0.07800385
v -0.16064296 -1.97438526 -0.14604327
v -0.17812055 -1.78898 -0.08771988
v -0.32962411 -1.91254162 -0.16829082
v -0.36308538 -1.73432874 -0.11654886
v -0.51242369 -1.81907081 -0.21033203
v -0.55988317 -1.65236878 -0.16852405
v -0.71424865 -1.69572663 -0.27502241
v -0.77209645 -1.54559254 -0.24577534
v 0.60071933 -1.48709607 -0.1286703
v 0.82068544 -1.39743328 -0.21492701
v 0.39202478 -1.55515575 -0.06869944
v 0.19359195 -1.59933328 -0.03426519
v 0.00037026 -1.61506533 -0.02310988
v -0.19275684 -1.60099744 -0.03467252
v -0.39047065 -1.5562725 -0.06870469
v -0.59733504 -1.48980188 -0.12824752
v -0.81535327 -1.40400624 -0.21455436
v 0.62892317 -1.3242197 -0.08908757
v 0.85109883 -1.25825119 -0.18086728
v 0.413156 -1.37477827 -0.02419635
v 0.20492383 -1.40812492 0.01355096
v 0.00028969 -1.42037558 0.0258505
v -0.20421893 -1.41033101 0.01304665
v -0.41132459 -1.37717461 -0.02444103
v -0.62459105 -1.32850408 -0.08870992
v -0.84458601 -1.26611876 -0.18018248
v 0.64666169 -1.16030931 -0.05007675
v 0.86785799 -1.11870884 -0.14334008
v 0.42733848 -1.19244408 0.01667609
v 0.21278283 -1.21426582 0.0558637
v 0.00019453 -1.22271823 0.06869927
v -0.21224498 -1.21687197 0.05532977
v -0.42534729 -1.19581699 0.01631072
v -0.64167219 -1.16562461 -0.04966083
v -0.86057388 -1.12718391 -0.14234325
v 0.65406191 -0.99260729 -0.01183214
v 0.87176173 -0.97426205 -0.10273233
v 0.43437615 -1.00701022 0.05377039
v 0.21697846 -1.01767849 0.09252682
v 0.00008474 -1.02240014 0.10527035
v -0.21664558 -1.02054619 0.09201124
v -0.43234133 -1.01110553 0.05336293
v -0.64867937 -0.99855959 -0.01135471
v -0.86405676 -0.98288834 -0.10149052
v 0.65124726 -0.81884253 0.02498909
v 0.8634206 -0.82108444 -0.06012174
v 0.43415719 -0.81757682 0.08672109
v 0.21738725 -0.81835627 0.1233364
v -0.0000401 -0.81973564 0.13541314
v -0.21729955 -0.82136279 0.12287488
v -0.43219804 -0.82218009 0.08633115
v -0.64572596 -0.82517212 0.0255126
v -0.85559535 -0.82959908 -0.05874499
v 0.63832944 -0.63737344 0.05934885
v 0.84318 -0.65629214 -0.0171667
v 0.42664864 -0.62355691 0.11498203
v 0.2139585 -0.61638897 0.148056
v -0.00018122 -0.61505323 0.15898743
v -0.21415519 -0.61941576 0.14766964
v -0.42488226 -0.62849861 0.11464539
v -0.63289839 -0.64393055 0.05988946
v -0.83550739 -0.66459131 -0.01576653
v 0.6153832 -0.44730567 0.08995547
v 0.81114924 -0.47813412 0.02405896
v 0.4118973 -0.42473778 0.13789501
v 0.20671144 -0.41196939 0.1664274
v -0.00033931 -0.40869247 0.17587432
v -0.20723253 -0.41491279 0.16613009
v -0.41043853 -0.42987591 0.13763633
v -0.61027103 -0.45402964 0.09048435
v -0.80387979 -0.48622533 0.0253863
v -1.12345337 1.49298358 -0.15458858
v -1.1212486 1.29839515 -0.11463359
v -1.40794253 0.94298201 -0.16704216
v -1.41458272 1.12641763 -0.18967977
v -0.77978402 1.76549768 -0.14098981
v -0.77943152 1.56748509 -0.08787986
v -0.40095722 1.93626141 -0.13862994
v -0.40125504 1.73726296 -0.07735648
v -0.00357553 1.99444484 -0.13865122
v -0.00318531 1.79572463 -0.07472756
v 0.39442661 1.93715882 -0.13824579
v 0.39550685 1.73907017 -0.07726129
v 0.77447682 1.76281929 -0.13910028
v 0.77421057 1.56737136 -0.08671543
v 1.12000286 1.48947048 -0.15265902
v 1.11680996 1.29976105 -0.11339804
v 1.41463911 1.12676596 -0.18954408
v 1.40685892 0.9494192 -0.16697099
v -1.09996819 1.12152051 -0.07884499
v -1.38165855 0.7889145 -0.14476832
v -0.76423096 1.37649583 -0.04073658
v -0.3933936 1.53817749 -0.02273741
v -0.0028192 1.59432363 -0.01756283
v 0.38835585 1.54068231 -0.02281543
v 0.75916564 1.37837076 -0.04002073
v 1.09478819 1.12642645 -0.0778518
v 1.37952005 0.79952138 -0.14430496
v -1.06256008 0.95809847 -0.04547599
v -1.33835017 0.65678572 -0.12056544
v -0.73659157 1.19081616 0.00131216
v -0.37871852 1.33885502 0.02540472
v -0.00247423 1.3906188 0.0327427
v 0.37432676 1.34185838 0.02524152
v 0.73172879 1.19416022 0.00178024
v 1.05682373 0.96538537 -0.04446157
v 1.33521199 0.6699599 -0.11953124
v -1.01137638 0.8035863 -0.01352945
v -1.27972447 0.53909152 -0.09338697
v -0.69863426 1.00850629 0.03881052
v -0.35847732 1.13907218 0.06718072
v -0.00215076 1.18499708 0.07611224
v 0.35467276 1.14239049 0.06699976
v 0.69402402 1.01286435 0.03916397
v 1.00527155 0.81227821 -0.01237794
v 1.27567946 0.55355149 -0.0917823
v -0.9484843 0.65354383 0.01730719
v -1.20712637 0.42873096 -0.06319078
v -0.65229761 0.82764035 0.07198277
v -0.33382567 0.93859559 0.10262987
v -0.00184819 0.97783428 0.11248937
v 0.33055967 0.94206935 0.10247209
v 0.64798671 0.8326264 0.0723063
v 0.94219803 0.66287946 0.01861742
v 1.20231461 0.44350141 -0.06112083
v -0.87584352 0.5039727 0.04677715
v -1.12190771 0.3193382 -0.03071925
v -0.59939205 0.64648348 0.1007612
v -0.30584201 0.73724412 0.13172289
v -0.0015665 0.7695226 0.14183333
v 0.30307021 0.74072712 0.13162085
v 0.59542733 0.6517812 0.10110226
v 0.86957353 0.51338255 0.04820933
v 1.11654853 0.33370322 -0.02834329
v -0.79545199 0.35150367 0.07417228
v -1.02571678 0.2054997 0.0026929
v -0.54164677 0.4636138 0.12485083
v -0.27552557 0.53491622 0.15437856
v -0.00130403 0.56044352 0.16412845
v 0.27320823 0.53828346 0.15434494
v 0.53807514 0.46897441 0.12522772
v 0.78940075 0.36060148 0.07566109
v 1.02008032 0.21897858 0.00520303
v -0.70939916 0.19357341 0.09845903
v -0.92062932 0.0829423 0.03527894
v -0.48072931 0.27801019 0.14378687
v -0.24380098 0.33162355 0.17048606
v -0.00106202 0.35098069 0.17937353
v 0.24190418 0.33477479 0.17052266
v 0.47759357 0.28324794 0.14420703
v 0.70376724 0.20212167 0.0999355
v 0.91501277 0.09524786 0.03776386
v 0.8151161 -1.60564184 -0.14649173
v 0.59124594 -1.71421289 -0.06407043
v 0.53842878 -1.88776898 -0.10750374
v 0.75108343 -1.76177263 -0.17658713
v 0.38238754 -1.79655098 -0.0071133
v 0.34615272 -1.98118138 -0.06121984
v 0.18780653 -1.84957456 0.024964
v 0.16920994 -2.0408349 -0.03569886
v 0.0004476 -1.86808133 0.03530505
v 0.00050357 -2.06118178 -0.02750024
v -0.18685148 -1.8505702 0.02472683
v -0.1681945 -2.04095411 -0.03565141
v -0.3811858 -1.79602074 -0.0066978
v -0.34546309 -1.97857952 -0.06016978
v -0.58901202 -1.71461486 -0.06337449
v -0.53780555 -1.88496851 -0.10626491
v -0.8112244 -1.61000323 -0.14625832
v -0.74943649 -1.76264739 -0.17624992
v 0.86353981 -1.45881414 -0.11435851
v 0.63409036 -1.54493904 -0.02259185
v -0.63052791 -1.54767179 -0.02211532
v -0.85790526 -1.4654293 -0.11391457
v 0.89668983 -1.31628656 -0.07878837
v 0.6649087 -1.37770843 0.01863977
v -0.6603313 -1.38204026 0.01908072
v -0.88979911 -1.3241918 -0.07800975
v 0.91543287 -1.17285394 -0.03935518
v 0.68464762 -1.20906949 0.05948022
v -0.67936414 -1.21444273 0.05996695
v -0.90772068 -1.18135643 -0.03824678
v 0.92060625 -1.023808 0.00350162
v 0.69341909 -1.03613853 0.09969899
v -0.68771386 -1.04215407 0.10024812
v -0.91244667 -1.03245186 0.00486174
v 0.91283983 -0.86520522 0.04860624
v 0.69133287 -0.85654962 0.13856717
v -0.68547284 -0.86295086 0.13915845
v -0.90455281 -0.87373453 0.05010095
v 0.89247238 -0.69408804 0.09418109
v 0.67847442 -0.66861575 0.17496481
v -0.672706 -0.67525792 0.17556574
v -0.88434255 -0.70240962 0.09568813
v 0.85986185 -0.50811845 0.1379933
v 0.65514874 -0.47084254 0.20748475
v -0.64975202 -0.4776746 0.20805195
v -0.85219341 -0.51625865 0.13940194
v -1.50035381 0.9379794 -0.05872145
v -1.19961679 1.31786084 -0.00294932
v -1.20211088 1.51908206 -0.04366323
v -1.50855732 1.12729239 -0.08132872
v -0.83441782 1.60957312 0.02542504
v -0.83548831 1.81330227 -0.02933326
v -0.42992174 1.79352951 0.03614589
v -0.42995244 1.99810648 -0.02725359
v -0.00343365 1.85696148 0.03871348
v -0.00384849 2.06118178 -0.02749612
v 0.4237262 1.79548645 0.03624388
v 0.42292246 1.9991374 -0.02686122
v 0.82880181 1.60962724 0.02662918
v 0.82976818 1.81071925 -0.02738389
v 1.19486892 1.31949281 -0.00166395
v 1.19837713 1.51563572 -0.04167386
v 1.49919331 0.94473606 -0.05860367
v 1.50855732 1.12770199 -0.08117941
v -1.47162985 0.77952176 -0.03629753
v -1.17778527 1.13438534 0.03328546
v 1.17226839 1.13972663 0.03434148
v 1.46937334 0.79065579 -0.03574541
v -1.42493379 0.64468848 -0.01165077
v -1.13719296 0.96681433 0.0675126
v 1.1310898 0.97464305 0.06860491
v 1.42163229 0.65852832 -0.0104849
v -1.36205589 0.52555358 0.01630482
v -1.08193767 0.80904251 0.10040375
v 1.07544314 0.81833273 0.10165181
v 1.35779476 0.5407601 0.01807227
v -1.28438985 0.41461211 0.04758772
v -1.01422333 0.6563186 0.13229331
v 1.00753378 0.66626513 0.13371339
v 1.27931892 0.43016105 0.0498431
v -1.19334733 0.30510705 0.08140179
v -0.93612945 0.50434035 0.16290715
v 0.92945629 0.51434522 0.1644589
v 1.18769168 0.32024186 0.08397278
v -1.09065878 0.19125452 0.11633101
v -0.84979456 0.34947258 0.19149169
v 0.84334957 0.3591209 0.19310036
v 1.08469986 0.20545783 0.11903277
v -0.97856462 0.06773483 0.15048387
v -0.75753057 0.1882103 0.21692708
v 0.75157392 0.19723567 0.21850696
v 0.97266477 0.08067518 0.15313556
g Group16141
f 166 165 164 163
g Group16144
f 2 1 166 163
f 1 10 165 166
g Group16141
f 163 164 168 167
g Group16144
f 3 2 163 167
g Group16141
f 167 168 170 169
g Group16144
f 4 3 167 169
g Group16141
f 169 170 172 171
g Group16144
f 5 4 169 171
g Group16141
f 171 172 174 173
g Group16144
f 6 5 171 173
g Group16141
f 173 174 176 175
g Group16144
f 7 6 173 175
g Group16141
f 175 176 178 177
g Group16144
f 8 7 175 177
g Group16141
f 177 178 180 179
g Group16144
f 9 8 177 179
f 18 9 179 180
g Group16141
f 165 182 181 164
g Group16144
f 10 19 182 165
g Group16141
f 164 181 183 168
g Group57270
f 11 12 21 20
g Group16141
f 168 183 184 170
g Group57270
f 12 13 22 21
g Group16141
f 170 184 185 172
g Group57270
f 13 14 23 22
g Group16141
f 172 185 186 174
g Group57270
f 14 15 24 23
g Group16141
f 174 186 187 176
g Group57270
f 15 16 25 24
g Group16141
f 176 187 188 178
g Group57270
f 16 17 26 25
g Group16141
f 178 188 189 180
g Group16144
f 27 18 180 189
g Group16141
f 182 191 190 181
g Group16144
f 19 28 191 182
g Group16141
f 181 190 192 183
g Group57270
f 20 21 30 29
g Group16141
f 183 192 193 184
g Group57270
f 21 22 31 30
g Group16141
f 184 193 194 185
g Group57270
f 22 23 32 31
g Group16141
f 185 194 195 186
g Group57270
f 23 24 33 32
g Group16141
f 186 195 196 187
g Group57270
f 24 25 34 33
g Group16141
f 187 196 197 188
g Group57270
f 25 26 35 34
g Group16141
f 188 197 198 189
g Group16144
f 36 27 189 198
g Group16141
f 191 200 199 190
g Group16144
f 28 37 200 191
g Group16141
f 190 199 201 192
g Group57270
f 29 30 39 38
g Group16141
f 192 201 202 193
g Group57270
f 30 31 40 39
g Group16141
f 193 202 203 194
g Group57270
f 31 32 41 40
g Group16141
f 194 203 204 195
g Group57270
f 32 33 42 41
g Group16141
f 195 204 205 196
g Group57270
f 33 34 43 42
g Group16141
f 196 205 206 197
g Group57270
f 34 35 44 43
g Group16141
f 197 206 207 198
g Group16144
f 45 36 198 207
g Group16141
f 200 209 208 199
g Group16144
f 37 46 209 200
g Group16141
f 199 208 210 201
g Group57270
f 38 39 48 47
g Group16141
f 201 210 211 202
g Group57270
f 39 40 49 48
g Group16141
f 202 211 212 203
g Group57270
f 40 41 50 49
g Group16141
f 203 212 213 204
g Group57270
f 41 42 51 50
g Group16141
f 204 213 214 205
g Group57270
f 42 43 52 51
g Group16141
f 205 214 215 206
g Group57270
f 43 44 53 52
g Group16141
f 206 215 216 207
g Group16144
f 54 45 207 216
g Group16141
f 209 218 217 208
g Group16144
f 46 55 218 209
g Group16141
f 208 217 219 210
g Group57270
f 47 48 57 56
g Group16141
f 210 219 220 211
g Group57270
f 48 49 58 57
g Group16141
f 211 220 221 212
g Group57270
f 49 50 59 58
g Group16141
f 212 221 222 213
g Group57270
f 50 51 60 59
g Group16141
f 213 222 223 214
g Group57270
f 51 52 61 60
g Group16141
f 214 223 224 215
g Group57270
f 52 53 62 61
g Group16141
f 215 224 225 216
g Group16144
f 63 54 216 225
g Group16141
f 218 227 226 217
g Group16144
f 55 64 227 218
g Group16141
f 217 226 228 219
g Group57270
f 56 57 66 65
g Group16141
f 219 228 229 220
g Group57270
f 57 58 67 66
g Group16141
f 220 229 230 221
g Group57270
f 58 59 68 67
g Group16141
f 221 230 231 222
g Group57270
f 59 60 69 68
g Group16141
f 222 231 232 223
g Group57270
f 60 61 70 69
g Group16141
f 223 232 233 224
g Group57270
f 61 62 71 70
g Group16141
f 224 233 234 225
g Group16144
f 72 63 225 234
g Group16141
f 227 236 235 226
g Group16144
f 64 73 236 227
g Group16141
f 226 235 237 228
g Group57270
f 65 66 75 74
g Group16141
f 228 237 238 229
g Group57270
f 66 67 76 75
g Group16141
f 229 238 239 230
g Group57270
f 67 68 77 76
g Group16141
f 230 239 240 231
g Group57270
f 68 69 78 77
g Group16141
f 231 240 241 232
g Group57270
f 69 70 79 78
g Group16141
f 232 241 242 233
g Group57270
f 70 71 80 79
g Group16141
f 233 242 243 234
g Group16144
f 81 72 234 243
g Group16141
f 247 246 245 244
g Group16144
f 83 82 247 244
f 82 91 246 247
g Group16141
f 244 245 249 248
g Group16144
f 84 83 244 248
g Group16141
f 248 249 251 250
g Group16144
f 85 84 248 250
g Group16141
f 250 251 253 252
g Group16144
f 86 85 250 252
g Group16141
f 252 253 255 254
g Group16144
f 87 86 252 254
g Group16141
f 254 255 257 256
g Group16144
f 88 87 254 256
g Group16141
f 256 257 259 258
g Group16144
f 89 88 256 258
g Group16141
f 258 259 261 260
g Group16144
f 90 89 258 260
f 99 90 260 261
g Group16141
f 246 263 262 245
g Group16144
f 91 100 263 246
g Group16141
f 245 262 264 249
g Group57270
f 92 93 102 101
g Group16141
f 249 264 265 251
g Group57270
f 93 94 103 102
g Group16141
f 251 265 266 253
g Group57270
f 94 95 104 103
g Group16141
f 253 266 267 255
g Group57270
f 95 96 105 104
g Group16141
f 255 267 268 257
g Group57270
f 96 97 106 105
g Group16141
f 257 268 269 259
g Group57270
f 97 98 107 106
g Group16141
f 259 269 270 261
g Group16144
f 108 99 261 270
g Group16141
f 263 272 271 262
g Group16144
f 100 109 272 263
g Group16141
f 262 271 273 264
g Group57270
f 101 102 111 110
g Group16141
f 264 273 274 265
g Group57270
f 102 103 112 111
g Group16141
f 265 274 275 266
g Group57270
f 103 104 113 112
g Group16141
f 266 275 276 267
g Group57270
f 104 105 114 113
g Group16141
f 267 276 277 268
g Group57270
f 105 106 115 114
g Group16141
f 268 277 278 269
g Group57270
f 106 107 116 115
g Group16141
f 269 278 279 270
g Group16144
f 117 108 270 279
g Group16141
f 272 281 280 271
g Group16144
f 109 118 281 272
g Group16141
f 271 280 282 273
g Group57270
f 110 111 120 119
g Group16141
f 273 282 283 274
g Group57270
f 111 112 121 120
g Group16141
f 274 283 284 275
g Group57270
f 112 113 122 121
g Group16141
f 275 284 285 276
g Group57270
f 113 114 123 122
g Group16141
f 276 285 286 277
g Group57270
f 114 115 124 123
g Group16141
f 277 286 287 278
g Group57270
f 115 116 125 124
g Group16141
f 278 287 288 279
g Group16144
f 126 117 279 288
g Group16141
f 281 290 289 280
g Group16144
f 118 127 290 281
g Group16141
f 280 289 291 282
g Group57270
f 119 120 129 128
g Group16141
f 282 291 292 283
g Group57270
f 120 121 130 129
g Group16141
f 283 292 293 284
g Group57270
f 121 122 131 130
g Group16141
f 284 293 294 285
g Group57270
f 122 123 132 131
g Group16141
f 285 294 295 286
g Group57270
f 123 124 133 132
g Group16141
f 286 295 296 287
g Group57270
f 124 125 134 133
g Group16141
f 287 296 297 288
g Group16144
f 135 126 288 297
g Group16141
f 290 299 298 289
g Group16144
f 127 136 299 290
g Group16141
f 289 298 300 291
g Group57270
f 128 129 138 137
g Group16141
f 291 300 301 292
g Group57270
f 129 130 139 138
g Group16141
f 292 301 302 293
g Group57270
f 130 131 140 139
g Group16141
f 293 302 303 294
g Group57270
f 131 132 141 140
g Group16141
f 294 303 304 295
g Group57270
f 132 133 142 141
g Group16141
f 295 304 305 296
g Group57270
f 133 134 143 142
g Group16141
f 296 305 306 297
g Group16144
f 144 135 297 306
g Group16141
f 299 308 307 298
g Group16144
f 136 145 308 299
g Group16141
f 298 307 309 300
g Group57270
f 137 138 147 146
g Group16141
f 300 309 310 301
g Group57270
f 138 139 148 147
g Group16141
f 301 310 311 302
g Group57270
f 139 140 149 148
g Group16141
f 302 311 312 303
g Group57270
f 140 141 150 149
g Group16141
f 303 312 313 304
g Group57270
f 141 142 151 150
g Group16141
f 304 313 314 305
g Group57270
f 142 143 152 151
g Group16141
f 305 314 315 306
g Group16144
f 153 144 306 315
g Group16141
f 308 317 316 307
g Group16144
f 145 154 317 308
g Group16141
f 307 316 318 309
g Group57270
f 146 147 156 155
g Group16141
f 309 318 319 310
g Group57270
f 147 148 157 156
g Group16141
f 310 319 320 311
g Group57270
f 148 149 158 157
g Group16141
f 311 320 321 312
g Group57270
f 149 150 159 158
g Group16141
f 312 321 322 313
g Group57270
f 150 151 160 159
g Group16141
f 313 322 323 314
g Group57270
f 151 152 161 160
g Group16141
f 314 323 324 315
g Group16144
f 162 153 315 324
g Group16141
f 317 243 242 316
g Group16144
f 154 81 243 317
g Group16141
f 316 242 241 318
g Group57270
f 155 156 79 80
g Group16141
f 318 241 240 319
g Group57270
f 156 157 78 79
g Group16141
f 319 240 239 320
g Group57270
f 157 158 77 78
g Group16141
f 320 239 238 321
g Group57270
f 158 159 76 77
g Group16141
f 321 238 237 322
g Group57270
f 159 160 75 76
g Group16141
f 322 237 235 323
g Group57270
f 160 161 74 75
g Group16141
f 323 235 236 324
g Group16144
f 73 162 324 236
g Group16141
f 328 327 326 325
g Group16144
f 10 1 328 325
f 1 2 327 328
g Group16141
f 327 330 329 326
g Group16144
f 12 11 326 329
f 2 3 330 327
g Group16141
f 330 332 331 329
g Group16144
f 13 12 329 331
f 3 4 332 330
g Group16141
f 332 334 333 331
g Group16144
f 14 13 331 333
f 4 5 334 332
g Group16141
f 334 336 335 333
g Group16144
f 15 14 333 335
f 5 6 336 334
g Group16141
f 336 338 337 335
g Group16144
f 16 15 335 337
f 6 7 338 336
g Group16141
f 338 340 339 337
g Group16144
f 17 16 337 339
f 7 8 340 338
g Group16141
f 340 342 341 339
g Group16144
f 9 18 341 342
f 8 9 342 340
g Group16141
f 325 326 344 343
g Group16144
f 19 10 325 343
f 11 20 344 326
g Group16141
f 339 341 346 345
g Group16144
f 26 17 339 345
f 18 27 346 341
g Group16141
f 343 344 348 347
g Group16144
f 28 19 343 347
f 20 29 348 344
g Group16141
f 345 346 350 349
g Group16144
f 35 26 345 349
f 27 36 350 346
g Group16141
f 347 348 352 351
g Group16144
f 37 28 347 351
f 29 38 352 348
g Group16141
f 349 350 354 353
g Group16144
f 44 35 349 353
f 36 45 354 350
g Group16141
f 351 352 356 355
g Group16144
f 46 37 351 355
f 38 47 356 352
g Group16141
f 353 354 358 357
g Group16144
f 53 44 353 357
f 45 54 358 354
g Group16141
f 355 356 360 359
g Group16144
f 55 46 355 359
f 47 56 360 356
g Group16141
f 357 358 362 361
g Group16144
f 62 53 357 361
f 54 63 362 358
g Group16141
f 359 360 364 363
g Group16144
f 64 55 359 363
f 56 65 364 360
g Group16141
f 361 362 366 365
g Group16144
f 71 62 361 365
f 63 72 366 362
g Group16141
f 363 364 368 367
g Group16144
f 73 64 363 367
f 65 74 368 364
g Group16141
f 365 366 370 369
g Group16144
f 80 71 365 369
f 72 81 370 366
g Group16141
f 374 373 372 371
g Group16144
f 91 82 374 371
f 82 83 373 374
g Group16141
f 373 376 375 372
g Group16144
f 93 92 372 375
f 83 84 376 373
g Group16141
f 376 378 377 375
g Group16144
f 94 93 375 377
f 84 85 378 376
g Group16141
f 378 380 379 377
g Group16144
f 95 94 377 379
f 85 86 380 378
g Group16141
f 380 382 381 379
g Group16144
f 96 95 379 381
f 86 87 382 380
g Group16141
f 382 384 383 381
g Group16144
f 97 96 381 383
f 87 88 384 382
g Group16141
f 384 386 385 383
g Group16144
f 98 97 383 385
f 88 89 386 384
g Group16141
f 386 388 387 385
g Group16144
f 90 99 387 388
f 89 90 388 386
g Group16141
f 371 372 390 389
g Group16144
f 100 91 371 389
f 92 101 390 372
g Group16141
f 385 387 392 391
g Group16144
f 107 98 385 391
f 99 108 392 387
g Group16141
f 389 390 394 393
g Group16144
f 109 100 389 393
f 101 110 394 390
g Group16141
f 391 392 396 395
g Group16144
f 116 107 391 395
f 108 117 396 392
g Group16141
f 393 394 398 397
g Group16144
f 118 109 393 397
f 110 119 398 394
g Group16141
f 395 396 400 399
g Group16144
f 125 116 395 399
f 117 126 400 396
g Group16141
f 397 398 402 401
g Group16144
f 127 118 397 401
f 119 128 402 398
g Group16141
f 399 400 404 403
g Group16144
f 134 125 399 403
f 126 135 404 400
g Group16141
f 401 402 406 405
g Group16144
f 136 127 401 405
f 128 137 406 402
g Group16141
f 403 404 408 407
g Group16144
f 143 134 403 407
f 135 144 408 404
g Group16141
f 405 406 410 409
g Group16144
f 145 136 405 409
f 137 146 410 406
g Group16141
f 407 408 412 411
g Group16144
f 152 143 407 411
f 144 153 412 408
g Group16141
f 409 410 414 413
g Group16144
f 154 145 409 413
f 146 155 414 410
g Group16141
f 411 412 416 415
g Group16144
f 161 152 411 415
f 153 162 416 412
g Group16141
f 413 414 369 370
g Group16144
f 81 154 413 370
f 155 80 369 414
g Group16141
f 415 416 367 368
g Group16144
f 74 161 415 368
f 162 73 367 416

 