# File exported by ZBrush version 2021
# www.zbrush.com
#Vertex Count 864
#Face Count 862
#Auto scale x=1.000000 y=1.000000 z=1.000000
#Auto offset x=0.000000 y=0.000000 z=0.000000
v 0.80245202 0.4939408 -0.04018017
v -0.80242544 0.4939408 -0.04018017
v 0.80208438 -0.57524395 -0.05858382
v -0.80205851 -0.57524395 -0.05858382
v 0.75807505 0.48078396 -0.02501615
v 0.65628784 0.58493536 -0.02130267
v 0.70798057 0.62571525 -0.0439991
v -0.70685416 0.62697249 -0.04403254
v -0.65352231 0.584809 -0.02058336
v -0.72786158 0.47181603 -0.01470014
v 0.69272154 -0.70099937 -0.06171724
v 0.63897329 -0.65248012 -0.03646346
v 0.7154302 -0.54910838 -0.02810528
v -0.71541327 -0.54913121 -0.0281119
v -0.63910704 -0.65265286 -0.03619465
v -0.69271606 -0.70097827 -0.06171724
v -0.53666573 -0.73582625 -0.03667369
v -0.58082479 -0.79714471 -0.06271806
v -0.42605903 -0.80035036 -0.03616747
v -0.46182495 -0.86867374 -0.06333068
v -0.30975818 -0.8476547 -0.03546062
v -0.33493772 -0.92118579 -0.06363084
v -0.18874967 -0.87968242 -0.03471216
v -0.20367066 -0.95889729 -0.06366792
v -0.06349217 -0.89574456 -0.03361752
v -0.06953059 -0.97553151 -0.06330785
v 0.06177542 -0.89589077 -0.03357139
v 0.06774763 -0.97574067 -0.06330147
v 0.18709726 -0.88016802 -0.03405055
v 0.20209841 -0.95924282 -0.06366512
v 0.30826619 -0.84805858 -0.03538069
v 0.33346471 -0.92170447 -0.06363192
v 0.42489612 -0.80080962 -0.03638204
v 0.46079868 -0.86933058 -0.06333646
v 0.53624588 -0.73605573 -0.0370222
v 0.58024066 -0.79751795 -0.06272175
v 0.49119767 -0.67535942 -0.01082727
v 0.58196538 -0.60452783 -0.01082727
v 0.39016091 -0.73112112 -0.00942382
v 0.3561441 -0.6590777 0.01556143
v 0.44754061 -0.61171549 0.01357957
v 0.28315118 -0.7724753 -0.00783845
v 0.25882676 -0.69480246 0.01752141
v 0.23606498 -0.61479651 0.04034242
v 0.3245199 -0.58432441 0.03806534
v 0.1716424 -0.80052673 -0.00601998
v 0.15693216 -0.71923738 0.01949259
v 0.14353659 -0.6361413 0.04238387
v 0.13162435 -0.5511375 0.06203982
v 0.21519702 -0.53235077 0.06019941
v 0.0519064 -0.7315638 0.02033624
v 0.04724888 -0.64693003 0.04334357
v 0.04368623 -0.56155753 0.06267562
v 0.03958969 -0.47641742 0.0802246
v 0.11907282 -0.46413373 0.08020874
v -0.05031237 -0.64680397 0.04298046
v -0.04807744 -0.5614953 0.06242284
v -0.04383739 -0.47552117 0.08027437
v -0.03779595 -0.38552382 0.09544494
v 0.03521115 -0.38682216 0.0952892
v -0.13548162 -0.55052644 0.061605
v -0.12203395 -0.46258121 0.07987853
v -0.11068567 -0.37455278 0.09494409
v -0.10268019 -0.2857998 0.10696956
v -0.03424033 -0.29337471 0.10787734
v -0.19864893 -0.44627925 0.07805684
v -0.182922 -0.36154279 0.09272602
v -0.17130185 -0.27629408 0.10444447
v -0.16371284 -0.19035106 0.11274454
v -0.09779591 -0.19640754 0.11532917
v -0.25401631 -0.34563624 0.08907339
v -0.23946076 -0.26470494 0.10028347
v -0.22968 -0.18309533 0.10862347
v -0.22443647 -0.10075003 0.11357757
v -0.15958221 -0.10383492 0.11747065
v -0.30677157 -0.25137367 0.09476986
v -0.29523769 -0.17490722 0.10277304
v -0.28924945 -0.09760683 0.10779431
v -0.2885499 -0.02004558 0.10959538
v -0.22355124 -0.01818698 0.11550262
v -0.360107 -0.16569954 0.0955204
v -0.35361194 -0.09438239 0.100225
v -0.35329181 -0.02281139 0.10207846
v -0.35859757 0.04858801 0.10091099
v -0.2930088 0.05723671 0.10862216
v -0.41765502 -0.09069229 0.09217259
v -0.41746664 -0.02563943 0.09370091
v -0.42354607 0.03907425 0.09267678
v -0.43536803 0.10280345 0.08931037
v -0.36964699 0.11901896 0.09708502
v -0.38653475 0.18791355 0.09090545
v -0.31736826 0.20938561 0.09798148
v -0.30261078 0.13378638 0.10475036
v -0.4550336 0.16341853 0.08275511
v -0.47823998 0.22219018 0.07473424
v -0.40863722 0.25494539 0.08182784
v -0.43608757 0.31929391 0.07016852
v -0.36185213 0.35737189 0.07612231
v -0.33707809 0.2841008 0.08875319
v -0.50885206 0.27696058 0.0637426
v -0.54162567 0.32761943 0.05190619
v -0.46862819 0.38106218 0.05694934
v -0.50636071 0.4394029 0.04122993
v -0.42586222 0.49775403 0.04458561
v -0.39148017 0.42884042 0.06146553
v -0.58041888 0.37300735 0.0378277
v -0.62387865 0.41218239 0.02209702
v -0.5498529 0.49290603 0.02282056
v -0.5995863 0.54121542 0.00219175
v -0.50911301 0.62376868 0.00225451
v -0.4651066 0.56296664 0.02451172
v -0.67238503 0.44544652 0.00473228
v -0.40780085 0.69297391 0.00185766
v -0.37128454 0.62178456 0.02561625
v -0.33889249 0.54688859 0.04693427
v -0.27042266 0.6678881 0.02612415
v -0.24671638 0.58555698 0.04837027
v -0.22584945 0.50062835 0.06710353
v -0.31027498 0.46891591 0.06478783
v -0.20685708 0.41448462 0.08426114
v -0.28537082 0.38920402 0.08091381
v -0.19016271 0.32826688 0.09752741
v -0.26413133 0.30850845 0.09384104
v -0.17661364 0.24216406 0.10808125
v -0.24722826 0.22747187 0.10389164
v -0.16681887 0.15600518 0.11509779
v -0.23486742 0.14611016 0.1107963
v -0.16100215 0.06952834 0.11845836
v -0.22700448 0.0641994 0.11458674
v -0.15866583 -0.01710815 0.11910203
v -0.09559207 0.07386071 0.12078383
v -0.09445808 -0.01650701 0.12170168
v -0.09518361 -0.10654657 0.1196635
v -0.0314053 -0.01593297 0.1235592
v -0.03173245 -0.10832891 0.12084105
v -0.03254332 -0.20078003 0.11637446
v 0.03093097 -0.10865704 0.12083438
v 0.03144781 -0.20127171 0.11634591
v 0.03264003 -0.29444345 0.10770604
v 0.09650672 -0.19798918 0.11523255
v 0.10099763 -0.28761521 0.10680267
v 0.10840793 -0.37643331 0.09488537
v 0.16989211 -0.27873778 0.10428097
v 0.18113502 -0.3640435 0.0927321
v 0.19646757 -0.44852325 0.0779455
v 0.25268504 -0.34837093 0.0888147
v 0.27215823 -0.42825532 0.07452902
v 0.29631385 -0.50712633 0.0575445
v 0.34558963 -0.40276694 0.07009199
v 0.37417119 -0.47479453 0.05412557
v 0.40824908 -0.54466557 0.0354031
v 0.44772321 -0.43535068 0.05030855
v 0.48549747 -0.49577707 0.03286042
v 0.52993243 -0.55248105 0.01245632
v 0.55554419 -0.43887999 0.03184154
v 0.60084587 -0.48179653 0.01427975
v 0.65301817 -0.51894927 -0.00539401
v 0.51675885 -0.39039796 0.04737326
v 0.41662997 -0.37173694 0.06511911
v 0.48602232 -0.33645457 0.06023737
v 0.39158007 -0.30598351 0.07780656
v 0.45773565 -0.27963078 0.07232126
v 0.37289971 -0.23771405 0.08796587
v 0.43894395 -0.21926058 0.08096882
v 0.36001899 -0.16803982 0.09534314
v 0.42387858 -0.15738701 0.08820906
v 0.35348466 -0.0970389 0.10014775
v 0.41778203 -0.09277571 0.09208938
v 0.35297715 -0.02544975 0.1020694
v 0.41739851 -0.02789946 0.0936912
v 0.35829278 0.04601991 0.10103693
v 0.42316713 0.03668174 0.09279176
v 0.36924773 0.11652212 0.09729805
v 0.43470209 0.10060767 0.08953657
v 0.38623207 0.18568958 0.09110167
v 0.45438882 0.161548 0.0829865
v 0.40856921 0.25293135 0.08206328
v 0.47755706 0.22086548 0.07499101
v 0.43587812 0.31787976 0.07036754
v 0.50840365 0.27612653 0.06391599
v 0.46843177 0.38019987 0.05711516
v 0.54107719 0.32708361 0.05211785
v 0.50659608 0.43868941 0.04131099
v 0.58029574 0.37294229 0.03788223
v 0.55085283 0.49260109 0.0226812
v 0.62459439 0.41278073 0.021849
v 0.601718 0.54133176 0.00168231
v 0.6749863 0.44698509 0.00381687
v 0.46661832 0.56137007 0.02462551
v 0.51154327 0.62216687 0.00219252
v 0.55873435 0.6786462 -0.02217832
v 0.60690075 0.73249119 -0.04728135
v 0.41148379 0.69016116 0.00202831
v 0.45148041 0.75769698 -0.02411434
v 0.4943898 0.82213008 -0.05149075
v 0.33427158 0.82122564 -0.02649232
v 0.36922657 0.89575588 -0.05591002
v 0.20775446 0.86616385 -0.02858707
v 0.2301781 0.94765204 -0.05944857
v 0.07376099 0.88999229 -0.02978315
v 0.08181261 0.97463041 -0.06108799
v -0.06322323 0.89108163 -0.02985951
v -0.07004138 0.97578781 -0.0611408
v -0.1986829 0.86887943 -0.0288423
v -0.2199254 0.95097607 -0.05968365
v -0.32758143 0.82461321 -0.02671656
v -0.36173281 0.89991569 -0.05616989
v -0.44701942 0.76075971 -0.02425715
v -0.48970872 0.82573646 -0.0516642
v -0.55584138 0.68060618 -0.02212622
v -0.60391587 0.73491084 -0.04739239
v -0.29765224 0.74755877 0.00106504
v -0.18016529 0.78541529 0.00011763
v -0.16362954 0.70002502 0.02616295
v -0.05741157 0.80429911 -0.00030103
v -0.05235865 0.71594631 0.02627971
v -0.04850796 0.62637686 0.04948732
v -0.14979542 0.61277443 0.04902872
v -0.04666343 0.53688412 0.06881079
v -0.138655 0.52394312 0.06831285
v -0.04405618 0.44802978 0.08625313
v -0.12667843 0.43360754 0.08606001
v -0.03833187 0.35737299 0.100122
v -0.11504408 0.34398627 0.09973987
v -0.03466986 0.2645725 0.11133572
v -0.10563772 0.25428 0.11054065
v -0.03209269 0.17090007 0.11835643
v -0.09907949 0.16420932 0.11745157
v -0.03142133 0.07702693 0.12212851
v 0.03312374 0.17015953 0.11836561
v 0.03163246 0.07646998 0.12215641
v 0.03098615 -0.01624008 0.12347611
v 0.09594073 0.0723062 0.12081906
v 0.09416443 -0.01787487 0.12166801
v 0.09428881 -0.10789734 0.11961975
v 0.15839834 -0.0196592 0.11915198
v 0.15872657 -0.10627967 0.11744633
v 0.1625069 -0.19274652 0.11260339
v 0.22380252 -0.10391124 0.11349132
v 0.22878414 -0.18603375 0.10848113
v 0.23833808 -0.26757818 0.10017654
v 0.29479366 -0.17794904 0.10260817
v 0.30611875 -0.25408425 0.09452274
v 0.32296934 -0.32915261 0.08379247
v 0.28887543 -0.10090259 0.10763016
v 0.28824338 -0.02345366 0.10955831
v 0.22327561 -0.0214877 0.11550697
v 0.22702792 0.06093883 0.11469277
v 0.29284656 0.05387076 0.10874924
v 0.16125153 0.06705155 0.11850115
v 0.16753278 0.15365389 0.11521771
v 0.23517279 0.14308539 0.11094239
v 0.09998607 0.16266091 0.11750933
v 0.10688549 0.25296443 0.11059477
v 0.17757648 0.24012172 0.10818031
v 0.03586648 0.26413801 0.11137011
v 0.0391993 0.35638043 0.10028913
v 0.11617647 0.34264355 0.09990021
v 0.12740336 0.43179813 0.08639988
v 0.20779973 0.41213437 0.08462026
v 0.19124704 0.3263008 0.0976943
v 0.04387891 0.44661381 0.08654806
v 0.04865085 0.53489714 0.06921663
v 0.13978533 0.52076578 0.06890425
v 0.15356721 0.60956615 0.04958626
v 0.24920763 0.58217585 0.04886767
v 0.22705499 0.4975644 0.06760802
v 0.0539045 0.6249054 0.04972818
v 0.05989574 0.71474933 0.02643659
v 0.16957201 0.69716584 0.02660349
v 0.18782579 0.78271967 0.00044485
v 0.30322748 0.74424219 0.00134959
v 0.27456069 0.66460049 0.02654859
v 0.06653033 0.80322206 -0.00019559
v 0.3739565 0.61895346 0.02592328
v 0.34042543 0.54399436 0.04733815
v 0.42656403 0.49593168 0.04486659
v 0.39181768 0.42667797 0.06175747
v 0.31113037 0.46606084 0.06520161
v 0.3620924 0.35501867 0.07642701
v 0.28611257 0.38655149 0.08130726
v 0.33743077 0.28155472 0.08903887
v 0.26488128 0.30608695 0.09406021
v 0.31735152 0.20673726 0.09813484
v 0.24775148 0.2248476 0.10402229
v 0.30246672 0.1307687 0.10490611
v -0.42332133 -0.15542902 0.08845552
v -0.37306696 -0.23591274 0.08824047
v -0.43856036 -0.21800309 0.08113327
v -0.39197909 -0.30446204 0.0780743
v -0.45700147 -0.27876585 0.07260677
v -0.41722339 -0.37079948 0.06531074
v -0.48595553 -0.33638835 0.0602518
v -0.4481877 -0.4351207 0.05051168
v -0.51680988 -0.39062887 0.04733654
v -0.48547589 -0.49620461 0.03306654
v -0.55567413 -0.43904051 0.0317792
v -0.53009885 -0.55282449 0.01266339
v -0.6010608 -0.48201629 0.01418533
v -0.5821945 -0.60473072 -0.01052668
v -0.65318125 -0.51906675 -0.00546458
v -0.44792854 -0.61151462 0.01395645
v -0.49166017 -0.67516672 -0.01040378
v -0.35739228 -0.65854263 0.01582422
v -0.39133465 -0.73072916 -0.00915697
v -0.26091486 -0.69433867 0.0174978
v -0.28487983 -0.77213102 -0.00787887
v -0.15935641 -0.71889782 0.01887252
v -0.17356288 -0.80010545 -0.00670078
v -0.05415001 -0.73142123 0.02004733
v -0.05869011 -0.81443977 -0.00552442
v 0.05685297 -0.81461322 -0.00535073
v -0.14665934 -0.63584125 0.04174992
v -0.23862481 -0.61394846 0.04036781
v -0.21777278 -0.53072708 0.06034937
v -0.32592552 -0.58324134 0.03838577
v -0.29778173 -0.50524163 0.05788579
v -0.2735888 -0.4258559 0.07483533
v -0.37483909 -0.47330224 0.0545136
v -0.34653961 -0.40072971 0.07047531
v -0.323816 -0.32679525 0.08421066
v -0.4086202 -0.54402107 0.03581097
v 0.6975184 0.61579376 -0.08541491
v 0.64606517 0.57518076 -0.0628179
v 0.74722462 0.47164955 -0.0665045
v 0.79134053 0.48467871 -0.08157059
v -0.71712368 0.46266761 -0.05621632
v -0.64337235 0.57502764 -0.06211122
v -0.69639104 0.6169914 -0.08543381
v -0.79128843 0.48461255 -0.08154848
v 0.70521277 -0.53842645 -0.06938591
v 0.62936729 -0.64150911 -0.07782009
v 0.68287426 -0.6900649 -0.10302838
v 0.79143554 -0.56454312 -0.09974768
v -0.68276184 -0.68997561 -0.1029841
v -0.62941771 -0.64166635 -0.07752767
v -0.70510596 -0.53849357 -0.06938108
v -0.79131728 -0.56453394 -0.0997217
v -0.57256025 -0.7852683 -0.10412147
v -0.52843767 -0.72394293 -0.07807955
v -0.45530384 -0.85560983 -0.10468617
v -0.4195339 -0.78740179 -0.07755842
v -0.33005639 -0.90717637 -0.10489812
v -0.30492511 -0.83387517 -0.07681247
v -0.20057269 -0.94426083 -0.10489359
v -0.1856738 -0.86535781 -0.07604906
v -0.06846081 -0.9604215 -0.10446533
v -0.06239627 -0.88105112 -0.07492968
v 0.06675911 -0.96053952 -0.10442748
v 0.06080401 -0.88113957 -0.07486346
v 0.19898933 -0.94444251 -0.10483548
v 0.18402139 -0.86576646 -0.07536539
v 0.32852309 -0.90765494 -0.10487863
v 0.30333876 -0.8342933 -0.07672688
v 0.45431548 -0.85637021 -0.10472956
v 0.41837522 -0.78794091 -0.07779738
v 0.57207292 -0.78577762 -0.10418126
v 0.52807384 -0.72425794 -0.07846316
v 0.57305508 -0.59392529 -0.05243501
v 0.48336878 -0.66397494 -0.0524505
v 0.38386243 -0.71889323 -0.05106958
v 0.44042441 -0.6013717 -0.02844122
v 0.35039362 -0.64803046 -0.02649232
v 0.27842634 -0.75961035 -0.04950019
v 0.25449344 -0.68323129 -0.02455976
v 0.31934571 -0.574629 -0.0043936
v 0.23215915 -0.60467952 -0.00215277
v 0.15422758 -0.70728647 -0.02262291
v 0.16870899 -0.78719532 -0.04770621
v 0.14109791 -0.62573546 -0.00015613
v 0.21162533 -0.52353268 0.01739218
v 0.1294125 -0.54203701 0.01919654
v 0.04653132 -0.63635993 0.00077989
v 0.05109051 -0.71939379 -0.02179506
v 0.04303793 -0.55229753 0.01981589
v 0.1170647 -0.45627278 0.0371069
v 0.03899057 -0.46838879 0.0371125
v -0.04721138 -0.55222529 0.01956823
v -0.04937003 -0.63622468 0.00042596
v -0.04305662 -0.46748468 0.03716519
v 0.03465116 -0.38030526 0.05192592
v -0.03713762 -0.37898758 0.05208453
v -0.11996263 -0.45471832 0.03678289
v -0.13325771 -0.54141205 0.01876857
v -0.10880597 -0.36812707 0.05160406
v -0.03369843 -0.28845131 0.06430056
v -0.10101033 -0.28093254 0.06341561
v -0.17988425 -0.35531753 0.04942199
v -0.19540233 -0.43870645 0.03498211
v -0.16849072 -0.27152413 0.06093964
v -0.09636482 -0.19333556 0.07160285
v -0.161217 -0.18722291 0.06907001
v -0.23556369 -0.2600905 0.05684784
v -0.24989175 -0.33967599 0.0458233
v -0.22603811 -0.17992503 0.06503441
v -0.15738135 -0.10225629 0.07370159
v -0.22107335 -0.09908716 0.06988105
v -0.29050779 -0.17180813 0.0592859
v -0.30189126 -0.24698707 0.05141171
v -0.28466007 -0.09589376 0.0642133
v -0.2203067 -0.01787889 0.07176902
v -0.28401681 -0.01969633 0.06597796
v -0.348288 -0.09270646 0.05673125
v -0.35474997 -0.16273801 0.05209979
v -0.3479408 -0.02242002 0.05855819
v -0.28836631 0.05628833 0.06502482
v -0.35318619 0.04772996 0.05740508
v -0.41186857 -0.02522697 0.05021277
v -0.41216379 -0.08906151 0.04870072
v -0.41793915 0.03827139 0.04919579
v -0.36408099 0.11696768 0.05363717
v -0.42960339 0.10081943 0.04588589
v -0.29777768 0.13155853 0.06122002
v -0.31232133 0.20590335 0.05455854
v -0.38069999 0.18470804 0.04756423
v -0.44893229 0.16031359 0.03944471
v -0.40241217 0.2505207 0.03864607
v -0.47175815 0.21791695 0.03157702
v -0.33169105 0.27931985 0.04549267
v -0.35611963 0.35142982 0.03305342
v -0.4295153 0.31387177 0.02715703
v -0.50201088 0.27174416 0.0207487
v -0.46162125 0.3747878 0.01411804
v -0.53424376 0.32160401 0.00910344
v -0.38544493 0.42192992 0.0185807
v -0.41922494 0.48965323 0.00199428
v -0.49859875 0.43205314 -0.00130245
v -0.57222002 0.36599457 -0.00467518
v -0.54128545 0.48457649 -0.01937374
v -0.61486429 0.40430668 -0.02008625
v -0.45771542 0.55365371 -0.01770374
v -0.50098818 0.61341953 -0.0395877
v -0.59019762 0.53205001 -0.03965482
v -0.66251641 0.43683579 -0.03711435
v -0.36540478 0.61151897 -0.01661822
v -0.40130719 0.68148964 -0.03997251
v -0.33364903 0.53803807 0.00429669
v -0.24292591 0.57610315 0.00570872
v -0.26616954 0.65688419 -0.01612106
v -0.30546397 0.4613029 0.02186849
v -0.22234095 0.49244213 0.02416387
v -0.28081852 0.38270482 0.0377821
v -0.20355416 0.40754899 0.0410808
v -0.25991827 0.30335024 0.05049589
v -0.1871369 0.32279616 0.05412235
v -0.2432813 0.22366341 0.06038168
v -0.17384676 0.23812167 0.06449773
v -0.23119542 0.14373469 0.06715944
v -0.16437521 0.15358975 0.07137671
v -0.22362846 0.06321995 0.0708718
v -0.1588196 0.06856192 0.07466957
v -0.15657053 -0.01682916 0.07530143
v -0.0930812 -0.01622602 0.07787278
v -0.0942513 0.07282403 0.07696613
v -0.09385493 -0.10496898 0.07586106
v -0.03125874 -0.10667201 0.07702466
v -0.03087135 -0.01563191 0.07970449
v -0.03208468 -0.1977151 0.07262572
v 0.03098716 -0.19819289 0.07259932
v 0.03045027 -0.10699915 0.07701835
v 0.03211717 -0.28951582 0.06412896
v 0.09938894 -0.28275108 0.06324735
v 0.09509569 -0.19488614 0.07150843
v 0.10662263 -0.37004581 0.05153432
v 0.17808529 -0.35782131 0.04942765
v 0.16712132 -0.27396875 0.06077423
v 0.19313871 -0.44091555 0.03488317
v 0.2677043 -0.42099773 0.03151014
v 0.24848602 -0.34236851 0.04557547
v 0.29158905 -0.49871927 0.01476481
v 0.36835542 -0.46690136 0.01138135
v 0.34013733 -0.39593273 0.02712187
v 0.40184947 -0.53554439 -0.00701484
v 0.47828272 -0.48714226 -0.00952336
v 0.44122216 -0.427863 0.00759431
v 0.52189487 -0.54278296 -0.0295467
v 0.59252208 -0.47235691 -0.02772495
v 0.54808789 -0.43041798 -0.01053306
v 0.64374321 -0.50866687 -0.0469993
v 0.51007628 -0.38304695 0.00466373
v 0.47983104 -0.33004578 0.0173057
v 0.41057935 -0.3652237 0.02218166
v 0.45188015 -0.2742649 0.02919611
v 0.38584664 -0.3005191 0.03467783
v 0.43334627 -0.21510385 0.03767779
v 0.36741739 -0.23346798 0.04466894
v 0.41840422 -0.15442648 0.04480287
v 0.35466191 -0.16501711 0.05192747
v 0.4122895 -0.09109371 0.04861787
v 0.34817388 -0.09531372 0.0566543
v 0.4118117 -0.0274358 0.05020287
v 0.34764292 -0.02499615 0.05854746
v 0.41756621 0.03593811 0.04930797
v 0.35289374 0.04522406 0.05752733
v 0.42894065 0.09865572 0.04611131
v 0.36369702 0.11449692 0.0538471
v 0.44829821 0.15847207 0.03967312
v 0.3804163 0.18252041 0.04775676
v 0.47108712 0.21661642 0.03182795
v 0.40234929 0.24854382 0.03887674
v 0.50157749 0.27092412 0.02091798
v 0.42930704 0.31247654 0.02735236
v 0.53371208 0.32107719 0.00931057
v 0.46143195 0.37394675 0.01427975
v 0.57210058 0.36592632 -0.00461992
v 0.4988316 0.43135243 -0.0012227
v 0.61556762 0.40489459 -0.02032992
v 0.54226523 0.48427635 -0.01951012
v 0.66497868 0.43834623 -0.03799352
v 0.59224277 0.53216123 -0.0401456
v 0.50338482 0.61184322 -0.03964826
v 0.45920291 0.55208081 -0.01759132
v 0.54997068 0.66755652 -0.06369802
v 0.59793049 0.72115308 -0.08869019
v 0.44441759 0.74531889 -0.06559333
v 0.40493947 0.67871332 -0.0398049
v 0.48713794 0.8094241 -0.09283629
v 0.36386367 0.88193255 -0.0971876
v 0.32906127 0.80780857 -0.06792357
v 0.22686031 0.93299293 -0.1006523
v 0.2045352 0.85198479 -0.06996825
v 0.0806203 0.95953214 -0.10224983
v 0.07261089 0.87541264 -0.07113394
v -0.06903585 0.96069222 -0.10230806
v -0.06224369 0.8764978 -0.07121399
v -0.21677628 0.93632072 -0.10090085
v -0.19561499 0.85468 -0.07022723
v -0.35650518 0.88609051 -0.09746459
v -0.32249048 0.81116527 -0.06815394
v -0.4825263 0.81302034 -0.09302017
v -0.44001743 0.74835354 -0.06573799
v -0.59497422 0.72353845 -0.08879771
v -0.54710942 0.66948342 -0.06364449
v -0.29293552 0.73517209 -0.04074826
v -0.17732226 0.77240282 -0.04167333
v -0.1610655 0.68851316 -0.01608309
v -0.05153271 0.70418191 -0.01596745
v -0.05650237 0.79097473 -0.04208216
v -0.14749734 0.60289627 0.0063571
v -0.04775331 0.61628705 0.00680962
v -0.13650031 0.5153495 0.02536425
v -0.04593083 0.52807879 0.02585831
v -0.12465527 0.42633268 0.04285368
v -0.04335568 0.44055235 0.04304137
v -0.11321261 0.33826527 0.05629876
v -0.03770664 0.35148921 0.05666986
v -0.10402402 0.25010722 0.06691196
v -0.034142 0.26033353 0.06768468
v -0.09770458 0.16176569 0.07368609
v -0.03164312 0.16840723 0.07457628
v -0.03092958 0.07586678 0.07829526
v 0.03112867 0.0753229 0.07832267
v 0.03265909 0.16767162 0.07458618
v 0.03043822 -0.01592896 0.07962456
v 0.0928156 -0.01756979 0.07783761
v 0.09460996 0.07129858 0.07700088
v 0.09298323 -0.10629768 0.07581833
v 0.15654076 -0.10465188 0.07367685
v 0.15631595 -0.01934208 0.07535108
v 0.16004213 -0.18958129 0.06893149
v 0.22515037 -0.18283037 0.06489434
v 0.2204255 -0.10219413 0.06979909
v 0.2344162 -0.2629275 0.05674585
v 0.3011932 -0.24962636 0.05117628
v 0.29004973 -0.17480483 0.05912587
v 0.3178012 -0.32343527 0.04062256
v 0.28429022 -0.09914033 0.06405291
v 0.2837122 -0.02302917 0.06594255
v 0.22001494 -0.02111638 0.07177355
v 0.28821009 0.05298163 0.06515052
v 0.22364889 0.06000955 0.070977
v 0.15907578 0.06612124 0.07471337
v 0.23148883 0.14074003 0.06730243
v 0.16508217 0.15126544 0.07149449
v 0.09860511 0.1602343 0.07374283
v 0.17479053 0.23611261 0.06459638
v 0.1052527 0.24882161 0.06696453
v 0.03532356 0.25991401 0.0677174
v 0.11432293 0.3369655 0.05645433
v 0.03858211 0.35051471 0.05683293
v 0.18820519 0.32088851 0.05428144
v 0.20447793 0.40523886 0.04143282
v 0.12536114 0.42455554 0.04319021
v 0.04318946 0.43914833 0.04333165
v 0.1375986 0.51220041 0.02595129
v 0.04789618 0.52610379 0.02625909
v 0.22351445 0.48940762 0.02466514
v 0.24537204 0.57277542 0.0061967
v 0.15120889 0.59973311 0.0069063
v 0.05307959 0.61483287 0.00704827
v 0.16691358 0.68569928 -0.01564833
v 0.05895845 0.70300066 -0.01581105
v 0.27023527 0.65364843 -0.01570215
v 0.2984153 0.73190641 -0.04046782
v 0.18485939 0.76974755 -0.04135075
v 0.06547956 0.78991121 -0.04197678
v 0.36804238 0.60872626 -0.01631578
v 0.33516356 0.53518694 0.00469353
v 0.41991755 0.487865 0.00226905
v 0.30629524 0.4584797 0.02228102
v 0.38577029 0.41980037 0.01887175
v 0.28154143 0.38009247 0.03816953
v 0.35634085 0.34910666 0.03335663
v 0.26066726 0.30099383 0.05070778
v 0.3320446 0.27683216 0.0457724
v 0.24379445 0.22108422 0.06050911
v 0.31231758 0.20330405 0.05470874
v 0.2976405 0.12856389 0.06137439
v -0.41783899 -0.15253272 0.04504492
v -0.43292948 -0.21390859 0.03784093
v -0.36757937 -0.23173789 0.04493632
v -0.4510988 -0.2734408 0.02948012
v -0.38621348 -0.29904788 0.034942
v -0.4797025 -0.33002674 0.01732257
v -0.41113203 -0.3643296 0.02237352
v -0.51004058 -0.38335505 0.00462636
v -0.44164839 -0.42769542 0.00779119
v -0.54811829 -0.43066492 -0.01059564
v -0.47821322 -0.48763406 -0.00932225
v -0.59264785 -0.47268313 -0.02782592
v -0.52201288 -0.54319846 -0.0293478
v -0.64382261 -0.50889259 -0.04707983
v -0.57323175 -0.59418821 -0.05214062
v -0.48383098 -0.66377711 -0.05202707
v -0.44082745 -0.60119617 -0.02807328
v -0.38507846 -0.71846568 -0.05079969
v -0.35169205 -0.64749372 -0.02623596
v -0.28028866 -0.75920087 -0.04953703
v -0.25671792 -0.68272471 -0.0245873
v -0.17063248 -0.78675246 -0.04837563
v -0.15667583 -0.70692265 -0.02323433
v -0.05759823 -0.80086076 -0.04721853
v -0.05312436 -0.71926021 -0.0220811
v 0.05594373 -0.80101543 -0.04704305
v -0.14424073 -0.62539511 -0.00077691
v -0.23484027 -0.60380756 -0.00213417
v -0.21430948 -0.52192789 0.01752737
v -0.29310509 -0.49688395 0.01509133
v -0.32079941 -0.5735712 -0.00408515
v -0.26920321 -0.41864222 0.0318028
v -0.34110736 -0.39392954 0.0274966
v -0.36905071 -0.46545869 0.011758
v -0.31868383 -0.32113313 0.04102829
v -0.4022423 -0.53493917 -0.00661847
v 0.69514459 0.5249508 -0.06460693
v 0.74303811 0.55218136 -0.08354899
v 0.75381535 0.56178236 -0.04214701
v 0.70567184 0.53440415 -0.02310368
v 0.7355439 -0.62916523 -0.1014364
v 0.66616445 -0.59149712 -0.07372841
v 0.74578195 -0.63998675 -0.06019762
v 0.67606788 -0.60232722 -0.0324088
v 0.51214969 -0.45962181 -0.01001355
v 0.55616158 -0.50861465 -0.02866193
v 0.56433731 -0.51818752 0.01334169
v 0.51948159 -0.46817204 0.03236571
v 0.60735052 -0.55256056 -0.04979744
v 0.61643737 -0.56300783 -0.00819078
v 0.47462776 -0.4061197 0.00617256
v 0.48121699 -0.41354131 0.0488843
v 0.44417867 -0.34815618 0.01981678
v 0.45029637 -0.35461896 0.06275096
v 0.41788435 -0.28778177 0.03201779
v 0.42367696 -0.29319813 0.07514497
v 0.39940393 -0.22455845 0.0412766
v 0.40494212 -0.22876136 0.08457103
v 0.38558766 -0.15987889 0.04846957
v 0.39100191 -0.16287148 0.09188291
v 0.37928026 -0.09326644 0.05275484
v 0.38467949 -0.09497056 0.0962378
v 0.37877565 -0.02617933 0.05449917
v 0.38423207 -0.02663799 0.09800574
v 0.38427108 0.04071907 0.05353948
v 0.38976752 0.04148983 0.09703561
v 0.39535123 0.10681165 0.05009439
v 0.40100458 0.10880069 0.09353289
v 0.41335004 0.17085292 0.04383501
v 0.41929927 0.17397703 0.08716455
v 0.43569853 0.23305377 0.03545698
v 0.44204002 0.23737406 0.07863107
v 0.46437031 0.29231709 0.02423051
v 0.4710651 0.29762285 0.0672371
v 0.49650037 0.34829562 0.01186808
v 0.50367689 0.3544296 0.05469086
v 0.5343793 0.39961007 -0.00287041
v 0.54235237 0.4067913 0.03964844
v 0.57782918 0.44576263 -0.01990726
v 0.58662992 0.45387452 0.02227774
v 0.62753158 0.48664572 -0.03910157
v 0.63726609 0.49555736 0.00271847
v -0.74709636 0.5462594 -0.0833576
v -0.68277841 0.51499229 -0.05896136
v -0.75791901 0.55589151 -0.04197368
v -0.69324261 0.52443486 -0.01743933
v -0.66985958 -0.58654028 -0.07317397
v -0.74076479 -0.62295043 -0.10124108
v -0.7511385 -0.63379681 -0.06004282
v -0.67987901 -0.59733951 -0.03187546
v -0.38241791 -0.09075854 0.05244055
v -0.38209796 -0.02391932 0.05409941
v -0.38758152 -0.02432275 0.09760329
v -0.38783133 -0.09241042 0.09592285
v -0.38778516 0.04267603 0.05301979
v -0.3933008 0.04350497 0.09651187
v -0.3990902 0.10833908 0.04949578
v -0.40476262 0.11035522 0.09293142
v -0.41715729 0.17167387 0.04322543
v -0.42313465 0.17482499 0.08655038
v -0.43946465 0.23309992 0.03486886
v -0.44582703 0.23744326 0.07803687
v -0.46825066 0.2913618 0.02373209
v -0.47496649 0.2966746 0.06673488
v -0.50042432 0.34637096 0.01143917
v -0.50763207 0.35250657 0.05425509
v -0.53793555 0.3967567 -0.00310465
v -0.5459308 0.40392717 0.03941205
v -0.58059948 0.44168701 -0.01975348
v -0.58940583 0.44977387 0.02243414
v -0.62883824 0.48117548 -0.03829786
v -0.6384837 0.49004504 0.00354996
v -0.3884595 -0.15728563 0.04832944
v -0.39388379 -0.16021199 0.09174487
v -0.40249729 -0.22221104 0.04114487
v -0.40806108 -0.22634378 0.084443
v -0.42088234 -0.28536531 0.03202512
v -0.42672136 -0.29073223 0.07515147
v -0.44777011 -0.34600141 0.01967576
v -0.45394793 -0.35241314 0.06260719
v -0.47819095 -0.40400332 0.00609996
v -0.48485261 -0.41134825 0.04881432
v -0.51556366 -0.45719495 -0.01000329
v -0.52298337 -0.46566131 0.03237822
v -0.5597549 -0.50552052 -0.02853414
v -0.56801492 -0.51499015 0.01347693
v -0.61095017 -0.54861384 -0.04943648
v -0.62012356 -0.55895906 -0.00782266
v 0.73801022 0.54799032 -0.10226449
v 0.69011622 0.52075994 -0.08332178
v 0.74850624 0.44884249 -0.08272656
v 0.79262274 0.46187174 -0.09779152
v 0.76950532 0.46635982 -0.00383231
v 0.81388145 0.47951617 -0.0189974
v 0.71069914 0.53859502 -0.00438824
v 0.758843 0.56597334 -0.02343091
v -0.71840244 0.43983849 -0.07240971
v -0.67773991 0.51077222 -0.07766768
v -0.74205702 0.54203927 -0.10206285
v -0.79256755 0.46178358 -0.09774121
v -0.81388145 0.47955054 -0.01898929
v -0.739317 0.45742592 0.00649026
v -0.76295751 0.5601114 -0.0232689
v -0.6982811 0.52865493 0.00126603
v 0.70695096 -0.51511675 -0.08484563
v 0.66135567 -0.58666265 -0.09234556
v 0.730735 -0.62433201 -0.12005481
v 0.79317444 -0.54123312 -0.11520728
v 0.81366592 -0.56172692 -0.03689989
v 0.72701102 -0.5355913 -0.00642141
v 0.75058966 -0.6448208 -0.04157885
v 0.68087714 -0.60716158 -0.01379087
v -0.73590546 -0.61810481 -0.11984202
v -0.66499906 -0.58169513 -0.09177646
v -0.70679944 -0.51518797 -0.08484199
v -0.79301124 -0.54122847 -0.11518225
v -0.72701758 -0.53559935 -0.00644263
v -0.81366175 -0.5617119 -0.03691467
v -0.68473833 -0.60218465 -0.01327535
v -0.75599759 -0.63864225 -0.04144206
v -0.56882244 -0.77989852 -0.12284377
v -0.5247007 -0.71857237 -0.0968022
v -0.62495917 -0.63672536 -0.09620741
v -0.67830377 -0.68503338 -0.12166348
v -0.64356559 -0.65759456 -0.01751568
v -0.5404033 -0.74119615 -0.01795133
v -0.58456176 -0.80251443 -0.04399594
v -0.69717472 -0.70592016 -0.04303845
v -0.45235523 -0.84970331 -0.12338683
v -0.41658553 -0.78149509 -0.09625867
v -0.42900747 -0.80625671 -0.0174677
v -0.46477335 -0.87458062 -0.04463073
v -0.32784947 -0.90084081 -0.1235592
v -0.30271828 -0.8275392 -0.09547349
v -0.31196519 -0.85399007 -0.01679971
v -0.33714443 -0.92752134 -0.04496952
v -0.19917158 -0.93764239 -0.12353608
v -0.18427287 -0.85873925 -0.09469053
v -0.1901506 -0.88630133 -0.01607033
v -0.20507158 -0.96551513 -0.04502543
v -0.06797708 -0.95358783 -0.12307778
v -0.06191259 -0.8742184 -0.09354153
v -0.06397586 -0.90257787 -0.01500585
v -0.07001429 -0.98236507 -0.04469546
v 0.06631156 -0.95366615 -0.12302485
v 0.06035642 -0.87426638 -0.09346005
v 0.06222302 -0.90276432 -0.01497355
v 0.0681952 -0.98261433 -0.04470458
v 0.19758351 -0.9377498 -0.12345245
v 0.18261526 -0.85907334 -0.09398219
v 0.18850323 -0.8868609 -0.01543328
v 0.20350445 -0.9659354 -0.0450482
v 0.32628932 -0.90130126 -0.12353143
v 0.3011049 -0.82794028 -0.09537872
v 0.31050121 -0.85441225 -0.01673039
v 0.33569949 -0.92805838 -0.04498073
v 0.45138406 -0.85050857 -0.12344804
v 0.41544359 -0.78208071 -0.0965155
v 0.42782861 -0.80667054 -0.0176638
v 0.46373108 -0.87519186 -0.04461821
v 0.5683797 -0.78046882 -0.12292906
v 0.5243811 -0.71894908 -0.09721115
v 0.5399391 -0.74136573 -0.01827523
v 0.58393365 -0.80282795 -0.04397383
v 0.67847722 -0.68516391 -0.12173256
v 0.62497049 -0.63660901 -0.09652456
v 0.64336985 -0.65738058 -0.01775941
v 0.6971181 -0.70589983 -0.04301342
v 0.64135116 0.57070905 -0.08155462
v 0.69280487 0.61132228 -0.10415169
v 0.59387332 0.71602463 -0.10741385
v 0.54591423 0.66242885 -0.08242222
v 0.6109566 0.73761844 -0.0285559
v 0.7126947 0.63018715 -0.02526184
v 0.66100102 0.58940756 -0.00256517
v 0.56279093 0.68377351 -0.00345388
v 0.48385846 0.80367893 -0.11153253
v 0.44113794 0.73957359 -0.08428987
v 0.4547601 0.76344203 -0.00541839
v 0.49766942 0.82787585 -0.03279379
v 0.36143809 0.87568169 -0.1158531
v 0.32663536 0.80155706 -0.08658942
v 0.33669719 0.82747638 -0.00782617
v 0.37165218 0.90200704 -0.03724482
v 0.22536 0.92636346 -0.11928311
v 0.20303475 0.84535443 -0.08859911
v 0.2092549 0.872792 -0.00995633
v 0.23167844 0.95428067 -0.04081764
v 0.08008137 0.95270484 -0.12086316
v 0.07207199 0.86858558 -0.08974733
v 0.07429988 0.89681947 -0.01116994
v 0.08235151 0.98145777 -0.04247543
v -0.06858122 0.953866 -0.12092319
v -0.06178906 0.86967074 -0.0898287
v -0.06367781 0.89790856 -0.01124402
v -0.07049597 0.98261433 -0.0425246
v -0.21535211 0.92969346 -0.11953869
v -0.19419102 0.84805238 -0.08886501
v -0.20010697 0.87550711 -0.01020392
v -0.22134934 0.95760333 -0.04104545
v -0.35414165 0.87983828 -0.11613825
v -0.32012713 0.80491316 -0.08682712
v -0.32994493 0.83086574 -0.00804284
v -0.36409604 0.90616762 -0.03749677
v -0.47927874 0.80726999 -0.11172077
v -0.43677002 0.74260318 -0.0844396
v -0.45026701 0.76651001 -0.00555536
v -0.49295646 0.83148676 -0.03296306
v -0.59093064 0.71839547 -0.1075215
v -0.54306596 0.66434019 -0.08236852
v -0.55988496 0.68574839 -0.00340274
v -0.60795921 0.74005317 -0.02866944
v -0.69167929 0.61249053 -0.10416367
v -0.63866049 0.57052648 -0.08084055
v -0.65823441 0.58931022 -0.00185462
v -0.71156579 0.63147395 -0.02530261
g Group33968
f 7 647 646 323
f 2 693 691 330
f 3 651 649 334
f 16 697 696 335
f 18 16 335 339
f 20 18 339 341
f 22 20 341 343
f 24 22 343 345
f 26 24 345 347
f 28 26 347 349
f 30 28 349 351
f 32 30 351 353
f 34 32 353 355
f 36 34 355 357
f 11 36 357 333
g Group33965
f 358 360 359 332
g Group33774
f 35 12 38 37
g Group33965
f 358 356 361 360
g Group33774
f 35 37 39 33
g Group33965
f 361 363 362 360
g Group33774
f 39 37 41 40
g Group33965
f 361 356 354 364
g Group33774
f 39 42 31 33
g Group33965
f 361 364 365 363
g Group33774
f 39 40 43 42
g Group33965
f 365 367 366 363
g Group33774
f 43 40 45 44
g Group33965
f 365 364 369 368
g Group33774
f 43 47 46 42
g Group33965
f 365 368 370 367
g Group33774
f 43 44 48 47
g Group33965
f 370 372 371 367
g Group33774
f 48 44 50 49
g Group33965
f 370 368 374 373
g Group33774
f 48 52 51 47
g Group33965
f 370 373 375 372
g Group33774
f 48 49 53 52
g Group33965
f 375 377 376 372
g Group33774
f 53 49 55 54
g Group33965
f 375 373 379 378
g Group33774
f 53 57 56 52
g Group33965
f 375 378 380 377
g Group33774
f 53 54 58 57
g Group33965
f 380 382 381 377
g Group33774
f 58 54 60 59
g Group33965
f 380 378 384 383
g Group33774
f 58 62 61 57
g Group33965
f 380 383 385 382
g Group33774
f 58 59 63 62
g Group33965
f 385 387 386 382
g Group33774
f 63 59 65 64
g Group33965
f 385 383 389 388
g Group33774
f 63 67 66 62
g Group33965
f 385 388 390 387
g Group33774
f 63 64 68 67
g Group33965
f 390 392 391 387
g Group33774
f 68 64 70 69
g Group33965
f 390 388 394 393
g Group33774
f 68 72 71 67
g Group33965
f 390 393 395 392
g Group33774
f 68 69 73 72
g Group33965
f 395 397 396 392
g Group33774
f 73 69 75 74
g Group33965
f 395 393 399 398
g Group33774
f 73 77 76 72
g Group33965
f 395 398 400 397
g Group33774
f 73 74 78 77
g Group33965
f 400 402 401 397
g Group33774
f 78 74 80 79
g Group33965
f 400 398 404 403
g Group33774
f 78 82 81 77
g Group33965
f 400 403 405 402
g Group33774
f 78 79 83 82
g Group33965
f 405 407 406 402
g Group33774
f 83 79 85 84
g Group33965
f 405 403 699 700
g Group33968
f 86 87 408 409
g Group33774
f 83 701 702 82
g Group33965
f 405 700 703 407
g Group33968
f 87 88 410 408
g Group33774
f 83 84 704 701
g Group33965
f 410 412 705 703
g Group33968
f 88 89 412 410
g Group33774
f 88 704 706 89
g Group33965
f 411 415 414 413
g Group33774
f 90 93 92 91
g Group33965
f 411 413 406 407
g Group33774
f 90 84 85 93
g Group33965
f 411 705 707 415
g Group33968
f 89 94 416 412
g Group33774
f 90 91 708 706
g Group33965
f 416 418 709 707
g Group33968
f 94 95 418 416
g Group33774
f 94 708 710 95
g Group33965
f 417 421 420 419
g Group33774
f 96 99 98 97
g Group33965
f 417 419 414 415
g Group33774
f 96 91 92 99
g Group33965
f 417 709 711 421
g Group33968
f 95 100 422 418
g Group33774
f 96 97 712 710
g Group33965
f 422 424 713 711
g Group33968
f 100 101 424 422
g Group33774
f 100 712 714 101
g Group33965
f 423 427 426 425
g Group33774
f 102 105 104 103
g Group33965
f 423 425 420 421
g Group33774
f 102 97 98 105
g Group33965
f 423 713 715 427
g Group33968
f 101 106 428 424
g Group33774
f 102 103 716 714
g Group33965
f 428 430 717 715
g Group33968
f 106 107 430 428
g Group33774
f 106 716 718 107
g Group33965
f 429 433 432 431
g Group33774
f 108 111 110 109
g Group33965
f 429 431 426 427
g Group33774
f 108 103 104 111
g Group33965
f 429 717 719 433
g Group33968
f 107 112 434 430
g Group33774
f 108 109 720 718
g Group33965
f 434 327 692 719
g Group33968
f 112 10 327 434
g Group33774
f 112 720 694 10
g Group33965
f 431 432 436 435
g Group33774
f 111 114 113 110
g Group33965
f 431 435 437 426
g Group33774
f 111 104 115 114
g Group33965
f 437 435 439 438
g Group33774
f 115 117 116 114
g Group33965
f 437 438 441 440
g Group33774
f 115 119 118 117
g Group33965
f 437 440 425 426
g Group33774
f 115 104 105 119
g Group33965
f 440 441 443 442
g Group33774
f 119 121 120 118
g Group33965
f 440 442 420 425
g Group33774
f 119 105 98 121
g Group33965
f 442 443 445 444
g Group33774
f 121 123 122 120
g Group33965
f 442 444 419 420
g Group33774
f 121 98 99 123
g Group33965
f 444 445 447 446
g Group33774
f 123 125 124 122
g Group33965
f 444 446 414 419
g Group33774
f 123 99 92 125
g Group33965
f 446 447 449 448
g Group33774
f 125 127 126 124
g Group33965
f 446 448 413 414
g Group33774
f 125 92 93 127
g Group33965
f 448 449 451 450
g Group33774
f 127 129 128 126
g Group33965
f 448 450 406 413
g Group33774
f 127 93 85 129
g Group33965
f 450 451 452 401
g Group33774
f 129 80 130 128
g Group33965
f 450 401 402 406
g Group33774
f 129 85 79 80
g Group33965
f 452 451 454 453
g Group33774
f 130 132 131 128
g Group33965
f 452 453 455 396
g Group33774
f 130 75 133 132
g Group33965
f 452 396 397 401
g Group33774
f 130 80 74 75
g Group33965
f 455 453 457 456
g Group33774
f 133 135 134 132
g Group33965
f 455 456 458 391
g Group33774
f 133 70 136 135
g Group33965
f 455 391 392 396
g Group33774
f 133 75 69 70
g Group33965
f 458 456 460 459
g Group33774
f 136 138 137 135
g Group33965
f 458 459 461 386
g Group33774
f 136 65 139 138
g Group33965
f 458 386 387 391
g Group33774
f 136 70 64 65
g Group33965
f 461 459 463 462
g Group33774
f 139 141 140 138
g Group33965
f 461 462 464 381
g Group33774
f 139 60 142 141
g Group33965
f 461 381 382 386
g Group33774
f 139 65 59 60
g Group33965
f 464 462 466 465
g Group33774
f 142 144 143 141
g Group33965
f 464 465 467 376
g Group33774
f 142 55 145 144
g Group33965
f 464 376 377 381
g Group33774
f 142 60 54 55
g Group33965
f 467 465 469 468
g Group33774
f 145 147 146 144
g Group33965
f 467 468 470 371
g Group33774
f 145 50 148 147
g Group33965
f 467 371 372 376
g Group33774
f 145 55 49 50
g Group33965
f 470 468 472 471
g Group33774
f 148 150 149 147
g Group33965
f 470 471 473 366
g Group33774
f 148 45 151 150
g Group33965
f 470 366 367 371
g Group33774
f 148 50 44 45
g Group33965
f 473 471 475 474
g Group33774
f 151 153 152 150
g Group33965
f 473 474 476 362
g Group33774
f 151 41 154 153
g Group33965
f 473 362 363 366
g Group33774
f 151 45 40 41
g Group33965
f 476 474 653 654
g Group33968
f 155 156 477 478
g Group33774
f 154 655 656 153
g Group33965
f 476 654 657 359
g Group33968
f 156 157 479 477
g Group33774
f 154 38 658 655
g Group33965
f 476 359 360 362
g Group33774
f 154 41 37 38
g Group33965
f 479 331 650 657
g Group33968
f 157 13 331 479
g Group33774
f 157 658 652 13
g Group33965
f 478 653 659 480
g Group33968
f 158 155 478 480
g Group33774
f 155 158 660 656
g Group33965
f 480 659 661 481
g Group33968
f 160 158 480 481
g Group33774
f 158 160 662 660
g Group33965
f 481 661 663 483
g Group33968
f 162 160 481 483
g Group33774
f 160 162 664 662
g Group33965
f 483 663 665 485
g Group33968
f 164 162 483 485
g Group33774
f 162 164 666 664
g Group33965
f 485 665 667 487
g Group33968
f 166 164 485 487
g Group33774
f 164 166 668 666
g Group33965
f 487 667 669 489
g Group33968
f 168 166 487 489
g Group33774
f 166 168 670 668
g Group33965
f 489 669 671 491
g Group33968
f 170 168 489 491
g Group33774
f 168 170 672 670
g Group33965
f 491 671 673 493
g Group33968
f 172 170 491 493
g Group33774
f 170 172 674 672
g Group33965
f 493 673 675 495
g Group33968
f 174 172 493 495
g Group33774
f 172 174 676 674
g Group33965
f 495 675 677 497
g Group33968
f 176 174 495 497
g Group33774
f 174 176 678 676
g Group33965
f 497 677 679 499
g Group33968
f 178 176 497 499
g Group33774
f 176 178 680 678
g Group33965
f 499 679 681 501
g Group33968
f 180 178 499 501
g Group33774
f 178 180 682 680
g Group33965
f 501 681 683 503
g Group33968
f 182 180 501 503
g Group33774
f 180 182 684 682
g Group33965
f 503 683 685 505
g Group33968
f 184 182 503 505
g Group33774
f 182 184 686 684
g Group33965
f 505 685 687 507
g Group33968
f 186 184 505 507
g Group33774
f 184 186 688 686
g Group33965
f 507 687 689 509
g Group33968
f 188 186 507 509
g Group33774
f 186 188 690 688
g Group33965
f 509 689 645 325
g Group33968
f 5 188 509 325
g Group33774
f 188 5 648 690
g Group33965
f 510 508 512 511
g Group33774
f 187 190 189 185
g Group33965
f 510 511 513 324
g Group33774
f 187 6 191 190
g Group33968
f 192 7 323 514
g Group33965
f 513 511 516 515
g Group33774
f 191 194 193 190
g Group33968
f 195 192 514 517
f 197 195 517 518
f 199 197 518 520
f 201 199 520 522
f 203 201 522 524
f 205 203 524 526
f 207 205 526 528
f 209 207 528 530
f 211 209 530 532
f 8 211 532 329
g Group33965
f 533 531 436 432
g Group33774
f 210 110 113 208
g Group33965
f 533 432 433 328
g Group33774
f 210 9 109 110
g Group33965
f 531 529 534 436
g Group33774
f 208 113 212 206
g Group33965
f 534 529 527 535
g Group33774
f 212 213 204 206
g Group33965
f 534 535 536 439
g Group33774
f 212 116 214 213
g Group33965
f 534 439 435 436
g Group33774
f 212 113 114 116
g Group33965
f 536 535 538 537
g Group33774
f 214 216 215 213
g Group33965
f 536 537 540 539
g Group33774
f 214 218 217 216
g Group33965
f 536 539 438 439
g Group33774
f 214 116 117 218
g Group33965
f 539 540 542 541
g Group33774
f 218 220 219 217
g Group33965
f 539 541 441 438
g Group33774
f 218 117 118 220
g Group33965
f 541 542 544 543
g Group33774
f 220 222 221 219
g Group33965
f 541 543 443 441
g Group33774
f 220 118 120 222
g Group33965
f 543 544 546 545
g Group33774
f 222 224 223 221
g Group33965
f 543 545 445 443
g Group33774
f 222 120 122 224
g Group33965
f 545 546 548 547
g Group33774
f 224 226 225 223
g Group33965
f 545 547 447 445
g Group33774
f 224 122 124 226
g Group33965
f 547 548 550 549
g Group33774
f 226 228 227 225
g Group33965
f 547 549 449 447
g Group33774
f 226 124 126 228
g Group33965
f 549 550 551 454
g Group33774
f 228 131 229 227
g Group33965
f 549 454 451 449
g Group33774
f 228 126 128 131
g Group33965
f 551 550 553 552
g Group33774
f 229 231 230 227
g Group33965
f 551 552 554 457
g Group33774
f 229 134 232 231
g Group33965
f 551 457 453 454
g Group33774
f 229 131 132 134
g Group33965
f 554 552 556 555
g Group33774
f 232 234 233 231
g Group33965
f 554 555 557 460
g Group33774
f 232 137 235 234
g Group33965
f 554 460 456 457
g Group33774
f 232 134 135 137
g Group33965
f 557 555 559 558
g Group33774
f 235 237 236 234
g Group33965
f 557 558 560 463
g Group33774
f 235 140 238 237
g Group33965
f 557 463 459 460
g Group33774
f 235 137 138 140
g Group33965
f 560 558 562 561
g Group33774
f 238 240 239 237
g Group33965
f 560 561 563 466
g Group33774
f 238 143 241 240
g Group33965
f 560 466 462 463
g Group33774
f 238 140 141 143
g Group33965
f 563 561 565 564
g Group33774
f 241 243 242 240
g Group33965
f 563 564 566 469
g Group33774
f 241 146 244 243
g Group33965
f 563 469 465 466
g Group33774
f 241 143 144 146
g Group33965
f 566 564 486 484
g Group33774
f 244 161 163 243
g Group33965
f 566 484 482 472
g Group33774
f 244 149 159 161
g Group33965
f 566 472 468 469
g Group33774
f 244 146 147 149
g Group33965
f 564 565 488 486
g Group33774
f 243 163 165 242
g Group33965
f 565 567 490 488
g Group33774
f 242 165 167 245
g Group33965
f 565 561 562 567
g Group33774
f 242 245 239 240
g Group33965
f 567 568 492 490
g Group33774
f 245 167 169 246
g Group33965
f 567 562 569 568
g Group33774
f 245 246 247 239
g Group33965
f 569 571 570 568
g Group33774
f 247 246 249 248
g Group33965
f 569 562 558 559
g Group33774
f 247 236 237 239
g Group33965
f 569 559 572 571
g Group33774
f 247 248 250 236
g Group33965
f 572 574 573 571
g Group33774
f 250 248 252 251
g Group33965
f 572 559 555 556
g Group33774
f 250 233 234 236
g Group33965
f 572 556 575 574
g Group33774
f 250 251 253 233
g Group33965
f 575 577 576 574
g Group33774
f 253 251 255 254
g Group33965
f 575 556 552 553
g Group33774
f 253 230 231 233
g Group33965
f 575 553 578 577
g Group33774
f 253 254 256 230
g Group33965
f 578 580 579 577
g Group33774
f 256 254 258 257
g Group33965
f 578 553 550 548
g Group33774
f 256 225 227 230
g Group33965
f 578 548 546 580
g Group33774
f 256 257 223 225
g Group33965
f 579 583 582 581
g Group33774
f 258 261 260 259
g Group33965
f 579 581 576 577
g Group33774
f 258 254 255 261
g Group33965
f 579 580 584 583
g Group33774
f 258 259 262 257
g Group33965
f 584 586 585 583
g Group33774
f 262 259 264 263
g Group33965
f 584 580 546 544
g Group33774
f 262 221 223 257
g Group33965
f 584 544 542 586
g Group33774
f 262 263 219 221
g Group33965
f 585 589 588 587
g Group33774
f 264 267 266 265
g Group33965
f 585 587 582 583
g Group33774
f 264 259 260 267
g Group33965
f 585 586 590 589
g Group33774
f 264 265 268 263
g Group33965
f 590 592 591 589
g Group33774
f 268 265 270 269
g Group33965
f 590 586 542 540
g Group33774
f 268 217 219 263
g Group33965
f 590 540 537 592
g Group33774
f 268 269 216 217
g Group33965
f 591 595 594 593
g Group33774
f 270 273 272 271
g Group33965
f 591 593 588 589
g Group33774
f 270 265 266 273
g Group33965
f 591 592 596 595
g Group33774
f 270 271 274 269
g Group33965
f 596 523 521 595
g Group33774
f 274 271 198 200
g Group33965
f 596 592 537 538
g Group33774
f 274 215 216 269
g Group33965
f 596 538 525 523
g Group33774
f 274 200 202 215
g Group33965
f 593 594 516 597
g Group33774
f 273 275 193 272
g Group33965
f 593 597 598 588
g Group33774
f 273 266 276 275
g Group33965
f 598 597 512 599
g Group33774
f 276 277 189 275
g Group33965
f 598 599 601 600
g Group33774
f 276 279 278 277
g Group33965
f 598 600 587 588
g Group33774
f 276 266 267 279
g Group33965
f 600 601 603 602
g Group33774
f 279 281 280 278
g Group33965
f 600 602 582 587
g Group33774
f 279 267 260 281
g Group33965
f 602 603 605 604
g Group33774
f 281 283 282 280
g Group33965
f 602 604 581 582
g Group33774
f 281 260 261 283
g Group33965
f 604 605 607 606
g Group33774
f 283 285 284 282
g Group33965
f 604 606 576 581
g Group33774
f 283 261 255 285
g Group33965
f 606 607 608 573
g Group33774
f 285 252 286 284
g Group33965
f 606 573 574 576
g Group33774
f 285 255 251 252
g Group33965
f 608 607 498 496
g Group33774
f 286 173 175 284
g Group33965
f 608 496 494 570
g Group33774
f 286 249 171 173
g Group33965
f 608 570 571 573
g Group33774
f 286 252 248 249
g Group33965
f 607 605 500 498
g Group33774
f 284 175 177 282
g Group33965
f 605 603 502 500
g Group33774
f 282 177 179 280
g Group33965
f 603 601 504 502
g Group33774
f 280 179 181 278
g Group33965
f 601 599 506 504
g Group33774
f 278 181 183 277
g Group33965
f 599 512 508 506
g Group33774
f 277 183 185 189
g Group33965
f 597 516 511 512
g Group33774
f 275 189 190 193
g Group33965
f 594 519 515 516
g Group33774
f 272 193 194 196
g Group33965
f 594 595 521 519
g Group33774
f 272 196 198 271
g Group33965
f 570 494 492 568
g Group33774
f 249 246 169 171
g Group33965
f 538 535 527 525
g Group33774
f 215 202 204 213
g Group33965
f 482 475 471 472
g Group33774
f 159 149 150 152
g Group33965
f 409 699 721 609
g Group33968
f 287 86 409 609
g Group33774
f 86 287 722 702
g Group33965
f 609 721 723 610
g Group33968
f 289 287 609 610
g Group33774
f 287 289 724 722
g Group33965
f 610 723 725 612
g Group33968
f 291 289 610 612
g Group33774
f 289 291 726 724
g Group33965
f 612 725 727 614
g Group33968
f 293 291 612 614
g Group33774
f 291 293 728 726
g Group33965
f 614 727 729 616
g Group33968
f 295 293 614 616
g Group33774
f 293 295 730 728
g Group33965
f 616 729 731 618
g Group33968
f 297 295 616 618
g Group33774
f 295 297 732 730
g Group33965
f 618 731 733 620
g Group33968
f 299 297 618 620
g Group33774
f 297 299 734 732
g Group33965
f 620 733 735 622
g Group33968
f 301 299 620 622
g Group33774
f 299 301 736 734
g Group33965
f 622 735 695 337
g Group33968
f 14 301 622 337
g Group33774
f 301 14 698 736
g Group33965
f 623 621 625 624
g Group33774
f 300 303 302 298
g Group33965
f 623 624 340 336
g Group33774
f 300 15 17 303
g Group33965
f 624 625 627 626
g Group33774
f 303 305 304 302
g Group33965
f 624 626 342 340
g Group33774
f 303 17 19 305
g Group33965
f 626 627 629 628
g Group33774
f 305 307 306 304
g Group33965
f 626 628 344 342
g Group33774
f 305 19 21 307
g Group33965
f 628 629 631 630
g Group33774
f 307 309 308 306
g Group33965
f 628 630 346 344
g Group33774
f 307 21 23 309
g Group33965
f 630 631 633 632
g Group33774
f 309 311 310 308
g Group33965
f 630 632 348 346
g Group33774
f 309 23 25 311
g Group33965
f 632 633 374 634
g Group33774
f 311 312 51 310
g Group33965
f 632 634 350 348
g Group33774
f 311 25 27 312
g Group33965
f 634 374 368 369
g Group33774
f 312 46 47 51
g Group33965
f 634 369 352 350
g Group33774
f 312 27 29 46
g Group33965
f 633 379 373 374
g Group33774
f 310 51 52 56
g Group33965
f 633 631 635 379
g Group33774
f 310 56 313 308
g Group33965
f 635 384 378 379
g Group33774
f 313 56 57 61
g Group33965
f 635 631 629 636
g Group33774
f 313 314 306 308
g Group33965
f 635 636 637 384
g Group33774
f 313 61 315 314
g Group33965
f 637 389 383 384
g Group33774
f 315 61 62 66
g Group33965
f 637 636 639 638
g Group33774
f 315 317 316 314
g Group33965
f 637 638 640 389
g Group33774
f 315 66 318 317
g Group33965
f 640 394 388 389
g Group33774
f 318 66 67 71
g Group33965
f 640 638 642 641
g Group33774
f 318 320 319 317
g Group33965
f 640 641 643 394
g Group33774
f 318 71 321 320
g Group33965
f 643 399 393 394
g Group33774
f 321 71 72 76
g Group33965
f 643 641 615 613
g Group33774
f 321 290 292 320
g Group33965
f 643 613 611 399
g Group33774
f 321 76 288 290
g Group33965
f 641 642 617 615
g Group33774
f 320 292 294 319
g Group33965
f 642 638 639 644
g Group33774
f 319 322 316 317
g Group33965
f 642 644 619 617
g Group33774
f 319 294 296 322
g Group33965
f 644 639 627 625
g Group33774
f 322 302 304 316
g Group33965
f 644 625 621 619
g Group33774
f 322 296 298 302
g Group33965
f 639 636 629 627
g Group33774
f 316 304 306 314
g Group33965
f 611 404 398 399
g Group33774
f 288 76 77 81
g Group33965
f 369 364 354 352
g Group33774
f 46 29 31 42
g Group33968
f 647 1 326 646
f 651 11 333 649
g Group33965
f 654 653 478 477
g Group33774
f 655 156 155 656
g Group33965
f 654 477 479 657
g Group33774
f 655 658 157 156
g Group33965
f 657 650 332 359
g Group33774
f 658 38 12 652
g Group33965
f 653 474 475 659
g Group33774
f 656 660 152 153
g Group33965
f 659 475 482 661
g Group33774
f 660 662 159 152
g Group33965
f 661 482 484 663
g Group33774
f 662 664 161 159
g Group33965
f 663 484 486 665
g Group33774
f 664 666 163 161
g Group33965
f 665 486 488 667
g Group33774
f 666 668 165 163
g Group33965
f 667 488 490 669
g Group33774
f 668 670 167 165
g Group33965
f 669 490 492 671
g Group33774
f 670 672 169 167
g Group33965
f 671 492 494 673
g Group33774
f 672 674 171 169
g Group33965
f 673 494 496 675
g Group33774
f 674 676 173 171
g Group33965
f 675 496 498 677
g Group33774
f 676 678 175 173
g Group33965
f 677 498 500 679
g Group33774
f 678 680 177 175
g Group33965
f 679 500 502 681
g Group33774
f 680 682 179 177
g Group33965
f 681 502 504 683
g Group33774
f 682 684 181 179
g Group33965
f 683 504 506 685
g Group33774
f 684 686 183 181
g Group33965
f 685 506 508 687
g Group33774
f 686 688 185 183
g Group33965
f 687 508 510 689
g Group33774
f 688 690 187 185
g Group33965
f 689 510 324 645
g Group33774
f 690 648 6 187
g Group33968
f 693 8 329 691
f 697 4 338 696
g Group33965
f 700 699 409 408
g Group33774
f 701 87 86 702
g Group33965
f 700 408 410 703
g Group33774
f 701 704 88 87
g Group33965
f 703 705 411 407
g Group33774
f 704 84 90 706
g Group33965
f 705 412 416 707
g Group33774
f 706 708 94 89
g Group33965
f 707 709 417 415
g Group33774
f 708 91 96 710
g Group33965
f 709 418 422 711
g Group33774
f 710 712 100 95
g Group33965
f 711 713 423 421
g Group33774
f 712 97 102 714
g Group33965
f 713 424 428 715
g Group33774
f 714 716 106 101
g Group33965
f 715 717 429 427
g Group33774
f 716 103 108 718
g Group33965
f 717 430 434 719
g Group33774
f 718 720 112 107
g Group33965
f 719 692 328 433
g Group33774
f 720 109 9 694
g Group33965
f 699 403 404 721
g Group33774
f 702 722 81 82
g Group33965
f 721 404 611 723
g Group33774
f 722 724 288 81
g Group33965
f 723 611 613 725
g Group33774
f 724 726 290 288
g Group33965
f 725 613 615 727
g Group33774
f 726 728 292 290
g Group33965
f 727 615 617 729
g Group33774
f 728 730 294 292
g Group33965
f 729 617 619 731
g Group33774
f 730 732 296 294
g Group33965
f 731 619 621 733
g Group33774
f 732 734 298 296
g Group33965
f 733 621 623 735
g Group33774
f 734 736 300 298
g Group33965
f 735 623 336 695
g Group33774
f 736 698 15 300
g Group33965
f 740 739 738 737
g Group33968
f 646 326 740 737
f 325 645 738 739
g Group33965
f 742 741 739 740
g Group33968
f 326 1 742 740
f 5 325 739 741
g Group33965
f 742 744 743 741
g Group33968
f 648 5 741 743
f 1 647 744 742
g Group33965
f 748 747 746 745
g Group33968
f 692 327 745 746
f 330 691 747 748
g Group33965
f 750 749 748 745
g Group33968
f 327 10 750 745
f 2 330 748 749
g Group33965
f 749 750 752 751
g Group33968
f 693 2 749 751
f 10 694 752 750
g Group33965
f 756 755 754 753
g Group33968
f 650 331 753 754
f 334 649 755 756
g Group33965
f 758 757 756 753
g Group33968
f 331 13 758 753
f 3 334 756 757
g Group33965
f 757 758 760 759
g Group33968
f 651 3 757 759
f 13 652 760 758
g Group33965
f 764 763 762 761
g Group33968
f 696 338 764 761
f 337 695 762 763
g Group33965
f 766 765 763 764
g Group33968
f 338 4 766 764
f 14 337 763 765
g Group33965
f 766 768 767 765
g Group33968
f 698 14 765 767
f 4 697 768 766
g Group33965
f 772 771 770 769
g Group33968
f 339 335 772 769
f 336 340 770 771
g Group33965
f 776 775 774 773
g Group33968
f 17 15 773 774
f 16 18 775 776
g Group33965
f 769 770 778 777
g Group33968
f 341 339 769 777
f 340 342 778 770
g Group33965
f 775 780 779 774
g Group33968
f 19 17 774 779
f 18 20 780 775
g Group33965
f 777 778 782 781
g Group33968
f 343 341 777 781
f 342 344 782 778
g Group33965
f 780 784 783 779
g Group33968
f 21 19 779 783
f 20 22 784 780
g Group33965
f 781 782 786 785
g Group33968
f 345 343 781 785
f 344 346 786 782
g Group33965
f 784 788 787 783
g Group33968
f 23 21 783 787
f 22 24 788 784
g Group33965
f 785 786 790 789
g Group33968
f 347 345 785 789
f 346 348 790 786
g Group33965
f 788 792 791 787
g Group33968
f 25 23 787 791
f 24 26 792 788
g Group33965
f 789 790 794 793
g Group33968
f 349 347 789 793
f 348 350 794 790
g Group33965
f 792 796 795 791
g Group33968
f 27 25 791 795
f 26 28 796 792
g Group33965
f 793 794 798 797
g Group33968
f 351 349 793 797
f 350 352 798 794
g Group33965
f 796 800 799 795
g Group33968
f 29 27 795 799
f 28 30 800 796
g Group33965
f 797 798 802 801
g Group33968
f 353 351 797 801
f 352 354 802 798
g Group33965
f 800 804 803 799
g Group33968
f 31 29 799 803
f 30 32 804 800
g Group33965
f 801 802 806 805
g Group33968
f 355 353 801 805
f 354 356 806 802
g Group33965
f 804 808 807 803
g Group33968
f 33 31 803 807
f 32 34 808 804
g Group33965
f 805 806 810 809
g Group33968
f 357 355 805 809
f 356 358 810 806
g Group33965
f 808 812 811 807
g Group33968
f 35 33 807 811
f 34 36 812 808
g Group33965
f 809 810 814 813
g Group33968
f 333 357 809 813
f 358 332 814 810
g Group33965
f 812 816 815 811
g Group33968
f 12 35 811 815
f 36 11 816 812
g Group33965
f 820 819 818 817
g Group33968
f 324 513 820 817
f 514 323 818 819
g Group33965
f 824 823 822 821
g Group33968
f 7 192 821 822
f 191 6 823 824
g Group33965
f 820 826 825 819
g Group33968
f 517 514 819 825
f 513 515 826 820
g Group33965
f 824 821 828 827
g Group33968
f 194 191 824 827
f 192 195 828 821
g Group33965
f 825 826 830 829
g Group33968
f 518 517 825 829
f 515 519 830 826
g Group33965
f 828 832 831 827
g Group33968
f 196 194 827 831
f 195 197 832 828
g Group33965
f 829 830 834 833
g Group33968
f 520 518 829 833
f 519 521 834 830
g Group33965
f 832 836 835 831
g Group33968
f 198 196 831 835
f 197 199 836 832
g Group33965
f 833 834 838 837
g Group33968
f 522 520 833 837
f 521 523 838 834
g Group33965
f 836 840 839 835
g Group33968
f 200 198 835 839
f 199 201 840 836
g Group33965
f 837 838 842 841
g Group33968
f 524 522 837 841
f 523 525 842 838
g Group33965
f 840 844 843 839
g Group33968
f 202 200 839 843
f 201 203 844 840
g Group33965
f 841 842 846 845
g Group33968
f 526 524 841 845
f 525 527 846 842
g Group33965
f 844 848 847 843
g Group33968
f 204 202 843 847
f 203 205 848 844
g Group33965
f 845 846 850 849
g Group33968
f 528 526 845 849
f 527 529 850 846
g Group33965
f 848 852 851 847
g Group33968
f 206 204 847 851
f 205 207 852 848
g Group33965
f 849 850 854 853
g Group33968
f 530 528 849 853
f 529 531 854 850
g Group33965
f 852 856 855 851
g Group33968
f 208 206 851 855
f 207 209 856 852
g Group33965
f 853 854 858 857
g Group33968
f 532 530 853 857
f 531 533 858 854
g Group33965
f 856 860 859 855
g Group33968
f 210 208 855 859
f 209 211 860 856
g Group33965
f 857 858 862 861
g Group33968
f 329 532 857 861
f 533 328 862 858
g Group33965
f 860 864 863 859
g Group33968
f 9 210 859 863
f 211 8 864 860
g Group33965
f 737 738 817 818
g Group33968
f 323 646 737 818
f 645 324 817 738
g Group33965
f 744 822 823 743
g Group33968
f 6 648 743 823
f 647 7 822 744
g Group33965
f 755 813 814 754
g Group33968
f 332 650 754 814
f 649 333 813 755
g Group33965
f 759 760 815 816
g Group33968
f 11 651 759 816
f 652 12 815 760
g Group33965
f 747 861 862 746
g Group33968
f 328 692 746 862
f 691 329 861 747
g Group33965
f 751 752 863 864
g Group33968
f 8 693 751 864
f 694 9 863 752
g Group33965
f 761 762 771 772
g Group33968
f 335 696 761 772
f 695 336 771 762
g Group33965
f 768 776 773 767
g Group33968
f 15 698 767 773
f 697 16 776 768

 