# File exported by ZBrush version 2021
# www.zbrush.com
#Vertex Count 739
#Face Count 768
#Auto scale x=1.000000 y=1.000000 z=1.000000
#Auto offset x=0.000000 y=0.000000 z=0.000000
v -1.21303331 1.75145745 -0.36016279
v -0.94649481 1.79937791 -0.18851375
v -0.65466308 1.82929682 -0.05878567
v -0.34670579 1.84577679 0.02500373
v -0.02827324 1.85188341 0.0615074
v 0.29337316 1.84776949 0.04961425
v 0.61148512 1.83290958 -0.01087498
v 0.91834622 1.80462551 -0.11924886
v 1.20588958 1.76311349 -0.27341386
v -1.15337693 1.3307352 -0.24078548
v -0.89682638 1.36060166 -0.08544194
v -0.61895537 1.3792057 0.03136336
v -0.32747706 1.38883137 0.10641861
v -0.0273338 1.39199066 0.13859307
v 0.27526527 1.38899898 0.12701773
v 0.57449954 1.37916946 0.07159775
v 0.86384415 1.36044287 -0.02699768
v 1.13653123 1.33290958 -0.16701245
v -1.10872995 0.88990753 -0.15552961
v -0.86000919 0.90800136 -0.01189631
v -0.59249228 0.9192726 0.09561038
v -0.31289684 0.9254052 0.16425597
v -0.0257658 0.9275152 0.19298446
v 0.26333627 0.92596072 0.18104225
v 0.54908132 0.92010062 0.12838804
v 0.82566928 0.90885037 0.03567135
v 1.0871942 0.89226585 -0.09557819
v -1.08009052 0.4437235 -0.10392326
v -0.83647596 0.45190244 0.03237837
v -0.57538932 0.4569391 0.13400059
v -0.30296441 0.45976239 0.19841975
v -0.02356927 0.46086251 0.22455865
v 0.25753778 0.46047061 0.21167719
v 0.53517693 0.4580425 0.15974342
v 0.80390703 0.45317965 0.06939631
v 1.05832994 0.44590026 -0.0579763
v -1.06805479 -0.00377803 -0.08558034
v -0.82648265 -0.00488606 0.04759764
v -0.56771266 -0.00586298 0.14659851
v -0.29767313 -0.00636261 0.20888531
v -0.02074867 -0.00631844 0.23326963
v 0.25782394 -0.00574533 0.21894574
v 0.53271365 -0.00479017 0.16584658
v 0.79850894 -0.00351359 0.07462668
v 1.05001914 -0.00196204 -0.05341553
v -1.07286834 -0.4469369 -0.10027003
v -0.83013367 -0.45775935 0.03390598
v -0.56948608 -0.4657664 0.13348203
v -0.29701834 -0.47070118 0.19568949
v -0.01730252 -0.47246366 0.21914655
v 0.26416486 -0.47097989 0.20289963
v 0.54160112 -0.46624356 0.14681947
v 0.8093236 -0.4583227 0.05158519
v 1.06203842 -0.44734206 -0.081519
v -1.0944314 -0.88450634 -0.14794933
v -0.84738564 -0.90628731 -0.0086373
v -0.58069449 -0.9224987 0.09473466
v -0.3009904 -0.93259853 0.15893226
v -0.01322933 -0.93634074 0.1822924
v 0.27653121 -0.93354004 0.16362118
v 0.56173861 -0.92416542 0.1027016
v 0.83609092 -0.90834003 0.00027215
v 1.0938673 -0.88628298 -0.14232426
v -1.1323049 -1.31382584 -0.22875046
v -0.87805002 -1.34850382 -0.08005809
v -0.60128271 -1.37438845 0.03043949
v -0.30958479 -1.39050674 0.09877109
v -0.00852836 -1.39639687 0.12287783
v 0.29490664 -1.39169859 0.1012234
v 0.59300458 -1.37634134 0.03347522
v 0.87844413 -1.35052347 -0.07951694
v 1.14467454 -1.31460475 -0.23624455
v -1.18566799 -1.73048377 -0.34292352
v -0.92177164 -1.78114175 -0.18043184
v -0.63115346 -1.81907081 -0.05930173
v -0.32278809 -1.84264183 0.01543408
v -0.00319581 -1.85106182 0.04115402
v 0.31927326 -1.84370732 0.01585388
v 0.63524764 -1.82043933 -0.06092977
v 0.93586295 -1.7815814 -0.18814981
v 1.21323943 -1.72771906 -0.36396282
v -0.89734417 1.7738831 -0.2743507
v -0.85027116 1.34108567 -0.17376035
v -1.09394156 1.3129189 -0.32125693
v -1.15051496 1.72845268 -0.43733757
v -0.61982882 1.80221891 -0.15105301
v -0.58606135 1.35872602 -0.06275677
v -0.32693699 1.81790995 -0.07145685
v -0.30888274 1.3679924 0.0085287
v -0.02402399 1.82395577 -0.03685212
v -0.02342618 1.37129449 0.03901445
v 0.2820397 1.82053542 -0.04832136
v 0.26443156 1.3689568 0.02785629
v 0.58484339 1.80711698 -0.10607677
v 0.54915881 1.36029768 -0.02504861
v 0.87701767 1.78101611 -0.2094686
v 0.82451713 1.34328866 -0.11907964
v 1.15059518 1.74197292 -0.3562749
v 1.08381414 1.3175385 -0.25237256
v -0.81545805 0.89482575 -0.10202026
v -1.05163955 0.8777796 -0.23837828
v -0.56120622 0.90559071 0.00012183
v -0.29545572 0.91164273 0.06531226
v -0.02251444 0.91401881 0.09254497
v 0.25234457 0.91305965 0.08109635
v 0.52406179 0.90816444 0.03091621
v 0.78709828 0.8982588 -0.05738949
v 1.03564381 0.88291889 -0.18222409
v -0.7932474 0.44537699 -0.05886417
v -1.02452194 0.43766319 -0.18824142
v -0.54522454 0.45026153 0.03765499
v -0.28641858 0.45318096 0.09882456
v -0.02097492 0.45459121 0.12361776
v 0.24612522 0.45471394 0.11132818
v 0.50996398 0.45303291 0.06191408
v 0.76535248 0.44913941 -0.02401477
v 1.00702107 0.44260442 -0.14505803
v -0.78387099 -0.00465529 -0.04408848
v -1.01315367 -0.00360873 -0.17047935
v -0.53815913 -0.00547039 0.04991036
v -0.28174206 -0.00572139 0.10904467
v -0.01877763 -0.00534903 0.13218599
v 0.24577146 -0.0043676 0.118568
v 0.50684088 -0.00292773 0.06811934
v 0.75928318 -0.00109904 -0.01854223
v 0.99807679 0.00069594 -0.14013242
v -0.78741943 -0.45080545 -0.05755233
v -1.01776027 -0.44054299 -0.18487042
v -0.54002034 -0.45831674 0.03696274
v -0.28139844 -0.46282962 0.09600937
v -0.0158941 -0.46424934 0.11827969
v 0.25128307 -0.46250674 0.10286259
v 0.51464551 -0.45760124 0.0496338
v 0.76878762 -0.44960621 -0.04076081
v 1.00863993 -0.43893948 -0.1670947
v -0.80384755 -0.89270031 -0.09919691
v -1.03824627 -0.87202209 -0.23137289
v -0.55078238 -0.90804153 -0.00110536
v -0.28536889 -0.9175235 0.05981856
v -0.01230636 -0.92091196 0.08199453
v 0.26265671 -0.91803515 0.06429112
v 0.53330266 -0.90886652 0.00650161
v 0.79364776 -0.89353001 -0.0906763
v 1.0382421 -0.8724361 -0.2259773
v -0.83297503 -1.32847333 -0.16903823
v -1.07419323 -1.29553985 -0.31010067
v -0.57038956 -1.35303401 -0.06420552
v -0.29363754 -1.36829137 0.00062775
v -0.00800769 -1.37381124 0.02350533
v 0.27987837 -1.36925125 0.00297021
v 0.56270265 -1.35454797 -0.06129324
v 0.83351552 -1.32989072 -0.16847944
v 1.08609688 -1.29572343 -0.31716513
v -0.8744663 -1.75496149 -0.26714018
v -1.12482488 -1.70684933 -0.42128354
v -0.59875154 -1.79097342 -0.15222936
v -0.30620229 -1.81334042 -0.08133029
v -0.00300104 -1.82131004 -0.0569309
v 0.30292791 -1.8142867 -0.08092641
v 0.60269463 -1.79214263 -0.15376424
v 0.88788878 -1.75519537 -0.27444738
v 1.15102982 -1.70403742 -0.44123452
v 0.95383399 1.33044648 -0.18555569
v 1.01345586 1.76154518 -0.28268432
v 1.06174969 1.78392386 -0.19613403
v 0.99983894 1.34671044 -0.0968244
v 0.91105306 0.89060932 -0.1196475
v 0.95609664 0.9005801 -0.02978557
v 0.88587707 0.44588059 -0.08438158
v 0.93079257 0.44954913 0.00587308
v 0.87837463 -0.00020381 -0.0791822
v 0.9239422 -0.00273969 0.01076948
v 0.88840735 -0.44428712 -0.10376566
v 0.93535661 -0.45284691 -0.01479703
v 0.91563248 -0.8830102 -0.15815353
v 0.96464973 -0.89733922 -0.07084274
v 0.95948267 -1.31285095 -0.24263197
v 1.0112183 -1.33261036 -0.15767908
v 1.01912224 -1.72968101 -0.35762739
v 1.07419586 -1.75471925 -0.27583184
v -0.96309846 1.32804346 -0.24205565
v -1.01457119 1.75284767 -0.34981894
v -1.06991052 1.77718973 -0.26799249
v -1.01561772 1.34677195 -0.15737134
v -0.92481756 0.88693392 -0.16515803
v -0.97517508 0.89962261 -0.07840275
v -0.90033489 0.44180506 -0.11877018
v -0.94927626 0.44811552 -0.03073287
v -0.89003586 -0.00417059 -0.1026113
v -0.93833911 -0.0043729 -0.01406765
v -0.89407414 -0.44605276 -0.11650466
v -0.94252747 -0.45274883 -0.02822208
v -0.91238158 -0.88312643 -0.16039764
v -0.96177619 -0.89620143 -0.07314348
v -0.94466674 -1.31322407 -0.23435533
v -0.99577856 -1.33244633 -0.14890694
v -0.99038958 -1.73268389 -0.33851361
v -1.04396462 -1.75768446 -0.2556709
v -1.12431263 1.53599 -0.38357245
v -0.99072969 1.55609154 -0.29990601
v -1.18540239 1.55659079 -0.30487102
v -1.04476308 1.5778346 -0.2167561
v -0.87554085 1.57342577 -0.22776037
v -0.60418862 1.59680604 -0.11015665
v -0.63812398 1.62082791 -0.01703178
v -0.92349022 1.59614992 -0.14077419
v -0.31857481 1.60952067 -0.03441
v -0.33779984 1.63413381 0.06271201
v -0.02374755 1.61429739 -0.00171351
v -0.02783797 1.63887381 0.09721088
v 0.27388379 1.61137843 -0.01303774
v 0.28498637 1.63527894 0.08546549
v 0.56831449 1.60016322 -0.06854701
v 0.59435379 1.62275171 0.02732348
v 0.85270142 1.57827353 -0.1676042
v 0.89310252 1.59889507 -0.07652103
v 0.98584079 1.56187248 -0.23769712
v 1.1737653 1.56385684 -0.22413152
v 1.11966478 1.54538726 -0.30815047
v 1.03307497 1.5814197 -0.1501367
v -1.10340154 -1.53282761 -0.3742432
v -0.97104424 -1.55521082 -0.29444479
v -1.16309094 -1.55419826 -0.29461687
v -1.02357685 -1.57776975 -0.21049988
v -0.85691165 -1.57451582 -0.22563338
v -0.58675175 -1.60568332 -0.11498677
v -0.61851555 -1.63092851 -0.0213328
v -0.90327411 -1.59809637 -0.13796478
v -0.30088633 -1.62504243 -0.04665446
v -0.31720161 -1.65134668 0.05069387
v -0.00511966 -1.63197493 -0.02289843
v -0.00545154 -1.65869641 0.07573092
v 0.29317539 -1.62599372 -0.04543077
v 0.30896389 -1.65246343 0.05197393
v 0.58577448 -1.60699915 -0.11463993
v 0.61737394 -1.63254261 -0.02098721
v 0.86488306 -1.57525062 -0.22961229
v 0.91157001 -1.59920239 -0.14218837
v 0.99388837 -1.55332279 -0.30897283
v 1.18423056 -1.55293059 -0.30992591
v 1.12355673 -1.53128027 -0.38874143
v 1.04755067 -1.57612776 -0.22584247
v -1.21030628 1.56684613 -0.26673337
v -1.06978249 1.58778023 -0.17863643
v -1.09515345 1.78690934 -0.22998213
v -1.23827529 1.76156497 -0.32222354
v -0.94567728 1.60616326 -0.10078799
v -0.65371525 1.63172912 0.02580523
v -0.67025315 1.84019565 -0.01594924
v -0.96868246 1.80939173 -0.14852738
v -0.34652954 1.64539432 0.10738951
v -0.35543668 1.8570373 0.06968075
v -0.02957004 1.65017318 0.14269322
v -0.03000455 1.86318016 0.10698932
v 0.29028517 1.64629125 0.13071918
v 0.29867202 1.85877966 0.09486889
v 0.60660117 1.63313674 0.07131767
v 0.62373155 1.84329485 0.0331186
v 0.91205453 1.60817885 -0.03479433
v 0.93729788 1.81391 -0.07752293
v 1.05501031 1.59035444 -0.11000418
v 1.08383595 1.79271316 -0.15606272
v -1.13209176 0.89582037 -0.11580181
v -0.99853652 0.90553754 -0.03867662
v -1.03979063 1.3556559 -0.11851143
v -1.17754972 1.3396182 -0.20192509
v -1.10282909 0.44669622 -0.06361615
v -0.97201556 0.45108711 0.00957304
v -1.09052062 -0.00383946 -0.04504603
v -0.96080315 -0.00443501 0.02646589
v -1.0954194 -0.45007506 -0.05986583
v -0.96507871 -0.45588651 0.01218241
v -1.11743438 -0.89068555 -0.10804069
v -0.98477959 -0.9023807 -0.03323489
v -1.15599751 -1.32299065 -0.18964219
v -1.01947009 -1.34161186 -0.1097989
v -1.18741965 -1.56472587 -0.25616097
v -1.04800093 -1.58804392 -0.17205578
v 1.1956259 1.5729928 -0.18398928
v 1.22797846 1.772161 -0.23338198
v 0.97707665 0.90520852 0.01135969
v 1.10817468 0.89689558 -0.05443227
v 1.15792655 1.34059763 -0.12639302
v 1.02123451 1.35440015 -0.05620664
v 0.95164912 0.45116835 0.04723465
v 1.0791862 0.44751793 -0.01661467
v 0.94505411 -0.00407996 0.05200886
v 1.07113122 -0.00330232 -0.01217639
v 0.95707833 -0.45706024 0.02599239
v 1.08375895 -0.45155614 -0.04073041
v 0.98731231 -0.90431392 -0.03082895
v 1.11653018 -0.89325809 -0.10231018
v 1.03496801 -1.34228038 -0.11868917
v 1.16842496 -1.32427501 -0.19725358
v 1.07233262 -1.58658766 -0.18765944
v 1.20888388 -1.5637598 -0.27173152
v -1.21028292 -1.74090004 -0.3046289
v -1.06857669 -1.76777672 -0.21731543
v -0.94327724 -1.79160881 -0.14015054
v -0.64588517 -1.83049964 -0.01624512
v -0.63324743 -1.64236068 0.02172374
v -0.92477816 -1.60856175 -0.09768301
v -0.33032378 -1.85457134 0.06022608
v -0.32473728 -1.66327619 0.09548628
v -0.00328647 -1.86318016 0.08654481
v -0.00554294 -1.67081332 0.12112194
v 0.32668978 -1.85568547 0.06066232
v 0.31638056 -1.6644442 0.0967822
v 0.65002858 -1.83195257 -0.01789623
v 0.63215655 -1.64405679 0.0220468
v 0.95766639 -1.79207587 -0.148018
v 0.93337261 -1.60969853 -0.10205614
v 1.09923064 -1.76490163 -0.23776722
v 1.23827529 -1.73836374 -0.32598692
v -0.0122367 -0.01029647 0.46108949
v -0.02187914 0.10334973 0.45272123
v -0.04488065 0.09934401 0.45230341
v -0.06661982 0.0911189 0.45174431
v -0.08625907 0.07899686 0.45110154
v -0.10304554 0.06344497 0.45044887
v -0.11633715 0.04506665 0.44986534
v -0.12562447 0.02456791 0.44942164
v -0.13055396 0.00273593 0.44917571
v -0.13093903 -0.01959359 0.44915974
v -0.12676395 -0.04156871 0.44937527
v -0.1181876 -0.06234746 0.44979453
v -0.10553726 -0.08113344 0.4503653
v -0.08929623 -0.09720518 0.45101618
v -0.07008547 -0.10994017 0.45167112
v -0.04864218 -0.11884621 0.45225095
v -0.02579202 -0.12357565 0.45269799
v -0.00241296 -0.12394422 0.45297086
v 0.0205923 -0.11993926 0.45305788
v 0.04233813 -0.11171498 0.45297408
v 0.06198796 -0.09959125 0.45275974
v 0.07878487 -0.0840402 0.45247197
v 0.09208476 -0.06566175 0.45217526
v 0.1013804 -0.04516317 0.45193076
v 0.10631436 -0.02333188 0.45178675
v 0.10669937 -0.00100166 0.45177245
v 0.10252055 0.02097352 0.45188808
v 0.0939375 0.04175227 0.45211315
v 0.08127732 0.06053903 0.45239925
v 0.06502577 0.07661004 0.45268869
v 0.04580528 0.0893457 0.4529159
v 0.02435533 0.098251 0.45302236
v 0.00150065 0.10298049 0.45296359
v -0.03063834 0.21042591 0.42876982
v -0.07495199 0.20260787 0.42766881
v -0.11681211 0.1865682 0.42601251
v -0.15460361 0.1629537 0.42400264
v -0.18687667 0.13270631 0.42189812
v -0.21240733 0.09701344 0.41997742
v -0.23023441 0.05725535 0.41850113
v -0.23969268 0.01494722 0.41767656
v -0.24042978 -0.02831082 0.41761767
v -0.23242045 -0.07089166 0.41833126
v -0.21595978 -0.11118677 0.41972231
v -0.19166454 -0.14766193 0.42159605
v -0.160444 -0.1789125 0.42370045
v -0.12348416 -0.20371262 0.42575168
v -0.08219789 -0.22107677 0.42748761
v -0.03817791 -0.23030717 0.42869615
v 0.00687066 -0.23102784 0.42924964
v 0.05119849 -0.22320967 0.42912066
v 0.0930856 -0.20717006 0.42838192
v 0.13091078 -0.18355651 0.42719888
v 0.16322284 -0.15331065 0.42579472
v 0.18879023 -0.11761757 0.42442512
v 0.20664508 -0.07785883 0.42333126
v 0.21611964 -0.03555142 0.422701
v 0.21685832 0.00770659 0.42264473
v 0.20883473 0.05028672 0.42316997
v 0.19234876 0.09058257 0.42418479
v 0.16801682 0.12705925 0.4255135
v 0.13675877 0.15830975 0.42691993
v 0.09976217 0.18310993 0.42815113
v 0.05844813 0.20047563 0.42897164
v 0.01441244 0.20970529 0.42920863
v -0.03794267 0.30506661 0.39175355
v -0.10045938 0.29381355 0.38983535
v -0.15947541 0.27075436 0.38679599
v -0.212701 0.23686751 0.38301777
v -0.25810018 0.19355624 0.37900543
v -0.29397004 0.14256234 0.37531173
v -0.31898912 0.08587113 0.37245941
v -0.33225143 0.02562573 0.37085878
v -0.33328607 -0.03593879 0.37073946
v -0.32205471 -0.09656244 0.37212073
v -0.29895877 -0.15400281 0.37480402
v -0.26483082 -0.20609588 0.37840616
v -0.22092159 -0.25082519 0.38241791
v -0.16887657 -0.28640216 0.38628375
v -0.11067797 -0.31135886 0.38948631
v -0.04858077 -0.3246423 0.39161598
v 0.01498783 -0.32567918 0.39243137
v 0.07753229 -0.31442678 0.39188647
v 0.13660062 -0.29136824 0.39013958
v 0.18989752 -0.25748223 0.38752412
v 0.23537379 -0.21417243 0.38449776
v 0.27131637 -0.16317932 0.38157999
v 0.29639238 -0.10648875 0.3792622
v 0.30968689 -0.04624497 0.37793421
v 0.31072384 0.01532033 0.37781953
v 0.29946544 0.0759447 0.37893581
v 0.27631619 0.13338512 0.38109278
v 0.24211707 0.18548029 0.38392663
v 0.19813086 0.23021057 0.38695704
v 0.14601232 0.26578733 0.38966655
v 0.08775831 0.29074567 0.39157915
v 0.02562965 0.30402922 0.39233803
v -0.04342129 0.38266637 0.34536254
v -0.12006579 0.36852195 0.34266197
v -0.19236719 0.33957773 0.33825171
v -0.25750398 0.29713228 0.33269751
v -0.31298735 0.2430219 0.32675135
v -0.35676026 0.17948412 0.32124781
v -0.38725128 0.10901415 0.31698238
v -0.40340063 0.03425012 0.31458044
v -0.40466031 -0.04210287 0.31439995
v -0.39098647 -0.11732316 0.31646788
v -0.36284351 -0.18869957 0.32047915
v -0.32120412 -0.25357994 0.3258475
v -0.26755675 -0.30943498 0.33179485
v -0.20387749 -0.35397949 0.33748483
v -0.13258945 -0.3852967 0.34214198
v -0.05646643 -0.40198889 0.34516334
v 0.02148678 -0.40329381 0.34619593
v 0.09817245 -0.3891496 0.3451792
v 0.17055329 -0.36020579 0.34235334
v 0.23579648 -0.31776198 0.33822071
v 0.29139843 -0.26365381 0.33348023
v 0.33528104 -0.20011757 0.32892286
v 0.36585897 -0.12964834 0.3253082
v 0.38205736 -0.05488583 0.32323932
v 0.38332063 0.02146793 0.32306242
v 0.369605 0.09668824 0.32480764
v 0.34138158 0.16806674 0.32817757
v 0.2996346 0.23294726 0.33260691
v 0.24586808 0.28880539 0.33735644
v 0.18207998 0.33334991 0.34162855
v 0.11070665 0.36466851 0.34470701
v 0.03453569 0.38136202 0.34604704
v -0.04692884 0.44019585 0.29383313
v -0.13317905 0.4238379 0.29052066
v -0.21449081 0.39040926 0.28501892
v -0.2876712 0.34149161 0.27803182
v -0.34992563 0.27929335 0.27050948
v -0.39897105 0.20645833 0.26351761
v -0.4330886 0.12587103 0.25808095
v -0.45114177 0.04051913 0.25501179
v -0.45254886 -0.04658809 0.25477886
v -0.43726512 -0.13244418 0.25741994
v -0.40578001 -0.21403986 0.26253211
v -0.35913798 -0.28837993 0.26935279
v -0.29895633 -0.35255548 0.27688002
v -0.22742797 -0.40386974 0.28404474
v -0.14726859 -0.4400281 0.28986465
v -0.06161166 -0.45932897 0.29358589
v 0.02612781 -0.46083912 0.29477357
v 0.11242899 -0.44448137 0.29335546
v 0.19384254 -0.41105374 0.28963363
v 0.26715937 -0.36213776 0.28424477
v 0.32956525 -0.2999418 0.27807605
v 0.37875145 -0.22710834 0.27214336
v 0.41298189 -0.14652246 0.26743459
v 0.43109795 -0.06117206 0.26473808
v 0.43251028 0.02593448 0.26450979
v 0.41717189 0.11179214 0.26678693
v 0.38558307 0.19338846 0.27118063
v 0.33880132 0.26773154 0.27695095
v 0.27847001 0.33190843 0.28313291
v 0.2068009 0.38322502 0.28870558
v 0.12653268 0.41938334 0.29274797
v 0.04081513 0.43868714 0.29457747
v -0.04851782 0.47625154 0.24131047
v -0.139869 0.45845001 0.23764085
v -0.22595061 0.42211282 0.23148888
v -0.30336517 0.36903539 0.22363561
v -0.36915436 0.30170133 0.21514457
v -0.42092296 0.22303882 0.20722323
v -0.45689532 0.13619077 0.201047
v -0.47591367 0.04434657 0.19755446
v -0.47739547 -0.04933151 0.19728726
v -0.46129602 -0.1417023 0.20029103
v -0.42810496 -0.22961053 0.2061004
v -0.37888312 -0.30986726 0.21383017
v -0.31529653 -0.37931388 0.22233361
v -0.2396416 -0.43497136 0.23039221
v -0.15478858 -0.47426465 0.23690462
v -0.06407042 -0.49526673 0.24103665
v 0.02887203 -0.49690973 0.24230909
v 0.12028166 -0.47910967 0.24064588
v 0.20647792 -0.44277381 0.2363789
v 0.28404679 -0.38969779 0.23021447
v 0.35000753 -0.32236629 0.22315323
v 0.40193787 -0.24370595 0.21635025
v 0.43803748 -0.15685933 0.21094101
v 0.45712852 -0.06501599 0.20784026
v 0.45861643 0.02866064 0.20757776
v 0.44245481 0.12103301 0.21019864
v 0.40914487 0.20894187 0.21525037
v 0.35976293 0.28920161 0.22187072
v 0.29600635 0.35865035 0.22895002
v 0.22019282 0.41431111 0.23532378
v 0.13521701 0.45360493 0.23995685
v 0.04442983 0.4746086 0.24208426
v -0.04837474 0.49087899 0.1913225
v -0.14067967 0.47244477 0.18756914
v -0.2276386 0.43484634 0.18125706
v -0.3058083 0.37999466 0.17317444
v -0.37219825 0.31052127 0.16440892
v -0.42440125 0.22949409 0.15621173
v -0.4606494 0.14017173 0.14980405
v -0.47980389 0.04581195 0.14617615
v -0.48129561 -0.05038934 0.14589953
v -0.46508219 -0.14527815 0.14901959
v -0.43164128 -0.23567116 0.15504771
v -0.38201081 -0.31831714 0.16305071
v -0.31785178 -0.38995057 0.17183184
v -0.24146665 -0.4474546 0.18012845
v -0.15575282 -0.48810413 0.18681579
v -0.06409066 -0.5098505 0.19104456
v 0.02982875 -0.51155197 0.19233465
v 0.12219432 -0.49311888 0.19060874
v 0.20927152 -0.45552229 0.18619996
v 0.28760016 -0.40067255 0.17982304
v 0.35416686 -0.3312014 0.17250084
v 0.40653818 -0.25017717 0.16542953
v 0.44291919 -0.16085614 0.15979427
v 0.46214875 -0.06649857 0.15656107
v 0.46364706 0.02970351 0.15628755
v 0.44736933 0.12459306 0.15902185
v 0.41380325 0.21498751 0.16428482
v 0.36400941 0.29763582 0.17116946
v 0.29967281 0.36927285 0.17851358
v 0.22312361 0.42677766 0.18511003
v 0.13728323 0.46742928 0.18989664
v 0.04555052 0.48917692 0.19210046
v -0.04675729 0.48526161 0.14644724
v -0.13640944 0.46699243 0.14285701
v -0.2208669 0.42974364 0.13682705
v -0.29678246 0.37543174 0.12910234
v -0.361249 0.30668723 0.1207149
v -0.41193205 0.22656887 0.1128571
v -0.44711887 0.13830412 0.10670733
v -0.4657095 0.0451055 0.10322213
v -0.46715655 -0.04989565 0.10295617
v -0.45142132 -0.14361265 0.10595589
v -0.4189603 -0.23292636 0.11174303
v -0.37077707 -0.31463658 0.11941748
v -0.30847823 -0.3855102 0.12782323
v -0.23429562 -0.44244188 0.13575458
v -0.1510488 -0.48271077 0.14214193
v -0.06202071 -0.50426214 0.1461851
v 0.0291994 -0.50594836 0.14743256
v 0.11890843 -0.4876807 0.1458109
v 0.20347906 -0.45043322 0.14163106
v 0.27954679 -0.39612337 0.13556247
v 0.34418276 -0.32738065 0.12857502
v 0.39502704 -0.24726444 0.12181013
v 0.43033999 -0.15900132 0.11641013
v 0.44900241 -0.06580412 0.11330658
v 0.45045656 0.02919711 0.11304426
v 0.43465888 0.12291476 0.11566788
v 0.4020785 0.21223038 0.12071287
v 0.35373899 0.29394307 0.12729948
v 0.29127031 0.36481827 0.13431084
v 0.21693158 0.42175239 0.14059019
v 0.13356345 0.46202343 0.14513182
v 0.04446879 0.48357445 0.14720845
v -0.14821623 0.48633295 0.24513185
v -0.14876614 0.50126594 0.18910062
v -0.050799 0.52089315 0.19324529
v -0.05106648 0.50526619 0.2491976
v -0.23973524 0.44770783 0.23826646
v -0.24102973 0.4612599 0.18208062
v -0.32199847 0.39133793 0.22947579
v -0.32392072 0.40296107 0.1730597
v -0.39186152 0.31990528 0.21995121
v -0.39426681 0.32921966 0.16325491
v -0.44679385 0.23655456 0.21105414
v -0.44953176 0.24334168 0.15406614
v -0.48493734 0.14462636 0.20410859
v -0.48787328 0.14879763 0.14687508
v -0.50509345 0.0474841 0.20017951
v -0.50812089 0.04901683 0.1427989
v -0.50666278 -0.05156701 0.19987899
v -0.50969713 -0.05267429 0.14248716
v -0.48960167 -0.14925845 0.20325785
v -0.49255994 -0.15300421 0.14599102
v -0.4544118 -0.24229367 0.20978868
v -0.45719206 -0.24866387 0.15275597
v -0.40218702 -0.32731825 0.21847158
v -0.40465849 -0.33623641 0.16172778
v -0.33467274 -0.40097737 0.22800993
v -0.33668732 -0.41225066 0.17155307
v -0.25428697 -0.46007725 0.23703205
v -0.25569611 -0.47335633 0.18081557
v -0.1640805 -0.50183916 0.24430441
v -0.16476219 -0.51660215 0.1882565
v -0.06760722 -0.52417409 0.24889004
v -0.0674806 -0.53975325 0.19293558
v 0.03124537 -0.52592247 0.2502588
v 0.03221029 -0.54156661 0.19431912
v 0.12846255 -0.50699055 0.24832654
v 0.13024476 -0.52194011 0.19232666
v 0.22011044 -0.46836593 0.24346745
v 0.22264105 -0.48193541 0.18732607
v 0.30254745 -0.41199895 0.23647213
v 0.30571115 -0.42363885 0.18011522
v 0.37260291 -0.34056875 0.22846525
v 0.37625575 -0.34989938 0.1718375
v 0.42771783 -0.25721994 0.2207545
v 0.43170952 -0.26402628 0.16384291
v 0.46600556 -0.16529426 0.21462225
v 0.47020065 -0.16948279 0.1574682
v 0.48624324 -0.06815346 0.21110791
v 0.49053287 -0.06970344 0.15380829
v 0.4878205 0.0308984 0.21081274
v 0.49211597 0.03198693 0.15350133
v 0.47068858 0.12858973 0.21378457
v 0.4749062 0.13231922 0.15659618
v 0.43536338 0.22162735 0.21951174
v 0.43939825 0.22797948 0.16255277
v 0.38296106 0.30665412 0.22701752
v 0.38668125 0.31555476 0.17033952
v 0.31525251 0.38031569 0.23504519
v 0.3185096 0.39157226 0.17864298
v 0.23468917 0.43941754 0.24227809
v 0.2373352 0.45268005 0.18610268
v 0.14434401 0.48118078 0.24755048
v 0.14625808 0.49592763 0.19152742
v 0.0477921 0.50351792 0.25000596
v 0.04889781 0.51908141 0.19405633
v -0.14357294 0.49428254 0.13878774
v -0.04886319 0.51369613 0.1427201
v -0.23276661 0.45472747 0.13213753
v -0.31289458 0.39712199 0.12358593
v -0.3808856 0.32431721 0.11427408
v -0.43428927 0.2396036 0.10553014
v -0.47133243 0.14641225 0.09867632
v -0.49088931 0.04811492 0.09478795
v -0.49241244 -0.05204275 0.09449005
v -0.47585901 -0.15087506 0.09783488
v -0.44169029 -0.24515479 0.10428524
v -0.39092862 -0.33152943 0.11282491
v -0.32523399 -0.40656769 0.12216043
v -0.24694526 -0.46693795 0.13094455
v -0.15903633 -0.50969189 0.13799452
v -0.06498967 -0.53259152 0.14243084
v 0.03138698 -0.53438454 0.14376217
v 0.12616039 -0.51497125 0.14190894
v 0.21547913 -0.47541838 0.13721132
v 0.29577648 -0.41781458 0.13040864
v 0.36395612 -0.345012 0.12257272
v 0.41753995 -0.26030147 0.11498177
v 0.45472404 -0.16711235 0.10891634
v 0.47436314 -0.06881574 0.10542929
v 0.4758923 0.03134113 0.10513562
v 0.45926886 0.13017579 0.10808503
v 0.42496785 0.22445634 0.1137532
v 0.37403065 0.31083303 0.12114828
v 0.30814582 0.38587439 0.12901186
v 0.22968399 0.44624692 0.13605237
v 0.14164026 0.489003 0.14115291
v 0.04751937 0.51190328 0.14351123
v -1.00139141 1.74939608 -0.36967313
v -0.97766447 1.55256032 -0.3198232
v -1.11130309 1.53235125 -0.40350598
v -1.13733089 1.72486591 -0.45716428
v -0.61168211 1.79834628 -0.17345666
v -0.59604227 1.59293317 -0.13256061
v -0.86395508 1.56986713 -0.24865293
v -0.88575905 1.77032518 -0.29524302
v -0.32237592 1.81390714 -0.09483069
v -0.31401383 1.60551834 -0.05778414
v -0.02312352 1.81993746 -0.06064826
v -0.02284708 1.61027932 -0.02550852
v 0.27926346 1.81662249 -0.07198894
v 0.27110821 1.60746312 -0.03670561
v 0.57843798 1.80342721 -0.12906837
v 0.56190997 1.59647488 -0.09153872
v 0.86712014 1.77771902 -0.23124986
v 0.84280347 1.57497644 -0.18938553
v 1.00192654 1.75842762 -0.30359262
v 0.97438836 1.55870461 -0.25864023
v -0.95048892 1.32489705 -0.26233649
v -0.91265815 0.88484352 -0.18584382
v -1.03947937 0.8756901 -0.25906384
v -1.08133208 1.30977273 -0.34153682
v -0.88851368 0.4407565 -0.13972771
v -1.01270115 0.43661415 -0.20919925
v -0.8783611 -0.00414885 -0.12367755
v -1.00147855 -0.00358627 -0.19154578
v -0.88234871 -0.44494468 -0.13751423
v -1.00603485 -0.43943491 -0.20588052
v -0.90040367 -0.88094091 -0.18117988
v -1.02626764 -0.86983782 -0.25215464
v -0.9323005 -1.30997657 -0.25476741
v -1.0618267 -1.29229164 -0.33051371
v -0.9582811 -1.55156302 -0.31453484
v -1.09068548 -1.52909064 -0.39434623
v 1.13906216 1.73876786 -0.37716782
v 1.10824942 1.54215025 -0.32910341
v 1.07265532 1.31481766 -0.27354389
v 1.02472388 0.88128244 -0.20362907
v 0.90013319 0.88897275 -0.14105248
v 0.94267559 1.32772445 -0.20672667
v 0.99617719 0.44203215 -0.16655606
v 0.87503302 0.44530826 -0.10587918
v 0.98710155 0.00116795 -0.1615653
v 0.86739903 0.00026746 -0.10061562
v 0.99733936 -0.43745258 -0.18831193
v 0.87710696 -0.44280007 -0.12498283
v 1.02643275 -0.8699702 -0.24682498
v 0.90382313 -0.88054424 -0.17900109
v 1.07369351 -1.2922976 -0.33752673
v 0.94707953 -1.30942511 -0.26299345
v 1.11066496 -1.52744126 -0.40871405
v 0.98093628 -1.54960942 -0.32893085
v -0.97753036 -1.72910046 -0.35855341
v -1.11195945 -1.70315241 -0.44129955
v -0.57904458 -1.60161829 -0.13751614
v -0.59104418 -1.78690719 -0.17475879
v -0.86322683 -1.75124073 -0.28819465
v -0.84567207 -1.57079577 -0.24668812
v -0.29694128 -1.62079715 -0.07010632
v -0.30225798 -1.8090949 -0.10478168
v -0.00507247 -1.62766337 -0.0466693
v -0.00295385 -1.81699752 -0.08070075
v 0.28929251 -1.62173056 -0.06889247
v 0.29904422 -1.81002426 -0.10438859
v 0.57803964 -1.60290384 -0.1371597
v 0.59495937 -1.78804802 -0.17628395
v 0.8534882 -1.5715177 -0.25058865
v 0.87649315 -1.75146317 -0.2954238
v 1.00604069 -1.72606349 -0.37751698
v 1.13794124 -1.70026183 -0.46108949
g Group34930
f 2 183 182 82
f 1 201 199 85
f 3 2 82 86
f 4 3 86 88
f 5 4 88 90
f 6 5 90 92
f 7 6 92 94
f 8 7 94 96
f 9 165 164 98
f 18 218 219 99
f 10 19 101 84
g Group34927
f 83 100 102 87
g Group32314
f 11 12 21 20
g Group34927
f 87 102 103 89
g Group32314
f 12 13 22 21
g Group34927
f 89 103 104 91
g Group32314
f 13 14 23 22
g Group34927
f 91 104 105 93
g Group32314
f 14 15 24 23
g Group34927
f 93 105 106 95
g Group32314
f 15 16 25 24
g Group34927
f 95 106 107 97
g Group32314
f 16 17 26 25
g Group34927
f 97 107 167 163
g Group34930
f 27 18 99 108
g Group32314
f 17 166 168 26
g Group34930
f 19 28 110 101
g Group34927
f 100 109 111 102
g Group32314
f 20 21 30 29
g Group34927
f 102 111 112 103
g Group32314
f 21 22 31 30
g Group34927
f 103 112 113 104
g Group32314
f 22 23 32 31
g Group34927
f 104 113 114 105
g Group32314
f 23 24 33 32
g Group34927
f 105 114 115 106
g Group32314
f 24 25 34 33
g Group34927
f 106 115 116 107
g Group32314
f 25 26 35 34
g Group34927
f 107 116 169 167
g Group34930
f 36 27 108 117
g Group32314
f 26 168 170 35
g Group34930
f 28 37 119 110
g Group34927
f 109 118 120 111
g Group32314
f 29 30 39 38
g Group34927
f 111 120 121 112
g Group32314
f 30 31 40 39
g Group34927
f 112 121 122 113
g Group32314
f 31 32 41 40
g Group34927
f 113 122 123 114
g Group32314
f 32 33 42 41
g Group34927
f 114 123 124 115
g Group32314
f 33 34 43 42
g Group34927
f 115 124 125 116
g Group32314
f 34 35 44 43
g Group34927
f 116 125 171 169
g Group34930
f 45 36 117 126
g Group32314
f 35 170 172 44
g Group34930
f 37 46 128 119
g Group34927
f 118 127 129 120
g Group32314
f 38 39 48 47
g Group34927
f 120 129 130 121
g Group32314
f 39 40 49 48
g Group34927
f 121 130 131 122
g Group32314
f 40 41 50 49
g Group34927
f 122 131 132 123
g Group32314
f 41 42 51 50
g Group34927
f 123 132 133 124
g Group32314
f 42 43 52 51
g Group34927
f 124 133 134 125
g Group32314
f 43 44 53 52
g Group34927
f 125 134 173 171
g Group34930
f 54 45 126 135
g Group32314
f 44 172 174 53
g Group34930
f 46 55 137 128
g Group34927
f 127 136 138 129
g Group32314
f 47 48 57 56
g Group34927
f 129 138 139 130
g Group32314
f 48 49 58 57
g Group34927
f 130 139 140 131
g Group32314
f 49 50 59 58
g Group34927
f 131 140 141 132
g Group32314
f 50 51 60 59
g Group34927
f 132 141 142 133
g Group32314
f 51 52 61 60
g Group34927
f 133 142 143 134
g Group32314
f 52 53 62 61
g Group34927
f 134 143 175 173
g Group34930
f 63 54 135 144
g Group32314
f 53 174 176 62
g Group34930
f 55 64 146 137
g Group34927
f 136 145 147 138
g Group32314
f 56 57 66 65
g Group34927
f 138 147 148 139
g Group32314
f 57 58 67 66
g Group34927
f 139 148 149 140
g Group32314
f 58 59 68 67
g Group34927
f 140 149 150 141
g Group32314
f 59 60 69 68
g Group34927
f 141 150 151 142
g Group32314
f 60 61 70 69
g Group34927
f 142 151 152 143
g Group32314
f 61 62 71 70
g Group34927
f 143 152 177 175
g Group34930
f 72 63 144 153
g Group32314
f 62 176 178 71
g Group34930
f 73 198 197 155
f 64 223 221 146
g Group34927
f 145 225 226 147
g Group34930
f 74 75 156 154
g Group32314
f 65 66 227 228
g Group34927
f 147 226 229 148
g Group34930
f 75 76 157 156
g Group32314
f 66 67 230 227
g Group34927
f 148 229 231 149
g Group34930
f 76 77 158 157
g Group32314
f 67 68 232 230
g Group34927
f 149 231 233 150
g Group34930
f 77 78 159 158
g Group32314
f 68 69 234 232
g Group34927
f 150 233 235 151
g Group34930
f 78 79 160 159
g Group32314
f 69 70 236 234
g Group34927
f 151 235 237 152
g Group34930
f 79 80 161 160
g Group32314
f 70 71 238 236
g Group34927
f 152 237 239 177
g Group34930
f 81 240 241 162
f 80 180 179 161
g Group32314
f 71 178 242 238
g Group34930
f 165 8 96 164
f 180 81 162 179
f 183 1 85 182
g Group34927
f 181 185 100 83
g Group32314
f 184 11 20 186
g Group34927
f 185 187 109 100
g Group32314
f 186 20 29 188
g Group34927
f 187 189 118 109
g Group32314
f 188 29 38 190
g Group34927
f 189 191 127 118
g Group32314
f 190 38 47 192
g Group34927
f 191 193 136 127
g Group32314
f 192 47 56 194
g Group34927
f 193 195 145 136
g Group32314
f 194 56 65 196
g Group34927
f 195 222 225 145
g Group34930
f 198 74 154 197
g Group32314
f 196 65 228 224
g Group34930
f 201 10 84 199
g Group34927
f 203 83 87 204
g Group32314
f 206 205 12 11
g Group34927
f 204 87 89 207
g Group32314
f 205 208 13 12
g Group34927
f 207 89 91 209
g Group32314
f 208 210 14 13
g Group34927
f 209 91 93 211
g Group32314
f 210 212 15 14
g Group34927
f 211 93 95 213
g Group32314
f 212 214 16 15
g Group34927
f 213 95 97 215
g Group32314
f 214 216 17 16
g Group34927
f 215 97 163 217
g Group34930
f 218 9 98 219
g Group32314
f 216 220 166 17
g Group34927
f 200 181 83 203
g Group32314
f 202 206 11 184
g Group34930
f 223 73 155 221
f 240 72 153 241
g Group34927
f 246 245 244 243
g Group34930
f 201 1 246 243
f 1 183 245 246
g Group34927
f 250 249 248 247
g Group34930
f 205 206 247 248
f 2 3 249 250
g Group34927
f 249 252 251 248
g Group34930
f 208 205 248 251
f 3 4 252 249
g Group34927
f 252 254 253 251
g Group34930
f 210 208 251 253
f 4 5 254 252
g Group34927
f 254 256 255 253
g Group34930
f 212 210 253 255
f 5 6 256 254
g Group34927
f 256 258 257 255
g Group34930
f 214 212 255 257
f 6 7 258 256
g Group34927
f 258 260 259 257
g Group34930
f 216 214 257 259
f 7 8 260 258
g Group34927
f 260 262 261 259
g Group34930
f 220 216 259 261
f 8 165 262 260
g Group34927
f 266 265 264 263
g Group34930
f 19 10 266 263
f 184 186 264 265
g Group34927
f 263 264 268 267
g Group34930
f 28 19 263 267
f 186 188 268 264
g Group34927
f 267 268 270 269
g Group34930
f 37 28 267 269
f 188 190 270 268
g Group34927
f 269 270 272 271
g Group34930
f 46 37 269 271
f 190 192 272 270
g Group34927
f 271 272 274 273
g Group34930
f 55 46 271 273
f 192 194 274 272
g Group34927
f 273 274 276 275
g Group34930
f 64 55 273 275
f 194 196 276 274
g Group34927
f 275 276 278 277
g Group34930
f 223 64 275 277
f 196 224 278 276
g Group34927
f 262 280 279 261
g Group34930
f 9 218 279 280
f 165 9 280 262
g Group34927
f 284 283 282 281
g Group34930
f 168 166 284 281
f 18 27 282 283
g Group34927
f 281 282 286 285
g Group34930
f 170 168 281 285
f 27 36 286 282
g Group34927
f 285 286 288 287
g Group34930
f 172 170 285 287
f 36 45 288 286
g Group34927
f 287 288 290 289
g Group34930
f 174 172 287 289
f 45 54 290 288
g Group34927
f 289 290 292 291
g Group34930
f 176 174 289 291
f 54 63 292 290
g Group34927
f 291 292 294 293
g Group34930
f 178 176 291 293
f 63 72 294 292
g Group34927
f 293 294 296 295
g Group34930
f 242 178 293 295
f 72 240 296 294
g Group34927
f 245 250 247 244
g Group34930
f 206 202 244 247
f 183 2 250 245
g Group34927
f 243 244 265 266
g Group34930
f 10 201 243 266
f 202 184 265 244
g Group34927
f 261 279 283 284
g Group34930
f 166 220 261 284
f 218 18 283 279
g Group34927
f 277 278 298 297
g Group34930
f 73 223 277 297
f 198 73 297 298
g Group34927
f 302 301 300 299
g Group34930
f 75 74 299 300
f 228 227 301 302
g Group34927
f 301 304 303 300
g Group34930
f 76 75 300 303
f 227 230 304 301
g Group34927
f 304 306 305 303
g Group34930
f 77 76 303 305
f 230 232 306 304
g Group34927
f 306 308 307 305
g Group34930
f 78 77 305 307
f 232 234 308 306
g Group34927
f 308 310 309 307
g Group34930
f 79 78 307 309
f 234 236 310 308
g Group34927
f 310 312 311 309
g Group34930
f 80 79 309 311
f 236 238 312 310
g Group34927
f 312 295 313 311
g Group34930
f 180 80 311 313
f 238 242 295 312
g Group34927
f 295 296 314 313
g Group34930
f 81 180 313 314
f 240 81 314 296
g Group34927
f 278 302 299 298
g Group34930
f 74 198 298 299
f 224 228 302 278
g Group9133
f 315 316 317
f 315 317 318
f 315 318 319
f 315 319 320
f 315 320 321
f 315 321 322
f 315 322 323
f 315 323 324
f 315 324 325
f 315 325 326
f 315 326 327
f 315 327 328
f 315 328 329
f 315 329 330
f 315 330 331
f 315 331 332
f 315 332 333
f 315 333 334
f 315 334 335
f 315 335 336
f 315 336 337
f 315 337 338
f 315 338 339
f 315 339 340
f 315 340 341
f 315 341 342
f 315 342 343
f 315 343 344
f 315 344 345
f 315 345 346
f 315 346 347
f 315 347 316
f 316 348 349 317
f 317 349 350 318
f 318 350 351 319
f 319 351 352 320
f 320 352 353 321
f 321 353 354 322
f 322 354 355 323
f 323 355 356 324
f 324 356 357 325
f 325 357 358 326
f 326 358 359 327
f 327 359 360 328
f 328 360 361 329
f 329 361 362 330
f 330 362 363 331
f 331 363 364 332
f 332 364 365 333
f 333 365 366 334
f 334 366 367 335
f 335 367 368 336
f 336 368 369 337
f 337 369 370 338
f 338 370 371 339
f 339 371 372 340
f 340 372 373 341
f 341 373 374 342
f 342 374 375 343
f 343 375 376 344
f 344 376 377 345
f 345 377 378 346
f 346 378 379 347
f 347 379 348 316
f 348 380 381 349
f 349 381 382 350
f 350 382 383 351
f 351 383 384 352
f 352 384 385 353
f 353 385 386 354
f 354 386 387 355
f 355 387 388 356
f 356 388 389 357
f 357 389 390 358
f 358 390 391 359
f 359 391 392 360
f 360 392 393 361
f 361 393 394 362
f 362 394 395 363
f 363 395 396 364
f 364 396 397 365
f 365 397 398 366
f 366 398 399 367
f 367 399 400 368
f 368 400 401 369
f 369 401 402 370
f 370 402 403 371
f 371 403 404 372
f 372 404 405 373
f 373 405 406 374
f 374 406 407 375
f 375 407 408 376
f 376 408 409 377
f 377 409 410 378
f 378 410 411 379
f 379 411 380 348
f 380 412 413 381
f 381 413 414 382
f 382 414 415 383
f 383 415 416 384
f 384 416 417 385
f 385 417 418 386
f 386 418 419 387
f 387 419 420 388
f 388 420 421 389
f 389 421 422 390
f 390 422 423 391
f 391 423 424 392
f 392 424 425 393
f 393 425 426 394
f 394 426 427 395
f 395 427 428 396
f 396 428 429 397
f 397 429 430 398
f 398 430 431 399
f 399 431 432 400
f 400 432 433 401
f 401 433 434 402
f 402 434 435 403
f 403 435 436 404
f 404 436 437 405
f 405 437 438 406
f 406 438 439 407
f 407 439 440 408
f 408 440 441 409
f 409 441 442 410
f 410 442 443 411
f 411 443 412 380
f 412 444 445 413
f 413 445 446 414
f 414 446 447 415
f 415 447 448 416
f 416 448 449 417
f 417 449 450 418
f 418 450 451 419
f 419 451 452 420
f 420 452 453 421
f 421 453 454 422
f 422 454 455 423
f 423 455 456 424
f 424 456 457 425
f 425 457 458 426
f 426 458 459 427
f 427 459 460 428
f 428 460 461 429
f 429 461 462 430
f 430 462 463 431
f 431 463 464 432
f 432 464 465 433
f 433 465 466 434
f 434 466 467 435
f 435 467 468 436
f 436 468 469 437
f 437 469 470 438
f 438 470 471 439
f 439 471 472 440
f 440 472 473 441
f 441 473 474 442
f 442 474 475 443
f 443 475 444 412
f 444 476 477 445
f 445 477 478 446
f 446 478 479 447
f 447 479 480 448
f 448 480 481 449
f 449 481 482 450
f 450 482 483 451
f 451 483 484 452
f 452 484 485 453
f 453 485 486 454
f 454 486 487 455
f 455 487 488 456
f 456 488 489 457
f 457 489 490 458
f 458 490 491 459
f 459 491 492 460
f 460 492 493 461
f 461 493 494 462
f 462 494 495 463
f 463 495 496 464
f 464 496 497 465
f 465 497 498 466
f 466 498 499 467
f 467 499 500 468
f 468 500 501 469
f 469 501 502 470
f 470 502 503 471
f 471 503 504 472
f 472 504 505 473
f 473 505 506 474
f 474 506 507 475
f 475 507 476 444
g Group34927
f 575 574 573 572
g Group34930
f 477 476 575 572
g Group34924
f 476 477 509 508
g Group34927
f 572 573 577 576
g Group34930
f 478 477 572 576
g Group34924
f 477 478 510 509
g Group34927
f 576 577 579 578
g Group34930
f 479 478 576 578
g Group34924
f 478 479 511 510
g Group34927
f 578 579 581 580
g Group34930
f 480 479 578 580
g Group34924
f 479 480 512 511
g Group34927
f 580 581 583 582
g Group34930
f 481 480 580 582
g Group34924
f 480 481 513 512
g Group34927
f 582 583 585 584
g Group34930
f 482 481 582 584
g Group34924
f 481 482 514 513
g Group34927
f 584 585 587 586
g Group34930
f 483 482 584 586
g Group34924
f 482 483 515 514
g Group34927
f 586 587 589 588
g Group34930
f 484 483 586 588
g Group34924
f 483 484 516 515
g Group34927
f 588 589 591 590
g Group34930
f 485 484 588 590
g Group34924
f 484 485 517 516
g Group34927
f 590 591 593 592
g Group34930
f 486 485 590 592
g Group34924
f 485 486 518 517
g Group34927
f 592 593 595 594
g Group34930
f 487 486 592 594
g Group34924
f 486 487 519 518
g Group34927
f 594 595 597 596
g Group34930
f 488 487 594 596
g Group34924
f 487 488 520 519
g Group34927
f 596 597 599 598
g Group34930
f 489 488 596 598
g Group34924
f 488 489 521 520
g Group34927
f 598 599 601 600
g Group34930
f 490 489 598 600
g Group34924
f 489 490 522 521
g Group34927
f 600 601 603 602
g Group34930
f 491 490 600 602
g Group34924
f 490 491 523 522
g Group34927
f 602 603 605 604
g Group34930
f 492 491 602 604
g Group34924
f 491 492 524 523
g Group34927
f 604 605 607 606
g Group34930
f 493 492 604 606
g Group34924
f 492 493 525 524
g Group34927
f 606 607 609 608
g Group34930
f 494 493 606 608
g Group34924
f 493 494 526 525
g Group34927
f 608 609 611 610
g Group34930
f 495 494 608 610
g Group34924
f 494 495 527 526
g Group34927
f 610 611 613 612
g Group34930
f 496 495 610 612
g Group34924
f 495 496 528 527
g Group34927
f 612 613 615 614
g Group34930
f 497 496 612 614
g Group34924
f 496 497 529 528
g Group34927
f 614 615 617 616
g Group34930
f 498 497 614 616
g Group34924
f 497 498 530 529
g Group34927
f 616 617 619 618
g Group34930
f 499 498 616 618
g Group34924
f 498 499 531 530
g Group34927
f 618 619 621 620
g Group34930
f 500 499 618 620
g Group34924
f 499 500 532 531
g Group34927
f 620 621 623 622
g Group34930
f 501 500 620 622
g Group34924
f 500 501 533 532
g Group34927
f 622 623 625 624
g Group34930
f 502 501 622 624
g Group34924
f 501 502 534 533
g Group34927
f 624 625 627 626
g Group34930
f 503 502 624 626
g Group34924
f 502 503 535 534
g Group34927
f 626 627 629 628
g Group34930
f 504 503 626 628
g Group34924
f 503 504 536 535
g Group34927
f 628 629 631 630
g Group34930
f 505 504 628 630
g Group34924
f 504 505 537 536
g Group34927
f 630 631 633 632
g Group34930
f 506 505 630 632
g Group34924
f 505 506 538 537
g Group34927
f 632 633 635 634
g Group34930
f 507 506 632 634
g Group34924
f 506 507 539 538
g Group34927
f 634 635 574 575
g Group34930
f 476 507 634 575
g Group34924
f 507 476 508 539
g Group34927
f 574 637 636 573
g Group34930
f 540 541 636 637
g Group34924
f 508 509 541 540
g Group34927
f 573 636 638 577
g Group34930
f 541 542 638 636
g Group34924
f 509 510 542 541
g Group34927
f 577 638 639 579
g Group34930
f 542 543 639 638
g Group34924
f 510 511 543 542
g Group34927
f 579 639 640 581
g Group34930
f 543 544 640 639
g Group34924
f 511 512 544 543
g Group34927
f 581 640 641 583
g Group34930
f 544 545 641 640
g Group34924
f 512 513 545 544
g Group34927
f 583 641 642 585
g Group34930
f 545 546 642 641
g Group34924
f 513 514 546 545
g Group34927
f 585 642 643 587
g Group34930
f 546 547 643 642
g Group34924
f 514 515 547 546
g Group34927
f 587 643 644 589
g Group34930
f 547 548 644 643
g Group34924
f 515 516 548 547
g Group34927
f 589 644 645 591
g Group34930
f 548 549 645 644
g Group34924
f 516 517 549 548
g Group34927
f 591 645 646 593
g Group34930
f 549 550 646 645
g Group34924
f 517 518 550 549
g Group34927
f 593 646 647 595
g Group34930
f 550 551 647 646
g Group34924
f 518 519 551 550
g Group34927
f 595 647 648 597
g Group34930
f 551 552 648 647
g Group34924
f 519 520 552 551
g Group34927
f 597 648 649 599
g Group34930
f 552 553 649 648
g Group34924
f 520 521 553 552
g Group34927
f 599 649 650 601
g Group34930
f 553 554 650 649
g Group34924
f 521 522 554 553
g Group34927
f 601 650 651 603
g Group34930
f 554 555 651 650
g Group34924
f 522 523 555 554
g Group34927
f 603 651 652 605
g Group34930
f 555 556 652 651
g Group34924
f 523 524 556 555
g Group34927
f 605 652 653 607
g Group34930
f 556 557 653 652
g Group34924
f 524 525 557 556
g Group34927
f 607 653 654 609
g Group34930
f 557 558 654 653
g Group34924
f 525 526 558 557
g Group34927
f 609 654 655 611
g Group34930
f 558 559 655 654
g Group34924
f 526 527 559 558
g Group34927
f 611 655 656 613
g Group34930
f 559 560 656 655
g Group34924
f 527 528 560 559
g Group34927
f 613 656 657 615
g Group34930
f 560 561 657 656
g Group34924
f 528 529 561 560
g Group34927
f 615 657 658 617
g Group34930
f 561 562 658 657
g Group34924
f 529 530 562 561
g Group34927
f 617 658 659 619
g Group34930
f 562 563 659 658
g Group34924
f 530 531 563 562
g Group34927
f 619 659 660 621
g Group34930
f 563 564 660 659
g Group34924
f 531 532 564 563
g Group34927
f 621 660 661 623
g Group34930
f 564 565 661 660
g Group34924
f 532 533 565 564
g Group34927
f 623 661 662 625
g Group34930
f 565 566 662 661
g Group34924
f 533 534 566 565
g Group34927
f 625 662 663 627
g Group34930
f 566 567 663 662
g Group34924
f 534 535 567 566
g Group34927
f 627 663 664 629
g Group34930
f 567 568 664 663
g Group34924
f 535 536 568 567
g Group34927
f 629 664 665 631
g Group34930
f 568 569 665 664
g Group34924
f 536 537 569 568
g Group34927
f 631 665 666 633
g Group34930
f 569 570 666 665
g Group34924
f 537 538 570 569
g Group34927
f 633 666 667 635
g Group34930
f 570 571 667 666
g Group34924
f 538 539 571 570
g Group34927
f 635 667 637 574
g Group34930
f 571 540 637 667
g Group34924
f 539 508 540 571
g Group16141
f 671 670 669 668
g Group16144
f 182 85 671 668
f 85 199 670 671
g Group16141
f 675 674 673 672
g Group16144
f 86 82 675 672
f 203 204 673 674
g Group16141
f 672 673 677 676
g Group16144
f 88 86 672 676
f 204 207 677 673
g Group16141
f 676 677 679 678
g Group16144
f 90 88 676 678
f 207 209 679 677
g Group16141
f 678 679 681 680
g Group16144
f 92 90 678 680
f 209 211 681 679
g Group16141
f 680 681 683 682
g Group16144
f 94 92 680 682
f 211 213 683 681
g Group16141
f 682 683 685 684
g Group16144
f 96 94 682 684
f 213 215 685 683
g Group16141
f 684 685 687 686
g Group16144
f 164 96 684 686
f 215 217 687 685
g Group16141
f 691 690 689 688
g Group16144
f 185 181 688 689
f 84 101 690 691
g Group16141
f 690 693 692 689
g Group16144
f 187 185 689 692
f 101 110 693 690
g Group16141
f 693 695 694 692
g Group16144
f 189 187 692 694
f 110 119 695 693
g Group16141
f 695 697 696 694
g Group16144
f 191 189 694 696
f 119 128 697 695
g Group16141
f 697 699 698 696
g Group16144
f 193 191 696 698
f 128 137 699 697
g Group16141
f 699 701 700 698
g Group16144
f 195 193 698 700
f 137 146 701 699
g Group16141
f 701 703 702 700
g Group16144
f 222 195 700 702
f 146 221 703 701
g Group16141
f 686 687 705 704
g Group16144
f 98 164 686 704
f 219 98 704 705
g Group16141
f 709 708 707 706
g Group16144
f 108 99 706 707
f 163 167 708 709
g Group16141
f 708 711 710 707
g Group16144
f 117 108 707 710
f 167 169 711 708
g Group16141
f 711 713 712 710
g Group16144
f 126 117 710 712
f 169 171 713 711
g Group16141
f 713 715 714 712
g Group16144
f 135 126 712 714
f 171 173 715 713
g Group16141
f 715 717 716 714
g Group16144
f 144 135 714 716
f 173 175 717 715
g Group16141
f 717 719 718 716
g Group16144
f 153 144 716 718
f 175 177 719 717
g Group16141
f 719 721 720 718
g Group16144
f 241 153 718 720
f 177 239 721 719
g Group16141
f 668 669 674 675
g Group16144
f 82 182 668 675
f 200 203 674 669
g Group16141
f 670 691 688 669
g Group16144
f 181 200 669 688
f 199 84 691 670
g Group16141
f 687 709 706 705
g Group16144
f 99 219 705 706
f 217 163 709 687
g Group16141
f 703 723 722 702
g Group16144
f 155 197 722 723
f 221 155 723 703
g Group16141
f 727 726 725 724
g Group16144
f 226 225 727 724
f 154 156 725 726
g Group16141
f 724 725 729 728
g Group16144
f 229 226 724 728
f 156 157 729 725
g Group16141
f 728 729 731 730
g Group16144
f 231 229 728 730
f 157 158 731 729
g Group16141
f 730 731 733 732
g Group16144
f 233 231 730 732
f 158 159 733 731
g Group16141
f 732 733 735 734
g Group16144
f 235 233 732 734
f 159 160 735 733
g Group16141
f 734 735 737 736
g Group16144
f 237 235 734 736
f 160 161 737 735
g Group16141
f 736 737 738 721
g Group16144
f 239 237 736 721
f 161 179 738 737
g Group16141
f 721 738 739 720
g Group16144
f 162 241 720 739
f 179 162 739 738
g Group16141
f 702 722 726 727
g Group16144
f 225 222 702 727
f 197 154 726 722

 