# File exported by ZBrush version 2021
# www.zbrush.com
#Vertex Count 428
#Face Count 426
#Auto scale x=1.000000 y=1.000000 z=1.000000
#Auto offset x=0.000000 y=0.000000 z=0.000000
v -0.061921 0.61726951 0.0427885
v -0.06385999 0.60174548 -0.00908154
v -0.42616099 -0.28988352 0.04845047
v -0.26014301 -0.33637049 0.10051345
v 0 0.6334235 0.03834849
v 0 0.54375046 0.06057548
v -0.100922 0.54701751 0.06154847
v -0.0943 0.6559385 0.0314055
v 0 0.70864749 0.01216346
v -0.165267 0.58371347 0.05441451
v -0.097199 0.64163947 -0.02076149
v -0.17158 0.56633651 0.00320649
v -0.103675 0.53059947 0.00989848
v 0 0.61830747 -0.01367253
v 0 0.69464349 -0.04025751
v 0 0.52445346 0.0096035
v -0.45388099 -0.1728755 0.06240546
v -0.558761 -0.1843225 0.05682951
v -0.49295601 -0.32171851 0.04008448
v -0.35348999 -0.44894051 0.02135747
v -0.31800401 -0.33739149 0.04364246
v -0.30188199 -0.20155251 0.06265151
v -0.324108 -0.39801749 0.0885865
v -0.442855 -0.28808149 0.1028155
v -0.31345999 -0.1996555 0.11689847
v -0.14722999 -0.20293951 0.11882251
v -0.139787 -0.34045252 0.10162448
v 0 -0.23975351 0.11619651
v 0 -0.35823851 0.09990948
v 0 -0.53503453 0.06370949
v -0.14399699 -0.52457052 0.0649805
v 0 -0.6904385 0.0198695
v -0.171699 -0.62282252 0.03830748
v -0.37758201 -0.48056551 0.06801545
v -0.51163798 -0.34203651 0.09082049
v -0.19083899 -0.68795853 0.01769751
v -0.411592 -0.53232353 0.05442446
v -0.56336098 -0.3789345 0.08286249
v -0.64750099 -0.19561751 0.10747146
v -0.58643001 -0.18020151 0.1099525
v -0.44178301 -0.5745055 0.04375547
v -0.60774797 -0.4088355 0.0754705
v -0.70018202 -0.20854051 0.10424047
v -0.69752001 0.00783749 0.12413948
v -0.647022 0.00483449 0.12502551
v -0.64677101 -0.43913051 0.08876049
v -0.74508202 -0.2213785 0.1217395
v -0.73963201 0.01134849 0.14534843
v -0.66966801 0.20806849 0.14780044
v -0.63251501 0.19425648 0.12543648
v -0.78544801 -0.2301975 0.1186285
v -0.77978402 0.01627049 0.14509546
v -0.70526599 0.22126749 0.14828848
v -0.61437201 0.38150948 0.13249051
v -0.58454299 0.36603349 0.1328895
v -0.80444699 0.02087149 0.10771751
v -0.72630697 0.22651548 0.10977751
v -0.63011598 0.38358148 0.09420049
v -0.53535699 0.5173695 0.0701425
v -0.52163201 0.51753646 0.10872447
v -0.72712302 0.22270149 0.07318848
v -0.63208299 0.37828049 0.06192547
v -0.53768599 0.5107795 0.04102248
v -0.44380399 0.62776947 0.0127955
v -0.44139099 0.63521951 0.04021048
v -0.609326 0.36069747 0.05434346
v -0.52107399 0.49430948 0.03229945
v -0.43025198 0.61206746 0.0024665
v -0.33526301 0.72062552 -0.03653752
v -0.34562999 0.73576146 -0.0240125
v -0.496701 0.47506147 0.03450048
v -0.40832701 0.59339851 0.00548946
v -0.31515398 0.70194447 -0.03219151
v -0.19623999 0.81421947 -0.07696253
v -0.206347 0.83653646 -0.08457851
v -0.384162 0.57396048 0.01193851
v -0.29346498 0.68268346 -0.02346348
v -0.17884999 0.7910245 -0.06600552
v 0 0.9048115 -0.11878949
v 0 0.93117946 -0.13468653
v -0.26835501 0.65796548 -0.01782649
v -0.160087 0.7635765 -0.05757254
v 0 0.86669546 -0.10206949
v -0.14155399 0.73197048 -0.04820454
v 0 0.81795448 -0.08320254
v -0.117935 0.6911875 -0.03608351
v 0 0.7597205 -0.06292152
v -0.24064199 0.63015049 -0.01147049
v -0.206474 0.5974335 -0.00395852
v -0.32228499 0.52209651 0.02036351
v -0.28357601 0.49107748 0.02528649
v -0.227279 0.45633849 0.03034848
v -0.35079199 0.36875748 0.04959648
v -0.267769 0.32919049 0.05303347
v -0.13572399 0.29800149 0.05475145
v -0.125327 0.41922047 0.03490048
v 0 0.29171848 0.0546965
v 0 0.41243249 0.03477251
v -0.142515 0.17192348 0.06797951
v 0 0.16503548 0.06571149
v -0.146132 0.04146149 0.07401347
v 0 0.03296449 0.07262349
v -0.14914399 -0.09225551 0.07205247
v 0 -0.10287851 0.06915849
v -0.15120899 -0.23489551 0.06129646
v 0 -0.23501251 0.0622555
v -0.152207 -0.39754751 0.03764247
v 0 -0.4082705 0.03619545
v -0.15805499 -0.55038052 0.0034095
v 0 -0.58047449 -0.0033065
v -0.174887 -0.63555353 -0.02263051
v 0 -0.71266949 -0.04516553
v -0.193186 -0.69730448 -0.04187053
v 0 -0.80745351 -0.07816249
v -0.21438799 -0.74274152 -0.05975753
v 0 -0.88177049 -0.11043548
v -0.23174099 -0.78618949 -0.07638251
v 0 -0.94260352 -0.13814353
v -0.248186 -0.81984651 -0.08662051
v 0 -0.98087453 -0.14828848
v -0.255517 -0.84104049 -0.05884152
v 0 -0.99522948 -0.11694753
v -0.24264599 -0.82988351 -0.00885951
v 0 -0.99192249 -0.07348048
v -0.22683399 -0.79187452 0.00673246
v 0 -0.94567853 -0.05211854
v -0.20677 -0.74213349 0.00086647
v 0 -0.87173849 -0.04378849
v 0 -0.79103249 -0.01514554
v -0.470366 -0.61591053 0.05351746
v -0.49639898 -0.6481685 0.04193848
v -0.68181097 -0.4620735 0.08062446
v -0.51131397 -0.6595835 0.00104248
v -0.70363998 -0.47092151 0.04279446
v -0.81161701 -0.23185651 0.08359247
v -0.700778 -0.46211451 0.00243049
v -0.80932998 -0.22706751 0.04219949
v -0.80266797 0.02068549 0.06930351
v -0.76820898 -0.21996951 0.04041749
v -0.76316702 0.01086649 0.06529051
v -0.69427901 0.20424749 0.06896549
v -0.72346502 0.00133849 0.06546646
v -0.66087502 0.18652948 0.06839746
v -0.58147901 0.34121248 0.05551648
v -0.62515497 0.16866049 0.07153248
v -0.550565 0.32079049 0.06041246
v -0.46917501 0.45432248 0.0403195
v -0.51368302 0.29635247 0.0621885
v -0.43637499 0.4291425 0.04382449
v -0.35537099 0.54976248 0.01588147
v -0.39830499 0.40042448 0.04682946
v -0.46869599 0.26731449 0.0642575
v -0.406948 0.23552449 0.06614351
v -0.52695101 0.12286748 0.07178247
v -0.44504499 0.09586749 0.07375645
v -0.30081298 0.05993049 0.0737105
v -0.28913998 0.19397549 0.06766647
v -0.46942099 -0.04333851 0.07163548
v -0.30724099 -0.0691275 0.0723015
v -0.56306701 -0.0304765 0.07056951
v -0.58184099 0.14766849 0.07130247
v -0.62757402 -0.0185965 0.06989246
v -0.624448 -0.19543451 0.05325847
v -0.68009597 -0.00846651 0.06908947
v -0.67938 -0.2049005 0.05101245
v -0.593566 -0.39287552 0.02428448
v -0.55008202 -0.36286249 0.03107148
v -0.42094299 -0.55040949 -0.00554651
v -0.38718798 -0.50775653 0.00554049
v -0.63147002 -0.41717949 0.01332646
v -0.451328 -0.58464151 -0.01907652
v -0.66674399 -0.43960252 0.00525349
v -0.47959598 -0.61576849 -0.03033053
v -0.50738799 -0.64761549 -0.03788852
v -0.72521901 -0.21261151 0.0440945
v 0 0.95916646 -0.14762049
v 0 0.9822725 -0.13753449
v -0.219096 0.86106246 -0.0748645
v 0 0.99522948 -0.10852551
v -0.218079 0.86966347 -0.04964351
v -0.34333801 0.74421346 0.00225848
v -0.200176 0.86320149 -0.00998252
v -0.331303 0.74706751 0.03936648
v -0.42918598 0.63755947 0.0782755
v -0.310952 0.72890549 0.04383546
v -0.40594199 0.62002348 0.08082646
v -0.49566999 0.50061947 0.11048346
v -0.38209998 0.59593451 0.06247347
v -0.46806499 0.4784885 0.09086149
v -0.55217897 0.34664148 0.11215549
v -0.43285098 0.4567295 0.0935595
v -0.512533 0.3275595 0.1131975
v -0.58797901 0.18056948 0.12481451
v -0.46647 0.30691948 0.11437648
v -0.53452098 0.16601149 0.12435048
v -0.585666 0.00390149 0.12625145
v -0.465402 0.14929349 0.1251685
v -0.50634199 0.00535049 0.12723946
v -0.50636601 -0.15595251 0.1164695
v -0.359225 -0.0022335 0.12792551
v -0.364452 -0.1110505 0.1231355
v -0.162423 -0.00158751 0.12843346
v -0.156816 -0.1010245 0.12583845
v 0 -0.00051851 0.12854749
v 0 -0.10576351 0.1231985
v -0.16145199 0.10283449 0.12634247
v 0 0.10472749 0.12304747
v -0.154262 0.21110948 0.11915147
v 0 0.21292349 0.11739349
v -0.14124199 0.32301649 0.10603147
v 0 0.32389047 0.10522049
v -0.125639 0.4367215 0.08661246
v 0 0.4358055 0.08561748
v -0.27112799 0.3647705 0.1026085
v -0.221284 0.4818345 0.08011949
v -0.34396299 0.40554949 0.09845346
v -0.27458 0.5182175 0.07458448
v -0.200301 0.61660051 0.04665249
v -0.11474099 0.70651149 0.01573151
v -0.31518301 0.54688447 0.07024449
v -0.235372 0.64889347 0.03933948
v -0.13883499 0.74805247 0.00340247
v 0 0.83162248 -0.0306425
v 0 0.77342349 -0.0103845
v -0.26403299 0.67668849 0.03307747
v -0.156935 0.78001147 -0.00609952
v 0 0.88115447 -0.04942554
v -0.17474299 0.80783051 -0.01467549
v 0 0.91987448 -0.06613552
v -0.183712 0.8407855 -0.0028665
v 0 0.95606148 -0.05876153
v 0 0.98351049 -0.07144153
v -0.290443 0.70184546 0.02729749
v -0.35102 0.57291549 0.06619846
v -0.39194899 0.43276947 0.09628546
v -0.409202 0.28285747 0.11567449
v -0.3109 0.24076549 0.11835551
v -0.34012201 0.11560148 0.12660348
v 0.061921 0.61726951 0.0427885
v 0.06385999 0.60174548 -0.00908154
v 0.42616099 -0.28988352 0.04845047
v 0.26014301 -0.33637049 0.10051345
v 0.100922 0.54701751 0.06154847
v 0.0943 0.6559385 0.0314055
v 0.165267 0.58371347 0.05441451
v 0.097199 0.64163947 -0.02076149
v 0.17158 0.56633651 0.00320649
v 0.103675 0.53059947 0.00989848
v 0.45388099 -0.1728755 0.06240546
v 0.558761 -0.1843225 0.05682951
v 0.49295601 -0.32171851 0.04008448
v 0.35348999 -0.44894051 0.02135747
v 0.31800401 -0.33739149 0.04364246
v 0.30188199 -0.20155251 0.06265151
v 0.324108 -0.39801749 0.0885865
v 0.442855 -0.28808149 0.1028155
v 0.31345999 -0.1996555 0.11689847
v 0.14722999 -0.20293951 0.11882251
v 0.139787 -0.34045252 0.10162448
v 0.14399699 -0.52457052 0.0649805
v 0.171699 -0.62282252 0.03830748
v 0.37758201 -0.48056551 0.06801545
v 0.51163798 -0.34203651 0.09082049
v 0.19083899 -0.68795853 0.01769751
v 0.411592 -0.53232353 0.05442446
v 0.56336098 -0.3789345 0.08286249
v 0.64750099 -0.19561751 0.10747146
v 0.58643001 -0.18020151 0.1099525
v 0.44178301 -0.5745055 0.04375547
v 0.60774797 -0.4088355 0.0754705
v 0.70018202 -0.20854051 0.10424047
v 0.69752001 0.00783749 0.12413948
v 0.647022 0.00483449 0.12502551
v 0.64677101 -0.43913051 0.08876049
v 0.74508202 -0.2213785 0.1217395
v 0.73963201 0.01134849 0.14534843
v 0.66966801 0.20806849 0.14780044
v 0.63251501 0.19425648 0.12543648
v 0.78544801 -0.2301975 0.1186285
v 0.77978402 0.01627049 0.14509546
v 0.70526599 0.22126749 0.14828848
v 0.61437201 0.38150948 0.13249051
v 0.58454299 0.36603349 0.1328895
v 0.80444699 0.02087149 0.10771751
v 0.72630697 0.22651548 0.10977751
v 0.63011598 0.38358148 0.09420049
v 0.53535699 0.5173695 0.0701425
v 0.52163201 0.51753646 0.10872447
v 0.72712302 0.22270149 0.07318848
v 0.63208299 0.37828049 0.06192547
v 0.53768599 0.5107795 0.04102248
v 0.44380399 0.62776947 0.0127955
v 0.44139099 0.63521951 0.04021048
v 0.609326 0.36069747 0.05434346
v 0.52107399 0.49430948 0.03229945
v 0.43025198 0.61206746 0.0024665
v 0.33526301 0.72062552 -0.03653752
v 0.34562999 0.73576146 -0.0240125
v 0.496701 0.47506147 0.03450048
v 0.40832701 0.59339851 0.00548946
v 0.31515398 0.70194447 -0.03219151
v 0.19623999 0.81421947 -0.07696253
v 0.206347 0.83653646 -0.08457851
v 0.384162 0.57396048 0.01193851
v 0.29346498 0.68268346 -0.02346348
v 0.17884999 0.7910245 -0.06600552
v 0.26835501 0.65796548 -0.01782649
v 0.160087 0.7635765 -0.05757254
v 0.14155399 0.73197048 -0.04820454
v 0.117935 0.6911875 -0.03608351
v 0.24064199 0.63015049 -0.01147049
v 0.206474 0.5974335 -0.00395852
v 0.32228499 0.52209651 0.02036351
v 0.28357601 0.49107748 0.02528649
v 0.227279 0.45633849 0.03034848
v 0.35079199 0.36875748 0.04959648
v 0.267769 0.32919049 0.05303347
v 0.13572399 0.29800149 0.05475145
v 0.125327 0.41922047 0.03490048
v 0.142515 0.17192348 0.06797951
v 0.146132 0.04146149 0.07401347
v 0.14914399 -0.09225551 0.07205247
v 0.15120899 -0.23489551 0.06129646
v 0.152207 -0.39754751 0.03764247
v 0.15805499 -0.55038052 0.0034095
v 0.174887 -0.63555353 -0.02263051
v 0.193186 -0.69730448 -0.04187053
v 0.21438799 -0.74274152 -0.05975753
v 0.23174099 -0.78618949 -0.07638251
v 0.248186 -0.81984651 -0.08662051
v 0.255517 -0.84104049 -0.05884152
v 0.24264599 -0.82988351 -0.00885951
v 0.22683399 -0.79187452 0.00673246
v 0.20677 -0.74213349 0.00086647
v 0.470366 -0.61591053 0.05351746
v 0.49639898 -0.6481685 0.04193848
v 0.68181097 -0.4620735 0.08062446
v 0.51131397 -0.6595835 0.00104248
v 0.70363998 -0.47092151 0.04279446
v 0.81161701 -0.23185651 0.08359247
v 0.700778 -0.46211451 0.00243049
v 0.80932998 -0.22706751 0.04219949
v 0.80266797 0.02068549 0.06930351
v 0.76820898 -0.21996951 0.04041749
v 0.76316702 0.01086649 0.06529051
v 0.69427901 0.20424749 0.06896549
v 0.72346502 0.00133849 0.06546646
v 0.66087502 0.18652948 0.06839746
v 0.58148002 0.34121248 0.05551648
v 0.62515497 0.16866049 0.07153248
v 0.550565 0.32079049 0.06041246
v 0.46917501 0.45432248 0.0403195
v 0.51368302 0.29635247 0.0621885
v 0.43637499 0.4291425 0.04382449
v 0.35537099 0.54976248 0.01588147
v 0.39830499 0.40042448 0.04682946
v 0.46869599 0.26731449 0.0642575
v 0.406948 0.23552449 0.06614351
v 0.52695101 0.12286748 0.07178247
v 0.44504499 0.09586749 0.07375645
v 0.30081298 0.05993049 0.0737105
v 0.28913998 0.19397549 0.06766647
v 0.46942099 -0.04333851 0.07163548
v 0.30724099 -0.0691275 0.0723015
v 0.56306701 -0.0304765 0.07056951
v 0.58184099 0.14766849 0.07130247
v 0.62757402 -0.0185965 0.06989246
v 0.624448 -0.19543451 0.05325847
v 0.68009597 -0.00846651 0.06908947
v 0.67938 -0.2049005 0.05101245
v 0.593566 -0.39287552 0.02428448
v 0.55008202 -0.36286249 0.03107148
v 0.42094299 -0.55040949 -0.00554651
v 0.38718798 -0.50775653 0.00554049
v 0.63147002 -0.41717949 0.01332646
v 0.451328 -0.58464151 -0.01907652
v 0.66674399 -0.43960252 0.00525349
v 0.47959598 -0.61576849 -0.03033053
v 0.50738799 -0.64761549 -0.03788852
v 0.72521901 -0.21261151 0.0440945
v 0.219096 0.86106246 -0.0748645
v 0.218079 0.86966347 -0.04964351
v 0.34333801 0.74421346 0.00225848
v 0.200176 0.86320149 -0.00998252
v 0.331303 0.74706751 0.03936648
v 0.42918598 0.63755947 0.0782755
v 0.310952 0.72890549 0.04383546
v 0.40594199 0.62002348 0.08082646
v 0.49566999 0.50061947 0.11048346
v 0.38209998 0.59593451 0.06247347
v 0.46806499 0.4784885 0.09086149
v 0.55217999 0.34664148 0.11215549
v 0.43285098 0.4567295 0.0935595
v 0.512533 0.3275595 0.1131975
v 0.58797901 0.18056948 0.12481451
v 0.46647 0.30691948 0.11437648
v 0.53452098 0.16601149 0.12435048
v 0.585666 0.00390149 0.12625145
v 0.465402 0.14929349 0.1251685
v 0.50634199 0.00535049 0.12723946
v 0.50636601 -0.15595251 0.1164695
v 0.359225 -0.0022335 0.12792551
v 0.364452 -0.1110505 0.1231355
v 0.16242399 -0.00158751 0.12843346
v 0.156816 -0.1010245 0.12583845
v 0.16145199 0.10283449 0.12634247
v 0.154263 0.21110948 0.11915147
v 0.14124199 0.32301649 0.10603147
v 0.125639 0.4367215 0.08661246
v 0.27112799 0.3647705 0.1026085
v 0.221284 0.4818345 0.08011949
v 0.34396299 0.40554949 0.09845346
v 0.27458 0.5182175 0.07458448
v 0.200301 0.61660051 0.04665249
v 0.11474099 0.70651149 0.01573151
v 0.31518301 0.54688447 0.07024449
v 0.235372 0.64889347 0.03933948
v 0.13883499 0.74805247 0.00340247
v 0.26403299 0.67668849 0.03307747
v 0.156935 0.78001147 -0.00609952
v 0.17474299 0.80783051 -0.01467549
v 0.183712 0.8407855 -0.0028665
v 0.290443 0.70184546 0.02729749
v 0.35102 0.57291549 0.06619846
v 0.39194899 0.43276947 0.09628546
v 0.409202 0.28285747 0.11567449
v 0.3109 0.24076549 0.11835551
v 0.34012201 0.11560148 0.12660348
g Group18796
f 1 5 6 7
f 1 8 9 5
f 1 7 10 8
f 2 11 12 13
f 2 14 15 11
f 2 13 16 14
f 3 17 18 19
f 3 19 20 21
f 3 21 22 17
f 4 23 24 25
f 4 25 26 27
f 27 26 28 29
f 27 29 30 31
f 27 31 23 4
f 31 30 32 33
f 31 33 34 23
f 34 35 24 23
f 34 33 36 37
f 34 37 38 35
f 38 39 40 35
f 38 37 41 42
f 38 42 43 39
f 43 44 45 39
f 43 42 46 47
f 43 47 48 44
f 48 49 50 44
g Group16138
f 48 47 51 52
f 48 52 53 49
f 53 54 55 49
g Group18796
f 53 52 56 57
f 53 57 58 54
f 58 59 60 54
f 58 57 61 62
f 58 62 63 59
f 63 64 65 59
f 63 62 66 67
f 63 67 68 64
f 68 69 70 64
g Group16138
f 68 67 71 72
f 68 72 73 69
f 73 74 75 69
g Group18796
f 73 72 76 77
f 73 77 78 74
f 78 79 80 74
f 78 77 81 82
f 78 82 83 79
f 83 82 84 85
f 85 84 86 87
f 87 86 11 15
f 86 84 88 89
f 86 89 12 11
f 89 88 90 91
f 89 91 92 12
f 92 91 93 94
f 92 94 95 96
f 92 96 13 12
f 96 95 97 98
f 96 98 16 13
f 97 95 99 100
f 100 99 101 102
f 102 101 103 104
f 104 103 105 106
f 106 105 107 108
f 108 107 109 110
f 110 109 111 112
f 112 111 113 114
f 114 113 115 116
g Group16138
f 116 115 117 118
g Group18796
f 118 117 119 120
f 120 119 121 122
f 122 121 123 124
g Group16138
f 124 123 125 126
g Group18796
f 126 125 127 128
f 128 127 36 129
f 129 36 33 32
f 127 41 37 36
f 127 125 130 41
f 130 46 42 41
g Group16138
f 130 125 123 131
f 130 131 132 46
f 132 51 47 46
g Group18796
f 132 131 133 134
f 132 134 135 51
f 135 56 52 51
f 135 134 136 137
f 135 137 138 56
f 138 61 57 56
f 138 137 139 140
f 138 140 141 61
f 141 66 62 61
g Group16138
f 141 140 142 143
f 141 143 144 66
f 144 71 67 66
g Group18796
f 144 143 145 146
f 144 146 147 71
f 147 76 72 71
f 147 146 148 149
f 147 149 150 76
f 150 81 77 76
f 150 149 151 90
f 150 90 88 81
f 151 149 148 152
f 151 152 153 93
f 151 93 91 90
f 153 152 154 155
f 153 155 156 157
f 153 157 94 93
f 157 156 101 99
f 157 99 95 94
f 156 155 158 159
f 156 159 103 101
f 159 158 17 22
f 159 22 105 103
f 158 155 154 160
f 158 160 18 17
f 160 154 161 162
f 160 162 163 18
f 163 162 164 165
f 163 165 166 167
f 163 167 19 18
f 167 166 168 169
f 167 169 20 19
f 169 168 113 111
f 169 111 109 20
f 168 166 170 171
f 168 171 115 113
g Group16138
f 171 170 172 173
f 171 173 117 115
g Group18796
f 173 172 136 174
f 173 174 119 117
f 174 136 134 133
f 174 133 121 119
f 172 139 137 136
g Group16138
f 172 170 175 139
f 175 142 140 139
g Group18796
f 175 170 166 165
f 175 165 164 142
f 164 145 143 142
f 164 162 161 145
f 161 148 146 145
f 161 154 152 148
f 133 131 123 121
f 109 107 21 20
f 107 105 22 21
f 88 84 82 81
g Group16138
f 80 176 75 74
g Group18796
f 176 177 178 75
f 178 177 179 180
f 178 180 181 70
f 178 70 69 75
f 181 180 182 183
f 181 183 184 65
f 181 65 64 70
g Group16138
f 184 183 185 186
f 184 186 187 60
g Group18796
f 184 60 59 65
f 187 186 188 189
f 187 189 190 55
g Group16138
f 187 55 54 60
g Group18796
f 190 189 191 192
f 190 192 193 50
f 190 50 49 55
f 193 192 194 195
f 193 195 196 45
f 193 45 44 50
f 196 195 197 198
f 196 198 199 40
f 196 40 39 45
f 199 198 200 201
f 199 201 25 24
f 199 24 35 40
f 201 200 202 203
f 201 203 26 25
f 203 202 204 205
f 203 205 28 26
f 204 202 206 207
f 207 206 208 209
f 209 208 210 211
f 211 210 212 213
f 213 212 7 6
f 212 210 214 215
f 212 215 10 7
f 215 214 216 217
f 215 217 218 10
f 218 219 8 10
f 218 217 220 221
f 218 221 222 219
f 222 223 224 219
f 222 221 225 226
f 222 226 227 223
f 227 226 228 229
f 229 228 230 231
g Group16138
f 231 230 182 232
g Group18796
f 232 182 180 179
f 230 228 233 185
g Group16138
f 230 185 183 182
g Group18796
f 233 228 226 225
f 233 225 234 188
f 233 188 186 185
f 234 225 221 220
f 234 220 235 191
f 234 191 189 188
f 235 220 217 216
f 235 216 236 194
f 235 194 192 191
f 236 216 214 237
f 236 237 238 197
f 236 197 195 194
f 238 237 208 206
f 238 206 202 200
f 238 200 198 197
f 237 214 210 208
f 224 9 8 219
f 239 243 6 5
f 239 5 9 244
f 239 244 245 243
f 240 248 247 246
f 240 246 15 14
f 240 14 16 248
f 241 251 250 249
f 241 253 252 251
f 241 249 254 253
f 242 257 256 255
f 242 259 258 257
f 259 29 28 258
f 259 260 30 29
f 259 242 255 260
f 260 261 32 30
f 260 255 262 261
f 262 255 256 263
f 262 265 264 261
f 262 263 266 265
f 266 263 268 267
f 266 270 269 265
f 266 267 271 270
f 271 267 273 272
f 271 275 274 270
f 271 272 276 275
f 276 272 278 277
g Group16138
f 276 280 279 275
f 276 277 281 280
f 281 277 283 282
g Group18796
f 281 285 284 280
f 281 282 286 285
f 286 282 288 287
f 286 290 289 285
f 286 287 291 290
f 291 287 293 292
f 291 295 294 290
f 291 292 296 295
f 296 292 298 297
g Group16138
f 296 300 299 295
f 296 297 301 300
f 301 297 303 302
g Group18796
f 301 305 304 300
f 301 302 306 305
f 306 302 80 79
f 306 308 307 305
f 306 79 83 308
f 83 85 309 308
f 85 87 310 309
f 87 15 246 310
f 310 312 311 309
f 310 246 247 312
f 312 314 313 311
f 312 247 315 314
f 315 317 316 314
f 315 319 318 317
f 315 247 248 319
f 319 98 97 318
f 319 248 16 98
f 97 100 320 318
f 100 102 321 320
f 102 104 322 321
f 104 106 323 322
f 106 108 324 323
f 108 110 325 324
f 110 112 326 325
f 112 114 327 326
f 114 116 328 327
g Group16138
f 116 118 329 328
g Group18796
f 118 120 330 329
f 120 122 331 330
f 122 124 332 331
g Group16138
f 124 126 333 332
g Group18796
f 126 128 334 333
f 128 129 264 334
f 129 32 261 264
f 334 264 265 269
f 334 269 335 333
f 335 269 270 274
g Group16138
f 335 336 332 333
f 335 274 337 336
f 337 274 275 279
g Group18796
f 337 339 338 336
f 337 279 340 339
f 340 279 280 284
f 340 342 341 339
f 340 284 343 342
f 343 284 285 289
f 343 345 344 342
f 343 289 346 345
f 346 289 290 294
g Group16138
f 346 348 347 345
f 346 294 349 348
f 349 294 295 299
g Group18796
f 349 351 350 348
f 349 299 352 351
f 352 299 300 304
f 352 354 353 351
f 352 304 355 354
f 355 304 305 307
f 355 313 356 354
f 355 307 311 313
f 356 357 353 354
f 356 316 358 357
f 356 313 314 316
f 358 360 359 357
f 358 362 361 360
f 358 316 317 362
f 362 320 321 361
f 362 317 318 320
f 361 364 363 360
f 361 321 322 364
f 364 254 249 363
f 364 322 323 254
f 363 365 359 360
f 363 249 250 365
f 365 367 366 359
f 365 250 368 367
f 368 370 369 367
f 368 372 371 370
f 368 250 251 372
f 372 374 373 371
f 372 251 252 374
f 374 326 327 373
f 374 252 325 326
f 373 376 375 371
f 373 327 328 376
g Group16138
f 376 378 377 375
f 376 328 329 378
g Group18796
f 378 379 341 377
f 378 329 330 379
f 379 338 339 341
f 379 330 331 338
f 377 341 342 344
g Group16138
f 377 344 380 375
f 380 344 345 347
g Group18796
f 380 370 371 375
f 380 347 369 370
f 369 347 348 350
f 369 350 366 367
f 366 350 351 353
f 366 353 357 359
f 338 331 332 336
f 325 252 253 324
f 324 253 254 323
f 311 307 308 309
g Group16138
f 80 302 303 176
g Group18796
f 176 303 381 177
f 381 382 179 177
f 381 298 383 382
f 381 303 297 298
f 383 385 384 382
f 383 293 386 385
f 383 298 292 293
g Group16138
f 386 388 387 385
f 386 288 389 388
g Group18796
f 386 293 287 288
f 389 391 390 388
f 389 283 392 391
g Group16138
f 389 288 282 283
g Group18796
f 392 394 393 391
f 392 278 395 394
f 392 283 277 278
f 395 397 396 394
f 395 273 398 397
f 395 278 272 273
f 398 400 399 397
f 398 268 401 400
f 398 273 267 268
f 401 403 402 400
f 401 256 257 403
f 401 268 263 256
f 403 405 404 402
f 403 257 258 405
f 405 205 204 404
f 405 258 28 205
f 204 207 406 404
f 207 209 407 406
f 209 211 408 407
f 211 213 409 408
f 213 6 243 409
f 409 411 410 408
f 409 243 245 411
f 411 413 412 410
f 411 245 414 413
f 414 245 244 415
f 414 417 416 413
f 414 415 418 417
f 418 415 224 223
f 418 420 419 417
f 418 223 227 420
f 227 229 421 420
f 229 231 422 421
g Group16138
f 231 232 384 422
g Group18796
f 232 179 382 384
f 422 387 423 421
g Group16138
f 422 384 385 387
g Group18796
f 423 419 420 421
f 423 390 424 419
f 423 387 388 390
f 424 416 417 419
f 424 393 425 416
f 424 390 391 393
f 425 412 413 416
f 425 396 426 412
f 425 393 394 396
f 426 427 410 412
f 426 399 428 427
f 426 396 397 399
f 428 406 407 427
f 428 402 404 406
f 428 399 400 402
f 427 407 408 410
f 224 415 244 9

 