# File exported by ZBrush version 2021
# www.zbrush.com
#Vertex Count 418
#Face Count 414
#Auto scale x=1.000000 y=1.000000 z=1.000000
#Auto offset x=0.000000 y=0.000000 z=0.000000
v 0.19253903 0.41978976 -0.09361481
v -0.19253905 0.41978976 -0.09361472
v -0.14440448 0.41978976 -0.09361469
v -0.09626926 0.41978976 -0.09361472
v -0.04813495 0.41978976 -0.09361475
v 0.00000001 0.41978976 -0.09361473
v 0.048135 0.41978976 -0.09361476
v 0.09626984 0.41978976 -0.09361477
v 0.14440453 0.41978976 -0.0936148
v 0.19253903 0.31484198 -0.09361481
v -0.19253905 0.31484198 -0.09361472
v -0.14440448 0.31484198 -0.09361469
v -0.09626926 0.31484198 -0.09361472
v -0.04813495 0.31484198 -0.09361475
v 0.00000001 0.31484198 -0.09361473
v 0.048135 0.31484198 -0.09361476
v 0.09626984 0.31484198 -0.09361477
v 0.14440453 0.31484198 -0.0936148
v 0.19253903 0.20989488 -0.09361481
v -0.19253905 0.20989488 -0.09361472
v -0.14440448 0.20989488 -0.09361469
v -0.09626926 0.20989488 -0.09361472
v -0.04813495 0.20989488 -0.09361475
v 0.00000001 0.20989488 -0.09361473
v 0.048135 0.20989488 -0.09361476
v 0.09626984 0.20989488 -0.09361477
v 0.14440453 0.20989488 -0.0936148
v 0.19253903 0.10494712 -0.09361481
v -0.19253905 0.10494712 -0.09361472
v -0.14440448 0.10494712 -0.09361469
v -0.09626926 0.10494712 -0.09361472
v -0.04813495 0.10494712 -0.09361475
v 0.00000001 0.10494712 -0.09361473
v 0.048135 0.10494712 -0.09361476
v 0.09626984 0.10494712 -0.09361477
v 0.14440453 0.10494712 -0.0936148
v 0.19253903 -0 -0.09361481
v -0.19253905 -0 -0.09361472
v -0.14440448 -0 -0.09361469
v -0.09626926 -0 -0.09361472
v -0.04813495 -0 -0.09361475
v 0.00000001 -0 -0.09361473
v 0.048135 -0 -0.09361476
v 0.09626984 -0 -0.09361477
v 0.14440453 -0 -0.0936148
v 0.19253903 -0.10494712 -0.09361481
v -0.19253905 -0.10494712 -0.09361472
v -0.14440448 -0.10494712 -0.09361469
v -0.09626926 -0.10494712 -0.09361472
v -0.04813495 -0.10494712 -0.09361475
v 0.00000001 -0.10494712 -0.09361473
v 0.048135 -0.10494712 -0.09361476
v 0.09626984 -0.10494712 -0.09361477
v 0.14440453 -0.10494712 -0.0936148
v 0.19253903 -0.20989488 -0.09361481
v -0.19253905 -0.20989488 -0.09361472
v -0.14440448 -0.20989488 -0.09361469
v -0.09626926 -0.20989488 -0.09361472
v -0.04813495 -0.20989488 -0.09361475
v 0.00000001 -0.20989488 -0.09361473
v 0.048135 -0.20989488 -0.09361476
v 0.09626984 -0.20989488 -0.09361477
v 0.14440453 -0.20989488 -0.0936148
v 0.19253903 -0.31484198 -0.09361481
v -0.19253905 -0.31484198 -0.09361472
v -0.14440448 -0.31484198 -0.09361469
v -0.09626926 -0.31484198 -0.09361472
v -0.04813495 -0.31484198 -0.09361475
v 0.00000001 -0.31484198 -0.09361473
v 0.048135 -0.31484198 -0.09361476
v 0.09626984 -0.31484198 -0.09361477
v 0.14440453 -0.31484198 -0.0936148
v 0.19253903 -0.41978976 -0.09361481
v -0.19253905 -0.41978976 -0.09361472
v -0.14440448 -0.41978976 -0.09361469
v -0.09626926 -0.41978976 -0.09361472
v -0.04813495 -0.41978976 -0.09361475
v 0.00000001 -0.41978976 -0.09361473
v 0.048135 -0.41978976 -0.09361476
v 0.09626984 -0.41978976 -0.09361477
v 0.14440453 -0.41978976 -0.0936148
v -0.14440451 0.41978976 -0.15931087
v -0.14440451 0.31484198 -0.15931087
v -0.19253905 0.31484198 -0.1593109
v -0.19253905 0.41978976 -0.1593109
v -0.09626929 0.41978976 -0.1593109
v -0.09626929 0.31484198 -0.1593109
v -0.04813497 0.41978976 -0.15931093
v -0.04813497 0.31484198 -0.15931093
v -0 0.41978976 -0.15931093
v -0 0.31484198 -0.15931093
v 0.04813497 0.41978976 -0.15931093
v 0.04813497 0.31484198 -0.15931093
v 0.09626981 0.41978976 -0.15931096
v 0.09626981 0.31484198 -0.15931096
v 0.1444045 0.41978976 -0.15931096
v 0.1444045 0.31484198 -0.15931096
v 0.19253905 0.41978976 -0.15931102
v 0.19253905 0.31484198 -0.15931102
v -0.14440451 0.20989488 -0.15931087
v -0.19253905 0.20989488 -0.1593109
v -0.09626929 0.20989488 -0.1593109
v -0.04813497 0.20989488 -0.15931093
v -0 0.20989488 -0.15931093
v 0.04813497 0.20989488 -0.15931093
v 0.09626981 0.20989488 -0.15931096
v 0.1444045 0.20989488 -0.15931096
v 0.19253905 0.20989488 -0.15931102
v -0.14440451 0.10494712 -0.15931087
v -0.19253905 0.10494712 -0.1593109
v -0.09626929 0.10494712 -0.1593109
v -0.04813497 0.10494712 -0.15931093
v -0 0.10494712 -0.15931093
v 0.04813497 0.10494712 -0.15931093
v 0.09626981 0.10494712 -0.15931096
v 0.1444045 0.10494712 -0.15931096
v 0.19253905 0.10494712 -0.15931102
v -0.14440451 -0 -0.15931087
v -0.19253905 -0 -0.1593109
v -0.09626929 -0 -0.1593109
v -0.04813497 -0 -0.15931093
v -0 -0 -0.15931093
v 0.04813497 -0 -0.15931093
v 0.09626981 -0 -0.15931096
v 0.1444045 -0 -0.15931096
v 0.19253905 -0 -0.15931102
v -0.14440451 -0.10494712 -0.15931087
v -0.19253905 -0.10494712 -0.1593109
v -0.09626929 -0.10494712 -0.1593109
v -0.04813497 -0.10494712 -0.15931093
v -0 -0.10494712 -0.15931093
v 0.04813497 -0.10494712 -0.15931093
v 0.09626981 -0.10494712 -0.15931096
v 0.1444045 -0.10494712 -0.15931096
v 0.19253905 -0.10494712 -0.15931102
v -0.14440451 -0.20989488 -0.15931087
v -0.19253905 -0.20989488 -0.1593109
v -0.09626929 -0.20989488 -0.1593109
v -0.04813497 -0.20989488 -0.15931093
v -0 -0.20989488 -0.15931093
v 0.04813497 -0.20989488 -0.15931093
v 0.09626981 -0.20989488 -0.15931096
v 0.1444045 -0.20989488 -0.15931096
v 0.19253905 -0.20989488 -0.15931102
v -0.14440451 -0.31484198 -0.15931087
v -0.19253905 -0.31484198 -0.1593109
v -0.09626929 -0.31484198 -0.1593109
v -0.04813497 -0.31484198 -0.15931093
v -0 -0.31484198 -0.15931093
v 0.04813497 -0.31484198 -0.15931093
v 0.09626981 -0.31484198 -0.15931096
v 0.1444045 -0.31484198 -0.15931096
v 0.19253905 -0.31484198 -0.15931102
v -0.14440451 -0.41978976 -0.15931087
v -0.19253905 -0.41978976 -0.1593109
v -0.09626929 -0.41978976 -0.1593109
v -0.04813497 -0.41978976 -0.15931093
v -0 -0.41978976 -0.15931093
v 0.04813497 -0.41978976 -0.15931093
v 0.09626981 -0.41978976 -0.15931096
v 0.1444045 -0.41978976 -0.15931096
v 0.19253905 -0.41978976 -0.15931102
v -0.1444045 0.20989488 -0.06846564
v -0.09626925 0.20989488 -0.06846562
v -0.09626925 0.31484198 -0.06846562
v -0.1444045 0.31484198 -0.06846564
v -0.04813495 0.20989488 -0.06846565
v -0.04813495 0.31484198 -0.06846565
v 0.00000001 0.20989488 -0.06846568
v 0.00000001 0.31484198 -0.06846568
v 0.04813499 0.20989488 -0.06846568
v 0.04813499 0.31484198 -0.06846568
v 0.09626984 0.20989488 -0.06846568
v 0.09626984 0.31484198 -0.06846568
v 0.14440456 0.20989488 -0.06846572
v 0.14440456 0.31484198 -0.06846572
v -0.1444045 -0.31484198 -0.06846564
v -0.09626925 -0.31484198 -0.06846562
v -0.09626925 -0.20989488 -0.06846562
v -0.1444045 -0.20989488 -0.06846564
v -0.04813495 -0.31484198 -0.06846565
v -0.04813495 -0.20989488 -0.06846565
v 0.00000001 -0.31484198 -0.06846568
v 0.00000001 -0.20989488 -0.06846568
v 0.04813499 -0.31484198 -0.06846568
v 0.04813499 -0.20989488 -0.06846568
v 0.09626984 -0.31484198 -0.06846568
v 0.09626984 -0.20989488 -0.06846568
v 0.14440456 -0.31484198 -0.06846572
v 0.14440456 -0.20989488 -0.06846572
v -0.09452583 0.04489996 0.10468722
v -0.04825339 0.04489224 0.10464013
v -0.04825341 -0.00102569 0.10779257
v -0.09452393 -0.00102569 0.10783907
v -0.09452392 -0.00102569 0.15926456
v -0.09452582 0.05549955 0.15538024
v -0.04825337 -0.00102569 0.15931099
v -0.04825334 0.05550779 0.1554273
v -0.09453061 0.08893419 0.09537745
v -0.04825341 0.08891722 0.09532702
v -0.09453062 0.10997924 0.14385286
v -0.04825339 0.10999622 0.14390271
v -0.09453892 0.12927605 0.08035018
v -0.0482534 0.12924566 0.08029657
v -0.09453889 0.16042748 0.12504082
v -0.04825339 0.16045785 0.12509375
v -0.0945516 0.16430734 0.06031991
v -0.04825341 0.16425828 0.0602612
v -0.09455157 0.20497542 0.0995338
v -0.04825341 0.20502442 0.09959251
v -0.09456937 0.19269001 0.03622772
v -0.04825341 0.19261476 0.03616829
v -0.09456937 0.24190072 0.06813569
v -0.04825341 0.24197609 0.06819655
v -0.09458972 0.21345986 0.00916787
v -0.04825342 0.21335266 0.00911422
v -0.09458971 0.26965999 0.03188947
v -0.04825341 0.26976648 0.03194166
v -0.09460741 0.22606119 -0.01975228
v -0.04825343 0.22592525 -0.01978573
v -0.09460741 0.28694149 -0.00788404
v -0.04825342 0.28707763 -0.00785098
v -0.0946144 0.23027612 -0.04953626
v -0.04825343 0.2301276 -0.04953626
v -0.0946144 0.29281753 -0.04953626
v -0.04825343 0.29296609 -0.04953626
v -0.0950932 0.22331568 -0.10004744
v -0.04825345 0.22295449 -0.10031735
v -0.09392664 0.28546845 -0.10490468
v -0.04825343 0.28518986 -0.10459083
v -0.0946144 -0.23232697 -0.04953626
v -0.04825343 -0.23217856 -0.04953626
v -0.04825345 -0.22500523 -0.10031735
v -0.0950932 -0.22536659 -0.10004744
v -0.09392664 -0.28751951 -0.10490468
v -0.0946144 -0.29486846 -0.04953626
v -0.04825351 -0.28724053 -0.10459083
v -0.04825349 -0.29501682 -0.04953628
v -0.09460741 -0.22811196 -0.01975228
v -0.04825343 -0.22797596 -0.01978573
v -0.09460741 -0.28899249 -0.00788404
v -0.04825348 -0.28912854 -0.00785098
v -0.09458972 -0.21551072 0.00916787
v -0.04825342 -0.21540358 0.00911422
v -0.09458971 -0.27171027 0.03188947
v -0.04825341 -0.2718175 0.03194166
v -0.09456937 -0.19474089 0.03622772
v -0.04825341 -0.19466558 0.03616829
v -0.09456937 -0.24395175 0.06813569
v -0.04825345 -0.24402627 0.06819654
v -0.0945516 -0.16635821 0.06031991
v -0.04825341 -0.16630923 0.0602612
v -0.09455159 -0.2070259 0.0995344
v -0.04825346 -0.20707476 0.09959299
v -0.09453892 -0.13132685 0.08035018
v -0.0482534 -0.13129654 0.08029657
v -0.09453889 -0.16247834 0.12504082
v -0.04825344 -0.16250869 0.12509375
v -0.09453061 -0.09098502 0.09537745
v -0.04825341 -0.09096743 0.09532702
v -0.09453062 -0.11202953 0.14385286
v -0.04825347 -0.112047 0.14390274
v -0.09452583 -0.04695083 0.10468722
v -0.04825339 -0.0469431 0.10464013
v -0.09452582 -0.05755044 0.15538024
v -0.04825334 -0.05755865 0.1554273
v -0.01828525 0.04489224 0.10464011
v -0.01828526 -0.00102569 0.10779256
v -0.01828525 -0.00102569 0.15931102
v -0.01828517 0.05550779 0.15542733
v -0.01828526 0.08891722 0.09532702
v -0.01828573 0.10999622 0.14390268
v -0.01828573 0.12924569 0.08029656
v -0.01828573 0.16045785 0.12509372
v -0.01828574 0.16425828 0.06026119
v -0.01828573 0.20502442 0.09959249
v -0.01828575 0.19261476 0.03616828
v -0.01828574 0.24197609 0.06819652
v -0.01828576 0.21335266 0.00911421
v -0.01828575 0.26976648 0.03194165
v -0.01828577 0.22592525 -0.01978574
v -0.01828576 0.28707763 -0.00785099
v -0.01828577 0.2301276 -0.04953628
v -0.01828577 0.29296609 -0.04953628
v -0.01828578 0.22295449 -0.10031736
v -0.01828579 0.28518986 -0.10459084
v -0.01828529 -0.23217856 -0.04953628
v -0.01828531 -0.22500523 -0.10031739
v -0.01828531 -0.28724053 -0.10459084
v -0.01828529 -0.29501682 -0.04953628
v -0.01828528 -0.22797596 -0.01978574
v -0.01828528 -0.28912854 -0.00785099
v -0.01828528 -0.21540358 0.00911421
v -0.01828528 -0.2718175 0.03194166
v -0.01828527 -0.19466558 0.03616828
v -0.01828526 -0.24402627 0.06819653
v -0.01828526 -0.1663087 0.0602612
v -0.01828525 -0.20707476 0.09959298
v -0.01828527 -0.13129651 0.08029657
v -0.01828525 -0.16250869 0.12509375
v -0.01828526 -0.09096743 0.09532702
v -0.01828523 -0.112047 0.14390271
v -0.01828525 -0.0469431 0.10464011
v -0.01828526 -0.05755865 0.15542733
v 0.01168288 0.04489224 0.1046401
v 0.01168287 -0.00102569 0.10779253
v 0.01168287 -0.00102569 0.15931096
v 0.01168289 0.05550779 0.15542733
v 0.01168287 0.08891722 0.09532702
v 0.01168288 0.10999622 0.14390271
v 0.01168287 0.12924569 0.08029656
v 0.01168289 0.16045785 0.12509372
v 0.01168287 0.16425828 0.06026119
v 0.01168287 0.20502442 0.09959248
v 0.01168286 0.19261476 0.03616828
v 0.01168286 0.24197609 0.06819652
v 0.01168285 0.21335266 0.0091142
v 0.01168285 0.26976648 0.03194164
v 0.01168284 0.22592525 -0.01978575
v 0.01168284 0.28707763 -0.00785099
v 0.01168283 0.2301276 -0.04953629
v 0.01168283 0.29296609 -0.04953629
v 0.01168282 0.22295449 -0.10031738
v 0.01168282 0.28518986 -0.10459086
v 0.01168283 -0.23217856 -0.04953629
v 0.01168282 -0.22500523 -0.10031738
v 0.01168282 -0.28724053 -0.10459086
v 0.01168283 -0.29501682 -0.04953629
v 0.01168284 -0.22797596 -0.01978575
v 0.01168284 -0.28912892 -0.00785099
v 0.01168327 -0.21540358 0.0091142
v 0.01168327 -0.2718175 0.03194164
v 0.01168286 -0.19466558 0.03616828
v 0.01168286 -0.24402627 0.06819652
v 0.01168287 -0.16630923 0.06026119
v 0.01168287 -0.20707476 0.09959296
v 0.01168287 -0.13129651 0.08029656
v 0.01168289 -0.16250869 0.12509372
v 0.01168287 -0.09096743 0.09532702
v 0.01168288 -0.112047 0.14390271
v 0.01168288 -0.0469431 0.1046401
v 0.01168289 -0.05755865 0.15542733
v 0.04165156 0.04489224 0.10464012
v 0.04165155 -0.00102569 0.10779255
v 0.04165156 -0.00102569 0.15931096
v 0.04165159 0.05550779 0.1554273
v 0.04165155 0.08891722 0.095327
v 0.04165155 0.10999622 0.14390268
v 0.04165155 0.12924569 0.08029656
v 0.04165155 0.16045785 0.12509372
v 0.04165154 0.16425828 0.06026117
v 0.04165155 0.20502442 0.09959247
v 0.04165153 0.19261476 0.03616827
v 0.04165153 0.24197609 0.06819652
v 0.04165153 0.21335266 0.0091142
v 0.04165153 0.26976648 0.03194164
v 0.04165151 0.22592525 -0.01978575
v 0.04165152 0.28707763 -0.007851
v 0.04165151 0.2301276 -0.04953629
v 0.04165151 0.29296609 -0.04953629
v 0.0416515 0.22295449 -0.10031738
v 0.04165151 0.28518986 -0.10459086
v 0.04165151 -0.23217809 -0.04953629
v 0.0416515 -0.22500523 -0.10031738
v 0.04165151 -0.28724053 -0.10459086
v 0.04165151 -0.29501643 -0.04953629
v 0.04165151 -0.2279755 -0.01978575
v 0.04165152 -0.28912892 -0.007851
v 0.04165153 -0.21540358 0.0091142
v 0.04165153 -0.2718175 0.03194164
v 0.04165153 -0.19466558 0.03616827
v 0.04165153 -0.24402627 0.06819652
v 0.04165154 -0.16630923 0.06026117
v 0.04165155 -0.20707476 0.09959296
v 0.04165155 -0.13129651 0.08029656
v 0.04165155 -0.16250869 0.12509372
v 0.04165155 -0.09096743 0.095327
v 0.04165155 -0.112047 0.14390268
v 0.04165156 -0.0469431 0.10464012
v 0.04165159 -0.05755865 0.1554273
v 0.08793027 0.04489996 0.1046872
v 0.08792828 -0.00102569 0.10783901
v 0.08793028 0.05549955 0.15538021
v 0.08792831 -0.00102569 0.1592645
v 0.08793497 0.08893419 0.09537742
v 0.08793498 0.10997924 0.14385283
v 0.08794312 0.12927605 0.08035012
v 0.08794313 0.16042748 0.12504079
v 0.08795587 0.16430734 0.06031987
v 0.08795589 0.20497542 0.09953375
v 0.08797363 0.19269001 0.03622767
v 0.08797364 0.24190072 0.06813565
v 0.08799365 0.21345986 0.00916783
v 0.08799366 0.26966002 0.03188941
v 0.08801147 0.22606119 -0.01975233
v 0.08801147 0.28694149 -0.0078841
v 0.08801843 0.23027612 -0.04953631
v 0.08801843 0.29281753 -0.04953631
v 0.0884974 0.22331568 -0.10004752
v 0.08733064 0.28546845 -0.10490473
v 0.08801843 -0.23232697 -0.04953631
v 0.0884974 -0.22536712 -0.10004752
v 0.08801843 -0.29486793 -0.04953631
v 0.08733064 -0.28751951 -0.10490473
v 0.08801147 -0.22811196 -0.01975233
v 0.08801147 -0.28899249 -0.0078841
v 0.08799365 -0.21551072 0.00916865
v 0.08799366 -0.27171021 0.03188941
v 0.08797363 -0.1947404 0.03622744
v 0.08797364 -0.24395175 0.06813565
v 0.08795587 -0.16635769 0.06031987
v 0.08795589 -0.2070259 0.09953437
v 0.08794312 -0.13132686 0.08035012
v 0.08794313 -0.16247834 0.12504079
v 0.08793497 -0.09098502 0.09537742
v 0.08793498 -0.11202953 0.14385283
v 0.08793027 -0.04695083 0.1046872
v 0.08793028 -0.05755044 0.15538021
g Group62432
f 85 84 83 82
f 3 2 85 82
f 2 11 84 85
f 2 3 12 11
f 82 83 87 86
f 4 3 82 86
f 3 4 13 12
f 86 87 89 88
f 5 4 86 88
f 4 5 14 13
f 88 89 91 90
f 6 5 88 90
f 5 6 15 14
f 90 91 93 92
f 7 6 90 92
f 6 7 16 15
f 92 93 95 94
f 8 7 92 94
f 7 8 17 16
f 94 95 97 96
f 9 8 94 96
f 8 9 18 17
f 96 97 99 98
f 1 9 96 98
f 10 1 98 99
f 9 1 10 18
f 84 101 100 83
f 11 20 101 84
f 11 12 21 20
f 83 100 102 87
f 87 102 103 89
f 89 103 104 91
f 91 104 105 93
f 93 105 106 95
f 95 106 107 97
f 97 107 108 99
f 19 10 99 108
f 18 10 19 27
f 101 110 109 100
f 20 29 110 101
f 20 21 30 29
f 100 109 111 102
f 21 22 31 30
f 102 111 112 103
f 22 23 32 31
f 103 112 113 104
f 23 24 33 32
f 104 113 114 105
f 24 25 34 33
f 105 114 115 106
f 25 26 35 34
f 106 115 116 107
f 26 27 36 35
f 107 116 117 108
f 28 19 108 117
f 27 19 28 36
f 110 119 118 109
f 29 38 119 110
f 29 30 39 38
f 109 118 120 111
f 30 31 40 39
f 111 120 121 112
f 31 32 41 40
f 112 121 122 113
f 32 33 42 41
f 113 122 123 114
f 33 34 43 42
f 114 123 124 115
f 34 35 44 43
f 115 124 125 116
f 35 36 45 44
f 116 125 126 117
f 37 28 117 126
f 36 28 37 45
f 119 128 127 118
f 38 47 128 119
f 38 39 48 47
f 118 127 129 120
f 39 40 49 48
f 120 129 130 121
f 40 41 50 49
f 121 130 131 122
f 41 42 51 50
f 122 131 132 123
f 42 43 52 51
f 123 132 133 124
f 43 44 53 52
f 124 133 134 125
f 44 45 54 53
f 125 134 135 126
f 46 37 126 135
f 45 37 46 54
f 128 137 136 127
f 47 56 137 128
f 47 48 57 56
f 127 136 138 129
f 48 49 58 57
f 129 138 139 130
f 49 50 59 58
f 130 139 140 131
f 50 51 60 59
f 131 140 141 132
f 51 52 61 60
f 132 141 142 133
f 52 53 62 61
f 133 142 143 134
f 53 54 63 62
f 134 143 144 135
f 55 46 135 144
f 54 46 55 63
f 137 146 145 136
f 56 65 146 137
f 56 57 66 65
f 136 145 147 138
f 138 147 148 139
f 139 148 149 140
f 140 149 150 141
f 141 150 151 142
f 142 151 152 143
f 143 152 153 144
f 64 55 144 153
f 63 55 64 72
f 146 155 154 145
f 74 75 154 155
f 65 74 155 146
f 65 66 75 74
f 145 154 156 147
f 75 76 156 154
f 66 67 76 75
f 147 156 157 148
f 76 77 157 156
f 67 68 77 76
f 148 157 158 149
f 77 78 158 157
f 68 69 78 77
f 149 158 159 150
f 78 79 159 158
f 69 70 79 78
f 150 159 160 151
f 79 80 160 159
f 70 71 80 79
f 151 160 161 152
f 80 81 161 160
f 71 72 81 80
f 152 161 162 153
f 73 64 153 162
f 81 73 162 161
f 72 64 73 81
f 166 165 164 163
f 21 12 166 163
f 22 21 163 164
f 12 13 165 166
f 165 168 167 164
f 23 22 164 167
f 13 14 168 165
f 168 170 169 167
f 24 23 167 169
f 14 15 170 168
f 170 172 171 169
f 25 24 169 171
f 15 16 172 170
f 172 174 173 171
f 26 25 171 173
f 16 17 174 172
f 174 176 175 173
f 27 26 173 175
f 18 27 175 176
f 17 18 176 174
f 180 179 178 177
f 66 57 180 177
f 67 66 177 178
f 57 58 179 180
f 179 182 181 178
f 68 67 178 181
f 58 59 182 179
f 182 184 183 181
f 69 68 181 183
f 59 60 184 182
f 184 186 185 183
f 70 69 183 185
f 60 61 186 184
f 186 188 187 185
f 71 70 185 187
f 61 62 188 186
f 188 190 189 187
f 72 71 187 189
f 63 72 189 190
f 62 63 190 188
g Group10618
f 194 193 192 191
f 196 195 194 191
f 195 196 198 197
f 191 192 200 199
f 201 196 191 199
f 196 201 202 198
f 199 200 204 203
f 205 201 199 203
f 201 205 206 202
f 203 204 208 207
f 209 205 203 207
f 205 209 210 206
f 207 208 212 211
f 213 209 207 211
f 209 213 214 210
f 211 212 216 215
f 217 213 211 215
f 213 217 218 214
f 215 216 220 219
f 221 217 215 219
f 217 221 222 218
f 219 220 224 223
f 225 221 219 223
f 221 225 226 222
f 223 224 228 227
f 229 225 223 227
f 230 229 227 228
f 225 229 230 226
f 234 233 232 231
f 236 235 234 231
f 235 237 233 234
f 235 236 238 237
f 231 232 240 239
f 241 236 231 239
f 236 241 242 238
f 239 240 244 243
f 245 241 239 243
f 241 245 246 242
f 243 244 248 247
f 249 245 243 247
f 245 249 250 246
f 247 248 252 251
f 253 249 247 251
f 249 253 254 250
f 251 252 256 255
f 257 253 251 255
f 253 257 258 254
f 255 256 260 259
f 261 257 255 259
f 257 261 262 258
f 259 260 264 263
f 265 261 259 263
f 261 265 266 262
f 263 264 193 194
f 195 265 263 194
f 265 195 197 266
f 193 268 267 192
f 197 198 270 269
f 192 267 271 200
f 198 202 272 270
f 200 271 273 204
f 202 206 274 272
f 204 273 275 208
f 206 210 276 274
f 208 275 277 212
f 210 214 278 276
f 212 277 279 216
f 214 218 280 278
f 216 279 281 220
f 218 222 282 280
f 220 281 283 224
f 222 226 284 282
f 224 283 285 228
f 286 230 228 285
f 226 230 286 284
f 233 288 287 232
f 237 289 288 233
f 237 238 290 289
f 232 287 291 240
f 238 242 292 290
f 240 291 293 244
f 242 246 294 292
f 244 293 295 248
f 246 250 296 294
f 248 295 297 252
f 250 254 298 296
f 252 297 299 256
f 254 258 300 298
f 256 299 301 260
f 258 262 302 300
f 260 301 303 264
f 262 266 304 302
f 264 303 268 193
f 266 197 269 304
f 268 306 305 267
f 269 270 308 307
f 267 305 309 271
f 270 272 310 308
f 271 309 311 273
f 272 274 312 310
f 273 311 313 275
f 274 276 314 312
f 275 313 315 277
f 276 278 316 314
f 277 315 317 279
f 278 280 318 316
f 279 317 319 281
f 280 282 320 318
f 281 319 321 283
f 282 284 322 320
f 283 321 323 285
f 324 286 285 323
f 284 286 324 322
f 288 326 325 287
f 289 327 326 288
f 289 290 328 327
f 287 325 329 291
f 290 292 330 328
f 291 329 331 293
f 292 294 332 330
f 293 331 333 295
f 294 296 334 332
f 295 333 335 297
f 296 298 336 334
f 297 335 337 299
f 298 300 338 336
f 299 337 339 301
f 300 302 340 338
f 301 339 341 303
f 302 304 342 340
f 303 341 306 268
f 304 269 307 342
f 306 344 343 305
f 307 308 346 345
f 305 343 347 309
f 308 310 348 346
f 309 347 349 311
f 310 312 350 348
f 311 349 351 313
f 312 314 352 350
f 313 351 353 315
f 314 316 354 352
f 315 353 355 317
f 316 318 356 354
f 317 355 357 319
f 318 320 358 356
f 319 357 359 321
f 320 322 360 358
f 321 359 361 323
f 362 324 323 361
f 322 324 362 360
f 326 364 363 325
f 327 365 364 326
f 327 328 366 365
f 325 363 367 329
f 328 330 368 366
f 329 367 369 331
f 330 332 370 368
f 331 369 371 333
f 332 334 372 370
f 333 371 373 335
f 334 336 374 372
f 335 373 375 337
f 336 338 376 374
f 337 375 377 339
f 338 340 378 376
f 339 377 379 341
f 340 342 380 378
f 341 379 344 306
f 342 307 345 380
f 344 382 381 343
f 384 383 381 382
f 345 346 383 384
f 343 381 385 347
f 383 386 385 381
f 346 348 386 383
f 347 385 387 349
f 386 388 387 385
f 348 350 388 386
f 349 387 389 351
f 388 390 389 387
f 350 352 390 388
f 351 389 391 353
f 390 392 391 389
f 352 354 392 390
f 353 391 393 355
f 392 394 393 391
f 354 356 394 392
f 355 393 395 357
f 394 396 395 393
f 356 358 396 394
f 357 395 397 359
f 396 398 397 395
f 358 360 398 396
f 359 397 399 361
f 400 362 361 399
f 398 400 399 397
f 360 362 400 398
f 364 402 401 363
f 404 403 401 402
f 365 404 402 364
f 365 366 403 404
f 363 401 405 367
f 403 406 405 401
f 366 368 406 403
f 367 405 407 369
f 406 408 407 405
f 368 370 408 406
f 369 407 409 371
f 408 410 409 407
f 370 372 410 408
f 371 409 411 373
f 410 412 411 409
f 372 374 412 410
f 373 411 413 375
f 412 414 413 411
f 374 376 414 412
f 375 413 415 377
f 414 416 415 413
f 376 378 416 414
f 377 415 417 379
f 416 418 417 415
f 378 380 418 416
f 379 417 382 344
f 418 384 382 417
f 380 345 384 418

 