# File exported by ZBrush version 2021
# www.zbrush.com
#Vertex Count 1426
#Face Count 1426
#Auto scale x=1.000000 y=1.000000 z=1.000000
#Auto offset x=0.000000 y=0.000000 z=0.000000
v 0.06162057 0.56928491 -0.1512719
v -0.05992622 0.56936764 -0.15117722
v 0.06161718 0.41746217 -0.15128025
v -0.05998398 0.41746217 -0.15128022
v 0.06161718 0.2656424 -0.15128025
v -0.05998398 0.2656424 -0.15128022
v 0.06161718 0.11382262 -0.15128025
v -0.05998398 0.11382262 -0.15128022
v 0.05922154 -0.03775613 -0.14897555
v -0.06218923 -0.03776168 -0.1488139
v 0.05917691 -0.19014185 -0.14959189
v -0.06293717 -0.18959045 -0.1490471
v 0.05828392 -0.41169083 -0.15774831
v -0.06677019 -0.40646868 -0.15673914
v 0.05766013 -0.71638023 -0.16673487
v -0.06409694 -0.71308445 -0.16852003
v -0.05998361 0.56928229 -0.16583755
v 0.05814629 -0.40925037 -0.17050021
v 0.05669607 -0.7150954 -0.17848429
v 0.05904968 -0.18993997 -0.16354948
v 0.05928616 -0.03776096 -0.16355198
v 0.06161718 0.11382262 -0.16583821
v 0.06161718 0.56928181 -0.16583821
v -0.05998399 0.41746217 -0.16583818
v -0.06294167 -0.18955826 -0.16313508
v -0.06213957 -0.03776576 -0.16339698
v 0.06161718 0.41746217 -0.16583821
v -0.05998399 0.2656424 -0.16583818
v -0.06654024 -0.40459448 -0.16953557
v 0.06161718 0.2656424 -0.16583821
v -0.05998399 0.11382262 -0.16583818
v -0.06377573 -0.71149349 -0.18017068
v 0.06154878 0.60526228 0.04032051
v -0.05755635 0.60909259 0.03620997
v 0.05880802 0.44565439 0.12341868
v -0.05907785 0.4432708 0.10837963
v 0.05616954 0.29348021 0.18246755
v -0.06111847 0.28875133 0.16336229
v 0.06052715 0.1307809 0.15848645
v -0.05571353 0.12373637 0.13762787
v 0.05509905 -0.02921987 0.05403363
v -0.05978974 -0.03623009 0.03652373
v 0.05661182 -0.16058346 -0.03497874
v -0.05803583 -0.16523793 -0.04590567
v 0.06065296 -0.33210307 -0.13087472
v -0.06383742 -0.32481515 -0.13243654
v 0.06426496 -0.62010562 -0.13755732
v -0.07201863 -0.61741089 -0.13239747
v -0.05729731 0.60913097 0.02143899
v 0.06083552 -0.33150059 -0.14499348
v 0.06436392 -0.61746966 -0.15091237
v 0.05701369 -0.16062215 -0.05031774
v 0.0554727 -0.02945161 0.03823828
v 0.06076556 0.13047149 0.14257478
v 0.06190303 0.60508608 0.0258137
v -0.05899643 0.4433515 0.09311845
v -0.05771159 -0.16527542 -0.06120937
v -0.05955549 -0.03647328 0.02081087
v 0.05867486 0.44596594 0.10809992
v -0.0611252 0.2885327 0.14771473
v -0.0637719 -0.32408905 -0.1457898
v 0.05628325 0.29327422 0.16680368
v -0.05566078 0.12341337 0.12176039
v -0.07204645 -0.61570811 -0.14770498
v -0.06752765 0.70629072 -0.14400595
v 0.06507475 0.70198047 -0.14265555
v -0.06176236 0.72299468 -0.15599924
v 0.06583273 0.71894717 -0.1538338
v -0.06477965 0.70236992 -0.1222637
v -0.06037604 0.71929478 -0.12616661
v 0.06109442 0.71684098 -0.12361045
v 0.05947249 0.69940829 -0.12171908
v -0.06245046 0.6992321 -0.10420507
v -0.059229 0.71624755 -0.10154932
v 0.0571873 0.71510517 -0.09867162
v 0.0548867 0.69731926 -0.10435877
v -0.060858 0.69748604 -0.0923163
v -0.05844378 0.71442532 -0.08562962
v 0.0547387 0.71404159 -0.08257468
v 0.0520469 0.69606685 -0.09301468
v -0.05795459 0.70377636 -0.06280023
v -0.05933301 0.68841207 -0.07334678
v 0.05333482 0.70318806 -0.05945619
v 0.05053927 0.68655931 -0.07415517
v 0.05529407 0.68496012 -0.04265043
v 0.05293615 0.67121601 -0.05720374
v -0.05798326 0.68710517 -0.04599673
v -0.05895858 0.67441332 -0.05716414
v 0.06668162 0.67806494 -0.15271207
v 0.06694904 0.6916536 -0.16826722
v -0.0672163 0.68210816 -0.15413302
v -0.06198645 0.69558203 -0.16986805
v 0.06572923 0.65760827 -0.15244278
v 0.06594634 0.66864156 -0.16781038
v -0.06585623 0.66089117 -0.15359655
v -0.06160988 0.67183125 -0.16911023
v 0.0008878 0.11382262 -0.15128025
v -0.00141274 -0.0377589 -0.14889484
v -0.00135557 -0.03776335 -0.16347464
v 0.00088781 0.11382262 -0.16583818
v -0.00459926 -0.41392362 -0.15698823
v -0.00125426 -0.72299468 -0.17143112
v -0.00180565 -0.72112953 -0.18246755
v -0.00444629 -0.41064202 -0.16997304
v 0.00088781 0.41746217 -0.16583818
v 0.00088809 0.56928205 -0.16583758
v 0.00095164 0.56934142 -0.15112569
v 0.0008878 0.41746217 -0.15128025
v -0.00189099 -0.18969923 -0.16301947
v -0.0018116 -0.18983006 -0.14901453
v 0.00088781 0.2656424 -0.16583818
v 0.0008878 0.2656424 -0.15128025
v 0.00224294 0.67023456 -0.16845962
v 0.00001376 0.65924799 -0.15301853
v -0.00075423 -0.32991474 -0.1387313
v -0.00349179 -0.65808653 -0.13791626
v -0.00310472 -0.65595495 -0.15273863
v -0.00082705 -0.32899427 -0.1517077
v -0.00240578 0.29111853 0.17292603
v 0.00247487 0.12726277 0.14806935
v 0.00262057 0.12694656 0.13217973
v -0.00235219 0.29090625 0.15727043
v -0.00004511 0.44435715 0.11583771
v -0.00006169 0.44448441 0.10052254
v -0.00227803 -0.03272088 0.04528894
v -0.00064369 -0.16290465 -0.04039666
v -0.00028053 -0.16293701 -0.05566568
v -0.00197404 -0.03295835 0.02953483
v 0.00454862 0.61167669 0.02858592
v 0.00420869 0.61125099 0.04301191
v 0.00255679 0.69361555 -0.16906663
v -0.0011488 0.70413315 -0.14332991
v -0.00018895 0.68008422 -0.1534217
v -0.00168416 0.71430254 -0.08383258
v -0.00192162 0.70361781 -0.06027837
v -0.00257527 0.70089232 -0.12197762
v 0.0021099 0.72096848 -0.15491524
v 0.00043028 0.71806645 -0.12488705
v -0.00362547 0.69833779 -0.10405511
v -0.000927 0.71569824 -0.1000449
v -0.00416604 0.69689023 -0.09219843
v -0.00389328 0.68774652 -0.07265551
v -0.00185516 0.67344117 -0.05519886
v -0.00026494 0.68643188 -0.04260406
v -0.0013372 -0.39745014 -0.13952097
v -0.06552864 -0.38497179 -0.13297918
v 0.06137957 -0.39133876 -0.13291212
v 0.06154741 -0.39029818 -0.14676457
v -0.06547822 -0.38400977 -0.14654737
v -0.00131254 -0.39625459 -0.1527366
v 0.06154556 -0.40487021 -0.13337749
v 0.06171006 -0.40372949 -0.1471692
v -0.00147036 -0.41287738 -0.13970142
v -0.06591498 -0.39871352 -0.13310319
v -0.06586799 -0.39769762 -0.14672035
v -0.00142347 -0.41161894 -0.15297156
v 0.06176313 -0.42260542 -0.13398748
v 0.06192318 -0.42133358 -0.14769941
v -0.00164489 -0.43309757 -0.13993781
v -0.06642133 -0.41672456 -0.13326564
v -0.06637884 -0.41563797 -0.1469472
v -0.00156885 -0.4317567 -0.15327957
v 0.06200408 -0.43962693 -0.13326308
v 0.06214017 -0.43839669 -0.14778846
v -0.00174624 -0.45219802 -0.13705402
v -0.06689471 -0.43409439 -0.13252618
v -0.06687159 -0.43306848 -0.14695102
v -0.00169606 -0.45124507 -0.15292865
v 0.06224146 -0.45719182 -0.13297528
v 0.06236277 -0.45591962 -0.14789137
v -0.00325854 -0.47523427 -0.13715174
v -0.06738127 -0.45193493 -0.13179093
v -0.06737768 -0.45096778 -0.14696091
v -0.00300085 -0.47261911 -0.15281921
v 0.06245537 -0.47186994 -0.13210067
v 0.06255331 -0.47065663 -0.1478407
v -0.00364467 -0.52386868 -0.13691839
v -0.06778807 -0.46693861 -0.13103002
v -0.06780326 -0.46604144 -0.14693504
v -0.00331123 -0.51930892 -0.15290725
v -0.01396317 0.11382262 -0.15128022
v -0.01624043 -0.03775956 -0.14887517
v -0.01618519 -0.03776394 -0.16345563
v -0.01396318 0.11382262 -0.16583818
v -0.0197672 -0.41210484 -0.15692752
v -0.0165861 -0.72057688 -0.17072087
v -0.01692458 -0.71877861 -0.18190711
v -0.01959539 -0.40916645 -0.16986638
v -0.01396318 0.41746217 -0.16583818
v -0.01396287 0.56928205 -0.16583758
v -0.01390082 0.56934773 -0.15113836
v -0.01396317 0.41746217 -0.15128022
v -0.01678564 -0.18966484 -0.16304773
v -0.01672453 -0.18977159 -0.14902243
v -0.01396318 0.2656424 -0.16583818
v -0.01396317 0.2656424 -0.15128022
v -0.01333534 0.67062401 -0.16861826
v -0.01605666 0.65964889 -0.15315958
v -0.01614476 -0.32867062 -0.13719552
v -0.01699813 -0.39440578 -0.13792493
v -0.02024415 -0.64845359 -0.13809946
v -0.01994674 -0.64632654 -0.15251427
v -0.01696714 -0.39326721 -0.15122658
v -0.01618382 -0.32779753 -0.15026396
v -0.01672998 0.29054102 0.17059278
v -0.01172142 0.12640243 0.14552199
v -0.01159847 0.12608456 0.12963771
v -0.01669113 0.29032716 0.15493905
v -0.0144474 0.44409215 0.11401809
v -0.01444007 0.44420802 0.09871615
v -0.01630928 -0.03357704 0.04315044
v -0.01464574 -0.16347393 -0.04174062
v -0.01429212 -0.16350755 -0.05701823
v -0.01602229 -0.03381591 0.02740647
v -0.01054004 0.61105561 0.02684225
v -0.01086023 0.61072433 0.04135241
v -0.01318992 0.69409525 -0.16926211
v -0.01734335 0.70465958 -0.1434949
v -0.01654167 0.68057799 -0.15359526
v -0.0155319 0.71433258 -0.08427102
v -0.01559203 0.70365643 -0.0608936
v -0.01775141 0.70125281 -0.12204749
v -0.01347312 0.72146284 -0.15517967
v -0.01440473 0.71836614 -0.12519925
v -0.01797711 0.69855594 -0.10409171
v -0.01515102 0.71583223 -0.10041195
v -0.01799726 0.69703555 -0.09222716
v -0.01741897 0.68790888 -0.07282418
v -0.01578676 0.67367839 -0.05567832
v -0.01434658 0.68659615 -0.04343174
v -0.01719302 -0.40942168 -0.13809159
v -0.01714613 -0.40822249 -0.15144652
v -0.01744855 -0.42910301 -0.13831001
v -0.01738062 -0.42782425 -0.15173468
v -0.01766194 -0.44796532 -0.13691797
v -0.0176014 -0.44684797 -0.15166825
v -0.02488376 -0.46866434 -0.13602232
v -0.02333067 -0.46658104 -0.15132185
v -0.02607253 -0.51532143 -0.13579544
v -0.02532905 -0.51156926 -0.15137389
v 0.01072876 0.11382262 -0.15128022
v 0.00841279 -0.03775846 -0.14890795
v 0.00847109 -0.03776296 -0.16348713
v 0.01072874 0.11382262 -0.16583818
v 0.00559065 -0.41356182 -0.15711131
v 0.00829252 -0.72192287 -0.17067009
v 0.00767428 -0.72015178 -0.181822
v 0.00569657 -0.4104166 -0.17005854
v 0.01072874 0.41746217 -0.16583818
v 0.01072896 0.56928205 -0.16583767
v 0.01078282 0.56933224 -0.15114945
v 0.01072876 0.41746217 -0.15128022
v 0.00798415 -0.18973821 -0.16310542
v 0.00807128 -0.18988055 -0.14910811
v 0.01072874 0.2656424 -0.16583818
v 0.01072876 0.2656424 -0.15128022
v 0.01256579 0.66997635 -0.16835433
v 0.01066267 0.65898227 -0.15292519
v 0.00919651 -0.33026939 -0.13745814
v 0.00882573 -0.39645975 -0.13845008
v 0.00745933 -0.65217733 -0.13914984
v 0.00780963 -0.64987921 -0.15328782
v 0.00887361 -0.39528936 -0.15176886
v 0.00916507 -0.32940048 -0.15061968
v 0.00708608 0.29150125 0.17447221
v 0.011882 0.12783286 0.14975735
v 0.01204272 0.12751776 0.13386416
v 0.00714939 0.29128995 0.15881526
v 0.00949174 0.44456738 0.11706614
v 0.00945634 0.4447245 0.10175038
v 0.00701962 -0.03215355 0.04670597
v 0.00863426 -0.16252848 -0.03951869
v 0.00900372 -0.16256186 -0.05479903
v 0.00733492 -0.03239009 0.03094519
v 0.01384268 0.61060869 0.02813674
v 0.01350046 0.61028051 0.04257573
v 0.01299126 0.69329762 -0.16893705
v 0.0095824 0.70378434 -0.14322072
v 0.01064713 0.67975699 -0.15330666
v 0.0074589 0.71426034 -0.08362872
v 0.00703246 0.70354819 -0.0601451
v 0.00747925 0.70065188 -0.12193579
v 0.01243593 0.72064101 -0.15474006
v 0.01026063 0.71786785 -0.1246801
v 0.00585609 0.69817268 -0.10410435
v 0.00849018 0.71560216 -0.09982235
v 0.00494302 0.69675684 -0.09233063
v 0.00492728 0.68755412 -0.07289857
v 0.00702353 0.67308056 -0.0555237
v 0.00873815 0.68619334 -0.04261156
v 0.00874105 -0.41157984 -0.13867658
v 0.00880701 -0.41034042 -0.15203139
v 0.00863007 -0.43139728 -0.13897362
v 0.00871975 -0.43006777 -0.1523754
v 0.0085648 -0.45032846 -0.13732153
v 0.00864246 -0.4492138 -0.15236336
v 0.01604829 -0.47096115 -0.13679307
v 0.01378131 -0.46872299 -0.15221205
v 0.01612759 -0.51432925 -0.13652756
v 0.01550582 -0.50955951 -0.15228813
v 0.00181159 -0.32448029 -0.11947531
v -0.01149585 -0.32441043 -0.1211043
v -0.00492531 -0.32262074 -0.12076801
v 0.00490141 -0.33784014 -0.12040374
v -0.01472182 -0.33770734 -0.12274593
v -0.01047499 -0.33760148 -0.12293928
v -0.00495338 -0.3374421 -0.12263435
v 0.00063467 -0.33768504 -0.12147838
v 0.00514536 -0.3548327 -0.12044828
v -0.01512277 -0.35472053 -0.12237305
v -0.01040757 -0.35462492 -0.12264114
v -0.00500881 -0.35465425 -0.12218517
v 0.0004071 -0.35469478 -0.12146264
v 0.00510215 -0.37200349 -0.1207108
v -0.01511741 -0.37193542 -0.12177413
v -0.01041193 -0.37184006 -0.12213092
v -0.00502681 -0.37186259 -0.12185531
v 0.00037105 -0.37188333 -0.1214749
v 0.00517022 -0.388879 -0.1223206
v -0.01503003 -0.38883179 -0.12275692
v -0.01032199 -0.38872259 -0.12315529
v -0.00494235 -0.38874441 -0.12303536
v 0.00044739 -0.38875359 -0.12288493
v 0.0052709 -0.40506702 -0.12669879
v -0.01493842 -0.40500646 -0.12688514
v -0.01022298 -0.40487331 -0.12727731
v -0.00483768 -0.40490168 -0.12720805
v 0.00055278 -0.40491288 -0.12715894
v 0.00531137 -0.42054119 -0.13314488
v -0.01491989 -0.4204438 -0.13338702
v -0.01019975 -0.42028322 -0.13378351
v -0.00480468 -0.42031756 -0.133704
v 0.00059449 -0.42034676 -0.13362807
v 0.00524614 -0.4359461 -0.14005559
v -0.0149938 -0.43581497 -0.14037615
v -0.01028455 -0.43562281 -0.14082211
v -0.00488871 -0.4356476 -0.14074593
v 0.00052114 -0.4357078 -0.14061564
v 0.004636 -0.44840806 -0.14468902
v -0.01455051 -0.44826895 -0.14502555
v -0.01038982 -0.44966965 -0.14600938
v -0.00500339 -0.44968754 -0.14594036
v 0.0004117 -0.44976431 -0.14578098
v -0.01047797 -0.33856815 -0.11936086
v -0.01471966 -0.33843499 -0.12001043
v -0.01149387 -0.32517039 -0.11838763
v -0.0049299 -0.32338297 -0.11807055
v -0.00496464 -0.33840674 -0.11910075
v 0.00180136 -0.3252381 -0.11675506
v 0.00061864 -0.33865052 -0.11789602
v 0.00489056 -0.33856672 -0.11766213
v -0.01041854 -0.35551899 -0.11904817
v -0.01512886 -0.35539442 -0.11962098
v -0.00502276 -0.35554415 -0.11864679
v 0.00039624 -0.35558801 -0.11786408
v 0.00514195 -0.35550576 -0.11768979
v -0.01043118 -0.37275201 -0.11846204
v -0.0151341 -0.3726229 -0.11898856
v -0.00503849 -0.37276989 -0.11821562
v 0.00037137 -0.37279158 -0.11780173
v 0.00511002 -0.37268668 -0.11792095
v -0.01035608 -0.38980358 -0.11946816
v -0.01506002 -0.38964539 -0.11997776
v -0.00496029 -0.38982003 -0.11935752
v 0.00045174 -0.38982766 -0.11919349
v 0.00518512 -0.38968473 -0.11953694
v -0.01027126 -0.40621382 -0.12364191
v -0.01497727 -0.40601342 -0.12415535
v -0.00487095 -0.40623813 -0.1235736
v 0.00054831 -0.40624541 -0.12351948
v 0.00528216 -0.40606504 -0.12396474
v -0.01024801 -0.42178824 -0.13021379
v -0.01495065 -0.42157235 -0.13070553
v -0.00485604 -0.42182102 -0.1301375
v 0.00056165 -0.42184487 -0.13005489
v 0.0053002 -0.42166224 -0.13046008
v -0.01031752 -0.43709123 -0.1372357
v -0.0150053 -0.43691563 -0.13768273
v -0.00495011 -0.43711555 -0.13716393
v 0.00045716 -0.43717265 -0.13702851
v 0.0052064 -0.43704259 -0.13736039
v -0.01040644 -0.45071435 -0.1432951
v -0.01455405 -0.44904989 -0.14301663
v -0.00504953 -0.45073211 -0.14322775
v 0.00035452 -0.45080804 -0.14306655
v 0.00459778 -0.44918733 -0.14267948
v -0.01365054 -0.33046907 -0.11919815
v -0.01297595 -0.33909136 -0.11953621
v -0.0108403 -0.33059805 -0.11864
v -0.01274705 -0.33271509 -0.11899417
v -0.01365393 -0.32971996 -0.12192768
v -0.01530224 -0.33789223 -0.12138933
v -0.01171298 -0.32302081 -0.11951476
v -0.01395352 -0.32938629 -0.12048251
v -0.01297647 -0.33812421 -0.12315373
v -0.01084062 -0.32960087 -0.12223916
v -0.01274975 -0.33172327 -0.12261481
v -0.00777864 -0.33839505 -0.11929709
v -0.00494336 -0.32988768 -0.11841386
v -0.00845224 -0.32338738 -0.11821573
v -0.00811082 -0.32988435 -0.11857887
v -0.00845122 -0.32262444 -0.12091929
v -0.00492376 -0.3208729 -0.11916
v -0.00856603 -0.32087945 -0.11930093
v -0.00493503 -0.32889044 -0.12198071
v -0.00777143 -0.33742958 -0.12284404
v -0.00810707 -0.32888603 -0.12215609
v -0.00212262 -0.33843809 -0.11852782
v 0.00107806 -0.33067172 -0.11710542
v -0.00133089 -0.32342028 -0.11734015
v -0.00172243 -0.32992273 -0.11774832
v -0.00132308 -0.32265865 -0.12004561
v 0.00204673 -0.32308757 -0.1178512
v -0.00119726 -0.32091128 -0.11841125
v 0.00109317 -0.32967644 -0.12070853
v -0.00210824 -0.33747321 -0.12207671
v -0.0017101 -0.32892561 -0.12132781
v 0.00313043 -0.33920556 -0.11752326
v 0.00392353 -0.33057528 -0.11704535
v 0.00298461 -0.33281725 -0.11700781
v 0.00393489 -0.32982808 -0.11978013
v 0.00548191 -0.33803027 -0.1189322
v 0.00424143 -0.32949489 -0.11827665
v 0.00314605 -0.33823984 -0.12114734
v 0.00300055 -0.33182758 -0.12063425
v -0.01510037 -0.34680599 -0.12001974
v -0.01311125 -0.35551148 -0.1191278
v -0.01038505 -0.34693568 -0.11938803
v -0.01307916 -0.34692794 -0.11948888
v -0.01509906 -0.34610778 -0.12276141
v -0.01579888 -0.35505563 -0.12101382
v -0.01577384 -0.34645479 -0.12142081
v -0.01037812 -0.34600919 -0.12296409
v -0.013102 -0.35461467 -0.12276534
v -0.01307541 -0.34599882 -0.12311095
v -0.00772308 -0.35552924 -0.11889608
v -0.00499426 -0.34695953 -0.11904257
v -0.00769263 -0.34694439 -0.11927718
v -0.00498097 -0.34603637 -0.12256497
v -0.00771019 -0.35463792 -0.12245112
v -0.00768227 -0.34602016 -0.12281554
v -0.00231508 -0.35556548 -0.11827582
v 0.00043488 -0.34701532 -0.11803288
v -0.00228206 -0.34698623 -0.11857065
v 0.0004494 -0.34608942 -0.12161381
v -0.00230191 -0.35467463 -0.12183386
v -0.00226733 -0.34606224 -0.1221115
v 0.00310778 -0.35560613 -0.11749201
v 0.00518197 -0.3469358 -0.11777668
v 0.00314772 -0.34703773 -0.11760073
v 0.00518997 -0.34623831 -0.12052508
v 0.00582104 -0.35517293 -0.11898715
v 0.0058633 -0.34659153 -0.11906272
v 0.00311511 -0.3547104 -0.12113709
v 0.00316029 -0.34610945 -0.1212302
v -0.01514137 -0.36401253 -0.11920948
v -0.01312107 -0.37274366 -0.11850805
v -0.01043552 -0.36413651 -0.11866779
v -0.01312649 -0.36412888 -0.11872871
v -0.01513027 -0.36334413 -0.12197954
v -0.01579756 -0.37227672 -0.12038987
v -0.01580806 -0.36367636 -0.12060516
v -0.01042086 -0.36325007 -0.12229841
v -0.0130998 -0.37182897 -0.12220304
v -0.01311171 -0.3632397 -0.12239603
v -0.00773704 -0.37276047 -0.11836414
v -0.00504058 -0.36415857 -0.11832125
v -0.00774031 -0.36414605 -0.11853068
v -0.00502794 -0.36327654 -0.12190801
v -0.00772095 -0.37185126 -0.12201234
v -0.00772618 -0.36326259 -0.12213069
v -0.00233517 -0.37278133 -0.11801736
v 0.00037216 -0.36419075 -0.11773725
v -0.00233588 -0.36417466 -0.11804239
v 0.00037736 -0.36330634 -0.12137299
v -0.00232914 -0.37187415 -0.12166802
v -0.00232639 -0.36329215 -0.12164515
v 0.00307968 -0.37279766 -0.11760028
v 0.00511461 -0.3640998 -0.11770231
v 0.00308208 -0.36420303 -0.11744853
v 0.00511242 -0.36343365 -0.12047773
v 0.00578266 -0.37234586 -0.11927098
v 0.00579059 -0.36376899 -0.11902492
v 0.00307324 -0.37188786 -0.12130061
v 0.0030825 -0.36331647 -0.12112218
v -0.01510328 -0.38118833 -0.11916153
v -0.01304783 -0.38979131 -0.11949794
v -0.0104006 -0.38132923 -0.11864645
v -0.01309097 -0.38131934 -0.11868172
v -0.01508004 -0.38045066 -0.1219502
v -0.01571716 -0.38923484 -0.12137418
v -0.01576347 -0.38081663 -0.12056309
v -0.01037443 -0.38035017 -0.12233418
v -0.01300961 -0.38870793 -0.12319559
v -0.01306152 -0.38033765 -0.12238676
v -0.00766039 -0.38981288 -0.11942141
v -0.00500721 -0.38134533 -0.11847943
v -0.00770605 -0.38133758 -0.11857897
v -0.00499368 -0.38037127 -0.1221494
v -0.00763315 -0.38873475 -0.12310129
v -0.0076854 -0.38036137 -0.12225372
v -0.0022553 -0.38982564 -0.11927682
v 0.00040256 -0.38135856 -0.11820644
v -0.0023037 -0.38135308 -0.11834794
v 0.000399 -0.38038474 -0.12189836
v -0.00224844 -0.3887512 -0.12295906
v -0.00229857 -0.38037973 -0.12202496
v 0.00315826 -0.38982397 -0.11912183
v 0.00513804 -0.38123577 -0.11845213
v 0.00310976 -0.38135904 -0.11807769
v 0.00512575 -0.38050442 -0.12124474
v 0.00585315 -0.38928026 -0.12091392
v 0.00580787 -0.38086944 -0.11982029
v 0.00314427 -0.38874989 -0.12282473
v 0.00309824 -0.38038462 -0.12178795
v -0.01501526 -0.39793008 -0.12168604
v -0.01296499 -0.40619593 -0.12367541
v -0.01031 -0.39810997 -0.12117428
v -0.01300306 -0.39809471 -0.12120528
v -0.01497943 -0.39702004 -0.1244437
v -0.01563068 -0.40550488 -0.12552887
v -0.01566977 -0.39747065 -0.12307268
v -0.01026786 -0.39689964 -0.124842
v -0.01291401 -0.40485411 -0.12731319
v -0.01295688 -0.39688247 -0.12487811
v -0.00757366 -0.40622776 -0.12360733
v -0.00491124 -0.39812952 -0.12109465
v -0.00761294 -0.39812141 -0.12113719
v -0.00488644 -0.39692407 -0.12475854
v -0.00753098 -0.40488928 -0.1272417
v -0.00757795 -0.39691358 -0.12480157
v -0.00216201 -0.40624457 -0.12354251
v 0.00050467 -0.39813512 -0.1210043
v -0.00220404 -0.39813476 -0.12104743
v 0.00050252 -0.39693242 -0.12467604
v -0.0021427 -0.40491026 -0.12717884
v -0.00219259 -0.39693099 -0.12471409
v 0.00325539 -0.40623897 -0.12351054
v 0.00523769 -0.39797145 -0.12141638
v 0.00321139 -0.3981288 -0.12097378
v 0.00522261 -0.39707011 -0.12417848
v 0.00595152 -0.40556353 -0.1253317
v 0.0059053 -0.39751845 -0.12279219
v 0.00324764 -0.40490764 -0.12715345
v 0.00319795 -0.39692682 -0.12465186
v -0.01495434 -0.41386568 -0.12725454
v -0.01293863 -0.42177215 -0.13024097
v -0.01024884 -0.41408014 -0.12674802
v -0.01294191 -0.41406142 -0.12678068
v -0.01491744 -0.41278165 -0.12995547
v -0.01560815 -0.4210042 -0.13205248
v -0.01560891 -0.41331863 -0.12861317
v -0.01019837 -0.41263568 -0.13034516
v -0.01289451 -0.42026737 -0.13381403
v -0.01289178 -0.41261613 -0.13038021
v -0.00755484 -0.42180493 -0.13017839
v -0.00485044 -0.41411006 -0.12667745
v -0.00755232 -0.41409671 -0.12671273
v -0.00480784 -0.41266822 -0.13027316
v -0.00750302 -0.42030039 -0.13374549
v -0.00750368 -0.41265308 -0.13030844
v -0.00214861 -0.42183497 -0.13009387
v 0.00056941 -0.41412317 -0.12661975
v -0.00214139 -0.41411948 -0.12664443
v 0.00058633 -0.41268634 -0.13022083
v -0.0021048 -0.42033413 -0.13366287
v -0.00211057 -0.41268014 -0.1302424
v 0.0032692 -0.42184856 -0.13002806
v 0.00530498 -0.41393482 -0.12705689
v 0.0032767 -0.41411948 -0.1266089
v 0.00530308 -0.41285926 -0.12976175
v 0.00598096 -0.42110207 -0.13179773
v 0.00597899 -0.41339528 -0.12840884
v 0.00329119 -0.4203526 -0.13360518
v 0.00328153 -0.41268444 -0.1302132
v -0.01497031 -0.42921853 -0.13422957
v -0.01299722 -0.43709361 -0.13723924
v -0.01027419 -0.42941665 -0.13376051
v -0.01295984 -0.42940962 -0.13377636
v -0.01494903 -0.42809116 -0.1369118
v -0.01567055 -0.43636715 -0.13902801
v -0.01563181 -0.42865383 -0.1355732
v -0.01023281 -0.42791259 -0.13733094
v -0.01297564 -0.43562567 -0.14082866
v -0.01292659 -0.42790603 -0.13735014
v -0.00763714 -0.43709862 -0.13720992
v -0.00489394 -0.42944645 -0.13368493
v -0.00758707 -0.42942941 -0.13372927
v -0.0048362 -0.42794323 -0.13725096
v -0.0075888 -0.4356302 -0.14079326
v -0.00753593 -0.42792534 -0.13729637
v -0.00225018 -0.43714189 -0.1370998
v 0.00051873 -0.42948675 -0.13357466
v -0.00219009 -0.4294666 -0.13363045
v 0.00056837 -0.42798805 -0.137147
v -0.00218438 -0.43567538 -0.14068359
v -0.00213389 -0.4279654 -0.13719874
v 0.00316689 -0.43720281 -0.13696068
v 0.00526177 -0.42932856 -0.13394111
v 0.00322693 -0.42950379 -0.13352662
v 0.00528799 -0.42820715 -0.1366257
v 0.005903 -0.43650198 -0.13869184
v 0.00595068 -0.42877197 -0.13527292
v 0.00322508 -0.43573975 -0.14055162
v 0.00326812 -0.42800712 -0.13710326
v -0.01504755 -0.44477492 -0.14092037
v -0.01307857 -0.45072221 -0.14328593
v -0.01036819 -0.4449374 -0.14048725
v -0.01304252 -0.44494408 -0.1404826
v -0.01307214 -0.44967752 -0.14600113
v -0.01041247 -0.45218098 -0.14543968
v -0.01508189 -0.45020937 -0.14462667
v -0.01308854 -0.4521892 -0.14542931
v -0.01504278 -0.44370669 -0.14362686
v -0.0157149 -0.44424384 -0.14226931
v -0.01034208 -0.44351273 -0.1440925
v -0.01302934 -0.44351953 -0.14408999
v -0.00773203 -0.45071625 -0.14327532
v -0.00501037 -0.44495767 -0.14041823
v -0.00769306 -0.44494134 -0.14046528
v -0.00770031 -0.44967156 -0.14598852
v -0.00504213 -0.45219802 -0.14537233
v -0.00773138 -0.45218229 -0.14542028
v -0.00494831 -0.44353336 -0.14402025
v -0.00764823 -0.44351667 -0.14406842
v -0.00235294 -0.4507662 -0.14315363
v 0.00039343 -0.44502657 -0.14026624
v -0.00231347 -0.44498878 -0.14034777
v -0.00229851 -0.44972199 -0.14586681
v 0.00036763 -0.45227646 -0.14520877
v -0.0023416 -0.45223319 -0.14529714
v 0.00046593 -0.44360405 -0.14387184
v -0.00224266 -0.44356519 -0.1439509
v 0.00306991 -0.45084714 -0.14298051
v 0.00515078 -0.44491285 -0.14057809
v 0.00310622 -0.44506329 -0.14018628
v 0.00519895 -0.44384723 -0.14328572
v 0.00513489 -0.45035386 -0.14427524
v 0.00585296 -0.44438916 -0.1419124
v 0.00312499 -0.44980388 -0.14569622
v 0.0030831 -0.45231652 -0.145121
v 0.00317484 -0.44364184 -0.14379447
v 0.08790552 -0.32953113 -0.12457151
v 0.08790583 -0.34789031 -0.1283954
v 0.08790537 -0.36757379 -0.13249546
v 0.08790539 -0.38725656 -0.13659581
v 0.0879054 -0.4069398 -0.1406959
v 0.08790494 -0.42662358 -0.1447955
v 0.08790518 -0.44516485 -0.14865836
v 0.06563039 -0.46484839 -0.15275844
v 0.06563076 -0.31400919 -0.12133774
v 0.06563052 -0.32976287 -0.12345751
v 0.06606039 -0.34797412 -0.12799507
v 0.06841489 -0.36757379 -0.13249546
v 0.06841483 -0.38725656 -0.13659581
v 0.06841479 -0.40693968 -0.14069578
v 0.0684143 -0.42662346 -0.14479547
v 0.06606014 -0.44565957 -0.14834293
v 0.04454904 -0.46484839 -0.15275821
v 0.04454901 -0.31400895 -0.12133761
v 0.04454913 -0.32976287 -0.12345764
v 0.04454916 -0.34542983 -0.12788254
v 0.04454891 -0.44762569 -0.1491712
v 0.0222742 -0.46484839 -0.15275886
v 0.0222743 -0.31400907 -0.12133784
v 0.02227425 -0.32976287 -0.12345774
v 0.02227427 -0.34542959 -0.12788292
v 0.02227427 -0.44762545 -0.14917117
v -0.00000821 -0.46447044 -0.1530793
v -0.00000054 -0.31400907 -0.1213376
v -0.00000052 -0.32976299 -0.12345761
v -0.00000053 -0.34542948 -0.12788277
v -0.00000055 -0.44762557 -0.14917141
v -0.02227596 -0.46450299 -0.15297994
v -0.02227509 -0.3140093 -0.12133757
v -0.02227516 -0.32976299 -0.12345773
v -0.02227516 -0.34542971 -0.12788301
v -0.02227516 -0.44762569 -0.1491712
v -0.04454983 -0.46484816 -0.1527585
v -0.04454983 -0.31400895 -0.12133781
v -0.04454971 -0.32976311 -0.12345783
v -0.04454971 -0.34542959 -0.12788289
v -0.04454988 -0.44762533 -0.14917141
v -0.06537428 -0.46484792 -0.1527585
v -0.06537398 -0.31400907 -0.12133757
v -0.06537409 -0.32976311 -0.12345784
v -0.06589597 -0.34797424 -0.12799507
v -0.06815832 -0.36757367 -0.13249546
v -0.06815846 -0.38725656 -0.13659578
v -0.06815844 -0.40693968 -0.14069572
v -0.06815892 -0.42662334 -0.14479565
v -0.06589628 -0.44565957 -0.14834299
v -0.08764846 -0.32953113 -0.12457124
v -0.08764821 -0.34789031 -0.12839523
v -0.08764855 -0.36757344 -0.13249543
v -0.08764858 -0.38725656 -0.13659575
v -0.08764857 -0.40693968 -0.14069572
v -0.08764906 -0.42662334 -0.14479568
v -0.08764882 -0.44516485 -0.1486583
v 0.08790557 -0.32813978 -0.13125181
v 0.06563048 -0.32790792 -0.13236469
v 0.06563057 -0.31261771 -0.12801834
v 0.0879057 -0.34649938 -0.13507598
v 0.0660604 -0.34641557 -0.13547679
v 0.0879054 -0.36618226 -0.13917657
v 0.06841483 -0.36618226 -0.13917657
v 0.08790539 -0.38586574 -0.14327654
v 0.06841483 -0.38586586 -0.14327654
v 0.08790539 -0.40554863 -0.1473765
v 0.06841476 -0.40554863 -0.14737662
v 0.08790487 -0.42523205 -0.15147706
v 0.06841427 -0.42523205 -0.15147683
v 0.08790516 -0.4437738 -0.15533885
v 0.06606012 -0.44410079 -0.15582463
v 0.06563027 -0.46345675 -0.15943858
v 0.0445489 -0.32790792 -0.13236472
v 0.0445489 -0.3126176 -0.1280182
v 0.04454904 -0.34403854 -0.13456317
v 0.0445489 -0.46345675 -0.15943855
v 0.04454875 -0.44623464 -0.15585121
v 0.02227417 -0.32790768 -0.13236492
v 0.02227418 -0.3126176 -0.1280182
v 0.02227417 -0.34403854 -0.13456338
v 0.02227411 -0.46345675 -0.1594389
v 0.02227418 -0.4462344 -0.15585142
v -0.00000053 -0.32790792 -0.13236472
v -0.00000053 -0.31261748 -0.12801808
v -0.00000053 -0.34403866 -0.13456326
v -0.00000054 -0.46345269 -0.15943282
v -0.00000054 -0.44623464 -0.15585121
v -0.02227527 -0.32790803 -0.13236489
v -0.02227523 -0.31261783 -0.12801796
v -0.02227527 -0.34403866 -0.13456326
v -0.02227535 -0.46345698 -0.15943867
v -0.0222753 -0.44623464 -0.15585115
v -0.04454994 -0.3279078 -0.13236504
v -0.04455002 -0.3126176 -0.1280182
v -0.04454983 -0.34403854 -0.13456323
v -0.04454996 -0.4634571 -0.15943875
v -0.04455008 -0.4462344 -0.15585154
v -0.06537413 -0.3279078 -0.13236489
v -0.06537407 -0.31261748 -0.12801829
v -0.06589599 -0.34641546 -0.13547688
v -0.06537433 -0.46345675 -0.15943867
v -0.06589628 -0.44410103 -0.1558246
v -0.08764845 -0.32813966 -0.13125151
v -0.08764833 -0.34649926 -0.13507607
v -0.06815844 -0.36618238 -0.13917627
v -0.08764858 -0.36618214 -0.13917651
v -0.06815846 -0.38586586 -0.14327651
v -0.08764855 -0.38586586 -0.14327648
v -0.06815852 -0.40554863 -0.14737632
v -0.08764857 -0.40554863 -0.14737656
v -0.06815898 -0.42523205 -0.15147677
v -0.08764909 -0.42523217 -0.15147686
v -0.0876488 -0.4437738 -0.15533855
v 0.06563034 -0.45505821 -0.1588518
v 0.08691085 -0.45519506 -0.15771848
v 0.08691088 -0.45658659 -0.15103715
v 0.06563043 -0.45691394 -0.14994412
v 0.04454887 -0.45505821 -0.1588518
v 0.04454911 -0.4569143 -0.149944
v 0.02227412 -0.45505809 -0.15885183
v 0.02227419 -0.45691406 -0.14994424
v -0.00000053 -0.45505797 -0.15885168
v -0.00000057 -0.45691448 -0.14994466
v -0.02227528 -0.45505821 -0.15885183
v -0.02227522 -0.45691418 -0.14994409
v -0.04455002 -0.45505821 -0.15885192
v -0.04454978 -0.45691394 -0.14994409
v -0.06537425 -0.45505809 -0.15885177
v -0.06537421 -0.45691394 -0.14994409
v -0.08644028 -0.45519506 -0.15771812
v -0.08644029 -0.45658671 -0.151037
v 0.06563052 -0.32097935 -0.13092169
v 0.0869109 -0.32131612 -0.12983045
v 0.08691088 -0.32270705 -0.12314984
v 0.0656306 -0.32283437 -0.12201422
v 0.0445488 -0.32097935 -0.13092169
v 0.04454907 -0.32283461 -0.12201423
v 0.02227421 -0.32097935 -0.1309219
v 0.02227428 -0.32283425 -0.12201459
v -0.00000053 -0.32097935 -0.13092169
v -0.00000053 -0.32283449 -0.12201422
v -0.02227522 -0.32097935 -0.13092166
v -0.02227515 -0.32283461 -0.1220141
v -0.04455007 -0.32097923 -0.13092169
v -0.04454981 -0.32283449 -0.1220142
v -0.06537409 -0.32097923 -0.13092199
v -0.06537401 -0.32283425 -0.12201432
v -0.08644026 -0.32131612 -0.12983042
v -0.08644028 -0.32270717 -0.12314955
v -0.07749247 -0.31366169 -0.12823572
v -0.07749253 -0.3210839 -0.1309438
v -0.07749237 -0.31505346 -0.12155527
v -0.07749246 -0.32293903 -0.12203587
v -0.0776133 -0.32790792 -0.13236492
v -0.07761299 -0.34626716 -0.13618975
v -0.07761298 -0.34812206 -0.12728205
v -0.07761329 -0.32976335 -0.12345781
v -0.07761329 -0.36595028 -0.14028948
v -0.07761319 -0.36780506 -0.13138228
v -0.0776133 -0.38563412 -0.14438921
v -0.07761329 -0.38748842 -0.1354821
v -0.07761327 -0.40531712 -0.14848926
v -0.07761329 -0.4071713 -0.13958254
v -0.07761389 -0.42500019 -0.15258982
v -0.07761377 -0.4268558 -0.14368253
v -0.07761329 -0.4435423 -0.15645185
v -0.07761329 -0.44539672 -0.14754486
v -0.07749261 -0.4549638 -0.15883174
v -0.07749261 -0.46389722 -0.15256089
v -0.07749268 -0.46250534 -0.15924066
v -0.07749249 -0.45681858 -0.14992371
v 0.07905429 -0.31366169 -0.12823587
v 0.07905425 -0.32108378 -0.13094359
v 0.07905443 -0.31505334 -0.12155541
v 0.07905431 -0.32293891 -0.12203604
v 0.0791537 -0.3279078 -0.13236495
v 0.079154 -0.34626704 -0.13618978
v 0.07915404 -0.34812218 -0.12728223
v 0.07915368 -0.32976287 -0.12345786
v 0.0791537 -0.36595028 -0.14028951
v 0.07915382 -0.36780506 -0.13138231
v 0.0791537 -0.38563412 -0.14438924
v 0.07915371 -0.3874883 -0.13548216
v 0.07915368 -0.40531724 -0.14848932
v 0.07915367 -0.4071713 -0.1395826
v 0.07915303 -0.42499995 -0.15258973
v 0.07915315 -0.42685592 -0.14368242
v 0.07915368 -0.4435423 -0.15645176
v 0.07915373 -0.4453966 -0.14754521
v 0.0790542 -0.45496368 -0.15883153
v 0.07905419 -0.46389687 -0.15256053
v 0.07905411 -0.46250534 -0.15924054
v 0.07905425 -0.45681846 -0.14992353
v 0.08392718 -0.31679463 -0.1288883
v 0.07875594 -0.31656241 -0.13000151
v 0.08392721 -0.3213967 -0.13100883
v 0.08273378 -0.31781554 -0.13026234
v 0.08790546 -0.32708084 -0.12406037
v 0.0879054 -0.32190716 -0.12646791
v 0.08790546 -0.32568979 -0.1307418
v 0.08909906 -0.32883548 -0.12791118
v 0.089099 -0.32638549 -0.12740096
v 0.08392724 -0.31818604 -0.1222077
v 0.07915385 -0.31331342 -0.12467785
v 0.08432504 -0.31707251 -0.12546107
v 0.08392722 -0.32325255 -0.12210152
v 0.07875603 -0.31841778 -0.12109395
v 0.08273379 -0.31967091 -0.12135561
v 0.08432507 -0.3279078 -0.13236495
v 0.07915374 -0.33642536 -0.13413903
v 0.08432531 -0.34626704 -0.13618966
v 0.08790564 -0.33665746 -0.1330257
v 0.08432515 -0.33642536 -0.13413903
v 0.08790566 -0.33804875 -0.1263456
v 0.08909921 -0.34719449 -0.13173565
v 0.08909918 -0.33735281 -0.12968549
v 0.08432544 -0.34812218 -0.12728223
v 0.07915376 -0.33828073 -0.1252323
v 0.08432509 -0.32976299 -0.12345788
v 0.08432513 -0.33828073 -0.12523239
v 0.07915397 -0.35610801 -0.13823878
v 0.08432503 -0.36595028 -0.14028951
v 0.08790567 -0.35634011 -0.13712558
v 0.08432526 -0.35610777 -0.13823887
v 0.08790607 -0.35773235 -0.13044592
v 0.08909888 -0.36687785 -0.13583511
v 0.0890993 -0.35703653 -0.13378545
v 0.0684154 -0.35773235 -0.13044601
v 0.06682394 -0.36687797 -0.13583535
v 0.06841504 -0.35634011 -0.13712558
v 0.06403993 -0.34965521 -0.13224813
v 0.0668244 -0.35703665 -0.13378554
v 0.08432507 -0.36780518 -0.13138231
v 0.07915432 -0.35796397 -0.12933275
v 0.08432568 -0.35796374 -0.12933263
v 0.07915373 -0.37579149 -0.14233851
v 0.08432503 -0.38563412 -0.14438924
v 0.08790537 -0.37602347 -0.1412259
v 0.084325 -0.3757916 -0.1423386
v 0.08790537 -0.37741535 -0.1345466
v 0.08909894 -0.38656157 -0.13993519
v 0.08909896 -0.37671953 -0.13788577
v 0.06841479 -0.37741535 -0.1345466
v 0.06682388 -0.38656169 -0.13993534
v 0.06841479 -0.37602347 -0.1412259
v 0.06682387 -0.37671941 -0.13788586
v 0.08432501 -0.38748842 -0.13548216
v 0.0791537 -0.37764757 -0.13343283
v 0.084325 -0.37764757 -0.13343283
v 0.07915365 -0.39547485 -0.14643925
v 0.08432498 -0.40531712 -0.14848932
v 0.08790539 -0.3957073 -0.1453256
v 0.08432498 -0.39547485 -0.14643925
v 0.08790539 -0.39709812 -0.13864702
v 0.08909887 -0.40624445 -0.14403554
v 0.0890989 -0.39640384 -0.1419855
v 0.06841479 -0.39709824 -0.13864693
v 0.06682388 -0.40624457 -0.1440359
v 0.06841479 -0.39570719 -0.14532551
v 0.0668239 -0.39640373 -0.14198559
v 0.08432498 -0.4071713 -0.1395826
v 0.07915368 -0.39733082 -0.1375328
v 0.084325 -0.39733082 -0.13753277
v 0.07915319 -0.41515803 -0.15053913
v 0.08432449 -0.42499995 -0.15258976
v 0.08790506 -0.41539001 -0.14942571
v 0.08432458 -0.41515803 -0.1505391
v 0.08790534 -0.41678261 -0.14274609
v 0.08909833 -0.42592787 -0.14813646
v 0.0890987 -0.41608655 -0.1460857
v 0.06841462 -0.41678261 -0.14274615
v 0.06682342 -0.42592775 -0.14813622
v 0.0684144 -0.41539013 -0.14942583
v 0.06682367 -0.41608667 -0.14608568
v 0.08432455 -0.4268558 -0.14368236
v 0.07915364 -0.41701376 -0.14163264
v 0.08432495 -0.41701376 -0.14163264
v 0.0791535 -0.434841 -0.15464037
v 0.08432491 -0.44354218 -0.15645188
v 0.08790509 -0.43507289 -0.15352648
v 0.08432479 -0.434841 -0.15464028
v 0.08790518 -0.43646574 -0.14684617
v 0.08909864 -0.44446951 -0.15199908
v 0.0890986 -0.43576955 -0.15018624
v 0.0684147 -0.43646574 -0.14684602
v 0.06403948 -0.44315069 -0.15172392
v 0.0684147 -0.43507325 -0.15352636
v 0.06682388 -0.43576979 -0.15018627
v 0.08432491 -0.44539648 -0.14754504
v 0.0791535 -0.43669676 -0.14573222
v 0.08432482 -0.43669688 -0.14573213
v 0.07915371 -0.44995951 -0.1577897
v 0.08392718 -0.45467782 -0.15877181
v 0.08790531 -0.4501909 -0.15667599
v 0.084325 -0.44995927 -0.15778967
v 0.08392719 -0.46104407 -0.1519663
v 0.08790539 -0.45598661 -0.15439698
v 0.08392714 -0.45965302 -0.1586464
v 0.0791535 -0.46415233 -0.15609854
v 0.08432498 -0.46072828 -0.15538498
v 0.07318741 -0.46484828 -0.15275833
v 0.07318732 -0.4634571 -0.15943878
v 0.06563031 -0.46529412 -0.15633654
v 0.07318735 -0.46529412 -0.15633636
v 0.08790534 -0.45158302 -0.14999482
v 0.08392718 -0.45653259 -0.14986461
v 0.07915371 -0.45181548 -0.14888113
v 0.08432501 -0.4518156 -0.14888131
v 0.05568645 -0.3126176 -0.12801811
v 0.0445488 -0.3161447 -0.12991461
v 0.05568639 -0.32097959 -0.1309219
v 0.06563055 -0.3161447 -0.12991473
v 0.05568641 -0.3161447 -0.1299147
v 0.05568655 -0.31400919 -0.12133771
v 0.04454895 -0.3120597 -0.12441667
v 0.06563068 -0.31205993 -0.12441654
v 0.05568647 -0.31205993 -0.12441667
v 0.0656307 -0.31800019 -0.12100692
v 0.05568662 -0.32283461 -0.12201424
v 0.04454903 -0.31799995 -0.12100679
v 0.05568658 -0.31800019 -0.12100692
v 0.05568653 -0.32790792 -0.13236495
v 0.04454905 -0.33642524 -0.13413891
v 0.05568647 -0.34403866 -0.13456329
v 0.06563049 -0.33642536 -0.13413891
v 0.05568648 -0.33642524 -0.13413891
v 0.05568646 -0.34542959 -0.12788304
v 0.04454903 -0.34719449 -0.13173565
v 0.05568645 -0.34719449 -0.13173577
v 0.06563048 -0.33828061 -0.12523227
v 0.04454927 -0.33828085 -0.1252323
v 0.05568664 -0.32976287 -0.12345764
v 0.05568659 -0.33828061 -0.12523227
v 0.05568625 -0.44623464 -0.15585121
v 0.04454878 -0.44995939 -0.15778964
v 0.05568628 -0.45505845 -0.15885195
v 0.06563043 -0.44995939 -0.15778952
v 0.05568625 -0.44995939 -0.15778964
v 0.05568646 -0.46484816 -0.15275842
v 0.05568632 -0.46345675 -0.15943858
v 0.04454897 -0.46529412 -0.15633636
v 0.05568639 -0.46529412 -0.15633651
v 0.05568632 -0.44762569 -0.1491712
v 0.04454879 -0.44561058 -0.15223676
v 0.0556863 -0.44561082 -0.15223702
v 0.06563045 -0.45181548 -0.14888116
v 0.05568648 -0.45691394 -0.14994412
v 0.04454906 -0.45181548 -0.14888101
v 0.05568641 -0.45181572 -0.14888131
v 0.03341141 -0.31261748 -0.12801811
v 0.02227422 -0.31614446 -0.12991493
v 0.03341139 -0.32097923 -0.13092157
v 0.03341138 -0.31614446 -0.12991458
v 0.0334115 -0.31400883 -0.12133749
v 0.02227423 -0.31205993 -0.12441677
v 0.03341142 -0.31205958 -0.12441655
v 0.0334116 -0.32283425 -0.12201435
v 0.0222743 -0.31800007 -0.12100739
v 0.03341152 -0.31799995 -0.1210068
v 0.03341153 -0.32790792 -0.13236492
v 0.0222741 -0.336425 -0.13413888
v 0.03341169 -0.34403878 -0.13456338
v 0.03341165 -0.33642536 -0.13413903
v 0.03341186 -0.34542971 -0.12788301
v 0.02227423 -0.34719449 -0.13173565
v 0.03341172 -0.34719449 -0.13173586
v 0.02227422 -0.33828061 -0.12523227
v 0.03341179 -0.32976299 -0.12345785
v 0.03341188 -0.33828097 -0.12523242
v 0.03341145 -0.44623452 -0.15585154
v 0.02227415 -0.44995915 -0.15778929
v 0.03341164 -0.45505797 -0.15885192
v 0.03341149 -0.44995927 -0.15778943
v 0.03341184 -0.4648478 -0.15275844
v 0.03341174 -0.46345675 -0.15943878
v 0.02227414 -0.46529424 -0.15633657
v 0.03341178 -0.46529376 -0.15633624
v 0.03341164 -0.44762545 -0.14917132
v 0.02227421 -0.44561046 -0.15223678
v 0.03341149 -0.4456107 -0.1522369
v 0.03341184 -0.45691406 -0.14994427
v 0.0222742 -0.45181536 -0.14888104
v 0.03341178 -0.45181536 -0.14888101
v 0.01113682 -0.3126176 -0.12801796
v -0.00000054 -0.31614458 -0.12991446
v 0.01113685 -0.32097971 -0.13092178
v 0.01113684 -0.3161447 -0.12991446
v 0.01113685 -0.31400919 -0.12133771
v -0.00000052 -0.31206005 -0.12441664
v 0.01113686 -0.31205993 -0.12441666
v 0.01113685 -0.32283461 -0.12201447
v -0.00000054 -0.31800031 -0.12100703
v 0.01113686 -0.31800031 -0.12100704
v 0.01113689 -0.32790803 -0.13236504
v -0.00000053 -0.33642524 -0.13413888
v 0.01113685 -0.34403866 -0.13456326
v 0.01113689 -0.3364256 -0.13413912
v 0.01113688 -0.34542971 -0.12788313
v -0.00000053 -0.34719449 -0.13173586
v 0.01113686 -0.34719449 -0.13173601
v -0.00000053 -0.33828073 -0.12523239
v 0.01113682 -0.32976311 -0.12345783
v 0.01113687 -0.33828097 -0.12523216
v 0.01113683 -0.44623464 -0.15585142
v -0.00000055 -0.44995927 -0.15778961
v 0.01113684 -0.45505833 -0.15885192
v 0.01113683 -0.44995927 -0.15778979
v 0.01113549 -0.46480858 -0.15280103
v 0.01113681 -0.46345686 -0.1594389
v -0.00000358 -0.46501272 -0.15631264
v 0.01113685 -0.465294 -0.1563366
v 0.01113684 -0.44762545 -0.14917129
v -0.00000055 -0.4456107 -0.15223699
v 0.01113687 -0.44561082 -0.15223699
v 0.01113682 -0.45691406 -0.14994439
v -0.00000054 -0.4518156 -0.14888125
v 0.01113681 -0.4518156 -0.14888125
v -0.01113792 -0.31261748 -0.12801808
v -0.02227521 -0.3161447 -0.12991446
v -0.01113785 -0.32097923 -0.13092166
v -0.01113785 -0.31614458 -0.12991434
v -0.01113785 -0.31400895 -0.12133747
v -0.02227515 -0.31205982 -0.12441653
v -0.01113791 -0.3120597 -0.12441664
v -0.01113784 -0.32283449 -0.12201422
v -0.0222751 -0.31800007 -0.12100691
v -0.01113785 -0.31799995 -0.12100692
v -0.01113785 -0.3279078 -0.13236457
v -0.02227533 -0.33642536 -0.13413885
v -0.01113791 -0.34403854 -0.13456314
v -0.01113786 -0.336425 -0.13413888
v -0.01113786 -0.34542971 -0.12788257
v -0.02227522 -0.34719449 -0.13173598
v -0.01113786 -0.34719461 -0.13173538
v -0.02227521 -0.33828097 -0.12523189
v -0.01113791 -0.32976287 -0.1234576
v -0.01113785 -0.33828061 -0.12523227
v -0.01113791 -0.4462344 -0.15585115
v -0.02227528 -0.44995951 -0.15778964
v -0.0111379 -0.45505797 -0.15885183
v -0.01113791 -0.44995927 -0.15778917
v -0.01114311 -0.46439319 -0.15309342
v -0.01113804 -0.46334254 -0.15928039
v -0.02227544 -0.46508646 -0.15630391
v -0.01113982 -0.46494954 -0.15629288
v -0.01113792 -0.44762557 -0.14917141
v -0.02227522 -0.44561094 -0.15223696
v -0.01113791 -0.44561046 -0.15223661
v -0.01113802 -0.45690041 -0.14994454
v -0.02227517 -0.4518156 -0.14888125
v -0.01113789 -0.4518156 -0.14888101
v -0.03341285 -0.3126176 -0.12801808
v -0.04455006 -0.31614458 -0.12991458
v -0.03341285 -0.32097923 -0.13092166
v -0.03341285 -0.3161447 -0.1299147
v -0.03341272 -0.31400942 -0.12133806
v -0.04454994 -0.3120597 -0.12441687
v -0.03341278 -0.31206029 -0.12441711
v -0.03341261 -0.32283449 -0.12201432
v -0.04454982 -0.31800031 -0.12100713
v -0.03341266 -0.31800055 -0.12100713
v -0.03341273 -0.32790792 -0.13236469
v -0.04454984 -0.33642524 -0.13413885
v -0.03341256 -0.34403854 -0.13456314
v -0.03341263 -0.33642512 -0.13413888
v -0.03341243 -0.34542959 -0.12788263
v -0.04454983 -0.34719461 -0.13173583
v -0.03341249 -0.34719437 -0.13173562
v -0.04454958 -0.33828097 -0.12523239
v -0.03341248 -0.32976287 -0.12345747
v -0.03341236 -0.33828085 -0.12523216
v -0.03341281 -0.44623452 -0.1558513
v -0.04455002 -0.44995915 -0.15778952
v -0.03341261 -0.45505845 -0.15885204
v -0.03341275 -0.44995915 -0.15778952
v -0.03341237 -0.46484851 -0.15275865
v -0.03341249 -0.4634571 -0.15943875
v -0.04454988 -0.46529412 -0.15633633
v -0.03341245 -0.46529424 -0.15633675
v -0.03341263 -0.44762545 -0.14917126
v -0.04455002 -0.44561082 -0.15223687
v -0.03341274 -0.44561058 -0.15223684
v -0.03341238 -0.4569143 -0.14994412
v -0.04454977 -0.4518156 -0.14888134
v -0.03341242 -0.45181572 -0.14888134
v -0.0556872 -0.31261748 -0.1280182
v -0.06537409 -0.31614458 -0.12991458
v -0.05568719 -0.32097923 -0.13092166
v -0.05568718 -0.31614446 -0.1299147
v -0.05568701 -0.31400907 -0.12133758
v -0.06537395 -0.3120597 -0.12441688
v -0.05568707 -0.3120597 -0.12441664
v -0.05568696 -0.32283425 -0.12201433
v -0.06537395 -0.31800007 -0.12100713
v -0.05568702 -0.31800007 -0.12100714
v -0.05568707 -0.32790768 -0.13236489
v -0.06537416 -0.33642524 -0.13413888
v -0.05568712 -0.34403866 -0.13456323
v -0.05568708 -0.33642536 -0.134139
v -0.05568714 -0.34542959 -0.12788265
v -0.0640397 -0.34965533 -0.13224819
v -0.05568712 -0.34719449 -0.13173559
v -0.06537413 -0.33828085 -0.12523216
v -0.05568695 -0.32976287 -0.12345759
v -0.05568696 -0.33828073 -0.12523239
v -0.05568732 -0.44623452 -0.15585127
v -0.06537421 -0.44995951 -0.15778952
v -0.05568727 -0.45505785 -0.15885168
v -0.05568731 -0.44995915 -0.15778949
v -0.0556871 -0.46484792 -0.15275856
v -0.05568726 -0.46345675 -0.15943878
v -0.06537433 -0.46529388 -0.15633621
v -0.05568721 -0.465294 -0.15633636
v -0.05568725 -0.44762545 -0.14917117
v -0.06404013 -0.44315058 -0.15172389
v -0.0556873 -0.44561046 -0.15223658
v -0.05568708 -0.45691371 -0.14994409
v -0.06537421 -0.4518156 -0.14888125
v -0.05568721 -0.4518156 -0.1488811
v -0.07216066 -0.31261736 -0.1280184
v -0.07712991 -0.31656265 -0.13000193
v -0.07216073 -0.32097935 -0.13092187
v -0.07216067 -0.31614446 -0.12991482
v -0.08281457 -0.31818616 -0.12220782
v -0.08764855 -0.32190716 -0.12646797
v -0.08281457 -0.31679499 -0.12888839
v -0.07761317 -0.31331342 -0.12467829
v -0.08329807 -0.31707298 -0.12546125
v -0.07216055 -0.31400907 -0.12133771
v -0.0721606 -0.31205993 -0.12441686
v -0.07216067 -0.32283437 -0.12201431
v -0.07712978 -0.31841814 -0.12109427
v -0.07216055 -0.31800007 -0.12100713
v -0.07216072 -0.32790803 -0.13236489
v -0.07761324 -0.33642524 -0.13413885
v -0.07216048 -0.34626716 -0.13618961
v -0.07216072 -0.33642536 -0.134139
v -0.08764839 -0.33804887 -0.12634554
v -0.08909845 -0.34719437 -0.13173571
v -0.08764839 -0.33665734 -0.13302567
v -0.08909857 -0.3288356 -0.12791115
v -0.08909845 -0.33735269 -0.12968555
v -0.07216043 -0.34812218 -0.12728217
v -0.07761323 -0.33828061 -0.12523224
v -0.07216073 -0.32976311 -0.12345784
v -0.07216073 -0.33828085 -0.12523224
v -0.07761313 -0.35610801 -0.13823872
v -0.07216078 -0.36595016 -0.1402896
v -0.06815815 -0.35633987 -0.13712543
v -0.07216048 -0.35610777 -0.13823884
v -0.0681578 -0.35773247 -0.13044586
v -0.06682431 -0.36687797 -0.13583543
v -0.06682388 -0.35703665 -0.13378575
v -0.08764798 -0.35773247 -0.13044601
v -0.08909875 -0.36687773 -0.13583543
v -0.08764831 -0.35634011 -0.13712552
v -0.08909834 -0.35703665 -0.13378566
v -0.07216067 -0.36780506 -0.13138228
v -0.07761269 -0.35796397 -0.1293326
v -0.07216 -0.35796386 -0.12933248
v -0.0776133 -0.37579149 -0.14233854
v -0.07216073 -0.38563388 -0.14438921
v -0.06815846 -0.37602347 -0.14122584
v -0.07216079 -0.3757916 -0.14233857
v -0.06815846 -0.37741535 -0.13454654
v -0.06682437 -0.38656169 -0.13993531
v -0.06682439 -0.37671941 -0.13788601
v -0.08764857 -0.37741535 -0.13454654
v -0.08909876 -0.38656169 -0.13993528
v -0.08764857 -0.37602347 -0.14122584
v -0.08909876 -0.37671953 -0.13788583
v -0.07216072 -0.38748854 -0.1354821
v -0.07761327 -0.37764746 -0.13343241
v -0.07216079 -0.37764757 -0.13343277
v -0.0776133 -0.39547485 -0.14643922
v -0.07216075 -0.40531712 -0.14848941
v -0.06815844 -0.39570707 -0.14532521
v -0.07216073 -0.39547485 -0.14643922
v -0.06815844 -0.39709812 -0.13864699
v -0.06682439 -0.40624445 -0.14403572
v -0.06682437 -0.39640373 -0.14198568
v -0.08764857 -0.39709824 -0.13864675
v -0.08909875 -0.40624445 -0.14403584
v -0.08764858 -0.39570742 -0.14532557
v -0.08909875 -0.39640361 -0.14198571
v -0.07216073 -0.40717154 -0.13958257
v -0.07761329 -0.39733058 -0.13753283
v -0.07216073 -0.39733058 -0.13753286
v -0.07761384 -0.41515803 -0.15053919
v -0.07216131 -0.42500007 -0.15258973
v -0.06815888 -0.41539013 -0.14942568
v -0.07216125 -0.41515791 -0.15053907
v -0.06815862 -0.41678261 -0.142746
v -0.06682491 -0.42592775 -0.14813628
v -0.06682461 -0.41608643 -0.14608568
v -0.08764863 -0.41678261 -0.14274603
v -0.0890993 -0.42592775 -0.14813628
v -0.08764892 -0.41539001 -0.1494258
v -0.08909888 -0.41608667 -0.14608579
v -0.07216127 -0.42685592 -0.14368239
v -0.07761339 -0.417014 -0.14163249
v -0.07216091 -0.41701388 -0.14163249
v -0.07761348 -0.434841 -0.1546401
v -0.07216079 -0.44354218 -0.15645185
v -0.06815852 -0.43507301 -0.15352645
v -0.07216085 -0.434841 -0.15464034
v -0.0681585 -0.43646574 -0.14684611
v -0.06682445 -0.43576955 -0.15018636
v -0.08764876 -0.43646597 -0.14684537
v -0.08909902 -0.44446951 -0.15199905
v -0.08764888 -0.43507289 -0.15352648
v -0.08909899 -0.43576955 -0.15018621
v -0.07216078 -0.4453966 -0.14754512
v -0.0776135 -0.43669712 -0.1457321
v -0.07216085 -0.43669736 -0.14573234
v -0.07761329 -0.44995927 -0.15778961
v -0.07216087 -0.45505821 -0.15885192
v -0.07216078 -0.44995939 -0.15778973
v -0.08281463 -0.46104419 -0.15196663
v -0.0776135 -0.46415293 -0.15609842
v -0.0828147 -0.45965278 -0.15864661
v -0.08764855 -0.4559865 -0.15439695
v -0.08329816 -0.46072876 -0.15538504
v -0.08764861 -0.45158314 -0.14999452
v -0.08764864 -0.4501909 -0.15667596
v -0.08909885 -0.45088744 -0.15333572
v -0.07216079 -0.45691418 -0.14994433
v -0.07761329 -0.45181572 -0.14888122
v -0.07216072 -0.4518156 -0.14888134
v 0.07875575 -0.45942091 -0.15975984
v 0.0827336 -0.45827925 -0.15952247
v 0.08909878 -0.45088744 -0.15333589
v 0.07875584 -0.46127593 -0.15085262
v 0.08273372 -0.46013498 -0.1506147
v 0.04454885 -0.45980083 -0.15983969
v 0.06563031 -0.45980107 -0.1598398
v 0.0556863 -0.45980107 -0.15983969
v 0.06563037 -0.46165704 -0.15093153
v 0.04454908 -0.46165669 -0.15093118
v 0.05568653 -0.46165704 -0.15093144
v 0.02227412 -0.45980083 -0.1598398
v 0.0334117 -0.45980083 -0.15983969
v 0.02227421 -0.46165657 -0.15093156
v 0.03341184 -0.46165645 -0.15093118
v -0.00000054 -0.45980083 -0.15983966
v 0.01113685 -0.45980083 -0.15983969
v -0.00000511 -0.46148163 -0.15108072
v 0.01113664 -0.461658 -0.15093269
v -0.02227534 -0.45980072 -0.15983957
v -0.01113794 -0.45980083 -0.15983969
v -0.02227547 -0.46151852 -0.15101003
v -0.0111408 -0.46143239 -0.15108844
v -0.04454996 -0.4598006 -0.15983966
v -0.0334125 -0.45980119 -0.15983992
v -0.04454971 -0.46165657 -0.15093129
v -0.03341237 -0.46165669 -0.15093141
v -0.06537434 -0.45980048 -0.15983969
v -0.05568726 -0.45980083 -0.15983969
v -0.06537424 -0.46165609 -0.15093138
v -0.05568708 -0.46165621 -0.15093141
v -0.07713009 -0.45942103 -0.15975919
v -0.07216095 -0.46345686 -0.15943875
v -0.07216097 -0.4598006 -0.1598398
v 0.0731875 -0.32097923 -0.13092169
v 0.06563051 -0.32545757 -0.13185447
v 0.07318747 -0.32790792 -0.13236472
v 0.07915371 -0.32545745 -0.13185474
v 0.07318748 -0.32545757 -0.13185462
v -0.0721609 -0.46484816 -0.1527585
v -0.07712996 -0.46127641 -0.15085274
v -0.07216087 -0.46165633 -0.15093118
v 0.08432503 -0.32545769 -0.13185474
v 0.0731875 -0.4569143 -0.14994403
v 0.07318747 -0.46165669 -0.15093144
v 0.07915368 -0.32731282 -0.12294681
v 0.08432504 -0.3273127 -0.12294683
v 0.04454884 -0.32545745 -0.13185438
v 0.0556865 -0.32545781 -0.13185447
v 0.06563054 -0.32731282 -0.12294682
v 0.0445491 -0.32731282 -0.12294683
v 0.05568664 -0.32731282 -0.12294683
v 0.0222742 -0.32545733 -0.13185459
v 0.03341144 -0.32545769 -0.13185447
v 0.02227427 -0.32731258 -0.12294669
v 0.0334117 -0.3273127 -0.12294692
v -0.00000053 -0.32545757 -0.13185471
v 0.01113688 -0.32545769 -0.13185471
v -0.00000052 -0.3273127 -0.12294692
v 0.01113682 -0.32731282 -0.12294692
v -0.02227522 -0.32545781 -0.13185447
v -0.01113785 -0.32545757 -0.13185459
v -0.02227515 -0.32731282 -0.1229468
v -0.01113791 -0.3273127 -0.12294682
v -0.04455001 -0.32545757 -0.13185471
v -0.0334128 -0.32545781 -0.13185459
v -0.04454975 -0.32731258 -0.12294714
v -0.0334125 -0.32731282 -0.12294681
v -0.06537407 -0.32545769 -0.13185471
v -0.05568714 -0.32545745 -0.13185459
v -0.06537407 -0.32731258 -0.1229469
v -0.05568695 -0.32731258 -0.12294691
v -0.0776133 -0.32545745 -0.13185447
v -0.07216072 -0.32545745 -0.13185459
v -0.08764851 -0.3270806 -0.12406029
v -0.08764849 -0.32569003 -0.13074174
v -0.08909864 -0.32638514 -0.1274009
v -0.07761327 -0.32731294 -0.12294689
v -0.07216073 -0.32731294 -0.12294691
v -0.08281458 -0.32139718 -0.13100892
v -0.08136445 -0.31781566 -0.13026252
v 0.07318742 -0.45505797 -0.15885168
v 0.07318738 -0.45980048 -0.15983945
v -0.08281455 -0.32325267 -0.12210133
v -0.08136437 -0.31967139 -0.1213559
v -0.08329808 -0.32790803 -0.13236457
v -0.08329784 -0.34626728 -0.13618987
v -0.08329796 -0.33642524 -0.13413885
v -0.08329771 -0.34812218 -0.12728217
v -0.08329808 -0.32976299 -0.12345773
v -0.08329798 -0.33828073 -0.12523236
v -0.08329814 -0.36595016 -0.14028948
v -0.08329792 -0.35610836 -0.13823881
v -0.08329808 -0.36780506 -0.13138237
v -0.0832975 -0.35796386 -0.1293326
v -0.08329813 -0.38563412 -0.14438918
v -0.08329817 -0.37579149 -0.14233857
v -0.08329817 -0.38748842 -0.13548213
v -0.08329816 -0.37764746 -0.13343253
v -0.08329816 -0.40531712 -0.14848926
v -0.08329816 -0.39547485 -0.14643922
v -0.08329814 -0.40717142 -0.13958257
v -0.08329816 -0.39733082 -0.13753274
v -0.08329875 -0.42499995 -0.15258973
v -0.08329859 -0.41515791 -0.1505391
v -0.08329863 -0.42685592 -0.14368239
v -0.08329816 -0.41701376 -0.14163237
v -0.08329826 -0.44354206 -0.15645211
v -0.0832984 -0.434841 -0.15464034
v -0.08329826 -0.44539648 -0.14754504
v -0.08329831 -0.43669712 -0.14573204
v -0.08281463 -0.45467782 -0.1587719
v -0.08329816 -0.44995927 -0.15778949
v -0.07216094 -0.46529388 -0.15633645
v -0.08281463 -0.45653271 -0.149865
v -0.08329816 -0.45181584 -0.14888122
v -0.0813646 -0.45827949 -0.1595228
v -0.08136451 -0.46013522 -0.15061476
v -0.08329816 -0.32545745 -0.13185444
v -0.08329816 -0.3273127 -0.12294688
v 0.0731876 -0.31261771 -0.1280182
v 0.07318756 -0.3161447 -0.12991461
v 0.0731877 -0.31400919 -0.12133771
v 0.07318764 -0.31206005 -0.12441667
v 0.07318753 -0.32283425 -0.12201447
v 0.07318766 -0.31799995 -0.12100694
v 0.07318779 -0.34626704 -0.13618952
v 0.07318751 -0.33642536 -0.134139
v 0.07318784 -0.34812218 -0.12728223
v 0.0731875 -0.32976287 -0.12345775
v 0.07318753 -0.33828073 -0.1252323
v 0.07318747 -0.36595028 -0.14028951
v 0.07318773 -0.35610801 -0.13823887
v 0.07318763 -0.36780506 -0.13138231
v 0.07318817 -0.35796433 -0.12933263
v 0.07318748 -0.38563388 -0.14438924
v 0.0731875 -0.37579149 -0.14233848
v 0.0731875 -0.3874883 -0.13548216
v 0.07318747 -0.37764746 -0.13343283
v 0.07318747 -0.40531712 -0.14848941
v 0.07318747 -0.39547485 -0.14643925
v 0.07318748 -0.40717154 -0.13958257
v 0.0731875 -0.3973307 -0.1375328
v 0.07318688 -0.42500019 -0.15258991
v 0.07318703 -0.41515803 -0.15053936
v 0.07318708 -0.42685568 -0.14368233
v 0.07318742 -0.41701376 -0.14163261
v 0.07318747 -0.44354218 -0.15645179
v 0.07318741 -0.434841 -0.15464037
v 0.07318747 -0.44539672 -0.14754515
v 0.07318742 -0.43669712 -0.1457321
v 0.07318745 -0.44995939 -0.1577894
v 0.07318748 -0.3273127 -0.12294694
v 0.07318747 -0.45181548 -0.14888113
g Group26137
f 8 181 182 10
f 15 13 18 19
f 8 10 26 31
f 31 26 183 184
f 14 185 186 16
f 13 11 20 18
f 14 16 32 29
f 16 186 187 32
f 11 9 21 20
f 29 32 187 188
f 7 5 30 22
f 9 7 22 21
f 6 8 31 28
f 1 93 94 23
f 17 24 189 190
f 2 4 24 17
f 2 191 192 4
f 26 25 193 183
f 10 12 25 26
f 10 182 194 12
f 28 31 184 195
f 6 196 181 8
f 5 3 27 30
f 12 194 185 14
f 12 14 29 25
f 25 29 188 193
f 95 2 17 96
f 3 1 23 27
f 96 17 190 197
f 24 28 195 189
f 4 6 28 24
f 4 192 196 6
f 95 198 191 2
f 37 35 59 62
f 46 199 200 146
f 47 175 176 51
f 46 146 149 61
f 48 201 202 64
f 61 149 203 204
f 45 43 52 50
f 44 46 61 57
f 40 42 58 63
f 43 41 53 52
f 38 205 206 40
f 60 63 207 208
f 41 39 54 53
f 93 89 90 94
f 33 85 86 55
f 36 209 205 38
f 34 36 56 49
f 39 37 62 54
f 56 60 208 210
f 42 44 57 58
f 42 211 212 44
f 58 57 213 214
f 49 56 210 215
f 34 216 209 36
f 91 95 96 92
f 92 96 197 217
f 63 58 214 207
f 40 206 211 42
f 57 61 204 213
f 44 212 199 46
f 38 40 63 60
f 35 33 55 59
f 36 38 60 56
f 91 65 218 219
f 82 77 78 81
f 83 79 80 84
f 81 78 220 221
f 65 69 222 218
f 65 91 92 67
f 68 90 89 66
f 67 92 217 223
f 69 65 67 70
f 71 68 66 72
f 70 67 223 224
f 69 73 225 222
f 73 69 70 74
f 75 71 72 76
f 74 70 224 226
f 73 77 227 225
f 77 73 74 78
f 79 75 76 80
f 78 74 226 220
f 77 82 228 227
f 81 87 88 82
f 91 219 198 95
f 82 88 229 228
f 81 221 230 87
f 85 83 84 86
f 87 34 49 88
f 88 49 215 229
f 87 230 216 34
f 97 241 242 98
f 100 99 243 244
f 101 245 246 102
f 102 246 247 103
f 104 103 247 248
f 106 105 249 250
f 107 251 252 108
f 99 109 253 243
f 98 242 254 110
f 111 100 244 255
f 112 256 241 97
f 110 254 245 101
f 109 104 248 253
f 113 106 250 257
f 105 111 255 249
f 108 252 256 112
f 114 258 251 107
f 115 259 260 145
f 116 261 262 117
f 118 150 263 264
f 119 265 266 120
f 122 121 267 268
f 123 269 265 119
f 124 122 268 270
f 125 271 272 126
f 128 127 273 274
f 129 124 270 275
f 130 276 269 123
f 131 113 257 277
f 121 128 274 267
f 120 266 271 125
f 127 118 264 273
f 126 272 259 115
f 133 132 278 279
f 135 134 280 281
f 132 136 282 278
f 137 131 277 283
f 138 137 283 284
f 136 139 285 282
f 140 138 284 286
f 139 141 287 285
f 134 140 286 280
f 141 142 288 287
f 133 279 258 114
f 142 143 289 288
f 135 281 290 144
f 143 129 275 289
f 144 290 276 130
f 146 200 231 154
f 147 45 50 148
f 146 154 155 149
f 149 155 232 203
f 151 147 148 152
f 154 231 233 160
f 154 160 161 155
f 155 161 234 232
f 153 291 293 159
f 156 162 294 292
f 157 151 152 158
f 160 233 235 166
f 160 166 167 161
f 161 167 236 234
f 163 157 158 164
f 166 235 237 172
f 166 172 173 167
f 167 173 238 236
f 165 295 297 171
f 168 174 298 296
f 169 163 164 170
f 172 237 239 178
f 172 178 179 173
f 173 179 240 238
f 171 297 299 177
f 174 180 300 298
f 175 169 170 176
f 178 239 201 48
f 178 48 64 179
f 179 64 202 240
f 177 299 261 116
f 180 117 262 300
f 181 97 98 182
f 184 183 99 100
f 185 101 102 186
f 186 102 103 187
f 188 187 103 104
f 190 189 105 106
f 191 107 108 192
f 183 193 109 99
f 182 98 110 194
f 195 184 100 111
f 196 112 97 181
f 194 110 101 185
f 193 188 104 109
f 197 190 106 113
f 189 195 111 105
f 192 108 112 196
f 198 114 107 191
f 199 115 145 200
f 201 116 117 202
f 204 203 150 118
f 205 119 120 206
f 208 207 121 122
f 209 123 119 205
f 210 208 122 124
f 211 125 126 212
f 214 213 127 128
f 215 210 124 129
f 216 130 123 209
f 217 197 113 131
f 207 214 128 121
f 206 120 125 211
f 213 204 118 127
f 212 126 115 199
f 219 218 132 133
f 221 220 134 135
f 218 222 136 132
f 223 217 131 137
f 224 223 137 138
f 222 225 139 136
f 226 224 138 140
f 225 227 141 139
f 220 226 140 134
f 227 228 142 141
f 219 133 114 198
f 228 229 143 142
f 221 135 144 230
f 229 215 129 143
f 230 144 130 216
f 231 153 159 233
f 232 234 162 156
f 235 165 171 237
f 236 238 174 168
f 237 171 177 239
f 238 240 180 174
f 239 177 116 201
f 240 202 117 180
f 241 7 9 242
f 244 243 21 22
f 245 13 15 246
f 246 15 19 247
f 248 247 19 18
f 250 249 27 23
f 251 1 3 252
f 243 253 20 21
f 242 9 11 254
f 255 244 22 30
f 256 5 7 241
f 254 11 13 245
f 253 248 18 20
f 257 250 23 94
f 249 255 30 27
f 252 3 5 256
f 258 93 1 251
f 259 45 147 260
f 261 47 51 262
f 264 263 148 50
f 265 37 39 266
f 268 267 54 62
f 269 35 37 265
f 270 268 62 59
f 271 41 43 272
f 274 273 52 53
f 275 270 59 55
f 276 33 35 269
f 277 257 94 90
f 267 274 53 54
f 266 39 41 271
f 273 264 50 52
f 272 43 45 259
f 279 278 66 89
f 281 280 79 83
f 278 282 72 66
f 283 277 90 68
f 284 283 68 71
f 282 285 76 72
f 286 284 71 75
f 285 287 80 76
f 280 286 75 79
f 287 288 84 80
f 279 89 93 258
f 288 289 86 84
f 281 83 85 290
f 289 275 55 86
f 290 85 33 276
f 260 147 151 291
f 263 292 152 148
f 291 151 157 293
f 292 294 158 152
f 293 157 163 295
f 294 296 164 158
f 295 163 169 297
f 296 298 170 164
f 297 169 175 299
f 298 300 176 170
f 299 175 47 261
f 300 262 51 176
g Group16549
f 260 263 150 145
f 203 200 145 150
f 200 203 232 231
f 291 292 263 260
f 292 291 153 156
f 156 153 231 232
f 162 159 293 294
f 234 233 159 162
f 236 235 233 234
f 294 293 295 296
f 296 295 165 168
f 168 165 235 236
g Group46973
f 346 387 390 389
f 387 345 388 390
f 389 390 388 344
f 302 391 394 393
f 391 305 392 394
f 394 392 345 387
f 393 394 387 346
f 306 395 397 396
f 395 305 391 397
f 396 397 391 302
f 346 389 401 400
f 389 344 398 401
f 401 398 348 399
f 400 401 399 347
f 303 402 404 403
f 402 302 393 404
f 404 393 346 400
f 403 404 400 347
f 302 402 407 396
f 402 303 405 407
f 407 405 307 406
f 396 407 406 306
f 347 399 411 410
f 399 348 408 411
f 411 408 350 409
f 410 411 409 349
f 301 412 414 413
f 412 303 403 414
f 414 403 347 410
f 413 414 410 349
f 303 412 417 405
f 412 301 415 417
f 417 415 308 416
f 405 417 416 307
f 349 409 420 419
f 409 350 418 420
f 419 420 418 351
f 304 421 423 422
f 421 301 413 423
f 423 413 349 419
f 422 423 419 351
f 304 424 425 421
f 424 308 415 425
f 421 425 415 301
f 345 426 429 388
f 426 353 427 429
f 429 427 352 428
f 388 429 428 344
f 305 430 432 392
f 430 310 431 432
f 432 431 353 426
f 392 432 426 345
f 305 395 435 430
f 395 306 433 435
f 435 433 311 434
f 430 435 434 310
f 344 428 438 398
f 428 352 436 438
f 438 436 354 437
f 398 438 437 348
f 306 406 441 433
f 406 307 439 441
f 441 439 312 440
f 433 441 440 311
f 348 437 444 408
f 437 354 442 444
f 444 442 355 443
f 408 444 443 350
f 307 416 447 439
f 416 308 445 447
f 447 445 313 446
f 439 447 446 312
f 350 443 450 418
f 443 355 448 450
f 450 448 356 449
f 418 450 449 351
f 309 451 453 452
f 451 304 422 453
f 453 422 351 449
f 452 453 449 356
f 308 424 455 445
f 424 304 451 455
f 455 451 309 454
f 445 455 454 313
f 353 456 459 427
f 456 358 457 459
f 459 457 357 458
f 427 459 458 352
f 310 460 462 431
f 460 315 461 462
f 462 461 358 456
f 431 462 456 353
f 310 434 465 460
f 434 311 463 465
f 465 463 316 464
f 460 465 464 315
f 352 458 468 436
f 458 357 466 468
f 468 466 359 467
f 436 468 467 354
f 311 440 471 463
f 440 312 469 471
f 471 469 317 470
f 463 471 470 316
f 354 467 474 442
f 467 359 472 474
f 474 472 360 473
f 442 474 473 355
f 312 446 477 469
f 446 313 475 477
f 477 475 318 476
f 469 477 476 317
f 355 473 480 448
f 473 360 478 480
f 480 478 361 479
f 448 480 479 356
f 314 481 483 482
f 481 309 452 483
f 483 452 356 479
f 482 483 479 361
f 313 454 485 475
f 454 309 481 485
f 485 481 314 484
f 475 485 484 318
f 358 486 489 457
f 486 363 487 489
f 489 487 362 488
f 457 489 488 357
f 315 490 492 461
f 490 320 491 492
f 492 491 363 486
f 461 492 486 358
f 315 464 495 490
f 464 316 493 495
f 495 493 321 494
f 490 495 494 320
f 357 488 498 466
f 488 362 496 498
f 498 496 364 497
f 466 498 497 359
f 316 470 501 493
f 470 317 499 501
f 501 499 322 500
f 493 501 500 321
f 359 497 504 472
f 497 364 502 504
f 504 502 365 503
f 472 504 503 360
f 317 476 507 499
f 476 318 505 507
f 507 505 323 506
f 499 507 506 322
f 360 503 510 478
f 503 365 508 510
f 510 508 366 509
f 478 510 509 361
f 319 511 513 512
f 511 314 482 513
f 513 482 361 509
f 512 513 509 366
f 318 484 515 505
f 484 314 511 515
f 515 511 319 514
f 505 515 514 323
f 363 516 519 487
f 516 368 517 519
f 519 517 367 518
f 487 519 518 362
f 320 520 522 491
f 520 325 521 522
f 522 521 368 516
f 491 522 516 363
f 320 494 525 520
f 494 321 523 525
f 525 523 326 524
f 520 525 524 325
f 362 518 528 496
f 518 367 526 528
f 528 526 369 527
f 496 528 527 364
f 321 500 531 523
f 500 322 529 531
f 531 529 327 530
f 523 531 530 326
f 364 527 534 502
f 527 369 532 534
f 534 532 370 533
f 502 534 533 365
f 322 506 537 529
f 506 323 535 537
f 537 535 328 536
f 529 537 536 327
f 365 533 540 508
f 533 370 538 540
f 540 538 371 539
f 508 540 539 366
f 324 541 543 542
f 541 319 512 543
f 543 512 366 539
f 542 543 539 371
f 323 514 545 535
f 514 319 541 545
f 545 541 324 544
f 535 545 544 328
f 368 546 549 517
f 546 373 547 549
f 549 547 372 548
f 517 549 548 367
f 325 550 552 521
f 550 330 551 552
f 552 551 373 546
f 521 552 546 368
f 325 524 555 550
f 524 326 553 555
f 555 553 331 554
f 550 555 554 330
f 367 548 558 526
f 548 372 556 558
f 558 556 374 557
f 526 558 557 369
f 326 530 561 553
f 530 327 559 561
f 561 559 332 560
f 553 561 560 331
f 369 557 564 532
f 557 374 562 564
f 564 562 375 563
f 532 564 563 370
f 327 536 567 559
f 536 328 565 567
f 567 565 333 566
f 559 567 566 332
f 370 563 570 538
f 563 375 568 570
f 570 568 376 569
f 538 570 569 371
f 329 571 573 572
f 571 324 542 573
f 573 542 371 569
f 572 573 569 376
f 328 544 575 565
f 544 324 571 575
f 575 571 329 574
f 565 575 574 333
f 373 576 579 547
f 576 378 577 579
f 579 577 377 578
f 547 579 578 372
f 330 580 582 551
f 580 335 581 582
f 582 581 378 576
f 551 582 576 373
f 330 554 585 580
f 554 331 583 585
f 585 583 336 584
f 580 585 584 335
f 372 578 588 556
f 578 377 586 588
f 588 586 379 587
f 556 588 587 374
f 331 560 591 583
f 560 332 589 591
f 591 589 337 590
f 583 591 590 336
f 374 587 594 562
f 587 379 592 594
f 594 592 380 593
f 562 594 593 375
f 332 566 597 589
f 566 333 595 597
f 597 595 338 596
f 589 597 596 337
f 375 593 600 568
f 593 380 598 600
f 600 598 381 599
f 568 600 599 376
f 334 601 603 602
f 601 329 572 603
f 603 572 376 599
f 602 603 599 381
f 333 574 605 595
f 574 329 601 605
f 605 601 334 604
f 595 605 604 338
f 378 606 609 577
f 606 383 607 609
f 609 607 382 608
f 577 609 608 377
f 340 610 613 612
f 610 341 611 613
f 613 611 382 607
f 612 613 607 383
f 335 614 615 581
f 614 340 612 615
f 615 612 383 606
f 581 615 606 378
f 335 584 617 614
f 584 336 616 617
f 617 616 341 610
f 614 617 610 340
f 377 608 620 586
f 608 382 618 620
f 620 618 384 619
f 586 620 619 379
f 341 621 623 611
f 621 342 622 623
f 623 622 384 618
f 611 623 618 382
f 336 590 625 616
f 590 337 624 625
f 625 624 342 621
f 616 625 621 341
f 379 619 628 592
f 619 384 626 628
f 628 626 385 627
f 592 628 627 380
f 342 629 631 622
f 629 343 630 631
f 631 630 385 626
f 622 631 626 384
f 337 596 633 624
f 596 338 632 633
f 633 632 343 629
f 624 633 629 342
f 380 627 636 598
f 627 385 634 636
f 636 634 386 635
f 598 636 635 381
f 339 637 639 638
f 637 334 602 639
f 639 602 381 635
f 638 639 635 386
f 343 640 641 630
f 640 339 638 641
f 641 638 386 634
f 630 641 634 385
f 338 604 642 632
f 604 334 637 642
f 642 637 339 640
f 632 642 640 343
g Group18293
f 776 837 840 839
f 837 815 838 840
f 839 840 838 816
f 643 841 845 844
f 841 777 842 845
f 845 842 776 843
f 844 845 843 700
f 777 846 848 842
f 846 817 847 848
f 848 847 815 837
f 842 848 837 776
f 777 849 851 846
f 849 818 850 851
f 846 851 850 817
f 700 852 856 855
f 852 819 853 856
f 856 853 820 854
f 855 856 854 703
f 644 857 859 858
f 857 643 844 859
f 859 844 700 855
f 858 859 855 703
f 643 857 863 862
f 857 644 860 863
f 863 860 821 861
f 862 863 861 822
f 703 854 867 866
f 854 820 864 867
f 867 864 823 865
f 866 867 865 705
f 645 868 870 869
f 868 644 858 870
f 870 858 703 866
f 869 870 866 705
f 653 871 875 874
f 871 654 872 875
f 875 872 706 873
f 874 875 873 704
f 644 868 878 860
f 868 645 876 878
f 878 876 824 877
f 860 878 877 821
f 705 865 882 881
f 865 823 879 882
f 882 879 825 880
f 881 882 880 707
f 646 883 885 884
f 883 645 869 885
f 885 869 705 881
f 884 885 881 707
f 654 886 889 872
f 886 655 887 889
f 889 887 708 888
f 872 889 888 706
f 645 883 892 876
f 883 646 890 892
f 892 890 826 891
f 876 892 891 824
f 707 880 896 895
f 880 825 893 896
f 896 893 827 894
f 895 896 894 709
f 647 897 899 898
f 897 646 884 899
f 899 884 707 895
f 898 899 895 709
f 655 900 903 887
f 900 656 901 903
f 903 901 710 902
f 887 903 902 708
f 646 897 906 890
f 897 647 904 906
f 906 904 828 905
f 890 906 905 826
f 709 894 910 909
f 894 827 907 910
f 910 907 829 908
f 909 910 908 711
f 648 911 913 912
f 911 647 898 913
f 913 898 709 909
f 912 913 909 711
f 656 914 917 901
f 914 657 915 917
f 917 915 712 916
f 901 917 916 710
f 647 911 920 904
f 911 648 918 920
f 920 918 830 919
f 904 920 919 828
f 711 908 924 923
f 908 829 921 924
f 924 921 831 922
f 923 924 922 713
f 649 925 927 926
f 925 648 912 927
f 927 912 711 923
f 926 927 923 713
f 657 928 931 915
f 928 658 929 931
f 931 929 714 930
f 915 931 930 712
f 648 925 934 918
f 925 649 932 934
f 934 932 832 933
f 918 934 933 830
f 713 922 938 937
f 922 831 935 938
f 938 935 833 936
f 937 938 936 758
f 834 939 943 942
f 939 759 940 943
f 943 940 758 941
f 942 943 941 835
f 650 944 947 946
f 944 834 942 947
f 947 942 835 945
f 946 947 945 715
f 649 948 951 932
f 948 759 949 951
f 951 949 836 950
f 932 951 950 832
f 702 952 956 955
f 952 717 953 956
f 956 953 779 954
f 955 956 954 775
f 651 957 960 959
f 957 660 958 960
f 960 958 717 952
f 959 960 952 702
f 651 961 964 957
f 961 778 962 964
f 964 962 780 963
f 957 964 963 660
f 701 965 969 968
f 965 716 966 969
f 969 966 718 967
f 968 969 967 704
f 662 970 972 971
f 970 653 874 972
f 972 874 704 967
f 971 972 967 718
f 652 973 976 975
f 973 653 970 976
f 976 970 662 974
f 975 976 974 661
f 714 977 981 980
f 977 720 978 981
f 981 978 761 979
f 980 981 979 757
f 659 982 985 984
f 982 650 946 985
f 985 946 715 983
f 984 985 983 719
f 658 986 988 929
f 986 663 987 988
f 988 987 720 977
f 929 988 977 714
f 658 989 992 986
f 989 760 990 992
f 992 990 762 991
f 986 992 991 663
f 717 993 996 953
f 993 722 994 996
f 996 994 781 995
f 953 996 995 779
f 660 997 999 958
f 997 665 998 999
f 999 998 722 993
f 958 999 993 717
f 660 963 1002 997
f 963 780 1000 1002
f 1002 1000 782 1001
f 997 1002 1001 665
f 716 1003 1006 966
f 1003 721 1004 1006
f 1006 1004 723 1005
f 966 1006 1005 718
f 667 1007 1009 1008
f 1007 662 971 1009
f 1009 971 718 1005
f 1008 1009 1005 723
f 661 974 1012 1011
f 974 662 1007 1012
f 1012 1007 667 1010
f 1011 1012 1010 666
f 720 1013 1016 978
f 1013 725 1014 1016
f 1016 1014 763 1015
f 978 1016 1015 761
f 664 1017 1020 1019
f 1017 659 984 1020
f 1020 984 719 1018
f 1019 1020 1018 724
f 663 1021 1023 987
f 1021 668 1022 1023
f 1023 1022 725 1013
f 987 1023 1013 720
f 663 991 1026 1021
f 991 762 1024 1026
f 1026 1024 764 1025
f 1021 1026 1025 668
f 722 1027 1030 994
f 1027 727 1028 1030
f 1030 1028 783 1029
f 994 1030 1029 781
f 665 1031 1033 998
f 1031 670 1032 1033
f 1033 1032 727 1027
f 998 1033 1027 722
f 665 1001 1036 1031
f 1001 782 1034 1036
f 1036 1034 784 1035
f 1031 1036 1035 670
f 721 1037 1040 1004
f 1037 726 1038 1040
f 1040 1038 728 1039
f 1004 1040 1039 723
f 672 1041 1043 1042
f 1041 667 1008 1043
f 1043 1008 723 1039
f 1042 1043 1039 728
f 666 1010 1046 1045
f 1010 667 1041 1046
f 1046 1041 672 1044
f 1045 1046 1044 671
f 725 1047 1050 1014
f 1047 730 1048 1050
f 1050 1048 765 1049
f 1014 1050 1049 763
f 669 1051 1054 1053
f 1051 664 1019 1054
f 1054 1019 724 1052
f 1053 1054 1052 729
f 668 1055 1057 1022
f 1055 673 1056 1057
f 1057 1056 730 1047
f 1022 1057 1047 725
f 668 1025 1060 1055
f 1025 764 1058 1060
f 1060 1058 766 1059
f 1055 1060 1059 673
f 727 1061 1064 1028
f 1061 732 1062 1064
f 1064 1062 785 1063
f 1028 1064 1063 783
f 670 1065 1067 1032
f 1065 675 1066 1067
f 1067 1066 732 1061
f 1032 1067 1061 727
f 670 1035 1070 1065
f 1035 784 1068 1070
f 1070 1068 786 1069
f 1065 1070 1069 675
f 726 1071 1074 1038
f 1071 731 1072 1074
f 1074 1072 733 1073
f 1038 1074 1073 728
f 677 1075 1077 1076
f 1075 672 1042 1077
f 1077 1042 728 1073
f 1076 1077 1073 733
f 671 1044 1080 1079
f 1044 672 1075 1080
f 1080 1075 677 1078
f 1079 1080 1078 676
f 730 1081 1084 1048
f 1081 735 1082 1084
f 1084 1082 767 1083
f 1048 1084 1083 765
f 674 1085 1088 1087
f 1085 669 1053 1088
f 1088 1053 729 1086
f 1087 1088 1086 734
f 673 1089 1091 1056
f 1089 678 1090 1091
f 1091 1090 735 1081
f 1056 1091 1081 730
f 673 1059 1094 1089
f 1059 766 1092 1094
f 1094 1092 768 1093
f 1089 1094 1093 678
f 732 1095 1098 1062
f 1095 737 1096 1098
f 1098 1096 787 1097
f 1062 1098 1097 785
f 675 1099 1101 1066
f 1099 680 1100 1101
f 1101 1100 737 1095
f 1066 1101 1095 732
f 675 1069 1104 1099
f 1069 786 1102 1104
f 1104 1102 788 1103
f 1099 1104 1103 680
f 731 1105 1108 1072
f 1105 736 1106 1108
f 1108 1106 738 1107
f 1072 1108 1107 733
f 682 1109 1111 1110
f 1109 677 1076 1111
f 1111 1076 733 1107
f 1110 1111 1107 738
f 676 1078 1114 1113
f 1078 677 1109 1114
f 1114 1109 682 1112
f 1113 1114 1112 681
f 735 1115 1118 1082
f 1115 740 1116 1118
f 1118 1116 769 1117
f 1082 1118 1117 767
f 679 1119 1122 1121
f 1119 674 1087 1122
f 1122 1087 734 1120
f 1121 1122 1120 739
f 678 1123 1125 1090
f 1123 683 1124 1125
f 1125 1124 740 1115
f 1090 1125 1115 735
f 678 1093 1128 1123
f 1093 768 1126 1128
f 1128 1126 770 1127
f 1123 1128 1127 683
f 737 1129 1132 1096
f 1129 742 1130 1132
f 1132 1130 789 1131
f 1096 1132 1131 787
f 680 1133 1135 1100
f 1133 685 1134 1135
f 1135 1134 742 1129
f 1100 1135 1129 737
f 680 1103 1138 1133
f 1103 788 1136 1138
f 1138 1136 790 1137
f 1133 1138 1137 685
f 736 1139 1142 1106
f 1139 741 1140 1142
f 1142 1140 743 1141
f 1106 1142 1141 738
f 687 1143 1145 1144
f 1143 682 1110 1145
f 1145 1110 738 1141
f 1144 1145 1141 743
f 681 1112 1148 1147
f 1112 682 1143 1148
f 1148 1143 687 1146
f 1147 1148 1146 686
f 740 1149 1152 1116
f 1149 745 1150 1152
f 1152 1150 771 1151
f 1116 1152 1151 769
f 684 1153 1156 1155
f 1153 679 1121 1156
f 1156 1121 739 1154
f 1155 1156 1154 744
f 683 1157 1159 1124
f 1157 692 1158 1159
f 1159 1158 745 1149
f 1124 1159 1149 740
f 683 1127 1162 1157
f 1127 770 1160 1162
f 1162 1160 772 1161
f 1157 1162 1161 692
f 742 1163 1166 1130
f 1163 793 1164 1166
f 1166 1164 794 1165
f 1130 1166 1165 789
f 795 1167 1171 1170
f 1167 792 1168 1171
f 1171 1168 791 1169
f 1170 1171 1169 793
f 685 1172 1173 1134
f 1172 795 1170 1173
f 1173 1170 793 1163
f 1134 1173 1163 742
f 685 1137 1176 1172
f 1137 790 1174 1176
f 1176 1174 796 1175
f 1172 1176 1175 795
f 741 1177 1180 1140
f 1177 797 1178 1180
f 1180 1178 798 1179
f 1140 1180 1179 743
f 693 1181 1185 1184
f 1181 694 1182 1185
f 1185 1182 747 1183
f 1184 1185 1183 746
f 686 1146 1189 1188
f 1146 687 1186 1189
f 1189 1186 799 1187
f 1188 1189 1187 800
f 743 1179 1193 1192
f 1179 798 1190 1193
f 1193 1190 801 1191
f 1192 1193 1191 748
f 688 1194 1196 1195
f 1194 687 1144 1196
f 1196 1144 743 1192
f 1195 1196 1192 748
f 694 1197 1200 1182
f 1197 695 1198 1200
f 1200 1198 749 1199
f 1182 1200 1199 747
f 687 1194 1203 1186
f 1194 688 1201 1203
f 1203 1201 802 1202
f 1186 1203 1202 799
f 748 1191 1207 1206
f 1191 801 1204 1207
f 1207 1204 803 1205
f 1206 1207 1205 750
f 689 1208 1210 1209
f 1208 688 1195 1210
f 1210 1195 748 1206
f 1209 1210 1206 750
f 695 1211 1214 1198
f 1211 696 1212 1214
f 1214 1212 751 1213
f 1198 1214 1213 749
f 688 1208 1217 1201
f 1208 689 1215 1217
f 1217 1215 804 1216
f 1201 1217 1216 802
f 750 1205 1221 1220
f 1205 803 1218 1221
f 1221 1218 805 1219
f 1220 1221 1219 752
f 690 1222 1224 1223
f 1222 689 1209 1224
f 1224 1209 750 1220
f 1223 1224 1220 752
f 696 1225 1228 1212
f 1225 697 1226 1228
f 1228 1226 753 1227
f 1212 1228 1227 751
f 689 1222 1231 1215
f 1222 690 1229 1231
f 1231 1229 806 1230
f 1215 1231 1230 804
f 752 1219 1235 1234
f 1219 805 1232 1235
f 1235 1232 807 1233
f 1234 1235 1233 754
f 691 1236 1238 1237
f 1236 690 1223 1238
f 1238 1223 752 1234
f 1237 1238 1234 754
f 697 1239 1242 1226
f 1239 698 1240 1242
f 1242 1240 755 1241
f 1226 1242 1241 753
f 690 1236 1245 1229
f 1236 691 1243 1245
f 1245 1243 808 1244
f 1229 1245 1244 806
f 754 1233 1249 1248
f 1233 807 1246 1249
f 1249 1246 809 1247
f 1248 1249 1247 745
f 692 1250 1251 1158
f 1250 691 1237 1251
f 1251 1237 754 1248
f 1158 1251 1248 745
f 698 1252 1255 1240
f 1252 699 1253 1255
f 1255 1253 756 1254
f 1240 1255 1254 755
f 691 1250 1258 1243
f 1250 692 1256 1258
f 1258 1256 810 1257
f 1243 1258 1257 808
f 745 1247 1261 1150
f 1247 809 1259 1261
f 1261 1259 811 1260
f 1150 1261 1260 771
f 774 1262 1266 1265
f 1262 812 1263 1266
f 1266 1263 813 1264
f 1265 1266 1264 773
f 699 1267 1269 1253
f 1267 774 1265 1269
f 1269 1265 773 1268
f 1253 1269 1268 756
f 692 1161 1272 1256
f 1161 772 1270 1272
f 1272 1270 814 1271
f 1256 1272 1271 810
f 758 936 1274 941
f 936 833 1273 1274
f 941 1274 1273 835
f 759 948 1275 940
f 948 649 926 1275
f 1275 926 713 937
f 940 1275 937 758
f 759 939 1277 949
f 939 834 1276 1277
f 949 1277 1276 836
f 757 979 1280 1279
f 979 761 1278 1280
f 1280 1278 719 983
f 1279 1280 983 715
f 760 1281 1283 990
f 1281 650 982 1283
f 1283 982 659 1282
f 990 1283 1282 762
f 761 1015 1285 1278
f 1015 763 1284 1285
f 1285 1284 724 1018
f 1278 1285 1018 719
f 762 1282 1287 1024
f 1282 659 1017 1287
f 1287 1017 664 1286
f 1024 1287 1286 764
f 763 1049 1289 1284
f 1049 765 1288 1289
f 1289 1288 729 1052
f 1284 1289 1052 724
f 764 1286 1291 1058
f 1286 664 1051 1291
f 1291 1051 669 1290
f 1058 1291 1290 766
f 765 1083 1293 1288
f 1083 767 1292 1293
f 1293 1292 734 1086
f 1288 1293 1086 729
f 766 1290 1295 1092
f 1290 669 1085 1295
f 1295 1085 674 1294
f 1092 1295 1294 768
f 767 1117 1297 1292
f 1117 769 1296 1297
f 1297 1296 739 1120
f 1292 1297 1120 734
f 768 1294 1299 1126
f 1294 674 1119 1299
f 1299 1119 679 1298
f 1126 1299 1298 770
f 769 1151 1301 1296
f 1151 771 1300 1301
f 1301 1300 744 1154
f 1296 1301 1154 739
f 770 1298 1303 1160
f 1298 679 1153 1303
f 1303 1153 684 1302
f 1160 1303 1302 772
f 771 1260 1306 1300
f 1260 811 1304 1306
f 1306 1304 813 1305
f 1300 1306 1305 744
f 816 1307 1311 1310
f 1307 775 1308 1311
f 1311 1308 701 1309
f 1310 1311 1309 819
f 772 1302 1314 1270
f 1302 684 1312 1314
f 1314 1312 812 1313
f 1270 1314 1313 814
f 776 839 1315 843
f 839 816 1310 1315
f 1315 1310 819 852
f 843 1315 852 700
f 836 1276 1317 1316
f 1276 834 944 1317
f 1317 944 650 1281
f 1316 1317 1281 760
f 777 841 1319 849
f 841 643 862 1319
f 1319 862 822 1318
f 849 1319 1318 818
f 775 954 1321 1308
f 954 779 1320 1321
f 1321 1320 716 965
f 1308 1321 965 701
f 778 1322 1324 962
f 1322 652 975 1324
f 1324 975 661 1323
f 962 1324 1323 780
f 779 995 1326 1320
f 995 781 1325 1326
f 1326 1325 721 1003
f 1320 1326 1003 716
f 780 1323 1328 1000
f 1323 661 1011 1328
f 1328 1011 666 1327
f 1000 1328 1327 782
f 781 1029 1330 1325
f 1029 783 1329 1330
f 1330 1329 726 1037
f 1325 1330 1037 721
f 782 1327 1332 1034
f 1327 666 1045 1332
f 1332 1045 671 1331
f 1034 1332 1331 784
f 783 1063 1334 1329
f 1063 785 1333 1334
f 1334 1333 731 1071
f 1329 1334 1071 726
f 784 1331 1336 1068
f 1331 671 1079 1336
f 1336 1079 676 1335
f 1068 1336 1335 786
f 785 1097 1338 1333
f 1097 787 1337 1338
f 1338 1337 736 1105
f 1333 1338 1105 731
f 786 1335 1340 1102
f 1335 676 1113 1340
f 1340 1113 681 1339
f 1102 1340 1339 788
f 787 1131 1342 1337
f 1131 789 1341 1342
f 1342 1341 741 1139
f 1337 1342 1139 736
f 788 1339 1344 1136
f 1339 681 1147 1344
f 1344 1147 686 1343
f 1136 1344 1343 790
f 789 1165 1346 1341
f 1165 794 1345 1346
f 1346 1345 797 1177
f 1341 1346 1177 741
f 792 1347 1349 1168
f 1347 693 1184 1349
f 1349 1184 746 1348
f 1168 1349 1348 791
f 790 1343 1351 1174
f 1343 686 1188 1351
f 1351 1188 800 1350
f 1174 1351 1350 796
f 793 1169 1353 1164
f 1169 791 1352 1353
f 1164 1353 1352 794
f 833 1354 1355 1273
f 1354 757 1279 1355
f 1355 1279 715 945
f 1273 1355 945 835
f 795 1175 1357 1167
f 1175 796 1356 1357
f 1167 1357 1356 792
f 797 1358 1360 1178
f 1358 746 1183 1360
f 1360 1183 747 1359
f 1178 1360 1359 798
f 800 1187 1363 1362
f 1187 799 1361 1363
f 1363 1361 694 1181
f 1362 1363 1181 693
f 798 1359 1365 1190
f 1359 747 1199 1365
f 1365 1199 749 1364
f 1190 1365 1364 801
f 799 1202 1367 1361
f 1202 802 1366 1367
f 1367 1366 695 1197
f 1361 1367 1197 694
f 801 1364 1369 1204
f 1364 749 1213 1369
f 1369 1213 751 1368
f 1204 1369 1368 803
f 802 1216 1371 1366
f 1216 804 1370 1371
f 1371 1370 696 1211
f 1366 1371 1211 695
f 803 1368 1373 1218
f 1368 751 1227 1373
f 1373 1227 753 1372
f 1218 1373 1372 805
f 804 1230 1375 1370
f 1230 806 1374 1375
f 1375 1374 697 1225
f 1370 1375 1225 696
f 805 1372 1377 1232
f 1372 753 1241 1377
f 1377 1241 755 1376
f 1232 1377 1376 807
f 806 1244 1379 1374
f 1244 808 1378 1379
f 1379 1378 698 1239
f 1374 1379 1239 697
f 807 1376 1381 1246
f 1376 755 1254 1381
f 1381 1254 756 1380
f 1246 1381 1380 809
f 808 1257 1383 1378
f 1257 810 1382 1383
f 1383 1382 699 1252
f 1378 1383 1252 698
f 809 1380 1385 1259
f 1380 756 1268 1385
f 1385 1268 773 1384
f 1259 1385 1384 811
f 812 1312 1386 1263
f 1312 684 1155 1386
f 1386 1155 744 1305
f 1263 1386 1305 813
f 810 1271 1388 1382
f 1271 814 1387 1388
f 1388 1387 774 1267
f 1382 1388 1267 699
f 811 1384 1389 1304
f 1384 773 1264 1389
f 1304 1389 1264 813
f 814 1313 1390 1387
f 1313 812 1262 1390
f 1387 1390 1262 774
f 794 1352 1391 1345
f 1352 791 1348 1391
f 1391 1348 746 1358
f 1345 1391 1358 797
f 796 1350 1392 1356
f 1350 800 1362 1392
f 1392 1362 693 1347
f 1356 1392 1347 792
f 815 1393 1394 838
f 1393 702 955 1394
f 1394 955 775 1307
f 838 1394 1307 816
f 817 1395 1396 847
f 1395 651 959 1396
f 1396 959 702 1393
f 847 1396 1393 815
f 817 850 1398 1395
f 850 818 1397 1398
f 1398 1397 778 961
f 1395 1398 961 651
f 819 1309 1400 853
f 1309 701 968 1400
f 1400 968 704 1399
f 853 1400 1399 820
f 822 861 1403 1402
f 861 821 1401 1403
f 1403 1401 653 973
f 1402 1403 973 652
f 820 1399 1405 864
f 1399 704 873 1405
f 1405 873 706 1404
f 864 1405 1404 823
f 821 877 1407 1401
f 877 824 1406 1407
f 1407 1406 654 871
f 1401 1407 871 653
f 823 1404 1409 879
f 1404 706 888 1409
f 1409 888 708 1408
f 879 1409 1408 825
f 824 891 1411 1406
f 891 826 1410 1411
f 1411 1410 655 886
f 1406 1411 886 654
f 825 1408 1413 893
f 1408 708 902 1413
f 1413 902 710 1412
f 893 1413 1412 827
f 826 905 1415 1410
f 905 828 1414 1415
f 1415 1414 656 900
f 1410 1415 900 655
f 827 1412 1417 907
f 1412 710 916 1417
f 1417 916 712 1416
f 907 1417 1416 829
f 828 919 1419 1414
f 919 830 1418 1419
f 1419 1418 657 914
f 1414 1419 914 656
f 829 1416 1421 921
f 1416 712 930 1421
f 1421 930 714 1420
f 921 1421 1420 831
f 830 933 1423 1418
f 933 832 1422 1423
f 1423 1422 658 928
f 1418 1423 928 657
f 831 1420 1424 935
f 1420 714 980 1424
f 1424 980 757 1354
f 935 1424 1354 833
f 818 1318 1425 1397
f 1318 822 1402 1425
f 1425 1402 652 1322
f 1397 1425 1322 778
f 832 950 1426 1422
f 950 836 1316 1426
f 1426 1316 760 989
f 1422 1426 989 658

 