# File exported by ZBrush version 2021
# www.zbrush.com
#Vertex Count 446
#Face Count 472
#Auto scale x=1.000000 y=1.000000 z=1.000000
#Auto offset x=0.000000 y=0.000000 z=0.000000
v -0.11704634 0.57632607 0.10859268
v -0.05614672 0.57650005 0.11247168
v 0.00424651 0.57661604 0.11271968
v 0.06452152 0.57640707 0.11256669
v 0.12464714 0.57618004 0.10878868
v -0.11899777 0.44448807 0.11260868
v -0.05830564 0.44471707 0.11305968
v 0.001682 0.44572308 0.11329469
v 0.06154296 0.44643709 0.11298169
v 0.12180797 0.44726508 0.11243069
v -0.12194339 0.28363508 0.02457368
v -0.06200304 0.2866401 0.02277569
v -0.0028478 0.2878651 0.02275969
v 0.05609026 0.2891491 0.02292868
v 0.11605754 0.2869471 0.02488468
v -0.12372561 0.12922908 -0.06134331
v -0.06403347 0.12857107 -0.06539529
v -0.00535004 0.12987308 -0.06605529
v 0.05317932 0.13151608 -0.0652233
v 0.1129115 0.13347007 -0.0610643
v -0.12166982 -0.05322291 -0.09235832
v -0.06211784 -0.05414091 -0.0981673
v -0.00359762 -0.05385391 -0.0991373
v 0.05471171 -0.05297191 -0.0977813
v 0.11435174 -0.05134891 -0.0918053
v -0.12035682 -0.20297192 -0.05842131
v -0.06023643 -0.20730392 -0.06192731
v -0.00124108 -0.20874792 -0.06230929
v 0.05748072 -0.20914992 -0.06139031
v 0.11707949 -0.20602892 -0.0575813
v -0.11991647 -0.3337959 0.02102369
v -0.05956132 -0.33653891 0.01984569
v -0.00022449 -0.33750191 0.01995469
v 0.05886191 -0.33845192 0.02022768
v 0.11840662 -0.33613589 0.02155968
v -0.12040663 -0.4577279 0.09995569
v -0.05976041 -0.45800089 0.10010668
v 0.00031921 -0.45937392 0.10044369
v 0.06022536 -0.46015492 0.10020269
v 0.12063938 -0.46107891 0.10008569
v -0.1217267 -0.5809459 0.08937569
v -0.06122823 -0.58085596 0.09243668
v -0.0010598 -0.58106195 0.09254768
v 0.05902729 -0.58127892 0.09231868
v 0.1194047 -0.58162593 0.08928369
v 0.11548621 -0.05170591 -0.10578131
v 0.11807718 -0.21127292 -0.07047429
v 0.05799695 -0.21448291 -0.07428529
v 0.05533996 -0.05334091 -0.1118083
v -0.05589349 0.57633703 0.09870769
v -0.05830765 0.44827309 0.09924669
v -0.11892011 0.4479641 0.09876869
v -0.11656809 0.57606506 0.09483769
v 0.00422402 0.57656008 0.09895369
v 0.00157104 0.44936308 0.09951369
v -0.00136594 -0.21417392 -0.07517331
v -0.00369204 -0.05423891 -0.11319232
v 0.00022504 -0.46310189 0.08640869
v -0.00108041 -0.58017891 0.07880969
v -0.06103969 -0.57990592 0.07870468
v -0.05977517 -0.46167391 0.08605068
v 0.06422955 0.57628607 0.09880268
v 0.06138455 0.45000609 0.09918269
v 0.12414419 0.57598805 0.09503269
v 0.12164287 0.45075708 0.09861169
v -0.05999042 -0.3439829 0.00826668
v -0.12037318 -0.46133691 0.08587868
v -0.12053069 -0.34118789 0.00942069
v 0.12054374 -0.4646269 0.08600468
v 0.11904469 -0.58057093 0.07556268
v 0.05880926 -0.58030492 0.07858769
v 0.06011295 -0.46378889 0.08614368
v -0.06239737 0.29340007 0.01078668
v -0.1224865 0.2903631 0.01257368
v -0.00305633 0.29465609 0.01078668
v 0.11888366 -0.34345892 0.00990867
v 0.05902952 -0.34585592 0.00861868
v 0.05619317 0.29589709 0.01092669
v 0.11644631 0.29364508 0.01286369
v -0.0609324 -0.21269892 -0.07479029
v -0.06289062 -0.05453391 -0.1122083
v -0.06467747 0.13327008 -0.07853531
v -0.12468462 0.13390708 -0.07446831
v -0.00552646 0.13458408 -0.07919731
v -0.00040866 -0.34498789 0.00840169
v 0.05357269 0.13618807 -0.07838031
v 0.11374086 0.13810107 -0.07421231
v -0.1214462 -0.20831592 -0.0712673
v -0.12288023 -0.05361891 -0.10635331
v -0.12137624 -0.57992196 0.07565368
v 0.05786737 0.49606174 0.10070598
v 0.06659574 0.48980003 0.10083714
v 0.05912673 0.49710986 0.09392698
v 0.06726258 0.49154675 0.09355302
v 0.061633 0.49938193 0.08932562
v 0.06811968 0.49672392 0.08768905
v 0.05938378 0.50597113 0.08749665
v 0.06765196 0.50495308 0.08382448
v 0.0584377 0.51571506 0.08644411
v 0.06733789 0.51537436 0.08227767
v 0.05464071 0.52640044 0.09282901
v 0.0599395 0.52542543 0.08709277
v 0.05242834 0.51601481 0.09261983
v 0.06019564 0.53454554 0.09315
v 0.06256236 0.53194588 0.0886497
v 0.06824753 0.52581578 0.0833912
v 0.07838331 0.51502651 0.0807213
v 0.07869876 0.5261029 0.08205573
v 0.08851937 0.50435793 0.08383798
v 0.07806851 0.50401723 0.08251431
v 0.08942871 0.5147438 0.0822924
v 0.08911495 0.52522116 0.08340482
v 0.06918808 0.53415876 0.08691203
v 0.07895261 0.53508734 0.08604347
v 0.06863524 0.53961616 0.09255531
v 0.07912332 0.54122346 0.09209813
v 0.08864671 0.53360354 0.08692467
v 0.08950267 0.53902095 0.09256941
v 0.07918723 0.54363381 0.09972026
v 0.09016833 0.54106706 0.09977398
v 0.06807757 0.54169809 0.09975993
v 0.05900593 0.5359447 0.09987811
v 0.05274294 0.5272175 0.10005945
v 0.05017541 0.51623904 0.10028696
v 0.05404519 0.50553715 0.09326225
v 0.05211259 0.5051307 0.10051727
v 0.07781418 0.49520492 0.08687147
v 0.07764198 0.48932588 0.09317575
v 0.07757692 0.48723277 0.1008909
v 0.08813003 0.49095097 0.09356714
v 0.0886865 0.48916965 0.10085183
v 0.09775867 0.49492338 0.1007324
v 0.10402115 0.50365042 0.10055187
v 0.09656982 0.49604198 0.09395143
v 0.10212456 0.50416594 0.09329353
v 0.08757778 0.49616843 0.08770223
v 0.09420348 0.49845251 0.08934705
v 0.09682685 0.50490307 0.0875213
v 0.0983285 0.51457667 0.08647057
v 0.10433683 0.51453357 0.092654
v 0.09889725 0.53480595 0.09990538
v 0.10658865 0.51462823 0.10032436
v 0.10465147 0.52573621 0.10009385
v 0.10272007 0.52502918 0.09286095
v 0.09738204 0.52435648 0.08711727
v 0.0951328 0.53101617 0.08867159
v 0.09763821 0.53347671 0.09317438
v 0.06560892 0.4875887 0.10021764
v 0.06627573 0.48933503 0.09293362
v 0.05736942 0.49543765 0.09332187
v 0.05611009 0.4943892 0.10010148
v 0.0911555 0.54325133 0.09906418
v 0.07925581 0.54602164 0.09897913
v 0.0791924 0.54360997 0.09135749
v 0.09048991 0.54120522 0.09185883
v 0.06721761 0.54393506 0.0990481
v 0.06777478 0.54185277 0.09184387
v 0.05734579 0.53768789 0.09920252
v 0.05853599 0.53628844 0.09247423
v 0.05054446 0.52818989 0.09937392
v 0.05244226 0.52737414 0.09214344
v 0.05002657 0.51606911 0.09192715
v 0.04777365 0.51629239 0.09959438
v 0.04986153 0.50425726 0.09987016
v 0.05179411 0.5046643 0.09261435
v 0.07750869 0.48481753 0.10024975
v 0.07757336 0.48691013 0.09253422
v 0.0895468 0.48690518 0.10023377
v 0.08899038 0.48868697 0.09294933
v 0.10432285 0.50316548 0.09264929
v 0.09822926 0.49427178 0.09334902
v 0.09941809 0.49315306 0.10013033
v 0.1062194 0.5026496 0.09990748
v 0.10690287 0.52658253 0.09941096
v 0.1049715 0.52587509 0.09217822
v 0.10673851 0.5144512 0.09196505
v 0.10899081 0.51454567 0.09963469
v 0.09939584 0.53512352 0.09250129
v 0.10065434 0.53645193 0.09923134
v -0.09464281 0.49647855 0.10068643
v -0.08591444 0.49021637 0.10081759
v -0.09338344 0.49752667 0.09390743
v -0.08524759 0.49196308 0.09353347
v -0.09087717 0.49979886 0.08930607
v -0.08439049 0.49714067 0.0876695
v -0.09312639 0.50638806 0.0874771
v -0.08485821 0.50537002 0.08380493
v -0.09407247 0.51613199 0.08642455
v -0.08517228 0.51579129 0.08225812
v -0.09786947 0.52681738 0.09280946
v -0.09257067 0.52584236 0.08707322
v -0.10008183 0.51643174 0.09260028
v -0.09231454 0.53496247 0.09313045
v -0.08994782 0.53236281 0.08863015
v -0.08426264 0.52623271 0.08337165
v -0.07412683 0.51544344 0.08070175
v -0.07381139 0.52651983 0.08203618
v -0.06399077 0.50477486 0.08381843
v -0.07444163 0.50443416 0.08249476
v -0.06308143 0.51516073 0.08227285
v -0.06339519 0.5256381 0.08338527
v -0.0833221 0.5345757 0.08689248
v -0.07355753 0.53550428 0.08602392
v -0.08387493 0.5400331 0.09253576
v -0.07338682 0.5416404 0.09207858
v -0.06386343 0.53402048 0.08690512
v -0.06300748 0.53943789 0.09254986
v -0.07332291 0.54405075 0.09970071
v -0.06234181 0.54148399 0.09975443
v -0.0844326 0.54211503 0.09974038
v -0.09350424 0.53636163 0.09985856
v -0.09976723 0.52763444 0.10003989
v -0.10233476 0.51665598 0.10026741
v -0.09846498 0.50595408 0.0932427
v -0.10039758 0.50554764 0.10049772
v -0.07469598 0.49562171 0.08685192
v -0.07486819 0.48974221 0.0931562
v -0.07493325 0.48764911 0.10087135
v -0.06438011 0.49136731 0.09354759
v -0.06382364 0.48958599 0.10083228
v -0.05475147 0.49534013 0.10071285
v -0.04848899 0.50406736 0.10053232
v -0.05594032 0.49645876 0.09393188
v -0.05038558 0.50458288 0.09327398
v -0.06493236 0.49658525 0.08768267
v -0.05830667 0.49886938 0.08932749
v -0.05568329 0.50532001 0.08750174
v -0.05418164 0.5149936 0.08645102
v -0.04817331 0.51495051 0.09263445
v -0.05361289 0.53522288 0.09988583
v -0.04592149 0.51504516 0.10030481
v -0.04785867 0.52615314 0.1000743
v -0.04979007 0.52544611 0.0928414
v -0.0551281 0.52477341 0.08709771
v -0.05737734 0.5314331 0.08865204
v -0.05487193 0.53389364 0.09315483
v -0.08690125 0.48800504 0.10019809
v -0.08623444 0.48975136 0.09291407
v -0.09514075 0.49585446 0.09330232
v -0.09640009 0.49480593 0.10008193
v -0.06135464 0.54366827 0.09904463
v -0.07325433 0.54643857 0.09895958
v -0.07331774 0.54402691 0.09133794
v -0.06202023 0.54162216 0.09183928
v -0.08529257 0.54435199 0.09902855
v -0.0847354 0.5422697 0.09182432
v -0.09516438 0.53810483 0.09918297
v -0.09397418 0.53670537 0.09245468
v -0.10196571 0.52860683 0.09935437
v -0.10006792 0.52779108 0.09212389
v -0.1024836 0.51648604 0.0919076
v -0.10473652 0.51670932 0.09957483
v -0.10264864 0.50467419 0.09985061
v -0.10071606 0.50508123 0.0925948
v -0.07500148 0.48523387 0.1002302
v -0.07493681 0.48732647 0.09251467
v -0.06296334 0.48732152 0.10021422
v -0.06351976 0.48910331 0.09292978
v -0.04818729 0.50358241 0.09262974
v -0.05428088 0.49468845 0.09332947
v -0.05309205 0.49356961 0.10011078
v -0.04629074 0.50306654 0.09988793
v -0.04560727 0.52699947 0.09939141
v -0.04753864 0.52629202 0.09215867
v -0.04577163 0.51486814 0.09194549
v -0.04351934 0.51496261 0.09961514
v -0.0531143 0.53554046 0.09248174
v -0.05185581 0.53686887 0.09921179
v 0.05426571 -0.54085534 0.08406937
v 0.06299481 -0.54710304 0.08364717
v 0.05554264 -0.53918832 0.07741883
v 0.06368041 -0.544694 0.07655626
v 0.05806054 -0.53650295 0.07305246
v 0.06455197 -0.53899967 0.07119548
v 0.05581496 -0.52977329 0.07183124
v 0.06409286 -0.5304498 0.06810271
v 0.05486986 -0.51997393 0.07167659
v 0.06378096 -0.5199306 0.0675199
v 0.05105422 -0.50992077 0.079007
v 0.05636821 -0.51036453 0.07321935
v 0.0488443 -0.52024287 0.07783794
v 0.05660679 -0.50183981 0.08009022
v 0.05898576 -0.5040149 0.07537615
v 0.06468578 -0.50963592 0.06959122
v 0.07483048 -0.52013444 0.06596718
v 0.0751404 -0.50922775 0.06831522
v 0.08496031 -0.53104502 0.06811624
v 0.07451301 -0.53126192 0.06673941
v 0.0858718 -0.52056109 0.06753462
v 0.08555322 -0.51023048 0.0696049
v 0.06561555 -0.50165188 0.07386671
v 0.07538218 -0.50064802 0.07311287
v 0.06504697 -0.49673646 0.0799864
v 0.07553593 -0.49509465 0.07970652
v 0.08507423 -0.5022071 0.07387934
v 0.08591441 -0.4973317 0.08000052
v 0.07557941 -0.49339538 0.08751812
v 0.08656083 -0.4959568 0.08736449
v 0.06447003 -0.49532586 0.08735047
v 0.05539918 -0.50106525 0.08691529
v 0.04913737 -0.50977182 0.08627693
v 0.04657124 -0.52072453 0.08548726
v 0.05046135 -0.53073531 0.07751843
v 0.04850982 -0.531807 0.08470025
v 0.07424885 -0.54043775 0.07026709
v 0.0740612 -0.54687136 0.07600367
v 0.0739763 -0.54966497 0.08349345
v 0.08454788 -0.54528981 0.07657036
v 0.0850856 -0.54773342 0.08366186
v 0.09415701 -0.54199367 0.08409582
v 0.10041836 -0.53328728 0.08473491
v 0.09298571 -0.54025626 0.07744328
v 0.09854071 -0.5321064 0.07754984
v 0.08401009 -0.53955519 0.07120865
v 0.09063104 -0.53743237 0.07307389
v 0.09325804 -0.53084135 0.07185593
v 0.09476069 -0.52111226 0.07170306
v 0.10075277 -0.52172404 0.07787212
v 0.0952905 -0.50220394 0.08694252
v 0.10298445 -0.52233523 0.08552454
v 0.10104587 -0.51125311 0.08631137
v 0.09913353 -0.51129204 0.07903899
v 0.09381074 -0.51143348 0.07324376
v 0.09155618 -0.50494474 0.07539796
v 0.09404934 -0.50290864 0.08011452
v 0.06201002 -0.54924804 0.08282432
v 0.06269561 -0.54683929 0.07573357
v 0.05378723 -0.54079765 0.07665792
v 0.05251036 -0.54246509 0.08330903
v 0.08754944 -0.49371656 0.08686114
v 0.07564949 -0.49094948 0.08699987
v 0.07560651 -0.49265012 0.07918863
v 0.08690314 -0.49509143 0.07949642
v 0.06361154 -0.49303284 0.0868451
v 0.06418796 -0.49444392 0.07948139
v 0.0537405 -0.49926719 0.08639849
v 0.05494859 -0.50004202 0.07957315
v 0.0469405 -0.50874024 0.08567793
v 0.04885741 -0.508888 0.07840809
v 0.04644435 -0.52012497 0.07714685
v 0.04417128 -0.52060753 0.08479622
v 0.04626062 -0.53261709 0.08396968
v 0.04821215 -0.5315448 0.07678714
v 0.0739102 -0.55201107 0.08263279
v 0.0739947 -0.54921782 0.07514254
v 0.08594791 -0.54993152 0.08284045
v 0.08541031 -0.54748737 0.07574927
v 0.10074086 -0.53304362 0.07682211
v 0.09464705 -0.54196351 0.07668507
v 0.09581832 -0.54370123 0.08333787
v 0.10261847 -0.53422474 0.08400704
v 0.10329888 -0.5103476 0.08571508
v 0.10138659 -0.51038706 0.07844284
v 0.10315623 -0.52174282 0.07718481
v 0.10538844 -0.52235418 0.08483655
v 0.09580845 -0.50120693 0.07960033
v 0.09704905 -0.50050312 0.08642727
v -0.09824387 -0.54042941 0.08368766
v -0.08951474 -0.54667753 0.08326539
v -0.09696691 -0.53876233 0.07703708
v -0.08882913 -0.54426848 0.07617451
v -0.09444901 -0.53607678 0.07267077
v -0.08795758 -0.53857362 0.07081373
v -0.09669464 -0.52934724 0.0714495
v -0.08841668 -0.53002381 0.06772102
v -0.09763975 -0.51954776 0.07129488
v -0.0887286 -0.51950454 0.06713818
v -0.10145543 -0.5094946 0.07862529
v -0.09614142 -0.50993824 0.07283763
v -0.10366531 -0.51981681 0.0774562
v -0.09590279 -0.5014137 0.07970847
v -0.09352383 -0.50358861 0.07499444
v -0.08782377 -0.50920975 0.06920945
v -0.07767902 -0.51970845 0.0655854
v -0.07736907 -0.50880175 0.06793353
v -0.06754921 -0.5306189 0.06773451
v -0.07799653 -0.53083586 0.0663577
v -0.06663773 -0.52013504 0.06715288
v -0.06695628 -0.50980442 0.06922318
v -0.08689395 -0.50122582 0.07348497
v -0.07712731 -0.5002219 0.07273116
v -0.0874626 -0.49631038 0.07960471
v -0.07697361 -0.49466851 0.07932479
v -0.06743525 -0.50178098 0.0734976
v -0.06659507 -0.49690565 0.07961882
v -0.0769301 -0.49296927 0.08713644
v -0.06594868 -0.49553072 0.08698274
v -0.08803951 -0.49489975 0.08696878
v -0.09711039 -0.50063914 0.08653357
v -0.10337226 -0.50934577 0.08589516
v -0.10593839 -0.52029836 0.08510552
v -0.10204826 -0.5303092 0.07713672
v -0.10399978 -0.53138077 0.08431851
v -0.07826071 -0.54001164 0.06988543
v -0.07844842 -0.54644584 0.07562187
v -0.07853326 -0.54923957 0.0831117
v -0.06796156 -0.54486423 0.0761886
v -0.06742391 -0.5473079 0.08328008
v -0.05835254 -0.5415678 0.08371408
v -0.05209121 -0.53286111 0.08435326
v -0.05952382 -0.53983014 0.07706157
v -0.05396886 -0.53168028 0.07716807
v -0.06849941 -0.53912907 0.0708269
v -0.06187853 -0.53700631 0.0726922
v -0.05925155 -0.53041529 0.07147419
v -0.05774892 -0.52068609 0.07132133
v -0.0517568 -0.52129799 0.07749038
v -0.05721905 -0.50177788 0.08656083
v -0.0495251 -0.52190911 0.08514283
v -0.05146369 -0.51082706 0.0859296
v -0.05337599 -0.51086586 0.07865728
v -0.05869883 -0.51100719 0.07286208
v -0.06095337 -0.50451856 0.07501624
v -0.0584602 -0.50248247 0.0797328
v -0.09049951 -0.5488224 0.08244256
v -0.08981399 -0.54641383 0.07535176
v -0.09872235 -0.54037171 0.07627615
v -0.0999993 -0.54203915 0.08292731
v -0.06496004 -0.49329045 0.08647941
v -0.07686003 -0.49052339 0.08661817
v -0.07690303 -0.492224 0.07880692
v -0.0656064 -0.49466535 0.0791147
v -0.08889803 -0.49260672 0.08646337
v -0.08832158 -0.49401781 0.07909967
v -0.09876906 -0.49884098 0.08601678
v -0.09756097 -0.49961587 0.07919149
v -0.10556911 -0.50831431 0.08529622
v -0.10365224 -0.50846177 0.07802638
v -0.10606528 -0.51969903 0.0767652
v -0.10833835 -0.52018141 0.08441449
v -0.10624899 -0.53219109 0.08358793
v -0.10429747 -0.53111869 0.07640537
v -0.07859937 -0.55158549 0.08225098
v -0.07851486 -0.54879242 0.07476078
v -0.06656158 -0.54950588 0.08245869
v -0.06709925 -0.54706203 0.07536746
v -0.05176871 -0.5326175 0.07644033
v -0.05786248 -0.54153776 0.07630331
v -0.05669122 -0.54327547 0.08295613
v -0.04989109 -0.53379875 0.08362533
v -0.04921066 -0.50992161 0.08533336
v -0.05112293 -0.50996083 0.07806116
v -0.04935331 -0.52131694 0.07680308
v -0.04712114 -0.52192801 0.08445483
v -0.05670112 -0.50078088 0.07921864
v -0.05546051 -0.50007695 0.08604557
g Group34284
f 49 48 47 46
f 30 25 46 47
f 24 25 30 29
f 53 52 51 50
f 2 1 53 50
f 1 6 52 53
f 1 2 7 6
f 50 51 55 54
f 3 2 50 54
f 2 3 8 7
f 57 56 48 49
f 23 24 29 28
f 61 60 59 58
f 42 43 59 60
f 37 38 43 42
f 54 55 63 62
f 4 3 54 62
f 3 4 9 8
f 62 63 65 64
f 5 4 62 64
f 10 5 64 65
f 4 5 10 9
f 68 67 61 66
f 31 36 67 68
f 31 32 37 36
f 72 71 70 69
f 45 40 69 70
f 44 45 70 71
f 39 40 45 44
f 52 74 73 51
f 6 11 74 52
f 6 7 12 11
f 51 73 75 55
f 7 8 13 12
f 77 72 69 76
f 40 35 76 69
f 34 35 40 39
f 48 77 76 47
f 35 30 47 76
f 29 30 35 34
f 55 75 78 63
f 8 9 14 13
f 63 78 79 65
f 15 10 65 79
f 9 10 15 14
f 81 80 56 57
f 22 23 28 27
f 58 59 71 72
f 43 44 71 59
f 38 39 44 43
f 74 83 82 73
f 11 16 83 74
f 11 12 17 16
f 73 82 84 75
f 12 13 18 17
f 85 58 72 77
f 33 34 39 38
f 56 85 77 48
f 28 29 34 33
f 75 84 86 78
f 13 14 19 18
f 78 86 87 79
f 20 15 79 87
f 14 15 20 19
f 89 88 80 81
f 21 26 88 89
f 21 22 27 26
f 67 90 60 61
f 41 42 60 90
f 36 41 90 67
f 36 37 42 41
f 83 89 81 82
f 16 21 89 83
f 16 17 22 21
f 82 81 57 84
f 17 18 23 22
f 80 66 85 56
f 27 28 33 32
f 88 68 66 80
f 26 31 68 88
f 26 27 32 31
f 84 57 49 86
f 18 19 24 23
f 86 49 46 87
f 25 20 87 46
f 19 20 25 24
f 66 61 58 85
f 32 33 38 37
g Group59976
f 93 95 96 94
f 95 97 98 96
f 97 99 100 98
f 101 102 99 103
f 102 101 104 105
f 100 99 102 106
f 107 100 106 108
f 109 110 107 111
f 112 111 107 108
f 98 100 107 110
f 106 113 114 108
f 105 113 106 102
f 105 104 115 113
f 115 116 114 113
f 117 114 116 118
f 125 103 99 97
f 95 93 125 97
f 94 96 127 128
f 136 130 128 127
f 137 136 109 138
f 136 137 134 130
f 138 135 134 137
f 139 140 135 138
f 138 109 111 139
f 127 110 109 136
f 98 110 127 96
f 139 145 144 140
f 144 145 146 147
f 117 146 145 112
f 111 112 145 139
f 146 117 118 147
f 112 108 114 117
f 151 150 149 148
f 92 91 151 148
f 93 94 149 150
f 91 92 94 93
f 155 154 153 152
f 119 120 152 153
f 118 116 154 155
f 118 120 119 116
f 157 156 153 154
f 116 115 157 154
f 121 119 153 156
f 115 116 119 121
f 159 158 156 157
f 115 104 159 157
f 122 121 156 158
f 104 115 121 122
f 161 160 158 159
f 104 101 161 159
f 123 122 158 160
f 101 104 122 123
f 163 160 161 162
f 101 103 162 161
f 124 123 160 163
f 124 103 101 123
f 163 162 165 164
f 126 124 163 164
f 103 125 165 162
f 124 126 125 103
f 150 151 164 165
f 125 93 150 165
f 91 126 164 151
f 93 125 126 91
f 149 167 166 148
f 129 92 148 166
f 94 128 167 149
f 94 92 129 128
f 166 167 169 168
f 131 129 166 168
f 128 130 169 167
f 129 131 130 128
f 173 172 171 170
f 134 135 170 171
f 133 132 172 173
f 133 135 134 132
f 168 169 171 172
f 132 131 168 172
f 130 134 171 169
f 131 132 134 130
f 177 176 175 174
f 143 142 177 174
f 140 144 175 176
f 142 143 144 140
f 177 173 170 176
f 135 140 176 170
f 142 133 173 177
f 142 140 135 133
f 179 174 175 178
f 144 147 178 175
f 141 143 174 179
f 141 147 144 143
f 155 152 179 178
f 147 118 155 178
f 120 141 179 152
f 118 147 141 120
f 182 184 185 183
f 184 186 187 185
f 186 188 189 187
f 190 191 188 192
f 191 190 193 194
f 189 188 191 195
f 196 189 195 197
f 198 199 196 200
f 201 200 196 197
f 187 189 196 199
f 195 202 203 197
f 194 202 195 191
f 194 193 204 202
f 204 205 203 202
f 206 203 205 207
f 214 192 188 186
f 184 182 214 186
f 183 185 216 217
f 225 219 217 216
f 226 225 198 227
f 225 226 223 219
f 227 224 223 226
f 228 229 224 227
f 227 198 200 228
f 216 199 198 225
f 187 199 216 185
f 228 234 233 229
f 233 234 235 236
f 206 235 234 201
f 200 201 234 228
f 235 206 207 236
f 201 197 203 206
f 240 239 238 237
f 181 180 240 237
f 182 183 238 239
f 180 181 183 182
f 244 243 242 241
f 208 209 241 242
f 207 205 243 244
f 207 209 208 205
f 246 245 242 243
f 205 204 246 243
f 210 208 242 245
f 204 205 208 210
f 248 247 245 246
f 204 193 248 246
f 211 210 245 247
f 193 204 210 211
f 250 249 247 248
f 193 190 250 248
f 212 211 247 249
f 190 193 211 212
f 252 249 250 251
f 190 192 251 250
f 213 212 249 252
f 213 192 190 212
f 252 251 254 253
f 215 213 252 253
f 192 214 254 251
f 213 215 214 192
f 239 240 253 254
f 214 182 239 254
f 180 215 253 240
f 182 214 215 180
f 238 256 255 237
f 218 181 237 255
f 183 217 256 238
f 183 181 218 217
f 255 256 258 257
f 220 218 255 257
f 217 219 258 256
f 218 220 219 217
f 262 261 260 259
f 223 224 259 260
f 222 221 261 262
f 222 224 223 221
f 257 258 260 261
f 221 220 257 261
f 219 223 260 258
f 220 221 223 219
f 266 265 264 263
f 232 231 266 263
f 229 233 264 265
f 231 232 233 229
f 266 262 259 265
f 224 229 265 259
f 231 222 262 266
f 231 229 224 222
f 268 263 264 267
f 233 236 267 264
f 230 232 263 268
f 230 236 233 232
f 244 241 268 267
f 236 207 244 267
f 209 230 268 241
f 207 236 230 209
f 271 273 274 272
f 273 275 276 274
f 275 277 278 276
f 279 280 277 281
f 280 279 282 283
f 278 277 280 284
f 285 278 284 286
f 287 288 285 289
f 290 289 285 286
f 276 278 285 288
f 284 291 292 286
f 283 291 284 280
f 283 282 293 291
f 293 294 292 291
f 295 292 294 296
f 303 281 277 275
f 273 271 303 275
f 272 274 305 306
f 314 308 306 305
f 315 314 287 316
f 314 315 312 308
f 316 313 312 315
f 317 318 313 316
f 316 287 289 317
f 305 288 287 314
f 276 288 305 274
f 317 323 322 318
f 322 323 324 325
f 295 324 323 290
f 289 290 323 317
f 324 295 296 325
f 290 286 292 295
f 329 328 327 326
f 270 269 329 326
f 271 272 327 328
f 269 270 272 271
f 333 332 331 330
f 297 298 330 331
f 296 294 332 333
f 296 298 297 294
f 335 334 331 332
f 294 293 335 332
f 299 297 331 334
f 293 294 297 299
f 337 336 334 335
f 293 282 337 335
f 300 299 334 336
f 282 293 299 300
f 339 338 336 337
f 282 279 339 337
f 301 300 336 338
f 279 282 300 301
f 341 338 339 340
f 279 281 340 339
f 302 301 338 341
f 302 281 279 301
f 341 340 343 342
f 304 302 341 342
f 281 303 343 340
f 302 304 303 281
f 328 329 342 343
f 303 271 328 343
f 269 304 342 329
f 271 303 304 269
f 327 345 344 326
f 307 270 326 344
f 272 306 345 327
f 272 270 307 306
f 344 345 347 346
f 309 307 344 346
f 306 308 347 345
f 307 309 308 306
f 351 350 349 348
f 312 313 348 349
f 311 310 350 351
f 311 313 312 310
f 346 347 349 350
f 310 309 346 350
f 308 312 349 347
f 309 310 312 308
f 355 354 353 352
f 321 320 355 352
f 318 322 353 354
f 320 321 322 318
f 355 351 348 354
f 313 318 354 348
f 320 311 351 355
f 320 318 313 311
f 357 352 353 356
f 322 325 356 353
f 319 321 352 357
f 319 325 322 321
f 333 330 357 356
f 325 296 333 356
f 298 319 357 330
f 296 325 319 298
f 360 362 363 361
f 362 364 365 363
f 364 366 367 365
f 368 369 366 370
f 369 368 371 372
f 367 366 369 373
f 374 367 373 375
f 376 377 374 378
f 379 378 374 375
f 365 367 374 377
f 373 380 381 375
f 372 380 373 369
f 372 371 382 380
f 382 383 381 380
f 384 381 383 385
f 392 370 366 364
f 362 360 392 364
f 361 363 394 395
f 403 397 395 394
f 404 403 376 405
f 403 404 401 397
f 405 402 401 404
f 406 407 402 405
f 405 376 378 406
f 394 377 376 403
f 365 377 394 363
f 406 412 411 407
f 411 412 413 414
f 384 413 412 379
f 378 379 412 406
f 413 384 385 414
f 379 375 381 384
f 418 417 416 415
f 359 358 418 415
f 360 361 416 417
f 358 359 361 360
f 422 421 420 419
f 386 387 419 420
f 385 383 421 422
f 385 387 386 383
f 424 423 420 421
f 383 382 424 421
f 388 386 420 423
f 382 383 386 388
f 426 425 423 424
f 382 371 426 424
f 389 388 423 425
f 371 382 388 389
f 428 427 425 426
f 371 368 428 426
f 390 389 425 427
f 368 371 389 390
f 430 427 428 429
f 368 370 429 428
f 391 390 427 430
f 391 370 368 390
f 430 429 432 431
f 393 391 430 431
f 370 392 432 429
f 391 393 392 370
f 417 418 431 432
f 392 360 417 432
f 358 393 431 418
f 360 392 393 358
f 416 434 433 415
f 396 359 415 433
f 361 395 434 416
f 361 359 396 395
f 433 434 436 435
f 398 396 433 435
f 395 397 436 434
f 396 398 397 395
f 440 439 438 437
f 401 402 437 438
f 400 399 439 440
f 400 402 401 399
f 435 436 438 439
f 399 398 435 439
f 397 401 438 436
f 398 399 401 397
f 444 443 442 441
f 410 409 444 441
f 407 411 442 443
f 409 410 411 407
f 444 440 437 443
f 402 407 443 437
f 409 400 440 444
f 409 407 402 400
f 446 441 442 445
f 411 414 445 442
f 408 410 441 446
f 408 414 411 410
f 422 419 446 445
f 414 385 422 445
f 387 408 446 419
f 385 414 408 387

 