# File exported by ZBrush version 2021
# www.zbrush.com
#Vertex Count 983
#Face Count 998
#Auto scale x=1.000000 y=1.000000 z=1.000000
#Auto offset x=0.000000 y=0.000000 z=0.000000
v 0.23580551 -3.81348705 0.18407762
v 0.44386005 -3.4115715 0.28888249
v 0.62612152 -2.58576393 0.4359318
v 0.79955959 -1.36385345 0.57108581
v 1.04051399 0.0105381 0.63924515
v 1.41287517 1.11054611 0.60139942
v 1.89595031 1.74500465 0.47856676
v 2.38552188 1.98482132 0.32263791
v 2.75285053 2.08902549 0.18703413
v 2.93330001 2.25053978 0.09895598
v 2.91208934 2.51952171 0.05849826
v 2.69333267 2.88172721 0.05694139
v 2.27589321 3.29752349 0.0826503
v 1.66350555 3.69937324 0.12117528
v 0.88536262 3.99624824 0.15505445
v -0.00002384 4.10690879 0.16859757
v -0.88540649 3.99624061 0.15505182
v -1.66353893 3.6993618 0.12117254
v -2.2759161 3.29751396 0.08265078
v -2.6933422 2.88171958 0.05694365
v -2.91207885 2.51952362 0.05850184
v -2.93330097 2.2505455 0.09895718
v -2.7528491 2.08902549 0.18703401
v -2.38552904 1.98482894 0.32263696
v -1.8959608 1.74500656 0.47856271
v -1.41288089 1.11054992 0.60139668
v -1.04051828 0.01054573 0.639243
v -0.79956483 -1.3638401 0.57108676
v -0.62612247 -2.58574676 0.43593227
v -0.443861 -3.41155624 0.28888416
v -0.23580503 -3.81347942 0.18407881
v 0.00000286 -3.91864204 0.14697217
v 0.34714794 -4.97627449 -0.49414026
v 0.69807243 -4.45527267 -0.32760757
v 1.02018928 -3.50507164 -0.09144124
v 1.35416603 -2.26467132 0.13450026
v 1.72154808 -0.90431213 0.27024126
v 2.25020885 0.13936615 0.26576876
v 2.87952518 0.7437458 0.14920687
v 3.46943855 1.0088272 -0.00391256
v 3.82746315 1.23885345 -0.12472841
v 3.8903923 1.61047172 -0.18282756
v 3.68192863 2.14034271 -0.18739244
v 3.26061153 2.74837112 -0.15615829
v 2.65293121 3.36496543 -0.10575911
v 1.88175678 3.90985107 -0.05086147
v 0.98498153 4.28879928 -0.00810003
v -0.00002384 4.42606735 0.00824844
v -0.98501777 4.28879928 -0.00810062
v -1.88178825 3.90984726 -0.05086231
v -2.65294361 3.3649578 -0.10575994
v -3.26062059 2.74836731 -0.15615901
v -3.68193244 2.14035034 -0.18739256
v -3.89038848 1.61047554 -0.18282708
v -3.8274703 1.23885345 -0.12472805
v -3.46945667 1.0088253 -0.00391042
v -2.87954664 0.74374389 0.14920604
v -2.25022745 0.13937377 0.26576876
v -1.72157049 -0.9043045 0.2702403
v -1.35418224 -2.26465988 0.13450193
v -1.02020835 -3.50505828 -0.09143862
v -0.69808387 -4.45526695 -0.32760602
v -0.3471632 -4.97627258 -0.49413895
v -0.00000381 -5.15429306 -0.55430114
v 0.76858902 3.57083129 0.3076595
v 1.39879608 3.35413169 0.28205668
v 0.06874847 -2.77290535 0.55880439
v -0.00000858 -2.89071273 0.53403759
v 1.57714271 2.51071167 0.42670738
v 1.19960212 2.45148849 0.55323875
v -1.57714891 2.5106945 0.42670285
v -1.8796091 2.55501937 0.33132898
v -0.81661224 2.22431182 0.68899118
v -1.19961261 2.45148468 0.55323386
v 1.83484649 3.07983017 0.25723254
v 0.49990844 1.66189003 0.79739368
v 0.29424667 0.69767952 0.8412652
v 0.81660652 2.22430801 0.6889981
v -0.76866865 3.57082748 0.30765926
v -0.00004577 3.65446662 0.31838917
v -0.49990034 1.66190147 0.79738676
v -0.06875038 -2.77288818 0.55880701
v -0.11269092 -2.36805725 0.62826633
v -1.39884376 3.35412216 0.28205645
v 1.8796072 2.55502128 0.3313266
v 0.11268138 -2.36808395 0.62826573
v -0.19203424 -0.49029159 0.80873048
v -0.29425144 0.69768905 0.84125912
v 2.04754543 2.82907867 0.2500993
v -0.14667844 -1.59222984 0.7238518
v -1.83485984 3.07982063 0.25723624
v 0.19202709 -0.49032974 0.80873024
v 2.05205726 2.65161132 0.27270758
v 0.14665699 -1.59226608 0.72384846
v -2.05204486 2.65161132 0.27271533
v -2.04753971 2.82907676 0.25010681
v 0.19851589 -3.58030128 -0.37903231
v 0.36485958 -4.81411266 -0.78963786
v 0.0000019 -4.98089027 -0.8412652
v -0.00000381 -3.71094894 -0.41756886
v 0.39107894 -3.15184783 -0.27092465
v 0.72653484 -4.29911422 -0.64504456
v 0.57233619 -2.34848403 -0.1190451
v 1.06812858 -3.3661127 -0.4400084
v 0.76438617 -1.23539161 0.02365434
v 1.4186697 -2.13885498 -0.24469861
v 1.00553512 -0.02117919 0.10010206
v 1.79866123 -0.81617164 -0.13166829
v 1.36227321 0.95264434 0.07486379
v 2.30281448 0.226511 -0.14375874
v 1.80897903 1.53953361 -0.03465271
v 2.87809562 0.87858772 -0.25537321
v 2.25973987 1.81392478 -0.17584356
v 3.40170288 1.22899055 -0.40015739
v 2.59719371 1.98075866 -0.29967162
v 3.7178955 1.52423286 -0.51791244
v 2.76269817 2.18782424 -0.38010639
v 3.77527713 1.91153144 -0.5811541
v 2.74309349 2.47538757 -0.41706615
v 3.58796787 2.41239929 -0.59607744
v 2.54211521 2.83108139 -0.41798156
v 3.19597625 2.97410202 -0.57624375
v 2.15325546 3.22875213 -0.39327794
v 2.61591529 3.54595375 -0.53548342
v 1.57674312 3.60947036 -0.35629385
v 1.86570739 4.05547332 -0.48770022
v 0.84120845 3.88919639 -0.32378667
v 0.9802885 4.41213798 -0.44933432
v -0.0000391 3.99328041 -0.31080663
v -0.00003528 4.54167175 -0.43449622
v -0.84126281 3.88919258 -0.32378751
v -0.98033666 4.41213607 -0.44933539
v -1.57678365 3.60946273 -0.35629361
v -1.86574554 4.05547142 -0.48770159
v -2.15326356 3.22875785 -0.39327532
v -2.61592435 3.54595375 -0.53548383
v -2.54210519 2.8310852 -0.41797661
v -3.19597816 2.97410583 -0.57624268
v -2.74307251 2.4753952 -0.41706007
v -3.58796215 2.41239929 -0.59607625
v -2.76268911 2.18782424 -0.38010424
v -3.77527523 1.91153907 -0.58115249
v -2.59720087 1.98075676 -0.29967328
v -3.71790075 1.52423286 -0.51791191
v -2.25975513 1.81391525 -0.17584559
v -3.40171194 1.22898483 -0.40015649
v -1.80899477 1.53953361 -0.03465545
v -2.87810993 0.8785839 -0.25537297
v -1.36227512 0.95264244 0.07486057
v -2.30281782 0.2265129 -0.14375719
v -1.00554466 -0.02116775 0.10010016
v -1.79867506 -0.81616973 -0.13166686
v -0.76439189 -1.23536872 0.02365613
v -1.41867637 -2.13884735 -0.24469623
v -0.5723524 -2.34846115 -0.11904332
v -1.06814575 -3.36609935 -0.44000631
v -0.39108133 -3.15183067 -0.27092263
v -0.72653675 -4.29910087 -0.64504343
v -0.19852829 -3.58028984 -0.37903076
v -0.36486482 -4.81410884 -0.78963732
v 1.33780956 3.17596244 -0.22672304
v 0.73595809 3.39138412 -0.20008322
v -0.00000572 -2.78315162 -0.07691097
v 0.02441978 -2.66137695 -0.04820096
v 1.13986587 2.27177619 0.01419997
v 1.51183605 2.32916832 -0.10732695
v -1.7991085 2.37913894 -0.19580456
v -1.51184654 2.32915115 -0.1073316
v -1.13987445 2.27177238 0.0141946
v -0.74779892 2.067276 0.14676559
v 1.75228405 2.90357017 -0.25380024
v 0.19866561 0.66769027 0.2898103
v 0.4166994 1.55418586 0.25212681
v 0.74779701 2.0672779 0.14677166
v -0.00004577 3.47430801 -0.18912372
v -0.73604297 3.39138031 -0.20008418
v -0.41668558 1.55419349 0.25212204
v -0.03613662 -2.25300407 0.03253555
v -0.02442169 -2.66135597 -0.04820096
v -1.33787012 3.17596054 -0.22672364
v 1.79911041 2.37913894 -0.19580516
v 0.03612136 -2.25304794 0.03253436
v -0.1986618 0.66770172 0.28980624
v -0.09354972 -0.44321632 0.24546265
v 1.95301437 2.65559577 -0.26473805
v -0.05238914 -1.49217987 0.14441204
v -1.75229501 2.90356826 -0.25379714
v 0.09355068 -0.44325447 0.24546146
v 1.95837402 2.47980117 -0.24757692
v 0.05236816 -1.49222755 0.14441049
v -1.95836305 2.47980117 -0.24756822
v -1.9530096 2.65559959 -0.26473102
v 0.30380344 -4.23179435 -0.06528937
v -0.00000286 -4.34827995 -0.11271652
v 0.57846927 -3.81513214 0.06673264
v 0.81654739 -2.96890449 0.25205183
v 1.03666687 -1.73640632 0.42377889
v 1.32110881 -0.31199836 0.51955211
v 1.76639556 0.80916023 0.49102819
v 2.33761405 1.44544029 0.36438763
v 2.90086937 1.66199874 0.20071649
v 3.28527259 1.77357864 0.06361568
v 3.42322826 1.99482917 -0.01637041
v 3.31975078 2.36337852 -0.04302835
v 3.0057621 2.8329277 -0.03005754
v 2.495018 3.34307861 0.00784933
v 1.79943943 3.81646347 0.0551455
v 0.95020675 4.1579914 0.09438324
v -0.00001335 4.28325271 0.1096313
v -0.9502263 4.15798378 0.09438121
v -1.79947185 3.81644821 0.05514216
v -2.49504184 3.34306335 0.00784802
v -3.00577735 2.83292007 -0.03005778
v -3.31975078 2.36337852 -0.04302656
v -3.42322158 1.99483871 -0.01637005
v -3.28526973 1.77359008 0.06361544
v -2.90087413 1.66200256 0.20071542
v -2.33762168 1.44544601 0.36438477
v -1.76639938 0.80916786 0.49102532
v -1.32111501 -0.3119831 0.51955139
v -1.03666782 -1.73638534 0.42377984
v -0.81655216 -2.96888923 0.25205647
v -0.57846593 -3.8151102 0.0667355
v -0.30380916 -4.23178291 -0.06528759
v 1.5387392 3.61237335 0.20358121
v 0.83089351 3.8652935 0.23191106
v -0.00000762 -3.51079559 0.38276147
v 0.16760826 -3.39258575 0.41183555
v 1.82505512 2.28740882 0.4514966
v 2.18090915 2.39621353 0.3215636
v -2.41588401 2.51002693 0.22848677
v -2.18091392 2.39621734 0.32156002
v -1.82506275 2.28741073 0.45149207
v -1.41241455 2.01630783 0.59468567
v 2.06476593 3.28006362 0.174106
v 0.74517154 0.33008003 0.7520827
v 1.03017807 1.38702583 0.70900952
v 1.41240978 2.0163002 0.59469294
v -0.00003719 3.96136093 0.24362802
v -0.83095359 3.86527824 0.23190891
v -1.03016948 1.38703346 0.7090044
v -0.30967855 -2.97199058 0.49360001
v -0.16761827 -3.39256858 0.41183781
v -1.53878784 3.61235046 0.20357704
v 2.41587257 2.51002311 0.22848653
v 0.30966377 -2.97202682 0.49359858
v -0.74517059 0.33009529 0.75207996
v -0.56205797 -0.96647644 0.70837938
v 2.38010406 2.95397758 0.16061508
v -0.43524313 -2.15011215 0.60678541
v -2.0647912 3.280056 0.17410624
v 0.56205654 -0.96650695 0.70837914
v 2.4911251 2.69086837 0.17601287
v 0.43523502 -2.15015411 0.60678374
v -2.49113273 2.69086265 0.17601907
v -2.38011503 2.95397186 0.1606183
v 0.31491661 -4.49174499 -0.27189454
v -0.00000572 -4.63082313 -0.32765513
v 0.61017513 -4.04414367 -0.1180931
v 0.86557292 -3.15087032 0.10022306
v 1.10878372 -1.92038154 0.30390322
v 1.40755081 -0.50160217 0.42351138
v 1.88933372 0.5832653 0.40538299
v 2.50848007 1.1832695 0.27987587
v 3.11642265 1.37330055 0.11660683
v 3.51449108 1.48851776 -0.0156461
v 3.63093662 1.75205612 -0.08508181
v 3.4841547 2.18814659 -0.09899959
v 3.12137126 2.72769355 -0.07438468
v 2.56618976 3.29636764 -0.02749705
v 1.83624267 3.81141662 0.02587258
v 0.96528434 4.17687797 0.06851732
v -0.00001335 4.30968093 0.08482301
v -0.96529674 4.17687225 0.06851458
v -1.83626794 3.81140518 0.02587103
v -2.56620502 3.29635238 -0.02749812
v -3.12138366 2.72769165 -0.07438564
v -3.48414421 2.18814659 -0.09899899
v -3.63092708 1.75206375 -0.08508193
v -3.51448249 1.48852157 -0.0156449
v -3.11642599 1.37330436 0.11660718
v -2.50849151 1.18328094 0.27987372
v -1.88934898 0.58327674 0.40538179
v -1.40756368 -0.501585 0.42351186
v -1.10879135 -1.92036628 0.30390751
v -0.86558008 -3.15085506 0.10022676
v -0.61017656 -4.04412841 -0.11809036
v -0.31491947 -4.49174118 -0.27189216
v -0.00000762 -5.26162147 -0.38423377
v 0.3377428 -5.07063674 -0.32005745
v 0.29199695 -4.60603523 -0.20046469
v -0.00000858 -4.77521896 -0.26238867
v 0.68043899 -4.52962398 -0.14377912
v 0.57976341 -4.1187191 -0.03166234
v 0.99219894 -3.54394912 0.10689854
v 0.82871341 -3.19369983 0.20742917
v 1.31215667 -2.28544807 0.34505772
v 1.0749979 -1.97806549 0.4316312
v 1.66722297 -0.90608787 0.48877632
v 1.36802387 -0.59217453 0.56652391
v 2.20093059 0.12952613 0.48532259
v 1.8554449 0.45149231 0.55738842
v 2.85267353 0.71019172 0.36680042
v 2.48712444 1.01063346 0.43480336
v 3.47132492 0.94101333 0.2124356
v 3.11377143 1.17531776 0.27443158
v 3.84836769 1.1417942 0.09316682
v 3.52309799 1.28450775 0.14717698
v 3.91674995 1.5074234 0.03954899
v 3.636734 1.56356048 0.08534514
v 3.70521831 2.04890441 0.04045701
v 3.47857379 2.0291481 0.0795542
v 3.27544212 2.67820167 0.07653594
v 3.10422706 2.59813308 0.11105108
v 2.65923214 3.3154335 0.13070464
v 2.54155921 3.18941688 0.16278815
v 1.88222217 3.87602615 0.18813061
v 1.81122684 3.71871948 0.21927416
v 0.98351001 4.26462173 0.23232793
v 0.94959449 4.09063148 0.26351392
v -0.00002002 4.40485954 0.24909281
v -0.00001621 4.22545623 0.2803539
v -0.98353862 4.26461792 0.23232722
v -0.94960928 4.09062957 0.26351308
v -1.88224697 3.87602424 0.18812966
v -1.81125545 3.71870422 0.21927249
v -2.65925216 3.31542587 0.13070261
v -2.54157495 3.18941116 0.16278624
v -3.27544975 2.67819404 0.07653427
v -3.10423946 2.59812164 0.11104917
v -3.70521831 2.04890632 0.04045569
v -3.47858047 2.02914428 0.07955372
v -3.916749 1.5074234 0.03954923
v -3.63673114 1.5635643 0.08534514
v -3.84837055 1.14180183 0.09316778
v -3.52309989 1.28451156 0.14717674
v -3.4713397 0.94101715 0.21243655
v -3.11378479 1.17531967 0.27442944
v -2.85269451 0.71019935 0.36679995
v -2.48714685 1.01064109 0.43480217
v -2.20095157 0.12954139 0.48532354
v -1.85546398 0.45149993 0.55738639
v -1.66724586 -0.9060688 0.48877763
v -1.3680439 -0.59215164 0.56652247
v -1.31217765 -2.285429 0.34505999
v -1.07501554 -1.97803688 0.43163311
v -0.99221038 -3.54393672 0.10690164
v -0.82872438 -3.19366931 0.20743441
v -0.68045139 -4.52961158 -0.1437765
v -0.57977294 -4.11869812 -0.031659
v -0.33775043 -5.07062721 -0.3200559
v -0.29199791 -4.6060276 -0.20046195
v -0.08817291 5.25548553 -0.03711175
v -0.18731641 5.23833656 -0.03899169
v -0.28281164 5.21018028 -0.04207932
v -0.37298822 5.17159652 -0.04630804
v -0.45632362 5.12339782 -0.0515927
v -0.53151416 5.06657981 -0.05782342
v -0.59748315 5.00219154 -0.0648812
v -0.65343141 4.93144226 -0.07263791
v -0.69881439 4.85551834 -0.08096122
v -0.7333579 4.77566146 -0.08971867
v -0.75704908 4.6929779 -0.09878119
v -0.77012014 4.60862922 -0.1080304
v -0.7730112 4.52356147 -0.11735543
v -0.76635503 4.43870353 -0.12665864
v -0.72763395 4.27264022 -0.14486596
v 0.7532711 4.27264022 -0.14486619
v 0.79198932 4.43869781 -0.12665948
v 0.79864502 4.52356338 -0.11735603
v 0.79575443 4.60862159 -0.10803112
v 0.78268146 4.6929779 -0.09878084
v 0.75899219 4.77565765 -0.08971867
v 0.72445297 4.85551834 -0.08096098
v 0.6790657 4.93143844 -0.07263863
v 0.62312316 5.00219154 -0.0648812
v 0.55714607 5.06658363 -0.0578233
v 0.48195457 5.12339782 -0.05159211
v 0.3986206 5.17159271 -0.04630816
v 0.30844879 5.21018028 -0.04207921
v 0.21295547 5.23833656 -0.03899169
v 0.11381053 5.25548553 -0.03711164
v 0.01281547 5.26124763 -0.03647995
v -0.08767795 5.25590133 -0.07143831
v -0.18634414 5.23883819 -0.07330882
v -0.28138637 5.21081161 -0.07638084
v -0.37113523 5.1724224 -0.08058881
v -0.45409059 5.12449646 -0.08584639
v -0.52895116 5.0679264 -0.09204646
v -0.59465074 5.00385284 -0.09907147
v -0.65038681 4.93342971 -0.10679182
v -0.69561576 4.85785293 -0.1150771
v -0.73007011 4.77833557 -0.12379595
v -0.75373029 4.69601631 -0.13282057
v -0.76682472 4.61199951 -0.14203235
v -0.76979541 4.5272808 -0.15132078
v -0.76325607 4.4427452 -0.16058942
v -0.72488498 4.27726936 -0.17873153
v 0.75052452 4.27726554 -0.17873105
v 0.7888937 4.44274139 -0.16058895
v 0.7954235 4.52727317 -0.15132197
v 0.7924633 4.61199569 -0.14203164
v 0.7793684 4.69601249 -0.13282105
v 0.75570297 4.77833557 -0.12379595
v 0.72124862 4.85784912 -0.11507722
v 0.67602062 4.93342399 -0.10679122
v 0.62028598 5.00384903 -0.09907159
v 0.55458641 5.0679264 -0.09204611
v 0.47972011 5.12449646 -0.08584639
v 0.39676952 5.17241859 -0.08058905
v 0.30701637 5.21081161 -0.07638061
v 0.21198082 5.23883819 -0.07330894
v 0.11331939 5.25590133 -0.07143819
v 0.01281547 5.26162338 -0.07081031
v -0.08623027 5.24965667 -0.10517224
v -0.18347644 5.23285102 -0.1070145
v -0.27716445 5.20525169 -0.11003992
v -0.36566638 5.16745185 -0.11418399
v -0.44749975 5.12020301 -0.11936447
v -0.5213871 5.0644741 -0.12547418
v -0.58628082 5.00131225 -0.13239929
v -0.6413865 4.93186187 -0.14001426
v -0.68616628 4.85730743 -0.14818808
v -0.72034549 4.77880096 -0.15679404
v -0.74391698 4.69752883 -0.16570445
v -0.75708103 4.61452674 -0.17480418
v -0.76026821 4.53078842 -0.1839858
v -0.75408363 4.44720077 -0.19314858
v -0.71673631 4.28348922 -0.21109852
v 0.74237251 4.28348922 -0.21109852
v 0.7797203 4.44719696 -0.19314894
v 0.78590107 4.5307827 -0.18398556
v 0.78271579 4.61452674 -0.1748043
v 0.7695465 4.69752502 -0.16570505
v 0.74598598 4.77880096 -0.15679428
v 0.71180248 4.85729789 -0.14818868
v 0.66702079 4.93186187 -0.14001366
v 0.61191654 5.00130653 -0.13239952
v 0.54702186 5.06447029 -0.12547406
v 0.4731388 5.12020683 -0.11936447
v 0.39130401 5.16744995 -0.11418423
v 0.30280304 5.20524978 -0.1100398
v 0.20910644 5.23285102 -0.10701403
v 0.11186695 5.24966049 -0.10517177
v 0.01281547 5.25529861 -0.1045545
v -0.04758548 4.9741745 -0.19253179
v -0.10704612 4.96409988 -0.19363638
v -0.16463279 4.94749832 -0.19545742
v -0.21948576 4.92464447 -0.1979632
v -0.27078914 4.89592742 -0.20111236
v -0.31783771 4.86177825 -0.20485553
v -0.36001873 4.82274818 -0.2091349
v -0.39684248 4.7794075 -0.21388456
v -0.42793798 4.73238563 -0.2190406
v -0.45305872 4.68231201 -0.22453102
v -0.47209167 4.62983703 -0.23028335
v -0.48503112 4.57559585 -0.23623141
v -0.49199056 4.52018165 -0.24230429
v -0.49318695 4.46422958 -0.24843999
v -0.47953891 4.35280227 -0.26065728
v 0.50517559 4.35280227 -0.26065716
v 0.51881885 4.46422576 -0.24844035
v 0.51762867 4.52018547 -0.24230489
v 0.5106678 4.57559204 -0.23623082
v 0.49772644 4.62983322 -0.23028311
v 0.47869586 4.68231201 -0.22453114
v 0.45356941 4.73238372 -0.21904084
v 0.42248344 4.77941513 -0.21388539
v 0.38565635 4.82275199 -0.20913514
v 0.34347057 4.86177635 -0.20485541
v 0.29642868 4.89592742 -0.20111212
v 0.24511432 4.92464447 -0.19796225
v 0.19027328 4.94749832 -0.19545754
v 0.13267803 4.96409988 -0.19363722
v 0.07321834 4.9741745 -0.19253274
v 0.01281547 4.97754669 -0.19216176
v -0.04487609 4.94979286 -0.16850873
v -0.10167503 4.94017028 -0.16956278
v -0.15671968 4.92432785 -0.1713005
v -0.20917558 4.90250396 -0.17369338
v -0.25828838 4.87505149 -0.17670199
v -0.3033781 4.84241485 -0.18028137
v -0.34386873 4.8050785 -0.18437334
v -0.37928915 4.76360702 -0.1889213
v -0.40928268 4.71856117 -0.19386026
v -0.43361234 4.6705532 -0.19912371
v -0.45215892 4.62020111 -0.20464262
v -0.46490669 4.56811523 -0.21035358
v -0.47195529 4.51486587 -0.21619162
v -0.473495 4.46104431 -0.22209331
v -0.46120214 4.35370826 -0.23385915
v 0.48684024 4.35370826 -0.23385939
v 0.49912643 4.46103858 -0.22209343
v 0.4975872 4.51486587 -0.2161909
v 0.49053764 4.56811523 -0.21035358
v 0.47778797 4.62020111 -0.20464286
v 0.4592514 4.6705532 -0.19912335
v 0.43492221 4.71856117 -0.19386073
v 0.40492153 4.76359939 -0.18892118
v 0.36950111 4.80508232 -0.18437299
v 0.32901287 4.84241485 -0.18028065
v 0.28392219 4.87505149 -0.17670199
v 0.23481178 4.90250396 -0.17369303
v 0.18235969 4.92432785 -0.1713005
v 0.12731552 4.94016647 -0.16956242
v 0.07050705 4.94979286 -0.16850897
v 0.01281547 4.95301055 -0.1681554
v -0.04288768 4.93050956 -0.14016136
v -0.09773349 4.92123031 -0.14117929
v -0.15090084 4.90594101 -0.14285573
v -0.20159435 4.8848648 -0.14516517
v -0.24908638 4.85836029 -0.14807185
v -0.29273223 4.82682991 -0.15152844
v -0.33197259 4.79074287 -0.15548512
v -0.36634779 4.7506237 -0.15988275
v -0.39552211 4.70704078 -0.16466149
v -0.4192543 4.66057968 -0.16975662
v -0.43742084 4.61180114 -0.17510375
v -0.45001268 4.56129455 -0.18063947
v -0.45710897 4.50965881 -0.1863031
v -0.4588871 4.45740318 -0.19203135
v -0.44755649 4.35314559 -0.20346137
v 0.47319126 4.35314559 -0.20346161
v 0.48452472 4.45739936 -0.19203123
v 0.48274326 4.50965881 -0.1863031
v 0.47565269 4.56129837 -0.18063935
v 0.46305561 4.61179733 -0.17510387
v 0.44488239 4.66057586 -0.16975674
v 0.42115402 4.70703506 -0.16466125
v 0.39198589 4.75061988 -0.15988299
v 0.35760688 4.79074287 -0.15548524
v 0.31836414 4.82683181 -0.15152832
v 0.27472496 4.8583641 -0.14807125
v 0.22723102 4.8848648 -0.14516505
v 0.17653942 4.90594101 -0.14285621
v 0.12337398 4.92123031 -0.14117869
v 0.06851959 4.93050575 -0.14016136
v 0.01281547 4.93361854 -0.13982042
v -0.04166507 4.91709137 -0.10858246
v -0.09532356 4.9080162 -0.10957834
v -0.14734554 4.89306259 -0.11121723
v -0.19695711 4.87244796 -0.11347731
v -0.24346256 4.84651947 -0.1163195
v -0.28621912 4.81566238 -0.11970397
v -0.32468795 4.7803421 -0.12357577
v -0.3584218 4.7410717 -0.12788125
v -0.38708496 4.69837188 -0.13256225
v -0.41044664 4.65284347 -0.13755413
v -0.42838382 4.60503196 -0.14279541
v -0.44086933 4.55550956 -0.14822432
v -0.44798469 4.50485229 -0.153779
v -0.44990205 4.45357894 -0.15940079
v -0.43914794 4.35120391 -0.1706247
v 0.4647789 4.35120391 -0.17062494
v 0.4755373 4.45358085 -0.15940031
v 0.47362232 4.50484848 -0.15377947
v 0.46649932 4.55550766 -0.14822432
v 0.45401859 4.60502815 -0.14279529
v 0.4360857 4.65283966 -0.13755413
v 0.41272163 4.69836807 -0.13256201
v 0.3840599 4.74106979 -0.12788173
v 0.35031986 4.7803421 -0.12357589
v 0.3118534 4.81565856 -0.11970314
v 0.26909732 4.84651947 -0.1163201
v 0.22259616 4.87244796 -0.11347731
v 0.17298317 4.89306259 -0.11121723
v 0.12096405 4.9080162 -0.10957774
v 0.06730556 4.91709137 -0.10858234
v 0.01281547 4.92013168 -0.10824939
v -0.04125595 4.91004562 -0.07498383
v -0.0945177 4.90104103 -0.07597172
v -0.14614582 4.88619232 -0.07759857
v -0.19539928 4.86573791 -0.0798403
v -0.24156665 4.84000206 -0.08266151
v -0.28402471 4.80937194 -0.0860202
v -0.32223367 4.77431869 -0.0898647
v -0.35575532 4.73532295 -0.09414002
v -0.38424396 4.69293594 -0.09878715
v -0.40748167 4.64770698 -0.10374531
v -0.42533445 4.60023117 -0.1089513
v -0.43778753 4.55103492 -0.11434468
v -0.44490814 4.50070381 -0.11986193
v -0.44686889 4.44976043 -0.12544676
v -0.43630504 4.34803009 -0.13660058
v 0.46194362 4.34802627 -0.13660058
v 0.47249984 4.44975853 -0.12544593
v 0.47054576 4.50069999 -0.11986228
v 0.4634161 4.55103492 -0.1143442
v 0.45096588 4.60023117 -0.1089513
v 0.43311309 4.64770698 -0.10374531
v 0.40988159 4.69293212 -0.09878644
v 0.3813858 4.73532295 -0.09413954
v 0.34787178 4.77431869 -0.08986458
v 0.30966091 4.80936813 -0.0860202
v 0.26719856 4.83999252 -0.0826627
v 0.22103691 4.86573982 -0.0798403
v 0.17177867 4.88619232 -0.07759833
v 0.12014961 4.90104103 -0.07597172
v 0.06689548 4.91004562 -0.07498383
v 0.01281547 4.91306304 -0.07465279
v -0.04166507 4.90965461 -0.04065465
v -0.09532356 4.90056991 -0.04165136
v -0.14734554 4.88561248 -0.04329013
v -0.19695711 4.86500549 -0.0455501
v -0.24346256 4.83906555 -0.04839241
v -0.28621912 4.80821037 -0.05177581
v -0.324687 4.77289772 -0.05564856
v -0.35842084 4.73362731 -0.05995392
v -0.38708496 4.69092178 -0.06463491
v -0.41044664 4.6454029 -0.06962692
v -0.42838382 4.59757995 -0.07486832
v -0.44086933 4.54805946 -0.08029735
v -0.44798469 4.49739837 -0.08585211
v -0.44990205 4.44612693 -0.09147366
v -0.43914794 4.34375381 -0.10269686
v 0.4647789 4.34375381 -0.10269615
v 0.4755373 4.44612693 -0.09147378
v 0.47362232 4.49739456 -0.08585199
v 0.46649932 4.54806327 -0.08029723
v 0.45401859 4.59757995 -0.07486856
v 0.43608474 4.64539909 -0.06962752
v 0.41272163 4.69092178 -0.06463503
v 0.3840599 4.73362731 -0.05995404
v 0.3503189 4.77289772 -0.05564856
v 0.3118534 4.80821037 -0.05177557
v 0.26909732 4.83906173 -0.04839277
v 0.22259616 4.86500549 -0.0455501
v 0.17298317 4.88561248 -0.04329013
v 0.12096405 4.90056991 -0.04165136
v 0.06730556 4.90965461 -0.04065465
v 0.01281547 4.9126873 -0.04032206
v -0.04288768 4.91589736 -0.00691986
v -0.09773349 4.90661621 -0.0079379
v -0.15090084 4.89132881 -0.00961506
v -0.20159435 4.87026405 -0.01192414
v -0.24908638 4.84375381 -0.0148313
v -0.29273128 4.81221771 -0.01828777
v -0.33197259 4.77613449 -0.02224385
v -0.36634779 4.73602104 -0.02664089
v -0.39552211 4.69243621 -0.03142023
v -0.41925525 4.64596557 -0.03651475
v -0.43742084 4.59718704 -0.04186272
v -0.45001316 4.54668998 -0.04739928
v -0.45710897 4.4950447 -0.05306065
v -0.4588871 4.44279098 -0.05878937
v -0.44755649 4.3385353 -0.07022023
v 0.47319126 4.3385353 -0.07021951
v 0.48452472 4.44278907 -0.0587902
v 0.48274326 4.4950447 -0.05306136
v 0.47565269 4.54668617 -0.04739856
v 0.46305561 4.59718704 -0.04186248
v 0.4448843 4.64596557 -0.03651475
v 0.42115402 4.69243431 -0.03142035
v 0.39198589 4.73601913 -0.02664089
v 0.35760688 4.77613067 -0.02224397
v 0.31836414 4.81222152 -0.01828706
v 0.27472496 4.84375381 -0.01483094
v 0.22723102 4.87026023 -0.01192474
v 0.17653942 4.89132881 -0.00961482
v 0.12337398 4.90661621 -0.00793778
v 0.06851959 4.91589736 -0.00691986
v 0.01281547 4.91901588 -0.00657904
v -0.04487514 4.92857933 0.02493035
v -0.10167598 4.91896247 0.02387559
v -0.15671968 4.9031105 0.0221374
v -0.20917558 4.88129806 0.01974487
v -0.25828838 4.85383987 0.01673626
v -0.3033781 4.82120895 0.01315796
v -0.34386682 4.78386306 0.0090655
v -0.37928915 4.7423954 0.00451815
v -0.40928268 4.69734954 -0.00042164
v -0.4336133 4.6493473 -0.00568378
v -0.45215892 4.5989952 -0.01120412
v -0.46490669 4.54690551 -0.01691484
v -0.47195529 4.4936676 -0.0227524
v -0.47349596 4.43982696 -0.02865517
v -0.46120214 4.33249282 -0.04042077
v 0.48684024 4.33248901 -0.04042077
v 0.49912643 4.43982505 -0.02865445
v 0.4975872 4.4936676 -0.02275228
v 0.49053764 4.54690551 -0.01691401
v 0.47778797 4.5989933 -0.01120436
v 0.4592514 4.64934349 -0.00568461
v 0.43492221 4.69734573 -0.00042223
v 0.40492153 4.74239349 0.00451791
v 0.36950111 4.78386306 0.00906527
v 0.32901191 4.82120895 0.01315796
v 0.28392219 4.85383987 0.0167365
v 0.23481178 4.88130188 0.01974463
v 0.18235969 4.9031105 0.02213764
v 0.12731552 4.91895866 0.02387559
v 0.070508 4.92857933 0.02493035
v 0.01281547 4.93180465 0.02528262
v -0.04758548 4.9471817 0.05366766
v -0.10704708 4.93710517 0.05256342
v -0.16463375 4.92050552 0.05074226
v -0.21948576 4.89765167 0.0482372
v -0.27078914 4.8689289 0.04508864
v -0.31783676 4.83477973 0.04134428
v -0.36001777 4.79575157 0.03706491
v -0.39684248 4.75241088 0.03231406
v -0.42793798 4.70539093 0.02715897
v -0.45305872 4.65532302 0.02166771
v -0.47209167 4.60284423 0.01591575
v -0.48503112 4.54859352 0.0099684
v -0.49199056 4.4932022 0.00389552
v -0.49318695 4.4372425 -0.0022397
v -0.47953987 4.32581329 -0.01445758
v 0.50517559 4.32580947 -0.01445674
v 0.51881885 4.4372406 -0.00224065
v 0.51762867 4.49319839 0.00389373
v 0.5106678 4.54859352 0.00996899
v 0.49772453 4.60284233 0.01591622
v 0.47869586 4.65532302 0.02166867
v 0.4535675 4.70538902 0.02715826
v 0.42248249 4.75240707 0.0323137
v 0.38565635 4.79575347 0.03706491
v 0.34347057 4.83478355 0.04134476
v 0.29642868 4.8689289 0.04508793
v 0.24511432 4.89765167 0.04823744
v 0.19027328 4.92050552 0.05074274
v 0.13267803 4.93710136 0.05256247
v 0.07321834 4.9471817 0.05366718
v 0.01281547 4.9505577 0.05403816
v -0.05093193 4.97100448 0.07818901
v -0.1136713 4.96035385 0.07702219
v -0.17440605 4.94281387 0.0750997
v -0.23220443 4.91870307 0.07245409
v -0.28620958 4.88838386 0.06913149
v -0.33566093 4.85237503 0.06518423
v -0.3799138 4.81124305 0.06067621
v -0.41844701 4.76562309 0.05567312
v -0.45087242 4.71617317 0.05025231
v -0.47693872 4.66357231 0.0444833
v -0.49653625 4.60848808 0.03844308
v -0.50967598 4.55160903 0.0322076
v -0.51649284 4.49357605 0.02584743
v -0.51722526 4.43503189 0.01942932
v -0.50183963 4.31860351 0.00666463
v 0.52747821 4.3185997 0.00666487
v 0.54285717 4.43502807 0.01942896
v 0.5421276 4.49357605 0.02584672
v 0.53530979 4.55161666 0.03220808
v 0.52217292 4.60848426 0.03844332
v 0.50257778 4.66356658 0.04448378
v 0.47650909 4.71616935 0.05025112
v 0.44408226 4.76562309 0.05567216
v 0.40554809 4.81124305 0.06067585
v 0.3612957 4.85237884 0.06518399
v 0.31184482 4.88838386 0.06913125
v 0.25783634 4.91870307 0.07245433
v 0.20003795 4.94281387 0.07510054
v 0.13930797 4.96035385 0.07702148
v 0.07657337 4.97100448 0.07818877
v 0.01281547 4.97456169 0.07857966
v -0.05481243 4.99911117 0.09755277
v -0.12135028 4.98780822 0.09631311
v -0.18572473 4.96918869 0.09427058
v -0.24693441 4.94358062 0.09146344
v -0.30405569 4.91143035 0.08793902
v -0.3562746 4.87326049 0.08375561
v -0.40289831 4.82971 0.07897937
v -0.44337749 4.78145027 0.07368874
v -0.47730827 4.72918319 0.06795883
v -0.50443077 4.67363929 0.06186974
v -0.52464008 4.61557769 0.05550277
v -0.53796291 4.55568695 0.04893744
v -0.54455947 4.49466896 0.04224681
v -0.54470777 4.43316459 0.03550398
v -0.52722454 4.31108093 0.02211976
v 0.55286407 4.31108093 0.02211892
v 0.57034015 4.43316268 0.03550374
v 0.5701971 4.49466896 0.04224729
v 0.56359386 4.55568504 0.04893791
v 0.55027008 4.61557769 0.05550348
v 0.53006744 4.67363929 0.06187021
v 0.50294303 4.72918319 0.06795871
v 0.46900749 4.78145027 0.0736885
v 0.4285345 4.82971382 0.07897961
v 0.38190555 4.87326049 0.08375561
v 0.32968807 4.91142654 0.0879395
v 0.2725687 4.94358062 0.09146404
v 0.21135711 4.96918869 0.09427177
v 0.14698505 4.98780822 0.09631216
v 0.08044624 4.99911308 0.09755253
v 0.01281547 5.00290679 0.09796786
v -0.08389091 5.21580505 0.05641901
v -0.17884302 5.19942665 0.05462288
v -0.27035474 5.17250251 0.05167222
v -0.35684061 5.1356163 0.04762959
v -0.4368596 5.08951187 0.04257357
v -0.50916957 5.03510856 0.03660857
v -0.57275581 4.97340202 0.0298438
v -0.62683057 4.90550994 0.02240133
v -0.67087793 4.83259964 0.01440703
v -0.70461559 4.75579452 0.00598585
v -0.72802114 4.67617797 -0.00274205
v -0.74128913 4.59483718 -0.01165986
v -0.74482059 4.51268768 -0.0206654
v -0.73919916 4.43066024 -0.02965891
v -0.70348596 4.26980972 -0.04729449
v 0.72911644 4.269804 -0.04729461
v 0.76482772 4.43065834 -0.02965915
v 0.77045536 4.51268959 -0.02066445
v 0.76692867 4.59483337 -0.01166045
v 0.75365543 4.67617797 -0.00274264
v 0.73025512 4.75579261 0.00598514
v 0.69651031 4.83259964 0.01440703
v 0.65246868 4.90550994 0.02240037
v 0.59839344 4.97340202 0.02984452
v 0.53480815 5.03510856 0.03660857
v 0.4624958 5.0895195 0.042575
v 0.38247489 5.1356163 0.04762935
v 0.29598999 5.17250251 0.05167293
v 0.20447444 5.19942474 0.05462312
v 0.109519 5.21580505 0.05641901
v 0.01281547 5.2212944 0.05702173
v -0.08623027 5.2350502 0.0280683
v -0.18347644 5.21825218 0.0262283
v -0.27716445 5.19064712 0.0232023
v -0.36566638 5.15284919 0.0190562
v -0.44749927 5.10559463 0.01387679
v -0.52138614 5.04986381 0.00776588
v -0.58628082 4.98670005 0.00084137
v -0.64138603 4.91724777 -0.00677287
v -0.68616581 4.84268951 -0.01494765
v -0.72034549 4.76419448 -0.02355253
v -0.74391603 4.68291473 -0.03246331
v -0.75708103 4.59991836 -0.04156351
v -0.76026821 4.51617622 -0.05074369
v -0.75408363 4.43259048 -0.05990767
v -0.71673631 4.2688713 -0.07785749
v 0.74237251 4.2688694 -0.07785654
v 0.7797203 4.43258857 -0.05990696
v 0.78590107 4.51617622 -0.05074346
v 0.78271579 4.59991836 -0.04156327
v 0.7695465 4.68291854 -0.03246295
v 0.74598598 4.76419448 -0.02355265
v 0.71180152 4.84267997 -0.01494777
v 0.66702079 4.91724205 -0.00677371
v 0.61191654 4.98670005 0.00084149
v 0.54702186 5.04986763 0.00776636
v 0.4731388 5.10559463 0.01387751
v 0.39130401 5.15284919 0.01905691
v 0.30280304 5.19065094 0.0232023
v 0.20910644 5.21825599 0.0262283
v 0.11186695 5.23504829 0.02806901
v 0.01281547 5.2406845 0.02868902
v -0.0876789 5.24844741 -0.0035119
v -0.18634414 5.2313919 -0.0053817
v -0.28138637 5.20336151 -0.00845384
v -0.37113523 5.16498947 -0.01266145
v -0.45409059 5.11703681 -0.01791822
v -0.52895116 5.06047439 -0.02411854
v -0.59465074 4.99640083 -0.03114318
v -0.65038585 4.9259758 -0.03886473
v -0.69561576 4.85041809 -0.04715013
v -0.73007011 4.77088165 -0.05586898
v -0.75373125 4.68856811 -0.06489312
v -0.76682472 4.6045475 -0.0741049
v -0.76979446 4.51982498 -0.08339428
v -0.76325607 4.4352951 -0.09266218
v -0.72488498 4.26981735 -0.11080405
v 0.75052452 4.2698059 -0.11080333
v 0.7888937 4.4352951 -0.09266147
v 0.79542446 4.51982307 -0.08339357
v 0.79246234 4.60454177 -0.07410454
v 0.7793684 4.6885662 -0.06489372
v 0.75570297 4.77087211 -0.05586898
v 0.72124862 4.85041046 -0.04715013
v 0.67602062 4.92597198 -0.03886437
v 0.62028503 4.99639511 -0.03114354
v 0.55458641 5.06047439 -0.0241183
v 0.47972011 5.117033 -0.0179187
v 0.39676952 5.16498565 -0.01266157
v 0.30701637 5.20336532 -0.00845408
v 0.21198082 5.2313919 -0.00538194
v 0.11331939 5.24844741 -0.0035119
v 0.01281547 5.25418281 -0.00288343
v 0.55120563 4.32588768 -0.10942217
v -0.52557182 4.32588768 -0.10942217
v -0.75854587 4.26605987 -0.14558681
v -0.75521564 4.27161407 -0.18651256
v 0.7808485 4.27161407 -0.18651267
v 0.78418159 4.26605606 -0.14558753
v -0.74088573 4.28193664 -0.24295041
v 0.7665205 4.28193283 -0.24294993
v 0.44409656 4.33920478 -0.05608844
v 0.43389797 4.34518814 -0.09537681
v -0.40826606 4.34518814 -0.09537693
v -0.4184575 4.33920478 -0.05608844
v 0.46063995 4.33243179 -0.02000308
v -0.43500328 4.33243179 -0.02000308
v 0.48289299 4.32501411 0.01147592
v -0.4572525 4.32501411 0.01147592
v 0.50996398 4.31706237 0.03712022
v -0.48433065 4.31706428 0.0371195
v 0.54953384 4.30716323 0.0612576
v -0.52389907 4.30716705 0.06125855
v 0.77098274 4.2614212 -0.06461596
v 0.7503395 4.2622509 -0.0174483
v -0.72470569 4.2622509 -0.01744782
v -0.74534368 4.2614212 -0.06461596
v -0.75521564 4.26262474 -0.1044285
v 0.7808485 4.26262474 -0.1044285
v -0.46721029 4.35831832 -0.30037781
v 0.49284458 4.35831832 -0.30037781
v -0.4350028 4.35806465 -0.25380715
v 0.4606409 4.35806083 -0.2538068
v -0.4184575 4.35685539 -0.21711203
v 0.44409656 4.35685157 -0.21711215
v -0.40826606 4.35417556 -0.17746064
v 0.43389797 4.35417556 -0.17746064
v -0.40482139 4.35023307 -0.13635894
v 0.43045902 4.35023117 -0.1363587
v 0.81673431 4.41727447 -0.17054268
v 0.82042789 4.41229248 -0.12955448
v 0.80887413 4.43514251 -0.12705013
v 0.8054552 4.4396553 -0.16457971
v 0.80103683 4.4259243 -0.2271634
v 0.79341697 4.44621276 -0.21005567
v 0.45230484 4.42383194 -0.04681146
v 0.44156646 4.42790985 -0.08630761
v 0.45910263 4.4469738 -0.08772727
v 0.46902656 4.44324111 -0.05157089
v 0.4697752 4.42013359 -0.01038956
v 0.48516559 4.43988609 -0.01823043
v 0.49332714 4.41682434 0.02154099
v 0.50692367 4.43691825 0.01099526
v 0.52210235 4.4138813 0.04773545
v 0.53348732 4.43430328 0.03496873
v 0.5641365 4.40961456 0.07248973
v 0.56855869 4.43118095 0.05546605
v 0.80577087 4.4053421 -0.04883658
v 0.78313159 4.40340042 -0.00197231
v 0.77639579 4.42666053 -0.01445305
v 0.79532909 4.4285984 -0.05317485
v 0.8167324 4.40827751 -0.0884597
v 0.8054552 4.43141555 -0.08943316
v 0.50366878 4.45008659 -0.29031571
v 0.51196861 4.46719741 -0.26951214
v 0.4697752 4.44575882 -0.24419292
v 0.48516655 4.46335792 -0.23225578
v 0.45230484 4.44147872 -0.20783469
v 0.46902656 4.4594078 -0.19898089
v 0.44156646 4.43691253 -0.16839072
v 0.45910358 4.45521354 -0.16287383
v 0.43793964 4.43232154 -0.12735876
v 0.45575809 4.45101356 -0.12531015
v -0.79384136 4.40837097 -0.12998482
v -0.79014968 4.41335678 -0.1709741
v -0.77982473 4.43966293 -0.16458031
v -0.78324222 4.43515205 -0.12704965
v -0.77447986 4.42198181 -0.22759518
v -0.76726341 4.44624328 -0.20941135
v -0.41556739 4.42388916 -0.08674916
v -0.42629098 4.41980552 -0.04725182
v -0.44339513 4.44324493 -0.05156993
v -0.43347024 4.44697761 -0.08772739
v -0.44373178 4.4161129 -0.01083016
v -0.4595294 4.4398899 -0.01823079
v -0.46724891 4.41282272 0.02110266
v -0.48128509 4.43692207 0.01099598
v -0.49598026 4.40987396 0.04729545
v -0.5078578 4.43430709 0.03496837
v -0.53794145 4.40561294 0.07205188
v -0.54292583 4.43118476 0.05546629
v -0.75659847 4.39945793 -0.0024048
v -0.77920913 4.40141105 -0.0492686
v -0.76969909 4.42860412 -0.05317521
v -0.75076532 4.42666435 -0.01445269
v -0.79014873 4.40435791 -0.08889088
v -0.77982378 4.43141555 -0.0894334
v -0.47757291 4.44607162 -0.29075583
v -0.48660278 4.46709251 -0.26869258
v -0.44373178 4.44175338 -0.24463388
v -0.4595294 4.46335792 -0.23225542
v -0.42629098 4.43745613 -0.20827588
v -0.44339513 4.45941352 -0.19898089
v -0.41556644 4.43288803 -0.16883191
v -0.43347024 4.45520973 -0.16287443
v -0.41195058 4.42828941 -0.12780055
v -0.43012285 4.45101356 -0.12531063
g Group10
f 100 99 98 97
g Group15
f 64 33 98 99
g Group20
f 32 1 193 194
g Group10
f 97 98 102 101
g Group15
f 33 34 102 98
g Group20
f 1 2 195 193
g Group10
f 101 102 104 103
g Group15
f 34 35 104 102
g Group20
f 2 3 196 195
g Group10
f 103 104 106 105
g Group15
f 35 36 106 104
g Group20
f 3 4 197 196
g Group10
f 105 106 108 107
g Group15
f 36 37 108 106
g Group20
f 4 5 198 197
g Group10
f 107 108 110 109
g Group15
f 37 38 110 108
g Group20
f 5 6 199 198
g Group10
f 109 110 112 111
g Group15
f 38 39 112 110
g Group20
f 6 7 200 199
g Group10
f 111 112 114 113
g Group15
f 39 40 114 112
g Group20
f 7 8 201 200
g Group10
f 113 114 116 115
g Group15
f 40 41 116 114
g Group20
f 8 9 202 201
g Group10
f 115 116 118 117
g Group15
f 41 42 118 116
g Group20
f 9 10 203 202
g Group10
f 117 118 120 119
g Group15
f 42 43 120 118
g Group20
f 10 11 204 203
g Group10
f 119 120 122 121
g Group15
f 43 44 122 120
g Group20
f 11 12 205 204
g Group10
f 121 122 124 123
g Group15
f 44 45 124 122
g Group20
f 12 13 206 205
g Group10
f 123 124 126 125
g Group15
f 45 46 126 124
g Group20
f 13 14 207 206
g Group10
f 125 126 128 127
g Group15
f 46 47 128 126
g Group20
f 14 15 208 207
g Group10
f 127 128 130 129
g Group15
f 47 48 130 128
g Group20
f 15 16 209 208
g Group10
f 129 130 132 131
g Group15
f 48 49 132 130
g Group20
f 16 17 210 209
g Group10
f 131 132 134 133
g Group15
f 49 50 134 132
g Group20
f 17 18 211 210
g Group10
f 133 134 136 135
g Group15
f 50 51 136 134
g Group20
f 18 19 212 211
g Group10
f 135 136 138 137
g Group15
f 51 52 138 136
g Group20
f 19 20 213 212
g Group10
f 137 138 140 139
g Group15
f 52 53 140 138
g Group20
f 20 21 214 213
g Group10
f 139 140 142 141
g Group15
f 53 54 142 140
g Group20
f 21 22 215 214
g Group10
f 141 142 144 143
g Group15
f 54 55 144 142
g Group20
f 22 23 216 215
g Group10
f 143 144 146 145
g Group15
f 55 56 146 144
g Group20
f 23 24 217 216
g Group10
f 145 146 148 147
g Group15
f 56 57 148 146
g Group20
f 24 25 218 217
g Group10
f 147 148 150 149
g Group15
f 57 58 150 148
g Group20
f 25 26 219 218
g Group10
f 149 150 152 151
g Group15
f 58 59 152 150
g Group20
f 26 27 220 219
g Group10
f 151 152 154 153
g Group15
f 59 60 154 152
g Group20
f 27 28 221 220
g Group10
f 153 154 156 155
g Group15
f 60 61 156 154
g Group20
f 28 29 222 221
g Group10
f 155 156 158 157
g Group15
f 61 62 158 156
g Group20
f 29 30 223 222
g Group10
f 157 158 160 159
g Group15
f 62 63 160 158
g Group20
f 30 31 224 223
g Group10
f 159 160 99 100
g Group15
f 63 64 99 160
g Group20
f 31 32 194 224
g Group10
f 125 127 162 161
g Group25
f 65 66 161 162
g Group20
f 14 225 226 15
g Group10
f 100 97 164 163
g Group30
f 67 68 163 164
g Group20
f 32 227 228 1
g Group10
f 113 115 166 165
g Group30
f 69 70 165 166
g Group20
f 8 229 230 9
g Group10
f 141 143 168 167
g Group35
f 71 72 167 168
g Group20
f 22 231 232 23
g Group10
f 145 147 170 169
g Group35
f 73 74 169 170
g Group20
f 24 233 234 25
g Group10
f 123 125 161 171
g Group25
f 66 75 171 161
g Group20
f 13 235 225 14
g Group10
f 143 145 169 168
g Group35
f 74 71 168 169
g Group20
f 23 232 233 24
g Group10
f 107 109 173 172
g Group30
f 76 77 172 173
g Group20
f 5 236 237 6
g Group10
f 109 111 174 173
g Group30
f 78 76 173 174
g Group20
f 6 237 238 7
g Group10
f 129 131 176 175
g Group25
f 79 80 175 176
g Group20
f 16 239 240 17
g Group10
f 147 149 177 170
g Group35
f 81 73 170 177
g Group20
f 25 234 241 26
g Group10
f 157 159 179 178
g Group35
f 82 83 178 179
g Group20
f 30 242 243 31
g Group10
f 131 133 180 176
g Group25
f 84 79 176 180
g Group20
f 17 240 244 18
g Group10
f 115 117 181 166
g Group30
f 85 69 166 181
g Group20
f 9 230 245 10
g Group10
f 97 101 182 164
g Group30
f 86 67 164 182
g Group20
f 1 228 246 2
g Group10
f 151 153 184 183
g Group35
f 87 88 183 184
g Group20
f 27 247 248 28
g Group10
f 121 123 171 185
g Group25
f 75 89 185 171
g Group20
f 12 249 235 13
g Group10
f 155 157 178 186
g Group35
f 83 90 186 178
g Group20
f 29 250 242 30
g Group10
f 133 135 187 180
g Group25
f 91 84 180 187
g Group20
f 18 244 251 19
g Group10
f 105 107 172 188
g Group30
f 77 92 188 172
g Group20
f 4 252 236 5
g Group10
f 117 119 189 181
g Group30
f 93 85 181 189
g Group20
f 10 245 253 11
g Group10
f 101 103 190 182
g Group30
f 94 86 182 190
g Group20
f 2 246 254 3
g Group10
f 149 151 183 177
g Group35
f 88 81 177 183
g Group20
f 26 241 247 27
g Group10
f 139 141 167 191
g Group35
f 72 95 191 167
g Group20
f 21 255 231 22
g Group10
f 135 137 192 187
g Group25
f 96 91 187 192
g Group20
f 19 251 256 20
g Group10
f 119 121 185 189
g Group25
f 89 93 189 185
g Group20
f 11 253 249 12
g Group10
f 103 105 188 190
g Group30
f 92 94 190 188
g Group20
f 3 254 252 4
g Group10
f 153 155 186 184
g Group35
f 90 87 184 186
g Group20
f 28 248 250 29
g Group10
f 127 129 175 162
g Group25
f 80 65 162 175
g Group20
f 15 226 239 16
g Group10
f 137 139 191 192
g Group25
f 95 96 192 191
g Group20
f 20 256 255 21
g Group10
f 111 113 165 174
g Group30
f 70 78 174 165
g Group20
f 7 238 229 8
g Group10
f 159 100 163 179
g Group35
f 68 82 179 163
g Group20
f 31 243 227 32
f 194 193 257 258
f 193 195 259 257
f 195 196 260 259
f 196 197 261 260
f 197 198 262 261
f 198 199 263 262
f 199 200 264 263
f 200 201 265 264
f 201 202 266 265
f 202 203 267 266
f 203 204 268 267
f 204 205 269 268
f 205 206 270 269
f 206 207 271 270
f 207 208 272 271
f 208 209 273 272
f 209 210 274 273
f 210 211 275 274
f 211 212 276 275
f 212 213 277 276
f 213 214 278 277
f 214 215 279 278
f 215 216 280 279
f 216 217 281 280
f 217 218 282 281
f 218 219 283 282
f 219 220 284 283
f 220 221 285 284
f 221 222 286 285
f 222 223 287 286
f 223 224 288 287
f 224 194 258 288
f 225 66 65 226
f 227 68 67 228
f 229 70 69 230
f 231 72 71 232
f 233 74 73 234
f 235 75 66 225
f 232 71 74 233
f 236 77 76 237
f 237 76 78 238
f 239 80 79 240
f 234 73 81 241
f 242 83 82 243
f 240 79 84 244
f 230 69 85 245
f 228 67 86 246
f 247 88 87 248
f 249 89 75 235
f 250 90 83 242
f 244 84 91 251
f 252 92 77 236
f 245 85 93 253
f 246 86 94 254
f 241 81 88 247
f 255 95 72 231
f 251 91 96 256
f 253 93 89 249
f 254 94 92 252
f 248 87 90 250
f 226 65 80 239
f 256 96 95 255
f 238 78 70 229
f 243 82 68 227
f 292 291 290 289
g Group15
f 33 64 289 290
g Group20
f 258 257 291 292
f 291 294 293 290
g Group15
f 34 33 290 293
g Group20
f 257 259 294 291
f 294 296 295 293
g Group15
f 35 34 293 295
g Group20
f 259 260 296 294
f 296 298 297 295
g Group15
f 36 35 295 297
g Group20
f 260 261 298 296
f 298 300 299 297
g Group15
f 37 36 297 299
g Group20
f 261 262 300 298
f 300 302 301 299
g Group15
f 38 37 299 301
g Group20
f 262 263 302 300
f 302 304 303 301
g Group15
f 39 38 301 303
g Group20
f 263 264 304 302
f 304 306 305 303
g Group15
f 40 39 303 305
g Group20
f 264 265 306 304
f 306 308 307 305
g Group15
f 41 40 305 307
g Group20
f 265 266 308 306
f 308 310 309 307
g Group15
f 42 41 307 309
g Group40
f 266 267 310 308
g Group20
f 310 312 311 309
g Group15
f 43 42 309 311
g Group45
f 267 268 312 310
g Group20
f 312 314 313 311
g Group15
f 44 43 311 313
g Group45
f 268 269 314 312
g Group20
f 314 316 315 313
g Group15
f 45 44 313 315
g Group45
f 269 270 316 314
g Group20
f 316 318 317 315
g Group15
f 46 45 315 317
g Group45
f 270 271 318 316
g Group20
f 318 320 319 317
g Group15
f 47 46 317 319
g Group45
f 271 272 320 318
g Group20
f 320 322 321 319
g Group15
f 48 47 319 321
g Group45
f 272 273 322 320
g Group20
f 322 324 323 321
g Group15
f 49 48 321 323
g Group45
f 273 274 324 322
g Group20
f 324 326 325 323
g Group15
f 50 49 323 325
g Group45
f 274 275 326 324
g Group20
f 326 328 327 325
g Group15
f 51 50 325 327
g Group45
f 275 276 328 326
g Group20
f 328 330 329 327
g Group15
f 52 51 327 329
g Group45
f 276 277 330 328
g Group20
f 330 332 331 329
g Group15
f 53 52 329 331
g Group45
f 277 278 332 330
g Group20
f 332 334 333 331
g Group15
f 54 53 331 333
g Group45
f 278 279 334 332
g Group20
f 334 336 335 333
g Group15
f 55 54 333 335
g Group50
f 279 280 336 334
g Group20
f 336 338 337 335
g Group15
f 56 55 335 337
g Group20
f 280 281 338 336
f 338 340 339 337
g Group15
f 57 56 337 339
g Group20
f 281 282 340 338
f 340 342 341 339
g Group15
f 58 57 339 341
g Group20
f 282 283 342 340
f 342 344 343 341
g Group15
f 59 58 341 343
g Group20
f 283 284 344 342
f 344 346 345 343
g Group15
f 60 59 343 345
g Group20
f 284 285 346 344
f 346 348 347 345
g Group15
f 61 60 345 347
g Group20
f 285 286 348 346
f 348 350 349 347
g Group15
f 62 61 347 349
g Group20
f 286 287 350 348
f 350 352 351 349
g Group15
f 63 62 349 351
g Group20
f 287 288 352 350
f 352 292 289 351
g Group15
f 64 63 351 289
g Group20
f 288 258 292 352
g Group55
f 353 384 385 354
f 354 385 386 355
f 355 386 387 356
f 356 387 388 357
f 357 388 389 358
f 358 389 390 359
f 359 390 391 360
f 360 391 392 361
f 361 392 393 362
f 362 393 394 363
f 363 394 395 364
f 364 395 396 365
f 365 396 397 366
g Group60
f 739 677 708
g Group65
f 368 430 399
g Group55
f 369 400 401 370
f 370 401 402 371
f 371 402 403 372
f 372 403 404 373
f 373 404 405 374
f 374 405 406 375
f 375 406 407 376
f 376 407 408 377
f 377 408 409 378
f 378 409 410 379
f 379 410 411 380
f 380 411 412 381
f 381 412 413 382
f 382 413 414 383
f 383 414 384 353
f 384 415 416 385
f 385 416 417 386
f 386 417 418 387
f 387 418 419 388
f 388 419 420 389
f 389 420 421 390
f 390 421 422 391
f 391 422 423 392
f 392 423 424 393
f 393 424 425 394
f 394 425 426 395
f 395 426 427 396
f 396 427 428 397
g Group60
f 739 770 677
g Group65
f 368 864 430
g Group55
f 400 431 432 401
f 401 432 433 402
f 402 433 434 403
f 403 434 435 404
f 404 435 436 405
f 405 436 437 406
f 406 437 438 407
f 407 438 439 408
f 408 439 440 409
f 409 440 441 410
f 410 441 442 411
f 411 442 443 412
f 412 443 444 413
f 413 444 445 414
f 414 445 415 384
f 631 662 632 601
f 630 661 662 631
f 629 660 661 630
f 628 659 660 629
f 627 658 659 628
f 626 657 658 627
f 625 656 657 626
f 624 655 656 625
f 623 654 655 624
f 622 653 654 623
f 621 652 653 622
f 620 651 652 621
f 619 650 651 620
f 618 649 650 619
f 617 648 649 618
g Group65
f 864 833 430
g Group60
f 770 881 677
g Group55
f 613 644 645 614
f 612 643 644 613
f 611 642 643 612
f 610 641 642 611
f 609 640 641 610
f 608 639 640 609
f 607 638 639 608
f 606 637 638 607
f 605 636 637 606
f 604 635 636 605
f 603 634 635 604
f 602 633 634 603
f 601 632 633 602
f 662 693 663 632
f 661 692 693 662
f 660 691 692 661
f 659 690 691 660
f 658 689 690 659
f 657 688 689 658
f 656 687 688 657
f 655 686 687 656
f 654 685 686 655
f 653 684 685 654
f 652 683 684 653
f 651 682 683 652
f 650 681 682 651
f 649 680 681 650
f 648 679 680 649
g Group65
f 833 802 430
g Group60
f 770 801 881
g Group55
f 644 675 676 645
f 643 674 675 644
f 642 673 674 643
f 641 672 673 642
f 640 671 672 641
f 639 670 671 640
f 638 669 670 639
f 637 668 669 638
f 636 667 668 637
f 635 666 667 636
f 634 665 666 635
f 633 664 665 634
f 632 663 664 633
f 693 724 694 663
f 692 723 724 693
f 691 722 723 692
f 690 721 722 691
f 689 720 721 690
f 688 719 720 689
f 687 718 719 688
f 686 717 718 687
f 685 716 717 686
f 684 715 716 685
f 683 714 715 684
f 682 713 714 683
f 681 712 713 682
f 680 711 712 681
f 679 710 711 680
g Group65
f 709 771 740
g Group60
f 801 429 881
g Group55
f 675 706 707 676
f 674 705 706 675
f 673 704 705 674
f 672 703 704 673
f 671 702 703 672
f 670 701 702 671
f 669 700 701 670
f 668 699 700 669
f 667 698 699 668
f 666 697 698 667
f 665 696 697 666
f 664 695 696 665
f 663 694 695 664
f 724 755 725 694
f 723 754 755 724
f 722 753 754 723
f 721 752 753 722
f 720 751 752 721
f 719 750 751 720
f 718 749 750 719
f 717 748 749 718
f 716 747 748 717
f 715 746 747 716
f 714 745 746 715
f 713 744 745 714
f 712 743 744 713
f 711 742 743 712
f 710 741 742 711
g Group65
f 709 678 771
g Group60
f 367 832 863
g Group55
f 706 737 738 707
f 705 736 737 706
f 704 735 736 705
f 703 734 735 704
f 702 733 734 703
f 701 732 733 702
f 700 731 732 701
f 699 730 731 700
f 698 729 730 699
f 697 728 729 698
f 696 727 728 697
f 695 726 727 696
f 694 725 726 695
f 755 786 756 725
f 754 785 786 755
f 753 784 785 754
f 752 783 784 753
f 751 782 783 752
f 750 781 782 751
f 749 780 781 750
f 748 779 780 749
f 747 778 779 748
f 746 777 778 747
f 745 776 777 746
f 744 775 776 745
f 743 774 775 744
f 742 773 774 743
f 741 772 773 742
g Group65
f 678 880 771
g Group60
f 367 398 832
g Group55
f 737 768 769 738
f 736 767 768 737
f 735 766 767 736
f 734 765 766 735
f 733 764 765 734
f 732 763 764 733
f 731 762 763 732
f 730 761 762 731
f 729 760 761 730
f 728 759 760 729
f 727 758 759 728
f 726 757 758 727
f 725 756 757 726
f 817 848 818 787
f 816 847 848 817
f 815 846 847 816
f 814 845 846 815
f 813 844 845 814
f 812 843 844 813
f 811 842 843 812
f 810 841 842 811
f 809 840 841 810
f 808 839 840 809
f 807 838 839 808
f 806 837 838 807
f 805 836 837 806
f 804 835 836 805
f 803 834 835 804
g Group65
f 880 802 771
g Group60
f 398 429 832
g Group55
f 799 830 831 800
f 798 829 830 799
f 797 828 829 798
f 796 827 828 797
f 795 826 827 796
f 794 825 826 795
f 793 824 825 794
f 792 823 824 793
f 791 822 823 792
f 790 821 822 791
f 789 820 821 790
f 788 819 820 789
f 787 818 819 788
f 786 817 787 756
f 785 816 817 786
f 784 815 816 785
f 783 814 815 784
f 782 813 814 783
f 781 812 813 782
f 780 811 812 781
f 779 810 811 780
f 778 809 810 779
f 777 808 809 778
f 776 807 808 777
f 775 806 807 776
f 774 805 806 775
f 773 804 805 774
f 772 803 804 773
g Group65
f 880 430 802
g Group60
f 429 801 832
g Group55
f 768 799 800 769
f 767 798 799 768
f 766 797 798 767
f 765 796 797 766
f 764 795 796 765
f 763 794 795 764
f 762 793 794 763
f 761 792 793 762
f 760 791 792 761
f 759 790 791 760
f 758 789 790 759
f 757 788 789 758
f 756 787 788 757
f 818 849 850 819
f 819 850 851 820
f 820 851 852 821
f 821 852 853 822
f 822 853 854 823
f 823 854 855 824
f 824 855 856 825
f 825 856 857 826
f 826 857 858 827
f 827 858 859 828
f 828 859 860 829
f 829 860 861 830
f 830 861 862 831
g Group60
f 881 615 677
g Group65
f 678 616 880
g Group55
f 834 865 866 835
f 835 866 867 836
f 836 867 868 837
f 837 868 869 838
f 838 869 870 839
f 839 870 871 840
f 840 871 872 841
f 841 872 873 842
f 842 873 874 843
f 843 874 875 844
f 844 875 876 845
f 845 876 877 846
f 846 877 878 847
f 847 878 879 848
f 848 879 849 818
g Group70
f 415 446 447 416
f 416 447 448 417
f 417 448 449 418
f 418 449 450 419
f 419 450 451 420
f 420 451 452 421
f 421 452 453 422
f 422 453 454 423
f 423 454 455 424
f 424 455 456 425
f 425 456 457 426
f 426 457 458 427
f 427 458 459 428
g Group60
f 615 646 677
g Group65
f 678 647 616
g Group70
f 431 462 463 432
f 432 463 464 433
f 433 464 465 434
f 434 465 466 435
f 435 466 467 436
f 436 467 468 437
f 437 468 469 438
f 438 469 470 439
f 439 470 471 440
f 440 471 472 441
f 441 472 473 442
f 442 473 474 443
f 443 474 475 444
f 444 475 476 445
f 445 476 446 415
g Group55
f 849 353 354 850
f 850 354 355 851
f 851 355 356 852
f 852 356 357 853
f 853 357 358 854
f 854 358 359 855
f 855 359 360 856
f 856 360 361 857
f 857 361 362 858
f 858 362 363 859
f 859 363 364 860
f 860 364 365 861
f 861 365 366 862
g Group60
f 881 584 615
g Group65
f 616 585 880
g Group55
f 865 369 370 866
f 866 370 371 867
f 867 371 372 868
f 868 372 373 869
f 869 373 374 870
f 870 374 375 871
f 871 375 376 872
f 872 376 377 873
f 873 377 378 874
f 874 378 379 875
f 875 379 380 876
f 876 380 381 877
f 877 381 382 878
f 878 382 383 879
f 879 383 353 849
f 446 477 478 447
f 447 478 479 448
f 448 479 480 449
f 449 480 481 450
f 450 481 482 451
f 451 482 483 452
f 452 483 484 453
f 453 484 485 454
f 454 485 486 455
f 455 486 487 456
f 456 487 488 457
f 457 488 489 458
f 458 489 490 459
g Group60
f 881 553 584
g Group65
f 585 554 880
g Group55
f 462 493 494 463
f 463 494 495 464
f 464 495 496 465
f 465 496 497 466
f 466 497 498 467
f 467 498 499 468
f 468 499 500 469
f 469 500 501 470
f 470 501 502 471
f 471 502 503 472
f 472 503 504 473
f 473 504 505 474
f 474 505 506 475
f 475 506 507 476
f 476 507 477 446
f 477 508 509 478
f 478 509 510 479
f 479 510 511 480
f 480 511 512 481
f 481 512 513 482
f 482 513 514 483
f 483 514 515 484
f 484 515 516 485
f 485 516 517 486
f 486 517 518 487
f 487 518 519 488
f 488 519 520 489
f 489 520 521 490
g Group60
f 881 522 553
g Group65
f 554 523 880
g Group55
f 493 524 525 494
f 494 525 526 495
f 495 526 527 496
f 496 527 528 497
f 497 528 529 498
f 498 529 530 499
f 499 530 531 500
f 500 531 532 501
f 501 532 533 502
f 502 533 534 503
f 503 534 535 504
f 504 535 536 505
f 505 536 537 506
f 506 537 538 507
f 507 538 508 477
f 508 539 540 509
f 509 540 541 510
f 510 541 542 511
f 511 542 543 512
f 512 543 544 513
f 513 544 545 514
f 514 545 546 515
f 515 546 547 516
f 516 547 548 517
f 517 548 549 518
f 518 549 550 519
f 519 550 551 520
f 520 551 552 521
g Group60
f 881 491 522
g Group65
f 523 492 880
g Group55
f 524 555 556 525
f 525 556 557 526
f 526 557 558 527
f 527 558 559 528
f 528 559 560 529
f 529 560 561 530
f 530 561 562 531
f 531 562 563 532
f 532 563 564 533
f 533 564 565 534
f 534 565 566 535
f 535 566 567 536
f 536 567 568 537
f 537 568 569 538
f 538 569 539 508
f 539 570 571 540
f 540 571 572 541
f 541 572 573 542
f 542 573 574 543
f 543 574 575 544
f 544 575 576 545
f 545 576 577 546
f 546 577 578 547
f 547 578 579 548
f 548 579 580 549
f 549 580 581 550
f 550 581 582 551
f 551 582 583 552
g Group60
f 429 460 881
g Group65
f 492 461 880
g Group55
f 555 586 587 556
f 556 587 588 557
f 557 588 589 558
f 558 589 590 559
f 559 590 591 560
f 560 591 592 561
f 561 592 593 562
f 562 593 594 563
f 563 594 595 564
f 564 595 596 565
f 565 596 597 566
f 566 597 598 567
f 567 598 599 568
f 568 599 600 569
f 569 600 570 539
f 570 601 602 571
f 571 602 603 572
f 572 603 604 573
f 573 604 605 574
f 574 605 606 575
f 575 606 607 576
f 576 607 608 577
f 577 608 609 578
f 578 609 610 579
f 579 610 611 580
f 580 611 612 581
f 581 612 613 582
f 582 613 614 583
g Group60
f 881 460 491
g Group65
f 880 461 430
g Group55
f 586 617 618 587
f 587 618 619 588
f 588 619 620 589
f 589 620 621 590
f 590 621 622 591
f 591 622 623 592
f 592 623 624 593
f 593 624 625 594
f 594 625 626 595
f 595 626 627 596
f 596 627 628 597
f 597 628 629 598
f 598 629 630 599
f 599 630 631 600
f 600 631 601 570
g Group60
f 398 367 882 883
g Group65
f 368 399 884 885
g Group60
f 429 398 883 886
g Group65
f 399 430 887 884
f 616 647 888 889
g Group60
f 646 615 890 891
g Group65
f 647 678 892 888
g Group60
f 677 646 891 893
g Group65
f 678 709 894 892
g Group60
f 708 677 893 895
g Group65
f 709 740 896 894
g Group60
f 739 708 895 897
g Group65
f 740 771 898 896
g Group60
f 770 739 897 899
g Group65
f 802 833 900 901
g Group60
f 832 801 902 903
g Group65
f 771 802 901 898
g Group60
f 801 770 899 902
f 863 832 903 904
g Group65
f 833 864 905 900
g Group60
f 460 429 886 906
g Group65
f 430 461 907 887
g Group60
f 367 863 904 882
g Group65
f 864 368 885 905
g Group60
f 491 460 906 908
g Group65
f 461 492 909 907
g Group60
f 522 491 908 910
g Group65
f 492 523 911 909
g Group60
f 553 522 910 912
g Group65
f 523 554 913 911
g Group60
f 584 553 912 914
g Group65
f 554 585 915 913
g Group60
f 615 584 914 890
g Group65
f 585 616 889 915
g Group75
f 885 884 916 917
g Group80
f 400 369 918 919
g Group75
f 884 887 920 916
g Group80
f 431 400 919 921
g Group75
f 889 888 922 923
g Group80
f 648 617 924 925
g Group75
f 888 892 926 922
g Group80
f 679 648 925 927
g Group75
f 892 894 928 926
g Group80
f 710 679 927 929
g Group75
f 894 896 930 928
g Group80
f 741 710 929 931
g Group75
f 896 898 932 930
g Group80
f 772 741 931 933
g Group75
f 901 900 934 935
g Group80
f 834 803 936 937
g Group75
f 898 901 935 932
g Group80
f 803 772 933 936
g Group75
f 900 905 938 934
g Group80
f 865 834 937 939
g Group85
f 887 907 940 920
g Group80
f 462 431 921 941
g Group75
f 905 885 917 938
g Group80
f 369 865 939 918
g Group75
f 907 909 942 940
g Group80
f 493 462 941 943
g Group75
f 909 911 944 942
g Group80
f 524 493 943 945
g Group75
f 911 913 946 944
g Group80
f 555 524 945 947
g Group75
f 913 915 948 946
g Group80
f 586 555 947 949
g Group75
f 915 889 923 948
g Group80
f 617 586 949 924
g Group75
f 917 916 919 918
f 916 920 921 919
f 923 922 925 924
f 922 926 927 925
f 926 928 929 927
f 928 930 931 929
f 930 932 933 931
f 935 934 937 936
f 932 935 936 933
f 934 938 939 937
g Group85
f 920 940 941 921
g Group75
f 918 939 938 917
f 940 942 943 941
f 942 944 945 943
f 944 946 947 945
f 946 948 949 947
f 924 949 948 923
g Group90
f 950 951 883 882
g Group95
f 366 397 952 953
g Group90
f 951 954 886 883
g Group95
f 397 428 955 952
g Group90
f 956 957 891 890
g Group95
f 614 645 958 959
g Group90
f 957 960 893 891
g Group95
f 645 676 961 958
g Group90
f 960 962 895 893
g Group95
f 676 707 963 961
g Group90
f 962 964 897 895
g Group95
f 707 738 965 963
g Group90
f 964 966 899 897
g Group95
f 738 769 967 965
g Group90
f 968 969 903 902
g Group95
f 800 831 970 971
g Group90
f 966 968 902 899
g Group95
f 769 800 971 967
g Group90
f 969 972 904 903
g Group95
f 831 862 973 970
g Group100
f 954 974 906 886
g Group95
f 428 459 975 955
g Group90
f 972 950 882 904
g Group95
f 862 366 953 973
g Group90
f 974 976 908 906
g Group95
f 459 490 977 975
g Group90
f 976 978 910 908
g Group95
f 490 521 979 977
g Group90
f 978 980 912 910
g Group95
f 521 552 981 979
g Group90
f 980 982 914 912
g Group95
f 552 583 983 981
g Group90
f 982 956 890 914
g Group95
f 583 614 959 983
g Group90
f 951 950 953 952
f 952 955 954 951
f 957 956 959 958
f 958 961 960 957
f 961 963 962 960
f 963 965 964 962
f 965 967 966 964
f 969 968 971 970
f 967 971 968 966
f 970 973 972 969
g Group100
f 955 975 974 954
g Group90
f 950 972 973 953
f 975 977 976 974
f 977 979 978 976
f 979 981 980 978
f 981 983 982 980
f 956 982 983 959

 