# File exported by ZBrush version 2021
# www.zbrush.com
#Vertex Count 542
#Face Count 540
#Auto scale x=1.000000 y=1.000000 z=1.000000
#Auto offset x=0.000000 y=0.000000 z=0.000000
v 0.08799839 4.15094757 -0.47751462
v 0.09087657 3.86953353 -0.60757094
v 0.09278774 3.87732696 0.60745221
v 0.09414005 4.15287399 0.44983559
v 0.09136867 3.69495391 0.59712916
v 0.06118297 0.01650619 0.23424619
v 0.05892086 -0.05831146 -0.00720351
v 0.09245109 4.31528472 0.21849852
v 0.0881052 4.35719299 -0.00789582
v 0.08701515 4.31272506 -0.25625205
v 0.08951759 3.66902923 -0.58180284
v 0.06537056 0.11738205 -0.19639259
v 0.06434822 0.25179672 0.43277305
v 0.06658744 0.29631424 -0.21571967
v -0.15136814 4.14914703 -0.47553849
v -0.14381504 3.86943817 -0.60692316
v -0.14066791 3.87252807 0.60757094
v -0.14435672 4.14677429 0.44995421
v -0.14067173 3.69071197 0.59789973
v -0.14729404 4.30957031 0.21925872
v -0.15186786 4.35251998 -0.00704079
v -0.15366077 4.30915069 -0.25407916
v -0.13824939 0.1183815 -0.19551065
v -0.14787006 -0.05674743 -0.00437253
v -0.14086818 0.25457 0.43740505
v -0.14395809 0.01894378 0.23819321
v -0.14352703 3.66925811 -0.58154511
v -0.13851451 0.29727554 -0.21489363
v 0.26632404 0.01406478 0.23029917
v 0.26571178 -0.05987167 -0.01003354
v 0.32738399 4.14921188 -0.47529912
v 0.32774257 4.31007003 -0.25570774
v 0.32256221 3.66895675 -0.58058458
v 0.32556533 3.86891174 -0.60530179
v 0.33227062 4.31523513 0.21529513
v 0.33268642 4.1559143 0.44649666
v 0.26956558 0.24902725 0.42814105
v 0.27168941 0.29535675 -0.21654465
v 0.26899051 0.11637878 -0.19727563
v 0.32624721 3.88162994 0.6059044
v 0.32340908 3.6992073 0.59620815
v 0.32812118 4.35560607 -0.01176387
v 0.09579944 3.81270599 -0.45874363
v 0.09549617 4.01808929 -0.34562718
v 0.062541 0.09162139 0.04457956
v 0.07245349 0.23783874 -0.09382656
v 0.06074142 0.16743469 0.2105202
v 0.09734249 4.15721893 0.00814348
v 0.09951973 4.12177658 0.16197484
v 0.09606838 4.12054061 -0.18152171
v 0.09457016 3.62522125 -0.44459903
v 0.0979166 4.0168457 0.33934396
v 0.09492111 3.81428527 0.47365874
v 0.09320545 3.64389419 0.47018092
v 0.06097602 0.39362716 0.34749609
v 0.07356739 0.40847396 -0.11163857
v 0.2356472 0.09025955 0.04220038
v 0.23225879 0.16521453 0.20719915
v 0.29602527 4.12528991 -0.18367534
v 0.29573917 4.02069473 -0.34828609
v 0.29374694 3.81306076 -0.4603582
v 0.29110336 3.62501907 -0.44541156
v 0.29764461 4.02278137 0.34009796
v 0.29908084 4.12830352 0.16209274
v 0.23246669 0.39103698 0.34359711
v 0.2461338 0.40781402 -0.11232855
v 0.24374866 0.2371521 -0.09456557
v 0.29652214 4.16216278 0.00417512
v 0.29157733 3.81825637 0.47420221
v 0.28860473 3.64719009 0.46985989
v -0.14252567 3.81300354 -0.46017366
v -0.14561939 4.01836395 -0.34650528
v -0.14588069 0.0932579 0.04744452
v -0.1337881 0.23867034 -0.09293755
v -0.14256 4.15542221 0.00833052
v -0.14083766 4.11919784 0.16409748
v -0.14473629 4.12047576 -0.18128615
v -0.14260768 4.01276397 0.34170538
v -0.14186 3.81018447 0.47512859
v -0.14205265 3.63989639 0.47136896
v -0.14550113 0.39674758 0.35219019
v -0.14576816 0.17010498 0.21451824
v -0.14205455 3.62526702 -0.44547247
v -0.13420391 0.40927124 -0.11080658
v -0.14083766 0.79602432 0.46269518
v -0.14495754 0.90778732 0.37102013
v 0.06860637 0.7943573 0.45866018
v 0.27804946 0.79269409 0.45462411
v 0.24131298 0.90412902 0.36353319
v 0.06605529 0.90578842 0.36693018
v -0.14080524 1.36264801 0.48916119
v -0.14438915 1.44258499 0.39072614
v 0.07306194 1.36214065 0.48575013
v 0.28692817 1.3616333 0.4823392
v 0.25057029 1.44107055 0.38439518
v 0.07137012 1.44176101 0.38726717
v -0.14077282 1.92189788 0.51528209
v -0.14382648 1.97042465 0.41017514
v 0.07745933 1.92253112 0.51248711
v 0.29569244 1.92316436 0.50969213
v 0.25970745 1.97102356 0.40498608
v 0.07661628 1.97075271 0.4073401
v -0.1407423 2.46694564 0.54074007
v -0.14328098 2.48485565 0.42913013
v 0.08174514 2.46869278 0.53854614
v 0.30423259 2.47043991 0.53635221
v 0.2686119 2.48751831 0.42505413
v 0.08172893 2.48630905 0.42690306
v -0.14070797 3.07033157 0.5689221
v -0.14267444 3.0543518 0.45011419
v 0.08648967 3.07331085 0.56739312
v 0.31368732 3.07629013 0.56586414
v 0.27847003 3.05929946 0.44726914
v 0.08738899 3.05705261 0.44856017
v 0.28369045 3.09441757 -0.39196473
v 0.31417369 3.11279296 -0.5198847
v 0.08573627 3.11309814 -0.5199517
v -0.14270114 3.11340332 -0.52001965
v -0.14075756 3.09482955 -0.39209276
v 0.09111022 3.09460449 -0.39202278
v 0.27659225 2.58666992 -0.33911576
v 0.30614376 2.58031845 -0.4625557
v 0.08211708 2.58074951 -0.46245461
v -0.14190959 2.58117675 -0.46235364
v -0.13951969 2.58727645 -0.33893176
v 0.0877943 2.58694458 -0.33903279
v 0.26851749 2.00895309 -0.27898466
v 0.29700851 1.97446823 -0.39732676
v 0.07799911 1.97503662 -0.39703375
v -0.14101123 1.97560882 -0.39673978
v -0.13811016 2.00978469 -0.27844566
v 0.08402252 2.00933075 -0.27873963
v 0.26054668 1.4388237 -0.21964162
v 0.28799247 1.37657165 -0.33295479
v 0.0739355 1.37728118 -0.33247181
v -0.14012241 1.37799072 -0.33198878
v -0.1367197 1.43987655 -0.21875262
v 0.08029937 1.43930053 -0.21923863
v 0.2535448 0.93795394 -0.16750857
v 0.28007221 0.85131073 -0.27640265
v 0.07036495 0.85214233 -0.27575266
v -0.1393404 0.85297393 -0.27510267
v -0.135499 0.93920517 -0.16631153
v 0.07702922 0.93852233 -0.16696557
v 0.36083221 -0.06059265 -0.01133555
v 0.36004161 0.01295089 0.22849625
v 0.45499038 4.3064804 -0.25443571
v 0.45228576 4.14714813 -0.47277796
v 0.4450159 3.86841583 -0.60343688
v 0.44021606 3.66893768 -0.57983899
v 0.45615959 4.15653228 0.44383662
v 0.45829105 4.31321334 0.2128176
v 0.36335277 0.24776077 0.42602413
v 0.42784881 3.11264419 -0.51985073
v 0.36535167 0.29491806 -0.21692267
v 0.36138248 0.11592483 -0.19767659
v 0.44428634 3.88375091 0.60496693
v 0.44018936 3.70134353 0.5957821
v 0.45468711 4.35277938 -0.01529204
v 0.42630958 3.07776641 0.56510621
v 0.37545204 0.7919197 0.45274716
v 0.38811779 1.36139297 0.48072522
v 0.40062236 1.92346954 0.50834912
v 0.41281223 2.47129058 0.535281
v 0.41603756 2.58010864 -0.46260565
v 0.40259838 1.97419357 -0.39746874
v 0.38933658 1.37623977 -0.33318278
v 0.37768459 0.85092544 -0.27670466
v 0.52861976 3.85543823 -0.57032465
v 0.53977298 4.11805725 -0.44426858
v 0.44265365 -0.02598571 -0.00027656
v 0.44447994 0.14392089 -0.17391756
v 0.44079971 0.04737472 0.22135216
v 0.54617309 4.30846405 -0.01966565
v 0.54722118 4.27173614 0.20014733
v 0.54564762 4.26471328 -0.23828204
v 0.52295017 3.65851211 -0.54839479
v 0.54070472 4.12794113 0.41931766
v 0.52622032 3.87075805 0.57437712
v 0.44336986 0.27986908 0.40414005
v 0.51065635 3.10822296 -0.48975464
v 0.45576477 0.81733322 0.42961508
v 0.44843196 0.32097625 -0.19278261
v 0.52202701 3.69068527 0.56581217
v 0.46873474 1.37977981 0.45627611
v 0.48153686 1.93490982 0.48258918
v 0.49401474 2.47593689 0.50823408
v 0.50782585 3.07487487 0.53662306
v 0.49889564 2.58145523 -0.43362975
v 0.48551559 1.98209381 -0.36976975
v 0.47231102 1.39060592 -0.30674856
v 0.46071052 0.87097549 -0.2513836
v -0.28238201 3.86906433 -0.60534685
v -0.29556179 4.14636993 -0.47247374
v -0.27767086 3.86955642 0.60719996
v -0.28699016 4.14178466 0.4486007
v -0.27636623 3.6882286 0.59839206
v -0.29773807 4.34680938 -0.00815516
v -0.29261493 4.30337524 0.21853512
v -0.30026722 4.3039627 -0.2515006
v -0.24909305 0.118927 -0.19502964
v -0.26149082 -0.05588913 -0.00281751
v -0.27216243 3.06860733 0.56980615
v -0.25614643 0.02027893 0.24035221
v -0.28015995 3.66944122 -0.58091229
v -0.253129 0.25608444 0.43993908
v -0.27523326 3.11357879 -0.52005875
v -0.25065517 0.29780197 -0.21444165
v -0.25678348 0.79694366 0.46492916
v -0.26061153 1.36293411 0.49107211
v -0.26439189 1.9215393 0.51686507
v -0.2680788 2.46594619 0.5419951
v -0.27058696 2.58142089 -0.46229571
v -0.2653017 1.97592926 -0.39657378
v -0.26008701 1.37838745 -0.33171781
v -0.25550365 0.85343551 -0.27474266
v -0.36898136 4.11593627 -0.44287142
v -0.35163974 3.85607147 -0.5722593
v -0.32379245 0.05640029 0.23612517
v -0.32140636 0.29024124 0.42157608
v -0.36813259 4.25764846 0.2061637
v -0.37549305 4.2987442 -0.01262879
v -0.37701511 4.25906753 -0.23389257
v -0.31715297 0.32421493 -0.18987962
v -0.31554889 0.14729309 -0.17080059
v -0.34574031 3.85394287 0.57714396
v -0.35836505 4.10964202 0.42442351
v -0.34427166 3.67519378 0.56918627
v -0.34763813 3.65916442 -0.54968392
v -0.32831287 -0.02035903 0.01019847
v -0.32213878 0.87379455 -0.24914558
v -0.34014415 3.06405639 0.54253512
v -0.32501125 0.82362747 0.44483619
v -0.32878017 1.38181304 0.46917718
v -0.33250141 1.93273162 0.49320119
v -0.33612918 2.46965789 0.51661509
v -0.34242343 3.10931778 -0.49022468
v -0.33764743 2.5829544 -0.43346178
v -0.3322134 1.98405838 -0.36887675
v -0.32684993 1.39302444 -0.3051396
v -0.30809879 3.81360626 -0.46304923
v -0.31512165 4.02065658 -0.34960019
v -0.35319232 3.82805252 -0.50096428
v -0.36754703 4.05392074 -0.3826099
v -0.323987 0.36289978 0.37813609
v -0.32498073 0.13358688 0.22406715
v -0.27058696 0.23922348 -0.09234756
v -0.28458309 0.0943489 0.04935044
v -0.37059879 4.20315933 -0.0065965
v -0.36554241 4.16843032 0.18137782
v -0.31134891 4.15687942 0.00580799
v -0.310359 4.12067794 0.16702014
v -0.37269687 4.17167282 -0.20047506
v -0.31507015 4.12405777 -0.18252301
v -0.3140974 0.20856475 -0.11848756
v -0.31579875 0.38125991 -0.13679456
v -0.3055067 3.80766296 0.47713166
v -0.31082248 4.01169586 0.34524971
v -0.35910511 4.04510498 0.37327092
v -0.34787845 3.82280349 0.51127106
v -0.34601879 3.64939498 0.50482505
v -0.30412387 3.63713836 0.47228175
v -0.3483057 3.6365509 -0.48169112
v -0.32767581 0.05617523 0.03663545
v -0.32108211 0.91770172 -0.19366166
v -0.34204196 3.05603408 0.48195213
v -0.30021953 3.05249786 0.45117813
v -0.28280925 0.171875 0.2171722
v -0.30544757 3.6252098 -0.44692051
v -0.28252124 0.39881515 0.3553062
v -0.29987049 3.09498214 -0.39214074
v -0.27233791 0.40979766 -0.11025354
v -0.32745838 0.88077163 0.39810007
v -0.28592014 0.90912246 0.37375313
v -0.33109188 1.42272186 0.41899114
v -0.28948116 1.44314193 0.3930512
v -0.33467769 1.95761489 0.43961006
v -0.29299449 1.97019958 0.4120931
v -0.33817195 2.47892379 0.45970612
v -0.29642391 2.48386383 0.43064612
v -0.34257602 3.09980773 -0.42498278
v -0.29466724 2.58750534 -0.33886382
v -0.33751583 2.58602142 -0.37051773
v -0.28874683 2.01009368 -0.27824562
v -0.33175754 2.00143432 -0.3085466
v -0.28290271 1.44026565 -0.21842563
v -0.32607555 1.42452621 -0.24738861
v -0.27777004 0.93965911 -0.16587457
v 0.54177665 4.05545425 -0.38349694
v 0.5305233 3.82714462 -0.49854525
v 0.44643974 0.20962905 -0.11811855
v 0.44167995 0.05552673 0.02791947
v 0.40624713 0.08891677 0.03985542
v 0.40097713 0.16303253 0.20393317
v 0.4374485 0.12799453 0.2086882
v 0.54737567 4.18124008 0.17555183
v 0.54689979 4.21172714 -0.01405125
v 0.54669475 4.17664718 -0.20425432
v 0.5006628 4.13368606 -0.18743261
v 0.50001716 4.02531814 -0.35346967
v 0.52410793 3.63579559 -0.48014915
v 0.49430656 3.81375122 -0.46364373
v 0.48956584 3.6247673 -0.44669878
v 0.50078392 4.03053283 0.34273034
v 0.5028944 4.13822937 0.16357022
v 0.52578735 3.83856582 0.50761538
v 0.54052639 4.06217193 0.36755567
v 0.40115737 0.38849258 0.33976119
v 0.4381771 0.3580017 0.35702914
v 0.4774208 3.09422683 -0.39190673
v 0.51185989 3.09886932 -0.42450976
v 0.45149612 0.87519073 0.38178712
v 0.45032501 0.38131713 -0.13694357
v 0.41609096 0.40716552 -0.11300954
v 0.4121952 0.23647308 -0.09529155
v 0.52115821 3.66429901 0.50143915
v 0.49966144 4.16999816 -0.00254768
v 0.49026203 3.82250976 0.47553974
v 0.48568821 3.65051651 0.46938818
v 0.47042274 3.06155395 0.44597321
v 0.46520996 1.42010116 0.40607613
v 0.41447353 0.9024887 0.36017614
v 0.42841148 1.44038772 0.38154512
v 0.47865009 1.95920562 0.42898505
v 0.44216823 1.9712944 0.40264004
v 0.49174785 2.48461532 0.45131021
v 0.45557689 2.48872757 0.42320305
v 0.50624942 3.06626892 0.47602719
v 0.46582889 2.58639144 -0.33919981
v 0.50021362 2.58471298 -0.37068176
v 0.45264053 2.00857543 -0.27922862
v 0.48696136 1.99970245 -0.30943459
v 0.43962669 1.43834686 -0.22004264
v 0.47388267 1.42237472 -0.24899162
v 0.42819309 0.93739318 -0.16804561
v 0.46240329 0.91545486 -0.19555363
v 0.08855724 4.34989166 -0.00161439
v 0.32857513 4.3486824 -0.00088101
v -0.15136814 4.34524154 0.00137484
v 0.29665565 4.1581192 -0.0036149
v 0.09738159 4.15322113 -0.00485706
v -0.14256763 4.15135574 -0.00164181
v 0.45501709 4.34630966 0.0012598
v 0.54643726 4.30320358 0.00789421
v -0.29705905 4.33979034 0.00516229
v -0.37470912 4.29288864 0.01477623
v -0.36992931 4.19779205 0.01404702
v -0.31101894 4.15257263 0.00339198
v 0.54701614 4.20705032 0.0086618
v 0.4997673 4.16586685 0.00033021
v -0.73932552 3.1490364 -0.32721769
v -1.45023822 2.93338775 -0.32519561
v -2.10542011 2.58320999 -0.32191079
v -2.67969226 2.11190795 -0.31749159
v -3.15098667 1.53765487 -0.3121058
v -3.50118923 0.88253402 -0.30596166
v -3.7168436 0.1716423 -0.29929554
v -3.78965854 -0.56766128 -0.29236248
v -3.7168436 -1.30694961 -0.28542876
v -3.50118923 -2.01784133 -0.27876257
v -3.15098667 -2.67296028 -0.27261948
v -2.67969417 -3.24725055 -0.26723426
v -2.10542011 -3.71854972 -0.26281428
v -1.45023822 -4.06871795 -0.25953036
v -0.73932552 -4.28435325 -0.2575075
v -0.00000095 -4.35719394 -0.25682532
v 0.73932457 -4.28435325 -0.25750747
v 1.45023918 -4.06871795 -0.25953036
v 2.10542106 -3.71854782 -0.26281511
v 2.67969179 -3.24726104 -0.26723432
v 3.15098381 -2.67295265 -0.27261871
v 3.50118589 -2.01783752 -0.27876263
v 3.71683979 -1.30695724 -0.28542888
v 3.78965807 -0.56765747 -0.29236266
v 3.71683979 0.1716423 -0.2992956
v 3.50118589 0.88254165 -0.30596172
v 3.15098524 1.53765869 -0.31210577
v 2.67969179 2.11191177 -0.31749168
v 2.10542106 2.5832138 -0.32191085
v 1.45024108 2.93339157 -0.32519558
v 0.73932457 3.1490364 -0.32721763
v 0 3.22185516 -0.32790064
v -0.4848566 1.86978149 -0.31522056
v -0.95108318 1.72835159 -0.31389457
v -1.38075733 1.498703 -0.31174063
v -1.75736904 1.18965148 -0.30884254
v -2.06644916 0.81302261 -0.30531057
v -2.29611492 0.38339614 -0.30128079
v -2.43754482 -0.08281707 -0.29690951
v -2.48529911 -0.56765747 -0.2923626
v -2.43754482 -1.05247879 -0.2878156
v -2.29611492 -1.5186882 -0.28344357
v -2.06645107 -1.94832229 -0.27941459
v -1.75737094 -2.32495117 -0.27588179
v -1.38075733 -2.63401222 -0.2729845
v -0.95108318 -2.86366844 -0.27083057
v -0.4848566 -3.00507926 -0.26950371
v 0 -3.05283641 -0.26905649
v 0.48485565 -3.00507926 -0.2695038
v 0.95108223 -2.86366844 -0.27083063
v 1.38075923 -2.63401222 -0.27298456
v 1.75737237 -2.32494354 -0.27588188
v 2.06645011 -1.94831466 -0.27941459
v 2.29611778 -1.51868438 -0.28344354
v 2.43754482 -1.0524826 -0.28781575
v 2.48530006 -0.56765747 -0.29236266
v 2.43754482 -0.08281707 -0.29690873
v 2.29611778 0.38339996 -0.30128085
v 2.06645202 0.81302642 -0.30531063
v 1.75737237 1.18965911 -0.30884259
v 1.38075923 1.49870681 -0.31174063
v 0.95108223 1.72834777 -0.31389454
v 0.48485565 1.86978149 -0.31522065
v 0 1.91753387 -0.31566858
v -0.50388813 1.96910858 0.07483762
v -0.9884119 1.82214736 0.07621568
v -1.43495082 1.5834732 0.07845383
v -1.8263483 1.26228714 0.08146578
v -2.14755535 0.87091064 0.08513587
v -2.38623714 0.42437362 0.08932381
v -2.53321743 -0.06011581 0.09386783
v -2.58284664 -0.56399154 0.09859293
v -2.53321743 -1.06786346 0.10331791
v -2.38623714 -1.55236816 0.10786181
v -2.14755535 -1.99890899 0.11204904
v -1.8263483 -2.39027023 0.11571914
v -1.43495082 -2.71145057 0.1187312
v -0.9884119 -2.9501152 0.12096983
v -0.50388813 -3.09708976 0.12234789
v 0 -3.14673233 0.12281388
v 0.50388622 -3.09708881 0.12234789
v 0.98841381 -2.95011901 0.12096983
v 1.43495273 -2.71145057 0.11873108
v 1.8263483 -2.39026641 0.11571914
v 2.14755821 -1.99890518 0.1120482
v 2.38623714 -1.55236816 0.10786181
v 2.53321504 -1.06785202 0.10331779
v 2.58284425 -0.56399154 0.09859293
v 2.53321504 -0.06011962 0.093867
v 2.38623714 0.42437362 0.08932393
v 2.14755821 0.87091064 0.08513587
v 1.8263483 1.26229095 0.08146578
v 1.43495273 1.58347702 0.07845372
v 0.98841381 1.82213974 0.07621496
v 0.50388622 1.96910858 0.07483679
v 0 2.01875305 0.07437175
v -0.72029399 3.05702209 0.06463474
v -1.4129095 2.84691619 0.06660479
v -2.05122661 2.50575256 0.06980389
v -2.61071682 2.04660797 0.07410985
v -3.06987857 1.48716354 0.07935684
v -3.41106891 0.84886169 0.08534282
v -3.62116909 0.15628814 0.0918371
v -3.69211101 -0.56399154 0.09859293
v -3.62116909 -1.28428268 0.10534721
v -3.41106891 -1.97682952 0.11184209
v -3.06988048 -2.61513519 0.1178289
v -2.61071682 -3.17461204 0.12307423
v -2.05122661 -3.63374328 0.1273809
v -1.4129095 -3.97489833 0.13057988
v -0.7202959 -4.18498992 0.13255089
v -0.00000095 -4.25594329 0.13321501
v 0.72029495 -4.18498134 0.13255077
v 1.41291046 -3.97489357 0.13058
v 2.05122804 -3.63373756 0.12738078
v 2.61071682 -3.17460632 0.12307423
v 3.0698781 -2.61512756 0.11782807
v 3.41106224 -1.97683334 0.11184209
v 3.62116718 -1.28428649 0.10534697
v 3.6921091 -0.56399154 0.09859293
v 3.62116718 0.15628814 0.0918371
v 3.41106224 0.84885788 0.08534282
v 3.0698781 1.48716354 0.07935673
v 2.61071682 2.0466156 0.07411068
v 2.051229 2.50575637 0.0698046
v 1.41291046 2.84692001 0.06660467
v 0.72029495 3.05702209 0.06463462
v 0 3.12796783 0.06396967
v -0.17343235 -1.43730545 -0.04339349
v -0.19246387 -1.52931594 0.34845906
v -0.37756252 -1.4731636 0.34791833
v -0.3402338 -1.38671112 -0.04388237
v -0.17342281 0.30651474 -0.05975443
v -0.19245243 0.40584945 0.33030408
v 0 0.42481613 0.33012658
v 0 0.32359314 -0.05991363
v -0.87194919 -0.7388153 -0.04995757
v -0.96761989 -0.75420379 0.34117692
v -0.98657512 -0.56172943 0.3393647
v -0.8890295 -0.56539917 -0.05159068
v 0.87194633 -0.73882293 -0.04996538
v 0.96761608 -0.75419235 0.34116786
v 0.91147995 -0.93927383 0.34293073
v 0.82135963 -0.90559387 -0.04837417
v 0.87194442 -0.39196395 -0.05322533
v 0.96761417 -0.36925888 0.33755093
v 0.98657226 -0.56172943 0.33935922
v 0.88902664 -0.56539917 -0.05159616
v -0.54812336 -1.38200378 0.34706527
v -0.49392986 -1.30456161 -0.04465013
v -0.82135868 -0.22519683 -0.05477923
v -0.9114809 -0.18421554 0.33582633
v -0.82030391 -0.01361846 0.33423847
v -0.73919773 -0.07151031 -0.05620706
v -0.87194538 -0.39196395 -0.05321991
v -0.96761798 -0.36926269 0.33755654
v 0.17343425 -1.43730545 -0.04339039
v 0.19246482 -1.52931594 0.34846144
v -0.00000095 -1.5482788 0.34864944
v -0.00000095 -1.45438766 -0.04322028
v 0.82135486 -0.22518539 -0.05478471
v 0.91147518 -0.18421173 0.3358199
v 0.17341232 0.30651474 -0.05975592
v 0.19244289 0.40584945 0.33030265
v 0.37756061 0.34970092 0.33082634
v 0.34022998 0.25590515 -0.0592826
v 0.34023284 -1.38671112 -0.04387772
v 0.37756443 -1.4731636 0.3479225
v -0.82136058 -0.90559768 -0.04837185
v -0.91148281 -0.93927764 0.34293299
v -0.34022998 0.25590896 -0.05927944
v -0.3775587 0.34970855 0.33083003
v 0.62863254 0.06323242 -0.05747717
v 0.69760894 0.13587188 0.33283108
v 0.82030201 -0.01361465 0.3342331
v 0.73919582 -0.0715065 -0.05621326
v -0.69761943 -1.25933456 0.34594088
v -0.62864399 -1.1940155 -0.0456599
v 0.54814338 0.25852584 0.33167713
v 0.49394989 0.17375183 -0.05851715
v 0.49392509 -1.30456924 -0.04464471
v 0.54811859 -1.38200759 0.34707111
v -0.6976099 0.13586807 0.3328337
v -0.62863063 0.0632286 -0.05747479
v -0.73920726 -1.05927658 -0.04691129
v -0.82031345 -1.10986328 0.34455138
v -0.49393558 0.17375946 -0.05851715
v -0.54813098 0.25853347 0.33167642
v 0.82031631 -1.10985946 0.34455913
v 0.73920822 -1.05927276 -0.04690361
v 0.62864112 -1.1940155 -0.04565131
v 0.69761562 -1.25934219 0.34594947
g Group37818
f 2 1 31 34
f 3 40 36 4
f 3 5 41 40
f 7 6 26 24
f 9 42 32 10
f 10 1 15 22
f 2 11 27 16
f 4 8 20 18
f 12 39 30 7
f 6 13 25 26
f 11 117 118 27
f 14 12 23 28
f 5 111 112 41
f 16 15 1 2
f 17 3 4 18
f 17 19 5 3
f 21 9 10 22
f 23 12 7 24
f 19 109 111 5
f 30 29 6 7
f 32 31 1 10
f 34 33 11 2
f 36 35 8 4
f 29 37 13 6
f 33 116 117 11
f 38 39 12 14
f 43 61 60 44
f 46 45 57 67
f 45 73 82 47
f 48 50 59 68
f 50 77 72 44
f 43 71 83 51
f 52 78 76 49
f 53 52 63 69
f 53 69 70 54
f 47 82 81 55
f 51 83 119 120
f 56 84 74 46
f 54 70 113 114
f 57 45 47 58
f 59 50 44 60
f 61 43 51 62
f 63 52 49 64
f 58 47 55 65
f 62 51 120 115
f 66 56 46 67
f 71 43 44 72
f 74 73 45 46
f 75 77 50 48
f 79 78 52 53
f 79 53 54 80
f 80 54 114 110
f 87 13 37 88
f 85 25 13 87
f 90 89 65 55
f 86 90 55 81
f 93 87 88 94
f 91 85 87 93
f 96 95 89 90
f 92 96 90 86
f 99 93 94 100
f 97 91 93 99
f 102 101 95 96
f 98 102 96 92
f 105 99 100 106
f 103 97 99 105
f 108 107 101 102
f 104 108 102 98
f 111 105 106 112
f 109 103 105 111
f 114 113 107 108
f 110 114 108 104
f 117 123 124 118
f 116 122 123 117
f 120 119 125 126
f 115 120 126 121
f 123 129 130 124
f 122 128 129 123
f 126 125 131 132
f 121 126 132 127
f 129 135 136 130
f 128 134 135 129
f 132 131 137 138
f 127 132 138 133
f 135 141 142 136
f 134 140 141 135
f 138 137 143 144
f 133 138 144 139
f 141 14 28 142
f 140 38 14 141
f 144 143 84 56
f 139 144 56 66
f 145 146 29 30
f 147 148 31 32
f 149 150 33 34
f 151 152 35 36
f 146 153 37 29
f 150 154 116 33
f 155 156 39 38
f 34 31 148 149
f 40 157 151 36
f 40 41 158 157
f 42 159 147 32
f 39 156 145 30
f 41 112 160 158
f 88 37 153 161
f 94 88 161 162
f 100 94 162 163
f 106 100 163 164
f 112 106 164 160
f 154 165 122 116
f 165 166 128 122
f 166 167 134 128
f 167 168 140 134
f 168 155 38 140
f 349 296 305 350
f 340 350 305 64
f 348 342 76 252
f 222 249 251 198
f 347 250 221 346
f 345 199 20 339
f 343 152 175 344
f 338 35 152 343
f 342 341 49 76
f 341 340 64 49
f 339 20 8 337
f 337 8 35 338
f 313 336 335 314
f 333 335 336 334
f 331 333 334 332
f 329 331 332 330
f 310 329 330 311
f 327 320 328 326
f 325 327 326 324
f 323 325 324 321
f 322 323 321 312
f 316 328 320 319
f 306 316 319 318
f 171 173 146 145
f 176 170 148 147
f 169 177 150 149
f 173 180 153 146
f 177 181 154 150
f 170 169 149 148
f 174 176 147 159
f 180 182 161 153
f 182 185 162 161
f 185 186 163 162
f 186 187 164 163
f 187 188 160 164
f 181 189 165 154
f 189 190 166 165
f 190 191 167 166
f 191 192 168 167
f 145 156 172 171
f 151 157 179 178
f 152 151 178 175
f 156 155 183 172
f 157 158 184 179
f 158 160 188 184
f 155 168 192 183
f 193 194 15 16
f 195 17 18 196
f 195 197 19 17
f 198 21 22 200
f 201 23 24 202
f 197 203 109 19
f 24 26 204 202
f 22 15 194 200
f 16 27 205 193
f 18 20 199 196
f 26 25 206 204
f 27 118 207 205
f 28 23 201 208
f 209 206 25 85
f 210 209 85 91
f 211 210 91 97
f 212 211 97 103
f 203 212 103 109
f 118 124 213 207
f 124 130 214 213
f 130 136 215 214
f 136 142 216 215
f 142 28 208 216
f 243 244 217 218
f 245 246 219 220
f 253 249 222 223
f 244 253 223 217
f 255 256 224 225
f 259 260 226 227
f 260 261 228 226
f 250 259 227 221
f 263 243 218 229
f 264 255 225 230
f 246 264 230 219
f 256 265 231 224
f 261 266 232 228
f 273 245 220 233
f 275 273 233 234
f 277 275 234 235
f 279 277 235 236
f 266 279 236 232
f 281 263 229 237
f 283 281 237 238
f 285 283 238 239
f 287 285 239 240
f 265 287 240 231
f 227 226 195 196
f 226 228 197 195
f 230 225 201 202
f 228 232 203 197
f 221 227 196 199
f 225 224 208 201
f 224 231 216 208
f 194 193 218 217
f 204 206 220 219
f 199 345 346 221
f 198 200 223 222
f 200 194 217 223
f 193 205 229 218
f 202 204 219 230
f 206 209 233 220
f 209 210 234 233
f 210 211 235 234
f 211 212 236 235
f 212 203 232 236
f 205 207 237 229
f 207 213 238 237
f 213 214 239 238
f 214 215 240 239
f 215 216 231 240
f 241 71 72 242
f 159 317 297 174
f 42 68 317 159
f 247 248 73 74
f 9 48 68 42
f 251 254 77 75
f 21 75 48 9
f 198 251 75 21
f 257 258 78 79
f 347 346 345 348
f 348 345 339 342
f 257 79 80 262
f 342 339 337 341
f 341 337 338 340
f 344 349 350 343
f 340 338 343 350
f 307 306 318 304
f 292 291 315 293
f 262 80 110 267
f 73 248 268 82
f 77 254 242 72
f 71 241 269 83
f 78 258 252 76
f 82 268 270 81
f 83 269 271 119
f 84 272 247 74
f 291 313 314 315
f 274 86 81 270
f 308 322 312 309
f 276 92 86 274
f 303 310 311 301
f 278 98 92 276
f 294 308 309 295
f 280 104 98 278
f 296 307 304 305
f 267 110 104 280
f 302 303 301 290
f 119 271 282 125
f 299 300 289 298
f 125 282 284 131
f 317 299 298 297
f 131 284 286 137
f 293 294 295 292
f 137 286 288 143
f 300 302 290 289
f 143 288 272 84
f 244 243 241 242
f 250 347 348 252
f 249 253 254 251
f 247 272 256 255
f 258 257 260 259
f 257 262 261 260
f 252 258 259 250
f 248 247 255 264
f 272 288 265 256
f 262 267 266 261
f 264 246 268 248
f 253 244 242 254
f 243 263 269 241
f 246 245 270 268
f 263 281 271 269
f 245 273 274 270
f 273 275 276 274
f 275 277 278 276
f 277 279 280 278
f 279 266 267 280
f 281 283 282 271
f 283 285 284 282
f 285 287 286 284
f 287 265 288 286
f 289 290 169 170
f 291 292 171 172
f 293 57 58 294
f 292 295 173 171
f 296 349 344 175
f 297 298 176 174
f 298 289 170 176
f 299 59 60 300
f 290 301 177 169
f 302 61 62 303
f 304 63 64 305
f 306 307 178 179
f 307 296 175 178
f 294 58 65 308
f 295 309 180 173
f 303 62 115 310
f 301 311 181 177
f 309 312 182 180
f 313 291 172 183
f 314 66 67 315
f 316 306 179 184
f 61 302 300 60
f 67 57 293 315
f 68 59 299 317
f 69 63 304 318
f 69 318 319 70
f 70 319 320 113
f 312 321 185 182
f 89 322 308 65
f 95 323 322 89
f 321 324 186 185
f 101 325 323 95
f 324 326 187 186
f 107 327 325 101
f 326 328 188 187
f 113 320 327 107
f 328 316 184 188
f 310 115 121 329
f 311 330 189 181
f 329 121 127 331
f 330 332 190 189
f 331 127 133 333
f 332 334 191 190
f 333 133 139 335
f 334 336 192 191
f 335 139 66 314
f 336 313 183 192
g Group46873
f 381 413 414 382
f 470 374 375 471
f 457 361 362 458
f 380 412 413 381
f 356 388 389 357
f 478 382 351 447
f 372 404 405 373
f 454 358 359 455
f 451 355 356 452
f 374 406 407 375
f 355 387 388 356
f 365 397 398 366
f 471 375 376 472
f 371 403 404 372
f 363 395 396 364
f 458 362 363 459
f 375 407 408 376
f 361 393 394 362
f 382 414 383 351
f 358 390 391 359
f 461 365 366 462
f 353 385 386 354
f 376 408 409 377
f 475 379 380 476
f 476 380 381 477
f 367 399 400 368
f 466 370 371 467
f 377 409 410 378
f 453 357 358 454
f 460 364 365 461
f 450 354 355 451
f 468 372 373 469
f 472 376 377 473
f 364 396 397 365
f 463 367 368 464
f 354 386 387 355
f 368 400 401 369
f 373 405 406 374
f 462 366 367 463
f 459 363 364 460
f 474 378 379 475
f 449 353 354 450
f 357 389 390 358
f 465 369 370 466
f 446 478 447 415
f 415 447 448 416
f 467 371 372 468
f 416 448 449 417
f 362 394 395 363
f 417 449 450 418
f 447 351 352 448
f 418 450 451 419
f 455 359 360 456
f 419 451 452 420
f 366 398 399 367
f 420 452 453 421
f 421 453 454 422
f 473 377 378 474
f 422 454 455 423
f 469 373 374 470
f 423 455 456 424
f 359 391 392 360
f 424 456 457 425
f 425 457 458 426
f 351 383 384 352
f 426 458 459 427
f 477 381 382 478
f 427 459 460 428
f 369 401 402 370
f 428 460 461 429
f 378 410 411 379
f 429 461 462 430
f 430 462 463 431
f 456 360 361 457
f 431 463 464 432
f 370 402 403 371
f 432 464 465 433
f 360 392 393 361
f 433 465 466 434
f 434 466 467 435
f 379 411 412 380
f 435 467 468 436
f 436 468 469 437
f 437 469 470 438
f 448 352 353 449
f 438 470 471 439
f 439 471 472 440
f 464 368 369 465
f 440 472 473 441
f 352 384 385 353
f 441 473 474 442
f 442 474 475 443
f 443 475 476 444
f 452 356 357 453
f 444 476 477 445
f 445 477 478 446
f 482 481 480 479
f 397 396 482 479
f 428 429 480 481
f 486 485 484 483
f 383 414 486 483
f 446 415 484 485
f 490 489 488 487
f 391 390 490 487
f 422 423 488 489
f 494 493 492 491
f 405 404 494 491
f 436 437 492 493
f 498 497 496 495
f 407 406 498 495
f 438 439 496 497
f 500 499 481 482
f 396 395 500 482
f 427 428 481 499
f 491 492 497 498
f 406 405 491 498
f 437 438 497 492
f 504 503 502 501
f 388 387 504 501
f 419 420 502 503
f 501 502 506 505
f 389 388 501 505
f 420 421 506 502
f 510 509 508 507
f 399 398 510 507
f 430 431 508 509
f 495 496 512 511
f 408 407 495 511
f 439 440 512 496
f 516 515 514 513
f 413 412 516 513
f 444 445 514 515
f 507 508 518 517
f 400 399 507 517
f 431 432 518 508
f 487 488 520 519
f 392 391 487 519
f 423 424 520 488
f 483 484 522 521
f 384 383 483 521
f 415 416 522 484
f 526 525 524 523
f 410 409 526 523
f 441 442 524 525
f 528 527 499 500
f 395 394 528 500
f 426 427 499 527
f 530 529 515 516
f 412 411 530 516
f 443 444 515 529
f 517 518 532 531
f 401 400 517 531
f 432 433 532 518
f 534 533 503 504
f 387 386 534 504
f 418 419 503 533
f 519 520 536 535
f 393 392 519 535
f 424 425 536 520
f 521 522 538 537
f 385 384 521 537
f 416 417 538 522
f 511 512 525 526
f 409 408 511 526
f 440 441 525 512
f 540 539 493 494
f 404 403 540 494
f 435 436 493 539
f 531 532 542 541
f 402 401 531 541
f 433 434 542 532
f 535 536 527 528
f 394 393 535 528
f 425 426 527 536
f 537 538 533 534
f 386 385 537 534
f 417 418 533 538
f 523 524 529 530
f 411 410 523 530
f 442 443 529 524
f 479 480 509 510
f 398 397 479 510
f 429 430 509 480
f 541 542 539 540
f 403 402 541 540
f 434 435 539 542
f 505 506 489 490
f 390 389 505 490
f 421 422 489 506
f 513 514 485 486
f 414 413 513 486
f 445 446 485 514

 