# File exported by ZBrush version 2021
# www.zbrush.com
#Vertex Count 1236
#Face Count 1234
#Auto scale x=1.000000 y=1.000000 z=1.000000
#Auto offset x=0.000000 y=0.000000 z=0.000000
v 2.10208511 3.45123672 -0.15586982
v 2.05840683 3.44475936 -0.15596312
v 2.01558303 3.43404007 -0.15605419
v 1.97402191 3.41917038 -0.15614247
v 1.9341011 3.40029525 -0.15622693
v 1.89623642 3.37760543 -0.1563069
v 1.86077499 3.35131454 -0.15638145
v 1.82806015 3.32167434 -0.15645009
v 1.79841232 3.28897476 -0.1565119
v 1.7721138 3.25352096 -0.15656645
v 1.74941635 3.21566391 -0.15661314
v 1.73054122 3.1757698 -0.15665158
v 1.71566391 3.13421249 -0.15668129
v 1.70493698 3.09139633 -0.15670225
v 1.69845962 3.04774093 -0.15671394
v 1.69629287 3.00365829 -0.15671634
v 1.69845962 2.95957565 -0.15670952
v 1.70493698 2.91592025 -0.15669344
v 1.71567153 2.87310409 -0.15666833
v 1.73054122 2.83154678 -0.15663443
v 1.74941635 2.79165267 -0.15659198
v 1.7721138 2.75379562 -0.15654158
v 1.79841995 2.71834182 -0.15648348
v 1.82806778 2.68564224 -0.15641836
v 1.86078262 2.65600204 -0.15634688
v 1.89624404 2.62971115 -0.15626964
v 1.93410873 2.60702133 -0.15618737
v 1.97402191 2.58814621 -0.156101
v 2.01559066 2.57328414 -0.15601128
v 2.05841445 2.56255722 -0.15591901
v 2.10208511 2.55607986 -0.15582525
v 2.14618301 2.55391311 -0.15573063
v 2.19028091 2.55607986 -0.1556364
v 2.23395156 2.56255722 -0.15554304
v 2.27678299 2.57328414 -0.15545189
v 2.31834793 2.58815383 -0.15536373
v 2.35825729 2.60702133 -0.15527923
v 2.3961296 2.62971115 -0.15519937
v 2.43159103 2.65600204 -0.15512475
v 2.46429824 2.68564224 -0.15505614
v 2.4939537 2.71834182 -0.15499433
v 2.52025222 2.75379562 -0.1549398
v 2.54294967 2.79165267 -0.15489298
v 2.56182479 2.83154678 -0.15485456
v 2.57669448 2.87310409 -0.15482482
v 2.58742141 2.91592025 -0.15480393
v 2.59389877 2.95957565 -0.15479226
v 2.59606552 3.00365829 -0.15478977
v 2.59389877 3.04774093 -0.1547966
v 2.58742141 3.09139633 -0.15481275
v 2.57669448 3.13421249 -0.15483784
v 2.56182479 3.1757698 -0.15487173
v 2.54294204 3.21566391 -0.15491417
v 2.52024459 3.25352096 -0.15496465
v 2.49394607 3.28897476 -0.15502274
v 2.46429824 3.32167434 -0.15508779
v 2.4315834 3.35131454 -0.15515932
v 2.39612197 3.37760543 -0.15523657
v 2.35825729 3.40029525 -0.15531885
v 2.3183403 3.41917038 -0.15540514
v 2.27677536 3.43404007 -0.15549495
v 2.23394393 3.44475936 -0.15558718
v 2.19027328 3.45123672 -0.15568099
v 2.14617538 3.45340347 -0.1557756
v 2.10191726 3.45123672 -0.01809558
v 2.05823898 3.44475936 -0.01803174
v 2.01541519 3.43403244 -0.01796928
v 1.97385406 3.41917038 -0.0179089
v 1.93394088 3.40029525 -0.01785081
v 1.89606857 3.37760543 -0.0177958
v 1.86060714 3.35131454 -0.01774451
v 1.82789993 3.32167434 -0.01769745
v 1.7982521 3.28896713 -0.01765477
v 1.77195358 3.25352096 -0.01761707
v 1.74925613 3.21566391 -0.01758465
v 1.73038101 3.1757698 -0.01755806
v 1.71550369 3.13421249 -0.01753732
v 1.70477676 3.09139633 -0.0175226
v 1.6982994 3.04774093 -0.01751402
v 1.69613266 3.00365829 -0.01751202
v 1.6982994 2.95957565 -0.01751601
v 1.70477676 2.91591262 -0.01752674
v 1.71550369 2.87310409 -0.0175434
v 1.73038101 2.83154678 -0.01756611
v 1.74925613 2.79165267 -0.01759481
v 1.77195358 2.75379562 -0.01762881
v 1.7982521 2.71834182 -0.01766836
v 1.82789993 2.68564224 -0.01771253
v 1.86061477 2.65600204 -0.01776102
v 1.8960762 2.62971115 -0.01781371
v 1.93394088 2.60702133 -0.01786947
v 1.97385406 2.58814621 -0.01792836
v 2.01542282 2.57327652 -0.01798981
v 2.05824661 2.56255722 -0.01805278
v 2.10191726 2.55607986 -0.01811689
v 2.14601516 2.55391311 -0.01818159
v 2.19011306 2.55607986 -0.01824605
v 2.23378372 2.56255722 -0.01830974
v 2.27660751 2.57327652 -0.01837208
v 2.31817245 2.58814621 -0.01843261
v 2.35808181 2.60702133 -0.01849082
v 2.39595413 2.62971115 -0.01854589
v 2.43141555 2.65600204 -0.01859691
v 2.46412277 2.68564224 -0.01864418
v 2.49377059 2.71834182 -0.01868674
v 2.52007675 2.75379562 -0.01872456
v 2.54276657 2.79165267 -0.01875671
v 2.56164932 2.83154678 -0.01878368
v 2.57651901 2.87310409 -0.01880425
v 2.58724594 2.91592025 -0.01881897
v 2.59372329 2.95957565 -0.01882749
v 2.59589004 3.00365829 -0.01882967
v 2.59372329 3.04774093 -0.01882535
v 2.58724594 3.09139633 -0.01881495
v 2.57651901 3.13421249 -0.01879823
v 2.56164169 3.1757698 -0.01877525
v 2.54276657 3.21566391 -0.01874685
v 2.52006912 3.25352096 -0.01871249
v 2.49377059 3.28897476 -0.01867339
v 2.46412277 3.32167434 -0.01862913
v 2.43140792 3.35131454 -0.01858034
v 2.3959465 3.37760543 -0.01852798
v 2.35808181 3.40029525 -0.01847195
v 2.31817245 3.41917038 -0.01841309
v 2.27659988 3.43404007 -0.0183517
v 2.23377609 3.44475936 -0.01828885
v 2.19010543 3.45123672 -0.01822462
v 2.14600753 3.45340347 -0.01816004
v 2.1431694 3.53549575 -0.15896961
v 2.12410354 3.45286178 -0.15582282
v 2.09103775 3.53293991 -0.15896961
v 2.11706924 3.53485488 -0.15896961
v 2.19530105 3.53293991 -0.15896961
v 2.16825485 3.45286178 -0.15572823
v 2.16926956 3.53485488 -0.15896961
v 2.24692916 3.52527999 -0.15896961
v 2.21219253 3.44853591 -0.15563395
v 2.22121048 3.52974319 -0.15896961
v 2.29755783 3.51259994 -0.15896961
v 2.25548934 3.43992233 -0.15554088
v 2.27240371 3.51955795 -0.15896961
v 2.34670639 3.49501419 -0.15896961
v 2.29774093 3.42711257 -0.15544974
v 2.32234573 3.50440597 -0.15896961
v 2.39388656 3.47269821 -0.15896958
v 2.33852767 3.4102211 -0.15536156
v 2.37057113 3.48443222 -0.15896958
v 2.43865585 3.44586563 -0.15896973
v 2.3774681 3.38941574 -0.1552771
v 2.41659927 3.45982742 -0.15896973
v 2.48057937 3.41477584 -0.15896958
v 2.41417312 3.36489486 -0.15519724
v 2.45999527 3.43083572 -0.15896973
v 2.51925277 3.37971878 -0.15896961
v 2.44830703 3.33689498 -0.15512287
v 2.5003395 3.39772415 -0.15896958
v 2.55430221 3.34104538 -0.15896973
v 2.47952652 3.30569076 -0.15505439
v 2.53725051 3.36081314 -0.15896973
v 2.58539199 3.29912185 -0.15896973
v 2.50753402 3.27157211 -0.15499271
v 2.57036209 3.3204689 -0.1589697
v 2.61222457 3.25435257 -0.15896973
v 2.53206253 3.23487472 -0.15493843
v 2.59936142 3.2770729 -0.15896973
v 2.63454055 3.20717239 -0.15896973
v 2.55287551 3.19594955 -0.15489196
v 2.62396621 3.23103714 -0.1589697
v 2.65212631 3.15803146 -0.15896973
v 2.56976699 3.15517044 -0.15485367
v 2.64393997 3.18281936 -0.15896973
v 2.66480636 3.1074028 -0.15896979
v 2.58258438 3.11293411 -0.1548241
v 2.65908432 3.13286972 -0.15896976
v 2.67246627 3.05577468 -0.15896976
v 2.59119796 3.06965255 -0.15480344
v 2.66926956 3.08168411 -0.15896979
v 2.67502975 3.00364303 -0.15896979
v 2.59552383 3.02573013 -0.15479198
v 2.67438888 3.02973556 -0.15896979
v 2.67246627 2.95151138 -0.15896979
v 2.59552383 2.98159408 -0.15478998
v 2.67438888 2.97754287 -0.15896976
v 2.66480636 2.89988327 -0.15896979
v 2.59119796 2.93767166 -0.15479697
v 2.66926956 2.92560195 -0.15896979
v 2.65212631 2.8492546 -0.15896979
v 2.58258438 2.89438247 -0.1548132
v 2.65908432 2.87440872 -0.15896979
v 2.63454055 2.80010604 -0.15896976
v 2.56976699 2.85214614 -0.15483868
v 2.64393997 2.8244667 -0.15896979
v 2.61222457 2.75292587 -0.15896979
v 2.55287551 2.81136703 -0.15487274
v 2.62396621 2.7762413 -0.15896979
v 2.58539199 2.70815658 -0.15896976
v 2.53206253 2.77244186 -0.15491527
v 2.59936142 2.73021316 -0.15896979
v 2.55430221 2.66623306 -0.15896979
v 2.50753402 2.73574447 -0.15496611
v 2.57036209 2.68681716 -0.15896979
v 2.51925277 2.62755966 -0.15896976
v 2.47952652 2.70163345 -0.15502433
v 2.53725051 2.6464653 -0.15896979
v 2.48057937 2.59251022 -0.15896984
v 2.44830703 2.6704216 -0.15508954
v 2.5003395 2.60956192 -0.15896984
v 2.43865585 2.56142044 -0.15896984
v 2.41418075 2.64242172 -0.15516126
v 2.45999527 2.57645034 -0.15896984
v 2.39388656 2.53458786 -0.15896984
v 2.37747573 2.61790084 -0.1552387
v 2.41659927 2.54745101 -0.15896982
v 2.34670639 2.51227188 -0.15896984
v 2.3385353 2.59709549 -0.155321
v 2.37057113 2.52284622 -0.15896984
v 2.29755783 2.49468612 -0.15896979
v 2.29774856 2.58020401 -0.15540751
v 2.32234573 2.50287246 -0.15896984
v 2.24692916 2.48200607 -0.15896984
v 2.25549697 2.56739425 -0.15549717
v 2.27240371 2.48772811 -0.15896979
v 2.19530105 2.47434616 -0.15896984
v 2.21220016 2.55878067 -0.15558964
v 2.22121048 2.47754287 -0.15896984
v 2.1431694 2.47178268 -0.15896984
v 2.16826248 2.5544548 -0.15568348
v 2.16926956 2.47242355 -0.15896984
v 2.09103775 2.47434616 -0.15896979
v 2.12411117 2.5544548 -0.15577796
v 2.11706924 2.47242355 -0.15896979
v 2.03940963 2.48200607 -0.15896979
v 2.08017349 2.55878067 -0.15587222
v 2.06512832 2.47754287 -0.15896979
v 1.98878479 2.49468612 -0.15896984
v 2.03686904 2.56739425 -0.15596535
v 2.01394653 2.48772811 -0.15896984
v 1.93964386 2.51227188 -0.15896984
v 1.9946289 2.58020401 -0.15605646
v 1.96399688 2.50287246 -0.15896984
v 1.89245224 2.53458786 -0.15896984
v 1.95383453 2.59709549 -0.15614467
v 1.91577529 2.52284622 -0.15896979
v 1.84768295 2.56142044 -0.15896979
v 1.91489791 2.61790084 -0.15622913
v 1.86973953 2.54745101 -0.15896976
v 1.80576705 2.59251022 -0.15896984
v 1.87818527 2.64242172 -0.1563089
v 1.82634353 2.57645034 -0.15896979
v 1.76709365 2.62755966 -0.15896976
v 1.84405899 2.6704216 -0.15638333
v 1.78599929 2.60956192 -0.15896979
v 1.73203659 2.66623306 -0.15896979
v 1.8128395 2.70162582 -0.15645185
v 1.74908828 2.64647293 -0.15896979
v 1.7009468 2.70815658 -0.15896976
v 1.784832 2.73574447 -0.15651357
v 1.71597671 2.68681716 -0.15896979
v 1.67411422 2.75292587 -0.15896979
v 1.76030349 2.77244186 -0.15656775
v 1.68698501 2.73021316 -0.15896979
v 1.65179824 2.80010604 -0.15896976
v 1.7394905 2.81136703 -0.15661419
v 1.66238021 2.7762413 -0.15896979
v 1.63421249 2.8492546 -0.15896979
v 1.72259903 2.85214614 -0.15665242
v 1.64240646 2.8244667 -0.15896979
v 1.62153244 2.89988327 -0.15896979
v 1.70978164 2.89438247 -0.15668207
v 1.62725448 2.87440872 -0.15896979
v 1.61387252 2.95151138 -0.15896979
v 1.70116806 2.93766403 -0.15670265
v 1.61706924 2.92560195 -0.15896979
v 1.61131668 3.00364303 -0.15896979
v 1.69683456 2.98158645 -0.15671417
v 1.61195755 2.97754287 -0.15896976
v 1.61387252 3.05577468 -0.15896976
v 1.69683456 3.0257225 -0.15671625
v 1.61195755 3.02973556 -0.15896979
v 1.62153244 3.1074028 -0.15896979
v 1.70116806 3.06964492 -0.15670912
v 1.61706924 3.08168411 -0.15896979
v 1.63421249 3.15803146 -0.15896973
v 1.70977401 3.11293411 -0.15669292
v 1.62725448 3.13286972 -0.15896964
v 1.65179824 3.20717239 -0.15896973
v 1.7225914 3.15517044 -0.15666748
v 1.64240646 3.18281936 -0.15896973
v 1.67411422 3.25435257 -0.15896973
v 1.7394905 3.19594955 -0.15663337
v 1.66238021 3.23103714 -0.1589697
v 1.7009468 3.29912185 -0.15896958
v 1.76030349 3.23487472 -0.15659087
v 1.68698501 3.2770729 -0.15896973
v 1.73203659 3.34104538 -0.15896973
v 1.78482437 3.27157211 -0.15654009
v 1.71597671 3.3204689 -0.1589697
v 1.76709365 3.37971878 -0.15896973
v 1.8128395 3.30568313 -0.1564818
v 1.74908828 3.36081314 -0.15896973
v 1.80576705 3.41477584 -0.15896973
v 1.84405136 3.33689498 -0.15641661
v 1.78599929 3.39772415 -0.1589697
v 1.84768295 3.44586563 -0.15896973
v 1.87818527 3.36489486 -0.15634495
v 1.82634353 3.43083572 -0.15896973
v 1.89245224 3.47269821 -0.15896958
v 1.91489028 3.38941574 -0.1562675
v 1.86973953 3.45982742 -0.15896961
v 1.93964386 3.49501419 -0.15896961
v 1.95383453 3.4102211 -0.15618521
v 1.91577529 3.48443222 -0.15896958
v 1.98878479 3.51259994 -0.15896961
v 1.99462127 3.42711257 -0.15609869
v 1.96399688 3.50440597 -0.15896961
v 2.03940963 3.52527999 -0.15896961
v 2.03686142 3.43992233 -0.15600894
v 2.01394653 3.51955795 -0.15896961
v 2.08016586 3.44853591 -0.15591661
v 2.06512832 3.52974319 -0.15896961
v 2.09103775 3.53293991 -0.02137187
v 2.03940963 3.52527999 -0.02137187
v 2.07999801 3.44853591 -0.01806369
v 2.06512832 3.52974319 -0.02137187
v 1.98878479 3.51259994 -0.02137187
v 2.0367012 3.43992233 -0.01800039
v 2.01394653 3.51955795 -0.02137187
v 1.93964386 3.49501419 -0.02137187
v 1.99445343 3.42711257 -0.01793891
v 1.96399688 3.50440597 -0.02137187
v 1.89245224 3.47269821 -0.02137187
v 1.95366668 3.4102211 -0.01787957
v 1.91577529 3.48443222 -0.02137187
v 1.84768295 3.44586563 -0.02137196
v 1.91473007 3.38941574 -0.01782298
v 1.86973953 3.45982742 -0.02137196
v 1.80576705 3.41477584 -0.02137196
v 1.87801742 3.36489486 -0.01776981
v 1.82634353 3.43083572 -0.02137196
v 1.76709365 3.37971878 -0.02137196
v 1.84389114 3.33689498 -0.0177204
v 1.78599929 3.39772415 -0.02137196
v 1.73203659 3.34104538 -0.02137196
v 1.81267166 3.30568313 -0.01767563
v 1.74908828 3.36081314 -0.02137196
v 1.7009468 3.29912185 -0.02137196
v 1.78466415 3.27157211 -0.01763531
v 1.71597671 3.3204689 -0.02137196
v 1.67411422 3.25435257 -0.02137196
v 1.76013565 3.23486709 -0.01760026
v 1.68698501 3.2770729 -0.02137196
v 1.65179824 3.20717239 -0.02137196
v 1.73933029 3.19594955 -0.01757076
v 1.66238021 3.23103714 -0.02137196
v 1.63421249 3.15803146 -0.02137196
v 1.72243118 3.15517044 -0.01754698
v 1.64240646 3.18281936 -0.02137196
v 1.62153244 3.1074028 -0.02137193
v 1.7096138 3.11293411 -0.01752901
v 1.62725448 3.13286972 -0.02137196
v 1.61387252 3.05577468 -0.02137193
v 1.70100021 3.06964492 -0.01751759
v 1.61706924 3.08168411 -0.02137193
v 1.61131668 3.00364303 -0.02137193
v 1.69667434 3.0257225 -0.0175122
v 1.61195755 3.02973556 -0.02137193
v 1.61387252 2.95151138 -0.02137205
v 1.69667434 2.98158645 -0.01751327
v 1.61195755 2.97754287 -0.02137205
v 1.62153244 2.89988327 -0.02137205
v 1.70100784 2.93766403 -0.01752066
v 1.61706924 2.92560195 -0.02137205
v 1.63421249 2.8492546 -0.02137202
v 1.7096138 2.89437484 -0.01753425
v 1.62725448 2.87440872 -0.02137202
v 1.65179824 2.80010604 -0.02137202
v 1.72243118 2.85214614 -0.01755416
v 1.64240646 2.8244667 -0.02137202
v 1.67411422 2.75292587 -0.02137202
v 1.73933029 2.81136703 -0.01757973
v 1.66238021 2.7762413 -0.02137202
v 1.7009468 2.70815658 -0.02137202
v 1.76014328 2.77244186 -0.01761129
v 1.68698501 2.73021316 -0.02137202
v 1.73203659 2.66623306 -0.02137202
v 1.78467178 2.73574447 -0.01764807
v 1.71597671 2.68681716 -0.02137202
v 1.76709365 2.62755966 -0.02137202
v 1.81267929 2.70162582 -0.01768988
v 1.74908828 2.64647293 -0.02137202
v 1.80576705 2.59251022 -0.02137202
v 1.84389114 2.6704216 -0.0177364
v 1.78599929 2.60956192 -0.02137202
v 1.84768295 2.56142044 -0.02137202
v 1.87802505 2.64242172 -0.01778677
v 1.82634353 2.57645034 -0.02137202
v 1.89245224 2.53458786 -0.02137202
v 1.91473007 2.61790084 -0.01784133
v 1.86973953 2.54745101 -0.02137202
v 1.93964386 2.51227188 -0.02137211
v 1.95366668 2.59709549 -0.01789873
v 1.91577529 2.52284622 -0.02137202
v 1.98878479 2.49468612 -0.02137211
v 1.99446106 2.58020401 -0.01795911
v 1.96399688 2.50287246 -0.02137211
v 2.03940963 2.48200607 -0.02137202
v 2.0367012 2.56739425 -0.01802116
v 2.01394653 2.48772049 -0.02137211
v 2.09103775 2.47434616 -0.02137202
v 2.08000564 2.55878067 -0.01808461
v 2.06512832 2.47754287 -0.02137202
v 2.1431694 2.47178268 -0.02137211
v 2.12393569 2.5544548 -0.01814907
v 2.11706924 2.47242355 -0.02137202
v 2.19530105 2.47434616 -0.02137211
v 2.168087 2.5544548 -0.01821377
v 2.16926956 2.47242355 -0.02137211
v 2.24692916 2.48200607 -0.02137202
v 2.21202468 2.55878067 -0.01827794
v 2.22121048 2.47754287 -0.02137211
v 2.29755783 2.49468612 -0.02137202
v 2.2553215 2.56739425 -0.01834115
v 2.27240371 2.48772049 -0.02137202
v 2.34670639 2.51227188 -0.02137211
v 2.29757309 2.58020401 -0.01840287
v 2.32234573 2.50287246 -0.02137202
v 2.39388656 2.53458786 -0.02137211
v 2.33835983 2.59709549 -0.018462
v 2.37057113 2.52284622 -0.02137211
v 2.43865585 2.56142044 -0.02137211
v 2.37730026 2.61790084 -0.01851877
v 2.41659927 2.54745101 -0.02137211
v 2.48057937 2.59251022 -0.02137202
v 2.41400528 2.64242172 -0.01857194
v 2.45999527 2.57645034 -0.02137211
v 2.51925277 2.62755966 -0.02137202
v 2.44813156 2.6704216 -0.0186212
v 2.5003395 2.60956192 -0.02137202
v 2.55430221 2.66623306 -0.02137202
v 2.47935104 2.70162582 -0.01866611
v 2.53725051 2.6464653 -0.02137202
v 2.58539199 2.70815658 -0.02137202
v 2.50735855 2.73574447 -0.01870638
v 2.57036209 2.68681716 -0.02137202
v 2.61222457 2.75292587 -0.02137202
v 2.53188705 2.77244186 -0.01874148
v 2.59936142 2.73021316 -0.02137202
v 2.63454055 2.80010604 -0.02137202
v 2.55270004 2.81136703 -0.01877099
v 2.62396621 2.7762413 -0.02137202
v 2.65212631 2.8492546 -0.02137202
v 2.56959152 2.85214614 -0.01879471
v 2.64393997 2.8244667 -0.02137202
v 2.66480636 2.89988327 -0.02137205
v 2.5824089 2.89438247 -0.01881247
v 2.65908432 2.87440872 -0.02137202
v 2.67246627 2.95151138 -0.02137205
v 2.59102249 2.93766403 -0.0188241
v 2.66926956 2.92560195 -0.02137205
v 2.67502975 3.00364303 -0.02137205
v 2.59534835 2.98158645 -0.01882937
v 2.67438888 2.97754287 -0.02137205
v 2.67246627 3.05577468 -0.02137193
v 2.59534835 3.0257225 -0.01882818
v 2.67438888 3.02973556 -0.02137193
v 2.66480636 3.1074028 -0.02137193
v 2.59102249 3.06965255 -0.01882085
v 2.66926956 3.08168411 -0.02137193
v 2.65212631 3.15803146 -0.02137196
v 2.5824089 3.11293411 -0.01880732
v 2.65908432 3.13286972 -0.02137196
v 2.63454055 3.20717239 -0.02137196
v 2.56959152 3.15517044 -0.01878753
v 2.64393997 3.18281936 -0.02137196
v 2.61222457 3.25435257 -0.02137196
v 2.55269241 3.19594955 -0.01876178
v 2.62396621 3.23103714 -0.02137196
v 2.58539199 3.29912185 -0.02137196
v 2.53188705 3.23487472 -0.01873046
v 2.59936142 3.2770729 -0.02137196
v 2.55430221 3.34104538 -0.02137196
v 2.50735855 3.27157211 -0.01869362
v 2.57036209 3.3204689 -0.02137196
v 2.51925277 3.37971878 -0.02137187
v 2.47935104 3.30568313 -0.01865163
v 2.53725051 3.36081314 -0.02137187
v 2.48057937 3.41477584 -0.02137187
v 2.44813156 3.33689498 -0.01860529
v 2.5003395 3.39772415 -0.02137187
v 2.43865585 3.44586563 -0.02137196
v 2.41400528 3.36489486 -0.01855474
v 2.45999527 3.43083572 -0.02137187
v 2.39388656 3.47269821 -0.02137187
v 2.37729263 3.38941574 -0.01850041
v 2.41659927 3.45982742 -0.02137187
v 2.34670639 3.49501419 -0.02137187
v 2.33835983 3.4102211 -0.01844289
v 2.37057113 3.48443222 -0.02137187
v 2.29755783 3.51259994 -0.02137187
v 2.29756546 3.42711257 -0.01838269
v 2.32234573 3.50440597 -0.02137187
v 2.24692916 3.52527999 -0.02137187
v 2.2553215 3.43992233 -0.01832047
v 2.27240371 3.51955795 -0.02137187
v 2.19530105 3.53293991 -0.02137187
v 2.21201705 3.44853591 -0.01825714
v 2.22121048 3.52974319 -0.02137187
v 2.1431694 3.53549575 -0.02137187
v 2.168087 3.45286178 -0.01819255
v 2.16926956 3.53485488 -0.02137187
v 2.12393569 3.45286178 -0.01812791
v 2.11706924 3.53485488 -0.02137187
v -2.14564037 3.45123672 -0.15586982
v -2.10196971 3.44475936 -0.15596312
v -2.05913829 3.43404007 -0.15605419
v -2.01757335 3.41917038 -0.15614247
v -1.97766017 3.40029525 -0.15622693
v -1.93979167 3.37760543 -0.1563069
v -1.90433025 3.35131454 -0.15638145
v -1.87161922 3.32167434 -0.15645009
v -1.84196758 3.28897476 -0.1565119
v -1.81566906 3.25352096 -0.15656645
v -1.79297161 3.21566391 -0.15661314
v -1.77409648 3.1757698 -0.15665158
v -1.75922298 3.13421249 -0.15668129
v -1.74849605 3.09139633 -0.15670225
v -1.7420187 3.04774093 -0.15671394
v -1.73985576 3.00365829 -0.15671634
v -1.74202251 2.95957565 -0.15670952
v -1.74849987 2.91592025 -0.15669344
v -1.75922679 2.87310409 -0.15666833
v -1.77409648 2.83154678 -0.15663443
v -1.79297542 2.79165267 -0.15659198
v -1.81567668 2.75379562 -0.15654158
v -1.84197521 2.71834182 -0.15648348
v -1.87162303 2.68564224 -0.15641836
v -1.90433788 2.65600204 -0.15634688
v -1.9397993 2.62971115 -0.15626964
v -1.97766399 2.60702133 -0.15618737
v -2.01757717 2.58814621 -0.156101
v -2.05914592 2.57328414 -0.15601128
v -2.10197353 2.56255722 -0.15591901
v -2.145648 2.55607986 -0.15582525
v -2.18974208 2.55391311 -0.15573063
v -2.23383617 2.55607986 -0.1556364
v -2.27750682 2.56255722 -0.15554304
v -2.32033824 2.57328414 -0.15545189
v -2.36190319 2.58815383 -0.15536373
v -2.40181636 2.60702133 -0.15527923
v -2.43968486 2.62971115 -0.15519937
v -2.47514629 2.65600204 -0.15512475
v -2.50786113 2.68564224 -0.15505614
v -2.53750896 2.71834182 -0.15499433
v -2.56380748 2.75379562 -0.1549398
v -2.58650493 2.79165267 -0.15489298
v -2.60538005 2.83154678 -0.15485456
v -2.62025737 2.87310409 -0.15482482
v -2.6309843 2.91592025 -0.15480393
v -2.63746166 2.95957565 -0.15479226
v -2.63962459 3.00365829 -0.15478977
v -2.63745784 3.04774093 -0.1547966
v -2.63097667 3.09139633 -0.15481275
v -2.62024974 3.13421249 -0.15483784
v -2.60538005 3.1757698 -0.15487173
v -2.58650112 3.21566391 -0.15491417
v -2.56380367 3.25352096 -0.15496465
v -2.53750133 3.28897476 -0.15502274
v -2.5078535 3.32167434 -0.15508779
v -2.47513866 3.35131454 -0.15515932
v -2.43967723 3.37760543 -0.15523657
v -2.40181255 3.40029525 -0.15531885
v -2.36189937 3.41917038 -0.15540514
v -2.32033062 3.43404007 -0.15549495
v -2.27750682 3.44475936 -0.15558718
v -2.23382854 3.45123672 -0.15568099
v -2.18973445 3.45340347 -0.1557756
v -2.14547252 3.45123672 -0.01809558
v -2.10180187 3.44475936 -0.01803174
v -2.05897426 3.43403244 -0.01796928
v -2.01740551 3.41917038 -0.0179089
v -1.97749614 3.40029525 -0.01785081
v -1.93962764 3.37760543 -0.0177958
v -1.90417003 3.35131454 -0.01774451
v -1.87145519 3.32167434 -0.01769745
v -1.84180736 3.28896713 -0.01765477
v -1.81550884 3.25352096 -0.01761707
v -1.79281139 3.21566391 -0.01758465
v -1.77393627 3.1757698 -0.01755806
v -1.75905895 3.13421249 -0.01753732
v -1.74833202 3.09139633 -0.0175226
v -1.74185466 3.04774093 -0.01751402
v -1.73969173 3.00365829 -0.01751202
v -1.74185848 2.95957565 -0.01751601
v -1.74833583 2.91591262 -0.01752674
v -1.75906276 2.87310409 -0.0175434
v -1.77393627 2.83154678 -0.01756611
v -1.79281139 2.79165267 -0.01759481
v -1.81550884 2.75379562 -0.01762881
v -1.84180736 2.71834182 -0.01766836
v -1.871459 2.68564224 -0.01771253
v -1.90417003 2.65600204 -0.01776102
v -1.93963146 2.62971115 -0.01781371
v -1.97749996 2.60702133 -0.01786947
v -2.01740932 2.58814621 -0.01792836
v -2.05897808 2.57327652 -0.01798981
v -2.10180187 2.56255722 -0.01805278
v -2.14547252 2.55607986 -0.01811689
v -2.18957042 2.55391311 -0.01818159
v -2.23366832 2.55607986 -0.01824605
v -2.27733898 2.56255722 -0.01830974
v -2.32016277 2.57327652 -0.01837208
v -2.36173152 2.58814621 -0.01843261
v -2.4016447 2.60702133 -0.01849082
v -2.43950939 2.62971115 -0.01854589
v -2.47497081 2.65600204 -0.01859691
v -2.50768566 2.68564224 -0.01864418
v -2.53733348 2.71834182 -0.01868674
v -2.56363201 2.75379562 -0.01872456
v -2.58632946 2.79165267 -0.01875671
v -2.60520458 2.83154678 -0.01878368
v -2.62007427 2.87310409 -0.01880425
v -2.6308012 2.91592025 -0.01881897
v -2.63727855 2.95957565 -0.01882749
v -2.6394453 3.00365829 -0.01882967
v -2.63727855 3.04774093 -0.01882535
v -2.6308012 3.09139633 -0.01881495
v -2.62007427 3.13421249 -0.01879823
v -2.60520458 3.1757698 -0.01877525
v -2.58632183 3.21566391 -0.01874685
v -2.56362819 3.25352096 -0.01871249
v -2.53732585 3.28897476 -0.01867339
v -2.50767803 3.32167434 -0.01862913
v -2.474967 3.35131454 -0.01858034
v -2.43950939 3.37760543 -0.01852798
v -2.40163707 3.40029525 -0.01847195
v -2.36172771 3.41917038 -0.01841309
v -2.32015895 3.43404007 -0.0183517
v -2.27733135 3.44475936 -0.01828885
v -2.23366069 3.45123672 -0.01822462
v -2.18956661 3.45340347 -0.01816004
v -2.18672466 3.53549575 -0.15896961
v -2.1676588 3.45286178 -0.15582282
v -2.13459301 3.53293991 -0.15896961
v -2.16063213 3.53485488 -0.15896961
v -2.23885631 3.53293991 -0.15896961
v -2.21181011 3.45286178 -0.15572823
v -2.21282482 3.53485488 -0.15896961
v -2.29048442 3.52527999 -0.15896961
v -2.25574779 3.44853591 -0.15563395
v -2.26476573 3.52974319 -0.15896961
v -2.3411169 3.51259994 -0.15896961
v -2.29904842 3.43992233 -0.15554088
v -2.31595897 3.51955795 -0.15896961
v -2.39026165 3.49501419 -0.15896961
v -2.34129619 3.42711257 -0.15544974
v -2.36590099 3.50440597 -0.15896961
v -2.43744182 3.47269821 -0.15896958
v -2.38208675 3.4102211 -0.15536156
v -2.41412639 3.48443222 -0.15896958
v -2.48221111 3.44586563 -0.15896973
v -2.42102336 3.38941574 -0.1552771
v -2.46015453 3.45982742 -0.15896973
v -2.52413463 3.41477584 -0.15896958
v -2.45773601 3.36489486 -0.15519724
v -2.50355434 3.43083572 -0.15896973
v -2.56280803 3.37971878 -0.15896961
v -2.49186229 3.33689498 -0.15512287
v -2.54390239 3.39772415 -0.15896958
v -2.59785747 3.34104538 -0.15896973
v -2.52308177 3.30569076 -0.15505439
v -2.58080577 3.36081314 -0.15896973
v -2.62894725 3.29912185 -0.15896973
v -2.55108928 3.27157211 -0.15499271
v -2.61391735 3.3204689 -0.1589697
v -2.65577983 3.25435257 -0.15896973
v -2.57561779 3.23487472 -0.15493843
v -2.64291667 3.2770729 -0.15896973
v -2.67809581 3.20717239 -0.15896973
v -2.59643077 3.19594955 -0.15489196
v -2.66752147 3.23103714 -0.1589697
v -2.69568157 3.15803146 -0.15896973
v -2.61332225 3.15517044 -0.15485367
v -2.68749523 3.18281936 -0.15896973
v -2.70836162 3.1074028 -0.15896979
v -2.62613964 3.11293411 -0.1548241
v -2.7026472 3.13286972 -0.15896976
v -2.71602153 3.05577468 -0.15896976
v -2.63475322 3.06965255 -0.15480344
v -2.71282482 3.08168411 -0.15896979
v -2.71858501 3.00364303 -0.15896979
v -2.6390829 3.02573013 -0.15479198
v -2.71794414 3.02973556 -0.15896979
v -2.71602153 2.95151138 -0.15896979
v -2.6390829 2.98159408 -0.15478998
v -2.71794414 2.97754287 -0.15896976
v -2.70836162 2.89988327 -0.15896979
v -2.63475322 2.93767166 -0.15479697
v -2.71282482 2.92560195 -0.15896979
v -2.69568157 2.8492546 -0.15896979
v -2.62614345 2.89438247 -0.1548132
v -2.7026472 2.87440872 -0.15896979
v -2.67809581 2.80010604 -0.15896976
v -2.61332988 2.85214614 -0.15483868
v -2.68749523 2.8244667 -0.15896979
v -2.65577983 2.75292587 -0.15896979
v -2.59643077 2.81136703 -0.15487274
v -2.66752147 2.7762413 -0.15896979
v -2.62894725 2.70815658 -0.15896976
v -2.57561779 2.77244186 -0.15491527
v -2.64291667 2.73021316 -0.15896979
v -2.59785747 2.66623306 -0.15896979
v -2.5510931 2.73574447 -0.15496611
v -2.61391735 2.68681716 -0.15896979
v -2.56280803 2.62755966 -0.15896976
v -2.52308177 2.70163345 -0.15502433
v -2.58080577 2.6464653 -0.15896979
v -2.52413463 2.59251022 -0.15896984
v -2.49186611 2.6704216 -0.15508954
v -2.54390239 2.60956192 -0.15896984
v -2.48221111 2.56142044 -0.15896984
v -2.45773601 2.64242172 -0.15516126
v -2.50355052 2.57645034 -0.15896984
v -2.43744182 2.53458786 -0.15896984
v -2.42103099 2.61790084 -0.1552387
v -2.46015453 2.54745101 -0.15896982
v -2.39026165 2.51227188 -0.15896984
v -2.38209056 2.59709549 -0.155321
v -2.41412639 2.52284622 -0.15896984
v -2.3411169 2.49468612 -0.15896979
v -2.34130382 2.58020401 -0.15540751
v -2.36590099 2.50287246 -0.15896984
v -2.29048442 2.48200607 -0.15896984
v -2.29905223 2.56739425 -0.15549717
v -2.31595897 2.48772811 -0.15896979
v -2.23885631 2.47434616 -0.15896984
v -2.25575542 2.55878067 -0.15558964
v -2.26476573 2.47754287 -0.15896984
v -2.18672466 2.47178268 -0.15896984
v -2.21181774 2.5544548 -0.15568348
v -2.21282482 2.47242355 -0.15896984
v -2.13459301 2.47434616 -0.15896979
v -2.16766643 2.5544548 -0.15577796
v -2.16063213 2.47242355 -0.15896979
v -2.08296489 2.48200607 -0.15896979
v -2.12372875 2.55878067 -0.15587222
v -2.1086874 2.47754287 -0.15896979
v -2.03233623 2.49468612 -0.15896984
v -2.08042812 2.56739425 -0.15596535
v -2.05749797 2.48772811 -0.15896984
v -1.9831953 2.51227188 -0.15896984
v -2.03818035 2.58020401 -0.15605646
v -2.00754833 2.50287246 -0.15896984
v -1.93601131 2.53458786 -0.15896984
v -1.99738979 2.59709549 -0.15614467
v -1.95933055 2.52284622 -0.15896979
v -1.89124584 2.56142044 -0.15896979
v -1.95845317 2.61790084 -0.15622913
v -1.91329479 2.54745101 -0.15896976
v -1.84932231 2.59251022 -0.15896984
v -1.92174434 2.64242172 -0.1563089
v -1.86989879 2.57645034 -0.15896979
v -1.81064891 2.62755966 -0.15896976
v -1.88761425 2.6704216 -0.15638333
v -1.82955455 2.60956192 -0.15896979
v -1.77559566 2.66623306 -0.15896979
v -1.85639476 2.70162582 -0.15645185
v -1.79264736 2.64647293 -0.15896979
v -1.74450206 2.70815658 -0.15896976
v -1.82838726 2.73574447 -0.15651357
v -1.75953578 2.68681716 -0.15896979
v -1.71766948 2.75292587 -0.15896979
v -1.80385875 2.77244186 -0.15656775
v -1.73054027 2.73021316 -0.15896979
v -1.6953535 2.80010604 -0.15896976
v -1.78304576 2.81136703 -0.15661419
v -1.70593547 2.7762413 -0.15896979
v -1.67777156 2.8492546 -0.15896979
v -1.76615428 2.85214614 -0.15665242
v -1.68596172 2.8244667 -0.15896979
v -1.6650877 2.89988327 -0.15896979
v -1.7533369 2.89438247 -0.15668207
v -1.67080974 2.87440872 -0.15896979
v -1.6574316 2.95151138 -0.15896979
v -1.74472332 2.93766403 -0.15670265
v -1.6606245 2.92560195 -0.15896979
v -1.65487194 3.00364303 -0.15896979
v -1.74039745 2.98158645 -0.15671417
v -1.65551281 2.97754287 -0.15896976
v -1.6574316 3.05577468 -0.15896976
v -1.74039745 3.0257225 -0.15671625
v -1.65551281 3.02973556 -0.15896979
v -1.6650877 3.1074028 -0.15896979
v -1.74472332 3.06964492 -0.15670912
v -1.6606245 3.08168411 -0.15896979
v -1.67777156 3.15803146 -0.15896973
v -1.7533369 3.11293411 -0.15669292
v -1.67080974 3.13286972 -0.15896964
v -1.6953535 3.20717239 -0.15896973
v -1.76615047 3.15517044 -0.15666748
v -1.68596172 3.18281936 -0.15896973
v -1.71766948 3.25435257 -0.15896973
v -1.78304576 3.19594955 -0.15663337
v -1.70593547 3.23103714 -0.1589697
v -1.74450206 3.29912185 -0.15896958
v -1.80385875 3.23487472 -0.15659087
v -1.73054027 3.2770729 -0.15896973
v -1.77559566 3.34104538 -0.15896973
v -1.82838726 3.27157211 -0.15654009
v -1.75953578 3.3204689 -0.1589697
v -1.81064891 3.37971878 -0.15896973
v -1.85639476 3.30568313 -0.1564818
v -1.79264736 3.36081314 -0.15896973
v -1.84932231 3.41477584 -0.15896973
v -1.88761425 3.33689498 -0.15641661
v -1.82955455 3.39772415 -0.1589697
v -1.89124584 3.44586563 -0.15896973
v -1.92174053 3.36489486 -0.15634495
v -1.86989879 3.43083572 -0.15896973
v -1.93601131 3.47269821 -0.15896958
v -1.95844554 3.38941574 -0.1562675
v -1.9132986 3.45982742 -0.15896961
v -1.9831953 3.49501419 -0.15896961
v -1.99738597 3.4102211 -0.15618521
v -1.95933055 3.48443222 -0.15896958
v -2.03233623 3.51259994 -0.15896961
v -2.03817272 3.42711257 -0.15609869
v -2.00754833 3.50440597 -0.15896961
v -2.08296489 3.52527999 -0.15896961
v -2.0804243 3.43992233 -0.15600894
v -2.05749797 3.51955795 -0.15896961
v -2.12372112 3.44853591 -0.15591661
v -2.1086874 3.52974319 -0.15896961
v -2.13459301 3.53293991 -0.02137187
v -2.08296489 3.52527999 -0.02137187
v -2.12355327 3.44853591 -0.01806369
v -2.1086874 3.52974319 -0.02137187
v -2.03233623 3.51259994 -0.02137187
v -2.08025646 3.43992233 -0.01800039
v -2.05749797 3.51955795 -0.02137187
v -1.9831953 3.49501419 -0.02137187
v -2.03800487 3.42711257 -0.01793891
v -2.00754833 3.50440597 -0.02137187
v -1.93601131 3.47269821 -0.02137187
v -1.99721813 3.4102211 -0.01787957
v -1.95933055 3.48443222 -0.02137187
v -1.89124584 3.44586563 -0.02137196
v -1.95828533 3.38941574 -0.01782298
v -1.9132986 3.45982742 -0.02137196
v -1.84932231 3.41477584 -0.02137196
v -1.92157268 3.36489486 -0.01776981
v -1.86989879 3.43083572 -0.02137196
v -1.81064891 3.37971878 -0.02137196
v -1.8874464 3.33689498 -0.0177204
v -1.82955455 3.39772415 -0.02137196
v -1.77559566 3.34104538 -0.02137196
v -1.85623073 3.30568313 -0.01767563
v -1.79264736 3.36081314 -0.02137196
v -1.74450206 3.29912185 -0.02137196
v -1.82822322 3.27157211 -0.01763531
v -1.75953578 3.3204689 -0.02137196
v -1.71766948 3.25435257 -0.02137196
v -1.80369472 3.23486709 -0.01760026
v -1.73054027 3.2770729 -0.02137196
v -1.6953535 3.20717239 -0.02137196
v -1.78288555 3.19594955 -0.01757076
v -1.70593547 3.23103714 -0.02137196
v -1.67777156 3.15803146 -0.02137196
v -1.76598644 3.15517044 -0.01754698
v -1.68596172 3.18281936 -0.02137196
v -1.6650877 3.1074028 -0.02137193
v -1.75317287 3.11293411 -0.01752901
v -1.67080974 3.13286972 -0.02137196
v -1.6574316 3.05577468 -0.02137193
v -1.7445631 3.06964492 -0.01751759
v -1.6606245 3.08168411 -0.02137193
v -1.65487194 3.00364303 -0.02137193
v -1.74023342 3.0257225 -0.0175122
v -1.65551281 3.02973556 -0.02137193
v -1.6574316 2.95151138 -0.02137205
v -1.74023342 2.98158645 -0.01751327
v -1.65551281 2.97754287 -0.02137205
v -1.6650877 2.89988327 -0.02137205
v -1.7445631 2.93766403 -0.01752066
v -1.6606245 2.92560195 -0.02137205
v -1.67777156 2.8492546 -0.02137202
v -1.75317668 2.89437484 -0.01753425
v -1.67080974 2.87440872 -0.02137202
v -1.6953535 2.80010604 -0.02137202
v -1.76599025 2.85214614 -0.01755416
v -1.68596172 2.8244667 -0.02137202
v -1.71766948 2.75292587 -0.02137202
v -1.78288555 2.81136703 -0.01757973
v -1.70593547 2.7762413 -0.02137202
v -1.74450206 2.70815658 -0.02137202
v -1.80369854 2.77244186 -0.01761129
v -1.73054027 2.73021316 -0.02137202
v -1.77559566 2.66623306 -0.02137202
v -1.82822704 2.73574447 -0.01764807
v -1.75953578 2.68681716 -0.02137202
v -1.81064891 2.62755966 -0.02137202
v -1.85623455 2.70162582 -0.01768988
v -1.79264736 2.64647293 -0.02137202
v -1.84932231 2.59251022 -0.02137202
v -1.88745403 2.6704216 -0.0177364
v -1.82955455 2.60956192 -0.02137202
v -1.89124584 2.56142044 -0.02137202
v -1.92158031 2.64242172 -0.01778677
v -1.86989879 2.57645034 -0.02137202
v -1.93601131 2.53458786 -0.02137202
v -1.95828533 2.61790084 -0.01784133
v -1.91329479 2.54745101 -0.02137202
v -1.9831953 2.51227188 -0.02137211
v -1.99722576 2.59709549 -0.01789873
v -1.95933055 2.52284622 -0.02137202
v -2.03233623 2.49468612 -0.02137211
v -2.0380125 2.58020401 -0.01795911
v -2.00754833 2.50287246 -0.02137211
v -2.08296489 2.48200607 -0.02137202
v -2.08025646 2.56739425 -0.01802116
v -2.05749797 2.48772049 -0.02137211
v -2.13459301 2.47434616 -0.02137202
v -2.1235609 2.55878067 -0.01808461
v -2.1086874 2.47754287 -0.02137202
v -2.18672466 2.47178268 -0.02137211
v -2.16749858 2.5544548 -0.01814907
v -2.16063213 2.47242355 -0.02137202
v -2.23885631 2.47434616 -0.02137211
v -2.21164226 2.5544548 -0.01821377
v -2.21282482 2.47242355 -0.02137211
v -2.29048442 2.48200607 -0.02137202
v -2.25557994 2.55878067 -0.01827794
v -2.26476573 2.47754287 -0.02137211
v -2.3411169 2.49468612 -0.02137202
v -2.29888439 2.56739425 -0.01834115
v -2.31595897 2.48772049 -0.02137202
v -2.39026165 2.51227188 -0.02137211
v -2.34112834 2.58020401 -0.01840287
v -2.36590099 2.50287246 -0.02137202
v -2.43744182 2.53458786 -0.02137211
v -2.38191509 2.59709549 -0.018462
v -2.41412639 2.52284622 -0.02137211
v -2.48221111 2.56142044 -0.02137211
v -2.42085552 2.61790084 -0.01851877
v -2.46015453 2.54745101 -0.02137211
v -2.52413463 2.59251022 -0.02137202
v -2.45756053 2.64242172 -0.01857194
v -2.50355052 2.57645034 -0.02137211
v -2.56280803 2.62755966 -0.02137202
v -2.49169063 2.6704216 -0.0186212
v -2.54390239 2.60956192 -0.02137202
v -2.59785747 2.66623306 -0.02137202
v -2.5229063 2.70162582 -0.01866611
v -2.58080577 2.6464653 -0.02137202
v -2.62894725 2.70815658 -0.02137202
v -2.55091381 2.73574447 -0.01870638
v -2.61391735 2.68681716 -0.02137202
v -2.65577983 2.75292587 -0.02137202
v -2.57544231 2.77244186 -0.01874148
v -2.64291667 2.73021316 -0.02137202
v -2.67809581 2.80010604 -0.02137202
v -2.5962553 2.81136703 -0.01877099
v -2.66752147 2.7762413 -0.02137202
v -2.69568157 2.8492546 -0.02137202
v -2.61314678 2.85214614 -0.01879471
v -2.68749523 2.8244667 -0.02137202
v -2.70836162 2.89988327 -0.02137205
v -2.62596416 2.89438247 -0.01881247
v -2.7026472 2.87440872 -0.02137202
v -2.71602153 2.95151138 -0.02137205
v -2.63457775 2.93766403 -0.0188241
v -2.71282482 2.92560195 -0.02137205
v -2.71858501 3.00364303 -0.02137205
v -2.63890361 2.98158645 -0.01882937
v -2.71794414 2.97754287 -0.02137205
v -2.71602153 3.05577468 -0.02137193
v -2.63890361 3.0257225 -0.01882818
v -2.71794414 3.02973556 -0.02137193
v -2.70836162 3.1074028 -0.02137193
v -2.63457775 3.06965255 -0.01882085
v -2.71282482 3.08168411 -0.02137193
v -2.69568157 3.15803146 -0.02137196
v -2.62596416 3.11293411 -0.01880732
v -2.7026472 3.13286972 -0.02137196
v -2.67809581 3.20717239 -0.02137196
v -2.61314678 3.15517044 -0.01878753
v -2.68749523 3.18281936 -0.02137196
v -2.65577983 3.25435257 -0.02137196
v -2.5962553 3.19594955 -0.01876178
v -2.66752147 3.23103714 -0.02137196
v -2.62894725 3.29912185 -0.02137196
v -2.57544231 3.23487472 -0.01873046
v -2.64291667 3.2770729 -0.02137196
v -2.59785747 3.34104538 -0.02137196
v -2.55091381 3.27157211 -0.01869362
v -2.61391735 3.3204689 -0.02137196
v -2.56280803 3.37971878 -0.02137187
v -2.5229063 3.30568313 -0.01865163
v -2.58080577 3.36081314 -0.02137187
v -2.52413463 3.41477584 -0.02137187
v -2.49168682 3.33689498 -0.01860529
v -2.54390239 3.39772415 -0.02137187
v -2.48221111 3.44586563 -0.02137196
v -2.45756053 3.36489486 -0.01855474
v -2.50355434 3.43083572 -0.02137187
v -2.43744182 3.47269821 -0.02137187
v -2.42084789 3.38941574 -0.01850041
v -2.46015453 3.45982742 -0.02137187
v -2.39026165 3.49501419 -0.02137187
v -2.38191509 3.4102211 -0.01844289
v -2.41412639 3.48443222 -0.02137187
v -2.3411169 3.51259994 -0.02137187
v -2.34112834 3.42711257 -0.01838269
v -2.36590099 3.50440597 -0.02137187
v -2.29048442 3.52527999 -0.02137187
v -2.29887676 3.43992233 -0.01832047
v -2.31595897 3.51955795 -0.02137187
v -2.23885631 3.53293991 -0.02137187
v -2.25557994 3.44853591 -0.01825714
v -2.26476573 3.52974319 -0.02137187
v -2.18672466 3.53549575 -0.02137187
v -2.21164226 3.45286178 -0.01819255
v -2.21282482 3.53485488 -0.02137187
v -2.16749095 3.45286178 -0.01812791
v -2.16063213 3.53485488 -0.02137187
v 1.45023822 -3.53549575 -0.33692234
v 2.10541153 -3.18531417 -0.33363753
v 2.67969131 -2.71401596 -0.32921832
v 3.1509819 -2.13975906 -0.32383254
v 3.50118637 -1.48463821 -0.3176884
v 3.71683883 -0.77374649 -0.31102228
v 3.71683883 0.70484542 -0.29715549
v 3.50118637 1.41573715 -0.29048931
v 3.1509819 2.07085037 -0.28434619
v 2.67969131 2.64513778 -0.27896094
v 2.10541915 3.116436 -0.27454096
v 1.45023822 3.46660232 -0.27125704
v -1.45023632 3.46660232 -0.27125704
v -2.1054182 3.116436 -0.27454176
v -2.67969036 2.64515304 -0.278961
v -3.15098094 2.07084274 -0.28434541
v -3.50118541 1.41572952 -0.29048934
v -3.71683788 0.70485305 -0.29715558
v -3.71683788 -0.77374649 -0.31102234
v -3.50118541 -1.48464584 -0.31768846
v -3.15098094 -2.13976669 -0.32383254
v -2.67969036 -2.71401596 -0.32921838
v -2.1054182 -3.18531417 -0.33363756
v -1.45024013 -3.53549575 -0.33692231
v 0.95108509 -2.33045578 -0.3256213
v 1.38075733 -2.100811 -0.32346737
v 1.75736618 -1.79175186 -0.32056927
v 2.06644821 -1.4151268 -0.31703728
v 2.29610824 -0.98550033 -0.3130075
v 2.43754196 -0.51929092 -0.30863621
v 2.43754196 0.4503746 -0.2995423
v 2.29610824 0.91658401 -0.2951703
v 2.06644821 1.3462181 -0.2911413
v 1.75736618 1.72284317 -0.28760853
v 1.38075733 2.03190231 -0.28471124
v 0.95108509 2.26155471 -0.28255724
v -0.95108318 2.26155471 -0.28255733
v -1.38075542 2.03190231 -0.28471127
v -1.75737285 1.72283554 -0.28760859
v -2.06644725 1.34621048 -0.29114133
v -2.29611492 0.91657638 -0.29517024
v -2.437541 0.45038223 -0.29954248
v -2.437541 -0.51929092 -0.30863547
v -2.29611492 -0.98550033 -0.31300759
v -2.06645107 -1.41513443 -0.31703734
v -1.75737285 -1.79176712 -0.3205693
v -1.38075542 -2.100811 -0.32346737
v -0.95108318 -2.33045578 -0.32562124
v 0.98840618 -2.42425155 0.06448891
v 1.43494892 -2.1855812 0.06672707
v 1.82634353 -1.86439132 0.06973907
v 2.14754867 -1.47301101 0.07340917
v 2.38623428 -1.02647781 0.07759711
v 2.53321456 -0.54198837 0.08214119
v 2.53321456 0.46575546 0.0915912
v 2.38623428 0.95026016 0.09613511
v 2.14754867 1.39680099 0.10032239
v 1.82634353 1.78815841 0.10399249
v 1.43494892 2.10934066 0.10700455
v 0.98840618 2.34800338 0.10924318
v -0.98841381 2.34801101 0.10924318
v -1.43495082 2.10934066 0.10700443
v -1.82634639 1.78815841 0.10399249
v -2.14755535 1.39680099 0.10032156
v -2.38623333 0.95026016 0.09613511
v -2.53321361 0.46574783 0.09159109
v -2.53321361 -0.54198837 0.08214035
v -2.38623333 -1.02647781 0.07759723
v -2.14755535 -1.47301101 0.07340917
v -1.82634639 -1.86439132 0.06973907
v -1.43495464 -2.1855812 0.06672695
v -0.98841381 -2.42424392 0.0644882
v 1.4129076 -3.4490242 0.05487802
v 2.05121994 -3.10786056 0.05807712
v 2.61071395 -2.64871597 0.06238308
v 3.06987381 -2.08926773 0.06763014
v 3.41106796 -1.45096969 0.07361611
v 3.62116622 -0.75839614 0.08011046
v 3.62116622 0.68217849 0.0936205
v 3.41106796 1.37472152 0.10011544
v 3.06987381 2.01302719 0.10610225
v 2.61071395 2.57249832 0.11134758
v 2.05121994 3.03162765 0.11565426
v 1.4129076 3.37278366 0.11885324
v -1.41290569 3.37278366 0.11885336
v -2.05122661 3.03162765 0.11565414
v -2.610713 2.57249069 0.11134758
v -3.06987285 2.01301956 0.10610142
v -3.41105938 1.37472915 0.10011544
v -3.62116527 0.68217849 0.09362027
v -3.62116527 -0.75839614 0.08011046
v -3.41105938 -1.45096206 0.07361611
v -3.06987667 -2.08926773 0.06763002
v -2.610713 -2.6487236 0.06238392
v -2.05122661 -3.10786056 0.05807784
v -1.41290569 -3.4490242 0.0548779
v 0.17342662 0.83520126 -0.05512015
v 0.19246006 0.92721176 0.33673194
v 0.3775568 0.87105941 0.3361912
v 0.34022617 0.78460311 -0.05560903
v 0.87194347 0.1367073 -0.06168423
v 0.96761798 0.15209579 0.32944968
v 0.98656749 -0.04037857 0.32763746
v 0.88902568 -0.03670883 -0.06331734
v -0.87194347 0.13671493 -0.06169204
v -0.96761608 0.15208816 0.32944062
v -0.91147899 0.33716964 0.33120361
v -0.82136058 0.30348587 -0.06010083
v -0.87194347 -0.21014022 -0.064952
v -0.96761226 -0.2328453 0.32582369
v -0.98656749 -0.04037857 0.32763198
v -0.88902568 -0.03670883 -0.06332282
v 0.54812145 0.77989578 0.33533814
v 0.49392986 0.70245742 -0.0563768
v 0.82135295 -0.37691116 -0.06650589
v 0.9114809 -0.41788864 0.32409909
v 0.8203001 -0.58848953 0.32251134
v 0.739192 -0.53059768 -0.06793372
v 0.87194347 -0.21014022 -0.06494657
v 0.96761798 -0.2328453 0.32582929
v -0.17343616 0.83520126 -0.05511705
v -0.19246387 0.92721176 0.33673432
v -0.00000095 0.9461708 0.33692231
v -0.00000095 0.85228347 -0.05494694
v -0.82135295 -0.37691879 -0.06651137
v -0.91147136 -0.41789627 0.32409265
v -0.3775587 -0.95180892 0.31909909
v -0.34022808 -0.85801315 -0.07100923
v -0.34022808 0.78460311 -0.05560438
v -0.37756633 0.87105941 0.33619537
v 0.82136058 0.3034935 -0.06009851
v 0.9114809 0.33716964 0.33120587
v 0.34022617 -0.85801315 -0.07100607
v 0.3775568 -0.95181655 0.31910279
v -0.62863445 -0.66534042 -0.06920383
v -0.69760799 -0.73797988 0.32110396
v -0.8203001 -0.58848953 0.32250598
v -0.739192 -0.53059768 -0.06793992
v 0.69761943 0.65723037 0.33421376
v 0.62864208 0.5919075 -0.05738656
v -0.54814434 -0.86063003 0.31994989
v -0.49395275 -0.77585983 -0.07024382
v -0.49392223 0.70246505 -0.05637137
v -0.54811763 0.77990341 0.33534398
v 0.69760417 -0.73797226 0.32110658
v 0.62862682 -0.66533279 -0.06920145
v 0.73919963 0.45717239 -0.05863796
v 0.82030773 0.50775528 0.33282426
v 0.49392986 -0.77586746 -0.07024382
v 0.54812908 -0.86063766 0.31994918
v -0.82031536 0.50775528 0.332832
v -0.73920726 0.45717239 -0.05863027
v -0.62864208 0.5919075 -0.05737797
v -0.6976118 0.657238 0.33422234
v 0.52684307 1.23580551 -0.1249402
v 0.26856327 1.31414413 -0.12419535
v 0.28759861 1.40615463 0.26765695
v 0.56416606 1.32225418 0.26686039
v 1.3766756 -0.03601455 -0.13687159
v 1.35022449 0.2325325 -0.13434831
v 1.4458971 0.24792099 0.25678589
v 1.47422504 -0.03968429 0.2540839
v -1.27188777 0.4907875 -0.13191299
v -1.35022258 0.23254013 -0.13435377
v -1.44589519 0.24790573 0.25677958
v -1.36200618 0.52446365 0.25939217
v -1.37667751 -0.03601455 -0.1368754
v -1.35022258 -0.3045845 -0.13939569
v -1.44589519 -0.32728958 0.25138035
v -1.47422313 -0.03968429 0.25408008
v 0.76484966 1.10859298 -0.12613143
v 0.81904125 1.18603134 0.26558414
v 1.14466381 -0.80081558 -0.1440332
v 1.27188587 -0.56283187 -0.14181049
v 1.36200428 -0.60380935 0.2487947
v 1.22576618 -0.85870742 0.2464126
v 1.35022449 -0.3045845 -0.13939215
v 1.4458971 -0.32728958 0.25138452
v -0.00000095 1.34059524 -0.12393839
v -0.26857662 1.31414413 -0.1241932
v -0.28760051 1.40615463 0.26765862
v -0.00000095 1.4344902 0.26793161
v -1.27188396 -0.5628395 -0.1418143
v -1.36200237 -0.60380935 0.24879029
v -0.52684307 1.23580551 -0.12493698
v -0.56417369 1.32225418 0.26686337
v 1.27188587 0.4907875 -0.13191138
v 1.3620119 0.52447128 0.25939372
v -1.14466381 -0.80081558 -0.14403753
v -0.97345256 -1.00945663 -0.14599429
v -1.04242992 -1.08208847 0.24431404
v -1.2257719 -0.85870742 0.24640885
v 0.9734621 0.93740463 -0.12771783
v 1.04243755 1.00271987 0.26388314
v -0.76486492 -1.1806221 -0.14760191
v -0.52684307 -1.30783462 -0.1487915
v -0.56417369 -1.4016304 0.2413176
v -0.81905651 -1.2653923 0.24259242
v -0.76484203 1.10860061 -0.12612767
v -0.81904125 1.18603897 0.26558807
v 0.97345447 -1.009449 -0.14599265
v 1.04242992 -1.08208847 0.24431583
v 1.14467144 0.72877121 -0.12966616
v 1.22577381 0.77935409 0.26179686
v 0.52684307 -1.30783462 -0.14878933
v 0.76484966 -1.18062973 -0.14760191
v 0.81904888 -1.26539993 0.24259194
v 0.56416606 -1.40163803 0.2413204
v -1.14467144 0.72876358 -0.12966083
v -1.22577953 0.77935409 0.26180198
v -0.97346019 0.937397 -0.1277119
v -1.04243755 1.0027275 0.2638891
g Group27112
f 130 511 65 1
f 129 64 130 132
f 132 130 1 131
f 227 416 97 33
f 32 96 416 227
f 133 63 134 135
f 135 134 64 129
f 64 128 511 130
f 134 509 128 64
f 136 62 137 138
f 138 137 63 133
f 230 413 96 32
f 31 95 413 230
f 139 61 140 141
f 141 140 62 136
f 63 127 509 134
f 137 506 127 63
f 142 60 143 144
f 144 143 61 139
f 233 410 95 31
f 30 94 410 233
f 145 59 146 147
f 147 146 60 142
f 62 126 506 137
f 140 503 126 62
f 148 58 149 150
f 150 149 59 145
f 236 407 94 30
f 29 93 407 236
f 151 57 152 153
f 153 152 58 148
f 61 125 503 140
f 143 500 125 61
f 154 56 155 156
f 156 155 57 151
f 239 404 93 29
f 28 92 404 239
f 157 55 158 159
f 159 158 56 154
f 60 124 500 143
f 146 497 124 60
f 160 54 161 162
f 162 161 55 157
f 242 401 92 28
f 27 91 401 242
f 163 53 164 165
f 165 164 54 160
f 59 123 497 146
f 149 494 123 59
f 166 52 167 168
f 168 167 53 163
f 245 398 91 27
f 26 90 398 245
f 169 51 170 171
f 171 170 52 166
f 58 122 494 149
f 152 491 122 58
f 172 50 173 174
f 174 173 51 169
f 248 395 90 26
f 25 89 395 248
f 175 49 176 177
f 177 176 50 172
f 57 121 491 152
f 155 488 121 57
f 178 48 179 180
f 180 179 49 175
f 251 392 89 25
f 24 88 392 251
f 181 47 182 183
f 183 182 48 178
f 56 120 488 155
f 158 485 120 56
f 184 46 185 186
f 186 185 47 181
f 254 389 88 24
f 23 87 389 254
f 187 45 188 189
f 189 188 46 184
f 55 119 485 158
f 161 482 119 55
f 190 44 191 192
f 192 191 45 187
f 257 386 87 23
f 22 86 386 257
f 193 43 194 195
f 195 194 44 190
f 54 118 482 161
f 164 479 118 54
f 196 42 197 198
f 198 197 43 193
f 260 383 86 22
f 21 85 383 260
f 199 41 200 201
f 201 200 42 196
f 53 117 479 164
f 167 476 117 53
f 202 40 203 204
f 204 203 41 199
f 263 380 85 21
f 20 84 380 263
f 205 39 206 207
f 207 206 40 202
f 52 116 476 167
f 170 473 116 52
f 208 38 209 210
f 210 209 39 205
f 266 377 84 20
f 19 83 377 266
f 211 37 212 213
f 213 212 38 208
f 51 115 473 170
f 173 470 115 51
f 214 36 215 216
f 216 215 37 211
f 269 374 83 19
f 18 82 374 269
f 217 35 218 219
f 219 218 36 214
f 50 114 470 173
f 176 467 114 50
f 220 34 221 222
f 222 221 35 217
f 272 371 82 18
f 17 81 371 272
f 223 33 224 225
f 225 224 34 220
f 49 113 467 176
f 179 464 113 49
f 226 32 227 228
f 228 227 33 223
f 275 368 81 17
f 16 80 368 275
f 229 31 230 231
f 231 230 32 226
f 48 112 464 179
f 182 461 112 48
f 232 30 233 234
f 234 233 31 229
f 278 365 80 16
f 15 79 365 278
f 235 29 236 237
f 237 236 30 232
f 47 111 461 182
f 185 458 111 47
f 238 28 239 240
f 240 239 29 235
f 281 362 79 15
f 14 78 362 281
f 241 27 242 243
f 243 242 28 238
f 46 110 458 185
f 188 455 110 46
f 244 26 245 246
f 246 245 27 241
f 284 359 78 14
f 13 77 359 284
f 247 25 248 249
f 249 248 26 244
f 45 109 455 188
f 191 452 109 45
f 250 24 251 252
f 252 251 25 247
f 287 356 77 13
f 12 76 356 287
f 253 23 254 255
f 255 254 24 250
f 44 108 452 191
f 194 449 108 44
f 256 22 257 258
f 258 257 23 253
f 290 353 76 12
f 11 75 353 290
f 259 21 260 261
f 261 260 22 256
f 43 107 449 194
f 197 446 107 43
f 262 20 263 264
f 264 263 21 259
f 293 350 75 11
f 10 74 350 293
f 265 19 266 267
f 267 266 20 262
f 42 106 446 197
f 200 443 106 42
f 268 18 269 270
f 270 269 19 265
f 296 347 74 10
f 9 73 347 296
f 271 17 272 273
f 273 272 18 268
f 41 105 443 200
f 203 440 105 41
f 274 16 275 276
f 276 275 17 271
f 299 344 73 9
f 8 72 344 299
f 277 15 278 279
f 279 278 16 274
f 40 104 440 203
f 206 437 104 40
f 280 14 281 282
f 282 281 15 277
f 302 341 72 8
f 7 71 341 302
f 283 13 284 285
f 285 284 14 280
f 39 103 437 206
f 209 434 103 39
f 286 12 287 288
f 288 287 13 283
f 305 338 71 7
f 6 70 338 305
f 289 11 290 291
f 291 290 12 286
f 38 102 434 209
f 212 431 102 38
f 292 10 293 294
f 294 293 11 289
f 308 335 70 6
f 5 69 335 308
f 295 9 296 297
f 297 296 10 292
f 37 101 431 212
f 215 428 101 37
f 298 8 299 300
f 300 299 9 295
f 311 332 69 5
f 4 68 332 311
f 301 7 302 303
f 303 302 8 298
f 36 100 428 215
f 218 425 100 36
f 304 6 305 306
f 306 305 7 301
f 314 329 68 4
f 3 67 329 314
f 307 5 308 309
f 309 308 6 304
f 35 99 425 218
f 221 422 99 35
f 310 4 311 312
f 312 311 5 307
f 317 326 67 3
f 2 66 326 317
f 313 3 314 315
f 315 314 4 310
f 34 98 422 221
f 224 419 98 34
f 316 2 317 318
f 318 317 3 313
f 319 323 66 2
f 1 65 323 319
f 131 1 319 320
f 320 319 2 316
f 33 97 419 224
f 65 321 324 323
f 321 131 320 324
f 324 320 316 322
f 323 324 322 66
f 66 322 327 326
f 322 316 318 327
f 327 318 313 325
f 326 327 325 67
f 67 325 330 329
f 325 313 315 330
f 330 315 310 328
f 329 330 328 68
f 68 328 333 332
f 328 310 312 333
f 333 312 307 331
f 332 333 331 69
f 69 331 336 335
f 331 307 309 336
f 336 309 304 334
f 335 336 334 70
f 70 334 339 338
f 334 304 306 339
f 339 306 301 337
f 338 339 337 71
f 71 337 342 341
f 337 301 303 342
f 342 303 298 340
f 341 342 340 72
f 72 340 345 344
f 340 298 300 345
f 345 300 295 343
f 344 345 343 73
f 73 343 348 347
f 343 295 297 348
f 348 297 292 346
f 347 348 346 74
f 74 346 351 350
f 346 292 294 351
f 351 294 289 349
f 350 351 349 75
f 75 349 354 353
f 349 289 291 354
f 354 291 286 352
f 353 354 352 76
f 76 352 357 356
f 352 286 288 357
f 357 288 283 355
f 356 357 355 77
f 77 355 360 359
f 355 283 285 360
f 360 285 280 358
f 359 360 358 78
f 78 358 363 362
f 358 280 282 363
f 363 282 277 361
f 362 363 361 79
f 79 361 366 365
f 361 277 279 366
f 366 279 274 364
f 365 366 364 80
f 80 364 369 368
f 364 274 276 369
f 369 276 271 367
f 368 369 367 81
f 81 367 372 371
f 367 271 273 372
f 372 273 268 370
f 371 372 370 82
f 82 370 375 374
f 370 268 270 375
f 375 270 265 373
f 374 375 373 83
f 83 373 378 377
f 373 265 267 378
f 378 267 262 376
f 377 378 376 84
f 84 376 381 380
f 376 262 264 381
f 381 264 259 379
f 380 381 379 85
f 85 379 384 383
f 379 259 261 384
f 384 261 256 382
f 383 384 382 86
f 86 382 387 386
f 382 256 258 387
f 387 258 253 385
f 386 387 385 87
f 87 385 390 389
f 385 253 255 390
f 390 255 250 388
f 389 390 388 88
f 88 388 393 392
f 388 250 252 393
f 393 252 247 391
f 392 393 391 89
f 89 391 396 395
f 391 247 249 396
f 396 249 244 394
f 395 396 394 90
f 90 394 399 398
f 394 244 246 399
f 399 246 241 397
f 398 399 397 91
f 91 397 402 401
f 397 241 243 402
f 402 243 238 400
f 401 402 400 92
f 92 400 405 404
f 400 238 240 405
f 405 240 235 403
f 404 405 403 93
f 93 403 408 407
f 403 235 237 408
f 408 237 232 406
f 407 408 406 94
f 94 406 411 410
f 406 232 234 411
f 411 234 229 409
f 410 411 409 95
f 95 409 414 413
f 409 229 231 414
f 414 231 226 412
f 413 414 412 96
f 96 412 417 416
f 412 226 228 417
f 417 228 223 415
f 416 417 415 97
f 97 415 420 419
f 415 223 225 420
f 420 225 220 418
f 419 420 418 98
f 98 418 423 422
f 418 220 222 423
f 423 222 217 421
f 422 423 421 99
f 99 421 426 425
f 421 217 219 426
f 426 219 214 424
f 425 426 424 100
f 100 424 429 428
f 424 214 216 429
f 429 216 211 427
f 428 429 427 101
f 101 427 432 431
f 427 211 213 432
f 432 213 208 430
f 431 432 430 102
f 102 430 435 434
f 430 208 210 435
f 435 210 205 433
f 434 435 433 103
f 103 433 438 437
f 433 205 207 438
f 438 207 202 436
f 437 438 436 104
f 104 436 441 440
f 436 202 204 441
f 441 204 199 439
f 440 441 439 105
f 105 439 444 443
f 439 199 201 444
f 444 201 196 442
f 443 444 442 106
f 106 442 447 446
f 442 196 198 447
f 447 198 193 445
f 446 447 445 107
f 107 445 450 449
f 445 193 195 450
f 450 195 190 448
f 449 450 448 108
f 108 448 453 452
f 448 190 192 453
f 453 192 187 451
f 452 453 451 109
f 109 451 456 455
f 451 187 189 456
f 456 189 184 454
f 455 456 454 110
f 110 454 459 458
f 454 184 186 459
f 459 186 181 457
f 458 459 457 111
f 111 457 462 461
f 457 181 183 462
f 462 183 178 460
f 461 462 460 112
f 112 460 465 464
f 460 178 180 465
f 465 180 175 463
f 464 465 463 113
f 113 463 468 467
f 463 175 177 468
f 468 177 172 466
f 467 468 466 114
f 114 466 471 470
f 466 172 174 471
f 471 174 169 469
f 470 471 469 115
f 115 469 474 473
f 469 169 171 474
f 474 171 166 472
f 473 474 472 116
f 116 472 477 476
f 472 166 168 477
f 477 168 163 475
f 476 477 475 117
f 117 475 480 479
f 475 163 165 480
f 480 165 160 478
f 479 480 478 118
f 118 478 483 482
f 478 160 162 483
f 483 162 157 481
f 482 483 481 119
f 119 481 486 485
f 481 157 159 486
f 486 159 154 484
f 485 486 484 120
f 120 484 489 488
f 484 154 156 489
f 489 156 151 487
f 488 489 487 121
f 121 487 492 491
f 487 151 153 492
f 492 153 148 490
f 491 492 490 122
f 122 490 495 494
f 490 148 150 495
f 495 150 145 493
f 494 495 493 123
f 123 493 498 497
f 493 145 147 498
f 498 147 142 496
f 497 498 496 124
f 124 496 501 500
f 496 142 144 501
f 501 144 139 499
f 500 501 499 125
f 125 499 504 503
f 499 139 141 504
f 504 141 136 502
f 503 504 502 126
f 126 502 507 506
f 502 136 138 507
f 507 138 133 505
f 506 507 505 127
f 127 505 510 509
f 505 133 135 510
f 510 135 129 508
f 509 510 508 128
f 128 508 512 511
f 508 129 132 512
f 512 132 131 321
f 511 512 321 65
f 642 513 577 1023
f 641 644 642 576
f 644 643 513 642
f 739 545 609 928
f 544 739 928 608
f 645 647 646 575
f 647 641 576 646
f 576 642 1023 640
f 646 576 640 1021
f 648 650 649 574
f 650 645 575 649
f 742 544 608 925
f 543 742 925 607
f 651 653 652 573
f 653 648 574 652
f 575 646 1021 639
f 649 575 639 1018
f 654 656 655 572
f 656 651 573 655
f 745 543 607 922
f 542 745 922 606
f 657 659 658 571
f 659 654 572 658
f 574 649 1018 638
f 652 574 638 1015
f 660 662 661 570
f 662 657 571 661
f 748 542 606 919
f 541 748 919 605
f 663 665 664 569
f 665 660 570 664
f 573 652 1015 637
f 655 573 637 1012
f 666 668 667 568
f 668 663 569 667
f 751 541 605 916
f 540 751 916 604
f 669 671 670 567
f 671 666 568 670
f 572 655 1012 636
f 658 572 636 1009
f 672 674 673 566
f 674 669 567 673
f 754 540 604 913
f 539 754 913 603
f 675 677 676 565
f 677 672 566 676
f 571 658 1009 635
f 661 571 635 1006
f 678 680 679 564
f 680 675 565 679
f 757 539 603 910
f 538 757 910 602
f 681 683 682 563
f 683 678 564 682
f 570 661 1006 634
f 664 570 634 1003
f 684 686 685 562
f 686 681 563 685
f 760 538 602 907
f 537 760 907 601
f 687 689 688 561
f 689 684 562 688
f 569 664 1003 633
f 667 569 633 1000
f 690 692 691 560
f 692 687 561 691
f 763 537 601 904
f 536 763 904 600
f 693 695 694 559
f 695 690 560 694
f 568 667 1000 632
f 670 568 632 997
f 696 698 697 558
f 698 693 559 697
f 766 536 600 901
f 535 766 901 599
f 699 701 700 557
f 701 696 558 700
f 567 670 997 631
f 673 567 631 994
f 702 704 703 556
f 704 699 557 703
f 769 535 599 898
f 534 769 898 598
f 705 707 706 555
f 707 702 556 706
f 566 673 994 630
f 676 566 630 991
f 708 710 709 554
f 710 705 555 709
f 772 534 598 895
f 533 772 895 597
f 711 713 712 553
f 713 708 554 712
f 565 676 991 629
f 679 565 629 988
f 714 716 715 552
f 716 711 553 715
f 775 533 597 892
f 532 775 892 596
f 717 719 718 551
f 719 714 552 718
f 564 679 988 628
f 682 564 628 985
f 720 722 721 550
f 722 717 551 721
f 778 532 596 889
f 531 778 889 595
f 723 725 724 549
f 725 720 550 724
f 563 682 985 627
f 685 563 627 982
f 726 728 727 548
f 728 723 549 727
f 781 531 595 886
f 530 781 886 594
f 729 731 730 547
f 731 726 548 730
f 562 685 982 626
f 688 562 626 979
f 732 734 733 546
f 734 729 547 733
f 784 530 594 883
f 529 784 883 593
f 735 737 736 545
f 737 732 546 736
f 561 688 979 625
f 691 561 625 976
f 738 740 739 544
f 740 735 545 739
f 787 529 593 880
f 528 787 880 592
f 741 743 742 543
f 743 738 544 742
f 560 691 976 624
f 694 560 624 973
f 744 746 745 542
f 746 741 543 745
f 790 528 592 877
f 527 790 877 591
f 747 749 748 541
f 749 744 542 748
f 559 694 973 623
f 697 559 623 970
f 750 752 751 540
f 752 747 541 751
f 793 527 591 874
f 526 793 874 590
f 753 755 754 539
f 755 750 540 754
f 558 697 970 622
f 700 558 622 967
f 756 758 757 538
f 758 753 539 757
f 796 526 590 871
f 525 796 871 589
f 759 761 760 537
f 761 756 538 760
f 557 700 967 621
f 703 557 621 964
f 762 764 763 536
f 764 759 537 763
f 799 525 589 868
f 524 799 868 588
f 765 767 766 535
f 767 762 536 766
f 556 703 964 620
f 706 556 620 961
f 768 770 769 534
f 770 765 535 769
f 802 524 588 865
f 523 802 865 587
f 771 773 772 533
f 773 768 534 772
f 555 706 961 619
f 709 555 619 958
f 774 776 775 532
f 776 771 533 775
f 805 523 587 862
f 522 805 862 586
f 777 779 778 531
f 779 774 532 778
f 554 709 958 618
f 712 554 618 955
f 780 782 781 530
f 782 777 531 781
f 808 522 586 859
f 521 808 859 585
f 783 785 784 529
f 785 780 530 784
f 553 712 955 617
f 715 553 617 952
f 786 788 787 528
f 788 783 529 787
f 811 521 585 856
f 520 811 856 584
f 789 791 790 527
f 791 786 528 790
f 552 715 952 616
f 718 552 616 949
f 792 794 793 526
f 794 789 527 793
f 814 520 584 853
f 519 814 853 583
f 795 797 796 525
f 797 792 526 796
f 551 718 949 615
f 721 551 615 946
f 798 800 799 524
f 800 795 525 799
f 817 519 583 850
f 518 817 850 582
f 801 803 802 523
f 803 798 524 802
f 550 721 946 614
f 724 550 614 943
f 804 806 805 522
f 806 801 523 805
f 820 518 582 847
f 517 820 847 581
f 807 809 808 521
f 809 804 522 808
f 549 724 943 613
f 727 549 613 940
f 810 812 811 520
f 812 807 521 811
f 823 517 581 844
f 516 823 844 580
f 813 815 814 519
f 815 810 520 814
f 548 727 940 612
f 730 548 612 937
f 816 818 817 518
f 818 813 519 817
f 826 516 580 841
f 515 826 841 579
f 819 821 820 517
f 821 816 518 820
f 547 730 937 611
f 733 547 611 934
f 822 824 823 516
f 824 819 517 823
f 829 515 579 838
f 514 829 838 578
f 825 827 826 515
f 827 822 516 826
f 546 733 934 610
f 736 546 610 931
f 828 830 829 514
f 830 825 515 829
f 831 514 578 835
f 513 831 835 577
f 643 832 831 513
f 832 828 514 831
f 545 736 931 609
f 577 835 836 833
f 833 836 832 643
f 836 834 828 832
f 835 578 834 836
f 578 838 839 834
f 834 839 830 828
f 839 837 825 830
f 838 579 837 839
f 579 841 842 837
f 837 842 827 825
f 842 840 822 827
f 841 580 840 842
f 580 844 845 840
f 840 845 824 822
f 845 843 819 824
f 844 581 843 845
f 581 847 848 843
f 843 848 821 819
f 848 846 816 821
f 847 582 846 848
f 582 850 851 846
f 846 851 818 816
f 851 849 813 818
f 850 583 849 851
f 583 853 854 849
f 849 854 815 813
f 854 852 810 815
f 853 584 852 854
f 584 856 857 852
f 852 857 812 810
f 857 855 807 812
f 856 585 855 857
f 585 859 860 855
f 855 860 809 807
f 860 858 804 809
f 859 586 858 860
f 586 862 863 858
f 858 863 806 804
f 863 861 801 806
f 862 587 861 863
f 587 865 866 861
f 861 866 803 801
f 866 864 798 803
f 865 588 864 866
f 588 868 869 864
f 864 869 800 798
f 869 867 795 800
f 868 589 867 869
f 589 871 872 867
f 867 872 797 795
f 872 870 792 797
f 871 590 870 872
f 590 874 875 870
f 870 875 794 792
f 875 873 789 794
f 874 591 873 875
f 591 877 878 873
f 873 878 791 789
f 878 876 786 791
f 877 592 876 878
f 592 880 881 876
f 876 881 788 786
f 881 879 783 788
f 880 593 879 881
f 593 883 884 879
f 879 884 785 783
f 884 882 780 785
f 883 594 882 884
f 594 886 887 882
f 882 887 782 780
f 887 885 777 782
f 886 595 885 887
f 595 889 890 885
f 885 890 779 777
f 890 888 774 779
f 889 596 888 890
f 596 892 893 888
f 888 893 776 774
f 893 891 771 776
f 892 597 891 893
f 597 895 896 891
f 891 896 773 771
f 896 894 768 773
f 895 598 894 896
f 598 898 899 894
f 894 899 770 768
f 899 897 765 770
f 898 599 897 899
f 599 901 902 897
f 897 902 767 765
f 902 900 762 767
f 901 600 900 902
f 600 904 905 900
f 900 905 764 762
f 905 903 759 764
f 904 601 903 905
f 601 907 908 903
f 903 908 761 759
f 908 906 756 761
f 907 602 906 908
f 602 910 911 906
f 906 911 758 756
f 911 909 753 758
f 910 603 909 911
f 603 913 914 909
f 909 914 755 753
f 914 912 750 755
f 913 604 912 914
f 604 916 917 912
f 912 917 752 750
f 917 915 747 752
f 916 605 915 917
f 605 919 920 915
f 915 920 749 747
f 920 918 744 749
f 919 606 918 920
f 606 922 923 918
f 918 923 746 744
f 923 921 741 746
f 922 607 921 923
f 607 925 926 921
f 921 926 743 741
f 926 924 738 743
f 925 608 924 926
f 608 928 929 924
f 924 929 740 738
f 929 927 735 740
f 928 609 927 929
f 609 931 932 927
f 927 932 737 735
f 932 930 732 737
f 931 610 930 932
f 610 934 935 930
f 930 935 734 732
f 935 933 729 734
f 934 611 933 935
f 611 937 938 933
f 933 938 731 729
f 938 936 726 731
f 937 612 936 938
f 612 940 941 936
f 936 941 728 726
f 941 939 723 728
f 940 613 939 941
f 613 943 944 939
f 939 944 725 723
f 944 942 720 725
f 943 614 942 944
f 614 946 947 942
f 942 947 722 720
f 947 945 717 722
f 946 615 945 947
f 615 949 950 945
f 945 950 719 717
f 950 948 714 719
f 949 616 948 950
f 616 952 953 948
f 948 953 716 714
f 953 951 711 716
f 952 617 951 953
f 617 955 956 951
f 951 956 713 711
f 956 954 708 713
f 955 618 954 956
f 618 958 959 954
f 954 959 710 708
f 959 957 705 710
f 958 619 957 959
f 619 961 962 957
f 957 962 707 705
f 962 960 702 707
f 961 620 960 962
f 620 964 965 960
f 960 965 704 702
f 965 963 699 704
f 964 621 963 965
f 621 967 968 963
f 963 968 701 699
f 968 966 696 701
f 967 622 966 968
f 622 970 971 966
f 966 971 698 696
f 971 969 693 698
f 970 623 969 971
f 623 973 974 969
f 969 974 695 693
f 974 972 690 695
f 973 624 972 974
f 624 976 977 972
f 972 977 692 690
f 977 975 687 692
f 976 625 975 977
f 625 979 980 975
f 975 980 689 687
f 980 978 684 689
f 979 626 978 980
f 626 982 983 978
f 978 983 686 684
f 983 981 681 686
f 982 627 981 983
f 627 985 986 981
f 981 986 683 681
f 986 984 678 683
f 985 628 984 986
f 628 988 989 984
f 984 989 680 678
f 989 987 675 680
f 988 629 987 989
f 629 991 992 987
f 987 992 677 675
f 992 990 672 677
f 991 630 990 992
f 630 994 995 990
f 990 995 674 672
f 995 993 669 674
f 994 631 993 995
f 631 997 998 993
f 993 998 671 669
f 998 996 666 671
f 997 632 996 998
f 632 1000 1001 996
f 996 1001 668 666
f 1001 999 663 668
f 1000 633 999 1001
f 633 1003 1004 999
f 999 1004 665 663
f 1004 1002 660 665
f 1003 634 1002 1004
f 634 1006 1007 1002
f 1002 1007 662 660
f 1007 1005 657 662
f 1006 635 1005 1007
f 635 1009 1010 1005
f 1005 1010 659 657
f 1010 1008 654 659
f 1009 636 1008 1010
f 636 1012 1013 1008
f 1008 1013 656 654
f 1013 1011 651 656
f 1012 637 1011 1013
f 637 1015 1016 1011
f 1011 1016 653 651
f 1016 1014 648 653
f 1015 638 1014 1016
f 638 1018 1019 1014
f 1014 1019 650 648
f 1019 1017 645 650
f 1018 639 1017 1019
f 639 1021 1022 1017
f 1017 1022 647 645
f 1022 1020 641 647
f 1021 640 1020 1022
f 640 1023 1024 1020
f 1020 1024 644 641
f 1024 833 643 644
f 1023 577 833 1024
g Group32286
f 1105 1033 1034 1106
f 1029 1053 1054 1030
f 1041 1065 1066 1042
f 1100 1028 1029 1101
f 1028 1052 1053 1029
f 1115 1043 1044 1116
f 1040 1064 1065 1041
f 1035 1059 1060 1036
f 1106 1034 1035 1107
f 1043 1067 1068 1044
f 1033 1057 1058 1034
f 1026 1050 1051 1027
f 1044 1068 1069 1045
f 1119 1047 1048 1120
f 1111 1039 1040 1112
f 1045 1069 1070 1046
f 1099 1027 1028 1100
f 1113 1041 1042 1114
f 1116 1044 1045 1117
f 1027 1051 1052 1028
f 1037 1061 1062 1038
f 1107 1035 1036 1108
f 1118 1046 1047 1119
f 1098 1026 1027 1099
f 1110 1038 1039 1111
f 1112 1040 1041 1113
f 1073 1097 1098 1074
f 1034 1058 1059 1035
f 1074 1098 1099 1075
f 1075 1099 1100 1076
f 1103 1031 1032 1104
f 1076 1100 1101 1077
f 1077 1101 1102 1078
f 1117 1045 1046 1118
f 1079 1103 1104 1080
f 1031 1055 1056 1032
f 1080 1104 1105 1081
f 1081 1105 1106 1082
f 1082 1106 1107 1083
f 1083 1107 1108 1084
f 1038 1062 1063 1039
f 1046 1070 1071 1047
f 1104 1032 1033 1105
f 1039 1063 1064 1040
f 1085 1109 1110 1086
f 1032 1056 1057 1033
f 1086 1110 1111 1087
f 1087 1111 1112 1088
f 1047 1071 1072 1048
f 1088 1112 1113 1089
f 1089 1113 1114 1090
f 1097 1025 1026 1098
f 1091 1115 1116 1092
f 1109 1037 1038 1110
f 1092 1116 1117 1093
f 1025 1049 1050 1026
f 1093 1117 1118 1094
f 1094 1118 1119 1095
f 1095 1119 1120 1096
f 1101 1029 1030 1102
f 1124 1123 1122 1121
f 1128 1127 1126 1125
f 1132 1131 1130 1129
f 1066 1065 1187 1188
f 1089 1090 1189 1190
f 1136 1135 1134 1133
f 1138 1137 1123 1124
f 1060 1059 1195 1179
f 1083 1084 1182 1196
f 1129 1130 1135 1136
f 1142 1141 1140 1139
f 1053 1052 1197 1198
f 1076 1077 1199 1200
f 1139 1140 1144 1143
f 1054 1053 1198 1201
f 1077 1078 1202 1199
f 1148 1147 1146 1145
f 1133 1134 1150 1149
f 1068 1067 1192 1207
f 1091 1092 1208 1193
f 1145 1146 1154 1153
f 1125 1126 1156 1155
f 1056 1055 1184 1211
f 1079 1080 1212 1185
f 1162 1161 1160 1159
f 1070 1069 1213 1214
f 1093 1094 1215 1216
f 1164 1163 1137 1138
f 1059 1058 1217 1195
f 1082 1083 1196 1218
f 1166 1165 1151 1152
f 1072 1071 1219 1220
f 1095 1096 1221 1222
f 1153 1154 1168 1167
f 1062 1061 1209 1223
f 1085 1086 1224 1210
f 1170 1169 1141 1142
f 1052 1051 1225 1197
f 1075 1076 1200 1226
f 1155 1156 1172 1171
f 1057 1056 1211 1227
f 1080 1081 1228 1212
f 1157 1158 1174 1173
f 1050 1049 1229 1230
f 1073 1074 1231 1232
f 1149 1150 1161 1162
f 1069 1068 1207 1213
f 1092 1093 1216 1208
f 1176 1175 1131 1132
f 1065 1064 1233 1187
f 1088 1089 1190 1234
f 1167 1168 1178 1177
f 1063 1062 1223 1235
f 1086 1087 1236 1224
f 1171 1172 1163 1164
f 1058 1057 1227 1217
f 1081 1082 1218 1228
f 1173 1174 1169 1170
f 1051 1050 1230 1225
f 1074 1075 1226 1231
f 1159 1160 1165 1166
f 1071 1070 1214 1219
f 1094 1095 1222 1215
f 1121 1122 1147 1148
f 1177 1178 1175 1176
f 1064 1063 1235 1233
f 1087 1088 1234 1236
f 1143 1144 1127 1128
f 1096 1072 1220 1221
f 1120 1048 1072 1096
f 1158 1157 1229 1232
f 1073 1049 1025 1097
f 1180 1179 1124 1121
f 1182 1181 1122 1123
f 1184 1183 1128 1125
f 1186 1185 1126 1127
f 1188 1187 1132 1129
f 1190 1189 1130 1131
f 1192 1191 1136 1133
f 1194 1193 1134 1135
f 1179 1195 1138 1124
f 1196 1182 1123 1137
f 1191 1188 1129 1136
f 1189 1194 1135 1130
f 1198 1197 1142 1139
f 1200 1199 1140 1141
f 1201 1198 1139 1143
f 1199 1202 1144 1140
f 1204 1203 1148 1145
f 1206 1205 1146 1147
f 1207 1192 1133 1149
f 1193 1208 1150 1134
f 1209 1204 1145 1153
f 1205 1210 1154 1146
f 1211 1184 1125 1155
f 1185 1212 1156 1126
f 1214 1213 1162 1159
f 1216 1215 1160 1161
f 1195 1217 1164 1138
f 1218 1196 1137 1163
f 1220 1219 1166 1152
f 1222 1221 1151 1165
f 1223 1209 1153 1167
f 1210 1224 1168 1154
f 1197 1225 1170 1142
f 1226 1200 1141 1169
f 1227 1211 1155 1171
f 1212 1228 1172 1156
f 1230 1229 1157 1173
f 1232 1231 1174 1158
f 1213 1207 1149 1162
f 1208 1216 1161 1150
f 1187 1233 1176 1132
f 1234 1190 1131 1175
f 1235 1223 1167 1177
f 1224 1236 1178 1168
f 1217 1227 1171 1164
f 1228 1218 1163 1172
f 1225 1230 1173 1170
f 1231 1226 1169 1174
f 1219 1214 1159 1166
f 1215 1222 1165 1160
f 1203 1180 1121 1148
f 1181 1206 1147 1122
f 1233 1235 1177 1176
f 1236 1234 1175 1178
f 1183 1201 1143 1128
f 1202 1186 1127 1144
f 1221 1220 1152 1151
f 1232 1229 1049 1073
f 1182 1179 1180 1181
f 1181 1180 1203 1206
f 1206 1203 1204 1205
f 1205 1204 1209 1210
f 1084 1060 1179 1182
f 1108 1036 1060 1084
f 1210 1209 1061 1085
f 1085 1061 1037 1109
g Group20238
f 1189 1188 1191 1194
f 1194 1191 1192 1193
f 1193 1192 1067 1091
f 1091 1067 1043 1115
f 1090 1066 1188 1189
f 1114 1042 1066 1090
f 1055 1079 1185 1184
f 1031 1103 1079 1055
f 1184 1185 1186 1183
f 1183 1186 1202 1201
f 1201 1202 1078 1054
f 1054 1078 1102 1030

 