# File exported by ZBrush version 2021
# www.zbrush.com
#Vertex Count 604
#Face Count 602
#Auto scale x=1.000000 y=1.000000 z=1.000000
#Auto offset x=0.000000 y=0.000000 z=0.000000
v 2.10004329 3.22997093 -0.10468691
v 2.0154829 3.2043209 -0.10444647
v 1.93754577 3.16266441 -0.10405534
v 1.86923599 3.10660362 -0.10352999
v 1.81317615 3.03829383 -0.102889
v 1.77151966 2.9603672 -0.10215812
v 1.74586582 2.8758068 -0.1013655
v 1.73720359 2.78786277 -0.10054057
v 1.74586582 2.69992637 -0.09971576
v 1.77151966 2.61535835 -0.0989229
v 1.81317615 2.53743171 -0.09819215
v 1.86923599 2.46911811 -0.097552
v 1.93754577 2.41305732 -0.09702616
v 2.0154829 2.37140464 -0.09663552
v 2.10004329 2.34575462 -0.09639447
v 2.18799018 2.33708763 -0.09631413
v 2.2759304 2.34575462 -0.09639447
v 2.36049461 2.37140464 -0.09663575
v 2.43842887 2.41305732 -0.09702628
v 2.5067377 2.46911811 -0.097552
v 2.5627985 2.53743553 -0.09819215
v 2.6044588 2.61536216 -0.09892326
v 2.63010883 2.69992256 -0.09971588
v 2.63877201 2.78786277 -0.10054081
v 2.63010883 2.8758068 -0.10136574
v 2.6044588 2.9603672 -0.10215836
v 2.5627985 3.03829383 -0.10288924
v 2.5067377 3.10660362 -0.10352987
v 2.43843269 3.16266441 -0.10405558
v 2.36049461 3.2043209 -0.1044467
v 2.2759304 3.22997093 -0.10468703
v 2.18799018 3.2386341 -0.10476833
v 2.13031292 3.07779884 -0.10325974
v 2.07485485 3.06097984 -0.10310202
v 2.02374553 3.03366279 -0.10284549
v 1.97894573 2.99690055 -0.10250097
v 1.94218444 2.95209693 -0.102081
v 1.91486358 2.90099144 -0.10160142
v 1.89804077 2.84553337 -0.10108143
v 1.89236068 2.78786277 -0.10054057
v 1.89804077 2.73019218 -0.09999984
v 1.91486358 2.67473411 -0.09947937
v 1.94218444 2.62362861 -0.09900039
v 1.97894573 2.57882881 -0.09858006
v 2.02374553 2.54206657 -0.09823542
v 2.07485485 2.51474571 -0.09797924
v 2.13031292 2.49792289 -0.09782153
v 2.18799018 2.49224281 -0.09776824
v 2.24566078 2.49792289 -0.09782165
v 2.30111885 2.51474571 -0.09797936
v 2.35223197 2.54206657 -0.09823554
v 2.39702796 2.57882881 -0.09858018
v 2.43379783 2.62363243 -0.09900051
v 2.46111393 2.67473411 -0.09947973
v 2.47793674 2.73019218 -0.1000002
v 2.48361682 2.78786277 -0.10054069
v 2.47793674 2.84553337 -0.10108155
v 2.46111393 2.90099144 -0.10160154
v 2.43379783 2.95210075 -0.102081
v 2.39702796 2.99690055 -0.10250097
v 2.35223197 3.03366279 -0.10284584
v 2.30111885 3.06097984 -0.10310226
v 2.24566078 3.07779884 -0.10325974
v 2.18799018 3.08348274 -0.10331326
v 2.1280508 3.09106636 0.09770423
v 2.07041454 3.07357978 0.09786802
v 2.01729869 3.04519081 0.09813433
v 1.97074031 3.00698661 0.09849268
v 1.93253326 2.96042823 0.09892922
v 1.90414428 2.9073162 0.09942728
v 1.88665771 2.84968376 0.09996801
v 1.88075637 2.78974342 0.10052996
v 1.88665771 2.7298069 0.10109216
v 1.90414428 2.67217445 0.10163241
v 1.93253326 2.6190586 0.10213047
v 1.97074031 2.57250404 0.10256701
v 2.01729869 2.53429985 0.10292536
v 2.07041454 2.50591468 0.10319167
v 2.1280508 2.48843193 0.1033557
v 2.18799018 2.48252677 0.10341101
v 2.24792671 2.48843193 0.1033557
v 2.30555915 2.50591468 0.10319167
v 2.358675 2.53430366 0.10292536
v 2.40523338 2.57250404 0.10256701
v 2.44344139 2.6190586 0.10213023
v 2.47182941 2.67217445 0.10163241
v 2.48931598 2.7298069 0.10109192
v 2.49521732 2.78974342 0.10052973
v 2.48931598 2.84968376 0.09996777
v 2.47182941 2.90731239 0.09942704
v 2.44344139 2.96042823 0.09892898
v 2.40523338 3.00698661 0.09849268
v 2.358675 3.04519081 0.09813433
v 2.30555915 3.07357978 0.09786778
v 2.24792671 3.09106636 0.09770423
v 2.18799018 3.09696769 0.09764891
v 2.10230922 3.22046852 0.09649044
v 2.01991939 3.19547843 0.09672504
v 1.94399261 3.15489387 0.09710556
v 1.8774414 3.10027885 0.09761768
v 1.82282352 3.03373527 0.09824186
v 1.78223896 2.95780754 0.09895402
v 1.75724506 2.87542533 0.09972649
v 1.74881076 2.78974342 0.10052996
v 1.75724506 2.70406532 0.10133343
v 1.78223896 2.62168312 0.10210615
v 1.82282352 2.54575157 0.10281807
v 1.8774414 2.4792118 0.10344201
v 1.94399261 2.42459678 0.10395461
v 2.01991939 2.38401603 0.10433512
v 2.10230922 2.35902214 0.10456925
v 2.18799018 2.35058403 0.10464817
v 2.27366828 2.35902595 0.10456949
v 2.3560543 2.38401603 0.10433489
v 2.43198204 2.42459678 0.10395437
v 2.49853611 2.4792118 0.10344201
v 2.55315113 2.54575538 0.10281807
v 2.59373569 2.62168693 0.10210591
v 2.61872959 2.70406532 0.1013332
v 2.6271677 2.78974342 0.10052973
v 2.61872959 2.87542533 0.09972626
v 2.59373569 2.95780754 0.09895378
v 2.55315113 3.03373909 0.09824162
v 2.49853611 3.10028266 0.09761768
v 2.43198204 3.15489387 0.09710532
v 2.3560543 3.19547843 0.09672504
v 2.27366828 3.22046852 0.09649044
v 2.18799018 3.22891044 0.09641128
v -2.28476333 3.22997093 -0.10468691
v -2.36932373 3.2043209 -0.10444647
v -2.44726181 3.16266441 -0.10405534
v -2.51557159 3.10660362 -0.10352999
v -2.57163238 3.03829383 -0.102889
v -2.61328887 2.9603672 -0.10215812
v -2.63894271 2.8758068 -0.1013655
v -2.64760208 2.78786277 -0.10054057
v -2.63894271 2.69992637 -0.09971576
v -2.61328887 2.61535835 -0.0989229
v -2.57163238 2.53743171 -0.09819215
v -2.51557159 2.46911811 -0.097552
v -2.44726181 2.41305732 -0.09702616
v -2.36932373 2.37140464 -0.09663552
v -2.28476333 2.34575462 -0.09639447
v -2.1968193 2.33708763 -0.09631413
v -2.10887527 2.34575462 -0.09639447
v -2.02431106 2.37140464 -0.09663575
v -1.9463768 2.41305732 -0.09702628
v -1.87806701 2.46911811 -0.097552
v -1.82200622 2.53743553 -0.09819215
v -1.78034591 2.61536216 -0.09892326
v -1.75469589 2.69992256 -0.09971588
v -1.74603653 2.78786277 -0.10054081
v -1.75469589 2.8758068 -0.10136574
v -1.78034591 2.9603672 -0.10215836
v -1.82200622 3.03829383 -0.10288924
v -1.87806701 3.10660362 -0.10352987
v -1.94637298 3.16266441 -0.10405558
v -2.02431106 3.2043209 -0.1044467
v -2.10887527 3.22997093 -0.10468703
v -2.1968193 3.2386341 -0.10476833
v -2.25449371 3.07779884 -0.10325974
v -2.30995178 3.06097984 -0.10310202
v -2.36106109 3.03366279 -0.10284549
v -2.4058609 2.99690055 -0.10250097
v -2.44262313 2.95209693 -0.102081
v -2.469944 2.90099144 -0.10160142
v -2.48676681 2.84553337 -0.10108143
v -2.49244689 2.78786277 -0.10054057
v -2.48676681 2.73019218 -0.09999984
v -2.469944 2.67473411 -0.09947937
v -2.44262313 2.62362861 -0.09900039
v -2.4058609 2.57882881 -0.09858006
v -2.36106109 2.54206657 -0.09823542
v -2.30995178 2.51474571 -0.09797924
v -2.25449371 2.49792289 -0.09782153
v -2.1968193 2.49224281 -0.09776824
v -2.13914489 2.49792289 -0.09782165
v -2.08368682 2.51474571 -0.09797936
v -2.0325737 2.54206657 -0.09823554
v -1.98777771 2.57882881 -0.09858018
v -1.95100784 2.62363243 -0.09900051
v -1.92369079 2.67473411 -0.09947973
v -1.90686798 2.73019218 -0.1000002
v -1.90118789 2.78786277 -0.10054069
v -1.90686798 2.84553337 -0.10108155
v -1.92369079 2.90099144 -0.10160154
v -1.95100784 2.95210075 -0.102081
v -1.98777771 2.99690055 -0.10250097
v -2.0325737 3.03366279 -0.10284584
v -2.08368682 3.06097984 -0.10310226
v -2.13914489 3.07779884 -0.10325974
v -2.1968193 3.08348274 -0.10331326
v -2.25675582 3.09106636 0.09770423
v -2.31439209 3.07357978 0.09786802
v -2.36750793 3.04519081 0.09813433
v -2.41406631 3.00698661 0.09849268
v -2.45227432 2.96042823 0.09892922
v -2.4806633 2.9073162 0.09942728
v -2.49814987 2.84968376 0.09996801
v -2.5040512 2.78974342 0.10052996
v -2.49814987 2.7298069 0.10109216
v -2.4806633 2.67217445 0.10163241
v -2.45227432 2.6190586 0.10213047
v -2.41406631 2.57250404 0.10256701
v -2.36750793 2.53429985 0.10292536
v -2.31439209 2.50591468 0.10319167
v -2.25675582 2.48843193 0.1033557
v -2.1968193 2.48252677 0.10341101
v -2.13687896 2.48843193 0.1033557
v -2.07924652 2.50591468 0.10319167
v -2.02613067 2.53430366 0.10292536
v -1.97957229 2.57250404 0.10256701
v -1.94136428 2.6190586 0.10213023
v -1.91297531 2.67217445 0.10163241
v -1.89549255 2.7298069 0.10109192
v -1.8895874 2.78974342 0.10052973
v -1.89549255 2.84968376 0.09996777
v -1.91297531 2.90731239 0.09942704
v -1.94136428 2.96042823 0.09892898
v -1.97957229 3.00698661 0.09849268
v -2.02613067 3.04519081 0.09813433
v -2.07924652 3.07357978 0.09786778
v -2.13687896 3.09106636 0.09770423
v -2.1968193 3.09696769 0.09764891
v -2.28250122 3.22046852 0.09649044
v -2.36488723 3.19547843 0.09672504
v -2.44081497 3.15489387 0.09710556
v -2.50736618 3.10027885 0.09761768
v -2.56198501 3.03373527 0.09824186
v -2.60256958 2.95780754 0.09895402
v -2.62755966 2.87542533 0.09972649
v -2.63599777 2.78974342 0.10052996
v -2.62755966 2.70406532 0.10133343
v -2.60256958 2.62168312 0.10210615
v -2.56198501 2.54575157 0.10281807
v -2.50736618 2.4792118 0.10344201
v -2.44081497 2.42459678 0.10395461
v -2.36488723 2.38401603 0.10433512
v -2.28250122 2.35902214 0.10456925
v -2.1968193 2.35058403 0.10464817
v -2.11113739 2.35902595 0.10456949
v -2.02875137 2.38401603 0.10433489
v -1.95282363 2.42459678 0.10395437
v -1.88626861 2.4792118 0.10344201
v -1.83165359 2.54575538 0.10281807
v -1.79106903 2.62168693 0.10210591
v -1.76607513 2.70406532 0.1013332
v -1.75764083 2.78974342 0.10052973
v -1.76607513 2.87542533 0.09972626
v -1.79106903 2.95780754 0.09895378
v -1.83165359 3.03373909 0.09824162
v -1.88626861 3.10028266 0.09761768
v -1.95282363 3.15489387 0.09710532
v -2.02875137 3.19547843 0.09672504
v -2.11113739 3.22046852 0.09649044
v -2.1968193 3.22891044 0.09641128
v 2.67968845 3.23047447 0.1665197
v 3.15098571 2.65621757 0.17190367
v 3.50118637 2.00110054 0.17804771
v 3.71684074 1.290205 0.18471592
v 3.78965568 0.5508995 0.1916489
v 3.71684074 -0.18838691 0.19858092
v 3.50118255 -0.89928245 0.20524877
v 3.15098571 -1.55440139 0.21139282
v 2.67968845 -2.12868499 0.21677857
v 2.10542202 -2.59998703 0.22119861
v 1.45024108 -2.95015907 0.22448259
v 0.73932647 -3.16579246 0.22650367
v 0 -3.2386341 0.22718864
v -0.73932647 -3.16579246 0.22650367
v -1.45024108 -2.95015907 0.22448259
v -2.10542297 -2.59998703 0.22119957
v -2.67969131 -2.12869834 0.21677857
v -3.1509819 -1.55439567 0.21139186
v -3.50118637 -0.89927864 0.20524877
v -3.71683883 -0.18839645 0.19858092
v -3.78965759 0.55090332 0.1916489
v -3.71683883 1.290205 0.18471592
v -3.50118637 2.00110435 0.17804771
v -3.15098571 2.65621757 0.17190486
v -2.67969131 3.23047447 0.1665197
v 1.75737094 2.30821418 0.17516881
v 2.06644725 1.93158149 0.17870086
v 2.29611396 1.50195503 0.18272894
v 2.43754386 1.03574562 0.18710178
v 2.48529529 0.55090332 0.1916489
v 2.43754386 0.06608581 0.19619482
v 2.29611396 -0.4001255 0.20056694
v 2.06645107 -0.82976341 0.20459598
v 1.75737094 -1.20638847 0.20812767
v 1.38075637 -1.51545333 0.21102684
v 0.95108413 -1.74510765 0.21318072
v 0.48485565 -1.88651847 0.21450585
v 0 -1.93427848 0.21495384
v -0.48485565 -1.88651847 0.2145068
v -0.95108413 -1.74510765 0.21318072
v -1.38076019 -1.51545333 0.21102684
v -1.75737381 -1.20638084 0.20812767
v -2.06645202 -0.82975578 0.20459598
v -2.29611969 -0.40012168 0.20056694
v -2.43754577 0.06607818 0.19619578
v -2.48530197 0.55090332 0.1916489
v -2.43754577 1.0357418 0.18710178
v -2.29611969 1.50195884 0.18272894
v -2.06645202 1.93158531 0.17870086
v -1.75737381 2.308218 0.17516785
v 1.8263483 2.37246894 -0.32828646
v 2.14755439 1.98108863 -0.32461553
v 2.38623619 1.53455162 -0.32042855
v 2.5332117 1.05006218 -0.31588548
v 2.58284091 0.54619216 -0.31115943
v 2.5332117 0.04232025 -0.30643445
v 2.38623619 -0.44218635 -0.30189055
v 2.14755439 -0.88872718 -0.29770153
v 1.8263483 -1.28009033 -0.29403251
v 1.43495178 -1.60127639 -0.29102045
v 0.98841095 -1.83993911 -0.28878253
v 0.50388717 -1.98691177 -0.28740447
v 0 -2.03655433 -0.28693848
v -0.50388717 -1.98691368 -0.28740447
v -0.98841476 -1.83994293 -0.28878253
v -1.43495178 -1.60127639 -0.29101949
v -1.82635116 -1.28009033 -0.29403144
v -2.14756012 -0.88872528 -0.29770153
v -2.38623809 -0.44218635 -0.30189055
v -2.53321456 0.04232788 -0.30643445
v -2.58284378 0.54619216 -0.31115943
v -2.53321456 1.05006218 -0.31588453
v -2.38623809 1.53455162 -0.32042747
v -2.14756012 1.98108863 -0.32461553
v -1.82635116 2.37247276 -0.32828646
v 2.61071491 3.15678978 -0.33564144
v 3.06987762 2.59734535 -0.33039552
v 3.41106414 1.9590435 -0.32440954
v 3.62116432 1.26646995 -0.31791347
v 3.69210624 0.54619216 -0.31115943
v 3.62116813 -0.17410087 -0.30440455
v 3.41106414 -0.86665153 -0.29791051
v 3.06987762 -1.50495529 -0.29192346
v 2.61071491 -2.06443023 -0.28667646
v 2.05122661 -2.52355957 -0.28237146
v 1.41291046 -2.86471557 -0.27917248
v 0.72029495 -3.07481002 -0.27720239
v 0 -3.14576339 -0.27653542
v -0.72029495 -3.0748043 -0.27720239
v -1.41291046 -2.86471176 -0.27917248
v -2.05123138 -2.52355575 -0.28237146
v -2.61071777 -2.06442832 -0.28667551
v -3.06987762 -1.50495147 -0.29192346
v -3.41106033 -0.86665916 -0.29790955
v -3.62116622 -0.17410469 -0.30440348
v -3.69210815 0.54619026 -0.31115943
v -3.62116622 1.26646804 -0.31791347
v -3.41106414 1.95903587 -0.32440847
v -3.06987762 2.59734535 -0.33039552
v -2.61071777 3.15679359 -0.33564144
v 2.42761802 1.55642509 0.18221777
v 2.57714557 1.0635147 0.18684095
v -2.42761993 -0.45459175 0.20107787
v -2.57714843 0.038311 0.19645589
v -2.62763977 0.55090332 0.1916489
v -2.57714843 1.06351089 0.18684095
v 2.18479728 2.01066017 0.17795878
v 0.51262664 -2.02611923 0.2158156
v 0 -2.07661628 0.21628958
v -2.184803 -0.90883255 0.20533794
v 1.45983886 -1.63380432 0.21213668
v 1.00555419 -1.8766098 0.21441382
v -2.42761993 1.5564289 0.18221777
v 2.1848011 -0.90884017 0.20533794
v 1.85802078 -1.30703544 0.20907181
v 2.6276369 0.55090332 0.1916489
v 2.57714557 0.03831481 0.19645589
v -2.184803 2.01066017 0.17795878
v -0.51262664 -2.02612114 0.2158156
v -1.00555419 -1.8766098 0.21441382
v -1.85802078 2.40886116 0.17422372
v 1.85802078 2.40885734 0.17422467
v -1.45983886 -1.63380432 0.21213668
v 1.91194152 2.45805931 -0.32908946
v 2.24820518 2.04833793 -0.32524651
v 2.49807071 1.58087348 -0.32086247
v 2.65193653 1.07367897 -0.31610649
v 2.7038927 0.54619216 -0.31115943
v 2.65193653 0.01870346 -0.30621248
v 2.49807071 -0.48850822 -0.30145555
v 2.42761802 -0.45459556 0.20107787
v 2.24820518 -0.95597457 -0.29707056
v 1.91194152 -1.3656826 -0.29322952
v 1.50220489 -1.70192146 -0.29007655
v 1.03473663 -1.95176887 -0.28773349
v -1.85802459 -1.30702972 0.20907181
v 0.52750396 -2.10562896 -0.28629046
v 0 -2.15759658 -0.28580349
v -0.52750396 -2.10562896 -0.28629046
v -1.03473663 -1.95177269 -0.28773349
v -1.50220489 -1.70192146 -0.29007655
v -1.91194534 -1.3656826 -0.29322952
v -2.24820709 -0.95597267 -0.29707151
v -2.49807357 -0.48850822 -0.30145555
v -2.65193939 0.01870727 -0.30621248
v -2.70389556 0.54619216 -0.31115943
v -2.65193939 1.07367897 -0.31610649
v -2.49807357 1.58087348 -0.32086247
v -2.24820709 2.04833793 -0.32524651
v -1.91194534 2.45806312 -0.32908946
v 3.38325882 1.95225334 0.17850583
v 3.59165382 1.26530456 0.18494886
v -3.38326263 -0.85043144 0.20479077
v -3.59165191 -0.16349411 0.19834798
v -3.66201782 0.55090332 0.1916489
v -3.59165191 1.26530456 0.18494886
v 3.04485321 2.58530616 0.17256885
v 0.71442413 -3.04060745 0.22532969
v 0 -3.11099624 0.22599178
v -3.04485321 -1.48348426 0.21072691
v 2.03450679 -2.49385833 0.22020345
v 1.40139389 -2.83223724 0.22337657
v -3.38326263 1.95226097 0.17850583
v 3.04485702 -1.48349189 0.21072787
v 2.58943271 -2.03843307 0.21593266
v 3.66201591 0.5508995 0.1916489
v 3.59165382 -0.16348457 0.19834798
v -3.04485702 2.58530616 0.17256981
v -0.71442413 -3.04060745 0.22532969
v -1.40139389 -2.83223724 0.22337657
v -2.58943557 3.14022636 0.16736584
v 2.58943271 3.14022636 0.16736584
v -2.03450775 -2.49385833 0.22020345
v 3.38325882 -0.85043525 0.20478981
v -2.58943939 -2.03844261 0.21593171
v -2.53396225 3.08004188 -0.33492153
v 2.53395557 3.08004188 -0.33492153
v 2.97962188 2.5370388 -0.32982951
v 3.31077957 1.91750526 -0.32402044
v 3.51470184 1.24529457 -0.31771546
v 3.58355903 0.54619216 -0.31115943
v 3.51470184 -0.15292167 -0.30460256
v 3.31077957 -0.82511329 -0.29829949
v 2.97962188 -1.44465446 -0.29248851
v 2.53395938 -1.98767662 -0.28739649
v 1.99092006 -2.43330955 -0.28321844
v 1.3713684 -2.76443481 -0.28011244
v 0.69911956 -2.96835327 -0.27820041
v 0 -3.03722 -0.27755346
v -0.69911956 -2.96834564 -0.27820041
v -1.37137222 -2.764431 -0.28011244
v -1.99092102 -2.43330574 -0.28321749
v -2.53396225 -1.98767471 -0.28739541
v -2.97962188 -1.44464874 -0.29248946
v -3.31077575 -0.82512092 -0.29829949
v -3.51470565 -0.15292358 -0.30460256
v -3.58356094 0.54619026 -0.31115943
v -3.51470565 1.24529075 -0.31771546
v -3.31077575 1.91749763 -0.32401949
v -2.97962188 2.5370388 -0.32982951
v -2.68996429 3.01773262 0.16851478
v -2.78372573 3.10371208 0.16770774
v -1.89725112 2.28608131 -0.32747644
v -1.82559967 2.22508049 0.17594772
v -2.71207046 3.03330421 -0.33448344
v -1.98617172 2.36762046 -0.32824045
v -1.93015289 2.3209629 0.17504864
v -2.63233566 2.96018409 -0.33379751
v 2.79058075 3.09535408 0.16778665
v 2.71875095 3.02515983 -0.33440655
v 2.69659137 3.0096569 0.16858965
v 1.90192794 2.28037834 -0.32742244
v 1.83009433 2.21959495 0.1759997
v 1.99106121 2.36165428 -0.32818454
v 1.93490982 2.31516075 0.17510277
v 2.63881778 2.95227623 -0.33372348
v 3.71684074 1.29122161 0.29316842
v 3.59165382 1.26632118 0.29340159
v 3.38325882 1.95327186 0.28695857
v 3.50118637 2.00211525 0.28650057
v -3.71683883 -0.18737983 0.30703342
v -3.59165191 -0.16247749 0.30680048
v -3.38326263 -0.84941673 0.3132435
v -3.50118637 -0.89826011 0.31370151
v -3.71683883 1.29122161 0.29316842
v -3.59165191 1.26632118 0.29340159
v -3.66201782 0.55191993 0.30010139
v -3.78965759 0.55191993 0.30010139
v 3.04485321 2.58632469 0.28102147
v 3.15098571 2.65723228 0.28035652
v 0 -3.23761749 0.3356415
v 0 -3.10997772 0.3344444
v 0.71442413 -3.03958892 0.33378255
v 0.73932647 -3.16477584 0.33495652
v -3.04485321 -1.48246574 0.31917941
v -3.1509819 -1.55337905 0.3198446
v 1.45023727 -2.94914245 0.33293545
v 1.40139389 -2.83122062 0.33182942
v 2.03450679 -2.49283981 0.32865655
v 2.10542202 -2.5989685 0.32965147
v -3.50118637 2.00212287 0.28650057
v -3.38326263 1.95327568 0.28695857
v 2.67968845 -2.12766838 0.32523143
v 2.58943271 -2.03741645 0.32438552
v 3.04485702 -1.48247528 0.3191806
v 3.15098571 -1.55338668 0.31984555
v 3.71684074 -0.18736839 0.30703461
v 3.59165382 -0.16246986 0.30680048
v 3.66201591 0.55191612 0.30010139
v 3.78965568 0.55191612 0.30010139
v -3.15098571 2.65723228 0.28035748
v -3.04485702 2.58632087 0.28102242
v -1.45024108 -2.94914245 0.33293545
v -1.40139389 -2.83121871 0.33182942
v -0.71442413 -3.03958892 0.33378255
v -0.73932647 -3.16477584 0.33495652
v -2.78372573 3.1047306 0.27616059
v -2.68996429 3.01875114 0.2769674
v 2.79058075 3.0963726 0.27623951
v 2.69659137 3.01067543 0.2770425
v 2.58943271 3.14124107 0.27581846
v 2.67968845 3.23149299 0.27497255
v -2.10542297 -2.5989685 0.32965242
v -2.03450775 -2.49283981 0.32865655
v 3.50118255 -0.89826393 0.31370151
v 3.38325882 -0.84942054 0.3132435
v -2.67969131 -2.12768173 0.32523143
v -2.58943939 -2.03742599 0.32438457
v 2.57714557 1.06453132 0.29529345
v 2.43754386 1.03676414 0.29555451
v 2.29611396 1.50297355 0.29118144
v 2.42761802 1.5574398 0.29067051
v -2.57714843 0.03932762 0.30490839
v -2.43754577 0.06709671 0.30464851
v -2.29611969 -0.39910507 0.30901944
v -2.42761993 -0.45357513 0.30953061
v -2.57714843 1.06452751 0.29529345
v -2.43754577 1.03676033 0.29555451
v -2.48530197 0.55191993 0.30010139
v -2.62763977 0.55191993 0.30010139
v 2.06644725 1.93260002 0.2871536
v 2.18479728 2.01167488 0.2864114
v 0 -2.07559967 0.32474243
v 0 -1.93325996 0.32340657
v 0.48485565 -1.88549995 0.32295954
v 0.51262664 -2.02510261 0.32426846
v -2.06645202 -0.82873725 0.31304848
v -2.184803 -0.90781593 0.31379044
v 1.00555419 -1.87559318 0.32286655
v 0.95108413 -1.74408912 0.32163345
v 1.38075637 -1.51443862 0.31947958
v 1.45983886 -1.6327877 0.32058942
v -2.42761993 1.55744743 0.29067051
v -2.29611969 1.50297737 0.29118144
v 1.85802078 -1.30601692 0.31752455
v 1.75737094 -1.20536994 0.31658041
v 2.06645107 -0.82874679 0.31304848
v 2.1848011 -0.90782356 0.31379044
v 2.57714557 0.03933334 0.30490839
v 2.43754386 0.06710243 0.30464756
v 2.48529529 0.55191993 0.30010139
v 2.6276369 0.55191993 0.30010139
v -2.184803 2.01167869 0.2864114
v -2.06645202 1.93260002 0.2871536
v -1.00555419 -1.87559318 0.32286655
v -0.95108413 -1.74408912 0.32163345
v -0.48485565 -1.88549995 0.32295954
v -0.51262664 -2.02510261 0.32426846
v -1.93015289 2.32198143 0.2835015
v -1.82559967 2.22609901 0.28440058
v 1.93490982 2.31617927 0.28355538
v 1.83009433 2.22060966 0.28445255
v 1.75737094 2.30922889 0.28362143
v 1.85802078 2.40987205 0.28267753
v -1.45983886 -1.6327877 0.32058942
v -1.38076019 -1.51443862 0.31947958
v 2.42761802 -0.45358085 0.30953061
v 2.29611396 -0.39910888 0.30901944
v -1.85802459 -1.3060131 0.31752455
v -1.75737381 -1.20536422 0.31658041
v -2.67969131 3.23149299 0.27497255
v -2.58943557 3.14124107 0.27581846
v -1.85802078 2.40987587 0.28267657
v -1.75737381 2.30923652 0.28362047
v 2.81981658 3.05973243 0.16812068
v 2.74723434 2.99045372 -0.33408111
v 1.92185211 2.2561016 -0.32719475
v 1.84926605 2.19622993 0.1762188
v 2.01191997 2.33623695 -0.32794612
v 2.66646289 2.91859245 -0.33340758
v 1.95518016 2.29046058 0.17533451
v 2.72484302 2.97523307 0.16891247
v 2.72484302 2.9762516 0.27736532
v 2.81981658 3.06075096 0.27657353
v 1.84926605 2.19724845 0.28467166
v 1.95518016 2.29147911 0.28378713
v -1.92711257 2.24969673 -0.32713514
v -1.85433197 2.19006919 0.17627626
v -2.82753753 3.05033302 0.16820842
v -2.75475311 2.98129844 -0.33399587
v -2.01742935 2.32953453 -0.3278833
v -2.67376327 2.9097042 -0.33332413
v -1.96053314 2.28394508 0.17539578
v -2.7322998 2.96615028 0.16899853
v -2.7322998 2.96716499 0.27745115
v -2.82753753 3.05135154 0.27666127
v -1.85433197 2.19108772 0.28472888
v -1.96053314 2.2849636 0.28384864
g Group21015
f 31 63 64 32
f 120 24 25 121
f 107 11 12 108
f 30 62 63 31
f 46 78 79 47
f 64 96 65 33
f 6 38 39 7
f 128 32 1 97
f 22 54 55 23
f 104 8 9 105
f 101 5 6 102
f 24 56 57 25
f 5 37 38 6
f 15 47 48 16
f 121 25 26 122
f 21 53 54 22
f 13 45 46 14
f 40 72 73 41
f 108 12 13 109
f 25 57 58 26
f 54 86 87 55
f 56 88 89 57
f 11 43 44 12
f 32 64 33 1
f 45 77 78 46
f 8 40 41 9
f 111 15 16 112
f 55 87 88 56
f 3 35 36 4
f 26 58 59 27
f 37 69 70 38
f 125 29 30 126
f 126 30 31 127
f 38 70 71 39
f 17 49 50 18
f 116 20 21 117
f 27 59 60 28
f 48 80 81 49
f 103 7 8 104
f 110 14 15 111
f 57 89 90 58
f 62 94 95 63
f 49 81 82 50
f 100 4 5 101
f 41 73 74 42
f 118 22 23 119
f 33 65 66 34
f 122 26 27 123
f 59 91 92 60
f 14 46 47 15
f 113 17 18 114
f 4 36 37 5
f 18 50 51 19
f 23 55 56 24
f 44 76 77 45
f 61 93 94 62
f 112 16 17 113
f 109 13 14 110
f 124 28 29 125
f 99 3 4 100
f 50 82 83 51
f 7 39 40 8
f 36 68 69 37
f 115 19 20 116
f 96 128 97 65
f 42 74 75 43
f 65 97 98 66
f 117 21 22 118
f 66 98 99 67
f 12 44 45 13
f 67 99 100 68
f 97 1 2 98
f 68 100 101 69
f 105 9 10 106
f 69 101 102 70
f 16 48 49 17
f 70 102 103 71
f 71 103 104 72
f 123 27 28 124
f 34 66 67 35
f 72 104 105 73
f 119 23 24 120
f 73 105 106 74
f 9 41 42 10
f 74 106 107 75
f 58 90 91 59
f 75 107 108 76
f 1 33 34 2
f 76 108 109 77
f 127 31 32 128
f 77 109 110 78
f 19 51 52 20
f 78 110 111 79
f 28 60 61 29
f 79 111 112 80
f 80 112 113 81
f 106 10 11 107
f 81 113 114 82
f 20 52 53 21
f 82 114 115 83
f 10 42 43 11
f 83 115 116 84
f 53 85 86 54
f 84 116 117 85
f 29 61 62 30
f 85 117 118 86
f 51 83 84 52
f 86 118 119 87
f 43 75 76 44
f 87 119 120 88
f 98 2 3 99
f 35 67 68 36
f 88 120 121 89
f 89 121 122 90
f 114 18 19 115
f 90 122 123 91
f 2 34 35 3
f 91 123 124 92
f 60 92 93 61
f 92 124 125 93
f 47 79 80 48
f 93 125 126 94
f 102 6 7 103
f 94 126 127 95
f 52 84 85 53
f 95 127 128 96
f 39 71 72 40
f 63 95 96 64
f 159 191 192 160
f 248 152 153 249
f 235 139 140 236
f 158 190 191 159
f 174 206 207 175
f 192 224 193 161
f 134 166 167 135
f 256 160 129 225
f 150 182 183 151
f 232 136 137 233
f 229 133 134 230
f 152 184 185 153
f 133 165 166 134
f 143 175 176 144
f 249 153 154 250
f 149 181 182 150
f 141 173 174 142
f 168 200 201 169
f 236 140 141 237
f 153 185 186 154
f 182 214 215 183
f 184 216 217 185
f 139 171 172 140
f 160 192 161 129
f 173 205 206 174
f 136 168 169 137
f 239 143 144 240
f 183 215 216 184
f 131 163 164 132
f 154 186 187 155
f 165 197 198 166
f 253 157 158 254
f 254 158 159 255
f 166 198 199 167
f 145 177 178 146
f 244 148 149 245
f 155 187 188 156
f 176 208 209 177
f 231 135 136 232
f 238 142 143 239
f 185 217 218 186
f 190 222 223 191
f 177 209 210 178
f 228 132 133 229
f 169 201 202 170
f 246 150 151 247
f 161 193 194 162
f 250 154 155 251
f 187 219 220 188
f 142 174 175 143
f 241 145 146 242
f 132 164 165 133
f 146 178 179 147
f 151 183 184 152
f 172 204 205 173
f 189 221 222 190
f 240 144 145 241
f 237 141 142 238
f 252 156 157 253
f 227 131 132 228
f 178 210 211 179
f 135 167 168 136
f 164 196 197 165
f 243 147 148 244
f 224 256 225 193
f 170 202 203 171
f 193 225 226 194
f 245 149 150 246
f 194 226 227 195
f 140 172 173 141
f 195 227 228 196
f 225 129 130 226
f 196 228 229 197
f 233 137 138 234
f 197 229 230 198
f 144 176 177 145
f 198 230 231 199
f 199 231 232 200
f 251 155 156 252
f 162 194 195 163
f 200 232 233 201
f 247 151 152 248
f 201 233 234 202
f 137 169 170 138
f 202 234 235 203
f 186 218 219 187
f 203 235 236 204
f 129 161 162 130
f 204 236 237 205
f 255 159 160 256
f 205 237 238 206
f 147 179 180 148
f 206 238 239 207
f 156 188 189 157
f 207 239 240 208
f 208 240 241 209
f 234 138 139 235
f 209 241 242 210
f 148 180 181 149
f 210 242 243 211
f 138 170 171 139
f 211 243 244 212
f 181 213 214 182
f 212 244 245 213
f 157 189 190 158
f 213 245 246 214
f 179 211 212 180
f 214 246 247 215
f 171 203 204 172
f 215 247 248 216
f 226 130 131 227
f 163 195 196 164
f 216 248 249 217
f 217 249 250 218
f 242 146 147 243
f 218 250 251 219
f 130 162 163 131
f 219 251 252 220
f 188 220 221 189
f 220 252 253 221
f 175 207 208 176
f 221 253 254 222
f 230 134 135 231
f 222 254 255 223
f 180 212 213 181
f 223 255 256 224
f 167 199 200 168
f 191 223 224 192
g Group4899
f 352 277 278 353
f 339 264 265 340
f 292 317 318 293
f 336 261 262 337
f 333 258 259 334
f 353 278 279 354
f 286 311 312 287
f 340 265 266 341
f 300 325 326 301
f 302 327 328 303
f 291 316 317 292
f 343 268 269 344
f 301 326 327 302
f 283 308 309 284
f 284 309 310 285
f 348 273 274 349
f 294 319 320 295
f 335 260 261 336
f 342 267 268 343
f 303 328 329 304
f 295 320 321 296
f 332 257 465 466
f 287 312 313 288
f 350 275 276 351
f 354 279 280 355
f 305 330 593 594
f 345 270 271 346
f 290 315 316 291
f 344 269 270 345
f 341 266 267 342
f 296 321 322 297
f 282 307 468 469
f 347 272 273 348
f 288 313 314 289
f 349 274 275 350
f 307 380 470 468
f 337 262 263 338
f 308 381 382 309
f 309 382 383 310
f 310 383 384 311
f 355 280 595 596
f 311 384 385 312
f 351 276 277 352
f 312 385 386 313
f 313 386 388 314
f 304 329 330 305
f 314 388 389 315
f 315 389 390 316
f 316 390 391 317
f 317 391 393 318
f 318 393 394 319
f 319 394 395 320
f 338 263 264 339
f 320 395 396 321
f 321 396 397 322
f 322 397 398 323
f 299 324 325 300
f 323 398 399 324
f 324 399 400 325
f 297 322 323 298
f 325 400 401 326
f 289 314 315 290
f 326 401 402 327
f 327 402 403 328
f 328 403 404 329
f 346 271 272 347
f 329 404 405 330
f 330 405 597 593
f 293 318 319 294
f 334 259 260 335
f 298 323 324 299
f 285 310 311 286
f 356 281 427 432
f 307 282 378 380
f 380 433 472 470
f 381 434 435 382
f 382 435 436 383
f 383 436 437 384
f 384 437 438 385
f 385 438 439 386
f 386 439 440 388
f 388 440 441 389
f 389 441 442 390
f 390 442 443 391
f 391 443 444 393
f 393 444 445 394
f 394 445 446 395
f 395 446 447 396
f 396 447 448 397
f 397 448 449 398
f 398 449 450 399
f 399 450 451 400
f 400 451 452 401
f 401 452 453 402
f 402 453 454 403
f 403 454 455 404
f 404 455 456 405
f 405 456 598 597
f 406 377 306 331
f 380 378 428 433
f 407 357 358 408
f 409 359 360 410
f 411 361 362 412
f 413 363 357 407
f 414 364 365 415
f 416 366 359 409
f 417 367 368 418
f 412 362 369 419
f 420 370 371 421
f 422 372 373 423
f 419 369 374 424
f 425 375 376 426
f 424 374 599 600
f 418 368 364 414
f 426 376 379 429
f 410 360 361 411
f 408 358 372 422
f 421 371 367 417
f 415 365 375 425
f 423 373 387 430
f 429 379 392 431
f 431 392 366 416
f 430 387 370 420
f 432 427 377 406
f 433 332 466 472
f 434 333 334 435
f 435 334 335 436
f 436 335 336 437
f 437 336 337 438
f 438 337 338 439
f 439 338 339 440
f 440 339 340 441
f 441 340 341 442
f 442 341 342 443
f 443 342 343 444
f 444 343 344 445
f 445 344 345 446
f 446 345 346 447
f 447 346 347 448
f 448 347 348 449
f 449 348 349 450
f 450 349 350 451
f 451 350 351 452
f 452 351 352 453
f 453 352 353 454
f 454 353 354 455
f 455 354 355 456
f 456 355 596 598
f 433 428 257 332
f 460 459 331 306
f 461 458 281 356
f 459 462 406 331
f 462 464 432 406
f 464 461 356 432
f 466 465 581 582
f 469 468 583 584
f 468 470 585 583
f 470 472 586 585
f 467 471 587 588
f 472 466 582 586
f 476 475 474 473
f 260 259 476 473
f 407 408 474 475
f 480 479 478 477
f 276 275 480 477
f 409 410 478 479
f 484 483 482 481
f 278 277 484 481
f 411 412 482 483
f 486 485 475 476
f 259 258 486 476
f 413 407 475 485
f 490 489 488 487
f 269 268 490 487
f 414 415 488 489
f 492 491 479 480
f 275 274 492 480
f 416 409 479 491
f 496 495 494 493
f 267 266 496 493
f 417 418 494 495
f 481 482 498 497
f 279 278 481 497
f 412 419 498 482
f 502 501 500 499
f 265 264 502 499
f 420 421 500 501
f 506 505 504 503
f 262 261 506 503
f 422 423 504 505
f 497 498 508 507
f 280 279 497 507
f 419 424 508 498
f 512 511 510 509
f 271 270 512 509
f 425 426 510 511
f 507 508 601 602
f 458 595 602 513
f 424 600 601 508
f 493 494 489 490
f 268 267 493 490
f 418 414 489 494
f 518 517 516 515
f 465 257 518 515
f 257 428 517 518
f 509 510 520 519
f 272 271 509 519
f 426 429 520 510
f 477 478 483 484
f 277 276 477 484
f 410 411 483 478
f 473 474 505 506
f 261 260 473 506
f 408 422 505 474
f 499 500 495 496
f 266 265 499 496
f 421 417 495 500
f 487 488 511 512
f 270 269 487 512
f 415 425 511 488
f 503 504 522 521
f 263 262 503 521
f 423 430 522 504
f 519 520 524 523
f 273 272 519 523
f 429 431 524 520
f 523 524 491 492
f 274 273 523 492
f 431 416 491 524
f 521 522 501 502
f 264 263 521 502
f 430 420 501 522
f 528 527 526 525
f 358 357 528 525
f 284 285 526 527
f 532 531 530 529
f 360 359 532 529
f 300 301 530 531
f 536 535 534 533
f 362 361 536 533
f 302 303 534 535
f 538 537 527 528
f 357 363 538 528
f 283 284 527 537
f 542 541 540 539
f 365 364 542 539
f 293 294 540 541
f 544 543 531 532
f 359 366 544 532
f 299 300 531 543
f 548 547 546 545
f 368 367 548 545
f 291 292 546 547
f 533 534 550 549
f 369 362 533 549
f 303 304 550 534
f 554 553 552 551
f 371 370 554 551
f 289 290 552 553
f 558 557 556 555
f 373 372 558 555
f 286 287 556 557
f 549 550 560 559
f 374 369 549 559
f 304 305 560 550
f 564 563 562 561
f 376 375 564 561
f 295 296 562 563
f 559 560 603 604
f 463 599 604 565
f 305 594 603 560
f 545 546 541 542
f 364 368 545 542
f 292 293 541 546
f 570 569 568 567
f 282 469 568 569
f 378 282 569 570
f 561 562 572 571
f 379 376 561 571
f 296 297 572 562
f 529 530 535 536
f 361 360 529 536
f 301 302 535 530
f 525 526 557 558
f 372 358 525 558
f 285 286 557 526
f 551 552 547 548
f 367 371 551 548
f 290 291 547 552
f 539 540 563 564
f 375 365 539 564
f 294 295 563 540
f 555 556 574 573
f 387 373 555 573
f 287 288 574 556
f 571 572 576 575
f 392 379 571 575
f 297 298 576 572
f 575 576 543 544
f 366 392 575 544
f 298 299 543 576
f 573 574 553 554
f 370 387 573 554
f 288 289 553 574
f 517 570 567 516
f 471 467 516 567
f 428 378 570 517
f 513 514 578 577
f 281 458 513 577
f 427 281 577 578
f 565 566 580 579
f 306 377 579 580
f 460 306 580 566
f 514 565 579 578
f 377 427 578 579
f 457 463 565 514
f 515 516 589 590
f 258 581 590 486
f 467 588 589 516
f 567 568 591 592
f 363 587 592 538
f 469 584 591 568
f 582 581 258 333
f 584 583 308 283
f 583 585 381 308
f 585 586 434 381
f 588 587 363 413
f 586 582 333 434
f 590 589 485 486
f 581 465 515 590
f 588 413 485 589
f 592 591 537 538
f 587 471 567 592
f 584 283 537 591
f 594 593 459 460
f 596 595 458 461
f 593 597 462 459
f 597 598 464 462
f 600 599 463 457
f 598 596 461 464
f 602 601 514 513
f 595 280 507 602
f 600 457 514 601
f 604 603 566 565
f 599 374 559 604
f 594 460 566 603

 