# File exported by ZBrush version 2021
# www.zbrush.com
#Vertex Count 1048
#Face Count 1080
#Auto scale x=1.000000 y=1.000000 z=1.000000
#Auto offset x=0.000000 y=0.000000 z=0.000000
v 0.52081501 4.06772136 -0.00495149
v 0.52081501 4.06772136 -0.15004649
v 0.484611 4.07901573 -0.14725849
v 0.44979801 4.08988142 -0.1390015
v 0.41771504 4.0998907 -0.1255925
v 0.38959404 4.10866975 -0.10754849
v 0.36651501 4.11587047 -0.08556149
v 0.34936603 4.12121963 -0.06047649
v 0.33880606 4.12451553 -0.03325849
v 0.33524003 4.12562751 -0.00495149
v 0.33880606 4.12451553 0.0233545
v 0.34936603 4.12121963 0.0505745
v 0.36651501 4.11587047 0.0756585
v 0.38959404 4.10866975 0.0976455
v 0.41771504 4.0998907 0.1156905
v 0.44979801 4.08988142 0.1290975
v 0.484611 4.07901573 0.1373545
v 0.52081501 4.06772136 0.1401425
v 0.55702006 4.05642747 0.1373545
v 0.59183001 4.0455594 0.1290975
v 0.62391412 4.03554964 0.1156905
v 0.65203607 4.0267744 0.0976455
v 0.67511403 4.0195713 0.0756585
v 0.692263 4.01422071 0.0505745
v 0.70282411 4.01092672 0.0233545
v 0.70638907 4.0098114 -0.00495149
v 0.70282411 4.01092672 -0.03325849
v 0.692263 4.01422071 -0.06047649
v 0.67511403 4.0195713 -0.08556149
v 0.65203607 4.0267744 -0.10754849
v 0.62391412 4.03554964 -0.1255925
v 0.59183001 4.0455594 -0.1390015
v 0.55702006 4.05642747 -0.14725849
v 0.47581401 3.92350769 -0.15004649
v 0.43961003 3.93480539 -0.14725849
v 0.40479806 3.9456644 -0.1390015
v 0.37271401 3.95568037 -0.1255925
v 0.34459301 3.96445369 -0.10754849
v 0.32151505 3.97165775 -0.08556149
v 0.304365 3.97700643 -0.06047649
v 0.29380503 3.98030233 -0.03325849
v 0.290239 3.9814167 -0.00495149
v 0.29380503 3.98030233 0.0233545
v 0.304365 3.97700643 0.0505745
v 0.32151505 3.97165775 0.0756585
v 0.34459301 3.96445369 0.0976455
v 0.37271401 3.95568037 0.1156905
v 0.40479806 3.9456644 0.1290975
v 0.43961003 3.93480539 0.1373545
v 0.47581401 3.92350769 0.1401425
v 0.51201903 3.91220951 0.1373545
v 0.54683005 3.90134763 0.1290975
v 0.57891404 3.89133644 0.1156905
v 0.60703408 3.88256263 0.0976455
v 0.63011312 3.87535667 0.0756585
v 0.64726209 3.87000751 0.0505745
v 0.65782201 3.8667097 0.0233545
v 0.66138911 3.86560154 -0.00495149
v 0.65782201 3.8667097 -0.03325849
v 0.64726209 3.87000751 -0.06047649
v 0.63011312 3.87535667 -0.08556149
v 0.60703408 3.88256263 -0.10754849
v 0.57891404 3.89133644 -0.1255925
v 0.54683005 3.90134763 -0.1390015
v 0.51201903 3.91220951 -0.14725849
v 0.43081203 3.77929449 -0.15004649
v 0.39460906 3.79059076 -0.14725849
v 0.35979601 3.80145359 -0.1390015
v 0.32771304 3.81146431 -0.1255925
v 0.29959204 3.82024145 -0.10754849
v 0.27651301 3.8274393 -0.08556149
v 0.25936403 3.83279132 -0.06047649
v 0.24880304 3.83608865 -0.03325849
v 0.24523803 3.83720064 -0.00495149
v 0.24880501 3.8360877 0.0233545
v 0.25936403 3.83279132 0.0505745
v 0.27651301 3.8274393 0.0756585
v 0.29959204 3.82024145 0.0976455
v 0.32771304 3.81146431 0.1156905
v 0.35979601 3.80145359 0.1290975
v 0.39460906 3.79059076 0.1373545
v 0.43081203 3.77929449 0.1401425
v 0.46701702 3.76799535 0.1373545
v 0.50182902 3.75713157 0.1290975
v 0.53391301 3.74712228 0.1156905
v 0.56203401 3.73834657 0.0976455
v 0.58511102 3.73114538 0.0756585
v 0.60226106 3.72579574 0.0505745
v 0.6128211 3.72249841 0.0233545
v 0.61638808 3.72138643 -0.00495149
v 0.6128211 3.72249841 -0.03325849
v 0.60226106 3.72579574 -0.06047649
v 0.58511102 3.73114538 -0.08556149
v 0.56203401 3.73834657 -0.10754849
v 0.53391301 3.74712228 -0.1255925
v 0.50182902 3.75713157 -0.1390015
v 0.46701702 3.76799535 -0.14725849
v 0.34020701 3.48893165 -0.11328949
v 0.31317505 3.49736738 -0.1112075
v 0.28718105 3.50547838 -0.1050425
v 0.26322606 3.51295232 -0.0950305
v 0.24222806 3.5195055 -0.08155749
v 0.22499701 3.52488231 -0.0651405
v 0.21219202 3.52887773 -0.0464105
v 0.20430705 3.53133869 -0.0260875
v 0.20164504 3.53217029 -0.00495149
v 0.20430705 3.53133869 0.0161835
v 0.21219202 3.52887773 0.0365075
v 0.22499701 3.52488231 0.0552375
v 0.24222806 3.5195055 0.0716545
v 0.26322606 3.51295232 0.0851275
v 0.28718105 3.50547838 0.0951385
v 0.31317505 3.49736738 0.1013035
v 0.34020701 3.48893165 0.1033855
v 0.36723902 3.48049545 0.1013035
v 0.39323303 3.4723854 0.0951385
v 0.41718903 3.46491146 0.0851275
v 0.43818602 3.45835828 0.0716545
v 0.45541802 3.45298242 0.0552375
v 0.46822205 3.44898557 0.0365075
v 0.47610804 3.44652462 0.0161835
v 0.47876998 3.44569444 -0.00495149
v 0.47610804 3.44652462 -0.0260875
v 0.46822205 3.44898557 -0.0464105
v 0.45541802 3.45298242 -0.0651405
v 0.43818602 3.45835828 -0.08155749
v 0.41718903 3.46491146 -0.0950305
v 0.39323303 3.4723854 -0.1050425
v 0.36723902 3.48049545 -0.1112075
v 0.30660602 3.38125038 -0.11328949
v 0.279574 3.38968563 -0.1112075
v 0.25358101 3.39779758 -0.1050425
v 0.22962501 3.40527248 -0.0950305
v 0.20862701 3.4118247 -0.08155749
v 0.19139501 3.41720247 -0.0651405
v 0.17859104 3.42119741 -0.0464105
v 0.17070606 3.42365837 -0.0260875
v 0.16804304 3.42448854 -0.00495149
v 0.17070606 3.42365837 0.0161835
v 0.17859104 3.42119741 0.0365075
v 0.19139501 3.41720247 0.0552375
v 0.20862701 3.4118247 0.0716545
v 0.22962501 3.40527248 0.0851275
v 0.25358101 3.39779758 0.0951385
v 0.279574 3.38968563 0.1013035
v 0.30660602 3.38125038 0.1033855
v 0.33363804 3.3728156 0.1013035
v 0.35963204 3.36470556 0.0951385
v 0.38358703 3.35722875 0.0851275
v 0.40458503 3.35067749 0.0716545
v 0.42181703 3.34529972 0.0552375
v 0.434621 3.3413043 0.0365075
v 0.44250604 3.33884429 0.0161835
v 0.44516906 3.33801364 -0.00495149
v 0.44250604 3.33884429 -0.0260875
v 0.434621 3.3413043 -0.0464105
v 0.42181703 3.34529972 -0.0651405
v 0.40458503 3.35067749 -0.08155749
v 0.38358703 3.35722875 -0.0950305
v 0.35963204 3.36470556 -0.1050425
v 0.33363804 3.3728156 -0.1112075
v 0.23940405 3.16589069 -0.11328949
v 0.21237203 3.17432355 -0.1112075
v 0.18637803 3.18243551 -0.1050425
v 0.16242304 3.18991041 -0.0950305
v 0.14142504 3.19646263 -0.08155749
v 0.12419304 3.20183944 -0.0651405
v 0.11138901 3.20583629 -0.0464105
v 0.10350301 3.20829629 -0.0260875
v 0.10084101 3.20912647 -0.00495149
v 0.10350403 3.20829629 0.0161835
v 0.11138901 3.20583629 0.0365075
v 0.12419304 3.20183944 0.0552375
v 0.14142504 3.19646263 0.0716545
v 0.16242304 3.18991041 0.0851275
v 0.18637803 3.18243551 0.0951385
v 0.21237203 3.17432355 0.1013035
v 0.23940405 3.16589069 0.1033855
v 0.26643601 3.15745449 0.1013035
v 0.29243001 3.14934253 0.0951385
v 0.31638506 3.14186763 0.0851275
v 0.33738204 3.13531637 0.0716545
v 0.35461404 3.1299386 0.0552375
v 0.36741903 3.12594366 0.0365075
v 0.37530401 3.12348175 0.0161835
v 0.37796601 3.12265157 -0.00495149
v 0.37530401 3.12348175 -0.0260875
v 0.36741903 3.12594366 -0.0464105
v 0.35461404 3.1299386 -0.0651405
v 0.33738204 3.13531637 -0.08155749
v 0.31638506 3.14186763 -0.0950305
v 0.29243001 3.14934253 -0.1050425
v 0.26643601 3.15745449 -0.1112075
v 0.17219504 2.9505043 -0.11328949
v 0.14516201 2.95894146 -0.1112075
v 0.11916902 2.96705246 -0.1050425
v 0.09521302 2.9745264 -0.0950305
v 0.07421603 2.98107862 -0.08155749
v 0.05698403 2.98645544 -0.0651405
v 0.04417905 2.99045133 -0.0464105
v 0.03629401 2.99291133 -0.0260875
v 0.03363201 2.99374246 -0.00495149
v 0.03629401 2.99291133 0.0161835
v 0.04417905 2.99045133 0.0365075
v 0.05698403 2.98645544 0.0552375
v 0.07421603 2.98107862 0.0716545
v 0.09521302 2.9745264 0.0851275
v 0.11916902 2.96705246 0.0951385
v 0.14516201 2.95894146 0.1013035
v 0.17219504 2.9505043 0.1033855
v 0.19922706 2.94207048 0.1013035
v 0.22522005 2.93395853 0.0951385
v 0.24917605 2.92648363 0.0851275
v 0.27017304 2.91993045 0.0716545
v 0.28740504 2.91455459 0.0552375
v 0.30020901 2.9105587 0.0365075
v 0.308095 2.90809869 0.0161835
v 0.31075701 2.90726757 -0.00495149
v 0.308095 2.90809869 -0.0260875
v 0.30020901 2.9105587 -0.0464105
v 0.28740504 2.91455459 -0.0651405
v 0.27017304 2.91993045 -0.08155749
v 0.24917605 2.92648363 -0.0950305
v 0.22522005 2.93395853 -0.1050425
v 0.19922706 2.94207048 -0.1112075
v 0.10499206 2.73514461 -0.11328949
v 0.07796004 2.74357938 -0.1112075
v 0.05196604 2.75169038 -0.1050425
v 0.02801105 2.75916647 -0.0950305
v 0.00701305 2.7657175 -0.08155749
v -0.01021793 2.77109551 -0.0651405
v -0.02302295 2.77509164 -0.0464105
v -0.03090795 2.77755069 -0.0260875
v -0.03357097 2.77838254 -0.00495149
v -0.03090795 2.77755069 0.0161835
v -0.02302295 2.77509164 0.0365075
v -0.01021793 2.77109551 0.0552375
v 0.00701305 2.7657175 0.0716545
v 0.02801105 2.75916647 0.0851275
v 0.05196604 2.75169038 0.0951385
v 0.07796004 2.74357938 0.1013035
v 0.10499206 2.73514461 0.1033855
v 0.13202402 2.72670841 0.1013035
v 0.15801802 2.71859836 0.0951385
v 0.18197301 2.71112251 0.0851275
v 0.20297005 2.70457053 0.0716545
v 0.22020301 2.69919347 0.0552375
v 0.23300704 2.69519758 0.0365075
v 0.24089202 2.69273757 0.0161835
v 0.24355503 2.6919074 -0.00495149
v 0.24089202 2.69273757 -0.0260875
v 0.23300704 2.69519758 -0.0464105
v 0.22020301 2.69919347 -0.0651405
v 0.20297005 2.70457053 -0.08155749
v 0.18197301 2.71112251 -0.0950305
v 0.15801802 2.71859836 -0.1050425
v 0.13202402 2.72670936 -0.1112075
v 0.03779003 2.51978445 -0.11328949
v 0.01075801 2.5282185 -0.1112075
v -0.01523599 2.5363295 -0.1050425
v -0.03919097 2.54380464 -0.0950305
v -0.06018897 2.55035638 -0.08155749
v -0.07742095 2.55573368 -0.0651405
v -0.09022495 2.55972957 -0.0464105
v -0.09810996 2.56219053 -0.0260875
v -0.10077297 2.56302166 -0.00495149
v -0.09810996 2.56219053 0.0161835
v -0.09022495 2.55972957 0.0365075
v -0.07742095 2.55573368 0.0552375
v -0.06018897 2.55035638 0.0716545
v -0.03919097 2.54380464 0.0851275
v -0.01523599 2.5363295 0.0951385
v 0.01075801 2.5282185 0.1013035
v 0.03779003 2.51978445 0.1033855
v 0.06482204 2.51134753 0.1013035
v 0.09081503 2.50323653 0.0951385
v 0.11477205 2.49576139 0.0851275
v 0.13576903 2.48920965 0.0716545
v 0.15300104 2.4838314 0.0552375
v 0.16580501 2.47983646 0.0365075
v 0.17369005 2.47737646 0.0161835
v 0.176353 2.47654557 -0.00495149
v 0.17369005 2.47737646 -0.0260875
v 0.16580501 2.47983646 -0.0464105
v 0.15300104 2.48383235 -0.0651405
v 0.13576903 2.48920965 -0.08155749
v 0.11477205 2.49576139 -0.0950305
v 0.09081503 2.50323653 -0.1050425
v 0.06482204 2.51134753 -0.1112075
v -0.02941897 2.30439949 -0.11328949
v -0.05645096 2.3128345 -0.1112075
v -0.08244496 2.3209455 -0.1050425
v -0.10639995 2.32842063 -0.0950305
v -0.12739795 2.33497357 -0.08155749
v -0.14462995 2.34035062 -0.0651405
v -0.15743395 2.34434557 -0.0464105
v -0.16531896 2.34680652 -0.0260875
v -0.16798195 2.34763765 -0.00495149
v -0.16531896 2.34680652 0.0161835
v -0.15743395 2.34434557 0.0365075
v -0.14462995 2.34035062 0.0552375
v -0.12739795 2.33497357 0.0716545
v -0.10639995 2.32842063 0.0851275
v -0.08244496 2.3209455 0.0951385
v -0.05645096 2.3128345 0.1013035
v -0.02941897 2.30439949 0.1033855
v -0.00238695 2.29596447 0.1013035
v 0.02360603 2.28785347 0.0951385
v 0.04756203 2.28037858 0.0851275
v 0.06855902 2.27382564 0.0716545
v 0.08579102 2.26844835 0.0552375
v 0.098596 2.26445341 0.0365075
v 0.10648104 2.26199245 0.0161835
v 0.10914304 2.26116156 -0.00495149
v 0.10648104 2.26199245 -0.0260875
v 0.098596 2.26445341 -0.0464105
v 0.08579102 2.26844835 -0.0651405
v 0.06855902 2.27382564 -0.08155749
v 0.04756203 2.28037858 -0.0950305
v 0.02360603 2.28785347 -0.1050425
v -0.00238695 2.29596447 -0.1112075
v -0.02941897 2.30439949 -0.00495149
v -0.03553897 2.42449951 -0.20040148
v 0.00418904 2.41210269 -0.20346048
v -0.07437697 2.43661856 -0.19118949
v -0.11139595 2.44816947 -0.17571848
v -0.14554795 2.45882654 -0.15380449
v -0.17551595 2.46817851 -0.12525449
v -0.19953197 2.47567248 -0.0901235
v -0.21538096 2.48061847 -0.0492745
v -0.22096395 2.4823594 -0.00495149
v -0.21538096 2.48061847 0.0393705
v -0.19953197 2.47567248 0.0802195
v -0.17551595 2.46817851 0.1153505
v -0.14554795 2.45882654 0.14390149
v -0.11139595 2.44816947 0.1658155
v -0.07437697 2.43661856 0.18128651
v -0.03553897 2.42449951 0.1904975
v 0.00418904 2.41210269 0.1935565
v 0.04391703 2.39970541 0.1904975
v 0.08275404 2.38758564 0.18128651
v 0.11977306 2.37603569 0.1658155
v 0.15392503 2.36537838 0.14390149
v 0.183894 2.3560276 0.1153505
v 0.20791003 2.34853148 0.0802195
v 0.22375902 2.34358739 0.0393705
v 0.22934201 2.34184455 -0.00495149
v 0.22375902 2.34358739 -0.0492745
v 0.20791003 2.34853148 -0.0901235
v 0.183894 2.3560276 -0.12525449
v 0.15392503 2.36537838 -0.15380549
v 0.11977306 2.37603569 -0.17571848
v 0.08275404 2.38758564 -0.19118949
v 0.04391703 2.39970541 -0.20040148
v -0.06914696 2.31679654 -0.20040148
v -0.02941897 2.30439949 -0.20346048
v -0.10798496 2.32891559 -0.19118949
v -0.14500397 2.34046649 -0.1757195
v -0.17915597 2.35112357 -0.15380549
v -0.20912396 2.36047554 -0.12525449
v -0.23313996 2.36796951 -0.0901235
v -0.24898895 2.37291455 -0.0492745
v -0.25457197 2.37465763 -0.00495149
v -0.24898895 2.37291455 0.0393705
v -0.23314097 2.36796951 0.0802195
v -0.20912396 2.36047554 0.1153505
v -0.17915597 2.35112357 0.14390149
v -0.14500397 2.34046649 0.1658155
v -0.10798496 2.32891559 0.18128651
v -0.06914696 2.31679654 0.1904975
v -0.02941897 2.30439949 0.1935565
v 0.01030901 2.29200267 0.1904975
v 0.04914704 2.27988338 0.18128651
v 0.08616504 2.26833248 0.1658155
v 0.12031701 2.25767469 0.14390149
v 0.15028604 2.24832344 0.1153505
v 0.17430201 2.24082946 0.0802195
v 0.19015005 2.23588466 0.0393705
v 0.19573405 2.23414135 -0.00495149
v 0.19015005 2.23588466 -0.0492745
v 0.17430201 2.24082946 -0.0901235
v 0.15028503 2.24832344 -0.12525449
v 0.12031701 2.25767469 -0.15380549
v 0.08616504 2.26833248 -0.17571848
v 0.04914704 2.27988338 -0.19118949
v 0.01030901 2.29200267 -0.20040148
v 0.02132502 2.46702051 -0.20346048
v -0.01840296 2.47941637 -0.20040148
v -0.05724096 2.49153566 -0.19118949
v -0.09425896 2.50308656 -0.17571848
v -0.12841096 2.5137434 -0.15380449
v -0.15837997 2.5230956 -0.12525449
v -0.18239596 2.53058958 -0.0901235
v -0.19824495 2.53553557 -0.0492745
v -0.20382797 2.53727769 -0.00495149
v -0.19824495 2.53553557 0.0393715
v -0.18239596 2.53058958 0.0802195
v -0.15837997 2.5230956 0.1153505
v -0.12841096 2.5137434 0.14390149
v -0.09425896 2.50308656 0.1658155
v -0.05724096 2.49153566 0.18128651
v -0.01840296 2.47941637 0.1904975
v 0.02132502 2.46702051 0.1935565
v 0.061053 2.4546225 0.1904975
v 0.09989002 2.44250249 0.18128651
v 0.13691005 2.43095254 0.1658155
v 0.171061 2.42029547 0.14390149
v 0.20103004 2.4109435 0.1153505
v 0.225046 2.40344953 0.0802195
v 0.24089506 2.39850449 0.0393705
v 0.24647805 2.39676141 -0.00495149
v 0.24089506 2.39850449 -0.0492745
v 0.225046 2.40344953 -0.0901235
v 0.20103004 2.41094446 -0.12525449
v 0.171061 2.42029547 -0.15380449
v 0.13691005 2.43095254 -0.17571848
v 0.09989002 2.44250249 -0.19118949
v 0.061053 2.4546225 -0.20040148
v 0.03779003 2.51978445 -0.1367425
v 0.00745603 2.52924966 -0.13440649
v -0.02187898 2.53840255 -0.12744949
v -0.04923197 2.54693746 -0.11601749
v -0.07365095 2.55455637 -0.1003485
v -0.09419596 2.56096839 -0.08077649
v -0.10991597 2.56587457 -0.0577805
v -0.11987295 2.56898164 -0.03211849
v -0.12329596 2.57004952 -0.00495149
v -0.11987295 2.56898164 0.0222145
v -0.10991597 2.56587457 0.0478765
v -0.09419596 2.56096839 0.07087349
v -0.07365095 2.55455637 0.0904455
v -0.04923197 2.54693746 0.1061145
v -0.02187898 2.53840255 0.1175455
v 0.00745603 2.52924966 0.1245025
v 0.03779003 2.51978445 0.1268385
v 0.06812402 2.51031756 0.1245025
v 0.09745803 2.50116348 0.1175455
v 0.12481203 2.49262857 0.1061145
v 0.14923104 2.48500847 0.0904455
v 0.16977605 2.47859668 0.07087349
v 0.18549606 2.47369146 0.0478765
v 0.19545301 2.47058558 0.0222145
v 0.19887504 2.46951746 -0.00495149
v 0.19545301 2.47058558 -0.03211849
v 0.18549606 2.47369146 -0.0577805
v 0.16977605 2.47859764 -0.08077649
v 0.14923104 2.48500847 -0.1003485
v 0.12481203 2.49262857 -0.11601749
v 0.09745803 2.50116348 -0.12744949
v 0.06812402 2.51031756 -0.13440649
v -0.00373998 2.51226449 -0.1721535
v 0.03196701 2.50112247 -0.17490351
v -0.03850996 2.52311658 -0.1639055
v -0.07138797 2.5333805 -0.15016049
v -0.10136795 2.54274058 -0.13091549
v -0.12729397 2.55084037 -0.10620449
v -0.14774695 2.55723452 -0.07626749
v -0.16106295 2.5613985 -0.04192249
v -0.16571697 2.56285452 -0.00495149
v -0.16106295 2.5613985 0.0320195
v -0.14774695 2.55723452 0.0663635
v -0.12729495 2.55084037 0.0963015
v -0.10136795 2.54274058 0.1210125
v -0.07138797 2.5333805 0.1402575
v -0.03850996 2.52311658 0.1540015
v -0.00373998 2.51226449 0.1622495
v 0.03196701 2.50112247 0.1649995
v 0.06767401 2.4899795 0.1622495
v 0.10244301 2.47913169 0.1540015
v 0.13532605 2.46887636 0.1402575
v 0.16530904 2.45952653 0.1210125
v 0.19124105 2.45144248 0.0963015
v 0.21170005 2.4450705 0.0663635
v 0.22502103 2.44092369 0.0320185
v 0.22967603 2.43947458 -0.00495149
v 0.22502103 2.44092369 -0.04192249
v 0.21170005 2.4450705 -0.07626749
v 0.19124105 2.45144367 -0.10620549
v 0.16530904 2.45952653 -0.13091549
v 0.13532605 2.46887636 -0.15016049
v 0.10244301 2.47913169 -0.1639055
v 0.06767401 2.4899795 -0.1721535
v 0.51464009 4.04793167 -0.20371151
v 0.47088006 4.06158351 -0.20034149
v 0.52081501 4.06772136 -0.1829805
v 0.479974 4.08046245 -0.17983749
v 0.42842301 4.07483434 -0.19027149
v 0.44046804 4.09279251 -0.17047348
v 0.38856503 4.0872693 -0.17361348
v 0.40360805 4.10429239 -0.15507949
v 0.35261705 4.09849166 -0.15054649
v 0.37067005 4.11457443 -0.13396549
v 0.32195702 4.10805749 -0.1213375
v 0.34291705 4.12323474 -0.10755749
v 0.29813602 4.11548852 -0.08649249
v 0.32164201 4.12987041 -0.0764845
v 0.28283605 4.12026357 -0.04705849
v 0.30814304 4.13408374 -0.04175649
v 0.27753105 4.12191772 -0.00495149
v 0.30349603 4.13553237 -0.00495149
v 0.28283605 4.12026357 0.0371535
v 0.30814304 4.13408374 0.0318515
v 0.29813501 4.11548852 0.0765885
v 0.32164201 4.12987041 0.0665815
v 0.32195702 4.10805749 0.1114345
v 0.34291705 4.12323474 0.0976535
v 0.35261705 4.09849166 0.1406435
v 0.37067005 4.11457443 0.1240625
v 0.38856604 4.0872693 0.1637105
v 0.403609 4.10429239 0.1451765
v 0.42842301 4.07483434 0.1803675
v 0.44046804 4.09279251 0.1605695
v 0.47088006 4.06158351 0.19043651
v 0.479974 4.08046245 0.1699325
v 0.51464009 4.04793167 0.19380751
v 0.52081501 4.06772136 0.17307651
v 0.5584011 4.03427934 0.19043749
v 0.56165707 4.05498075 0.16993349
v 0.60085511 4.02102661 0.1803675
v 0.60116112 4.04264736 0.1605695
v 0.64071404 4.00859069 0.1637105
v 0.63802206 4.03114748 0.14517751
v 0.67666411 3.99737262 0.1406435
v 0.67096102 4.0208683 0.1240625
v 0.70732104 3.98780441 0.1114355
v 0.69871211 4.0122075 0.0976545
v 0.73114407 3.98037147 0.0765895
v 0.7199881 4.00556945 0.0665825
v 0.7464441 3.97559833 0.0371535
v 0.73348701 4.0013585 0.0318515
v 0.75174808 3.97394037 -0.00495149
v 0.73813307 3.99990558 -0.00495149
v 0.7464441 3.97559833 -0.04705849
v 0.73348701 4.0013585 -0.04175649
v 0.73114407 3.98037147 -0.08649249
v 0.7199881 4.00556945 -0.0764855
v 0.70732104 3.98780441 -0.1213385
v 0.69871211 4.0122075 -0.10755749
v 0.67666411 3.99737262 -0.15054649
v 0.67096102 4.0208683 -0.13396549
v 0.64071404 4.00859069 -0.17361348
v 0.63802206 4.03114748 -0.15507949
v 0.60085606 4.02102661 -0.19027149
v 0.60116112 4.04264736 -0.17047348
v 0.5584011 4.03427934 -0.20034149
v 0.56165707 4.05498075 -0.17983749
v 0.43538501 3.93612337 -0.17693948
v 0.47581401 3.92350769 -0.18005049
v 0.396297 3.94831752 -0.16767549
v 0.35985902 3.95969152 -0.1524605
v 0.32734701 3.96983432 -0.13162149
v 0.30000606 3.97836875 -0.10560949
v 0.27909001 3.98489332 -0.0750705
v 0.26584604 3.98902654 -0.04100749
v 0.26129302 3.99044942 -0.00495149
v 0.26584604 3.98902654 0.0311025
v 0.27909001 3.98489332 0.0651675
v 0.30000606 3.97836875 0.0957065
v 0.32734701 3.96983432 0.1217185
v 0.35986003 3.95969152 0.1425575
v 0.396297 3.94831752 0.15777149
v 0.43538501 3.93612337 0.1670345
v 0.47581401 3.92350769 0.17014649
v 0.51624405 3.91089153 0.1670355
v 0.55533111 3.89869451 0.15777149
v 0.59176802 3.88732576 0.1425575
v 0.62428009 3.87718057 0.1217185
v 0.6516211 3.86864471 0.0957065
v 0.67253708 3.86212062 0.0651675
v 0.68578112 3.85798454 0.0311025
v 0.6903361 3.85656833 -0.00495149
v 0.68578112 3.85798454 -0.04100749
v 0.67253708 3.86212062 -0.0750705
v 0.6516211 3.86864471 -0.10560949
v 0.62428009 3.87718057 -0.13162149
v 0.59176802 3.88732576 -0.1524605
v 0.55533111 3.89869451 -0.16767549
v 0.51624405 3.91089153 -0.17693948
v 0.48286208 3.94609451 -0.20371151
v 0.43910202 3.95975065 -0.20034149
v 0.39664605 3.97299432 -0.19027149
v 0.35678705 3.98543644 -0.17361348
v 0.32083806 3.9966526 -0.15054649
v 0.29018005 4.00622129 -0.1213375
v 0.26635703 4.01365232 -0.08649249
v 0.25105801 4.01842737 -0.04705849
v 0.24575403 4.02008438 -0.00495149
v 0.25105801 4.01842737 0.0371535
v 0.26635703 4.01365232 0.0765885
v 0.29018005 4.00622129 0.1114345
v 0.32083806 3.9966526 0.1406435
v 0.356788 3.98543644 0.1637105
v 0.39664605 3.97299432 0.1803675
v 0.43910202 3.95975065 0.19043651
v 0.48286208 3.94609451 0.19380751
v 0.52662301 3.93243932 0.19043749
v 0.56907808 3.91919136 0.1803675
v 0.60893607 3.90675449 0.1637105
v 0.64488601 3.89553737 0.1406435
v 0.67554307 3.8859663 0.1114355
v 0.69936609 3.87853574 0.0765895
v 0.71466505 3.87375831 0.0371535
v 0.71997106 3.8721075 -0.00495149
v 0.71466505 3.87375831 -0.04705849
v 0.69936609 3.87853574 -0.08649249
v 0.67554307 3.8859663 -0.1213385
v 0.64488601 3.89553737 -0.15054649
v 0.60893607 3.90675449 -0.17361348
v 0.56907904 3.91919136 -0.19027149
v 0.52662301 3.93243932 -0.20034149
v 0.33397701 3.46896553 -0.13250549
v 0.30423906 3.47824573 -0.13021449
v 0.34020701 3.48893165 -0.12308949
v 0.31179502 3.49779748 -0.12090149
v 0.27550801 3.48721075 -0.12340049
v 0.28440502 3.50634431 -0.11440549
v 0.24877002 3.49555349 -0.1122255
v 0.25903102 3.51426172 -0.10379949
v 0.22496804 3.50298166 -0.09695349
v 0.23660305 3.52126073 -0.0894095
v 0.20502302 3.50920534 -0.07795049
v 0.21798804 3.52706956 -0.07167349
v 0.18982902 3.51394558 -0.0557255
v 0.20396402 3.53144455 -0.05116149
v 0.18024703 3.5169363 -0.03102849
v 0.19521406 3.53417635 -0.02860749
v 0.17696204 3.51796245 -0.00495149
v 0.19223401 3.53510665 -0.00495149
v 0.18024703 3.5169363 0.0211245
v 0.19521406 3.53417635 0.0187035
v 0.18982902 3.51394558 0.0458225
v 0.20396402 3.53144455 0.0412585
v 0.20502302 3.50920534 0.0680475
v 0.21798804 3.52706956 0.0617705
v 0.22496804 3.50298166 0.0870505
v 0.23660305 3.52126073 0.0795065
v 0.24877002 3.49555349 0.1023225
v 0.25903102 3.51426172 0.0938965
v 0.27550801 3.48721075 0.11349649
v 0.28440502 3.50634431 0.1045015
v 0.30423906 3.47824573 0.1203105
v 0.31179502 3.49779748 0.1109975
v 0.33397701 3.46896553 0.1226015
v 0.34020701 3.48893165 0.1131855
v 0.36371502 3.45968532 0.1203105
v 0.36861905 3.48006534 0.1109975
v 0.39244601 3.45072174 0.11349649
v 0.39600905 3.47151947 0.1045015
v 0.41918501 3.44237852 0.1023225
v 0.421384 3.46360254 0.0938965
v 0.44298604 3.43495035 0.0870505
v 0.44381102 3.45660352 0.0795065
v 0.46293202 3.42872762 0.0680475
v 0.46242705 3.45079565 0.0617705
v 0.47812506 3.42398548 0.0458225
v 0.47645005 3.44641876 0.0412585
v 0.48770806 3.42099475 0.0211245
v 0.48520109 3.44368648 0.0187035
v 0.49099299 3.41997051 -0.00495149
v 0.48818108 3.4427576 -0.00495149
v 0.48770806 3.42099475 -0.03102849
v 0.48520109 3.44368648 -0.02860749
v 0.47812506 3.42398548 -0.05572649
v 0.47645005 3.44641876 -0.05116149
v 0.46293202 3.42872762 -0.07795049
v 0.46242705 3.45079565 -0.07167349
v 0.44298604 3.43495035 -0.09695349
v 0.44381102 3.45660352 -0.0894095
v 0.41918602 3.44237852 -0.1122255
v 0.42138502 3.46360254 -0.10379949
v 0.39244601 3.45072031 -0.12340049
v 0.39600905 3.47151851 -0.11440549
v 0.36371502 3.45968532 -0.13021449
v 0.36861905 3.48006534 -0.12090149
v 0.27819404 3.39011573 -0.12090149
v 0.30660602 3.38125038 -0.12308949
v 0.25080505 3.39866352 -0.11440549
v 0.22542902 3.4065814 -0.10379949
v 0.20300206 3.41357946 -0.0894095
v 0.18438604 3.41938972 -0.07167349
v 0.17036303 3.4237647 -0.05116149
v 0.16161301 3.42649555 -0.02860749
v 0.15863201 3.42742443 -0.00495149
v 0.16161301 3.42649555 0.0187035
v 0.17036303 3.4237647 0.0412585
v 0.18438604 3.41938972 0.0617705
v 0.20300206 3.41357946 0.0795065
v 0.22543004 3.4065814 0.0938965
v 0.25080505 3.39866352 0.1045015
v 0.27819404 3.39011573 0.1109975
v 0.30660602 3.38125038 0.1131855
v 0.335018 3.37238454 0.1109975
v 0.36240801 3.36383962 0.1045015
v 0.387782 3.35591936 0.0938965
v 0.41021004 3.34892129 0.0795065
v 0.42882606 3.34311151 0.0617705
v 0.44284901 3.33873653 0.0412585
v 0.45159903 3.33600664 0.0187035
v 0.45458003 3.33507633 -0.00495149
v 0.45159903 3.33600664 -0.02860749
v 0.44284901 3.33873653 -0.05116149
v 0.42882606 3.34311151 -0.07167349
v 0.41021004 3.34892129 -0.0894095
v 0.38778302 3.35591936 -0.10379949
v 0.36240801 3.36383867 -0.11440549
v 0.335018 3.37238454 -0.12090149
v 0.31221601 3.39922761 -0.13250549
v 0.28247806 3.40850639 -0.13021449
v 0.25374802 3.41747236 -0.12340049
v 0.22700801 3.42581653 -0.1122255
v 0.20320704 3.43324375 -0.09695349
v 0.183261 3.43946838 -0.07795049
v 0.16806802 3.44420862 -0.0557255
v 0.15848603 3.44719934 -0.03102849
v 0.15520003 3.44822359 -0.00495149
v 0.15848603 3.44719934 0.0211245
v 0.16806802 3.44420862 0.0458225
v 0.183261 3.43946838 0.0680475
v 0.20320704 3.43324375 0.0870505
v 0.22700902 3.42581653 0.1023225
v 0.25374802 3.41747236 0.11349649
v 0.28247806 3.40850639 0.1203105
v 0.31221601 3.39922761 0.1226015
v 0.34195402 3.38994836 0.1203105
v 0.37068501 3.3809843 0.11349649
v 0.39742305 3.3726387 0.1023225
v 0.42122504 3.36521244 0.0870505
v 0.44117102 3.35898733 0.0680475
v 0.45636406 3.35424757 0.0458225
v 0.46594604 3.35125732 0.0211245
v 0.46923205 3.3502326 -0.00495149
v 0.46594604 3.35125732 -0.03102849
v 0.45636406 3.35424757 -0.05572649
v 0.44117102 3.35898733 -0.07795049
v 0.42122504 3.36521244 -0.09695349
v 0.39742401 3.3726387 -0.1122255
v 0.37068501 3.38098335 -0.12340049
v 0.34195402 3.38994836 -0.13021449
v -0.12744095 2.56064558 -0.42643749
v -0.36080595 2.66365051 -0.31440949
v -0.50642395 2.77158546 -0.17024651
v -0.56858789 2.84789848 -0.05007849
v -0.56858789 2.84789848 0.0500755
v -0.50642395 2.77158451 0.1702435
v -0.36080697 2.66364955 0.31440651
v -0.12744095 2.56064558 0.42643749
v 0.15394702 2.47384738 0.44254151
v 0.41831001 2.41762542 0.35316249
v 0.61353206 2.40597152 0.20879849
v 0.71483612 2.41891145 0.0659765
v 0.71483612 2.41891145 -0.06598049
v 0.61353111 2.40597152 -0.2088015
v 0.41831001 2.41762852 -0.3531655
v 0.15394803 2.47384953 -0.44254052
v -0.10335397 2.42809557 -0.28996649
v -0.25877594 2.49400663 -0.23110449
v -0.36743396 2.55480766 -0.14276349
v -0.42135596 2.59269857 -0.04737949
v -0.42135596 2.59269762 0.0473755
v -0.36743396 2.55480957 0.1427585
v -0.25877594 2.49400448 0.2310985
v -0.10335496 2.42809343 0.2899625
v 0.07555505 2.37010049 0.2968305
v 0.24495503 2.32915163 0.2476595
v 0.37435606 2.30874061 0.15928649
v 0.44364103 2.3030045 0.0542105
v 0.44364103 2.30300569 -0.05421449
v 0.37435701 2.30874157 -0.15929049
v 0.24495604 2.32915449 -0.24766549
v 0.07555505 2.3701024 -0.29683449
v -0.07781696 2.35885548 -0.17017149
v -0.16881096 2.39447069 -0.14073249
v -0.23589095 2.42486238 -0.0914655
v -0.27106595 2.44257068 -0.0315345
v -0.27106595 2.44257068 0.0315265
v -0.23589095 2.42486047 0.0914575
v -0.16881096 2.39446854 0.1407275
v -0.07781797 2.35885357 0.17016649
v 0.02381202 2.32514357 0.1724385
v 0.11954101 2.29852557 0.1462095
v 0.19342103 2.28139352 0.0969355
v 0.23347804 2.27344036 0.0337945
v 0.23347702 2.27344036 -0.03380249
v 0.19342204 2.28139543 -0.09694349
v 0.11954101 2.29852747 -0.1462145
v 0.02381202 2.32514548 -0.1724435
v -0.06870496 2.3437376 -0.1318835
v -0.13931697 2.37052059 -0.10994349
v -0.19197797 2.39285755 -0.07216049
v -0.21988695 2.40565347 -0.02504849
v -0.21988695 2.40565252 0.0250435
v -0.19197797 2.39285755 0.0721555
v -0.13931697 2.37051868 0.1099375
v -0.06870496 2.34373569 0.1318755
v 0.00951805 2.31767058 0.13322851
v 0.08295902 2.29632568 0.11320149
v 0.13966003 2.28187036 0.0754175
v 0.17045602 2.2747817 0.0263945
v 0.17045602 2.2747817 -0.0263995
v 0.13966104 2.28187155 -0.07542349
v 0.08295902 2.29632663 -0.11320649
v 0.00951805 2.31767249 -0.13323649
v -0.11738896 2.49305343 -0.36599049
v -0.31519594 2.57965135 -0.28118848
v -0.44633695 2.6646676 -0.16395649
v -0.507344 2.72099065 -0.05182349
v -0.507344 2.72099065 0.0518205
v -0.44633695 2.66466569 0.16395351
v -0.31519696 2.57964944 0.2811855
v -0.11738997 2.49304962 0.36598449
v 0.11579504 2.41922235 0.3773615
v 0.33616206 2.37007451 0.3085885
v 0.50197804 2.35247254 0.1912605
v 0.58946609 2.35400152 0.0630995
v 0.58946704 2.35400247 -0.06310349
v 0.50197804 2.35247468 -0.19126349
v 0.33616206 2.37007665 -0.30859249
v 0.11579504 2.4192276 -0.37736648
v -0.16973897 2.30268669 0.1197755
v -0.20098897 2.32831239 0.1533665
v -0.27223596 2.3602755 0.0997575
v -0.22565597 2.32621955 0.0786555
v 0.2258 2.19938945 0.0368135
v 0.44883105 2.23082065 0.0591995
v 0.37545004 2.23753738 0.1737515
v 0.18333706 2.20803451 0.1055675
v -0.29621496 2.43501758 -0.2522155
v -0.35584494 2.52699351 -0.3073225
v -0.14570996 2.43612051 -0.39874848
v -0.13115096 2.36569047 -0.31585249
v -0.09477996 2.27438354 0.14360749
v -0.10438197 2.29072356 0.18531251
v -0.41171696 2.49865865 -0.1562175
v -0.49533495 2.61573457 -0.18009349
v 0.12627002 2.20844554 -0.08211749
v 0.18333903 2.20803546 -0.10557349
v 0.22580102 2.19938945 -0.03682249
v 0.15892103 2.20079946 -0.02875049
v -0.46907696 2.53823757 -0.05195149
v -0.56031096 2.67443847 -0.0571745
v -0.46907696 2.53823661 0.0519465
v -0.56031096 2.67443847 0.0571705
v 0.00346204 2.25495147 -0.18772849
v 0.05870303 2.30414557 -0.32314249
v 0.23832604 2.26007938 -0.26978948
v 0.10500302 2.22650241 -0.1591835
v -0.41171595 2.49865651 0.1562165
v -0.49533596 2.61573362 0.1800895
v -0.01177099 2.2467246 0.14503449
v 0.00346204 2.25494647 0.1877205
v -0.29621496 2.43501567 0.25221151
v -0.35584494 2.52698946 0.30731952
v -0.22565597 2.32622051 -0.0786615
v -0.27223295 2.36027669 -0.09976349
v -0.20098897 2.32831454 -0.15337249
v -0.16973796 2.30268859 -0.1197845
v -0.25530096 2.33967757 0.0273085
v -0.30961096 2.37886667 0.0344065
v -0.30960997 2.37886667 -0.03441249
v -0.25530096 2.33967757 -0.02731449
v -0.13115197 2.36568856 0.3158485
v -0.14571297 2.43611669 0.39874649
v 0.05870303 2.30414342 0.3231385
v 0.10173806 2.35777568 0.41081851
v 0.10500201 2.22650146 0.15917849
v 0.23832604 2.26007747 0.26978552
v 0.33535704 2.3045926 0.3364005
v 0.51099109 2.28444147 0.20906449
v 0.60359203 2.28499937 0.0691365
v 0.12626901 2.20844459 0.0821115
v 0.06613406 2.22395253 0.1232275
v 0.44883105 2.2308216 -0.0592045
v 0.60359311 2.28500056 -0.06914149
v 0.15892103 2.20079851 0.0287415
v 0.37545105 2.23753953 -0.17375651
v 0.51099205 2.28444337 -0.2090685
v 0.06613603 2.22395467 -0.12323649
v 0.33535805 2.30459451 -0.33640348
v -0.09477895 2.27438545 -0.14361649
v -0.10438197 2.29072451 -0.18531748
v -0.01177099 2.24672746 -0.1450465
v 0.10173806 2.35777759 -0.41082149
v -0.40398097 2.61731338 -0.34421649
v -0.15601596 2.50946664 -0.4647085
v -0.55897796 2.72973537 -0.18796348
v -0.62528491 2.80917453 -0.05576649
v -0.62528491 2.80917453 0.0557635
v -0.55897796 2.72973442 0.1879615
v -0.40398296 2.61731243 0.34421351
v -0.15601697 2.50946664 0.4647085
v 0.14258405 2.41735839 0.48179751
v 0.42279502 2.35624265 0.38534149
v 0.62948703 2.34175849 0.2288735
v 0.7366451 2.35394859 0.0726365
v 0.7366451 2.35394954 -0.07264149
v 0.62948703 2.34176063 -0.2288765
v 0.42279604 2.35624551 -0.3853445
v 0.14258405 2.41735839 -0.48179751
v -0.14985096 2.46559047 -0.42525047
v -0.37518498 2.56328344 -0.32214549
v -0.52090597 2.66153955 -0.18325549
v -0.58641696 2.72857451 -0.05660849
v -0.58641696 2.72857451 0.0566045
v -0.52090692 2.6615386 0.18325251
v -0.37518695 2.56328058 0.32214349
v -0.14985296 2.46558857 0.42524951
v 0.11815002 2.38171553 0.43933749
v 0.37048903 2.32534551 0.35606449
v 0.55860209 2.30747151 0.2170235
v 0.65705204 2.31270265 0.0705435
v 0.65705311 2.3127036 -0.07054749
v 0.55860209 2.30747246 -0.21702748
v 0.37049004 2.32534742 -0.3560675
v 0.11815002 2.38171768 -0.43933951
v -0.39146497 2.54970836 -0.3349885
v -0.42025998 2.60373854 -0.3570595
v -0.16589695 2.49381542 -0.48123848
v -0.15973195 2.44993948 -0.4417805
v -0.54119491 2.64958143 -0.19070351
v -0.57926595 2.71777749 -0.19541049
v -0.60830998 2.7175827 -0.05890649
v -0.64717793 2.79818248 -0.05806449
v -0.60830998 2.7175827 0.0589025
v -0.64717793 2.79818153 0.0580605
v -0.54119598 2.64957952 0.1906995
v -0.5792669 2.71777558 0.19540849
v -0.39146596 2.5497055 0.3349865
v -0.42026296 2.6037364 0.35705649
v -0.15973395 2.44993758 0.44177949
v -0.16589796 2.49381542 0.48123851
v 0.11570701 2.36379647 0.4563165
v 0.14014205 2.39943957 0.49877649
v 0.37470004 2.30536747 0.37010648
v 0.42700502 2.33626461 0.39938351
v 0.56738102 2.28609347 0.22582949
v 0.63826608 2.32038068 0.23767849
v 0.66797006 2.29077243 0.0734495
v 0.74756312 2.33201837 0.0755425
v 0.66797101 2.29077339 -0.07345449
v 0.74756312 2.33201956 -0.0755475
v 0.56738102 2.28609466 -0.2258335
v 0.63826608 2.32038259 -0.23768249
v 0.37470004 2.30536937 -0.37010949
v 0.42700603 2.33626747 -0.39938649
v 0.11570802 2.36379861 -0.45631849
v 0.14014205 2.39943957 -0.49877649
v -0.17984297 2.28405547 0.1246765
v -0.21109297 2.30968141 0.15826749
v -0.28394296 2.34222364 0.1029365
v -0.23736295 2.30816745 0.0818345
v -0.10269096 2.25500059 0.14952549
v -0.11229297 2.27134037 0.1912305
v 0.124702 2.18701052 -0.08546149
v 0.18177101 2.18660068 -0.1089175
v 0.22511705 2.1776824 -0.03798649
v 0.15823701 2.1790924 -0.02991449
v -0.01725295 2.2265377 0.15101349
v -0.00201997 2.23475956 0.1936995
v -0.23736295 2.30816841 -0.0818405
v -0.28393995 2.34222459 -0.10294249
v -0.21109297 2.30968356 -0.1582735
v -0.17984196 2.28405761 -0.12468549
v -0.26783296 2.32194042 0.0284005
v -0.32214295 2.36112952 0.0354985
v -0.32214295 2.36112952 -0.03550549
v -0.26783397 2.32194042 -0.02840749
v 0.12470105 2.18700957 0.0854555
v 0.18176904 2.18659949 0.10891149
v 0.10175803 2.20559358 0.1642345
v 0.06289002 2.20304441 0.1282835
v 0.15823701 2.17909145 0.0299045
v 0.22511604 2.1776824 0.0379765
v 0.06289205 2.20304656 -0.1282925
v 0.10175904 2.20559454 -0.16423949
v -0.10268896 2.25500249 -0.14953549
v -0.11229196 2.27134156 -0.19123649
v -0.00201997 2.23476457 -0.1937085
v -0.01725295 2.22654056 -0.1510265
v -0.00188759 2.43937683 0.06122783
v -0.22862538 1.63541662 0.06122782
v -0.39158836 0.81614279 0.06122781
v -0.48976936 -0.01339441 0.0612278
v -0.52256405 -0.84807598 0.0612278
v -0.48977014 -1.68275749 0.0612278
v -0.39158916 -2.51229238 0.06122781
v -0.00188759 2.43937683 -0.05779364
v -0.22862538 1.63541662 -0.05779364
v -0.48977014 -1.68275749 -0.05779367
v -0.52256399 -0.84807598 -0.05779367
v -0.39158836 0.81614279 -0.05779364
v -0.39158916 -2.51229238 -0.05779364
v -0.48976934 -0.01339441 -0.05779367
v -0.28237551 1.64612042 -0.05779364
v -0.04447567 2.45072078 -0.05779364
v -0.04447567 2.45072078 0.06122783
v -0.28237551 1.64612042 0.06122782
v -0.59898531 -0.84965229 -0.05779367
v -0.56065785 -0.00956499 -0.05779367
v -0.59898531 -0.84965229 0.0612278
v -0.5695132 -1.69046366 0.0612278
v -0.45485687 0.82420802 -0.05779364
v -0.45485687 0.82420802 0.06122781
v -0.5695132 -1.69046366 -0.05779367
v -0.47239503 -2.52639293 -0.05779364
v -0.47239503 -2.52639293 0.06122781
v -0.56065785 -0.00956499 0.0612278
v -0.42474827 -0.02013927 0.06122744
v -0.45219513 -0.84954476 0.06122744
v -0.31680908 -2.50166416 -0.05779364
v -0.31680908 -2.50166416 0.06122744
v -0.33388948 0.80518746 0.06122744
v -0.41613361 -1.67829573 -0.05779367
v -0.41613361 -1.67829573 0.06122744
v -0.45219513 -0.84954476 -0.05779367
v -0.42474827 -0.02013927 -0.05779367
v -0.18005532 1.62171661 -0.05779364
v 0.03597351 2.42476701 -0.05779364
v 0.03597351 2.42476701 0.06122746
v -0.18005532 1.62171661 0.06122745
v -0.33388948 0.80518746 -0.05779364
v -0.28024596 -3.10575103 -0.05779367
v -0.21631747 -3.0357337 -0.05779367
v -0.2188656 -3.02420949 0.06122745
v -0.28366407 -3.0899558 0.06122782
v -0.37485125 -3.06405925 -0.05779367
v -0.37549006 -3.06086778 0.06122782
v -0.04447567 2.45072078 -0.00240256
v -0.00188759 2.43937683 -0.00240257
v -0.38929891 1.6701852 -0.00240258
v -0.1290524 2.47564935 -0.00240257
v -0.00046107 -3.86837959 -0.00240274
v -0.00188759 -4.13553237 -0.00240257
v -0.0792635 -2.85945653 -0.00240319
v -0.75174808 -0.84973776 -0.00240259
v -0.70215201 0.00115656 -0.00240259
v -0.2502079 -1.66517174 -0.00240319
v -0.14852884 -2.47486352 -0.00240319
v -0.72912704 -1.70292174 -0.00240259
v -0.29337918 -0.84966778 -0.0024032
v 0.03597351 2.42476701 -0.00240274
v 0.1223506 2.39408874 -0.00240317
v -0.06965187 1.59356105 -0.00240318
v -0.5809338 0.84326744 -0.00240258
v -0.63431084 -2.55185365 -0.00240258
v -0.20311138 0.78352785 -0.00240319
v -0.27771821 -0.03216153 -0.00240319
v -0.16821223 -3.89529991 -0.00240257
v -0.56349444 -2.95502519 -0.00240258
g Group32942
f 1 2 3
f 1 3 4
f 1 4 5
f 1 5 6
f 1 6 7
f 1 7 8
f 1 8 9
f 1 9 10
f 1 10 11
f 1 11 12
f 1 12 13
f 1 13 14
f 1 14 15
f 1 15 16
f 1 16 17
f 1 17 18
f 1 18 19
f 1 19 20
f 1 20 21
f 1 21 22
f 1 22 23
f 1 23 24
f 1 24 25
f 1 25 26
f 1 26 27
f 1 27 28
f 1 28 29
f 1 29 30
f 1 30 31
f 1 31 32
f 1 32 33
f 1 33 2
f 34 66 67 35
f 35 67 68 36
f 36 68 69 37
f 37 69 70 38
f 38 70 71 39
f 39 71 72 40
f 40 72 73 41
f 41 73 74 42
f 42 74 75 43
f 43 75 76 44
f 44 76 77 45
f 45 77 78 46
f 46 78 79 47
f 47 79 80 48
f 48 80 81 49
f 49 81 82 50
f 50 82 83 51
f 51 83 84 52
f 52 84 85 53
f 53 85 86 54
f 54 86 87 55
f 55 87 88 56
f 56 88 89 57
f 57 89 90 58
f 58 90 91 59
f 59 91 92 60
f 60 92 93 61
f 61 93 94 62
f 62 94 95 63
f 63 95 96 64
f 64 96 97 65
f 65 97 66 34
f 66 98 99 67
f 67 99 100 68
f 68 100 101 69
f 69 101 102 70
f 70 102 103 71
f 71 103 104 72
f 72 104 105 73
f 73 105 106 74
f 74 106 107 75
f 75 107 108 76
f 76 108 109 77
f 77 109 110 78
f 78 110 111 79
f 79 111 112 80
f 80 112 113 81
f 81 113 114 82
f 82 114 115 83
f 83 115 116 84
f 84 116 117 85
f 85 117 118 86
f 86 118 119 87
f 87 119 120 88
f 88 120 121 89
f 89 121 122 90
f 90 122 123 91
f 91 123 124 92
f 92 124 125 93
f 93 125 126 94
f 94 126 127 95
f 95 127 128 96
f 96 128 129 97
f 97 129 98 66
f 130 162 163 131
f 131 163 164 132
f 132 164 165 133
f 133 165 166 134
f 134 166 167 135
f 135 167 168 136
f 136 168 169 137
f 137 169 170 138
f 138 170 171 139
f 139 171 172 140
f 140 172 173 141
f 141 173 174 142
f 142 174 175 143
f 143 175 176 144
f 144 176 177 145
f 145 177 178 146
f 146 178 179 147
f 147 179 180 148
f 148 180 181 149
f 149 181 182 150
f 150 182 183 151
f 151 183 184 152
f 152 184 185 153
f 153 185 186 154
f 154 186 187 155
f 155 187 188 156
f 156 188 189 157
f 157 189 190 158
f 158 190 191 159
f 159 191 192 160
f 160 192 193 161
f 161 193 162 130
f 705 706 738 737
f 704 705 737 736
f 703 704 736 735
f 702 703 735 734
f 701 702 734 733
f 700 701 733 732
f 699 700 732 731
f 698 699 731 730
f 697 698 730 729
f 696 697 729 728
f 695 696 728 727
f 694 695 727 726
f 693 694 726 725
f 692 693 725 724
f 691 692 724 723
f 690 691 723 722
f 689 690 722 721
f 688 689 721 720
f 687 688 720 719
f 686 687 719 718
f 685 686 718 717
f 684 685 717 716
f 683 684 716 715
f 682 683 715 714
f 681 682 714 713
f 680 681 713 712
f 679 680 712 711
f 678 679 711 710
f 677 678 710 709
f 675 677 709 708
f 707 738 706 676
f 708 707 676 675
f 162 194 195 163
f 163 195 196 164
f 164 196 197 165
f 165 197 198 166
f 166 198 199 167
f 167 199 200 168
f 168 200 201 169
f 169 201 202 170
f 170 202 203 171
f 171 203 204 172
f 172 204 205 173
f 173 205 206 174
f 174 206 207 175
f 175 207 208 176
f 176 208 209 177
f 177 209 210 178
f 178 210 211 179
f 179 211 212 180
f 180 212 213 181
f 181 213 214 182
f 182 214 215 183
f 183 215 216 184
f 184 216 217 185
f 185 217 218 186
f 186 218 219 187
f 187 219 220 188
f 188 220 221 189
f 189 221 222 190
f 190 222 223 191
f 191 223 224 192
f 192 224 225 193
f 193 225 194 162
f 673 738 707 611
f 671 737 738 673
f 669 736 737 671
f 667 735 736 669
f 665 734 735 667
f 663 733 734 665
f 661 732 733 663
f 659 731 732 661
f 657 730 731 659
f 655 729 730 657
f 653 728 729 655
f 651 727 728 653
f 649 726 727 651
f 647 725 726 649
f 645 724 725 647
f 643 723 724 645
f 641 722 723 643
f 639 721 722 641
f 637 720 721 639
f 635 719 720 637
f 633 718 719 635
f 631 717 718 633
f 629 716 717 631
f 627 715 716 629
f 625 714 715 627
f 623 713 714 625
f 621 712 713 623
f 619 711 712 621
f 617 710 711 619
f 615 709 710 617
f 612 708 709 615
f 611 707 708 612
f 194 226 227 195
f 195 227 228 196
f 196 228 229 197
f 197 229 230 198
f 198 230 231 199
f 199 231 232 200
f 200 232 233 201
f 201 233 234 202
f 202 234 235 203
f 203 235 236 204
f 204 236 237 205
f 205 237 238 206
f 206 238 239 207
f 207 239 240 208
f 208 240 241 209
f 209 241 242 210
f 210 242 243 211
f 211 243 244 212
f 212 244 245 213
f 213 245 246 214
f 214 246 247 215
f 215 247 248 216
f 216 248 249 217
f 217 249 250 218
f 218 250 251 219
f 219 251 252 220
f 220 252 253 221
f 221 253 254 222
f 222 254 255 223
f 223 255 256 224
f 224 256 257 225
f 225 257 226 194
f 161 130 676 706
f 160 161 706 705
f 159 160 705 704
f 158 159 704 703
f 157 158 703 702
f 156 157 702 701
f 155 156 701 700
f 154 155 700 699
f 153 154 699 698
f 152 153 698 697
f 151 152 697 696
f 150 151 696 695
f 149 150 695 694
f 148 149 694 693
f 147 148 693 692
f 146 147 692 691
f 145 146 691 690
f 144 145 690 689
f 143 144 689 688
f 142 143 688 687
f 141 142 687 686
f 140 141 686 685
f 139 140 685 684
f 138 139 684 683
f 137 138 683 682
f 136 137 682 681
f 135 136 681 680
f 134 135 680 679
f 133 134 679 678
f 132 133 678 677
f 131 132 677 675
f 130 131 675 676
f 613 674 673 611
f 671 673 674 672
f 669 671 672 670
f 667 669 670 668
f 665 667 668 666
f 663 665 666 664
f 661 663 664 662
f 659 661 662 660
f 657 659 660 658
f 655 657 658 656
f 653 655 656 654
f 651 653 654 652
f 649 651 652 650
f 647 649 650 648
f 645 647 648 646
f 643 645 646 644
f 641 643 644 642
f 639 641 642 640
f 637 639 640 638
f 635 637 638 636
f 633 635 636 634
f 631 633 634 632
f 629 631 632 630
f 627 629 630 628
f 625 627 628 626
f 623 625 626 624
f 621 623 624 622
f 619 621 622 620
f 617 619 620 618
f 615 617 618 616
f 612 615 616 614
f 614 613 611 612
f 226 258 259 227
f 227 259 260 228
f 228 260 261 229
f 229 261 262 230
f 230 262 263 231
f 231 263 264 232
f 232 264 265 233
f 233 265 266 234
f 234 266 267 235
f 235 267 268 236
f 236 268 269 237
f 237 269 270 238
f 238 270 271 239
f 239 271 272 240
f 240 272 273 241
f 241 273 274 242
f 242 274 275 243
f 243 275 276 244
f 244 276 277 245
f 245 277 278 246
f 246 278 279 247
f 247 279 280 248
f 248 280 281 249
f 249 281 282 250
f 250 282 283 251
f 251 283 284 252
f 252 284 285 253
f 253 285 286 254
f 254 286 287 255
f 255 287 288 256
f 256 288 289 257
f 257 289 258 226
f 290 322 291
f 291 322 292
f 292 322 293
f 293 322 294
f 294 322 295
f 295 322 296
f 296 322 297
f 297 322 298
f 298 322 299
f 299 322 300
f 300 322 301
f 301 322 302
f 302 322 303
f 303 322 304
f 304 322 305
f 305 322 306
f 306 322 307
f 307 322 308
f 308 322 309
f 309 322 310
f 310 322 311
f 311 322 312
f 312 322 313
f 313 322 314
f 314 322 315
f 315 322 316
f 316 322 317
f 317 322 318
f 318 322 319
f 319 322 320
f 320 322 321
f 321 322 290
f 324 356 355 323
f 290 291 355 356
f 323 355 357 325
f 291 292 357 355
f 325 357 358 326
f 292 293 358 357
f 326 358 359 327
f 293 294 359 358
f 327 359 360 328
f 294 295 360 359
f 328 360 361 329
f 295 296 361 360
f 329 361 362 330
f 296 297 362 361
f 330 362 363 331
f 297 298 363 362
f 331 363 364 332
f 298 299 364 363
f 332 364 365 333
f 299 300 365 364
f 333 365 366 334
f 300 301 366 365
f 334 366 367 335
f 301 302 367 366
f 335 367 368 336
f 302 303 368 367
f 336 368 369 337
f 303 304 369 368
f 337 369 370 338
f 304 305 370 369
f 338 370 371 339
f 305 306 371 370
f 339 371 372 340
f 306 307 372 371
f 340 372 373 341
f 307 308 373 372
f 341 373 374 342
f 308 309 374 373
f 342 374 375 343
f 309 310 375 374
f 343 375 376 344
f 310 311 376 375
f 344 376 377 345
f 311 312 377 376
f 345 377 378 346
f 312 313 378 377
f 346 378 379 347
f 313 314 379 378
f 347 379 380 348
f 314 315 380 379
f 348 380 381 349
f 315 316 381 380
f 349 381 382 350
f 316 317 382 381
f 350 382 383 351
f 317 318 383 382
f 351 383 384 352
f 318 319 384 383
f 352 384 385 353
f 319 320 385 384
f 353 385 386 354
f 320 321 386 385
f 354 386 356 324
f 321 290 356 386
f 387 324 323 388
f 388 323 325 389
f 389 325 326 390
f 390 326 327 391
f 391 327 328 392
f 392 328 329 393
f 393 329 330 394
f 394 330 331 395
f 395 331 332 396
f 396 332 333 397
f 397 333 334 398
f 398 334 335 399
f 399 335 336 400
f 400 336 337 401
f 401 337 338 402
f 402 338 339 403
f 403 339 340 404
f 404 340 341 405
f 405 341 342 406
f 406 342 343 407
f 407 343 344 408
f 408 344 345 409
f 409 345 346 410
f 410 346 347 411
f 411 347 348 412
f 412 348 349 413
f 413 349 350 414
f 414 350 351 415
f 415 351 352 416
f 416 352 353 417
f 417 353 354 418
f 418 354 324 387
f 259 258 419 420
f 260 259 420 421
f 261 260 421 422
f 262 261 422 423
f 263 262 423 424
f 264 263 424 425
f 265 264 425 426
f 266 265 426 427
f 267 266 427 428
f 268 267 428 429
f 269 268 429 430
f 270 269 430 431
f 271 270 431 432
f 272 271 432 433
f 273 272 433 434
f 274 273 434 435
f 275 274 435 436
f 276 275 436 437
f 277 276 437 438
f 278 277 438 439
f 279 278 439 440
f 280 279 440 441
f 281 280 441 442
f 282 281 442 443
f 283 282 443 444
f 284 283 444 445
f 285 284 445 446
f 286 285 446 447
f 287 286 447 448
f 288 287 448 449
f 289 288 449 450
f 258 289 450 419
f 451 452 387 388
f 388 389 453 451
f 389 390 454 453
f 390 391 455 454
f 391 392 456 455
f 392 393 457 456
f 393 394 458 457
f 394 395 459 458
f 395 396 460 459
f 396 397 461 460
f 397 398 462 461
f 398 399 463 462
f 399 400 464 463
f 400 401 465 464
f 401 402 466 465
f 402 403 467 466
f 403 404 468 467
f 404 405 469 468
f 405 406 470 469
f 406 407 471 470
f 407 408 472 471
f 408 409 473 472
f 409 410 474 473
f 410 411 475 474
f 411 412 476 475
f 412 413 477 476
f 413 414 478 477
f 414 415 479 478
f 415 416 480 479
f 416 417 481 480
f 417 418 482 481
f 452 482 418 387
f 452 451 420 419
f 451 453 421 420
f 453 454 422 421
f 454 455 423 422
f 455 456 424 423
f 456 457 425 424
f 457 458 426 425
f 458 459 427 426
f 459 460 428 427
f 460 461 429 428
f 461 462 430 429
f 462 463 431 430
f 463 464 432 431
f 464 465 433 432
f 465 466 434 433
f 466 467 435 434
f 467 468 436 435
f 468 469 437 436
f 469 470 438 437
f 470 471 439 438
f 471 472 440 439
f 472 473 441 440
f 473 474 442 441
f 474 475 443 442
f 475 476 444 443
f 476 477 445 444
f 477 478 446 445
f 478 479 447 446
f 479 480 448 447
f 480 481 449 448
f 481 482 450 449
f 419 450 482 452
f 3 2 485 486
f 4 3 486 488
f 5 4 488 490
f 6 5 490 492
f 7 6 492 494
f 8 7 494 496
f 9 8 496 498
f 10 9 498 500
f 11 10 500 502
f 12 11 502 504
f 13 12 504 506
f 14 13 506 508
f 15 14 508 510
f 16 15 510 512
f 17 16 512 514
f 18 17 514 516
f 19 18 516 518
f 20 19 518 520
f 21 20 520 522
f 22 21 522 524
f 23 22 524 526
f 24 23 526 528
f 25 24 528 530
f 26 25 530 532
f 27 26 532 534
f 28 27 534 536
f 29 28 536 538
f 30 29 538 540
f 31 30 540 542
f 32 31 542 544
f 33 32 544 546
f 2 33 546 485
f 486 485 483 484
f 484 487 488 486
f 487 489 490 488
f 489 491 492 490
f 491 493 494 492
f 493 495 496 494
f 495 497 498 496
f 497 499 500 498
f 499 501 502 500
f 501 503 504 502
f 503 505 506 504
f 505 507 508 506
f 507 509 510 508
f 509 511 512 510
f 511 513 514 512
f 513 515 516 514
f 515 517 518 516
f 517 519 520 518
f 519 521 522 520
f 521 523 524 522
f 523 525 526 524
f 525 527 528 526
f 527 529 530 528
f 529 531 532 530
f 531 533 534 532
f 533 535 536 534
f 535 537 538 536
f 537 539 540 538
f 539 541 542 540
f 541 543 544 542
f 543 545 546 544
f 485 546 545 483
f 34 35 547 548
f 35 36 549 547
f 36 37 550 549
f 37 38 551 550
f 38 39 552 551
f 39 40 553 552
f 40 41 554 553
f 41 42 555 554
f 42 43 556 555
f 43 44 557 556
f 44 45 558 557
f 45 46 559 558
f 46 47 560 559
f 47 48 561 560
f 48 49 562 561
f 49 50 563 562
f 50 51 564 563
f 51 52 565 564
f 52 53 566 565
f 53 54 567 566
f 54 55 568 567
f 55 56 569 568
f 56 57 570 569
f 57 58 571 570
f 58 59 572 571
f 59 60 573 572
f 60 61 574 573
f 61 62 575 574
f 62 63 576 575
f 63 64 577 576
f 64 65 578 577
f 65 34 548 578
f 483 579 580 484
f 484 580 581 487
f 487 581 582 489
f 489 582 583 491
f 491 583 584 493
f 493 584 585 495
f 495 585 586 497
f 497 586 587 499
f 499 587 588 501
f 501 588 589 503
f 503 589 590 505
f 505 590 591 507
f 507 591 592 509
f 509 592 593 511
f 511 593 594 513
f 513 594 595 515
f 515 595 596 517
f 517 596 597 519
f 519 597 598 521
f 521 598 599 523
f 523 599 600 525
f 525 600 601 527
f 527 601 602 529
f 529 602 603 531
f 531 603 604 533
f 533 604 605 535
f 535 605 606 537
f 537 606 607 539
f 539 607 608 541
f 541 608 609 543
f 543 609 610 545
f 545 610 579 483
f 580 579 548 547
f 579 610 578 548
f 547 549 581 580
f 549 550 582 581
f 550 551 583 582
f 551 552 584 583
f 552 553 585 584
f 553 554 586 585
f 554 555 587 586
f 555 556 588 587
f 556 557 589 588
f 557 558 590 589
f 558 559 591 590
f 559 560 592 591
f 560 561 593 592
f 561 562 594 593
f 562 563 595 594
f 563 564 596 595
f 564 565 597 596
f 565 566 598 597
f 566 567 599 598
f 567 568 600 599
f 568 569 601 600
f 569 570 602 601
f 570 571 603 602
f 571 572 604 603
f 572 573 605 604
f 573 574 606 605
f 574 575 607 606
f 575 576 608 607
f 576 577 609 608
f 577 578 610 609
f 99 98 613 614
f 100 99 614 616
f 101 100 616 618
f 102 101 618 620
f 103 102 620 622
f 104 103 622 624
f 105 104 624 626
f 106 105 626 628
f 107 106 628 630
f 108 107 630 632
f 109 108 632 634
f 110 109 634 636
f 111 110 636 638
f 112 111 638 640
f 113 112 640 642
f 114 113 642 644
f 115 114 644 646
f 116 115 646 648
f 117 116 648 650
f 118 117 650 652
f 119 118 652 654
f 120 119 654 656
f 121 120 656 658
f 122 121 658 660
f 123 122 660 662
f 124 123 662 664
f 125 124 664 666
f 126 125 666 668
f 127 126 668 670
f 128 127 670 672
f 129 128 672 674
f 98 129 674 613
g Group5484
f 793 792 822 819
g Group37339
f 792 793 777 776
g Group5481
f 826 825 824 823
g Group37339
f 781 782 766 765
g Group5481
f 830 829 828 827
g Group37339
f 755 756 804 803
g Group5484
f 794 793 819 831
g Group37339
f 793 794 778 777
g Group5481
f 827 828 834 833
g Group37339
f 756 757 805 804
g Group5484
f 800 799 838 835
g Group37339
f 799 800 784 783
g Group5481
f 833 834 840 839
g Group37339
f 757 758 806 805
g Group5481
f 839 840 842 841
g Group37339
f 758 759 807 806
g Group5481
f 846 845 844 843
g Group37339
f 785 786 770 769
g Group5481
f 841 842 848 847
g Group37339
f 759 760 808 807
g Group5484
f 795 794 831 849
g Group37339
f 794 795 779 778
g Group5481
f 847 848 852 851
g Group37339
f 760 761 809 808
g Group5484
f 789 788 856 853
g Group37339
f 788 789 773 772
g Group5484
f 791 790 860 857
g Group37339
f 790 791 775 774
g Group5481
f 851 852 862 861
g Group37339
f 761 762 810 809
g Group5481
f 861 862 864 863
g Group37339
f 762 763 811 810
g Group5481
f 850 863 866 865
g Group37339
f 779 780 764 763
g Group5481
f 863 864 867 866
g Group37339
f 763 764 812 811
g Group5484
f 790 789 853 860
g Group37339
f 789 790 774 773
g Group5481
f 866 867 868 825
g Group37339
f 764 765 813 812
g Group5484
f 792 791 857 822
g Group37339
f 791 792 776 775
g Group5481
f 825 868 869 824
g Group37339
f 765 766 814 813
g Group5484
f 797 796 871 870
g Group37339
f 796 797 781 780
g Group5481
f 824 869 873 872
g Group37339
f 766 767 815 814
g Group5481
f 823 824 872 837
g Group37339
f 782 783 767 766
g Group5484
f 798 797 870 874
g Group37339
f 797 798 782 781
g Group5481
f 872 873 876 875
g Group37339
f 767 768 816 815
g Group5484
f 801 800 835 877
g Group37339
f 800 801 785 784
g Group5481
f 875 876 878 845
g Group37339
f 768 769 817 816
g Group5484
f 787 802 881 879
g Group37339
f 802 787 771 786
g Group5481
f 845 878 882 844
g Group37339
f 769 770 818 817
g Group5481
f 844 882 829 830
g Group37339
f 770 755 803 818
g Group5481
f 836 875 845 846
g Group37339
f 784 785 769 768
g Group5481
f 865 866 825 826
g Group37339
f 780 781 765 764
g Group5481
f 880 830 827 855
g Group37339
f 771 772 756 755
g Group5484
f 796 795 849 871
g Group37339
f 795 796 780 779
g Group5481
f 855 827 833 854
g Group37339
f 772 773 757 756
g Group5481
f 837 872 875 836
g Group37339
f 783 784 768 767
g Group5481
f 854 833 839 859
g Group37339
f 773 774 758 757
g Group5481
f 859 839 841 858
g Group37339
f 774 775 759 758
g Group5484
f 802 801 877 881
g Group37339
f 801 802 786 785
g Group5481
f 858 841 847 821
g Group37339
f 775 776 760 759
g Group5481
f 843 844 830 880
g Group37339
f 786 771 755 770
g Group5481
f 821 847 851 820
g Group37339
f 776 777 761 760
g Group5484
f 788 787 879 856
g Group37339
f 787 788 772 771
g Group5484
f 799 798 874 838
g Group37339
f 798 799 783 782
g Group5481
f 820 851 861 832
g Group37339
f 777 778 762 761
g Group5481
f 832 861 863 850
g Group37339
f 778 779 763 762
g Group5481
f 829 899 900 828
g Group5484
f 739 740 883 884
g Group37339
f 803 804 740 739
g Group5481
f 828 900 901 834
g Group5484
f 740 741 885 883
g Group37339
f 804 805 741 740
g Group5481
f 834 901 902 840
g Group5484
f 741 742 886 885
g Group37339
f 805 806 742 741
g Group5481
f 840 902 903 842
g Group5484
f 742 743 887 886
g Group37339
f 806 807 743 742
g Group5481
f 842 903 904 848
g Group5484
f 743 744 888 887
g Group37339
f 807 808 744 743
g Group5481
f 848 904 905 852
g Group5484
f 744 745 889 888
g Group37339
f 808 809 745 744
g Group5481
f 852 905 906 862
g Group5484
f 745 746 890 889
g Group37339
f 809 810 746 745
g Group5481
f 862 906 907 864
g Group5484
f 746 747 891 890
g Group37339
f 810 811 747 746
g Group5481
f 864 907 908 867
g Group5484
f 747 748 892 891
g Group37339
f 811 812 748 747
g Group5481
f 867 908 909 868
g Group5484
f 748 749 893 892
g Group37339
f 812 813 749 748
g Group5481
f 868 909 910 869
g Group5484
f 749 750 894 893
g Group37339
f 813 814 750 749
g Group5481
f 869 910 911 873
g Group5484
f 750 751 895 894
g Group37339
f 814 815 751 750
g Group5481
f 873 911 912 876
g Group5484
f 751 752 896 895
g Group37339
f 815 816 752 751
g Group5481
f 876 912 913 878
g Group5484
f 752 753 897 896
g Group37339
f 816 817 753 752
g Group5481
f 878 913 914 882
g Group5484
f 753 754 898 897
g Group37339
f 817 818 754 753
g Group5481
f 882 914 899 829
g Group5484
f 754 739 884 898
g Group37339
f 818 803 739 754
g Group5481
f 918 917 916 915
g Group5484
f 900 899 918 915
f 884 883 916 917
g Group5481
f 915 916 920 919
g Group5484
f 901 900 915 919
f 883 885 920 916
g Group5481
f 919 920 922 921
g Group5484
f 902 901 919 921
f 885 886 922 920
g Group5481
f 921 922 924 923
g Group5484
f 903 902 921 923
f 886 887 924 922
g Group5481
f 923 924 926 925
g Group5484
f 904 903 923 925
f 887 888 926 924
g Group5481
f 925 926 928 927
g Group5484
f 905 904 925 927
f 888 889 928 926
g Group5481
f 927 928 930 929
g Group5484
f 906 905 927 929
f 889 890 930 928
g Group5481
f 929 930 932 931
g Group5484
f 907 906 929 931
f 890 891 932 930
g Group5481
f 931 932 934 933
g Group5484
f 908 907 931 933
f 891 892 934 932
g Group5481
f 933 934 936 935
g Group5484
f 909 908 933 935
f 892 893 936 934
g Group5481
f 935 936 938 937
g Group5484
f 910 909 935 937
f 893 894 938 936
g Group5481
f 937 938 940 939
g Group5484
f 911 910 937 939
f 894 895 940 938
g Group5481
f 939 940 942 941
g Group5484
f 912 911 939 941
f 895 896 942 940
g Group5481
f 941 942 944 943
g Group5484
f 913 912 941 943
f 896 897 944 942
g Group5481
f 943 944 946 945
g Group5484
f 914 913 943 945
f 897 898 946 944
g Group5481
f 945 946 917 918
g Group5484
f 899 914 945 918
f 898 884 917 946
g Group5481
f 950 949 948 947
g Group5484
f 819 822 950 947
f 821 820 948 949
g Group5481
f 947 948 952 951
g Group5484
f 831 819 947 951
f 820 832 952 948
g Group5481
f 956 955 954 953
g Group5484
f 835 838 956 953
f 837 836 954 955
g Group5481
f 951 952 958 957
g Group5484
f 849 831 951 957
f 832 850 958 952
g Group5481
f 962 961 960 959
g Group5484
f 853 856 962 959
f 855 854 960 961
g Group5481
f 966 965 964 963
g Group5484
f 857 860 966 963
f 859 858 964 965
g Group5481
f 959 960 965 966
g Group5484
f 860 853 959 966
f 854 859 965 960
g Group5481
f 963 964 949 950
g Group5484
f 822 857 963 950
f 858 821 949 964
g Group5481
f 970 969 968 967
g Group5484
f 870 871 970 967
f 865 826 968 969
g Group5481
f 967 968 972 971
g Group5484
f 874 870 967 971
f 826 823 972 968
g Group5481
f 953 954 974 973
g Group5484
f 877 835 953 973
f 836 846 974 954
g Group5481
f 978 977 976 975
g Group5484
f 879 881 978 975
f 843 880 976 977
g Group5481
f 957 958 969 970
g Group5484
f 871 849 957 970
f 850 865 969 958
g Group5481
f 973 974 977 978
g Group5484
f 881 877 973 978
f 846 843 977 974
g Group5481
f 975 976 961 962
g Group5484
f 856 879 975 962
f 880 855 961 976
g Group5481
f 971 972 955 956
g Group5484
f 838 874 971 956
f 823 837 955 972
g Group31341
f 1030 1029 993 994
f 979 995 1027 1028
f 1048 1026 1047
f 1030 995 996 1029
f 1017 1016 1042 1041
f 1048 1047 1025
f 982 1007 1008 983
f 1008 1039 1036 1013
f 991 1021 1022 1009
f 1041 1040 1017
f 985 1010 1023 1024
f 1024 1023 1031 1032
f 1035 1034 997 998
f 981 1011 1007 982
f 988 991 1009 1012
f 1025 1047 1032 1021
f 984 1013 1010 985
f 992 989 1014 1015
f 1034 999 1000 1038
f 1040 1028 986 1017
f 989 988 1012 1014
f 1021 1032 1031 1022
f 983 1008 1013 984
f 986 987 1016 1017
f 1041 1018 1040
f 1019 1042 1045 1011
f 979 1018 1019 980
f 1029 1043 1001 993
f 1016 1020 1045 1042
f 1029 996 1002 1043
f 1034 1038 1003 997
f 1014 1012 1036 1039
f 1038 1044 1004 1003
f 1020 1015 1046 1045
f 1038 1000 1005 1044
f 1018 1041 1042 1019
f 990 992 1015 1020
f 1035 1006 999 1034
f 1044 1048 1025 1004
f 1018 979 1028 1040
f 1028 1027 994 986
f 1027 1030 994
f 1044 1005 1026 1048
f 987 990 1020 1016
f 1023 1033 1031
f 980 1019 1011 981
f 1043 1035 998 1001
f 1043 1002 1006 1035
f 1015 1014 1039 1046
f 994 993 987 986
f 995 1030 1027
f 995 979 980 996
f 998 997 989 992
f 999 983 984 1000
f 993 1001 990 987
f 996 980 981 1002
f 997 1003 988 989
f 1003 1004 991 988
f 1000 984 985 1005
f 1006 982 983 999
f 1004 1025 1021 991
f 1022 1031 1033
f 1005 985 1024 1026
f 1001 998 992 990
f 1002 981 982 1006
f 1013 1036 1037 1010
f 1026 1024 1032 1047
f 1007 1046 1039 1008
f 1012 1009 1037 1036
f 1009 1022 1033 1037
f 1010 1037 1033 1023
f 1011 1045 1046 1007

 