# File exported by ZBrush version 2021
# www.zbrush.com
#Vertex Count 1564
#Face Count 1624
#Auto scale x=1.000000 y=1.000000 z=1.000000
#Auto offset x=0.000000 y=0.000000 z=0.000000
v 0.08480793 1.16061747 0.11932314
v 0.08167802 1.19119775 0.11929458
v 0.02930625 1.18267452 0.11881977
v 0.05546787 1.14644956 0.11905719
v 0.11683525 1.14815616 0.11961282
v 0.13512744 1.18562662 0.11977936
v 0.08526907 1.11445224 0.11932691
v 0.1166936 1.08478629 0.11961157
v 0.15081173 1.12591028 0.1199211
v 0.01927518 1.12260496 0.11872778
v 0.04981592 1.08621704 0.11900498
v 0.0811858 1.05039358 0.1192896
v 0.1140186 1.0162729 0.11958798
v 0.14993289 1.0579983 0.11991362
v 0.01295449 1.05760788 0.11867062
v 0.04480534 1.01974988 0.11896018
v 0.07776376 0.98110938 0.11925853
v 0.11114106 0.94361889 0.11956182
v 0.14805346 0.9874053 0.1198962
v 0.00734356 0.98929572 0.11861963
v 0.03959221 0.94994342 0.11891302
v 0.07223483 0.908719 0.11920879
v 0.10812304 0.8692159 0.11953948
v 0.14769178 0.91371083 0.11989374
v -0.00017662 0.91939258 0.11855247
v 0.03159465 0.87618452 0.11884088
v 0.06598128 0.82982534 0.11916899
v 0.10379237 0.7842952 0.11954812
v 0.14419765 0.83320367 0.11988
v 0.18528659 0.88437974 0.12023429
v 0.21938234 0.93127828 0.12054385
v 0.18326175 0.95928722 0.12021562
v 0.2548255 0.97518765 0.12086577
v 0.21942089 1.00346982 0.12054382
v 0.18430708 1.03110575 0.12022562
v 0.25584736 1.04865336 0.12087445
v 0.22019156 1.07574355 0.12055124
v 0.18497586 1.10154867 0.1202318
v 0.25704309 1.12315809 0.12088564
v 0.22035694 1.14803564 0.12055249
v 0.1832232 1.17012 0.12021565
v 0.25676715 1.20015037 0.12088315
v 0.20011822 1.21356082 0.12036857
v 0.13896708 1.22091567 0.11981421
v 0.20380993 1.25419366 0.12040211
v 0.14082539 1.25831818 0.11983154
v 0.07987187 1.25983822 0.11927844
v 0.0798856 1.22383225 0.11927844
v 0.01526149 1.25807714 0.11869172
v 0.01742561 1.2200458 0.1187116
v -0.05586721 1.25376629 0.11804662
v -0.04503443 1.21045732 0.11814481
v -0.01277954 1.1629008 0.11843814
v -0.08794312 1.18668711 0.11775575
v -0.05192314 1.13854408 0.1180827
v -0.01869624 1.0963689 0.11838345
v -0.09120598 1.11092197 0.11772593
v -0.05704931 1.06812226 0.11803542
v -0.02469874 1.02815496 0.11833004
v -0.09518113 1.0382694 0.11768989
v -0.0626205 0.99791741 0.11798574
v -0.030869 0.95858097 0.1182741
v -0.12977282 1.08090698 0.11737659
v -0.12874487 1.1585493 0.11738531
v -0.16842299 1.12803077 0.11702606
v -0.17085932 1.21343934 0.1170037
v -0.21255487 1.18315219 0.11662586
v -0.21956917 1.27956223 0.11656121
v -0.26853001 1.2500633 0.11611871
v -0.23030003 1.33746385 0.11646424
v -0.33723497 1.33746385 0.11549471
v -0.14178775 1.29028272 0.11726728
v -0.14183995 1.33746385 0.11726726
v -0.05872735 1.29528605 0.1180205
v -0.05962111 1.33746385 0.11801303
v 0.01396254 1.2974056 0.11868052
v 0.01355365 1.33746385 0.11867679
v 0.08098189 1.29814612 0.11928834
v 0.08716463 1.33746385 0.11934433
v 0.14217034 1.29744386 0.11984275
v 0.14271728 1.33746385 0.11984773
v 0.20575651 1.29547882 0.12041954
v 0.20639416 1.33746385 0.12042571
v 0.27497473 1.29207825 0.12104846
v 0.27553784 1.33746385 0.12105345
v 0.34936633 1.2875874 0.12172214
v 0.35083684 1.33746385 0.12173585
v 0.42975932 1.28014636 0.12245184
v 0.44025036 1.33746385 0.12254755
v 0.47940009 1.25043237 0.12290306
v 0.54779052 1.33746385 0.12352208
v 0.38215577 1.21021866 0.12202048
v 0.4213702 1.18097305 0.12237601
v 0.33501708 1.1486746 0.12159292
v 0.37226632 1.11985027 0.12192975
v 0.29369813 1.09635126 0.12121756
v 0.32978275 1.06805324 0.12154565
v 0.29141727 1.02052652 0.12119765
v 0.29666778 1.17545163 0.12124489
v 0.33967953 1.23499274 0.12163524
v 0.27351784 1.24713707 0.12103477
v -0.12555278 1.24088001 0.11741516
v 0.05750771 1.14644956 -0.10579458
v 0.03134608 1.18267452 -0.10603077
v 0.08371778 1.19119775 -0.10555592
v 0.08684893 1.16061747 -0.10552731
v 0.1371672 1.18562662 -0.10507115
v 0.1188751 1.14815616 -0.1052377
v 0.08730881 1.11445224 -0.1055236
v 0.15285144 1.12591028 -0.10492944
v 0.11873336 1.08478629 -0.10523897
v 0.05185573 1.08621704 -0.10584557
v 0.02131493 1.12260496 -0.10612273
v 0.08322553 1.05039358 -0.10556091
v 0.15197269 1.0579983 -0.10493692
v 0.11605843 1.0162729 -0.10526259
v 0.04684516 1.01974988 -0.1058903
v 0.01499423 1.05760788 -0.10617991
v 0.07980357 0.98110938 -0.10559199
v 0.1500933 0.9874053 -0.10495431
v 0.11318206 0.94361424 -0.10528869
v 0.04163195 0.94994223 -0.10593754
v 0.00938205 0.98929572 -0.10623088
v 0.07427585 0.90870273 -0.1056417
v 0.14973151 0.91369473 -0.10495679
v 0.11016657 0.86915528 -0.10531105
v 0.03363817 0.87616109 -0.10600964
v 0.00186186 0.91939157 -0.106298
v 0.06803102 0.82973706 -0.10568144
v 0.14624244 0.83311319 -0.10497047
v 0.10584458 0.78416484 -0.10530113
v 0.18732516 0.88435339 -0.10461622
v 0.18530276 0.95928722 -0.10463485
v 0.22142218 0.93127703 -0.1043067
v 0.2214619 1.00346982 -0.10430671
v 0.25686657 0.97518765 -0.10398475
v 0.18634687 1.03110575 -0.1046249
v 0.2222314 1.07574355 -0.10429927
v 0.25788709 1.04865336 -0.10397604
v 0.18701437 1.10154867 -0.10461872
v 0.22239667 1.14803564 -0.10429801
v 0.25908166 1.12315809 -0.10396488
v 0.185263 1.17012 -0.10463485
v 0.20215795 1.21356082 -0.10448197
v 0.25880688 1.20015037 -0.10396738
v 0.14100684 1.22091567 -0.10503634
v 0.14286515 1.25831818 -0.10501897
v 0.20584967 1.25419366 -0.10444841
v 0.08192533 1.22383225 -0.10557209
v 0.08191171 1.25983822 -0.1055721
v 0.01946537 1.2200458 -0.10613891
v 0.01730129 1.25807714 -0.1061588
v -0.0429946 1.21045732 -0.10670574
v -0.05382746 1.25376629 -0.10680389
v -0.01073975 1.1629008 -0.1064136
v -0.04988335 1.13854408 -0.10676784
v -0.08590331 1.18668711 -0.10709479
v -0.01665768 1.0963689 -0.10646706
v -0.05501076 1.06812226 -0.10681508
v -0.08916625 1.1109209 -0.1071246
v -0.02265896 1.02815496 -0.1065205
v -0.06058194 0.99791741 -0.10686481
v -0.09314131 1.03826797 -0.10716065
v -0.02883053 0.95858097 -0.10657644
v -0.12773425 1.08090698 -0.10747388
v -0.16638447 1.12803077 -0.10782442
v -0.12670512 1.1585493 -0.10746519
v -0.21051627 1.18315219 -0.10822467
v -0.1688196 1.21343815 -0.1078468
v -0.26649022 1.2500621 -0.10873308
v -0.2175306 1.2795608 -0.1082893
v -0.33519515 1.3374629 -0.10935583
v -0.22826021 1.3374629 -0.10838626
v -0.13980022 1.33746385 -0.10758326
v -0.13974802 1.29028272 -0.10758326
v -0.05758133 1.33746385 -0.10683745
v -0.0566876 1.29528605 -0.10683
v 0.01559339 1.33746385 -0.10617371
v 0.01600236 1.2974056 -0.10616998
v 0.08920443 1.33746385 -0.10550618
v 0.08302171 1.29814612 -0.10556214
v 0.14475701 1.33746385 -0.10500279
v 0.14421008 1.29744386 -0.10500777
v 0.20843391 1.33746385 -0.10442479
v 0.20779632 1.29547882 -0.10443098
v 0.2775776 1.33746385 -0.10379707
v 0.27701455 1.29207825 -0.10380205
v 0.35287669 1.33746385 -0.10311466
v 0.35140618 1.2875874 -0.10312832
v 0.44228997 1.3374629 -0.10230297
v 0.43179908 1.28014516 -0.10239869
v 0.54983037 1.3374629 -0.10132843
v 0.48143991 1.25043094 -0.10194747
v 0.42341131 1.18097436 -0.10247449
v 0.38419553 1.21021866 -0.10282999
v 0.3743062 1.11985027 -0.10292073
v 0.33705687 1.14867568 -0.1032576
v 0.33182257 1.06805157 -0.10330608
v 0.29573795 1.09635126 -0.10363299
v 0.29345712 1.02052521 -0.10365288
v 0.29870751 1.17545163 -0.10360565
v 0.34171938 1.23499274 -0.10321532
v 0.27555775 1.24713707 -0.10381574
v -0.12351307 1.24088001 -0.10743537
v 0.03942565 0.94994342 0.13722987
v -0.00034317 0.91939258 0.1368695
v 0.0314281 0.87618589 0.13715784
v 0.0720683 0.90872144 0.13752578
v 0.06581473 0.82983243 0.13748605
v 0.10795646 0.86922246 0.13785637
v 0.10362585 0.78430521 0.13786505
v 0.1440311 0.83321076 0.13819704
v 0.18512135 0.88438224 0.13855122
v 0.14752647 0.91371363 0.13821069
v 0.21921578 0.93127828 0.13886077
v 0.18309521 0.95928722 0.13853262
v 0.25465896 0.97518765 0.13918264
v 0.21925436 1.00346982 0.13886077
v -0.05721585 1.06812226 0.1363524
v -0.09534777 1.0382694 0.13600681
v -0.06278708 0.99791741 0.13630263
v -0.02486527 1.02815496 0.13664694
v -0.03103563 0.95858097 0.13659097
v 0.00717693 0.98929572 0.13693656
v -0.09137134 1.11092197 0.13604287
v -0.12993814 1.08090698 0.13569353
v -0.12891016 1.1585493 0.13570223
v -0.1685896 1.12803077 0.13534303
v -0.17102459 1.21343934 0.13532067
v -0.21272015 1.18315219 0.13494281
v -0.21973565 1.27956223 0.13487811
v -0.26869529 1.2500633 0.13443566
v -0.23046657 1.33746385 0.13478119
v -0.3374015 1.33746385 0.13381166
v -0.14195436 1.29028272 0.13558419
v -0.14200651 1.33746385 0.13558419
v -0.05889391 1.29528605 0.13633744
v -0.05978767 1.33746385 0.13633002
v 0.01379598 1.2974056 0.1369975
v 0.01338702 1.33746385 0.13699372
v 0.08081534 1.29814612 0.13760529
v 0.08699807 1.33746385 0.13766123
v 0.14200373 1.29744386 0.1381597
v 0.14255066 1.33746385 0.13816468
v 0.20558993 1.29547882 0.13873641
v 0.20622761 1.33746385 0.13874264
v 0.27480819 1.29207825 0.13936542
v 0.27537128 1.33746385 0.13937039
v 0.3491998 1.2875874 0.1400391
v 0.35067033 1.33746385 0.14005278
v 0.42959275 1.28014636 0.14076875
v 0.44008377 1.33746385 0.14086444
v 0.47923356 1.25043237 0.14122001
v 0.54762393 1.33746385 0.14183901
v 0.38198927 1.21021866 0.14033745
v 0.42120367 1.18097305 0.14069287
v 0.33485046 1.1486746 0.13990987
v 0.37209978 1.11985027 0.14024667
v 0.29353156 1.09635126 0.13953442
v 0.32961621 1.06805324 0.13986261
v 0.25568082 1.04865336 0.13919143
v 0.29125073 1.02052652 0.13951461
v 0.03381465 0.87615835 -0.12544658
v 0.00203841 0.91939157 -0.12573495
v 0.04180843 0.94994223 -0.12537449
v 0.07445241 0.90870034 -0.12507864
v 0.11034304 0.86914891 -0.12474799
v 0.06820879 0.82972943 -0.1251184
v 0.14641892 0.8331055 -0.12440741
v 0.10602232 0.78415352 -0.12473806
v 0.14990806 0.91369235 -0.12439373
v 0.18750166 0.88435113 -0.12405316
v 0.18547923 0.95928722 -0.12407179
v 0.22159868 0.93127703 -0.12374364
v 0.22163844 1.00346982 -0.12374365
v 0.25704309 0.97518765 -0.12342169
v -0.06040549 0.99791741 -0.12630176
v -0.09296484 1.03826797 -0.12659758
v -0.05483427 1.06812226 -0.12625205
v -0.02248242 1.02815496 -0.12595748
v 0.00955861 0.98929572 -0.12566781
v -0.02865397 0.95858097 -0.12601336
v -0.12755778 1.08090698 -0.12691083
v -0.08898969 1.1109209 -0.12656158
v -0.16620799 1.12803077 -0.12726137
v -0.12652854 1.1585493 -0.12690216
v -0.21033978 1.18315219 -0.12766161
v -0.16864295 1.21343815 -0.12728375
v -0.26631376 1.2500621 -0.12817001
v -0.21735405 1.2795608 -0.12772628
v -0.3350186 1.3374629 -0.12879276
v -0.22808378 1.3374629 -0.1278232
v -0.1396237 1.33746385 -0.12702021
v -0.13957151 1.29028272 -0.12702024
v -0.05740478 1.33746385 -0.1262744
v -0.05651114 1.29528605 -0.12626695
v 0.01576987 1.33746385 -0.12561065
v 0.01617885 1.2974056 -0.12560692
v 0.08938092 1.33746385 -0.12494315
v 0.08319817 1.29814612 -0.12499908
v 0.14493349 1.33746385 -0.12443973
v 0.14438657 1.29744386 -0.1244447
v 0.20861047 1.33746385 -0.12386173
v 0.20797275 1.29547882 -0.12386795
v 0.27775418 1.33746385 -0.12323401
v 0.27719104 1.29207825 -0.12323898
v 0.35305321 1.33746385 -0.1225516
v 0.35158267 1.2875874 -0.12256526
v 0.44246661 1.3374629 -0.12173991
v 0.43197566 1.28014516 -0.12183562
v 0.5500068 1.3374629 -0.12076539
v 0.4816164 1.25043094 -0.12138441
v 0.42358771 1.18097436 -0.12191145
v 0.38437214 1.21021866 -0.12226694
v 0.37448266 1.11985027 -0.1223577
v 0.33723339 1.14867568 -0.12269453
v 0.331999 1.06805157 -0.12274301
v 0.29591447 1.09635126 -0.12306994
v 0.29363352 1.02052521 -0.12308982
v 0.25806361 1.04865336 -0.123413
v 0.10538612 1.14455783 0.08760234
v 0.14829181 0.0400002 0.09945611
v -0.02545601 -0.74859511 0.07849286
v 0.3823325 -1.38925075 0.03848458
v 0.60777688 -2.08109974 0.04035942
v 0.63672149 -2.74665617 0.05387643
v 0.04120415 -3.08127641 0.05227561
v 0.09874926 1.14345455 -0.08661597
v 0.14111806 0.03917217 -0.07348922
v 0.6415801 -2.73684954 -0.12114072
v 0.61188089 -2.07106757 -0.13323497
v 0.04031658 -0.71038699 -0.13117325
v 0.04643285 -3.07161879 -0.123776
v 0.38710051 -1.38202381 -0.13385796
v 0.04698467 0.04099214 -0.07833327
v 0.01650802 1.13908827 -0.09519337
v 0.02298867 1.14019477 0.07915963
v 0.05380154 0.0419566 0.09519113
v 0.53767854 -2.11979413 -0.12661477
v 0.30320715 -1.41930747 -0.13121539
v 0.5333653 -2.12971949 0.04733811
v 0.55602699 -2.71330761 0.06530059
v -0.13570177 -0.76885628 -0.12584173
v -0.12970741 -0.78133094 0.07528941
v 0.56090879 -2.70358419 -0.10983078
v -0.01693135 -3.01139998 -0.11429932
v -0.02206969 -3.02101135 0.06159739
v 0.29807823 -1.4263761 0.04180692
v 0.46249559 -1.35897898 0.03410637
v 0.67828029 -2.03928613 0.03222043
v 0.09752044 -3.12642335 -0.13414621
v 0.0923983 -3.13603997 0.04171393
v 0.10182776 -0.71441507 0.07926882
v 0.71448308 -2.77024459 -0.13249531
v 0.70963108 -2.77997922 0.04256004
v 0.68256759 -2.02942156 -0.14183902
v 0.46758303 -1.35189437 -0.13888925
v 0.23771253 0.02936399 -0.07058101
v 0.21237492 1.12820971 -0.07975576
v 0.21886932 1.12941312 0.09476408
v 0.24455282 0.03032302 0.1029261
v 0.15011048 -0.66427683 -0.09815209
v -0.51821655 -2.97835946 -0.11905075
v -0.51817774 -3.07182169 -0.13633406
v -0.51862603 -3.08057665 0.04093621
v -0.51525831 -2.9892354 0.05893982
v -0.42541211 -2.93505477 -0.10902565
v -0.43297475 -2.93965482 0.06700576
v -0.00213488 1.14596724 -0.0181396
v 0.08276752 1.15001475 -0.00712452
v -0.15444332 0.0506798 -0.01425118
v -0.25864923 1.28395807 -0.01071158
v -0.84951251 -2.40704751 -0.00900219
v -0.88453102 -2.15626955 -0.00018879
v -0.5864259 -3.29357528 -0.0414093
v 0.38152718 -2.22429609 -0.03861711
v 0.1241732 -1.49964571 -0.05023258
v 0.88453102 -2.84440612 -0.04690818
v 0.22209087 -3.25340414 -0.05847444
v 0.39147019 -2.64634585 -0.03511846
v 0.84189534 -1.93107056 -0.03930289
v 0.19265981 1.13654148 0.00155196
v 0.45303005 1.26079833 0.04653985
v 0.45106101 0.01476752 0.02805833
v -0.3918313 -0.84107422 -0.0354475
v -0.0222738 -2.90472507 -0.0398641
v 0.28087362 -0.64054727 -0.0105627
v 0.64839083 -1.27928471 -0.03410649
v -0.693623 -2.35531854 -0.01721953
v -0.22818577 -2.86572599 -0.00637131
v 0.41430613 -1.37717747 0.03673826
v 0.63589763 -2.06442117 0.03711313
v -0.51820105 -3.01563763 -0.12594431
v 0.06680944 -3.0934782 -0.12791222
v 0.06162328 -3.10311985 0.04806299
v -0.51660144 -3.02566766 0.05175897
v -0.8705635 -2.25629401 -0.00370407
v 0.02531197 -0.73496186 0.07880233
v 0.67065787 -2.75016951 -0.12566959
v 0.66580188 -2.75994825 0.04936277
v 0.64007479 -2.05445623 -0.13666671
v 0.41920161 -1.37000632 -0.13586473
v 0.1265988 1.1446408 -0.00366386
v 0.1440697 1.13737416 -0.08387972
v 0.17964544 0.03525972 -0.07232925
v 0.15064963 1.13851714 0.09045884
v 0.18668615 0.03614032 0.10084007
v 0.08129645 -0.69687128 -0.12180128
v 0.1183729 3.10908103 0.0029775
v 0.1183729 3.10128927 -0.05347878
v 0.10193038 3.10128927 -0.05239364
v 0.0861168 3.10128927 -0.04918046
v 0.07154501 3.10128927 -0.04396355
v 0.0587718 3.10128927 -0.03694303
v 0.04829078 3.10128927 -0.02838739
v 0.04050083 3.10128927 -0.01862729
v 0.03570526 3.10128927 -0.00803683
v 0.03408568 3.10128927 0.0029775
v 0.03570526 3.10128927 0.01399177
v 0.04050083 3.10128927 0.02458222
v 0.04829078 3.10128927 0.03434352
v 0.0587718 3.10128927 0.04289795
v 0.07154501 3.10128927 0.04991972
v 0.0861168 3.10128927 0.05513665
v 0.10193038 3.10128927 0.05834983
v 0.1183729 3.10128927 0.05943369
v 0.1348167 3.10128927 0.05834983
v 0.15062904 3.10128927 0.05513665
v 0.16520206 3.10128927 0.04991972
v 0.17797404 3.10128927 0.04289795
v 0.18845628 3.10128927 0.03434352
v 0.1962462 3.10128927 0.02458222
v 0.20104174 3.10128927 0.01399177
v 0.20266141 3.10128927 0.0029775
v 0.20104174 3.10128927 -0.00803683
v 0.1962462 3.10128927 -0.01862729
v 0.18845628 3.10128927 -0.02838739
v 0.17797404 3.10128927 -0.03694303
v 0.16520206 3.10128927 -0.04396355
v 0.15062904 3.10128927 -0.04918046
v 0.1348167 3.10128927 -0.05239364
v 0.1183729 2.92800092 -0.06778707
v 0.09776132 2.92800092 -0.06642722
v 0.07794275 2.92800092 -0.06239987
v 0.059678 2.92800092 -0.0558604
v 0.04366673 2.92800092 -0.04705989
v 0.03052813 2.92800092 -0.03633767
v 0.02076555 2.92800092 -0.02410274
v 0.01475314 2.92800092 -0.01082738
v 0.01272325 2.92800092 0.00297749
v 0.01475314 2.92800092 0.0167823
v 0.02076555 2.92800092 0.03005766
v 0.03052813 2.92800092 0.04229262
v 0.04366673 2.92800092 0.05301481
v 0.059678 2.92800092 0.06181655
v 0.07794275 2.92800092 0.06835605
v 0.09776132 2.92800092 0.07238219
v 0.1183729 2.92800092 0.07374198
v 0.13898453 2.92800092 0.07238219
v 0.15880426 2.92800092 0.06835605
v 0.17707032 2.92800092 0.06181535
v 0.19308033 2.92800092 0.05301481
v 0.20621891 2.92800092 0.04229262
v 0.21598149 2.92800092 0.03005766
v 0.22199264 2.92800092 0.0167823
v 0.22402371 2.92800092 0.00297749
v 0.22199264 2.92800092 -0.01082738
v 0.21598149 2.92800092 -0.02410274
v 0.20621891 2.92800092 -0.03633767
v 0.19308033 2.92800092 -0.04705989
v 0.17706909 2.92800092 -0.0558604
v 0.15880426 2.92800092 -0.06239987
v 0.13898453 2.92800092 -0.06642722
v 0.1183729 2.75607752 -0.07643719
v 0.09524293 2.75607752 -0.07491076
v 0.07300181 2.75607752 -0.07039118
v 0.05250335 2.75607752 -0.06305245
v 0.03453562 2.75607752 -0.05317673
v 0.01979106 2.75607752 -0.04114316
v 0.00883388 2.75607752 -0.02741287
v 0.00208811 2.75607752 -0.0125154
v -0.00019032 2.75607752 0.0029775
v 0.00208811 2.75607752 0.01847033
v 0.00883388 2.75607752 0.03336781
v 0.01979106 2.75607752 0.0470981
v 0.03453688 2.75607752 0.05913169
v 0.05250335 2.75607752 0.06900738
v 0.07300181 2.75607752 0.07634736
v 0.09524293 2.75607752 0.08086571
v 0.1183729 2.75607752 0.08239211
v 0.14150404 2.75607752 0.08086571
v 0.1637465 2.75607752 0.07634736
v 0.18424369 2.75607752 0.06900738
v 0.20221145 2.75607752 0.05913169
v 0.21695601 2.75607752 0.0470981
v 0.22791194 2.75607752 0.03336781
v 0.23465897 2.75607752 0.01847033
v 0.23693738 2.75607752 0.0029775
v 0.23465897 2.75607752 -0.0125154
v 0.22791194 2.75607752 -0.02741287
v 0.21695601 2.75607752 -0.04114316
v 0.20221015 2.75607752 -0.05317673
v 0.18424369 2.75607752 -0.06305245
v 0.16374525 2.75607752 -0.07039118
v 0.14150404 2.75607752 -0.07491076
v 0.1183729 2.58808231 -0.08176845
v 0.09368921 2.58808231 -0.08014012
v 0.06995394 2.58808231 -0.07531723
v 0.04807942 2.58808231 -0.06748626
v 0.02890602 2.58808231 -0.05694678
v 0.01317201 2.58808231 -0.04410526
v 0.00148029 2.58808231 -0.02945265
v -0.00572049 2.58808231 -0.01355581
v -0.00815178 2.58808231 0.0029775
v -0.00572049 2.58808231 0.01951073
v 0.00148029 2.58808231 0.03540885
v 0.01317201 2.58808231 0.05006016
v 0.02890602 2.58808231 0.06290298
v 0.04807942 2.58808231 0.07344245
v 0.06995394 2.58808231 0.08127337
v 0.09368921 2.58808231 0.08609508
v 0.1183729 2.58808231 0.08772461
v 0.14305785 2.58808231 0.08609508
v 0.16679187 2.58808231 0.08127337
v 0.18866758 2.58808231 0.07344245
v 0.20783977 2.58808231 0.06290298
v 0.22357507 2.58808231 0.05006016
v 0.23526677 2.58808231 0.03540885
v 0.24246749 2.58808231 0.01951073
v 0.24489763 2.58808231 0.0029775
v 0.24246749 2.58808231 -0.01355581
v 0.23526677 2.58808231 -0.02945265
v 0.22357507 2.58808231 -0.04410526
v 0.20783977 2.58808231 -0.05694678
v 0.18866758 2.58808231 -0.06748626
v 0.16679187 2.58808231 -0.07531723
v 0.14305785 2.58808231 -0.08014012
v 0.1183729 2.42377185 -0.08526754
v 0.09266997 2.42377185 -0.08357206
v 0.06795515 2.42377185 -0.07855027
v 0.04517824 2.42377185 -0.0703949
v 0.0252143 2.42377185 -0.05942162
v 0.0088289 2.42377185 -0.04604806
v -0.0033463 2.42377185 -0.03079262
v -0.01084293 2.42377185 -0.01423823
v -0.01337496 2.42377185 0.00297749
v -0.01084293 2.42377185 0.02019317
v -0.0033463 2.42377185 0.03674759
v 0.0088289 2.42377185 0.05200432
v 0.0252143 2.42377185 0.06537656
v 0.04517824 2.42377185 0.07635107
v 0.06795515 2.42377185 0.08450518
v 0.09266997 2.42377185 0.08952702
v 0.1183729 2.42377185 0.09122248
v 0.14407585 2.42377185 0.08952702
v 0.16879057 2.42377185 0.08450518
v 0.19156874 2.42377185 0.07635107
v 0.21153277 2.42377185 0.06537656
v 0.22791819 2.42377185 0.05200432
v 0.24009221 2.42377185 0.03674759
v 0.24758876 2.42377185 0.02019317
v 0.25012075 2.42377185 0.00297749
v 0.24758876 2.42377185 -0.01423823
v 0.24009221 2.42377185 -0.03079262
v 0.22791819 2.42377185 -0.04604806
v 0.21153277 2.42377185 -0.05942162
v 0.19156874 2.42377185 -0.0703949
v 0.16879057 2.42377185 -0.07855027
v 0.14407585 2.42377185 -0.08357206
v 0.1183729 2.26198005 -0.08760935
v 0.09198879 2.26198005 -0.0858679
v 0.06661771 2.26198005 -0.08071439
v 0.04323547 2.26198005 -0.0723427
v 0.02274071 2.26198005 -0.0610773
v 0.00592149 2.26198005 -0.04734951
v -0.00657689 2.26198005 -0.03168881
v -0.01427236 2.26198005 -0.01469565
v -0.01687151 2.26198005 0.0029775
v -0.01427236 2.26198005 0.02065058
v -0.00657689 2.26198005 0.03764377
v 0.00592149 2.26198005 0.05330567
v 0.02274071 2.26198005 0.06703226
v 0.04323547 2.26198005 0.0782976
v 0.06661771 2.26198005 0.08666937
v 0.09198879 2.26198005 0.09182407
v 0.1183729 2.26198005 0.09356428
v 0.14475826 2.26198005 0.09182407
v 0.17012938 2.26198005 0.08666937
v 0.19351159 2.26198005 0.0782976
v 0.21400632 2.26198005 0.06703226
v 0.23082554 2.26198005 0.05330567
v 0.24332396 2.26198005 0.03764377
v 0.25101947 2.26198005 0.02065058
v 0.25361737 2.26198005 0.0029775
v 0.25101947 2.26198005 -0.01469565
v 0.24332396 2.26198005 -0.03168881
v 0.23082554 2.26198005 -0.04734951
v 0.21400632 2.26198005 -0.0610773
v 0.19351159 2.26198005 -0.0723427
v 0.17012938 2.26198005 -0.08071439
v 0.14475826 2.26198005 -0.08586917
v 0.1183729 2.1015408 -0.08902886
v 0.09157484 2.1015408 -0.08726133
v 0.06580597 2.1015408 -0.0820245
v 0.04205834 2.1015408 -0.07352232
v 0.02124284 2.1015408 -0.06208041
v 0.00415898 2.1015408 -0.04813757
v -0.00853343 2.1015408 -0.03223201
v -0.01635065 2.1015408 -0.01497157
v -0.01899082 2.1015408 0.0029775
v -0.01635065 2.1015408 0.02092777
v -0.00853343 2.1015408 0.03818696
v 0.00416018 2.1015408 0.05409379
v 0.02124284 2.1015408 0.0680366
v 0.04205834 2.1015408 0.07947722
v 0.06580597 2.1015408 0.08798067
v 0.09157484 2.1015408 0.09321498
v 0.1183729 2.1015408 0.09498377
v 0.14517097 2.1015408 0.09321498
v 0.17093977 2.1015408 0.08798067
v 0.19468875 2.1015408 0.07947722
v 0.21550427 2.1015408 0.0680366
v 0.23258814 2.1015408 0.05409379
v 0.24528051 2.1015408 0.03818696
v 0.25309771 2.1015408 0.02092777
v 0.25573664 2.1015408 0.0029775
v 0.25309771 2.1015408 -0.01497157
v 0.24528051 2.1015408 -0.03223201
v 0.23258684 2.1015408 -0.04813881
v 0.21550427 2.1015408 -0.06208041
v 0.19468875 2.1015408 -0.07352232
v 0.17093977 2.1015408 -0.0820245
v 0.14517097 2.1015408 -0.08726133
v 0.1183729 1.94161534 -0.08958574
v 0.09141328 1.94161534 -0.087807
v 0.06548778 1.94161534 -0.08254035
v 0.04159595 1.94161534 -0.07398597
v 0.02065369 1.94161534 -0.06247445
v 0.0034678 1.94161534 -0.04844708
v -0.00930284 1.94161534 -0.03244458
v -0.01716736 1.94161534 -0.01507973
v -0.01982241 1.94161534 0.0029775
v -0.01716736 1.94161534 0.02103591
v -0.00930284 1.94161534 0.03840075
v 0.0034678 1.94161534 0.05440326
v 0.02065369 1.94161534 0.06842938
v 0.04159595 1.94161534 0.07994212
v 0.06548778 1.94161534 0.08849525
v 0.09141328 1.94161534 0.09376315
v 0.1183729 1.94161534 0.09554192
v 0.14533381 1.94161534 0.09376315
v 0.17125923 1.94161534 0.08849525
v 0.19515115 1.94161534 0.07994212
v 0.2160934 1.94161534 0.06842938
v 0.23327924 1.94161534 0.05440326
v 0.24604986 1.94161534 0.03840075
v 0.25391441 1.94161534 0.02103591
v 0.2565695 1.94161534 0.0029775
v 0.25391441 1.94161534 -0.01507973
v 0.24604986 1.94161534 -0.03244458
v 0.23327924 1.94161534 -0.04844833
v 0.2160934 1.94161534 -0.06247445
v 0.19515115 1.94161534 -0.07398597
v 0.17125923 1.94161534 -0.08254035
v 0.14533381 1.94161534 -0.087807
v 0.1183729 1.78171324 -0.0892924
v 0.09149781 1.78171324 -0.08751986
v 0.06565558 1.78171324 -0.08226938
v 0.04183954 1.78171324 -0.07374233
v 0.02096441 1.78171324 -0.06226811
v 0.00383205 1.78171324 -0.04828549
v -0.00889886 1.78171324 -0.03233271
v -0.01673723 1.78171324 -0.01502258
v -0.01938489 1.78171324 0.0029775
v -0.01673723 1.78171324 0.02097871
v -0.00889886 1.78171324 0.03828762
v 0.00383205 1.78171324 0.05424042
v 0.02096441 1.78171324 0.06822304
v 0.04183954 1.78171324 0.07969851
v 0.06565558 1.78171324 0.0882243
v 0.09149781 1.78171324 0.0934748
v 0.1183729 1.78171324 0.09524858
v 0.14524801 1.78171324 0.0934748
v 0.17109014 1.78171324 0.0882243
v 0.19490753 1.78171324 0.07969851
v 0.21578265 1.78171324 0.06822304
v 0.23291504 1.78171324 0.05424042
v 0.24564594 1.78171324 0.03828762
v 0.2534843 1.78171324 0.02097871
v 0.25613078 1.78171324 0.0029775
v 0.2534843 1.78171324 -0.01502378
v 0.24564594 1.78171324 -0.03233271
v 0.23291504 1.78171324 -0.04828549
v 0.21578265 1.78171324 -0.06226811
v 0.19490753 1.78171324 -0.07374233
v 0.17109014 1.78171324 -0.08226938
v 0.14524801 1.78171324 -0.08751986
v 0.1183729 1.62124347 -0.08813764
v 0.09183461 1.62124347 -0.08638623
v 0.06631565 1.62124347 -0.08120163
v 0.04279664 1.62124347 -0.07278149
v 0.02218385 1.62124347 -0.06145021
v 0.0052652 1.62124347 -0.04764285
v -0.00730535 1.62124347 -0.03189019
v -0.01504552 1.62124347 -0.01479759
v -0.0176596 1.62124347 0.0029775
v -0.01504552 1.62124347 0.02075375
v -0.00730535 1.62124347 0.0378464
v 0.0052652 1.62124347 0.05359776
v 0.02218385 1.62124347 0.0674064
v 0.04279664 1.62124347 0.07873642
v 0.06631565 1.62124347 0.08715777
v 0.09183461 1.62124347 0.09234239
v 0.1183729 1.62124347 0.09409257
v 0.14491237 1.62124347 0.09234239
v 0.17043134 1.62124347 0.08715777
v 0.19395043 1.62124347 0.07873642
v 0.21456323 1.62124347 0.0674064
v 0.23148186 1.62124347 0.05359776
v 0.24405241 1.62124347 0.0378464
v 0.25179261 1.62124347 0.02075375
v 0.25440666 1.62124347 0.0029775
v 0.25179261 1.62124347 -0.01479759
v 0.24405241 1.62124347 -0.03189019
v 0.23148186 1.62124347 -0.04764285
v 0.21456323 1.62124347 -0.06145021
v 0.19395043 1.62124347 -0.07278149
v 0.17043134 1.62124347 -0.08120163
v 0.14491237 1.62124347 -0.08638623
v 0.1183729 1.45934486 -0.08605682
v 0.09244126 1.45934486 -0.08434519
v 0.06750521 1.45934486 -0.0792787
v 0.04452321 1.45934486 -0.07105121
v 0.02438022 1.45934486 -0.05997849
v 0.00784943 1.45934486 -0.04648686
v -0.00443394 1.45934486 -0.03109467
v -0.01199768 1.45934486 -0.01439109
v -0.01455333 1.45934486 0.0029775
v -0.01199768 1.45934486 0.02034729
v -0.00443394 1.45934486 0.03704959
v 0.00784943 1.45934486 0.05244304
v 0.02438022 1.45934486 0.06593467
v 0.04452321 1.45934486 0.07700614
v 0.06750521 1.45934486 0.08523482
v 0.09244126 1.45934486 0.09030138
v 0.1183729 1.45934486 0.09201179
v 0.14430584 1.45934486 0.09030138
v 0.16924187 1.45934486 0.08523482
v 0.19222389 1.45934486 0.07700614
v 0.21236559 1.45934486 0.06593467
v 0.22889763 1.45934486 0.05244304
v 0.24118103 1.45934486 0.03704959
v 0.24874469 1.45934486 0.02034729
v 0.25130033 1.45934486 0.0029775
v 0.24874469 1.45934486 -0.01439109
v 0.24118103 1.45934486 -0.03109467
v 0.22889763 1.45934486 -0.04648686
v 0.21236559 1.45934486 -0.05997849
v 0.19222389 1.45934486 -0.07105121
v 0.16924187 1.45934486 -0.0792787
v 0.14430584 1.45934486 -0.08434519
v 0.1183729 1.29480528 -0.08280513
v 0.09338716 1.29480528 -0.0811569
v 0.069361 1.29480528 -0.07627559
v 0.0472205 1.29480528 -0.06834892
v 0.02781217 1.29480528 -0.05768017
v 0.01188427 1.29480528 -0.04468077
v 0.00004957 1.29480528 -0.02985041
v -0.0072382 1.29480528 -0.01375842
v -0.00969938 1.29480528 0.00297748
v -0.0072382 1.29480528 0.01971334
v 0.00004957 1.29480528 0.03580534
v 0.01188427 1.29480528 0.05063566
v 0.02781217 1.29480528 0.06363509
v 0.0472205 1.29480528 0.07430382
v 0.069361 1.29480528 0.08223176
v 0.09338716 1.29480528 0.08711305
v 0.1183729 1.29480528 0.0887613
v 0.14335982 1.29480528 0.08711305
v 0.16738474 1.29480528 0.08223176
v 0.18952775 1.29480528 0.07430382
v 0.20893362 1.29480528 0.06363509
v 0.22486156 1.29480528 0.05063566
v 0.23669751 1.29480528 0.03580534
v 0.24398531 1.29480528 0.01971334
v 0.2464464 1.29480528 0.00297748
v 0.24398531 1.29480528 -0.01375842
v 0.23669751 1.29480528 -0.02985041
v 0.22486156 1.29480528 -0.04468077
v 0.20893362 1.29480528 -0.05768017
v 0.18952775 1.29480528 -0.06834892
v 0.16738474 1.29480528 -0.07627559
v 0.14335982 1.29480528 -0.0811569
v 0.1183729 0.77907687 -0.05442224
v 0.1016544 0.77907687 -0.05331968
v 0.08557862 0.77907687 -0.05005306
v 0.07076188 0.77907687 -0.04474913
v 0.05777494 0.77907687 -0.03761052
v 0.04711861 0.77907687 -0.02891194
v 0.03919939 0.77907687 -0.01898898
v 0.03432179 0.77907687 -0.00822082
v 0.0326748 0.77907687 0.0029775
v 0.03432179 0.77907687 0.01417573
v 0.03919939 0.77907687 0.02494394
v 0.04711861 0.77907687 0.03486812
v 0.05777494 0.77907687 0.04356673
v 0.07076188 0.77907687 0.05070404
v 0.08557862 0.77907687 0.05600923
v 0.1016544 0.77907687 0.05927588
v 0.1183729 0.77907687 0.06037835
v 0.13509261 0.77907687 0.05927588
v 0.15116848 0.77907687 0.05600923
v 0.1659839 0.77907687 0.05070404
v 0.17897088 0.77907687 0.04356673
v 0.18962846 0.77907687 0.03486812
v 0.19754762 0.77907687 0.02494394
v 0.20242527 0.77907687 0.01417573
v 0.20407094 0.77907687 0.0029775
v 0.20242527 0.77907687 -0.00822082
v 0.19754762 0.77907687 -0.01898898
v 0.18962846 0.77907687 -0.02891194
v 0.17897088 0.77907687 -0.03761052
v 0.1659839 0.77907687 -0.04474913
v 0.15116848 0.77907687 -0.05005306
v 0.13509261 0.77907687 -0.05331968
v 0.1183729 0.77081716 0.0029775
v 0.1183729 3.02215886 -0.06001206
v 0.10002607 3.02215886 -0.0588026
v 0.08238403 3.02215886 -0.05521776
v 0.06612546 3.02215886 -0.04939674
v 0.05187559 3.02215886 -0.0415633
v 0.0401801 3.02215886 -0.032017
v 0.031489 3.02215886 -0.02112697
v 0.02613658 3.02215886 -0.00931091
v 0.0243305 3.02215886 0.0029775
v 0.02613658 3.02215886 0.01526584
v 0.031489 3.02215886 0.02708315
v 0.0401801 3.02215886 0.03797318
v 0.05187559 3.02215886 0.04751817
v 0.06612546 3.02215886 0.05535167
v 0.08238403 3.02215886 0.06117269
v 0.10002607 3.02215886 0.06475754
v 0.1183729 3.02215886 0.06596823
v 0.13672094 3.02215886 0.06475754
v 0.15436181 3.02215886 0.06117269
v 0.17062036 3.02215886 0.05535167
v 0.18487139 3.02215886 0.04751817
v 0.19656698 3.02215886 0.03797318
v 0.20525682 3.02215886 0.02708315
v 0.21060916 3.02215886 0.01526584
v 0.2124165 3.02215886 0.0029775
v 0.21060916 3.02215886 -0.00931091
v 0.20525682 3.02215886 -0.02112697
v 0.19656698 3.02215886 -0.032017
v 0.18487139 3.02215886 -0.0415633
v 0.17062036 3.02215886 -0.04939674
v 0.15436181 3.02215886 -0.05521776
v 0.13672094 3.02215886 -0.0588026
v 0.09750399 3.10537242 -0.06729733
v 0.09560094 3.0262413 -0.07370505
v 0.1183729 3.0262413 -0.07520785
v 0.1183729 3.10537242 -0.06867333
v 0.07743562 3.10537242 -0.06321902
v 0.07370286 3.0262413 -0.06925632
v 0.05894088 3.10537242 -0.05659749
v 0.05352132 3.0262413 -0.06203069
v 0.04273077 3.10537242 -0.0476876
v 0.03583329 3.0262413 -0.05230788
v 0.02942806 3.10537242 -0.03682991
v 0.02131618 3.0262413 -0.0404595
v 0.01954242 3.10537242 -0.02444209
v 0.0105294 3.0262413 -0.02694301
v 0.01345415 3.10537242 -0.01100014
v 0.00388671 3.0262413 -0.0122755
v 0.01139824 3.10537242 0.0029775
v 0.00164432 3.0262413 0.00297749
v 0.01345415 3.10537242 0.01695635
v 0.00388671 3.0262413 0.0182317
v 0.01954242 3.10537242 0.03039702
v 0.0105294 3.0262413 0.03289794
v 0.02942806 3.10537242 0.04278487
v 0.02131618 3.0262413 0.04641567
v 0.04273077 3.10537242 0.05364251
v 0.03583329 3.0262413 0.05826282
v 0.05894088 3.10537242 0.0625537
v 0.05352132 3.0262413 0.06798689
v 0.07743562 3.10537242 0.06917519
v 0.07370286 3.0262413 0.07521124
v 0.09750399 3.10537242 0.07325226
v 0.09560094 3.0262413 0.07966123
v 0.1183729 3.10537242 0.07462953
v 0.1183729 3.0262413 0.08116278
v 0.13924302 3.10537242 0.07325226
v 0.14114604 3.0262413 0.07966123
v 0.15931019 3.10537242 0.06917519
v 0.16304414 3.0262413 0.07521124
v 0.17780493 3.10537242 0.0625537
v 0.18322446 3.0262413 0.06798689
v 0.19401627 3.10537242 0.05364251
v 0.20091371 3.0262413 0.05826282
v 0.207319 3.10537242 0.04278487
v 0.21542961 3.0262413 0.04641567
v 0.21720458 3.10537242 0.03039702
v 0.2262177 3.0262413 0.03289794
v 0.22329291 3.10537242 0.01695635
v 0.23285912 3.0262413 0.0182317
v 0.22534757 3.10537242 0.0029775
v 0.23510274 3.0262413 0.00297749
v 0.22329291 3.10537242 -0.01100014
v 0.23285912 3.0262413 -0.0122755
v 0.21720458 3.10537242 -0.02444209
v 0.2262177 3.0262413 -0.02694301
v 0.207319 3.10537242 -0.03682991
v 0.21542961 3.0262413 -0.0404595
v 0.19401627 3.10537242 -0.0476876
v 0.20091371 3.0262413 -0.05230788
v 0.17780493 3.10537242 -0.05659749
v 0.18322446 3.0262413 -0.06203069
v 0.15931019 3.10537242 -0.06321902
v 0.16304414 3.0262413 -0.06925632
v 0.13924302 3.10537242 -0.06729733
v 0.14114604 3.0262413 -0.07370505
v 0.08971901 1.45893478 -0.10466221
v 0.09066624 1.2943964 -0.10147263
v 0.1183729 1.29440009 -0.10330109
v 0.1183729 1.45893955 -0.1065528
v 0.06199372 1.45892107 -0.09902762
v 0.06385076 1.29438281 -0.09602452
v 0.03609808 1.45889842 -0.08975726
v 0.03879537 1.29435992 -0.08705373
v 0.01289602 1.45886659 -0.0770015
v 0.01632681 1.29432797 -0.07470194
v -0.00677204 1.45882642 -0.06094804
v -0.00273722 1.29428792 -0.05914318
v -0.02200885 1.45878481 -0.04185416
v -0.0175241 1.29424464 -0.04060991
v -0.03180877 1.45874822 -0.02020965
v -0.02704926 1.29420983 -0.01957568
v -0.03521961 1.45873463 0.0029775
v -0.03036566 1.29419624 0.00297749
v -0.03180877 1.45874822 0.02616582
v -0.02704926 1.29420983 0.02553188
v -0.02200885 1.45878481 0.04780912
v -0.0175241 1.29424464 0.04656484
v -0.00677204 1.45882642 0.06690423
v -0.00273722 1.29428792 0.06509812
v 0.01289602 1.45886659 0.08295647
v 0.01632681 1.29432797 0.08065809
v 0.03609808 1.45889842 0.0957122
v 0.03879537 1.29435992 0.09300865
v 0.06199372 1.45892107 0.10498385
v 0.06385076 1.29438281 0.1019807
v 0.08971901 1.45893478 0.11061714
v 0.09066624 1.2943964 0.10742881
v 0.1183729 1.45893955 0.11250777
v 0.1183729 1.29440009 0.10925729
v 0.14702674 1.45893478 0.11061714
v 0.14608082 1.2943964 0.10742881
v 0.17475207 1.45892107 0.10498385
v 0.17289631 1.29438281 0.1019807
v 0.20064902 1.45889842 0.0957122
v 0.19795286 1.29435992 0.09300865
v 0.22385093 1.45886659 0.08295647
v 0.22041899 1.29432797 0.08065809
v 0.24351912 1.45882642 0.06690423
v 0.23948304 1.29428792 0.06509812
v 0.25875473 1.45878481 0.04780912
v 0.25427115 1.29424464 0.04656484
v 0.26855585 1.45874822 0.02616582
v 0.26379635 1.29420983 0.02553188
v 0.27196657 1.45873463 0.0029775
v 0.26711276 1.29419624 0.00297749
v 0.26855585 1.45874822 -0.02020965
v 0.26379635 1.29420983 -0.01957568
v 0.25875473 1.45878481 -0.04185416
v 0.25427115 1.29424464 -0.04060991
v 0.24351912 1.45882642 -0.06094804
v 0.23948304 1.29428792 -0.05914318
v 0.22385093 1.45886659 -0.0770015
v 0.22041899 1.29432797 -0.07470194
v 0.20064902 1.45889842 -0.08975726
v 0.19795286 1.29435992 -0.08705373
v 0.17475207 1.45892107 -0.09902762
v 0.17289631 1.29438281 -0.09602452
v 0.14702674 1.45893478 -0.10466221
v 0.14608082 1.2943964 -0.10147263
v 0.13986825 3.07939076 -0.06940174
v 0.1183729 3.07939076 -0.07081878
v 0.16053579 3.07939076 -0.06520161
v 0.17958493 3.07939076 -0.05838122
v 0.19628103 3.07939076 -0.04920407
v 0.20998147 3.07939076 -0.03802197
v 0.22016422 3.07939076 -0.02526371
v 0.22643405 3.07939076 -0.01141905
v 0.22855079 3.07939076 0.00297748
v 0.22643405 3.07939076 0.01737526
v 0.22016422 3.07939076 0.03121863
v 0.09687876 3.07939076 -0.06940174
v 0.07621005 3.07939076 -0.06520161
v 0.05716215 3.07939076 -0.05838122
v 0.040466 3.07939076 -0.04920407
v 0.02676434 3.07939076 -0.03802197
v 0.01658286 3.07939076 -0.02526371
v 0.01031306 3.07939076 -0.01141905
v 0.00819626 3.07939076 0.00297748
v 0.01031306 3.07939076 0.01737526
v 0.01658286 3.07939076 0.03121863
v 0.02676434 3.07939076 0.04397688
v 0.040466 3.07939076 0.05515903
v 0.05716215 3.07939076 0.0643374
v 0.07621005 3.07939076 0.07115654
v 0.09687876 3.07939076 0.07535667
v 0.1183729 3.07939076 0.07677491
v 0.13986825 3.07939076 0.07535667
v 0.16053579 3.07939076 0.07115654
v 0.17958493 3.07939076 0.0643374
v 0.19628103 3.07939076 0.05515903
v 0.20998147 3.07939076 0.04397688
v 0.1183729 3.10626721 -0.0795186
v 0.1183729 3.0802865 -0.08166404
v 0.14130766 3.08029699 -0.08015006
v 0.14068244 3.10627722 -0.07804563
v 0.16345186 3.08032536 -0.07564786
v 0.16222503 3.10630703 -0.07366526
v 0.18403865 3.08037567 -0.06827185
v 0.18225982 3.10635662 -0.06648812
v 0.20235069 3.08044672 -0.05820098
v 0.20008583 3.106426 -0.05668327
v 0.21770305 3.08053278 -0.04565778
v 0.21503922 3.1065135 -0.04446696
v 0.22943463 3.08062672 -0.03094054
v 0.22647625 3.10660791 -0.03011889
v 0.23687775 3.08070278 -0.01448557
v 0.23373672 3.10668444 -0.01406793
v 0.23944082 3.08073401 0.0029775
v 0.23623883 3.10671448 0.0029775
v 0.23687775 3.08070278 0.02044299
v 0.23373672 3.10668444 0.02002409
v 0.22943463 3.08062672 0.03689548
v 0.22647625 3.10660791 0.03607504
v 0.09606459 3.10627722 -0.07804563
v 0.09543935 3.08029699 -0.08015006
v 0.07452072 3.10630703 -0.07366526
v 0.07329514 3.08032536 -0.07564786
v 0.05448591 3.10635662 -0.06648812
v 0.05270717 3.08037567 -0.06827185
v 0.03666116 3.106426 -0.05668327
v 0.0343964 3.08044672 -0.05820098
v 0.02170775 3.10651469 -0.04446696
v 0.01904395 3.08053278 -0.04565778
v 0.01027083 3.10660791 -0.03011889
v 0.00731244 3.08062672 -0.03094054
v 0.0030104 3.10668444 -0.01406793
v -0.0001307 3.08070278 -0.01448683
v 0.00050699 3.10671448 0.0029775
v -0.00269499 3.08073401 0.0029775
v 0.0030104 3.10668444 0.02002409
v -0.0001307 3.08070278 0.02044299
v 0.01027083 3.10660791 0.03607504
v 0.00731244 3.08062672 0.03689548
v 0.02170775 3.10651469 0.05042186
v 0.01904395 3.08053278 0.05161395
v 0.03666116 3.106426 0.06263819
v 0.0343964 3.08044672 0.06415468
v 0.05448591 3.10635662 0.0724443
v 0.05270717 3.08037567 0.07422806
v 0.07452072 3.10630703 0.07962146
v 0.07329514 3.08032536 0.08160401
v 0.09606459 3.10627722 0.08400054
v 0.09543935 3.08029699 0.08610494
v 0.1183729 3.10626721 0.08547473
v 0.1183729 3.0802865 0.08761899
v 0.14068244 3.10627722 0.08400054
v 0.14130766 3.08029699 0.08610494
v 0.16222503 3.10630703 0.07962146
v 0.16345068 3.08032536 0.08160401
v 0.18225982 3.10635662 0.0724443
v 0.18403865 3.08037567 0.07422806
v 0.20008583 3.106426 0.06263819
v 0.20235069 3.08044672 0.06415468
v 0.21503922 3.10651469 0.05042186
v 0.21770305 3.08053278 0.05161395
v 0.11902113 3.29357528 0.00354821
v 0.11902113 3.29176998 -0.00177345
v 0.11727411 3.29178214 -0.00166882
v 0.11559604 3.29181838 -0.0013598
v 0.11405196 3.2918725 -0.00086033
v 0.11270151 3.29193544 -0.00019242
v 0.11159583 3.29200005 0.00061597
v 0.11077626 3.29205417 0.00153233
v 0.11027214 3.29209089 0.00252189
v 0.11010234 3.292104 0.00354822
v 0.11027214 3.29209089 0.00457465
v 0.11077626 3.29205417 0.00556414
v 0.11159583 3.29200005 0.00648053
v 0.11270151 3.29193544 0.00728898
v 0.11405196 3.2918725 0.00795682
v 0.11559604 3.29181838 0.00845632
v 0.11727411 3.29178214 0.00876537
v 0.11902113 3.29176998 0.00886996
v 0.12076813 3.29178214 0.00876537
v 0.12244617 3.29181838 0.00845632
v 0.12399029 3.2918725 0.00795682
v 0.1253407 3.29193544 0.00728898
v 0.12644641 3.29200005 0.00648053
v 0.12726599 3.29205417 0.00556414
v 0.12777006 3.29209089 0.00457465
v 0.12793998 3.292104 0.00354822
v 0.12777006 3.29209089 0.00252189
v 0.12726599 3.29205417 0.00153233
v 0.12644641 3.29200005 0.00061597
v 0.1253407 3.29193544 -0.00019244
v 0.12399029 3.2918725 -0.00086033
v 0.12244617 3.29181838 -0.0013598
v 0.12076813 3.29178214 -0.00166882
v 0.11902113 3.28656172 -0.00818124
v 0.11521079 3.28661274 -0.00793633
v 0.11155952 3.28675913 -0.00721748
v 0.10821632 3.28697943 -0.00606993
v 0.10531062 3.28724265 -0.00456038
v 0.10294812 3.28751039 -0.00276695
v 0.10120713 3.28774023 -0.00076911
v 0.10014254 3.2878952 0.00135836
v 0.09978432 3.28795003 0.00354821
v 0.10014254 3.2878952 0.00573808
v 0.10120713 3.28774023 0.0078656
v 0.10294812 3.28751039 0.00986345
v 0.10531062 3.28724265 0.01165691
v 0.10821632 3.28697943 0.01316648
v 0.11155952 3.28675937 0.01431392
v 0.11521079 3.28661274 0.01503279
v 0.11902113 3.28656172 0.01527775
v 0.12283144 3.28661274 0.01503279
v 0.12648269 3.28675937 0.01431392
v 0.12982597 3.28697943 0.01316648
v 0.13273169 3.28724265 0.01165691
v 0.1350941 3.28751039 0.00986345
v 0.13683505 3.28774023 0.0078656
v 0.13789971 3.2878952 0.00573808
v 0.13825777 3.28795003 0.00354821
v 0.13789971 3.2878952 0.00135836
v 0.13683505 3.28774023 -0.00076911
v 0.1350941 3.28751039 -0.00276695
v 0.1327316 3.28724265 -0.00456038
v 0.12982597 3.28697943 -0.00606993
v 0.12648269 3.28675913 -0.00721748
v 0.12283144 3.28661274 -0.00793633
v 0.11902113 3.27849173 -0.01648179
v 0.11258544 3.27860617 -0.01602842
v 0.10644242 3.27893734 -0.01470865
v 0.10085778 3.27944397 -0.01263459
v 0.0960508 3.28006243 -0.00996511
v 0.09218289 3.28070163 -0.00687328
v 0.08936165 3.28125858 -0.00351569
v 0.08764933 3.28163886 -0.00001385
v 0.0870755 3.28177428 0.00354822
v 0.08764933 3.28163886 0.00711039
v 0.08936165 3.28125858 0.0106122
v 0.09218289 3.28070163 0.01396978
v 0.0960508 3.28006243 0.01706163
v 0.10085778 3.27944397 0.01973112
v 0.10644242 3.27893734 0.02180511
v 0.11258544 3.27860593 0.0231249
v 0.11902113 3.27849173 0.02357828
v 0.12545681 3.27860593 0.0231249
v 0.13159991 3.27893734 0.02180511
v 0.13718444 3.27944397 0.01973112
v 0.14199142 3.28006243 0.01706165
v 0.14585931 3.28070139 0.01396978
v 0.1486804 3.28125858 0.01061219
v 0.15039283 3.28163886 0.00711039
v 0.15096671 3.28177428 0.00354822
v 0.15039283 3.28163886 -0.00001385
v 0.1486804 3.28125858 -0.00351571
v 0.14585924 3.28070139 -0.00687329
v 0.14199136 3.28006243 -0.00996511
v 0.13718444 3.27944397 -0.01263459
v 0.13159991 3.27893734 -0.01470865
v 0.12545672 3.27860617 -0.01602842
v 0.11902113 3.26821804 -0.02700655
v 0.10928313 3.26841807 -0.02625443
v 0.10003029 3.26899957 -0.02408225
v 0.09169126 3.26990819 -0.02072086
v 0.0845955 3.27103996 -0.01649026
v 0.07896029 3.27223515 -0.01172301
v 0.07490035 3.27329731 -0.00669419
v 0.07246016 3.27403259 -0.00157895
v 0.0716471 3.27429556 0.00354822
v 0.07246016 3.27403259 0.00867547
v 0.07490035 3.27329731 0.01379077
v 0.07896029 3.27223515 0.01881953
v 0.08459541 3.27103996 0.02358683
v 0.09169126 3.26990819 0.02781734
v 0.10003029 3.26899957 0.03117872
v 0.10928313 3.26841807 0.03335093
v 0.11902113 3.26821804 0.03410305
v 0.12875913 3.26841807 0.03335093
v 0.13801185 3.26899957 0.03117872
v 0.1463509 3.26990819 0.02781736
v 0.15344668 3.27103996 0.02358683
v 0.15908192 3.27223515 0.01881953
v 0.16314189 3.27329731 0.01379071
v 0.16558206 3.27403259 0.00867549
v 0.16639509 3.27429556 0.00354822
v 0.16558206 3.27403259 -0.00157895
v 0.16314189 3.27329731 -0.0066942
v 0.15908192 3.27223515 -0.01172303
v 0.15344668 3.27103996 -0.01649028
v 0.1463509 3.26990819 -0.02072088
v 0.13801185 3.26899957 -0.02408225
v 0.12875913 3.26841807 -0.02625443
v 0.11902113 3.25627279 -0.03953968
v 0.10535535 3.25656867 -0.03839694
v 0.09243065 3.25744247 -0.03511787
v 0.08088262 3.25883722 -0.03010918
v 0.07117366 3.26061582 -0.02392738
v 0.06356643 3.26253843 -0.01713495
v 0.05815842 3.2642796 -0.01016936
v 0.05494206 3.26549911 -0.00326438
v 0.05387666 3.2659378 0.00354825
v 0.05494206 3.26549911 0.01036083
v 0.0581585 3.2642796 0.01726587
v 0.06356643 3.26253843 0.02423149
v 0.07117366 3.26061582 0.03102384
v 0.08088262 3.25883722 0.03720575
v 0.09243065 3.25744247 0.04221443
v 0.10535535 3.25656867 0.04549349
v 0.11902113 3.25627255 0.04663623
v 0.13268685 3.25656843 0.04549349
v 0.14561148 3.25744199 0.04221446
v 0.15715956 3.25883722 0.03720575
v 0.16686855 3.26061582 0.03102386
v 0.1744758 3.26253819 0.0242315
v 0.17988371 3.2642796 0.01726584
v 0.18309992 3.26549911 0.01036083
v 0.18416552 3.2659378 0.00354825
v 0.18309992 3.26549911 -0.00326438
v 0.17988382 3.2642796 -0.01016936
v 0.1744758 3.26253819 -0.01713503
v 0.16686847 3.26061582 -0.02392742
v 0.15715956 3.25883722 -0.03010918
v 0.14561158 3.25744247 -0.03511787
v 0.13268685 3.25656867 -0.03839696
v 0.11902113 3.24288296 -0.05335976
v 0.10102962 3.24327445 -0.05176194
v 0.08407867 3.24444913 -0.04719777
v 0.06904805 3.24636268 -0.04029212
v 0.0565404 3.24886107 -0.03189322
v 0.04685819 3.25161361 -0.0228462
v 0.04005645 3.25414705 -0.01378241
v 0.03604993 3.25593996 -0.00499665
v 0.03473077 3.25658822 0.00354817
v 0.03605008 3.25593996 0.01209309
v 0.04005636 3.25414681 0.02087893
v 0.04685812 3.25161361 0.02994275
v 0.0565404 3.24886107 0.03898973
v 0.06904812 3.24636268 0.04738858
v 0.08407858 3.2444489 0.05429433
v 0.10102952 3.24327421 0.05885855
v 0.11902113 3.24288272 0.06045633
v 0.13701266 3.24327421 0.05885855
v 0.15396347 3.2444489 0.05429439
v 0.168994 3.24636268 0.04738861
v 0.18150174 3.24886107 0.03898973
v 0.19118405 3.25161361 0.02994275
v 0.19798584 3.25414681 0.02087894
v 0.20199219 3.25593996 0.01209309
v 0.20331154 3.25658822 0.00354817
v 0.20199225 3.25593996 -0.00499665
v 0.19798578 3.25414705 -0.01378241
v 0.19118394 3.25161361 -0.02284625
v 0.18150174 3.24886107 -0.03189328
v 0.168994 3.24636268 -0.04029217
v 0.1539634 3.24444913 -0.04719779
v 0.13701255 3.24327445 -0.05176195
v 0.11902113 3.22792577 -0.06734554
v 0.09668568 3.22840714 -0.0652848
v 0.07569845 3.22986006 -0.05941391
v 0.05718164 3.23226642 -0.05058024
v 0.0418814 3.23545885 -0.03993086
v 0.03013531 3.23903012 -0.02859941
v 0.02195232 3.24234986 -0.01741579
v 0.01716674 3.24471497 -0.00673645
v 0.01559687 3.24557304 0.00354834
v 0.01716674 3.24471497 0.01383295
v 0.02195232 3.24234986 0.0245123
v 0.03013531 3.23903012 0.03569592
v 0.0418814 3.23545885 0.04702737
v 0.0571817 3.23226642 0.05767673
v 0.07569845 3.22986006 0.06651033
v 0.09668568 3.22840714 0.07238125
v 0.11902113 3.22792577 0.07444199
v 0.14135655 3.22840714 0.07238125
v 0.16234374 3.22986006 0.06651036
v 0.18086047 3.23226642 0.05767676
v 0.19616083 3.23545885 0.0470274
v 0.20790676 3.23902988 0.03569598
v 0.21608991 3.24234962 0.02451235
v 0.22087547 3.24471497 0.01383295
v 0.22244542 3.24557304 0.00354834
v 0.22087536 3.24471497 -0.00673648
v 0.21608983 3.24234986 -0.01741583
v 0.20790669 3.23902988 -0.02859953
v 0.19616083 3.23545885 -0.03993087
v 0.18086038 3.23226642 -0.05058028
v 0.16234365 3.22986006 -0.05941395
v 0.14135655 3.22840714 -0.0652848
v 0.11902113 3.21105885 -0.08009826
v 0.09281311 3.21161294 -0.07764293
v 0.06820906 3.21329832 -0.07065276
v 0.04653962 3.21610784 -0.06015101
v 0.02868006 3.21986126 -0.04752213
v 0.01500904 3.22408461 -0.03413125
v 0.0055146 3.22802615 -0.02097275
v -0.00002407 3.23084163 -0.00846316
v -0.00183918 3.23186564 0.00354822
v -0.00002407 3.23084163 0.01555963
v 0.0055146 3.22802615 0.0280693
v 0.01500904 3.22408461 0.04122786
v 0.02867999 3.21986126 0.05461864
v 0.04653962 3.21610736 0.06724761
v 0.06820914 3.21329832 0.07774931
v 0.09281311 3.21161294 0.08473937
v 0.11902113 3.21105885 0.08719475
v 0.14522914 3.21161294 0.08473937
v 0.16983281 3.21329832 0.07774941
v 0.19150257 3.21610736 0.06724761
v 0.2093621 3.21986126 0.0546187
v 0.22303319 3.22408461 0.04122786
v 0.23252761 3.22802615 0.0280693
v 0.23806637 3.23084163 0.01555963
v 0.23988148 3.23186564 0.00354822
v 0.23806637 3.23084163 -0.00846316
v 0.23252761 3.22802615 -0.02097278
v 0.22303313 3.22408461 -0.03413128
v 0.2093621 3.21986126 -0.04752224
v 0.19150257 3.21610736 -0.06015102
v 0.16983281 3.21329832 -0.07065282
v 0.14522905 3.21161294 -0.07764294
v 0.11902081 3.06610608 0.00354822
v 0.11902097 3.07031798 -0.02608844
v 0.12758553 3.07036995 -0.02550777
v 0.13581188 3.07051968 -0.02379176
v 0.14338134 3.07074451 -0.02101664
v 0.15000155 3.07100915 -0.01730185
v 0.15542216 3.07127571 -0.01280155
v 0.15944004 3.07150292 -0.00769501
v 0.16191135 3.07165575 -0.00217711
v 0.16274395 3.07170915 0.00354856
v 0.16191135 3.07165575 0.00927355
v 0.15944004 3.07150292 0.01479134
v 0.15542216 3.07127571 0.01989811
v 0.15000155 3.07100915 0.02439832
v 0.14338134 3.07074451 0.02811303
v 0.13581188 3.07051968 0.03088827
v 0.12758553 3.07036995 0.0326042
v 0.11902097 3.07031798 0.03318488
v 0.11045663 3.07036995 0.0326042
v 0.10223014 3.07051968 0.03088827
v 0.09466061 3.07074451 0.02811303
v 0.08803999 3.07100915 0.02439832
v 0.08261978 3.07127571 0.01989804
v 0.078602 3.07150292 0.01479133
v 0.07613074 3.07165575 0.00927355
v 0.07529805 3.07170915 0.00354856
v 0.07613074 3.07165575 -0.00217711
v 0.078602 3.07150292 -0.00769501
v 0.08261978 3.07127571 -0.01280155
v 0.08803999 3.07100915 -0.01730183
v 0.09466061 3.07074475 -0.02101664
v 0.10223014 3.07051968 -0.02379176
v 0.11045663 3.07036995 -0.02550777
v 0.11902081 3.08234739 -0.05280712
v 0.13542659 3.08253669 -0.05164213
v 0.15114729 3.08307766 -0.04821969
v 0.16554184 3.0838983 -0.04274497
v 0.17805233 3.08488273 -0.03552316
v 0.18822433 3.08588242 -0.02691587
v 0.19572 3.08674478 -0.01729901
v 0.20030395 3.087327 -0.00703299
v 0.2018456 3.08753252 0.00354851
v 0.20030395 3.087327 0.01412928
v 0.19572 3.08674478 0.02439544
v 0.18822433 3.08588242 0.03401239
v 0.17805233 3.08488273 0.04261981
v 0.16554184 3.0838983 0.04984161
v 0.15114729 3.08307766 0.05531616
v 0.13542659 3.08253669 0.05873872
v 0.11902081 3.08234739 0.05990372
v 0.10261531 3.08253669 0.05873872
v 0.08689472 3.08307766 0.05531619
v 0.07250009 3.08389854 0.04984161
v 0.05998955 3.08488273 0.04261981
v 0.04981777 3.08588242 0.03401239
v 0.04232187 3.08674478 0.02439544
v 0.03773805 3.08732724 0.01412927
v 0.03619603 3.08753323 0.00354833
v 0.03773805 3.08732724 -0.00703299
v 0.04232187 3.08674478 -0.01729901
v 0.04981777 3.08588242 -0.02691587
v 0.05998955 3.08488273 -0.03552324
v 0.07250009 3.08389854 -0.042745
v 0.08689472 3.08307766 -0.04821968
v 0.10261531 3.08253669 -0.05164213
v 0.11902105 3.10053634 -0.07420976
v 0.14191484 3.10089564 -0.07247683
v 0.16376794 3.10193276 -0.06742506
v 0.18363438 3.10353207 -0.05946206
v 0.20073406 3.10548305 -0.04916998
v 0.21449373 3.10750722 -0.03718967
v 0.22452962 3.1092801 -0.02411365
v 0.2306213 3.11049294 -0.01041768
v 0.23266267 3.11092495 0.00354849
v 0.2306213 3.11049294 0.01751415
v 0.22452962 3.1092801 0.03121016
v 0.21449373 3.10750722 0.04428617
v 0.20073412 3.10548305 0.05626659
v 0.18363438 3.10353207 0.06655849
v 0.16376794 3.10193276 0.07452152
v 0.14191484 3.1008954 0.07957328
v 0.11902097 3.10053634 0.08130641
v 0.09612706 3.10089564 0.07957325
v 0.07427392 3.10193276 0.07452149
v 0.0544078 3.10353207 0.06655861
v 0.03730766 3.10548305 0.05626656
v 0.02354811 3.10750746 0.04428605
v 0.01351223 3.10928034 0.03121008
v 0.00742061 3.11049294 0.01751415
v 0.00537938 3.11092495 0.00354848
v 0.00742061 3.11049294 -0.01041767
v 0.01351223 3.10928034 -0.02411365
v 0.02354811 3.10750746 -0.03718964
v 0.03730774 3.10548353 -0.04916994
v 0.0544078 3.10353207 -0.05946197
v 0.07427401 3.10193276 -0.06742503
v 0.09612712 3.10089564 -0.07247681
v 0.11902097 3.12260603 -0.08878362
v 0.14658322 3.12311434 -0.08654972
v 0.17277206 3.1246016 -0.08008763
v 0.19637472 3.12693643 -0.07005707
v 0.21645866 3.12985634 -0.05737447
v 0.23240827 3.13295435 -0.04300099
v 0.24389962 3.13571906 -0.02774481
v 0.25080645 3.13763666 -0.01214198
v 0.2531073 3.13832235 0.00354836
v 0.25080645 3.13763666 0.0192385
v 0.24389962 3.13571858 0.03484138
v 0.23240827 3.13295435 0.05009757
v 0.21645866 3.12985634 0.06447096
v 0.19637472 3.12693643 0.07715351
v 0.17277188 3.1246016 0.08718432
v 0.14658322 3.12311434 0.09364621
v 0.11902097 3.12260603 0.09588013
v 0.09145847 3.12311434 0.09364621
v 0.0652698 3.1246016 0.08718423
v 0.04166723 3.12693643 0.07715345
v 0.02158342 3.12985682 0.06447093
v 0.00563373 3.13295435 0.05009745
v -0.00585755 3.13571906 0.03484122
v -0.0127642 3.13763666 0.01923845
v -0.01506535 3.13832235 0.00354846
v -0.0127642 3.13763666 -0.01214198
v -0.00585755 3.13571906 -0.02774478
v 0.00563373 3.13295435 -0.04300096
v 0.02158342 3.12985682 -0.05737444
v 0.04166723 3.12693667 -0.07005707
v 0.0652698 3.1246016 -0.08008761
v 0.09145847 3.12311434 -0.08654969
v 0.11902097 3.14619803 -0.09602672
v 0.14918167 3.1467998 -0.09342632
v 0.17770691 3.14858508 -0.08595497
v 0.20319351 3.1514492 -0.0745121
v 0.22462165 3.15511894 -0.0603321
v 0.24141097 3.15910363 -0.04466893
v 0.25334653 3.16272473 -0.02850946
v 0.26044493 3.16526722 -0.01240059
v 0.26279673 3.16618442 0.00354835
v 0.26044493 3.16526722 0.01949702
v 0.25334653 3.16272473 0.03560593
v 0.24141091 3.15910363 0.05176557
v 0.22462165 3.15511894 0.06742849
v 0.20319351 3.1514492 0.08160868
v 0.17770691 3.14858508 0.09305141
v 0.14918176 3.1467998 0.10052295
v 0.11902081 3.14619803 0.10312332
v 0.08886023 3.1467998 0.10052295
v 0.06033517 3.14858508 0.09305141
v 0.03484835 3.15144944 0.08160862
v 0.01342036 3.15511894 0.06742847
v -0.00336899 3.15910387 0.05176545
v -0.01530444 3.16272473 0.03560587
v -0.02240306 3.16526746 0.01949699
v -0.02475449 3.16618442 0.00354844
v -0.02240306 3.16526746 -0.01240056
v -0.01530444 3.16272473 -0.02850942
v -0.00336882 3.15910363 -0.04466898
v 0.01342036 3.15511894 -0.06033209
v 0.03484835 3.15144944 -0.07451204
v 0.06033517 3.14858508 -0.08595494
v 0.08886037 3.1467998 -0.09342632
v 0.11902097 3.16934609 -0.09634451
v 0.14969342 3.16997885 -0.09357149
v 0.17859171 3.17187881 -0.08564299
v 0.20421615 3.17498827 -0.07362461
v 0.22553983 3.17906212 -0.05896479
v 0.24204638 3.18357157 -0.043111
v 0.25364214 3.18773102 -0.02715227
v 0.26047229 3.19068193 -0.0116115
v 0.26272162 3.19174909 0.00354838
v 0.26047229 3.19068193 0.01870805
v 0.25364214 3.18773102 0.03424879
v 0.24204638 3.18357157 0.05020754
v 0.22553992 3.17906212 0.0660613
v 0.20421615 3.17498827 0.08072106
v 0.17859171 3.17187881 0.09273961
v 0.14969342 3.16997885 0.10066805
v 0.11902097 3.16934609 0.10344106
v 0.08834866 3.16997885 0.10066802
v 0.05945025 3.17187881 0.09273961
v 0.0338257 3.17498827 0.08072097
v 0.01250224 3.17906212 0.06606127
v -0.00400421 3.18357157 0.05020743
v -0.01560004 3.18773102 0.03424871
v -0.02243026 3.19068217 0.01870806
v -0.02467946 3.19174957 0.00354832
v -0.02243026 3.19068217 -0.01161149
v -0.01559998 3.18773102 -0.02715227
v -0.00400414 3.18357157 -0.04311097
v 0.01250232 3.17906212 -0.0589648
v 0.0338257 3.1749885 -0.0736246
v 0.05945025 3.17187881 -0.08564294
v 0.08834866 3.16997885 -0.09357148
v 0.11902097 3.19076252 -0.09080466
v 0.14832498 3.19137454 -0.08807852
v 0.17585994 3.19322967 -0.08030829
v 0.20015369 3.19631147 -0.06860528
v 0.22022773 3.20040988 -0.05447522
v 0.23563826 3.2050023 -0.03940818
v 0.24637436 3.20927786 -0.0244985
v 0.25265306 3.21232795 -0.01022349
v 0.25471293 3.21343588 0.00354839
v 0.25265312 3.21232795 0.01731992
v 0.24637436 3.20927786 0.03159502
v 0.23563811 3.2050023 0.04650461
v 0.22022773 3.20040988 0.06157173
v 0.20015376 3.19631099 0.07570187
v 0.17585985 3.19322991 0.08740466
v 0.14832492 3.19137454 0.09517489
v 0.11902097 3.19076299 0.09790085
v 0.08971721 3.19137454 0.09517481
v 0.06218221 3.19322991 0.08740463
v 0.03788853 3.19631147 0.07570166
v 0.01781466 3.20041012 0.06157158
v 0.00240396 3.20500278 0.04650446
v -0.00833219 3.20927906 0.03159496
v -0.01461067 3.21232819 0.0173199
v -0.01667042 3.21343612 0.00354825
v -0.01461058 3.21232819 -0.01022346
v -0.00833205 3.20927906 -0.0244984
v 0.00240375 3.20500254 -0.0394081
v 0.01781458 3.20041012 -0.05447516
v 0.03788838 3.19631147 -0.06860519
v 0.06218214 3.19322991 -0.0803082
v 0.08971721 3.19137454 -0.08807852
g Group52974
f 106 105 104 103
g Group34971
f 1 4 3 2
g Group52974
f 106 108 107 105
g Group34971
f 1 2 6 5
g Group52974
f 106 103 109 108
g Group34971
f 1 5 7 4
g Group52974
f 109 111 110 108
g Group34971
f 7 5 9 8
g Group52974
f 109 103 113 112
g Group34971
f 7 11 10 4
g Group52974
f 109 112 114 111
g Group34971
f 7 8 12 11
g Group52974
f 114 116 115 111
g Group34971
f 12 8 14 13
g Group52974
f 114 112 118 117
g Group34971
f 12 16 15 11
g Group52974
f 114 117 119 116
g Group34971
f 12 13 17 16
g Group52974
f 119 121 120 116
g Group34971
f 17 13 19 18
g Group52974
f 119 117 123 122
g Group34971
f 17 21 20 16
g Group52974
f 119 122 124 121
g Group34971
f 17 18 22 21
g Group52974
f 124 126 125 121
g Group34971
f 22 18 24 23
g Group52977
f 25 26 127 128
f 26 27 129 127
f 28 29 130 131
f 27 28 131 129
f 29 30 132 130
f 30 31 134 132
f 31 33 136 134
g Group52974
f 133 135 137 120
g Group34971
f 32 19 35 34
g Group52974
f 133 120 121 125
g Group34971
f 32 24 18 19
g Group52974
f 137 135 139 138
g Group34971
f 35 37 36 34
g Group52974
f 137 138 140 115
g Group34971
f 35 14 38 37
g Group52974
f 137 115 116 120
g Group34971
f 35 19 13 14
g Group52974
f 140 138 142 141
g Group34971
f 38 40 39 37
g Group52974
f 140 141 143 110
g Group34971
f 38 9 41 40
g Group52974
f 140 110 111 115
g Group34971
f 38 14 8 9
g Group52974
f 143 141 145 144
g Group34971
f 41 43 42 40
g Group52974
f 143 144 146 107
g Group34971
f 41 6 44 43
g Group52974
f 143 107 108 110
g Group34971
f 41 9 5 6
g Group52974
f 146 144 148 147
g Group34971
f 44 46 45 43
g Group52974
f 146 147 150 149
g Group34971
f 44 48 47 46
g Group52974
f 146 149 105 107
g Group34971
f 44 6 2 48
g Group52974
f 149 150 152 151
g Group34971
f 48 50 49 47
g Group52974
f 149 151 104 105
g Group34971
f 48 2 3 50
g Group52974
f 151 152 154 153
g Group34971
f 50 52 51 49
g Group52974
f 151 153 155 104
g Group34971
f 50 3 53 52
g Group52974
f 155 113 103 104
g Group34971
f 53 3 4 10
g Group52974
f 155 153 157 156
g Group34971
f 53 55 54 52
g Group52974
f 155 156 158 113
g Group34971
f 53 10 56 55
g Group52974
f 158 118 112 113
g Group34971
f 56 10 11 15
g Group52974
f 158 156 160 159
g Group34971
f 56 58 57 55
g Group52974
f 158 159 161 118
g Group34971
f 56 15 59 58
g Group52974
f 161 123 117 118
g Group34971
f 59 15 16 20
g Group52977
f 60 61 162 163
f 61 62 164 162
f 62 25 128 164
f 63 60 163 165
f 65 63 165 166
f 67 65 166 168
f 69 67 168 170
f 71 69 170 172
f 70 71 172 173
f 73 70 173 174
f 75 73 174 176
f 77 75 176 178
f 79 77 178 180
f 81 79 180 182
f 83 81 182 184
f 85 83 184 186
f 87 85 186 188
f 89 87 188 190
f 91 89 190 192
f 90 91 192 193
f 93 90 193 194
f 95 93 194 196
f 97 95 196 198
f 98 97 198 200
f 33 98 200 136
g Group52974
f 199 197 201 142
g Group34971
f 96 39 99 94
g Group52974
f 199 142 138 139
g Group34971
f 96 36 37 39
g Group52974
f 201 197 195 202
g Group34971
f 99 100 92 94
g Group52974
f 201 202 203 145
g Group34971
f 99 42 101 100
g Group52974
f 201 145 141 142
g Group34971
f 99 39 40 42
g Group52974
f 203 202 189 187
g Group34971
f 101 84 86 100
g Group52974
f 203 187 185 148
g Group34971
f 101 45 82 84
g Group52974
f 203 148 144 145
g Group34971
f 101 42 43 45
g Group52974
f 202 195 191 189
g Group34971
f 100 86 88 92
g Group52974
f 185 183 147 148
g Group34971
f 82 45 46 80
g Group52974
f 183 181 150 147
g Group34971
f 80 46 47 78
g Group52974
f 181 179 152 150
g Group34971
f 78 47 49 76
g Group52974
f 179 177 154 152
g Group34971
f 76 49 51 74
g Group52974
f 177 175 204 154
g Group34971
f 74 51 102 72
g Group52974
f 204 157 153 154
g Group34971
f 102 51 52 54
g Group52974
f 204 175 171 169
g Group34971
f 102 66 68 72
g Group52974
f 204 169 167 157
g Group34971
f 102 54 64 66
g Group52974
f 167 160 156 157
g Group34971
f 64 54 55 57
g Group52974
f 208 207 206 205
g Group52977
f 21 22 208 205
f 26 25 206 207
g Group52974
f 208 210 209 207
g Group52977
f 27 26 207 209
f 22 23 210 208
g Group52974
f 209 210 212 211
g Group52977
f 28 27 209 211
f 29 28 211 212
g Group52974
f 212 210 214 213
g Group52977
f 30 29 212 213
f 23 24 214 210
g Group52974
f 213 214 216 215
g Group52977
f 31 30 213 215
f 24 32 216 214
g Group52974
f 216 218 217 215
g Group52977
f 33 31 215 217
f 32 34 218 216
g Group52974
f 222 221 220 219
g Group52977
f 58 59 222 219
f 61 60 220 221
g Group52974
f 222 224 223 221
g Group52977
f 62 61 221 223
f 59 20 224 222
g Group52974
f 223 224 205 206
g Group52977
f 25 62 223 206
f 20 21 205 224
g Group52974
f 220 226 225 219
g Group52977
f 57 58 219 225
f 60 63 226 220
g Group52974
f 226 228 227 225
g Group52977
f 64 57 225 227
f 63 65 228 226
g Group52974
f 228 230 229 227
g Group52977
f 66 64 227 229
f 65 67 230 228
g Group52974
f 230 232 231 229
g Group52977
f 68 66 229 231
f 67 69 232 230
g Group52974
f 232 234 233 231
g Group52977
f 71 70 233 234
f 69 71 234 232
g Group52974
f 233 236 235 231
g Group52977
f 72 68 231 235
f 70 73 236 233
g Group52974
f 236 238 237 235
g Group52977
f 74 72 235 237
f 73 75 238 236
g Group52974
f 238 240 239 237
g Group52977
f 76 74 237 239
f 75 77 240 238
g Group52974
f 240 242 241 239
g Group52977
f 78 76 239 241
f 77 79 242 240
g Group52974
f 242 244 243 241
g Group52977
f 80 78 241 243
f 79 81 244 242
g Group52974
f 244 246 245 243
g Group52977
f 82 80 243 245
f 81 83 246 244
g Group52974
f 246 248 247 245
g Group52977
f 84 82 245 247
f 83 85 248 246
g Group52974
f 248 250 249 247
g Group52977
f 86 84 247 249
f 85 87 250 248
g Group52974
f 250 252 251 249
g Group52977
f 88 86 249 251
f 87 89 252 250
g Group52974
f 252 254 253 251
g Group52977
f 91 90 253 254
f 89 91 254 252
g Group52974
f 253 256 255 251
g Group52977
f 92 88 251 255
f 90 93 256 253
g Group52974
f 256 258 257 255
g Group52977
f 94 92 255 257
f 93 95 258 256
g Group52974
f 258 260 259 257
g Group52977
f 96 94 257 259
f 95 97 260 258
g Group52974
f 260 262 261 259
g Group52977
f 36 96 259 261
f 97 98 262 260
g Group52974
f 262 217 218 261
g Group52977
f 34 36 261 218
f 98 33 217 262
g Group52974
f 266 265 264 263
g Group52977
f 128 127 263 264
f 124 122 265 266
g Group52974
f 266 263 268 267
g Group52977
f 126 124 266 267
f 127 129 268 263
g Group52974
f 268 270 269 267
g Group52977
f 131 130 269 270
f 129 131 270 268
g Group52974
f 269 272 271 267
g Group52977
f 125 126 267 271
f 130 132 272 269
g Group52974
f 272 274 273 271
g Group52977
f 133 125 271 273
f 132 134 274 272
g Group52974
f 273 274 276 275
g Group52977
f 135 133 273 275
f 134 136 276 274
g Group52974
f 280 279 278 277
g Group52977
f 163 162 277 278
f 161 159 279 280
g Group52974
f 280 277 282 281
g Group52977
f 123 161 280 281
f 162 164 282 277
g Group52974
f 282 264 265 281
g Group52977
f 122 123 281 265
f 164 128 264 282
g Group52974
f 278 279 284 283
g Group52977
f 165 163 278 283
f 159 160 284 279
g Group52974
f 283 284 286 285
g Group52977
f 166 165 283 285
f 160 167 286 284
g Group52974
f 285 286 288 287
g Group52977
f 168 166 285 287
f 167 169 288 286
g Group52974
f 287 288 290 289
g Group52977
f 170 168 287 289
f 169 171 290 288
g Group52974
f 289 290 292 291
g Group52977
f 172 170 289 291
f 173 172 291 292
g Group52974
f 292 290 294 293
g Group52977
f 174 173 292 293
f 171 175 294 290
g Group52974
f 293 294 296 295
g Group52977
f 176 174 293 295
f 175 177 296 294
g Group52974
f 295 296 298 297
g Group52977
f 178 176 295 297
f 177 179 298 296
g Group52974
f 297 298 300 299
g Group52977
f 180 178 297 299
f 179 181 300 298
g Group52974
f 299 300 302 301
g Group52977
f 182 180 299 301
f 181 183 302 300
g Group52974
f 301 302 304 303
g Group52977
f 184 182 301 303
f 183 185 304 302
g Group52974
f 303 304 306 305
g Group52977
f 186 184 303 305
f 185 187 306 304
g Group52974
f 305 306 308 307
g Group52977
f 188 186 305 307
f 187 189 308 306
g Group52974
f 307 308 310 309
g Group52977
f 190 188 307 309
f 189 191 310 308
g Group52974
f 309 310 312 311
g Group52977
f 192 190 309 311
f 193 192 311 312
g Group52974
f 312 310 314 313
g Group52977
f 194 193 312 313
f 191 195 314 310
g Group52974
f 313 314 316 315
g Group52977
f 196 194 313 315
f 195 197 316 314
g Group52974
f 315 316 318 317
g Group52977
f 198 196 315 317
f 197 199 318 316
g Group52974
f 317 318 320 319
g Group52977
f 200 198 317 319
f 199 139 320 318
g Group52974
f 319 320 275 276
g Group52977
f 136 200 319 276
f 139 135 275 320
g Group24135
f 372 371 335 336
f 321 337 369 370
f 390 368 389
f 372 337 338 371
f 359 358 384 383
f 390 389 367
f 324 391 392 325
f 350 381 378 355
f 333 363 393 394
f 383 382 359
f 327 395 396 366
f 366 396 397 374
f 377 376 339 340
f 323 398 391 324
f 330 333 394 399
f 367 389 374 363
f 326 400 395 327
f 334 331 401 402
f 376 341 342 380
f 382 403 404 359
f 331 330 399 401
f 363 374 397 393
f 325 392 400 326
f 328 329 405 404
f 383 360 382
f 361 384 387 353
f 321 406 407 322
f 371 385 343 335
f 358 362 387 384
f 371 338 344 385
f 376 380 345 339
f 356 354 378 381
f 380 386 346 345
f 362 357 388 387
f 380 342 347 386
f 360 383 384 361
f 332 334 402 408
f 377 348 341 376
f 386 390 367 346
f 360 406 403 382
f 370 369 336 328
f 369 372 336
f 386 347 368 390
f 329 332 408 405
f 365 375 373
f 322 407 398 323
f 385 377 340 343
f 385 344 348 377
f 357 356 381 388
f 336 335 329 328
f 337 372 369
f 337 321 322 338
f 340 339 331 334
f 341 325 326 342
f 335 343 332 329
f 338 322 323 344
f 339 345 330 331
f 345 346 333 330
f 342 326 327 347
f 348 324 325 341
f 346 367 363 333
f 364 373 375
f 347 327 366 368
f 343 340 334 332
f 344 323 324 348
f 355 378 379 352
f 368 366 374 389
f 349 388 381 350
f 354 351 379 378
f 351 364 375 379
f 352 379 375 365
f 353 387 388 349
f 391 349 350 392
f 394 393 364 351
f 395 352 365 396
f 396 365 373 397
f 398 353 349 391
f 399 394 351 354
f 400 355 352 395
f 402 401 356 357
f 403 370 328 404
f 401 399 354 356
f 393 397 373 364
f 392 350 355 400
f 404 405 358 359
f 406 360 361 407
f 408 402 357 362
f 406 321 370 403
f 405 408 362 358
f 407 361 353 398
g Group62115
f 409 410 411
f 409 411 412
f 409 412 413
f 409 413 414
f 409 414 415
f 409 415 416
f 409 416 417
f 409 417 418
f 409 418 419
f 409 419 420
f 409 420 421
f 409 421 422
f 409 422 423
f 409 423 424
f 409 424 425
f 409 425 426
f 409 426 427
f 409 427 428
f 409 428 429
f 409 429 430
f 409 430 431
f 409 431 432
f 409 432 433
f 409 433 434
f 409 434 435
f 409 435 436
f 409 436 437
f 409 437 438
f 409 438 439
f 409 439 440
f 409 440 441
f 409 441 410
f 442 474 475 443
f 443 475 476 444
f 444 476 477 445
f 445 477 478 446
f 446 478 479 447
f 447 479 480 448
f 448 480 481 449
f 449 481 482 450
f 450 482 483 451
f 451 483 484 452
f 452 484 485 453
f 453 485 486 454
f 454 486 487 455
f 455 487 488 456
f 456 488 489 457
f 457 489 490 458
f 458 490 491 459
f 459 491 492 460
f 460 492 493 461
f 461 493 494 462
f 462 494 495 463
f 463 495 496 464
f 464 496 497 465
f 465 497 498 466
f 466 498 499 467
f 467 499 500 468
f 468 500 501 469
f 469 501 502 470
f 470 502 503 471
f 471 503 504 472
f 472 504 505 473
f 473 505 474 442
f 474 506 507 475
f 475 507 508 476
f 476 508 509 477
f 477 509 510 478
f 478 510 511 479
f 479 511 512 480
f 480 512 513 481
f 481 513 514 482
f 482 514 515 483
f 483 515 516 484
f 484 516 517 485
f 485 517 518 486
f 486 518 519 487
f 487 519 520 488
f 488 520 521 489
f 489 521 522 490
f 490 522 523 491
f 491 523 524 492
f 492 524 525 493
f 493 525 526 494
f 494 526 527 495
f 495 527 528 496
f 496 528 529 497
f 497 529 530 498
f 498 530 531 499
f 499 531 532 500
f 500 532 533 501
f 501 533 534 502
f 502 534 535 503
f 503 535 536 504
f 504 536 537 505
f 505 537 506 474
f 506 538 539 507
f 507 539 540 508
f 508 540 541 509
f 509 541 542 510
f 510 542 543 511
f 511 543 544 512
f 512 544 545 513
f 513 545 546 514
f 514 546 547 515
f 515 547 548 516
f 516 548 549 517
f 517 549 550 518
f 518 550 551 519
f 519 551 552 520
f 520 552 553 521
f 521 553 554 522
f 522 554 555 523
f 523 555 556 524
f 524 556 557 525
f 525 557 558 526
f 526 558 559 527
f 527 559 560 528
f 528 560 561 529
f 529 561 562 530
f 530 562 563 531
f 531 563 564 532
f 532 564 565 533
f 533 565 566 534
f 534 566 567 535
f 535 567 568 536
f 536 568 569 537
f 537 569 538 506
f 538 570 571 539
f 539 571 572 540
f 540 572 573 541
f 541 573 574 542
f 542 574 575 543
f 543 575 576 544
f 544 576 577 545
f 545 577 578 546
f 546 578 579 547
f 547 579 580 548
f 548 580 581 549
f 549 581 582 550
f 550 582 583 551
f 551 583 584 552
f 552 584 585 553
f 553 585 586 554
f 554 586 587 555
f 555 587 588 556
f 556 588 589 557
f 557 589 590 558
f 558 590 591 559
f 559 591 592 560
f 560 592 593 561
f 561 593 594 562
f 562 594 595 563
f 563 595 596 564
f 564 596 597 565
f 565 597 598 566
f 566 598 599 567
f 567 599 600 568
f 568 600 601 569
f 569 601 570 538
f 570 602 603 571
f 571 603 604 572
f 572 604 605 573
f 573 605 606 574
f 574 606 607 575
f 575 607 608 576
f 576 608 609 577
f 577 609 610 578
f 578 610 611 579
f 579 611 612 580
f 580 612 613 581
f 581 613 614 582
f 582 614 615 583
f 583 615 616 584
f 584 616 617 585
f 585 617 618 586
f 586 618 619 587
f 587 619 620 588
f 588 620 621 589
f 589 621 622 590
f 590 622 623 591
f 591 623 624 592
f 592 624 625 593
f 593 625 626 594
f 594 626 627 595
f 595 627 628 596
f 596 628 629 597
f 597 629 630 598
f 598 630 631 599
f 599 631 632 600
f 600 632 633 601
f 601 633 602 570
f 602 634 635 603
f 603 635 636 604
f 604 636 637 605
f 605 637 638 606
f 606 638 639 607
f 607 639 640 608
f 608 640 641 609
f 609 641 642 610
f 610 642 643 611
f 611 643 644 612
f 612 644 645 613
f 613 645 646 614
f 614 646 647 615
f 615 647 648 616
f 616 648 649 617
f 617 649 650 618
f 618 650 651 619
f 619 651 652 620
f 620 652 653 621
f 621 653 654 622
f 622 654 655 623
f 623 655 656 624
f 624 656 657 625
f 625 657 658 626
f 626 658 659 627
f 627 659 660 628
f 628 660 661 629
f 629 661 662 630
f 630 662 663 631
f 631 663 664 632
f 632 664 665 633
f 633 665 634 602
f 634 666 667 635
f 635 667 668 636
f 636 668 669 637
f 637 669 670 638
f 638 670 671 639
f 639 671 672 640
f 640 672 673 641
f 641 673 674 642
f 642 674 675 643
f 643 675 676 644
f 644 676 677 645
f 645 677 678 646
f 646 678 679 647
f 647 679 680 648
f 648 680 681 649
f 649 681 682 650
f 650 682 683 651
f 651 683 684 652
f 652 684 685 653
f 653 685 686 654
f 654 686 687 655
f 655 687 688 656
f 656 688 689 657
f 657 689 690 658
f 658 690 691 659
f 659 691 692 660
f 660 692 693 661
f 661 693 694 662
f 662 694 695 663
f 663 695 696 664
f 664 696 697 665
f 665 697 666 634
f 666 698 699 667
f 667 699 700 668
f 668 700 701 669
f 669 701 702 670
f 670 702 703 671
f 671 703 704 672
f 672 704 705 673
f 673 705 706 674
f 674 706 707 675
f 675 707 708 676
f 676 708 709 677
f 677 709 710 678
f 678 710 711 679
f 679 711 712 680
f 680 712 713 681
f 681 713 714 682
f 682 714 715 683
f 683 715 716 684
f 684 716 717 685
f 685 717 718 686
f 686 718 719 687
f 687 719 720 688
f 688 720 721 689
f 689 721 722 690
f 690 722 723 691
f 691 723 724 692
f 692 724 725 693
f 693 725 726 694
f 694 726 727 695
f 695 727 728 696
f 696 728 729 697
f 697 729 698 666
f 698 730 731 699
f 699 731 732 700
f 700 732 733 701
f 701 733 734 702
f 702 734 735 703
f 703 735 736 704
f 704 736 737 705
f 705 737 738 706
f 706 738 739 707
f 707 739 740 708
f 708 740 741 709
f 709 741 742 710
f 710 742 743 711
f 711 743 744 712
f 712 744 745 713
f 713 745 746 714
f 714 746 747 715
f 715 747 748 716
f 716 748 749 717
f 717 749 750 718
f 718 750 751 719
f 719 751 752 720
f 720 752 753 721
f 721 753 754 722
f 722 754 755 723
f 723 755 756 724
f 724 756 757 725
f 725 757 758 726
f 726 758 759 727
f 727 759 760 728
f 728 760 761 729
f 729 761 730 698
f 858 827 861 922
f 410 441 921 862
f 857 858 922 920
f 441 440 919 921
f 856 857 920 918
f 440 439 917 919
f 855 856 918 916
f 439 438 915 917
f 854 855 916 914
f 438 437 913 915
f 853 854 914 912
f 437 436 911 913
f 852 853 912 910
f 436 435 909 911
f 851 852 910 908
f 435 434 907 909
f 850 851 908 906
f 434 433 905 907
f 849 850 906 904
f 433 432 903 905
f 848 849 904 902
f 432 431 901 903
f 762 794 795 763
f 763 795 796 764
f 764 796 797 765
f 765 797 798 766
f 766 798 799 767
f 767 799 800 768
f 768 800 801 769
f 769 801 802 770
f 770 802 803 771
f 771 803 804 772
f 772 804 805 773
f 773 805 806 774
f 774 806 807 775
f 775 807 808 776
f 776 808 809 777
f 777 809 810 778
f 778 810 811 779
f 779 811 812 780
f 780 812 813 781
f 781 813 814 782
f 782 814 815 783
f 783 815 816 784
f 784 816 817 785
f 785 817 818 786
f 786 818 819 787
f 787 819 820 788
f 788 820 821 789
f 789 821 822 790
f 790 822 823 791
f 791 823 824 792
f 792 824 825 793
f 793 825 794 762
f 794 826 795
f 795 826 796
f 796 826 797
f 797 826 798
f 798 826 799
f 799 826 800
f 800 826 801
f 801 826 802
f 802 826 803
f 803 826 804
f 804 826 805
f 805 826 806
f 806 826 807
f 807 826 808
f 808 826 809
f 809 826 810
f 810 826 811
f 811 826 812
f 812 826 813
f 813 826 814
f 814 826 815
f 815 826 816
f 816 826 817
f 817 826 818
f 818 826 819
f 819 826 820
f 820 826 821
f 821 826 822
f 822 826 823
f 823 826 824
f 824 826 825
f 825 826 794
f 827 442 443 828
f 828 443 444 829
f 829 444 445 830
f 830 445 446 831
f 831 446 447 832
f 832 447 448 833
f 833 448 449 834
f 834 449 450 835
f 835 450 451 836
f 836 451 452 837
f 837 452 453 838
f 838 453 454 839
f 839 454 455 840
f 840 455 456 841
f 841 456 457 842
f 842 457 458 843
f 843 458 459 844
f 844 459 460 845
f 845 460 461 846
f 846 461 462 847
f 847 462 463 848
f 848 463 464 849
f 849 464 465 850
f 850 465 466 851
f 851 466 467 852
f 852 467 468 853
f 853 468 469 854
f 854 469 470 855
f 855 470 471 856
f 856 471 472 857
f 857 472 473 858
f 858 473 442 827
f 411 410 862 859
f 827 828 860 861
f 412 411 859 863
f 828 829 864 860
f 413 412 863 865
f 829 830 866 864
f 414 413 865 867
f 830 831 868 866
f 415 414 867 869
f 831 832 870 868
f 416 415 869 871
f 832 833 872 870
f 417 416 871 873
f 833 834 874 872
f 418 417 873 875
f 834 835 876 874
f 419 418 875 877
f 835 836 878 876
f 420 419 877 879
f 836 837 880 878
f 421 420 879 881
f 837 838 882 880
f 422 421 881 883
f 838 839 884 882
f 423 422 883 885
f 839 840 886 884
f 424 423 885 887
f 840 841 888 886
f 425 424 887 889
f 841 842 890 888
f 426 425 889 891
f 842 843 892 890
f 427 426 891 893
f 843 844 894 892
f 428 427 893 895
f 844 845 896 894
f 429 428 895 897
f 845 846 898 896
f 430 429 897 899
f 846 847 900 898
f 431 430 899 901
f 847 848 902 900
f 926 925 924 923
f 731 730 926 923
f 762 763 924 925
f 923 924 928 927
f 732 731 923 927
f 763 764 928 924
f 927 928 930 929
f 733 732 927 929
f 764 765 930 928
f 929 930 932 931
f 734 733 929 931
f 765 766 932 930
f 931 932 934 933
f 735 734 931 933
f 766 767 934 932
f 933 934 936 935
f 736 735 933 935
f 767 768 936 934
f 935 936 938 937
f 737 736 935 937
f 768 769 938 936
f 937 938 940 939
f 738 737 937 939
f 769 770 940 938
f 939 940 942 941
f 739 738 939 941
f 770 771 942 940
f 941 942 944 943
f 740 739 941 943
f 771 772 944 942
f 943 944 946 945
f 741 740 943 945
f 772 773 946 944
f 945 946 948 947
f 742 741 945 947
f 773 774 948 946
f 947 948 950 949
f 743 742 947 949
f 774 775 950 948
f 949 950 952 951
f 744 743 949 951
f 775 776 952 950
f 951 952 954 953
f 745 744 951 953
f 776 777 954 952
f 953 954 956 955
f 746 745 953 955
f 777 778 956 954
f 955 956 958 957
f 747 746 955 957
f 778 779 958 956
f 957 958 960 959
f 748 747 957 959
f 779 780 960 958
f 959 960 962 961
f 749 748 959 961
f 780 781 962 960
f 961 962 964 963
f 750 749 961 963
f 781 782 964 962
f 963 964 966 965
f 751 750 963 965
f 782 783 966 964
f 965 966 968 967
f 752 751 965 967
f 783 784 968 966
f 967 968 970 969
f 753 752 967 969
f 784 785 970 968
f 969 970 972 971
f 754 753 969 971
f 785 786 972 970
f 971 972 974 973
f 755 754 971 973
f 786 787 974 972
f 973 974 976 975
f 756 755 973 975
f 787 788 976 974
f 975 976 978 977
f 757 756 975 977
f 788 789 978 976
f 977 978 980 979
f 758 757 977 979
f 789 790 980 978
f 979 980 982 981
f 759 758 979 981
f 790 791 982 980
f 981 982 984 983
f 760 759 981 983
f 791 792 984 982
f 983 984 986 985
f 761 760 983 985
f 792 793 986 984
f 985 986 925 926
f 730 761 985 926
f 793 762 925 986
f 987 922 861 988
f 989 920 922 987
f 990 918 920 989
f 991 916 918 990
f 992 914 916 991
f 993 912 914 992
f 994 910 912 993
f 995 908 910 994
f 996 906 908 995
f 997 904 906 996
f 988 861 860 998
f 998 860 864 999
f 999 864 866 1000
f 1000 866 868 1001
f 1001 868 870 1002
f 1002 870 872 1003
f 1003 872 874 1004
f 1004 874 876 1005
f 1005 876 878 1006
f 1006 878 880 1007
f 1007 880 882 1008
f 1008 882 884 1009
f 1009 884 886 1010
f 1010 886 888 1011
f 1011 888 890 1012
f 1012 890 892 1013
f 1013 892 894 1014
f 1014 894 896 1015
f 1015 896 898 1016
f 1016 898 900 1017
f 1017 900 902 1018
f 1018 902 904 997
f 1022 1021 1020 1019
f 862 921 1022 1019
f 987 988 1020 1021
f 1024 1023 1021 1022
f 921 919 1024 1022
f 989 987 1021 1023
f 1026 1025 1023 1024
f 919 917 1026 1024
f 990 989 1023 1025
f 1028 1027 1025 1026
f 917 915 1028 1026
f 991 990 1025 1027
f 1030 1029 1027 1028
f 915 913 1030 1028
f 992 991 1027 1029
f 1032 1031 1029 1030
f 913 911 1032 1030
f 993 992 1029 1031
f 1034 1033 1031 1032
f 911 909 1034 1032
f 994 993 1031 1033
f 1036 1035 1033 1034
f 909 907 1036 1034
f 995 994 1033 1035
f 1038 1037 1035 1036
f 907 905 1038 1036
f 996 995 1035 1037
f 1040 1039 1037 1038
f 905 903 1040 1038
f 997 996 1037 1039
f 1019 1020 1042 1041
f 859 862 1019 1041
f 988 998 1042 1020
f 1041 1042 1044 1043
f 863 859 1041 1043
f 998 999 1044 1042
f 1043 1044 1046 1045
f 865 863 1043 1045
f 999 1000 1046 1044
f 1045 1046 1048 1047
f 867 865 1045 1047
f 1000 1001 1048 1046
f 1047 1048 1050 1049
f 869 867 1047 1049
f 1001 1002 1050 1048
f 1049 1050 1052 1051
f 871 869 1049 1051
f 1002 1003 1052 1050
f 1051 1052 1054 1053
f 873 871 1051 1053
f 1003 1004 1054 1052
f 1053 1054 1056 1055
f 875 873 1053 1055
f 1004 1005 1056 1054
f 1055 1056 1058 1057
f 877 875 1055 1057
f 1005 1006 1058 1056
f 1057 1058 1060 1059
f 879 877 1057 1059
f 1006 1007 1060 1058
f 1059 1060 1062 1061
f 881 879 1059 1061
f 1007 1008 1062 1060
f 1061 1062 1064 1063
f 883 881 1061 1063
f 1008 1009 1064 1062
f 1063 1064 1066 1065
f 885 883 1063 1065
f 1009 1010 1066 1064
f 1065 1066 1068 1067
f 887 885 1065 1067
f 1010 1011 1068 1066
f 1067 1068 1070 1069
f 889 887 1067 1069
f 1011 1012 1070 1068
f 1069 1070 1072 1071
f 891 889 1069 1071
f 1012 1013 1072 1070
f 1071 1072 1074 1073
f 893 891 1071 1073
f 1013 1014 1074 1072
f 1073 1074 1076 1075
f 895 893 1073 1075
f 1014 1015 1076 1074
f 1075 1076 1078 1077
f 897 895 1075 1077
f 1015 1016 1078 1076
f 1077 1078 1080 1079
f 899 897 1077 1079
f 1016 1017 1080 1078
f 1079 1080 1082 1081
f 901 899 1079 1081
f 1017 1018 1082 1080
f 1081 1082 1039 1040
f 903 901 1081 1040
f 1018 997 1039 1082
g Group59259
f 1083 1084 1085
f 1083 1085 1086
f 1083 1086 1087
f 1083 1087 1088
f 1083 1088 1089
f 1083 1089 1090
f 1083 1090 1091
f 1083 1091 1092
f 1083 1092 1093
f 1083 1093 1094
f 1083 1094 1095
f 1083 1095 1096
f 1083 1096 1097
f 1083 1097 1098
f 1083 1098 1099
f 1083 1099 1100
f 1083 1100 1101
f 1083 1101 1102
f 1083 1102 1103
f 1083 1103 1104
f 1083 1104 1105
f 1083 1105 1106
f 1083 1106 1107
f 1083 1107 1108
f 1083 1108 1109
f 1083 1109 1110
f 1083 1110 1111
f 1083 1111 1112
f 1083 1112 1113
f 1083 1113 1114
f 1083 1114 1115
f 1083 1115 1084
f 1084 1116 1117 1085
f 1085 1117 1118 1086
f 1086 1118 1119 1087
f 1087 1119 1120 1088
f 1088 1120 1121 1089
f 1089 1121 1122 1090
f 1090 1122 1123 1091
f 1091 1123 1124 1092
f 1092 1124 1125 1093
f 1093 1125 1126 1094
f 1094 1126 1127 1095
f 1095 1127 1128 1096
f 1096 1128 1129 1097
f 1097 1129 1130 1098
f 1098 1130 1131 1099
f 1099 1131 1132 1100
f 1100 1132 1133 1101
f 1101 1133 1134 1102
f 1102 1134 1135 1103
f 1103 1135 1136 1104
f 1104 1136 1137 1105
f 1105 1137 1138 1106
f 1106 1138 1139 1107
f 1107 1139 1140 1108
f 1108 1140 1141 1109
f 1109 1141 1142 1110
f 1110 1142 1143 1111
f 1111 1143 1144 1112
f 1112 1144 1145 1113
f 1113 1145 1146 1114
f 1114 1146 1147 1115
f 1115 1147 1116 1084
f 1116 1148 1149 1117
f 1117 1149 1150 1118
f 1118 1150 1151 1119
f 1119 1151 1152 1120
f 1120 1152 1153 1121
f 1121 1153 1154 1122
f 1122 1154 1155 1123
f 1123 1155 1156 1124
f 1124 1156 1157 1125
f 1125 1157 1158 1126
f 1126 1158 1159 1127
f 1127 1159 1160 1128
f 1128 1160 1161 1129
f 1129 1161 1162 1130
f 1130 1162 1163 1131
f 1131 1163 1164 1132
f 1132 1164 1165 1133
f 1133 1165 1166 1134
f 1134 1166 1167 1135
f 1135 1167 1168 1136
f 1136 1168 1169 1137
f 1137 1169 1170 1138
f 1138 1170 1171 1139
f 1139 1171 1172 1140
f 1140 1172 1173 1141
f 1141 1173 1174 1142
f 1142 1174 1175 1143
f 1143 1175 1176 1144
f 1144 1176 1177 1145
f 1145 1177 1178 1146
f 1146 1178 1179 1147
f 1147 1179 1148 1116
f 1148 1180 1181 1149
f 1149 1181 1182 1150
f 1150 1182 1183 1151
f 1151 1183 1184 1152
f 1152 1184 1185 1153
f 1153 1185 1186 1154
f 1154 1186 1187 1155
f 1155 1187 1188 1156
f 1156 1188 1189 1157
f 1157 1189 1190 1158
f 1158 1190 1191 1159
f 1159 1191 1192 1160
f 1160 1192 1193 1161
f 1161 1193 1194 1162
f 1162 1194 1195 1163
f 1163 1195 1196 1164
f 1164 1196 1197 1165
f 1165 1197 1198 1166
f 1166 1198 1199 1167
f 1167 1199 1200 1168
f 1168 1200 1201 1169
f 1169 1201 1202 1170
f 1170 1202 1203 1171
f 1171 1203 1204 1172
f 1172 1204 1205 1173
f 1173 1205 1206 1174
f 1174 1206 1207 1175
f 1175 1207 1208 1176
f 1176 1208 1209 1177
f 1177 1209 1210 1178
f 1178 1210 1211 1179
f 1179 1211 1180 1148
f 1180 1212 1213 1181
f 1181 1213 1214 1182
f 1182 1214 1215 1183
f 1183 1215 1216 1184
f 1184 1216 1217 1185
f 1185 1217 1218 1186
f 1186 1218 1219 1187
f 1187 1219 1220 1188
f 1188 1220 1221 1189
f 1189 1221 1222 1190
f 1190 1222 1223 1191
f 1191 1223 1224 1192
f 1192 1224 1225 1193
f 1193 1225 1226 1194
f 1194 1226 1227 1195
f 1195 1227 1228 1196
f 1196 1228 1229 1197
f 1197 1229 1230 1198
f 1198 1230 1231 1199
f 1199 1231 1232 1200
f 1200 1232 1233 1201
f 1201 1233 1234 1202
f 1202 1234 1235 1203
f 1203 1235 1236 1204
f 1204 1236 1237 1205
f 1205 1237 1238 1206
f 1206 1238 1239 1207
f 1207 1239 1240 1208
f 1208 1240 1241 1209
f 1209 1241 1242 1210
f 1210 1242 1243 1211
f 1211 1243 1212 1180
f 1212 1244 1245 1213
f 1213 1245 1246 1214
f 1214 1246 1247 1215
f 1215 1247 1248 1216
f 1216 1248 1249 1217
f 1217 1249 1250 1218
f 1218 1250 1251 1219
f 1219 1251 1252 1220
f 1220 1252 1253 1221
f 1221 1253 1254 1222
f 1222 1254 1255 1223
f 1223 1255 1256 1224
f 1224 1256 1257 1225
f 1225 1257 1258 1226
f 1226 1258 1259 1227
f 1227 1259 1260 1228
f 1228 1260 1261 1229
f 1229 1261 1262 1230
f 1230 1262 1263 1231
f 1231 1263 1264 1232
f 1232 1264 1265 1233
f 1233 1265 1266 1234
f 1234 1266 1267 1235
f 1235 1267 1268 1236
f 1236 1268 1269 1237
f 1237 1269 1270 1238
f 1238 1270 1271 1239
f 1239 1271 1272 1240
f 1240 1272 1273 1241
f 1241 1273 1274 1242
f 1242 1274 1275 1243
f 1243 1275 1244 1212
f 1244 1276 1277 1245
f 1245 1277 1278 1246
f 1246 1278 1279 1247
f 1247 1279 1280 1248
f 1248 1280 1281 1249
f 1249 1281 1282 1250
f 1250 1282 1283 1251
f 1251 1283 1284 1252
f 1252 1284 1285 1253
f 1253 1285 1286 1254
f 1254 1286 1287 1255
f 1255 1287 1288 1256
f 1256 1288 1289 1257
f 1257 1289 1290 1258
f 1258 1290 1291 1259
f 1259 1291 1292 1260
f 1260 1292 1293 1261
f 1261 1293 1294 1262
f 1262 1294 1295 1263
f 1263 1295 1296 1264
f 1264 1296 1297 1265
f 1265 1297 1298 1266
f 1266 1298 1299 1267
f 1267 1299 1300 1268
f 1268 1300 1301 1269
f 1269 1301 1302 1270
f 1270 1302 1303 1271
f 1271 1303 1304 1272
f 1272 1304 1305 1273
f 1273 1305 1306 1274
f 1274 1306 1307 1275
f 1275 1307 1276 1244
f 1276 1308 1309 1277
f 1277 1309 1310 1278
f 1278 1310 1311 1279
f 1279 1311 1312 1280
f 1280 1312 1313 1281
f 1281 1313 1314 1282
f 1282 1314 1315 1283
f 1283 1315 1316 1284
f 1284 1316 1317 1285
f 1285 1317 1318 1286
f 1286 1318 1319 1287
f 1287 1319 1320 1288
f 1288 1320 1321 1289
f 1289 1321 1322 1290
f 1290 1322 1323 1291
f 1291 1323 1324 1292
f 1292 1324 1325 1293
f 1293 1325 1326 1294
f 1294 1326 1327 1295
f 1295 1327 1328 1296
f 1296 1328 1329 1297
f 1297 1329 1330 1298
f 1298 1330 1331 1299
f 1299 1331 1332 1300
f 1300 1332 1333 1301
f 1301 1333 1334 1302
f 1302 1334 1335 1303
f 1303 1335 1336 1304
f 1304 1336 1337 1305
f 1305 1337 1338 1306
f 1306 1338 1339 1307
f 1307 1339 1308 1276
f 1340 1341 1342
f 1340 1342 1343
f 1340 1343 1344
f 1340 1344 1345
f 1340 1345 1346
f 1340 1346 1347
f 1340 1347 1348
f 1340 1348 1349
f 1340 1349 1350
f 1340 1350 1351
f 1340 1351 1352
f 1340 1352 1353
f 1340 1353 1354
f 1340 1354 1355
f 1340 1355 1356
f 1340 1356 1357
f 1340 1357 1358
f 1340 1358 1359
f 1340 1359 1360
f 1340 1360 1361
f 1340 1361 1362
f 1340 1362 1363
f 1340 1363 1364
f 1340 1364 1365
f 1340 1365 1366
f 1340 1366 1367
f 1340 1367 1368
f 1340 1368 1369
f 1340 1369 1370
f 1340 1370 1371
f 1340 1371 1372
f 1340 1372 1341
f 1341 1373 1374 1342
f 1342 1374 1375 1343
f 1343 1375 1376 1344
f 1344 1376 1377 1345
f 1345 1377 1378 1346
f 1346 1378 1379 1347
f 1347 1379 1380 1348
f 1348 1380 1381 1349
f 1349 1381 1382 1350
f 1350 1382 1383 1351
f 1351 1383 1384 1352
f 1352 1384 1385 1353
f 1353 1385 1386 1354
f 1354 1386 1387 1355
f 1355 1387 1388 1356
f 1356 1388 1389 1357
f 1357 1389 1390 1358
f 1358 1390 1391 1359
f 1359 1391 1392 1360
f 1360 1392 1393 1361
f 1361 1393 1394 1362
f 1362 1394 1395 1363
f 1363 1395 1396 1364
f 1364 1396 1397 1365
f 1365 1397 1398 1366
f 1366 1398 1399 1367
f 1367 1399 1400 1368
f 1368 1400 1401 1369
f 1369 1401 1402 1370
f 1370 1402 1403 1371
f 1371 1403 1404 1372
f 1372 1404 1373 1341
f 1373 1405 1406 1374
f 1374 1406 1407 1375
f 1375 1407 1408 1376
f 1376 1408 1409 1377
f 1377 1409 1410 1378
f 1378 1410 1411 1379
f 1379 1411 1412 1380
f 1380 1412 1413 1381
f 1381 1413 1414 1382
f 1382 1414 1415 1383
f 1383 1415 1416 1384
f 1384 1416 1417 1385
f 1385 1417 1418 1386
f 1386 1418 1419 1387
f 1387 1419 1420 1388
f 1388 1420 1421 1389
f 1389 1421 1422 1390
f 1390 1422 1423 1391
f 1391 1423 1424 1392
f 1392 1424 1425 1393
f 1393 1425 1426 1394
f 1394 1426 1427 1395
f 1395 1427 1428 1396
f 1396 1428 1429 1397
f 1397 1429 1430 1398
f 1398 1430 1431 1399
f 1399 1431 1432 1400
f 1400 1432 1433 1401
f 1401 1433 1434 1402
f 1402 1434 1435 1403
f 1403 1435 1436 1404
f 1404 1436 1405 1373
f 1405 1437 1438 1406
f 1406 1438 1439 1407
f 1407 1439 1440 1408
f 1408 1440 1441 1409
f 1409 1441 1442 1410
f 1410 1442 1443 1411
f 1411 1443 1444 1412
f 1412 1444 1445 1413
f 1413 1445 1446 1414
f 1414 1446 1447 1415
f 1415 1447 1448 1416
f 1416 1448 1449 1417
f 1417 1449 1450 1418
f 1418 1450 1451 1419
f 1419 1451 1452 1420
f 1420 1452 1453 1421
f 1421 1453 1454 1422
f 1422 1454 1455 1423
f 1423 1455 1456 1424
f 1424 1456 1457 1425
f 1425 1457 1458 1426
f 1426 1458 1459 1427
f 1427 1459 1460 1428
f 1428 1460 1461 1429
f 1429 1461 1462 1430
f 1430 1462 1463 1431
f 1431 1463 1464 1432
f 1432 1464 1465 1433
f 1433 1465 1466 1434
f 1434 1466 1467 1435
f 1435 1467 1468 1436
f 1436 1468 1437 1405
f 1437 1469 1470 1438
f 1438 1470 1471 1439
f 1439 1471 1472 1440
f 1440 1472 1473 1441
f 1441 1473 1474 1442
f 1442 1474 1475 1443
f 1443 1475 1476 1444
f 1444 1476 1477 1445
f 1445 1477 1478 1446
f 1446 1478 1479 1447
f 1447 1479 1480 1448
f 1448 1480 1481 1449
f 1449 1481 1482 1450
f 1450 1482 1483 1451
f 1451 1483 1484 1452
f 1452 1484 1485 1453
f 1453 1485 1486 1454
f 1454 1486 1487 1455
f 1455 1487 1488 1456
f 1456 1488 1489 1457
f 1457 1489 1490 1458
f 1458 1490 1491 1459
f 1459 1491 1492 1460
f 1460 1492 1493 1461
f 1461 1493 1494 1462
f 1462 1494 1495 1463
f 1463 1495 1496 1464
f 1464 1496 1497 1465
f 1465 1497 1498 1466
f 1466 1498 1499 1467
f 1467 1499 1500 1468
f 1468 1500 1469 1437
f 1469 1501 1502 1470
f 1470 1502 1503 1471
f 1471 1503 1504 1472
f 1472 1504 1505 1473
f 1473 1505 1506 1474
f 1474 1506 1507 1475
f 1475 1507 1508 1476
f 1476 1508 1509 1477
f 1477 1509 1510 1478
f 1478 1510 1511 1479
f 1479 1511 1512 1480
f 1480 1512 1513 1481
f 1481 1513 1514 1482
f 1482 1514 1515 1483
f 1483 1515 1516 1484
f 1484 1516 1517 1485
f 1485 1517 1518 1486
f 1486 1518 1519 1487
f 1487 1519 1520 1488
f 1488 1520 1521 1489
f 1489 1521 1522 1490
f 1490 1522 1523 1491
f 1491 1523 1524 1492
f 1492 1524 1525 1493
f 1493 1525 1526 1494
f 1494 1526 1527 1495
f 1495 1527 1528 1496
f 1496 1528 1529 1497
f 1497 1529 1530 1498
f 1498 1530 1531 1499
f 1499 1531 1532 1500
f 1500 1532 1501 1469
f 1501 1533 1534 1502
f 1502 1534 1535 1503
f 1503 1535 1536 1504
f 1504 1536 1537 1505
f 1505 1537 1538 1506
f 1506 1538 1539 1507
f 1507 1539 1540 1508
f 1508 1540 1541 1509
f 1509 1541 1542 1510
f 1510 1542 1543 1511
f 1511 1543 1544 1512
f 1512 1544 1545 1513
f 1513 1545 1546 1514
f 1514 1546 1547 1515
f 1515 1547 1548 1516
f 1516 1548 1549 1517
f 1517 1549 1550 1518
f 1518 1550 1551 1519
f 1519 1551 1552 1520
f 1520 1552 1553 1521
f 1521 1553 1554 1522
f 1522 1554 1555 1523
f 1523 1555 1556 1524
f 1524 1556 1557 1525
f 1525 1557 1558 1526
f 1526 1558 1559 1527
f 1527 1559 1560 1528
f 1528 1560 1561 1529
f 1529 1561 1562 1530
f 1530 1562 1563 1531
f 1531 1563 1564 1532
f 1532 1564 1533 1501
f 1533 1308 1339 1534
f 1534 1339 1338 1535
f 1535 1338 1337 1536
f 1536 1337 1336 1537
f 1537 1336 1335 1538
f 1538 1335 1334 1539
f 1539 1334 1333 1540
f 1540 1333 1332 1541
f 1541 1332 1331 1542
f 1542 1331 1330 1543
f 1543 1330 1329 1544
f 1544 1329 1328 1545
f 1545 1328 1327 1546
f 1546 1327 1326 1547
f 1547 1326 1325 1548
f 1548 1325 1324 1549
f 1549 1324 1323 1550
f 1550 1323 1322 1551
f 1551 1322 1321 1552
f 1552 1321 1320 1553
f 1553 1320 1319 1554
f 1554 1319 1318 1555
f 1555 1318 1317 1556
f 1556 1317 1316 1557
f 1557 1316 1315 1558
f 1558 1315 1314 1559
f 1559 1314 1313 1560
f 1560 1313 1312 1561
f 1561 1312 1311 1562
f 1562 1311 1310 1563
f 1563 1310 1309 1564
f 1564 1309 1308 1533

 