# File exported by ZBrush version 2021
# www.zbrush.com
#Vertex Count 534
#Face Count 536
#Auto scale x=1.000000 y=1.000000 z=1.000000
#Auto offset x=0.000000 y=0.000000 z=0.000000
v -0.71029996 -0.1816318 -0.12212517
v -0.53475511 -0.15074777 -0.12212529
v -0.35880118 -0.11025142 -0.1221247
v -0.18293324 -0.0717436 -0.12212482
v -0.00839658 -0.06460773 -0.1221247
v 0.16455884 -0.09472429 -0.1221247
v 0.33655482 -0.14746618 -0.12212476
v 0.50899338 -0.18975424 -0.12212476
v 0.68204188 -0.21766293 -0.12212476
v -0.70657455 -0.03761422 -0.12212532
v -0.53095185 -0.00493836 -0.12212526
v -0.3549183 0.03744918 -0.12212485
v -0.17899571 0.07724469 -0.12212476
v -0.00444382 0.08472728 -0.1221247
v 0.16847075 0.0536375 -0.12212482
v 0.3403953 -0.00079035 -0.12212485
v 0.51277101 -0.04458177 -0.12212491
v 0.68576955 -0.07364571 -0.12212473
v -0.70284748 0.1064046 -0.12212526
v -0.52721905 0.13923591 -0.12212529
v -0.35120397 0.1811701 -0.12212476
v -0.17531473 0.22016477 -0.12212473
v -0.000773 0.22742915 -0.12212473
v 0.17215336 0.19661808 -0.12212479
v 0.34410697 0.14288008 -0.12212485
v 0.51649677 0.09943127 -0.12212476
v 0.68949449 0.07037288 -0.12212482
v -0.53562998 -0.1713227 0.12212444
v -0.71030068 -0.18163108 0.12212447
v -0.36069536 -0.15488588 0.12212436
v -0.1857023 -0.13698732 0.12212436
v -0.01141341 -0.13570332 0.12212444
v 0.16207498 -0.15325284 0.12212444
v 0.33508995 -0.18196833 0.12212444
v 0.50837945 -0.20418763 0.12212436
v 0.68204164 -0.21766316 0.1221244
v -0.53187584 -0.02664506 0.12212435
v -0.70657455 -0.0376141 0.12212435
v -0.35690629 -0.00939357 0.12212435
v -0.18187834 0.0093097 0.12212444
v -0.00758974 0.01058942 0.12212435
v 0.16587786 -0.00747561 0.12212435
v 0.33884459 -0.03731679 0.12212438
v 0.51211714 -0.05996465 0.12212435
v 0.68576955 -0.07364594 0.12212443
v -0.52812492 0.11790239 0.12212443
v -0.70284724 0.10640454 0.12212436
v -0.35313487 0.13565105 0.12212443
v -0.17809818 0.15457904 0.12212441
v -0.00381133 0.15582937 0.12212427
v 0.16964596 0.13752818 0.12212434
v 0.34259635 0.10728102 0.12212432
v 0.51585257 0.08431881 0.12212443
v 0.68949425 0.07037276 0.12212436
v -0.53906548 -0.30853927 0.00714173
v 0.51988267 0.23541152 0.00714224
v -0.36378672 -0.2839396 0.00714232
v 0.34701445 0.2675997 0.00714218
v -0.18849998 -0.25912582 0.00714229
v -0.01410596 -0.2553544 0.00714228
v 0.17448537 0.30775225 0.00714231
v 0.15920372 -0.27711391 0.00714228
v 0.00126612 0.33167815 0.00714223
v 0.33189415 -0.31348836 0.00714235
v 0.5048778 -0.34291994 0.00714227
v -0.17313507 0.32770967 0.00714223
v -0.34852579 0.30046105 0.00714227
v -0.52397704 0.27180862 0.00714171
v 0.54172086 0.07419669 -0.17029318
v 0.51563632 0.07916486 -0.1466906
v 0.54754447 0.29924553 0.0071422
v 0.52035987 0.26279437 0.00714221
v 0.54172098 0.07419699 0.17029294
v 0.51547873 0.0754891 0.14669016
v 0.52844297 -0.43888711 0.00714226
v 0.50329279 -0.39639306 0.00714233
v 0.53426647 -0.21383822 0.17029318
v 0.50802671 -0.21249687 0.14669036
v 0.53426682 -0.21383881 -0.17029312
v 0.50816428 -0.20929753 -0.14669054
v 0.53799462 -0.06982123 0.17029297
v 0.51175129 -0.06856298 0.14669013
v 0.5379945 -0.06982147 -0.17029309
v 0.51190567 -0.0649569 -0.14669051
v 0.68949437 0.07037264 -0.14669057
v 0.69429183 0.25571656 0.00714227
v 0.68949472 0.07037288 0.14669024
v 0.67724454 -0.40300583 0.00714235
v 0.68204212 -0.21766281 0.14669027
v 0.6820414 -0.21766352 -0.14669051
v 0.68576932 -0.07364594 0.14669027
v 0.68576943 -0.07364571 -0.14669051
v 0.65816402 0.07118362 -0.17029315
v 0.66398775 0.2962315 0.0071422
v 0.6581645 0.07118332 0.17029273
v 0.64488637 -0.44190073 0.00714229
v 0.65070974 -0.21685183 0.17029288
v 0.65070962 -0.2168523 -0.17029312
v 0.6544367 -0.07283413 0.17029288
v 0.65443658 -0.07283437 -0.17029315
v -0.56678855 -0.39870309 0.00714183
v -0.54069376 -0.36063671 0.00714177
v -0.56127131 -0.18548679 0.16328129
v -0.53614509 -0.18350768 0.14311465
v -0.56126523 -0.18534135 -0.16328179
v -0.53586506 -0.17691385 -0.14311537
v -0.5575453 -0.04147088 0.16328132
v -0.53241086 -0.03930354 0.14311465
v -0.55753564 -0.04124486 -0.16328188
v -0.53210759 -0.03214502 -0.14311546
v -0.55380153 0.10290533 -0.16328194
v -0.52836501 0.11222916 -0.14311546
v -0.54828906 0.31598484 0.00714175
v -0.5238794 0.28790092 0.00714171
v -0.5538181 0.10254764 0.16328117
v -0.52867376 0.10492461 0.14311459
v -0.7149409 -0.36096048 0.00714185
v -0.7103008 -0.1816312 0.14311468
v -0.71029949 -0.18163073 -0.14311537
v -0.70657479 -0.0376141 0.14311456
v -0.70657432 -0.03761148 -0.14311546
v -0.70284581 0.10641092 -0.14311546
v -0.6982057 0.28573393 0.00714177
v -0.70284712 0.1064049 0.1431145
v -0.69063198 -0.39552211 0.00714185
v -0.68511486 -0.18228364 0.16328114
v -0.68511152 -0.18222975 -0.16328185
v -0.68138623 -0.03826558 0.16328117
v -0.68138277 -0.03817486 -0.16328191
v -0.67765319 0.10590201 -0.16328194
v -0.67213726 0.31908148 0.0071417
v -0.67765939 0.10575211 0.16328114
v -0.3634133 -0.27513194 -0.06124047
v -0.53889381 -0.30447447 -0.061241
v -0.18794676 -0.24609112 -0.06124052
v -0.01350824 -0.24126792 -0.06124053
v 0.15969677 -0.26550722 -0.06124055
v 0.33217689 -0.3068403 -0.0612405
v 0.50499343 -0.34018039 -0.06124052
v -0.53922355 -0.31223487 0.06578267
v -0.36413261 -0.29207587 0.06578327
v -0.1890155 -0.27128016 0.06578318
v -0.01466805 -0.26859879 0.06578324
v 0.15874257 -0.28799641 0.06578324
v 0.33162781 -0.31976747 0.06578315
v 0.50476825 -0.34548664 0.06578325
v 0.50314295 -0.40248334 -0.09217861
v 0.50311005 -0.40311956 0.09218821
v 0.52844393 -0.43888711 -0.10940897
v 0.52844297 -0.43888711 0.10940869
v 0.67779052 -0.38193059 0.00714229
v 0.67772674 -0.38440072 -0.07474525
v 0.67716491 -0.40608859 -0.08881205
v 0.67772722 -0.38440036 0.07928808
v 0.67717075 -0.40589332 0.0888139
v 0.64488565 -0.44190037 -0.10940897
v 0.64488649 -0.44190073 0.10940875
v -0.54073858 -0.36317277 -0.08596324
v -0.54083001 -0.3652749 0.08596603
v -0.56678628 -0.39866924 -0.10239777
v -0.56678962 -0.3987267 0.10239706
v -0.71455049 -0.34592127 -0.07329091
v -0.7144742 -0.34295177 0.00714186
v -0.71503543 -0.36462259 -0.08584982
v -0.71455049 -0.34592127 0.07783328
v -0.71502888 -0.36437654 0.08585267
v -0.6906315 -0.39550638 -0.10239777
v -0.6906321 -0.39553141 0.10239701
v 0.34733021 0.27501595 -0.08245772
v 0.52001619 0.23858881 -0.08245781
v 0.17500406 0.31999206 -0.08245778
v 0.00189164 0.34642183 -0.08245784
v -0.17255979 0.341268 -0.08245778
v -0.3481228 0.30994939 -0.08245772
v -0.52378428 0.27637231 -0.08245822
v 0.51974296 0.23213988 0.08245724
v 0.34669008 0.25993561 0.08245724
v 0.17394797 0.29508888 0.08245731
v 0.00061609 0.31636261 0.08245727
v -0.17373034 0.31368207 0.08245711
v -0.34894052 0.29069328 0.0824573
v -0.52417087 0.26721894 0.0824573
v 0.5205996 0.27158069 -0.11337959
v 0.52052414 0.26971328 0.11338546
v 0.54754447 0.29924535 -0.13062635
v 0.54754447 0.29924565 0.13062572
v 0.69381058 0.23710906 -0.09596246
v 0.6937462 0.23464012 0.00714227
v 0.69438898 0.25948035 -0.11002561
v 0.6938107 0.23710966 0.09596204
v 0.69438529 0.2593531 0.11002679
v 0.66398787 0.2962315 -0.13062635
v 0.66398799 0.29623162 0.13062584
v -0.52368819 0.29420173 -0.10717412
v -0.52383303 0.29074394 0.10717578
v -0.54828333 0.316141 -0.12361517
v -0.54829418 0.31587827 0.12361409
v -0.69867134 0.26772379 0.00714173
v -0.69859492 0.27069312 -0.09450821
v -0.69808876 0.29023432 -0.1070612
v -0.69859528 0.27069294 0.09450767
v -0.69809293 0.29006993 0.10706281
v -0.67213499 0.31914937 -0.12361505
v -0.67214047 0.3190329 0.12361413
v -0.71126914 -0.21909153 -0.12212517
v -0.53660905 -0.20902895 0.12212446
v -0.361685 -0.19281327 0.12212436
v -0.53583073 -0.19067895 -0.12212526
v -0.35998553 -0.15277504 -0.1221247
v -0.18670488 -0.17524313 0.12212447
v -0.18420159 -0.11625134 -0.12212476
v -0.01240835 -0.17376899 0.12212436
v -0.0096861 -0.10961687 -0.12212482
v 0.16108495 -0.19121491 0.1221244
v 0.16332596 -0.13840782 -0.12212467
v 0.33412188 -0.21940183 0.12212427
v 0.33542802 -0.18863856 -0.12212476
v 0.50741207 -0.24160289 0.12212444
v 0.50795447 -0.22885096 -0.12212465
v 0.68107259 -0.25512242 -0.12212462
v -0.71126866 -0.21909129 0.12212435
v 0.68107259 -0.25512242 0.12212428
v 0.50661933 -0.26699888 0.14845514
v 0.5067327 -0.26435494 -0.14845481
v 0.53226649 -0.29112148 0.17029282
v 0.53226649 -0.29112243 -0.17029309
v 0.68070244 -0.26942873 0.14750433
v 0.68070185 -0.26942896 -0.14750465
v 0.64870977 -0.29413569 0.17029285
v 0.64871001 -0.2941358 -0.17029315
v -0.53742373 -0.23285722 0.14410185
v -0.53718209 -0.22716724 -0.14410275
v -0.56296694 -0.25097584 0.16328114
v -0.56296169 -0.25087618 -0.16328179
v -0.71157455 -0.23085963 0.14407098
v -0.71157419 -0.23085916 -0.14407172
v -0.68680858 -0.2477715 0.16328114
v -0.68680632 -0.24773168 -0.16328185
v -0.36189863 -0.22193968 -0.09992805
v -0.53757059 -0.25582051 -0.09992869
v -0.18626049 -0.18885505 -0.09992811
v -0.01178039 -0.18305039 -0.09992869
v 0.16132184 -0.20971739 -0.09992811
v 0.33359766 -0.25583744 -0.09992814
v 0.50626111 -0.29282808 -0.09992814
v 0.67924809 -0.32558667 -0.10461548
v -0.53820109 -0.2711544 0.10050405
v -0.36322832 -0.25379729 0.10050413
v -0.18821267 -0.23538923 0.1005041
v -0.01389694 -0.2334578 0.10050403
v 0.1595733 -0.25143539 0.10050413
v 0.33257487 -0.28049016 0.10050413
v 0.50581812 -0.30378484 0.1005041
v -0.71310734 -0.2901411 0.10503047
v 0.50473618 -0.34123516 -0.13034582
v 0.50465512 -0.34307551 0.13030752
v 0.53026378 -0.36853015 -0.15123304
v 0.53026366 -0.36853158 0.15123289
v 0.67873704 -0.34534728 -0.12832066
v 0.67873752 -0.34531283 0.1283015
v 0.67921245 -0.32699823 0.10564627
v 0.64670717 -0.37154328 -0.15123301
v 0.64670646 -0.37154376 0.15123274
v -0.53918063 -0.30370545 -0.12488052
v -0.53935909 -0.30794644 0.1248549
v -0.56496465 -0.3282926 -0.14422175
v -0.5649693 -0.3283832 0.14422118
v -0.71307063 -0.28871321 -0.1040456
v -0.71352708 -0.30631732 -0.12481296
v -0.71352517 -0.30627036 0.12478768
v -0.68881046 -0.32514059 -0.14422184
v -0.68881118 -0.32518065 0.14422106
v 0.69051551 0.10979044 -0.12212482
v 0.517488 0.1381756 -0.12212476
v 0.34505504 0.18059754 -0.12212485
v 0.34364751 0.14741909 0.12212434
v 0.51688766 0.12404066 0.1221245
v 0.17304123 0.23291587 -0.12212485
v 0.17071148 0.1780008 0.12212424
v 0.00008899 0.26311862 -0.12212479
v -0.00273068 0.19667124 0.12212431
v -0.17443831 0.25619268 -0.12212473
v -0.17702251 0.19529277 0.12212431
v -0.35027208 0.21849173 -0.12212485
v -0.35207036 0.17613577 0.12212427
v -0.52623355 0.17782187 -0.12212517
v -0.5270828 0.15783697 0.12212427
v -0.70182704 0.14582264 -0.12212514
v 0.69051551 0.10979038 0.12212425
v -0.70182681 0.14582252 0.12212441
v 0.5178554 0.16492986 -0.14946088
v 0.51770639 0.16146719 0.14946046
v 0.54469001 0.18894112 -0.17029315
v 0.54468989 0.18894046 0.17029288
v 0.69156813 0.15048843 -0.14795073
v 0.69156777 0.1504879 0.14795041
v 0.66113305 0.18592703 -0.17029312
v 0.66113245 0.18592649 0.17029282
v -0.5264194 0.18745756 -0.14462289
v -0.5267142 0.18050718 0.14462208
v -0.5511341 0.20594143 -0.16328191
v -0.5511533 0.20549666 0.16328111
v -0.70090031 0.18155306 -0.14457535
v -0.70090127 0.18154537 0.14457443
v -0.67498564 0.20889365 -0.16328182
v -0.67499554 0.20870137 0.16328114
v 0.3466528 0.24505066 -0.10380768
v 0.51919353 0.20516109 -0.10380776
v 0.518718 0.19395577 0.10380718
v 0.34554433 0.21893596 0.10380708
v 0.1745031 0.29416036 -0.10380768
v 0.17267562 0.25109201 0.10380712
v 0.00148166 0.32274031 -0.10380771
v -0.0007248 0.27074074 0.10380721
v -0.17301246 0.31658482 -0.10380771
v -0.17503713 0.26887369 0.10380727
v -0.34872725 0.28170806 -0.10380771
v -0.35014054 0.24838268 0.10380712
v -0.52456045 0.2440707 -0.10380819
v -0.52523267 0.22818988 0.10380727
v -0.69985163 0.22213423 -0.10992306
v 0.69250667 0.18676418 0.11068773
v 0.51977145 0.23916989 -0.13268372
v 0.51964914 0.23633241 0.1326479
v 0.54661512 0.26333105 -0.15197607
v 0.54661524 0.26333105 0.15197575
v 0.69349682 0.22497677 -0.13038629
v 0.69250667 0.18676394 -0.11068829
v 0.69349563 0.22494739 0.13036838
v 0.66305851 0.26031649 -0.1519761
v 0.66305828 0.26031649 0.15197572
v -0.52451932 0.26128721 -0.12726497
v -0.52475976 0.25558382 0.12724152
v -0.54920911 0.28032457 -0.14496496
v -0.54922664 0.27989625 0.14496401
v -0.69897222 0.25606012 -0.12718921
v -0.69897377 0.25601857 0.1271668
v -0.69985163 0.22213429 0.10992221
v -0.67306256 0.28328073 -0.14496484
v -0.67306995 0.28309416 0.14496401
v 0.64206552 -0.07251441 0.00714229
v 0.63833868 -0.21653127 0.00714232
v 0.6383388 -0.21653115 -0.12212467
v 0.64206552 -0.07251441 -0.12212473
v 0.6457932 0.0715034 0.00714229
v 0.64579188 0.07150399 -0.1221247
v 0.64206659 -0.07251417 0.12212444
v 0.63833952 -0.21653175 0.12212436
v 0.64579284 0.07150358 0.12212428
v 0.63737046 -0.25399184 0.00714228
v 0.63737058 -0.25399208 -0.1221247
v 0.63737046 -0.25399172 0.12212444
v 0.63554549 -0.32445526 -0.10461551
v 0.63528716 -0.33448243 0.00714234
v 0.63408839 -0.38079953 0.00714236
v 0.63402438 -0.38326883 -0.07474528
v 0.63402533 -0.38326811 0.0792885
v 0.63551032 -0.32586717 0.10564627
v 0.64681327 0.11092197 0.00714226
v 0.64681327 0.11092197 -0.12212488
v 0.64681327 0.11092215 0.12212451
v 0.6488049 0.18789577 0.11068782
v 0.64889693 0.19141364 0.00714227
v 0.65004468 0.23577237 0.00714217
v 0.65010869 0.23824131 0.09596189
v 0.65010917 0.23824119 -0.09596249
v 0.64880478 0.18789506 -0.11068815
v -0.66934144 -0.18269062 0.00714172
v -0.66561651 -0.03867387 0.00714177
v -0.66561555 -0.03867387 -0.12212523
v -0.66934192 -0.18269074 -0.12212517
v -0.66188812 0.10534441 0.00714173
v -0.661888 0.10534447 -0.12212532
v -0.66934132 -0.18269157 0.12212444
v -0.66561627 -0.03867375 0.12212432
v -0.66188871 0.10534387 0.12212436
v -0.67031061 -0.22015059 0.00714176
v -0.67031097 -0.22015023 -0.12212505
v -0.67031109 -0.22015035 0.12212446
v -0.67215001 -0.29120016 0.10503039
v -0.67235696 -0.29919767 0.00714185
v -0.67351567 -0.34401178 0.00714182
v -0.67359292 -0.34697914 0.07783319
v -0.67359244 -0.34697961 -0.07329097
v -0.67211294 -0.2897737 -0.1040456
v -0.66086745 0.14476186 0.00714171
v -0.66086757 0.14476198 -0.12212526
v -0.66086757 0.14476209 0.12212443
v -0.65889334 0.22107535 -0.10992306
v -0.65882265 0.2238093 0.00714171
v -0.65771257 0.26666379 0.00714173
v -0.65763568 0.26963281 -0.09450824
v -0.65763628 0.26963245 0.09450776
v -0.65889322 0.2210744 0.10992221
v -0.26828238 -0.03178405 0.02198774
v -0.81635928 0.03973007 0.02198773
v -1.19194936 0.29521954 0.02198771
v -1.51381862 0.70506501 0.02198768
v -1.76047921 1.24189198 0.02198763
v -1.91545069 1.86985611 0.02198765
v -1.96838855 2.5470314 0.02198763
v -0.26828223 -0.03178358 -0.02756976
v -0.81635916 0.03972983 -0.02756979
v -1.91545069 1.86985611 -0.02756987
v -1.76047921 1.24189198 -0.02756986
v -1.19194936 0.29521954 -0.02756984
v -1.96838855 2.5470314 -0.02756992
v -1.51381862 0.70506501 -0.02756981
v -0.80582881 0.10967707 -0.02756976
v -0.27283573 0.04032409 -0.02756978
v -0.27283585 0.04032415 0.02198773
v -0.8058294 0.10967665 0.02198771
v -1.72662711 1.27728164 -0.02756986
v -1.48538196 0.75535994 -0.02756984
v -1.72662711 1.27728164 0.02198766
v -1.87909901 1.88883364 0.02198763
v -1.17149424 0.35743928 -0.02756979
v -1.17149424 0.35743928 0.0219877
v -1.87909901 1.88883364 -0.02756987
v -1.93249523 2.54966783 -0.02756992
v -1.93249523 2.54966783 0.02198763
v -1.48538196 0.75535994 0.02198767
v -1.54129242 0.66090911 0.02198753
v -1.79248523 1.21176636 0.02198748
v -2.00144004 2.54702806 -0.02756995
v -2.00144004 2.54702806 0.02198748
v -1.21249365 0.23955404 0.02198754
v -1.94931983 1.85493183 -0.02756986
v -1.94931983 1.85493183 0.02198747
v -1.79248523 1.21176636 -0.02756984
v -1.54129242 0.66090911 -0.0275698
v -0.82809686 -0.02378869 -0.0275698
v -0.26652985 -0.09857952 -0.02756974
v -0.26652985 -0.09857952 0.02198756
v -0.8280971 -0.02378881 0.02198754
v -1.21249365 0.23955404 -0.0275698
v -1.94085991 3.04158496 -0.02756997
v -1.97749996 3.00490188 -0.02756993
v -1.97847151 2.99502468 0.02198744
v -1.94231212 3.02847433 0.02198761
v -1.91145324 2.98424768 -0.02756996
v -1.91172134 2.98168373 0.02198762
v -0.27283585 0.04032415 -0.00450636
v -0.26828223 -0.03178358 -0.00450638
v -0.78394413 0.24909055 -0.00450639
v -0.28092697 0.18459391 -0.00450638
v -1.84749651 3.70099353 -0.00450658
v -1.76107561 3.86782121 -0.00450646
v -2.05977582 2.89664125 -0.00450676
v -1.65868043 1.34706974 -0.00450643
v -1.42806553 0.85502421 -0.00450641
v -2.02562952 1.82059705 -0.00450675
v -2.07598686 2.54643011 -0.00450675
v -1.80632865 1.92582762 -0.00450646
v -1.86448216 1.14313769 -0.00450672
v -0.26652985 -0.09857952 -0.00450646
v -0.26183712 -0.24916958 -0.00450665
v -0.85396552 -0.16736686 -0.00450665
v -1.12993013 0.48112332 -0.0045064
v -1.86079108 2.55410623 -0.00450647
v -1.25833261 0.11349213 -0.00450667
v -1.60291183 0.56068223 -0.00450667
v -1.7918694 3.63979196 -0.00450647
v -1.85237252 2.86069822 -0.00450646
v 0.25240284 0.00534629 0.02198774
v 0.80100643 -0.05684173 0.02198772
v 1.17820286 -0.3058815 0.02198771
v 1.50260031 -0.71015 0.02198771
v 1.75254011 -1.24264001 0.02198772
v 1.91133797 -1.8677895 0.02198771
v 1.96837604 -2.54386758 0.02198778
v 0.25240296 0.00534629 -0.02756976
v 0.80100631 -0.05684185 -0.0275698
v 1.91133797 -1.8677895 -0.02756971
v 1.75254011 -1.24264001 -0.02756977
v 1.17820286 -0.3058815 -0.0275698
v 1.96837604 -2.54386758 -0.02756971
v 1.50260031 -0.71015 -0.02756984
v 0.79089307 -0.12694621 -0.02756981
v 0.2573916 -0.06666481 -0.02756977
v 0.2573916 -0.06666493 0.02198774
v 0.79089307 -0.12694621 0.02198771
v 1.71890246 -1.27859497 -0.02756981
v 1.47446787 -0.76091265 -0.02756984
v 1.71890246 -1.27859497 0.02198771
v 1.87509644 -1.88737726 0.02198774
v 1.15811634 -0.3684324 -0.02756981
v 1.15811634 -0.3684324 0.02198769
v 1.87509644 -1.88737726 -0.02756977
v 1.93248856 -2.54710865 -0.02756971
v 1.93248856 -2.54710865 0.02198778
v 1.47446787 -0.76091265 0.02198771
v 1.52981817 -0.66553807 0.02198755
v 1.78437709 -1.21197938 0.02198757
v 2.00143241 -2.54330396 -0.02756973
v 2.00143241 -2.54330396 0.02198762
v 1.19841229 -0.24988389 0.02198754
v 1.94512689 -1.85229253 -0.02756975
v 1.94512689 -1.85229253 0.02198757
v 1.78437709 -1.21197938 -0.02756981
v 1.52981817 -0.66553807 -0.02756984
v 0.81236219 0.00685972 -0.02756979
v 0.25024846 0.07209479 -0.02756978
v 0.25024837 0.07209479 0.02198756
v 0.81236219 0.00685966 0.02198756
v 1.19841229 -0.24988389 -0.0275698
v 1.9438287 -3.03874683 -0.02756974
v 1.98025167 -3.0014491 -0.02756971
v 1.98117053 -2.99156951 0.02198763
v 1.94520008 -3.02561903 0.0219878
v 1.91407322 -2.98193025 -0.02756973
v 1.91432821 -2.97935962 0.0219878
v 0.25739169 -0.06666529 -0.00450636
v 0.25240248 0.00534594 -0.00450638
v 0.76984429 -0.26669442 -0.0045064
v 0.26635742 -0.21075761 -0.00450637
v 1.85443055 -3.69957399 -0.00450637
v 1.76900208 -3.86782121 -0.00450626
v 2.06189441 -2.89182567 -0.00450658
v 1.65137124 -1.34951543 -0.00450637
v 1.41773879 -0.86152088 -0.0045064
v 2.021245 -1.81667423 -0.00450659
v 2.07598686 -2.54143762 -0.00450658
v 1.80254316 -1.92560386 -0.00450635
v 1.85597384 -1.14214944 -0.00450666
v 0.25024825 0.07209473 -0.00450646
v 0.244645 0.22256338 -0.00450666
v 0.83736789 0.15083593 -0.00450669
v 1.11729574 -0.49278712 -0.00450639
v 1.860803 -2.55276966 -0.00450633
v 1.24350285 -0.12307715 -0.00450667
v 1.59083879 -0.56429457 -0.00450667
v 1.79842758 -3.63933563 -0.00450626
v 1.85424101 -2.8594141 -0.0045063
g Group10757
f 28 37 39 30
f 2 3 12 11
f 30 39 40 31
f 3 4 13 12
f 31 40 41 32
f 4 5 14 13
f 32 41 42 33
f 5 6 15 14
f 33 42 43 34
f 6 7 16 15
f 34 43 44 35
f 7 8 17 16
f 40 49 50 41
f 12 13 22 21
f 39 48 49 40
f 11 12 21 20
f 37 46 48 39
f 13 14 23 22
f 41 50 51 42
f 14 15 24 23
f 42 51 52 43
f 15 16 25 24
f 43 52 53 44
f 16 17 26 25
f 35 44 82 78
f 17 8 80 84
f 44 53 74 82
f 26 17 84 70
f 78 82 81 77
f 79 83 84 80
f 73 81 82 74
f 70 84 83 69
f 45 36 89 91
f 9 18 92 90
f 54 45 91 87
f 18 27 85 92
f 77 81 99 97
f 79 98 100 83
f 81 73 95 99
f 83 100 93 69
f 97 99 91 89
f 93 100 92 85
f 90 92 100 98
f 87 91 99 95
f 37 28 104 108
f 2 11 110 106
f 11 20 112 110
f 46 37 108 116
f 103 107 108 104
f 106 110 109 105
f 110 112 111 109
f 107 115 116 108
f 29 38 120 118
f 10 1 119 121
f 19 10 121 122
f 38 47 124 120
f 126 128 107 103
f 127 105 109 129
f 129 109 111 130
f 128 132 115 107
f 127 129 121 119
f 129 130 122 121
f 118 120 128 126
f 120 124 132 128
f 133 134 55 57
f 135 133 57 59
f 136 135 59 60
f 137 136 60 62
f 138 137 62 64
f 139 138 64 65
f 57 55 140 141
f 59 57 141 142
f 60 59 142 143
f 62 60 143 144
f 64 62 144 145
f 65 64 145 146
f 139 65 76 147
f 65 146 148 76
f 75 149 147 76
f 76 148 150 75
f 151 152 153 88
f 154 151 88 155
f 156 149 75 96
f 96 75 150 157
f 96 157 155 88
f 88 153 156 96
f 55 134 158 102
f 140 55 102 159
f 102 158 160 101
f 101 161 159 102
f 162 163 117 164
f 163 165 166 117
f 160 167 125 101
f 101 125 168 161
f 125 167 164 117
f 117 166 168 125
f 169 170 56 58
f 171 169 58 61
f 172 171 61 63
f 173 172 63 66
f 174 173 66 67
f 175 174 67 68
f 58 56 176 177
f 61 58 177 178
f 63 61 178 179
f 66 63 179 180
f 67 66 180 181
f 68 67 181 182
f 56 170 183 72
f 176 56 72 184
f 185 71 72 183
f 71 186 184 72
f 187 188 86 189
f 188 190 191 86
f 185 192 94 71
f 71 94 193 186
f 189 86 94 192
f 86 191 193 94
f 175 68 114 194
f 68 182 195 114
f 194 114 113 196
f 114 195 197 113
f 198 199 200 123
f 201 198 123 202
f 203 196 113 131
f 131 113 197 204
f 203 131 123 200
f 131 204 202 123
f 206 28 30 207
f 208 209 3 2
f 207 30 31 210
f 209 211 4 3
f 210 31 32 212
f 211 213 5 4
f 212 32 33 214
f 213 215 6 5
f 214 33 34 216
f 215 217 7 6
f 216 34 35 218
f 217 219 8 7
f 218 35 78 223
f 8 219 224 80
f 77 225 223 78
f 226 79 80 224
f 36 222 227 89
f 220 9 90 228
f 225 77 97 229
f 226 230 98 79
f 229 97 89 227
f 228 90 98 230
f 28 206 231 104
f 208 2 106 232
f 233 103 104 231
f 232 106 105 234
f 221 29 118 235
f 1 205 236 119
f 237 126 103 233
f 238 234 105 127
f 126 237 235 118
f 238 127 119 236
f 134 133 239 240
f 133 135 241 239
f 135 136 242 241
f 136 137 243 242
f 137 138 244 243
f 138 139 245 244
f 247 248 141 140
f 248 249 142 141
f 249 250 143 142
f 250 251 144 143
f 251 252 145 144
f 252 253 146 145
f 139 147 255 245
f 253 256 148 146
f 257 255 147 149
f 150 148 256 258
f 246 259 153 152
f 154 155 260 261
f 149 156 262 257
f 258 263 157 150
f 155 157 263 260
f 259 262 156 153
f 240 264 158 134
f 140 159 265 247
f 160 158 264 266
f 267 265 159 161
f 162 164 269 268
f 254 270 166 165
f 266 271 167 160
f 161 168 272 267
f 164 167 271 269
f 270 272 168 166
f 240 239 209 208
f 239 241 211 209
f 241 242 213 211
f 242 243 215 213
f 243 244 217 215
f 244 245 219 217
f 245 255 224 219
f 255 257 226 224
f 261 260 227 222
f 257 262 230 226
f 260 263 229 227
f 247 265 231 206
f 265 267 233 231
f 268 269 236 205
f 267 272 237 233
f 269 271 238 236
f 206 207 248 247
f 207 210 249 248
f 210 212 250 249
f 212 214 251 250
f 214 216 252 251
f 216 218 253 252
f 218 223 256 253
f 223 225 258 256
f 220 228 259 246
f 225 229 263 258
f 228 230 262 259
f 208 232 264 240
f 232 234 266 264
f 221 235 270 254
f 234 238 271 266
f 235 237 272 270
f 25 26 274 275
f 52 276 277 53
f 24 25 275 278
f 51 279 276 52
f 23 24 278 280
f 50 281 279 51
f 22 23 280 282
f 49 283 281 50
f 21 22 282 284
f 48 285 283 49
f 20 21 284 286
f 46 287 285 48
f 274 26 70 291
f 53 277 292 74
f 291 70 69 293
f 294 73 74 292
f 27 273 295 85
f 289 54 87 296
f 69 93 297 293
f 73 294 298 95
f 297 93 85 295
f 95 298 296 87
f 20 286 299 112
f 287 46 116 300
f 301 111 112 299
f 115 302 300 116
f 288 19 122 303
f 47 290 304 124
f 130 111 301 305
f 132 306 302 115
f 306 132 124 304
f 303 122 130 305
f 307 308 170 169
f 177 176 309 310
f 311 307 169 171
f 178 177 310 312
f 313 311 171 172
f 179 178 312 314
f 315 313 172 173
f 180 179 314 316
f 317 315 173 174
f 181 180 316 318
f 319 317 174 175
f 182 181 318 320
f 308 323 183 170
f 176 184 324 309
f 185 183 323 325
f 326 324 184 186
f 187 189 327 328
f 322 329 191 190
f 325 330 192 185
f 186 193 331 326
f 189 192 330 327
f 329 331 193 191
f 175 194 332 319
f 320 333 195 182
f 334 332 194 196
f 197 195 333 335
f 321 336 200 199
f 201 202 337 338
f 196 203 339 334
f 335 340 204 197
f 336 339 203 200
f 202 204 340 337
f 308 307 275 274
f 310 309 277 276
f 307 311 278 275
f 311 313 280 278
f 313 315 282 280
f 315 317 284 282
f 317 319 286 284
f 309 324 292 277
f 324 326 294 292
f 328 327 295 273
f 326 331 298 294
f 327 330 297 295
f 319 332 299 286
f 332 334 301 299
f 338 337 304 290
f 334 339 305 301
f 337 340 306 304
f 276 279 312 310
f 279 281 314 312
f 281 283 316 314
f 283 285 318 316
f 285 287 320 318
f 274 291 323 308
f 291 293 325 323
f 289 296 329 322
f 293 297 330 325
f 296 298 331 329
f 287 300 333 320
f 300 302 335 333
f 288 303 336 321
f 302 306 340 335
f 303 305 339 336
g Group53363
f 344 343 342 341
g Group53366
f 18 9 343 344
g Group53363
f 346 344 341 345
g Group53366
f 27 18 344 346
g Group53363
f 341 342 348 347
g Group53366
f 36 45 347 348
g Group53363
f 345 341 347 349
g Group53366
f 45 54 349 347
g Group53363
f 343 351 350 342
g Group53366
f 9 220 351 343
g Group53363
f 342 350 352 348
g Group53366
f 222 36 348 352
g Group53363
f 356 355 354 353
g Group53366
f 246 152 356 353
f 152 151 355 356
g Group53363
f 358 354 355 357
g Group53366
f 154 261 358 357
f 151 154 357 355
g Group53363
f 353 354 350 351
g Group53366
f 220 246 353 351
g Group53363
f 354 358 352 350
g Group53366
f 261 222 352 358
g Group53363
f 360 346 345 359
g Group53366
f 273 27 346 360
g Group53363
f 359 345 349 361
g Group53366
f 54 289 361 349
g Group53363
f 365 364 363 362
g Group53366
f 322 190 365 362
f 190 188 364 365
g Group53363
f 367 363 364 366
g Group53366
f 187 328 367 366
f 188 187 366 364
g Group53363
f 359 361 362 363
g Group53366
f 289 322 362 361
g Group53363
f 360 359 363 367
g Group53366
f 328 273 360 367
g Group53363
f 371 370 369 368
g Group53366
f 1 10 370 371
g Group53363
f 370 373 372 369
g Group53366
f 10 19 373 370
g Group53363
f 368 369 375 374
g Group53366
f 38 29 374 375
g Group53363
f 369 372 376 375
g Group53366
f 47 38 375 376
g Group53363
f 378 371 368 377
g Group53366
f 205 1 371 378
g Group53363
f 377 368 374 379
g Group53366
f 29 221 379 374
g Group53363
f 383 382 381 380
g Group53366
f 254 165 383 380
f 165 163 382 383
g Group53363
f 385 381 382 384
g Group53366
f 162 268 385 384
f 163 162 384 382
g Group53363
f 377 379 380 381
g Group53366
f 221 254 380 379
g Group53363
f 378 377 381 385
g Group53366
f 268 205 378 385
g Group53363
f 373 387 386 372
g Group53366
f 19 288 387 373
g Group53363
f 372 386 388 376
g Group53366
f 290 47 376 388
g Group53363
f 392 391 390 389
g Group53366
f 321 199 392 389
f 199 198 391 392
g Group53363
f 394 390 391 393
g Group53366
f 201 338 394 393
f 198 201 393 391
g Group53363
f 389 390 386 387
g Group53366
f 288 321 389 387
g Group53363
f 390 394 388 386
g Group53366
f 338 290 388 394
g Group58397
f 446 445 409 410
f 395 411 443 444
f 464 442 463
f 446 411 412 445
f 433 432 458 457
f 464 463 441
f 398 423 424 399
f 424 455 452 429
f 407 437 438 425
f 457 456 433
f 401 426 439 440
f 440 439 447 448
f 451 450 413 414
f 397 427 423 398
f 404 407 425 428
f 441 463 448 437
f 400 429 426 401
f 408 405 430 431
f 450 415 416 454
f 456 444 402 433
f 405 404 428 430
f 437 448 447 438
f 399 424 429 400
f 402 403 432 433
f 457 434 456
f 435 458 461 427
f 395 434 435 396
f 445 459 417 409
f 432 436 461 458
f 445 412 418 459
f 450 454 419 413
f 430 428 452 455
f 454 460 420 419
f 436 431 462 461
f 454 416 421 460
f 434 457 458 435
f 406 408 431 436
f 451 422 415 450
f 460 464 441 420
f 434 395 444 456
f 444 443 410 402
f 443 446 410
f 460 421 442 464
f 403 406 436 432
f 439 449 447
f 396 435 427 397
f 459 451 414 417
f 459 418 422 451
f 431 430 455 462
f 410 409 403 402
f 411 446 443
f 411 395 396 412
f 414 413 405 408
f 415 399 400 416
f 409 417 406 403
f 412 396 397 418
f 413 419 404 405
f 419 420 407 404
f 416 400 401 421
f 422 398 399 415
f 420 441 437 407
f 438 447 449
f 421 401 440 442
f 417 414 408 406
f 418 397 398 422
f 429 452 453 426
f 442 440 448 463
f 423 462 455 424
f 428 425 453 452
f 425 438 449 453
f 426 453 449 439
f 427 461 462 423
f 516 515 479 480
f 465 481 513 514
f 534 512 533
f 516 481 482 515
f 503 502 528 527
f 534 533 511
f 468 493 494 469
f 494 525 522 499
f 477 507 508 495
f 527 526 503
f 471 496 509 510
f 510 509 517 518
f 521 520 483 484
f 467 497 493 468
f 474 477 495 498
f 511 533 518 507
f 470 499 496 471
f 478 475 500 501
f 520 485 486 524
f 526 514 472 503
f 475 474 498 500
f 507 518 517 508
f 469 494 499 470
f 472 473 502 503
f 527 504 526
f 505 528 531 497
f 465 504 505 466
f 515 529 487 479
f 502 506 531 528
f 515 482 488 529
f 520 524 489 483
f 500 498 522 525
f 524 530 490 489
f 506 501 532 531
f 524 486 491 530
f 504 527 528 505
f 476 478 501 506
f 521 492 485 520
f 530 534 511 490
f 504 465 514 526
f 514 513 480 472
f 513 516 480
f 530 491 512 534
f 473 476 506 502
f 509 519 517
f 466 505 497 467
f 529 521 484 487
f 529 488 492 521
f 501 500 525 532
f 480 479 473 472
f 481 516 513
f 481 465 466 482
f 484 483 475 478
f 485 469 470 486
f 479 487 476 473
f 482 466 467 488
f 483 489 474 475
f 489 490 477 474
f 486 470 471 491
f 492 468 469 485
f 490 511 507 477
f 508 517 519
f 491 471 510 512
f 487 484 478 476
f 488 467 468 492
f 499 522 523 496
f 512 510 518 533
f 493 532 525 494
f 498 495 523 522
f 495 508 519 523
f 496 523 519 509
f 497 531 532 493

 