# File exported by ZBrush version 2021
# www.zbrush.com
#Vertex Count 1268
#Face Count 1314
#Auto scale x=1.000000 y=1.000000 z=1.000000
#Auto offset x=0.000000 y=0.000000 z=0.000000
v -0.00158063 2.07857561 0.04752383
v -0.00158068 0.96146321 0.04752383
v -0.00158074 0.13484764 0.04752383
v -0.00158079 -0.69177103 0.04752383
v -0.00158084 -1.51838588 0.04752383
v -0.00158089 -2.34500455 0.04752383
v -0.00158092 -3.17161893 0.04752382
v -0.00158063 2.07857561 -0.04724833
v -0.00158068 0.96146321 -0.04724833
v -0.00158089 -2.34500455 -0.04724833
v -0.00158084 -1.51838588 -0.04724831
v -0.00158074 0.13484764 -0.04724833
v -0.00158092 -3.17161893 -0.04724833
v -0.00158079 -0.69177103 -0.04724833
v -0.08337304 0.95915246 -0.04724833
v -0.08440808 2.0759027 -0.04724833
v -0.08440808 2.0759027 0.04752382
v -0.08337304 0.95915246 0.04752383
v -0.0770628 -1.52025508 -0.04724831
v -0.07970038 -0.69378423 -0.04724833
v -0.07706277 -1.52025508 0.04752383
v -0.07389098 -2.3467288 0.04752383
v -0.08180384 0.13268327 -0.04724833
v -0.08180384 0.13268327 0.04752383
v -0.07389098 -2.3467288 -0.04724833
v -0.07018477 -3.1731944 -0.04724833
v -0.07018477 -3.1731944 0.04752382
v -0.07970038 -0.69378423 0.04752382
v 0.0703528 -0.69364261 0.0475235
v 0.06792406 -1.52012252 0.04752351
v 0.06159069 -3.17308282 -0.04724833
v 0.06159068 -3.17308282 0.0475235
v 0.07228975 0.13283729 0.04752351
v 0.06500335 -2.34660577 -0.04724833
v 0.06500335 -2.34660577 0.04752351
v 0.06792406 -1.52012252 -0.04724831
v 0.0703528 -0.69364261 -0.04724833
v 0.07373467 0.95931863 -0.04724833
v 0.07468782 2.07609248 -0.04724833
v 0.07468782 2.07609248 0.0475235
v 0.07373467 0.95931863 0.0475235
v 0.07228975 0.13283729 -0.04724833
v -0.00158098 -3.76906251 -0.04724839
v 0.0602053 -3.71466112 -0.04724839
v 0.06017117 -3.70289945 0.04752351
v -0.00158095 -3.75307416 0.04752383
v -0.06866423 -3.70967245 -0.04724839
v -0.06865421 -3.70647859 0.04752383
v -0.08440808 2.0759027 -0.00314257
v -0.00158063 2.07857561 -0.00314258
v -0.2468229 0.95602607 -0.00314258
v -0.24993422 2.0723021 -0.00314258
v 0.05925928 -4.57223939 -0.00314278
v -0.00158102 -4.82484674 -0.00314258
v 0.19820414 -3.57122468 -0.00314313
v -0.22788485 -1.52289247 -0.00314258
v -0.23579867 -0.69658279 -0.00314257
v 0.215209 -2.3492074 -0.00314313
v 0.20409369 -3.17551279 -0.00314313
v -0.21837011 -2.34920644 -0.00314258
v 0.22472363 -1.52289056 -0.00314313
v 0.07468782 2.07609248 -0.00314278
v 0.24677468 2.0723021 -0.00314313
v 0.24366256 0.95602607 -0.00314313
v -0.24211159 0.12972354 -0.00314258
v -0.20725502 -3.17551279 -0.00314257
v 0.23895022 0.12972354 -0.00314313
v 0.23263734 -0.6965847 -0.00314313
v -0.06758786 -4.55051088 -0.00314258
v -0.20136551 -3.57125711 -0.00314257
v -1.36845898 2.09603118 0.08444899
v -1.10597109 2.44003725 0.08555199
v -0.38295614 2.74055099 0.08555198
v -0.00354512 2.64183425 0.08555198
v 0.38171988 2.74055886 0.08555198
v 1.1047399 2.44006133 0.08555199
v 1.36845898 2.09780216 0.08447098
v -1.3252201 2.02914738 0.08555199
v -1.02722907 2.26497697 0.08555199
v -0.35571813 2.54408383 0.08555199
v -0.00310712 2.45098733 0.08555199
v 0.35448488 2.54409074 0.08555199
v 1.02600002 2.26499915 0.08555199
v 1.32399606 2.02917599 0.08555199
v -1.27599597 1.94828903 0.08547799
v -0.8989461 2.189677 0.08555198
v -0.34210011 2.44585037 0.08555199
v -0.00061512 2.28284239 0.08555199
v 0.34086787 2.445858 0.08555199
v 0.88386189 2.2069931 0.08555198
v 1.2745769 1.94935715 0.08542399
v -1.22366905 1.87210607 0.08554999
v -0.9484871 2.08991813 0.08555198
v -0.32848113 2.34761714 0.08555199
v -0.00194812 2.13699626 0.08555198
v 0.32724988 2.34762406 0.08555199
v 0.94726091 2.08993816 0.08555198
v 1.22240018 1.87220013 0.08555199
v -1.17282414 1.79369032 0.08555199
v -0.90911716 2.00238704 0.085552
v -0.31486216 2.24938297 0.085552
v -0.00272312 1.99590289 0.085552
v 0.31363287 2.24938917 0.085552
v 0.90789187 2.00240731 0.085552
v 1.17160201 1.79371416 0.08555199
v -1.12202405 1.71520412 0.08555198
v -0.86974614 1.91485714 0.085552
v -0.62609911 2.14988112 0.08555198
v -0.30124312 2.15114903 0.08555198
v -0.00264312 1.89535212 0.08555199
v 0.30001586 2.15115594 0.08555198
v 0.63907384 2.15175008 0.08555198
v 0.86852085 1.91487622 0.085552
v 1.12080383 1.71522712 0.08555198
v -1.07122612 1.63671803 0.08555198
v -0.83037519 1.82732701 0.085552
v -0.53130614 2.09237408 0.08555198
v -0.28762412 2.05291605 0.08555199
v -0.00243612 1.72158098 0.08555198
v 0.28639891 2.05292224 0.08555199
v 0.54778087 2.08352923 0.08555199
v 0.82915186 1.82734596 0.085552
v 1.07000589 1.63674116 0.08555198
v -1.02042818 1.55823206 0.08555199
v -0.79100316 1.73979806 0.085552
v 0.7897818 1.73981511 0.085552
v 1.0192089 1.55825436 0.08555199
v 0.17571589 2.49754595 0.08555199
v 0.18911688 2.6912043 0.08555198
v 0.14200387 1.887277 0.08555199
v 0.14871087 2.02327323 0.08555199
v 0.17015288 2.364362 0.08555199
v 0.16267687 2.24232602 0.08555198
v 0.15547989 2.12266612 0.08555198
v -0.17361912 2.49600625 0.08555199
v -0.18701612 2.68956971 0.08555198
v -0.14034412 1.88180398 0.08555199
v -0.14703713 2.01904702 0.08555199
v -0.16574612 2.36166811 0.08555199
v -0.15984912 2.23884511 0.08555198
v -0.15366311 2.1184771 0.08555198
v -1.10501408 2.4392929 -0.080715
v -1.02675104 2.26460599 -0.08071501
v -1.32426309 2.02840304 -0.08071501
v -1.36654591 2.09454298 -0.081812
v -0.38295614 2.74055099 -0.080715
v -0.35571813 2.54408383 -0.08071501
v -0.18701612 2.68957042 -0.08071501
v -0.17361912 2.49600625 -0.080715
v 0.18911688 2.6912043 -0.08071501
v 0.17571589 2.49754595 -0.080715
v -0.00310712 2.45098733 -0.080715
v -0.00354512 2.64183425 -0.080715
v 0.35448488 2.54409074 -0.08071501
v 0.38171988 2.74055886 -0.080715
v 1.10381078 2.43933773 -0.080715
v 1.02553486 2.26463794 -0.08071501
v 1.36660003 2.0963552 -0.08179001
v 1.32306504 2.02845192 -0.08071501
v 1.07000589 1.63674116 -0.080715
v 1.0192089 1.55825436 -0.080715
v 0.7897818 1.73981511 -0.080715
v 0.82915186 1.82734513 -0.08071501
v 0.54778087 2.08352923 -0.080715
v -0.53130614 2.09237408 -0.080715
v -0.79100316 1.73979806 -0.080715
v -0.83037519 1.82732701 -0.08071501
v -1.02042818 1.55823206 -0.080715
v -1.07122612 1.63671803 -0.080715
v 1.12080383 1.71522712 -0.080715
v 0.86852085 1.91487622 -0.080715
v 0.63907384 2.15175008 -0.080715
v 0.14871087 2.02327323 -0.08071501
v 0.14200387 1.887277 -0.080715
v -0.00243612 1.72158098 -0.080715
v -0.00264312 1.89535212 -0.080715
v -0.14703713 2.01904702 -0.08071501
v -0.14034412 1.88180398 -0.08071503
v -0.28762412 2.05291605 -0.08071501
v -0.30124312 2.15114903 -0.080715
v -0.8989461 2.189677 -0.08071501
v -1.27442097 1.95066106 -0.080715
v -0.34210011 2.44585037 -0.080715
v -0.16574612 2.36166811 -0.08071503
v 0.17015288 2.364362 -0.08071503
v -0.00061512 2.28284239 -0.08071501
v 0.34086787 2.445858 -0.080715
v 0.88386189 2.2069931 -0.08071501
v 1.27319693 1.95068812 -0.080715
v -0.9484871 2.08991813 -0.080715
v -1.22362208 1.87217629 -0.08071503
v -0.15984912 2.23884511 -0.080715
v -0.32848113 2.34761714 -0.08071503
v 0.16267687 2.24232602 -0.080715
v -0.00194812 2.13699626 -0.080715
v 1.22240018 1.87220096 -0.08071503
v 0.94726091 2.08993816 -0.080715
v -0.90911716 2.00238704 -0.080715
v -1.17282414 1.79369032 -0.08071501
v -0.15366311 2.1184771 -0.080715
v -0.31486216 2.24938297 -0.080715
v 0.15547989 2.12266612 -0.080715
v -0.00272312 1.99590289 -0.080715
v 1.17160201 1.79371416 -0.08071501
v 0.90789187 2.00240731 -0.080715
v -0.86974614 1.91485714 -0.080715
v -1.12202405 1.71520412 -0.080715
v -0.62609911 2.14988112 -0.080715
v 0.30001586 2.15115594 -0.080715
v 0.28639891 2.05292224 -0.08071501
v 0.32724988 2.34762406 -0.08071503
v 0.31363287 2.24938917 -0.080715
v -1.34851598 2.06633997 -0.081344
v -1.07164192 2.36480522 -0.08071503
v -1.35002112 2.06751108 0.08491899
v -1.07239413 2.36539006 0.08555199
v -0.37134215 2.65677475 -0.080715
v -0.37134215 2.65677475 0.08555198
v -0.18130312 2.60703325 -0.080715
v -0.18130312 2.60703325 0.08555198
v -0.00335812 2.56045484 -0.08071501
v 0.18340288 2.60862636 -0.080715
v 0.18340288 2.60862636 0.08555198
v -0.00335812 2.56045484 0.08555199
v 0.37010687 2.65678286 -0.080715
v 0.37010687 2.65678286 0.08555198
v 1.0704329 2.36484432 -0.08071503
v 1.07116484 2.36541318 0.08555199
v 1.348037 2.06740093 -0.08133199
v 1.34950017 2.06853914 0.08493199
v 0.80784684 1.7799772 -0.08071501
v 1.04251694 1.59426689 0.08555198
v 1.04251694 1.59426689 -0.080715
v 0.80784684 1.77997803 0.08555199
v 0.55136388 2.00126004 -0.080715
v 0.55136388 2.00126004 0.085552
v 0.84646588 1.86583995 -0.08071503
v 1.0923469 1.67125797 0.08555198
v 1.0923469 1.67125797 -0.08071501
v 0.84646588 1.86583995 0.08555199
v 0.58792984 2.11353111 -0.080715
v 0.58792984 2.11353111 0.08555198
v -1.30064296 1.99156212 -0.080715
v -1.30189323 1.99082911 0.08551699
v -0.96618413 2.22909712 -0.080715
v -0.96643614 2.2292931 0.08555198
v -0.34926515 2.49753093 -0.080715
v -0.34926515 2.49753093 0.08555199
v -0.16988812 2.43234324 -0.080715
v -0.16988812 2.43234324 0.08555199
v -0.00192612 2.37130403 -0.08071503
v 0.17307987 2.43443107 -0.080715
v 0.17307987 2.43443107 0.08555199
v -0.00192612 2.37130403 0.08555199
v 0.34803187 2.49753904 -0.080715
v 0.34803187 2.49753904 0.08555199
v 0.95839685 2.23732018 -0.080715
v 0.95864188 2.23751139 0.08555198
v 1.30057692 1.99135017 0.08549198
v 1.29943299 1.99160003 -0.080715
v -1.09361505 1.67130899 -0.08071501
v -1.09361505 1.67130899 0.08555198
v -0.8477261 1.86590492 -0.08071503
v -0.57308411 2.11771917 -0.080715
v -0.57308411 2.11771917 0.08555198
v -0.8477261 1.86590492 0.08555199
v -0.81173414 1.785887 -0.08071501
v -0.5407561 2.0303502 -0.08071501
v -0.5407561 2.0303502 0.08555199
v -0.81173414 1.785887 0.08555199
v -1.04717612 1.59956002 -0.080715
v -1.04717612 1.59956002 0.08555198
v -0.30284312 2.63884615 -0.080715
v -0.31233015 2.72217536 -0.08071501
v -0.31233015 2.72217536 0.08555198
v -0.30284312 2.63884615 0.08555198
v -0.23453812 1.99123919 -0.080715
v -0.24566012 2.10353326 -0.080715
v -0.23453812 1.99123919 0.085552
v -0.24566012 2.10353326 0.08555198
v -0.28460913 2.4740343 -0.080715
v -0.29008212 2.52675414 -0.08071501
v -0.29008212 2.52675414 0.08555199
v -0.28460913 2.4740343 0.08555199
v -0.26769813 2.30841016 -0.08071501
v -0.27853313 2.41550684 -0.080715
v -0.27853313 2.41550684 0.085552
v -0.26769813 2.30841016 0.08555199
v -0.25675913 2.20219802 -0.08071501
v -0.25675913 2.20219802 0.08555198
v 0.30505687 2.64000535 -0.080715
v 0.31461483 2.72336316 -0.08071501
v 0.31461483 2.72336316 0.08555198
v 0.30505687 2.64000535 0.08555198
v 0.23608988 1.99520897 -0.080715
v 0.24729888 2.10660004 -0.080715
v 0.23608988 1.99520897 0.085552
v 0.24729888 2.10660004 0.08555198
v 0.2870759 2.47555089 -0.080715
v 0.29219988 2.52787399 -0.08071501
v 0.29219988 2.52787399 0.08555199
v 0.2870759 2.47555089 0.08555199
v 0.26991087 2.31093716 -0.08071501
v 0.28138887 2.41746425 -0.080715
v 0.28138887 2.41746425 0.085552
v 0.26991087 2.31093716 0.08555199
v 0.25853088 2.20523715 -0.08071501
v 0.25853088 2.20523715 0.08555198
v -0.37134215 2.65677475 0.11811499
v -0.30284312 2.63884615 0.11811499
v -0.31233015 2.72217536 0.11811498
v -0.38295614 2.74055099 0.11811498
v -0.00335812 2.56045484 0.118115
v 0.18340288 2.60862636 0.11811499
v 0.18911688 2.6912043 0.11811498
v -0.00354512 2.64183425 0.11811499
v 0.28138887 2.41746425 0.11811498
v 0.34086787 2.445858 0.11811498
v 0.34803187 2.49753904 0.11811498
v 0.2870759 2.47555089 0.11811498
v 0.29219988 2.52787399 0.11811497
v 0.35448488 2.54409074 0.11811497
v 0.37010687 2.65678286 0.11811499
v 0.30505687 2.64000535 0.11811499
v 0.24729888 2.10660004 0.11811499
v 0.30001586 2.15115594 0.11811499
v 0.31363287 2.24938917 0.118115
v 0.25853088 2.20523715 0.118115
v -0.00243612 1.72158098 0.11811498
v 0.14200387 1.887277 0.11811499
v 0.14871087 2.02327323 0.11811497
v -0.00264312 1.89535212 0.11811499
v -0.28762412 2.05291605 0.11811497
v -0.23453812 1.99123919 0.11811498
v -0.24566012 2.10353326 0.11811499
v -0.30124312 2.15114903 0.11811499
v -0.34926515 2.49753093 0.11811498
v -0.28460913 2.4740343 0.11811498
v -0.29008212 2.52675414 0.11811497
v -0.35571813 2.54408383 0.11811497
v 0.32724988 2.34762406 0.11811498
v 0.26991087 2.31093716 0.11811499
v -0.32848113 2.34761714 0.11811498
v -0.26769813 2.30841016 0.11811499
v -0.27853313 2.41550684 0.11811498
v -0.34210011 2.44585037 0.11811498
v -0.31486216 2.24938297 0.118115
v -0.25675913 2.20219802 0.11811498
v 0.23608988 1.99520897 0.11811498
v 0.28639891 2.05292224 0.11811497
v 0.31461483 2.72336316 0.11811498
v -0.18130312 2.60703325 0.11811499
v -0.18701612 2.68956971 0.11811498
v -0.14034412 1.88180398 0.11811499
v -0.14703713 2.01904702 0.11811497
v 0.38171988 2.74055886 0.11811498
v -0.31233015 2.72217536 -0.118115
v -0.30284312 2.63884615 -0.118115
v -0.37134215 2.65677475 -0.118115
v -0.38295614 2.74055099 -0.118115
v 0.18911688 2.6912043 -0.118115
v 0.18340288 2.60862636 -0.118115
v -0.00335812 2.56045484 -0.118115
v -0.00354512 2.64183425 -0.118115
v 0.34803187 2.49753904 -0.118115
v 0.34086787 2.445858 -0.118115
v 0.28138887 2.41746425 -0.118115
v 0.2870759 2.47555089 -0.118115
v 0.37010687 2.65678286 -0.118115
v 0.35448488 2.54409074 -0.118115
v 0.29219988 2.52787399 -0.118115
v 0.30505687 2.64000535 -0.118115
v 0.31363287 2.24938917 -0.118115
v 0.30001586 2.15115594 -0.118115
v 0.24729888 2.10660004 -0.118115
v 0.25853088 2.20523715 -0.118115
v 0.14871087 2.02327323 -0.118115
v 0.14200387 1.887277 -0.118115
v -0.00243612 1.72158098 -0.118115
v -0.00264312 1.89535212 -0.118115
v -0.24566012 2.10353326 -0.118115
v -0.23453812 1.99123919 -0.118115
v -0.28762412 2.05291605 -0.118115
v -0.30124312 2.15114903 -0.118115
v -0.29008212 2.52675414 -0.118115
v -0.28460913 2.4740343 -0.118115
v -0.34926515 2.49753093 -0.118115
v -0.35571813 2.54408383 -0.118115
v 0.32724988 2.34762406 -0.118115
v 0.26991087 2.31093716 -0.118115
v -0.27853313 2.41550684 -0.118115
v -0.26769813 2.30841016 -0.118115
v -0.32848113 2.34761714 -0.118115
v -0.34210011 2.44585037 -0.118115
v -0.25675913 2.20219802 -0.118115
v -0.31486216 2.24938297 -0.118115
v 0.31461483 2.72336316 -0.118115
v 0.23608988 1.99520897 -0.118115
v -0.18130312 2.60703325 -0.118115
v -0.18701612 2.68957042 -0.118115
v -0.14034412 1.88180398 -0.118115
v -0.14703713 2.01904702 -0.118115
v 0.28639891 2.05292224 -0.118115
v 0.38171988 2.74055886 -0.118115
v -0.30665016 2.74400711 0.11811498
v -0.18133612 2.71140193 0.11811498
v -0.18133612 2.71140193 0.08555198
v -0.30665016 2.74400711 0.08555198
v -0.30665016 2.74400711 -0.118115
v -0.37727615 2.76238322 -0.118115
v -0.37727615 2.76238322 -0.080715
v -0.30665016 2.74400711 -0.080715
v 0.37611985 2.76241135 -0.118115
v 0.30901488 2.74521541 -0.118115
v 0.30901488 2.74521541 -0.080715
v 0.37611985 2.76241135 -0.080715
v -0.00350212 2.66513204 -0.118115
v -0.18133612 2.71140193 -0.118115
v -0.18133612 2.71140193 -0.08071501
v -0.00350212 2.66513204 -0.080715
v 0.30901488 2.74521541 0.11811498
v 0.37611985 2.76241135 0.118115
v 0.37611985 2.76241135 0.085552
v 0.30901488 2.74521541 0.08555198
v 0.18351787 2.71305608 -0.118115
v 0.18351787 2.71305608 -0.08071501
v -0.37727615 2.76238322 0.085552
v -0.37727615 2.76238322 0.118115
v -0.00350212 2.66513204 0.11811499
v 0.18351787 2.71305608 0.11811498
v 0.18351787 2.71305608 0.08555198
v -0.00350212 2.66513204 0.08555198
v -0.00062912 4.21056652 0.00207788
v -0.00062912 4.21056652 -0.07011783
v -0.02745992 4.21056652 -0.06873111
v -0.05325822 4.21056652 -0.06462223
v -0.07703565 4.21056652 -0.05795019
v -0.09787554 4.21056652 -0.04897262
v -0.11497931 4.21056652 -0.03803156
v -0.12768805 4.21056652 -0.02554998
v -0.13551364 4.21056652 -0.01200714
v -0.13815634 4.21056652 0.00207788
v -0.13551364 4.21056652 0.01616286
v -0.12768805 4.21056652 0.02970679
v -0.11497931 4.21056652 0.0421884
v -0.09787554 4.21056652 0.05312838
v -0.07703565 4.21056652 0.06210707
v -0.05325822 4.21056652 0.06877804
v -0.02745992 4.21056652 0.07288692
v -0.00062912 4.21056652 0.07427367
v 0.02620166 4.21056652 0.07288692
v 0.05199996 4.21056652 0.06877804
v 0.0757774 4.21056652 0.06210707
v 0.09661728 4.21056652 0.05312838
v 0.11372105 4.21056652 0.0421884
v 0.12642979 4.21056652 0.02970573
v 0.13425539 4.21056652 0.01616286
v 0.13689808 4.21056652 0.00207788
v 0.13425539 4.21056652 -0.01200714
v 0.12642979 4.21056652 -0.02554998
v 0.11372105 4.21056652 -0.03803156
v 0.09661728 4.21056652 -0.04897262
v 0.0757774 4.21056652 -0.05795019
v 0.05199996 4.21056652 -0.06462223
v 0.02620166 4.21056652 -0.06873111
v -0.00062912 4.09230423 -0.07338008
v -0.02867148 4.09230423 -0.07193067
v -0.05563716 4.09230423 -0.06763643
v -0.08048768 4.09230423 -0.06066298
v -0.10226937 4.09230423 -0.05127932
v -0.12014541 4.09230423 -0.03984424
v -0.13342951 4.09230423 -0.02679853
v -0.1416084 4.09230423 -0.01264344
v -0.14437043 4.09230423 0.00207788
v -0.1416084 4.09230423 0.01679922
v -0.13342951 4.09230423 0.03095432
v -0.12014541 4.09230423 0.04400004
v -0.10226937 4.09230423 0.05543506
v -0.08048768 4.09230423 0.06481982
v -0.05563716 4.09230423 0.07179219
v -0.02867148 4.09230423 0.07608637
v -0.00062912 4.09230423 0.07753589
v 0.02741322 4.09230423 0.07608637
v 0.0543789 4.09230423 0.07179219
v 0.07922942 4.09230423 0.06481982
v 0.10101112 4.09230423 0.05543506
v 0.11888715 4.09230423 0.04400004
v 0.13217125 4.09230423 0.03095432
v 0.14035014 4.09230423 0.01679922
v 0.14311218 4.09230423 0.00207788
v 0.14035014 4.09230423 -0.01264344
v 0.13217125 4.09230423 -0.02679853
v 0.11888715 4.09230423 -0.03984424
v 0.10101112 4.09230423 -0.05127932
v 0.07922942 4.09230423 -0.06066298
v 0.0543789 4.09230423 -0.06763643
v 0.02741322 4.09230423 -0.07193067
v -0.00062912 3.97404193 -0.07617656
v -0.02971113 3.97404193 -0.07467365
v -0.0576759 3.97404193 -0.07022042
v -0.08344791 3.97404193 -0.06298853
v -0.1060365 3.97404193 -0.05325631
v -0.12457628 3.97404193 -0.0413984
v -0.1383509 3.97404193 -0.02786916
v -0.14683415 3.97404193 -0.01318872
v -0.14969889 3.97404193 0.00207789
v -0.14683415 3.97404193 0.01734449
v -0.1383509 3.97404193 0.03202499
v -0.12457628 3.97404193 0.04555423
v -0.1060365 3.97404193 0.05741312
v -0.08344791 3.97404193 0.06714429
v -0.0576759 3.97404193 0.07437624
v -0.02971113 3.97404193 0.07882946
v -0.00062912 3.97404193 0.08033343
v 0.02845288 3.97404193 0.07882946
v 0.05641764 3.97404193 0.07437624
v 0.08218966 3.97404193 0.06714429
v 0.10477825 3.97404193 0.05741312
v 0.12331803 3.97404193 0.04555423
v 0.13709265 3.97404193 0.03202499
v 0.14557589 3.97404193 0.01734449
v 0.14844064 3.97404193 0.00207789
v 0.14557589 3.97404193 -0.01318872
v 0.13709265 3.97404193 -0.02786916
v 0.12331803 3.97404193 -0.0413984
v 0.10477825 3.97404193 -0.05325728
v 0.08218966 3.97404193 -0.06298853
v 0.05641764 3.97404193 -0.07022042
v 0.02845288 3.97404193 -0.07467365
v -0.00062912 3.85577702 -0.07847587
v -0.03056579 3.85577702 -0.07692802
v -0.05935059 3.85577702 -0.07234405
v -0.08587942 3.85577702 -0.06489963
v -0.10913283 3.85577702 -0.05488158
v -0.12821562 3.85577702 -0.04267527
v -0.14239621 3.85577702 -0.02874834
v -0.15112777 3.85577702 -0.01363766
v -0.15407607 3.85577702 0.00207788
v -0.15112777 3.85577702 0.01779344
v -0.14239621 3.85577702 0.0329041
v -0.12821562 3.85577702 0.04683106
v -0.10913283 3.85577702 0.05903743
v -0.08587942 3.85577702 0.06905539
v -0.05935059 3.85577702 0.07649976
v -0.03056579 3.85577702 0.08108381
v -0.00062912 3.85577702 0.08263174
v 0.02930754 3.85577702 0.08108381
v 0.05809233 3.85577702 0.07649976
v 0.08462116 3.85577702 0.06905539
v 0.10787458 3.85577702 0.05903743
v 0.12695737 3.85577702 0.04683106
v 0.14113795 3.85577702 0.0329041
v 0.1498695 3.85577702 0.01779344
v 0.15281783 3.85577702 0.00207788
v 0.1498695 3.85577702 -0.01363766
v 0.14113795 3.85577702 -0.02874834
v 0.12695737 3.85577702 -0.04267527
v 0.10787458 3.85577702 -0.05488158
v 0.08462116 3.85577702 -0.06489963
v 0.05809233 3.85577702 -0.07234405
v 0.02930754 3.85577702 -0.07692802
v -0.00062912 3.73751378 -0.08025619
v -0.03122707 3.73751378 -0.07867372
v -0.06064927 3.73751378 -0.07398924
v -0.08776415 3.73751378 -0.06638056
v -0.11153205 3.73751378 -0.05614072
v -0.13103623 3.73751378 -0.04366435
v -0.14553068 3.73751378 -0.02942965
v -0.15445555 3.73751378 -0.01398406
v -0.15746831 3.73751378 0.00207789
v -0.15445555 3.73751378 0.01814097
v -0.14553068 3.73751378 0.03358648
v -0.13103623 3.73751378 0.04782009
v -0.11153205 3.73751378 0.06029752
v -0.08776415 3.73751378 0.07053632
v -0.06064927 3.73751378 0.07814499
v -0.03122707 3.73751378 0.08283056
v -0.00062912 3.73751378 0.08441197
v 0.02996882 3.73751378 0.08283056
v 0.05939101 3.73751378 0.07814499
v 0.08650589 3.73751378 0.07053632
v 0.1102738 3.73751378 0.06029752
v 0.12977798 3.73751378 0.04782009
v 0.14427243 3.73751378 0.03358648
v 0.15319731 3.73751378 0.01814097
v 0.15621008 3.73751378 0.00207789
v 0.15319731 3.73751378 -0.01398406
v 0.14427243 3.73751378 -0.02942965
v 0.12977798 3.73751378 -0.04366435
v 0.1102738 3.73751378 -0.05614171
v 0.08650589 3.73751378 -0.06638056
v 0.05939101 3.73751378 -0.07398924
v 0.02996882 3.73751378 -0.07867372
v -0.00062912 3.61925125 -0.0815069
v -0.03169139 3.61925125 -0.07990133
v -0.06156122 3.61925125 -0.07514458
v -0.08908789 3.61925125 -0.06742084
v -0.1132163 3.61925125 -0.05702611
v -0.1330177 3.61925125 -0.04435923
v -0.14773178 3.61925125 -0.02990903
v -0.15679274 3.61925125 -0.01422901
v -0.15985211 3.61925125 0.00207788
v -0.15679274 3.61925125 0.01838474
v -0.14773178 3.61925125 0.03406478
v -0.1330177 3.61925125 0.04851503
v -0.1132163 3.61925125 0.06118189
v -0.08908789 3.61925125 0.0715766
v -0.06156122 3.61925125 0.07930043
v -0.03169139 3.61925125 0.08405716
v -0.00062912 3.61925125 0.08566264
v 0.03043314 3.61925125 0.08405716
v 0.06030296 3.61925125 0.07930043
v 0.08782964 3.61925125 0.0715766
v 0.11195804 3.61925125 0.06118189
v 0.13175945 3.61925125 0.04851503
v 0.14647352 3.61925125 0.03406478
v 0.15553452 3.61925125 0.01838474
v 0.15859387 3.61925125 0.00207788
v 0.15553452 3.61925125 -0.01422901
v 0.14647352 3.61925125 -0.02990903
v 0.13175945 3.61925125 -0.04435923
v 0.11195804 3.61925125 -0.05702611
v 0.08782964 3.61925125 -0.06742084
v 0.06030296 3.61925125 -0.07514458
v 0.03043314 3.61925125 -0.07990133
v -0.00062912 3.50098824 -0.08221961
v -0.03195639 3.50098824 -0.08059951
v -0.06208045 3.50098824 -0.07580293
v -0.08984229 3.50098824 -0.06801316
v -0.11417598 3.50098824 -0.05752953
v -0.13414688 3.50098824 -0.04475481
v -0.14898632 3.50098824 -0.03018115
v -0.15812373 3.50098824 -0.01436822
v -0.16120927 3.50098824 0.00207788
v -0.15812373 3.50098824 0.01852399
v -0.14898632 3.50098824 0.03433793
v -0.13414688 3.50098824 0.04891169
v -0.11417598 3.50098824 0.0616853
v -0.08984229 3.50098824 0.07216896
v -0.06208045 3.50098824 0.07995875
v -0.03195639 3.50098824 0.0847563
v -0.00062912 3.50098824 0.08637537
v 0.03069813 3.50098824 0.0847563
v 0.0608222 3.50098824 0.07995875
v 0.08858404 3.50098824 0.07216896
v 0.11291772 3.50098824 0.0616853
v 0.13288863 3.50098824 0.04891169
v 0.14772807 3.50098824 0.03433689
v 0.15686549 3.50098824 0.01852399
v 0.15995103 3.50098824 0.00207788
v 0.15686549 3.50098824 -0.01436822
v 0.14772807 3.50098824 -0.03018115
v 0.13288863 3.50098824 -0.04475481
v 0.11291772 3.50098824 -0.05752953
v 0.08858404 3.50098824 -0.06801316
v 0.0608222 3.50098824 -0.07580293
v 0.03069813 3.50098824 -0.08059951
v -0.00062912 3.38269925 -0.08238916
v -0.03201966 3.38269925 -0.08076593
v -0.06220341 3.38269925 -0.07595896
v -0.09002132 3.38269925 -0.06815338
v -0.11440397 3.38269925 -0.05764882
v -0.13441428 3.38269925 -0.04484903
v -0.14928351 3.38269925 -0.03024601
v -0.15843996 3.38269925 -0.01440068
v -0.16153159 3.38269925 0.00207789
v -0.15843996 3.38269925 0.01855643
v -0.14928351 3.38269925 0.03440177
v -0.13441428 3.38269925 0.04900588
v -0.11440397 3.38269925 0.06180461
v -0.09002132 3.38269925 0.07231029
v -0.06220341 3.38269925 0.08011572
v -0.03201966 3.38269925 0.08492165
v -0.00062912 3.38269925 0.0865449
v 0.0307614 3.38269925 0.08492165
v 0.06094515 3.38269925 0.08011572
v 0.08876307 3.38269925 0.07231029
v 0.11314572 3.38269925 0.06180461
v 0.13315603 3.38269925 0.04900483
v 0.14802525 3.38269925 0.03440177
v 0.15718172 3.38269925 0.01855643
v 0.16027335 3.38269925 0.00207789
v 0.15718172 3.38269925 -0.01440068
v 0.14802525 3.38269925 -0.03024601
v 0.13315603 3.38269925 -0.04484903
v 0.11314572 3.38269925 -0.05764882
v 0.08876307 3.38269925 -0.06815338
v 0.06094515 3.38269925 -0.07595896
v 0.0307614 3.38269925 -0.08076593
v -0.00062912 3.264436 -0.08201235
v -0.03187999 3.264436 -0.08039641
v -0.06192886 3.264436 -0.07561138
v -0.08962268 3.264436 -0.0678405
v -0.11389667 3.264436 -0.05738294
v -0.13381744 3.264436 -0.04463973
v -0.14862105 3.264436 -0.03010158
v -0.15773576 3.264436 -0.0143274
v -0.16081416 3.264436 0.00207788
v -0.15773576 3.264436 0.01848317
v -0.14862105 3.264436 0.03425838
v -0.13381744 3.264436 0.04879656
v -0.11389667 3.264436 0.06153878
v -0.08962268 3.264436 0.07199627
v -0.06192886 3.264436 0.07976722
v -0.03187999 3.264436 0.08455222
v -0.00062912 3.264436 0.08616814
v 0.03062174 3.264436 0.08455222
v 0.0606706 3.264436 0.07976722
v 0.08836443 3.264436 0.07199627
v 0.11263842 3.264436 0.06153878
v 0.13255919 3.264436 0.04879656
v 0.14736279 3.264436 0.03425838
v 0.15647752 3.264436 0.01848317
v 0.15955592 3.264436 0.00207788
v 0.15647752 3.264436 -0.0143274
v 0.14736279 3.264436 -0.03010158
v 0.13255919 3.264436 -0.04463973
v 0.11263842 3.264436 -0.05738294
v 0.08836443 3.264436 -0.0678405
v 0.0606706 3.264436 -0.07561138
v 0.03062174 3.264436 -0.08039641
v -0.00062912 3.146173 -0.08109019
v -0.03153742 3.146173 -0.07949218
v -0.06125684 3.146173 -0.07475951
v -0.08864746 3.146173 -0.06707336
v -0.11265529 3.146173 -0.05673097
v -0.13235761 3.146173 -0.04412795
v -0.14699767 3.146173 -0.02974885
v -0.15601338 3.146173 -0.01414738
v -0.15905715 3.146173 0.00207789
v -0.15601338 3.146173 0.01830312
v -0.14699767 3.146173 0.03390464
v -0.13235761 3.146173 0.04828373
v -0.11265529 3.146173 0.06088675
v -0.08864746 3.146173 0.07123017
v -0.06125684 3.146173 0.07891529
v -0.03153742 3.146173 0.08364797
v -0.00062912 3.146173 0.08524611
v 0.03027916 3.146173 0.08364797
v 0.05999858 3.146173 0.07891529
v 0.0873892 3.146173 0.07123017
v 0.11139704 3.146173 0.06088675
v 0.13109935 3.146173 0.04828373
v 0.14573942 3.146173 0.03390464
v 0.15475514 3.146173 0.01830312
v 0.15779891 3.146173 0.00207789
v 0.15475514 3.146173 -0.01414738
v 0.14573942 3.146173 -0.02974885
v 0.13109935 3.146173 -0.04412795
v 0.11139704 3.146173 -0.05673097
v 0.0873892 3.146173 -0.06707336
v 0.05999858 3.146173 -0.07475951
v 0.03027916 3.146173 -0.07949218
v -0.00062912 3.02790975 -0.07962617
v -0.03099311 3.02790975 -0.07805526
v -0.06018971 3.02790975 -0.07340627
v -0.08709693 3.02790975 -0.06585615
v -0.11068217 3.02790975 -0.05569478
v -0.13003838 3.02790975 -0.04331366
v -0.14442057 3.02790975 -0.02918894
v -0.1532775 3.02790975 -0.01386169
v -0.15626758 3.02790975 0.00207788
v -0.1532775 3.02790975 0.01801741
v -0.14442057 3.02790975 0.03334473
v -0.13003838 3.02790975 0.04747052
v -0.11068217 3.02790975 0.05985168
v -0.08709693 3.02790975 0.07001195
v -0.06018971 3.02790975 0.07756204
v -0.03099311 3.02790975 0.08221204
v -0.00062912 3.02790975 0.08378191
v 0.02973485 3.02790975 0.08221204
v 0.05893145 3.02790975 0.07756204
v 0.08583866 3.02790975 0.07001195
v 0.10942392 3.02790975 0.05985168
v 0.12878012 3.02790975 0.04747052
v 0.14316232 3.02790975 0.03334473
v 0.15201926 3.02790975 0.01801741
v 0.15500934 3.02790975 0.00207788
v 0.15201926 3.02790975 -0.01386169
v 0.14316232 3.02790975 -0.02918894
v 0.12878012 3.02790975 -0.04331366
v 0.10942392 3.02790975 -0.05569478
v 0.08583866 3.02790975 -0.06585615
v 0.05893145 3.02790975 -0.07340627
v 0.02973485 3.02790975 -0.07805526
v -0.00062912 2.90964627 -0.07762506
v -0.03024947 2.90964627 -0.07609286
v -0.05873108 2.90964627 -0.07155802
v -0.0849794 2.90964627 -0.06419208
v -0.10798694 2.90964627 -0.05428087
v -0.12686802 2.90964627 -0.04220214
v -0.14089933 2.90964627 -0.02842281
v -0.14953894 2.90964627 -0.01347126
v -0.15245622 2.90964627 0.00207788
v -0.14953894 2.90964627 0.01762703
v -0.14089933 2.90964627 0.03257863
v -0.12686802 2.90964627 0.04635801
v -0.10798694 2.90964627 0.05843668
v -0.0849794 2.90964627 0.06834896
v -0.05873108 2.90964627 0.07571375
v -0.03024947 2.90964627 0.08024969
v -0.00062912 2.90964627 0.08178085
v 0.02899121 2.90964627 0.08024969
v 0.05747282 2.90964627 0.07571375
v 0.08372114 2.90964627 0.06834896
v 0.10672868 2.90964627 0.05843668
v 0.12560977 2.90964627 0.04635801
v 0.13964107 2.90964627 0.03257863
v 0.14828069 2.90964627 0.01762703
v 0.15119798 2.90964627 0.00207788
v 0.14828069 2.90964627 -0.01347126
v 0.13964107 2.90964627 -0.02842281
v 0.12560977 2.90964627 -0.04220214
v 0.10672868 2.90964627 -0.05428087
v 0.08372114 2.90964627 -0.06419208
v 0.05747282 2.90964627 -0.07155802
v 0.02899121 2.90964627 -0.07609286
v -0.00062912 2.79138302 -0.07509754
v -0.02931007 2.79138302 -0.07361446
v -0.05688809 2.79138302 -0.06922301
v -0.0823044 2.79138302 -0.06209054
v -0.10458265 2.79138302 -0.05249325
v -0.12286576 2.79138302 -0.04079876
v -0.13645064 2.79138302 -0.02745578
v -0.14481689 2.79138302 -0.01297833
v -0.14764103 2.79138302 0.00207789
v -0.14481689 2.79138302 0.01713409
v -0.13645064 2.79138302 0.03161157
v -0.12286576 2.79138302 0.04495453
v -0.10458265 2.79138302 0.05664912
v -0.0823044 2.79138302 0.06624736
v -0.05688809 2.79138302 0.07337884
v -0.02931007 2.79138302 0.07777033
v -0.00062912 2.79138302 0.07925333
v 0.02805182 2.79138302 0.07777033
v 0.05562983 2.79138302 0.07337884
v 0.08104614 2.79138302 0.06624736
v 0.10332439 2.79138302 0.05664912
v 0.1216075 2.79138302 0.04495453
v 0.13519239 2.79138302 0.03161157
v 0.14355863 2.79138302 0.01713409
v 0.14638277 2.79138302 0.00207789
v 0.14355863 2.79138302 -0.01297833
v 0.13519239 2.79138302 -0.02745578
v 0.1216075 2.79138302 -0.04079876
v 0.10332439 2.79138302 -0.05249325
v 0.08104614 2.79138302 -0.06209054
v 0.05562983 2.79138302 -0.06922301
v 0.02805182 2.79138302 -0.07361446
v -0.00062912 2.55483102 -0.06854063
v -0.02687264 2.55483102 -0.06718322
v -0.05210873 2.55483102 -0.06316435
v -0.07536575 2.55483102 -0.05663885
v -0.09575086 2.55483102 -0.04785689
v -0.11247982 2.55483102 -0.03715553
v -0.12491168 2.55483102 -0.02494607
v -0.13256651 2.55483102 -0.01169937
v -0.13515074 2.55483102 0.00207789
v -0.13256651 2.55483102 0.01585511
v -0.12491168 2.55483102 0.02910291
v -0.11247982 2.55483102 0.04131135
v -0.09575086 2.55483102 0.05201274
v -0.07536575 2.55483102 0.06079465
v -0.05210873 2.55483102 0.06732118
v -0.02687264 2.55483102 0.07133904
v -0.00062912 2.55483102 0.07269645
v 0.02561439 2.55483102 0.07133904
v 0.05085047 2.55483102 0.06732118
v 0.0741075 2.55483102 0.06079465
v 0.0944926 2.55483102 0.05201274
v 0.11122156 2.55483102 0.04131135
v 0.12365343 2.55483102 0.02910291
v 0.13130825 2.55483102 0.01585511
v 0.13389249 2.55483102 0.00207789
v 0.13130825 2.55483102 -0.01169937
v 0.12365343 2.55483102 -0.02494607
v 0.11122156 2.55483102 -0.03715553
v 0.0944926 2.55483102 -0.04785689
v 0.0741075 2.55483102 -0.05663885
v 0.05085047 2.55483102 -0.06316435
v 0.02561439 2.55483102 -0.06718322
v -0.00062912 2.55483102 0.00207789
v -0.00062912 2.7242484 -0.07323673
v -0.02861775 2.7242484 -0.07178935
v -0.05553211 2.7242484 -0.06750354
v -0.08033492 2.7242484 -0.06054373
v -0.10207598 2.7242484 -0.05117777
v -0.11991862 2.7242484 -0.03976474
v -0.13317647 2.7242484 -0.0267441
v -0.14133985 2.7242484 -0.0126152
v -0.14409714 2.7242484 0.00207789
v -0.14133985 2.7242484 0.01677093
v -0.13317647 2.7242484 0.03089989
v -0.11991862 2.72424769 0.04392051
v -0.10207598 2.72424769 0.05533354
v -0.08033492 2.72424769 0.06469946
v -0.05553211 2.72424769 0.0716593
v -0.02861775 2.72424769 0.07594507
v -0.00062912 2.72424769 0.07739251
v 0.0273595 2.72424769 0.07594507
v 0.05427385 2.72424769 0.0716593
v 0.07907666 2.72424769 0.06469946
v 0.10081772 2.72424769 0.05533354
v 0.11866036 2.72424769 0.04392051
v 0.13191822 2.7242484 0.03089989
v 0.14008158 2.7242484 0.01677093
v 0.14283889 2.7242484 0.00207789
v 0.14008158 2.7242484 -0.0126152
v 0.13191822 2.7242484 -0.0267441
v 0.11866036 2.7242484 -0.03976474
v 0.10081772 2.7242484 -0.05117777
v 0.07907666 2.7242484 -0.06054373
v 0.05427385 2.7242484 -0.06750354
v 0.0273595 2.7242484 -0.07178935
v -0.02977679 2.7240293 -0.08026243
v -0.02803168 2.55461287 -0.07565644
v -0.00062912 2.55461645 -0.07707347
v -0.00062912 2.72403216 -0.08176949
v -0.05789076 2.72402119 -0.07578514
v -0.05446738 2.55460429 -0.07144701
v -0.08397789 2.72400617 -0.06846538
v -0.07900756 2.55458998 -0.0645605
v -0.10711795 2.72398543 -0.05849444
v -0.10079281 2.55456805 -0.05517368
v -0.12647648 2.7239573 -0.04611127
v -0.11903771 2.55454039 -0.0435021
v -0.14126463 2.72392392 -0.03158457
v -0.13300098 2.5545082 -0.0297876
v -0.15067771 2.72389507 -0.01529237
v -0.14190441 2.55447888 -0.01437553
v -0.15393632 2.72388315 0.00207789
v -0.14499118 2.55446744 0.00207789
v -0.15067771 2.72389507 0.01944813
v -0.14190441 2.55447888 0.01853233
v -0.14126463 2.72392392 0.03574037
v -0.13300098 2.5545082 0.03394337
v -0.12647648 2.7239573 0.05026701
v -0.11903771 2.55454039 0.04765788
v -0.10711795 2.72398543 0.06265025
v -0.10079281 2.55456805 0.05933047
v -0.08397789 2.72400617 0.07262109
v -0.07900756 2.55458998 0.06871627
v -0.05789076 2.72402119 0.07994093
v -0.05446738 2.55460429 0.07560282
v -0.02977679 2.7240293 0.08441826
v -0.02803168 2.55461287 0.07981325
v -0.00062912 2.72403216 0.08592536
v -0.00062912 2.55461573 0.08122932
v 0.02851853 2.7240293 0.08441826
v 0.02677342 2.55461287 0.07981325
v 0.05663251 2.72402119 0.07994093
v 0.05320912 2.55460429 0.07560282
v 0.08271963 2.72400617 0.07262109
v 0.07774931 2.55458998 0.06871627
v 0.10585969 2.72398543 0.06265025
v 0.09953455 2.55456805 0.05933047
v 0.12521822 2.7239573 0.05026701
v 0.11777946 2.55454039 0.04765788
v 0.14000637 2.72392392 0.03574037
v 0.13174273 2.5545082 0.03394337
v 0.14941944 2.72389507 0.01944813
v 0.14064616 2.55447888 0.01853233
v 0.15267808 2.72388315 0.00207789
v 0.14373293 2.55446744 0.00207789
v 0.14941944 2.72389507 -0.01529237
v 0.14064616 2.55447888 -0.01437553
v 0.14000637 2.72392392 -0.03158457
v 0.13174273 2.5545082 -0.0297876
v 0.12521822 2.7239573 -0.04611127
v 0.11777946 2.55454039 -0.0435021
v 0.10585969 2.72398543 -0.05849444
v 0.09953455 2.55456805 -0.05517368
v 0.08271963 2.72400617 -0.06846538
v 0.07774931 2.55458998 -0.0645605
v 0.05663251 2.72402119 -0.07578514
v 0.05320912 2.55460429 -0.07144701
v 0.02851853 2.7240293 -0.08026243
v 0.02677342 2.55461287 -0.07565644
v -0.00062912 4.50764751 0.08504998
v 0.00781787 4.55296134 0.08504998
v -0.01016612 4.55274295 0.08504998
v -0.02669712 4.54566097 0.08504998
v -0.03926013 4.53279304 0.08504998
v -0.04594212 4.51609516 0.08504998
v -0.04572513 4.49811077 0.08504998
v -0.03864312 4.48157882 0.08504998
v -0.02577312 4.46901702 0.08504999
v -0.00907612 4.46233367 0.08504999
v 0.00890787 4.46255207 0.08504999
v 0.02543887 4.4696331 0.08504999
v 0.03800187 4.48250293 0.08504998
v 0.04468387 4.49919986 0.08504998
v 0.04446687 4.51718521 0.08504998
v 0.03738487 4.53371524 0.08504998
v 0.02451487 4.546278 0.08504998
v 0.01626487 4.59827423 0.08504998
v -0.01970212 4.5978403 0.08504998
v -0.05276512 4.58367633 0.08504998
v -0.07789113 4.55793571 0.08504998
v -0.09125512 4.52454185 0.08504998
v -0.09082113 4.48857498 0.08504998
v -0.07665713 4.45551109 0.08504999
v -0.05091812 4.43038463 0.08504999
v -0.01752312 4.41702175 0.08504999
v 0.01844387 4.41745376 0.08504999
v 0.05150687 4.43161964 0.08504999
v 0.07663288 4.45735931 0.08504999
v 0.08999687 4.49075412 0.08504998
v 0.08956287 4.526721 0.08504998
v 0.07539887 4.55978393 0.08504997
v 0.04965987 4.58490943 0.08504998
v 0.02471187 4.64358615 0.08504998
v -0.02923912 4.64293575 0.08504998
v -0.07883413 4.62168884 0.08504998
v -0.11652313 4.58308124 0.08504998
v -0.13656812 4.53298854 0.08504998
v -0.13591812 4.47903823 0.08504998
v -0.11467113 4.42944335 0.08504999
v -0.07606212 4.39175415 0.08504998
v -0.02597012 4.37170887 0.08504999
v 0.02798087 4.37235927 0.08504999
v 0.07757587 4.39360618 0.08504998
v 0.11526487 4.43221378 0.08504999
v 0.13530987 4.48230648 0.08504998
v 0.13465987 4.53625679 0.08504998
v 0.11341287 4.58585262 0.08504998
v 0.07480488 4.62354183 0.08504998
v 0.03315987 4.6889038 0.08504999
v -0.03877612 4.68803787 0.08504999
v -0.10490513 4.65970802 0.08504999
v -0.15515813 4.60822677 0.08504998
v -0.18188612 4.54143619 0.08504998
v -0.18101912 4.46950149 0.08504999
v -0.15268912 4.40337181 0.08504999
v -0.10121013 4.35311889 0.08504999
v -0.03441812 4.32639122 0.08504999
v 0.03751787 4.32725811 0.08504999
v 0.10364688 4.35558795 0.08504999
v 0.15389989 4.40706729 0.08504999
v 0.18062788 4.47385883 0.08504999
v 0.17976088 4.54579448 0.08504998
v 0.15143089 4.61192321 0.08504998
v 0.09995187 4.66217708 0.08504999
v 0.04160687 4.73421764 0.08504998
v -0.04831312 4.73313522 0.08504998
v -0.13097313 4.69772148 0.08504999
v -0.19378912 4.63337326 0.08504998
v -0.22719812 4.54988288 0.08504998
v -0.2261151 4.45996379 0.08504999
v -0.1907031 4.37730407 0.08504999
v -0.12635412 4.31448745 0.08504999
v -0.04286512 4.28107833 0.08504999
v 0.04705487 4.28216171 0.08504999
v 0.12971487 4.31757354 0.08504999
v 0.19253088 4.38192176 0.08504999
v 0.22594088 4.46541214 0.08504999
v 0.22485688 4.55533218 0.08504998
v 0.18944487 4.6379919 0.08504998
v 0.12509587 4.70080852 0.08504999
v 0.05005387 4.77952957 0.08504999
v -0.05784912 4.77822876 0.08504999
v -0.15704113 4.73573494 0.08504998
v -0.23242011 4.65851688 0.08504999
v -0.27251213 4.55832958 0.08504998
v -0.27121111 4.45042705 0.08504999
v -0.22871713 4.35123634 0.08504999
v -0.15149912 4.27585601 0.08504999
v -0.05131212 4.23576545 0.08504999
v 0.05659087 4.23706626 0.08504999
v 0.15578289 4.27956008 0.08504999
v 0.23116187 4.35677814 0.08504999
v 0.27125388 4.45696449 0.08504999
v 0.26995286 4.56486702 0.08504997
v 0.22745889 4.66406059 0.08504999
v 0.15024088 4.73943805 0.08504998
v 0.05850087 4.82484722 0.08504998
v -0.06738712 4.82332992 0.08504998
v -0.18311213 4.77375412 0.08504999
v -0.27105513 4.68366527 0.08504999
v -0.31782916 4.56677818 0.08504997
v -0.31631213 4.44089031 0.08504999
v -0.26673513 4.32516479 0.08504999
v -0.17664612 4.23722171 0.08504999
v -0.05975913 4.19044685 0.08504999
v 0.06612887 4.1919651 0.08504999
v 0.18185389 4.24154186 0.08504999
v 0.26979789 4.3316307 0.08504999
v 0.31657087 4.44851684 0.08504999
v 0.31505388 4.57440567 0.08504998
v 0.26547688 4.69013118 0.08504999
v 0.17538788 4.77807521 0.08504999
v -0.01016612 4.55274295 -0.083063
v 0.00781787 4.55296134 -0.083063
v -0.00062912 4.50764751 -0.083063
v -0.02669712 4.54566097 -0.083063
v -0.03926013 4.53279304 -0.083063
v -0.04594212 4.51609516 -0.083063
v -0.04572513 4.49811077 -0.083063
v -0.03864312 4.48157882 -0.083063
v -0.02577312 4.46901702 -0.083063
v -0.00907612 4.46233367 -0.083063
v 0.00890787 4.46255207 -0.083063
v 0.02543887 4.4696331 -0.083063
v 0.03800187 4.48250293 -0.083063
v 0.04468387 4.49919986 -0.083063
v 0.04446687 4.51718521 -0.083063
v 0.03738487 4.53371524 -0.083063
v 0.02451487 4.546278 -0.083063
v -0.01970212 4.5978403 -0.083063
v 0.01626487 4.59827423 -0.083063
v -0.05276512 4.58367633 -0.083063
v -0.07789113 4.55793571 -0.083063
v -0.09125512 4.52454185 -0.083063
v -0.09082113 4.48857498 -0.083063
v -0.07665713 4.45551109 -0.083063
v -0.05091812 4.43038463 -0.083063
v -0.01752312 4.41702175 -0.083063
v 0.01844387 4.41745376 -0.083063
v 0.05150687 4.43161964 -0.083063
v 0.07663288 4.45735931 -0.083063
v 0.08999687 4.49075412 -0.083063
v 0.08956287 4.526721 -0.083063
v 0.07539887 4.55978393 -0.083063
v 0.04965987 4.58490943 -0.083063
v -0.02923912 4.64293575 -0.083063
v 0.02471187 4.64358615 -0.083063
v -0.07883413 4.62168884 -0.083063
v -0.11652313 4.58308124 -0.083063
v -0.13656812 4.53298854 -0.083063
v -0.13591812 4.47903823 -0.083063
v -0.11467113 4.42944335 -0.083063
v -0.07606212 4.39175415 -0.083063
v -0.02597012 4.37170887 -0.083063
v 0.02798087 4.37235927 -0.083063
v 0.07757587 4.39360618 -0.083063
v 0.11526487 4.43221378 -0.083063
v 0.13530987 4.48230648 -0.083063
v 0.13465987 4.53625679 -0.083063
v 0.11341287 4.58585262 -0.083063
v 0.07480488 4.62354183 -0.083063
v -0.03877612 4.68803787 -0.083063
v 0.03315987 4.6889038 -0.083063
v -0.10490513 4.65970802 -0.083063
v -0.15515813 4.60822677 -0.083063
v -0.18188612 4.54143619 -0.083063
v -0.18101912 4.46950149 -0.083063
v -0.15268912 4.40337181 -0.083063
v -0.10121013 4.35311889 -0.083063
v -0.03441812 4.32639122 -0.083063
v 0.03751787 4.32725811 -0.083063
v 0.10364688 4.35558795 -0.083063
v 0.15389989 4.40706729 -0.083063
v 0.18062788 4.47385883 -0.083063
v 0.17976088 4.54579448 -0.083063
v 0.15143089 4.61192321 -0.083063
v 0.09995187 4.66217708 -0.083063
v -0.04831312 4.73313522 -0.083063
v 0.04160687 4.73421764 -0.083063
v -0.13097313 4.69772148 -0.083063
v -0.19378912 4.63337326 -0.083063
v -0.22719812 4.54988288 -0.083063
v -0.2261151 4.45996379 -0.083063
v -0.1907031 4.37730407 -0.083063
v -0.12635412 4.31448745 -0.083063
v -0.04286512 4.28107833 -0.08306299
v 0.04705487 4.28216171 -0.08306299
v 0.12971487 4.31757354 -0.083063
v 0.19253088 4.38192176 -0.083063
v 0.22594088 4.46541214 -0.083063
v 0.22485688 4.55533218 -0.083063
v 0.18944487 4.6379919 -0.083063
v 0.12509587 4.70080852 -0.083063
v -0.05784912 4.77822876 -0.083063
v 0.05005387 4.77952957 -0.083063
v -0.15704113 4.73573494 -0.083063
v -0.23242011 4.65851688 -0.083063
v -0.27251213 4.55832958 -0.083063
v -0.27121111 4.45042705 -0.083063
v -0.22871713 4.35123634 -0.083063
v -0.15149912 4.27585601 -0.08306299
v -0.05131212 4.23576545 -0.083063
v 0.05659087 4.23706626 -0.083063
v 0.15578289 4.27956008 -0.08306299
v 0.23116187 4.35677814 -0.083063
v 0.27125388 4.45696449 -0.083063
v 0.26995286 4.56486702 -0.083063
v 0.22745889 4.66406059 -0.083063
v 0.15024088 4.73943805 -0.083063
v -0.06738712 4.82332992 -0.083063
v 0.05850087 4.82484722 -0.083063
v -0.18311213 4.77375412 -0.083063
v -0.27105513 4.68366527 -0.083063
v -0.31782916 4.56677818 -0.083063
v -0.31631213 4.44089031 -0.083063
v -0.26673513 4.32516479 -0.083063
v -0.17664612 4.23722171 -0.083063
v -0.05975913 4.19044685 -0.083063
v 0.06612887 4.1919651 -0.083063
v 0.18185389 4.24154186 -0.083063
v 0.26979789 4.3316307 -0.083063
v 0.31657087 4.44851684 -0.083063
v 0.31505388 4.57440567 -0.083063
v 0.26547688 4.69013118 -0.083063
v 0.17538788 4.77807521 -0.083063
v 0.05850087 4.82484722 0.11429698
v -0.06738712 4.82332992 0.11429698
v -0.05784912 4.77822876 0.11429699
v 0.05005387 4.77952957 0.11429699
v -0.18311213 4.77375412 0.11429699
v -0.15704113 4.73573494 0.11429699
v -0.27105513 4.68366527 0.11429699
v -0.23242011 4.65851688 0.11429698
v -0.31782916 4.56677818 0.11429698
v -0.27251213 4.55832958 0.11429698
v -0.31631213 4.44089031 0.11429699
v -0.27121111 4.45042705 0.11429699
v -0.26673513 4.32516479 0.11429699
v -0.22871713 4.35123634 0.11429699
v -0.17664612 4.23722171 0.11429699
v -0.15149912 4.27585601 0.11429699
v -0.05975913 4.19044685 0.11429699
v -0.05131212 4.23576545 0.11429699
v 0.06612887 4.1919651 0.11429699
v 0.05659087 4.23706626 0.11429699
v 0.18185389 4.24154186 0.11429699
v 0.15578289 4.27956008 0.11429699
v 0.26979789 4.3316307 0.11429699
v 0.23116187 4.35677814 0.11429699
v 0.31657087 4.44851684 0.11429699
v 0.27125388 4.45696449 0.11429699
v 0.31505388 4.57440567 0.11429698
v 0.26995286 4.56486702 0.11429698
v 0.26547688 4.69013118 0.11429699
v 0.22745889 4.66406059 0.11429698
v 0.17538788 4.77807521 0.11429699
v 0.15024088 4.73943805 0.11429699
v -0.05784912 4.77822876 -0.10865402
v -0.06738712 4.82332992 -0.10865399
v 0.05850087 4.82484722 -0.10865399
v 0.05005387 4.77952957 -0.10865402
v -0.15704113 4.73573494 -0.10865402
v -0.18311213 4.77375412 -0.10865402
v -0.23242011 4.65851688 -0.108654
v -0.27105513 4.68366527 -0.108654
v -0.27251213 4.55832958 -0.108654
v -0.31782916 4.56677818 -0.10865402
v -0.27121111 4.45042705 -0.10865399
v -0.31631213 4.44089031 -0.108654
v -0.22871713 4.35123634 -0.10865399
v -0.26673513 4.32516479 -0.10865399
v -0.15149912 4.27585601 -0.10865399
v -0.17664612 4.23722171 -0.10865402
v -0.05131212 4.23576545 -0.10865402
v -0.05975913 4.19044685 -0.108654
v 0.05659087 4.23706626 -0.10865402
v 0.06612887 4.1919651 -0.108654
v 0.15578289 4.27956008 -0.10865399
v 0.18185389 4.24154186 -0.10865402
v 0.23116187 4.35677814 -0.10865399
v 0.26979789 4.3316307 -0.10865399
v 0.27125388 4.45696449 -0.10865399
v 0.31657087 4.44851684 -0.10865399
v 0.26995286 4.56486702 -0.10865402
v 0.31505388 4.57440567 -0.10865402
v 0.22745889 4.66406059 -0.108654
v 0.26547688 4.69013118 -0.108654
v 0.15024088 4.73943805 -0.10865402
v 0.17538788 4.77807521 -0.10865402
g Group4499
f 52 51 15 16
f 1 17 49 50
f 70 48 69
f 52 17 18 51
f 39 38 64 63
f 70 69 47
f 4 29 30 5
f 30 61 58 35
f 13 43 44 31
f 63 62 39
f 7 32 45 46
f 46 45 53 54
f 57 56 19 20
f 3 33 29 4
f 10 13 31 34
f 47 69 54 43
f 6 35 32 7
f 14 11 36 37
f 56 21 22 60
f 62 50 8 39
f 11 10 34 36
f 43 54 53 44
f 5 30 35 6
f 8 9 38 39
f 63 40 62
f 41 64 67 33
f 1 40 41 2
f 51 65 23 15
f 38 42 67 64
f 51 18 24 65
f 56 60 25 19
f 36 34 58 61
f 60 66 26 25
f 42 37 68 67
f 60 22 27 66
f 40 63 64 41
f 12 14 37 42
f 57 28 21 56
f 66 70 47 26
f 40 1 50 62
f 50 49 16 8
f 49 52 16
f 66 27 48 70
f 9 12 42 38
f 45 55 53
f 2 41 33 3
f 65 57 20 23
f 65 24 28 57
f 37 36 61 68
f 16 15 9 8
f 17 52 49
f 17 1 2 18
f 20 19 11 14
f 21 5 6 22
f 15 23 12 9
f 18 2 3 24
f 19 25 10 11
f 25 26 13 10
f 22 6 7 27
f 28 4 5 21
f 26 47 43 13
f 44 53 55
f 27 7 46 48
f 23 20 14 12
f 24 3 4 28
f 35 58 59 32
f 48 46 54 69
f 29 68 61 30
f 34 31 59 58
f 31 44 55 59
f 32 59 55 45
f 33 67 68 29
g Group61149
f 402 401 379 380
f 72 71 145 142
f 71 215 213 145
f 219 221 363 399
f 142 214 217 146
f 73 72 142 146
f 72 73 218 216
f 220 276 310 352
f 311 353 352 310
f 136 275 274 148
f 129 74 153 150
f 364 363 362 361
f 146 217 359 360
f 155 225 227 156
f 76 75 155 156
f 75 76 228 226
f 293 129 150 292
f 394 393 392 391
f 84 230 229 159
f 127 232 233 161
f 397 372 369 404
f 121 236 235 164
f 295 210 403 398
f 247 183 394 387
f 355 332 329 354
f 286 281 386 391
f 387 394 391 386
f 400 399 363 364
f 115 272 271 169
f 174 295 398 378
f 123 238 239 160
f 210 209 374 403
f 113 112 172 171
f 112 242 241 172
f 375 398 403 374
f 119 130 174 175
f 118 279 277 179
f 109 118 179 180
f 296 173 377 375
f 78 244 243 144
f 377 378 398 375
f 143 245 247 147
f 86 87 183 181
f 79 80 248 246
f 75 226 323 356
f 351 356 323 324
f 152 251 252 151
f 81 128 253 254
f 360 359 358 357
f 280 138 355 335
f 137 279 334 354
f 154 255 257 157
f 89 90 188 187
f 82 83 258 256
f 91 259 260 189
f 222 291 372 362
f 93 86 181 190
f 85 92 191 182
f 87 94 193 183
f 186 195 194 185
f 88 132 133 95
f 98 91 189 196
f 90 97 197 188
f 361 362 372 397
f 100 93 190 198
f 92 99 199 191
f 201 180 384 396
f 94 101 201 193
f 195 203 202 194
f 95 133 134 102
f 105 98 196 204
f 97 104 205 197
f 278 289 395 381
f 107 100 198 206
f 99 106 207 199
f 396 384 381 395
f 101 109 180 201
f 203 176 173 202
f 102 134 131 110
f 114 105 204 170
f 104 113 171 205
f 297 120 210 295
f 300 299 368 371
f 106 262 261 207
f 255 154 370 365
f 277 178 401 382
f 108 107 206 208
f 117 265 264 165
f 177 278 381 402
f 284 250 139 287
f 120 111 209 210
f 130 297 295 174
f 151 252 299 300
f 128 301 302 253
f 185 194 303 304
f 96 89 187 211
f 132 305 306 133
f 194 202 307 303
f 103 96 211 212
f 133 306 308 134
f 202 173 296 307
f 111 103 212 209
f 134 308 298 131
f 74 136 148 153
f 137 119 175 178
f 149 249 251 152
f 135 81 254 250
f 184 192 195 186
f 139 88 95 140
f 192 200 203 195
f 140 95 102 141
f 200 177 176 203
f 141 102 110 138
f 371 368 365 370
f 215 78 144 213
f 193 201 396 393
f 214 143 147 217
f 216 218 80 79
f 276 283 339 310
f 80 218 309 340
f 221 152 151 222
f 224 223 128 81
f 335 355 354 334
f 284 287 345 338
f 225 154 157 227
f 226 228 83 82
f 230 77 158 229
f 222 151 300 291
f 223 294 301 128
f 219 149 152 221
f 220 224 81 135
f 282 281 249 149
f 289 285 392 395
f 283 135 250 284
f 286 285 192 184
f 287 139 140 288
f 285 289 200 192
f 288 140 141 290
f 289 278 177 200
f 290 141 138 280
f 273 282 149 219
f 276 220 135 283
f 281 286 184 249
f 242 240 122 121
f 241 164 163 237
f 236 234 126
f 235 162 231
f 112 113 240 242
f 303 307 376 390
f 77 76 156 158
f 212 211 389 373
f 390 376 373 389
f 147 247 387 388
f 281 282 385 386
f 388 387 386 385
f 180 179 383 384
f 179 277 382 383
f 384 383 382 381
f 175 174 378 379
f 173 176 380 377
f 380 379 378 377
f 307 296 375 376
f 209 212 373 374
f 376 375 374 373
f 291 300 371 372
f 154 225 369 370
f 232 123 160 233
f 217 147 388 359
f 119 137 354 329
f 282 273 358 385
f 372 371 370 369
f 299 304 367 368
f 238 114 170 239
f 359 388 385 358
f 242 121 164 241
f 178 175 379 401
f 187 255 365 366
f 368 367 366 365
f 156 227 229 158
f 76 77 230 228
f 163 231 233 160
f 126 127 161 162
f 122 123 232 234
f 171 237 239 170
f 113 114 238 240
f 157 257 260 159
f 83 84 259 258
f 188 197 196 189
f 90 91 98 97
f 197 205 204 196
f 97 98 105 104
f 205 171 170 204
f 104 105 114 113
f 227 157 159 229
f 228 230 84 83
f 231 162 161 233
f 234 232 127 126
f 237 163 160 239
f 240 238 123 122
f 393 396 395 392
f 244 85 182 243
f 304 303 390 367
f 245 181 183 247
f 246 248 87 86
f 309 310 339 340
f 138 110 332 355
f 251 186 185 252
f 254 253 132 88
f 87 248 337 346
f 337 338 345 346
f 255 187 188 257
f 256 258 90 89
f 279 137 178 277
f 259 84 159 260
f 252 185 304 299
f 253 302 305 132
f 249 184 186 251
f 250 254 88 139
f 176 177 402 380
f 172 241 237 171
f 221 222 362 363
f 257 188 189 260
f 258 259 91 90
f 121 122 234 236
f 145 213 214 142
f 71 72 216 215
f 169 271 267 167
f 124 125 166 168
f 115 116 270 272
f 144 243 245 143
f 78 79 246 244
f 182 191 190 181
f 85 86 93 92
f 191 199 198 190
f 92 93 100 99
f 199 207 206 198
f 99 100 107 106
f 207 261 263 206
f 106 107 266 262
f 213 144 143 214
f 215 216 79 78
f 243 182 181 245
f 244 246 86 85
f 211 187 366 389
f 262 115 169 261
f 367 390 389 366
f 381 382 401 402
f 265 108 208 264
f 273 219 399 358
f 236 126 162 235
f 164 235 231 163
f 261 169 167 263
f 262 266 116 115
f 269 117 165 268
f 357 358 399 400
f 183 193 393 394
f 272 124 168 271
f 285 286 391 392
f 270 269 125
f 267 166 268
f 271 168 166 267
f 272 270 125 124
f 167 267 268 165
f 125 269 268 166
f 116 117 269 270
f 206 263 264 208
f 225 155 404 369
f 107 108 265 266
f 263 167 165 264
f 266 265 117 116
f 312 311 310 309
f 218 73 312 309
f 316 315 314 313
f 223 224 313 314
f 320 319 318 317
f 305 302 320 317
f 256 89 318 319
f 324 323 322 321
f 301 294 324 321
f 226 82 322 323
f 328 327 326 325
f 298 308 328 325
f 103 111 326 327
f 332 331 330 329
f 130 119 329 330
f 110 131 331 332
f 336 335 334 333
f 118 109 336 333
f 279 118 333 334
f 340 339 338 337
f 248 80 340 337
f 283 284 338 339
f 342 341 327 328
f 308 306 342 328
f 96 103 327 341
f 346 345 344 343
f 94 87 346 343
f 287 288 344 345
f 317 318 341 342
f 306 305 317 342
f 89 96 341 318
f 343 344 348 347
f 101 94 343 347
f 288 290 348 344
f 321 322 319 320
f 302 301 321 320
f 82 256 319 322
f 347 348 335 336
f 109 101 347 336
f 290 280 335 348
f 325 326 350 349
f 120 297 349 350
f 111 120 350 326
f 315 351 324 314
f 294 223 314 324
f 331 325 349 330
f 297 130 330 349
f 131 298 325 331
f 353 316 313 352
f 224 220 352 313
f 408 407 406 405
f 353 311 405 406
f 275 136 407 408
f 412 411 410 409
f 360 357 409 410
f 146 360 410 411
f 416 415 414 413
f 404 155 416 413
f 397 404 413 414
f 420 419 418 417
f 400 364 417 418
f 153 148 419 420
f 424 423 422 421
f 356 351 421 422
f 75 356 422 423
f 415 426 425 414
f 361 397 414 425
f 292 150 426 415
f 423 424 415 416
f 155 75 423 416
f 293 292 415 424
f 408 427 411 412
f 274 275 408 412
f 73 146 411 427
f 426 420 417 425
f 364 361 425 417
f 150 153 420 426
f 419 412 409 418
f 357 400 418 409
f 148 274 412 419
f 427 408 405 428
f 312 73 427 428
f 311 312 428 405
f 432 431 430 429
f 315 316 429 430
f 74 129 431 432
f 431 424 421 430
f 351 315 430 421
f 129 293 424 431
f 407 432 429 406
f 316 353 406 429
f 136 74 432 407
g Group1804
f 433 434 435
f 433 435 436
f 433 436 437
f 433 437 438
f 433 438 439
f 433 439 440
f 433 440 441
f 433 441 442
f 433 442 443
f 433 443 444
f 433 444 445
f 433 445 446
f 433 446 447
f 433 447 448
f 433 448 449
f 433 449 450
f 433 450 451
f 433 451 452
f 433 452 453
f 433 453 454
f 433 454 455
f 433 455 456
f 433 456 457
f 433 457 458
f 433 458 459
f 433 459 460
f 433 460 461
f 433 461 462
f 433 462 463
f 433 463 464
f 433 464 465
f 433 465 434
f 434 466 467 435
f 435 467 468 436
f 436 468 469 437
f 437 469 470 438
f 438 470 471 439
f 439 471 472 440
f 440 472 473 441
f 441 473 474 442
f 442 474 475 443
f 443 475 476 444
f 444 476 477 445
f 445 477 478 446
f 446 478 479 447
f 447 479 480 448
f 448 480 481 449
f 449 481 482 450
f 450 482 483 451
f 451 483 484 452
f 452 484 485 453
f 453 485 486 454
f 454 486 487 455
f 455 487 488 456
f 456 488 489 457
f 457 489 490 458
f 458 490 491 459
f 459 491 492 460
f 460 492 493 461
f 461 493 494 462
f 462 494 495 463
f 463 495 496 464
f 464 496 497 465
f 465 497 466 434
f 466 498 499 467
f 467 499 500 468
f 468 500 501 469
f 469 501 502 470
f 470 502 503 471
f 471 503 504 472
f 472 504 505 473
f 473 505 506 474
f 474 506 507 475
f 475 507 508 476
f 476 508 509 477
f 477 509 510 478
f 478 510 511 479
f 479 511 512 480
f 480 512 513 481
f 481 513 514 482
f 482 514 515 483
f 483 515 516 484
f 484 516 517 485
f 485 517 518 486
f 486 518 519 487
f 487 519 520 488
f 488 520 521 489
f 489 521 522 490
f 490 522 523 491
f 491 523 524 492
f 492 524 525 493
f 493 525 526 494
f 494 526 527 495
f 495 527 528 496
f 496 528 529 497
f 497 529 498 466
f 498 530 531 499
f 499 531 532 500
f 500 532 533 501
f 501 533 534 502
f 502 534 535 503
f 503 535 536 504
f 504 536 537 505
f 505 537 538 506
f 506 538 539 507
f 507 539 540 508
f 508 540 541 509
f 509 541 542 510
f 510 542 543 511
f 511 543 544 512
f 512 544 545 513
f 513 545 546 514
f 514 546 547 515
f 515 547 548 516
f 516 548 549 517
f 517 549 550 518
f 518 550 551 519
f 519 551 552 520
f 520 552 553 521
f 521 553 554 522
f 522 554 555 523
f 523 555 556 524
f 524 556 557 525
f 525 557 558 526
f 526 558 559 527
f 527 559 560 528
f 528 560 561 529
f 529 561 530 498
f 530 562 563 531
f 531 563 564 532
f 532 564 565 533
f 533 565 566 534
f 534 566 567 535
f 535 567 568 536
f 536 568 569 537
f 537 569 570 538
f 538 570 571 539
f 539 571 572 540
f 540 572 573 541
f 541 573 574 542
f 542 574 575 543
f 543 575 576 544
f 544 576 577 545
f 545 577 578 546
f 546 578 579 547
f 547 579 580 548
f 548 580 581 549
f 549 581 582 550
f 550 582 583 551
f 551 583 584 552
f 552 584 585 553
f 553 585 586 554
f 554 586 587 555
f 555 587 588 556
f 556 588 589 557
f 557 589 590 558
f 558 590 591 559
f 559 591 592 560
f 560 592 593 561
f 561 593 562 530
f 562 594 595 563
f 563 595 596 564
f 564 596 597 565
f 565 597 598 566
f 566 598 599 567
f 567 599 600 568
f 568 600 601 569
f 569 601 602 570
f 570 602 603 571
f 571 603 604 572
f 572 604 605 573
f 573 605 606 574
f 574 606 607 575
f 575 607 608 576
f 576 608 609 577
f 577 609 610 578
f 578 610 611 579
f 579 611 612 580
f 580 612 613 581
f 581 613 614 582
f 582 614 615 583
f 583 615 616 584
f 584 616 617 585
f 585 617 618 586
f 586 618 619 587
f 587 619 620 588
f 588 620 621 589
f 589 621 622 590
f 590 622 623 591
f 591 623 624 592
f 592 624 625 593
f 593 625 594 562
f 594 626 627 595
f 595 627 628 596
f 596 628 629 597
f 597 629 630 598
f 598 630 631 599
f 599 631 632 600
f 600 632 633 601
f 601 633 634 602
f 602 634 635 603
f 603 635 636 604
f 604 636 637 605
f 605 637 638 606
f 606 638 639 607
f 607 639 640 608
f 608 640 641 609
f 609 641 642 610
f 610 642 643 611
f 611 643 644 612
f 612 644 645 613
f 613 645 646 614
f 614 646 647 615
f 615 647 648 616
f 616 648 649 617
f 617 649 650 618
f 618 650 651 619
f 619 651 652 620
f 620 652 653 621
f 621 653 654 622
f 622 654 655 623
f 623 655 656 624
f 624 656 657 625
f 625 657 626 594
f 626 658 659 627
f 627 659 660 628
f 628 660 661 629
f 629 661 662 630
f 630 662 663 631
f 631 663 664 632
f 632 664 665 633
f 633 665 666 634
f 634 666 667 635
f 635 667 668 636
f 636 668 669 637
f 637 669 670 638
f 638 670 671 639
f 639 671 672 640
f 640 672 673 641
f 641 673 674 642
f 642 674 675 643
f 643 675 676 644
f 644 676 677 645
f 645 677 678 646
f 646 678 679 647
f 647 679 680 648
f 648 680 681 649
f 649 681 682 650
f 650 682 683 651
f 651 683 684 652
f 652 684 685 653
f 653 685 686 654
f 654 686 687 655
f 655 687 688 656
f 656 688 689 657
f 657 689 658 626
f 658 690 691 659
f 659 691 692 660
f 660 692 693 661
f 661 693 694 662
f 662 694 695 663
f 663 695 696 664
f 664 696 697 665
f 665 697 698 666
f 666 698 699 667
f 667 699 700 668
f 668 700 701 669
f 669 701 702 670
f 670 702 703 671
f 671 703 704 672
f 672 704 705 673
f 673 705 706 674
f 674 706 707 675
f 675 707 708 676
f 676 708 709 677
f 677 709 710 678
f 678 710 711 679
f 679 711 712 680
f 680 712 713 681
f 681 713 714 682
f 682 714 715 683
f 683 715 716 684
f 684 716 717 685
f 685 717 718 686
f 686 718 719 687
f 687 719 720 688
f 688 720 721 689
f 689 721 690 658
f 690 722 723 691
f 691 723 724 692
f 692 724 725 693
f 693 725 726 694
f 694 726 727 695
f 695 727 728 696
f 696 728 729 697
f 697 729 730 698
f 698 730 731 699
f 699 731 732 700
f 700 732 733 701
f 701 733 734 702
f 702 734 735 703
f 703 735 736 704
f 704 736 737 705
f 705 737 738 706
f 706 738 739 707
f 707 739 740 708
f 708 740 741 709
f 709 741 742 710
f 710 742 743 711
f 711 743 744 712
f 712 744 745 713
f 713 745 746 714
f 714 746 747 715
f 715 747 748 716
f 716 748 749 717
f 717 749 750 718
f 718 750 751 719
f 719 751 752 720
f 720 752 753 721
f 721 753 722 690
f 722 754 755 723
f 723 755 756 724
f 724 756 757 725
f 725 757 758 726
f 726 758 759 727
f 727 759 760 728
f 728 760 761 729
f 729 761 762 730
f 730 762 763 731
f 731 763 764 732
f 732 764 765 733
f 733 765 766 734
f 734 766 767 735
f 735 767 768 736
f 736 768 769 737
f 737 769 770 738
f 738 770 771 739
f 739 771 772 740
f 740 772 773 741
f 741 773 774 742
f 742 774 775 743
f 743 775 776 744
f 744 776 777 745
f 745 777 778 746
f 746 778 779 747
f 747 779 780 748
f 748 780 781 749
f 749 781 782 750
f 750 782 783 751
f 751 783 784 752
f 752 784 785 753
f 753 785 754 722
f 754 786 787 755
f 755 787 788 756
f 756 788 789 757
f 757 789 790 758
f 758 790 791 759
f 759 791 792 760
f 760 792 793 761
f 761 793 794 762
f 762 794 795 763
f 763 795 796 764
f 764 796 797 765
f 765 797 798 766
f 766 798 799 767
f 767 799 800 768
f 768 800 801 769
f 769 801 802 770
f 770 802 803 771
f 771 803 804 772
f 772 804 805 773
f 773 805 806 774
f 774 806 807 775
f 775 807 808 776
f 776 808 809 777
f 777 809 810 778
f 778 810 811 779
f 779 811 812 780
f 780 812 813 781
f 781 813 814 782
f 782 814 815 783
f 783 815 816 784
f 784 816 817 785
f 785 817 786 754
f 786 818 819 787
f 787 819 820 788
f 788 820 821 789
f 789 821 822 790
f 790 822 823 791
f 791 823 824 792
f 792 824 825 793
f 793 825 826 794
f 794 826 827 795
f 795 827 828 796
f 796 828 829 797
f 797 829 830 798
f 798 830 831 799
f 799 831 832 800
f 800 832 833 801
f 801 833 834 802
f 802 834 835 803
f 803 835 836 804
f 804 836 837 805
f 805 837 838 806
f 806 838 839 807
f 807 839 840 808
f 808 840 841 809
f 809 841 842 810
f 810 842 843 811
f 811 843 844 812
f 812 844 845 813
f 813 845 846 814
f 814 846 847 815
f 815 847 848 816
f 816 848 849 817
f 817 849 818 786
f 881 882 850
f 880 882 881
f 879 882 880
f 878 882 879
f 877 882 878
f 876 882 877
f 875 882 876
f 874 882 875
f 873 882 874
f 872 882 873
f 871 882 872
f 870 882 871
f 869 882 870
f 868 882 869
f 867 882 868
f 866 882 867
f 865 882 866
f 864 882 865
f 863 882 864
f 862 882 863
f 861 882 862
f 860 882 861
f 859 882 860
f 858 882 859
f 857 882 858
f 856 882 857
f 855 882 856
f 854 882 855
f 853 882 854
f 852 882 853
f 851 882 852
f 850 882 851
f 818 883 884 819
f 819 884 885 820
f 820 885 886 821
f 821 886 887 822
f 822 887 888 823
f 823 888 889 824
f 824 889 890 825
f 825 890 891 826
f 826 891 892 827
f 827 892 893 828
f 828 893 894 829
f 829 894 895 830
f 830 895 896 831
f 831 896 897 832
f 832 897 898 833
f 833 898 899 834
f 834 899 900 835
f 835 900 901 836
f 836 901 902 837
f 837 902 903 838
f 838 903 904 839
f 839 904 905 840
f 840 905 906 841
f 841 906 907 842
f 842 907 908 843
f 843 908 909 844
f 844 909 910 845
f 845 910 911 846
f 846 911 912 847
f 847 912 913 848
f 848 913 914 849
f 849 914 883 818
g Group13395
f 918 917 916 915
g Group13398
f 884 883 918 915
f 850 851 916 917
g Group13395
f 915 916 920 919
g Group13398
f 885 884 915 919
f 851 852 920 916
g Group13395
f 919 920 922 921
g Group13398
f 886 885 919 921
f 852 853 922 920
g Group13395
f 921 922 924 923
g Group13398
f 887 886 921 923
f 853 854 924 922
g Group13395
f 923 924 926 925
g Group13398
f 888 887 923 925
f 854 855 926 924
g Group13395
f 925 926 928 927
g Group13398
f 889 888 925 927
f 855 856 928 926
g Group13395
f 927 928 930 929
g Group13398
f 890 889 927 929
f 856 857 930 928
g Group13395
f 929 930 932 931
g Group13398
f 891 890 929 931
f 857 858 932 930
g Group13395
f 931 932 934 933
g Group13398
f 892 891 931 933
f 858 859 934 932
g Group13395
f 933 934 936 935
g Group13398
f 893 892 933 935
f 859 860 936 934
g Group13395
f 935 936 938 937
g Group13398
f 894 893 935 937
f 860 861 938 936
g Group13395
f 937 938 940 939
g Group13398
f 895 894 937 939
f 861 862 940 938
g Group13395
f 939 940 942 941
g Group13398
f 896 895 939 941
f 862 863 942 940
g Group13395
f 941 942 944 943
g Group13398
f 897 896 941 943
f 863 864 944 942
g Group13395
f 943 944 946 945
g Group13398
f 898 897 943 945
f 864 865 946 944
g Group13395
f 945 946 948 947
g Group13398
f 899 898 945 947
f 865 866 948 946
g Group13395
f 947 948 950 949
g Group13398
f 900 899 947 949
f 866 867 950 948
g Group13395
f 949 950 952 951
g Group13398
f 901 900 949 951
f 867 868 952 950
g Group13395
f 951 952 954 953
g Group13398
f 902 901 951 953
f 868 869 954 952
g Group13395
f 953 954 956 955
g Group13398
f 903 902 953 955
f 869 870 956 954
g Group13395
f 955 956 958 957
g Group13398
f 904 903 955 957
f 870 871 958 956
g Group13395
f 957 958 960 959
g Group13398
f 905 904 957 959
f 871 872 960 958
g Group13395
f 959 960 962 961
g Group13398
f 906 905 959 961
f 872 873 962 960
g Group13395
f 961 962 964 963
g Group13398
f 907 906 961 963
f 873 874 964 962
g Group13395
f 963 964 966 965
g Group13398
f 908 907 963 965
f 874 875 966 964
g Group13395
f 965 966 968 967
g Group13398
f 909 908 965 967
f 875 876 968 966
g Group13395
f 967 968 970 969
g Group13398
f 910 909 967 969
f 876 877 970 968
g Group13395
f 969 970 972 971
g Group13398
f 911 910 969 971
f 877 878 972 970
g Group13395
f 971 972 974 973
g Group13398
f 912 911 971 973
f 878 879 974 972
g Group13395
f 973 974 976 975
g Group13398
f 913 912 973 975
f 879 880 976 974
g Group13395
f 975 976 978 977
g Group13398
f 914 913 975 977
f 880 881 978 976
g Group13395
f 977 978 917 918
g Group13398
f 883 914 977 918
f 881 850 917 978
g Group60559
f 1094 1093 1092
g Group23036
f 981 980 979
g Group60559
f 1094 1092 1095
g Group23036
f 982 981 979
g Group60559
f 1094 1095 1096
g Group23036
f 983 982 979
g Group60559
f 1094 1096 1097
g Group23036
f 984 983 979
g Group60559
f 1094 1097 1098
g Group23036
f 985 984 979
g Group60559
f 1094 1098 1099
g Group23036
f 986 985 979
g Group60559
f 1094 1099 1100
g Group23036
f 987 986 979
g Group60559
f 1094 1100 1101
g Group23036
f 988 987 979
g Group60559
f 1094 1101 1102
g Group23036
f 989 988 979
g Group60559
f 1094 1102 1103
g Group23036
f 990 989 979
g Group60559
f 1094 1103 1104
g Group23036
f 991 990 979
g Group60559
f 1094 1104 1105
g Group23036
f 992 991 979
g Group60559
f 1094 1105 1106
g Group23036
f 993 992 979
g Group60559
f 1094 1106 1107
g Group23036
f 994 993 979
g Group60559
f 1094 1107 1108
g Group23036
f 995 994 979
g Group60559
f 1094 1108 1093
g Group23036
f 980 995 979
g Group60559
f 1093 1110 1109 1092
g Group23036
f 980 981 997 996
g Group60559
f 1092 1109 1111 1095
g Group23036
f 981 982 998 997
g Group60559
f 1095 1111 1112 1096
g Group23036
f 982 983 999 998
g Group60559
f 1096 1112 1113 1097
g Group23036
f 983 984 1000 999
g Group60559
f 1097 1113 1114 1098
g Group23036
f 984 985 1001 1000
g Group60559
f 1098 1114 1115 1099
g Group23036
f 985 986 1002 1001
g Group60559
f 1099 1115 1116 1100
g Group23036
f 986 987 1003 1002
g Group60559
f 1100 1116 1117 1101
g Group23036
f 987 988 1004 1003
g Group60559
f 1101 1117 1118 1102
g Group23036
f 988 989 1005 1004
g Group60559
f 1102 1118 1119 1103
g Group23036
f 989 990 1006 1005
g Group60559
f 1103 1119 1120 1104
g Group23036
f 990 991 1007 1006
g Group60559
f 1104 1120 1121 1105
g Group23036
f 991 992 1008 1007
g Group60559
f 1105 1121 1122 1106
g Group23036
f 992 993 1009 1008
g Group60559
f 1106 1122 1123 1107
g Group23036
f 993 994 1010 1009
g Group60559
f 1107 1123 1124 1108
g Group23036
f 994 995 1011 1010
g Group60559
f 1108 1124 1110 1093
g Group23036
f 995 980 996 1011
g Group60559
f 1110 1126 1125 1109
g Group23036
f 996 997 1013 1012
g Group60559
f 1109 1125 1127 1111
g Group23036
f 997 998 1014 1013
g Group60559
f 1111 1127 1128 1112
g Group23036
f 998 999 1015 1014
g Group60559
f 1112 1128 1129 1113
g Group23036
f 999 1000 1016 1015
g Group60559
f 1113 1129 1130 1114
g Group23036
f 1000 1001 1017 1016
g Group60559
f 1114 1130 1131 1115
g Group23036
f 1001 1002 1018 1017
g Group60559
f 1115 1131 1132 1116
g Group23036
f 1002 1003 1019 1018
g Group60559
f 1116 1132 1133 1117
g Group23036
f 1003 1004 1020 1019
g Group60559
f 1117 1133 1134 1118
g Group23036
f 1004 1005 1021 1020
g Group60559
f 1118 1134 1135 1119
g Group23036
f 1005 1006 1022 1021
g Group60559
f 1119 1135 1136 1120
g Group23036
f 1006 1007 1023 1022
g Group60559
f 1120 1136 1137 1121
g Group23036
f 1007 1008 1024 1023
g Group60559
f 1121 1137 1138 1122
g Group23036
f 1008 1009 1025 1024
g Group60559
f 1122 1138 1139 1123
g Group23036
f 1009 1010 1026 1025
g Group60559
f 1123 1139 1140 1124
g Group23036
f 1010 1011 1027 1026
g Group60559
f 1124 1140 1126 1110
g Group23036
f 1011 996 1012 1027
g Group60559
f 1126 1142 1141 1125
g Group23036
f 1012 1013 1029 1028
g Group60559
f 1125 1141 1143 1127
g Group23036
f 1013 1014 1030 1029
g Group60559
f 1127 1143 1144 1128
g Group23036
f 1014 1015 1031 1030
g Group60559
f 1128 1144 1145 1129
g Group23036
f 1015 1016 1032 1031
g Group60559
f 1129 1145 1146 1130
g Group23036
f 1016 1017 1033 1032
g Group60559
f 1130 1146 1147 1131
g Group23036
f 1017 1018 1034 1033
g Group60559
f 1131 1147 1148 1132
g Group23036
f 1018 1019 1035 1034
g Group60559
f 1132 1148 1149 1133
g Group23036
f 1019 1020 1036 1035
g Group60559
f 1133 1149 1150 1134
g Group23036
f 1020 1021 1037 1036
g Group60559
f 1134 1150 1151 1135
g Group23036
f 1021 1022 1038 1037
g Group60559
f 1135 1151 1152 1136
g Group23036
f 1022 1023 1039 1038
g Group60559
f 1136 1152 1153 1137
g Group23036
f 1023 1024 1040 1039
g Group60559
f 1137 1153 1154 1138
g Group23036
f 1024 1025 1041 1040
g Group60559
f 1138 1154 1155 1139
g Group23036
f 1025 1026 1042 1041
g Group60559
f 1139 1155 1156 1140
g Group23036
f 1026 1027 1043 1042
g Group60559
f 1140 1156 1142 1126
g Group23036
f 1027 1012 1028 1043
g Group60559
f 1142 1158 1157 1141
g Group23036
f 1028 1029 1045 1044
g Group60559
f 1141 1157 1159 1143
g Group23036
f 1029 1030 1046 1045
g Group60559
f 1143 1159 1160 1144
g Group23036
f 1030 1031 1047 1046
g Group60559
f 1144 1160 1161 1145
g Group23036
f 1031 1032 1048 1047
g Group60559
f 1145 1161 1162 1146
g Group23036
f 1032 1033 1049 1048
g Group60559
f 1146 1162 1163 1147
g Group23036
f 1033 1034 1050 1049
g Group60559
f 1147 1163 1164 1148
g Group23036
f 1034 1035 1051 1050
g Group60559
f 1148 1164 1165 1149
g Group23036
f 1035 1036 1052 1051
g Group60559
f 1149 1165 1166 1150
g Group23036
f 1036 1037 1053 1052
g Group60559
f 1150 1166 1167 1151
g Group23036
f 1037 1038 1054 1053
g Group60559
f 1151 1167 1168 1152
g Group23036
f 1038 1039 1055 1054
g Group60559
f 1152 1168 1169 1153
g Group23036
f 1039 1040 1056 1055
g Group60559
f 1153 1169 1170 1154
g Group23036
f 1040 1041 1057 1056
g Group60559
f 1154 1170 1171 1155
g Group23036
f 1041 1042 1058 1057
g Group60559
f 1155 1171 1172 1156
g Group23036
f 1042 1043 1059 1058
g Group60559
f 1156 1172 1158 1142
g Group23036
f 1043 1028 1044 1059
g Group60559
f 1158 1174 1173 1157
g Group23036
f 1044 1045 1061 1060
g Group60559
f 1157 1173 1175 1159
g Group23036
f 1045 1046 1062 1061
g Group60559
f 1159 1175 1176 1160
g Group23036
f 1046 1047 1063 1062
g Group60559
f 1160 1176 1177 1161
g Group23036
f 1047 1048 1064 1063
g Group60559
f 1161 1177 1178 1162
g Group23036
f 1048 1049 1065 1064
g Group60559
f 1162 1178 1179 1163
g Group23036
f 1049 1050 1066 1065
g Group60559
f 1163 1179 1180 1164
g Group23036
f 1050 1051 1067 1066
g Group60559
f 1164 1180 1181 1165
g Group23036
f 1051 1052 1068 1067
g Group60559
f 1165 1181 1182 1166
g Group23036
f 1052 1053 1069 1068
g Group60559
f 1166 1182 1183 1167
g Group23036
f 1053 1054 1070 1069
g Group60559
f 1167 1183 1184 1168
g Group23036
f 1054 1055 1071 1070
g Group60559
f 1168 1184 1185 1169
g Group23036
f 1055 1056 1072 1071
g Group60559
f 1169 1185 1186 1170
g Group23036
f 1056 1057 1073 1072
g Group60559
f 1170 1186 1187 1171
g Group23036
f 1057 1058 1074 1073
g Group60559
f 1171 1187 1188 1172
g Group23036
f 1058 1059 1075 1074
g Group60559
f 1172 1188 1174 1158
g Group23036
f 1059 1044 1060 1075
g Group60562
f 1076 1077 1189 1190
f 1077 1078 1191 1189
f 1078 1079 1192 1191
f 1079 1080 1193 1192
f 1080 1081 1194 1193
f 1081 1082 1195 1194
f 1082 1083 1196 1195
f 1083 1084 1197 1196
f 1084 1085 1198 1197
f 1085 1086 1199 1198
f 1086 1087 1200 1199
f 1087 1088 1201 1200
f 1088 1089 1202 1201
f 1089 1090 1203 1202
f 1090 1091 1204 1203
f 1091 1076 1190 1204
g Group60559
f 1208 1207 1206 1205
g Group60562
f 1077 1076 1205 1206
f 1060 1061 1207 1208
g Group60559
f 1207 1210 1209 1206
g Group60562
f 1078 1077 1206 1209
f 1061 1062 1210 1207
g Group60559
f 1210 1212 1211 1209
g Group60562
f 1079 1078 1209 1211
f 1062 1063 1212 1210
g Group60559
f 1212 1214 1213 1211
g Group60562
f 1080 1079 1211 1213
f 1063 1064 1214 1212
g Group60559
f 1214 1216 1215 1213
g Group60562
f 1081 1080 1213 1215
f 1064 1065 1216 1214
g Group60559
f 1216 1218 1217 1215
g Group60562
f 1082 1081 1215 1217
f 1065 1066 1218 1216
g Group60559
f 1218 1220 1219 1217
g Group60562
f 1083 1082 1217 1219
f 1066 1067 1220 1218
g Group60559
f 1220 1222 1221 1219
g Group60562
f 1084 1083 1219 1221
f 1067 1068 1222 1220
g Group60559
f 1222 1224 1223 1221
g Group60562
f 1085 1084 1221 1223
f 1068 1069 1224 1222
g Group60559
f 1224 1226 1225 1223
g Group60562
f 1086 1085 1223 1225
f 1069 1070 1226 1224
g Group60559
f 1226 1228 1227 1225
g Group60562
f 1087 1086 1225 1227
f 1070 1071 1228 1226
g Group60559
f 1228 1230 1229 1227
g Group60562
f 1088 1087 1227 1229
f 1071 1072 1230 1228
g Group60559
f 1230 1232 1231 1229
g Group60562
f 1089 1088 1229 1231
f 1072 1073 1232 1230
g Group60559
f 1232 1234 1233 1231
g Group60562
f 1090 1089 1231 1233
f 1073 1074 1234 1232
g Group60559
f 1234 1236 1235 1233
g Group60562
f 1091 1090 1233 1235
f 1074 1075 1236 1234
g Group60559
f 1236 1208 1205 1235
g Group60562
f 1076 1091 1235 1205
f 1075 1060 1208 1236
g Group60559
f 1240 1239 1238 1237
g Group60562
f 1173 1174 1240 1237
f 1190 1189 1238 1239
g Group60559
f 1237 1238 1242 1241
g Group60562
f 1175 1173 1237 1241
f 1189 1191 1242 1238
g Group60559
f 1241 1242 1244 1243
g Group60562
f 1176 1175 1241 1243
f 1191 1192 1244 1242
g Group60559
f 1243 1244 1246 1245
g Group60562
f 1177 1176 1243 1245
f 1192 1193 1246 1244
g Group60559
f 1245 1246 1248 1247
g Group60562
f 1178 1177 1245 1247
f 1193 1194 1248 1246
g Group60559
f 1247 1248 1250 1249
g Group60562
f 1179 1178 1247 1249
f 1194 1195 1250 1248
g Group60559
f 1249 1250 1252 1251
g Group60562
f 1180 1179 1249 1251
f 1195 1196 1252 1250
g Group60559
f 1251 1252 1254 1253
g Group60562
f 1181 1180 1251 1253
f 1196 1197 1254 1252
g Group60559
f 1253 1254 1256 1255
g Group60562
f 1182 1181 1253 1255
f 1197 1198 1256 1254
g Group60559
f 1255 1256 1258 1257
g Group60562
f 1183 1182 1255 1257
f 1198 1199 1258 1256
g Group60559
f 1257 1258 1260 1259
g Group60562
f 1184 1183 1257 1259
f 1199 1200 1260 1258
g Group60559
f 1259 1260 1262 1261
g Group60562
f 1185 1184 1259 1261
f 1200 1201 1262 1260
g Group60559
f 1261 1262 1264 1263
g Group60562
f 1186 1185 1261 1263
f 1201 1202 1264 1262
g Group60559
f 1263 1264 1266 1265
g Group60562
f 1187 1186 1263 1265
f 1202 1203 1266 1264
g Group60559
f 1265 1266 1268 1267
g Group60562
f 1188 1187 1265 1267
f 1203 1204 1268 1266
g Group60559
f 1267 1268 1239 1240
g Group60562
f 1174 1188 1267 1240
f 1204 1190 1239 1268

 