# File exported by ZBrush version 2021
# www.zbrush.com
#Vertex Count 1358
#Face Count 1426
#Auto scale x=0.559301 y=0.559301 z=0.559301
#Auto offset x=4.142220 y=0.137334 z=0.043944
v -5.75593154 2.54036929 -0.04857863
v -6.81192099 2.6860627 -0.05613213
v -6.27204537 2.53163482 -0.05242597
v -5.79277211 2.32666938 -0.04803959
v -7.75365547 2.59725246 -0.06145425
v -7.28478087 2.54390187 -0.05828399
v -6.80075353 2.44644328 -0.05491117
v -6.2929482 2.30243069 -0.05147041
v -5.80890296 2.11604251 -0.04768513
v -8.60855424 2.35050096 -0.06419262
v -8.16285561 2.37166233 -0.06206186
v -7.65575834 2.34224478 -0.05991559
v -7.24362773 2.29836697 -0.05680564
v -6.78958239 2.20681619 -0.05369043
v -6.31649184 2.07283055 -0.05048987
v -5.84752793 1.90207489 -0.04713191
v -8.81678584 2.14710252 -0.06432988
v -8.92834108 2.16185691 -0.06500291
v -8.2228372 2.49175125 -0.06288474
v -7.31216331 2.66396053 -0.05894671
v -6.26257099 2.62627954 -0.05282765
v -7.89877233 2.41191975 -0.06129256
v -7.13603269 2.68055858 -0.05787393
v -7.41274424 2.64615483 -0.05959987
v -8.57352856 2.29060143 -0.06371374
v -8.13314702 2.31076702 -0.06163695
v -7.63987058 2.28301195 -0.05949903
v -7.23625784 2.24019899 -0.05643699
v -6.78690765 2.14947348 -0.05339769
v -6.32223478 2.01786862 -0.05025567
v -5.8615472 1.85015958 -0.04695603
v -8.16262489 2.37139804 -0.11444851
v -8.13290926 2.31048482 -0.11402407
v -8.57325659 2.29034354 -0.1161002
v -8.60828611 2.35025542 -0.11658054
v -7.6554901 2.34198688 -0.11230205
v -7.63958273 2.28271356 -0.11188482
v -7.24329518 2.29810907 -0.10919389
v -7.23593062 2.23991637 -0.10882414
v -6.78928735 2.20655743 -0.10607693
v -6.7866198 2.14920834 -0.10578434
v -6.31620399 2.07258331 -0.10287782
v -6.32195226 2.01761541 -0.10264201
v -5.84723295 1.90183532 -0.09951787
v -5.86126479 1.8499068 -0.09934234
v -6.27171639 2.53139611 -0.1048137
v -6.29263713 2.30220349 -0.10385783
v -6.80045129 2.44620328 -0.10729895
v -6.81162781 2.68581844 -0.10851997
v -5.79239123 2.32645283 -0.10042671
v -5.80856321 2.11583576 -0.10007197
v -7.28445189 2.54366401 -0.11067169
v -7.75335515 2.59702355 -0.11384172
v -8.816571 2.14704667 -0.11671798
v -8.92821063 2.16188547 -0.11739231
v -7.89856494 2.41166569 -0.11368071
v -8.2226117 2.49150444 -0.11527269
v -7.41240812 2.64590034 -0.11198623
v -7.31184323 2.66372863 -0.11133423
v -7.13572876 2.68033009 -0.11026135
v -6.26221696 2.62604296 -0.10521532
v -5.75552551 2.54016638 -0.10096537
v -5.84738662 1.90196022 -0.07220842
v -5.86141197 1.85003852 -0.07203271
v -5.79258966 2.32656579 -0.07311665
v -5.80874033 2.11594361 -0.07276206
v -9.12986794 1.95955613 -0.09120285
v -9.19385059 1.94499613 -0.09045918
v -8.92827863 2.16187055 -0.09008107
v -8.60842593 2.35038331 -0.08927007
v -8.22272924 2.49163317 -0.0879622
v -7.7535117 2.59714291 -0.08653148
v -7.41258332 2.64603291 -0.08467657
v -7.31201012 2.66384969 -0.08402397
v -7.13588722 2.68044902 -0.08295114
v -6.81178063 2.6859459 -0.08120954
v -6.26240154 2.62616615 -0.07790498
v -5.75573715 2.5402721 -0.07365552
v -8.04646552 2.11892629 -0.08531471
v -7.60440305 2.09819504 -0.08315094
v -7.21188067 2.05497242 -0.08034418
v -6.77827351 1.9670659 -0.07754644
v -6.34034911 1.84304583 -0.07458416
v -5.90597299 1.68502164 -0.07147679
v -5.84733344 1.90191717 -0.08166157
v -5.86136103 1.8499929 -0.08148592
v -5.79252103 2.32652657 -0.08257001
v -5.80867895 2.1159061 -0.08221537
v -9.12984194 1.95958213 -0.10065669
v -9.19385442 1.94505282 -0.09991251
v -8.92825518 2.16187566 -0.09953483
v -8.60837755 2.35033897 -0.09872357
v -8.22268853 2.49158842 -0.09741571
v -7.75345757 2.59710156 -0.0959849
v -7.41252268 2.64598688 -0.09412979
v -7.31195236 2.66380792 -0.0934774
v -7.13583239 2.68040767 -0.09240455
v -6.81172777 2.68590199 -0.09066303
v -6.2623376 2.62612353 -0.08735843
v -5.75566383 2.54023544 -0.0831088
v -8.04642161 2.11887343 -0.09476812
v -7.60435105 2.09813791 -0.09260414
v -7.21182259 2.05491956 -0.08979758
v -6.77822156 1.96701858 -0.08699969
v -6.34029806 1.84299979 -0.08403738
v -5.90592195 1.68497582 -0.08093001
v -5.9193765 1.57325008 -0.07856944
v -5.91862753 1.57484308 -0.16451601
v -5.93430908 1.57941408 -0.16281567
v -5.94937785 1.58380732 -0.15788274
v -5.96324621 1.58785313 -0.14991028
v -5.97538729 1.59139935 -0.13921301
v -5.98534241 1.59430701 -0.12619675
v -5.99273165 1.59646739 -0.11136753
v -5.99728272 1.59779738 -0.09528674
v -5.99882009 1.59824881 -0.07856944
v -5.99728272 1.59779738 -0.06185215
v -5.99273165 1.59646739 -0.04577136
v -5.98534241 1.59430701 -0.03094214
v -5.97538729 1.59139935 -0.01792589
v -5.96324621 1.58785313 -0.00722861
v -5.94937785 1.58380732 0.00074383
v -5.93430908 1.57941408 0.00567678
v -5.91862753 1.57484308 0.00737712
v -5.90292083 1.57027166 0.00577691
v -5.88780187 1.56587245 0.00092621
v -5.8738475 1.56181726 -0.00698902
v -5.86160965 1.55826166 -0.01766663
v -5.85155425 1.55534292 -0.03070255
v -5.84407901 1.55317231 -0.04558899
v -5.83947775 1.55183635 -0.06175381
v -5.83791885 1.55138705 -0.07856944
v -5.83947775 1.55183635 -0.09538508
v -5.84407901 1.55317231 -0.1115499
v -5.85155425 1.55534292 -0.12643813
v -5.86160965 1.55826166 -0.13947225
v -5.8738475 1.56181726 -0.15014986
v -5.88780187 1.56587245 -0.1580651
v -5.90292083 1.57027166 -0.1629158
v -6.05638254 1.26816648 -0.15812589
v -6.0711396 1.27190324 -0.15655071
v -6.08530902 1.27549465 -0.15198072
v -6.09834955 1.27880258 -0.14459828
v -6.10976308 1.28170107 -0.13469307
v -6.11911971 1.28407949 -0.1226441
v -6.12606817 1.28584514 -0.10891804
v -6.13034333 1.28693173 -0.09403876
v -6.13178756 1.28730003 -0.07856945
v -6.13034333 1.28693173 -0.06310014
v -6.12606817 1.28584514 -0.04822085
v -6.11911971 1.28407949 -0.03449478
v -6.10976308 1.28170107 -0.02244581
v -6.09834955 1.27880258 -0.0125406
v -6.08530902 1.27549465 -0.00515816
v -6.0711396 1.27190324 -0.00058817
v -6.05638254 1.26816648 0.000987
v -6.04161121 1.264428 -0.00049521
v -6.02738807 1.26083298 -0.00498653
v -6.0142723 1.25751801 -0.01231532
v -6.00276553 1.25461377 -0.02220445
v -5.99331214 1.25222874 -0.03427129
v -5.98628843 1.25045904 -0.04804921
v -5.98195946 1.24936755 -0.06300716
v -5.98049743 1.2489986 -0.07856945
v -5.98195946 1.24936755 -0.09413173
v -5.98628843 1.25045904 -0.10908969
v -5.99331214 1.25222874 -0.12286939
v -6.00276553 1.25461377 -0.13493445
v -6.0142723 1.25751801 -0.14482358
v -6.02738807 1.26083298 -0.15215237
v -6.04161121 1.264428 -0.15664369
v -6.17866031 0.94028374 -0.16319294
v -6.19462501 0.94355224 -0.16153551
v -6.20996979 0.94669626 -0.15669197
v -6.22409254 0.94959241 -0.14885182
v -6.23646296 0.95213325 -0.13831902
v -6.24660437 0.95421626 -0.12549946
v -6.25414056 0.95576366 -0.11088836
v -6.25877774 0.95671788 -0.09504358
v -6.26034368 0.95704036 -0.07856945
v -6.25877774 0.95671788 -0.06209531
v -6.25414056 0.95576366 -0.04625053
v -6.24660437 0.95421626 -0.03163944
v -6.23646296 0.95213325 -0.01881986
v -6.22409254 0.94959241 -0.00828708
v -6.20996979 0.94669626 -0.00044693
v -6.19462501 0.94355224 0.0043966
v -6.17866031 0.94028374 0.00605403
v -6.16268846 0.93701524 0.00445739
v -6.14731149 0.9338725 -0.00033608
v -6.13313503 0.93097848 -0.00814225
v -6.12070365 0.92844105 -0.01866253
v -6.11049767 0.92635889 -0.03149282
v -6.1029149 0.92481384 -0.0461379
v -6.09824192 0.92386175 -0.06203452
v -6.0966617 0.92353905 -0.07856945
v -6.09824192 0.92386175 -0.09510437
v -6.1029149 0.92481384 -0.111001
v -6.11049767 0.92635889 -0.12564607
v -6.12070365 0.92844105 -0.13847637
v -6.13313503 0.93097848 -0.14899665
v -6.14731149 0.9338725 -0.15680282
v -6.16268846 0.93701524 -0.16159629
v -6.27803204 0.60657547 -0.16827071
v -6.29517573 0.60930238 -0.16651852
v -6.31164578 0.61192442 -0.1613889
v -6.32681846 0.61434186 -0.1530821
v -6.34010986 0.61646174 -0.14191817
v -6.351011 0.61820182 -0.12832977
v -6.35910626 0.61949536 -0.11283901
v -6.36408734 0.6202908 -0.09603768
v -6.36577157 0.62056021 -0.07856945
v -6.36408734 0.6202908 -0.06110121
v -6.35910626 0.61949536 -0.04429988
v -6.351011 0.61820182 -0.02880912
v -6.34010986 0.61646174 -0.01522073
v -6.32681846 0.61434186 -0.00405679
v -6.31164578 0.61192442 0.00425
v -6.29517573 0.60930238 0.00937961
v -6.27803204 0.60657547 0.0111318
v -6.26087408 0.60384941 0.00943504
v -6.24437183 0.60122694 0.00435192
v -6.22915248 0.59881207 -0.0039227
v -6.21580386 0.59669623 -0.01507412
v -6.2048489 0.59496063 -0.02867502
v -6.19670355 0.59366985 -0.04419619
v -6.19168656 0.59287697 -0.061044
v -6.18999508 0.59260799 -0.07856945
v -6.19168656 0.59287697 -0.09609489
v -6.19670355 0.59366985 -0.11294271
v -6.2048489 0.59496063 -0.12846566
v -6.21580386 0.59669623 -0.14206478
v -6.22915248 0.59881207 -0.1532162
v -6.24437183 0.60122694 -0.1614908
v -6.26087408 0.60384941 -0.16657395
v -6.35389574 0.268679 -0.17340926
v -6.37219336 0.27078375 -0.17155873
v -6.38978134 0.27280752 -0.16613947
v -6.405979 0.2746742 -0.15736066
v -6.42016985 0.27631111 -0.14556021
v -6.43181272 0.27765389 -0.13119407
v -6.4404599 0.27865181 -0.1148129
v -6.44578499 0.27926693 -0.09704429
v -6.44758037 0.2794741 -0.07856945
v -6.44578499 0.27926693 -0.0600946
v -6.4404599 0.27865181 -0.04232599
v -6.43181272 0.27765389 -0.02594483
v -6.42016985 0.27631111 -0.01157868
v -6.405979 0.2746742 0.00022175
v -6.38978134 0.27280752 0.00900057
v -6.37219336 0.27078375 0.01442162
v -6.35389574 0.268679 0.01627035
v -6.33558021 0.26657659 0.01447526
v -6.31796708 0.26455368 0.00910069
v -6.30172647 0.2626902 0.00035227
v -6.28747829 0.26105755 -0.01143744
v -6.2757816 0.25971605 -0.02581431
v -6.26708795 0.25872068 -0.04222587
v -6.26173409 0.25810812 -0.06003918
v -6.25992443 0.2579018 -0.07856945
v -6.26173409 0.25810812 -0.09709972
v -6.26708795 0.25872068 -0.11491303
v -6.2757816 0.25971605 -0.13132459
v -6.28747829 0.26105755 -0.14570145
v -6.30172647 0.2626902 -0.15749117
v -6.31796708 0.26455368 -0.1662396
v -6.33558021 0.26657659 -0.17161416
v -6.40598252 -0.07224905 -0.17858894
v -6.42540541 -0.07085501 -0.17664545
v -6.44407209 -0.06951394 -0.17093832
v -6.46127673 -0.06827602 -0.1616857
v -6.47634913 -0.06719189 -0.14924517
v -6.48871592 -0.06630054 -0.13409233
v -6.49790054 -0.06563938 -0.11681183
v -6.50355898 -0.06523153 -0.09806521
v -6.50547255 -0.06509321 -0.07856945
v -6.50355898 -0.06523153 -0.05907368
v -6.49790054 -0.06563938 -0.04032707
v -6.48871592 -0.06630054 -0.02304657
v -6.47634913 -0.06719189 -0.00789373
v -6.46127673 -0.06827602 0.00454679
v -6.44407209 -0.06951394 0.01379942
v -6.42540541 -0.07085501 0.01950654
v -6.40598252 -0.07224905 0.02145004
v -6.38654897 -0.07364331 0.01954945
v -6.36785362 -0.07498193 0.01387809
v -6.35062042 -0.07621665 0.00465049
v -6.33550145 -0.07729738 -0.00778108
v -6.32309874 -0.07818425 -0.02294287
v -6.31387107 -0.07884371 -0.04024661
v -6.30819121 -0.07924931 -0.05903077
v -6.3062704 -0.07938636 -0.07856945
v -6.30819121 -0.07924931 -0.09810812
v -6.31387107 -0.07884371 -0.11689228
v -6.32309874 -0.07818425 -0.13419782
v -6.33550145 -0.07729738 -0.14935781
v -6.35062042 -0.07621665 -0.1617894
v -6.36785362 -0.07498193 -0.17101699
v -6.38654897 -0.07364331 -0.17668835
v -6.43414564 -0.41514962 -0.18378829
v -6.45465075 -0.41455656 -0.18175718
v -6.47436384 -0.41398417 -0.1757622
v -6.49252878 -0.41345782 -0.16603934
v -6.50845405 -0.41299542 -0.15295516
v -6.52152325 -0.412614 -0.13701383
v -6.53123465 -0.41233138 -0.11882684
v -6.53721561 -0.41215671 -0.09909328
v -6.53923677 -0.41209948 -0.07856945
v -6.53721561 -0.41215671 -0.05804562
v -6.53123465 -0.41233138 -0.03831206
v -6.52152325 -0.412614 -0.02012507
v -6.50845405 -0.41299542 -0.00418374
v -6.49252878 -0.41345782 0.00890044
v -6.47436384 -0.41398417 0.01862329
v -6.45465075 -0.41455656 0.02461827
v -6.43414564 -0.41514962 0.02664938
v -6.41364063 -0.41574364 0.02464152
v -6.39391316 -0.41631368 0.01866621
v -6.37573031 -0.41683928 0.00895587
v -6.35978351 -0.41729967 -0.00412294
v -6.34668927 -0.41767522 -0.02006964
v -6.33695986 -0.41795614 -0.03826736
v -6.33096467 -0.41812942 -0.05802237
v -6.32893995 -0.41818675 -0.07856945
v -6.33096467 -0.41812942 -0.09911652
v -6.33695986 -0.41795614 -0.11887154
v -6.34668927 -0.41767522 -0.13707104
v -6.35978351 -0.41729967 -0.15301595
v -6.37573031 -0.41683928 -0.16609477
v -6.39391316 -0.41631368 -0.17580511
v -6.41364063 -0.41574364 -0.18178042
v -6.43830613 -0.75900644 -0.18899836
v -6.45983974 -0.75930206 -0.18687965
v -6.4805418 -0.75958596 -0.18060216
v -6.4996242 -0.75984823 -0.17040551
v -6.51635941 -0.76007853 -0.15667945
v -6.53009509 -0.76026694 -0.13994606
v -6.54030822 -0.76040666 -0.1208508
v -6.54660096 -0.76049394 -0.10012671
v -6.54872239 -0.76052207 -0.07856945
v -6.54660096 -0.76049394 -0.05701218
v -6.54030822 -0.76040666 -0.0362881
v -6.53009509 -0.76026694 -0.01719284
v -6.51635941 -0.76007853 -0.00045944
v -6.4996242 -0.75984823 0.01326661
v -6.4805418 -0.75958596 0.02346326
v -6.45983974 -0.75930206 0.02974074
v -6.43830613 -0.75900644 0.03185946
v -6.41677975 -0.7587107 0.02973896
v -6.3960777 -0.75842606 0.02346148
v -6.37699529 -0.75816432 0.01326482
v -6.36026009 -0.75793509 -0.00046302
v -6.34652078 -0.75774593 -0.01719462
v -6.33631128 -0.75760717 -0.03628989
v -6.33002216 -0.75752096 -0.05701397
v -6.32789705 -0.75749122 -0.07856945
v -6.33002216 -0.75752096 -0.10012493
v -6.33631128 -0.75760717 -0.12084901
v -6.34652078 -0.75774593 -0.13994427
v -6.36026009 -0.75793509 -0.15667587
v -6.37699529 -0.75816432 -0.17040372
v -6.3960777 -0.75842606 -0.18060038
v -6.41677975 -0.7587107 -0.18687786
v -6.41842466 -1.10254956 -0.19420487
v -6.44091144 -1.10381908 -0.19200391
v -6.46254523 -1.10504149 -0.18544572
v -6.48249491 -1.10616969 -0.17478061
v -6.49998974 -1.10715994 -0.16041268
v -6.51435621 -1.10797397 -0.14288723
v -6.52503873 -1.10857977 -0.1228819
v -6.53162171 -1.1089526 -0.10116193
v -6.53384348 -1.10907894 -0.07856945
v -6.53162171 -1.1089526 -0.05597696
v -6.52503873 -1.10857977 -0.03425699
v -6.51435621 -1.10797397 -0.01425167
v -6.49998974 -1.10715994 0.00327378
v -6.48249491 -1.10616969 0.01764171
v -6.46254523 -1.10504149 0.02830681
v -6.44091144 -1.10381908 0.034865
v -6.41842466 -1.10254956 0.03706598
v -6.39593788 -1.1012809 0.03483102
v -6.37432551 -1.10006244 0.02824423
v -6.35440823 -1.09894031 0.01755946
v -6.33694558 -1.09795731 0.00318438
v -6.32260778 -1.09715137 -0.01433391
v -6.31195388 -1.09655277 -0.03431957
v -6.30539248 -1.09618462 -0.05601093
v -6.30317422 -1.09605919 -0.07856945
v -6.30539248 -1.09618462 -0.10112796
v -6.31195388 -1.09655277 -0.12281933
v -6.32260778 -1.09715137 -0.14280678
v -6.33694558 -1.09795731 -0.16032328
v -6.35440823 -1.09894031 -0.17469837
v -6.37432913 -1.10006254 -0.18538314
v -6.39593788 -1.1012809 -0.19196992
v -6.37448323 -1.44484732 -0.19939527
v -6.39785156 -1.44716937 -0.19712279
v -6.42034899 -1.4494068 -0.19029641
v -6.44109772 -1.45147309 -0.17916824
v -6.45930935 -1.45328691 -0.164162
v -6.47427059 -1.45477931 -0.14584628
v -6.48539755 -1.45588945 -0.12492553
v -6.49225287 -1.45657501 -0.10220609
v -6.49456789 -1.45680627 -0.07856945
v -6.49225287 -1.45657501 -0.0549328
v -6.48539755 -1.45588945 -0.03221337
v -6.47427059 -1.45477931 -0.01129261
v -6.45930935 -1.45328691 0.0070231
v -6.44109772 -1.45147309 0.02202933
v -6.42034899 -1.4494068 0.03315572
v -6.39785156 -1.44716937 0.03998389
v -6.37448323 -1.44484732 0.04225637
v -6.35112567 -1.44252899 0.03989449
v -6.32868194 -1.44030477 0.03299123
v -6.30800482 -1.43825618 0.02181478
v -6.28987931 -1.43646346 0.00678888
v -6.27500759 -1.43499333 -0.01150895
v -6.26395586 -1.43390184 -0.03237786
v -6.25715074 -1.43322992 -0.0550222
v -6.25485373 -1.43300292 -0.07856945
v -6.25715074 -1.43322992 -0.1021167
v -6.26395586 -1.43390184 -0.12476103
v -6.27500759 -1.43499333 -0.14562994
v -6.28987931 -1.43646346 -0.16392778
v -6.30800482 -1.43825618 -0.17895368
v -6.32868194 -1.44030477 -0.19013014
v -6.35112567 -1.44252899 -0.19703339
v -6.3064245 -1.78515557 -0.20450878
v -6.33059199 -1.78859564 -0.20218803
v -6.35386707 -1.79191562 -0.19511314
v -6.37535401 -1.79498174 -0.18354333
v -6.39422136 -1.79767764 -0.16791311
v -6.40973452 -1.79989621 -0.14881248
v -6.42127359 -1.80154762 -0.12697987
v -6.42838692 -1.80256717 -0.1032574
v -6.43079508 -1.80291022 -0.07856945
v -6.42838692 -1.80256717 -0.05388149
v -6.42127359 -1.80154762 -0.03015902
v -6.40973452 -1.79989621 -0.00832462
v -6.39422136 -1.79767764 0.01077422
v -6.37535401 -1.79498174 0.02640444
v -6.35386707 -1.79191562 0.03797423
v -6.33059199 -1.78859564 0.04504917
v -6.3064245 -1.78515557 0.0473699
v -6.28229644 -1.78172391 0.04485962
v -6.25912526 -1.77843367 0.03762379
v -6.23779242 -1.77540687 0.02594673
v -6.21910422 -1.77275914 0.01027895
v -6.20377744 -1.77059045 -0.00878413
v -6.19238896 -1.76898018 -0.03050945
v -6.18537943 -1.76798844 -0.0540728
v -6.18301432 -1.76765381 -0.07856945
v -6.18537943 -1.76798844 -0.1030661
v -6.19238896 -1.76898018 -0.12662944
v -6.20377744 -1.77059045 -0.14835477
v -6.21910422 -1.77275914 -0.16741785
v -6.23779242 -1.77540687 -0.18308562
v -6.25912526 -1.77843367 -0.19476269
v -6.28229644 -1.78172391 -0.20199852
v -6.21406932 -2.12313772 -0.20926116
v -6.23887826 -2.12773941 -0.20693146
v -6.26280203 -2.13218422 -0.19965629
v -6.28491965 -2.1362974 -0.18769495
v -6.30435321 -2.13991779 -0.17149079
v -6.32034658 -2.14289833 -0.15165532
v -6.3322547 -2.14511925 -0.12895376
v -6.33959736 -2.14649017 -0.10426938
v -6.34207724 -2.14695353 -0.07856944
v -6.33959736 -2.14649017 -0.05286951
v -6.3322547 -2.14511925 -0.02818512
v -6.32034658 -2.14289833 -0.00548358
v -6.30435321 -2.13991779 0.01435189
v -6.28491965 -2.1362974 0.03055605
v -6.26280203 -2.13218422 0.04251741
v -6.23887826 -2.12773941 0.04979255
v -6.21406932 -2.12313772 0.05212225
v -6.18932145 -2.11855351 0.04944212
v -6.16558397 -2.1141624 0.04186838
v -6.14375302 -2.11012937 0.02970856
v -6.12464909 -2.10660404 0.01343288
v -6.10899621 -2.10371855 -0.00633285
v -6.09736762 -2.1015782 -0.02883594
v -6.090222 -2.10026057 -0.05322352
v -6.08780318 -2.09981682 -0.07856944
v -6.090222 -2.10026057 -0.10391537
v -6.09736762 -2.1015782 -0.12830295
v -6.10899621 -2.10371855 -0.15080604
v -6.12464909 -2.10660404 -0.17057179
v -6.14375302 -2.11012937 -0.18684746
v -6.16558397 -2.1141624 -0.19900728
v -6.18932145 -2.11855351 -0.20658103
v -6.09707018 -2.45883459 -0.21263323
v -6.1221837 -2.46458083 -0.2103375
v -6.14643709 -2.47013867 -0.20295685
v -6.16888444 -2.4752877 -0.19074338
v -6.18863695 -2.47982544 -0.17414052
v -6.20490623 -2.48356605 -0.15377582
v -6.21702941 -2.48635477 -0.13043418
v -6.22450827 -2.48807736 -0.10502926
v -6.22703824 -2.48865924 -0.07856944
v -6.22450827 -2.48807736 -0.05210963
v -6.21702941 -2.48635477 -0.0267047
v -6.20490623 -2.48356605 -0.00336306
v -6.18863695 -2.47982544 0.01700163
v -6.16888444 -2.4752877 0.03360449
v -6.14643709 -2.47013867 0.04581795
v -6.1221837 -2.46458083 0.05319859
v -6.09707018 -2.45883459 0.05549432
v -6.07205706 -2.45312073 0.05264969
v -6.04809386 -2.44765071 0.04480061
v -6.02608728 -2.44263724 0.03227427
v -6.00685078 -2.43825892 0.01556055
v -5.99110465 -2.43467775 -0.00469687
v -5.97941883 -2.43202416 -0.02772741
v -5.9722373 -2.43039236 -0.05266389
v -5.96981134 -2.42984118 -0.07856944
v -5.9722373 -2.43039236 -0.10447499
v -5.97941883 -2.43202416 -0.12941148
v -5.99110465 -2.43467775 -0.15244379
v -6.00685078 -2.43825892 -0.17269944
v -6.02608728 -2.44263724 -0.18941316
v -6.04809386 -2.44765071 -0.20193951
v -6.07205706 -2.45312073 -0.2097886
v -5.95522267 -2.79211871 -0.21183219
v -5.97978074 -2.79882494 -0.20961337
v -6.00352175 -2.80531462 -0.20233106
v -6.02551031 -2.81133326 -0.19022489
v -6.04487939 -2.81663874 -0.17373645
v -6.06083695 -2.82101492 -0.15347902
v -6.07273782 -2.82428065 -0.13024108
v -6.08008411 -2.82629695 -0.10493449
v -6.082564 -2.826979 -0.07856944
v -6.08008411 -2.82629695 -0.05220439
v -6.07273782 -2.82428065 -0.0268978
v -6.06083695 -2.82101492 -0.00365987
v -6.04487939 -2.81663874 0.01659756
v -6.02551031 -2.81133326 0.033086
v -6.00352175 -2.80531462 0.04519218
v -5.97978074 -2.79882494 0.05247449
v -5.95522267 -2.79211871 0.05469333
v -5.93078289 -2.78545425 0.05180044
v -5.90740018 -2.77908351 0.0439442
v -5.88593839 -2.7732439 0.03145539
v -5.86719647 -2.76814858 0.01482928
v -5.85186597 -2.76398554 -0.00529584
v -5.84050263 -2.76089927 -0.02815115
v -5.83351463 -2.75900446 -0.05288202
v -5.83115315 -2.75836419 -0.07856944
v -5.83351463 -2.75900446 -0.10425686
v -5.84050263 -2.76089927 -0.12898773
v -5.85186597 -2.76398554 -0.15184483
v -5.86719647 -2.76814858 -0.17196817
v -5.88593839 -2.7732439 -0.18859428
v -5.90740018 -2.77908351 -0.20108308
v -5.93078289 -2.78545425 -0.20893931
v -5.78928301 -3.12119631 -0.2011707
v -5.81140777 -3.12829088 -0.19906807
v -5.83276928 -3.13515014 -0.19231321
v -5.8525397 -3.1415 -0.18113676
v -5.86993063 -3.14709279 -0.16594815
v -5.88425053 -3.15169959 -0.14732312
v -5.89491871 -3.15513328 -0.1259804
v -5.90150175 -3.15725103 -0.10275677
v -5.90372714 -3.15796846 -0.07856944
v -5.90150175 -3.15725103 -0.05438211
v -5.89491871 -3.15513328 -0.03115847
v -5.88425053 -3.15169959 -0.00981576
v -5.86993063 -3.14709279 0.00880926
v -5.8525397 -3.1415 0.02399786
v -5.83276928 -3.13515014 0.03517432
v -5.81140777 -3.12829088 0.04192916
v -5.78928301 -3.12119631 0.0440318
v -5.76725139 -3.11413371 0.04142855
v -5.74614427 -3.10737547 0.03424816
v -5.72676442 -3.1011731 0.02278743
v -5.70982503 -3.09575978 0.0074987
v -5.69595667 -3.09132988 -0.01102977
v -5.68567555 -3.0880454 -0.03208642
v -5.67935414 -3.08602824 -0.05488631
v -5.67721838 -3.08534619 -0.07856944
v -5.67935414 -3.08602824 -0.10225258
v -5.68567555 -3.0880454 -0.12505246
v -5.69595667 -3.09132988 -0.14611089
v -5.70982503 -3.09575978 -0.16463759
v -5.72676442 -3.1011731 -0.17992632
v -5.74614427 -3.10737547 -0.19138705
v -5.76725139 -3.11413371 -0.19856745
v -5.78663837 -3.12698987 -0.07856944
v -5.94385209 1.52245418 -0.1540905
v -5.95762007 1.52649829 -0.15255823
v -5.9708326 1.53038553 -0.14818849
v -5.98298083 1.53396074 -0.14116008
v -5.99360606 1.53709048 -0.13175011
v -6.00230685 1.53965584 -0.12031978
v -6.00876797 1.54156173 -0.10731068
v -6.01273855 1.542734 -0.0932163
v -6.01407877 1.54312959 -0.07856944
v -6.01273855 1.542734 -0.06392259
v -6.00876797 1.54156173 -0.04982821
v -6.00230685 1.53965584 -0.03681911
v -5.99360606 1.53709048 -0.02538878
v -5.98298083 1.53396074 -0.01597882
v -5.9708326 1.53038553 -0.0089504
v -5.95762007 1.52649829 -0.00458066
v -5.94385209 1.52245418 -0.00304839
v -5.9300482 1.51840324 -0.00441974
v -5.91674614 1.51450321 -0.00865181
v -5.90446887 1.51090711 -0.01558725
v -5.89368602 1.50774966 -0.02496682
v -5.8848275 1.50515746 -0.03642934
v -5.8782337 1.50323025 -0.04952963
v -5.8741736 1.50204391 -0.06375989
v -5.87280471 1.50164406 -0.07856944
v -5.8741736 1.50204391 -0.093379
v -5.8782337 1.50323025 -0.10760926
v -5.8848275 1.50515746 -0.12071133
v -5.89368602 1.50774966 -0.13217207
v -5.90446887 1.51090711 -0.14154984
v -5.91674614 1.51450321 -0.14848708
v -5.9300482 1.51840324 -0.15271914
v -5.93741601 1.5851923 -0.19060215
v -5.96599124 1.52480916 -0.1880579
v -5.94556136 1.51894994 -0.19033217
v -5.91657776 1.57907092 -0.19291576
v -5.95741577 1.59107623 -0.18399748
v -5.98558603 1.53043754 -0.18158912
v -5.97580292 1.59648913 -0.17336277
v -6.00360764 1.53561726 -0.17118506
v -5.99189305 1.60122979 -0.15911821
v -6.01937167 1.54015202 -0.15726053
v -6.00507703 1.60511746 -0.14181268
v -6.03227963 1.54386961 -0.14034656
v -6.01486004 1.60800593 -0.1221113
v -6.04185845 1.54662934 -0.12109753
v -6.02088038 1.60978138 -0.10075785
v -6.04775337 1.54832892 -0.10024114
v -6.02291224 1.61038201 -0.07856944
v -6.04973866 1.54890056 -0.07856944
v -6.02088038 1.60978138 -0.05637925
v -6.04775337 1.54832892 -0.05689775
v -6.01486004 1.60800593 -0.03502759
v -6.04185845 1.54662934 -0.03604136
v -6.00507703 1.60511746 -0.01532622
v -6.03227963 1.54386961 -0.01679233
v -5.99189305 1.60122979 0.0019793
v -6.01937167 1.54015202 0.00012163
v -5.97580292 1.59648913 0.01622386
v -6.00360764 1.53561726 0.01404615
v -5.95741577 1.59107623 0.02685857
v -5.98558603 1.53043754 0.02445021
v -5.93741601 1.5851923 0.03346326
v -5.96599124 1.52480916 0.030919
v -5.91657776 1.57907092 0.03577687
v -5.94556136 1.51894994 0.03319327
v -5.89569284 1.57294145 0.03369389
v -5.9250814 1.51308114 0.03116932
v -5.87556754 1.56704259 0.02728232
v -5.90534327 1.50743315 0.02491508
v -5.85699049 1.56160071 0.01677813
v -5.88712099 1.50222209 0.01465406
v -5.84067464 1.55682766 0.00258005
v -5.87111324 1.49764897 0.00077781
v -5.82726857 1.55290801 -0.01477195
v -5.85795804 1.49389685 -0.01618443
v -5.81729555 1.54999482 -0.03460385
v -5.84816778 1.49110515 -0.0355747
v -5.81114625 1.54820061 -0.05615039
v -5.84213667 1.48938383 -0.05664565
v -5.80907134 1.54759359 -0.07856944
v -5.84010129 1.48880409 -0.07856944
v -5.81114625 1.54820061 -0.1009885
v -5.84213667 1.48938383 -0.10049324
v -5.81729555 1.54999482 -0.12253504
v -5.84816778 1.49110387 -0.12156419
v -5.82726857 1.55290801 -0.14236694
v -5.85795804 1.49389685 -0.14095446
v -5.84067464 1.55682766 -0.15971896
v -5.87111324 1.49764897 -0.1579167
v -5.85699049 1.56160071 -0.17391704
v -5.88712099 1.50222209 -0.17179295
v -5.87556754 1.56704259 -0.18442121
v -5.90534327 1.50743315 -0.18205398
v -5.89569284 1.57294145 -0.19083278
v -5.9250814 1.51308114 -0.18830821
v -5.85421328 -2.99394631 -0.20530263
v -5.87728417 -3.00089638 -0.2031571
v -5.89957017 -3.0076171 -0.19619662
v -5.92019709 -3.01384419 -0.1846608
v -5.93835852 -3.01932998 -0.168968
v -5.953309 -3.02385153 -0.14970824
v -5.96445749 -3.02722084 -0.12763247
v -5.97133785 -3.0293045 -0.10360069
v -5.97366001 -3.03000701 -0.07856944
v -5.97133785 -3.0293045 -0.0535382
v -5.96445749 -3.02722084 -0.0295064
v -5.953309 -3.02385153 -0.00743064
v -5.93835852 -3.01932998 0.01182911
v -5.92019709 -3.01384419 0.02752191
v -5.89957017 -3.0076171 0.03905774
v -5.87728417 -3.00089638 0.04601822
v -5.85421328 -2.99394631 0.04816375
v -5.83124278 -2.98703334 0.04544963
v -5.8092541 -2.98041961 0.03800642
v -5.78906795 -2.97435365 0.02614698
v -5.77142978 -2.96905755 0.01033975
v -5.7569917 -2.96472869 -0.00880557
v -5.74629123 -2.96151923 -0.0305613
v -5.73970819 -2.9595464 -0.05410855
v -5.73749004 -2.95888098 -0.07856944
v -5.73970819 -2.9595464 -0.10303033
v -5.74629123 -2.96151923 -0.12657758
v -5.7569917 -2.96472869 -0.14833331
v -5.77142978 -2.96905755 -0.16747863
v -5.78906795 -2.97435365 -0.18328587
v -5.8092541 -2.98041961 -0.19514709
v -5.83124278 -2.98703334 -0.20258854
v -5.88751509 -3.0052423 -0.26492169
v -5.8216209 -3.13267261 -0.26083267
v -5.7880825 -3.12204801 -0.26400628
v -5.85301991 -2.99480612 -0.26813821
v -5.92083854 -3.01534086 -0.25450333
v -5.85399822 -3.14294339 -0.25061992
v -5.9516821 -3.02469897 -0.23724071
v -5.88395672 -3.15245922 -0.23371667
v -5.97882396 -3.03294663 -0.21376319
v -5.91031721 -3.16084201 -0.21074336
v -6.00117444 -3.03974494 -0.18495581
v -5.93201559 -3.16775158 -0.18256889
v -6.01783078 -3.04481468 -0.1519378
v -5.94818096 -3.17290146 -0.15028575
v -6.02810486 -3.0479457 -0.11600009
v -5.95815761 -3.17608151 -0.11515618
v -6.03157734 -3.04900373 -0.07856944
v -5.96152969 -3.1771553 -0.07856944
v -6.02810486 -3.0479457 -0.04113879
v -5.95815761 -3.17608151 -0.0419827
v -6.01783078 -3.04481468 -0.00520107
v -5.94818096 -3.17290146 -0.00685313
v -6.00117444 -3.03974494 0.02781692
v -5.93201559 -3.16775158 0.02543002
v -5.97882396 -3.03294663 0.05662431
v -5.91031721 -3.16084201 0.05360449
v -5.9516821 -3.02469897 0.08010183
v -5.88395672 -3.15245922 0.07657779
v -5.92083854 -3.01534086 0.09736445
v -5.85399822 -3.14294339 0.09348104
v -5.88751509 -3.0052423 0.10778281
v -5.8216209 -3.13267261 0.10369377
v -5.85301991 -2.99480612 0.11099933
v -5.7880825 -3.12204801 0.10686738
v -5.81866806 -2.98442749 0.10694247
v -5.75469106 -3.11148523 0.10292137
v -5.78578187 -2.97450455 0.09581071
v -5.72270432 -3.1013807 0.09205066
v -5.75558327 -2.96540604 0.07807071
v -5.69333356 -3.09211424 0.07470939
v -5.72920487 -2.95746829 0.05442155
v -5.6676646 -3.08402473 0.0515805
v -5.70761392 -2.95097946 0.02578045
v -5.64666148 -3.07741185 0.02355803
v -5.69160627 -2.94617231 -0.00676016
v -5.63108374 -3.07251305 -0.00828707
v -5.68176582 -2.94321819 -0.04198449
v -5.62150491 -3.06950138 -0.04276046
v -5.67844031 -2.94222198 -0.07856944
v -5.61827617 -3.06848684 -0.07856944
v -5.68176582 -2.94321819 -0.11515439
v -5.62150491 -3.06950138 -0.11437843
v -5.69160627 -2.94617231 -0.15037693
v -5.63108374 -3.07251305 -0.14885181
v -5.70761392 -2.95097946 -0.18292112
v -5.64666148 -3.07741185 -0.18069871
v -5.72920487 -2.95746829 -0.21156224
v -5.6676646 -3.08402473 -0.20871938
v -5.75558327 -2.96540604 -0.23520962
v -5.69333356 -3.09211424 -0.23184826
v -5.78578187 -2.97450455 -0.25294962
v -5.72270432 -3.1013807 -0.24918956
v -5.81866806 -2.98442749 -0.26408137
v -5.75469106 -3.11148523 -0.26006028
v -5.93804318 1.53237114 -0.07856937
v -5.9363517 1.53581165 -0.12062536
v -5.92867217 1.53358135 -0.11983138
v -5.92127579 1.53143589 -0.11745015
v -5.91445265 1.52945838 -0.11357193
v -5.90847174 1.52772512 -0.10834477
v -5.90356579 1.52629879 -0.10196874
v -5.89991418 1.52524077 -0.09469002
v -5.89766374 1.52458984 -0.08678848
v -5.896904 1.52436902 -0.07856939
v -5.89766374 1.52458984 -0.07035028
v -5.89991418 1.52524077 -0.06244873
v -5.90356579 1.52629879 -0.05516998
v -5.90847174 1.52772512 -0.04879394
v -5.91445265 1.5294588 -0.04356678
v -5.92127579 1.53143631 -0.03968858
v -5.92867217 1.53358135 -0.03730739
v -5.9363517 1.53581165 -0.03651342
v -5.94403486 1.53804066 -0.03733543
v -5.95140971 1.54018527 -0.03974037
v -5.9582078 1.54215852 -0.04363441
v -5.96416005 1.54388879 -0.04886709
v -5.96904447 1.54530788 -0.05523752
v -5.97267093 1.54636377 -0.06250038
v -5.97490347 1.54701214 -0.07037822
v -5.97565969 1.54723295 -0.07856936
v -5.97490347 1.54701214 -0.08676052
v -5.97267093 1.54636377 -0.09463837
v -5.96904447 1.54530788 -0.10190154
v -5.96416005 1.54388879 -0.1082717
v -5.9582078 1.54215852 -0.11350439
v -5.95140971 1.54018527 -0.11739844
v -5.94403486 1.53804066 -0.11980337
v -5.8866766 1.64150724 -0.14839657
v -5.87369702 1.63838815 -0.14697606
v -5.86124412 1.6353978 -0.14294147
v -5.84978754 1.63264958 -0.13645289
v -5.83975366 1.63024536 -0.12776117
v -5.83152945 1.62827595 -0.11719847
v -5.82542299 1.62681423 -0.10516795
v -5.82166385 1.62591436 -0.09212632
v -5.82039535 1.62560957 -0.07856943
v -5.82166385 1.62591436 -0.06501254
v -5.82542299 1.62681423 -0.05197088
v -5.83152945 1.62827595 -0.03994034
v -5.83975366 1.63024536 -0.02937761
v -5.84978754 1.63264958 -0.0206859
v -5.86124412 1.6353978 -0.01419736
v -5.87369702 1.63838815 -0.01016281
v -5.8866766 1.64150724 -0.0087423
v -5.89968484 1.64463613 -0.00999843
v -5.91222374 1.64765334 -0.01389343
v -5.92380928 1.65044462 -0.02028841
v -5.93399374 1.65290084 -0.02894686
v -5.94237205 1.65492098 -0.03954189
v -5.94860745 1.6564266 -0.05166558
v -5.95245622 1.65735503 -0.06484716
v -5.95375702 1.65767006 -0.07856936
v -5.95245622 1.65735503 -0.0922916
v -5.94860745 1.6564266 -0.10547324
v -5.94237205 1.65492098 -0.1175973
v -5.93399374 1.65290084 -0.12819208
v -5.92380928 1.65044462 -0.13685053
v -5.91222374 1.64765334 -0.14324548
v -5.89968132 1.64463613 -0.14714045
v -5.85758536 1.71337371 -0.14849123
v -5.84448749 1.71055558 -0.14703675
v -5.83193079 1.70786021 -0.14297211
v -5.82038096 1.70538097 -0.13646042
v -5.81028261 1.70321675 -0.12775391
v -5.80200096 1.70144343 -0.11718465
v -5.79585166 1.70012537 -0.10515455
v -5.79206736 1.69931842 -0.09211833
v -5.79079162 1.69904432 -0.07856944
v -5.79206736 1.69931842 -0.06502054
v -5.79585166 1.7001258 -0.05198431
v -5.80200096 1.70144343 -0.03995419
v -5.81028261 1.70321675 -0.02938491
v -5.82038096 1.70538097 -0.02067843
v -5.83193079 1.70786021 -0.01416675
v -5.84448749 1.71055558 -0.01010213
v -5.85758536 1.71337371 -0.00864766
v -5.87072628 1.71620208 -0.00987046
v -5.88340842 1.71893453 -0.01373835
v -5.89514091 1.72146535 -0.02011799
v -5.90546157 1.72369437 -0.02877742
v -5.91396169 1.72553206 -0.0393921
v -5.920301 1.72690212 -0.05155353
v -5.92420348 1.72774658 -0.06478717
v -5.9255258 1.72803304 -0.07856938
v -5.92420348 1.72774658 -0.09235161
v -5.920301 1.72690212 -0.10558532
v -5.91396169 1.72553206 -0.11774711
v -5.90546157 1.72369437 -0.12836154
v -5.89514091 1.72146535 -0.13702096
v -5.88340842 1.71893453 -0.14340058
v -5.87072628 1.71620208 -0.14726844
v -5.83295567 1.78448908 -0.148773
v -5.81969657 1.78200856 -0.14732139
v -5.80697489 1.77962992 -0.14325009
v -5.79527469 1.77744694 -0.1367206
v -5.7850329 1.77553849 -0.12798387
v -5.77663668 1.77397234 -0.11737159
v -5.77039414 1.77281371 -0.1052868
v -5.76655613 1.77209884 -0.0921869
v -5.76526248 1.77185799 -0.07856944
v -5.76655613 1.77209884 -0.06495198
v -5.77039414 1.77281371 -0.05185207
v -5.77663668 1.77397234 -0.03976727
v -5.7850329 1.77553849 -0.02915498
v -5.79527469 1.77744694 -0.02041825
v -5.80697489 1.77962992 -0.01388878
v -5.81969657 1.78200856 -0.00981749
v -5.83295567 1.78448908 -0.00836589
v -5.84625783 1.78697941 -0.00959968
v -5.85909759 1.78938788 -0.01348592
v -5.87097352 1.79161818 -0.01989107
v -5.8814195 1.79357992 -0.0285833
v -5.89003078 1.79520021 -0.03923812
v -5.89644533 1.79640743 -0.05144642
v -5.90040152 1.79715214 -0.06473218
v -5.90173823 1.7974045 -0.07856939
v -5.90040152 1.79715214 -0.09240663
v -5.89644533 1.79640743 -0.10569245
v -5.89003078 1.79520021 -0.1179011
v -5.8814195 1.79357992 -0.12855567
v -5.87097352 1.79161818 -0.1372479
v -5.85909759 1.78938788 -0.14365301
v -5.84625783 1.78697941 -0.14753921
v -5.81213884 1.85615477 -0.14900884
v -5.79872201 1.85404213 -0.14758562
v -5.78584272 1.85201517 -0.14353064
v -5.77398128 1.85015191 -0.13700079
v -5.76359253 1.84852181 -0.1282438
v -5.75506012 1.84718543 -0.11759033
v -5.74872081 1.84619177 -0.10544512
v -5.74481832 1.84557963 -0.09227007
v -5.74350314 1.84537246 -0.07856944
v -5.74481832 1.84557963 -0.06486882
v -5.74872081 1.84619177 -0.05169376
v -5.75506012 1.84718543 -0.03954855
v -5.76359253 1.84852181 -0.02889508
v -5.77398128 1.85015191 -0.02013808
v -5.78584272 1.85201517 -0.01360824
v -5.79872564 1.85404256 -0.00955327
v -5.81213884 1.85615477 -0.00813006
v -5.82558786 1.85827509 -0.00939933
v -5.83854963 1.86031995 -0.01332346
v -5.85053299 1.86221477 -0.0197653
v -5.86107574 1.86388194 -0.0284907
v -5.86975149 1.86525542 -0.03917412
v -5.87621623 1.86627764 -0.05140662
v -5.88020471 1.86691023 -0.0647132
v -5.8815557 1.86712551 -0.0785694
v -5.88020471 1.86691023 -0.09242563
v -5.87621623 1.86627764 -0.10573227
v -5.86975149 1.86525542 -0.11796512
v -5.86107574 1.86388194 -0.12864829
v -5.85053299 1.86221477 -0.13737366
v -5.83854963 1.86031995 -0.14381547
v -5.82558786 1.85827509 -0.14773958
v -5.79489125 1.928838 -0.14917968
v -5.78134547 1.92711796 -0.147789
v -5.76832647 1.92546272 -0.14375597
v -5.7563251 1.9239409 -0.13723266
v -5.74580026 1.92260707 -0.12846342
v -5.73715669 1.92151281 -0.11777779
v -5.73072424 1.92070032 -0.10558206
v -5.72676442 1.92019859 -0.09234237
v -5.7254242 1.92002893 -0.07856944
v -5.72676442 1.92019859 -0.06479651
v -5.73072424 1.92070032 -0.05155682
v -5.73715669 1.92151281 -0.03936109
v -5.74580026 1.92260707 -0.02867547
v -5.7563251 1.9239409 -0.01990623
v -5.76832647 1.92546272 -0.0133829
v -5.78134547 1.92711796 -0.00934989
v -5.79489125 1.928838 -0.00795921
v -5.80845494 1.93056358 -0.00926621
v -5.82152062 1.93222777 -0.01322808
v -5.83358635 1.93376622 -0.01970351
v -5.84419368 1.93511795 -0.02845551
v -5.85292314 1.93623054 -0.03915738
v -5.85942017 1.93706221 -0.05140056
v -5.86342656 1.9375746 -0.0647118
v -5.86478469 1.93774682 -0.0785694
v -5.86342656 1.9375746 -0.09242703
v -5.85942017 1.93706221 -0.10573833
v -5.85292314 1.93623054 -0.11798186
v -5.84419368 1.93511795 -0.12868347
v -5.83358635 1.93376622 -0.13743546
v -5.82152062 1.93222777 -0.14391086
v -5.80845494 1.93056358 -0.14787271
v -5.78124146 2.00244369 -0.14932917
v -5.76758815 2.00112777 -0.14796381
v -5.75445448 1.99986214 -0.14394709
v -5.74233855 1.99869627 -0.13742736
v -5.73170255 1.99767362 -0.12864646
v -5.72296585 1.996833 -0.11793319
v -5.71646178 1.9962085 -0.10569517
v -5.71245177 1.995824 -0.09240197
v -5.71109364 1.99569398 -0.07856944
v -5.71245177 1.995824 -0.06473692
v -5.71646178 1.9962085 -0.05144372
v -5.72296585 1.996833 -0.0392057
v -5.73170255 1.99767362 -0.02849242
v -5.74233855 1.99869627 -0.01971152
v -5.75445448 1.99986214 -0.01319179
v -5.76758815 2.00112777 -0.00917505
v -5.78124146 2.00244369 -0.00780973
v -5.79490202 2.00376175 -0.00914688
v -5.80805359 2.00503164 -0.01313964
v -5.82019105 2.00620476 -0.01964324
v -5.83085209 2.00723721 -0.02841836
v -5.83962109 2.00808294 -0.03913711
v -5.84615031 2.0087164 -0.05139111
v -5.8501746 2.00910644 -0.06470839
v -5.85153272 2.00923774 -0.07856941
v -5.8501746 2.00910644 -0.09243045
v -5.84615031 2.0087164 -0.10574778
v -5.83962109 2.00808294 -0.11800213
v -5.83085209 2.00723721 -0.12872062
v -5.82019105 2.00620476 -0.13749572
v -5.80805359 2.00503164 -0.1439993
v -5.79490202 2.00376175 -0.14799204
v -5.77130787 2.07675019 -0.14947738
v -5.75756866 2.07584946 -0.14813213
v -5.74433812 2.074979 -0.14412697
v -5.73212905 2.07417717 -0.13760743
v -5.72140705 2.07347338 -0.12881352
v -5.71258796 2.07289492 -0.11807364
v -5.70602283 2.07246736 -0.10579673
v -5.70197701 2.07220179 -0.09245527
v -5.70060812 2.07211184 -0.07856944
v -5.70197701 2.07220179 -0.06468361
v -5.70602283 2.07246736 -0.05134217
v -5.71258796 2.07289492 -0.03906524
v -5.72140705 2.07347338 -0.02832536
v -5.73212905 2.07417717 -0.01953145
v -5.74433812 2.074979 -0.01301191
v -5.75756866 2.07584946 -0.00900675
v -5.77130787 2.07675019 -0.00766149
v -5.78504728 2.07765561 -0.00902388
v -5.79826696 2.0785265 -0.01304364
v -5.81046175 2.07932961 -0.01957306
v -5.82116574 2.08003723 -0.0283706
v -5.8299634 2.08061612 -0.0391072
v -5.83651415 2.08104794 -0.05137438
v -5.84055272 2.08131436 -0.06470107
v -5.84191809 2.08140388 -0.07856941
v -5.84055272 2.08131436 -0.09243777
v -5.83651415 2.08104794 -0.10576451
v -5.8299634 2.08061612 -0.11803204
v -5.82116574 2.08003723 -0.12876839
v -5.81046175 2.07932961 -0.13756591
v -5.79826334 2.0785265 -0.1440953
v -5.78504728 2.07765561 -0.14811503
v -5.76520514 2.1515938 -0.14962693
v -5.75139059 2.15110613 -0.14830581
v -5.73808843 2.15063637 -0.14431529
v -5.7258005 2.15020242 -0.13779768
v -5.71500326 2.14982389 -0.12899102
v -5.70611608 2.14951185 -0.11822339
v -5.69949724 2.1492791 -0.10590519
v -5.69541561 2.14913587 -0.09251225
v -5.69403596 2.14908813 -0.07856944
v -5.69541561 2.14913587 -0.06462664
v -5.69949724 2.1492791 -0.0512337
v -5.70611246 2.14951185 -0.0389155
v -5.71500326 2.14982389 -0.02814785
v -5.7258005 2.15020242 -0.01934119
v -5.73808843 2.15063637 -0.01282359
v -5.75139059 2.15110613 -0.00883306
v -5.76520514 2.1515938 -0.00751195
v -5.77900179 2.15208146 -0.00890402
v -5.79226452 2.15255037 -0.01295492
v -5.80449512 2.15298475 -0.01951328
v -5.81522063 2.15336542 -0.02833473
v -5.8240362 2.15367745 -0.03908873
v -5.83059057 2.15391148 -0.05136664
v -5.83463276 2.15405471 -0.0646987
v -5.83600528 2.15410288 -0.07856941
v -5.83463276 2.15405471 -0.09244015
v -5.83059057 2.15391148 -0.10577225
v -5.8240362 2.15367745 -0.11805052
v -5.81522063 2.15336542 -0.12880424
v -5.80449512 2.15298475 -0.13762568
v -5.79226452 2.15255037 -0.14418401
v -5.77900179 2.15208146 -0.14823489
v -5.76304785 2.22708024 -0.14976605
v -5.74918673 2.22700692 -0.14848509
v -5.73582009 2.22693615 -0.14452292
v -5.72345681 2.22687221 -0.13801676
v -5.71258072 2.22681594 -0.12920145
v -5.70362906 2.22677033 -0.11840434
v -5.69695288 2.22673666 -0.10603788
v -5.69283182 2.22671449 -0.09258243
v -5.69144141 2.22670852 -0.07856944
v -5.69283182 2.22671449 -0.06455646
v -5.69695288 2.22673666 -0.05110101
v -5.70362906 2.22677033 -0.03873454
v -5.71258072 2.22681594 -0.02793743
v -5.72345681 2.22687221 -0.01912211
v -5.73582009 2.22693615 -0.01261595
v -5.74918673 2.22700692 -0.0086538
v -5.76304785 2.22708024 -0.00737283
v -5.77687678 2.22715398 -0.00881057
v -5.79015731 2.22722773 -0.0129061
v -5.80238439 2.22729466 -0.01950213
v -5.81309925 2.22735519 -0.02834994
v -5.82190043 2.22740549 -0.03911676
v -5.82844041 2.22744087 -0.05139425
v -5.83246471 2.22746559 -0.0647154
v -5.83383008 2.22747369 -0.07856941
v -5.83246471 2.22746559 -0.09242344
v -5.82844041 2.22744087 -0.10574464
v -5.82190043 2.22740549 -0.11802247
v -5.81309925 2.22735519 -0.12878903
v -5.80238439 2.22729466 -0.13763682
v -5.79015731 2.22722773 -0.14423283
v -5.77687678 2.22715398 -0.14832833
v -5.7649758 2.30361191 -0.1498175
v -5.75109667 2.303941 -0.14860399
v -5.73769061 2.30426114 -0.14469671
v -5.72526648 2.30455868 -0.13822432
v -5.71432239 2.30482212 -0.1294161
v -5.70529539 2.30504166 -0.11859764
v -5.69856198 2.30520449 -0.10618366
v -5.69440139 2.3053051 -0.09266073
v -5.69299669 2.30533962 -0.07856944
v -5.69440139 2.3053051 -0.06447815
v -5.69856198 2.30520449 -0.05095522
v -5.70529539 2.30504166 -0.03854125
v -5.71432239 2.30482212 -0.02772278
v -5.72526648 2.30455868 -0.01891457
v -5.73769061 2.30426114 -0.01244218
v -5.75109667 2.303941 -0.00853489
v -5.7649758 2.30361191 -0.00732138
v -5.77879749 2.30328368 -0.00882902
v -5.79204594 2.30297292 -0.01298642
v -5.80421921 2.30268603 -0.01962716
v -5.81486948 2.30243837 -0.02849602
v -5.82359905 2.30223418 -0.03925743
v -5.83008159 2.3020837 -0.05150452
v -5.83407018 2.3019912 -0.06477584
v -5.83541754 2.30195838 -0.07856941
v -5.83407018 2.3019912 -0.09236301
v -5.83008159 2.3020837 -0.10563438
v -5.82359905 2.30223418 -0.11788182
v -5.81486948 2.30243837 -0.12864295
v -5.80421921 2.30268603 -0.13751179
v -5.79204594 2.30297292 -0.14415252
v -5.77879749 2.30328368 -0.1483099
v -5.7711932 2.3818956 -0.14943871
v -5.75739304 2.38260663 -0.14832616
v -5.74402278 2.38329891 -0.14451956
v -5.73160579 2.38394259 -0.13813494
v -5.72064731 2.38451253 -0.12939235
v -5.71158813 2.38498314 -0.1186127
v -5.70482243 2.38533695 -0.10621134
v -5.70064041 2.38555478 -0.09268028
v -5.69922485 2.38562938 -0.07856944
v -5.70064041 2.38555478 -0.06445861
v -5.70482243 2.38533695 -0.05092754
v -5.71158813 2.38498314 -0.03852618
v -5.72064731 2.38451253 -0.02774653
v -5.73160579 2.38394259 -0.01900393
v -5.74402278 2.38329891 -0.01261932
v -5.75739304 2.38260663 -0.00881271
v -5.7711932 2.3818956 -0.00770017
v -5.7848967 2.38118883 -0.00929466
v -5.79799819 2.38051701 -0.01351093
v -5.81000659 2.37990317 -0.02017102
v -5.82048849 2.37936776 -0.02901252
v -5.82906395 2.37892997 -0.03969833
v -5.83542117 2.378606 -0.05182632
v -5.83932365 2.37840821 -0.0649456
v -5.84064597 2.37834085 -0.07856941
v -5.83932365 2.37840821 -0.09219325
v -5.83542117 2.378606 -0.10531258
v -5.82906395 2.37892997 -0.1174409
v -5.82048849 2.37936776 -0.12812645
v -5.81000659 2.37990317 -0.13696794
v -5.79799819 2.38051701 -0.143628
v -5.7848967 2.38118883 -0.14784424
v -5.78187576 2.46273654 -0.14753413
v -5.76846256 2.46378348 -0.14655325
v -5.75543641 2.46480143 -0.14293527
v -5.74329896 2.46574948 -0.13678003
v -5.73256268 2.46659351 -0.12829285
v -5.72367539 2.46729261 -0.11778284
v -5.71702436 2.46781267 -0.10565712
v -5.71290682 2.46813665 -0.09240321
v -5.71151289 2.4682462 -0.07856944
v -5.71290682 2.46813665 -0.06473568
v -5.71702436 2.46781267 -0.05148176
v -5.72367539 2.46729261 -0.03935604
v -5.73256268 2.46659351 -0.02884602
v -5.74329896 2.46574948 -0.02035885
v -5.75543641 2.46480143 -0.01420361
v -5.76846256 2.46378348 -0.01058562
v -5.78187576 2.46273654 -0.00960475
v -5.79516002 2.46170281 -0.01125829
v -5.80781349 2.46071895 -0.01544787
v -5.81938123 2.45982164 -0.02198713
v -5.82944739 2.45903941 -0.03061175
v -5.83766809 2.45840511 -0.04099041
v -5.84374929 2.45793492 -0.05273462
v -5.84748339 2.4576459 -0.06541442
v -5.84874113 2.45754871 -0.07856942
v -5.84748339 2.4576459 -0.09172442
v -5.84374929 2.45793492 -0.10440427
v -5.83766809 2.45840511 -0.11614882
v -5.82944739 2.45903941 -0.12652722
v -5.81938123 2.45982164 -0.13515182
v -5.80781349 2.46071895 -0.14169106
v -5.79516002 2.46170281 -0.14588061
v -5.79703416 2.54638921 -0.1415293
v -5.78482146 2.54765739 -0.14069806
v -5.77293839 2.54889446 -0.13744903
v -5.76185096 2.55004882 -0.13186537
v -5.7520249 2.55107061 -0.1241293
v -5.74387944 2.55192019 -0.11452133
v -5.73778023 2.55255577 -0.10341533
v -5.73399967 2.55295008 -0.0912618
v -5.7327203 2.55308436 -0.07856945
v -5.73399967 2.55295008 -0.06587709
v -5.73778023 2.55255577 -0.05372356
v -5.74387944 2.55192019 -0.04261755
v -5.7520249 2.55107061 -0.03300958
v -5.76185096 2.55004882 -0.02527352
v -5.77293839 2.54889446 -0.01968984
v -5.78482146 2.54765739 -0.01644083
v -5.79703416 2.54638921 -0.0156096
v -5.8091 2.54513638 -0.01718396
v -5.82056735 2.54394578 -0.02106419
v -5.83103486 2.54286132 -0.02707158
v -5.84012634 2.54191882 -0.03495886
v -5.84753348 2.54115237 -0.04442129
v -5.85300914 2.54058669 -0.05510592
v -5.85636695 2.54023842 -0.06662587
v -5.85749936 2.54012205 -0.07856942
v -5.85636695 2.54023842 -0.09051298
v -5.85300914 2.54058669 -0.10203298
v -5.84753348 2.54115237 -0.11271793
v -5.84012634 2.54191882 -0.1221801
v -5.83103486 2.54286132 -0.13006737
v -5.82056735 2.54394578 -0.13607473
v -5.8091 2.54513638 -0.13995494
v -5.81614161 2.63120904 -0.12692292
v -5.80681728 2.63244099 -0.12624877
v -5.79775809 2.63363756 -0.12372049
v -5.78931882 2.6347527 -0.11940773
v -5.78185072 2.63573784 -0.11345537
v -5.77567265 2.63655416 -0.10608165
v -5.77104635 2.63716459 -0.09757393
v -5.76818303 2.63754228 -0.08827489
v -5.76721196 2.63766846 -0.07856945
v -5.76818303 2.63754228 -0.068864
v -5.77104635 2.63716459 -0.05956497
v -5.77567265 2.63655416 -0.05105724
v -5.78185072 2.63573784 -0.04368352
v -5.78931882 2.6347527 -0.03773116
v -5.79775809 2.63363756 -0.0334184
v -5.80681728 2.63244099 -0.0308901
v -5.81614161 2.63120904 -0.03021598
v -5.82536214 2.62998903 -0.03139221
v -5.83414542 2.62882657 -0.03434679
v -5.84216534 2.62776556 -0.03894536
v -5.84913895 2.62684309 -0.0449993
v -5.85482243 2.62608942 -0.05227429
v -5.85902235 2.62553142 -0.06049737
v -5.86160614 2.6251904 -0.06936894
v -5.86247692 2.62507445 -0.07856943
v -5.86160614 2.6251904 -0.08776993
v -5.85902235 2.62553142 -0.09664152
v -5.85482243 2.62608942 -0.10486491
v -5.84913895 2.62684309 -0.11213964
v -5.84216534 2.62776556 -0.11819357
v -5.83414542 2.62882657 -0.12279213
v -5.82536214 2.62998903 -0.12574669
v -5.81714869 2.63732786 -0.07856945
v -5.91414445 1.58143464 -0.14846963
v -5.9012366 1.57806703 -0.1471135
v -5.88882313 1.57483285 -0.14312844
v -5.87738807 1.57185486 -0.13666725
v -5.86736123 1.5692439 -0.12797679
v -5.8591335 1.56710568 -0.1173888
v -5.85301628 1.56551438 -0.10530954
v -5.84924648 1.56453649 -0.09220175
v -5.84797787 1.56420528 -0.07856942
v -5.84924648 1.56453649 -0.06493708
v -5.85301628 1.56551438 -0.05182926
v -5.8591335 1.56710568 -0.03974996
v -5.86736123 1.56924475 -0.02916194
v -5.87738807 1.57185486 -0.0204715
v -5.88882313 1.57483285 -0.01401036
v -5.9012366 1.57806703 -0.01002534
v -5.91414445 1.58143464 -0.00866924
v -5.92705593 1.5848031 -0.00999498
v -5.93948017 1.58804794 -0.0139542
v -5.95093675 1.59104213 -0.020398
v -5.96098864 1.59367142 -0.02908223
v -5.96924503 1.59582968 -0.03967612
v -5.97538367 1.5974376 -0.05177261
v -5.97916434 1.59842657 -0.06490635
v -5.98044009 1.59876163 -0.07856935
v -5.97916434 1.59842657 -0.09223238
v -5.97538367 1.5974376 -0.10536618
v -5.96924503 1.5958301 -0.11746303
v -5.96098864 1.59367142 -0.1280567
v -5.95093675 1.59104171 -0.13674092
v -5.93948017 1.58804794 -0.14318471
v -5.92705593 1.5848031 -0.14714391
v -5.91933707 1.54203405 -0.14423716
v -5.90459078 1.56857592 -0.15301078
v -5.91854504 1.5723988 -0.15441743
v -5.9315892 1.54553295 -0.1454693
v -5.90753286 1.53866559 -0.14047652
v -5.89115243 1.56489926 -0.14874011
v -5.89664237 1.53556099 -0.13432584
v -5.87875334 1.5615082 -0.14176312
v -5.88707794 1.53283408 -0.12601806
v -5.86787021 1.55853363 -0.13234388
v -5.87922289 1.53059441 -0.11587005
v -5.85892558 1.55609062 -0.12084118
v -5.87337806 1.52892979 -0.10427339
v -5.85227456 1.55427339 -0.10769824
v -5.86977653 1.52790459 -0.09167641
v -5.84817503 1.5531527 -0.09342263
v -5.86855822 1.52755802 -0.0785694
v -5.84678813 1.55277629 -0.07856941
v -5.86977653 1.52790459 -0.06546237
v -5.84817503 1.5531527 -0.06371617
v -5.87337806 1.52892979 -0.05286535
v -5.85227456 1.55427339 -0.04944052
v -5.87922289 1.53059441 -0.04126866
v -5.85892558 1.55609062 -0.03629753
v -5.88707794 1.53283408 -0.03112062
v -5.86787021 1.55853363 -0.02479481
v -5.89664237 1.53556142 -0.02281287
v -5.87875334 1.5615082 -0.01537558
v -5.90753286 1.53866559 -0.01666222
v -5.89115243 1.56489968 -0.00839866
v -5.91933707 1.5420349 -0.01290164
v -5.90459078 1.56857592 -0.00412806
v -5.9315892 1.54553295 -0.01166953
v -5.91854504 1.5723988 -0.00272144
v -5.94382342 1.54902802 -0.01300724
v -5.93247789 1.5762157 -0.00422698
v -5.95556668 1.55238454 -0.01685733
v -5.94585891 1.57988597 -0.00858145
v -5.96637468 1.55547422 -0.02306775
v -5.95817903 1.58326466 -0.0156144
v -5.97583521 1.55817939 -0.03139648
v -5.96896912 1.58622688 -0.02505331
v -5.98358998 1.56039775 -0.04152349
v -5.97781336 1.58865625 -0.03653633
v -5.9893488 1.5620483 -0.05306035
v -5.98438563 1.59046197 -0.04962326
v -5.99289289 1.56306114 -0.06556787
v -5.98843145 1.59157285 -0.06381503
v -5.99408978 1.56340558 -0.07856935
v -5.98979672 1.59194883 -0.07856934
v -5.99289289 1.56306114 -0.09157084
v -5.98843145 1.59157285 -0.09332368
v -5.9893488 1.5620483 -0.1040784
v -5.98438563 1.59046197 -0.10751551
v -5.98358998 1.56039775 -0.11561531
v -5.97781336 1.58865625 -0.12060251
v -5.97583521 1.55817939 -0.12574235
v -5.96896912 1.58622688 -0.13208558
v -5.96637468 1.55547422 -0.1340711
v -5.95817903 1.58326466 -0.14152449
v -5.95556668 1.55238454 -0.14028153
v -5.94585891 1.57988597 -0.14855745
v -5.94382342 1.54902802 -0.14413163
v -5.93247789 1.5762157 -0.15291191
g Group60451
f 35 34 33 32
f 10 11 26 25
f 32 33 37 36
f 11 12 27 26
f 36 37 39 38
f 12 13 28 27
f 38 39 41 40
f 13 14 29 28
f 40 41 43 42
f 14 15 30 29
f 42 43 45 44
f 31 16 63 64
f 15 16 31 30
f 49 48 47 46
f 2 3 8 7
f 46 47 51 50
f 9 4 65 66
f 3 4 9 8
f 47 42 44 51
f 16 9 66 63
f 8 9 16 15
f 48 40 42 47
f 7 8 15 14
f 52 38 40 48
f 6 7 14 13
f 53 36 38 52
f 5 6 13 12
f 55 90 89 54
f 106 86 45
f 18 68 69
f 18 17 67 68
f 55 54 34 35
f 10 18 69 70
f 18 10 25 17
f 57 32 36 56
f 19 22 12 11
f 57 56 36 53
f 5 19 71 72
f 19 5 12 22
f 35 32 57
f 19 10 70 71
f 19 11 10
f 53 52 59 58
f 24 5 72 73
f 20 24 73 74
f 5 24 20 6
f 59 52 48
f 7 6 20
f 59 48 49 60
f 23 20 74 75
f 2 23 75 76
f 20 23 2 7
f 49 46 61
f 21 2 76 77
f 21 3 2
f 61 46 50
f 4 3 21
f 61 50 62
f 1 21 77 78
f 4 1 78 65
f 1 4 21
f 34 101 33
f 99 98 49 61
f 25 26 79
f 33 101 102 37
f 98 97 60 49
f 26 27 80 79
f 37 102 103 39
f 97 96 59 60
f 27 28 81 80
f 39 103 104 41
f 96 95 58 59
f 28 29 82 81
f 41 104 105 43
f 95 94 53 58
f 29 30 83 82
f 43 105 106 45
f 84 31 64
f 93 92 35 57
f 30 31 84 83
f 89 101 54
f 87 100 62 50
f 17 79 67
f 54 101 34
f 25 79 17
f 64 63 85 86
f 66 65 87 88
f 63 66 88 85
f 68 67 89 90
f 69 68 90 91
f 70 69 91 92
f 72 71 93 94
f 71 70 92 93
f 73 72 94 95
f 74 73 95 96
f 75 74 96 97
f 76 75 97 98
f 77 76 98 99
f 78 77 99 100
f 65 78 100 87
f 79 80 102 101
f 80 81 103 102
f 81 82 104 103
f 82 83 105 104
f 84 64 86 106
f 83 84 106 105
f 67 79 101 89
f 86 85 44 45
f 88 87 50 51
f 85 88 51 44
f 100 99 61 62
f 91 90 55
f 92 91 55 35
f 94 93 57 53
g Group17423
f 107 108 109
f 107 109 110
f 107 110 111
f 107 111 112
f 107 112 113
f 107 113 114
f 107 114 115
f 107 115 116
f 107 116 117
f 107 117 118
f 107 118 119
f 107 119 120
f 107 120 121
f 107 121 122
f 107 122 123
f 107 123 124
f 107 124 125
f 107 125 126
f 107 126 127
f 107 127 128
f 107 128 129
f 107 129 130
f 107 130 131
f 107 131 132
f 107 132 133
f 107 133 134
f 107 134 135
f 107 135 136
f 107 136 137
f 107 137 138
f 107 138 139
f 107 139 108
g Group17428
f 140 172 173 141
f 141 173 174 142
f 142 174 175 143
f 143 175 176 144
f 144 176 177 145
f 145 177 178 146
f 146 178 179 147
f 147 179 180 148
f 148 180 181 149
f 149 181 182 150
f 150 182 183 151
f 151 183 184 152
f 152 184 185 153
f 153 185 186 154
f 154 186 187 155
f 155 187 188 156
f 156 188 189 157
f 157 189 190 158
f 158 190 191 159
f 159 191 192 160
f 160 192 193 161
f 161 193 194 162
f 162 194 195 163
f 163 195 196 164
f 164 196 197 165
f 165 197 198 166
f 166 198 199 167
f 167 199 200 168
f 168 200 201 169
f 169 201 202 170
f 170 202 203 171
f 171 203 172 140
f 172 204 205 173
f 173 205 206 174
f 174 206 207 175
f 175 207 208 176
f 176 208 209 177
f 177 209 210 178
f 178 210 211 179
f 179 211 212 180
f 180 212 213 181
f 181 213 214 182
f 182 214 215 183
f 183 215 216 184
f 184 216 217 185
f 185 217 218 186
f 186 218 219 187
f 187 219 220 188
f 188 220 221 189
f 189 221 222 190
f 190 222 223 191
f 191 223 224 192
f 192 224 225 193
f 193 225 226 194
f 194 226 227 195
f 195 227 228 196
f 196 228 229 197
f 197 229 230 198
f 198 230 231 199
f 199 231 232 200
f 200 232 233 201
f 201 233 234 202
f 202 234 235 203
f 203 235 204 172
f 204 236 237 205
f 205 237 238 206
f 206 238 239 207
f 207 239 240 208
f 208 240 241 209
f 209 241 242 210
f 210 242 243 211
f 211 243 244 212
f 212 244 245 213
f 213 245 246 214
f 214 246 247 215
f 215 247 248 216
f 216 248 249 217
f 217 249 250 218
f 218 250 251 219
f 219 251 252 220
f 220 252 253 221
f 221 253 254 222
f 222 254 255 223
f 223 255 256 224
f 224 256 257 225
f 225 257 258 226
f 226 258 259 227
f 227 259 260 228
f 228 260 261 229
f 229 261 262 230
f 230 262 263 231
f 231 263 264 232
f 232 264 265 233
f 233 265 266 234
f 234 266 267 235
f 235 267 236 204
f 236 268 269 237
f 237 269 270 238
f 238 270 271 239
f 239 271 272 240
f 240 272 273 241
f 241 273 274 242
f 242 274 275 243
f 243 275 276 244
f 244 276 277 245
f 245 277 278 246
f 246 278 279 247
f 247 279 280 248
f 248 280 281 249
f 249 281 282 250
f 250 282 283 251
f 251 283 284 252
f 252 284 285 253
f 253 285 286 254
f 254 286 287 255
f 255 287 288 256
f 256 288 289 257
f 257 289 290 258
f 258 290 291 259
f 259 291 292 260
f 260 292 293 261
f 261 293 294 262
f 262 294 295 263
f 263 295 296 264
f 264 296 297 265
f 265 297 298 266
f 266 298 299 267
f 267 299 268 236
f 268 300 301 269
f 269 301 302 270
f 270 302 303 271
f 271 303 304 272
f 272 304 305 273
f 273 305 306 274
f 274 306 307 275
f 275 307 308 276
f 276 308 309 277
f 277 309 310 278
f 278 310 311 279
f 279 311 312 280
f 280 312 313 281
f 281 313 314 282
f 282 314 315 283
f 283 315 316 284
f 284 316 317 285
f 285 317 318 286
f 286 318 319 287
f 287 319 320 288
f 288 320 321 289
f 289 321 322 290
f 290 322 323 291
f 291 323 324 292
f 292 324 325 293
f 293 325 326 294
f 294 326 327 295
f 295 327 328 296
f 296 328 329 297
f 297 329 330 298
f 298 330 331 299
f 299 331 300 268
f 300 332 333 301
f 301 333 334 302
f 302 334 335 303
f 303 335 336 304
f 304 336 337 305
f 305 337 338 306
f 306 338 339 307
f 307 339 340 308
f 308 340 341 309
f 309 341 342 310
f 310 342 343 311
f 311 343 344 312
f 312 344 345 313
f 313 345 346 314
f 314 346 347 315
f 315 347 348 316
f 316 348 349 317
f 317 349 350 318
f 318 350 351 319
f 319 351 352 320
f 320 352 353 321
f 321 353 354 322
f 322 354 355 323
f 323 355 356 324
f 324 356 357 325
f 325 357 358 326
f 326 358 359 327
f 327 359 360 328
f 328 360 361 329
f 329 361 362 330
f 330 362 363 331
f 331 363 332 300
f 332 364 365 333
f 333 365 366 334
f 334 366 367 335
f 335 367 368 336
f 336 368 369 337
f 337 369 370 338
f 338 370 371 339
f 339 371 372 340
f 340 372 373 341
f 341 373 374 342
f 342 374 375 343
f 343 375 376 344
f 344 376 377 345
f 345 377 378 346
f 346 378 379 347
f 347 379 380 348
f 348 380 381 349
f 349 381 382 350
f 350 382 383 351
f 351 383 384 352
f 352 384 385 353
f 353 385 386 354
f 354 386 387 355
f 355 387 388 356
f 356 388 389 357
f 357 389 390 358
f 358 390 391 359
f 359 391 392 360
f 360 392 393 361
f 361 393 394 362
f 362 394 395 363
f 363 395 364 332
f 364 396 397 365
f 365 397 398 366
f 366 398 399 367
f 367 399 400 368
f 368 400 401 369
f 369 401 402 370
f 370 402 403 371
f 371 403 404 372
f 372 404 405 373
f 373 405 406 374
f 374 406 407 375
f 375 407 408 376
f 376 408 409 377
f 377 409 410 378
f 378 410 411 379
f 379 411 412 380
f 380 412 413 381
f 381 413 414 382
f 382 414 415 383
f 383 415 416 384
f 384 416 417 385
f 385 417 418 386
f 386 418 419 387
f 387 419 420 388
f 388 420 421 389
f 389 421 422 390
f 390 422 423 391
f 391 423 424 392
f 392 424 425 393
f 393 425 426 394
f 394 426 427 395
f 395 427 396 364
f 396 428 429 397
f 397 429 430 398
f 398 430 431 399
f 399 431 432 400
f 400 432 433 401
f 401 433 434 402
f 402 434 435 403
f 403 435 436 404
f 404 436 437 405
f 405 437 438 406
f 406 438 439 407
f 407 439 440 408
f 408 440 441 409
f 409 441 442 410
f 410 442 443 411
f 411 443 444 412
f 412 444 445 413
f 413 445 446 414
f 414 446 447 415
f 415 447 448 416
f 416 448 449 417
f 417 449 450 418
f 418 450 451 419
f 419 451 452 420
f 420 452 453 421
f 421 453 454 422
f 422 454 455 423
f 423 455 456 424
f 424 456 457 425
f 425 457 458 426
f 426 458 459 427
f 427 459 428 396
f 428 460 461 429
f 429 461 462 430
f 430 462 463 431
f 431 463 464 432
f 432 464 465 433
f 433 465 466 434
f 434 466 467 435
f 435 467 468 436
f 436 468 469 437
f 437 469 470 438
f 438 470 471 439
f 439 471 472 440
f 440 472 473 441
f 441 473 474 442
f 442 474 475 443
f 443 475 476 444
f 444 476 477 445
f 445 477 478 446
f 446 478 479 447
f 447 479 480 448
f 448 480 481 449
f 449 481 482 450
f 450 482 483 451
f 451 483 484 452
f 452 484 485 453
f 453 485 486 454
f 454 486 487 455
f 455 487 488 456
f 456 488 489 457
f 457 489 490 458
f 458 490 491 459
f 459 491 460 428
f 460 492 493 461
f 461 493 494 462
f 462 494 495 463
f 463 495 496 464
f 464 496 497 465
f 465 497 498 466
f 466 498 499 467
f 467 499 500 468
f 468 500 501 469
f 469 501 502 470
f 470 502 503 471
f 471 503 504 472
f 472 504 505 473
f 473 505 506 474
f 474 506 507 475
f 475 507 508 476
f 476 508 509 477
f 477 509 510 478
f 478 510 511 479
f 479 511 512 480
f 480 512 513 481
f 481 513 514 482
f 482 514 515 483
f 483 515 516 484
f 484 516 517 485
f 485 517 518 486
f 486 518 519 487
f 487 519 520 488
f 488 520 521 489
f 489 521 522 490
f 490 522 523 491
f 491 523 492 460
f 492 524 525 493
f 493 525 526 494
f 494 526 527 495
f 495 527 528 496
f 496 528 529 497
f 497 529 530 498
f 498 530 531 499
f 499 531 532 500
f 500 532 533 501
f 501 533 534 502
f 502 534 535 503
f 503 535 536 504
f 504 536 537 505
f 505 537 538 506
f 506 538 539 507
f 507 539 540 508
f 508 540 541 509
f 509 541 542 510
f 510 542 543 511
f 511 543 544 512
f 512 544 545 513
f 513 545 546 514
f 514 546 547 515
f 515 547 548 516
f 516 548 549 517
f 517 549 550 518
f 518 550 551 519
f 519 551 552 520
f 520 552 553 521
f 521 553 554 522
f 522 554 555 523
f 523 555 524 492
f 524 685 686 525
f 525 686 687 526
f 526 687 688 527
f 527 688 689 528
f 528 689 690 529
f 529 690 691 530
f 530 691 692 531
f 531 692 693 532
f 532 693 694 533
f 533 694 695 534
f 534 695 696 535
f 535 696 697 536
f 536 697 698 537
f 537 698 699 538
f 538 699 700 539
f 539 700 701 540
f 540 701 702 541
f 541 702 703 542
f 542 703 704 543
f 543 704 705 544
f 544 705 706 545
f 545 706 707 546
f 546 707 708 547
f 547 708 709 548
f 548 709 710 549
f 549 710 711 550
f 550 711 712 551
f 551 712 713 552
f 552 713 714 553
f 553 714 715 554
f 554 715 716 555
f 555 716 685 524
g Group17433
f 556 588 557
f 557 588 558
f 558 588 559
f 559 588 560
f 560 588 561
f 561 588 562
f 562 588 563
f 563 588 564
f 564 588 565
f 565 588 566
f 566 588 567
f 567 588 568
f 568 588 569
f 569 588 570
f 570 588 571
f 571 588 572
f 572 588 573
f 573 588 574
f 574 588 575
f 575 588 576
f 576 588 577
f 577 588 578
f 578 588 579
f 579 588 580
f 580 588 581
f 581 588 582
f 582 588 583
f 583 588 584
f 584 588 585
f 585 588 586
f 586 588 587
f 587 588 556
g Group17428
f 589 140 141 590
f 590 141 142 591
f 591 142 143 592
f 592 143 144 593
f 593 144 145 594
f 594 145 146 595
f 595 146 147 596
f 596 147 148 597
f 597 148 149 598
f 598 149 150 599
f 599 150 151 600
f 600 151 152 601
f 601 152 153 602
f 602 153 154 603
f 603 154 155 604
f 604 155 156 605
f 605 156 157 606
f 606 157 158 607
f 607 158 159 608
f 608 159 160 609
f 609 160 161 610
f 610 161 162 611
f 611 162 163 612
f 612 163 164 613
f 613 164 165 614
f 614 165 166 615
f 615 166 167 616
f 616 167 168 617
f 617 168 169 618
f 618 169 170 619
f 619 170 171 620
f 620 171 140 589
g Group17438
f 624 623 622 621
g Group17423
f 109 108 624 621
g Group17443
f 589 590 622 623
g Group17438
f 621 622 626 625
g Group17423
f 110 109 621 625
g Group17443
f 590 591 626 622
g Group17438
f 625 626 628 627
g Group17423
f 111 110 625 627
g Group17443
f 591 592 628 626
g Group17438
f 627 628 630 629
g Group17423
f 112 111 627 629
g Group17443
f 592 593 630 628
g Group17438
f 629 630 632 631
g Group17423
f 113 112 629 631
g Group17443
f 593 594 632 630
g Group17438
f 631 632 634 633
g Group17423
f 114 113 631 633
g Group17443
f 594 595 634 632
g Group17438
f 633 634 636 635
g Group17423
f 115 114 633 635
g Group17443
f 595 596 636 634
g Group17438
f 635 636 638 637
g Group17423
f 116 115 635 637
g Group17443
f 596 597 638 636
g Group17438
f 637 638 640 639
g Group17423
f 117 116 637 639
g Group17443
f 597 598 640 638
g Group17438
f 639 640 642 641
g Group17423
f 118 117 639 641
g Group17443
f 598 599 642 640
g Group17438
f 641 642 644 643
g Group17423
f 119 118 641 643
g Group17443
f 599 600 644 642
g Group17438
f 643 644 646 645
g Group17423
f 120 119 643 645
g Group17443
f 600 601 646 644
g Group17438
f 645 646 648 647
g Group17423
f 121 120 645 647
g Group17443
f 601 602 648 646
g Group17438
f 647 648 650 649
g Group17423
f 122 121 647 649
g Group17443
f 602 603 650 648
g Group17438
f 649 650 652 651
g Group17423
f 123 122 649 651
g Group17443
f 603 604 652 650
g Group17438
f 651 652 654 653
g Group17423
f 124 123 651 653
g Group17443
f 604 605 654 652
g Group17438
f 653 654 656 655
g Group17423
f 125 124 653 655
g Group17443
f 605 606 656 654
g Group17438
f 655 656 658 657
g Group17423
f 126 125 655 657
g Group17443
f 606 607 658 656
g Group17438
f 657 658 660 659
g Group17423
f 127 126 657 659
g Group17443
f 607 608 660 658
g Group17438
f 659 660 662 661
g Group17423
f 128 127 659 661
g Group17443
f 608 609 662 660
g Group17438
f 661 662 664 663
g Group17423
f 129 128 661 663
g Group17443
f 609 610 664 662
g Group17438
f 663 664 666 665
g Group17423
f 130 129 663 665
g Group17443
f 610 611 666 664
g Group17438
f 665 666 668 667
g Group17423
f 131 130 665 667
g Group17443
f 611 612 668 666
g Group17438
f 667 668 670 669
g Group17423
f 132 131 667 669
g Group17443
f 612 613 670 668
g Group17438
f 669 670 672 671
g Group17423
f 133 132 669 671
g Group17443
f 613 614 672 670
g Group17438
f 671 672 674 673
g Group17423
f 134 133 671 673
g Group17443
f 614 615 674 672
g Group17438
f 673 674 676 675
g Group17423
f 135 134 673 675
g Group17443
f 615 616 676 674
g Group17438
f 675 676 678 677
g Group17423
f 136 135 675 677
g Group17443
f 616 617 678 676
g Group17438
f 677 678 680 679
g Group17423
f 137 136 677 679
g Group17443
f 617 618 680 678
g Group17438
f 679 680 682 681
g Group17423
f 138 137 679 681
g Group17443
f 618 619 682 680
g Group17438
f 681 682 684 683
g Group17423
f 139 138 681 683
g Group17443
f 619 620 684 682
g Group17438
f 683 684 623 624
g Group17423
f 108 139 683 624
g Group17443
f 620 589 623 684
g Group17448
f 720 719 718 717
g Group17453
f 686 685 720 717
g Group17433
f 556 557 718 719
g Group17448
f 717 718 722 721
g Group17453
f 687 686 717 721
g Group17433
f 557 558 722 718
g Group17448
f 721 722 724 723
g Group17453
f 688 687 721 723
g Group17433
f 558 559 724 722
g Group17448
f 723 724 726 725
g Group17453
f 689 688 723 725
g Group17433
f 559 560 726 724
g Group17448
f 725 726 728 727
g Group17453
f 690 689 725 727
g Group17433
f 560 561 728 726
g Group17448
f 727 728 730 729
g Group17453
f 691 690 727 729
g Group17433
f 561 562 730 728
g Group17448
f 729 730 732 731
g Group17453
f 692 691 729 731
g Group17433
f 562 563 732 730
g Group17448
f 731 732 734 733
g Group17453
f 693 692 731 733
g Group17433
f 563 564 734 732
g Group17448
f 733 734 736 735
g Group17453
f 694 693 733 735
g Group17433
f 564 565 736 734
g Group17448
f 735 736 738 737
g Group17453
f 695 694 735 737
g Group17433
f 565 566 738 736
g Group17448
f 737 738 740 739
g Group17453
f 696 695 737 739
g Group17433
f 566 567 740 738
g Group17448
f 739 740 742 741
g Group17453
f 697 696 739 741
g Group17433
f 567 568 742 740
g Group17448
f 741 742 744 743
g Group17453
f 698 697 741 743
g Group17433
f 568 569 744 742
g Group17448
f 743 744 746 745
g Group17453
f 699 698 743 745
g Group17433
f 569 570 746 744
g Group17448
f 745 746 748 747
g Group17453
f 700 699 745 747
g Group17433
f 570 571 748 746
g Group17448
f 747 748 750 749
g Group17453
f 701 700 747 749
g Group17433
f 571 572 750 748
g Group17448
f 749 750 752 751
g Group17453
f 702 701 749 751
g Group17433
f 572 573 752 750
g Group17448
f 751 752 754 753
g Group17453
f 703 702 751 753
g Group17433
f 573 574 754 752
g Group17448
f 753 754 756 755
g Group17453
f 704 703 753 755
g Group17433
f 574 575 756 754
g Group17448
f 755 756 758 757
g Group17453
f 705 704 755 757
g Group17433
f 575 576 758 756
g Group17448
f 757 758 760 759
g Group17453
f 706 705 757 759
g Group17433
f 576 577 760 758
g Group17448
f 759 760 762 761
g Group17453
f 707 706 759 761
g Group17433
f 577 578 762 760
g Group17448
f 761 762 764 763
g Group17453
f 708 707 761 763
g Group17433
f 578 579 764 762
g Group17448
f 763 764 766 765
g Group17453
f 709 708 763 765
g Group17433
f 579 580 766 764
g Group17448
f 765 766 768 767
g Group17453
f 710 709 765 767
g Group17433
f 580 581 768 766
g Group17448
f 767 768 770 769
g Group17453
f 711 710 767 769
g Group17433
f 581 582 770 768
g Group17448
f 769 770 772 771
g Group17453
f 712 711 769 771
g Group17433
f 582 583 772 770
g Group17448
f 771 772 774 773
g Group17453
f 713 712 771 773
g Group17433
f 583 584 774 772
g Group17448
f 773 774 776 775
g Group17453
f 714 713 773 775
g Group17433
f 584 585 776 774
g Group17448
f 775 776 778 777
g Group17453
f 715 714 775 777
g Group17433
f 585 586 778 776
g Group17448
f 777 778 780 779
g Group17453
f 716 715 777 779
g Group17433
f 586 587 780 778
g Group17448
f 779 780 719 720
g Group17453
f 685 716 779 720
g Group17433
f 587 556 719 780
g Group17458
f 781 782 783
f 781 783 784
f 781 784 785
f 781 785 786
f 781 786 787
f 781 787 788
f 781 788 789
f 781 789 790
f 781 790 791
f 781 791 792
f 781 792 793
f 781 793 794
f 781 794 795
f 781 795 796
f 781 796 797
f 781 797 798
f 781 798 799
f 781 799 800
f 781 800 801
f 781 801 802
f 781 802 803
f 781 803 804
f 781 804 805
f 781 805 806
f 781 806 807
f 781 807 808
f 781 808 809
f 781 809 810
f 781 810 811
f 781 811 812
f 781 812 813
f 781 813 782
g Group17463
f 814 846 847 815
f 815 847 848 816
f 816 848 849 817
f 817 849 850 818
f 818 850 851 819
f 819 851 852 820
f 820 852 853 821
f 821 853 854 822
f 822 854 855 823
f 823 855 856 824
f 824 856 857 825
f 825 857 858 826
f 826 858 859 827
f 827 859 860 828
f 828 860 861 829
f 829 861 862 830
f 830 862 863 831
f 831 863 864 832
f 832 864 865 833
f 833 865 866 834
f 834 866 867 835
f 835 867 868 836
f 836 868 869 837
f 837 869 870 838
f 838 870 871 839
f 839 871 872 840
f 840 872 873 841
f 841 873 874 842
f 842 874 875 843
f 843 875 876 844
f 844 876 877 845
f 845 877 846 814
f 846 878 879 847
f 847 879 880 848
f 848 880 881 849
f 849 881 882 850
f 850 882 883 851
f 851 883 884 852
f 852 884 885 853
f 853 885 886 854
f 854 886 887 855
f 855 887 888 856
f 856 888 889 857
f 857 889 890 858
f 858 890 891 859
f 859 891 892 860
f 860 892 893 861
f 861 893 894 862
f 862 894 895 863
f 863 895 896 864
f 864 896 897 865
f 865 897 898 866
f 866 898 899 867
f 867 899 900 868
f 868 900 901 869
f 869 901 902 870
f 870 902 903 871
f 871 903 904 872
f 872 904 905 873
f 873 905 906 874
f 874 906 907 875
f 875 907 908 876
f 876 908 909 877
f 877 909 878 846
f 878 910 911 879
f 879 911 912 880
f 880 912 913 881
f 881 913 914 882
f 882 914 915 883
f 883 915 916 884
f 884 916 917 885
f 885 917 918 886
f 886 918 919 887
f 887 919 920 888
f 888 920 921 889
f 889 921 922 890
f 890 922 923 891
f 891 923 924 892
f 892 924 925 893
f 893 925 926 894
f 894 926 927 895
f 895 927 928 896
f 896 928 929 897
f 897 929 930 898
f 898 930 931 899
f 899 931 932 900
f 900 932 933 901
f 901 933 934 902
f 902 934 935 903
f 903 935 936 904
f 904 936 937 905
f 905 937 938 906
f 906 938 939 907
f 907 939 940 908
f 908 940 941 909
f 909 941 910 878
f 910 942 943 911
f 911 943 944 912
f 912 944 945 913
f 913 945 946 914
f 914 946 947 915
f 915 947 948 916
f 916 948 949 917
f 917 949 950 918
f 918 950 951 919
f 919 951 952 920
f 920 952 953 921
f 921 953 954 922
f 922 954 955 923
f 923 955 956 924
f 924 956 957 925
f 925 957 958 926
f 926 958 959 927
f 927 959 960 928
f 928 960 961 929
f 929 961 962 930
f 930 962 963 931
f 931 963 964 932
f 932 964 965 933
f 933 965 966 934
f 934 966 967 935
f 935 967 968 936
f 936 968 969 937
f 937 969 970 938
f 938 970 971 939
f 939 971 972 940
f 940 972 973 941
f 941 973 942 910
f 942 974 975 943
f 943 975 976 944
f 944 976 977 945
f 945 977 978 946
f 946 978 979 947
f 947 979 980 948
f 948 980 981 949
f 949 981 982 950
f 950 982 983 951
f 951 983 984 952
f 952 984 985 953
f 953 985 986 954
f 954 986 987 955
f 955 987 988 956
f 956 988 989 957
f 957 989 990 958
f 958 990 991 959
f 959 991 992 960
f 960 992 993 961
f 961 993 994 962
f 962 994 995 963
f 963 995 996 964
f 964 996 997 965
f 965 997 998 966
f 966 998 999 967
f 967 999 1000 968
f 968 1000 1001 969
f 969 1001 1002 970
f 970 1002 1003 971
f 971 1003 1004 972
f 972 1004 1005 973
f 973 1005 974 942
f 974 1006 1007 975
f 975 1007 1008 976
f 976 1008 1009 977
f 977 1009 1010 978
f 978 1010 1011 979
f 979 1011 1012 980
f 980 1012 1013 981
f 981 1013 1014 982
f 982 1014 1015 983
f 983 1015 1016 984
f 984 1016 1017 985
f 985 1017 1018 986
f 986 1018 1019 987
f 987 1019 1020 988
f 988 1020 1021 989
f 989 1021 1022 990
f 990 1022 1023 991
f 991 1023 1024 992
f 992 1024 1025 993
f 993 1025 1026 994
f 994 1026 1027 995
f 995 1027 1028 996
f 996 1028 1029 997
f 997 1029 1030 998
f 998 1030 1031 999
f 999 1031 1032 1000
f 1000 1032 1033 1001
f 1001 1033 1034 1002
f 1002 1034 1035 1003
f 1003 1035 1036 1004
f 1004 1036 1037 1005
f 1005 1037 1006 974
f 1006 1038 1039 1007
f 1007 1039 1040 1008
f 1008 1040 1041 1009
f 1009 1041 1042 1010
f 1010 1042 1043 1011
f 1011 1043 1044 1012
f 1012 1044 1045 1013
f 1013 1045 1046 1014
f 1014 1046 1047 1015
f 1015 1047 1048 1016
f 1016 1048 1049 1017
f 1017 1049 1050 1018
f 1018 1050 1051 1019
f 1019 1051 1052 1020
f 1020 1052 1053 1021
f 1021 1053 1054 1022
f 1022 1054 1055 1023
f 1023 1055 1056 1024
f 1024 1056 1057 1025
f 1025 1057 1058 1026
f 1026 1058 1059 1027
f 1027 1059 1060 1028
f 1028 1060 1061 1029
f 1029 1061 1062 1030
f 1030 1062 1063 1031
f 1031 1063 1064 1032
f 1032 1064 1065 1033
f 1033 1065 1066 1034
f 1034 1066 1067 1035
f 1035 1067 1068 1036
f 1036 1068 1069 1037
f 1037 1069 1038 1006
f 1038 1070 1071 1039
f 1039 1071 1072 1040
f 1040 1072 1073 1041
f 1041 1073 1074 1042
f 1042 1074 1075 1043
f 1043 1075 1076 1044
f 1044 1076 1077 1045
f 1045 1077 1078 1046
f 1046 1078 1079 1047
f 1047 1079 1080 1048
f 1048 1080 1081 1049
f 1049 1081 1082 1050
f 1050 1082 1083 1051
f 1051 1083 1084 1052
f 1052 1084 1085 1053
f 1053 1085 1086 1054
f 1054 1086 1087 1055
f 1055 1087 1088 1056
f 1056 1088 1089 1057
f 1057 1089 1090 1058
f 1058 1090 1091 1059
f 1059 1091 1092 1060
f 1060 1092 1093 1061
f 1061 1093 1094 1062
f 1062 1094 1095 1063
f 1063 1095 1096 1064
f 1064 1096 1097 1065
f 1065 1097 1098 1066
f 1066 1098 1099 1067
f 1067 1099 1100 1068
f 1068 1100 1101 1069
f 1069 1101 1070 1038
f 1070 1102 1103 1071
f 1071 1103 1104 1072
f 1072 1104 1105 1073
f 1073 1105 1106 1074
f 1074 1106 1107 1075
f 1075 1107 1108 1076
f 1076 1108 1109 1077
f 1077 1109 1110 1078
f 1078 1110 1111 1079
f 1079 1111 1112 1080
f 1080 1112 1113 1081
f 1081 1113 1114 1082
f 1082 1114 1115 1083
f 1083 1115 1116 1084
f 1084 1116 1117 1085
f 1085 1117 1118 1086
f 1086 1118 1119 1087
f 1087 1119 1120 1088
f 1088 1120 1121 1089
f 1089 1121 1122 1090
f 1090 1122 1123 1091
f 1091 1123 1124 1092
f 1092 1124 1125 1093
f 1093 1125 1126 1094
f 1094 1126 1127 1095
f 1095 1127 1128 1096
f 1096 1128 1129 1097
f 1097 1129 1130 1098
f 1098 1130 1131 1099
f 1099 1131 1132 1100
f 1100 1132 1133 1101
f 1101 1133 1102 1070
f 1102 1134 1135 1103
f 1103 1135 1136 1104
f 1104 1136 1137 1105
f 1105 1137 1138 1106
f 1106 1138 1139 1107
f 1107 1139 1140 1108
f 1108 1140 1141 1109
f 1109 1141 1142 1110
f 1110 1142 1143 1111
f 1111 1143 1144 1112
f 1112 1144 1145 1113
f 1113 1145 1146 1114
f 1114 1146 1147 1115
f 1115 1147 1148 1116
f 1116 1148 1149 1117
f 1117 1149 1150 1118
f 1118 1150 1151 1119
f 1119 1151 1152 1120
f 1120 1152 1153 1121
f 1121 1153 1154 1122
f 1122 1154 1155 1123
f 1123 1155 1156 1124
f 1124 1156 1157 1125
f 1125 1157 1158 1126
f 1126 1158 1159 1127
f 1127 1159 1160 1128
f 1128 1160 1161 1129
f 1129 1161 1162 1130
f 1130 1162 1163 1131
f 1131 1163 1164 1132
f 1132 1164 1165 1133
f 1133 1165 1134 1102
f 1134 1166 1167 1135
f 1135 1167 1168 1136
f 1136 1168 1169 1137
f 1137 1169 1170 1138
f 1138 1170 1171 1139
f 1139 1171 1172 1140
f 1140 1172 1173 1141
f 1141 1173 1174 1142
f 1142 1174 1175 1143
f 1143 1175 1176 1144
f 1144 1176 1177 1145
f 1145 1177 1178 1146
f 1146 1178 1179 1147
f 1147 1179 1180 1148
f 1148 1180 1181 1149
f 1149 1181 1182 1150
f 1150 1182 1183 1151
f 1151 1183 1184 1152
f 1152 1184 1185 1153
f 1153 1185 1186 1154
f 1154 1186 1187 1155
f 1155 1187 1188 1156
f 1156 1188 1189 1157
f 1157 1189 1190 1158
f 1158 1190 1191 1159
f 1159 1191 1192 1160
f 1160 1192 1193 1161
f 1161 1193 1194 1162
f 1162 1194 1195 1163
f 1163 1195 1196 1164
f 1164 1196 1197 1165
f 1165 1197 1166 1134
f 1166 1198 1199 1167
f 1167 1199 1200 1168
f 1168 1200 1201 1169
f 1169 1201 1202 1170
f 1170 1202 1203 1171
f 1171 1203 1204 1172
f 1172 1204 1205 1173
f 1173 1205 1206 1174
f 1174 1206 1207 1175
f 1175 1207 1208 1176
f 1176 1208 1209 1177
f 1177 1209 1210 1178
f 1178 1210 1211 1179
f 1179 1211 1212 1180
f 1180 1212 1213 1181
f 1181 1213 1214 1182
f 1182 1214 1215 1183
f 1183 1215 1216 1184
f 1184 1216 1217 1185
f 1185 1217 1218 1186
f 1186 1218 1219 1187
f 1187 1219 1220 1188
f 1188 1220 1221 1189
f 1189 1221 1222 1190
f 1190 1222 1223 1191
f 1191 1223 1224 1192
f 1192 1224 1225 1193
f 1193 1225 1226 1194
f 1194 1226 1227 1195
f 1195 1227 1228 1196
f 1196 1228 1229 1197
f 1197 1229 1198 1166
f 1198 1230 1231 1199
f 1199 1231 1232 1200
f 1200 1232 1233 1201
f 1201 1233 1234 1202
f 1202 1234 1235 1203
f 1203 1235 1236 1204
f 1204 1236 1237 1205
f 1205 1237 1238 1206
f 1206 1238 1239 1207
f 1207 1239 1240 1208
f 1208 1240 1241 1209
f 1209 1241 1242 1210
f 1210 1242 1243 1211
f 1211 1243 1244 1212
f 1212 1244 1245 1213
f 1213 1245 1246 1214
f 1214 1246 1247 1215
f 1215 1247 1248 1216
f 1216 1248 1249 1217
f 1217 1249 1250 1218
f 1218 1250 1251 1219
f 1219 1251 1252 1220
f 1220 1252 1253 1221
f 1221 1253 1254 1222
f 1222 1254 1255 1223
f 1223 1255 1256 1224
f 1224 1256 1257 1225
f 1225 1257 1258 1226
f 1226 1258 1259 1227
f 1227 1259 1260 1228
f 1228 1260 1261 1229
f 1229 1261 1230 1198
g Group17468
f 1230 1262 1231
f 1231 1262 1232
f 1232 1262 1233
f 1233 1262 1234
f 1234 1262 1235
f 1235 1262 1236
f 1236 1262 1237
f 1237 1262 1238
f 1238 1262 1239
f 1239 1262 1240
f 1240 1262 1241
f 1241 1262 1242
f 1242 1262 1243
f 1243 1262 1244
f 1244 1262 1245
f 1245 1262 1246
f 1246 1262 1247
f 1247 1262 1248
f 1248 1262 1249
f 1249 1262 1250
f 1250 1262 1251
f 1251 1262 1252
f 1252 1262 1253
f 1253 1262 1254
f 1254 1262 1255
f 1255 1262 1256
f 1256 1262 1257
f 1257 1262 1258
f 1258 1262 1259
f 1259 1262 1260
f 1260 1262 1261
f 1261 1262 1230
g Group17463
f 1263 814 815 1264
f 1264 815 816 1265
f 1265 816 817 1266
f 1266 817 818 1267
f 1267 818 819 1268
f 1268 819 820 1269
f 1269 820 821 1270
f 1270 821 822 1271
f 1271 822 823 1272
f 1272 823 824 1273
f 1273 824 825 1274
f 1274 825 826 1275
f 1275 826 827 1276
f 1276 827 828 1277
f 1277 828 829 1278
f 1278 829 830 1279
f 1279 830 831 1280
f 1280 831 832 1281
f 1281 832 833 1282
f 1282 833 834 1283
f 1283 834 835 1284
f 1284 835 836 1285
f 1285 836 837 1286
f 1286 837 838 1287
f 1287 838 839 1288
f 1288 839 840 1289
f 1289 840 841 1290
f 1290 841 842 1291
f 1291 842 843 1292
f 1292 843 844 1293
f 1293 844 845 1294
f 1294 845 814 1263
g Group17458
f 1298 1297 1296 1295
f 783 782 1298 1295
g Group17463
f 1263 1264 1296 1297
g Group17458
f 1295 1296 1300 1299
f 784 783 1295 1299
g Group17463
f 1264 1265 1300 1296
g Group17458
f 1299 1300 1302 1301
f 785 784 1299 1301
g Group17463
f 1265 1266 1302 1300
g Group17458
f 1301 1302 1304 1303
f 786 785 1301 1303
g Group17463
f 1266 1267 1304 1302
g Group17458
f 1303 1304 1306 1305
f 787 786 1303 1305
g Group17463
f 1267 1268 1306 1304
g Group17458
f 1305 1306 1308 1307
f 788 787 1305 1307
g Group17463
f 1268 1269 1308 1306
g Group17458
f 1307 1308 1310 1309
f 789 788 1307 1309
g Group17463
f 1269 1270 1310 1308
g Group17458
f 1309 1310 1312 1311
f 790 789 1309 1311
g Group17463
f 1270 1271 1312 1310
g Group17458
f 1311 1312 1314 1313
f 791 790 1311 1313
g Group17463
f 1271 1272 1314 1312
g Group17458
f 1313 1314 1316 1315
f 792 791 1313 1315
g Group17463
f 1272 1273 1316 1314
g Group17458
f 1315 1316 1318 1317
f 793 792 1315 1317
g Group17463
f 1273 1274 1318 1316
g Group17458
f 1317 1318 1320 1319
f 794 793 1317 1319
g Group17463
f 1274 1275 1320 1318
g Group17458
f 1319 1320 1322 1321
f 795 794 1319 1321
g Group17463
f 1275 1276 1322 1320
g Group17458
f 1321 1322 1324 1323
f 796 795 1321 1323
g Group17463
f 1276 1277 1324 1322
g Group17458
f 1323 1324 1326 1325
f 797 796 1323 1325
g Group17463
f 1277 1278 1326 1324
g Group17458
f 1325 1326 1328 1327
f 798 797 1325 1327
g Group17463
f 1278 1279 1328 1326
g Group17458
f 1327 1328 1330 1329
f 799 798 1327 1329
g Group17463
f 1279 1280 1330 1328
g Group17458
f 1329 1330 1332 1331
f 800 799 1329 1331
g Group17463
f 1280 1281 1332 1330
g Group17458
f 1331 1332 1334 1333
f 801 800 1331 1333
g Group17463
f 1281 1282 1334 1332
g Group17458
f 1333 1334 1336 1335
f 802 801 1333 1335
g Group17463
f 1282 1283 1336 1334
g Group17458
f 1335 1336 1338 1337
f 803 802 1335 1337
g Group17463
f 1283 1284 1338 1336
g Group17458
f 1337 1338 1340 1339
f 804 803 1337 1339
g Group17463
f 1284 1285 1340 1338
g Group17458
f 1339 1340 1342 1341
f 805 804 1339 1341
g Group17463
f 1285 1286 1342 1340
g Group17458
f 1341 1342 1344 1343
f 806 805 1341 1343
g Group17463
f 1286 1287 1344 1342
g Group17458
f 1343 1344 1346 1345
f 807 806 1343 1345
g Group17463
f 1287 1288 1346 1344
g Group17458
f 1345 1346 1348 1347
f 808 807 1345 1347
g Group17463
f 1288 1289 1348 1346
g Group17458
f 1347 1348 1350 1349
f 809 808 1347 1349
g Group17463
f 1289 1290 1350 1348
g Group17458
f 1349 1350 1352 1351
f 810 809 1349 1351
g Group17463
f 1290 1291 1352 1350
g Group17458
f 1351 1352 1354 1353
f 811 810 1351 1353
g Group17463
f 1291 1292 1354 1352
g Group17458
f 1353 1354 1356 1355
f 812 811 1353 1355
g Group17463
f 1292 1293 1356 1354
g Group17458
f 1355 1356 1358 1357
f 813 812 1355 1357
g Group17463
f 1293 1294 1358 1356
g Group17458
f 1357 1358 1297 1298
f 782 813 1357 1298
g Group17463
f 1294 1263 1297 1358

 