# File exported by ZBrush version 2021
# www.zbrush.com
#Vertex Count 1610
#Face Count 1608
#Auto scale x=0.559301 y=0.559301 z=0.559301
#Auto offset x=4.142220 y=0.137334 z=0.043944
v -7.61582745 -1.65372185 -0.02982505
v -7.46564772 -1.65540843 -0.02595865
v -7.58648794 -1.31585373 -0.02983809
v -7.43928236 -1.32399503 -0.02595892
v -7.28916897 -1.32913831 -0.02595856
v -7.55221722 -1.10921908 -0.02983805
v -7.4136106 -1.11772821 -0.02595888
v -7.27706982 -1.12143423 -0.02595847
v -7.13706565 -1.12179955 -0.02595843
v -7.13950437 -1.3323889 -0.02595978
v -7.39756714 -0.92682231 -0.02595926
v -7.27182366 -0.92867002 -0.02595851
v -7.14208213 -0.92600359 -0.02595916
v -7.26925532 -0.71685383 -0.02595859
v -7.14526772 -0.71546496 -0.02596231
v -7.15201663 -0.5026317 -0.02596303
v -7.44322788 0.46683889 -0.03235789
v -7.58672351 0.47387139 -0.03604979
v -7.43867942 0.37847977 -0.02600598
v -7.57645141 0.38381732 -0.03010142
v -7.55607355 0.26465593 -0.02996638
v -7.16026922 -1.67326794 -0.02596154
v -7.31136297 -1.66262161 -0.02595877
v -7.32370595 -2.00527099 -0.02595873
v -7.44516872 -1.99523616 -0.02595888
v -7.56809341 -1.99608243 -0.0298869
v -7.4592701 -2.22154159 -0.0259593
v -7.56138201 -2.21640833 -0.02994226
v -7.60115555 -2.40058178 -0.03004089
v -7.51298082 -0.71258939 -0.02986005
v -7.5275238 -0.91938784 -0.02984815
v -7.51146545 -0.50045389 -0.02983995
v -7.39017937 -0.50233152 -0.02595913
v -7.38912259 -0.71603223 -0.02595898
v -7.51641543 -0.28882382 -0.0298348
v -7.39691674 -0.28935963 -0.02595884
v -7.28118355 -0.28969212 -0.02595908
v -7.27259743 -0.50304631 -0.02595902
v -7.52497514 -0.07730029 -0.02985179
v -7.40506638 -0.07610828 -0.02595885
v -7.28829307 -0.07617234 -0.0259591
v -7.16966762 -0.07734448 -0.02596269
v -7.16362854 -0.28985184 -0.02596247
v -7.41563603 0.12152545 -0.02595954
v -7.29396177 0.12132425 -0.02595925
v -7.17120097 0.11823204 -0.02596523
v -7.2963481 0.26228918 -0.02596017
v -7.16678002 0.26158587 -0.02597033
v -7.15451852 0.37845297 -0.02600529
v -7.14811244 0.4613352 -0.03231207
v -7.29579223 0.37600335 -0.02599541
v -7.29584128 0.46201011 -0.03231241
v -7.42721974 0.26343747 -0.02596134
v -7.53888251 0.1184025 -0.02990214
v -7.2008428 -2.023158 -0.02596027
v -7.26137333 -2.25527714 -0.02596795
v -7.36106413 -2.23476435 -0.0259597
v -7.36358867 -2.45632806 -0.0263249
v -7.44471505 -2.43462361 -0.02612457
v -7.5239325 -2.41819842 -0.02603304
v -7.57377359 -2.61932074 -0.0308361
v -7.62998878 -2.59816726 -0.0302824
v -7.64786732 -2.52209256 -0.03329016
v -7.50763152 -2.63272852 -0.03203275
v -7.61548291 -1.65370928 -0.11939061
v -7.46559017 -1.65540534 -0.12286051
v -7.586094 -1.31591917 -0.11940378
v -7.43921674 -1.32400665 -0.12286077
v -7.28923368 -1.32911998 -0.12286043
v -7.41353683 -1.11774078 -0.12286093
v -7.55178414 -1.10929059 -0.11940362
v -7.27709457 -1.12142869 -0.12286024
v -7.14000607 -1.33225324 -0.12286165
v -7.13726171 -1.12175223 -0.12286035
v -7.27186457 -0.92868579 -0.12286037
v -7.39748871 -0.92682919 -0.12286111
v -7.142415 -0.92612407 -0.12286085
v -7.14606742 -0.71561522 -0.12286453
v -7.26935766 -0.71687541 -0.12286096
v -7.1530964 -0.50268389 -0.122865
v -7.57526344 0.38341694 -0.11966645
v -7.43844412 0.3779133 -0.12290787
v -7.44301044 0.4659209 -0.11714623
v -7.58571749 0.47320714 -0.11441896
v -7.55497839 0.26461544 -0.11953125
v -7.16115287 -1.67322478 -0.12286394
v -7.3114765 -1.66261575 -0.12286069
v -7.44510073 -1.99523157 -0.1228608
v -7.32378114 -2.00526321 -0.12286045
v -7.56769878 -1.99604705 -0.11945226
v -7.56089275 -2.21639341 -0.11950818
v -7.45925689 -2.22142607 -0.12286165
v -7.60206331 -2.39747377 -0.11890771
v -7.5270655 -0.91943451 -0.11941328
v -7.51252217 -0.71260345 -0.11942521
v -7.51099441 -0.50045964 -0.1194053
v -7.38904458 -0.71603666 -0.12286116
v -7.39010093 -0.5023308 -0.12286121
v -7.51588214 -0.28882521 -0.11939996
v -7.3968285 -0.28936049 -0.12286085
v -7.27273422 -0.50305321 -0.12286099
v -7.28132294 -0.2896951 -0.12286083
v -7.40496152 -0.07610574 -0.12286088
v -7.52432889 -0.0773069 -0.1194173
v -7.28843076 -0.07617147 -0.12286085
v -7.16470612 -0.28987583 -0.12286383
v -7.17072482 -0.07736537 -0.12286421
v -7.29411437 0.12131572 -0.12286124
v -7.41549361 0.12152076 -0.12286129
v -7.17234638 0.11818563 -0.12286676
v -7.16806662 0.26156429 -0.12287263
v -7.2965182 0.26222102 -0.12286217
v -7.15566569 0.37830127 -0.12290735
v -7.14891547 0.46103686 -0.11710115
v -7.29591929 0.46120422 -0.11710069
v -7.29592781 0.37550802 -0.12289731
v -7.42702282 0.26336303 -0.12286307
v -7.53803768 0.11840466 -0.11946695
v -7.20142435 -2.0231141 -0.12286235
v -7.26198163 -2.25460639 -0.12286999
v -7.36125953 -2.23446319 -0.12286205
v -7.44621609 -2.43222664 -0.12302083
v -7.3662235 -2.45161661 -0.12320539
v -7.5247532 -2.41671028 -0.12281809
v -7.63310627 -2.59326803 -0.11914141
v -7.57813704 -2.61451423 -0.12035524
v -7.65486123 -2.50848422 -0.11403332
v -7.5148787 -2.6250412 -0.12144762
v -7.76021735 -2.00843878 -0.07746895
v -7.83183072 -1.65528161 -0.07675819
v -7.00340225 -1.12151586 -0.07494531
v -7.00734494 -0.92300402 -0.07498413
v -7.02013716 -0.71322934 -0.07544431
v -7.03711297 -0.50164377 -0.07549701
v -7.44361488 0.47869858 -0.0752115
v -7.58746952 0.48605877 -0.07566979
v -7.7590543 0.38482548 -0.07917823
v -7.74350706 0.26477513 -0.07826516
v -7.78049627 0.48727069 -0.0797589
v -7.00627919 -1.33497951 -0.0751669
v -7.03142235 -1.68263714 -0.07546741
v -7.73348307 -2.21904849 -0.07808301
v -7.75294587 -2.42534606 -0.07904639
v -7.73565571 -0.90499605 -0.07698693
v -7.75780647 -1.09364879 -0.0768829
v -7.72184814 -0.70446412 -0.0771369
v -7.71408841 -0.4958721 -0.07690632
v -7.05453936 -0.07952074 -0.07544066
v -7.05695639 0.11314549 -0.075461
v -7.05536978 0.26122028 -0.07559154
v -7.04966147 0.37898987 -0.07557077
v -7.05735155 0.46669396 -0.07530512
v -7.14772842 0.47253953 -0.07515883
v -7.29591079 0.4735593 -0.07516014
v -7.73154991 0.11022198 -0.07761091
v -7.72275276 -0.08058018 -0.07705101
v -7.08999194 -2.04133126 -0.0752227
v -7.16561633 -2.27722158 -0.07502726
v -7.82370135 -2.88300386 -0.07648278
v -7.7606132 -2.85492589 -0.0768026
v -7.66870909 -2.80570552 -0.07742978
v -7.45125167 -2.65160759 -0.0758274
v -7.28574101 -2.48112815 -0.07519923
v -7.71590175 -0.28746644 -0.0768495
v -7.04813401 -0.28986679 -0.07545196
v -7.79326435 -1.30118407 -0.07689462
v -7.64974074 -0.28792831 -0.05694616
v -7.65723476 -0.07945835 -0.05708157
v -7.65691718 -0.07946562 -0.09528957
v -7.64947988 -0.287931 -0.09515423
v -7.76103836 -1.654665 -0.09509243
v -7.76120813 -1.65467139 -0.05688406
v -7.69021255 -1.0988542 -0.09517713
v -7.66668564 -0.90981312 -0.0952477
v -7.6669121 -0.90979122 -0.05703929
v -7.69042654 -1.09881935 -0.05696882
v -7.72566329 -1.30609289 -0.09518464
v -7.72585583 -1.30606102 -0.0569763
v -7.69936623 0.38461617 -0.09674638
v -7.71536943 0.47456239 -0.09479511
v -7.71586093 0.47482823 -0.06136318
v -7.7178913 0.48723392 -0.07829884
v -7.69994728 0.38477427 -0.0585381
v -7.68165546 0.26478153 -0.0961106
v -7.68219343 0.26479799 -0.05790239
v -7.57854648 -2.74467337 -0.07684898
v -7.60496708 -2.7251033 -0.05447092
v -7.67611559 -2.2178758 -0.09598509
v -7.69669738 -2.00406249 -0.09557078
v -7.69689144 -2.00407709 -0.0573626
v -7.67635942 -2.21787857 -0.05777662
v -7.69617071 -2.39169321 -0.09662311
v -7.6965713 -2.39211608 -0.05841335
v -7.61021234 -2.72774005 -0.09993443
v -7.68810278 -2.7631933 -0.05726157
v -7.69040826 -2.76210564 -0.09544691
v -7.75020644 -2.77593607 -0.05678382
v -7.75084714 -2.77506987 -0.09499151
v -7.71891491 -2.52121868 -0.05832025
v -7.71869958 -2.51881638 -0.09652995
v -7.65228389 -0.70722109 -0.09534785
v -7.65250894 -0.70721421 -0.05713987
v -7.64664893 -0.49743255 -0.09519269
v -7.64687952 -0.49742968 -0.05698468
v -7.66764578 0.11300972 -0.09566724
v -7.66805976 0.11300836 -0.05745932
v -7.11210328 -0.07843648 -0.05070169
v -7.16738273 -0.18294392 -0.02596237
v -7.10588122 -0.28985931 -0.0507073
v -7.05184434 -0.18379499 -0.07544305
v -7.10961335 -0.18336755 -0.05070281
v -7.5386927 -1.01584286 -0.02984147
v -7.48274734 -1.1139203 -0.02596056
v -7.40455435 -1.02408157 -0.0259591
v -7.4615163 -0.92361371 -0.02596154
v -7.4709852 -1.02045526 -0.02596107
v -7.10642012 -0.28987111 -0.09915803
v -7.16844124 -0.18296715 -0.12286375
v -7.11263186 -0.078443 -0.0991525
v -7.11014367 -0.18337703 -0.09915354
v -7.71895988 -0.18314201 -0.07690853
v -7.69386968 -0.28762046 -0.06703097
v -7.65302906 -0.18291746 -0.05698582
v -7.7009396 -0.08020615 -0.06721035
v -7.6970063 -0.18306174 -0.0670835
v -7.46122558 -0.92364307 -0.12286328
v -7.40447844 -1.02409137 -0.12286103
v -7.48247367 -1.1139656 -0.12286277
v -7.53824508 -1.01590339 -0.11940688
v -7.47070132 -1.02049458 -0.12286304
v -7.70078103 -0.08021169 -0.0863144
v -7.65274348 -0.18292034 -0.09519396
v -7.69373926 -0.28762159 -0.08613508
v -7.69686389 -0.18306301 -0.0861875
v -7.80821893 -1.655077 -0.08605372
v -7.73344998 -1.84060527 -0.09529687
v -7.73902827 -2.00697995 -0.08668688
v -7.80129914 -1.84381888 -0.07706255
v -7.77866806 -1.84274807 -0.08632469
v -7.73912504 -2.00698645 -0.06758285
v -7.73362805 -1.84062179 -0.05708858
v -7.80830379 -1.65507977 -0.06694949
v -7.7787571 -1.84275553 -0.06722057
v -7.62101842 -1.1041811 -0.10902122
v -7.67722836 -1.00562814 -0.09519859
v -7.59608186 -0.91474373 -0.10905694
v -7.60734713 -1.010875 -0.10903229
v -7.59648045 -0.91470297 -0.0415019
v -7.67745051 -1.00559808 -0.05699022
v -7.62139477 -1.10411928 -0.04146587
v -7.6077376 -1.01082235 -0.04147703
v -7.82101979 -1.46609767 -0.07677425
v -7.77071547 -1.3028229 -0.08617531
v -7.75125365 -1.46858118 -0.09510337
v -7.79774999 -1.46692753 -0.08606812
v -7.75143071 -1.4685686 -0.05689493
v -7.77081082 -1.30280702 -0.06707114
v -7.79783828 -1.46691997 -0.06696392
v -7.51341253 -1.32028011 -0.12286227
v -7.45623288 -1.47879334 -0.12286064
v -7.5412021 -1.65400299 -0.12286121
v -7.60732192 -1.47365284 -0.1193926
v -7.53265301 -1.47615648 -0.12286165
v -7.60768477 -1.47362428 -0.02982697
v -7.54141982 -1.65401332 -0.02595909
v -7.45629219 -1.47879036 -0.02595878
v -7.51366148 -1.32023951 -0.02596011
v -7.53288165 -1.47613815 -0.02595949
v -7.73390769 -2.63522566 -0.0958734
v -7.78727443 -2.82903857 -0.08573707
v -7.77811475 -2.64080907 -0.0777568
v -7.74193299 -2.49232758 -0.08861948
v -7.76339265 -2.63878659 -0.08697974
v -7.74205656 -2.49358873 -0.06792252
v -7.78695382 -2.82946378 -0.06663314
v -7.73374784 -2.63717909 -0.0576645
v -7.76331251 -2.63976511 -0.06787525
v -7.72593163 -2.38732747 -0.08878482
v -7.70695009 -2.44929829 -0.09673628
v -7.72531725 -2.4334345 -0.09105379
v -7.72614791 -2.38760114 -0.06808795
v -7.70733316 -2.45085421 -0.0585262
v -7.72557281 -2.43446781 -0.06558048
v -7.72225071 -2.76958344 -0.09517277
v -7.72551126 -2.80851555 -0.08612463
v -7.79472958 -2.87065262 -0.07659966
v -7.75849038 -2.82011995 -0.08588636
v -7.72435759 -2.80906183 -0.06703193
v -7.72088293 -2.77114512 -0.05697393
v -7.75780583 -2.82090281 -0.06678679
v -7.56765709 -1.20188 -0.11940511
v -7.42505109 -1.21068385 -0.12286088
v -7.49669819 -1.20672233 -0.12286256
v -7.42512052 -1.21067053 -0.0259589
v -7.56807354 -1.20180434 -0.0298393
v -7.4969611 -1.20667416 -0.02596033
v -7.34542593 -1.12014969 -0.12286024
v -7.2817773 -1.21508156 -0.12286035
v -7.36431092 -1.32690162 -0.12286029
v -7.35352303 -1.21338976 -0.12286024
v -7.36431134 -1.3269013 -0.02595844
v -7.28173803 -1.21509638 -0.0259585
v -7.34542926 -1.12014884 -0.02595839
v -7.35352522 -1.21338934 -0.02595842
v -7.20749469 -1.12181362 -0.12286024
v -7.13689346 -1.21653443 -0.12286075
v -7.21452696 -1.330817 -0.12286097
v -7.20947477 -1.21600126 -0.12286051
v -7.21427466 -1.33088552 -0.02595906
v -7.13658691 -1.21664707 -0.0259589
v -7.20739668 -1.12183744 -0.02595847
v -7.20932002 -1.21605806 -0.02595868
v -7.33478129 -0.92845113 -0.12286027
v -7.2739912 -1.02685281 -0.12286024
v -7.33933524 -1.02613884 -0.12286024
v -7.2739665 -1.02684625 -0.02595848
v -7.3347856 -0.92845054 -0.02595844
v -7.33933953 -1.02613794 -0.02595843
v -7.20750109 -0.92770748 -0.12286061
v -7.13959556 -1.02548658 -0.12286019
v -7.20716477 -1.02644907 -0.12286022
v -7.13938754 -1.02544523 -0.02595844
v -7.2073344 -0.92764764 -0.02595877
v -7.20706027 -1.02642775 -0.02595847
v -7.07487998 -0.92456404 -0.09892238
v -7.00450163 -1.02358596 -0.07491196
v -7.07033201 -1.12163437 -0.09890276
v -7.07204858 -1.02453614 -0.09888613
v -7.09565283 0.47625397 -0.07521854
v -7.10097229 0.46401032 -0.09720498
v -7.14794625 0.47244394 -0.09914386
v -7.11315619 0.47495462 -0.09118878
v -7.07023431 -1.12165824 -0.05045182
v -7.07471374 -0.92450484 -0.05047151
v -7.07194462 -1.02451568 -0.0504353
v -7.27010958 -0.82425923 -0.12286067
v -7.20803783 -0.71638919 -0.12286245
v -7.14423828 -0.82205473 -0.12286269
v -7.20752413 -0.82339362 -0.12286163
v -7.14368068 -0.82189951 -0.02596072
v -7.20763542 -0.71631432 -0.02596016
v -7.27003879 -0.82423952 -0.0259585
v -7.20724367 -0.82331561 -0.02595944
v -7.08310257 -0.71442143 -0.09915453
v -7.01277017 -0.81898173 -0.07521476
v -7.07850387 -0.82051922 -0.0990387
v -7.22183704 0.47274628 -0.07515587
v -7.22237715 0.46077699 -0.11709771
v -7.29592955 0.47331381 -0.09914522
v -7.22194236 0.47256335 -0.09914089
v -7.08270272 -0.71434518 -0.05070339
v -7.07822503 -0.82044062 -0.05058774
v -7.14890692 -0.60912585 -0.12286524
v -7.09510487 -0.50216514 -0.09918105
v -7.02880692 -0.60745185 -0.07551288
v -7.08885729 -0.60828991 -0.09918908
v -7.36991498 0.47559787 -0.07517903
v -7.3696209 0.46297467 -0.117117
v -7.44355184 0.47841889 -0.09919654
v -7.36989966 0.47531962 -0.09916388
v -7.09456523 -0.50213604 -0.05073008
v -7.14792981 -0.6090241 -0.02596297
v -7.0883684 -0.60823897 -0.050738
v -7.5156158 0.46985397 -0.11718805
v -7.44151084 0.42898537 -0.12302556
v -7.50820453 0.38081104 -0.12292512
v -7.58186946 0.43567407 -0.11982059
v -7.51307134 0.4325503 -0.12305566
v -7.51627828 0.47067573 -0.03239941
v -7.44367714 0.4789795 -0.05074614
v -7.51677447 0.48270331 -0.07525711
v -7.58775809 0.48626328 -0.05305676
v -7.51696458 0.48295988 -0.05079162
v -7.58304301 0.43627854 -0.03025567
v -7.5089756 0.38130979 -0.02602339
v -7.44175507 0.42983122 -0.02612414
v -7.51383992 0.43330971 -0.0261542
v -7.6383161 0.3844219 -0.10984669
v -7.70849227 0.43695563 -0.09699721
v -7.651599 0.47441719 -0.10601548
v -7.64627852 0.43680952 -0.11004421
v -7.65246733 0.47489414 -0.04690522
v -7.65377689 0.48719667 -0.07680412
v -7.71803211 0.48731816 -0.06865228
v -7.65402669 0.48734976 -0.05974795
v -7.70906604 0.43720442 -0.05878918
v -7.63934474 0.38469914 -0.04229172
v -7.64729267 0.43724257 -0.04248937
v -7.73910961 0.38474283 -0.08821833
v -7.69023618 0.32780749 -0.09642679
v -7.72284531 0.26477529 -0.08739747
v -7.75063442 0.32816727 -0.07873025
v -7.73045398 0.32804115 -0.08781307
v -7.72311384 0.26478408 -0.06829341
v -7.69080617 0.32788081 -0.05821851
v -7.73940025 0.38482564 -0.06911417
v -7.73073916 0.32807802 -0.068709
v -7.21884933 -2.38153752 -0.07506007
v -7.21349526 -2.26624744 -0.05049762
v -7.30601663 -2.35748086 -0.02598046
v -7.32466513 -2.46872598 -0.05076206
v -7.26243252 -2.36950642 -0.0505204
v -7.04338954 -0.39579916 -0.07547341
v -7.15897692 -0.39635836 -0.12286442
v -7.10118322 -0.39608139 -0.09916894
v -7.32598223 -2.46637227 -0.09920225
v -7.30722683 -2.35515913 -0.12288369
v -7.2137993 -2.26591217 -0.09894861
v -7.26303827 -2.36834652 -0.09897191
v -7.47944165 -2.64217018 -0.05393014
v -7.36802395 -2.57396034 -0.07545288
v -7.43631995 -2.55171408 -0.02732657
v -7.4021724 -2.56283742 -0.0513897
v -7.52097726 -2.70565877 -0.07633081
v -7.56094433 -2.68844645 -0.04349061
v -7.58719841 -2.7346153 -0.0665218
v -7.54096082 -2.69705559 -0.0599107
v -7.58718815 0.48585208 -0.09783906
v -7.51658813 0.48245128 -0.09924212
v -7.65207475 -2.75062508 -0.09590634
v -7.645416 -2.77478043 -0.08607569
v -7.71620974 -2.83243943 -0.0771769
v -7.68414152 -2.7915281 -0.08654176
v -7.44959419 -0.71461267 -0.02596099
v -7.51873096 -0.81756648 -0.02985665
v -7.39226211 -0.8230429 -0.02595914
v -7.45418052 -0.82072751 -0.02596134
v -7.7596281 0.48725444 -0.07927213
v -7.71775359 0.48715122 -0.08775623
v -7.75339975 0.474651 -0.08780372
v -7.74562393 0.48719135 -0.08525251
v -7.0731425 -1.33361638 -0.09901428
v -7.00320742 -1.21758201 -0.07503055
v -7.07005069 -1.21705811 -0.09894554
v -7.39218371 -0.82304562 -0.12286113
v -7.51827096 -0.81759696 -0.11942172
v -7.44930304 -0.71462338 -0.12286291
v -7.45388896 -0.820746 -0.12286312
v -7.07289176 -1.33368351 -0.05056336
v -7.06989712 -1.2171146 -0.05049462
v -7.0149787 -1.4969033 -0.07535349
v -7.09628812 -1.67793091 -0.0991658
v -7.14811564 -1.4913315 -0.12286299
v -7.08154702 -1.49411681 -0.09910824
v -7.32938038 -0.71677135 -0.02595818
v -7.3312965 -0.82418 -0.0259583
v -7.14737216 -1.49142816 -0.02596091
v -7.09584591 -1.67795361 -0.0507146
v -7.08117523 -1.49416541 -0.05065718
v -7.23593762 -1.66770318 -0.12286211
v -7.30065803 -1.48485291 -0.12286061
v -7.22407903 -1.48806951 -0.12286171
v -7.30056246 -1.48486442 -0.02595866
v -7.23549397 -1.66772397 -0.02595996
v -7.2237038 -1.48811853 -0.02595962
v -7.64321277 -2.77269315 -0.06859395
v -7.6484088 -2.74893488 -0.05774419
v -7.68230868 -2.79068748 -0.06746067
v -7.62530621 -2.77723644 -0.07726799
v -7.58979914 -2.73619126 -0.08766097
v -7.6203685 -2.76387641 -0.08366474
v -7.17905059 -1.85738225 -0.12286301
v -7.26269517 -2.01366028 -0.12286129
v -7.31711402 -1.84274455 -0.12286056
v -7.24791736 -1.84966009 -0.12286168
v -7.31701512 -1.84274722 -0.02595876
v -7.26240199 -2.01368405 -0.02595942
v -7.17827473 -1.85740964 -0.02596071
v -7.24752734 -1.84967554 -0.02595962
v -7.38449896 -1.99898284 -0.12286016
v -7.45678244 -1.83419274 -0.12286059
v -7.38852096 -1.65839409 -0.12286027
v -7.38697106 -1.83743577 -0.12286019
v -7.38852139 -1.65839494 -0.02595842
v -7.45684329 -1.83419903 -0.0259587
v -7.3845012 -1.99898379 -0.02595843
v -7.38697277 -1.83743716 -0.02595846
v -7.37847232 -1.48172615 -0.12286029
v -7.37847238 -1.48172679 -0.02595844
v -7.65645832 -1.31111617 -0.10902454
v -7.70583705 -1.19093005 -0.09519091
v -7.63712113 -1.19653158 -0.10902802
v -7.7060411 -1.19089286 -0.05698262
v -7.65680017 -1.31105947 -0.041469
v -7.63748291 -1.19646583 -0.04147246
v -7.67465936 0.19379897 -0.05766258
v -7.73712307 0.19226775 -0.07791135
v -7.71042118 0.11115063 -0.0677097
v -7.71634175 0.1927755 -0.06797781
v -7.71021401 0.11114946 -0.08681368
v -7.67418065 0.19380198 -0.09587056
v -7.71610258 0.19277686 -0.08708189
v -7.50583789 -1.99442814 -0.12286232
v -7.59472027 -1.83471451 -0.11941665
v -7.52584197 -1.83347819 -0.12286155
v -7.59508261 -1.83474595 -0.02985122
v -7.50608929 -1.9944469 -0.02596036
v -7.52607115 -1.83349951 -0.02595948
v -7.44583808 -2.11857738 -0.12286113
v -7.50882521 -2.21794507 -0.12286524
v -7.55708266 -2.1170984 -0.11947889
v -7.50045441 -2.11669322 -0.12286359
v -7.55750585 -2.11710949 -0.02991338
v -7.5091066 -2.21800134 -0.02596268
v -7.44591236 -2.11858463 -0.02595902
v -7.5007251 -2.11670047 -0.02596153
v -7.61739563 -2.21667646 -0.1094276
v -7.67898882 -2.12268203 -0.0957675
v -7.63166971 -1.99958016 -0.10921766
v -7.61717066 -2.11941609 -0.10931726
v -7.63201361 -1.99960723 -0.04166254
v -7.67919594 -2.12268373 -0.05755933
v -7.61782825 -2.21668029 -0.04187195
v -7.61753854 -2.11942546 -0.04176209
v -7.72685484 0.01823789 -0.07730454
v -7.66224781 0.02054574 -0.05725253
v -7.70534904 0.01900916 -0.06743644
v -7.66188803 0.02054459 -0.09546042
v -7.7051691 0.019007 -0.08654037
v -7.7143404 -2.21865781 -0.08723425
v -7.6838678 -2.31104772 -0.09632151
v -7.73724242 -2.31089682 -0.07858205
v -7.71942287 -2.3109452 -0.0876793
v -7.68419918 -2.31107415 -0.05811222
v -7.71446236 -2.21865887 -0.06812999
v -7.71958886 -2.31095842 -0.06857475
v -7.44156575 -2.54423607 -0.12413566
v -7.48306545 -2.63832386 -0.09863769
v -7.40479493 -2.55910044 -0.09979425
v -7.32937824 -0.71677391 -0.12286043
v -7.33129351 -0.8241808 -0.12286037
v -7.54098645 -2.62585177 -0.03138483
v -7.40424252 -2.44497901 -0.02621598
v -7.5074755 -2.53085814 -0.02660465
v -7.47197685 -2.5408252 -0.02693579
v -7.51065725 -2.52682149 -0.1234786
v -7.40628568 -2.44149865 -0.12310518
v -7.54680027 -2.61959143 -0.12085677
v -7.47619079 -2.53514801 -0.12378041
v -7.56778772 -2.68604053 -0.11091433
v -7.54438252 -2.69584432 -0.0936227
v -7.63276525 -2.69456101 -0.04225261
v -7.59775736 -2.69208454 -0.04281843
v -7.65353473 0.48705057 -0.09352513
v -7.63654144 -2.69109003 -0.10976717
v -7.60303219 -2.68889724 -0.11029188
v -7.68464171 -2.67215639 -0.04179631
v -7.60542565 -2.61350075 -0.03048589
v -7.66416233 -2.69471916 -0.04189971
v -7.15787798 -0.39632807 -0.02596279
v -7.1006342 -0.39606655 -0.05071815
v -7.60830319 -2.61015829 -0.12003248
v -7.68697554 -2.66842218 -0.10887952
v -7.66658147 -2.6919575 -0.10943847
v -7.62593433 -2.47550723 -0.03010863
v -7.64727905 -2.3955325 -0.04219706
v -7.67771163 -2.52676266 -0.04221522
v -7.66387129 -2.46190465 -0.04227162
v -7.68388283 -2.51401946 -0.10696618
v -7.64766206 -2.39336209 -0.1092873
v -7.6318512 -2.46367179 -0.11687071
v -7.66756357 -2.45349288 -0.10795869
v -7.64150893 -2.56310108 -0.03017394
v -7.68689668 -2.60650337 -0.04197915
v -7.64835322 -2.55057528 -0.11693421
v -7.69154744 -2.59739015 -0.10766424
v -7.69864105 -0.70538249 -0.08639125
v -7.6583831 -0.80997493 -0.09531681
v -7.71264663 -0.90660371 -0.08625801
v -7.7279251 -0.80612301 -0.07709031
v -7.70472526 -0.80740819 -0.08634973
v -7.71276002 -0.9065922 -0.06715383
v -7.6586094 -0.80995974 -0.05710872
v -7.69875354 -0.70537929 -0.06728716
v -7.70483908 -0.80740142 -0.06724564
v -7.48543871 -2.3214029 -0.02595992
v -7.5777861 -2.31255505 -0.02998514
v -7.56137445 -2.40888592 -0.02600511
v -7.53035867 -2.31611107 -0.02596345
v -7.56228658 -2.40645847 -0.12244142
v -7.57714876 -2.31244912 -0.11955242
v -7.48562153 -2.32092355 -0.12286248
v -7.53008467 -2.31584273 -0.12286676
v -7.57426727 -2.51198504 -0.02625091
v -7.59904605 -2.49422922 -0.02612891
v -7.71696958 -0.60060121 -0.07703957
v -7.69158993 -0.49639001 -0.08618586
v -7.64835232 -0.6026667 -0.09528222
v -7.6940781 -0.60128918 -0.08630453
v -7.64857739 -0.60266105 -0.05707431
v -7.69170463 -0.49638862 -0.06708175
v -7.69419067 -0.60128739 -0.06720048
v -7.44921142 -0.50154762 -0.12286275
v -7.3885531 -0.60908556 -0.12286121
v -7.51048028 -0.60666659 -0.11941676
v -7.44808046 -0.60809366 -0.12286283
v -7.51094066 -0.60665707 -0.02985146
v -7.3886307 -0.6090842 -0.02595904
v -7.44950894 -0.50154794 -0.02596068
v -7.44837206 -0.60808876 -0.0259608
v -7.57761293 -0.49903075 -0.1090288
v -7.64723677 -0.39264668 -0.09515202
v -7.58148828 -0.28840607 -0.10900927
v -7.51291352 -0.3946667 -0.1193999
v -7.57888836 -0.39371334 -0.1090083
v -7.51340928 -0.39466158 -0.02983468
v -7.58195207 -0.28840576 -0.04145424
v -7.6474793 -0.39264402 -0.05694387
v -7.5780222 -0.49902564 -0.04147369
v -7.57931891 -0.39371077 -0.04145321
v -7.4550472 -0.28913499 -0.12286232
v -7.39308106 -0.39590395 -0.12286108
v -7.45168598 -0.39538361 -0.12286251
v -7.39316334 -0.39590311 -0.025959
v -7.45538396 -0.28913158 -0.02596032
v -7.45199928 -0.39538018 -0.02596049
v -7.33907232 -0.28954889 -0.1228604
v -7.27681291 -0.39645555 -0.12286093
v -7.33150029 -0.50284071 -0.12286051
v -7.33497363 -0.39626671 -0.12286045
v -7.33150201 -0.5028406 -0.0259585
v -7.27667266 -0.39645182 -0.0259591
v -7.33907232 -0.28954879 -0.02595846
v -7.33497492 -0.39626671 -0.02595851
v -7.5195456 -0.18248241 -0.1194049
v -7.4634824 -0.0765573 -0.12286245
v -7.40067953 -0.18226936 -0.12286083
v -7.45883813 -0.18233683 -0.12286229
v -7.40077458 -0.1822683 -0.02595876
v -7.46388908 -0.07655324 -0.02596036
v -7.52012748 -0.18247762 -0.02983957
v -7.45920515 -0.1823331 -0.0259602
v -7.34673259 -0.07597921 -0.12286035
v -7.28510831 -0.182434 -0.12286083
v -7.34290544 -0.18230027 -0.12286032
v -7.28497104 -0.18243155 -0.02595908
v -7.34673217 -0.07597881 -0.02595843
v -7.34290501 -0.18230027 -0.02595844
v -7.22968822 -0.07668769 -0.12286232
v -7.22312646 -0.28979666 -0.12286215
v -7.22688201 -0.18266974 -0.12286212
v -7.22258423 -0.28978463 -0.02596055
v -7.22915537 -0.07667683 -0.02596065
v -7.22634873 -0.18266419 -0.02596052
v -7.40999888 0.02762504 -0.12286101
v -7.35483234 0.12184434 -0.12286029
v -7.29154984 0.02757861 -0.12286099
v -7.35081293 0.02794113 -0.12286032
v -7.29140789 0.02758457 -0.02595914
v -7.35483319 0.12184442 -0.02595847
v -7.41011995 0.02763173 -0.02595916
v -7.35081291 0.02794275 -0.02595847
v -7.23326344 0.11995837 -0.12286351
v -7.17209872 0.02518203 -0.1228651
v -7.23191682 0.02654749 -0.12286267
v -7.17101213 0.02521411 -0.02596363
v -7.2326833 0.1199816 -0.02596181
v -7.23136865 0.02656574 -0.02596103
v -7.11465118 0.11566363 -0.09916369
v -7.05623849 0.02100631 -0.07543948
v -7.1141686 0.02309422 -0.09915228
v -7.11407868 0.11568502 -0.05071294
v -7.11362512 0.02311159 -0.05070157
v -7.29576963 0.19753896 -0.12286156
v -7.23208225 0.26185997 -0.12286665
v -7.17125087 0.19515608 -0.12286975
v -7.23342118 0.19647358 -0.12286505
v -7.17001807 0.19518113 -0.02596775
v -7.2314292 0.26190286 -0.02596446
v -7.29560508 0.1975473 -0.02595954
v -7.23279541 0.19648887 -0.02596306
v -7.11171795 0.26139239 -0.09923216
v -7.0567104 0.19224388 -0.07552609
v -7.11398018 0.19369776 -0.09919786
v -7.27011645 -0.60981938 -0.02595877
v -7.32954319 -0.60966893 -0.02595832
v -7.11107514 0.26140305 -0.05078099
v -7.11336426 0.1937106 -0.05074691
v -7.16204795 0.32288205 -0.12287459
v -7.10266337 0.37864368 -0.09923908
v -7.05280235 0.32299719 -0.07561304
v -7.10742534 0.32294268 -0.09924377
v -7.2702409 -0.60983283 -0.12286105
v -7.32954112 -0.60966735 -0.12286048
v -7.10209 0.37871923 -0.05078806
v -7.16080145 0.32295174 -0.0259723
v -7.10680169 0.32297252 -0.05079267
v -7.15138838 0.42700611 -0.12300254
v -7.04659908 0.43057327 -0.07544554
v -7.09899438 0.42879376 -0.09922404
v -7.21258371 -0.50292149 -0.02596071
v -7.20935632 -0.60953249 -0.02596055
v -7.1005528 0.46417566 -0.0527917
v -7.14750747 0.47262894 -0.05069291
v -7.11286376 0.47507909 -0.05888811
v -7.15036914 0.42726017 -0.02610063
v -7.09848455 0.4289209 -0.05077309
v -7.22555086 0.37651564 -0.12290096
v -7.29585022 0.42536701 -0.12299733
v -7.22347186 0.42579211 -0.1229976
v -7.22198372 0.46136898 -0.032309
v -7.29588905 0.47380984 -0.05069484
v -7.22172885 0.47292862 -0.05069034
v -7.29574021 0.42610969 -0.0260959
v -7.224977 0.37685447 -0.02599901
v -7.22296712 0.42632198 -0.02609597
v -7.36728916 0.37605776 -0.12289895
v -7.36881648 0.42651098 -0.12300636
v -7.36966907 0.46389224 -0.03232877
v -7.36992862 0.4758854 -0.05071362
v -7.36732282 0.37662732 -0.02599719
v -7.36886252 0.42735805 -0.026105
v -7.29636086 0.32133534 -0.12286309
v -7.22894017 0.32186611 -0.12286791
v -7.29620316 0.32158285 -0.02596111
v -7.22831054 0.32203918 -0.0259658
v -7.36179649 0.26273736 -0.12286075
v -7.43320219 0.3229941 -0.12286606
v -7.36484144 0.32175923 -0.12286205
v -7.43342083 0.32327971 -0.02596418
v -7.36180629 0.26280924 -0.02595884
v -7.36486194 0.32205357 -0.02596011
v -7.42114354 0.1981523 -0.12286179
v -7.35847663 0.19809925 -0.12286027
v -7.42131319 0.19815901 -0.02596009
v -7.35848047 0.19810658 -0.02595843
v -7.47617277 0.12033262 -0.1228641
v -7.54598139 0.19674299 -0.1194958
v -7.49130378 0.26406383 -0.12287029
v -7.48337371 0.19767897 -0.12286636
v -7.49200503 0.26412346 -0.02596861
v -7.54695838 0.19673862 -0.02993095
v -7.47670816 0.12033408 -0.02596256
v -7.48399609 0.19767995 -0.02596478
v -7.56551951 0.32662558 -0.11957905
v -7.50026466 0.32488002 -0.12287672
v -7.56668276 0.32681314 -0.03001402
v -7.50101489 0.3251239 -0.0259749
v -7.5306566 0.02501957 -0.11943931
v -7.46940131 0.02662515 -0.12286293
v -7.53139068 0.02502759 -0.02987415
v -7.46986511 0.02663093 -0.02596109
v -7.58953346 -0.07831656 -0.1090771
v -7.60225369 0.11585719 -0.10926757
v -7.59539996 0.02290983 -0.10916312
v -7.60298818 0.1158655 -0.0417129
v -7.59009573 -0.07831368 -0.04152199
v -7.5960385 0.02291665 -0.04160816
v -7.61838412 0.26479703 -0.10949511
v -7.60978265 0.19538017 -0.10937161
v -7.61933557 0.26481909 -0.04194034
v -7.61063182 0.19536813 -0.04181684
v -7.57647364 -2.50842774 -0.12268274
v -7.60348789 -2.48581467 -0.12116186
v -7.77296183 -1.18545566 -0.07690377
v -7.7353645 -1.09536958 -0.06706098
v -7.75067226 -1.18726501 -0.06707916
v -7.48482908 -2.42623443 -0.02606827
v -7.54265827 -2.52271748 -0.02639295
v -7.48588428 -2.42462608 -0.1229681
v -7.54480752 -2.52000272 -0.12328379
v -7.73525708 -1.09538695 -0.08616514
v -7.75056987 -1.18728355 -0.08618332
v -7.33762142 -2.13021716 -0.02595879
v -7.4101434 -2.22711882 -0.02595832
v -7.39178306 -2.12317097 -0.02595824
v -7.71400523 -0.39160477 -0.07684593
v -7.69184999 -0.39194978 -0.0670278
v -7.21312549 -0.5029448 -0.12286261
v -7.20984697 -0.60958186 -0.12286275
v -7.6917285 -0.39194939 -0.08613186
v -7.14570751 -2.03222444 -0.09904254
v -7.05772804 -1.87146077 -0.07538585
v -7.11838943 -1.86442161 -0.09912442
v -7.21749444 -0.39644138 -0.02596068
v -7.14541716 -2.03224266 -0.05059149
v -7.11800144 -1.86443845 -0.05067323
v -7.12430851 -2.17020303 -0.07509243
v -7.22789077 -2.1497235 -0.12286369
v -7.17609994 -2.15996486 -0.09897798
v -7.21804648 -0.39645405 -0.12286237
v -7.22742906 -2.14980705 -0.02596196
v -7.17586926 -2.16000685 -0.05052713
v -7.31175051 -2.24402485 -0.1228655
v -7.33768653 -2.13019861 -0.12286067
v -7.28294936 -2.13942224 -0.12286201
v -7.31137198 -2.24449973 -0.02596327
v -7.28271224 -2.13946167 -0.02596016
v -7.58146948 -0.71003517 -0.04155173
v -7.57850895 -0.60477295 -0.04151872
v -7.58107087 -0.71004705 -0.10910669
v -7.57810909 -0.60477955 -0.10907369
v -7.39692666 -2.33495199 -0.12286537
v -7.35216683 -2.34459251 -0.12287339
v -7.39633722 -2.33608014 -0.02596227
v -7.3512946 -2.34626459 -0.02597019
v -7.41024795 -2.22692614 -0.12286067
v -7.44132352 -2.32717516 -0.12286187
v -7.44090805 -2.32791987 -0.0259592
v -7.39178242 -2.12316884 -0.12286016
v -7.58547231 -0.18268031 -0.04147391
v -7.5849663 -0.18268522 -0.10902901
v -7.68856146 -1.65403027 -0.10897721
v -7.66398761 -1.83731652 -0.10907974
v -7.68886071 -1.65404146 -0.04142185
v -7.66430311 -1.83734551 -0.04152451
v -7.74549381 -1.00050021 -0.07691419
v -7.7227202 -1.00221246 -0.08619314
v -7.72283106 -1.00219701 -0.06708897
v -7.67982784 -1.47112298 -0.1089831
v -7.68014332 -1.4710991 -0.04142764
v -7.62983617 -2.31125639 -0.0420403
v -7.62924934 -2.31121035 -0.10959726
v -7.76931527 0.43713179 -0.07948107
v -7.74899322 0.43705623 -0.08850392
v -7.75365685 0.47479295 -0.07029194
v -7.74580977 0.48731028 -0.07251657
v -7.74927979 0.43717511 -0.06939987
v -7.62845708 0.32744825 -0.1096586
v -7.62946613 0.32757783 -0.04210368
v -7.61862321 -2.7619963 -0.07095327
v -7.73937697 -2.12586868 -0.07776072
v -7.71923067 -2.12480831 -0.08694684
v -7.71933431 -2.12481129 -0.06784275
v -7.58759213 -0.81389302 -0.04153644
v -7.58719227 -0.81391796 -0.10909142
v -7.87716576 0.44842538 0.0698426
v -7.87716576 0.49039734 0.0698426
v -7.87716576 0.53236931 0.0698426
v -7.72013247 0.44842532 0.0698426
v -7.72013247 0.49039734 0.0698426
v -7.72013255 0.53236936 0.0698426
v -7.56309908 0.44842532 0.0698426
v -7.56309913 0.49039745 0.0698426
v -7.56309908 0.53236936 0.0698426
v -7.40606351 0.44842532 0.0698426
v -7.40606356 0.49039745 0.0698426
v -7.40606354 0.53236936 0.0698426
v -7.249032 0.44842538 0.0698426
v -7.24903203 0.49039745 0.0698426
v -7.24903203 0.53236941 0.0698426
v -7.09199657 0.44842548 0.0698426
v -7.09199663 0.49039734 0.0698426
v -7.0919966 0.53236941 0.0698426
v -6.93496504 0.44842543 0.0698426
v -6.93496499 0.49039745 0.0698426
v -6.93496504 0.53236947 0.0698426
v -7.87716576 0.44842538 -0.2250523
v -7.24903203 0.53236941 -0.2250523
v -7.40606354 0.53236936 -0.2250523
v -7.249032 0.44842538 -0.2250523
v -7.09199657 0.44842548 -0.2250523
v -7.87716576 0.49039734 -0.2250523
v -7.87716576 0.53236931 -0.2250523
v -7.24903203 0.49039745 -0.2250523
v -7.40606356 0.49039745 -0.2250523
v -7.40606351 0.44842532 -0.2250523
v -7.72013247 0.44842532 -0.2250523
v -6.93496504 0.53236947 -0.2250523
v -7.0919966 0.53236941 -0.2250523
v -7.72013247 0.49039734 -0.2250523
v -7.72013255 0.53236936 -0.2250523
v -7.09199663 0.49039734 -0.2250523
v -6.93496499 0.49039745 -0.2250523
v -6.93496504 0.44842543 -0.2250523
v -7.56309908 0.44842532 -0.2250523
v -7.56309913 0.49039745 -0.2250523
v -7.56309908 0.53236936 -0.2250523
v -7.99943463 0.44842527 -0.2250523
v -7.99943463 0.44842527 0.0698426
v -7.99943463 0.49039729 -0.2250523
v -7.99943463 0.49039729 0.0698426
v -7.99943468 0.53236931 -0.2250523
v -7.99943468 0.53236931 0.0698426
v -8.03420114 0.44842527 0.01232616
v -7.99943463 0.40645325 0.01232616
v -7.40606354 0.57434138 0.01232616
v -7.24903203 0.57434143 0.01232616
v -7.09199657 0.40645341 0.01232616
v -7.24903201 0.4064533 0.01232616
v -8.03420114 0.49039734 0.01232616
v -8.03420114 0.53236936 0.01232616
v -7.99943468 0.57434138 0.01232616
v -7.87716576 0.57434143 0.01232616
v -7.72013247 0.4064533 0.01232616
v -7.87716571 0.4064532 0.01232616
v -6.93496504 0.57434143 0.01232616
v -6.77792961 0.53236957 0.01232616
v -7.09199652 0.57434149 0.01232616
v -7.72013244 0.57434133 0.01232616
v -7.56309909 0.4064533 0.01232616
v -6.93496499 0.40645341 0.01232616
v -7.56309915 0.57434138 0.01232616
v -6.77792972 0.49039745 0.01232616
v -6.77792956 0.44842543 0.01232616
v -7.40606354 0.40645336 0.01232616
v -8.03420114 0.44842527 -0.17465188
v -7.99943463 0.40645325 -0.17465188
v -7.40606354 0.57434138 -0.17465188
v -7.24903203 0.57434143 -0.17465188
v -7.09199657 0.40645341 -0.17465188
v -7.24903201 0.4064533 -0.17465188
v -8.03420114 0.49039734 -0.17465188
v -8.03420114 0.53236936 -0.17465188
v -7.99943468 0.57434138 -0.17465188
v -7.87716576 0.57434143 -0.17465188
v -7.72013247 0.4064533 -0.17465188
v -7.87716571 0.4064532 -0.17465188
v -6.93496504 0.57434143 -0.17465188
v -6.77792961 0.53236957 -0.17465188
v -7.09199652 0.57434149 -0.17465188
v -7.72013244 0.57434133 -0.17465188
v -7.56309909 0.4064533 -0.17465188
v -6.93496499 0.40645341 -0.17465188
v -7.56309915 0.57434138 -0.17465188
v -6.77792972 0.49039745 -0.17465188
v -6.77792956 0.44842543 -0.17465188
v -7.40606354 0.40645336 -0.17465188
v -6.81928134 0.53236947 -0.2250523
v -6.81928124 0.57434154 0.01232616
v -6.81928134 0.53236947 0.0698426
v -6.81928129 0.44842548 -0.2250523
v -6.81928129 0.49039745 -0.2250523
v -6.81928129 0.49039745 0.0698426
v -6.81928129 0.44842548 0.0698426
v -6.81928129 0.40645341 0.01232616
v -6.81928124 0.57434154 -0.17465188
v -6.81928129 0.40645341 -0.17465188
v -6.81928124 0.57434154 0.04491505
v -6.93496504 0.57434143 0.04491505
v -7.24903197 0.55377653 -0.2250523
v -7.40606356 0.55377648 -0.2250523
v -7.24903203 0.57434143 0.04491505
v -7.40606354 0.57434138 0.04491505
v -7.40606356 0.55377648 0.0698426
v -7.24903197 0.55377653 0.0698426
v -6.93496504 0.57434143 -0.20035539
v -6.81928124 0.57434154 -0.20035539
v -8.01716562 0.57434133 -0.17465188
v -7.99943468 0.57434138 -0.20035539
v -7.99943468 0.55377643 0.0698426
v -8.03420114 0.55377648 0.01232616
v -7.87716576 0.57434143 0.04491505
v -7.99943468 0.57434138 0.04491505
v -6.81928134 0.55377664 -0.2250523
v -6.93496504 0.55377659 -0.2250523
v -6.79819239 0.57434149 0.01232616
v -6.81928134 0.55377664 0.0698426
v -6.77792951 0.55377669 0.01232616
v -6.93496504 0.55377659 0.0698426
v -7.09199657 0.55377659 -0.2250523
v -7.09199652 0.57434149 0.04491505
v -7.09199657 0.55377659 0.0698426
v -7.72013252 0.55377648 -0.2250523
v -7.87716571 0.55377653 -0.2250523
v -7.72013244 0.57434133 0.04491505
v -7.87716571 0.55377653 0.0698426
v -7.72013252 0.55377648 0.0698426
v -7.56309912 0.55377648 -0.2250523
v -7.56309915 0.57434138 0.04491505
v -7.56309912 0.55377648 0.0698426
v -7.99943468 0.55377643 -0.2250523
v -8.01716562 0.57434133 0.01232616
v -8.03420114 0.55377648 -0.17465188
v -6.79819239 0.57434149 -0.17465188
v -6.77792951 0.55377669 -0.17465188
v -7.40606354 0.57434138 -0.20035539
v -7.24903203 0.57434143 -0.20035539
v -7.87716576 0.57434143 -0.20035539
v -7.09199652 0.57434149 -0.20035539
v -7.72013244 0.57434133 -0.20035539
v -7.56309915 0.57434138 -0.20035539
v -6.79819228 0.40645346 0.01232616
v -6.79819228 0.40645346 -0.17465188
v -7.99943463 0.42701996 0.0698426
v -8.03420114 0.42701996 0.01232616
v -7.99943463 0.40645325 0.0480672
v -8.01716562 0.4064533 0.01232616
v -7.24903199 0.42702012 -0.2250523
v -7.0919966 0.42702017 -0.2250523
v -7.24903201 0.4064533 0.0480672
v -7.09199657 0.40645341 0.0480672
v -7.24903199 0.42702012 0.0698426
v -7.0919966 0.42702017 0.0698426
v -6.81928129 0.40645341 0.0480672
v -6.81928129 0.40645341 -0.2032769
v -7.87716571 0.4064532 -0.2032769
v -7.99943463 0.40645325 -0.2032769
v -7.87716571 0.42702001 -0.2250523
v -7.72013247 0.42702001 -0.2250523
v -7.87716571 0.4064532 0.0480672
v -7.72013247 0.4064533 0.0480672
v -7.87716571 0.42702001 0.0698426
v -7.72013247 0.42702001 0.0698426
v -7.56309912 0.42702001 -0.2250523
v -7.56309909 0.4064533 0.0480672
v -7.56309912 0.42702001 0.0698426
v -6.93496499 0.42702012 -0.2250523
v -6.93496499 0.40645341 0.0480672
v -6.93496499 0.42702012 0.0698426
v -7.40606351 0.42702007 -0.2250523
v -7.40606354 0.40645336 0.0480672
v -7.40606351 0.42702007 0.0698426
v -6.81928124 0.42702012 -0.2250523
v -6.81928124 0.42702012 0.0698426
v -6.77792956 0.42702012 0.01232616
v -7.99943463 0.42701996 -0.2250523
v -8.03420114 0.42701996 -0.17465188
v -8.01716562 0.4064533 -0.17465188
v -6.77792956 0.42702012 -0.17465188
v -7.09199657 0.40645341 -0.2032769
v -7.24903201 0.4064533 -0.2032769
v -7.72013247 0.4064533 -0.2032769
v -7.56309909 0.4064533 -0.2032769
v -6.93496499 0.40645341 -0.2032769
v -7.40606354 0.40645336 -0.2032769
v -7.51620323 0.5035519 -0.00088441
v -7.51620323 0.69927987 0.03442696
v -7.51627071 0.93243061 0.03549498
v -7.51627066 1.16433639 0.03549498
v -7.51627066 1.39623343 0.03549498
v -7.51627082 1.62852447 0.03549498
v -7.51627087 1.86049643 0.03549498
v -7.51777644 2.0895471 0.04395615
v -7.51620336 2.3231336 0.03442696
v -7.40963147 0.50355185 -0.00088441
v -7.40963152 0.69927987 0.03442696
v -7.40963163 0.93243061 0.03549498
v -7.4096315 1.16433639 0.03549498
v -7.4096316 1.39623343 0.03549498
v -7.40963166 1.62852447 0.03549498
v -7.40963166 1.86049643 0.03549498
v -7.40963171 2.0895471 0.04395615
v -7.40963176 2.3231336 0.03442696
v -7.30306155 0.5035519 -0.00088441
v -7.30306166 0.69927977 0.03442696
v -7.30298533 0.9324305 0.03549498
v -7.30298535 1.1643366 0.03549498
v -7.30298546 1.39623343 0.03549498
v -7.30298546 1.62852447 0.03549498
v -7.30298551 1.86049643 0.03549498
v -7.30181442 2.08954689 0.04395615
v -7.30306176 2.3231336 0.03442696
v -7.30306176 2.3231336 -0.19156585
v -7.30181442 2.08954689 -0.20109506
v -7.30298551 1.86049643 -0.19263389
v -7.30298546 1.62852447 -0.19263389
v -7.30298546 1.39623343 -0.19263389
v -7.30298535 1.1643366 -0.19263389
v -7.30298533 0.9324305 -0.19263389
v -7.30306166 0.69927977 -0.19156585
v -7.30306152 0.50355206 -0.15625446
v -7.51620323 0.69927987 -0.19156585
v -7.51620315 0.50355196 -0.15625446
v -7.51627071 0.93243061 -0.19263389
v -7.51627066 1.16433639 -0.19263389
v -7.51627066 1.39623343 -0.19263389
v -7.51627082 1.62852447 -0.19263389
v -7.51627087 1.86049643 -0.19263389
v -7.51777644 2.0895471 -0.20109506
v -7.51620336 2.3231336 -0.19156585
v -7.40963152 0.69927987 -0.19156585
v -7.40963147 0.50355201 -0.15625446
v -7.40963163 0.93243061 -0.19263389
v -7.4096315 1.16433639 -0.19263389
v -7.4096316 1.39623343 -0.19263389
v -7.40963166 1.62852447 -0.19263389
v -7.40963166 1.86049643 -0.19263389
v -7.40963171 2.0895471 -0.20109506
v -7.40963176 2.3231336 -0.19156585
v -7.29507936 2.3231336 -0.25255268
v -7.29507936 2.09116675 -0.25255268
v -7.29507936 2.3231336 0.09541379
v -7.29507936 2.09116675 0.09541379
v -7.52627139 2.32313381 -0.25255268
v -7.52627134 2.09116654 -0.25255268
v -7.52627134 2.09116654 0.09541379
v -7.52627139 2.32313381 0.09541379
v -7.40963176 2.3231336 -0.25255268
v -7.40963182 2.09116675 -0.25255268
v -7.40963182 2.09116675 0.09541379
v -7.40963176 2.3231336 0.09541379
v -7.58353584 0.51073509 -0.1504015
v -7.58353583 0.69927977 -0.18305244
v -7.63160989 0.69927977 -0.02983003
v -7.62656999 0.55411703 -0.03969143
v -7.62656998 0.55411729 -0.11744745
v -7.63160989 0.69927977 -0.12730884
v -7.58353584 0.51073509 -0.0067374
v -7.58353583 0.69927977 0.02591354
v -7.58399924 0.93243061 -0.18402451
v -7.63257838 0.93243061 -0.02942198
v -7.63257838 0.93243061 -0.12771692
v -7.58399924 0.93243061 0.02688561
v -7.58399924 1.16433639 -0.18402451
v -7.63257854 1.1643365 -0.02942198
v -7.63257854 1.1643365 -0.12771692
v -7.58399924 1.16433639 0.02688561
v -7.5839994 1.39623343 -0.18402451
v -7.63257861 1.39623333 -0.02942198
v -7.63257861 1.39623333 -0.12771692
v -7.5839994 1.39623343 0.02688561
v -7.58399934 1.62852447 -0.18402451
v -7.63257859 1.62852447 -0.02942198
v -7.63257859 1.62852447 -0.12771692
v -7.58399934 1.62852447 0.02688561
v -7.5839995 1.86049643 -0.18402451
v -7.63257875 1.86049643 -0.02942198
v -7.63257875 1.86049643 -0.12771692
v -7.5839995 1.86049643 0.02688561
v -7.59226384 2.08954689 -0.19258162
v -7.6429343 2.08954689 -0.02327871
v -7.6429343 2.08954689 -0.13386019
v -7.59226384 2.08954689 0.03544273
v -7.57470064 2.3231336 -0.00088441
v -7.57470064 2.3231336 -0.15625448
v -7.63939155 2.09116654 -0.24403927
v -7.63939155 2.32313403 -0.24403927
v -7.70408459 2.32313381 0.01209841
v -7.70408464 2.09116633 0.01209841
v -7.70408464 2.09116633 -0.16923731
v -7.70408459 2.32313381 -0.16923731
v -7.66422633 2.3231336 -0.13404523
v -7.66422633 2.3231336 -0.02309366
v -7.63939155 2.09116654 0.08690038
v -7.63939155 2.32313403 0.08690038
v -7.24456534 2.3231336 -0.00088441
v -7.24456534 2.3231336 -0.15625448
v -7.23522672 1.86049665 -0.18229587
v -7.22843588 2.08954689 -0.19086185
v -7.18667817 1.86049643 -0.03529936
v -7.17665687 2.08954732 -0.02912596
v -7.17665719 2.08954732 -0.12801291
v -7.1866778 1.86049643 -0.12183952
v -7.22843588 2.08954689 0.03372296
v -7.2352264 1.86049643 0.02515697
v -7.23522662 1.62852468 -0.18229587
v -7.18667806 1.62852468 -0.03529936
v -7.18667764 1.62852447 -0.12183952
v -7.23522624 1.62852447 0.02515697
v -7.23522662 1.39623333 -0.18229587
v -7.18667812 1.39623365 -0.03529936
v -7.18667769 1.39623354 -0.12183952
v -7.23522624 1.39623343 0.02515697
v -7.23522662 1.1643366 -0.18229587
v -7.18667806 1.1643365 -0.03529936
v -7.18667769 1.1643365 -0.12183952
v -7.23522608 1.1643366 0.02515697
v -7.23522616 0.93243082 -0.18229587
v -7.18667809 0.93243061 -0.03529936
v -7.18667809 0.93243061 -0.12183952
v -7.23522616 0.93243082 0.02515697
v -7.23572957 0.69927987 -0.18133264
v -7.18765549 0.69927987 -0.03567728
v -7.18765549 0.69927987 -0.12146159
v -7.23572957 0.69927987 0.02419376
v -7.23572955 0.51218614 -0.14921916
v -7.19269495 0.56015559 -0.04346222
v -7.19269495 0.56015559 -0.11367667
v -7.23572955 0.51218614 -0.00791974
v -7.18904999 2.09116675 -0.2423195
v -7.18904994 2.32313339 -0.2423195
v -7.1172651 2.09116675 0.00625116
v -7.1172651 2.3231336 0.00625116
v -7.1172651 2.3231336 -0.16339005
v -7.1172651 2.09116675 -0.16339005
v -7.15556306 2.32313381 -0.02686443
v -7.1555628 2.32313381 -0.13027444
v -7.18904994 2.32313339 0.0851806
v -7.18904999 2.09116675 0.0851806
v -7.40963166 2.39191061 0.00791887
v -7.51169727 2.39191061 0.00791887
v -7.51169727 2.39191061 -0.16505776
v -7.40963166 2.39191061 -0.16505776
v -7.40963155 2.36540263 -0.19156585
v -7.51620357 2.36540284 -0.19156585
v -7.51620357 2.36540284 0.03442696
v -7.40963155 2.36540263 0.03442696
v -7.30756796 2.39191082 0.00791887
v -7.30756796 2.39191082 -0.16505776
v -7.30306176 2.36540284 -0.19156585
v -7.30306176 2.36540284 0.03442696
v -7.5503669 2.39191061 -0.01910872
v -7.5503669 2.39191061 -0.13803017
v -7.57470059 2.36540284 -0.15625448
v -7.57470059 2.36540284 -0.00088441
v -7.26889865 2.39191082 -0.01910872
v -7.26889865 2.39191082 -0.13803017
v -7.24456523 2.36540263 -0.00088441
v -7.24456523 2.36540263 -0.15625448
v -7.40963163 0.93757825 -0.19263389
v -7.51627071 0.93757825 -0.19263443
v -7.51627071 0.93757825 0.03549554
v -7.40963163 0.93757825 0.03549498
v -7.30298373 0.93757836 -0.19263752
v -7.30298373 0.93757836 0.03549864
v -7.58400179 0.93757846 -0.18402779
v -7.63258826 0.93757836 -0.02941874
v -7.63258826 0.93757836 -0.12772014
v -7.58400179 0.93757846 0.0268889
v -7.23521932 0.93757846 -0.18231199
v -7.1866759 0.93757836 -0.03529569
v -7.18667636 0.93757846 -0.12184318
v -7.23521881 0.93757836 0.0251731
v -7.40963155 1.16915473 -0.19263389
v -7.51627063 1.16915473 -0.19263389
v -7.51627063 1.16915473 0.03549498
v -7.40963155 1.16915473 0.03549498
v -7.30298546 1.16915473 -0.19263389
v -7.30298546 1.16915473 0.03549498
v -7.58399934 1.16915484 -0.18402451
v -7.63257848 1.16915473 -0.02942198
v -7.63257848 1.16915473 -0.12771692
v -7.58399934 1.16915484 0.02688561
v -7.23522656 1.16915473 -0.18229587
v -7.18667801 1.16915484 -0.03529936
v -7.18667748 1.16915484 -0.12183952
v -7.23522624 1.16915495 0.02515697
v -7.4096316 1.40069445 -0.19263389
v -7.51627061 1.40069445 -0.19263389
v -7.51627061 1.40069445 0.03549498
v -7.4096316 1.40069445 0.03549498
v -7.30298551 1.40069466 -0.19263389
v -7.30298551 1.40069466 0.03549498
v -7.58399926 1.40069445 -0.18402451
v -7.63257851 1.40069445 -0.02942198
v -7.63257851 1.40069445 -0.12771692
v -7.58399926 1.40069445 0.02688561
v -7.23522662 1.40069445 -0.18229587
v -7.18667801 1.40069445 -0.03529936
v -7.18667758 1.40069434 -0.12183952
v -7.23522624 1.40069445 0.02515697
v -7.40963171 1.63436471 -0.19263389
v -7.51627077 1.63436471 -0.19263389
v -7.51627077 1.63436471 0.03549498
v -7.40963171 1.63436471 0.03549498
v -7.30298535 1.63436471 -0.19263389
v -7.30298535 1.63436471 0.03549498
v -7.58399929 1.6343645 -0.18402451
v -7.63257864 1.63436471 -0.02942198
v -7.63257864 1.63436471 -0.12771692
v -7.58399929 1.6343645 0.02688561
v -7.23522662 1.63436471 -0.18229587
v -7.18667796 1.6343645 -0.03529936
v -7.18667764 1.63436471 -0.12183952
v -7.23522619 1.63436471 0.02515697
v -7.40963182 1.86626186 -0.19263389
v -7.51627071 1.86626165 -0.19263389
v -7.51627071 1.86626165 0.03549498
v -7.40963182 1.86626186 0.03549498
v -7.30298546 1.86626186 -0.19263389
v -7.30298546 1.86626186 0.03549498
v -7.58399945 1.86626208 -0.18402451
v -7.63257864 1.86626186 -0.02942198
v -7.63257864 1.86626186 -0.1277169
v -7.58399945 1.86626208 0.02688561
v -7.23522635 1.86626186 -0.18229587
v -7.18667812 1.86626208 -0.03529936
v -7.18667812 1.86626208 -0.12183952
v -7.23522635 1.86626186 0.02515697
v -7.63161019 2.08080027 -0.02983003
v -7.63161019 2.08080027 -0.12730887
v -7.23572984 2.08080027 -0.18133264
v -7.18765579 2.08080048 -0.12146159
v -7.40963171 2.08080027 -0.19156585
v -7.51620357 2.08080027 -0.19156585
v -7.51620357 2.08080027 0.03442696
v -7.40963171 2.08080027 0.03442696
v -7.30306187 2.08080048 -0.19156585
v -7.30306187 2.08080048 0.03442696
v -7.58353598 2.08080006 -0.18305244
v -7.58353598 2.08080006 0.02591354
v -7.18765579 2.08080048 -0.03567728
v -7.23572984 2.08080027 0.02419376
v -7.51704777 0.7069982 -0.20497008
v -7.4096315 0.7069982 -0.20497008
v -7.40963152 0.69927987 -0.19840116
v -7.51663385 0.69927998 -0.19840116
v -7.51704777 0.7069982 0.04783119
v -7.4096315 0.7069982 0.04783119
v -7.51663385 0.69927998 0.04126227
v -7.40963152 0.69927987 0.04126227
v -7.30210341 0.7069982 -0.20497008
v -7.30257271 0.69927987 -0.19840116
v -7.30210341 0.7069982 0.04783119
v -7.30257271 0.69927987 0.04126227
v -7.58934731 0.7069983 -0.19525258
v -7.58649937 0.69927987 -0.18927369
v -7.64376443 0.70699809 -0.02470846
v -7.64376443 0.70699809 -0.13243042
v -7.63780797 0.69927987 -0.12992036
v -7.63780797 0.69927987 -0.02721851
v -7.58934731 0.7069983 0.03811371
v -7.58649937 0.69927987 0.03213481
v -7.22941765 0.7069983 -0.19342161
v -7.23251031 0.69927987 -0.18749723
v -7.17538677 0.7069982 -0.03093375
v -7.17538677 0.7069982 -0.12620512
v -7.18139896 0.69927998 -0.03325859
v -7.18139896 0.69927998 -0.1238803
v -7.22941765 0.7069983 0.03628273
v -7.23251031 0.69927987 0.03035832
v -7.5166314 0.92977318 -0.19835955
v -7.40963155 0.92977318 -0.19835955
v -7.40963155 0.92977318 0.04122064
v -7.5166314 0.92977318 0.04122064
v -7.30257567 0.92977329 -0.19835955
v -7.30257567 0.92977329 0.04122064
v -7.58648154 0.92977318 -0.18923583
v -7.63777009 0.92977297 -0.02723437
v -7.63777009 0.92977297 -0.12990451
v -7.58648154 0.92977318 0.03209694
v -7.23252995 0.92977318 -0.18745966
v -7.18143725 0.92977318 -0.12386562
v -7.18143725 0.92977318 -0.03327326
v -7.23252995 0.92977318 0.0303208
v -7.40963152 0.88967647 -0.20394368
v -7.51698334 0.88967647 -0.20394368
v -7.51698334 0.88967647 0.0468048
v -7.40963152 0.88967647 0.0468048
v -7.3021767 0.88967658 -0.20394368
v -7.3021767 0.88967658 0.0468048
v -7.5889023 0.88967658 -0.19431839
v -7.64283386 0.88967647 -0.02510065
v -7.64283386 0.88967647 -0.13203823
v -7.5889023 0.88967658 0.0371795
v -7.22990057 0.88967668 -0.19249594
v -7.17632618 0.88967668 -0.031297
v -7.17632618 0.88967668 -0.12584188
v -7.22990057 0.88967668 0.03535705
v -7.64284375 0.97742612 -0.02509741
v -7.64284375 0.97742612 -0.13204146
v -7.63781399 0.93985128 -0.12991877
v -7.63781399 0.93985128 -0.02722012
v -7.22989335 0.97742612 -0.19251206
v -7.17632464 0.97742623 -0.12584553
v -7.18142968 0.93985128 -0.12388177
v -7.23249747 0.93985128 -0.18753069
v -7.5169834 0.97742612 -0.20394424
v -7.40963158 0.97742612 -0.20394368
v -7.40963155 0.93985128 -0.19835955
v -7.51663204 0.93985117 -0.19836205
v -7.5169834 0.97742612 0.04680536
v -7.40963158 0.97742612 0.0468048
v -7.51663204 0.93985117 0.04122315
v -7.40963155 0.93985128 0.04122064
v -7.30217505 0.97742623 -0.20394735
v -7.30256845 0.93985139 -0.19837567
v -7.3021746 0.97742612 0.04680846
v -7.30256845 0.93985139 0.04123679
v -7.58890534 0.97742623 -0.19432167
v -7.58649326 0.93985128 -0.18925025
v -7.58890534 0.97742623 0.03718278
v -7.58649326 0.93985128 0.03211138
v -7.17632464 0.97742623 -0.03129334
v -7.18142968 0.93985128 -0.03325712
v -7.22989335 0.97742612 0.03537318
v -7.23249747 0.93985128 0.03039178
v -7.63777019 1.16198897 -0.02723437
v -7.63777057 1.16198897 -0.12990451
v -7.23252992 1.16198897 -0.18745969
v -7.18143738 1.16198908 -0.12386565
v -7.5166314 1.16198908 -0.19835955
v -7.40963166 1.16198897 -0.19835955
v -7.40963166 1.16198897 0.04122064
v -7.5166314 1.16198908 0.04122064
v -7.3025758 1.16198897 -0.19835955
v -7.3025758 1.16198897 0.04122064
v -7.58648154 1.16198897 -0.18923581
v -7.58648154 1.16198897 0.03209694
v -7.18143738 1.16198908 -0.03327326
v -7.23252992 1.16198897 0.0303208
v -7.64283392 1.12375735 -0.02510065
v -7.64283392 1.12375735 -0.13203821
v -7.22990111 1.12375756 -0.19249594
v -7.17632661 1.12375756 -0.12584188
v -7.40963155 1.12375745 -0.20394368
v -7.5169834 1.12375735 -0.20394368
v -7.5169834 1.12375735 0.0468048
v -7.40963155 1.12375745 0.0468048
v -7.3021767 1.12375745 -0.20394368
v -7.3021767 1.12375745 0.0468048
v -7.58890228 1.12375735 -0.19431839
v -7.58890228 1.12375735 0.0371795
v -7.17632629 1.12375745 -0.031297
v -7.22990068 1.12375756 0.03535705
v -7.64283389 1.21025448 -0.02510065
v -7.64283389 1.21025448 -0.13203821
v -7.63777019 1.17173841 -0.12990451
v -7.63777019 1.17173841 -0.02723437
v -7.22990063 1.21025448 -0.19249594
v -7.17632666 1.21025459 -0.12584187
v -7.18143738 1.17173841 -0.12386562
v -7.23252992 1.17173841 -0.18745969
v -7.51698342 1.21025448 -0.20394368
v -7.40963166 1.21025448 -0.20394368
v -7.40963176 1.17173841 -0.19835955
v -7.51663137 1.17173841 -0.19835955
v -7.51698342 1.21025448 0.0468048
v -7.40963166 1.21025448 0.0468048
v -7.51663137 1.17173841 0.04122064
v -7.40963176 1.17173841 0.04122064
v -7.30217638 1.21025448 -0.20394368
v -7.3025758 1.17173852 -0.19835955
v -7.30217638 1.21025448 0.0468048
v -7.3025758 1.17173852 0.04122064
v -7.58890217 1.21025448 -0.19431839
v -7.58648151 1.17173831 -0.18923583
v -7.58890217 1.21025448 0.0371795
v -7.58648151 1.17173831 0.03209694
v -7.17632666 1.21025459 -0.031297
v -7.18143738 1.17173841 -0.03327326
v -7.22990063 1.21025448 0.03535705
v -7.23252992 1.17173841 0.0303208
v -7.63777011 1.3935223 -0.02723437
v -7.63777065 1.3935223 -0.12990451
v -7.23253003 1.3935223 -0.18745969
v -7.18143738 1.3935223 -0.12386565
v -7.5166314 1.3935223 -0.19835955
v -7.4096316 1.39352219 -0.19835955
v -7.4096316 1.39352219 0.04122064
v -7.5166314 1.3935223 0.04122064
v -7.30257575 1.3935223 -0.19835955
v -7.30257575 1.3935223 0.04122064
v -7.58648151 1.3935224 -0.18923581
v -7.58648151 1.3935224 0.03209694
v -7.18143738 1.3935223 -0.03327326
v -7.23253003 1.3935223 0.0303208
v -7.64283397 1.35408845 -0.02510065
v -7.64283397 1.35408845 -0.13203821
v -7.22990111 1.35408856 -0.19249594
v -7.17632666 1.35408856 -0.12584188
v -7.40963166 1.35408856 -0.20394368
v -7.51698345 1.35408845 -0.20394368
v -7.51698345 1.35408845 0.0468048
v -7.40963166 1.35408856 0.0468048
v -7.30217681 1.35408845 -0.20394368
v -7.30217681 1.35408845 0.0468048
v -7.58890236 1.35408845 -0.19431839
v -7.58890236 1.35408845 0.0371795
v -7.17632629 1.35408845 -0.031297
v -7.22990068 1.35408845 0.03535705
v -7.64283402 1.44160876 -0.02510065
v -7.64283402 1.44160876 -0.13203821
v -7.63777027 1.40327227 -0.12990451
v -7.63777027 1.40327227 -0.02723437
v -7.22990068 1.44160898 -0.19249594
v -7.17632672 1.44160887 -0.12584187
v -7.18143738 1.40327206 -0.12386562
v -7.23252992 1.40327216 -0.18745969
v -7.51698345 1.44160876 -0.20394368
v -7.40963166 1.44160876 -0.20394368
v -7.40963171 1.40327216 -0.19835955
v -7.51663129 1.40327216 -0.19835955
v -7.51698345 1.44160876 0.0468048
v -7.40963166 1.44160876 0.0468048
v -7.51663129 1.40327216 0.04122064
v -7.40963171 1.40327216 0.04122064
v -7.30217649 1.44160876 -0.20394368
v -7.3025757 1.40327227 -0.19835955
v -7.30217649 1.44160876 0.0468048
v -7.3025757 1.40327227 0.04122064
v -7.58890238 1.44160866 -0.19431839
v -7.58648157 1.40327227 -0.18923583
v -7.58890238 1.44160866 0.0371795
v -7.58648157 1.40327227 0.03209694
v -7.17632672 1.44160887 -0.031297
v -7.18143738 1.40327206 -0.03327326
v -7.22990068 1.44160898 0.03535705
v -7.23252992 1.40327216 0.0303208
v -7.63777019 1.62498677 -0.02723437
v -7.63777057 1.62498699 -0.12990451
v -7.23252997 1.62498677 -0.18745969
v -7.18143749 1.62498677 -0.12386565
v -7.51663145 1.62498677 -0.19835955
v -7.40963166 1.62498677 -0.19835955
v -7.40963166 1.62498677 0.04122064
v -7.51663145 1.62498677 0.04122064
v -7.30257575 1.62498677 -0.19835955
v -7.30257575 1.62498677 0.04122064
v -7.58648151 1.62498677 -0.18923581
v -7.58648151 1.62498677 0.03209694
v -7.18143749 1.62498677 -0.03327326
v -7.23252997 1.62498677 0.0303208
v -7.64283413 1.58380092 -0.02510065
v -7.64283413 1.58380092 -0.13203821
v -7.22990111 1.58380071 -0.19249594
v -7.17632672 1.58380092 -0.12584188
v -7.4096316 1.58380071 -0.20394368
v -7.5169835 1.58380071 -0.20394368
v -7.5169835 1.58380071 0.0468048
v -7.4096316 1.58380071 0.0468048
v -7.30217686 1.58380092 -0.20394368
v -7.30217686 1.58380092 0.0468048
v -7.58890246 1.58380071 -0.19431839
v -7.58890246 1.58380071 0.0371795
v -7.1763264 1.58380071 -0.031297
v -7.22990073 1.58380092 0.03535705
v -7.64283413 1.67741341 -0.02510065
v -7.64283413 1.67741341 -0.13203821
v -7.63777019 1.63774021 -0.12990451
v -7.63777019 1.63774021 -0.02723437
v -7.22990073 1.67741319 -0.19249594
v -7.17632677 1.67741341 -0.12584187
v -7.18143749 1.63774021 -0.12386562
v -7.23252997 1.63774042 -0.18745969
v -7.51698356 1.67741319 -0.20394368
v -7.4096316 1.67741319 -0.20394368
v -7.40963166 1.63774021 -0.19835955
v -7.51663129 1.63774021 -0.19835955
v -7.51698356 1.67741319 0.0468048
v -7.4096316 1.67741319 0.0468048
v -7.51663129 1.63774021 0.04122064
v -7.40963166 1.63774021 0.04122064
v -7.30217649 1.67741319 -0.20394368
v -7.3025757 1.63774021 -0.19835955
v -7.30217649 1.67741319 0.0468048
v -7.3025757 1.63774021 0.04122064
v -7.58890246 1.67741319 -0.19431839
v -7.58648151 1.63774021 -0.18923583
v -7.58890246 1.67741319 0.0371795
v -7.58648151 1.63774021 0.03209694
v -7.17632677 1.67741341 -0.031297
v -7.18143749 1.63774021 -0.03327326
v -7.22990073 1.67741319 0.03535705
v -7.23252997 1.63774042 0.0303208
v -7.6377703 1.85697451 -0.02723437
v -7.63777057 1.85697451 -0.12990451
v -7.23253008 1.85697472 -0.18745969
v -7.18143749 1.85697451 -0.12386565
v -7.51663134 1.85697451 -0.19835955
v -7.40963171 1.85697451 -0.19835955
v -7.40963171 1.85697451 0.04122064
v -7.51663134 1.85697451 0.04122064
v -7.30257586 1.8569743 -0.19835955
v -7.30257586 1.8569743 0.04122064
v -7.58648151 1.85697451 -0.18923581
v -7.58648151 1.85697451 0.03209694
v -7.18143749 1.85697451 -0.03327326
v -7.23253008 1.85697472 0.0303208
v -7.64283392 1.81658196 -0.02510065
v -7.64283392 1.81658196 -0.13203821
v -7.22990132 1.81658218 -0.19249594
v -7.17632693 1.81658196 -0.12584188
v -7.40963171 1.81658196 -0.20394368
v -7.5169834 1.81658196 -0.20394368
v -7.5169834 1.81658196 0.0468048
v -7.40963171 1.81658196 0.0468048
v -7.30217697 1.81658218 -0.20394368
v -7.30217697 1.81658218 0.0468048
v -7.5889023 1.81658196 -0.19431839
v -7.5889023 1.81658196 0.0371795
v -7.17632629 1.81658196 -0.031297
v -7.22990052 1.81658196 0.03535705
v -7.5169834 1.90724204 -0.20394368
v -7.40963166 1.90724204 -0.20394368
v -7.40963182 1.86757161 -0.19840116
v -7.5166339 1.86757161 -0.19840116
v -7.5169834 1.90724204 0.0468048
v -7.40963166 1.90724204 0.0468048
v -7.5166339 1.86757161 0.04126227
v -7.40963182 1.86757161 0.04126227
v -7.30217622 1.90724204 -0.20394368
v -7.30257298 1.86757182 -0.19840116
v -7.30217622 1.90724204 0.0468048
v -7.30257298 1.86757182 0.04126227
v -7.5889023 1.90724182 -0.19431839
v -7.58649947 1.86757203 -0.18927369
v -7.5889023 1.90724182 0.0371795
v -7.58649947 1.86757203 0.03213481
v -7.64283397 1.90724182 -0.1320382
v -7.63780808 1.86757182 -0.12992036
v -7.64283397 1.90724182 -0.02510065
v -7.63780808 1.86757182 -0.02721851
v -7.22990063 1.90724204 -0.19249591
v -7.23251036 1.86757203 -0.18749723
v -7.17632677 1.90724204 -0.031297
v -7.17632677 1.90724204 -0.12584187
v -7.18139912 1.86757182 -0.03325859
v -7.18139912 1.86757182 -0.1238803
v -7.22990063 1.90724204 0.03535705
v -7.23251036 1.86757203 0.03035832
v -7.5166314 2.07852095 -0.19835955
v -7.40963176 2.07852095 -0.19835955
v -7.40963176 2.07852095 0.04122064
v -7.5166314 2.07852095 0.04122064
v -7.30257602 2.07852095 -0.19835955
v -7.30257602 2.07852095 0.04122064
v -7.58648151 2.07852117 -0.18923583
v -7.58648151 2.07852117 0.03209694
v -7.63777078 2.07852074 -0.12990451
v -7.63777078 2.07852074 -0.02723436
v -7.23253008 2.07852117 -0.18745966
v -7.18143754 2.07852095 -0.12386562
v -7.18143754 2.07852095 -0.03327326
v -7.23253008 2.07852117 0.0303208
v -7.40963171 2.0394162 -0.20394368
v -7.5169835 2.03941641 -0.20394368
v -7.5169835 2.03941641 0.0468048
v -7.40963171 2.0394162 0.0468048
v -7.30217681 2.03941641 -0.20394368
v -7.30217681 2.03941641 0.0468048
v -7.58890246 2.0394162 -0.19431839
v -7.58890246 2.0394162 0.0371795
v -7.64283408 2.0394162 -0.13203821
v -7.64283408 2.0394162 -0.02510066
v -7.22990068 2.03941641 -0.19249594
v -7.1763264 2.0394162 -0.031297
v -7.1763264 2.0394162 -0.12584188
v -7.22990068 2.03941641 0.03535705
g Group57796
f 148 207 211 210
f 207 42 208 211
f 211 208 43 209
f 210 211 209 165
f 31 212 216 215
f 212 6 213 216
f 216 213 7 214
f 215 216 214 11
f 148 210 220 219
f 210 165 217 220
f 220 217 106 218
f 219 220 218 107
f 156 221 225 224
f 221 164 222 225
f 225 222 167 223
f 224 225 223 168
f 94 226 230 229
f 226 76 227 230
f 230 227 70 228
f 229 230 228 71
f 156 231 234 221
f 231 169 232 234
f 234 232 170 233
f 221 234 233 164
f 130 235 239 238
f 235 171 236 239
f 239 236 189 237
f 238 239 237 129
f 130 238 243 242
f 238 129 240 243
f 243 240 190 241
f 242 243 241 172
f 94 229 247 246
f 229 71 244 247
f 247 244 173 245
f 246 247 245 174
f 31 248 251 212
f 248 175 249 251
f 251 249 176 250
f 212 251 250 6
f 130 252 255 235
f 252 166 253 255
f 255 253 177 254
f 235 255 254 171
f 130 242 258 252
f 242 172 256 258
f 258 256 178 257
f 252 258 257 166
f 67 259 263 262
f 259 68 260 263
f 263 260 66 261
f 262 263 261 65
f 3 264 268 267
f 264 1 265 268
f 268 265 2 266
f 267 268 266 4
f 200 269 273 272
f 269 198 270 273
f 273 270 159 271
f 272 273 271 143
f 199 274 277 276
f 274 143 271 277
f 277 271 159 275
f 276 277 275 197
f 200 272 280 279
f 272 143 278 280
f 279 280 278 192
f 193 281 283 282
f 281 143 274 283
f 282 283 274 199
f 198 284 287 270
f 284 196 285 287
f 287 285 160 286
f 270 287 286 159
f 197 275 290 289
f 275 159 286 290
f 290 286 160 288
f 289 290 288 195
f 68 259 293 292
f 259 67 291 293
f 293 291 71 228
f 292 293 228 70
f 4 294 296 267
f 294 7 213 296
f 296 213 6 295
f 267 296 295 3
f 68 292 300 299
f 292 70 297 300
f 300 297 72 298
f 299 300 298 69
f 4 301 304 294
f 301 5 302 304
f 304 302 8 303
f 294 304 303 7
f 72 305 308 298
f 305 74 306 308
f 308 306 73 307
f 298 308 307 69
f 8 302 312 311
f 302 5 309 312
f 312 309 10 310
f 311 312 310 9
f 72 297 315 314
f 297 70 227 315
f 315 227 76 313
f 314 315 313 75
f 8 316 318 303
f 316 12 317 318
f 318 317 11 214
f 303 318 214 7
f 72 314 321 305
f 314 75 319 321
f 321 319 77 320
f 305 321 320 74
f 8 311 324 316
f 311 9 322 324
f 324 322 13 323
f 316 324 323 12
f 77 325 328 320
f 325 132 326 328
f 328 326 131 327
f 320 328 327 74
f 153 329 332 331
f 329 152 330 332
f 331 332 330 114
f 13 322 335 334
f 322 9 333 335
f 335 333 131 326
f 334 335 326 132
f 77 319 339 338
f 319 75 336 339
f 339 336 79 337
f 338 339 337 78
f 13 340 343 323
f 340 15 341 343
f 343 341 14 342
f 323 343 342 12
f 77 338 346 325
f 338 78 344 346
f 346 344 133 345
f 325 346 345 132
f 154 347 350 349
f 347 153 331 350
f 350 331 114 348
f 349 350 348 115
f 13 334 352 340
f 334 132 345 352
f 352 345 133 351
f 340 352 351 15
f 133 344 356 355
f 344 78 353 356
f 356 353 80 354
f 355 356 354 134
f 135 357 360 359
f 357 154 349 360
f 360 349 115 358
f 359 360 358 83
f 133 355 363 351
f 355 134 361 363
f 363 361 16 362
f 351 363 362 15
f 84 364 368 367
f 364 83 365 368
f 368 365 82 366
f 367 368 366 81
f 18 369 373 372
f 369 17 370 373
f 373 370 135 371
f 372 373 371 136
f 18 374 377 369
f 374 20 375 377
f 377 375 19 376
f 369 377 376 17
f 84 367 381 380
f 367 81 378 381
f 381 378 179 379
f 380 381 379 180
f 181 382 385 384
f 382 18 372 385
f 385 372 136 383
f 384 385 383 182
f 18 382 388 374
f 382 181 386 388
f 388 386 183 387
f 374 388 387 20
f 137 389 393 392
f 389 179 390 393
f 393 390 184 391
f 392 393 391 138
f 137 392 397 396
f 392 138 394 397
f 397 394 185 395
f 396 397 395 183
f 163 398 402 401
f 398 158 399 402
f 402 399 56 400
f 401 402 400 58
f 106 217 405 404
f 217 165 403 405
f 405 403 134 354
f 404 405 354 80
f 163 406 409 398
f 406 123 407 409
f 409 407 120 408
f 398 409 408 158
f 64 410 413 412
f 410 162 411 413
f 413 411 163 401
f 412 413 401 58
f 186 414 417 416
f 414 162 410 417
f 417 410 64 415
f 416 417 415 187
f 136 371 419 418
f 371 135 359 419
f 419 359 83 364
f 418 419 364 84
f 196 420 423 285
f 420 194 421 423
f 423 421 161 422
f 285 423 422 160
f 34 424 427 426
f 424 30 425 427
f 427 425 31 215
f 426 427 215 11
f 139 428 431 430
f 428 182 429 431
f 430 431 429 180
f 140 432 434 433
f 432 73 306 434
f 434 306 74 327
f 433 434 327 131
f 97 435 438 437
f 435 76 226 438
f 438 226 94 436
f 437 438 436 95
f 140 433 440 439
f 433 131 333 440
f 440 333 9 310
f 439 440 310 10
f 73 432 444 443
f 432 140 441 444
f 444 441 141 442
f 443 444 442 86
f 34 426 446 445
f 426 11 317 446
f 446 317 12 342
f 445 446 342 14
f 10 447 449 439
f 447 22 448 449
f 449 448 141 441
f 439 449 441 140
f 73 443 452 307
f 443 86 450 452
f 452 450 87 451
f 307 452 451 69
f 10 309 455 447
f 309 5 453 455
f 455 453 23 454
f 447 455 454 22
f 195 288 458 457
f 288 160 422 458
f 458 422 161 456
f 457 458 456 187
f 186 459 461 460
f 459 161 421 461
f 460 461 421 194
f 87 450 465 464
f 450 86 462 465
f 465 462 119 463
f 464 465 463 89
f 23 466 469 454
f 466 24 467 469
f 469 467 55 468
f 454 469 468 22
f 87 464 473 472
f 464 89 470 473
f 473 470 88 471
f 472 473 471 66
f 23 474 477 466
f 474 2 475 477
f 477 475 25 476
f 466 477 476 24
f 87 472 478 451
f 472 66 260 478
f 478 260 68 299
f 451 478 299 69
f 23 453 479 474
f 453 5 301 479
f 479 301 4 266
f 474 479 266 2
f 173 244 482 481
f 244 71 291 482
f 482 291 67 480
f 481 482 480 177
f 176 483 485 250
f 483 178 484 485
f 485 484 3 295
f 250 485 295 6
f 206 486 489 488
f 486 185 394 489
f 489 394 138 487
f 488 489 487 155
f 205 490 492 491
f 490 155 487 492
f 492 487 138 391
f 491 492 391 184
f 88 493 495 471
f 493 90 494 495
f 495 494 65 261
f 471 495 261 66
f 25 475 498 497
f 475 2 265 498
f 498 265 1 496
f 497 498 496 26
f 90 493 502 501
f 493 88 499 502
f 502 499 92 500
f 501 502 500 91
f 26 503 506 497
f 503 28 504 506
f 506 504 27 505
f 497 506 505 25
f 90 501 510 509
f 501 91 507 510
f 510 507 188 508
f 509 510 508 189
f 26 511 514 503
f 511 190 512 514
f 514 512 191 513
f 503 514 513 28
f 206 488 517 516
f 488 155 515 517
f 517 515 156 224
f 516 517 224 168
f 205 518 519 490
f 518 169 231 519
f 519 231 156 515
f 490 519 515 155
f 142 520 523 522
f 520 188 521 523
f 523 521 192 278
f 522 523 278 143
f 142 522 526 525
f 522 143 281 526
f 526 281 193 524
f 525 526 524 191
f 128 527 529 528
f 527 123 406 529
f 529 406 163 411
f 528 529 411 162
f 97 530 531 435
f 530 79 336 531
f 531 336 75 313
f 435 531 313 76
f 61 532 535 534
f 532 64 412 535
f 535 412 58 533
f 534 535 533 59
f 126 536 539 538
f 536 122 537 539
f 539 537 123 527
f 538 539 527 128
f 128 528 541 540
f 528 162 414 541
f 541 414 186 460
f 540 541 460 194
f 61 542 543 532
f 542 195 457 543
f 543 457 187 415
f 532 543 415 64
f 182 383 544 429
f 383 136 418 544
f 544 418 84 380
f 429 544 380 180
f 126 538 546 545
f 538 128 540 546
f 546 540 194 420
f 545 546 420 196
f 62 547 549 548
f 547 197 289 549
f 549 289 195 542
f 548 549 542 61
f 43 550 551 209
f 550 16 361 551
f 551 361 134 403
f 209 551 403 165
f 125 552 554 553
f 552 126 545 554
f 554 545 196 284
f 553 554 284 198
f 63 555 558 557
f 555 29 556 558
f 558 556 193 282
f 557 558 282 199
f 127 559 562 561
f 559 200 279 562
f 562 279 192 560
f 561 562 560 93
f 63 557 564 563
f 557 199 276 564
f 564 276 197 547
f 563 564 547 62
f 127 565 566 559
f 565 125 553 566
f 566 553 198 269
f 559 566 269 200
f 146 567 571 570
f 567 201 568 571
f 571 568 174 569
f 570 571 569 144
f 146 570 575 574
f 570 144 572 575
f 575 572 175 573
f 574 575 573 202
f 60 576 579 578
f 576 27 504 579
f 579 504 28 577
f 578 579 577 29
f 124 580 583 582
f 580 93 581 583
f 583 581 91 500
f 582 583 500 92
f 60 578 585 584
f 578 29 555 585
f 585 555 63 563
f 584 585 563 62
f 146 586 589 567
f 586 147 587 589
f 589 587 203 588
f 567 589 588 201
f 146 574 592 586
f 574 202 590 592
f 592 590 204 591
f 586 592 591 147
f 96 593 596 595
f 593 98 594 596
f 596 594 97 437
f 595 596 437 95
f 32 597 600 599
f 597 30 424 600
f 600 424 34 598
f 599 600 598 33
f 96 601 605 604
f 601 203 602 605
f 605 602 170 603
f 604 605 603 99
f 32 606 610 609
f 606 35 607 610
f 610 607 167 608
f 609 610 608 204
f 96 604 613 593
f 604 99 611 613
f 613 611 100 612
f 593 613 612 98
f 32 599 616 606
f 599 33 614 616
f 616 614 36 615
f 606 616 615 35
f 100 617 620 612
f 617 102 618 620
f 620 618 101 619
f 612 620 619 98
f 36 614 624 623
f 614 33 621 624
f 624 621 38 622
f 623 624 622 37
f 100 611 628 627
f 611 99 625 628
f 628 625 104 626
f 627 628 626 103
f 36 629 632 615
f 629 40 630 632
f 632 630 39 631
f 615 632 631 35
f 100 627 635 617
f 627 103 633 635
f 635 633 105 634
f 617 635 634 102
f 36 623 638 629
f 623 37 636 638
f 638 636 41 637
f 629 638 637 40
f 105 639 641 634
f 639 107 218 641
f 641 218 106 640
f 634 641 640 102
f 41 636 644 643
f 636 37 642 644
f 644 642 43 208
f 643 644 208 42
f 105 633 648 647
f 633 103 645 648
f 648 645 109 646
f 647 648 646 108
f 41 649 652 637
f 649 45 650 652
f 652 650 44 651
f 637 652 651 40
f 105 647 655 639
f 647 108 653 655
f 655 653 110 654
f 639 655 654 107
f 41 643 658 649
f 643 42 656 658
f 658 656 46 657
f 649 658 657 45
f 110 659 661 654
f 659 149 660 661
f 661 660 148 219
f 654 661 219 107
f 46 656 663 662
f 656 42 207 663
f 663 207 148 660
f 662 663 660 149
f 110 653 667 666
f 653 108 664 667
f 667 664 112 665
f 666 667 665 111
f 46 668 671 657
f 668 48 669 671
f 671 669 47 670
f 657 671 670 45
f 110 666 674 659
f 666 111 672 674
f 674 672 150 673
f 659 674 673 149
f 38 621 676 675
f 621 33 598 676
f 676 598 34 445
f 675 676 445 14
f 46 662 678 668
f 662 149 673 678
f 678 673 150 677
f 668 678 677 48
f 150 672 682 681
f 672 111 679 682
f 682 679 113 680
f 681 682 680 151
f 101 683 684 619
f 683 79 530 684
f 684 530 97 594
f 619 684 594 98
f 150 681 687 677
f 681 151 685 687
f 687 685 49 686
f 677 687 686 48
f 151 680 690 689
f 680 113 688 690
f 690 688 114 330
f 689 690 330 152
f 38 675 692 691
f 675 14 341 692
f 692 341 15 362
f 691 692 362 16
f 50 693 695 694
f 693 152 329 695
f 694 695 329 153
f 151 689 697 685
f 689 152 693 697
f 697 693 50 696
f 685 697 696 49
f 114 688 700 348
f 688 113 698 700
f 700 698 116 699
f 348 700 699 115
f 52 701 703 702
f 701 50 694 703
f 703 694 153 347
f 702 703 347 154
f 50 701 706 696
f 701 52 704 706
f 706 704 51 705
f 696 706 705 49
f 115 699 708 358
f 699 116 707 708
f 708 707 82 365
f 358 708 365 83
f 17 709 710 370
f 709 52 702 710
f 710 702 154 357
f 370 710 357 135
f 52 709 712 704
f 709 17 376 712
f 712 376 19 711
f 704 712 711 51
f 116 698 714 713
f 698 113 679 714
f 714 679 111 665
f 713 714 665 112
f 51 715 716 705
f 715 47 669 716
f 716 669 48 686
f 705 716 686 49
f 116 713 719 707
f 713 112 717 719
f 719 717 117 718
f 707 719 718 82
f 51 711 722 715
f 711 19 720 722
f 722 720 53 721
f 715 722 721 47
f 117 717 724 723
f 717 112 664 724
f 724 664 108 646
f 723 724 646 109
f 53 725 726 721
f 725 44 650 726
f 726 650 45 670
f 721 726 670 47
f 117 723 730 729
f 723 109 727 730
f 730 727 118 728
f 729 730 728 85
f 53 731 734 725
f 731 21 732 734
f 734 732 54 733
f 725 734 733 44
f 117 729 736 718
f 729 85 735 736
f 736 735 81 366
f 718 736 366 82
f 53 720 738 731
f 720 19 375 738
f 738 375 20 737
f 731 738 737 21
f 118 727 740 739
f 727 109 645 740
f 740 645 103 626
f 739 740 626 104
f 54 741 742 733
f 741 39 630 742
f 742 630 40 651
f 733 742 651 44
f 118 739 745 744
f 739 104 743 745
f 745 743 169 518
f 744 745 518 205
f 54 746 748 741
f 746 206 516 748
f 748 516 168 747
f 741 748 747 39
f 118 744 750 728
f 744 205 491 750
f 750 491 184 749
f 728 750 749 85
f 54 732 752 746
f 732 21 751 752
f 752 751 185 486
f 746 752 486 206
f 124 753 754 580
f 753 125 565 754
f 754 565 127 561
f 580 754 561 93
f 145 755 757 756
f 755 166 257 757
f 757 257 178 483
f 756 757 483 176
f 60 584 759 758
f 584 62 548 759
f 759 548 61 534
f 758 759 534 59
f 124 760 761 753
f 760 122 536 761
f 761 536 126 552
f 753 761 552 125
f 145 762 763 755
f 762 173 481 763
f 763 481 177 253
f 755 763 253 166
f 57 764 766 765
f 764 24 476 766
f 766 476 25 505
f 765 766 505 27
f 204 608 768 591
f 608 167 222 768
f 768 222 164 767
f 591 768 767 147
f 101 769 770 683
f 769 80 353 770
f 770 353 78 337
f 683 770 337 79
f 203 587 771 602
f 587 147 767 771
f 771 767 164 233
f 602 771 233 170
f 157 772 774 773
f 772 119 462 774
f 774 462 86 442
f 773 774 442 141
f 43 642 775 550
f 642 37 622 775
f 775 622 38 691
f 550 775 691 16
f 157 773 777 776
f 773 141 448 777
f 777 448 22 468
f 776 777 468 55
f 119 772 780 779
f 772 157 778 780
f 780 778 158 408
f 779 780 408 120
f 106 404 781 640
f 404 80 769 781
f 781 769 101 618
f 640 781 618 102
f 55 782 783 776
f 782 56 399 783
f 783 399 158 778
f 776 783 778 157
f 119 779 786 463
f 779 120 784 786
f 786 784 121 785
f 463 786 785 89
f 55 467 788 782
f 467 24 764 788
f 788 764 57 787
f 782 788 787 56
f 202 789 790 590
f 789 30 597 790
f 790 597 32 609
f 590 790 609 204
f 201 588 792 791
f 588 203 601 792
f 792 601 96 595
f 791 792 595 95
f 121 784 794 793
f 784 120 407 794
f 794 407 123 537
f 793 794 537 122
f 57 795 796 787
f 795 59 533 796
f 796 533 58 400
f 787 796 400 56
f 121 793 798 797
f 793 122 760 798
f 798 760 124 582
f 797 798 582 92
f 57 765 799 795
f 765 27 576 799
f 799 576 60 758
f 795 799 758 59
f 121 797 800 785
f 797 92 499 800
f 800 499 88 470
f 785 800 470 89
f 168 223 801 747
f 223 167 607 801
f 801 607 35 631
f 747 801 631 39
f 169 743 802 232
f 743 104 625 802
f 802 625 99 603
f 232 802 603 170
f 171 803 804 236
f 803 65 494 804
f 804 494 90 509
f 236 804 509 189
f 172 241 806 805
f 241 190 511 806
f 806 511 26 496
f 805 806 496 1
f 174 245 808 569
f 245 173 762 808
f 808 762 145 807
f 569 808 807 144
f 175 572 809 249
f 572 144 807 809
f 809 807 145 756
f 249 809 756 176
f 171 254 810 803
f 254 177 480 810
f 810 480 67 262
f 803 810 262 65
f 172 805 811 256
f 805 1 264 811
f 811 264 3 484
f 256 811 484 178
f 191 524 812 513
f 524 193 556 812
f 812 556 29 577
f 513 812 577 28
f 188 507 813 521
f 507 91 581 813
f 813 581 93 560
f 521 813 560 192
f 180 379 815 430
f 379 179 389 815
f 815 389 137 814
f 430 815 814 139
f 139 816 817 428
f 816 181 384 817
f 428 817 384 182
f 181 816 818 386
f 816 139 814 818
f 818 814 137 396
f 386 818 396 183
f 179 378 819 390
f 378 81 735 819
f 819 735 85 749
f 390 819 749 184
f 183 395 820 387
f 395 185 751 820
f 820 751 21 737
f 387 820 737 20
f 161 459 821 456
f 459 186 416 821
f 456 821 416 187
f 189 508 823 237
f 508 188 520 823
f 823 520 142 822
f 237 823 822 129
f 190 240 824 512
f 240 129 822 824
f 824 822 142 525
f 512 824 525 191
f 202 573 825 789
f 573 175 248 825
f 825 248 31 425
f 789 825 425 30
f 201 791 826 568
f 791 95 436 826
f 826 436 94 246
f 568 826 246 174
g Group61241
f 872 870 875 881
f 920 887 909 927
f 874 872 881 882
f 856 855 849 850
f 837 838 841 840
f 857 851 855 856
f 836 837 840 839
f 848 858 861 853
f 827 828 831 830
f 853 861 862 854
f 828 829 832 831
f 852 865 864 863
f 842 843 846 845
f 855 863 860 849
f 840 841 844 843
f 851 852 863 855
f 839 840 843 842
f 858 866 867 861
f 830 831 834 833
f 861 867 868 862
f 831 832 835 834
f 865 922 923 864
f 925 924 894 895
f 845 846 924 925
f 864 923 919 859
f 924 921 888 894
f 846 847 921 924
f 863 864 859 860
f 843 844 847 846
f 866 857 856 867
f 833 834 837 836
f 867 856 850 868
f 834 835 838 837
f 869 848 853 871
f 870 872 828 827
f 871 853 854 873
f 872 874 829 828
f 878 877 899 900
f 880 879 901 902
f 881 875 897 903
f 882 881 903 904
f 884 883 905 906
f 886 885 907 908
f 887 889 911 909
f 889 878 900 911
f 890 884 906 912
f 885 891 913 907
f 879 892 914 901
f 893 890 912 915
f 895 894 916 917
f 891 896 918 913
f 894 888 910 916
f 892 926 928 914
f 877 893 915 899
f 896 880 902 918
f 876 886 908 898
f 903 897 869 871
f 904 903 871 873
f 917 916 923 922
f 916 910 919 923
f 929 930 887 920
f 850 849 931 932
f 933 934 877 878
f 838 935 936 841
f 927 909 937 938
f 905 939 940
f 941 874 882 942
f 943 944 883 884
f 859 919 945 946
f 929 920 947
f 921 948 949 888
f 847 950 948 921
f 860 859 946 951
f 930 952 889 887
f 844 953 950 847
f 849 860 951 931
f 952 933 878 889
f 841 936 953 844
f 854 862 954 955
f 956 943 884 890
f 829 957 958 832
f 862 868 959 954
f 960 956 890 893
f 832 958 961 835
f 868 850 932 959
f 934 960 893 877
f 835 961 935 838
f 873 854 955 962
f 944 963 883
f 874 941 957 829
f 942 882 904 964
f 947 920 927 965
f 888 949 966 910
f 883 963 939 905
f 900 899 967 968
f 964 904 873 962
f 906 905 940 969
f 965 927 938
f 910 966 945 919
f 909 911 970 937
f 911 900 968 970
f 912 906 969 971
f 915 912 971 972
f 899 915 972 967
f 934 933 936 935
f 946 945 938 937
f 957 941 944 943
f 949 948 929 947
f 930 929 948 950
f 937 970 951 946
f 952 930 950 953
f 933 952 953 936
f 943 956 958 957
f 956 960 961 958
f 967 972 959 932
f 960 934 935 961
f 969 940 962 955
f 941 942 963 944
f 947 965 966 949
f 942 964 939 963
f 932 931 968 967
f 940 939 964 962
f 965 938 945 966
f 931 951 970 968
f 955 954 971 969
f 954 959 972 971
f 926 973 974 928
f 870 975 976 875
f 977 876 978
f 979 980 852 851
f 981 982 879 880
f 983 839 842 984
f 985 973 926
f 928 974 986
f 898 908 987 988
f 989 990 858 848
f 991 992 885 886
f 993 827 830 994
f 990 995 866 858
f 992 996 891 885
f 994 830 833 997
f 980 998 865 852
f 982 999 892 879
f 984 842 845 1000
f 995 1001 857 866
f 996 1002 896 891
f 997 833 836 1003
f 998 1004 922 865
f 1005 925 895 1006
f 999 985 926 892
f 1000 845 925 1005
f 1001 979 851 857
f 1002 981 880 896
f 1003 836 839 983
f 1007 989 848 869
f 977 991 886 876
f 975 870 827 993
f 875 976 1008 897
f 978 876 898 1009
f 1006 895 917 1010
f 897 1008 1007 869
f 1009 898 988
f 902 901 1011 1012
f 908 907 1013 987
f 907 913 1014 1013
f 901 914 1015 1011
f 913 918 1016 1014
f 1010 917 922 1004
f 914 928 986 1015
f 918 902 1012 1016
f 1006 1010 974 973
f 977 978 976 975
f 983 984 982 981
f 1010 1004 986 974
f 989 1007 988 987
f 987 1013 990 989
f 993 994 992 991
f 1013 1014 995 990
f 994 997 996 992
f 1011 1015 998 980
f 984 1000 999 982
f 1014 1016 1001 995
f 997 1003 1002 996
f 1015 986 1004 998
f 973 985 1005 1006
f 1000 1005 985 999
f 1003 983 981 1002
f 991 977 975 993
f 978 1009 1008 976
f 1007 1008 1009 988
f 980 979 1012 1011
f 979 1001 1016 1012
g Group14622
f 1054 1063 1062 1053
f 1017 1026 1063 1054
f 1017 1018 1027 1026
f 1055 1064 1191 1192
f 1019 1193 1194 1028
f 1056 1065 1205 1206
f 1020 1207 1208 1029
f 1057 1066 1219 1220
f 1021 1221 1222 1030
f 1058 1067 1233 1234
f 1022 1235 1236 1031
f 1059 1068 1247 1248
f 1023 1249 1250 1032
f 1063 1052 1051 1062
f 1026 1035 1052 1063
f 1026 1027 1036 1035
f 1064 1050 1195 1191
f 1028 1194 1196 1037
f 1065 1049 1209 1205
f 1029 1208 1210 1038
f 1066 1048 1223 1219
f 1030 1222 1224 1039
f 1067 1047 1237 1233
f 1031 1236 1238 1040
f 1068 1046 1251 1247
f 1032 1250 1252 1041
f 1076 1080 1079 1075
f 1070 1061 1075 1079
f 1060 1069 1080 1076
f 1077 1078 1082 1081
f 1033 1024 1077 1081
f 1025 1034 1082 1078
f 1080 1072 1071 1079
f 1044 1070 1079 1071
f 1069 1045 1072 1080
f 1081 1082 1073 1074
f 1042 1033 1081 1074
f 1034 1043 1073 1082
f 1083 1054 1053 1084
f 1085 1086 1087 1088
f 1089 1017 1054 1083
f 1089 1090 1018 1017
f 1091 1055 1192 1197
f 1094 1200 1193 1019
f 1095 1056 1206 1211
f 1098 1214 1207 1020
f 1099 1057 1220 1225
f 1102 1228 1221 1021
f 1103 1058 1234 1239
f 1106 1242 1235 1022
f 1107 1059 1248 1253
f 1112 1261 1262 1113
f 1110 1256 1249 1023
f 1117 1076 1075 1118
f 1061 1116 1118 1075
f 1111 1060 1076 1117
f 1119 1120 1121 1122
f 1123 1124 1119 1122
f 1112 1113 1121 1120
f 1125 1126 1078 1077
f 1024 1114 1125 1077
f 1115 1025 1078 1126
f 1088 1087 1083 1084
f 1089 1083 1087 1086
f 1086 1085 1090 1089
f 1091 1197 1199 1093
f 1092 1198 1200 1094
f 1095 1211 1213 1097
f 1096 1212 1214 1098
f 1099 1225 1227 1101
f 1100 1226 1228 1102
f 1103 1239 1241 1105
f 1104 1240 1242 1106
f 1107 1253 1255 1109
f 1108 1254 1256 1110
f 1124 1123 1116 1115
f 1122 1121 1117 1118
f 1123 1122 1118 1116
f 1115 1126 1119 1124
f 1111 1117 1121 1113
f 1120 1119 1126 1125
f 1112 1120 1125 1114
f 1046 1129 1257 1251
f 1131 1258 1259 1134
f 1041 1252 1260 1136
f 1047 1137 1243 1237
f 1138 1244 1245 1139
f 1040 1238 1246 1140
f 1048 1141 1229 1223
f 1142 1230 1231 1143
f 1039 1224 1232 1144
f 1049 1145 1215 1209
f 1146 1216 1217 1147
f 1038 1210 1218 1148
f 1050 1149 1201 1195
f 1150 1202 1203 1151
f 1037 1196 1204 1152
f 1052 1157 1153 1051
f 1158 1154 1155 1159
f 1035 1160 1157 1052
f 1035 1036 1156 1160
f 1072 1161 1162 1071
f 1128 1044 1071 1162
f 1045 1130 1161 1072
f 1163 1164 1165 1166
f 1133 1132 1163 1166
f 1167 1168 1165 1164
f 1074 1073 1169 1170
f 1135 1042 1074 1170
f 1043 1127 1169 1073
f 1130 1263 1264 1133
f 1136 1260 1258 1131
f 1140 1246 1244 1138
f 1144 1232 1230 1142
f 1148 1218 1216 1146
f 1152 1204 1202 1150
f 1153 1157 1159 1155
f 1160 1156 1154 1158
f 1158 1159 1157 1160
f 1133 1166 1161 1130
f 1162 1161 1166 1165
f 1135 1170 1163 1132
f 1128 1162 1165 1168
f 1127 1128 1168 1167
f 1164 1163 1170 1169
f 1167 1164 1169 1127
f 1171 1172 1173 1174
f 1061 1070 1175 1176
f 1034 1025 1177 1178
f 1179 1171 1174 1180
f 1070 1044 1181 1175
f 1043 1034 1178 1182
f 1172 1183 1184 1173
f 1116 1061 1176 1185
f 1115 1116 1185 1186
f 1025 1115 1186 1177
f 1187 1179 1180 1188
f 1128 1127 1189 1190
f 1044 1128 1190 1181
f 1127 1043 1182 1189
f 1174 1173 1176 1175
f 1172 1171 1178 1177
f 1175 1181 1180 1174
f 1171 1179 1182 1178
f 1177 1186 1183 1172
f 1173 1184 1185 1176
f 1184 1183 1186 1185
f 1190 1189 1187 1188
f 1181 1190 1188 1180
f 1179 1187 1189 1182
f 1198 1092 1093 1199
f 1201 1149 1151 1203
f 1212 1096 1097 1213
f 1215 1145 1147 1217
f 1226 1100 1101 1227
f 1229 1141 1143 1231
f 1240 1104 1105 1241
f 1243 1137 1139 1245
f 1254 1108 1109 1255
f 1257 1129 1134 1259
f 1266 1265 1069 1060
f 1267 1024 1033 1268
f 1265 1269 1045 1069
f 1268 1033 1042 1270
f 1271 1266 1060 1111
f 1272 1114 1024 1267
f 1271 1111 1113 1262
f 1261 1112 1114 1272
f 1269 1263 1130 1045
f 1273 1132 1133 1264
f 1270 1042 1135 1274
f 1274 1135 1132 1273
f 1053 1062 1277 1278
f 1027 1018 1281 1282
f 1062 1051 1284 1277
f 1036 1027 1282 1286
f 1084 1053 1278 1288
f 1085 1088 1291 1292
f 1018 1090 1294 1281
f 1088 1084 1288 1291
f 1090 1085 1292 1294
f 1051 1153 1296 1284
f 1155 1154 1299 1300
f 1156 1036 1286 1302
f 1153 1155 1300 1296
f 1154 1156 1302 1299
f 1276 1275 1278 1277
f 1282 1281 1279 1280
f 1277 1284 1283 1276
f 1280 1285 1286 1282
f 1275 1287 1288 1278
f 1290 1289 1292 1291
f 1281 1294 1293 1279
f 1287 1290 1291 1288
f 1289 1293 1294 1292
f 1284 1296 1295 1283
f 1300 1299 1297 1298
f 1285 1301 1302 1286
f 1296 1300 1298 1295
f 1299 1302 1301 1297
f 1064 1055 1303 1304
f 1019 1028 1305 1306
f 1050 1064 1304 1307
f 1028 1037 1308 1305
f 1055 1091 1309 1303
f 1093 1092 1310 1311
f 1094 1019 1306 1312
f 1091 1093 1311 1309
f 1092 1094 1312 1310
f 1149 1050 1307 1313
f 1150 1151 1314 1315
f 1037 1152 1316 1308
f 1151 1149 1313 1314
f 1152 1150 1315 1316
f 1275 1276 1317 1318
f 1279 1319 1320 1280
f 1276 1283 1321 1317
f 1280 1320 1322 1285
f 1287 1275 1318 1323
f 1324 1289 1290 1325
f 1293 1326 1319 1279
f 1287 1323 1325 1290
f 1289 1324 1326 1293
f 1283 1295 1327 1321
f 1297 1328 1329 1298
f 1285 1322 1330 1301
f 1327 1295 1298 1329
f 1301 1330 1328 1297
f 1318 1317 1304 1303
f 1320 1319 1306 1305
f 1317 1321 1307 1304
f 1319 1326 1312 1306
f 1321 1327 1313 1307
f 1329 1328 1315 1314
f 1327 1329 1314 1313
f 1328 1330 1316 1315
f 1305 1308 1322 1320
f 1303 1309 1323 1318
f 1311 1310 1324 1325
f 1309 1311 1325 1323
f 1310 1312 1326 1324
f 1308 1316 1330 1322
f 1198 1199 1333 1334
f 1201 1203 1337 1338
f 1192 1191 1341 1342
f 1194 1193 1345 1346
f 1191 1195 1348 1341
f 1196 1194 1346 1350
f 1197 1192 1342 1352
f 1193 1200 1354 1345
f 1199 1197 1352 1333
f 1200 1198 1334 1354
f 1195 1201 1338 1348
f 1203 1202 1356 1337
f 1204 1196 1350 1358
f 1202 1204 1358 1356
f 1332 1331 1334 1333
f 1336 1335 1338 1337
f 1340 1339 1342 1341
f 1346 1345 1343 1344
f 1341 1348 1347 1340
f 1344 1349 1350 1346
f 1339 1351 1352 1342
f 1345 1354 1353 1343
f 1333 1352 1351 1332
f 1331 1353 1354 1334
f 1335 1347 1348 1338
f 1337 1356 1355 1336
f 1349 1357 1358 1350
f 1356 1358 1357 1355
f 1097 1096 1359 1360
f 1147 1145 1361 1362
f 1065 1056 1363 1364
f 1020 1029 1365 1366
f 1049 1065 1364 1367
f 1029 1038 1368 1365
f 1056 1095 1369 1363
f 1098 1020 1366 1370
f 1095 1097 1360 1369
f 1096 1098 1370 1359
f 1145 1049 1367 1361
f 1146 1147 1362 1371
f 1038 1148 1372 1368
f 1148 1146 1371 1372
f 1373 1331 1332 1374
f 1375 1335 1336 1376
f 1339 1340 1377 1378
f 1343 1379 1380 1344
f 1340 1347 1381 1377
f 1344 1380 1382 1349
f 1351 1339 1378 1383
f 1353 1384 1379 1343
f 1351 1383 1374 1332
f 1331 1373 1384 1353
f 1347 1335 1375 1381
f 1355 1385 1376 1336
f 1349 1382 1386 1357
f 1357 1386 1385 1355
f 1378 1377 1364 1363
f 1380 1379 1366 1365
f 1377 1381 1367 1364
f 1379 1384 1370 1366
f 1374 1383 1369 1360
f 1376 1385 1371 1362
f 1385 1386 1372 1371
f 1360 1359 1373 1374
f 1362 1361 1375 1376
f 1365 1368 1382 1380
f 1363 1369 1383 1378
f 1359 1370 1384 1373
f 1361 1367 1381 1375
f 1368 1372 1386 1382
f 1212 1213 1389 1390
f 1215 1217 1393 1394
f 1206 1205 1397 1398
f 1208 1207 1401 1402
f 1205 1209 1404 1397
f 1210 1208 1402 1406
f 1211 1206 1398 1408
f 1207 1214 1410 1401
f 1213 1211 1408 1389
f 1214 1212 1390 1410
f 1209 1215 1394 1404
f 1217 1216 1412 1393
f 1218 1210 1406 1414
f 1216 1218 1414 1412
f 1388 1387 1390 1389
f 1392 1391 1394 1393
f 1396 1395 1398 1397
f 1402 1401 1399 1400
f 1397 1404 1403 1396
f 1400 1405 1406 1402
f 1395 1407 1408 1398
f 1401 1410 1409 1399
f 1389 1408 1407 1388
f 1387 1409 1410 1390
f 1391 1403 1404 1394
f 1393 1412 1411 1392
f 1405 1413 1414 1406
f 1412 1414 1413 1411
f 1101 1100 1415 1416
f 1143 1141 1417 1418
f 1066 1057 1419 1420
f 1021 1030 1421 1422
f 1048 1066 1420 1423
f 1030 1039 1424 1421
f 1057 1099 1425 1419
f 1102 1021 1422 1426
f 1099 1101 1416 1425
f 1100 1102 1426 1415
f 1141 1048 1423 1417
f 1142 1143 1418 1427
f 1039 1144 1428 1424
f 1144 1142 1427 1428
f 1429 1387 1388 1430
f 1431 1391 1392 1432
f 1395 1396 1433 1434
f 1399 1435 1436 1400
f 1396 1403 1437 1433
f 1400 1436 1438 1405
f 1407 1395 1434 1439
f 1409 1440 1435 1399
f 1407 1439 1430 1388
f 1387 1429 1440 1409
f 1403 1391 1431 1437
f 1411 1441 1432 1392
f 1405 1438 1442 1413
f 1413 1442 1441 1411
f 1434 1433 1420 1419
f 1436 1435 1422 1421
f 1433 1437 1423 1420
f 1435 1440 1426 1422
f 1430 1439 1425 1416
f 1432 1441 1427 1418
f 1441 1442 1428 1427
f 1416 1415 1429 1430
f 1418 1417 1431 1432
f 1421 1424 1438 1436
f 1419 1425 1439 1434
f 1415 1426 1440 1429
f 1417 1423 1437 1431
f 1424 1428 1442 1438
f 1226 1227 1445 1446
f 1229 1231 1449 1450
f 1220 1219 1453 1454
f 1222 1221 1457 1458
f 1219 1223 1460 1453
f 1224 1222 1458 1462
f 1225 1220 1454 1464
f 1221 1228 1466 1457
f 1227 1225 1464 1445
f 1228 1226 1446 1466
f 1223 1229 1450 1460
f 1231 1230 1468 1449
f 1232 1224 1462 1470
f 1230 1232 1470 1468
f 1444 1443 1446 1445
f 1448 1447 1450 1449
f 1452 1451 1454 1453
f 1458 1457 1455 1456
f 1453 1460 1459 1452
f 1456 1461 1462 1458
f 1451 1463 1464 1454
f 1457 1466 1465 1455
f 1445 1464 1463 1444
f 1443 1465 1466 1446
f 1447 1459 1460 1450
f 1449 1468 1467 1448
f 1461 1469 1470 1462
f 1468 1470 1469 1467
f 1105 1104 1471 1472
f 1139 1137 1473 1474
f 1067 1058 1475 1476
f 1022 1031 1477 1478
f 1047 1067 1476 1479
f 1031 1040 1480 1477
f 1058 1103 1481 1475
f 1106 1022 1478 1482
f 1103 1105 1472 1481
f 1104 1106 1482 1471
f 1137 1047 1479 1473
f 1138 1139 1474 1483
f 1040 1140 1484 1480
f 1140 1138 1483 1484
f 1485 1443 1444 1486
f 1487 1447 1448 1488
f 1451 1452 1489 1490
f 1455 1491 1492 1456
f 1452 1459 1493 1489
f 1456 1492 1494 1461
f 1463 1451 1490 1495
f 1465 1496 1491 1455
f 1463 1495 1486 1444
f 1443 1485 1496 1465
f 1459 1447 1487 1493
f 1467 1497 1488 1448
f 1461 1494 1498 1469
f 1469 1498 1497 1467
f 1490 1489 1476 1475
f 1492 1491 1478 1477
f 1489 1493 1479 1476
f 1491 1496 1482 1478
f 1486 1495 1481 1472
f 1488 1497 1483 1474
f 1497 1498 1484 1483
f 1472 1471 1485 1486
f 1474 1473 1487 1488
f 1477 1480 1494 1492
f 1475 1481 1495 1490
f 1471 1482 1496 1485
f 1473 1479 1493 1487
f 1480 1484 1498 1494
f 1240 1241 1501 1502
f 1243 1245 1505 1506
f 1234 1233 1509 1510
f 1236 1235 1513 1514
f 1233 1237 1516 1509
f 1238 1236 1514 1518
f 1239 1234 1510 1520
f 1235 1242 1522 1513
f 1241 1239 1520 1501
f 1242 1240 1502 1522
f 1237 1243 1506 1516
f 1245 1244 1524 1505
f 1246 1238 1518 1526
f 1244 1246 1526 1524
f 1500 1499 1502 1501
f 1504 1503 1506 1505
f 1508 1507 1510 1509
f 1514 1513 1511 1512
f 1509 1516 1515 1508
f 1512 1517 1518 1514
f 1507 1519 1520 1510
f 1513 1522 1521 1511
f 1501 1520 1519 1500
f 1499 1521 1522 1502
f 1503 1515 1516 1506
f 1505 1524 1523 1504
f 1517 1525 1526 1518
f 1524 1526 1525 1523
f 1109 1108 1527 1528
f 1134 1129 1529 1530
f 1068 1059 1531 1532
f 1023 1032 1533 1534
f 1046 1068 1532 1535
f 1032 1041 1536 1533
f 1059 1107 1537 1531
f 1110 1023 1534 1538
f 1107 1109 1528 1537
f 1108 1110 1538 1527
f 1129 1046 1535 1529
f 1131 1134 1530 1539
f 1041 1136 1540 1536
f 1136 1131 1539 1540
f 1541 1499 1500 1542
f 1543 1503 1504 1544
f 1507 1508 1545 1546
f 1511 1547 1548 1512
f 1508 1515 1549 1545
f 1512 1548 1550 1517
f 1519 1507 1546 1551
f 1521 1552 1547 1511
f 1519 1551 1542 1500
f 1499 1541 1552 1521
f 1515 1503 1543 1549
f 1523 1553 1544 1504
f 1517 1550 1554 1525
f 1525 1554 1553 1523
f 1546 1545 1532 1531
f 1548 1547 1534 1533
f 1545 1549 1535 1532
f 1547 1552 1538 1534
f 1542 1551 1537 1528
f 1544 1553 1539 1530
f 1553 1554 1540 1539
f 1528 1527 1541 1542
f 1530 1529 1543 1544
f 1533 1536 1550 1548
f 1531 1537 1551 1546
f 1527 1538 1552 1541
f 1529 1535 1549 1543
f 1536 1540 1554 1550
f 1248 1247 1557 1558
f 1250 1249 1561 1562
f 1247 1251 1564 1557
f 1252 1250 1562 1566
f 1253 1248 1558 1568
f 1249 1256 1570 1561
f 1255 1253 1568 1572
f 1256 1254 1574 1570
f 1251 1257 1576 1564
f 1259 1258 1579 1580
f 1260 1252 1566 1582
f 1258 1260 1582 1579
f 1254 1255 1572 1574
f 1257 1259 1580 1576
f 1556 1555 1558 1557
f 1562 1561 1559 1560
f 1557 1564 1563 1556
f 1560 1565 1566 1562
f 1555 1567 1568 1558
f 1561 1570 1569 1559
f 1567 1571 1572 1568
f 1570 1574 1573 1569
f 1564 1576 1575 1563
f 1580 1579 1577 1578
f 1565 1581 1582 1566
f 1579 1582 1581 1577
f 1571 1573 1574 1572
f 1576 1580 1578 1575
f 1265 1266 1583 1584
f 1267 1268 1585 1586
f 1269 1265 1584 1587
f 1268 1270 1588 1585
f 1266 1271 1589 1583
f 1272 1267 1586 1590
f 1271 1262 1591 1589
f 1261 1272 1590 1592
f 1263 1269 1587 1593
f 1273 1264 1594 1595
f 1270 1274 1596 1588
f 1274 1273 1595 1596
f 1262 1261 1592 1591
f 1264 1263 1593 1594
f 1555 1556 1597 1598
f 1559 1599 1600 1560
f 1556 1563 1601 1597
f 1560 1600 1602 1565
f 1567 1555 1598 1603
f 1569 1604 1599 1559
f 1567 1603 1605 1571
f 1573 1606 1604 1569
f 1563 1575 1607 1601
f 1577 1608 1609 1578
f 1565 1602 1610 1581
f 1581 1610 1608 1577
f 1606 1573 1571 1605
f 1607 1575 1578 1609
f 1598 1597 1584 1583
f 1600 1599 1586 1585
f 1597 1601 1587 1584
f 1599 1604 1590 1586
f 1604 1606 1592 1590
f 1601 1607 1593 1587
f 1609 1608 1595 1594
f 1608 1610 1596 1595
f 1607 1609 1594 1593
f 1585 1588 1602 1600
f 1583 1589 1603 1598
f 1589 1591 1605 1603
f 1588 1596 1610 1602
f 1591 1592 1606 1605

 