# File exported by ZBrush version 2021
# www.zbrush.com
#Vertex Count 901
#Face Count 934
#Auto scale x=0.559301 y=0.559301 z=0.559301
#Auto offset x=4.142220 y=0.137334 z=0.043944
v -7.94095994 -1.37509764 -0.00469558
v -7.85377186 -1.37509764 -0.00469558
v -7.67939538 -1.37509764 -0.00469558
v -7.93782423 -1.43190163 -0.00549367
v -7.85094392 -1.43190163 -0.00549367
v -7.67718267 -1.43190163 -0.00549367
v -7.93782423 -1.50866339 -0.00549367
v -7.85094392 -1.50866339 -0.00549367
v -7.67718267 -1.50866339 -0.00549367
v -7.93782423 -1.58542323 -0.00549367
v -7.85094392 -1.58542323 -0.00549367
v -7.67718267 -1.58542323 -0.00549367
v -7.93678837 -1.65557361 -0.00575741
v -7.8500093 -1.65557361 -0.00575741
v -7.67645096 -1.65557361 -0.00575741
v -7.93678837 -1.73233186 -0.00575741
v -7.8500093 -1.73233186 -0.00575741
v -7.67645096 -1.73233186 -0.00575741
v -7.93678837 -1.8090901 -0.00575741
v -7.8500093 -1.8090901 -0.00575741
v -7.67645096 -1.8090901 -0.00575741
v -7.93782423 -1.89246665 -0.00549367
v -7.85094392 -1.89246665 -0.00549367
v -7.67718267 -1.89246665 -0.00549367
v -7.93782423 -1.96922671 -0.00549367
v -7.85094392 -1.96922671 -0.00549367
v -7.67718267 -1.96922671 -0.00549367
v -8.13423669 2.86881727 -0.03292575
v -7.68277178 2.7018116 -0.00442839
v -7.33587024 2.34154739 -0.00442839
v -7.26208327 2.38295576 -0.00442839
v -7.16378107 2.43149877 -0.00442839
v -6.9518545 1.87882645 -0.00442839
v -6.86610304 1.90763102 -0.00442839
v -6.70787829 1.96137208 -0.00442839
v -6.70598646 1.36737623 -0.00442839
v -6.62074899 1.3811442 -0.00442839
v -6.45030526 1.40866865 -0.00442839
v -6.62637076 0.82854308 -0.00442839
v -6.53765133 0.82845569 -0.00442839
v -6.36306874 0.82845569 -0.00442839
v -6.70597058 0.28953302 -0.00442839
v -6.62074899 0.27577101 -0.00442839
v -6.45030526 0.24824657 -0.00442839
v -6.94856181 -0.22238696 -0.00442839
v -6.86610581 -0.25072133 -0.00442839
v -6.70788106 -0.30446197 -0.00442839
v -7.33133952 -0.68733733 -0.00442839
v -7.2620862 -0.72604437 -0.00442839
v -7.1235787 -0.80345716 -0.00442839
v -7.89295852 -1.07820564 -0.00442839
v -7.79878004 -1.1199885 -0.00442839
v -7.67695938 -1.21841422 -0.00469558
v -7.85094392 -1.89246665 -0.13876397
v -7.85094392 -1.96922671 -0.13876397
v -7.93782423 -1.96922671 -0.13876397
v -7.93782423 -1.89246665 -0.13876397
v -7.94095994 -1.37509764 -0.13778983
v -7.93782423 -1.43190163 -0.13876397
v -7.93678837 -1.73233186 -0.13908592
v -7.93678837 -1.8090901 -0.13908592
v -7.85377186 -1.37509764 -0.13778983
v -7.85094392 -1.43190163 -0.13876397
v -7.67939538 -1.37509764 -0.13779138
v -7.67718267 -1.43190163 -0.13876555
v -7.67718267 -1.58542323 -0.13876555
v -7.67645096 -1.65557361 -0.13908755
v -7.8500093 -1.65557361 -0.13908592
v -7.85094392 -1.58542323 -0.13876397
v -7.93678837 -1.65557361 -0.13908592
v -7.93782423 -1.58542323 -0.13876397
v -7.67645096 -1.8090901 -0.13908755
v -7.67718267 -1.89246665 -0.13876555
v -7.8500093 -1.8090901 -0.13908592
v -7.93782423 -1.50866339 -0.13876397
v -7.67645096 -1.73233186 -0.13908755
v -7.8500093 -1.73233186 -0.13908592
v -7.85094392 -1.50866339 -0.13876397
v -7.67718267 -1.50866339 -0.13876555
v -7.67718267 -1.96922671 -0.13876555
v -7.2620862 -0.72604437 -0.13746375
v -7.79878004 -1.1199885 -0.13746375
v -7.89295852 -1.07820564 -0.13746375
v -7.33133952 -0.68733733 -0.13746375
v -8.13851729 2.86696381 -0.1156787
v -7.33587024 2.34154739 -0.13746375
v -6.62074899 0.27577101 -0.13746375
v -6.86610581 -0.25072133 -0.13746375
v -6.94856181 -0.22238696 -0.13746375
v -6.70597058 0.28953302 -0.13746375
v -7.68277178 2.7018116 -0.13746375
v -7.26208327 2.38295576 -0.13746375
v -7.16378107 2.43149877 -0.1374653
v -6.45030526 1.40866865 -0.1374653
v -6.36306874 0.82845569 -0.1374653
v -6.53765133 0.82845569 -0.13746375
v -6.62074899 1.3811442 -0.13746375
v -6.62637076 0.82854308 -0.13746375
v -6.70598646 1.36737623 -0.13746375
v -6.45030526 0.24824657 -0.1374653
v -6.70788106 -0.30446197 -0.1374653
v -6.9518545 1.87882645 -0.13746375
v -6.86610304 1.90763102 -0.13746375
v -6.70787829 1.96137208 -0.1374653
v -7.1235787 -0.80345716 -0.1374653
v -7.67695938 -1.21841422 -0.13779138
v -7.85094392 -1.96922671 -0.0766282
v -7.93782423 -1.96922671 -0.0766282
v -8.0247048 -1.43190163 -0.0766282
v -8.02814797 -1.37509764 -0.07573617
v -8.02356738 -1.8090901 -0.07692303
v -8.02356738 -1.73233186 -0.07692303
v -7.67939538 -1.37509764 -0.07573699
v -7.67718267 -1.43190163 -0.07662906
v -7.67718267 -1.58542323 -0.07662906
v -7.67645096 -1.65557361 -0.07692387
v -7.67645096 -1.8090901 -0.07692387
v -7.67718267 -1.89246665 -0.07662906
v -8.0247048 -1.89246665 -0.0766282
v -8.0247048 -1.50866339 -0.0766282
v -7.67645096 -1.73233186 -0.07692387
v -7.67718267 -1.50866339 -0.07662906
v -8.02356738 -1.65557361 -0.07692303
v -8.0247048 -1.58542323 -0.0766282
v -8.0247048 -1.96922671 -0.0766282
v -7.67718267 -1.96922671 -0.07662906
v -8.44906185 2.92660118 -0.08501084
v -8.13764309 2.8671842 -0.07533231
v -7.4620232 2.26893109 -0.07543751
v -7.68277178 2.7018116 -0.07543751
v -7.16378107 2.43149877 -0.07543836
v -6.45030526 1.40866865 -0.07543836
v -6.36306874 0.82845569 -0.07543836
v -6.45030526 0.24824657 -0.07543836
v -6.70788106 -0.30446197 -0.07543836
v -7.45748252 -0.61237021 -0.07543751
v -7.11232348 -0.1585226 -0.07543751
v -7.12068058 1.82581731 -0.07543751
v -8.10006277 -1.05613076 -0.07543751
v -6.70787829 1.96137208 -0.07543836
v -7.1235787 -0.80345716 -0.07543836
v -6.81463543 0.83467255 -0.07543751
v -6.86388138 1.33241022 -0.07543751
v -6.86561367 0.31775188 -0.07543751
v -7.67695938 -1.21841422 -0.07573699
v -7.71094979 -1.93600514 0.01563297
v -7.71965173 -1.99791991 0.01563297
v -7.72835188 -2.05983478 0.01563297
v -7.73705382 -2.12175124 0.01563297
v -7.74575576 -2.1836626 0.01563297
v -7.8457359 -1.92658085 0.01563297
v -7.8457359 -1.98910178 0.01563297
v -7.8457359 -2.05162634 0.01563297
v -7.8457359 -2.11415068 0.01563297
v -7.8457359 -2.17667161 0.01563297
v -7.98052199 -1.93600514 0.01563297
v -7.97182183 -1.9979181 0.01563297
v -7.96311992 -2.05983478 0.01563297
v -7.95441982 -2.12175124 0.01563297
v -7.94571786 -2.1836626 0.01563297
v -7.71965173 -1.99791991 -0.17277185
v -7.71094979 -1.93600514 -0.17277185
v -7.8457359 -1.98910178 -0.17277185
v -7.97182183 -1.9979181 -0.17277185
v -7.98052199 -1.93600514 -0.17277185
v -7.8457359 -1.92658085 -0.17277185
v -7.72835188 -2.05983478 -0.17277185
v -7.8457359 -2.05162634 -0.17277185
v -7.74575576 -2.1836626 -0.17277185
v -7.8457359 -2.17667161 -0.17277185
v -7.8457359 -2.11414897 -0.17277185
v -7.73705382 -2.12174954 -0.17277185
v -7.96311992 -2.05983478 -0.17277185
v -7.95441982 -2.12174954 -0.17277185
v -7.94571786 -2.1836626 -0.17277185
v -8.05070785 -1.94851901 -0.17277185
v -8.03747704 -2.00962384 -0.17277185
v -8.05070785 -1.94851901 0.01563297
v -8.03747704 -2.00962384 0.01563297
v -8.02424442 -2.07073219 -0.17277185
v -8.02424442 -2.07073219 0.01563297
v -8.01101185 -2.13183894 -0.17277185
v -8.01101185 -2.13183894 0.01563297
v -7.99777928 -2.19294547 -0.17277185
v -7.99777928 -2.19294547 0.01563297
v -7.64063525 -1.94854757 -0.17277185
v -7.65387498 -2.00965069 -0.17277185
v -7.64063525 -1.94854757 0.01563297
v -7.65387498 -2.00965069 0.01563297
v -7.66711651 -2.07075734 -0.17277185
v -7.66711651 -2.07075734 0.01563297
v -7.68035627 -2.13186217 -0.17277185
v -7.68035805 -2.13186387 0.01563297
v -7.69359779 -2.1929653 -0.17277185
v -7.69359779 -2.1929653 0.01563297
v -7.57878661 -1.96409739 -0.04091082
v -7.59601884 -2.02419738 -0.04091082
v -7.64063525 -1.94854757 -0.04091082
v -7.98052199 -1.93600514 -0.04091082
v -7.8457359 -1.92658085 -0.04091082
v -7.61325286 -2.08429917 -0.04091082
v -7.74575576 -2.1836626 -0.04091082
v -7.8457359 -2.17667161 -0.04091082
v -7.63048686 -2.14440097 -0.04091082
v -7.64772086 -2.20450106 -0.04091082
v -7.69359779 -2.1929653 -0.04091082
v -8.09545298 -2.02419738 -0.04091082
v -8.11268517 -1.96409739 -0.04091082
v -8.05070785 -1.94851901 -0.04091082
v -7.94571786 -2.1836626 -0.04091082
v -8.07821898 -2.08429917 -0.04091082
v -8.06098492 -2.14439927 -0.04091082
v -7.99777928 -2.19294547 -0.04091082
v -8.04375097 -2.20450106 -0.04091082
v -7.71094979 -1.93600514 -0.04091082
v -7.57878661 -1.96409739 -0.11036895
v -7.59601884 -2.02419738 -0.11036895
v -7.64063525 -1.94854757 -0.11036895
v -7.98052199 -1.93600514 -0.11036895
v -7.8457359 -1.92658085 -0.11036895
v -7.61325286 -2.08429917 -0.11036895
v -7.74575576 -2.1836626 -0.11036895
v -7.8457359 -2.17667161 -0.11036895
v -7.63048686 -2.14440097 -0.11036895
v -7.64772086 -2.20450106 -0.11036895
v -7.69359779 -2.1929653 -0.11036895
v -8.09545298 -2.02419738 -0.11036895
v -8.11268517 -1.96409739 -0.11036895
v -8.05070785 -1.94851901 -0.11036895
v -7.94571786 -2.1836626 -0.11036895
v -8.07821898 -2.08429917 -0.11036895
v -8.06098492 -2.14439927 -0.11036895
v -7.99777928 -2.19294547 -0.11036895
v -8.04375097 -2.20450106 -0.11036895
v -7.71094979 -1.93600514 -0.11036895
v -7.49103065 -2.00542754 -0.14972879
v -7.60543774 -1.97476067 -0.26851993
v -7.60816436 -1.95671135 -0.25297194
v -7.50142397 -1.98513973 -0.14332258
v -7.49104137 -2.00546506 0.00123106
v -7.60809642 -1.97409376 0.11138105
v -7.50127557 -1.98521475 -0.00555598
v -7.61044935 -1.95613737 0.09567753
v -7.8457359 -1.94343051 -0.26851993
v -7.97817798 -1.95269026 -0.26851993
v -7.98052199 -1.93600514 -0.25167032
v -7.8457359 -1.92658085 -0.25167032
v -7.8457359 -1.94343051 0.11138105
v -7.97817798 -1.95269026 0.11138105
v -7.8457359 -1.92658085 0.09453145
v -7.98052199 -1.93600514 0.09453145
v -8.20044292 -2.00542573 -0.149786
v -8.08585173 -1.97471602 -0.26851993
v -8.1900514 -1.98513973 -0.14337264
v -8.08312865 -1.95666841 -0.25296837
v -8.08319483 -1.9740491 0.11138105
v -8.20043226 -2.00546324 0.00129006
v -8.08084726 -1.95609453 0.09567396
v -8.19019985 -1.98521305 -0.00550412
v -7.71329558 -1.95269026 -0.26851993
v -7.71094979 -1.93600514 -0.25167032
v -7.71329558 -1.95269026 0.11138105
v -7.71094979 -1.93600514 0.09453145
v -7.51788559 -2.04544891 -0.14365156
v -7.62108227 -2.01789665 -0.25376938
v -7.62338515 -2.01731733 0.09648389
v -7.51774613 -2.04552052 -0.00520733
v -7.8457359 -1.98910178 -0.2525357
v -7.97182183 -1.9979181 -0.2525357
v -7.97182183 -1.9979181 0.09539682
v -7.8457359 -1.98910178 0.09539682
v -8.07022149 -2.0178537 -0.25376581
v -8.17359157 -2.0454472 -0.14370164
v -8.17373107 -2.04552052 -0.00515547
v -8.06791857 -2.0172762 0.09648032
v -7.71965173 -1.99791991 -0.2525357
v -7.71965173 -1.99791991 0.09539682
v -7.61172595 -2.00377731 -0.26851993
v -7.49921407 -2.03396323 -0.14972879
v -7.4992248 -2.03400074 0.00123106
v -7.61438283 -2.00310858 0.11138105
v -7.97404605 -1.98208948 -0.26851993
v -7.8457359 -1.97311758 -0.26851993
v -7.8457359 -1.97311758 0.11138105
v -7.97404605 -1.98208948 0.11138105
v -8.19225953 -2.03396131 -0.149786
v -8.0795689 -2.00373074 -0.26851993
v -8.076912 -2.00306382 0.11138105
v -8.19224876 -2.03399882 0.00129006
v -7.71742754 -1.98209129 -0.26851993
v -7.71742754 -1.98209129 0.11138105
v -7.8419133 -2.12100398 -0.07655889
v -7.8419133 -2.12100398 -0.15014538
v -7.86489733 -2.11433313 -0.14873291
v -7.88699636 -2.10791805 -0.14454375
v -7.90736282 -2.10200512 -0.13774419
v -7.92521546 -2.09682199 -0.12859349
v -7.93986589 -2.09256836 -0.11744207
v -7.9507527 -2.0894092 -0.10471904
v -7.95745749 -2.08746387 -0.09091431
v -7.95972104 -2.08680762 -0.07655889
v -7.95745749 -2.08746387 -0.06220168
v -7.9507527 -2.0894092 -0.04839695
v -7.93986589 -2.09256836 -0.03567571
v -7.92521546 -2.09682199 -0.02452429
v -7.90736282 -2.10200512 -0.0153718
v -7.88699636 -2.10791805 -0.00857224
v -7.86489733 -2.11433313 -0.00438487
v -7.8419133 -2.12100398 -0.0029706
v -7.81893102 -2.12767483 -0.00438487
v -7.79683199 -2.13408991 -0.00857224
v -7.77646372 -2.14000262 -0.0153718
v -7.75861289 -2.14518405 -0.02452429
v -7.74396243 -2.14943768 -0.03567571
v -7.73307565 -2.15259875 -0.04839695
v -7.72637083 -2.15454408 -0.06220168
v -7.72410729 -2.15520012 -0.07655889
v -7.72637083 -2.15454408 -0.09091431
v -7.73307565 -2.15259705 -0.10471904
v -7.74396243 -2.14943768 -0.11744207
v -7.75861289 -2.14518405 -0.12859349
v -7.77646372 -2.14000262 -0.13774419
v -7.79683199 -2.13408991 -0.14454375
v -7.81893102 -2.12767483 -0.14873291
v -7.84077793 -2.20853111 -0.15014538
v -7.86374233 -2.20333519 -0.14873291
v -7.88582345 -2.19834153 -0.14454375
v -7.90617382 -2.19373942 -0.13774419
v -7.92401042 -2.18970404 -0.12859349
v -7.93864833 -2.18639441 -0.11744207
v -7.94952619 -2.18393243 -0.10471904
v -7.95622384 -2.18241807 -0.09091431
v -7.95848557 -2.18190675 -0.07655889
v -7.95622384 -2.18241807 -0.06220168
v -7.94952619 -2.18393243 -0.04839695
v -7.93864833 -2.18639441 -0.03567571
v -7.92401042 -2.18970404 -0.02452429
v -7.90617382 -2.19373942 -0.0153718
v -7.88582345 -2.19834153 -0.00857224
v -7.86374233 -2.20333519 -0.00438487
v -7.84077793 -2.20853111 -0.0029706
v -7.81781355 -2.21372319 -0.00438487
v -7.7957324 -2.21871876 -0.00857224
v -7.77538379 -2.2233228 -0.0153718
v -7.75754548 -2.22735625 -0.02452429
v -7.74290755 -2.23066759 -0.03567571
v -7.73202969 -2.23312787 -0.04839695
v -7.72533204 -2.23464222 -0.06220168
v -7.72307028 -2.23515355 -0.07655889
v -7.72533204 -2.23464222 -0.09091431
v -7.73202969 -2.23312787 -0.10471904
v -7.74290755 -2.23066759 -0.11744207
v -7.75754548 -2.22735625 -0.12859349
v -7.77538379 -2.2233228 -0.13774419
v -7.7957324 -2.21871876 -0.14454375
v -7.81781355 -2.21372319 -0.14873291
v -7.83747738 -2.29654803 -0.15014538
v -7.86038458 -2.29283812 -0.14873291
v -7.88241204 -2.28927293 -0.14454375
v -7.90271414 -2.28598675 -0.13774419
v -7.92050779 -2.28310637 -0.12859349
v -7.93511 -2.28074265 -0.11744207
v -7.94596105 -2.2789851 -0.10471904
v -7.95264256 -2.27790342 -0.09091431
v -7.95489896 -2.27753852 -0.07655889
v -7.95264437 -2.27790512 -0.06220168
v -7.94596105 -2.2789851 -0.04839695
v -7.93511 -2.28074265 -0.03567571
v -7.92050779 -2.28310637 -0.02452429
v -7.90271414 -2.28598675 -0.0153718
v -7.88241204 -2.28927293 -0.00857224
v -7.86038458 -2.29283812 -0.00438487
v -7.83747738 -2.29654803 -0.0029706
v -7.81457023 -2.30025624 -0.00438487
v -7.79254271 -2.30382143 -0.00857224
v -7.77224059 -2.30710762 -0.0153718
v -7.75444696 -2.30998799 -0.02452429
v -7.73984481 -2.31235171 -0.03567571
v -7.72899376 -2.31410926 -0.04839695
v -7.72231041 -2.31519095 -0.06220168
v -7.72005403 -2.31555563 -0.07655889
v -7.72231041 -2.31519095 -0.09091431
v -7.72899376 -2.31410926 -0.10471904
v -7.73984481 -2.31235171 -0.11744207
v -7.75444696 -2.30998799 -0.12859349
v -7.77224059 -2.30710762 -0.13774419
v -7.79254271 -2.30382143 -0.14454375
v -7.81457023 -2.30025624 -0.14873291
v -7.832017 -2.38491366 -0.15014538
v -7.85483298 -2.38269658 -0.14873291
v -7.87677108 -2.38056539 -0.14454375
v -7.89699096 -2.37860046 -0.13774419
v -7.91471305 -2.37688042 -0.12859349
v -7.92925803 -2.37546624 -0.11744207
v -7.94006438 -2.37441674 -0.10471904
v -7.94672089 -2.37376943 -0.09091431
v -7.94896654 -2.37355139 -0.07655889
v -7.94672089 -2.37376943 -0.06220168
v -7.94006438 -2.37441674 -0.04839695
v -7.92925803 -2.37546624 -0.03567571
v -7.91471305 -2.37688042 -0.02452429
v -7.89699096 -2.37860046 -0.0153718
v -7.87677108 -2.38056539 -0.00857224
v -7.85483298 -2.38269658 -0.00438487
v -7.832017 -2.38491366 -0.0029706
v -7.80920103 -2.38713074 -0.00438487
v -7.78726292 -2.38926192 -0.00857224
v -7.76704304 -2.39122707 -0.0153718
v -7.74932092 -2.39294882 -0.02452429
v -7.73477776 -2.39436129 -0.03567571
v -7.72396962 -2.3954125 -0.04839695
v -7.71731489 -2.3960581 -0.06220168
v -7.71506744 -2.39627614 -0.07655889
v -7.71731489 -2.3960581 -0.09091431
v -7.72396962 -2.3954125 -0.10471904
v -7.73477776 -2.39436129 -0.11744207
v -7.74932092 -2.39294882 -0.12859349
v -7.76704304 -2.39122707 -0.13774419
v -7.78726292 -2.38926192 -0.14454375
v -7.80920103 -2.38713074 -0.14873291
v -7.82440749 -2.47348859 -0.15014538
v -7.84709475 -2.47276796 -0.14873291
v -7.86890947 -2.4720744 -0.14454375
v -7.88901495 -2.47143413 -0.13774419
v -7.90663692 -2.47087464 -0.12859349
v -7.92109963 -2.47041319 -0.11744207
v -7.93184518 -2.47007174 -0.10471904
v -7.93846418 -2.46986073 -0.09091431
v -7.9406973 -2.46979104 -0.07655889
v -7.93846418 -2.46986073 -0.06220168
v -7.93184518 -2.47007174 -0.04839695
v -7.92109963 -2.47041319 -0.03567571
v -7.90663692 -2.47087464 -0.02452429
v -7.88901495 -2.47143413 -0.0153718
v -7.86890947 -2.4720744 -0.00857224
v -7.84709475 -2.47276796 -0.00438487
v -7.82440749 -2.47348859 -0.0029706
v -7.80171846 -2.47421092 -0.00438487
v -7.77990374 -2.47490469 -0.00857224
v -7.75979826 -2.47554474 -0.0153718
v -7.74217629 -2.47610445 -0.02452429
v -7.72771358 -2.47656568 -0.03567571
v -7.71696804 -2.47690713 -0.04839695
v -7.71034906 -2.47711622 -0.06220168
v -7.70811591 -2.47718784 -0.07655889
v -7.71034906 -2.47711622 -0.09091431
v -7.71696804 -2.47690713 -0.10471904
v -7.72771358 -2.47656568 -0.11744207
v -7.74217629 -2.47610445 -0.12859349
v -7.75979826 -2.47554474 -0.13774419
v -7.77990374 -2.47490469 -0.14454375
v -7.80171846 -2.47421092 -0.14873291
v -7.81465783 -2.56213321 -0.15014538
v -7.83718058 -2.56290733 -0.14873291
v -7.85883798 -2.5636529 -0.14454375
v -7.87879682 -2.56433942 -0.13774419
v -7.89629186 -2.56494026 -0.12859349
v -7.91064912 -2.5654356 -0.11744207
v -7.92131772 -2.56580198 -0.10471904
v -7.92788669 -2.56602727 -0.09091431
v -7.93010548 -2.56610422 -0.07655889
v -7.92788669 -2.56602727 -0.06220168
v -7.92131772 -2.56580198 -0.04839695
v -7.91064912 -2.5654356 -0.03567571
v -7.89629186 -2.56494026 -0.02452429
v -7.87879682 -2.56433942 -0.0153718
v -7.85883798 -2.5636529 -0.00857224
v -7.83718058 -2.56290733 -0.00438487
v -7.81465783 -2.56213321 -0.0029706
v -7.79213508 -2.56135908 -0.00438487
v -7.77047768 -2.56061331 -0.00857224
v -7.75051885 -2.55992679 -0.0153718
v -7.73302378 -2.55932424 -0.02452429
v -7.71866657 -2.55883082 -0.03567571
v -7.70799791 -2.55846422 -0.04839695
v -7.70142721 -2.55823723 -0.06220168
v -7.69921013 -2.5581622 -0.07655889
v -7.70142721 -2.55823723 -0.09091431
v -7.70799791 -2.55846422 -0.10471904
v -7.71866657 -2.55883082 -0.11744207
v -7.73302378 -2.55932424 -0.12859349
v -7.75051885 -2.55992679 -0.13774419
v -7.77047768 -2.56061331 -0.14454375
v -7.79213508 -2.56135908 -0.14873291
v -7.80278587 -2.65070259 -0.15014538
v -7.82510837 -2.65297338 -0.14873291
v -7.84657266 -2.65515466 -0.14454375
v -7.86635451 -2.65716798 -0.13774419
v -7.88369221 -2.65893064 -0.12859349
v -7.89792249 -2.66037722 -0.11744207
v -7.90849641 -2.66145166 -0.10471904
v -7.91500809 -2.66211325 -0.09091431
v -7.91720551 -2.66233853 -0.07655889
v -7.91500809 -2.66211325 -0.06220168
v -7.90849641 -2.66145166 -0.04839695
v -7.89792249 -2.66037722 -0.03567571
v -7.88369221 -2.65893064 -0.02452429
v -7.86635451 -2.65716798 -0.0153718
v -7.84657266 -2.65515466 -0.00857224
v -7.82510837 -2.65297338 -0.00438487
v -7.80278587 -2.65070259 -0.0029706
v -7.78046336 -2.64843372 -0.00438487
v -7.75899907 -2.64625053 -0.00857224
v -7.73921722 -2.64423934 -0.0153718
v -7.72187774 -2.64247625 -0.02452429
v -7.70764746 -2.64102988 -0.03567571
v -7.69707354 -2.63995523 -0.04839695
v -7.69056364 -2.63929194 -0.06220168
v -7.68836446 -2.63906857 -0.07655889
v -7.69056364 -2.63929194 -0.09091431
v -7.69707354 -2.63995523 -0.10471904
v -7.70764746 -2.64102988 -0.11744207
v -7.72187774 -2.64247625 -0.12859349
v -7.73921722 -2.64423934 -0.13774419
v -7.75899907 -2.64625053 -0.14454375
v -7.78046336 -2.64843372 -0.14873291
v -7.78880592 -2.73907909 -0.15014538
v -7.8108924 -2.74284079 -0.14873291
v -7.83212965 -2.74645777 -0.14454375
v -7.85170227 -2.74979064 -0.13774419
v -7.86885763 -2.75271215 -0.12859349
v -7.8829377 -2.75510976 -0.11744207
v -7.89339897 -2.75689224 -0.10471904
v -7.89984091 -2.75798842 -0.09091431
v -7.90201685 -2.75836035 -0.07655889
v -7.89984091 -2.75798842 -0.06220168
v -7.89339897 -2.75689224 -0.04839695
v -7.8829377 -2.75510976 -0.03567571
v -7.86885763 -2.75271215 -0.02452429
v -7.85170227 -2.74979064 -0.0153718
v -7.83212965 -2.74645777 -0.00857224
v -7.8108924 -2.74284079 -0.00438487
v -7.78880592 -2.73907909 -0.0029706
v -7.76671942 -2.73531717 -0.00438487
v -7.7454822 -2.73170019 -0.00857224
v -7.72590954 -2.72836732 -0.0153718
v -7.70875421 -2.72544411 -0.02452429
v -7.69467412 -2.7230465 -0.03567571
v -7.68421285 -2.72126572 -0.04839695
v -7.67777088 -2.72016783 -0.06220168
v -7.67559497 -2.71979782 -0.07655889
v -7.67777088 -2.72016783 -0.09091431
v -7.68421285 -2.72126572 -0.10471904
v -7.69467412 -2.7230465 -0.11744207
v -7.70875421 -2.72544411 -0.12859349
v -7.72590954 -2.72836732 -0.13774419
v -7.7454822 -2.73170019 -0.14454375
v -7.76671942 -2.73531717 -0.14873291
v -7.77274658 -2.82708003 -0.15014538
v -7.79456312 -2.83232753 -0.14873291
v -7.81553927 -2.83737127 -0.14454375
v -7.83487233 -2.84202177 -0.13774419
v -7.85181673 -2.84609828 -0.12859349
v -7.86572335 -2.84944351 -0.11744207
v -7.87605589 -2.85192701 -0.10471904
v -7.88241918 -2.85345757 -0.09091431
v -7.88456832 -2.85397422 -0.07655889
v -7.88241918 -2.85345757 -0.06220168
v -7.87605589 -2.85192701 -0.04839695
v -7.86572335 -2.84944351 -0.03567571
v -7.85181673 -2.84609828 -0.02452429
v -7.83487233 -2.84202177 -0.0153718
v -7.81553927 -2.83737127 -0.00857224
v -7.79456312 -2.83232753 -0.00438487
v -7.77274658 -2.82708003 -0.0029706
v -7.75093186 -2.82183231 -0.00438487
v -7.7299539 -2.81678857 -0.00857224
v -7.7106226 -2.81213808 -0.0153718
v -7.69367647 -2.80806327 -0.02452429
v -7.67976981 -2.80471804 -0.03567571
v -7.66943728 -2.80223283 -0.04839695
v -7.66307396 -2.80070227 -0.06220168
v -7.66092485 -2.80018562 -0.07655889
v -7.66307396 -2.80070227 -0.09091431
v -7.66943728 -2.80223283 -0.10471904
v -7.67976981 -2.80471804 -0.11744207
v -7.69367647 -2.80806327 -0.12859349
v -7.7106226 -2.81213808 -0.13774419
v -7.7299539 -2.81678857 -0.14454375
v -7.75093186 -2.82183231 -0.14873291
v -7.75463111 -2.91458734 -0.15014538
v -7.7761419 -2.9213119 -0.14873291
v -7.79682485 -2.92777707 -0.14454375
v -7.81588616 -2.93373624 -0.13774419
v -7.83259272 -2.93895881 -0.12859349
v -7.84630445 -2.94324462 -0.11744207
v -7.85649397 -2.94643063 -0.10471904
v -7.8627679 -2.94839024 -0.09091431
v -7.86488662 -2.94905353 -0.07655889
v -7.8627679 -2.94839024 -0.06220168
v -7.85649397 -2.94643063 -0.04839695
v -7.84630445 -2.94324462 -0.03567571
v -7.83259272 -2.93895881 -0.02452429
v -7.81588616 -2.93373624 -0.0153718
v -7.79682485 -2.92777707 -0.00857224
v -7.7761419 -2.9213119 -0.00438487
v -7.75463111 -2.91458734 -0.0029706
v -7.73312211 -2.90786299 -0.00438487
v -7.71243916 -2.90139761 -0.00857224
v -7.69337786 -2.89543843 -0.0153718
v -7.67666951 -2.89021587 -0.02452429
v -7.66295953 -2.88593027 -0.03567571
v -7.65277004 -2.88274404 -0.04839695
v -7.64649614 -2.88078273 -0.06220168
v -7.64437742 -2.88012114 -0.07655889
v -7.64649614 -2.88078273 -0.09091431
v -7.65277004 -2.88274404 -0.10471904
v -7.66295953 -2.88593027 -0.11744207
v -7.67666951 -2.89021587 -0.12859349
v -7.69337786 -2.89543843 -0.13774419
v -7.71243916 -2.90139761 -0.14454375
v -7.73312211 -2.90786299 -0.14873291
v -7.73448813 -3.00146013 -0.15014538
v -7.75565919 -3.00965258 -0.14873291
v -7.77601495 -3.01752661 -0.14454375
v -7.79477407 -3.02478551 -0.13774419
v -7.81121781 -3.03114731 -0.12859349
v -7.82471323 -3.03636795 -0.11744207
v -7.83474002 -3.04024795 -0.10471904
v -7.84091559 -3.04263639 -0.09091431
v -7.84300036 -3.04344291 -0.07655889
v -7.84091559 -3.04263639 -0.06220168
v -7.83474002 -3.04024795 -0.04839695
v -7.82471323 -3.03636795 -0.03567571
v -7.81121781 -3.03114731 -0.02452429
v -7.79477407 -3.02478551 -0.0153718
v -7.77601495 -3.01752661 -0.00857224
v -7.75565919 -3.00965258 -0.00438487
v -7.73448813 -3.00146013 -0.0029706
v -7.71331882 -2.99326959 -0.00438487
v -7.69296306 -2.98539365 -0.00857224
v -7.67420394 -2.97813646 -0.0153718
v -7.6577602 -2.97177296 -0.02452429
v -7.64426478 -2.96655231 -0.03567571
v -7.63423799 -2.96267231 -0.04839695
v -7.62806241 -2.96028366 -0.06220168
v -7.62597766 -2.95947735 -0.07655889
v -7.62806241 -2.96028366 -0.09091431
v -7.63423799 -2.96267231 -0.10471904
v -7.64426478 -2.96655231 -0.11744207
v -7.6577602 -2.97177296 -0.12859349
v -7.67420394 -2.97813646 -0.13774419
v -7.69296306 -2.98539365 -0.14454375
v -7.71331882 -2.9932713 -0.14873291
v -7.71235156 -3.08756221 -0.15014538
v -7.73314716 -3.09720465 -0.14873291
v -7.75314356 -3.10647858 -0.14454375
v -7.77157189 -3.11502506 -0.13774419
v -7.787726 -3.12251649 -0.12859349
v -7.80098182 -3.12866345 -0.11744207
v -7.81083341 -3.13323188 -0.10471904
v -7.81689814 -3.13604597 -0.09091431
v -7.81894711 -3.13699551 -0.07655889
v -7.81689814 -3.13604405 -0.06220168
v -7.81083341 -3.13323188 -0.04839695
v -7.80098182 -3.12866345 -0.03567571
v -7.787726 -3.12251649 -0.02452429
v -7.77157189 -3.11502506 -0.0153718
v -7.75314356 -3.10647858 -0.00857224
v -7.73314716 -3.09720465 -0.00438487
v -7.71235156 -3.08756221 -0.0029706
v -7.69155594 -3.07791806 -0.00438487
v -7.67155778 -3.06864414 -0.00857224
v -7.65312942 -3.06009766 -0.0153718
v -7.63697532 -3.05260792 -0.02452429
v -7.62371949 -3.04645927 -0.03567571
v -7.6138697 -3.04189275 -0.04839695
v -7.60780319 -3.03907845 -0.06220168
v -7.6057542 -3.03812913 -0.07655889
v -7.60780319 -3.03907845 -0.09091431
v -7.6138697 -3.04189275 -0.10471904
v -7.62371949 -3.04645927 -0.11744207
v -7.63697532 -3.05260792 -0.12859349
v -7.65312942 -3.06009766 -0.13774419
v -7.67155778 -3.06864414 -0.14454375
v -7.69155594 -3.07791806 -0.14873291
v -7.68825182 -3.17275439 -0.15014538
v -7.70864157 -3.18383596 -0.14873291
v -7.72824638 -3.1944938 -0.14454375
v -7.74631539 -3.20431336 -0.13774419
v -7.762153 -3.21292229 -0.12859349
v -7.77514958 -3.21998468 -0.11744207
v -7.78480808 -3.2252358 -0.10471904
v -7.79075479 -3.22846849 -0.09091431
v -7.79276262 -3.22955913 -0.07655889
v -7.79075479 -3.22846658 -0.06220168
v -7.78480808 -3.2252358 -0.04839695
v -7.77514958 -3.21998468 -0.03567571
v -7.762153 -3.21292229 -0.02452429
v -7.74631539 -3.20431336 -0.0153718
v -7.72824638 -3.19449209 -0.00857224
v -7.70864157 -3.18383596 -0.00438487
v -7.68825182 -3.1727561 -0.0029706
v -7.66786388 -3.16167262 -0.00438487
v -7.64825726 -3.15101819 -0.00857224
v -7.63019006 -3.14119692 -0.0153718
v -7.61435245 -3.1325882 -0.02452429
v -7.60135406 -3.1255239 -0.03567571
v -7.59169737 -3.12027448 -0.04839695
v -7.58574887 -3.11704179 -0.06220168
v -7.58374102 -3.11595136 -0.07655889
v -7.58574887 -3.11704179 -0.09091431
v -7.59169737 -3.12027448 -0.10471904
v -7.60135406 -3.1255239 -0.11744207
v -7.61435245 -3.1325882 -0.12859349
v -7.63019006 -3.14119692 -0.13774419
v -7.64825726 -3.15101819 -0.14454375
v -7.66786388 -3.16167262 -0.14873291
v -7.63432559 -3.33988966 -0.15014538
v -7.65380347 -3.35379277 -0.14873291
v -7.67253399 -3.36716132 -0.14454375
v -7.6897966 -3.37948208 -0.13774419
v -7.70492622 -3.39028102 -0.12859349
v -7.71734351 -3.39914401 -0.11744207
v -7.72656929 -3.40572897 -0.10471904
v -7.73225138 -3.40978417 -0.09091431
v -7.73416986 -3.4111538 -0.07655889
v -7.73225138 -3.40978417 -0.06220168
v -7.72656929 -3.40572897 -0.04839695
v -7.71734351 -3.39914401 -0.03567571
v -7.70492622 -3.39028102 -0.02452429
v -7.6897966 -3.37948208 -0.0153718
v -7.67253399 -3.36716132 -0.00857224
v -7.65380347 -3.35379277 -0.00438487
v -7.63432559 -3.33988966 -0.0029706
v -7.61484592 -3.32598655 -0.00438487
v -7.59611538 -3.31261821 -0.00857224
v -7.57885455 -3.30029745 -0.0153718
v -7.56372495 -3.2894983 -0.02452429
v -7.55130767 -3.28063552 -0.03567571
v -7.54208008 -3.27404865 -0.04839695
v -7.53639978 -3.26999345 -0.06220168
v -7.53447952 -3.26862382 -0.07655889
v -7.53639978 -3.26999345 -0.09091431
v -7.54208008 -3.27404865 -0.10471904
v -7.55130767 -3.28063552 -0.11744207
v -7.56372495 -3.2894983 -0.12859349
v -7.57885455 -3.30029745 -0.13774419
v -7.59611538 -3.31261821 -0.14454375
v -7.61484592 -3.32598655 -0.14873291
v -7.63432559 -3.33988966 -0.07655889
v -7.68686439 -3.27091614 -0.18782814
v -7.66223185 -3.25690219 -0.18954635
v -7.71087829 -3.28449719 -0.1826717
v -7.73367638 -3.2972276 -0.17406453
v -7.75466508 -3.30871157 -0.16193332
v -7.77319178 -3.31855607 -0.14610463
v -7.7883339 -3.32631564 -0.12634425
v -7.79864677 -3.33141139 -0.1027523
v -7.80237642 -3.33321348 -0.07655889
v -7.79864677 -3.33141139 -0.05036369
v -7.7883339 -3.32631564 -0.02677174
v -7.77319178 -3.31855607 -0.00701136
v -7.75466508 -3.30871157 0.00881732
v -7.73367638 -3.2972276 0.02094853
v -7.71087829 -3.28449719 0.0295557
v -7.68686439 -3.27091614 0.03471214
v -7.66223185 -3.25690219 0.03643035
v -7.63759931 -3.24289017 0.03471214
v -7.61358541 -3.2293089 0.0295557
v -7.5907891 -3.21657849 0.02094853
v -7.56979861 -3.20509452 0.00881732
v -7.55127191 -3.19525023 -0.00701136
v -7.5361298 -3.18749045 -0.02677174
v -7.52581692 -3.182393 -0.05036369
v -7.52208906 -3.18059261 -0.07655889
v -7.52581692 -3.182393 -0.1027523
v -7.5361298 -3.18749045 -0.12634425
v -7.55127191 -3.19525023 -0.14610463
v -7.56979861 -3.20509452 -0.16193332
v -7.5907891 -3.21657849 -0.17406453
v -7.61358541 -3.2293089 -0.1826717
v -7.63759931 -3.24288825 -0.18782814
v -7.64047254 -3.32161165 -0.18954635
v -7.66460265 -3.3370792 -0.18782992
v -7.65617785 -3.35459204 -0.16869533
v -7.63432559 -3.33988966 -0.17026157
v -7.6881356 -3.35206207 -0.18267707
v -7.67735966 -3.3687846 -0.16402164
v -7.71048494 -3.36609392 -0.17407705
v -7.69722375 -3.38197965 -0.1563138
v -7.73108207 -3.37872927 -0.16195657
v -7.71515683 -3.3937211 -0.145663
v -7.74928514 -3.389541 -0.14613503
v -7.73055642 -3.40358883 -0.13214793
v -7.76419304 -3.39803547 -0.12638001
v -7.74273413 -3.41116446 -0.11584901
v -7.77436466 -3.40360141 -0.10277733
v -7.75077094 -3.41601339 -0.09702729
v -7.77804785 -3.40556272 -0.07655889
v -7.7536227 -3.417694 -0.07655889
v -7.77436466 -3.40360141 -0.05033866
v -7.75077094 -3.41601339 -0.05609048
v -7.76419304 -3.39803547 -0.02673777
v -7.74273232 -3.41116446 -0.03726877
v -7.74928514 -3.3895393 -0.00698097
v -7.73055642 -3.40358713 -0.02096986
v -7.73108207 -3.37872927 0.00883877
v -7.71515683 -3.3937211 -0.00745477
v -7.71048494 -3.36609392 0.02096105
v -7.69722375 -3.38197965 0.0031978
v -7.6881356 -3.35206207 0.02956106
v -7.67735966 -3.3687846 0.01090564
v -7.66460265 -3.3370792 0.03471393
v -7.65617785 -3.35459204 0.01557933
v -7.64047254 -3.32161165 0.03643035
v -7.63432559 -3.33988966 0.01714557
v -7.61633884 -3.30614217 0.03471393
v -7.61247151 -3.32518728 0.01557933
v -7.59280948 -3.29115909 0.02956106
v -7.59128972 -3.31099473 0.01090564
v -7.57045657 -3.27712746 0.02096105
v -7.57142564 -3.29779967 0.0031978
v -7.54985944 -3.26449018 0.00883698
v -7.55349254 -3.28605823 -0.00745477
v -7.53165635 -3.25368016 -0.00698275
v -7.53809296 -3.27619071 -0.02096986
v -7.51675025 -3.24518569 -0.02673956
v -7.52591705 -3.26861316 -0.03726877
v -7.5065804 -3.23961976 -0.05034045
v -7.51788022 -3.26376615 -0.05609048
v -7.50289546 -3.23765844 -0.07655889
v -7.51502667 -3.26208362 -0.07655889
v -7.5065804 -3.23961976 -0.10277733
v -7.51788022 -3.26376615 -0.09702729
v -7.51675025 -3.24518569 -0.12637822
v -7.52591526 -3.26861316 -0.11584901
v -7.53165635 -3.25368016 -0.14613503
v -7.53809296 -3.27619071 -0.13214793
v -7.54985944 -3.26449018 -0.16195477
v -7.55349254 -3.28605823 -0.145663
v -7.57045657 -3.27712746 -0.17407705
v -7.57142564 -3.29779967 -0.1563138
v -7.59280948 -3.29115909 -0.18267707
v -7.59128972 -3.31099473 -0.16402164
v -7.61633884 -3.30614217 -0.18782992
v -7.61247151 -3.32518728 -0.16869533
v -7.68430583 -3.18551678 -0.18954815
v -7.7094068 -3.19805728 -0.18782635
v -7.68825182 -3.17275439 -0.17618862
v -7.71175794 -3.18479978 -0.17457231
v -7.73387484 -3.21021712 -0.18266633
v -7.7345793 -3.1964517 -0.16974485
v -7.75708955 -3.22162777 -0.17405022
v -7.7560543 -3.20732439 -0.16175094
v -7.77844655 -3.23194246 -0.16190649
v -7.77554828 -3.21706317 -0.1506317
v -7.79727362 -3.24080886 -0.14606709
v -7.79241755 -3.22532532 -0.1363943
v -7.8126321 -3.24782308 -0.12630313
v -7.80587543 -3.23174936 -0.11902439
v -7.8230719 -3.2524448 -0.10272369
v -7.81483303 -3.23591347 -0.09875087
v -7.82684269 -3.25407916 -0.07655889
v -7.81802632 -3.2373707 -0.07655889
v -7.8230719 -3.2524431 -0.0503923
v -7.81483303 -3.23591155 -0.05436511
v -7.8126321 -3.24782308 -0.02681287
v -7.80587543 -3.23174936 -0.03409159
v -7.79727362 -3.24080886 -0.00704891
v -7.79241755 -3.22532532 -0.01672349
v -7.77844655 -3.23194246 0.00879049
v -7.77554828 -3.21706317 -0.00248428
v -7.75708955 -3.22162777 0.02093244
v -7.7560543 -3.20732439 0.00863495
v -7.73387484 -3.21021712 0.02955033
v -7.7345793 -3.19645 0.01662886
v -7.7094068 -3.19805728 0.03471036
v -7.71175794 -3.18479978 0.0214563
v -7.68430583 -3.18551848 0.03643035
v -7.68825182 -3.1727561 0.02307082
v -7.65920308 -3.17297947 0.03471036
v -7.6647457 -3.16070901 0.0214563
v -7.63473682 -3.16081985 0.02955033
v -7.64192615 -3.1490605 0.01662886
v -7.61152212 -3.14940728 0.02093423
v -7.62045112 -3.13818611 0.00863495
v -7.5901651 -3.13909259 0.00879228
v -7.60095536 -3.1284454 -0.00248428
v -7.57133982 -3.13022619 -0.00704891
v -7.58408609 -3.12018517 -0.01672349
v -7.55597779 -3.12321389 -0.02681287
v -7.57062822 -3.11376114 -0.03408981
v -7.54553796 -3.11859216 -0.0503923
v -7.56167061 -3.10959681 -0.05436511
v -7.54176898 -3.1169544 -0.07655889
v -7.55847913 -3.10813979 -0.07655889
v -7.54553796 -3.11859216 -0.10272369
v -7.56167061 -3.10959681 -0.09875087
v -7.55597779 -3.12321218 -0.12630313
v -7.57062822 -3.11375922 -0.11902619
v -7.57133982 -3.13022619 -0.14606887
v -7.58408609 -3.12018517 -0.1363943
v -7.5901651 -3.13909259 -0.16191007
v -7.60095536 -3.1284454 -0.1506335
v -7.61152212 -3.14940728 -0.17405022
v -7.62045112 -3.13818611 -0.16175094
v -7.63473682 -3.16081985 -0.18266633
v -7.64192615 -3.1490605 -0.16974485
v -7.65920308 -3.17297947 -0.18782635
v -7.6647457 -3.16070901 -0.17457231
g Group40449
f 57 56 55 54
g Group40454
f 25 26 107 108
g Group40459
f 22 23 26 25
g Group40449
f 110 109 59 58
g Group40464
f 130 128 85 91
g Group40459
f 110 1 4 109
g Group40449
f 112 111 61 60
g Group40464
f 113 145 106 64
g Group40459
f 112 16 19 111
g Group40449
f 58 59 63 62
g Group40459
f 1 2 5 4
g Group40449
f 62 63 65 64
g Group40464
f 6 3 113 114
g Group40459
f 2 3 6 5
g Group40449
f 69 68 67 66
g Group40464
f 15 12 115 116
g Group40459
f 11 12 15 14
g Group40449
f 71 70 68 69
g Group40459
f 10 11 14 13
g Group40449
f 74 54 73 72
g Group40464
f 24 21 117 118
g Group40459
f 20 21 24 23
g Group40449
f 111 119 57 61
g Group40464
f 128 127 85
g Group40459
f 111 19 22 119
g Group40449
f 109 120 75 59
g Group40464
f 145 141 105 106
g Group40459
f 109 4 7 120
g Group40449
f 68 77 76 67
g Group40464
f 18 15 116 121
g Group40459
f 14 15 18 17
g Group40449
f 59 75 78 63
g Group40459
f 4 5 8 7
g Group40449
f 63 78 79 65
g Group40464
f 9 6 114 122
g Group40459
f 5 6 9 8
g Group40449
f 70 60 77 68
g Group40459
f 13 14 17 16
g Group40449
f 61 57 54 74
g Group40459
f 19 20 23 22
g Group40449
f 124 123 70 71
g Group40464
f 132 140 104 94
g Group40459
f 124 10 13 123
g Group40449
f 77 74 72 76
g Group40464
f 21 18 121 117
g Group40459
f 17 18 21 20
g Group40449
f 120 124 71 75
g Group40454
f 107 126 80 55
g Group40459
f 120 7 10 124
g Group40449
f 60 61 74 77
g Group40459
f 16 17 20 19
g Group40449
f 75 71 69 78
g Group40459
f 7 8 11 10
g Group40449
f 78 69 66 79
g Group40464
f 12 9 122 115
g Group40459
f 8 9 12 11
g Group40449
f 119 125 56 57
g Group40454
f 125 25 108
g Group40464
f 126 118 73 80
g Group40459
f 119 22 25 125
g Group40449
f 123 112 60 70
g Group40454
f 125 108 56
g Group40459
f 123 13 16 112
g Group40449
f 54 55 80 73
g Group40464
f 27 24 118 126
g Group40454
f 26 27 126 107
g Group40459
f 23 24 27 26
g Group40449
f 84 83 82 81
g Group40459
f 48 49 52 51
g Group40449
f 127 129 86 85
g Group40464
f 28 127 128
f 141 135 101 105
g Group40459
f 127 28 30 129
g Group40449
f 90 89 88 87
g Group40459
f 42 43 46 45
g Group40449
f 85 86 92 91
g Group40464
f 29 28 128 130
g Group40459
f 28 29 31 30
g Group40449
f 91 92 93
g Group40464
f 32 29 130 131
g Group40459
f 32 31 29
g Group40449
f 97 96 95 94
g Group40464
f 41 38 132 133
g Group40459
f 37 38 41 40
g Group40449
f 99 98 96 97
g Group40459
f 36 37 40 39
g Group40449
f 87 88 101 100
g Group40464
f 47 44 134 135
g Group40459
f 43 44 47 46
g Group40449
f 137 136 84 89
g Group40464
f 134 133 95 100
g Group40459
f 137 45 48 136
g Group40449
f 129 138 102 86
g Group40464
f 140 131 93 104
g Group40459
f 129 30 33 138
g Group40449
f 136 139 83 84
g Group40464
f 115 122 79 66
g Group40459
f 136 48 51 139
g Group40449
f 86 102 103 92
g Group40459
f 30 31 34 33
g Group40449
f 92 103 104 93
g Group40464
f 35 32 131 140
g Group40459
f 31 32 35 34
g Group40449
f 96 87 100 95
g Group40464
f 44 41 133 134
g Group40459
f 40 41 44 43
g Group40449
f 88 81 105 101
g Group40464
f 50 47 135 141
g Group40459
f 46 47 50 49
g Group40449
f 143 142 98 99
g Group40464
f 117 121 76 72
g Group40459
f 143 36 39 142
g Group40449
f 98 90 87 96
g Group40459
f 39 40 43 42
g Group40449
f 138 143 99 102
g Group40464
f 122 114 65 79
g Group40459
f 138 33 36 143
g Group40449
f 144 137 89 90
g Group40464
f 135 134 100 101
g Group40459
f 144 42 45 137
g Group40449
f 102 99 97 103
g Group40459
f 33 34 37 36
g Group40449
f 103 97 94 104
g Group40464
f 38 35 140 132
g Group40459
f 34 35 38 37
g Group40449
f 89 84 81 88
g Group40459
f 45 46 49 48
g Group40449
f 81 82 106 105
g Group40464
f 53 50 141 145
g Group40459
f 49 50 53 52
g Group40449
f 142 144 90 98
g Group40464
f 133 132 94 95
g Group40459
f 142 39 42 144
g Group40449
f 82 62 64 106
g Group40464
f 3 53 145 113
g Group40459
f 52 53 3 2
g Group40449
f 139 110 58 83
g Group40464
f 131 130 91 93
g Group40459
f 139 51 1 110
g Group40449
f 83 58 62 82
g Group40459
f 51 52 2 1
g Group40454
f 108 107 55 56
g Group40464
f 121 116 67 76
f 118 117 72 73
f 114 113 64 65
f 116 115 66 67
g Group14566
f 227 231 180 177
f 196 188 198
f 151 156 199 200
f 161 163 168 167
f 147 148 153 152
f 217 187 190 221
f 230 223 170 175
f 197 201 191 189
f 172 171 170 169
f 155 150 202 203
f 149 150 155 154
f 221 190 192 224
f 219 229 176 165
f 201 204 193 191
f 224 192 194 225
f 150 195 206 202
f 204 205 195 193
f 163 164 173 168
f 152 153 158 157
f 156 178 209 199
f 168 173 174 171
f 153 154 159 158
f 171 174 175 170
f 160 155 203 210
f 154 155 160 159
f 164 177 180 173
f 179 181 211 207
f 157 158 181 179
f 167 168 171 172
f 148 149 154 153
f 173 180 182 174
f 181 183 212 211
f 158 159 183 181
f 174 182 184 175
f 185 213 214
f 183 185 214 212
f 159 160 185 183
f 146 151 200 215
f 235 220 166 162
f 178 208 209
f 226 225 194
f 232 234 184 182
f 218 235 162 186
f 234 233 184
f 233 230 175 184
f 231 232 182 180
f 185 160 210 213
f 229 228 176
f 188 146 215 198
f 187 161 167 190
f 189 191 148 147
f 190 167 172 192
f 191 193 149 148
f 192 172 169 194
f 195 205 206
f 193 195 150 149
f 196 198 218 216
f 200 199 219 220
f 201 197 217 221
f 203 202 222 223
f 204 201 221 224
f 205 204 224 225
f 202 206 226 222
f 199 209 229 219
f 210 203 223 230
f 207 211 231 227
f 211 212 232 231
f 214 213 233 234
f 212 214 234 232
f 215 200 220 235
f 209 208 228 229
f 213 210 230 233
f 198 215 235 218
f 206 205 225 226
f 222 226 194 169
f 216 218 186
f 220 219 165 166
f 223 222 169 170
f 216 186 238 239
f 188 196 242 243
f 166 165 246 247
f 156 151 250 251
f 176 228 254 255
f 165 176 255 246
f 208 178 258 259
f 178 156 251 258
f 162 166 247 261
f 151 146 263 250
f 186 162 261 238
f 146 188 243 263
f 196 216 239 242
f 228 208 259 254
f 237 236 239 238
f 243 242 240 241
f 245 244 247 246
f 251 250 248 249
f 255 254 252 253
f 246 255 253 245
f 259 258 256 257
f 249 256 258 251
f 244 260 261 247
f 250 263 262 248
f 238 261 260 237
f 241 262 263 243
f 236 240 242 239
f 254 259 257 252
f 187 217 264 265
f 197 189 266 267
f 164 163 268 269
f 152 157 270 271
f 227 177 272 273
f 177 164 269 272
f 179 207 274 275
f 157 179 275 270
f 163 161 276 268
f 147 152 271 277
f 161 187 265 276
f 189 147 277 266
f 217 197 267 264
f 207 227 273 274
f 236 237 278 279
f 240 280 281 241
f 244 245 282 283
f 248 284 285 249
f 252 286 287 253
f 245 253 287 282
f 256 288 289 257
f 249 285 288 256
f 260 244 283 290
f 262 291 284 248
f 237 260 290 278
f 241 281 291 262
f 280 240 236 279
f 257 289 286 252
f 279 278 265 264
f 281 280 267 266
f 283 282 269 268
f 285 284 271 270
f 287 286 273 272
f 282 287 272 269
f 289 288 275 274
f 284 291 277 271
f 278 290 276 265
f 286 289 274 273
f 270 275 288 285
f 268 276 290 283
f 266 277 291 281
f 264 267 280 279
g Group20693
f 292 293 294
f 292 294 295
f 292 295 296
f 292 296 297
f 292 297 298
f 292 298 299
f 292 299 300
f 292 300 301
f 292 301 302
f 292 302 303
f 292 303 304
f 292 304 305
f 292 305 306
f 292 306 307
f 292 307 308
f 292 308 309
f 292 309 310
f 292 310 311
f 292 311 312
f 292 312 313
f 292 313 314
f 292 314 315
f 292 315 316
f 292 316 317
f 292 317 318
f 292 318 319
f 292 319 320
f 292 320 321
f 292 321 322
f 292 322 323
f 292 323 324
f 292 324 293
f 293 325 326 294
f 294 326 327 295
f 295 327 328 296
f 296 328 329 297
f 297 329 330 298
f 298 330 331 299
f 299 331 332 300
f 300 332 333 301
f 301 333 334 302
f 302 334 335 303
f 303 335 336 304
f 304 336 337 305
f 305 337 338 306
f 306 338 339 307
f 307 339 340 308
f 308 340 341 309
f 309 341 342 310
f 310 342 343 311
f 311 343 344 312
f 312 344 345 313
f 313 345 346 314
f 314 346 347 315
f 315 347 348 316
f 316 348 349 317
f 317 349 350 318
f 318 350 351 319
f 319 351 352 320
f 320 352 353 321
f 321 353 354 322
f 322 354 355 323
f 323 355 356 324
f 324 356 325 293
f 325 357 358 326
f 326 358 359 327
f 327 359 360 328
f 328 360 361 329
f 329 361 362 330
f 330 362 363 331
f 331 363 364 332
f 332 364 365 333
f 333 365 366 334
f 334 366 367 335
f 335 367 368 336
f 336 368 369 337
f 337 369 370 338
f 338 370 371 339
f 339 371 372 340
f 340 372 373 341
f 341 373 374 342
f 342 374 375 343
f 343 375 376 344
f 344 376 377 345
f 345 377 378 346
f 346 378 379 347
f 347 379 380 348
f 348 380 381 349
f 349 381 382 350
f 350 382 383 351
f 351 383 384 352
f 352 384 385 353
f 353 385 386 354
f 354 386 387 355
f 355 387 388 356
f 356 388 357 325
f 357 389 390 358
f 358 390 391 359
f 359 391 392 360
f 360 392 393 361
f 361 393 394 362
f 362 394 395 363
f 363 395 396 364
f 364 396 397 365
f 365 397 398 366
f 366 398 399 367
f 367 399 400 368
f 368 400 401 369
f 369 401 402 370
f 370 402 403 371
f 371 403 404 372
f 372 404 405 373
f 373 405 406 374
f 374 406 407 375
f 375 407 408 376
f 376 408 409 377
f 377 409 410 378
f 378 410 411 379
f 379 411 412 380
f 380 412 413 381
f 381 413 414 382
f 382 414 415 383
f 383 415 416 384
f 384 416 417 385
f 385 417 418 386
f 386 418 419 387
f 387 419 420 388
f 388 420 389 357
f 389 421 422 390
f 390 422 423 391
f 391 423 424 392
f 392 424 425 393
f 393 425 426 394
f 394 426 427 395
f 395 427 428 396
f 396 428 429 397
f 397 429 430 398
f 398 430 431 399
f 399 431 432 400
f 400 432 433 401
f 401 433 434 402
f 402 434 435 403
f 403 435 436 404
f 404 436 437 405
f 405 437 438 406
f 406 438 439 407
f 407 439 440 408
f 408 440 441 409
f 409 441 442 410
f 410 442 443 411
f 411 443 444 412
f 412 444 445 413
f 413 445 446 414
f 414 446 447 415
f 415 447 448 416
f 416 448 449 417
f 417 449 450 418
f 418 450 451 419
f 419 451 452 420
f 420 452 421 389
f 421 453 454 422
f 422 454 455 423
f 423 455 456 424
f 424 456 457 425
f 425 457 458 426
f 426 458 459 427
f 427 459 460 428
f 428 460 461 429
f 429 461 462 430
f 430 462 463 431
f 431 463 464 432
f 432 464 465 433
f 433 465 466 434
f 434 466 467 435
f 435 467 468 436
f 436 468 469 437
f 437 469 470 438
f 438 470 471 439
f 439 471 472 440
f 440 472 473 441
f 441 473 474 442
f 442 474 475 443
f 443 475 476 444
f 444 476 477 445
f 445 477 478 446
f 446 478 479 447
f 447 479 480 448
f 448 480 481 449
f 449 481 482 450
f 450 482 483 451
f 451 483 484 452
f 452 484 453 421
f 453 485 486 454
f 454 486 487 455
f 455 487 488 456
f 456 488 489 457
f 457 489 490 458
f 458 490 491 459
f 459 491 492 460
f 460 492 493 461
f 461 493 494 462
f 462 494 495 463
f 463 495 496 464
f 464 496 497 465
f 465 497 498 466
f 466 498 499 467
f 467 499 500 468
f 468 500 501 469
f 469 501 502 470
f 470 502 503 471
f 471 503 504 472
f 472 504 505 473
f 473 505 506 474
f 474 506 507 475
f 475 507 508 476
f 476 508 509 477
f 477 509 510 478
f 478 510 511 479
f 479 511 512 480
f 480 512 513 481
f 481 513 514 482
f 482 514 515 483
f 483 515 516 484
f 484 516 485 453
f 485 517 518 486
f 486 518 519 487
f 487 519 520 488
f 488 520 521 489
f 489 521 522 490
f 490 522 523 491
f 491 523 524 492
f 492 524 525 493
f 493 525 526 494
f 494 526 527 495
f 495 527 528 496
f 496 528 529 497
f 497 529 530 498
f 498 530 531 499
f 499 531 532 500
f 500 532 533 501
f 501 533 534 502
f 502 534 535 503
f 503 535 536 504
f 504 536 537 505
f 505 537 538 506
f 506 538 539 507
f 507 539 540 508
f 508 540 541 509
f 509 541 542 510
f 510 542 543 511
f 511 543 544 512
f 512 544 545 513
f 513 545 546 514
f 514 546 547 515
f 515 547 548 516
f 516 548 517 485
f 517 549 550 518
f 518 550 551 519
f 519 551 552 520
f 520 552 553 521
f 521 553 554 522
f 522 554 555 523
f 523 555 556 524
f 524 556 557 525
f 525 557 558 526
f 526 558 559 527
f 527 559 560 528
f 528 560 561 529
f 529 561 562 530
f 530 562 563 531
f 531 563 564 532
f 532 564 565 533
f 533 565 566 534
f 534 566 567 535
f 535 567 568 536
f 536 568 569 537
f 537 569 570 538
f 538 570 571 539
f 539 571 572 540
f 540 572 573 541
f 541 573 574 542
f 542 574 575 543
f 543 575 576 544
f 544 576 577 545
f 545 577 578 546
f 546 578 579 547
f 547 579 580 548
f 548 580 549 517
f 549 581 582 550
f 550 582 583 551
f 551 583 584 552
f 552 584 585 553
f 553 585 586 554
f 554 586 587 555
f 555 587 588 556
f 556 588 589 557
f 557 589 590 558
f 558 590 591 559
f 559 591 592 560
f 560 592 593 561
f 561 593 594 562
f 562 594 595 563
f 563 595 596 564
f 564 596 597 565
f 565 597 598 566
f 566 598 599 567
f 567 599 600 568
f 568 600 601 569
f 569 601 602 570
f 570 602 603 571
f 571 603 604 572
f 572 604 605 573
f 573 605 606 574
f 574 606 607 575
f 575 607 608 576
f 576 608 609 577
f 577 609 610 578
f 578 610 611 579
f 579 611 612 580
f 580 612 581 549
f 581 613 614 582
f 582 614 615 583
f 583 615 616 584
f 584 616 617 585
f 585 617 618 586
f 586 618 619 587
f 587 619 620 588
f 588 620 621 589
f 589 621 622 590
f 590 622 623 591
f 591 623 624 592
f 592 624 625 593
f 593 625 626 594
f 594 626 627 595
f 595 627 628 596
f 596 628 629 597
f 597 629 630 598
f 598 630 631 599
f 599 631 632 600
f 600 632 633 601
f 601 633 634 602
f 602 634 635 603
f 603 635 636 604
f 604 636 637 605
f 605 637 638 606
f 606 638 639 607
f 607 639 640 608
f 608 640 641 609
f 609 641 642 610
f 610 642 643 611
f 611 643 644 612
f 612 644 613 581
f 613 645 646 614
f 614 646 647 615
f 615 647 648 616
f 616 648 649 617
f 617 649 650 618
f 618 650 651 619
f 619 651 652 620
f 620 652 653 621
f 621 653 654 622
f 622 654 655 623
f 623 655 656 624
f 624 656 657 625
f 625 657 658 626
f 626 658 659 627
f 627 659 660 628
f 628 660 661 629
f 629 661 662 630
f 630 662 663 631
f 631 663 664 632
f 632 664 665 633
f 633 665 666 634
f 634 666 667 635
f 635 667 668 636
f 636 668 669 637
f 637 669 670 638
f 638 670 671 639
f 639 671 672 640
f 640 672 673 641
f 641 673 674 642
f 642 674 675 643
f 643 675 676 644
f 644 676 645 613
f 645 677 678 646
f 646 678 679 647
f 647 679 680 648
f 648 680 681 649
f 649 681 682 650
f 650 682 683 651
f 651 683 684 652
f 652 684 685 653
f 653 685 686 654
f 654 686 687 655
f 655 687 688 656
f 656 688 689 657
f 657 689 690 658
f 658 690 691 659
f 659 691 692 660
f 660 692 693 661
f 661 693 694 662
f 662 694 695 663
f 663 695 696 664
f 664 696 697 665
f 665 697 698 666
f 666 698 699 667
f 667 699 700 668
f 668 700 701 669
f 669 701 702 670
f 670 702 703 671
f 671 703 704 672
f 672 704 705 673
f 673 705 706 674
f 674 706 707 675
f 675 707 708 676
f 676 708 677 645
f 709 741 710
f 710 741 711
f 711 741 712
f 712 741 713
f 713 741 714
f 714 741 715
f 715 741 716
f 716 741 717
f 717 741 718
f 718 741 719
f 719 741 720
f 720 741 721
f 721 741 722
f 722 741 723
f 723 741 724
f 724 741 725
f 725 741 726
f 726 741 727
f 727 741 728
f 728 741 729
f 729 741 730
f 730 741 731
f 731 741 732
f 732 741 733
f 733 741 734
f 734 741 735
f 735 741 736
f 736 741 737
f 737 741 738
f 738 741 739
f 739 741 740
f 740 741 709
f 743 774 775 742
f 709 710 776 777
f 742 775 778 744
f 710 711 779 776
f 744 778 780 745
f 711 712 781 779
f 745 780 782 746
f 712 713 783 781
f 746 782 784 747
f 713 714 785 783
f 747 784 786 748
f 714 715 787 785
f 748 786 788 749
f 715 716 789 787
f 749 788 790 750
f 716 717 791 789
f 750 790 792 751
f 717 718 793 791
f 751 792 794 752
f 718 719 795 793
f 752 794 796 753
f 719 720 797 795
f 753 796 798 754
f 720 721 799 797
f 754 798 800 755
f 721 722 801 799
f 755 800 802 756
f 722 723 803 801
f 756 802 804 757
f 723 724 805 803
f 757 804 806 758
f 724 725 807 805
f 758 806 808 759
f 725 726 809 807
f 759 808 810 760
f 726 727 811 809
f 760 810 812 761
f 727 728 813 811
f 761 812 814 762
f 728 729 815 813
f 762 814 816 763
f 729 730 817 815
f 763 816 818 764
f 730 731 819 817
f 764 818 820 765
f 731 732 821 819
f 765 820 822 766
f 732 733 823 821
f 766 822 824 767
f 733 734 825 823
f 767 824 826 768
f 734 735 827 825
f 768 826 828 769
f 735 736 829 827
f 769 828 830 770
f 736 737 831 829
f 770 830 832 771
f 737 738 833 831
f 771 832 834 772
f 738 739 835 833
f 772 834 836 773
f 739 740 837 835
f 773 836 774 743
f 740 709 777 837
f 775 774 777 776
f 776 779 778 775
f 779 781 780 778
f 781 783 782 780
f 783 785 784 782
f 785 787 786 784
f 787 789 788 786
f 789 791 790 788
f 791 793 792 790
f 793 795 794 792
f 795 797 796 794
f 797 799 798 796
f 799 801 800 798
f 801 803 802 800
f 803 805 804 802
f 805 807 806 804
f 807 809 808 806
f 809 811 810 808
f 811 813 812 810
f 813 815 814 812
f 815 817 816 814
f 817 819 818 816
f 819 821 820 818
f 821 823 822 820
f 823 825 824 822
f 825 827 826 824
f 827 829 828 826
f 829 831 830 828
f 831 833 832 830
f 833 835 834 832
f 835 837 836 834
f 774 836 837 777
f 838 743 742 839
f 678 677 840 841
f 839 742 744 842
f 679 678 841 843
f 842 744 745 844
f 680 679 843 845
f 844 745 746 846
f 681 680 845 847
f 846 746 747 848
f 682 681 847 849
f 848 747 748 850
f 683 682 849 851
f 850 748 749 852
f 684 683 851 853
f 852 749 750 854
f 685 684 853 855
f 854 750 751 856
f 686 685 855 857
f 856 751 752 858
f 687 686 857 859
f 858 752 753 860
f 688 687 859 861
f 860 753 754 862
f 689 688 861 863
f 862 754 755 864
f 690 689 863 865
f 864 755 756 866
f 691 690 865 867
f 866 756 757 868
f 692 691 867 869
f 868 757 758 870
f 693 692 869 871
f 870 758 759 872
f 694 693 871 873
f 872 759 760 874
f 695 694 873 875
f 874 760 761 876
f 696 695 875 877
f 876 761 762 878
f 697 696 877 879
f 878 762 763 880
f 698 697 879 881
f 880 763 764 882
f 699 698 881 883
f 882 764 765 884
f 700 699 883 885
f 884 765 766 886
f 701 700 885 887
f 886 766 767 888
f 702 701 887 889
f 888 767 768 890
f 703 702 889 891
f 890 768 769 892
f 704 703 891 893
f 892 769 770 894
f 705 704 893 895
f 894 770 771 896
f 706 705 895 897
f 896 771 772 898
f 707 706 897 899
f 898 772 773 900
f 708 707 899 901
f 900 773 743 838
f 677 708 901 840
f 841 840 838 839
f 839 842 843 841
f 842 844 845 843
f 844 846 847 845
f 846 848 849 847
f 848 850 851 849
f 850 852 853 851
f 852 854 855 853
f 854 856 857 855
f 856 858 859 857
f 858 860 861 859
f 860 862 863 861
f 862 864 865 863
f 864 866 867 865
f 866 868 869 867
f 868 870 871 869
f 870 872 873 871
f 872 874 875 873
f 874 876 877 875
f 876 878 879 877
f 878 880 881 879
f 880 882 883 881
f 882 884 885 883
f 884 886 887 885
f 886 888 889 887
f 888 890 891 889
f 890 892 893 891
f 892 894 895 893
f 894 896 897 895
f 896 898 899 897
f 898 900 901 899
f 840 901 900 838

 