# File exported by ZBrush version 2021
# www.zbrush.com
#Vertex Count 826
#Face Count 860
#Auto scale x=0.559301 y=0.559301 z=0.559301
#Auto offset x=4.142220 y=0.137334 z=0.043944
v -7.40304308 2.35914293 -0.17540818
v -7.42129264 2.35914293 -0.17354693
v -7.43883955 2.35914293 -0.16803648
v -7.45501152 2.35914293 -0.1590878
v -7.46918636 2.35914293 -0.1470442
v -7.48081873 2.35914293 -0.13237053
v -7.48946346 2.35914293 -0.1156282
v -7.49478617 2.35914293 -0.09746267
v -7.49658306 2.35914293 -0.07856944
v -7.49478617 2.35914293 -0.05967622
v -7.48946346 2.35914293 -0.04151068
v -7.48081873 2.35914293 -0.02476836
v -7.46918636 2.35914293 -0.01009468
v -7.45501152 2.35914293 0.00194891
v -7.43883955 2.35914293 0.01089759
v -7.42129264 2.35914293 0.01640804
v -7.40304308 2.35914293 0.01826929
v -7.38479351 2.35914293 0.01640804
v -7.36724661 2.35914293 0.01089759
v -7.35107464 2.35914293 0.00194891
v -7.3368998 2.35914293 -0.01009468
v -7.32526743 2.35914293 -0.02476836
v -7.3166227 2.35914293 -0.04151068
v -7.31129999 2.35914293 -0.05967622
v -7.3095031 2.35914293 -0.07856944
v -7.31129999 2.35914293 -0.09746267
v -7.3166227 2.35914293 -0.1156282
v -7.32526743 2.35914293 -0.13237053
v -7.3368998 2.35914293 -0.1470442
v -7.35107464 2.35914293 -0.1590878
v -7.36724661 2.35914293 -0.16803648
v -7.38479351 2.35914293 -0.17354693
v -7.40304308 1.12629467 -0.17540818
v -7.42129264 1.12629467 -0.17354693
v -7.43883955 1.12629467 -0.16803648
v -7.45501152 1.12629467 -0.1590878
v -7.46918636 1.12629467 -0.1470442
v -7.48081873 1.12629467 -0.13237053
v -7.48946346 1.12629467 -0.1156282
v -7.49478617 1.12629467 -0.09746267
v -7.49658306 1.12629467 -0.07856944
v -7.49478617 1.12629467 -0.05967622
v -7.48946346 1.12629467 -0.04151068
v -7.48081873 1.12629467 -0.02476836
v -7.46918636 1.12629467 -0.01009468
v -7.45501152 1.12629467 0.00194891
v -7.43883955 1.12629467 0.01089759
v -7.42129264 1.12629467 0.01640804
v -7.40304308 1.12629467 0.01826929
v -7.38479351 1.12629467 0.01640804
v -7.36724661 1.12629467 0.01089759
v -7.35107464 1.12629467 0.00194891
v -7.3368998 1.12629467 -0.01009468
v -7.32526743 1.12629467 -0.02476836
v -7.3166227 1.12629467 -0.04151068
v -7.31129999 1.12629467 -0.05967622
v -7.3095031 1.12629467 -0.07856944
v -7.31129999 1.12629467 -0.09746267
v -7.3166227 1.12629467 -0.1156282
v -7.32526743 1.12629467 -0.13237053
v -7.3368998 1.12629467 -0.1470442
v -7.35107464 1.12629467 -0.1590878
v -7.36724661 1.12629467 -0.16803648
v -7.38479351 1.12629467 -0.17354693
v -7.40304308 1.12629467 -0.07856944
v -7.40304308 1.24713235 -0.17540818
v -7.42129264 1.24713235 -0.17354693
v -7.43883955 1.24713235 -0.16803648
v -7.45501152 1.24713235 -0.1590878
v -7.46918636 1.24713235 -0.1470442
v -7.48081873 1.24713235 -0.13237053
v -7.48946346 1.24713235 -0.1156282
v -7.49478617 1.24713235 -0.09746267
v -7.49658306 1.24713235 -0.07856944
v -7.49478617 1.24713235 -0.05967622
v -7.48946346 1.24713235 -0.04151068
v -7.48081873 1.24713235 -0.02476836
v -7.46918636 1.24713235 -0.01009468
v -7.45501152 1.24713235 0.00194891
v -7.43883955 1.24713235 0.01089759
v -7.42129264 1.24713235 0.01640804
v -7.40304308 1.24713235 0.01826929
v -7.38479351 1.24713235 0.01640804
v -7.36724661 1.24713235 0.01089759
v -7.35107464 1.24713235 0.00194891
v -7.3368998 1.24713235 -0.01009468
v -7.32526743 1.24713235 -0.02476836
v -7.3166227 1.24713235 -0.04151068
v -7.31129999 1.24713235 -0.05967622
v -7.3095031 1.24713235 -0.07856944
v -7.31129999 1.24713235 -0.09746267
v -7.3166227 1.24713235 -0.1156282
v -7.32526743 1.24713235 -0.13237053
v -7.3368998 1.24713235 -0.1470442
v -7.35107464 1.24713235 -0.1590878
v -7.36724661 1.24713235 -0.16803648
v -7.38479351 1.24713235 -0.17354693
v -7.42533519 1.24713235 -0.19459105
v -7.42533519 1.12629467 -0.19459105
v -7.40304308 1.12629467 -0.19686353
v -7.40304308 1.24713235 -0.19686353
v -7.44677088 1.24713235 -0.18785944
v -7.44677088 1.12629467 -0.18785944
v -7.46652589 1.24713235 -0.17692793
v -7.46652589 1.12629467 -0.17692793
v -7.48384036 1.24713235 -0.16221671
v -7.48384036 1.12629467 -0.16221671
v -7.49805096 1.24713235 -0.14429077
v -7.49805096 1.12629467 -0.14429077
v -7.50861057 1.24713235 -0.12383845
v -7.50861057 1.12629467 -0.12383845
v -7.51511154 1.24713235 -0.10164825
v -7.51511154 1.12629467 -0.10164825
v -7.51730893 1.24713235 -0.07856944
v -7.51730893 1.12629467 -0.07856944
v -7.51511154 1.24713235 -0.05549242
v -7.51511154 1.12629467 -0.05549242
v -7.50861057 1.24713235 -0.03330044
v -7.50861057 1.12629467 -0.03330044
v -7.49805096 1.24713235 -0.01284991
v -7.49805096 1.12629467 -0.01284991
v -7.48384036 1.24713235 0.00507782
v -7.48384036 1.12629467 0.00507782
v -7.46652589 1.24713235 0.01978725
v -7.46652589 1.12629467 0.01978725
v -7.44677088 1.24713235 0.03071875
v -7.44677088 1.12629467 0.03071875
v -7.42533519 1.24713235 0.03745216
v -7.42533519 1.12629467 0.03745216
v -7.40304308 1.24713235 0.03972464
v -7.40304308 1.12629467 0.03972464
v -7.38075097 1.24713235 0.03745216
v -7.38075097 1.12629467 0.03745216
v -7.35931528 1.24713235 0.03071875
v -7.35931528 1.12629467 0.03071875
v -7.33956027 1.24713235 0.01978725
v -7.33956027 1.12629467 0.01978725
v -7.3222458 1.24713235 0.00507782
v -7.3222458 1.12629467 0.00507782
v -7.3080352 1.24713235 -0.01284991
v -7.3080352 1.12629467 -0.01284991
v -7.29747559 1.24713235 -0.03330044
v -7.29747559 1.12629467 -0.03330044
v -7.29097462 1.24713235 -0.05549242
v -7.29097462 1.12629467 -0.05549242
v -7.28877723 1.24713235 -0.07856944
v -7.28877723 1.12629467 -0.07856944
v -7.29097462 1.24713235 -0.10164825
v -7.29097462 1.12629467 -0.10164825
v -7.29747559 1.24713235 -0.12383845
v -7.29747559 1.12629467 -0.12383845
v -7.3080352 1.24713235 -0.14429077
v -7.3080352 1.12629467 -0.14429077
v -7.3222458 1.24713235 -0.16221671
v -7.3222458 1.12629467 -0.16221671
v -7.33956027 1.24713235 -0.17692793
v -7.33956027 1.12629467 -0.17692793
v -7.35931528 1.24713235 -0.18785944
v -7.35931528 1.12629467 -0.18785944
v -7.38075097 1.24713235 -0.19459105
v -7.38075097 1.12629467 -0.19459105
v -7.40304308 2.17380893 -0.17540818
v -7.42129264 2.17380893 -0.17354693
v -7.40304308 1.98847323 -0.17540818
v -7.42129264 1.98847323 -0.17354693
v -7.40304308 1.80313753 -0.17540818
v -7.42129264 1.80313753 -0.17354693
v -7.40304308 1.61780183 -0.17540818
v -7.42129264 1.61780183 -0.17354693
v -7.40304308 1.43246677 -0.17540818
v -7.42129264 1.43246677 -0.17354693
v -7.43883955 2.17380893 -0.16803648
v -7.43883955 1.98847323 -0.16803648
v -7.43883955 1.80313753 -0.16803648
v -7.43883955 1.61780183 -0.16803648
v -7.43883955 1.43246677 -0.16803648
v -7.45501152 2.17380893 -0.1590878
v -7.45501152 1.98847323 -0.1590878
v -7.45501152 1.80313753 -0.1590878
v -7.45501152 1.61780183 -0.1590878
v -7.45501152 1.43246677 -0.1590878
v -7.46918636 2.17380893 -0.1470442
v -7.46918636 1.98847323 -0.1470442
v -7.46918636 1.80313753 -0.1470442
v -7.46918636 1.61780183 -0.1470442
v -7.46918636 1.43246677 -0.1470442
v -7.48081873 2.17380893 -0.13237053
v -7.48081873 1.98847323 -0.13237053
v -7.48081873 1.80313753 -0.13237053
v -7.48081873 1.61780183 -0.13237053
v -7.48081873 1.43246677 -0.13237053
v -7.48946346 2.17380893 -0.1156282
v -7.48946346 1.98847323 -0.1156282
v -7.48946346 1.80313753 -0.1156282
v -7.48946346 1.61780183 -0.1156282
v -7.48946346 1.43246677 -0.1156282
v -7.49478617 2.17380893 -0.09746267
v -7.49478617 1.98847323 -0.09746267
v -7.49478617 1.80313753 -0.09746267
v -7.49478617 1.61780183 -0.09746267
v -7.49478617 1.43246677 -0.09746267
v -7.49658306 2.17380893 -0.07856944
v -7.49658306 1.98847323 -0.07856944
v -7.49658306 1.80313753 -0.07856944
v -7.49658306 1.61780183 -0.07856944
v -7.49658306 1.43246677 -0.07856944
v -7.49478617 2.17380893 -0.05967622
v -7.49478617 1.98847323 -0.05967622
v -7.49478617 1.80313753 -0.05967622
v -7.49478617 1.61780183 -0.05967622
v -7.49478617 1.43246677 -0.05967622
v -7.48946346 2.17380893 -0.04151068
v -7.48946346 1.98847323 -0.04151068
v -7.48946346 1.80313753 -0.04151068
v -7.48946346 1.61780183 -0.04151068
v -7.48946346 1.43246677 -0.04151068
v -7.48081873 2.17380893 -0.02476836
v -7.48081873 1.98847323 -0.02476836
v -7.48081873 1.80313753 -0.02476836
v -7.48081873 1.61780183 -0.02476836
v -7.48081873 1.43246677 -0.02476836
v -7.46918636 2.17380893 -0.01009468
v -7.46918636 1.98847323 -0.01009468
v -7.46918636 1.80313753 -0.01009468
v -7.46918636 1.61780183 -0.01009468
v -7.46918636 1.43246677 -0.01009468
v -7.45501152 2.17380893 0.00194891
v -7.45501152 1.98847323 0.00194891
v -7.45501152 1.80313753 0.00194891
v -7.45501152 1.61780183 0.00194891
v -7.45501152 1.43246677 0.00194891
v -7.43883955 2.17380893 0.01089759
v -7.43883955 1.98847323 0.01089759
v -7.43883955 1.80313753 0.01089759
v -7.43883955 1.61780183 0.01089759
v -7.43883955 1.43246677 0.01089759
v -7.42129264 2.17380893 0.01640804
v -7.42129264 1.98847323 0.01640804
v -7.42129264 1.80313753 0.01640804
v -7.42129264 1.61780183 0.01640804
v -7.42129264 1.43246677 0.01640804
v -7.40304308 2.17380893 0.01826929
v -7.40304308 1.98847323 0.01826929
v -7.40304308 1.80313753 0.01826929
v -7.40304308 1.61780183 0.01826929
v -7.40304308 1.43246677 0.01826929
v -7.38479351 2.17380893 0.01640804
v -7.38479351 1.98847323 0.01640804
v -7.38479351 1.80313753 0.01640804
v -7.38479351 1.61780183 0.01640804
v -7.38479351 1.43246677 0.01640804
v -7.36724661 2.17380893 0.01089759
v -7.36724661 1.98847323 0.01089759
v -7.36724661 1.80313753 0.01089759
v -7.36724661 1.61780183 0.01089759
v -7.36724661 1.43246677 0.01089759
v -7.35107464 2.17380893 0.00194891
v -7.35107464 1.98847323 0.00194891
v -7.35107464 1.80313753 0.00194891
v -7.35107464 1.61780183 0.00194891
v -7.35107464 1.43246677 0.00194891
v -7.3368998 2.17380893 -0.01009468
v -7.3368998 1.98847323 -0.01009468
v -7.3368998 1.80313753 -0.01009468
v -7.3368998 1.61780183 -0.01009468
v -7.3368998 1.43246677 -0.01009468
v -7.32526743 2.17380893 -0.02476836
v -7.32526743 1.98847323 -0.02476836
v -7.32526743 1.80313753 -0.02476836
v -7.32526743 1.61780183 -0.02476836
v -7.32526743 1.43246677 -0.02476836
v -7.3166227 2.17380893 -0.04151068
v -7.3166227 1.98847323 -0.04151068
v -7.3166227 1.80313753 -0.04151068
v -7.3166227 1.61780183 -0.04151068
v -7.3166227 1.43246677 -0.04151068
v -7.31129999 2.17380893 -0.05967622
v -7.31129999 1.98847323 -0.05967622
v -7.31129999 1.80313753 -0.05967622
v -7.31129999 1.61780183 -0.05967622
v -7.31129999 1.43246677 -0.05967622
v -7.3095031 2.17380893 -0.07856944
v -7.3095031 1.98847323 -0.07856944
v -7.3095031 1.80313753 -0.07856944
v -7.3095031 1.61780183 -0.07856944
v -7.3095031 1.43246677 -0.07856944
v -7.31129999 2.17380893 -0.09746267
v -7.31129999 1.98847323 -0.09746267
v -7.31129999 1.80313753 -0.09746267
v -7.31129999 1.61780183 -0.09746267
v -7.31129999 1.43246677 -0.09746267
v -7.3166227 2.17380893 -0.1156282
v -7.3166227 1.98847323 -0.1156282
v -7.3166227 1.80313753 -0.1156282
v -7.3166227 1.61780183 -0.1156282
v -7.3166227 1.43246677 -0.1156282
v -7.32526743 2.17380893 -0.13237053
v -7.32526743 1.98847323 -0.13237053
v -7.32526743 1.80313753 -0.13237053
v -7.32526743 1.61780183 -0.13237053
v -7.32526743 1.43246677 -0.13237053
v -7.3368998 2.17380893 -0.1470442
v -7.3368998 1.98847323 -0.1470442
v -7.3368998 1.80313753 -0.1470442
v -7.3368998 1.61780183 -0.1470442
v -7.3368998 1.43246677 -0.1470442
v -7.35107464 2.17380893 -0.1590878
v -7.35107464 1.98847323 -0.1590878
v -7.35107464 1.80313753 -0.1590878
v -7.35107464 1.61780183 -0.1590878
v -7.35107464 1.43246677 -0.1590878
v -7.36724661 2.17380893 -0.16803648
v -7.36724661 1.98847323 -0.16803648
v -7.36724661 1.80313753 -0.16803648
v -7.36724661 1.61780183 -0.16803648
v -7.36724661 1.43246677 -0.16803648
v -7.38479351 2.17380893 -0.17354693
v -7.38479351 1.98847323 -0.17354693
v -7.38479351 1.80313753 -0.17354693
v -7.38479351 1.61780183 -0.17354693
v -7.38479351 1.43246677 -0.17354693
v -7.40304308 2.32383291 -0.17540818
v -7.42129264 2.32383291 -0.17354693
v -7.43883955 2.32383291 -0.16803648
v -7.45501152 2.32383291 -0.1590878
v -7.46918636 2.32383291 -0.1470442
v -7.48081873 2.32383291 -0.13237053
v -7.48946346 2.32383291 -0.1156282
v -7.49478617 2.32383291 -0.09746267
v -7.49658306 2.32383291 -0.07856944
v -7.49478617 2.32383291 -0.05967622
v -7.48946346 2.32383291 -0.04151068
v -7.48081873 2.32383291 -0.02476836
v -7.46918636 2.32383291 -0.01009468
v -7.45501152 2.32383291 0.00194891
v -7.43883955 2.32383291 0.01089759
v -7.42129264 2.32383291 0.01640804
v -7.40304308 2.32383291 0.01826929
v -7.38479351 2.32383291 0.01640804
v -7.36724661 2.32383291 0.01089759
v -7.35107464 2.32383291 0.00194891
v -7.3368998 2.32383291 -0.01009468
v -7.32526743 2.32383291 -0.02476836
v -7.3166227 2.32383291 -0.04151068
v -7.31129999 2.32383291 -0.05967622
v -7.3095031 2.32383291 -0.07856944
v -7.31129999 2.32383291 -0.09746267
v -7.3166227 2.32383291 -0.1156282
v -7.32526743 2.32383291 -0.13237053
v -7.3368998 2.32383291 -0.1470442
v -7.35107464 2.32383291 -0.1590878
v -7.36724661 2.32383291 -0.16803648
v -7.38479351 2.32383291 -0.17354693
v -7.40304308 2.73264056 -0.07856944
v -7.44350966 2.67726514 -0.28190003
v -7.40304308 2.67729072 -0.28598371
v -7.48231167 2.67719011 -0.26983855
v -7.51788465 2.67708184 -0.25035172
v -7.5488465 2.67695651 -0.22430314
v -7.57406907 2.67683374 -0.19279418
v -7.59268338 2.67673058 -0.15708531
v -7.60408153 2.67666238 -0.11854255
v -7.60791846 2.67663936 -0.07856944
v -7.60408153 2.67666238 -0.03859633
v -7.59268338 2.67673058 -0.00005357
v -7.57406907 2.67683374 0.03565527
v -7.5488465 2.67695651 0.06716424
v -7.51788465 2.67708184 0.09321283
v -7.48231167 2.67719011 0.11269965
v -7.44350966 2.67726514 0.12476114
v -7.40304308 2.67729072 0.12884481
v -7.3625765 2.67726514 0.12476114
v -7.32377449 2.67719011 0.11269965
v -7.28820151 2.67708184 0.09321283
v -7.25723965 2.67695651 0.06716424
v -7.23201709 2.67683374 0.03565527
v -7.21340278 2.67673058 -0.00005357
v -7.20200462 2.67666238 -0.03859633
v -7.1981677 2.67663936 -0.07856944
v -7.20200462 2.67666238 -0.11854255
v -7.21340278 2.67673058 -0.15708531
v -7.23201709 2.67683374 -0.19279418
v -7.25723965 2.67695651 -0.22430314
v -7.28820151 2.67708184 -0.25035172
v -7.32377449 2.67719011 -0.26983855
v -7.3625765 2.67726514 -0.28190003
v -7.40304308 2.72856959 -0.17161058
v -7.42100836 2.72856789 -0.16974754
v -7.43820125 2.72855595 -0.1642514
v -7.45390299 2.72854487 -0.15540285
v -7.46749496 2.72852952 -0.14362744
v -7.47850156 2.72851332 -0.12946154
v -7.48657235 2.72850139 -0.11348982
v -7.49149099 2.72849201 -0.09632732
v -7.49314126 2.72848945 -0.07856944
v -7.49149099 2.72849201 -0.06081156
v -7.48657235 2.72850139 -0.04364907
v -7.47850156 2.72851332 -0.02767735
v -7.46749496 2.72852952 -0.01351145
v -7.45390299 2.72854487 -0.00173603
v -7.43820125 2.72855595 0.0071125
v -7.42100836 2.72856789 0.01260865
v -7.40304308 2.72856959 0.01447169
v -7.3850778 2.72856789 0.01260865
v -7.36788491 2.72855595 0.0071125
v -7.35218316 2.72854487 -0.00173603
v -7.3385912 2.72852952 -0.01351145
v -7.3275846 2.72851332 -0.02767735
v -7.31951381 2.72850139 -0.04364907
v -7.31459517 2.72849201 -0.06081156
v -7.3129449 2.72848945 -0.07856944
v -7.31459517 2.72849201 -0.09632732
v -7.31951381 2.72850139 -0.11348982
v -7.3275846 2.72851332 -0.12946154
v -7.3385912 2.72852952 -0.14362744
v -7.35218316 2.72854487 -0.15540285
v -7.36788491 2.72855595 -0.1642514
v -7.3850778 2.72856789 -0.16974754
v -7.4321562 2.71130442 -0.22531869
v -7.40304308 2.71131806 -0.22827774
v -7.46005711 2.7112669 -0.21657922
v -7.4856158 2.71121404 -0.20247411
v -7.50782924 2.71115266 -0.18363452
v -7.52590001 2.71109383 -0.16087933
v -7.53921484 2.71104524 -0.13512397
v -7.54736072 2.71101114 -0.10735358
v -7.55009807 2.7110009 -0.07856944
v -7.54736072 2.71101114 -0.0497853
v -7.53921484 2.71104524 -0.02201492
v -7.52590001 2.71109383 0.00374044
v -7.50782924 2.71115266 0.02649563
v -7.4856158 2.71121404 0.04533521
v -7.46005711 2.7112669 0.05944033
v -7.4321562 2.71130442 0.0681798
v -7.40304308 2.71131806 0.07113885
v -7.37392995 2.71130442 0.0681798
v -7.34602905 2.7112669 0.05944033
v -7.32047036 2.71121404 0.04533521
v -7.29825692 2.71115266 0.02649563
v -7.28018615 2.71109383 0.00374044
v -7.26687132 2.71104524 -0.02201492
v -7.25872544 2.71101114 -0.0497853
v -7.25598808 2.7110009 -0.07856944
v -7.25872544 2.71101114 -0.10735358
v -7.26687132 2.71104524 -0.13512397
v -7.28018615 2.71109383 -0.16087933
v -7.29825692 2.71115266 -0.18363452
v -7.32047036 2.71121404 -0.20247411
v -7.34602905 2.7112669 -0.21657922
v -7.37392995 2.71130442 -0.22531869
v -7.45858026 2.56492513 -0.35651283
v -7.40304308 2.56496093 -0.36211803
v -7.51180384 2.56482197 -0.33996359
v -7.56055576 2.56467362 -0.31325344
v -7.60294976 2.56450055 -0.27758929
v -7.63744103 2.56433089 -0.2344998
v -7.66287097 2.56419193 -0.18572284
v -7.67843684 2.5641007 -0.13311074
v -7.68367374 2.5640683 -0.07856944
v -7.67843684 2.5641007 -0.02402815
v -7.66287097 2.56419193 0.02858395
v -7.63744103 2.56433345 0.07736091
v -7.60294976 2.56450055 0.1204504
v -7.56055576 2.56467362 0.15611456
v -7.51180384 2.56482197 0.18282471
v -7.45858026 2.56492513 0.19937395
v -7.40304308 2.56496093 0.20497915
v -7.3475059 2.56492513 0.19937395
v -7.29428232 2.56482197 0.18282471
v -7.24553039 2.56467362 0.15611456
v -7.2031364 2.56450055 0.1204504
v -7.16864513 2.56433089 0.07736091
v -7.14321518 2.56419193 0.02858395
v -7.12764932 2.5641007 -0.02402815
v -7.12241242 2.5640683 -0.07856944
v -7.12764932 2.5641007 -0.13311074
v -7.14321518 2.56419193 -0.18572284
v -7.16864513 2.56433345 -0.2344998
v -7.2031364 2.56450055 -0.27758929
v -7.24553039 2.56467362 -0.31325344
v -7.29428232 2.56482197 -0.33996359
v -7.3475059 2.56492513 -0.35651283
v -7.40304308 2.62878351 -0.32963105
v -7.45216154 2.62874685 -0.32467486
v -7.4992471 2.62864454 -0.3100459
v -7.54238845 2.62849364 -0.28642175
v -7.57992101 2.62831801 -0.2548645
v -7.61047165 2.62814835 -0.21671868
v -7.63300692 2.62800768 -0.17351296
v -7.64680271 2.62791305 -0.1269012
v -7.65144602 2.6278815 -0.07856944
v -7.64680271 2.62791305 -0.03023768
v -7.63300692 2.62800768 0.01637406
v -7.61047165 2.62814835 0.05957979
v -7.57992101 2.62831801 0.09772561
v -7.54238845 2.62849364 0.12928286
v -7.4992471 2.62864454 0.15290697
v -7.45216154 2.62874685 0.16753598
v -7.40304308 2.62878351 0.17249217
v -7.35392462 2.62874685 0.16753598
v -7.30683906 2.62864454 0.15290697
v -7.26369771 2.62849364 0.12928286
v -7.22616515 2.62831801 0.09772561
v -7.19561451 2.62814835 0.05957979
v -7.17307924 2.62800768 0.01637406
v -7.15928345 2.62791305 -0.03023768
v -7.15464014 2.6278815 -0.07856944
v -7.15928345 2.62791305 -0.1269012
v -7.17307924 2.62800768 -0.17351296
v -7.19561451 2.62814835 -0.21671868
v -7.22616515 2.62831801 -0.2548645
v -7.26369771 2.62849364 -0.28642175
v -7.30683906 2.62864454 -0.3100459
v -7.35392462 2.62874685 -0.32467486
v -7.40304308 2.35239876 -0.18795598
v -7.42382259 2.35239876 -0.18583727
v -7.40304308 2.35914293 -0.18267618
v -7.42275876 2.35914293 -0.18066474
v -7.44378143 2.35239876 -0.17956873
v -7.44170205 2.35914293 -0.17471445
v -7.46214542 2.35239876 -0.16940783
v -7.45914346 2.35914293 -0.16506491
v -7.47820476 2.35239876 -0.15576222
v -7.47440895 2.35914293 -0.15209157
v -7.4913551 2.35239876 -0.13917545
v -7.48691921 2.35914293 -0.13631116
v -7.50110656 2.35239876 -0.12028938
v -7.49620401 2.35914293 -0.11832621
v -7.50710155 2.35239876 -0.09982991
v -7.5019165 2.35914293 -0.09883402
v -7.50912192 2.35239876 -0.07856944
v -7.50384212 2.35914293 -0.07856944
v -7.50710155 2.35239876 -0.05730897
v -7.5019165 2.35914293 -0.05830486
v -7.50110656 2.35239876 -0.03684951
v -7.49620401 2.35914293 -0.03881267
v -7.4913551 2.35239876 -0.01796343
v -7.48691921 2.35914293 -0.02082772
v -7.47820476 2.35239876 -0.00137666
v -7.47440895 2.35914293 -0.00504731
v -7.46214542 2.35239876 0.01226894
v -7.45914346 2.35914293 0.00792602
v -7.44378143 2.35239876 0.02242983
v -7.44170205 2.35914293 0.01757556
v -7.42382259 2.35239876 0.02869838
v -7.42275876 2.35914293 0.02352585
v -7.40304308 2.35239876 0.03081709
v -7.40304308 2.35914293 0.02553729
v -7.38226357 2.35239876 0.02869838
v -7.3833274 2.35914293 0.02352585
v -7.36230473 2.35239876 0.02242983
v -7.36438411 2.35914293 0.01757556
v -7.34394074 2.35239876 0.01226894
v -7.3469427 2.35914293 0.00792602
v -7.3278814 2.35239876 -0.00137666
v -7.33167721 2.35914293 -0.00504731
v -7.31473106 2.35239876 -0.01796343
v -7.31916695 2.35914293 -0.02082772
v -7.3049796 2.35239876 -0.03684951
v -7.30988215 2.35914293 -0.03881267
v -7.29898461 2.35239876 -0.05730897
v -7.30416966 2.35914293 -0.05830486
v -7.29696423 2.35239876 -0.07856944
v -7.30224404 2.35914293 -0.07856944
v -7.29898461 2.35239876 -0.09982991
v -7.30416966 2.35914293 -0.09883402
v -7.3049796 2.35239876 -0.12028938
v -7.30988215 2.35914293 -0.11832621
v -7.31473106 2.35239876 -0.13917545
v -7.31916695 2.35914293 -0.13631116
v -7.3278814 2.35239876 -0.15576222
v -7.33167721 2.35914293 -0.15209157
v -7.34394074 2.35239876 -0.16940783
v -7.3469427 2.35914293 -0.16506491
v -7.36230473 2.35239876 -0.17956873
v -7.36438411 2.35914293 -0.17471445
v -7.38226357 2.35239876 -0.18583727
v -7.3833274 2.35914293 -0.18066474
v -7.4228571 2.32383291 -0.18114749
v -7.40304308 2.32383291 -0.18316786
v -7.44189515 2.32383291 -0.1751668
v -7.45942238 2.32383291 -0.16546899
v -7.47476117 2.32383291 -0.15243307
v -7.48733222 2.32383291 -0.13657757
v -7.49665993 2.32383291 -0.11851037
v -7.50239924 2.32383291 -0.09892521
v -7.5043338 2.32383291 -0.07856944
v -7.50239924 2.32383291 -0.05821368
v -7.49665993 2.32383291 -0.03862851
v -7.48733222 2.32383291 -0.02056132
v -7.47476117 2.32383291 -0.00470582
v -7.45942238 2.32383291 0.00833009
v -7.44189515 2.32383291 0.01802791
v -7.4228571 2.32383291 0.02400859
v -7.40304308 2.32383291 0.02602897
v -7.38322906 2.32383291 0.02400859
v -7.36419101 2.32383291 0.01802791
v -7.34666378 2.32383291 0.00833009
v -7.33132498 2.32383291 -0.00470582
v -7.31875393 2.32383291 -0.02056132
v -7.30942622 2.32383291 -0.03862851
v -7.30368692 2.32383291 -0.05821368
v -7.30175236 2.32383291 -0.07856944
v -7.30368692 2.32383291 -0.09892521
v -7.30942622 2.32383291 -0.11851037
v -7.31875393 2.32383291 -0.13657757
v -7.33132498 2.32383291 -0.15243307
v -7.34666378 2.32383291 -0.16546899
v -7.36419101 2.32383291 -0.1751668
v -7.38322906 2.32383291 -0.18114749
v -7.40304308 2.3299496 -0.18795598
v -7.42382259 2.3299496 -0.18583727
v -7.44378143 2.3299496 -0.17956873
v -7.46214542 2.3299496 -0.16940783
v -7.47820476 2.3299496 -0.15576222
v -7.4913551 2.3299496 -0.13917545
v -7.50110656 2.3299496 -0.12028938
v -7.50710155 2.3299496 -0.09982991
v -7.50912192 2.3299496 -0.07856944
v -7.50710155 2.3299496 -0.05730897
v -7.50110656 2.3299496 -0.03684951
v -7.4913551 2.3299496 -0.01796343
v -7.47820476 2.3299496 -0.00137666
v -7.46214542 2.3299496 0.01226894
v -7.44378143 2.3299496 0.02242983
v -7.42382259 2.3299496 0.02869838
v -7.40304308 2.3299496 0.03081709
v -7.38226357 2.3299496 0.02869838
v -7.36230473 2.3299496 0.02242983
v -7.34394074 2.3299496 0.01226894
v -7.3278814 2.3299496 -0.00137666
v -7.31473106 2.3299496 -0.01796343
v -7.3049796 2.3299496 -0.03684951
v -7.29898461 2.3299496 -0.05730897
v -7.29696423 2.3299496 -0.07856944
v -7.29898461 2.3299496 -0.09982991
v -7.3049796 2.3299496 -0.12028938
v -7.31473106 2.3299496 -0.13917545
v -7.3278814 2.3299496 -0.15576222
v -7.34394074 2.3299496 -0.16940783
v -7.36230473 2.3299496 -0.17956873
v -7.38226357 2.3299496 -0.18583727
v -6.63523295 0.96626399 0.04279064
v -6.73777759 1.01809063 0.04279066
v -6.84378432 1.06240623 0.04279063
v -6.95270408 1.0989823 0.04279064
v -7.06397301 1.12762871 0.04279063
v -7.17701457 1.14819691 0.04279066
v -7.29124248 1.16058076 0.04279066
v -7.40606517 1.16471588 0.04279066
v -7.52088791 1.16058076 0.04279066
v -7.63511575 1.14819713 0.04279066
v -7.74815651 1.12762892 0.04279063
v -7.85942539 1.09898272 0.04279064
v -7.96834542 1.06240666 0.04279063
v -8.07435251 1.01809063 0.04279066
v -8.1768971 0.9662642 0.04279064
v -6.63523285 0.9662642 -0.08022787
v -6.73777749 1.01809085 -0.08022787
v -6.84378421 1.06240644 -0.08022787
v -6.95270408 1.09898251 -0.08022787
v -7.06397296 1.12762892 -0.08022787
v -7.17701454 1.14819713 -0.08022787
v -7.29124247 1.16058097 -0.08022787
v -7.40606517 1.1647161 -0.08022787
v -7.52088792 1.16058097 -0.08022787
v -7.63511578 1.14819734 -0.08022787
v -7.74815657 1.12762914 -0.08022787
v -7.85942539 1.09898272 -0.08022787
v -7.96834542 1.06240687 -0.08022787
v -8.07435262 1.01809085 -0.08022787
v -8.17689721 0.9662642 -0.08022787
v -6.63523295 0.96626399 -0.20325171
v -6.73777759 1.01809063 -0.20325171
v -6.84378432 1.06240623 -0.20325172
v -6.95270408 1.0989823 -0.20325172
v -7.06397301 1.12762871 -0.20325172
v -7.17701457 1.14819691 -0.20325171
v -7.29124248 1.16058076 -0.20325171
v -7.40606517 1.16471588 -0.20325171
v -7.52088791 1.16058076 -0.20325171
v -7.63511575 1.14819713 -0.20325171
v -7.74815651 1.12762892 -0.20325172
v -7.85942539 1.09898272 -0.20325172
v -7.96834542 1.06240666 -0.20325172
v -8.07435251 1.01809063 -0.20325171
v -8.1768971 0.9662642 -0.20325171
v -7.4060652 0.74178112 0.04279076
v -7.4060652 0.74178112 -0.08022783
v -7.32166502 0.73874153 -0.08022783
v -7.32166502 0.73874153 0.04279076
v -6.99276178 0.66657858 -0.08022783
v -6.99276178 0.66657858 -0.20325163
v -6.91484182 0.63400443 -0.20325161
v -6.91484182 0.63400443 -0.08022783
v -6.83946659 0.59590931 0.04279075
v -6.83946659 0.59590931 -0.08022783
v -7.97266358 0.59590953 -0.08022783
v -7.97266358 0.59590953 0.04279075
v -7.89728845 0.63400443 -0.08022783
v -7.89728845 0.63400443 0.04279078
v -6.91484182 0.63400443 0.04279078
v -6.99276178 0.66657858 0.04279078
v -7.73930666 0.69346403 -0.08022783
v -7.73930666 0.69346403 -0.20325161
v -7.65751874 0.71452033 -0.20325161
v -7.65751874 0.71452033 -0.08022783
v -7.57442835 0.72963897 -0.20325163
v -7.57442835 0.72963897 -0.08022783
v -7.49046542 0.73874153 -0.08022783
v -7.49046542 0.73874153 -0.20325163
v -7.4060652 0.74178112 -0.20325163
v -7.23770205 0.72963897 -0.08022783
v -7.23770205 0.72963897 -0.20325163
v -7.15461105 0.71452011 -0.20325161
v -7.15461105 0.71452011 -0.08022783
v -7.81936809 0.66657901 -0.08022783
v -7.81936809 0.66657901 0.04279078
v -6.83946659 0.59590931 -0.20325165
v -7.32166502 0.73874153 -0.20325163
v -7.23770205 0.72963897 0.04279076
v -7.73930666 0.69346403 0.04279078
v -7.81936809 0.66657901 -0.20325163
v -7.65751874 0.71452033 0.04279078
v -7.15461105 0.71452011 0.04279078
v -7.07282308 0.69346371 -0.20325161
v -7.07282308 0.69346371 -0.08022783
v -7.57442835 0.72963897 0.04279076
v -7.97266358 0.59590953 -0.20325165
v -7.89728845 0.63400443 -0.20325161
v -7.49046542 0.73874153 0.04279076
v -7.07282308 0.69346371 0.04279078
v -7.29673795 1.08438073 0.04279074
v -7.40606518 1.08831785 0.04279067
v -6.87069524 0.99090487 -0.2032518
v -6.7697621 0.94871001 -0.20325179
v -6.57829133 0.84312269 0.04279074
v -6.67212527 0.89936389 0.04279067
v -6.57829133 0.84312269 -0.08022785
v -8.14000484 0.8993641 0.04279072
v -8.23383926 0.84312269 0.0427907
v -8.23383926 0.84312269 -0.08022785
v -8.04236807 0.94871022 0.04279075
v -6.7697621 0.94871001 0.04279068
v -6.87069524 0.99090487 0.04279067
v -7.83772736 1.02573063 -0.20325179
v -7.73178392 1.05300591 -0.20325181
v -7.62415332 1.07258962 -0.2032518
v -7.51539246 1.08438073 -0.2032518
v -7.40606518 1.08831785 -0.2032518
v -7.18797704 1.07258962 -0.2032518
v -7.08034566 1.0530057 -0.20325181
v -7.9414345 0.99090529 0.04279072
v -6.67212527 0.89936389 -0.2032518
v -7.29673795 1.08438073 -0.2032518
v -7.18797704 1.07258962 0.04279074
v -7.83772736 1.02573063 0.04279075
v -7.9414345 0.99090529 -0.2032518
v -7.73178392 1.05300591 0.04279074
v -7.08034566 1.0530057 0.04279074
v -6.97440213 1.0257302 -0.20325179
v -6.57829133 0.84312269 -0.20325179
v -7.62415332 1.07258962 0.04279074
v -8.14000484 0.8993641 -0.2032518
v -8.04236807 0.94871022 -0.20325179
v -7.51539246 1.08438073 0.04279074
v -6.97440213 1.0257302 0.04279075
v -8.23383926 0.84312269 -0.20325179
v -7.31622209 0.81421326 0.04279063
v -7.40606519 0.81744894 0.04279063
v -6.96610798 0.73739683 -0.20325177
v -6.88316296 0.70272187 -0.20325176
v -6.72581587 0.61595202 0.04279062
v -6.80292691 0.66216989 0.04279063
v -6.72581587 0.61595202 -0.08022772
v -8.00920325 0.6621701 0.04279063
v -8.08631472 0.61595202 0.04279062
v -8.08631472 0.61595202 -0.08022772
v -7.9289672 0.70272176 0.04279063
v -6.88316307 0.70272176 0.04279063
v -6.96610804 0.73739662 0.04279062
v -7.76079728 0.76601596 -0.20325177
v -7.6737349 0.78843017 -0.20325177
v -7.58528604 0.80452393 -0.20325177
v -7.49590836 0.81421348 -0.20325177
v -7.40606519 0.81744894 -0.20325177
v -7.22684436 0.80452372 -0.20325177
v -7.13839487 0.78843017 -0.20325177
v -7.84602178 0.73739683 0.04279062
v -6.80292681 0.6621701 -0.20325176
v -7.31622208 0.81421348 -0.20325177
v -7.22684437 0.8045235 0.04279063
v -7.76079722 0.76601575 0.04279063
v -7.84602183 0.73739705 -0.20325177
v -7.67373484 0.78842996 0.04279063
v -7.13839489 0.78842996 0.04279063
v -7.05133241 0.76601575 -0.20325177
v -6.72581582 0.61595213 -0.20325177
v -7.58528601 0.80452372 0.04279063
v -8.00920336 0.66217021 -0.20325176
v -7.92896731 0.70272197 -0.20325176
v -7.49590834 0.81421326 0.04279063
v -7.05133243 0.76601554 0.04279063
v -8.08631477 0.61595213 -0.20325177
v -7.40304216 0.7879975 -0.0340017
v -7.40304216 0.7879975 -0.13020671
v -7.56746056 0.78619348 -0.13020671
v -7.56746056 0.78619348 -0.0340017
v -7.40304198 -3.09523482 -0.12827194
v -7.40304198 -3.09519474 -0.032319
v -7.24174666 0.78620542 -0.03400237
v -7.24174666 0.78620542 -0.13020671
v -7.40304216 0.7879975 -0.08327388
v -7.6462465 0.78616748 -0.08327388
v -7.40326457 -3.22373317 -0.08155865
v -7.24174666 0.78620542 -0.08327421
v -7.15983881 0.78616748 -0.08327437
v -7.56746056 0.78619348 -0.08327388
v -7.40304189 -1.93264702 -0.0340017
v -7.67951157 -1.93599694 -0.0340017
v -7.94295706 -1.93948199 -0.08327388
v -7.66476541 -1.93572177 -0.13020671
v -7.40304189 -1.93264702 -0.13020671
v -7.12294543 -1.93810596 -0.13020671
v -7.09847083 -1.93896768 -0.03400237
v -6.84307797 -1.9451385 -0.08327437
g Group63159
f 33 65 34
f 34 65 35
f 35 65 36
f 36 65 37
f 37 65 38
f 38 65 39
f 39 65 40
f 40 65 41
f 41 65 42
f 42 65 43
f 43 65 44
f 44 65 45
f 45 65 46
f 46 65 47
f 47 65 48
f 48 65 49
f 49 65 50
f 50 65 51
f 51 65 52
f 52 65 53
f 53 65 54
f 54 65 55
f 55 65 56
f 56 65 57
f 57 65 58
f 58 65 59
f 59 65 60
f 60 65 61
f 61 65 62
f 62 65 63
f 63 65 64
f 64 65 33
f 101 100 99 98
f 67 66 101 98
f 33 34 99 100
f 98 99 103 102
f 68 67 98 102
f 34 35 103 99
f 102 103 105 104
f 69 68 102 104
f 35 36 105 103
f 104 105 107 106
f 70 69 104 106
f 36 37 107 105
f 106 107 109 108
f 71 70 106 108
f 37 38 109 107
f 108 109 111 110
f 72 71 108 110
f 38 39 111 109
f 110 111 113 112
f 73 72 110 112
f 39 40 113 111
f 112 113 115 114
f 74 73 112 114
f 40 41 115 113
f 114 115 117 116
f 75 74 114 116
f 41 42 117 115
f 116 117 119 118
f 76 75 116 118
f 42 43 119 117
f 118 119 121 120
f 77 76 118 120
f 43 44 121 119
f 120 121 123 122
f 78 77 120 122
f 44 45 123 121
f 122 123 125 124
f 79 78 122 124
f 45 46 125 123
f 124 125 127 126
f 80 79 124 126
f 46 47 127 125
f 126 127 129 128
f 81 80 126 128
f 47 48 129 127
f 128 129 131 130
f 82 81 128 130
f 48 49 131 129
f 130 131 133 132
f 83 82 130 132
f 49 50 133 131
f 132 133 135 134
f 84 83 132 134
f 50 51 135 133
f 134 135 137 136
f 85 84 134 136
f 51 52 137 135
f 136 137 139 138
f 86 85 136 138
f 52 53 139 137
f 138 139 141 140
f 87 86 138 140
f 53 54 141 139
f 140 141 143 142
f 88 87 140 142
f 54 55 143 141
f 142 143 145 144
f 89 88 142 144
f 55 56 145 143
f 144 145 147 146
f 90 89 144 146
f 56 57 147 145
f 146 147 149 148
f 91 90 146 148
f 57 58 149 147
f 148 149 151 150
f 92 91 148 150
f 58 59 151 149
f 150 151 153 152
f 93 92 150 152
f 59 60 153 151
f 152 153 155 154
f 94 93 152 154
f 60 61 155 153
f 154 155 157 156
f 95 94 154 156
f 61 62 157 155
f 156 157 159 158
f 96 95 156 158
f 62 63 159 157
f 158 159 161 160
f 97 96 158 160
f 63 64 161 159
f 160 161 100 101
f 66 97 160 101
f 64 33 100 161
f 162 164 165 163
f 164 166 167 165
f 166 168 169 167
f 168 170 171 169
f 170 66 67 171
f 163 165 173 172
f 165 167 174 173
f 167 169 175 174
f 169 171 176 175
f 171 67 68 176
f 172 173 178 177
f 173 174 179 178
f 174 175 180 179
f 175 176 181 180
f 176 68 69 181
f 177 178 183 182
f 178 179 184 183
f 179 180 185 184
f 180 181 186 185
f 181 69 70 186
f 182 183 188 187
f 183 184 189 188
f 184 185 190 189
f 185 186 191 190
f 186 70 71 191
f 187 188 193 192
f 188 189 194 193
f 189 190 195 194
f 190 191 196 195
f 191 71 72 196
f 192 193 198 197
f 193 194 199 198
f 194 195 200 199
f 195 196 201 200
f 196 72 73 201
f 197 198 203 202
f 198 199 204 203
f 199 200 205 204
f 200 201 206 205
f 201 73 74 206
f 202 203 208 207
f 203 204 209 208
f 204 205 210 209
f 205 206 211 210
f 206 74 75 211
f 207 208 213 212
f 208 209 214 213
f 209 210 215 214
f 210 211 216 215
f 211 75 76 216
f 212 213 218 217
f 213 214 219 218
f 214 215 220 219
f 215 216 221 220
f 216 76 77 221
f 217 218 223 222
f 218 219 224 223
f 219 220 225 224
f 220 221 226 225
f 221 77 78 226
f 222 223 228 227
f 223 224 229 228
f 224 225 230 229
f 225 226 231 230
f 226 78 79 231
f 227 228 233 232
f 228 229 234 233
f 229 230 235 234
f 230 231 236 235
f 231 79 80 236
f 232 233 238 237
f 233 234 239 238
f 234 235 240 239
f 235 236 241 240
f 236 80 81 241
f 237 238 243 242
f 238 239 244 243
f 239 240 245 244
f 240 241 246 245
f 241 81 82 246
f 242 243 248 247
f 243 244 249 248
f 244 245 250 249
f 245 246 251 250
f 246 82 83 251
f 247 248 253 252
f 248 249 254 253
f 249 250 255 254
f 250 251 256 255
f 251 83 84 256
f 252 253 258 257
f 253 254 259 258
f 254 255 260 259
f 255 256 261 260
f 256 84 85 261
f 257 258 263 262
f 258 259 264 263
f 259 260 265 264
f 260 261 266 265
f 261 85 86 266
f 262 263 268 267
f 263 264 269 268
f 264 265 270 269
f 265 266 271 270
f 266 86 87 271
f 267 268 273 272
f 268 269 274 273
f 269 270 275 274
f 270 271 276 275
f 271 87 88 276
f 272 273 278 277
f 273 274 279 278
f 274 275 280 279
f 275 276 281 280
f 276 88 89 281
f 277 278 283 282
f 278 279 284 283
f 279 280 285 284
f 280 281 286 285
f 281 89 90 286
f 282 283 288 287
f 283 284 289 288
f 284 285 290 289
f 285 286 291 290
f 286 90 91 291
f 287 288 293 292
f 288 289 294 293
f 289 290 295 294
f 290 291 296 295
f 291 91 92 296
f 292 293 298 297
f 293 294 299 298
f 294 295 300 299
f 295 296 301 300
f 296 92 93 301
f 297 298 303 302
f 298 299 304 303
f 299 300 305 304
f 300 301 306 305
f 301 93 94 306
f 302 303 308 307
f 303 304 309 308
f 304 305 310 309
f 305 306 311 310
f 306 94 95 311
f 307 308 313 312
f 308 309 314 313
f 309 310 315 314
f 310 311 316 315
f 311 95 96 316
f 312 313 318 317
f 313 314 319 318
f 314 315 320 319
f 315 316 321 320
f 316 96 97 321
f 317 318 164 162
f 318 319 166 164
f 319 320 168 166
f 320 321 170 168
f 321 97 66 170
f 322 162 163 323
f 323 163 172 324
f 324 172 177 325
f 325 177 182 326
f 326 182 187 327
f 327 187 192 328
f 328 192 197 329
f 329 197 202 330
f 330 202 207 331
f 331 207 212 332
f 332 212 217 333
f 333 217 222 334
f 334 222 227 335
f 335 227 232 336
f 336 232 237 337
f 337 237 242 338
f 338 242 247 339
f 339 247 252 340
f 340 252 257 341
f 341 257 262 342
f 342 262 267 343
f 343 267 272 344
f 344 272 277 345
f 345 277 282 346
f 346 282 287 347
f 347 287 292 348
f 348 292 297 349
f 349 297 302 350
f 350 302 307 351
f 351 307 312 352
f 352 312 317 353
f 353 317 162 322
f 354 387 388
f 354 388 389
f 354 389 390
f 354 390 391
f 354 391 392
f 354 392 393
f 354 393 394
f 354 394 395
f 354 395 396
f 354 396 397
f 354 397 398
f 354 398 399
f 354 399 400
f 354 400 401
f 354 401 402
f 354 402 403
f 354 403 404
f 354 404 405
f 354 405 406
f 354 406 407
f 354 407 408
f 354 408 409
f 354 409 410
f 354 410 411
f 354 411 412
f 354 412 413
f 354 413 414
f 354 414 415
f 354 415 416
f 354 416 417
f 354 417 418
f 354 418 387
f 356 355 419 420
f 355 357 421 419
f 357 358 422 421
f 358 359 423 422
f 359 360 424 423
f 360 361 425 424
f 361 362 426 425
f 362 363 427 426
f 363 364 428 427
f 364 365 429 428
f 365 366 430 429
f 366 367 431 430
f 367 368 432 431
f 368 369 433 432
f 369 370 434 433
f 370 371 435 434
f 371 372 436 435
f 372 373 437 436
f 373 374 438 437
f 374 375 439 438
f 375 376 440 439
f 376 377 441 440
f 377 378 442 441
f 378 379 443 442
f 379 380 444 443
f 380 381 445 444
f 381 382 446 445
f 382 383 447 446
f 383 384 448 447
f 384 385 449 448
f 385 386 450 449
f 420 450 386 356
f 420 419 388 387
f 419 421 389 388
f 421 422 390 389
f 422 423 391 390
f 423 424 392 391
f 424 425 393 392
f 425 426 394 393
f 426 427 395 394
f 427 428 396 395
f 428 429 397 396
f 429 430 398 397
f 430 431 399 398
f 431 432 400 399
f 432 433 401 400
f 433 434 402 401
f 434 435 403 402
f 435 436 404 403
f 436 437 405 404
f 437 438 406 405
f 438 439 407 406
f 439 440 408 407
f 440 441 409 408
f 441 442 410 409
f 442 443 411 410
f 443 444 412 411
f 444 445 413 412
f 445 446 414 413
f 446 447 415 414
f 447 448 416 415
f 448 449 417 416
f 449 450 418 417
f 387 418 450 420
f 1 2 451 452
f 2 3 453 451
f 3 4 454 453
f 4 5 455 454
f 5 6 456 455
f 6 7 457 456
f 7 8 458 457
f 8 9 459 458
f 9 10 460 459
f 10 11 461 460
f 11 12 462 461
f 12 13 463 462
f 13 14 464 463
f 14 15 465 464
f 15 16 466 465
f 16 17 467 466
f 17 18 468 467
f 18 19 469 468
f 19 20 470 469
f 20 21 471 470
f 21 22 472 471
f 22 23 473 472
f 23 24 474 473
f 24 25 475 474
f 25 26 476 475
f 26 27 477 476
f 27 28 478 477
f 28 29 479 478
f 29 30 480 479
f 30 31 481 480
f 31 32 482 481
f 32 1 452 482
f 355 356 483 484
f 484 485 357 355
f 485 486 358 357
f 486 487 359 358
f 487 488 360 359
f 488 489 361 360
f 489 490 362 361
f 490 491 363 362
f 491 492 364 363
f 492 493 365 364
f 493 494 366 365
f 494 495 367 366
f 495 496 368 367
f 496 497 369 368
f 497 498 370 369
f 498 499 371 370
f 499 500 372 371
f 500 501 373 372
f 501 502 374 373
f 502 503 375 374
f 503 504 376 375
f 504 505 377 376
f 505 506 378 377
f 506 507 379 378
f 507 508 380 379
f 508 509 381 380
f 509 510 382 381
f 510 511 383 382
f 511 512 384 383
f 512 513 385 384
f 513 514 386 385
f 356 386 514 483
f 484 483 452 451
f 483 514 482 452
f 451 453 485 484
f 453 454 486 485
f 454 455 487 486
f 455 456 488 487
f 456 457 489 488
f 457 458 490 489
f 458 459 491 490
f 459 460 492 491
f 460 461 493 492
f 461 462 494 493
f 462 463 495 494
f 463 464 496 495
f 464 465 497 496
f 465 466 498 497
f 466 467 499 498
f 467 468 500 499
f 468 469 501 500
f 469 470 502 501
f 470 471 503 502
f 471 472 504 503
f 472 473 505 504
f 473 474 506 505
f 474 475 507 506
f 475 476 508 507
f 476 477 509 508
f 477 478 510 509
f 478 479 511 510
f 479 480 512 511
f 480 481 513 512
f 481 482 514 513
f 2 1 517 518
f 3 2 518 520
f 4 3 520 522
f 5 4 522 524
f 6 5 524 526
f 7 6 526 528
f 8 7 528 530
f 9 8 530 532
f 10 9 532 534
f 11 10 534 536
f 12 11 536 538
f 13 12 538 540
f 14 13 540 542
f 15 14 542 544
f 16 15 544 546
f 17 16 546 548
f 18 17 548 550
f 19 18 550 552
f 20 19 552 554
f 21 20 554 556
f 22 21 556 558
f 23 22 558 560
f 24 23 560 562
f 25 24 562 564
f 26 25 564 566
f 27 26 566 568
f 28 27 568 570
f 29 28 570 572
f 30 29 572 574
f 31 30 574 576
f 32 31 576 578
f 1 32 578 517
f 518 517 515 516
f 516 519 520 518
f 519 521 522 520
f 521 523 524 522
f 523 525 526 524
f 525 527 528 526
f 527 529 530 528
f 529 531 532 530
f 531 533 534 532
f 533 535 536 534
f 535 537 538 536
f 537 539 540 538
f 539 541 542 540
f 541 543 544 542
f 543 545 546 544
f 545 547 548 546
f 547 549 550 548
f 549 551 552 550
f 551 553 554 552
f 553 555 556 554
f 555 557 558 556
f 557 559 560 558
f 559 561 562 560
f 561 563 564 562
f 563 565 566 564
f 565 567 568 566
f 567 569 570 568
f 569 571 572 570
f 571 573 574 572
f 573 575 576 574
f 575 577 578 576
f 517 578 577 515
f 322 323 579 580
f 323 324 581 579
f 324 325 582 581
f 325 326 583 582
f 326 327 584 583
f 327 328 585 584
f 328 329 586 585
f 329 330 587 586
f 330 331 588 587
f 331 332 589 588
f 332 333 590 589
f 333 334 591 590
f 334 335 592 591
f 335 336 593 592
f 336 337 594 593
f 337 338 595 594
f 338 339 596 595
f 339 340 597 596
f 340 341 598 597
f 341 342 599 598
f 342 343 600 599
f 343 344 601 600
f 344 345 602 601
f 345 346 603 602
f 346 347 604 603
f 347 348 605 604
f 348 349 606 605
f 349 350 607 606
f 350 351 608 607
f 351 352 609 608
f 352 353 610 609
f 353 322 580 610
f 515 611 612 516
f 516 612 613 519
f 519 613 614 521
f 521 614 615 523
f 523 615 616 525
f 525 616 617 527
f 527 617 618 529
f 529 618 619 531
f 531 619 620 533
f 533 620 621 535
f 535 621 622 537
f 537 622 623 539
f 539 623 624 541
f 541 624 625 543
f 543 625 626 545
f 545 626 627 547
f 547 627 628 549
f 549 628 629 551
f 551 629 630 553
f 553 630 631 555
f 555 631 632 557
f 557 632 633 559
f 559 633 634 561
f 561 634 635 563
f 563 635 636 565
f 565 636 637 567
f 567 637 638 569
f 569 638 639 571
f 571 639 640 573
f 573 640 641 575
f 575 641 642 577
f 577 642 611 515
f 612 611 580 579
f 611 642 610 580
f 579 581 613 612
f 581 582 614 613
f 582 583 615 614
f 583 584 616 615
f 584 585 617 616
f 585 586 618 617
f 586 587 619 618
f 587 588 620 619
f 588 589 621 620
f 589 590 622 621
f 590 591 623 622
f 591 592 624 623
f 592 593 625 624
f 593 594 626 625
f 594 595 627 626
f 595 596 628 627
f 596 597 629 628
f 597 598 630 629
f 598 599 631 630
f 599 600 632 631
f 600 601 633 632
f 601 602 634 633
f 602 603 635 634
f 603 604 636 635
f 604 605 637 636
f 605 606 638 637
f 606 607 639 638
f 607 608 640 639
f 608 609 641 640
f 609 610 642 641
g Group43059
f 691 690 689 688
f 650 649 733 734
f 649 650 665 664
f 695 694 693 692
f 674 675 735 736
f 659 660 675 674
f 803 781 703 732
f 643 737 738
f 643 658 739 737
f 800 804 729
f 699 698 778 777
f 741 657 740
f 796 803 732 725
f 657 741 742 672
f 701 700 698 699
f 657 656 743 740
f 656 657 672 671
f 696 697 695 702
f 644 643 738 744
f 643 644 659 658
f 702 695 692 703
f 645 644 744 745
f 644 645 660 659
f 707 706 705 704
f 683 684 746 747
f 668 669 684 683
f 709 708 706 707
f 682 683 747 748
f 667 668 683 682
f 689 712 711 710
f 680 681 749 750
f 665 666 681 680
f 716 715 714 713
f 677 678 751 752
f 662 663 678 677
f 718 717 700 701
f 656 655 753 743
f 655 656 671 670
f 697 719 694 695
f 673 674 736 754
f 658 659 674 673
f 690 720 712 689
f 679 680 750 755
f 664 665 680 679
f 721 713 690 691
f 649 648 756 733
f 648 649 664 663
f 722 704 717 718
f 655 654 757 753
f 654 655 670 669
f 704 705 723 717
f 684 685 758 746
f 669 670 685 684
f 724 707 704 722
f 654 653 759 757
f 653 654 669 668
f 725 716 713 721
f 648 647 760 756
f 647 648 663 662
f 727 726 715 716
f 676 677 752 761
f 661 662 677 676
f 802 770 688 731
f 673 754 762
f 658 673 762 739
f 794 801 730 723
f 728 709 707 724
f 653 652 763 759
f 652 653 668 667
f 692 693 726 727
f 675 676 761 735
f 660 661 676 675
f 700 730 729 698
f 686 687 764 765
f 671 672 687 686
f 731 710 709 728
f 652 651 766 763
f 651 652 667 666
f 713 714 720 690
f 678 679 755 751
f 663 664 679 678
f 717 723 730 700
f 685 686 765 758
f 670 671 686 685
f 710 711 708 709
f 681 682 748 749
f 666 667 682 681
f 732 727 716 725
f 647 646 767 760
f 646 647 662 661
f 688 689 710 731
f 651 650 734 766
f 650 651 666 665
f 703 692 727 732
f 646 645 745 767
f 645 646 661 660
f 698 729 804 778
f 785 784 708 711
f 687 768 764
f 672 742 768 687
f 734 733 769 770
f 736 735 771 772
f 738 737 773 774
f 737 739 775 773
f 741 740 776 777
f 742 741 777 778
f 740 743 779 776
f 744 738 774 780
f 745 744 780 781
f 747 746 782 783
f 748 747 783 784
f 750 749 785 786
f 752 751 787 788
f 743 753 789 779
f 754 736 772 790
f 755 750 786 791
f 733 756 792 769
f 753 757 793 789
f 746 758 794 782
f 757 759 795 793
f 756 760 796 792
f 761 752 788 797
f 762 754 790 798
f 739 762 798 775
f 759 763 799 795
f 735 761 797 771
f 765 764 800 801
f 763 766 802 799
f 751 755 791 787
f 758 765 801 794
f 749 748 784 785
f 760 767 803 796
f 766 734 770 802
f 767 745 781 803
f 768 742 778 804
f 764 768 804 800
f 770 769 691 688
f 772 771 693 694
f 774 773 696
f 773 775 697 696
f 777 776 699
f 787 791 720 714
f 776 779 701 699
f 780 774 696 702
f 781 780 702 703
f 783 782 705 706
f 784 783 706 708
f 786 785 711 712
f 788 787 714 715
f 779 789 718 701
f 790 772 694 719
f 791 786 712 720
f 769 792 721 691
f 789 793 722 718
f 782 794 723 705
f 793 795 724 722
f 792 796 725 721
f 797 788 715 726
f 798 790 719
f 775 798 719 697
f 795 799 728 724
f 771 797 726 693
f 801 800 729 730
f 799 802 731 728
g Group16278
f 809 815 826 824
f 805 808 818 813
f 808 805 819 820
f 817 816 812
f 823 809 824
f 810 825 826 815
f 814 821 822 807
f 819 825 810
f 806 823 824 812
f 811 805 813 816
f 805 811 825 819
f 818 814 807
f 822 809 823
f 820 810 815 821
f 820 819 810
f 816 813 806 812
f 807 822 823 806
f 808 814 818
f 821 815 809 822
f 812 824 826 817
f 811 816 817
f 813 818 807 806
f 808 820 821 814
f 825 811 817 826

 