# File exported by ZBrush version 2021
# www.zbrush.com
#Vertex Count 942
#Face Count 970
#Auto scale x=0.559301 y=0.559301 z=0.559301
#Auto offset x=4.142220 y=0.137334 z=0.043944
v -6.02296372 -6.3259205 -0.05799553
v -6.05814883 -6.3651655 -0.0364043
v -6.00529699 -6.40727681 -0.09729817
v -6.05634482 -6.37173618 -0.12118513
v -6.04383799 5.85099412 -0.01325576
v -6.09403646 5.90006572 -0.04728574
v -6.02601396 5.84301246 -0.11941685
v -6.01311581 -6.34693182 -0.08550666
v -6.09851154 -6.2426843 -0.093674
v -6.10140982 -6.23744362 -0.05407457
v -6.02844034 -6.35385545 -0.04221512
v -6.00196263 -6.39496756 -0.07042891
v -6.11975241 -6.26041668 -0.02712486
v -5.98667923 5.90681202 -0.08979416
v -6.03827035 5.88424222 -0.11593035
v -6.06627138 5.9076876 -0.08296778
v -6.00509685 5.9161842 -0.05732148
v -6.14823449 -6.28902089 -0.02598236
v -6.16170834 -6.31331541 -0.05735366
v -6.05132602 -6.3904848 -0.0626728
v -6.02616955 -6.36551249 -0.11342186
v -6.0516389 -6.39494539 -0.09881077
v -6.1608091 -6.31445955 -0.10171618
v -6.14546666 -6.29150269 -0.13023392
v -6.11677016 -6.26484743 -0.12576942
v -6.1418192 5.74924545 -0.00304301
v -6.11057483 5.72662279 -0.03836746
v -6.01004404 5.85415882 -0.04340947
v -6.05805931 5.89014108 -0.02332905
v -6.17624447 5.7895212 -0.0078508
v -6.20436166 5.81472881 -0.04649725
v -5.99984572 5.84872717 -0.08716051
v -6.1039059 5.72247083 -0.09212027
v -6.12757294 5.74116575 -0.13409052
v -6.16317986 5.78300338 -0.1381277
v -6.29608509 5.57829285 -0.15111534
v -6.34133083 5.62739343 -0.15724442
v -6.3777496 5.6654423 -0.11223467
v -6.19545775 5.81457194 -0.10025006
v -6.382139 5.66718919 -0.04457521
v -6.58127145 5.4893786 -0.12136571
v -6.58435196 5.4913429 -0.03982106
v -6.54599703 5.45175773 0.01839445
v -6.35102677 5.63420368 0.00406943
v -6.49111417 5.3956133 0.02061866
v -6.30672865 5.5862549 0.0073074
v -6.45085676 5.35534863 -0.03211502
v -6.27233045 5.55256943 -0.03589295
v -6.44755266 5.35236297 -0.10957957
v -6.26785685 5.54896908 -0.10080254
v -6.48292364 5.38866153 -0.16873913
v -6.61320405 5.13789319 -0.1187857
v -6.65777755 5.18006162 -0.18779327
v -6.72585717 5.24454919 -0.19414227
v -6.53820165 5.44560566 -0.17520255
v -6.77772729 5.29349291 -0.12980303
v -6.88492722 5.01937213 -0.21591946
v -6.94636647 5.07302794 -0.13900559
v -6.94690273 5.07358977 -0.0250276
v -6.77978174 5.29506077 -0.03292674
v -6.88646119 5.02101671 0.05483459
v -6.73123895 5.24903707 0.03551404
v -6.80366875 4.94892858 0.05422847
v -6.66338824 5.18502352 0.03634008
v -6.74676724 4.89928235 -0.02238143
v -6.61549083 5.13998878 -0.02738232
v -6.74605749 4.89848862 -0.13036265
v -6.85004264 4.63713747 -0.02037178
v -6.85153547 4.63797127 -0.14280139
v -6.91720319 4.69283004 -0.23194124
v -6.80197002 4.94706062 -0.21052342
v -7.0116676 4.7721223 -0.23553143
v -7.01731559 4.4304669 -0.24716023
v -7.11973107 4.51065094 -0.24834922
v -7.19102356 4.56678344 -0.15254749
v -7.07956669 4.82937932 -0.1472355
v -7.18643753 4.56377134 -0.01610932
v -7.07774818 4.82829743 -0.01887706
v -7.10894438 4.50356362 0.07726795
v -7.00753738 4.76971723 0.07018767
v -7.00689902 4.42362256 0.07296257
v -6.91327162 4.69056479 0.06777753
v -6.93980646 4.37087302 -0.02255666
v -7.08163883 4.14519124 0.07669222
v -7.01058059 4.09547254 -0.02548173
v -7.01783608 4.1001872 -0.16401538
v -6.94397227 4.37362508 -0.15349689
v -7.09916788 4.15653794 -0.26101681
v -7.09618371 3.82539971 -0.17308026
v -7.18308517 3.88182719 -0.27268316
v -7.2997289 3.95776293 -0.26937189
v -7.20995612 4.23348226 -0.25959182
v -7.37743838 4.00851577 -0.16056285
v -7.28500339 4.28597433 -0.15703166
v -7.3670719 4.00194681 -0.01040756
v -7.27767458 4.28118124 -0.01376354
v -7.2748801 3.94201275 0.08857491
v -7.19224655 4.22198379 0.08301977
v -7.15875121 3.86639331 0.07890392
v -7.3848387 3.68174691 0.09514025
v -7.26338174 3.60606097 0.08285885
v -7.1889853 3.5596127 -0.03156611
v -7.08620535 3.81906094 -0.02926682
v -7.20164037 3.56745283 -0.18166955
v -7.32039227 3.32619245 -0.03345419
v -7.33596522 3.33517309 -0.18732304
v -7.43526235 3.39086993 -0.29097565
v -7.29462974 3.62539445 -0.28357533
v -7.56547488 3.46367848 -0.28315695
v -7.41686445 3.70153736 -0.27727461
v -7.6497981 3.51066557 -0.16180368
v -7.49635653 3.75105997 -0.1620826
v -7.63295558 3.50098732 0.00122302
v -7.48277707 3.74267078 -0.00607179
v -7.52585763 3.44088872 0.10373492
v -7.79524927 3.26874211 0.00834441
v -7.68127128 3.21188174 0.11246187
v -7.54344561 3.14374863 0.09396736
v -7.39682867 3.36872215 0.08665645
v -7.46155954 3.10380218 -0.03239572
v -7.71287319 2.93286216 0.10047191
v -7.62847144 2.89393857 -0.03150354
v -7.64987856 2.90465012 -0.19695292
v -7.48026138 3.11369677 -0.19353257
v -7.76537443 2.95909476 -0.30345551
v -7.58923677 3.16791271 -0.29895345
v -7.91147471 3.02735853 -0.28763218
v -7.72827638 3.23661278 -0.28625367
v -8.00171767 3.06907148 -0.15404042
v -7.81504005 3.27914248 -0.15849956
v -7.97894997 3.05773948 0.01803865
v -8.20864385 2.87167505 -0.14802577
v -8.18287061 2.85970832 0.02827822
v -8.05448357 2.80279254 0.13404596
v -7.85752339 3.00047329 0.12292493
v -7.90226143 2.73576967 0.10850157
v -8.24611382 2.602228 0.14566224
v -8.085213 2.54011288 0.11471111
v -7.99434421 2.50543206 -0.02836569
v -7.81412994 2.69742177 -0.02952428
v -8.0212206 2.51636719 -0.20169098
v -7.83832802 2.70873416 -0.2003679
v -8.15151183 2.5670448 -0.30978305
v -7.96172849 2.76350789 -0.30761248
v -8.31480137 2.63009496 -0.28781276
v -8.11546148 2.83115825 -0.28757854
v -8.41390902 2.66798674 -0.14203973
v -8.47777444 2.41155784 -0.2857012
v -8.57848768 2.4458094 -0.13513111
v -8.54631711 2.43455967 0.04903806
v -8.38467786 2.65612551 0.040236
v -8.4015775 2.38491387 0.15441067
v -8.672623 2.2001869 0.05714998
v -8.52155048 2.15218761 0.16172696
v -8.34273909 2.09679087 0.12443473
v -8.23322094 2.32745629 0.1209421
v -8.24662626 2.06587729 -0.02850795
v -8.13828816 2.29531438 -0.02750033
v -8.28028615 2.07631538 -0.2092246
v -8.16846332 2.30588846 -0.20548141
v -8.42542624 2.1224318 -0.31608836
v -8.30739934 2.35341373 -0.31297812
v -8.60647432 2.17852039 -0.28507005
v -8.50936144 1.87633528 -0.32103025
v -8.69061796 1.92779958 -0.28546799
v -8.79235395 1.95736676 -0.12529127
v -8.70854824 2.21133475 -0.12981554
v -8.75133488 1.94677499 0.06410943
v -8.82010102 1.68450478 -0.12129699
v -8.77282779 1.67501622 0.07038691
v -8.60682589 1.63749787 0.17314374
v -8.59331262 1.90268085 0.16821795
v -8.42298036 1.59473734 0.12865966
v -8.41410138 1.85176175 0.12766556
v -8.32720003 1.57125445 -0.03362863
v -8.3171036 1.82354631 -0.03044073
v -8.37227238 1.58032291 -0.22024908
v -8.355995 1.83354448 -0.21484413
v -8.53341821 1.61668988 -0.32536245
v -8.34785082 1.31785597 -0.21819831
v -8.50673662 1.34846561 -0.31699841
v -8.68552232 1.38446055 -0.27529101
v -8.71954156 1.65986518 -0.2858989
v -8.77672185 1.40424237 -0.11513752
v -8.63165337 1.11028616 -0.26764217
v -8.71552228 1.12667629 -0.10967356
v -8.65902862 1.11899165 0.06758163
v -8.72465159 1.39570495 0.06677526
v -8.49777729 1.09217067 0.15796587
v -8.56257956 1.36440516 0.16161149
v -8.32837123 1.06224584 0.11083561
v -8.38767205 1.32915397 0.11662498
v -8.24768114 1.0463421 -0.0438539
v -8.29964601 1.31006049 -0.0395521
v -8.30086533 1.0534599 -0.21781211
v -8.45896091 1.07979631 -0.31143075
v -8.32643486 0.53825431 -0.3660686
v -8.53370967 0.55698125 -0.30278426
v -8.62516838 0.56670234 -0.10381803
v -8.54608041 0.56152624 0.11187262
v -8.34522792 0.54470882 0.21665343
v -8.14147359 0.52628582 0.15156323
v -8.05165435 0.51683653 -0.04391111
v -8.06607054 0.25873757 0.15785861
v -7.97811607 0.25198808 -0.04721881
v -8.06099813 0.25564081 -0.26834484
v -8.12723079 0.52171226 -0.25780847
v -8.26877895 0.26770948 -0.37761694
v -8.48121729 0.28121737 -0.30847887
v -8.57130114 0.28809204 -0.09984522
v -8.48478248 0.28422115 0.12358725
v -8.27487581 0.27202556 0.22931564
v -8.21391756 -0.28554544 0.22820712
v -8.0098164 -0.28439937 0.1490047
v -7.93146499 -0.28413475 -0.05943763
v -8.02280045 -0.28491966 -0.27807306
v -8.23344197 -0.28629101 -0.38093001
v -8.44197367 -0.28742636 -0.30468664
v -8.5230838 -0.28766594 -0.09189422
v -8.42731072 -0.28688998 0.12967698
v -8.47090804 -0.85430358 0.1347047
v -8.25450577 -0.83975684 0.22629582
v -8.05084618 -0.82531204 0.14081231
v -7.97663389 -0.81928668 -0.07081076
v -8.12554549 -1.08986647 0.12964404
v -8.05488587 -1.08200662 -0.07572123
v -8.15184614 -1.09033133 -0.28344302
v -8.07456507 -0.82518511 -0.28713436
v -8.36184931 -1.11019718 -0.37175861
v -8.28978195 -0.83970681 -0.38234071
v -8.56183826 -1.12996829 -0.28671317
v -8.49712295 -0.85436619 -0.2981356
v -8.63237101 -1.13789427 -0.07810814
v -8.57250271 -0.86043444 -0.0828937
v -8.53217091 -1.12924596 0.12956358
v -8.32228034 -1.10934968 0.21463763
v -8.45642636 -1.65102223 0.1597924
v -8.29778727 -1.62182154 0.0839638
v -8.24444925 -1.6107971 -0.0843731
v -8.32650349 -1.62423887 -0.24944523
v -8.49876669 -1.65483242 -0.31577089
v -8.66151095 -1.68481447 -0.24152283
v -8.71645626 -1.69606783 -0.06903431
v -8.72145535 -1.96114157 -0.24477332
v -8.77721783 -1.97367142 -0.06475755
v -8.687522 -1.95624074 0.10554788
v -8.63026658 -1.68184288 0.0976416
v -8.50883285 -1.91992226 0.16595901
v -8.70947263 -2.23051349 0.11481123
v -8.52586485 -2.18559492 0.17285691
v -8.36257526 -2.14511414 0.08478984
v -8.34634254 -1.88616049 0.08513491
v -8.31017421 -2.13150239 -0.09421575
v -8.29113608 -1.8738522 -0.08903607
v -8.39583104 -2.15188495 -0.26430127
v -8.37502646 -1.89003313 -0.25878367
v -8.57416979 -2.19551274 -0.32954521
v -8.55320067 -1.92613539 -0.32508073
v -8.74459146 -2.23779222 -0.24705296
v -8.52148259 -2.45494542 -0.32803442
v -8.68261051 -2.50324865 -0.24299074
v -8.73426963 -2.51914164 -0.05991758
v -8.80232953 -2.25270902 -0.06073824
v -8.64358323 -2.49258357 0.11031812
v -8.59250332 -2.76847959 -0.06258877
v -8.50124124 -2.73895888 0.10281948
v -8.33136137 -2.68333238 0.15327709
v -8.46734892 -2.44017867 0.16547449
v -8.18484269 -2.63498801 0.06388159
v -8.31103423 -2.39330966 0.07705875
v -8.14337485 -2.62087581 -0.11062552
v -8.26282217 -2.37840522 -0.1010314
v -8.2288673 -2.64850491 -0.27217897
v -8.34864189 -2.40352417 -0.26784498
v -8.39512491 -2.7029585 -0.32881393
v -8.06297096 -2.88736385 -0.27998692
v -8.22311012 -2.94439387 -0.33258474
v -8.36553258 -2.99576866 -0.24601058
v -8.54742565 -2.75320343 -0.24319814
v -8.40295247 -3.00996313 -0.06830304
v -8.1525989 -3.23631907 -0.25096319
v -8.18311732 -3.25080682 -0.07512048
v -8.0905822 -3.21381599 0.08109414
v -8.31131845 -2.97787685 0.09231887
v -7.9354117 -3.14954454 0.12262456
v -8.14816836 -2.91976322 0.13958501
v -7.81133365 -3.09678413 0.03170929
v -8.01110083 -2.87036936 0.04951366
v -7.78518492 -3.08406288 -0.13523302
v -7.97655418 -2.85720648 -0.12268521
v -7.86949907 -3.11770316 -0.28656657
v -7.57784211 -3.30441297 -0.14752515
v -7.66198831 -3.3421564 -0.29419931
v -7.80459843 -3.40971042 -0.33907852
v -8.02032307 -3.18021855 -0.33701165
v -7.92409227 -3.46835157 -0.2522827
v -7.61468993 -3.64364881 -0.33862619
v -7.72578392 -3.70227738 -0.25212535
v -7.74335591 -3.71486627 -0.08626296
v -7.94680093 -3.4821204 -0.08219717
v -7.65542829 -3.67321791 0.05748432
v -7.85758775 -3.44213303 0.06739133
v -7.51730764 -3.60360432 0.09280877
v -7.71243519 -3.37346877 0.10686202
v -7.41153638 -3.5476076 0.00342398
v -7.59802804 -3.31708221 0.01704277
v -7.39631021 -3.53617179 -0.15650063
v -7.26958241 -3.78757678 -0.0052851
v -7.25786952 -3.77668107 -0.16163026
v -7.33926047 -3.81819537 -0.29700638
v -7.47900812 -3.57522774 -0.29733358
v -7.46863802 -3.88876169 -0.3336539
v -7.23387169 -4.0632294 -0.29020324
v -7.35535369 -4.13838078 -0.32357346
v -7.45061194 -4.20084779 -0.23831168
v -7.57147882 -3.94800177 -0.24717633
v -7.46115362 -4.21239996 -0.08255834
v -7.58483661 -3.95967927 -0.08663307
v -7.37905473 -4.1654538 0.04847129
v -7.49980907 -3.91632323 0.05091898
v -7.25587773 -4.08942854 0.07645264
v -7.36870786 -3.84474492 0.08324684
v -7.16497319 -4.02955416 -0.01117638
v -7.17258984 -4.33570559 0.07411937
v -7.08724228 -4.27478342 -0.01251197
v -7.08036575 -4.26485111 -0.15753943
v -7.15644653 -4.01911543 -0.16147113
v -7.15465136 -4.3109072 -0.28004593
v -7.0354491 -4.52167176 -0.15041804
v -7.10737099 -4.5680919 -0.2667454
v -7.21907467 -4.64517945 -0.29294775
v -7.27015991 -4.38820704 -0.30994573
v -7.30624597 -4.7085442 -0.20946676
v -7.36044581 -4.45223167 -0.22544383
v -7.31420588 -4.71861548 -0.06378848
v -7.36916025 -4.46331494 -0.07449649
v -7.2373189 -4.66879619 0.05443765
v -7.28982727 -4.41408903 0.05020559
v -7.1241955 -4.59072223 0.07455384
v -7.19305648 -4.92396117 0.0535866
v -7.09011903 -4.84700492 0.06876804
v -7.01594979 -4.78884078 -0.01161621
v -7.04198396 -4.53074555 -0.01075085
v -7.00991708 -4.78055049 -0.13958667
v -6.96463916 -5.03396432 -0.01330403
v -6.95886776 -5.02658968 -0.12870344
v -7.01625181 -5.07126293 -0.22201278
v -7.07489999 -4.8264932 -0.24514879
v -7.10596213 -5.14403226 -0.23935227
v -7.17674863 -4.90262929 -0.267693
v -7.17611922 -5.20276847 -0.16693688
v -7.25680393 -4.96511079 -0.18883564
v -7.18260773 -5.21069386 -0.04629343
v -7.26387164 -4.97418457 -0.05352567
v -7.12109165 -5.1627519 0.04802429
v -7.0690606 -5.43294324 -0.04166622
v -7.01492885 -5.3879051 0.04127479
v -6.93488953 -5.31982143 0.05016984
v -7.03064493 -5.08941817 0.06013227
v -6.87606445 -5.26878298 -0.01679053
v -6.79826736 -5.53869638 0.03699088
v -6.7472483 -5.49299324 -0.02301615
v -6.74208989 -5.48799554 -0.11378303
v -6.8703751 -5.2625269 -0.12001045
v -6.78569254 -5.52648688 -0.18520969
v -6.92085236 -5.30445405 -0.2022506
v -6.85473235 -5.58795639 -0.1957979
v -7.00039634 -5.37211144 -0.21589441
v -6.90910559 -5.63675091 -0.1362593
v -7.06288509 -5.42626685 -0.14965817
v -6.91455536 -5.64205212 -0.04090813
v -6.72049158 -5.83151378 -0.12355058
v -6.72458067 -5.83527783 -0.04426947
v -6.68654396 -5.79878915 0.01431615
v -6.86760386 -5.60046855 0.03094583
v -6.63086375 -5.74580175 0.01784734
v -6.49029167 -5.98452087 -0.00114063
v -6.4463173 -5.93958247 0.00054718
v -6.41430051 -5.9073924 -0.04140697
v -6.59008776 -5.70721066 -0.03261564
v -6.41135385 -5.90540082 -0.10300887
v -6.5860899 -5.70368107 -0.10769686
v -6.43970891 -5.93464445 -0.15050923
v -6.62135004 -5.73726593 -0.16611621
v -6.48377641 -5.97931429 -0.15591419
v -6.67692837 -5.79003678 -0.17376326
v -6.51767245 -6.0140484 -0.11400116
v -6.29850422 -6.15143489 -0.14138176
v -6.32366239 -6.17977396 -0.10670991
v -6.32538584 -6.18063334 -0.05292134
v -6.52046331 -6.01639635 -0.04853909
v -6.30263615 -6.15302748 -0.01461638
v -6.2679338 -6.11578854 -0.01424449
v -6.24300625 -6.0892228 -0.048641
v -6.24076785 -6.08948795 -0.09865522
v -6.26363562 -6.11489592 -0.13727485
v -8.22947986 0.00339379 0.22920302
v -8.02339585 -0.00290514 0.1538536
v -7.94068009 -0.00608588 -0.05298851
v -8.02791575 -0.00433371 -0.273006
v -8.2369195 0.00140917 -0.37930477
v -8.44709254 0.00782969 -0.30678388
v -8.53242593 0.01107839 -0.09594034
v -8.44109042 0.00920641 0.12688243
v -8.4334792 -0.58462769 0.1324054
v -8.21846613 -0.57635131 0.22730957
v -8.01510157 -0.56832879 0.14465104
v -7.93960554 -0.5651963 -0.06552559
v -8.03469386 -0.56877936 -0.28294877
v -8.24753813 -0.57704682 -0.38189729
v -8.45503818 -0.58516587 -0.30155772
v -8.53269939 -0.5883091 -0.08732065
v -8.19494567 0.80395197 -0.25563254
v -8.12487251 0.80095 -0.04288483
v -8.19902218 1.06022549 -0.0404121
v -8.26200616 1.06440037 -0.24849148
v -8.45183416 1.08295557 -0.36268938
v -8.39171275 0.81692174 -0.3704312
v -8.66440486 1.10397467 -0.30777263
v -8.60844043 0.83062641 -0.31103383
v -8.56761084 0.55659866 -0.34275916
v -8.32031476 0.54850106 -0.41641717
v -8.70737288 0.83848083 -0.10808228
v -8.67606414 0.56098625 -0.10632831
v -8.76539347 1.11613994 -0.11330309
v -8.63197521 0.83514625 0.11143815
v -8.58462856 0.55909283 0.14532689
v -8.69788784 1.11112114 0.09960373
v -8.42860341 0.82329398 0.22120732
v -8.34953324 0.55235585 0.26784947
v -8.50330912 1.092893 0.20962858
v -8.21750956 0.80987193 0.15431846
v -8.10916538 0.54394536 0.18754743
v -8.29535673 1.07271069 0.14938374
v -8.0057953 0.53748727 -0.04176379
v -8.09082646 0.5395899 -0.28769399
v -8.60898287 -1.40196135 0.14162507
v -8.71401751 -1.40900946 -0.06918629
v -8.68784203 -1.13258048 -0.07431948
v -8.56990188 -1.12830548 0.17064702
v -8.32050318 -1.11935324 0.27034822
v -8.39045118 -1.38735925 0.22487186
v -8.08624465 -1.10962682 0.16430696
v -8.18751391 -1.37306994 0.12859273
v -8.25599045 -1.6338973 0.11977279
v -8.45380346 -1.65347887 0.21643989
v -8.12054278 -1.36607192 -0.08375626
v -8.19123283 -1.62522219 -0.08840492
v -8.00470179 -1.10402875 -0.07887338
v -8.21982745 -1.37289122 -0.29078791
v -8.28911749 -1.63453021 -0.28914479
v -8.11557412 -1.10880793 -0.32056259
v -8.43462237 -1.38893979 -0.37989735
v -8.49994322 -1.65618767 -0.37248451
v -8.36171887 -1.12016679 -0.4274871
v -8.64377634 -1.40330776 -0.28781456
v -8.70359018 -1.67672933 -0.27869781
v -8.60381753 -1.12915122 -0.32535786
v -8.77074371 -1.68480019 -0.06470212
v -8.66724846 -1.67448369 0.13864098
v -6.06130565 5.86443983 -0.07679042
v -6.06130565 5.86443983 -0.11445672
v -6.06865449 5.86443983 -0.11373297
v -6.07572029 5.86443983 -0.11158954
v -6.08223192 5.86443983 -0.1081088
v -6.08793981 5.86443983 -0.10342451
v -6.09262419 5.86443983 -0.09771669
v -6.09610498 5.86443983 -0.09120469
v -6.09824746 5.86443983 -0.08413875
v -6.09897171 5.86443983 -0.07679042
v -6.09824746 5.86443983 -0.0694421
v -6.09610498 5.86443983 -0.06237616
v -6.09262419 5.86443983 -0.05586415
v -6.08793981 5.86443983 -0.05015634
v -6.08223192 5.86443983 -0.04547204
v -6.07572029 5.86443983 -0.0419913
v -6.06865449 5.86443983 -0.03984788
v -6.06130565 5.86443983 -0.03912412
v -6.0539568 5.86443983 -0.03984788
v -6.046891 5.86443983 -0.0419913
v -6.04037937 5.86443983 -0.04547206
v -6.03467149 5.86443983 -0.05015634
v -6.0299871 5.86443983 -0.05586416
v -6.02650631 5.86443983 -0.06237617
v -6.02436383 5.86443983 -0.06944209
v -6.02363958 5.86443983 -0.07679042
v -6.02436383 5.86443983 -0.08413876
v -6.02650631 5.86443983 -0.09120469
v -6.0299871 5.86443983 -0.09771671
v -6.03467149 5.86443983 -0.10342452
v -6.04037937 5.86443983 -0.1081088
v -6.046891 5.86443983 -0.11158954
v -6.0539568 5.86443983 -0.11373297
v -6.06130565 4.9915446 -0.11445672
v -6.06865449 4.9915446 -0.11373297
v -6.07572029 4.9915446 -0.11158954
v -6.08223192 4.9915446 -0.1081088
v -6.08793981 4.9915446 -0.10342451
v -6.09262419 4.9915446 -0.09771669
v -6.09610498 4.9915446 -0.09120469
v -6.09824746 4.9915446 -0.08413875
v -6.09897171 4.9915446 -0.07679042
v -6.09824746 4.9915446 -0.0694421
v -6.09610498 4.9915446 -0.06237616
v -6.09262419 4.9915446 -0.05586415
v -6.08793981 4.9915446 -0.05015634
v -6.08223192 4.9915446 -0.04547204
v -6.07572029 4.9915446 -0.0419913
v -6.06865449 4.9915446 -0.03984788
v -6.06130565 4.9915446 -0.03912412
v -6.0539568 4.9915446 -0.03984788
v -6.046891 4.9915446 -0.0419913
v -6.04037937 4.9915446 -0.04547206
v -6.03467149 4.9915446 -0.05015634
v -6.0299871 4.9915446 -0.05586416
v -6.02650631 4.9915446 -0.06237617
v -6.02436383 4.9915446 -0.06944209
v -6.02363958 4.9915446 -0.07679042
v -6.02436383 4.9915446 -0.08413876
v -6.02650631 4.9915446 -0.09120469
v -6.0299871 4.9915446 -0.09771671
v -6.03467149 4.9915446 -0.10342452
v -6.04037937 4.9915446 -0.1081088
v -6.046891 4.9915446 -0.11158954
v -6.0539568 4.9915446 -0.11373297
v -6.06130565 4.11868602 -0.11445672
v -6.06865449 4.11868602 -0.11373297
v -6.07572029 4.11868602 -0.11158954
v -6.08223192 4.11868602 -0.1081088
v -6.08793981 4.11868602 -0.10342451
v -6.09262419 4.11868602 -0.09771669
v -6.09610498 4.11868602 -0.09120469
v -6.09824746 4.11868602 -0.08413875
v -6.09897171 4.11868602 -0.07679042
v -6.09824746 4.11868602 -0.0694421
v -6.09610498 4.11868602 -0.06237616
v -6.09262419 4.11868602 -0.05586415
v -6.08793981 4.11868602 -0.05015634
v -6.08223192 4.11868602 -0.04547204
v -6.07572029 4.11868602 -0.0419913
v -6.06865449 4.11868602 -0.03984788
v -6.06130565 4.11868602 -0.03912412
v -6.0539568 4.11868602 -0.03984788
v -6.046891 4.11868602 -0.0419913
v -6.04037937 4.11868602 -0.04547206
v -6.03467149 4.11868602 -0.05015634
v -6.0299871 4.11868602 -0.05586416
v -6.02650631 4.11868602 -0.06237617
v -6.02436383 4.11868602 -0.06944209
v -6.02363958 4.11868602 -0.07679042
v -6.02436383 4.11868602 -0.08413876
v -6.02650631 4.11868602 -0.09120469
v -6.0299871 4.11868602 -0.09771671
v -6.03467149 4.11868602 -0.10342452
v -6.04037937 4.11868602 -0.1081088
v -6.046891 4.11868602 -0.11158954
v -6.0539568 4.11868602 -0.11373297
v -6.06130565 3.24577779 -0.11445672
v -6.06865449 3.24577779 -0.11373297
v -6.07572029 3.24577779 -0.11158954
v -6.08223192 3.24577779 -0.1081088
v -6.08793981 3.24577779 -0.10342451
v -6.09262419 3.24577779 -0.09771669
v -6.09610498 3.24577779 -0.09120469
v -6.09824746 3.24577779 -0.08413875
v -6.09897171 3.24577779 -0.07679042
v -6.09824746 3.24577779 -0.0694421
v -6.09610498 3.24577779 -0.06237616
v -6.09262419 3.24577779 -0.05586415
v -6.08793981 3.24577779 -0.05015634
v -6.08223192 3.24577779 -0.04547204
v -6.07572029 3.24577779 -0.0419913
v -6.06865449 3.24577779 -0.03984788
v -6.06130565 3.24577779 -0.03912412
v -6.0539568 3.24577779 -0.03984788
v -6.046891 3.24577779 -0.0419913
v -6.04037937 3.24577779 -0.04547206
v -6.03467149 3.24577779 -0.05015634
v -6.0299871 3.24577779 -0.05586416
v -6.02650631 3.24577779 -0.06237617
v -6.02436383 3.24577779 -0.06944209
v -6.02363958 3.24577779 -0.07679042
v -6.02436383 3.24577779 -0.08413876
v -6.02650631 3.24577779 -0.09120469
v -6.0299871 3.24577779 -0.09771671
v -6.03467149 3.24577779 -0.10342452
v -6.04037937 3.24577779 -0.1081088
v -6.046891 3.24577779 -0.11158954
v -6.0539568 3.24577779 -0.11373297
v -6.06130565 2.37291666 -0.11445672
v -6.06865449 2.37291666 -0.11373297
v -6.07572029 2.37291666 -0.11158954
v -6.08223192 2.37291666 -0.1081088
v -6.08793981 2.37291666 -0.10342451
v -6.09262419 2.37291666 -0.09771669
v -6.09610498 2.37291666 -0.09120469
v -6.09824746 2.37291666 -0.08413875
v -6.09897171 2.37291666 -0.07679042
v -6.09824746 2.37291666 -0.0694421
v -6.09610498 2.37291666 -0.06237616
v -6.09262419 2.37291666 -0.05586415
v -6.08793981 2.37291666 -0.05015634
v -6.08223192 2.37291666 -0.04547204
v -6.07572029 2.37291666 -0.0419913
v -6.06865449 2.37291666 -0.03984788
v -6.06130565 2.37291666 -0.03912412
v -6.0539568 2.37291666 -0.03984788
v -6.046891 2.37291666 -0.0419913
v -6.04037937 2.37291666 -0.04547206
v -6.03467149 2.37291666 -0.05015634
v -6.0299871 2.37291666 -0.05586416
v -6.02650631 2.37291666 -0.06237617
v -6.02436383 2.37291666 -0.06944209
v -6.02363958 2.37291666 -0.07679042
v -6.02436383 2.37291666 -0.08413876
v -6.02650631 2.37291666 -0.09120469
v -6.0299871 2.37291666 -0.09771671
v -6.03467149 2.37291666 -0.10342452
v -6.04037937 2.37291666 -0.1081088
v -6.046891 2.37291666 -0.11158954
v -6.0539568 2.37291666 -0.11373297
v -6.06130565 1.49997283 -0.11445672
v -6.06865449 1.49997283 -0.11373297
v -6.07572029 1.49997283 -0.11158954
v -6.08223192 1.49997283 -0.1081088
v -6.08793981 1.49997283 -0.10342451
v -6.09262419 1.49997283 -0.09771669
v -6.09610498 1.49997283 -0.09120469
v -6.09824746 1.49997283 -0.08413875
v -6.09897171 1.49997283 -0.07679042
v -6.09824746 1.49997283 -0.0694421
v -6.09610498 1.49997283 -0.06237616
v -6.09262419 1.49997283 -0.05586415
v -6.08793981 1.49997283 -0.05015634
v -6.08223192 1.49997283 -0.04547204
v -6.07572029 1.49997283 -0.0419913
v -6.06865449 1.49997283 -0.03984788
v -6.06130565 1.49997283 -0.03912412
v -6.0539568 1.49997283 -0.03984788
v -6.046891 1.49997283 -0.0419913
v -6.04037937 1.49997283 -0.04547206
v -6.03467149 1.49997283 -0.05015634
v -6.0299871 1.49997283 -0.05586416
v -6.02650631 1.49997283 -0.06237617
v -6.02436383 1.49997283 -0.06944209
v -6.02363958 1.49997283 -0.07679042
v -6.02436383 1.49997283 -0.08413876
v -6.02650631 1.49997283 -0.09120469
v -6.0299871 1.49997283 -0.09771671
v -6.03467149 1.49997283 -0.10342452
v -6.04037937 1.49997283 -0.1081088
v -6.046891 1.49997283 -0.11158954
v -6.0539568 1.49997283 -0.11373297
v -6.06130565 0.62709065 -0.11445672
v -6.06865449 0.62709065 -0.11373297
v -6.07572029 0.62709065 -0.11158954
v -6.08223192 0.62709065 -0.1081088
v -6.08793981 0.62709065 -0.10342451
v -6.09262419 0.62709065 -0.09771669
v -6.09610498 0.62709065 -0.09120469
v -6.09824746 0.62709065 -0.08413875
v -6.09897171 0.62709065 -0.07679042
v -6.09824746 0.62709065 -0.0694421
v -6.09610498 0.62709065 -0.06237616
v -6.09262419 0.62709065 -0.05586415
v -6.08793981 0.62709065 -0.05015634
v -6.08223192 0.62709065 -0.04547204
v -6.07572029 0.62709065 -0.0419913
v -6.06865449 0.62709065 -0.03984788
v -6.06130565 0.62709065 -0.03912412
v -6.0539568 0.62709065 -0.03984788
v -6.046891 0.62709065 -0.0419913
v -6.04037937 0.62709065 -0.04547206
v -6.03467149 0.62709065 -0.05015634
v -6.0299871 0.62709065 -0.05586416
v -6.02650631 0.62709065 -0.06237617
v -6.02436383 0.62709065 -0.06944209
v -6.02363958 0.62709065 -0.07679042
v -6.02436383 0.62709065 -0.08413876
v -6.02650631 0.62709065 -0.09120469
v -6.0299871 0.62709065 -0.09771671
v -6.03467149 0.62709065 -0.10342452
v -6.04037937 0.62709065 -0.1081088
v -6.046891 0.62709065 -0.11158954
v -6.0539568 0.62709065 -0.11373297
v -6.06130565 -0.24595989 -0.11445672
v -6.06865449 -0.24595989 -0.11373297
v -6.07572029 -0.24595989 -0.11158954
v -6.08223192 -0.24595989 -0.1081088
v -6.08793981 -0.24595989 -0.10342451
v -6.09262419 -0.24595989 -0.09771669
v -6.09610498 -0.24595989 -0.09120469
v -6.09824746 -0.24595989 -0.08413875
v -6.09897171 -0.24595989 -0.07679042
v -6.09824746 -0.24595989 -0.0694421
v -6.09610498 -0.24595989 -0.06237616
v -6.09262419 -0.24595989 -0.05586415
v -6.08793981 -0.24595989 -0.05015634
v -6.08223192 -0.24595989 -0.04547204
v -6.07572029 -0.24595989 -0.0419913
v -6.06865449 -0.24595989 -0.03984788
v -6.06130565 -0.24595989 -0.03912412
v -6.0539568 -0.24595989 -0.03984788
v -6.046891 -0.24595989 -0.0419913
v -6.04037937 -0.24595989 -0.04547206
v -6.03467149 -0.24595989 -0.05015634
v -6.0299871 -0.24595989 -0.05586416
v -6.02650631 -0.24595989 -0.06237617
v -6.02436383 -0.24595989 -0.06944209
v -6.02363958 -0.24595989 -0.07679042
v -6.02436383 -0.24595989 -0.08413876
v -6.02650631 -0.24595989 -0.09120469
v -6.0299871 -0.24595989 -0.09771671
v -6.03467149 -0.24595989 -0.10342452
v -6.04037937 -0.24595989 -0.1081088
v -6.046891 -0.24595989 -0.11158954
v -6.0539568 -0.24595989 -0.11373297
v -6.06130565 -1.11883914 -0.11445672
v -6.06865449 -1.11883914 -0.11373297
v -6.07572029 -1.11883914 -0.11158954
v -6.08223192 -1.11883914 -0.1081088
v -6.08793981 -1.11883914 -0.10342451
v -6.09262419 -1.11883914 -0.09771669
v -6.09610498 -1.11883914 -0.09120469
v -6.09824746 -1.11883914 -0.08413875
v -6.09897171 -1.11883914 -0.07679042
v -6.09824746 -1.11883914 -0.0694421
v -6.09610498 -1.11883914 -0.06237616
v -6.09262419 -1.11883914 -0.05586415
v -6.08793981 -1.11883914 -0.05015634
v -6.08223192 -1.11883914 -0.04547204
v -6.07572029 -1.11883914 -0.0419913
v -6.06865449 -1.11883914 -0.03984788
v -6.06130565 -1.11883914 -0.03912412
v -6.0539568 -1.11883914 -0.03984788
v -6.046891 -1.11883914 -0.0419913
v -6.04037937 -1.11883914 -0.04547206
v -6.03467149 -1.11883914 -0.05015634
v -6.0299871 -1.11883914 -0.05586416
v -6.02650631 -1.11883914 -0.06237617
v -6.02436383 -1.11883914 -0.06944209
v -6.02363958 -1.11883914 -0.07679042
v -6.02436383 -1.11883914 -0.08413876
v -6.02650631 -1.11883914 -0.09120469
v -6.0299871 -1.11883914 -0.09771671
v -6.03467149 -1.11883914 -0.10342452
v -6.04037937 -1.11883914 -0.1081088
v -6.046891 -1.11883914 -0.11158954
v -6.0539568 -1.11883914 -0.11373297
v -6.06130565 -1.99175441 -0.11445672
v -6.06865449 -1.99175441 -0.11373297
v -6.07572029 -1.99175441 -0.11158954
v -6.08223192 -1.99175441 -0.1081088
v -6.08793981 -1.99175441 -0.10342451
v -6.09262419 -1.99175441 -0.09771669
v -6.09610498 -1.99175441 -0.09120469
v -6.09824746 -1.99175441 -0.08413875
v -6.09897171 -1.99175441 -0.07679042
v -6.09824746 -1.99175441 -0.0694421
v -6.09610498 -1.99175441 -0.06237616
v -6.09262419 -1.99175441 -0.05586415
v -6.08793981 -1.99175441 -0.05015634
v -6.08223192 -1.99175441 -0.04547204
v -6.07572029 -1.99175441 -0.0419913
v -6.06865449 -1.99175441 -0.03984788
v -6.06130565 -1.99175441 -0.03912412
v -6.0539568 -1.99175441 -0.03984788
v -6.046891 -1.99175441 -0.0419913
v -6.04037937 -1.99175441 -0.04547206
v -6.03467149 -1.99175441 -0.05015634
v -6.0299871 -1.99175441 -0.05586416
v -6.02650631 -1.99175441 -0.06237617
v -6.02436383 -1.99175441 -0.06944209
v -6.02363958 -1.99175441 -0.07679042
v -6.02436383 -1.99175441 -0.08413876
v -6.02650631 -1.99175441 -0.09120469
v -6.0299871 -1.99175441 -0.09771671
v -6.03467149 -1.99175441 -0.10342452
v -6.04037937 -1.99175441 -0.1081088
v -6.046891 -1.99175441 -0.11158954
v -6.0539568 -1.99175441 -0.11373297
v -6.06130565 -2.86460989 -0.11445672
v -6.06865449 -2.86460989 -0.11373297
v -6.07572029 -2.86460989 -0.11158954
v -6.08223192 -2.86460989 -0.1081088
v -6.08793981 -2.86460989 -0.10342451
v -6.09262419 -2.86460989 -0.09771669
v -6.09610498 -2.86460989 -0.09120469
v -6.09824746 -2.86460989 -0.08413875
v -6.09897171 -2.86460989 -0.07679042
v -6.09824746 -2.86460989 -0.0694421
v -6.09610498 -2.86460989 -0.06237616
v -6.09262419 -2.86460989 -0.05586415
v -6.08793981 -2.86460989 -0.05015634
v -6.08223192 -2.86460989 -0.04547204
v -6.07572029 -2.86460989 -0.0419913
v -6.06865449 -2.86460989 -0.03984788
v -6.06130565 -2.86460989 -0.03912412
v -6.0539568 -2.86460989 -0.03984788
v -6.046891 -2.86460989 -0.0419913
v -6.04037937 -2.86460989 -0.04547206
v -6.03467149 -2.86460989 -0.05015634
v -6.0299871 -2.86460989 -0.05586416
v -6.02650631 -2.86460989 -0.06237617
v -6.02436383 -2.86460989 -0.06944209
v -6.02363958 -2.86460989 -0.07679042
v -6.02436383 -2.86460989 -0.08413876
v -6.02650631 -2.86460989 -0.09120469
v -6.0299871 -2.86460989 -0.09771671
v -6.03467149 -2.86460989 -0.10342452
v -6.04037937 -2.86460989 -0.1081088
v -6.046891 -2.86460989 -0.11158954
v -6.0539568 -2.86460989 -0.11373297
v -6.06130565 -3.73752559 -0.11445672
v -6.06865449 -3.73752559 -0.11373297
v -6.07572029 -3.73752559 -0.11158954
v -6.08223192 -3.73752559 -0.1081088
v -6.08793981 -3.73752559 -0.10342451
v -6.09262419 -3.73752559 -0.09771669
v -6.09610498 -3.73752559 -0.09120469
v -6.09824746 -3.73752559 -0.08413875
v -6.09897171 -3.73752559 -0.07679042
v -6.09824746 -3.73752559 -0.0694421
v -6.09610498 -3.73752559 -0.06237616
v -6.09262419 -3.73752559 -0.05586415
v -6.08793981 -3.73752559 -0.05015634
v -6.08223192 -3.73752559 -0.04547204
v -6.07572029 -3.73752559 -0.0419913
v -6.06865449 -3.73752559 -0.03984788
v -6.06130565 -3.73752559 -0.03912412
v -6.0539568 -3.73752559 -0.03984788
v -6.046891 -3.73752559 -0.0419913
v -6.04037937 -3.73752559 -0.04547206
v -6.03467149 -3.73752559 -0.05015634
v -6.0299871 -3.73752559 -0.05586416
v -6.02650631 -3.73752559 -0.06237617
v -6.02436383 -3.73752559 -0.06944209
v -6.02363958 -3.73752559 -0.07679042
v -6.02436383 -3.73752559 -0.08413876
v -6.02650631 -3.73752559 -0.09120469
v -6.0299871 -3.73752559 -0.09771671
v -6.03467149 -3.73752559 -0.10342452
v -6.04037937 -3.73752559 -0.1081088
v -6.046891 -3.73752559 -0.11158954
v -6.0539568 -3.73752559 -0.11373297
v -6.06130565 -4.61040612 -0.11445672
v -6.06865449 -4.61040612 -0.11373297
v -6.07572029 -4.61040612 -0.11158954
v -6.08223192 -4.61040612 -0.1081088
v -6.08793981 -4.61040612 -0.10342451
v -6.09262419 -4.61040612 -0.09771669
v -6.09610498 -4.61040612 -0.09120469
v -6.09824746 -4.61040612 -0.08413875
v -6.09897171 -4.61040612 -0.07679042
v -6.09824746 -4.61040612 -0.0694421
v -6.09610498 -4.61040612 -0.06237616
v -6.09262419 -4.61040612 -0.05586415
v -6.08793981 -4.61040612 -0.05015634
v -6.08223192 -4.61040612 -0.04547204
v -6.07572029 -4.61040612 -0.0419913
v -6.06865449 -4.61040612 -0.03984788
v -6.06130565 -4.61040612 -0.03912412
v -6.0539568 -4.61040612 -0.03984788
v -6.046891 -4.61040612 -0.0419913
v -6.04037937 -4.61040612 -0.04547206
v -6.03467149 -4.61040612 -0.05015634
v -6.0299871 -4.61040612 -0.05586416
v -6.02650631 -4.61040612 -0.06237617
v -6.02436383 -4.61040612 -0.06944209
v -6.02363958 -4.61040612 -0.07679042
v -6.02436383 -4.61040612 -0.08413876
v -6.02650631 -4.61040612 -0.09120469
v -6.0299871 -4.61040612 -0.09771671
v -6.03467149 -4.61040612 -0.10342452
v -6.04037937 -4.61040612 -0.1081088
v -6.046891 -4.61040612 -0.11158954
v -6.0539568 -4.61040612 -0.11373297
v -6.06130565 -5.4833346 -0.11445672
v -6.06865449 -5.4833346 -0.11373297
v -6.07572029 -5.4833346 -0.11158954
v -6.08223192 -5.4833346 -0.1081088
v -6.08793981 -5.4833346 -0.10342451
v -6.09262419 -5.4833346 -0.09771669
v -6.09610498 -5.4833346 -0.09120469
v -6.09824746 -5.4833346 -0.08413875
v -6.09897171 -5.4833346 -0.07679042
v -6.09824746 -5.4833346 -0.0694421
v -6.09610498 -5.4833346 -0.06237616
v -6.09262419 -5.4833346 -0.05586415
v -6.08793981 -5.4833346 -0.05015634
v -6.08223192 -5.4833346 -0.04547204
v -6.07572029 -5.4833346 -0.0419913
v -6.06865449 -5.4833346 -0.03984788
v -6.06130565 -5.4833346 -0.03912412
v -6.0539568 -5.4833346 -0.03984788
v -6.046891 -5.4833346 -0.0419913
v -6.04037937 -5.4833346 -0.04547206
v -6.03467149 -5.4833346 -0.05015634
v -6.0299871 -5.4833346 -0.05586416
v -6.02650631 -5.4833346 -0.06237617
v -6.02436383 -5.4833346 -0.06944209
v -6.02363958 -5.4833346 -0.07679042
v -6.02436383 -5.4833346 -0.08413876
v -6.02650631 -5.4833346 -0.09120469
v -6.0299871 -5.4833346 -0.09771671
v -6.03467149 -5.4833346 -0.10342452
v -6.04037937 -5.4833346 -0.1081088
v -6.046891 -5.4833346 -0.11158954
v -6.0539568 -5.4833346 -0.11373297
v -6.06130565 -6.35637903 -0.11445672
v -6.06865449 -6.35637903 -0.11373297
v -6.07572029 -6.35637903 -0.11158954
v -6.08223192 -6.35637903 -0.1081088
v -6.08793981 -6.35637903 -0.10342451
v -6.09262419 -6.35637903 -0.09771669
v -6.09610498 -6.35637903 -0.09120469
v -6.09824746 -6.35637903 -0.08413875
v -6.09897171 -6.35637903 -0.07679042
v -6.09824746 -6.35637903 -0.0694421
v -6.09610498 -6.35637903 -0.06237616
v -6.09262419 -6.35637903 -0.05586415
v -6.08793981 -6.35637903 -0.05015634
v -6.08223192 -6.35637903 -0.04547204
v -6.07572029 -6.35637903 -0.0419913
v -6.06865449 -6.35637903 -0.03984788
v -6.06130565 -6.35637903 -0.03912412
v -6.0539568 -6.35637903 -0.03984788
v -6.046891 -6.35637903 -0.0419913
v -6.04037937 -6.35637903 -0.04547206
v -6.03467149 -6.35637903 -0.05015634
v -6.0299871 -6.35637903 -0.05586416
v -6.02650631 -6.35637903 -0.06237617
v -6.02436383 -6.35637903 -0.06944209
v -6.02363958 -6.35637903 -0.07679042
v -6.02436383 -6.35637903 -0.08413876
v -6.02650631 -6.35637903 -0.09120469
v -6.0299871 -6.35637903 -0.09771671
v -6.03467149 -6.35637903 -0.10342452
v -6.04037937 -6.35637903 -0.1081088
v -6.046891 -6.35637903 -0.11158954
v -6.0539568 -6.35637903 -0.11373297
v -6.06130565 -6.35637903 -0.07679042
g Group47528
f 1 8 9 10
f 1 11 12 8
f 1 10 13 11
f 14 15 16 17
f 2 18 19 20
f 2 11 13 18
f 2 20 12 11
f 3 21 8 12
f 3 22 4 21
f 3 12 20 22
f 4 22 23 24
f 4 24 25 21
f 5 26 27 28
f 5 28 17 29
f 5 29 30 26
f 6 29 17 16
f 6 31 30 29
f 7 32 33 34
f 7 34 35 15
f 7 15 14 32
f 35 34 36 37
f 35 37 38 39
f 35 39 16 15
f 39 38 40 31
f 39 31 6 16
f 40 38 41 42
f 40 42 43 44
f 40 44 30 31
f 44 43 45 46
f 44 46 26 30
f 46 45 47 48
f 46 48 27 26
f 48 47 49 50
f 48 50 33 27
f 50 49 51 36
f 50 36 34 33
f 51 49 52 53
f 51 53 54 55
f 51 55 37 36
f 55 54 56 41
f 55 41 38 37
f 56 54 57 58
f 56 58 59 60
f 56 60 42 41
f 60 59 61 62
f 60 62 43 42
f 62 61 63 64
f 62 64 45 43
f 64 63 65 66
f 64 66 47 45
f 66 65 67 52
f 66 52 49 47
f 67 65 68 69
f 67 69 70 71
f 67 71 53 52
f 71 70 72 57
f 71 57 54 53
f 72 70 73 74
f 72 74 75 76
f 72 76 58 57
f 76 75 77 78
f 76 78 59 58
f 78 77 79 80
f 78 80 61 59
f 80 79 81 82
f 80 82 63 61
f 82 81 83 68
f 82 68 65 63
f 83 81 84 85
f 83 85 86 87
f 83 87 69 68
f 87 86 88 73
f 87 73 70 69
f 88 86 89 90
f 88 90 91 92
f 88 92 74 73
f 92 91 93 94
f 92 94 75 74
f 94 93 95 96
f 94 96 77 75
f 96 95 97 98
f 96 98 79 77
f 98 97 99 84
f 98 84 81 79
f 99 97 100 101
f 99 101 102 103
f 99 103 85 84
f 103 102 104 89
f 103 89 86 85
f 104 102 105 106
f 104 106 107 108
f 104 108 90 89
f 108 107 109 110
f 108 110 91 90
f 110 109 111 112
f 110 112 93 91
f 112 111 113 114
f 112 114 95 93
f 114 113 115 100
f 114 100 97 95
f 115 113 116 117
f 115 117 118 119
f 115 119 101 100
f 119 118 120 105
f 119 105 102 101
f 120 118 121 122
f 120 122 123 124
f 120 124 106 105
f 124 123 125 126
f 124 126 107 106
f 126 125 127 128
f 126 128 109 107
f 128 127 129 130
f 128 130 111 109
f 130 129 131 116
f 130 116 113 111
f 131 129 132 133
f 131 133 134 135
f 131 135 117 116
f 135 134 136 121
f 135 121 118 117
f 136 134 137 138
f 136 138 139 140
f 136 140 122 121
f 140 139 141 142
f 140 142 123 122
f 142 141 143 144
f 142 144 125 123
f 144 143 145 146
f 144 146 127 125
f 146 145 147 132
f 146 132 129 127
f 147 145 148 149
f 147 149 150 151
f 147 151 133 132
f 151 150 152 137
f 151 137 134 133
f 152 150 153 154
f 152 154 155 156
f 152 156 138 137
f 156 155 157 158
f 156 158 139 138
f 158 157 159 160
f 158 160 141 139
f 160 159 161 162
f 160 162 143 141
f 162 161 163 148
f 162 148 145 143
f 163 161 164 165
f 163 165 166 167
f 163 167 149 148
f 167 166 168 153
f 167 153 150 149
f 168 166 169 170
f 168 170 171 172
f 168 172 154 153
f 172 171 173 174
f 172 174 155 154
f 174 173 175 176
f 174 176 157 155
f 176 175 177 178
f 176 178 159 157
f 178 177 179 164
f 178 164 161 159
f 179 177 180 181
f 179 181 182 183
f 179 183 165 164
f 183 182 184 169
f 183 169 166 165
f 184 182 185 186
f 184 186 187 188
f 184 188 170 169
f 188 187 189 190
f 188 190 171 170
f 190 189 191 192
f 190 192 173 171
f 192 191 193 194
f 192 194 175 173
f 194 193 195 180
f 194 180 177 175
f 196 185 182 181
f 195 196 181 180
g Group3270
f 203 202 204 205
f 203 205 206 207
f 207 206 208 197
g Group47528
f 23 22 20 19
f 25 9 8 21
g Group3270
f 208 209 198 197
g Group47528
f 32 14 17 28
g Group3270
f 209 210 199 198
g Group47528
f 33 32 28 27
g Group3270
f 210 211 200 199
g Group47528
f 389 388 24 23
g Group3270
f 211 212 201 200
g Group47528
f 390 389 23 19
g Group3270
f 212 204 202 201
f 204 212 397 398
f 204 398 399 205
g Group47528
f 396 388 385 383
g Group3270
f 205 399 400 206
g Group47528
f 396 25 24 388
f 395 396 383 381
f 395 9 25 396
g Group3270
f 216 217 401 400
g Group47528
f 394 395 381 379
g Group3270
f 217 218 402 401
g Group47528
f 394 10 9 395
g Group3270
f 218 219 403 402
g Group47528
f 393 394 379 378
g Group3270
f 219 220 404 403
g Group47528
f 393 13 10 394
g Group3270
f 220 213 397 404
f 213 220 405 406
f 213 406 407 214
g Group47528
f 392 393 378 377
g Group3270
f 214 407 408 215
g Group47528
f 392 18 13 393
g Group3270
f 224 223 225 226
f 224 226 227 228
f 224 228 409 408
f 228 227 229 230
f 228 230 410 409
f 230 229 231 232
f 230 232 411 410
f 232 231 233 234
f 232 234 412 411
f 234 233 235 221
f 234 221 405 412
f 235 236 222 221
f 236 225 223 222
g Group47528
f 243 242 244 245
f 243 245 246 247
f 247 246 248 237
f 248 246 249 250
f 248 250 251 252
f 248 252 238 237
f 252 251 253 254
f 252 254 239 238
f 254 253 255 256
f 254 256 240 239
f 256 255 257 258
f 256 258 241 240
f 258 257 259 244
f 258 244 242 241
f 259 257 260 261
f 259 261 262 263
f 259 263 245 244
f 263 262 264 249
f 263 249 246 245
f 264 262 265 266
f 264 266 267 268
f 264 268 250 249
f 268 267 269 270
f 268 270 251 250
f 270 269 271 272
f 270 272 253 251
f 272 271 273 274
f 272 274 255 253
f 274 273 275 260
f 274 260 257 255
f 275 273 276 277
f 275 277 278 279
f 275 279 261 260
f 279 278 280 265
f 279 265 262 261
f 280 278 281 282
f 280 282 283 284
f 280 284 266 265
f 284 283 285 286
f 284 286 267 266
f 286 285 287 288
f 286 288 269 267
f 288 287 289 290
f 288 290 271 269
f 290 289 291 276
f 290 276 273 271
f 291 289 292 293
f 291 293 294 295
f 291 295 277 276
f 295 294 296 281
f 295 281 278 277
f 296 294 297 298
f 296 298 299 300
f 296 300 282 281
f 300 299 301 302
f 300 302 283 282
f 302 301 303 304
f 302 304 285 283
f 304 303 305 306
f 304 306 287 285
f 306 305 307 292
f 306 292 289 287
f 307 305 308 309
f 307 309 310 311
f 307 311 293 292
f 311 310 312 297
f 311 297 294 293
f 312 310 313 314
f 312 314 315 316
f 312 316 298 297
f 316 315 317 318
f 316 318 299 298
f 318 317 319 320
f 318 320 301 299
f 320 319 321 322
f 320 322 303 301
f 322 321 323 308
f 322 308 305 303
f 323 321 324 325
f 323 325 326 327
f 323 327 309 308
f 327 326 328 313
f 327 313 310 309
f 328 326 329 330
f 328 330 331 332
f 328 332 314 313
f 332 331 333 334
f 332 334 315 314
f 334 333 335 336
f 334 336 317 315
f 336 335 337 338
f 336 338 319 317
f 338 337 339 324
f 338 324 321 319
f 339 337 340 341
f 339 341 342 343
f 339 343 325 324
f 343 342 344 329
f 343 329 326 325
f 344 342 345 346
f 344 346 347 348
f 344 348 330 329
f 348 347 349 350
f 348 350 331 330
f 350 349 351 352
f 350 352 333 331
f 352 351 353 354
f 352 354 335 333
f 354 353 355 340
f 354 340 337 335
f 355 353 356 357
f 355 357 358 359
f 355 359 341 340
f 359 358 360 345
f 359 345 342 341
f 360 358 361 362
f 360 362 363 364
f 360 364 346 345
f 364 363 365 366
f 364 366 347 346
f 366 365 367 368
f 366 368 349 347
f 368 367 369 370
f 368 370 351 349
f 370 369 371 356
f 370 356 353 351
f 371 369 372 373
f 371 373 374 375
f 371 375 357 356
f 375 374 376 361
f 375 361 358 357
f 376 374 377 378
f 376 378 379 380
f 376 380 362 361
f 380 379 381 382
f 380 382 363 362
f 382 381 383 384
f 382 384 365 363
f 384 383 385 386
f 384 386 367 365
f 386 385 387 372
f 386 372 369 367
f 387 385 388 389
f 387 389 390 391
f 387 391 373 372
f 391 390 392 377
f 391 377 374 373
f 392 390 19 18
g Group3270
f 398 397 213 214
f 398 214 215 399
f 399 215 216 400
f 400 401 208 206
f 401 402 209 208
f 402 403 210 209
f 403 404 211 210
f 404 397 212 211
f 406 405 221 222
f 406 222 223 407
f 407 223 224 408
f 408 409 216 215
f 409 410 217 216
f 410 411 218 217
f 411 412 219 218
f 412 405 220 219
g Group3273
f 416 415 414 413
g Group3276
f 195 193 415 416
g Group3273
f 416 413 418 417
g Group3276
f 196 195 416 417
g Group3273
f 417 418 420 419
g Group3276
f 185 196 417 419
g Group3273
f 420 418 422 421
g Group3276
f 197 198 421 422
g Group3273
f 420 421 424 423
g Group3276
f 198 199 424 421
g Group3273
f 420 423 425 419
g Group3276
f 186 185 419 425
g Group3273
f 423 424 427 426
g Group3276
f 199 200 427 424
g Group3273
f 423 426 428 425
g Group3276
f 187 186 425 428
g Group3273
f 426 427 430 429
g Group3276
f 200 201 430 427
g Group3273
f 426 429 431 428
g Group3276
f 189 187 428 431
g Group3273
f 429 430 433 432
g Group3276
f 201 202 433 430
g Group3273
f 429 432 434 431
g Group3276
f 191 189 431 434
g Group3273
f 432 433 435 414
g Group3276
f 202 203 435 433
g Group3273
f 432 414 415 434
g Group3276
f 193 191 434 415
g Group3273
f 435 436 413 414
g Group3276
f 203 207 436 435
g Group3273
f 436 422 418 413
g Group3276
f 207 197 422 436
g Group3273
f 440 439 438 437
g Group3276
f 235 233 439 440
g Group3273
f 440 437 442 441
g Group3276
f 236 235 440 441
g Group3273
f 441 442 444 443
g Group3276
f 225 236 441 443
g Group3273
f 444 442 446 445
g Group3276
f 237 238 445 446
g Group3273
f 444 445 448 447
g Group3276
f 238 239 448 445
g Group3273
f 444 447 449 443
g Group3276
f 226 225 443 449
g Group3273
f 447 448 451 450
g Group3276
f 239 240 451 448
g Group3273
f 447 450 452 449
g Group3276
f 227 226 449 452
g Group3273
f 450 451 454 453
g Group3276
f 240 241 454 451
g Group3273
f 450 453 455 452
g Group3276
f 229 227 452 455
g Group3273
f 453 454 457 456
g Group3276
f 241 242 457 454
g Group3273
f 453 456 458 455
g Group3276
f 231 229 455 458
g Group3273
f 456 457 459 438
g Group3276
f 242 243 459 457
g Group3273
f 456 438 439 458
g Group3276
f 233 231 458 439
g Group3273
f 459 460 437 438
g Group3276
f 243 247 460 459
g Group3273
f 460 446 442 437
g Group3276
f 247 237 446 460
g Group30410
f 461 462 463
f 461 463 464
f 461 464 465
f 461 465 466
f 461 466 467
f 461 467 468
f 461 468 469
f 461 469 470
f 461 470 471
f 461 471 472
f 461 472 473
f 461 473 474
f 461 474 475
f 461 475 476
f 461 476 477
f 461 477 478
f 461 478 479
f 461 479 480
f 461 480 481
f 461 481 482
f 461 482 483
f 461 483 484
f 461 484 485
f 461 485 486
f 461 486 487
f 461 487 488
f 461 488 489
f 461 489 490
f 461 490 491
f 461 491 492
f 461 492 493
f 461 493 462
f 462 494 495 463
f 463 495 496 464
f 464 496 497 465
f 465 497 498 466
f 466 498 499 467
f 467 499 500 468
f 468 500 501 469
f 469 501 502 470
f 470 502 503 471
f 471 503 504 472
f 472 504 505 473
f 473 505 506 474
f 474 506 507 475
f 475 507 508 476
f 476 508 509 477
f 477 509 510 478
f 478 510 511 479
f 479 511 512 480
f 480 512 513 481
f 481 513 514 482
f 482 514 515 483
f 483 515 516 484
f 484 516 517 485
f 485 517 518 486
f 486 518 519 487
f 487 519 520 488
f 488 520 521 489
f 489 521 522 490
f 490 522 523 491
f 491 523 524 492
f 492 524 525 493
f 493 525 494 462
f 494 526 527 495
f 495 527 528 496
f 496 528 529 497
f 497 529 530 498
f 498 530 531 499
f 499 531 532 500
f 500 532 533 501
f 501 533 534 502
f 502 534 535 503
f 503 535 536 504
f 504 536 537 505
f 505 537 538 506
f 506 538 539 507
f 507 539 540 508
f 508 540 541 509
f 509 541 542 510
f 510 542 543 511
f 511 543 544 512
f 512 544 545 513
f 513 545 546 514
f 514 546 547 515
f 515 547 548 516
f 516 548 549 517
f 517 549 550 518
f 518 550 551 519
f 519 551 552 520
f 520 552 553 521
f 521 553 554 522
f 522 554 555 523
f 523 555 556 524
f 524 556 557 525
f 525 557 526 494
f 526 558 559 527
f 527 559 560 528
f 528 560 561 529
f 529 561 562 530
f 530 562 563 531
f 531 563 564 532
f 532 564 565 533
f 533 565 566 534
f 534 566 567 535
f 535 567 568 536
f 536 568 569 537
f 537 569 570 538
f 538 570 571 539
f 539 571 572 540
f 540 572 573 541
f 541 573 574 542
f 542 574 575 543
f 543 575 576 544
f 544 576 577 545
f 545 577 578 546
f 546 578 579 547
f 547 579 580 548
f 548 580 581 549
f 549 581 582 550
f 550 582 583 551
f 551 583 584 552
f 552 584 585 553
f 553 585 586 554
f 554 586 587 555
f 555 587 588 556
f 556 588 589 557
f 557 589 558 526
f 558 590 591 559
f 559 591 592 560
f 560 592 593 561
f 561 593 594 562
f 562 594 595 563
f 563 595 596 564
f 564 596 597 565
f 565 597 598 566
f 566 598 599 567
f 567 599 600 568
f 568 600 601 569
f 569 601 602 570
f 570 602 603 571
f 571 603 604 572
f 572 604 605 573
f 573 605 606 574
f 574 606 607 575
f 575 607 608 576
f 576 608 609 577
f 577 609 610 578
f 578 610 611 579
f 579 611 612 580
f 580 612 613 581
f 581 613 614 582
f 582 614 615 583
f 583 615 616 584
f 584 616 617 585
f 585 617 618 586
f 586 618 619 587
f 587 619 620 588
f 588 620 621 589
f 589 621 590 558
f 590 622 623 591
f 591 623 624 592
f 592 624 625 593
f 593 625 626 594
f 594 626 627 595
f 595 627 628 596
f 596 628 629 597
f 597 629 630 598
f 598 630 631 599
f 599 631 632 600
f 600 632 633 601
f 601 633 634 602
f 602 634 635 603
f 603 635 636 604
f 604 636 637 605
f 605 637 638 606
f 606 638 639 607
f 607 639 640 608
f 608 640 641 609
f 609 641 642 610
f 610 642 643 611
f 611 643 644 612
f 612 644 645 613
f 613 645 646 614
f 614 646 647 615
f 615 647 648 616
f 616 648 649 617
f 617 649 650 618
f 618 650 651 619
f 619 651 652 620
f 620 652 653 621
f 621 653 622 590
f 622 654 655 623
f 623 655 656 624
f 624 656 657 625
f 625 657 658 626
f 626 658 659 627
f 627 659 660 628
f 628 660 661 629
f 629 661 662 630
f 630 662 663 631
f 631 663 664 632
f 632 664 665 633
f 633 665 666 634
f 634 666 667 635
f 635 667 668 636
f 636 668 669 637
f 637 669 670 638
f 638 670 671 639
f 639 671 672 640
f 640 672 673 641
f 641 673 674 642
f 642 674 675 643
f 643 675 676 644
f 644 676 677 645
f 645 677 678 646
f 646 678 679 647
f 647 679 680 648
f 648 680 681 649
f 649 681 682 650
f 650 682 683 651
f 651 683 684 652
f 652 684 685 653
f 653 685 654 622
f 654 686 687 655
f 655 687 688 656
f 656 688 689 657
f 657 689 690 658
f 658 690 691 659
f 659 691 692 660
f 660 692 693 661
f 661 693 694 662
f 662 694 695 663
f 663 695 696 664
f 664 696 697 665
f 665 697 698 666
f 666 698 699 667
f 667 699 700 668
f 668 700 701 669
f 669 701 702 670
f 670 702 703 671
f 671 703 704 672
f 672 704 705 673
f 673 705 706 674
f 674 706 707 675
f 675 707 708 676
f 676 708 709 677
f 677 709 710 678
f 678 710 711 679
f 679 711 712 680
f 680 712 713 681
f 681 713 714 682
f 682 714 715 683
f 683 715 716 684
f 684 716 717 685
f 685 717 686 654
f 686 718 719 687
f 687 719 720 688
f 688 720 721 689
f 689 721 722 690
f 690 722 723 691
f 691 723 724 692
f 692 724 725 693
f 693 725 726 694
f 694 726 727 695
f 695 727 728 696
f 696 728 729 697
f 697 729 730 698
f 698 730 731 699
f 699 731 732 700
f 700 732 733 701
f 701 733 734 702
f 702 734 735 703
f 703 735 736 704
f 704 736 737 705
f 705 737 738 706
f 706 738 739 707
f 707 739 740 708
f 708 740 741 709
f 709 741 742 710
f 710 742 743 711
f 711 743 744 712
f 712 744 745 713
f 713 745 746 714
f 714 746 747 715
f 715 747 748 716
f 716 748 749 717
f 717 749 718 686
f 718 750 751 719
f 719 751 752 720
f 720 752 753 721
f 721 753 754 722
f 722 754 755 723
f 723 755 756 724
f 724 756 757 725
f 725 757 758 726
f 726 758 759 727
f 727 759 760 728
f 728 760 761 729
f 729 761 762 730
f 730 762 763 731
f 731 763 764 732
f 732 764 765 733
f 733 765 766 734
f 734 766 767 735
f 735 767 768 736
f 736 768 769 737
f 737 769 770 738
f 738 770 771 739
f 739 771 772 740
f 740 772 773 741
f 741 773 774 742
f 742 774 775 743
f 743 775 776 744
f 744 776 777 745
f 745 777 778 746
f 746 778 779 747
f 747 779 780 748
f 748 780 781 749
f 749 781 750 718
f 750 782 783 751
f 751 783 784 752
f 752 784 785 753
f 753 785 786 754
f 754 786 787 755
f 755 787 788 756
f 756 788 789 757
f 757 789 790 758
f 758 790 791 759
f 759 791 792 760
f 760 792 793 761
f 761 793 794 762
f 762 794 795 763
f 763 795 796 764
f 764 796 797 765
f 765 797 798 766
f 766 798 799 767
f 767 799 800 768
f 768 800 801 769
f 769 801 802 770
f 770 802 803 771
f 771 803 804 772
f 772 804 805 773
f 773 805 806 774
f 774 806 807 775
f 775 807 808 776
f 776 808 809 777
f 777 809 810 778
f 778 810 811 779
f 779 811 812 780
f 780 812 813 781
f 781 813 782 750
f 782 814 815 783
f 783 815 816 784
f 784 816 817 785
f 785 817 818 786
f 786 818 819 787
f 787 819 820 788
f 788 820 821 789
f 789 821 822 790
f 790 822 823 791
f 791 823 824 792
f 792 824 825 793
f 793 825 826 794
f 794 826 827 795
f 795 827 828 796
f 796 828 829 797
f 797 829 830 798
f 798 830 831 799
f 799 831 832 800
f 800 832 833 801
f 801 833 834 802
f 802 834 835 803
f 803 835 836 804
f 804 836 837 805
f 805 837 838 806
f 806 838 839 807
f 807 839 840 808
f 808 840 841 809
f 809 841 842 810
f 810 842 843 811
f 811 843 844 812
f 812 844 845 813
f 813 845 814 782
f 814 846 847 815
f 815 847 848 816
f 816 848 849 817
f 817 849 850 818
f 818 850 851 819
f 819 851 852 820
f 820 852 853 821
f 821 853 854 822
f 822 854 855 823
f 823 855 856 824
f 824 856 857 825
f 825 857 858 826
f 826 858 859 827
f 827 859 860 828
f 828 860 861 829
f 829 861 862 830
f 830 862 863 831
f 831 863 864 832
f 832 864 865 833
f 833 865 866 834
f 834 866 867 835
f 835 867 868 836
f 836 868 869 837
f 837 869 870 838
f 838 870 871 839
f 839 871 872 840
f 840 872 873 841
f 841 873 874 842
f 842 874 875 843
f 843 875 876 844
f 844 876 877 845
f 845 877 846 814
f 846 878 879 847
f 847 879 880 848
f 848 880 881 849
f 849 881 882 850
f 850 882 883 851
f 851 883 884 852
f 852 884 885 853
f 853 885 886 854
f 854 886 887 855
f 855 887 888 856
f 856 888 889 857
f 857 889 890 858
f 858 890 891 859
f 859 891 892 860
f 860 892 893 861
f 861 893 894 862
f 862 894 895 863
f 863 895 896 864
f 864 896 897 865
f 865 897 898 866
f 866 898 899 867
f 867 899 900 868
f 868 900 901 869
f 869 901 902 870
f 870 902 903 871
f 871 903 904 872
f 872 904 905 873
f 873 905 906 874
f 874 906 907 875
f 875 907 908 876
f 876 908 909 877
f 877 909 878 846
f 878 910 911 879
f 879 911 912 880
f 880 912 913 881
f 881 913 914 882
f 882 914 915 883
f 883 915 916 884
f 884 916 917 885
f 885 917 918 886
f 886 918 919 887
f 887 919 920 888
f 888 920 921 889
f 889 921 922 890
f 890 922 923 891
f 891 923 924 892
f 892 924 925 893
f 893 925 926 894
f 894 926 927 895
f 895 927 928 896
f 896 928 929 897
f 897 929 930 898
f 898 930 931 899
f 899 931 932 900
f 900 932 933 901
f 901 933 934 902
f 902 934 935 903
f 903 935 936 904
f 904 936 937 905
f 905 937 938 906
f 906 938 939 907
f 907 939 940 908
f 908 940 941 909
f 909 941 910 878
f 910 942 911
f 911 942 912
f 912 942 913
f 913 942 914
f 914 942 915
f 915 942 916
f 916 942 917
f 917 942 918
f 918 942 919
f 919 942 920
f 920 942 921
f 921 942 922
f 922 942 923
f 923 942 924
f 924 942 925
f 925 942 926
f 926 942 927
f 927 942 928
f 928 942 929
f 929 942 930
f 930 942 931
f 931 942 932
f 932 942 933
f 933 942 934
f 934 942 935
f 935 942 936
f 936 942 937
f 937 942 938
f 938 942 939
f 939 942 940
f 940 942 941
f 941 942 910

 