# File exported by ZBrush version 2021
# www.zbrush.com
#Vertex Count 1452
#Face Count 1452
#Auto scale x=1.107008 y=1.107008 z=1.107008
#Auto offset x=-0.041076 y=-1.005336 z=-0.067486
v -0.41435725 1.80452578 0.31736221
v -0.43838665 1.77828818 0.34608305
v -0.46018769 1.77611313 0.38472238
v -0.46813918 1.80684469 0.41613694
v -0.45597523 1.84605346 0.41809284
v -0.43266023 1.87111115 0.39216214
v -0.41106438 1.87061148 0.35260269
v -0.40266869 1.84217935 0.31899761
v -0.52925291 1.89387168 0.27934004
v -0.51277694 1.86367586 0.25446547
v -0.52045296 1.82467584 0.25812526
v -0.63305221 1.86224363 0.16797643
v -0.63866535 1.8256056 0.17492789
v -0.66607274 1.8024272 0.20162806
v -0.54688564 1.79840555 0.28674351
v -0.69718605 1.80298975 0.23013321
v -0.57551689 1.796477 0.32068963
v -0.71610051 1.83503524 0.24610187
v -0.59089957 1.82969918 0.34295801
v -0.71011446 1.87318044 0.23919362
v -0.58187624 1.86940238 0.33795529
v -0.68486687 1.89637688 0.21520116
v -0.55713606 1.89451391 0.31250164
v -0.65356813 1.89293287 0.18631734
v -0.82532278 1.89940997 0.12099219
v -0.79352018 1.89282087 0.09494845
v -0.77226833 1.8609725 0.07946021
v -0.92489357 1.88324888 -0.0025464
v -0.90391999 1.85177439 -0.01458278
v -0.90961583 1.81781107 -0.00806757
v -0.77740399 1.82616707 0.08665555
v -0.93663469 1.79858948 0.01197765
v -0.80465588 1.80635041 0.11103274
v -0.96701024 1.8023292 0.03211202
v -0.83557218 1.81034783 0.13606402
v -0.98550748 1.83280915 0.04222756
v -0.85462184 1.84209772 0.14919248
v -0.98128371 1.86837678 0.03686171
v -0.84998068 1.87862914 0.14276984
v -0.95713306 1.88937837 0.01895337
v -1.05905233 1.82864902 -0.10686795
v -1.03411191 1.85280796 -0.11832182
v -1.00049652 1.85104622 -0.13055373
v -1.04330238 1.79792376 -0.29278519
v -1.00793795 1.79943137 -0.29780514
v -0.98649065 1.77271962 -0.29771016
v -0.98012447 1.82262076 -0.13552559
v -0.99380598 1.73898825 -0.29303271
v -0.9871834 1.78939718 -0.12978617
v -1.0228964 1.71499381 -0.28678151
v -1.01481413 1.76746853 -0.11745924
v -1.05429863 1.70889759 -0.282105
v -1.04549831 1.76551973 -0.10612221
v -1.073445 1.73455913 -0.28216309
v -1.06391554 1.79292487 -0.1018928
v -1.06884228 1.77098028 -0.28645678
v -1.05795511 1.69279217 -0.4742349
v -1.05329177 1.72983709 -0.47851074
v -1.02680089 1.75774501 -0.48323557
v -1.0284627 1.7145194 -0.6666621
v -1.00276019 1.74262783 -0.6675531
v -0.96682147 1.74388366 -0.66494462
v -0.99006271 1.75964815 -0.48542042
v -0.94536394 1.71610346 -0.66105688
v -0.96764559 1.73272265 -0.48334988
v -0.95242169 1.68122658 -0.65834368
v -0.97506796 1.69827097 -0.47890439
v -0.98250691 1.65758292 -0.65834529
v -1.00586585 1.67421982 -0.47466252
v -1.0143317 1.65097945 -0.66055033
v -1.03820086 1.66714049 -0.47238572
v -1.03312001 1.67743678 -0.66412906
v -0.95722675 1.66140373 -0.83633712
v -0.97081522 1.69005107 -0.84105178
v -0.96722077 1.72649215 -0.84072673
v -0.88982464 1.71405457 -0.99874462
v -0.88790998 1.75291271 -0.99688359
v -0.86980569 1.78283511 -0.98751856
v -0.94821385 1.7555452 -0.83591122
v -0.83954116 1.78166252 -0.97324402
v -0.91836898 1.75659816 -0.82701533
v -0.82228275 1.74948409 -0.96542547
v -0.90175313 1.72733102 -0.8216461
v -0.82306843 1.71046168 -0.96619704
v -0.90595806 1.6916977 -0.82169521
v -0.84523786 1.68380307 -0.97740146
v -0.92998691 1.66689469 -0.82795796
v -0.87493908 1.68140555 -0.99220764
v -0.75969173 1.69510715 -1.11873953
v -0.79164908 1.69417868 -1.14008614
v -0.81051993 1.7286995 -1.15089028
v -0.68257703 1.69941863 -1.26932288
v -0.69831336 1.73293188 -1.28389389
v -0.69764361 1.77520243 -1.2794177
v -0.8101629 1.77093742 -1.14867141
v -0.68142684 1.80592225 -1.25897953
v -0.7905097 1.8018907 -1.13476634
v -0.65559839 1.80266421 -1.23052887
v -0.75814573 1.79790158 -1.11387363
v -0.63910164 1.76846505 -1.21483578
v -0.7386643 1.76384198 -1.10220315
v -0.63872479 1.72652025 -1.21798635
v -0.738106 1.72268458 -1.10328647
v -0.65630185 1.69851611 -1.23997186
v -0.51049324 1.72540883 -1.30162871
v -0.52083062 1.69715905 -1.3281002
v -0.53801575 1.70120094 -1.36274981
v -0.37024244 1.68355335 -1.37478416
v -0.37918348 1.69227091 -1.4126118
v -0.3892068 1.72730281 -1.42853469
v -0.54966992 1.73541825 -1.37989548
v -0.394927 1.76942055 -1.42101207
v -0.55161914 1.7778373 -1.37492189
v -0.3929004 1.79828085 -1.39370729
v -0.54279981 1.80843252 -1.35071051
v -0.38386492 1.78854237 -1.35585392
v -0.5256311 1.80391283 -1.3169142
v -0.37472604 1.74989955 -1.33567624
v -0.51282454 1.76847345 -1.29788909
v -0.36892544 1.70816861 -1.34278772
v -0.22473991 1.74254534 -1.36799628
v -0.21410475 1.70429196 -1.37825876
v -0.2075096 1.68054627 -1.41058052
v -0.05002711 1.7004234 -1.38943636
v -0.04262002 1.67402464 -1.41814579
v -0.0415659 1.68369544 -1.45470542
v -0.20950629 1.68960978 -1.44837381
v -0.04725142 1.72003836 -1.47305814
v -0.21841071 1.72345152 -1.46336844
v -0.05607005 1.76310132 -1.46692262
v -0.22925115 1.76229949 -1.45179779
v -0.06315749 1.79069943 -1.43889474
v -0.23519138 1.78734845 -1.42018719
v -0.06433836 1.7816062 -1.40354851
v -0.23302697 1.77748872 -1.38360602
v -0.05896852 1.74404821 -1.38451004
v 0.09487039 1.77089973 -1.39208511
v 0.0975571 1.73562296 -1.37380809
v 0.10516341 1.69513553 -1.37917172
v 0.24861818 1.73107419 -1.34497386
v 0.25377874 1.69377044 -1.35174236
v 0.26188665 1.67370745 -1.37909171
v 0.11339605 1.67195992 -1.40686556
v 0.2677049 1.68437413 -1.41089895
v 0.11687441 1.68214239 -1.44095068
v 0.26816537 1.71652144 -1.42741153
v 0.11378626 1.71639033 -1.45867258
v 0.26330528 1.75349755 -1.42046028
v 0.10637351 1.75653075 -1.45259844
v 0.25554706 1.77413085 -1.39329163
v 0.09855461 1.78063347 -1.42529194
v 0.24944052 1.76395882 -1.3619371
v 0.40426284 1.77122203 -1.34781278
v 0.39513489 1.76076055 -1.3178543
v 0.39048113 1.72933226 -1.302636
v 0.52333976 1.760575 -1.27220973
v 0.5147904 1.72956529 -1.25828592
v 0.51704185 1.69435636 -1.2682247
v 0.3933382 1.69392702 -1.31129773
v 0.52829461 1.67638431 -1.29588979
v 0.40180792 1.67568774 -1.33897348
v 0.54175467 1.68768876 -1.32488362
v 0.41057467 1.68680267 -1.36922174
v 0.55002426 1.71816661 -1.3385647
v 0.41491865 1.71774007 -1.38417794
v 0.54829767 1.75266395 -1.32876172
v 0.41247401 1.7527641 -1.37553656
v 0.53722135 1.77070869 -1.30104839
v 0.66829048 1.75465292 -1.28291911
v 0.65188117 1.77436108 -1.25515129
v 0.63155898 1.76545728 -1.22637585
v 0.74522362 1.78299449 -1.19268475
v 0.71660362 1.7771942 -1.16377341
v 0.69963951 1.7438352 -1.14949155
v 0.61898189 1.73364918 -1.21250535
v 0.7065094 1.70276422 -1.16080085
v 0.62256116 1.69651068 -1.22314419
v 0.73093438 1.68009717 -1.18824486
v 0.63913513 1.67711265 -1.25084396
v 0.75936872 1.68975994 -1.21653765
v 0.65902383 1.68815359 -1.27946864
v 0.77671797 1.72030747 -1.23089834
v 0.67130354 1.71873972 -1.2931368
v 0.76993127 1.75940704 -1.22032971
v 0.85944133 1.72534658 -1.14134897
v 0.84923415 1.76637099 -1.13224509
v 0.82049607 1.79313992 -1.10933035
v 0.92676462 1.78193734 -1.02462901
v 0.89609035 1.80936218 -1.01016247
v 0.86140047 1.80696918 -0.99436793
v 0.78758797 1.79107622 -1.0839159
v 0.84033454 1.77331233 -0.98610734
v 0.76767159 1.75736316 -1.07046817
v 0.84780031 1.73167034 -0.99212322
v 0.77673714 1.71351097 -1.08087711
v 0.87727738 1.70517984 -1.0067219
v 0.80607433 1.68774632 -1.10481981
v 0.91389166 1.7101671 -1.0218744
v 0.83943504 1.69520724 -1.12899469
v 0.93748256 1.73957385 -1.0302078
v 0.96139851 1.7424691 -0.87571016
v 0.98459322 1.77039059 -0.8769744
v 0.97933362 1.81213386 -0.87519704
v 1.04716809 1.80041799 -0.66933966
v 1.04456026 1.84493288 -0.66945333
v 1.01790429 1.87907022 -0.67405066
v 0.95343404 1.8421031 -0.87117346
v 0.9797873 1.88050546 -0.68113053
v 0.91922875 1.84138441 -0.86722041
v 0.94636628 1.85222516 -0.68808388
v 0.89612109 1.80765686 -0.86646122
v 0.94703803 1.8102872 -0.68909629
v 0.89951929 1.76848304 -0.86894823
v 0.97794232 1.78379223 -0.68267071
v 0.92476177 1.74173285 -0.87281804
v 1.02055057 1.773333 -0.67322158
v 1.03177297 1.81437696 -0.449701
v 1.07642177 1.79560507 -0.42927425
v 1.10834035 1.82353846 -0.42013719
v 1.08319673 1.79607307 -0.18558132
v 1.11660988 1.82510421 -0.16971781
v 1.11711795 1.87518556 -0.16895604
v 1.10906992 1.87154792 -0.41914782
v 1.08595048 1.91259678 -0.17961745
v 1.08071166 1.91122249 -0.43081416
v 1.0403339 1.91592384 -0.20173347
v 1.03426999 1.91630936 -0.44888097
v 1.00580716 1.89004645 -0.21983205
v 0.99619026 1.88974988 -0.46427803
v 0.99939995 1.83782624 -0.22648587
v 0.98668503 1.83630163 -0.46880381
v 1.0414898 1.81481373 -0.20749904
v 0.97962642 1.79162811 -0.00645666
v 1.01574303 1.77136655 0.0145974
v 1.05061038 1.75461243 0.0386287
v 0.8886157 1.69306354 0.15522479
v 0.90982086 1.67125409 0.18984936
v 0.92717609 1.70205409 0.21710293
v 1.07659126 1.78462044 0.05987918
v 0.92978974 1.74179326 0.22413601
v 1.07164707 1.82886289 0.0622784
v 0.91339469 1.78114046 0.20490734
v 1.04791931 1.86525195 0.05088925
v 0.88738102 1.78535303 0.16536952
v 1.00920821 1.86868304 0.02526091
v 0.86745264 1.76180693 0.13447212
v 0.97994323 1.84184444 0.00196759
v 0.86397836 1.71726038 0.12239556
v -0.23583693 1.82511972 0.41271155
v -0.25042236 1.79689848 0.44063541
v -0.26062096 1.75812127 0.43840437
v -0.25945189 1.73027225 0.40511139
v -0.24808754 1.73774125 0.3638126
v -0.23415304 1.76521412 0.33117026
v -0.22423365 1.80193173 0.33424771
v -0.22539407 1.82775114 0.36925295
v -0.03471362 1.78573144 0.39699918
v -0.04067256 1.75468081 0.42424058
v -0.04908004 1.71687465 0.42106099
v -0.05453987 1.69185961 0.38802947
v -0.05344689 1.70477289 0.34728957
v -0.0501244 1.73248585 0.31302184
v -0.04131332 1.76752205 0.31845563
v -0.0356722 1.7909498 0.35256974
v 0.1670621 1.753417 0.35442921
v 0.16824587 1.72020544 0.37945594
v 0.16113761 1.68353661 0.37506407
v 0.15020563 1.66083439 0.34348804
v 0.14274236 1.67839718 0.30516437
v 0.13676505 1.70566324 0.271011
v 0.14524121 1.73883405 0.2789062
v 0.15630412 1.76042877 0.31098149
v 0.36950197 1.72825928 0.29339021
v 0.37571209 1.69337857 0.31502873
v 0.36894119 1.65791227 0.30898852
v 0.35347432 1.63708347 0.27939733
v 0.33947772 1.6586762 0.24464003
v 0.32625971 1.68496296 0.21185097
v 0.33552901 1.7161993 0.22256164
v 0.35095574 1.7364124 0.2521416
v 0.74620792 1.69260415 0.14469629
v 0.75250794 1.73325914 0.15524875
v 0.76361371 1.66712643 0.1796913
v 0.78038291 1.64446724 0.21485888
v 0.79492607 1.67122281 0.24225947
v 0.79976559 1.71014573 0.24766547
v 0.55919222 1.64966384 0.21392813
v 0.57622832 1.62737557 0.2484018
v 0.79019935 1.74978378 0.22598633
v 0.76901826 1.75569532 0.1851434
v 0.58532515 1.72447196 0.2597643
v 0.56379935 1.73120234 0.21916541
v 0.59533425 1.68743102 0.28130698
v 0.54813216 1.70975434 0.19052285
v 0.59104425 1.65049254 0.27603222
v 0.5415064 1.67498068 0.18012364
v -0.40531661 1.03880998 -1.76201271
v -0.34523774 1.05049373 -1.76901963
v -0.41599629 1.05475234 -1.80014715
v -0.36128057 1.05886078 -1.81004501
v -0.08574524 0.9884187 -1.74820671
v -0.00795418 0.99326431 -1.76327307
v 0.0003078 1.0075389 -1.79514772
v -0.04853742 0.99378321 -1.8163987
v -0.19487135 1.8424841 -1.70350601
v -0.3116595 1.96799824 -1.65730395
v -0.15087631 1.90607035 -1.67832965
v -0.15001603 1.90450847 -1.61497212
v -0.32501774 1.92760649 -1.66495871
v -0.20043139 1.83146932 -1.64768166
v -0.37760615 1.04551279 -1.76192333
v -0.38134927 1.11988844 -1.72504969
v -0.41909937 1.12434804 -1.72133279
v -0.43054048 1.14351223 -1.76209046
v -0.38811435 1.05992474 -1.80599407
v -0.35564393 1.1397436 -1.77903487
v -0.34305774 1.12029565 -1.73871903
v -0.39377505 1.14358584 -1.77517152
v -0.03058173 1.06473126 -1.71713594
v -0.06265491 1.07286021 -1.73270477
v -0.04162631 0.99700076 -1.7242821
v 0.00349599 1.06921221 -1.73262939
v -0.08119588 1.07503708 -1.76393706
v -0.06608051 1.06955043 -1.79909506
v -0.06644179 0.99278166 -1.78910028
v 0.02263924 1.06963337 -1.76377855
v 0.01195375 1.07348393 -1.80123564
v -0.03001262 1.06947451 -1.82001394
v -0.21835604 1.87207149 -1.67397246
v -0.20191256 1.90775672 -1.67536312
v -0.16715831 1.88032714 -1.70532031
v -0.13376844 1.8547377 -1.68792416
v -0.16201404 1.82437195 -1.68573953
v -0.33502899 1.9376228 -1.67700048
v -0.37113454 1.94808127 -1.68705406
v -0.3521882 2.00015438 -1.68303338
v -0.31669568 2.03459045 -1.6684402
v -0.29324559 2.00424171 -1.65472562
v -0.30685086 2.00170118 -1.61845501
v -0.3327937 1.97586191 -1.62907286
v -0.33767376 1.94502191 -1.62459721
v -0.31536024 1.94467366 -1.64503667
v -0.17507333 1.92638662 -1.64896915
v -0.12430477 1.88794442 -1.65865627
v -0.1627632 1.88086384 -1.59112655
v -0.12825805 1.85721361 -1.58601405
v -0.10725722 1.87218952 -1.60123418
v -0.19475399 1.94215337 -1.57023115
v -0.19483931 1.9112886 -1.55098732
v -0.21007196 1.95267538 -1.60920521
v -0.08719938 1.86107761 -1.63769776
v -0.31928526 1.90603999 -1.66120908
v -0.34096503 1.89597392 -1.68048381
v -0.30636913 1.91454482 -1.63457594
v -0.25652997 1.87948654 -1.60975958
v -0.25467475 1.90675631 -1.63257492
v -0.19388634 1.8376126 -1.61653853
v -0.24060007 1.87360236 -1.58583529
v -0.14317213 1.78226729 -1.64129232
v -0.1472606 1.80177839 -1.61247973
v -0.11656555 1.79047996 -1.66558856
v -0.07129474 1.75949771 -1.61363972
v -0.10513785 1.75164934 -1.59866748
v -0.0925366 1.8250073 -1.66323131
v -0.04876756 1.79718159 -1.61209368
v -0.02326234 1.78491679 -1.53073125
v -0.04788502 1.75398742 -1.53198622
v -0.05103432 1.83619329 -1.59479369
v -0.02948736 1.82540939 -1.52223999
v -0.02113278 1.83144068 -1.44638183
v -0.00951818 1.78966553 -1.438925
v -0.07486869 1.85345343 -1.57189877
v -0.05587303 1.84635606 -1.51501275
v -0.05143119 1.84968076 -1.45405888
v -0.05887901 1.87431395 -1.41025584
v -0.03215359 1.8589689 -1.39091004
v -0.08536814 1.83897612 -1.51208444
v -0.08035307 1.84303502 -1.45778664
v -0.08822275 1.86750948 -1.41382187
v -0.09376619 1.89925856 -1.38258343
v -0.06692938 1.90120014 -1.37791696
v -0.09936107 1.81659551 -1.45532322
v -0.11205776 1.84803316 -1.40381449
v -0.11531503 1.88816388 -1.36486132
v -0.11843816 1.94132677 -1.35847683
v -0.09765785 1.94265799 -1.37843967
v -0.10538996 1.82118207 -1.38120839
v -0.11763151 1.87337708 -1.33042159
v -0.11534641 1.94163152 -1.32188672
v -0.11063952 2.01591811 -1.32990685
v -0.11431608 2.00660521 -1.36741262
v -0.09141498 1.86222575 -1.30245304
v -0.09310503 1.94041833 -1.29095066
v -0.08777359 2.0184791 -1.29816111
v -0.06449841 2.09239288 -1.32714826
v -0.08859156 2.08783044 -1.3580365
v -0.06359131 1.93693684 -1.28719414
v -0.05810747 2.01193308 -1.29408971
v -0.03696646 2.07697461 -1.31889854
v 0.00326312 2.11192391 -1.3655476
v -0.01835039 2.13342601 -1.38149526
v -0.03927657 2.00116534 -1.31340482
v -0.02308885 2.05288394 -1.33414591
v 0.00928327 2.07971608 -1.37073516
v 0.05062803 2.07555574 -1.42206028
v 0.05383612 2.10826452 -1.42991523
v -0.02912807 2.03232732 -1.36604005
v -0.00363882 2.05223976 -1.39412662
v 0.02961717 2.04561449 -1.43160655
v 0.06111702 2.0107481 -1.47753282
v 0.09353225 2.03346599 -1.48262842
v -0.02823221 2.04839968 -1.42380006
v 0.00158341 2.04568319 -1.46081359
v 0.03026537 2.01482725 -1.50525413
v 0.04548174 1.95221793 -1.54622415
v 0.07735344 1.9445412 -1.51975739
v -0.01431621 2.0683328 -1.48301738
v 0.01881011 2.03529234 -1.53741392
v 0.03766691 1.96817894 -1.58439811
v 0.04187745 1.83259356 -1.64179328
v 0.05029854 1.82224321 -1.60376642
v 0.03026651 2.06315784 -1.56038293
v 0.05231446 1.98385674 -1.61945714
v 0.05539597 1.84200619 -1.67937356
v 0.04467268 1.65700615 -1.74284589
v 0.0301009 1.64918938 -1.70428878
v 0.08952626 1.99280674 -1.63588616
v 0.09371568 1.84568733 -1.69789837
v 0.08625551 1.66080752 -1.76403075
v 0.0555368 1.45139618 -1.80910405
v 0.01108737 1.44911281 -1.78603252
v 0.12591054 1.83765976 -1.67291649
v 0.12347614 1.65430888 -1.73910509
v 0.09996897 1.44715384 -1.78563559
v 0.05361808 1.23753776 -1.80166983
v 0.00893911 1.24058428 -1.82322535
v 0.13225851 1.64563348 -1.69947306
v 0.11199767 1.44164079 -1.74384844
v 0.06712661 1.23557112 -1.76181242
v 0.09524836 1.43742688 -1.70376155
v 0.05265632 1.23529525 -1.72339875
v 0.05134943 1.43612371 -1.6809111
v 0.00896694 1.23694788 -1.70086727
v 0.00706899 1.43964995 -1.70429309
v -0.03595977 1.23948025 -1.72262417
v -0.00582097 1.4446434 -1.74603985
v -0.05041732 1.24106133 -1.76356382
v -0.03219869 1.2415138 -1.80086714
v 0.04072911 1.64107077 -1.6657727
v 0.07729809 1.63545144 -1.64161872
v 0.08286619 1.81389043 -1.57721222
v 0.11700988 1.63842185 -1.66225988
v 0.12055747 1.81781107 -1.59755541
v 0.1154418 1.95369904 -1.53606989
v 0.13400444 1.82718234 -1.63485097
v 0.12764727 1.96981405 -1.57370165
v 0.10344826 2.06045492 -1.5076874
v 0.11988962 1.98447033 -1.60917904
v 0.09229359 2.07993382 -1.53805853
v 0.03792283 2.13080235 -1.45268103
v 0.06168178 2.08491107 -1.56362191
v 0.00944332 2.13165436 -1.47954828
v -0.04538459 2.13236746 -1.41074129
v -0.01202007 2.1024919 -1.49100866
v -0.05682278 2.10321383 -1.43383274
v -0.09507988 2.06884711 -1.39209233
v -0.04913625 2.06883785 -1.43921511
v -0.07849292 2.04449778 -1.40693007
v -0.09369188 1.9953294 -1.38674011
v -0.05196425 2.02818722 -1.39698784
v -0.06431001 1.98769316 -1.38166315
v -0.06764932 1.94082883 -1.37465289
v -0.04166911 1.99033815 -1.34948386
v -0.04592801 1.93856182 -1.34341209
v -0.04225737 1.89470689 -1.35502161
v -0.04466773 1.93576091 -1.30735513
v -0.04088986 1.87711292 -1.3221583
v -0.02933129 1.83255437 -1.3691931
v -0.06173388 1.86472816 -1.30323538
v -0.04983541 1.80999731 -1.35913662
v -0.03540202 1.75921256 -1.43741373
v -0.08021991 1.80550917 -1.36333369
v -0.0690609 1.75691799 -1.44012247
v -0.07964191 1.74977495 -1.5272699
v -0.09571152 1.78021048 -1.44797741
v -0.10302961 1.76971669 -1.52054178
v -0.11447007 1.77804341 -1.58108041
v -0.10363326 1.80839591 -1.51414189
v -0.1144533 1.81399403 -1.56407915
v -0.14404258 1.8286081 -1.58948843
v -0.10073236 1.84303373 -1.55936293
v -0.17871004 1.86086482 -1.60063911
v -0.21603572 1.88980028 -1.56230534
v -0.25932582 1.96278236 -1.47948463
v -0.27724772 1.93661938 -1.4864292
v -0.30591157 1.92205872 -1.51271645
v -0.38431311 1.99664748 -1.39767251
v -0.41175532 1.97756055 -1.42995173
v -0.43417752 1.98154838 -1.46314844
v -0.32449627 1.93073585 -1.54121858
v -0.44009918 2.01892622 -1.48550795
v -0.32339529 1.96204277 -1.56076382
v -0.4250557 2.05897703 -1.4814232
v -0.30501758 1.9926086 -1.55839677
v -0.23657162 1.93792562 -1.63254617
v -0.2793935 2.00636808 -1.53453634
v -0.39871375 2.07816088 -1.45446119
v -0.37559452 2.06855506 -1.41809905
v -0.26045319 1.99491933 -1.50170749
v -0.36886293 2.03222308 -1.39129114
v -0.48924452 2.09047026 -1.31939852
v -0.47194227 2.05205971 -1.3004741
v -0.48217342 2.01300025 -1.31116689
v -0.57238823 2.03144321 -1.18575085
v -0.58110741 1.99420085 -1.19913364
v -0.6125161 1.9734267 -1.23044628
v -0.51253976 1.99216192 -1.34334941
v -0.6435277 1.97421561 -1.25787607
v -0.54244472 1.99405267 -1.37395487
v -0.66217036 2.01270455 -1.26885283
v -0.55687008 2.03521696 -1.38799315
v -0.65471908 2.05482617 -1.25615223
v -0.54565834 2.07575883 -1.37688695
v -0.62736547 2.07813503 -1.22839852
v -0.51908567 2.09729518 -1.34987723
v -0.59372073 2.07046412 -1.19935268
v -0.73580927 2.0544637 -1.10672543
v -0.70166719 2.04620137 -1.07766322
v -0.67960253 2.0063123 -1.06373306
v -0.80870014 2.02040324 -0.9527884
v -0.78311802 1.98058976 -0.93932108
v -0.7931549 1.94082302 -0.95335666
v -0.68870943 1.96903052 -1.07710627
v -0.82759485 1.91949644 -0.98393746
v -0.72047348 1.94854389 -1.10817542
v -0.86094829 1.9231037 -1.00917358
v -0.75150349 1.9498848 -1.13542979
v -0.88037055 1.96077057 -1.01813317
v -0.77034624 1.98832205 -1.14665973
v -0.87401535 2.00150132 -1.00674289
v -0.7633278 2.03075812 -1.13443876
v -0.84569812 2.0264203 -0.98131811
v -0.94930127 1.95686156 -0.84176407
v -0.91975199 1.9855263 -0.82487189
v -0.87813865 1.98538739 -0.8106884
v -0.93013821 1.9325663 -0.6486978
v -0.88760813 1.93511889 -0.64330731
v -0.86333166 1.90147044 -0.65024762
v -0.85616014 1.94978982 -0.81073546
v -0.87478272 1.86450504 -0.66180804
v -0.86936127 1.91447396 -0.82350277
v -0.9121934 1.8416099 -0.67184912
v -0.90300961 1.89073133 -0.84111445
v -0.94803649 1.82904165 -0.67916327
v -0.94053584 1.88179188 -0.85565675
v -0.96874808 1.86259835 -0.67213062
v -0.95996779 1.91677306 -0.85444884
v -0.9595939 1.90240687 -0.66026065
v -0.97517328 1.80981048 -0.50365571
v -0.96666015 1.84989785 -0.49163762
v -0.93624056 1.87966034 -0.48036062
v -0.97408522 1.79521514 -0.32584829
v -0.94376965 1.82452228 -0.31880059
v -0.90149038 1.82492158 -0.32079006
v -0.89303002 1.88009367 -0.47599955
v -0.87677201 1.79255346 -0.32949535
v -0.86788058 1.84658629 -0.48316213
v -0.88717502 1.755258 -0.33840869
v -0.87839979 1.80915068 -0.49471701
v -0.9241976 1.73415929 -0.34285865
v -0.91744137 1.78859018 -0.50406023
v -0.96075024 1.7243408 -0.34345981
v -0.9536828 1.77635963 -0.51102079
v -0.98150048 1.75547941 -0.33476812
v -0.92485685 1.6835414 -0.18381809
v -0.9364176 1.71482641 -0.17503198
v -0.93091979 1.75148738 -0.1702984
v -0.88063654 1.69175068 -0.03082992
v -0.87754713 1.73056774 -0.0273572
v -0.85831176 1.76169559 -0.03184802
v -0.91135 1.78279129 -0.17054576
v -0.82611966 1.76148226 -0.04513753
v -0.87850715 1.78470799 -0.17928978
v -0.8094344 1.72916459 -0.05614371
v -0.86290619 1.75338739 -0.1881398
v -0.8109742 1.69025632 -0.06080996
v -0.86826115 1.71741534 -0.19300767
v -0.83544872 1.66333184 -0.05403656
v -0.89509113 1.69190204 -0.19053213
v -0.86703945 1.65866672 -0.0410017
v -0.77674732 1.64670932 0.07656138
v -0.81036761 1.64309914 0.09523133
v -0.82662444 1.67688478 0.10804741
v -0.72638593 1.63732582 0.21936625
v -0.74111421 1.67058003 0.23579354
v -0.73833704 1.7139759 0.23527503
v -0.82547338 1.71770674 0.11123357
v -0.72012808 1.74846161 0.21900692
v -0.80593794 1.74918182 0.10324593
v -0.69114174 1.74892165 0.18969144
v -0.77281931 1.74840303 0.08488418
v -0.67511945 1.71447869 0.1716422
v -0.753168 1.71510946 0.07077441
v -0.67602321 1.67160138 0.17037859
v -0.75275631 1.67396229 0.06603527
v -0.69617461 1.64241867 0.18930778
v -0.55636428 1.67750952 0.23582393
v -0.56843098 1.64701531 0.26083198
v -0.58816381 1.64699479 0.29826557
v -0.59856876 1.68101271 0.31608718
v -0.59996351 1.72429783 0.31561331
v -0.59155764 1.76044653 0.29704338
v -0.57161677 1.75942944 0.25990405
v -0.55808914 1.72305718 0.2366035
v 0.84781495 1.78750288 0.1345513
v 0.84167421 1.82385742 0.10592379
v 0.8204103 1.82426426 0.06920323
v 0.91564452 1.76477411 0.01570908
v 0.88382975 1.77413548 -0.01346399
v 0.84586707 1.74219795 -0.04114747
v 0.79582687 1.7963243 0.04130041
v 0.83871478 1.68720606 -0.03569051
v 0.78396702 1.74762425 0.04315204
v 0.85840604 1.6494776 -0.01124914
v 0.79114322 1.70698029 0.07165551
v 0.89628682 1.65567456 0.02132534
v 0.81318963 1.71648418 0.11169264
v 0.92757092 1.67937648 0.04465876
v 0.83457016 1.73996637 0.1359422
v 0.93233377 1.72904549 0.03808188
v 0.97467394 1.61839235 -0.06897096
v 0.97417158 1.6666685 -0.07424675
v 0.95357673 1.70096371 -0.0899602
v 1.02418411 1.63286126 -0.20412529
v 0.99292802 1.66220432 -0.21208288
v 0.95235104 1.66103312 -0.2234397
v 0.91794217 1.70829148 -0.11336175
v 0.91839418 1.62771414 -0.23404939
v 0.88182415 1.67367945 -0.13446167
v 0.91919569 1.58168836 -0.23446045
v 0.88184967 1.62114933 -0.12890647
v 0.95066436 1.54968013 -0.22593982
v 0.9045086 1.58599559 -0.11048847
v 0.99230645 1.55544316 -0.21437167
v 0.94234367 1.59046181 -0.08658687
v 1.03426364 1.5803852 -0.20195522
v 1.02266068 1.57001971 -0.37213254
v 1.05203152 1.59496314 -0.37088737
v 1.05123669 1.63532426 -0.36585189
v 1.09048837 1.67650987 -0.56057248
v 1.08772482 1.71710688 -0.55387317
v 1.0596544 1.74925343 -0.5434092
v 1.02466752 1.66756477 -0.36248288
v 1.02712319 1.74886221 -0.53591151
v 0.9825334 1.67349644 -0.36168756
v 0.98976528 1.72843793 -0.53175843
v 0.95575436 1.63359191 -0.36541668
v 0.98784847 1.69023807 -0.54171939
v 0.95579161 1.60000501 -0.36888802
v 1.01347958 1.65811769 -0.55244633
v 0.97579419 1.56968874 -0.37189265
v 1.06857565 1.65335193 -0.55943725
v 0.9905572 1.77741204 -0.72840612
v 1.03947672 1.7676797 -0.74152347
v 1.05725795 1.78823353 -0.74545018
v 0.95954469 1.8597563 -0.89052378
v 0.97827636 1.87880833 -0.89643273
v 0.97607999 1.91760439 -0.88845492
v 1.05597337 1.82771582 -0.73838522
v 0.95530724 1.95004741 -0.87230631
v 1.03146994 1.85919805 -0.72233176
v 0.92100121 1.95152809 -0.85483737
v 0.99483869 1.86104142 -0.707561
v 0.89510852 1.93159217 -0.84567081
v 0.96670851 1.83938834 -0.69966029
v 0.88908257 1.89268476 -0.84981479
v 0.96122998 1.79810511 -0.70414735
v 0.92459399 1.87536195 -0.87049159
v 0.80842877 1.95685166 -0.98975143
v 0.83964713 1.93965915 -1.01381432
v 0.87115559 1.92306903 -1.03791747
v 0.70637156 1.97522484 -1.11360915
v 0.72721517 1.95944668 -1.14527575
v 0.74168726 1.98815406 -1.15743232
v 0.88799069 1.94192486 -1.04490393
v 0.74511437 2.02247038 -1.15479724
v 0.88499508 1.97954025 -1.03700731
v 0.73120785 2.05416584 -1.13175641
v 0.86727426 2.01101107 -1.01963066
v 0.70736642 2.05020687 -1.09981457
v 0.83659326 2.01416929 -0.99808601
v 0.68923682 2.0257309 -1.08164362
v 0.81255105 1.99410522 -0.98543958
v 0.68302016 1.99107149 -1.08133014
v 0.52430489 2.03841093 -1.13708956
v 0.51849884 2.00597072 -1.13499582
v 0.53640935 1.99148544 -1.16801485
v 0.36052935 2.01113965 -1.18675879
v 0.37786718 1.9967879 -1.21925145
v 0.39591873 1.98174179 -1.25253732
v 0.55474085 1.97607599 -1.20135456
v 0.40976146 2.00822696 -1.26870175
v 0.56785809 2.00324648 -1.21657943
v 0.41266968 2.04318789 -1.26473287
v 0.57082425 2.0386459 -1.21333044
v 0.40244559 2.0717038 -1.2406883
v 0.56027183 2.06879693 -1.18907856
v 0.38158327 2.06845965 -1.2071093
v 0.53903619 2.06439644 -1.15531155
v 0.36689669 2.04229108 -1.18944976
v 0.23941633 2.0743882 -1.26976127
v 0.22531221 2.04999946 -1.2503514
v 0.21960721 2.01862706 -1.24647815
v 0.09306629 2.03438972 -1.32717604
v 0.09555685 2.00475581 -1.31996721
v 0.11434482 1.98812757 -1.34937197
v 0.23771589 2.00364492 -1.27796308
v 0.13471731 1.97217215 -1.37957113
v 0.256021 1.9887879 -1.31103584
v 0.13990395 1.99804675 -1.39988901
v 0.26993823 2.0157092 -1.32822846
v 0.13423113 2.03069781 -1.40236095
v 0.27011502 2.04962816 -1.32464003
v 0.11883337 2.05855986 -1.38451726
v 0.25898293 2.07633 -1.30282833
v 0.10106517 2.05684011 -1.35078977
v -0.01811656 2.00091227 -1.46825793
v -0.03143975 1.99925585 -1.43414492
v -0.0335229 1.98128735 -1.40747604
v -0.15179424 1.92112573 -1.49765127
v -0.14971159 1.90529932 -1.46997768
v -0.13883114 1.88240117 -1.45679076
v -0.02549062 1.9560634 -1.39610245
v -0.12212014 1.86803929 -1.4835948
v -0.00694349 1.94179111 -1.42391518
v -0.10571668 1.85367483 -1.51140289
v 0.01196596 1.92762674 -1.45267199
v -0.10874951 1.86993995 -1.53536283
v 0.01130503 1.9464985 -1.47569225
v -0.12161611 1.89627243 -1.54588462
v 0.00063702 1.97496898 -1.48324762
v -0.14200423 1.92271625 -1.53340843
v -0.191884 1.84115762 -1.5737107
v -0.20800302 1.86724199 -1.55890774
v -0.22080552 1.86647699 -1.52791429
v -0.24834992 1.84917313 -1.5817402
v -0.26487698 1.84977014 -1.55509684
v -0.27664029 1.82806903 -1.5393457
v -0.22438506 1.84826296 -1.50290485
v -0.28260873 1.79736337 -1.53512796
v -0.21887664 1.82054349 -1.48913675
v -0.26614291 1.78099411 -1.56203096
v -0.2015632 1.8054676 -1.51764287
v -0.24997404 1.76357137 -1.58954109
v -0.18405481 1.78910675 -1.54572697
v -0.2405812 1.78811744 -1.60350033
v -0.1838696 1.81137515 -1.5668358
v -0.23852101 1.82297203 -1.60358077
v -0.29035572 1.79822572 -1.64066204
v -0.27604971 1.83197717 -1.63017449
v -0.28009728 1.85513829 -1.60480537
v -0.30286701 1.86331769 -1.64997742
v -0.29548379 1.8824464 -1.62193166
v -0.31688569 1.87925824 -1.60487795
v -0.2981306 1.85664245 -1.58013902
v -0.34321618 1.86284624 -1.60076392
v -0.31668725 1.83601669 -1.57062625
v -0.36349699 1.84925281 -1.5973942
v -0.3318154 1.80767097 -1.57197943
v -0.35394879 1.84041846 -1.63014294
v -0.32007899 1.79285498 -1.60396682
v -0.34645131 1.8321219 -1.66340092
v -0.30787409 1.77631031 -1.63412872
v -0.32431181 1.84341946 -1.66659984
v -0.36810167 1.8892444 -1.67810556
v -0.37822045 1.8933298 -1.64686195
v -0.38574429 1.9473223 -1.65568252
v -0.38774972 1.89703786 -1.61393005
v -0.40141829 1.9463542 -1.62352531
v -0.38318289 1.99878418 -1.62123396
v -0.37473088 2.00102728 -1.6517537
v -0.35085936 2.04199214 -1.60902591
v -0.34075703 2.04495911 -1.63803547
v -0.31373173 2.07951901 -1.58726558
v -0.29669081 2.08392811 -1.61596757
v -0.27064952 2.07040296 -1.65225132
v -0.25058521 2.09058548 -1.57249309
v -0.22638788 2.07357797 -1.60072773
v -0.22587489 2.03477933 -1.60057288
v -0.26216044 2.03198617 -1.63609938
v -0.24640748 2.03135362 -1.57373084
v -0.27816138 2.02527926 -1.60264078
v -0.2716097 2.04948429 -1.54295986
v -0.3027011 2.04191073 -1.57281421
v -0.33245311 2.0141708 -1.58627949
v -0.35810412 1.98136402 -1.59949214
v -0.36891284 1.94377534 -1.61570202
v -0.3618103 1.90359013 -1.61813314
v -0.33210987 1.91034571 -1.62722421
v -0.26995686 2.09099146 -1.54737607
v -0.24196513 2.04563624 -1.50842419
v -0.23180428 2.0838144 -1.50076717
v -0.2073474 2.08075611 -1.51944866
v -0.20882781 2.06641168 -1.45393267
v -0.1807801 2.05886418 -1.46459197
v -0.15033929 2.03984445 -1.48531874
v -0.17972101 2.06452588 -1.54824542
v -0.16633264 2.00690264 -1.50221598
v -0.18988731 2.02561352 -1.55389312
v -0.1964599 2.01106341 -1.49403518
v -0.21532424 2.02575114 -1.53523124
v -0.2285251 2.03242186 -1.47160998
v -0.19468704 1.98668264 -1.45706267
v -0.22227304 2.0121883 -1.43969625
v -0.20721591 2.03762913 -1.40986344
v -0.23834464 1.97859412 -1.4140283
v -0.22577633 1.99444723 -1.37438863
v -0.19670992 1.97616365 -1.37711503
v -0.17613291 2.02350374 -1.414506
v -0.16495879 1.95193967 -1.38663178
v -0.14460331 2.00035791 -1.42458606
v -0.18083428 1.93950623 -1.42733927
v -0.16382222 1.97742788 -1.45680541
v -0.20959125 1.95288343 -1.42960552
v -0.20804221 1.87707696 -1.41585735
v -0.23846205 1.89407176 -1.41663991
v -0.27316542 1.91395965 -1.39950447
v -0.27783514 1.7955019 -1.44876761
v -0.31728575 1.80367743 -1.43383909
v -0.31281573 1.78179541 -1.39470425
v -0.26407658 1.90900006 -1.35740417
v -0.27710676 1.77008993 -1.39983043
v -0.2329163 1.89068309 -1.35892222
v -0.23663919 1.75998413 -1.4119897
v -0.19601295 1.87129852 -1.3709766
v -0.24411102 1.78261113 -1.44861847
v -0.27298464 1.64201275 -1.51020467
v -0.275928 1.67367224 -1.54415561
v -0.31341088 1.68298617 -1.54207533
v -0.30991913 1.49721537 -1.64211472
v -0.35289128 1.50266105 -1.63750716
v -0.39902588 1.5051612 -1.62454671
v -0.35698825 1.68659952 -1.52954078
v -0.39195836 1.47928316 -1.58266792
v -0.35332192 1.65538779 -1.49603641
v -0.35055194 1.47194382 -1.58530849
v -0.31678439 1.64573131 -1.49818195
v -0.30200932 1.46977103 -1.59789645
v -0.37561897 1.2854268 -1.65650363
v -0.3280487 1.28435834 -1.67101895
v -0.33912297 1.30751483 -1.71887497
v -0.38365625 1.31236006 -1.71307866
v -0.42953265 1.31404696 -1.7001461
v -0.41796415 1.29129871 -1.65402663
v 0.32499268 1.83932071 0.23556694
v 0.32790556 1.80094102 0.26568978
v 0.32810206 1.75386573 0.26589734
v 0.32740643 1.72532548 0.24246819
v 0.32450831 1.71615455 0.19858975
v 0.3221054 1.75518112 0.16979845
v 0.32156998 1.80271752 0.16914612
v 0.32271216 1.83291813 0.19503552
v -0.17511871 1.7526576 0.31052226
v -0.1761426 1.78986142 0.28350951
v -0.1714368 1.70632949 0.31241089
v -0.16614658 1.67311728 0.29028697
v -0.16140367 1.66721624 0.24722315
v -0.16174117 1.70287616 0.22043681
v -0.16563889 1.74925063 0.21981277
v -0.1710843 1.78399349 0.24275442
v 0.08070363 1.77405547 0.28499356
v 0.07830546 1.81157001 0.25624267
v 0.07906212 1.80502588 0.21558296
v 0.08267097 1.72738013 0.28607488
v 0.08459486 1.69641473 0.26330337
v 0.08488544 1.68837661 0.2197814
v 0.08082587 1.77245622 0.1911147
v 0.08306861 1.72551522 0.1918451
v -0.4714277 1.65215683 0.28033002
v -0.48133088 1.65458607 0.32232899
v -0.49004269 1.68960262 0.343152
v -0.49516004 1.73460737 0.34111167
v -0.49435465 1.77112027 0.31743754
v -0.48415124 1.76728083 0.27668224
v -0.47420131 1.73052628 0.25404867
v -0.46897671 1.68493055 0.25419389
v -0.39026013 1.77510853 0.31447361
v -0.39120494 1.73788232 0.33974616
v -0.38581679 1.69192583 0.34197305
v -0.37662626 1.65716806 0.32018132
v -0.37993564 1.77030584 0.27364336
v -0.36642812 1.65357769 0.27750157
v -0.36471075 1.68826742 0.25193347
v -0.37028466 1.73409801 0.25175235
v 0.50456711 1.82069447 0.24685349
v 0.5008212 1.85904406 0.21542924
v 0.50177271 1.77299379 0.24646049
v 0.49615112 1.74669416 0.22162049
v 0.48799816 1.73634672 0.17764508
v 0.48466323 1.77682009 0.14790545
v 0.48714717 1.82529331 0.14712397
v 0.49369163 1.85343706 0.17516197
v 0.6364931 1.86052841 0.14760069
v 0.64307864 1.86476973 0.18848142
v 0.64519182 1.82658597 0.22011779
v 0.62834703 1.83287139 0.11725885
v 0.64051852 1.77830035 0.21907942
v 0.63366774 1.75308975 0.19262112
v 0.6259536 1.74248536 0.14791546
v 0.6240538 1.78369047 0.11750685
v -1.98616811 0.52769867 0.38431419
v -1.62424719 1.16996284 0.29023512
v 0.06029046 -0.31711264 1.91966201
v 0.05526172 0.44014656 1.20775522
v 1.69843072 1.17001921 0.29020133
v 2.06037889 0.52771135 0.3843101
v 1.78886914 0.12289252 0.92975189
v 1.33087027 1.02231559 0.5826638
v 0.85447927 0.66341855 0.94794265
v 1.16569319 -0.15999005 1.46513117
v -1.25426994 1.0197958 0.58484321
v -1.70999319 0.1182645 0.93222813
v -0.75963121 0.65657454 0.95074949
v -1.06287184 -0.1725077 1.46750662
v 1.36215114 1.04296298 0.62393724
v 1.82103174 0.15592124 0.95806751
v 2.10334003 0.55864267 0.41564739
v 1.74063127 1.19510563 0.32959357
v 0.05514518 0.45948666 1.25218208
v 0.06008121 -0.2740815 1.94515044
v 1.18358513 -0.12343214 1.49308314
v 0.87145958 0.68163082 0.99092415
v -2.02912969 0.55863023 0.41565068
v -1.74228501 0.15131599 0.96054774
v -1.28558839 1.04041776 0.6261266
v -1.6664457 1.19504912 0.32962572
v -1.08110676 -0.13600384 1.49545234
v -0.77675103 0.67467188 0.99373109
v 2.01998326 0.31048779 0.66688578
v 1.54605472 1.20242962 0.45326165
v 1.50867494 1.17986552 0.41258394
v 1.71663656 1.18150878 0.30915225
v 1.34251867 1.02519063 0.60393143
v 1.52398919 1.18368027 0.43435559
v 1.98163281 0.27838965 0.63790907
v 1.80723145 0.14738938 0.94286989
v 2.08051748 0.54523441 0.39870881
v 2.00453591 0.30190236 0.65200195
v 0.64879688 -0.23947766 1.79484266
v 0.49063911 0.52737397 1.16865139
v 0.48221999 0.50871914 1.12463525
v 0.86116496 0.66829921 0.96686202
v 0.05462306 0.44874804 1.22472396
v 0.48564702 0.51618833 1.14215696
v 0.64006317 -0.27996482 1.76825583
v 0.06026866 -0.29251391 1.93374606
v 1.17367941 -0.13618885 1.4786461
v 0.64329176 -0.25570358 1.78223908
v 1.56184214 0.01746985 1.22017982
v 1.15153689 0.86248282 0.80314387
v 1.12693665 0.84355561 0.76111567
v 1.13603505 0.84674327 0.7813985
v 1.53620553 -0.01678352 1.19197953
v 1.54953254 0.00773272 1.20490423
v -1.47167896 1.20168018 0.45410354
v -1.94507683 0.30920073 0.6679452
v -1.64242179 1.18145825 0.30917309
v -2.0062843 0.54522628 0.39869906
v -1.90667555 0.27706478 0.63898335
v -1.72836163 0.14270197 0.94539922
v -1.92960148 0.30060124 0.65307009
v -1.43428444 1.17910907 0.41342879
v -1.26615353 1.02280894 0.60601332
v -1.44966858 1.18298954 0.43513825
v -0.38536391 0.52224887 1.17008146
v -0.53305428 -0.24869107 1.79581592
v -0.52393467 -0.28913903 1.7692474
v -1.07083081 -0.14896666 1.48116584
v -0.52713591 -0.26505073 1.7833224
v -0.37672757 0.50366707 1.12607533
v -0.76724284 0.66172075 0.96952876
v -0.38137533 0.51133615 1.14348656
v -1.06840615 0.85720427 0.80647072
v -1.47339935 0.00779081 1.2235813
v -1.44751324 -0.02648452 1.19540998
v -1.46081096 -0.00211646 1.20841792
v -1.04371675 0.83832748 0.76444527
v -1.05339816 0.84177397 0.78456167
v -0.99548707 -0.0038347 1.31343144
v -1.35621064 0.15928352 1.05689726
v -0.92279208 0.18969751 1.17168652
v -1.25793008 0.3626646 0.93622092
v -0.84489381 0.40878655 1.04955695
v -1.15402972 0.58744568 0.83805785
v 1.82556263 1.02334476 0.33136829
v 1.66668605 0.95662152 0.46875644
v 1.91684973 0.86758807 0.34488376
v 1.78693628 0.73105496 0.50928043
v 2.01196194 0.71618647 0.37323556
v 1.90627194 0.5179544 0.57608203
v 1.48095978 0.7904596 0.66589474
v 1.59790362 0.56208593 0.73660589
v 1.71208585 0.35227656 0.83511059
v -1.60530305 0.32031178 0.80966846
v -1.49282517 0.53401392 0.70936998
v -1.37541386 0.7651505 0.63419843
v 1.78504564 0.99769065 0.2957631
v 1.79590804 1.01289896 0.3092895
v 1.87699081 0.84084141 0.31181982
v 1.88629919 0.85587303 0.32388131
v 1.97137894 0.68781122 0.34151022
v 1.98150143 0.70298625 0.35302547
v 1.45277435 0.76826363 0.63182761
v 1.63276774 0.93314347 0.43460617
v 1.5709428 0.53775575 0.7068603
v 1.75439915 0.70607582 0.47899932
v 1.68398151 0.32461459 0.80710037
v 1.87245765 0.49032044 0.54737104
v 0.95828842 0.43787837 1.08219843
v 0.53680612 0.27913844 1.29303989
v 1.03846458 0.22370429 1.19951799
v 0.57761278 0.06754845 1.44438103
v 1.11366553 0.03668196 1.339052
v 0.61475586 -0.10639792 1.61542593
v 0.05750619 0.21013025 1.39439585
v 0.05921152 0.00319289 1.56419223
v 0.06015007 -0.15965084 1.75229115
v 0.05763228 0.18775244 1.35845089
v 0.52961209 0.25763903 1.25708793
v 0.059386 -0.0232212 1.53389583
v 0.57073676 0.0422335 1.41377138
v 0.06037224 -0.19254915 1.72526626
v 0.60744365 -0.13768417 1.58774501
v 0.94297536 0.41712484 1.04682614
v 1.0235815 0.19963925 1.16901903
v 1.09806074 0.00764883 1.31085031
v -1.37906776 0.18720065 1.08483986
v -1.01150063 0.02512838 1.3416692
v -1.27983171 0.38642069 0.96609992
v -0.93801566 0.21366569 1.20223598
v -1.17658241 0.60841216 0.87258146
v -0.86041369 0.42941963 1.08496176
v 1.26158753 0.61490802 0.86903536
v 1.3665625 0.39418372 0.96243774
v 1.46708109 0.1961387 1.08119523
v -1.6335896 0.34800568 0.83769172
v -1.51994666 0.55836368 0.73912908
v -1.40368824 0.78733611 0.66828457
v -0.41964152 0.2515119 1.25838587
v -0.45710954 0.03494827 1.414978
v -0.49148487 -0.14609682 1.58885687
v 1.23920972 0.59390792 0.83452456
v 1.34495044 0.37043711 0.93256605
v 1.44455359 0.16825566 1.05325005
v -1.5921478 0.95568993 0.46972858
v -1.71222337 0.7299462 0.5103476
v -1.83143443 0.51672334 0.57718135
v -1.75134636 1.02330348 0.33138251
v -1.84262129 0.86755862 0.34488559
v -1.93773609 0.71616986 0.37323276
v -1.89715265 0.68779265 0.34151097
v -1.90718684 0.70298123 0.35298186
v -1.80276668 0.84080967 0.31182443
v -1.81196867 0.85585797 0.32383705
v -1.71083249 0.99764832 0.29577869
v -1.72158979 1.01287613 0.30925668
v -1.55819083 0.93219205 0.43558779
v -1.67962216 0.70492839 0.48008728
v -1.79754649 0.48903913 0.54849491
v -0.42708639 0.27293265 1.29435054
v -0.46433377 0.06019091 1.44560575
v -0.49922718 -0.1148558 1.61654155
v -1.66262273 0.9952423 0.27673958
v -1.32369052 1.50803437 -0.00646815
v 0.05891907 0.0639589 1.39279768
v 0.04161507 1.03120196 0.64471306
v 1.3982278 1.50972154 -0.00817635
v 1.73688455 0.99624273 0.27567478
v 1.38371441 0.59402476 0.6781674
v 1.00926884 1.43023162 0.18192385
v 0.60280653 1.18142583 0.45002596
v 0.87798881 0.26737611 1.05001677
v -0.93468547 1.42863172 0.18365052
v -1.30527017 0.58989381 0.68124949
v -0.52408177 1.17966525 0.45151299
v -0.77778186 0.25914001 1.05252209
v 1.01961661 1.46062962 0.22073822
v 1.39089244 0.62077352 0.71625317
v 1.74998176 1.02714243 0.31447337
v 1.41299888 1.54667956 0.02842747
v 0.04168815 1.05469618 0.68725035
v 0.05880067 0.10384022 1.42944013
v 0.87975755 0.29681161 1.08816628
v 0.6081812 1.20560992 0.49130736
v -1.67572253 1.02615101 0.31552956
v -1.31242763 0.61660712 0.71934193
v -0.9450229 1.45903603 0.22245487
v -1.33846742 1.54500521 0.03011862
v -0.77962124 0.28850481 1.09071198
v -0.52936808 1.20382219 0.49281523
v 1.61241389 0.80075909 0.51036731
v 1.20832029 1.56871402 0.08215177
v 1.19534929 1.5341673 0.04489247
v 1.4035448 1.52819525 0.00939134
v 1.00890346 1.44385412 0.19993502
v 1.1979413 1.54922758 0.06330452
v 1.60195305 0.77278339 0.47198266
v 1.39291048 0.61155322 0.69911789
v 1.7422554 1.01308957 0.29404091
v 1.61261354 0.7910534 0.4922011
v 0.47947505 0.15546826 1.30995888
v 0.33375539 1.10125083 0.62166721
v 0.33113617 1.07782812 0.57951566
v 0.59907209 1.19613257 0.46397776
v 0.04054106 1.04924317 0.65586976
v 0.32797332 1.09475233 0.59137119
v 0.4792355 0.11997633 1.27258212
v 0.05990342 0.08115383 1.41967527
v 0.88384957 0.28264588 1.07524353
v 0.48264702 0.13581776 1.29928418
v 1.17097584 0.4561388 0.90076463
v 0.82869535 1.33139869 0.3577257
v 0.82075468 1.30477363 0.31751098
v 0.81800169 1.31814167 0.33391189
v 1.16675433 0.42921255 0.86253629
v 1.174576 0.4453142 0.88566672
v -1.13386496 1.56710648 0.08381081
v -1.53728024 0.79873037 0.5123041
v -1.32899406 1.52648638 0.01111757
v -1.66798334 1.01212607 0.29506048
v -1.52682704 0.77076082 0.47392085
v -1.31411777 0.60721622 0.70228644
v -1.53738986 0.78898312 0.49415431
v -1.12089084 1.53254211 0.04657148
v -0.93446277 1.44236751 0.20152797
v -1.12346593 1.54758962 0.06498225
v -0.25172324 1.10000905 0.62256214
v -0.3670096 0.14967184 1.31111231
v -0.36659291 0.1142183 1.27370098
v -0.78230559 0.27396606 1.07782594
v -0.36815797 0.12975503 1.30043222
v -0.24923884 1.07660599 0.58040288
v -0.52162173 1.19469208 0.46527328
v -0.2479851 1.09373742 0.59217679
v -0.7526924 1.32962935 0.35948189
v -1.08396851 0.44892696 0.90456207
v -1.07974474 0.42206559 0.86630337
v -1.08674983 0.43778673 0.88955785
v -0.74479535 1.30301555 0.31926726
v -0.74262542 1.31662529 0.33548023
v -0.73045211 0.47504622 0.90112021
v -1.01380641 0.63332199 0.72743733
v -0.66928954 0.70136026 0.74619749
v -0.93223949 0.84862016 0.58748351
v -0.59929871 0.93560251 0.59438242
v -0.84072738 1.0698082 0.45076414
v 1.49511974 1.40521679 0.10050846
v 1.31769337 1.35753921 0.18931785
v 1.58164065 1.27547812 0.17105459
v 1.4248898 1.16444444 0.29458542
v 1.66902865 1.15141989 0.24241919
v 1.52528186 0.98063902 0.40177431
v 1.12264224 1.23151038 0.34008289
v 1.22277198 1.01992357 0.46202633
v 1.31395548 0.81775684 0.58799981
v -1.22926545 0.79143733 0.55564607
v -1.13875175 0.99475281 0.43029205
v -1.03872087 1.20435801 0.30678876
v 1.48145589 1.37165637 0.06483338
v 1.48190914 1.39182414 0.07931891
v 1.56858663 1.24408319 0.13528782
v 1.56659637 1.26282129 0.14925634
v 1.65617686 1.12088012 0.20562884
v 1.65319815 1.13848362 0.21983982
v 1.11382728 1.20629006 0.30478537
v 1.30660989 1.32853208 0.15472617
v 1.21485684 0.99731901 0.42785964
v 1.41473898 1.13844703 0.26062926
v 1.30656305 0.79474726 0.55287391
v 1.51530722 0.95502594 0.36652101
v 0.68693633 0.95967311 0.62916868
v 0.37759614 0.83773901 0.78076229
v 0.76226909 0.72634305 0.7787736
v 0.41912069 0.58877837 0.95416895
v 0.82865943 0.50436916 0.93403909
v 0.45463634 0.35796131 1.13351515
v 0.04584263 0.78190841 0.85936925
v 0.05089251 0.52664381 1.04669487
v 0.0556557 0.2957256 1.23998954
v 0.04573924 0.7598325 0.82247223
v 0.3756944 0.81634607 0.74378246
v 0.05081175 0.50334385 1.0123302
v 0.41779502 0.56694939 0.91943901
v 0.05565792 0.26712665 1.20555056
v 0.45389234 0.3319513 1.09855121
v 0.68249433 0.93860204 0.59239938
v 0.75863942 0.70611091 0.74379636
v 0.82595215 0.48166641 0.8985631
v -1.01885796 0.65508971 0.76284478
v -0.73309311 0.49767763 0.93663368
v -0.93815931 0.8690835 0.62214836
v -0.67277609 0.72152921 0.78120488
v -0.84751268 1.09216218 0.48688905
v -0.60359571 0.95663178 0.63117428
v 0.92548913 1.0947932 0.48463971
v 1.01917736 0.87316785 0.61919695
v 1.10312231 0.66079712 0.75935522
v -1.23661836 0.81442326 0.59077461
v -1.14663007 1.01734678 0.46445282
v -1.04751549 1.22958609 0.34206863
v -0.28672702 0.81421421 0.74488253
v -0.31993921 0.56357744 0.92067923
v -0.34740713 0.32725053 1.09979024
v 0.91862635 1.07241961 0.44851894
v 1.01316815 0.85266303 0.58455176
v 1.09800044 0.63897161 0.72397485
v -1.2432403 1.35597496 0.19095031
v -1.35030815 1.16281251 0.29629978
v -1.45045307 0.97885364 0.4035802
v -1.42062952 1.40367865 0.10205665
v -1.50722452 1.27417899 0.17235979
v -1.59470373 1.15036117 0.24350696
v -1.58184795 1.11980396 0.20672899
v -1.57880366 1.13744822 0.22086529
v -1.49416737 1.24276716 0.13661725
v -1.49211175 1.2614992 0.15056914
v -1.40695877 1.37010031 0.06640363
v -1.40736626 1.39023846 0.08090762
v -1.23215704 1.32694549 0.15639087
v -1.34016035 1.13679825 0.26236589
v -1.44048823 0.95323614 0.36833972
v -0.28842968 0.835581 0.7818777
v -0.32110133 0.58536893 0.95543265
v -0.34812731 0.35322393 1.13478143
v -1.31214097 1.41284479 0.01430381
v -1.06971702 1.97634413 -0.21980521
v 0.05138249 0.66016498 0.83774804
v 0.03631781 1.5744854 0.26688143
v 1.13154745 1.99132649 -0.24700868
v 1.37939318 1.42524591 -0.00882545
v 1.07998176 1.05627451 0.30113998
v 0.79474478 1.91964547 -0.09098322
v 0.45171638 1.69978579 0.11582601
v 0.68111196 0.80864767 0.5668857
v -0.73006686 1.90787625 -0.0698144
v -1.00441683 1.04604993 0.31904085
v -0.38261961 1.69389143 0.12617294
v -0.59217469 0.80090131 0.57768176
v 0.80364299 1.94440099 -0.05534545
v 1.08707526 1.07763983 0.33611854
v 1.39069538 1.45003853 0.0269645
v 1.14377197 2.0219214 -0.21283023
v 0.03657306 1.59309371 0.30484882
v 0.0514953 0.69297188 0.87191112
v 0.68391099 0.83263372 0.6019485
v 0.45669333 1.71902999 0.15294602
v -1.32303848 1.43758415 0.0501602
v -1.0111078 1.06732606 0.35403804
v -0.73854008 1.93230914 -0.03412327
v -1.08159996 2.00688756 -0.18551145
v -0.59459778 0.82481194 0.61276034
v -0.38712522 1.71311296 0.16330348
v 1.2716159 1.23804975 0.17828404
v 0.97007671 2.04400673 -0.16682488
v 0.95921043 2.0155621 -0.20143987
v 1.1367292 2.00833701 -0.23105792
v 0.79680266 1.93803416 -0.07647349
v 0.96341859 2.035055 -0.18708039
v 1.26214911 1.21573249 0.14300904
v 1.08780429 1.06469201 0.321023
v 1.38423281 1.43761883 0.00879561
v 1.27034704 1.2244987 0.16277988
v 0.37546377 0.73117908 0.77342375
v 0.24819493 1.63282147 0.25224878
v 0.24561729 1.6142144 0.21459858
v 0.45092206 1.717407 0.12968639
v 0.03630633 1.59280673 0.28045669
v 0.24476385 1.63215474 0.2283173
v 0.37433713 0.70203195 0.73878556
v 0.05209023 0.66877873 0.86187553
v 0.6873822 0.8160722 0.58924778
v 0.37812493 0.70985296 0.76251117
v 0.90979674 0.94720525 0.46822824
v 0.63752425 1.82796263 0.05168198
v 0.63050312 1.80655136 0.01520186
v 0.63088917 1.82452895 0.02929714
v 0.90493881 0.92551256 0.43316986
v 0.91258996 0.93344295 0.45402854
v -0.90724717 2.03004071 -0.14182766
v -1.19985983 1.22650866 0.19923062
v -1.07470008 1.99329542 -0.20384164
v -1.31677718 1.42521048 0.03192674
v -1.19079966 1.20426357 0.16391519
v -1.01205263 1.05461501 0.33863247
v -1.19890282 1.21329946 0.18328864
v -0.8967524 2.00178475 -0.17653897
v -0.73180486 1.92621066 -0.05555006
v -0.90067035 2.02120119 -0.16228473
v -0.17624428 1.62985316 0.25739119
v -0.27676251 0.72660502 0.77890347
v -0.27593451 0.69748983 0.74425903
v -0.59755678 0.80816172 0.59999868
v -0.27842882 0.70516369 0.76796789
v -0.17416252 1.61125368 0.21974097
v -0.38161813 1.71131762 0.14031457
v -0.17325341 1.62914545 0.23352424
v -0.57024183 1.81904106 0.06747156
v -0.82837697 0.93793584 0.48295539
v -0.82392663 0.91633516 0.44788204
v -0.83112076 0.92426222 0.46856293
v -0.56365651 1.79769353 0.03095763
v -0.56371584 1.81541225 0.04530851
v -0.54809862 1.00697616 0.46048604
v -0.76777911 1.12086615 0.34288209
v -0.49610923 1.22838609 0.34381551
v -0.70322923 1.33839564 0.23674196
v -0.4395033 1.45861928 0.23107886
v -0.63358762 1.56405826 0.13207069
v 1.2047239 1.874197 -0.15364303
v 1.2668452 1.72495547 -0.0914605
v 1.12972034 1.61860939 0.00800048
v 1.32971211 1.58161589 -0.03009617
v 1.20412818 1.42140938 0.09440297
v 0.95457422 1.48714747 0.13811105
v 1.02448704 1.27500258 0.23759023
v -0.94507459 1.24611533 0.22386421
v -0.87773397 1.45782289 0.1265152
v 1.1933473 1.84652276 -0.18677736
v 1.19579759 1.86319859 -0.17226548
v 1.25585217 1.69929743 -0.12459165
v 1.2565503 1.71585061 -0.11099105
v 1.31875527 1.55691092 -0.06411552
v 1.31860591 1.5730998 -0.05054306
v 0.94743668 1.46874242 0.10704666
v 1.12096632 1.59743572 -0.02320313
v 1.01751512 1.25644488 0.20553462
v 1.19531225 1.40078384 0.06203688
v 0.51634555 1.48164186 0.25345548
v 0.28118951 1.38739528 0.36533108
v 0.57724003 1.25123965 0.36464022
v 0.31552995 1.14915345 0.49377509
v 0.63431257 1.03255381 0.48196123
v 0.34778247 0.9264501 0.6313623
v 0.03920946 1.34279128 0.42710185
v 0.04293838 1.10149388 0.56677898
v 0.04716701 0.88002582 0.71670227
v 0.03898923 1.32481988 0.39446592
v 0.27923991 1.36993382 0.33260954
v 0.04272572 1.08213847 0.53615898
v 0.313904 1.13098853 0.46284851
v 0.04697606 0.85618996 0.68540235
v 0.34639736 0.90477058 0.59967067
v 0.51213922 1.46456802 0.22068677
v 0.57348981 1.23459316 0.3334041
v 0.63099777 1.01382046 0.44990223
v -0.77266295 1.13848004 0.37492935
v -0.55099962 1.02562801 0.49253541
v -0.70853315 1.3550108 0.26789225
v -0.49945445 1.24497211 0.37502019
v -0.63936455 1.58217359 0.1645805
v -0.44329767 1.47566109 0.26382285
v 0.70935344 1.59051883 0.1497976
v 0.78191323 1.36386916 0.25262538
v 0.84984672 1.14739668 0.36014244
v -0.95168598 1.26452806 0.25590822
v -0.88450247 1.47570314 0.15756319
v -0.20310093 1.36688976 0.33780006
v -0.23117816 1.12763968 0.46813638
v -0.25605063 0.90091444 0.60503612
v 0.70320182 1.57235251 0.11728674
v 0.77623527 1.34711978 0.22146163
v 0.84456752 1.12962649 0.32807633
v -1.06266627 1.60602143 0.03068083
v -1.13487043 1.4094005 0.11601667
v -1.14106927 1.85906861 -0.12634111
v -1.20195228 1.71082964 -0.06570682
v -1.26356379 1.56859379 -0.00611369
v -1.25296575 1.54392598 -0.04019425
v -1.25252747 1.55977624 -0.02616034
v -1.19129631 1.68518544 -0.09891305
v -1.19173653 1.70150241 -0.08509148
v -1.13002757 1.83142409 -0.15957431
v -1.13225678 1.84811737 -0.1451612
v -1.05421517 1.58484426 -0.00055125
v -1.12640092 1.38888517 0.08363584
v -0.20461527 1.38434518 0.37049732
v -0.23236904 1.14578554 0.49903949
v -0.25702185 0.92256461 0.6367178
v 1.10757761 1.8457388 -0.10797699
v 1.029578 1.88590291 -0.1039311
v 1.07498588 1.87966681 -0.11535647
v 1.07232603 1.76960082 -0.05528853
v 1.10855034 1.7982886 -0.08245181
v 1.00393741 1.79551343 -0.0471096
v 0.99064712 1.85032407 -0.07169006
v 1.03536968 1.77234574 -0.04454032
v 0.85883016 1.77455783 0.01390038
v 0.82678365 1.67196633 0.07530715
v 0.81284913 1.73435711 0.04764947
v 0.90053687 1.64656625 0.06862531
v 0.86051453 1.64887197 0.07846392
v 0.93108768 1.7466905 0.00322035
v 0.89805347 1.77093419 0.00194812
v 0.94564791 1.68535822 0.03231031
v -0.83239845 1.63541321 0.08803375
v -0.75880391 1.66240677 0.09263226
v -0.79234333 1.6388239 0.09619924
v -0.79200035 1.76319274 0.03487407
v -0.74553973 1.72416871 0.06626339
v -0.86417941 1.73431953 0.02595151
v -0.83130076 1.75891072 0.02447613
v -0.87807792 1.6732563 0.05394734
v -0.96301929 1.87763412 -0.08047422
v -1.04858136 1.83251926 -0.08402727
v -1.01298196 1.86982925 -0.0919073
v -1.00898121 1.75094938 -0.02938851
v -1.04920411 1.78109932 -0.05735566
v -0.93370229 1.77986416 -0.02052534
v -0.91970095 1.83983244 -0.04679681
v -0.96823194 1.75488013 -0.01844962
v 0.98973933 1.7690611 -0.07537717
v 1.01737674 1.86704794 -0.13913583
v 0.97501821 1.82841707 -0.10339617
v 1.06550455 1.74040476 -0.08440247
v 1.02456586 1.74349987 -0.0724391
v 1.10385092 1.82221327 -0.14341224
v 1.06772568 1.85984417 -0.15220767
v 1.10471757 1.77099977 -0.11489164
v 0.81900834 1.651713 0.04340772
v 0.85064914 1.75327249 -0.01939112
v 0.80494411 1.71335493 0.01465905
v 0.89311229 1.62624196 0.03693273
v 0.8528972 1.62854472 0.04680146
v 0.92351896 1.72548851 -0.02926674
v 0.89018759 1.74970883 -0.03117917
v 0.93793511 1.66463092 0.0003054
v -1.03948512 1.8073366 -0.11685623
v -0.95329265 1.85305693 -0.11350339
v -1.00364806 1.8450242 -0.12546955
v -1.00027231 1.72725952 -0.06092676
v -1.03988281 1.75676507 -0.08962467
v -0.92451603 1.75654378 -0.05212426
v -0.91042466 1.81552274 -0.07945539
v -0.95923531 1.7310687 -0.04983012
v -0.75136372 1.64217864 0.06068382
v -0.8253196 1.6152722 0.05630432
v -0.785063 1.61857541 0.06449666
v -0.78417572 1.74194101 0.00151022
v -0.73798292 1.7032241 0.03321417
v -0.85694043 1.71306423 -0.00660573
v -0.82376505 1.73752663 -0.00872999
v -0.87070164 1.65257815 0.02188538
g Group22387
f 8 10 9 7
f 8 1 11 10
f 11 13 12 10
f 11 15 14 13
f 11 1 2 15
f 15 17 16 14
f 15 2 3 17
f 17 19 18 16
f 17 3 4 19
f 19 21 20 18
f 19 4 5 21
f 21 23 22 20
f 21 5 6 23
f 23 9 24 22
f 23 6 7 9
f 24 26 25 22
f 24 12 27 26
f 24 9 10 12
f 27 29 28 26
f 27 31 30 29
f 27 12 13 31
f 31 33 32 30
f 31 13 14 33
f 33 35 34 32
f 33 14 16 35
f 35 37 36 34
f 35 16 18 37
f 37 39 38 36
f 37 18 20 39
f 39 25 40 38
f 39 20 22 25
f 40 42 41 38
f 40 28 43 42
f 40 25 26 28
f 43 45 44 42
f 43 47 46 45
f 43 28 29 47
f 47 49 48 46
f 47 29 30 49
f 49 51 50 48
f 49 30 32 51
f 51 53 52 50
f 51 32 34 53
f 53 55 54 52
f 53 34 36 55
f 55 41 56 54
f 55 36 38 41
f 56 58 57 54
f 56 44 59 58
f 56 41 42 44
f 59 61 60 58
f 59 63 62 61
f 59 44 45 63
f 63 65 64 62
f 63 45 46 65
f 65 67 66 64
f 65 46 48 67
f 67 69 68 66
f 67 48 50 69
f 69 71 70 68
f 69 50 52 71
f 71 57 72 70
f 71 52 54 57
f 72 74 73 70
f 72 60 75 74
f 72 57 58 60
f 75 77 76 74
f 75 79 78 77
f 75 60 61 79
f 79 81 80 78
f 79 61 62 81
f 81 83 82 80
f 81 62 64 83
f 83 85 84 82
f 83 64 66 85
f 85 87 86 84
f 85 66 68 87
f 87 73 88 86
f 87 68 70 73
f 88 90 89 86
f 88 76 91 90
f 88 73 74 76
f 91 93 92 90
f 91 95 94 93
f 91 76 77 95
f 95 97 96 94
f 95 77 78 97
f 97 99 98 96
f 97 78 80 99
f 99 101 100 98
f 99 80 82 101
f 101 103 102 100
f 101 82 84 103
f 103 89 104 102
f 103 84 86 89
f 104 106 105 102
f 104 92 107 106
f 104 89 90 92
f 107 109 108 106
f 107 111 110 109
f 107 92 93 111
f 111 113 112 110
f 111 93 94 113
f 113 115 114 112
f 113 94 96 115
f 115 117 116 114
f 115 96 98 117
f 117 119 118 116
f 117 98 100 119
f 119 105 120 118
f 119 100 102 105
f 120 122 121 118
f 120 108 123 122
f 120 105 106 108
f 123 125 124 122
f 123 127 126 125
f 123 108 109 127
f 127 129 128 126
f 127 109 110 129
f 129 131 130 128
f 129 110 112 131
f 131 133 132 130
f 131 112 114 133
f 133 135 134 132
f 133 114 116 135
f 135 121 136 134
f 135 116 118 121
f 136 138 137 134
f 136 124 139 138
f 136 121 122 124
f 139 141 140 138
f 139 143 142 141
f 139 124 125 143
f 143 145 144 142
f 143 125 126 145
f 145 147 146 144
f 145 126 128 147
f 147 149 148 146
f 147 128 130 149
f 149 151 150 148
f 149 130 132 151
f 151 137 152 150
f 151 132 134 137
f 152 154 153 150
f 152 140 155 154
f 152 137 138 140
f 155 157 156 154
f 155 159 158 157
f 155 140 141 159
f 159 161 160 158
f 159 141 142 161
f 161 163 162 160
f 161 142 144 163
f 163 165 164 162
f 163 144 146 165
f 165 167 166 164
f 165 146 148 167
f 167 153 168 166
f 167 148 150 153
f 168 170 169 166
f 168 156 171 170
f 168 153 154 156
f 171 173 172 170
f 171 175 174 173
f 171 156 157 175
f 175 177 176 174
f 175 157 158 177
f 177 179 178 176
f 177 158 160 179
f 179 181 180 178
f 179 160 162 181
f 181 183 182 180
f 181 162 164 183
f 183 169 184 182
f 183 164 166 169
f 184 186 185 182
f 184 172 187 186
f 184 169 170 172
f 187 189 188 186
f 187 191 190 189
f 187 172 173 191
f 191 193 192 190
f 191 173 174 193
f 193 195 194 192
f 193 174 176 195
f 195 197 196 194
f 195 176 178 197
f 197 199 198 196
f 197 178 180 199
f 199 185 200 198
f 199 180 182 185
f 200 202 201 198
f 200 188 203 202
f 200 185 186 188
f 203 205 204 202
f 203 207 206 205
f 203 188 189 207
f 207 209 208 206
f 207 189 190 209
f 209 211 210 208
f 209 190 192 211
f 211 213 212 210
f 211 192 194 213
f 213 215 214 212
f 213 194 196 215
f 215 201 216 214
f 215 196 198 201
f 216 218 217 214
f 216 204 219 218
f 216 201 202 204
f 219 221 220 218
f 219 223 222 221
f 219 204 205 223
f 223 225 224 222
f 223 205 206 225
f 225 227 226 224
f 225 206 208 227
f 227 229 228 226
f 227 208 210 229
f 229 231 230 228
f 229 210 212 231
f 231 217 232 230
f 231 212 214 217
f 232 234 233 230
f 232 220 235 234
f 232 217 218 220
f 235 237 236 234
f 235 239 238 237
f 235 220 221 239
f 239 241 240 238
f 239 221 222 241
f 241 243 242 240
f 241 222 224 243
f 243 245 244 242
f 243 224 226 245
f 245 247 246 244
f 245 226 228 247
f 247 233 248 246
f 247 228 230 233
f 248 233 234 236
f 253 254 262 261
f 263 264 272 271
f 262 263 271 270
f 2 1 254 253
f 268 269 277 276
f 261 262 270 269
f 260 261 269 268
f 6 5 250 249
f 7 6 249 256
f 249 250 258 257
f 255 256 264 263
f 257 258 266 265
f 254 255 263 262
f 265 266 274 273
f 5 4 251 250
f 272 265 273 280
f 250 251 259 258
f 8 7 256 255
f 258 259 267 266
f 256 249 257 264
f 266 267 275 274
f 4 3 252 251
f 1 8 255 254
f 271 272 280 279
f 251 252 260 259
f 259 260 268 267
f 267 268 276 275
f 3 2 253 252
f 264 257 265 272
f 269 270 278 277
f 252 253 261 260
f 270 271 279 278
f 248 281 282 246
f 248 236 283 281
f 283 236 237 284
f 284 237 238 285
f 285 238 240 286
f 276 277 287 288
f 286 240 242 289
f 289 242 244 290
f 290 244 246 282
f 280 273 291 292
f 273 274 293 291
f 279 280 292 294
f 274 275 295 293
f 278 279 294 296
f 277 278 296 287
f 275 276 288 295
f 283 284 288 287
f 294 292 290 282
f 289 290 292 291
f 286 289 291 293
f 285 286 293 295
f 282 281 296 294
f 281 283 287 296
f 284 285 295 288
g Group29888
f 297 311 312 313
f 297 313 314 299
f 297 299 315 311
f 298 311 315 300
f 298 300 316 317
f 298 317 312 311
f 299 314 318 315
f 300 315 318 316
f 319 320 321 322
f 301 321 320 323
f 301 323 324 325
f 301 325 302 321
f 302 326 322 321
f 303 302 325 304
f 303 327 326 302
f 303 304 328 327
f 304 325 324 328
f 305 329 330 331
f 305 331 332 333
f 305 333 310 329
f 306 334 335 336
f 306 336 337 338
f 306 338 339 340
f 306 340 341 342
f 306 342 309 334
f 307 343 308 344
f 307 344 332 331
f 307 331 330 343
f 308 345 346 347
f 308 348 349 345
f 308 343 350 348
f 308 347 351 344
f 309 352 353 334
f 309 342 354 352
f 310 355 356 329
f 310 357 358 355
f 310 359 360 357
f 310 333 361 359
f 361 362 363 359
f 361 333 332 364
f 361 364 365 362
f 365 366 367 362
f 365 364 351 368
f 365 368 369 366
f 369 370 371 366
f 369 368 372 373
f 369 373 374 370
f 374 375 376 370
f 374 373 377 378
f 374 378 379 375
f 379 380 381 375
f 379 378 382 383
f 379 383 384 380
f 384 385 386 380
f 384 383 387 388
f 384 388 389 385
f 389 390 391 385
f 389 388 392 393
f 389 393 394 390
f 394 395 396 390
f 394 393 397 398
f 394 398 399 395
f 399 400 401 395
f 399 398 402 403
f 399 403 404 400
f 404 405 406 400
f 404 403 407 408
f 404 408 409 405
f 409 410 411 405
f 409 408 412 413
f 409 413 414 410
f 414 415 416 410
f 414 413 417 418
f 414 418 419 415
f 419 420 421 415
f 419 418 422 423
f 419 423 424 420
f 424 425 426 420
f 424 423 427 428
f 424 428 429 425
f 429 430 431 425
f 429 428 432 433
f 429 433 434 430
f 434 435 436 430
f 434 433 437 438
f 434 438 439 435
f 439 326 327 435
f 439 438 440 441
f 439 441 322 326
f 441 440 442 443
f 441 443 319 322
f 443 442 444 445
f 443 445 320 319
f 445 444 446 447
f 445 447 323 320
f 447 446 431 448
f 447 448 324 323
f 448 431 430 436
f 448 436 328 324
f 446 444 449 426
f 446 426 425 431
f 449 444 442 450
f 449 450 451 421
f 449 421 420 426
f 451 450 452 453
f 451 453 454 416
f 451 416 415 421
f 454 453 455 456
f 454 456 457 411
f 454 411 410 416
f 457 456 458 459
f 457 459 460 406
f 457 406 405 411
f 460 459 461 462
f 460 462 463 401
f 460 401 400 406
f 463 462 464 465
f 463 465 466 396
f 463 396 395 401
f 466 465 467 468
f 466 468 469 391
f 466 391 390 396
f 469 468 470 471
f 469 471 472 386
f 469 386 385 391
f 472 471 473 474
f 472 474 475 381
f 472 381 380 386
f 475 474 476 477
f 475 477 478 376
f 475 376 375 381
f 478 477 479 480
f 478 480 481 371
f 478 371 370 376
f 481 480 482 483
f 481 483 484 367
f 481 367 366 371
f 484 483 485 486
f 484 486 487 363
f 484 363 362 367
f 487 486 488 489
f 487 489 490 360
f 487 360 359 363
f 490 489 491 346
f 490 346 345 492
f 490 492 357 360
f 492 345 349 493
f 492 493 358 357
f 493 349 494 495
f 493 495 496 358
f 496 495 497 498
f 496 498 499 500
f 496 500 355 358
f 500 499 501 502
f 500 502 356 355
f 502 501 503 504
f 502 504 505 356
f 505 330 329 356
f 505 504 506 350
f 505 350 343 330
f 506 504 503 507
f 506 507 508 509
f 506 509 348 350
f 509 508 510 494
f 509 494 349 348
f 510 508 511 512
f 510 512 513 497
f 510 497 495 494
f 513 512 514 515
f 513 515 516 517
f 513 517 498 497
f 517 516 518 519
f 517 519 499 498
f 519 518 520 521
f 519 521 501 499
f 521 520 522 523
f 521 523 503 501
f 523 522 524 525
f 523 525 507 503
f 525 524 526 511
f 525 511 508 507
f 526 524 527 528
f 526 528 529 514
f 526 514 512 511
f 529 528 530 531
f 529 531 532 533
f 529 533 515 514
f 533 532 534 535
f 533 535 516 515
f 535 534 536 537
f 535 537 518 516
f 537 536 538 539
f 537 539 520 518
f 539 538 540 541
f 539 541 522 520
f 541 540 542 527
f 541 527 524 522
f 542 540 543 544
f 542 544 545 530
f 542 530 528 527
f 545 544 546 547
f 545 547 548 549
f 545 549 531 530
f 549 548 550 551
f 549 551 532 531
f 551 550 552 553
f 551 553 534 532
f 553 552 554 555
f 553 555 536 534
f 555 554 556 557
f 555 557 538 536
f 557 556 558 543
f 557 543 540 538
f 558 556 559 560
f 558 560 561 546
f 558 546 544 543
f 561 560 562 563
f 561 563 564 565
f 561 565 547 546
f 565 564 566 567
f 565 567 548 547
f 567 566 568 569
f 567 569 550 548
f 569 568 570 571
f 569 571 552 550
f 571 570 572 573
f 571 573 554 552
f 573 572 574 559
f 573 559 556 554
f 574 572 575 576
f 574 576 577 562
f 574 562 560 559
f 577 576 578 579
f 577 579 580 581
f 577 581 563 562
f 581 580 582 583
f 581 583 564 563
f 583 582 584 585
f 583 585 566 564
f 585 584 586 587
f 585 587 568 566
f 587 586 588 589
f 587 589 570 568
f 589 588 590 575
f 589 575 572 570
f 590 588 591 592
f 590 592 593 578
f 590 578 576 575
f 593 592 594 595
f 593 595 596 597
f 593 597 579 578
f 597 596 598 599
f 597 599 580 579
f 599 598 600 601
f 599 601 582 580
f 601 600 602 603
f 601 603 584 582
f 603 602 604 605
f 603 605 586 584
f 605 604 606 591
f 605 591 588 586
f 606 604 607 608
f 606 608 609 594
f 606 594 592 591
f 609 610 595 594
f 610 611 596 595
f 611 612 598 596
f 612 613 600 598
f 613 614 602 600
f 614 607 604 602
f 617 616 618 619
f 617 619 620 621
f 621 620 622 623
f 623 622 624 625
f 625 624 626 627
f 627 626 628 629
f 629 628 630 615
f 630 628 631 632
f 630 632 633 618
f 630 618 616 615
f 633 632 634 635
f 633 635 636 637
f 633 637 619 618
f 637 636 638 639
f 637 639 620 619
f 639 638 640 641
f 639 641 622 620
f 641 640 642 643
f 641 643 624 622
f 643 642 644 645
f 643 645 626 624
f 645 644 646 631
f 645 631 628 626
f 646 644 647 648
f 646 648 649 634
f 646 634 632 631
f 649 648 650 651
f 649 651 652 653
f 649 653 635 634
f 653 652 654 655
f 653 655 636 635
f 655 654 656 657
f 655 657 638 636
f 657 656 658 659
f 657 659 640 638
f 659 658 660 661
f 659 661 642 640
f 661 660 662 647
f 661 647 644 642
f 662 660 663 664
f 662 664 665 650
f 662 650 648 647
f 665 664 666 667
f 665 667 668 669
f 665 669 651 650
f 669 668 670 671
f 669 671 652 651
f 671 670 672 673
f 671 673 654 652
f 673 672 674 675
f 673 675 656 654
f 675 674 676 677
f 675 677 658 656
f 677 676 678 663
f 677 663 660 658
f 678 676 679 680
f 678 680 681 666
f 678 666 664 663
f 681 680 682 683
f 681 683 684 685
f 681 685 667 666
f 685 684 686 687
f 685 687 668 667
f 687 686 688 689
f 687 689 670 668
f 689 688 690 691
f 689 691 672 670
f 691 690 692 693
f 691 693 674 672
f 693 692 694 679
f 693 679 676 674
f 694 692 695 696
f 694 696 697 682
f 694 682 680 679
f 697 696 698 699
f 697 699 700 701
f 697 701 683 682
f 701 700 702 703
f 701 703 684 683
f 703 702 704 705
f 703 705 686 684
f 705 704 706 707
f 705 707 688 686
f 707 706 708 709
f 707 709 690 688
f 709 708 710 695
f 709 695 692 690
f 710 708 711 712
f 710 712 713 698
f 710 698 696 695
f 713 712 714 715
f 713 715 716 717
f 713 717 699 698
f 717 716 718 719
f 717 719 700 699
f 719 718 720 721
f 719 721 702 700
f 721 720 722 723
f 721 723 704 702
f 723 722 724 725
f 723 725 706 704
f 725 724 726 711
f 725 711 708 706
f 726 724 727 728
f 726 728 729 714
f 726 714 712 711
f 729 728 730 731
f 729 731 732 733
f 729 733 715 714
f 733 732 734 735
f 733 735 716 715
f 735 734 736 737
f 735 737 718 716
f 737 736 738 739
f 737 739 720 718
f 739 738 740 741
f 739 741 722 720
f 741 740 742 727
f 741 727 724 722
f 742 740 743 744
f 742 744 745 730
f 742 730 728 727
f 745 744 746 747
f 745 747 748 749
f 745 749 731 730
f 749 748 750 751
f 749 751 732 731
f 751 750 752 753
f 751 753 734 732
f 753 752 754 755
f 753 755 736 734
f 755 754 756 757
f 755 757 738 736
f 757 756 758 743
f 757 743 740 738
f 758 756 759 760
f 758 760 761 746
f 758 746 744 743
f 761 760 762 763
f 761 763 764 765
f 761 765 747 746
f 765 764 766 767
f 765 767 748 747
f 767 766 768 769
f 767 769 750 748
f 769 768 770 771
f 769 771 752 750
f 771 770 772 773
f 771 773 754 752
f 773 772 774 759
f 773 759 756 754
f 774 772 775 353
f 774 353 352 762
f 774 762 760 759
f 775 772 770 776
f 775 776 777 335
f 775 335 334 353
f 777 776 778 779
f 777 779 780 781
f 777 781 336 335
f 781 780 782 783
f 781 783 337 336
f 783 782 784 785
f 783 785 786 337
f 786 785 787 788
f 786 788 789 790
f 786 790 338 337
f 790 789 791 792
f 790 792 339 338
f 792 791 793 794
f 792 794 795 339
f 795 796 340 339
f 795 794 784 782
f 795 782 780 796
f 796 797 341 340
f 796 780 779 797
f 797 798 799 341
f 797 779 778 798
f 799 764 763 354
f 799 354 342 341
f 799 798 766 764
f 798 778 768 766
f 794 793 800 784
f 800 793 801 802
f 800 802 803 787
f 800 787 785 784
f 803 802 804 805
f 803 805 806 807
f 803 807 788 787
f 807 806 808 809
f 807 809 789 788
f 809 808 810 811
f 809 811 791 789
f 811 810 812 801
f 811 801 793 791
f 812 810 813 814
f 812 814 815 804
f 812 804 802 801
f 815 814 816 817
f 815 817 818 819
f 815 819 805 804
f 819 818 820 821
f 819 821 806 805
f 821 820 822 823
f 821 823 808 806
f 823 822 824 813
f 823 813 810 808
f 824 822 825 826
f 824 826 827 816
f 824 816 814 813
f 827 826 828 829
f 827 829 830 831
f 827 831 817 816
f 831 830 832 833
f 831 833 818 817
f 833 832 834 835
f 833 835 820 818
f 835 834 836 825
f 835 825 822 820
f 836 834 837 838
f 836 838 839 828
f 836 828 826 825
f 839 838 840 841
f 839 841 842 843
f 839 843 829 828
f 843 842 844 845
f 843 845 830 829
f 845 844 846 847
f 845 847 832 830
f 847 846 848 837
f 847 837 834 832
f 848 846 849 850
f 848 850 851 840
f 848 840 838 837
f 851 850 317 316
f 851 316 318 852
f 851 852 841 840
f 852 318 314 853
f 852 853 842 841
f 853 314 313 854
f 853 854 844 842
f 854 313 312 849
f 854 849 846 844
f 850 849 312 317
f 778 776 770 768
f 763 762 352 354
f 491 377 373 372
f 491 372 347 346
f 491 489 488 377
f 488 382 378 377
f 488 486 485 382
f 485 387 383 382
f 485 483 482 387
f 482 392 388 387
f 482 480 479 392
f 479 397 393 392
f 479 477 476 397
f 476 402 398 397
f 476 474 473 402
f 473 407 403 402
f 473 471 470 407
f 470 412 408 407
f 470 468 467 412
f 467 417 413 412
f 467 465 464 417
f 464 422 418 417
f 464 462 461 422
f 461 427 423 422
f 461 459 458 427
f 458 432 428 427
f 458 456 455 432
f 455 437 433 432
f 455 453 452 437
f 452 440 438 437
f 452 450 442 440
f 436 435 327 328
f 372 368 351 347
f 364 332 344 351
f 864 863 871 872
f 870 864 872 873
f 863 865 874 871
f 865 866 875 874
f 866 867 876 875
f 869 870 873 877
f 867 868 878 876
f 868 869 877 878
f 872 871 856 855
f 873 872 855 862
f 871 874 857 856
f 874 875 858 857
f 875 876 859 858
f 877 873 862 861
f 876 878 860 859
f 878 877 861 860
f 609 608 879 880
f 609 880 881 610
f 610 881 882 611
f 611 882 883 612
f 612 883 884 613
f 613 884 885 614
f 614 885 886 607
f 886 879 608 607
f 887 888 863 864
f 888 889 865 863
f 889 890 866 865
f 891 887 864 870
f 890 892 867 866
f 892 893 868 867
f 893 894 869 868
f 894 891 870 869
f 892 890 880 879
f 890 889 881 880
f 889 888 882 881
f 888 887 883 882
f 887 891 884 883
f 891 894 885 884
f 894 893 886 885
f 879 886 893 892
f 855 856 895 896
f 897 895 856 857
f 898 897 857 858
f 899 898 858 859
f 900 899 859 860
f 901 900 860 861
f 902 901 861 862
f 896 902 862 855
f 616 617 903 904
f 905 615 616 904
f 906 903 617 621
f 907 629 615 905
f 908 627 629 907
f 909 625 627 908
f 906 621 623 910
f 910 623 625 909
f 905 904 896 895
f 907 905 895 897
f 908 907 897 898
f 909 908 898 899
f 910 909 899 900
f 906 910 900 901
f 902 896 904 903
f 901 902 903 906
g Group62100
f 918 941 944 943
f 941 915 942 944
f 944 942 928 940
f 943 944 940 925
f 916 945 948 947
f 945 917 946 948
f 948 946 926 939
f 947 948 939 927
f 973 988 983 935
f 988 981 938 983
f 987 923 981 988
f 921 987 988 973
f 978 986 984 937
f 986 970 934 984
f 914 951 954 953
f 951 919 952 954
f 954 952 932 950
f 953 954 950 929
f 920 955 958 957
f 955 913 956 958
f 958 956 930 949
f 957 958 949 931
f 985 922 970 986
f 924 985 986 978
f 919 961 962 952
f 961 918 943 962
f 962 943 925 960
f 952 962 960 932
f 917 963 964 946
f 963 920 957 964
f 964 957 931 959
f 946 964 959 926
f 981 982 975 938
f 982 953 929 975
f 980 914 953 982
f 923 980 982 981
f 922 969 971 970
f 969 911 968 971
f 971 968 933 966
f 970 971 966 934
f 912 972 974 967
f 972 921 973 974
f 974 973 935 965
f 967 974 965 936
f 956 979 976 930
f 979 978 937 976
f 977 924 978 979
f 913 977 979 956
f 924 989 990 985
f 989 991 992 990
f 991 993 994 992
f 993 923 987 994
f 928 995 996 940
f 995 997 998 996
f 997 999 1000 998
f 999 927 939 1000
f 940 996 1001 925
f 996 998 1002 1001
f 998 1000 1003 1002
f 1000 939 926 1003
f 985 990 1004 922
f 990 992 1005 1004
f 992 994 1006 1005
f 994 987 921 1006
f 915 1007 1008 942
f 1007 1009 1010 1008
f 1009 1011 1012 1010
f 1011 916 947 1012
f 942 1008 995 928
f 1008 1010 997 995
f 1010 1012 999 997
f 1012 947 927 999
f 918 1013 1014 941
f 1013 1015 1016 1014
f 1015 1017 1018 1016
f 1017 917 945 1018
f 941 1014 1007 915
f 1014 1016 1009 1007
f 1016 1018 1011 1009
f 1018 945 916 1011
f 932 1019 1020 950
f 1019 1021 1022 1020
f 1021 1023 1024 1022
f 1023 931 949 1024
f 950 1020 1025 929
f 1020 1022 1026 1025
f 1022 1024 1027 1026
f 1024 949 930 1027
f 914 1028 1029 951
f 1028 1030 1031 1029
f 1030 1032 1033 1031
f 1032 913 955 1033
f 951 1029 1034 919
f 1029 1031 1035 1034
f 1031 1033 1036 1035
f 1033 955 920 1036
f 984 1037 1038 937
f 1037 1039 1040 1038
f 1039 1041 1042 1040
f 1041 983 938 1042
f 925 1001 1043 960
f 1001 1002 1044 1043
f 1002 1003 1045 1044
f 1003 926 959 1045
f 960 1043 1019 932
f 1043 1044 1021 1019
f 1044 1045 1023 1021
f 1045 959 931 1023
f 934 1046 1037 984
f 1046 1047 1039 1037
f 1047 1048 1041 1039
f 1048 935 983 1041
f 980 1049 1028 914
f 1049 1050 1030 1028
f 1050 1051 1032 1030
f 1051 977 913 1032
f 923 993 1049 980
f 993 991 1050 1049
f 991 989 1051 1050
f 989 924 977 1051
f 919 1034 1052 961
f 1034 1035 1053 1052
f 1035 1036 1054 1053
f 1036 920 963 1054
f 961 1052 1013 918
f 1052 1053 1015 1013
f 1053 1054 1017 1015
f 1054 963 917 1017
f 935 1048 1055 965
f 1048 1047 1056 1055
f 1047 1046 1057 1056
f 1046 934 966 1057
f 965 1055 1058 936
f 1055 1056 1059 1058
f 1056 1057 1060 1059
f 1057 966 933 1060
f 911 1061 1062 968
f 1061 1063 1064 1062
f 1063 1065 1066 1064
f 1065 912 967 1066
f 968 1062 1060 933
f 1062 1064 1059 1060
f 1064 1066 1058 1059
f 1066 967 936 1058
f 912 1065 1067 972
f 1065 1063 1068 1067
f 1063 1061 1069 1068
f 1061 911 969 1069
f 972 1067 1006 921
f 1067 1068 1005 1006
f 1068 1069 1004 1005
f 1069 969 922 1004
f 929 1025 1070 975
f 1025 1026 1071 1070
f 1026 1027 1072 1071
f 1027 930 976 1072
f 975 1070 1042 938
f 1070 1071 1040 1042
f 1071 1072 1038 1040
f 1072 976 937 1038
g Group42329
f 1080 1103 1106 1105
f 1103 1077 1104 1106
f 1106 1104 1090 1102
f 1105 1106 1102 1087
f 1078 1107 1110 1109
f 1107 1079 1108 1110
f 1110 1108 1088 1101
f 1109 1110 1101 1089
f 1135 1150 1145 1097
f 1150 1143 1100 1145
f 1149 1085 1143 1150
f 1083 1149 1150 1135
f 1140 1148 1146 1099
f 1148 1132 1096 1146
f 1076 1113 1116 1115
f 1113 1081 1114 1116
f 1116 1114 1094 1112
f 1115 1116 1112 1091
f 1082 1117 1120 1119
f 1117 1075 1118 1120
f 1120 1118 1092 1111
f 1119 1120 1111 1093
f 1147 1084 1132 1148
f 1086 1147 1148 1140
f 1081 1123 1124 1114
f 1123 1080 1105 1124
f 1124 1105 1087 1122
f 1114 1124 1122 1094
f 1079 1125 1126 1108
f 1125 1082 1119 1126
f 1126 1119 1093 1121
f 1108 1126 1121 1088
f 1143 1144 1137 1100
f 1144 1115 1091 1137
f 1142 1076 1115 1144
f 1085 1142 1144 1143
f 1084 1131 1133 1132
f 1131 1073 1130 1133
f 1133 1130 1095 1128
f 1132 1133 1128 1096
f 1074 1134 1136 1129
f 1134 1083 1135 1136
f 1136 1135 1097 1127
f 1129 1136 1127 1098
f 1118 1141 1138 1092
f 1141 1140 1099 1138
f 1139 1086 1140 1141
f 1075 1139 1141 1118
f 1086 1151 1152 1147
f 1151 1153 1154 1152
f 1153 1155 1156 1154
f 1155 1085 1149 1156
f 1090 1157 1158 1102
f 1157 1159 1160 1158
f 1159 1161 1162 1160
f 1161 1089 1101 1162
f 1102 1158 1163 1087
f 1158 1160 1164 1163
f 1160 1162 1165 1164
f 1162 1101 1088 1165
f 1147 1152 1166 1084
f 1152 1154 1167 1166
f 1154 1156 1168 1167
f 1156 1149 1083 1168
f 1077 1169 1170 1104
f 1169 1171 1172 1170
f 1171 1173 1174 1172
f 1173 1078 1109 1174
f 1104 1170 1157 1090
f 1170 1172 1159 1157
f 1172 1174 1161 1159
f 1174 1109 1089 1161
f 1080 1175 1176 1103
f 1175 1177 1178 1176
f 1177 1179 1180 1178
f 1179 1079 1107 1180
f 1103 1176 1169 1077
f 1176 1178 1171 1169
f 1178 1180 1173 1171
f 1180 1107 1078 1173
f 1094 1181 1182 1112
f 1181 1183 1184 1182
f 1183 1185 1186 1184
f 1185 1093 1111 1186
f 1112 1182 1187 1091
f 1182 1184 1188 1187
f 1184 1186 1189 1188
f 1186 1111 1092 1189
f 1076 1190 1191 1113
f 1190 1192 1193 1191
f 1192 1194 1195 1193
f 1194 1075 1117 1195
f 1113 1191 1196 1081
f 1191 1193 1197 1196
f 1193 1195 1198 1197
f 1195 1117 1082 1198
f 1146 1199 1200 1099
f 1199 1201 1202 1200
f 1201 1203 1204 1202
f 1203 1145 1100 1204
f 1087 1163 1205 1122
f 1163 1164 1206 1205
f 1164 1165 1207 1206
f 1165 1088 1121 1207
f 1122 1205 1181 1094
f 1205 1206 1183 1181
f 1206 1207 1185 1183
f 1207 1121 1093 1185
f 1096 1208 1199 1146
f 1208 1209 1201 1199
f 1209 1210 1203 1201
f 1210 1097 1145 1203
f 1142 1211 1190 1076
f 1211 1212 1192 1190
f 1212 1213 1194 1192
f 1213 1139 1075 1194
f 1085 1155 1211 1142
f 1155 1153 1212 1211
f 1153 1151 1213 1212
f 1151 1086 1139 1213
f 1081 1196 1214 1123
f 1196 1197 1215 1214
f 1197 1198 1216 1215
f 1198 1082 1125 1216
f 1123 1214 1175 1080
f 1214 1215 1177 1175
f 1215 1216 1179 1177
f 1216 1125 1079 1179
f 1097 1210 1217 1127
f 1210 1209 1218 1217
f 1209 1208 1219 1218
f 1208 1096 1128 1219
f 1127 1217 1220 1098
f 1217 1218 1221 1220
f 1218 1219 1222 1221
f 1219 1128 1095 1222
f 1073 1223 1224 1130
f 1223 1225 1226 1224
f 1225 1227 1228 1226
f 1227 1074 1129 1228
f 1130 1224 1222 1095
f 1224 1226 1221 1222
f 1226 1228 1220 1221
f 1228 1129 1098 1220
f 1074 1227 1229 1134
f 1227 1225 1230 1229
f 1225 1223 1231 1230
f 1223 1073 1131 1231
f 1134 1229 1168 1083
f 1229 1230 1167 1168
f 1230 1231 1166 1167
f 1231 1131 1084 1166
f 1091 1187 1232 1137
f 1187 1188 1233 1232
f 1188 1189 1234 1233
f 1189 1092 1138 1234
f 1137 1232 1204 1100
f 1232 1233 1202 1204
f 1233 1234 1200 1202
f 1234 1138 1099 1200
g Group22106
f 1242 1265 1268 1267
f 1265 1239 1266 1268
f 1268 1266 1252 1264
f 1267 1268 1264 1249
f 1240 1269 1272 1271
f 1269 1241 1270 1272
f 1272 1270 1250 1263
f 1271 1272 1263 1251
f 1297 1312 1307 1259
f 1312 1305 1262 1307
f 1311 1247 1305 1312
f 1245 1311 1312 1297
f 1302 1310 1308 1261
f 1310 1294 1258 1308
f 1238 1275 1278 1277
f 1275 1243 1276 1278
f 1278 1276 1256 1274
f 1277 1278 1274 1253
f 1244 1279 1282 1281
f 1279 1237 1280 1282
f 1282 1280 1254 1273
f 1281 1282 1273 1255
f 1309 1246 1294 1310
f 1248 1309 1310 1302
f 1243 1285 1286 1276
f 1285 1242 1267 1286
f 1286 1267 1249 1284
f 1276 1286 1284 1256
f 1241 1287 1288 1270
f 1287 1244 1281 1288
f 1288 1281 1255 1283
f 1270 1288 1283 1250
f 1305 1306 1299 1262
f 1306 1277 1253 1299
f 1304 1238 1277 1306
f 1247 1304 1306 1305
f 1246 1293 1295 1294
f 1293 1235 1292 1295
f 1295 1292 1257 1290
f 1294 1295 1290 1258
f 1236 1296 1298 1291
f 1296 1245 1297 1298
f 1298 1297 1259 1289
f 1291 1298 1289 1260
f 1280 1303 1300 1254
f 1303 1302 1261 1300
f 1301 1248 1302 1303
f 1237 1301 1303 1280
f 1248 1313 1314 1309
f 1313 1315 1316 1314
f 1315 1317 1318 1316
f 1317 1247 1311 1318
f 1320 1322 1323 1321
f 1322 1251 1263 1323
f 1321 1323 1325 1324
f 1323 1263 1250 1325
f 1309 1314 1326 1246
f 1314 1316 1327 1326
f 1239 1328 1329 1266
f 1328 1330 1331 1329
f 1330 1332 1333 1331
f 1332 1240 1271 1333
f 1266 1329 1319 1252
f 1329 1331 1320 1319
f 1331 1333 1322 1320
f 1333 1271 1251 1322
f 1334 1336 1337 1335
f 1336 1241 1269 1337
f 1335 1337 1332 1330
f 1337 1269 1240 1332
f 1256 1338 1339 1274
f 1338 1340 1341 1339
f 1340 1342 1343 1341
f 1342 1255 1273 1343
f 1274 1339 1344 1253
f 1339 1341 1345 1344
f 1341 1343 1346 1345
f 1343 1273 1254 1346
f 1238 1347 1348 1275
f 1347 1349 1350 1348
f 1349 1351 1352 1350
f 1351 1237 1279 1352
f 1275 1348 1353 1243
f 1348 1350 1354 1353
f 1350 1352 1355 1354
f 1352 1279 1244 1355
f 1308 1356 1357 1261
f 1356 1358 1359 1357
f 1358 1360 1361 1359
f 1360 1307 1262 1361
f 1324 1325 1364 1363
f 1325 1250 1283 1364
f 1284 1362 1338 1256
f 1362 1363 1340 1338
f 1363 1364 1342 1340
f 1364 1283 1255 1342
f 1258 1365 1356 1308
f 1365 1366 1358 1356
f 1304 1367 1347 1238
f 1367 1368 1349 1347
f 1368 1369 1351 1349
f 1369 1301 1237 1351
f 1247 1317 1367 1304
f 1317 1315 1368 1367
f 1315 1313 1369 1368
f 1313 1248 1301 1369
f 1243 1353 1370 1285
f 1353 1354 1371 1370
f 1354 1355 1372 1371
f 1355 1244 1287 1372
f 1371 1372 1336 1334
f 1372 1287 1241 1336
f 1366 1365 1374 1373
f 1365 1258 1290 1374
f 1373 1374 1377 1376
f 1374 1290 1257 1377
f 1235 1378 1379 1292
f 1378 1380 1381 1379
f 1380 1382 1383 1381
f 1382 1236 1291 1383
f 1292 1379 1377 1257
f 1379 1381 1376 1377
f 1381 1383 1375 1376
f 1383 1291 1260 1375
f 1380 1378 1385 1384
f 1378 1235 1293 1385
f 1384 1385 1326 1327
f 1385 1293 1246 1326
f 1253 1344 1386 1299
f 1344 1345 1387 1386
f 1345 1346 1388 1387
f 1346 1254 1300 1388
f 1299 1386 1361 1262
f 1386 1387 1359 1361
f 1387 1388 1357 1359
f 1388 1300 1261 1357
f 1319 1389 1391 1252
f 1391 1390 1264 1252
f 1321 1392 1393 1320
f 1393 1389 1319 1320
f 1264 1390 1395 1249
f 1396 1392 1321 1324
f 1249 1397 1399 1284
f 1399 1398 1362 1284
f 1362 1398 1401 1363
f 1401 1400 1324 1363
f 1394 1402 1403 1395
f 1403 1397 1249 1395
f 1324 1400 1404 1396
f 1404 1402 1394 1396
f 1366 1405 1407 1358
f 1407 1406 1360 1358
f 1360 1406 1409 1307
f 1409 1408 1259 1307
f 1259 1408 1411 1289
f 1412 1405 1366 1373
f 1289 1413 1415 1260
f 1415 1414 1375 1260
f 1375 1414 1417 1376
f 1417 1416 1373 1376
f 1410 1418 1419 1411
f 1419 1413 1289 1411
f 1373 1416 1420 1412
f 1420 1418 1410 1412
f 1423 1422 1265 1242
f 1335 1424 1425 1334
f 1265 1422 1427 1239
f 1427 1426 1328 1239
f 1328 1426 1428 1330
f 1428 1424 1335 1330
f 1370 1429 1431 1285
f 1431 1430 1242 1285
f 1334 1432 1433 1371
f 1433 1429 1370 1371
f 1242 1430 1435 1423
f 1435 1434 1421 1423
f 1421 1434 1436 1425
f 1436 1432 1334 1425
f 1382 1437 1439 1236
f 1439 1438 1296 1236
f 1384 1440 1441 1380
f 1441 1437 1382 1380
f 1296 1438 1443 1245
f 1444 1440 1384 1327
f 1318 1445 1447 1316
f 1447 1446 1327 1316
f 1245 1448 1449 1311
f 1449 1445 1318 1311
f 1442 1450 1451 1443
f 1451 1448 1245 1443
f 1327 1446 1452 1444
f 1452 1450 1442 1444
g Group19983
f 1403 1402 1434 1435
f 1397 1403 1435 1430
f 1399 1397 1430 1431
f 1398 1399 1431 1429
f 1404 1400 1432 1436
f 1402 1404 1436 1434
f 1401 1398 1429 1433
f 1400 1401 1433 1432
f 1396 1394 1421 1425
f 1392 1396 1425 1424
f 1395 1390 1422 1423
f 1394 1395 1423 1421
f 1391 1389 1426 1427
f 1390 1391 1427 1422
f 1393 1392 1424 1428
f 1389 1393 1428 1426
f 1409 1406 1445 1449
f 1408 1409 1449 1448
f 1411 1408 1448 1451
f 1410 1411 1451 1450
f 1412 1410 1450 1452
f 1405 1412 1452 1446
f 1407 1405 1446 1447
f 1406 1407 1447 1445
f 1419 1418 1442 1443
f 1413 1419 1443 1438
f 1420 1416 1440 1444
f 1418 1420 1444 1442
f 1417 1414 1437 1441
f 1416 1417 1441 1440
f 1415 1413 1438 1439
f 1414 1415 1439 1437

 