# File exported by ZBrush version 2021
# www.zbrush.com
#Vertex Count 1632
#Face Count 1696
#Auto scale x=1.107008 y=1.107008 z=1.107008
#Auto offset x=-0.041076 y=-1.005336 z=-0.067486
v 0.13517374 2.16417426 -0.93784782
v -0.06192165 2.16358856 -0.93778677
v 0.14625714 0.57869645 -1.38590878
v -0.07324657 0.57850079 -1.38588412
v -0.62073034 2.08991858 -0.74142849
v -1.0582912 1.96178551 -0.26347315
v -1.25184679 1.70721903 0.34962189
v -1.05969101 1.3680301 0.96029451
v -0.60844783 1.00649762 1.37290774
v 0.03701893 0.85661428 1.53709454
v 0.6816225 0.98943114 1.37315058
v 1.13272941 1.35128968 0.96055533
v 1.32379896 1.69553908 0.35016366
v 1.13088927 1.96135832 -0.26324478
v 0.69329438 2.09045141 -0.74122437
v 0.7825706 0.7641095 -1.21768989
v 1.26178912 0.91346022 -0.77101507
v 1.43267604 0.81031128 -0.15594915
v 1.2774246 0.37896111 0.50337178
v 0.76370276 -0.05295397 0.96839116
v 0.04538236 -0.30025083 1.16119187
v -0.67785075 -0.08390844 0.96373875
v -1.19665251 0.35041607 0.49996693
v -1.35814425 0.78884963 -0.15873805
v -1.18868826 0.91350137 -0.77015256
v -0.70971974 0.76398295 -1.2175905
v 1.44206594 1.56677868 0.27081169
v 1.22868438 1.82071665 -0.39388607
v 1.4946806 1.44549714 0.20064979
v 1.2767115 1.68018342 -0.49658843
v 1.51573495 1.32147157 0.11928
v 1.30600588 1.52696989 -0.59049354
v 1.51886506 1.18141649 0.02835485
v 1.31910428 1.35334406 -0.67128146
v 1.49875609 1.0133544 -0.06384618
v 1.31064198 1.15566431 -0.73234479
v -1.3715601 1.57575572 0.26995362
v -1.17900761 1.20170412 0.93709506
v -1.42345499 1.45043665 0.19962389
v -1.2477418 1.04625953 0.89843921
v -1.44319707 1.3198804 0.11788328
v -1.28323609 0.88993436 0.83420603
v -1.44557457 1.17227669 0.02618443
v -1.29131933 0.72529487 0.74499016
v -1.42498682 0.99784964 -0.06648906
v -1.26670854 0.54753579 0.63430671
v -0.6840771 0.79745612 1.38340154
v -0.72576652 0.61153931 1.36353529
v -0.74354894 0.4345779 1.31124928
v -0.74411181 0.26106118 1.22720149
v -0.72550835 0.08991738 1.11154967
v -0.68959493 1.88096572 -0.91936739
v -1.15704848 1.81999795 -0.39420746
v -0.7230565 1.66895586 -1.05119538
v -1.20501638 1.67923444 -0.49680127
v -0.740567 1.45100474 -1.15140772
v -1.23397865 1.52637207 -0.59053193
v -0.74857406 1.23063476 -1.21890976
v -1.24680525 1.35311913 -0.67120861
v -0.74309558 1.01099248 -1.24390434
v -1.23801548 1.15578239 -0.73200256
v 1.25314408 1.18947749 0.93760317
v 1.32375879 1.03993674 0.89935997
v 1.36120307 0.89245403 0.83572241
v 1.37049035 0.73727464 0.74743798
v 1.34655324 0.56793054 0.63732396
v 0.03933925 0.61628775 1.56459638
v 0.04143185 0.4008104 1.5545623
v 0.04320996 0.20391654 1.51056252
v 0.04430329 0.02497406 1.43139668
v 0.04472125 -0.13863418 1.31444465
v 0.76138073 1.88260082 -0.91927672
v 0.7948985 1.67087983 -1.05126312
v 0.81272932 1.45231711 -1.15148956
v 0.82088956 1.23154395 -1.21889921
v 0.81554494 1.01124052 -1.24385739
v 0.75944583 0.78419385 1.38382776
v 0.80411078 0.60429526 1.36438267
v 0.82518591 0.43714142 1.31286188
v 0.82806404 0.27429198 1.23008048
v 0.81039184 0.11258982 1.11537349
v -0.06610622 1.91317386 -1.12137709
v -0.0741602 1.64241727 -1.26266078
v -0.07557792 1.37162267 -1.36338064
v -0.07555168 1.10016928 -1.42237505
v -0.07410509 0.82922264 -1.42840202
v 0.13377848 1.91877688 -1.12021655
v 0.13664132 1.64681474 -1.26254922
v 0.14223254 1.37153076 -1.36454128
v 0.14721729 1.10571504 -1.42143495
v 0.14953556 0.83005972 -1.42845048
v 1.13878417 2.03475758 -0.26414692
v 1.23519777 1.89268357 -0.39654269
v 1.46097163 1.62460357 0.30520101
v 1.33921842 1.75437175 0.38722228
v 1.32319872 1.72507753 -0.52112842
v 1.55273502 1.48498175 0.21630361
v 1.36694672 1.55262179 -0.62782426
v 1.58691641 1.34825094 0.12377569
v 1.3884918 1.35905936 -0.71917031
v 1.59847436 1.19318461 0.02039139
v 1.37741747 1.13497448 -0.78447341
v 1.57669463 1.00646146 -0.08328613
v 1.32891491 0.88757207 -0.81611836
v 1.51170092 0.79503551 -0.16988141
v -1.08187768 1.40636354 1.02258105
v -1.20662015 1.23779516 0.99816614
v -1.38971156 1.63441248 0.30482115
v -1.26588108 1.76677245 0.3871336
v -1.30477352 1.0646371 0.94782592
v -1.48137749 1.4903773 0.2154244
v -1.35096665 0.89426813 0.87556986
v -1.51431349 1.34660329 0.12235901
v -1.36544353 0.71325382 0.77522087
v -1.52527012 1.18339783 0.01805184
v -1.33942022 0.51746936 0.65093516
v -1.50309293 0.98993602 -0.08621939
v -1.26811751 0.31277704 0.51900761
v -1.43691424 0.77265541 -0.17269509
v -0.62209844 1.02700716 1.44963052
v -0.70707088 0.81046733 1.45685668
v -0.7618216 0.60703041 1.43182193
v -0.78475297 0.41566467 1.37325492
v -0.78855649 0.22576061 1.27928343
v -0.76885086 0.03872186 1.14928653
v -0.72077323 -0.13900936 0.99963487
v -1.06543692 2.03534554 -0.26414406
v -1.16310474 1.89185428 -0.39662485
v -0.69104972 1.94875754 -0.96202378
v -0.620065 2.16186354 -0.7777692
v -1.25140948 1.72411735 -0.52128397
v -0.75012361 1.70643492 -1.11283037
v -1.29483087 1.55205929 -0.62786077
v -0.77606254 1.47181658 -1.22544329
v -1.31621764 1.35888631 -0.71913386
v -0.78984264 1.23386211 -1.300561
v -1.30485192 1.13513482 -0.78419881
v -0.78137658 0.97622051 -1.32312608
v -1.25559717 0.88749999 -0.81516545
v -0.74737842 0.73904128 -1.28947752
v 1.28120223 1.22487057 0.99839368
v 1.15552731 1.38926331 1.02261487
v 1.38088464 1.05794805 0.94868935
v 1.42910732 0.89693421 0.87712151
v 1.44487159 0.72607288 0.77780895
v 1.41995379 0.53923078 0.65419105
v 1.34992963 0.34240169 0.52243326
v 0.03681353 0.86290237 1.61367754
v 0.03930442 0.61459091 1.64086127
v 0.04145834 0.38145738 1.62896723
v 0.04334291 0.16846979 1.58002198
v 0.04467066 -0.02755772 1.49250443
v 0.04577039 -0.20942151 1.3634164
v 0.04628546 -0.3755865 1.20710846
v 0.69321329 2.16200891 -0.77773409
v 0.76310166 1.95019989 -0.96219704
v 0.82196917 1.70826052 -1.11306803
v 0.84820101 1.47316799 -1.22558296
v 0.86210543 1.23485848 -1.30053462
v 0.85378954 0.97647877 -1.32304305
v 0.82042339 0.73916062 -1.28957368
v 0.69558352 1.00935755 1.44967133
v 0.78263812 0.79621773 1.45707819
v 0.8401813 0.59922314 1.43261956
v 0.86643764 0.4183698 1.37489703
v 0.8728013 0.24002132 1.28231921
v 0.85486451 0.06289894 1.15337645
v 0.80744323 -0.10685731 1.0044171
v -0.07318658 1.9695893 -1.17956665
v -0.05439542 2.23088148 -0.98400843
v -0.09144765 1.67597365 -1.33468165
v -0.09684842 1.38505246 -1.44466779
v -0.09899037 1.09377665 -1.50772714
v -0.09607152 0.80220311 -1.51089408
v -0.09063527 0.54441731 -1.45430882
v 0.12762719 2.23130091 -0.98401133
v 0.14085749 1.975101 -1.17852651
v 0.15379965 1.68024707 -1.33466927
v 0.16335291 1.38509091 -1.4458476
v 0.1705671 1.09960441 -1.50679393
v 0.17152768 0.80319373 -1.51099282
v 0.16366729 0.54449727 -1.45427403
v 1.39054332 1.69314839 0.35266784
v 1.17287639 1.97624743 -0.32375888
v -1.31856132 1.70500145 0.35257014
v -1.13804275 1.3245074 1.01451526
v -0.66323812 0.92051602 1.45477231
v -0.64531975 2.07397781 -0.86665624
v -1.10037266 1.97575993 -0.32379052
v 1.21168311 1.30855583 1.01455241
v 0.03780875 0.74050231 1.62621478
v 0.71780405 2.07490951 -0.86677696
v 0.73743356 0.90328982 1.45478405
v 1.54273863 0.90443564 -0.13712817
v 1.35176234 1.00527313 -0.80774921
v -1.46900393 0.88394963 -0.14030834
v -1.30294006 0.41162596 0.57871269
v -0.74481328 -0.0510461 1.06942331
v -0.76303753 0.84523255 -1.31311159
v -1.27909535 1.00545681 -0.80722042
v 1.38439682 0.43879876 0.58237736
v 0.04658891 -0.29814676 1.28449673
v 0.83556884 0.84536837 -1.31302211
v 0.83160599 -0.02132388 1.07417786
v 1.28702514 2.33047817 -0.32361814
v 1.53065528 2.00599269 0.51328377
v -1.28132122 1.55889714 1.29489597
v -1.45663306 2.01883791 0.51357452
v -0.74972942 1.07567276 1.80991795
v -1.2134721 2.33085324 -0.32348324
v -0.703806 2.44695293 -1.00317504
v 1.35522918 1.541899 1.29477601
v 0.03683247 0.85771495 1.99777899
v 0.77720417 2.44703402 -1.00316718
v 0.82354537 1.05758763 1.80979336
v -0.12152444 2.49424165 -1.26874407
v 0.1947155 2.49470933 -1.26852288
v 1.68498256 0.87586956 -1.021377
v 1.93495542 0.78115358 -0.20123147
v -1.65739403 0.19837071 0.640755
v -1.86038023 0.75850543 -0.20414158
v -0.95963999 -0.37110256 1.19993312
v -1.61177294 0.8758342 -1.02045165
v -0.96022742 0.67641868 -1.64745401
v 1.73988824 0.2283272 0.64425248
v 0.04723874 -0.67839607 1.43475056
v 1.0332712 0.67626321 -1.64737357
v 1.04682199 -0.33854012 1.20481636
v -0.20724119 0.46093875 -1.85871976
v 0.28034041 0.4605244 -1.85847854
v 1.27650141 0.98350726 -0.75926114
v 1.45128914 0.86507115 -0.13071856
v -1.2156255 0.40477217 0.53552789
v -1.37716473 0.84557547 -0.13356748
v -0.69114954 -0.03577137 1.00096501
v -1.20366513 0.98360316 -0.75865874
v -0.72212781 0.84376922 -1.22524579
v 1.29579767 0.43048901 0.53892113
v 0.04486719 -0.25286875 1.19860018
v 0.79474371 0.84398008 -1.22523664
v 0.776319 -0.00765551 1.00541859
v -0.07370328 0.63833768 -1.39123181
v -0.08994946 0.5958698 -1.46373695
v 0.14733817 0.63892134 -1.39120435
v 0.16360356 0.59636133 -1.46368127
v 1.95004331 0.84009649 -0.18748626
v 1.6960542 0.93781548 -1.02321111
v -1.87583297 0.81783455 -0.19060764
v -1.6739526 0.24819501 0.66974172
v -0.97112805 -0.33074204 1.23635255
v -0.96733858 0.73131611 -1.66552772
v -1.62307847 0.93790256 -1.02244675
v 1.75633578 0.2778762 0.67341969
v 0.04740471 -0.64392403 1.47481753
v 1.04017883 0.73111174 -1.66539462
v 1.0584425 -0.29847574 1.24129674
v -0.20463306 0.51740588 -1.88012473
v 0.27839549 0.51712606 -1.87991647
v 1.16915153 1.91604348 -0.302269
v 1.36874852 1.65630269 0.32153133
v -1.09988021 1.32108885 0.9482676
v -1.29796658 1.66717048 0.32069302
v -0.63291852 0.94882393 1.37210871
v -1.09725245 1.91589725 -0.30265368
v -0.6493772 2.02121196 -0.78853091
v 1.17285787 1.30560271 0.94870022
v 0.03778859 0.79263714 1.54317859
v 0.72136949 2.02240512 -0.78832184
v 0.70655414 0.93276046 1.37245428
v -0.05934621 2.0913563 -0.97883023
v -0.04892278 2.17041521 -1.02750832
v 0.13113511 2.09358497 -0.9786504
v 0.12071208 2.17246598 -1.02725451
v 1.56815567 1.97553487 0.49397762
v 1.31514768 2.30238933 -0.35808123
v -1.4946176 1.98828587 0.49425707
v -1.31807394 1.51834978 1.28939655
v -0.77437101 1.02197927 1.81121891
v -0.72151642 2.41032804 -1.05332757
v -1.24187484 2.30240355 -0.3579694
v 1.39184019 1.50147968 1.28928197
v 0.03702297 0.79717556 2.00204982
v 0.79471614 2.4106512 -1.05334609
v 0.8482254 1.00379042 1.81109238
v -0.12179803 2.45491298 -1.32380977
v 0.19376083 2.45642403 -1.32316926
v -1.32175562 1.32020063 -0.71673742
v -1.32190164 1.32477061 -0.71513914
v -1.32094625 1.32498168 -0.71674259
v -1.32011491 1.32446209 -0.71834905
v -1.31953211 1.32329472 -0.71970406
v -1.31928939 1.32165455 -0.72061218
v -1.31942034 1.31979955 -0.72092759
v -1.31990945 1.31799673 -0.72060539
v -1.32067466 1.31653893 -0.71970309
v -1.32160356 1.31563495 -0.71833429
v -1.32255874 1.31542184 -0.71672902
v -1.32338555 1.31593761 -0.71512439
v -1.32396447 1.31710869 -0.71375882
v -1.32420569 1.31874073 -0.7128562
v -1.32408013 1.32060278 -0.71253895
v -1.32359339 1.32240055 -0.71286406
v -1.32282946 1.32385894 -0.71377713
v -1.32220208 1.33390605 -0.71194076
v -1.31932966 1.33453348 -0.71675432
v -1.31681799 1.33297478 -0.72155637
v -1.3150569 1.32947186 -0.72562335
v -1.31431925 1.32456445 -0.72834361
v -1.31472027 1.31898577 -0.72930438
v -1.31620332 1.31359613 -0.72834005
v -1.3185147 1.30920631 -0.72561915
v -1.32130592 1.3064909 -0.72154065
v -1.32415206 1.30586191 -0.71671276
v -1.32662626 1.30741625 -0.71188067
v -1.3283516 1.31090624 -0.70779474
v -1.32907655 1.31582179 -0.70507835
v -1.32869749 1.32140294 -0.70412996
v -1.32726182 1.32679748 -0.70510808
v -1.32497931 1.33118735 -0.7078531
v -1.32249456 1.34304725 -0.70874054
v -1.31769844 1.34408454 -0.71675917
v -1.31349502 1.3414921 -0.72475217
v -1.31053839 1.33564846 -0.73152153
v -1.30930129 1.32745862 -0.73605501
v -1.30998596 1.3181659 -0.73765048
v -1.31246575 1.30918354 -0.73606545
v -1.31634784 1.30187617 -0.73153908
v -1.32101452 1.29735449 -0.72473235
v -1.32574258 1.29630181 -0.71668993
v -1.32983487 1.29888288 -0.70863619
v -1.33269049 1.30470864 -0.70180685
v -1.33389808 1.31289644 -0.69726616
v -1.33327372 1.32219573 -0.69569674
v -1.33091001 1.3311943 -0.69733799
v -1.3271257 1.33851631 -0.70192531
v -1.33654651 1.32880561 -0.72337314
v -1.33751956 1.32858991 -0.7217572
v -1.33737268 1.32401869 -0.72335333
v -1.33569515 1.32829092 -0.72499048
v -1.33510223 1.32712888 -0.72635464
v -1.3348552 1.32549184 -0.72726233
v -1.33499088 1.32363382 -0.72757634
v -1.33549528 1.32182777 -0.72725145
v -1.33627924 1.32036092 -0.7263232
v -1.33722881 1.31944817 -0.72495279
v -1.33820143 1.31923738 -0.72332834
v -1.33904074 1.31974862 -0.72171337
v -1.33963344 1.32090694 -0.72034738
v -1.33987832 1.32254469 -0.71943398
v -1.33974522 1.32440695 -0.71912686
v -1.33924599 1.32621107 -0.71945595
v -1.33846936 1.32767916 -0.72038098
v -1.33488061 1.33837465 -0.72341718
v -1.33781053 1.33773343 -0.71856743
v -1.33232328 1.33683226 -0.72824927
v -1.33052772 1.33333941 -0.73234221
v -1.32978835 1.32843038 -0.73505633
v -1.33020359 1.32285127 -0.73600407
v -1.33171658 1.31744241 -0.7350293
v -1.33408395 1.31303767 -0.73226704
v -1.33694 1.31031257 -0.72814083
v -1.33984494 1.3096601 -0.72327504
v -1.34236522 1.31120039 -0.71842249
v -1.34412223 1.31468764 -0.71431265
v -1.34485385 1.3195971 -0.7115869
v -1.34445929 1.32517853 -0.71065197
v -1.34298248 1.33058733 -0.71165507
v -1.34065517 1.33499599 -0.71443347
v -1.33809525 1.34687129 -0.7153768
v -1.3428343 1.34231046 -0.70848576
v -1.34669657 1.33496207 -0.7038405
v -1.34912769 1.32594536 -0.70215802
v -1.34977467 1.3166367 -0.70371096
v -1.34855652 1.30845461 -0.7082608
v -1.34565309 1.30264085 -0.71511566
v -1.34147983 1.30008875 -0.72322604
v -1.33664752 1.30116938 -0.7313292
v -1.33188672 1.30572111 -0.73820399
v -1.32791957 1.31305388 -0.74278926
v -1.32537688 1.3220608 -0.74440951
v -1.32466292 1.33135717 -0.74283686
v -1.32590605 1.339546 -0.73830791
v -1.32891415 1.3453646 -0.73150247
v -1.33320631 1.34794358 -0.72345326
v -1.34401691 1.34630292 -0.70523913
v -1.33825635 1.35185813 -0.71362992
v -1.33075236 1.35413202 -0.70891725
v -1.33730915 1.34776417 -0.69931263
v -1.34871741 1.33734678 -0.6995743
v -1.34262905 1.33749027 -0.6928394
v -1.35166004 1.3263614 -0.69751405
v -1.34595828 1.32487399 -0.69049798
v -1.35244141 1.31501598 -0.69939964
v -1.34682407 1.3118499 -0.69267001
v -1.35095922 1.30505189 -0.70494859
v -1.34513814 1.30039248 -0.69904513
v -1.34743293 1.29797395 -0.71330955
v -1.3411376 1.29224791 -0.70863695
v -1.34237125 1.29486129 -0.72319147
v -1.33538566 1.28865696 -0.71995658
v -1.33649289 1.29618071 -0.73307501
v -1.32870481 1.29015702 -0.73127762
v -1.33068559 1.30172805 -0.7414392
v -1.32210043 1.29651012 -0.74084757
v -1.32583369 1.31065851 -0.74702671
v -1.31657785 1.30675441 -0.74721968
v -1.3227207 1.32162289 -0.74899241
v -1.31302335 1.31933322 -0.74945331
v -1.32185081 1.3329519 -0.74706655
v -1.31203178 1.33234869 -0.74721807
v -1.32337091 1.3429268 -0.7415456
v -1.31377392 1.34381344 -0.7408802
v -1.32705076 1.35002773 -0.73326647
v -1.31797174 1.35198304 -0.73139511
v -1.33228839 1.35316452 -0.72346758
v -1.32395478 1.35561023 -0.72018079
v -1.32275839 1.35123796 -0.70587426
v -1.32905092 1.34508456 -0.69660594
v -1.33415524 1.33513443 -0.69036208
v -1.33734468 1.32290215 -0.68811726
v -1.33817279 1.31026196 -0.69024169
v -1.33654264 1.29914493 -0.69642222
v -1.33268834 1.2912327 -0.70570444
v -1.32715801 1.28772919 -0.71666118
v -1.32074552 1.28916093 -0.72760111
v -1.31440087 1.29530415 -0.73684004
v -1.30910595 1.30523 -0.742986
v -1.30570501 1.31742863 -0.74511819
v -1.30476642 1.33005143 -0.74293765
v -1.30644567 1.34118256 -0.73679632
v -1.31048433 1.34912015 -0.72761296
v -1.31623067 1.3526557 -0.71676251
v -1.33221344 1.34654479 -0.69720909
v -1.32570554 1.35289003 -0.70678238
v -1.33749458 1.33628117 -0.69075471
v -1.34079451 1.32367604 -0.68843256
v -1.34165148 1.31065071 -0.69061471
v -1.33996985 1.29919371 -0.69697928
v -1.33599064 1.29104463 -0.70656464
v -1.3302738 1.28743838 -0.71786834
v -1.3236384 1.28892391 -0.72915276
v -1.31707644 1.2952621 -0.73869439
v -1.3115922 1.30549707 -0.74503635
v -1.30807302 1.31807308 -0.74724262
v -1.3070948 1.33107703 -0.74499973
v -1.30882855 1.34254888 -0.73866865
v -1.31301021 1.35072667 -0.72919982
v -1.31894975 1.35435951 -0.71801037
v -1.32418286 1.4700381 -0.65880576
v -1.32431984 1.47429347 -0.65731194
v -1.32342604 1.47449021 -0.6588078
v -1.32264984 1.47400288 -0.66029269
v -1.32210366 1.47291547 -0.66156112
v -1.3218773 1.47138579 -0.66240516
v -1.32200049 1.4696599 -0.6627013
v -1.32245493 1.46798043 -0.66240495
v -1.32317169 1.46661852 -0.66155821
v -1.32404287 1.46578223 -0.66029818
v -1.32493494 1.46559066 -0.6588063
v -1.32570834 1.4660725 -0.65730957
v -1.32625129 1.46716245 -0.65604609
v -1.3264742 1.4686848 -0.65520667
v -1.32635403 1.47042049 -0.65490881
v -1.3259011 1.47209151 -0.65520355
v -1.32518736 1.47344932 -0.65605535
v -1.32459034 1.48280309 -0.65433571
v -1.32191176 1.48338611 -0.6588063
v -1.31956463 1.48193084 -0.66326816
v -1.3179235 1.47866429 -0.66704934
v -1.31723345 1.47408208 -0.66958072
v -1.31761186 1.46889285 -0.67047074
v -1.31899411 1.46387425 -0.66958944
v -1.32115731 1.45979107 -0.66706506
v -1.32376784 1.45726739 -0.66327387
v -1.32643328 1.45668965 -0.65879811
v -1.32873927 1.45813545 -0.65432042
v -1.33034983 1.46139887 -0.6505191
v -1.33102889 1.46597704 -0.64798288
v -1.33067331 1.47117101 -0.64710265
v -1.32932982 1.47619623 -0.64799612
v -1.3271957 1.4802813 -0.65054408
v -1.32486408 1.49132122 -0.65135453
v -1.32038585 1.4922841 -0.65879703
v -1.31645875 1.48985233 -0.66622511
v -1.31370242 1.48440536 -0.67252033
v -1.31255298 1.47677634 -0.6767356
v -1.31319027 1.46811714 -0.67822856
v -1.31551198 1.45975968 -0.67676596
v -1.31913411 1.4529593 -0.67256804
v -1.32349324 1.44875976 -0.66625483
v -1.32792172 1.44778601 -0.65878594
v -1.3317463 1.45019608 -0.65131522
v -1.33441454 1.45563153 -0.64497014
v -1.33554245 1.46326093 -0.64074056
v -1.33495685 1.47192314 -0.63926838
v -1.33274283 1.48029891 -0.64078072
v -1.32920211 1.48711398 -0.64503109
v -1.33791219 1.47806798 -0.66501957
v -1.33881804 1.47787193 -0.6635181
v -1.338683 1.47361812 -0.66500589
v -1.33711531 1.47758721 -0.66652706
v -1.33656568 1.4765012 -0.66779044
v -1.33633631 1.47497766 -0.66863211
v -1.33646403 1.4732424 -0.66892652
v -1.33692901 1.47156756 -0.66862102
v -1.33766257 1.47020119 -0.66777202
v -1.33854797 1.4693523 -0.66649627
v -1.33945533 1.46915593 -0.66499211
v -1.34024036 1.46963616 -0.66349215
v -1.34079451 1.47072298 -0.66222037
v -1.34102604 1.47224604 -0.66137665
v -1.34089789 1.47398054 -0.66108159
v -1.34043463 1.47565791 -0.66138807
v -1.33970451 1.47702358 -0.66224374
v -1.33635225 1.48697647 -0.66504918
v -1.33908532 1.48638893 -0.66054338
v -1.33396872 1.48553719 -0.66953527
v -1.33229765 1.48227856 -0.67333648
v -1.33160415 1.47770287 -0.67587012
v -1.33199441 1.47250454 -0.67675423
v -1.33340596 1.46747172 -0.67585505
v -1.33561503 1.46337825 -0.67329599
v -1.33828069 1.46083686 -0.66947292
v -1.3409933 1.46024254 -0.66495829
v -1.34334409 1.46168263 -0.66045314
v -1.34498372 1.46493625 -0.65663341
v -1.34567011 1.46951097 -0.65409374
v -1.34530311 1.47471539 -0.65321857
v -1.34392107 1.47974314 -0.65414144
v -1.34174452 1.4838476 -0.65671546
v -1.3393526 1.4948985 -0.65756834
v -1.34377806 1.49066735 -0.65118514
v -1.34738619 1.483828 -0.64688448
v -1.34966505 1.475442 -0.64534101
v -1.35026744 1.46676557 -0.64679661
v -1.34913523 1.45914129 -0.65102748
v -1.34641874 1.45372414 -0.65739507
v -1.34252567 1.45133491 -0.66491856
v -1.33801384 1.45232433 -0.67244527
v -1.33356555 1.45655472 -0.67881275
v -1.32986222 1.46337825 -0.68306657
v -1.32749378 1.47175633 -0.68456039
v -1.32682849 1.48042334 -0.68308207
v -1.32798978 1.48804611 -0.67886509
v -1.33079435 1.49348173 -0.67253939
v -1.33478951 1.49588932 -0.66506975
v -1.34488572 1.49438581 -0.64816767
v -1.33949797 1.49954402 -0.65595154
v -1.33253478 1.50165779 -0.65154201
v -1.33865953 1.49574158 -0.64263411
v -1.34927134 1.48605651 -0.64292228
v -1.3436413 1.48618654 -0.63664181
v -1.35202854 1.47583118 -0.64103066
v -1.34675731 1.47444515 -0.63448066
v -1.35276102 1.46526723 -0.64280081
v -1.34757917 1.46230887 -0.63651883
v -1.35138393 1.45598469 -0.64795649
v -1.3460007 1.45163406 -0.64244964
v -1.34808788 1.44938165 -0.6557297
v -1.34226012 1.44403912 -0.65136207
v -1.34335572 1.44646276 -0.66489971
v -1.33687625 1.44068185 -0.66187729
v -1.33786459 1.44768042 -0.67406832
v -1.33063778 1.44205657 -0.67237549
v -1.33244712 1.45283207 -0.68182236
v -1.32446306 1.44795814 -0.6812554
v -1.32792797 1.46114317 -0.68699657
v -1.31931028 1.45749095 -0.6871567
v -1.32502324 1.47135025 -0.68881065
v -1.31600109 1.46920735 -0.6892135
v -1.3242087 1.48190069 -0.68700949
v -1.31507929 1.48133038 -0.68712138
v -1.32562521 1.49119539 -0.68186921
v -1.31669932 1.49200977 -0.6812261
v -1.32904919 1.49781103 -0.67417417
v -1.32061328 1.49963357 -0.67240715
v -1.33393319 1.50075469 -0.66507976
v -1.32619056 1.5030197 -0.66198885
v -1.32510918 1.49895649 -0.64868693
v -1.33099702 1.4932347 -0.64008249
v -1.3357828 1.48397768 -0.63430072
v -1.33876915 1.47259219 -0.63223874
v -1.33955095 1.46081898 -0.63422641
v -1.33803064 1.45045937 -0.63997459
v -1.3344279 1.44308007 -0.64859992
v -1.32924454 1.43979931 -0.65877787
v -1.32324664 1.44111997 -0.66892631
v -1.31731787 1.44682825 -0.67750383
v -1.31237271 1.45606647 -0.68319773
v -1.30920071 1.46742499 -0.68516785
v -1.30832027 1.47918517 -0.68312967
v -1.30988689 1.48955447 -0.67741046
v -1.31364965 1.49695703 -0.66887462
v -1.31901457 1.50026111 -0.65879057
v -1.33393254 1.49459973 -0.64065409
v -1.32784677 1.50049549 -0.64953033
v -1.33887878 1.48505163 -0.63468117
v -1.34196786 1.47331649 -0.63254123
v -1.3427824 1.46118652 -0.63458738
v -1.3412119 1.45051246 -0.6405114
v -1.3374864 1.44290982 -0.64940961
v -1.33213957 1.4395386 -0.65990792
v -1.3259362 1.44090821 -0.67038083
v -1.31980025 1.44679928 -0.67923434
v -1.31468473 1.45631754 -0.68511153
v -1.31140138 1.46802959 -0.68714582
v -1.31048261 1.48014158 -0.68505499
v -1.31210242 1.49082614 -0.67916445
v -1.31599506 1.49845085 -0.67036036
v -1.32153917 1.50185082 -0.65995811
v 1.37082019 1.28643967 -0.77511366
v 1.37107917 1.29108089 -0.77374561
v 1.37010171 1.29122659 -0.77532262
v 1.36922805 1.29063962 -0.7768698
v 1.36859787 1.28941464 -0.77814631
v 1.3683083 1.28773597 -0.77896236
v 1.36840134 1.28586511 -0.77918979
v 1.36886159 1.28407319 -0.77879868
v 1.36961572 1.28265262 -0.77785524
v 1.37055496 1.28180408 -0.77647804
v 1.37153619 1.28165798 -0.7749013
v 1.37239994 1.28224185 -0.77335681
v 1.37302646 1.28347028 -0.77207196
v 1.37331506 1.28514041 -0.77125812
v 1.37322923 1.2870162 -0.77102595
v 1.37276898 1.28880322 -0.77142046
v 1.37201766 1.29022516 -0.77237682
v 1.3716063 1.30035724 -0.7710105
v 1.36865451 1.30078558 -0.77574071
v 1.36602525 1.29902613 -0.78036545
v 1.36412158 1.29535236 -0.78419019
v 1.36324663 1.2903266 -0.78663704
v 1.36352747 1.28470377 -0.78734098
v 1.36492911 1.27935021 -0.78617086
v 1.36721346 1.27506829 -0.78332397
v 1.37003063 1.2725199 -0.77922188
v 1.37295323 1.27209023 -0.7744768
v 1.37553899 1.27384703 -0.76982288
v 1.37740304 1.27750905 -0.76597278
v 1.37826657 1.28254214 -0.76352933
v 1.37800985 1.28816731 -0.76284105
v 1.37665925 1.29352569 -0.76403029
v 1.37441012 1.29780553 -0.76689764
v 1.3721261 1.30963848 -0.76827182
v 1.36719817 1.31034517 -0.77615057
v 1.36279187 1.30741789 -0.78384743
v 1.35959736 1.30128931 -0.7902092
v 1.35812659 1.29290466 -0.79428867
v 1.3586143 1.28353689 -0.79545346
v 1.36096756 1.27461432 -0.79352873
v 1.36480248 1.26748695 -0.78879641
v 1.3695132 1.26324337 -0.78195178
v 1.37436478 1.26252308 -0.7740452
v 1.37864434 1.26543884 -0.76627931
v 1.38172545 1.27155517 -0.75985201
v 1.38316392 1.27993775 -0.75576075
v 1.3827461 1.28930902 -0.75462412
v 1.38052378 1.2982471 -0.75661734
v 1.37679795 1.30538618 -0.76141685
v 1.38574742 1.29461348 -0.78285451
v 1.38674664 1.29446433 -0.78126716
v 1.38648797 1.28982236 -0.78263316
v 1.38485491 1.29403135 -0.7844116
v 1.38421407 1.29281173 -0.78569489
v 1.38391998 1.29113565 -0.78651266
v 1.38401615 1.28926223 -0.78673999
v 1.38449234 1.28746934 -0.78634682
v 1.38527037 1.28603983 -0.78537921
v 1.38622942 1.28518104 -0.78399722
v 1.38722864 1.28503752 -0.78240357
v 1.3881108 1.28561709 -0.78084891
v 1.3887469 1.28683273 -0.77956422
v 1.38904261 1.28851042 -0.77874063
v 1.38894559 1.29038658 -0.7785202
v 1.3884751 1.29217794 -0.77891692
v 1.3877087 1.29360957 -0.77988523
v 1.38424993 1.30418873 -0.78330415
v 1.38726385 1.30374816 -0.77853834
v 1.38156995 1.30244618 -0.78795716
v 1.37962988 1.29877993 -0.79180521
v 1.37874998 1.29375414 -0.79424775
v 1.37904816 1.28813088 -0.79493888
v 1.38048286 1.28275676 -0.79375606
v 1.38282697 1.27846374 -0.7908719
v 1.38571328 1.27590614 -0.78672523
v 1.38869888 1.27545521 -0.78194569
v 1.39133826 1.27719641 -0.77726566
v 1.39323408 1.28085733 -0.77339617
v 1.39410644 1.28588471 -0.77094319
v 1.39383259 1.29150959 -0.77026816
v 1.39243698 1.29688291 -0.77148022
v 1.39013907 1.30117869 -0.7743829
v 1.3877759 1.3130272 -0.77581146
v 1.39256448 1.30874695 -0.76888526
v 1.39637722 1.30158311 -0.76402889
v 1.39866791 1.29262804 -0.7619983
v 1.39911233 1.28324783 -0.76311603
v 1.39766019 1.27486959 -0.76721225
v 1.39452534 1.26876788 -0.77366883
v 1.39015813 1.26587626 -0.78148496
v 1.38519251 1.26662312 -0.78945249
v 1.38038282 1.27089476 -0.79636034
v 1.37645454 1.27804544 -0.80115118
v 1.37403462 1.2869921 -0.80310762
v 1.37351223 1.29636144 -0.8019647
v 1.37499496 1.30474641 -0.79789055
v 1.37824331 1.31085176 -0.79149508
v 1.38274545 1.31376587 -0.78374604
v 1.39388019 1.31287698 -0.76588216
v 1.38805933 1.31808998 -0.774317
v 1.38063502 1.3206419 -0.76937259
v 1.38725427 1.31466678 -0.75971337
v 1.39851737 1.30414692 -0.75995959
v 1.39249427 1.30465157 -0.75294067
v 1.40129169 1.29323719 -0.75747215
v 1.39562255 1.29212227 -0.75010745
v 1.40182376 1.28180481 -0.75883002
v 1.39620061 1.27899652 -0.75167132
v 1.40005599 1.27160145 -0.76382762
v 1.39418817 1.26726447 -0.75741481
v 1.39624885 1.26416998 -0.7716985
v 1.38987265 1.2587146 -0.76644671
v 1.39095361 1.260647 -0.78123109
v 1.38385936 1.25465241 -0.77736704
v 1.38491716 1.26155832 -0.79094491
v 1.37700191 1.25568367 -0.78849645
v 1.37904644 1.26676338 -0.79935277
v 1.37032849 1.26164501 -0.79811346
v 1.37424138 1.2754716 -0.80518306
v 1.36486084 1.27163596 -0.80476814
v 1.3712743 1.28636532 -0.80756335
v 1.36147982 1.28413379 -0.80747806
v 1.37063928 1.29778405 -0.80616074
v 1.36075854 1.29725337 -0.80584296
v 1.37244851 1.30799659 -0.80119382
v 1.36283064 1.30899083 -0.80014141
v 1.37642493 1.31544449 -0.79341189
v 1.36736928 1.31756095 -0.79123017
v 1.38192036 1.31899183 -0.78398193
v 1.37364339 1.32165482 -0.78043475
v 1.37259356 1.31795524 -0.76582186
v 1.37893993 1.31218214 -0.75650061
v 1.38396575 1.3024807 -0.74996347
v 1.38695425 1.29033193 -0.74724106
v 1.38750291 1.27759321 -0.74877418
v 1.38555703 1.26621163 -0.75434371
v 1.38140175 1.25790618 -0.76308302
v 1.375619 1.253945 -0.77365247
v 1.36904089 1.25492389 -0.78440815
v 1.36263691 1.26069032 -0.79369764
v 1.35740197 1.27036917 -0.80011664
v 1.35417095 1.28249099 -0.80271403
v 1.35349652 1.29521501 -0.80111468
v 1.35549398 1.30661046 -0.79559027
v 1.35985796 1.31493497 -0.78695983
v 1.36588224 1.3189221 -0.77651708
v 1.3821381 1.31358617 -0.75731854
v 1.37557205 1.3195407 -0.76694545
v 1.38733912 1.30358087 -0.75056414
v 1.39043596 1.29106151 -0.74774761
v 1.39100142 1.27793576 -0.74932064
v 1.38899706 1.26620592 -0.75505804
v 1.38470318 1.25764986 -0.76408074
v 1.37872424 1.25357259 -0.77498357
v 1.37191869 1.2545909 -0.78607922
v 1.36529363 1.26053883 -0.79566894
v 1.35986938 1.27052087 -0.80229707
v 1.35652336 1.28301649 -0.80497899
v 1.35581414 1.29612781 -0.80333931
v 1.35788106 1.3078709 -0.79764207
v 1.36239602 1.31644602 -0.78874456
v 1.36862576 1.32054574 -0.77797542
v 1.37703615 1.43885598 -0.72464152
v 1.37728038 1.44317656 -0.7233649
v 1.37636128 1.44331219 -0.72483417
v 1.37554664 1.44276321 -0.72626327
v 1.37495544 1.44162184 -0.72745498
v 1.37468278 1.44005566 -0.72821454
v 1.37477281 1.43831572 -0.72843083
v 1.37520054 1.43664718 -0.72806895
v 1.37591288 1.43531984 -0.72718738
v 1.37679235 1.43453438 -0.72591889
v 1.37770714 1.43440332 -0.72445027
v 1.3785192 1.43494891 -0.7230132
v 1.37910556 1.43609216 -0.72182467
v 1.37937143 1.43765033 -0.7210671
v 1.37929002 1.43939872 -0.72084871
v 1.37886057 1.44106047 -0.7212093
v 1.37815404 1.44238291 -0.72209841
v 1.37776303 1.45181804 -0.7208205
v 1.37500541 1.45221546 -0.72520795
v 1.37254327 1.45057459 -0.72950602
v 1.37076688 1.44714845 -0.73305891
v 1.3699475 1.44245679 -0.73533706
v 1.37021736 1.43722631 -0.73598679
v 1.37152564 1.43223835 -0.73491305
v 1.37366795 1.42825854 -0.73227679
v 1.37630669 1.42588891 -0.72846357
v 1.3790431 1.42549537 -0.72406443
v 1.38146022 1.42712827 -0.7197516
v 1.38320226 1.43055301 -0.71617567
v 1.38401356 1.43523983 -0.71389273
v 1.38376815 1.44047493 -0.7132535
v 1.38250154 1.44546823 -0.71434199
v 1.3803952 1.44945137 -0.71700733
v 1.37824547 1.46046744 -0.71826866
v 1.37363747 1.46111991 -0.72557451
v 1.36951665 1.45838092 -0.7327288
v 1.36653504 1.45266769 -0.73864109
v 1.36516602 1.44485582 -0.74243287
v 1.3656224 1.43612867 -0.74352664
v 1.36782598 1.42782419 -0.74174681
v 1.37141408 1.4211925 -0.73736118
v 1.37582048 1.41725006 -0.73101497
v 1.38037076 1.41658472 -0.72367299
v 1.38437614 1.41930681 -0.71647396
v 1.38726019 1.42501175 -0.71050535
v 1.38860594 1.4328226 -0.70669607
v 1.38820794 1.44155341 -0.70562728
v 1.38612012 1.44987275 -0.70746505
v 1.38262786 1.45651752 -0.71191034
v 1.3908946 1.44648376 -0.73188879
v 1.39182877 1.44634813 -0.73041296
v 1.39158702 1.44202938 -0.7316864
v 1.39005863 1.44593941 -0.73333976
v 1.38946259 1.44480079 -0.73452882
v 1.3891896 1.44324052 -0.73528446
v 1.38928049 1.44149186 -0.735498
v 1.38972362 1.43982741 -0.73512912
v 1.39045082 1.43849518 -0.73424324
v 1.3913458 1.43769808 -0.73296102
v 1.39227965 1.4375652 -0.73148535
v 1.39310582 1.43810654 -0.73003939
v 1.39370143 1.43924731 -0.72884402
v 1.393977 1.4408072 -0.72808328
v 1.39388719 1.44255516 -0.72787016
v 1.39344848 1.44422138 -0.72823953
v 1.3927244 1.44555362 -0.7291351
v 1.38949037 1.45539952 -0.73229703
v 1.39230851 1.45499677 -0.72787216
v 1.38699098 1.45377271 -0.73661653
v 1.38518239 1.45035324 -0.74018514
v 1.384356 1.44566955 -0.74246787
v 1.38463599 1.44042916 -0.74310995
v 1.38598099 1.43542903 -0.74201882
v 1.38817165 1.43143808 -0.73934885
v 1.39086681 1.42905052 -0.73550521
v 1.39365965 1.42864465 -0.73107329
v 1.39612469 1.43027238 -0.72673117
v 1.39789774 1.43368651 -0.72313602
v 1.39871487 1.43837096 -0.72085129
v 1.39845663 1.44361603 -0.72021864
v 1.39715202 1.44861158 -0.72133642
v 1.39499539 1.4526119 -0.72402459
v 1.39278696 1.46363794 -0.72532662
v 1.39726175 1.45966631 -0.71891025
v 1.4008309 1.45299893 -0.7144177
v 1.4029843 1.44467022 -0.7125515
v 1.4033991 1.43592514 -0.71360241
v 1.40204646 1.42811903 -0.71740954
v 1.39911352 1.42243278 -0.72340324
v 1.39503372 1.41973013 -0.73065331
v 1.39038912 1.42040865 -0.73804865
v 1.38588849 1.42437915 -0.74444607
v 1.38221553 1.43103253 -0.74888585
v 1.37995757 1.43935677 -0.75069563
v 1.37947169 1.44809248 -0.7496165
v 1.38085416 1.45589929 -0.74582692
v 1.38388832 1.46159998 -0.73988179
v 1.38808334 1.46431927 -0.73269407
v 1.39849691 1.46351496 -0.71612377
v 1.39304379 1.4683548 -0.72394598
v 1.38615178 1.47072578 -0.71931548
v 1.39234254 1.46517537 -0.71036482
v 1.40283267 1.45539478 -0.71064093
v 1.3972625 1.45585859 -0.7040962
v 1.40543577 1.44523799 -0.7083525
v 1.40019953 1.44419855 -0.70147814
v 1.40593963 1.43459086 -0.70962997
v 1.40075433 1.43196649 -0.70294945
v 1.40429451 1.4250867 -0.7142734
v 1.39887058 1.42103684 -0.7082909
v 1.40073247 1.41815624 -0.72159034
v 1.39483171 1.41306597 -0.71668234
v 1.39577407 1.41485421 -0.73042782
v 1.38918885 1.40926783 -0.72681624
v 1.39012475 1.4156926 -0.73943543
v 1.38277733 1.4102103 -0.73713547
v 1.38464051 1.42052878 -0.7472263
v 1.37653272 1.41574881 -0.74605802
v 1.38015614 1.42863447 -0.75262897
v 1.37142323 1.42504546 -0.75221992
v 1.37738796 1.43877548 -0.7548269
v 1.36826921 1.43668815 -0.75471738
v 1.37679289 1.44940981 -0.75351129
v 1.36759747 1.44890874 -0.75318694
v 1.37847893 1.45892629 -0.74888898
v 1.3695258 1.45984189 -0.74788362
v 1.38218139 1.46586564 -0.74165845
v 1.37376422 1.4678378 -0.73960019
v 1.38731091 1.46918861 -0.73290826
v 1.37961782 1.47165748 -0.72957667
v 1.3786802 1.46821906 -0.71598765
v 1.38462608 1.46284935 -0.70733712
v 1.38934779 1.45382434 -0.70128883
v 1.39215721 1.44251424 -0.69877996
v 1.39268078 1.43064885 -0.70021929
v 1.39086509 1.42004177 -0.70539285
v 1.38697095 1.41229898 -0.7135141
v 1.38154755 1.40859075 -0.72332344
v 1.37538349 1.40949273 -0.7332997
v 1.36939055 1.4148499 -0.74191684
v 1.36449191 1.42386016 -0.74786849
v 1.36147196 1.43514862 -0.75026827
v 1.36083855 1.44700302 -0.74877505
v 1.36270303 1.45761915 -0.74363077
v 1.36677625 1.46538083 -0.73560978
v 1.37240662 1.46910596 -0.72590759
v 1.38759779 1.46416398 -0.70810956
v 1.38144848 1.46969668 -0.7170321
v 1.39247941 1.45485398 -0.70185902
v 1.39538618 1.44319804 -0.69926573
v 1.39593387 1.43097298 -0.70074189
v 1.39405701 1.4200436 -0.70607526
v 1.39003386 1.41206568 -0.71445366
v 1.38443548 1.4082551 -0.72457357
v 1.37806035 1.40919202 -0.73486766
v 1.37185818 1.41472095 -0.74376237
v 1.36678735 1.42400548 -0.74990435
v 1.36366111 1.43564354 -0.75238011
v 1.36299324 1.44785234 -0.75084795
v 1.36492265 1.45879147 -0.74555179
v 1.36913415 1.46678614 -0.7372802
v 1.37495404 1.47062003 -0.72727186
v 1.43903565 1.49244956 -0.59239667
v 1.1876702 1.63441819 -0.94452651
v 0.81331309 1.74487895 -1.20840251
v 0.39079465 1.8136 -1.37074992
v -0.0435873 1.84141359 -1.43419596
v 1.41584104 1.16797315 -0.71248441
v 1.16892022 1.31089179 -1.06620607
v 0.80840611 1.4195826 -1.32826701
v 0.38559151 1.48685231 -1.48706056
v -0.04480272 1.5147073 -1.55074546
v -0.41422136 1.4885019 -1.48384161
v -0.41632856 1.81493768 -1.36657676
v -0.61891852 1.44534369 -1.36446213
v -0.62567458 1.77535411 -1.25793594
v -0.89444792 1.42323838 -1.2568481
v -0.89735878 1.65460109 -1.17448979
v 1.42803606 1.33208101 -0.65172965
v 1.1860674 1.47614002 -1.00920018
v 0.81660231 1.58566208 -1.27158655
v 0.38822664 1.65215435 -1.42821982
v -0.04418562 1.6799862 -1.49178174
v -0.62234348 1.61229484 -1.31056913
v -0.896629 1.54171857 -1.21217184
v -0.10466419 1.85198449 -1.45758764
v -0.10824547 1.52083911 -1.57447861
v -0.29383527 1.85266603 -1.45580533
v -0.29747614 1.68646664 -1.51262933
v -0.30108559 1.51640066 -1.5708189
v -0.17067585 1.69580619 -1.53664505
v -0.1677046 1.86167817 -1.4788256
v -0.173692 1.52597374 -1.59584245
v -0.51104239 1.61836247 -1.32037147
v -0.5131203 1.78054469 -1.26509631
v -0.50891246 1.45230807 -1.37696534
v -0.66685363 1.59838083 -1.29030476
v -0.67054985 1.76139476 -1.23755549
v -0.6630514 1.43148201 -1.34432279
v 0.18658134 1.83276209 -1.41524731
v 0.18329632 1.50599733 -1.5315894
v 0.59685445 1.7829372 -1.29834223
v 0.589983 1.45637747 -1.41504163
v -0.06451028 1.68285312 -1.4997994
v -0.10601871 1.72716653 -1.50164513
v -0.07652414 1.71185293 -1.49486264
v -0.10685777 1.64956364 -1.52903778
v -0.07691652 1.65694676 -1.5141406
v -0.14905044 1.69343441 -1.5298072
v -0.13634836 1.71956131 -1.51600313
v -0.13665086 1.66465918 -1.53528799
v -0.41553507 1.69237036 -1.41060604
v -0.44766283 1.64235417 -1.39103593
v -0.43821166 1.67283896 -1.39145773
v -0.41503692 1.61492152 -1.43842609
v -0.43836177 1.61787809 -1.41057449
v -0.37806788 1.66462833 -1.45387936
v -0.38925412 1.68877677 -1.43551533
v -0.38886279 1.63403208 -1.45524148
v 0.23053864 1.6679589 -1.46504113
v 0.18534977 1.71006965 -1.45893102
v 0.21751302 1.69640213 -1.45766539
v 0.18457038 1.63254343 -1.48653387
v 0.21691166 1.64158507 -1.47718371
v 0.13916675 1.67412334 -1.47914704
v 0.15285228 1.70076374 -1.46764067
v 0.15234967 1.64594561 -1.48716168
v 0.63994347 1.61462129 -1.33965664
v 0.5948803 1.66047181 -1.34254823
v 0.62683183 1.64405981 -1.3346725
v 0.59343967 1.58304009 -1.37035697
v 0.62590907 1.58934855 -1.35443569
v 0.55007024 1.62896179 -1.37349753
v 0.56336543 1.65424013 -1.35870265
v 0.56224151 1.59944725 -1.3782607
v 1.20005711 1.63804016 -0.95607089
v 1.19837785 1.47975165 -1.02071699
v 1.44469929 1.33416059 -0.65965303
v 1.45567477 1.49454061 -0.60034584
v -0.67746308 1.76611922 -1.25284089
v -0.67379217 1.60310023 -1.30558326
v -0.62495438 1.61788569 -1.32788009
v -0.62807501 1.7809813 -1.27533532
v 1.18133976 1.31448786 -1.07769735
v 1.43257578 1.17003601 -0.72038254
v -0.6700154 1.43619877 -1.35959407
v -0.62173451 1.45090169 -1.3816835
v -0.30326992 1.85781418 -1.47041327
v -0.30535674 1.69188481 -1.5280237
v -0.16672541 1.70193256 -1.55431471
v -0.16164185 1.86770708 -1.49621108
v -0.16802684 1.5320173 -1.61325399
v -0.31059502 1.52151984 -1.58534995
v -0.51934471 1.62391121 -1.33737154
v -0.52469348 1.78544284 -1.2800341
v -0.52082286 1.45708761 -1.39158534
v -0.9054235 1.65671335 -1.18534606
v -0.90578156 1.54596081 -1.22628658
v -0.90449536 1.43144782 -1.26965477
v -0.03773476 1.84738457 -1.45106391
v -0.06686626 1.7172873 -1.51029319
v -0.05496626 1.68830322 -1.51520841
v -0.03844906 1.68597063 -1.50864301
v -0.09501034 1.85741714 -1.47319103
v -0.0964091 1.73259929 -1.51724895
v -0.03918233 1.52067602 -1.56760759
v -0.06758165 1.66242486 -1.52968874
v -0.0977102 1.65505816 -1.54479624
v -0.09914229 1.52633266 -1.59023545
v -0.12692127 1.72501286 -1.53182189
v -0.13983305 1.69890841 -1.545754
v -0.12754972 1.6701488 -1.55120873
v -0.45290838 1.67605323 -1.40123541
v -0.42922434 1.69609996 -1.42144141
v -0.43005234 1.81866749 -1.37740578
v -0.46253094 1.64540928 -1.40060868
v -0.45330682 1.62099146 -1.42007595
v -0.42813461 1.49214917 -1.49445537
v -0.42898565 1.61856911 -1.44903511
v -0.4018909 1.6929054 -1.44726787
v -0.39065318 1.66879944 -1.46570243
v -0.40153381 1.63814741 -1.46695816
v 0.3955901 1.81923026 -1.38683692
v 0.22088718 1.70224184 -1.47420586
v 0.23402024 1.67378375 -1.48154715
v 0.39301966 1.65778321 -1.44430424
v 0.18970162 1.83863421 -1.43185315
v 0.18846596 1.71594166 -1.47553557
v 0.39038424 1.49248122 -1.50314692
v 0.22028459 1.64742403 -1.49372052
v 0.18768427 1.63841566 -1.50313853
v 0.18640612 1.51186643 -1.54819222
v 0.15570993 1.70666558 -1.48430649
v 0.14191737 1.68003794 -1.49583676
v 0.15520642 1.65184691 -1.50382739
v 0.82172289 1.74966829 -1.22262277
v 0.6335691 1.64923283 -1.34974316
v 0.64676888 1.61976228 -1.35465785
v 0.82494319 1.59044361 -1.28579013
v 0.6034821 1.78821263 -1.31365692
v 0.6014051 1.66572183 -1.35779884
v 0.81677493 1.42436375 -1.34247112
v 0.63263083 1.59451883 -1.36950205
v 0.59994321 1.58828946 -1.3855953
v 0.59653667 1.46163422 -1.43030473
v 0.5696943 1.65957376 -1.37413966
v 0.55629794 1.63431906 -1.38899409
v 0.5685566 1.60477652 -1.39368468
v -0.84459299 1.5693365 -1.2636769
v -0.84960227 1.73215116 -1.21044165
v -0.8411164 1.72775843 -1.19595615
v -0.83608498 1.56494614 -1.24920422
v -0.83945168 1.40264298 -1.31819567
v -0.83091212 1.39825811 -1.3037386
v -0.2228599 1.84874034 -1.45000148
v -0.55398786 1.76710606 -1.22110892
v -0.23080923 1.5194926 -1.5649443
v -0.55650712 1.43949068 -1.33514535
v -0.31746276 1.48797251 -1.46965806
v -0.31202983 1.81546728 -1.35538139
v -0.79670828 1.41053298 -1.24458158
v -0.79532661 1.74033379 -1.13685157
v -1.18704745 1.33394832 -0.98238097
v -1.19089572 1.65515912 -0.85129224
v -1.36525756 1.20693637 -0.69429004
v -1.37408049 1.52718332 -0.56106051
v -0.12186362 1.83527139 -1.41285216
v -0.12400877 1.50659116 -1.5295831
v -0.19002195 1.80467848 -1.33169821
v -0.18603013 1.47762173 -1.4481453
v -0.34824743 1.78481293 -1.27381307
v -0.35288035 1.45730702 -1.38808328
v -0.590467 1.74731266 -1.1775512
v -0.59164072 1.41907022 -1.2914346
v -0.22867363 1.60852405 -1.53386265
v -0.31600617 1.57652939 -1.43875669
v -0.55583877 1.52807836 -1.30430804
v -0.79636347 1.49970959 -1.21544259
v -1.18811354 1.42079584 -0.94691521
v -1.36766693 1.29352017 -0.65823728
v -0.12343146 1.59546846 -1.49802107
v -0.18710108 1.56606074 -1.41665886
v -0.3516404 1.54586465 -1.3571832
v -0.58973296 1.50931126 -1.25690668
v -0.22493431 1.76339449 -1.47979972
v -0.31345027 1.73057501 -1.38500368
v -0.55465341 1.68218165 -1.25066929
v -0.79571196 1.65484042 -1.16476919
v -1.18992482 1.57188586 -0.8852533
v -1.3718137 1.44415564 -0.59557142
v -0.12242231 1.7500748 -1.44311409
v -0.18897925 1.71990095 -1.361888
v -0.3494607 1.69991722 -1.30343105
v -0.5888691 1.66457497 -1.20194543
v -0.29739247 1.49571272 -1.4929301
v -0.29577362 1.58438353 -1.46198888
v -0.30285883 1.81202725 -1.34586388
v -0.30537405 1.7269034 -1.37479094
v -0.22148725 1.75788818 -1.46443594
v -0.21942611 1.84323252 -1.43463112
v -0.54781422 1.76335347 -1.21027786
v -0.5484473 1.67843675 -1.23985847
v -0.78924525 1.73669013 -1.12591476
v -0.7895815 1.65120844 -1.1538636
v -1.1806117 1.65216604 -0.84365503
v -1.17961302 1.56890575 -0.87764431
v -1.36180816 1.52519802 -0.55554752
v -1.3595278 1.44218692 -0.59008869
v -0.14630148 1.50454927 -1.52359952
v -0.14578195 1.59342399 -1.49202985
v -0.22493625 1.60308741 -1.51870928
v -0.22705925 1.51405881 -1.54979244
v -0.19508327 1.48125726 -1.45850545
v -0.19617979 1.56969262 -1.42700932
v -0.357074 1.46156067 -1.39979543
v -0.35565149 1.55011868 -1.36896814
v -0.59693349 1.42322583 -1.30259303
v -0.59507634 1.51336446 -1.26807803
v -0.28423967 1.5818396 -1.45513208
v -0.28587482 1.49317181 -1.48607868
v -0.54956869 1.52434763 -1.29354245
v -0.55020361 1.43576857 -1.32440485
v -0.30828193 1.48455466 -1.46018783
v -0.30791135 1.57286935 -1.42856635
v -0.79013232 1.4960999 -1.2045901
v -0.79042167 1.40693406 -1.23375784
v -1.17776383 1.41783846 -0.93935198
v -1.17667017 1.33100343 -0.9748438
v -1.3553429 1.2915767 -0.65281701
v -1.35291652 1.20500685 -0.68890358
v -0.59419089 1.66835077 -1.21322878
v -0.35348711 1.70398247 -1.31528448
v -0.14507367 1.74821485 -1.43762878
v -0.14457169 1.83341532 -1.40736964
v -0.19788798 1.72353977 -1.37225343
v -0.19895537 1.80831359 -1.34205826
v -0.35245564 1.78878692 -1.28562666
v -0.59571163 1.75091529 -1.18892996
v 0.10827559 1.51935438 -1.58685755
v 0.09995924 1.528156 -1.60722099
v 0.07685239 1.53658146 -1.61691898
v 0.05271467 1.53958154 -1.6100134
v 0.04203821 1.53547951 -1.59075708
v 0.05086119 1.52679533 -1.57069646
v 0.07365452 1.51852876 -1.56135986
v 0.09728673 1.51541329 -1.56797135
v 0.09039465 1.47325705 -1.60467227
v 0.08413464 1.48769597 -1.62277753
v 0.06633581 1.50974916 -1.62709316
v 0.04758331 1.52642634 -1.61492291
v 0.0391501 1.52800739 -1.59352784
v 0.045818 1.5136383 -1.57560285
v 0.06338998 1.49168553 -1.57151746
v 0.08173319 1.47493846 -1.58350722
v 0.04612081 1.45532279 -1.61647338
v 0.04493059 1.47193202 -1.63304389
v 0.0402456 1.49924229 -1.63370832
v 0.03484265 1.52124632 -1.61806788
v 0.03197707 1.52506051 -1.59528894
v 0.03329671 1.50845279 -1.57873522
v 0.03793525 1.48115232 -1.57808738
v 0.04320898 1.459145 -1.59371866
v -0.49184158 1.392197 -1.46204574
v -0.50139834 1.4077472 -1.47595964
v -0.50278976 1.43527827 -1.47709034
v -0.49519966 1.45866252 -1.46476599
v -0.48316785 1.46417254 -1.44614449
v -0.47374031 1.44858105 -1.43213647
v -0.47235078 1.42105186 -1.43101126
v -0.47981046 1.39770628 -1.44342595
v -0.52969819 1.40155433 -1.42986246
v -0.53502133 1.41588482 -1.44755367
v -0.52524989 1.440686 -1.45833412
v -0.50619425 1.46134476 -1.45568063
v -0.48935403 1.46571719 -1.44104566
v -0.48451112 1.45133049 -1.42321037
v -0.49416098 1.42664616 -1.41271862
v -0.51273586 1.40604565 -1.41551835
v -0.54667016 1.44392541 -1.40317721
v -0.55010362 1.45303333 -1.4240991
v -0.53533313 1.46530357 -1.44288235
v -0.51113295 1.4734168 -1.44818632
v -0.49213443 1.47258035 -1.43682814
v -0.48934865 1.46342827 -1.41578251
v -0.50395077 1.45135203 -1.39746963
v -0.52750398 1.44328775 -1.39228229
v -0.24533807 1.45709321 -1.60160968
v -0.23760048 1.43951529 -1.58178252
v -0.23064705 1.44218822 -1.55515176
v -0.20884534 1.44300098 -1.47435027
v -0.24008994 1.50549066 -1.55966402
v -0.24717633 1.50599237 -1.58521534
v -0.24932049 1.48462294 -1.60302166
v -0.17577585 1.44667156 -1.59950528
v -0.18322687 1.46432002 -1.61951141
v -0.1879138 1.49179849 -1.62079482
v -0.18703511 1.51302304 -1.60263507
v -0.18102576 1.5123781 -1.57671611
v -0.16903501 1.47042103 -1.55433916
v -0.16992202 1.4491982 -1.57250085
v -0.30139761 1.43104362 -1.56090069
v -0.30942929 1.44855209 -1.5805535
v -0.31264523 1.47617292 -1.58218268
v -0.30914643 1.49772946 -1.56484954
v -0.3009169 1.49741195 -1.53974888
v -0.28980642 1.45543915 -1.51736127
v -0.2932742 1.43389397 -1.53471973
v -0.21096812 1.42164726 -1.49218287
v -0.16181079 1.43957721 -1.5436245
v -0.16091723 1.46080213 -1.52546336
v -0.16562447 1.49537625 -1.5244707
v -0.21286781 1.47762873 -1.47349169
v -0.28329496 1.48079976 -1.48850227
v -0.27992447 1.44609911 -1.4891851
v -0.28337578 1.42455888 -1.5065582
v -0.20890249 1.50206226 -1.54676
v -0.19755031 1.49611939 -1.52795995
v -0.39425291 1.48498411 -1.49969602
v -0.40448182 1.48084353 -1.52218905
v -0.4101288 1.45842033 -1.53713782
v -0.4078293 1.43087553 -1.53582771
v -0.39893174 1.41433462 -1.51901328
v -0.38870837 1.41846815 -1.49651228
v -0.38314474 1.44086545 -1.48150289
v -0.3854398 1.4684192 -1.4828257
v -0.07165987 1.52303633 -1.59273054
v -0.07292083 1.51994639 -1.61778693
v -0.07047447 1.49840288 -1.63485043
v -0.06580934 1.4710182 -1.63390603
v -0.06170185 1.45383312 -1.61550183
v -0.06050796 1.45692317 -1.59043876
v -0.06287703 1.47847331 -1.57339949
v -0.06747788 1.50585814 -1.57434615
v 0.09791153 1.70277273 -1.55059233
v 0.05046961 1.70438409 -1.55644184
v 0.03977994 1.69825045 -1.53781581
v 0.09529141 1.69002641 -1.51133623
v -0.55331601 1.61963898 -1.34356188
v -0.49786624 1.63464643 -1.38212566
v -0.51005743 1.62025925 -1.34036048
v -0.27738607 1.50065648 -1.54773736
v -0.2764485 1.50221916 -1.57590416
v -0.27923304 1.48076584 -1.59349532
v -0.27561374 1.45319675 -1.59199482
v -0.26774052 1.43565334 -1.57224994
v -0.26023668 1.4384031 -1.54581958
v -0.24984557 1.42033887 -1.49108544
v -0.24707088 1.44178003 -1.47346531
v -0.25082939 1.47643266 -1.47266444
v -0.20307616 1.50991721 -1.57061128
v -0.2181229 1.50950703 -1.59391777
v -0.21965661 1.48821427 -1.61190684
v -0.21533509 1.460712 -1.61056184
v -0.20773749 1.44310113 -1.59065058
v -0.2013183 1.44569911 -1.56383126
v -0.18183783 1.42862569 -1.51145458
v -0.18032075 1.44991022 -1.49345001
v -0.18463274 1.48451805 -1.4925364
v -0.29318289 1.48984872 -1.51676275
v -0.28057462 1.48876346 -1.51236593
v -0.18168341 1.50080912 -1.54195677
v -0.17378946 1.50469928 -1.55342437
v -0.55666397 1.62672967 -1.36517286
v -0.54158619 1.63417692 -1.38568511
v -0.51704481 1.63746732 -1.39273887
v -0.49515928 1.62750598 -1.36039687
v 0.10629988 1.69600191 -1.52959225
v 0.0486624 1.69159492 -1.51711704
v 0.0715615 1.68823522 -1.50625474
v -0.23676728 1.50227995 -1.54930807
v -0.25474695 1.49708447 -1.53484949
v -0.2582128 1.48900113 -1.51062185
v -0.24016376 1.48302961 -1.49120411
v -0.21793097 1.48294556 -1.48935449
v -0.19832451 1.48874753 -1.50563673
v -0.24041496 1.64954006 -1.50059218
v -0.21238705 1.64936362 -1.49812251
v -0.20096296 1.64343674 -1.47935369
v -0.20173571 1.63607225 -1.45701787
v -0.22146081 1.63024907 -1.4406764
v -0.24382998 1.63030313 -1.44246324
v -0.26198653 1.63624568 -1.46183424
v -0.25849893 1.64432482 -1.4860775
v -0.23958516 1.61618699 -1.51162591
v -0.21159432 1.6159994 -1.50913901
v -0.20018724 1.61007258 -1.49036276
v -0.20096089 1.60270884 -1.46803093
v -0.22065936 1.59688766 -1.4517027
v -0.24299625 1.59695162 -1.45350203
v -0.26112943 1.60289831 -1.47288272
v -0.25764689 1.61097412 -1.49712447
v -0.25058844 1.6599099 -1.53290532
v -0.19542558 1.65905563 -1.52657446
v -0.16947718 1.6465116 -1.48671941
v -0.1730248 1.63132625 -1.44065745
v -0.21108031 1.61987659 -1.40836391
v -0.25635963 1.61999176 -1.41206863
v -0.2928623 1.63215377 -1.45184313
v -0.28738219 1.64923084 -1.50321563
v -0.19463802 1.62568512 -1.53756899
v -0.24974569 1.62655673 -1.54394487
v -0.2864979 1.61588558 -1.51427176
v -0.29195516 1.59880834 -1.46289409
v -0.25549556 1.58664089 -1.42311291
v -0.21029417 1.58651749 -1.41938224
v -0.1722988 1.59795289 -1.45163745
v -0.16873907 1.6131342 -1.49769284
v -0.19197602 1.64318082 -1.53709797
v -0.16389978 1.62952585 -1.49372612
v -0.16786237 1.61304633 -1.44371574
v -0.20908537 1.60065376 -1.40875093
v -0.25810762 1.60077862 -1.41278108
v -0.29780219 1.61394831 -1.45588135
v -0.29197206 1.63250272 -1.51169763
v -0.25196698 1.64412916 -1.54402477
v 0.10427097 1.872646 -1.4723206
v 0.08499292 1.92021966 -1.45963163
v 0.07872875 1.91908648 -1.48275075
v 0.0958116 1.87738666 -1.49395064
v 0.06109359 1.90354167 -1.49915285
v 0.07248114 1.87599708 -1.50670703
v 0.04260659 1.88262688 -1.49909125
v 0.04817858 1.86918227 -1.50285617
v 0.03433603 1.86863749 -1.48271112
v 0.03747702 1.86101526 -1.48486678
v 0.0409389 1.86983453 -1.45975956
v 0.04641616 1.85639466 -1.46353202
v 0.05830531 1.88546947 -1.44356056
v 0.06942099 1.85793759 -1.4511352
v 0.07645264 1.90632158 -1.44345934
v 0.09324295 1.86463415 -1.45468755
v 0.03937374 1.94101438 -1.45851137
v 0.03836549 1.93729565 -1.48168035
v 0.03427197 1.91552551 -1.49827973
v 0.02952448 1.8884499 -1.49857285
v 0.02697377 1.87193344 -1.48239474
v 0.02807787 1.8756485 -1.4592291
v 0.03212118 1.89742542 -1.44264329
v 0.03677152 1.92450007 -1.44234317
v -0.07051139 1.93919943 -1.45669762
v -0.07437627 1.93606254 -1.48171912
v -0.07822676 1.91439869 -1.49868118
v -0.07976918 1.88689997 -1.49765558
v -0.07807104 1.86968075 -1.47925268
v -0.07416236 1.87282336 -1.454247
v -0.07036486 1.89448398 -1.43727309
v -0.06886563 1.92197752 -1.43828954
v -0.50905612 1.87575705 -1.29875575
v -0.54627102 1.84626054 -1.2791753
v -0.55103398 1.84510701 -1.30210306
v -0.51800348 1.87104514 -1.31943858
v -0.53965856 1.83259184 -1.32567888
v -0.51762588 1.84972911 -1.33708596
v -0.51894773 1.81594476 -1.33585468
v -0.50817724 1.82428612 -1.34133353
v -0.50135398 1.80488465 -1.32657171
v -0.49529195 1.809593 -1.32962116
v -0.49704314 1.80598477 -1.30351246
v -0.48648996 1.8142641 -1.30883549
v -0.50822451 1.81864036 -1.28027079
v -0.48681883 1.83559348 -1.29122515
v -0.52847994 1.83533762 -1.27022799
v -0.49612302 1.86107351 -1.28707795
v -0.56001236 1.79533881 -1.28392544
v -0.56327282 1.80042095 -1.30622916
v -0.54788303 1.80303858 -1.32846526
v -0.52299699 1.80151046 -1.33726806
v -0.50363897 1.79670239 -1.32740067
v -0.50100884 1.79157562 -1.30498819
v -0.51620679 1.78916 -1.28323463
v -0.54046023 1.79073039 -1.27454404
v -0.5339582 1.61701165 -1.33342205
v -0.24973721 1.92425067 -1.42138681
v -0.28045528 1.92026413 -1.41154948
v -0.28793179 1.91750597 -1.43796013
v -0.2571105 1.92151674 -1.44786693
v -0.29029835 1.89610918 -1.45569161
v -0.25990641 1.90007041 -1.46546843
v -0.28616232 1.86861046 -1.45435932
v -0.25647397 1.87247068 -1.46389104
v -0.28674404 1.85312251 -1.43079029
v -0.24892956 1.85806412 -1.44298746
v -0.22130696 1.83063475 -1.35684592
v -0.25982869 1.82932863 -1.35573913
v -0.25763017 1.85778704 -1.33565395
v -0.2187314 1.85914023 -1.3368693
v -0.26171088 1.88530019 -1.33702673
v -0.22207519 1.88675783 -1.33850009
v -0.24213589 1.90665132 -1.40151626
v -0.27227765 1.90275556 -1.39189989
v -0.18673932 1.93164149 -1.4396998
v -0.21930601 1.92794969 -1.43054239
v -0.22656904 1.92524881 -1.45709972
v -0.19388868 1.92897055 -1.4663381
v -0.22976984 1.90375909 -1.47460161
v -0.19752734 1.90744432 -1.48374642
v -0.22700936 1.87607321 -1.4728053
v -0.1954858 1.87967682 -1.48174346
v -0.21140536 1.86259318 -1.45419714
v -0.18905186 1.86511745 -1.46045371
v -0.17339767 1.84851979 -1.40817427
v -0.19266101 1.83760129 -1.37610008
v -0.18971429 1.86614434 -1.35621424
v -0.17000266 1.87710603 -1.38839589
v -0.19238587 1.8938468 -1.35805114
v -0.17200393 1.90488268 -1.39041447
v -0.180289 1.91388825 -1.4194307
v -0.21226254 1.91027388 -1.41047165
v -0.31475992 1.91551173 -1.3998482
v -0.41421791 1.89836401 -1.35688275
v -0.42259443 1.89462354 -1.3804183
v -0.3223622 1.91272277 -1.42618391
v -0.42334689 1.87327058 -1.39811672
v -0.32425121 1.89139468 -1.44407982
v -0.41606042 1.84681039 -1.39959923
v -0.31932874 1.86402034 -1.4430539
v -0.40507337 1.8307223 -1.38395266
v -0.31060488 1.8498047 -1.42262294
v -0.39679888 1.8344323 -1.36034594
v -0.30278253 1.8426186 -1.39955573
v -0.39601242 1.85579237 -1.34265958
v -0.30106785 1.87072348 -1.37940443
v -0.40319788 1.88228067 -1.34124436
v -0.30593701 1.89811332 -1.38046966
v -0.17827484 1.88611505 -1.41741481
v -0.18170387 1.8578159 -1.4370882
v -0.29104925 1.86199541 -1.35109742
v -0.29276396 1.83360344 -1.37134811
v -0.29588252 1.88939743 -1.35218215
v 0.07469209 1.70628911 -1.56181774
v -0.18969935 1.85385004 -1.4255772
v -0.28999557 1.84152106 -1.39527348
v -0.21729737 1.85455258 -1.43035265
v -0.24555315 1.85466393 -1.4327142
v -0.26378392 1.84943814 -1.41811434
v -0.26730261 1.84139755 -1.3938292
v -0.24899563 1.83553652 -1.37451031
v -0.22643814 1.83553662 -1.37281501
v -0.20654947 1.84136987 -1.38924952
v -0.20577496 1.84869026 -1.41160709
v -0.24270028 1.74109912 -1.47029664
v -0.21456977 1.74095993 -1.46787177
v -0.26084963 1.73588819 -1.45574158
v -0.26435118 1.72784442 -1.43146882
v -0.24612819 1.72196368 -1.41212194
v -0.22367551 1.7219359 -1.41036999
v -0.20387764 1.72775633 -1.42675593
v -0.20310376 1.73508221 -1.44910855
v -0.24184608 1.70692042 -1.48160906
v -0.21375383 1.70677208 -1.47916147
v -0.25997089 1.70171401 -1.46706606
v -0.2634684 1.69367067 -1.44279728
v -0.24526942 1.68778541 -1.42343425
v -0.22284843 1.68775494 -1.42166701
v -0.20307735 1.69356999 -1.43804208
v -0.20230333 1.70089334 -1.46039319
v -0.25291118 1.75146234 -1.502596
v -0.25432378 1.73690814 -1.5133042
v -0.19411894 1.73602403 -1.50648325
v -0.1975359 1.75066261 -1.4963459
v -0.2898433 1.74076739 -1.47281908
v -0.29447614 1.72526727 -1.48089791
v -0.29533389 1.72372241 -1.42140049
v -0.30033281 1.7067478 -1.42504276
v -0.25869378 1.71163621 -1.38169007
v -0.26049209 1.6936528 -1.38199762
v -0.21325392 1.7115738 -1.3780702
v -0.21127815 1.69358032 -1.37805545
v -0.17506346 1.72302843 -1.41042739
v -0.16989698 1.70598253 -1.41310651
v -0.17149806 1.73817592 -1.45651175
v -0.1659301 1.722427 -1.4631422
v -0.19675688 1.71647417 -1.50763528
v -0.25204231 1.7172845 -1.5139095
v -0.17074526 1.70398204 -1.46779359
v -0.17429629 1.68883594 -1.42171041
v -0.21244181 1.677388 -1.38936733
v -0.25782917 1.6774678 -1.39302004
v -0.29441651 1.68956843 -1.43277515
v -0.28891967 1.70660765 -1.48417329
v -0.53840735 1.54852482 -1.41470113
v -0.55333033 1.53862728 -1.39506575
v -0.54993859 1.53051432 -1.37380249
v -0.53067894 1.52889569 -1.3632821
v -0.50695575 1.53458523 -1.36932889
v -0.49220739 1.54428527 -1.38849367
v -0.49495581 1.55244416 -1.40987356
v -0.51403913 1.55425749 -1.42086314
v -0.56015843 1.71870984 -1.33396037
v -0.55685532 1.7126813 -1.31198509
v -0.53739543 1.70900571 -1.30224241
v -0.51330826 1.70970087 -1.31011146
v -0.4982524 1.71439313 -1.33105694
v -0.50091806 1.72046345 -1.35314755
v -0.5201922 1.72433859 -1.36336825
v -0.54491585 1.72360051 -1.35538688
v 0.049313 1.78796894 -1.52926424
v 0.07357612 1.79236862 -1.53386793
v 0.09685353 1.79133914 -1.52186179
v 0.10527801 1.78559742 -1.50054221
v 0.09425831 1.77858938 -1.48260645
v 0.07048191 1.77430972 -1.47829793
v 0.04752933 1.77518289 -1.48994138
v 0.03861691 1.78080609 -1.51095966
v 0.07571899 1.62606428 -1.58786916
v 0.09888727 1.62022441 -1.57736266
v 0.10724059 1.61249648 -1.55666582
v 0.09624033 1.60748305 -1.53810958
v 0.07255721 1.60801114 -1.53230788
v 0.0497076 1.61368835 -1.54244986
v 0.04085269 1.62130326 -1.56284571
v 0.05153578 1.62647284 -1.58176616
v -0.20545969 1.71579709 -1.5115922
v -0.17958213 1.70886345 -1.48876782
v 0.09826061 1.73972327 -1.58436117
v -0.15322148 1.71770669 -1.50445843
v 0.05497245 1.75107273 -1.5609121
v 0.03663321 1.74193998 -1.5681163
v -0.10370452 1.72705109 -1.52902647
v -0.03261146 1.73676292 -1.55503697
v -0.25937581 1.71350569 -1.50835064
v -0.17100718 1.69072444 -1.43285613
v -0.20264695 1.67774175 -1.3953676
v -0.24613312 1.67542542 -1.39149295
v -0.28680862 1.6849719 -1.42370626
v -0.28964521 1.70138606 -1.47379299
v 0.10250006 1.73122134 -1.55521745
v -0.16111816 1.71089511 -1.52589162
v -0.14663005 1.70091267 -1.49374765
v 0.05138028 1.73984043 -1.58611473
v 0.05711631 1.73013684 -1.55324765
v 0.03411645 1.73414728 -1.58696201
v 0.03908644 1.72586127 -1.55977537
v -0.1102913 1.71979919 -1.54908946
v -0.09789525 1.71073504 -1.51982685
v -0.02756221 1.72063634 -1.5464686
v -0.03827494 1.72914903 -1.57424407
v -0.24640322 1.70544776 -1.48286361
v -0.22068278 1.70709977 -1.4860817
v -0.26332041 1.69872987 -1.46367783
v -0.26268896 1.68982375 -1.43654998
v -0.23979542 1.68455698 -1.41879083
v -0.21539526 1.68586386 -1.42100313
v -0.19696791 1.69332548 -1.44248456
v -0.19990903 1.70131471 -1.4670414
v 0.11230942 1.73868948 -1.56645406
v -0.29749359 1.67523186 -1.48545173
v 0.05114667 1.71820673 -1.59899162
v 0.03377486 1.71765893 -1.59770262
v -0.11223252 1.70384943 -1.56069867
v -0.039777 1.71290933 -1.58536115
v -0.25799988 1.65982666 -1.52613144
v -0.20419588 1.66209324 -1.52931507
v -0.20114589 1.69174471 -1.52875478
v -0.26289249 1.68913063 -1.52505436
v -0.28820561 1.64771758 -1.49160556
v -0.28537276 1.63130698 -1.441524
v -0.29405794 1.65648969 -1.42825116
v -0.24478602 1.62174031 -1.40926922
v -0.24758352 1.64561932 -1.39153882
v -0.20139793 1.62404086 -1.41309596
v -0.19813305 1.64824546 -1.39590258
v -0.16982533 1.63700745 -1.45054443
v -0.16205429 1.66302058 -1.43859806
v 0.10307559 1.68249717 -1.57101629
v 0.11295396 1.68311431 -1.58446434
v 0.09883624 1.69268868 -1.59961684
v -0.24505445 1.65176114 -1.50063224
v -0.21938842 1.65340168 -1.50382298
v -0.19866117 1.6476086 -1.48476233
v -0.17837606 1.65514943 -1.50647098
v -0.19572877 1.6396226 -1.4602029
v -0.21411668 1.63216696 -1.43874376
v -0.23846242 1.63086988 -1.43655558
v -0.2613063 1.63614973 -1.45433811
v -0.26193626 1.64505149 -1.48146649
v -0.15194511 1.65821719 -1.52402596
v -0.16035775 1.67609006 -1.53734479
v -0.14588343 1.66563751 -1.50534415
v -0.14625457 1.68327272 -1.49954289
v -0.10958107 1.68420001 -1.5607636
v -0.16330857 1.69527756 -1.53721869
v -0.10252186 1.666719 -1.54881142
v -0.09719631 1.67460943 -1.53166758
v 0.05777136 1.68175941 -1.56896551
v 0.05852204 1.70464033 -1.55705177
v 0.05203515 1.69314753 -1.60129438
v 0.05609632 1.66930013 -1.58748956
v 0.0396157 1.68881715 -1.57182705
v 0.03964294 1.7073517 -1.56583615
v 0.03464718 1.69802232 -1.59871745
v 0.03751988 1.68068567 -1.58804705
v -0.0269499 1.68404257 -1.55841443
v -0.02703647 1.70236589 -1.55251377
v -0.03765353 1.69329189 -1.58595816
v -0.03157727 1.67595917 -1.57489126
v -0.09738607 1.69269547 -1.52580795
v 0.1045751 1.70556045 -1.55908101
v 0.1126431 1.70996939 -1.57576115
v 0.09886662 1.71796551 -1.59741423
g Group34716
f 14 13 95 92
g Group21229
f 94 97 96 93
g Group30232
f 27 28 30 29
g Group21229
f 97 99 98 96
g Group30232
f 29 30 32 31
g Group21229
f 99 101 100 98
g Group30232
f 31 32 34 33
g Group21229
f 101 103 102 100
g Group30232
f 33 34 36 35
g Group12915
f 18 17 104 105
g Group34716
f 8 7 109 106
g Group21229
f 108 111 110 107
g Group30232
f 37 38 40 39
g Group21229
f 111 113 112 110
g Group30232
f 39 40 42 41
g Group21229
f 113 115 114 112
g Group30232
f 41 42 44 43
g Group21229
f 115 117 116 114
g Group30232
f 43 44 46 45
g Group12915
f 24 23 118 119
g Group34716
f 9 8 106 120
g Group21229
f 107 110 122 121
g Group30232
f 38 47 48 40
g Group21229
f 110 112 123 122
g Group30232
f 40 48 49 42
g Group21229
f 112 114 124 123
g Group30232
f 42 49 50 44
g Group21229
f 114 116 125 124
g Group30232
f 44 50 51 46
g Group12915
f 23 22 126 118
g Group34716
f 6 5 130 127
g Group21229
f 129 132 131 128
g Group30232
f 52 53 55 54
g Group21229
f 132 134 133 131
g Group30232
f 54 55 57 56
g Group21229
f 134 136 135 133
g Group30232
f 56 57 59 58
g Group21229
f 136 138 137 135
g Group30232
f 58 59 61 60
g Group12915
f 26 25 139 140
g Group34716
f 13 12 142 95
g Group21229
f 141 143 97 94
g Group30232
f 62 27 29 63
g Group21229
f 143 144 99 97
g Group30232
f 63 29 31 64
g Group21229
f 144 145 101 99
g Group30232
f 64 31 33 65
g Group21229
f 145 146 103 101
g Group30232
f 65 33 35 66
g Group12915
f 19 18 105 147
g Group34716
f 10 9 120 148
g Group21229
f 121 122 150 149
g Group30232
f 47 67 68 48
g Group21229
f 122 123 151 150
g Group30232
f 48 68 69 49
g Group21229
f 123 124 152 151
g Group30232
f 49 69 70 50
g Group21229
f 124 125 153 152
g Group30232
f 50 70 71 51
g Group12915
f 22 21 154 126
g Group34716
f 15 14 92 155
g Group21229
f 93 96 157 156
g Group30232
f 28 72 73 30
g Group21229
f 96 98 158 157
g Group30232
f 30 73 74 32
g Group21229
f 98 100 159 158
g Group30232
f 32 74 75 34
g Group21229
f 100 102 160 159
g Group30232
f 34 75 76 36
g Group12915
f 17 16 161 104
g Group34716
f 7 6 127 109
g Group21229
f 128 131 111 108
g Group30232
f 53 37 39 55
g Group21229
f 131 133 113 111
g Group30232
f 55 39 41 57
g Group21229
f 133 135 115 113
g Group30232
f 57 41 43 59
g Group21229
f 135 137 117 115
g Group30232
f 59 43 45 61
g Group12915
f 25 24 119 139
g Group34716
f 11 10 148 162
g Group21229
f 149 150 164 163
g Group30232
f 67 77 78 68
g Group21229
f 150 151 165 164
g Group30232
f 68 78 79 69
g Group21229
f 151 152 166 165
g Group30232
f 69 79 80 70
g Group21229
f 152 153 167 166
g Group30232
f 70 80 81 71
g Group12915
f 21 20 168 154
g Group34716
f 5 2 170 130
g Group21229
f 169 171 132 129
g Group21232
f 82 83 171 169
g Group30232
f 82 52 54 83
g Group21229
f 171 172 134 132
g Group21232
f 83 84 172 171
g Group30232
f 83 54 56 84
g Group21229
f 172 173 136 134
g Group21232
f 84 85 173 172
g Group30232
f 84 56 58 85
g Group21229
f 173 174 138 136
g Group21232
f 85 86 174 173
g Group30232
f 85 58 60 86
g Group12915
f 4 26 140 175
g Group34716
f 1 15 155 176
g Group21229
f 156 157 178 177
g Group21232
f 88 87 177 178
g Group30232
f 72 87 88 73
g Group21229
f 157 158 179 178
g Group21232
f 89 88 178 179
g Group30232
f 73 88 89 74
g Group21229
f 158 159 180 179
g Group21232
f 90 89 179 180
g Group30232
f 74 89 90 75
g Group21229
f 159 160 181 180
g Group21232
f 91 90 180 181
g Group30232
f 75 90 91 76
g Group12915
f 16 3 182 161
g Group34716
f 12 11 162 142
g Group21229
f 163 164 143 141
g Group30232
f 77 62 63 78
g Group21229
f 164 165 144 143
g Group30232
f 78 63 64 79
g Group21229
f 165 166 145 144
g Group30232
f 79 64 65 80
g Group21229
f 166 167 146 145
g Group30232
f 80 65 66 81
g Group12915
f 20 19 147 168
g Group21229
f 183 94 93 184
g Group30232
f 259 28 27 260
g Group21229
f 185 108 107 186
g Group30232
f 261 38 37 262
g Group21229
f 186 107 121 187
g Group30232
f 263 47 38 261
g Group21229
f 188 129 128 189
g Group30232
f 264 53 52 265
g Group21229
f 190 141 94 183
g Group30232
f 260 27 62 266
g Group21229
f 187 121 149 191
g Group30232
f 267 67 47 263
g Group21229
f 184 93 156 192
g Group30232
f 268 72 28 259
g Group21229
f 189 128 108 185
g Group30232
f 262 37 53 264
g Group21229
f 191 149 163 193
g Group30232
f 269 77 67 267
g Group21229
f 271 169 129 188
g Group21232
f 270 82 169 271
g Group30232
f 265 52 82 270
g Group21229
f 192 156 177 273
g Group21232
f 87 272 273 177
g Group30232
f 272 87 72 268
g Group21229
f 193 163 141 190
g Group30232
f 266 62 77 269
g Group21229
f 103 194 195 102
g Group30232
f 36 231 232 35
g Group21229
f 117 196 197 116
g Group30232
f 46 233 234 45
g Group21229
f 116 197 198 125
g Group30232
f 51 235 233 46
g Group21229
f 138 199 200 137
g Group30232
f 61 236 237 60
g Group21229
f 146 201 194 103
g Group30232
f 35 232 238 66
g Group21229
f 125 198 202 153
g Group30232
f 71 239 235 51
g Group21229
f 102 195 203 160
g Group30232
f 76 240 231 36
g Group21229
f 137 200 196 117
g Group30232
f 45 234 236 61
g Group21229
f 153 202 204 167
g Group30232
f 81 241 239 71
g Group21229
f 174 243 199 138
g Group21232
f 86 242 243 174
g Group30232
f 60 237 242 86
g Group21229
f 160 203 245 181
g Group21232
f 244 91 181 245
g Group30232
f 91 244 240 76
g Group21229
f 167 204 201 146
g Group30232
f 66 238 241 81
g Group34716
f 92 95 206 205
g Group21229
f 183 184 275 274
g Group34716
f 106 109 208 207
g Group21229
f 185 186 277 276
g Group34716
f 120 106 207 209
g Group21229
f 186 187 278 277
g Group34716
f 127 130 211 210
g Group21229
f 188 189 280 279
g Group34716
f 95 142 212 206
g Group21229
f 190 183 274 281
g Group34716
f 148 120 209 213
g Group21229
f 187 191 282 278
g Group34716
f 155 92 205 214
g Group21229
f 184 192 283 275
g Group34716
f 109 127 210 208
g Group21229
f 189 185 276 280
g Group34716
f 162 148 213 215
g Group21229
f 191 193 284 282
g Group34716
f 130 170 216 211
g Group21229
f 271 188 279 285
g Group34716
f 176 155 214 217
g Group21229
f 192 273 286 283
g Group34716
f 142 162 215 212
g Group21229
f 193 190 281 284
f 195 194 246 247
g Group12915
f 105 104 218 219
g Group21229
f 197 196 248 249
g Group12915
f 119 118 220 221
g Group21229
f 198 197 249 250
g Group12915
f 118 126 222 220
g Group21229
f 200 199 251 252
g Group12915
f 140 139 223 224
g Group21229
f 194 201 253 246
g Group12915
f 147 105 219 225
g Group21229
f 202 198 250 254
g Group12915
f 126 154 226 222
g Group21229
f 203 195 247 255
g Group12915
f 104 161 227 218
g Group21229
f 196 200 252 248
g Group12915
f 139 119 221 223
g Group21229
f 204 202 254 256
g Group12915
f 154 168 228 226
g Group21229
f 199 243 257 251
g Group12915
f 175 140 224 229
g Group21229
f 245 203 255 258
g Group12915
f 161 182 230 227
g Group21229
f 201 204 256 253
g Group12915
f 168 147 225 228
g Group21229
f 256 228 225 253
g Group30232
f 231 17 18 232
g Group21232
f 182 245 258 230
g Group30232
f 233 23 24 234
g Group21229
f 255 227 230 258
g Group30232
f 235 22 23 233
g Group21232
f 243 175 229 257
g Group30232
f 236 25 26 237
g Group21229
f 257 229 224 251
g Group30232
f 232 18 19 238
g Group21229
f 254 226 228 256
g Group30232
f 239 21 22 235
g Group21229
f 252 223 221 248
g Group30232
f 240 16 17 231
g Group21229
f 247 218 227 255
g Group30232
f 234 24 25 236
g Group21229
f 250 222 226 254
g Group30232
f 241 20 21 239
g Group21229
f 253 225 219 246
g Group21232
f 242 4 175 243
g Group21229
f 251 224 223 252
g Group30232
f 237 26 4 242
g Group21232
f 3 244 245 182
g Group21229
f 249 220 222 250
f 248 221 220 249
g Group30232
f 244 3 16 240
g Group21229
f 246 219 218 247
g Group30232
f 238 19 20 241
f 14 259 260 13
g Group21229
f 215 284 281 212
g Group30232
f 8 261 262 7
g Group21232
f 273 176 217 286
g Group30232
f 9 263 261 8
g Group21229
f 214 283 286 217
g Group30232
f 6 264 265 5
g Group21232
f 170 271 285 216
g Group30232
f 13 260 266 12
g Group21229
f 216 285 279 211
g Group30232
f 10 267 263 9
g Group21229
f 213 282 284 215
g Group30232
f 15 268 259 14
g Group21229
f 210 280 276 208
g Group30232
f 7 262 264 6
g Group21229
f 205 275 283 214
g Group30232
f 11 269 267 10
g Group21229
f 209 278 282 213
g Group21232
f 2 270 271 170
g Group21229
f 212 281 274 206
g Group30232
f 5 265 270 2
g Group21229
f 211 279 280 210
f 207 277 278 209
g Group21232
f 272 1 176 273
g Group30232
f 1 272 268 15
g Group21229
f 208 276 277 207
g Group30232
f 12 266 269 11
g Group21229
f 206 274 275 205
g Group30343
f 338 337 336
f 289 288 287
f 338 336 339
f 290 289 287
f 338 339 340
f 291 290 287
f 338 340 341
f 292 291 287
f 338 341 342
f 293 292 287
f 338 342 343
f 294 293 287
f 338 343 344
f 295 294 287
f 338 344 345
f 296 295 287
f 338 345 346
f 297 296 287
f 338 346 347
f 298 297 287
f 338 347 348
f 299 298 287
f 338 348 349
f 300 299 287
f 338 349 350
f 301 300 287
f 338 350 351
f 302 301 287
f 338 351 352
f 303 302 287
f 338 352 337
f 288 303 287
f 337 354 353 336
f 288 289 305 304
f 336 353 355 339
f 289 290 306 305
f 339 355 356 340
f 290 291 307 306
f 340 356 357 341
f 291 292 308 307
f 341 357 358 342
f 292 293 309 308
f 342 358 359 343
f 293 294 310 309
f 343 359 360 344
f 294 295 311 310
f 344 360 361 345
f 295 296 312 311
f 345 361 362 346
f 296 297 313 312
f 346 362 363 347
f 297 298 314 313
f 347 363 364 348
f 298 299 315 314
f 348 364 365 349
f 299 300 316 315
f 349 365 366 350
f 300 301 317 316
f 350 366 367 351
f 301 302 318 317
f 351 367 368 352
f 302 303 319 318
f 352 368 354 337
f 303 288 304 319
f 354 369 384 353
f 304 305 321 320
f 353 384 383 355
f 305 306 322 321
f 355 383 382 356
f 306 307 323 322
f 356 382 381 357
f 307 308 324 323
f 357 381 380 358
f 308 309 325 324
f 358 380 379 359
f 309 310 326 325
f 359 379 378 360
f 310 311 327 326
f 360 378 377 361
f 311 312 328 327
f 361 377 376 362
f 312 313 329 328
f 362 376 375 363
f 313 314 330 329
f 363 375 374 364
f 314 315 331 330
f 364 374 373 365
f 315 316 332 331
f 365 373 372 366
f 316 317 333 332
f 366 372 371 367
f 317 318 334 333
f 367 371 370 368
f 318 319 335 334
f 368 370 369 354
f 319 304 320 335
f 370 385 386 369
f 371 389 385 370
f 372 391 389 371
f 373 393 391 372
f 374 395 393 373
f 375 397 395 374
f 376 399 397 375
f 377 401 399 376
f 378 403 401 377
f 379 405 403 378
f 380 407 405 379
f 381 409 407 380
f 382 411 409 381
f 383 413 411 382
f 384 415 413 383
f 369 386 415 384
f 386 385 388 387
f 385 389 390 388
f 389 391 392 390
f 391 393 394 392
f 393 395 396 394
f 395 397 398 396
f 397 399 400 398
f 399 401 402 400
f 401 403 404 402
f 403 405 406 404
f 405 407 408 406
f 407 409 410 408
f 409 411 412 410
f 411 413 414 412
f 413 415 416 414
f 387 416 415 386
f 335 320 417 418
f 334 335 418 419
f 333 334 419 420
f 332 333 420 421
f 331 332 421 422
f 330 331 422 423
f 329 330 423 424
f 328 329 424 425
f 327 328 425 426
f 326 327 426 427
f 325 326 427 428
f 324 325 428 429
f 323 324 429 430
f 322 323 430 431
f 321 322 431 432
f 320 321 432 417
f 433 434 387 388
f 435 433 388 390
f 436 435 390 392
f 437 436 392 394
f 438 437 394 396
f 439 438 396 398
f 440 439 398 400
f 441 440 400 402
f 442 441 402 404
f 443 442 404 406
f 444 443 406 408
f 445 444 408 410
f 446 445 410 412
f 447 446 412 414
f 448 447 414 416
f 434 448 416 387
f 434 433 418 417
f 419 418 433 435
f 420 419 435 436
f 421 420 436 437
f 422 421 437 438
f 423 422 438 439
f 424 423 439 440
f 425 424 440 441
f 426 425 441 442
f 427 426 442 443
f 428 427 443 444
f 429 428 444 445
f 430 429 445 446
f 431 430 446 447
f 432 431 447 448
f 417 432 448 434
f 500 499 498
f 451 450 449
f 500 498 501
f 452 451 449
f 500 501 502
f 453 452 449
f 500 502 503
f 454 453 449
f 500 503 504
f 455 454 449
f 500 504 505
f 456 455 449
f 500 505 506
f 457 456 449
f 500 506 507
f 458 457 449
f 500 507 508
f 459 458 449
f 500 508 509
f 460 459 449
f 500 509 510
f 461 460 449
f 500 510 511
f 462 461 449
f 500 511 512
f 463 462 449
f 500 512 513
f 464 463 449
f 500 513 514
f 465 464 449
f 500 514 499
f 450 465 449
f 499 516 515 498
f 450 451 467 466
f 498 515 517 501
f 451 452 468 467
f 501 517 518 502
f 452 453 469 468
f 502 518 519 503
f 453 454 470 469
f 503 519 520 504
f 454 455 471 470
f 504 520 521 505
f 455 456 472 471
f 505 521 522 506
f 456 457 473 472
f 506 522 523 507
f 457 458 474 473
f 507 523 524 508
f 458 459 475 474
f 508 524 525 509
f 459 460 476 475
f 509 525 526 510
f 460 461 477 476
f 510 526 527 511
f 461 462 478 477
f 511 527 528 512
f 462 463 479 478
f 512 528 529 513
f 463 464 480 479
f 513 529 530 514
f 464 465 481 480
f 514 530 516 499
f 465 450 466 481
f 516 531 546 515
f 466 467 483 482
f 515 546 545 517
f 467 468 484 483
f 517 545 544 518
f 468 469 485 484
f 518 544 543 519
f 469 470 486 485
f 519 543 542 520
f 470 471 487 486
f 520 542 541 521
f 471 472 488 487
f 521 541 540 522
f 472 473 489 488
f 522 540 539 523
f 473 474 490 489
f 523 539 538 524
f 474 475 491 490
f 524 538 537 525
f 475 476 492 491
f 525 537 536 526
f 476 477 493 492
f 526 536 535 527
f 477 478 494 493
f 527 535 534 528
f 478 479 495 494
f 528 534 533 529
f 479 480 496 495
f 529 533 532 530
f 480 481 497 496
f 530 532 531 516
f 481 466 482 497
f 532 547 548 531
f 533 551 547 532
f 534 553 551 533
f 535 555 553 534
f 536 557 555 535
f 537 559 557 536
f 538 561 559 537
f 539 563 561 538
f 540 565 563 539
f 541 567 565 540
f 542 569 567 541
f 543 571 569 542
f 544 573 571 543
f 545 575 573 544
f 546 577 575 545
f 531 548 577 546
f 548 547 550 549
f 547 551 552 550
f 551 553 554 552
f 553 555 556 554
f 555 557 558 556
f 557 559 560 558
f 559 561 562 560
f 561 563 564 562
f 563 565 566 564
f 565 567 568 566
f 567 569 570 568
f 569 571 572 570
f 571 573 574 572
f 573 575 576 574
f 575 577 578 576
f 549 578 577 548
f 497 482 579 580
f 496 497 580 581
f 495 496 581 582
f 494 495 582 583
f 493 494 583 584
f 492 493 584 585
f 491 492 585 586
f 490 491 586 587
f 489 490 587 588
f 488 489 588 589
f 487 488 589 590
f 486 487 590 591
f 485 486 591 592
f 484 485 592 593
f 483 484 593 594
f 482 483 594 579
f 595 596 549 550
f 597 595 550 552
f 598 597 552 554
f 599 598 554 556
f 600 599 556 558
f 601 600 558 560
f 602 601 560 562
f 603 602 562 564
f 604 603 564 566
f 605 604 566 568
f 606 605 568 570
f 607 606 570 572
f 608 607 572 574
f 609 608 574 576
f 610 609 576 578
f 596 610 578 549
f 596 595 580 579
f 581 580 595 597
f 582 581 597 598
f 583 582 598 599
f 584 583 599 600
f 585 584 600 601
f 586 585 601 602
f 587 586 602 603
f 588 587 603 604
f 589 588 604 605
f 590 589 605 606
f 591 590 606 607
f 592 591 607 608
f 593 592 608 609
f 594 593 609 610
f 579 594 610 596
g Group33109
f 660 661 662
f 611 612 613
f 663 660 662
f 611 613 614
f 664 663 662
f 611 614 615
f 665 664 662
f 611 615 616
f 666 665 662
f 611 616 617
f 667 666 662
f 611 617 618
f 668 667 662
f 611 618 619
f 669 668 662
f 611 619 620
f 670 669 662
f 611 620 621
f 671 670 662
f 611 621 622
f 672 671 662
f 611 622 623
f 673 672 662
f 611 623 624
f 674 673 662
f 611 624 625
f 675 674 662
f 611 625 626
f 676 675 662
f 611 626 627
f 661 676 662
f 611 627 612
f 661 660 677 678
f 612 628 629 613
f 660 663 679 677
f 613 629 630 614
f 663 664 680 679
f 614 630 631 615
f 664 665 681 680
f 615 631 632 616
f 665 666 682 681
f 616 632 633 617
f 666 667 683 682
f 617 633 634 618
f 667 668 684 683
f 618 634 635 619
f 668 669 685 684
f 619 635 636 620
f 669 670 686 685
f 620 636 637 621
f 670 671 687 686
f 621 637 638 622
f 671 672 688 687
f 622 638 639 623
f 672 673 689 688
f 623 639 640 624
f 673 674 690 689
f 624 640 641 625
f 674 675 691 690
f 625 641 642 626
f 675 676 692 691
f 626 642 643 627
f 676 661 678 692
f 627 643 628 612
f 678 677 708 693
f 628 644 645 629
f 677 679 707 708
f 629 645 646 630
f 679 680 706 707
f 630 646 647 631
f 680 681 705 706
f 631 647 648 632
f 681 682 704 705
f 632 648 649 633
f 682 683 703 704
f 633 649 650 634
f 683 684 702 703
f 634 650 651 635
f 684 685 701 702
f 635 651 652 636
f 685 686 700 701
f 636 652 653 637
f 686 687 699 700
f 637 653 654 638
f 687 688 698 699
f 638 654 655 639
f 688 689 697 698
f 639 655 656 640
f 689 690 696 697
f 640 656 657 641
f 690 691 695 696
f 641 657 658 642
f 691 692 694 695
f 642 658 659 643
f 692 678 693 694
f 643 659 644 628
f 694 693 710 709
f 695 694 709 713
f 696 695 713 715
f 697 696 715 717
f 698 697 717 719
f 699 698 719 721
f 700 699 721 723
f 701 700 723 725
f 702 701 725 727
f 703 702 727 729
f 704 703 729 731
f 705 704 731 733
f 706 705 733 735
f 707 706 735 737
f 708 707 737 739
f 693 708 739 710
f 710 711 712 709
f 709 712 714 713
f 713 714 716 715
f 715 716 718 717
f 717 718 720 719
f 719 720 722 721
f 721 722 724 723
f 723 724 726 725
f 725 726 728 727
f 727 728 730 729
f 729 730 732 731
f 731 732 734 733
f 733 734 736 735
f 735 736 738 737
f 737 738 740 739
f 711 710 739 740
f 659 742 741 644
f 658 743 742 659
f 657 744 743 658
f 656 745 744 657
f 655 746 745 656
f 654 747 746 655
f 653 748 747 654
f 652 749 748 653
f 651 750 749 652
f 650 751 750 651
f 649 752 751 650
f 648 753 752 649
f 647 754 753 648
f 646 755 754 647
f 645 756 755 646
f 644 741 756 645
f 757 712 711 758
f 759 714 712 757
f 760 716 714 759
f 761 718 716 760
f 762 720 718 761
f 763 722 720 762
f 764 724 722 763
f 765 726 724 764
f 766 728 726 765
f 767 730 728 766
f 768 732 730 767
f 769 734 732 768
f 770 736 734 769
f 771 738 736 770
f 772 740 738 771
f 758 711 740 772
f 758 741 742 757
f 743 759 757 742
f 744 760 759 743
f 745 761 760 744
f 746 762 761 745
f 747 763 762 746
f 748 764 763 747
f 749 765 764 748
f 750 766 765 749
f 751 767 766 750
f 752 768 767 751
f 753 769 768 752
f 754 770 769 753
f 755 771 770 754
f 756 772 771 755
f 741 758 772 756
f 822 823 824
f 773 774 775
f 825 822 824
f 773 775 776
f 826 825 824
f 773 776 777
f 827 826 824
f 773 777 778
f 828 827 824
f 773 778 779
f 829 828 824
f 773 779 780
f 830 829 824
f 773 780 781
f 831 830 824
f 773 781 782
f 832 831 824
f 773 782 783
f 833 832 824
f 773 783 784
f 834 833 824
f 773 784 785
f 835 834 824
f 773 785 786
f 836 835 824
f 773 786 787
f 837 836 824
f 773 787 788
f 838 837 824
f 773 788 789
f 823 838 824
f 773 789 774
f 823 822 839 840
f 774 790 791 775
f 822 825 841 839
f 775 791 792 776
f 825 826 842 841
f 776 792 793 777
f 826 827 843 842
f 777 793 794 778
f 827 828 844 843
f 778 794 795 779
f 828 829 845 844
f 779 795 796 780
f 829 830 846 845
f 780 796 797 781
f 830 831 847 846
f 781 797 798 782
f 831 832 848 847
f 782 798 799 783
f 832 833 849 848
f 783 799 800 784
f 833 834 850 849
f 784 800 801 785
f 834 835 851 850
f 785 801 802 786
f 835 836 852 851
f 786 802 803 787
f 836 837 853 852
f 787 803 804 788
f 837 838 854 853
f 788 804 805 789
f 838 823 840 854
f 789 805 790 774
f 840 839 870 855
f 790 806 807 791
f 839 841 869 870
f 791 807 808 792
f 841 842 868 869
f 792 808 809 793
f 842 843 867 868
f 793 809 810 794
f 843 844 866 867
f 794 810 811 795
f 844 845 865 866
f 795 811 812 796
f 845 846 864 865
f 796 812 813 797
f 846 847 863 864
f 797 813 814 798
f 847 848 862 863
f 798 814 815 799
f 848 849 861 862
f 799 815 816 800
f 849 850 860 861
f 800 816 817 801
f 850 851 859 860
f 801 817 818 802
f 851 852 858 859
f 802 818 819 803
f 852 853 857 858
f 803 819 820 804
f 853 854 856 857
f 804 820 821 805
f 854 840 855 856
f 805 821 806 790
f 856 855 872 871
f 857 856 871 875
f 858 857 875 877
f 859 858 877 879
f 860 859 879 881
f 861 860 881 883
f 862 861 883 885
f 863 862 885 887
f 864 863 887 889
f 865 864 889 891
f 866 865 891 893
f 867 866 893 895
f 868 867 895 897
f 869 868 897 899
f 870 869 899 901
f 855 870 901 872
f 872 873 874 871
f 871 874 876 875
f 875 876 878 877
f 877 878 880 879
f 879 880 882 881
f 881 882 884 883
f 883 884 886 885
f 885 886 888 887
f 887 888 890 889
f 889 890 892 891
f 891 892 894 893
f 893 894 896 895
f 895 896 898 897
f 897 898 900 899
f 899 900 902 901
f 873 872 901 902
f 821 904 903 806
f 820 905 904 821
f 819 906 905 820
f 818 907 906 819
f 817 908 907 818
f 816 909 908 817
f 815 910 909 816
f 814 911 910 815
f 813 912 911 814
f 812 913 912 813
f 811 914 913 812
f 810 915 914 811
f 809 916 915 810
f 808 917 916 809
f 807 918 917 808
f 806 903 918 807
f 919 874 873 920
f 921 876 874 919
f 922 878 876 921
f 923 880 878 922
f 924 882 880 923
f 925 884 882 924
f 926 886 884 925
f 927 888 886 926
f 928 890 888 927
f 929 892 890 928
f 930 894 892 929
f 931 896 894 930
f 932 898 896 931
f 933 900 898 932
f 934 902 900 933
f 920 873 902 934
f 920 903 904 919
f 905 921 919 904
f 906 922 921 905
f 907 923 922 906
f 908 924 923 907
f 909 925 924 908
f 910 926 925 909
f 911 927 926 910
f 912 928 927 911
f 913 929 928 912
f 914 930 929 913
f 915 931 930 914
f 916 932 931 915
f 917 933 932 916
f 918 934 933 917
f 903 920 934 918
g Group34690
f 1011 1010 1009 1008
g Group34695
f 936 935 1011 1008
f 935 951 1010 1011
g Group34705
f 935 936 952 951
g Group34690
f 1015 1014 1013 1012
g Group34695
f 970 948 1015 1012
g Group34705
f 948 970 969 956
g Group34690
f 1010 1017 1016 1009
g Group34710
f 940 941 1016 1017
g Group34695
f 951 940 1017 1010
g Group34705
f 951 952 941 940
g Group34690
f 1014 1019 1018 1013
g Group34710
f 947 971 1018 1019
g Group34705
f 956 969 971 947
g Group34690
f 1023 1022 1021 1020
g Group34695
f 960 964 1023 1020
g Group34705
f 964 960 961 963
g Group34690
f 1025 1021 1022 1024
g Group34710
f 965 962 1025 1024
g Group34705
f 962 965 963 961
g Group34690
f 1027 1026 1014 1015
g Group34695
f 948 967 1027 1015
g Group34705
f 967 948 956 966
g Group34690
f 1026 1028 1019 1014
g Group34710
f 968 947 1019 1028
g Group34705
f 966 956 947 968
g Group34690
f 1012 1013 1081 1082
g Group34695
f 950 1083 1082 1029
f 957 950 1029 1030
g Group34705
f 970 1083 1084 969
g Group34690
f 1013 1018 1085 1081
g Group34695
f 949 957 1030 1031
g Group34710
f 971 1086 1085 1018
g Group34705
f 969 1084 1086 971
g Group34690
f 1035 1034 1033 1032
g Group34715
f 976 978 1033 1034
g Group34705
f 955 939 978 976
g Group34690
f 1033 1037 1036 1032
g Group34695
f 958 939 1032 1036
g Group34715
f 978 977 1037 1033
g Group34705
f 978 939 958 977
g Group34690
f 1041 1040 1039 1038
g Group34710
f 944 959 1041 1038
g Group34715
f 979 980 1039 1040
g Group34705
f 959 944 980 979
g Group34690
f 1039 1034 1035 1038
g Group34715
f 980 976 1034 1039
g Group34705
f 980 944 955 976
g Group34690
f 1036 1037 1042 1023
g Group34695
f 964 958 1036 1023
g Group34715
f 977 982 1042 1037
g Group34705
f 958 964 982 977
g Group34690
f 1042 1043 1022 1023
g Group34715
f 982 981 1043 1042
g Group34705
f 982 964 963 981
g Group34690
f 1022 1043 1044 1024
g Group34715
f 981 983 1044 1043
g Group34705
f 963 965 983 981
g Group34690
f 1044 1040 1041 1024
g Group34710
f 959 965 1024 1041
g Group34715
f 983 979 1040 1044
g Group34705
f 983 965 959 979
g Group34690
f 1047 1046 1045 1027
g Group34695
f 967 946 1047 1027
g Group34720
f 984 986 1045 1046
g Group34705
f 946 967 986 984
g Group34690
f 1045 1048 1026 1027
g Group34720
f 986 985 1048 1045
g Group34705
f 986 967 966 985
g Group34690
f 1026 1048 1049 1028
g Group34720
f 985 988 1049 1048
g Group34705
f 966 968 988 985
g Group34690
f 1049 1051 1050 1028
g Group34710
f 945 968 1028 1050
g Group34720
f 988 987 1051 1049
g Group34705
f 988 968 945 987
g Group34690
f 1021 1053 1052 1020
g Group34720
f 989 990 1052 1053
g Group34705
f 961 960 990 989
g Group34690
f 1052 1046 1047 1020
g Group34695
f 946 960 1020 1047
g Group34720
f 990 984 1046 1052
g Group34705
f 990 960 946 984
g Group34690
f 1050 1051 1054 1025
g Group34710
f 962 945 1050 1025
g Group34720
f 987 991 1054 1051
g Group34705
f 945 962 991 987
g Group34690
f 1054 1053 1021 1025
g Group34720
f 991 989 1053 1054
g Group34705
f 991 962 961 989
g Group34690
f 1058 1057 1056 1055
g Group34725
f 992 994 1056 1057
g Group34705
f 954 938 994 992
g Group34690
f 1056 1060 1059 1055
g Group34695
f 972 938 1055 1059
g Group34725
f 994 993 1060 1056
g Group34705
f 994 938 972 993
g Group34690
f 1064 1063 1062 1061
g Group34710
f 943 973 1064 1061
g Group34725
f 995 996 1062 1063
g Group34705
f 973 943 996 995
g Group34690
f 1062 1057 1058 1061
g Group34725
f 996 992 1057 1062
g Group34705
f 996 943 954 992
g Group34690
f 1059 1060 1065 1032
g Group34695
f 939 972 1059 1032
g Group34725
f 993 998 1065 1060
g Group34705
f 972 939 998 993
g Group34690
f 1065 1066 1035 1032
g Group34725
f 998 997 1066 1065
g Group34705
f 998 939 955 997
g Group34690
f 1035 1066 1067 1038
g Group34725
f 997 999 1067 1066
g Group34705
f 955 944 999 997
g Group34690
f 1067 1063 1064 1038
g Group34710
f 973 944 1038 1064
g Group34725
f 999 995 1063 1067
g Group34705
f 999 944 973 995
g Group34690
f 1071 1070 1069 1068
g Group34730
f 1000 1002 1069 1070
g Group34705
f 953 937 1002 1000
g Group34690
f 1069 1073 1072 1068
g Group34695
f 974 937 1068 1072
g Group34730
f 1002 1001 1073 1069
g Group34705
f 1002 937 974 1001
g Group34690
f 1077 1076 1075 1074
g Group34710
f 942 975 1077 1074
g Group34730
f 1003 1004 1075 1076
g Group34705
f 975 942 1004 1003
g Group34690
f 1075 1070 1071 1074
g Group34730
f 1004 1000 1070 1075
g Group34705
f 1004 942 953 1000
g Group34690
f 1072 1073 1078 1055
g Group34695
f 938 974 1072 1055
g Group34730
f 1001 1006 1078 1073
g Group34705
f 974 938 1006 1001
g Group34690
f 1078 1079 1058 1055
g Group34730
f 1006 1005 1079 1078
g Group34705
f 1006 938 954 1005
g Group34690
f 1058 1079 1080 1061
g Group34730
f 1005 1007 1080 1079
g Group34705
f 954 943 1007 1005
g Group34690
f 1080 1076 1077 1061
g Group34710
f 975 943 1061 1077
g Group34730
f 1007 1003 1076 1080
g Group34705
f 1007 943 975 1003
g Group34695
f 936 1008 1068 937
g Group34705
f 952 936 937 953
g Group34690
f 1008 1009 1071 1068
g Group34705
f 941 952 953 942
g Group34710
f 1016 941 942 1074
g Group34690
f 1009 1016 1074 1071
f 1082 1081 1030 1029
g Group34695
f 1083 970 1012 1082
g Group34705
f 1083 950 957 1084
g Group34690
f 1081 1085 1031 1030
g Group34710
f 1086 949 1031 1085
g Group34705
f 1084 957 949 1086
g Group34815
f 1132 1131 1130 1129
g Group34820
f 1092 1087 1132 1129
g Group34825
f 1117 1118 1130 1131
g Group34830
f 1087 1092 1118 1117
g Group34815
f 1129 1130 1134 1133
g Group34820
f 1088 1092 1129 1133
g Group34830
f 1092 1088 1119 1118
g Group34815
f 1133 1134 1136 1135
g Group34820
f 1094 1088 1133 1135
g Group34830
f 1088 1094 1120 1119
g Group34815
f 1135 1136 1138 1137
g Group34820
f 1096 1094 1135 1137
g Group34830
f 1094 1096 1121 1120
g Group34815
f 1137 1138 1140 1139
g Group34820
f 1098 1096 1137 1139
g Group34845
f 1122 1098 1139 1140
g Group34830
f 1096 1098 1122 1121
g Group34840
f 1144 1143 1142 1141
g Group34845
f 1100 1089 1144 1141
g Group34850
f 1107 1113 1142 1143
g Group34855
f 1089 1100 1113 1107
g Group34860
f 1141 1142 1146 1145
g Group34845
f 1102 1100 1141 1145
g Group34850
f 1113 1114 1146 1142
g Group34865
f 1100 1102 1114 1113
g Group34860
f 1145 1146 1148 1147
g Group34845
f 1104 1102 1145 1147
g Group34850
f 1114 1115 1148 1146
g Group34865
f 1102 1104 1115 1114
g Group34860
f 1147 1148 1150 1149
g Group34845
f 1106 1104 1147 1149
g Group34870
f 1116 1106 1149 1150
g Group34865
f 1104 1106 1116 1115
g Group34815
f 1143 1144 1152 1151
g Group34850
f 1128 1107 1143 1151
g Group34845
f 1089 1127 1152 1144
g Group34830
f 1107 1128 1127 1089
g Group34815
f 1156 1155 1154 1153
g Group34845
f 1091 1090 1154 1155
g Group34830
f 1108 1109 1090 1091
g Group34815
f 1153 1154 1158 1157
g Group34845
f 1090 1093 1158 1154
g Group34830
f 1109 1110 1093 1090
g Group34815
f 1157 1158 1160 1159
g Group34845
f 1093 1095 1160 1158
g Group34830
f 1110 1111 1095 1093
g Group34815
f 1159 1160 1162 1161
g Group34845
f 1097 1112 1161 1162
f 1095 1097 1162 1160
g Group34830
f 1111 1112 1097 1095
g Group34860
f 1148 1164 1163 1150
g Group34870
f 1126 1116 1150 1163
g Group34875
f 1115 1125 1164 1148
g Group34865
f 1115 1116 1126 1125
g Group34815
f 1130 1156 1153 1134
g Group34880
f 1118 1108 1156 1130
g Group34830
f 1118 1119 1109 1108
g Group34815
f 1134 1153 1157 1136
g Group34830
f 1119 1120 1110 1109
g Group34815
f 1136 1157 1159 1138
g Group34830
f 1120 1121 1111 1110
g Group34815
f 1138 1159 1161 1140
g Group34845
f 1112 1122 1140 1161
g Group34830
f 1121 1122 1112 1111
g Group34885
f 1131 1132 1166 1165
g Group34825
f 1123 1117 1131 1165
g Group34820
f 1087 1099 1166 1132
g Group34890
f 1117 1123 1099 1087
g Group34860
f 1165 1166 1168 1167
g Group34825
f 1124 1123 1165 1167
g Group34820
f 1099 1101 1168 1166
g Group34865
f 1123 1124 1101 1099
g Group34860
f 1167 1168 1169 1164
g Group34825
f 1125 1124 1167 1164
g Group34820
f 1101 1103 1169 1168
g Group34865
f 1124 1125 1103 1101
g Group34860
f 1164 1169 1170 1163
g Group34870
f 1105 1126 1163 1170
g Group34820
f 1103 1105 1170 1169
g Group34865
f 1125 1126 1105 1103
g Group34815
f 1151 1152 1155 1156
g Group34850
f 1108 1128 1151 1156
g Group34845
f 1127 1091 1155 1152
g Group34830
f 1128 1108 1091 1127
g Group34895
f 1180 1172 1171 1179
f 1181 1173 1172 1180
f 1182 1174 1173 1181
f 1183 1175 1174 1182
f 1184 1176 1175 1183
f 1185 1177 1176 1184
f 1186 1178 1177 1185
f 1179 1171 1178 1186
f 1188 1180 1179 1187
f 1189 1181 1180 1188
f 1190 1182 1181 1189
f 1191 1183 1182 1190
f 1192 1184 1183 1191
f 1193 1185 1184 1192
f 1194 1186 1185 1193
f 1187 1179 1186 1194
f 1262 1261 1188 1187
f 1261 1260 1189 1188
f 1260 1259 1190 1189
f 1259 1258 1191 1190
f 1258 1265 1192 1191
f 1192 1265 1264 1193
f 1193 1264 1263 1194
f 1194 1263 1262 1187
f 1204 1196 1195 1203
f 1205 1197 1196 1204
f 1206 1198 1197 1205
f 1207 1199 1198 1206
f 1208 1200 1199 1207
f 1209 1201 1200 1208
f 1210 1202 1201 1209
f 1203 1195 1202 1210
f 1212 1204 1203 1211
f 1213 1205 1204 1212
f 1214 1206 1205 1213
f 1215 1207 1206 1214
f 1216 1208 1207 1215
f 1217 1209 1208 1216
f 1218 1210 1209 1217
f 1211 1203 1210 1218
f 1515 1514 1212 1211
f 1514 1513 1213 1212
f 1513 1520 1214 1213
f 1520 1519 1215 1214
f 1215 1519 1518 1216
f 1216 1518 1517 1217
f 1217 1517 1516 1218
f 1218 1516 1515 1211
f 1277 1276 1219 1220
f 1276 1275 1225 1219
f 1275 1274 1224 1225
f 1274 1273 1223 1224
f 1244 1281 1280 1222
f 1280 1279 1240 1222
f 1278 1277 1220 1221
f 1286 1285 1227 1226
f 1285 1284 1228 1227
f 1284 1283 1229 1228
f 1283 1282 1230 1229
f 1290 1289 1242 1243
f 1242 1289 1288 1241
f 1232 1287 1286 1226
f 1233 1254 1253 1234
f 1234 1253 1252 1235
f 1235 1252 1251 1236
f 1251 1250 1237 1236
f 1250 1257 1291 1237
f 1257 1256 1238 1291
f 1256 1255 1239 1238
f 1255 1254 1233 1239
f 1221 1287 1288 1240
f 1232 1231 1242 1241
f 1231 1294 1243 1242
f 1291 1238 1246 1245
f 1238 1239 1247 1246
f 1278 1279 1247 1239
f 1254 1195 1196 1253
f 1253 1196 1197 1252
f 1252 1197 1198 1251
f 1251 1198 1199 1250
f 1199 1200 1257 1250
f 1200 1201 1256 1257
f 1201 1202 1255 1256
f 1202 1195 1254 1255
f 1226 1227 1261 1262
f 1227 1228 1260 1261
f 1228 1229 1259 1260
f 1259 1229 1230 1258
f 1258 1230 1294 1265
f 1265 1294 1231 1264
f 1264 1231 1232 1263
f 1232 1226 1262 1263
f 1299 1539 1538 1266
f 1266 1538 1537 1462
f 1462 1537 1544 1267
f 1267 1544 1543 1268
f 1543 1542 1300 1268
f 1542 1541 1301 1300
f 1541 1540 1269 1301
f 1540 1539 1299 1269
f 1277 1233 1234 1276
f 1276 1234 1235 1275
f 1275 1235 1236 1274
f 1274 1236 1237 1273
f 1281 1245 1246 1280
f 1246 1247 1279 1280
f 1239 1233 1277 1278
f 1221 1240 1279 1278
f 1220 1219 1285 1286
f 1219 1225 1284 1285
f 1225 1224 1283 1284
f 1224 1223 1282 1283
f 1244 1222 1289 1290
f 1289 1222 1240 1288
f 1287 1221 1220 1286
f 1287 1232 1241 1288
f 1282 1293 1294 1230
f 1245 1281 1292 1291
f 1273 1237 1291 1292
f 1293 1290 1243 1294
f 1282 1223 1302 1248
f 1223 1273 1303 1302
f 1273 1292 1304 1303
f 1292 1281 1305 1304
f 1281 1244 1306 1305
f 1244 1290 1307 1306
f 1290 1293 1249 1307
f 1293 1282 1248 1249
g Group34905
f 1302 1316 1317 1248
f 1303 1323 1316 1302
f 1304 1322 1323 1303
f 1305 1321 1322 1304
f 1306 1320 1321 1305
f 1307 1319 1320 1306
f 1249 1318 1319 1307
f 1248 1317 1318 1249
g Group34910
f 1347 1340 1332 1333
f 1346 1347 1333 1334
f 1345 1346 1334 1335
f 1344 1345 1335 1336
f 1343 1344 1336 1337
f 1342 1343 1337 1338
f 1341 1342 1338 1339
f 1340 1341 1339 1332
g Group34915
f 1308 1309 1325 1324
f 1309 1310 1326 1325
f 1310 1311 1327 1326
f 1311 1312 1328 1327
f 1312 1313 1329 1328
f 1313 1314 1330 1329
f 1314 1315 1331 1330
f 1315 1308 1324 1331
g Group34920
f 1317 1316 1333 1332
f 1316 1323 1334 1333
f 1323 1322 1335 1334
f 1322 1321 1336 1335
f 1321 1320 1337 1336
f 1320 1319 1338 1337
f 1319 1318 1339 1338
f 1318 1317 1332 1339
g Group34910
f 1324 1325 1340 1347
f 1331 1324 1347 1346
f 1330 1331 1346 1345
f 1329 1330 1345 1344
f 1328 1329 1344 1343
f 1327 1328 1343 1342
f 1326 1327 1342 1341
f 1325 1326 1341 1340
g Group34895
f 1350 1349 1348 1351
f 1352 1350 1351 1353
f 1354 1352 1353 1355
f 1356 1354 1355 1357
f 1358 1356 1357 1359
f 1360 1358 1359 1361
f 1362 1360 1361 1363
f 1349 1362 1363 1348
f 1365 1364 1349 1350
f 1366 1365 1350 1352
f 1367 1366 1352 1354
f 1368 1367 1354 1356
f 1369 1368 1356 1358
f 1370 1369 1358 1360
f 1371 1370 1360 1362
f 1364 1371 1362 1349
f 1372 1364 1365 1373
f 1373 1365 1366 1374
f 1374 1366 1367 1375
f 1375 1367 1368 1376
f 1376 1368 1369 1377
f 1369 1370 1378 1377
f 1370 1371 1379 1378
f 1371 1364 1372 1379
f 1382 1381 1380 1383
f 1384 1382 1383 1385
f 1386 1384 1385 1387
f 1388 1386 1387 1389
f 1390 1388 1389 1391
f 1392 1390 1391 1393
f 1394 1392 1393 1395
f 1381 1394 1395 1380
f 1397 1396 1381 1382
f 1398 1397 1382 1384
f 1399 1398 1384 1386
f 1400 1399 1386 1388
f 1401 1400 1388 1390
f 1402 1401 1390 1392
f 1403 1402 1392 1394
f 1396 1403 1394 1381
f 1397 1521 1522 1396
f 1398 1528 1521 1397
f 1399 1527 1528 1398
f 1400 1526 1527 1399
f 1400 1401 1525 1526
f 1401 1402 1524 1525
f 1402 1403 1523 1524
f 1403 1396 1522 1523
f 1406 1405 1408 1407
f 1407 1408 1410 1409
f 1409 1410 1412 1411
f 1411 1412 1414 1413
f 1415 1418 1417 1416
f 1417 1418 1420 1419
f 1422 1421 1405 1406
f 1424 1423 1426 1425
f 1425 1426 1428 1427
f 1427 1428 1430 1429
f 1429 1430 1432 1431
f 1434 1433 1436 1435
f 1436 1438 1437 1435
f 1439 1423 1424 1440
f 1441 1444 1443 1442
f 1444 1446 1445 1443
f 1446 1448 1447 1445
f 1447 1448 1450 1449
f 1449 1450 1452 1451
f 1451 1452 1454 1453
f 1453 1454 1456 1455
f 1455 1456 1441 1442
f 1421 1420 1437 1440
f 1439 1438 1436 1457
f 1457 1436 1433 1458
f 1452 1460 1459 1454
f 1454 1459 1461 1456
f 1422 1456 1461 1419
f 1442 1443 1383 1380
f 1443 1445 1385 1383
f 1445 1447 1387 1385
f 1447 1449 1389 1387
f 1389 1449 1451 1391
f 1391 1451 1453 1393
f 1393 1453 1455 1395
f 1395 1455 1442 1380
f 1423 1372 1373 1426
f 1426 1373 1374 1428
f 1428 1374 1375 1430
f 1375 1376 1432 1430
f 1376 1377 1458 1432
f 1377 1378 1457 1458
f 1378 1379 1439 1457
f 1439 1379 1372 1423
f 1299 1266 1531 1532
f 1266 1462 1530 1531
f 1462 1267 1529 1530
f 1267 1268 1536 1529
f 1300 1535 1536 1268
f 1301 1534 1535 1300
f 1269 1533 1534 1301
f 1299 1532 1533 1269
f 1406 1407 1444 1441
f 1407 1409 1446 1444
f 1409 1411 1448 1446
f 1411 1413 1450 1448
f 1416 1417 1459 1460
f 1459 1417 1419 1461
f 1456 1422 1406 1441
f 1421 1422 1419 1420
f 1405 1424 1425 1408
f 1408 1425 1427 1410
f 1410 1427 1429 1412
f 1412 1429 1431 1414
f 1415 1434 1435 1418
f 1435 1437 1420 1418
f 1440 1424 1405 1421
f 1440 1437 1438 1439
f 1431 1432 1458 1463
f 1460 1452 1464 1416
f 1413 1464 1452 1450
f 1463 1458 1433 1434
f 1431 1465 1466 1414
f 1414 1466 1467 1413
f 1413 1467 1468 1464
f 1464 1468 1469 1416
f 1416 1469 1470 1415
f 1415 1470 1471 1434
f 1434 1471 1472 1463
f 1463 1472 1465 1431
g Group34930
f 1466 1465 1474 1473
f 1467 1466 1473 1475
f 1468 1467 1475 1476
f 1469 1468 1476 1477
f 1470 1469 1477 1478
f 1471 1470 1478 1479
f 1472 1471 1479 1480
f 1465 1472 1480 1474
g Group34935
f 1490 1489 1492 1491
f 1494 1493 1489 1490
f 1496 1495 1493 1494
f 1498 1497 1495 1496
f 1500 1499 1497 1498
f 1502 1501 1499 1500
f 1504 1503 1501 1502
f 1491 1492 1503 1504
g Group34940
f 1481 1506 1505 1482
f 1482 1505 1507 1488
f 1488 1507 1508 1487
f 1487 1508 1509 1486
f 1486 1509 1510 1485
f 1485 1510 1511 1484
f 1484 1511 1512 1483
f 1483 1512 1506 1481
g Group34945
f 1474 1492 1489 1473
f 1473 1489 1493 1475
f 1475 1493 1495 1476
f 1476 1495 1497 1477
f 1477 1497 1499 1478
f 1478 1499 1501 1479
f 1479 1501 1503 1480
f 1480 1503 1492 1474
g Group34935
f 1506 1490 1491 1505
f 1512 1494 1490 1506
f 1511 1496 1494 1512
f 1510 1498 1496 1511
f 1509 1500 1498 1510
f 1508 1502 1500 1509
f 1507 1504 1502 1508
f 1505 1491 1504 1507
g Group34950
f 1315 1314 1484 1483
f 1314 1313 1485 1484
f 1313 1312 1486 1485
f 1312 1311 1487 1486
f 1311 1310 1488 1487
f 1310 1309 1482 1488
f 1309 1308 1481 1482
f 1308 1315 1483 1481
g Group34895
f 1270 1295 1514 1515
f 1295 1296 1513 1514
f 1296 1297 1520 1513
f 1297 1271 1519 1520
f 1519 1271 1298 1518
f 1518 1298 1272 1517
f 1517 1272 1404 1516
f 1516 1404 1270 1515
f 1521 1295 1270 1522
f 1528 1296 1295 1521
f 1527 1297 1296 1528
f 1526 1271 1297 1527
f 1298 1271 1526 1525
f 1272 1298 1525 1524
f 1404 1272 1524 1523
f 1270 1404 1523 1522
f 1351 1348 1532 1531
f 1353 1351 1531 1530
f 1355 1353 1530 1529
f 1357 1355 1529 1536
f 1535 1359 1357 1536
f 1534 1361 1359 1535
f 1533 1363 1361 1534
f 1532 1348 1363 1533
f 1539 1171 1172 1538
f 1538 1172 1173 1537
f 1537 1173 1174 1544
f 1544 1174 1175 1543
f 1175 1176 1542 1543
f 1176 1177 1541 1542
f 1177 1178 1540 1541
f 1178 1171 1539 1540
g Group34955
f 1545 1586 1587 1553
f 1553 1587 1579 1558
f 1558 1579 1590 1557
f 1557 1590 1592 1556
f 1556 1592 1594 1555
f 1555 1594 1596 1554
f 1570 1571 1545 1553
f 1571 1577 1546 1545
f 1577 1576 1554 1546
f 1576 1575 1555 1554
f 1575 1574 1556 1555
f 1574 1573 1557 1556
f 1573 1572 1558 1557
f 1572 1570 1553 1558
f 1546 1548 1560 1545
f 1546 1554 1561 1548
f 1596 1612 1561 1554
f 1566 1582 1614 1560
f 1548 1551 1566 1560
f 1561 1567 1551 1548
f 1559 1563 1618 1630
f 1547 1632 1580 1562
f 1549 1578 1547 1562
f 1559 1578 1549 1563
f 1565 1622 1618
f 1563 1565 1618
f 1564 1562 1580 1581
f 1550 1549 1562 1564
f 1565 1563 1549 1550
f 1565 1568 1626 1622
f 1569 1583 1582 1566
f 1551 1552 1569 1566
f 1567 1568 1552 1551
f 1567 1561 1612 1629
f 1568 1567 1629 1626
f 1564 1581 1583 1569
f 1552 1550 1564 1569
f 1568 1565 1550 1552
f 1586 1545 1560 1614
f 1585 1584 1587 1586
f 1584 1588 1579 1587
f 1590 1579 1588 1589
f 1589 1591 1592 1590
f 1591 1593 1594 1592
f 1593 1595 1596 1594
f 1600 1584 1585 1601
f 1601 1585 1603 1602
f 1602 1603 1595 1604
f 1604 1595 1593 1605
f 1605 1593 1591 1606
f 1606 1591 1589 1607
f 1607 1589 1588 1608
f 1608 1588 1584 1600
f 1603 1585 1610 1609
f 1603 1609 1611 1595
f 1596 1595 1611 1612
f 1613 1610 1614 1582
f 1609 1610 1613 1615
f 1611 1609 1615 1616
f 1597 1630 1618 1617
f 1599 1619 1580 1632
f 1620 1619 1599 1598
f 1597 1617 1620 1598
f 1622 1621 1618
f 1617 1618 1621
f 1623 1581 1580 1619
f 1624 1623 1619 1620
f 1621 1624 1620 1617
f 1621 1622 1626 1625
f 1627 1613 1582 1583
f 1615 1613 1627 1628
f 1616 1615 1628 1625
f 1616 1629 1612 1611
f 1625 1626 1629 1616
f 1623 1627 1583 1581
f 1628 1627 1623 1624
f 1625 1628 1624 1621
f 1586 1614 1610 1585
g Group34960
f 1572 1573 1607 1608
f 1573 1574 1606 1607
f 1574 1575 1605 1606
f 1575 1576 1604 1605
f 1576 1577 1602 1604
f 1577 1571 1601 1602
f 1571 1570 1600 1601
f 1570 1572 1608 1600
g Group34955
f 1599 1632 1631 1598
f 1597 1598 1631 1630
f 1547 1578 1631 1632
f 1631 1578 1559 1630

 