# File exported by ZBrush version 2021
# www.zbrush.com
#Vertex Count 824
#Face Count 934
#Auto scale x=1.000000 y=1.000000 z=1.000000
#Auto offset x=0.000000 y=0.000000 z=0.000000
v 3.27422666 1.76486134 1.13458526
v 3.33383059 1.75551056 1.15290355
v 3.26581215 1.76513314 1.17561519
v 3.31964039 1.75713586 1.19543814
v 3.26558399 1.7759428 1.2075982
v 3.30206441 1.77620434 1.23120772
v 3.23670053 1.79904604 1.21411132
v 3.27509689 1.80832624 1.25339174
v 3.2097249 1.84009814 1.22005724
v 3.24889588 1.85316729 1.26351261
v 3.17993736 1.88730979 1.17825293
v 3.19881892 1.8879981 1.22204315
v 3.18920755 1.83528304 1.17197763
v 3.19269418 1.93629097 1.19079589
v 3.20188951 1.9247508 1.22070777
v 3.23406291 1.90354847 1.2616024
v 3.30380559 1.87389302 1.29750752
v 3.28474092 1.92598772 1.29293894
v 3.38475751 1.85148763 1.30190181
v 3.32876706 1.82541179 1.28468203
v 3.36430096 1.89862537 1.31439542
v 3.34255695 1.94627642 1.30927801
v 3.22824025 1.94703674 1.24583172
v 3.27478456 1.97133207 1.27302122
v 3.22467899 1.97652125 1.21419072
v 3.2742865 2.00580978 1.24080073
v 3.32915401 1.98672843 1.29004466
v 3.33288335 2.01899671 1.26150393
v 3.2840681 2.02492523 1.19883656
v 3.34584784 2.03733873 1.22322952
v 3.23103356 1.99238491 1.17307746
v 3.19621181 1.94724655 1.15076768
v 3.18180537 1.89467668 1.13368105
v 3.19121146 1.83966684 1.1240015
v 3.22037506 1.79181671 1.16957676
v 3.22464585 1.79354763 1.12447071
v 3.35443425 1.78970336 1.25816369
v 3.37825012 1.76949501 1.22158134
v 3.39746236 1.7681117 1.17810404
v 3.43053817 1.80062007 1.24468243
v 3.45173859 1.80161809 1.20526826
v 3.48649573 1.84787559 1.22868216
v 3.49961137 1.90110898 1.24600136
v 3.46432113 1.84296631 1.26360368
v 3.47413873 1.89135479 1.28176009
v 3.40492773 1.8166306 1.27681839
v 3.4376831 1.84354114 1.28384172
v 3.43373131 1.87649822 1.30122458
v 3.41851568 1.92221665 1.31208622
v 3.46167802 1.94220137 1.29202961
v 3.40416908 2.02865934 1.24178063
v 3.48835778 1.95594048 1.25486969
v 3.45367789 2.00108671 1.25299572
v 3.43099808 1.98583722 1.28850412
v 3.39388299 1.96471548 1.30775666
v 3.37114548 1.99127912 1.294909
v 3.38742137 2.01271295 1.27608275
v 3.25124168 1.86209487 1.14946961
v 3.24670624 1.92209482 1.16194725
v 3.25472998 1.96057629 1.17368888
v 3.29254269 1.81604027 1.15280771
v 3.32725668 1.79389095 1.1596018
v 3.32760334 1.97841477 1.20299255
v 3.40418577 1.96045899 1.22569751
v 3.43740916 1.90513229 1.22450685
v 3.36063814 1.86725378 1.18842423
v 3.38662433 1.20766377 1.039065
v 3.44906616 1.19856405 1.05877184
v 3.37834954 1.20802009 1.0801692
v 3.43479514 1.20026087 1.10128307
v 3.37888598 1.21899461 1.11247909
v 3.41746616 1.21949124 1.13709282
v 3.34943795 1.24215149 1.11862564
v 3.39053869 1.25178384 1.15915632
v 3.3225584 1.28338336 1.12443578
v 3.36468315 1.29685664 1.16923558
v 3.29229593 1.33066248 1.08219623
v 3.31272649 1.33157277 1.12671184
v 3.30022215 1.27830195 1.07552874
v 3.30750417 1.38008475 1.09565711
v 3.31717753 1.36859774 1.12584853
v 3.35077548 1.34752297 1.16752564
v 3.42342734 1.31810426 1.20500087
v 3.40511679 1.37047481 1.20054173
v 3.50761222 1.2959479 1.21112632
v 3.44780492 1.26934289 1.19212102
v 3.48792624 1.3433814 1.22376763
v 3.46668171 1.39126706 1.21863889
v 3.3459196 1.39124822 1.15200567
v 3.39594984 1.41603708 1.18077147
v 3.34275865 1.42083144 1.12041246
v 3.39618992 1.45067834 1.14872026
v 3.45375132 1.43190074 1.19942772
v 3.45840263 1.46434259 1.17116391
v 3.40656876 1.46984839 1.10693836
v 3.4721539 1.48276877 1.13316011
v 3.34943819 1.43671846 1.0793513
v 3.3110392 1.39101648 1.05557227
v 3.29392719 1.33796525 1.03746628
v 3.30183482 1.28258967 1.02734041
v 3.33147406 1.23466861 1.07334876
v 3.33541321 1.23630523 1.0280683
v 3.47318697 1.2334156 1.16563141
v 3.49699306 1.21305275 1.12912595
v 3.5165162 1.21161389 1.08579313
v 3.55312919 1.24472832 1.1540184
v 3.57486796 1.24570572 1.11485409
v 3.61314249 1.29256296 1.13984775
v 3.62893104 1.34634184 1.15828824
v 3.59019827 1.28762316 1.1744132
v 3.60236144 1.3364973 1.19354462
v 3.52724576 1.26083779 1.18594288
v 3.56257152 1.28813672 1.19414603
v 3.55977201 1.32138943 1.2119534
v 3.54552912 1.36742615 1.22307074
v 3.59118008 1.38772273 1.20419859
v 3.53326177 1.47439575 1.15320038
v 3.61914467 1.40158319 1.16761803
v 3.58434391 1.4469037 1.1654123
v 3.56049633 1.43153667 1.20041179
v 3.52110958 1.41011524 1.21860992
v 3.49801826 1.436728 1.20542597
v 3.51558589 1.45834898 1.1871339
v 3.36593222 1.30551457 1.05458593
v 3.36335969 1.36595845 1.0677216
v 3.37325358 1.40479421 1.08017051
v 3.40778613 1.25933551 1.05840396
v 3.4435327 1.23720502 1.06579613
v 3.45071458 1.42322206 1.11163258
v 3.53071308 1.40559935 1.13617432
v 3.56362557 1.35001158 1.13513064
v 3.48139166 1.31134367 1.09645533
v -3.30543994 1.58494448 1.07893085
v -3.36467099 1.57242012 1.09627497
v -3.29761886 1.58583951 1.12003898
v -3.35116648 1.57498741 1.13897895
v -3.2982583 1.59672403 1.15186715
v -3.33491468 1.59506106 1.17478704
v -3.27053403 1.62132573 1.15863061
v -3.30969142 1.62858438 1.19707465
v -3.2454791 1.66368222 1.16461575
v -3.28563618 1.67468023 1.20717477
v -3.21724557 1.71215057 1.1229223
v -3.23667383 1.71195018 1.16630268
v -3.22420382 1.65985059 1.11702799
v -3.23220968 1.76022911 1.13472676
v -3.24128723 1.74834775 1.16453766
v -3.27297878 1.72561752 1.20501017
v -3.34166669 1.69239401 1.23991346
v -3.32481861 1.74525046 1.23513937
v -3.42139959 1.66565203 1.24308812
v -3.36429715 1.64273667 1.22717678
v -3.40318465 1.71370875 1.25541102
v -3.38348436 1.76228976 1.25018084
v -3.26882624 1.76914906 1.18892264
v -3.31656479 1.7908287 1.21496391
v -3.26608276 1.79856228 1.15708732
v -3.31710195 1.82504725 1.18244314
v -3.37159013 1.80320167 1.23079705
v -3.37628936 1.8349924 1.20189476
v -3.32706093 1.84336352 1.1401633
v -3.38944029 1.85236692 1.16323959
v -3.27253007 1.81385493 1.11576104
v -3.23561263 1.77078294 1.09457588
v -3.21881294 1.71921515 1.07830596
v -3.22573757 1.66392278 1.06904399
v -3.25337934 1.61486721 1.11452937
v -3.25711083 1.61618757 1.06939733
v -3.3880229 1.60570812 1.20064008
v -3.41040563 1.58414387 1.16391563
v -3.42893123 1.58153724 1.12018966
v -3.46410179 1.6123023 1.1857146
v -3.48473596 1.61196208 1.14598035
v -3.52158474 1.65613222 1.16819703
v -3.53711271 1.70841574 1.18465435
v -3.4997735 1.65261983 1.20351672
v -3.51181054 1.70026063 1.22091829
v -3.43968868 1.62976646 1.21806943
v -3.47353315 1.65474176 1.22419309
v -3.47121238 1.68780803 1.24125039
v -3.45814132 1.73416686 1.25186479
v -3.50167799 1.75156474 1.23082745
v -3.44739007 1.84056019 1.18077158
v -3.52831435 1.76359462 1.19308245
v -3.49566125 1.81041836 1.19134879
v -3.4729228 1.79664874 1.22738075
v -3.43535542 1.7777841 1.24752509
v -3.41365575 1.80541586 1.23483181
v -3.43052125 1.82576012 1.21550536
v -3.28679513 1.68300366 1.09315741
v -3.28498435 1.74299585 1.1050806
v -3.29476475 1.78087759 1.11625957
v -3.32605314 1.63491427 1.09625494
v -3.35979032 1.61098408 1.10265815
v -3.36849165 1.79468512 1.14399969
v -3.44429445 1.77265405 1.1654576
v -3.47503233 1.71578025 1.16427171
v -3.39649868 1.68221879 1.13004648
v -3.39403939 1.02426362 0.98807621
v -3.45622134 1.0119059 1.00691902
v -3.38626909 1.02524483 1.02923095
v -3.44253373 1.01455342 1.04955446
v -3.3875935 1.03626287 1.06134712
v -3.42638659 1.03476381 1.0853281
v -3.35917234 1.06090784 1.0676558
v -3.40104293 1.06842887 1.10738349
v -3.33404684 1.1033957 1.07338273
v -3.37711548 1.11468434 1.11730456
v -3.30523228 1.15188741 1.03113949
v -3.326164 1.15185785 1.07525265
v -3.31100297 1.09936118 1.02496206
v -3.32250833 1.20026063 1.04377341
v -3.33206367 1.18843102 1.07389354
v -3.3652327 1.16581392 1.11522173
v -3.43698453 1.13276588 1.15183854
v -3.42073774 1.18580937 1.14705038
v -3.52016854 1.10618782 1.15691793
v -3.4592452 1.08291161 1.13919925
v -3.5025413 1.15446186 1.16925633
v -3.48318386 1.20320236 1.16388762
v -3.36193728 1.20949125 1.09929537
v -3.4131627 1.23152661 1.12692153
v -3.35959172 1.23895669 1.06745243
v -3.41439247 1.2658236 1.09451162
v -3.47165918 1.24421739 1.14442729
v -3.47726154 1.27610039 1.11574769
v -3.4249978 1.28414368 1.05240345
v -3.49123525 1.29350757 1.07736408
v -3.36638212 1.25421857 1.02617085
v -3.32597875 1.21077334 1.00356841
v -3.30660891 1.15887725 0.98636782
v -3.31222415 1.10333991 0.9767791
v -3.34044122 1.0542581 1.02282035
v -3.34392881 1.05548644 0.97752964
v -3.48285627 1.04570531 1.11279952
v -3.50540041 1.02400803 1.07624638
v -3.52434349 1.02133071 1.03271448
v -3.56292581 1.05255317 1.09984362
v -3.58420276 1.05216741 1.06040215
v -3.62449407 1.09676551 1.08416903
v -3.64255166 1.14943647 1.1016314
v -3.60181355 1.09326088 1.11909031
v -3.61608386 1.14125931 1.1373744
v -3.53809571 1.0701158 1.13191032
v -3.57449722 1.09536111 1.13921022
v -3.57320451 1.12864112 1.15660882
v -3.56094455 1.17522454 1.16735756
v -3.60705781 1.19282519 1.14753246
v -3.55208683 1.28191828 1.0964756
v -3.63504505 1.20490884 1.1103928
v -3.60209035 1.25184893 1.10817551
v -3.57812976 1.23802995 1.14369571
v -3.53821134 1.21896457 1.16275632
v -3.51608014 1.24662518 1.14964413
v -3.53423023 1.2670803 1.13083314
v -3.37737608 1.12275052 1.00272035
v -3.37732458 1.18304526 1.01515996
v -3.38886117 1.2211709 1.02697634
v -3.41736793 1.0745697 1.00643253
v -3.45226502 1.05065155 1.01353907
v -3.46723365 1.23539018 1.05693101
v -3.54661703 1.21359491 1.08036434
v -3.57726144 1.15653681 1.07949268
v -3.4932661 1.12242198 1.04265284
v 0.13727366 0.08785516 3.37330532
v 0.09812831 1.11705708 3.57662034
v 1.05058264 0.19969004 3.22148084
v 0.9639306 1.22784328 3.41961622
v 1.9217081 0.44592094 2.73697996
v 1.79155194 1.47359538 2.92317247
v 2.66242265 0.74979817 1.95231914
v 2.49687886 1.77785921 2.12516784
v 3.13006305 1.02587902 0.92687642
v 2.9429171 2.05454039 1.09176373
v 3.80624818 1.13073539 1.21139538
v 3.61622214 2.16789865 1.37056589
v -0.12402653 0.0735647 3.37134361
v -0.139822 1.10320138 3.57442665
v -1.03941571 0.14021801 3.20759058
v -1.00693392 1.17016768 3.4033966
v -1.91420197 0.34053355 2.71037578
v -1.83608245 1.37138128 2.89218759
v -2.65711593 0.60162156 1.91344153
v -2.54059338 1.63426065 2.08015775
v -3.12309145 0.84711849 0.87959814
v -2.98165583 1.88171553 1.03730726
v -3.80548405 0.91545558 1.15210866
v -3.66102218 1.95745682 1.30151939
v 2.38577079 1.75908947 2.05779218
v 2.5456767 0.73112052 1.88218402
v 3.03952169 1.02657985 0.77328956
v 2.8567357 2.05509471 0.94077426
v 0.0856533 1.13918113 3.46514225
v 0.123986 0.10996049 3.26181316
v 1.00525307 0.21399492 3.11338901
v 0.92104899 1.24220216 3.31204414
v 3.85128212 1.15681338 1.11101794
v 3.6594696 2.19411897 1.2694534
v 1.71103858 1.47081387 2.833673
v 1.83691024 0.44310602 2.64584016
v -3.03100156 0.85223025 0.72757071
v -2.5389707 0.58896505 1.84524631
v -2.4280672 1.62142038 2.01502466
v -2.8936584 1.88667106 0.8881281
v -0.99348008 0.15652674 3.10006809
v -0.11095714 0.09631574 3.25988292
v -0.12722766 1.12595903 3.46301174
v -0.9631806 1.1864978 3.29651331
v -3.85026693 0.93842518 1.05086267
v -3.703691 1.98069572 1.19942569
v -1.82831645 0.3417806 2.6204648
v -1.75433456 1.3725903 2.80413818
v -1.98544096 4.10375165 -1.26839876
v -2.40834879 -4.16132307 -0.74058926
v -2.94249391 4.14605855 0.42433512
v -3.08568835 -4.15762949 1.09192442
v -0.91365343 3.95163583 -1.96821856
v -1.23739934 -4.04192781 -1.50884509
v -2.22337913 1.8782382 -2.44500112
v -3.60475873 2.3319087 -0.30691492
v -2.27509808 0.48117485 -2.99083662
v -4.059834 0.72014337 -0.63956803
v -2.71816492 -0.54718846 -2.82545948
v -4.32929229 -0.72839009 -0.47047019
v -2.96595573 -2.08288359 -1.86264181
v -3.90953993 -2.38168716 0.24234664
v -0.68164181 1.41222643 -3.397722
v -0.45661604 0.21209925 -4.25448608
v -0.75673675 -0.30765199 -4.16114473
v -1.13610363 -1.75189769 -3.09299659
v -3.24353456 2.2983396 1.10330939
v -3.62543368 0.70983523 0.93427264
v -3.72251844 -0.84963315 1.0625478
v -3.15420937 -2.41743993 1.50378191
v -2.11622095 3.29966807 -1.69152069
v -3.1787877 3.5117495 0.14550256
v -0.86590457 3.02104854 -2.4933412
v -2.90760326 3.34135556 1.34962499
v -2.66303443 -3.44045925 -1.14255321
v -3.40600466 -3.56212973 0.78162705
v -1.24751269 -3.23716473 -2.08571004
v -2.70227432 -3.44985938 1.92053473
v -2.66672205 4.0464487 0.39432549
v -2.90981817 3.41599631 0.10982871
v -1.97366702 3.28079843 -1.52037036
v -1.81375765 4.06714296 -1.0941205
v -3.34512829 2.26013207 -0.34109598
v -3.80161643 0.69031429 -0.66092473
v -2.2726829 0.50438231 -2.75556254
v -2.1565032 1.90682411 -2.25419116
v -4.03237295 -0.70662534 -0.50983941
v -2.63370037 -0.57332503 -2.58335661
v -3.58599758 -2.31074547 0.18410348
v -2.73440265 -2.10601687 -1.6670084
v -3.0792582 -3.47589874 0.73840993
v -2.37267851 -3.44611549 -0.945764
v -0.83869075 3.07709407 -2.25015211
v -0.86355686 3.97457981 -1.70933151
v -0.56106042 0.28949317 -3.96751642
v -0.71036827 1.53519463 -3.1583848
v -0.79628372 -0.37687009 -3.83446383
v -1.06718981 -1.83989346 -2.77784991
v -1.12940585 -3.29680872 -1.76392865
v -2.67269015 3.26732134 1.22742676
v -3.01490354 2.23881506 0.96671104
v -2.93929481 -2.34115815 1.36378157
v -2.495193 -3.367877 1.80406355
v -3.49565315 -0.81298238 0.90319752
v -3.39946746 0.68637508 0.78434705
v -2.76396727 -4.06391716 1.06417965
v -2.10342884 -4.15335655 -0.53132599
v -1.10141897 -4.07911634 -1.17682242
v 2.0168147 4.10557699 -1.2682352
v 2.4426732 -4.15836381 -0.73984628
v 2.97399902 4.14878416 0.42495042
v 3.11951899 -4.15381431 1.09288382
v 0.94476026 3.95248699 -1.96819341
v 1.27174019 -4.04040384 -1.50846862
v 2.25374078 1.88054335 -2.44496893
v 3.63577652 2.33562231 -0.30627477
v 2.30528044 0.48366692 -2.99081277
v 4.09076404 0.72465354 -0.63885223
v 2.74891114 -0.54409182 -2.82523989
v 4.36055946 -0.72332382 -0.46953785
v 2.99798584 -2.07933259 -1.86201572
v 3.94165039 -2.37692737 0.24341678
v 0.71140629 1.41295063 -3.39776802
v 0.48596882 0.21260216 -4.25453043
v 0.78672707 -0.30680301 -4.16116428
v 1.16772508 -1.75055027 -3.09282112
v 3.27422785 2.301723 1.1042031
v 3.65608501 0.71391695 0.93526941
v 3.75350332 -0.84520953 1.0636084
v 3.18600964 -2.41356873 1.50472247
v 2.14718341 3.30171179 -1.69140029
v 3.21008372 3.5148127 0.1461302
v 0.89646244 3.02190017 -2.49334859
v 2.93850565 3.34420967 1.35044384
v 2.69647026 -3.43720579 -1.1418035
v 3.43916988 -3.55793261 0.78264957
v 1.280833 -3.23563623 -2.08538031
v 2.73499703 -3.44650507 1.92135822
v 2.69808316 4.04893541 0.39488434
v 2.94097757 3.41881537 0.11040097
v 2.00460553 3.28270769 -1.52022314
v 1.84507226 4.06881809 -1.09394204
v 3.37604045 2.26359319 -0.34049773
v 3.83247613 0.69454228 -0.66024541
v 2.30296278 0.50688016 -2.75548744
v 2.18691587 1.90906465 -2.25411963
v 4.06357431 -0.70190864 -0.50897193
v 2.66450905 -0.57031095 -2.58309316
v 3.61802816 -2.30638361 0.18508029
v 2.76642727 -2.10273599 -1.66640961
v 3.11232543 -3.47210335 0.73932921
v 2.4060769 -3.44320774 -0.94509005
v 0.8693189 3.07791948 -2.25013995
v 0.89468914 3.97538542 -1.70928835
v 0.59064042 0.29011273 -3.96755552
v 0.7402817 1.53594601 -3.15841436
v 0.82646852 -0.37597042 -3.83446073
v 1.09890294 -1.83862161 -2.77766776
v 1.16274774 -3.29542231 -1.76362109
v 2.70350313 3.26995825 1.22816073
v 3.0455234 2.24196958 0.96751904
v 2.97104454 -2.33755445 1.36465501
v 2.52784466 -3.36478781 1.80482339
v 3.52660346 -0.80883514 0.9041773
v 3.4300754 0.69020426 0.78525888
v 2.79768228 -4.06050157 1.06503689
v 2.13768863 -4.15076303 -0.53067445
v 1.13573336 -4.07775402 -1.17648279
v -2.82865786 3.37339282 0.61858385
v -2.68556213 3.71505618 0.77562791
v -2.94771194 3.80742025 0.85098284
v -3.20820879 3.24723625 0.56027889
v -3.6948657 0.70150286 0.01683223
v -3.24587822 2.28065896 0.26139211
v -3.50432682 2.35346841 0.34977173
v -3.95814919 0.73180431 0.10899758
v -3.85529351 -0.7703284 0.15215086
v -4.13689041 -0.8033418 0.25804364
v -3.3202877 -2.35136246 0.72133195
v -3.6008377 -2.43196868 0.82163214
v -2.82817864 -3.45013833 1.22017359
v -3.26446199 -3.29948186 1.11774206
v -2.91245222 -3.86246824 1.47620642
v -2.64333176 -3.76881861 1.4057734
v 2.8488779 3.36936879 0.6700868
v 2.71702194 3.68220067 0.81417512
v 2.97743749 3.77361655 0.89381921
v 3.19928598 3.21147537 0.61093878
v 3.26169347 2.28311753 0.32165223
v 3.70735192 0.7054221 0.08344566
v 3.96914625 0.7356888 0.18157517
v 3.51880049 2.35561156 0.41480469
v 3.86195945 -0.77083778 0.21734392
v 4.14032745 -0.8042531 0.32878303
v 3.3227334 -2.34888005 0.77583003
v 3.59835314 -2.42941212 0.8799178
v 2.83444571 -3.44179487 1.26943874
v 3.27380585 -3.35273003 1.19783759
v 2.92820596 -3.82669997 1.51482582
v 2.6642394 -3.73391366 1.44026041
v -2.30051636 3.29257679 -1.95465493
v -3.58121705 3.65589189 0.21281862
v -3.36042094 4.29635143 0.49315309
v -2.22491979 4.12541341 -1.53341817
v -0.8804177 2.87318587 -2.8532536
v -0.9684624 3.85669231 -2.35521841
v -3.58311271 3.369735 0.78375232
v -3.32453799 3.93725395 1.06629025
v -3.58610963 -4.29635143 1.17229926
v -3.26089 -3.9982922 1.69065761
v -3.63598442 -3.42520237 1.3499757
v -3.91121339 -3.68785405 0.87578344
v -2.89741778 -4.12906408 -1.05070066
v -3.11518001 -3.38747453 -1.44085419
v -1.44911205 -3.92289519 -2.0256505
v -1.42206633 -3.08376216 -2.58867597
v 3.3960371 4.29503917 0.49831289
v 3.61671996 3.65510177 0.21819591
v 2.33148002 3.29478907 -1.95458459
v 2.25635337 4.12744951 -1.53329515
v 0.91081357 2.87405848 -2.85329175
v 0.99947297 3.85759973 -2.35522699
v 3.35716223 3.89196252 1.10247123
v 3.57561731 3.32841157 0.82418853
v 3.9419136 -3.68709492 0.87390762
v 3.63184547 -3.48624396 1.43839323
v 3.26250577 -3.97469592 1.73668861
v 3.617455 -4.29606533 1.17058146
v 2.93177628 -4.1255126 -1.04981243
v 3.14861774 -3.38367867 -1.43999433
v 1.48340618 -3.92111516 -2.02522015
v 1.45527112 -3.08203506 -2.58832001
v -3.25247049 3.4568026 1.56776857
v -4.3204317 0.7711007 0.36417031
v -3.95565629 0.74322772 1.17713189
v -3.58055138 2.38416719 1.3314656
v -3.87139487 2.44337868 0.58885133
v -4.51173019 -0.85156738 0.53578591
v -4.05137157 -0.90833973 1.32028901
v -3.96996688 -2.54267835 1.07829892
v -3.4656527 -2.53643751 1.7336601
v -2.99862575 -3.58250284 2.12077665
v 3.29018664 3.45788407 1.55434203
v 3.61353468 2.39168763 1.32758748
v 3.98636651 0.74769258 1.17824757
v 4.32933092 0.77490901 0.43676042
v 3.88524031 2.44885063 0.64821434
v 4.08242464 -0.90328991 1.32144439
v 4.51172876 -0.85286009 0.60575568
v 3.49468755 -2.52899479 1.73850596
v 3.96009683 -2.53792023 1.1389594
v 3.01875114 -3.58240866 2.1359446
v 3.27468609 -1.98804068 1.51575708
v 3.33795142 -1.97134494 1.52064037
v 3.27105808 -1.98447179 1.5580337
v 3.32861948 -1.96945643 1.5655632
v 3.27320003 -1.99165511 1.59062838
v 3.31270933 -1.9859724 1.60620284
v 3.24184894 -2.01664733 1.6052941
v 3.28389191 -2.01790356 1.63687849
v 3.2099576 -2.05963254 1.62071061
v 3.25261688 -2.06402444 1.65681457
v 3.16900301 -2.11490964 1.58942043
v 3.19276785 -2.10863065 1.62941026
v 3.18449616 -2.06233215 1.57662904
v 3.17653513 -2.16168832 1.60356557
v 3.19067883 -2.14558839 1.63071382
v 3.23053312 -2.11628484 1.66284894
v 3.3089981 -2.07585859 1.68058598
v 3.28190755 -2.13048625 1.68514978
v 3.39418625 -2.04589366 1.66492307
v 3.33935976 -2.02661895 1.65779519
v 3.36836481 -2.09338426 1.68624246
v 3.3389666 -2.143785 1.69042122
v 3.21681904 -2.16259956 1.65226197
v 3.26310229 -2.17953252 1.67151999
v 3.2055397 -2.19655847 1.623703
v 3.25393009 -2.21835041 1.64214956
v 3.31730341 -2.18808841 1.67781865
v 3.31294775 -2.22381162 1.65103113
v 3.2561922 -2.24182891 1.59907138
v 3.31876134 -2.24578571 1.61094164
v 3.20508074 -2.21692609 1.58200562
v 3.1741054 -2.1771624 1.56328249
v 3.16492271 -2.12737226 1.54481375
v 3.18050241 -2.07208252 1.52862167
v 3.22119617 -2.01602697 1.56389439
v 3.22005724 -2.02249622 1.51836228
v 3.36691784 -1.99181842 1.62273657
v 3.38913798 -1.9737935 1.57987463
v 3.40325927 -1.97563409 1.53304433
v 3.44032239 -1.99784183 1.59397077
v 3.45654058 -2.00149989 1.55081045
v 3.4878056 -2.04222321 1.56997454
v 3.49538707 -2.09246802 1.5884
v 3.47065043 -2.03517913 1.60879004
v 3.47574901 -2.08067774 1.62863075
v 3.41631317 -2.01227998 1.63254404
v 3.44632792 -2.03562092 1.63465237
v 3.43976235 -2.0668919 1.65561497
v 3.41911506 -2.11271143 1.67389249
v 3.45698094 -2.13151717 1.64592945
v 3.38041806 -2.2295413 1.61578917
v 3.47706532 -2.14742398 1.60406708
v 3.43535566 -2.19604659 1.61362528
v 3.41925859 -2.17842912 1.65307927
v 3.38756656 -2.15805244 1.67894923
v 3.35927581 -2.18835949 1.67359137
v 3.37012267 -2.21081924 1.65281224
v 3.24023222 -2.08653044 1.54332888
v 3.22897601 -2.14600133 1.56169068
v 3.2330439 -2.18268775 1.5749005
v 3.2881906 -2.03604435 1.53418123
v 3.32683205 -2.00987935 1.53177809
v 3.30654716 -2.19063973 1.58990228
v 3.38834762 -2.16300964 1.59423995
v 3.42953205 -2.1046009 1.58125853
v 3.35351657 -2.07755041 1.55916917
v 3.45220112 -1.42427253 1.35510551
v 3.52002191 -1.4080553 1.36105394
v 3.44918441 -1.42194819 1.39388096
v 3.51100111 -1.40750181 1.40209019
v 3.45261335 -1.43014621 1.42424845
v 3.49551749 -1.42518293 1.4396094
v 3.42010974 -1.45540785 1.43761801
v 3.46645832 -1.45788264 1.46810233
v 3.3877809 -1.49871444 1.45218324
v 3.43506813 -1.50443327 1.48703813
v 3.34500813 -1.55300855 1.42335057
v 3.37146925 -1.54796266 1.46106207
v 3.35923576 -1.5000087 1.41063749
v 3.35553813 -1.60041213 1.43781447
v 3.37083983 -1.585065 1.46312987
v 3.41355419 -1.55682253 1.49345219
v 3.49722576 -1.51738691 1.5110538
v 3.47038412 -1.5720613 1.51605474
v 3.58770656 -1.48755157 1.49807393
v 3.52738165 -1.46762824 1.4893161
v 3.56239676 -1.53556954 1.51850688
v 3.53291273 -1.58599841 1.52295088
v 3.4004538 -1.60290455 1.48436856
v 3.45183801 -1.62076568 1.50407171
v 3.38901853 -1.6361804 1.45820331
v 3.44290781 -1.65892481 1.47730505
v 3.5111196 -1.62995564 1.51172328
v 3.50733876 -1.66510963 1.48744952
v 3.44533467 -1.6814413 1.43767333
v 3.51361846 -1.68620824 1.45070242
v 3.38838195 -1.6555705 1.41974127
v 3.35258984 -1.61488223 1.40057587
v 3.34002828 -1.56428766 1.38207566
v 3.35413694 -1.50840926 1.36627495
v 3.39670467 -1.45344376 1.39870417
v 3.39460516 -1.45858788 1.35676133
v 3.55480074 -1.43191349 1.4566313
v 3.57695961 -1.41268146 1.41719234
v 3.59110331 -1.41314959 1.37455606
v 3.63367652 -1.43757224 1.43242323
v 3.65024066 -1.44000005 1.39325022
v 3.68630981 -1.48168396 1.41298484
v 3.69722271 -1.53276097 1.43157279
v 3.66846275 -1.47568607 1.4480952
v 3.67650961 -1.52197969 1.4678725
v 3.6093533 -1.45306491 1.4677509
v 3.64286732 -1.47674465 1.47127509
v 3.63768744 -1.50867295 1.49140262
v 3.6178615 -1.55500078 1.5090537
v 3.65895009 -1.57337629 1.48472201
v 3.57979178 -1.67047703 1.45673942
v 3.68031311 -1.58830988 1.44690537
v 3.63765907 -1.63715231 1.45565092
v 3.62045669 -1.62040257 1.49143564
v 3.58588576 -1.60039734 1.51405942
v 3.55649113 -1.63045513 1.50901305
v 3.56873059 -1.65255403 1.49050772
v 3.4198122 -1.52371406 1.38195538
v 3.41066813 -1.58388769 1.40001022
v 3.41701841 -1.62115359 1.41321432
v 3.4693346 -1.47306978 1.37369632
v 3.50993728 -1.44698393 1.37196838
v 3.49738502 -1.63008379 1.42952323
v 3.58481383 -1.60302794 1.4354031
v 3.62640953 -1.54425537 1.42321503
v 3.54243874 -1.51590514 1.39976859
v -3.10515832 -2.10431957 1.49145782
v -3.16974091 -2.09000968 1.49612367
v -3.10162067 -2.10056591 1.53415429
v -3.16037464 -2.08772993 1.54151487
v -3.1033914 -2.10781717 1.56693935
v -3.14350843 -2.10362863 1.58244657
v -3.07056546 -2.13162827 1.58168983
v -3.11288547 -2.13447332 1.6132617
v -3.03631639 -2.17343711 1.59702146
v -3.07912015 -2.17943954 1.63311445
v -2.99237108 -2.22724723 1.56517648
v -3.01661825 -2.2218337 1.60541486
v -3.01056027 -2.17521095 1.55270826
v -2.99769902 -2.2743659 1.57890677
v -3.01272964 -2.2587552 1.60636305
v -3.05433511 -2.23091459 1.63881969
v -3.13545084 -2.19344615 1.65661168
v -3.10548877 -2.2470932 1.66082632
v -3.22286272 -2.16674041 1.64055669
v -3.168437 -2.1453247 1.63391518
v -3.19454336 -2.21328926 1.66174721
v -3.16248178 -2.26262569 1.66562962
v -3.03826618 -2.27677249 1.62774467
v -3.08416628 -2.29549551 1.64668297
v -3.02526116 -2.31037187 1.59865045
v -3.0730741 -2.33404827 1.61669337
v -3.13850855 -2.30616188 1.65258407
v -3.13240528 -2.34179878 1.62518787
v -3.07424736 -2.35769653 1.57296037
v -3.13725709 -2.36407876 1.58445024
v -3.0238552 -2.33080196 1.5563749
v -2.99454593 -2.28981256 1.538136
v -2.98771286 -2.23961877 1.5200901
v -3.0061326 -2.18487024 1.50422263
v -3.04981803 -2.13025546 1.5400784
v -3.04840469 -2.136734 1.49410593
v -3.19790935 -2.11155796 1.59871792
v -3.22120618 -2.09438133 1.55550599
v -3.23542308 -2.09680914 1.50815796
v -3.27173113 -2.12043714 1.56915497
v -3.28795909 -2.12475872 1.52546024
v -3.3176217 -2.16675949 1.54416132
v -3.32293319 -2.21738672 1.56217432
v -3.300601 -2.15900802 1.58352518
v -3.30362772 -2.20478344 1.60303401
v -3.24680137 -2.1339488 1.60808694
v -3.2760086 -2.15849399 1.60977935
v -3.26790928 -2.18954539 1.6306554
v -3.24491214 -2.23463249 1.64875173
v -3.28228902 -2.25496339 1.62007474
v -3.20032429 -2.35020947 1.58908796
v -3.30185127 -2.27172327 1.57750833
v -3.25742507 -2.31880521 1.58689928
v -3.24197101 -2.30048227 1.62702655
v -3.21090459 -2.27881479 1.65357732
v -3.18088769 -2.30807113 1.6480292
v -3.19080019 -2.33101224 1.62674033
v -3.06568527 -2.20161581 1.51848983
v -3.05145645 -2.26072573 1.53647184
v -3.05377197 -2.2976036 1.54937577
v -3.11649298 -2.15290403 1.50945389
v -3.15670728 -2.12817907 1.5070343
v -3.12760233 -2.30840158 1.56390869
v -3.21153926 -2.28389596 1.56802237
v -3.25587797 -2.2269926 1.55527305
v -3.1804378 -2.19697451 1.53378343
v -3.30915904 -1.54607391 1.33351993
v -3.37807035 -1.53234076 1.33924341
v -3.30618619 -1.54363727 1.37264084
v -3.3689785 -1.53145551 1.38067102
v -3.30926871 -1.55198168 1.40315902
v -3.35262489 -1.54860878 1.41843128
v -3.27547621 -1.57609546 1.41662025
v -3.32198405 -1.580307 1.4470539
v -3.24108171 -1.61829662 1.43113255
v -3.28839993 -1.62579941 1.46593451
v -3.19572305 -1.67112505 1.40186548
v -3.2225461 -1.66704821 1.43976593
v -3.21234512 -1.61853325 1.38941741
v -3.20426368 -1.71902942 1.41597271
v -3.22031021 -1.70421457 1.44153451
v -3.26449775 -1.6775043 1.4720875
v -3.35039877 -1.64111232 1.48968291
v -3.32103848 -1.6949079 1.4944067
v -3.44275808 -1.61459732 1.47631728
v -3.38287544 -1.59235703 1.46800804
v -3.4152379 -1.66178929 1.49665808
v -3.38341379 -1.71124148 1.50087356
v -3.24932909 -1.72320222 1.46261024
v -3.30028486 -1.74303817 1.48201358
v -3.23639249 -1.75612926 1.43601012
v -3.28967332 -1.78095686 1.45473492
v -3.35959243 -1.75448417 1.48928976
v -3.35429334 -1.78958869 1.46451306
v -3.29116845 -1.80362737 1.41455221
v -3.35974216 -1.81098556 1.42721986
v -3.23495531 -1.77555465 1.39706659
v -3.20070934 -1.73342704 1.37833333
v -3.19026875 -1.68224966 1.36020374
v -3.20691394 -1.62677311 1.34467291
v -3.25204443 -1.57325601 1.3775556
v -3.24975872 -1.57833194 1.33525013
v -3.41199541 -1.5575726 1.4351902
v -3.43511509 -1.5391072 1.39546048
v -3.44936513 -1.54010272 1.35238635
v -3.49115419 -1.56619572 1.41027557
v -3.50774955 -1.56924104 1.37065422
v -3.54231977 -1.61240172 1.38998031
v -3.55117797 -1.66404628 1.40820705
v -3.5245893 -1.60572433 1.42554605
v -3.53076505 -1.65246021 1.44504141
v -3.46600341 -1.58082246 1.44590985
v -3.49876475 -1.605829 1.4490683
v -3.49220705 -1.63765478 1.46911776
v -3.47029399 -1.68336558 1.4866327
v -3.51091718 -1.703341 1.46168267
v -3.42707037 -1.79771757 1.43304574
v -3.53181552 -1.7191236 1.42326796
v -3.48679494 -1.7664988 1.43190169
v -3.47015762 -1.74904799 1.46825742
v -3.43616485 -1.72767615 1.49146032
v -3.40527367 -1.75670123 1.48627924
v -3.41667652 -1.77932548 1.4673376
v -3.27234888 -1.64456772 1.3599441
v -3.26053547 -1.70454788 1.37767601
v -3.26529121 -1.74213326 1.39061641
v -3.32432961 -1.59563922 1.35174179
v -3.36629509 -1.57100188 1.34998297
v -3.34582591 -1.75411033 1.40647482
v -3.43503952 -1.7302829 1.41211867
v -3.47941112 -1.67291092 1.40010094
v -3.39608717 -1.64132666 1.377218
v 1.31989622 -0.56987893 3.54938292
v 1.20967519 -1.45261049 4.25453186
v 2.26239347 -0.69689101 3.04022264
v 2.05826067 -1.62744391 3.62727737
v 2.90377569 -0.98806899 2.25739717
v 2.63096642 -1.98132932 2.70147824
v 3.2005639 -1.28447866 1.28689408
v 2.90577817 -2.32958674 1.57307267
v 3.92145967 -1.29654085 1.42489123
v 3.58810949 -2.33325481 1.70639646
v -1.24231541 -0.51338797 3.52336692
v -1.09200549 -1.39096796 4.23276424
v -2.15590167 -0.69643622 3.01374292
v -1.9093045 -1.61854577 3.60424184
v -2.77379417 -1.03639709 2.2324655
v -2.45556545 -2.01966857 2.67697191
v -3.0563817 -1.37947869 1.26081132
v -2.7120018 -2.41515731 1.54205989
v -3.78168678 -1.42520427 1.39970111
v -3.40221738 -2.45223426 1.67593097
v 2.50928926 -1.98581194 2.65343689
v 2.76882743 -0.98880201 2.21205902
v 3.09058785 -1.30274093 1.16315341
v 2.80831217 -2.35435104 1.43362283
v 1.25071418 -0.63264012 3.4622848
v 1.14699566 -1.52643275 4.14753675
v 3.94820118 -1.32583034 1.33247387
v 3.61465549 -2.36779165 1.59580552
v 1.95567119 -1.66348505 3.54860949
v 2.14915013 -0.72574514 2.9721179
v -2.94504404 -1.39370226 1.13694524
v -2.63829898 -1.03217041 2.18730974
v -2.33275222 -2.02001142 2.62904763
v -2.61236858 -2.43650388 1.40218186
v -1.17191278 -0.57359808 3.43612074
v -1.0275172 -1.46307277 4.12534236
v -3.80742549 -1.45549488 1.30624282
v -3.42740297 -2.48800039 1.56371915
v -2.04168415 -0.72106534 2.94536709
v -1.80512952 -1.65141916 3.525074
v 0.0675528 -1.49498045 4.13651895
v 0.04810535 -0.60333126 3.44929671
v 0.06710517 -1.42201066 4.24372625
v 0.04799699 -0.54183644 3.53646874
g Group30684
f 1 2 4 3
f 3 4 6 5
f 5 6 8 7
f 7 8 10 9
f 11 13 9 12
f 12 15 14 11
f 10 16 12 9
f 17 18 16 10
f 19 21 17 20
f 22 18 17 21
f 8 20 17 10
f 16 18 24 23
f 15 12 16 23
f 15 23 25 14
f 25 23 24 26
f 27 28 26 24
f 28 30 29 26
f 25 26 29 31
f 14 25 31 32
f 11 14 32 33
f 34 13 11 33
f 34 36 35 13
f 35 7 9 13
f 5 7 35 3
f 3 35 36 1
f 4 38 37 6
f 4 2 39 38
f 39 41 40 38
f 43 45 44 42
f 41 42 44 40
f 46 37 38 40
f 47 48 19 46
f 46 40 44 47
f 48 47 44 45
f 49 48 45 50
f 48 49 21 19
f 37 46 19 20
f 8 6 37 20
f 52 53 54 50
f 52 50 45 43
f 49 50 54 55
f 54 57 56 55
f 27 22 55 56
f 21 49 55 22
f 51 57 54 53
f 56 57 28 27
f 22 27 24 18
f 28 57 51 30
f 58 34 33
f 36 34 58
f 59 33 32
f 58 33 59
f 60 32 31
f 59 32 60
f 60 31 29
f 61 36 58
f 1 36 61
f 62 1 61
f 2 1 62
f 39 2 62
f 63 29 30
f 60 29 63
f 63 30 51
f 64 51 53
f 63 51 64
f 64 53 52
f 65 52 43
f 64 52 65
f 65 43 42
f 65 42 41
f 59 60 63
f 41 39 62
f 66 41 62
f 65 41 66
f 66 62 61
f 64 65 66
f 63 64 66
f 59 63 66
f 58 59 66
f 58 66 61
f 67 68 70 69
f 69 70 72 71
f 71 72 74 73
f 73 74 76 75
f 77 79 75 78
f 78 81 80 77
f 76 82 78 75
f 83 84 82 76
f 85 87 83 86
f 88 84 83 87
f 74 86 83 76
f 82 84 90 89
f 81 78 82 89
f 81 89 91 80
f 91 89 90 92
f 93 94 92 90
f 94 96 95 92
f 91 92 95 97
f 80 91 97 98
f 77 80 98 99
f 100 79 77 99
f 100 102 101 79
f 101 73 75 79
f 71 73 101 69
f 69 101 102 67
f 70 104 103 72
f 70 68 105 104
f 105 107 106 104
f 109 111 110 108
f 107 108 110 106
f 112 103 104 106
f 113 114 85 112
f 112 106 110 113
f 114 113 110 111
f 115 114 111 116
f 114 115 87 85
f 103 112 85 86
f 74 72 103 86
f 118 119 120 116
f 118 116 111 109
f 115 116 120 121
f 120 123 122 121
f 93 88 121 122
f 87 115 121 88
f 117 123 120 119
f 122 123 94 93
f 88 93 90 84
f 94 123 117 96
f 124 100 99
f 102 100 124
f 125 99 98
f 124 99 125
f 126 98 97
f 125 98 126
f 126 97 95
f 127 102 124
f 67 102 127
f 128 67 127
f 68 67 128
f 105 68 128
f 129 95 96
f 126 95 129
f 129 96 117
f 130 117 119
f 129 117 130
f 130 119 118
f 131 118 109
f 130 118 131
f 131 109 108
f 131 108 107
f 125 126 129
f 107 105 128
f 132 107 128
f 131 107 132
f 132 128 127
f 130 131 132
f 129 130 132
f 125 129 132
f 124 125 132
f 124 132 127
f 133 135 136 134
f 135 137 138 136
f 137 139 140 138
f 139 141 142 140
f 143 144 141 145
f 144 143 146 147
f 142 141 144 148
f 149 142 148 150
f 151 152 149 153
f 154 153 149 150
f 140 142 149 152
f 148 155 156 150
f 147 155 148 144
f 147 146 157 155
f 157 158 156 155
f 159 156 158 160
f 160 158 161 162
f 157 163 161 158
f 146 164 163 157
f 143 165 164 146
f 166 165 143 145
f 166 145 167 168
f 167 145 141 139
f 137 135 167 139
f 135 133 168 167
f 136 138 169 170
f 136 170 171 134
f 171 170 172 173
f 175 174 176 177
f 173 172 176 174
f 178 172 170 169
f 179 178 151 180
f 178 179 176 172
f 180 177 176 179
f 181 182 177 180
f 180 151 153 181
f 169 152 151 178
f 140 152 169 138
f 184 182 186 185
f 184 175 177 182
f 181 187 186 182
f 186 187 188 189
f 159 188 187 154
f 153 154 187 181
f 183 185 186 189
f 188 159 160 189
f 154 150 156 159
f 160 162 183 189
f 165 166 190
f 190 166 168
f 164 165 191
f 191 165 190
f 163 164 192
f 192 164 191
f 161 163 192
f 190 168 193
f 193 168 133
f 193 133 194
f 194 133 134
f 194 134 171
f 162 161 195
f 195 161 192
f 183 162 195
f 185 183 196
f 196 183 195
f 184 185 196
f 175 184 197
f 197 184 196
f 174 175 197
f 173 174 197
f 195 192 191
f 194 171 173
f 194 173 198
f 198 173 197
f 193 194 198
f 198 197 196
f 198 196 195
f 198 195 191
f 198 191 190
f 193 198 190
f 199 201 202 200
f 201 203 204 202
f 203 205 206 204
f 205 207 208 206
f 209 210 207 211
f 210 209 212 213
f 208 207 210 214
f 215 208 214 216
f 217 218 215 219
f 220 219 215 216
f 206 208 215 218
f 214 221 222 216
f 213 221 214 210
f 213 212 223 221
f 223 224 222 221
f 225 222 224 226
f 226 224 227 228
f 223 229 227 224
f 212 230 229 223
f 209 231 230 212
f 232 231 209 211
f 232 211 233 234
f 233 211 207 205
f 203 201 233 205
f 201 199 234 233
f 202 204 235 236
f 202 236 237 200
f 237 236 238 239
f 241 240 242 243
f 239 238 242 240
f 244 238 236 235
f 245 244 217 246
f 244 245 242 238
f 246 243 242 245
f 247 248 243 246
f 246 217 219 247
f 235 218 217 244
f 206 218 235 204
f 250 248 252 251
f 250 241 243 248
f 247 253 252 248
f 252 253 254 255
f 225 254 253 220
f 219 220 253 247
f 249 251 252 255
f 254 225 226 255
f 220 216 222 225
f 226 228 249 255
f 231 232 256
f 256 232 234
f 230 231 257
f 257 231 256
f 229 230 258
f 258 230 257
f 227 229 258
f 256 234 259
f 259 234 199
f 259 199 260
f 260 199 200
f 260 200 237
f 228 227 261
f 261 227 258
f 249 228 261
f 251 249 262
f 262 249 261
f 250 251 262
f 241 250 263
f 263 250 262
f 240 241 263
f 239 240 263
f 261 258 257
f 260 237 239
f 260 239 264
f 264 239 263
f 259 260 264
f 264 263 262
f 264 262 261
f 264 261 257
f 264 257 256
f 259 264 256
g Group27622
f 292 291 290 289
f 272 274 292 289
f 273 271 290 291
f 274 272 271 273
f 296 295 294 293
f 266 268 296 293
f 267 265 294 295
f 268 266 265 267
f 298 297 291 292
f 274 276 298 292
f 275 273 291 297
f 276 275 297 298
f 276 274 273 275
f 289 290 300 299
f 270 272 289 299
f 271 269 300 290
f 272 270 269 271
f 299 300 295 296
f 268 270 299 296
f 269 267 295 300
f 270 268 267 269
f 304 303 302 301
f 283 285 301 302
f 286 284 303 304
f 286 285 283 284
f 308 307 306 305
f 277 279 305 306
f 280 278 307 308
f 280 279 277 278
f 310 304 301 309
f 287 288 310 309
f 285 287 309 301
f 288 286 304 310
f 288 287 285 286
f 303 312 311 302
f 281 283 302 311
f 284 282 312 303
f 284 283 281 282
f 312 308 305 311
f 279 281 311 305
f 282 280 308 312
f 282 281 279 280
f 294 306 307 293
f 278 266 293 307
f 265 277 306 294
f 265 266 278 277
g Group47370
f 346 345 344 343
g Group30695
f 315 313 346 343
g Group47370
f 350 349 348 347
g Group47367
f 319 320 322 321
g Group47370
f 349 352 351 348
g Group47367
f 321 322 324 323
g Group47370
f 352 354 353 351
g Group47367
f 323 324 326 325
g Group47370
f 354 356 355 353
g Group47367
f 325 326 340 339
g Group47370
f 358 357 345 346
g Group30695
f 313 317 358 346
g Group47370
f 360 359 349 350
g Group47367
f 327 319 321 328
g Group47370
f 359 361 352 349
g Group47367
f 328 321 323 329
g Group47370
f 361 362 354 352
g Group47367
f 329 323 325 330
g Group47370
f 362 363 356 354
g Group47367
f 330 325 339 341
g Group47370
f 343 344 433 434
g Group30695
f 338 435 434 364
g Group47370
f 347 348 437 438
g Group47367
f 320 439 440 322
g Group47370
f 348 351 441 437
g Group47367
f 322 440 442 324
g Group47370
f 351 353 443 441
g Group47367
f 324 442 444 326
g Group47370
f 353 355 445 443
g Group47367
f 326 444 446 340
g Group30695
f 331 338 364 365
f 314 316 370 371
f 316 447 448 370
f 342 334 366 367
g Group47370
f 355 370 448 445
g Group30695
f 334 333 368 366
g Group47370
f 356 371 370 355
g Group30695
f 333 332 369 368
f 332 331 365 369
f 318 314 371 372
g Group47370
f 363 372 371 356
f 345 350 347 344
g Group47367
f 335 336 320 319
g Group47370
f 357 360 350 345
g Group47367
f 337 335 319 327
g Group47370
f 344 347 438 433
g Group47367
f 336 436 439 320
g Group47370
f 406 403 404 405
g Group30695
f 375 403 406 373
g Group47370
f 410 407 408 409
g Group47367
f 379 381 382 380
g Group47370
f 409 408 411 412
g Group47367
f 381 383 384 382
g Group47370
f 412 411 413 414
g Group47367
f 383 385 386 384
g Group47370
f 414 413 415 416
g Group47367
f 385 399 400 386
g Group47370
f 418 406 405 417
g Group30695
f 373 406 418 377
g Group47370
f 420 410 409 419
g Group47367
f 387 388 381 379
g Group47370
f 419 409 412 421
g Group47367
f 388 389 383 381
g Group47370
f 421 412 414 422
g Group47367
f 389 390 385 383
g Group47370
f 422 414 416 423
g Group47367
f 390 401 399 385
g Group47370
f 449 404 403 450
g Group30695
f 398 424 450 451
g Group47370
f 407 453 454 408
g Group47367
f 380 382 455 456
g Group47370
f 408 454 457 411
g Group47367
f 382 384 458 455
g Group47370
f 411 457 459 413
g Group47367
f 384 386 460 458
g Group47370
f 413 459 461 415
g Group47367
f 386 400 462 460
g Group30695
f 391 425 424 398
f 374 431 430 376
f 376 430 464 463
f 402 427 426 394
g Group47370
f 464 430 415 461
g Group30695
f 394 426 428 393
g Group47370
f 416 415 430 431
g Group30695
f 393 428 429 392
f 392 429 425 391
f 378 432 431 374
g Group47370
f 423 416 431 432
f 405 404 407 410
g Group47367
f 395 379 380 396
g Group47370
f 417 405 410 420
g Group47367
f 397 387 379 395
g Group47370
f 404 449 453 407
g Group47367
f 396 380 456 452
f 390 330 341 401
f 389 329 330 390
f 388 328 329 389
f 387 327 328 388
f 397 337 327 387
g Group30695
f 418 358 317 377
g Group47370
f 358 418 417 357
f 357 417 420 360
f 360 420 419 359
f 359 419 421 361
f 361 421 422 362
f 362 422 423 363
f 363 423 432 372
g Group30695
f 372 432 378 318
g Group47370
f 433 364 434
g Group30695
f 435 315 343 434
g Group47370
f 438 437 369 365
f 437 441 368 369
f 441 443 366 368
f 443 445 367 366
g Group30695
f 447 342 367 448
g Group47370
f 448 367 445
f 433 438 365 364
f 424 449 450
g Group30695
f 451 450 403 375
g Group47370
f 453 425 429 454
f 454 429 428 457
f 457 428 426 459
f 459 426 427 461
g Group30695
f 463 464 427 402
g Group47370
f 427 464 461
f 449 424 425 453
g Group30692
f 468 467 466 465
g Group30695
f 336 335 465 466
f 313 315 467 468
g Group30692
f 470 468 465 469
g Group30695
f 335 337 469 465
f 317 313 468 470
g Group30692
f 467 472 471 466
g Group30695
f 436 336 466 471
f 315 435 472 467
g Group30692
f 476 475 474 473
g Group30695
f 447 316 473 474
f 340 446 475 476
g Group30692
f 478 476 473 477
g Group30695
f 316 314 477 473
f 339 340 476 478
g Group30692
f 480 478 477 479
g Group30695
f 314 318 479 477
f 341 339 478 480
g Group30692
f 484 483 482 481
g Group30695
f 375 373 484 481
f 395 396 482 483
g Group30692
f 486 485 483 484
g Group30695
f 373 377 486 484
f 397 395 483 485
g Group30692
f 482 488 487 481
g Group30695
f 451 375 481 487
f 396 452 488 482
g Group30692
f 492 491 490 489
g Group30695
f 462 400 489 490
f 376 463 491 492
g Group30692
f 494 493 492 489
g Group30695
f 400 399 494 489
f 374 376 492 493
g Group30692
f 496 495 493 494
g Group30695
f 399 401 496 494
f 378 374 493 495
g Group30692
f 496 480 479 495
g Group30695
f 318 378 495 479
f 401 341 480 496
g Group30692
f 486 470 469 485
g Group30695
f 337 397 485 469
f 377 317 470 486
g Group30692
f 472 497 471
g Group30695
f 435 338 497 472
g Group30692
f 501 500 499 498
g Group30695
f 440 439 501 498
f 331 332 499 500
g Group30692
f 498 499 503 502
g Group30695
f 442 440 498 502
f 332 333 503 499
g Group30692
f 502 503 505 504
g Group30695
f 444 442 502 504
f 333 334 505 503
g Group30692
f 504 505 506 475
g Group30695
f 446 444 504 475
f 334 342 506 505
g Group30692
f 475 506 474
g Group30695
f 342 447 474 506
g Group30692
f 471 497 500 501
g Group30695
f 439 436 471 501
f 338 331 500 497
g Group30692
f 488 507 487
g Group30695
f 398 451 487 507
g Group30692
f 511 510 509 508
g Group30695
f 392 391 508 509
f 456 455 510 511
g Group30692
f 510 513 512 509
g Group30695
f 393 392 509 512
f 455 458 513 510
g Group30692
f 513 515 514 512
g Group30695
f 394 393 512 514
f 458 460 515 513
g Group30692
f 515 490 516 514
g Group30695
f 402 394 514 516
f 460 462 490 515
g Group30692
f 491 516 490
g Group30695
f 463 402 516 491
g Group30692
f 488 511 508 507
g Group30695
f 391 398 507 508
f 452 456 511 488
g Group22846
f 517 519 520 518
f 519 521 522 520
f 521 523 524 522
f 523 525 526 524
f 527 528 525 529
f 528 527 530 531
f 526 525 528 532
f 533 526 532 534
f 535 536 533 537
f 538 537 533 534
f 524 526 533 536
f 532 539 540 534
f 531 539 532 528
f 531 530 541 539
f 541 542 540 539
f 543 540 542 544
f 544 542 545 546
f 541 547 545 542
f 530 548 547 541
f 527 549 548 530
f 550 549 527 529
f 550 529 551 552
f 551 529 525 523
f 521 519 551 523
f 519 517 552 551
f 520 522 553 554
f 520 554 555 518
f 555 554 556 557
f 559 558 560 561
f 557 556 560 558
f 562 556 554 553
f 563 562 535 564
f 562 563 560 556
f 564 561 560 563
f 565 566 561 564
f 564 535 537 565
f 553 536 535 562
f 524 536 553 522
f 568 566 570 569
f 568 559 561 566
f 565 571 570 566
f 570 571 572 573
f 543 572 571 538
f 537 538 571 565
f 567 569 570 573
f 572 543 544 573
f 538 534 540 543
f 544 546 567 573
f 549 550 574
f 574 550 552
f 548 549 575
f 575 549 574
f 547 548 576
f 576 548 575
f 545 547 576
f 574 552 577
f 577 552 517
f 577 517 578
f 578 517 518
f 578 518 555
f 546 545 579
f 579 545 576
f 567 546 579
f 569 567 580
f 580 567 579
f 568 569 580
f 559 568 581
f 581 568 580
f 558 559 581
f 557 558 581
f 579 576 575
f 578 555 557
f 578 557 582
f 582 557 581
f 577 578 582
f 582 581 580
f 582 580 579
f 582 579 575
f 582 575 574
f 577 582 574
f 583 585 586 584
f 585 587 588 586
f 587 589 590 588
f 589 591 592 590
f 593 594 591 595
f 594 593 596 597
f 592 591 594 598
f 599 592 598 600
f 601 602 599 603
f 604 603 599 600
f 590 592 599 602
f 598 605 606 600
f 597 605 598 594
f 597 596 607 605
f 607 608 606 605
f 609 606 608 610
f 610 608 611 612
f 607 613 611 608
f 596 614 613 607
f 593 615 614 596
f 616 615 593 595
f 616 595 617 618
f 617 595 591 589
f 587 585 617 589
f 585 583 618 617
f 586 588 619 620
f 586 620 621 584
f 621 620 622 623
f 625 624 626 627
f 623 622 626 624
f 628 622 620 619
f 629 628 601 630
f 628 629 626 622
f 630 627 626 629
f 631 632 627 630
f 630 601 603 631
f 619 602 601 628
f 590 602 619 588
f 634 632 636 635
f 634 625 627 632
f 631 637 636 632
f 636 637 638 639
f 609 638 637 604
f 603 604 637 631
f 633 635 636 639
f 638 609 610 639
f 604 600 606 609
f 610 612 633 639
f 615 616 640
f 640 616 618
f 614 615 641
f 641 615 640
f 613 614 642
f 642 614 641
f 611 613 642
f 640 618 643
f 643 618 583
f 643 583 644
f 644 583 584
f 644 584 621
f 612 611 645
f 645 611 642
f 633 612 645
f 635 633 646
f 646 633 645
f 634 635 646
f 625 634 647
f 647 634 646
f 624 625 647
f 623 624 647
f 645 642 641
f 644 621 623
f 644 623 648
f 648 623 647
f 643 644 648
f 648 647 646
f 648 646 645
f 648 645 641
f 648 641 640
f 643 648 640
f 649 650 652 651
f 651 652 654 653
f 653 654 656 655
f 655 656 658 657
f 659 661 657 660
f 660 663 662 659
f 658 664 660 657
f 665 666 664 658
f 667 669 665 668
f 670 666 665 669
f 656 668 665 658
f 664 666 672 671
f 663 660 664 671
f 663 671 673 662
f 673 671 672 674
f 675 676 674 672
f 676 678 677 674
f 673 674 677 679
f 662 673 679 680
f 659 662 680 681
f 682 661 659 681
f 682 684 683 661
f 683 655 657 661
f 653 655 683 651
f 651 683 684 649
f 652 686 685 654
f 652 650 687 686
f 687 689 688 686
f 691 693 692 690
f 689 690 692 688
f 694 685 686 688
f 695 696 667 694
f 694 688 692 695
f 696 695 692 693
f 697 696 693 698
f 696 697 669 667
f 685 694 667 668
f 656 654 685 668
f 700 701 702 698
f 700 698 693 691
f 697 698 702 703
f 702 705 704 703
f 675 670 703 704
f 669 697 703 670
f 699 705 702 701
f 704 705 676 675
f 670 675 672 666
f 676 705 699 678
f 706 682 681
f 684 682 706
f 707 681 680
f 706 681 707
f 708 680 679
f 707 680 708
f 708 679 677
f 709 684 706
f 649 684 709
f 710 649 709
f 650 649 710
f 687 650 710
f 711 677 678
f 708 677 711
f 711 678 699
f 712 699 701
f 711 699 712
f 712 701 700
f 713 700 691
f 712 700 713
f 713 691 690
f 713 690 689
f 707 708 711
f 689 687 710
f 714 689 710
f 713 689 714
f 714 710 709
f 712 713 714
f 711 712 714
f 707 711 714
f 706 707 714
f 706 714 709
f 715 716 718 717
f 717 718 720 719
f 719 720 722 721
f 721 722 724 723
f 725 727 723 726
f 726 729 728 725
f 724 730 726 723
f 731 732 730 724
f 733 735 731 734
f 736 732 731 735
f 722 734 731 724
f 730 732 738 737
f 729 726 730 737
f 729 737 739 728
f 739 737 738 740
f 741 742 740 738
f 742 744 743 740
f 739 740 743 745
f 728 739 745 746
f 725 728 746 747
f 748 727 725 747
f 748 750 749 727
f 749 721 723 727
f 719 721 749 717
f 717 749 750 715
f 718 752 751 720
f 718 716 753 752
f 753 755 754 752
f 757 759 758 756
f 755 756 758 754
f 760 751 752 754
f 761 762 733 760
f 760 754 758 761
f 762 761 758 759
f 763 762 759 764
f 762 763 735 733
f 751 760 733 734
f 722 720 751 734
f 766 767 768 764
f 766 764 759 757
f 763 764 768 769
f 768 771 770 769
f 741 736 769 770
f 735 763 769 736
f 765 771 768 767
f 770 771 742 741
f 736 741 738 732
f 742 771 765 744
f 772 748 747
f 750 748 772
f 773 747 746
f 772 747 773
f 774 746 745
f 773 746 774
f 774 745 743
f 775 750 772
f 715 750 775
f 776 715 775
f 716 715 776
f 753 716 776
f 777 743 744
f 774 743 777
f 777 744 765
f 778 765 767
f 777 765 778
f 778 767 766
f 779 766 757
f 778 766 779
f 779 757 756
f 779 756 755
f 773 774 777
f 755 753 776
f 780 755 776
f 779 755 780
f 780 776 775
f 778 779 780
f 777 778 780
f 773 777 780
f 772 773 780
f 772 780 775
g Group44820
f 804 801 802 803
f 786 801 804 788
f 787 803 802 785
f 788 787 785 786
f 806 821 822 805
f 792 816 821 823
f 781 805 822 824
f 782 781 824 823
f 808 804 803 807
f 788 804 808 790
f 789 807 803 787
f 790 808 807 789
f 790 789 787 788
f 801 809 810 802
f 784 809 801 786
f 785 802 810 783
f 786 785 783 784
f 809 806 805 810
f 782 806 809 784
f 783 810 805 781
f 784 783 781 782
f 814 811 812 813
f 795 812 811 797
f 798 814 813 796
f 798 796 795 797
f 794 792 791 793
f 794 820 816 792
f 791 815 819 793
f 820 819 815 816
f 818 817 811 814
f 799 817 818 800
f 797 811 817 799
f 800 818 814 798
f 800 798 797 799
f 813 812 819 820
f 793 819 812 795
f 796 813 820 794
f 796 794 793 795
f 821 816 815 822
f 823 821 806 782
f 824 822 815 791
f 823 824 791 792

 