# File exported by ZBrush version 2021
# www.zbrush.com
#Vertex Count 972
#Face Count 1082
#Auto scale x=1.000000 y=1.000000 z=1.000000
#Auto offset x=0.000000 y=0.000000 z=0.000000
v -1.49402344 -1.58962762 -2.13829612
v -2.05160856 -1.49130189 -1.40193629
v -1.68912494 -0.51963728 -2.52251815
v -2.29758977 -0.46997577 -1.697528
v -1.695315 0.62328499 -2.49895906
v -2.31177949 0.608693 -1.6954981
v -1.45757567 1.69025933 -2.03941392
v -2.03806352 1.61089384 -1.3598479
v -0.57814914 -1.66193389 -2.61078262
v -0.65429401 -0.56699836 -3.08545827
v -0.65739089 0.61399203 -3.04430246
v -0.56215965 1.71955168 -2.47441482
v -1.2507925 -2.3524909 -1.64620542
v -1.77985727 -2.23524904 -1.00603878
v -0.48502671 -2.43356895 -2.00714159
v -1.22661995 2.47296118 -1.6005727
v -1.78520703 2.34042859 -1.0172646
v -0.47153765 2.53068924 -1.9327445
v -1.93928885 -2.29195308 -1.0490086
v -1.34185421 -2.39347934 -1.74713516
v -2.1805644 -1.53784048 -1.44342684
v -2.41357278 -0.48044514 -1.73937571
v -1.74275624 -0.52151221 -2.57517528
v -1.56194007 -1.62685751 -2.20508003
v -2.42979002 0.6364516 -1.74183654
v -1.75168001 0.65220975 -2.55733871
v -2.17020082 1.66617894 -1.41463434
v -1.52882659 1.74587369 -2.12077808
v -1.95383143 2.38401055 -1.09038984
v -1.32149386 2.52011847 -1.71616125
v -0.51314473 -2.47156715 -2.12892818
v -0.66706585 -0.5618788 -3.1316905
v -0.5973488 -1.69122481 -2.68273305
v -0.67145192 0.64187294 -3.09687757
v -0.58319765 1.7721827 -2.56282711
v -0.50091689 2.57765507 -2.07002019
v -2.02925682 -2.15359115 -0.66736757
v -1.84894168 -2.14776015 -0.60046643
v -2.49607181 -0.45184606 -1.14636457
v -2.27189159 -1.47378218 -0.91749745
v -2.11867857 -1.4286319 -0.87106984
v -2.35248994 -0.43735492 -1.09432935
v -2.51007318 0.62696534 -1.15462076
v -2.36453056 0.60241085 -1.09953463
v -2.27132797 1.60548162 -0.92026633
v -2.11577749 1.56449294 -0.85507005
v -2.07032251 2.22846698 -0.7384572
v -1.87770831 2.25645995 -0.60811829
v -1.31946253 -2.82235693 -1.64148342
v -1.88336968 -2.6081748 -0.89336627
v -0.50957095 -2.92259621 -2.00601768
v -1.96877288 -2.37666583 -0.55188894
v -2.05143451 2.45833563 -0.62009519
v -1.91291797 2.718822 -0.92896503
v -1.28106463 2.94930958 -1.62207806
v -0.4819442 3.03351402 -1.94384288
v -2.03288888 -2.19464707 -0.40744948
v -2.62903833 -0.45474749 -0.82481378
v -2.34099912 -1.49402344 -0.61861944
v -2.6439495 0.64668417 -0.83653962
v -2.360713 1.64369952 -0.62859201
v -2.11542415 2.26724672 -0.48783102
v 1.4940263 -1.58962762 -2.13829565
v 2.05161094 -1.49130368 -1.40193545
v 1.68912828 -0.51963728 -2.5225172
v 2.29759216 -0.46997577 -1.69752705
v 1.69531679 0.62328499 -2.49895763
v 2.31178188 0.608693 -1.69549691
v 1.4575771 1.69025933 -2.03941297
v 2.03806638 1.61089384 -1.35984695
v 0.57815188 -1.66193389 -2.61078262
v 0.65429723 -0.56699836 -3.0854578
v 0.65739375 0.61399203 -3.04430198
v 0.56216251 1.71955168 -2.47441434
v 1.250795 -2.3524909 -1.64620482
v 1.77985978 -2.23524904 -1.00603783
v 0.48502913 -2.43356895 -2.00714111
v 1.22662186 2.47296118 -1.60057234
v 1.78520882 2.34042859 -1.017264
v 0.47153997 2.53068733 -1.93274438
v 1.93929088 -2.29195308 -1.04900765
v 1.34185731 -2.39347934 -1.7471348
v 2.18056583 -1.53784048 -1.44342541
v 2.41357326 -0.48044514 -1.73937439
v 1.74275887 -0.52151221 -2.57517433
v 1.56194281 -1.62685751 -2.20507907
v 2.4297924 0.6364516 -1.74183476
v 1.75168216 0.65220975 -2.55733776
v 2.1702032 1.66617894 -1.41463315
v 1.52882921 1.74587369 -2.12077808
v 1.95383417 2.38401055 -1.09038853
v 1.32149612 2.52011847 -1.71616077
v 0.51314741 -2.47156715 -2.1289277
v 0.66706848 -0.5618788 -3.13169002
v 0.59735202 -1.69122481 -2.68273305
v 0.67145443 0.64187294 -3.09687709
v 0.58320063 1.7721827 -2.56282711
v 0.50091981 2.57765364 -2.07002019
v 2.02925968 -2.15359115 -0.66736638
v 1.84894323 -2.14776015 -0.60046559
v 2.49607276 -0.45184606 -1.1463629
v 2.27189207 -1.47378218 -0.91749596
v 2.11868047 -1.4286319 -0.87106889
v 2.35249137 -0.43735492 -1.09432876
v 2.51007509 0.62696534 -1.15461909
v 2.36453342 0.60241085 -1.09953367
v 2.27132844 1.60548162 -0.92026484
v 2.11577749 1.56449294 -0.85506898
v 2.07032442 2.22846698 -0.73845589
v 1.87770962 2.25645995 -0.6081171
v 1.31946456 -2.82235527 -1.64148247
v 1.88337004 -2.6081748 -0.89336544
v 0.50957322 -2.92259621 -2.00601768
v 1.96877467 -2.37666583 -0.55188798
v 2.05143642 2.45833563 -0.62009418
v 1.91292035 2.718822 -0.92896395
v 1.28106713 2.94930958 -1.6220771
v 0.48194682 3.03351402 -1.94384288
v 2.03289079 -2.19464707 -0.40744847
v 2.62904119 -0.45474749 -0.82481271
v 2.34100103 -1.49402344 -0.61861771
v 2.64395093 0.64668417 -0.83653795
v 2.36071443 1.64369952 -0.62859082
v 2.11542558 2.26724672 -0.48782968
v -2.80211257 -3.07860159 -1.14147877
v -1.7653805 -3.32504916 -2.15400362
v -0.65451055 -3.39560222 -2.48212194
v -2.81547498 3.15717816 -1.21608984
v -2.9690938 2.78522253 -0.63596636
v -2.92936182 -2.73713851 -0.54592454
v -3.00134325 -2.54389596 -0.38644987
v -3.04248094 2.59118795 -0.47138077
v -1.62112975 3.37354803 -2.05373621
v -0.58060801 3.43629312 -2.36865806
v -3.47832107 -0.54527908 -0.76154488
v -3.25283956 -1.76735746 -0.56457006
v -3.50335598 0.75237608 -0.79030352
v -3.219985 1.93384051 -0.57261741
v 1.76538264 -3.32504916 -2.15400314
v 2.80211401 -3.07860159 -1.14147687
v 0.65451288 -3.39560222 -2.48212194
v 2.96909523 2.7852199 -0.63596463
v 2.81547641 3.15717816 -1.21608853
v 2.92936372 -2.73713851 -0.54592347
v 3.00134515 -2.54389596 -0.38644814
v 3.0424838 2.59118795 -0.47137951
v 1.62113297 3.37354803 -2.05373525
v 0.58061099 3.43629312 -2.36865758
v 3.4783225 -0.54527908 -0.76154339
v 3.25284004 -1.76735746 -0.56456887
v 3.50335884 0.75237608 -0.79030227
v 3.21998691 1.93384051 -0.57261383
v -0.65651297 -3.62857818 -2.36190605
v 0.65651541 -3.62858033 -2.36190557
v 0.46553504 -3.07272982 -1.73891878
v -0.46553278 -3.07272982 -1.73891878
v 0.56557774 3.62858033 -2.23502063
v -0.565575 3.62858033 -2.23502063
v -0.43845844 3.18410539 -1.68839132
v 0.43846082 3.18410539 -1.68839108
v 2.99591016 -2.54351925 -0.12363767
v 3.25216865 -1.71933424 -0.2942394
v 2.20862484 -1.4097023 -0.37358504
v 1.86866927 -2.14184403 -0.1548075
v 3.22647571 1.88298738 -0.31156539
v 3.02931308 2.63695001 -0.1699593
v 1.93334758 2.27193188 -0.18474155
v 2.23456144 1.56325936 -0.38068443
v 3.50933122 0.7328509 -0.51474666
v 2.50976133 0.61047017 -0.58268648
v 3.48018407 -0.53084194 -0.48317635
v 2.49074888 -0.42555588 -0.57117843
v 1.57294893 3.61376094 -1.97871422
v 1.14326155 3.10819172 -1.40118801
v 2.74285411 3.39424586 -1.08876407
v 1.6980896 2.87429046 -0.73899459
v 2.71235609 -3.32559251 -1.00067055
v 2.8738327 -2.89205789 -0.41539597
v 1.77212739 -2.46473836 -0.4007191
v 1.64562761 -2.76482009 -0.70245134
v -2.71235418 -3.32559251 -1.0006721
v -1.71793425 -3.5973258 -2.0565629
v -1.16531467 -2.98197746 -1.40814137
v -1.64562594 -2.76482009 -0.70245212
v -2.74285364 3.39424586 -1.08876574
v -2.90705776 2.98414421 -0.46775484
v -1.83389639 2.59220552 -0.41297984
v -1.69808745 2.87429213 -0.73899537
v -2.99591016 -2.54351925 -0.1236394
v -2.87383127 -2.89205789 -0.41539758
v -1.77212619 -2.46473836 -0.40071988
v -1.86866736 -2.14184403 -0.15480887
v -3.02931165 2.63695168 -0.16996049
v -1.93334627 2.27193188 -0.18474263
v -1.57294631 3.61376094 -1.97871553
v -1.14325916 3.10819172 -1.40118861
v -3.48018169 -0.53084194 -0.48317807
v -3.25216674 -1.71933424 -0.29424023
v -2.20862245 -1.4097023 -0.37358602
v -2.49074649 -0.42555588 -0.5711798
v -3.50933122 0.7328509 -0.51474833
v -2.5097599 0.61047017 -0.58268785
v -3.22647476 1.88298738 -0.3115676
v -2.23456001 1.56325936 -0.38068556
v 1.71793735 -3.5973258 -2.05656385
v 1.16531717 -2.98197746 -1.40814054
v 2.90706014 2.98414206 -0.46775335
v 1.83389794 2.59220361 -0.4129793
v -0.55021512 -3.05523777 -2.13952827
v 0.55021733 -3.05523777 -2.13952779
v 0.5096144 3.1464622 -2.06297063
v -0.50961172 3.1464622 -2.06297111
v 2.30446672 -2.29258441 -0.40155988
v 2.59670162 -1.57067251 -0.60346156
v 2.60167408 1.72506165 -0.61289304
v 2.37539386 2.35808634 -0.48321664
v 2.88494777 0.67632257 -0.82357221
v 2.86719799 -0.48013451 -0.80707019
v 1.37642872 3.06827545 -1.74312388
v 2.16601657 2.84174776 -1.00948011
v -2.14100503 -2.74009203 -0.96294254
v -1.44450807 -2.96332263 -1.78520584
v -2.16601562 2.84174776 -1.00948143
v -2.30876636 2.55000209 -0.62454557
v -2.30446529 -2.29258441 -0.40156096
v -2.23814344 -2.47775006 -0.55021643
v -2.37539196 2.35808634 -0.48321801
v -1.37642681 3.06827545 -1.74312484
v -2.86719703 -0.48013451 -0.80707168
v -2.59669971 -1.57067251 -0.60346281
v -2.88494586 0.67632257 -0.82357394
v -2.60167169 1.72506165 -0.61289513
v 1.44450986 -2.96332144 -1.78520488
v 2.14100599 -2.74009203 -0.96294122
v 2.30876827 2.55000162 -0.62454468
v 2.23814582 -2.47775006 -0.55021536
v -0.60418307 -3.23136091 -2.31680488
v 0.60418593 -3.23136091 -2.3168044
v 0.54635173 3.29643702 -2.22114992
v -0.54634946 3.29643702 -2.22115039
v 2.66506958 -2.42262673 -0.39374017
v 2.93622303 -1.67244768 -0.58333569
v 2.92162275 1.83309531 -0.59205061
v 2.72058153 2.47870612 -0.47709149
v 3.20494699 0.71567672 -0.8063569
v 3.18342781 -0.51384389 -0.78351199
v 1.50305175 3.22624015 -1.90385127
v 2.50208282 3.00496912 -1.11639034
v -2.48309707 -2.9152553 -1.05532622
v -1.61054396 -3.15050005 -1.97604179
v -2.50208091 3.00496912 -1.11639201
v -2.65045547 2.67171859 -0.63045549
v -2.66506767 -2.42262673 -0.39374136
v -2.59581756 -2.61197233 -0.54799568
v -2.72058057 2.47870612 -0.47709286
v -1.50304961 3.22624015 -1.90385234
v -3.18342447 -0.51384389 -0.78351324
v -2.93622207 -1.67244768 -0.58333754
v -3.20494461 0.71567672 -0.80635821
v -2.92162132 1.83309531 -0.59205329
v 1.61054718 -3.15049934 -1.97604131
v 2.48309946 -2.9152553 -1.05532515
v 2.65045833 2.67171764 -0.63045424
v 2.59581852 -2.61197233 -0.54799437
v 0.50024193 -3.17374301 -1.85213327
v -0.50023955 -3.17374301 -1.85213387
v -0.46155917 3.26487946 -1.78772985
v 0.46156162 3.26487946 -1.7877295
v 2.02892255 2.66343164 -0.42293369
v 2.13251733 2.33826637 -0.18205541
v 2.39826774 -1.46597182 -0.35916602
v 2.07352161 -2.21484017 -0.14914327
v 2.4148221 1.62136316 -0.36812353
v 1.97233939 -2.54239487 -0.40338635
v 2.69141244 0.63271051 -0.57033932
v 2.67055797 -0.44468948 -0.55518597
v 1.88795363 2.96878171 -0.80255776
v 1.22134864 3.20006823 -1.50614142
v 1.26574468 -3.09380507 -1.52597808
v 1.83948314 -2.86672997 -0.75664669
v -1.26574206 -3.09380507 -1.52597868
v -1.83948123 -2.86672997 -0.75664752
v -2.07352066 -2.21484017 -0.14914447
v -2.39826631 -1.46597182 -0.35916721
v -2.02892112 2.66343259 -0.42293444
v -1.88795173 2.96878361 -0.80255883
v -1.9723382 -2.54239487 -0.40338739
v -2.41482019 1.62136316 -0.36812496
v -2.13251543 2.33826661 -0.18205624
v -2.69141149 0.63271051 -0.57034099
v -1.22134602 3.20006823 -1.50614202
v -2.67055702 -0.44468948 -0.5551871
v 0.55364102 -3.32916283 -2.02632379
v -0.55363822 -3.32916164 -2.02632427
v -0.49710166 3.38915705 -1.94057011
v 0.49710422 3.38915705 -1.94056987
v 2.32898378 2.77301907 -0.43824839
v 2.43895387 2.44032764 -0.17792165
v 2.69004726 -1.55254626 -0.33697992
v 2.38870382 -2.32715082 -0.1404277
v 2.69216585 1.71076083 -0.34879696
v 2.28038168 -2.66187548 -0.40749043
v 2.97089815 0.66692841 -0.5513432
v 2.9472084 -0.474128 -0.53058034
v 2.18007612 3.11416363 -0.90035533
v 1.34149158 3.34142851 -1.66762113
v 1.42025983 -3.26585888 -1.70728063
v 2.13774585 -3.02352428 -0.84003007
v -1.42025744 -3.26585888 -1.70728075
v -2.13774442 -3.02352428 -0.84003132
v -2.38870382 -2.32715082 -0.14042878
v -2.69004535 -1.55254626 -0.33698153
v -2.32898235 2.7730205 -0.43824976
v -2.18007421 3.11416411 -0.90035659
v -2.28038024 -2.66187548 -0.40749132
v -2.69216442 1.71076083 -0.34879887
v -2.43895244 2.44032812 -0.1779229
v -2.97089719 0.66692841 -0.55134451
v -1.34148824 3.34142851 -1.66762125
v -2.94720745 -0.474128 -0.53058189
v 0.60976547 -3.49251389 -2.20940494
v -0.60976266 -3.49251294 -2.20940542
v -0.5344581 3.51977777 -2.10121154
v 0.53446102 3.51977777 -2.10121154
v 2.64436149 2.88820004 -0.45434498
v 2.76103353 2.54759717 -0.17357772
v 2.99672126 -1.64353978 -0.31366181
v 2.71997451 -2.445194 -0.13126796
v 2.98366642 1.80472123 -0.32848441
v 2.60414695 -2.78745484 -0.41180312
v 3.26464748 0.70289349 -0.53137767
v 3.23798131 -0.50506925 -0.50471842
v 2.48710727 3.26696562 -1.00314438
v 1.46776616 3.4900031 -1.8373425
v 1.58266294 -3.44669461 -1.89783704
v 2.45123291 -3.18832159 -0.92767006
v -1.5826596 -3.44669461 -1.89783656
v -2.45123148 -3.18832159 -0.92767107
v -2.71997404 -2.445194 -0.13126927
v -2.99671936 -1.64353978 -0.31366384
v -2.64436054 2.88820147 -0.45434677
v -2.48710584 3.26696586 -1.00314605
v -2.60414552 -2.78745484 -0.41180479
v -2.98366451 1.80472123 -0.32848656
v -2.76103115 2.54759836 -0.17357903
v -3.264647 0.70289349 -0.53137928
v -1.46776402 3.4900031 -1.83734333
v -3.23797941 -0.50506925 -0.50472003
v 3.00468826 0.35117995 -0.43388706
v 3.05290842 0.31783816 -0.43014693
v 3.00930786 0.36029905 -0.38816952
v 3.05406665 0.33096236 -0.38142943
v 3.02112913 0.37545493 -0.35701727
v 3.05613088 0.36255729 -0.34312653
v 3.00737953 0.41252753 -0.34726607
v 3.05113744 0.40998715 -0.31954002
v 3.00039529 0.46702522 -0.34316134
v 3.04731988 0.46858546 -0.31208908
v 2.98006868 0.52288955 -0.39027059
v 3.00716495 0.52099239 -0.34966981
v 2.96969938 0.4648399 -0.38676792
v 3.00889062 0.56901538 -0.39279305
v 3.02075576 0.55701041 -0.36103951
v 3.05090141 0.52630728 -0.32211387
v 3.10661315 0.46930187 -0.29784345
v 3.10695171 0.53034412 -0.30973005
v 3.16402769 0.41034731 -0.3125056
v 3.10720539 0.40720593 -0.30700135
v 3.16682624 0.46896624 -0.30464327
v 3.16379404 0.52666878 -0.31508302
v 3.0557022 0.57127296 -0.34774947
v 3.10807895 0.57855188 -0.33890271
v 3.0535202 0.59896826 -0.3873676
v 3.10982084 0.60996401 -0.38122534
v 3.16097307 0.57161057 -0.34119153
v 3.16640949 0.59933102 -0.38033247
v 3.11204528 0.61993682 -0.43311274
v 3.17182159 0.60757303 -0.42911088
v 3.05231332 0.60719037 -0.43655574
v 3.00424051 0.57354283 -0.43881279
v 2.97182846 0.52382606 -0.43973958
v 2.95976734 0.46221816 -0.43913489
v 2.98030185 0.40656977 -0.38769429
v 2.97207403 0.40068811 -0.43701154
v 3.10852003 0.35618865 -0.33397805
v 3.11040973 0.32061317 -0.37481808
v 3.11268568 0.30547663 -0.42614483
v 3.16695165 0.33132374 -0.3743956
v 3.17241811 0.31822174 -0.42270255
v 3.22049665 0.35187187 -0.42044413
v 3.25290203 0.40158635 -0.41951847
v 3.21187496 0.36094757 -0.37555098
v 3.24041175 0.40740132 -0.37149131
v 3.16139459 0.36289399 -0.33656883
v 3.19733619 0.37601786 -0.34604251
v 3.20994043 0.41317606 -0.33464813
v 3.21620082 0.46771544 -0.32971715
v 3.25053167 0.46573841 -0.369277
v 3.22004032 0.57423335 -0.42536771
v 3.2649641 0.46319443 -0.42012321
v 3.25265407 0.52472448 -0.42224586
v 3.2401762 0.52372258 -0.37406694
v 3.2097187 0.52164161 -0.33705091
v 3.19696378 0.55757403 -0.35006392
v 3.21145248 0.56966429 -0.38017642
v 3.02076244 0.46241411 -0.43533361
v 3.03937864 0.52721226 -0.43560159
v 3.06112909 0.56438398 -0.43506228
v 3.03963518 0.39773532 -0.43273234
v 3.06155395 0.3607026 -0.43055033
v 3.13247203 0.55361425 -0.43037605
v 3.19291877 0.50331914 -0.42549991
v 3.20023918 0.43192052 -0.42347049
v 3.11847496 0.42403882 -0.4283961
v 2.90228748 -0.28014123 -0.43118548
v 2.95050621 -0.31348133 -0.42744565
v 2.90690946 -0.27102017 -0.385468
v 2.95166111 -0.30035901 -0.3787263
v 2.91872739 -0.25586563 -0.3543176
v 2.95372533 -0.26876288 -0.34042525
v 2.90498399 -0.21879285 -0.34456414
v 2.94873333 -0.22133266 -0.31683963
v 2.89799356 -0.16429427 -0.34046161
v 2.94491767 -0.16273418 -0.30938583
v 2.87766313 -0.10842984 -0.38756889
v 2.90476131 -0.11032736 -0.3469702
v 2.86729621 -0.16648006 -0.38406747
v 2.90648841 -0.06230357 -0.3900913
v 2.91835832 -0.07430958 -0.35833889
v 2.94849968 -0.10501208 -0.31941503
v 3.00421237 -0.16201788 -0.2951436
v 3.00454664 -0.10097569 -0.30702722
v 3.06162738 -0.22097313 -0.30980432
v 3.0047965 -0.224114 -0.30429995
v 3.06443071 -0.16235351 -0.30194354
v 3.06139135 -0.10465171 -0.3123821
v 2.95330095 -0.06004652 -0.34504884
v 3.0056734 -0.05276751 -0.33620142
v 2.95111942 -0.03235095 -0.3846637
v 3.00741815 -0.02135521 -0.37852525
v 3.05857038 -0.05970963 -0.33849108
v 3.06400728 -0.03198888 -0.3776319
v 3.00964593 -0.01138266 -0.43041074
v 3.06942319 -0.02374598 -0.42641103
v 2.94990921 -0.02412897 -0.43385547
v 2.90183925 -0.05777669 -0.43611109
v 2.86943531 -0.10749369 -0.43703752
v 2.85736465 -0.16910159 -0.43643206
v 2.87790107 -0.2247492 -0.38499182
v 2.86967515 -0.2306323 -0.43431007
v 3.00612354 -0.27513176 -0.3312745
v 3.00800657 -0.31070715 -0.3721174
v 3.01028347 -0.32584333 -0.42344522
v 3.06455087 -0.29999607 -0.37169587
v 3.07001352 -0.31309843 -0.42000162
v 3.11809015 -0.27944928 -0.4177432
v 3.15049839 -0.2297343 -0.41681683
v 3.10947179 -0.27037221 -0.37285077
v 3.13800621 -0.22391778 -0.36878943
v 3.05899 -0.26842552 -0.33386778
v 3.09492683 -0.25530117 -0.34334254
v 3.10753536 -0.2181431 -0.33194661
v 3.11379814 -0.16360431 -0.32701683
v 3.14811849 -0.16558203 -0.36657619
v 3.1176362 -0.05708661 -0.42266774
v 3.16256237 -0.16812604 -0.41742014
v 3.15024805 -0.10659527 -0.4195441
v 3.13776969 -0.10759761 -0.37136673
v 3.10731649 -0.10967853 -0.33435142
v 3.09456157 -0.07374614 -0.34736335
v 3.10904836 -0.06165546 -0.37747466
v 2.91835165 -0.16890639 -0.43263363
v 2.93697643 -0.10410764 -0.43290072
v 2.95873689 -0.06693571 -0.43236231
v 2.93723964 -0.23358571 -0.43003183
v 2.95914459 -0.27061653 -0.42784947
v 3.03006792 -0.07770514 -0.42767512
v 3.09051799 -0.12800058 -0.42279958
v 3.09784412 -0.19939863 -0.42076981
v 3.01607132 -0.20728093 -0.42569589
v -3.00161409 0.43036496 -0.43304836
v -3.05069112 0.39830607 -0.42929357
v -3.00598335 0.43960267 -0.38732999
v -3.05149126 0.41145607 -0.38057726
v -3.01738548 0.45506474 -0.35617393
v -3.05270195 0.44309425 -0.34227353
v -3.00264978 0.49176201 -0.34642696
v -3.04645443 0.49037596 -0.31868785
v -2.99423646 0.54605639 -0.34232425
v -3.04109334 0.54885315 -0.31123787
v -2.97245597 0.60136568 -0.3894388
v -2.99958038 0.60018301 -0.34883004
v -2.96362972 0.54306292 -0.38594055
v -3.00005626 0.6482352 -0.39195275
v -3.01222705 0.6365472 -0.36019617
v -3.04316234 0.60664928 -0.32126331
v -3.10035324 0.55113226 -0.29697644
v -3.09907531 0.61216211 -0.3088625
v -3.15930271 0.49371206 -0.31162208
v -3.10257053 0.48907327 -0.30613338
v -3.16054916 0.55238401 -0.30376035
v -3.15599727 0.60998654 -0.31420034
v -3.04678726 0.65172588 -0.34689706
v -3.09893846 0.66038322 -0.3380348
v -3.04387426 0.67935425 -0.38651526
v -3.0998702 0.69183033 -0.38035911
v -3.15200042 0.65483844 -0.34030973
v -3.15672302 0.68269324 -0.3794499
v -3.10183906 0.70185846 -0.43224477
v -3.16192579 0.69107496 -0.42822599
v -3.04247522 0.68754255 -0.43570381
v -2.99529647 0.65263825 -0.43797427
v -2.96421003 0.60208463 -0.43891078
v -2.95378589 0.5401802 -0.43830597
v -2.97576141 0.48509264 -0.38686204
v -2.96771049 0.47899627 -0.4361819
v -3.10525512 0.4381091 -0.33310878
v -3.10807943 0.40259569 -0.37394869
v -3.11077928 0.38752478 -0.42527496
v -3.16432428 0.41479325 -0.37351113
v -3.17014312 0.40183991 -0.42181682
v -3.21731424 0.43674582 -0.41954523
v -3.24841022 0.48729741 -0.41860961
v -3.20845413 0.44559097 -0.37465429
v -3.23574352 0.4927811 -0.37058526
v -3.15792751 0.44620597 -0.33568698
v -3.1935029 0.46027243 -0.34514886
v -3.20512533 0.49775004 -0.33375233
v -3.20995187 0.55243557 -0.32881993
v -3.24432086 0.55136382 -0.36836999
v -3.21100664 0.65901804 -0.4244709
v -3.25883388 0.54920178 -0.41921162
v -3.24490928 0.61038589 -0.42133849
v -3.23244142 0.60905516 -0.37316393
v -3.2020483 0.60617232 -0.33615708
v -3.18834781 0.64175558 -0.34917044
v -3.2025299 0.65422403 -0.37927895
v -3.0147376 0.54198384 -0.43449193
v -3.03164911 0.60725092 -0.43475353
v -3.0524106 0.64498293 -0.43420928
v -3.03531885 0.47782558 -0.43188422
v -3.05819511 0.4413833 -0.42969626
v -3.12401723 0.63609772 -0.42950201
v -3.18576574 0.58741283 -0.42460817
v -3.19496107 0.51623213 -0.42257684
v -3.11343479 0.50619792 -0.42752564
v -2.9158864 -0.20343646 -0.43037229
v -2.96496582 -0.23549312 -0.42662
v -2.9202547 -0.1941972 -0.38465547
v -2.96576547 -0.22234511 -0.37789917
v -2.93166017 -0.17873662 -0.35350078
v -2.96697711 -0.19070658 -0.33959752
v -2.91692829 -0.142039 -0.34375
v -2.96074152 -0.14342418 -0.31601357
v -2.90850973 -0.08774346 -0.33965104
v -2.95536851 -0.08494705 -0.30856263
v -2.8867321 -0.03243398 -0.38676345
v -2.91385459 -0.03361678 -0.34615713
v -2.87790155 -0.09073758 -0.38326752
v -2.91432952 0.01443609 -0.38927859
v -2.92650651 0.00274685 -0.35752189
v -2.95743656 -0.0271506 -0.31858992
v -3.01462364 -0.08266747 -0.29430347
v -3.01334905 -0.02163791 -0.30618751
v -3.07357835 -0.14008832 -0.30894684
v -3.01685142 -0.14472702 -0.3034594
v -3.07482576 -0.0814155 -0.30108588
v -3.07027292 -0.02381384 -0.31152677
v -2.96105575 0.0179266 -0.34422236
v -3.01321125 0.02658349 -0.33535933
v -2.95816278 0.04555495 -0.38383865
v -3.01414299 0.05803096 -0.37768602
v -3.06627225 0.02103883 -0.337637
v -3.07099771 0.04889284 -0.37677621
v -3.01612091 0.06805878 -0.42956906
v -3.07620573 0.05727556 -0.42555248
v -2.95674896 0.0537424 -0.43303227
v -2.90957212 0.018839 -0.43529975
v -2.87848806 -0.03171452 -0.4362356
v -2.86806058 -0.09362039 -0.43563252
v -2.89003181 -0.14870652 -0.38418537
v -2.88198089 -0.15480426 -0.43350696
v -3.01952886 -0.19569119 -0.33043265
v -3.02235412 -0.23120516 -0.37127554
v -3.02505159 -0.24627572 -0.42260134
v -3.07859659 -0.21900653 -0.37083816
v -3.08441782 -0.23196059 -0.41914218
v -3.13159322 -0.19705554 -0.41687119
v -3.16268444 -0.14650338 -0.41593498
v -3.1227312 -0.18820905 -0.37197923
v -3.15003252 -0.14101886 -0.3679108
v -3.07220125 -0.18759268 -0.33301234
v -3.10778379 -0.17352628 -0.34247428
v -3.11939859 -0.1360495 -0.33107745
v -3.12422609 -0.0813643 -0.32614439
v -3.15860128 -0.0824362 -0.36569607
v -3.12527847 0.0252178 -0.42179727
v -3.17310905 -0.08459889 -0.41653585
v -3.15918254 -0.02341359 -0.41866332
v -3.14672708 -0.02474474 -0.3704887
v -3.11631727 -0.02762803 -0.33348166
v -3.1026287 0.00795581 -0.34649694
v -3.11680126 0.02042415 -0.37660574
v -2.92901992 -0.09181684 -0.43181705
v -2.94592046 -0.02654898 -0.43208003
v -2.96668815 0.01118299 -0.43153369
v -2.9495964 -0.15597537 -0.42920994
v -2.97247314 -0.19241604 -0.42702245
v -3.03829002 0.00229859 -0.42682808
v -3.10003709 -0.04638668 -0.42193424
v -3.10923862 -0.11756715 -0.41990244
v -3.02771043 -0.1276023 -0.42485195
v 0.13934123 -0.09748357 2.92146253
v 0.1580947 1.07761418 2.89378976
v 1.09918403 -0.14982247 2.66673994
v 1.17961323 1.02277278 2.63909816
v 1.90972542 -0.23988032 1.9408859
v 2.04229497 0.92820692 1.91331505
v 2.44880247 -0.32909357 0.85378867
v 2.61607885 0.83476853 0.82631474
v 2.63728666 -0.37914955 -0.4295783
v 2.81671428 0.78299462 -0.4570139
v 3.22733306 -0.52379477 -0.36794662
v 3.4710927 0.62706852 -0.39237904
v -0.14168286 -0.10250571 2.92308712
v -0.12946075 1.07267713 2.89540958
v -1.10218048 -0.12950897 2.66862821
v -1.15168428 1.04479742 2.64101171
v -1.91463363 -0.1981453 1.94300365
v -2.01637554 0.97303295 1.91546702
v -2.4559164 -0.27308285 0.85605728
v -2.59245824 0.89478218 0.82862365
v -2.64593172 -0.31813627 -0.42725795
v -2.79466104 0.84832799 -0.45464938
v -3.2392745 -0.44713896 -0.3654623
v -3.4526062 0.7097516 -0.38982695
v 2.4913845 0.8506509 0.78602677
v 2.33164024 -0.31421101 0.81351995
v 2.53465938 -0.36684584 -0.56756109
v 2.70749616 0.7962408 -0.59501761
v 0.14123547 1.07563364 2.76675128
v 0.12349748 -0.09947937 2.79442453
v 1.04088723 -0.14814168 2.55095481
v 1.11757648 1.02469122 2.52331256
v 3.23846387 -0.52800798 -0.49447262
v 3.48293972 0.6227144 -0.51889967
v 1.93846571 0.93770402 1.83285653
v 1.81216561 -0.2310453 1.86043798
v -2.54309177 -0.30854761 -0.56527233
v -2.33847141 -0.26130223 0.8157593
v -2.46746444 0.90736436 0.78830462
v -2.68521833 0.85868865 -0.59268391
v -1.04391849 -0.12936669 2.55282878
v -0.12652391 -0.10491493 2.79589033
v -0.1133247 1.07025623 2.76821517
v -1.08967649 1.04507815 2.52520656
v -3.25053834 -0.45105481 -0.49198478
v -3.46459054 0.70571351 -0.51634764
v -1.81694233 -0.19188749 1.86252951
v -1.91239893 0.97978168 1.83497989
v 2.44545173 -1.86106181 -0.2166205
v 2.49529886 -1.84391021 -0.21844989
v 2.44692707 -1.86039853 -0.17158186
v 2.49267101 -1.84520864 -0.17002075
v 2.45184087 -1.87039685 -0.13821089
v 2.48430967 -1.86562132 -0.12656837
v 2.42864751 -1.89781475 -0.12065821
v 2.46468496 -1.90155887 -0.09302067
v 2.40493011 -1.94429516 -0.10359448
v 2.44188118 -1.951689 -0.07147711
v 2.36937904 -2.00029277 -0.13531303
v 2.39195823 -1.99666309 -0.09588706
v 2.38064146 -1.94383931 -0.14682102
v 2.37627363 -2.05077457 -0.12483227
v 2.39015007 -2.03579759 -0.09695744
v 2.42478561 -2.00729942 -0.06615138
v 2.48833274 -1.96605944 -0.05468809
v 2.46714782 -2.02405262 -0.05038464
v 2.55356454 -1.93340563 -0.08011281
v 2.51012325 -1.91241788 -0.07894021
v 2.53522872 -1.9851036 -0.0578193
v 2.5122509 -2.03860378 -0.05324804
v 2.4126091 -2.05541849 -0.07889431
v 2.45063638 -2.07482814 -0.06583082
v 2.40065574 -2.08916568 -0.10989469
v 2.44016265 -2.1136527 -0.09827882
v 2.4936285 -2.0844407 -0.06685489
v 2.48716497 -2.1201992 -0.09696841
v 2.43738412 -2.13528537 -0.14543819
v 2.48740005 -2.14046955 -0.14133793
v 2.39597845 -2.10760784 -0.15504282
v 2.37028217 -2.06414604 -0.167903
v 2.36171245 -2.01015996 -0.18249803
v 2.37271595 -1.95058751 -0.19737947
v 2.40838813 -1.89406347 -0.16140317
v 2.40291118 -1.89753723 -0.20947194
v 2.52828025 -1.87311863 -0.11675626
v 2.54127407 -1.8509562 -0.16328686
v 2.54734516 -1.84947705 -0.21435278
v 2.58244323 -1.87749123 -0.15709698
v 2.5904479 -1.878201 -0.20475155
v 2.6164875 -1.92268657 -0.19188135
v 2.62396383 -1.97713899 -0.17727547
v 2.60735416 -1.91807746 -0.14838904
v 2.61309099 -1.96761536 -0.13162094
v 2.567698 -1.89554643 -0.11452806
v 2.59115123 -1.92041015 -0.11805069
v 2.58801078 -1.95498108 -0.09748977
v 2.57345151 -2.00470066 -0.0789144
v 2.59988975 -2.02256965 -0.11466556
v 2.53615045 -2.1237812 -0.14315426
v 2.61093282 -2.03632402 -0.16238641
v 2.57904624 -2.08833074 -0.15029364
v 2.57081794 -2.07259607 -0.10552787
v 2.54895305 -2.05292177 -0.07271862
v 2.52601814 -2.08449316 -0.07679855
v 2.5321412 -2.10671043 -0.1016376
v 2.42059516 -1.96707367 -0.19051659
v 2.41317272 -2.03123092 -0.17417967
v 2.41736841 -2.07097291 -0.16352045
v 2.45743513 -1.9131627 -0.20254325
v 2.48748064 -1.88542032 -0.20814669
v 2.47616148 -2.08063411 -0.15778452
v 2.54062223 -2.05191803 -0.16192704
v 2.57182169 -1.98932504 -0.17674958
v 2.5105257 -1.95898366 -0.18785661
v 2.57108354 -1.25394725 -0.36707514
v 2.6242094 -1.23736023 -0.36882263
v 2.57284402 -1.25434231 -0.32588523
v 2.62163114 -1.23978352 -0.32457935
v 2.57862997 -1.26524639 -0.29513663
v 2.61351585 -1.26120233 -0.28447508
v 2.55465602 -1.29286432 -0.27862858
v 2.5937705 -1.29780364 -0.25308674
v 2.53076458 -1.33963227 -0.26224738
v 2.5710473 -1.34832596 -0.232432
v 2.49419212 -1.39478826 -0.29081016
v 2.51863288 -1.3922863 -0.25438755
v 2.50434255 -1.33788514 -0.30212593
v 2.50345563 -1.44595551 -0.28048843
v 2.51805687 -1.43163585 -0.25484478
v 2.55459642 -1.40410947 -0.22666144
v 2.62174558 -1.36387944 -0.21661156
v 2.60099554 -1.42196869 -0.21171718
v 2.69077348 -1.33153033 -0.24049091
v 2.64320564 -1.30975437 -0.23986697
v 2.67299032 -1.38373184 -0.21908354
v 2.65017938 -1.43729639 -0.21403586
v 2.54310226 -1.45210242 -0.2377972
v 2.58492517 -1.47251224 -0.2253167
v 2.53123426 -1.4853096 -0.26612603
v 2.57485199 -1.5108397 -0.25493699
v 2.6316905 -1.48287701 -0.2260093
v 2.62585973 -1.51822304 -0.25347119
v 2.57237339 -1.53171229 -0.29841744
v 2.62661123 -1.53781676 -0.29434567
v 2.52659368 -1.50295853 -0.30775547
v 2.49723243 -1.45849204 -0.32018256
v 2.48602819 -1.40365266 -0.33424431
v 2.49578189 -1.34348106 -0.34856081
v 2.53249597 -1.28788042 -0.3161537
v 2.5264883 -1.29022026 -0.36019742
v 2.66120052 -1.26965451 -0.27525788
v 2.67421245 -1.24646258 -0.31820762
v 2.68048715 -1.24383759 -0.36483615
v 2.71952867 -1.27395296 -0.31199932
v 2.72796726 -1.27365541 -0.3555035
v 2.75767135 -1.31918597 -0.3430047
v 2.76777458 -1.37452793 -0.32883411
v 2.74785757 -1.31541299 -0.30329459
v 2.75592088 -1.36578607 -0.28711342
v 2.70448684 -1.2928915 -0.27274107
v 2.73063182 -1.31820845 -0.27548867
v 2.72859859 -1.3534162 -0.25602012
v 2.71481752 -1.40363574 -0.23813116
v 2.74379825 -1.42130684 -0.27073192
v 2.6786313 -1.5217359 -0.29598289
v 2.75597667 -1.43432474 -0.31442391
v 2.72356796 -1.48652172 -0.30278629
v 2.71434688 -1.4714384 -0.26169759
v 2.69020319 -1.45192384 -0.23172712
v 2.66660261 -1.48327016 -0.23511683
v 2.67389535 -1.50527215 -0.25779378
v 2.54806137 -1.36092734 -0.34188473
v 2.5423789 -1.42581391 -0.32614338
v 2.54836845 -1.4661684 -0.31587034
v 2.58588028 -1.30689811 -0.35345864
v 2.61727333 -1.27927613 -0.35885435
v 2.61222744 -1.47693824 -0.31022489
v 2.68073177 -1.44891285 -0.31409817
v 2.71203231 -1.38597631 -0.32838583
v 2.64480638 -1.35418582 -0.33920741
v -2.57300472 -1.91592979 -0.18586725
v -2.62371206 -1.89994859 -0.18691968
v -2.57393598 -1.91518497 -0.14035707
v -2.62042284 -1.90107011 -0.13805216
v -2.57824897 -1.92523407 -0.1066578
v -2.61099767 -1.92120409 -0.09441673
v -2.55401992 -1.95208716 -0.08943426
v -2.5899806 -1.95663476 -0.06104463
v -2.52883815 -1.99801826 -0.07284271
v -2.56559848 -2.00622892 -0.03993761
v -2.49212122 -2.0533142 -0.10575282
v -2.51450443 -2.0501213 -0.06559634
v -2.50488662 -1.99709177 -0.1168273
v -2.49784421 -2.10400295 -0.09543067
v -2.51183509 -2.08926582 -0.06697791
v -2.54705619 -2.06148481 -0.03517687
v -2.61201667 -2.02170658 -0.02242666
v -2.58929634 -2.07924556 -0.01877933
v -2.67894983 -1.99065971 -0.04698014
v -2.63548135 -1.9685781 -0.04625886
v -2.65904283 -2.04193019 -0.02506822
v -2.63462114 -2.0949378 -0.02114909
v -2.53385973 -2.10940504 -0.04856234
v -2.57170152 -2.12972831 -0.03498196
v -2.52142906 -2.14298915 -0.0802893
v -2.56068658 -2.16844368 -0.06820029
v -2.61498165 -2.14041471 -0.03549778
v -2.60804414 -2.17614793 -0.06628614
v -2.55799388 -2.19017028 -0.11604869
v -2.60840797 -2.19658374 -0.11127984
v -2.51688194 -2.16146993 -0.12609666
v -2.49205207 -2.11736345 -0.13910967
v -2.4847784 -2.063138 -0.15357613
v -2.49739742 -2.00379514 -0.16803765
v -2.53417158 -1.94794774 -0.13083738
v -2.52917671 -1.95142102 -0.17947369
v -2.65512895 -1.92975544 -0.0839433
v -2.66929674 -1.90797948 -0.13062113
v -2.67611169 -1.90677642 -0.18211221
v -2.71026468 -1.93554949 -0.12397903
v -2.71893262 -1.93657708 -0.17202484
v -2.74417638 -1.98175382 -0.15898591
v -2.75042772 -2.03645944 -0.14451766
v -2.7344942 -1.97679662 -0.1151207
v -2.73906278 -2.02653074 -0.09845316
v -2.69446134 -1.95317053 -0.08129805
v -2.71769094 -1.97866392 -0.08470273
v -2.7135396 -2.01316022 -0.06421089
v -2.6975522 -2.06255817 -0.04599601
v -2.72435665 -2.08120536 -0.08190006
v -2.65809679 -2.18108654 -0.11233258
v -2.73583078 -2.09539127 -0.13009184
v -2.7023344 -2.14666652 -0.11869961
v -2.6937828 -2.13056945 -0.07343858
v -2.67167425 -2.11023235 -0.0404247
v -2.6478548 -2.14129447 -0.04510122
v -2.65388822 -2.16376924 -0.07029056
v -2.54530334 -2.02143669 -0.16058212
v -2.5362091 -2.0854659 -0.14463841
v -2.53943157 -2.12533283 -0.13410818
v -2.58382797 -1.96836829 -0.17185205
v -2.61481905 -1.94131732 -0.17691087
v -2.59857368 -2.13643455 -0.12759864
v -2.6644206 -2.109272 -0.13070178
v -2.69746065 -2.04737949 -0.14479088
v -2.63630437 -2.01551771 -0.15662574
v -2.71301984 -1.31073689 -0.33222097
v -2.76683616 -1.29532933 -0.33313924
v -2.71428823 -1.31110715 -0.29063469
v -2.7636671 -1.29762673 -0.28853941
v -2.71956205 -1.32211613 -0.25958865
v -2.75464487 -1.31884694 -0.24830687
v -2.6947298 -1.34922576 -0.24342674
v -2.73374414 -1.35503196 -0.21711552
v -2.6696372 -1.39552807 -0.2274971
v -2.70971679 -1.40512251 -0.19688087
v -2.63215398 -1.45002818 -0.25715524
v -2.65638494 -1.44801378 -0.22003632
v -2.64353799 -1.39324212 -0.26810079
v -2.64044332 -1.50151038 -0.24690604
v -2.65510606 -1.48744487 -0.22073352
v -2.69208192 -1.46064925 -0.19160926
v -2.7603507 -1.42185998 -0.18026626
v -2.73834943 -1.47959852 -0.17596441
v -2.83077955 -1.39107751 -0.20319145
v -2.78319883 -1.36813378 -0.20312511
v -2.81169414 -1.44296169 -0.18214112
v -2.78770589 -1.49612522 -0.17768752
v -2.67976951 -1.50850796 -0.20329284
v -2.72141647 -1.52992105 -0.19021928
v -2.66754865 -1.5415709 -0.23224997
v -2.71093654 -1.56816506 -0.22049784
v -2.76839971 -1.54140925 -0.19031208
v -2.76222229 -1.57676386 -0.21834349
v -2.70858526 -1.58911705 -0.26455605
v -2.7631278 -1.59650802 -0.25972688
v -2.6630702 -1.55924129 -0.27444356
v -2.63443756 -1.51400637 -0.28712052
v -2.62430477 -1.45880532 -0.30114406
v -2.63539362 -1.39874339 -0.31510597
v -2.67294549 -1.3437879 -0.28157573
v -2.66739225 -1.34606957 -0.3261134
v -2.80244398 -1.32840538 -0.23836511
v -2.81644868 -1.30552029 -0.28139865
v -2.82337665 -1.30311632 -0.32835584
v -2.86158323 -1.33413171 -0.27463758
v -2.87061023 -1.33410024 -0.3184356
v -2.89964485 -1.38043689 -0.30566132
v -2.90873527 -1.43615698 -0.29154294
v -2.88935041 -1.37635564 -0.26568585
v -2.89644908 -1.42703843 -0.24953424
v -2.84563684 -1.35270237 -0.23533052
v -2.87160682 -1.37870764 -0.2378751
v -2.86873245 -1.41393327 -0.21845561
v -2.85376739 -1.4639399 -0.2008841
v -2.88308095 -1.48240184 -0.2334975
v -2.8159008 -1.58161878 -0.26054811
v -2.89565277 -1.49582839 -0.27753132
v -2.86193323 -1.54739189 -0.26656484
v -2.85240364 -1.53196597 -0.22510451
v -2.82802772 -1.51176691 -0.19506448
v -2.80371046 -1.54264473 -0.19901603
v -2.81095743 -1.56492257 -0.22194755
v -2.68768787 -1.41742801 -0.30773621
v -2.6806159 -1.48231911 -0.29231339
v -2.68578767 -1.52288651 -0.28210347
v -2.72685909 -1.36414766 -0.31857276
v -2.75903034 -1.33718633 -0.32341653
v -2.74991226 -1.53516697 -0.27558189
v -2.8195343 -1.50868749 -0.27835726
v -2.85234689 -1.44633436 -0.29195225
v -2.78526306 -1.41290521 -0.30363726
v 0.09101641 0.37378495 2.39832735
v 0.09310603 -0.58098906 3.13144016
v 1.03779375 0.19682426 2.1699419
v 0.97198015 -0.77537053 2.85605621
v 1.78406965 -0.24350464 1.55790555
v 1.65115654 -1.26359486 2.12617635
v 2.23151207 -0.73549312 0.65992891
v 2.04374074 -1.81290817 1.08475828
v 2.36947631 -1.08548879 -0.4026072
v 2.15877676 -2.20919656 -0.14377558
v 2.94192075 -1.12464189 -0.35159552
v 2.70724344 -2.24034309 -0.08410686
v -0.19037509 0.37892693 2.39648723
v -0.15908098 -0.57467311 3.1316905
v -1.14243316 0.18564297 2.19037866
v -1.04463684 -0.78394311 2.87995863
v -1.90020215 -0.26914712 1.59282243
v -1.73774778 -1.28539037 2.16359424
v -2.36035156 -0.77174943 0.69759553
v -2.14478445 -1.84470796 1.12074339
v -2.50898695 -1.12678551 -0.37106066
v -2.27153444 -2.24710416 -0.11946493
v -3.08448553 -1.17862224 -0.31178981
v -2.82527971 -2.29138708 -0.0522415
v 1.9400953 -1.81341123 1.04699778
v 2.11913156 -0.73207134 0.62783879
v 2.27278518 -1.09523582 -0.520379
v 2.07014274 -2.22464895 -0.28111189
v 0.0764954 -0.66555327 3.00289535
v 0.07361263 0.30037981 2.29598188
v 0.97409594 0.13809759 2.07770681
v 0.91121006 -0.84431475 2.74137496
v 2.95129203 -1.14880728 -0.45434308
v 2.71535444 -2.26872205 -0.20608943
v 1.55772888 -1.29539203 2.04971885
v 1.68456602 -0.26819106 1.49471449
v -2.41286659 -1.13460636 -0.4909344
v -2.24776315 -0.76602572 0.66334641
v -2.04063701 -1.84303665 1.08075463
v -2.18334341 -2.26090478 -0.25915026
v -1.08000838 0.12798662 2.09658289
v -0.1752175 0.30576843 2.29380941
v -0.14504015 -0.65905779 3.00268364
v -0.98533737 -0.85189968 2.76340723
v -3.09473419 -1.20321035 -0.41536158
v -2.83438015 -2.3203969 -0.17566508
v -1.80112421 -0.29200866 1.52728343
v -1.64462912 -1.31545496 2.08447408
g Group62090
f 183 184 14 13
g Group27382
f 24 23 22 21
g Group62090
f 1 2 4 3
g Group27382
f 23 26 25 22
g Group62090
f 3 4 6 5
g Group27382
f 26 28 27 25
g Group62090
f 5 6 8 7
g Group27382
f 28 30 29 27
g Group62090
f 7 8 17 16
g Group10488
f 113 51 209 210
g Group62090
f 156 183 13 15
g Group27382
f 33 32 23 24
g Group62090
f 9 1 3 10
g Group27382
f 32 34 26 23
g Group62090
f 10 3 5 11
g Group27382
f 34 35 28 26
g Group62090
f 11 5 7 12
g Group27382
f 35 36 30 28
g Group62090
f 12 7 16 18
g Group27382
f 19 37 52 50
g Group10485
f 153 154 141 127
g Group62090
f 184 191 38 14
g Group27382
f 21 22 39 40
g Group10488
f 56 118 211 212
g Group62090
f 2 41 42 4
g Group27382
f 22 25 43 39
g Group62090
f 4 42 44 6
g Group27382
f 25 27 45 43
g Group10485
f 134 148 157 158
g Group62090
f 6 44 46 8
g Group27382
f 27 29 47 45
g Group62090
f 8 46 48 17
g Group10488
f 121 119 213 214
g Group62090
f 17 48 187 188
g Group27382
f 30 55 54 29
g Group10485
f 145 161 162 150
g Group62090
f 16 17 188 196
g Group27382
f 36 56 55 30
g Group62090
f 18 16 196 159
g Group27382
f 20 24 21 19
g Group62090
f 13 14 2 1
g Group27382
f 31 33 24 20
g Group62090
f 15 13 1 9
g Group27382
f 19 21 40 37
g Group10488
f 124 123 215 216
g Group62090
f 14 38 41 2
g Group10485
f 152 165 166 146
g Group62090
f 191 192 38
g Group27382
f 40 39 58 59
g Group62090
f 41 199 200 42
g Group27382
f 39 43 60 58
g Group62090
f 42 200 202 44
g Group27382
f 43 45 61 60
g Group62090
f 44 202 204 46
g Group27382
f 45 47 62 61
g Group62090
f 46 204 194 48
f 48 194 187
g Group27382
f 37 40 59 57
g Group62090
f 38 192 199 41
g Group27382
f 49 20 19 50
f 51 31 20 49
f 54 53 47 29
f 37 57 52
f 62 47 53
g Group10488
f 123 122 217 215
g Group62090
f 206 75 76 180
g Group27382
f 86 83 84 85
g Group62090
f 63 65 66 64
g Group27382
f 85 84 87 88
g Group62090
f 65 67 68 66
g Group27382
f 88 87 89 90
g Group62090
f 67 69 70 68
g Group27382
f 90 89 91 92
g Group62090
f 69 78 79 70
g Group10485
f 151 169 165 152
g Group62090
f 155 77 75 206
g Group27382
f 95 86 85 94
g Group62090
f 71 72 65 63
g Group27382
f 94 85 88 96
g Group62090
f 72 73 67 65
g Group27382
f 96 88 90 97
g Group62090
f 73 74 69 67
g Group27382
f 97 90 92 98
g Group62090
f 74 80 78 69
g Group27382
f 81 112 114 99
g Group62090
f 180 76 100 179
g Group27382
f 83 102 101 84
g Group10488
f 122 120 218 217
g Group62090
f 64 66 104 103
g Group27382
f 84 101 105 87
g Group10485
f 149 171 169 151
g Group62090
f 66 68 106 104
g Group27382
f 87 105 107 89
g Group62090
f 68 70 108 106
g Group27382
f 89 107 109 91
g Group10488
f 120 121 214 218
g Group62090
f 70 79 110 108
g Group10485
f 150 162 171 149
g Group62090
f 79 176 208 110
g Group27382
f 92 91 116 117
g Group10488
f 118 117 219 211
g Group62090
f 78 174 176 79
g Group27382
f 98 92 117 118
g Group62090
f 80 160 174 78
g Group27382
f 82 81 83 86
g Group62090
f 75 63 64 76
g Group27382
f 93 82 86 95
g Group62090
f 77 71 63 75
g Group27382
f 81 99 102 83
g Group10485
f 148 147 173 157
g Group62090
f 76 64 103 100
g Group10488
f 117 116 220 219
g Group62090
f 100 164 179
g Group27382
f 102 121 120 101
g Group62090
f 103 104 172 163
g Group27382
f 101 120 122 105
g Group62090
f 104 106 170 172
g Group27382
f 105 122 123 107
g Group62090
f 106 108 168 170
g Group27382
f 107 123 124 109
g Group62090
f 108 110 167 168
f 208 167 110
g Group27382
f 99 119 121 102
g Group62090
f 100 103 163 164
g Group27382
f 111 112 81 82
f 113 111 82 93
f 116 91 109 115
f 114 119 99
f 115 109 124
f 36 98 118 56
f 35 97 98 36
f 34 96 97 35
f 32 94 96 34
f 33 95 94 32
f 31 93 95 33
f 51 113 93 31
g Group10485
f 147 143 175 173
g Group62090
f 155 156 15 77
f 77 15 9 71
f 71 9 10 72
f 11 73 72 10
f 73 11 12 74
f 74 12 18 80
f 80 18 159 160
g Group10485
f 182 126 125 181
g Group10488
f 49 50 221 222
g Group10485
f 153 127 126 182
g Group10488
f 51 49 222 209
g Group10485
f 185 186 129 128
g Group10488
f 53 54 223 224
g Group10485
f 131 189 190 130
g Group10488
f 52 57 225 226
g Group10485
f 186 193 132 129
g Group10488
f 62 53 224 227
g Group10485
f 125 130 190 181
g Group10488
f 50 52 226 221
g Group10485
f 133 195 185 128
g Group10488
f 54 55 228 223
g Group10485
f 134 158 195 133
g Group10488
f 55 56 212 228
g Group10485
f 136 135 197 198
g Group10488
f 59 58 229 230
g Group10485
f 135 137 201 197
g Group10488
f 58 60 231 229
g Group10485
f 137 138 203 201
g Group10488
f 60 61 232 231
g Group10485
f 138 132 193 203
g Group10488
f 61 62 227 232
g Group10485
f 131 136 198 189
g Group10488
f 57 59 230 225
g Group10485
f 205 177 140 139
g Group10488
f 112 111 233 234
g Group10485
f 154 205 139 141
g Group10488
f 111 113 210 233
g Group10485
f 175 143 142 207
g Group10488
f 116 115 235 220
g Group10485
f 145 144 178 161
g Group10488
f 119 114 236 213
g Group10485
f 207 142 146 166
g Group10488
f 115 124 216 235
g Group10485
f 140 177 178 144
g Group10488
f 114 112 234 236
g Group10485
f 156 155 265 266
f 348 340 198 197
f 346 348 197 201
f 160 159 267 268
f 167 208 269 270
f 323 347 195 158
f 164 163 271 272
f 347 342 185 195
f 344 346 201 203
f 168 167 270 273
f 179 164 272 274
f 343 338 181 190
f 170 168 273 275
f 341 345 193 186
f 345 344 203 193
f 172 170 275 276
f 208 176 277 269
f 339 343 190 189
f 163 172 276 271
f 342 341 186 185
f 340 339 189 198
f 174 160 268 278
f 155 206 279 265
f 337 322 153 182
f 176 174 278 277
f 338 337 182 181
f 335 336 177 205
f 180 179 274 280
f 206 180 280 279
f 336 330 178 177
f 184 183 281 282
f 333 334 173 175
f 321 335 205 154
f 183 156 266 281
f 199 192 283 284
f 334 324 157 173
f 188 187 285 286
f 327 332 171 162
f 325 333 175 207
f 192 191 287 283
f 194 204 288 289
f 332 331 169 171
f 187 194 289 285
f 331 329 165 169
f 330 328 161 178
f 191 184 282 287
f 204 202 290 288
f 329 326 166 165
f 196 188 286 291
f 328 327 162 161
f 326 325 207 166
f 159 196 291 267
f 202 200 292 290
f 324 323 158 157
f 200 199 284 292
f 322 321 154 153
g Group10488
f 210 209 237 238
f 212 211 239 240
f 214 213 241 242
f 216 215 243 244
f 215 217 245 243
f 217 218 246 245
f 218 214 242 246
f 211 219 247 239
f 219 220 248 247
f 222 221 249 250
f 209 222 250 237
f 224 223 251 252
f 226 225 253 254
f 227 224 252 255
f 221 226 254 249
f 223 228 256 251
f 228 212 240 256
f 230 229 257 258
f 229 231 259 257
f 231 232 260 259
f 232 227 255 260
f 225 230 258 253
f 234 233 261 262
f 233 210 238 261
f 220 235 263 248
f 213 236 264 241
f 235 216 244 263
f 236 234 262 264
f 238 237 127 141
f 240 239 148 134
f 242 241 145 150
f 244 243 152 146
f 243 245 151 152
f 245 246 149 151
f 246 242 150 149
f 239 247 147 148
f 247 248 143 147
f 250 249 125 126
f 237 250 126 127
f 252 251 128 129
f 254 253 131 130
f 255 252 129 132
f 249 254 130 125
f 251 256 133 128
f 256 240 134 133
f 258 257 135 136
f 257 259 137 135
f 259 260 138 137
f 260 255 132 138
f 253 258 136 131
f 262 261 139 140
f 261 238 141 139
f 248 263 142 143
f 241 264 144 145
f 263 244 146 142
f 264 262 140 144
g Group10485
f 266 265 293 294
f 268 267 295 296
f 270 269 297 298
f 272 271 299 300
f 273 270 298 301
f 274 272 300 302
f 275 273 301 303
f 276 275 303 304
f 269 277 305 297
f 271 276 304 299
f 278 268 296 306
f 265 279 307 293
f 277 278 306 305
f 280 274 302 308
f 279 280 308 307
f 282 281 309 310
f 281 266 294 309
f 284 283 311 312
f 286 285 313 314
f 283 287 315 311
f 289 288 316 317
f 285 289 317 313
f 287 282 310 315
f 288 290 318 316
f 291 286 314 319
f 267 291 319 295
f 290 292 320 318
f 292 284 312 320
f 294 293 321 322
f 296 295 323 324
f 298 297 325 326
f 300 299 327 328
f 301 298 326 329
f 302 300 328 330
f 303 301 329 331
f 304 303 331 332
f 297 305 333 325
f 299 304 332 327
f 306 296 324 334
f 293 307 335 321
f 305 306 334 333
f 308 302 330 336
f 307 308 336 335
f 310 309 337 338
f 309 294 322 337
f 312 311 339 340
f 314 313 341 342
f 311 315 343 339
f 317 316 344 345
f 313 317 345 341
f 315 310 338 343
f 316 318 346 344
f 319 314 342 347
f 295 319 347 323
f 318 320 348 346
f 320 312 340 348
g Group56448
f 349 350 352 351
f 351 352 354 353
f 353 354 356 355
f 355 356 358 357
f 359 361 357 360
f 360 363 362 359
f 358 364 360 357
f 365 366 364 358
f 367 369 365 368
f 370 366 365 369
f 356 368 365 358
f 364 366 372 371
f 363 360 364 371
f 363 371 373 362
f 373 371 372 374
f 375 376 374 372
f 376 378 377 374
f 373 374 377 379
f 362 373 379 380
f 359 362 380 381
f 382 361 359 381
f 382 384 383 361
f 383 355 357 361
f 353 355 383 351
f 351 383 384 349
f 352 386 385 354
f 352 350 387 386
f 387 389 388 386
f 391 393 392 390
f 389 390 392 388
f 394 385 386 388
f 395 396 367 394
f 394 388 392 395
f 396 395 392 393
f 397 396 393 398
f 396 397 369 367
f 385 394 367 368
f 356 354 385 368
f 400 401 402 398
f 400 398 393 391
f 397 398 402 403
f 402 405 404 403
f 375 370 403 404
f 369 397 403 370
f 399 405 402 401
f 404 405 376 375
f 370 375 372 366
f 376 405 399 378
f 406 382 381
f 384 382 406
f 407 381 380
f 406 381 407
f 408 380 379
f 407 380 408
f 408 379 377
f 409 384 406
f 349 384 409
f 410 349 409
f 350 349 410
f 387 350 410
f 411 377 378
f 408 377 411
f 411 378 399
f 412 399 401
f 411 399 412
f 412 401 400
f 413 400 391
f 412 400 413
f 413 391 390
f 413 390 389
f 407 408 411
f 389 387 410
f 414 389 410
f 413 389 414
f 414 410 409
f 412 413 414
f 411 412 414
f 407 411 414
f 406 407 414
f 406 414 409
f 415 416 418 417
f 417 418 420 419
f 419 420 422 421
f 421 422 424 423
f 425 427 423 426
f 426 429 428 425
f 424 430 426 423
f 431 432 430 424
f 433 435 431 434
f 436 432 431 435
f 422 434 431 424
f 430 432 438 437
f 429 426 430 437
f 429 437 439 428
f 439 437 438 440
f 441 442 440 438
f 442 444 443 440
f 439 440 443 445
f 428 439 445 446
f 425 428 446 447
f 448 427 425 447
f 448 450 449 427
f 449 421 423 427
f 419 421 449 417
f 417 449 450 415
f 418 452 451 420
f 418 416 453 452
f 453 455 454 452
f 457 459 458 456
f 455 456 458 454
f 460 451 452 454
f 461 462 433 460
f 460 454 458 461
f 462 461 458 459
f 463 462 459 464
f 462 463 435 433
f 451 460 433 434
f 422 420 451 434
f 466 467 468 464
f 466 464 459 457
f 463 464 468 469
f 468 471 470 469
f 441 436 469 470
f 435 463 469 436
f 465 471 468 467
f 470 471 442 441
f 436 441 438 432
f 442 471 465 444
f 472 448 447
f 450 448 472
f 473 447 446
f 472 447 473
f 474 446 445
f 473 446 474
f 474 445 443
f 475 450 472
f 415 450 475
f 476 415 475
f 416 415 476
f 453 416 476
f 477 443 444
f 474 443 477
f 477 444 465
f 478 465 467
f 477 465 478
f 478 467 466
f 479 466 457
f 478 466 479
f 479 457 456
f 479 456 455
f 473 474 477
f 455 453 476
f 480 455 476
f 479 455 480
f 480 476 475
f 478 479 480
f 477 478 480
f 473 477 480
f 472 473 480
f 472 480 475
f 481 483 484 482
f 483 485 486 484
f 485 487 488 486
f 487 489 490 488
f 491 492 489 493
f 492 491 494 495
f 490 489 492 496
f 497 490 496 498
f 499 500 497 501
f 502 501 497 498
f 488 490 497 500
f 496 503 504 498
f 495 503 496 492
f 495 494 505 503
f 505 506 504 503
f 507 504 506 508
f 508 506 509 510
f 505 511 509 506
f 494 512 511 505
f 491 513 512 494
f 514 513 491 493
f 514 493 515 516
f 515 493 489 487
f 485 483 515 487
f 483 481 516 515
f 484 486 517 518
f 484 518 519 482
f 519 518 520 521
f 523 522 524 525
f 521 520 524 522
f 526 520 518 517
f 527 526 499 528
f 526 527 524 520
f 528 525 524 527
f 529 530 525 528
f 528 499 501 529
f 517 500 499 526
f 488 500 517 486
f 532 530 534 533
f 532 523 525 530
f 529 535 534 530
f 534 535 536 537
f 507 536 535 502
f 501 502 535 529
f 531 533 534 537
f 536 507 508 537
f 502 498 504 507
f 508 510 531 537
f 513 514 538
f 538 514 516
f 512 513 539
f 539 513 538
f 511 512 540
f 540 512 539
f 509 511 540
f 538 516 541
f 541 516 481
f 541 481 542
f 542 481 482
f 542 482 519
f 510 509 543
f 543 509 540
f 531 510 543
f 533 531 544
f 544 531 543
f 532 533 544
f 523 532 545
f 545 532 544
f 522 523 545
f 521 522 545
f 543 540 539
f 542 519 521
f 542 521 546
f 546 521 545
f 541 542 546
f 546 545 544
f 546 544 543
f 546 543 539
f 546 539 538
f 541 546 538
f 547 549 550 548
f 549 551 552 550
f 551 553 554 552
f 553 555 556 554
f 557 558 555 559
f 558 557 560 561
f 556 555 558 562
f 563 556 562 564
f 565 566 563 567
f 568 567 563 564
f 554 556 563 566
f 562 569 570 564
f 561 569 562 558
f 561 560 571 569
f 571 572 570 569
f 573 570 572 574
f 574 572 575 576
f 571 577 575 572
f 560 578 577 571
f 557 579 578 560
f 580 579 557 559
f 580 559 581 582
f 581 559 555 553
f 551 549 581 553
f 549 547 582 581
f 550 552 583 584
f 550 584 585 548
f 585 584 586 587
f 589 588 590 591
f 587 586 590 588
f 592 586 584 583
f 593 592 565 594
f 592 593 590 586
f 594 591 590 593
f 595 596 591 594
f 594 565 567 595
f 583 566 565 592
f 554 566 583 552
f 598 596 600 599
f 598 589 591 596
f 595 601 600 596
f 600 601 602 603
f 573 602 601 568
f 567 568 601 595
f 597 599 600 603
f 602 573 574 603
f 568 564 570 573
f 574 576 597 603
f 579 580 604
f 604 580 582
f 578 579 605
f 605 579 604
f 577 578 606
f 606 578 605
f 575 577 606
f 604 582 607
f 607 582 547
f 607 547 608
f 608 547 548
f 608 548 585
f 576 575 609
f 609 575 606
f 597 576 609
f 599 597 610
f 610 597 609
f 598 599 610
f 589 598 611
f 611 598 610
f 588 589 611
f 587 588 611
f 609 606 605
f 608 585 587
f 608 587 612
f 612 587 611
f 607 608 612
f 612 611 610
f 612 610 609
f 612 609 605
f 612 605 604
f 607 612 604
g Group53386
f 640 639 638 637
f 620 622 640 637
f 621 619 638 639
f 622 620 619 621
f 644 643 642 641
f 614 616 644 641
f 615 613 642 643
f 616 614 613 615
f 646 645 639 640
f 622 624 646 640
f 623 621 639 645
f 624 623 645 646
f 624 622 621 623
f 637 638 648 647
f 618 620 637 647
f 619 617 648 638
f 620 618 617 619
f 647 648 643 644
f 616 618 647 644
f 617 615 643 648
f 618 616 615 617
f 652 651 650 649
f 631 633 649 650
f 634 632 651 652
f 634 633 631 632
f 656 655 654 653
f 625 627 653 654
f 628 626 655 656
f 628 627 625 626
f 658 652 649 657
f 635 636 658 657
f 633 635 657 649
f 636 634 652 658
f 636 635 633 634
f 651 660 659 650
f 629 631 650 659
f 632 630 660 651
f 632 631 629 630
f 660 656 653 659
f 627 629 659 653
f 630 628 656 660
f 630 629 627 628
f 642 654 655 641
f 626 614 641 655
f 613 625 654 642
f 613 614 626 625
g Group28758
f 661 663 664 662
f 663 665 666 664
f 665 667 668 666
f 667 669 670 668
f 671 672 669 673
f 672 671 674 675
f 670 669 672 676
f 677 670 676 678
f 679 680 677 681
f 682 681 677 678
f 668 670 677 680
f 676 683 684 678
f 675 683 676 672
f 675 674 685 683
f 685 686 684 683
f 687 684 686 688
f 688 686 689 690
f 685 691 689 686
f 674 692 691 685
f 671 693 692 674
f 694 693 671 673
f 694 673 695 696
f 695 673 669 667
f 665 663 695 667
f 663 661 696 695
f 664 666 697 698
f 664 698 699 662
f 699 698 700 701
f 703 702 704 705
f 701 700 704 702
f 706 700 698 697
f 707 706 679 708
f 706 707 704 700
f 708 705 704 707
f 709 710 705 708
f 708 679 681 709
f 697 680 679 706
f 668 680 697 666
f 712 710 714 713
f 712 703 705 710
f 709 715 714 710
f 714 715 716 717
f 687 716 715 682
f 681 682 715 709
f 711 713 714 717
f 716 687 688 717
f 682 678 684 687
f 688 690 711 717
f 693 694 718
f 718 694 696
f 692 693 719
f 719 693 718
f 691 692 720
f 720 692 719
f 689 691 720
f 718 696 721
f 721 696 661
f 721 661 722
f 722 661 662
f 722 662 699
f 690 689 723
f 723 689 720
f 711 690 723
f 713 711 724
f 724 711 723
f 712 713 724
f 703 712 725
f 725 712 724
f 702 703 725
f 701 702 725
f 723 720 719
f 722 699 701
f 722 701 726
f 726 701 725
f 721 722 726
f 726 725 724
f 726 724 723
f 726 723 719
f 726 719 718
f 721 726 718
f 727 729 730 728
f 729 731 732 730
f 731 733 734 732
f 733 735 736 734
f 737 738 735 739
f 738 737 740 741
f 736 735 738 742
f 743 736 742 744
f 745 746 743 747
f 748 747 743 744
f 734 736 743 746
f 742 749 750 744
f 741 749 742 738
f 741 740 751 749
f 751 752 750 749
f 753 750 752 754
f 754 752 755 756
f 751 757 755 752
f 740 758 757 751
f 737 759 758 740
f 760 759 737 739
f 760 739 761 762
f 761 739 735 733
f 731 729 761 733
f 729 727 762 761
f 730 732 763 764
f 730 764 765 728
f 765 764 766 767
f 769 768 770 771
f 767 766 770 768
f 772 766 764 763
f 773 772 745 774
f 772 773 770 766
f 774 771 770 773
f 775 776 771 774
f 774 745 747 775
f 763 746 745 772
f 734 746 763 732
f 778 776 780 779
f 778 769 771 776
f 775 781 780 776
f 780 781 782 783
f 753 782 781 748
f 747 748 781 775
f 777 779 780 783
f 782 753 754 783
f 748 744 750 753
f 754 756 777 783
f 759 760 784
f 784 760 762
f 758 759 785
f 785 759 784
f 757 758 786
f 786 758 785
f 755 757 786
f 784 762 787
f 787 762 727
f 787 727 788
f 788 727 728
f 788 728 765
f 756 755 789
f 789 755 786
f 777 756 789
f 779 777 790
f 790 777 789
f 778 779 790
f 769 778 791
f 791 778 790
f 768 769 791
f 767 768 791
f 789 786 785
f 788 765 767
f 788 767 792
f 792 767 791
f 787 788 792
f 792 791 790
f 792 790 789
f 792 789 785
f 792 785 784
f 787 792 784
f 793 794 796 795
f 795 796 798 797
f 797 798 800 799
f 799 800 802 801
f 803 805 801 804
f 804 807 806 803
f 802 808 804 801
f 809 810 808 802
f 811 813 809 812
f 814 810 809 813
f 800 812 809 802
f 808 810 816 815
f 807 804 808 815
f 807 815 817 806
f 817 815 816 818
f 819 820 818 816
f 820 822 821 818
f 817 818 821 823
f 806 817 823 824
f 803 806 824 825
f 826 805 803 825
f 826 828 827 805
f 827 799 801 805
f 797 799 827 795
f 795 827 828 793
f 796 830 829 798
f 796 794 831 830
f 831 833 832 830
f 835 837 836 834
f 833 834 836 832
f 838 829 830 832
f 839 840 811 838
f 838 832 836 839
f 840 839 836 837
f 841 840 837 842
f 840 841 813 811
f 829 838 811 812
f 800 798 829 812
f 844 845 846 842
f 844 842 837 835
f 841 842 846 847
f 846 849 848 847
f 819 814 847 848
f 813 841 847 814
f 843 849 846 845
f 848 849 820 819
f 814 819 816 810
f 820 849 843 822
f 850 826 825
f 828 826 850
f 851 825 824
f 850 825 851
f 852 824 823
f 851 824 852
f 852 823 821
f 853 828 850
f 793 828 853
f 854 793 853
f 794 793 854
f 831 794 854
f 855 821 822
f 852 821 855
f 855 822 843
f 856 843 845
f 855 843 856
f 856 845 844
f 857 844 835
f 856 844 857
f 857 835 834
f 857 834 833
f 851 852 855
f 833 831 854
f 858 833 854
f 857 833 858
f 858 854 853
f 856 857 858
f 855 856 858
f 851 855 858
f 850 851 858
f 850 858 853
f 859 860 862 861
f 861 862 864 863
f 863 864 866 865
f 865 866 868 867
f 869 871 867 870
f 870 873 872 869
f 868 874 870 867
f 875 876 874 868
f 877 879 875 878
f 880 876 875 879
f 866 878 875 868
f 874 876 882 881
f 873 870 874 881
f 873 881 883 872
f 883 881 882 884
f 885 886 884 882
f 886 888 887 884
f 883 884 887 889
f 872 883 889 890
f 869 872 890 891
f 892 871 869 891
f 892 894 893 871
f 893 865 867 871
f 863 865 893 861
f 861 893 894 859
f 862 896 895 864
f 862 860 897 896
f 897 899 898 896
f 901 903 902 900
f 899 900 902 898
f 904 895 896 898
f 905 906 877 904
f 904 898 902 905
f 906 905 902 903
f 907 906 903 908
f 906 907 879 877
f 895 904 877 878
f 866 864 895 878
f 910 911 912 908
f 910 908 903 901
f 907 908 912 913
f 912 915 914 913
f 885 880 913 914
f 879 907 913 880
f 909 915 912 911
f 914 915 886 885
f 880 885 882 876
f 886 915 909 888
f 916 892 891
f 894 892 916
f 917 891 890
f 916 891 917
f 918 890 889
f 917 890 918
f 918 889 887
f 919 894 916
f 859 894 919
f 920 859 919
f 860 859 920
f 897 860 920
f 921 887 888
f 918 887 921
f 921 888 909
f 922 909 911
f 921 909 922
f 922 911 910
f 923 910 901
f 922 910 923
f 923 901 900
f 923 900 899
f 917 918 921
f 899 897 920
f 924 899 920
f 923 899 924
f 924 920 919
f 922 923 924
f 921 922 924
f 917 921 924
f 916 917 924
f 916 924 919
g Group50732
f 952 949 950 951
f 932 949 952 934
f 933 951 950 931
f 934 933 931 932
f 956 953 954 955
f 926 953 956 928
f 927 955 954 925
f 928 927 925 926
f 958 952 951 957
f 934 952 958 936
f 935 957 951 933
f 936 958 957 935
f 936 935 933 934
f 949 959 960 950
f 930 959 949 932
f 931 950 960 929
f 932 931 929 930
f 959 956 955 960
f 928 956 959 930
f 929 960 955 927
f 930 929 927 928
f 964 961 962 963
f 943 962 961 945
f 946 964 963 944
f 946 944 943 945
f 968 965 966 967
f 937 966 965 939
f 940 968 967 938
f 940 938 937 939
f 970 969 961 964
f 947 969 970 948
f 945 961 969 947
f 948 970 964 946
f 948 946 945 947
f 963 962 971 972
f 941 971 962 943
f 944 963 972 942
f 944 942 941 943
f 972 971 965 968
f 939 965 971 941
f 942 972 968 940
f 942 940 939 941
f 954 953 967 966
f 938 967 953 926
f 925 954 966 937
f 925 937 938 926

 