# File exported by ZBrush version 2021
# www.zbrush.com
#Vertex Count 972
#Face Count 1082
#Auto scale x=1.000000 y=1.000000 z=1.000000
#Auto offset x=0.000000 y=0.000000 z=0.000000
v -3.09273147 3.24501895 0.18606054
v -3.14283013 3.21256041 0.18080258
v -3.09736251 3.25660657 0.14267265
v -3.14383959 3.22826004 0.13473773
v -3.10931801 3.27354526 0.11356794
v -3.14552688 3.2618637 0.09960424
v -3.09465551 3.31089854 0.1060909
v -3.13974189 3.3104062 0.07938921
v -3.08672595 3.36544036 0.10492301
v -3.13501548 3.36926174 0.07521987
v -3.06504392 3.41845917 0.15294313
v -3.09295725 3.41907191 0.11391401
v -3.05515956 3.36054444 0.14662659
v -3.09409308 3.46476244 0.15772378
v -3.10647416 3.4546132 0.1266607
v -3.13791966 3.42641425 0.08777666
v -3.19605565 3.37151265 0.06162357
v -3.19557309 3.43183898 0.0761305
v -3.25597405 3.31262564 0.07272064
v -3.19750332 3.30903172 0.06725025
v -3.25806045 3.37161088 0.06816232
v -3.25415229 3.42863416 0.0811094
v -3.14225864 3.47001886 0.11465644
v -3.19608116 3.47844481 0.10656821
v -3.1396408 3.49554634 0.15406608
v -3.19745969 3.50759244 0.14876675
v -3.25064134 3.47208952 0.10843932
v -3.25587248 3.49776768 0.14739918
v -3.19962382 3.51483178 0.19904589
v -3.26134252 3.50348568 0.19461238
v -3.13829779 3.50113534 0.20166957
v -3.08924865 3.46678447 0.20209693
v -3.05655646 3.41666579 0.20043921
v -3.04497623 3.35502266 0.19671726
v -3.06686496 3.30245184 0.14455401
v -3.05848455 3.29385876 0.19155859
v -3.19956445 3.25667905 0.0905317
v -3.20199108 3.21901869 0.12790012
v -3.20454978 3.20121622 0.1763674
v -3.26006937 3.23048019 0.12807047
v -3.2658751 3.21491169 0.17374515
v -3.31492447 3.24926424 0.17331695
v -3.3476181 3.29938101 0.17497408
v -3.30592012 3.26059079 0.13070976
v -3.33466935 3.30756616 0.12919342
v -3.25391078 3.26393365 0.0933876
v -3.29073596 3.27700972 0.10316288
v -3.30321264 3.31488204 0.09412956
v -3.30891919 3.36968374 0.09217774
v -3.34429216 3.36606693 0.13004255
v -3.31144237 3.4710288 0.18935263
v -3.35919761 3.36102414 0.17869472
v -3.34568882 3.42218852 0.18385481
v -3.33284711 3.42357468 0.13758194
v -3.30151391 3.42305612 0.10195231
v -3.28789281 3.4580779 0.1162554
v -3.30265021 3.46874666 0.14576208
v -3.10776495 3.35622286 0.19311654
v -3.12605786 3.42115593 0.1966784
v -3.14795494 3.45858788 0.19806504
v -3.12808632 3.29202652 0.18734073
v -3.15114569 3.25545311 0.18337571
v -3.22155952 3.44902157 0.19305944
v -3.28447532 3.39985537 0.18585538
v -3.2929852 3.32876682 0.18028056
v -3.20890259 3.31955909 0.18456113
v -2.99586176 2.6134324 0.15129947
v -3.04596042 2.5809741 0.14604151
v -3.00049281 2.62502002 0.10791158
v -3.04696989 2.59667348 0.09997665
v -3.01244831 2.64195871 0.07880687
v -3.04865717 2.63027715 0.06484317
v -2.9977858 2.67931222 0.07132983
v -3.04287219 2.67881965 0.04462814
v -2.98985624 2.73385381 0.07016193
v -3.03814578 2.73767519 0.04045879
v -2.96817421 2.78687286 0.11818206
v -2.99608755 2.7874856 0.07915294
v -2.95828986 2.72895813 0.11186552
v -2.99722337 2.83317613 0.12296271
v -3.00960445 2.82302665 0.09189963
v -3.04104995 2.79482793 0.05301559
v -3.09918594 2.73992633 0.0268625
v -3.09870338 2.80025243 0.04136943
v -3.15910434 2.68103933 0.03795957
v -3.10063362 2.67744541 0.03248918
v -3.16119074 2.74002456 0.03340125
v -3.15728259 2.79704761 0.04634833
v -3.04538893 2.83843231 0.07989537
v -3.09921145 2.8468585 0.07180714
v -3.0427711 2.86395978 0.11930501
v -3.10058999 2.87600612 0.11400568
v -3.15377163 2.84050321 0.07367825
v -3.15900278 2.86618137 0.11263811
v -3.10275411 2.88324546 0.16428482
v -3.16447281 2.87189912 0.15985131
v -3.04142808 2.86954879 0.1669085
v -2.99237895 2.83519792 0.16733586
v -2.95968675 2.78507947 0.16567814
v -2.94810652 2.72343635 0.16195619
v -2.96999526 2.67086553 0.10979294
v -2.96161484 2.66227245 0.15679752
v -3.10269475 2.6250925 0.05577063
v -3.10512137 2.58743238 0.09313905
v -3.10768008 2.56962966 0.14160633
v -3.16319966 2.59889364 0.0933094
v -3.16900539 2.58332538 0.13898408
v -3.21805477 2.61767768 0.13855588
v -3.25074839 2.6677947 0.14021301
v -3.20905041 2.62900447 0.09594869
v -3.23779964 2.67597961 0.09443235
v -3.15704107 2.6323471 0.05862653
v -3.19386625 2.64542341 0.06840181
v -3.20634293 2.68329572 0.05936849
v -3.21204948 2.73809719 0.05741667
v -3.24742245 2.73448038 0.09528148
v -3.21457266 2.83944225 0.15459156
v -3.2623279 2.72943782 0.14393365
v -3.24881911 2.7906022 0.14909374
v -3.23597741 2.79198837 0.10282087
v -3.2046442 2.79146957 0.06719124
v -3.19102311 2.82649135 0.08149433
v -3.2057805 2.83716011 0.11100101
v -3.01089525 2.72463655 0.15835547
v -3.02918815 2.78956937 0.16191732
v -3.05108523 2.82700157 0.16330397
v -3.03121662 2.66043996 0.15257966
v -3.05427599 2.62386655 0.14861464
v -3.12468981 2.81743526 0.15829837
v -3.18760561 2.76826906 0.15109431
v -3.19611549 2.69718027 0.14551949
v -3.11203289 2.68797254 0.14980006
v -2.53835964 -2.23898053 0.10436272
v -2.58845853 -2.27143883 0.09910488
v -2.54299068 -2.22739291 0.06097483
v -2.589468 -2.25573945 0.05304002
v -2.55494642 -2.21045422 0.03187012
v -2.59115505 -2.22213578 0.01790642
v -2.54028368 -2.17310071 0.02439308
v -2.58537006 -2.17359328 -0.0023086
v -2.53235435 -2.11855912 0.0232253
v -2.58064365 -2.11473774 -0.00647783
v -2.51067209 -2.06554007 0.07124543
v -2.53858566 -2.06492734 0.03221631
v -2.50078773 -2.1234548 0.06492877
v -2.53972148 -2.0192368 0.07602596
v -2.55210256 -2.02938628 0.04496288
v -2.58354806 -2.057585 0.00607895
v -2.64168405 -2.1124866 -0.02007412
v -2.64120149 -2.0521605 -0.00556731
v -2.70160245 -2.1713736 -0.00897717
v -2.64313173 -2.17496752 -0.01444745
v -2.70368862 -2.11238837 -0.0135355
v -2.69978046 -2.05536532 -0.00058841
v -2.58788681 -2.01398062 0.03295874
v -2.64170932 -2.00555443 0.02487039
v -2.58526897 -1.98845303 0.07236838
v -2.64308786 -1.97640669 0.06706905
v -2.69626951 -2.01190972 0.0267415
v -2.70150089 -1.98623144 0.06570148
v -2.64525222 -1.96916735 0.11734819
v -2.70697069 -1.98051369 0.11291456
v -2.5839262 -1.98286402 0.11997175
v -2.53487682 -2.01721501 0.12039923
v -2.50218486 -2.06733346 0.11874151
v -2.4906044 -2.12897658 0.11501956
v -2.51249313 -2.1815474 0.06285619
v -2.50411272 -2.19014048 0.10986089
v -2.64519262 -2.22732043 0.00883388
v -2.64761924 -2.26498055 0.04620242
v -2.65017795 -2.28278327 0.09466958
v -2.70569753 -2.25351929 0.04637265
v -2.7115035 -2.26908755 0.09204745
v -2.76055288 -2.23473525 0.09161925
v -2.79324626 -2.18461823 0.09327626
v -2.75154829 -2.22340846 0.04901194
v -2.78029775 -2.17643332 0.0474956
v -2.69953918 -2.22006583 0.0116899
v -2.73636436 -2.20698952 0.02146506
v -2.7488408 -2.16911721 0.01243186
v -2.75454759 -2.11431574 0.01047992
v -2.78992033 -2.11793255 0.04834485
v -2.75707054 -2.01297068 0.10765481
v -2.80482578 -2.12297511 0.09699702
v -2.79131698 -2.06181073 0.10215711
v -2.77847528 -2.06042456 0.05588412
v -2.74714231 -2.06094336 0.02025461
v -2.73352098 -2.02592158 0.03455758
v -2.74827861 -2.01525282 0.06406426
v -2.55339336 -2.12777638 0.11141872
v -2.57168626 -2.06284356 0.11498069
v -2.5935831 -2.02541136 0.11636734
v -2.57371473 -2.19197297 0.10564303
v -2.5967741 -2.22854638 0.10167789
v -2.66718769 -2.03497767 0.11136174
v -2.73010349 -2.08414387 0.10415768
v -2.7386136 -2.15523266 0.09858274
v -2.654531 -2.16444039 0.10286331
v -2.44856548 -2.76967144 0.10836076
v -2.49866437 -2.80212974 0.10310292
v -2.45319652 -2.75808382 0.06497287
v -2.49967384 -2.78643035 0.05703806
v -2.46515226 -2.74114513 0.03586816
v -2.50136089 -2.75282669 0.02190446
v -2.45048952 -2.70379161 0.02839112
v -2.4955759 -2.70428419 0.00168943
v -2.44256019 -2.64925003 0.02722334
v -2.49084949 -2.64542865 -0.00247979
v -2.42087793 -2.59623098 0.07524347
v -2.4487915 -2.59561824 0.03621435
v -2.41099357 -2.65414571 0.06892681
v -2.44992733 -2.54992771 0.080024
v -2.4623084 -2.56007719 0.04896092
v -2.49375391 -2.5882759 0.010077
v -2.55188989 -2.6431775 -0.01607608
v -2.55140733 -2.58285141 -0.00156927
v -2.6118083 -2.70206451 -0.00497913
v -2.55333757 -2.70565843 -0.0104494
v -2.61389446 -2.64307928 -0.00953745
v -2.6099863 -2.58605623 0.00340962
v -2.49809265 -2.54467153 0.03695678
v -2.55191516 -2.53624534 0.02886843
v -2.49547481 -2.51914405 0.07636642
v -2.5532937 -2.50709772 0.07106709
v -2.60647535 -2.54260063 0.03073954
v -2.61170673 -2.51692247 0.06969952
v -2.55545806 -2.49985837 0.12134623
v -2.61717653 -2.51120472 0.1169126
v -2.49413204 -2.51355505 0.12396979
v -2.44508266 -2.54790592 0.12439727
v -2.4123907 -2.59802436 0.12273955
v -2.40081024 -2.65966749 0.1190176
v -2.42269897 -2.71223831 0.06685423
v -2.41431856 -2.72083139 0.11385893
v -2.55539846 -2.75801134 0.01283192
v -2.55782508 -2.79567146 0.05020046
v -2.56038379 -2.81347417 0.09866762
v -2.61590337 -2.7842102 0.05037069
v -2.62170934 -2.79977846 0.09604549
v -2.67075872 -2.76542615 0.09561729
v -2.70345211 -2.71530914 0.0972743
v -2.66175413 -2.75409936 0.05300998
v -2.69050359 -2.70712423 0.05149364
v -2.60974502 -2.75075674 0.01568794
v -2.6465702 -2.73768043 0.0254631
v -2.65904665 -2.69980812 0.0164299
v -2.66475343 -2.64500665 0.01447796
v -2.70012617 -2.64862346 0.05234289
v -2.66727638 -2.54366159 0.11165285
v -2.71503162 -2.65366601 0.10099506
v -2.70152282 -2.59250164 0.10615515
v -2.68868112 -2.59111547 0.05988216
v -2.65734815 -2.59163427 0.02425265
v -2.64372682 -2.55661249 0.03855562
v -2.65848445 -2.54594373 0.0680623
v -2.4635992 -2.65846729 0.11541676
v -2.4818921 -2.59353447 0.11897873
v -2.50378894 -2.55610227 0.12036538
v -2.48392057 -2.72266387 0.10964107
v -2.50697994 -2.75923728 0.10567593
v -2.57739353 -2.56566858 0.11535978
v -2.64030933 -2.61483478 0.10815572
v -2.64881944 -2.68592357 0.10258078
v -2.56473684 -2.6951313 0.10686135
v 3.09273147 3.24501895 0.18606054
v 3.14283013 3.21256041 0.18080258
v 3.09736251 3.25660657 0.14267265
v 3.14383959 3.22826004 0.13473773
v 3.10931801 3.27354526 0.11356794
v 3.14552688 3.2618637 0.09960424
v 3.09465551 3.31089854 0.1060909
v 3.13974189 3.3104062 0.07938921
v 3.08672595 3.36544036 0.10492301
v 3.13501548 3.36926174 0.07521987
v 3.06504392 3.41845917 0.15294313
v 3.09295725 3.41907191 0.11391401
v 3.05515956 3.36054444 0.14662659
v 3.09409308 3.46476244 0.15772378
v 3.10647416 3.4546132 0.1266607
v 3.13791966 3.42641425 0.08777666
v 3.19605565 3.37151265 0.06162357
v 3.19557309 3.43183898 0.0761305
v 3.25597405 3.31262564 0.07272064
v 3.19750332 3.30903172 0.06725025
v 3.25806045 3.37161088 0.06816232
v 3.25415229 3.42863416 0.0811094
v 3.14225864 3.47001886 0.11465644
v 3.19608116 3.47844481 0.10656821
v 3.1396408 3.49554634 0.15406608
v 3.19745969 3.50759244 0.14876675
v 3.25064134 3.47208952 0.10843932
v 3.25587248 3.49776768 0.14739918
v 3.19962382 3.51483178 0.19904589
v 3.26134252 3.50348568 0.19461238
v 3.13829779 3.50113534 0.20166957
v 3.08924865 3.46678447 0.20209693
v 3.05655646 3.41666579 0.20043921
v 3.04497623 3.35502266 0.19671726
v 3.06686496 3.30245184 0.14455401
v 3.05848455 3.29385876 0.19155859
v 3.19956445 3.25667905 0.0905317
v 3.20199108 3.21901869 0.12790012
v 3.20454978 3.20121622 0.1763674
v 3.26006937 3.23048019 0.12807047
v 3.2658751 3.21491169 0.17374515
v 3.31492447 3.24926424 0.17331695
v 3.3476181 3.29938101 0.17497408
v 3.30592012 3.26059079 0.13070976
v 3.33466935 3.30756616 0.12919342
v 3.25391078 3.26393365 0.0933876
v 3.29073596 3.27700972 0.10316288
v 3.30321264 3.31488204 0.09412956
v 3.30891919 3.36968374 0.09217774
v 3.34429216 3.36606693 0.13004255
v 3.31144237 3.4710288 0.18935263
v 3.35919761 3.36102414 0.17869472
v 3.34568882 3.42218852 0.18385481
v 3.33284711 3.42357468 0.13758194
v 3.30151391 3.42305612 0.10195231
v 3.28789281 3.4580779 0.1162554
v 3.30265021 3.46874666 0.14576208
v 3.10776495 3.35622286 0.19311654
v 3.12605786 3.42115593 0.1966784
v 3.14795494 3.45858788 0.19806504
v 3.12808632 3.29202652 0.18734073
v 3.15114569 3.25545311 0.18337571
v 3.22155952 3.44902157 0.19305944
v 3.28447532 3.39985537 0.18585538
v 3.2929852 3.32876682 0.18028056
v 3.20890259 3.31955909 0.18456113
v 2.99586176 2.6134324 0.15129947
v 3.04596042 2.5809741 0.14604151
v 3.00049281 2.62502002 0.10791158
v 3.04696989 2.59667348 0.09997665
v 3.01244831 2.64195871 0.07880687
v 3.04865717 2.63027715 0.06484317
v 2.9977858 2.67931222 0.07132983
v 3.04287219 2.67881965 0.04462814
v 2.98985624 2.73385381 0.07016193
v 3.03814578 2.73767519 0.04045879
v 2.96817421 2.78687286 0.11818206
v 2.99608755 2.7874856 0.07915294
v 2.95828986 2.72895813 0.11186552
v 2.99722337 2.83317613 0.12296271
v 3.00960445 2.82302665 0.09189963
v 3.04104995 2.79482793 0.05301559
v 3.09918594 2.73992633 0.0268625
v 3.09870338 2.80025243 0.04136943
v 3.15910434 2.68103933 0.03795957
v 3.10063362 2.67744541 0.03248918
v 3.16119074 2.74002456 0.03340125
v 3.15728259 2.79704761 0.04634833
v 3.04538893 2.83843231 0.07989537
v 3.09921145 2.8468585 0.07180714
v 3.0427711 2.86395978 0.11930501
v 3.10058999 2.87600612 0.11400568
v 3.15377163 2.84050321 0.07367825
v 3.15900278 2.86618137 0.11263811
v 3.10275411 2.88324546 0.16428482
v 3.16447281 2.87189912 0.15985131
v 3.04142808 2.86954879 0.1669085
v 2.99237895 2.83519792 0.16733586
v 2.95968675 2.78507947 0.16567814
v 2.94810652 2.72343635 0.16195619
v 2.96999526 2.67086553 0.10979294
v 2.96161484 2.66227245 0.15679752
v 3.10269475 2.6250925 0.05577063
v 3.10512137 2.58743238 0.09313905
v 3.10768008 2.56962966 0.14160633
v 3.16319966 2.59889364 0.0933094
v 3.16900539 2.58332538 0.13898408
v 3.21805477 2.61767768 0.13855588
v 3.25074839 2.6677947 0.14021301
v 3.20905041 2.62900447 0.09594869
v 3.23779964 2.67597961 0.09443235
v 3.15704107 2.6323471 0.05862653
v 3.19386625 2.64542341 0.06840181
v 3.20634293 2.68329572 0.05936849
v 3.21204948 2.73809719 0.05741667
v 3.24742245 2.73448038 0.09528148
v 3.21457266 2.83944225 0.15459156
v 3.2623279 2.72943782 0.14393365
v 3.24881911 2.7906022 0.14909374
v 3.23597741 2.79198837 0.10282087
v 3.2046442 2.79146957 0.06719124
v 3.19102311 2.82649135 0.08149433
v 3.2057805 2.83716011 0.11100101
v 3.01089525 2.72463655 0.15835547
v 3.02918815 2.78956937 0.16191732
v 3.05108523 2.82700157 0.16330397
v 3.03121662 2.66043996 0.15257966
v 3.05427599 2.62386655 0.14861464
v 3.12468981 2.81743526 0.15829837
v 3.18760561 2.76826906 0.15109431
v 3.19611549 2.69718027 0.14551949
v 3.11203289 2.68797254 0.14980006
v 2.53835964 -2.23898053 0.10436272
v 2.58845853 -2.27143883 0.09910488
v 2.54299068 -2.22739291 0.06097483
v 2.589468 -2.25573945 0.05304002
v 2.55494642 -2.21045422 0.03187012
v 2.59115505 -2.22213578 0.01790642
v 2.54028368 -2.17310071 0.02439308
v 2.58537006 -2.17359328 -0.0023086
v 2.53235435 -2.11855912 0.0232253
v 2.58064365 -2.11473774 -0.00647783
v 2.51067209 -2.06554007 0.07124543
v 2.53858566 -2.06492734 0.03221631
v 2.50078773 -2.1234548 0.06492877
v 2.53972148 -2.0192368 0.07602596
v 2.55210256 -2.02938628 0.04496288
v 2.58354806 -2.057585 0.00607895
v 2.64168405 -2.1124866 -0.02007412
v 2.64120149 -2.0521605 -0.00556731
v 2.70160245 -2.1713736 -0.00897717
v 2.64313173 -2.17496752 -0.01444745
v 2.70368862 -2.11238837 -0.0135355
v 2.69978046 -2.05536532 -0.00058841
v 2.58788681 -2.01398062 0.03295874
v 2.64170932 -2.00555443 0.02487039
v 2.58526897 -1.98845303 0.07236838
v 2.64308786 -1.97640669 0.06706905
v 2.69626951 -2.01190972 0.0267415
v 2.70150089 -1.98623144 0.06570148
v 2.64525222 -1.96916735 0.11734819
v 2.70697069 -1.98051369 0.11291456
v 2.5839262 -1.98286402 0.11997175
v 2.53487682 -2.01721501 0.12039923
v 2.50218486 -2.06733346 0.11874151
v 2.4906044 -2.12897658 0.11501956
v 2.51249313 -2.1815474 0.06285619
v 2.50411272 -2.19014048 0.10986089
v 2.64519262 -2.22732043 0.00883388
v 2.64761924 -2.26498055 0.04620242
v 2.65017795 -2.28278327 0.09466958
v 2.70569753 -2.25351929 0.04637265
v 2.7115035 -2.26908755 0.09204745
v 2.76055288 -2.23473525 0.09161925
v 2.79324626 -2.18461823 0.09327626
v 2.75154829 -2.22340846 0.04901194
v 2.78029775 -2.17643332 0.0474956
v 2.69953918 -2.22006583 0.0116899
v 2.73636436 -2.20698952 0.02146506
v 2.7488408 -2.16911721 0.01243186
v 2.75454759 -2.11431574 0.01047992
v 2.78992033 -2.11793255 0.04834485
v 2.75707054 -2.01297068 0.10765481
v 2.80482578 -2.12297511 0.09699702
v 2.79131698 -2.06181073 0.10215711
v 2.77847528 -2.06042456 0.05588412
v 2.74714231 -2.06094336 0.02025461
v 2.73352098 -2.02592158 0.03455758
v 2.74827861 -2.01525282 0.06406426
v 2.55339336 -2.12777638 0.11141872
v 2.57168626 -2.06284356 0.11498069
v 2.5935831 -2.02541136 0.11636734
v 2.57371473 -2.19197297 0.10564303
v 2.5967741 -2.22854638 0.10167789
v 2.66718769 -2.03497767 0.11136174
v 2.73010349 -2.08414387 0.10415768
v 2.7386136 -2.15523266 0.09858274
v 2.654531 -2.16444039 0.10286331
v 2.44856548 -2.76967144 0.10836076
v 2.49866437 -2.80212974 0.10310292
v 2.45319652 -2.75808382 0.06497287
v 2.49967384 -2.78643035 0.05703806
v 2.46515226 -2.74114513 0.03586816
v 2.50136089 -2.75282669 0.02190446
v 2.45048952 -2.70379161 0.02839112
v 2.4955759 -2.70428419 0.00168943
v 2.44256019 -2.64925003 0.02722334
v 2.49084949 -2.64542865 -0.00247979
v 2.42087793 -2.59623098 0.07524347
v 2.4487915 -2.59561824 0.03621435
v 2.41099357 -2.65414571 0.06892681
v 2.44992733 -2.54992771 0.080024
v 2.4623084 -2.56007719 0.04896092
v 2.49375391 -2.5882759 0.010077
v 2.55188989 -2.6431775 -0.01607608
v 2.55140733 -2.58285141 -0.00156927
v 2.6118083 -2.70206451 -0.00497913
v 2.55333757 -2.70565843 -0.0104494
v 2.61389446 -2.64307928 -0.00953745
v 2.6099863 -2.58605623 0.00340962
v 2.49809265 -2.54467153 0.03695678
v 2.55191516 -2.53624534 0.02886843
v 2.49547481 -2.51914405 0.07636642
v 2.5532937 -2.50709772 0.07106709
v 2.60647535 -2.54260063 0.03073954
v 2.61170673 -2.51692247 0.06969952
v 2.55545806 -2.49985837 0.12134623
v 2.61717653 -2.51120472 0.1169126
v 2.49413204 -2.51355505 0.12396979
v 2.44508266 -2.54790592 0.12439727
v 2.4123907 -2.59802436 0.12273955
v 2.40081024 -2.65966749 0.1190176
v 2.42269897 -2.71223831 0.06685423
v 2.41431856 -2.72083139 0.11385893
v 2.55539846 -2.75801134 0.01283192
v 2.55782508 -2.79567146 0.05020046
v 2.56038379 -2.81347417 0.09866762
v 2.61590337 -2.7842102 0.05037069
v 2.62170934 -2.79977846 0.09604549
v 2.67075872 -2.76542615 0.09561729
v 2.70345211 -2.71530914 0.0972743
v 2.66175413 -2.75409936 0.05300998
v 2.69050359 -2.70712423 0.05149364
v 2.60974502 -2.75075674 0.01568794
v 2.6465702 -2.73768043 0.0254631
v 2.65904665 -2.69980812 0.0164299
v 2.66475343 -2.64500665 0.01447796
v 2.70012617 -2.64862346 0.05234289
v 2.66727638 -2.54366159 0.11165285
v 2.71503162 -2.65366601 0.10099506
v 2.70152282 -2.59250164 0.10615515
v 2.68868112 -2.59111547 0.05988216
v 2.65734815 -2.59163427 0.02425265
v 2.64372682 -2.55661249 0.03855562
v 2.65848445 -2.54594373 0.0680623
v 2.4635992 -2.65846729 0.11541676
v 2.4818921 -2.59353447 0.11897873
v 2.50378894 -2.55610227 0.12036538
v 2.48392057 -2.72266387 0.10964107
v 2.50697994 -2.75923728 0.10567593
v 2.57739353 -2.56566858 0.11535978
v 2.64030933 -2.61483478 0.10815572
v 2.64881944 -2.68592357 0.10258078
v 2.56473684 -2.6951313 0.10686135
v 1.23366534 -3.86896944 1.93977701
v 1.72340083 -3.78775715 1.2587707
v 0.48283854 -3.9284532 2.33297753
v 1.59116482 4.06109428 1.90078687
v 2.245543 3.89499974 1.24706685
v 0.62190187 4.12697935 2.28020191
v 1.87362361 -3.88672709 1.30657982
v 1.32502222 -3.92580461 2.04594135
v 2.46944308 3.94772625 1.31104791
v 1.72586476 4.11776876 2.01884365
v 0.51194453 -3.97277522 2.46187019
v 0.66571986 4.18193769 2.42630338
v 1.94763672 -3.71032023 0.89303743
v 1.77088749 -3.69673299 0.83458483
v 2.5589261 3.72468566 0.91795378
v 2.31272649 3.8011856 0.8156265
v 1.26082301 -4.63741397 2.05003953
v 1.7708863 -4.43236255 1.23372745
v 0.49082037 -4.71463823 2.45415329
v 1.85361003 -4.0983715 0.83393871
v 2.55271554 4.1302452 0.85264003
v 2.44252491 4.53234148 1.23476052
v 1.70262169 4.83231401 2.03773236
v 0.65182918 4.93416976 2.42165088
v 1.92523038 -3.81312918 0.64494192
v 2.59275555 3.81888651 0.67330455
v -1.23366522 -3.86896944 1.93977701
v -1.72340095 -3.78775715 1.2587707
v -0.48283821 -3.9284532 2.33297753
v -1.59116411 4.06109428 1.90078687
v -2.24554109 3.89499974 1.24706685
v -0.62190204 4.12697362 2.28020191
v -1.87362372 -3.88672709 1.30657982
v -1.3250221 -3.92580461 2.04594135
v -2.46944308 3.94772625 1.31104791
v -1.72586453 4.11776876 2.01884365
v -0.51194489 -3.97277522 2.46187019
v -0.66572022 4.18193531 2.42630338
v -1.9476366 -3.71032023 0.89303743
v -1.77088701 -3.69673299 0.83458483
v -2.55892539 3.72468566 0.91795378
v -2.31272554 3.8011856 0.8156265
v -1.26082336 -4.63741397 2.05003953
v -1.77088511 -4.43236255 1.23372745
v -0.49082079 -4.71463823 2.45415329
v -1.85361015 -4.0983715 0.83393871
v -2.55271434 4.1302452 0.85264289
v -2.44252491 4.53234148 1.23476052
v -1.70262014 4.83231401 2.03773236
v -0.6518296 4.93416976 2.42165088
v -1.92522978 -3.81312918 0.64494192
v -2.59275507 3.81888651 0.67330455
v 2.57328629 -5.24289321 1.56542527
v 1.66130614 -5.375813 2.68608284
v 0.62124204 -5.38093376 3.05889535
v 3.70621371 5.1470294 1.50315785
v 3.74767684 4.60538244 0.81379699
v 2.68696236 -4.78833341 0.869502
v 2.77007913 -4.49393606 0.65312421
v 3.77732276 4.29273414 0.59503543
v 2.23524117 5.42393302 2.55266857
v 0.8138163 5.49408626 2.95616221
v -1.66130626 -5.375813 2.68608284
v -2.57328438 -5.24289321 1.56542527
v -0.6212424 -5.38093376 3.05889535
v -3.74767684 4.60538005 0.81379699
v -3.70621419 5.1470294 1.50315785
v -2.68696188 -4.78833341 0.869502
v -2.77007818 -4.49393606 0.65312421
v -3.77732276 4.29273414 0.59503543
v -2.23524189 5.42393302 2.55266857
v -0.81381499 5.49408626 2.95616221
v 0.61007142 -5.77070522 3.01646518
v -0.61007154 -5.7707076 3.01646518
v -0.43920835 -5.00149297 2.2338438
v 0.43920841 -5.00149297 2.2338438
v -0.79593175 5.82442522 2.8884015
v 0.79593193 5.82442522 2.8884015
v 0.59144002 5.22294473 2.21556305
v -0.59143996 5.22294473 2.21556305
v -2.73510909 -4.53211069 0.39494514
v -1.75769913 -3.74354791 0.39111959
v -3.72279882 4.4155116 0.31225836
v -2.34148788 3.87806081 0.39483821
v -2.18749976 5.82440471 2.56044006
v -1.51821637 5.1346879 1.87578368
v -3.63398718 5.56876564 1.45963347
v -2.16896677 4.83522987 1.11116361
v -2.43503785 -5.66750049 1.51380503
v -2.59484815 -5.0655508 0.79125887
v -1.64896428 -4.25627327 0.715339
v -1.5197761 -4.7099905 1.09751117
v 2.43504023 -5.66750049 1.51380503
v 1.57985341 -5.82442522 2.68206787
v 1.0915066 -4.93023538 1.86922502
v 1.51977646 -4.7099905 1.09751117
v 3.63398838 5.56876564 1.45963347
v 3.68030285 4.97533035 0.71015143
v 2.27881956 4.40095758 0.70369827
v 2.1689651 4.83523225 1.11116361
v 2.73511076 -4.53211069 0.39494514
v 2.59484815 -5.0655508 0.79125887
v 1.64896416 -4.25627327 0.715339
v 1.75769913 -3.74354791 0.39111959
v 3.72280001 4.41551303 0.31225836
v 2.34148907 3.87806034 0.39484107
v 2.1875 5.82440471 2.56044006
v 1.51821744 5.1346879 1.87578368
v -1.57985484 -5.82442522 2.68206787
v -1.09150672 -4.93023538 1.86922502
v -3.68030333 4.9753232 0.71015143
v -2.27881956 4.40095472 0.70369535
v 0.5278685 -4.90438985 2.62215328
v -0.52786833 -4.90438985 2.62215328
v -0.69623142 5.09343004 2.57050633
v 0.69623243 5.09343004 2.57050633
v -2.16696882 -4.00102281 0.64736294
v -2.92229533 3.95455408 0.65607571
v -1.84847331 5.00075626 2.18196129
v -2.78989148 4.70844745 1.31485033
v 2.00018954 -4.65883398 1.32580757
v 1.37463903 -4.8473463 2.22673583
v 2.78989386 4.70844698 1.31485319
v 2.8848133 4.26625156 0.84653723
v 2.16696906 -4.00102281 0.64736294
v 2.09211516 -4.28902387 0.84389001
v 2.92229533 3.95455408 0.65607571
v 1.8484745 5.00075626 2.18196129
v -1.37463939 -4.84734392 2.22673296
v -2.00018835 -4.65883398 1.32580757
v -2.8848145 4.26625156 0.84653723
v -2.09211492 -4.28902387 0.84389001
v 0.57649689 -5.15284824 2.84714698
v -0.57649701 -5.15284824 2.84714698
v -0.75641721 5.30219316 2.7694199
v 0.75641727 5.30219411 2.76941704
v -2.48215794 -4.25417137 0.65034401
v -3.36310124 4.13131856 0.62758898
v -2.04635334 5.22135067 2.37370371
v -3.25960278 4.93773603 1.41551184
v 2.2995274 -4.96057128 1.44913172
v 1.52397131 -5.12266159 2.46336078
v 3.25960397 4.93773603 1.41551184
v 3.32944393 4.44349288 0.83274036
v 2.48215889 -4.25417137 0.65034401
v 2.40302324 -4.54560518 0.85705494
v 3.36310124 4.13131856 0.62758898
v 2.04635453 5.22135114 2.37370085
v -1.52397084 -5.12266016 2.46336078
v -2.2995274 -4.96057128 1.44913172
v -3.32944631 4.44349288 0.83274036
v -2.40302324 -4.54560518 0.85705494
v -0.47072812 -5.14454174 2.3745346
v 0.47072854 -5.14454174 2.3745346
v 0.62745696 5.33457326 2.33700323
v -0.6274569 5.33457326 2.33700323
v -2.53004765 4.50823593 0.7097035
v -2.58990716 3.97866869 0.38464272
v -1.94006371 -3.88376998 0.39200711
v -1.82548046 -4.40071249 0.72903531
v -2.42796778 4.97235918 1.17920279
v -1.63574099 5.26300668 2.00020194
v -1.1818602 -5.09601879 2.01515984
v -1.69039118 -4.88331461 1.17213285
v 1.18186008 -5.09601879 2.01515984
v 1.69039213 -4.88331461 1.17213285
v 1.94006502 -3.88376998 0.39200711
v 2.53004813 4.50823831 0.7097035
v 2.42796969 4.97236156 1.17920279
v 1.82548058 -4.40071249 0.72903531
v 2.58990836 3.97866869 0.38464272
v 1.63574206 5.26300668 2.00020194
v -0.5188294 -5.36181211 2.59235715
v 0.51883065 -5.36181211 2.59235715
v 0.68386024 5.50431156 2.52458977
v -0.68386036 5.50431156 2.52458977
v -2.91965937 4.67075014 0.71485567
v -2.97445702 4.13090753 0.36487519
v -2.21655559 -4.10221862 0.39310705
v -2.09307813 -4.6252551 0.75010097
v -2.83279156 5.179955 1.27996766
v -1.82010567 5.45783615 2.19168281
v -1.31952416 -5.34826326 2.24125051
v -1.94922888 -5.15063285 1.28774869
v 1.31952405 -5.34826326 2.24125051
v 1.94923055 -5.15063285 1.28774869
v 2.21655774 -4.10221862 0.39310705
v 2.91965985 4.67075014 0.71485567
v 2.83279156 5.179955 1.27996766
v 2.09307837 -4.6252551 0.75010097
v 2.97445821 4.13090753 0.36487519
v 1.82010519 5.45783615 2.19168281
v -0.56884777 -5.58647441 2.82301425
v 0.56884783 -5.58647441 2.82301425
v 0.74444288 5.68008041 2.72268199
v -0.74444299 5.68008041 2.72268199
v -3.33304381 4.8382883 0.71473801
v -3.38154888 4.28758335 0.33859694
v -2.50177598 -4.3352952 0.39409792
v -2.36908507 -4.86422777 0.77240741
v -3.26644969 5.39385032 1.38045406
v -2.01854157 5.65924358 2.39291405
v -1.46237278 -5.6096549 2.48089122
v -2.21639537 -5.43234491 1.41048407
v 1.46237242 -5.6096549 2.48089122
v 2.21639657 -5.43234491 1.41048407
v 2.50177741 -4.3352952 0.39409792
v 3.33304476 4.83829116 0.71473801
v 3.26645112 5.39385032 1.38045406
v 2.36908507 -4.86422777 0.77240741
v 3.38154816 4.28758335 0.33859694
v 2.01854205 5.65924263 2.39291691
v 2.45990586 2.40992212 0.22228634
v 2.82285928 2.48787426 0.19129228
v 2.32991886 0.83506709 0.14175713
v 2.67126631 0.83821237 0.10724508
v 2.19994592 -0.74165797 0.1432507
v 2.51968073 -0.81324648 0.11294019
v 2.06999445 -2.31601333 0.22674977
v 2.36810946 -2.46166443 0.20833194
v -2.77098846 2.36845636 0.48553431
v -3.18668603 2.45883059 0.44512307
v -2.61979651 0.77541571 0.39924693
v -3.01037526 0.7788856 0.3560357
v -2.46872615 -0.82013827 0.39747214
v -2.83417987 -0.90336734 0.36060226
v -2.31778144 -2.41376328 0.48024737
v -2.65810418 -2.58276987 0.4588027
v -2.45900964 2.29763817 0.5119934
v -2.32538271 0.76987552 0.42835116
v -2.19187474 -0.76046735 0.42263031
v -2.05848932 -2.28944945 0.4948771
v -2.93268275 -2.75209522 0.16810762
v -2.97131776 -2.74440598 0.43690121
v -3.13025164 -0.96122556 0.04609859
v -3.17267179 -0.98510026 0.32274425
v -3.32780027 0.83440721 0.02941823
v -3.37413072 0.77811336 0.3110553
v -3.52531886 2.62869119 0.11820709
v -3.57568502 2.53935122 0.40190613
v 1.40529203 -2.32398581 1.85846936
v 1.99270594 -2.32422447 1.13945579
v 1.48551273 -0.71357971 1.76179099
v 2.11183238 -0.75504934 1.05622386
v 1.56568217 0.90027833 1.75629115
v 2.23099732 0.81632107 1.05711972
v 1.64580035 2.51244449 1.84204435
v 2.35020279 2.38540577 1.14214062
v 1.8278464 -2.25614428 1.09499228
v 1.30528593 -2.29009509 1.75564229
v 1.93228399 -0.71784228 1.01178622
v 1.37684774 -0.70275914 1.65944361
v 2.03671407 0.82293373 1.00941968
v 1.44834744 0.88815367 1.6515485
v 2.14113402 2.36195492 1.08790969
v 1.51978671 2.47773838 1.732046
v 0.54275786 -2.34964823 2.26459074
v 0.57354158 -0.71707147 2.16211962
v 0.60429644 0.91942 2.15490222
v 0.63502287 2.5542736 2.2430334
v 0.51071792 -2.32563448 2.13775992
v 0.53856301 -0.71339076 2.03457951
v 0.56637555 0.90299373 2.02389001
v 0.59415537 2.51821875 2.10581779
v 2.06969904 -2.2260015 0.7488113
v 2.19186258 -0.73662614 0.67914068
v 2.3141222 0.75409179 0.68416369
v 2.43647718 2.24243235 0.76384264
v 1.87929022 -2.20192337 0.67933321
v 1.9876784 -0.70092195 0.59967696
v 2.09604644 0.80246931 0.59584283
v 2.20439672 2.30444026 0.66787374
v 2.65810418 -2.58276987 0.4588027
v 2.97131776 -2.74440598 0.43690121
v 2.83417987 -0.90336734 0.36060226
v 3.17267227 -0.98510026 0.32274425
v 3.01037526 0.7788856 0.3560357
v 3.3741312 0.77811336 0.3110553
v 3.18668603 2.45883059 0.44512307
v 3.57568526 2.53935122 0.40190613
v 2.05848908 -2.28944945 0.4948771
v 2.19187474 -0.76046735 0.42263031
v 2.32538223 0.76987588 0.42835116
v 2.45901012 2.29763841 0.51199054
v 1.87441611 -2.22322869 0.23772633
v 1.99115669 -0.69703578 0.16129803
v 2.10791683 0.8311603 0.16203308
v 2.22469449 2.35748291 0.23994302
v 3.20560956 2.566226 0.15362966
v 3.02965331 0.83774995 0.06663286
v 2.85369205 -0.89233368 0.07783091
v 2.67773032 -2.61851334 0.18711698
v -2.67772984 -2.61851334 0.18711698
v -2.85369157 -0.89233368 0.07783091
v -3.02965331 0.83774995 0.06663286
v -3.20560908 2.566226 0.15362966
v -1.99270689 -2.32422447 1.13945579
v -1.40529251 -2.32398581 1.85846936
v -2.11183238 -0.75504934 1.05622386
v -1.48551309 -0.71357971 1.76179099
v -2.23099756 0.81632107 1.05711972
v -1.56568217 0.90027833 1.75629115
v -2.35020351 2.38540577 1.14214062
v -1.64579892 2.51244449 1.84204435
v -1.30528605 -2.29009509 1.75564229
v -1.8278464 -2.25614428 1.09499228
v -1.37684643 -0.70275914 1.65944361
v -1.93228387 -0.71784228 1.01178622
v -1.44834661 0.88815367 1.6515485
v -2.03671407 0.82293373 1.00941968
v -1.51978683 2.47773838 1.732046
v -2.14113402 2.36195492 1.08790969
v -0.5427578 -2.34964823 2.26459074
v -0.5735417 -0.71707284 2.16211962
v -0.60429674 0.91941791 2.15490222
v -0.63502311 2.55427098 2.2430334
v -0.51071649 -2.32563591 2.13775992
v -0.53856313 -0.71339422 2.03457951
v -0.56637567 0.90299087 2.02389001
v -0.59415441 2.51821517 2.10581779
v -2.06969881 -2.2260015 0.7488113
v -2.19186282 -0.73662614 0.67914068
v -2.31412172 0.75409179 0.68416369
v -2.43647718 2.24243235 0.76384264
v -1.87929058 -2.20192337 0.67933321
v -1.98767793 -0.70092195 0.59967696
v -2.09604644 0.80246931 0.59584283
v -2.20439672 2.30444026 0.66787374
v -2.06999468 -2.31601333 0.22674977
v -2.36810898 -2.46166443 0.20833194
v -2.19994592 -0.74165713 0.1432507
v -2.51967978 -0.81324505 0.11294019
v -2.32991886 0.83506709 0.14175713
v -2.67126417 0.83821237 0.10724508
v -2.45990586 2.40992212 0.22228634
v -2.82285928 2.48787426 0.19129228
v -1.87441623 -2.22322869 0.23772633
v -1.99115622 -0.69703507 0.16129803
v -2.10791635 0.8311603 0.16203308
v -2.22469472 2.35748291 0.23994302
v 2.31778144 -2.41376328 0.48024737
v 2.46872782 -0.82013827 0.39747214
v 2.61979699 0.77541571 0.39924693
v 2.77098798 2.36845636 0.48553431
v 2.93268489 -2.7520945 0.16810762
v 3.13025283 -0.96122491 0.04609859
v 3.32780027 0.83440941 0.02941823
v 3.52531838 2.6286931 0.11820709
v -0.12290361 -2.68219757 -2.70951151
v -0.12568105 -1.65166747 -2.70900082
v -0.94015371 -2.71314692 -2.49431538
v -0.9954369 -1.68409669 -2.49380707
v -1.63086175 -2.77178621 -1.88152909
v -1.73055243 -1.74608576 -1.88101005
v -2.0906372 -2.82738208 -0.9644072
v -2.2199018 -1.80498647 -0.96389913
v -2.25171446 -2.84975767 0.11739277
v -2.39134073 -1.828727 0.11789977
v -2.7553389 -2.97064065 0.06806778
v -2.94982266 -1.9587984 0.06623673
v 0.11613584 -2.68986916 -2.71067547
v 0.11891545 -1.6593405 -2.71016383
v 0.93299388 -2.72080349 -2.49548173
v 0.98828047 -1.69175601 -2.49497437
v 1.62337374 -2.77942085 -1.88269639
v 1.7230668 -1.75372052 -1.88217711
v 2.08292794 -2.83498811 -0.96557426
v 2.21219563 -1.81259512 -0.96506619
v 2.24392914 -2.85735273 0.11622679
v 2.38355636 -1.83632612 0.11673378
v 2.74730896 -2.97819876 0.06690168
v 2.94178485 -1.96635639 0.06507074
v -2.11364364 -1.79190063 -0.93022918
v -1.99079597 -2.81508755 -0.93073725
v -2.16427612 -2.83808064 0.23340678
v -2.29828333 -1.81630098 0.23391377
v -0.11137536 -1.65168666 -2.60196089
v -0.1094613 -2.68221807 -2.60247159
v -0.89054966 -2.71060323 -2.39680934
v -0.94264674 -1.68138885 -2.39630127
v -2.76487398 -2.97230005 0.17470955
v -2.95996999 -1.9605726 0.17287886
v -1.64211845 -1.7377516 -1.81339049
v -1.54776668 -2.76395845 -1.81390929
v 2.15653181 -2.84568238 0.23224079
v 1.9831345 -2.82270169 -0.93190503
v 2.10598659 -1.79951751 -0.9313972
v 2.29054141 -1.82390415 0.23274779
v 0.88341385 -2.71826267 -2.39797639
v 0.10319616 -2.68989253 -2.60350537
v 0.10514445 -1.65936231 -2.6029942
v 0.93551319 -1.6890496 -2.39746832
v 2.75683879 -2.97985649 0.17354381
v 2.95192742 -1.96812915 0.17171275
v 1.54031813 -2.77159595 -1.81507611
v 1.63467192 -1.74539041 -1.81455731
v -0.14803431 2.9369781 -3.05693078
v -0.15139563 4.10910892 -2.97060036
v -1.1370815 2.88386964 -2.81473469
v -1.20398581 4.05431652 -2.72852826
v -1.9729855 2.76618146 -2.12260007
v -2.09363246 3.93281698 -2.03666186
v -2.52941179 2.62663078 -1.08404827
v -2.6858499 3.78950786 -0.99839878
v -2.72434949 2.51116561 0.14457941
v -2.89332747 3.67249107 0.23011255
v -3.33384347 2.3777709 0.0784167
v -3.56921005 3.52883887 0.16052794
v 0.14125444 2.92834806 -3.05889535
v 0.1446183 4.10047817 -2.97256255
v 1.12982726 2.87525749 -2.81669545
v 1.19673574 4.04570198 -2.73049473
v 1.96533393 2.75759339 -2.12456202
v 2.08598399 3.92423057 -2.03862524
v 2.52149295 2.61807584 -1.08600878
v 2.67793393 3.78095054 -1.00035762
v 2.71633863 2.50262236 0.14262151
v 2.88531756 3.66394305 0.22815442
v 3.32553625 2.36927127 0.07646215
v 3.56089305 3.52033925 0.15857064
v -2.55725479 3.80159163 -0.95901131
v -2.40858316 2.63781404 -1.04472756
v -2.61853075 2.51479291 0.27751076
v -2.78070855 3.67697048 0.36310672
v -0.13408266 4.10018014 -2.84884858
v -0.13176624 2.92804861 -2.9351809
v -1.07705009 2.87864852 -2.70361352
v -1.14009869 4.04928302 -2.6173942
v -3.34538269 2.36701011 0.19957804
v -3.5814898 3.51794719 0.2816801
v -1.9866085 3.9366703 -1.95905447
v -1.87242245 2.76945734 -2.0450344
v 2.61056852 2.50624322 0.27555418
v 2.40072131 2.62925052 -1.04668951
v 2.54939842 3.79302549 -0.96097421
v 2.77274918 3.66841888 0.36114931
v 1.06982445 2.87003445 -2.70557713
v 0.12559464 2.91940617 -2.93699622
v 0.12795251 4.09153604 -2.85066533
v 1.1328758 4.04066562 -2.6193602
v 3.33706879 2.3585124 0.19762504
v 3.5731678 3.509449 0.27972483
v 1.86481893 2.76086759 -2.04699683
v 1.97900748 3.92807817 -1.96101856
g Group17031
f 1 2 4 3
f 3 4 6 5
f 5 6 8 7
f 7 8 10 9
f 11 13 9 12
f 12 15 14 11
f 10 16 12 9
f 17 18 16 10
f 19 21 17 20
f 22 18 17 21
f 8 20 17 10
f 16 18 24 23
f 15 12 16 23
f 15 23 25 14
f 25 23 24 26
f 27 28 26 24
f 28 30 29 26
f 25 26 29 31
f 14 25 31 32
f 11 14 32 33
f 34 13 11 33
f 34 36 35 13
f 35 7 9 13
f 5 7 35 3
f 3 35 36 1
f 4 38 37 6
f 4 2 39 38
f 39 41 40 38
f 43 45 44 42
f 41 42 44 40
f 46 37 38 40
f 47 48 19 46
f 46 40 44 47
f 48 47 44 45
f 49 48 45 50
f 48 49 21 19
f 37 46 19 20
f 8 6 37 20
f 52 53 54 50
f 52 50 45 43
f 49 50 54 55
f 54 57 56 55
f 27 22 55 56
f 21 49 55 22
f 51 57 54 53
f 56 57 28 27
f 22 27 24 18
f 28 57 51 30
f 58 34 33
f 36 34 58
f 59 33 32
f 58 33 59
f 60 32 31
f 59 32 60
f 60 31 29
f 61 36 58
f 1 36 61
f 62 1 61
f 2 1 62
f 39 2 62
f 63 29 30
f 60 29 63
f 63 30 51
f 64 51 53
f 63 51 64
f 64 53 52
f 65 52 43
f 64 52 65
f 65 43 42
f 65 42 41
f 59 60 63
f 41 39 62
f 66 41 62
f 65 41 66
f 66 62 61
f 64 65 66
f 63 64 66
f 59 63 66
f 58 59 66
f 58 66 61
f 67 68 70 69
f 69 70 72 71
f 71 72 74 73
f 73 74 76 75
f 77 79 75 78
f 78 81 80 77
f 76 82 78 75
f 83 84 82 76
f 85 87 83 86
f 88 84 83 87
f 74 86 83 76
f 82 84 90 89
f 81 78 82 89
f 81 89 91 80
f 91 89 90 92
f 93 94 92 90
f 94 96 95 92
f 91 92 95 97
f 80 91 97 98
f 77 80 98 99
f 100 79 77 99
f 100 102 101 79
f 101 73 75 79
f 71 73 101 69
f 69 101 102 67
f 70 104 103 72
f 70 68 105 104
f 105 107 106 104
f 109 111 110 108
f 107 108 110 106
f 112 103 104 106
f 113 114 85 112
f 112 106 110 113
f 114 113 110 111
f 115 114 111 116
f 114 115 87 85
f 103 112 85 86
f 74 72 103 86
f 118 119 120 116
f 118 116 111 109
f 115 116 120 121
f 120 123 122 121
f 93 88 121 122
f 87 115 121 88
f 117 123 120 119
f 122 123 94 93
f 88 93 90 84
f 94 123 117 96
f 124 100 99
f 102 100 124
f 125 99 98
f 124 99 125
f 126 98 97
f 125 98 126
f 126 97 95
f 127 102 124
f 67 102 127
f 128 67 127
f 68 67 128
f 105 68 128
f 129 95 96
f 126 95 129
f 129 96 117
f 130 117 119
f 129 117 130
f 130 119 118
f 131 118 109
f 130 118 131
f 131 109 108
f 131 108 107
f 125 126 129
f 107 105 128
f 132 107 128
f 131 107 132
f 132 128 127
f 130 131 132
f 129 130 132
f 125 129 132
f 124 125 132
f 124 132 127
f 133 134 136 135
f 135 136 138 137
f 137 138 140 139
f 139 140 142 141
f 143 145 141 144
f 144 147 146 143
f 142 148 144 141
f 149 150 148 142
f 151 153 149 152
f 154 150 149 153
f 140 152 149 142
f 148 150 156 155
f 147 144 148 155
f 147 155 157 146
f 157 155 156 158
f 159 160 158 156
f 160 162 161 158
f 157 158 161 163
f 146 157 163 164
f 143 146 164 165
f 166 145 143 165
f 166 168 167 145
f 167 139 141 145
f 137 139 167 135
f 135 167 168 133
f 136 170 169 138
f 136 134 171 170
f 171 173 172 170
f 175 177 176 174
f 173 174 176 172
f 178 169 170 172
f 179 180 151 178
f 178 172 176 179
f 180 179 176 177
f 181 180 177 182
f 180 181 153 151
f 169 178 151 152
f 140 138 169 152
f 184 185 186 182
f 184 182 177 175
f 181 182 186 187
f 186 189 188 187
f 159 154 187 188
f 153 181 187 154
f 183 189 186 185
f 188 189 160 159
f 154 159 156 150
f 160 189 183 162
f 190 166 165
f 168 166 190
f 191 165 164
f 190 165 191
f 192 164 163
f 191 164 192
f 192 163 161
f 193 168 190
f 133 168 193
f 194 133 193
f 134 133 194
f 171 134 194
f 195 161 162
f 192 161 195
f 195 162 183
f 196 183 185
f 195 183 196
f 196 185 184
f 197 184 175
f 196 184 197
f 197 175 174
f 197 174 173
f 191 192 195
f 173 171 194
f 198 173 194
f 197 173 198
f 198 194 193
f 196 197 198
f 195 196 198
f 191 195 198
f 190 191 198
f 190 198 193
f 199 200 202 201
f 201 202 204 203
f 203 204 206 205
f 205 206 208 207
f 209 211 207 210
f 210 213 212 209
f 208 214 210 207
f 215 216 214 208
f 217 219 215 218
f 220 216 215 219
f 206 218 215 208
f 214 216 222 221
f 213 210 214 221
f 213 221 223 212
f 223 221 222 224
f 225 226 224 222
f 226 228 227 224
f 223 224 227 229
f 212 223 229 230
f 209 212 230 231
f 232 211 209 231
f 232 234 233 211
f 233 205 207 211
f 203 205 233 201
f 201 233 234 199
f 202 236 235 204
f 202 200 237 236
f 237 239 238 236
f 241 243 242 240
f 239 240 242 238
f 244 235 236 238
f 245 246 217 244
f 244 238 242 245
f 246 245 242 243
f 247 246 243 248
f 246 247 219 217
f 235 244 217 218
f 206 204 235 218
f 250 251 252 248
f 250 248 243 241
f 247 248 252 253
f 252 255 254 253
f 225 220 253 254
f 219 247 253 220
f 249 255 252 251
f 254 255 226 225
f 220 225 222 216
f 226 255 249 228
f 256 232 231
f 234 232 256
f 257 231 230
f 256 231 257
f 258 230 229
f 257 230 258
f 258 229 227
f 259 234 256
f 199 234 259
f 260 199 259
f 200 199 260
f 237 200 260
f 261 227 228
f 258 227 261
f 261 228 249
f 262 249 251
f 261 249 262
f 262 251 250
f 263 250 241
f 262 250 263
f 263 241 240
f 263 240 239
f 257 258 261
f 239 237 260
f 264 239 260
f 263 239 264
f 264 260 259
f 262 263 264
f 261 262 264
f 257 261 264
f 256 257 264
f 256 264 259
f 265 267 268 266
f 267 269 270 268
f 269 271 272 270
f 271 273 274 272
f 275 276 273 277
f 276 275 278 279
f 274 273 276 280
f 281 274 280 282
f 283 284 281 285
f 286 285 281 282
f 272 274 281 284
f 280 287 288 282
f 279 287 280 276
f 279 278 289 287
f 289 290 288 287
f 291 288 290 292
f 292 290 293 294
f 289 295 293 290
f 278 296 295 289
f 275 297 296 278
f 298 297 275 277
f 298 277 299 300
f 299 277 273 271
f 269 267 299 271
f 267 265 300 299
f 268 270 301 302
f 268 302 303 266
f 303 302 304 305
f 307 306 308 309
f 305 304 308 306
f 310 304 302 301
f 311 310 283 312
f 310 311 308 304
f 312 309 308 311
f 313 314 309 312
f 312 283 285 313
f 301 284 283 310
f 272 284 301 270
f 316 314 318 317
f 316 307 309 314
f 313 319 318 314
f 318 319 320 321
f 291 320 319 286
f 285 286 319 313
f 315 317 318 321
f 320 291 292 321
f 286 282 288 291
f 292 294 315 321
f 297 298 322
f 322 298 300
f 296 297 323
f 323 297 322
f 295 296 324
f 324 296 323
f 293 295 324
f 322 300 325
f 325 300 265
f 325 265 326
f 326 265 266
f 326 266 303
f 294 293 327
f 327 293 324
f 315 294 327
f 317 315 328
f 328 315 327
f 316 317 328
f 307 316 329
f 329 316 328
f 306 307 329
f 305 306 329
f 327 324 323
f 326 303 305
f 326 305 330
f 330 305 329
f 325 326 330
f 330 329 328
f 330 328 327
f 330 327 323
f 330 323 322
f 325 330 322
f 331 333 334 332
f 333 335 336 334
f 335 337 338 336
f 337 339 340 338
f 341 342 339 343
f 342 341 344 345
f 340 339 342 346
f 347 340 346 348
f 349 350 347 351
f 352 351 347 348
f 338 340 347 350
f 346 353 354 348
f 345 353 346 342
f 345 344 355 353
f 355 356 354 353
f 357 354 356 358
f 358 356 359 360
f 355 361 359 356
f 344 362 361 355
f 341 363 362 344
f 364 363 341 343
f 364 343 365 366
f 365 343 339 337
f 335 333 365 337
f 333 331 366 365
f 334 336 367 368
f 334 368 369 332
f 369 368 370 371
f 373 372 374 375
f 371 370 374 372
f 376 370 368 367
f 377 376 349 378
f 376 377 374 370
f 378 375 374 377
f 379 380 375 378
f 378 349 351 379
f 367 350 349 376
f 338 350 367 336
f 382 380 384 383
f 382 373 375 380
f 379 385 384 380
f 384 385 386 387
f 357 386 385 352
f 351 352 385 379
f 381 383 384 387
f 386 357 358 387
f 352 348 354 357
f 358 360 381 387
f 363 364 388
f 388 364 366
f 362 363 389
f 389 363 388
f 361 362 390
f 390 362 389
f 359 361 390
f 388 366 391
f 391 366 331
f 391 331 392
f 392 331 332
f 392 332 369
f 360 359 393
f 393 359 390
f 381 360 393
f 383 381 394
f 394 381 393
f 382 383 394
f 373 382 395
f 395 382 394
f 372 373 395
f 371 372 395
f 393 390 389
f 392 369 371
f 392 371 396
f 396 371 395
f 391 392 396
f 396 395 394
f 396 394 393
f 396 393 389
f 396 389 388
f 391 396 388
f 397 399 400 398
f 399 401 402 400
f 401 403 404 402
f 403 405 406 404
f 407 408 405 409
f 408 407 410 411
f 406 405 408 412
f 413 406 412 414
f 415 416 413 417
f 418 417 413 414
f 404 406 413 416
f 412 419 420 414
f 411 419 412 408
f 411 410 421 419
f 421 422 420 419
f 423 420 422 424
f 424 422 425 426
f 421 427 425 422
f 410 428 427 421
f 407 429 428 410
f 430 429 407 409
f 430 409 431 432
f 431 409 405 403
f 401 399 431 403
f 399 397 432 431
f 400 402 433 434
f 400 434 435 398
f 435 434 436 437
f 439 438 440 441
f 437 436 440 438
f 442 436 434 433
f 443 442 415 444
f 442 443 440 436
f 444 441 440 443
f 445 446 441 444
f 444 415 417 445
f 433 416 415 442
f 404 416 433 402
f 448 446 450 449
f 448 439 441 446
f 445 451 450 446
f 450 451 452 453
f 423 452 451 418
f 417 418 451 445
f 447 449 450 453
f 452 423 424 453
f 418 414 420 423
f 424 426 447 453
f 429 430 454
f 454 430 432
f 428 429 455
f 455 429 454
f 427 428 456
f 456 428 455
f 425 427 456
f 454 432 457
f 457 432 397
f 457 397 458
f 458 397 398
f 458 398 435
f 426 425 459
f 459 425 456
f 447 426 459
f 449 447 460
f 460 447 459
f 448 449 460
f 439 448 461
f 461 448 460
f 438 439 461
f 437 438 461
f 459 456 455
f 458 435 437
f 458 437 462
f 462 437 461
f 457 458 462
f 462 461 460
f 462 460 459
f 462 459 455
f 462 455 454
f 457 462 454
f 463 465 466 464
f 465 467 468 466
f 467 469 470 468
f 469 471 472 470
f 473 474 471 475
f 474 473 476 477
f 472 471 474 478
f 479 472 478 480
f 481 482 479 483
f 484 483 479 480
f 470 472 479 482
f 478 485 486 480
f 477 485 478 474
f 477 476 487 485
f 487 488 486 485
f 489 486 488 490
f 490 488 491 492
f 487 493 491 488
f 476 494 493 487
f 473 495 494 476
f 496 495 473 475
f 496 475 497 498
f 497 475 471 469
f 467 465 497 469
f 465 463 498 497
f 466 468 499 500
f 466 500 501 464
f 501 500 502 503
f 505 504 506 507
f 503 502 506 504
f 508 502 500 499
f 509 508 481 510
f 508 509 506 502
f 510 507 506 509
f 511 512 507 510
f 510 481 483 511
f 499 482 481 508
f 470 482 499 468
f 514 512 516 515
f 514 505 507 512
f 511 517 516 512
f 516 517 518 519
f 489 518 517 484
f 483 484 517 511
f 513 515 516 519
f 518 489 490 519
f 484 480 486 489
f 490 492 513 519
f 495 496 520
f 520 496 498
f 494 495 521
f 521 495 520
f 493 494 522
f 522 494 521
f 491 493 522
f 520 498 523
f 523 498 463
f 523 463 524
f 524 463 464
f 524 464 501
f 492 491 525
f 525 491 522
f 513 492 525
f 515 513 526
f 526 513 525
f 514 515 526
f 505 514 527
f 527 514 526
f 504 505 527
f 503 504 527
f 525 522 521
f 524 501 503
f 524 503 528
f 528 503 527
f 523 524 528
f 528 527 526
f 528 526 525
f 528 525 521
f 528 521 520
f 523 528 520
g Group14952
f 623 624 530 529
g Group28883
f 696 699 719 716
g Group28886
f 650 649 669 670
f 671 676 589 584
f 669 674 586 581
g Group28883
f 695 698 718 715
g Group28886
f 675 672 585 588
f 647 648 668 667
f 643 647 667 663
f 573 547 641 642
g Group14952
f 604 623 529 531
g Group28883
f 697 696 716 717
g Group28886
f 674 673 587 586
f 672 671 584 585
g Group28883
f 703 720 740 723
f 720 717 737 740
f 700 697 717 720
g Group28886
f 641 650 670 661
g Group45780
f 535 541 548 546
g Group28883
f 601 602 593 583
g Group14952
f 624 631 542 530
g Group28883
f 693 682 702 713
g Group28886
f 552 578 643 644
g Group28883
f 694 693 713 714
g Group28886
f 661 670 582 583
f 670 669 581 582
g Group28883
f 718 714 734 738
f 590 600 605 606
f 716 719 739 736
g Group28886
f 644 643 663 664
g Group14952
f 533 544 627 628
g Group45780
f 538 551 550 537
g Group14952
f 532 533 628 636
g Group45780
f 540 552 551 538
g Group14952
f 534 532 636 607
g Group28886
f 642 641 661 662
g Group28883
f 722 721 602 601
g Group14952
f 631 632 542
g Group28883
f 691 692 712 711
f 692 688 708 712
g Group28886
f 667 668 595 599
f 663 667 599 600
g Group28883
f 715 718 738 735
f 724 723 606 605
g Group28886
f 652 651 671 672
g Group14952
f 544 634 627
g Group45780
f 545 536 535 546
f 547 539 536 545
f 550 549 543 537
f 541 553 548
f 554 543 549
g Group28883
f 717 716 736 737
g Group14952
f 638 555 556 620
g Group28883
f 689 690 710 709
f 681 691 711 701
g Group28886
f 676 664 590 589
g Group28883
f 683 700 720 703
f 713 702 722 733
f 607 636 700 683
f 726 725 639 611
f 714 713 733 734
g Group14952
f 603 557 555 638
g Group28883
f 690 684 704 710
f 685 689 709 705
f 711 712 732 731
f 712 708 728 732
f 636 628 697 700
f 702 701 721 722
g Group45780
f 561 572 574 567
g Group14952
f 620 556 568 619
g Group28886
f 664 663 600 590
f 662 661 583 593
g Group28883
f 698 694 714 718
g Group28886
f 660 658 678 680
f 659 646 666 679
f 645 660 680 665
g Group28883
f 709 710 730 729
f 701 711 731 721
f 631 624 694 698
f 688 687 707 708
f 728 727 609 618
f 704 703 723 724
g Group14952
f 559 616 640 570
g Group45780
f 564 563 576 577
g Group28886
f 578 577 647 643
g Group14952
f 558 614 616 559
g Group45780
f 566 564 577 578
g Group14952
f 560 608 614 558
g Group28883
f 600 599 613 605
g Group28886
f 577 576 648 647
g Group14952
f 568 610 619
g Group28883
f 686 685 705 706
g Group28886
f 648 659 679 668
f 657 642 662 677
g Group28883
f 710 704 724 730
f 684 683 703 704
f 627 634 699 696
g Group28886
f 654 653 673 674
g Group14952
f 640 612 570
g Group45780
f 571 572 561 562
f 573 571 562 565
f 576 563 569 575
f 574 579 567
f 575 569 580
f 540 566 578 552
g Group28883
f 632 631 698 695
f 705 709 729 725
g Group28886
f 658 657 677 678
g Group28883
f 682 681 701 702
g Group45780
f 547 573 565 539
g Group28883
f 599 595 615 613
g Group14952
f 603 604 531 557
g Group28886
f 680 678 592 596
g Group28883
f 725 729 615 639
g Group28886
f 678 677 591 592
g Group14952
f 560 534 607 608
g Group28883
f 622 582 581 621
g Group28886
f 545 546 649 650
g Group28883
f 601 583 582 622
g Group28886
f 547 545 650 641
g Group28883
f 625 626 585 584
g Group28886
f 549 550 651 652
g Group28883
f 587 629 630 586
g Group28886
f 548 553 653 654
g Group28883
f 626 633 588 585
g Group28886
f 554 549 652 655
g Group28883
f 581 586 630 621
g Group28886
f 546 548 654 649
g Group28883
f 589 635 625 584
g Group28886
f 550 551 656 651
g Group28883
f 590 606 635 589
g Group28886
f 551 552 644 656
f 679 666 598 594
f 665 680 596 597
f 656 644 664 676
f 651 656 676 671
g Group28883
f 708 707 727 728
f 628 627 696 697
f 730 724 605 613
f 637 617 592 591
g Group28886
f 572 571 657 658
g Group28883
f 602 637 591 593
g Group28886
f 571 573 642 657
g Group28883
f 615 595 594 639
g Group28886
f 576 575 659 648
g Group28883
f 597 596 618 609
g Group28886
f 579 574 660 645
g Group28883
f 639 594 598 611
g Group28886
f 575 580 646 659
g Group28883
f 592 617 618 596
g Group28886
f 574 572 658 660
g Group28883
f 604 603 681 682
g Group28886
f 668 679 594 595
f 649 654 674 669
g Group28883
f 608 607 683 684
f 612 640 685 686
f 723 740 635 606
f 740 737 625 635
f 623 604 682 693
f 619 610 687 688
f 738 734 621 630
f 706 705 725 726
f 736 739 633 626
f 721 731 637 602
g Group28886
f 655 652 672 675
g Group28883
f 640 616 689 685
f 735 738 630 629
g Group28886
f 677 662 593 591
g Group28883
f 737 736 626 625
f 614 608 684 690
f 603 638 691 681
f 733 722 601 622
f 616 614 690 689
f 734 733 622 621
f 731 732 617 637
f 620 619 688 692
f 638 620 692 691
f 732 728 618 617
f 624 623 693 694
f 729 730 613 615
f 699 741 742 719
f 741 743 744 742
f 743 745 746 744
f 745 747 748 746
f 747 695 715 748
g Group28886
f 646 749 750 666
f 749 751 752 750
f 751 753 754 752
f 753 755 756 754
f 755 645 665 756
f 580 757 749 646
f 757 758 751 749
f 758 759 753 751
f 759 760 755 753
f 760 579 645 755
g Group28883
f 609 761 762 597
f 761 763 764 762
f 763 765 766 764
f 765 767 768 766
f 767 611 598 768
g Group45780
f 536 769 770 535
f 769 771 772 770
f 771 773 774 772
f 773 775 776 774
f 775 538 537 776
g Group14952
f 530 777 778 529
f 777 779 780 778
f 779 781 782 780
f 781 783 784 782
f 783 533 532 784
g Group45780
f 539 785 769 536
f 785 786 771 769
f 786 787 773 771
f 787 788 775 773
f 788 540 538 775
g Group14952
f 529 778 789 531
f 778 780 790 789
f 780 782 791 790
f 782 784 792 791
f 784 532 534 792
g Group45780
f 535 770 793 541
f 770 772 794 793
f 772 774 795 794
f 774 776 796 795
f 776 537 543 796
g Group14952
f 542 797 777 530
f 797 798 779 777
f 798 799 781 779
f 799 800 783 781
f 800 544 533 783
g Group28886
f 673 801 802 587
f 801 803 804 802
f 803 805 806 804
f 805 807 808 806
f 807 675 588 808
g Group45780
f 541 793 809 553
f 793 794 810 809
f 794 795 811 810
f 795 796 812 811
f 796 543 554 812
g Group14952
f 632 813 797 542
f 813 814 798 797
f 814 815 799 798
f 815 816 800 799
f 816 634 544 800
g Group28883
f 719 742 817 739
f 742 744 818 817
f 744 746 819 818
f 746 748 820 819
f 748 715 735 820
f 727 821 761 609
f 821 822 763 761
f 822 823 765 763
f 823 824 767 765
f 824 726 611 767
g Group28886
f 666 750 768 598
f 750 752 766 768
f 752 754 764 766
f 754 756 762 764
f 756 665 597 762
g Group45780
f 561 825 826 562
f 825 827 828 826
f 827 829 830 828
f 829 831 832 830
f 831 563 564 832
g Group14952
f 555 833 834 556
f 833 835 836 834
f 835 837 838 836
f 837 839 840 838
f 839 558 559 840
g Group45780
f 562 826 841 565
f 826 828 842 841
f 828 830 843 842
f 830 832 844 843
f 832 564 566 844
g Group14952
f 557 845 833 555
f 845 846 835 833
f 846 847 837 835
f 847 848 839 837
f 848 560 558 839
g Group45780
f 567 849 825 561
f 849 850 827 825
f 850 851 829 827
f 851 852 831 829
f 852 569 563 831
g Group14952
f 556 834 853 568
f 834 836 854 853
f 836 838 855 854
f 838 840 856 855
f 840 559 570 856
g Group28883
f 687 857 858 707
f 857 859 860 858
f 859 861 862 860
f 861 863 864 862
f 863 686 706 864
g Group45780
f 579 760 849 567
f 760 759 850 849
f 759 758 851 850
f 758 757 852 851
f 757 580 569 852
g Group14952
f 568 853 865 610
f 853 854 866 865
f 854 855 867 866
f 855 856 868 867
f 856 570 612 868
g Group45780
f 565 841 785 539
f 841 842 786 785
f 842 843 787 786
f 843 844 788 787
f 844 566 540 788
g Group14952
f 531 789 845 557
f 789 790 846 845
f 790 791 847 846
f 791 792 848 847
f 792 534 560 848
g Group28886
f 653 869 801 673
f 869 870 803 801
f 870 871 805 803
f 871 872 807 805
f 872 655 675 807
g Group28883
f 634 816 741 699
f 816 815 743 741
f 815 814 745 743
f 814 813 747 745
f 813 632 695 747
f 587 802 873 629
f 802 804 874 873
f 804 806 875 874
f 806 808 876 875
f 808 588 633 876
g Group28886
f 553 809 869 653
f 809 810 870 869
f 810 811 871 870
f 811 812 872 871
f 812 554 655 872
g Group28883
f 610 865 857 687
f 865 866 859 857
f 866 867 861 859
f 867 868 863 861
f 868 612 686 863
f 707 858 821 727
f 858 860 822 821
f 860 862 823 822
f 862 864 824 823
f 864 706 726 824
f 739 817 876 633
f 817 818 875 876
f 818 819 874 875
f 819 820 873 874
f 820 735 629 873
g Group48811
f 904 903 902 901
f 884 886 904 901
f 885 883 902 903
f 886 884 883 885
f 908 907 906 905
f 878 880 908 905
f 879 877 906 907
f 880 878 877 879
f 910 909 903 904
f 886 888 910 904
f 887 885 903 909
f 888 887 909 910
f 888 886 885 887
f 901 902 912 911
f 882 884 901 911
f 883 881 912 902
f 884 882 881 883
f 911 912 907 908
f 880 882 911 908
f 881 879 907 912
f 882 880 879 881
f 916 915 914 913
f 895 897 913 914
f 898 896 915 916
f 898 897 895 896
f 920 919 918 917
f 889 891 917 918
f 892 890 919 920
f 892 891 889 890
f 922 916 913 921
f 899 900 922 921
f 897 899 921 913
f 900 898 916 922
f 900 899 897 898
f 915 924 923 914
f 893 895 914 923
f 896 894 924 915
f 896 895 893 894
f 924 920 917 923
f 891 893 923 917
f 894 892 920 924
f 894 893 891 892
f 906 918 919 905
f 890 878 905 919
f 877 889 918 906
f 877 878 890 889
g Group13969
f 952 951 950 949
f 932 934 952 949
f 933 931 950 951
f 934 932 931 933
f 956 955 954 953
f 926 928 956 953
f 927 925 954 955
f 928 926 925 927
f 958 957 951 952
f 934 936 958 952
f 935 933 951 957
f 936 935 957 958
f 936 934 933 935
f 949 950 960 959
f 930 932 949 959
f 931 929 960 950
f 932 930 929 931
f 959 960 955 956
f 928 930 959 956
f 929 927 955 960
f 930 928 927 929
f 964 963 962 961
f 943 945 961 962
f 946 944 963 964
f 946 945 943 944
f 968 967 966 965
f 937 939 965 966
f 940 938 967 968
f 940 939 937 938
f 970 964 961 969
f 947 948 970 969
f 945 947 969 961
f 948 946 964 970
f 948 947 945 946
f 963 972 971 962
f 941 943 962 971
f 944 942 972 963
f 944 943 941 942
f 972 968 965 971
f 939 941 971 965
f 942 940 968 972
f 942 941 939 940
f 954 966 967 953
f 938 926 953 967
f 925 937 966 954
f 925 926 938 937

 