# File exported by ZBrush version 2021
# www.zbrush.com
#Vertex Count 408
#Face Count 408
#Auto scale x=1.000000 y=1.000000 z=1.000000
#Auto offset x=0.000000 y=0.000000 z=0.000000
v -0.3790555 -3.49907946 -2.02397155
v -0.80170643 -3.83042693 -1.69397938
v -1.08500051 -4.2384777 -1.26872432
v -1.26649546 -4.60754585 -0.84174233
v -1.25270021 -4.96020317 -0.3582232
v -1.10702014 -5.33680152 0.17081871
v -0.79841244 -5.83401966 0.89541184
v -0.58331036 -6.08069229 1.21641469
v -0.74750244 3.69710898 -3.46804571
v -0.7564423 3.79505157 -3.12586522
v -1.43170785 3.57759952 -3.22049164
v -1.35625207 3.67078185 -2.90238523
v -2.0167799 3.54566574 -2.63041877
v -1.86313068 3.62242245 -2.3817389
v -2.43652582 3.7409482 -1.76643383
v -2.21823787 3.79943227 -1.64348661
v -2.65774154 4.35135221 -0.69484603
v -2.39857673 4.40089654 -0.75625592
v -2.62355661 5.20869827 0.56763702
v -2.36152744 5.27424716 0.28295889
v -2.31773996 6.09743118 2.11051631
v -2.09815073 6.16830253 1.59647548
v -1.70120871 6.27563285 3.12317061
v -1.57296907 6.35529232 2.52077961
v -0.48111155 -2.9044187 -1.9840064
v -0.45871856 -2.89101171 -2.15355444
v -0.86128544 -3.22576165 -1.72369635
v -0.96170151 -3.26748776 -1.85455548
v -1.15671122 -3.61467576 -1.33418631
v -1.32795631 -3.63629174 -1.46444642
v -1.34405827 -3.88753867 -0.90873634
v -1.47578513 -4.13225364 -0.91306227
v -1.36289703 -3.99944615 -0.43736326
v -1.45948326 -4.52144622 -0.41328918
v -1.20471 -4.02662658 0.10407665
v -1.25925517 -4.89086532 0.27673068
v -0.95036715 -4.20833301 0.72899073
v -0.99946361 -5.20607852 0.92570197
v -0.65286111 -4.76077175 1.12092053
v -0.67970335 -5.35077476 1.30925488
v -0.72338533 2.90096283 -2.88454556
v -0.71948719 2.78564095 -3.22141981
v -1.29479515 2.77156853 -2.68261027
v -1.36990416 2.66474843 -2.99477148
v -1.77403426 2.70992541 -2.20109796
v -1.9204241 2.62749171 -2.44199752
v -2.10762071 2.87226295 -1.53950178
v -2.30467271 2.81122422 -1.67122185
v -2.27438306 3.45852613 -0.76999473
v -2.49847221 3.40880894 -0.7687056
v -2.22571182 4.31443834 0.1266331
v -2.43828964 4.25046396 0.25774624
v -1.95768642 5.1545639 1.21238267
v -2.12702131 5.08866405 1.45606792
v -1.46226322 5.31160831 1.96287846
v -1.55009901 5.21340465 2.24137163
v -0.46413967 -2.75478029 -2.3627932
v -0.43045452 -3.33513808 -2.33936333
v -1.01195859 -3.0600171 -2.02143955
v -0.88141351 -3.76220727 -1.98518633
v -1.39557325 -3.63496995 -1.53302919
v -1.22863662 -4.28349781 -1.48676633
v -1.5506463 -4.09880256 -0.98197215
v -1.4346863 -4.75903606 -0.9407522
v -1.54958009 -4.57325935 -0.34892129
v -1.46262729 -5.24159145 -0.30834311
v -1.32907509 -4.98097229 0.39301782
v -1.20717322 -5.71508789 0.35935485
v -1.07464027 -5.34902286 1.13494885
v -0.9538365 -6.22690391 1.09329795
v -0.71006923 -5.61279296 1.56787264
v -0.62728732 -6.56294345 1.49728381
v -0.71389722 2.71979713 -3.39671182
v -1.40556144 2.60141587 -3.15824151
v -1.99682223 2.58091139 -2.57058548
v -2.41762065 2.78171062 -1.73151361
v -2.63237762 3.38518142 -0.7434718
v -2.58153629 4.2359786 0.39445388
v -2.2586956 5.11913394 1.77398002
v -1.6340481 5.27922725 2.65882563
v -0.52967536 -1.63354897 -2.03861379
v -0.95937037 -1.83801126 -1.82646739
v -1.30776023 -2.05683636 -1.47215855
v -1.53975212 -2.12837719 -1.04923439
v -1.61311185 -1.90912127 -0.5693655
v -1.50456726 -1.52054929 -0.00975261
v -1.24879789 -1.23581099 0.61367934
v -0.90133917 -1.51646494 1.05006337
v -0.64993441 1.06984102 -2.47240781
v -1.16109824 0.88429009 -2.26750946
v -1.58061516 0.73208034 -1.86112654
v -1.86158394 0.78995204 -1.3361864
v -1.9704045 1.21487808 -0.7429375
v -1.8726598 1.84840798 -0.07729561
v -1.59354162 2.40584015 0.70535534
v -1.16977632 2.33737945 1.32034599
v 0.51266139 -3.58915638 -2.05521631
v 0.81707924 -3.9222958 -1.87981665
v 1.12417936 -4.29868602 -1.45350348
v 1.28403949 -4.60799312 -0.87143856
v 1.31933164 -4.94729995 -0.31014853
v 1.13099455 -5.2334795 0.28630027
v 0.82124054 -5.66490268 0.87864661
v 0.54627662 -5.92487525 1.2092576
v 0.7639203 3.69588017 -3.46804547
v 0.76420068 3.80103802 -3.12080073
v 1.44800472 3.57526135 -3.22048592
v 1.36742961 3.68146681 -2.89289975
v 2.03304529 3.54237842 -2.6304171
v 1.87968671 3.62989759 -2.37546396
v 2.45184803 3.73499083 -1.76950347
v 2.23602438 3.80110549 -1.65123641
v 2.6509695 4.31983327 -0.74344438
v 2.39709663 4.38167333 -0.80024343
v 2.58425521 5.18346118 0.49840837
v 2.32887792 5.25920581 0.24217727
v 2.18678236 6.07162666 1.9761331
v 1.99047362 6.14075183 1.54350817
v 1.5251559 6.27886676 3.0470736
v 1.42819356 6.34757614 2.51122927
v 0.52109944 -2.93841719 -2.02269363
v 0.51019227 -2.91705942 -2.17172765
v 0.87953239 -3.26059603 -1.82980382
v 0.91642844 -3.21377587 -1.97278964
v 1.17943465 -3.61246514 -1.41149079
v 1.28374266 -3.43926024 -1.55678594
v 1.36640346 -3.74709391 -0.94008958
v 1.46829378 -3.74154734 -0.98975569
v 1.39446651 -3.9578998 -0.40611767
v 1.50467658 -4.11015129 -0.38374269
v 1.23495745 -4.05969238 0.15537118
v 1.27044475 -4.50541782 0.27735135
v 0.93564081 -4.40452671 0.77646738
v 0.92894262 -4.97910213 0.95318329
v 0.61944764 -4.9655981 1.13673615
v 0.60778975 -5.3302412 1.32842028
v 0.72824746 2.90850949 -2.87858891
v 0.72331666 2.79388213 -3.21521091
v 1.30307757 2.78207707 -2.67380189
v 1.37754356 2.67576479 -2.98586583
v 1.79044151 2.72308301 -2.19308614
v 1.93631434 2.64072704 -2.43176388
v 2.12174844 2.87341117 -1.54748618
v 2.31923246 2.80980658 -1.67489516
v 2.27244138 3.42484736 -0.78715533
v 2.49149942 3.35934376 -0.78482133
v 2.18631696 4.24852752 0.10511437
v 2.39232444 4.15299034 0.22225371
v 1.85471713 5.0566101 1.18651914
v 2.01227903 4.94797992 1.40416622
v 1.32050561 5.24850082 1.94149446
v 1.40261662 5.12141513 2.19819235
v 0.51298433 -2.76104736 -2.40024757
v 0.52611011 -3.41879248 -2.39027237
v 1.00958025 -3.08699035 -2.08749675
v 0.95024222 -3.83795619 -2.07365369
v 1.3619374 -3.40843939 -1.6349827
v 1.2843045 -4.24622726 -1.57663857
v 1.57221543 -3.74661994 -1.01727688
v 1.47156858 -4.6193037 -0.95848453
v 1.59051656 -4.15759086 -0.30910569
v 1.49473857 -4.9889307 -0.28741049
v 1.35110759 -4.57101821 0.38027936
v 1.28966844 -5.32832908 0.3776893
v 0.95926761 -5.1524496 1.16231322
v 0.91672778 -5.88897037 1.1125673
v 0.57936167 -5.54675865 1.55065047
v 0.57397359 -6.35765361 1.49032747
v 0.72035539 2.7262144 -3.39180588
v 1.41567742 2.61260771 -3.14914965
v 2.01222896 2.58837938 -2.56360077
v 2.43492984 2.78283071 -1.7360934
v 2.62734365 3.36075925 -0.78882342
v 2.54823684 4.21097135 0.32887649
v 2.1536622 5.07929611 1.67342436
v 1.5042957 5.26403331 2.60238027
v 0.56688129 -1.64902687 -2.05122661
v 0.9880042 -1.87620616 -1.86433863
v 1.33003246 -2.08901119 -1.50316083
v 1.55328941 -2.11966991 -1.06534886
v 1.62460768 -1.94087982 -0.53908395
v 1.49259674 -1.65939521 0.03658013
v 1.19940698 -1.48357105 0.6663751
v 0.82557171 -1.71758985 1.06895923
v 0.66118758 1.08174657 -2.46644282
v 1.1752206 0.9061284 -2.26283669
v 1.60269665 0.76967847 -1.85532105
v 1.88006997 0.83309698 -1.34238421
v 1.98136866 1.22045242 -0.732912
v 1.85107195 1.76063621 -0.04676421
v 1.54052317 2.22087287 0.79083859
v 1.09750235 2.1777668 1.38287973
v 0.06201112 6.57491016 2.87632012
v 0.04776489 6.53330898 3.47098946
v 0.0380578 -4.9838562 1.24820232
v -0.00722545 -6.1001873 1.31733655
v 0.06384664 5.46883297 2.18097257
v -0.0453931 -5.65913963 1.72468853
v -0.03162926 -6.57491016 1.67422449
v 0.00301265 -5.41149711 1.45116949
v 0.07926952 5.52999591 2.95070314
v 0.06894773 5.38293552 2.44664883
v 0.05444783 -1.64804768 1.14926528
v 0.08783125 2.31462836 1.50346362
v 0.07379269 4.62083196 2.28269553
v -1.47455322 4.4765129 2.0882647
v 2.41640281 2.83168053 -0.76883322
v 2.30599498 3.55631947 0.18826666
v -0.7021414 2.35348463 -3.11162424
v 0.70749747 2.36247396 -3.10538172
v -1.33626413 2.21840477 -2.88432025
v -1.87063515 2.15725374 -2.35174655
v -2.24008083 2.30802607 -1.61558473
v -2.41682624 2.84910464 -0.75786942
v -2.34215021 3.61839866 0.21263423
v -2.02898311 4.3843131 1.33421504
v 1.34514832 4.38915824 2.06485343
v 1.88784563 2.17558956 -2.3418231
v 2.25646257 2.32261753 -1.61998724
v 1.34528863 2.2313857 -2.87643408
v 1.93085634 4.26701688 1.3088485
v 1.60702073 -3.32041955 -0.43456977
v 1.39698481 -3.50101256 0.23226434
v 1.55660152 -3.13796663 -1.04583978
v 0.01079893 -4.08615398 1.44067835
v -0.78979003 -4.01769161 1.31457626
v 1.05225682 -3.7544229 0.92648017
v 0.69229072 -4.06119155 1.3321942
v 1.34406721 -2.9362142 -1.58907854
v 0.96718323 -2.70758414 -1.99514257
v 0.53170216 -2.43055677 -2.19215059
v -0.48700845 -2.41215515 -2.17885828
v -0.98299151 -2.7433772 -1.91742026
v -1.36075139 -3.06811142 -1.53141534
v -1.55024731 -3.42727637 -0.99631434
v -1.57317102 -3.62835812 -0.46508637
v -1.40312802 -3.74907612 0.21842363
v -1.13769114 -3.85063576 0.88779139
v 1.2979933 2.00047731 1.8901577
v 0.95762884 -2.1354053 1.58900129
v 0.02223902 -2.06067872 1.69196426
v 0.08868545 2.14602804 2.02715063
v -1.37629365 2.0685091 1.8495295
v -1.61091101 4.3722372 2.32803177
v 0.07448285 4.53276825 2.54073238
v 2.55306291 3.49124097 0.2749035
v 2.68063306 2.76940703 -0.74934238
v 2.44360351 1.10311734 -0.69740492
v 2.28047752 1.61113989 0.16920062
v 0.69651567 0.90019869 -3.0122869
v 0.74612152 2.2558434 -3.35724377
v -0.73899138 2.24644041 -3.36387562
v -0.68540036 0.8877387 -3.01864266
v -1.46587622 2.11482238 -3.10913038
v -1.35828137 0.71019977 -2.76175952
v -2.08151102 2.07216525 -2.50700235
v -1.9216932 0.58765053 -2.22577333
v -2.4940381 2.2396574 -1.6877557
v -2.28949117 0.64867806 -1.5143255
v -2.6807661 2.78481507 -0.74266064
v -2.42324686 1.01844835 -0.70856142
v -2.5897808 3.54696345 0.29500216
v -2.28768062 1.5588206 0.15190044
v -2.25224208 4.30078744 1.46564412
v -1.94617283 2.09098339 1.08057928
v 1.47911953 4.29687404 2.30703759
v 1.46638381 -1.905267 1.02901208
v 1.89684021 2.05121898 1.14648282
v -0.57713645 -1.73463749 -2.48007226
v 0.60900425 -1.73666286 -2.48693847
v -1.14972531 -2.00288438 -2.24322724
v -1.62050628 -2.25790929 -1.79856538
v -1.919752 -2.40004015 -1.20066511
v -2.01418924 -2.30369353 -0.52978849
v -1.87676811 -2.03285336 0.20886549
v -1.58171403 -1.79903101 0.96160948
v -1.10291707 -1.99291229 1.57226657
v 1.18232452 -1.98901891 -2.25908756
v 1.64840745 -2.22737669 -1.79881084
v 1.94375097 0.62324231 -2.21599984
v 1.37280237 0.73123228 -2.75721764
v 1.94736182 -2.27201056 -1.20616102
v 2.31246614 0.71385371 -1.51919817
v 2.51093483 2.25421762 -1.69166219
v 2.09813642 2.0906589 -2.49772572
v 1.47493529 2.12834763 -3.10131239
v 2.0306406 -2.15732622 -0.49064394
v 2.15336608 4.19441604 1.44605124
v 1.83993983 -1.99683857 0.25466004
v 1.87303745 -3.3761785 -0.41210287
v 1.64447081 -3.54315304 0.32572728
v 1.81080865 -3.20340776 -1.11907792
v -0.932693 -4.03504467 1.56401848
v 0.0112648 -4.08725738 1.70852625
v 1.27563703 -3.78597569 1.0724343
v 0.82731968 -4.0758152 1.58230805
v 1.55816137 -2.99559998 -1.74683892
v 1.11030662 -2.74789571 -2.22275972
v 0.57980316 -2.45594716 -2.45752549
v -0.54002165 -2.44497346 -2.4429121
v -1.12252354 -2.79212546 -2.14440202
v -1.57240545 -3.12347483 -1.69469046
v -1.80572223 -3.48300194 -1.07064628
v -1.83886206 -3.68041825 -0.44955116
v -1.65530407 -3.7925136 0.29748266
v -1.36924493 -3.88478827 1.0202955
v 0.07715964 4.08298969 2.44394874
v -1.56669795 3.93810224 2.23785781
v 2.63596439 2.45539641 -0.73955529
v 2.50169515 3.13693761 0.25498357
v -0.72889232 1.99039399 -3.29881644
v 0.73677331 2.00037384 -3.29223656
v -1.44560027 1.85012316 -3.04366922
v -2.05139446 1.79240953 -2.45400524
v -2.45549154 1.93983876 -1.65507257
v -2.63223695 2.45194482 -0.73623478
v -2.53285074 3.1723001 0.26803517
v -2.19456386 3.88435316 1.3930788
v 1.44498622 3.86412024 2.22847652
v 2.0690422 1.81412529 -2.44463491
v 2.47353315 1.96393787 -1.65916121
v 1.45568835 1.86506319 -3.0364685
v 2.10502433 3.79053378 1.38959729
v 1.92441058 -2.97887706 -0.4377039
v 1.70818567 -3.03911042 0.30256223
v 1.85531926 -2.89980769 -1.14746379
v 0.01484179 -3.42666888 1.70312714
v -0.98818016 -3.36938548 1.56670725
v 1.3378129 -3.17293524 1.05828023
v 0.86979591 -3.44331479 1.58449018
v 1.58757841 -2.74518728 -1.76377987
v 1.13378143 -2.50053 -2.23460149
v 0.58932137 -2.22148823 -2.46711349
v -0.55211961 -2.21342945 -2.45502543
v -1.13139045 -2.53486204 -2.17661571
v -1.58808434 -2.84133362 -1.72854936
v -1.84289205 -3.12999677 -1.11302733
v -1.89601218 -3.23165822 -0.47570523
v -1.7274928 -3.21893 0.2685965
v -1.43850195 -3.20490932 1.0011655
v 1.81339061 -3.05704307 0.3418073
v 2.03752231 -3.00264382 -0.42864793
v 1.98614966 -3.39994406 -0.4030469
v 1.74967587 -3.56108403 0.36497306
v 1.96313357 -2.92752122 -1.17821407
v 1.91862249 -3.23112273 -1.14982771
v -0.99378812 -4.04241752 1.66913044
v -1.04927516 -3.37675833 1.67181956
v 0.01495474 -3.42725634 1.8171091
v 0.01137793 -4.08784484 1.82250714
v 0.92837882 -3.44966864 1.68988823
v 1.43323886 -3.1864798 1.11934709
v 1.37106168 -3.79952073 1.13350117
v 0.88590377 -4.08216667 1.68770611
v 1.67938745 -2.77045178 -1.82960379
v 1.64997053 -3.02086281 -1.81266295
v 1.19552433 -2.5177114 -2.33065962
v 1.1720494 -2.76507854 -2.3188188
v 0.61013335 -2.23223471 -2.57986784
v 0.6006152 -2.46669554 -2.57028055
v -0.57601261 -2.22735905 -2.56708622
v -0.56391453 -2.45890212 -2.55497312
v -1.19179475 -2.55551695 -2.2721064
v -1.1829276 -2.81277942 -2.23989343
v -1.67902851 -2.86477041 -1.79683435
v -1.66334831 -3.14691138 -1.76297521
v -1.95178329 -3.15340614 -1.14285528
v -1.91461324 -3.50641226 -1.10047423
v -2.00872325 -3.25366616 -0.46854636
v -1.95157301 -3.70242476 -0.44239223
v -1.83470797 -3.23743414 0.30156159
v -1.76251888 -3.81101727 0.33044761
v -1.53713607 -3.2195158 1.05712139
v -1.46787905 -3.89939618 1.07625138
v -1.62408173 3.89389348 2.33982563
v -1.66829478 4.32802772 2.42999863
v 0.07574468 4.49532795 2.65037846
v 0.07842069 4.04554939 2.55359482
v 2.65846204 3.46359181 0.31041431
v 2.7927947 2.74298143 -0.74220031
v 2.7481265 2.42897057 -0.73241353
v 2.60709285 3.10928893 0.29049438
v 0.75305235 1.95510137 -3.39919781
v 0.7624005 2.21057105 -3.46420359
v -0.75450253 2.20100212 -3.47098946
v -0.74440348 1.94495713 -3.40593028
v -1.52153933 2.07076716 -3.20446205
v -1.50126314 1.80606782 -3.13900065
v -2.1718316 2.03622269 -2.57186746
v -2.14171457 1.75646722 -2.51887059
v -2.60182666 2.21075153 -1.71812582
v -2.56328058 1.91093289 -1.68544352
v -2.7927947 2.75755715 -0.73760759
v -2.74426603 2.42468643 -0.73118174
v -2.69564771 3.5167489 0.32777327
v -2.63871812 3.14208626 0.30080622
v -2.34763526 4.26527977 1.52082407
v -2.28995752 3.84884452 1.4482578
v 1.53635644 4.25797128 2.40918326
v 1.50222349 3.8252182 2.33062362
v 2.61896848 2.22528457 -1.72179734
v 2.18811225 2.05476427 -2.56301093
v 2.15901804 1.77823114 -2.50991988
v 2.58156728 1.93500506 -1.68929588
v 1.53055465 2.08454465 -3.19666934
v 1.51130735 1.82126033 -3.13182473
v 2.24802112 4.16354131 1.50420033
v 2.19967889 3.75965786 1.44774735
g Group18102
f 10 106 105 9
g Group12349
f 97 121 25 1
g Group18102
f 1 58 154 97
f 12 10 9 11
g Group12349
f 1 25 27 2
g Group18102
f 2 60 58 1
f 14 12 11 13
g Group12349
f 2 27 29 3
g Group18102
f 3 62 60 2
f 16 14 13 15
g Group12349
f 3 29 31 4
g Group18102
f 4 64 62 3
f 18 16 15 17
g Group12349
f 4 31 33 5
g Group18102
f 5 66 64 4
f 20 18 17 19
g Group12349
f 5 33 35 6
g Group18102
f 6 68 66 5
f 22 20 19 21
g Group12349
f 6 35 37 7
g Group18102
f 7 70 68 6
f 24 22 21 23
g Group12349
f 7 37 39 8
g Group18102
f 8 72 70 7
f 120 193 194 119
g Group12349
f 8 39 195 196
g Group18102
f 104 168 199 196
g Group47361
f 132 130 222 223
g Group12349
f 129 131 182 181
g Group47361
f 130 128 224 222
g Group12349
f 137 106 10 41
f 41 10 12 43
f 43 12 14 45
f 45 14 16 47
f 47 16 18 49
f 49 18 20 51
f 51 20 22 53
f 53 22 24 55
f 55 24 193 197
f 127 129 181 180
g Group47361
f 58 57 153 154
f 122 153 57 26
g Group12349
f 203 204 192 184
g Group47361
f 60 59 57 58
f 26 57 59 28
f 62 61 59 60
f 28 59 61 30
f 64 63 61 62
f 30 61 63 32
g Group12349
f 204 197 151 192
g Group47361
f 66 65 63 64
f 32 63 65 34
f 200 225 226 40
f 68 67 65 66
f 34 65 67 36
g Group12349
f 195 203 184 135
g Group47361
f 70 69 67 68
f 36 67 69 38
f 202 201 80 56
f 72 71 69 70
f 38 69 71 40
f 136 134 227 228
f 168 167 198 199
f 40 71 198 200
f 201 194 23 80
f 128 126 229 224
g Group12349
f 125 127 180 179
g Group47361
f 126 124 230 229
f 73 9 105 169
f 152 150 175 176
f 42 73 169 138
f 74 11 9 73
f 176 175 117 119
f 44 74 73 42
f 75 13 11 74
f 150 148 174 175
f 46 75 74 44
f 76 15 13 75
f 175 174 115 117
f 48 76 75 46
f 77 17 15 76
f 148 146 173 174
f 50 77 76 48
f 78 19 17 77
f 174 173 113 115
f 52 78 77 50
f 79 21 19 78
f 146 144 172 173
f 54 79 78 52
f 80 23 21 79
f 173 172 111 113
f 56 80 79 54
f 176 119 194 201
f 144 142 171 172
f 152 176 201 202
g Group12349
f 123 125 179 178
g Group47361
f 124 122 231 230
g Group12349
f 121 123 178 177
f 121 177 81 25
g Group47361
f 26 232 231 122
g Group12349
f 25 81 82 27
g Group47361
f 28 233 232 26
g Group12349
f 27 82 83 29
g Group47361
f 30 234 233 28
g Group12349
f 29 83 84 31
g Group47361
f 32 235 234 30
g Group12349
f 31 84 85 33
g Group47361
f 34 236 235 32
g Group12349
f 33 85 86 35
g Group47361
f 36 237 236 34
g Group12349
f 35 86 87 37
g Group47361
f 38 238 237 36
g Group12349
f 37 87 88 39
g Group47361
f 40 226 238 38
g Group12349
f 39 88 203 195
g Group47361
f 136 228 225 200
g Group12349
f 189 190 147 145
f 185 137 41 89
f 89 41 43 90
f 90 43 45 91
f 91 45 47 92
f 92 47 49 93
f 93 49 51 94
f 94 51 53 95
f 95 53 55 96
f 96 55 197 204
f 131 133 183 182
f 89 81 177 185
f 177 178 186 185
f 81 89 90 82
f 82 90 91 83
f 83 91 92 84
f 84 92 93 85
f 85 93 94 86
f 86 94 95 87
f 87 95 96 88
f 88 96 204 203
g Group47361
f 134 132 223 227
g Group18102
f 108 107 105 106
g Group12349
f 97 98 123 121
g Group18102
f 98 97 154 156
f 110 109 107 108
g Group12349
f 98 99 125 123
g Group18102
f 99 98 156 158
f 112 111 109 110
g Group12349
f 99 100 127 125
g Group18102
f 100 99 158 160
f 114 113 111 112
g Group12349
f 100 101 129 127
g Group18102
f 101 100 160 162
f 116 115 113 114
g Group12349
f 101 102 131 129
g Group18102
f 102 101 162 164
f 118 117 115 116
g Group12349
f 102 103 133 131
g Group18102
f 103 102 164 166
f 120 119 117 118
g Group12349
f 103 104 135 133
g Group18102
f 104 103 166 168
g Group12349
f 187 188 143 141
f 186 187 141 139
f 183 184 192 191
f 182 183 191 190
f 137 139 108 106
f 139 141 110 108
f 141 143 112 110
f 143 145 114 112
f 145 147 116 114
f 147 149 118 116
f 149 151 120 118
f 181 182 190 189
f 185 186 139 137
f 188 189 145 143
g Group47361
f 156 154 153 155
f 122 124 155 153
f 200 198 167 136
f 158 156 155 157
f 124 126 157 155
f 199 198 71 72
f 160 158 157 159
f 126 128 159 157
g Group12349
f 197 193 120 151
g Group47361
f 162 160 159 161
f 128 130 161 159
g Group18102
f 196 199 72 8
g Group47361
f 164 162 161 163
f 130 132 163 161
g Group12349
f 196 195 135 104
g Group47361
f 166 164 163 165
f 132 134 165 163
g Group18102
f 193 24 23 194
g Group47361
f 168 166 165 167
f 134 136 167 165
g Group12349
f 133 135 184 183
f 180 181 189 188
f 179 180 188 187
f 178 179 187 186
f 191 192 151 149
f 190 191 149 147
g Group47361
f 170 169 105 107
f 172 171 109 111
f 140 138 169 170
f 171 170 107 109
f 142 140 170 171
f 205 202 56 206
f 208 207 146 148
f 209 42 138 210
f 211 44 42 209
f 212 46 44 211
f 213 48 46 212
f 214 50 48 213
f 215 52 50 214
f 216 54 52 215
f 206 56 54 216
f 217 152 202 205
f 219 218 142 144
f 218 220 140 142
f 220 210 138 140
f 217 221 150 152
f 207 219 144 146
f 221 208 148 150
f 242 241 240 239
f 242 307 308 243
f 205 206 244 245
f 249 248 309 310
f 207 208 246 247
f 253 311 312 250
f 209 210 251 252
f 255 313 311 253
f 211 209 252 254
f 257 314 313 255
f 212 211 254 256
f 259 315 314 257
f 213 212 256 258
f 261 316 315 259
f 214 213 258 260
f 263 317 316 261
f 215 214 260 262
f 265 318 317 263
f 216 215 262 264
f 243 308 318 265
f 206 216 264 244
f 239 319 307 242
f 217 205 245 266
f 268 239 240 267
f 250 270 269 253
f 253 269 271 255
f 255 271 272 257
f 257 272 273 259
f 259 273 274 261
f 261 274 275 263
f 263 275 276 265
f 265 276 277 243
f 243 277 241 242
f 281 280 279 278
f 250 281 278 270
f 280 283 282 279
f 283 280 320 321
f 218 219 284 285
f 280 281 322 320
f 220 218 285 286
f 283 248 287 282
f 281 250 312 322
f 210 220 286 251
f 239 268 323 319
f 221 217 266 288
f 248 283 321 309
f 219 207 247 284
f 248 249 289 287
f 249 268 267 289
f 268 249 310 323
f 208 221 288 246
f 223 222 290 291
f 222 224 292 290
f 226 225 294 293
f 228 227 295 296
f 224 229 297 292
f 229 230 298 297
f 230 231 299 298
f 231 232 300 299
f 232 233 301 300
f 233 234 302 301
f 234 235 303 302
f 235 236 304 303
f 236 237 305 304
f 237 238 306 305
f 238 226 293 306
f 225 228 296 294
f 227 223 291 295
f 325 324 287 289
f 324 326 282 287
f 327 241 277 328
f 330 329 267 240
f 326 331 279 282
f 331 332 278 279
f 332 333 270 278
f 334 269 270 333
f 335 271 269 334
f 336 272 271 335
f 337 273 272 336
f 338 274 273 337
f 339 275 274 338
f 340 276 275 339
f 328 277 276 340
f 330 240 241 327
f 329 325 289 267
f 344 343 342 341
f 324 325 341 342
f 291 290 343 344
f 343 346 345 342
f 326 324 342 345
f 290 292 346 343
f 350 349 348 347
f 293 294 350 347
f 327 328 348 349
f 354 353 352 351
f 329 330 351 352
f 296 295 353 354
f 346 356 355 345
f 331 326 345 355
f 292 297 356 346
f 356 358 357 355
f 332 331 355 357
f 297 298 358 356
f 358 360 359 357
f 333 332 357 359
f 298 299 360 358
f 362 361 359 360
f 299 300 362 360
f 334 333 359 361
f 364 363 361 362
f 300 301 364 362
f 335 334 361 363
f 366 365 363 364
f 301 302 366 364
f 336 335 363 365
f 368 367 365 366
f 302 303 368 366
f 337 336 365 367
f 370 369 367 368
f 303 304 370 368
f 338 337 367 369
f 372 371 369 370
f 304 305 372 370
f 339 338 369 371
f 374 373 371 372
f 305 306 374 372
f 340 339 371 373
f 347 348 373 374
f 306 293 347 374
f 328 340 373 348
f 354 351 349 350
f 294 296 354 350
f 330 327 349 351
f 353 344 341 352
f 325 329 352 341
f 295 291 344 353
f 378 377 376 375
f 308 307 378 375
f 245 244 376 377
f 382 381 380 379
f 247 246 379 380
f 310 309 381 382
f 386 385 384 383
f 312 311 386 383
f 252 251 384 385
f 388 387 385 386
f 311 313 388 386
f 254 252 385 387
f 390 389 387 388
f 313 314 390 388
f 256 254 387 389
f 392 391 389 390
f 314 315 392 390
f 258 256 389 391
f 394 393 391 392
f 315 316 394 392
f 260 258 391 393
f 396 395 393 394
f 316 317 396 394
f 262 260 393 395
f 398 397 395 396
f 317 318 398 396
f 264 262 395 397
f 375 376 397 398
f 318 308 375 398
f 244 264 397 376
f 400 399 377 378
f 307 319 400 378
f 266 245 377 399
f 404 403 402 401
f 285 284 401 402
f 321 320 403 404
f 403 406 405 402
f 286 285 402 405
f 320 322 406 403
f 406 383 384 405
f 251 286 405 384
f 322 312 383 406
f 400 408 407 399
f 288 266 399 407
f 319 323 408 400
f 381 404 401 380
f 284 247 380 401
f 309 321 404 381
f 408 382 379 407
f 246 288 407 379
f 323 310 382 408

 