# File exported by ZBrush version 2021
# www.zbrush.com
#Vertex Count 1461
#Face Count 1482
#Auto scale x=1.000000 y=1.000000 z=1.000000
#Auto offset x=0.000000 y=0.000000 z=0.000000
v 0.91313135 -1.23002231 -0.77056837
v 0.80250442 -1.41351115 -0.79059934
v -0.3762016 -0.34331524 -1.03498637
v 0.77471739 -1.14622414 -0.99690139
v 0.68992543 -1.22729432 -0.99770939
v 1.15054738 1.81420183 -1.37868535
v 1.0145154 1.7814548 -1.32458436
v 1.12799537 -0.20660316 -1.36917543
v 1.06223845 -0.32086515 -1.39881241
v 0.96081137 1.90879774 -1.45408034
v -0.47840559 2.70900178 -1.62491738
v 1.39905536 3.64812088 -1.70611739
v 1.25589942 1.91796183 -1.67194628
v 1.20828139 1.7683928 -1.66697931
v 1.26169645 3.40409088 -1.64349031
v -0.3498246 2.7866888 -1.71209931
v 1.18204844 3.46748256 -1.73041439
v -0.62437057 2.82032966 -1.71245241
v -0.52936255 2.92480182 -1.78479433
v 0.69138038 1.62027382 -2.25082731
v 0.74940639 1.53611683 -2.23817849
v 0.3957234 2.9526658 -2.25976347
v 0.0893404 1.62953877 -2.2995634
v 0.19450739 1.67263484 -2.31289148
v 0.07308439 1.63846576 -2.36828637
v 0.16871041 1.66188275 -2.38253641
v 0.85508042 -1.17671811 -0.74479436
v 0.80053639 -1.24646127 -0.69145643
v 0.88577938 -1.3113991 -0.72288334
v 0.95045042 -1.2237631 -0.85989642
v 0.89262235 -1.15000331 -0.87642645
v 0.95151042 -1.31162226 -0.85111045
v 0.71201038 -1.37412226 -0.76810646
v 0.73231339 -1.39826428 -0.89222538
v 0.83543539 -1.42075312 -0.87197935
v 0.85479241 -1.36437022 -0.72890937
v 0.7522574 -1.31152522 -0.69851636
v 0.91024243 -1.38095629 -0.85550534
v -0.36469161 -0.13214325 -0.97320735
v -0.53766357 -0.30805718 -1.21271836
v -0.4780626 -0.42460322 -1.20216941
v -0.23932759 -0.47236526 -1.0239644
v -0.1498806 -0.38468217 -0.89557945
v 0.7580344 -1.05430924 -0.91880142
v 0.8827244 -1.11918532 -1.05956339
v 0.78028041 -1.15980613 -1.23238444
v 0.68365639 -1.21680915 -1.16060435
v 0.6635254 -1.31825029 -1.1280334
v 0.75857341 -1.3825711 -1.02332544
v 0.58924639 -1.26896131 -0.91893935
v 0.72039842 -1.42025625 -1.13867044
v 1.03201639 1.80139684 -1.48996043
v 1.18252539 1.80235576 -1.43788635
v 1.15369737 1.90134978 -1.27011036
v 1.04036235 1.85419881 -1.19140338
v 1.23314237 1.88287973 -1.43463742
v 0.85158538 1.98328578 -1.27039539
v 0.97135639 2.01514291 -1.20148336
v 1.08469641 2.06777787 -1.34675037
v 0.94370138 2.02640771 -1.37109339
v 0.85431039 1.69605183 -1.18856942
v 0.85288941 1.65947783 -1.29579436
v 0.8051874 1.70730686 -1.39064741
v 0.93963146 1.80686783 -1.40253937
v 1.1247524 -0.20508921 -1.29162538
v 1.10977041 -0.29225122 -1.30752635
v 1.10838735 -0.27633917 -1.39789235
v 1.06152141 -0.23204326 -1.44864344
v 1.09056437 -0.15711915 -1.40151643
v 1.07820844 -0.12382924 -1.30312836
v 1.04588139 -0.34667515 -1.33058345
v 0.96439743 -0.34290015 -1.36582243
v 1.00639236 -0.30105221 -1.43574035
v 1.08676445 2.02493286 -1.50876236
v -0.47724658 2.71195268 -1.52433645
v -0.5531646 2.76332879 -1.52177941
v -0.5555976 2.72542882 -1.65080738
v -0.46064159 2.57825374 -1.71197342
v -0.38095259 2.63310384 -1.66820144
v -0.3991056 2.72229766 -1.55031645
v 1.27037239 3.68024778 -1.57508635
v 1.34797334 3.69096994 -1.58794045
v 1.33600342 3.71356678 -1.69033932
v 1.23989045 3.69689464 -1.66666936
v 1.39055335 3.59739685 -1.77125334
v 1.30709445 3.65127897 -1.7879045
v 1.40929639 3.61682701 -1.61457645
v 1.39987444 3.51514673 -1.70643544
v 1.26275539 1.93457078 -1.58569443
v 1.27412939 1.84109878 -1.56557035
v 1.26925635 1.83145678 -1.67209839
v 1.16952741 1.96165776 -1.71795249
v 1.15913546 2.00988674 -1.62876248
v 1.15287244 1.8686248 -1.74493241
v 1.21533346 1.7648108 -1.57146239
v 1.07838642 1.77515077 -1.60934042
v 1.10086441 1.79869484 -1.70536232
v 1.2162534 3.33688592 -1.59905839
v 1.13806438 3.36892795 -1.59200942
v 1.24610436 3.41222572 -1.7183485
v 1.30904042 3.43501091 -1.64813232
v 1.29517746 3.34150791 -1.54511642
v -0.29903259 2.72335672 -1.74965429
v -0.31616658 2.74062871 -1.83917141
v -0.3909156 2.86182069 -1.75520229
v -0.3595846 2.86685371 -1.6336174
v -0.35287457 2.78189468 -1.59460043
v -0.32803958 2.68580174 -1.68876433
v 1.1634804 3.54952001 -1.63879632
v 1.20637238 3.63791656 -1.73363137
v 1.17425334 3.5509758 -1.81552243
v 1.09489238 3.42231273 -1.53219139
v 1.02403235 3.41202688 -1.83551931
v 1.08726143 3.3190546 -1.85501337
v -0.60859459 2.83566188 -1.6386404
v -0.57294058 2.91803884 -1.66282749
v -0.60386061 2.88920974 -1.7570424
v -0.56084859 2.79757165 -1.8337593
v -0.59397858 2.73796582 -1.75817441
v -0.48810958 2.94594669 -1.70779943
v -0.47645559 2.85033369 -1.84396648
v 0.75599843 1.62145876 -2.15393233
v 0.69894439 1.60533177 -2.1926794
v 0.81470942 1.58971679 -2.19081234
v 0.83358442 1.60470485 -2.25992131
v 0.75929439 1.59412384 -2.30231833
v 0.72559142 1.94126582 -2.23700237
v 0.72196739 1.92676973 -2.33082938
v 0.80839937 1.90167176 -2.3899455
v 0.40796738 3.03571891 -2.28384041
v 0.35133841 3.06790781 -2.29263544
v 0.32659441 2.99642372 -2.29984831
v 0.40908539 2.87118864 -2.37560343
v 0.47129839 2.82980489 -2.26969432
v 0.45929437 2.98564577 -2.22945237
v 0.1428284 1.62953877 -2.29640746
v 0.11907939 1.91072082 -2.19955444
v 0.0266094 1.90137481 -2.22146248
v 0.1163434 1.63519978 -2.39322447
v 0.0035764 1.92011177 -2.31949138
v 0.1854484 1.93669486 -2.25646638
v 0.16747939 1.94293975 -2.34993338
v 0.07634739 1.93910777 -2.38326549
v -0.16710959 3.14755678 -2.35787344
v -0.10177759 3.23882293 -2.33835744
v -0.15078659 3.29239702 -2.40628147
v -0.13314259 3.28329086 -2.49536037
v -0.16436259 3.09562778 -2.43979334
v 0.2238754 2.99643993 -2.33018446
v 0.29690039 2.96025276 -2.46922349
v -0.06330459 3.22708368 -2.52907848
v -0.02131659 3.14713192 -2.48272538
v -0.0915336 3.09536576 -2.49293351
v 0.0264204 3.05069184 -2.43437051
v -0.04565559 2.99765873 -2.4362483
v -0.10985359 2.99867487 -2.37113237
v 0.0264704 2.87231493 -2.36255431
v -0.03768559 2.87136077 -2.28605341
v -0.03252359 2.95552182 -2.22278142
v -0.10375559 3.05570173 -2.29249334
v 0.0318164 3.03893566 -2.24450445
v -0.0208406 3.14254665 -2.30340933
v 0.06612239 2.93562364 -2.1455295
v 0.09600541 3.0211358 -2.19102644
v 0.14833739 3.01413679 -2.2717154
v 0.0880704 3.03467989 -2.32051134
v 0.0437894 3.11664176 -2.37628436
v 0.17791739 2.92774486 -2.3045094
v 0.08610341 2.95321178 -2.37380242
v 0.1475594 2.84378671 -2.25987243
v 0.27987039 2.96246075 -2.2336173
v 0.2887924 2.89061284 -2.16532039
v 0.2443504 2.8978939 -2.07674741
v 0.0920524 2.84791469 -2.18295431
v 0.19355639 2.9811759 -2.05513429
v 0.47377741 3.06605863 -2.04976344
v 0.41488039 3.14275383 -2.0331645
v 0.37761738 3.19545459 -2.10687637
v 0.1898314 3.05512189 -2.12766552
v 0.39833539 3.17068576 -2.20076847
v 0.23347541 3.04143476 -2.2137053
v 0.45691841 3.09212684 -2.21751642
v 0.75368738 3.36919498 -2.14206647
v 0.79556143 3.28199958 -2.16511249
v 0.80375838 3.20569801 -2.09647536
v 0.49514138 3.04169464 -2.14255547
v 0.76569438 3.22290897 -1.99790048
v 1.14284837 3.3081026 -1.94992828
v 0.72179538 3.31739282 -1.97726631
v 1.04126238 3.50294494 -1.90496039
v 0.71712839 3.38852262 -2.05102443
v 1.10137343 3.4867506 -1.99990749
v 1.2593714 3.55690097 -1.90152144
v 1.34978437 3.47748661 -1.9100964
v 1.14792037 3.39065599 -2.02095747
v 1.34855341 3.38309288 -1.82243728
v -0.05047759 3.3851366 -2.49504637
v 0.0216044 3.31924963 -2.5226264
v 0.01973539 3.20416259 -2.44890451
v 0.0612384 3.5111618 -2.48016834
v 0.13081839 3.4196248 -2.50161647
v 0.1271144 3.33151388 -2.41945338
v 0.0771584 3.3296318 -2.34445333
v -0.0134506 3.23434257 -2.38287639
v 0.2402814 3.439507 -2.39516639
v 0.21570441 3.34686088 -2.35417151
v 0.14244541 3.33916664 -2.28117632
v 0.09168639 3.4302597 -2.25171542
v 0.02666039 3.40011692 -2.31826543
v 0.2997404 3.34198856 -2.26355743
v 0.20305341 3.33992672 -2.21058845
v 0.16457641 3.42915487 -2.17663145
v 0.22172141 3.51586055 -2.18606948
v 0.1225954 3.52120161 -2.29205036
v 0.2212764 3.32010698 -2.1450355
v 0.1910004 3.40574598 -2.1023333
v 0.25874739 3.47934675 -2.07380938
v 0.36445739 3.46824264 -2.07625746
v 0.3133274 3.51626396 -2.23570251
v 0.1458984 3.35071992 -2.0147345
v 0.20796439 3.39681482 -1.94934034
v 0.30031341 3.36800766 -1.93281531
v 0.34330239 3.29451656 -1.98396039
v 0.40472543 3.38447094 -2.11832928
v 0.1208944 3.22437286 -1.84445834
v 0.21304839 3.19226694 -1.82294344
v 0.2747274 3.14958286 -1.89475846
v 0.24076739 3.14098262 -1.9950664
v 0.29528141 3.24285364 -2.05859136
v 0.1230334 2.90619564 -1.82598233
v 0.1957724 2.91446161 -1.90445637
v 0.17064338 2.9461646 -1.9985485
v 0.0784114 2.9745028 -2.01969933
v 0.1440944 3.1764369 -2.0197885
v 0.15800139 2.65237879 -2.06285238
v 0.1383894 2.70500183 -2.15193438
v 0.0389754 2.72738575 -2.17693543
v -0.03872859 2.69666671 -2.11562538
v 0.0024624 2.97476077 -1.94961547
v 0.14985638 2.32318282 -2.27770733
v 0.0482784 2.32387781 -2.30894947
v -0.03097759 2.30378174 -2.24181747
v -0.0099096 2.28169393 -2.13872742
v -0.01782659 2.64506077 -2.02776551
v 0.0796184 2.62458181 -2.00220251
v 0.02102139 2.93832492 -1.84889531
v 0.0930114 2.28012895 -2.10566449
v 0.16922941 2.30026674 -2.17453551
v 0.0823704 3.217628 -1.94123029
v 0.18970739 3.26744365 -2.07790851
v 0.33492839 3.307024 -2.15480232
v 0.35156041 3.43181181 -2.27446746
v 0.19437339 3.52463579 -2.36190438
v 0.0090914 3.49699783 -2.37738728
v -0.0786456 3.39208459 -2.40126633
v -0.04525259 3.32327365 -2.33273935
v 0.33375039 3.02917981 -2.50410652
v 0.47289937 2.92308783 -2.42755746
v 0.15289339 3.05383181 -2.27915334
v 0.14164939 3.08184289 -2.35639238
v 0.16995739 3.14310073 -2.3953185
v 0.2208884 3.19513177 -2.38109135
v 0.36922639 3.08813881 -2.46799731
v -0.09094059 3.2578659 -2.19057941
v -0.07302159 3.32564067 -2.22915148
v -0.02474059 3.38891267 -2.21628737
v 0.02847839 3.41263055 -2.15617537
v 0.26657339 3.2114048 -2.32832551
v -0.38573959 3.47241878 -2.11517834
v -0.33923858 3.555449 -2.08891534
v -0.2861146 3.58523559 -2.01274442
v -0.2519626 3.5441637 -1.92943835
v 0.0509004 3.38066577 -2.08018541
v -0.55530357 3.62491273 -1.94616746
v -0.46302959 3.63513183 -1.89278149
v -0.40039658 3.57761383 -1.84039449
v -0.39267361 3.49292993 -1.81542348
v -0.25856259 3.45043802 -1.88778638
v -0.49761658 3.67574691 -1.67734837
v -0.4189116 3.61060476 -1.67330431
v -0.4109196 3.50264263 -1.68439841
v -0.4764606 3.42633199 -1.70623135
v -0.44449558 3.41434478 -1.82971334
v -0.4085336 3.51292991 -1.49823737
v -0.3998166 3.4340558 -1.55934143
v -0.46716558 3.3659048 -1.5988084
v -0.5679056 3.35964298 -1.59299838
v -0.57320463 3.41999578 -1.72015142
v -0.37947958 3.25189256 -1.43041944
v -0.44743859 3.22413396 -1.48395443
v -0.53338062 3.21388959 -1.47572743
v -0.59325957 3.22702169 -1.41125738
v -0.63800859 3.41411399 -1.54698145
v -0.4260196 3.0683248 -1.49116635
v -0.5231716 3.05507874 -1.48057436
v -0.57816058 3.0299108 -1.40578246
v -0.5643596 3.01348877 -1.31582546
v -0.59536063 3.25427961 -1.32149136
v -0.50280261 2.94751071 -1.50113534
v -0.55710363 2.8987627 -1.44443845
v -0.54236257 2.83286762 -1.37641036
v -0.4667496 2.79786682 -1.34289443
v -0.4921256 3.01017475 -1.25945544
v -0.57494163 2.85368585 -1.53915739
v -0.53211158 2.93060684 -1.57988739
v -0.4154416 2.95894289 -1.51270043
v -0.43744158 2.9454627 -1.61797237
v -0.33723259 2.91985774 -1.4766854
v -0.3504816 3.05732774 -1.42680144
v -0.34376859 3.03591966 -1.33516538
v -0.32132059 2.85905265 -1.41598236
v -0.40234458 3.01931095 -1.26761543
v -0.3774026 2.80716681 -1.35751545
v -0.36802661 3.28116369 -1.34116244
v -0.42854258 3.29621601 -1.26487934
v -0.5293886 3.28450489 -1.25477743
v -0.48011258 3.55352973 -1.44922435
v -0.57455456 3.54205179 -1.44369936
v -0.63890761 3.48656082 -1.48493742
v -0.59606957 3.66519784 -1.68807935
v -0.65849661 3.58705282 -1.69914746
v -0.64860659 3.48547887 -1.71169543
v -0.62121862 3.54505395 -1.96622633
v -0.61649656 3.44312858 -1.93873333
v -0.53990662 3.38660574 -1.87850236
v -0.3985866 3.38256263 -2.07454943
v -0.37049359 3.33887958 -1.99062728
v -0.31306359 3.36567783 -1.9125545
v -0.07009159 3.22302579 -2.1191535
v -0.01998459 3.24371385 -2.05475544
v 0.0306344 3.31001758 -2.03784537
v 0.2073614 3.07718467 -2.21818637
v 0.26116439 3.13597488 -2.21546649
v 0.28375241 3.18814659 -2.26345944
v 0.3781014 3.09933996 -2.33537936
v 0.38542538 3.10980773 -2.40010237
v 0.45071542 3.06111073 -2.32001948
v 0.48855137 3.04602289 -2.38036942
v 0.49624037 2.99003362 -2.42363333
v 0.57737439 3.00347995 -2.3106935
v 0.60023242 2.92686796 -2.34745645
v 0.55528438 2.84342765 -2.33191347
v 0.65824443 2.90174484 -2.17434144
v 0.59669542 2.83175373 -2.15225935
v 0.4949764 2.85819387 -2.12851238
v 0.60789638 2.85693478 -1.95240545
v 0.5029124 2.8906188 -1.97916436
v 0.4882164 2.98774385 -2.03195834
v 0.47355639 2.97406864 -2.13439631
v 0.56502538 3.04372382 -2.05902242
v 0.55577039 3.02821373 -2.16575336
v 0.51699137 3.02444481 -2.26312732
v 0.63826239 2.99042582 -2.18250346
v 0.65754938 3.01844787 -2.0327804
v 0.6883924 2.92695784 -1.9819045
v 0.63858741 3.09416484 -1.94051742
v 0.63584637 3.03936576 -1.8545463
v 0.5564174 2.99594688 -1.81992936
v 0.60078239 3.16489887 -1.78481245
v 0.50805437 3.14966869 -1.7268033
v 0.42174941 3.14784193 -1.7911694
v 0.46986639 3.00378179 -1.86401438
v 0.44140338 3.15930271 -1.90107631
v 0.45640242 3.05721092 -1.9483633
v 0.52930343 3.17646455 -1.94068837
v 0.54612839 3.10785388 -1.9933753
v 0.60270142 3.17915391 -1.88576149
v 0.53135937 3.26593065 -1.97987532
v 0.61665737 3.27874088 -1.91135239
v 0.59644937 3.30725765 -1.81569528
v 0.62485343 3.37943601 -1.95638537
v 0.60909837 3.44711971 -1.87505435
v 0.51600837 3.49419689 -1.8535285
v 0.50645339 3.32486677 -1.7854855
v 0.43587142 3.47986364 -1.91496443
v 0.42872738 3.30848169 -1.84109139
v 0.4453414 3.42060279 -2.00096344
v 0.43547242 3.279284 -1.93659138
v 0.54011541 3.36396265 -2.02434039
v 0.5007804 3.50430059 -2.08889532
v 0.57636243 3.42265987 -2.08024835
v 0.65835738 3.43604898 -2.01056242
v 0.64223438 3.43342495 -2.15323734
v 0.72296142 3.44547081 -2.08389735
v 0.75510442 3.54351472 -2.06070041
v 0.6603474 3.52699995 -1.95412135
v 0.71171939 3.62215566 -2.10476541
v 0.58869642 3.60538768 -1.96821236
v 0.63917541 3.61051893 -2.16974949
v 0.51109242 3.59515762 -2.03479337
v 0.60215938 3.52059984 -2.19577336
v 0.76996737 3.53711175 -2.31333351
v 0.69964438 3.46509981 -2.30376029
v 0.70797342 3.39141368 -2.2248485
v 0.77786541 3.32269001 -2.39469838
v 0.77121442 3.2915349 -2.28977537
v 0.85831439 3.29474496 -2.22854638
v 0.79435437 3.4030199 -2.15470647
v 0.95747339 3.32860755 -2.26856446
v 0.86090737 3.48503255 -2.1741383
v 0.96932542 3.36224794 -2.37759542
v 0.84774339 3.54621601 -2.25182938
v 0.87420338 3.35892963 -2.44308233
v 0.98036038 3.06712174 -2.41112852
v 0.89308643 3.06840992 -2.47053647
v 0.79485237 3.05924677 -2.42802429
v 0.89115536 2.6802268 -2.48226547
v 0.79260039 2.6851139 -2.43545746
v 0.78661942 2.68783879 -2.32506132
v 0.78512138 3.04758596 -2.31839537
v 0.87878841 2.68631076 -2.26528644
v 0.87762337 3.04681873 -2.25621151
v 0.97683441 2.68206787 -2.31473231
v 0.97488844 3.05506467 -2.30480146
v 0.98053741 2.67909884 -2.42367339
v 0.95788741 2.29478573 -2.28136539
v 0.96282541 2.28092384 -2.3968265
v 0.86373639 2.28345179 -2.45926642
v 0.90140235 1.89682579 -2.32998728
v 0.76352739 2.29959392 -2.40388536
v 0.75992739 2.31256771 -2.29058551
v 0.80571341 1.93863081 -2.18450641
v 0.85698038 2.31059694 -2.22829341
v 0.89778137 1.91410684 -2.22426128
v -0.38460558 2.70527076 -1.90907836
v -0.45922958 2.63372278 -1.90359139
v -0.16055659 2.5484519 -1.9423573
v -0.20749259 2.46199679 -1.93978047
v -0.2358776 2.40053582 -1.86899733
v -0.49683558 2.57931566 -1.82130241
v -0.22909559 2.40024781 -1.7700715
v 0.1385954 2.24803066 -1.88100528
v 0.13215741 2.23766684 -1.7909944
v 0.1567274 2.2932558 -1.71755647
v -0.18839259 2.46422982 -1.7018435
v 0.19606038 2.38007473 -1.70982432
v -0.1513246 2.55078268 -1.70511341
v 0.22610139 2.4450159 -1.77216744
v -0.12096759 2.61136078 -1.77528238
v 0.22937539 2.45022773 -1.86557745
v -0.12357659 2.61084079 -1.87350034
v 0.2049154 2.39473772 -1.93539547
v 0.60106241 2.27375364 -1.81437945
v 0.59052741 2.22344493 -1.88373446
v 0.55618637 2.14538073 -1.89851737
v 0.16824638 2.31103873 -1.93863248
v 0.51807439 2.08428192 -1.85131931
v 0.9102534 1.98230981 -1.81314849
v 0.86759942 1.91120076 -1.76874852
v 0.84050637 1.89437377 -1.6807034
v 0.49738842 2.07443785 -1.7686584
v 0.83571541 1.94574475 -1.60268235
v 0.50512242 2.12328481 -1.6982913
v 0.85016042 2.03533983 -1.58081245
v 0.53854042 2.20333194 -1.68178033
v 0.90312743 2.10026979 -1.61527335
v 0.57966339 2.26591968 -1.72992444
v 0.94390034 2.11627674 -1.70280551
v 0.94227838 2.06791782 -1.78682136
v 1.11314439 3.45730495 -1.4586184
v 1.18541443 3.61161184 -1.57464337
v 1.0970844 3.2131567 -1.52431535
v 1.04370737 3.21610593 -1.44407534
v 1.06378841 3.22210598 -1.35341334
v 1.14162635 3.2289958 -1.30361735
v 1.17968142 3.46192073 -1.40717744
v 1.06122446 3.03584075 -1.44834435
v 1.0859754 2.98532295 -1.34525537
v 1.18080842 2.96628975 -1.28834545
v 1.28536236 2.98684477 -1.31381642
v 1.23213446 3.22870063 -1.32245743
v 1.11000645 2.84969568 -1.51911437
v 1.20441842 2.81030178 -1.50088536
v 1.30453836 2.83528876 -1.5307424
v 1.3520174 2.90913772 -1.59548842
v 1.3312664 3.03476381 -1.40730536
v 1.14425039 2.64665365 -1.68806648
v 1.22410035 2.65029883 -1.74571728
v 1.25279235 2.70359468 -1.82195735
v 1.21422338 2.77529382 -1.8764255
v 1.31765043 2.99014568 -1.66141533
v 1.01654541 2.40471077 -1.93022537
v 1.03168535 2.44166374 -2.00970339
v 0.99613034 2.50596666 -2.05811834
v 0.92725038 2.56385278 -2.04961347
v 1.12941241 2.82299375 -1.87889742
v 0.75802338 2.21804189 -2.12261343
v 0.72410643 2.27605962 -2.16509342
v 0.6737194 2.33599972 -2.15102744
v 0.63400238 2.3678658 -2.08389234
v 0.8626604 2.58261275 -1.98367643
v 0.43531739 2.09155368 -2.18980646
v 0.40182542 2.16632676 -2.1627345
v 0.39631742 2.20351171 -2.08982729
v 0.41608637 2.18933081 -2.01735329
v 0.63083642 2.34779167 -1.99846148
v 0.0682694 2.05128574 -2.02114629
v 0.08457639 2.10596776 -1.9557414
v 0.1260734 2.09915065 -1.87889051
v 0.16762739 2.03457975 -1.83750534
v 0.44993943 2.13576078 -1.98004341
v -0.23865559 2.02260875 -1.77074646
v -0.1887736 2.01624274 -1.68997931
v -0.13970559 1.94532477 -1.64530634
v -0.12366759 1.84941077 -1.66570138
v 0.18466639 1.95192384 -1.85521745
v -0.36515861 1.96566677 -1.57158541
v -0.28560259 1.90148186 -1.5511254
v -0.26623761 1.80842578 -1.57575142
v -0.32056859 1.7401607 -1.62914133
v -0.1523976 1.79007673 -1.7372713
v -0.31467559 1.87674975 -1.46652746
v -0.29426157 1.7794168 -1.49774742
v -0.35747459 1.69872474 -1.53197741
v -0.46405559 1.68235182 -1.54246938
v -0.4089286 1.73736679 -1.68931841
v -0.2322556 1.73226571 -1.37068343
v -0.29327261 1.63650775 -1.37342441
v -0.38914659 1.60388183 -1.3262794
v -0.46358358 1.65068674 -1.26044845
v -0.54795861 1.73779177 -1.52299141
v -0.11605759 1.54506075 -1.14516139
v -0.1893706 1.49874174 -1.07853341
v -0.2457356 1.52957975 -0.98336839
v -0.24549959 1.62693178 -0.91803538
v -0.47593259 1.74797582 -1.21455645
v 0.0568034 1.40349781 -0.96925234
v 0.0334274 1.42569077 -0.85973036
v 0.05466739 1.50747275 -0.79559946
v 0.1017754 1.60252177 -0.80386841
v -0.19031658 1.7281028 -0.93018639
v 0.3286634 1.29194784 -0.86351335
v 0.36950939 1.35817384 -0.79921734
v 0.41594439 1.44689178 -0.8060584
v 0.4425044 1.50836181 -0.88289439
v 0.14713639 1.65993082 -0.88164341
v 0.6814264 1.16350579 -0.88645839
v 0.74160838 1.25056576 -0.89662134
v 0.7502374 1.32231283 -0.97639834
v 0.70449543 1.33144676 -1.07226944
v 0.4322074 1.50540483 -0.98702645
v 0.97867834 1.03226983 -1.09332037
v 0.97807335 1.11066484 -1.15974438
v 0.91890537 1.14094781 -1.2386254
v 0.83356142 1.10350883 -1.28702044
v 0.63617241 1.27766084 -1.12766742
v 1.12854743 0.9891538 -1.38390743
v 1.0457834 1.03434073 -1.43420338
v 0.93845045 1.00735676 -1.44491541
v 0.87137842 0.92577076 -1.40964639
v 0.76931238 1.01485073 -1.27207136
v 1.01088345 0.91538178 -1.63610339
v 0.91324245 0.92108881 -1.59896838
v 0.84940141 0.85547679 -1.53588342
v 0.87257939 0.76016581 -1.48008942
v 0.88782239 0.8346498 -1.35768139
v 0.76371341 0.78176975 -1.7540183
v 0.7391684 0.74238181 -1.65626144
v 0.77010339 0.65976178 -1.59778237
v 0.8403514 0.5835188 -1.61057734
v 0.96560239 0.69896578 -1.47217536
v 0.50015538 0.57062077 -1.71049642
v 0.54296541 0.49457579 -1.64613533
v 0.60760438 0.40827876 -1.66446638
v 0.65405941 0.36763078 -1.7526443
v 0.90798342 0.55479377 -1.68483138
v 0.25133839 0.27564877 -1.71069932
v 0.3110044 0.19626778 -1.72942447
v 0.3466444 0.14768874 -1.81459641
v 0.33534839 0.16061782 -1.92139148
v 0.6559574 0.39466875 -1.85388946
v 0.0937474 0.01470375 -1.65896534
v 0.0992174 -0.05015921 -1.7472074
v 0.05147241 -0.05081915 -1.8412683
v -0.01623559 0.00374174 -1.88834834
v 0.28061941 0.22984576 -1.98457551
v -0.13829359 -0.24675822 -1.58086741
v -0.19684159 -0.25865519 -1.66746234
v -0.27479261 -0.20885026 -1.71108532
v -0.33080759 -0.12541925 -1.69049835
v -0.0718676 0.0832988 -1.87031841
v -0.3467186 -0.40722715 -1.49165642
v -0.45311558 -0.37509822 -1.51391136
v -0.50978756 -0.28465724 -1.49519038
v -0.48614358 -0.18805825 -1.44723439
v -0.33286857 -0.05294716 -1.61596143
v -0.4818446 -0.18556523 -1.24126935
v -0.38004359 -0.14814722 -1.26647436
v -0.3947516 -0.1483252 -1.3980534
v -0.29777258 -0.07121026 -1.02694845
v -0.23404759 -0.08654522 -1.09610545
v -0.18881958 -0.16064024 -1.16737043
v -0.29103159 -0.1875422 -1.28459835
v -0.08206159 -0.29842126 -0.92692434
v -0.03063859 -0.27222621 -1.01496839
v -0.02220159 -0.30455422 -1.11217045
v -0.06204959 -0.37666225 -1.17504036
v -0.1924096 -0.27957522 -1.20622146
v 0.23352339 -0.54812419 -0.94253039
v 0.24475339 -0.55915319 -1.04776644
v 0.19322139 -0.62837219 -1.1188184
v 0.11390639 -0.70751726 -1.11088442
v -0.13048459 -0.46047127 -1.16872334
v 0.53469139 -0.8375132 -0.97705137
v 0.48079639 -0.91192519 -1.05391836
v 0.4067344 -0.98947918 -1.04626143
v 0.3417404 -1.02963817 -0.96392142
v 0.06205339 -0.75776815 -1.02839338
v 0.0555564 -0.73126125 -0.92395043
v -0.18642959 -0.51343119 -1.08878541
v 0.33169239 -1.0027951 -0.86000442
v 0.37446141 -0.93185627 -0.79866445
v 0.1102654 -0.65951323 -0.85760045
v 0.57271438 -1.25188314 -0.80616343
v 0.60980838 -1.18327009 -0.7306844
v 0.6783024 -1.10362231 -0.72415638
v 0.44203043 -0.86048114 -0.80200135
v 0.50576442 -0.81962716 -0.86954736
v 0.17832741 -0.58702623 -0.86911737
v 0.74523937 -1.0496751 -0.79104936
v -0.2904936 -0.39829921 -1.15192234
v -0.23735159 -0.36436927 -1.19064545
v -0.3341026 -0.43980324 -1.23119938
v -0.27649861 -0.38497018 -1.28900444
v -0.25403457 -0.28179025 -1.29590439
v -0.26723659 -0.36267519 -1.44600141
v -0.24706259 -0.26501417 -1.40163242
v -0.29929959 -0.18214917 -1.38437342
v -0.13329859 -0.17345523 -1.50156438
v -0.19146359 -0.08256125 -1.47843742
v -0.2779746 -0.0349152 -1.52626943
v 0.0311104 0.10729873 -1.63508749
v -0.04504859 0.16291779 -1.69595742
v -0.0861416 0.14881479 -1.79431748
v 0.19940641 0.3447268 -1.76752138
v 0.18566039 0.36314278 -1.87203335
v 0.21811941 0.31523776 -1.96344351
v 0.50549638 0.59112978 -1.81409931
v 0.55312037 0.54856181 -1.89499235
v 0.61449742 0.46901977 -1.91068339
v 0.83328342 0.75598979 -1.83402633
v 0.91063642 0.67583775 -1.84732747
v 0.94055342 0.5909298 -1.7820065
v 1.08820641 0.85057979 -1.62960434
v 1.10980141 0.76646077 -1.57972741
v 1.06264936 0.70525777 -1.51418435
v 1.1425054 0.8986628 -1.33268845
v 1.08237636 0.81551879 -1.30886745
v 0.97782635 0.78870475 -1.31838035
v 0.91995644 0.95087981 -1.07415437
v 0.83477038 0.90828979 -1.11587142
v 0.77066338 0.93258076 -1.19822442
v 0.61191737 1.11486578 -0.94697642
v 0.5718314 1.12737083 -1.03945744
v 0.58185237 1.19356381 -1.11367738
v 0.3159784 1.28536474 -0.96415746
v 0.34096139 1.34489679 -1.04504239
v 0.38960242 1.43734979 -1.05550241
v 0.1032854 1.45625281 -1.05201137
v 0.14814239 1.55543577 -1.06283843
v 0.16591239 1.64173877 -0.99099242
v -0.06774859 1.63890183 -1.15147042
v -0.06821859 1.7274928 -1.0948944
v -0.11682859 1.76626873 -1.00704646
v -0.25099158 1.83447778 -1.32368135
v -0.33007159 1.87734079 -1.25944244
v -0.42111858 1.8405888 -1.21398043
v -0.4067046 1.93270087 -1.45728445
v -0.50964158 1.91295576 -1.46938335
v -0.5654006 1.83232474 -1.4911654
v -0.45257461 1.96669077 -1.63360548
v -0.49409359 1.90153384 -1.69848752
v -0.47750258 1.80667281 -1.72069549
v -0.26342859 1.9627397 -1.83963942
v -0.24843159 1.87169385 -1.85854435
v -0.20292058 1.80075478 -1.81675648
v 0.0865684 1.96893286 -2.0376923
v 0.12807039 1.90628075 -1.99601149
v 0.16813239 1.89925575 -1.92056846
v 0.47546339 2.02944088 -2.14240241
v 0.49311441 2.0236268 -2.0587635
v 0.48129439 2.06947684 -1.99491834
v 0.75812238 2.19341778 -2.04539752
v 0.72293841 2.21875095 -1.97330832
v 0.66935342 2.28353476 -1.9505434
v 0.95606446 2.4169228 -1.8604784
v 0.88376545 2.47683668 -1.84464836
v 0.84376239 2.54719066 -1.89717245
v 1.05535042 2.6972537 -1.6856544
v 1.01406943 2.77109289 -1.74474549
v 1.04669737 2.82240867 -1.82590651
v 1.07260143 2.92589879 -1.57517242
v 1.11011743 2.99829292 -1.64616131
v 1.21434044 3.02931594 -1.68653941
v 1.11418044 3.08581066 -1.52732634
v 1.20493936 3.10068893 -1.54961741
v 1.29432845 3.07957577 -1.50430238
v 1.19215941 3.21255779 -1.54087638
v 1.26747238 3.2146697 -1.48845744
v 1.28409946 3.22099161 -1.3978554
v 1.31064236 3.37995195 -1.46344435
v 1.25980842 3.43194198 -1.40620446
v 1.37600243 3.51914167 -1.54879641
v 1.32473945 3.59131002 -1.5081284
v 1.24357736 3.61954593 -1.51915538
v 1.21789538 1.97558569 -1.46210742
v 1.1520524 2.00740671 -1.29585838
v 1.01066434 1.94296574 -1.16465437
v 0.75357639 1.84868776 -1.16877436
v 0.80787038 1.77413082 -1.14221036
v 0.44847738 1.62454974 -1.13745439
v 0.50414538 1.54982078 -1.11517643
v 0.54854738 1.47961878 -1.1642574
v 0.55490839 1.45426178 -1.25900745
v 0.1885204 1.32588982 -1.07839536
v 0.23383939 1.2554928 -1.12597239
v 0.2426534 1.22921276 -1.21859145
v 0.20833039 1.26278781 -1.30419743
v 0.51910942 1.49188971 -1.34376239
v -0.05901759 1.04216778 -1.08192539
v -0.0384086 1.01751875 -1.17837536
v -0.0658786 1.05497276 -1.27297043
v -0.12849459 1.13704478 -1.30489337
v 0.1497294 1.33838081 -1.33137846
v -0.1973606 0.90432679 -1.18246841
v -0.19987259 0.96542078 -1.26734936
v -0.25073459 1.03868675 -1.29393541
v -0.32400858 1.09079682 -1.25358736
v -0.18466259 1.21011984 -1.25184345
v -0.25188759 0.88711577 -1.37628543
v -0.3134396 0.96722281 -1.41332638
v -0.4053716 0.99911975 -1.39168036
v -0.48016259 0.96696078 -1.33858835
v -0.3838866 1.09400177 -1.16039037
v -0.34969359 0.87671279 -1.53249537
v -0.45705258 0.89137375 -1.56471943
v -0.54938256 0.84603774 -1.53532135
v -0.56576156 0.76987075 -1.46333539
v -0.4985716 0.89148479 -1.28051245
v -0.34937459 0.74355876 -1.65366435
v -0.42126458 0.67491877 -1.63950943
v -0.45032858 0.6151818 -1.56532335
v -0.4203166 0.59681177 -1.47202241
v -0.49508959 0.71376478 -1.39590334
v -0.16292859 0.44425481 -1.70416545
v -0.2053596 0.38806778 -1.62079834
v -0.20230659 0.39685279 -1.51341044
v -0.1607576 0.46574676 -1.4442774
v -0.33492359 0.62075978 -1.41311335
v 0.1046964 0.18418079 -1.57483744
v 0.0957354 0.19227176 -1.46985137
v 0.13375139 0.25952881 -1.39539635
v 0.1969704 0.34709179 -1.39758336
v -0.0996176 0.55365979 -1.45178043
v 0.41105938 -0.04678916 -1.42915046
v 0.44286841 0.02087283 -1.35276734
v 0.50034338 0.1136378 -1.35004138
v 0.55407238 0.17216378 -1.42543137
v 0.24768438 0.40197277 -1.47608339
v 0.71845841 -0.15594422 -1.28556644
v 0.76407837 -0.06325817 -1.26923036
v 0.8309744 0.01208078 -1.35358035
v 0.85748642 -0.01095724 -1.45769941
v 0.56721341 0.16408777 -1.53240537
v 0.9300754 -0.0898472 -1.20980143
v 0.98932039 -0.07097816 -1.32059645
v 1.00749743 -0.09906017 -1.42250037
v 0.97748041 -0.17472922 -1.47981143
v 0.83392441 -0.08777117 -1.52273035
v 0.7855674 -0.1749072 -1.51700234
v 0.47730642 0.00333774 -1.60921943
v 0.53655338 0.0945388 -1.60767138
v 0.92702138 -0.25547826 -1.46953845
v 0.87776541 -0.30070924 -1.40059745
v 0.7379024 -0.22681725 -1.45025634
v 0.70941042 -0.21809315 -1.35872244
v 0.42462742 -0.05409026 -1.53472638
v 0.84443241 -0.28294515 -1.31164646
v 0.15396541 0.23726177 -1.6500175
v -0.0979646 0.5318638 -1.71150541
v 0.2156704 0.32211381 -1.65436434
v -0.05245159 0.5982778 -1.64020729
v 0.25506439 0.39088881 -1.58312737
v -0.05466559 0.60859978 -1.53304934
v -0.2717776 0.77992177 -1.59996545
v -0.22147959 0.75449878 -1.5070244
v -0.24817459 0.68631279 -1.4253484
v -0.29195559 0.8197838 -1.4609524
v -0.30903857 0.75700777 -1.39671945
v -0.38941758 0.71361982 -1.37093246
v -0.27174961 0.80693179 -1.30358636
v -0.35981261 0.77798479 -1.2554264
v -0.45122459 0.81358277 -1.24865436
v -0.25098061 0.89329183 -1.08192837
v -0.33213257 0.94943881 -1.02865243
v -0.39128759 1.03581476 -1.06605434
v -0.11108059 1.11529183 -1.03549337
v -0.16927459 1.19296276 -1.06422138
v -0.2003946 1.23187279 -1.15286135
v 0.13187739 1.40040981 -1.10270535
v 0.0958154 1.43649673 -1.18623137
v 0.10253539 1.41114974 -1.28186535
v 0.41223138 1.66243779 -1.21862042
v 0.41780537 1.6410458 -1.31420242
v 0.46234637 1.56976485 -1.36678135
v 0.7205404 1.87111675 -1.34069442
v 0.75266939 1.79722476 -1.40295445
v 0.71346843 1.88213777 -1.24733245
v 0.92454946 -0.34887826 -1.27330744
v 1.01324045 -0.35396325 -1.23036944
v 0.93951034 -0.3726722 -1.08744442
v 0.84857338 -0.35862016 -1.14639735
v 0.7833094 -0.26541125 -1.17028439
v 0.76064139 -0.47946226 -0.90364539
v 0.67971241 -0.45686626 -0.99150145
v 0.60811537 -0.36047816 -1.01812744
v 0.4334954 -0.57349026 -0.81801939
v 0.37321239 -0.48697316 -0.84049236
v 0.3476904 -0.39547026 -0.78677535
v 0.59683942 -0.24886322 -0.97007143
v 0.7779324 -0.17163717 -1.14200341
v 0.37141639 -0.35825324 -0.69316434
v 0.64489138 -0.19430625 -0.87420535
v 0.83731937 -0.1013112 -1.07258939
v 0.42568641 -0.39320516 -0.61794138
v 0.72462737 -0.22329425 -0.79374635
v 0.93611145 -0.11535525 -1.00532436
v 1.03545844 -0.10985422 -1.18288946
v 0.78850239 -0.31480622 -0.77038645
v 1.00264143 -0.20589625 -0.98435342
v 1.0913074 -0.19611525 -1.17457735
v 1.00260841 -0.31181323 -1.02109634
v 1.08112835 -0.29344415 -1.19461739
v 0.80384838 -0.41862916 -0.81419444
v 0.47999441 -0.47647416 -0.6000064
v 0.50604742 -0.56163823 -0.64765036
v 0.48825442 -0.60254824 -0.73653245
v 0.23209941 -0.70531225 -0.57698643
v 0.2422184 -0.72894716 -0.66679537
v 0.21136039 -0.69030022 -0.74927735
v 0.03771139 -0.86539423 -0.68575143
v 0.0225614 -0.82031726 -0.77646541
v -0.04373259 -0.73791921 -0.8167994
v 0.15691939 -0.60902619 -0.77478945
v -0.1381686 -0.6533482 -0.77575838
v 0.1107324 -0.53283822 -0.72544944
v -0.1867786 -0.6454432 -0.66763937
v 0.10086441 -0.51060819 -0.63160836
v -0.1525436 -0.71160924 -0.57718437
v 0.1328164 -0.5536952 -0.55098938
v -0.07569359 -0.79440426 -0.55286139
v 0.1872684 -0.63395524 -0.52968239
v -0.0015276 -0.85417211 -0.59593039
v -0.25740459 -0.99205911 -0.62419241
v -0.1542426 -1.03405511 -0.64972734
v -0.0849206 -1.03488528 -0.74626839
v -0.26335358 -1.33375728 -0.75945437
v -0.18510459 -1.31749117 -0.84793341
v -0.18328459 -1.24314415 -0.95355641
v -0.09590759 -0.98288118 -0.85870337
v -0.2750546 -1.16092932 -1.00819039
v -0.18836359 -0.91640126 -0.91071343
v -0.39937758 -1.14152109 -0.9740554
v -0.2946276 -0.87888014 -0.87009739
v -0.46992859 -1.18075215 -0.88053035
v -0.35093659 -0.88686525 -0.77121543
v -0.45393559 -1.2417823 -0.78469038
v -0.33403059 -0.93253719 -0.67338442
v -0.3717896 -1.30176031 -0.73619043
v -0.54448056 -1.44017231 -0.94896245
v -0.4759126 -1.53383529 -0.91657543
v -0.36123359 -1.56310832 -0.9166814
v -0.50398159 -1.57668316 -1.23819243
v -0.39013758 -1.60242617 -1.18409442
v -0.28602957 -1.54413521 -1.14600944
v -0.2551096 -1.50352013 -0.9555974
v -0.24396958 -1.43128025 -1.1494404
v -0.23907859 -1.37421119 -1.0303024
v -0.3078486 -1.31875526 -1.19858741
v -0.3282496 -1.27797424 -1.07483136
v -0.4428046 -1.29564821 -1.26109135
v -0.4466516 -1.2683922 -1.0647434
v -0.54274159 -1.36884224 -1.2931174
v -0.53284359 -1.33316028 -1.00796735
v -0.56368959 -1.48371732 -1.28194439
v -0.2803986 -1.39096415 -1.48274338
v -0.29261457 -1.5036813 -1.49570739
v -0.26873058 -1.59869015 -1.43743336
v 0.03334941 -1.49823319 -1.58068037
v 0.0460294 -1.59313213 -1.51913142
v 0.0624894 -1.62209713 -1.40812039
v -0.22181659 -1.6280421 -1.3362894
v 0.0739154 -1.56185209 -1.30013537
v -0.15969659 -1.57286417 -1.24790036
v 0.0725414 -1.43608725 -1.26777136
v -0.12904259 -1.44206512 -1.22143542
v 0.0586484 -1.32680213 -1.34163343
v -0.16860459 -1.32840621 -1.29440236
v 0.04075139 -1.31202828 -1.46814441
v -0.2357856 -1.31634724 -1.40272045
v 0.0300064 -1.38560426 -1.56163537
v 0.37328341 -1.28639829 -1.47115135
v 0.38482737 -1.35699427 -1.56459844
v 0.39480942 -1.46614325 -1.5820254
v 0.6684944 -1.30115926 -1.4982084
v 0.71095138 -1.40653622 -1.50932335
v 0.70015442 -1.50397622 -1.45506238
v 0.40151637 -1.5581752 -1.52239441
v 0.64467841 -1.53892815 -1.35940444
v 0.3973934 -1.58804214 -1.41403138
v 0.58274638 -1.48667323 -1.27586138
v 0.38099539 -1.53159415 -1.30892837
v 0.54550743 -1.37985932 -1.2535094
v 0.3645474 -1.4102813 -1.27775335
v 0.55150741 -1.27985513 -1.31250643
v 0.36236241 -1.30421626 -1.34965837
v 0.59967738 -1.24818718 -1.41892135
v 0.87158137 -1.21117413 -1.29282236
v 0.99542844 -1.17987024 -1.06483936
v 1.01711845 -1.2822293 -1.05938434
v 0.91403639 -1.31488025 -1.2972964
v 0.96831643 -1.37252223 -1.05165839
v 0.89567935 -1.40995514 -1.25052738
v 0.86867338 -1.41645109 -1.03546035
v 0.81962442 -1.45327913 -1.18653535
v 1.53479945 -3.00911521 1.49881064
v 1.5836184 -1.7192651 1.37563455
v 1.74033844 -1.61486113 0.72774839
v 1.68384945 -2.69520902 0.86580258
v 0.79454839 3.51023197 -1.67141532
v 0.71002739 2.87815284 -1.58649241
v 1.22731053 -2.34538126 -0.48651945
v 1.30677938 -1.25648009 -0.64084649
v 0.76378941 -2.34922742 -0.83320546
v 1.39443635 -0.22483837 -0.75889337
v 1.49099957 0.90895175 -0.88612437
v 1.62000644 1.94759583 -1.01749157
v 0.61375838 1.86571776 -1.46364438
v 0.51581239 0.86622077 -1.34300136
v 1.74850451 2.98848104 -1.14897334
v 1.85201442 3.66960859 -1.24471139
v 1.62131345 -0.49756825 1.26650953
v 1.8108294 -0.43805515 0.61529457
v 0.47615039 -0.23902225 -1.19100534
v 0.43438643 -1.2507652 -1.05301141
v -0.85018062 -2.74064207 -0.67021143
v -0.86633861 -1.54913914 -0.77877938
v -1.1954056 -1.71425926 -0.34986639
v -1.14057755 -2.98791551 -0.25513142
v -0.89222759 -0.44954323 -0.87164044
v -1.25252056 -0.56145525 -0.42439538
v -0.9232006 0.74550479 -0.97339642
v -1.00035166 1.82932972 -1.05261945
v -1.46742856 1.82987177 -0.54300838
v -1.31435763 0.66220676 -0.50717037
v -1.08678257 2.89212775 -1.12840437
v -1.17291665 3.5937848 -1.17920434
v -1.80006563 3.62838172 -0.58987838
v -1.6332966 2.97776269 -0.5675534
v 0.41375643 -2.3252511 -0.91272842
v -1.39021563 -1.81792628 0.22610859
v -1.27856862 -3.1841793 0.29710859
v -1.47378957 -0.64913916 0.1672606
v -1.76543855 1.77589583 0.1042726
v -1.55254161 0.53145581 0.10640159
v -2.24716186 3.70909118 0.18168701
v -1.99103462 2.93503665 0.12703259
v 1.71416938 0.81260681 1.18136668
v 1.83103442 1.91540074 1.08435058
v 2.02158021 1.95446527 0.41422793
v 1.89330446 0.84992682 0.49908959
v -0.01963159 -2.4346404 -0.90858542
v 0.0057844 -1.34447324 -1.02341735
v -0.3944776 -2.54790639 -0.88613843
v 0.0517894 -0.3098582 -1.14417135
v 0.10117439 0.81978178 -1.27664041
v 0.0622114 1.83567071 -1.39541244
v 0.0173854 2.85352778 -1.51569342
v -0.01645859 3.49046993 -1.59486842
v 1.53941845 -2.47444343 0.1436246
v 1.61564946 -1.38289129 -0.01049938
v 1.98730289 2.8583281 1.0100286
v 2.19143867 3.71854877 0.91457659
v 2.44492483 3.69001483 0.14985844
v 2.21362495 2.90745234 0.27493721
v 1.70248436 -0.29619216 -0.1258654
v 1.80082845 0.90190982 -0.24561142
v 1.95860636 1.95898878 -0.36940938
v 2.15524816 2.93934583 -0.50135111
v 2.32423496 3.67989635 -0.5943486
v -1.42737257 -1.89706218 0.86335158
v -1.29030764 -3.38034915 0.92442059
v -1.49853956 -0.69424617 0.80803155
v -1.82218158 1.70035243 0.8123179
v -1.60770905 0.46619534 0.7697547
v -2.36952304 3.68531894 1.04368567
v -2.09566211 2.8154416 0.89744883
v 1.45992934 2.86477184 1.58811354
v 1.57145309 3.61365842 1.54949688
v -1.26808059 -2.00396919 1.44727361
v -1.13116157 -3.60278129 1.53591561
v -1.32005059 -0.70911717 1.37645959
v -1.62432861 1.73500478 1.4211446
v -1.41641855 0.53162777 1.34715962
v -2.14006757 3.5998826 1.76485741
v -1.91616165 2.81283664 1.56311261
v 1.21419334 0.79455679 1.6581856
v 1.32306444 1.89213478 1.6243366
v -0.88441759 -2.15036726 1.88537156
v -0.77675557 -3.93962955 2.01603364
v 1.12188434 -1.94529926 1.82557356
v 1.14215636 -0.57641315 1.72570955
v -0.90883559 -0.71421515 1.79269564
v -1.14040458 1.78404283 1.83564865
v -0.97169357 0.62942075 1.7611376
v -1.48673486 3.47010994 2.17533469
v -1.30580163 2.78333377 2.01349449
v 1.14056444 -3.51991415 1.97122764
v -0.28100758 -2.23984527 2.11678552
v -0.21301159 -4.15803146 2.29834651
v -0.28489759 -0.70550024 2.00263452
v -0.30871096 1.87628316 2.00423812
v -0.3000786 0.70488578 1.95788657
v -0.44878596 3.46474266 2.26799178
v -0.3899016 2.79460978 2.12759971
v 0.44345742 -2.16630029 2.08907961
v 0.48509538 -3.99164724 2.25847959
v 0.45030641 -0.65949118 1.9768846
v 0.53778356 1.88675928 1.92531836
v 0.48204642 0.74798381 1.9183166
v 0.61091697 3.52208614 2.02091646
v 0.56780439 2.80521774 1.9833796
v 1.27939438 3.99647665 -1.6556003
v 0.8454644 3.8883109 -1.72216343
v 1.91316473 4.07630682 -1.30255639
v -1.22161555 3.97374296 -1.21410834
v -1.90433359 4.04267263 -0.60066241
v -0.50013959 3.9434719 -1.5698384
v -2.40413761 4.11725997 0.18773059
v -0.03749159 3.86653757 -1.64222335
v 2.2753992 4.08171367 0.87953257
v 2.5429964 4.09303283 0.09528461
v 2.41731834 4.09521675 -0.67545938
v -2.53229904 4.15803146 1.09994077
v 1.64952445 4.07558155 1.5533576
v -2.30952692 4.14827585 1.8695718
v -1.6405797 4.12146043 2.36109733
v -0.51447659 4.0467329 2.40610265
v 0.63406741 4.04168367 2.08804464
v 1.07050335 3.56161069 -1.62861943
v 1.21889638 3.42384767 -1.58076643
v 1.12079739 3.46681356 -1.60517644
v 1.3837974 3.61097765 -1.51725745
v 1.33475434 3.47852373 -1.52116239
v 1.25458741 3.76130294 -1.62487638
v 1.11472237 3.70582866 -1.6421535
v 1.34636545 3.71699571 -1.56059241
v 1.14923834 2.7480359 -1.49480342
v 1.30938935 2.93485379 -1.42414546
v 1.26183736 2.80300784 -1.43156337
v 0.99678742 2.90277981 -1.54114437
v 1.04402136 2.7965188 -1.5190624
v 1.18306744 3.08596372 -1.53657937
v 1.04863441 3.03669691 -1.55222141
v 1.27341234 3.04165673 -1.4689064
v 1.05268645 1.72672677 -1.37592744
v 1.20963835 1.90910482 -1.29903137
v 1.16116237 1.78029084 -1.30947339
v 0.90012443 1.88471281 -1.42079842
v 0.94645845 1.7765398 -1.39927744
v 1.08491134 2.06511879 -1.41524839
v 1.17514145 2.01956987 -1.34347438
v 0.95240235 2.01636672 -1.42982137
v 0.96086442 0.71479278 -1.25539338
v 1.10801637 0.89056682 -1.17524635
v 1.06081044 0.7685678 -1.18892443
v 0.80229538 0.87740576 -1.30230236
v 0.84918338 0.76444876 -1.27906143
v 0.98785042 1.05320179 -1.29786539
v 1.0772264 1.00558972 -1.22056043
v 0.8564924 1.00630378 -1.31109345
v 0.88999736 -0.39845323 -1.10520339
v 1.03818535 -0.22801125 -1.02536737
v 0.98927843 -0.34686327 -1.04023838
v 0.7319864 -0.23312926 -1.15298736
v 0.77774441 -0.34770023 -1.12955641
v 0.91187834 -0.06000721 -1.15070939
v 1.00684034 -0.10730421 -1.07089245
v 0.7852934 -0.10835015 -1.16294539
v 0.82325339 -1.41467726 -0.96755337
v 0.97135937 -1.24880111 -0.88987636
v 0.92127037 -1.36433017 -0.9048134
v 0.66489642 -1.2478193 -1.01773238
v 0.71007341 -1.36360919 -0.9929434
v 0.84519141 -1.07643616 -1.01449334
v 0.94145941 -1.12551319 -0.9344604
v 0.71900439 -1.12400519 -1.02718639
v -0.3935126 -1.57368218 -0.99614036
v -0.22413359 -1.37857115 -1.01876235
v -0.2637726 -1.51474726 -1.00324845
v -0.39070758 -1.23360812 -1.03395736
v -0.28067559 -1.27571833 -1.02979135
v -0.54088962 -1.4490472 -0.94154834
v -0.51795363 -1.29645121 -0.96789741
v -0.48450359 -1.53659522 -0.95795142
v -0.2069126 -0.33593022 -1.13584542
v -0.3747476 -0.1830362 -1.14918136
v -0.2616536 -0.22781527 -1.14662444
v -0.52786064 -0.38131415 -1.05463743
v -0.49629759 -0.23920726 -1.08466339
v -0.37969559 -0.52313625 -1.11175036
v -0.2509076 -0.46823525 -1.12047135
v -0.4750556 -0.47972321 -1.07011139
v -0.36790257 0.96604579 -1.27387142
v -0.51368463 0.78258478 -1.18054235
v -0.47886559 0.91195577 -1.21268236
v -0.19071859 0.80468779 -1.2645514
v -0.24629959 0.92134177 -1.27392637
v -0.36375159 0.62581777 -1.23866736
v -0.23800259 0.67769479 -1.24887335
v -0.4638606 0.67437779 -1.19402945
v -0.40850758 2.00271773 -1.37391746
v -0.55353158 1.83123683 -1.28022241
v -0.51489859 1.95261383 -1.31428539
v -0.23029059 1.83373069 -1.37136137
v -0.28389161 1.95557069 -1.37931335
v -0.39434459 1.66241478 -1.34094739
v -0.50334155 1.7123388 -1.29178535
v -0.27709257 1.71442484 -1.35568141
v -0.45551359 3.03020381 -1.47515535
v -0.59998059 2.86442089 -1.38034236
v -0.55990958 2.98214077 -1.41585445
v -0.2775726 2.85777568 -1.47875142
v -0.33018457 2.98169183 -1.4857124
v -0.43962359 2.69010281 -1.44091141
v -0.5509116 2.74165487 -1.39051234
v -0.32468459 2.74096083 -1.46072542
v -0.48843759 3.70815897 -1.54551243
v -0.63371062 3.54409456 -1.45306146
v -0.59277159 3.66050672 -1.48808646
v -0.31151759 3.52083873 -1.55226635
v -0.35834759 3.65420961 -1.55978941
v -0.47179558 3.36819362 -1.51027834
v -0.58459162 3.4202528 -1.46142339
v -0.36263757 3.41374588 -1.53236639
v 1.64913344 -3.00756931 1.55796361
v 1.81137538 -2.7023344 0.86581563
v 1.69598245 -1.71707832 1.44009661
v 1.73254537 -0.49833917 1.33262157
v 1.93784129 -0.44574415 0.62173259
v 1.86771845 -1.57823264 0.74190425
v -0.92089361 -2.75212812 -0.77641642
v -1.25365865 -2.99768829 -0.3113864
v -0.94521957 -1.55977714 -0.87879037
v -0.96584558 -0.46043026 -0.97493243
v -1.3611046 -0.5712502 -0.48794639
v -1.30576455 -1.7240051 -0.4106394
v -0.99627161 0.73348677 -1.07645845
v -1.07267165 1.81589376 -1.15552341
v -1.57102656 1.81341481 -0.61264538
v -1.4208306 0.64919179 -0.57351738
v -1.15826964 2.87659788 -1.23114943
v -1.24267756 3.57579469 -1.28233945
v -1.89754664 3.60126781 -0.66485345
v -1.73397958 2.95630073 -0.64007341
v -1.40161562 -3.1956973 0.27659359
v -1.59652054 -0.65879523 0.1406306
v -1.51314759 -1.82779824 0.20181059
v -1.88489663 1.75454783 0.06971058
v -1.67416656 0.5164318 0.0763956
v -2.34406709 3.5877633 0.1171731
v -2.10801172 2.90680265 0.08871659
v 1.82545042 0.80715775 1.24650454
v 1.94221842 1.90432381 1.14773654
v 2.14640522 1.92569828 0.3950012
v 2.01945829 0.83839678 0.50791156
v 1.65655446 -2.48819112 0.10048759
v 1.31658637 -2.3642621 -0.57529944
v 2.10459041 2.88743448 1.05733466
v 2.26975059 3.55373096 0.97847259
v 2.543087 3.58101606 0.18330863
v 2.33920097 2.91687083 0.27023413
v 1.73379039 -1.39634025 -0.05153441
v 1.82166945 -0.30940318 -0.16444742
v 1.48771238 -0.24234128 -0.84433841
v 1.39919745 -1.27456629 -0.72701239
v 1.92069828 0.88521981 -0.28185337
v 2.07808446 1.93553686 -0.4057604
v 1.70945537 1.9248408 -1.10592937
v 1.5839324 0.88902175 -0.97158944
v 2.27274036 2.90971994 -0.51238626
v 2.41455888 3.61093378 -0.62541455
v 1.93611967 3.64210557 -1.33572042
v 1.83301341 2.96348571 -1.24090743
v -1.41473364 -3.39443826 0.9341166
v -1.62396359 -0.70248925 0.82296264
v -1.55259156 -1.90535318 0.87606859
v -1.9476397 1.72691535 0.83203566
v -1.7340939 0.49675494 0.79270166
v -2.48282051 3.58044862 1.04538059
v -2.2172122 2.84620142 0.93323224
v 1.53389334 2.85551595 1.69114458
v 1.62667942 3.50101947 1.6608057
v -1.24728655 -3.61634922 1.5848056
v -1.43014657 -0.71278917 1.44216156
v -1.38109457 -2.00700807 1.50710356
v -1.7288146 1.70656871 1.49246358
v -1.52369964 0.51745981 1.41710364
v -2.25002813 3.54864549 1.80317008
v -2.01864862 2.77230882 1.63326954
v 1.28217542 0.79402279 1.76600265
v 1.39405036 1.88680076 1.73014855
v -0.86195361 -3.94619321 2.11266374
v 1.18932235 -1.93668711 1.93332755
v 1.20889937 -0.57192122 1.8340106
v -0.97671157 -0.71174919 1.90133464
v -0.95827859 -2.14577198 1.99038362
v -1.19418358 1.76278781 1.95064258
v -1.03347957 0.62196576 1.87340855
v -1.52853047 3.49927043 2.29614734
v -1.3526256 2.75003194 2.12887263
v 1.21302437 -3.51252555 2.07653355
v -0.23973159 -4.15455818 2.42414951
v -0.30302059 -0.69936418 2.12775754
v -0.3022646 -2.23014307 2.2416706
v -0.34585374 1.82160496 2.14784717
v -0.31335258 0.70370376 2.08350372
v -0.4477604 3.45926427 2.38966131
v -0.38797658 2.77430295 2.25188565
v 0.51075339 -3.98345041 2.38171863
v 0.4740504 -0.65289723 2.10047054
v 0.46699839 -2.15567398 2.21247053
v 0.56765562 1.84430789 2.04926586
v 0.50738543 0.74888777 2.04163169
v 0.64568197 3.4665966 2.16149091
v 0.60335642 2.79433584 2.1034646
v -1.28799855 3.95622491 -1.31934738
v -2.00051856 4.01453685 -0.6770184
v -2.51784753 4.07781601 0.14832259
v 2.3837223 4.06351184 0.94401258
v 2.6674714 4.06440258 0.10585159
v 2.53121757 4.06279277 -0.7242254
v 1.98942935 4.05046081 -1.40022444
v -2.6674714 4.12952184 1.1121993
v 1.72581446 4.06454658 1.65356564
v -2.42030668 4.12558555 1.94110083
v -1.69001722 4.09444904 2.47413253
v -0.50367659 4.02022981 2.52907848
v 0.67818838 4.02706384 2.2045207
v 0.73116737 2.86011266 -1.70786428
v 1.14223337 3.44821262 -1.72640729
v 1.0928564 3.542562 -1.74961328
v 0.81690138 3.4911828 -1.79241037
v 1.44755041 3.58729267 -1.62155044
v 1.40022742 3.45639371 -1.62474036
v 0.86829042 3.86949586 -1.8431065
v 1.13754737 3.68701362 -1.76309633
v 1.29828834 3.740839 -1.74159836
v 1.32309544 3.97601175 -1.77232337
v 1.4089384 3.69462585 -1.66589331
v 1.37656545 2.91363096 -1.52680635
v 1.33085835 2.78340673 -1.53333342
v 0.63343441 1.84925174 -1.5854814
v 1.0639534 2.78017282 -1.64087343
v 1.01747643 2.88526392 -1.66266846
v 1.06976938 3.01833868 -1.6735413
v 1.22798442 3.06549572 -1.65338635
v 1.26381337 3.40337896 -1.69757342
v 1.33944642 3.02036285 -1.57229542
v 1.28063345 1.88898479 -1.39932239
v 1.23403441 1.7605158 -1.40849041
v 0.5342344 0.84953975 -1.46500539
v 0.96505641 1.76032078 -1.5213164
v 0.91939139 1.86834383 -1.54271245
v 1.24490344 2.00066185 -1.44486141
v 1.19569039 2.72974681 -1.61201942
v 1.13136339 2.04682874 -1.53246438
v 0.9720534 2.00017881 -1.55169737
v 1.18266737 0.87224876 -1.27319836
v 1.13514041 0.75084376 -1.28722643
v 0.4945234 -0.25649225 -1.31290435
v 0.86745941 0.74691677 -1.4009664
v 0.82035237 0.86065483 -1.42435145
v 1.15087938 0.98652279 -1.31912636
v 1.10103237 1.70821178 -1.49313139
v 1.03619635 1.03468775 -1.41506946
v 0.87481242 0.99024677 -1.43319439
v 1.11207044 -0.2457472 -1.12400043
v 1.06280136 -0.36473023 -1.13911843
v 0.45345437 -1.26789414 -1.17485439
v 0.79644638 -0.36516916 -1.25140535
v 0.75051242 -0.25061726 -1.27486145
v 1.08097839 -0.12518024 -1.16931045
v 1.0101124 0.69592475 -1.37246239
v 0.96112644 -0.07887518 -1.26777839
v 0.8036744 -0.12593019 -1.28482735
v 0.99471044 -1.38346111 -1.00351941
v 0.8747164 -1.4341892 -1.0826174
v 0.81525242 -2.36873817 -0.94826841
v 0.43585741 -2.34261941 -1.03404736
v 0.73217338 -1.38097727 -1.11426246
v 0.68421638 -1.26481115 -1.13955438
v 1.01482439 -1.14350616 -1.03343534
v 1.04452145 -1.2674452 -0.98888337
v 0.93889844 -0.4172852 -1.22222244
v 0.89409136 -1.09526932 -1.1315124
v 0.73777639 -1.14150822 -1.14902043
v -0.02140959 -2.4480443 -1.03235936
v -0.26555061 -1.52815115 -1.12702238
v -0.42043158 -1.58726131 -1.11937236
v -0.42139759 -2.56148529 -1.00937044
v 0.0049484 -1.35819518 -1.14716434
v -0.22496959 -1.39229309 -1.14251041
v 0.0498044 -0.32400023 -1.26786136
v -0.28227561 -1.28965032 -1.15350937
v -0.59361261 -1.45998227 -1.05381143
v -0.5713436 -1.30754816 -1.07982945
v -0.5352236 -1.54835927 -1.07106244
v 0.09707739 0.80559378 -1.40027344
v -0.2652086 -0.24178516 -1.27029538
v -0.20954559 -0.34997522 -1.25953137
v -0.58192259 -0.39238321 -1.16624736
v -0.55088359 -0.25047922 -1.19599938
v -0.2529636 -0.48196315 -1.24420344
v -0.4084056 -0.53623521 -1.23520135
v -0.41941759 -1.24670732 -1.15740835
v -0.5286206 -0.49096918 -1.18194341
v -0.56884259 0.77084982 -1.29154741
v -0.53442359 0.89946079 -1.32340538
v 0.0535954 1.82159185 -1.51884841
v -0.25371861 0.9079858 -1.39750945
v -0.19547259 0.79056775 -1.38816535
v -0.24194359 0.66390079 -1.37255239
v -0.39409959 0.61260879 -1.36165344
v -0.4050956 -0.19624519 -1.27216744
v -0.51864159 0.66295576 -1.30525338
v -0.60974061 1.81864786 -1.39060437
v -0.57143557 1.93959081 -1.42445135
v 0.0032034 2.83887481 -1.63854646
v -0.2968716 1.94181478 -1.50239145
v -0.24062059 1.81982874 -1.4946624
v -0.55907464 1.69965171 -1.40239834
v -0.40051358 0.95284879 -1.39597535
v -0.42695459 1.64921784 -1.46305143
v -0.28563058 1.70160079 -1.47923839
v -0.65730458 2.85038876 -1.48997736
v -0.61643958 2.96749687 -1.5258224
v -0.03489359 3.47514963 -1.71705842
v -0.34767159 2.96693992 -1.60810637
v -0.29341161 2.84319973 -1.60139036
v -0.60756659 2.72837495 -1.50058734
v -0.4440056 1.98912882 -1.49466741
v -0.4751206 2.67651462 -1.56166136
v -0.33872461 2.72772789 -1.58373534
v -0.64860957 3.64535474 -1.59834444
v -0.52731758 3.69360876 -1.66428542
v -0.53902059 3.9289217 -1.6886115
v -0.6904726 3.52854967 -1.56278443
v -0.05804059 3.85136699 -1.76408529
v -0.3788976 3.63903856 -1.68165135
v -0.3309876 3.50572061 -1.67431235
v -0.64075458 3.40566778 -1.57158637
v -0.4927566 3.01556778 -1.59477841
v -0.50903964 3.35355758 -1.62990236
v -0.3806886 3.39947795 -1.65473246
v -0.99718958 -2.80843019 -0.66979444
v -0.91676259 -2.79733705 -0.57504242
v -1.05647063 -0.48583924 -0.86327636
v -1.02788567 -1.5974313 -0.77145242
v -0.94178658 -1.5869981 -0.68043839
v -0.97483557 -0.4752022 -0.76909637
v -1.18693459 1.81532573 -1.03105235
v -1.09361457 0.71415978 -0.96114444
v -1.01288461 0.72640579 -0.86650037
v -1.10744261 1.8294537 -0.93577635
v -1.3928256 3.58163499 -1.14076244
v -1.29026854 2.89487171 -1.09562742
v -1.21208763 2.91176176 -0.99981236
v -1.31670963 3.60171699 -1.04408335
v -1.45136463 3.96959495 -1.17207443
v -1.37814855 3.98954677 -1.07345736
v 1.40763139 -2.3974514 -0.39432042
v 1.31089448 -2.37994527 -0.31776344
v 1.57714843 -0.26030123 -0.66226041
v 1.48880338 -1.30717814 -0.54611539
v 1.38949644 -1.2903341 -0.47203648
v 1.47693336 -0.24394726 -0.58936542
v 1.80817651 1.92770481 -0.91842055
v 1.67412042 0.88800376 -0.78687453
v 1.57397353 0.90706574 -0.71459138
v 1.71068537 1.95064675 -0.84393143
v 2.07010793 3.63062 -1.15028619
v 1.95077431 2.94908666 -1.05457341
v 1.85743236 2.97532177 -0.97633743
v 1.97839748 3.67180252 -1.07110774
v 2.13452339 4.05376291 -1.21918845
v 2.04817962 4.08137083 -1.13461637
v -0.85942757 -2.76808738 -0.63452243
v -0.95152157 -2.78401613 -0.75152242
v -0.88162159 -2.78698539 -0.60279941
v -0.97695362 -2.80278444 -0.71598136
v -1.04012358 -0.47869122 -0.91204643
v -1.01389157 -1.5860902 -0.81810045
v -1.00991559 -0.47022223 -0.94926536
v -0.98633557 -1.57353818 -0.85387945
v -0.90414357 -1.57324731 -0.70319736
v -0.93454259 -0.4654212 -0.79269444
v -0.87899357 -1.5606271 -0.73597741
v -0.90700662 -0.45686817 -0.82687544
v -1.16417658 1.81330084 -1.08662545
v -1.07537257 0.71892082 -1.01185643
v -1.12608861 1.81349086 -1.12811541
v -1.04292464 0.72536277 -1.05029439
v -0.96981561 0.73433375 -0.8907994
v -1.05735063 1.83149671 -0.96153235
v -0.9399206 0.74069976 -0.92643141
v -1.02165365 1.83145475 -1.00048041
v -1.3602066 3.57588291 -1.20628345
v -1.26320064 2.88580584 -1.15689241
v -1.31015753 3.57393598 -1.25347542
v -1.21920156 2.87971377 -1.20206642
v -1.15420663 2.90805769 -1.02741038
v -1.25210654 3.60274267 -1.07159841
v -1.11243867 2.90151262 -1.07027435
v -1.20417559 3.60009861 -1.11663842
v -1.41088855 3.98131561 -1.23814034
v -1.35643363 3.97685861 -1.28723144
v -1.31442463 4.00525856 -1.10984838
v -1.26224756 3.99999094 -1.15673244
v 1.3584814 -2.39586401 -0.52454841
v 1.38882935 -2.4069271 -0.46422243
v 1.23678541 -2.37049102 -0.4239434
v 1.26464641 -2.38201236 -0.36769139
v 1.53986835 -0.25148224 -0.79493236
v 1.45134937 -1.28865325 -0.67833137
v 1.56968045 -0.25746917 -0.73423945
v 1.48121738 -1.29952418 -0.61803239
v 1.3135184 -1.26475322 -0.57376438
v 1.40112137 -0.22827923 -0.6919254
v 1.34109044 -1.27603709 -0.51749438
v 1.42862045 -0.23464918 -0.63541638
v 1.76528334 1.92132282 -1.05542635
v 1.63663041 0.88498878 -0.92108941
v 1.79819035 1.9222778 -0.99292337
v 1.66669237 0.88464975 -0.8595184
v 1.49764537 0.91175478 -0.81874537
v 1.62901639 1.95277285 -0.94862639
v 1.52530336 0.91112577 -0.76156735
v 1.65924239 1.95378971 -0.89077341
v 2.00352859 3.63682937 -1.29014873
v 1.89478433 2.95342683 -1.1934334
v 2.04811477 3.63150787 -1.22835099
v 1.93403852 2.94862675 -1.13132238
v 1.76395344 2.98898172 -1.07789337
v 1.87307941 3.67630386 -1.17159342
v 1.80026245 2.98459482 -1.02034843
v 1.91522634 3.67740011 -1.11372244
v 2.05651426 4.06712389 -1.35516643
v 2.10487937 4.06822395 -1.29482138
v 1.94659745 4.10046196 -1.23795044
v 1.9916023 4.10214996 -1.18197035
g Group47614
f 1 27 28 29
f 1 30 31 27
f 1 29 32 30
f 2 33 34 35
f 2 36 37 33
f 2 35 38 36
f 3 39 40 41
f 3 42 43 39
f 4 44 31 45
f 4 45 46 47
f 4 47 48 5
f 5 49 34 50
f 5 48 51 49
f 6 7 52 53
f 6 54 55 7
f 6 53 56 54
f 57 58 59 60
f 7 55 61 62
f 7 62 63 64
f 8 65 66 67
f 8 67 68 69
f 8 69 70 65
f 9 71 72 73
f 9 67 66 71
f 9 73 68 67
f 10 60 59 74
f 11 75 76 77
f 79 80 75 11
f 11 77 78 79
f 81 82 83 84
f 12 85 86 83
f 12 87 88 85
f 12 83 82 87
f 13 89 90 91
f 13 92 93 89
f 13 91 94 92
f 14 95 96 97
f 14 91 90 95
f 14 97 94 91
f 15 98 99 17
f 101 102 98 15
f 15 17 100 101
f 16 103 104 105
f 107 108 103 16
f 16 105 106 107
f 17 109 110 111
f 17 99 112 109
f 17 113 114 100
f 18 115 116 117
f 18 117 118 119
f 18 119 77 115
f 19 120 105 121
f 19 117 116 120
f 19 121 118 117
f 122 123 21 124
f 125 124 21 126
f 20 123 127 128
f 20 128 129 126
f 20 126 21 123
f 22 130 131 132
f 134 135 130 22
f 22 132 133 134
f 23 136 137 138
f 23 25 139 136
f 23 138 140 25
f 24 136 139 26
f 24 141 137 136
f 24 26 142 141
f 25 140 143 139
f 26 139 143 142
f 149 150 133 132
f 153 152 154 155
f 153 155 156 148
f 156 155 157 158
f 156 158 159 160
f 156 160 144 148
f 160 159 161 162
f 160 162 145 144
f 161 159 163 164
f 161 164 165 166
f 161 166 167 162
f 166 165 168 169
f 166 169 154 167
f 169 168 170 157
f 169 157 155 154
f 170 168 171 172
f 170 172 173 174
f 170 174 158 157
f 174 173 175 163
f 174 163 159 158
f 175 173 176 177
f 175 177 178 179
f 175 179 164 163
f 179 178 180 181
f 179 181 165 164
f 181 180 182 171
f 181 171 168 165
f 182 180 183 184
f 182 184 185 186
f 182 186 172 171
f 186 185 187 176
f 186 176 173 172
f 187 185 188 114
f 187 114 113 189
f 187 189 177 176
f 189 113 190 191
f 189 191 178 177
f 191 190 192 183
f 191 183 180 178
f 192 190 111 193
f 192 193 194 195
f 192 195 184 183
f 195 194 196 188
f 195 188 185 184
f 196 194 85 88
f 196 88 101 100
f 196 100 114 188
f 194 193 86 85
f 193 111 110 86
f 190 113 17 111
f 151 147 197 198
f 151 198 199 152
f 198 197 200 201
f 198 201 202 199
f 202 203 204 199
f 202 201 205 206
f 202 206 207 203
f 207 208 209 203
f 207 206 210 211
f 207 211 212 208
f 212 213 214 208
f 212 211 215 216
f 212 216 217 213
f 217 218 219 213
f 217 216 220 221
f 217 221 222 218
f 222 223 224 218
f 222 221 225 226
f 222 226 227 223
f 227 228 229 223
f 227 226 230 231
f 227 231 232 228
f 232 233 234 228
f 232 231 235 236
f 232 236 237 233
f 237 238 239 233
f 237 236 240 241
f 237 241 242 238
f 242 243 244 238
f 242 241 143 140
f 242 140 138 243
f 244 245 230 246
f 244 246 239 238
f 244 243 247 245
f 247 248 235 245
f 247 243 138 137
f 247 137 141 248
f 248 240 236 235
f 248 141 142 240
f 246 230 226 225
f 246 225 249 239
f 249 225 221 220
f 249 220 250 234
f 249 234 233 239
f 250 220 216 215
f 250 215 251 229
f 250 229 228 234
f 251 215 211 210
f 251 210 252 224
f 251 224 223 229
f 252 210 206 205
f 252 205 253 219
f 252 219 218 224
f 253 205 201 200
f 253 200 254 214
f 253 214 213 219
f 254 200 197 255
f 254 255 256 209
f 254 209 208 214
f 255 197 147 146
f 255 146 145 256
f 245 235 231 230
f 241 240 142 143
f 209 256 204 203
f 150 257 258 133
f 150 149 259 260
f 150 260 261 257
f 261 262 263 257
f 261 260 264 265
f 261 265 266 262
f 266 267 268 262
f 266 265 269 270
f 266 270 271 267
f 271 272 273 267
f 271 270 274 275
f 271 275 276 272
f 276 277 278 272
f 276 275 279 280
f 276 280 281 277
f 281 282 283 277
f 281 280 284 285
f 281 285 286 282
f 286 287 288 282
f 286 285 289 290
f 286 290 291 287
f 291 292 293 287
f 291 290 294 295
f 291 295 296 292
f 296 297 298 292
f 296 295 299 300
f 296 300 301 297
f 301 302 303 297
f 301 300 304 76
f 301 76 75 302
f 304 300 299 305
f 304 305 116 115
f 304 115 77 76
f 305 299 306 307
f 305 307 120 116
f 307 306 308 106
f 307 106 105 120
f 308 306 294 309
f 308 309 310 311
f 308 311 107 106
f 311 310 312 313
f 311 313 80 107
f 313 312 303 302
f 313 302 75 80
f 312 310 314 315
f 312 315 316 303
f 316 315 317 318
f 316 318 319 298
f 316 298 297 303
f 319 318 320 321
f 319 321 322 293
f 319 293 292 298
f 322 321 323 324
f 322 324 325 288
f 322 288 287 293
f 325 324 326 327
f 325 327 328 283
f 325 283 282 288
f 328 327 329 330
f 328 330 331 278
f 328 278 277 283
f 331 330 332 333
f 331 333 334 273
f 331 273 272 278
f 334 333 131 335
f 334 335 336 268
f 334 268 267 273
f 336 335 337 338
f 336 338 339 263
f 336 263 262 268
f 339 338 340 341
f 339 341 342 258
f 339 258 257 263
f 342 341 343 344
f 342 344 345 134
f 342 134 133 258
f 345 344 346 347
f 345 347 348 349
f 345 349 135 134
f 349 348 350 351
f 349 351 352 135
f 352 351 353 340
f 352 340 338 337
f 352 337 130 135
f 353 351 350 354
f 353 354 355 343
f 353 343 341 340
f 355 354 356 357
f 355 357 358 346
f 355 346 344 343
f 358 357 359 360
f 358 360 361 362
f 358 362 347 346
f 362 361 363 364
f 362 364 348 347
f 364 363 365 366
f 364 366 350 348
f 366 365 367 356
f 366 356 354 350
f 367 365 368 369
f 367 369 370 359
f 367 359 357 356
f 370 369 371 372
f 370 372 373 374
f 370 374 360 359
f 374 373 375 376
f 374 376 361 360
f 376 375 377 378
f 376 378 363 361
f 378 377 379 368
f 378 368 365 363
f 379 377 380 381
f 379 381 382 371
f 379 371 369 368
f 382 381 383 384
f 382 384 385 386
f 382 386 372 371
f 386 385 387 388
f 386 388 373 372
f 388 387 389 390
f 388 390 375 373
f 390 389 391 380
f 390 380 377 375
f 391 389 392 393
f 391 393 394 383
f 391 383 381 380
f 394 393 395 396
f 394 396 397 398
f 394 398 384 383
f 398 397 399 400
f 398 400 385 384
f 400 399 401 402
f 400 402 387 385
f 402 401 403 392
f 402 392 389 387
f 403 401 404 405
f 403 405 406 395
f 403 395 393 392
f 406 405 407 408
f 406 408 409 410
f 406 410 396 395
f 410 409 411 412
f 410 412 397 396
f 412 411 413 414
f 412 414 399 397
f 414 413 415 404
f 414 404 401 399
f 415 413 416 417
f 415 417 418 407
f 415 407 405 404
f 418 417 419 129
f 418 129 128 420
f 418 420 408 407
f 420 128 127 421
f 420 421 409 408
f 421 127 422 423
f 421 423 411 409
f 423 422 424 416
f 423 416 413 411
f 424 422 122 124
f 424 124 125 419
f 424 419 417 416
f 422 127 123 122
f 419 125 126 129
f 337 335 131 130
f 333 332 132 131
f 332 259 149 132
f 332 330 329 259
f 329 264 260 259
f 329 327 326 264
f 326 269 265 264
f 326 324 323 269
f 323 274 270 269
f 323 321 320 274
f 320 279 275 274
f 320 318 317 279
f 317 284 280 279
f 317 315 314 284
f 314 289 285 284
f 314 310 309 289
f 309 294 290 289
f 306 299 295 294
f 121 105 104 425
f 121 425 426 118
f 426 425 427 428
f 426 428 429 430
f 426 430 119 118
f 430 429 431 78
f 430 78 77 119
f 431 429 432 433
f 431 433 434 435
f 431 435 79 78
f 435 434 436 437
f 435 437 108 79
f 437 436 438 439
f 437 439 103 108
f 439 438 440 441
f 439 441 104 103
f 441 440 442 427
f 441 427 425 104
f 442 440 443 444
f 442 444 445 446
f 442 446 428 427
f 446 445 447 432
f 446 432 429 428
f 447 445 448 449
f 447 449 450 451
f 447 451 433 432
f 451 450 452 453
f 451 453 434 433
f 453 452 454 455
f 453 455 436 434
f 455 454 456 457
f 455 457 438 436
f 457 456 458 443
f 457 443 440 438
f 450 449 97 96
f 450 96 52 452
f 449 448 94 97
f 448 445 444 459
f 448 459 92 94
f 459 444 443 458
f 459 458 93 92
f 112 460 461 109
f 112 99 462 463
f 112 463 464 460
f 464 465 466 460
f 464 463 467 468
f 464 468 469 465
f 469 470 471 465
f 469 468 472 473
f 469 473 474 470
f 474 475 476 470
f 474 473 477 478
f 474 478 479 475
f 479 480 481 475
f 479 478 482 483
f 479 483 484 480
f 484 485 486 480
f 484 483 487 488
f 484 488 489 485
f 489 490 491 485
f 489 488 492 493
f 489 493 494 490
f 494 495 496 490
f 494 493 497 498
f 494 498 499 495
f 499 500 501 495
f 499 498 502 503
f 499 503 504 500
f 504 505 506 500
f 504 503 507 508
f 504 508 509 505
f 509 510 511 505
f 509 508 512 513
f 509 513 514 510
f 514 515 516 510
f 514 513 517 518
f 514 518 519 515
f 519 520 521 515
f 519 518 522 523
f 519 523 524 520
f 524 525 526 520
f 524 523 527 528
f 524 528 529 525
f 529 530 531 525
f 529 528 532 533
f 529 533 534 530
f 534 535 536 530
f 534 533 537 538
f 534 538 539 535
f 539 540 541 535
f 539 538 542 543
f 539 543 544 540
f 544 545 546 540
f 544 543 547 548
f 544 548 549 545
f 549 550 551 545
f 549 548 552 553
f 549 553 554 550
f 554 555 556 550
f 554 553 557 558
f 554 558 559 555
f 559 560 561 555
f 559 558 562 563
f 559 563 564 560
f 564 565 566 560
f 564 563 567 568
f 564 568 569 565
f 569 570 571 565
f 569 568 572 573
f 569 573 574 570
f 574 575 576 570
f 574 573 577 578
f 574 578 579 575
f 579 580 581 575
f 579 578 582 583
f 579 583 584 580
f 584 585 586 580
f 584 583 41 40
f 584 40 587 585
f 587 588 589 585
f 587 40 39 590
f 587 590 591 588
f 591 592 593 588
f 591 590 594 595
f 591 595 596 592
f 596 597 598 592
f 596 595 599 600
f 596 600 601 597
f 601 602 603 597
f 601 600 604 605
f 601 605 606 602
f 606 607 608 602
f 606 605 4 5
f 606 5 50 607
f 608 609 42 610
f 608 610 603 602
f 608 607 611 609
f 611 612 613 609
f 611 607 50 614
f 611 614 615 612
f 615 616 617 612
f 615 614 33 37
f 615 37 28 616
f 617 618 599 619
f 617 619 613 612
f 617 616 620 618
f 620 44 604 618
f 620 616 28 27
f 620 27 31 44
f 619 599 595 594
f 619 594 43 613
f 618 604 600 599
f 614 50 34 33
f 613 43 42 609
f 605 604 44 4
f 603 610 621 622
f 603 622 598 597
f 622 621 623 624
f 622 624 625 598
f 625 624 626 627
f 625 627 628 593
f 625 593 592 598
f 628 627 629 630
f 628 630 631 589
f 628 589 588 593
f 631 630 632 633
f 631 633 634 586
f 631 586 585 589
f 634 633 635 636
f 634 636 637 581
f 634 581 580 586
f 637 636 638 639
f 637 639 640 576
f 637 576 575 581
f 640 639 641 642
f 640 642 643 571
f 640 571 570 576
f 643 642 644 645
f 643 645 646 566
f 643 566 565 571
f 646 645 647 648
f 646 648 649 561
f 646 561 560 566
f 649 648 650 651
f 649 651 652 556
f 649 556 555 561
f 652 651 653 654
f 652 654 655 551
f 652 551 550 556
f 655 654 656 657
f 655 657 658 546
f 655 546 545 551
f 658 657 659 660
f 658 660 661 541
f 658 541 540 546
f 661 660 662 663
f 661 663 664 536
f 661 536 535 541
f 664 663 665 666
f 664 666 667 531
f 664 531 530 536
f 667 666 668 669
f 667 669 670 526
f 667 526 525 531
f 670 669 671 672
f 670 672 673 521
f 670 521 520 526
f 673 672 674 675
f 673 675 676 516
f 673 516 515 521
f 676 675 677 678
f 676 678 679 511
f 676 511 510 516
f 679 678 680 681
f 679 681 682 506
f 679 506 505 511
f 682 681 683 684
f 682 684 685 501
f 682 501 500 506
f 685 684 686 687
f 685 687 688 496
f 685 496 495 501
f 688 687 689 690
f 688 690 691 491
f 688 491 490 496
f 691 690 692 693
f 691 693 694 486
f 691 486 485 491
f 694 693 695 696
f 694 696 697 481
f 694 481 480 486
f 697 696 698 699
f 697 699 700 476
f 697 476 475 481
f 700 699 102 701
f 700 701 702 471
f 700 471 470 476
f 702 701 703 704
f 702 704 705 466
f 702 466 465 471
f 705 704 82 81
f 705 81 84 461
f 705 461 460 466
f 704 703 87 82
f 703 101 88 87
f 703 701 102 101
f 699 698 98 102
f 698 462 99 98
f 698 696 695 462
f 695 467 463 462
f 695 693 692 467
f 692 472 468 467
f 692 690 689 472
f 689 477 473 472
f 689 687 686 477
f 686 482 478 477
f 686 684 683 482
f 683 487 483 482
f 683 681 680 487
f 680 492 488 487
f 680 678 677 492
f 677 497 493 492
f 677 675 674 497
f 674 502 498 497
f 674 672 671 502
f 671 507 503 502
f 671 669 668 507
f 668 512 508 507
f 668 666 665 512
f 665 517 513 512
f 665 663 662 517
f 662 522 518 517
f 662 660 659 522
f 659 527 523 522
f 659 657 656 527
f 656 532 528 527
f 656 654 653 532
f 653 537 533 532
f 653 651 650 537
f 650 542 538 537
f 650 648 647 542
f 647 547 543 542
f 647 645 644 547
f 644 552 548 547
f 644 642 641 552
f 641 557 553 552
f 641 639 638 557
f 638 562 558 557
f 638 636 635 562
f 635 567 563 562
f 635 633 632 567
f 632 572 568 567
f 632 630 629 572
f 629 577 573 572
f 629 627 626 577
f 626 582 578 577
f 626 624 623 582
f 594 590 39 43
f 583 582 623 41
f 461 84 110 109
f 110 84 83 86
f 108 107 80 79
f 96 95 53 52
f 95 90 56 53
f 90 89 706 56
f 706 89 93 74
f 706 74 59 707
f 706 707 54 56
f 707 59 58 708
f 707 708 55 54
f 708 58 709 710
f 708 710 61 55
f 710 709 711 712
f 710 712 713 61
f 713 714 62 61
f 713 712 715 716
f 713 716 717 714
f 717 718 719 714
f 717 716 720 721
f 717 721 722 718
f 722 723 724 718
f 722 721 725 726
f 722 726 727 723
f 727 728 729 723
f 727 726 730 731
f 727 731 732 728
f 732 733 734 728
f 732 731 735 736
f 732 736 737 733
f 737 738 739 733
f 737 736 740 741
f 737 741 742 738
f 742 743 744 738
f 742 741 745 746
f 742 746 747 743
f 747 748 749 743
f 747 746 750 751
f 747 751 752 748
f 752 753 754 748
f 752 751 755 756
f 752 756 757 753
f 757 758 759 753
f 757 756 760 761
f 757 761 762 758
f 762 763 764 758
f 762 761 765 766
f 762 766 767 763
f 767 768 769 763
f 767 766 70 69
f 767 69 68 768
f 769 770 771 772
f 769 772 764 763
f 769 768 773 770
f 773 774 775 770
f 773 768 68 73
f 773 73 72 774
f 775 776 755 777
f 775 777 771 770
f 775 774 778 776
f 777 755 751 750
f 777 750 779 771
f 779 750 746 745
f 779 745 780 781
f 779 781 772 771
f 781 780 782 783
f 781 783 764 772
f 783 782 784 759
f 783 759 758 764
f 784 782 785 786
f 784 786 787 754
f 784 754 753 759
f 787 786 788 789
f 787 789 790 749
f 787 749 748 754
f 790 789 791 792
f 790 792 793 744
f 790 744 743 749
f 793 792 794 795
f 793 795 796 739
f 793 739 738 744
f 796 795 797 798
f 796 798 799 734
f 796 734 733 739
f 799 798 800 801
f 799 801 802 729
f 799 729 728 734
f 802 801 803 804
f 802 804 805 724
f 802 724 723 729
f 805 804 806 807
f 805 807 63 719
f 805 719 718 724
f 807 806 60 10
f 807 10 64 63
f 806 808 57 60
f 806 804 803 808
f 808 709 58 57
f 808 803 711 709
f 803 801 800 711
f 800 715 712 711
f 800 798 797 715
f 797 720 716 715
f 797 795 794 720
f 794 725 721 720
f 794 792 791 725
f 791 730 726 725
f 791 789 788 730
f 788 735 731 730
f 788 786 785 735
f 785 740 736 735
f 785 782 780 740
f 780 745 741 740
f 774 72 809 778
f 809 72 71 810
f 809 810 811 812
f 809 812 813 778
f 812 811 814 815
f 812 815 816 813
f 816 815 817 818
f 816 818 819 820
f 816 820 821 813
f 820 819 822 823
f 820 823 824 821
f 823 822 825 826
f 823 826 827 824
f 827 828 765 824
f 827 826 829 830
f 827 830 831 828
f 831 65 70 828
f 831 830 832 833
f 831 833 66 65
f 833 832 811 810
f 833 810 71 66
f 832 830 829 834
f 832 834 814 811
f 834 829 835 836
f 834 836 837 814
f 837 836 838 839
f 837 839 840 817
f 837 817 815 814
f 840 839 841 842
f 840 842 843 844
f 840 844 818 817
f 844 843 845 846
f 844 846 819 818
f 846 845 847 848
f 846 848 822 819
f 848 847 849 850
f 848 850 825 822
f 850 849 851 852
f 850 852 835 825
f 852 851 853 838
f 852 838 836 835
f 853 851 854 855
f 853 855 856 841
f 853 841 839 838
f 856 855 857 858
f 856 858 859 860
f 856 860 842 841
f 860 859 861 862
f 860 862 843 842
f 862 861 863 864
f 862 864 845 843
f 864 863 865 866
f 864 866 847 845
f 866 865 867 868
f 866 868 849 847
f 868 867 869 854
f 868 854 851 849
f 869 867 870 871
f 869 871 872 857
f 869 857 855 854
f 872 871 873 874
f 872 874 875 876
f 872 876 858 857
f 876 875 877 878
f 876 878 859 858
f 878 877 879 880
f 878 880 861 859
f 880 879 881 882
f 880 882 863 861
f 882 881 883 884
f 882 884 865 863
f 884 883 885 870
f 884 870 867 865
f 885 883 886 887
f 885 887 888 873
f 885 873 871 870
f 888 887 889 890
f 888 890 891 892
f 888 892 874 873
f 892 891 893 894
f 892 894 875 874
f 894 893 895 896
f 894 896 877 875
f 896 895 897 898
f 896 898 879 877
f 898 897 899 900
f 898 900 881 879
f 900 899 901 886
f 900 886 883 881
f 901 899 902 903
f 901 903 904 889
f 901 889 887 886
f 904 903 905 906
f 904 906 907 908
f 904 908 890 889
f 908 907 909 910
f 908 910 891 890
f 910 909 911 912
f 910 912 893 891
f 912 911 913 914
f 912 914 895 893
f 914 913 915 916
f 914 916 897 895
f 916 915 917 902
f 916 902 899 897
f 917 915 47 46
f 917 46 918 905
f 917 905 903 902
f 918 46 45 919
f 918 919 920 921
f 918 921 906 905
f 921 920 922 923
f 921 923 907 906
f 923 922 924 925
f 923 925 909 907
f 925 924 49 51
f 925 51 911 909
f 924 922 38 35
f 924 35 34 49
f 922 920 32 38
f 920 919 30 32
f 919 45 31 30
f 915 913 48 47
f 913 911 51 48
f 835 829 826 825
f 828 70 766 765
f 756 755 776 760
f 719 63 62 714
f 456 454 10 74
f 456 74 93 458
f 10 454 452 52
f 64 10 52 7
f 42 3 41 623
f 621 610 42 623
f 38 32 29 36
f 37 36 29 28
f 167 154 152 199
f 167 199 204 162
f 204 256 145 162
f 821 824 765 761
f 776 778 813 760
f 813 821 761 760
f 151 153 148 147
f 147 148 144 146
f 152 153 151
f 146 144 145
g Group23891
f 1432 932 1178 1430
f 926 929 1147 1146
f 1433 1432 1430 1431
g Group23888
f 1151 1150 1149 1148
g Group48393
f 928 927 942 943
g Group23891
f 1383 1433 1431 1382
g Group48393
f 1433 1383 1386 1440
g Group23888
f 1157 1156 1368 1369
g Group48393
f 948 1370 1371 951
g Group23888
f 1161 1160 1372 1373
g Group48393
f 955 1374 1375 954
g Group23888
f 1165 1164 1376 1377
g Group48393
f 959 1378 1379 958
f 1432 1433 1440 1438
g Group23891
f 949 962 1166 1153
g Group48393
f 932 1432 1438 933
g Group23888
f 1168 1167 1156 1157
g Group48393
f 961 948 951 963
g Group23888
f 1170 1169 1160 1161
g Group48393
f 965 955 954 964
g Group23888
f 1172 1171 1164 1165
g Group48393
f 967 959 958 966
g Group23888
f 1176 1175 1174 1173
g Group48393
f 971 968 969 970
g Group23891
f 980 1383 1382 1177
g Group23888
f 1182 1181 1180 1179
g Group48393
f 985 982 983 984
g Group23888
f 1437 1385 1382 1431
g Group23891
f 962 992 1195 1166
g Group23888
f 1435 1437 1431 1430
f 1197 1196 1167 1168
g Group48393
f 991 961 963 993
g Group23888
f 1199 1198 1169 1170
g Group48393
f 995 965 964 994
g Group23888
f 1201 1200 1171 1172
g Group48393
f 997 967 966 996
g Group23888
f 1179 1180 1203 1202
g Group48393
f 982 998 999 983
g Group23888
f 1186 1435 1430 1178
g Group23891
f 992 1001 1204 1195
g Group48393
f 1457 1395 1397 1461
g Group23888
f 1206 1205 1196 1197
g Group48393
f 1000 991 993 1002
g Group23888
f 1208 1207 1198 1199
g Group48393
f 1004 995 994 1003
g Group23888
f 1210 1209 1200 1201
g Group48393
f 1006 997 996 1005
g Group23888
f 1173 1174 1212 1211
g Group48393
f 968 1007 1008 969
g Group23888
f 1191 1192 1181 1182
g Group48393
f 989 985 984 990
f 1455 1457 1461 1460
g Group23891
f 1001 1010 1213 1204
g Group48393
f 941 1455 1460 1035
g Group23888
f 1148 1149 1215 1214
g Group48393
f 927 1011 1012 942
g Group23888
f 1217 1216 1205 1206
g Group48393
f 1009 1000 1002 1013
g Group23888
f 1219 1218 1207 1208
g Group48393
f 1015 1004 1003 1014
g Group23888
f 1187 1188 1175 1176
g Group48393
f 987 971 970 988
g Group23888
f 1221 1220 1209 1210
g Group48393
f 1017 1006 1005 1016
g Group23891
f 1461 1397 1396 1459
f 1018 926 1146 1222
f 1460 1461 1459 1458
g Group23888
f 1183 1184 1150 1151
g Group48393
f 981 928 943 986
g Group23891
f 1035 1460 1458 1243
f 1010 1020 1223 1213
g Group23888
f 1459 1396 1392 1452
f 1225 1224 1216 1217
g Group48393
f 1019 1009 1013 1021
g Group23888
f 1227 1226 1218 1219
g Group48393
f 1023 1015 1014 1022
g Group23888
f 1229 1228 1220 1221
g Group48393
f 1025 1017 1016 1024
g Group23888
f 1458 1459 1452 1450
g Group23891
f 929 980 1177 1147
g Group23888
f 1243 1458 1450 1193
g Group48393
f 1441 1387 1390 1448
g Group23891
f 1020 1027 1230 1223
g Group48393
f 1439 1441 1448 1446
g Group23888
f 1232 1231 1224 1225
g Group48393
f 1026 1019 1021 1028
g Group23888
f 1234 1233 1226 1227
g Group48393
f 1030 1023 1022 1029
g Group23888
f 1236 1235 1228 1229
g Group48393
f 1032 1025 1024 1031
g Group23888
f 1202 1203 1235 1236
g Group48393
f 998 1032 1031 999
f 935 1439 1446 936
g Group23891
f 1027 1018 1222 1230
g Group23888
f 1445 1389 1384 1436
f 1214 1215 1231 1232
g Group48393
f 1011 1026 1028 1012
g Group23888
f 1211 1212 1233 1234
g Group48393
f 1007 1030 1029 1008
g Group23888
f 1160 1165 1377 1372
g Group48393
f 954 1375 1378 959
g Group23888
f 1169 1172 1165 1160
g Group48393
f 964 954 959 967
g Group23888
f 1175 1182 1179 1174
g Group48393
f 970 969 982 985
g Group23888
f 1198 1201 1172 1169
g Group48393
f 994 964 967 997
g Group23888
f 1207 1210 1201 1198
g Group48393
f 1003 994 997 1006
g Group23888
f 1174 1179 1202 1212
g Group48393
f 969 1008 998 982
g Group23888
f 1218 1221 1210 1207
g Group48393
f 1014 1003 1006 1017
g Group23888
f 1188 1191 1182 1175
g Group48393
f 988 970 985 989
g Group23888
f 1226 1229 1221 1218
g Group48393
f 1022 1014 1017 1025
g Group23888
f 1233 1236 1229 1226
g Group48393
f 1029 1022 1025 1032
g Group23888
f 1212 1202 1236 1233
g Group48393
f 1008 1029 1032 998
g Group23888
f 1150 1176 1173 1149
g Group48393
f 943 942 968 971
g Group23888
f 1156 1161 1373 1368
g Group48393
f 951 1371 1374 955
g Group23888
f 1167 1170 1161 1156
g Group48393
f 963 951 955 965
g Group23888
f 1196 1199 1170 1167
g Group48393
f 993 963 965 995
g Group23888
f 1205 1208 1199 1196
g Group48393
f 1002 993 995 1004
g Group23888
f 1149 1173 1211 1215
g Group48393
f 942 1012 1007 968
g Group23888
f 1216 1219 1208 1205
g Group48393
f 1013 1002 1004 1015
g Group23888
f 1184 1187 1176 1150
g Group48393
f 986 943 971 987
g Group23888
f 1224 1227 1219 1216
g Group48393
f 1021 1013 1015 1023
g Group23888
f 1231 1234 1227 1224
g Group48393
f 1028 1021 1023 1030
g Group23888
f 1215 1211 1234 1231
g Group48393
f 1012 1028 1030 1007
g Group23888
f 1164 1238 1380 1376
g Group23891
f 1037 1381 1380 1238
g Group48393
f 958 1379 1381 1037
g Group23888
f 1171 1239 1238 1164
g Group23891
f 1039 1037 1238 1239
g Group48393
f 966 958 1037 1039
g Group23888
f 1181 1241 1240 1180
g Group23891
f 1042 1041 1240 1241
g Group48393
f 984 983 1041 1042
g Group23888
f 1200 1244 1239 1171
g Group23891
f 1044 1039 1239 1244
g Group48393
f 996 966 1039 1044
g Group23888
f 1180 1240 1245 1203
g Group23891
f 1041 1045 1245 1240
g Group48393
f 983 999 1045 1041
g Group23888
f 1209 1246 1244 1200
g Group23891
f 1046 1044 1244 1246
g Group48393
f 1005 996 1044 1046
g Group23888
f 1192 1242 1241 1181
g Group23891
f 1043 1042 1241 1242
g Group48393
f 990 984 1042 1043
g Group23888
f 1220 1247 1246 1209
g Group23891
f 1047 1046 1246 1247
g Group48393
f 1016 1005 1046 1047
g Group23888
f 1228 1248 1247 1220
g Group23891
f 1048 1047 1247 1248
g Group48393
f 1024 1016 1047 1048
g Group23888
f 1235 1249 1248 1228
g Group23891
f 1049 1048 1248 1249
g Group48393
f 1031 1024 1048 1049
g Group23888
f 1203 1245 1249 1235
g Group23891
f 1045 1049 1249 1245
g Group48393
f 999 1031 1049 1045
g Group23888
f 1253 1252 1251 1250
g Group23891
f 931 930 1253 1250
f 1050 1052 1251 1252
g Group48393
f 930 931 1052 1050
g Group23888
f 1255 1254 1193 1194
g Group23891
f 1054 1053 1254 1255
g Group48393
f 1054 940 941 1053
g Group23888
f 1259 1258 1257 1256
g Group23891
f 1034 1033 1259 1256
f 1055 1056 1257 1258
g Group48393
f 1033 1034 1056 1055
g Group23888
f 1257 1252 1253 1256
g Group23891
f 930 1034 1256 1253
f 1056 1050 1252 1257
g Group48393
f 1056 1034 930 1050
g Group23888
f 1193 1254 1260 1243
g Group23891
f 1053 1057 1260 1254
g Group48393
f 941 1035 1057 1053
g Group23888
f 1260 1258 1259 1243
g Group23891
f 1033 1035 1243 1259
f 1057 1055 1258 1260
g Group48393
f 1057 1035 1033 1055
g Group23888
f 1262 1261 1194 1189
g Group23891
f 1060 1059 1261 1262
g Group48393
f 1060 937 940 1059
g Group23888
f 1250 1265 1264 1263
g Group23891
f 938 931 1250 1263
f 1061 1062 1264 1265
g Group48393
f 931 938 1062 1061
g Group23888
f 1268 1267 1266 1251
g Group23891
f 1052 1051 1268 1251
f 1063 1064 1266 1267
g Group48393
f 1051 1052 1064 1063
g Group23888
f 1266 1265 1250 1251
g Group23891
f 1064 1061 1265 1266
g Group48393
f 1064 1052 931 1061
g Group23888
f 1194 1261 1269 1255
g Group23891
f 1059 1065 1269 1261
g Group48393
f 940 1054 1065 1059
g Group23888
f 1269 1267 1268 1255
g Group23891
f 1051 1054 1255 1268
f 1065 1063 1267 1269
g Group48393
f 1065 1054 1051 1063
g Group23888
f 1271 1270 1189 1190
g Group23891
f 1068 1067 1270 1271
g Group48393
f 1068 936 937 1067
g Group23888
f 1263 1274 1273 1272
g Group23891
f 939 938 1263 1272
f 1069 1070 1273 1274
g Group48393
f 938 939 1070 1069
g Group23888
f 1189 1270 1275 1262
g Group23891
f 1067 1072 1275 1270
g Group48393
f 937 1060 1072 1067
g Group23888
f 1275 1277 1276 1262
g Group23891
f 1058 1060 1262 1276
f 1072 1071 1277 1275
g Group48393
f 1072 1060 1058 1071
g Group23888
f 1276 1277 1278 1264
g Group23891
f 1062 1058 1276 1264
f 1071 1073 1278 1277
g Group48393
f 1058 1062 1073 1071
g Group23888
f 1278 1274 1263 1264
g Group23891
f 1073 1069 1274 1278
g Group48393
f 1073 1062 938 1069
g Group23888
f 1280 1279 1190 1185
g Group23891
f 1076 1075 1279 1280
g Group48393
f 1076 935 936 1075
g Group23888
f 1272 1283 1282 1281
g Group23891
f 944 939 1272 1281
f 1077 1078 1282 1283
g Group48393
f 939 944 1078 1077
g Group23888
f 1190 1279 1284 1271
g Group23891
f 1075 1080 1284 1279
g Group48393
f 936 1068 1080 1075
g Group23888
f 1284 1286 1285 1271
g Group23891
f 1066 1068 1271 1285
f 1080 1079 1286 1284
g Group48393
f 1080 1068 1066 1079
g Group23888
f 1285 1286 1287 1273
g Group23891
f 1070 1066 1285 1273
f 1079 1081 1287 1286
g Group48393
f 1066 1070 1081 1079
g Group23888
f 1287 1283 1272 1273
g Group23891
f 1081 1077 1283 1287
g Group48393
f 1081 1070 939 1077
g Group23888
f 1289 1288 1185 1186
g Group23891
f 1084 1083 1288 1289
g Group48393
f 1084 933 935 1083
g Group23888
f 1281 1292 1291 1290
g Group23891
f 945 944 1281 1290
f 1085 1086 1291 1292
g Group48393
f 944 945 1086 1085
g Group23888
f 1185 1288 1293 1280
g Group23891
f 1083 1088 1293 1288
g Group48393
f 935 1076 1088 1083
g Group23888
f 1293 1295 1294 1280
g Group23891
f 1074 1076 1280 1294
f 1088 1087 1295 1293
g Group48393
f 1088 1076 1074 1087
g Group23888
f 1294 1295 1296 1282
g Group23891
f 1078 1074 1294 1282
f 1087 1089 1296 1295
g Group48393
f 1074 1078 1089 1087
g Group23888
f 1296 1292 1281 1282
g Group23891
f 1089 1085 1292 1296
g Group48393
f 1089 1078 944 1085
g Group23888
f 1299 1298 1297 1178
g Group23891
f 932 934 1299 1178
f 1090 1092 1297 1298
g Group48393
f 934 932 1092 1090
g Group23888
f 1443 1445 1436 1434
f 1190 1443 1434 1185
g Group48393
f 1449 1391 1394 1456
g Group23888
f 1290 1302 1301 1300
g Group23891
f 960 945 1290 1300
f 1093 1094 1301 1302
g Group48393
f 945 960 1094 1093
g Group23888
f 1301 1298 1299 1300
g Group23891
f 934 960 1300 1299
f 1094 1090 1298 1301
g Group48393
f 1094 960 934 1090
g Group23888
f 1186 1304 1303 1289
g Group23891
f 1091 1096 1303 1304
g Group48393
f 933 1084 1096 1091
g Group23888
f 1303 1306 1305 1289
g Group23891
f 1082 1084 1289 1305
f 1096 1095 1306 1303
g Group48393
f 1096 1084 1082 1095
g Group23888
f 1305 1306 1307 1291
g Group23891
f 1086 1082 1305 1291
f 1095 1097 1307 1306
g Group48393
f 1082 1086 1097 1095
g Group23888
f 1307 1302 1290 1291
g Group23891
f 1097 1093 1302 1307
g Group48393
f 1097 1086 945 1093
g Group23888
f 1311 1310 1309 1308
g Group23891
f 972 974 1311 1308
f 1098 1100 1309 1310
g Group48393
f 974 972 1100 1098
g Group23888
f 1309 1313 1312 1308
g Group23891
f 973 972 1308 1312
f 1100 1099 1313 1309
g Group48393
f 1100 972 973 1099
g Group23888
f 1312 1313 1315 1314
g Group23891
f 975 973 1312 1314
f 1099 1102 1315 1313
g Group48393
f 973 975 1102 1099
g Group23888
f 1317 1316 1154 1155
g Group23891
f 1104 1103 1316 1317
g Group48393
f 1104 950 947 1103
g Group23888
f 1154 1316 1318 1152
g Group23891
f 1103 1105 1318 1316
g Group48393
f 947 946 1105 1103
g Group23888
f 1318 1310 1311 1152
g Group23891
f 974 946 1152 1311
f 1105 1098 1310 1318
g Group48393
f 1105 946 974 1098
g Group23888
f 1314 1321 1320 1319
g Group23891
f 976 975 1314 1319
f 1106 1108 1320 1321
g Group48393
f 975 976 1108 1106
g Group23888
f 1323 1322 1155 1158
g Group23891
f 1110 1109 1322 1323
g Group48393
f 1110 952 950 1109
g Group23888
f 1326 1325 1324 1315
g Group23891
f 1102 1101 1326 1315
f 1111 1112 1324 1325
g Group48393
f 1101 1102 1112 1111
g Group23888
f 1324 1321 1314 1315
g Group23891
f 1112 1106 1321 1324
g Group48393
f 1112 1102 975 1106
g Group23888
f 1155 1322 1327 1317
g Group23891
f 1109 1113 1327 1322
g Group48393
f 950 1104 1113 1109
g Group23888
f 1327 1325 1326 1317
g Group23891
f 1101 1104 1317 1326
f 1113 1111 1325 1327
g Group48393
f 1113 1104 1101 1111
g Group23888
f 1329 1328 1158 1159
g Group23891
f 1116 1115 1328 1329
g Group48393
f 1116 953 952 1115
g Group23888
f 1319 1332 1331 1330
g Group23891
f 977 976 1319 1330
f 1117 1118 1331 1332
g Group48393
f 976 977 1118 1117
g Group23888
f 1335 1334 1333 1320
g Group23891
f 1108 1107 1335 1320
f 1119 1120 1333 1334
g Group48393
f 1107 1108 1120 1119
g Group23888
f 1333 1332 1319 1320
g Group23891
f 1120 1117 1332 1333
g Group48393
f 1120 1108 976 1117
g Group23888
f 1158 1328 1336 1323
g Group23891
f 1115 1121 1336 1328
g Group48393
f 952 1110 1121 1115
g Group23888
f 1336 1334 1335 1323
g Group23891
f 1107 1110 1323 1335
f 1121 1119 1334 1336
g Group48393
f 1121 1110 1107 1119
g Group23888
f 1338 1337 1159 1162
g Group23891
f 1124 1123 1337 1338
g Group48393
f 1124 956 953 1123
g Group23888
f 1330 1341 1340 1339
g Group23891
f 978 977 1330 1339
f 1125 1126 1340 1341
g Group48393
f 977 978 1126 1125
g Group23888
f 1159 1337 1342 1329
g Group23891
f 1123 1128 1342 1337
g Group48393
f 953 1116 1128 1123
g Group23888
f 1342 1344 1343 1329
g Group23891
f 1114 1116 1329 1343
f 1128 1127 1344 1342
g Group48393
f 1128 1116 1114 1127
g Group23888
f 1343 1344 1345 1331
g Group23891
f 1118 1114 1343 1331
f 1127 1129 1345 1344
g Group48393
f 1114 1118 1129 1127
g Group23888
f 1345 1341 1330 1331
g Group23891
f 1129 1125 1341 1345
g Group48393
f 1129 1118 977 1125
g Group23888
f 1347 1346 1162 1163
g Group23891
f 1132 1131 1346 1347
g Group48393
f 1132 957 956 1131
g Group23888
f 1339 1350 1349 1348
g Group23891
f 979 978 1339 1348
f 1133 1134 1349 1350
g Group48393
f 978 979 1134 1133
g Group23888
f 1162 1346 1351 1338
g Group23891
f 1131 1136 1351 1346
g Group48393
f 956 1124 1136 1131
g Group23888
f 1351 1353 1352 1338
g Group23891
f 1122 1124 1338 1352
f 1136 1135 1353 1351
g Group48393
f 1136 1124 1122 1135
g Group23888
f 1352 1353 1354 1340
g Group23891
f 1126 1122 1352 1340
f 1135 1137 1354 1353
g Group48393
f 1122 1126 1137 1135
g Group23888
f 1354 1350 1339 1340
g Group23891
f 1137 1133 1350 1354
g Group48393
f 1137 1126 978 1133
g Group23888
f 1357 1356 1355 1237
g Group23891
f 1036 1038 1357 1237
f 1138 1140 1355 1356
g Group48393
f 1038 1036 1140 1138
g Group23888
f 1355 1358 1163 1237
g Group23891
f 1140 1139 1358 1355
g Group48393
f 1140 1036 957 1139
g Group23888
f 1348 1361 1360 1359
g Group23891
f 1040 979 1348 1359
f 1141 1142 1360 1361
g Group48393
f 979 1040 1142 1141
g Group23888
f 1360 1356 1357 1359
g Group23891
f 1038 1040 1359 1357
f 1142 1138 1356 1360
g Group48393
f 1142 1040 1038 1138
g Group23888
f 1163 1358 1362 1347
g Group23891
f 1139 1144 1362 1358
g Group48393
f 957 1132 1144 1139
g Group23888
f 1362 1364 1363 1347
g Group23891
f 1130 1132 1347 1363
f 1144 1143 1364 1362
g Group48393
f 1144 1132 1130 1143
g Group23888
f 1363 1364 1365 1349
g Group23891
f 1134 1130 1363 1349
f 1143 1145 1365 1364
g Group48393
f 1130 1134 1145 1143
g Group23888
f 1365 1361 1348 1349
g Group23891
f 1145 1141 1361 1365
g Group48393
f 1145 1134 979 1141
g Group23888
f 1147 1151 1148 1146
g Group48393
f 929 926 927 928
g Group23888
f 1153 1157 1369 1366
g Group48393
f 949 1367 1370 948
g Group23888
f 1166 1168 1157 1153
g Group48393
f 962 949 948 961
g Group23888
f 1195 1197 1168 1166
g Group48393
f 992 962 961 991
g Group23888
f 1204 1206 1197 1195
g Group48393
f 1001 992 991 1000
g Group23888
f 1213 1217 1206 1204
g Group48393
f 1010 1001 1000 1009
g Group23888
f 1146 1148 1214 1222
g Group48393
f 926 1018 1011 927
g Group23888
f 1223 1225 1217 1213
g Group48393
f 1020 1010 1009 1019
g Group23888
f 1177 1183 1151 1147
g Group48393
f 980 929 928 981
g Group23888
f 1230 1232 1225 1223
g Group48393
f 1027 1020 1019 1026
g Group23888
f 1222 1214 1232 1230
g Group48393
f 1018 1027 1026 1011
g Group23888
f 1297 1304 1186 1178
g Group23891
f 1092 1091 1304 1297
g Group48393
f 1092 932 933 1091
f 1447 1449 1456 1454
f 937 1447 1454 940
g Group23888
f 1453 1393 1388 1444
g Group23891
f 1367 949 1153 1366
g Group23888
f 1451 1453 1444 1442
f 1194 1451 1442 1189
f 1385 1384 1184 1183
g Group48393
f 1386 981 986 1387
g Group23888
f 1389 1388 1188 1187
g Group48393
f 1390 987 988 1391
g Group23888
f 1393 1392 1192 1191
g Group48393
f 1394 989 990 1395
g Group23888
f 1388 1393 1191 1188
g Group48393
f 1391 988 989 1394
g Group23888
f 1384 1389 1187 1184
g Group48393
f 1387 986 987 1390
g Group23888
f 1392 1396 1242 1192
g Group23891
f 1397 1043 1242 1396
g Group48393
f 1395 990 1043 1397
g Group23888
f 1382 1385 1183 1177
g Group48393
f 1383 980 981 1386
g Group23891
f 946 1398 1399 1152
f 1398 1400 1401 1399
f 1400 1367 1366 1401
g Group48393
f 1456 1394 1395 1457
f 1454 1456 1457 1455
f 940 1454 1455 941
g Group23888
f 1452 1392 1393 1453
f 1450 1452 1453 1451
f 1193 1450 1451 1194
f 1368 1402 1403 1369
f 1402 1404 1405 1403
f 1404 1155 1154 1405
g Group48393
f 1370 1406 1407 1371
f 1406 1408 1409 1407
f 1408 947 950 1409
g Group23888
f 1372 1410 1411 1373
f 1410 1412 1413 1411
f 1412 1159 1158 1413
g Group48393
f 1374 1414 1415 1375
f 1414 1416 1417 1415
f 1416 952 953 1417
g Group23888
f 1376 1418 1419 1377
f 1418 1420 1421 1419
f 1420 1163 1162 1421
g Group48393
f 1378 1422 1423 1379
f 1422 1424 1425 1423
f 1424 956 957 1425
g Group23888
f 1377 1419 1410 1372
f 1419 1421 1412 1410
f 1421 1162 1159 1412
g Group48393
f 1375 1415 1422 1378
f 1415 1417 1424 1422
f 1417 953 956 1424
g Group23888
f 1373 1411 1402 1368
f 1411 1413 1404 1402
f 1413 1158 1155 1404
g Group48393
f 1371 1407 1414 1374
f 1407 1409 1416 1414
f 1409 950 952 1416
g Group23888
f 1380 1426 1418 1376
f 1426 1427 1420 1418
f 1427 1237 1163 1420
g Group23891
f 1381 1428 1426 1380
f 1428 1429 1427 1426
f 1429 1036 1237 1427
g Group48393
f 1379 1423 1428 1381
f 1423 1425 1429 1428
f 1425 957 1036 1429
g Group23888
f 1369 1403 1401 1366
f 1403 1405 1399 1401
f 1405 1154 1152 1399
g Group48393
f 1367 1400 1406 1370
f 1400 1398 1408 1406
f 1398 946 947 1408
f 1448 1390 1391 1449
f 1446 1448 1449 1447
f 936 1446 1447 937
g Group23888
f 1444 1388 1389 1445
f 1442 1444 1445 1443
f 1189 1442 1443 1190
f 1185 1434 1435 1186
f 1434 1436 1437 1435
f 1436 1384 1385 1437
g Group48393
f 933 1438 1439 935
f 1438 1440 1441 1439
f 1440 1386 1387 1441

 