# File exported by ZBrush version 2021
# www.zbrush.com
#Vertex Count 748
#Face Count 810
#Auto scale x=1.000000 y=1.000000 z=1.000000
#Auto offset x=0.000000 y=0.000000 z=0.000000
v -0.91016376 -1.08325958 -0.66117399
v -0.9475069 -2.48203754 -0.6173191
v -0.78117489 -2.52671051 -0.42863607
v -0.76443779 -1.07718956 -0.57130897
v -1.24859178 3.34592151 -0.67123603
v -1.05109798 3.34380245 -0.6108601
v -1.81466472 4.17882347 -0.65096926
v -1.60629463 4.12458753 -0.6052922
v 0.21490311 -1.07109952 -1.96714878
v 0.30934542 2.64649748 -2.02402782
v 0.46163016 2.62726354 -1.84303879
v 0.30799919 -1.0607835 -1.83283472
v 0.20208168 2.57494354 2.04979777
v 0.26237383 2.59200859 1.90448498
v 0.63390064 -0.91314452 2.03334307
v 0.69084572 -0.90453153 1.87741076
v -0.32933175 2.98336744 -1.49178302
v -0.32346078 -1.09764051 -1.45360803
v -0.20045071 -1.08673048 -1.34351277
v -0.20629873 3.00628447 -1.38892269
v -0.50226783 -2.10766148 -1.31741905
v -0.38279581 -2.10576558 -1.19730484
v -0.85940671 3.76956439 -1.51848793
v -0.72792685 3.76076746 -1.37286484
v 0.03050571 -0.97104454 1.74998283
v -0.19105726 2.80332851 1.73429858
v 0.14335879 -0.95731753 1.63393592
v -0.10824018 2.82248258 1.60733079
v 0.03065973 -1.92918157 1.76681077
v 0.13991978 -1.91736555 1.64878797
v -0.23416221 3.5127604 1.67398476
v -0.13806211 3.49993848 1.50285983
v -0.82558888 1.97319042 -0.64125114
v -0.8475818 0.42329147 -0.74025005
v -0.64874178 2.01427745 -0.69215995
v -0.68621695 0.43253746 -0.66417717
v 0.54981929 1.55262148 -2.1739664
v 0.53930032 0.21078047 -2.12680387
v 0.64020711 1.57753849 -2.04089641
v 0.63114213 0.22782148 -1.99345302
v 0.28819468 1.54117047 2.05729985
v 0.59030675 0.32579046 2.02132391
v 0.34137865 1.5598855 1.90150892
v 0.64446973 0.34270146 1.86651015
v -0.07649976 0.29905349 -1.57900989
v -0.00705379 1.72012352 -1.51758503
v 0.04574626 0.31530547 -1.47185373
v 0.10049217 1.74938952 -1.50327074
v 0.0354278 0.40505847 1.78005564
v -0.19061929 1.68964052 1.77592778
v 0.11891675 0.42127847 1.63816285
v -0.10971421 1.70734047 1.63383364
v -0.93047303 -1.04484057 0.12525589
v -0.92449897 0.49667948 0.13341696
v -0.83796995 2.00572753 0.17695786
v -1.08722591 -1.04754853 0.1282818
v -1.0299921 -2.6663866 0.11003789
v -0.87079095 -2.67707252 0.14520578
v -1.80989277 4.23625659 0.20130085
v -1.30392789 3.41922736 0.20911276
v -1.61569404 4.22178936 0.15305599
v -1.11079299 3.4084475 0.19557488
v -1.09895873 0.48938146 0.14390781
v -1.06136715 2.06917548 0.23818191
v -0.89097988 1.97007548 0.81141173
v -0.93557292 3.26878738 0.80216687
v -0.87434005 0.48436147 0.79095578
v -0.84579503 -1.0314275 0.77563679
v -0.713409 -1.0268855 0.70397675
v -0.72958791 0.49360546 0.72092378
v -0.75000798 1.98136246 0.74874573
v -0.80763512 -2.54282259 0.76292896
v -0.68314898 -2.54537463 0.67553478
v -1.32880103 4.07733535 0.76834482
v -1.17629218 4.04056167 0.63196885
v -0.79554098 3.27012038 0.74331271
v -0.42347613 -1.01556551 1.19929277
v -0.42495113 0.47684848 1.2320199
v -0.53258502 1.85655546 1.22531104
v -0.55735182 -1.03702056 1.30150485
v -0.52028328 -2.31517243 1.29956471
v -0.39154705 -2.30104255 1.21327292
v -0.8271532 3.86836743 1.25276684
v -0.62404024 3.0731554 1.31632769
v -0.709302 3.85302543 1.08087372
v -0.51514411 3.08730649 1.21891188
v -0.64433133 1.83774745 1.33680081
v -0.5382632 0.46491748 1.34963882
v -1.0198028 -2.25090956 -0.71814405
v -1.05749368 -3.64975047 -0.67585009
v -0.88755679 -3.69376444 -0.47105309
v -0.87210178 -2.24447751 -0.61945402
v -1.67306172 2.32045555 -0.70469397
v -1.52401876 2.33281445 -0.63792705
v -1.83453369 3.1205275 -0.61666113
v -1.74273586 3.12812447 -0.57833331
v 0.08831232 -2.24184751 -2.09989881
v -0.32851058 1.69475042 -2.16306805
v -0.22117871 1.69725549 -2.03887009
v 0.18391126 -2.23107457 -1.95439672
v -0.14229524 1.54699742 2.18818354
v -0.09238523 1.5653305 2.03477883
v 0.5732817 -2.07183051 2.19548296
v 0.62792873 -2.06363844 2.0292797
v -1.03210973 2.06638455 -1.57588005
v -0.44374463 -2.26723551 -1.5581659
v -0.31851387 -2.25592041 -1.43814301
v -0.90761274 2.08922338 -1.46940994
v -0.62166869 -3.27709555 -1.41803073
v -0.49983394 -3.27476644 -1.28735208
v -1.21496069 2.84026336 -1.48198485
v -1.13316762 2.85337042 -1.4167521
v -0.0368824 -2.13096857 1.88187003
v -0.77327525 1.79481148 1.86448955
v 0.07451885 -2.1175065 1.75933313
v -0.69546103 1.80947542 1.73052859
v -0.03708708 -3.0891726 1.89709174
v 0.07067579 -3.07762956 1.77237284
v -0.94959813 2.49736356 1.83076167
v -0.90407514 2.50403738 1.75876164
v -1.33822584 0.87104946 -0.77591913
v -0.96028173 -0.74709254 -0.79986697
v -1.17878377 0.88327449 -0.70210599
v -0.7965399 -0.73750853 -0.71552711
v 0.26179218 0.42938646 -2.32098984
v 0.41213941 -0.96015554 -2.26008653
v 0.35205096 0.45457747 -2.17680764
v 0.50645327 -0.94266355 -2.11553454
v 0.30208182 0.44118648 2.188874
v 0.56435477 -0.82735949 2.17678141
v 0.35294771 0.46070346 2.022511
v 0.61856079 -0.81055754 2.01123094
v -0.20205086 -0.87044954 -1.68359386
v -0.52495759 0.65010047 -1.67512583
v -0.07746496 -0.85387951 -1.56650209
v -0.40170478 0.67317944 -1.56170892
v 0.0146237 -0.74768555 1.9089477
v -0.31674224 0.61131447 1.89134991
v 0.09863889 -0.73150354 1.75762891
v -0.23554521 0.62877845 1.7407819
v -1.0275067 -2.21018457 0.1246269
v -1.00204002 -0.67324054 0.13682891
v -1.34075689 0.90977746 0.16639781
v -1.18477702 -2.21298742 0.12534084
v -1.12869596 -3.83203649 0.10194483
v -0.96836197 -3.84251546 0.14217089
v -1.92804575 3.14330053 0.24870178
v -1.77560865 2.33269858 0.21207362
v -1.840626 3.14956045 0.24393475
v -1.63035678 2.33564949 0.20341071
v -1.17822384 -0.6804685 0.14538887
v -1.49910771 0.90071547 0.17752477
v -1.25539112 0.83097547 0.84672284
v -1.58013486 2.18780756 0.85388875
v -0.93235904 -0.68003153 0.8406738
v -0.93205213 -2.19480252 0.82318079
v -0.80033898 -2.19038343 0.74850982
v -0.78685498 -0.67059254 0.76768183
v -1.11919391 0.84291148 0.77691769
v -0.89495295 -3.70639157 0.80572676
v -0.77142608 -3.70911955 0.7140429
v -1.7391299 2.99400353 0.85230481
v -1.66206002 2.99859857 0.81876957
v -1.45466208 2.19490647 0.79327464
v -0.50138616 -2.17741441 1.28414285
v -0.46069315 -0.68141353 1.31752252
v -0.80348706 0.76457446 1.3147217
v -0.63411396 -2.19865942 1.3914895
v -0.59778386 -3.47694563 1.38624584
v -0.46996396 -3.4629836 1.29586076
v -1.47771799 2.81205654 1.38847446
v -1.314646 2.02798938 1.41782069
v -1.41270315 2.81609749 1.33096385
v -1.2092601 2.03901338 1.31323075
v -0.91680407 0.75026249 1.43444991
v -0.57461911 -0.6935175 1.44233071
v -0.25169205 0.34453147 1.89480364
v -0.84963011 0.46683546 1.43599748
v -0.46156889 0.35160347 -1.67678904
v -1.2640326 0.55339348 -0.78061997
v -1.43611574 0.59031444 0.17121675
v -1.1919769 0.53435146 0.84553474
v 0.29130739 0.15660548 -2.30903387
v 0.38236117 0.18028648 -2.1647799
v -0.73619413 0.48071348 1.31527161
v -1.05395305 0.54579645 0.7751038
v -0.1699422 0.36174246 1.74408769
v 0.40508976 0.21114347 2.02029681
v 0.35356885 0.19216047 2.18649983
v -0.33805385 0.37340447 -1.56265091
v -1.10374593 0.56509947 -0.704741
v -1.27426409 0.5990175 0.16059273
v -0.57378661 0.54985445 -1.74198162
v -0.54726064 0.42494747 -1.74267804
v -1.37195181 0.62092149 -0.82023704
v -1.40578579 0.76578146 -0.81809216
v -0.55926084 0.64324045 -1.70897591
v -1.38297283 0.86142647 -0.7967751
v -1.30877971 0.54377049 -0.801476
v -0.49587151 0.34474349 -1.71063888
v -1.57702815 0.79332047 0.1836858
v -1.54932296 0.65680348 0.18090969
v -1.29617273 0.60241645 0.88378465
v -1.32248604 0.72549945 0.88427877
v -1.54784596 0.89028346 0.18156665
v -1.29907095 0.82143646 0.86605382
v -1.23565614 0.5248115 0.86486578
v -1.48485302 0.57988345 0.17525884
v -0.34735429 0.51344847 1.97217392
v -0.32434016 0.41906246 1.97339463
v 0.21446865 0.28859347 2.23396611
v 0.19923168 0.36554947 2.23492765
v -0.34307318 0.6053645 1.93200063
v 0.2800998 0.43631047 2.23187065
v 0.33158767 0.18728347 2.22949647
v -0.2780233 0.33858048 1.93545591
v -0.94325923 0.5365985 1.4970057
v -0.96950691 0.64734649 1.49640071
v -0.95411908 0.74180847 1.46580481
v -0.88694512 0.45838147 1.46735167
v 0.14212822 0.34837648 -2.33319902
v 0.15294528 0.25032147 -2.32802534
v 0.25960934 0.15079747 -2.34532856
v 0.23009538 0.42357748 -2.35728359
v -1.28355574 -2.91418862 -0.777161
v -1.30027067 -4.06914138 -0.76899302
v -1.12705874 -4.10473346 -0.55601418
v -1.13456082 -2.90732455 -0.67337203
v -2.00508666 0.84392648 -0.65155232
v -1.85519588 0.85608446 -0.58079212
v -2.17762565 1.49977052 -0.5408172
v -2.08533787 1.50727844 -0.50014025
v -0.18913561 -2.86963963 -2.20584869
v -0.6653248 0.37023448 -2.1743884
v -0.55642968 0.37280547 -2.04445385
v -0.09187263 -2.86071944 -2.05363702
v -0.4274401 0.19981047 2.34702348
v -0.37944108 0.21769347 2.18834066
v 0.34275054 -2.7717576 2.26761627
v 0.39550176 -2.76200151 2.09540796
v -1.36905479 0.65667748 -1.55932605
v -0.71568161 -2.90693259 -1.64694392
v -0.58902967 -2.89670348 -1.52100682
v -1.24346172 0.67655146 -1.44719183
v -0.87750375 -3.74482655 -1.5281378
v -0.75400078 -3.74220562 -1.39137387
v -1.56256246 1.29045045 -1.44330811
v -1.48007464 1.30199551 -1.37458813
v -0.27121233 -2.82811045 1.93583977
v -1.06688714 0.39636647 2.01242184
v -0.16118717 -2.81347441 1.8095529
v -0.99065911 0.41150748 1.87405657
v -0.25715738 -3.61860656 1.92731869
v -0.15077316 -3.60560441 1.79868972
v -1.25424611 0.9729495 1.99398565
v -1.20955085 0.98016548 1.91961276
v -1.64912474 -0.34446051 -0.76011014
v -1.24695968 -1.67178249 -0.82351005
v -1.48873353 -0.33230152 -0.68195915
v -1.08210384 -1.66184556 -0.73444819
v -0.0571087 -0.66058254 -2.36663985
v 0.11463737 -1.80459654 -2.33758449
v 0.03457421 -0.63985151 -2.21547675
v 0.21050024 -1.79014647 -2.18620204
v 0.03402465 -0.7040075 2.32271909
v 0.31529772 -1.74527657 2.27972841
v 0.08281868 -0.68497949 2.15060186
v 0.36748784 -1.72843647 2.10841178
v -0.4954966 -1.74889254 -1.74018991
v -0.84126371 -0.5008555 -1.69498693
v -0.36960178 -1.73431348 -1.61716985
v -0.71684086 -0.48089051 -1.57563114
v -0.23964422 -1.68656253 1.99949288
v -0.5918051 -0.57161551 2.01343154
v -0.15742123 -1.66985046 1.84316289
v -0.5124163 -0.55390554 1.85789883
v -1.28235292 -2.89082241 0.10002374
v -1.27930116 -1.62284147 0.15193477
v -1.64158392 -0.32382753 0.22055378
v -1.43986392 -2.89605641 0.09960779
v -1.36013805 -4.23010873 0.03453582
v -1.19889891 -4.23625659 0.07720083
v -2.26187515 1.50646948 0.35880875
v -2.09764576 0.84116148 0.30118784
v -2.1744368 1.51330649 0.35461777
v -1.95226788 0.84639847 0.29325965
v -1.45560789 -1.63217449 0.15943285
v -1.79997086 -0.33437451 0.23079779
v -1.54721808 -0.39537251 0.92645674
v -1.89243185 0.71761447 0.9661346
v -1.20143985 -1.63556456 0.88401174
v -1.17905688 -2.8847146 0.82733976
v -1.04800903 -2.87773156 0.7507317
v -1.05663108 -1.62420547 0.80936896
v -1.41173195 -0.38216352 0.85512769
v -1.119861 -4.13054847 0.77104568
v -0.99710011 -4.12941169 0.67650973
v -2.06359195 1.37961649 0.98387271
v -1.98682415 1.3852415 0.94965577
v -1.76751709 0.72651845 0.90416467
v -0.74264317 -2.86788845 1.31000971
v -0.72349607 -1.63365352 1.38300454
v -1.0882169 -0.44734752 1.41445779
v -0.87409323 -2.88915658 1.42016005
v -0.81895709 -3.94273853 1.38247966
v -0.69212806 -3.92776441 1.289747
v -1.79296481 1.22800052 1.53849554
v -1.61773407 0.58398348 1.55021476
v -1.72853815 1.23322045 1.47925448
v -1.51349473 0.59628146 1.44248151
v -1.20018088 -0.46268552 1.53778863
v -0.83604508 -1.64724052 1.51166772
v -0.34234023 -1.36142551 2.00355768
v -0.9422332 -1.30180549 1.5192846
v -0.5963279 -1.38494455 -1.72700786
v -1.36423778 -1.28471458 -0.80502188
v -1.55602991 -1.25371456 0.18024388
v -1.30227387 -1.27390456 0.89638882
v 0.06455338 -1.47098457 -2.34605765
v 0.15919727 -1.45470154 -2.19473862
v -0.82985419 -1.28770756 1.39217793
v -1.1601839 -1.26200556 0.82271271
v -0.26094317 -1.34442257 1.84746062
v 0.28447365 -1.42414856 2.12071442
v 0.23327386 -1.44162547 2.29226493
v -0.47086268 -1.36879551 -1.60505688
v -1.20068371 -1.27412855 -0.71914029
v -1.38494896 -1.24402856 0.17194476
v -0.3765825 -1.63318657 2.16289711
v -0.42243832 -1.48800551 2.16471266
v -1.06380403 -1.43960154 1.64244759
v -1.01306009 -1.60467553 1.63880765
v -0.29660421 -1.70577454 2.08467149
v -0.91508787 -1.67245054 1.57792973
v -1.02127611 -1.32701456 1.58554577
v -0.39930021 -1.38063752 2.08873701
v -0.66519677 -1.69185447 -1.86777174
v -0.71566867 -1.50967848 -1.86117398
v -0.12672978 -1.58463454 -2.41890072
v -0.10337746 -1.73445153 -2.41353845
v -0.57109975 -1.76659858 -1.80865383
v 0.04323226 -1.81955254 -2.41044998
v -0.00685155 -1.48594057 -2.41892385
v -0.67193144 -1.4026525 -1.79547166
v -1.45338678 -1.62928855 -0.90250313
v -1.51599383 -1.42265653 -0.8926351
v -1.4601587 -1.31027448 -0.84963798
v -1.34288168 -1.69734346 -0.8681271
v -1.72779989 -1.39982652 0.18930375
v -1.67571377 -1.5961225 0.17851072
v -1.40097177 -1.59658646 0.96629059
v -1.451146 -1.41662848 0.97244966
v -1.66133284 -1.28328955 0.18780466
v -1.3935579 -1.30108749 0.93787556
v -1.29272401 -1.6627475 0.92549771
v -1.5609107 -1.66174852 0.16699475
v 0.11613869 -1.67764246 2.41355609
v 0.08341854 -1.55330252 2.41892385
v 0.18591463 -1.45791852 2.38239479
v 0.26793861 -1.76156854 2.36985874
v 0.4938153 -0.22953452 -1.80814385
v 0.45730507 -0.25930753 -1.779917
v 0.50477922 -0.22501252 -1.77423954
v 0.47196501 -0.25144851 -1.74577379
v 0.50613921 -0.21338951 -1.74610996
v 0.48356622 -0.22552152 -1.71770262
v 0.52108418 -0.18032452 -1.74603462
v 0.49663919 -0.18382751 -1.70309591
v 0.52998805 -0.13040852 -1.74558067
v 0.50437212 -0.13031552 -1.69850671
v 0.53324425 -0.07506952 -1.78728985
v 0.52529013 -0.07962552 -1.74477672
v 0.53954422 -0.12947452 -1.79224062
v 0.51286816 -0.03124352 -1.77182185
v 0.51317596 -0.04483452 -1.74400591
v 0.50115019 -0.07583652 -1.7017467
v 0.46427214 -0.12913252 -1.65607368
v 0.46305823 -0.07151052 -1.66228079
v 0.41408199 -0.18072152 -1.6360017
v 0.45828622 -0.18583151 -1.66370677
v 0.41697228 -0.12702451 -1.62748479
v 0.41858929 -0.07272952 -1.63465595
v 0.4916563 -0.03175152 -1.71528577
v 0.45538407 -0.02421652 -1.68016481
v 0.48235517 -0.00262952 -1.74266672
v 0.44246518 0.00870647 -1.70711898
v 0.41467225 -0.02885252 -1.65272367
v 0.39979416 0.00047547 -1.67557787
v 0.42530721 0.02262947 -1.74090492
v 0.38112121 0.01262047 -1.7055397
v 0.46852117 0.00932847 -1.77656376
v 0.50243407 -0.02309252 -1.80556666
v 0.52428716 -0.07004852 -1.82545805
v 0.53081011 -0.12754352 -1.83341503
v 0.5287382 -0.18306052 -1.78863775
v 0.51951128 -0.18436652 -1.82688689
v 0.44676423 -0.23065851 -1.68274247
v 0.43124908 -0.25992751 -1.71047282
v 0.41311818 -0.26931551 -1.74454975
v 0.3894062 -0.24834051 -1.67868292
v 0.36990523 -0.2560155 -1.70889377
v 0.33599215 -0.22359252 -1.6798886
v 0.31413918 -0.17663852 -1.65999662
v 0.35664123 -0.21943852 -1.65385568
v 0.33851718 -0.17590253 -1.63405656
v 0.40658104 -0.22262252 -1.6551429
v 0.37727719 -0.20854052 -1.64139175
v 0.37294733 -0.17474852 -1.62565076
v 0.37216115 -0.12446752 -1.61732769
v 0.33417224 -0.12174652 -1.62534976
v 0.3446092 -0.01715152 -1.67731416
v 0.30761927 -0.11914252 -1.65203881
v 0.31891304 -0.06231652 -1.65856862
v 0.3430252 -0.06790852 -1.63270902
v 0.37715214 -0.07404852 -1.6243937
v 0.38431519 -0.03998252 -1.63928771
v 0.36473017 -0.02566852 -1.65143871
v 0.35221421 -0.12081952 -1.68828368
v 0.39332509 -0.19355751 -1.72498786
v 0.44088727 -0.20908352 -1.76427793
v 0.47905015 -0.16890052 -1.79336178
v 0.48362624 -0.09958052 -1.79385876
v 0.48162508 -0.05594452 -1.79021573
v 0.39926034 -0.05140252 -1.72321605
v 0.44796836 -0.03950052 -1.76215982
v 0.42218422 -0.12345552 -1.74514162
v 0.4470852 -0.08476552 -1.76353871
v -0.03846985 -2.51671361 -1.62300181
v -0.07497978 -2.54648661 -1.59477376
v -0.02750593 -2.51219153 -1.58909583
v -0.06032061 -2.53862857 -1.56063091
v -0.02614671 -2.50056862 -1.56096673
v -0.04871875 -2.51270055 -1.53256082
v -0.01120162 -2.46750354 -1.56089162
v -0.03564572 -2.47100758 -1.51795291
v -0.00229775 -2.41758751 -1.56043779
v -0.0279138 -2.41749548 -1.51336383
v 0.00095921 -2.36224842 -1.60214662
v -0.00699585 -2.3668046 -1.55963397
v 0.00725817 -2.41665363 -1.6070981
v -0.01941764 -2.31842351 -1.58667981
v -0.01910972 -2.3320136 -1.55886292
v -0.03113567 -2.36301541 -1.5166037
v -0.06801381 -2.41631245 -1.47093176
v -0.0692268 -2.35868954 -1.47713875
v -0.11820283 -2.46790146 -1.45085859
v -0.07399982 -2.47301054 -1.47856485
v -0.11531394 -2.41420459 -1.44234204
v -0.11369693 -2.35990858 -1.44951391
v -0.04062873 -2.31893158 -1.53014385
v -0.07690188 -2.3113954 -1.49502205
v -0.04993081 -2.28980851 -1.55752492
v -0.08981981 -2.27847242 -1.52197563
v -0.11761292 -2.31603241 -1.46758198
v -0.13249176 -2.28670358 -1.49043488
v -0.10697782 -2.26454949 -1.55576205
v -0.15116396 -2.27455854 -1.52039694
v -0.06376475 -2.27785062 -1.5914216
v -0.02985167 -2.3102715 -1.62042474
v -0.00799894 -2.35722756 -1.64031386
v -0.00147479 -2.41472363 -1.64827179
v -0.00354778 -2.47023963 -1.60349488
v -0.01277387 -2.47154641 -1.64174377
v -0.08552175 -2.51783752 -1.49760079
v -0.10103675 -2.54710745 -1.52533102
v -0.11916676 -2.55649447 -1.55940687
v -0.14287975 -2.5355196 -1.49354076
v -0.16238063 -2.54319357 -1.52375078
v -0.19629368 -2.51077151 -1.49474561
v -0.21814563 -2.46381855 -1.47485387
v -0.17564478 -2.50661754 -1.46871399
v -0.19376885 -2.46308255 -1.448915
v -0.12570384 -2.50980258 -1.47000098
v -0.1550078 -2.49571943 -1.45624887
v -0.15933775 -2.46192741 -1.44050872
v -0.16012495 -2.41164755 -1.43218588
v -0.19811371 -2.40892553 -1.44020795
v -0.18767681 -2.30433058 -1.49217176
v -0.2246668 -2.40632247 -1.46689677
v -0.21337172 -2.34949541 -1.47342586
v -0.18925967 -2.35508847 -1.44756698
v -0.15513357 -2.36122751 -1.43925285
v -0.14796996 -2.3271625 -1.45414483
v -0.1675558 -2.31284856 -1.46629703
v -0.18007171 -2.40799951 -1.50314176
v -0.13895964 -2.48073744 -1.53984594
v -0.09139877 -2.4962635 -1.57913589
v -0.05323582 -2.45608043 -1.6082189
v -0.04865998 -2.38675952 -1.60871577
v -0.05066078 -2.34312462 -1.60507309
v -0.1330257 -2.33858156 -1.53807282
v -0.08431786 -2.32668042 -1.57701683
v -0.11010065 -2.41063451 -1.55999887
v -0.08520078 -2.37194562 -1.57839584
v -0.09049236 -2.41261863 1.53289663
v -0.05491215 -2.44234657 1.56233286
v -0.05963331 -2.40731048 1.51529562
v -0.02463012 -2.43365144 1.54112398
v -0.03256613 -2.3951466 1.50839996
v 0.00005286 -2.4070456 1.52445983
v -0.03607624 -2.3618865 1.49432373
v 0.0110147 -2.36491346 1.5093857
v -0.03823822 -2.31185245 1.48637056
v 0.01308286 -2.31122446 1.50179278
v -0.08058726 -2.25727057 1.4926778
v -0.03728026 -2.26113557 1.4916718
v -0.08587509 -2.31166863 1.48659765
v -0.06195318 -2.21344041 1.51019692
v -0.03458333 -2.22649955 1.50396359
v 0.00972282 -2.25686264 1.50654196
v 0.06281688 -2.30978655 1.53235983
v 0.05609276 -2.25231242 1.53580403
v 0.09356474 -2.36166358 1.57648086
v 0.05746093 -2.36669254 1.53881287
v 0.10046789 -2.30778241 1.57282614
v 0.09227085 -2.25361347 1.57364177
v -0.00226712 -2.21317243 1.51936101
v 0.03942775 -2.20547056 1.54778873
v -0.02760839 -2.18469953 1.53457284
v 0.01518869 -2.17323851 1.56651866
v 0.07470786 -2.21014356 1.58192694
v 0.0549398 -2.1814506 1.60167288
v -0.01457113 -2.16018557 1.59047198
v 0.02926081 -2.17012357 1.62629389
v -0.0581271 -2.17357063 1.55526292
v -0.0929622 -2.20606946 1.52746367
v -0.11617821 -2.25308847 1.50935196
v -0.12440496 -2.31063056 1.50361573
v -0.07929509 -2.36531758 1.49551773
v -0.11481106 -2.36746549 1.51236248
v 0.04189682 -2.41202163 1.55322372
v 0.01840198 -2.4420135 1.57358992
v -0.01107811 -2.45228552 1.59815561
v 0.05791676 -2.43040061 1.60822176
v 0.03247487 -2.43890357 1.63336479
v 0.06731176 -2.40640354 1.66116404
v 0.09052979 -2.35938549 1.67927491
v 0.0884847 -2.40148162 1.63569176
v 0.1108998 -2.35783243 1.65011477
v 0.07702687 -2.40401458 1.58702898
v 0.09627685 -2.39007353 1.6131289
v 0.11204195 -2.35605359 1.614717
v 0.11956277 -2.30564141 1.61464059
v 0.11946576 -2.30358457 1.65350902
v 0.06483966 -2.19985342 1.65573275
v 0.09875673 -2.30184459 1.68500781
v 0.08916181 -2.24500155 1.67626476
v 0.10960671 -2.24978041 1.6472727
v 0.11083582 -2.25530147 1.61206686
v 0.09426072 -2.22142744 1.60869073
v 0.08616375 -2.20760941 1.6305927
v 0.05416274 -2.30359864 1.6487658
v 0.01094389 -2.37644863 1.61481177
v -0.03702217 -2.39206457 1.57605409
v -0.07394218 -2.35192441 1.54535365
v -0.07645016 -2.28256845 1.54216301
v -0.07315623 -2.23890352 1.54411983
v 0.00924074 -2.2342174 1.61107158
v -0.03905016 -2.22239446 1.57158982
v -0.01579529 -2.30635452 1.59189879
v -0.03951203 -2.26768255 1.57196283
v 0.26562675 -0.10530352 1.62273371
v 0.30717691 -0.13612751 1.64116692
v 0.2904618 -0.10080452 1.59717571
v 0.33054274 -0.12821152 1.61229276
v 0.31484678 -0.08938252 1.58292591
v 0.35031074 -0.10225052 1.58926785
v 0.30846983 -0.05598652 1.57024705
v 0.35779067 -0.06038952 1.57154071
v 0.30556982 -0.00588252 1.56299483
v 0.35915285 -0.00675352 1.56343293
v 0.26822474 0.04984547 1.5806576
v 0.30939376 0.04476847 1.56758964
v 0.25992581 -0.00435952 1.57654404
v 0.29223787 0.09306947 1.59206712
v 0.31639176 0.07926747 1.57847988
v 0.35877963 0.04766347 1.56869077
v 0.41547483 -0.00682552 1.57885289
v 0.41159582 0.05080147 1.58378481
v 0.45587796 -0.05970352 1.61283505
v 0.41054773 -0.06358052 1.58679986
v 0.46298787 -0.00602452 1.60715401
v 0.45686578 0.04835047 1.60999
v 0.35208573 0.09162547 1.5841577
v 0.40026968 0.09805147 1.59974587
v 0.33282372 0.12074548 1.60572695
v 0.3831548 0.13088448 1.62436676
v 0.44354963 0.09226547 1.622666
v 0.43090871 0.12143247 1.64702689
v 0.36166667 0.14468447 1.65563392
v 0.41347569 0.13338947 1.67780101
v 0.30963978 0.13265547 1.63408184
v 0.2675198 0.10124947 1.61729002
v 0.23885572 0.05496847 1.60660791
v 0.22774264 -0.00229952 1.60366046
v 0.26723381 -0.05820452 1.58350515
v 0.23780673 -0.05941352 1.60962581
v 0.39837664 -0.10850452 1.6051929
v 0.38068971 -0.13789652 1.63145494
v 0.35898974 -0.14742152 1.66333484
v 0.42862772 -0.12752352 1.65359091
v 0.41101259 -0.13539652 1.68488776
v 0.45313376 -0.10398852 1.70167994
v 0.48179984 -0.05770752 1.71235871
v 0.4664599 -0.09957252 1.671278
v 0.49322891 -0.05662452 1.67865717
v 0.44177264 -0.10160952 1.62777888
v 0.4679417 -0.08830852 1.64738607
v 0.48446783 -0.05475052 1.64434671
v 0.49307483 -0.00457152 1.64194393
v 0.50391882 -0.00265052 1.67927599
v 0.4550257 0.10256647 1.69623684
v 0.49291068 -0.00044052 1.71530485
v 0.48284751 0.05667947 1.70934283
v 0.49421882 0.05143047 1.67580902
v 0.48538994 0.04600347 1.64169073
v 0.46948787 0.08034147 1.64293789
v 0.4682357 0.09430247 1.66616916
v 0.4399237 -0.00081152 1.69299972
v 0.38690698 -0.07229452 1.67282414
v 0.32959181 -0.08641652 1.64910912
v 0.2866947 -0.04514452 1.62979078
v 0.28533667 0.02426447 1.62712073
v 0.29026877 0.06781248 1.62788283
v 0.38820868 0.06993947 1.66907656
v 0.33114785 0.08325647 1.64463591
v 0.35679769 -0.00139552 1.65799796
v 0.32954078 0.03799947 1.64532387
v 0.23079121 0.25206047 -1.68038284
v 0.74085307 0.19237548 -2.07758784
v 1.85479414 0.00968747 -1.26814961
v 2.26187467 -0.04286952 -0.62856161
v 2.2022221 -0.78438252 -0.61588871
v 1.80999076 -0.74309849 -1.24476349
v 0.61031127 -0.49657952 -2.01436376
v 0.15284025 -0.43571853 -1.67679381
v 2.10017371 -0.75552451 -0.59508073
v 2.1624248 -0.01530352 -0.60789352
v 1.72760283 -0.71965551 -1.20050776
v 1.77432811 0.03213847 -1.22527253
v 0.58466517 -0.49665352 -1.90800976
v 0.74051618 0.21699547 -1.96846365
v 0.22105222 -0.48226553 -1.61059594
v 0.31137114 0.25612148 -1.60470473
v 0.1016007 0.38969847 1.64291882
v 0.61104375 0.37332147 1.86967802
v 1.85479366 0.11710547 1.35814607
v 2.26187467 0.01249147 0.72498607
v 2.20222163 -0.72757852 0.77291137
v 1.80999064 -0.63507652 1.39631474
v 0.57241165 -0.34173253 1.84797883
v 0.05969685 -0.34098851 1.63106799
v 2.10017347 -0.70051652 0.74981606
v 2.16242456 0.03827747 0.70213598
v 1.72760248 -0.61532449 1.35029196
v 1.77432775 0.13597947 1.3135792
v 0.5764659 -0.35768452 1.753412
v 0.65338182 0.37808847 1.74841678
v 0.11225882 -0.38557353 1.55168294
v 0.15121382 0.39551946 1.57353091
v 2.10017371 -0.72892552 0.0552563
v 2.1624248 0.01060647 0.02558338
v 2.26187515 -0.01609952 0.02595812
v 2.20222187 -0.75691449 0.05567801
v -0.27322968 -2.06086444 -1.53393173
v 0.19773227 -2.16222548 -1.93215668
v 1.48583006 -2.30730056 -1.31680059
v 1.89291191 -2.3598566 -0.67721259
v 1.8332591 -3.10136961 -0.66453981
v 1.44102799 -3.06008648 -1.29341459
v 0.09614819 -2.77690053 -1.90562081
v -0.40242481 -2.76562261 -1.38640117
v 1.73121082 -3.07251143 -0.64373064
v 1.79346084 -2.33229041 -0.65654361
v 1.358639 -3.03664159 -1.24915862
v 1.40536403 -2.2848494 -1.27392292
v 0.09931325 -2.77880144 -1.78373873
v 0.21749019 -2.1354866 -1.8405528
v -0.33947479 -2.81487846 -1.30665111
v -0.22036075 -2.05596947 -1.41822183
v -0.25408804 -2.02171349 1.55319273
v 0.22168496 -1.90699255 1.88301491
v 1.48582959 -2.1998825 1.30949616
v 1.89291167 -2.30449461 0.67633611
v 1.83325874 -3.04456543 0.72426027
v 1.44102788 -2.95206356 1.34766507
v 0.19157472 -2.6643176 1.84572291
v -0.30486607 -2.65709042 1.57684791
v 1.73121058 -3.0175035 0.70116519
v 1.79346072 -2.27870941 0.65348517
v 1.35863852 -2.93231153 1.30164194
v 1.40536367 -2.18100857 1.2649281
v 0.19847774 -2.67892551 1.74002075
v 0.2671878 -1.91175448 1.75209784
v -0.21618208 -2.69440746 1.4517517
v -0.19629907 -2.07406663 1.4584819
v 1.73121094 -3.04591155 0.0066052
v 1.79346072 -2.30638051 -0.02306777
v 1.89291167 -2.33308649 -0.0226916
v 1.8332591 -3.07390141 0.00702709
v -0.10854911 2.58864235 1.61288905
v -0.51880109 2.82922339 1.2202537
v -0.19096523 2.56979346 1.74302792
v -0.62829518 2.81409549 1.32062077
v -1.25306379 3.13612747 0.21520778
v -0.92622184 2.99645352 0.80410581
v -1.05358302 3.11430358 0.19167085
v -0.96672594 3.06500649 -0.62790805
v 0.35977226 2.4171164 -2.05546999
v 0.49907708 2.40714049 -1.88452875
v -0.78599298 2.9998734 0.74445188
v 0.27894067 2.37557649 1.90386068
v 0.22013974 2.3581655 2.05137085
v -0.14196568 2.74271845 -1.4129008
v -0.26175078 2.71847057 -1.49719393
v -1.15988969 3.05806636 -0.6649481
v -1.41408479 3.3212974 0.23958283
v -1.39053285 3.19021558 0.24240487
v -1.03581082 3.06812548 0.86524868
v -1.03986012 3.18606853 0.86440992
v -1.36707294 3.40804743 0.22381788
v -0.99011099 3.26597046 0.8336296
v -0.98076009 2.99363637 0.83556878
v -1.31620872 3.12494754 0.22991284
v -0.2715981 2.72726845 1.83093047
v -0.27156615 2.64811158 1.83388972
v 0.08062481 2.46366739 2.10526347
v 0.0776298 2.52893352 2.10363888
v -0.23214823 2.80390453 1.78210866
v 0.16334474 2.57451844 2.09943676
v 0.18140274 2.3577404 2.10100984
v -0.2320562 2.57036948 1.79083859
v -0.3957507 2.88948655 -1.58052682
v -0.36635166 2.77425241 -1.58288061
v -1.2992078 3.10133051 -0.71870231
v -1.3424257 3.24158239 -0.72176599
v -0.37294185 2.97365236 -1.53626287
v -1.30804586 3.33034753 -0.69782799
v -1.2193439 3.04249239 -0.69154
v -0.30536082 2.70875549 -1.54167389
v -0.72449797 2.8927474 1.39710187
v -0.72277909 2.99736237 1.39536857
v -0.67374998 3.07388448 1.35598588
v -0.67800509 2.81482458 1.36027872
v 0.18655014 2.5868175 -2.07763195
v 0.20505625 2.50417637 -2.08586359
v 0.31686723 2.41027045 -2.10104465
v 0.26644021 2.63965153 -2.06960272
g Group39798
f 28 701 702 86
f 50 703 704 87
f 49 50 87 88
f 25 49 88 80
f 45 18 1 34
f 46 45 34 33
f 64 63 67 65
f 63 56 68 67
f 21 9 12 22
f 9 38 40 12
f 62 707 708 6
f 38 37 39 40
f 37 709 710 39
f 74 59 60 66
f 15 29 30 16
f 86 702 711 76
f 85 86 76 75
f 61 62 6 8
f 61 8 7 59
f 59 7 5 60
f 85 75 74 83
f 3 58 57 2
f 83 74 66 84
f 53 58 3 4
f 58 73 72 57
f 56 1 2 57
f 77 82 73 69
f 80 68 72 81
f 79 78 70 71
f 3 2 21 22
f 4 3 22 19
f 5 7 23 17
f 86 85 32 28
f 85 83 31 32
f 80 81 29 25
f 30 29 81 82
f 27 30 82 77
f 18 21 2 1
f 26 31 83 84
f 24 23 7 8
f 20 24 8 6
f 52 701 712 43
f 51 52 43 44
f 27 51 44 16
f 49 25 15 42
f 50 49 42 41
f 47 19 12 40
f 48 47 40 39
f 20 714 710 11
f 46 715 709 37
f 45 46 37 38
f 18 45 38 9
f 76 711 707 62
f 19 22 12
f 17 23 10
f 32 31 13 14
f 28 32 14
f 25 29 15
f 9 21 18
f 11 10 23 24
f 11 24 20
f 75 76 62 61
f 16 30 27
f 13 31 26
f 36 4 19 47
f 35 36 47 48
f 6 708 714 20
f 55 54 36 35
f 54 53 4 36
f 78 77 69 70
f 34 1 56 63
f 33 34 63 64
f 42 15 16 44
f 41 42 44 43
f 13 713 712 14
f 75 61 59 74
f 51 27 77 78
f 52 51 78 79
f 65 67 88 87
f 67 68 80 88
f 70 69 53 54
f 71 70 54 55
f 68 56 57 72
f 69 73 58 53
f 73 82 81 72
g Group42996
f 116 140 167 174
f 138 114 172 175
f 137 177 178 176
f 113 137 176 168
f 133 106 89 122
f 148 152 153 154
f 151 144 156 155
f 109 97 100 110
f 97 126 128 100
f 150 143 123 94
f 126 183 184 128
f 125 98 99 127
f 162 147 148 154
f 103 117 118 104
f 174 167 159 164
f 173 174 164 163
f 149 150 94 96
f 149 96 95 147
f 147 95 93 148
f 173 163 162 171
f 91 146 145 90
f 171 162 154 172
f 141 146 91 92
f 146 161 160 145
f 144 89 90 145
f 165 170 161 157
f 168 156 160 169
f 167 185 186 159
f 91 90 109 110
f 92 91 110 107
f 93 95 111 105
f 174 173 120 116
f 173 171 119 120
f 168 169 117 113
f 118 117 169 170
f 115 118 170 165
f 106 109 90 89
f 114 119 171 172
f 112 111 95 96
f 108 112 96 94
f 140 116 102 131
f 139 187 188 132
f 115 139 132 104
f 137 113 103 130
f 114 138 129 101
f 135 107 100 128
f 136 190 184 127
f 108 136 127 99
f 134 105 98 125
f 133 179 183 126
f 106 133 126 97
f 164 159 143 150
f 107 110 100
f 105 111 98
f 120 119 101 102
f 116 120 102
f 113 117 103
f 97 109 106
f 99 98 111 112
f 99 112 108
f 163 164 150 149
f 104 118 115
f 101 119 114
f 105 134 121 93
f 124 92 107 135
f 123 191 190 136
f 94 123 136 108
f 143 192 191 123
f 142 141 92 124
f 166 165 157 158
f 122 89 144 151
f 130 103 104 132
f 129 189 188 131
f 101 129 131 102
f 163 149 147 162
f 139 115 165 166
f 140 187 185 167
f 93 121 152 148
f 154 153 175 172
f 155 156 168 176
f 158 157 141 142
f 159 186 192 143
f 156 144 145 160
f 157 161 146 141
f 161 170 169 160
f 179 133 122 180
f 181 151 155 182
f 183 125 127 184
f 185 166 158 186
f 187 140 131 188
f 177 137 130 189
f 190 135 128 184
f 191 124 135 190
f 192 142 124 191
f 180 122 151 181
f 189 130 132 188
f 187 139 166 185
f 182 155 176 178
f 186 158 142 192
f 193 194 195 196
f 121 134 197 198
f 179 180 199 200
f 201 202 203 204
f 153 152 205 206
f 181 182 207 208
f 209 210 211 212
f 129 138 213 214
f 189 129 214 215
f 177 189 215 216
f 196 195 202 201
f 152 121 198 205
f 180 181 208 199
f 204 203 217 218
f 175 153 206 219
f 182 178 220 207
f 210 209 218 217
f 178 177 216 220
f 138 175 219 213
f 194 193 221 222
f 183 179 200 223
f 125 183 223 224
f 134 125 224 197
f 198 197 193 196
f 195 194 200 199
f 206 205 201 204
f 203 202 208 207
f 214 213 209 212
f 212 211 215 214
f 211 210 216 215
f 199 208 202 195
f 196 201 205 198
f 207 220 217 203
f 204 218 219 206
f 213 219 218 209
f 210 217 220 216
f 197 224 221 193
f 194 222 223 200
f 222 221 224 223
g Group59724
f 252 276 303 310
f 274 250 308 311
f 249 273 312 304
f 269 242 225 258
f 270 315 316 257
f 284 288 289 290
f 288 317 318 289
f 287 280 292 291
f 245 233 236 246
f 233 262 264 236
f 286 279 259 230
f 262 319 320 264
f 261 234 235 263
f 298 283 284 290
f 239 253 254 240
f 310 303 295 300
f 309 310 300 299
f 285 286 230 232
f 285 232 231 283
f 283 231 229 284
f 309 299 298 307
f 227 282 281 226
f 307 298 290 308
f 277 282 227 228
f 282 297 296 281
f 280 225 226 281
f 301 306 297 293
f 304 292 296 305
f 303 321 322 295
f 227 226 245 246
f 228 227 246 243
f 229 231 247 241
f 310 309 256 252
f 309 307 255 256
f 304 305 253 249
f 254 253 305 306
f 251 254 306 301
f 242 245 226 225
f 250 255 307 308
f 248 247 231 232
f 244 248 232 230
f 276 252 238 267
f 275 323 324 268
f 251 275 268 240
f 273 249 239 266
f 274 313 325 265
f 250 274 265 237
f 271 243 236 264
f 272 326 320 263
f 244 272 263 235
f 270 241 234 261
f 242 269 262 233
f 300 295 279 286
f 243 246 236
f 241 247 234
f 256 255 237 238
f 252 256 238
f 249 253 239
f 233 245 242
f 235 234 247 248
f 235 248 244
f 299 300 286 285
f 240 254 251
f 237 255 250
f 241 270 257 229
f 260 228 243 271
f 259 327 326 272
f 230 259 272 244
f 279 328 327 259
f 278 277 228 260
f 302 301 293 294
f 258 225 280 287
f 257 316 317 288
f 266 239 240 268
f 265 325 324 267
f 237 265 267 238
f 299 285 283 298
f 275 251 301 302
f 276 323 321 303
f 229 257 288 284
f 290 289 311 308
f 289 318 314 311
f 291 292 304 312
f 294 293 277 278
f 295 322 328 279
f 292 280 281 296
f 293 297 282 277
f 297 306 305 296
f 313 274 311 314
f 319 261 263 320
f 321 302 294 322
f 323 276 267 324
f 326 271 264 320
f 315 270 261 319
f 327 260 271 326
f 328 278 260 327
f 325 266 268 324
f 323 275 302 321
f 322 294 278 328
f 329 330 331 332
f 312 273 333 334
f 313 314 335 336
f 337 338 339 340
f 262 269 341 342
f 319 262 342 343
f 315 319 343 344
f 338 337 345 346
f 316 315 344 347
f 269 258 348 341
f 349 350 351 352
f 318 317 353 354
f 287 291 355 356
f 330 329 357 358
f 325 313 336 359
f 266 325 359 360
f 273 266 360 333
f 346 345 350 349
f 317 316 347 353
f 258 287 356 348
f 352 351 332 331
f 314 318 354 335
f 291 312 334 355
f 334 333 329 332
f 331 330 336 335
f 342 341 337 340
f 340 339 343 342
f 339 338 344 343
f 341 348 345 337
f 338 346 347 344
f 354 353 349 352
f 351 350 356 355
f 333 360 357 329
f 330 358 359 336
f 358 357 360 359
f 348 356 350 345
f 346 349 353 347
f 335 354 352 331
f 332 351 355 334
g Group39267
f 361 363 364 362
f 363 365 366 364
f 365 367 368 366
f 367 369 370 368
f 371 372 369 373
f 372 371 374 375
f 370 369 372 376
f 377 370 376 378
f 379 380 377 381
f 382 381 377 378
f 368 370 377 380
f 376 383 384 378
f 375 383 376 372
f 375 374 385 383
f 385 386 384 383
f 387 384 386 388
f 388 386 389 390
f 385 391 389 386
f 374 392 391 385
f 371 393 392 374
f 394 393 371 373
f 394 373 395 396
f 395 373 369 367
f 365 363 395 367
f 363 361 396 395
f 364 366 397 398
f 364 398 399 362
f 399 398 400 401
f 403 402 404 405
f 401 400 404 402
f 406 400 398 397
f 407 406 379 408
f 406 407 404 400
f 408 405 404 407
f 409 410 405 408
f 408 379 381 409
f 397 380 379 406
f 368 380 397 366
f 412 410 414 413
f 412 403 405 410
f 409 415 414 410
f 414 415 416 417
f 387 416 415 382
f 381 382 415 409
f 411 413 414 417
f 416 387 388 417
f 382 378 384 387
f 388 390 411 417
f 403 412 418
f 418 412 413
f 402 403 418
f 418 413 411
f 401 402 419
f 419 402 418
f 399 401 419
f 362 399 420
f 420 399 419
f 361 362 420
f 396 361 421
f 421 361 420
f 394 396 421
f 393 394 422
f 422 394 421
f 392 393 423
f 423 393 422
f 391 392 423
f 418 411 424
f 424 411 390
f 424 390 389
f 424 389 425
f 425 389 391
f 425 391 423
f 419 418 426
f 426 418 424
f 420 419 426
f 421 420 426
f 422 421 426
f 426 424 427
f 427 424 425
f 422 426 427
f 423 422 427
f 425 423 427
g Group58112
f 428 430 431 429
f 430 432 433 431
f 432 434 435 433
f 434 436 437 435
f 438 439 436 440
f 439 438 441 442
f 437 436 439 443
f 444 437 443 445
f 446 447 444 448
f 449 448 444 445
f 435 437 444 447
f 443 450 451 445
f 442 450 443 439
f 442 441 452 450
f 452 453 451 450
f 454 451 453 455
f 455 453 456 457
f 452 458 456 453
f 441 459 458 452
f 438 460 459 441
f 461 460 438 440
f 461 440 462 463
f 462 440 436 434
f 432 430 462 434
f 430 428 463 462
f 431 433 464 465
f 431 465 466 429
f 466 465 467 468
f 470 469 471 472
f 468 467 471 469
f 473 467 465 464
f 474 473 446 475
f 473 474 471 467
f 475 472 471 474
f 476 477 472 475
f 475 446 448 476
f 464 447 446 473
f 435 447 464 433
f 479 477 481 480
f 479 470 472 477
f 476 482 481 477
f 481 482 483 484
f 454 483 482 449
f 448 449 482 476
f 478 480 481 484
f 483 454 455 484
f 449 445 451 454
f 455 457 478 484
f 470 479 485
f 485 479 480
f 469 470 485
f 485 480 478
f 468 469 486
f 486 469 485
f 466 468 486
f 429 466 487
f 487 466 486
f 428 429 487
f 463 428 488
f 488 428 487
f 461 463 488
f 460 461 489
f 489 461 488
f 459 460 490
f 490 460 489
f 458 459 490
f 485 478 491
f 491 478 457
f 491 457 456
f 491 456 492
f 492 456 458
f 492 458 490
f 486 485 493
f 493 485 491
f 487 486 493
f 488 487 493
f 489 488 493
f 493 491 494
f 494 491 492
f 489 493 494
f 490 489 494
f 492 490 494
f 495 497 498 496
f 497 499 500 498
f 499 501 502 500
f 501 503 504 502
f 505 506 503 507
f 506 505 508 509
f 504 503 506 510
f 511 504 510 512
f 513 514 511 515
f 516 515 511 512
f 502 504 511 514
f 510 517 518 512
f 509 517 510 506
f 509 508 519 517
f 519 520 518 517
f 521 518 520 522
f 522 520 523 524
f 519 525 523 520
f 508 526 525 519
f 505 527 526 508
f 528 527 505 507
f 528 507 529 530
f 529 507 503 501
f 499 497 529 501
f 497 495 530 529
f 498 500 531 532
f 498 532 533 496
f 533 532 534 535
f 537 536 538 539
f 535 534 538 536
f 540 534 532 531
f 541 540 513 542
f 540 541 538 534
f 542 539 538 541
f 543 544 539 542
f 542 513 515 543
f 531 514 513 540
f 502 514 531 500
f 546 544 548 547
f 546 537 539 544
f 543 549 548 544
f 548 549 550 551
f 521 550 549 516
f 515 516 549 543
f 545 547 548 551
f 550 521 522 551
f 516 512 518 521
f 522 524 545 551
f 537 546 552
f 552 546 547
f 536 537 552
f 552 547 545
f 535 536 553
f 553 536 552
f 533 535 553
f 496 533 554
f 554 533 553
f 495 496 554
f 530 495 555
f 555 495 554
f 528 530 555
f 527 528 556
f 556 528 555
f 526 527 557
f 557 527 556
f 525 526 557
f 552 545 558
f 558 545 524
f 558 524 523
f 558 523 559
f 559 523 525
f 559 525 557
f 553 552 560
f 560 552 558
f 554 553 560
f 555 554 560
f 556 555 560
f 560 558 561
f 561 558 559
f 556 560 561
f 557 556 561
f 559 557 561
g Group12575
f 562 564 565 563
f 564 566 567 565
f 566 568 569 567
f 568 570 571 569
f 572 573 570 574
f 573 572 575 576
f 571 570 573 577
f 578 571 577 579
f 580 581 578 582
f 583 582 578 579
f 569 571 578 581
f 577 584 585 579
f 576 584 577 573
f 576 575 586 584
f 586 587 585 584
f 588 585 587 589
f 589 587 590 591
f 586 592 590 587
f 575 593 592 586
f 572 594 593 575
f 595 594 572 574
f 595 574 596 597
f 596 574 570 568
f 566 564 596 568
f 564 562 597 596
f 565 567 598 599
f 565 599 600 563
f 600 599 601 602
f 604 603 605 606
f 602 601 605 603
f 607 601 599 598
f 608 607 580 609
f 607 608 605 601
f 609 606 605 608
f 610 611 606 609
f 609 580 582 610
f 598 581 580 607
f 569 581 598 567
f 613 611 615 614
f 613 604 606 611
f 610 616 615 611
f 615 616 617 618
f 588 617 616 583
f 582 583 616 610
f 612 614 615 618
f 617 588 589 618
f 583 579 585 588
f 589 591 612 618
f 604 613 619
f 619 613 614
f 603 604 619
f 619 614 612
f 602 603 620
f 620 603 619
f 600 602 620
f 563 600 621
f 621 600 620
f 562 563 621
f 597 562 622
f 622 562 621
f 595 597 622
f 594 595 623
f 623 595 622
f 593 594 624
f 624 594 623
f 592 593 624
f 619 612 625
f 625 612 591
f 625 591 590
f 625 590 626
f 626 590 592
f 626 592 624
f 620 619 627
f 627 619 625
f 621 620 627
f 622 621 627
f 623 622 627
f 627 625 628
f 628 625 626
f 623 627 628
f 624 623 628
f 626 624 628
g Group19478
f 630 635 636 629
f 644 643 641 642
f 638 637 661 662
f 644 642 630 629
f 643 636 635 641
f 631 634 635 630
f 642 640 631 630
f 641 635 634 639
f 642 641 639 640
f 640 638 632 631
f 639 634 633 637
f 632 633 634 631
f 638 662 663 632
f 640 639 637 638
f 637 633 664 661
f 648 649 664 663
f 644 629 636 643
f 646 645 652 651
f 660 658 657 659
f 660 659 652 645
f 660 645 646 658
f 659 657 651 652
f 647 646 651 650
f 658 646 647 656
f 657 655 650 651
f 658 656 655 657
f 656 647 648 654
f 655 653 649 650
f 648 647 650 649
f 656 654 653 655
f 662 661 653 654
f 662 654 648 663
f 661 664 649 653
f 663 664 633 632
g Group64929
f 666 671 672 665
f 680 679 677 678
f 674 673 697 698
f 680 678 666 665
f 679 672 671 677
f 667 670 671 666
f 678 676 667 666
f 677 671 670 675
f 678 677 675 676
f 676 674 668 667
f 675 670 669 673
f 668 669 670 667
f 674 698 699 668
f 676 675 673 674
f 673 669 700 697
f 684 685 700 699
f 680 665 672 679
f 682 681 688 687
f 696 694 693 695
f 696 695 688 681
f 696 681 682 694
f 695 693 687 688
f 683 682 687 686
f 694 682 683 692
f 693 691 686 687
f 694 692 691 693
f 692 683 684 690
f 691 689 685 686
f 684 683 686 685
f 692 690 689 691
f 698 697 689 690
f 698 690 684 699
f 697 700 685 689
f 699 700 669 668
g Group39798
f 701 52 79 702
f 705 64 65 706
f 707 55 35 708
f 709 10 11 710
f 702 79 71 711
f 701 28 14 712
f 703 50 41 713
f 714 48 39 710
f 711 71 55 707
f 715 46 33 716
f 708 35 48 714
f 713 41 43 712
f 716 33 64 705
f 706 65 87 704
f 717 718 719 720
f 66 60 721 722
g Group1458
f 705 706 723 724
g Group39798
f 725 726 727 728
f 13 26 729 730
f 713 13 730 731
f 703 713 731 732
f 733 734 735 736
f 5 17 737 738
f 715 716 739 740
f 736 735 718 717
f 60 5 738 721
f 716 705 724 739
f 720 719 741 742
f 84 66 722 743
f 706 704 744 723
f 726 725 742 741
f 704 703 732 744
f 26 84 743 729
f 734 733 745 746
f 709 715 740 747
f 10 709 747 748
f 17 10 748 737
f 722 721 717 720
f 719 718 724 723
f 730 729 725 728
f 728 727 731 730
f 727 726 732 731
f 738 737 733 736
f 735 734 740 739
f 721 738 736 717
f 718 735 739 724
f 723 744 741 719
f 720 742 743 722
f 729 743 742 725
f 726 741 744 732
f 737 748 745 733
f 734 746 747 740
f 746 745 748 747

 