# File exported by ZBrush version 2021
# www.zbrush.com
#Vertex Count 266
#Face Count 264
#Auto scale x=1.000000 y=1.000000 z=1.000000
#Auto offset x=0.000000 y=0.000000 z=0.000000
v -1.53981196 1.49814403 1.55886697
v -0.83333998 1.49814403 2.03091692
v -1.53981196 -1.49814403 1.55886793
v -0.83333998 -1.49814403 2.03091692
v 2.01185989 1.49813997 -0.81428903
v 1.54078304 1.49811899 -1.51924705
v 2.01185989 -1.49814105 -0.81428903
v 1.54078102 -1.49810695 -1.51924908
v -0.28830298 1.55189299 -2.14237713
v -0.88948798 1.49838995 -1.97597599
v -0.28830298 -1.55189204 -2.14237713
v -0.88948798 -1.49838995 -1.97597599
v -2.01186204 1.49814403 0.85239493
v -2.01186204 -1.49814105 0.85239493
v 0.89384502 1.498649 -1.97485709
v 0.89384299 -1.49855899 -1.97485899
v 1.53981101 1.49814403 1.55886697
v 2.01186204 1.49814403 0.85239493
v 1.53981101 -1.49814403 1.558869
v 2.01186204 -1.49814403 0.85239493
v 0.83333802 1.49814403 2.03091692
v 0.83333802 -1.49814403 2.03091692
v -0.000001 1.49814403 2.19667887
v -0.000001 -1.49814105 2.19667887
v -1.54069197 1.49809694 -1.519382
v -2.01186204 1.49813997 -0.81428802
v -1.54069197 -1.49810004 -1.519382
v -2.01186204 -1.49814105 -0.81428706
v -2.17762208 1.49814403 0.01905596
v -2.17762303 -1.49814403 0.01905596
v 2.17762208 1.49814403 0.01905496
v 2.17762303 -1.49814403 0.01905596
v 0.31452199 1.55223405 -2.13648605
v 0.31452301 -1.55223798 -2.1364851
v 0.059914 1.55382597 -2.17865514
v 0.059914 -1.55383205 -2.17865395
v -0.0495 1.55459296 -2.17965507
v -0.0495 -1.55459296 -2.17965507
v -1.53981196 0.99924701 1.55886697
v -2.01186204 0.99924701 0.85239493
v -2.17762208 0.99924701 0.01905596
v 0.31452301 1.03532397 -2.1364851
v 0.89384502 0.99959898 -1.97485709
v -0.83333998 0.99924701 2.03091692
v -1.54069197 0.999215 -1.519382
v -0.88948798 0.99940997 -1.97597599
v 1.54078304 0.999233 -1.51924705
v -0.000001 0.99924701 2.19667887
v 2.01185989 0.99924397 -0.81428903
v 2.17762208 0.99924701 0.01905496
v -2.01186204 0.99924397 -0.81428706
v 0.059914 1.03638505 -2.17865395
v -0.28830298 1.035097 -2.14237713
v 2.01186204 0.99924701 0.85239493
v 1.53981101 0.99924701 1.55886697
v 0.83333802 0.99924701 2.03091692
v -0.0495 1.03689801 -2.17965507
v -1.53981196 -1.01108896 1.55886793
v -2.01186204 -1.01108801 0.85239493
v -2.17762303 -1.01108896 0.01905596
v 0.31452301 -1.047598 -2.1364851
v 0.89384299 -1.01135397 -1.97485899
v -0.83333998 -1.01108896 2.03091692
v -1.54069197 -1.01105999 -1.519382
v -0.88948798 -1.01125502 -1.97597599
v 1.54078197 -1.01106202 -1.51924908
v -0.000001 -1.01108694 2.19667887
v 2.01185989 -1.01108801 -0.81428903
v 2.17762303 -1.01108896 0.01905596
v -2.01186204 -1.01108801 -0.81428706
v 0.059914 -1.04867398 -2.17865395
v -0.28830298 -1.04736399 -2.14237713
v 2.01186204 -1.01108896 0.85239493
v 1.53981101 -1.01108896 1.558869
v 0.83333802 -1.01108896 2.03091692
v -0.0495 -1.04918599 -2.17965507
v -1.68951594 1.24869501 1.70857095
v -2.20745897 1.24869501 0.93341398
v -2.3893361 1.24869501 0.01905596
v 0.36198699 1.29377794 -2.35064601
v 0.984591 1.24912297 -2.16620802
v -0.91435897 1.24869501 2.22651505
v -1.69205904 1.24865603 -1.66739499
v -0.97982597 1.24890005 -2.16748714
v 1.69230604 1.24867594 -1.667104
v -0.000001 1.24869501 2.40839195
v 2.20745611 1.24869203 -0.89531105
v 2.3893361 1.24869597 0.01905496
v -2.20745706 1.24869203 -0.89531004
v 0.095793 1.29510498 -2.39528608
v -0.33454299 1.29349505 -2.35675597
v 2.20745897 1.24869501 0.93341398
v 1.68951499 1.24869501 1.70857095
v 0.914357 1.24869501 2.22651505
v -0.08338499 1.29574501 -2.39671707
v -1.68596196 -1.25461697 1.70501792
v -2.20281601 -1.25461602 0.93149095
v -2.38431096 -1.25461697 0.01905596
v 0.360861 -1.29991805 -2.34556198
v 0.98243498 -1.25495696 -2.16166806
v -0.912436 -1.25461697 2.22187185
v -1.68846702 -1.25458002 -1.66388106
v -0.97768199 -1.25482201 -2.16294097
v 1.68870794 -1.25458502 -1.66359603
v -0.000001 -1.25461399 2.40336704
v 2.20281291 -1.25461602 -0.89338904
v 2.38431096 -1.25461697 0.01905596
v -2.20281505 -1.25461602 -0.89338702
v 0.09494099 -1.30125403 -2.39014315
v -0.33344599 -1.29962694 -2.35166692
v 2.20281696 -1.25461697 0.93149095
v 1.685961 -1.25461697 1.70501995
v 0.91243398 -1.25461697 2.22187185
v -0.08258 -1.30189001 -2.39156508
v -2.14305305 -0.005921 2.16210889
v -2.800035 -0.005921 1.17886591
v -3.03073501 -0.005921 0.01905596
v 0.50578397 -0.006137 -2.99945998
v 1.25951004 -0.005877 -2.74591994
v -1.15981197 -0.005921 2.81908989
v -2.15063691 -0.005922 -2.11580801
v -1.25351202 -0.005922 -2.74767994
v 2.15135288 -0.005915 -2.11504602
v -0.000001 -0.005921 3.0497899
v 2.80002594 -0.005922 -1.14077603
v 3.03073501 -0.005921 0.01905496
v -2.80002808 -0.005922 -1.14077305
v 0.20449 -0.006144 -3.05158495
v -0.47463199 -0.006134 -3.00623011
v 2.80003595 -0.005921 1.17886698
v 2.1430521 -0.005921 2.16210985
v 1.15980994 -0.005922 2.81908989
v -0.186037 -0.006143 -3.05432009
v -2.18119788 0.99924701 0.92253595
v -2.3767941 1.24869501 1.00355494
v -1.81912004 1.24869501 1.83817493
v -1.66941595 0.99924701 1.68847096
v -2.1102941 1.58856904 0.89316695
v -1.61514794 1.58856904 1.63420295
v -2.36090993 0.99924701 0.01905596
v -2.57262396 1.24869501 0.01905596
v -2.28416395 1.58856904 0.01905596
v 0.97260898 0.99971801 -2.140069
v 1.06424295 1.24923896 -2.33085393
v 0.40263599 1.29389596 -2.52737808
v 0.35411 1.03544604 -2.31333994
v 0.94286197 1.58840894 -2.06883096
v 0.34149101 1.64186 -2.23854398
v -0.98449999 1.24869501 2.39585089
v -0.903481 0.99924701 2.20025301
v -0.87411201 1.58856904 2.12934804
v -0.96790099 0.99952197 -2.14134311
v -1.05908501 1.24900806 -2.33231306
v -1.82299494 1.24865603 -1.79532599
v -1.67167103 0.999215 -1.64726805
v -0.938174 1.58816099 -2.07013201
v -1.616804 1.58840704 -1.59373199
v 1.67187595 0.999233 -1.64698004
v 1.82335698 1.24867594 -1.79487705
v 1.61697602 1.58841204 -1.59350204
v -0.000001 1.24869501 2.59167885
v -0.000001 0.99924701 2.37996697
v -0.000001 1.58856904 2.30322003
v 2.36090993 0.99924701 0.01905496
v 2.57262396 1.24869597 0.01905496
v 2.37684106 1.24869298 -0.96544003
v 2.18125104 0.99924498 -0.88438504
v 2.28416395 1.58856904 0.01905496
v 2.11027288 1.588593 -0.85503506
v -2.37683701 1.24869203 -0.96544003
v -2.1812489 0.99924498 -0.88438701
v -2.11027598 1.58859098 -0.85503703
v 0.12565499 1.29511404 -2.57397198
v 0.08975499 1.036394 -2.35734415
v 0.077724 1.64319694 -2.28250312
v -0.326898 1.03521394 -2.31947493
v -0.37421599 1.29360997 -2.53372812
v -0.31477099 1.64151394 -2.24457097
v 2.18119788 0.99924701 0.92253595
v 2.37679505 1.24869501 1.00355494
v 2.1102941 1.58856904 0.89316695
v 1.66941499 0.99924701 1.68847096
v 1.81911897 1.24869501 1.83817493
v 1.61514794 1.58856904 1.63420295
v 0.98449802 1.24869501 2.39585089
v 0.90347898 0.99924701 2.20025301
v 0.87410998 1.58856904 2.12934804
v -0.07771299 1.03691494 -2.35860395
v -0.11173299 1.29576396 -2.57564592
v -0.066788 1.643965 -2.28359103
v -2.1102941 -1.58856594 0.89316695
v -2.37215089 -1.25461602 1.00163197
v -1.81556594 -1.25461697 1.8346219
v -1.61514794 -1.58856904 1.63420391
v -2.18119788 -1.01108801 0.92253595
v -1.66941595 -1.01108896 1.68847191
v -2.2841649 -1.58856904 0.01905596
v -2.5675981 -1.25461697 0.01905596
v -2.36091089 -1.01108896 0.01905596
v 0.94286197 -1.58831799 -2.06883096
v 1.06206202 -1.25507497 -2.32633304
v 0.40147799 -1.30003905 -2.52230095
v 0.341499 -1.64186394 -2.23854112
v 0.97260201 -1.01147604 -2.14007711
v 0.354101 -1.04772198 -2.31334304
v -0.98257702 -1.25461697 2.39120698
v -0.87411201 -1.58856904 2.12934899
v -0.903481 -1.01108896 2.20025205
v -0.938174 -1.58816099 -2.07013106
v -1.05691695 -1.25493204 -2.32778406
v -1.81940197 -1.25458002 -1.79181301
v -1.61680305 -1.58841097 -1.59373199
v -0.96789598 -1.01136803 -2.14134907
v -1.67167103 -1.01105999 -1.64726901
v 1.61696994 -1.58840096 -1.593508
v 1.81975805 -1.25458502 -1.79137003
v 1.67187404 -1.01106202 -1.64698207
v -0.000001 -1.25461399 2.5866549
v -0.000001 -1.58856594 2.30322098
v -0.000001 -1.01108694 2.37996602
v 2.2841649 -1.58856904 0.01905596
v 2.56759905 -1.25461697 0.01905596
v 2.37219691 -1.25461602 -0.96351802
v 2.11027288 -1.58859503 -0.85503602
v 2.36091089 -1.01108896 0.01905596
v 2.18125104 -1.01108801 -0.88438504
v -2.372195 -1.25461602 -0.96351802
v -2.11027598 -1.588593 -0.85503703
v -2.18124795 -1.01108801 -0.88438701
v 0.124797 -1.30126404 -2.56883001
v 0.077724 -1.64320397 -2.28250098
v 0.089753 -1.04868304 -2.35734415
v -0.31477099 -1.64151394 -2.24457001
v -0.37308698 -1.29974401 -2.52864599
v -0.326891 -1.04748296 -2.31947803
v 2.1102941 -1.58856904 0.89316695
v 2.37215304 -1.25461697 1.00163197
v 2.18119788 -1.01108896 0.92253595
v 1.61514699 -1.58856904 1.63420593
v 1.81556499 -1.25461697 1.83462393
v 1.66941499 -1.01108896 1.68847298
v 0.98257499 -1.25461697 2.39120793
v 0.87410998 -1.58856904 2.12934899
v 0.90347898 -1.01109004 2.20025301
v -0.06678699 -1.643965 -2.28359007
v -0.11091899 -1.30190801 -2.57049512
v -0.07771 -1.04920303 -2.35860395
v -2.96936988 -0.005921 1.24900698
v -2.27265691 -0.005921 2.29171299
v -3.21402311 -0.005921 0.01905596
v 1.34201002 -0.005877 -2.908499
v 0.550112 -0.006138 -3.17545509
v -1.22995305 -0.005921 2.98842501
v -1.33552098 -0.005922 -2.91052293
v -2.28167009 -0.005922 -2.24363207
v 2.28250694 -0.005915 -2.24270701
v -0.000001 -0.005921 3.23307704
v 3.21402311 -0.005921 0.01905496
v 2.96942305 -0.005922 -1.21084106
v -2.96941995 -0.005922 -1.21084499
v 0.23507499 -0.006145 -3.23015499
v -0.518058 -0.006134 -3.18245792
v 2.96937203 -0.005921 1.24900794
v 2.27265596 -0.005921 2.29171395
v 1.22995102 -0.005922 2.98842597
v -0.21549999 -0.006143 -3.23307704
g Group35634
f 137 136 135 134
g Group6024
f 39 40 78 77
g Group35634
f 136 139 138 135
g Group35637
f 1 13 138 139
g Group6024
f 77 78 13 1
g Group35634
f 134 135 141 140
g Group6024
f 40 41 79 78
g Group35634
f 135 138 142 141
g Group35637
f 13 29 142 138
g Group6024
f 78 79 29 13
g Group35634
f 146 145 144 143
g Group6024
f 42 43 81 80
g Group35634
f 145 148 147 144
g Group35637
f 33 15 147 148
g Group6024
f 80 81 15 33
g Group35634
f 150 149 136 137
g Group6024
f 44 39 77 82
g Group35634
f 149 151 139 136
g Group35637
f 2 1 139 151
g Group6024
f 82 77 1 2
g Group35634
f 155 154 153 152
g Group6024
f 45 46 84 83
g Group35634
f 154 157 156 153
g Group35637
f 25 10 156 157
g Group6024
f 83 84 10 25
g Group35634
f 143 144 159 158
g Group6024
f 43 47 85 81
g Group35634
f 144 147 160 159
g Group35637
f 15 6 160 147
g Group6024
f 81 85 6 15
g Group35634
f 162 161 149 150
g Group6024
f 48 44 82 86
g Group35634
f 161 163 151 149
g Group35637
f 23 2 151 163
g Group6024
f 86 82 2 23
g Group35634
f 167 166 165 164
g Group6024
f 49 50 88 87
g Group35634
f 166 169 168 165
g Group35637
f 5 31 168 169
g Group6024
f 87 88 31 5
g Group35634
f 171 170 154 155
g Group6024
f 51 45 83 89
g Group35634
f 170 172 157 154
g Group35637
f 26 25 157 172
g Group6024
f 89 83 25 26
g Group35634
f 174 173 145 146
g Group35637
f 52 90 173 174
g Group6024
f 52 42 80 90
g Group35634
f 173 175 148 145
g Group35637
f 35 33 148 175
f 90 35 175 173
g Group6024
f 90 80 33 35
g Group35634
f 152 153 177 176
g Group6024
f 46 53 91 84
g Group35634
f 153 156 178 177
g Group35637
f 10 9 178 156
g Group6024
f 84 91 9 10
g Group35634
f 164 165 180 179
g Group6024
f 50 54 92 88
g Group35634
f 165 168 181 180
g Group35637
f 31 18 181 168
g Group6024
f 88 92 18 31
g Group35634
f 179 180 183 182
g Group6024
f 54 55 93 92
g Group35634
f 180 181 184 183
g Group35637
f 18 17 184 181
g Group6024
f 92 93 17 18
g Group35634
f 186 185 161 162
g Group6024
f 56 48 86 94
g Group35634
f 185 187 163 161
g Group35637
f 21 23 163 187
g Group6024
f 94 86 23 21
g Group35634
f 158 159 166 167
g Group6024
f 47 49 87 85
g Group35634
f 159 160 169 166
g Group35637
f 6 5 169 160
g Group6024
f 85 87 5 6
g Group35634
f 176 177 189 188
g Group35637
f 95 57 188 189
g Group6024
f 53 57 95 91
g Group35634
f 177 178 190 189
g Group35637
f 37 95 189 190
f 9 37 190 178
g Group6024
f 91 95 37 9
g Group35634
f 182 183 185 186
g Group6024
f 55 56 94 93
g Group35634
f 183 184 187 185
g Group35637
f 17 21 187 184
g Group6024
f 93 94 21 17
g Group35634
f 140 141 170 171
g Group6024
f 41 51 89 79
g Group35634
f 141 142 172 170
g Group35637
f 29 26 172 142
g Group6024
f 79 89 26 29
g Group35634
f 194 193 192 191
g Group35637
f 14 3 194 191
g Group6024
f 3 14 97 96
g Group35634
f 193 196 195 192
g Group6024
f 96 97 59 58
g Group35634
f 191 192 198 197
g Group35637
f 30 14 191 197
g Group6024
f 14 30 98 97
g Group35634
f 192 195 199 198
g Group6024
f 97 98 60 59
g Group35634
f 203 202 201 200
g Group35637
f 16 34 203 200
g Group6024
f 34 16 100 99
g Group35634
f 202 205 204 201
g Group6024
f 99 100 62 61
g Group35634
f 207 206 193 194
g Group35637
f 3 4 207 194
g Group6024
f 4 3 96 101
g Group35634
f 206 208 196 193
g Group6024
f 101 96 58 63
g Group35634
f 212 211 210 209
g Group35637
f 12 27 212 209
g Group6024
f 27 12 103 102
g Group35634
f 211 214 213 210
g Group6024
f 102 103 65 64
g Group35634
f 200 201 216 215
g Group35637
f 8 16 200 215
g Group6024
f 16 8 104 100
g Group35634
f 201 204 217 216
g Group6024
f 100 104 66 62
g Group35634
f 219 218 206 207
g Group35637
f 4 24 219 207
g Group6024
f 24 4 101 105
g Group35634
f 218 220 208 206
g Group6024
f 105 101 63 67
g Group35634
f 224 223 222 221
g Group35637
f 32 7 224 221
g Group6024
f 7 32 107 106
g Group35634
f 223 226 225 222
g Group6024
f 106 107 69 68
g Group35634
f 228 227 211 212
g Group35637
f 27 28 228 212
g Group6024
f 28 27 102 108
g Group35634
f 227 229 214 211
g Group6024
f 108 102 64 70
g Group35634
f 231 230 202 203
g Group35637
f 34 36 231 203
f 36 109 230 231
g Group6024
f 36 34 99 109
g Group35634
f 230 232 205 202
g Group35637
f 109 71 232 230
g Group6024
f 109 99 61 71
g Group35634
f 209 210 234 233
g Group35637
f 11 12 209 233
g Group6024
f 12 11 110 103
g Group35634
f 210 213 235 234
g Group6024
f 103 110 72 65
g Group35634
f 221 222 237 236
g Group35637
f 20 32 221 236
g Group6024
f 32 20 111 107
g Group35634
f 222 225 238 237
g Group6024
f 107 111 73 69
g Group35634
f 236 237 240 239
g Group35637
f 19 20 236 239
g Group6024
f 20 19 112 111
g Group35634
f 237 238 241 240
g Group6024
f 111 112 74 73
g Group35634
f 243 242 218 219
g Group35637
f 24 22 243 219
g Group6024
f 22 24 105 113
g Group35634
f 242 244 220 218
g Group6024
f 113 105 67 75
g Group35634
f 215 216 223 224
g Group35637
f 7 8 215 224
g Group6024
f 8 7 106 104
g Group35634
f 216 217 226 223
g Group6024
f 104 106 68 66
g Group35634
f 233 234 246 245
g Group35637
f 38 11 233 245
f 114 38 245 246
g Group6024
f 11 38 114 110
g Group35634
f 234 235 247 246
g Group35637
f 76 114 246 247
g Group6024
f 110 114 76 72
g Group35634
f 239 240 242 243
g Group35637
f 22 19 239 243
g Group6024
f 19 22 113 112
g Group35634
f 240 241 244 242
g Group6024
f 112 113 75 74
g Group35634
f 197 198 227 228
g Group35637
f 28 30 197 228
g Group6024
f 30 28 108 98
g Group35634
f 198 199 229 227
g Group6024
f 98 108 70 60
g Group35634
f 196 249 248 195
g Group6024
f 58 59 116 115
g Group35634
f 249 137 134 248
g Group6024
f 115 116 40 39
g Group35634
f 195 248 250 199
g Group6024
f 59 60 117 116
g Group35634
f 248 134 140 250
g Group6024
f 116 117 41 40
g Group35634
f 205 252 251 204
g Group6024
f 61 62 119 118
g Group35634
f 252 146 143 251
g Group6024
f 118 119 43 42
g Group35634
f 208 253 249 196
g Group6024
f 63 58 115 120
g Group35634
f 253 150 137 249
g Group6024
f 120 115 39 44
g Group35634
f 214 255 254 213
g Group6024
f 64 65 122 121
g Group35634
f 255 155 152 254
g Group6024
f 121 122 46 45
g Group35634
f 204 251 256 217
g Group6024
f 62 66 123 119
g Group35634
f 251 143 158 256
g Group6024
f 119 123 47 43
g Group35634
f 220 257 253 208
g Group6024
f 67 63 120 124
g Group35634
f 257 162 150 253
g Group6024
f 124 120 44 48
g Group35634
f 226 259 258 225
g Group6024
f 68 69 126 125
g Group35634
f 259 167 164 258
g Group6024
f 125 126 50 49
g Group35634
f 229 260 255 214
g Group6024
f 70 64 121 127
g Group35634
f 260 171 155 255
g Group6024
f 127 121 45 51
g Group35634
f 232 261 252 205
g Group35637
f 71 128 261 232
g Group6024
f 71 61 118 128
g Group35634
f 261 174 146 252
g Group35637
f 128 52 174 261
g Group6024
f 128 118 42 52
g Group35634
f 213 254 262 235
g Group6024
f 65 72 129 122
g Group35634
f 254 152 176 262
g Group6024
f 122 129 53 46
g Group35634
f 225 258 263 238
g Group6024
f 69 73 130 126
g Group35634
f 258 164 179 263
g Group6024
f 126 130 54 50
g Group35634
f 238 263 264 241
g Group6024
f 73 74 131 130
g Group35634
f 263 179 182 264
g Group6024
f 130 131 55 54
g Group35634
f 244 265 257 220
g Group6024
f 75 67 124 132
g Group35634
f 265 186 162 257
g Group6024
f 132 124 48 56
g Group35634
f 217 256 259 226
g Group6024
f 66 68 125 123
g Group35634
f 256 158 167 259
g Group6024
f 123 125 49 47
g Group35634
f 235 262 266 247
g Group35637
f 133 76 247 266
g Group6024
f 72 76 133 129
g Group35634
f 262 176 188 266
g Group35637
f 57 133 266 188
g Group6024
f 129 133 57 53
g Group35634
f 241 264 265 244
g Group6024
f 74 75 132 131
g Group35634
f 264 182 186 265
g Group6024
f 131 132 56 55
g Group35634
f 199 250 260 229
g Group6024
f 60 70 127 117
g Group35634
f 250 140 171 260
g Group6024
f 117 127 51 41

 