# File exported by ZBrush version 2021
# www.zbrush.com
#Vertex Count 834
#Face Count 824
#Auto scale x=1.000000 y=1.000000 z=1.000000
#Auto offset x=-0.000000 y=0.000000 z=0.000000
v 0.203914 0.04748075 0.21070304
v 0.214063 0.04891075 0.21085904
v 0.22465099 0.04882676 0.21102404
v 0.21433499 0.03883276 0.21092005
v 0.22452199 0.03883376 0.21108004
v 0.20438699 0.03871076 0.21074204
v 0.19945 0.03869175 0.21066005
v 0.19762499 0.04516976 0.21061804
v 0.190135 0.05924775 0.21050605
v 0.188106 0.05377176 0.21047605
v 0.19103799 0.06927576 0.21053704
v 0.201928 0.06922775 0.21063904
v 0.213667 0.06904876 0.21078205
v 0.22490699 0.06857876 0.21091204
v 0.213771 0.06903076 0.20270304
v 0.225015 0.06854976 0.20283304
v 0.224776 0.04877976 0.20294505
v 0.21418899 0.04886975 0.20278105
v 0.19020199 0.05926076 0.20242604
v 0.188176 0.05378276 0.20239605
v 0.20403699 0.04745176 0.20262405
v 0.202022 0.06922575 0.20256005
v 0.19110199 0.06928876 0.20245805
v 0.22464799 0.03878776 0.20300205
v 0.214467 0.03879075 0.20284204
v 0.204518 0.03867976 0.20266404
v 0.199575 0.03866776 0.20258204
v 0.19774499 0.04514776 0.20254005
v 0.21515299 0.06864975 0.09900804
v 0.22639699 0.06816875 0.09913805
v 0.22637799 0.04818676 0.09925404
v 0.215791 0.04827676 0.09909004
v 0.226263 0.03819076 0.09931104
v 0.216082 0.03819375 0.09915104
v 0.22529099 0.06847375 0.18209405
v 0.22556799 0.06839776 0.16135504
v 0.22584399 0.06832076 0.14061604
v 0.22612099 0.06824475 0.11987704
v 0.214047 0.06895476 0.18196405
v 0.21432399 0.06887875 0.16122505
v 0.21459999 0.06880176 0.14048604
v 0.21487699 0.06872576 0.11974705
v 0.225096 0.04866075 0.18220704
v 0.225417 0.04854276 0.16146904
v 0.225737 0.04842376 0.14073005
v 0.226058 0.04830576 0.11999204
v 0.21450899 0.04875075 0.18204304
v 0.21482999 0.04863276 0.16130505
v 0.21514999 0.04851375 0.14056605
v 0.21547099 0.04839576 0.11982804
v 0.22497099 0.03866875 0.18226404
v 0.22529399 0.03854876 0.16152605
v 0.225617 0.03842975 0.14078705
v 0.22594 0.03830976 0.12004905
v 0.21479 0.03867176 0.18210405
v 0.21511299 0.03855175 0.16136604
v 0.21543599 0.03843275 0.14062704
v 0.21575899 0.03831275 0.11988905
v 0.017107 0.05378276 0.20239605
v 0.017291 0.05926076 0.20242604
v 0.051321 0.05378276 0.20239605
v 0.05187299 0.05926076 0.20242604
v 0.08553499 0.05378276 0.20239605
v 0.086455 0.05926076 0.20242604
v 0.11974799 0.05378276 0.20239605
v 0.12103799 0.05926076 0.20242604
v 0.153962 0.05378276 0.20239605
v 0.15561999 0.05926076 0.20242604
v 0.153905 0.05377176 0.21047605
v 0.119704 0.05377176 0.21047605
v 0.08550299 0.05377176 0.21047605
v 0.051302 0.05377176 0.21047605
v 0.01710099 0.05377176 0.21047605
v 0.017285 0.05924775 0.21050605
v 0.051855 0.05924775 0.21050605
v 0.08642499 0.05924775 0.21050605
v 0.120995 0.05924775 0.21050605
v 0.15556499 0.05924775 0.21050605
v 0.01737299 0.06928876 0.20245805
v 0.052119 0.06928876 0.20245805
v 0.086865 0.06928876 0.20245805
v 0.12161 0.06928876 0.20245805
v 0.156356 0.06928876 0.20245805
v 0.017367 0.06927576 0.21053704
v 0.052101 0.06927576 0.21053704
v 0.08683499 0.06927576 0.21053704
v 0.12156999 0.06927576 0.21053704
v 0.156304 0.06927576 0.21053704
v 0.21592499 0.04364476 0.09911804
v 0.21560299 0.04376376 0.11985605
v 0.21528099 0.04388276 0.14059405
v 0.21495999 0.04400176 0.16133305
v 0.225682 0.04383276 0.14075605
v 0.225361 0.04395176 0.16149504
v 0.225039 0.04407076 0.18223305
v 0.224717 0.04418975 0.20297105
v 0.224592 0.04423575 0.21105004
v 0.21418799 0.04428076 0.21088704
v 0.21431699 0.04423975 0.20280905
v 0.20425799 0.04342176 0.20264205
v 0.204131 0.04345176 0.21072104
v 0.21463799 0.04412075 0.18207104
v 0.198586 0.04217075 0.20255905
v 0.19846299 0.04219375 0.21063704
v 0.226325 0.04359475 0.09928005
v 0.226004 0.04371376 0.12001805
v 0.224849 0.06413176 0.21093705
v 0.22496099 0.06409876 0.20285804
v 0.21375599 0.06451475 0.21079905
v 0.20247599 0.06432375 0.20257404
v 0.21386499 0.06449176 0.20272104
v 0.20237499 0.06433175 0.21065305
v 0.190899 0.06703075 0.20245105
v 0.19083499 0.06701776 0.21053004
v 0.21529699 0.06406275 0.09902604
v 0.22639299 0.06366975 0.09916404
v 0.15618999 0.06703075 0.20245105
v 0.22524699 0.06401276 0.18211904
v 0.225534 0.06392775 0.16138105
v 0.22582 0.06384076 0.14064204
v 0.226107 0.06375576 0.11990305
v 0.21415099 0.06440575 0.18198205
v 0.214438 0.06432075 0.16124305
v 0.214724 0.06423376 0.14050404
v 0.215011 0.06414875 0.11976505
v 0.121481 0.06703075 0.20245105
v 0.156138 0.06701776 0.21053004
v 0.12144099 0.06701776 0.21053004
v 0.08674299 0.06701776 0.21053004
v 0.052046 0.06701776 0.21053004
v 0.01734899 0.06701776 0.21053004
v 0.017355 0.06703075 0.20245105
v 0.052064 0.06703075 0.20245105
v 0.086773 0.06703075 0.20245105
v 0.22376899 0.03831075 0.12001504
v 0.22344599 0.03843076 0.14075304
v 0.22312299 0.03854975 0.16149205
v 0.2228 0.03866976 0.18223005
v 0.22250999 0.06867876 0.21088405
v 0.222617 0.06865276 0.20280504
v 0.22248399 0.06421375 0.21090805
v 0.22235 0.03883376 0.21104605
v 0.222477 0.03878875 0.20296804
v 0.222393 0.04884475 0.21098904
v 0.22237299 0.04424576 0.21101504
v 0.224092 0.03819176 0.09927704
v 0.22399899 0.06827175 0.09911005
v 0.22402599 0.06375375 0.09913504
v 0.22410699 0.04360476 0.09924604
v 0.22412 0.04820575 0.09921904
v 0.222893 0.06857675 0.18206605
v 0.22316999 0.06850075 0.16132704
v 0.22344599 0.06842376 0.14058804
v 0.22372299 0.06834776 0.11984904
v 0.216414 0.03883276 0.21095304
v 0.216545 0.03878976 0.20287504
v 0.216224 0.04889376 0.21089305
v 0.21631099 0.04427176 0.21092005
v 0.21804699 0.04363476 0.09915104
v 0.21795199 0.04825875 0.09912304
v 0.216342 0.06885676 0.18199105
v 0.216066 0.06893275 0.20273004
v 0.216619 0.06878076 0.16125205
v 0.21689499 0.06870375 0.14051304
v 0.21717199 0.06862776 0.11977405
v 0.21744799 0.06855176 0.09903504
v 0.21816 0.03819276 0.09918405
v 0.217837 0.03831176 0.11992204
v 0.21751399 0.03843176 0.14066004
v 0.21719099 0.03855076 0.16139905
v 0.21686799 0.03867076 0.18213704
v 0.21596099 0.06895275 0.21080905
v 0.21602 0.06443676 0.21082705
v 0.217561 0.06398275 0.09905505
v 0.22381651 0.04831425 0.11987804
v 0.217648 0.04836675 0.11978255
v 0.217276 0.06407976 0.11971405
v 0.22374099 0.06385076 0.11979404
v 0.22378499 0.04372476 0.11990504
v 0.21772499 0.04375476 0.11981005
v -0.203914 0.04748075 0.21070304
v -0.214063 0.04891075 0.21085904
v -0.22465099 0.04882676 0.21102404
v -0.21433499 0.03883276 0.21092005
v -0.22452199 0.03883376 0.21108004
v -0.20438699 0.03871076 0.21074204
v -0.19945 0.03869175 0.21066005
v -0.19762499 0.04516976 0.21061804
v -0.190135 0.05924775 0.21050605
v -0.188106 0.05377176 0.21047605
v -0.19103799 0.06927576 0.21053704
v -0.201928 0.06922775 0.21063904
v -0.213667 0.06904876 0.21078205
v -0.22490699 0.06857876 0.21091204
v -0.213771 0.06903076 0.20270304
v -0.225015 0.06854976 0.20283304
v -0.224776 0.04877976 0.20294505
v -0.21418899 0.04886975 0.20278105
v -0.19020199 0.05926076 0.20242604
v -0.188176 0.05378276 0.20239605
v -0.20403699 0.04745176 0.20262405
v -0.202022 0.06922575 0.20256005
v -0.19110199 0.06928876 0.20245805
v -0.22464799 0.03878776 0.20300205
v -0.214467 0.03879075 0.20284204
v -0.204518 0.03867976 0.20266404
v -0.199575 0.03866776 0.20258204
v -0.19774499 0.04514776 0.20254005
v -0.21515299 0.06864975 0.09900804
v -0.22639699 0.06816875 0.09913805
v -0.22637799 0.04818676 0.09925404
v -0.215791 0.04827676 0.09909004
v -0.226263 0.03819076 0.09931104
v -0.216082 0.03819375 0.09915104
v -0.22529099 0.06847375 0.18209405
v -0.22556799 0.06839776 0.16135504
v -0.22584399 0.06832076 0.14061604
v -0.22612099 0.06824475 0.11987704
v -0.214047 0.06895476 0.18196405
v -0.21432399 0.06887875 0.16122505
v -0.21459999 0.06880176 0.14048604
v -0.21487699 0.06872576 0.11974705
v -0.225096 0.04866075 0.18220704
v -0.225417 0.04854276 0.16146904
v -0.225737 0.04842376 0.14073005
v -0.226058 0.04830576 0.11999204
v -0.21450899 0.04875075 0.18204304
v -0.21482999 0.04863276 0.16130505
v -0.21514999 0.04851375 0.14056605
v -0.21547099 0.04839576 0.11982804
v -0.22497099 0.03866875 0.18226404
v -0.22529399 0.03854876 0.16152605
v -0.225617 0.03842975 0.14078705
v -0.22594 0.03830976 0.12004905
v -0.21479 0.03867176 0.18210405
v -0.21511299 0.03855175 0.16136604
v -0.21543599 0.03843275 0.14062704
v -0.21575899 0.03831275 0.11988905
v -0.017107 0.05378276 0.20239605
v -0.017291 0.05926076 0.20242604
v -0.051321 0.05378276 0.20239605
v -0.05187299 0.05926076 0.20242604
v -0.08553499 0.05378276 0.20239605
v -0.086455 0.05926076 0.20242604
v -0.11974799 0.05378276 0.20239605
v -0.12103799 0.05926076 0.20242604
v -0.153962 0.05378276 0.20239605
v -0.15561999 0.05926076 0.20242604
v -0.153905 0.05377176 0.21047605
v -0.119704 0.05377176 0.21047605
v -0.08550299 0.05377176 0.21047605
v -0.051302 0.05377176 0.21047605
v -0.01710099 0.05377176 0.21047605
v -0.017285 0.05924775 0.21050605
v -0.051855 0.05924775 0.21050605
v -0.08642499 0.05924775 0.21050605
v -0.120995 0.05924775 0.21050605
v -0.15556499 0.05924775 0.21050605
v -0.01737299 0.06928876 0.20245805
v -0.052119 0.06928876 0.20245805
v -0.086865 0.06928876 0.20245805
v -0.12161 0.06928876 0.20245805
v -0.156356 0.06928876 0.20245805
v -0.017367 0.06927576 0.21053704
v -0.052101 0.06927576 0.21053704
v -0.08683499 0.06927576 0.21053704
v -0.12156999 0.06927576 0.21053704
v -0.156304 0.06927576 0.21053704
v -0.21592499 0.04364476 0.09911804
v -0.21560299 0.04376376 0.11985605
v -0.21528099 0.04388276 0.14059405
v -0.21495999 0.04400176 0.16133305
v -0.225682 0.04383276 0.14075605
v -0.225361 0.04395176 0.16149504
v -0.225039 0.04407076 0.18223305
v -0.224717 0.04418975 0.20297105
v -0.224592 0.04423575 0.21105004
v -0.21418799 0.04428076 0.21088704
v -0.21431699 0.04423975 0.20280905
v -0.20425799 0.04342176 0.20264205
v -0.204131 0.04345176 0.21072104
v -0.21463799 0.04412075 0.18207104
v -0.198586 0.04217075 0.20255905
v -0.19846299 0.04219375 0.21063704
v -0.226325 0.04359475 0.09928005
v -0.226004 0.04371376 0.12001805
v -0.224849 0.06413176 0.21093705
v -0.22496099 0.06409876 0.20285804
v -0.21375599 0.06451475 0.21079905
v -0.20247599 0.06432375 0.20257404
v -0.21386499 0.06449176 0.20272104
v -0.20237499 0.06433175 0.21065305
v -0.190899 0.06703075 0.20245105
v -0.19083499 0.06701776 0.21053004
v -0.21529699 0.06406275 0.09902604
v -0.22639299 0.06366975 0.09916404
v -0.15618999 0.06703075 0.20245105
v -0.22524699 0.06401276 0.18211904
v -0.225534 0.06392775 0.16138105
v -0.22582 0.06384076 0.14064204
v -0.226107 0.06375576 0.11990305
v -0.21415099 0.06440575 0.18198205
v -0.214438 0.06432075 0.16124305
v -0.214724 0.06423376 0.14050404
v -0.215011 0.06414875 0.11976505
v -0.121481 0.06703075 0.20245105
v -0.156138 0.06701776 0.21053004
v -0.12144099 0.06701776 0.21053004
v -0.08674299 0.06701776 0.21053004
v -0.052046 0.06701776 0.21053004
v -0.01734899 0.06701776 0.21053004
v -0.017355 0.06703075 0.20245105
v -0.052064 0.06703075 0.20245105
v -0.086773 0.06703075 0.20245105
v -0.22376899 0.03831075 0.12001504
v -0.22344599 0.03843076 0.14075304
v -0.22312299 0.03854975 0.16149205
v -0.2228 0.03866976 0.18223005
v -0.22250999 0.06867876 0.21088405
v -0.222617 0.06865276 0.20280504
v -0.22248399 0.06421375 0.21090805
v -0.22235 0.03883376 0.21104605
v -0.222477 0.03878875 0.20296804
v -0.222393 0.04884475 0.21098904
v -0.22237299 0.04424576 0.21101504
v -0.224092 0.03819176 0.09927704
v -0.22399899 0.06827175 0.09911005
v -0.22402599 0.06375375 0.09913504
v -0.22410699 0.04360476 0.09924604
v -0.22412 0.04820575 0.09921904
v -0.222893 0.06857675 0.18206605
v -0.22316999 0.06850075 0.16132704
v -0.22344599 0.06842376 0.14058804
v -0.22372299 0.06834776 0.11984904
v -0.216414 0.03883276 0.21095304
v -0.216545 0.03878976 0.20287504
v -0.216224 0.04889376 0.21089305
v -0.21631099 0.04427176 0.21092005
v -0.21804699 0.04363476 0.09915104
v -0.21795199 0.04825875 0.09912304
v -0.216342 0.06885676 0.18199105
v -0.216066 0.06893275 0.20273004
v -0.216619 0.06878076 0.16125205
v -0.21689499 0.06870375 0.14051304
v -0.21717199 0.06862776 0.11977405
v -0.21744799 0.06855176 0.09903504
v -0.21816 0.03819276 0.09918405
v -0.217837 0.03831176 0.11992204
v -0.21751399 0.03843176 0.14066004
v -0.21719099 0.03855076 0.16139905
v -0.21686799 0.03867076 0.18213704
v -0.21596099 0.06895275 0.21080905
v -0.21602 0.06443676 0.21082705
v -0.217561 0.06398275 0.09905505
v -0.22381651 0.04831425 0.11987804
v -0.217648 0.04836675 0.11978255
v -0.217276 0.06407976 0.11971405
v -0.22374099 0.06385076 0.11979404
v -0.22378499 0.04372476 0.11990504
v -0.21772499 0.04375476 0.11981005
v 0.21733699 0.05776176 -0.10094595
v 0.217454 0.05252876 -0.09850495
v 0.22050699 0.05776176 -0.10109995
v 0.220594 0.05262175 -0.09898295
v 0.21679 0.02625076 -0.17760695
v 0.212133 0.02625276 -0.17728595
v 0.21929599 0.04966875 -0.13779795
v 0.214635 0.04966976 -0.13752795
v 0.22159899 0.05776075 -0.10115294
v 0.21624499 0.05776276 -0.10089295
v 0.21960799 0.04570376 -0.13232195
v 0.221798 0.05252575 -0.09882595
v 0.214947 0.04570476 -0.13205795
v 0.21636299 0.05252876 -0.09845294
v 0.217213 0.02373375 -0.17126195
v 0.212555 0.02373576 -0.17094895
v 0.220486 0.06031476 -0.10153795
v 0.219108 0.06144476 -0.10166395
v 0.224323 0.06221609 0.14059914
v 0.224324 0.05850209 0.14063613
v 0.22222499 0.06393909 0.14259316
v 0.22222599 0.05852209 0.14264817
v 0.224326 0.04809911 0.14074213
v 0.22432699 0.0443851 0.14078013
v 0.22221717 0.04266534 0.14278982
v 0.222229 0.04811811 0.14275316
v 0.22065499 0.05009776 -0.09801594
v 0.219299 0.04898276 -0.09765695
v 0.21616399 0.02947776 -0.18678295
v 0.21443399 0.00195676 -0.21178695
v 0.21405699 0.01073176 -0.21286794
v 0.214897 0.02986776 -0.18780395
v 0.21274599 0.01106476 -0.21380394
v 0.21317699 0.00130776 -0.21261094
v 0.219078 0.05334176 -0.14161895
v 0.21784099 0.05409476 -0.14233094
v 0.221561 0.06116576 -0.10193894
v 0.220179 0.06228676 -0.10213094
v 0.221768 0.04927976 -0.09762594
v 0.21983 0.04314675 -0.12838995
v 0.218691 0.04253476 -0.12738195
v 0.22041599 0.04818075 -0.09719295
v 0.217848 0.02185175 -0.16148895
v 0.21673099 0.02162575 -0.16024395
v 0.215791 -0.00044224 -0.18837295
v 0.214827 -0.00141624 -0.20591695
v 0.21357099 -0.00207324 -0.20673295
v 0.214594 -0.00107924 -0.18794195
v 0.217314 0.06065875 -0.10144095
v 0.219574 0.06273609 0.14108713
v 0.219575 0.0585061 0.14112918
v 0.21956737 0.04807104 0.14121733
v 0.21932022 0.04314512 0.1411312
v 0.217489 0.04976075 -0.09777495
v 0.21147799 0.02959876 -0.18678495
v 0.20977999 0.01083475 -0.21284695
v 0.20954999 0.00176276 -0.21168495
v 0.214396 0.05357176 -0.14157995
v 0.216204 0.06150675 -0.10175595
v 0.21517899 0.04296276 -0.12784494
v 0.21641899 0.04894775 -0.09725894
v 0.213207 0.02178476 -0.16083495
v 0.21003399 -0.00161324 -0.20582595
v 0.21164 -0.00063324 -0.18796995
v 0.21818999 0.06144576 -0.10161895
v 0.22085399 0.06393809 0.14255316
v 0.22085499 0.05852109 0.14260818
v 0.22073581 0.04235654 0.14266769
v 0.22085739 0.04811638 0.14271317
v 0.218381 0.04898376 -0.09761295
v 0.210584 0.01106576 -0.21363395
v 0.212255 0.02986875 -0.18761494
v 0.21032899 0.00130876 -0.21238695
v 0.215194 0.05409576 -0.14217394
v 0.21715 0.06228775 -0.10198295
v 0.21738499 0.04818075 -0.09704895
v 0.216045 0.04253476 -0.12723495
v 0.214089 0.02162675 -0.16007395
v 0.21250699 -0.00107824 -0.18779195
v 0.21081499 -0.00207224 -0.20652094
v 0.220338 0.06231075 -0.04780995
v 0.22132599 0.06231075 -0.04784495
v 0.222816 0.05836575 -0.04741195
v 0.22280499 0.06109076 -0.04774795
v 0.222898 0.04953575 -0.04507095
v 0.222862 0.05223875 -0.04580395
v 0.219392 0.06146175 -0.04767295
v 0.21940499 0.05836575 -0.04729194
v 0.21948799 0.04916976 -0.04488495
v 0.22044299 0.04832775 -0.04476195
v 0.21946899 0.05216975 -0.04544094
v 0.221432 0.04832775 -0.04479595
v -0.21733699 0.05776176 -0.10094595
v -0.217454 0.05252876 -0.09850495
v -0.22050699 0.05776176 -0.10109995
v -0.220594 0.05262175 -0.09898295
v -0.21679 0.02625076 -0.17760695
v -0.212133 0.02625276 -0.17728595
v -0.21929599 0.04966875 -0.13779795
v -0.214635 0.04966976 -0.13752795
v -0.22159899 0.05776075 -0.10115294
v -0.21624499 0.05776276 -0.10089295
v -0.21960799 0.04570376 -0.13232195
v -0.221798 0.05252575 -0.09882595
v -0.214947 0.04570476 -0.13205795
v -0.21636299 0.05252876 -0.09845294
v -0.217213 0.02373375 -0.17126195
v -0.212555 0.02373576 -0.17094895
v -0.220486 0.06031476 -0.10153795
v -0.219108 0.06144476 -0.10166395
v -0.224323 0.06221609 0.14059914
v -0.224324 0.05850209 0.14063613
v -0.22222499 0.06393909 0.14259316
v -0.22222599 0.05852209 0.14264817
v -0.224326 0.04809911 0.14074213
v -0.22432699 0.0443851 0.14078013
v -0.22221717 0.04266534 0.14278982
v -0.222229 0.04811811 0.14275316
v -0.22065499 0.05009776 -0.09801594
v -0.219299 0.04898276 -0.09765695
v -0.21616399 0.02947776 -0.18678295
v -0.21443399 0.00195676 -0.21178695
v -0.21405699 0.01073176 -0.21286794
v -0.214897 0.02986776 -0.18780395
v -0.21274599 0.01106476 -0.21380394
v -0.21317699 0.00130776 -0.21261094
v -0.219078 0.05334176 -0.14161895
v -0.21784099 0.05409476 -0.14233094
v -0.221561 0.06116576 -0.10193894
v -0.220179 0.06228676 -0.10213094
v -0.221768 0.04927976 -0.09762594
v -0.21983 0.04314675 -0.12838995
v -0.218691 0.04253476 -0.12738195
v -0.22041599 0.04818075 -0.09719295
v -0.217848 0.02185175 -0.16148895
v -0.21673099 0.02162575 -0.16024395
v -0.215791 -0.00044224 -0.18837295
v -0.214827 -0.00141624 -0.20591695
v -0.21357099 -0.00207324 -0.20673295
v -0.214594 -0.00107924 -0.18794195
v -0.217314 0.06065875 -0.10144095
v -0.219574 0.06273609 0.14108713
v -0.219575 0.0585061 0.14112918
v -0.21956737 0.04807104 0.14121733
v -0.21932022 0.04314512 0.1411312
v -0.217489 0.04976075 -0.09777495
v -0.21147799 0.02959876 -0.18678495
v -0.20977999 0.01083475 -0.21284695
v -0.20954999 0.00176276 -0.21168495
v -0.214396 0.05357176 -0.14157995
v -0.216204 0.06150675 -0.10175595
v -0.21517899 0.04296276 -0.12784494
v -0.21641899 0.04894775 -0.09725894
v -0.213207 0.02178476 -0.16083495
v -0.21003399 -0.00161324 -0.20582595
v -0.21164 -0.00063324 -0.18796995
v -0.21818999 0.06144576 -0.10161895
v -0.22085399 0.06393809 0.14255316
v -0.22085499 0.05852109 0.14260818
v -0.22073581 0.04235654 0.14266769
v -0.22085739 0.04811638 0.14271317
v -0.218381 0.04898376 -0.09761295
v -0.210584 0.01106576 -0.21363395
v -0.212255 0.02986875 -0.18761494
v -0.21032899 0.00130876 -0.21238695
v -0.215194 0.05409576 -0.14217394
v -0.21715 0.06228775 -0.10198295
v -0.21738499 0.04818075 -0.09704895
v -0.216045 0.04253476 -0.12723495
v -0.214089 0.02162675 -0.16007395
v -0.21250699 -0.00107824 -0.18779195
v -0.21081499 -0.00207224 -0.20652094
v -0.220338 0.06231075 -0.04780995
v -0.22132599 0.06231075 -0.04784495
v -0.222816 0.05836575 -0.04741195
v -0.22280499 0.06109076 -0.04774795
v -0.222898 0.04953575 -0.04507095
v -0.222862 0.05223875 -0.04580395
v -0.219392 0.06146175 -0.04767295
v -0.21940499 0.05836575 -0.04729194
v -0.21948799 0.04916976 -0.04488495
v -0.22044299 0.04832775 -0.04476195
v -0.21946899 0.05216975 -0.04544094
v -0.221432 0.04832775 -0.04479595
v -0.0001738 -0.01128497 0.20876805
v -0.0000757 0.02563424 0.20876805
v -0.00029651 -0.02771007 0.20876805
v -0.00000991 0.06243581 0.20876805
v 0.22190299 0.02570075 0.10185504
v 0.22190299 -0.01116424 0.10185504
v 0.22190299 -0.04921224 0.12538805
v 0.22190299 0.06256476 0.10185504
v -0.22190299 0.02570075 0.10185504
v -0.22190299 -0.01116424 0.10185504
v -0.22190299 -0.04909724 0.12364104
v -0.22190299 0.06256476 0.10185504
v -0.22190299 0.02570075 0.17959304
v -0.22190299 -0.01116424 0.17959304
v -0.22190299 0.02570075 0.15368004
v -0.22190299 -0.01116424 0.15368004
v -0.22190299 -0.06895524 0.17959304
v -0.22190299 -0.06895524 0.15368004
v -0.22190299 0.06256476 0.17959304
v -0.22190299 0.06256476 0.15368004
v 0.22190299 -0.01116424 0.17959304
v 0.22190299 0.02570075 0.17959304
v 0.22190299 -0.01116424 0.15368004
v 0.22190299 0.02570075 0.15368004
v 0.22190299 -0.06895524 0.17959304
v 0.22190299 -0.06895524 0.15368004
v 0.22190299 0.06256476 0.17959304
v 0.22190299 0.06256476 0.15368004
v -0.04399664 0.02601619 0.20876805
v -0.04363476 -0.01027626 0.20876805
v -0.06566875 -0.01064526 0.20876805
v -0.06613995 0.02596988 0.20876805
v -0.04537669 -0.06053778 0.20876805
v -0.06514146 -0.06808716 0.20876805
v -0.0665823 0.06252177 0.20876805
v -0.04437961 0.06247879 0.20876805
v 0.06603638 0.02559484 0.20876805
v 0.06543662 -0.01141486 0.20876805
v 0.04337904 -0.01096007 0.20876805
v 0.04387537 0.02567 0.20876805
v 0.0647695 -0.06928876 0.20876805
v 0.04498586 -0.06171202 0.20876805
v 0.04436638 0.06247879 0.20876805
v 0.06657569 0.06252177 0.20876805
v -0.219136 -0.06895524 0.15368004
v -0.219136 -0.04909724 0.12364104
v -0.219136 -0.01116424 0.10185504
v -0.219136 -0.01116424 0.15368004
v -0.219136 0.02570075 0.17959304
v -0.219136 0.06256476 0.17959304
v -0.219136 -0.06895524 0.17959304
v -0.219136 -0.01116424 0.17959304
v 0.219136 -0.01116424 0.15368004
v 0.219136 -0.01116424 0.10185504
v 0.219136 -0.04921224 0.12538805
v 0.219136 -0.06895524 0.15368004
v 0.219136 0.06256476 0.15368004
v 0.219136 0.06256476 0.10185504
v 0.219136 0.02570075 0.10185504
v 0.219136 0.02570075 0.15368004
v -0.219136 0.02570075 0.15368004
v -0.219136 0.06256476 0.15368004
v -0.219136 0.02570075 0.10185504
v -0.219136 0.06256476 0.10185504
v 0.219136 -0.01116424 0.17959304
v 0.219136 -0.06895524 0.17959304
v 0.219136 0.06256476 0.17959304
v 0.219136 0.02570075 0.17959304
v -0.04363333 -0.01026084 0.20600104
v -0.04400089 0.02607292 0.20600104
v -0.00006994 0.02573591 0.20600104
v -0.00016907 -0.01121582 0.20600104
v -0.06614665 0.02599933 0.20600104
v -0.06566742 -0.0106007 0.20600104
v -0.04538437 -0.06049501 0.20600104
v -0.00025925 -0.0266312 0.20600104
v -0.06514972 -0.06806378 0.20600104
v -0.06658192 0.06252674 0.20600104
v -0.04437884 0.06248874 0.20600104
v -0.00000877 0.06245074 0.20600104
v 0.06544059 -0.01136951 0.20600104
v 0.06604809 0.02563364 0.20600104
v 0.04388689 0.0257353 0.20600104
v 0.04338048 -0.01094466 0.20600104
v 0.0647823 -0.06925521 0.20600104
v 0.0449992 -0.06165719 0.20600104
v 0.04436715 0.06248874 0.20600104
v 0.06657607 0.06252674 0.20600104
v 0.21412299 0.02570075 0.20600104
v 0.21412299 0.06256476 0.20600104
v 0.21689 0.06256476 0.20876805
v 0.21689 0.02570075 0.20876805
v 0.219136 -0.01116424 0.20098805
v 0.219136 0.02570075 0.20098805
v 0.22190299 -0.01116424 0.20375505
v 0.22190299 0.02570075 0.20375505
v 0.219136 -0.06895524 0.20098805
v 0.22190299 -0.06895524 0.20375505
v 0.219136 0.06256476 0.20098805
v 0.22190299 0.06256476 0.20375505
v 0.21412299 -0.01116424 0.20600104
v 0.21689 -0.01116424 0.20876805
v 0.21412299 -0.06895524 0.20600104
v 0.21689 -0.06895524 0.20876805
v -0.219136 0.06256476 0.20098805
v -0.219136 0.02570075 0.20098805
v -0.22190299 0.06256476 0.20375505
v -0.22190299 0.02570075 0.20375505
v -0.21412299 0.02570075 0.20600104
v -0.21412299 -0.01116424 0.20600104
v -0.21689 -0.01116424 0.20876805
v -0.21689 0.02570075 0.20876805
v -0.219136 -0.01116424 0.20098805
v -0.22190299 -0.01116424 0.20375505
v -0.219136 -0.06895524 0.20098805
v -0.22190299 -0.06895524 0.20375505
v -0.21412299 -0.06895524 0.20600104
v -0.21689 -0.06895524 0.20876805
v -0.21412299 0.06256476 0.20600104
v -0.21689 0.06256476 0.20876805
v -0.03305395 -0.0514811 0.20354436
v -0.02260452 -0.04318419 0.20381382
v -0.01124899 -0.03800101 0.20398494
v 0.00037085 -0.03644772 0.20404101
v 0.0119002 -0.03857086 0.20397947
v 0.02298689 -0.0443065 0.2038033
v 0.03301538 -0.05310751 0.20352824
v 0.03301078 -0.0533652 0.2116176
v 0.02298225 -0.04456427 0.21189247
v 0.01189571 -0.03882858 0.21206872
v 0.00036634 -0.03670548 0.21212992
v -0.01125354 -0.03825872 0.21207408
v -0.02260903 -0.04344192 0.21190279
v -0.03305856 -0.05173876 0.21163281
v 0.03599925 -0.04475873 0.21324284
v 0.03600541 -0.04441511 0.20245717
v 0.02512865 -0.03511995 0.2135438
v 0.02513469 -0.03477626 0.20275846
v 0.01311817 -0.02885217 0.2137369
v 0.01312419 -0.02850851 0.2029512
v 0.00061716 -0.02653233 0.21380394
v 0.00062316 -0.0261887 0.20301818
v -0.01198291 -0.02823428 0.21374246
v -0.01197689 -0.02789062 0.20295727
v -0.02428742 -0.03390345 0.21355505
v -0.0242813 -0.0335598 0.20276978
v -0.03561907 -0.04299576 0.21325908
v -0.03561316 -0.04265214 0.2024746
v -0.04031786 -0.05996545 0.21113063
v -0.0437917 -0.06227114 0.2043588
v -0.04379461 -0.06245475 0.21012082
v -0.04031373 -0.05972276 0.20351317
v -0.04358195 -0.05211487 0.21265025
v -0.04666662 -0.05563433 0.20456865
v -0.04666995 -0.05581786 0.21033063
v -0.04357611 -0.0517913 0.20249353
v 0.03985629 -0.06193905 0.21111235
v 0.04320941 -0.06441282 0.20433796
v 0.04320609 -0.06459638 0.21010103
v 0.03986072 -0.06169641 0.20349432
v 0.04350345 -0.05425867 0.21263016
v 0.04640746 -0.05792543 0.20454648
v 0.04640419 -0.05810907 0.21030943
v 0.04350891 -0.05393503 0.20247252
v -0.04474991 -0.06005885 0.20442861
v -0.04549209 -0.05416072 0.20335941
v -0.04171163 -0.05630042 0.20235088
v -0.04213416 -0.06194565 0.20414851
v -0.04357289 -0.05859039 0.20321928
v -0.04171714 -0.05662402 0.21250727
v -0.04549684 -0.05442429 0.21163296
v -0.04475307 -0.06024244 0.21019065
v -0.04213754 -0.0621433 0.21035327
v -0.04357745 -0.05885403 0.21149271
v -0.04666826 -0.05572608 0.20744945
v -0.04357887 -0.05195316 0.20757159
v -0.04549442 -0.05429251 0.20749589
v -0.04017731 -0.0476306 0.20231388
v -0.0341504 -0.04767271 0.20231583
v -0.03721047 -0.05596293 0.20339934
v -0.03848151 -0.05236739 0.20216353
v -0.04301932 -0.0631133 0.20721617
v -0.04475156 -0.06015064 0.20730966
v 0.02390183 -0.04054125 0.21337056
v 0.02825239 -0.04873629 0.21176216
v 0.03429092 -0.04970122 0.21308444
v 0.03083178 -0.03967594 0.21340195
v 0.02935742 -0.0448779 0.21323517
v 0.03083787 -0.03933228 0.20261614
v 0.02513173 -0.03494811 0.20815129
v 0.03600243 -0.04458697 0.20785008
v 0.03083475 -0.03950415 0.20800919
v 0.03429713 -0.04935769 0.20229905
v 0.02825683 -0.04847849 0.20367305
v 0.0239078 -0.04019758 0.2025849
v 0.02936343 -0.04453416 0.20244975
v 0.01241915 -0.03457744 0.21355421
v 0.01751591 -0.04125423 0.21199464
v 0.01920856 -0.03150335 0.21365577
v 0.01824089 -0.03709986 0.2134771
v 0.0192145 -0.03115974 0.20287036
v 0.01312117 -0.02868035 0.20834422
v 0.01921156 -0.03133155 0.20826333
v 0.01752041 -0.04099646 0.20390543
v 0.01242517 -0.03423384 0.20276871
v 0.01824689 -0.03675624 0.20269127
v 0.00047341 -0.03237005 0.21361762
v 0.00616448 -0.03730972 0.21211391
v 0.00690463 -0.02719208 0.21378634
v 0.00648127 -0.03299805 0.21360124
v 0.00691064 -0.02684845 0.20300087
v 0.00062016 -0.02636051 0.20841099
v 0.00690763 -0.02702028 0.20839341
v 0.00616899 -0.03705198 0.20402498
v 0.00047941 -0.03202639 0.2028324
v 0.00648726 -0.03265442 0.20281556
v -0.01156655 -0.03398703 0.21355928
v -0.00545451 -0.03702364 0.2121164
v -0.00569517 -0.02688197 0.21378922
v -0.00555807 -0.03270173 0.21360385
v -0.00568916 -0.02653832 0.20300385
v -0.01197994 -0.02806235 0.20834995
v -0.00569217 -0.02671015 0.20839636
v -0.00544999 -0.03676592 0.20402774
v -0.01156053 -0.03364339 0.20277407
v -0.00555207 -0.03235811 0.20281818
v -0.02332873 -0.0393786 0.21338115
v -0.01698622 -0.04040488 0.21200278
v -0.01819634 -0.03058253 0.21366451
v -0.01750524 -0.03621986 0.21348515
v -0.01819035 -0.0302389 0.20287866
v -0.02428434 -0.03373165 0.20816236
v -0.01819321 -0.03041076 0.2082716
v -0.01698169 -0.04014712 0.20391322
v -0.02332274 -0.03903494 0.20259581
v -0.01749931 -0.03587626 0.2026994
v -0.03415635 -0.04801626 0.21309976
v -0.02807805 -0.04734955 0.21177502
v -0.03020776 -0.03817334 0.21341572
v -0.02899131 -0.04344143 0.21324864
v -0.03020172 -0.03782969 0.20263111
v -0.03561624 -0.04282394 0.20786704
v -0.03020468 -0.03800154 0.20802323
v -0.0280736 -0.04709181 0.20368652
v -0.0289853 -0.04309781 0.20246391
v 0.04350637 -0.05409691 0.20755119
v 0.04530173 -0.05665946 0.21161218
v 0.04640575 -0.05801727 0.20742802
v 0.04530632 -0.05639584 0.20333752
v 0.04530397 -0.05652767 0.2074749
v 0.04142471 -0.05834693 0.20233082
v 0.04427509 -0.06225036 0.20440758
v 0.04156987 -0.06400616 0.20412851
v 0.04317155 -0.06072581 0.20319868
v 0.04427191 -0.06243393 0.21017058
v 0.04141909 -0.05867059 0.21248818
v 0.04156626 -0.06420388 0.21033419
v 0.04316676 -0.06098939 0.21147275
v -0.04018319 -0.04797416 0.21309828
v -0.04018019 -0.04780238 0.20770572
v -0.03721506 -0.05622063 0.21148765
v -0.0384873 -0.05271097 0.21294784
v 0.04031881 -0.04961211 0.20229409
v 0.03694617 -0.05778843 0.20338156
v 0.03839189 -0.05425976 0.20214518
v 0.04239777 -0.06521593 0.2071964
v 0.04427351 -0.06234217 0.20728914
v 0.04031282 -0.04995574 0.21307984
v 0.04031566 -0.04978389 0.20768691
v 0.03694161 -0.05804613 0.21147069
v 0.03838608 -0.05460337 0.21293051
v -0.03984955 -0.06097124 0.20728641
v -0.03269051 -0.05286517 0.20754846
v -0.0367888 -0.05727601 0.20740585
v -0.02236713 -0.04468186 0.2078147
v -0.02777174 -0.04853775 0.20768894
v -0.01114713 -0.03956804 0.20798394
v -0.01681126 -0.04168537 0.20791339
v 0.00033266 -0.03803602 0.20803923
v -0.00541794 -0.03834975 0.20802585
v 0.01172319 -0.0401311 0.20797851
v 0.00606086 -0.03863233 0.20802302
v 0.02267789 -0.04579073 0.20780448
v 0.01727636 -0.04252449 0.20790541
v 0.03258608 -0.05447203 0.20753331
v 0.02788613 -0.04990787 0.20767618
v 0.03933744 -0.06292067 0.20726783
v 0.03646224 -0.05907921 0.20738874
v 0.04103427 -0.06518749 0.20719645
v -0.04165585 -0.06315195 0.20721569
g Group31140
f 58 34 89 90
f 57 58 90 91
f 56 57 91 92
f 53 54 135 136
f 52 53 136 137
f 51 52 137 138
f 3 107 108 17
f 14 139 140 16
f 14 107 141 139
f 83 23 11 88
f 82 83 88 87
f 44 45 93 94
f 43 44 94 95
f 17 43 95 96
f 15 22 110 111
f 13 12 22 15
f 13 109 112 12
f 81 82 87 86
f 80 81 86 85
f 79 80 85 84
f 23 113 110 22
f 12 11 23 22
f 11 12 112 114
f 5 97 96 24
f 4 155 156 25
f 2 157 158 98
f 25 99 100 26
f 6 4 25 26
f 4 6 101 98
f 55 56 92 102
f 25 55 102 99
f 54 33 146 135
f 26 100 103 27
f 7 6 26 27
f 8 104 103 28
f 6 7 104 101
f 24 51 138 143
f 46 31 105 106
f 45 46 106 93
f 28 21 19 20
f 10 8 28 20
f 8 10 9 1
f 30 147 148 116
f 68 19 113 117
f 32 89 159 160
f 16 35 118 108
f 35 36 119 118
f 36 37 120 119
f 37 38 121 120
f 38 30 116 121
f 18 47 122 111
f 47 48 123 122
f 48 49 124 123
f 49 50 125 124
f 50 32 115 125
f 15 39 161 162
f 39 40 163 161
f 40 41 164 163
f 41 42 165 164
f 42 29 166 165
f 66 68 117 126
f 88 11 114 127
f 87 88 127 128
f 86 87 128 129
f 85 86 129 130
f 84 85 130 131
f 59 61 62 60
f 61 63 64 62
f 63 65 66 64
f 65 67 68 66
f 67 20 19 68
f 20 67 69 10
f 67 65 70 69
f 65 63 71 70
f 63 61 72 71
f 61 59 73 72
f 74 75 72 73
f 75 76 71 72
f 76 77 70 71
f 77 78 69 70
f 78 9 10 69
f 60 62 133 132
f 62 64 134 133
f 64 66 126 134
f 90 89 32 50
f 91 90 50 49
f 92 91 49 48
f 94 93 53 52
f 95 94 52 51
f 96 95 51 24
f 97 3 17 96
f 98 158 155 4
f 99 18 21 100
f 98 101 1 2
f 102 92 48 47
f 99 102 47 18
f 100 21 28 103
f 104 7 27 103
f 101 104 8 1
f 106 105 33 54
f 93 106 54 53
f 89 34 167 159
f 107 14 16 108
f 107 3 144 141
f 111 110 21 18
f 109 2 1 112
f 113 19 21 110
f 114 112 1 9
f 116 148 150 31
f 117 113 23 83
f 108 118 43 17
f 118 119 44 43
f 119 120 45 44
f 120 121 46 45
f 121 116 31 46
f 111 122 39 15
f 122 123 40 39
f 123 124 41 40
f 124 125 42 41
f 125 115 29 42
f 126 117 83 82
f 127 114 9 78
f 128 127 78 77
f 129 128 77 76
f 130 129 76 75
f 131 130 75 74
f 132 133 80 79
f 133 134 81 80
f 134 126 82 81
f 136 135 168 169
f 137 136 169 170
f 138 137 170 171
f 139 172 162 140
f 139 141 173 172
f 142 5 24 143
f 144 3 97 145
f 135 146 167 168
f 143 138 171 156
f 147 166 174 148
f 150 149 105 31
f 140 151 35 16
f 151 152 36 35
f 152 153 37 36
f 153 154 38 37
f 154 147 30 38
f 145 97 5 142
f 149 146 33 105
f 141 144 157 173
f 155 142 143 156
f 157 144 145 158
f 162 161 151 140
f 161 163 152 151
f 163 164 153 152
f 164 165 154 153
f 165 166 147 154
f 158 145 142 155
f 159 167 146 149
f 169 168 58 57
f 170 169 57 56
f 171 170 56 55
f 172 13 15 162
f 172 173 109 13
f 168 167 34 58
f 156 171 55 25
f 166 29 115 174
f 173 157 2 109
f 174 115 32 160
f 178 177 176 175
f 150 148 178 175
f 174 160 176 177
f 148 174 177 178
f 176 180 179 175
f 149 150 175 179
f 159 149 179 180
f 160 159 180 176
f 238 270 269 214
f 237 271 270 238
f 236 272 271 237
f 233 316 315 234
f 232 317 316 233
f 231 318 317 232
f 183 197 288 287
f 194 196 320 319
f 194 319 321 287
f 263 268 191 203
f 262 267 268 263
f 224 274 273 225
f 223 275 274 224
f 197 276 275 223
f 195 291 290 202
f 193 195 202 192
f 193 192 292 289
f 261 266 267 262
f 260 265 266 261
f 259 264 265 260
f 203 202 290 293
f 192 202 203 191
f 191 294 292 192
f 185 204 276 277
f 184 205 336 335
f 182 278 338 337
f 205 206 280 279
f 186 206 205 184
f 184 278 281 186
f 235 282 272 236
f 205 279 282 235
f 234 315 326 213
f 206 207 283 280
f 187 207 206 186
f 188 208 283 284
f 186 281 284 187
f 204 323 318 231
f 226 286 285 211
f 225 273 286 226
f 208 200 199 201
f 190 200 208 188
f 188 181 189 190
f 210 296 328 327
f 248 297 293 199
f 212 340 339 269
f 196 288 298 215
f 215 298 299 216
f 216 299 300 217
f 217 300 301 218
f 218 301 296 210
f 198 291 302 227
f 227 302 303 228
f 228 303 304 229
f 229 304 305 230
f 230 305 295 212
f 195 342 341 219
f 219 341 343 220
f 220 343 344 221
f 221 344 345 222
f 222 345 346 209
f 246 306 297 248
f 268 307 294 191
f 267 308 307 268
f 266 309 308 267
f 265 310 309 266
f 264 311 310 265
f 239 240 242 241
f 241 242 244 243
f 243 244 246 245
f 245 246 248 247
f 247 248 199 200
f 200 190 249 247
f 247 249 250 245
f 245 250 251 243
f 243 251 252 241
f 241 252 253 239
f 254 253 252 255
f 255 252 251 256
f 256 251 250 257
f 257 250 249 258
f 258 249 190 189
f 240 312 313 242
f 242 313 314 244
f 244 314 306 246
f 270 230 212 269
f 271 229 230 270
f 272 228 229 271
f 274 232 233 273
f 275 231 232 274
f 276 204 231 275
f 277 276 197 183
f 278 184 335 338
f 279 280 201 198
f 278 182 181 281
f 282 227 228 272
f 279 198 227 282
f 280 283 208 201
f 284 283 207 187
f 281 181 188 284
f 286 234 213 285
f 273 233 234 286
f 269 339 347 214
f 287 288 196 194
f 287 321 324 183
f 291 198 201 290
f 289 292 181 182
f 293 290 201 199
f 294 189 181 292
f 296 211 330 328
f 297 263 203 293
f 288 197 223 298
f 298 223 224 299
f 299 224 225 300
f 300 225 226 301
f 301 226 211 296
f 291 195 219 302
f 302 219 220 303
f 303 220 221 304
f 304 221 222 305
f 305 222 209 295
f 306 262 263 297
f 307 258 189 294
f 308 257 258 307
f 309 256 257 308
f 310 255 256 309
f 311 254 255 310
f 312 259 260 313
f 313 260 261 314
f 314 261 262 306
f 316 349 348 315
f 317 350 349 316
f 318 351 350 317
f 319 320 342 352
f 319 352 353 321
f 322 323 204 185
f 324 325 277 183
f 315 348 347 326
f 323 336 351 318
f 327 328 354 346
f 330 211 285 329
f 320 196 215 331
f 331 215 216 332
f 332 216 217 333
f 333 217 218 334
f 334 218 210 327
f 325 322 185 277
f 329 285 213 326
f 321 353 337 324
f 335 336 323 322
f 337 338 325 324
f 342 320 331 341
f 341 331 332 343
f 343 332 333 344
f 344 333 334 345
f 345 334 327 346
f 338 335 322 325
f 339 329 326 347
f 349 237 238 348
f 350 236 237 349
f 351 235 236 350
f 352 342 195 193
f 352 193 289 353
f 348 238 214 347
f 336 205 235 351
f 346 354 295 209
f 353 289 182 337
f 354 340 212 295
f 358 355 356 357
f 330 355 358 328
f 354 357 356 340
f 328 358 357 354
f 356 355 359 360
f 329 359 355 330
f 339 360 359 329
f 340 356 360 339
f 312 132 79 259
f 132 312 240 60
f 239 59 60 240
f 59 239 253 73
f 73 253 254 74
f 74 254 311 131
f 131 311 264 84
f 84 264 259 79
g Group28895
f 433 440 423 417
f 440 439 424 423
f 422 424 439 438
f 420 422 438 437
f 371 375 365 367
f 373 368 366 376
f 372 371 367 369
f 363 364 372 369
f 374 370 368 373
f 362 361 370 374
f 437 436 421 420
f 414 421 436 430
f 448 361 362 451
f 411 448 451 412
f 418 419 435 434
f 425 435 419 409
f 378 442 444 377
f 389 365 390 391
f 395 367 365 389
f 397 369 367 395
f 377 363 369 397
f 372 399 400 371
f 364 387 399 372
f 371 400 403 375
f 375 403 405 406
f 375 406 390 365
f 432 431 416 415
f 415 418 434 432
f 442 381 379 444
f 380 379 381 382
f 449 414 430 450
f 384 383 386 385
f 411 412 429 427
f 431 433 417 416
f 382 386 383 380
f 393 392 389 391
f 391 390 394 393
f 392 396 395 389
f 396 398 397 395
f 377 397 398 378
f 388 402 399 387
f 400 399 402 401
f 401 404 403 400
f 404 408 405 403
f 406 405 408 407
f 390 406 407 394
f 428 429 412 413
f 413 449 450 428
f 385 452 445 384
f 446 364 363 443
f 447 409 361 448
f 415 416 417 366
f 418 415 366 368
f 419 418 368 370
f 361 409 419 370
f 374 373 420 421
f 414 362 374 421
f 373 376 422 420
f 376 423 424 422
f 376 366 417 423
f 410 411 427 426
f 410 447 448 411
f 426 427 382 381
f 452 388 387 445
f 429 428 385 386
f 383 446 443 380
f 427 429 386 382
f 431 432 392 393
f 433 431 393 394
f 432 434 396 392
f 434 435 398 396
f 425 378 398 435
f 436 437 401 402
f 388 430 436 402
f 437 438 404 401
f 439 440 407 408
f 438 439 408 404
f 440 433 394 407
f 425 441 442 378
f 441 426 381 442
f 451 362 414 449
f 441 425 409 447
f 426 441 447 410
f 412 451 449 413
f 380 443 444 379
f 443 363 377 444
f 450 430 388 452
f 428 450 452 385
f 384 445 446 383
f 445 387 364 446
g Group10980
f 525 509 515 532
f 532 515 516 531
f 514 530 531 516
f 512 529 530 514
f 463 459 457 467
f 465 468 458 460
f 464 461 459 463
f 455 461 464 456
f 466 465 460 462
f 454 466 462 453
f 529 512 513 528
f 506 522 528 513
f 540 543 454 453
f 503 504 543 540
f 510 526 527 511
f 517 501 511 527
f 470 469 536 534
f 481 483 482 457
f 487 481 457 459
f 489 487 459 461
f 469 489 461 455
f 464 463 492 491
f 456 464 491 479
f 463 467 495 492
f 467 498 497 495
f 467 457 482 498
f 524 507 508 523
f 507 524 526 510
f 534 536 471 473
f 472 474 473 471
f 541 542 522 506
f 476 477 478 475
f 503 519 521 504
f 523 508 509 525
f 474 472 475 478
f 485 483 481 484
f 483 485 486 482
f 484 481 487 488
f 488 487 489 490
f 469 470 490 489
f 480 479 491 494
f 492 493 494 491
f 493 492 495 496
f 496 495 497 500
f 498 499 500 497
f 482 486 499 498
f 520 505 504 521
f 505 520 542 541
f 477 476 537 544
f 538 535 455 456
f 539 540 453 501
f 507 458 509 508
f 510 460 458 507
f 511 462 460 510
f 453 462 511 501
f 466 513 512 465
f 506 513 466 454
f 465 512 514 468
f 468 514 516 515
f 468 515 509 458
f 502 518 519 503
f 502 503 540 539
f 518 473 474 519
f 544 537 479 480
f 521 478 477 520
f 475 472 535 538
f 519 474 478 521
f 523 485 484 524
f 525 486 485 523
f 524 484 488 526
f 526 488 490 527
f 517 527 490 470
f 528 494 493 529
f 480 494 528 522
f 529 493 496 530
f 531 500 499 532
f 530 496 500 531
f 532 499 486 525
f 517 470 534 533
f 533 534 473 518
f 543 541 506 454
f 533 539 501 517
f 518 502 539 533
f 504 505 541 543
f 472 471 536 535
f 535 536 469 455
f 542 544 480 522
f 520 477 544 542
f 476 475 538 537
f 537 538 456 479
g Group21374
f 592 591 590 589
f 555 562 589 590
f 554 555 590 591
f 560 562 555 554
f 645 633 626 625
f 646 582 581 636
f 618 617 653 654
f 575 655 656 576
f 596 592 589 595
f 562 561 595 589
f 558 561 562 560
f 600 599 598 597
f 551 550 598 599
f 570 551 599 600
f 570 567 550 551
f 604 603 602 601
f 552 572 601 602
f 549 552 602 603
f 568 572 552 549
f 594 606 605 593
f 563 564 606 594
f 563 557 559 564
f 605 607 591 592
f 553 554 591 607
f 559 560 554 553
f 606 608 607 605
f 556 553 607 608
f 564 556 608 606
f 564 559 553 556
f 593 605 592 596
f 557 558 560 559
f 597 598 603 604
f 550 549 603 598
f 567 568 549 550
f 610 600 597 609
f 569 570 600 610
f 569 565 567 570
f 612 604 601 611
f 572 571 611 601
f 566 571 572 568
f 647 645 625 629
f 585 648 647 629
f 648 585 582 646
f 621 618 654 661
f 662 578 621 661
f 578 662 655 575
f 609 597 604 612
f 565 566 568 567
f 617 622 663 653
f 579 664 663 622
f 576 656 664 579
f 633 634 632 626
f 635 588 632 634
f 636 581 588 635
f 616 615 614 613
f 545 574 573 546
f 652 651 664 656
f 651 649 663 664
f 620 616 613 619
f 577 547 620 619
f 547 577 574 545
f 657 659 661 654
f 655 662 660 658
f 662 661 659 660
f 658 652 656 655
f 650 657 654 653
f 653 663 649 650
f 615 624 623 614
f 548 580 623 624
f 546 573 580 548
f 613 614 617 618
f 574 575 576 573
f 618 621 619 613
f 578 577 619 621
f 575 574 577 578
f 614 623 622 617
f 580 579 622 623
f 573 576 579 580
f 657 596 595 659
f 652 658 558 557
f 628 627 615 616
f 583 545 546 584
f 650 593 596 657
f 561 660 659 595
f 658 660 561 558
f 630 628 616 620
f 547 586 630 620
f 586 547 545 583
f 627 631 624 615
f 587 548 624 631
f 584 546 548 587
f 651 652 557 563
f 651 563 594 649
f 649 594 593 650
f 625 626 627 628
f 582 583 584 581
f 628 630 629 625
f 586 585 629 630
f 583 582 585 586
f 626 632 631 627
f 588 587 631 632
f 581 584 587 588
f 639 642 648 646
f 642 641 647 648
f 640 639 646 636
f 637 609 612 638
f 639 640 566 565
f 641 610 609 637
f 642 569 610 641
f 642 639 565 569
f 638 612 611 643
f 571 644 643 611
f 640 644 571 566
f 636 635 644 640
f 635 634 643 644
f 634 633 638 643
f 645 647 641 637
f 633 645 637 638
g Group25158
f 694 709 713 712
f 709 698 710 713
f 713 710 700 711
f 712 713 711 696
f 693 714 718 717
f 714 697 715 718
f 718 715 699 716
f 717 718 716 695
f 698 719 721 710
f 719 699 715 721
f 721 715 697 720
f 710 721 720 700
f 700 722 725 711
f 722 692 723 725
f 725 723 665 724
f 711 725 724 696
f 698 709 727 719
f 709 694 726 727
f 727 726 695 716
f 719 727 716 699
f 681 728 732 731
f 728 673 729 732
f 732 729 672 730
f 731 732 730 679
f 680 733 736 735
f 733 682 734 736
f 736 734 681 731
f 735 736 731 679
f 682 733 740 739
f 733 680 737 740
f 740 737 671 738
f 739 740 738 670
f 683 741 744 743
f 741 674 742 744
f 744 742 673 728
f 743 744 728 681
f 682 745 747 734
f 745 684 746 747
f 747 746 683 743
f 734 747 743 681
f 684 745 750 749
f 745 682 739 750
f 750 739 670 748
f 749 750 748 669
f 685 751 754 753
f 751 675 752 754
f 754 752 674 741
f 753 754 741 683
f 684 755 757 746
f 755 686 756 757
f 757 756 685 753
f 746 757 753 683
f 686 755 760 759
f 755 684 749 760
f 760 749 669 758
f 759 760 758 668
f 687 761 764 763
f 761 676 762 764
f 764 762 675 751
f 763 764 751 685
f 686 765 767 756
f 765 688 766 767
f 767 766 687 763
f 756 767 763 685
f 688 765 770 769
f 765 686 759 770
f 770 759 668 768
f 769 770 768 667
f 689 771 774 773
f 771 677 772 774
f 774 772 676 761
f 773 774 761 687
f 688 775 777 766
f 775 690 776 777
f 777 776 689 773
f 766 777 773 687
f 690 775 780 779
f 775 688 769 780
f 780 769 667 778
f 779 780 778 666
f 691 781 784 783
f 781 678 782 784
f 784 782 677 771
f 783 784 771 689
f 690 785 787 776
f 785 692 786 787
f 787 786 691 783
f 776 787 783 689
f 692 785 789 723
f 785 690 779 789
f 789 779 666 788
f 723 789 788 665
f 708 790 794 793
f 790 705 791 794
f 794 791 707 792
f 793 794 792 706
f 704 795 798 797
f 795 708 793 798
f 798 793 706 796
f 797 798 796 702
f 703 799 802 801
f 799 707 791 802
f 802 791 705 800
f 801 802 800 701
f 692 722 804 786
f 722 700 720 804
f 804 720 697 803
f 786 804 803 691
f 697 714 806 803
f 714 693 805 806
f 806 805 678 781
f 803 806 781 691
f 680 807 809 737
f 807 708 795 809
f 809 795 704 808
f 737 809 808 671
f 702 796 811 810
f 796 706 792 811
f 811 792 707 799
f 810 811 799 703
f 708 807 813 790
f 807 680 735 813
f 813 735 679 812
f 790 813 812 705
f 679 730 815 812
f 730 672 814 815
f 815 814 701 800
f 812 815 800 705
f 678 805 818 817
f 805 693 816 818
f 818 816 696 724
f 817 818 724 665
f 677 782 820 819
f 782 678 817 820
f 820 817 665 788
f 819 820 788 666
f 676 772 822 821
f 772 677 819 822
f 822 819 666 778
f 821 822 778 667
f 675 762 824 823
f 762 676 821 824
f 824 821 667 768
f 823 824 768 668
f 674 752 826 825
f 752 675 823 826
f 826 823 668 758
f 825 826 758 669
f 673 742 828 827
f 742 674 825 828
f 828 825 669 748
f 827 828 748 670
f 672 729 830 829
f 729 673 827 830
f 830 827 670 738
f 829 830 738 671
f 701 814 832 831
f 814 672 829 832
f 832 829 671 808
f 831 832 808 704
f 702 810 833 797
f 810 703 801 833
f 833 801 701 831
f 797 833 831 704
f 696 816 834 712
f 816 693 717 834
f 834 717 695 726
f 712 834 726 694

 